<?xml version="1.0" encoding="UTF-8" standalone="no"?>
<!DOCTYPE svg PUBLIC "-//W3C//DTD SVG 1.1//EN"
"http://www.w3.org/Graphics/SVG/1.1/DTD/svg11.dtd">
<svg viewBox="0 0 909 1286" version="1.1" xmlns="http://www.w3.org/2000/svg" xmlns:xlink="http://www.w3.org/1999/xlink">
<defs>
<clipPath id="c0_13"><path d="M0,1286.2V0H909.4V1286.2Z" /></clipPath>
<style type="text/css"><![CDATA[
.g0_13{
fill: none;
stroke: #0000FF;
stroke-width: 1.0694444;
stroke-linecap: butt;
stroke-linejoin: miter;
}
.g1_13{
fill: none;
stroke: #000000;
stroke-width: 0.7638889;
stroke-linecap: butt;
stroke-linejoin: round;
}
]]></style>
</defs>
<g clip-path="url(#c0_13)">
<g fill="#000000" >
<use xlink:href="#f0_w" transform="matrix(12,0,0,12,732.3,146.4)" />
<use xlink:href="#f0_q" transform="matrix(12,0,0,12,738.4,146.4)" />
<use xlink:href="#f0_j" transform="matrix(12,0,0,12,743.4,146.4)" />
<use xlink:href="#f0_6" transform="matrix(12,0,0,12,755.6,146.4)" />
<use xlink:href="#f0_u" transform="matrix(12,0,0,12,760.6,146.4)" />
<use xlink:href="#f0_12" transform="matrix(12,0,0,12,291.3,146.4)" />
<use xlink:href="#f0_e" transform="matrix(12,0,0,12,298.5,146.4)" />
<use xlink:href="#f0_c" transform="matrix(12,0,0,12,310.4,146.4)" />
<use xlink:href="#f0_3" transform="matrix(12,0,0,12,323.4,146.4)" />
<use xlink:href="#f0_s" transform="matrix(12,0,0,12,327.5,146.4)" />
<use xlink:href="#f0_4" transform="matrix(12,0,0,12,335,146.4)" />
<use xlink:href="#f0_b" transform="matrix(12,0,0,12,345.4,146.4)" />
<use xlink:href="#f0_i" transform="matrix(12,0,0,12,363.7,146.4)" />
<use xlink:href="#f0_j" transform="matrix(12,0,0,12,375.7,146.4)" />
<use xlink:href="#f0_p" transform="matrix(12,0,0,12,393.9,146.4)" />
<use xlink:href="#f0_3" transform="matrix(12,0,0,12,403.7,146.4)" />
<use xlink:href="#f0_j" transform="matrix(12,0,0,12,407.8,146.4)" />
<use xlink:href="#f0_w" transform="matrix(12,0,0,12,425.8,146.4)" />
<use xlink:href="#f0_i" transform="matrix(12,0,0,12,431.9,146.4)" />
<use xlink:href="#f0_3" transform="matrix(12,0,0,12,444,146.4)" />
<use xlink:href="#f0_a" transform="matrix(12,0,0,12,448.1,146.4)" />
<use xlink:href="#f0_6" transform="matrix(12,0,0,12,458.5,146.4)" />
<use xlink:href="#f0_a" transform="matrix(12,0,0,12,463.5,146.4)" />
<use xlink:href="#f0_3" transform="matrix(12,0,0,12,473.9,146.4)" />
<use xlink:href="#f0_b" transform="matrix(12,0,0,12,478,146.4)" />
<use xlink:href="#f0_11" transform="matrix(12,0,0,12,490.4,146.4)" />
<use xlink:href="#f0_d" transform="matrix(12,0,0,12,503.4,146.4)" />
<use xlink:href="#f0_p" transform="matrix(12,0,0,12,513.1,146.4)" />
<use xlink:href="#f0_b" transform="matrix(12,0,0,12,522.9,146.4)" />
<use xlink:href="#f0_6" transform="matrix(12,0,0,12,535.4,146.4)" />
<use xlink:href="#f0_a" transform="matrix(12,0,0,12,540.4,146.4)" />
<use xlink:href="#f0_c" transform="matrix(12,0,0,12,550.8,146.4)" />
<use xlink:href="#f0_e" transform="matrix(12,0,0,12,569.6,146.4)" />
<use xlink:href="#f0_b" transform="matrix(12,0,0,12,581.5,146.4)" />
<use xlink:href="#f0_9" transform="matrix(12,0,0,12,599.8,146.4)" />
<use xlink:href="#f0_e" transform="matrix(12,0,0,12,605.6,146.4)" />
<use xlink:href="#f0_n" transform="matrix(12,0,0,12,617.6,146.4)" />
<use xlink:href="#f0_g" transform="matrix(12,0,0,12,624.9,146.4)" />
<use xlink:href="#f0_2" transform="matrix(12,0,0,12,640.8,146.4)" />
<use xlink:href="#f0_6" transform="matrix(12,0,0,12,653,146.4)" />
<use xlink:href="#f0_a" transform="matrix(12,0,0,12,658,146.4)" />
<use xlink:href="#f0_c" transform="matrix(12,0,0,12,668.4,146.4)" />
<use xlink:href="#f0_w" transform="matrix(12,0,0,12,737.3,167.8)" />
<use xlink:href="#f0_e" transform="matrix(12,0,0,12,743.4,167.8)" />
<use xlink:href="#f0_n" transform="matrix(12,0,0,12,755.3,167.8)" />
<use xlink:href="#f0_g" transform="matrix(12,0,0,12,762.5,167.8)" />
<use xlink:href="#f0_d" transform="matrix(12,0,0,12,469.8,167.8)" />
<use xlink:href="#f0_e" transform="matrix(12,0,0,12,479.5,167.8)" />
<use xlink:href="#f0_i" transform="matrix(12,0,0,12,491.5,167.8)" />
<use xlink:href="#f0_j" transform="matrix(12,0,0,12,503.5,167.8)" />
<use xlink:href="#f0_p" transform="matrix(12,0,0,12,521.5,167.8)" />
<use xlink:href="#f0_3" transform="matrix(12,0,0,12,531.3,167.8)" />
<use xlink:href="#f0_j" transform="matrix(12,0,0,12,535.4,167.8)" />
<use xlink:href="#f0_6" transform="matrix(12,0,0,12,547.7,167.8)" />
<use xlink:href="#f0_9" transform="matrix(12,0,0,12,558.6,167.8)" />
<use xlink:href="#f0_e" transform="matrix(12,0,0,12,564.4,167.8)" />
<use xlink:href="#f0_g" transform="matrix(12,0,0,12,576.3,167.8)" />
<use xlink:href="#f0_6" transform="matrix(12,0,0,12,586.3,167.8)" />
<use xlink:href="#f0_i" transform="matrix(12,0,0,12,591.3,167.8)" />
<use xlink:href="#f0_4" transform="matrix(12,0,0,12,609.2,167.8)" />
<use xlink:href="#f0_g" transform="matrix(12,0,0,12,619.5,167.8)" />
<use xlink:href="#f0_t" transform="matrix(12,0,0,12,629.5,167.8)" />
<use xlink:href="#f0_o" transform="matrix(12,0,0,12,641.4,167.8)" />
<use xlink:href="#f0_3" transform="matrix(12,0,0,12,657.9,167.8)" />
<use xlink:href="#f0_n" transform="matrix(12,0,0,12,662,167.8)" />
<use xlink:href="#f0_j" transform="matrix(12,0,0,12,669.3,167.8)" />
<use xlink:href="#f0_w" transform="matrix(12,0,0,12,732.3,189.1)" />
<use xlink:href="#f0_q" transform="matrix(12,0,0,12,738.4,189.1)" />
<use xlink:href="#f0_j" transform="matrix(12,0,0,12,743.4,189.1)" />
<use xlink:href="#f0_6" transform="matrix(12,0,0,12,755.6,189.1)" />
<use xlink:href="#f0_u" transform="matrix(12,0,0,12,760.6,189.1)" />
<use xlink:href="#f0_k" transform="matrix(12,0,0,12,558.3,189.1)" />
<use xlink:href="#f0_e" transform="matrix(12,0,0,12,564.1,189.1)" />
<use xlink:href="#f0_g" transform="matrix(12,0,0,12,576,189.1)" />
<use xlink:href="#f0_6" transform="matrix(12,0,0,12,586,189.1)" />
<use xlink:href="#f0_i" transform="matrix(12,0,0,12,590.9,189.1)" />
<use xlink:href="#f0_9" transform="matrix(12,0,0,12,608.9,189.1)" />
<use xlink:href="#f0_q" transform="matrix(12,0,0,12,614.7,189.1)" />
<use xlink:href="#f0_3" transform="matrix(12,0,0,12,619.6,189.1)" />
<use xlink:href="#f0_6" transform="matrix(12,0,0,12,623.7,189.1)" />
<use xlink:href="#f0_h" transform="matrix(12,0,0,12,628.8,189.1)" />
<use xlink:href="#f0_b" transform="matrix(12,0,0,12,639.4,189.1)" />
<use xlink:href="#f0_3" transform="matrix(12,0,0,12,657.9,189.1)" />
<use xlink:href="#f0_n" transform="matrix(12,0,0,12,662,189.1)" />
<use xlink:href="#f0_j" transform="matrix(12,0,0,12,669.4,189.1)" />
<use xlink:href="#f0_w" transform="matrix(12,0,0,12,737.3,210.5)" />
<use xlink:href="#f0_e" transform="matrix(12,0,0,12,743.4,210.5)" />
<use xlink:href="#f0_n" transform="matrix(12,0,0,12,755.3,210.5)" />
<use xlink:href="#f0_g" transform="matrix(12,0,0,12,762.5,210.5)" />
<use xlink:href="#f0_d" transform="matrix(12,0,0,12,556.9,210.5)" />
<use xlink:href="#f0_e" transform="matrix(12,0,0,12,566.6,210.5)" />
<use xlink:href="#f0_o" transform="matrix(12,0,0,12,578.5,210.5)" />
<use xlink:href="#f0_6" transform="matrix(12,0,0,12,589.1,210.5)" />
<use xlink:href="#f0_l" transform="matrix(12,0,0,12,594.1,210.5)" />
<use xlink:href="#f0_e" transform="matrix(12,0,0,12,611.8,210.5)" />
<use xlink:href="#f0_g" transform="matrix(12,0,0,12,623.7,210.5)" />
<use xlink:href="#f0_m" transform="matrix(12,0,0,12,633.8,210.5)" />
<use xlink:href="#f0_t" transform="matrix(12,0,0,12,645.3,210.5)" />
<use xlink:href="#f0_b" transform="matrix(12,0,0,12,657.2,210.5)" />
<use xlink:href="#f0_e" transform="matrix(12,0,0,12,669.7,210.5)" />
<use xlink:href="#f0_w" transform="matrix(12,0,0,12,732.3,231.9)" />
<use xlink:href="#f0_q" transform="matrix(12,0,0,12,738.4,231.9)" />
<use xlink:href="#f0_j" transform="matrix(12,0,0,12,743.4,231.9)" />
<use xlink:href="#f0_6" transform="matrix(12,0,0,12,755.6,231.9)" />
<use xlink:href="#f0_u" transform="matrix(12,0,0,12,760.6,231.9)" />
<use xlink:href="#f0_k" transform="matrix(12,0,0,12,555.7,231.9)" />
<use xlink:href="#f0_2" transform="matrix(12,0,0,12,561.5,231.9)" />
<use xlink:href="#f0_3" transform="matrix(12,0,0,12,573.5,231.9)" />
<use xlink:href="#f0_m" transform="matrix(12,0,0,12,577.6,231.9)" />
<use xlink:href="#f0_l" transform="matrix(12,0,0,12,589.1,231.9)" />
<use xlink:href="#f0_e" transform="matrix(12,0,0,12,606.9,231.9)" />
<use xlink:href="#f0_f" transform="matrix(12,0,0,12,618.8,231.9)" />
<use xlink:href="#f0_r" transform="matrix(12,0,0,12,630.3,231.9)" />
<use xlink:href="#f0_e" transform="matrix(12,0,0,12,643.3,231.9)" />
<use xlink:href="#f0_9" transform="matrix(12,0,0,12,661.1,231.9)" />
<use xlink:href="#f0_q" transform="matrix(12,0,0,12,666.9,231.9)" />
<use xlink:href="#f0_5" transform="matrix(12,0,0,12,672,231.9)" />
<use xlink:href="#f0_w" transform="matrix(12,0,0,12,722.5,272.7)" />
<use xlink:href="#f0_4" transform="matrix(12,0,0,12,728.6,272.7)" />
<use xlink:href="#f0_h" transform="matrix(12,0,0,12,739,272.7)" />
<use xlink:href="#f0_a" transform="matrix(12,0,0,12,749.8,272.7)" />
<use xlink:href="#f0_b" transform="matrix(12,0,0,12,760.1,272.7)" />
<use xlink:href="#f0_k" transform="matrix(12,0,0,12,430.5,272.7)" />
<use xlink:href="#f0_12" transform="matrix(12,0,0,12,436.3,272.7)" />
<use xlink:href="#f0_2" transform="matrix(12,0,0,12,443.5,272.7)" />
<use xlink:href="#f0_3" transform="matrix(12,0,0,12,455.7,272.7)" />
<use xlink:href="#f0_o" transform="matrix(12,0,0,12,459.8,272.7)" />
<use xlink:href="#f0_6" transform="matrix(12,0,0,12,470.4,272.7)" />
<use xlink:href="#f0_l" transform="matrix(12,0,0,12,475.3,272.7)" />
<use xlink:href="#f0_2" transform="matrix(12,0,0,12,493,272.7)" />
<use xlink:href="#f0_3" transform="matrix(12,0,0,12,505.2,272.7)" />
<use xlink:href="#f0_b" transform="matrix(12,0,0,12,509.3,272.7)" />
<use xlink:href="#f0_3" transform="matrix(12,0,0,12,521.7,272.7)" />
<use xlink:href="#f0_w" transform="matrix(12,0,0,12,531.7,272.7)" />
<use xlink:href="#f0_i" transform="matrix(12,0,0,12,537.8,272.7)" />
<use xlink:href="#f0_3" transform="matrix(12,0,0,12,549.7,272.7)" />
<use xlink:href="#f0_a" transform="matrix(12,0,0,12,553.8,272.7)" />
<use xlink:href="#f0_6" transform="matrix(12,0,0,12,564.2,272.7)" />
<use xlink:href="#f0_a" transform="matrix(12,0,0,12,569.3,272.7)" />
<use xlink:href="#f0_3" transform="matrix(12,0,0,12,579.7,272.7)" />
<use xlink:href="#f0_b" transform="matrix(12,0,0,12,583.8,272.7)" />
<use xlink:href="#f0_11" transform="matrix(12,0,0,12,596.1,272.7)" />
<use xlink:href="#f0_o" transform="matrix(12,0,0,12,609.3,272.7)" />
<use xlink:href="#f0_6" transform="matrix(12,0,0,12,619.8,272.7)" />
<use xlink:href="#f0_l" transform="matrix(12,0,0,12,624.8,272.7)" />
<use xlink:href="#f0_4" transform="matrix(12,0,0,12,642.5,272.7)" />
<use xlink:href="#f0_r" transform="matrix(12,0,0,12,652.9,272.7)" />
<use xlink:href="#f0_6" transform="matrix(12,0,0,12,665.9,272.7)" />
<use xlink:href="#f0_o" transform="matrix(12,0,0,12,670.9,272.7)" />
<use xlink:href="#f0_w" transform="matrix(12,0,0,12,732.3,294.1)" />
<use xlink:href="#f0_q" transform="matrix(12,0,0,12,738.4,294.1)" />
<use xlink:href="#f0_j" transform="matrix(12,0,0,12,743.4,294.1)" />
<use xlink:href="#f0_6" transform="matrix(12,0,0,12,755.6,294.1)" />
<use xlink:href="#f0_u" transform="matrix(12,0,0,12,760.6,294.1)" />
<use xlink:href="#f0_k" transform="matrix(12,0,0,12,559,294.1)" />
<use xlink:href="#f0_3" transform="matrix(12,0,0,12,564.8,294.1)" />
<use xlink:href="#f0_n" transform="matrix(12,0,0,12,568.9,294.1)" />
<use xlink:href="#f0_6" transform="matrix(12,0,0,12,576.3,294.1)" />
<use xlink:href="#f0_g" transform="matrix(12,0,0,12,581.3,294.1)" />
<use xlink:href="#f0_j" transform="matrix(12,0,0,12,591.2,294.1)" />
<use xlink:href="#f0_o" transform="matrix(12,0,0,12,609.4,294.1)" />
<use xlink:href="#f0_6" transform="matrix(12,0,0,12,619.9,294.1)" />
<use xlink:href="#f0_l" transform="matrix(12,0,0,12,625,294.1)" />
<use xlink:href="#f0_4" transform="matrix(12,0,0,12,642.7,294.1)" />
<use xlink:href="#f0_r" transform="matrix(12,0,0,12,653,294.1)" />
<use xlink:href="#f0_6" transform="matrix(12,0,0,12,666,294.1)" />
<use xlink:href="#f0_o" transform="matrix(12,0,0,12,671,294.1)" />
<use xlink:href="#f0_w" transform="matrix(12,0,0,12,737.3,315.5)" />
<use xlink:href="#f0_e" transform="matrix(12,0,0,12,743.4,315.5)" />
<use xlink:href="#f0_n" transform="matrix(12,0,0,12,755.3,315.5)" />
<use xlink:href="#f0_g" transform="matrix(12,0,0,12,762.5,315.5)" />
<use xlink:href="#f0_k" transform="matrix(12,0,0,12,534.6,315.5)" />
<use xlink:href="#f0_e" transform="matrix(12,0,0,12,540.4,315.5)" />
<use xlink:href="#f0_c" transform="matrix(12,0,0,12,552.3,315.5)" />
<use xlink:href="#f0_r" transform="matrix(12,0,0,12,565.3,315.5)" />
<use xlink:href="#f0_o" transform="matrix(12,0,0,12,578.3,315.5)" />
<use xlink:href="#f0_o" transform="matrix(12,0,0,12,588.8,315.5)" />
<use xlink:href="#f0_g" transform="matrix(12,0,0,12,605.2,315.5)" />
<use xlink:href="#f0_u" transform="matrix(12,0,0,12,615.2,315.5)" />
<use xlink:href="#f0_j" transform="matrix(12,0,0,12,627.1,315.5)" />
<use xlink:href="#f0_e" transform="matrix(12,0,0,12,645.3,315.5)" />
<use xlink:href="#f0_f" transform="matrix(12,0,0,12,657.2,315.5)" />
<use xlink:href="#f0_r" transform="matrix(12,0,0,12,668.7,315.5)" />
<use xlink:href="#f0_w" transform="matrix(12,0,0,12,732.3,336.9)" />
<use xlink:href="#f0_q" transform="matrix(12,0,0,12,738.4,336.9)" />
<use xlink:href="#f0_j" transform="matrix(12,0,0,12,743.4,336.9)" />
<use xlink:href="#f0_6" transform="matrix(12,0,0,12,755.6,336.9)" />
<use xlink:href="#f0_u" transform="matrix(12,0,0,12,760.6,336.9)" />
<use xlink:href="#f0_k" transform="matrix(12,0,0,12,490.7,336.9)" />
<use xlink:href="#f0_e" transform="matrix(12,0,0,12,496.5,336.9)" />
<use xlink:href="#f0_c" transform="matrix(12,0,0,12,508.5,336.9)" />
<use xlink:href="#f0_r" transform="matrix(12,0,0,12,521.4,336.9)" />
<use xlink:href="#f0_o" transform="matrix(12,0,0,12,534.4,336.9)" />
<use xlink:href="#f0_o" transform="matrix(12,0,0,12,545,336.9)" />
<use xlink:href="#f0_a" transform="matrix(12,0,0,12,561.3,336.9)" />
<use xlink:href="#f0_6" transform="matrix(12,0,0,12,571.7,336.9)" />
<use xlink:href="#f0_g" transform="matrix(12,0,0,12,576.7,336.9)" />
<use xlink:href="#f0_s" transform="matrix(12,0,0,12,586.8,336.9)" />
<use xlink:href="#f0_g" transform="matrix(12,0,0,12,600.1,336.9)" />
<use xlink:href="#f0_u" transform="matrix(12,0,0,12,610.1,336.9)" />
<use xlink:href="#f0_j" transform="matrix(12,0,0,12,622.1,336.9)" />
<use xlink:href="#f0_e" transform="matrix(12,0,0,12,640.2,336.9)" />
<use xlink:href="#f0_f" transform="matrix(12,0,0,12,652.1,336.9)" />
<use xlink:href="#f0_r" transform="matrix(12,0,0,12,663.6,336.9)" />
<use xlink:href="#f0_6" transform="matrix(12,0,0,12,676.6,336.9)" />
</g>
<g fill="#0000FF" >
<use xlink:href="#f0_r" transform="matrix(12,0,0,12,669.9,377.5)" />
<use xlink:href="#f0_4" transform="matrix(12,0,0,12,682.9,377.5)" />
<use xlink:href="#f0_f" transform="matrix(12,0,0,12,693.1,377.5)" />
<use xlink:href="#f0_a" transform="matrix(12,0,0,12,704.6,377.5)" />
<use xlink:href="#f0_e" transform="matrix(12,0,0,12,720.9,377.5)" />
<use xlink:href="#f0_4" transform="matrix(12,0,0,12,732.8,377.5)" />
<use xlink:href="#f0_7" transform="matrix(12,0,0,12,743.2,377.5)" />
<use xlink:href="#f0_u" transform="matrix(12,0,0,12,749.6,377.5)" />
<use xlink:href="#f0_o" transform="matrix(12,0,0,12,761.5,377.5)" />
</g>
</g>
<path d="M669.8,379.3H772.1" class="g0_13" />
<g clip-path="url(#c0_13)">
<g fill="#000000" >
<use xlink:href="#f1_e" transform="matrix(12,0,0,12,723.8,441.7)" />
<use xlink:href="#f1_a" transform="matrix(12,0,0,12,735,441.7)" />
<use xlink:href="#f1_n" transform="matrix(12,0,0,12,740.3,441.7)" />
<use xlink:href="#f1_4" transform="matrix(12,0,0,12,748.6,441.7)" />
<use xlink:href="#f1_k" transform="matrix(12,0,0,12,759.6,441.7)" />
<use xlink:href="#f1_z" transform="matrix(12,0,0,12,704.6,441.7)" />
</g>
</g>
<path d="M128.6,446.3H780.3M128.6,468.5H780.3M128.6,490.6H780.3M128.6,512.8H780.3M128.6,556.3H780.3M128.6,578.5H780.3M128.6,600.6H780.3M128.6,622.8H780.3M128.6,645H780.3M128.6,667.1H780.3M128.6,689.3H780.3M128.6,711.4H780.3M128.9,446V711.8M454.4,446V711.8M779.9,446V711.8" class="g1_13" />
<g clip-path="url(#c0_13)">
<g fill="#000000" >
<use xlink:href="#f0_k" transform="matrix(12,0,0,12,612,463.8)" />
<use xlink:href="#f0_a" transform="matrix(12,0,0,12,617.8,463.8)" />
<use xlink:href="#f0_j" transform="matrix(12,0,0,12,628.2,463.8)" />
<use xlink:href="#f0_4" transform="matrix(12,0,0,12,640.5,463.8)" />
<use xlink:href="#f0_c" transform="matrix(12,0,0,12,650.7,463.8)" />
<use xlink:href="#f0_3" transform="matrix(12,0,0,12,663.7,463.8)" />
<use xlink:href="#f0_b" transform="matrix(12,0,0,12,667.8,463.8)" />
<use xlink:href="#f0_3" transform="matrix(12,0,0,12,686.1,463.8)" />
<use xlink:href="#f0_n" transform="matrix(12,0,0,12,690.2,463.8)" />
<use xlink:href="#f0_j" transform="matrix(12,0,0,12,697.5,463.8)" />
<use xlink:href="#f0_6" transform="matrix(12,0,0,12,709.8,463.8)" />
<use xlink:href="#f0_3" transform="matrix(12,0,0,12,720.6,463.8)" />
<use xlink:href="#f0_n" transform="matrix(12,0,0,12,724.7,463.8)" />
<use xlink:href="#f0_g" transform="matrix(12,0,0,12,731.9,463.8)" />
<use xlink:href="#f0_3" transform="matrix(12,0,0,12,747.9,463.8)" />
<use xlink:href="#f0_n" transform="matrix(12,0,0,12,752,463.8)" />
<use xlink:href="#f0_j" transform="matrix(12,0,0,12,759.4,463.8)" />
<use xlink:href="#f2_1l" transform="matrix(11,0,0,11,137.7,462.5)" />
<use xlink:href="#f2_9" transform="matrix(11,0,0,11,149.7,462.5)" />
<use xlink:href="#f2_4" transform="matrix(11,0,0,11,162.4,462.5)" />
<use xlink:href="#f2_9" transform="matrix(11,0,0,11,168.9,462.5)" />
<use xlink:href="#f2_1m" transform="matrix(11,0,0,11,177.3,462.5)" />
<use xlink:href="#f2_u" transform="matrix(11,0,0,11,190,462.5)" />
<use xlink:href="#f2_e" transform="matrix(11,0,0,11,202.1,462.5)" />
<use xlink:href="#f2_i" transform="matrix(11,0,0,11,209.5,462.5)" />
<use xlink:href="#f2_3" transform="matrix(11,0,0,11,217.8,462.5)" />
<use xlink:href="#f2_1m" transform="matrix(11,0,0,11,226.8,462.5)" />
<use xlink:href="#f2_14" transform="matrix(11,0,0,11,239.3,462.5)" />
<use xlink:href="#f2_1m" transform="matrix(11,0,0,11,244.9,462.5)" />
<use xlink:href="#f2_9" transform="matrix(11,0,0,11,253.3,462.5)" />
<use xlink:href="#f2_15" transform="matrix(11,0,0,11,261.7,462.5)" />
<use xlink:href="#f2_4" transform="matrix(11,0,0,11,271.5,462.5)" />
<use xlink:href="#f2_9" transform="matrix(11,0,0,11,278,462.5)" />
<use xlink:href="#f2_1m" transform="matrix(11,0,0,11,286.4,462.5)" />
<use xlink:href="#f2_2" transform="matrix(11,0,0,11,299.1,462.5)" />
<use xlink:href="#f2_7" transform="matrix(11,0,0,11,307.4,462.5)" />
<use xlink:href="#f2_10" transform="matrix(11,0,0,11,319.1,462.5)" />
<use xlink:href="#f2_4" transform="matrix(11,0,0,11,324.6,462.5)" />
<use xlink:href="#f2_6" transform="matrix(11,0,0,11,331.1,462.5)" />
<use xlink:href="#f2_e" transform="matrix(11,0,0,11,336.8,462.5)" />
<use xlink:href="#f2_7" transform="matrix(11,0,0,11,344.2,462.5)" />
<use xlink:href="#f2_b" transform="matrix(11,0,0,11,351.6,462.5)" />
<use xlink:href="#f2_1e" transform="matrix(11,0,0,11,356.3,462.5)" />
<use xlink:href="#f0_k" transform="matrix(12,0,0,12,623.8,486)" />
<use xlink:href="#f0_i" transform="matrix(12,0,0,12,629.6,486)" />
<use xlink:href="#f0_3" transform="matrix(12,0,0,12,641.6,486)" />
<use xlink:href="#f0_a" transform="matrix(12,0,0,12,645.8,486)" />
<use xlink:href="#f0_s" transform="matrix(12,0,0,12,656.1,486)" />
<use xlink:href="#f0_n" transform="matrix(12,0,0,12,663.6,486)" />
<use xlink:href="#f0_j" transform="matrix(12,0,0,12,671,486)" />
<use xlink:href="#f0_j" transform="matrix(12,0,0,12,689.1,486)" />
<use xlink:href="#f0_3" transform="matrix(12,0,0,12,701.4,486)" />
<use xlink:href="#f0_e" transform="matrix(12,0,0,12,705.5,486)" />
<use xlink:href="#f0_e" transform="matrix(12,0,0,12,723.3,486)" />
<use xlink:href="#f0_f" transform="matrix(12,0,0,12,735.2,486)" />
<use xlink:href="#f0_c" transform="matrix(12,0,0,12,746.7,486)" />
<use xlink:href="#f0_e" transform="matrix(12,0,0,12,759.7,486)" />
<use xlink:href="#f2_p" transform="matrix(11,0,0,11,137.7,484.6)" />
<use xlink:href="#f2_b" transform="matrix(11,0,0,11,147.9,484.6)" />
<use xlink:href="#f2_3" transform="matrix(11,0,0,11,156.9,484.6)" />
<use xlink:href="#f2_2" transform="matrix(11,0,0,11,161.5,484.6)" />
<use xlink:href="#f2_3" transform="matrix(11,0,0,11,169.9,484.6)" />
<use xlink:href="#f2_9" transform="matrix(11,0,0,11,174.6,484.6)" />
<use xlink:href="#f2_d" transform="matrix(11,0,0,11,182.8,484.6)" />
<use xlink:href="#f2_e" transform="matrix(11,0,0,11,196,484.6)" />
<use xlink:href="#f2_7" transform="matrix(11,0,0,11,207.7,484.6)" />
<use xlink:href="#f2_4" transform="matrix(11,0,0,11,215,484.6)" />
<use xlink:href="#f2_10" transform="matrix(11,0,0,11,225.8,484.6)" />
<use xlink:href="#f2_i" transform="matrix(11,0,0,11,231.3,484.6)" />
<use xlink:href="#f2_l" transform="matrix(11,0,0,11,239.7,484.6)" />
<use xlink:href="#f2_b" transform="matrix(11,0,0,11,248.1,484.6)" />
<use xlink:href="#f2_13" transform="matrix(11,0,0,11,252.9,484.6)" />
<use xlink:href="#f2_4" transform="matrix(11,0,0,11,260.3,484.6)" />
<use xlink:href="#f2_1e" transform="matrix(11,0,0,11,266.8,484.6)" />
<use xlink:href="#f0_k" transform="matrix(12,0,0,12,622,508.1)" />
<use xlink:href="#f0_2" transform="matrix(12,0,0,12,627.8,508.1)" />
<use xlink:href="#f0_3" transform="matrix(12,0,0,12,640,508.1)" />
<use xlink:href="#f0_m" transform="matrix(12,0,0,12,644.1,508.1)" />
<use xlink:href="#f0_s" transform="matrix(12,0,0,12,655.5,508.1)" />
<use xlink:href="#f0_6" transform="matrix(12,0,0,12,663,508.1)" />
<use xlink:href="#f0_c" transform="matrix(12,0,0,12,668,508.1)" />
<use xlink:href="#f0_b" transform="matrix(12,0,0,12,680.9,508.1)" />
<use xlink:href="#f0_2" transform="matrix(12,0,0,12,699.2,508.1)" />
<use xlink:href="#f0_3" transform="matrix(12,0,0,12,711.4,508.1)" />
<use xlink:href="#f0_4" transform="matrix(12,0,0,12,715.5,508.1)" />
<use xlink:href="#f0_h" transform="matrix(12,0,0,12,725.9,508.1)" />
<use xlink:href="#f0_a" transform="matrix(12,0,0,12,736.7,508.1)" />
<use xlink:href="#f0_b" transform="matrix(12,0,0,12,747.1,508.1)" />
<use xlink:href="#f0_e" transform="matrix(12,0,0,12,759.6,508.1)" />
<use xlink:href="#f2_r" transform="matrix(11,0,0,11,137.7,506.8)" />
<use xlink:href="#f2_9" transform="matrix(11,0,0,11,147.9,506.8)" />
<use xlink:href="#f2_4" transform="matrix(11,0,0,11,156.3,506.8)" />
<use xlink:href="#f2_d" transform="matrix(11,0,0,11,167.1,506.8)" />
<use xlink:href="#f2_9" transform="matrix(11,0,0,11,180.1,506.8)" />
<use xlink:href="#f2_q" transform="matrix(11,0,0,11,188.5,506.8)" />
<use xlink:href="#f2_9" transform="matrix(11,0,0,11,196,506.8)" />
<use xlink:href="#f2_4" transform="matrix(11,0,0,11,204.4,506.8)" />
<use xlink:href="#f2_4" transform="matrix(11,0,0,11,215.2,506.8)" />
<use xlink:href="#f2_9" transform="matrix(11,0,0,11,221.6,506.8)" />
<use xlink:href="#f2_i" transform="matrix(11,0,0,11,230,506.8)" />
<use xlink:href="#f2_b" transform="matrix(11,0,0,11,242.7,506.8)" />
<use xlink:href="#f2_9" transform="matrix(11,0,0,11,247.3,506.8)" />
<use xlink:href="#f2_5" transform="matrix(11,0,0,11,255.7,506.8)" />
<use xlink:href="#f2_9" transform="matrix(11,0,0,11,263.1,506.8)" />
<use xlink:href="#f2_4" transform="matrix(11,0,0,11,271.5,506.8)" />
<use xlink:href="#f2_1e" transform="matrix(11,0,0,11,278.1,506.8)" />
<use xlink:href="#f0_i" transform="matrix(12,0,0,12,462.9,530.3)" />
<use xlink:href="#f0_b" transform="matrix(12,0,0,12,475,530.3)" />
<use xlink:href="#f0_6" transform="matrix(12,0,0,12,487.5,530.3)" />
<use xlink:href="#f0_t" transform="matrix(12,0,0,12,492.4,530.3)" />
<use xlink:href="#f0_4" transform="matrix(12,0,0,12,504.3,530.3)" />
<use xlink:href="#f0_f" transform="matrix(12,0,0,12,514.6,530.3)" />
<use xlink:href="#f0_11" transform="matrix(12,0,0,12,526.1,530.3)" />
<use xlink:href="#f0_e" transform="matrix(12,0,0,12,540.5,530.3)" />
<use xlink:href="#f0_g" transform="matrix(12,0,0,12,552.5,530.3)" />
<use xlink:href="#f0_n" transform="matrix(12,0,0,12,562.5,530.3)" />
<use xlink:href="#f0_f" transform="matrix(12,0,0,12,569.9,530.3)" />
<use xlink:href="#f0_b" transform="matrix(12,0,0,12,581.3,530.3)" />
<use xlink:href="#f0_j" transform="matrix(12,0,0,12,593.8,530.3)" />
<use xlink:href="#f0_9" transform="matrix(12,0,0,12,613.5,530.3)" />
<use xlink:href="#f0_j" transform="matrix(12,0,0,12,619.3,530.3)" />
<use xlink:href="#f0_o" transform="matrix(12,0,0,12,631.5,530.3)" />
<use xlink:href="#f0_j" transform="matrix(12,0,0,12,642.1,530.3)" />
<use xlink:href="#f0_9" transform="matrix(12,0,0,12,661.6,530.3)" />
<use xlink:href="#f0_j" transform="matrix(12,0,0,12,667.4,530.3)" />
<use xlink:href="#f0_b" transform="matrix(12,0,0,12,679.6,530.3)" />
<use xlink:href="#f0_j" transform="matrix(12,0,0,12,692.1,530.3)" />
<use xlink:href="#f0_w" transform="matrix(12,0,0,12,711.8,530.3)" />
<use xlink:href="#f0_r" transform="matrix(12,0,0,12,717.9,530.3)" />
<use xlink:href="#f0_6" transform="matrix(12,0,0,12,730.9,530.3)" />
<use xlink:href="#f0_n" transform="matrix(12,0,0,12,735.9,530.3)" />
<use xlink:href="#f0_3" transform="matrix(12,0,0,12,743.2,530.3)" />
<use xlink:href="#f0_i" transform="matrix(12,0,0,12,747.3,530.3)" />
<use xlink:href="#f0_e" transform="matrix(12,0,0,12,759.4,530.3)" />
<use xlink:href="#f0_k" transform="matrix(12,0,0,12,585.8,551.7)" />
<use xlink:href="#f0_12" transform="matrix(12,0,0,12,591.6,551.7)" />
<use xlink:href="#f0_3" transform="matrix(12,0,0,12,598.7,551.7)" />
<use xlink:href="#f0_j" transform="matrix(12,0,0,12,602.8,551.7)" />
<use xlink:href="#f0_r" transform="matrix(12,0,0,12,615.1,551.7)" />
<use xlink:href="#f0_3" transform="matrix(12,0,0,12,628,551.7)" />
<use xlink:href="#f0_4" transform="matrix(12,0,0,12,632.2,551.7)" />
<use xlink:href="#f0_b" transform="matrix(12,0,0,12,642.5,551.7)" />
<use xlink:href="#f0_j" transform="matrix(12,0,0,12,654.9,551.7)" />
<use xlink:href="#f0_2" transform="matrix(12,0,0,12,672.9,551.7)" />
<use xlink:href="#f0_6" transform="matrix(12,0,0,12,685.2,551.7)" />
<use xlink:href="#f0_4" transform="matrix(12,0,0,12,690.2,551.7)" />
<use xlink:href="#f0_g" transform="matrix(12,0,0,12,700.4,551.7)" />
<use xlink:href="#f0_a" transform="matrix(12,0,0,12,716.4,551.7)" />
<use xlink:href="#f0_5" transform="matrix(12,0,0,12,726.8,551.7)" />
<use xlink:href="#f0_j" transform="matrix(12,0,0,12,736.4,551.7)" />
<use xlink:href="#f0_b" transform="matrix(12,0,0,12,748.7,551.7)" />
<use xlink:href="#f0_a" transform="matrix(12,0,0,12,761.2,551.7)" />
<use xlink:href="#f2_p" transform="matrix(11,0,0,11,137.7,528.9)" />
<use xlink:href="#f2_b" transform="matrix(11,0,0,11,147.9,528.9)" />
<use xlink:href="#f2_h" transform="matrix(11,0,0,11,181.8,528.9)" />
<use xlink:href="#f2_7" transform="matrix(11,0,0,11,190,528.9)" />
<use xlink:href="#f2_h" transform="matrix(11,0,0,11,197.5,528.9)" />
<use xlink:href="#f2_13" transform="matrix(11,0,0,11,205.9,528.9)" />
<use xlink:href="#f2_19" transform="matrix(11,0,0,11,213.3,528.9)" />
<use xlink:href="#f2_d" transform="matrix(11,0,0,11,247.1,528.9)" />
<use xlink:href="#f2_e" transform="matrix(11,0,0,11,260.2,528.9)" />
<use xlink:href="#f2_2" transform="matrix(11,0,0,11,267.7,528.9)" />
<use xlink:href="#f2_6" transform="matrix(11,0,0,11,275.9,528.9)" />
<use xlink:href="#f2_7" transform="matrix(11,0,0,11,281.5,528.9)" />
<use xlink:href="#f2_16" transform="matrix(11,0,0,11,289,528.9)" />
<use xlink:href="#f2_d" transform="matrix(11,0,0,11,293.6,528.9)" />
<use xlink:href="#f2_e" transform="matrix(11,0,0,11,306.7,528.9)" />
<use xlink:href="#f2_d" transform="matrix(11,0,0,11,314.2,528.9)" />
<use xlink:href="#f2_f" transform="matrix(11,0,0,11,327.3,528.9)" />
<use xlink:href="#f2_1g" transform="matrix(11,0,0,11,334.6,528.9)" />
<use xlink:href="#f2_a" transform="matrix(11,0,0,11,368.1,528.9)" />
<use xlink:href="#f2_e" transform="matrix(11,0,0,11,376.3,528.9)" />
<use xlink:href="#f2_2" transform="matrix(11,0,0,11,383.8,528.9)" />
<use xlink:href="#f2_6" transform="matrix(11,0,0,11,392.2,528.9)" />
<use xlink:href="#f2_7" transform="matrix(11,0,0,11,397.8,528.9)" />
<use xlink:href="#f2_16" transform="matrix(11,0,0,11,405.3,528.9)" />
<use xlink:href="#f2_a" transform="matrix(11,0,0,11,410,528.9)" />
<use xlink:href="#f2_e" transform="matrix(11,0,0,11,418.2,528.9)" />
<use xlink:href="#f2_a" transform="matrix(11,0,0,11,425.7,528.9)" />
<use xlink:href="#f2_f" transform="matrix(11,0,0,11,434.1,528.9)" />
<use xlink:href="#f2_1g" transform="matrix(11,0,0,11,441.6,528.9)" />
<use xlink:href="#f2_7" transform="matrix(11,0,0,11,137.7,548.2)" />
<use xlink:href="#f2_d" transform="matrix(11,0,0,11,145.1,548.2)" />
<use xlink:href="#f2_a" transform="matrix(11,0,0,11,158.2,548.2)" />
<use xlink:href="#f2_e" transform="matrix(11,0,0,11,166.6,548.2)" />
<use xlink:href="#f2_i" transform="matrix(11,0,0,11,174.1,548.2)" />
<use xlink:href="#f2_e" transform="matrix(11,0,0,11,182.4,548.2)" />
<use xlink:href="#f2_2" transform="matrix(11,0,0,11,189.8,548.2)" />
<use xlink:href="#f2_e" transform="matrix(11,0,0,11,198.2,548.2)" />
<use xlink:href="#f2_1e" transform="matrix(11,0,0,11,205.7,548.2)" />
<use xlink:href="#f0_k" transform="matrix(12,0,0,12,661.5,573.8)" />
<use xlink:href="#f0_2" transform="matrix(12,0,0,12,667.3,573.8)" />
<use xlink:href="#f0_3" transform="matrix(12,0,0,12,679.5,573.8)" />
<use xlink:href="#f0_m" transform="matrix(12,0,0,12,683.5,573.8)" />
<use xlink:href="#f0_l" transform="matrix(12,0,0,12,695,573.8)" />
<use xlink:href="#f0_3" transform="matrix(12,0,0,12,712.8,573.8)" />
<use xlink:href="#f0_l" transform="matrix(12,0,0,12,716.9,573.8)" />
<use xlink:href="#f0_s" transform="matrix(12,0,0,12,728.8,573.8)" />
<use xlink:href="#f0_f" transform="matrix(12,0,0,12,736.3,573.8)" />
<use xlink:href="#f0_t" transform="matrix(12,0,0,12,747.7,573.8)" />
<use xlink:href="#f0_e" transform="matrix(12,0,0,12,759.6,573.8)" />
<use xlink:href="#f2_p" transform="matrix(11,0,0,11,137.7,572.5)" />
<use xlink:href="#f2_b" transform="matrix(11,0,0,11,147.9,572.5)" />
<use xlink:href="#f2_7" transform="matrix(11,0,0,11,156.9,572.5)" />
<use xlink:href="#f2_4" transform="matrix(11,0,0,11,164.2,572.5)" />
<use xlink:href="#f2_a" transform="matrix(11,0,0,11,170.8,572.5)" />
<use xlink:href="#f2_e" transform="matrix(11,0,0,11,179.2,572.5)" />
<use xlink:href="#f2_l" transform="matrix(11,0,0,11,186.6,572.5)" />
<use xlink:href="#f2_c" transform="matrix(11,0,0,11,195,572.5)" />
<use xlink:href="#f2_7" transform="matrix(11,0,0,11,203.4,572.5)" />
<use xlink:href="#f2_8" transform="matrix(11,0,0,11,210.8,572.5)" />
<use xlink:href="#f2_3" transform="matrix(11,0,0,11,215.5,572.5)" />
<use xlink:href="#f2_7" transform="matrix(11,0,0,11,224.5,572.5)" />
<use xlink:href="#f2_4" transform="matrix(11,0,0,11,231.8,572.5)" />
<use xlink:href="#f2_2" transform="matrix(11,0,0,11,242.6,572.5)" />
<use xlink:href="#f2_7" transform="matrix(11,0,0,11,251,572.5)" />
<use xlink:href="#f2_b" transform="matrix(11,0,0,11,258.4,572.5)" />
<use xlink:href="#f2_3" transform="matrix(11,0,0,11,263.1,572.5)" />
<use xlink:href="#f2_5" transform="matrix(11,0,0,11,267.8,572.5)" />
<use xlink:href="#f2_3" transform="matrix(11,0,0,11,275.1,572.5)" />
<use xlink:href="#f2_9" transform="matrix(11,0,0,11,279.8,572.5)" />
<use xlink:href="#f2_4" transform="matrix(11,0,0,11,288.2,572.5)" />
<use xlink:href="#f2_9" transform="matrix(11,0,0,11,294.8,572.5)" />
<use xlink:href="#f2_1e" transform="matrix(11,0,0,11,303.1,572.5)" />
<use xlink:href="#f0_k" transform="matrix(12,0,0,12,663.5,596)" />
<use xlink:href="#f0_2" transform="matrix(12,0,0,12,669.3,596)" />
<use xlink:href="#f0_3" transform="matrix(12,0,0,12,681.4,596)" />
<use xlink:href="#f0_c" transform="matrix(12,0,0,12,685.5,596)" />
<use xlink:href="#f0_f" transform="matrix(12,0,0,12,698.5,596)" />
<use xlink:href="#f0_l" transform="matrix(12,0,0,12,709.9,596)" />
<use xlink:href="#f0_6" transform="matrix(12,0,0,12,727.8,596)" />
<use xlink:href="#f0_n" transform="matrix(12,0,0,12,732.8,596)" />
<use xlink:href="#f0_u" transform="matrix(12,0,0,12,740.1,596)" />
<use xlink:href="#f0_n" transform="matrix(12,0,0,12,752,596)" />
<use xlink:href="#f0_j" transform="matrix(12,0,0,12,759.4,596)" />
<use xlink:href="#f2_1q" transform="matrix(11,0,0,11,137.7,594.6)" />
<use xlink:href="#f2_9" transform="matrix(11,0,0,11,149.7,594.6)" />
<use xlink:href="#f2_4" transform="matrix(11,0,0,11,158.1,594.6)" />
<use xlink:href="#f2_9" transform="matrix(11,0,0,11,164.7,594.6)" />
<use xlink:href="#f2_8" transform="matrix(11,0,0,11,173.1,594.6)" />
<use xlink:href="#f2_6" transform="matrix(11,0,0,11,177.8,594.6)" />
<use xlink:href="#f2_9" transform="matrix(11,0,0,11,183.4,594.6)" />
<use xlink:href="#f2_4" transform="matrix(11,0,0,11,191.8,594.6)" />
<use xlink:href="#f2_4" transform="matrix(11,0,0,11,202.5,594.6)" />
<use xlink:href="#f2_9" transform="matrix(11,0,0,11,209.1,594.6)" />
<use xlink:href="#f2_d" transform="matrix(11,0,0,11,217.5,594.6)" />
<use xlink:href="#f2_9" transform="matrix(11,0,0,11,230.6,594.6)" />
<use xlink:href="#f2_4" transform="matrix(11,0,0,11,238.8,594.6)" />
<use xlink:href="#f2_7" transform="matrix(11,0,0,11,249.7,594.6)" />
<use xlink:href="#f2_4" transform="matrix(11,0,0,11,257.1,594.6)" />
<use xlink:href="#f2_8" transform="matrix(11,0,0,11,263.5,594.6)" />
<use xlink:href="#f2_z" transform="matrix(11,0,0,11,268.3,594.6)" />
<use xlink:href="#f2_a" transform="matrix(11,0,0,11,276.7,594.6)" />
<use xlink:href="#f2_3" transform="matrix(11,0,0,11,285.1,594.6)" />
<use xlink:href="#f2_2" transform="matrix(11,0,0,11,289.8,594.6)" />
<use xlink:href="#f2_9" transform="matrix(11,0,0,11,298.2,594.6)" />
<use xlink:href="#f2_4" transform="matrix(11,0,0,11,306.6,594.6)" />
<use xlink:href="#f2_1e" transform="matrix(11,0,0,11,313,594.6)" />
<use xlink:href="#f0_k" transform="matrix(12,0,0,12,646.9,618.1)" />
<use xlink:href="#f0_e" transform="matrix(12,0,0,12,652.7,618.1)" />
<use xlink:href="#f0_o" transform="matrix(12,0,0,12,664.6,618.1)" />
<use xlink:href="#f0_6" transform="matrix(12,0,0,12,675.1,618.1)" />
<use xlink:href="#f0_c" transform="matrix(12,0,0,12,680.2,618.1)" />
<use xlink:href="#f0_u" transform="matrix(12,0,0,12,693.1,618.1)" />
<use xlink:href="#f0_e" transform="matrix(12,0,0,12,711,618.1)" />
<use xlink:href="#f0_u" transform="matrix(12,0,0,12,722.9,618.1)" />
<use xlink:href="#f0_6" transform="matrix(12,0,0,12,734.8,618.1)" />
<use xlink:href="#f0_n" transform="matrix(12,0,0,12,739.8,618.1)" />
<use xlink:href="#f0_b" transform="matrix(12,0,0,12,747.2,618.1)" />
<use xlink:href="#f0_e" transform="matrix(12,0,0,12,759.7,618.1)" />
<use xlink:href="#f2_r" transform="matrix(11,0,0,11,137.7,616.8)" />
<use xlink:href="#f2_e" transform="matrix(11,0,0,11,147.9,616.8)" />
<use xlink:href="#f2_4" transform="matrix(11,0,0,11,159.6,616.8)" />
<use xlink:href="#f2_3" transform="matrix(11,0,0,11,166,616.8)" />
<use xlink:href="#f2_7" transform="matrix(11,0,0,11,170.8,616.8)" />
<use xlink:href="#f2_4" transform="matrix(11,0,0,11,178.2,616.8)" />
<use xlink:href="#f2_8" transform="matrix(11,0,0,11,184.6,616.8)" />
<use xlink:href="#f2_e" transform="matrix(11,0,0,11,189.4,616.8)" />
<use xlink:href="#f2_7" transform="matrix(11,0,0,11,201.1,616.8)" />
<use xlink:href="#f2_4" transform="matrix(11,0,0,11,208.4,616.8)" />
<use xlink:href="#f2_3" transform="matrix(11,0,0,11,219.2,616.8)" />
<use xlink:href="#f2_d" transform="matrix(11,0,0,11,223.8,616.8)" />
<use xlink:href="#f2_a" transform="matrix(11,0,0,11,237,616.8)" />
<use xlink:href="#f2_9" transform="matrix(11,0,0,11,245.4,616.8)" />
<use xlink:href="#f2_6" transform="matrix(11,0,0,11,253.8,616.8)" />
<use xlink:href="#f2_8" transform="matrix(11,0,0,11,259.3,616.8)" />
<use xlink:href="#f2_e" transform="matrix(11,0,0,11,264,616.8)" />
<use xlink:href="#f2_i" transform="matrix(11,0,0,11,271.4,616.8)" />
<use xlink:href="#f2_8" transform="matrix(11,0,0,11,279.8,616.8)" />
<use xlink:href="#f2_7" transform="matrix(11,0,0,11,284.6,616.8)" />
<use xlink:href="#f2_1e" transform="matrix(11,0,0,11,291.9,616.8)" />
<use xlink:href="#f0_k" transform="matrix(12,0,0,12,679.1,640.3)" />
<use xlink:href="#f0_j" transform="matrix(12,0,0,12,684.9,640.3)" />
<use xlink:href="#f0_4" transform="matrix(12,0,0,12,697.1,640.3)" />
<use xlink:href="#f0_6" transform="matrix(12,0,0,12,707.5,640.3)" />
<use xlink:href="#f0_n" transform="matrix(12,0,0,12,712.5,640.3)" />
<use xlink:href="#f0_7" transform="matrix(12,0,0,12,725.7,640.3)" />
<use xlink:href="#f0_4" transform="matrix(12,0,0,12,732.1,640.3)" />
<use xlink:href="#f0_6" transform="matrix(12,0,0,12,742.5,640.3)" />
<use xlink:href="#f0_j" transform="matrix(12,0,0,12,747.5,640.3)" />
<use xlink:href="#f0_e" transform="matrix(12,0,0,12,759.7,640.3)" />
<use xlink:href="#f2_p" transform="matrix(11,0,0,11,137.7,638.9)" />
<use xlink:href="#f2_b" transform="matrix(11,0,0,11,147.9,638.9)" />
<use xlink:href="#f2_e" transform="matrix(11,0,0,11,156.9,638.9)" />
<use xlink:href="#f2_6" transform="matrix(11,0,0,11,164.2,638.9)" />
<use xlink:href="#f2_6" transform="matrix(11,0,0,11,169.8,638.9)" />
<use xlink:href="#f2_9" transform="matrix(11,0,0,11,175.5,638.9)" />
<use xlink:href="#f2_q" transform="matrix(11,0,0,11,183.9,638.9)" />
<use xlink:href="#f2_7" transform="matrix(11,0,0,11,195.4,638.9)" />
<use xlink:href="#f2_4" transform="matrix(11,0,0,11,202.9,638.9)" />
<use xlink:href="#f2_n" transform="matrix(11,0,0,11,213.6,638.9)" />
<use xlink:href="#f2_9" transform="matrix(11,0,0,11,222,638.9)" />
<use xlink:href="#f2_6" transform="matrix(11,0,0,11,230.4,638.9)" />
<use xlink:href="#f2_6" transform="matrix(11,0,0,11,236,638.9)" />
<use xlink:href="#f2_3" transform="matrix(11,0,0,11,241.5,638.9)" />
<use xlink:href="#f2_h" transform="matrix(11,0,0,11,246.2,638.9)" />
<use xlink:href="#f2_b" transform="matrix(11,0,0,11,254.6,638.9)" />
<use xlink:href="#f2_7" transform="matrix(11,0,0,11,259.4,638.9)" />
<use xlink:href="#f2_1e" transform="matrix(11,0,0,11,266.7,638.9)" />
<use xlink:href="#f0_k" transform="matrix(12,0,0,12,669.5,662.4)" />
<use xlink:href="#f0_o" transform="matrix(12,0,0,12,675.3,662.4)" />
<use xlink:href="#f0_6" transform="matrix(12,0,0,12,685.8,662.4)" />
<use xlink:href="#f0_c" transform="matrix(12,0,0,12,690.8,662.4)" />
<use xlink:href="#f0_u" transform="matrix(12,0,0,12,703.8,662.4)" />
<use xlink:href="#f0_m" transform="matrix(12,0,0,12,721.6,662.4)" />
<use xlink:href="#f0_g" transform="matrix(12,0,0,12,733,662.4)" />
<use xlink:href="#f0_3" transform="matrix(12,0,0,12,743.1,662.4)" />
<use xlink:href="#f0_b" transform="matrix(12,0,0,12,747.2,662.4)" />
<use xlink:href="#f0_e" transform="matrix(12,0,0,12,759.7,662.4)" />
<use xlink:href="#f2_r" transform="matrix(11,0,0,11,137.7,661.1)" />
<use xlink:href="#f2_e" transform="matrix(11,0,0,11,147.9,661.1)" />
<use xlink:href="#f2_3" transform="matrix(11,0,0,11,159.6,661.1)" />
<use xlink:href="#f2_i" transform="matrix(11,0,0,11,164.2,661.1)" />
<use xlink:href="#f2_m" transform="matrix(11,0,0,11,172.6,661.1)" />
<use xlink:href="#f2_9" transform="matrix(11,0,0,11,178.2,661.1)" />
<use xlink:href="#f2_6" transform="matrix(11,0,0,11,186.6,661.1)" />
<use xlink:href="#f2_d" transform="matrix(11,0,0,11,192.1,661.1)" />
<use xlink:href="#f2_e" transform="matrix(11,0,0,11,205.3,661.1)" />
<use xlink:href="#f2_5" transform="matrix(11,0,0,11,212.7,661.1)" />
<use xlink:href="#f2_3" transform="matrix(11,0,0,11,220.2,661.1)" />
<use xlink:href="#f2_y" transform="matrix(11,0,0,11,224.9,661.1)" />
<use xlink:href="#f2_i" transform="matrix(11,0,0,11,233.3,661.1)" />
<use xlink:href="#f2_7" transform="matrix(11,0,0,11,245.8,661.1)" />
<use xlink:href="#f2_4" transform="matrix(11,0,0,11,253.3,661.1)" />
<use xlink:href="#f2_3" transform="matrix(11,0,0,11,264,661.1)" />
<use xlink:href="#f2_d" transform="matrix(11,0,0,11,268.7,661.1)" />
<use xlink:href="#f2_a" transform="matrix(11,0,0,11,281.7,661.1)" />
<use xlink:href="#f2_9" transform="matrix(11,0,0,11,290.1,661.1)" />
<use xlink:href="#f2_6" transform="matrix(11,0,0,11,298.5,661.1)" />
<use xlink:href="#f2_8" transform="matrix(11,0,0,11,304.1,661.1)" />
<use xlink:href="#f2_e" transform="matrix(11,0,0,11,308.7,661.1)" />
<use xlink:href="#f2_i" transform="matrix(11,0,0,11,316.2,661.1)" />
<use xlink:href="#f2_8" transform="matrix(11,0,0,11,324.6,661.1)" />
<use xlink:href="#f2_7" transform="matrix(11,0,0,11,329.3,661.1)" />
<use xlink:href="#f2_1e" transform="matrix(11,0,0,11,336.6,661.1)" />
<use xlink:href="#f0_k" transform="matrix(12,0,0,12,646.6,684.6)" />
<use xlink:href="#f0_2" transform="matrix(12,0,0,12,652.4,684.6)" />
<use xlink:href="#f0_3" transform="matrix(12,0,0,12,664.6,684.6)" />
<use xlink:href="#f0_m" transform="matrix(12,0,0,12,668.7,684.6)" />
<use xlink:href="#f0_c" transform="matrix(12,0,0,12,680.1,684.6)" />
<use xlink:href="#f0_4" transform="matrix(12,0,0,12,693,684.6)" />
<use xlink:href="#f0_2" transform="matrix(12,0,0,12,709.2,684.6)" />
<use xlink:href="#f0_3" transform="matrix(12,0,0,12,721.4,684.6)" />
<use xlink:href="#f0_c" transform="matrix(12,0,0,12,725.5,684.6)" />
<use xlink:href="#f0_6" transform="matrix(12,0,0,12,738.5,684.6)" />
<use xlink:href="#f0_i" transform="matrix(12,0,0,12,743.5,684.6)" />
<use xlink:href="#f0_3" transform="matrix(12,0,0,12,755.5,684.6)" />
<use xlink:href="#f0_e" transform="matrix(12,0,0,12,759.6,684.6)" />
<use xlink:href="#f2_r" transform="matrix(11,0,0,11,137.7,683.2)" />
<use xlink:href="#f2_9" transform="matrix(11,0,0,11,147.9,683.2)" />
<use xlink:href="#f2_4" transform="matrix(11,0,0,11,156.3,683.2)" />
<use xlink:href="#f2_d" transform="matrix(11,0,0,11,167.1,683.2)" />
<use xlink:href="#f2_9" transform="matrix(11,0,0,11,180.1,683.2)" />
<use xlink:href="#f2_4" transform="matrix(11,0,0,11,188.5,683.2)" />
<use xlink:href="#f2_17" transform="matrix(11,0,0,11,195.1,683.2)" />
<use xlink:href="#f2_c" transform="matrix(11,0,0,11,203.5,683.2)" />
<use xlink:href="#f2_3" transform="matrix(11,0,0,11,211.9,683.2)" />
<use xlink:href="#f2_8" transform="matrix(11,0,0,11,216.5,683.2)" />
<use xlink:href="#f2_9" transform="matrix(11,0,0,11,221.2,683.2)" />
<use xlink:href="#f2_4" transform="matrix(11,0,0,11,229.6,683.2)" />
<use xlink:href="#f2_4" transform="matrix(11,0,0,11,240.4,683.2)" />
<use xlink:href="#f2_9" transform="matrix(11,0,0,11,247,683.2)" />
<use xlink:href="#f2_i" transform="matrix(11,0,0,11,255.4,683.2)" />
<use xlink:href="#f2_d" transform="matrix(11,0,0,11,267.9,683.2)" />
<use xlink:href="#f2_e" transform="matrix(11,0,0,11,281,683.2)" />
<use xlink:href="#f2_b" transform="matrix(11,0,0,11,288.3,683.2)" />
<use xlink:href="#f2_v" transform="matrix(11,0,0,11,293.1,683.2)" />
<use xlink:href="#f2_e" transform="matrix(11,0,0,11,301.5,683.2)" />
<use xlink:href="#f2_2" transform="matrix(11,0,0,11,308.9,683.2)" />
<use xlink:href="#f2_9" transform="matrix(11,0,0,11,317.3,683.2)" />
<use xlink:href="#f2_4" transform="matrix(11,0,0,11,325.7,683.2)" />
<use xlink:href="#f2_1e" transform="matrix(11,0,0,11,332.1,683.2)" />
<use xlink:href="#f0_k" transform="matrix(12,0,0,12,599.8,706.8)" />
<use xlink:href="#f0_i" transform="matrix(12,0,0,12,605.6,706.8)" />
<use xlink:href="#f0_3" transform="matrix(12,0,0,12,617.7,706.8)" />
<use xlink:href="#f0_4" transform="matrix(12,0,0,12,621.8,706.8)" />
<use xlink:href="#f0_c" transform="matrix(12,0,0,12,632.1,706.8)" />
<use xlink:href="#f0_f" transform="matrix(12,0,0,12,645.1,706.8)" />
<use xlink:href="#f0_j" transform="matrix(12,0,0,12,656.6,706.8)" />
<use xlink:href="#f0_3" transform="matrix(12,0,0,12,674.6,706.8)" />
<use xlink:href="#f0_i" transform="matrix(12,0,0,12,678.7,706.8)" />
<use xlink:href="#f0_a" transform="matrix(12,0,0,12,690.8,706.8)" />
<use xlink:href="#f0_o" transform="matrix(12,0,0,12,701.2,706.8)" />
<use xlink:href="#f0_e" transform="matrix(12,0,0,12,717.6,706.8)" />
<use xlink:href="#f0_b" transform="matrix(12,0,0,12,729.6,706.8)" />
<use xlink:href="#f0_3" transform="matrix(12,0,0,12,741.9,706.8)" />
<use xlink:href="#f0_c" transform="matrix(12,0,0,12,746,706.8)" />
<use xlink:href="#f0_b" transform="matrix(12,0,0,12,759,706.8)" />
<use xlink:href="#f2_d" transform="matrix(11,0,0,11,137.7,705.4)" />
<use xlink:href="#f2_3" transform="matrix(11,0,0,11,150.8,705.4)" />
<use xlink:href="#f2_4" transform="matrix(11,0,0,11,155.4,705.4)" />
<use xlink:href="#f2_3" transform="matrix(11,0,0,11,161.9,705.4)" />
<use xlink:href="#f2_y" transform="matrix(11,0,0,11,166.6,705.4)" />
<use xlink:href="#f2_i" transform="matrix(11,0,0,11,175,705.4)" />
<use xlink:href="#f2_3" transform="matrix(11,0,0,11,187.6,705.4)" />
<use xlink:href="#f2_d" transform="matrix(11,0,0,11,192.3,705.4)" />
<use xlink:href="#f2_a" transform="matrix(11,0,0,11,205.4,705.4)" />
<use xlink:href="#f2_9" transform="matrix(11,0,0,11,213.8,705.4)" />
<use xlink:href="#f2_4" transform="matrix(11,0,0,11,222.1,705.4)" />
<use xlink:href="#f2_3" transform="matrix(11,0,0,11,228.6,705.4)" />
<use xlink:href="#f2_h" transform="matrix(11,0,0,11,233.3,705.4)" />
<use xlink:href="#f2_b" transform="matrix(11,0,0,11,241.7,705.4)" />
<use xlink:href="#f2_7" transform="matrix(11,0,0,11,246.3,705.4)" />
<use xlink:href="#f2_1e" transform="matrix(11,0,0,11,253.8,705.4)" />
</g>
<g fill="#0000FF" >
<use xlink:href="#f0_r" transform="matrix(12,0,0,12,669.9,748.2)" />
<use xlink:href="#f0_4" transform="matrix(12,0,0,12,682.9,748.2)" />
<use xlink:href="#f0_f" transform="matrix(12,0,0,12,693.1,748.2)" />
<use xlink:href="#f0_a" transform="matrix(12,0,0,12,704.6,748.2)" />
<use xlink:href="#f0_e" transform="matrix(12,0,0,12,720.9,748.2)" />
<use xlink:href="#f0_4" transform="matrix(12,0,0,12,732.8,748.2)" />
<use xlink:href="#f0_7" transform="matrix(12,0,0,12,743.2,748.2)" />
<use xlink:href="#f0_u" transform="matrix(12,0,0,12,749.6,748.2)" />
<use xlink:href="#f0_o" transform="matrix(12,0,0,12,761.5,748.2)" />
</g>
</g>
<path d="M669.8,750H772.1" class="g0_13" />
<g clip-path="url(#c0_13)">
<g fill="#000000" >
<use xlink:href="#f0_x" transform="matrix(12,0,0,12,137.7,1208.5)" />
<use xlink:href="#f0_10" transform="matrix(12,0,0,12,149.3,1208.5)" />
</g>
</g>
<defs>
<path d="M179,0V190H336V0Zm0,600V790H336V600Z" 
id="f0_w"
transform="scale(0.001,-0.001)" />

<path d="M139,-317V836H278V-317Z" 
id="f0_q"
transform="scale(0.001,-0.001)" />

<path d="M139,0V138c0,0,0,61,8,112c0,0,7,52,19,87c0,0,11,36,30,66c0,0,19,31,35,49c0,0,17,19,41,35c0,0,25,17,41,25c0,0,17,7,40,17L141,836H303L613,388c0,0,20,10,33,18c0,0,13,8,34,28c0,0,20,20,33,44c0,0,13,25,22,66c0,0,10,41,10,92V836H882V698c0,0,0,-61,-7,-112c0,0,-6,-52,-18,-88c0,0,-12,-36,-30,-66c0,0,-19,-30,-36,-49c0,0,-17,-18,-41,-34c0,0,-24,-17,-40,-25c0,0,-17,-8,-41,-17L882,0H720L409,448c0,0,-21,-11,-34,-19c0,0,-13,-8,-34,-27c0,0,-21,-20,-34,-44c0,0,-12,-25,-22,-66c0,0,-9,-41,-9,-92V0Z" 
id="f0_j"
transform="scale(0.001,-0.001)" />

<path d="M139,0V836H278V0Z" 
id="f0_6"
transform="scale(0.001,-0.001)" />

<path d="M139,0V836H485c0,0,206,0,290,-90c0,0,84,-89,84,-294V0H721V473c0,0,0,147,-49,202c0,0,-48,54,-186,54H277V0Z" 
id="f0_u"
transform="scale(0.001,-0.001)" />

<path d="M354,-200c0,0,-112,175,-167,343c0,0,-56,170,-56,337c0,0,0,166,55,335c0,0,55,169,168,345H473c0,0,-100,-172,-148,-340c0,0,-48,-168,-48,-340c0,0,0,-173,48,-342c0,0,49,-168,148,-338Z" 
id="f0_12"
transform="scale(0.001,-0.001)" />

<path d="M154,0V454l138,56V0ZM722,0V454c0,0,0,161,-49,218c0,0,-48,57,-186,57H139V836H485c0,0,207,0,291,-93c0,0,83,-94,83,-318V0Z" 
id="f0_e"
transform="scale(0.001,-0.001)" />

<path d="M180,0L66,836H203L258,443c0,0,36,1,64,6c0,0,28,6,49,18c0,0,20,12,35,26c0,0,15,13,26,36c0,0,11,24,17,44c0,0,7,20,12,55c0,0,6,34,9,60c0,0,3,26,8,71c0,0,4,45,9,77H610c0,0,-13,-194,-31,-271c0,0,-31,-127,-111,-179c0,0,-71,-45,-196,-50L304,107c0,0,73,0,130,5c0,0,56,6,111,21c0,0,54,15,94,40c0,0,40,25,77,64c0,0,37,39,63,94c0,0,25,54,46,128c0,0,21,73,34,166c0,0,13,94,20,211h138c0,0,-14,-124,-29,-218c0,0,-16,-94,-39,-179c0,0,-22,-85,-50,-146c0,0,-28,-61,-68,-112c0,0,-39,-51,-87,-84C744,97,696,65,632,42C632,42,568,19,492,10C492,10,417,0,320,0Z" 
id="f0_c"
transform="scale(0.001,-0.001)" />

<path d="M102,312V836H241V369L102,312Z" 
id="f0_3"
transform="scale(0.001,-0.001)" />

<path d="M138,-7c0,0,-34,0,-72,10V129c0,0,25,-8,52,-8c0,0,33,0,58,5c0,0,26,5,58,24c0,0,33,20,53,54c0,0,21,34,36,97c0,0,15,64,15,151c0,0,0,113,-19,173c0,0,-19,60,-56,82c0,0,-38,22,-107,22H89V836h72c0,0,165,0,240,-91c0,0,76,-91,76,-293c0,0,0,-107,26,-227c0,0,25,-119,83,-225H437c0,0,-43,101,-62,184c0,0,-24,-60,-51,-99c0,0,-26,-38,-56,-58C268,27,239,7,209,0c0,0,-30,-7,-71,-7Z" 
id="f0_s"
transform="scale(0.001,-0.001)" />

<path d="M585,0V426c0,0,0,54,-8,98c0,0,-8,44,-27,83c0,0,-19,40,-49,66c0,0,-30,26,-77,41c0,0,-47,15,-108,15H66V836H315c0,0,94,0,166,-20c0,0,71,-20,116,-54c0,0,46,-35,75,-88c0,0,28,-52,40,-112c0,0,12,-60,12,-137V0Z" 
id="f0_4"
transform="scale(0.001,-0.001)" />

<path d="M114,0l60,312c0,0,2,12,8,39c0,0,6,27,7,37c0,0,2,11,5,30c0,0,2,19,4,33c0,0,1,15,1,31c0,0,0,48,-35,146c0,0,-35,98,-98,208H228c0,0,3,-8,27,-67c0,0,25,-58,41,-117c0,0,21,53,50,90c0,0,29,37,57,57c0,0,29,21,65,32c0,0,37,11,65,14c0,0,28,3,67,3c0,0,300,0,300,-396V0H480V106H761V452c0,0,0,146,-46,215c0,0,-45,70,-118,70c0,0,-134,0,-198,-119c0,0,-36,-68,-67,-222c0,0,-2,-10,-6,-27L253,0Z" 
id="f0_b"
transform="scale(0.001,-0.001)" />

<path d="M112,-5c0,0,-39,0,-97,11V113c0,0,48,-10,77,-10c0,0,53,0,70,42c0,0,17,43,17,164V729H50V836H501c0,0,107,0,179,-25c0,0,72,-25,112,-77c0,0,40,-51,57,-118c0,0,16,-67,16,-164V0H726V454c0,0,0,55,-3,92c0,0,-4,37,-17,75c0,0,-14,38,-38,59c0,0,-24,22,-65,36c0,0,-42,13,-102,13H318V309c0,0,0,-160,-46,-237C272,72,226,-5,112,-5Z" 
id="f0_i"
transform="scale(0.001,-0.001)" />

<path d="M543,-317V369c0,0,0,85,-8,143c0,0,-8,58,-27,101c0,0,-18,44,-51,69c0,0,-33,24,-80,36c0,0,-48,11,-117,11H66V836H257c0,0,125,0,205,-23c0,0,80,-23,130,-79c0,0,50,-56,70,-143c0,0,20,-86,20,-222V-317Z" 
id="f0_p"
transform="scale(0.001,-0.001)" />

<path d="M287,0L589,729H66v386H205V836l547,-1l-2,-82L433,0Z" 
id="f0_a"
transform="scale(0.001,-0.001)" />

<path d="M122,-200c0,0,99,170,148,338c0,0,49,169,49,342c0,0,0,172,-49,340c0,0,-49,168,-148,340H241c0,0,112,-176,168,-345c0,0,55,-169,55,-335c0,0,0,-167,-55,-337c0,0,-56,-168,-168,-343Z" 
id="f0_11"
transform="scale(0.001,-0.001)" />

<path d="M291,0V190H443V0Zm5,299V414c0,0,0,75,21,124c0,0,21,48,88,113l67,66c0,0,42,40,61,75c0,0,19,35,19,71c0,0,0,67,-48,108c0,0,-49,41,-130,41c0,0,-59,0,-125,-26c0,0,-67,-26,-139,-77v140c0,0,70,43,142,64c0,0,72,21,148,21c0,0,138,0,221,-72c0,0,83,-73,83,-191c0,0,0,-57,-27,-108c0,0,-27,-51,-94,-115L517,583c0,0,-34,-35,-49,-54c0,0,-14,-20,-20,-39c0,0,-5,-16,-7,-38c0,0,-2,-22,-2,-61V299Z" 
id="f0_d"
transform="scale(0.001,-0.001)" />

<path d="M117,-176L179,62V190H336V62L213,-176Z" 
id="f0_9"
transform="scale(0.001,-0.001)" />

<path d="M66,0V107H332V555c0,0,0,92,-37,133c0,0,-37,41,-116,41H85V836h94c0,0,153,0,223,-66c0,0,69,-66,69,-231V0Z" 
id="f0_n"
transform="scale(0.001,-0.001)" />

<path d="M495,0V729H66V836H781V729H634V0Z" 
id="f0_g"
transform="scale(0.001,-0.001)" />

<path d="M736,107V473c0,0,0,147,-48,202c0,0,-49,54,-187,54H278V107ZM139,0V836H499c0,0,105,0,177,-22c0,0,72,-21,116,-69c0,0,44,-49,64,-119c0,0,19,-71,19,-174V0Z" 
id="f0_2"
transform="scale(0.001,-0.001)" />

<path d="M522,92c0,0,247,0,247,333c0,0,0,88,-17,146c0,0,-17,58,-53,91c0,0,-35,33,-82,46c0,0,-48,14,-116,14H276V419c0,0,0,-327,246,-327Zm0,-112c0,0,-193,0,-289,109c0,0,-95,110,-95,337V836H501c0,0,213,0,309,-93c0,0,96,-94,96,-317c0,0,0,-227,-95,-337C811,89,715,-20,522,-20Z" 
id="f0_t"
transform="scale(0.001,-0.001)" />

<path d="M66,0V107H554V452c0,0,0,56,-4,93c0,0,-4,37,-18,75c0,0,-14,38,-40,60c0,0,-26,22,-71,36c0,0,-45,13,-110,13H66V836H312c0,0,91,0,157,-17c0,0,66,-17,109,-49c0,0,44,-32,69,-84c0,0,26,-52,36,-114c0,0,10,-62,10,-147V107H817V0Z" 
id="f0_o"
transform="scale(0.001,-0.001)" />

<path d="M163,0V190H321V0Z" 
id="f0_k"
transform="scale(0.001,-0.001)" />

<path d="M66,0V106H564L66,836H228L516,413c0,0,3,2,9,6c0,0,17,13,27,21c0,0,10,8,26,27c0,0,17,20,26,40c0,0,9,21,16,54c0,0,7,34,7,75V836H764V698c0,0,0,-55,-7,-102c0,0,-7,-47,-16,-79c0,0,-10,-33,-27,-62c0,0,-18,-29,-32,-46c0,0,-14,-17,-37,-35c0,0,-22,-17,-36,-25c0,0,-13,-8,-36,-20L767,53V0Z" 
id="f0_h"
transform="scale(0.001,-0.001)" />

<path d="M522,-20c0,0,-196,0,-290,99c0,0,-94,100,-94,324V836H276V397c0,0,0,-86,16,-147c0,0,17,-60,50,-94c0,0,34,-34,77,-49c0,0,43,-15,103,-15c0,0,59,0,102,15c0,0,44,15,77,49c0,0,33,34,50,94c0,0,17,61,17,147c0,0,0,84,-8,143c0,0,-7,58,-25,105c0,0,-17,47,-51,69c0,0,-33,23,-83,23c0,0,-50,0,-119,-22V821c0,0,85,23,150,23c0,0,76,0,130,-30c0,0,53,-31,85,-90c0,0,31,-59,45,-138c0,0,13,-78,13,-183c0,0,0,-224,-93,-324c0,0,-94,-99,-290,-99Z" 
id="f0_l"
transform="scale(0.001,-0.001)" />

<path d="M71,-141V-15L289,62L66,836H210L416,109c0,0,99,42,153,98c0,0,53,56,80,155c0,0,26,98,26,262V836H817V624c0,0,0,-88,-7,-154c0,0,-7,-67,-25,-132c0,0,-18,-66,-51,-116c0,0,-33,-51,-84,-98c0,0,-50,-48,-123,-87c0,0,-72,-39,-169,-74L71,-141Z" 
id="f0_m"
transform="scale(0.001,-0.001)" />

<path d="M139,0V106H400c0,0,176,0,253,71c0,0,78,72,78,250c0,0,0,163,-80,233c0,0,-81,69,-250,69H278L277,564c0,0,-1,-54,26,-80c0,0,27,-25,82,-25c0,0,30,0,80,9V355c0,0,-61,-12,-111,-12c0,0,-100,0,-157,55c0,0,-58,55,-58,186V836H456c0,0,193,0,303,-109c0,0,110,-109,110,-309c0,0,0,-200,-110,-309C759,109,648,0,456,0Z" 
id="f0_f"
transform="scale(0.001,-0.001)" />

<path d="M156,-317V454l139,56V-317ZM505,0L806,729H139V835H967V753L650,0Z" 
id="f0_r"
transform="scale(0.001,-0.001)" />

<path d="M66,0V106H322c0,0,75,0,127,23c0,0,53,23,82,67c0,0,29,43,42,98c0,0,13,54,13,124c0,0,0,70,-13,124c0,0,-13,55,-42,98c0,0,-29,44,-82,67c0,0,-52,23,-127,23H66V836H322c0,0,87,0,157,-24c0,0,70,-24,115,-64c0,0,45,-40,74,-94c0,0,30,-55,43,-113c0,0,13,-59,13,-123c0,0,0,-64,-13,-123c0,0,-13,-58,-43,-113c0,0,-29,-54,-74,-94C594,88,549,48,479,24C479,24,409,0,322,0Z" 
id="f0_5"
transform="scale(0.001,-0.001)" />

<path d="M152,0V473c0,0,0,94,28,161c0,0,29,66,71,95H66V836H463V729H404c0,0,-65,0,-89,-57c0,0,-25,-58,-25,-199V0Z" 
id="f0_7"
transform="scale(0.001,-0.001)" />

<path d="M248,0L521,658H66v429H313V836l493,-1V716L504,0Z" 
id="f1_e"
transform="scale(0.001,-0.001)" />

<path d="M102,250V836H349V351L102,250Z" 
id="f1_a"
transform="scale(0.001,-0.001)" />

<path d="M154,-13c0,0,-38,0,-85,9V198c0,0,58,-15,103,-15c0,0,84,0,118,60c0,0,35,61,35,206c0,0,0,66,-7,105c0,0,-6,39,-24,63c0,0,-17,25,-44,33c0,0,-27,8,-73,8H66V836H225c0,0,198,0,275,-115c0,0,56,-84,65,-264c0,0,3,-55,3,-148c0,0,0,-177,71,-309L393,1c0,0,-53,130,-54,141c0,0,-28,-90,-65,-123c0,0,-38,-32,-120,-32Z" 
id="f1_n"
transform="scale(0.001,-0.001)" />

<path d="M534,0V425c0,0,0,109,-41,171c0,0,-41,62,-140,62H66V836H352c0,0,99,0,174,-20c0,0,75,-20,123,-55c0,0,48,-35,78,-87c0,0,30,-53,42,-113c0,0,12,-60,12,-136V0Z" 
id="f1_4"
transform="scale(0.001,-0.001)" />

<path d="M173,-6C173,-6,61,-6,15,9V177c0,0,73,-10,82,-10c0,0,37,0,52,30c0,0,14,29,14,116V658H18V836H516c0,0,262,0,341,-145c0,0,48,-89,48,-242V0H658V450c0,0,0,131,-37,171c0,0,-34,37,-105,37H411V313c0,0,0,-189,-67,-258C344,55,285,-6,173,-6Z" 
id="f1_k"
transform="scale(0.001,-0.001)" />

<path d="M562,411V877L247,411ZM562,0V202H68V449l447,665H834V411H993V202H834V0Z" 
id="f1_z"
transform="scale(0.001,-0.001)" />

<path d="M322,0V40L481,60V389L130,941L17,960v40H440V960L306,941L593,480L866,941L739,960v40h326V960L955,941L625,394V60L784,40V0Z" 
id="f2_1l"
transform="scale(0.001,-0.001)" />

<path d="M377,45c0,0,99,0,147,73c0,0,47,73,47,237c0,0,0,161,-47,233c0,0,-47,72,-147,72c0,0,-97,0,-141,-69c0,0,-44,-69,-44,-236c0,0,0,-169,45,-240c0,0,44,-70,140,-70Zm0,-59c0,0,-158,0,-238,94c0,0,-81,95,-81,274c0,0,0,178,81,272c0,0,80,94,244,94c0,0,160,0,241,-92c0,0,82,-92,82,-274c0,0,0,-368,-329,-368Z" 
id="f2_9"
transform="scale(0.001,-0.001)" />

<path d="M278,-14c0,0,-52,0,-115,11c0,0,-63,10,-99,23V193H98L134,95c0,0,56,-50,146,-50c0,0,144,0,144,123c0,0,0,91,-114,130l-66,21c0,0,-75,25,-110,50c0,0,-34,26,-53,63c0,0,-18,36,-18,89c0,0,0,92,63,145c0,0,63,54,170,54c0,0,77,0,193,-23V544H454l-32,81c0,0,-39,35,-124,35c0,0,-61,0,-92,-30c0,0,-32,-30,-32,-80c0,0,0,-43,29,-72c0,0,28,-29,86,-48c0,0,110,-38,144,-55c0,0,33,-17,57,-42c0,0,23,-25,36,-57c0,0,13,-32,13,-79c0,0,0,-104,-66,-158c0,0,-66,-53,-195,-53Z" 
id="f2_4"
transform="scale(0.001,-0.001)" />

<path d="M148,-329c0,0,-58,0,-114,13v151H69l24,-71c0,0,23,-17,64,-17c0,0,39,0,72,22c0,0,33,23,60,67c0,0,27,44,68,157L90,649L19,668v33H344V668L233,648L423,158L606,649L497,668v33H758V668L685,652L411,-43c0,0,-48,-124,-84,-177c0,0,-36,-54,-79,-82c0,0,-44,-27,-100,-27Z" 
id="f2_1m"
transform="scale(0.001,-0.001)" />

<path d="M529,65c0,0,183,0,270,108c0,0,87,108,87,334c0,0,0,210,-113,318c0,0,-113,108,-322,108H316V71c0,0,90,-6,213,-6Zm0,-67L172,0H44V40L172,60V941L44,960v40H498c0,0,277,0,411,-123c0,0,133,-124,133,-371c0,0,0,-251,-129,-380C913,126,785,-2,529,-2Z" 
id="f2_u"
transform="scale(0.001,-0.001)" />

<path d="M284,67c0,0,51,0,88,12c0,0,37,12,74,30V358l-98,-3c0,0,-100,-4,-135,-39c0,0,-35,-35,-35,-117c0,0,0,-132,106,-132ZM233,-14c0,0,-179,0,-179,208c0,0,0,70,27,116c0,0,27,46,87,70c0,0,60,24,173,27l105,3V519c0,0,0,72,-26,107c0,0,-27,34,-82,34c0,0,-75,0,-137,-35L176,538H134V691c0,0,121,26,213,26c0,0,115,0,169,-47c0,0,54,-47,54,-144V52L657,33V0H465L451,70c0,0,-85,-84,-218,-84Z" 
id="f2_e"
transform="scale(0.001,-0.001)" />

<path d="M439,0V33l93,19V500c0,0,0,62,-30,97c0,0,-31,36,-94,36c0,0,-67,0,-165,-22V52L338,33V0H35V33l84,19V649L35,668v33H235l7,-57c0,0,57,33,122,54c0,0,65,22,108,22c0,0,91,0,137,-53c0,0,47,-53,47,-154V52L741,33V0Z" 
id="f2_i"
transform="scale(0.001,-0.001)" />

<path d="M32,0V33L151,52V649L52,668v33H275V52L395,33V0ZM201,850c0,0,-32,0,-56,24c0,0,-24,24,-24,56c0,0,0,34,24,58c0,0,24,24,56,24c0,0,34,0,58,-24c0,0,24,-24,24,-58c0,0,0,-32,-24,-56c0,0,-24,-24,-58,-24Z" 
id="f2_3"
transform="scale(0.001,-0.001)" />

<path d="M460,-325c0,0,-148,79,-231,172c0,0,-84,93,-123,217c0,0,-39,126,-39,304c0,0,0,178,39,303c0,0,39,125,122,217c0,0,82,93,232,172V997c0,0,-91,-52,-145,-134c0,0,-54,-81,-79,-190c0,0,-25,-109,-25,-305c0,0,0,-194,26,-309c0,0,26,-114,82,-193c0,0,56,-79,141,-128v-63Z" 
id="f2_14"
transform="scale(0.001,-0.001)" />

<path d="M49,-325v63c0,0,85,49,140,128c0,0,56,79,83,194c0,0,26,115,26,308c0,0,0,196,-25,305c0,0,-25,109,-79,190c0,0,-54,82,-145,134v63c0,0,149,-80,232,-172c0,0,83,-92,122,-217c0,0,39,-125,39,-303c0,0,0,-177,-39,-303c0,0,-39,-125,-122,-217c0,0,-83,-93,-232,-173Z" 
id="f2_15"
transform="scale(0.001,-0.001)" />

<path d="M383,64c0,0,85,0,152,28V645c0,0,-67,13,-152,13c0,0,-194,0,-194,-314c0,0,0,-141,48,-211c0,0,48,-69,146,-69ZM342,-14c0,0,-287,0,-287,358c0,0,0,184,82,280c0,0,81,96,239,96c0,0,81,0,163,-18c0,0,-4,25,-4,124v182l-118,18v34H659V52L745,33V0H548l-9,52c0,0,-84,-66,-197,-66Z" 
id="f2_2"
transform="scale(0.001,-0.001)" />

<path d="M495,413c0,0,0,133,-34,190c0,0,-34,57,-105,57c0,0,-78,0,-119,-63c0,0,-42,-62,-42,-184ZM374,-14c0,0,-163,0,-239,87c0,0,-75,88,-75,283c0,0,0,183,77,273c0,0,76,91,219,91c0,0,269,0,269,-306V353H194V340c0,0,0,-103,23,-160c0,0,22,-57,70,-87c0,0,47,-29,124,-29c0,0,40,0,96,6c0,0,55,7,91,15V43C598,43,562,20,500,3c0,0,-61,-17,-126,-17Z" 
id="f2_7"
transform="scale(0.001,-0.001)" />

<path d="M55,0V40L184,60V941L55,960v40H455V960L327,941V60L455,40V0Z" 
id="f2_10"
transform="scale(0.001,-0.001)" />

<path d="M31,0V33l88,19V649L31,668v33H235l7,-87c0,0,44,37,121,71c0,0,76,35,121,35h11V530H463l-43,82c0,0,-37,0,-88,-10c0,0,-52,-10,-89,-26V52L363,33V0Z" 
id="f2_6"
transform="scale(0.001,-0.001)" />

<path d="M31,0V33L150,52v956L31,1026v34H274V52L394,33V0Z" 
id="f2_b"
transform="scale(0.001,-0.001)" />

<path d="M191,-20c0,0,-39,0,-65,25c0,0,-25,27,-25,64c0,0,0,38,26,64c0,0,26,26,64,26c0,0,38,0,64,-26c0,0,26,-26,26,-64c0,0,0,-37,-25,-64c0,0,-26,-25,-65,-25Z" 
id="f2_1e"
transform="scale(0.001,-0.001)" />

<path d="M44,0V40L172,60V941L44,960v40H794V760H745L721,922c0,0,-83,11,-241,11H316V543H586l23,119h48V354H609L586,475H316V67H513c0,0,193,0,252,12l43,185h49L843,0Z" 
id="f2_p"
transform="scale(0.001,-0.001)" />

<path d="M431,0V33L535,52V499c0,0,0,62,-32,96c0,0,-32,33,-95,33c0,0,-66,0,-163,-22V52L350,33V0H32V33l89,19V649L32,668v33H237l6,-57c0,0,56,32,119,54c0,0,62,22,110,22c0,0,52,0,95,-20c0,0,44,-19,66,-62c0,0,57,32,134,57c0,0,77,25,128,25c0,0,179,0,179,-207V52l90,-19V0H846V33L950,52V499c0,0,0,129,-119,129c0,0,-19,0,-45,-3c0,0,-26,-3,-52,-7c0,0,-25,-4,-49,-8c0,0,-23,-5,-39,-8c0,0,13,-41,13,-89V52L764,33V0Z" 
id="f2_d"
transform="scale(0.001,-0.001)" />

<path d="M359,-270c0,0,124,0,192,46c0,0,67,47,67,129c0,0,0,43,-26,67c0,0,-26,24,-79,24H242c0,0,-32,-27,-51,-69c0,0,-20,-41,-20,-77c0,0,0,-64,46,-92c0,0,46,-28,142,-28Zm11,561c0,0,81,0,115,47c0,0,34,47,34,141c0,0,0,100,-35,142c0,0,-35,42,-113,42c0,0,-78,0,-114,-43c0,0,-37,-42,-37,-141c0,0,0,-98,36,-143c0,0,36,-45,114,-45ZM359,-329c0,0,-143,0,-218,44c0,0,-75,43,-75,125c0,0,0,39,27,78c0,0,26,38,98,89c0,0,-43,14,-72,48c0,0,-29,35,-29,74L208,262c0,0,-118,55,-118,217c0,0,0,115,73,178c0,0,73,63,211,63c0,0,28,0,71,-6c0,0,44,-6,67,-13l165,83l26,-32L599,644c0,0,50,-56,50,-165c0,0,0,-120,-72,-182c0,0,-73,-62,-208,-62c0,0,-62,0,-114,11L208,148c0,0,2,-13,29,-24c0,0,27,-12,67,-12H512c0,0,113,0,168,-49c0,0,55,-49,55,-134c0,0,0,-79,-44,-137c0,0,-43,-58,-128,-90c0,0,-84,-31,-204,-31Z" 
id="f2_l"
transform="scale(0.001,-0.001)" />

<path d="M495,413c0,0,0,133,-34,190c0,0,-34,57,-105,57c0,0,-78,0,-119,-62c0,0,-42,-63,-42,-185ZM374,-14c0,0,-163,0,-239,87c0,0,-75,88,-75,283c0,0,0,183,77,274c0,0,76,90,219,90c0,0,269,0,269,-306V353H194V339c0,0,0,-103,23,-160c0,0,22,-57,70,-86c0,0,47,-30,124,-30c0,0,40,0,96,6c0,0,55,7,91,15V43C598,43,562,19,500,2c0,0,-61,-16,-126,-16ZM285,835v24l146,203H590v-27L326,835Z" 
id="f2_13"
transform="scale(0.001,-0.001)" />

<path d="M44,0V40L172,60V941L44,960v40H471V960L316,941V65H513c0,0,159,0,234,14l46,208h48L828,0Z" 
id="f2_r"
transform="scale(0.001,-0.001)" />

<path d="M41,0V34L426,641H261c0,0,-42,0,-80,-7c0,0,-39,-7,-54,-19L104,515H69V701H586V665L201,60H407c0,0,42,0,89,10c0,0,47,10,66,25l39,147h35L617,0Z" 
id="f2_q"
transform="scale(0.001,-0.001)" />

<path d="M399,-14c0,0,-341,0,-341,370c0,0,0,175,87,269c0,0,87,95,249,95c0,0,101,0,220,-23V501H573L541,625c0,0,-62,35,-149,35c0,0,-200,0,-200,-304c0,0,0,-158,61,-225c0,0,61,-67,189,-67c0,0,109,0,189,24V43C631,43,595,16,530,1c0,0,-64,-15,-131,-15Z" 
id="f2_5"
transform="scale(0.001,-0.001)" />

<path d="M376,50c0,0,103,0,149,80c0,0,46,81,46,240c0,0,0,137,-47,204c0,0,-48,67,-148,67c0,0,-44,0,-87,-7c0,0,-44,-8,-63,-17V62c0,0,63,-12,150,-12Zm3,-64c0,0,-64,0,-141,14c0,0,-78,14,-136,37v971L0,1026v34H226V809c0,0,0,-40,-4,-148c0,0,74,59,188,59c0,0,143,0,219,-87c0,0,77,-87,77,-263c0,0,0,-189,-84,-287c0,0,-84,-97,-243,-97Z" 
id="f2_h"
transform="scale(0.001,-0.001)" />

<path d="M211,-20c0,0,-39,0,-64,25c0,0,-26,27,-26,64c0,0,0,38,26,64c0,0,26,26,64,26c0,0,37,0,64,-25c0,0,26,-26,26,-65c0,0,0,-37,-26,-64c0,0,-26,-25,-64,-25Zm0,556c0,0,-38,0,-64,26c0,0,-26,26,-26,64c0,0,0,37,26,64c0,0,25,27,64,27c0,0,38,0,64,-27c0,0,26,-27,26,-64c0,0,0,-38,-26,-64c0,0,-27,-26,-64,-26Z" 
id="f2_19"
transform="scale(0.001,-0.001)" />

<path d="M0,-14L351,1007h73L75,-14Z" 
id="f2_16"
transform="scale(0.001,-0.001)" />

<path d="M284,67c0,0,51,0,88,12c0,0,37,11,74,29V357l-98,-3c0,0,-100,-3,-135,-38c0,0,-35,-36,-35,-118c0,0,0,-131,106,-131ZM233,-14c0,0,-179,0,-179,208c0,0,0,70,27,116c0,0,27,46,87,70c0,0,60,24,173,27l105,3V519c0,0,0,73,-26,107c0,0,-27,34,-82,34c0,0,-75,0,-137,-35L176,538H134V691c0,0,121,26,213,26c0,0,115,0,169,-47c0,0,54,-47,54,-144V52L657,34V0H465L451,70c0,0,-85,-84,-218,-84Zm22,849v24l146,203H560v-27L296,835Z" 
id="f2_f"
transform="scale(0.001,-0.001)" />

<path d="M58,-234v58c0,0,131,42,131,125c0,0,0,15,-11,27c0,0,-11,12,-38,25C140,1,89,27,89,75c0,0,0,40,25,61c0,0,26,21,65,21c0,0,48,0,77,-34c0,0,30,-34,30,-86c0,0,0,-101,-60,-170c0,0,-59,-69,-168,-101Z" 
id="f2_1g"
transform="scale(0.001,-0.001)" />

<path d="M382,45c0,0,188,0,188,314c0,0,0,143,-47,213c0,0,-46,69,-141,69c0,0,-87,0,-146,-24V58c0,0,67,-13,146,-13ZM25,-325v35l88,18V649L34,668v33H231l1,-41c0,0,31,27,84,43c0,0,53,17,107,17c0,0,134,0,208,-94c0,0,73,-93,73,-267c0,0,0,-178,-80,-276c0,0,-80,-97,-232,-97c0,0,-84,0,-160,16c0,0,4,-53,4,-84V-272l123,-18v-35Z" 
id="f2_a"
transform="scale(0.001,-0.001)" />

<path d="M289,-14c0,0,-179,0,-179,205V649L20,668v33H233V200c0,0,0,-128,120,-128c0,0,92,0,173,23V649L420,668v33H649V52L738,33V0H533l-6,57C527,57,474,28,405,7c0,0,-69,-21,-116,-21Z" 
id="f2_c"
transform="scale(0.001,-0.001)" />

<path d="M249,-14c0,0,-71,0,-107,42c0,0,-35,42,-35,119V639H15v33l93,29l76,159h47V701H391V639H231V161c0,0,0,-48,22,-73c0,0,22,-24,57,-24c0,0,44,0,106,12V26C416,26,389,8,340,-2c0,0,-49,-12,-91,-12Z" 
id="f2_8"
transform="scale(0.001,-0.001)" />

<path d="M868,0L251,900V60L385,40V0H44V40L172,60V941L44,960v40H347L862,259V941L727,960v40h341V960L940,941V0Z" 
id="f2_1q"
transform="scale(0.001,-0.001)" />

<path d="M289,-14c0,0,-179,0,-179,205V649L20,668v33H233V200c0,0,0,-128,120,-128c0,0,92,0,173,23V649L420,668v33H649V52L738,34V0H533l-6,57C527,57,474,28,405,6c0,0,-69,-20,-116,-20Zm24,849v24l147,203H618v-27L354,835Z" 
id="f2_z"
transform="scale(0.001,-0.001)" />

<path d="M442,0V33l93,19V504c0,0,0,129,-124,129c0,0,-70,0,-168,-22V52L338,33V0H31V33l88,19v956L15,1026v34H243V756c0,0,0,-77,-5,-112c0,0,54,31,122,53c0,0,68,23,115,23c0,0,91,0,137,-53c0,0,47,-53,47,-154V52L744,33V0Z" 
id="f2_n"
transform="scale(0.001,-0.001)" />

<path d="M64,0V34L168,59V639H47v36l121,29v49c0,0,0,155,61,239c0,0,62,84,173,84c0,0,58,0,107,-15V908H472l-33,92c0,0,-26,16,-62,16c0,0,-47,0,-66,-42c0,0,-19,-42,-19,-157V701H478V639H292V59L443,34V0Z" 
id="f2_m"
transform="scale(0.001,-0.001)" />

<path d="M377,44c0,0,99,0,147,73c0,0,47,73,47,237c0,0,0,161,-47,234c0,0,-47,72,-147,72c0,0,-97,0,-141,-69c0,0,-44,-70,-44,-237c0,0,0,-169,45,-239c0,0,44,-71,140,-71Zm0,-58c0,0,-158,0,-238,94c0,0,-81,95,-81,274c0,0,0,178,81,272c0,0,80,94,244,94c0,0,160,0,241,-92c0,0,82,-92,82,-274c0,0,0,-368,-329,-368ZM301,835v24l147,203H606v-27L342,835Z" 
id="f2_y"
transform="scale(0.001,-0.001)" />

<path d="M383,64c0,0,44,0,87,7c0,0,43,7,65,17V645c0,0,-67,13,-152,13c0,0,-194,0,-194,-309c0,0,0,-143,48,-214c0,0,47,-71,146,-71Zm56,-389v35l96,18V-77c0,0,0,73,7,124c0,0,-79,-61,-200,-61c0,0,-287,0,-287,362c0,0,0,180,81,276c0,0,81,96,237,96c0,0,84,0,166,-18l67,33h53V-272l77,-18v-35Z" 
id="f2_17"
transform="scale(0.001,-0.001)" />

<path d="M360,-14L72,649L0,668v33H327V668L216,648L420,164L615,649L504,668v33H764V668L697,652L416,-14Z" 
id="f2_v"
transform="scale(0.001,-0.001)" />

<path d="M190,0V127H436V977L168,923v137l267,54H586V127H832V0Z" 
id="f0_x"
transform="scale(0.001,-0.001)" />

<path d="M414,-20c0,0,-70,0,-144,13c0,0,-75,13,-154,40V179c0,0,63,-36,138,-55c0,0,74,-18,156,-18c0,0,142,0,216,55c0,0,74,56,74,163c0,0,0,98,-69,153c0,0,-69,56,-192,56H309V657H445c0,0,111,0,170,44c0,0,59,45,59,128c0,0,0,86,-61,132c0,0,-61,46,-174,46c0,0,-62,0,-133,-13c0,0,-71,-14,-156,-42v134c0,0,85,24,160,36c0,0,75,12,142,12c0,0,171,0,271,-78c0,0,100,-78,100,-211c0,0,0,-92,-53,-156c0,0,-52,-64,-150,-89c0,0,108,-23,169,-96c0,0,61,-73,61,-180c0,0,0,-165,-114,-255c0,0,-113,-89,-322,-89Z" 
id="f0_10"
transform="scale(0.001,-0.001)" />


</defs>
</svg>