<?xml version="1.0" encoding="UTF-8" standalone="no"?>
<!DOCTYPE svg PUBLIC "-//W3C//DTD SVG 1.1//EN"
"http://www.w3.org/Graphics/SVG/1.1/DTD/svg11.dtd">
<svg viewBox="0 0 909 1286" version="1.1" xmlns="http://www.w3.org/2000/svg" xmlns:xlink="http://www.w3.org/1999/xlink">
<defs>
<clipPath id="c0_19"><path d="M0,1286.2V0H909.4V1286.2Z" /></clipPath>
<style type="text/css"><![CDATA[
.g0_19{
fill: #D8D8D8;
}
.g1_19{
fill: none;
stroke: #000000;
stroke-width: 0.7638889;
stroke-linecap: butt;
stroke-linejoin: round;
}
.g2_19{
fill: none;
stroke: #0000FF;
stroke-width: 1.0694444;
stroke-linecap: butt;
stroke-linejoin: miter;
}
]]></style>
</defs>
<path fill-rule="evenodd" d="M637.8,667.4H761.2V626.1H637.8v41.3Z" class="g0_19" />
<path fill-rule="evenodd" d="M508,667.4H637.8V626.1H508v41.3Z" class="g0_19" />
<path fill-rule="evenodd" d="M356.3,667.4H507.9V626.1H356.3v41.3Z" class="g0_19" />
<path fill-rule="evenodd" d="M237.3,667.4H356.2V626.1H237.3v41.3Z" class="g0_19" />
<path fill-rule="evenodd" d="M128.9,687.6H237.2V667.5H128.9v20.1Z" class="g0_19" />
<path fill-rule="evenodd" d="M128.9,707.6H237.2V687.7H128.9v19.9Z" class="g0_19" />
<path fill-rule="evenodd" d="M128.9,727.8H237.2V707.7H128.9v20.1Z" class="g0_19" />
<path fill-rule="evenodd" d="M128.9,747.8H237.2v-20H128.9v20Z" class="g0_19" />
<path fill-rule="evenodd" d="M128.9,767.9H237.2V747.8H128.9v20.1Z" class="g0_19" />
<path fill-rule="evenodd" d="M486.3,872.3H681V850.2H486.3v22.1Z" class="g0_19" />
<path fill-rule="evenodd" d="M367.1,872.3H486.2V850.2H367.1v22.1Z" class="g0_19" />
<path fill-rule="evenodd" d="M248.1,872.3H367V850.2H248.1v22.1Z" class="g0_19" />
<path fill-rule="evenodd" d="M128.9,872.3H248V850.2H128.9v22.1Z" class="g0_19" />
<path fill-rule="evenodd" d="M356.3,1106.6H507.8v-41.3H356.3v41.3Z" class="g0_19" />
<path fill-rule="evenodd" d="M237.3,1106.6H356.2v-41.3H237.3v41.3Z" class="g0_19" />
<path fill-rule="evenodd" d="M128.9,1126.8H237.2v-20.1H128.9v20.1Z" class="g0_19" />
<path fill-rule="evenodd" d="M128.9,1146.8H237.2v-19.9H128.9v19.9Z" class="g0_19" />
<path fill-rule="evenodd" d="M128.9,1167H237.2v-20.1H128.9V1167Z" class="g0_19" />
<path fill-rule="evenodd" d="M637.8,667.4H761.2V626.1H637.8v41.3Z" class="g0_19" />
<path fill-rule="evenodd" d="M508,667.4H637.8V626.1H508v41.3Z" class="g0_19" />
<path fill-rule="evenodd" d="M356.3,667.4H507.9V626.1H356.3v41.3Z" class="g0_19" />
<path fill-rule="evenodd" d="M237.3,667.4H356.2V626.1H237.3v41.3Z" class="g0_19" />
<path fill-rule="evenodd" d="M128.9,687.6H237.2V667.5H128.9v20.1Z" class="g0_19" />
<path fill-rule="evenodd" d="M128.9,707.6H237.2V687.7H128.9v19.9Z" class="g0_19" />
<path fill-rule="evenodd" d="M128.9,727.8H237.2V707.7H128.9v20.1Z" class="g0_19" />
<path fill-rule="evenodd" d="M128.9,747.8H237.2v-20H128.9v20Z" class="g0_19" />
<path fill-rule="evenodd" d="M128.9,767.9H237.2V747.8H128.9v20.1Z" class="g0_19" />
<path fill-rule="evenodd" d="M486.3,872.3H681V850.2H486.3v22.1Z" class="g0_19" />
<path fill-rule="evenodd" d="M367.1,872.3H486.2V850.2H367.1v22.1Z" class="g0_19" />
<path fill-rule="evenodd" d="M248.1,872.3H367V850.2H248.1v22.1Z" class="g0_19" />
<path fill-rule="evenodd" d="M128.9,872.3H248V850.2H128.9v22.1Z" class="g0_19" />
<path fill-rule="evenodd" d="M356.3,1106.6H507.8v-41.3H356.3v41.3Z" class="g0_19" />
<path fill-rule="evenodd" d="M237.3,1106.6H356.2v-41.3H237.3v41.3Z" class="g0_19" />
<path fill-rule="evenodd" d="M128.9,1126.8H237.2v-20.1H128.9v20.1Z" class="g0_19" />
<path fill-rule="evenodd" d="M128.9,1146.8H237.2v-19.9H128.9v19.9Z" class="g0_19" />
<path fill-rule="evenodd" d="M128.9,1167H237.2v-20.1H128.9V1167Z" class="g0_19" />
<path d="M128.6,110.4H562.3M128.6,132.5H562.3M128.6,154.7H562.3M128.6,176.8H562.3M128.6,199H562.3M128.9,110v89.4M248,110v89.4M367.1,110v89.4M561.9,110v89.4" class="g1_19" />
<g clip-path="url(#c0_19)">
<g fill="#000000" >
<use xlink:href="#f0_d" transform="matrix(12,0,0,12,504.6,127.9)" />
<use xlink:href="#f0_7" transform="matrix(12,0,0,12,516.9,127.9)" />
<use xlink:href="#f0_f" transform="matrix(12,0,0,12,521,127.9)" />
<use xlink:href="#f0_9" transform="matrix(12,0,0,12,531.5,127.9)" />
<use xlink:href="#f0_3" transform="matrix(12,0,0,12,543.4,127.9)" />
<use xlink:href="#f1_h" transform="matrix(11,0,0,11,256.8,126.5)" />
<use xlink:href="#f1_3" transform="matrix(11,0,0,11,261.4,126.5)" />
<use xlink:href="#f1_m" transform="matrix(11,0,0,11,267,126.5)" />
<use xlink:href="#f1_4" transform="matrix(11,0,0,11,274.4,126.5)" />
<use xlink:href="#f1_w" transform="matrix(11,0,0,11,279.1,126.5)" />
<use xlink:href="#f1_8" transform="matrix(11,0,0,11,287.5,126.5)" />
<use xlink:href="#f1_h" transform="matrix(11,0,0,11,137.7,126.5)" />
<use xlink:href="#f1_3" transform="matrix(11,0,0,11,142.4,126.5)" />
<use xlink:href="#f1_m" transform="matrix(11,0,0,11,147.9,126.5)" />
<use xlink:href="#f1_2" transform="matrix(11,0,0,11,155.3,126.5)" />
<use xlink:href="#f1_3" transform="matrix(11,0,0,11,162.8,126.5)" />
<use xlink:href="#f0_a" transform="matrix(12,0,0,12,507.8,150)" />
<use xlink:href="#f0_c" transform="matrix(12,0,0,12,518.1,150)" />
<use xlink:href="#f0_4" transform="matrix(12,0,0,12,523.1,150)" />
<use xlink:href="#f0_n" transform="matrix(12,0,0,12,536.1,150)" />
<use xlink:href="#f0_3" transform="matrix(12,0,0,12,543.4,150)" />
<use xlink:href="#f1_5" transform="matrix(11,0,0,11,256.8,148.7)" />
<use xlink:href="#f1_m" transform="matrix(11,0,0,11,264.1,148.7)" />
<use xlink:href="#f1_4" transform="matrix(11,0,0,11,271.6,148.7)" />
<use xlink:href="#f1_w" transform="matrix(11,0,0,11,276.3,148.7)" />
<use xlink:href="#f1_8" transform="matrix(11,0,0,11,284.7,148.7)" />
<use xlink:href="#f1_5" transform="matrix(11,0,0,11,137.7,148.7)" />
<use xlink:href="#f1_m" transform="matrix(11,0,0,11,145.1,148.7)" />
<use xlink:href="#f1_2" transform="matrix(11,0,0,11,152.6,148.7)" />
<use xlink:href="#f1_3" transform="matrix(11,0,0,11,159.9,148.7)" />
<use xlink:href="#f0_l" transform="matrix(12,0,0,12,505.1,172.2)" />
<use xlink:href="#f0_7" transform="matrix(12,0,0,12,516.5,172.2)" />
<use xlink:href="#f0_b" transform="matrix(12,0,0,12,520.6,172.2)" />
<use xlink:href="#f0_9" transform="matrix(12,0,0,12,531.5,172.2)" />
<use xlink:href="#f0_3" transform="matrix(12,0,0,12,543.4,172.2)" />
<use xlink:href="#f1_8" transform="matrix(11,0,0,11,256.8,170.8)" />
<use xlink:href="#f1_t" transform="matrix(11,0,0,11,265.1,170.8)" />
<use xlink:href="#f1_3" transform="matrix(11,0,0,11,270.7,170.8)" />
<use xlink:href="#f1_2" transform="matrix(11,0,0,11,276.3,170.8)" />
<use xlink:href="#f1_9" transform="matrix(11,0,0,11,283.8,170.8)" />
<use xlink:href="#f1_5" transform="matrix(11,0,0,11,291.3,170.8)" />
<use xlink:href="#f1_8" transform="matrix(11,0,0,11,298.7,170.8)" />
<use xlink:href="#f1_8" transform="matrix(11,0,0,11,137.7,170.8)" />
<use xlink:href="#f1_t" transform="matrix(11,0,0,11,146.1,170.8)" />
<use xlink:href="#f1_3" transform="matrix(11,0,0,11,151.7,170.8)" />
<use xlink:href="#f1_2" transform="matrix(11,0,0,11,157.2,170.8)" />
<use xlink:href="#f1_5" transform="matrix(11,0,0,11,164.6,170.8)" />
<use xlink:href="#f1_2" transform="matrix(11,0,0,11,172.1,170.8)" />
<use xlink:href="#f1_3" transform="matrix(11,0,0,11,179.6,170.8)" />
<use xlink:href="#f0_e" transform="matrix(12,0,0,12,501.9,194.3)" />
<use xlink:href="#f0_c" transform="matrix(12,0,0,12,513.9,194.3)" />
<use xlink:href="#f0_4" transform="matrix(12,0,0,12,518.9,194.3)" />
<use xlink:href="#f0_l" transform="matrix(12,0,0,12,531.9,194.3)" />
<use xlink:href="#f0_3" transform="matrix(12,0,0,12,543.4,194.3)" />
<use xlink:href="#f1_x" transform="matrix(11,0,0,11,256.8,193)" />
<use xlink:href="#f1_m" transform="matrix(11,0,0,11,265.2,193)" />
<use xlink:href="#f1_w" transform="matrix(11,0,0,11,272.7,193)" />
<use xlink:href="#f1_8" transform="matrix(11,0,0,11,281.1,193)" />
<use xlink:href="#f1_x" transform="matrix(11,0,0,11,137.7,193)" />
<use xlink:href="#f1_m" transform="matrix(11,0,0,11,146.1,193)" />
<use xlink:href="#f1_5" transform="matrix(11,0,0,11,153.5,193)" />
<use xlink:href="#f1_2" transform="matrix(11,0,0,11,161,193)" />
<use xlink:href="#f1_3" transform="matrix(11,0,0,11,168.3,193)" />
</g>
<g fill="#0000FF" >
<use xlink:href="#f0_p" transform="matrix(12,0,0,12,669.9,216.5)" />
<use xlink:href="#f0_a" transform="matrix(12,0,0,12,682.9,216.5)" />
<use xlink:href="#f0_m" transform="matrix(12,0,0,12,693.1,216.5)" />
<use xlink:href="#f0_3" transform="matrix(12,0,0,12,704.6,216.5)" />
<use xlink:href="#f0_9" transform="matrix(12,0,0,12,720.9,216.5)" />
<use xlink:href="#f0_a" transform="matrix(12,0,0,12,732.8,216.5)" />
<use xlink:href="#f0_o" transform="matrix(12,0,0,12,743.2,216.5)" />
<use xlink:href="#f0_g" transform="matrix(12,0,0,12,749.6,216.5)" />
<use xlink:href="#f0_f" transform="matrix(12,0,0,12,761.5,216.5)" />
</g>
</g>
<path d="M669.8,218.3H772.1" class="g2_19" />
<g clip-path="url(#c0_19)">
<g fill="#000000" >
<use xlink:href="#f2_n" transform="matrix(12,0,0,12,723.8,295.8)" />
<use xlink:href="#f2_d" transform="matrix(12,0,0,12,735,295.8)" />
<use xlink:href="#f2_o" transform="matrix(12,0,0,12,740.3,295.8)" />
<use xlink:href="#f2_4" transform="matrix(12,0,0,12,748.6,295.8)" />
<use xlink:href="#f2_p" transform="matrix(12,0,0,12,759.6,295.8)" />
<use xlink:href="#f2_z" transform="matrix(12,0,0,12,704.6,295.8)" />
</g>
</g>
<path d="M128.6,300.6H783.4M128.6,322.7H783.4M128.6,344.9H783.4M128.6,367H783.4M128.6,389.2H783.4M128.6,411.4H783.4M128.6,433.5H783.4M128.6,455.7H783.4M128.6,477.8H783.4M128.6,500H783.4M128.6,522.1H783.4M128.6,544.3H783.4M128.9,300.2V544.7M540.5,300.2V544.7M783,300.2V544.7" class="g1_19" />
<g clip-path="url(#c0_19)">
<g fill="#000000" >
<use xlink:href="#f3_2" transform="matrix(12,0,0,12,605.5,317.9)" />
<use xlink:href="#f3_3" transform="matrix(12,0,0,12,611.3,317.9)" />
<use xlink:href="#f3_4" transform="matrix(12,0,0,12,623.2,317.9)" />
<use xlink:href="#f3_5" transform="matrix(12,0,0,12,633.7,317.9)" />
<use xlink:href="#f3_6" transform="matrix(12,0,0,12,638.6,317.9)" />
<use xlink:href="#f3_8" transform="matrix(12,0,0,12,656.5,317.9)" />
<use xlink:href="#f3_9" transform="matrix(12,0,0,12,663.6,317.9)" />
<use xlink:href="#f3_a" transform="matrix(12,0,0,12,675.9,317.9)" />
<use xlink:href="#f3_3" transform="matrix(12,0,0,12,680,317.9)" />
<use xlink:href="#f3_b" transform="matrix(12,0,0,12,691.9,317.9)" />
<use xlink:href="#f3_3" transform="matrix(12,0,0,12,704.9,317.9)" />
<use xlink:href="#f3_c" transform="matrix(12,0,0,12,716.8,317.9)" />
<use xlink:href="#f3_d" transform="matrix(12,0,0,12,726.9,317.9)" />
<use xlink:href="#f3_e" transform="matrix(12,0,0,12,738.3,317.9)" />
<use xlink:href="#f3_f" transform="matrix(12,0,0,12,750.2,317.9)" />
<use xlink:href="#f3_3" transform="matrix(12,0,0,12,762.7,317.9)" />
<use xlink:href="#f4_2" transform="matrix(11,0,0,11,137.7,316.6)" />
<use xlink:href="#f4_3" transform="matrix(11,0,0,11,147.9,316.6)" />
<use xlink:href="#f4_5" transform="matrix(11,0,0,11,156.9,316.6)" />
<use xlink:href="#f4_6" transform="matrix(11,0,0,11,163.3,316.6)" />
<use xlink:href="#f4_7" transform="matrix(11,0,0,11,170.8,316.6)" />
<use xlink:href="#f4_8" transform="matrix(11,0,0,11,177.3,316.6)" />
<use xlink:href="#f4_9" transform="matrix(11,0,0,11,182,316.6)" />
<use xlink:href="#f4_a" transform="matrix(11,0,0,11,190.4,316.6)" />
<use xlink:href="#f4_5" transform="matrix(11,0,0,11,198.7,316.6)" />
<use xlink:href="#f4_9" transform="matrix(11,0,0,11,205.2,316.6)" />
<use xlink:href="#f4_b" transform="matrix(11,0,0,11,213.6,316.6)" />
<use xlink:href="#f4_8" transform="matrix(11,0,0,11,222.1,316.6)" />
<use xlink:href="#f4_6" transform="matrix(11,0,0,11,226.8,316.6)" />
<use xlink:href="#f4_6" transform="matrix(11,0,0,11,238.4,316.6)" />
<use xlink:href="#f4_7" transform="matrix(11,0,0,11,245.8,316.6)" />
<use xlink:href="#f4_c" transform="matrix(11,0,0,11,256.6,316.6)" />
<use xlink:href="#f4_a" transform="matrix(11,0,0,11,265,316.6)" />
<use xlink:href="#f4_6" transform="matrix(11,0,0,11,273.3,316.6)" />
<use xlink:href="#f4_b" transform="matrix(11,0,0,11,280.8,316.6)" />
<use xlink:href="#f4_d" transform="matrix(11,0,0,11,289.2,316.6)" />
<use xlink:href="#f4_e" transform="matrix(11,0,0,11,297.6,316.6)" />
<use xlink:href="#f3_2" transform="matrix(12,0,0,12,666,340.1)" />
<use xlink:href="#f3_3" transform="matrix(12,0,0,12,671.8,340.1)" />
<use xlink:href="#f3_4" transform="matrix(12,0,0,12,683.7,340.1)" />
<use xlink:href="#f3_5" transform="matrix(12,0,0,12,694.2,340.1)" />
<use xlink:href="#f3_6" transform="matrix(12,0,0,12,699.1,340.1)" />
<use xlink:href="#f3_3" transform="matrix(12,0,0,12,717,340.1)" />
<use xlink:href="#f3_c" transform="matrix(12,0,0,12,728.9,340.1)" />
<use xlink:href="#f3_d" transform="matrix(12,0,0,12,738.8,340.1)" />
<use xlink:href="#f3_e" transform="matrix(12,0,0,12,750.3,340.1)" />
<use xlink:href="#f3_f" transform="matrix(12,0,0,12,762.2,340.1)" />
<use xlink:href="#f4_f" transform="matrix(11,0,0,11,137.7,338.7)" />
<use xlink:href="#f4_a" transform="matrix(11,0,0,11,147.9,338.7)" />
<use xlink:href="#f4_6" transform="matrix(11,0,0,11,156.3,338.7)" />
<use xlink:href="#f4_b" transform="matrix(11,0,0,11,163.8,338.7)" />
<use xlink:href="#f4_5" transform="matrix(11,0,0,11,176.4,338.7)" />
<use xlink:href="#f4_6" transform="matrix(11,0,0,11,182.8,338.7)" />
<use xlink:href="#f4_7" transform="matrix(11,0,0,11,190.3,338.7)" />
<use xlink:href="#f4_8" transform="matrix(11,0,0,11,196.9,338.7)" />
<use xlink:href="#f4_9" transform="matrix(11,0,0,11,201.6,338.7)" />
<use xlink:href="#f4_a" transform="matrix(11,0,0,11,210,338.7)" />
<use xlink:href="#f4_5" transform="matrix(11,0,0,11,218.4,338.7)" />
<use xlink:href="#f4_9" transform="matrix(11,0,0,11,224.9,338.7)" />
<use xlink:href="#f4_b" transform="matrix(11,0,0,11,233.3,338.7)" />
<use xlink:href="#f4_8" transform="matrix(11,0,0,11,241.6,338.7)" />
<use xlink:href="#f4_6" transform="matrix(11,0,0,11,246.3,338.7)" />
<use xlink:href="#f4_e" transform="matrix(11,0,0,11,253.8,338.7)" />
<use xlink:href="#f0_j" transform="matrix(12,0,0,12,655.4,362.2)" />
<use xlink:href="#f0_9" transform="matrix(12,0,0,12,661.2,362.2)" />
<use xlink:href="#f0_f" transform="matrix(12,0,0,12,673.1,362.2)" />
<use xlink:href="#f0_c" transform="matrix(12,0,0,12,683.7,362.2)" />
<use xlink:href="#f0_w" transform="matrix(12,0,0,12,688.6,362.2)" />
<use xlink:href="#f0_9" transform="matrix(12,0,0,12,706.4,362.2)" />
<use xlink:href="#f0_7" transform="matrix(12,0,0,12,718.4,362.2)" />
<use xlink:href="#f0_7" transform="matrix(12,0,0,12,722.5,362.2)" />
<use xlink:href="#f0_m" transform="matrix(12,0,0,12,726.6,362.2)" />
<use xlink:href="#f0_d" transform="matrix(12,0,0,12,738,362.2)" />
<use xlink:href="#f0_8" transform="matrix(12,0,0,12,750.2,362.2)" />
<use xlink:href="#f0_9" transform="matrix(12,0,0,12,762.7,362.2)" />
<use xlink:href="#f1_1h" transform="matrix(11,0,0,11,137.7,360.9)" />
<use xlink:href="#f1_m" transform="matrix(11,0,0,11,147.9,360.9)" />
<use xlink:href="#f1_u" transform="matrix(11,0,0,11,159.6,360.9)" />
<use xlink:href="#f1_m" transform="matrix(11,0,0,11,168,360.9)" />
<use xlink:href="#f1_a" transform="matrix(11,0,0,11,175.5,360.9)" />
<use xlink:href="#f1_m" transform="matrix(11,0,0,11,183.7,360.9)" />
<use xlink:href="#f1_e" transform="matrix(11,0,0,11,191.2,360.9)" />
<use xlink:href="#f1_2" transform="matrix(11,0,0,11,199.6,360.9)" />
<use xlink:href="#f1_3" transform="matrix(11,0,0,11,207.1,360.9)" />
<use xlink:href="#f1_q" transform="matrix(11,0,0,11,212.7,360.9)" />
<use xlink:href="#f1_m" transform="matrix(11,0,0,11,217.3,360.9)" />
<use xlink:href="#f1_2" transform="matrix(11,0,0,11,229,360.9)" />
<use xlink:href="#f1_g" transform="matrix(11,0,0,11,236.5,360.9)" />
<use xlink:href="#f1_v" transform="matrix(11,0,0,11,247.1,360.9)" />
<use xlink:href="#f1_f" transform="matrix(11,0,0,11,255.5,360.9)" />
<use xlink:href="#f1_2" transform="matrix(11,0,0,11,263.9,360.9)" />
<use xlink:href="#f1_a" transform="matrix(11,0,0,11,271.4,360.9)" />
<use xlink:href="#f1_m" transform="matrix(11,0,0,11,279.8,360.9)" />
<use xlink:href="#f1_o" transform="matrix(11,0,0,11,287.1,360.9)" />
<use xlink:href="#f0_j" transform="matrix(12,0,0,12,667.3,384.4)" />
<use xlink:href="#f0_9" transform="matrix(12,0,0,12,673.1,384.4)" />
<use xlink:href="#f0_f" transform="matrix(12,0,0,12,685.1,384.4)" />
<use xlink:href="#f0_c" transform="matrix(12,0,0,12,695.6,384.4)" />
<use xlink:href="#f0_w" transform="matrix(12,0,0,12,700.6,384.4)" />
<use xlink:href="#f0_9" transform="matrix(12,0,0,12,718.3,384.4)" />
<use xlink:href="#f0_7" transform="matrix(12,0,0,12,730.3,384.4)" />
<use xlink:href="#f0_7" transform="matrix(12,0,0,12,734.4,384.4)" />
<use xlink:href="#f0_m" transform="matrix(12,0,0,12,738.5,384.4)" />
<use xlink:href="#f0_d" transform="matrix(12,0,0,12,749.9,384.4)" />
<use xlink:href="#f0_8" transform="matrix(12,0,0,12,762.1,384.4)" />
<use xlink:href="#f1_1q" transform="matrix(11,0,0,11,137.7,383)" />
<use xlink:href="#f1_f" transform="matrix(11,0,0,11,148.8,383)" />
<use xlink:href="#f1_2" transform="matrix(11,0,0,11,157.2,383)" />
<use xlink:href="#f1_a" transform="matrix(11,0,0,11,164.7,383)" />
<use xlink:href="#f1_m" transform="matrix(11,0,0,11,173.1,383)" />
<use xlink:href="#f1_u" transform="matrix(11,0,0,11,184.8,383)" />
<use xlink:href="#f1_m" transform="matrix(11,0,0,11,193.2,383)" />
<use xlink:href="#f1_a" transform="matrix(11,0,0,11,200.7,383)" />
<use xlink:href="#f1_m" transform="matrix(11,0,0,11,208.9,383)" />
<use xlink:href="#f1_e" transform="matrix(11,0,0,11,216.4,383)" />
<use xlink:href="#f1_2" transform="matrix(11,0,0,11,224.8,383)" />
<use xlink:href="#f1_3" transform="matrix(11,0,0,11,232.3,383)" />
<use xlink:href="#f1_q" transform="matrix(11,0,0,11,237.9,383)" />
<use xlink:href="#f1_m" transform="matrix(11,0,0,11,242.5,383)" />
<use xlink:href="#f1_o" transform="matrix(11,0,0,11,249.9,383)" />
<use xlink:href="#f0_j" transform="matrix(12,0,0,12,704.9,406.5)" />
<use xlink:href="#f0_f" transform="matrix(12,0,0,12,710.7,406.5)" />
<use xlink:href="#f0_c" transform="matrix(12,0,0,12,721.3,406.5)" />
<use xlink:href="#f0_w" transform="matrix(12,0,0,12,726.3,406.5)" />
<use xlink:href="#f0_f" transform="matrix(12,0,0,12,744.1,406.5)" />
<use xlink:href="#f0_3" transform="matrix(12,0,0,12,754.7,406.5)" />
<use xlink:href="#f0_i" transform="matrix(12,0,0,12,765.1,406.5)" />
<use xlink:href="#f1_1q" transform="matrix(11,0,0,11,137.7,405.2)" />
<use xlink:href="#f1_f" transform="matrix(11,0,0,11,148.8,405.2)" />
<use xlink:href="#f1_2" transform="matrix(11,0,0,11,157.2,405.2)" />
<use xlink:href="#f1_a" transform="matrix(11,0,0,11,164.7,405.2)" />
<use xlink:href="#f1_u" transform="matrix(11,0,0,11,177.3,405.2)" />
<use xlink:href="#f1_2" transform="matrix(11,0,0,11,185.8,405.2)" />
<use xlink:href="#f1_3" transform="matrix(11,0,0,11,193.1,405.2)" />
<use xlink:href="#f1_3" transform="matrix(11,0,0,11,198.7,405.2)" />
<use xlink:href="#f1_8" transform="matrix(11,0,0,11,204.3,405.2)" />
<use xlink:href="#f1_o" transform="matrix(11,0,0,11,212.7,405.2)" />
<use xlink:href="#f0_j" transform="matrix(12,0,0,12,701.9,428.7)" />
<use xlink:href="#f0_l" transform="matrix(12,0,0,12,707.7,428.7)" />
<use xlink:href="#f0_a" transform="matrix(12,0,0,12,719,428.7)" />
<use xlink:href="#f0_3" transform="matrix(12,0,0,12,735.3,428.7)" />
<use xlink:href="#f0_c" transform="matrix(12,0,0,12,745.7,428.7)" />
<use xlink:href="#f0_e" transform="matrix(12,0,0,12,750.7,428.7)" />
<use xlink:href="#f0_g" transform="matrix(12,0,0,12,762.8,428.7)" />
<use xlink:href="#f1_1v" transform="matrix(11,0,0,11,137.7,427.3)" />
<use xlink:href="#f1_m" transform="matrix(11,0,0,11,152.6,427.3)" />
<use xlink:href="#f1_l" transform="matrix(11,0,0,11,160.1,427.3)" />
<use xlink:href="#f1_w" transform="matrix(11,0,0,11,168.9,427.3)" />
<use xlink:href="#f1_m" transform="matrix(11,0,0,11,177.3,427.3)" />
<use xlink:href="#f1_h" transform="matrix(11,0,0,11,184.6,427.3)" />
<use xlink:href="#f1_8" transform="matrix(11,0,0,11,189.4,427.3)" />
<use xlink:href="#f1_o" transform="matrix(11,0,0,11,197.8,427.3)" />
<use xlink:href="#f0_j" transform="matrix(12,0,0,12,600.1,450.8)" />
<use xlink:href="#f0_x" transform="matrix(12,0,0,12,605.9,450.8)" />
<use xlink:href="#f0_f" transform="matrix(12,0,0,12,613.1,450.8)" />
<use xlink:href="#f0_c" transform="matrix(12,0,0,12,623.6,450.8)" />
<use xlink:href="#f0_w" transform="matrix(12,0,0,12,628.7,450.8)" />
<use xlink:href="#f0_d" transform="matrix(12,0,0,12,646.4,450.8)" />
<use xlink:href="#f0_b" transform="matrix(12,0,0,12,658.6,450.8)" />
<use xlink:href="#f0_8" transform="matrix(12,0,0,12,669.4,450.8)" />
<use xlink:href="#f0_n" transform="matrix(12,0,0,12,682,450.8)" />
<use xlink:href="#f0_v" transform="matrix(12,0,0,12,689.3,450.8)" />
<use xlink:href="#f0_a" transform="matrix(12,0,0,12,702.3,450.8)" />
<use xlink:href="#f0_q" transform="matrix(12,0,0,12,712.6,450.8)" />
<use xlink:href="#f0_t" transform="matrix(12,0,0,12,722.6,450.8)" />
<use xlink:href="#f0_f" transform="matrix(12,0,0,12,734.5,450.8)" />
<use xlink:href="#f0_7" transform="matrix(12,0,0,12,751,450.8)" />
<use xlink:href="#f0_n" transform="matrix(12,0,0,12,755.1,450.8)" />
<use xlink:href="#f0_d" transform="matrix(12,0,0,12,762.4,450.8)" />
<use xlink:href="#f1_d" transform="matrix(11,0,0,11,137.7,449.5)" />
<use xlink:href="#f1_g" transform="matrix(11,0,0,11,147.9,449.5)" />
<use xlink:href="#f1_h" transform="matrix(11,0,0,11,154.4,449.5)" />
<use xlink:href="#f1_8" transform="matrix(11,0,0,11,159.2,449.5)" />
<use xlink:href="#f1_7" transform="matrix(11,0,0,11,167.6,449.5)" />
<use xlink:href="#f1_v" transform="matrix(11,0,0,11,180.1,449.5)" />
<use xlink:href="#f1_4" transform="matrix(11,0,0,11,188.5,449.5)" />
<use xlink:href="#f1_2" transform="matrix(11,0,0,11,193.2,449.5)" />
<use xlink:href="#f1_a" transform="matrix(11,0,0,11,200.7,449.5)" />
<use xlink:href="#f1_o" transform="matrix(11,0,0,11,208.9,449.5)" />
<use xlink:href="#f0_j" transform="matrix(12,0,0,12,667.9,473)" />
<use xlink:href="#f0_a" transform="matrix(12,0,0,12,673.8,473)" />
<use xlink:href="#f0_q" transform="matrix(12,0,0,12,684.1,473)" />
<use xlink:href="#f0_t" transform="matrix(12,0,0,12,694.2,473)" />
<use xlink:href="#f0_f" transform="matrix(12,0,0,12,706.1,473)" />
<use xlink:href="#f0_d" transform="matrix(12,0,0,12,722.4,473)" />
<use xlink:href="#f0_3" transform="matrix(12,0,0,12,734.7,473)" />
<use xlink:href="#f0_7" transform="matrix(12,0,0,12,751,473)" />
<use xlink:href="#f0_n" transform="matrix(12,0,0,12,755.1,473)" />
<use xlink:href="#f0_d" transform="matrix(12,0,0,12,762.5,473)" />
<use xlink:href="#f1_d" transform="matrix(11,0,0,11,137.7,471.6)" />
<use xlink:href="#f1_g" transform="matrix(11,0,0,11,147.9,471.6)" />
<use xlink:href="#f1_h" transform="matrix(11,0,0,11,154.4,471.6)" />
<use xlink:href="#f1_8" transform="matrix(11,0,0,11,159.2,471.6)" />
<use xlink:href="#f1_7" transform="matrix(11,0,0,11,167.6,471.6)" />
<use xlink:href="#f1_p" transform="matrix(11,0,0,11,180.1,471.6)" />
<use xlink:href="#f1_m" transform="matrix(11,0,0,11,193.2,471.6)" />
<use xlink:href="#f1_l" transform="matrix(11,0,0,11,200.5,471.6)" />
<use xlink:href="#f1_6" transform="matrix(11,0,0,11,205.3,471.6)" />
<use xlink:href="#f1_1a" transform="matrix(11,0,0,11,214.1,471.6)" />
<use xlink:href="#f1_8" transform="matrix(11,0,0,11,226.2,471.6)" />
<use xlink:href="#f1_2" transform="matrix(11,0,0,11,238.8,471.6)" />
<use xlink:href="#f1_g" transform="matrix(11,0,0,11,246.3,471.6)" />
<use xlink:href="#f1_h" transform="matrix(11,0,0,11,252.8,471.6)" />
<use xlink:href="#f1_8" transform="matrix(11,0,0,11,257.6,471.6)" />
<use xlink:href="#f1_7" transform="matrix(11,0,0,11,266,471.6)" />
<use xlink:href="#f1_v" transform="matrix(11,0,0,11,278.5,471.6)" />
<use xlink:href="#f1_4" transform="matrix(11,0,0,11,286.9,471.6)" />
<use xlink:href="#f1_2" transform="matrix(11,0,0,11,291.6,471.6)" />
<use xlink:href="#f1_a" transform="matrix(11,0,0,11,299.1,471.6)" />
<use xlink:href="#f1_o" transform="matrix(11,0,0,11,307.3,471.6)" />
<use xlink:href="#f0_j" transform="matrix(12,0,0,12,662.8,495.2)" />
<use xlink:href="#f0_f" transform="matrix(12,0,0,12,668.6,495.2)" />
<use xlink:href="#f0_c" transform="matrix(12,0,0,12,679.1,495.2)" />
<use xlink:href="#f0_w" transform="matrix(12,0,0,12,684,495.2)" />
<use xlink:href="#f0_q" transform="matrix(12,0,0,12,701.7,495.2)" />
<use xlink:href="#f0_8" transform="matrix(12,0,0,12,711.8,495.2)" />
<use xlink:href="#f0_c" transform="matrix(12,0,0,12,724.1,495.2)" />
<use xlink:href="#f0_3" transform="matrix(12,0,0,12,729.2,495.2)" />
<use xlink:href="#f0_d" transform="matrix(12,0,0,12,745.5,495.2)" />
<use xlink:href="#f0_c" transform="matrix(12,0,0,12,757.7,495.2)" />
<use xlink:href="#f0_9" transform="matrix(12,0,0,12,762.8,495.2)" />
<use xlink:href="#f1_1m" transform="matrix(11,0,0,11,137.7,493.8)" />
<use xlink:href="#f1_l" transform="matrix(11,0,0,11,147.9,493.8)" />
<use xlink:href="#f1_2" transform="matrix(11,0,0,11,156.9,493.8)" />
<use xlink:href="#f1_g" transform="matrix(11,0,0,11,164.2,493.8)" />
<use xlink:href="#f1_h" transform="matrix(11,0,0,11,170.8,493.8)" />
<use xlink:href="#f1_f" transform="matrix(11,0,0,11,175.5,493.8)" />
<use xlink:href="#f1_e" transform="matrix(11,0,0,11,183.9,493.8)" />
<use xlink:href="#f1_4" transform="matrix(11,0,0,11,192.1,493.8)" />
<use xlink:href="#f1_m" transform="matrix(11,0,0,11,196.9,493.8)" />
<use xlink:href="#f1_v" transform="matrix(11,0,0,11,208.6,493.8)" />
<use xlink:href="#f1_4" transform="matrix(11,0,0,11,216.8,493.8)" />
<use xlink:href="#f1_2" transform="matrix(11,0,0,11,221.6,493.8)" />
<use xlink:href="#f1_a" transform="matrix(11,0,0,11,229,493.8)" />
<use xlink:href="#f1_o" transform="matrix(11,0,0,11,237.4,493.8)" />
<use xlink:href="#f0_j" transform="matrix(12,0,0,12,673.8,517.3)" />
<use xlink:href="#f0_l" transform="matrix(12,0,0,12,679.6,517.3)" />
<use xlink:href="#f0_a" transform="matrix(12,0,0,12,691,517.3)" />
<use xlink:href="#f0_6" transform="matrix(12,0,0,12,707.2,517.3)" />
<use xlink:href="#f0_7" transform="matrix(12,0,0,12,719.4,517.3)" />
<use xlink:href="#f0_b" transform="matrix(12,0,0,12,723.5,517.3)" />
<use xlink:href="#f0_a" transform="matrix(12,0,0,12,734.2,517.3)" />
<use xlink:href="#f0_6" transform="matrix(12,0,0,12,750.5,517.3)" />
<use xlink:href="#f0_9" transform="matrix(12,0,0,12,762.8,517.3)" />
<use xlink:href="#f1_d" transform="matrix(11,0,0,11,137.7,515.9)" />
<use xlink:href="#f1_l" transform="matrix(11,0,0,11,147.9,515.9)" />
<use xlink:href="#f1_l" transform="matrix(11,0,0,11,152.6,515.9)" />
<use xlink:href="#f1_8" transform="matrix(11,0,0,11,157.3,515.9)" />
<use xlink:href="#f1_g" transform="matrix(11,0,0,11,165.6,515.9)" />
<use xlink:href="#f1_5" transform="matrix(11,0,0,11,176.4,515.9)" />
<use xlink:href="#f1_8" transform="matrix(11,0,0,11,183.9,515.9)" />
<use xlink:href="#f1_3" transform="matrix(11,0,0,11,192.1,515.9)" />
<use xlink:href="#f1_3" transform="matrix(11,0,0,11,197.7,515.9)" />
<use xlink:href="#f1_2" transform="matrix(11,0,0,11,203.4,515.9)" />
<use xlink:href="#f1_a" transform="matrix(11,0,0,11,210.8,515.9)" />
<use xlink:href="#f1_p" transform="matrix(11,0,0,11,223.4,515.9)" />
<use xlink:href="#f1_m" transform="matrix(11,0,0,11,236.5,515.9)" />
<use xlink:href="#f1_l" transform="matrix(11,0,0,11,243.8,515.9)" />
<use xlink:href="#f1_o" transform="matrix(11,0,0,11,248.5,515.9)" />
<use xlink:href="#f0_j" transform="matrix(12,0,0,12,650.2,539.5)" />
<use xlink:href="#f0_f" transform="matrix(12,0,0,12,656,539.5)" />
<use xlink:href="#f0_c" transform="matrix(12,0,0,12,666.6,539.5)" />
<use xlink:href="#f0_w" transform="matrix(12,0,0,12,671.6,539.5)" />
<use xlink:href="#f0_6" transform="matrix(12,0,0,12,689.3,539.5)" />
<use xlink:href="#f0_7" transform="matrix(12,0,0,12,701.5,539.5)" />
<use xlink:href="#f0_g" transform="matrix(12,0,0,12,705.6,539.5)" />
<use xlink:href="#f0_n" transform="matrix(12,0,0,12,717.5,539.5)" />
<use xlink:href="#f0_c" transform="matrix(12,0,0,12,730.8,539.5)" />
<use xlink:href="#f0_n" transform="matrix(12,0,0,12,735.8,539.5)" />
<use xlink:href="#f0_g" transform="matrix(12,0,0,12,743.2,539.5)" />
<use xlink:href="#f0_n" transform="matrix(12,0,0,12,755.1,539.5)" />
<use xlink:href="#f0_d" transform="matrix(12,0,0,12,762.4,539.5)" />
<use xlink:href="#f1_13" transform="matrix(11,0,0,11,137.7,538.1)" />
<use xlink:href="#f1_2" transform="matrix(11,0,0,11,149.7,538.1)" />
<use xlink:href="#f1_g" transform="matrix(11,0,0,11,157.2,538.1)" />
<use xlink:href="#f1_5" transform="matrix(11,0,0,11,163.7,538.1)" />
<use xlink:href="#f1_m" transform="matrix(11,0,0,11,171.2,538.1)" />
<use xlink:href="#f1_a" transform="matrix(11,0,0,11,178.7,538.1)" />
<use xlink:href="#f1_g" transform="matrix(11,0,0,11,187.1,538.1)" />
<use xlink:href="#f1_m" transform="matrix(11,0,0,11,193.6,538.1)" />
<use xlink:href="#f1_p" transform="matrix(11,0,0,11,200.9,538.1)" />
<use xlink:href="#f1_8" transform="matrix(11,0,0,11,214.1,538.1)" />
<use xlink:href="#f1_g" transform="matrix(11,0,0,11,222.5,538.1)" />
<use xlink:href="#f1_v" transform="matrix(11,0,0,11,233.3,538.1)" />
<use xlink:href="#f1_4" transform="matrix(11,0,0,11,241.5,538.1)" />
<use xlink:href="#f1_2" transform="matrix(11,0,0,11,246.3,538.1)" />
<use xlink:href="#f1_a" transform="matrix(11,0,0,11,253.7,538.1)" />
<use xlink:href="#f1_o" transform="matrix(11,0,0,11,262.1,538.1)" />
</g>
<g fill="#0000FF" >
<use xlink:href="#f0_p" transform="matrix(12,0,0,12,669.9,561.6)" />
<use xlink:href="#f0_a" transform="matrix(12,0,0,12,682.9,561.6)" />
<use xlink:href="#f0_m" transform="matrix(12,0,0,12,693.1,561.6)" />
<use xlink:href="#f0_3" transform="matrix(12,0,0,12,704.6,561.6)" />
<use xlink:href="#f0_9" transform="matrix(12,0,0,12,720.9,561.6)" />
<use xlink:href="#f0_a" transform="matrix(12,0,0,12,732.8,561.6)" />
<use xlink:href="#f0_o" transform="matrix(12,0,0,12,743.2,561.6)" />
<use xlink:href="#f0_g" transform="matrix(12,0,0,12,749.6,561.6)" />
<use xlink:href="#f0_f" transform="matrix(12,0,0,12,761.5,561.6)" />
</g>
</g>
<path d="M664,563.4H772.1" class="g2_19" />
<g clip-path="url(#c0_19)">
<g fill="#000000" >
<use xlink:href="#f2_n" transform="matrix(12,0,0,12,723.8,621.7)" />
<use xlink:href="#f2_d" transform="matrix(12,0,0,12,735,621.7)" />
<use xlink:href="#f2_o" transform="matrix(12,0,0,12,740.3,621.7)" />
<use xlink:href="#f2_4" transform="matrix(12,0,0,12,748.6,621.7)" />
<use xlink:href="#f2_p" transform="matrix(12,0,0,12,759.6,621.7)" />
<use xlink:href="#f2_6" transform="matrix(12,0,0,12,704.6,621.7)" />
</g>
</g>
<path d="M236.9,626.5H761.7M128.6,667.9H761.7M128.6,688H761.7M128.6,708H761.7M128.6,728.2H761.7m-633.1,20H761.7M128.6,768.4H761.7M128.9,667.5V768.8M237.3,626.1V768.8m119,-142.7V768.8M508,626.1V768.8M637.8,626.1V768.8M761.3,626.1V768.8" class="g1_19" />
<g clip-path="url(#c0_19)">
<g fill="#000000" >
<use xlink:href="#f0_p" transform="matrix(12,0,0,12,701.9,643.8)" />
<use xlink:href="#f0_c" transform="matrix(12,0,0,12,714.8,643.8)" />
<use xlink:href="#f0_g" transform="matrix(12,0,0,12,719.9,643.8)" />
<use xlink:href="#f0_b" transform="matrix(12,0,0,12,731.8,643.8)" />
<use xlink:href="#f0_3" transform="matrix(12,0,0,12,742.6,643.8)" />
<use xlink:href="#f1_3" transform="matrix(11,0,0,11,646.7,663.8)" />
<use xlink:href="#f1_2" transform="matrix(11,0,0,11,652.2,663.8)" />
<use xlink:href="#f1_q" transform="matrix(11,0,0,11,659.7,663.8)" />
<use xlink:href="#f1_3" transform="matrix(11,0,0,11,664.4,663.8)" />
<use xlink:href="#f0_2" transform="matrix(12,0,0,12,589.4,643.8)" />
<use xlink:href="#f0_7" transform="matrix(12,0,0,12,599.2,643.8)" />
<use xlink:href="#f0_7" transform="matrix(12,0,0,12,603.3,643.8)" />
<use xlink:href="#f0_g" transform="matrix(12,0,0,12,607.4,643.8)" />
<use xlink:href="#f0_3" transform="matrix(12,0,0,12,619.3,643.8)" />
<use xlink:href="#f1_g" transform="matrix(11,0,0,11,516.7,663.8)" />
<use xlink:href="#f1_8" transform="matrix(11,0,0,11,523.2,663.8)" />
<use xlink:href="#f1_a" transform="matrix(11,0,0,11,531.7,663.8)" />
<use xlink:href="#f1_3" transform="matrix(11,0,0,11,540.1,663.8)" />
<use xlink:href="#f1_2" transform="matrix(11,0,0,11,545.7,663.8)" />
<use xlink:href="#f1_q" transform="matrix(11,0,0,11,553,663.8)" />
<use xlink:href="#f1_3" transform="matrix(11,0,0,11,557.7,663.8)" />
<use xlink:href="#f0_4" transform="matrix(12,0,0,12,439.4,643.8)" />
<use xlink:href="#f0_7" transform="matrix(12,0,0,12,452.4,643.8)" />
<use xlink:href="#f0_f" transform="matrix(12,0,0,12,456.5,643.8)" />
<use xlink:href="#f0_3" transform="matrix(12,0,0,12,467,643.8)" />
<use xlink:href="#f0_9" transform="matrix(12,0,0,12,477.4,643.8)" />
<use xlink:href="#f0_3" transform="matrix(12,0,0,12,489.3,643.8)" />
<use xlink:href="#f1_s" transform="matrix(11,0,0,11,365.1,663.8)" />
<use xlink:href="#f1_2" transform="matrix(11,0,0,11,373.5,663.8)" />
<use xlink:href="#f1_g" transform="matrix(11,0,0,11,380.9,663.8)" />
<use xlink:href="#f1_h" transform="matrix(11,0,0,11,387.4,663.8)" />
<use xlink:href="#f1_4" transform="matrix(11,0,0,11,392.1,663.8)" />
<use xlink:href="#f1_3" transform="matrix(11,0,0,11,396.7,663.8)" />
<use xlink:href="#f0_w" transform="matrix(12,0,0,12,285.4,643.8)" />
<use xlink:href="#f0_7" transform="matrix(12,0,0,12,297.3,643.8)" />
<use xlink:href="#f0_4" transform="matrix(12,0,0,12,301.4,643.8)" />
<use xlink:href="#f0_m" transform="matrix(12,0,0,12,314.4,643.8)" />
<use xlink:href="#f0_9" transform="matrix(12,0,0,12,325.8,643.8)" />
<use xlink:href="#f0_3" transform="matrix(12,0,0,12,337.7,643.8)" />
<use xlink:href="#f1_e" transform="matrix(11,0,0,11,246.1,663.8)" />
<use xlink:href="#f1_2" transform="matrix(11,0,0,11,254.5,663.8)" />
<use xlink:href="#f1_g" transform="matrix(11,0,0,11,261.9,663.8)" />
<use xlink:href="#f1_s" transform="matrix(11,0,0,11,268.4,663.8)" />
<use xlink:href="#f1_2" transform="matrix(11,0,0,11,276.8,663.8)" />
<use xlink:href="#f1_g" transform="matrix(11,0,0,11,284.3,663.8)" />
<use xlink:href="#f1_h" transform="matrix(11,0,0,11,290.8,663.8)" />
<use xlink:href="#f1_4" transform="matrix(11,0,0,11,295.4,663.8)" />
<use xlink:href="#f1_3" transform="matrix(11,0,0,11,300.1,663.8)" />
<use xlink:href="#f1_3" transform="matrix(11,0,0,11,646.7,684)" />
<use xlink:href="#f1_q" transform="matrix(11,0,0,11,652.2,684)" />
<use xlink:href="#f1_8" transform="matrix(11,0,0,11,656.9,684)" />
<use xlink:href="#f1_g" transform="matrix(11,0,0,11,516.7,684)" />
<use xlink:href="#f1_8" transform="matrix(11,0,0,11,523.2,684)" />
<use xlink:href="#f1_a" transform="matrix(11,0,0,11,531.7,684)" />
<use xlink:href="#f1_3" transform="matrix(11,0,0,11,540.1,684)" />
<use xlink:href="#f1_q" transform="matrix(11,0,0,11,545.5,684)" />
<use xlink:href="#f1_8" transform="matrix(11,0,0,11,550.3,684)" />
<use xlink:href="#f1_s" transform="matrix(11,0,0,11,365.1,684)" />
<use xlink:href="#f1_4" transform="matrix(11,0,0,11,373.4,684)" />
<use xlink:href="#f1_g" transform="matrix(11,0,0,11,378.1,684)" />
<use xlink:href="#f1_h" transform="matrix(11,0,0,11,384.7,684)" />
<use xlink:href="#f1_8" transform="matrix(11,0,0,11,389.4,684)" />
<use xlink:href="#f1_e" transform="matrix(11,0,0,11,246.1,684)" />
<use xlink:href="#f1_2" transform="matrix(11,0,0,11,254.5,684)" />
<use xlink:href="#f1_g" transform="matrix(11,0,0,11,261.9,684)" />
<use xlink:href="#f1_s" transform="matrix(11,0,0,11,268.4,684)" />
<use xlink:href="#f1_4" transform="matrix(11,0,0,11,276.8,684)" />
<use xlink:href="#f1_g" transform="matrix(11,0,0,11,281.5,684)" />
<use xlink:href="#f1_h" transform="matrix(11,0,0,11,288,684)" />
<use xlink:href="#f1_8" transform="matrix(11,0,0,11,292.7,684)" />
<use xlink:href="#f1_7" transform="matrix(11,0,0,11,137.7,684)" />
<use xlink:href="#f1_8" transform="matrix(11,0,0,11,146.1,684)" />
<use xlink:href="#f1_3" transform="matrix(11,0,0,11,646.7,704)" />
<use xlink:href="#f1_q" transform="matrix(11,0,0,11,652.2,704)" />
<use xlink:href="#f1_2" transform="matrix(11,0,0,11,656.9,704)" />
<use xlink:href="#f1_g" transform="matrix(11,0,0,11,664.4,704)" />
<use xlink:href="#f1_g" transform="matrix(11,0,0,11,516.7,704)" />
<use xlink:href="#f1_8" transform="matrix(11,0,0,11,523.2,704)" />
<use xlink:href="#f1_a" transform="matrix(11,0,0,11,531.7,704)" />
<use xlink:href="#f1_3" transform="matrix(11,0,0,11,540.1,704)" />
<use xlink:href="#f1_q" transform="matrix(11,0,0,11,545.5,704)" />
<use xlink:href="#f1_2" transform="matrix(11,0,0,11,550.3,704)" />
<use xlink:href="#f1_g" transform="matrix(11,0,0,11,557.7,704)" />
<use xlink:href="#f1_s" transform="matrix(11,0,0,11,365.1,704)" />
<use xlink:href="#f1_4" transform="matrix(11,0,0,11,373.4,704)" />
<use xlink:href="#f1_g" transform="matrix(11,0,0,11,378.1,704)" />
<use xlink:href="#f1_h" transform="matrix(11,0,0,11,384.7,704)" />
<use xlink:href="#f1_2" transform="matrix(11,0,0,11,389.4,704)" />
<use xlink:href="#f1_g" transform="matrix(11,0,0,11,396.7,704)" />
<use xlink:href="#f1_e" transform="matrix(11,0,0,11,246.1,704)" />
<use xlink:href="#f1_2" transform="matrix(11,0,0,11,254.5,704)" />
<use xlink:href="#f1_g" transform="matrix(11,0,0,11,261.9,704)" />
<use xlink:href="#f1_s" transform="matrix(11,0,0,11,268.4,704)" />
<use xlink:href="#f1_4" transform="matrix(11,0,0,11,276.8,704)" />
<use xlink:href="#f1_g" transform="matrix(11,0,0,11,281.5,704)" />
<use xlink:href="#f1_h" transform="matrix(11,0,0,11,288,704)" />
<use xlink:href="#f1_2" transform="matrix(11,0,0,11,292.7,704)" />
<use xlink:href="#f1_g" transform="matrix(11,0,0,11,300.1,704)" />
<use xlink:href="#f1_h" transform="matrix(11,0,0,11,137.7,704)" />
<use xlink:href="#f1_i" transform="matrix(11,0,0,11,142.4,704)" />
<use xlink:href="#f1_3" transform="matrix(11,0,0,11,646.7,724.2)" />
<use xlink:href="#f1_q" transform="matrix(11,0,0,11,652.2,724.2)" />
<use xlink:href="#f1_2" transform="matrix(11,0,0,11,656.9,724.2)" />
<use xlink:href="#f1_g" transform="matrix(11,0,0,11,516.7,724.2)" />
<use xlink:href="#f1_8" transform="matrix(11,0,0,11,523.2,724.2)" />
<use xlink:href="#f1_a" transform="matrix(11,0,0,11,531.7,724.2)" />
<use xlink:href="#f1_3" transform="matrix(11,0,0,11,540.1,724.2)" />
<use xlink:href="#f1_q" transform="matrix(11,0,0,11,545.5,724.2)" />
<use xlink:href="#f1_2" transform="matrix(11,0,0,11,550.3,724.2)" />
<use xlink:href="#f1_s" transform="matrix(11,0,0,11,365.1,724.2)" />
<use xlink:href="#f1_4" transform="matrix(11,0,0,11,373.4,724.2)" />
<use xlink:href="#f1_g" transform="matrix(11,0,0,11,378.1,724.2)" />
<use xlink:href="#f1_h" transform="matrix(11,0,0,11,384.7,724.2)" />
<use xlink:href="#f1_2" transform="matrix(11,0,0,11,389.4,724.2)" />
<use xlink:href="#f1_e" transform="matrix(11,0,0,11,246.1,724.2)" />
<use xlink:href="#f1_2" transform="matrix(11,0,0,11,254.5,724.2)" />
<use xlink:href="#f1_g" transform="matrix(11,0,0,11,261.9,724.2)" />
<use xlink:href="#f1_s" transform="matrix(11,0,0,11,268.4,724.2)" />
<use xlink:href="#f1_4" transform="matrix(11,0,0,11,276.8,724.2)" />
<use xlink:href="#f1_g" transform="matrix(11,0,0,11,281.5,724.2)" />
<use xlink:href="#f1_h" transform="matrix(11,0,0,11,288,724.2)" />
<use xlink:href="#f1_2" transform="matrix(11,0,0,11,292.7,724.2)" />
<use xlink:href="#f1_k" transform="matrix(11,0,0,11,137.7,724.2)" />
<use xlink:href="#f1_l" transform="matrix(11,0,0,11,145.1,724.2)" />
<use xlink:href="#f1_6" transform="matrix(11,0,0,11,149.7,724.2)" />
<use xlink:href="#f1_2" transform="matrix(11,0,0,11,154.4,724.2)" />
<use xlink:href="#f1_l" transform="matrix(11,0,0,11,161.9,724.2)" />
<use xlink:href="#f1_l" transform="matrix(11,0,0,11,166.5,724.2)" />
<use xlink:href="#f1_m" transform="matrix(11,0,0,11,171.2,724.2)" />
<use xlink:href="#f1_6" transform="matrix(11,0,0,11,178.7,724.2)" />
<use xlink:href="#f1_n" transform="matrix(11,0,0,11,183.4,724.2)" />
<use xlink:href="#f1_e" transform="matrix(11,0,0,11,195.4,724.2)" />
<use xlink:href="#f1_o" transform="matrix(11,0,0,11,203.8,724.2)" />
<use xlink:href="#f1_3" transform="matrix(11,0,0,11,646.7,744.2)" />
<use xlink:href="#f1_2" transform="matrix(11,0,0,11,652.2,744.2)" />
<use xlink:href="#f1_q" transform="matrix(11,0,0,11,659.7,744.2)" />
<use xlink:href="#f1_p" transform="matrix(11,0,0,11,664.3,744.2)" />
<use xlink:href="#f1_8" transform="matrix(11,0,0,11,677.4,744.2)" />
<use xlink:href="#f1_g" transform="matrix(11,0,0,11,685.8,744.2)" />
<use xlink:href="#f1_g" transform="matrix(11,0,0,11,516.7,744.2)" />
<use xlink:href="#f1_8" transform="matrix(11,0,0,11,523.2,744.2)" />
<use xlink:href="#f1_a" transform="matrix(11,0,0,11,531.7,744.2)" />
<use xlink:href="#f1_3" transform="matrix(11,0,0,11,540.1,744.2)" />
<use xlink:href="#f1_2" transform="matrix(11,0,0,11,545.7,744.2)" />
<use xlink:href="#f1_q" transform="matrix(11,0,0,11,553,744.2)" />
<use xlink:href="#f1_p" transform="matrix(11,0,0,11,557.7,744.2)" />
<use xlink:href="#f1_8" transform="matrix(11,0,0,11,570.9,744.2)" />
<use xlink:href="#f1_g" transform="matrix(11,0,0,11,579.3,744.2)" />
<use xlink:href="#f1_s" transform="matrix(11,0,0,11,365.1,744.2)" />
<use xlink:href="#f1_2" transform="matrix(11,0,0,11,373.5,744.2)" />
<use xlink:href="#f1_g" transform="matrix(11,0,0,11,380.9,744.2)" />
<use xlink:href="#f1_h" transform="matrix(11,0,0,11,387.4,744.2)" />
<use xlink:href="#f1_4" transform="matrix(11,0,0,11,392.1,744.2)" />
<use xlink:href="#f1_p" transform="matrix(11,0,0,11,396.7,744.2)" />
<use xlink:href="#f1_8" transform="matrix(11,0,0,11,409.9,744.2)" />
<use xlink:href="#f1_g" transform="matrix(11,0,0,11,418.3,744.2)" />
<use xlink:href="#f1_e" transform="matrix(11,0,0,11,246.1,744.2)" />
<use xlink:href="#f1_2" transform="matrix(11,0,0,11,254.5,744.2)" />
<use xlink:href="#f1_g" transform="matrix(11,0,0,11,261.9,744.2)" />
<use xlink:href="#f1_s" transform="matrix(11,0,0,11,268.4,744.2)" />
<use xlink:href="#f1_2" transform="matrix(11,0,0,11,276.8,744.2)" />
<use xlink:href="#f1_g" transform="matrix(11,0,0,11,284.3,744.2)" />
<use xlink:href="#f1_h" transform="matrix(11,0,0,11,290.8,744.2)" />
<use xlink:href="#f1_4" transform="matrix(11,0,0,11,295.4,744.2)" />
<use xlink:href="#f1_p" transform="matrix(11,0,0,11,300.1,744.2)" />
<use xlink:href="#f1_8" transform="matrix(11,0,0,11,313.3,744.2)" />
<use xlink:href="#f1_g" transform="matrix(11,0,0,11,321.7,744.2)" />
<use xlink:href="#f1_a" transform="matrix(11,0,0,11,137.7,744.2)" />
<use xlink:href="#f1_8" transform="matrix(11,0,0,11,146.1,744.2)" />
<use xlink:href="#f1_g" transform="matrix(11,0,0,11,154.5,744.2)" />
<use xlink:href="#f1_8" transform="matrix(11,0,0,11,161,744.2)" />
<use xlink:href="#f1_h" transform="matrix(11,0,0,11,169.4,744.2)" />
<use xlink:href="#f1_3" transform="matrix(11,0,0,11,174,744.2)" />
<use xlink:href="#f1_8" transform="matrix(11,0,0,11,179.6,744.2)" />
<use xlink:href="#f1_g" transform="matrix(11,0,0,11,188,744.2)" />
<use xlink:href="#f1_6" transform="matrix(11,0,0,11,194.6,744.2)" />
<use xlink:href="#f1_m" transform="matrix(11,0,0,11,199.3,744.2)" />
<use xlink:href="#f1_g" transform="matrix(11,0,0,11,206.6,744.2)" />
<use xlink:href="#f1_3" transform="matrix(11,0,0,11,646.7,764.3)" />
<use xlink:href="#f1_q" transform="matrix(11,0,0,11,652.2,764.3)" />
<use xlink:href="#f1_2" transform="matrix(11,0,0,11,656.9,764.3)" />
<use xlink:href="#f1_a" transform="matrix(11,0,0,11,664.4,764.3)" />
<use xlink:href="#f1_g" transform="matrix(11,0,0,11,516.7,764.3)" />
<use xlink:href="#f1_8" transform="matrix(11,0,0,11,523.2,764.3)" />
<use xlink:href="#f1_a" transform="matrix(11,0,0,11,531.7,764.3)" />
<use xlink:href="#f1_3" transform="matrix(11,0,0,11,540.1,764.3)" />
<use xlink:href="#f1_q" transform="matrix(11,0,0,11,545.5,764.3)" />
<use xlink:href="#f1_2" transform="matrix(11,0,0,11,550.3,764.3)" />
<use xlink:href="#f1_a" transform="matrix(11,0,0,11,557.7,764.3)" />
<use xlink:href="#f1_s" transform="matrix(11,0,0,11,365.1,764.3)" />
<use xlink:href="#f1_4" transform="matrix(11,0,0,11,373.4,764.3)" />
<use xlink:href="#f1_g" transform="matrix(11,0,0,11,378.1,764.3)" />
<use xlink:href="#f1_h" transform="matrix(11,0,0,11,384.7,764.3)" />
<use xlink:href="#f1_2" transform="matrix(11,0,0,11,389.4,764.3)" />
<use xlink:href="#f1_a" transform="matrix(11,0,0,11,396.9,764.3)" />
<use xlink:href="#f1_e" transform="matrix(11,0,0,11,246.1,764.3)" />
<use xlink:href="#f1_2" transform="matrix(11,0,0,11,254.5,764.3)" />
<use xlink:href="#f1_g" transform="matrix(11,0,0,11,261.9,764.3)" />
<use xlink:href="#f1_s" transform="matrix(11,0,0,11,268.4,764.3)" />
<use xlink:href="#f1_4" transform="matrix(11,0,0,11,276.8,764.3)" />
<use xlink:href="#f1_g" transform="matrix(11,0,0,11,281.5,764.3)" />
<use xlink:href="#f1_h" transform="matrix(11,0,0,11,288,764.3)" />
<use xlink:href="#f1_2" transform="matrix(11,0,0,11,292.7,764.3)" />
<use xlink:href="#f1_a" transform="matrix(11,0,0,11,300.1,764.3)" />
<use xlink:href="#f1_2" transform="matrix(11,0,0,11,137.7,764.3)" />
<use xlink:href="#f1_l" transform="matrix(11,0,0,11,145.1,764.3)" />
<use xlink:href="#f1_l" transform="matrix(11,0,0,11,149.7,764.3)" />
<use xlink:href="#f1_8" transform="matrix(11,0,0,11,154.4,764.3)" />
<use xlink:href="#f1_g" transform="matrix(11,0,0,11,162.8,764.3)" />
<use xlink:href="#f1_6" transform="matrix(11,0,0,11,169.4,764.3)" />
<use xlink:href="#f1_m" transform="matrix(11,0,0,11,174.1,764.3)" />
<use xlink:href="#f1_g" transform="matrix(11,0,0,11,181.4,764.3)" />
<use xlink:href="#f1_6" transform="matrix(11,0,0,11,188,764.3)" />
<use xlink:href="#f1_n" transform="matrix(11,0,0,11,192.7,764.3)" />
<use xlink:href="#f1_e" transform="matrix(11,0,0,11,204.8,764.3)" />
<use xlink:href="#f1_g" transform="matrix(11,0,0,11,213.2,764.3)" />
<use xlink:href="#f1_o" transform="matrix(11,0,0,11,219.7,764.3)" />
</g>
<g fill="#0000FF" >
<use xlink:href="#f0_p" transform="matrix(12,0,0,12,669.9,785.7)" />
<use xlink:href="#f0_a" transform="matrix(12,0,0,12,682.9,785.7)" />
<use xlink:href="#f0_m" transform="matrix(12,0,0,12,693.1,785.7)" />
<use xlink:href="#f0_3" transform="matrix(12,0,0,12,704.6,785.7)" />
<use xlink:href="#f0_9" transform="matrix(12,0,0,12,720.9,785.7)" />
<use xlink:href="#f0_a" transform="matrix(12,0,0,12,732.8,785.7)" />
<use xlink:href="#f0_o" transform="matrix(12,0,0,12,743.2,785.7)" />
<use xlink:href="#f0_g" transform="matrix(12,0,0,12,749.6,785.7)" />
<use xlink:href="#f0_f" transform="matrix(12,0,0,12,761.5,785.7)" />
</g>
</g>
<path d="M669.8,787.6H772.1" class="g2_19" />
<g clip-path="url(#c0_19)">
<g fill="#000000" >
<use xlink:href="#f2_n" transform="matrix(12,0,0,12,723.8,845.8)" />
<use xlink:href="#f2_d" transform="matrix(12,0,0,12,735,845.8)" />
<use xlink:href="#f2_o" transform="matrix(12,0,0,12,740.3,845.8)" />
<use xlink:href="#f2_4" transform="matrix(12,0,0,12,748.6,845.8)" />
<use xlink:href="#f2_p" transform="matrix(12,0,0,12,759.6,845.8)" />
<use xlink:href="#f2_10" transform="matrix(12,0,0,12,704.6,845.8)" />
</g>
</g>
<path d="M128.6,850.6H681.5M128.6,872.7H681.5M128.6,894.9H681.5M128.6,917H681.5M128.6,939.2H681.5M128.6,961.4H681.5M128.6,983.5H681.5M128.9,850.2V983.9M248.1,850.2V983.9m119,-133.7V983.9M486.3,850.2V983.9M681.1,850.2V983.9" class="g1_19" />
<g clip-path="url(#c0_19)">
<g fill="#000000" >
<use xlink:href="#f0_6" transform="matrix(12,0,0,12,625.6,867.9)" />
<use xlink:href="#f0_c" transform="matrix(12,0,0,12,637.8,867.9)" />
<use xlink:href="#f0_k" transform="matrix(12,0,0,12,642.9,867.9)" />
<use xlink:href="#f0_a" transform="matrix(12,0,0,12,650.3,867.9)" />
<use xlink:href="#f0_e" transform="matrix(12,0,0,12,660.7,867.9)" />
<use xlink:href="#f1_h" transform="matrix(11,0,0,11,376,866.6)" />
<use xlink:href="#f1_i" transform="matrix(11,0,0,11,380.6,866.6)" />
<use xlink:href="#f1_a" transform="matrix(11,0,0,11,256.8,866.6)" />
<use xlink:href="#f1_8" transform="matrix(11,0,0,11,265.2,866.6)" />
<use xlink:href="#f1_g" transform="matrix(11,0,0,11,273.6,866.6)" />
<use xlink:href="#f1_8" transform="matrix(11,0,0,11,280.2,866.6)" />
<use xlink:href="#f1_h" transform="matrix(11,0,0,11,288.6,866.6)" />
<use xlink:href="#f1_3" transform="matrix(11,0,0,11,293.2,866.6)" />
<use xlink:href="#f1_8" transform="matrix(11,0,0,11,298.8,866.6)" />
<use xlink:href="#f1_g" transform="matrix(11,0,0,11,307.2,866.6)" />
<use xlink:href="#f0_3" transform="matrix(12,0,0,12,189.6,867.9)" />
<use xlink:href="#f0_l" transform="matrix(12,0,0,12,200,867.9)" />
<use xlink:href="#f0_c" transform="matrix(12,0,0,12,211.5,867.9)" />
<use xlink:href="#f0_m" transform="matrix(12,0,0,12,216.5,867.9)" />
<use xlink:href="#f0_9" transform="matrix(12,0,0,12,227.9,867.9)" />
<use xlink:href="#f0_e" transform="matrix(12,0,0,12,599,890.1)" />
<use xlink:href="#f0_c" transform="matrix(12,0,0,12,611.1,890.1)" />
<use xlink:href="#f0_a" transform="matrix(12,0,0,12,616.1,890.1)" />
<use xlink:href="#f0_g" transform="matrix(12,0,0,12,626.5,890.1)" />
<use xlink:href="#f0_e" transform="matrix(12,0,0,12,638.4,890.1)" />
<use xlink:href="#f0_9" transform="matrix(12,0,0,12,650.4,890.1)" />
<use xlink:href="#f0_3" transform="matrix(12,0,0,12,662.4,890.1)" />
<use xlink:href="#f1_5" transform="matrix(11,0,0,11,376,888.7)" />
<use xlink:href="#f1_8" transform="matrix(11,0,0,11,383.4,888.7)" />
<use xlink:href="#f1_p" transform="matrix(11,0,0,11,391.7,888.7)" />
<use xlink:href="#f1_u" transform="matrix(11,0,0,11,404.8,888.7)" />
<use xlink:href="#f1_4" transform="matrix(11,0,0,11,413.2,888.7)" />
<use xlink:href="#f1_h" transform="matrix(11,0,0,11,417.8,888.7)" />
<use xlink:href="#f1_2" transform="matrix(11,0,0,11,422.5,888.7)" />
<use xlink:href="#f1_g" transform="matrix(11,0,0,11,430,888.7)" />
<use xlink:href="#f1_5" transform="matrix(11,0,0,11,256.8,888.7)" />
<use xlink:href="#f1_8" transform="matrix(11,0,0,11,264.3,888.7)" />
<use xlink:href="#f1_p" transform="matrix(11,0,0,11,272.7,888.7)" />
<use xlink:href="#f1_u" transform="matrix(11,0,0,11,285.8,888.7)" />
<use xlink:href="#f1_2" transform="matrix(11,0,0,11,294.2,888.7)" />
<use xlink:href="#f1_h" transform="matrix(11,0,0,11,301.5,888.7)" />
<use xlink:href="#f1_4" transform="matrix(11,0,0,11,306.3,888.7)" />
<use xlink:href="#f1_p" transform="matrix(11,0,0,11,310.8,888.7)" />
<use xlink:href="#f1_8" transform="matrix(11,0,0,11,324,888.7)" />
<use xlink:href="#f1_g" transform="matrix(11,0,0,11,332.4,888.7)" />
<use xlink:href="#f1_5" transform="matrix(11,0,0,11,137.7,888.7)" />
<use xlink:href="#f1_8" transform="matrix(11,0,0,11,145.1,888.7)" />
<use xlink:href="#f1_p" transform="matrix(11,0,0,11,153.5,888.7)" />
<use xlink:href="#f1_u" transform="matrix(11,0,0,11,166.6,888.7)" />
<use xlink:href="#f1_2" transform="matrix(11,0,0,11,175,888.7)" />
<use xlink:href="#f1_h" transform="matrix(11,0,0,11,182.4,888.7)" />
<use xlink:href="#f1_4" transform="matrix(11,0,0,11,187.1,888.7)" />
<use xlink:href="#f1_3" transform="matrix(11,0,0,11,191.7,888.7)" />
<use xlink:href="#f0_q" transform="matrix(12,0,0,12,624.9,912.2)" />
<use xlink:href="#f0_c" transform="matrix(12,0,0,12,634.9,912.2)" />
<use xlink:href="#f0_q" transform="matrix(12,0,0,12,639.9,912.2)" />
<use xlink:href="#f0_8" transform="matrix(12,0,0,12,649.9,912.2)" />
<use xlink:href="#f0_3" transform="matrix(12,0,0,12,662.4,912.2)" />
<use xlink:href="#f1_p" transform="matrix(11,0,0,11,376,910.9)" />
<use xlink:href="#f1_4" transform="matrix(11,0,0,11,389,910.9)" />
<use xlink:href="#f1_e" transform="matrix(11,0,0,11,393.7,910.9)" />
<use xlink:href="#f1_2" transform="matrix(11,0,0,11,402.1,910.9)" />
<use xlink:href="#f1_g" transform="matrix(11,0,0,11,409.6,910.9)" />
<use xlink:href="#f1_p" transform="matrix(11,0,0,11,256.8,910.9)" />
<use xlink:href="#f1_2" transform="matrix(11,0,0,11,269.9,910.9)" />
<use xlink:href="#f1_e" transform="matrix(11,0,0,11,277.4,910.9)" />
<use xlink:href="#f1_4" transform="matrix(11,0,0,11,285.7,910.9)" />
<use xlink:href="#f1_p" transform="matrix(11,0,0,11,290.4,910.9)" />
<use xlink:href="#f1_8" transform="matrix(11,0,0,11,303.5,910.9)" />
<use xlink:href="#f1_g" transform="matrix(11,0,0,11,311.9,910.9)" />
<use xlink:href="#f1_p" transform="matrix(11,0,0,11,137.7,910.9)" />
<use xlink:href="#f1_2" transform="matrix(11,0,0,11,150.8,910.9)" />
<use xlink:href="#f1_e" transform="matrix(11,0,0,11,158.2,910.9)" />
<use xlink:href="#f1_4" transform="matrix(11,0,0,11,166.5,910.9)" />
<use xlink:href="#f1_3" transform="matrix(11,0,0,11,171.2,910.9)" />
<use xlink:href="#f0_e" transform="matrix(12,0,0,12,627,934.4)" />
<use xlink:href="#f0_a" transform="matrix(12,0,0,12,639,934.4)" />
<use xlink:href="#f0_4" transform="matrix(12,0,0,12,649.4,934.4)" />
<use xlink:href="#f0_3" transform="matrix(12,0,0,12,662.4,934.4)" />
<use xlink:href="#f1_g" transform="matrix(11,0,0,11,376,933)" />
<use xlink:href="#f1_4" transform="matrix(11,0,0,11,382.4,933)" />
<use xlink:href="#f1_3" transform="matrix(11,0,0,11,387.1,933)" />
<use xlink:href="#f1_s" transform="matrix(11,0,0,11,392.8,933)" />
<use xlink:href="#f1_2" transform="matrix(11,0,0,11,401.2,933)" />
<use xlink:href="#f1_g" transform="matrix(11,0,0,11,408.6,933)" />
<use xlink:href="#f1_g" transform="matrix(11,0,0,11,256.8,933)" />
<use xlink:href="#f1_2" transform="matrix(11,0,0,11,263.4,933)" />
<use xlink:href="#f1_3" transform="matrix(11,0,0,11,270.8,933)" />
<use xlink:href="#f1_s" transform="matrix(11,0,0,11,276.5,933)" />
<use xlink:href="#f1_4" transform="matrix(11,0,0,11,284.7,933)" />
<use xlink:href="#f1_p" transform="matrix(11,0,0,11,289.4,933)" />
<use xlink:href="#f1_8" transform="matrix(11,0,0,11,302.6,933)" />
<use xlink:href="#f1_g" transform="matrix(11,0,0,11,311,933)" />
<use xlink:href="#f1_g" transform="matrix(11,0,0,11,137.7,933)" />
<use xlink:href="#f1_2" transform="matrix(11,0,0,11,144.2,933)" />
<use xlink:href="#f1_3" transform="matrix(11,0,0,11,151.7,933)" />
<use xlink:href="#f1_s" transform="matrix(11,0,0,11,157.3,933)" />
<use xlink:href="#f1_4" transform="matrix(11,0,0,11,165.6,933)" />
<use xlink:href="#f1_3" transform="matrix(11,0,0,11,170.3,933)" />
<use xlink:href="#f0_f" transform="matrix(12,0,0,12,594.3,956.5)" />
<use xlink:href="#f0_c" transform="matrix(12,0,0,12,604.8,956.5)" />
<use xlink:href="#f0_4" transform="matrix(12,0,0,12,609.9,956.5)" />
<use xlink:href="#f0_a" transform="matrix(12,0,0,12,628.7,956.5)" />
<use xlink:href="#f0_c" transform="matrix(12,0,0,12,639,956.5)" />
<use xlink:href="#f0_o" transform="matrix(12,0,0,12,644.1,956.5)" />
<use xlink:href="#f0_g" transform="matrix(12,0,0,12,650.5,956.5)" />
<use xlink:href="#f0_3" transform="matrix(12,0,0,12,662.4,956.5)" />
<use xlink:href="#f1_3" transform="matrix(11,0,0,11,376,955.2)" />
<use xlink:href="#f1_2" transform="matrix(11,0,0,11,381.5,955.2)" />
<use xlink:href="#f1_u" transform="matrix(11,0,0,11,388.9,955.2)" />
<use xlink:href="#f1_4" transform="matrix(11,0,0,11,397.3,955.2)" />
<use xlink:href="#f1_h" transform="matrix(11,0,0,11,401.9,955.2)" />
<use xlink:href="#f1_2" transform="matrix(11,0,0,11,406.7,955.2)" />
<use xlink:href="#f1_g" transform="matrix(11,0,0,11,414.1,955.2)" />
<use xlink:href="#f1_3" transform="matrix(11,0,0,11,256.8,955.2)" />
<use xlink:href="#f1_2" transform="matrix(11,0,0,11,262.4,955.2)" />
<use xlink:href="#f1_u" transform="matrix(11,0,0,11,269.9,955.2)" />
<use xlink:href="#f1_2" transform="matrix(11,0,0,11,278.3,955.2)" />
<use xlink:href="#f1_h" transform="matrix(11,0,0,11,285.6,955.2)" />
<use xlink:href="#f1_4" transform="matrix(11,0,0,11,290.4,955.2)" />
<use xlink:href="#f1_p" transform="matrix(11,0,0,11,295,955.2)" />
<use xlink:href="#f1_8" transform="matrix(11,0,0,11,308.1,955.2)" />
<use xlink:href="#f1_g" transform="matrix(11,0,0,11,316.5,955.2)" />
<use xlink:href="#f1_3" transform="matrix(11,0,0,11,137.7,955.2)" />
<use xlink:href="#f1_2" transform="matrix(11,0,0,11,143.3,955.2)" />
<use xlink:href="#f1_u" transform="matrix(11,0,0,11,150.7,955.2)" />
<use xlink:href="#f1_2" transform="matrix(11,0,0,11,159.1,955.2)" />
<use xlink:href="#f1_h" transform="matrix(11,0,0,11,166.5,955.2)" />
<use xlink:href="#f1_4" transform="matrix(11,0,0,11,171.2,955.2)" />
<use xlink:href="#f1_3" transform="matrix(11,0,0,11,175.8,955.2)" />
<use xlink:href="#f0_a" transform="matrix(12,0,0,12,624.6,978.7)" />
<use xlink:href="#f0_c" transform="matrix(12,0,0,12,634.9,978.7)" />
<use xlink:href="#f0_g" transform="matrix(12,0,0,12,640,978.7)" />
<use xlink:href="#f0_f" transform="matrix(12,0,0,12,651.9,978.7)" />
<use xlink:href="#f0_3" transform="matrix(12,0,0,12,662.4,978.7)" />
<use xlink:href="#f1_2" transform="matrix(11,0,0,11,376,977.3)" />
<use xlink:href="#f1_l" transform="matrix(11,0,0,11,383.3,977.3)" />
<use xlink:href="#f1_4" transform="matrix(11,0,0,11,388,977.3)" />
<use xlink:href="#f1_w" transform="matrix(11,0,0,11,392.8,977.3)" />
<use xlink:href="#f1_2" transform="matrix(11,0,0,11,401.2,977.3)" />
<use xlink:href="#f1_g" transform="matrix(11,0,0,11,408.5,977.3)" />
<use xlink:href="#f1_2" transform="matrix(11,0,0,11,256.8,977.3)" />
<use xlink:href="#f1_l" transform="matrix(11,0,0,11,264.3,977.3)" />
<use xlink:href="#f1_2" transform="matrix(11,0,0,11,269,977.3)" />
<use xlink:href="#f1_w" transform="matrix(11,0,0,11,276.5,977.3)" />
<use xlink:href="#f1_4" transform="matrix(11,0,0,11,284.7,977.3)" />
<use xlink:href="#f1_p" transform="matrix(11,0,0,11,289.4,977.3)" />
<use xlink:href="#f1_8" transform="matrix(11,0,0,11,302.6,977.3)" />
<use xlink:href="#f1_g" transform="matrix(11,0,0,11,311,977.3)" />
<use xlink:href="#f1_2" transform="matrix(11,0,0,11,137.7,977.3)" />
<use xlink:href="#f1_l" transform="matrix(11,0,0,11,145.1,977.3)" />
<use xlink:href="#f1_2" transform="matrix(11,0,0,11,149.8,977.3)" />
<use xlink:href="#f1_w" transform="matrix(11,0,0,11,157.3,977.3)" />
<use xlink:href="#f1_4" transform="matrix(11,0,0,11,165.6,977.3)" />
<use xlink:href="#f1_3" transform="matrix(11,0,0,11,170.3,977.3)" />
</g>
<g fill="#0000FF" >
<use xlink:href="#f0_p" transform="matrix(12,0,0,12,669.9,1000.8)" />
<use xlink:href="#f0_a" transform="matrix(12,0,0,12,682.9,1000.8)" />
<use xlink:href="#f0_m" transform="matrix(12,0,0,12,693.1,1000.8)" />
<use xlink:href="#f0_3" transform="matrix(12,0,0,12,704.6,1000.8)" />
<use xlink:href="#f0_9" transform="matrix(12,0,0,12,720.9,1000.8)" />
<use xlink:href="#f0_a" transform="matrix(12,0,0,12,732.8,1000.8)" />
<use xlink:href="#f0_o" transform="matrix(12,0,0,12,743.2,1000.8)" />
<use xlink:href="#f0_g" transform="matrix(12,0,0,12,749.6,1000.8)" />
<use xlink:href="#f0_f" transform="matrix(12,0,0,12,761.5,1000.8)" />
</g>
</g>
<path d="M669.8,1002.7H772.1" class="g2_19" />
<g clip-path="url(#c0_19)">
<g fill="#000000" >
<use xlink:href="#f2_n" transform="matrix(12,0,0,12,723.8,1060.9)" />
<use xlink:href="#f2_d" transform="matrix(12,0,0,12,735,1060.9)" />
<use xlink:href="#f2_o" transform="matrix(12,0,0,12,740.3,1060.9)" />
<use xlink:href="#f2_4" transform="matrix(12,0,0,12,748.6,1060.9)" />
<use xlink:href="#f2_p" transform="matrix(12,0,0,12,759.6,1060.9)" />
<use xlink:href="#f2_11" transform="matrix(12,0,0,12,704.6,1060.9)" />
</g>
</g>
<path d="M236.9,1065.7H508.2m-379.6,41.4H508.2m-379.6,20.2H508.2m-379.6,20H508.2m-379.6,20.2H508.2M128.9,1106.7v61.1M237.3,1065.3v102.5m119,-102.5v102.5M507.8,1065.3v102.5" class="g1_19" />
<g clip-path="url(#c0_19)">
<g fill="#000000" >
<use xlink:href="#f0_k" transform="matrix(12,0,0,12,452.8,1083)" />
<use xlink:href="#f0_7" transform="matrix(12,0,0,12,460.3,1083)" />
<use xlink:href="#f0_4" transform="matrix(12,0,0,12,464.4,1083)" />
<use xlink:href="#f0_9" transform="matrix(12,0,0,12,477.4,1083)" />
<use xlink:href="#f0_3" transform="matrix(12,0,0,12,489.3,1083)" />
<use xlink:href="#f1_5" transform="matrix(11,0,0,11,365.1,1103.1)" />
<use xlink:href="#f1_8" transform="matrix(11,0,0,11,372.6,1103.1)" />
<use xlink:href="#f1_a" transform="matrix(11,0,0,11,381,1103.1)" />
<use xlink:href="#f1_g" transform="matrix(11,0,0,11,389.3,1103.1)" />
<use xlink:href="#f1_2" transform="matrix(11,0,0,11,395.8,1103.1)" />
<use xlink:href="#f1_w" transform="matrix(11,0,0,11,403.3,1103.1)" />
<use xlink:href="#f1_f" transform="matrix(11,0,0,11,411.7,1103.1)" />
<use xlink:href="#f1_4" transform="matrix(11,0,0,11,420.1,1103.1)" />
<use xlink:href="#f1_3" transform="matrix(11,0,0,11,424.8,1103.1)" />
<use xlink:href="#f0_z" transform="matrix(12,0,0,12,300.7,1083)" />
<use xlink:href="#f0_c" transform="matrix(12,0,0,12,312.4,1083)" />
<use xlink:href="#f0_q" transform="matrix(12,0,0,12,317.4,1083)" />
<use xlink:href="#f0_a" transform="matrix(12,0,0,12,327.4,1083)" />
<use xlink:href="#f0_3" transform="matrix(12,0,0,12,337.8,1083)" />
<use xlink:href="#f1_u" transform="matrix(11,0,0,11,246,1103.1)" />
<use xlink:href="#f1_2" transform="matrix(11,0,0,11,254.4,1103.1)" />
<use xlink:href="#f1_3" transform="matrix(11,0,0,11,261.8,1103.1)" />
<use xlink:href="#f1_g" transform="matrix(11,0,0,11,267.5,1103.1)" />
<use xlink:href="#f1_2" transform="matrix(11,0,0,11,273.9,1103.1)" />
<use xlink:href="#f1_w" transform="matrix(11,0,0,11,281.3,1103.1)" />
<use xlink:href="#f1_f" transform="matrix(11,0,0,11,289.8,1103.1)" />
<use xlink:href="#f1_4" transform="matrix(11,0,0,11,298.2,1103.1)" />
<use xlink:href="#f1_3" transform="matrix(11,0,0,11,302.9,1103.1)" />
<use xlink:href="#f1_5" transform="matrix(11,0,0,11,365.1,1123.2)" />
<use xlink:href="#f1_8" transform="matrix(11,0,0,11,372.6,1123.2)" />
<use xlink:href="#f1_a" transform="matrix(11,0,0,11,381,1123.2)" />
<use xlink:href="#f1_g" transform="matrix(11,0,0,11,389.3,1123.2)" />
<use xlink:href="#f1_4" transform="matrix(11,0,0,11,395.8,1123.2)" />
<use xlink:href="#f1_w" transform="matrix(11,0,0,11,400.5,1123.2)" />
<use xlink:href="#f1_8" transform="matrix(11,0,0,11,408.9,1123.2)" />
<use xlink:href="#f1_u" transform="matrix(11,0,0,11,246,1123.2)" />
<use xlink:href="#f1_2" transform="matrix(11,0,0,11,254.4,1123.2)" />
<use xlink:href="#f1_3" transform="matrix(11,0,0,11,261.8,1123.2)" />
<use xlink:href="#f1_g" transform="matrix(11,0,0,11,267.5,1123.2)" />
<use xlink:href="#f1_4" transform="matrix(11,0,0,11,273.9,1123.2)" />
<use xlink:href="#f1_w" transform="matrix(11,0,0,11,278.6,1123.2)" />
<use xlink:href="#f1_8" transform="matrix(11,0,0,11,287,1123.2)" />
<use xlink:href="#f1_7" transform="matrix(11,0,0,11,137.7,1123.2)" />
<use xlink:href="#f1_8" transform="matrix(11,0,0,11,146.1,1123.2)" />
<use xlink:href="#f1_5" transform="matrix(11,0,0,11,365.1,1143.2)" />
<use xlink:href="#f1_8" transform="matrix(11,0,0,11,372.6,1143.2)" />
<use xlink:href="#f1_a" transform="matrix(11,0,0,11,381,1143.2)" />
<use xlink:href="#f1_g" transform="matrix(11,0,0,11,389.3,1143.2)" />
<use xlink:href="#f1_4" transform="matrix(11,0,0,11,395.8,1143.2)" />
<use xlink:href="#f1_w" transform="matrix(11,0,0,11,400.5,1143.2)" />
<use xlink:href="#f1_f" transform="matrix(11,0,0,11,408.9,1143.2)" />
<use xlink:href="#f1_2" transform="matrix(11,0,0,11,417.3,1143.2)" />
<use xlink:href="#f1_g" transform="matrix(11,0,0,11,424.8,1143.2)" />
<use xlink:href="#f1_u" transform="matrix(11,0,0,11,246,1143.2)" />
<use xlink:href="#f1_2" transform="matrix(11,0,0,11,254.4,1143.2)" />
<use xlink:href="#f1_3" transform="matrix(11,0,0,11,261.8,1143.2)" />
<use xlink:href="#f1_g" transform="matrix(11,0,0,11,267.5,1143.2)" />
<use xlink:href="#f1_4" transform="matrix(11,0,0,11,273.9,1143.2)" />
<use xlink:href="#f1_w" transform="matrix(11,0,0,11,278.6,1143.2)" />
<use xlink:href="#f1_f" transform="matrix(11,0,0,11,287,1143.2)" />
<use xlink:href="#f1_2" transform="matrix(11,0,0,11,295.4,1143.2)" />
<use xlink:href="#f1_g" transform="matrix(11,0,0,11,302.9,1143.2)" />
<use xlink:href="#f1_h" transform="matrix(11,0,0,11,137.7,1143.2)" />
<use xlink:href="#f1_i" transform="matrix(11,0,0,11,142.4,1143.2)" />
<use xlink:href="#f1_5" transform="matrix(11,0,0,11,365.1,1163.4)" />
<use xlink:href="#f1_8" transform="matrix(11,0,0,11,372.6,1163.4)" />
<use xlink:href="#f1_a" transform="matrix(11,0,0,11,381,1163.4)" />
<use xlink:href="#f1_g" transform="matrix(11,0,0,11,389.3,1163.4)" />
<use xlink:href="#f1_4" transform="matrix(11,0,0,11,395.8,1163.4)" />
<use xlink:href="#f1_w" transform="matrix(11,0,0,11,400.5,1163.4)" />
<use xlink:href="#f1_f" transform="matrix(11,0,0,11,408.9,1163.4)" />
<use xlink:href="#f1_2" transform="matrix(11,0,0,11,417.3,1163.4)" />
<use xlink:href="#f1_u" transform="matrix(11,0,0,11,246,1163.4)" />
<use xlink:href="#f1_2" transform="matrix(11,0,0,11,254.4,1163.4)" />
<use xlink:href="#f1_3" transform="matrix(11,0,0,11,261.8,1163.4)" />
<use xlink:href="#f1_g" transform="matrix(11,0,0,11,267.5,1163.4)" />
<use xlink:href="#f1_4" transform="matrix(11,0,0,11,273.9,1163.4)" />
<use xlink:href="#f1_w" transform="matrix(11,0,0,11,278.6,1163.4)" />
<use xlink:href="#f1_f" transform="matrix(11,0,0,11,287,1163.4)" />
<use xlink:href="#f1_2" transform="matrix(11,0,0,11,295.4,1163.4)" />
<use xlink:href="#f1_k" transform="matrix(11,0,0,11,137.7,1163.4)" />
<use xlink:href="#f1_l" transform="matrix(11,0,0,11,145.1,1163.4)" />
<use xlink:href="#f1_6" transform="matrix(11,0,0,11,149.7,1163.4)" />
<use xlink:href="#f1_2" transform="matrix(11,0,0,11,154.4,1163.4)" />
<use xlink:href="#f1_l" transform="matrix(11,0,0,11,161.9,1163.4)" />
<use xlink:href="#f1_l" transform="matrix(11,0,0,11,166.5,1163.4)" />
<use xlink:href="#f1_m" transform="matrix(11,0,0,11,171.2,1163.4)" />
<use xlink:href="#f1_6" transform="matrix(11,0,0,11,178.7,1163.4)" />
<use xlink:href="#f1_n" transform="matrix(11,0,0,11,183.4,1163.4)" />
<use xlink:href="#f1_e" transform="matrix(11,0,0,11,195.4,1163.4)" />
<use xlink:href="#f1_o" transform="matrix(11,0,0,11,203.8,1163.4)" />
</g>
</g>
<defs>
<path d="M139,0V138c0,0,0,61,8,112c0,0,7,52,19,87c0,0,11,36,30,66c0,0,19,31,35,49c0,0,17,19,41,35c0,0,25,17,41,25c0,0,17,7,40,17L141,836H303L613,388c0,0,20,10,33,18c0,0,13,8,34,28c0,0,20,20,33,44c0,0,13,25,22,66c0,0,10,41,10,92V836H882V698c0,0,0,-61,-7,-112c0,0,-6,-52,-18,-88c0,0,-12,-36,-30,-66c0,0,-19,-30,-36,-49c0,0,-17,-18,-41,-34c0,0,-24,-17,-40,-25c0,0,-17,-8,-41,-17L882,0H720L409,448c0,0,-21,-11,-34,-19c0,0,-13,-8,-34,-27c0,0,-21,-20,-34,-44c0,0,-12,-25,-22,-66c0,0,-9,-41,-9,-92V0Z" 
id="f0_d"
transform="scale(0.001,-0.001)" />

<path d="M102,312V836H241V369L102,312Z" 
id="f0_7"
transform="scale(0.001,-0.001)" />

<path d="M66,0V107H554V452c0,0,0,56,-4,93c0,0,-4,37,-18,75c0,0,-14,38,-40,60c0,0,-26,22,-71,36c0,0,-45,13,-110,13H66V836H312c0,0,91,0,157,-17c0,0,66,-17,109,-49c0,0,44,-32,69,-84c0,0,26,-52,36,-114c0,0,10,-62,10,-147V107H817V0Z" 
id="f0_f"
transform="scale(0.001,-0.001)" />

<path d="M154,0V454l138,56V0ZM722,0V454c0,0,0,161,-49,218c0,0,-48,57,-186,57H139V836H485c0,0,207,0,291,-93c0,0,83,-94,83,-318V0Z" 
id="f0_9"
transform="scale(0.001,-0.001)" />

<path d="M287,0L589,729H66v386H205V836l547,-1l-2,-82L433,0Z" 
id="f0_3"
transform="scale(0.001,-0.001)" />

<path d="M249,-14c0,0,-71,0,-107,42c0,0,-35,42,-35,119V639H15v33l93,29l76,159h47V701H391V639H231V161c0,0,0,-48,22,-73c0,0,22,-24,57,-24c0,0,44,0,106,12V26C416,26,389,8,340,-2c0,0,-49,-12,-91,-12Z" 
id="f1_h"
transform="scale(0.001,-0.001)" />

<path d="M31,0V33l88,19V649L31,668v33H235l7,-87c0,0,44,37,121,71c0,0,76,35,121,35h11V530H463l-43,82c0,0,-37,0,-88,-10c0,0,-52,-10,-89,-26V52L363,33V0Z" 
id="f1_3"
transform="scale(0.001,-0.001)" />

<path d="M284,67c0,0,51,0,88,12c0,0,37,12,74,30V358l-98,-3c0,0,-100,-4,-135,-39c0,0,-35,-35,-35,-117c0,0,0,-132,106,-132ZM233,-14c0,0,-179,0,-179,208c0,0,0,70,27,116c0,0,27,46,87,70c0,0,60,24,173,27l105,3V519c0,0,0,72,-26,107c0,0,-27,34,-82,34c0,0,-75,0,-137,-35L176,538H134V691c0,0,121,26,213,26c0,0,115,0,169,-47c0,0,54,-47,54,-144V52L657,33V0H465L451,70c0,0,-85,-84,-218,-84Z" 
id="f1_m"
transform="scale(0.001,-0.001)" />

<path d="M32,0V33L151,52V649L52,668v33H275V52L395,33V0ZM201,850c0,0,-32,0,-56,24c0,0,-24,24,-24,56c0,0,0,34,24,58c0,0,24,24,56,24c0,0,34,0,58,-24c0,0,24,-24,24,-58c0,0,0,-32,-24,-56c0,0,-24,-24,-58,-24Z" 
id="f1_4"
transform="scale(0.001,-0.001)" />

<path d="M359,-270c0,0,124,0,192,46c0,0,67,47,67,129c0,0,0,43,-26,67c0,0,-26,24,-79,24H242c0,0,-32,-27,-51,-69c0,0,-20,-41,-20,-77c0,0,0,-64,46,-92c0,0,46,-28,142,-28Zm11,561c0,0,81,0,115,47c0,0,34,47,34,141c0,0,0,100,-35,142c0,0,-35,42,-113,42c0,0,-78,0,-114,-43c0,0,-37,-42,-37,-141c0,0,0,-98,36,-143c0,0,36,-45,114,-45ZM359,-329c0,0,-143,0,-218,44c0,0,-75,43,-75,125c0,0,0,39,27,78c0,0,26,38,98,89c0,0,-43,14,-72,48c0,0,-29,35,-29,74L208,262c0,0,-118,55,-118,217c0,0,0,115,73,178c0,0,73,63,211,63c0,0,28,0,71,-6c0,0,44,-6,67,-13l165,83l26,-32L599,644c0,0,50,-56,50,-165c0,0,0,-120,-72,-182c0,0,-73,-62,-208,-62c0,0,-62,0,-114,11L208,148c0,0,2,-13,29,-24c0,0,27,-12,67,-12H512c0,0,113,0,168,-49c0,0,55,-49,55,-134c0,0,0,-79,-44,-137c0,0,-43,-58,-128,-90c0,0,-84,-31,-204,-31Z" 
id="f1_w"
transform="scale(0.001,-0.001)" />

<path d="M377,45c0,0,99,0,147,73c0,0,47,73,47,237c0,0,0,161,-47,233c0,0,-47,72,-147,72c0,0,-97,0,-141,-69c0,0,-44,-69,-44,-236c0,0,0,-169,45,-240c0,0,44,-70,140,-70Zm0,-59c0,0,-158,0,-238,94c0,0,-81,95,-81,274c0,0,0,178,81,272c0,0,80,94,244,94c0,0,160,0,241,-92c0,0,82,-92,82,-274c0,0,0,-368,-329,-368Z" 
id="f1_8"
transform="scale(0.001,-0.001)" />

<path d="M495,413c0,0,0,133,-34,190c0,0,-34,57,-105,57c0,0,-78,0,-119,-63c0,0,-42,-62,-42,-184ZM374,-14c0,0,-163,0,-239,87c0,0,-75,88,-75,283c0,0,0,183,77,273c0,0,76,91,219,91c0,0,269,0,269,-306V353H194V340c0,0,0,-103,23,-160c0,0,22,-57,70,-87c0,0,47,-29,124,-29c0,0,40,0,96,6c0,0,55,7,91,15V43C598,43,562,20,500,3c0,0,-61,-17,-126,-17Z" 
id="f1_2"
transform="scale(0.001,-0.001)" />

<path d="M585,0V426c0,0,0,54,-8,98c0,0,-8,44,-27,83c0,0,-19,40,-49,66c0,0,-30,26,-77,41c0,0,-47,15,-108,15H66V836H315c0,0,94,0,166,-20c0,0,71,-20,116,-54c0,0,46,-35,75,-88c0,0,28,-52,40,-112c0,0,12,-60,12,-137V0Z" 
id="f0_a"
transform="scale(0.001,-0.001)" />

<path d="M139,0V836H278V0Z" 
id="f0_c"
transform="scale(0.001,-0.001)" />

<path d="M180,0L66,836H203L258,443c0,0,36,1,64,6c0,0,28,6,49,18c0,0,20,12,35,26c0,0,15,13,26,36c0,0,11,24,17,44c0,0,7,20,12,55c0,0,6,34,9,60c0,0,3,26,8,71c0,0,4,45,9,77H610c0,0,-13,-194,-31,-271c0,0,-31,-127,-111,-179c0,0,-71,-45,-196,-50L304,107c0,0,73,0,130,5c0,0,56,6,111,21c0,0,54,15,94,40c0,0,40,25,77,64c0,0,37,39,63,94c0,0,25,54,46,128c0,0,21,73,34,166c0,0,13,94,20,211h138c0,0,-14,-124,-29,-218c0,0,-16,-94,-39,-179c0,0,-22,-85,-50,-146c0,0,-28,-61,-68,-112c0,0,-39,-51,-87,-84C744,97,696,65,632,42C632,42,568,19,492,10C492,10,417,0,320,0Z" 
id="f0_4"
transform="scale(0.001,-0.001)" />

<path d="M66,0V107H332V555c0,0,0,92,-37,133c0,0,-37,41,-116,41H85V836h94c0,0,153,0,223,-66c0,0,69,-66,69,-231V0Z" 
id="f0_n"
transform="scale(0.001,-0.001)" />

<path d="M399,-14c0,0,-341,0,-341,370c0,0,0,175,87,269c0,0,87,95,249,95c0,0,101,0,220,-23V501H573L541,625c0,0,-62,35,-149,35c0,0,-200,0,-200,-304c0,0,0,-158,61,-225c0,0,61,-67,189,-67c0,0,109,0,189,24V43C631,43,595,16,530,1c0,0,-64,-15,-131,-15Z" 
id="f1_5"
transform="scale(0.001,-0.001)" />

<path d="M71,-141V-15L289,62L66,836H210L416,109c0,0,99,42,153,98c0,0,53,56,80,155c0,0,26,98,26,262V836H817V624c0,0,0,-88,-7,-154c0,0,-7,-67,-25,-132c0,0,-18,-66,-51,-116c0,0,-33,-51,-84,-98c0,0,-50,-48,-123,-87c0,0,-72,-39,-169,-74L71,-141Z" 
id="f0_l"
transform="scale(0.001,-0.001)" />

<path d="M66,0V106H564L66,836H228L516,413c0,0,3,2,9,6c0,0,17,13,27,21c0,0,10,8,26,27c0,0,17,20,26,40c0,0,9,21,16,54c0,0,7,34,7,75V836H764V698c0,0,0,-55,-7,-102c0,0,-7,-47,-16,-79c0,0,-10,-33,-27,-62c0,0,-18,-29,-32,-46c0,0,-14,-17,-37,-35c0,0,-22,-17,-36,-25c0,0,-13,-8,-36,-20L767,53V0Z" 
id="f0_b"
transform="scale(0.001,-0.001)" />

<path d="M64,0V34L168,59V639H47v36l121,29v49c0,0,0,155,61,239c0,0,62,84,173,84c0,0,58,0,107,-15V908H472l-33,92c0,0,-26,16,-62,16c0,0,-47,0,-66,-42c0,0,-19,-42,-19,-157V701H478V639H292V59L443,34V0Z" 
id="f1_t"
transform="scale(0.001,-0.001)" />

<path d="M41,0V34L426,641H261c0,0,-42,0,-80,-7c0,0,-39,-7,-54,-19L104,515H69V701H586V665L201,60H407c0,0,42,0,89,10c0,0,47,10,66,25l39,147h35L617,0Z" 
id="f1_9"
transform="scale(0.001,-0.001)" />

<path d="M112,-5c0,0,-39,0,-97,11V113c0,0,48,-10,77,-10c0,0,53,0,70,42c0,0,17,43,17,164V729H50V836H501c0,0,107,0,179,-25c0,0,72,-25,112,-77c0,0,40,-51,57,-118c0,0,16,-67,16,-164V0H726V454c0,0,0,55,-3,92c0,0,-4,37,-17,75c0,0,-14,38,-38,59c0,0,-24,22,-65,36c0,0,-42,13,-102,13H318V309c0,0,0,-160,-46,-237C272,72,226,-5,112,-5Z" 
id="f0_e"
transform="scale(0.001,-0.001)" />

<path d="M442,0V33l93,19V504c0,0,0,129,-124,129c0,0,-70,0,-168,-22V52L338,33V0H31V33l88,19v956L15,1026v34H243V756c0,0,0,-77,-5,-112c0,0,54,31,122,53c0,0,68,23,115,23c0,0,91,0,137,-53c0,0,47,-53,47,-154V52L744,33V0Z" 
id="f1_x"
transform="scale(0.001,-0.001)" />

<path d="M156,-317V454l139,56V-317ZM505,0L806,729H139V835H967V753L650,0Z" 
id="f0_p"
transform="scale(0.001,-0.001)" />

<path d="M139,0V106H400c0,0,176,0,253,71c0,0,78,72,78,250c0,0,0,163,-80,233c0,0,-81,69,-250,69H278L277,564c0,0,-1,-54,26,-80c0,0,27,-25,82,-25c0,0,30,0,80,9V355c0,0,-61,-12,-111,-12c0,0,-100,0,-157,55c0,0,-58,55,-58,186V836H456c0,0,193,0,303,-109c0,0,110,-109,110,-309c0,0,0,-200,-110,-309C759,109,648,0,456,0Z" 
id="f0_m"
transform="scale(0.001,-0.001)" />

<path d="M152,0V473c0,0,0,94,28,161c0,0,29,66,71,95H66V836H463V729H404c0,0,-65,0,-89,-57c0,0,-25,-58,-25,-199V0Z" 
id="f0_o"
transform="scale(0.001,-0.001)" />

<path d="M139,0V836H485c0,0,206,0,290,-90c0,0,84,-89,84,-294V0H721V473c0,0,0,147,-49,202c0,0,-48,54,-186,54H277V0Z" 
id="f0_g"
transform="scale(0.001,-0.001)" />

<path d="M248,0L521,658H66v429H313V836l493,-1V716L504,0Z" 
id="f2_n"
transform="scale(0.001,-0.001)" />

<path d="M102,250V836H349V351L102,250Z" 
id="f2_d"
transform="scale(0.001,-0.001)" />

<path d="M154,-13c0,0,-38,0,-85,9V198c0,0,58,-15,103,-15c0,0,84,0,118,60c0,0,35,61,35,206c0,0,0,66,-7,105c0,0,-6,39,-24,63c0,0,-17,25,-44,33c0,0,-27,8,-73,8H66V836H225c0,0,198,0,275,-115c0,0,56,-84,65,-264c0,0,3,-55,3,-148c0,0,0,-177,71,-309L393,1c0,0,-53,130,-54,141c0,0,-28,-90,-65,-123c0,0,-38,-32,-120,-32Z" 
id="f2_o"
transform="scale(0.001,-0.001)" />

<path d="M534,0V425c0,0,0,109,-41,171c0,0,-41,62,-140,62H66V836H352c0,0,99,0,174,-20c0,0,75,-20,123,-55c0,0,48,-35,78,-87c0,0,30,-53,42,-113c0,0,12,-60,12,-136V0Z" 
id="f2_4"
transform="scale(0.001,-0.001)" />

<path d="M173,-6C173,-6,61,-6,15,9V177c0,0,73,-10,82,-10c0,0,37,0,52,30c0,0,14,29,14,116V658H18V836H516c0,0,262,0,341,-145c0,0,48,-89,48,-242V0H658V450c0,0,0,131,-37,171c0,0,-34,37,-105,37H411V313c0,0,0,-189,-67,-258C344,55,285,-6,173,-6Z" 
id="f2_p"
transform="scale(0.001,-0.001)" />

<path d="M491,-20c0,0,-95,0,-188,18c0,0,-93,17,-185,55V279c0,0,91,-53,173,-79c0,0,82,-26,154,-26c0,0,105,0,165,51c0,0,60,51,60,138c0,0,0,88,-60,139c0,0,-60,50,-165,50c0,0,-62,0,-132,-16c0,0,-70,-16,-151,-49v627H877V903H391V730c0,0,33,9,66,14c0,0,33,5,69,5c0,0,204,0,318,-102c0,0,113,-102,113,-284c0,0,0,-180,-123,-282C834,81,710,-20,491,-20Z" 
id="f2_z"
transform="scale(0.001,-0.001)" />

<path d="M89,0l36,190H283L246,0Z" 
id="f3_2"
transform="scale(0.001,-0.001)" />

<path d="M154,0l88,454l150,56L292,0ZM721,0l88,454c0,0,32,161,-5,218c0,0,-37,57,-176,57H280l21,107H648c0,0,206,0,272,-94c0,0,65,-93,22,-317L859,0Z" 
id="f3_3"
transform="scale(0.001,-0.001)" />

<path d="M66,0L87,107H576l67,345c0,0,10,56,14,93c0,0,3,37,-4,75c0,0,-7,38,-28,60c0,0,-21,21,-64,35c0,0,-43,14,-107,14H207l21,107H474c0,0,92,0,155,-18c0,0,63,-17,99,-49c0,0,37,-31,53,-83c0,0,16,-52,14,-114c0,0,-2,-62,-18,-147L715,107H838L818,0Z" 
id="f3_4"
transform="scale(0.001,-0.001)" />

<path d="M139,0L301,836H440L278,0Z" 
id="f3_5"
transform="scale(0.001,-0.001)" />

<path d="M518,-21c0,0,-196,0,-271,100c0,0,-74,100,-31,324l85,433H439L353,397c0,0,-17,-87,-12,-147c0,0,5,-61,32,-94c0,0,27,-34,67,-49c0,0,40,-15,100,-15c0,0,60,0,106,15c0,0,46,15,86,49c0,0,39,33,68,94c0,0,29,60,45,147c0,0,17,84,21,143c0,0,5,58,-4,105c0,0,-9,47,-38,69c0,0,-30,23,-80,23c0,0,-49,0,-123,-22l21,106c0,0,90,23,155,23c0,0,76,0,124,-30c0,0,47,-31,67,-90c0,0,20,-59,18,-138c0,0,-1,-78,-21,-183C985,403,941,179,828,79C828,79,714,-21,518,-21Z" 
id="f3_6"
transform="scale(0.001,-0.001)" />

<path d="M254,-200c0,0,-69,128,-102,248c0,0,-34,121,-34,238c0,0,0,221,103,439c0,0,102,218,310,435H652c0,0,-197,-247,-295,-469c0,0,-97,-222,-97,-428c0,0,0,-118,28,-234c0,0,29,-115,85,-229Z" 
id="f3_8"
transform="scale(0.001,-0.001)" />

<path d="M139,0l27,138c0,0,12,60,29,112c0,0,18,51,36,87c0,0,18,36,43,66c0,0,24,30,45,49c0,0,20,19,48,35c0,0,27,17,45,24c0,0,18,8,43,18L303,836H465L688,388c0,0,22,10,37,17c0,0,14,8,39,28c0,0,25,21,42,45c0,0,18,24,35,65c0,0,18,41,28,93l39,200h137L1018,697c0,0,-12,-61,-29,-112c0,0,-18,-51,-36,-87c0,0,-19,-36,-43,-66c0,0,-25,-31,-45,-49c0,0,-21,-18,-49,-35c0,0,-27,-16,-45,-24c0,0,-18,-8,-43,-17L881,0H719L496,448c0,0,-23,-11,-38,-19c0,0,-14,-8,-39,-27c0,0,-24,-20,-42,-44c0,0,-17,-25,-34,-66c0,0,-18,-41,-28,-92L276,0Z" 
id="f3_9"
transform="scale(0.001,-0.001)" />

<path d="M162,312L264,836H403L312,369L162,312Z" 
id="f3_a"
transform="scale(0.001,-0.001)" />

<path d="M-94,-200c0,0,197,246,294,468c0,0,97,222,97,428c0,0,0,117,-28,233c0,0,-28,116,-84,231H304c0,0,69,-129,102,-250c0,0,34,-120,34,-236c0,0,0,-223,-103,-442C337,232,233,13,27,-200Z" 
id="f3_b"
transform="scale(0.001,-0.001)" />

<path d="M495,0L636,729H207l21,107H944L923,729H775L633,0Z" 
id="f3_c"
transform="scale(0.001,-0.001)" />

<path d="M44,-141L69,-15L301,62L228,836H373L437,109c0,0,107,42,172,98c0,0,65,56,110,155c0,0,45,98,76,262l42,212H980L938,624c0,0,-16,-88,-36,-155c0,0,-20,-66,-51,-131c0,0,-31,-66,-74,-116c0,0,-42,-51,-102,-99c0,0,-60,-47,-141,-86c0,0,-80,-39,-183,-74L44,-141Z" 
id="f3_d"
transform="scale(0.001,-0.001)" />

<path d="M540,92c0,0,246,0,311,333c0,0,17,87,12,146c0,0,-6,58,-35,91c0,0,-29,33,-74,46c0,0,-45,13,-112,13H416L357,419C357,419,294,92,540,92ZM518,-21c0,0,-193,0,-267,109c0,0,-74,110,-30,337l80,411H664c0,0,213,0,290,-94c0,0,78,-93,35,-317C989,425,945,198,828,88C828,88,711,-21,518,-21Z" 
id="f3_e"
transform="scale(0.001,-0.001)" />

<path d="M114,0L234,312c0,0,5,12,16,39c0,0,11,27,15,37c0,0,4,10,10,29c0,0,6,19,10,34c0,0,4,14,7,31c0,0,9,48,-6,146c0,0,-16,98,-58,208H390c0,0,2,-9,15,-67c0,0,13,-59,18,-117c0,0,31,52,67,90c0,0,36,37,68,57c0,0,32,20,71,31c0,0,39,11,68,14c0,0,29,3,67,3c0,0,300,0,223,-395L899,0H480l21,106H781l67,346c0,0,29,146,-4,215c0,0,-32,70,-104,70c0,0,-134,0,-222,-119c0,0,-49,-68,-109,-222c0,0,-5,-10,-11,-27L253,0Z" 
id="f3_f"
transform="scale(0.001,-0.001)" />

<path d="M-17,0l8,40L120,60L276,941L151,960l7,40H909L866,761H817l4,161c0,0,-81,11,-239,11H419L349,543H619l45,119h48L657,354H609l-1,121H338L266,67H463c0,0,190,0,254,12l75,185h49L780,0Z" 
id="f4_2"
transform="scale(0.001,-0.001)" />

<path d="M81,0L258,1008l-96,18l6,34H391L214,52L331,33L325,0Z" 
id="f4_3"
transform="scale(0.001,-0.001)" />

<path d="M62,0L176,649L88,668l6,33H301L278,543c0,0,55,84,124,130c0,0,69,47,138,47c0,0,37,0,59,-6L566,530H534l-28,95c0,0,-60,0,-124,-46c0,0,-63,-45,-116,-120L186,0Z" 
id="f4_5"
transform="scale(0.001,-0.001)" />

<path d="M188,355c0,0,148,11,236,69c0,0,89,58,89,143c0,0,0,41,-23,68c0,0,-22,27,-66,27c0,0,-52,0,-101,-43c0,0,-49,-42,-85,-114c0,0,-36,-71,-50,-150ZM298,-14c0,0,-120,0,-186,67c0,0,-65,67,-65,193c0,0,0,125,53,232c0,0,52,108,145,175c0,0,94,67,196,67c0,0,92,0,147,-42c0,0,56,-43,56,-111c0,0,0,-102,-126,-173c0,0,-125,-72,-336,-86l-3,-54c0,0,0,-95,40,-143c0,0,40,-47,118,-47c0,0,67,0,124,22c0,0,57,23,106,52l22,-32c0,0,-69,-58,-146,-89c0,0,-76,-31,-145,-31Z" 
id="f4_6"
transform="scale(0.001,-0.001)" />

<path d="M228,-14c0,0,-103,0,-209,46L49,200H83L95,99c0,0,20,-21,55,-38c0,0,36,-16,81,-16c0,0,163,0,163,133c0,0,0,44,-35,78c0,0,-34,34,-113,72c0,0,-75,37,-112,81c0,0,-36,45,-36,104c0,0,0,99,66,153c0,0,67,54,184,54c0,0,85,0,200,-26L521,538H486l-11,80c0,0,-47,42,-124,42c0,0,-61,0,-97,-28c0,0,-37,-28,-37,-87c0,0,0,-40,31,-71c0,0,32,-30,119,-75c0,0,78,-40,113,-86c0,0,36,-47,36,-107c0,0,0,-113,-71,-167c0,0,-72,-53,-217,-53Z" 
id="f4_7"
transform="scale(0.001,-0.001)" />

<path d="M200,-14c0,0,-59,0,-93,35c0,0,-34,36,-34,100c0,0,0,22,4,51c0,0,4,30,82,467H67l6,33l99,29L275,860h47L295,701H455L443,639H283L210,230c0,0,-13,-69,-13,-99c0,0,0,-34,17,-51c0,0,17,-16,43,-16c0,0,54,0,113,21L386,50c0,0,-92,-64,-186,-64Z" 
id="f4_8"
transform="scale(0.001,-0.001)" />

<path d="M301,78c0,0,85,0,185,104l81,442c0,0,-29,20,-55,28c0,0,-25,8,-62,8c0,0,-75,0,-137,-56c0,0,-62,-56,-98,-152c0,0,-36,-95,-36,-199c0,0,0,-79,33,-127c0,0,33,-48,89,-48ZM245,-14c0,0,-90,0,-145,66c0,0,-54,66,-54,182c0,0,0,131,57,244c0,0,57,114,152,178c0,0,96,64,208,64c0,0,90,0,170,-33l33,26h40L589,52L673,33L667,0H454l22,117C476,117,350,-14,245,-14Z" 
id="f4_9"
transform="scale(0.001,-0.001)" />

<path d="M228,-17c0,0,-76,0,-114,40c0,0,-38,41,-38,117c0,0,0,11,4,39c0,0,4,29,80,470L78,667l6,34H293L217,268c0,0,-17,-94,-17,-124c0,0,0,-34,18,-55c0,0,18,-21,57,-21c0,0,55,0,120,47c0,0,65,47,107,115l83,471H709L595,52L683,33L677,0H469l20,144C489,144,427,64,360,23c0,0,-67,-40,-132,-40Z" 
id="f4_a"
transform="scale(0.001,-0.001)" />

<path d="M54,0L169,649L81,668l6,33H294L274,558c0,0,62,81,130,121c0,0,67,41,132,41c0,0,75,0,113,-41c0,0,38,-41,38,-117c0,0,0,-10,-3,-32c0,0,-3,-21,-81,-478L700,34L695,0H470l76,434c0,0,17,94,17,123c0,0,0,34,-18,55c0,0,-18,21,-56,21c0,0,-56,0,-121,-47c0,0,-65,-47,-108,-117L178,0Z" 
id="f4_b"
transform="scale(0.001,-0.001)" />

<path d="M305,45c0,0,76,0,141,56c0,0,64,56,101,151c0,0,37,95,37,200c0,0,0,83,-35,129c0,0,-34,46,-92,46c0,0,-44,0,-96,-29c0,0,-51,-29,-97,-75L185,81c0,0,43,-36,120,-36ZM295,-14c0,0,-65,0,-128,16C167,2,104,19,57,48l171,960l-100,18l6,34H358L303,731c0,0,-13,-85,-29,-144c0,0,59,61,122,97c0,0,64,36,116,36c0,0,94,0,150,-67c0,0,56,-67,56,-182c0,0,0,-129,-56,-242C662,229,606,115,509,50c0,0,-98,-64,-214,-64Z" 
id="f4_c"
transform="scale(0.001,-0.001)" />

<path d="M325,47c0,0,68,0,130,54c0,0,61,55,97,149c0,0,36,94,36,202c0,0,0,103,-39,156c0,0,-39,53,-113,53c0,0,-67,0,-128,-54c0,0,-61,-55,-96,-149c0,0,-35,-94,-35,-204c0,0,0,-101,39,-154c0,0,39,-53,109,-53Zm-6,-61c0,0,-124,0,-199,79c0,0,-74,79,-74,214c0,0,0,120,51,222c0,0,51,102,143,160c0,0,91,59,205,59c0,0,124,0,199,-80c0,0,74,-79,74,-214c0,0,0,-120,-51,-222C667,204,615,102,524,43c0,0,-91,-57,-205,-57Z" 
id="f4_d"
transform="scale(0.001,-0.001)" />

<path d="M154,-20c0,0,-39,0,-65,25C89,5,63,32,63,69c0,0,0,38,27,64c0,0,26,26,64,26c0,0,38,0,64,-26c0,0,26,-26,26,-64c0,0,0,-37,-26,-64c0,0,-26,-25,-64,-25Z" 
id="f4_e"
transform="scale(0.001,-0.001)" />

<path d="M459,63c0,0,143,0,210,55c0,0,67,56,67,185c0,0,0,101,-66,146c0,0,-66,46,-190,46H341L266,67c0,0,114,-4,193,-4Zm18,499c0,0,144,0,206,49c0,0,61,48,61,170c0,0,0,77,-48,115c0,0,-48,37,-160,37H419L353,562ZM459,-4L173,0H14l8,40l99,20L277,941L151,960l8,40H570c0,0,330,0,330,-210c0,0,0,-105,-66,-174c0,0,-66,-69,-184,-85c0,0,115,-9,179,-69c0,0,63,-59,63,-157c0,0,0,-160,-108,-235C784,70,675,-4,459,-4Z" 
id="f4_f"
transform="scale(0.001,-0.001)" />

<path d="M163,0V190H321V0Z" 
id="f0_j"
transform="scale(0.001,-0.001)" />

<path d="M522,-20c0,0,-196,0,-290,99c0,0,-94,100,-94,324V836H276V397c0,0,0,-86,16,-147c0,0,17,-60,50,-94c0,0,34,-34,77,-49c0,0,43,-15,103,-15c0,0,59,0,102,15c0,0,44,15,77,49c0,0,33,34,50,94c0,0,17,61,17,147c0,0,0,84,-8,143c0,0,-7,58,-25,105c0,0,-17,47,-51,69c0,0,-33,23,-83,23c0,0,-50,0,-119,-22V821c0,0,85,23,150,23c0,0,76,0,130,-30c0,0,53,-31,85,-90c0,0,31,-59,45,-138c0,0,13,-78,13,-183c0,0,0,-224,-93,-324c0,0,-94,-99,-290,-99Z" 
id="f0_w"
transform="scale(0.001,-0.001)" />

<path d="M114,0l60,312c0,0,2,12,8,39c0,0,6,27,7,37c0,0,2,11,5,30c0,0,2,19,4,33c0,0,1,15,1,31c0,0,0,48,-35,146c0,0,-35,98,-98,208H228c0,0,3,-8,27,-67c0,0,25,-58,41,-117c0,0,21,53,50,90c0,0,29,37,57,57c0,0,29,21,65,32c0,0,37,11,65,14c0,0,28,3,67,3c0,0,300,0,300,-396V0H480V106H761V452c0,0,0,146,-46,215c0,0,-45,70,-118,70c0,0,-134,0,-198,-119c0,0,-36,-68,-67,-222c0,0,-2,-10,-6,-27L253,0Z" 
id="f0_8"
transform="scale(0.001,-0.001)" />

<path d="M44,0V40L172,60V941L44,960v40H471V960L316,941V65H513c0,0,159,0,234,14l46,208h48L828,0Z" 
id="f1_1h"
transform="scale(0.001,-0.001)" />

<path d="M382,45c0,0,188,0,188,314c0,0,0,143,-47,213c0,0,-46,69,-141,69c0,0,-87,0,-146,-24V58c0,0,67,-13,146,-13ZM25,-325v35l88,18V649L34,668v33H231l1,-41c0,0,31,27,84,43c0,0,53,17,107,17c0,0,134,0,208,-94c0,0,73,-93,73,-267c0,0,0,-178,-80,-276c0,0,-80,-97,-232,-97c0,0,-84,0,-160,16c0,0,4,-53,4,-84V-272l123,-18v-35Z" 
id="f1_u"
transform="scale(0.001,-0.001)" />

<path d="M439,0V33l93,19V500c0,0,0,62,-30,97c0,0,-31,36,-94,36c0,0,-67,0,-165,-22V52L338,33V0H35V33l84,19V649L35,668v33H235l7,-57c0,0,57,33,122,54c0,0,65,22,108,22c0,0,91,0,137,-53c0,0,47,-53,47,-154V52L741,33V0Z" 
id="f1_a"
transform="scale(0.001,-0.001)" />

<path d="M383,64c0,0,85,0,152,28V645c0,0,-67,13,-152,13c0,0,-194,0,-194,-314c0,0,0,-141,48,-211c0,0,48,-69,146,-69ZM342,-14c0,0,-287,0,-287,358c0,0,0,184,82,280c0,0,81,96,239,96c0,0,81,0,163,-18c0,0,-4,25,-4,124v182l-118,18v34H659V52L745,33V0H548l-9,52c0,0,-84,-66,-197,-66Z" 
id="f1_e"
transform="scale(0.001,-0.001)" />

<path d="M32,0V34L151,52V649L52,668v33H275V52L395,34V0Zm71,835v24l146,203H408v-27L144,835Z" 
id="f1_q"
transform="scale(0.001,-0.001)" />

<path d="M278,-14c0,0,-52,0,-115,11c0,0,-63,10,-99,23V193H98L134,95c0,0,56,-50,146,-50c0,0,144,0,144,123c0,0,0,91,-114,130l-66,21c0,0,-75,25,-110,50c0,0,-34,26,-53,63c0,0,-18,36,-18,89c0,0,0,92,63,145c0,0,63,54,170,54c0,0,77,0,193,-23V544H454l-32,81c0,0,-39,35,-124,35c0,0,-61,0,-92,-30c0,0,-32,-30,-32,-80c0,0,0,-43,29,-72c0,0,28,-29,86,-48c0,0,110,-38,144,-55c0,0,33,-17,57,-42c0,0,23,-25,36,-57c0,0,13,-32,13,-79c0,0,0,-104,-66,-158c0,0,-66,-53,-195,-53Z" 
id="f1_g"
transform="scale(0.001,-0.001)" />

<path d="M376,50c0,0,103,0,149,80c0,0,46,81,46,240c0,0,0,137,-47,204c0,0,-48,67,-148,67c0,0,-44,0,-87,-7c0,0,-44,-8,-63,-17V62c0,0,63,-12,150,-12Zm3,-64c0,0,-64,0,-141,14c0,0,-78,14,-136,37v971L0,1026v34H226V809c0,0,0,-40,-4,-148c0,0,74,59,188,59c0,0,143,0,219,-87c0,0,77,-87,77,-263c0,0,0,-189,-84,-287c0,0,-84,-97,-243,-97Z" 
id="f1_v"
transform="scale(0.001,-0.001)" />

<path d="M289,-14c0,0,-179,0,-179,205V649L20,668v33H233V200c0,0,0,-128,120,-128c0,0,92,0,173,23V649L420,668v33H649V52L738,33V0H533l-6,57C527,57,474,28,405,7c0,0,-69,-21,-116,-21Z" 
id="f1_f"
transform="scale(0.001,-0.001)" />

<path d="M191,-20c0,0,-39,0,-65,25c0,0,-25,27,-25,64c0,0,0,38,26,64c0,0,26,26,64,26c0,0,38,0,64,-26c0,0,26,-26,26,-64c0,0,0,-37,-25,-64c0,0,-26,-25,-65,-25Z" 
id="f1_o"
transform="scale(0.001,-0.001)" />

<path d="M536,63c0,0,127,0,191,54c0,0,63,54,63,168c0,0,0,105,-70,154c0,0,-70,49,-225,49H316V67c0,0,103,-4,220,-4ZM480,555c0,0,121,0,178,48c0,0,57,48,57,155c0,0,0,91,-58,133c0,0,-57,42,-186,42H316V555ZM554,-4L235,0H44V40L172,60V941L44,960v40H501c0,0,191,0,279,-56c0,0,88,-56,88,-179c0,0,0,-88,-55,-149c0,0,-54,-62,-151,-83c0,0,135,-14,209,-79c0,0,73,-65,73,-166c0,0,0,-144,-99,-219C845,69,745,-4,554,-4Z" 
id="f1_1q"
transform="scale(0.001,-0.001)" />

<path d="M66,0V106H322c0,0,75,0,127,23c0,0,53,23,82,67c0,0,29,43,42,98c0,0,13,54,13,124c0,0,0,70,-13,124c0,0,-13,55,-42,98c0,0,-29,44,-82,67c0,0,-52,23,-127,23H66V836H322c0,0,87,0,157,-24c0,0,70,-24,115,-64c0,0,45,-40,74,-94c0,0,30,-55,43,-113c0,0,13,-59,13,-123c0,0,0,-64,-13,-123c0,0,-13,-58,-43,-113c0,0,-29,-54,-74,-94C594,88,549,48,479,24C479,24,409,0,322,0Z" 
id="f0_i"
transform="scale(0.001,-0.001)" />

<path d="M617,0L251,860V60L385,40V0H44V40L172,60V941L44,960v40H347L672,239l355,761h287V960L1185,941V60L1314,40V0H908V40l134,20V859L643,0Z" 
id="f1_1v"
transform="scale(0.001,-0.001)" />

<path d="M31,0V33L150,52v956L31,1026v34H274V52L394,33V0Z" 
id="f1_l"
transform="scale(0.001,-0.001)" />

<path d="M354,-200c0,0,-112,175,-167,343c0,0,-56,170,-56,337c0,0,0,166,55,335c0,0,55,169,168,345H473c0,0,-100,-172,-148,-340c0,0,-48,-168,-48,-340c0,0,0,-173,48,-342c0,0,49,-168,148,-338Z" 
id="f0_x"
transform="scale(0.001,-0.001)" />

<path d="M122,-200c0,0,99,170,148,338c0,0,49,169,49,342c0,0,0,172,-49,340c0,0,-49,168,-148,340H241c0,0,112,-176,168,-345c0,0,55,-169,55,-335c0,0,0,-167,-55,-337c0,0,-56,-168,-168,-343Z" 
id="f0_v"
transform="scale(0.001,-0.001)" />

<path d="M495,0V729H66V836H781V729H634V0Z" 
id="f0_q"
transform="scale(0.001,-0.001)" />

<path d="M522,92c0,0,247,0,247,333c0,0,0,88,-17,146c0,0,-17,58,-53,91c0,0,-35,33,-82,46c0,0,-48,14,-116,14H276V419c0,0,0,-327,246,-327Zm0,-112c0,0,-193,0,-289,109c0,0,-95,110,-95,337V836H501c0,0,213,0,309,-93c0,0,96,-94,96,-317c0,0,0,-227,-95,-337C811,89,715,-20,522,-20Z" 
id="f0_t"
transform="scale(0.001,-0.001)" />

<path d="M44,0V40L172,60V941L44,960v40H794V760H745L721,922c0,0,-83,11,-241,11H316V543H586l23,119h48V354H609L586,475H316V67H513c0,0,193,0,252,12l43,185h49L843,0Z" 
id="f1_d"
transform="scale(0.001,-0.001)" />

<path d="M148,-329c0,0,-58,0,-114,13v151H69l24,-71c0,0,23,-17,64,-17c0,0,39,0,72,22c0,0,33,23,60,67c0,0,27,44,68,157L90,649L19,668v33H344V668L233,648L423,158L606,649L497,668v33H758V668L685,652L411,-43c0,0,-48,-124,-84,-177c0,0,-36,-54,-79,-82c0,0,-44,-27,-100,-27Z" 
id="f1_7"
transform="scale(0.001,-0.001)" />

<path d="M431,0V33L535,52V499c0,0,0,62,-32,96c0,0,-32,33,-95,33c0,0,-66,0,-163,-22V52L350,33V0H32V33l89,19V649L32,668v33H237l6,-57c0,0,56,32,119,54c0,0,62,22,110,22c0,0,52,0,95,-20c0,0,44,-19,66,-62c0,0,57,32,134,57c0,0,77,25,128,25c0,0,179,0,179,-207V52l90,-19V0H846V33L950,52V499c0,0,0,129,-119,129c0,0,-19,0,-45,-3c0,0,-26,-3,-52,-7c0,0,-25,-4,-49,-8c0,0,-23,-5,-39,-8c0,0,13,-41,13,-89V52L764,33V0Z" 
id="f1_p"
transform="scale(0.001,-0.001)" />

<path d="M0,-14L351,1007h73L75,-14Z" 
id="f1_6"
transform="scale(0.001,-0.001)" />

<path d="M868,0L251,900V60L385,40V0H44V40L172,60V941L44,960v40H347L862,259V941L727,960v40h341V960L940,941V0Z" 
id="f1_1a"
transform="scale(0.001,-0.001)" />

<path d="M44,0V40L172,60V941L44,961v39H794V761H745L721,923c0,0,-83,10,-241,10H316V542H586l23,120h48V354H609L586,475H316V67H513c0,0,193,0,252,12l43,185h49L843,0ZM351,1084v25l146,202H656v-27L392,1084Z" 
id="f1_1m"
transform="scale(0.001,-0.001)" />

<path d="M736,107V473c0,0,0,147,-48,202c0,0,-49,54,-187,54H278V107ZM139,0V836H499c0,0,105,0,177,-22c0,0,72,-21,116,-69c0,0,44,-49,64,-119c0,0,19,-71,19,-174V0Z" 
id="f0_6"
transform="scale(0.001,-0.001)" />

<path d="M529,65c0,0,183,0,270,108c0,0,87,108,87,334c0,0,0,210,-113,318c0,0,-113,108,-322,108H316V71c0,0,90,-6,213,-6Zm0,-67L172,0H44V40L172,60V941L44,960v40H498c0,0,277,0,411,-123c0,0,133,-124,133,-371c0,0,0,-251,-129,-380C913,126,785,-2,529,-2Z" 
id="f1_13"
transform="scale(0.001,-0.001)" />

<path d="M553,159c0,0,76,0,113,49c0,0,38,49,38,147c0,0,0,98,-38,147c0,0,-37,49,-113,49c0,0,-76,0,-113,-49c0,0,-38,-49,-38,-147c0,0,0,-98,38,-147c0,0,37,-49,113,-49ZM550,-20c0,0,-217,0,-336,145C214,125,95,272,95,541c0,0,0,276,139,434c0,0,139,157,381,157c0,0,77,0,149,-11c0,0,73,-12,143,-36V879c0,0,-70,34,-133,50c0,0,-63,16,-122,16c0,0,-128,0,-200,-72c0,0,-71,-71,-83,-211c0,0,49,37,106,55c0,0,58,18,125,18c0,0,171,0,276,-100c0,0,105,-100,105,-262c0,0,0,-179,-117,-287C864,86,747,-20,550,-20Z" 
id="f2_6"
transform="scale(0.001,-0.001)" />

<path d="M543,-317V369c0,0,0,85,-8,143c0,0,-8,58,-27,101c0,0,-18,44,-51,69c0,0,-33,24,-80,36c0,0,-48,11,-117,11H66V836H257c0,0,125,0,205,-23c0,0,80,-23,130,-79c0,0,50,-56,70,-143c0,0,20,-86,20,-222V-317Z" 
id="f0_2"
transform="scale(0.001,-0.001)" />

<path d="M360,-14L72,649L0,668v33H327V668L216,648L420,164L615,649L504,668v33H764V668L697,652L416,-14Z" 
id="f1_s"
transform="scale(0.001,-0.001)" />

<path d="M289,-14c0,0,-179,0,-179,205V649L20,668v33H233V200c0,0,0,-128,120,-128c0,0,92,0,173,23V649L420,668v33H649V52L738,34V0H533l-6,57C527,57,474,28,405,6c0,0,-69,-20,-116,-20Zm24,849v24l147,203H618v-27L354,835Z" 
id="f1_i"
transform="scale(0.001,-0.001)" />

<path d="M495,413c0,0,0,133,-34,190c0,0,-34,57,-105,57c0,0,-78,0,-119,-62c0,0,-42,-63,-42,-185ZM374,-14c0,0,-163,0,-239,87c0,0,-75,88,-75,283c0,0,0,183,77,274c0,0,76,90,219,90c0,0,269,0,269,-306V353H194V339c0,0,0,-103,23,-160c0,0,22,-57,70,-86c0,0,47,-30,124,-30c0,0,40,0,96,6c0,0,55,7,91,15V43C598,43,562,19,500,2c0,0,-61,-16,-126,-16ZM285,835v24l146,203H590v-27L326,835Z" 
id="f1_k"
transform="scale(0.001,-0.001)" />

<path d="M557,-14c0,0,-199,0,-298,89c0,0,-99,90,-99,255V941L32,960v40H432V960L304,941V341c0,0,0,-273,264,-273c0,0,144,0,220,68c0,0,77,68,77,202V941L730,960v40h341V960L943,941V344c0,0,0,-180,-99,-269c0,0,-99,-89,-287,-89Z" 
id="f1_n"
transform="scale(0.001,-0.001)" />

<path d="M228,0L639,903H103v211H942V952L508,0Z" 
id="f2_10"
transform="scale(0.001,-0.001)" />

<path d="M138,-7c0,0,-34,0,-72,10V129c0,0,25,-8,52,-8c0,0,33,0,58,5c0,0,26,5,58,24c0,0,33,20,53,54c0,0,21,34,36,97c0,0,15,64,15,151c0,0,0,113,-19,173c0,0,-19,60,-56,82c0,0,-38,22,-107,22H89V836h72c0,0,165,0,240,-91c0,0,76,-91,76,-293c0,0,0,-107,26,-227c0,0,25,-119,83,-225H437c0,0,-43,101,-62,184c0,0,-24,-60,-51,-99c0,0,-26,-38,-56,-58C268,27,239,7,209,0c0,0,-30,-7,-71,-7Z" 
id="f0_k"
transform="scale(0.001,-0.001)" />

<path d="M532,159c0,0,79,0,122,44c0,0,42,44,42,126c0,0,0,82,-42,126c0,0,-43,44,-122,44c0,0,-81,0,-124,-44c0,0,-43,-44,-43,-126c0,0,0,-82,43,-126c0,0,43,-44,124,-44Zm0,520c0,0,67,0,104,35c0,0,37,36,37,102c0,0,0,67,-37,102c0,0,-37,35,-104,35c0,0,-69,0,-106,-35c0,0,-37,-36,-37,-102c0,0,0,-66,37,-102c0,0,37,-35,106,-35Zm0,-699c0,0,-218,0,-328,83C204,63,93,148,93,314c0,0,0,107,58,178c0,0,58,70,171,101c0,0,-102,31,-153,94c0,0,-52,64,-52,159c0,0,0,141,106,214c0,0,105,74,309,74c0,0,202,0,307,-73c0,0,106,-74,106,-215c0,0,0,-95,-52,-159c0,0,-52,-63,-154,-94c0,0,113,-31,171,-101c0,0,58,-71,58,-178c0,0,0,-166,-110,-251c0,0,-110,-83,-326,-83Z" 
id="f2_11"
transform="scale(0.001,-0.001)" />

<path d="M700,-317V454c0,0,0,155,-54,215c0,0,-54,60,-180,60H277V551c0,0,0,-55,26,-80c0,0,27,-26,82,-26c0,0,30,0,80,10V341c0,0,-61,-11,-111,-11c0,0,-100,0,-157,55c0,0,-58,55,-58,186V836H466c0,0,203,0,288,-91c0,0,85,-92,85,-293V-317Z" 
id="f0_z"
transform="scale(0.001,-0.001)" />


</defs>
</svg>