<?xml version="1.0" encoding="UTF-8" standalone="no"?>
<!DOCTYPE svg PUBLIC "-//W3C//DTD SVG 1.1//EN"
"http://www.w3.org/Graphics/SVG/1.1/DTD/svg11.dtd">
<svg viewBox="0 0 909 1286" version="1.1" xmlns="http://www.w3.org/2000/svg" xmlns:xlink="http://www.w3.org/1999/xlink">
<defs>
<clipPath id="c0_23"><path d="M0,1286.2V0H909.4V1286.2Z" /></clipPath>
<style type="text/css"><![CDATA[
.g0_23{
fill: none;
stroke: #0000FF;
stroke-width: 1.0694444;
stroke-linecap: butt;
stroke-linejoin: miter;
}
]]></style>
</defs>
<g clip-path="url(#c0_23)">
<g fill="#000000" >
<use xlink:href="#f0_m" transform="matrix(12,0,0,12,138.1,127.1)" />
<use xlink:href="#f0_9" transform="matrix(12,0,0,12,143.9,127.1)" />
<use xlink:href="#f0_3" transform="matrix(12,0,0,12,154.3,127.1)" />
<use xlink:href="#f0_t" transform="matrix(12,0,0,12,173.5,127.1)" />
<use xlink:href="#f0_n" transform="matrix(12,0,0,12,185.4,127.1)" />
<use xlink:href="#f0_f" transform="matrix(12,0,0,12,196.7,127.1)" />
<use xlink:href="#f0_7" transform="matrix(12,0,0,12,215.6,127.1)" />
<use xlink:href="#f0_5" transform="matrix(12,0,0,12,220.5,127.1)" />
<use xlink:href="#f0_4" transform="matrix(12,0,0,12,224.6,127.1)" />
<use xlink:href="#f0_o" transform="matrix(12,0,0,12,236.7,127.1)" />
<use xlink:href="#f0_8" transform="matrix(12,0,0,12,248.6,127.1)" />
<use xlink:href="#f0_m" transform="matrix(12,0,0,12,265.5,127.1)" />
<use xlink:href="#f0_e" transform="matrix(12,0,0,12,271.3,127.1)" />
<use xlink:href="#f0_r" transform="matrix(12,0,0,12,283.5,127.1)" />
<use xlink:href="#f0_19" transform="matrix(12,0,0,12,301.6,127.1)" />
<use xlink:href="#f0_5" transform="matrix(12,0,0,12,311.6,127.1)" />
<use xlink:href="#f0_3" transform="matrix(12,0,0,12,315.7,127.1)" />
<use xlink:href="#f0_8" transform="matrix(12,0,0,12,328.6,127.1)" />
<use xlink:href="#f0_q" transform="matrix(12,0,0,12,345.4,127.1)" />
<use xlink:href="#f0_7" transform="matrix(12,0,0,12,351.2,127.1)" />
<use xlink:href="#f0_5" transform="matrix(12,0,0,12,356.3,127.1)" />
<use xlink:href="#f0_4" transform="matrix(12,0,0,12,360.4,127.1)" />
<use xlink:href="#f0_o" transform="matrix(12,0,0,12,372.4,127.1)" />
<use xlink:href="#f0_a" transform="matrix(12,0,0,12,384.3,127.1)" />
<use xlink:href="#f0_7" transform="matrix(12,0,0,12,396.2,127.1)" />
<use xlink:href="#f0_m" transform="matrix(12,0,0,12,407.6,127.1)" />
<use xlink:href="#f0_8" transform="matrix(12,0,0,12,413.5,127.1)" />
<use xlink:href="#f0_5" transform="matrix(12,0,0,12,424,127.1)" />
<use xlink:href="#f0_8" transform="matrix(12,0,0,12,428.1,127.1)" />
<use xlink:href="#f0_c" transform="matrix(12,0,0,12,438.6,127.1)" />
<use xlink:href="#f0_a" transform="matrix(12,0,0,12,450.9,127.1)" />
<use xlink:href="#f0_m" transform="matrix(12,0,0,12,469.2,127.1)" />
<use xlink:href="#f0_10" transform="matrix(12,0,0,12,475,127.1)" />
<use xlink:href="#f0_9" transform="matrix(12,0,0,12,486.7,127.1)" />
<use xlink:href="#f0_7" transform="matrix(12,0,0,12,497.1,127.1)" />
<use xlink:href="#f0_r" transform="matrix(12,0,0,12,502.1,127.1)" />
<use xlink:href="#f0_a" transform="matrix(12,0,0,12,514.1,127.1)" />
<use xlink:href="#f0_m" transform="matrix(12,0,0,12,532.2,127.1)" />
<use xlink:href="#f0_19" transform="matrix(12,0,0,12,538,127.1)" />
<use xlink:href="#f0_5" transform="matrix(12,0,0,12,547.9,127.1)" />
<use xlink:href="#f0_3" transform="matrix(12,0,0,12,552,127.1)" />
<use xlink:href="#f0_a" transform="matrix(12,0,0,12,565,127.1)" />
<use xlink:href="#f0_v" transform="matrix(12,0,0,12,583.3,127.1)" />
<use xlink:href="#f0_4" transform="matrix(12,0,0,12,589.4,127.1)" />
<use xlink:href="#f0_7" transform="matrix(12,0,0,12,601.3,127.1)" />
<use xlink:href="#f0_d" transform="matrix(12,0,0,12,606.3,127.1)" />
<use xlink:href="#f0_7" transform="matrix(12,0,0,12,613.7,127.1)" />
<use xlink:href="#f0_n" transform="matrix(12,0,0,12,618.7,127.1)" />
<use xlink:href="#f0_n" transform="matrix(12,0,0,12,636.5,127.1)" />
<use xlink:href="#f0_8" transform="matrix(12,0,0,12,648,127.1)" />
<use xlink:href="#f0_9" transform="matrix(12,0,0,12,658.5,127.1)" />
<use xlink:href="#f0_c" transform="matrix(12,0,0,12,668.9,127.1)" />
<use xlink:href="#f0_b" transform="matrix(12,0,0,12,687.4,127.1)" />
<use xlink:href="#f0_5" transform="matrix(12,0,0,12,700.3,127.1)" />
<use xlink:href="#f0_2" transform="matrix(12,0,0,12,710.7,127.1)" />
<use xlink:href="#f0_c" transform="matrix(12,0,0,12,721.1,127.1)" />
<use xlink:href="#f0_9" transform="matrix(12,0,0,12,733.3,127.1)" />
<use xlink:href="#f0_b" transform="matrix(12,0,0,12,743.7,127.1)" />
<use xlink:href="#f0_5" transform="matrix(12,0,0,12,756.7,127.1)" />
<use xlink:href="#f0_8" transform="matrix(12,0,0,12,760.8,127.1)" />
<use xlink:href="#f0_q" transform="matrix(12,0,0,12,163.9,148.5)" />
<use xlink:href="#f0_e" transform="matrix(12,0,0,12,169.7,148.5)" />
<use xlink:href="#f0_5" transform="matrix(12,0,0,12,182,148.5)" />
<use xlink:href="#f0_3" transform="matrix(12,0,0,12,186.1,148.5)" />
<use xlink:href="#f0_9" transform="matrix(12,0,0,12,199,148.5)" />
<use xlink:href="#f0_c" transform="matrix(12,0,0,12,209.4,148.5)" />
<use xlink:href="#f0_j" transform="matrix(12,0,0,12,221.6,148.5)" />
<use xlink:href="#f0_8" transform="matrix(12,0,0,12,233.1,148.5)" />
<use xlink:href="#f0_l" transform="matrix(12,0,0,12,249.4,148.5)" />
<use xlink:href="#f0_7" transform="matrix(12,0,0,12,259.5,148.5)" />
<use xlink:href="#f0_n" transform="matrix(12,0,0,12,264.5,148.5)" />
<use xlink:href="#f0_g" transform="matrix(12,0,0,12,276,148.5)" />
<use xlink:href="#f0_2" transform="matrix(12,0,0,12,286.8,148.5)" />
<use xlink:href="#f0_a" transform="matrix(12,0,0,12,303.2,148.5)" />
<use xlink:href="#f0_j" transform="matrix(12,0,0,12,315.1,148.5)" />
<use xlink:href="#f0_5" transform="matrix(12,0,0,12,326.4,148.5)" />
<use xlink:href="#f0_l" transform="matrix(12,0,0,12,336.3,148.5)" />
<use xlink:href="#f0_c" transform="matrix(12,0,0,12,346.4,148.5)" />
<use xlink:href="#f0_f" transform="matrix(12,0,0,12,358.6,148.5)" />
<use xlink:href="#f0_a" transform="matrix(12,0,0,12,376.9,148.5)" />
<use xlink:href="#f0_i" transform="matrix(12,0,0,12,388.8,148.5)" />
<use xlink:href="#f0_7" transform="matrix(12,0,0,12,395.2,148.5)" />
<use xlink:href="#f0_r" transform="matrix(12,0,0,12,406.1,148.5)" />
<use xlink:href="#f0_9" transform="matrix(12,0,0,12,418,148.5)" />
<use xlink:href="#f0_7" transform="matrix(12,0,0,12,428.4,148.5)" />
<use xlink:href="#f0_j" transform="matrix(12,0,0,12,433.3,148.5)" />
<use xlink:href="#f0_2" transform="matrix(12,0,0,12,450.8,148.5)" />
<use xlink:href="#f0_h" transform="matrix(12,0,0,12,461.2,148.5)" />
<use xlink:href="#f0_a" transform="matrix(12,0,0,12,470.8,148.5)" />
<use xlink:href="#f0_8" transform="matrix(12,0,0,12,488.7,148.5)" />
<use xlink:href="#f0_5" transform="matrix(12,0,0,12,499.2,148.5)" />
<use xlink:href="#f0_8" transform="matrix(12,0,0,12,503.3,148.5)" />
<use xlink:href="#f0_c" transform="matrix(12,0,0,12,513.9,148.5)" />
<use xlink:href="#f0_8" transform="matrix(12,0,0,12,526.1,148.5)" />
<use xlink:href="#f0_7" transform="matrix(12,0,0,12,536.6,148.5)" />
<use xlink:href="#f0_m" transform="matrix(12,0,0,12,547.5,148.5)" />
<use xlink:href="#f0_x" transform="matrix(12,0,0,12,553.3,148.5)" />
<use xlink:href="#f0_9" transform="matrix(12,0,0,12,560.4,148.5)" />
<use xlink:href="#f0_7" transform="matrix(12,0,0,12,570.8,148.5)" />
<use xlink:href="#f0_3" transform="matrix(12,0,0,12,575.8,148.5)" />
<use xlink:href="#f0_a" transform="matrix(12,0,0,12,594.8,148.5)" />
<use xlink:href="#f0_8" transform="matrix(12,0,0,12,606.7,148.5)" />
<use xlink:href="#f0_9" transform="matrix(12,0,0,12,617.2,148.5)" />
<use xlink:href="#f0_a" transform="matrix(12,0,0,12,627.6,148.5)" />
<use xlink:href="#f0_y" transform="matrix(12,0,0,12,639.5,148.5)" />
<use xlink:href="#f0_9" transform="matrix(12,0,0,12,652.5,148.5)" />
<use xlink:href="#f0_3" transform="matrix(12,0,0,12,662.9,148.5)" />
<use xlink:href="#f0_l" transform="matrix(12,0,0,12,681.7,148.5)" />
<use xlink:href="#f0_c" transform="matrix(12,0,0,12,691.6,148.5)" />
<use xlink:href="#f0_f" transform="matrix(12,0,0,12,703.8,148.5)" />
<use xlink:href="#f0_10" transform="matrix(12,0,0,12,722.1,148.5)" />
<use xlink:href="#f0_9" transform="matrix(12,0,0,12,733.9,148.5)" />
<use xlink:href="#f0_7" transform="matrix(12,0,0,12,744.3,148.5)" />
<use xlink:href="#f0_r" transform="matrix(12,0,0,12,749.3,148.5)" />
<use xlink:href="#f0_8" transform="matrix(12,0,0,12,761.2,148.5)" />
<use xlink:href="#f0_7" transform="matrix(12,0,0,12,138.4,169.9)" />
<use xlink:href="#f0_d" transform="matrix(12,0,0,12,143.4,169.9)" />
<use xlink:href="#f0_c" transform="matrix(12,0,0,12,150.8,169.9)" />
<use xlink:href="#f0_7" transform="matrix(12,0,0,12,172.7,169.9)" />
<use xlink:href="#f0_5" transform="matrix(12,0,0,12,177.8,169.9)" />
<use xlink:href="#f0_b" transform="matrix(12,0,0,12,181.9,169.9)" />
<use xlink:href="#f0_h" transform="matrix(12,0,0,12,194.8,169.9)" />
<use xlink:href="#f0_n" transform="matrix(12,0,0,12,204.5,169.9)" />
<use xlink:href="#f0_q" transform="matrix(12,0,0,12,225.7,169.9)" />
<use xlink:href="#f0_e" transform="matrix(12,0,0,12,231.5,169.9)" />
<use xlink:href="#f0_5" transform="matrix(12,0,0,12,243.5,169.9)" />
<use xlink:href="#f0_2" transform="matrix(12,0,0,12,247.6,169.9)" />
<use xlink:href="#f0_b" transform="matrix(12,0,0,12,258,169.9)" />
<use xlink:href="#f0_7" transform="matrix(12,0,0,12,271,169.9)" />
<use xlink:href="#f0_9" transform="matrix(12,0,0,12,276,169.9)" />
<use xlink:href="#f0_5" transform="matrix(12,0,0,12,286.4,169.9)" />
<use xlink:href="#f0_8" transform="matrix(12,0,0,12,290.5,169.9)" />
<use xlink:href="#f0_l" transform="matrix(12,0,0,12,310.8,169.9)" />
<use xlink:href="#f0_7" transform="matrix(12,0,0,12,320.7,169.9)" />
<use xlink:href="#f0_r" transform="matrix(12,0,0,12,325.8,169.9)" />
<use xlink:href="#f0_5" transform="matrix(12,0,0,12,337.7,169.9)" />
<use xlink:href="#f0_5" transform="matrix(12,0,0,12,341.8,169.9)" />
<use xlink:href="#f0_8" transform="matrix(12,0,0,12,345.9,169.9)" />
<use xlink:href="#f0_m" transform="matrix(12,0,0,12,366.3,169.9)" />
<use xlink:href="#f0_s" transform="matrix(12,0,0,12,372.1,169.9)" />
<use xlink:href="#f0_2" transform="matrix(12,0,0,12,379.6,169.9)" />
<use xlink:href="#f0_b" transform="matrix(12,0,0,12,390,169.9)" />
<use xlink:href="#f0_l" transform="matrix(12,0,0,12,412.6,169.9)" />
<use xlink:href="#f0_9" transform="matrix(12,0,0,12,422.7,169.9)" />
<use xlink:href="#f0_7" transform="matrix(12,0,0,12,433,169.9)" />
<use xlink:href="#f0_5" transform="matrix(12,0,0,12,437.9,169.9)" />
<use xlink:href="#f0_e" transform="matrix(12,0,0,12,451.8,169.9)" />
<use xlink:href="#f0_5" transform="matrix(12,0,0,12,463.9,169.9)" />
<use xlink:href="#f0_4" transform="matrix(12,0,0,12,468,169.9)" />
<use xlink:href="#f0_5" transform="matrix(12,0,0,12,480,169.9)" />
<use xlink:href="#f0_n" transform="matrix(12,0,0,12,484.1,169.9)" />
<use xlink:href="#f0_2" transform="matrix(12,0,0,12,495.6,169.9)" />
<use xlink:href="#f0_k" transform="matrix(12,0,0,12,515.7,169.9)" />
<use xlink:href="#f0_c" transform="matrix(12,0,0,12,525.5,169.9)" />
<use xlink:href="#f0_m" transform="matrix(12,0,0,12,547.4,169.9)" />
<use xlink:href="#f0_e" transform="matrix(12,0,0,12,553.2,169.9)" />
<use xlink:href="#f0_b" transform="matrix(12,0,0,12,565.5,169.9)" />
<use xlink:href="#f0_s" transform="matrix(12,0,0,12,578.4,169.9)" />
<use xlink:href="#f0_a" transform="matrix(12,0,0,12,595.8,169.9)" />
<use xlink:href="#f0_8" transform="matrix(12,0,0,12,607.7,169.9)" />
<use xlink:href="#f0_9" transform="matrix(12,0,0,12,618.3,169.9)" />
<use xlink:href="#f0_a" transform="matrix(12,0,0,12,628.7,169.9)" />
<use xlink:href="#f0_l" transform="matrix(12,0,0,12,650.3,169.9)" />
<use xlink:href="#f0_9" transform="matrix(12,0,0,12,660.2,169.9)" />
<use xlink:href="#f0_7" transform="matrix(12,0,0,12,670.6,169.9)" />
<use xlink:href="#f0_5" transform="matrix(12,0,0,12,675.5,169.9)" />
<use xlink:href="#f0_c" transform="matrix(12,0,0,12,689.5,169.9)" />
<use xlink:href="#f0_2" transform="matrix(12,0,0,12,701.8,169.9)" />
<use xlink:href="#f0_10" transform="matrix(12,0,0,12,721.7,169.9)" />
<use xlink:href="#f0_9" transform="matrix(12,0,0,12,733.5,169.9)" />
<use xlink:href="#f0_7" transform="matrix(12,0,0,12,743.9,169.9)" />
<use xlink:href="#f0_r" transform="matrix(12,0,0,12,748.9,169.9)" />
<use xlink:href="#f0_8" transform="matrix(12,0,0,12,760.8,169.9)" />
<use xlink:href="#f0_q" transform="matrix(12,0,0,12,465.4,191.3)" />
<use xlink:href="#f0_e" transform="matrix(12,0,0,12,471.2,191.3)" />
<use xlink:href="#f0_5" transform="matrix(12,0,0,12,483.4,191.3)" />
<use xlink:href="#f0_9" transform="matrix(12,0,0,12,487.5,191.3)" />
<use xlink:href="#f0_5" transform="matrix(12,0,0,12,497.9,191.3)" />
<use xlink:href="#f0_a" transform="matrix(12,0,0,12,502,191.3)" />
<use xlink:href="#f0_8" transform="matrix(12,0,0,12,513.9,191.3)" />
<use xlink:href="#f0_e" transform="matrix(12,0,0,12,530.2,191.3)" />
<use xlink:href="#f0_d" transform="matrix(12,0,0,12,542.5,191.3)" />
<use xlink:href="#f0_5" transform="matrix(12,0,0,12,549.8,191.3)" />
<use xlink:href="#f0_c" transform="matrix(12,0,0,12,553.9,191.3)" />
<use xlink:href="#f0_e" transform="matrix(12,0,0,12,571.9,191.3)" />
<use xlink:href="#f0_5" transform="matrix(12,0,0,12,584.1,191.3)" />
<use xlink:href="#f0_5" transform="matrix(12,0,0,12,588.1,191.3)" />
<use xlink:href="#f0_f" transform="matrix(12,0,0,12,592.2,191.3)" />
<use xlink:href="#f0_b" transform="matrix(12,0,0,12,604.7,191.3)" />
<use xlink:href="#f0_a" transform="matrix(12,0,0,12,617.7,191.3)" />
<use xlink:href="#f0_q" transform="matrix(12,0,0,12,635.6,191.3)" />
<use xlink:href="#f0_p" transform="matrix(12,0,0,12,641.4,191.3)" />
<use xlink:href="#f0_d" transform="matrix(12,0,0,12,646.3,191.3)" />
<use xlink:href="#f0_7" transform="matrix(12,0,0,12,653.6,191.3)" />
<use xlink:href="#f0_n" transform="matrix(12,0,0,12,658.6,191.3)" />
<use xlink:href="#f0_f" transform="matrix(12,0,0,12,670.1,191.3)" />
<use xlink:href="#f0_7" transform="matrix(12,0,0,12,682.5,191.3)" />
<use xlink:href="#f0_9" transform="matrix(12,0,0,12,693.3,191.3)" />
<use xlink:href="#f0_3" transform="matrix(12,0,0,12,703.7,191.3)" />
<use xlink:href="#f0_m" transform="matrix(12,0,0,12,722.6,191.3)" />
<use xlink:href="#f0_7" transform="matrix(12,0,0,12,728.4,191.3)" />
<use xlink:href="#f0_5" transform="matrix(12,0,0,12,733.3,191.3)" />
<use xlink:href="#f0_4" transform="matrix(12,0,0,12,737.4,191.3)" />
<use xlink:href="#f0_o" transform="matrix(12,0,0,12,749.5,191.3)" />
<use xlink:href="#f0_8" transform="matrix(12,0,0,12,761.4,191.3)" />
</g>
<g fill="#0000FF" >
<use xlink:href="#f0_3" transform="matrix(12,0,0,12,669.9,231.9)" />
<use xlink:href="#f0_9" transform="matrix(12,0,0,12,682.9,231.9)" />
<use xlink:href="#f0_j" transform="matrix(12,0,0,12,693.1,231.9)" />
<use xlink:href="#f0_2" transform="matrix(12,0,0,12,704.6,231.9)" />
<use xlink:href="#f0_a" transform="matrix(12,0,0,12,720.9,231.9)" />
<use xlink:href="#f0_9" transform="matrix(12,0,0,12,732.8,231.9)" />
<use xlink:href="#f0_i" transform="matrix(12,0,0,12,743.2,231.9)" />
<use xlink:href="#f0_r" transform="matrix(12,0,0,12,749.6,231.9)" />
<use xlink:href="#f0_8" transform="matrix(12,0,0,12,761.5,231.9)" />
</g>
</g>
<path d="M669.8,233.8H772.1" class="g0_23" />
<g clip-path="url(#c0_23)">
<g fill="#000000" >
<use xlink:href="#f0_14" transform="matrix(11,0,0,11,137.5,1208.9)" />
<use xlink:href="#f0_16" transform="matrix(11,0,0,11,148.2,1208.9)" />
</g>
</g>
<defs>
<path d="M117,-176L179,62V190H336V62L213,-176Z" 
id="f0_m"
transform="scale(0.001,-0.001)" />

<path d="M585,0V426c0,0,0,54,-8,98c0,0,-8,44,-27,83c0,0,-19,40,-49,66c0,0,-30,26,-77,41c0,0,-47,15,-108,15H66V836H315c0,0,94,0,166,-20c0,0,71,-20,116,-54c0,0,46,-35,75,-88c0,0,28,-52,40,-112c0,0,12,-60,12,-137V0Z" 
id="f0_9"
transform="scale(0.001,-0.001)" />

<path d="M156,-317V454l139,56V-317ZM505,0L806,729H139V835H967V753L650,0Z" 
id="f0_3"
transform="scale(0.001,-0.001)" />

<path d="M522,-20c0,0,-196,0,-290,99c0,0,-94,100,-94,324V836H276V397c0,0,0,-86,16,-147c0,0,17,-60,50,-94c0,0,34,-34,77,-49c0,0,43,-15,103,-15c0,0,59,0,102,15c0,0,44,15,77,49c0,0,33,34,50,94c0,0,17,61,17,147c0,0,0,84,-8,143c0,0,-7,58,-25,105c0,0,-17,47,-51,69c0,0,-33,23,-83,23c0,0,-50,0,-119,-22V821c0,0,85,23,150,23c0,0,76,0,130,-30c0,0,53,-31,85,-90c0,0,31,-59,45,-138c0,0,13,-78,13,-183c0,0,0,-224,-93,-324c0,0,-94,-99,-290,-99Z" 
id="f0_t"
transform="scale(0.001,-0.001)" />

<path d="M71,-141V-15L289,62L66,836H210L416,109c0,0,99,42,153,98c0,0,53,56,80,155c0,0,26,98,26,262V836H817V624c0,0,0,-88,-7,-154c0,0,-7,-67,-25,-132c0,0,-18,-66,-51,-116c0,0,-33,-51,-84,-98c0,0,-50,-48,-123,-87c0,0,-72,-39,-169,-74L71,-141Z" 
id="f0_n"
transform="scale(0.001,-0.001)" />

<path d="M114,0l60,312c0,0,2,12,8,39c0,0,6,27,7,37c0,0,2,11,5,30c0,0,2,19,4,33c0,0,1,15,1,31c0,0,0,48,-35,146c0,0,-35,98,-98,208H228c0,0,3,-8,27,-67c0,0,25,-58,41,-117c0,0,21,53,50,90c0,0,29,37,57,57c0,0,29,21,65,32c0,0,37,11,65,14c0,0,28,3,67,3c0,0,300,0,300,-396V0H480V106H761V452c0,0,0,146,-46,215c0,0,-45,70,-118,70c0,0,-134,0,-198,-119c0,0,-36,-68,-67,-222c0,0,-2,-10,-6,-27L253,0Z" 
id="f0_f"
transform="scale(0.001,-0.001)" />

<path d="M139,0V836H278V0Z" 
id="f0_7"
transform="scale(0.001,-0.001)" />

<path d="M102,312V836H241V369L102,312Z" 
id="f0_5"
transform="scale(0.001,-0.001)" />

<path d="M112,-5c0,0,-39,0,-97,11V113c0,0,48,-10,77,-10c0,0,53,0,70,42c0,0,17,43,17,164V729H50V836H501c0,0,107,0,179,-25c0,0,72,-25,112,-77c0,0,40,-51,57,-118c0,0,16,-67,16,-164V0H726V454c0,0,0,55,-3,92c0,0,-4,37,-17,75c0,0,-14,38,-38,59c0,0,-24,22,-65,36c0,0,-42,13,-102,13H318V309c0,0,0,-160,-46,-237C272,72,226,-5,112,-5Z" 
id="f0_4"
transform="scale(0.001,-0.001)" />

<path d="M522,92c0,0,247,0,247,333c0,0,0,88,-17,146c0,0,-17,58,-53,91c0,0,-35,33,-82,46c0,0,-48,14,-116,14H276V419c0,0,0,-327,246,-327Zm0,-112c0,0,-193,0,-289,109c0,0,-95,110,-95,337V836H501c0,0,213,0,309,-93c0,0,96,-94,96,-317c0,0,0,-227,-95,-337C811,89,715,-20,522,-20Z" 
id="f0_o"
transform="scale(0.001,-0.001)" />

<path d="M66,0V107H554V452c0,0,0,56,-4,93c0,0,-4,37,-18,75c0,0,-14,38,-40,60c0,0,-26,22,-71,36c0,0,-45,13,-110,13H66V836H312c0,0,91,0,157,-17c0,0,66,-17,109,-49c0,0,44,-32,69,-84c0,0,26,-52,36,-114c0,0,10,-62,10,-147V107H817V0Z" 
id="f0_8"
transform="scale(0.001,-0.001)" />

<path d="M736,107V473c0,0,0,147,-48,202c0,0,-49,54,-187,54H278V107ZM139,0V836H499c0,0,105,0,177,-22c0,0,72,-21,116,-69c0,0,44,-49,64,-119c0,0,19,-71,19,-174V0Z" 
id="f0_e"
transform="scale(0.001,-0.001)" />

<path d="M139,0V836H485c0,0,206,0,290,-90c0,0,84,-89,84,-294V0H721V473c0,0,0,147,-49,202c0,0,-48,54,-186,54H277V0Z" 
id="f0_r"
transform="scale(0.001,-0.001)" />

<path d="M347,-317V284c0,0,0,59,-21,123c0,0,-21,64,-44,103c0,0,-23,40,-59,94L66,838H218L336,668c0,0,76,-109,120,-223c0,0,87,34,126,107c0,0,39,73,39,186v98H758V737c0,0,0,-82,-23,-152c0,0,-23,-69,-61,-116c0,0,-39,-47,-87,-78c0,0,-47,-31,-101,-45V-317Z" 
id="f0_19"
transform="scale(0.001,-0.001)" />

<path d="M163,0V190H321V0Z" 
id="f0_q"
transform="scale(0.001,-0.001)" />

<path d="M154,0V454l138,56V0ZM722,0V454c0,0,0,161,-49,218c0,0,-48,57,-186,57H139V836H485c0,0,207,0,291,-93c0,0,83,-94,83,-318V0Z" 
id="f0_a"
transform="scale(0.001,-0.001)" />

<path d="M139,0V138c0,0,0,61,8,112c0,0,7,52,19,87c0,0,11,36,30,66c0,0,19,31,35,49c0,0,17,19,41,35c0,0,25,17,41,25c0,0,17,7,40,17L141,836H303L613,388c0,0,20,10,33,18c0,0,13,8,34,28c0,0,20,20,33,44c0,0,13,25,22,66c0,0,10,41,10,92V836H882V698c0,0,0,-61,-7,-112c0,0,-6,-52,-18,-88c0,0,-12,-36,-30,-66c0,0,-19,-30,-36,-49c0,0,-17,-18,-41,-34c0,0,-24,-17,-40,-25c0,0,-17,-8,-41,-17L882,0H720L409,448c0,0,-21,-11,-34,-19c0,0,-13,-8,-34,-27c0,0,-21,-20,-34,-44c0,0,-12,-25,-22,-66c0,0,-9,-41,-9,-92V0Z" 
id="f0_c"
transform="scale(0.001,-0.001)" />

<path d="M700,-317V454c0,0,0,155,-54,215c0,0,-54,60,-180,60H277V551c0,0,0,-55,26,-80c0,0,27,-26,82,-26c0,0,30,0,80,10V341c0,0,-61,-11,-111,-11c0,0,-100,0,-157,55c0,0,-58,55,-58,186V836H466c0,0,203,0,288,-91c0,0,85,-92,85,-293V-317Z" 
id="f0_10"
transform="scale(0.001,-0.001)" />

<path d="M179,0V190H336V0Zm0,600V790H336V600Z" 
id="f0_v"
transform="scale(0.001,-0.001)" />

<path d="M66,0V107H332V555c0,0,0,92,-37,133c0,0,-37,41,-116,41H85V836h94c0,0,153,0,223,-66c0,0,69,-66,69,-231V0Z" 
id="f0_d"
transform="scale(0.001,-0.001)" />

<path d="M180,0L66,836H203L258,443c0,0,36,1,64,6c0,0,28,6,49,18c0,0,20,12,35,26c0,0,15,13,26,36c0,0,11,24,17,44c0,0,7,20,12,55c0,0,6,34,9,60c0,0,3,26,8,71c0,0,4,45,9,77H610c0,0,-13,-194,-31,-271c0,0,-31,-127,-111,-179c0,0,-71,-45,-196,-50L304,107c0,0,73,0,130,5c0,0,56,6,111,21c0,0,54,15,94,40c0,0,40,25,77,64c0,0,37,39,63,94c0,0,25,54,46,128c0,0,21,73,34,166c0,0,13,94,20,211h138c0,0,-14,-124,-29,-218c0,0,-16,-94,-39,-179c0,0,-22,-85,-50,-146c0,0,-28,-61,-68,-112c0,0,-39,-51,-87,-84C744,97,696,65,632,42C632,42,568,19,492,10C492,10,417,0,320,0Z" 
id="f0_b"
transform="scale(0.001,-0.001)" />

<path d="M287,0L589,729H66v386H205V836l547,-1l-2,-82L433,0Z" 
id="f0_2"
transform="scale(0.001,-0.001)" />

<path d="M139,0V106H400c0,0,176,0,253,71c0,0,78,72,78,250c0,0,0,163,-80,233c0,0,-81,69,-250,69H278L277,564c0,0,-1,-54,26,-80c0,0,27,-25,82,-25c0,0,30,0,80,9V355c0,0,-61,-12,-111,-12c0,0,-100,0,-157,55c0,0,-58,55,-58,186V836H456c0,0,193,0,303,-109c0,0,110,-109,110,-309c0,0,0,-200,-110,-309C759,109,648,0,456,0Z" 
id="f0_j"
transform="scale(0.001,-0.001)" />

<path d="M495,0V729H66V836H781V729H634V0Z" 
id="f0_l"
transform="scale(0.001,-0.001)" />

<path d="M66,0V106H564L66,836H228L516,413c0,0,3,2,9,6c0,0,17,13,27,21c0,0,10,8,26,27c0,0,17,20,26,40c0,0,9,21,16,54c0,0,7,34,7,75V836H764V698c0,0,0,-55,-7,-102c0,0,-7,-47,-16,-79c0,0,-10,-33,-27,-62c0,0,-18,-29,-32,-46c0,0,-14,-17,-37,-35c0,0,-22,-17,-36,-25c0,0,-13,-8,-36,-20L767,53V0Z" 
id="f0_g"
transform="scale(0.001,-0.001)" />

<path d="M152,0V473c0,0,0,94,28,161c0,0,29,66,71,95H66V836H463V729H404c0,0,-65,0,-89,-57c0,0,-25,-58,-25,-199V0Z" 
id="f0_i"
transform="scale(0.001,-0.001)" />

<path d="M66,0V106H322c0,0,75,0,127,23c0,0,53,23,82,67c0,0,29,43,42,98c0,0,13,54,13,124c0,0,0,70,-13,124c0,0,-13,55,-42,98c0,0,-29,44,-82,67c0,0,-52,23,-127,23H66V836H322c0,0,87,0,157,-24c0,0,70,-24,115,-64c0,0,45,-40,74,-94c0,0,30,-55,43,-113c0,0,13,-59,13,-123c0,0,0,-64,-13,-123c0,0,-13,-58,-43,-113c0,0,-29,-54,-74,-94C594,88,549,48,479,24C479,24,409,0,322,0Z" 
id="f0_h"
transform="scale(0.001,-0.001)" />

<path d="M354,-200c0,0,-112,175,-167,343c0,0,-56,170,-56,337c0,0,0,166,55,335c0,0,55,169,168,345H473c0,0,-100,-172,-148,-340c0,0,-48,-168,-48,-340c0,0,0,-173,48,-342c0,0,49,-168,148,-338Z" 
id="f0_x"
transform="scale(0.001,-0.001)" />

<path d="M122,-200c0,0,99,170,148,338c0,0,49,169,49,342c0,0,0,172,-49,340c0,0,-49,168,-148,340H241c0,0,112,-176,168,-345c0,0,55,-169,55,-335c0,0,0,-167,-55,-337c0,0,-56,-168,-168,-343Z" 
id="f0_y"
transform="scale(0.001,-0.001)" />

<path d="M138,-7c0,0,-34,0,-72,10V129c0,0,25,-8,52,-8c0,0,33,0,58,5c0,0,26,5,58,24c0,0,33,20,53,54c0,0,21,34,36,97c0,0,15,64,15,151c0,0,0,113,-19,173c0,0,-19,60,-56,82c0,0,-38,22,-107,22H89V836h72c0,0,165,0,240,-91c0,0,76,-91,76,-293c0,0,0,-107,26,-227c0,0,25,-119,83,-225H437c0,0,-43,101,-62,184c0,0,-24,-60,-51,-99c0,0,-26,-38,-56,-58C268,27,239,7,209,0c0,0,-30,-7,-71,-7Z" 
id="f0_s"
transform="scale(0.001,-0.001)" />

<path d="M543,-317V369c0,0,0,85,-8,143c0,0,-8,58,-27,101c0,0,-18,44,-51,69c0,0,-33,24,-80,36c0,0,-48,11,-117,11H66V836H257c0,0,125,0,205,-23c0,0,80,-23,130,-79c0,0,50,-56,70,-143c0,0,20,-86,20,-222V-317Z" 
id="f0_k"
transform="scale(0.001,-0.001)" />

<path d="M139,-317V836H278V-317Z" 
id="f0_p"
transform="scale(0.001,-0.001)" />

<path d="M111,0V127c0,0,86,89,234,238c0,0,148,150,186,193c0,0,73,81,101,138c0,0,29,56,29,110c0,0,0,89,-62,145c0,0,-62,56,-162,56c0,0,-71,0,-150,-25c0,0,-78,-24,-168,-75v153c0,0,91,37,170,55c0,0,79,19,145,19c0,0,173,0,276,-86c0,0,103,-87,103,-232c0,0,0,-68,-26,-130c0,0,-26,-61,-94,-145c0,0,-18,-22,-118,-125C575,416,475,313,293,127H818V0Z" 
id="f0_14"
transform="scale(0.001,-0.001)" />

<path d="M414,-20c0,0,-70,0,-144,13c0,0,-75,13,-154,40V179c0,0,63,-36,138,-55c0,0,74,-18,156,-18c0,0,142,0,216,55c0,0,74,56,74,163c0,0,0,98,-69,153c0,0,-69,56,-192,56H309V657H445c0,0,111,0,170,44c0,0,59,45,59,128c0,0,0,86,-61,132c0,0,-61,46,-174,46c0,0,-62,0,-133,-13c0,0,-71,-14,-156,-42v134c0,0,85,24,160,36c0,0,75,12,142,12c0,0,171,0,271,-78c0,0,100,-78,100,-211c0,0,0,-92,-53,-156c0,0,-52,-64,-150,-89c0,0,108,-23,169,-96c0,0,61,-73,61,-180c0,0,0,-165,-114,-255c0,0,-113,-89,-322,-89Z" 
id="f0_16"
transform="scale(0.001,-0.001)" />


</defs>
</svg>