<?xml version="1.0" encoding="UTF-8" standalone="no"?>
<!DOCTYPE svg PUBLIC "-//W3C//DTD SVG 1.1//EN"
"http://www.w3.org/Graphics/SVG/1.1/DTD/svg11.dtd">
<svg viewBox="0 0 909 1286" version="1.1" xmlns="http://www.w3.org/2000/svg" xmlns:xlink="http://www.w3.org/1999/xlink">
<defs>
<clipPath id="c0_1"><path d="M0,1286.2V0H909.4V1286.2Z" /></clipPath>
<style type="text/css"><![CDATA[
.g0_1{
fill: #D8D8D8;
}
.g1_1{
fill: none;
stroke: #000000;
stroke-width: 0.7638889;
stroke-linecap: butt;
stroke-linejoin: round;
}
]]></style>
</defs>
<path fill-rule="evenodd" d="M121.2,511.3H283.8V491.2H121.2v20.1Z" class="g0_1" />
<path fill-rule="evenodd" d="M283.9,511.3H446.5V491.2H283.9v20.1Z" class="g0_1" />
<path fill-rule="evenodd" d="M446.6,511.3H609.2V491.2H446.6v20.1Z" class="g0_1" />
<path fill-rule="evenodd" d="M609.3,511.3H771.9V491.2H609.3v20.1Z" class="g0_1" />
<path fill-rule="evenodd" d="M121.2,511.3H283.8V491.2H121.2v20.1Z" class="g0_1" />
<path fill-rule="evenodd" d="M283.9,511.3H446.5V491.2H283.9v20.1Z" class="g0_1" />
<path fill-rule="evenodd" d="M446.6,511.3H609.2V491.2H446.6v20.1Z" class="g0_1" />
<path fill-rule="evenodd" d="M609.3,511.3H771.9V491.2H609.3v20.1Z" class="g0_1" />
<g clip-path="url(#c0_1)">
<g fill="#000000" >
<use xlink:href="#f0_3" transform="matrix(22,0,0,22,704.3,168.8)" />
<use xlink:href="#f0_4" transform="matrix(22,0,0,22,729.4,168.8)" />
<use xlink:href="#f0_5" transform="matrix(22,0,0,22,749.9,168.8)" />
<use xlink:href="#f0_6" transform="matrix(22,0,0,22,644.6,168.8)" />
<use xlink:href="#f0_6" transform="matrix(22,0,0,22,668.2,168.8)" />
<use xlink:href="#f0_7" transform="matrix(22,0,0,22,396.3,168.8)" />
<use xlink:href="#f0_8" transform="matrix(22,0,0,22,419.6,168.8)" />
<use xlink:href="#f0_9" transform="matrix(22,0,0,22,442.5,168.8)" />
<use xlink:href="#f0_a" transform="matrix(22,0,0,22,467.1,168.8)" />
<use xlink:href="#f0_7" transform="matrix(22,0,0,22,490.3,168.8)" />
<use xlink:href="#f0_b" transform="matrix(22,0,0,22,513.6,168.8)" />
<use xlink:href="#f0_7" transform="matrix(22,0,0,22,537.7,168.8)" />
<use xlink:href="#f0_4" transform="matrix(22,0,0,22,561.2,168.8)" />
<use xlink:href="#f0_c" transform="matrix(22,0,0,22,581.6,168.8)" />
<use xlink:href="#f0_d" transform="matrix(22,0,0,22,595.5,168.8)" />
<use xlink:href="#f0_e" transform="matrix(22,0,0,22,630.9,168.8)" />
<use xlink:href="#f1_2" transform="matrix(12,0,0,12,457.4,213)" />
<use xlink:href="#f1_3" transform="matrix(12,0,0,12,464.7,213)" />
<use xlink:href="#f1_4" transform="matrix(12,0,0,12,476.7,213)" />
<use xlink:href="#f1_6" transform="matrix(12,0,0,12,489,213)" />
<use xlink:href="#f1_7" transform="matrix(12,0,0,12,502,213)" />
<use xlink:href="#f1_8" transform="matrix(12,0,0,12,512.2,213)" />
<use xlink:href="#f1_9" transform="matrix(12,0,0,12,529.6,213)" />
<use xlink:href="#f1_7" transform="matrix(12,0,0,12,541.9,213)" />
<use xlink:href="#f1_6" transform="matrix(12,0,0,12,552.2,213)" />
<use xlink:href="#f1_a" transform="matrix(12,0,0,12,571,213)" />
<use xlink:href="#f1_b" transform="matrix(12,0,0,12,576.8,213)" />
<use xlink:href="#f1_c" transform="matrix(12,0,0,12,588.9,213)" />
<use xlink:href="#f1_d" transform="matrix(12,0,0,12,593.9,213)" />
<use xlink:href="#f1_e" transform="matrix(12,0,0,12,601.2,213)" />
<use xlink:href="#f1_f" transform="matrix(12,0,0,12,611.6,213)" />
<use xlink:href="#f1_g" transform="matrix(12,0,0,12,622.2,213)" />
<use xlink:href="#f1_7" transform="matrix(12,0,0,12,639.9,213)" />
<use xlink:href="#f1_g" transform="matrix(12,0,0,12,650.3,213)" />
<use xlink:href="#f1_h" transform="matrix(12,0,0,12,662.2,213)" />
<use xlink:href="#f1_3" transform="matrix(12,0,0,12,680,213)" />
<use xlink:href="#f1_b" transform="matrix(12,0,0,12,691.9,213)" />
<use xlink:href="#f1_9" transform="matrix(12,0,0,12,704,213)" />
<use xlink:href="#f1_i" transform="matrix(12,0,0,12,722,213)" />
<use xlink:href="#f1_9" transform="matrix(12,0,0,12,734.2,213)" />
<use xlink:href="#f1_i" transform="matrix(12,0,0,12,752.3,213)" />
<use xlink:href="#f1_j" transform="matrix(12,0,0,12,764.5,213)" />
<use xlink:href="#f1_b" transform="matrix(12,0,0,12,138,234.4)" />
<use xlink:href="#f1_7" transform="matrix(12,0,0,12,150,234.4)" />
<use xlink:href="#f1_k" transform="matrix(12,0,0,12,160.4,234.4)" />
<use xlink:href="#f1_l" transform="matrix(12,0,0,12,172.2,234.4)" />
<use xlink:href="#f1_m" transform="matrix(12,0,0,12,192.6,234.4)" />
<use xlink:href="#f1_h" transform="matrix(12,0,0,12,198.4,234.4)" />
<use xlink:href="#f1_n" transform="matrix(12,0,0,12,210.3,234.4)" />
<use xlink:href="#f1_o" transform="matrix(12,0,0,12,219.9,234.4)" />
<use xlink:href="#f1_d" transform="matrix(12,0,0,12,232.9,234.4)" />
<use xlink:href="#f1_k" transform="matrix(12,0,0,12,248,234.4)" />
<use xlink:href="#f1_p" transform="matrix(12,0,0,12,259.9,234.4)" />
<use xlink:href="#f1_l" transform="matrix(12,0,0,12,271.4,234.4)" />
<use xlink:href="#f1_o" transform="matrix(12,0,0,12,283.9,234.4)" />
<use xlink:href="#f1_7" transform="matrix(12,0,0,12,304.6,234.4)" />
<use xlink:href="#f1_q" transform="matrix(12,0,0,12,315,234.4)" />
<use xlink:href="#f1_f" transform="matrix(12,0,0,12,319.1,234.4)" />
<use xlink:href="#f1_g" transform="matrix(12,0,0,12,329.7,234.4)" />
<use xlink:href="#f1_c" transform="matrix(12,0,0,12,341.6,234.4)" />
<use xlink:href="#f1_r" transform="matrix(12,0,0,12,354.3,234.4)" />
<use xlink:href="#f1_l" transform="matrix(12,0,0,12,364.3,234.4)" />
<use xlink:href="#f1_e" transform="matrix(12,0,0,12,376.8,234.4)" />
<use xlink:href="#f1_d" transform="matrix(12,0,0,12,387.2,234.4)" />
<use xlink:href="#f1_7" transform="matrix(12,0,0,12,402.4,234.4)" />
<use xlink:href="#f1_f" transform="matrix(12,0,0,12,412.8,234.4)" />
<use xlink:href="#f1_n" transform="matrix(12,0,0,12,423.3,234.4)" />
<use xlink:href="#f1_o" transform="matrix(12,0,0,12,433,234.4)" />
<use xlink:href="#f1_7" transform="matrix(12,0,0,12,453.7,234.4)" />
<use xlink:href="#f1_l" transform="matrix(12,0,0,12,464.1,234.4)" />
<use xlink:href="#f1_c" transform="matrix(12,0,0,12,476.4,234.4)" />
<use xlink:href="#f1_h" transform="matrix(12,0,0,12,481.5,234.4)" />
<use xlink:href="#f1_e" transform="matrix(12,0,0,12,501.3,234.4)" />
<use xlink:href="#f1_p" transform="matrix(12,0,0,12,511.7,234.4)" />
<use xlink:href="#f1_7" transform="matrix(12,0,0,12,530.9,234.4)" />
<use xlink:href="#f1_4" transform="matrix(12,0,0,12,541.3,234.4)" />
<use xlink:href="#f1_c" transform="matrix(12,0,0,12,547.7,234.4)" />
<use xlink:href="#f1_h" transform="matrix(12,0,0,12,552.7,234.4)" />
<use xlink:href="#f1_3" transform="matrix(12,0,0,12,564.6,234.4)" />
<use xlink:href="#f1_f" transform="matrix(12,0,0,12,584.3,234.4)" />
<use xlink:href="#f1_7" transform="matrix(12,0,0,12,594.8,234.4)" />
<use xlink:href="#f1_e" transform="matrix(12,0,0,12,613,234.4)" />
<use xlink:href="#f1_c" transform="matrix(12,0,0,12,623.4,234.4)" />
<use xlink:href="#f1_j" transform="matrix(12,0,0,12,628.4,234.4)" />
<use xlink:href="#f1_7" transform="matrix(12,0,0,12,635.9,234.4)" />
<use xlink:href="#f1_b" transform="matrix(12,0,0,12,646.2,234.4)" />
<use xlink:href="#f1_e" transform="matrix(12,0,0,12,666.1,234.4)" />
<use xlink:href="#f1_q" transform="matrix(12,0,0,12,676.5,234.4)" />
<use xlink:href="#f1_n" transform="matrix(12,0,0,12,680.6,234.4)" />
<use xlink:href="#f1_l" transform="matrix(12,0,0,12,690.2,234.4)" />
<use xlink:href="#f1_3" transform="matrix(12,0,0,12,710.5,234.4)" />
<use xlink:href="#f1_4" transform="matrix(12,0,0,12,722.4,234.4)" />
<use xlink:href="#f1_6" transform="matrix(12,0,0,12,736.7,234.4)" />
<use xlink:href="#f1_7" transform="matrix(12,0,0,12,749.7,234.4)" />
<use xlink:href="#f1_8" transform="matrix(12,0,0,12,760,234.4)" />
<use xlink:href="#f1_f" transform="matrix(12,0,0,12,138,255.8)" />
<use xlink:href="#f1_7" transform="matrix(12,0,0,12,148.5,255.8)" />
<use xlink:href="#f1_3" transform="matrix(12,0,0,12,158.9,255.8)" />
<use xlink:href="#f1_i" transform="matrix(12,0,0,12,181.4,255.8)" />
<use xlink:href="#f1_q" transform="matrix(12,0,0,12,193.7,255.8)" />
<use xlink:href="#f1_e" transform="matrix(12,0,0,12,197.8,255.8)" />
<use xlink:href="#f1_q" transform="matrix(12,0,0,12,208.2,255.8)" />
<use xlink:href="#f1_l" transform="matrix(12,0,0,12,212.3,255.8)" />
<use xlink:href="#f1_3" transform="matrix(12,0,0,12,224.8,255.8)" />
<use xlink:href="#f1_7" transform="matrix(12,0,0,12,247.3,255.8)" />
<use xlink:href="#f1_s" transform="matrix(12,0,0,12,257.7,255.8)" />
<use xlink:href="#f1_c" transform="matrix(12,0,0,12,268.6,255.8)" />
<use xlink:href="#f1_9" transform="matrix(12,0,0,12,273.6,255.8)" />
<use xlink:href="#f1_b" transform="matrix(12,0,0,12,296.5,255.8)" />
<use xlink:href="#f1_9" transform="matrix(12,0,0,12,308.5,255.8)" />
<use xlink:href="#f1_c" transform="matrix(12,0,0,12,320.6,255.8)" />
<use xlink:href="#f1_b" transform="matrix(12,0,0,12,336.4,255.8)" />
<use xlink:href="#f1_r" transform="matrix(12,0,0,12,348.4,255.8)" />
<use xlink:href="#f1_l" transform="matrix(12,0,0,12,358.4,255.8)" />
<use xlink:href="#f1_e" transform="matrix(12,0,0,12,370.9,255.8)" />
<use xlink:href="#f1_o" transform="matrix(12,0,0,12,381.3,255.8)" />
<use xlink:href="#f1_i" transform="matrix(12,0,0,12,405,255.8)" />
<use xlink:href="#f1_q" transform="matrix(12,0,0,12,417,255.8)" />
<use xlink:href="#f1_d" transform="matrix(12,0,0,12,421.1,255.8)" />
<use xlink:href="#f1_l" transform="matrix(12,0,0,12,428.5,255.8)" />
<use xlink:href="#f1_4" transform="matrix(12,0,0,12,441,255.8)" />
<use xlink:href="#f1_3" transform="matrix(12,0,0,12,447.4,255.8)" />
<use xlink:href="#f1_b" transform="matrix(12,0,0,12,469.9,255.8)" />
<use xlink:href="#f1_o" transform="matrix(12,0,0,12,482,255.8)" />
<use xlink:href="#f1_c" transform="matrix(12,0,0,12,495,255.8)" />
<use xlink:href="#f1_e" transform="matrix(12,0,0,12,500,255.8)" />
<use xlink:href="#f1_o" transform="matrix(12,0,0,12,510.4,255.8)" />
<use xlink:href="#f1_e" transform="matrix(12,0,0,12,534,255.8)" />
<use xlink:href="#f1_n" transform="matrix(12,0,0,12,544.4,255.8)" />
<use xlink:href="#f1_b" transform="matrix(12,0,0,12,564.9,255.8)" />
<use xlink:href="#f1_9" transform="matrix(12,0,0,12,576.9,255.8)" />
<use xlink:href="#f1_p" transform="matrix(12,0,0,12,599.8,255.8)" />
<use xlink:href="#f1_q" transform="matrix(12,0,0,12,611.3,255.8)" />
<use xlink:href="#f1_l" transform="matrix(12,0,0,12,615.4,255.8)" />
<use xlink:href="#f1_k" transform="matrix(12,0,0,12,627.9,255.8)" />
<use xlink:href="#f1_3" transform="matrix(12,0,0,12,639.8,255.8)" />
<use xlink:href="#f1_e" transform="matrix(12,0,0,12,651.7,255.8)" />
<use xlink:href="#f1_3" transform="matrix(12,0,0,12,672.9,255.8)" />
<use xlink:href="#f1_d" transform="matrix(12,0,0,12,684.8,255.8)" />
<use xlink:href="#f1_q" transform="matrix(12,0,0,12,692.1,255.8)" />
<use xlink:href="#f1_3" transform="matrix(12,0,0,12,696.2,255.8)" />
<use xlink:href="#f1_a" transform="matrix(12,0,0,12,718.8,255.8)" />
<use xlink:href="#f1_6" transform="matrix(12,0,0,12,724.6,255.8)" />
<use xlink:href="#f1_7" transform="matrix(12,0,0,12,737.6,255.8)" />
<use xlink:href="#f1_8" transform="matrix(12,0,0,12,748,255.8)" />
<use xlink:href="#f1_3" transform="matrix(12,0,0,12,759.4,255.8)" />
<use xlink:href="#f1_e" transform="matrix(12,0,0,12,138.3,277.1)" />
<use xlink:href="#f1_n" transform="matrix(12,0,0,12,148.7,277.1)" />
<use xlink:href="#f1_b" transform="matrix(12,0,0,12,167,277.1)" />
<use xlink:href="#f1_9" transform="matrix(12,0,0,12,179,277.1)" />
<use xlink:href="#f1_7" transform="matrix(12,0,0,12,199.8,277.1)" />
<use xlink:href="#f1_c" transform="matrix(12,0,0,12,210.1,277.1)" />
<use xlink:href="#f1_n" transform="matrix(12,0,0,12,215.2,277.1)" />
<use xlink:href="#f1_4" transform="matrix(12,0,0,12,224.8,277.1)" />
<use xlink:href="#f1_b" transform="matrix(12,0,0,12,231.2,277.1)" />
<use xlink:href="#f1_t" transform="matrix(12,0,0,12,251.9,277.1)" />
<use xlink:href="#f1_n" transform="matrix(12,0,0,12,256.9,277.1)" />
<use xlink:href="#f1_9" transform="matrix(12,0,0,12,266.6,277.1)" />
<use xlink:href="#f1_o" transform="matrix(12,0,0,12,278.8,277.1)" />
<use xlink:href="#f1_q" transform="matrix(12,0,0,12,300.3,277.1)" />
<use xlink:href="#f1_r" transform="matrix(12,0,0,12,304.4,277.1)" />
<use xlink:href="#f1_n" transform="matrix(12,0,0,12,314.5,277.1)" />
<use xlink:href="#f1_u" transform="matrix(12,0,0,12,332.8,277.1)" />
<use xlink:href="#f1_9" transform="matrix(12,0,0,12,342.5,277.1)" />
<use xlink:href="#f1_a" transform="matrix(12,0,0,12,363.4,277.1)" />
<use xlink:href="#f1_i" transform="matrix(12,0,0,12,369.2,277.1)" />
<use xlink:href="#f1_c" transform="matrix(12,0,0,12,381.5,277.1)" />
<use xlink:href="#f1_s" transform="matrix(12,0,0,12,386.5,277.1)" />
<use xlink:href="#f1_p" transform="matrix(12,0,0,12,397.3,277.1)" />
<use xlink:href="#f1_3" transform="matrix(12,0,0,12,417.5,277.1)" />
<use xlink:href="#f1_4" transform="matrix(12,0,0,12,429.4,277.1)" />
<use xlink:href="#f1_7" transform="matrix(12,0,0,12,444.3,277.1)" />
<use xlink:href="#f1_8" transform="matrix(12,0,0,12,454.7,277.1)" />
<use xlink:href="#f1_g" transform="matrix(12,0,0,12,466.1,277.1)" />
<use xlink:href="#f1_f" transform="matrix(12,0,0,12,478,277.1)" />
<use xlink:href="#f1_c" transform="matrix(12,0,0,12,497.2,277.1)" />
<use xlink:href="#f1_f" transform="matrix(12,0,0,12,502.3,277.1)" />
<use xlink:href="#f1_b" transform="matrix(12,0,0,12,521.5,277.1)" />
<use xlink:href="#f1_e" transform="matrix(12,0,0,12,533.5,277.1)" />
<use xlink:href="#f1_6" transform="matrix(12,0,0,12,543.9,277.1)" />
<use xlink:href="#f1_b" transform="matrix(12,0,0,12,556.9,277.1)" />
<use xlink:href="#f1_d" transform="matrix(12,0,0,12,569,277.1)" />
<use xlink:href="#f1_o" transform="matrix(12,0,0,12,576.3,277.1)" />
<use xlink:href="#f1_i" transform="matrix(12,0,0,12,597.8,277.1)" />
<use xlink:href="#f1_q" transform="matrix(12,0,0,12,610,277.1)" />
<use xlink:href="#f1_e" transform="matrix(12,0,0,12,614.1,277.1)" />
<use xlink:href="#f1_q" transform="matrix(12,0,0,12,624.5,277.1)" />
<use xlink:href="#f1_l" transform="matrix(12,0,0,12,628.6,277.1)" />
<use xlink:href="#f1_3" transform="matrix(12,0,0,12,641.1,277.1)" />
<use xlink:href="#f1_7" transform="matrix(12,0,0,12,661.6,277.1)" />
<use xlink:href="#f1_s" transform="matrix(12,0,0,12,671.9,277.1)" />
<use xlink:href="#f1_c" transform="matrix(12,0,0,12,682.8,277.1)" />
<use xlink:href="#f1_9" transform="matrix(12,0,0,12,687.8,277.1)" />
<use xlink:href="#f1_m" transform="matrix(12,0,0,12,708.7,277.1)" />
<use xlink:href="#f1_b" transform="matrix(12,0,0,12,714.5,277.1)" />
<use xlink:href="#f1_7" transform="matrix(12,0,0,12,726.6,277.1)" />
<use xlink:href="#f1_f" transform="matrix(12,0,0,12,736.9,277.1)" />
<use xlink:href="#f1_s" transform="matrix(12,0,0,12,747.5,277.1)" />
<use xlink:href="#f1_o" transform="matrix(12,0,0,12,758.3,277.1)" />
<use xlink:href="#f1_a" transform="matrix(12,0,0,12,138.1,298.5)" />
<use xlink:href="#f1_e" transform="matrix(12,0,0,12,143.9,298.5)" />
<use xlink:href="#f1_c" transform="matrix(12,0,0,12,154.3,298.5)" />
<use xlink:href="#f1_j" transform="matrix(12,0,0,12,159.3,298.5)" />
<use xlink:href="#f1_7" transform="matrix(12,0,0,12,166.8,298.5)" />
<use xlink:href="#f1_b" transform="matrix(12,0,0,12,177.2,298.5)" />
<use xlink:href="#f1_3" transform="matrix(12,0,0,12,189.2,298.5)" />
<use xlink:href="#f1_u" transform="matrix(12,0,0,12,209.5,298.5)" />
<use xlink:href="#f1_e" transform="matrix(12,0,0,12,219.3,298.5)" />
<use xlink:href="#f1_3" transform="matrix(12,0,0,12,229.7,298.5)" />
<use xlink:href="#f1_l" transform="matrix(12,0,0,12,241.6,298.5)" />
<use xlink:href="#f1_f" transform="matrix(12,0,0,12,254.1,298.5)" />
<use xlink:href="#f1_3" transform="matrix(12,0,0,12,272.9,298.5)" />
<use xlink:href="#f1_o" transform="matrix(12,0,0,12,284.8,298.5)" />
<use xlink:href="#f1_p" transform="matrix(12,0,0,12,297.8,298.5)" />
<use xlink:href="#f1_b" transform="matrix(12,0,0,12,309.2,298.5)" />
<use xlink:href="#f1_o" transform="matrix(12,0,0,12,321.3,298.5)" />
<use xlink:href="#f1_b" transform="matrix(12,0,0,12,342.5,298.5)" />
<use xlink:href="#f1_c" transform="matrix(12,0,0,12,354.4,298.5)" />
<use xlink:href="#f1_p" transform="matrix(12,0,0,12,359.4,298.5)" />
<use xlink:href="#f1_k" transform="matrix(12,0,0,12,370.9,298.5)" />
<use xlink:href="#f1_e" transform="matrix(12,0,0,12,391,298.5)" />
<use xlink:href="#f1_n" transform="matrix(12,0,0,12,401.4,298.5)" />
<use xlink:href="#f1_m" transform="matrix(12,0,0,12,419.4,298.5)" />
<use xlink:href="#f1_b" transform="matrix(12,0,0,12,425.2,298.5)" />
<use xlink:href="#f1_h" transform="matrix(12,0,0,12,437.2,298.5)" />
<use xlink:href="#f1_9" transform="matrix(12,0,0,12,449.2,298.5)" />
<use xlink:href="#f1_i" transform="matrix(12,0,0,12,469.4,298.5)" />
<use xlink:href="#f1_p" transform="matrix(12,0,0,12,481.6,298.5)" />
<use xlink:href="#f1_8" transform="matrix(12,0,0,12,493.1,298.5)" />
<use xlink:href="#f1_l" transform="matrix(12,0,0,12,504.4,298.5)" />
<use xlink:href="#f1_7" transform="matrix(12,0,0,12,525.1,298.5)" />
<use xlink:href="#f1_b" transform="matrix(12,0,0,12,535.5,298.5)" />
<use xlink:href="#f1_c" transform="matrix(12,0,0,12,547.6,298.5)" />
<use xlink:href="#f1_q" transform="matrix(12,0,0,12,552.5,298.5)" />
<use xlink:href="#f1_t" transform="matrix(12,0,0,12,564.8,298.5)" />
<use xlink:href="#f1_3" transform="matrix(12,0,0,12,569.8,298.5)" />
<use xlink:href="#f1_f" transform="matrix(12,0,0,12,581.7,298.5)" />
<use xlink:href="#f1_e" transform="matrix(12,0,0,12,600.6,298.5)" />
<use xlink:href="#f1_6" transform="matrix(12,0,0,12,611,298.5)" />
<use xlink:href="#f1_b" transform="matrix(12,0,0,12,624,298.5)" />
<use xlink:href="#f1_3" transform="matrix(12,0,0,12,636.1,298.5)" />
<use xlink:href="#f1_e" transform="matrix(12,0,0,12,648,298.5)" />
<use xlink:href="#f1_u" transform="matrix(12,0,0,12,666.6,298.5)" />
<use xlink:href="#f1_q" transform="matrix(12,0,0,12,676.3,298.5)" />
<use xlink:href="#f1_e" transform="matrix(12,0,0,12,680.4,298.5)" />
<use xlink:href="#f1_p" transform="matrix(12,0,0,12,690.8,298.5)" />
<use xlink:href="#f1_a" transform="matrix(12,0,0,12,710.5,298.5)" />
<use xlink:href="#f1_i" transform="matrix(12,0,0,12,716.3,298.5)" />
<use xlink:href="#f1_q" transform="matrix(12,0,0,12,728.4,298.5)" />
<use xlink:href="#f1_e" transform="matrix(12,0,0,12,732.5,298.5)" />
<use xlink:href="#f1_q" transform="matrix(12,0,0,12,742.9,298.5)" />
<use xlink:href="#f1_l" transform="matrix(12,0,0,12,747,298.5)" />
<use xlink:href="#f1_3" transform="matrix(12,0,0,12,759.5,298.5)" />
<use xlink:href="#f1_t" transform="matrix(12,0,0,12,138,319.9)" />
<use xlink:href="#f1_6" transform="matrix(12,0,0,12,143,319.9)" />
<use xlink:href="#f1_b" transform="matrix(12,0,0,12,156,319.9)" />
<use xlink:href="#f1_b" transform="matrix(12,0,0,12,168,319.9)" />
<use xlink:href="#f1_o" transform="matrix(12,0,0,12,179.9,319.9)" />
<use xlink:href="#f1_7" transform="matrix(12,0,0,12,199.9,319.9)" />
<use xlink:href="#f1_h" transform="matrix(12,0,0,12,210.3,319.9)" />
<use xlink:href="#f1_9" transform="matrix(12,0,0,12,222.2,319.9)" />
<use xlink:href="#f1_e" transform="matrix(12,0,0,12,234.4,319.9)" />
<use xlink:href="#f1_a" transform="matrix(12,0,0,12,251.7,319.9)" />
<use xlink:href="#f1_3" transform="matrix(12,0,0,12,257.5,319.9)" />
<use xlink:href="#f1_8" transform="matrix(12,0,0,12,269.4,319.9)" />
<use xlink:href="#f1_o" transform="matrix(12,0,0,12,280.8,319.9)" />
<use xlink:href="#f1_3" transform="matrix(12,0,0,12,293.8,319.9)" />
<use xlink:href="#f1_q" transform="matrix(12,0,0,12,312.6,319.9)" />
<use xlink:href="#f1_e" transform="matrix(12,0,0,12,316.7,319.9)" />
<use xlink:href="#f1_e" transform="matrix(12,0,0,12,327.1,319.9)" />
<use xlink:href="#f1_n" transform="matrix(12,0,0,12,337.5,319.9)" />
<use xlink:href="#f1_b" transform="matrix(12,0,0,12,353.9,319.9)" />
<use xlink:href="#f1_9" transform="matrix(12,0,0,12,366,319.9)" />
<use xlink:href="#f1_p" transform="matrix(12,0,0,12,385,319.9)" />
<use xlink:href="#f1_q" transform="matrix(12,0,0,12,396.5,319.9)" />
<use xlink:href="#f1_l" transform="matrix(12,0,0,12,400.6,319.9)" />
<use xlink:href="#f1_k" transform="matrix(12,0,0,12,413.1,319.9)" />
<use xlink:href="#f1_3" transform="matrix(12,0,0,12,425,319.9)" />
<use xlink:href="#f1_e" transform="matrix(12,0,0,12,436.9,319.9)" />
<use xlink:href="#f1_u" transform="matrix(12,0,0,12,454.2,319.9)" />
<use xlink:href="#f1_e" transform="matrix(12,0,0,12,463.9,319.9)" />
<use xlink:href="#f1_c" transform="matrix(12,0,0,12,481.2,319.9)" />
<use xlink:href="#f1_7" transform="matrix(12,0,0,12,486.1,319.9)" />
<use xlink:href="#f1_4" transform="matrix(12,0,0,12,496.4,319.9)" />
<use xlink:href="#f1_p" transform="matrix(12,0,0,12,502.8,319.9)" />
<use xlink:href="#f1_q" transform="matrix(12,0,0,12,514.3,319.9)" />
<use xlink:href="#f1_a" transform="matrix(12,0,0,12,525.3,319.9)" />
<use xlink:href="#f1_3" transform="matrix(12,0,0,12,531.1,319.9)" />
<use xlink:href="#f1_d" transform="matrix(12,0,0,12,543,319.9)" />
<use xlink:href="#f1_c" transform="matrix(12,0,0,12,550.3,319.9)" />
<use xlink:href="#f1_o" transform="matrix(12,0,0,12,555.3,319.9)" />
<use xlink:href="#f1_9" transform="matrix(12,0,0,12,568.3,319.9)" />
<use xlink:href="#f1_7" transform="matrix(12,0,0,12,580.5,319.9)" />
<use xlink:href="#f1_e" transform="matrix(12,0,0,12,590.9,319.9)" />
<use xlink:href="#f1_7" transform="matrix(12,0,0,12,608,319.9)" />
<use xlink:href="#f1_c" transform="matrix(12,0,0,12,618.4,319.9)" />
<use xlink:href="#f1_n" transform="matrix(12,0,0,12,623.4,319.9)" />
<use xlink:href="#f1_4" transform="matrix(12,0,0,12,633,319.9)" />
<use xlink:href="#f1_b" transform="matrix(12,0,0,12,639.4,319.9)" />
<use xlink:href="#f1_9" transform="matrix(12,0,0,12,658.3,319.9)" />
<use xlink:href="#f1_e" transform="matrix(12,0,0,12,670.6,319.9)" />
<use xlink:href="#f1_o" transform="matrix(12,0,0,12,681,319.9)" />
<use xlink:href="#f1_3" transform="matrix(12,0,0,12,700.8,319.9)" />
<use xlink:href="#f1_e" transform="matrix(12,0,0,12,712.7,319.9)" />
<use xlink:href="#f1_q" transform="matrix(12,0,0,12,723.1,319.9)" />
<use xlink:href="#f1_l" transform="matrix(12,0,0,12,727.1,319.9)" />
<use xlink:href="#f1_e" transform="matrix(12,0,0,12,746.4,319.9)" />
<use xlink:href="#f1_n" transform="matrix(12,0,0,12,756.8,319.9)" />
<use xlink:href="#f1_c" transform="matrix(12,0,0,12,766.5,319.9)" />
<use xlink:href="#f1_m" transform="matrix(12,0,0,12,721.7,341.3)" />
<use xlink:href="#f1_u" transform="matrix(12,0,0,12,727.5,341.3)" />
<use xlink:href="#f1_l" transform="matrix(12,0,0,12,737.3,341.3)" />
<use xlink:href="#f1_s" transform="matrix(12,0,0,12,749.8,341.3)" />
<use xlink:href="#f1_p" transform="matrix(12,0,0,12,760.7,341.3)" />
<use xlink:href="#f0_f" transform="matrix(12,0,0,12,536.4,382.1)" />
<use xlink:href="#f0_g" transform="matrix(12,0,0,12,549.2,382.1)" />
<use xlink:href="#f0_h" transform="matrix(12,0,0,12,554.6,382.1)" />
<use xlink:href="#f0_h" transform="matrix(12,0,0,12,565.7,382.1)" />
<use xlink:href="#f0_i" transform="matrix(12,0,0,12,576.7,382.1)" />
<use xlink:href="#f0_h" transform="matrix(12,0,0,12,587.1,382.1)" />
<use xlink:href="#f0_j" transform="matrix(12,0,0,12,604.6,382.1)" />
<use xlink:href="#f0_4" transform="matrix(12,0,0,12,617.1,382.1)" />
<use xlink:href="#f0_b" transform="matrix(12,0,0,12,628.1,382.1)" />
<use xlink:href="#f0_i" transform="matrix(12,0,0,12,634.4,382.1)" />
<use xlink:href="#f0_c" transform="matrix(12,0,0,12,644.8,382.1)" />
<use xlink:href="#f0_j" transform="matrix(12,0,0,12,652.1,382.1)" />
<use xlink:href="#f0_k" transform="matrix(12,0,0,12,671,382.1)" />
<use xlink:href="#f0_7" transform="matrix(12,0,0,12,685.2,382.1)" />
<use xlink:href="#f0_l" transform="matrix(12,0,0,12,697.7,382.1)" />
<use xlink:href="#f0_3" transform="matrix(12,0,0,12,708.9,382.1)" />
<use xlink:href="#f0_m" transform="matrix(12,0,0,12,722.3,382.1)" />
<use xlink:href="#f0_b" transform="matrix(12,0,0,12,730.6,382.1)" />
<use xlink:href="#f0_4" transform="matrix(12,0,0,12,743.2,382.1)" />
<use xlink:href="#f0_i" transform="matrix(12,0,0,12,754.2,382.1)" />
<use xlink:href="#f0_c" transform="matrix(12,0,0,12,764.6,382.1)" />
<use xlink:href="#f1_b" transform="matrix(12,0,0,12,721.7,422.7)" />
<use xlink:href="#f1_c" transform="matrix(12,0,0,12,733.8,422.7)" />
<use xlink:href="#f1_l" transform="matrix(12,0,0,12,738.7,422.7)" />
<use xlink:href="#f1_c" transform="matrix(12,0,0,12,751.2,422.7)" />
<use xlink:href="#f1_q" transform="matrix(12,0,0,12,756.2,422.7)" />
<use xlink:href="#f1_g" transform="matrix(12,0,0,12,760.2,422.7)" />
<use xlink:href="#f2_2" transform="matrix(11,0,0,11,646.6,422.7)" />
<use xlink:href="#f2_4" transform="matrix(11,0,0,11,660,422.7)" />
<use xlink:href="#f2_5" transform="matrix(11,0,0,11,672.7,422.7)" />
<use xlink:href="#f2_6" transform="matrix(11,0,0,11,684.3,422.7)" />
<use xlink:href="#f2_7" transform="matrix(11,0,0,11,698.3,422.7)" />
<use xlink:href="#f2_8" transform="matrix(11,0,0,11,710.8,422.7)" />
<use xlink:href="#f1_m" transform="matrix(12,0,0,12,598.3,422.7)" />
<use xlink:href="#f1_7" transform="matrix(12,0,0,12,604.1,422.7)" />
<use xlink:href="#f1_n" transform="matrix(12,0,0,12,614.5,422.7)" />
<use xlink:href="#f1_4" transform="matrix(12,0,0,12,624.1,422.7)" />
<use xlink:href="#f1_e" transform="matrix(12,0,0,12,630.5,422.7)" />
<use xlink:href="#f1_b" transform="matrix(12,0,0,12,721.7,444.1)" />
<use xlink:href="#f1_c" transform="matrix(12,0,0,12,733.8,444.1)" />
<use xlink:href="#f1_l" transform="matrix(12,0,0,12,738.7,444.1)" />
<use xlink:href="#f1_c" transform="matrix(12,0,0,12,751.2,444.1)" />
<use xlink:href="#f1_q" transform="matrix(12,0,0,12,756.2,444.1)" />
<use xlink:href="#f1_g" transform="matrix(12,0,0,12,760.2,444.1)" />
<use xlink:href="#f2_7" transform="matrix(11,0,0,11,614.8,444.1)" />
<use xlink:href="#f2_9" transform="matrix(11,0,0,11,627.4,444.1)" />
<use xlink:href="#f2_a" transform="matrix(11,0,0,11,640.9,444.1)" />
<use xlink:href="#f2_b" transform="matrix(11,0,0,11,648.4,444.1)" />
<use xlink:href="#f2_c" transform="matrix(11,0,0,11,653.1,444.1)" />
<use xlink:href="#f2_2" transform="matrix(11,0,0,11,661.5,444.1)" />
<use xlink:href="#f2_e" transform="matrix(11,0,0,11,675.1,444.1)" />
<use xlink:href="#f2_b" transform="matrix(11,0,0,11,681.5,444.1)" />
<use xlink:href="#f2_c" transform="matrix(11,0,0,11,686.2,444.1)" />
<use xlink:href="#f2_2" transform="matrix(11,0,0,11,694.6,444.1)" />
<use xlink:href="#f2_f" transform="matrix(11,0,0,11,708.2,444.1)" />
<use xlink:href="#f1_m" transform="matrix(12,0,0,12,550.2,444.1)" />
<use xlink:href="#f1_3" transform="matrix(12,0,0,12,556,444.1)" />
<use xlink:href="#f1_f" transform="matrix(12,0,0,12,567.9,444.1)" />
<use xlink:href="#f1_6" transform="matrix(12,0,0,12,578.4,444.1)" />
<use xlink:href="#f1_d" transform="matrix(12,0,0,12,591.4,444.1)" />
<use xlink:href="#f1_e" transform="matrix(12,0,0,12,598.7,444.1)" />
<use xlink:href="#f1_v" transform="matrix(12,0,0,12,368.5,486.4)" />
<use xlink:href="#f1_t" transform="matrix(12,0,0,12,374.6,486.4)" />
<use xlink:href="#f1_l" transform="matrix(12,0,0,12,379.5,486.4)" />
<use xlink:href="#f1_c" transform="matrix(12,0,0,12,392,486.4)" />
<use xlink:href="#f1_j" transform="matrix(12,0,0,12,397,486.4)" />
<use xlink:href="#f1_7" transform="matrix(12,0,0,12,404.5,486.4)" />
<use xlink:href="#f1_b" transform="matrix(12,0,0,12,414.9,486.4)" />
<use xlink:href="#f1_i" transform="matrix(12,0,0,12,432.7,486.4)" />
<use xlink:href="#f1_c" transform="matrix(12,0,0,12,444.8,486.4)" />
<use xlink:href="#f1_o" transform="matrix(12,0,0,12,449.8,486.4)" />
<use xlink:href="#f1_7" transform="matrix(12,0,0,12,462.8,486.4)" />
<use xlink:href="#f1_c" transform="matrix(12,0,0,12,473,486.4)" />
<use xlink:href="#f1_a" transform="matrix(12,0,0,12,484,486.4)" />
<use xlink:href="#f1_b" transform="matrix(12,0,0,12,489.8,486.4)" />
<use xlink:href="#f1_c" transform="matrix(12,0,0,12,501.9,486.4)" />
<use xlink:href="#f1_9" transform="matrix(12,0,0,12,506.9,486.4)" />
<use xlink:href="#f1_f" transform="matrix(12,0,0,12,519.1,486.4)" />
<use xlink:href="#f1_3" transform="matrix(12,0,0,12,529.6,486.4)" />
<use xlink:href="#f1_i" transform="matrix(12,0,0,12,547.5,486.4)" />
<use xlink:href="#f1_q" transform="matrix(12,0,0,12,559.6,486.4)" />
<use xlink:href="#f1_e" transform="matrix(12,0,0,12,563.7,486.4)" />
<use xlink:href="#f1_q" transform="matrix(12,0,0,12,574.1,486.4)" />
<use xlink:href="#f1_l" transform="matrix(12,0,0,12,578.2,486.4)" />
<use xlink:href="#f1_e" transform="matrix(12,0,0,12,590.7,486.4)" />
<use xlink:href="#f1_q" transform="matrix(12,0,0,12,607,486.4)" />
<use xlink:href="#f1_e" transform="matrix(12,0,0,12,611.1,486.4)" />
<use xlink:href="#f1_7" transform="matrix(12,0,0,12,621.5,486.4)" />
<use xlink:href="#f1_k" transform="matrix(12,0,0,12,631.9,486.4)" />
<use xlink:href="#f1_q" transform="matrix(12,0,0,12,643.8,486.4)" />
<use xlink:href="#f1_d" transform="matrix(12,0,0,12,647.9,486.4)" />
<use xlink:href="#f1_w" transform="matrix(12,0,0,12,655.2,486.4)" />
<use xlink:href="#f1_3" transform="matrix(12,0,0,12,661.3,486.4)" />
<use xlink:href="#f1_f" transform="matrix(12,0,0,12,673.3,486.4)" />
<use xlink:href="#f1_6" transform="matrix(12,0,0,12,683.8,486.4)" />
<use xlink:href="#f1_d" transform="matrix(12,0,0,12,696.8,486.4)" />
<use xlink:href="#f1_w" transform="matrix(12,0,0,12,704.1,486.4)" />
<use xlink:href="#f1_7" transform="matrix(12,0,0,12,710.2,486.4)" />
<use xlink:href="#f1_n" transform="matrix(12,0,0,12,720.6,486.4)" />
<use xlink:href="#f1_4" transform="matrix(12,0,0,12,730.2,486.4)" />
<use xlink:href="#f1_t" transform="matrix(12,0,0,12,742.4,486.4)" />
<use xlink:href="#f1_l" transform="matrix(12,0,0,12,747.4,486.4)" />
<use xlink:href="#f1_g" transform="matrix(12,0,0,12,759.8,486.4)" />
<use xlink:href="#f3_2" transform="matrix(13,0,0,13,243.7,486.4)" />
<use xlink:href="#f3_3" transform="matrix(13,0,0,13,258.8,486.4)" />
<use xlink:href="#f3_4" transform="matrix(13,0,0,13,266,486.4)" />
<use xlink:href="#f3_5" transform="matrix(13,0,0,13,278.6,486.4)" />
<use xlink:href="#f3_6" transform="matrix(13,0,0,13,289,486.4)" />
<use xlink:href="#f3_7" transform="matrix(13,0,0,13,301.1,486.4)" />
<use xlink:href="#f3_6" transform="matrix(13,0,0,13,308.6,486.4)" />
<use xlink:href="#f3_7" transform="matrix(13,0,0,13,320.7,486.4)" />
<use xlink:href="#f3_8" transform="matrix(13,0,0,13,328.1,486.4)" />
<use xlink:href="#f3_a" transform="matrix(13,0,0,13,348.4,486.4)" />
<use xlink:href="#f0_k" transform="matrix(12,0,0,12,229.8,486.4)" />
</g>
</g>
<path d="M120.8,491.6H772.4M120.8,511.7H772.4M120.8,533.9H772.4M120.8,556H772.4M120.8,578.2H772.4m-651.6,20H772.4M120.8,618.4H772.4m-651.6,20H772.4M120.8,658.5H772.4M120.8,678.6H772.4M120.8,698.7H772.4m-651.6,20H772.4M120.8,738.9H772.4m-651.6,20H772.4M120.8,779.1H772.4M121.2,491.2V779.5M283.9,491.2V779.5M446.6,491.2V779.5M609.3,491.2V779.5M772,491.2V779.5" class="g1_1" />
<g clip-path="url(#c0_1)">
<g fill="#000000" >
<use xlink:href="#f4_2" transform="matrix(11,0,0,11,130,507.7)" />
<use xlink:href="#f4_3" transform="matrix(11,0,0,11,141.2,507.7)" />
<use xlink:href="#f4_4" transform="matrix(11,0,0,11,148.6,507.7)" />
<use xlink:href="#f4_5" transform="matrix(11,0,0,11,155.1,507.7)" />
<use xlink:href="#f4_6" transform="matrix(11,0,0,11,159.8,507.7)" />
<use xlink:href="#f4_7" transform="matrix(11,0,0,11,167.2,507.7)" />
<use xlink:href="#f4_7" transform="matrix(11,0,0,11,171.8,507.7)" />
<use xlink:href="#f4_3" transform="matrix(11,0,0,11,176.5,507.7)" />
<use xlink:href="#f4_8" transform="matrix(11,0,0,11,184,507.7)" />
<use xlink:href="#f4_9" transform="matrix(11,0,0,11,192.4,507.7)" />
<use xlink:href="#f4_a" transform="matrix(11,0,0,11,388.8,507.7)" />
<use xlink:href="#f4_6" transform="matrix(11,0,0,11,400.9,507.7)" />
<use xlink:href="#f4_b" transform="matrix(11,0,0,11,408.3,507.7)" />
<use xlink:href="#f4_c" transform="matrix(11,0,0,11,416.8,507.7)" />
<use xlink:href="#f4_6" transform="matrix(11,0,0,11,422.4,507.7)" />
<use xlink:href="#f4_9" transform="matrix(11,0,0,11,429.8,507.7)" />
<use xlink:href="#f4_2" transform="matrix(11,0,0,11,455.4,507.7)" />
<use xlink:href="#f4_3" transform="matrix(11,0,0,11,466.6,507.7)" />
<use xlink:href="#f4_4" transform="matrix(11,0,0,11,474.1,507.7)" />
<use xlink:href="#f4_5" transform="matrix(11,0,0,11,480.5,507.7)" />
<use xlink:href="#f4_6" transform="matrix(11,0,0,11,485.2,507.7)" />
<use xlink:href="#f4_7" transform="matrix(11,0,0,11,492.7,507.7)" />
<use xlink:href="#f4_7" transform="matrix(11,0,0,11,497.2,507.7)" />
<use xlink:href="#f4_3" transform="matrix(11,0,0,11,502,507.7)" />
<use xlink:href="#f4_8" transform="matrix(11,0,0,11,509.4,507.7)" />
<use xlink:href="#f4_9" transform="matrix(11,0,0,11,517.8,507.7)" />
<use xlink:href="#f4_a" transform="matrix(11,0,0,11,714.2,507.7)" />
<use xlink:href="#f4_6" transform="matrix(11,0,0,11,726.3,507.7)" />
<use xlink:href="#f4_b" transform="matrix(11,0,0,11,733.8,507.7)" />
<use xlink:href="#f4_c" transform="matrix(11,0,0,11,742.2,507.7)" />
<use xlink:href="#f4_6" transform="matrix(11,0,0,11,747.8,507.7)" />
<use xlink:href="#f4_9" transform="matrix(11,0,0,11,755.3,507.7)" />
<use xlink:href="#f4_c" transform="matrix(11,0,0,11,130,527.7)" />
<use xlink:href="#f4_6" transform="matrix(11,0,0,11,135.5,527.7)" />
<use xlink:href="#f4_4" transform="matrix(11,0,0,11,143,527.7)" />
<use xlink:href="#f4_d" transform="matrix(11,0,0,11,149.5,527.7)" />
<use xlink:href="#f4_e" transform="matrix(11,0,0,11,157.9,527.7)" />
<use xlink:href="#f4_c" transform="matrix(11,0,0,11,162.5,527.7)" />
<use xlink:href="#f4_3" transform="matrix(11,0,0,11,168.1,527.7)" />
<use xlink:href="#f4_f" transform="matrix(11,0,0,11,175.6,527.7)" />
<use xlink:href="#f4_e" transform="matrix(11,0,0,11,183.1,527.7)" />
<use xlink:href="#f4_g" transform="matrix(11,0,0,11,187.8,527.7)" />
<use xlink:href="#f4_8" transform="matrix(11,0,0,11,196.2,527.7)" />
<use xlink:href="#f5_2" transform="matrix(11,0,0,11,455.4,527.7)" />
<use xlink:href="#f5_3" transform="matrix(11,0,0,11,462,527.7)" />
<use xlink:href="#f5_4" transform="matrix(11,0,0,11,470.4,527.7)" />
<use xlink:href="#f5_5" transform="matrix(11,0,0,11,478.8,527.7)" />
<use xlink:href="#f5_7" transform="matrix(11,0,0,11,491.3,527.7)" />
<use xlink:href="#f5_8" transform="matrix(11,0,0,11,496.9,527.7)" />
<use xlink:href="#f5_9" transform="matrix(11,0,0,11,509,527.7)" />
<use xlink:href="#f6_2" transform="matrix(12,0,0,12,726.6,529.1)" />
<use xlink:href="#f6_3" transform="matrix(12,0,0,12,738.8,529.1)" />
<use xlink:href="#f6_4" transform="matrix(12,0,0,12,742.9,529.1)" />
<use xlink:href="#f6_5" transform="matrix(12,0,0,12,753.3,529.1)" />
<use xlink:href="#f4_f" transform="matrix(11,0,0,11,130,549.8)" />
<use xlink:href="#f4_3" transform="matrix(11,0,0,11,137.3,549.8)" />
<use xlink:href="#f4_7" transform="matrix(11,0,0,11,144.8,549.8)" />
<use xlink:href="#f4_9" transform="matrix(11,0,0,11,149.5,549.8)" />
<use xlink:href="#f4_c" transform="matrix(11,0,0,11,157.9,549.8)" />
<use xlink:href="#f5_a" transform="matrix(11,0,0,11,455.4,549.8)" />
<use xlink:href="#f5_2" transform="matrix(11,0,0,11,460,549.8)" />
<use xlink:href="#f5_b" transform="matrix(11,0,0,11,466.6,549.8)" />
<use xlink:href="#f5_3" transform="matrix(11,0,0,11,471.3,549.8)" />
<use xlink:href="#f5_7" transform="matrix(11,0,0,11,483.8,549.8)" />
<use xlink:href="#f5_c" transform="matrix(11,0,0,11,489.4,549.8)" />
<use xlink:href="#f5_9" transform="matrix(11,0,0,11,494,549.8)" />
<use xlink:href="#f6_3" transform="matrix(12,0,0,12,747.5,551.2)" />
<use xlink:href="#f6_2" transform="matrix(12,0,0,12,751.6,551.2)" />
<use xlink:href="#f4_i" transform="matrix(11,0,0,11,130,572)" />
<use xlink:href="#f4_j" transform="matrix(11,0,0,11,143,572)" />
<use xlink:href="#f4_k" transform="matrix(11,0,0,11,150.5,572)" />
<use xlink:href="#f4_e" transform="matrix(11,0,0,11,158.9,572)" />
<use xlink:href="#f4_f" transform="matrix(11,0,0,11,163.6,572)" />
<use xlink:href="#f4_9" transform="matrix(11,0,0,11,171.1,572)" />
<use xlink:href="#f5_d" transform="matrix(11,0,0,11,455.4,572)" />
<use xlink:href="#f5_e" transform="matrix(11,0,0,11,460,572)" />
<use xlink:href="#f5_f" transform="matrix(11,0,0,11,467.5,572)" />
<use xlink:href="#f5_f" transform="matrix(11,0,0,11,474,572)" />
<use xlink:href="#f5_a" transform="matrix(11,0,0,11,480.5,572)" />
<use xlink:href="#f5_g" transform="matrix(11,0,0,11,485.2,572)" />
<use xlink:href="#f5_b" transform="matrix(11,0,0,11,493.6,572)" />
<use xlink:href="#f5_e" transform="matrix(11,0,0,11,498.3,572)" />
<use xlink:href="#f5_7" transform="matrix(11,0,0,11,509.9,572)" />
<use xlink:href="#f5_4" transform="matrix(11,0,0,11,515.5,572)" />
<use xlink:href="#f5_9" transform="matrix(11,0,0,11,523.9,572)" />
<use xlink:href="#f6_6" transform="matrix(12,0,0,12,730.4,573.4)" />
<use xlink:href="#f6_7" transform="matrix(12,0,0,12,742.5,573.4)" />
<use xlink:href="#f6_3" transform="matrix(12,0,0,12,747.5,573.4)" />
<use xlink:href="#f6_2" transform="matrix(12,0,0,12,751.6,573.4)" />
<use xlink:href="#f4_3" transform="matrix(11,0,0,11,130,594.2)" />
<use xlink:href="#f4_i" transform="matrix(11,0,0,11,137.3,594.2)" />
<use xlink:href="#f4_3" transform="matrix(11,0,0,11,150.5,594.2)" />
<use xlink:href="#f4_8" transform="matrix(11,0,0,11,157.9,594.2)" />
<use xlink:href="#f4_5" transform="matrix(11,0,0,11,166.3,594.2)" />
<use xlink:href="#f4_6" transform="matrix(11,0,0,11,170.9,594.2)" />
<use xlink:href="#f4_6" transform="matrix(11,0,0,11,455.4,594.2)" />
<use xlink:href="#f4_4" transform="matrix(11,0,0,11,462.8,594.2)" />
<use xlink:href="#f4_l" transform="matrix(11,0,0,11,469.3,594.2)" />
<use xlink:href="#f4_m" transform="matrix(11,0,0,11,477.7,594.2)" />
<use xlink:href="#f4_e" transform="matrix(11,0,0,11,486.1,594.2)" />
<use xlink:href="#f4_8" transform="matrix(11,0,0,11,490.8,594.2)" />
<use xlink:href="#f4_3" transform="matrix(11,0,0,11,499.2,594.2)" />
<use xlink:href="#f4_7" transform="matrix(11,0,0,11,130,614.3)" />
<use xlink:href="#f4_e" transform="matrix(11,0,0,11,134.6,614.3)" />
<use xlink:href="#f4_b" transform="matrix(11,0,0,11,139.3,614.3)" />
<use xlink:href="#f4_6" transform="matrix(11,0,0,11,147.7,614.3)" />
<use xlink:href="#f4_c" transform="matrix(11,0,0,11,155.1,614.3)" />
<use xlink:href="#f4_5" transform="matrix(11,0,0,11,160.7,614.3)" />
<use xlink:href="#f4_3" transform="matrix(11,0,0,11,165.4,614.3)" />
<use xlink:href="#f4_k" transform="matrix(11,0,0,11,172.9,614.3)" />
<use xlink:href="#f4_e" transform="matrix(11,0,0,11,455.4,614.3)" />
<use xlink:href="#f4_8" transform="matrix(11,0,0,11,460,614.3)" />
<use xlink:href="#f4_5" transform="matrix(11,0,0,11,468.4,614.3)" />
<use xlink:href="#f4_6" transform="matrix(11,0,0,11,473.1,614.3)" />
<use xlink:href="#f4_7" transform="matrix(11,0,0,11,480.5,614.3)" />
<use xlink:href="#f4_e" transform="matrix(11,0,0,11,485.2,614.3)" />
<use xlink:href="#f4_n" transform="matrix(11,0,0,11,489.9,614.3)" />
<use xlink:href="#f4_6" transform="matrix(11,0,0,11,498.3,614.3)" />
<use xlink:href="#f4_8" transform="matrix(11,0,0,11,505.8,614.3)" />
<use xlink:href="#f4_5" transform="matrix(11,0,0,11,514,614.3)" />
<use xlink:href="#f4_6" transform="matrix(11,0,0,11,518.8,614.3)" />
<use xlink:href="#f4_d" transform="matrix(11,0,0,11,130,634.3)" />
<use xlink:href="#f4_6" transform="matrix(11,0,0,11,138.4,634.3)" />
<use xlink:href="#f4_f" transform="matrix(11,0,0,11,145.7,634.3)" />
<use xlink:href="#f4_o" transform="matrix(11,0,0,11,153.2,634.3)" />
<use xlink:href="#f4_9" transform="matrix(11,0,0,11,161.6,634.3)" />
<use xlink:href="#f4_d" transform="matrix(11,0,0,11,455.4,634.3)" />
<use xlink:href="#f4_3" transform="matrix(11,0,0,11,463.8,634.3)" />
<use xlink:href="#f4_p" transform="matrix(11,0,0,11,471.2,634.3)" />
<use xlink:href="#f4_4" transform="matrix(11,0,0,11,475.9,634.3)" />
<use xlink:href="#f4_e" transform="matrix(11,0,0,11,130,654.5)" />
<use xlink:href="#f4_8" transform="matrix(11,0,0,11,134.6,654.5)" />
<use xlink:href="#f4_5" transform="matrix(11,0,0,11,143,654.5)" />
<use xlink:href="#f4_6" transform="matrix(11,0,0,11,147.7,654.5)" />
<use xlink:href="#f4_8" transform="matrix(11,0,0,11,155.2,654.5)" />
<use xlink:href="#f4_f" transform="matrix(11,0,0,11,163.6,654.5)" />
<use xlink:href="#f4_e" transform="matrix(11,0,0,11,170.9,654.5)" />
<use xlink:href="#f4_g" transform="matrix(11,0,0,11,175.6,654.5)" />
<use xlink:href="#f4_8" transform="matrix(11,0,0,11,184,654.5)" />
<use xlink:href="#f4_f" transform="matrix(11,0,0,11,455.4,654.5)" />
<use xlink:href="#f4_9" transform="matrix(11,0,0,11,462.9,654.5)" />
<use xlink:href="#f4_8" transform="matrix(11,0,0,11,471.3,654.5)" />
<use xlink:href="#f4_r" transform="matrix(11,0,0,11,479.7,654.5)" />
<use xlink:href="#f4_6" transform="matrix(11,0,0,11,487.9,654.5)" />
<use xlink:href="#f4_c" transform="matrix(11,0,0,11,495.4,654.5)" />
<use xlink:href="#f4_4" transform="matrix(11,0,0,11,501,654.5)" />
<use xlink:href="#f4_3" transform="matrix(11,0,0,11,507.6,654.5)" />
<use xlink:href="#f4_f" transform="matrix(11,0,0,11,515.1,654.5)" />
<use xlink:href="#f4_e" transform="matrix(11,0,0,11,522.4,654.5)" />
<use xlink:href="#f4_g" transform="matrix(11,0,0,11,527.1,654.5)" />
<use xlink:href="#f4_8" transform="matrix(11,0,0,11,535.5,654.5)" />
<use xlink:href="#f4_i" transform="matrix(11,0,0,11,130,674.5)" />
<use xlink:href="#f4_e" transform="matrix(11,0,0,11,143,674.5)" />
<use xlink:href="#f4_5" transform="matrix(11,0,0,11,147.7,674.5)" />
<use xlink:href="#f4_3" transform="matrix(11,0,0,11,152.3,674.5)" />
<use xlink:href="#f4_k" transform="matrix(11,0,0,11,159.8,674.5)" />
<use xlink:href="#f4_s" transform="matrix(11,0,0,11,455.4,674.5)" />
<use xlink:href="#f4_e" transform="matrix(11,0,0,11,460.9,674.5)" />
<use xlink:href="#f4_8" transform="matrix(11,0,0,11,465.6,674.5)" />
<use xlink:href="#f4_i" transform="matrix(11,0,0,11,130,694.7)" />
<use xlink:href="#f4_e" transform="matrix(11,0,0,11,143,694.7)" />
<use xlink:href="#f4_8" transform="matrix(11,0,0,11,147.7,694.7)" />
<use xlink:href="#f4_6" transform="matrix(11,0,0,11,156.1,694.7)" />
<use xlink:href="#f4_c" transform="matrix(11,0,0,11,163.5,694.7)" />
<use xlink:href="#f4_3" transform="matrix(11,0,0,11,169.1,694.7)" />
<use xlink:href="#f4_7" transform="matrix(11,0,0,11,176.5,694.7)" />
<use xlink:href="#f4_o" transform="matrix(11,0,0,11,455.4,694.7)" />
<use xlink:href="#f4_9" transform="matrix(11,0,0,11,463.8,694.7)" />
<use xlink:href="#f4_c" transform="matrix(11,0,0,11,472.1,694.7)" />
<use xlink:href="#f4_8" transform="matrix(11,0,0,11,477.7,694.7)" />
<use xlink:href="#f4_9" transform="matrix(11,0,0,11,486.1,694.7)" />
<use xlink:href="#f4_7" transform="matrix(11,0,0,11,130,714.7)" />
<use xlink:href="#f4_6" transform="matrix(11,0,0,11,134.6,714.7)" />
<use xlink:href="#f4_f" transform="matrix(11,0,0,11,142.1,714.7)" />
<use xlink:href="#f4_o" transform="matrix(11,0,0,11,149.5,714.7)" />
<use xlink:href="#f4_6" transform="matrix(11,0,0,11,157.9,714.7)" />
<use xlink:href="#f4_3" transform="matrix(11,0,0,11,455.4,714.7)" />
<use xlink:href="#f4_c" transform="matrix(11,0,0,11,462.8,714.7)" />
<use xlink:href="#f4_5" transform="matrix(11,0,0,11,468.4,714.7)" />
<use xlink:href="#f4_e" transform="matrix(11,0,0,11,473,714.7)" />
<use xlink:href="#f4_4" transform="matrix(11,0,0,11,477.7,714.7)" />
<use xlink:href="#f4_5" transform="matrix(11,0,0,11,484.3,714.7)" />
<use xlink:href="#f4_3" transform="matrix(11,0,0,11,489,714.7)" />
<use xlink:href="#f4_e" transform="matrix(11,0,0,11,130,734.9)" />
<use xlink:href="#f4_k" transform="matrix(11,0,0,11,134.6,734.9)" />
<use xlink:href="#f4_e" transform="matrix(11,0,0,11,143,734.9)" />
<use xlink:href="#f4_9" transform="matrix(11,0,0,11,147.7,734.9)" />
<use xlink:href="#f4_i" transform="matrix(11,0,0,11,156.1,734.9)" />
<use xlink:href="#f4_3" transform="matrix(11,0,0,11,169.1,734.9)" />
<use xlink:href="#f4_7" transform="matrix(11,0,0,11,455.4,734.9)" />
<use xlink:href="#f4_m" transform="matrix(11,0,0,11,460,734.9)" />
<use xlink:href="#f4_t" transform="matrix(11,0,0,11,468.4,734.9)" />
<use xlink:href="#f4_c" transform="matrix(11,0,0,11,130,754.9)" />
<use xlink:href="#f4_3" transform="matrix(11,0,0,11,135.5,754.9)" />
<use xlink:href="#f4_k" transform="matrix(11,0,0,11,143,754.9)" />
<use xlink:href="#f4_e" transform="matrix(11,0,0,11,151.4,754.9)" />
<use xlink:href="#f4_9" transform="matrix(11,0,0,11,156.1,754.9)" />
<use xlink:href="#f4_l" transform="matrix(11,0,0,11,455.4,754.9)" />
<use xlink:href="#f4_m" transform="matrix(11,0,0,11,463.8,754.9)" />
<use xlink:href="#f4_6" transform="matrix(11,0,0,11,472.2,754.9)" />
<use xlink:href="#f4_i" transform="matrix(11,0,0,11,479.6,754.9)" />
<use xlink:href="#f4_3" transform="matrix(11,0,0,11,492.7,754.9)" />
<use xlink:href="#f4_k" transform="matrix(11,0,0,11,500.2,754.9)" />
<use xlink:href="#f4_9" transform="matrix(11,0,0,11,508.6,754.9)" />
<use xlink:href="#f4_8" transform="matrix(11,0,0,11,130,775)" />
<use xlink:href="#f4_9" transform="matrix(11,0,0,11,138.4,775)" />
<use xlink:href="#f4_f" transform="matrix(11,0,0,11,146.8,775)" />
<use xlink:href="#f4_o" transform="matrix(11,0,0,11,154.3,775)" />
<use xlink:href="#f4_6" transform="matrix(11,0,0,11,162.5,775)" />
<use xlink:href="#f4_f" transform="matrix(11,0,0,11,455.4,775)" />
<use xlink:href="#f4_9" transform="matrix(11,0,0,11,462.9,775)" />
<use xlink:href="#f4_8" transform="matrix(11,0,0,11,471.3,775)" />
<use xlink:href="#f4_6" transform="matrix(11,0,0,11,479.5,775)" />
<use xlink:href="#f4_u" transform="matrix(11,0,0,11,487,775)" />
<use xlink:href="#f4_9" transform="matrix(11,0,0,11,491.7,775)" />
</g>
<g fill="#0000FF" >
<use xlink:href="#f4_v" transform="matrix(12,0,0,12,687,834.5)" />
<use xlink:href="#f4_6" transform="matrix(12,0,0,12,699.7,834.5)" />
<use xlink:href="#f4_4" transform="matrix(12,0,0,12,708.1,834.5)" />
<use xlink:href="#f4_d" transform="matrix(12,0,0,12,715.7,834.5)" />
<use xlink:href="#f4_m" transform="matrix(12,0,0,12,725.2,834.5)" />
<use xlink:href="#f4_6" transform="matrix(12,0,0,12,734.8,834.5)" />
<use xlink:href="#f4_4" transform="matrix(12,0,0,12,743.2,834.5)" />
<use xlink:href="#f4_5" transform="matrix(12,0,0,12,750.8,834.5)" />
<use xlink:href="#f4_3" transform="matrix(12,0,0,12,756.1,834.5)" />
<use xlink:href="#f4_4" transform="matrix(12,0,0,12,764.7,834.5)" />
</g>
<g fill="#000000" >
<use xlink:href="#f1_m" transform="matrix(12,0,0,12,347.6,895.7)" />
<use xlink:href="#f1_x" transform="matrix(12,0,0,12,353.4,895.7)" />
<use xlink:href="#f1_i" transform="matrix(12,0,0,12,360.5,895.7)" />
<use xlink:href="#f1_r" transform="matrix(12,0,0,12,372.6,895.7)" />
<use xlink:href="#f1_c" transform="matrix(12,0,0,12,382.7,895.7)" />
<use xlink:href="#f1_6" transform="matrix(12,0,0,12,387.7,895.7)" />
<use xlink:href="#f1_3" transform="matrix(12,0,0,12,400.7,895.7)" />
<use xlink:href="#f1_e" transform="matrix(12,0,0,12,418.4,895.7)" />
<use xlink:href="#f1_c" transform="matrix(12,0,0,12,428.8,895.7)" />
<use xlink:href="#f1_j" transform="matrix(12,0,0,12,433.8,895.7)" />
<use xlink:href="#f1_7" transform="matrix(12,0,0,12,441.3,895.7)" />
<use xlink:href="#f1_b" transform="matrix(12,0,0,12,451.7,895.7)" />
<use xlink:href="#f1_e" transform="matrix(12,0,0,12,463.7,895.7)" />
<use xlink:href="#f1_7" transform="matrix(12,0,0,12,479.9,895.7)" />
<use xlink:href="#f1_o" transform="matrix(12,0,0,12,490.3,895.7)" />
<use xlink:href="#f1_6" transform="matrix(12,0,0,12,503.3,895.7)" />
<use xlink:href="#f1_t" transform="matrix(12,0,0,12,522.1,895.7)" />
<use xlink:href="#f1_q" transform="matrix(12,0,0,12,527.1,895.7)" />
<use xlink:href="#f1_9" transform="matrix(12,0,0,12,531.2,895.7)" />
<use xlink:href="#f1_y" transform="matrix(12,0,0,12,543.4,895.7)" />
<use xlink:href="#f1_t" transform="matrix(12,0,0,12,556.4,895.7)" />
<use xlink:href="#f1_8" transform="matrix(12,0,0,12,561.4,895.7)" />
<use xlink:href="#f1_c" transform="matrix(12,0,0,12,572.9,895.7)" />
<use xlink:href="#f1_r" transform="matrix(12,0,0,12,577.8,895.7)" />
<use xlink:href="#f1_3" transform="matrix(12,0,0,12,587.8,895.7)" />
<use xlink:href="#f1_b" transform="matrix(12,0,0,12,605.7,895.7)" />
<use xlink:href="#f1_9" transform="matrix(12,0,0,12,617.7,895.7)" />
<use xlink:href="#f1_s" transform="matrix(12,0,0,12,630,895.7)" />
<use xlink:href="#f1_c" transform="matrix(12,0,0,12,640.8,895.7)" />
<use xlink:href="#f1_q" transform="matrix(12,0,0,12,645.7,895.7)" />
<use xlink:href="#f1_3" transform="matrix(12,0,0,12,655.8,895.7)" />
<use xlink:href="#f1_e" transform="matrix(12,0,0,12,667.7,895.7)" />
<use xlink:href="#f1_q" transform="matrix(12,0,0,12,678.1,895.7)" />
<use xlink:href="#f1_l" transform="matrix(12,0,0,12,682.2,895.7)" />
<use xlink:href="#f1_3" transform="matrix(12,0,0,12,694.7,895.7)" />
<use xlink:href="#f1_b" transform="matrix(12,0,0,12,712.4,895.7)" />
<use xlink:href="#f1_9" transform="matrix(12,0,0,12,724.5,895.7)" />
<use xlink:href="#f1_t" transform="matrix(12,0,0,12,742.5,895.7)" />
<use xlink:href="#f1_l" transform="matrix(12,0,0,12,747.5,895.7)" />
<use xlink:href="#f1_g" transform="matrix(12,0,0,12,759.9,895.7)" />
<use xlink:href="#f3_2" transform="matrix(13,0,0,13,216.9,895.7)" />
<use xlink:href="#f3_3" transform="matrix(13,0,0,13,232.1,895.7)" />
<use xlink:href="#f3_4" transform="matrix(13,0,0,13,239.2,895.7)" />
<use xlink:href="#f3_5" transform="matrix(13,0,0,13,251.9,895.7)" />
<use xlink:href="#f3_6" transform="matrix(13,0,0,13,262.3,895.7)" />
<use xlink:href="#f3_7" transform="matrix(13,0,0,13,274.4,895.7)" />
<use xlink:href="#f3_6" transform="matrix(13,0,0,13,281.9,895.7)" />
<use xlink:href="#f3_7" transform="matrix(13,0,0,13,293.9,895.7)" />
<use xlink:href="#f3_8" transform="matrix(13,0,0,13,301.4,895.7)" />
<use xlink:href="#f3_b" transform="matrix(13,0,0,13,321.7,895.7)" />
<use xlink:href="#f1_z" transform="matrix(12,0,0,12,204.1,895.7)" />
</g>
</g>
<path d="M128.6,920.3h572m-572,20h572m-572,20.1h572m-572,20.1h572m-572,20.1h572m-572,20h572m-572,20.2h572m-572,20h572M128.9,919.9v141.3M700.2,919.9v141.3" class="g1_1" />
<g clip-path="url(#c0_1)">
<g fill="#000000" >
<use xlink:href="#f4_4" transform="matrix(11,0,0,11,137.7,936.2)" />
<use xlink:href="#f4_6" transform="matrix(11,0,0,11,144.2,936.2)" />
<use xlink:href="#f4_n" transform="matrix(11,0,0,11,151.7,936.2)" />
<use xlink:href="#f4_x" transform="matrix(11,0,0,11,160.1,936.2)" />
<use xlink:href="#f4_8" transform="matrix(11,0,0,11,168.5,936.2)" />
<use xlink:href="#f4_k" transform="matrix(11,0,0,11,300.4,936.2)" />
<use xlink:href="#f4_6" transform="matrix(11,0,0,11,308.8,936.2)" />
<use xlink:href="#f4_b" transform="matrix(11,0,0,11,316.2,936.2)" />
<use xlink:href="#f4_3" transform="matrix(11,0,0,11,324.6,936.2)" />
<use xlink:href="#f4_u" transform="matrix(11,0,0,11,332.1,936.2)" />
<use xlink:href="#f4_9" transform="matrix(11,0,0,11,336.8,936.2)" />
<use xlink:href="#f4_k" transform="matrix(11,0,0,11,463.1,936.2)" />
<use xlink:href="#f4_6" transform="matrix(11,0,0,11,471.5,936.2)" />
<use xlink:href="#f4_5" transform="matrix(11,0,0,11,478.9,936.2)" />
<use xlink:href="#f4_c" transform="matrix(11,0,0,11,483.5,936.2)" />
<use xlink:href="#f4_y" transform="matrix(11,0,0,11,489.2,936.2)" />
<use xlink:href="#f4_4" transform="matrix(11,0,0,11,496.6,936.2)" />
<use xlink:href="#f4_k" transform="matrix(11,0,0,11,589.9,936.2)" />
<use xlink:href="#f4_6" transform="matrix(11,0,0,11,598.3,936.2)" />
<use xlink:href="#f4_7" transform="matrix(11,0,0,11,605.7,936.2)" />
<use xlink:href="#f4_3" transform="matrix(11,0,0,11,610.5,936.2)" />
<use xlink:href="#f4_8" transform="matrix(11,0,0,11,617.9,936.2)" />
<use xlink:href="#f4_5" transform="matrix(11,0,0,11,626.2,936.2)" />
<use xlink:href="#f4_6" transform="matrix(11,0,0,11,630.9,936.2)" />
<use xlink:href="#f4_d" transform="matrix(11,0,0,11,137.7,956.4)" />
<use xlink:href="#f4_m" transform="matrix(11,0,0,11,146.1,956.4)" />
<use xlink:href="#f4_6" transform="matrix(11,0,0,11,154.5,956.4)" />
<use xlink:href="#f4_c" transform="matrix(11,0,0,11,161.9,956.4)" />
<use xlink:href="#f4_5" transform="matrix(11,0,0,11,167.4,956.4)" />
<use xlink:href="#f4_3" transform="matrix(11,0,0,11,172.1,956.4)" />
<use xlink:href="#f4_7" transform="matrix(11,0,0,11,300.4,956.4)" />
<use xlink:href="#f4_7" transform="matrix(11,0,0,11,305.1,956.4)" />
<use xlink:href="#f4_3" transform="matrix(11,0,0,11,309.7,956.4)" />
<use xlink:href="#f4_r" transform="matrix(11,0,0,11,317.1,956.4)" />
<use xlink:href="#f4_6" transform="matrix(11,0,0,11,325.5,956.4)" />
<use xlink:href="#f4_6" transform="matrix(11,0,0,11,463.1,956.4)" />
<use xlink:href="#f4_8" transform="matrix(11,0,0,11,470.5,956.4)" />
<use xlink:href="#f4_5" transform="matrix(11,0,0,11,478.9,956.4)" />
<use xlink:href="#f4_c" transform="matrix(11,0,0,11,483.5,956.4)" />
<use xlink:href="#f4_3" transform="matrix(11,0,0,11,489.2,956.4)" />
<use xlink:href="#f4_k" transform="matrix(11,0,0,11,496.6,956.4)" />
<use xlink:href="#f4_3" transform="matrix(11,0,0,11,505,956.4)" />
<use xlink:href="#f4_8" transform="matrix(11,0,0,11,589.9,956.4)" />
<use xlink:href="#f4_3" transform="matrix(11,0,0,11,598.3,956.4)" />
<use xlink:href="#f4_f" transform="matrix(11,0,0,11,605.7,956.4)" />
<use xlink:href="#f4_e" transform="matrix(11,0,0,11,613.2,956.4)" />
<use xlink:href="#f4_9" transform="matrix(11,0,0,11,617.9,956.4)" />
<use xlink:href="#f4_8" transform="matrix(11,0,0,11,626.3,956.4)" />
<use xlink:href="#f4_3" transform="matrix(11,0,0,11,634.6,956.4)" />
<use xlink:href="#f4_7" transform="matrix(11,0,0,11,642,956.4)" />
<use xlink:href="#f4_i" transform="matrix(11,0,0,11,137.7,976.4)" />
<use xlink:href="#f4_m" transform="matrix(11,0,0,11,150.8,976.4)" />
<use xlink:href="#f4_u" transform="matrix(11,0,0,11,159,976.4)" />
<use xlink:href="#f4_6" transform="matrix(11,0,0,11,163.8,976.4)" />
<use xlink:href="#f4_c" transform="matrix(11,0,0,11,171.2,976.4)" />
<use xlink:href="#f4_i" transform="matrix(11,0,0,11,300.4,976.4)" />
<use xlink:href="#f4_3" transform="matrix(11,0,0,11,313.5,976.4)" />
<use xlink:href="#f4_f" transform="matrix(11,0,0,11,320.9,976.4)" />
<use xlink:href="#f4_o" transform="matrix(11,0,0,11,328.4,976.4)" />
<use xlink:href="#f4_9" transform="matrix(11,0,0,11,336.8,976.4)" />
<use xlink:href="#f4_6" transform="matrix(11,0,0,11,463.1,976.4)" />
<use xlink:href="#f4_4" transform="matrix(11,0,0,11,470.5,976.4)" />
<use xlink:href="#f4_d" transform="matrix(11,0,0,11,477.1,976.4)" />
<use xlink:href="#f4_9" transform="matrix(11,0,0,11,485.5,976.4)" />
<use xlink:href="#f4_4" transform="matrix(11,0,0,11,493.9,976.4)" />
<use xlink:href="#f4_3" transform="matrix(11,0,0,11,500.4,976.4)" />
<use xlink:href="#f4_3" transform="matrix(11,0,0,11,589.9,976.4)" />
<use xlink:href="#f4_i" transform="matrix(11,0,0,11,597.3,976.4)" />
<use xlink:href="#f4_3" transform="matrix(11,0,0,11,610.5,976.4)" />
<use xlink:href="#f4_8" transform="matrix(11,0,0,11,617.9,976.4)" />
<use xlink:href="#f4_5" transform="matrix(11,0,0,11,626.2,976.4)" />
<use xlink:href="#f4_6" transform="matrix(11,0,0,11,630.9,976.4)" />
<use xlink:href="#f4_3" transform="matrix(11,0,0,11,137.7,996.6)" />
<use xlink:href="#f4_4" transform="matrix(11,0,0,11,145.1,996.6)" />
<use xlink:href="#f4_e" transform="matrix(11,0,0,11,151.7,996.6)" />
<use xlink:href="#f4_6" transform="matrix(11,0,0,11,156.3,996.6)" />
<use xlink:href="#f4_8" transform="matrix(11,0,0,11,163.7,996.6)" />
<use xlink:href="#f4_5" transform="matrix(11,0,0,11,172.1,996.6)" />
<use xlink:href="#f4_9" transform="matrix(11,0,0,11,176.8,996.6)" />
<use xlink:href="#f4_4" transform="matrix(11,0,0,11,300.4,996.6)" />
<use xlink:href="#f4_e" transform="matrix(11,0,0,11,306.9,996.6)" />
<use xlink:href="#f4_7" transform="matrix(11,0,0,11,311.5,996.6)" />
<use xlink:href="#f4_7" transform="matrix(11,0,0,11,316.2,996.6)" />
<use xlink:href="#f4_3" transform="matrix(11,0,0,11,320.9,996.6)" />
<use xlink:href="#f4_b" transform="matrix(11,0,0,11,463.1,996.6)" />
<use xlink:href="#f4_9" transform="matrix(11,0,0,11,471.5,996.6)" />
<use xlink:href="#f4_7" transform="matrix(11,0,0,11,479.9,996.6)" />
<use xlink:href="#f4_4" transform="matrix(11,0,0,11,484.6,996.6)" />
<use xlink:href="#f4_e" transform="matrix(11,0,0,11,491,996.6)" />
<use xlink:href="#f4_7" transform="matrix(11,0,0,11,495.7,996.6)" />
<use xlink:href="#f4_7" transform="matrix(11,0,0,11,500.3,996.6)" />
<use xlink:href="#f4_9" transform="matrix(11,0,0,11,505,996.6)" />
<use xlink:href="#f4_d" transform="matrix(11,0,0,11,137.7,1016.6)" />
<use xlink:href="#f4_e" transform="matrix(11,0,0,11,146.1,1016.6)" />
<use xlink:href="#f4_7" transform="matrix(11,0,0,11,150.6,1016.6)" />
<use xlink:href="#f4_9" transform="matrix(11,0,0,11,155.4,1016.6)" />
<use xlink:href="#f4_5" transform="matrix(11,0,0,11,163.8,1016.6)" />
<use xlink:href="#f4_9" transform="matrix(11,0,0,11,168.5,1016.6)" />
<use xlink:href="#f4_d" transform="matrix(11,0,0,11,300.4,1016.6)" />
<use xlink:href="#f4_3" transform="matrix(11,0,0,11,308.8,1016.6)" />
<use xlink:href="#f4_4" transform="matrix(11,0,0,11,316.2,1016.6)" />
<use xlink:href="#f4_3" transform="matrix(11,0,0,11,322.8,1016.6)" />
<use xlink:href="#f4_u" transform="matrix(11,0,0,11,330.1,1016.6)" />
<use xlink:href="#f4_6" transform="matrix(11,0,0,11,334.8,1016.6)" />
<use xlink:href="#f4_c" transform="matrix(11,0,0,11,342.3,1016.6)" />
<use xlink:href="#f4_9" transform="matrix(11,0,0,11,347.9,1016.6)" />
<use xlink:href="#f4_6" transform="matrix(11,0,0,11,463.1,1016.6)" />
<use xlink:href="#f4_l" transform="matrix(11,0,0,11,470.5,1016.6)" />
<use xlink:href="#f4_m" transform="matrix(11,0,0,11,478.9,1016.6)" />
<use xlink:href="#f4_e" transform="matrix(11,0,0,11,487.3,1016.6)" />
<use xlink:href="#f4_d" transform="matrix(11,0,0,11,492.1,1016.6)" />
<use xlink:href="#f4_3" transform="matrix(11,0,0,11,500.5,1016.6)" />
<use xlink:href="#f4_u" transform="matrix(11,0,0,11,507.8,1016.6)" />
<use xlink:href="#f4_6" transform="matrix(11,0,0,11,512.5,1016.6)" />
<use xlink:href="#f4_f" transform="matrix(11,0,0,11,137.7,1036.8)" />
<use xlink:href="#f4_3" transform="matrix(11,0,0,11,145.1,1036.8)" />
<use xlink:href="#f4_7" transform="matrix(11,0,0,11,152.6,1036.8)" />
<use xlink:href="#f4_i" transform="matrix(11,0,0,11,157.2,1036.8)" />
<use xlink:href="#f4_3" transform="matrix(11,0,0,11,170.3,1036.8)" />
<use xlink:href="#f4_s" transform="matrix(11,0,0,11,300.4,1036.8)" />
<use xlink:href="#f4_7" transform="matrix(11,0,0,11,306,1036.8)" />
<use xlink:href="#f4_3" transform="matrix(11,0,0,11,310.6,1036.8)" />
<use xlink:href="#f4_f" transform="matrix(11,0,0,11,318,1036.8)" />
<use xlink:href="#f4_9" transform="matrix(11,0,0,11,325.5,1036.8)" />
<use xlink:href="#f4_5" transform="matrix(11,0,0,11,463.1,1036.8)" />
<use xlink:href="#f4_c" transform="matrix(11,0,0,11,467.8,1036.8)" />
<use xlink:href="#f4_3" transform="matrix(11,0,0,11,473.3,1036.8)" />
<use xlink:href="#f4_8" transform="matrix(11,0,0,11,480.7,1036.8)" />
<use xlink:href="#f4_l" transform="matrix(11,0,0,11,489.2,1036.8)" />
<use xlink:href="#f4_m" transform="matrix(11,0,0,11,497.6,1036.8)" />
<use xlink:href="#f4_e" transform="matrix(11,0,0,11,506,1036.8)" />
<use xlink:href="#f4_7" transform="matrix(11,0,0,11,510.7,1036.8)" />
<use xlink:href="#f4_9" transform="matrix(11,0,0,11,515.4,1036.8)" />
<use xlink:href="#f4_6" transform="matrix(11,0,0,11,137.7,1056.8)" />
<use xlink:href="#f4_4" transform="matrix(11,0,0,11,145.1,1056.8)" />
<use xlink:href="#f4_d" transform="matrix(11,0,0,11,151.7,1056.8)" />
<use xlink:href="#f4_3" transform="matrix(11,0,0,11,160.1,1056.8)" />
<use xlink:href="#f4_f" transform="matrix(11,0,0,11,167.5,1056.8)" />
<use xlink:href="#f4_e" transform="matrix(11,0,0,11,174.9,1056.8)" />
<use xlink:href="#f4_9" transform="matrix(11,0,0,11,179.6,1056.8)" />
<use xlink:href="#f4_d" transform="matrix(11,0,0,11,300.4,1056.8)" />
<use xlink:href="#f4_m" transform="matrix(11,0,0,11,308.8,1056.8)" />
<use xlink:href="#f4_6" transform="matrix(11,0,0,11,317.2,1056.8)" />
<use xlink:href="#f4_b" transform="matrix(11,0,0,11,324.6,1056.8)" />
<use xlink:href="#f4_7" transform="matrix(11,0,0,11,333,1056.8)" />
<use xlink:href="#f4_9" transform="matrix(11,0,0,11,337.8,1056.8)" />
<use xlink:href="#f4_d" transform="matrix(11,0,0,11,463.1,1056.8)" />
<use xlink:href="#f4_3" transform="matrix(11,0,0,11,471.5,1056.8)" />
<use xlink:href="#f4_p" transform="matrix(11,0,0,11,478.9,1056.8)" />
<use xlink:href="#f4_4" transform="matrix(11,0,0,11,483.7,1056.8)" />
<use xlink:href="#f4_f" transform="matrix(11,0,0,11,589.9,1056.8)" />
<use xlink:href="#f4_e" transform="matrix(11,0,0,11,597.3,1056.8)" />
<use xlink:href="#f4_m" transform="matrix(11,0,0,11,602.1,1056.8)" />
<use xlink:href="#f4_k" transform="matrix(11,0,0,11,610.5,1056.8)" />
<use xlink:href="#f4_3" transform="matrix(11,0,0,11,618.9,1056.8)" />
<use xlink:href="#f4_k" transform="matrix(11,0,0,11,626.3,1056.8)" />
</g>
<g fill="#0000FF" >
<use xlink:href="#f4_v" transform="matrix(12,0,0,12,687,1096.9)" />
<use xlink:href="#f4_6" transform="matrix(12,0,0,12,699.7,1096.9)" />
<use xlink:href="#f4_4" transform="matrix(12,0,0,12,708.1,1096.9)" />
<use xlink:href="#f4_d" transform="matrix(12,0,0,12,715.7,1096.9)" />
<use xlink:href="#f4_m" transform="matrix(12,0,0,12,725.2,1096.9)" />
<use xlink:href="#f4_6" transform="matrix(12,0,0,12,734.8,1096.9)" />
<use xlink:href="#f4_4" transform="matrix(12,0,0,12,743.2,1096.9)" />
<use xlink:href="#f4_5" transform="matrix(12,0,0,12,750.8,1096.9)" />
<use xlink:href="#f4_3" transform="matrix(12,0,0,12,756.1,1096.9)" />
<use xlink:href="#f4_4" transform="matrix(12,0,0,12,764.7,1096.9)" />
</g>
</g>
<defs>
<path d="M150,-366V437L396,539V-366ZM499,0L727,658H139V835h870V716L754,0Z" 
id="f0_3"
transform="scale(0.001,-0.001)" />

<path d="M534,0V425c0,0,0,109,-41,171c0,0,-41,62,-140,62H66V836H352c0,0,99,0,174,-20c0,0,75,-20,123,-55c0,0,48,-35,78,-87c0,0,30,-53,42,-113c0,0,12,-60,12,-136V0Z" 
id="f0_4"
transform="scale(0.001,-0.001)" />

<path d="M139,0V177H436c0,0,127,0,184,56c0,0,56,55,56,186c0,0,0,132,-58,186c0,0,-58,53,-181,53H386L385,553c0,0,0,-40,12,-54c0,0,12,-15,31,-15c0,0,19,0,38,2V343c0,0,-46,-11,-94,-11c0,0,-48,0,-87,11c0,0,-38,10,-73,34c0,0,-73,53,-73,196V836H487c0,0,203,0,319,-109c0,0,116,-109,116,-309c0,0,0,-200,-117,-309C805,109,689,0,487,0Z" 
id="f0_5"
transform="scale(0.001,-0.001)" />

<path d="M180,0V198H433V918L173,864v196l258,54H705V198H958V0Z" 
id="f0_6"
transform="scale(0.001,-0.001)" />

<path d="M153,0V437L399,539V0ZM664,0V450c0,0,0,122,-31,165c0,0,-31,43,-121,43H138V836H511c0,0,113,0,188,-22c0,0,75,-23,123,-73c0,0,47,-51,68,-127c0,0,20,-76,20,-189V0Z" 
id="f0_7"
transform="scale(0.001,-0.001)" />

<path d="M84,-153V45l189,68L66,836H321L497,205c0,0,72,50,101,138c0,0,30,88,30,261V836H878V604c0,0,0,-84,-7,-147c0,0,-7,-63,-25,-126c0,0,-19,-62,-51,-111c0,0,-33,-48,-82,-94c0,0,-50,-45,-122,-84C591,42,519,3,423,-30L84,-153Z" 
id="f0_8"
transform="scale(0.001,-0.001)" />

<path d="M129,0l69,362c0,0,10,56,12,100c0,0,0,84,-27,159c0,0,-27,76,-117,215H322c0,0,9,-6,31,-79c0,0,23,-72,23,-105c0,0,23,82,100,138c0,0,77,57,160,57c0,0,332,0,332,-397V0H538V177H721V449c0,0,0,124,-20,170c0,0,-20,47,-82,47c0,0,-23,0,-43,-9c0,0,-19,-10,-34,-23c0,0,-14,-14,-27,-39c0,0,-13,-25,-22,-46c0,0,-8,-22,-17,-57c0,0,-9,-36,-15,-61c0,0,-5,-24,-13,-65L375,0Z" 
id="f0_9"
transform="scale(0.001,-0.001)" />

<path d="M545,-19c0,0,-208,0,-308,99c0,0,-99,101,-99,324V836H383V399c0,0,0,-130,41,-183c0,0,41,-53,121,-53c0,0,80,0,121,53c0,0,41,53,41,183c0,0,0,142,-27,203c0,0,-28,61,-90,61c0,0,-36,0,-92,-20V825c0,0,80,21,142,21c0,0,153,0,233,-113c0,0,80,-113,80,-328c0,0,0,-224,-100,-325c0,0,-100,-99,-308,-99Z" 
id="f0_a"
transform="scale(0.001,-0.001)" />

<path d="M139,0V836H386V0Z" 
id="f0_b"
transform="scale(0.001,-0.001)" />

<path d="M143,0V355c0,0,0,103,26,191c0,0,26,88,79,112H66V836H546V658H484c0,0,-30,0,-50,-24c0,0,-20,-24,-29,-67c0,0,-9,-42,-12,-81c0,0,-3,-39,-3,-89V0Z" 
id="f0_c"
transform="scale(0.001,-0.001)" />

<path d="M139,0V836H512c0,0,219,0,309,-90c0,0,90,-90,90,-297V0H665V467c0,0,0,110,-31,150c0,0,-32,41,-120,41H385V0Z" 
id="f0_d"
transform="scale(0.001,-0.001)" />

<path d="M171,0V288H440V0Zm0,548V836H440V548Z" 
id="f0_e"
transform="scale(0.001,-0.001)" />

<path d="M231,0V190H382V0Zm15,359L231,625v489H382V625L367,359Z" 
id="f1_2"
transform="scale(0.001,-0.001)" />

<path d="M154,0V454l138,56V0ZM722,0V454c0,0,0,161,-49,218c0,0,-48,57,-186,57H139V836H485c0,0,207,0,291,-93c0,0,83,-94,83,-318V0Z" 
id="f1_3"
transform="scale(0.001,-0.001)" />

<path d="M152,0V473c0,0,0,94,28,161c0,0,29,66,71,95H66V836H463V729H404c0,0,-65,0,-89,-57c0,0,-25,-58,-25,-199V0Z" 
id="f1_4"
transform="scale(0.001,-0.001)" />

<path d="M156,-317V454l139,56V-317ZM505,0L806,729H139V835H967V753L650,0Z" 
id="f1_6"
transform="scale(0.001,-0.001)" />

<path d="M585,0V426c0,0,0,54,-8,98c0,0,-8,44,-27,83c0,0,-19,40,-49,66c0,0,-30,26,-77,41c0,0,-47,15,-108,15H66V836H315c0,0,94,0,166,-20c0,0,71,-20,116,-54c0,0,46,-35,75,-88c0,0,28,-52,40,-112c0,0,12,-60,12,-137V0Z" 
id="f1_7"
transform="scale(0.001,-0.001)" />

<path d="M139,0V106H400c0,0,176,0,253,71c0,0,78,72,78,250c0,0,0,163,-80,233c0,0,-81,69,-250,69H278L277,564c0,0,-1,-54,26,-80c0,0,27,-25,82,-25c0,0,30,0,80,9V355c0,0,-61,-12,-111,-12c0,0,-100,0,-157,55c0,0,-58,55,-58,186V836H456c0,0,193,0,303,-109c0,0,110,-109,110,-309c0,0,0,-200,-110,-309C759,109,648,0,456,0Z" 
id="f1_8"
transform="scale(0.001,-0.001)" />

<path d="M139,0V138c0,0,0,61,8,112c0,0,7,52,19,87c0,0,11,36,30,66c0,0,19,31,35,49c0,0,17,19,41,35c0,0,25,17,41,25c0,0,17,7,40,17L141,836H303L613,388c0,0,20,10,33,18c0,0,13,8,34,28c0,0,20,20,33,44c0,0,13,25,22,66c0,0,10,41,10,92V836H882V698c0,0,0,-61,-7,-112c0,0,-6,-52,-18,-88c0,0,-12,-36,-30,-66c0,0,-19,-30,-36,-49c0,0,-17,-18,-41,-34c0,0,-24,-17,-40,-25c0,0,-17,-8,-41,-17L882,0H720L409,448c0,0,-21,-11,-34,-19c0,0,-13,-8,-34,-27c0,0,-21,-20,-34,-44c0,0,-12,-25,-22,-66c0,0,-9,-41,-9,-92V0Z" 
id="f1_9"
transform="scale(0.001,-0.001)" />

<path d="M117,-176L179,62V190H336V62L213,-176Z" 
id="f1_a"
transform="scale(0.001,-0.001)" />

<path d="M112,-5c0,0,-39,0,-97,11V113c0,0,48,-10,77,-10c0,0,53,0,70,42c0,0,17,43,17,164V729H50V836H501c0,0,107,0,179,-25c0,0,72,-25,112,-77c0,0,40,-51,57,-118c0,0,16,-67,16,-164V0H726V454c0,0,0,55,-3,92c0,0,-4,37,-17,75c0,0,-14,38,-38,59c0,0,-24,22,-65,36c0,0,-42,13,-102,13H318V309c0,0,0,-160,-46,-237C272,72,226,-5,112,-5Z" 
id="f1_b"
transform="scale(0.001,-0.001)" />

<path d="M139,0V836H278V0Z" 
id="f1_c"
transform="scale(0.001,-0.001)" />

<path d="M66,0V107H332V555c0,0,0,92,-37,133c0,0,-37,41,-116,41H85V836h94c0,0,153,0,223,-66c0,0,69,-66,69,-231V0Z" 
id="f1_d"
transform="scale(0.001,-0.001)" />

<path d="M287,0L589,729H66v386H205V836l547,-1l-2,-82L433,0Z" 
id="f1_e"
transform="scale(0.001,-0.001)" />

<path d="M66,0V107H554V452c0,0,0,56,-4,93c0,0,-4,37,-18,75c0,0,-14,38,-40,60c0,0,-26,22,-71,36c0,0,-45,13,-110,13H66V836H312c0,0,91,0,157,-17c0,0,66,-17,109,-49c0,0,44,-32,69,-84c0,0,26,-52,36,-114c0,0,10,-62,10,-147V107H817V0Z" 
id="f1_f"
transform="scale(0.001,-0.001)" />

<path d="M522,92c0,0,247,0,247,333c0,0,0,88,-17,146c0,0,-17,58,-53,91c0,0,-35,33,-82,46c0,0,-48,14,-116,14H276V419c0,0,0,-327,246,-327Zm0,-112c0,0,-193,0,-289,109c0,0,-95,110,-95,337V836H501c0,0,213,0,309,-93c0,0,96,-94,96,-317c0,0,0,-227,-95,-337C811,89,715,-20,522,-20Z" 
id="f1_g"
transform="scale(0.001,-0.001)" />

<path d="M139,0V836H485c0,0,206,0,290,-90c0,0,84,-89,84,-294V0H721V473c0,0,0,147,-49,202c0,0,-48,54,-186,54H277V0Z" 
id="f1_h"
transform="scale(0.001,-0.001)" />

<path d="M736,107V473c0,0,0,147,-48,202c0,0,-49,54,-187,54H278V107ZM139,0V836H499c0,0,105,0,177,-22c0,0,72,-21,116,-69c0,0,44,-49,64,-119c0,0,19,-71,19,-174V0Z" 
id="f1_i"
transform="scale(0.001,-0.001)" />

<path d="M138,-7c0,0,-34,0,-72,10V129c0,0,25,-8,52,-8c0,0,33,0,58,5c0,0,26,5,58,24c0,0,33,20,53,54c0,0,21,34,36,97c0,0,15,64,15,151c0,0,0,113,-19,173c0,0,-19,60,-56,82c0,0,-38,22,-107,22H89V836h72c0,0,165,0,240,-91c0,0,76,-91,76,-293c0,0,0,-107,26,-227c0,0,25,-119,83,-225H437c0,0,-43,101,-62,184c0,0,-24,-60,-51,-99c0,0,-26,-38,-56,-58C268,27,239,7,209,0c0,0,-30,-7,-71,-7Z" 
id="f1_j"
transform="scale(0.001,-0.001)" />

<path d="M522,-20c0,0,-196,0,-290,99c0,0,-94,100,-94,324V836H276V397c0,0,0,-86,16,-147c0,0,17,-60,50,-94c0,0,34,-34,77,-49c0,0,43,-15,103,-15c0,0,59,0,102,15c0,0,44,15,77,49c0,0,33,34,50,94c0,0,17,61,17,147c0,0,0,84,-8,143c0,0,-7,58,-25,105c0,0,-17,47,-51,69c0,0,-33,23,-83,23c0,0,-50,0,-119,-22V821c0,0,85,23,150,23c0,0,76,0,130,-30c0,0,53,-31,85,-90c0,0,31,-59,45,-138c0,0,13,-78,13,-183c0,0,0,-224,-93,-324c0,0,-94,-99,-290,-99Z" 
id="f1_k"
transform="scale(0.001,-0.001)" />

<path d="M114,0l60,312c0,0,2,12,8,39c0,0,6,27,7,37c0,0,2,11,5,30c0,0,2,19,4,33c0,0,1,15,1,31c0,0,0,48,-35,146c0,0,-35,98,-98,208H228c0,0,3,-8,27,-67c0,0,25,-58,41,-117c0,0,21,53,50,90c0,0,29,37,57,57c0,0,29,21,65,32c0,0,37,11,65,14c0,0,28,3,67,3c0,0,300,0,300,-396V0H480V106H761V452c0,0,0,146,-46,215c0,0,-45,70,-118,70c0,0,-134,0,-198,-119c0,0,-36,-68,-67,-222c0,0,-2,-10,-6,-27L253,0Z" 
id="f1_l"
transform="scale(0.001,-0.001)" />

<path d="M163,0V190H321V0Z" 
id="f1_m"
transform="scale(0.001,-0.001)" />

<path d="M66,0V106H322c0,0,75,0,127,23c0,0,53,23,82,67c0,0,29,43,42,98c0,0,13,54,13,124c0,0,0,70,-13,124c0,0,-13,55,-42,98c0,0,-29,44,-82,67c0,0,-52,23,-127,23H66V836H322c0,0,87,0,157,-24c0,0,70,-24,115,-64c0,0,45,-40,74,-94c0,0,30,-55,43,-113c0,0,13,-59,13,-123c0,0,0,-64,-13,-123c0,0,-13,-58,-43,-113c0,0,-29,-54,-74,-94C594,88,549,48,479,24C479,24,409,0,322,0Z" 
id="f1_n"
transform="scale(0.001,-0.001)" />

<path d="M180,0L66,836H203L258,443c0,0,36,1,64,6c0,0,28,6,49,18c0,0,20,12,35,26c0,0,15,13,26,36c0,0,11,24,17,44c0,0,7,20,12,55c0,0,6,34,9,60c0,0,3,26,8,71c0,0,4,45,9,77H610c0,0,-13,-194,-31,-271c0,0,-31,-127,-111,-179c0,0,-71,-45,-196,-50L304,107c0,0,73,0,130,5c0,0,56,6,111,21c0,0,54,15,94,40c0,0,40,25,77,64c0,0,37,39,63,94c0,0,25,54,46,128c0,0,21,73,34,166c0,0,13,94,20,211h138c0,0,-14,-124,-29,-218c0,0,-16,-94,-39,-179c0,0,-22,-85,-50,-146c0,0,-28,-61,-68,-112c0,0,-39,-51,-87,-84C744,97,696,65,632,42C632,42,568,19,492,10C492,10,417,0,320,0Z" 
id="f1_o"
transform="scale(0.001,-0.001)" />

<path d="M71,-141V-15L289,62L66,836H210L416,109c0,0,99,42,153,98c0,0,53,56,80,155c0,0,26,98,26,262V836H817V624c0,0,0,-88,-7,-154c0,0,-7,-67,-25,-132c0,0,-18,-66,-51,-116c0,0,-33,-51,-84,-98c0,0,-50,-48,-123,-87c0,0,-72,-39,-169,-74L71,-141Z" 
id="f1_p"
transform="scale(0.001,-0.001)" />

<path d="M102,312V836H241V369L102,312Z" 
id="f1_q"
transform="scale(0.001,-0.001)" />

<path d="M495,0V729H66V836H781V729H634V0Z" 
id="f1_r"
transform="scale(0.001,-0.001)" />

<path d="M66,0V106H564L66,836H228L516,413c0,0,3,2,9,6c0,0,17,13,27,21c0,0,10,8,26,27c0,0,17,20,26,40c0,0,9,21,16,54c0,0,7,34,7,75V836H764V698c0,0,0,-55,-7,-102c0,0,-7,-47,-16,-79c0,0,-10,-33,-27,-62c0,0,-18,-29,-32,-46c0,0,-14,-17,-37,-35c0,0,-22,-17,-36,-25c0,0,-13,-8,-36,-20L767,53V0Z" 
id="f1_s"
transform="scale(0.001,-0.001)" />

<path d="M139,-317V836H278V-317Z" 
id="f1_t"
transform="scale(0.001,-0.001)" />

<path d="M543,-317V369c0,0,0,85,-8,143c0,0,-8,58,-27,101c0,0,-18,44,-51,69c0,0,-33,24,-80,36c0,0,-48,11,-117,11H66V836H257c0,0,125,0,205,-23c0,0,80,-23,130,-79c0,0,50,-56,70,-143c0,0,20,-86,20,-222V-317Z" 
id="f1_u"
transform="scale(0.001,-0.001)" />

<path d="M679,178V467c0,0,0,110,-32,150c0,0,-31,41,-120,41H385V178ZM139,0V836H525c0,0,220,0,311,-90c0,0,90,-90,90,-297V0Z" 
id="f0_f"
transform="scale(0.001,-0.001)" />

<path d="M102,250V836H349V351L102,250Z" 
id="f0_g"
transform="scale(0.001,-0.001)" />

<path d="M248,0L521,658H66v429H313V836l493,-1V716L504,0Z" 
id="f0_h"
transform="scale(0.001,-0.001)" />

<path d="M66,0V177H334c0,0,99,0,150,66c0,0,51,67,51,175c0,0,0,108,-51,175c0,0,-51,66,-150,66H66V836H334c0,0,92,0,168,-24c0,0,75,-24,127,-64c0,0,51,-40,86,-94c0,0,35,-54,51,-113c0,0,15,-60,15,-123c0,0,0,-63,-15,-123c0,0,-16,-59,-51,-113c0,0,-35,-54,-86,-94C629,88,577,48,502,24C502,24,426,0,334,0Z" 
id="f0_i"
transform="scale(0.001,-0.001)" />

<path d="M173,-6C173,-6,61,-6,15,9V177c0,0,73,-10,82,-10c0,0,37,0,52,30c0,0,14,29,14,116V658H18V836H516c0,0,262,0,341,-145c0,0,48,-89,48,-242V0H658V450c0,0,0,131,-37,171c0,0,-34,37,-105,37H411V313c0,0,0,-189,-67,-258C344,55,285,-6,173,-6Z" 
id="f0_j"
transform="scale(0.001,-0.001)" />

<path d="M83,331V549H551V331Z" 
id="f0_k"
transform="scale(0.001,-0.001)" />

<path d="M66,0V178H507V449c0,0,0,43,-2,71c0,0,-3,28,-12,56c0,0,-9,28,-26,45c0,0,-17,16,-47,27c0,0,-29,10,-72,10H66V836H349c0,0,97,0,167,-17c0,0,71,-17,117,-49c0,0,46,-32,73,-84c0,0,27,-52,38,-114c0,0,11,-62,11,-147V178H866V0Z" 
id="f0_l"
transform="scale(0.001,-0.001)" />

<path d="M66,0V178H307V510c0,0,0,100,-31,124c0,0,-30,24,-79,24H83V836H197c0,0,215,0,286,-85c0,0,71,-85,71,-224V0Z" 
id="f0_m"
transform="scale(0.001,-0.001)" />

<path d="M41,0V49l69,18V634L41,652v49H313l11,-61l50,26c0,0,105,54,188,54c0,0,194,0,194,-207V67L827,49V0H478V49l63,18V484c0,0,0,63,-27,98c0,0,-26,35,-75,35c0,0,-57,0,-114,-25V67L389,49V0Z" 
id="f2_2"
transform="scale(0.001,-0.001)" />

<path d="M379,60c0,0,59,0,84,64c0,0,24,65,24,231c0,0,0,164,-24,227c0,0,-24,63,-84,63c0,0,-57,0,-80,-60c0,0,-22,-61,-22,-230c0,0,0,-173,23,-234c0,0,22,-61,79,-61Zm-2,-74c0,0,-161,0,-240,91c0,0,-79,91,-79,277c0,0,0,186,80,276c0,0,81,90,245,90c0,0,167,0,245,-93c0,0,78,-93,78,-273c0,0,0,-188,-81,-278c0,0,-81,-90,-248,-90Z" 
id="f2_4"
transform="scale(0.001,-0.001)" />

<path d="M41,0V49l91,18V634L41,652v49H336l8,-145c0,0,80,89,144,128c0,0,64,40,117,40h40V468H604l-45,94c0,0,-47,0,-106,-21c0,0,-60,-20,-105,-48V67L460,49V0Z" 
id="f2_5"
transform="scale(0.001,-0.001)" />

<path d="M41,0V49l69,18V634L41,652v49H313l11,-61l50,26c0,0,105,54,188,54c0,0,125,0,167,-91c0,0,153,91,258,91c0,0,189,0,189,-207V67l71,-17V0H898V50l63,17V484c0,0,0,63,-24,98c0,0,-25,35,-74,35c0,0,-55,0,-119,-31c0,0,7,-32,7,-73V67L821,50V0H473V50l63,17V484c0,0,0,63,-25,98c0,0,-24,35,-73,35c0,0,-49,0,-113,-29V67L389,49V0Z" 
id="f2_6"
transform="scale(0.001,-0.001)" />

<path d="M345,75c0,0,50,0,110,26V351l-63,-2c0,0,-72,-3,-100,-38c0,0,-28,-35,-28,-113c0,0,0,-63,22,-93c0,0,23,-30,59,-30ZM266,-14c0,0,-217,0,-217,208c0,0,0,79,32,126c0,0,32,48,93,71c0,0,60,22,190,25l91,2V521c0,0,0,126,-104,126c0,0,-62,0,-140,-39L183,521H134V691c0,0,112,17,165,21c0,0,53,5,108,5c0,0,264,0,264,-194V67L741,49V0H483L466,54C466,54,408,14,361,0c0,0,-47,-14,-95,-14Z" 
id="f2_7"
transform="scale(0.001,-0.001)" />

<path d="M30,0V49l76,18V992l-72,18v50H322V67L398,49V0Z" 
id="f2_8"
transform="scale(0.001,-0.001)" />

<path d="M416,68c0,0,60,0,124,32V628c0,0,-58,15,-118,15c0,0,-67,0,-104,-73c0,0,-38,-73,-38,-216c0,0,0,-139,36,-212c0,0,35,-74,100,-74ZM369,-14c0,0,-155,0,-231,88c0,0,-76,90,-76,274c0,0,0,182,82,277c0,0,81,95,236,95c0,0,82,0,165,-20c0,0,-5,24,-5,115V992l-72,18v50H756V67L833,49V0H562L547,40C547,40,505,13,483,4c0,0,-23,-7,-51,-12c0,0,-28,-6,-63,-6Z" 
id="f2_9"
transform="scale(0.001,-0.001)" />

<path d="M425,-14c0,0,-187,0,-280,90c0,0,-93,90,-93,276c0,0,0,115,42,198c0,0,43,82,121,126c0,0,78,44,182,44c0,0,104,0,227,-26V486H571L539,609c0,0,-25,19,-50,26c0,0,-24,7,-65,7c0,0,-44,0,-79,-35c0,0,-36,-35,-56,-98c0,0,-20,-64,-20,-153c0,0,0,-150,47,-214c0,0,47,-64,148,-64c0,0,103,0,176,21V42C640,42,606,15,547,0c0,0,-59,-14,-122,-14Z" 
id="f2_a"
transform="scale(0.001,-0.001)" />

<path d="M34,0V49l76,18V634L38,652v49H325V67L402,49V0ZM217,831c0,0,-48,0,-81,33c0,0,-34,33,-34,82c0,0,0,48,34,81c0,0,34,33,81,33c0,0,48,0,81,-33c0,0,33,-33,33,-81c0,0,0,-47,-33,-81c0,0,-32,-34,-81,-34Z" 
id="f2_b"
transform="scale(0.001,-0.001)" />

<path d="M379,60c0,0,59,0,84,64c0,0,24,65,24,230c0,0,0,164,-24,228c0,0,-24,63,-84,63c0,0,-57,0,-80,-61c0,0,-22,-60,-22,-230c0,0,0,-172,23,-233c0,0,22,-61,79,-61Zm-2,-74c0,0,-161,0,-240,90c0,0,-79,92,-79,278c0,0,0,186,80,276c0,0,81,90,245,90c0,0,167,0,245,-93c0,0,78,-93,78,-273c0,0,0,-188,-81,-279c0,0,-81,-89,-248,-89ZM280,834v25l124,203H616v-28L344,834Z" 
id="f2_c"
transform="scale(0.001,-0.001)" />

<path d="M276,-14c0,0,-57,0,-125,13C151,-1,83,10,48,23V214H97l28,-98c0,0,26,-26,69,-44c0,0,42,-17,86,-17c0,0,65,0,97,28c0,0,32,28,32,71c0,0,0,41,-31,65c0,0,-30,25,-133,57c0,0,-108,34,-154,92c0,0,-45,58,-45,143c0,0,0,95,71,152c0,0,71,57,183,57c0,0,77,0,207,-22V518H457l-24,82c0,0,-21,22,-60,35c0,0,-40,14,-75,14c0,0,-53,0,-79,-22c0,0,-26,-22,-26,-59c0,0,0,-40,32,-65c0,0,32,-26,132,-55c0,0,109,-34,155,-89c0,0,45,-55,45,-137c0,0,0,-117,-72,-177c0,0,-72,-59,-209,-59Z" 
id="f2_e"
transform="scale(0.001,-0.001)" />

<path d="M30,0V34L352,634H272c0,0,-41,0,-80,-7c0,0,-39,-8,-54,-19L115,492H61V701H606V664L283,67H395c0,0,43,0,90,11c0,0,47,10,66,24l40,162h54L624,0Z" 
id="f2_f"
transform="scale(0.001,-0.001)" />

<path d="M179,0V190H336V0Zm0,600V790H336V600Z" 
id="f1_v"
transform="scale(0.001,-0.001)" />

<path d="M0,-141L388,1114H514L127,-141Z" 
id="f1_w"
transform="scale(0.001,-0.001)" />

<path d="M71,0V90H214v934H71v90H1073V851H970v160H502V654H792V796H895V411H792V552H502V103H984V263h102V0Z" 
id="f3_2"
transform="scale(0.001,-0.001)" />

<path d="M87,-338c0,0,-45,0,-94,7c0,0,-51,8,-105,22v168l84,-1c0,0,1,-59,23,-86c0,0,21,-26,70,-26c0,0,55,0,77,35c0,0,21,35,21,127V703H51v90H427V-92c0,0,0,-122,-86,-184c0,0,-86,-62,-254,-62ZM277,876c0,0,-61,0,-102,41c0,0,-42,41,-42,101c0,0,0,60,41,101c0,0,42,42,103,42c0,0,58,0,100,-42c0,0,42,-42,42,-101c0,0,0,-59,-42,-101c0,0,-41,-41,-100,-41Z" 
id="f3_3"
transform="scale(0.001,-0.001)" />

<path d="M612,448c0,0,0,156,-29,219c0,0,-29,63,-99,63c0,0,-68,0,-98,-61c0,0,-29,-62,-29,-208V448ZM488,-20c0,0,-205,0,-315,107C173,87,63,195,63,397c0,0,0,197,112,307c0,0,113,110,313,110c0,0,197,0,303,-115c0,0,105,-116,111,-340H357v-6c0,0,0,-154,46,-222c0,0,46,-68,149,-68c0,0,86,0,139,45c0,0,53,46,68,133H883C883,241,851,105,755,42c0,0,-95,-62,-267,-62Z" 
id="f3_4"
transform="scale(0.001,-0.001)" />

<path d="M53,0V90H165V703H44v90H429V652c0,0,39,83,103,123c0,0,64,39,156,39c0,0,24,0,57,-3c0,0,33,-3,76,-9V565H737c0,0,-4,63,-34,94c0,0,-30,31,-87,31c0,0,-87,0,-137,-76c0,0,-50,-76,-50,-211V90H573V0Z" 
id="f3_5"
transform="scale(0.001,-0.001)" />

<path d="M507,-20c0,0,-212,0,-328,108C179,88,63,198,63,397c0,0,0,197,114,307c0,0,115,110,320,110c0,0,82,0,167,-15c0,0,84,-16,171,-47V532H752c0,0,-12,101,-59,150c0,0,-47,48,-132,48c0,0,-111,0,-157,-74c0,0,-47,-75,-47,-259c0,0,0,-180,45,-257c0,0,46,-77,149,-77c0,0,80,0,128,47c0,0,48,48,58,137H861C861,247,833,112,745,45c0,0,-87,-65,-238,-65Z" 
id="f3_6"
transform="scale(0.001,-0.001)" />

<path d="M53,0V90H165V703H53v90H429V90H543V0ZM285,876c0,0,-61,0,-102,41c0,0,-42,41,-42,101c0,0,0,60,42,101c0,0,41,42,102,42c0,0,59,0,100,-42c0,0,41,-41,41,-101c0,0,0,-59,-41,-101c0,0,-41,-41,-100,-41Z" 
id="f3_7"
transform="scale(0.001,-0.001)" />

<path d="M510,63c0,0,84,0,118,71c0,0,34,72,34,263c0,0,0,191,-34,262c0,0,-33,71,-118,71c0,0,-84,0,-119,-72c0,0,-34,-72,-34,-261c0,0,0,-190,34,-262c0,0,35,-72,119,-72Zm0,-83c0,0,-209,0,-328,110C182,90,63,201,63,397c0,0,0,196,119,307c0,0,119,110,328,110c0,0,211,0,330,-110c0,0,118,-111,118,-307c0,0,0,-196,-119,-307C839,90,720,-20,510,-20Z" 
id="f3_8"
transform="scale(0.001,-0.001)" />

<path d="M209,0V90H418V992L187,854V966l279,168H701V90H910V0Z" 
id="f3_a"
transform="scale(0.001,-0.001)" />

<path d="M577,-14c0,0,-243,0,-379,132C198,118,63,250,63,488c0,0,0,258,130,391c0,0,131,132,387,132c0,0,156,0,335,-38l5,-218H871L848,884c0,0,-52,32,-121,50c0,0,-69,17,-141,17c0,0,-191,0,-279,-112c0,0,-88,-113,-88,-349c0,0,0,-217,92,-332c0,0,92,-115,268,-115c0,0,85,0,160,20c0,0,76,21,120,55l27,149h49L930,32c0,0,-164,-46,-353,-46Z" 
id="f4_2"
transform="scale(0.001,-0.001)" />

<path d="M284,67c0,0,51,0,88,12c0,0,37,12,74,30V358l-98,-3c0,0,-100,-4,-135,-39c0,0,-35,-35,-35,-117c0,0,0,-132,106,-132ZM233,-14c0,0,-179,0,-179,208c0,0,0,70,27,116c0,0,27,46,87,70c0,0,60,24,173,27l105,3V519c0,0,0,72,-26,107c0,0,-27,34,-82,34c0,0,-75,0,-137,-35L176,538H134V691c0,0,121,26,213,26c0,0,115,0,169,-47c0,0,54,-47,54,-144V52L657,33V0H465L451,70c0,0,-85,-84,-218,-84Z" 
id="f4_3"
transform="scale(0.001,-0.001)" />

<path d="M278,-14c0,0,-52,0,-115,11c0,0,-63,10,-99,23V193H98L134,95c0,0,56,-50,146,-50c0,0,144,0,144,123c0,0,0,91,-114,130l-66,21c0,0,-75,25,-110,50c0,0,-34,26,-53,63c0,0,-18,36,-18,89c0,0,0,92,63,145c0,0,63,54,170,54c0,0,77,0,193,-23V544H454l-32,81c0,0,-39,35,-124,35c0,0,-61,0,-92,-30c0,0,-32,-30,-32,-80c0,0,0,-43,29,-72c0,0,28,-29,86,-48c0,0,110,-38,144,-55c0,0,33,-17,57,-42c0,0,23,-25,36,-57c0,0,13,-32,13,-79c0,0,0,-104,-66,-158c0,0,-66,-53,-195,-53Z" 
id="f4_4"
transform="scale(0.001,-0.001)" />

<path d="M249,-14c0,0,-71,0,-107,42c0,0,-35,42,-35,119V639H15v33l93,29l76,159h47V701H391V639H231V161c0,0,0,-48,22,-73c0,0,22,-24,57,-24c0,0,44,0,106,12V26C416,26,389,8,340,-2c0,0,-49,-12,-91,-12Z" 
id="f4_5"
transform="scale(0.001,-0.001)" />

<path d="M495,413c0,0,0,133,-34,190c0,0,-34,57,-105,57c0,0,-78,0,-119,-63c0,0,-42,-62,-42,-184ZM374,-14c0,0,-163,0,-239,87c0,0,-75,88,-75,283c0,0,0,183,77,273c0,0,76,91,219,91c0,0,269,0,269,-306V353H194V340c0,0,0,-103,23,-160c0,0,22,-57,70,-87c0,0,47,-29,124,-29c0,0,40,0,96,6c0,0,55,7,91,15V43C598,43,562,20,500,3c0,0,-61,-17,-126,-17Z" 
id="f4_6"
transform="scale(0.001,-0.001)" />

<path d="M31,0V33L150,52v956L31,1026v34H274V52L394,33V0Z" 
id="f4_7"
transform="scale(0.001,-0.001)" />

<path d="M439,0V33l93,19V500c0,0,0,62,-30,97c0,0,-31,36,-94,36c0,0,-67,0,-165,-22V52L338,33V0H35V33l84,19V649L35,668v33H235l7,-57c0,0,57,33,122,54c0,0,65,22,108,22c0,0,91,0,137,-53c0,0,47,-53,47,-154V52L741,33V0Z" 
id="f4_8"
transform="scale(0.001,-0.001)" />

<path d="M377,45c0,0,99,0,147,73c0,0,47,73,47,237c0,0,0,161,-47,233c0,0,-47,72,-147,72c0,0,-97,0,-141,-69c0,0,-44,-69,-44,-236c0,0,0,-169,45,-240c0,0,44,-70,140,-70Zm0,-59c0,0,-158,0,-238,94c0,0,-81,95,-81,274c0,0,0,178,81,272c0,0,80,94,244,94c0,0,160,0,241,-92c0,0,82,-92,82,-274c0,0,0,-368,-329,-368Z" 
id="f4_9"
transform="scale(0.001,-0.001)" />

<path d="M44,0V40L172,60V941L44,960v40H445V960L316,941V549H787V941L659,960v40h400V960L930,941V60L1059,40V0H659V40L787,60V481H316V60L445,40V0Z" 
id="f4_a"
transform="scale(0.001,-0.001)" />

<path d="M376,50c0,0,103,0,149,80c0,0,46,81,46,240c0,0,0,137,-47,204c0,0,-48,67,-148,67c0,0,-44,0,-87,-7c0,0,-44,-8,-63,-17V62c0,0,63,-12,150,-12Zm3,-64c0,0,-64,0,-141,14c0,0,-78,14,-136,37v971L0,1026v34H226V809c0,0,0,-40,-4,-148c0,0,74,59,188,59c0,0,143,0,219,-87c0,0,77,-87,77,-263c0,0,0,-189,-84,-287c0,0,-84,-97,-243,-97Z" 
id="f4_b"
transform="scale(0.001,-0.001)" />

<path d="M31,0V33l88,19V649L31,668v33H235l7,-87c0,0,44,37,121,71c0,0,76,35,121,35h11V530H463l-43,82c0,0,-37,0,-88,-10c0,0,-52,-10,-89,-26V52L363,33V0Z" 
id="f4_c"
transform="scale(0.001,-0.001)" />

<path d="M382,45c0,0,188,0,188,314c0,0,0,143,-47,213c0,0,-46,69,-141,69c0,0,-87,0,-146,-24V58c0,0,67,-13,146,-13ZM25,-325v35l88,18V649L34,668v33H231l1,-41c0,0,31,27,84,43c0,0,53,17,107,17c0,0,134,0,208,-94c0,0,73,-93,73,-267c0,0,0,-178,-80,-276c0,0,-80,-97,-232,-97c0,0,-84,0,-160,16c0,0,4,-53,4,-84V-272l123,-18v-35Z" 
id="f4_d"
transform="scale(0.001,-0.001)" />

<path d="M32,0V33L151,52V649L52,668v33H275V52L395,33V0ZM201,850c0,0,-32,0,-56,24c0,0,-24,24,-24,56c0,0,0,34,24,58c0,0,24,24,56,24c0,0,34,0,58,-24c0,0,24,-24,24,-58c0,0,0,-32,-24,-56c0,0,-24,-24,-58,-24Z" 
id="f4_e"
transform="scale(0.001,-0.001)" />

<path d="M399,-14c0,0,-341,0,-341,370c0,0,0,175,87,269c0,0,87,95,249,95c0,0,101,0,220,-23V501H573L541,625c0,0,-62,35,-149,35c0,0,-200,0,-200,-304c0,0,0,-158,61,-225c0,0,61,-67,189,-67c0,0,109,0,189,24V43C631,43,595,16,530,1c0,0,-64,-15,-131,-15Z" 
id="f4_f"
transform="scale(0.001,-0.001)" />

<path d="M377,44c0,0,99,0,147,73c0,0,47,73,47,237c0,0,0,161,-47,234c0,0,-47,72,-147,72c0,0,-97,0,-141,-69c0,0,-44,-70,-44,-237c0,0,0,-169,45,-239c0,0,44,-71,140,-71Zm0,-58c0,0,-158,0,-238,94c0,0,-81,95,-81,274c0,0,0,178,81,272c0,0,80,94,244,94c0,0,160,0,241,-92c0,0,82,-92,82,-274c0,0,0,-368,-329,-368ZM301,835v24l147,203H606v-27L342,835Z" 
id="f4_g"
transform="scale(0.001,-0.001)" />

<path d="M228,-14c0,0,-103,0,-209,46L49,200H83L95,99c0,0,20,-21,55,-38c0,0,36,-16,81,-16c0,0,163,0,163,133c0,0,0,44,-35,78c0,0,-34,34,-113,72c0,0,-75,37,-112,81c0,0,-36,45,-36,104c0,0,0,99,66,153c0,0,67,54,184,54c0,0,85,0,200,-26L521,538H486l-11,80c0,0,-47,42,-124,42c0,0,-61,0,-97,-28c0,0,-37,-28,-37,-87c0,0,0,-40,31,-71c0,0,32,-30,119,-75c0,0,78,-40,113,-86c0,0,36,-47,36,-107c0,0,0,-113,-71,-167c0,0,-72,-53,-217,-53Z" 
id="f5_2"
transform="scale(0.001,-0.001)" />

<path d="M301,78c0,0,85,0,185,104l81,442c0,0,-29,20,-55,28c0,0,-25,8,-62,8c0,0,-75,0,-137,-56c0,0,-62,-56,-98,-152c0,0,-36,-95,-36,-199c0,0,0,-79,33,-127c0,0,33,-48,89,-48ZM245,-14c0,0,-90,0,-145,66c0,0,-54,66,-54,182c0,0,0,131,57,244c0,0,57,114,152,178c0,0,96,64,208,64c0,0,90,0,170,-33l33,26h40L589,52L673,33L667,0H454l22,117C476,117,350,-14,245,-14Z" 
id="f5_3"
transform="scale(0.001,-0.001)" />

<path d="M54,0L169,649L81,668l6,33H294L274,558c0,0,62,81,130,121c0,0,67,41,132,41c0,0,75,0,113,-41c0,0,38,-41,38,-117c0,0,0,-10,-3,-32c0,0,-3,-21,-81,-478L700,34L695,0H470l76,434c0,0,17,94,17,123c0,0,0,34,-18,55c0,0,-18,21,-56,21c0,0,-56,0,-121,-47c0,0,-65,-47,-108,-117L178,0Z" 
id="f5_4"
transform="scale(0.001,-0.001)" />

<path d="M325,47c0,0,68,0,130,54c0,0,61,55,97,149c0,0,36,94,36,202c0,0,0,103,-39,156c0,0,-39,53,-113,53c0,0,-67,0,-128,-54c0,0,-61,-55,-96,-149c0,0,-35,-94,-35,-204c0,0,0,-101,39,-154c0,0,39,-53,109,-53Zm-6,-61c0,0,-124,0,-199,79c0,0,-74,79,-74,214c0,0,0,120,51,222c0,0,51,102,143,160c0,0,91,59,205,59c0,0,124,0,199,-80c0,0,74,-79,74,-214c0,0,0,-120,-51,-222C667,204,615,102,524,43c0,0,-91,-57,-205,-57Z" 
id="f5_5"
transform="scale(0.001,-0.001)" />

<path d="M343,-325c0,0,-154,91,-222,206c0,0,-67,114,-67,278c0,0,0,131,34,283c0,0,34,152,95,263c0,0,62,112,156,196c0,0,95,84,248,159L576,997c0,0,-99,-52,-166,-131c0,0,-68,-80,-112,-187c0,0,-44,-106,-77,-290c0,0,-34,-183,-34,-292c0,0,0,-252,167,-359l-11,-63Z" 
id="f5_7"
transform="scale(0.001,-0.001)" />

<path d="M55,0L169,649L81,668l6,33H295L274,557c0,0,52,73,117,118c0,0,65,45,122,45c0,0,66,0,102,-42c0,0,36,-41,36,-121c0,0,51,72,115,117c0,0,64,46,123,46c0,0,63,0,99,-40c0,0,36,-40,36,-116c0,0,0,-16,-3,-42c0,0,-3,-27,-80,-470l98,-19L1032,0H808l77,434c0,0,17,90,17,124c0,0,0,34,-16,54c0,0,-15,21,-49,21c0,0,-33,0,-78,-32c0,0,-46,-31,-83,-80c0,0,-37,-49,-44,-91L558,0H434l76,434c0,0,19,98,19,124c0,0,0,34,-17,54c0,0,-16,21,-51,21c0,0,-33,0,-81,-34c0,0,-47,-33,-84,-80c0,0,-36,-48,-43,-89L179,0Z" 
id="f5_8"
transform="scale(0.001,-0.001)" />

<path d="M-71,-325l11,63c0,0,97,51,163,130c0,0,66,78,109,179c0,0,43,103,79,285c0,0,36,183,36,305c0,0,0,130,-42,218c0,0,-41,89,-125,142l11,63c0,0,158,-94,224,-208c0,0,67,-113,67,-276c0,0,0,-125,-34,-278c0,0,-34,-153,-96,-267c0,0,-62,-112,-157,-197c0,0,-96,-85,-246,-159Z" 
id="f5_9"
transform="scale(0.001,-0.001)" />

<path d="M139,0l27,138c0,0,12,60,29,112c0,0,18,51,36,87c0,0,18,36,43,66c0,0,24,30,45,49c0,0,20,19,48,35c0,0,27,17,45,24c0,0,18,8,43,18L303,836H465L688,388c0,0,22,10,37,17c0,0,14,8,39,28c0,0,25,21,42,45c0,0,18,24,35,65c0,0,18,41,28,93l39,200h137L1018,697c0,0,-12,-61,-29,-112c0,0,-18,-51,-36,-87c0,0,-19,-36,-43,-66c0,0,-25,-31,-45,-49c0,0,-21,-18,-49,-35c0,0,-27,-16,-45,-24c0,0,-18,-8,-43,-17L881,0H719L496,448c0,0,-23,-11,-38,-19c0,0,-14,-8,-39,-27c0,0,-24,-20,-42,-44c0,0,-17,-25,-34,-66c0,0,-18,-41,-28,-92L276,0Z" 
id="f6_2"
transform="scale(0.001,-0.001)" />

<path d="M162,312L264,836H403L312,369L162,312Z" 
id="f6_3"
transform="scale(0.001,-0.001)" />

<path d="M585,0l83,425c0,0,10,55,11,99c0,0,1,44,-11,83c0,0,-12,39,-36,65c0,0,-25,26,-69,42c0,0,-44,15,-105,15H207l21,107H478c0,0,94,0,161,-20c0,0,67,-20,106,-55c0,0,39,-34,58,-87c0,0,18,-53,18,-113c0,0,0,-60,-15,-136L724,0Z" 
id="f6_4"
transform="scale(0.001,-0.001)" />

<path d="M66,0L87,107H576l67,345c0,0,10,56,14,93c0,0,3,37,-4,75c0,0,-7,38,-28,60c0,0,-21,21,-64,35c0,0,-43,14,-107,14H207l21,107H474c0,0,92,0,155,-18c0,0,63,-17,99,-49c0,0,37,-31,53,-83c0,0,16,-52,14,-114c0,0,-2,-62,-18,-147L715,107H838L818,0Z" 
id="f6_5"
transform="scale(0.001,-0.001)" />

<path d="M85,0L199,649l-96,19l6,33H332L218,52L335,33L329,0ZM297,849c0,0,-33,0,-57,24c0,0,-24,24,-24,57c0,0,0,33,24,57c0,0,24,24,57,24c0,0,33,0,57,-24c0,0,24,-24,24,-57c0,0,0,-33,-24,-57c0,0,-24,-24,-57,-24Z" 
id="f5_a"
transform="scale(0.001,-0.001)" />

<path d="M81,0L258,1008l-96,18l6,34H391L214,52L331,33L325,0Z" 
id="f5_b"
transform="scale(0.001,-0.001)" />

<path d="M17,-325L185,639H64l6,36l127,29l9,49c0,0,30,167,100,245c0,0,71,78,191,78c0,0,57,0,104,-15L574,915H538l-14,85c0,0,-22,16,-63,16c0,0,-45,0,-72,-39c0,0,-26,-39,-48,-160L319,701H475L465,639H309L141,-325Z" 
id="f5_c"
transform="scale(0.001,-0.001)" />

<path d="M431,0V33L535,52V499c0,0,0,62,-32,96c0,0,-32,33,-95,33c0,0,-66,0,-163,-22V52L350,33V0H32V33l89,19V649L32,668v33H237l6,-57c0,0,56,32,119,54c0,0,62,22,110,22c0,0,52,0,95,-20c0,0,44,-19,66,-62c0,0,57,32,134,57c0,0,77,25,128,25c0,0,179,0,179,-207V52l90,-19V0H846V33L950,52V499c0,0,0,129,-119,129c0,0,-19,0,-45,-3c0,0,-26,-3,-52,-7c0,0,-25,-4,-49,-8c0,0,-23,-5,-39,-8c0,0,13,-41,13,-89V52L764,33V0Z" 
id="f4_i"
transform="scale(0.001,-0.001)" />

<path d="M495,413c0,0,0,133,-34,190c0,0,-34,57,-105,57c0,0,-78,0,-119,-62c0,0,-42,-63,-42,-185ZM374,-14c0,0,-163,0,-239,87c0,0,-75,88,-75,283c0,0,0,183,77,274c0,0,76,90,219,90c0,0,269,0,269,-306V353H194V339c0,0,0,-103,23,-160c0,0,22,-57,70,-86c0,0,47,-30,124,-30c0,0,40,0,96,6c0,0,55,7,91,15V43C598,43,562,19,500,2c0,0,-61,-16,-126,-16ZM285,835v24l146,203H590v-27L326,835Z" 
id="f4_j"
transform="scale(0.001,-0.001)" />

<path d="M383,64c0,0,85,0,152,28V645c0,0,-67,13,-152,13c0,0,-194,0,-194,-314c0,0,0,-141,48,-211c0,0,48,-69,146,-69ZM342,-14c0,0,-287,0,-287,358c0,0,0,184,82,280c0,0,81,96,239,96c0,0,81,0,163,-18c0,0,-4,25,-4,124v182l-118,18v34H659V52L745,33V0H548l-9,52c0,0,-84,-66,-197,-66Z" 
id="f4_k"
transform="scale(0.001,-0.001)" />

<path d="M200,-14c0,0,-59,0,-93,35c0,0,-34,36,-34,100c0,0,0,22,4,51c0,0,4,30,82,467H67l6,33l99,29L275,860h47L295,701H455L443,639H283L210,230c0,0,-13,-69,-13,-99c0,0,0,-34,17,-51c0,0,17,-16,43,-16c0,0,54,0,113,21L386,50c0,0,-92,-64,-186,-64Z" 
id="f5_d"
transform="scale(0.001,-0.001)" />

<path d="M188,355c0,0,148,11,236,69c0,0,89,58,89,143c0,0,0,41,-23,68c0,0,-22,27,-66,27c0,0,-52,0,-101,-43c0,0,-49,-42,-85,-114c0,0,-36,-71,-50,-150ZM298,-14c0,0,-120,0,-186,67c0,0,-65,67,-65,193c0,0,0,125,53,232c0,0,52,108,145,175c0,0,94,67,196,67c0,0,92,0,147,-42c0,0,56,-43,56,-111c0,0,0,-102,-126,-173c0,0,-125,-72,-336,-86l-3,-54c0,0,0,-95,40,-143c0,0,40,-47,118,-47c0,0,67,0,124,22c0,0,57,23,106,52l22,-32c0,0,-69,-58,-146,-89c0,0,-76,-31,-145,-31Z" 
id="f5_e"
transform="scale(0.001,-0.001)" />

<path d="M62,0L176,649L88,668l6,33H301L278,543c0,0,55,84,124,130c0,0,69,47,138,47c0,0,37,0,59,-6L566,530H534l-28,95c0,0,-60,0,-124,-46c0,0,-63,-45,-116,-120L186,0Z" 
id="f5_f"
transform="scale(0.001,-0.001)" />

<path d="M305,45c0,0,76,0,141,56c0,0,64,56,101,151c0,0,37,95,37,200c0,0,0,83,-35,129c0,0,-34,46,-92,46c0,0,-44,0,-96,-29c0,0,-51,-29,-97,-75L185,81c0,0,43,-36,120,-36ZM295,-14c0,0,-65,0,-128,16C167,2,104,19,57,48l171,960l-100,18l6,34H358L303,731c0,0,-13,-85,-29,-144c0,0,59,61,122,97c0,0,64,36,116,36c0,0,94,0,150,-67c0,0,56,-67,56,-182c0,0,0,-129,-56,-242C662,229,606,115,509,50c0,0,-98,-64,-214,-64Z" 
id="f5_g"
transform="scale(0.001,-0.001)" />

<path d="M757,107l71,365c0,0,29,148,-9,202c0,0,-38,55,-176,55H419L298,107ZM139,0L301,836H662c0,0,105,0,172,-22c0,0,67,-22,102,-70c0,0,35,-48,41,-118c0,0,6,-71,-14,-174L875,0Z" 
id="f6_6"
transform="scale(0.001,-0.001)" />

<path d="M139,0L301,836H440L278,0Z" 
id="f6_7"
transform="scale(0.001,-0.001)" />

<path d="M383,64c0,0,44,0,87,7c0,0,43,7,65,17V645c0,0,-67,13,-152,13c0,0,-194,0,-194,-309c0,0,0,-143,48,-214c0,0,47,-71,146,-71Zm56,-389v35l96,18V-77c0,0,0,73,7,124c0,0,-79,-61,-200,-61c0,0,-287,0,-287,362c0,0,0,180,81,276c0,0,81,96,237,96c0,0,84,0,166,-18l67,33h53V-272l77,-18v-35Z" 
id="f4_l"
transform="scale(0.001,-0.001)" />

<path d="M289,-14c0,0,-179,0,-179,205V649L20,668v33H233V200c0,0,0,-128,120,-128c0,0,92,0,173,23V649L420,668v33H649V52L738,33V0H533l-6,57C527,57,474,28,405,7c0,0,-69,-21,-116,-21Z" 
id="f4_m"
transform="scale(0.001,-0.001)" />

<path d="M359,-270c0,0,124,0,192,46c0,0,67,47,67,129c0,0,0,43,-26,67c0,0,-26,24,-79,24H242c0,0,-32,-27,-51,-69c0,0,-20,-41,-20,-77c0,0,0,-64,46,-92c0,0,46,-28,142,-28Zm11,561c0,0,81,0,115,47c0,0,34,47,34,141c0,0,0,100,-35,142c0,0,-35,42,-113,42c0,0,-78,0,-114,-43c0,0,-37,-42,-37,-141c0,0,0,-98,36,-143c0,0,36,-45,114,-45ZM359,-329c0,0,-143,0,-218,44c0,0,-75,43,-75,125c0,0,0,39,27,78c0,0,26,38,98,89c0,0,-43,14,-72,48c0,0,-29,35,-29,74L208,262c0,0,-118,55,-118,217c0,0,0,115,73,178c0,0,73,63,211,63c0,0,28,0,71,-6c0,0,44,-6,67,-13l165,83l26,-32L599,644c0,0,50,-56,50,-165c0,0,0,-120,-72,-182c0,0,-73,-62,-208,-62c0,0,-62,0,-114,11L208,148c0,0,2,-13,29,-24c0,0,27,-12,67,-12H512c0,0,113,0,168,-49c0,0,55,-49,55,-134c0,0,0,-79,-44,-137c0,0,-43,-58,-128,-90c0,0,-84,-31,-204,-31Z" 
id="f4_n"
transform="scale(0.001,-0.001)" />

<path d="M442,0V33l93,19V504c0,0,0,129,-124,129c0,0,-70,0,-168,-22V52L338,33V0H31V33l88,19v956L15,1026v34H243V756c0,0,0,-77,-5,-112c0,0,54,31,122,53c0,0,68,23,115,23c0,0,91,0,137,-53c0,0,47,-53,47,-154V52L744,33V0Z" 
id="f4_o"
transform="scale(0.001,-0.001)" />

<path d="M32,0V34L151,52V649L52,668v33H275V52L395,34V0Zm71,835v24l146,203H408v-27L144,835Z" 
id="f4_p"
transform="scale(0.001,-0.001)" />

<path d="M360,-14L72,649L0,668v33H327V668L216,648L420,164L615,649L504,668v33H764V668L697,652L416,-14Z" 
id="f4_r"
transform="scale(0.001,-0.001)" />

<path d="M64,0V34L168,59V639H47v36l121,29v49c0,0,0,155,61,239c0,0,62,84,173,84c0,0,58,0,107,-15V908H472l-33,92c0,0,-26,16,-62,16c0,0,-47,0,-66,-42c0,0,-19,-42,-19,-157V701H478V639H292V59L443,34V0Z" 
id="f4_s"
transform="scale(0.001,-0.001)" />

<path d="M41,0V34L426,641H261c0,0,-42,0,-80,-7c0,0,-39,-7,-54,-19L104,515H69V701H586V665L201,60H407c0,0,42,0,89,10c0,0,47,10,66,25l39,147h35L617,0Z" 
id="f4_t"
transform="scale(0.001,-0.001)" />

<path d="M64,-325c0,0,-46,0,-107,14v148H-8l19,-81c0,0,25,-21,62,-21c0,0,44,0,67,47c0,0,22,47,22,152V649L57,668v33H286V-28c0,0,0,-146,-57,-221c0,0,-56,-76,-165,-76ZM213,850c0,0,-34,0,-58,24c0,0,-24,24,-24,56c0,0,0,34,24,58c0,0,24,24,58,24c0,0,32,0,56,-24c0,0,24,-24,24,-58c0,0,0,-32,-24,-56c0,0,-24,-24,-56,-24Z" 
id="f4_u"
transform="scale(0.001,-0.001)" />

<path d="M448,506c0,0,134,0,190,49c0,0,57,50,57,168c0,0,0,114,-56,162c0,0,-56,48,-195,48H316V506ZM777,0L496,438H316V60L468,40V0H54V40L172,60V941L44,960v40H476c0,0,188,0,277,-63c0,0,90,-64,90,-204c0,0,0,-100,-54,-173c0,0,-55,-73,-151,-101L909,60L1017,40V0Z" 
id="f4_v"
transform="scale(0.001,-0.001)" />

<path d="M354,-200c0,0,-112,175,-167,343c0,0,-56,170,-56,337c0,0,0,166,55,335c0,0,55,169,168,345H473c0,0,-100,-172,-148,-340c0,0,-48,-168,-48,-340c0,0,0,-173,48,-342c0,0,49,-168,148,-338Z" 
id="f1_x"
transform="scale(0.001,-0.001)" />

<path d="M122,-200c0,0,99,170,148,338c0,0,49,169,49,342c0,0,0,172,-49,340c0,0,-49,168,-148,340H241c0,0,112,-176,168,-345c0,0,55,-169,55,-335c0,0,0,-167,-55,-337c0,0,-56,-168,-168,-343Z" 
id="f1_y"
transform="scale(0.001,-0.001)" />

<path d="M102,0V182L267,296c0,0,211,146,281,248c0,0,70,102,70,239c0,0,0,129,-53,197c0,0,-54,67,-156,67c0,0,-88,0,-141,-53c0,0,-52,-54,-67,-155H111v240c0,0,91,28,181,42c0,0,89,13,180,13c0,0,212,0,331,-87c0,0,119,-87,119,-242c0,0,0,-110,-66,-198c0,0,-65,-88,-250,-208L296,196H822V327H925V0Z" 
id="f3_b"
transform="scale(0.001,-0.001)" />

<path d="M74,357V479H476V357Z" 
id="f1_z"
transform="scale(0.001,-0.001)" />

<path d="M289,-14c0,0,-179,0,-179,205V649L20,668v33H233V200c0,0,0,-128,120,-128c0,0,92,0,173,23V649L420,668v33H649V52L738,34V0H533l-6,57C527,57,474,28,405,6c0,0,-69,-20,-116,-20Zm24,849v24l147,203H618v-27L354,835Z" 
id="f4_x"
transform="scale(0.001,-0.001)" />

<path d="M284,67c0,0,51,0,88,12c0,0,37,11,74,29V357l-98,-3c0,0,-100,-3,-135,-38c0,0,-35,-36,-35,-118c0,0,0,-131,106,-131ZM233,-14c0,0,-179,0,-179,208c0,0,0,70,27,116c0,0,27,46,87,70c0,0,60,24,173,27l105,3V519c0,0,0,73,-26,107c0,0,-27,34,-82,34c0,0,-75,0,-137,-35L176,538H134V691c0,0,121,26,213,26c0,0,115,0,169,-47c0,0,54,-47,54,-144V52L657,34V0H465L451,70c0,0,-85,-84,-218,-84Zm22,849v24l146,203H560v-27L296,835Z" 
id="f4_y"
transform="scale(0.001,-0.001)" />


</defs>
</svg>