<?xml version="1.0" encoding="UTF-8" standalone="no"?>
<!DOCTYPE svg PUBLIC "-//W3C//DTD SVG 1.1//EN"
"http://www.w3.org/Graphics/SVG/1.1/DTD/svg11.dtd">
<svg viewBox="0 0 909 1286" version="1.1" xmlns="http://www.w3.org/2000/svg" xmlns:xlink="http://www.w3.org/1999/xlink">
<defs>
<clipPath id="c0_4"><path d="M0,1286.2V0H909.4V1286.2Z" /></clipPath>
<style type="text/css"><![CDATA[
.g0_4{
fill: none;
stroke: #000000;
stroke-width: 0.7638889;
stroke-linecap: butt;
stroke-linejoin: round;
}
]]></style>
</defs>
<g clip-path="url(#c0_4)">
<g fill="#000000" >
<use xlink:href="#f0_w" transform="matrix(12,0,0,12,169.4,127.1)" />
<use xlink:href="#f0_c" transform="matrix(12,0,0,12,175.5,127.1)" />
<use xlink:href="#f0_j" transform="matrix(12,0,0,12,185.9,127.1)" />
<use xlink:href="#f0_9" transform="matrix(12,0,0,12,198.9,127.1)" />
<use xlink:href="#f0_c" transform="matrix(12,0,0,12,211.4,127.1)" />
<use xlink:href="#f0_k" transform="matrix(12,0,0,12,227.6,127.1)" />
<use xlink:href="#f0_10" transform="matrix(12,0,0,12,233.4,127.1)" />
<use xlink:href="#f0_q" transform="matrix(12,0,0,12,245.2,127.1)" />
<use xlink:href="#f0_9" transform="matrix(12,0,0,12,258.2,127.1)" />
<use xlink:href="#f0_b" transform="matrix(12,0,0,12,270.7,127.1)" />
<use xlink:href="#f0_2" transform="matrix(12,0,0,12,288.5,127.1)" />
<use xlink:href="#f0_l" transform="matrix(12,0,0,12,298.9,127.1)" />
<use xlink:href="#f0_d" transform="matrix(12,0,0,12,310.8,127.1)" />
<use xlink:href="#f0_c" transform="matrix(12,0,0,12,323,127.1)" />
<use xlink:href="#f0_p" transform="matrix(12,0,0,12,339.3,127.1)" />
<use xlink:href="#f0_5" transform="matrix(12,0,0,12,344.1,127.1)" />
<use xlink:href="#f0_9" transform="matrix(12,0,0,12,348.3,127.1)" />
<use xlink:href="#f0_5" transform="matrix(12,0,0,12,360.8,127.1)" />
<use xlink:href="#f0_9" transform="matrix(12,0,0,12,364.7,127.1)" />
<use xlink:href="#f0_b" transform="matrix(12,0,0,12,383.2,127.1)" />
<use xlink:href="#f0_i" transform="matrix(12,0,0,12,395.1,127.1)" />
<use xlink:href="#f0_4" transform="matrix(12,0,0,12,405,127.1)" />
<use xlink:href="#f0_9" transform="matrix(12,0,0,12,410.1,127.1)" />
<use xlink:href="#f0_r" transform="matrix(12,0,0,12,422.6,127.1)" />
<use xlink:href="#f0_h" transform="matrix(12,0,0,12,434,127.1)" />
<use xlink:href="#f0_r" transform="matrix(12,0,0,12,450.4,127.1)" />
<use xlink:href="#f0_5" transform="matrix(12,0,0,12,461.8,127.1)" />
<use xlink:href="#f0_f" transform="matrix(12,0,0,12,465.9,127.1)" />
<use xlink:href="#f0_4" transform="matrix(12,0,0,12,477.2,127.1)" />
<use xlink:href="#f0_9" transform="matrix(12,0,0,12,482.3,127.1)" />
<use xlink:href="#f0_d" transform="matrix(12,0,0,12,500.6,127.1)" />
<use xlink:href="#f0_4" transform="matrix(12,0,0,12,512.8,127.1)" />
<use xlink:href="#f0_b" transform="matrix(12,0,0,12,517.8,127.1)" />
<use xlink:href="#f0_k" transform="matrix(12,0,0,12,535.7,127.1)" />
<use xlink:href="#f0_3" transform="matrix(12,0,0,12,541.5,127.1)" />
<use xlink:href="#f0_5" transform="matrix(12,0,0,12,553.6,127.1)" />
<use xlink:href="#f0_2" transform="matrix(12,0,0,12,557.7,127.1)" />
<use xlink:href="#f0_h" transform="matrix(12,0,0,12,568,127.1)" />
<use xlink:href="#f0_r" transform="matrix(12,0,0,12,578.6,127.1)" />
<use xlink:href="#f0_h" transform="matrix(12,0,0,12,590,127.1)" />
<use xlink:href="#f0_c" transform="matrix(12,0,0,12,606.5,127.1)" />
<use xlink:href="#f0_5" transform="matrix(12,0,0,12,616.9,127.1)" />
<use xlink:href="#f0_h" transform="matrix(12,0,0,12,621,127.1)" />
<use xlink:href="#f0_q" transform="matrix(12,0,0,12,631.6,127.1)" />
<use xlink:href="#f0_9" transform="matrix(12,0,0,12,644.4,127.1)" />
<use xlink:href="#f0_5" transform="matrix(12,0,0,12,662.9,127.1)" />
<use xlink:href="#f0_q" transform="matrix(12,0,0,12,667,127.1)" />
<use xlink:href="#f0_4" transform="matrix(12,0,0,12,680,127.1)" />
<use xlink:href="#f0_i" transform="matrix(12,0,0,12,684.9,127.1)" />
<use xlink:href="#f0_q" transform="matrix(12,0,0,12,694.9,127.1)" />
<use xlink:href="#f0_i" transform="matrix(12,0,0,12,707.8,127.1)" />
<use xlink:href="#f0_7" transform="matrix(12,0,0,12,723.8,127.1)" />
<use xlink:href="#f0_j" transform="matrix(12,0,0,12,735.8,127.1)" />
<use xlink:href="#f0_j" transform="matrix(12,0,0,12,754.6,127.1)" />
<use xlink:href="#f0_5" transform="matrix(12,0,0,12,767.6,127.1)" />
<use xlink:href="#f0_e" transform="matrix(12,0,0,12,532.6,148.5)" />
<use xlink:href="#f0_10" transform="matrix(12,0,0,12,538.4,148.5)" />
<use xlink:href="#f0_5" transform="matrix(12,0,0,12,550.1,148.5)" />
<use xlink:href="#f0_q" transform="matrix(12,0,0,12,554.3,148.5)" />
<use xlink:href="#f0_r" transform="matrix(12,0,0,12,567.2,148.5)" />
<use xlink:href="#f0_d" transform="matrix(12,0,0,12,584.5,148.5)" />
<use xlink:href="#f0_j" transform="matrix(12,0,0,12,596.7,148.5)" />
<use xlink:href="#f0_4" transform="matrix(12,0,0,12,609.7,148.5)" />
<use xlink:href="#f0_9" transform="matrix(12,0,0,12,614.6,148.5)" />
<use xlink:href="#f0_11" transform="matrix(12,0,0,12,632.9,148.5)" />
<use xlink:href="#f0_4" transform="matrix(12,0,0,12,648,148.5)" />
<use xlink:href="#f0_c" transform="matrix(12,0,0,12,652.9,148.5)" />
<use xlink:href="#f0_k" transform="matrix(12,0,0,12,669.3,148.5)" />
<use xlink:href="#f0_b" transform="matrix(12,0,0,12,675.1,148.5)" />
<use xlink:href="#f0_c" transform="matrix(12,0,0,12,687,148.5)" />
<use xlink:href="#f0_k" transform="matrix(12,0,0,12,703.3,148.5)" />
<use xlink:href="#f0_5" transform="matrix(12,0,0,12,709.1,148.5)" />
<use xlink:href="#f0_c" transform="matrix(12,0,0,12,713.2,148.5)" />
<use xlink:href="#f0_d" transform="matrix(12,0,0,12,729.4,148.5)" />
<use xlink:href="#f0_j" transform="matrix(12,0,0,12,741.7,148.5)" />
<use xlink:href="#f0_4" transform="matrix(12,0,0,12,754.7,148.5)" />
<use xlink:href="#f0_9" transform="matrix(12,0,0,12,759.5,148.5)" />
</g>
</g>
<path d="M128.6,172.6H609.5M128.6,194.7H609.5M128.6,216.9H609.5M128.6,239H609.5M128.6,261.2H609.5M128.6,283.3H609.5M128.6,305.5H609.5M128.6,327.6H609.5M128.6,371.2H609.5M128.6,393.3H609.5M128.6,415.5H609.5M128.6,437.6H609.5M128.6,459.8H609.5M128.6,481.9H609.5M128.6,504.1H609.5M128.6,526.2H609.5M128.6,548.4H609.5M128.6,570.5H609.5M128.6,592.7H609.5M128.6,614.9H609.5M128.6,637H609.5M128.9,172.2V637.4M334.3,172.2V637.4M609.1,172.2V637.4" class="g0_4" />
<g clip-path="url(#c0_4)">
<g fill="#000000" >
<use xlink:href="#f0_7" transform="matrix(12,0,0,12,553.5,189.9)" />
<use xlink:href="#f0_r" transform="matrix(12,0,0,12,565.7,189.9)" />
<use xlink:href="#f0_m" transform="matrix(12,0,0,12,577.2,189.9)" />
<use xlink:href="#f0_b" transform="matrix(12,0,0,12,589.1,189.9)" />
<use xlink:href="#f1_9" transform="matrix(11,0,0,11,137.7,188.5)" />
<use xlink:href="#f1_d" transform="matrix(11,0,0,11,145.1,188.5)" />
<use xlink:href="#f1_7" transform="matrix(11,0,0,11,154,188.5)" />
<use xlink:href="#f1_l" transform="matrix(11,0,0,11,161.4,188.5)" />
<use xlink:href="#f1_9" transform="matrix(11,0,0,11,168.9,188.5)" />
<use xlink:href="#f1_b" transform="matrix(11,0,0,11,176.3,188.5)" />
<use xlink:href="#f1_j" transform="matrix(11,0,0,11,184.6,188.5)" />
<use xlink:href="#f1_3" transform="matrix(11,0,0,11,189.3,188.5)" />
<use xlink:href="#f0_10" transform="matrix(12,0,0,12,516.5,212.1)" />
<use xlink:href="#f0_4" transform="matrix(12,0,0,12,528.3,212.1)" />
<use xlink:href="#f0_t" transform="matrix(12,0,0,12,533.3,212.1)" />
<use xlink:href="#f0_b" transform="matrix(12,0,0,12,540.8,212.1)" />
<use xlink:href="#f0_3" transform="matrix(12,0,0,12,558.5,212.1)" />
<use xlink:href="#f0_4" transform="matrix(12,0,0,12,570.6,212.1)" />
<use xlink:href="#f0_9" transform="matrix(12,0,0,12,575.6,212.1)" />
<use xlink:href="#f0_j" transform="matrix(12,0,0,12,588,212.1)" />
<use xlink:href="#f1_d" transform="matrix(11,0,0,11,137.7,210.7)" />
<use xlink:href="#f1_3" transform="matrix(11,0,0,11,142.4,210.7)" />
<use xlink:href="#f1_i" transform="matrix(11,0,0,11,150.8,210.7)" />
<use xlink:href="#f1_12" transform="matrix(11,0,0,11,161.4,210.7)" />
<use xlink:href="#f1_n" transform="matrix(11,0,0,11,169.9,210.7)" />
<use xlink:href="#f1_3" transform="matrix(11,0,0,11,175.5,210.7)" />
<use xlink:href="#f1_b" transform="matrix(11,0,0,11,183.9,210.7)" />
<use xlink:href="#f1_3" transform="matrix(11,0,0,11,192.3,210.7)" />
<use xlink:href="#f1_m" transform="matrix(11,0,0,11,200.5,210.7)" />
<use xlink:href="#f1_a" transform="matrix(11,0,0,11,213.7,210.7)" />
<use xlink:href="#f1_n" transform="matrix(11,0,0,11,222.1,210.7)" />
<use xlink:href="#f1_9" transform="matrix(11,0,0,11,227.7,210.7)" />
<use xlink:href="#f1_i" transform="matrix(11,0,0,11,235.2,210.7)" />
<use xlink:href="#f0_m" transform="matrix(12,0,0,12,496.1,234.2)" />
<use xlink:href="#f0_4" transform="matrix(12,0,0,12,507.8,234.2)" />
<use xlink:href="#f0_j" transform="matrix(12,0,0,12,512.9,234.2)" />
<use xlink:href="#f0_f" transform="matrix(12,0,0,12,525.8,234.2)" />
<use xlink:href="#f0_b" transform="matrix(12,0,0,12,537.3,234.2)" />
<use xlink:href="#f0_b" transform="matrix(12,0,0,12,555.1,234.2)" />
<use xlink:href="#f0_4" transform="matrix(12,0,0,12,567.1,234.2)" />
<use xlink:href="#f0_4" transform="matrix(12,0,0,12,572.1,234.2)" />
<use xlink:href="#f0_b" transform="matrix(12,0,0,12,577.1,234.2)" />
<use xlink:href="#f0_b" transform="matrix(12,0,0,12,589,234.2)" />
<use xlink:href="#f1_9" transform="matrix(11,0,0,11,137.7,232.8)" />
<use xlink:href="#f1_d" transform="matrix(11,0,0,11,145.1,232.8)" />
<use xlink:href="#f1_12" transform="matrix(11,0,0,11,154,232.8)" />
<use xlink:href="#f1_n" transform="matrix(11,0,0,11,162.4,232.8)" />
<use xlink:href="#f1_9" transform="matrix(11,0,0,11,168,232.8)" />
<use xlink:href="#f1_i" transform="matrix(11,0,0,11,175.4,232.8)" />
<use xlink:href="#f1_9" transform="matrix(11,0,0,11,181.9,232.8)" />
<use xlink:href="#f1_b" transform="matrix(11,0,0,11,189.3,232.8)" />
<use xlink:href="#f1_j" transform="matrix(11,0,0,11,197.7,232.8)" />
<use xlink:href="#f1_9" transform="matrix(11,0,0,11,202.5,232.8)" />
<use xlink:href="#f0_b" transform="matrix(12,0,0,12,503.7,256.4)" />
<use xlink:href="#f0_c" transform="matrix(12,0,0,12,515.6,256.4)" />
<use xlink:href="#f0_d" transform="matrix(12,0,0,12,526,256.4)" />
<use xlink:href="#f0_j" transform="matrix(12,0,0,12,538.2,256.4)" />
<use xlink:href="#f0_3" transform="matrix(12,0,0,12,557,256.4)" />
<use xlink:href="#f0_4" transform="matrix(12,0,0,12,569.1,256.4)" />
<use xlink:href="#f0_c" transform="matrix(12,0,0,12,574.1,256.4)" />
<use xlink:href="#f0_5" transform="matrix(12,0,0,12,584.5,256.4)" />
<use xlink:href="#f0_9" transform="matrix(12,0,0,12,588.5,256.4)" />
<use xlink:href="#f1_d" transform="matrix(11,0,0,11,137.7,255)" />
<use xlink:href="#f1_3" transform="matrix(11,0,0,11,142.4,255)" />
<use xlink:href="#f1_i" transform="matrix(11,0,0,11,150.8,255)" />
<use xlink:href="#f1_f" transform="matrix(11,0,0,11,161.4,255)" />
<use xlink:href="#f1_b" transform="matrix(11,0,0,11,166.2,255)" />
<use xlink:href="#f1_j" transform="matrix(11,0,0,11,174.4,255)" />
<use xlink:href="#f1_9" transform="matrix(11,0,0,11,179.1,255)" />
<use xlink:href="#f1_n" transform="matrix(11,0,0,11,186.6,255)" />
<use xlink:href="#f1_n" transform="matrix(11,0,0,11,192.2,255)" />
<use xlink:href="#f1_3" transform="matrix(11,0,0,11,197.9,255)" />
<use xlink:href="#f1_g" transform="matrix(11,0,0,11,206.3,255)" />
<use xlink:href="#f1_7" transform="matrix(11,0,0,11,214.5,255)" />
<use xlink:href="#f1_j" transform="matrix(11,0,0,11,222,255)" />
<use xlink:href="#f1_f" transform="matrix(11,0,0,11,226.7,255)" />
<use xlink:href="#f1_8" transform="matrix(11,0,0,11,231.4,255)" />
<use xlink:href="#f1_3" transform="matrix(11,0,0,11,239.8,255)" />
<use xlink:href="#f1_i" transform="matrix(11,0,0,11,248.1,255)" />
<use xlink:href="#f0_p" transform="matrix(12,0,0,12,377.1,278.5)" />
<use xlink:href="#f0_5" transform="matrix(12,0,0,12,382.1,278.5)" />
<use xlink:href="#f0_5" transform="matrix(12,0,0,12,386.2,278.5)" />
<use xlink:href="#f0_8" transform="matrix(12,0,0,12,390.3,278.5)" />
<use xlink:href="#f0_q" transform="matrix(12,0,0,12,397.6,278.5)" />
<use xlink:href="#f0_3" transform="matrix(12,0,0,12,416.4,278.5)" />
<use xlink:href="#f0_4" transform="matrix(12,0,0,12,428.5,278.5)" />
<use xlink:href="#f0_c" transform="matrix(12,0,0,12,433.4,278.5)" />
<use xlink:href="#f0_5" transform="matrix(12,0,0,12,443.8,278.5)" />
<use xlink:href="#f0_9" transform="matrix(12,0,0,12,447.9,278.5)" />
<use xlink:href="#f0_11" transform="matrix(12,0,0,12,466.2,278.5)" />
<use xlink:href="#f0_4" transform="matrix(12,0,0,12,481.2,278.5)" />
<use xlink:href="#f0_8" transform="matrix(12,0,0,12,486.2,278.5)" />
<use xlink:href="#f0_c" transform="matrix(12,0,0,12,493.5,278.5)" />
<use xlink:href="#f0_j" transform="matrix(12,0,0,12,503.9,278.5)" />
<use xlink:href="#f0_k" transform="matrix(12,0,0,12,522.8,278.5)" />
<use xlink:href="#f0_n" transform="matrix(12,0,0,12,528.6,278.5)" />
<use xlink:href="#f0_c" transform="matrix(12,0,0,12,538.4,278.5)" />
<use xlink:href="#f0_j" transform="matrix(12,0,0,12,548.8,278.5)" />
<use xlink:href="#f0_k" transform="matrix(12,0,0,12,567.6,278.5)" />
<use xlink:href="#f0_5" transform="matrix(12,0,0,12,573.4,278.5)" />
<use xlink:href="#f0_c" transform="matrix(12,0,0,12,577.5,278.5)" />
<use xlink:href="#f0_j" transform="matrix(12,0,0,12,587.9,278.5)" />
<use xlink:href="#f1_12" transform="matrix(11,0,0,11,137.7,277.1)" />
<use xlink:href="#f1_3" transform="matrix(11,0,0,11,146.1,277.1)" />
<use xlink:href="#f1_i" transform="matrix(11,0,0,11,154.5,277.1)" />
<use xlink:href="#f1_9" transform="matrix(11,0,0,11,161,277.1)" />
<use xlink:href="#f1_i" transform="matrix(11,0,0,11,168.5,277.1)" />
<use xlink:href="#f1_f" transform="matrix(11,0,0,11,174.9,277.1)" />
<use xlink:href="#f1_8" transform="matrix(11,0,0,11,179.6,277.1)" />
<use xlink:href="#f1_3" transform="matrix(11,0,0,11,188,277.1)" />
<use xlink:href="#f1_i" transform="matrix(11,0,0,11,196.4,277.1)" />
<use xlink:href="#f0_5" transform="matrix(12,0,0,12,560.1,300.7)" />
<use xlink:href="#f0_4" transform="matrix(12,0,0,12,564.1,300.7)" />
<use xlink:href="#f0_4" transform="matrix(12,0,0,12,569.1,300.7)" />
<use xlink:href="#f0_5" transform="matrix(12,0,0,12,574.1,300.7)" />
<use xlink:href="#f0_x" transform="matrix(12,0,0,12,578.2,300.7)" />
<use xlink:href="#f0_b" transform="matrix(12,0,0,12,589.1,300.7)" />
<use xlink:href="#f1_f" transform="matrix(11,0,0,11,137.7,299.3)" />
<use xlink:href="#f1_m" transform="matrix(11,0,0,11,142.4,299.3)" />
<use xlink:href="#f1_12" transform="matrix(11,0,0,11,155.4,299.3)" />
<use xlink:href="#f1_9" transform="matrix(11,0,0,11,163.8,299.3)" />
<use xlink:href="#f1_n" transform="matrix(11,0,0,11,171.2,299.3)" />
<use xlink:href="#f1_7" transform="matrix(11,0,0,11,176.9,299.3)" />
<use xlink:href="#f1_j" transform="matrix(11,0,0,11,184.2,299.3)" />
<use xlink:href="#f1_f" transform="matrix(11,0,0,11,188.9,299.3)" />
<use xlink:href="#f1_8" transform="matrix(11,0,0,11,193.6,299.3)" />
<use xlink:href="#f1_3" transform="matrix(11,0,0,11,202,299.3)" />
<use xlink:href="#f0_10" transform="matrix(12,0,0,12,367.3,322.8)" />
<use xlink:href="#f0_5" transform="matrix(12,0,0,12,379,322.8)" />
<use xlink:href="#f0_q" transform="matrix(12,0,0,12,383.1,322.8)" />
<use xlink:href="#f0_r" transform="matrix(12,0,0,12,396.1,322.8)" />
<use xlink:href="#f0_d" transform="matrix(12,0,0,12,413.4,322.8)" />
<use xlink:href="#f0_j" transform="matrix(12,0,0,12,425.6,322.8)" />
<use xlink:href="#f0_4" transform="matrix(12,0,0,12,438.6,322.8)" />
<use xlink:href="#f0_9" transform="matrix(12,0,0,12,443.5,322.8)" />
<use xlink:href="#f0_11" transform="matrix(12,0,0,12,461.8,322.8)" />
<use xlink:href="#f0_4" transform="matrix(12,0,0,12,476.9,322.8)" />
<use xlink:href="#f0_c" transform="matrix(12,0,0,12,481.8,322.8)" />
<use xlink:href="#f0_k" transform="matrix(12,0,0,12,498.1,322.8)" />
<use xlink:href="#f0_b" transform="matrix(12,0,0,12,504,322.8)" />
<use xlink:href="#f0_c" transform="matrix(12,0,0,12,515.9,322.8)" />
<use xlink:href="#f0_k" transform="matrix(12,0,0,12,532.2,322.8)" />
<use xlink:href="#f0_5" transform="matrix(12,0,0,12,538,322.8)" />
<use xlink:href="#f0_c" transform="matrix(12,0,0,12,542.1,322.8)" />
<use xlink:href="#f0_d" transform="matrix(12,0,0,12,558.3,322.8)" />
<use xlink:href="#f0_j" transform="matrix(12,0,0,12,570.6,322.8)" />
<use xlink:href="#f0_4" transform="matrix(12,0,0,12,583.5,322.8)" />
<use xlink:href="#f0_9" transform="matrix(12,0,0,12,588.4,322.8)" />
<use xlink:href="#f1_l" transform="matrix(11,0,0,11,137.7,321.4)" />
<use xlink:href="#f1_3" transform="matrix(11,0,0,11,145.1,321.4)" />
<use xlink:href="#f1_m" transform="matrix(11,0,0,11,153.5,321.4)" />
<use xlink:href="#f1_12" transform="matrix(11,0,0,11,166.6,321.4)" />
<use xlink:href="#f1_d" transform="matrix(11,0,0,11,174.9,321.4)" />
<use xlink:href="#f1_9" transform="matrix(11,0,0,11,179.6,321.4)" />
<use xlink:href="#f1_m" transform="matrix(11,0,0,11,187.1,321.4)" />
<use xlink:href="#f1_9" transform="matrix(11,0,0,11,200.2,321.4)" />
<use xlink:href="#f1_b" transform="matrix(11,0,0,11,207.7,321.4)" />
<use xlink:href="#f1_j" transform="matrix(11,0,0,11,215.9,321.4)" />
<use xlink:href="#f1_3" transform="matrix(11,0,0,11,220.6,321.4)" />
<use xlink:href="#f1_f" transform="matrix(11,0,0,11,233.3,321.4)" />
<use xlink:href="#f1_b" transform="matrix(11,0,0,11,237.9,321.4)" />
<use xlink:href="#f1_k" transform="matrix(11,0,0,11,246.3,321.4)" />
<use xlink:href="#f1_f" transform="matrix(11,0,0,11,254.7,321.4)" />
<use xlink:href="#f1_n" transform="matrix(11,0,0,11,259.3,321.4)" />
<use xlink:href="#f1_9" transform="matrix(11,0,0,11,264.9,321.4)" />
<use xlink:href="#f1_l" transform="matrix(11,0,0,11,272.4,321.4)" />
<use xlink:href="#f1_j" transform="matrix(11,0,0,11,279.8,321.4)" />
<use xlink:href="#f1_3" transform="matrix(11,0,0,11,284.6,321.4)" />
<use xlink:href="#f0_d" transform="matrix(12,0,0,12,358.9,345)" />
<use xlink:href="#f0_j" transform="matrix(12,0,0,12,371.1,345)" />
<use xlink:href="#f0_4" transform="matrix(12,0,0,12,384.1,345)" />
<use xlink:href="#f0_9" transform="matrix(12,0,0,12,389,345)" />
<use xlink:href="#f0_11" transform="matrix(12,0,0,12,407.5,345)" />
<use xlink:href="#f0_4" transform="matrix(12,0,0,12,422.4,345)" />
<use xlink:href="#f0_3" transform="matrix(12,0,0,12,427.3,345)" />
<use xlink:href="#f0_4" transform="matrix(12,0,0,12,439.4,345)" />
<use xlink:href="#f0_d" transform="matrix(12,0,0,12,444.4,345)" />
<use xlink:href="#f0_k" transform="matrix(12,0,0,12,462.6,345)" />
<use xlink:href="#f0_n" transform="matrix(12,0,0,12,468.4,345)" />
<use xlink:href="#f0_3" transform="matrix(12,0,0,12,478.2,345)" />
<use xlink:href="#f0_4" transform="matrix(12,0,0,12,490.2,345)" />
<use xlink:href="#f0_d" transform="matrix(12,0,0,12,495.2,345)" />
<use xlink:href="#f0_k" transform="matrix(12,0,0,12,513.3,345)" />
<use xlink:href="#f0_5" transform="matrix(12,0,0,12,519.1,345)" />
<use xlink:href="#f0_3" transform="matrix(12,0,0,12,523.2,345)" />
<use xlink:href="#f0_4" transform="matrix(12,0,0,12,535.2,345)" />
<use xlink:href="#f0_d" transform="matrix(12,0,0,12,540.2,345)" />
<use xlink:href="#f0_d" transform="matrix(12,0,0,12,558.3,345)" />
<use xlink:href="#f0_j" transform="matrix(12,0,0,12,570.5,345)" />
<use xlink:href="#f0_4" transform="matrix(12,0,0,12,583.5,345)" />
<use xlink:href="#f0_9" transform="matrix(12,0,0,12,588.4,345)" />
<use xlink:href="#f0_2" transform="matrix(12,0,0,12,569.6,366.4)" />
<use xlink:href="#f0_5" transform="matrix(12,0,0,12,579.9,366.4)" />
<use xlink:href="#f0_j" transform="matrix(12,0,0,12,583.9,366.4)" />
<use xlink:href="#f0_5" transform="matrix(12,0,0,12,596.9,366.4)" />
<use xlink:href="#f1_l" transform="matrix(11,0,0,11,137.7,343.6)" />
<use xlink:href="#f1_3" transform="matrix(11,0,0,11,145.1,343.6)" />
<use xlink:href="#f1_m" transform="matrix(11,0,0,11,153.5,343.6)" />
<use xlink:href="#f1_12" transform="matrix(11,0,0,11,166.6,343.6)" />
<use xlink:href="#f1_d" transform="matrix(11,0,0,11,174.9,343.6)" />
<use xlink:href="#f1_9" transform="matrix(11,0,0,11,179.6,343.6)" />
<use xlink:href="#f1_m" transform="matrix(11,0,0,11,187.1,343.6)" />
<use xlink:href="#f1_9" transform="matrix(11,0,0,11,200.2,343.6)" />
<use xlink:href="#f1_b" transform="matrix(11,0,0,11,207.7,343.6)" />
<use xlink:href="#f1_j" transform="matrix(11,0,0,11,215.9,343.6)" />
<use xlink:href="#f1_3" transform="matrix(11,0,0,11,220.6,343.6)" />
<use xlink:href="#f1_k" transform="matrix(11,0,0,11,233.3,343.6)" />
<use xlink:href="#f1_f" transform="matrix(11,0,0,11,241.6,343.6)" />
<use xlink:href="#f1_n" transform="matrix(11,0,0,11,246.3,343.6)" />
<use xlink:href="#f1_9" transform="matrix(11,0,0,11,251.9,343.6)" />
<use xlink:href="#f1_l" transform="matrix(11,0,0,11,259.4,343.6)" />
<use xlink:href="#f1_j" transform="matrix(11,0,0,11,266.7,343.6)" />
<use xlink:href="#f1_3" transform="matrix(11,0,0,11,271.4,343.6)" />
<use xlink:href="#f0_e" transform="matrix(12,0,0,12,546.2,388.5)" />
<use xlink:href="#f0_e" transform="matrix(12,0,0,12,552,388.5)" />
<use xlink:href="#f0_j" transform="matrix(12,0,0,12,557.8,388.5)" />
<use xlink:href="#f0_b" transform="matrix(12,0,0,12,576.6,388.5)" />
<use xlink:href="#f0_9" transform="matrix(12,0,0,12,588.5,388.5)" />
<use xlink:href="#f1_d" transform="matrix(11,0,0,11,527.1,388.5)" />
<use xlink:href="#f1_3" transform="matrix(11,0,0,11,531.7,388.5)" />
<use xlink:href="#f1_9" transform="matrix(11,0,0,11,137.7,387.1)" />
<use xlink:href="#f1_d" transform="matrix(11,0,0,11,145.1,387.1)" />
<use xlink:href="#f1_7" transform="matrix(11,0,0,11,154,387.1)" />
<use xlink:href="#f1_n" transform="matrix(11,0,0,11,161.4,387.1)" />
<use xlink:href="#f1_j" transform="matrix(11,0,0,11,166.9,387.1)" />
<use xlink:href="#f1_v" transform="matrix(11,0,0,11,171.6,387.1)" />
<use xlink:href="#f1_l" transform="matrix(11,0,0,11,176.4,387.1)" />
<use xlink:href="#f1_4" transform="matrix(11,0,0,11,183.8,387.1)" />
<use xlink:href="#f1_d" transform="matrix(11,0,0,11,192.1,387.1)" />
<use xlink:href="#f1_3" transform="matrix(11,0,0,11,196.8,387.1)" />
<use xlink:href="#f1_b" transform="matrix(11,0,0,11,209.5,387.1)" />
<use xlink:href="#f1_9" transform="matrix(11,0,0,11,217.9,387.1)" />
<use xlink:href="#f1_4" transform="matrix(11,0,0,11,225.3,387.1)" />
<use xlink:href="#f1_j" transform="matrix(11,0,0,11,233.6,387.1)" />
<use xlink:href="#f1_n" transform="matrix(11,0,0,11,238.3,387.1)" />
<use xlink:href="#f1_3" transform="matrix(11,0,0,11,243.9,387.1)" />
<use xlink:href="#f0_5" transform="matrix(12,0,0,12,563.6,410.7)" />
<use xlink:href="#f0_c" transform="matrix(12,0,0,12,567.7,410.7)" />
<use xlink:href="#f0_r" transform="matrix(12,0,0,12,578.1,410.7)" />
<use xlink:href="#f0_f" transform="matrix(12,0,0,12,589.6,410.7)" />
<use xlink:href="#f1_i" transform="matrix(11,0,0,11,543.6,410.7)" />
<use xlink:href="#f1_9" transform="matrix(11,0,0,11,550.1,410.7)" />
<use xlink:href="#f1_8" transform="matrix(11,0,0,11,137.7,409.3)" />
<use xlink:href="#f1_9" transform="matrix(11,0,0,11,146.1,409.3)" />
<use xlink:href="#f1_n" transform="matrix(11,0,0,11,153.5,409.3)" />
<use xlink:href="#f1_a" transform="matrix(11,0,0,11,159.1,409.3)" />
<use xlink:href="#f1_3" transform="matrix(11,0,0,11,167.5,409.3)" />
<use xlink:href="#f1_i" transform="matrix(11,0,0,11,176,409.3)" />
<use xlink:href="#f1_n" transform="matrix(11,0,0,11,186.6,409.3)" />
<use xlink:href="#f1_9" transform="matrix(11,0,0,11,192.3,409.3)" />
<use xlink:href="#f1_14" transform="matrix(11,0,0,11,199.6,409.3)" />
<use xlink:href="#f1_d" transform="matrix(11,0,0,11,205.2,409.3)" />
<use xlink:href="#f1_9" transform="matrix(11,0,0,11,209.9,409.3)" />
<use xlink:href="#f1_15" transform="matrix(11,0,0,11,217.4,409.3)" />
<use xlink:href="#f1_f" transform="matrix(11,0,0,11,225.6,409.3)" />
<use xlink:href="#f1_8" transform="matrix(11,0,0,11,230.4,409.3)" />
<use xlink:href="#f1_3" transform="matrix(11,0,0,11,238.8,409.3)" />
<use xlink:href="#f1_i" transform="matrix(11,0,0,11,247.2,409.3)" />
<use xlink:href="#f0_7" transform="matrix(12,0,0,12,487.7,432.8)" />
<use xlink:href="#f0_j" transform="matrix(12,0,0,12,499.9,432.8)" />
<use xlink:href="#f0_d" transform="matrix(12,0,0,12,518.8,432.8)" />
<use xlink:href="#f0_4" transform="matrix(12,0,0,12,531,432.8)" />
<use xlink:href="#f0_b" transform="matrix(12,0,0,12,536.1,432.8)" />
<use xlink:href="#f0_b" transform="matrix(12,0,0,12,548,432.8)" />
<use xlink:href="#f0_4" transform="matrix(12,0,0,12,559.9,432.8)" />
<use xlink:href="#f0_b" transform="matrix(12,0,0,12,570.7,432.8)" />
<use xlink:href="#f0_a" transform="matrix(12,0,0,12,582.6,432.8)" />
<use xlink:href="#f0_b" transform="matrix(12,0,0,12,589,432.8)" />
<use xlink:href="#f1_z" transform="matrix(11,0,0,11,380.6,432.8)" />
<use xlink:href="#f1_i" transform="matrix(11,0,0,11,390.8,432.8)" />
<use xlink:href="#f1_j" transform="matrix(11,0,0,11,397.4,432.8)" />
<use xlink:href="#f1_9" transform="matrix(11,0,0,11,402.1,432.8)" />
<use xlink:href="#f1_2" transform="matrix(11,0,0,11,413.7,432.8)" />
<use xlink:href="#f1_7" transform="matrix(11,0,0,11,426.3,432.8)" />
<use xlink:href="#f1_13" transform="matrix(11,0,0,11,433.8,432.8)" />
<use xlink:href="#f1_4" transform="matrix(11,0,0,11,442.2,432.8)" />
<use xlink:href="#f1_9" transform="matrix(11,0,0,11,450.4,432.8)" />
<use xlink:href="#f1_d" transform="matrix(11,0,0,11,457.9,432.8)" />
<use xlink:href="#f1_d" transform="matrix(11,0,0,11,462.6,432.8)" />
<use xlink:href="#f1_3" transform="matrix(11,0,0,11,467.4,432.8)" />
<use xlink:href="#f1_12" transform="matrix(11,0,0,11,137.7,431.4)" />
<use xlink:href="#f1_n" transform="matrix(11,0,0,11,146.1,431.4)" />
<use xlink:href="#f1_3" transform="matrix(11,0,0,11,151.7,431.4)" />
<use xlink:href="#f1_b" transform="matrix(11,0,0,11,160.1,431.4)" />
<use xlink:href="#f1_3" transform="matrix(11,0,0,11,168.5,431.4)" />
<use xlink:href="#f1_m" transform="matrix(11,0,0,11,176.9,431.4)" />
<use xlink:href="#f1_a" transform="matrix(11,0,0,11,190,431.4)" />
<use xlink:href="#f1_n" transform="matrix(11,0,0,11,198.3,431.4)" />
<use xlink:href="#f1_9" transform="matrix(11,0,0,11,203.9,431.4)" />
<use xlink:href="#f1_i" transform="matrix(11,0,0,11,211.4,431.4)" />
<use xlink:href="#f1_f" transform="matrix(11,0,0,11,222,431.4)" />
<use xlink:href="#f1_b" transform="matrix(11,0,0,11,226.8,431.4)" />
<use xlink:href="#f1_k" transform="matrix(11,0,0,11,235.2,431.4)" />
<use xlink:href="#f1_f" transform="matrix(11,0,0,11,243.6,431.4)" />
<use xlink:href="#f1_l" transform="matrix(11,0,0,11,248.1,431.4)" />
<use xlink:href="#f1_7" transform="matrix(11,0,0,11,255.6,431.4)" />
<use xlink:href="#f1_j" transform="matrix(11,0,0,11,263.1,431.4)" />
<use xlink:href="#f1_f" transform="matrix(11,0,0,11,267.7,431.4)" />
<use xlink:href="#f1_8" transform="matrix(11,0,0,11,272.4,431.4)" />
<use xlink:href="#f1_3" transform="matrix(11,0,0,11,280.8,431.4)" />
<use xlink:href="#f1_i" transform="matrix(11,0,0,11,289.2,431.4)" />
<use xlink:href="#f0_m" transform="matrix(12,0,0,12,497.6,455)" />
<use xlink:href="#f0_4" transform="matrix(12,0,0,12,509.4,455)" />
<use xlink:href="#f0_j" transform="matrix(12,0,0,12,514.4,455)" />
<use xlink:href="#f0_f" transform="matrix(12,0,0,12,527.4,455)" />
<use xlink:href="#f0_b" transform="matrix(12,0,0,12,538.8,455)" />
<use xlink:href="#f0_2" transform="matrix(12,0,0,12,556.7,455)" />
<use xlink:href="#f0_h" transform="matrix(12,0,0,12,567,455)" />
<use xlink:href="#f0_r" transform="matrix(12,0,0,12,577.6,455)" />
<use xlink:href="#f0_b" transform="matrix(12,0,0,12,589,455)" />
<use xlink:href="#f1_12" transform="matrix(11,0,0,11,137.7,453.6)" />
<use xlink:href="#f1_n" transform="matrix(11,0,0,11,146.1,453.6)" />
<use xlink:href="#f1_9" transform="matrix(11,0,0,11,151.7,453.6)" />
<use xlink:href="#f1_j" transform="matrix(11,0,0,11,159,453.6)" />
<use xlink:href="#f1_q" transform="matrix(11,0,0,11,163.7,453.6)" />
<use xlink:href="#f1_n" transform="matrix(11,0,0,11,171.2,453.6)" />
<use xlink:href="#f1_f" transform="matrix(11,0,0,11,176.7,453.6)" />
<use xlink:href="#f1_j" transform="matrix(11,0,0,11,181.4,453.6)" />
<use xlink:href="#f1_3" transform="matrix(11,0,0,11,186.1,453.6)" />
<use xlink:href="#f1_f" transform="matrix(11,0,0,11,198.8,453.6)" />
<use xlink:href="#f1_b" transform="matrix(11,0,0,11,203.4,453.6)" />
<use xlink:href="#f1_k" transform="matrix(11,0,0,11,211.8,453.6)" />
<use xlink:href="#f1_9" transform="matrix(11,0,0,11,220.2,453.6)" />
<use xlink:href="#f1_14" transform="matrix(11,0,0,11,227.7,453.6)" />
<use xlink:href="#f1_f" transform="matrix(11,0,0,11,233.2,453.6)" />
<use xlink:href="#f1_b" transform="matrix(11,0,0,11,237.9,453.6)" />
<use xlink:href="#f1_f" transform="matrix(11,0,0,11,246.3,453.6)" />
<use xlink:href="#f1_k" transform="matrix(11,0,0,11,251,453.6)" />
<use xlink:href="#f1_3" transform="matrix(11,0,0,11,259.4,453.6)" />
<use xlink:href="#f0_4" transform="matrix(12,0,0,12,535.3,477.1)" />
<use xlink:href="#f0_5" transform="matrix(12,0,0,12,540.4,477.1)" />
<use xlink:href="#f0_i" transform="matrix(12,0,0,12,544.3,477.1)" />
<use xlink:href="#f0_8" transform="matrix(12,0,0,12,554.4,477.1)" />
<use xlink:href="#f0_4" transform="matrix(12,0,0,12,561.7,477.1)" />
<use xlink:href="#f0_2" transform="matrix(12,0,0,12,566.8,477.1)" />
<use xlink:href="#f0_l" transform="matrix(12,0,0,12,577.1,477.1)" />
<use xlink:href="#f0_b" transform="matrix(12,0,0,12,589,477.1)" />
<use xlink:href="#f1_9" transform="matrix(11,0,0,11,137.7,475.8)" />
<use xlink:href="#f1_d" transform="matrix(11,0,0,11,145.1,475.8)" />
<use xlink:href="#f1_g" transform="matrix(11,0,0,11,154,475.8)" />
<use xlink:href="#f1_9" transform="matrix(11,0,0,11,162.4,475.8)" />
<use xlink:href="#f1_n" transform="matrix(11,0,0,11,169.8,475.8)" />
<use xlink:href="#f1_4" transform="matrix(11,0,0,11,175.4,475.8)" />
<use xlink:href="#f1_b" transform="matrix(11,0,0,11,183.9,475.8)" />
<use xlink:href="#f1_k" transform="matrix(11,0,0,11,192.3,475.8)" />
<use xlink:href="#f1_f" transform="matrix(11,0,0,11,200.5,475.8)" />
<use xlink:href="#f1_3" transform="matrix(11,0,0,11,205.2,475.8)" />
<use xlink:href="#f0_p" transform="matrix(12,0,0,12,516.2,499.3)" />
<use xlink:href="#f0_f" transform="matrix(12,0,0,12,521.3,499.3)" />
<use xlink:href="#f0_4" transform="matrix(12,0,0,12,532.7,499.3)" />
<use xlink:href="#f0_d" transform="matrix(12,0,0,12,537.7,499.3)" />
<use xlink:href="#f0_b" transform="matrix(12,0,0,12,555.8,499.3)" />
<use xlink:href="#f0_a" transform="matrix(12,0,0,12,567.7,499.3)" />
<use xlink:href="#f0_5" transform="matrix(12,0,0,12,574.1,499.3)" />
<use xlink:href="#f0_d" transform="matrix(12,0,0,12,578.2,499.3)" />
<use xlink:href="#f0_h" transform="matrix(12,0,0,12,590.4,499.3)" />
<use xlink:href="#f1_m" transform="matrix(11,0,0,11,469,499.3)" />
<use xlink:href="#f1_9" transform="matrix(11,0,0,11,482.2,499.3)" />
<use xlink:href="#f1_b" transform="matrix(11,0,0,11,489.6,499.3)" />
<use xlink:href="#f1_j" transform="matrix(11,0,0,11,497.9,499.3)" />
<use xlink:href="#f1_9" transform="matrix(11,0,0,11,502.6,499.3)" />
<use xlink:href="#f0_c" transform="matrix(12,0,0,12,352.6,499.3)" />
<use xlink:href="#f0_r" transform="matrix(12,0,0,12,363,499.3)" />
<use xlink:href="#f0_4" transform="matrix(12,0,0,12,374.5,499.3)" />
<use xlink:href="#f0_f" transform="matrix(12,0,0,12,379.5,499.3)" />
<use xlink:href="#f0_b" transform="matrix(12,0,0,12,390.9,499.3)" />
<use xlink:href="#f0_2" transform="matrix(12,0,0,12,408.7,499.3)" />
<use xlink:href="#f0_d" transform="matrix(12,0,0,12,419,499.3)" />
<use xlink:href="#f0_4" transform="matrix(12,0,0,12,431.3,499.3)" />
<use xlink:href="#f0_3" transform="matrix(12,0,0,12,436.2,499.3)" />
<use xlink:href="#f0_11" transform="matrix(12,0,0,12,454.2,499.3)" />
<use xlink:href="#f1_9" transform="matrix(11,0,0,11,137.7,497.9)" />
<use xlink:href="#f1_d" transform="matrix(11,0,0,11,145.1,497.9)" />
<use xlink:href="#f1_7" transform="matrix(11,0,0,11,154,497.9)" />
<use xlink:href="#f1_k" transform="matrix(11,0,0,11,161.4,497.9)" />
<use xlink:href="#f1_8" transform="matrix(11,0,0,11,169.8,497.9)" />
<use xlink:href="#f1_9" transform="matrix(11,0,0,11,178.2,497.9)" />
<use xlink:href="#f1_n" transform="matrix(11,0,0,11,185.7,497.9)" />
<use xlink:href="#f1_a" transform="matrix(11,0,0,11,191.3,497.9)" />
<use xlink:href="#f1_f" transform="matrix(11,0,0,11,199.6,497.9)" />
<use xlink:href="#f1_3" transform="matrix(11,0,0,11,204.3,497.9)" />
<use xlink:href="#f0_m" transform="matrix(12,0,0,12,492.4,521.4)" />
<use xlink:href="#f0_4" transform="matrix(12,0,0,12,504.2,521.4)" />
<use xlink:href="#f0_j" transform="matrix(12,0,0,12,509.2,521.4)" />
<use xlink:href="#f0_f" transform="matrix(12,0,0,12,522.2,521.4)" />
<use xlink:href="#f0_b" transform="matrix(12,0,0,12,533.6,521.4)" />
<use xlink:href="#f0_i" transform="matrix(12,0,0,12,551.5,521.4)" />
<use xlink:href="#f0_5" transform="matrix(12,0,0,12,561.4,521.4)" />
<use xlink:href="#f0_3" transform="matrix(12,0,0,12,565.5,521.4)" />
<use xlink:href="#f0_r" transform="matrix(12,0,0,12,577.6,521.4)" />
<use xlink:href="#f0_b" transform="matrix(12,0,0,12,589,521.4)" />
<use xlink:href="#f1_14" transform="matrix(11,0,0,11,137.7,520.1)" />
<use xlink:href="#f1_4" transform="matrix(11,0,0,11,143.3,520.1)" />
<use xlink:href="#f1_j" transform="matrix(11,0,0,11,151.7,520.1)" />
<use xlink:href="#f1_4" transform="matrix(11,0,0,11,156.4,520.1)" />
<use xlink:href="#f1_n" transform="matrix(11,0,0,11,164.7,520.1)" />
<use xlink:href="#f1_3" transform="matrix(11,0,0,11,170.3,520.1)" />
<use xlink:href="#f1_i" transform="matrix(11,0,0,11,183,520.1)" />
<use xlink:href="#f1_f" transform="matrix(11,0,0,11,189.4,520.1)" />
<use xlink:href="#f1_m" transform="matrix(11,0,0,11,194.1,520.1)" />
<use xlink:href="#f1_12" transform="matrix(11,0,0,11,207.2,520.1)" />
<use xlink:href="#f1_d" transform="matrix(11,0,0,11,215.5,520.1)" />
<use xlink:href="#f1_9" transform="matrix(11,0,0,11,220.2,520.1)" />
<use xlink:href="#f0_c" transform="matrix(12,0,0,12,445.5,543.6)" />
<use xlink:href="#f0_4" transform="matrix(12,0,0,12,455.9,543.6)" />
<use xlink:href="#f0_r" transform="matrix(12,0,0,12,460.8,543.6)" />
<use xlink:href="#f0_f" transform="matrix(12,0,0,12,472.2,543.6)" />
<use xlink:href="#f0_5" transform="matrix(12,0,0,12,489.6,543.6)" />
<use xlink:href="#f0_8" transform="matrix(12,0,0,12,493.8,543.6)" />
<use xlink:href="#f0_4" transform="matrix(12,0,0,12,501.1,543.6)" />
<use xlink:href="#f0_8" transform="matrix(12,0,0,12,506.1,543.6)" />
<use xlink:href="#f0_5" transform="matrix(12,0,0,12,513.4,543.6)" />
<use xlink:href="#f0_h" transform="matrix(12,0,0,12,517.5,543.6)" />
<use xlink:href="#f0_11" transform="matrix(12,0,0,12,533.9,543.6)" />
<use xlink:href="#f0_b" transform="matrix(12,0,0,12,549,543.6)" />
<use xlink:href="#f0_d" transform="matrix(12,0,0,12,560.9,543.6)" />
<use xlink:href="#f0_x" transform="matrix(12,0,0,12,573.2,543.6)" />
<use xlink:href="#f0_4" transform="matrix(12,0,0,12,584,543.6)" />
<use xlink:href="#f0_3" transform="matrix(12,0,0,12,588.9,543.6)" />
<use xlink:href="#f1_12" transform="matrix(11,0,0,11,137.7,542.2)" />
<use xlink:href="#f1_7" transform="matrix(11,0,0,11,146.1,542.2)" />
<use xlink:href="#f1_n" transform="matrix(11,0,0,11,153.5,542.2)" />
<use xlink:href="#f1_j" transform="matrix(11,0,0,11,159,542.2)" />
<use xlink:href="#f1_f" transform="matrix(11,0,0,11,163.7,542.2)" />
<use xlink:href="#f1_l" transform="matrix(11,0,0,11,168.5,542.2)" />
<use xlink:href="#f1_f" transform="matrix(11,0,0,11,175.8,542.2)" />
<use xlink:href="#f1_12" transform="matrix(11,0,0,11,180.5,542.2)" />
<use xlink:href="#f1_f" transform="matrix(11,0,0,11,188.9,542.2)" />
<use xlink:href="#f1_3" transform="matrix(11,0,0,11,193.6,542.2)" />
<use xlink:href="#f0_7" transform="matrix(12,0,0,12,484.3,565.7)" />
<use xlink:href="#f0_c" transform="matrix(12,0,0,12,496.5,565.7)" />
<use xlink:href="#f0_j" transform="matrix(12,0,0,12,506.9,565.7)" />
<use xlink:href="#f0_4" transform="matrix(12,0,0,12,519.9,565.7)" />
<use xlink:href="#f0_9" transform="matrix(12,0,0,12,524.9,565.7)" />
<use xlink:href="#f0_b" transform="matrix(12,0,0,12,537.3,565.7)" />
<use xlink:href="#f0_b" transform="matrix(12,0,0,12,555.1,565.7)" />
<use xlink:href="#f0_4" transform="matrix(12,0,0,12,567.1,565.7)" />
<use xlink:href="#f0_4" transform="matrix(12,0,0,12,572.1,565.7)" />
<use xlink:href="#f0_b" transform="matrix(12,0,0,12,577.1,565.7)" />
<use xlink:href="#f0_b" transform="matrix(12,0,0,12,589,565.7)" />
<use xlink:href="#f1_12" transform="matrix(11,0,0,11,137.7,564.4)" />
<use xlink:href="#f1_n" transform="matrix(11,0,0,11,146.1,564.4)" />
<use xlink:href="#f1_9" transform="matrix(11,0,0,11,151.7,564.4)" />
<use xlink:href="#f1_j" transform="matrix(11,0,0,11,159,564.4)" />
<use xlink:href="#f1_q" transform="matrix(11,0,0,11,163.7,564.4)" />
<use xlink:href="#f1_n" transform="matrix(11,0,0,11,171.2,564.4)" />
<use xlink:href="#f1_f" transform="matrix(11,0,0,11,176.7,564.4)" />
<use xlink:href="#f1_j" transform="matrix(11,0,0,11,181.4,564.4)" />
<use xlink:href="#f1_3" transform="matrix(11,0,0,11,186.1,564.4)" />
<use xlink:href="#f1_12" transform="matrix(11,0,0,11,198.8,564.4)" />
<use xlink:href="#f1_9" transform="matrix(11,0,0,11,207.1,564.4)" />
<use xlink:href="#f1_n" transform="matrix(11,0,0,11,214.5,564.4)" />
<use xlink:href="#f1_14" transform="matrix(11,0,0,11,220.2,564.4)" />
<use xlink:href="#f1_9" transform="matrix(11,0,0,11,225.8,564.4)" />
<use xlink:href="#f1_l" transform="matrix(11,0,0,11,233.1,564.4)" />
<use xlink:href="#f1_j" transform="matrix(11,0,0,11,240.6,564.4)" />
<use xlink:href="#f1_3" transform="matrix(11,0,0,11,245.3,564.4)" />
<use xlink:href="#f0_u" transform="matrix(12,0,0,12,399.2,587.9)" />
<use xlink:href="#f0_b" transform="matrix(12,0,0,12,406.4,587.9)" />
<use xlink:href="#f0_5" transform="matrix(12,0,0,12,418.3,587.9)" />
<use xlink:href="#f0_b" transform="matrix(12,0,0,12,422.4,587.9)" />
<use xlink:href="#f0_b" transform="matrix(12,0,0,12,440.3,587.9)" />
<use xlink:href="#f0_5" transform="matrix(12,0,0,12,452.2,587.9)" />
<use xlink:href="#f0_b" transform="matrix(12,0,0,12,456.3,587.9)" />
<use xlink:href="#f0_v" transform="matrix(12,0,0,12,468.2,587.9)" />
<use xlink:href="#f0_7" transform="matrix(12,0,0,12,481.2,587.9)" />
<use xlink:href="#f0_c" transform="matrix(12,0,0,12,493.4,587.9)" />
<use xlink:href="#f0_j" transform="matrix(12,0,0,12,503.8,587.9)" />
<use xlink:href="#f0_4" transform="matrix(12,0,0,12,516.8,587.9)" />
<use xlink:href="#f0_9" transform="matrix(12,0,0,12,521.7,587.9)" />
<use xlink:href="#f0_d" transform="matrix(12,0,0,12,540.1,587.9)" />
<use xlink:href="#f0_c" transform="matrix(12,0,0,12,552.3,587.9)" />
<use xlink:href="#f0_2" transform="matrix(12,0,0,12,568.5,587.9)" />
<use xlink:href="#f0_h" transform="matrix(12,0,0,12,578.9,587.9)" />
<use xlink:href="#f0_r" transform="matrix(12,0,0,12,589.5,587.9)" />
<use xlink:href="#f1_12" transform="matrix(11,0,0,11,137.7,586.5)" />
<use xlink:href="#f1_n" transform="matrix(11,0,0,11,146.1,586.5)" />
<use xlink:href="#f1_9" transform="matrix(11,0,0,11,151.7,586.5)" />
<use xlink:href="#f1_j" transform="matrix(11,0,0,11,159,586.5)" />
<use xlink:href="#f1_q" transform="matrix(11,0,0,11,163.7,586.5)" />
<use xlink:href="#f1_n" transform="matrix(11,0,0,11,171.2,586.5)" />
<use xlink:href="#f1_f" transform="matrix(11,0,0,11,176.7,586.5)" />
<use xlink:href="#f1_j" transform="matrix(11,0,0,11,181.4,586.5)" />
<use xlink:href="#f1_3" transform="matrix(11,0,0,11,186.1,586.5)" />
<use xlink:href="#f1_f" transform="matrix(11,0,0,11,198.8,586.5)" />
<use xlink:href="#f1_m" transform="matrix(11,0,0,11,203.4,586.5)" />
<use xlink:href="#f1_12" transform="matrix(11,0,0,11,216.5,586.5)" />
<use xlink:href="#f1_9" transform="matrix(11,0,0,11,224.9,586.5)" />
<use xlink:href="#f1_n" transform="matrix(11,0,0,11,232.3,586.5)" />
<use xlink:href="#f1_14" transform="matrix(11,0,0,11,237.9,586.5)" />
<use xlink:href="#f1_9" transform="matrix(11,0,0,11,243.5,586.5)" />
<use xlink:href="#f1_l" transform="matrix(11,0,0,11,251,586.5)" />
<use xlink:href="#f1_j" transform="matrix(11,0,0,11,258.3,586.5)" />
<use xlink:href="#f1_3" transform="matrix(11,0,0,11,263,586.5)" />
<use xlink:href="#f0_5" transform="matrix(12,0,0,12,553.4,610)" />
<use xlink:href="#f0_d" transform="matrix(12,0,0,12,557.5,610)" />
<use xlink:href="#f0_8" transform="matrix(12,0,0,12,569.7,610)" />
<use xlink:href="#f0_3" transform="matrix(12,0,0,12,577,610)" />
<use xlink:href="#f0_b" transform="matrix(12,0,0,12,589.1,610)" />
<use xlink:href="#f1_9" transform="matrix(11,0,0,11,137.7,608.7)" />
<use xlink:href="#f1_d" transform="matrix(11,0,0,11,145.1,608.7)" />
<use xlink:href="#f1_l" transform="matrix(11,0,0,11,154,608.7)" />
<use xlink:href="#f1_3" transform="matrix(11,0,0,11,161.4,608.7)" />
<use xlink:href="#f1_b" transform="matrix(11,0,0,11,169.8,608.7)" />
<use xlink:href="#f1_k" transform="matrix(11,0,0,11,178.2,608.7)" />
<use xlink:href="#f1_f" transform="matrix(11,0,0,11,186.6,608.7)" />
<use xlink:href="#f1_l" transform="matrix(11,0,0,11,191.2,608.7)" />
<use xlink:href="#f1_f" transform="matrix(11,0,0,11,198.7,608.7)" />
<use xlink:href="#f1_3" transform="matrix(11,0,0,11,203.4,608.7)" />
<use xlink:href="#f1_b" transform="matrix(11,0,0,11,211.8,608.7)" />
<use xlink:href="#f1_7" transform="matrix(11,0,0,11,220.2,608.7)" />
<use xlink:href="#f1_d" transform="matrix(11,0,0,11,227.5,608.7)" />
<use xlink:href="#f0_4" transform="matrix(12,0,0,12,505.7,632.2)" />
<use xlink:href="#f0_h" transform="matrix(12,0,0,12,510.7,632.2)" />
<use xlink:href="#f0_5" transform="matrix(12,0,0,12,521.3,632.2)" />
<use xlink:href="#f0_m" transform="matrix(12,0,0,12,525.4,632.2)" />
<use xlink:href="#f0_8" transform="matrix(12,0,0,12,537.3,632.2)" />
<use xlink:href="#f0_4" transform="matrix(12,0,0,12,544.6,632.2)" />
<use xlink:href="#f0_l" transform="matrix(12,0,0,12,549.6,632.2)" />
<use xlink:href="#f0_h" transform="matrix(12,0,0,12,561.5,632.2)" />
<use xlink:href="#f0_4" transform="matrix(12,0,0,12,572.1,632.2)" />
<use xlink:href="#f0_g" transform="matrix(12,0,0,12,577.1,632.2)" />
<use xlink:href="#f0_b" transform="matrix(12,0,0,12,589,632.2)" />
<use xlink:href="#f1_9" transform="matrix(11,0,0,11,137.7,630.8)" />
<use xlink:href="#f1_d" transform="matrix(11,0,0,11,145.1,630.8)" />
<use xlink:href="#f1_i" transform="matrix(11,0,0,11,154,630.8)" />
<use xlink:href="#f1_4" transform="matrix(11,0,0,11,160.5,630.8)" />
<use xlink:href="#f1_a" transform="matrix(11,0,0,11,168.9,630.8)" />
<use xlink:href="#f1_11" transform="matrix(11,0,0,11,177.3,630.8)" />
<use xlink:href="#f1_4" transform="matrix(11,0,0,11,182,630.8)" />
<use xlink:href="#f1_b" transform="matrix(11,0,0,11,190.4,630.8)" />
<use xlink:href="#f1_j" transform="matrix(11,0,0,11,198.7,630.8)" />
<use xlink:href="#f1_f" transform="matrix(11,0,0,11,203.4,630.8)" />
<use xlink:href="#f1_8" transform="matrix(11,0,0,11,208.1,630.8)" />
<use xlink:href="#f1_3" transform="matrix(11,0,0,11,216.5,630.8)" />
</g>
</g>
<defs>
<path d="M179,0V190H336V0Zm0,600V790H336V600Z" 
id="f0_w"
transform="scale(0.001,-0.001)" />

<path d="M287,0L589,729H66v386H205V836l547,-1l-2,-82L433,0Z" 
id="f0_c"
transform="scale(0.001,-0.001)" />

<path d="M180,0L66,836H203L258,443c0,0,36,1,64,6c0,0,28,6,49,18c0,0,20,12,35,26c0,0,15,13,26,36c0,0,11,24,17,44c0,0,7,20,12,55c0,0,6,34,9,60c0,0,3,26,8,71c0,0,4,45,9,77H610c0,0,-13,-194,-31,-271c0,0,-31,-127,-111,-179c0,0,-71,-45,-196,-50L304,107c0,0,73,0,130,5c0,0,56,6,111,21c0,0,54,15,94,40c0,0,40,25,77,64c0,0,37,39,63,94c0,0,25,54,46,128c0,0,21,73,34,166c0,0,13,94,20,211h138c0,0,-14,-124,-29,-218c0,0,-16,-94,-39,-179c0,0,-22,-85,-50,-146c0,0,-28,-61,-68,-112c0,0,-39,-51,-87,-84C744,97,696,65,632,42C632,42,568,19,492,10C492,10,417,0,320,0Z" 
id="f0_j"
transform="scale(0.001,-0.001)" />

<path d="M114,0l60,312c0,0,2,12,8,39c0,0,6,27,7,37c0,0,2,11,5,30c0,0,2,19,4,33c0,0,1,15,1,31c0,0,0,48,-35,146c0,0,-35,98,-98,208H228c0,0,3,-8,27,-67c0,0,25,-58,41,-117c0,0,21,53,50,90c0,0,29,37,57,57c0,0,29,21,65,32c0,0,37,11,65,14c0,0,28,3,67,3c0,0,300,0,300,-396V0H480V106H761V452c0,0,0,146,-46,215c0,0,-45,70,-118,70c0,0,-134,0,-198,-119c0,0,-36,-68,-67,-222c0,0,-2,-10,-6,-27L253,0Z" 
id="f0_9"
transform="scale(0.001,-0.001)" />

<path d="M117,-176L179,62V190H336V62L213,-176Z" 
id="f0_k"
transform="scale(0.001,-0.001)" />

<path d="M700,-317V454c0,0,0,155,-54,215c0,0,-54,60,-180,60H277V551c0,0,0,-55,26,-80c0,0,27,-26,82,-26c0,0,30,0,80,10V341c0,0,-61,-11,-111,-11c0,0,-100,0,-157,55c0,0,-58,55,-58,186V836H466c0,0,203,0,288,-91c0,0,85,-92,85,-293V-317Z" 
id="f0_10"
transform="scale(0.001,-0.001)" />

<path d="M156,-317V454l139,56V-317ZM505,0L806,729H139V835H967V753L650,0Z" 
id="f0_q"
transform="scale(0.001,-0.001)" />

<path d="M154,0V454l138,56V0ZM722,0V454c0,0,0,161,-49,218c0,0,-48,57,-186,57H139V836H485c0,0,207,0,291,-93c0,0,83,-94,83,-318V0Z" 
id="f0_b"
transform="scale(0.001,-0.001)" />

<path d="M585,0V426c0,0,0,54,-8,98c0,0,-8,44,-27,83c0,0,-19,40,-49,66c0,0,-30,26,-77,41c0,0,-47,15,-108,15H66V836H315c0,0,94,0,166,-20c0,0,71,-20,116,-54c0,0,46,-35,75,-88c0,0,28,-52,40,-112c0,0,12,-60,12,-137V0Z" 
id="f0_2"
transform="scale(0.001,-0.001)" />

<path d="M139,0V836H485c0,0,206,0,290,-90c0,0,84,-89,84,-294V0H721V473c0,0,0,147,-49,202c0,0,-48,54,-186,54H277V0Z" 
id="f0_l"
transform="scale(0.001,-0.001)" />

<path d="M139,0V138c0,0,0,61,8,112c0,0,7,52,19,87c0,0,11,36,30,66c0,0,19,31,35,49c0,0,17,19,41,35c0,0,25,17,41,25c0,0,17,7,40,17L141,836H303L613,388c0,0,20,10,33,18c0,0,13,8,34,28c0,0,20,20,33,44c0,0,13,25,22,66c0,0,10,41,10,92V836H882V698c0,0,0,-61,-7,-112c0,0,-6,-52,-18,-88c0,0,-12,-36,-30,-66c0,0,-19,-30,-36,-49c0,0,-17,-18,-41,-34c0,0,-24,-17,-40,-25c0,0,-17,-8,-41,-17L882,0H720L409,448c0,0,-21,-11,-34,-19c0,0,-13,-8,-34,-27c0,0,-21,-20,-34,-44c0,0,-12,-25,-22,-66c0,0,-9,-41,-9,-92V0Z" 
id="f0_d"
transform="scale(0.001,-0.001)" />

<path d="M139,-317V836H278V-317Z" 
id="f0_p"
transform="scale(0.001,-0.001)" />

<path d="M102,312V836H241V369L102,312Z" 
id="f0_5"
transform="scale(0.001,-0.001)" />

<path d="M495,0V729H66V836H781V729H634V0Z" 
id="f0_i"
transform="scale(0.001,-0.001)" />

<path d="M139,0V836H278V0Z" 
id="f0_4"
transform="scale(0.001,-0.001)" />

<path d="M71,-141V-15L289,62L66,836H210L416,109c0,0,99,42,153,98c0,0,53,56,80,155c0,0,26,98,26,262V836H817V624c0,0,0,-88,-7,-154c0,0,-7,-67,-25,-132c0,0,-18,-66,-51,-116c0,0,-33,-51,-84,-98c0,0,-50,-48,-123,-87c0,0,-72,-39,-169,-74L71,-141Z" 
id="f0_r"
transform="scale(0.001,-0.001)" />

<path d="M66,0V107H554V452c0,0,0,56,-4,93c0,0,-4,37,-18,75c0,0,-14,38,-40,60c0,0,-26,22,-71,36c0,0,-45,13,-110,13H66V836H312c0,0,91,0,157,-17c0,0,66,-17,109,-49c0,0,44,-32,69,-84c0,0,26,-52,36,-114c0,0,10,-62,10,-147V107H817V0Z" 
id="f0_h"
transform="scale(0.001,-0.001)" />

<path d="M139,0V106H400c0,0,176,0,253,71c0,0,78,72,78,250c0,0,0,163,-80,233c0,0,-81,69,-250,69H278L277,564c0,0,-1,-54,26,-80c0,0,27,-25,82,-25c0,0,30,0,80,9V355c0,0,-61,-12,-111,-12c0,0,-100,0,-157,55c0,0,-58,55,-58,186V836H456c0,0,193,0,303,-109c0,0,110,-109,110,-309c0,0,0,-200,-110,-309C759,109,648,0,456,0Z" 
id="f0_f"
transform="scale(0.001,-0.001)" />

<path d="M112,-5c0,0,-39,0,-97,11V113c0,0,48,-10,77,-10c0,0,53,0,70,42c0,0,17,43,17,164V729H50V836H501c0,0,107,0,179,-25c0,0,72,-25,112,-77c0,0,40,-51,57,-118c0,0,16,-67,16,-164V0H726V454c0,0,0,55,-3,92c0,0,-4,37,-17,75c0,0,-14,38,-38,59c0,0,-24,22,-65,36c0,0,-42,13,-102,13H318V309c0,0,0,-160,-46,-237C272,72,226,-5,112,-5Z" 
id="f0_3"
transform="scale(0.001,-0.001)" />

<path d="M736,107V473c0,0,0,147,-48,202c0,0,-49,54,-187,54H278V107ZM139,0V836H499c0,0,105,0,177,-22c0,0,72,-21,116,-69c0,0,44,-49,64,-119c0,0,19,-71,19,-174V0Z" 
id="f0_7"
transform="scale(0.001,-0.001)" />

<path d="M163,0V190H321V0Z" 
id="f0_e"
transform="scale(0.001,-0.001)" />

<path d="M74,365V472H689V365Z" 
id="f0_11"
transform="scale(0.001,-0.001)" />

<path d="M522,-20c0,0,-196,0,-290,99c0,0,-94,100,-94,324V836H276V397c0,0,0,-86,16,-147c0,0,17,-60,50,-94c0,0,34,-34,77,-49c0,0,43,-15,103,-15c0,0,59,0,102,15c0,0,44,15,77,49c0,0,33,34,50,94c0,0,17,61,17,147c0,0,0,84,-8,143c0,0,-7,58,-25,105c0,0,-17,47,-51,69c0,0,-33,23,-83,23c0,0,-50,0,-119,-22V821c0,0,85,23,150,23c0,0,76,0,130,-30c0,0,53,-31,85,-90c0,0,31,-59,45,-138c0,0,13,-78,13,-183c0,0,0,-224,-93,-324c0,0,-94,-99,-290,-99Z" 
id="f0_m"
transform="scale(0.001,-0.001)" />

<path d="M495,413c0,0,0,133,-34,190c0,0,-34,57,-105,57c0,0,-78,0,-119,-63c0,0,-42,-62,-42,-184ZM374,-14c0,0,-163,0,-239,87c0,0,-75,88,-75,283c0,0,0,183,77,273c0,0,76,91,219,91c0,0,269,0,269,-306V353H194V340c0,0,0,-103,23,-160c0,0,22,-57,70,-87c0,0,47,-29,124,-29c0,0,40,0,96,6c0,0,55,7,91,15V43C598,43,562,20,500,3c0,0,-61,-17,-126,-17Z" 
id="f1_9"
transform="scale(0.001,-0.001)" />

<path d="M31,0V33L150,52v956L31,1026v34H274V52L394,33V0Z" 
id="f1_d"
transform="scale(0.001,-0.001)" />

<path d="M284,67c0,0,51,0,88,12c0,0,37,12,74,30V358l-98,-3c0,0,-100,-4,-135,-39c0,0,-35,-35,-35,-117c0,0,0,-132,106,-132ZM233,-14c0,0,-179,0,-179,208c0,0,0,70,27,116c0,0,27,46,87,70c0,0,60,24,173,27l105,3V519c0,0,0,72,-26,107c0,0,-27,34,-82,34c0,0,-75,0,-137,-35L176,538H134V691c0,0,121,26,213,26c0,0,115,0,169,-47c0,0,54,-47,54,-144V52L657,33V0H465L451,70c0,0,-85,-84,-218,-84Z" 
id="f1_7"
transform="scale(0.001,-0.001)" />

<path d="M399,-14c0,0,-341,0,-341,370c0,0,0,175,87,269c0,0,87,95,249,95c0,0,101,0,220,-23V501H573L541,625c0,0,-62,35,-149,35c0,0,-200,0,-200,-304c0,0,0,-158,61,-225c0,0,61,-67,189,-67c0,0,109,0,189,24V43C631,43,595,16,530,1c0,0,-64,-15,-131,-15Z" 
id="f1_l"
transform="scale(0.001,-0.001)" />

<path d="M439,0V33l93,19V500c0,0,0,62,-30,97c0,0,-31,36,-94,36c0,0,-67,0,-165,-22V52L338,33V0H35V33l84,19V649L35,668v33H235l7,-57c0,0,57,33,122,54c0,0,65,22,108,22c0,0,91,0,137,-53c0,0,47,-53,47,-154V52L741,33V0Z" 
id="f1_b"
transform="scale(0.001,-0.001)" />

<path d="M249,-14c0,0,-71,0,-107,42c0,0,-35,42,-35,119V639H15v33l93,29l76,159h47V701H391V639H231V161c0,0,0,-48,22,-73c0,0,22,-24,57,-24c0,0,44,0,106,12V26C416,26,389,8,340,-2c0,0,-49,-12,-91,-12Z" 
id="f1_j"
transform="scale(0.001,-0.001)" />

<path d="M377,45c0,0,99,0,147,73c0,0,47,73,47,237c0,0,0,161,-47,233c0,0,-47,72,-147,72c0,0,-97,0,-141,-69c0,0,-44,-69,-44,-236c0,0,0,-169,45,-240c0,0,44,-70,140,-70Zm0,-59c0,0,-158,0,-238,94c0,0,-81,95,-81,274c0,0,0,178,81,272c0,0,80,94,244,94c0,0,160,0,241,-92c0,0,82,-92,82,-274c0,0,0,-368,-329,-368Z" 
id="f1_3"
transform="scale(0.001,-0.001)" />

<path d="M138,-7c0,0,-34,0,-72,10V129c0,0,25,-8,52,-8c0,0,33,0,58,5c0,0,26,5,58,24c0,0,33,20,53,54c0,0,21,34,36,97c0,0,15,64,15,151c0,0,0,113,-19,173c0,0,-19,60,-56,82c0,0,-38,22,-107,22H89V836h72c0,0,165,0,240,-91c0,0,76,-91,76,-293c0,0,0,-107,26,-227c0,0,25,-119,83,-225H437c0,0,-43,101,-62,184c0,0,-24,-60,-51,-99c0,0,-26,-38,-56,-58C268,27,239,7,209,0c0,0,-30,-7,-71,-7Z" 
id="f0_t"
transform="scale(0.001,-0.001)" />

<path d="M278,-14c0,0,-52,0,-115,11c0,0,-63,10,-99,23V193H98L134,95c0,0,56,-50,146,-50c0,0,144,0,144,123c0,0,0,91,-114,130l-66,21c0,0,-75,25,-110,50c0,0,-34,26,-53,63c0,0,-18,36,-18,89c0,0,0,92,63,145c0,0,63,54,170,54c0,0,77,0,193,-23V544H454l-32,81c0,0,-39,35,-124,35c0,0,-61,0,-92,-30c0,0,-32,-30,-32,-80c0,0,0,-43,29,-72c0,0,28,-29,86,-48c0,0,110,-38,144,-55c0,0,33,-17,57,-42c0,0,23,-25,36,-57c0,0,13,-32,13,-79c0,0,0,-104,-66,-158c0,0,-66,-53,-195,-53Z" 
id="f1_i"
transform="scale(0.001,-0.001)" />

<path d="M382,45c0,0,188,0,188,314c0,0,0,143,-47,213c0,0,-46,69,-141,69c0,0,-87,0,-146,-24V58c0,0,67,-13,146,-13ZM25,-325v35l88,18V649L34,668v33H231l1,-41c0,0,31,27,84,43c0,0,53,17,107,17c0,0,134,0,208,-94c0,0,73,-93,73,-267c0,0,0,-178,-80,-276c0,0,-80,-97,-232,-97c0,0,-84,0,-160,16c0,0,4,-53,4,-84V-272l123,-18v-35Z" 
id="f1_12"
transform="scale(0.001,-0.001)" />

<path d="M31,0V33l88,19V649L31,668v33H235l7,-87c0,0,44,37,121,71c0,0,76,35,121,35h11V530H463l-43,82c0,0,-37,0,-88,-10c0,0,-52,-10,-89,-26V52L363,33V0Z" 
id="f1_n"
transform="scale(0.001,-0.001)" />

<path d="M431,0V33L535,52V499c0,0,0,62,-32,96c0,0,-32,33,-95,33c0,0,-66,0,-163,-22V52L350,33V0H32V33l89,19V649L32,668v33H237l6,-57c0,0,56,32,119,54c0,0,62,22,110,22c0,0,52,0,95,-20c0,0,44,-19,66,-62c0,0,57,32,134,57c0,0,77,25,128,25c0,0,179,0,179,-207V52l90,-19V0H846V33L950,52V499c0,0,0,129,-119,129c0,0,-19,0,-45,-3c0,0,-26,-3,-52,-7c0,0,-25,-4,-49,-8c0,0,-23,-5,-39,-8c0,0,13,-41,13,-89V52L764,33V0Z" 
id="f1_m"
transform="scale(0.001,-0.001)" />

<path d="M376,50c0,0,103,0,149,80c0,0,46,81,46,240c0,0,0,137,-47,204c0,0,-48,67,-148,67c0,0,-44,0,-87,-7c0,0,-44,-8,-63,-17V62c0,0,63,-12,150,-12Zm3,-64c0,0,-64,0,-141,14c0,0,-78,14,-136,37v971L0,1026v34H226V809c0,0,0,-40,-4,-148c0,0,74,59,188,59c0,0,143,0,219,-87c0,0,77,-87,77,-263c0,0,0,-189,-84,-287c0,0,-84,-97,-243,-97Z" 
id="f1_a"
transform="scale(0.001,-0.001)" />

<path d="M32,0V33L151,52V649L52,668v33H275V52L395,33V0ZM201,850c0,0,-32,0,-56,24c0,0,-24,24,-24,56c0,0,0,34,24,58c0,0,24,24,56,24c0,0,34,0,58,-24c0,0,24,-24,24,-58c0,0,0,-32,-24,-56c0,0,-24,-24,-58,-24Z" 
id="f1_f"
transform="scale(0.001,-0.001)" />

<path d="M359,-270c0,0,124,0,192,46c0,0,67,47,67,129c0,0,0,43,-26,67c0,0,-26,24,-79,24H242c0,0,-32,-27,-51,-69c0,0,-20,-41,-20,-77c0,0,0,-64,46,-92c0,0,46,-28,142,-28Zm11,561c0,0,81,0,115,47c0,0,34,47,34,141c0,0,0,100,-35,142c0,0,-35,42,-113,42c0,0,-78,0,-114,-43c0,0,-37,-42,-37,-141c0,0,0,-98,36,-143c0,0,36,-45,114,-45ZM359,-329c0,0,-143,0,-218,44c0,0,-75,43,-75,125c0,0,0,39,27,78c0,0,26,38,98,89c0,0,-43,14,-72,48c0,0,-29,35,-29,74L208,262c0,0,-118,55,-118,217c0,0,0,115,73,178c0,0,73,63,211,63c0,0,28,0,71,-6c0,0,44,-6,67,-13l165,83l26,-32L599,644c0,0,50,-56,50,-165c0,0,0,-120,-72,-182c0,0,-73,-62,-208,-62c0,0,-62,0,-114,11L208,148c0,0,2,-13,29,-24c0,0,27,-12,67,-12H512c0,0,113,0,168,-49c0,0,55,-49,55,-134c0,0,0,-79,-44,-137c0,0,-43,-58,-128,-90c0,0,-84,-31,-204,-31Z" 
id="f1_g"
transform="scale(0.001,-0.001)" />

<path d="M360,-14L72,649L0,668v33H327V668L216,648L420,164L615,649L504,668v33H764V668L697,652L416,-14Z" 
id="f1_8"
transform="scale(0.001,-0.001)" />

<path d="M66,0V107H332V555c0,0,0,92,-37,133c0,0,-37,41,-116,41H85V836h94c0,0,153,0,223,-66c0,0,69,-66,69,-231V0Z" 
id="f0_8"
transform="scale(0.001,-0.001)" />

<path d="M543,-317V369c0,0,0,85,-8,143c0,0,-8,58,-27,101c0,0,-18,44,-51,69c0,0,-33,24,-80,36c0,0,-48,11,-117,11H66V836H257c0,0,125,0,205,-23c0,0,80,-23,130,-79c0,0,50,-56,70,-143c0,0,20,-86,20,-222V-317Z" 
id="f0_n"
transform="scale(0.001,-0.001)" />

<path d="M66,0V106H564L66,836H228L516,413c0,0,3,2,9,6c0,0,17,13,27,21c0,0,10,8,26,27c0,0,17,20,26,40c0,0,9,21,16,54c0,0,7,34,7,75V836H764V698c0,0,0,-55,-7,-102c0,0,-7,-47,-16,-79c0,0,-10,-33,-27,-62c0,0,-18,-29,-32,-46c0,0,-14,-17,-37,-35c0,0,-22,-17,-36,-25c0,0,-13,-8,-36,-20L767,53V0Z" 
id="f0_x"
transform="scale(0.001,-0.001)" />

<path d="M383,64c0,0,85,0,152,28V645c0,0,-67,13,-152,13c0,0,-194,0,-194,-314c0,0,0,-141,48,-211c0,0,48,-69,146,-69ZM342,-14c0,0,-287,0,-287,358c0,0,0,184,82,280c0,0,81,96,239,96c0,0,81,0,163,-18c0,0,-4,25,-4,124v182l-118,18v34H659V52L745,33V0H548l-9,52c0,0,-84,-66,-197,-66Z" 
id="f1_k"
transform="scale(0.001,-0.001)" />

<path d="M32,0V34L151,52V649L52,668v33H275V52L395,34V0Zm71,835v24l146,203H408v-27L144,835Z" 
id="f1_v"
transform="scale(0.001,-0.001)" />

<path d="M289,-14c0,0,-179,0,-179,205V649L20,668v33H233V200c0,0,0,-128,120,-128c0,0,92,0,173,23V649L420,668v33H649V52L738,33V0H533l-6,57C527,57,474,28,405,7c0,0,-69,-21,-116,-21Z" 
id="f1_4"
transform="scale(0.001,-0.001)" />

<path d="M64,0V34L168,59V639H47v36l121,29v49c0,0,0,155,61,239c0,0,62,84,173,84c0,0,58,0,107,-15V908H472l-33,92c0,0,-26,16,-62,16c0,0,-47,0,-66,-42c0,0,-19,-42,-19,-157V701H478V639H292V59L443,34V0Z" 
id="f1_14"
transform="scale(0.001,-0.001)" />

<path d="M13,0V34L95,46L325,350L122,649L40,668v33H357V668L264,648L399,446L554,649l-96,19v33H710V668L630,652L433,397L663,50L745,34V0H427V34l94,17L359,299L169,50L266,34V0Z" 
id="f1_15"
transform="scale(0.001,-0.001)" />

<path d="M152,0V473c0,0,0,94,28,161c0,0,29,66,71,95H66V836H463V729H404c0,0,-65,0,-89,-57c0,0,-25,-58,-25,-199V0Z" 
id="f0_a"
transform="scale(0.001,-0.001)" />

<path d="M44,0V40L172,60V941L44,960v40H794V760H745L721,922c0,0,-83,11,-241,11H316V543H586l23,119h48V354H609L586,475H316V67H513c0,0,193,0,252,12l43,185h49L843,0Z" 
id="f1_z"
transform="scale(0.001,-0.001)" />

<path d="M148,-329c0,0,-58,0,-114,13v151H69l24,-71c0,0,23,-17,64,-17c0,0,39,0,72,22c0,0,33,23,60,67c0,0,27,44,68,157L90,649L19,668v33H344V668L233,648L423,158L606,649L497,668v33H758V668L685,652L411,-43c0,0,-48,-124,-84,-177c0,0,-36,-54,-79,-82c0,0,-44,-27,-100,-27Z" 
id="f1_2"
transform="scale(0.001,-0.001)" />

<path d="M383,64c0,0,44,0,87,7c0,0,43,7,65,17V645c0,0,-67,13,-152,13c0,0,-194,0,-194,-309c0,0,0,-143,48,-214c0,0,47,-71,146,-71Zm56,-389v35l96,18V-77c0,0,0,73,7,124c0,0,-79,-61,-200,-61c0,0,-287,0,-287,362c0,0,0,180,81,276c0,0,81,96,237,96c0,0,84,0,166,-18l67,33h53V-272l77,-18v-35Z" 
id="f1_13"
transform="scale(0.001,-0.001)" />

<path d="M495,413c0,0,0,133,-34,190c0,0,-34,57,-105,57c0,0,-78,0,-119,-62c0,0,-42,-63,-42,-185ZM374,-14c0,0,-163,0,-239,87c0,0,-75,88,-75,283c0,0,0,183,77,274c0,0,76,90,219,90c0,0,269,0,269,-306V353H194V339c0,0,0,-103,23,-160c0,0,22,-57,70,-86c0,0,47,-30,124,-30c0,0,40,0,96,6c0,0,55,7,91,15V43C598,43,562,19,500,2c0,0,-61,-16,-126,-16ZM285,835v24l146,203H590v-27L326,835Z" 
id="f1_q"
transform="scale(0.001,-0.001)" />

<path d="M354,-200c0,0,-112,175,-167,343c0,0,-56,170,-56,337c0,0,0,166,55,335c0,0,55,169,168,345H473c0,0,-100,-172,-148,-340c0,0,-48,-168,-48,-340c0,0,0,-173,48,-342c0,0,49,-168,148,-338Z" 
id="f0_u"
transform="scale(0.001,-0.001)" />

<path d="M122,-200c0,0,99,170,148,338c0,0,49,169,49,342c0,0,0,172,-49,340c0,0,-49,168,-148,340H241c0,0,112,-176,168,-345c0,0,55,-169,55,-335c0,0,0,-167,-55,-337c0,0,-56,-168,-168,-343Z" 
id="f0_v"
transform="scale(0.001,-0.001)" />

<path d="M522,92c0,0,247,0,247,333c0,0,0,88,-17,146c0,0,-17,58,-53,91c0,0,-35,33,-82,46c0,0,-48,14,-116,14H276V419c0,0,0,-327,246,-327Zm0,-112c0,0,-193,0,-289,109c0,0,-95,110,-95,337V836H501c0,0,213,0,309,-93c0,0,96,-94,96,-317c0,0,0,-227,-95,-337C811,89,715,-20,522,-20Z" 
id="f0_g"
transform="scale(0.001,-0.001)" />

<path d="M64,-325c0,0,-46,0,-107,14v148H-8l19,-81c0,0,25,-21,62,-21c0,0,44,0,67,47c0,0,22,47,22,152V649L57,668v33H286V-28c0,0,0,-146,-57,-221c0,0,-56,-76,-165,-76ZM213,850c0,0,-34,0,-58,24c0,0,-24,24,-24,56c0,0,0,34,24,58c0,0,24,24,58,24c0,0,32,0,56,-24c0,0,24,-24,24,-58c0,0,0,-32,-24,-56c0,0,-24,-24,-56,-24Z" 
id="f1_11"
transform="scale(0.001,-0.001)" />


</defs>
</svg>