<?xml version="1.0" encoding="UTF-8" standalone="no"?>
<!DOCTYPE svg PUBLIC "-//W3C//DTD SVG 1.1//EN"
"http://www.w3.org/Graphics/SVG/1.1/DTD/svg11.dtd">
<svg viewBox="0 0 909 1286" version="1.1" xmlns="http://www.w3.org/2000/svg" xmlns:xlink="http://www.w3.org/1999/xlink">
<defs>
<clipPath id="c0_11"><path d="M0,1286.2V0H909.4V1286.2Z" /></clipPath>
<style type="text/css"><![CDATA[
.g0_11{
fill: none;
stroke: #000000;
stroke-width: 0.7638889;
stroke-linecap: butt;
stroke-linejoin: round;
}
]]></style>
</defs>
<path d="M128.6,110.4H781.2M128.6,132.5H781.2M128.6,154.7H781.2M128.6,176.8H781.2M128.6,199H781.2M128.6,221.1H781.2M128.6,243.3H781.2M128.6,265.5H781.2M128.6,287.6H781.2M128.6,309.8H781.2M128.6,353.3H781.2M128.6,375.5H781.2M128.6,397.6H781.2M128.6,419.8H781.2M128.6,441.9H781.2M128.6,464.1H781.2M128.6,486.2H781.2M128.6,508.4H781.2M128.6,530.5H781.2M128.6,552.7H781.2M128.6,574.8H781.2M128.6,597H781.2M128.6,619.1H781.2M128.6,641.3H781.2M128.6,663.4H781.2M128.6,685.6H781.2M128.6,707.7H781.2M128.6,729.9H781.2M128.6,752H781.2M128.6,774.2H781.2M128.6,796.4H781.2M128.6,818.5H781.2M128.6,840.7H781.2M128.6,862.8H781.2M128.6,885H781.2M128.6,907.1H781.2M128.6,929.3H781.2M128.6,951.4H781.2M128.6,973.6H781.2M128.6,995.7H781.2m-652.6,22.2H781.2M128.6,1040H781.2m-652.6,22.2H781.2m-652.6,22.1H781.2m-652.6,22.2H781.2m-652.6,22.1H781.2m-652.6,22.2H781.2M128.6,1173H781.2M128.9,110V1173.3M292.3,110V1173.3M455.1,110V1173.3M618,110V1173.3M780.8,110V1173.3" class="g0_11" />
<g clip-path="url(#c0_11)">
<g fill="#000000" >
<use xlink:href="#f0_x" transform="matrix(12,0,0,12,722,127.9)" />
<use xlink:href="#f0_9" transform="matrix(12,0,0,12,735,127.9)" />
<use xlink:href="#f0_3" transform="matrix(12,0,0,12,740,127.9)" />
<use xlink:href="#f0_d" transform="matrix(12,0,0,12,750.4,127.9)" />
<use xlink:href="#f0_3" transform="matrix(12,0,0,12,762.3,127.9)" />
<use xlink:href="#f1_6" transform="matrix(10.5,0,0,10.5,464,125.7)" />
<use xlink:href="#f1_b" transform="matrix(10.5,0,0,10.5,471,125.7)" />
<use xlink:href="#f1_3" transform="matrix(10.5,0,0,10.5,479.1,125.7)" />
<use xlink:href="#f1_j" transform="matrix(10.5,0,0,10.5,491.5,125.7)" />
<use xlink:href="#f1_4" transform="matrix(10.5,0,0,10.5,499.6,125.7)" />
<use xlink:href="#f1_f" transform="matrix(10.5,0,0,10.5,506.7,125.7)" />
<use xlink:href="#f1_e" transform="matrix(10.5,0,0,10.5,512.1,125.7)" />
<use xlink:href="#f1_9" transform="matrix(10.5,0,0,10.5,516.5,125.7)" />
<use xlink:href="#f1_f" transform="matrix(10.5,0,0,10.5,520.9,125.7)" />
<use xlink:href="#f0_n" transform="matrix(12,0,0,12,404.7,127.9)" />
<use xlink:href="#f0_4" transform="matrix(12,0,0,12,409.6,127.9)" />
<use xlink:href="#f0_4" transform="matrix(12,0,0,12,413.7,127.9)" />
<use xlink:href="#f0_m" transform="matrix(12,0,0,12,417.8,127.9)" />
<use xlink:href="#f0_g" transform="matrix(12,0,0,12,425.1,127.9)" />
<use xlink:href="#f0_3" transform="matrix(12,0,0,12,436.6,127.9)" />
<use xlink:href="#f1_9" transform="matrix(11,0,0,11,137.7,126.5)" />
<use xlink:href="#f1_a" transform="matrix(11,0,0,11,142.4,126.5)" />
<use xlink:href="#f1_e" transform="matrix(11,0,0,11,150.6,126.5)" />
<use xlink:href="#f1_d" transform="matrix(11,0,0,11,155.3,126.5)" />
<use xlink:href="#f1_f" transform="matrix(11,0,0,11,162.8,126.5)" />
<use xlink:href="#f1_d" transform="matrix(11,0,0,11,168.4,126.5)" />
<use xlink:href="#f1_5" transform="matrix(11,0,0,11,175.9,126.5)" />
<use xlink:href="#f1_4" transform="matrix(11,0,0,11,182.3,126.5)" />
<use xlink:href="#f1_f" transform="matrix(11,0,0,11,189.8,126.5)" />
<use xlink:href="#f0_x" transform="matrix(12,0,0,12,727.1,150)" />
<use xlink:href="#f0_3" transform="matrix(12,0,0,12,740,150)" />
<use xlink:href="#f0_d" transform="matrix(12,0,0,12,750.4,150)" />
<use xlink:href="#f0_3" transform="matrix(12,0,0,12,762.4,150)" />
<use xlink:href="#f1_j" transform="matrix(11,0,0,11,464,148.7)" />
<use xlink:href="#f1_4" transform="matrix(11,0,0,11,472.4,148.7)" />
<use xlink:href="#f1_f" transform="matrix(11,0,0,11,479.7,148.7)" />
<use xlink:href="#f1_e" transform="matrix(11,0,0,11,485.3,148.7)" />
<use xlink:href="#f1_9" transform="matrix(11,0,0,11,489.9,148.7)" />
<use xlink:href="#f1_f" transform="matrix(11,0,0,11,494.7,148.7)" />
<use xlink:href="#f0_11" transform="matrix(12,0,0,12,402.3,150)" />
<use xlink:href="#f0_4" transform="matrix(12,0,0,12,409.7,150)" />
<use xlink:href="#f0_j" transform="matrix(12,0,0,12,413.9,150)" />
<use xlink:href="#f0_2" transform="matrix(12,0,0,12,424.7,150)" />
<use xlink:href="#f0_3" transform="matrix(12,0,0,12,436.6,150)" />
<use xlink:href="#f1_9" transform="matrix(11,0,0,11,137.7,148.7)" />
<use xlink:href="#f1_a" transform="matrix(11,0,0,11,142.4,148.7)" />
<use xlink:href="#f1_e" transform="matrix(11,0,0,11,150.6,148.7)" />
<use xlink:href="#f1_f" transform="matrix(11,0,0,11,155.3,148.7)" />
<use xlink:href="#f1_b" transform="matrix(11,0,0,11,161,148.7)" />
<use xlink:href="#f1_m" transform="matrix(11,0,0,11,169.4,148.7)" />
<use xlink:href="#f1_7" transform="matrix(11,0,0,11,177.8,148.7)" />
<use xlink:href="#f1_6" transform="matrix(11,0,0,11,186.2,148.7)" />
<use xlink:href="#f1_9" transform="matrix(11,0,0,11,193.6,148.7)" />
<use xlink:href="#f1_f" transform="matrix(11,0,0,11,198.2,148.7)" />
<use xlink:href="#f0_h" transform="matrix(12,0,0,12,738.2,172.2)" />
<use xlink:href="#f0_d" transform="matrix(12,0,0,12,750.4,172.2)" />
<use xlink:href="#f0_3" transform="matrix(12,0,0,12,762.3,172.2)" />
<use xlink:href="#f1_j" transform="matrix(11,0,0,11,464,170.8)" />
<use xlink:href="#f1_4" transform="matrix(11,0,0,11,472.4,170.8)" />
<use xlink:href="#f1_a" transform="matrix(11,0,0,11,479.9,170.8)" />
<use xlink:href="#f0_2" transform="matrix(12,0,0,12,395.7,172.2)" />
<use xlink:href="#f0_i" transform="matrix(12,0,0,12,407.6,172.2)" />
<use xlink:href="#f0_4" transform="matrix(12,0,0,12,418,172.2)" />
<use xlink:href="#f0_x" transform="matrix(12,0,0,12,422.1,172.2)" />
<use xlink:href="#f0_d" transform="matrix(12,0,0,12,435.1,172.2)" />
<use xlink:href="#f1_9" transform="matrix(11,0,0,11,137.7,170.8)" />
<use xlink:href="#f1_a" transform="matrix(11,0,0,11,142.4,170.8)" />
<use xlink:href="#f1_r" transform="matrix(11,0,0,11,150.8,170.8)" />
<use xlink:href="#f1_d" transform="matrix(11,0,0,11,159.2,170.8)" />
<use xlink:href="#f1_5" transform="matrix(11,0,0,11,166.6,170.8)" />
<use xlink:href="#f1_e" transform="matrix(11,0,0,11,173.1,170.8)" />
<use xlink:href="#f1_9" transform="matrix(11,0,0,11,177.8,170.8)" />
<use xlink:href="#f1_t" transform="matrix(11,0,0,11,182.5,170.8)" />
<use xlink:href="#f1_4" transform="matrix(11,0,0,11,190.9,170.8)" />
<use xlink:href="#f1_6" transform="matrix(11,0,0,11,198.2,170.8)" />
<use xlink:href="#f1_9" transform="matrix(11,0,0,11,205.7,170.8)" />
<use xlink:href="#f1_z" transform="matrix(11,0,0,11,210.4,170.8)" />
<use xlink:href="#f1_a" transform="matrix(11,0,0,11,218.8,170.8)" />
<use xlink:href="#f0_h" transform="matrix(12,0,0,12,725.7,194.3)" />
<use xlink:href="#f0_5" transform="matrix(12,0,0,12,737.9,194.3)" />
<use xlink:href="#f0_d" transform="matrix(12,0,0,12,750.4,194.3)" />
<use xlink:href="#f0_3" transform="matrix(12,0,0,12,762.3,194.3)" />
<use xlink:href="#f1_6" transform="matrix(11,0,0,11,464,193)" />
<use xlink:href="#f1_4" transform="matrix(11,0,0,11,471.3,193)" />
<use xlink:href="#f1_8" transform="matrix(11,0,0,11,478.8,193)" />
<use xlink:href="#f1_d" transform="matrix(11,0,0,11,483.5,193)" />
<use xlink:href="#f1_a" transform="matrix(11,0,0,11,491,193)" />
<use xlink:href="#f1_e" transform="matrix(11,0,0,11,499.2,193)" />
<use xlink:href="#f1_4" transform="matrix(11,0,0,11,503.9,193)" />
<use xlink:href="#f1_f" transform="matrix(11,0,0,11,511.4,193)" />
<use xlink:href="#f0_y" transform="matrix(12,0,0,12,408.1,194.3)" />
<use xlink:href="#f0_i" transform="matrix(12,0,0,12,419.7,194.3)" />
<use xlink:href="#f0_9" transform="matrix(12,0,0,12,430.1,194.3)" />
<use xlink:href="#f0_d" transform="matrix(12,0,0,12,435.1,194.3)" />
<use xlink:href="#f1_9" transform="matrix(11,0,0,11,137.7,193)" />
<use xlink:href="#f1_a" transform="matrix(11,0,0,11,142.4,193)" />
<use xlink:href="#f1_r" transform="matrix(11,0,0,11,150.8,193)" />
<use xlink:href="#f1_9" transform="matrix(11,0,0,11,159,193)" />
<use xlink:href="#f1_d" transform="matrix(11,0,0,11,163.8,193)" />
<use xlink:href="#f1_f" transform="matrix(11,0,0,11,171.2,193)" />
<use xlink:href="#f1_a" transform="matrix(11,0,0,11,176.8,193)" />
<use xlink:href="#f1_b" transform="matrix(11,0,0,11,185.2,193)" />
<use xlink:href="#f0_b" transform="matrix(12,0,0,12,726,216.5)" />
<use xlink:href="#f0_c" transform="matrix(12,0,0,12,739,216.5)" />
<use xlink:href="#f0_d" transform="matrix(12,0,0,12,750.4,216.5)" />
<use xlink:href="#f0_3" transform="matrix(12,0,0,12,762.3,216.5)" />
<use xlink:href="#f1_h" transform="matrix(11,0,0,11,464,215.1)" />
<use xlink:href="#f1_7" transform="matrix(11,0,0,11,472.4,215.1)" />
<use xlink:href="#f1_5" transform="matrix(11,0,0,11,480.8,215.1)" />
<use xlink:href="#f1_6" transform="matrix(11,0,0,11,487.2,215.1)" />
<use xlink:href="#f1_4" transform="matrix(11,0,0,11,494.7,215.1)" />
<use xlink:href="#f1_f" transform="matrix(11,0,0,11,502.1,215.1)" />
<use xlink:href="#f0_7" transform="matrix(12,0,0,12,404.6,216.5)" />
<use xlink:href="#f0_k" transform="matrix(12,0,0,12,416.6,216.5)" />
<use xlink:href="#f0_3" transform="matrix(12,0,0,12,426.2,216.5)" />
<use xlink:href="#f0_3" transform="matrix(12,0,0,12,436.6,216.5)" />
<use xlink:href="#f1_9" transform="matrix(11,0,0,11,137.7,215.1)" />
<use xlink:href="#f1_f" transform="matrix(11,0,0,11,142.4,215.1)" />
<use xlink:href="#f0_a" transform="matrix(12,0,0,12,721.9,238.6)" />
<use xlink:href="#f0_9" transform="matrix(12,0,0,12,732.4,238.6)" />
<use xlink:href="#f0_b" transform="matrix(12,0,0,12,737.4,238.6)" />
<use xlink:href="#f0_d" transform="matrix(12,0,0,12,750.4,238.6)" />
<use xlink:href="#f0_3" transform="matrix(12,0,0,12,762.3,238.6)" />
<use xlink:href="#f1_j" transform="matrix(11,0,0,11,464,237.3)" />
<use xlink:href="#f1_d" transform="matrix(11,0,0,11,472.4,237.3)" />
<use xlink:href="#f1_a" transform="matrix(11,0,0,11,479.9,237.3)" />
<use xlink:href="#f1_5" transform="matrix(11,0,0,11,488.1,237.3)" />
<use xlink:href="#f1_4" transform="matrix(11,0,0,11,494.7,237.3)" />
<use xlink:href="#f1_f" transform="matrix(11,0,0,11,502.1,237.3)" />
<use xlink:href="#f0_a" transform="matrix(12,0,0,12,403.3,238.6)" />
<use xlink:href="#f0_9" transform="matrix(12,0,0,12,413.9,238.6)" />
<use xlink:href="#f0_r" transform="matrix(12,0,0,12,418.8,238.6)" />
<use xlink:href="#f0_g" transform="matrix(12,0,0,12,425.2,238.6)" />
<use xlink:href="#f0_3" transform="matrix(12,0,0,12,436.6,238.6)" />
<use xlink:href="#f1_9" transform="matrix(11,0,0,11,137.7,237.3)" />
<use xlink:href="#f1_f" transform="matrix(11,0,0,11,142.4,237.3)" />
<use xlink:href="#f1_5" transform="matrix(11,0,0,11,147.9,237.3)" />
<use xlink:href="#f1_d" transform="matrix(11,0,0,11,154.4,237.3)" />
<use xlink:href="#f0_n" transform="matrix(12,0,0,12,733.3,260.8)" />
<use xlink:href="#f0_7" transform="matrix(12,0,0,12,738.4,260.8)" />
<use xlink:href="#f0_d" transform="matrix(12,0,0,12,750.4,260.8)" />
<use xlink:href="#f0_3" transform="matrix(12,0,0,12,762.3,260.8)" />
<use xlink:href="#f1_6" transform="matrix(11,0,0,11,464,259.4)" />
<use xlink:href="#f1_4" transform="matrix(11,0,0,11,471.3,259.4)" />
<use xlink:href="#f1_5" transform="matrix(11,0,0,11,478.8,259.4)" />
<use xlink:href="#f1_4" transform="matrix(11,0,0,11,485.3,259.4)" />
<use xlink:href="#f1_f" transform="matrix(11,0,0,11,492.8,259.4)" />
<use xlink:href="#f0_4" transform="matrix(12,0,0,12,430.7,260.8)" />
<use xlink:href="#f0_8" transform="matrix(12,0,0,12,434.8,260.8)" />
<use xlink:href="#f1_9" transform="matrix(11,0,0,11,137.7,259.4)" />
<use xlink:href="#f1_5" transform="matrix(11,0,0,11,142.4,259.4)" />
<use xlink:href="#f1_8" transform="matrix(11,0,0,11,148.8,259.4)" />
<use xlink:href="#f1_4" transform="matrix(11,0,0,11,153.5,259.4)" />
<use xlink:href="#f0_3" transform="matrix(12,0,0,12,724.5,282.9)" />
<use xlink:href="#f0_9" transform="matrix(12,0,0,12,734.9,282.9)" />
<use xlink:href="#f0_a" transform="matrix(12,0,0,12,739.9,282.9)" />
<use xlink:href="#f0_z" transform="matrix(12,0,0,12,750.4,282.9)" />
<use xlink:href="#f0_3" transform="matrix(12,0,0,12,762.3,282.9)" />
<use xlink:href="#f1_h" transform="matrix(11,0,0,11,464,281.6)" />
<use xlink:href="#f1_4" transform="matrix(11,0,0,11,472.4,281.6)" />
<use xlink:href="#f1_k" transform="matrix(11,0,0,11,479.9,281.6)" />
<use xlink:href="#f1_4" transform="matrix(11,0,0,11,488.1,281.6)" />
<use xlink:href="#f1_f" transform="matrix(11,0,0,11,495.6,281.6)" />
<use xlink:href="#f1_5" transform="matrix(11,0,0,11,501.2,281.6)" />
<use xlink:href="#f1_d" transform="matrix(11,0,0,11,507.7,281.6)" />
<use xlink:href="#f0_2" transform="matrix(12,0,0,12,387.1,282.9)" />
<use xlink:href="#f0_3" transform="matrix(12,0,0,12,399.1,282.9)" />
<use xlink:href="#f0_8" transform="matrix(12,0,0,12,409.5,282.9)" />
<use xlink:href="#f0_5" transform="matrix(12,0,0,12,421.7,282.9)" />
<use xlink:href="#f0_b" transform="matrix(12,0,0,12,434.1,282.9)" />
<use xlink:href="#f1_9" transform="matrix(11,0,0,11,137.7,281.6)" />
<use xlink:href="#f1_10" transform="matrix(11,0,0,11,142.4,281.6)" />
<use xlink:href="#f1_v" transform="matrix(11,0,0,11,149.8,281.6)" />
<use xlink:href="#f1_7" transform="matrix(11,0,0,11,158.2,281.6)" />
<use xlink:href="#f1_9" transform="matrix(11,0,0,11,166.5,281.6)" />
<use xlink:href="#f1_d" transform="matrix(11,0,0,11,171.2,281.6)" />
<use xlink:href="#f1_f" transform="matrix(11,0,0,11,178.7,281.6)" />
<use xlink:href="#f1_m" transform="matrix(11,0,0,11,184.3,281.6)" />
<use xlink:href="#f1_4" transform="matrix(11,0,0,11,192.7,281.6)" />
<use xlink:href="#f0_v" transform="matrix(12,0,0,12,733.6,305.1)" />
<use xlink:href="#f0_9" transform="matrix(12,0,0,12,745.5,305.1)" />
<use xlink:href="#f0_z" transform="matrix(12,0,0,12,750.4,305.1)" />
<use xlink:href="#f0_3" transform="matrix(12,0,0,12,762.3,305.1)" />
<use xlink:href="#f1_r" transform="matrix(11,0,0,11,464,303.7)" />
<use xlink:href="#f1_b" transform="matrix(11,0,0,11,472.4,303.7)" />
<use xlink:href="#f1_8" transform="matrix(11,0,0,11,480.6,303.7)" />
<use xlink:href="#f1_4" transform="matrix(11,0,0,11,485.4,303.7)" />
<use xlink:href="#f1_f" transform="matrix(11,0,0,11,492.8,303.7)" />
<use xlink:href="#f0_n" transform="matrix(12,0,0,12,414.6,305.1)" />
<use xlink:href="#f0_9" transform="matrix(12,0,0,12,419.5,305.1)" />
<use xlink:href="#f0_a" transform="matrix(12,0,0,12,424.6,305.1)" />
<use xlink:href="#f0_v" transform="matrix(12,0,0,12,435.1,305.1)" />
<use xlink:href="#f1_u" transform="matrix(11,0,0,11,137.7,303.7)" />
<use xlink:href="#f1_4" transform="matrix(11,0,0,11,142.4,303.7)" />
<use xlink:href="#f1_h" transform="matrix(11,0,0,11,149.8,303.7)" />
<use xlink:href="#f1_z" transform="matrix(11,0,0,11,158.2,303.7)" />
<use xlink:href="#f1_a" transform="matrix(11,0,0,11,166.6,303.7)" />
<use xlink:href="#f0_b" transform="matrix(12,0,0,12,730.6,327.3)" />
<use xlink:href="#f0_a" transform="matrix(12,0,0,12,743.6,327.3)" />
<use xlink:href="#f0_4" transform="matrix(12,0,0,12,754.1,327.3)" />
<use xlink:href="#f0_4" transform="matrix(12,0,0,12,758.2,327.3)" />
<use xlink:href="#f0_3" transform="matrix(12,0,0,12,762.3,327.3)" />
<use xlink:href="#f1_5" transform="matrix(11,0,0,11,464,325.9)" />
<use xlink:href="#f1_d" transform="matrix(11,0,0,11,470.4,325.9)" />
<use xlink:href="#f1_6" transform="matrix(11,0,0,11,477.9,325.9)" />
<use xlink:href="#f1_4" transform="matrix(11,0,0,11,485.3,325.9)" />
<use xlink:href="#f1_f" transform="matrix(11,0,0,11,492.8,325.9)" />
<use xlink:href="#f0_h" transform="matrix(12,0,0,12,320.7,327.3)" />
<use xlink:href="#f0_3" transform="matrix(12,0,0,12,332.9,327.3)" />
<use xlink:href="#f0_9" transform="matrix(12,0,0,12,343.3,327.3)" />
<use xlink:href="#f0_g" transform="matrix(12,0,0,12,348.3,327.3)" />
<use xlink:href="#f0_3" transform="matrix(12,0,0,12,359.8,327.3)" />
<use xlink:href="#f0_10" transform="matrix(12,0,0,12,376,327.3)" />
<use xlink:href="#f0_h" transform="matrix(12,0,0,12,382.1,327.3)" />
<use xlink:href="#f0_g" transform="matrix(12,0,0,12,394.3,327.3)" />
<use xlink:href="#f0_c" transform="matrix(12,0,0,12,405.7,327.3)" />
<use xlink:href="#f0_y" transform="matrix(12,0,0,12,423,327.3)" />
<use xlink:href="#f0_8" transform="matrix(12,0,0,12,434.8,327.3)" />
<use xlink:href="#f0_8" transform="matrix(12,0,0,12,424.4,348.6)" />
<use xlink:href="#f0_3" transform="matrix(12,0,0,12,436.6,348.6)" />
<use xlink:href="#f1_u" transform="matrix(11,0,0,11,137.7,325.9)" />
<use xlink:href="#f1_4" transform="matrix(11,0,0,11,142.4,325.9)" />
<use xlink:href="#f1_3" transform="matrix(11,0,0,11,149.7,325.9)" />
<use xlink:href="#f1_p" transform="matrix(11,0,0,11,162.8,325.9)" />
<use xlink:href="#f1_5" transform="matrix(11,0,0,11,170.3,325.9)" />
<use xlink:href="#f0_f" transform="matrix(12,0,0,12,732.3,370.8)" />
<use xlink:href="#f0_v" transform="matrix(12,0,0,12,742.3,370.8)" />
<use xlink:href="#f0_4" transform="matrix(12,0,0,12,754.1,370.8)" />
<use xlink:href="#f0_4" transform="matrix(12,0,0,12,758.2,370.8)" />
<use xlink:href="#f0_3" transform="matrix(12,0,0,12,762.3,370.8)" />
<use xlink:href="#f1_d" transform="matrix(11,0,0,11,464,369.4)" />
<use xlink:href="#f1_5" transform="matrix(11,0,0,11,471.3,369.4)" />
<use xlink:href="#f1_e" transform="matrix(11,0,0,11,477.9,369.4)" />
<use xlink:href="#f1_4" transform="matrix(11,0,0,11,482.6,369.4)" />
<use xlink:href="#f1_h" transform="matrix(11,0,0,11,490.1,369.4)" />
<use xlink:href="#f1_8" transform="matrix(11,0,0,11,498.3,369.4)" />
<use xlink:href="#f1_d" transform="matrix(11,0,0,11,503,369.4)" />
<use xlink:href="#f1_6" transform="matrix(11,0,0,11,510.5,369.4)" />
<use xlink:href="#f1_d" transform="matrix(11,0,0,11,517.9,369.4)" />
<use xlink:href="#f1_f" transform="matrix(11,0,0,11,525.4,369.4)" />
<use xlink:href="#f0_i" transform="matrix(12,0,0,12,363.6,370.8)" />
<use xlink:href="#f0_4" transform="matrix(12,0,0,12,374,370.8)" />
<use xlink:href="#f0_r" transform="matrix(12,0,0,12,378.1,370.8)" />
<use xlink:href="#f0_d" transform="matrix(12,0,0,12,384.5,370.8)" />
<use xlink:href="#f0_x" transform="matrix(12,0,0,12,402.2,370.8)" />
<use xlink:href="#f0_4" transform="matrix(12,0,0,12,415.2,370.8)" />
<use xlink:href="#f0_m" transform="matrix(12,0,0,12,419.3,370.8)" />
<use xlink:href="#f0_x" transform="matrix(12,0,0,12,426.6,370.8)" />
<use xlink:href="#f0_m" transform="matrix(12,0,0,12,439.6,370.8)" />
<use xlink:href="#f1_u" transform="matrix(11,0,0,11,137.7,369.4)" />
<use xlink:href="#f1_4" transform="matrix(11,0,0,11,142.4,369.4)" />
<use xlink:href="#f1_3" transform="matrix(11,0,0,11,149.7,369.4)" />
<use xlink:href="#f1_z" transform="matrix(11,0,0,11,162.8,369.4)" />
<use xlink:href="#f1_a" transform="matrix(11,0,0,11,171.2,369.4)" />
<use xlink:href="#f0_2" transform="matrix(12,0,0,12,735.9,392.9)" />
<use xlink:href="#f0_3" transform="matrix(12,0,0,12,747.8,392.9)" />
<use xlink:href="#f0_4" transform="matrix(12,0,0,12,758.2,392.9)" />
<use xlink:href="#f0_3" transform="matrix(12,0,0,12,762.3,392.9)" />
<use xlink:href="#f1_a" transform="matrix(11,0,0,11,464,391.6)" />
<use xlink:href="#f1_b" transform="matrix(11,0,0,11,472.4,391.6)" />
<use xlink:href="#f1_6" transform="matrix(11,0,0,11,480.8,391.6)" />
<use xlink:href="#f1_11" transform="matrix(11,0,0,11,488.3,391.6)" />
<use xlink:href="#f1_d" transform="matrix(11,0,0,11,496.5,391.6)" />
<use xlink:href="#f1_w" transform="matrix(11,0,0,11,508.2,391.6)" />
<use xlink:href="#f1_c" transform="matrix(11,0,0,11,513.7,391.6)" />
<use xlink:href="#f1_x" transform="matrix(11,0,0,11,519.4,391.6)" />
<use xlink:href="#f0_n" transform="matrix(12,0,0,12,426.6,392.9)" />
<use xlink:href="#f0_c" transform="matrix(12,0,0,12,431.5,392.9)" />
<use xlink:href="#f0_4" transform="matrix(12,0,0,12,442.9,392.9)" />
<use xlink:href="#f1_u" transform="matrix(11,0,0,11,137.7,391.6)" />
<use xlink:href="#f1_4" transform="matrix(11,0,0,11,142.4,391.6)" />
<use xlink:href="#f1_j" transform="matrix(11,0,0,11,149.8,391.6)" />
<use xlink:href="#f1_z" transform="matrix(11,0,0,11,158.2,391.6)" />
<use xlink:href="#f1_a" transform="matrix(11,0,0,11,166.6,391.6)" />
<use xlink:href="#f0_h" transform="matrix(12,0,0,12,714.5,415.1)" />
<use xlink:href="#f0_4" transform="matrix(12,0,0,12,726.8,415.1)" />
<use xlink:href="#f0_f" transform="matrix(12,0,0,12,730.9,415.1)" />
<use xlink:href="#f0_9" transform="matrix(12,0,0,12,740.8,415.1)" />
<use xlink:href="#f0_5" transform="matrix(12,0,0,12,745.8,415.1)" />
<use xlink:href="#f0_4" transform="matrix(12,0,0,12,758.2,415.1)" />
<use xlink:href="#f0_3" transform="matrix(12,0,0,12,762.3,415.1)" />
<use xlink:href="#f1_d" transform="matrix(11,0,0,11,464,413.7)" />
<use xlink:href="#f1_5" transform="matrix(11,0,0,11,471.3,413.7)" />
<use xlink:href="#f1_e" transform="matrix(11,0,0,11,477.9,413.7)" />
<use xlink:href="#f1_7" transform="matrix(11,0,0,11,482.6,413.7)" />
<use xlink:href="#f1_m" transform="matrix(11,0,0,11,491,413.7)" />
<use xlink:href="#f1_9" transform="matrix(11,0,0,11,499.4,413.7)" />
<use xlink:href="#f1_b" transform="matrix(11,0,0,11,504.1,413.7)" />
<use xlink:href="#f0_n" transform="matrix(12,0,0,12,434.5,415.1)" />
<use xlink:href="#f0_11" transform="matrix(12,0,0,12,439.5,415.1)" />
<use xlink:href="#f1_u" transform="matrix(11,0,0,11,137.7,413.7)" />
<use xlink:href="#f1_4" transform="matrix(11,0,0,11,142.4,413.7)" />
<use xlink:href="#f1_f" transform="matrix(11,0,0,11,149.7,413.7)" />
<use xlink:href="#f1_m" transform="matrix(11,0,0,11,155.3,413.7)" />
<use xlink:href="#f1_12" transform="matrix(11,0,0,11,163.7,413.7)" />
<use xlink:href="#f1_a" transform="matrix(11,0,0,11,168.5,413.7)" />
<use xlink:href="#f0_3" transform="matrix(12,0,0,12,731.5,437.3)" />
<use xlink:href="#f0_9" transform="matrix(12,0,0,12,741.9,437.3)" />
<use xlink:href="#f0_c" transform="matrix(12,0,0,12,746.8,437.3)" />
<use xlink:href="#f0_4" transform="matrix(12,0,0,12,758.2,437.3)" />
<use xlink:href="#f0_3" transform="matrix(12,0,0,12,762.3,437.3)" />
<use xlink:href="#f1_6" transform="matrix(11,0,0,11,464,435.9)" />
<use xlink:href="#f1_4" transform="matrix(11,0,0,11,471.3,435.9)" />
<use xlink:href="#f1_d" transform="matrix(11,0,0,11,478.8,435.9)" />
<use xlink:href="#f1_f" transform="matrix(11,0,0,11,486.2,435.9)" />
<use xlink:href="#f1_5" transform="matrix(11,0,0,11,491.9,435.9)" />
<use xlink:href="#f1_d" transform="matrix(11,0,0,11,498.4,435.9)" />
<use xlink:href="#f0_v" transform="matrix(12,0,0,12,354.6,437.3)" />
<use xlink:href="#f0_9" transform="matrix(12,0,0,12,366.5,437.3)" />
<use xlink:href="#f0_a" transform="matrix(12,0,0,12,371.5,437.3)" />
<use xlink:href="#f0_10" transform="matrix(12,0,0,12,388,437.3)" />
<use xlink:href="#f0_x" transform="matrix(12,0,0,12,394.1,437.3)" />
<use xlink:href="#f0_4" transform="matrix(12,0,0,12,407.1,437.3)" />
<use xlink:href="#f0_v" transform="matrix(12,0,0,12,411.2,437.3)" />
<use xlink:href="#f0_g" transform="matrix(12,0,0,12,423.1,437.3)" />
<use xlink:href="#f0_5" transform="matrix(12,0,0,12,434.4,437.3)" />
<use xlink:href="#f1_u" transform="matrix(11,0,0,11,137.7,435.9)" />
<use xlink:href="#f1_d" transform="matrix(11,0,0,11,142.4,435.9)" />
<use xlink:href="#f1_c" transform="matrix(11,0,0,11,149.7,435.9)" />
<use xlink:href="#f1_d" transform="matrix(11,0,0,11,155.3,435.9)" />
<use xlink:href="#f0_7" transform="matrix(12,0,0,12,730.9,459.4)" />
<use xlink:href="#f0_9" transform="matrix(12,0,0,12,742.9,459.4)" />
<use xlink:href="#f0_i" transform="matrix(12,0,0,12,747.8,459.4)" />
<use xlink:href="#f0_4" transform="matrix(12,0,0,12,758.2,459.4)" />
<use xlink:href="#f0_3" transform="matrix(12,0,0,12,762.3,459.4)" />
<use xlink:href="#f1_e" transform="matrix(11,0,0,11,464,458)" />
<use xlink:href="#f1_9" transform="matrix(11,0,0,11,468.6,458)" />
<use xlink:href="#f1_f" transform="matrix(11,0,0,11,473.3,458)" />
<use xlink:href="#f1_4" transform="matrix(11,0,0,11,478.8,458)" />
<use xlink:href="#f1_f" transform="matrix(11,0,0,11,486.3,458)" />
<use xlink:href="#f0_v" transform="matrix(12,0,0,12,419.5,459.4)" />
<use xlink:href="#f0_9" transform="matrix(12,0,0,12,431.4,459.4)" />
<use xlink:href="#f0_a" transform="matrix(12,0,0,12,436.4,459.4)" />
<use xlink:href="#f1_u" transform="matrix(11,0,0,11,137.7,458)" />
<use xlink:href="#f1_d" transform="matrix(11,0,0,11,142.4,458)" />
<use xlink:href="#f1_c" transform="matrix(11,0,0,11,149.7,458)" />
<use xlink:href="#f1_d" transform="matrix(11,0,0,11,155.3,458)" />
<use xlink:href="#f1_w" transform="matrix(11,0,0,11,167.1,458)" />
<use xlink:href="#f1_3" transform="matrix(11,0,0,11,172.6,458)" />
<use xlink:href="#f1_x" transform="matrix(11,0,0,11,185.7,458)" />
<use xlink:href="#f0_n" transform="matrix(12,0,0,12,735.3,481.6)" />
<use xlink:href="#f0_9" transform="matrix(12,0,0,12,740.3,481.6)" />
<use xlink:href="#f0_b" transform="matrix(12,0,0,12,745.2,481.6)" />
<use xlink:href="#f0_4" transform="matrix(12,0,0,12,758.2,481.6)" />
<use xlink:href="#f0_3" transform="matrix(12,0,0,12,762.3,481.6)" />
<use xlink:href="#f1_m" transform="matrix(11,0,0,11,464,480.2)" />
<use xlink:href="#f1_b" transform="matrix(11,0,0,11,472.4,480.2)" />
<use xlink:href="#f1_f" transform="matrix(11,0,0,11,480.6,480.2)" />
<use xlink:href="#f1_3" transform="matrix(11,0,0,11,486.3,480.2)" />
<use xlink:href="#f1_9" transform="matrix(11,0,0,11,499.4,480.2)" />
<use xlink:href="#f1_f" transform="matrix(11,0,0,11,504,480.2)" />
<use xlink:href="#f0_2" transform="matrix(12,0,0,12,396.6,481.6)" />
<use xlink:href="#f0_c" transform="matrix(12,0,0,12,408.5,481.6)" />
<use xlink:href="#f0_i" transform="matrix(12,0,0,12,420,481.6)" />
<use xlink:href="#f0_4" transform="matrix(12,0,0,12,430.3,481.6)" />
<use xlink:href="#f0_19" transform="matrix(12,0,0,12,434.5,481.6)" />
<use xlink:href="#f0_11" transform="matrix(12,0,0,12,439.5,481.6)" />
<use xlink:href="#f1_u" transform="matrix(11,0,0,11,137.7,480.2)" />
<use xlink:href="#f1_9" transform="matrix(11,0,0,11,142.4,480.2)" />
<use xlink:href="#f1_f" transform="matrix(11,0,0,11,147,480.2)" />
<use xlink:href="#f1_4" transform="matrix(11,0,0,11,152.6,480.2)" />
<use xlink:href="#f1_c" transform="matrix(11,0,0,11,160.1,480.2)" />
<use xlink:href="#f1_4" transform="matrix(11,0,0,11,165.6,480.2)" />
<use xlink:href="#f1_w" transform="matrix(11,0,0,11,177.3,480.2)" />
<use xlink:href="#f1_a" transform="matrix(11,0,0,11,182.9,480.2)" />
<use xlink:href="#f1_x" transform="matrix(11,0,0,11,191.2,480.2)" />
<use xlink:href="#f0_a" transform="matrix(12,0,0,12,724.9,503.7)" />
<use xlink:href="#f0_9" transform="matrix(12,0,0,12,735.5,503.7)" />
<use xlink:href="#f0_8" transform="matrix(12,0,0,12,740.5,503.7)" />
<use xlink:href="#f0_k" transform="matrix(12,0,0,12,752.7,503.7)" />
<use xlink:href="#f0_3" transform="matrix(12,0,0,12,762.3,503.7)" />
<use xlink:href="#f1_m" transform="matrix(11,0,0,11,464,502.3)" />
<use xlink:href="#f1_b" transform="matrix(11,0,0,11,472.4,502.3)" />
<use xlink:href="#f1_8" transform="matrix(11,0,0,11,480.6,502.3)" />
<use xlink:href="#f1_d" transform="matrix(11,0,0,11,485.4,502.3)" />
<use xlink:href="#f1_f" transform="matrix(11,0,0,11,492.8,502.3)" />
<use xlink:href="#f0_x" transform="matrix(12,0,0,12,396.8,503.7)" />
<use xlink:href="#f0_d" transform="matrix(12,0,0,12,409.7,503.7)" />
<use xlink:href="#f0_b" transform="matrix(12,0,0,12,421.7,503.7)" />
<use xlink:href="#f0_5" transform="matrix(12,0,0,12,434.5,503.7)" />
<use xlink:href="#f1_u" transform="matrix(11,0,0,11,137.7,502.3)" />
<use xlink:href="#f1_7" transform="matrix(11,0,0,11,142.4,502.3)" />
<use xlink:href="#f1_d" transform="matrix(11,0,0,11,150.8,502.3)" />
<use xlink:href="#f1_t" transform="matrix(11,0,0,11,158.2,502.3)" />
<use xlink:href="#f1_b" transform="matrix(11,0,0,11,166.6,502.3)" />
<use xlink:href="#f0_n" transform="matrix(12,0,0,12,737.8,525.9)" />
<use xlink:href="#f0_9" transform="matrix(12,0,0,12,742.7,525.9)" />
<use xlink:href="#f0_9" transform="matrix(12,0,0,12,747.7,525.9)" />
<use xlink:href="#f0_k" transform="matrix(12,0,0,12,752.7,525.9)" />
<use xlink:href="#f0_3" transform="matrix(12,0,0,12,762.3,525.9)" />
<use xlink:href="#f1_m" transform="matrix(11,0,0,11,464,524.5)" />
<use xlink:href="#f1_9" transform="matrix(11,0,0,11,472.2,524.5)" />
<use xlink:href="#f1_f" transform="matrix(11,0,0,11,477,524.5)" />
<use xlink:href="#f1_9" transform="matrix(11,0,0,11,482.6,524.5)" />
<use xlink:href="#f1_t" transform="matrix(11,0,0,11,487.3,524.5)" />
<use xlink:href="#f1_9" transform="matrix(11,0,0,11,495.6,524.5)" />
<use xlink:href="#f1_f" transform="matrix(11,0,0,11,500.3,524.5)" />
<use xlink:href="#f0_4" transform="matrix(12,0,0,12,374.3,525.9)" />
<use xlink:href="#f0_b" transform="matrix(12,0,0,12,378.4,525.9)" />
<use xlink:href="#f0_4" transform="matrix(12,0,0,12,391.4,525.9)" />
<use xlink:href="#f0_5" transform="matrix(12,0,0,12,395.5,525.9)" />
<use xlink:href="#f0_d" transform="matrix(12,0,0,12,408,525.9)" />
<use xlink:href="#f0_h" transform="matrix(12,0,0,12,425.7,525.9)" />
<use xlink:href="#f0_9" transform="matrix(12,0,0,12,437.9,525.9)" />
<use xlink:href="#f0_4" transform="matrix(12,0,0,12,442.8,525.9)" />
<use xlink:href="#f1_u" transform="matrix(11,0,0,11,137.7,524.5)" />
<use xlink:href="#f1_7" transform="matrix(11,0,0,11,142.4,524.5)" />
<use xlink:href="#f1_d" transform="matrix(11,0,0,11,150.8,524.5)" />
<use xlink:href="#f1_r" transform="matrix(11,0,0,11,158.2,524.5)" />
<use xlink:href="#f1_d" transform="matrix(11,0,0,11,166.6,524.5)" />
<use xlink:href="#f1_5" transform="matrix(11,0,0,11,174,524.5)" />
<use xlink:href="#f0_3" transform="matrix(12,0,0,12,726.9,548)" />
<use xlink:href="#f0_9" transform="matrix(12,0,0,12,737.3,548)" />
<use xlink:href="#f0_3" transform="matrix(12,0,0,12,742.3,548)" />
<use xlink:href="#f0_k" transform="matrix(12,0,0,12,752.7,548)" />
<use xlink:href="#f0_3" transform="matrix(12,0,0,12,762.4,548)" />
<use xlink:href="#f1_9" transform="matrix(11,0,0,11,464,546.6)" />
<use xlink:href="#f1_a" transform="matrix(11,0,0,11,468.6,546.6)" />
<use xlink:href="#f1_6" transform="matrix(11,0,0,11,477,546.6)" />
<use xlink:href="#f1_8" transform="matrix(11,0,0,11,484.4,546.6)" />
<use xlink:href="#f1_7" transform="matrix(11,0,0,11,489.2,546.6)" />
<use xlink:href="#f1_9" transform="matrix(11,0,0,11,497.4,546.6)" />
<use xlink:href="#f1_f" transform="matrix(11,0,0,11,502.1,546.6)" />
<use xlink:href="#f0_x" transform="matrix(12,0,0,12,398.8,548)" />
<use xlink:href="#f0_d" transform="matrix(12,0,0,12,411.7,548)" />
<use xlink:href="#f0_b" transform="matrix(12,0,0,12,423.6,548)" />
<use xlink:href="#f0_3" transform="matrix(12,0,0,12,436.6,548)" />
<use xlink:href="#f1_u" transform="matrix(11,0,0,11,137.7,546.6)" />
<use xlink:href="#f1_7" transform="matrix(11,0,0,11,142.4,546.6)" />
<use xlink:href="#f1_t" transform="matrix(11,0,0,11,150.8,546.6)" />
<use xlink:href="#f1_4" transform="matrix(11,0,0,11,159.2,546.6)" />
<use xlink:href="#f1_f" transform="matrix(11,0,0,11,166.5,546.6)" />
<use xlink:href="#f0_7" transform="matrix(12,0,0,12,723.7,570.2)" />
<use xlink:href="#f0_9" transform="matrix(12,0,0,12,735.8,570.2)" />
<use xlink:href="#f0_v" transform="matrix(12,0,0,12,740.8,570.2)" />
<use xlink:href="#f0_k" transform="matrix(12,0,0,12,752.7,570.2)" />
<use xlink:href="#f0_3" transform="matrix(12,0,0,12,762.3,570.2)" />
<use xlink:href="#f1_6" transform="matrix(11,0,0,11,464,568.8)" />
<use xlink:href="#f1_7" transform="matrix(11,0,0,11,471.4,568.8)" />
<use xlink:href="#f1_h" transform="matrix(11,0,0,11,479.9,568.8)" />
<use xlink:href="#f1_f" transform="matrix(11,0,0,11,488.1,568.8)" />
<use xlink:href="#f1_9" transform="matrix(11,0,0,11,493.7,568.8)" />
<use xlink:href="#f1_f" transform="matrix(11,0,0,11,498.5,568.8)" />
<use xlink:href="#f0_14" transform="matrix(12,0,0,12,420.6,570.2)" />
<use xlink:href="#f0_4" transform="matrix(12,0,0,12,430.5,570.2)" />
<use xlink:href="#f0_5" transform="matrix(12,0,0,12,434.5,570.2)" />
<use xlink:href="#f1_u" transform="matrix(11,0,0,11,137.7,568.8)" />
<use xlink:href="#f1_7" transform="matrix(11,0,0,11,142.4,568.8)" />
<use xlink:href="#f1_t" transform="matrix(11,0,0,11,150.8,568.8)" />
<use xlink:href="#f1_b" transform="matrix(11,0,0,11,159.2,568.8)" />
<use xlink:href="#f0_a" transform="matrix(12,0,0,12,725.1,592.3)" />
<use xlink:href="#f0_9" transform="matrix(12,0,0,12,735.6,592.3)" />
<use xlink:href="#f0_7" transform="matrix(12,0,0,12,740.6,592.3)" />
<use xlink:href="#f0_k" transform="matrix(12,0,0,12,752.7,592.3)" />
<use xlink:href="#f0_3" transform="matrix(12,0,0,12,762.3,592.3)" />
<use xlink:href="#f1_d" transform="matrix(11,0,0,11,464,590.9)" />
<use xlink:href="#f1_5" transform="matrix(11,0,0,11,471.3,590.9)" />
<use xlink:href="#f1_6" transform="matrix(11,0,0,11,477.9,590.9)" />
<use xlink:href="#f1_f" transform="matrix(11,0,0,11,485.3,590.9)" />
<use xlink:href="#f1_9" transform="matrix(11,0,0,11,491,590.9)" />
<use xlink:href="#f1_h" transform="matrix(11,0,0,11,495.7,590.9)" />
<use xlink:href="#f1_9" transform="matrix(11,0,0,11,503.9,590.9)" />
<use xlink:href="#f1_f" transform="matrix(11,0,0,11,508.7,590.9)" />
<use xlink:href="#f0_g" transform="matrix(12,0,0,12,397.4,592.3)" />
<use xlink:href="#f0_9" transform="matrix(12,0,0,12,408.8,592.3)" />
<use xlink:href="#f0_j" transform="matrix(12,0,0,12,413.9,592.3)" />
<use xlink:href="#f0_g" transform="matrix(12,0,0,12,424.7,592.3)" />
<use xlink:href="#f0_j" transform="matrix(12,0,0,12,436.2,592.3)" />
<use xlink:href="#f1_u" transform="matrix(11,0,0,11,137.7,590.9)" />
<use xlink:href="#f1_7" transform="matrix(11,0,0,11,142.4,590.9)" />
<use xlink:href="#f1_t" transform="matrix(11,0,0,11,150.8,590.9)" />
<use xlink:href="#f1_7" transform="matrix(11,0,0,11,159.2,590.9)" />
<use xlink:href="#f1_d" transform="matrix(11,0,0,11,167.6,590.9)" />
<use xlink:href="#f1_e" transform="matrix(11,0,0,11,174.9,590.9)" />
<use xlink:href="#f1_d" transform="matrix(11,0,0,11,179.6,590.9)" />
<use xlink:href="#f1_w" transform="matrix(11,0,0,11,191.4,590.9)" />
<use xlink:href="#f1_3" transform="matrix(11,0,0,11,196.9,590.9)" />
<use xlink:href="#f1_x" transform="matrix(11,0,0,11,210,590.9)" />
<use xlink:href="#f0_y" transform="matrix(12,0,0,12,728.3,614.5)" />
<use xlink:href="#f0_z" transform="matrix(12,0,0,12,740,614.5)" />
<use xlink:href="#f0_3" transform="matrix(12,0,0,12,751.9,614.5)" />
<use xlink:href="#f0_3" transform="matrix(12,0,0,12,762.3,614.5)" />
<use xlink:href="#f1_4" transform="matrix(11,0,0,11,464,613.1)" />
<use xlink:href="#f1_6" transform="matrix(11,0,0,11,471.3,613.1)" />
<use xlink:href="#f1_4" transform="matrix(11,0,0,11,478.8,613.1)" />
<use xlink:href="#f1_f" transform="matrix(11,0,0,11,486.2,613.1)" />
<use xlink:href="#f1_9" transform="matrix(11,0,0,11,491.9,613.1)" />
<use xlink:href="#f1_6" transform="matrix(11,0,0,11,496.5,613.1)" />
<use xlink:href="#f1_9" transform="matrix(11,0,0,11,503.9,613.1)" />
<use xlink:href="#f1_4" transform="matrix(11,0,0,11,508.6,613.1)" />
<use xlink:href="#f1_f" transform="matrix(11,0,0,11,516,613.1)" />
<use xlink:href="#f0_4" transform="matrix(12,0,0,12,423.5,614.5)" />
<use xlink:href="#f0_3" transform="matrix(12,0,0,12,427.6,614.5)" />
<use xlink:href="#f0_9" transform="matrix(12,0,0,12,438,614.5)" />
<use xlink:href="#f0_4" transform="matrix(12,0,0,12,442.9,614.5)" />
<use xlink:href="#f1_u" transform="matrix(11,0,0,11,137.7,613.1)" />
<use xlink:href="#f1_7" transform="matrix(11,0,0,11,142.4,613.1)" />
<use xlink:href="#f1_8" transform="matrix(11,0,0,11,150.6,613.1)" />
<use xlink:href="#f1_9" transform="matrix(11,0,0,11,155.3,613.1)" />
<use xlink:href="#f1_b" transform="matrix(11,0,0,11,160.1,613.1)" />
<use xlink:href="#f0_7" transform="matrix(12,0,0,12,730.3,636.6)" />
<use xlink:href="#f0_k" transform="matrix(12,0,0,12,742.3,636.6)" />
<use xlink:href="#f0_3" transform="matrix(12,0,0,12,751.9,636.6)" />
<use xlink:href="#f0_3" transform="matrix(12,0,0,12,762.3,636.6)" />
<use xlink:href="#f1_9" transform="matrix(11,0,0,11,464,635.3)" />
<use xlink:href="#f1_f" transform="matrix(11,0,0,11,468.6,635.3)" />
<use xlink:href="#f0_4" transform="matrix(12,0,0,12,426.6,636.6)" />
<use xlink:href="#f0_m" transform="matrix(12,0,0,12,430.7,636.6)" />
<use xlink:href="#f0_9" transform="matrix(12,0,0,12,438,636.6)" />
<use xlink:href="#f0_4" transform="matrix(12,0,0,12,442.9,636.6)" />
<use xlink:href="#f1_u" transform="matrix(11,0,0,11,137.7,635.3)" />
<use xlink:href="#f1_7" transform="matrix(11,0,0,11,142.4,635.3)" />
<use xlink:href="#f1_a" transform="matrix(11,0,0,11,150.8,635.3)" />
<use xlink:href="#f1_9" transform="matrix(11,0,0,11,159,635.3)" />
<use xlink:href="#f1_b" transform="matrix(11,0,0,11,163.8,635.3)" />
<use xlink:href="#f0_n" transform="matrix(12,0,0,12,686.9,658.8)" />
<use xlink:href="#f0_9" transform="matrix(12,0,0,12,691.9,658.8)" />
<use xlink:href="#f0_b" transform="matrix(12,0,0,12,696.8,658.8)" />
<use xlink:href="#f0_4" transform="matrix(12,0,0,12,709.8,658.8)" />
<use xlink:href="#f0_3" transform="matrix(12,0,0,12,713.9,658.8)" />
<use xlink:href="#f0_7" transform="matrix(12,0,0,12,730.2,658.8)" />
<use xlink:href="#f0_k" transform="matrix(12,0,0,12,742.3,658.8)" />
<use xlink:href="#f0_3" transform="matrix(12,0,0,12,751.9,658.8)" />
<use xlink:href="#f0_3" transform="matrix(12,0,0,12,762.3,658.8)" />
<use xlink:href="#f1_4" transform="matrix(11,0,0,11,464,657.4)" />
<use xlink:href="#f1_6" transform="matrix(11,0,0,11,471.3,657.4)" />
<use xlink:href="#f1_b" transform="matrix(11,0,0,11,478.8,657.4)" />
<use xlink:href="#f1_5" transform="matrix(11,0,0,11,487.2,657.4)" />
<use xlink:href="#f1_e" transform="matrix(11,0,0,11,493.7,657.4)" />
<use xlink:href="#f1_4" transform="matrix(11,0,0,11,498.5,657.4)" />
<use xlink:href="#f1_f" transform="matrix(11,0,0,11,505.8,657.4)" />
<use xlink:href="#f1_5" transform="matrix(11,0,0,11,511.4,657.4)" />
<use xlink:href="#f1_d" transform="matrix(11,0,0,11,518,657.4)" />
<use xlink:href="#f0_f" transform="matrix(12,0,0,12,420.9,658.8)" />
<use xlink:href="#f0_d" transform="matrix(12,0,0,12,431,658.8)" />
<use xlink:href="#f0_4" transform="matrix(12,0,0,12,442.9,658.8)" />
<use xlink:href="#f1_u" transform="matrix(11,0,0,11,137.7,657.4)" />
<use xlink:href="#f1_7" transform="matrix(11,0,0,11,142.4,657.4)" />
<use xlink:href="#f1_a" transform="matrix(11,0,0,11,150.8,657.4)" />
<use xlink:href="#f1_e" transform="matrix(11,0,0,11,159,657.4)" />
<use xlink:href="#f1_b" transform="matrix(11,0,0,11,163.8,657.4)" />
<use xlink:href="#f1_n" transform="matrix(11,0,0,11,172.2,657.4)" />
<use xlink:href="#f1_u" transform="matrix(11,0,0,11,181.1,657.4)" />
<use xlink:href="#f1_7" transform="matrix(11,0,0,11,185.7,657.4)" />
<use xlink:href="#f1_a" transform="matrix(11,0,0,11,194.1,657.4)" />
<use xlink:href="#f1_e" transform="matrix(11,0,0,11,202.5,657.4)" />
<use xlink:href="#f1_b" transform="matrix(11,0,0,11,207.3,657.4)" />
<use xlink:href="#f1_5" transform="matrix(11,0,0,11,215.7,657.4)" />
<use xlink:href="#f0_f" transform="matrix(12,0,0,12,729.5,680.9)" />
<use xlink:href="#f0_5" transform="matrix(12,0,0,12,739.5,680.9)" />
<use xlink:href="#f0_3" transform="matrix(12,0,0,12,752,680.9)" />
<use xlink:href="#f0_3" transform="matrix(12,0,0,12,762.3,680.9)" />
<use xlink:href="#f1_d" transform="matrix(11,0,0,11,464,679.6)" />
<use xlink:href="#f1_a" transform="matrix(11,0,0,11,471.4,679.6)" />
<use xlink:href="#f1_5" transform="matrix(11,0,0,11,479.7,679.6)" />
<use xlink:href="#f1_d" transform="matrix(11,0,0,11,486.3,679.6)" />
<use xlink:href="#f1_k" transform="matrix(11,0,0,11,493.7,679.6)" />
<use xlink:href="#f1_4" transform="matrix(11,0,0,11,502.1,679.6)" />
<use xlink:href="#f1_f" transform="matrix(11,0,0,11,509.6,679.6)" />
<use xlink:href="#f0_l" transform="matrix(12,0,0,12,409.8,680.9)" />
<use xlink:href="#f0_9" transform="matrix(12,0,0,12,419.5,680.9)" />
<use xlink:href="#f0_i" transform="matrix(12,0,0,12,424.4,680.9)" />
<use xlink:href="#f0_8" transform="matrix(12,0,0,12,434.8,680.9)" />
<use xlink:href="#f1_8" transform="matrix(11,0,0,11,137.7,679.6)" />
<use xlink:href="#f1_4" transform="matrix(11,0,0,11,142.4,679.6)" />
<use xlink:href="#f1_f" transform="matrix(11,0,0,11,149.7,679.6)" />
<use xlink:href="#f1_t" transform="matrix(11,0,0,11,155.3,679.6)" />
<use xlink:href="#f1_b" transform="matrix(11,0,0,11,163.7,679.6)" />
<use xlink:href="#f0_f" transform="matrix(12,0,0,12,724.5,703.1)" />
<use xlink:href="#f0_9" transform="matrix(12,0,0,12,734.5,703.1)" />
<use xlink:href="#f0_5" transform="matrix(12,0,0,12,739.4,703.1)" />
<use xlink:href="#f0_3" transform="matrix(12,0,0,12,751.9,703.1)" />
<use xlink:href="#f0_3" transform="matrix(12,0,0,12,762.3,703.1)" />
<use xlink:href="#f1_d" transform="matrix(11,0,0,11,464,701.7)" />
<use xlink:href="#f1_5" transform="matrix(11,0,0,11,471.3,701.7)" />
<use xlink:href="#f1_e" transform="matrix(11,0,0,11,477.9,701.7)" />
<use xlink:href="#f1_7" transform="matrix(11,0,0,11,482.6,701.7)" />
<use xlink:href="#f1_m" transform="matrix(11,0,0,11,491,701.7)" />
<use xlink:href="#f1_9" transform="matrix(11,0,0,11,499.4,701.7)" />
<use xlink:href="#f1_4" transform="matrix(11,0,0,11,504,701.7)" />
<use xlink:href="#f1_f" transform="matrix(11,0,0,11,511.4,701.7)" />
<use xlink:href="#f1_n" transform="matrix(11,0,0,11,517.1,701.7)" />
<use xlink:href="#f1_4" transform="matrix(11,0,0,11,525.9,701.7)" />
<use xlink:href="#f1_j" transform="matrix(11,0,0,11,533.4,701.7)" />
<use xlink:href="#f1_f" transform="matrix(11,0,0,11,541.8,701.7)" />
<use xlink:href="#f1_d" transform="matrix(11,0,0,11,547.4,701.7)" />
<use xlink:href="#f1_a" transform="matrix(11,0,0,11,554.9,701.7)" />
<use xlink:href="#f1_m" transform="matrix(11,0,0,11,563.3,701.7)" />
<use xlink:href="#f1_d" transform="matrix(11,0,0,11,571.5,701.7)" />
<use xlink:href="#f1_f" transform="matrix(11,0,0,11,579,701.7)" />
<use xlink:href="#f0_7" transform="matrix(12,0,0,12,315.2,703.1)" />
<use xlink:href="#f0_4" transform="matrix(12,0,0,12,327.2,703.1)" />
<use xlink:href="#f0_m" transform="matrix(12,0,0,12,331.3,703.1)" />
<use xlink:href="#f0_4" transform="matrix(12,0,0,12,338.7,703.1)" />
<use xlink:href="#f0_z" transform="matrix(12,0,0,12,342.8,703.1)" />
<use xlink:href="#f0_3" transform="matrix(12,0,0,12,354.7,703.1)" />
<use xlink:href="#f0_2" transform="matrix(12,0,0,12,365.1,703.1)" />
<use xlink:href="#f0_2" transform="matrix(12,0,0,12,382.9,703.1)" />
<use xlink:href="#f0_x" transform="matrix(12,0,0,12,394.8,703.1)" />
<use xlink:href="#f0_4" transform="matrix(12,0,0,12,407.8,703.1)" />
<use xlink:href="#f0_i" transform="matrix(12,0,0,12,411.9,703.1)" />
<use xlink:href="#f0_5" transform="matrix(12,0,0,12,422.2,703.1)" />
<use xlink:href="#f0_8" transform="matrix(12,0,0,12,434.7,703.1)" />
<use xlink:href="#f1_15" transform="matrix(11,0,0,11,137.7,701.7)" />
<use xlink:href="#f1_4" transform="matrix(11,0,0,11,147.9,701.7)" />
<use xlink:href="#f1_e" transform="matrix(11,0,0,11,155.3,701.7)" />
<use xlink:href="#f1_9" transform="matrix(11,0,0,11,159.9,701.7)" />
<use xlink:href="#f1_a" transform="matrix(11,0,0,11,164.7,701.7)" />
<use xlink:href="#f1_b" transform="matrix(11,0,0,11,173.1,701.7)" />
<use xlink:href="#f1_4" transform="matrix(11,0,0,11,181.5,701.7)" />
<use xlink:href="#f1_3" transform="matrix(11,0,0,11,188.9,701.7)" />
<use xlink:href="#f1_14" transform="matrix(11,0,0,11,202.1,701.7)" />
<use xlink:href="#f1_f" transform="matrix(11,0,0,11,209.4,701.7)" />
<use xlink:href="#f1_9" transform="matrix(11,0,0,11,215,701.7)" />
<use xlink:href="#f1_6" transform="matrix(11,0,0,11,219.7,701.7)" />
<use xlink:href="#f1_4" transform="matrix(11,0,0,11,227.2,701.7)" />
<use xlink:href="#f0_f" transform="matrix(12,0,0,12,724.9,725.2)" />
<use xlink:href="#f0_9" transform="matrix(12,0,0,12,734.9,725.2)" />
<use xlink:href="#f0_f" transform="matrix(12,0,0,12,739.9,725.2)" />
<use xlink:href="#f0_5" transform="matrix(12,0,0,12,750,725.2)" />
<use xlink:href="#f0_3" transform="matrix(12,0,0,12,762.3,725.2)" />
<use xlink:href="#f1_3" transform="matrix(11,0,0,11,464,723.9)" />
<use xlink:href="#f1_d" transform="matrix(11,0,0,11,477,723.9)" />
<use xlink:href="#f1_m" transform="matrix(11,0,0,11,484.4,723.9)" />
<use xlink:href="#f1_9" transform="matrix(11,0,0,11,492.8,723.9)" />
<use xlink:href="#f1_f" transform="matrix(11,0,0,11,497.4,723.9)" />
<use xlink:href="#f0_y" transform="matrix(12,0,0,12,395.1,725.2)" />
<use xlink:href="#f0_9" transform="matrix(12,0,0,12,406.8,725.2)" />
<use xlink:href="#f0_z" transform="matrix(12,0,0,12,411.7,725.2)" />
<use xlink:href="#f0_b" transform="matrix(12,0,0,12,423.6,725.2)" />
<use xlink:href="#f0_3" transform="matrix(12,0,0,12,436.6,725.2)" />
<use xlink:href="#f1_8" transform="matrix(11,0,0,11,137.7,723.9)" />
<use xlink:href="#f1_4" transform="matrix(11,0,0,11,142.4,723.9)" />
<use xlink:href="#f1_r" transform="matrix(11,0,0,11,149.8,723.9)" />
<use xlink:href="#f1_4" transform="matrix(11,0,0,11,158.2,723.9)" />
<use xlink:href="#f1_f" transform="matrix(11,0,0,11,165.6,723.9)" />
<use xlink:href="#f0_2" transform="matrix(12,0,0,12,738.1,747.4)" />
<use xlink:href="#f0_5" transform="matrix(12,0,0,12,750,747.4)" />
<use xlink:href="#f0_3" transform="matrix(12,0,0,12,762.4,747.4)" />
<use xlink:href="#f1_j" transform="matrix(11,0,0,11,464,746)" />
<use xlink:href="#f1_b" transform="matrix(11,0,0,11,472.4,746)" />
<use xlink:href="#f1_f" transform="matrix(11,0,0,11,480.6,746)" />
<use xlink:href="#f1_v" transform="matrix(11,0,0,11,490.5,746)" />
<use xlink:href="#f1_7" transform="matrix(11,0,0,11,498.9,746)" />
<use xlink:href="#f1_14" transform="matrix(11,0,0,11,507.3,746)" />
<use xlink:href="#f0_14" transform="matrix(12,0,0,12,380.4,747.4)" />
<use xlink:href="#f0_d" transform="matrix(12,0,0,12,390.3,747.4)" />
<use xlink:href="#f0_i" transform="matrix(12,0,0,12,402.3,747.4)" />
<use xlink:href="#f0_7" transform="matrix(12,0,0,12,412.6,747.4)" />
<use xlink:href="#f0_2" transform="matrix(12,0,0,12,424.7,747.4)" />
<use xlink:href="#f0_3" transform="matrix(12,0,0,12,436.6,747.4)" />
<use xlink:href="#f1_8" transform="matrix(11,0,0,11,137.7,746)" />
<use xlink:href="#f1_4" transform="matrix(11,0,0,11,142.4,746)" />
<use xlink:href="#f1_r" transform="matrix(11,0,0,11,149.8,746)" />
<use xlink:href="#f1_4" transform="matrix(11,0,0,11,158.2,746)" />
<use xlink:href="#f1_f" transform="matrix(11,0,0,11,165.6,746)" />
<use xlink:href="#f1_5" transform="matrix(11,0,0,11,171.2,746)" />
<use xlink:href="#f1_d" transform="matrix(11,0,0,11,177.8,746)" />
<use xlink:href="#f0_7" transform="matrix(12,0,0,12,732.9,769.5)" />
<use xlink:href="#f0_9" transform="matrix(12,0,0,12,744.9,769.5)" />
<use xlink:href="#f0_5" transform="matrix(12,0,0,12,749.9,769.5)" />
<use xlink:href="#f0_3" transform="matrix(12,0,0,12,762.3,769.5)" />
<use xlink:href="#f1_3" transform="matrix(11,0,0,11,464,768.2)" />
<use xlink:href="#f1_b" transform="matrix(11,0,0,11,477,768.2)" />
<use xlink:href="#f1_f" transform="matrix(11,0,0,11,485.4,768.2)" />
<use xlink:href="#f1_9" transform="matrix(11,0,0,11,491,768.2)" />
<use xlink:href="#f1_f" transform="matrix(11,0,0,11,495.6,768.2)" />
<use xlink:href="#f0_a" transform="matrix(12,0,0,12,414.2,769.5)" />
<use xlink:href="#f0_3" transform="matrix(12,0,0,12,424.7,769.5)" />
<use xlink:href="#f0_d" transform="matrix(12,0,0,12,435.1,769.5)" />
<use xlink:href="#f1_8" transform="matrix(11,0,0,11,137.7,768.2)" />
<use xlink:href="#f1_d" transform="matrix(11,0,0,11,142.4,768.2)" />
<use xlink:href="#f1_6" transform="matrix(11,0,0,11,149.8,768.2)" />
<use xlink:href="#f1_11" transform="matrix(11,0,0,11,157.3,768.2)" />
<use xlink:href="#f1_d" transform="matrix(11,0,0,11,165.6,768.2)" />
<use xlink:href="#f1_w" transform="matrix(11,0,0,11,177.3,768.2)" />
<use xlink:href="#f1_c" transform="matrix(11,0,0,11,182.8,768.2)" />
<use xlink:href="#f1_x" transform="matrix(11,0,0,11,188.4,768.2)" />
<use xlink:href="#f0_i" transform="matrix(12,0,0,12,724.9,791.7)" />
<use xlink:href="#f0_9" transform="matrix(12,0,0,12,735.3,791.7)" />
<use xlink:href="#f0_k" transform="matrix(12,0,0,12,740.3,791.7)" />
<use xlink:href="#f0_5" transform="matrix(12,0,0,12,750,791.7)" />
<use xlink:href="#f0_3" transform="matrix(12,0,0,12,762.3,791.7)" />
<use xlink:href="#f1_r" transform="matrix(11,0,0,11,464,790.3)" />
<use xlink:href="#f1_d" transform="matrix(11,0,0,11,472.4,790.3)" />
<use xlink:href="#f1_a" transform="matrix(11,0,0,11,479.9,790.3)" />
<use xlink:href="#f1_m" transform="matrix(11,0,0,11,488.3,790.3)" />
<use xlink:href="#f1_d" transform="matrix(11,0,0,11,496.5,790.3)" />
<use xlink:href="#f1_f" transform="matrix(11,0,0,11,504,790.3)" />
<use xlink:href="#f0_2" transform="matrix(12,0,0,12,411.3,791.7)" />
<use xlink:href="#f0_v" transform="matrix(12,0,0,12,423.2,791.7)" />
<use xlink:href="#f0_d" transform="matrix(12,0,0,12,435.1,791.7)" />
<use xlink:href="#f1_8" transform="matrix(11,0,0,11,137.7,790.3)" />
<use xlink:href="#f1_d" transform="matrix(11,0,0,11,142.4,790.3)" />
<use xlink:href="#f1_6" transform="matrix(11,0,0,11,149.8,790.3)" />
<use xlink:href="#f1_11" transform="matrix(11,0,0,11,157.3,790.3)" />
<use xlink:href="#f1_7" transform="matrix(11,0,0,11,165.7,790.3)" />
<use xlink:href="#f1_t" transform="matrix(11,0,0,11,174.1,790.3)" />
<use xlink:href="#f1_4" transform="matrix(11,0,0,11,182.4,790.3)" />
<use xlink:href="#f0_8" transform="matrix(12,0,0,12,727.4,813.8)" />
<use xlink:href="#f0_3" transform="matrix(12,0,0,12,739.6,813.8)" />
<use xlink:href="#f0_5" transform="matrix(12,0,0,12,750,813.8)" />
<use xlink:href="#f0_3" transform="matrix(12,0,0,12,762.4,813.8)" />
<use xlink:href="#f1_8" transform="matrix(11,0,0,11,464,812.5)" />
<use xlink:href="#f1_8" transform="matrix(11,0,0,11,468.6,812.5)" />
<use xlink:href="#f1_d" transform="matrix(11,0,0,11,473.3,812.5)" />
<use xlink:href="#f1_a" transform="matrix(11,0,0,11,480.8,812.5)" />
<use xlink:href="#f1_4" transform="matrix(11,0,0,11,489.2,812.5)" />
<use xlink:href="#f1_f" transform="matrix(11,0,0,11,496.5,812.5)" />
<use xlink:href="#f0_o" transform="matrix(12,0,0,12,342.2,813.8)" />
<use xlink:href="#f0_i" transform="matrix(12,0,0,12,349.4,813.8)" />
<use xlink:href="#f0_c" transform="matrix(12,0,0,12,359.6,813.8)" />
<use xlink:href="#f0_v" transform="matrix(12,0,0,12,371.1,813.8)" />
<use xlink:href="#f0_e" transform="matrix(12,0,0,12,383,813.8)" />
<use xlink:href="#f0_8" transform="matrix(12,0,0,12,395.9,813.8)" />
<use xlink:href="#f0_9" transform="matrix(12,0,0,12,408.2,813.8)" />
<use xlink:href="#f0_i" transform="matrix(12,0,0,12,413.2,813.8)" />
<use xlink:href="#f0_x" transform="matrix(12,0,0,12,423.6,813.8)" />
<use xlink:href="#f0_3" transform="matrix(12,0,0,12,436.5,813.8)" />
<use xlink:href="#f1_8" transform="matrix(11,0,0,11,137.7,812.5)" />
<use xlink:href="#f1_d" transform="matrix(11,0,0,11,142.4,812.5)" />
<use xlink:href="#f1_d" transform="matrix(11,0,0,11,149.8,812.5)" />
<use xlink:href="#f1_f" transform="matrix(11,0,0,11,157.2,812.5)" />
<use xlink:href="#f0_8" transform="matrix(12,0,0,12,721.9,836)" />
<use xlink:href="#f0_9" transform="matrix(12,0,0,12,734.1,836)" />
<use xlink:href="#f0_j" transform="matrix(12,0,0,12,739.1,836)" />
<use xlink:href="#f0_5" transform="matrix(12,0,0,12,750,836)" />
<use xlink:href="#f0_3" transform="matrix(12,0,0,12,762.4,836)" />
<use xlink:href="#f1_d" transform="matrix(11,0,0,11,464,834.6)" />
<use xlink:href="#f1_a" transform="matrix(11,0,0,11,471.4,834.6)" />
<use xlink:href="#f1_6" transform="matrix(11,0,0,11,479.7,834.6)" />
<use xlink:href="#f1_b" transform="matrix(11,0,0,11,487.2,834.6)" />
<use xlink:href="#f1_a" transform="matrix(11,0,0,11,495.6,834.6)" />
<use xlink:href="#f1_e" transform="matrix(11,0,0,11,504,834.6)" />
<use xlink:href="#f1_f" transform="matrix(11,0,0,11,508.7,834.6)" />
<use xlink:href="#f1_4" transform="matrix(11,0,0,11,514.3,834.6)" />
<use xlink:href="#f1_f" transform="matrix(11,0,0,11,521.6,834.6)" />
<use xlink:href="#f0_x" transform="matrix(12,0,0,12,406.7,836)" />
<use xlink:href="#f0_9" transform="matrix(12,0,0,12,419.7,836)" />
<use xlink:href="#f0_d" transform="matrix(12,0,0,12,424.7,836)" />
<use xlink:href="#f0_i" transform="matrix(12,0,0,12,436.6,836)" />
<use xlink:href="#f1_8" transform="matrix(11,0,0,11,137.7,834.6)" />
<use xlink:href="#f1_d" transform="matrix(11,0,0,11,142.4,834.6)" />
<use xlink:href="#f1_u" transform="matrix(11,0,0,11,149.7,834.6)" />
<use xlink:href="#f1_b" transform="matrix(11,0,0,11,154.4,834.6)" />
<use xlink:href="#f1_5" transform="matrix(11,0,0,11,162.8,834.6)" />
<use xlink:href="#f1_w" transform="matrix(11,0,0,11,173.7,834.6)" />
<use xlink:href="#f1_a" transform="matrix(11,0,0,11,179.1,834.6)" />
<use xlink:href="#f1_x" transform="matrix(11,0,0,11,187.5,834.6)" />
<use xlink:href="#f0_o" transform="matrix(12,0,0,12,628.7,858.2)" />
<use xlink:href="#f0_a" transform="matrix(12,0,0,12,635.8,858.2)" />
<use xlink:href="#f0_9" transform="matrix(12,0,0,12,646.4,858.2)" />
<use xlink:href="#f0_2" transform="matrix(12,0,0,12,651.4,858.2)" />
<use xlink:href="#f0_8" transform="matrix(12,0,0,12,663.3,858.2)" />
<use xlink:href="#f0_3" transform="matrix(12,0,0,12,675.6,858.2)" />
<use xlink:href="#f0_e" transform="matrix(12,0,0,12,686,858.2)" />
<use xlink:href="#f0_n" transform="matrix(12,0,0,12,698.9,858.2)" />
<use xlink:href="#f0_d" transform="matrix(12,0,0,12,704,858.2)" />
<use xlink:href="#f0_8" transform="matrix(12,0,0,12,721.8,858.2)" />
<use xlink:href="#f0_9" transform="matrix(12,0,0,12,734,858.2)" />
<use xlink:href="#f0_j" transform="matrix(12,0,0,12,739.1,858.2)" />
<use xlink:href="#f0_5" transform="matrix(12,0,0,12,749.9,858.2)" />
<use xlink:href="#f0_3" transform="matrix(12,0,0,12,762.3,858.2)" />
<use xlink:href="#f1_t" transform="matrix(11,0,0,11,464,856.8)" />
<use xlink:href="#f1_7" transform="matrix(11,0,0,11,472.4,856.8)" />
<use xlink:href="#f1_5" transform="matrix(11,0,0,11,480.8,856.8)" />
<use xlink:href="#f1_e" transform="matrix(11,0,0,11,487.2,856.8)" />
<use xlink:href="#f1_4" transform="matrix(11,0,0,11,491.9,856.8)" />
<use xlink:href="#f1_f" transform="matrix(11,0,0,11,499.4,856.8)" />
<use xlink:href="#f0_n" transform="matrix(12,0,0,12,413.7,858.2)" />
<use xlink:href="#f0_9" transform="matrix(12,0,0,12,418.6,858.2)" />
<use xlink:href="#f0_b" transform="matrix(12,0,0,12,423.6,858.2)" />
<use xlink:href="#f0_3" transform="matrix(12,0,0,12,436.6,858.2)" />
<use xlink:href="#f1_8" transform="matrix(11,0,0,11,137.7,856.8)" />
<use xlink:href="#f1_d" transform="matrix(11,0,0,11,142.4,856.8)" />
<use xlink:href="#f1_a" transform="matrix(11,0,0,11,149.8,856.8)" />
<use xlink:href="#f1_t" transform="matrix(11,0,0,11,158.2,856.8)" />
<use xlink:href="#f1_7" transform="matrix(11,0,0,11,166.6,856.8)" />
<use xlink:href="#f1_4" transform="matrix(11,0,0,11,175,856.8)" />
<use xlink:href="#f0_l" transform="matrix(12,0,0,12,722.2,880.3)" />
<use xlink:href="#f0_9" transform="matrix(12,0,0,12,732,880.3)" />
<use xlink:href="#f0_b" transform="matrix(12,0,0,12,737,880.3)" />
<use xlink:href="#f0_5" transform="matrix(12,0,0,12,750,880.3)" />
<use xlink:href="#f0_3" transform="matrix(12,0,0,12,762.3,880.3)" />
<use xlink:href="#f1_e" transform="matrix(11,0,0,11,464,878.9)" />
<use xlink:href="#f1_9" transform="matrix(11,0,0,11,468.6,878.9)" />
<use xlink:href="#f1_f" transform="matrix(11,0,0,11,473.3,878.9)" />
<use xlink:href="#f1_4" transform="matrix(11,0,0,11,478.8,878.9)" />
<use xlink:href="#f1_f" transform="matrix(11,0,0,11,486.3,878.9)" />
<use xlink:href="#f0_h" transform="matrix(12,0,0,12,376.8,880.3)" />
<use xlink:href="#f0_4" transform="matrix(12,0,0,12,389,880.3)" />
<use xlink:href="#f0_4" transform="matrix(12,0,0,12,393.1,880.3)" />
<use xlink:href="#f0_c" transform="matrix(12,0,0,12,397.2,880.3)" />
<use xlink:href="#f0_x" transform="matrix(12,0,0,12,408.6,880.3)" />
<use xlink:href="#f0_b" transform="matrix(12,0,0,12,421.6,880.3)" />
<use xlink:href="#f0_5" transform="matrix(12,0,0,12,434.4,880.3)" />
<use xlink:href="#f1_8" transform="matrix(11,0,0,11,137.7,878.9)" />
<use xlink:href="#f1_d" transform="matrix(11,0,0,11,142.4,878.9)" />
<use xlink:href="#f1_a" transform="matrix(11,0,0,11,149.8,878.9)" />
<use xlink:href="#f1_e" transform="matrix(11,0,0,11,158.1,878.9)" />
<use xlink:href="#f1_d" transform="matrix(11,0,0,11,162.8,878.9)" />
<use xlink:href="#f1_5" transform="matrix(11,0,0,11,170.3,878.9)" />
<use xlink:href="#f1_w" transform="matrix(11,0,0,11,180.9,878.9)" />
<use xlink:href="#f1_3" transform="matrix(11,0,0,11,186.6,878.9)" />
<use xlink:href="#f1_x" transform="matrix(11,0,0,11,199.6,878.9)" />
<use xlink:href="#f0_n" transform="matrix(12,0,0,12,742.5,902.5)" />
<use xlink:href="#f0_11" transform="matrix(12,0,0,12,747.5,902.5)" />
<use xlink:href="#f0_m" transform="matrix(12,0,0,12,755,902.5)" />
<use xlink:href="#f0_3" transform="matrix(12,0,0,12,762.3,902.5)" />
<use xlink:href="#f1_e" transform="matrix(11,0,0,11,464,901.1)" />
<use xlink:href="#f1_b" transform="matrix(11,0,0,11,468.6,901.1)" />
<use xlink:href="#f1_6" transform="matrix(11,0,0,11,477,901.1)" />
<use xlink:href="#f1_4" transform="matrix(11,0,0,11,484.4,901.1)" />
<use xlink:href="#f1_f" transform="matrix(11,0,0,11,491.9,901.1)" />
<use xlink:href="#f0_h" transform="matrix(12,0,0,12,398,902.5)" />
<use xlink:href="#f0_4" transform="matrix(12,0,0,12,410.2,902.5)" />
<use xlink:href="#f0_i" transform="matrix(12,0,0,12,414.3,902.5)" />
<use xlink:href="#f0_2" transform="matrix(12,0,0,12,424.7,902.5)" />
<use xlink:href="#f0_3" transform="matrix(12,0,0,12,436.6,902.5)" />
<use xlink:href="#f1_8" transform="matrix(11,0,0,11,137.7,901.1)" />
<use xlink:href="#f1_d" transform="matrix(11,0,0,11,142.4,901.1)" />
<use xlink:href="#f1_r" transform="matrix(11,0,0,11,149.8,901.1)" />
<use xlink:href="#f1_4" transform="matrix(11,0,0,11,158.2,901.1)" />
<use xlink:href="#f1_a" transform="matrix(11,0,0,11,165.7,901.1)" />
<use xlink:href="#f1_e" transform="matrix(11,0,0,11,174,901.1)" />
<use xlink:href="#f1_4" transform="matrix(11,0,0,11,178.7,901.1)" />
<use xlink:href="#f1_f" transform="matrix(11,0,0,11,186.1,901.1)" />
<use xlink:href="#f0_a" transform="matrix(12,0,0,12,683.5,924.6)" />
<use xlink:href="#f0_k" transform="matrix(12,0,0,12,694.1,924.6)" />
<use xlink:href="#f0_i" transform="matrix(12,0,0,12,703.7,924.6)" />
<use xlink:href="#f0_a" transform="matrix(12,0,0,12,714.1,924.6)" />
<use xlink:href="#f0_11" transform="matrix(12,0,0,12,730.6,924.6)" />
<use xlink:href="#f0_9" transform="matrix(12,0,0,12,738,924.6)" />
<use xlink:href="#f0_2" transform="matrix(12,0,0,12,743.1,924.6)" />
<use xlink:href="#f0_m" transform="matrix(12,0,0,12,755,924.6)" />
<use xlink:href="#f0_3" transform="matrix(12,0,0,12,762.3,924.6)" />
<use xlink:href="#f1_6" transform="matrix(11,0,0,11,464,923.2)" />
<use xlink:href="#f1_b" transform="matrix(11,0,0,11,471.4,923.2)" />
<use xlink:href="#f1_a" transform="matrix(11,0,0,11,479.9,923.2)" />
<use xlink:href="#f1_m" transform="matrix(11,0,0,11,488.3,923.2)" />
<use xlink:href="#f1_7" transform="matrix(11,0,0,11,496.7,923.2)" />
<use xlink:href="#f1_6" transform="matrix(11,0,0,11,504.9,923.2)" />
<use xlink:href="#f1_9" transform="matrix(11,0,0,11,512.4,923.2)" />
<use xlink:href="#f1_f" transform="matrix(11,0,0,11,517.1,923.2)" />
<use xlink:href="#f1_n" transform="matrix(11,0,0,11,522.6,923.2)" />
<use xlink:href="#f1_3" transform="matrix(11,0,0,11,531.6,923.2)" />
<use xlink:href="#f1_4" transform="matrix(11,0,0,11,544.6,923.2)" />
<use xlink:href="#f1_a" transform="matrix(11,0,0,11,552,923.2)" />
<use xlink:href="#f1_d" transform="matrix(11,0,0,11,560.4,923.2)" />
<use xlink:href="#f1_u" transform="matrix(11,0,0,11,567.9,923.2)" />
<use xlink:href="#f1_4" transform="matrix(11,0,0,11,572.5,923.2)" />
<use xlink:href="#f1_f" transform="matrix(11,0,0,11,579.9,923.2)" />
<use xlink:href="#f0_h" transform="matrix(12,0,0,12,406.5,924.6)" />
<use xlink:href="#f0_9" transform="matrix(12,0,0,12,418.6,924.6)" />
<use xlink:href="#f0_x" transform="matrix(12,0,0,12,423.6,924.6)" />
<use xlink:href="#f0_3" transform="matrix(12,0,0,12,436.6,924.6)" />
<use xlink:href="#f1_8" transform="matrix(11,0,0,11,137.7,923.2)" />
<use xlink:href="#f1_d" transform="matrix(11,0,0,11,142.4,923.2)" />
<use xlink:href="#f1_r" transform="matrix(11,0,0,11,149.8,923.2)" />
<use xlink:href="#f1_4" transform="matrix(11,0,0,11,158.2,923.2)" />
<use xlink:href="#f1_a" transform="matrix(11,0,0,11,165.7,923.2)" />
<use xlink:href="#f1_e" transform="matrix(11,0,0,11,174,923.2)" />
<use xlink:href="#f1_4" transform="matrix(11,0,0,11,178.7,923.2)" />
<use xlink:href="#f1_f" transform="matrix(11,0,0,11,186.1,923.2)" />
<use xlink:href="#f1_5" transform="matrix(11,0,0,11,191.6,923.2)" />
<use xlink:href="#f1_d" transform="matrix(11,0,0,11,198.2,923.2)" />
<use xlink:href="#f0_d" transform="matrix(12,0,0,12,738.1,946.8)" />
<use xlink:href="#f0_9" transform="matrix(12,0,0,12,750,946.8)" />
<use xlink:href="#f0_m" transform="matrix(12,0,0,12,755,946.8)" />
<use xlink:href="#f0_3" transform="matrix(12,0,0,12,762.3,946.8)" />
<use xlink:href="#f1_m" transform="matrix(11,0,0,11,464,945.4)" />
<use xlink:href="#f1_d" transform="matrix(11,0,0,11,472.4,945.4)" />
<use xlink:href="#f1_5" transform="matrix(11,0,0,11,479.7,945.4)" />
<use xlink:href="#f1_6" transform="matrix(11,0,0,11,486.3,945.4)" />
<use xlink:href="#f1_4" transform="matrix(11,0,0,11,493.7,945.4)" />
<use xlink:href="#f1_a" transform="matrix(11,0,0,11,501.2,945.4)" />
<use xlink:href="#f1_5" transform="matrix(11,0,0,11,509.6,945.4)" />
<use xlink:href="#f1_4" transform="matrix(11,0,0,11,516.2,945.4)" />
<use xlink:href="#f1_f" transform="matrix(11,0,0,11,523.5,945.4)" />
<use xlink:href="#f0_x" transform="matrix(12,0,0,12,417.1,946.8)" />
<use xlink:href="#f0_9" transform="matrix(12,0,0,12,430.1,946.8)" />
<use xlink:href="#f0_d" transform="matrix(12,0,0,12,435.1,946.8)" />
<use xlink:href="#f1_8" transform="matrix(11,0,0,11,137.7,945.4)" />
<use xlink:href="#f1_d" transform="matrix(11,0,0,11,142.4,945.4)" />
<use xlink:href="#f1_16" transform="matrix(11,0,0,11,149.8,945.4)" />
<use xlink:href="#f1_w" transform="matrix(11,0,0,11,162.4,945.4)" />
<use xlink:href="#f1_c" transform="matrix(11,0,0,11,168,945.4)" />
<use xlink:href="#f1_x" transform="matrix(11,0,0,11,173.5,945.4)" />
<use xlink:href="#f0_g" transform="matrix(12,0,0,12,726.6,968.9)" />
<use xlink:href="#f0_9" transform="matrix(12,0,0,12,738.1,968.9)" />
<use xlink:href="#f0_v" transform="matrix(12,0,0,12,743.1,968.9)" />
<use xlink:href="#f0_m" transform="matrix(12,0,0,12,755,968.9)" />
<use xlink:href="#f0_3" transform="matrix(12,0,0,12,762.3,968.9)" />
<use xlink:href="#f1_r" transform="matrix(11,0,0,11,464,967.5)" />
<use xlink:href="#f1_9" transform="matrix(11,0,0,11,472.2,967.5)" />
<use xlink:href="#f1_4" transform="matrix(11,0,0,11,477,967.5)" />
<use xlink:href="#f1_u" transform="matrix(11,0,0,11,484.4,967.5)" />
<use xlink:href="#f1_4" transform="matrix(11,0,0,11,489.1,967.5)" />
<use xlink:href="#f1_f" transform="matrix(11,0,0,11,496.5,967.5)" />
<use xlink:href="#f0_7" transform="matrix(12,0,0,12,329.5,968.9)" />
<use xlink:href="#f0_9" transform="matrix(12,0,0,12,341.6,968.9)" />
<use xlink:href="#f0_8" transform="matrix(12,0,0,12,346.6,968.9)" />
<use xlink:href="#f0_5" transform="matrix(12,0,0,12,358.8,968.9)" />
<use xlink:href="#f0_j" transform="matrix(12,0,0,12,371.3,968.9)" />
<use xlink:href="#f0_g" transform="matrix(12,0,0,12,382.2,968.9)" />
<use xlink:href="#f0_10" transform="matrix(12,0,0,12,399.5,968.9)" />
<use xlink:href="#f0_b" transform="matrix(12,0,0,12,405.6,968.9)" />
<use xlink:href="#f0_c" transform="matrix(12,0,0,12,418.6,968.9)" />
<use xlink:href="#f0_9" transform="matrix(12,0,0,12,430,968.9)" />
<use xlink:href="#f0_d" transform="matrix(12,0,0,12,435,968.9)" />
<use xlink:href="#f1_8" transform="matrix(11,0,0,11,137.7,967.5)" />
<use xlink:href="#f1_9" transform="matrix(11,0,0,11,142.4,967.5)" />
<use xlink:href="#f1_h" transform="matrix(11,0,0,11,147,967.5)" />
<use xlink:href="#f1_d" transform="matrix(11,0,0,11,155.4,967.5)" />
<use xlink:href="#f1_f" transform="matrix(11,0,0,11,162.8,967.5)" />
<use xlink:href="#f1_e" transform="matrix(11,0,0,11,168.5,967.5)" />
<use xlink:href="#f1_4" transform="matrix(11,0,0,11,173,967.5)" />
<use xlink:href="#f1_m" transform="matrix(11,0,0,11,180.5,967.5)" />
<use xlink:href="#f0_7" transform="matrix(12,0,0,12,726.2,991.1)" />
<use xlink:href="#f0_9" transform="matrix(12,0,0,12,738.1,991.1)" />
<use xlink:href="#f0_v" transform="matrix(12,0,0,12,743.1,991.1)" />
<use xlink:href="#f0_m" transform="matrix(12,0,0,12,755,991.1)" />
<use xlink:href="#f0_3" transform="matrix(12,0,0,12,762.3,991.1)" />
<use xlink:href="#f1_j" transform="matrix(11,0,0,11,464,989.7)" />
<use xlink:href="#f1_f" transform="matrix(11,0,0,11,472.2,989.7)" />
<use xlink:href="#f1_b" transform="matrix(11,0,0,11,477.9,989.7)" />
<use xlink:href="#f1_h" transform="matrix(11,0,0,11,486.3,989.7)" />
<use xlink:href="#f1_4" transform="matrix(11,0,0,11,494.7,989.7)" />
<use xlink:href="#f1_f" transform="matrix(11,0,0,11,502.1,989.7)" />
<use xlink:href="#f1_n" transform="matrix(11,0,0,11,507.8,989.7)" />
<use xlink:href="#f1_e" transform="matrix(11,0,0,11,516.6,989.7)" />
<use xlink:href="#f1_f" transform="matrix(11,0,0,11,521.3,989.7)" />
<use xlink:href="#f1_4" transform="matrix(11,0,0,11,526.8,989.7)" />
<use xlink:href="#f1_e" transform="matrix(11,0,0,11,534.3,989.7)" />
<use xlink:href="#f1_4" transform="matrix(11,0,0,11,539,989.7)" />
<use xlink:href="#f1_f" transform="matrix(11,0,0,11,546.3,989.7)" />
<use xlink:href="#f0_4" transform="matrix(12,0,0,12,361.6,991.1)" />
<use xlink:href="#f0_b" transform="matrix(12,0,0,12,365.7,991.1)" />
<use xlink:href="#f0_c" transform="matrix(12,0,0,12,378.7,991.1)" />
<use xlink:href="#f0_9" transform="matrix(12,0,0,12,390.2,991.1)" />
<use xlink:href="#f0_d" transform="matrix(12,0,0,12,395.2,991.1)" />
<use xlink:href="#f0_10" transform="matrix(12,0,0,12,413,991.1)" />
<use xlink:href="#f0_4" transform="matrix(12,0,0,12,419.1,991.1)" />
<use xlink:href="#f0_9" transform="matrix(12,0,0,12,423.2,991.1)" />
<use xlink:href="#f0_m" transform="matrix(12,0,0,12,428.1,991.1)" />
<use xlink:href="#f0_c" transform="matrix(12,0,0,12,435.5,991.1)" />
<use xlink:href="#f1_8" transform="matrix(11,0,0,11,137.7,989.7)" />
<use xlink:href="#f1_9" transform="matrix(11,0,0,11,142.4,989.7)" />
<use xlink:href="#f1_h" transform="matrix(11,0,0,11,147,989.7)" />
<use xlink:href="#f1_f" transform="matrix(11,0,0,11,155.4,989.7)" />
<use xlink:href="#f1_d" transform="matrix(11,0,0,11,161,989.7)" />
<use xlink:href="#f1_w" transform="matrix(11,0,0,11,172.6,989.7)" />
<use xlink:href="#f1_a" transform="matrix(11,0,0,11,178.2,989.7)" />
<use xlink:href="#f1_x" transform="matrix(11,0,0,11,186.6,989.7)" />
<use xlink:href="#f0_d" transform="matrix(12,0,0,12,732.3,1013.2)" />
<use xlink:href="#f0_j" transform="matrix(12,0,0,12,744.2,1013.2)" />
<use xlink:href="#f0_m" transform="matrix(12,0,0,12,755,1013.2)" />
<use xlink:href="#f0_3" transform="matrix(12,0,0,12,762.4,1013.2)" />
<use xlink:href="#f1_t" transform="matrix(11,0,0,11,464,1011.8)" />
<use xlink:href="#f1_4" transform="matrix(11,0,0,11,472.4,1011.8)" />
<use xlink:href="#f1_a" transform="matrix(11,0,0,11,479.9,1011.8)" />
<use xlink:href="#f1_4" transform="matrix(11,0,0,11,488.1,1011.8)" />
<use xlink:href="#f1_f" transform="matrix(11,0,0,11,495.6,1011.8)" />
<use xlink:href="#f0_i" transform="matrix(12,0,0,12,413.4,1013.2)" />
<use xlink:href="#f0_12" transform="matrix(12,0,0,12,423,1013.2)" />
<use xlink:href="#f0_c" transform="matrix(12,0,0,12,423.6,1013.2)" />
<use xlink:href="#f0_1c" transform="matrix(12,0,0,12,436.3,1013.2)" />
<use xlink:href="#f0_v" transform="matrix(12,0,0,12,435.1,1013.2)" />
<use xlink:href="#f1_8" transform="matrix(11,0,0,11,137.7,1011.8)" />
<use xlink:href="#f1_9" transform="matrix(11,0,0,11,142.4,1011.8)" />
<use xlink:href="#f1_h" transform="matrix(11,0,0,11,147,1011.8)" />
<use xlink:href="#f1_f" transform="matrix(11,0,0,11,155.4,1011.8)" />
<use xlink:href="#f1_b" transform="matrix(11,0,0,11,161,1011.8)" />
<use xlink:href="#f0_l" transform="matrix(12,0,0,12,727.2,1035.4)" />
<use xlink:href="#f0_9" transform="matrix(12,0,0,12,737,1035.4)" />
<use xlink:href="#f0_b" transform="matrix(12,0,0,12,742,1035.4)" />
<use xlink:href="#f0_m" transform="matrix(12,0,0,12,755,1035.4)" />
<use xlink:href="#f0_3" transform="matrix(12,0,0,12,762.3,1035.4)" />
<use xlink:href="#f1_3" transform="matrix(11,0,0,11,464,1034)" />
<use xlink:href="#f1_b" transform="matrix(11,0,0,11,477,1034)" />
<use xlink:href="#f1_f" transform="matrix(11,0,0,11,485.4,1034)" />
<use xlink:href="#f1_m" transform="matrix(11,0,0,11,491,1034)" />
<use xlink:href="#f1_d" transform="matrix(11,0,0,11,499.4,1034)" />
<use xlink:href="#f1_f" transform="matrix(11,0,0,11,506.9,1034)" />
<use xlink:href="#f0_11" transform="matrix(12,0,0,12,403.8,1035.4)" />
<use xlink:href="#f0_4" transform="matrix(12,0,0,12,411.3,1035.4)" />
<use xlink:href="#f0_2" transform="matrix(12,0,0,12,415.4,1035.4)" />
<use xlink:href="#f0_m" transform="matrix(12,0,0,12,427.3,1035.4)" />
<use xlink:href="#f0_5" transform="matrix(12,0,0,12,434.5,1035.4)" />
<use xlink:href="#f1_8" transform="matrix(11,0,0,11,137.7,1034)" />
<use xlink:href="#f1_12" transform="matrix(11,0,0,11,142.4,1034)" />
<use xlink:href="#f1_m" transform="matrix(11,0,0,11,147,1034)" />
<use xlink:href="#f1_d" transform="matrix(11,0,0,11,155.4,1034)" />
<use xlink:href="#f1_f" transform="matrix(11,0,0,11,162.8,1034)" />
<use xlink:href="#f1_w" transform="matrix(11,0,0,11,172.6,1034)" />
<use xlink:href="#f1_a" transform="matrix(11,0,0,11,178.2,1034)" />
<use xlink:href="#f1_x" transform="matrix(11,0,0,11,186.6,1034)" />
<use xlink:href="#f0_h" transform="matrix(12,0,0,12,724.9,1057.5)" />
<use xlink:href="#f0_9" transform="matrix(12,0,0,12,737,1057.5)" />
<use xlink:href="#f0_b" transform="matrix(12,0,0,12,742,1057.5)" />
<use xlink:href="#f0_m" transform="matrix(12,0,0,12,755,1057.5)" />
<use xlink:href="#f0_3" transform="matrix(12,0,0,12,762.3,1057.5)" />
<use xlink:href="#f1_f" transform="matrix(11,0,0,11,464,1056.2)" />
<use xlink:href="#f1_d" transform="matrix(11,0,0,11,469.5,1056.2)" />
<use xlink:href="#f1_5" transform="matrix(11,0,0,11,476.9,1056.2)" />
<use xlink:href="#f1_j" transform="matrix(11,0,0,11,483.5,1056.2)" />
<use xlink:href="#f1_9" transform="matrix(11,0,0,11,491.9,1056.2)" />
<use xlink:href="#f1_f" transform="matrix(11,0,0,11,496.5,1056.2)" />
<use xlink:href="#f1_4" transform="matrix(11,0,0,11,502.1,1056.2)" />
<use xlink:href="#f1_f" transform="matrix(11,0,0,11,509.6,1056.2)" />
<use xlink:href="#f0_4" transform="matrix(12,0,0,12,422.6,1057.5)" />
<use xlink:href="#f0_x" transform="matrix(12,0,0,12,426.7,1057.5)" />
<use xlink:href="#f0_m" transform="matrix(12,0,0,12,439.7,1057.5)" />
<use xlink:href="#f1_8" transform="matrix(11,0,0,11,137.7,1056.2)" />
<use xlink:href="#f1_9" transform="matrix(11,0,0,11,142.4,1056.2)" />
<use xlink:href="#f1_3" transform="matrix(11,0,0,11,147,1056.2)" />
<use xlink:href="#f1_j" transform="matrix(11,0,0,11,160.1,1056.2)" />
<use xlink:href="#f1_9" transform="matrix(11,0,0,11,168.5,1056.2)" />
<use xlink:href="#f1_b" transform="matrix(11,0,0,11,173.2,1056.2)" />
<use xlink:href="#f0_i" transform="matrix(12,0,0,12,726.8,1079.7)" />
<use xlink:href="#f0_9" transform="matrix(12,0,0,12,737,1079.7)" />
<use xlink:href="#f0_b" transform="matrix(12,0,0,12,742,1079.7)" />
<use xlink:href="#f0_m" transform="matrix(12,0,0,12,755,1079.7)" />
<use xlink:href="#f0_3" transform="matrix(12,0,0,12,762.3,1079.7)" />
<use xlink:href="#f1_6" transform="matrix(11,0,0,11,464,1078.3)" />
<use xlink:href="#f1_4" transform="matrix(11,0,0,11,471.3,1078.3)" />
<use xlink:href="#f1_d" transform="matrix(11,0,0,11,478.8,1078.3)" />
<use xlink:href="#f1_f" transform="matrix(11,0,0,11,486.2,1078.3)" />
<use xlink:href="#f0_2" transform="matrix(12,0,0,12,419.5,1079.7)" />
<use xlink:href="#f0_c" transform="matrix(12,0,0,12,431.4,1079.7)" />
<use xlink:href="#f0_4" transform="matrix(12,0,0,12,442.9,1079.7)" />
<use xlink:href="#f1_8" transform="matrix(11,0,0,11,137.7,1078.3)" />
<use xlink:href="#f1_9" transform="matrix(11,0,0,11,142.4,1078.3)" />
<use xlink:href="#f1_a" transform="matrix(11,0,0,11,147,1078.3)" />
<use xlink:href="#f1_m" transform="matrix(11,0,0,11,155.4,1078.3)" />
<use xlink:href="#f1_b" transform="matrix(11,0,0,11,163.8,1078.3)" />
<use xlink:href="#f0_x" transform="matrix(12,0,0,12,729.1,1101.8)" />
<use xlink:href="#f0_b" transform="matrix(12,0,0,12,742,1101.8)" />
<use xlink:href="#f0_m" transform="matrix(12,0,0,12,755,1101.8)" />
<use xlink:href="#f0_3" transform="matrix(12,0,0,12,762.3,1101.8)" />
<use xlink:href="#f1_h" transform="matrix(11,0,0,11,464,1100.5)" />
<use xlink:href="#f1_d" transform="matrix(11,0,0,11,472.4,1100.5)" />
<use xlink:href="#f1_5" transform="matrix(11,0,0,11,479.7,1100.5)" />
<use xlink:href="#f1_4" transform="matrix(11,0,0,11,486.3,1100.5)" />
<use xlink:href="#f1_f" transform="matrix(11,0,0,11,493.7,1100.5)" />
<use xlink:href="#f0_h" transform="matrix(12,0,0,12,369.1,1101.8)" />
<use xlink:href="#f0_k" transform="matrix(12,0,0,12,381.3,1101.8)" />
<use xlink:href="#f0_d" transform="matrix(12,0,0,12,390.9,1101.8)" />
<use xlink:href="#f0_10" transform="matrix(12,0,0,12,408.8,1101.8)" />
<use xlink:href="#f0_n" transform="matrix(12,0,0,12,414.9,1101.8)" />
<use xlink:href="#f0_k" transform="matrix(12,0,0,12,419.9,1101.8)" />
<use xlink:href="#f0_9" transform="matrix(12,0,0,12,429.6,1101.8)" />
<use xlink:href="#f0_5" transform="matrix(12,0,0,12,434.5,1101.8)" />
<use xlink:href="#f1_8" transform="matrix(11,0,0,11,137.7,1100.5)" />
<use xlink:href="#f1_9" transform="matrix(11,0,0,11,142.4,1100.5)" />
<use xlink:href="#f1_5" transform="matrix(11,0,0,11,147,1100.5)" />
<use xlink:href="#f1_e" transform="matrix(11,0,0,11,153.5,1100.5)" />
<use xlink:href="#f1_b" transform="matrix(11,0,0,11,158.2,1100.5)" />
<use xlink:href="#f0_i" transform="matrix(12,0,0,12,727.5,1124)" />
<use xlink:href="#f0_9" transform="matrix(12,0,0,12,737.9,1124)" />
<use xlink:href="#f0_11" transform="matrix(12,0,0,12,742.9,1124)" />
<use xlink:href="#f0_v" transform="matrix(12,0,0,12,750.4,1124)" />
<use xlink:href="#f0_3" transform="matrix(12,0,0,12,762.3,1124)" />
<use xlink:href="#f1_6" transform="matrix(11,0,0,11,464,1122.6)" />
<use xlink:href="#f1_d" transform="matrix(11,0,0,11,471.3,1122.6)" />
<use xlink:href="#f1_f" transform="matrix(11,0,0,11,478.8,1122.6)" />
<use xlink:href="#f1_f" transform="matrix(11,0,0,11,484.4,1122.6)" />
<use xlink:href="#f1_4" transform="matrix(11,0,0,11,490,1122.6)" />
<use xlink:href="#f1_f" transform="matrix(11,0,0,11,497.4,1122.6)" />
<use xlink:href="#f0_n" transform="matrix(12,0,0,12,356.4,1124)" />
<use xlink:href="#f0_9" transform="matrix(12,0,0,12,361.3,1124)" />
<use xlink:href="#f0_c" transform="matrix(12,0,0,12,366.3,1124)" />
<use xlink:href="#f0_3" transform="matrix(12,0,0,12,377.8,1124)" />
<use xlink:href="#f0_z" transform="matrix(12,0,0,12,388.2,1124)" />
<use xlink:href="#f0_7" transform="matrix(12,0,0,12,405.9,1124)" />
<use xlink:href="#f0_d" transform="matrix(12,0,0,12,417.9,1124)" />
<use xlink:href="#f0_4" transform="matrix(12,0,0,12,429.9,1124)" />
<use xlink:href="#f0_b" transform="matrix(12,0,0,12,434,1124)" />
<use xlink:href="#f1_8" transform="matrix(11,0,0,11,137.7,1122.6)" />
<use xlink:href="#f1_8" transform="matrix(11,0,0,11,142.4,1122.6)" />
<use xlink:href="#f1_4" transform="matrix(11,0,0,11,147,1122.6)" />
<use xlink:href="#f1_3" transform="matrix(11,0,0,11,154.4,1122.6)" />
<use xlink:href="#f1_4" transform="matrix(11,0,0,11,167.5,1122.6)" />
<use xlink:href="#f1_m" transform="matrix(11,0,0,11,175,1122.6)" />
<use xlink:href="#f1_4" transform="matrix(11,0,0,11,183.4,1122.6)" />
<use xlink:href="#f0_h" transform="matrix(12,0,0,12,730.1,1146.1)" />
<use xlink:href="#f0_4" transform="matrix(12,0,0,12,742.3,1146.1)" />
<use xlink:href="#f0_4" transform="matrix(12,0,0,12,746.3,1146.1)" />
<use xlink:href="#f0_v" transform="matrix(12,0,0,12,750.4,1146.1)" />
<use xlink:href="#f0_3" transform="matrix(12,0,0,12,762.3,1146.1)" />
<use xlink:href="#f1_e" transform="matrix(11,0,0,11,464,1144.8)" />
<use xlink:href="#f1_d" transform="matrix(11,0,0,11,468.6,1144.8)" />
<use xlink:href="#f1_f" transform="matrix(11,0,0,11,476,1144.8)" />
<use xlink:href="#f1_3" transform="matrix(11,0,0,11,481.5,1144.8)" />
<use xlink:href="#f1_9" transform="matrix(11,0,0,11,494.7,1144.8)" />
<use xlink:href="#f1_a" transform="matrix(11,0,0,11,499.4,1144.8)" />
<use xlink:href="#f1_4" transform="matrix(11,0,0,11,507.8,1144.8)" />
<use xlink:href="#f1_f" transform="matrix(11,0,0,11,515.2,1144.8)" />
<use xlink:href="#f0_8" transform="matrix(12,0,0,12,313.3,1146.1)" />
<use xlink:href="#f0_9" transform="matrix(12,0,0,12,325.6,1146.1)" />
<use xlink:href="#f0_i" transform="matrix(12,0,0,12,330.5,1146.1)" />
<use xlink:href="#f0_x" transform="matrix(12,0,0,12,340.8,1146.1)" />
<use xlink:href="#f0_3" transform="matrix(12,0,0,12,353.8,1146.1)" />
<use xlink:href="#f0_10" transform="matrix(12,0,0,12,370.2,1146.1)" />
<use xlink:href="#f0_i" transform="matrix(12,0,0,12,376.3,1146.1)" />
<use xlink:href="#f0_b" transform="matrix(12,0,0,12,386.6,1146.1)" />
<use xlink:href="#f0_x" transform="matrix(12,0,0,12,399.6,1146.1)" />
<use xlink:href="#f0_7" transform="matrix(12,0,0,12,412.6,1146.1)" />
<use xlink:href="#f0_2" transform="matrix(12,0,0,12,424.6,1146.1)" />
<use xlink:href="#f0_3" transform="matrix(12,0,0,12,436.6,1146.1)" />
<use xlink:href="#f1_8" transform="matrix(11,0,0,11,137.7,1144.8)" />
<use xlink:href="#f1_8" transform="matrix(11,0,0,11,142.4,1144.8)" />
<use xlink:href="#f1_4" transform="matrix(11,0,0,11,147,1144.8)" />
<use xlink:href="#f1_3" transform="matrix(11,0,0,11,154.4,1144.8)" />
<use xlink:href="#f1_4" transform="matrix(11,0,0,11,167.5,1144.8)" />
<use xlink:href="#f1_f" transform="matrix(11,0,0,11,174.9,1144.8)" />
<use xlink:href="#f0_i" transform="matrix(12,0,0,12,723.7,1168.3)" />
<use xlink:href="#f0_9" transform="matrix(12,0,0,12,734.1,1168.3)" />
<use xlink:href="#f0_c" transform="matrix(12,0,0,12,739,1168.3)" />
<use xlink:href="#f0_v" transform="matrix(12,0,0,12,750.4,1168.3)" />
<use xlink:href="#f0_3" transform="matrix(12,0,0,12,762.3,1168.3)" />
<use xlink:href="#f1_6" transform="matrix(11,0,0,11,464,1166.9)" />
<use xlink:href="#f1_b" transform="matrix(11,0,0,11,471.4,1166.9)" />
<use xlink:href="#f1_a" transform="matrix(11,0,0,11,479.9,1166.9)" />
<use xlink:href="#f1_e" transform="matrix(11,0,0,11,488.1,1166.9)" />
<use xlink:href="#f1_4" transform="matrix(11,0,0,11,492.8,1166.9)" />
<use xlink:href="#f1_f" transform="matrix(11,0,0,11,500.3,1166.9)" />
<use xlink:href="#f0_l" transform="matrix(12,0,0,12,335.2,1168.3)" />
<use xlink:href="#f0_5" transform="matrix(12,0,0,12,345,1168.3)" />
<use xlink:href="#f0_j" transform="matrix(12,0,0,12,357.5,1168.3)" />
<use xlink:href="#f0_g" transform="matrix(12,0,0,12,368.3,1168.3)" />
<use xlink:href="#f0_3" transform="matrix(12,0,0,12,379.8,1168.3)" />
<use xlink:href="#f0_8" transform="matrix(12,0,0,12,396,1168.3)" />
<use xlink:href="#f0_9" transform="matrix(12,0,0,12,408.2,1168.3)" />
<use xlink:href="#f0_i" transform="matrix(12,0,0,12,413.2,1168.3)" />
<use xlink:href="#f0_x" transform="matrix(12,0,0,12,423.6,1168.3)" />
<use xlink:href="#f0_3" transform="matrix(12,0,0,12,436.6,1168.3)" />
<use xlink:href="#f1_8" transform="matrix(11,0,0,11,137.7,1166.9)" />
<use xlink:href="#f1_8" transform="matrix(11,0,0,11,142.4,1166.9)" />
<use xlink:href="#f1_4" transform="matrix(11,0,0,11,147,1166.9)" />
<use xlink:href="#f1_3" transform="matrix(11,0,0,11,154.4,1166.9)" />
<use xlink:href="#f1_4" transform="matrix(11,0,0,11,167.5,1166.9)" />
<use xlink:href="#f1_f" transform="matrix(11,0,0,11,174.9,1166.9)" />
<use xlink:href="#f1_5" transform="matrix(11,0,0,11,180.5,1166.9)" />
<use xlink:href="#f1_d" transform="matrix(11,0,0,11,187.1,1166.9)" />
</g>
</g>
<g fill="#000000" >
<use xlink:href="#f0_s" transform="matrix(11,0,0,11,750.8,1227.6)" />
<use xlink:href="#f0_s" transform="matrix(11,0,0,11,761.4,1227.6)" />
</g>
<defs>
<path d="M156,-317V454l139,56V-317ZM505,0L806,729H139V835H967V753L650,0Z" 
id="f0_x"
transform="scale(0.001,-0.001)" />

<path d="M139,0V836H278V0Z" 
id="f0_9"
transform="scale(0.001,-0.001)" />

<path d="M287,0L589,729H66v386H205V836l547,-1l-2,-82L433,0Z" 
id="f0_3"
transform="scale(0.001,-0.001)" />

<path d="M139,0V836H485c0,0,206,0,290,-90c0,0,84,-89,84,-294V0H721V473c0,0,0,147,-49,202c0,0,-48,54,-186,54H277V0Z" 
id="f0_d"
transform="scale(0.001,-0.001)" />

<path d="M399,-14c0,0,-341,0,-341,370c0,0,0,175,87,269c0,0,87,95,249,95c0,0,101,0,220,-23V501H573L541,625c0,0,-62,35,-149,35c0,0,-200,0,-200,-304c0,0,0,-158,61,-225c0,0,61,-67,189,-67c0,0,109,0,189,24V43C631,43,595,16,530,1c0,0,-64,-15,-131,-15Z" 
id="f1_6"
transform="scale(0.001,-0.001)" />

<path d="M377,45c0,0,99,0,147,73c0,0,47,73,47,237c0,0,0,161,-47,233c0,0,-47,72,-147,72c0,0,-97,0,-141,-69c0,0,-44,-69,-44,-236c0,0,0,-169,45,-240c0,0,44,-70,140,-70Zm0,-59c0,0,-158,0,-238,94c0,0,-81,95,-81,274c0,0,0,178,81,272c0,0,80,94,244,94c0,0,160,0,241,-92c0,0,82,-92,82,-274c0,0,0,-368,-329,-368Z" 
id="f1_b"
transform="scale(0.001,-0.001)" />

<path d="M431,0V33L535,52V499c0,0,0,62,-32,96c0,0,-32,33,-95,33c0,0,-66,0,-163,-22V52L350,33V0H32V33l89,19V649L32,668v33H237l6,-57c0,0,56,32,119,54c0,0,62,22,110,22c0,0,52,0,95,-20c0,0,44,-19,66,-62c0,0,57,32,134,57c0,0,77,25,128,25c0,0,179,0,179,-207V52l90,-19V0H846V33L950,52V499c0,0,0,129,-119,129c0,0,-19,0,-45,-3c0,0,-26,-3,-52,-7c0,0,-25,-4,-49,-8c0,0,-23,-5,-39,-8c0,0,13,-41,13,-89V52L764,33V0Z" 
id="f1_3"
transform="scale(0.001,-0.001)" />

<path d="M382,45c0,0,188,0,188,314c0,0,0,143,-47,213c0,0,-46,69,-141,69c0,0,-87,0,-146,-24V58c0,0,67,-13,146,-13ZM25,-325v35l88,18V649L34,668v33H231l1,-41c0,0,31,27,84,43c0,0,53,17,107,17c0,0,134,0,208,-94c0,0,73,-93,73,-267c0,0,0,-178,-80,-276c0,0,-80,-97,-232,-97c0,0,-84,0,-160,16c0,0,4,-53,4,-84V-272l123,-18v-35Z" 
id="f1_j"
transform="scale(0.001,-0.001)" />

<path d="M284,67c0,0,51,0,88,12c0,0,37,12,74,30V358l-98,-3c0,0,-100,-4,-135,-39c0,0,-35,-35,-35,-117c0,0,0,-132,106,-132ZM233,-14c0,0,-179,0,-179,208c0,0,0,70,27,116c0,0,27,46,87,70c0,0,60,24,173,27l105,3V519c0,0,0,72,-26,107c0,0,-27,34,-82,34c0,0,-75,0,-137,-35L176,538H134V691c0,0,121,26,213,26c0,0,115,0,169,-47c0,0,54,-47,54,-144V52L657,33V0H465L451,70c0,0,-85,-84,-218,-84Z" 
id="f1_4"
transform="scale(0.001,-0.001)" />

<path d="M31,0V33l88,19V649L31,668v33H235l7,-87c0,0,44,37,121,71c0,0,76,35,121,35h11V530H463l-43,82c0,0,-37,0,-88,-10c0,0,-52,-10,-89,-26V52L363,33V0Z" 
id="f1_f"
transform="scale(0.001,-0.001)" />

<path d="M249,-14c0,0,-71,0,-107,42c0,0,-35,42,-35,119V639H15v33l93,29l76,159h47V701H391V639H231V161c0,0,0,-48,22,-73c0,0,22,-24,57,-24c0,0,44,0,106,12V26C416,26,389,8,340,-2c0,0,-49,-12,-91,-12Z" 
id="f1_e"
transform="scale(0.001,-0.001)" />

<path d="M32,0V33L151,52V649L52,668v33H275V52L395,33V0ZM201,850c0,0,-32,0,-56,24c0,0,-24,24,-24,56c0,0,0,34,24,58c0,0,24,24,56,24c0,0,34,0,58,-24c0,0,24,-24,24,-58c0,0,0,-32,-24,-56c0,0,-24,-24,-58,-24Z" 
id="f1_9"
transform="scale(0.001,-0.001)" />

<path d="M139,-317V836H278V-317Z" 
id="f0_n"
transform="scale(0.001,-0.001)" />

<path d="M102,312V836H241V369L102,312Z" 
id="f0_4"
transform="scale(0.001,-0.001)" />

<path d="M66,0V107H332V555c0,0,0,92,-37,133c0,0,-37,41,-116,41H85V836h94c0,0,153,0,223,-66c0,0,69,-66,69,-231V0Z" 
id="f0_m"
transform="scale(0.001,-0.001)" />

<path d="M71,-141V-15L289,62L66,836H210L416,109c0,0,99,42,153,98c0,0,53,56,80,155c0,0,26,98,26,262V836H817V624c0,0,0,-88,-7,-154c0,0,-7,-67,-25,-132c0,0,-18,-66,-51,-116c0,0,-33,-51,-84,-98c0,0,-50,-48,-123,-87c0,0,-72,-39,-169,-74L71,-141Z" 
id="f0_g"
transform="scale(0.001,-0.001)" />

<path d="M439,0V33l93,19V500c0,0,0,62,-30,97c0,0,-31,36,-94,36c0,0,-67,0,-165,-22V52L338,33V0H35V33l84,19V649L35,668v33H235l7,-57c0,0,57,33,122,54c0,0,65,22,108,22c0,0,91,0,137,-53c0,0,47,-53,47,-154V52L741,33V0Z" 
id="f1_a"
transform="scale(0.001,-0.001)" />

<path d="M495,413c0,0,0,133,-34,190c0,0,-34,57,-105,57c0,0,-78,0,-119,-63c0,0,-42,-62,-42,-184ZM374,-14c0,0,-163,0,-239,87c0,0,-75,88,-75,283c0,0,0,183,77,273c0,0,76,91,219,91c0,0,269,0,269,-306V353H194V340c0,0,0,-103,23,-160c0,0,22,-57,70,-87c0,0,47,-29,124,-29c0,0,40,0,96,6c0,0,55,7,91,15V43C598,43,562,20,500,3c0,0,-61,-17,-126,-17Z" 
id="f1_d"
transform="scale(0.001,-0.001)" />

<path d="M278,-14c0,0,-52,0,-115,11c0,0,-63,10,-99,23V193H98L134,95c0,0,56,-50,146,-50c0,0,144,0,144,123c0,0,0,91,-114,130l-66,21c0,0,-75,25,-110,50c0,0,-34,26,-53,63c0,0,-18,36,-18,89c0,0,0,92,63,145c0,0,63,54,170,54c0,0,77,0,193,-23V544H454l-32,81c0,0,-39,35,-124,35c0,0,-61,0,-92,-30c0,0,-32,-30,-32,-80c0,0,0,-43,29,-72c0,0,28,-29,86,-48c0,0,110,-38,144,-55c0,0,33,-17,57,-42c0,0,23,-25,36,-57c0,0,13,-32,13,-79c0,0,0,-104,-66,-158c0,0,-66,-53,-195,-53Z" 
id="f1_5"
transform="scale(0.001,-0.001)" />

<path d="M138,-7c0,0,-34,0,-72,10V129c0,0,25,-8,52,-8c0,0,33,0,58,5c0,0,26,5,58,24c0,0,33,20,53,54c0,0,21,34,36,97c0,0,15,64,15,151c0,0,0,113,-19,173c0,0,-19,60,-56,82c0,0,-38,22,-107,22H89V836h72c0,0,165,0,240,-91c0,0,76,-91,76,-293c0,0,0,-107,26,-227c0,0,25,-119,83,-225H437c0,0,-43,101,-62,184c0,0,-24,-60,-51,-99c0,0,-26,-38,-56,-58C268,27,239,7,209,0c0,0,-30,-7,-71,-7Z" 
id="f0_11"
transform="scale(0.001,-0.001)" />

<path d="M66,0V106H564L66,836H228L516,413c0,0,3,2,9,6c0,0,17,13,27,21c0,0,10,8,26,27c0,0,17,20,26,40c0,0,9,21,16,54c0,0,7,34,7,75V836H764V698c0,0,0,-55,-7,-102c0,0,-7,-47,-16,-79c0,0,-10,-33,-27,-62c0,0,-18,-29,-32,-46c0,0,-14,-17,-37,-35c0,0,-22,-17,-36,-25c0,0,-13,-8,-36,-20L767,53V0Z" 
id="f0_j"
transform="scale(0.001,-0.001)" />

<path d="M154,0V454l138,56V0ZM722,0V454c0,0,0,161,-49,218c0,0,-48,57,-186,57H139V836H485c0,0,207,0,291,-93c0,0,83,-94,83,-318V0Z" 
id="f0_2"
transform="scale(0.001,-0.001)" />

<path d="M383,64c0,0,85,0,152,28V645c0,0,-67,13,-152,13c0,0,-194,0,-194,-314c0,0,0,-141,48,-211c0,0,48,-69,146,-69ZM342,-14c0,0,-287,0,-287,358c0,0,0,184,82,280c0,0,81,96,239,96c0,0,81,0,163,-18c0,0,-4,25,-4,124v182l-118,18v34H659V52L745,33V0H548l-9,52c0,0,-84,-66,-197,-66Z" 
id="f1_m"
transform="scale(0.001,-0.001)" />

<path d="M289,-14c0,0,-179,0,-179,205V649L20,668v33H233V200c0,0,0,-128,120,-128c0,0,92,0,173,23V649L420,668v33H649V52L738,33V0H533l-6,57C527,57,474,28,405,7c0,0,-69,-21,-116,-21Z" 
id="f1_7"
transform="scale(0.001,-0.001)" />

<path d="M736,107V473c0,0,0,147,-48,202c0,0,-49,54,-187,54H278V107ZM139,0V836H499c0,0,105,0,177,-22c0,0,72,-21,116,-69c0,0,44,-49,64,-119c0,0,19,-71,19,-174V0Z" 
id="f0_h"
transform="scale(0.001,-0.001)" />

<path d="M585,0V426c0,0,0,54,-8,98c0,0,-8,44,-27,83c0,0,-19,40,-49,66c0,0,-30,26,-77,41c0,0,-47,15,-108,15H66V836H315c0,0,94,0,166,-20c0,0,71,-20,116,-54c0,0,46,-35,75,-88c0,0,28,-52,40,-112c0,0,12,-60,12,-137V0Z" 
id="f0_i"
transform="scale(0.001,-0.001)" />

<path d="M360,-14L72,649L0,668v33H327V668L216,648L420,164L615,649L504,668v33H764V668L697,652L416,-14Z" 
id="f1_r"
transform="scale(0.001,-0.001)" />

<path d="M359,-270c0,0,124,0,192,46c0,0,67,47,67,129c0,0,0,43,-26,67c0,0,-26,24,-79,24H242c0,0,-32,-27,-51,-69c0,0,-20,-41,-20,-77c0,0,0,-64,46,-92c0,0,46,-28,142,-28Zm11,561c0,0,81,0,115,47c0,0,34,47,34,141c0,0,0,100,-35,142c0,0,-35,42,-113,42c0,0,-78,0,-114,-43c0,0,-37,-42,-37,-141c0,0,0,-98,36,-143c0,0,36,-45,114,-45ZM359,-329c0,0,-143,0,-218,44c0,0,-75,43,-75,125c0,0,0,39,27,78c0,0,26,38,98,89c0,0,-43,14,-72,48c0,0,-29,35,-29,74L208,262c0,0,-118,55,-118,217c0,0,0,115,73,178c0,0,73,63,211,63c0,0,28,0,71,-6c0,0,44,-6,67,-13l165,83l26,-32L599,644c0,0,50,-56,50,-165c0,0,0,-120,-72,-182c0,0,-73,-62,-208,-62c0,0,-62,0,-114,11L208,148c0,0,2,-13,29,-24c0,0,27,-12,67,-12H512c0,0,113,0,168,-49c0,0,55,-49,55,-134c0,0,0,-79,-44,-137c0,0,-43,-58,-128,-90c0,0,-84,-31,-204,-31Z" 
id="f1_t"
transform="scale(0.001,-0.001)" />

<path d="M377,44c0,0,99,0,147,73c0,0,47,73,47,237c0,0,0,161,-47,234c0,0,-47,72,-147,72c0,0,-97,0,-141,-69c0,0,-44,-70,-44,-237c0,0,0,-169,45,-239c0,0,44,-71,140,-71Zm0,-58c0,0,-158,0,-238,94c0,0,-81,95,-81,274c0,0,0,178,81,272c0,0,80,94,244,94c0,0,160,0,241,-92c0,0,82,-92,82,-274c0,0,0,-368,-329,-368ZM301,835v24l147,203H606v-27L342,835Z" 
id="f1_z"
transform="scale(0.001,-0.001)" />

<path d="M114,0l60,312c0,0,2,12,8,39c0,0,6,27,7,37c0,0,2,11,5,30c0,0,2,19,4,33c0,0,1,15,1,31c0,0,0,48,-35,146c0,0,-35,98,-98,208H228c0,0,3,-8,27,-67c0,0,25,-58,41,-117c0,0,21,53,50,90c0,0,29,37,57,57c0,0,29,21,65,32c0,0,37,11,65,14c0,0,28,3,67,3c0,0,300,0,300,-396V0H480V106H761V452c0,0,0,146,-46,215c0,0,-45,70,-118,70c0,0,-134,0,-198,-119c0,0,-36,-68,-67,-222c0,0,-2,-10,-6,-27L253,0Z" 
id="f0_5"
transform="scale(0.001,-0.001)" />

<path d="M31,0V33L150,52v956L31,1026v34H274V52L394,33V0Z" 
id="f1_8"
transform="scale(0.001,-0.001)" />

<path d="M700,-317V454c0,0,0,155,-54,215c0,0,-54,60,-180,60H277V551c0,0,0,-55,26,-80c0,0,27,-26,82,-26c0,0,30,0,80,10V341c0,0,-61,-11,-111,-11c0,0,-100,0,-157,55c0,0,-58,55,-58,186V836H466c0,0,203,0,288,-91c0,0,85,-92,85,-293V-317Z" 
id="f0_y"
transform="scale(0.001,-0.001)" />

<path d="M180,0L66,836H203L258,443c0,0,36,1,64,6c0,0,28,6,49,18c0,0,20,12,35,26c0,0,15,13,26,36c0,0,11,24,17,44c0,0,7,20,12,55c0,0,6,34,9,60c0,0,3,26,8,71c0,0,4,45,9,77H610c0,0,-13,-194,-31,-271c0,0,-31,-127,-111,-179c0,0,-71,-45,-196,-50L304,107c0,0,73,0,130,5c0,0,56,6,111,21c0,0,54,15,94,40c0,0,40,25,77,64c0,0,37,39,63,94c0,0,25,54,46,128c0,0,21,73,34,166c0,0,13,94,20,211h138c0,0,-14,-124,-29,-218c0,0,-16,-94,-39,-179c0,0,-22,-85,-50,-146c0,0,-28,-61,-68,-112c0,0,-39,-51,-87,-84C744,97,696,65,632,42C632,42,568,19,492,10C492,10,417,0,320,0Z" 
id="f0_b"
transform="scale(0.001,-0.001)" />

<path d="M139,0V106H400c0,0,176,0,253,71c0,0,78,72,78,250c0,0,0,163,-80,233c0,0,-81,69,-250,69H278L277,564c0,0,-1,-54,26,-80c0,0,27,-25,82,-25c0,0,30,0,80,9V355c0,0,-61,-12,-111,-12c0,0,-100,0,-157,55c0,0,-58,55,-58,186V836H456c0,0,193,0,303,-109c0,0,110,-109,110,-309c0,0,0,-200,-110,-309C759,109,648,0,456,0Z" 
id="f0_c"
transform="scale(0.001,-0.001)" />

<path d="M376,50c0,0,103,0,149,80c0,0,46,81,46,240c0,0,0,137,-47,204c0,0,-48,67,-148,67c0,0,-44,0,-87,-7c0,0,-44,-8,-63,-17V62c0,0,63,-12,150,-12Zm3,-64c0,0,-64,0,-141,14c0,0,-78,14,-136,37v971L0,1026v34H226V809c0,0,0,-40,-4,-148c0,0,74,59,188,59c0,0,143,0,219,-87c0,0,77,-87,77,-263c0,0,0,-189,-84,-287c0,0,-84,-97,-243,-97Z" 
id="f1_h"
transform="scale(0.001,-0.001)" />

<path d="M112,-5c0,0,-39,0,-97,11V113c0,0,48,-10,77,-10c0,0,53,0,70,42c0,0,17,43,17,164V729H50V836H501c0,0,107,0,179,-25c0,0,72,-25,112,-77c0,0,40,-51,57,-118c0,0,16,-67,16,-164V0H726V454c0,0,0,55,-3,92c0,0,-4,37,-17,75c0,0,-14,38,-38,59c0,0,-24,22,-65,36c0,0,-42,13,-102,13H318V309c0,0,0,-160,-46,-237C272,72,226,-5,112,-5Z" 
id="f0_7"
transform="scale(0.001,-0.001)" />

<path d="M66,0V106H322c0,0,75,0,127,23c0,0,53,23,82,67c0,0,29,43,42,98c0,0,13,54,13,124c0,0,0,70,-13,124c0,0,-13,55,-42,98c0,0,-29,44,-82,67c0,0,-52,23,-127,23H66V836H322c0,0,87,0,157,-24c0,0,70,-24,115,-64c0,0,45,-40,74,-94c0,0,30,-55,43,-113c0,0,13,-59,13,-123c0,0,0,-64,-13,-123c0,0,-13,-58,-43,-113c0,0,-29,-54,-74,-94C594,88,549,48,479,24C479,24,409,0,322,0Z" 
id="f0_k"
transform="scale(0.001,-0.001)" />

<path d="M66,0V107H554V452c0,0,0,56,-4,93c0,0,-4,37,-18,75c0,0,-14,38,-40,60c0,0,-26,22,-71,36c0,0,-45,13,-110,13H66V836H312c0,0,91,0,157,-17c0,0,66,-17,109,-49c0,0,44,-32,69,-84c0,0,26,-52,36,-114c0,0,10,-62,10,-147V107H817V0Z" 
id="f0_a"
transform="scale(0.001,-0.001)" />

<path d="M152,0V473c0,0,0,94,28,161c0,0,29,66,71,95H66V836H463V729H404c0,0,-65,0,-89,-57c0,0,-25,-58,-25,-199V0Z" 
id="f0_r"
transform="scale(0.001,-0.001)" />

<path d="M139,0V138c0,0,0,61,8,112c0,0,7,52,19,87c0,0,11,36,30,66c0,0,19,31,35,49c0,0,17,19,41,35c0,0,25,17,41,25c0,0,17,7,40,17L141,836H303L613,388c0,0,20,10,33,18c0,0,13,8,34,28c0,0,20,20,33,44c0,0,13,25,22,66c0,0,10,41,10,92V836H882V698c0,0,0,-61,-7,-112c0,0,-6,-52,-18,-88c0,0,-12,-36,-30,-66c0,0,-19,-30,-36,-49c0,0,-17,-18,-41,-34c0,0,-24,-17,-40,-25c0,0,-17,-8,-41,-17L882,0H720L409,448c0,0,-21,-11,-34,-19c0,0,-13,-8,-34,-27c0,0,-21,-20,-34,-44c0,0,-12,-25,-22,-66c0,0,-9,-41,-9,-92V0Z" 
id="f0_8"
transform="scale(0.001,-0.001)" />

<path d="M522,-20c0,0,-196,0,-290,99c0,0,-94,100,-94,324V836H276V397c0,0,0,-86,16,-147c0,0,17,-60,50,-94c0,0,34,-34,77,-49c0,0,43,-15,103,-15c0,0,59,0,102,15c0,0,44,15,77,49c0,0,33,34,50,94c0,0,17,61,17,147c0,0,0,84,-8,143c0,0,-7,58,-25,105c0,0,-17,47,-51,69c0,0,-33,23,-83,23c0,0,-50,0,-119,-22V821c0,0,85,23,150,23c0,0,76,0,130,-30c0,0,53,-31,85,-90c0,0,31,-59,45,-138c0,0,13,-78,13,-183c0,0,0,-224,-93,-324c0,0,-94,-99,-290,-99Z" 
id="f0_z"
transform="scale(0.001,-0.001)" />

<path d="M35,0V34l84,18V649L35,668v33H235l7,-56c0,0,57,32,122,54c0,0,65,21,108,21c0,0,91,0,137,-53c0,0,47,-53,47,-154V52L741,34V0H439V34l93,18V500c0,0,0,62,-30,97c0,0,-31,36,-94,36c0,0,-67,0,-165,-22V52L338,34V0ZM481,834c0,0,-36,0,-66,16c0,0,-30,16,-57,36c0,0,-27,20,-52,36c0,0,-25,16,-49,16c0,0,-24,0,-39,-9c0,0,-14,-9,-23,-26c0,0,-8,-17,-13,-54H143c0,0,11,180,146,180c0,0,36,0,66,-16c0,0,30,-16,57,-35c0,0,27,-20,52,-36c0,0,25,-16,49,-16c0,0,32,0,50,18c0,0,18,19,25,70h39c0,0,-12,-180,-146,-180Z" 
id="f1_k"
transform="scale(0.001,-0.001)" />

<path d="M41,0V34L426,641H261c0,0,-42,0,-80,-7c0,0,-39,-7,-54,-19L104,515H69V701H586V665L201,60H407c0,0,42,0,89,10c0,0,47,10,66,25l39,147h35L617,0Z" 
id="f1_10"
transform="scale(0.001,-0.001)" />

<path d="M383,64c0,0,44,0,87,7c0,0,43,7,65,17V645c0,0,-67,13,-152,13c0,0,-194,0,-194,-309c0,0,0,-143,48,-214c0,0,47,-71,146,-71Zm56,-389v35l96,18V-77c0,0,0,73,7,124c0,0,-79,-61,-200,-61c0,0,-287,0,-287,362c0,0,0,180,81,276c0,0,81,96,237,96c0,0,84,0,166,-18l67,33h53V-272l77,-18v-35Z" 
id="f1_v"
transform="scale(0.001,-0.001)" />

<path d="M522,92c0,0,247,0,247,333c0,0,0,88,-17,146c0,0,-17,58,-53,91c0,0,-35,33,-82,46c0,0,-48,14,-116,14H276V419c0,0,0,-327,246,-327Zm0,-112c0,0,-193,0,-289,109c0,0,-95,110,-95,337V836H501c0,0,213,0,309,-93c0,0,96,-94,96,-317c0,0,0,-227,-95,-337C811,89,715,-20,522,-20Z" 
id="f0_v"
transform="scale(0.001,-0.001)" />

<path d="M64,-325c0,0,-46,0,-107,14v148H-8l19,-81c0,0,25,-21,62,-21c0,0,44,0,67,47c0,0,22,47,22,152V649L57,668v33H286V-28c0,0,0,-146,-57,-221c0,0,-56,-76,-165,-76ZM213,850c0,0,-34,0,-58,24c0,0,-24,24,-24,56c0,0,0,34,24,58c0,0,24,24,58,24c0,0,32,0,56,-24c0,0,24,-24,24,-58c0,0,0,-32,-24,-56c0,0,-24,-24,-56,-24Z" 
id="f1_u"
transform="scale(0.001,-0.001)" />

<path d="M0,-141L388,1114H514L127,-141Z" 
id="f0_10"
transform="scale(0.001,-0.001)" />

<path d="M284,67c0,0,51,0,88,12c0,0,37,11,74,29V357l-98,-3c0,0,-100,-3,-135,-38c0,0,-35,-36,-35,-118c0,0,0,-131,106,-131ZM233,-14c0,0,-179,0,-179,208c0,0,0,70,27,116c0,0,27,46,87,70c0,0,60,24,173,27l105,3V519c0,0,0,73,-26,107c0,0,-27,34,-82,34c0,0,-75,0,-137,-35L176,538H134V691c0,0,121,26,213,26c0,0,115,0,169,-47c0,0,54,-47,54,-144V52L657,34V0H465L451,70c0,0,-85,-84,-218,-84Zm22,849v24l146,203H560v-27L296,835Z" 
id="f1_p"
transform="scale(0.001,-0.001)" />

<path d="M495,0V729H66V836H781V729H634V0Z" 
id="f0_f"
transform="scale(0.001,-0.001)" />

<path d="M442,0V33l93,19V504c0,0,0,129,-124,129c0,0,-70,0,-168,-22V52L338,33V0H31V33l88,19v956L15,1026v34H243V756c0,0,0,-77,-5,-112c0,0,54,31,122,53c0,0,68,23,115,23c0,0,91,0,137,-53c0,0,47,-53,47,-154V52L744,33V0Z" 
id="f1_11"
transform="scale(0.001,-0.001)" />

<path d="M460,-325c0,0,-148,79,-231,172c0,0,-84,93,-123,217c0,0,-39,126,-39,304c0,0,0,178,39,303c0,0,39,125,122,217c0,0,82,93,232,172V997c0,0,-91,-52,-145,-134c0,0,-54,-81,-79,-190c0,0,-25,-109,-25,-305c0,0,0,-194,26,-309c0,0,26,-114,82,-193c0,0,56,-79,141,-128v-63Z" 
id="f1_w"
transform="scale(0.001,-0.001)" />

<path d="M64,0V34L168,59V639H47v36l121,29v49c0,0,0,155,61,239c0,0,62,84,173,84c0,0,58,0,107,-15V908H472l-33,92c0,0,-26,16,-62,16c0,0,-47,0,-66,-42c0,0,-19,-42,-19,-157V701H478V639H292V59L443,34V0Z" 
id="f1_c"
transform="scale(0.001,-0.001)" />

<path d="M49,-325v63c0,0,85,49,140,128c0,0,56,79,83,194c0,0,26,115,26,308c0,0,0,196,-25,305c0,0,-25,109,-79,190c0,0,-54,82,-145,134v63c0,0,149,-80,232,-172c0,0,83,-92,122,-217c0,0,39,-125,39,-303c0,0,0,-177,-39,-303c0,0,-39,-125,-122,-217c0,0,-83,-93,-232,-173Z" 
id="f1_x"
transform="scale(0.001,-0.001)" />

<path d="M32,0V34L151,52V649L52,668v33H275V52L395,34V0Zm71,835v24l146,203H408v-27L144,835Z" 
id="f1_12"
transform="scale(0.001,-0.001)" />

<path d="M147,700v414H274V700Z" 
id="f0_19"
transform="scale(0.001,-0.001)" />

<path d="M347,-317V284c0,0,0,59,-21,123c0,0,-21,64,-44,103c0,0,-23,40,-59,94L66,838H218L336,668c0,0,76,-109,120,-223c0,0,87,34,126,107c0,0,39,73,39,186v98H758V737c0,0,0,-82,-23,-152c0,0,-23,-69,-61,-116c0,0,-39,-47,-87,-78c0,0,-47,-31,-101,-45V-317Z" 
id="f0_14"
transform="scale(0.001,-0.001)" />

<path d="M0,-14L351,1007h73L75,-14Z" 
id="f1_n"
transform="scale(0.001,-0.001)" />

<path d="M543,-317V369c0,0,0,85,-8,143c0,0,-8,58,-27,101c0,0,-18,44,-51,69c0,0,-33,24,-80,36c0,0,-48,11,-117,11H66V836H257c0,0,125,0,205,-23c0,0,80,-23,130,-79c0,0,50,-56,70,-143c0,0,20,-86,20,-222V-317Z" 
id="f0_l"
transform="scale(0.001,-0.001)" />

<path d="M44,0V40L172,60V941L44,960v40H471V960L316,941V65H513c0,0,159,0,234,14l46,208h48L828,0Z" 
id="f1_15"
transform="scale(0.001,-0.001)" />

<path d="M495,413c0,0,0,133,-34,190c0,0,-34,57,-105,57c0,0,-78,0,-119,-62c0,0,-42,-63,-42,-185ZM374,-14c0,0,-163,0,-239,87c0,0,-75,88,-75,283c0,0,0,183,77,274c0,0,76,90,219,90c0,0,269,0,269,-306V353H194V339c0,0,0,-103,23,-160c0,0,22,-57,70,-86c0,0,47,-30,124,-30c0,0,40,0,96,6c0,0,55,7,91,15V43C598,43,562,19,500,2c0,0,-61,-16,-126,-16ZM285,835v24l146,203H590v-27L326,835Z" 
id="f1_14"
transform="scale(0.001,-0.001)" />

<path d="M354,-200c0,0,-112,175,-167,343c0,0,-56,170,-56,337c0,0,0,166,55,335c0,0,55,169,168,345H473c0,0,-100,-172,-148,-340c0,0,-48,-168,-48,-340c0,0,0,-173,48,-342c0,0,49,-168,148,-338Z" 
id="f0_o"
transform="scale(0.001,-0.001)" />

<path d="M122,-200c0,0,99,170,148,338c0,0,49,169,49,342c0,0,0,172,-49,340c0,0,-49,168,-148,340H241c0,0,112,-176,168,-345c0,0,55,-169,55,-335c0,0,0,-167,-55,-337c0,0,-56,-168,-168,-343Z" 
id="f0_e"
transform="scale(0.001,-0.001)" />

<path d="M148,-329c0,0,-58,0,-114,13v151H69l24,-71c0,0,23,-17,64,-17c0,0,39,0,72,22c0,0,33,23,60,67c0,0,27,44,68,157L90,649L19,668v33H344V668L233,648L423,158L606,649L497,668v33H758V668L685,652L411,-43c0,0,-48,-124,-84,-177c0,0,-36,-54,-79,-82c0,0,-44,-27,-100,-27Z" 
id="f1_16"
transform="scale(0.001,-0.001)" />

<path d="M433,-329v111H545V-329Zm-93,185V-32H452V-144Zm186,0V-32H638V-144Z" 
id="f0_12"
transform="scale(0.001,-0.001)" />

<path d="M339,-241v111H451V-241Zm187,0v111H638V-241Z" 
id="f0_1c"
transform="scale(0.001,-0.001)" />

<path d="M190,0V127H436V977L168,923v137l267,54H586V127H832V0Z" 
id="f0_s"
transform="scale(0.001,-0.001)" />


</defs>
</svg>