<?xml version="1.0" encoding="UTF-8" standalone="no"?>
<!DOCTYPE svg PUBLIC "-//W3C//DTD SVG 1.1//EN"
"http://www.w3.org/Graphics/SVG/1.1/DTD/svg11.dtd">
<svg viewBox="0 0 909 1286" version="1.1" xmlns="http://www.w3.org/2000/svg" xmlns:xlink="http://www.w3.org/1999/xlink">
<defs>
<clipPath id="c0_22"><path d="M0,1286.2V0H909.4V1286.2Z" /></clipPath>
<style type="text/css"><![CDATA[
.g0_22{
fill: none;
stroke: #000000;
stroke-width: 0.7638889;
stroke-linecap: butt;
stroke-linejoin: round;
}
.g1_22{
fill: none;
stroke: #0000FF;
stroke-width: 1.0694444;
stroke-linecap: butt;
stroke-linejoin: miter;
}
]]></style>
</defs>
<path d="M200.4,110.4h572m-572,20.1h572m-572,20.1h572m-572,20.1h572m-572,20h572m-572,20.2h572m-572,20h572m-572,20.2h572m-572,20h572m-572,20.2h572M200.7,110V291.7M772,110V291.7" class="g0_22" />
<g clip-path="url(#c0_22)">
<g fill="#000000" >
<use xlink:href="#f0_5" transform="matrix(11,0,0,11,209.5,126.5)" />
<use xlink:href="#f0_2" transform="matrix(11,0,0,11,216.9,126.5)" />
<use xlink:href="#f0_a" transform="matrix(11,0,0,11,224.4,126.5)" />
<use xlink:href="#f0_m" transform="matrix(11,0,0,11,232.8,126.5)" />
<use xlink:href="#f0_3" transform="matrix(11,0,0,11,240.1,126.5)" />
<use xlink:href="#f0_m" transform="matrix(11,0,0,11,372.2,126.5)" />
<use xlink:href="#f0_l" transform="matrix(11,0,0,11,379.6,126.5)" />
<use xlink:href="#f0_p" transform="matrix(11,0,0,11,384.2,126.5)" />
<use xlink:href="#f0_8" transform="matrix(11,0,0,11,397.3,126.5)" />
<use xlink:href="#f0_3" transform="matrix(11,0,0,11,405.7,126.5)" />
<use xlink:href="#f0_9" transform="matrix(11,0,0,11,411.4,126.5)" />
<use xlink:href="#f0_m" transform="matrix(11,0,0,11,418.8,126.5)" />
<use xlink:href="#f0_3" transform="matrix(11,0,0,11,426.2,126.5)" />
<use xlink:href="#f1_l" transform="matrix(11,0,0,11,534.9,126.5)" />
<use xlink:href="#f1_k" transform="matrix(11,0,0,11,542.3,126.5)" />
<use xlink:href="#f1_12" transform="matrix(11,0,0,11,550.7,126.5)" />
<use xlink:href="#f1_p" transform="matrix(11,0,0,11,564.8,126.5)" />
<use xlink:href="#f1_o" transform="matrix(11,0,0,11,572.1,126.5)" />
<use xlink:href="#f0_e" transform="matrix(11,0,0,11,661.7,126.5)" />
<use xlink:href="#f0_2" transform="matrix(11,0,0,11,670.1,126.5)" />
<use xlink:href="#f0_g" transform="matrix(11,0,0,11,677.5,126.5)" />
<use xlink:href="#f0_m" transform="matrix(11,0,0,11,684.1,126.5)" />
<use xlink:href="#f0_7" transform="matrix(11,0,0,11,691.6,126.5)" />
<use xlink:href="#f0_f" transform="matrix(11,0,0,11,700,126.5)" />
<use xlink:href="#f0_a" transform="matrix(11,0,0,11,708.4,126.5)" />
<use xlink:href="#f0_m" transform="matrix(11,0,0,11,716.8,126.5)" />
<use xlink:href="#f0_3" transform="matrix(11,0,0,11,724.1,126.5)" />
<use xlink:href="#f0_m" transform="matrix(11,0,0,11,209.5,146.5)" />
<use xlink:href="#f0_a" transform="matrix(11,0,0,11,216.9,146.5)" />
<use xlink:href="#f0_m" transform="matrix(11,0,0,11,225.3,146.5)" />
<use xlink:href="#f0_3" transform="matrix(11,0,0,11,232.8,146.5)" />
<use xlink:href="#f0_m" transform="matrix(11,0,0,11,238.3,146.5)" />
<use xlink:href="#f0_a" transform="matrix(11,0,0,11,245.7,146.5)" />
<use xlink:href="#f0_1b" transform="matrix(11,0,0,11,254.1,146.5)" />
<use xlink:href="#f0_m" transform="matrix(11,0,0,11,258.9,146.5)" />
<use xlink:href="#f0_e" transform="matrix(11,0,0,11,266.3,146.5)" />
<use xlink:href="#f0_8" transform="matrix(11,0,0,11,274.7,146.5)" />
<use xlink:href="#f1_11" transform="matrix(11,0,0,11,372.2,146.5)" />
<use xlink:href="#f1_q" transform="matrix(11,0,0,11,381.5,146.5)" />
<use xlink:href="#f1_o" transform="matrix(11,0,0,11,389.9,146.5)" />
<use xlink:href="#f1_q" transform="matrix(11,0,0,11,397.4,146.5)" />
<use xlink:href="#f1_11" transform="matrix(11,0,0,11,405.8,146.5)" />
<use xlink:href="#f1_24" transform="matrix(11,0,0,11,415.1,146.5)" />
<use xlink:href="#f1_q" transform="matrix(11,0,0,11,420.7,146.5)" />
<use xlink:href="#f0_u" transform="matrix(11,0,0,11,534.9,146.5)" />
<use xlink:href="#f0_l" transform="matrix(11,0,0,11,543.3,146.5)" />
<use xlink:href="#f0_m" transform="matrix(11,0,0,11,548,146.5)" />
<use xlink:href="#f0_h" transform="matrix(11,0,0,11,555.3,146.5)" />
<use xlink:href="#f0_2" transform="matrix(11,0,0,11,560,146.5)" />
<use xlink:href="#f0_m" transform="matrix(11,0,0,11,567.5,146.5)" />
<use xlink:href="#f0_e" transform="matrix(11,0,0,11,575,146.5)" />
<use xlink:href="#f0_8" transform="matrix(11,0,0,11,583.4,146.5)" />
<use xlink:href="#f0_e" transform="matrix(11,0,0,11,661.7,146.5)" />
<use xlink:href="#f0_8" transform="matrix(11,0,0,11,670.1,146.5)" />
<use xlink:href="#f0_3" transform="matrix(11,0,0,11,678.5,146.5)" />
<use xlink:href="#f0_m" transform="matrix(11,0,0,11,684.1,146.5)" />
<use xlink:href="#f0_e" transform="matrix(11,0,0,11,691.6,146.5)" />
<use xlink:href="#f0_8" transform="matrix(11,0,0,11,700,146.5)" />
<use xlink:href="#f0_8" transform="matrix(11,0,0,11,209.5,166.7)" />
<use xlink:href="#f0_5" transform="matrix(11,0,0,11,217.9,166.7)" />
<use xlink:href="#f0_k" transform="matrix(11,0,0,11,225.3,166.7)" />
<use xlink:href="#f0_m" transform="matrix(11,0,0,11,232.8,166.7)" />
<use xlink:href="#f0_a" transform="matrix(11,0,0,11,240.2,166.7)" />
<use xlink:href="#f0_8" transform="matrix(11,0,0,11,248.6,166.7)" />
<use xlink:href="#f0_p" transform="matrix(11,0,0,11,372.2,166.7)" />
<use xlink:href="#f0_m" transform="matrix(11,0,0,11,385.3,166.7)" />
<use xlink:href="#f0_3" transform="matrix(11,0,0,11,392.6,166.7)" />
<use xlink:href="#f0_5" transform="matrix(11,0,0,11,534.9,166.7)" />
<use xlink:href="#f0_8" transform="matrix(11,0,0,11,542.3,166.7)" />
<use xlink:href="#f0_g" transform="matrix(11,0,0,11,550.7,166.7)" />
<use xlink:href="#f0_h" transform="matrix(11,0,0,11,557.3,166.7)" />
<use xlink:href="#f0_m" transform="matrix(11,0,0,11,561.9,166.7)" />
<use xlink:href="#f1_12" transform="matrix(11,0,0,11,661.7,166.7)" />
<use xlink:href="#f1_k" transform="matrix(11,0,0,11,675.7,166.7)" />
<use xlink:href="#f1_1n" transform="matrix(11,0,0,11,684.1,166.7)" />
<use xlink:href="#f1_q" transform="matrix(11,0,0,11,693.4,166.7)" />
<use xlink:href="#f0_2" transform="matrix(11,0,0,11,209.5,186.7)" />
<use xlink:href="#f0_l" transform="matrix(11,0,0,11,216.9,186.7)" />
<use xlink:href="#f0_2" transform="matrix(11,0,0,11,221.6,186.7)" />
<use xlink:href="#f0_w" transform="matrix(11,0,0,11,229.1,186.7)" />
<use xlink:href="#f0_m" transform="matrix(11,0,0,11,237.4,186.7)" />
<use xlink:href="#f0_a" transform="matrix(11,0,0,11,244.8,186.7)" />
<use xlink:href="#f0_h" transform="matrix(11,0,0,11,253.2,186.7)" />
<use xlink:href="#f0_2" transform="matrix(11,0,0,11,257.9,186.7)" />
<use xlink:href="#f0_5" transform="matrix(11,0,0,11,372.2,186.7)" />
<use xlink:href="#f0_f" transform="matrix(11,0,0,11,379.6,186.7)" />
<use xlink:href="#f0_3" transform="matrix(11,0,0,11,388,186.7)" />
<use xlink:href="#f0_4" transform="matrix(11,0,0,11,393.5,186.7)" />
<use xlink:href="#f0_8" transform="matrix(11,0,0,11,398.2,186.7)" />
<use xlink:href="#f0_g" transform="matrix(11,0,0,11,406.7,186.7)" />
<use xlink:href="#f0_8" transform="matrix(11,0,0,11,413.2,186.7)" />
<use xlink:href="#f0_2" transform="matrix(11,0,0,11,534.9,186.7)" />
<use xlink:href="#f0_a" transform="matrix(11,0,0,11,542.3,186.7)" />
<use xlink:href="#f0_t" transform="matrix(11,0,0,11,550.7,186.7)" />
<use xlink:href="#f0_2" transform="matrix(11,0,0,11,556.4,186.7)" />
<use xlink:href="#f0_3" transform="matrix(11,0,0,11,563.7,186.7)" />
<use xlink:href="#f0_p" transform="matrix(11,0,0,11,569.3,186.7)" />
<use xlink:href="#f0_8" transform="matrix(11,0,0,11,582.5,186.7)" />
<use xlink:href="#f1_12" transform="matrix(11,0,0,11,661.7,186.7)" />
<use xlink:href="#f1_14" transform="matrix(11,0,0,11,675.7,186.7)" />
<use xlink:href="#f1_1l" transform="matrix(11,0,0,11,685,186.7)" />
<use xlink:href="#f1_p" transform="matrix(11,0,0,11,691.6,186.7)" />
<use xlink:href="#f1_k" transform="matrix(11,0,0,11,699.1,186.7)" />
<use xlink:href="#f0_5" transform="matrix(11,0,0,11,209.5,206.9)" />
<use xlink:href="#f0_8" transform="matrix(11,0,0,11,216.9,206.9)" />
<use xlink:href="#f0_g" transform="matrix(11,0,0,11,225.3,206.9)" />
<use xlink:href="#f0_h" transform="matrix(11,0,0,11,231.9,206.9)" />
<use xlink:href="#f0_f" transform="matrix(11,0,0,11,236.6,206.9)" />
<use xlink:href="#f0_p" transform="matrix(11,0,0,11,244.9,206.9)" />
<use xlink:href="#f0_v" transform="matrix(11,0,0,11,258,206.9)" />
<use xlink:href="#f0_3" transform="matrix(11,0,0,11,266.4,206.9)" />
<use xlink:href="#f0_2" transform="matrix(11,0,0,11,272,206.9)" />
<use xlink:href="#f1_1n" transform="matrix(11,0,0,11,372.2,206.9)" />
<use xlink:href="#f1_p" transform="matrix(11,0,0,11,381.5,206.9)" />
<use xlink:href="#f1_1l" transform="matrix(11,0,0,11,389,206.9)" />
<use xlink:href="#f1_n" transform="matrix(11,0,0,11,395.5,206.9)" />
<use xlink:href="#f1_p" transform="matrix(11,0,0,11,400.2,206.9)" />
<use xlink:href="#f1_o" transform="matrix(11,0,0,11,407.6,206.9)" />
<use xlink:href="#f1_s" transform="matrix(11,0,0,11,415,206.9)" />
<use xlink:href="#f1_k" transform="matrix(11,0,0,11,420.7,206.9)" />
<use xlink:href="#f0_5" transform="matrix(11,0,0,11,534.9,206.9)" />
<use xlink:href="#f0_m" transform="matrix(11,0,0,11,542.3,206.9)" />
<use xlink:href="#f0_l" transform="matrix(11,0,0,11,549.8,206.9)" />
<use xlink:href="#f0_8" transform="matrix(11,0,0,11,554.5,206.9)" />
<use xlink:href="#f0_3" transform="matrix(11,0,0,11,562.8,206.9)" />
<use xlink:href="#f0_g" transform="matrix(11,0,0,11,661.7,206.9)" />
<use xlink:href="#f0_2" transform="matrix(11,0,0,11,668.2,206.9)" />
<use xlink:href="#f0_e" transform="matrix(11,0,0,11,675.7,206.9)" />
<use xlink:href="#f0_8" transform="matrix(11,0,0,11,209.5,226.9)" />
<use xlink:href="#f0_g" transform="matrix(11,0,0,11,217.9,226.9)" />
<use xlink:href="#f0_5" transform="matrix(11,0,0,11,224.4,226.9)" />
<use xlink:href="#f0_f" transform="matrix(11,0,0,11,231.9,226.9)" />
<use xlink:href="#f0_3" transform="matrix(11,0,0,11,240.3,226.9)" />
<use xlink:href="#f0_8" transform="matrix(11,0,0,11,245.9,226.9)" />
<use xlink:href="#f0_5" transform="matrix(11,0,0,11,372.2,226.9)" />
<use xlink:href="#f0_l" transform="matrix(11,0,0,11,379.6,226.9)" />
<use xlink:href="#f0_m" transform="matrix(11,0,0,11,384.4,226.9)" />
<use xlink:href="#f0_3" transform="matrix(11,0,0,11,391.7,226.9)" />
<use xlink:href="#f0_8" transform="matrix(11,0,0,11,397.3,226.9)" />
<use xlink:href="#f1_1n" transform="matrix(11,0,0,11,534.9,226.9)" />
<use xlink:href="#f1_k" transform="matrix(11,0,0,11,544.2,226.9)" />
<use xlink:href="#f1_o" transform="matrix(11,0,0,11,552.6,226.9)" />
<use xlink:href="#f1_12" transform="matrix(11,0,0,11,560.1,226.9)" />
<use xlink:href="#f1_n" transform="matrix(11,0,0,11,574.1,226.9)" />
<use xlink:href="#f1_1n" transform="matrix(11,0,0,11,578.8,226.9)" />
<use xlink:href="#f1_k" transform="matrix(11,0,0,11,588.1,226.9)" />
<use xlink:href="#f0_5" transform="matrix(11,0,0,11,209.5,247)" />
<use xlink:href="#f0_8" transform="matrix(11,0,0,11,216.9,247)" />
<use xlink:href="#f0_p" transform="matrix(11,0,0,11,225.3,247)" />
<use xlink:href="#f0_u" transform="matrix(11,0,0,11,238.4,247)" />
<use xlink:href="#f0_3" transform="matrix(11,0,0,11,246.7,247)" />
<use xlink:href="#f0_m" transform="matrix(11,0,0,11,252.3,247)" />
<use xlink:href="#f0_8" transform="matrix(11,0,0,11,372.2,247)" />
<use xlink:href="#f0_t" transform="matrix(11,0,0,11,380.6,247)" />
<use xlink:href="#f0_2" transform="matrix(11,0,0,11,386.2,247)" />
<use xlink:href="#f0_3" transform="matrix(11,0,0,11,393.5,247)" />
<use xlink:href="#f0_h" transform="matrix(11,0,0,11,399.2,247)" />
<use xlink:href="#f0_m" transform="matrix(11,0,0,11,403.9,247)" />
<use xlink:href="#f1_l" transform="matrix(11,0,0,11,534.9,247)" />
<use xlink:href="#f1_p" transform="matrix(11,0,0,11,542.3,247)" />
<use xlink:href="#f1_13" transform="matrix(11,0,0,11,549.8,247)" />
<use xlink:href="#f1_p" transform="matrix(11,0,0,11,554.4,247)" />
<use xlink:href="#f1_1l" transform="matrix(11,0,0,11,561.8,247)" />
<use xlink:href="#f1_s" transform="matrix(11,0,0,11,568.4,247)" />
<use xlink:href="#f1_p" transform="matrix(11,0,0,11,574,247)" />
<use xlink:href="#f0_2" transform="matrix(11,0,0,11,209.5,267.1)" />
<use xlink:href="#f0_l" transform="matrix(11,0,0,11,216.9,267.1)" />
<use xlink:href="#f0_2" transform="matrix(11,0,0,11,221.6,267.1)" />
<use xlink:href="#f0_w" transform="matrix(11,0,0,11,229.1,267.1)" />
<use xlink:href="#f0_4" transform="matrix(11,0,0,11,237.4,267.1)" />
<use xlink:href="#f0_3" transform="matrix(11,0,0,11,242.1,267.1)" />
<use xlink:href="#f0_2" transform="matrix(11,0,0,11,372.2,267.1)" />
<use xlink:href="#f0_g" transform="matrix(11,0,0,11,379.6,267.1)" />
<use xlink:href="#f0_5" transform="matrix(11,0,0,11,386.2,267.1)" />
<use xlink:href="#f0_8" transform="matrix(11,0,0,11,393.6,267.1)" />
<use xlink:href="#f0_w" transform="matrix(11,0,0,11,402,267.1)" />
<use xlink:href="#f0_2" transform="matrix(11,0,0,11,410.4,267.1)" />
<use xlink:href="#f0_3" transform="matrix(11,0,0,11,417.8,267.1)" />
<use xlink:href="#f1_l" transform="matrix(11,0,0,11,534.9,267.1)" />
<use xlink:href="#f1_k" transform="matrix(11,0,0,11,542.3,267.1)" />
<use xlink:href="#f1_w" transform="matrix(11,0,0,11,550.7,267.1)" />
<use xlink:href="#f1_p" transform="matrix(11,0,0,11,559.1,267.1)" />
<use xlink:href="#f1_o" transform="matrix(11,0,0,11,566.6,267.1)" />
<use xlink:href="#f1_q" transform="matrix(11,0,0,11,209.5,287.2)" />
<use xlink:href="#f1_13" transform="matrix(11,0,0,11,217.9,287.2)" />
<use xlink:href="#f1_12" transform="matrix(11,0,0,11,222.6,287.2)" />
<use xlink:href="#f1_k" transform="matrix(11,0,0,11,236.6,287.2)" />
<use xlink:href="#f1_1h" transform="matrix(11,0,0,11,245,287.2)" />
<use xlink:href="#f1_q" transform="matrix(11,0,0,11,254.3,287.2)" />
<use xlink:href="#f1_1n" transform="matrix(11,0,0,11,262.7,287.2)" />
<use xlink:href="#f1_q" transform="matrix(11,0,0,11,272.1,287.2)" />
<use xlink:href="#f0_4" transform="matrix(11,0,0,11,372.2,287.2)" />
<use xlink:href="#f0_a" transform="matrix(11,0,0,11,376.9,287.2)" />
<use xlink:href="#f0_h" transform="matrix(11,0,0,11,385.1,287.2)" />
<use xlink:href="#f0_2" transform="matrix(11,0,0,11,389.9,287.2)" />
<use xlink:href="#f0_3" transform="matrix(11,0,0,11,397.3,287.2)" />
<use xlink:href="#f0_k" transform="matrix(11,0,0,11,403,287.2)" />
<use xlink:href="#f0_g" transform="matrix(11,0,0,11,410.4,287.2)" />
<use xlink:href="#f0_w" transform="matrix(11,0,0,11,534.9,287.2)" />
<use xlink:href="#f0_m" transform="matrix(11,0,0,11,543.3,287.2)" />
<use xlink:href="#f0_a" transform="matrix(11,0,0,11,550.7,287.2)" />
<use xlink:href="#f0_m" transform="matrix(11,0,0,11,559.1,287.2)" />
</g>
<g fill="#0000FF" >
<use xlink:href="#f2_p" transform="matrix(12,0,0,12,669.9,328)" />
<use xlink:href="#f2_a" transform="matrix(12,0,0,12,682.9,328)" />
<use xlink:href="#f2_m" transform="matrix(12,0,0,12,693.1,328)" />
<use xlink:href="#f2_3" transform="matrix(12,0,0,12,704.6,328)" />
<use xlink:href="#f2_9" transform="matrix(12,0,0,12,720.9,328)" />
<use xlink:href="#f2_a" transform="matrix(12,0,0,12,732.8,328)" />
<use xlink:href="#f2_o" transform="matrix(12,0,0,12,743.2,328)" />
<use xlink:href="#f2_g" transform="matrix(12,0,0,12,749.6,328)" />
<use xlink:href="#f2_f" transform="matrix(12,0,0,12,761.5,328)" />
</g>
</g>
<path d="M664,329.8H772.1" class="g1_22" />
<g clip-path="url(#c0_22)">
<g fill="#000000" >
<use xlink:href="#f3_n" transform="matrix(12,0,0,12,723.8,388.1)" />
<use xlink:href="#f3_d" transform="matrix(12,0,0,12,735,388.1)" />
<use xlink:href="#f3_o" transform="matrix(12,0,0,12,740.3,388.1)" />
<use xlink:href="#f3_4" transform="matrix(12,0,0,12,748.6,388.1)" />
<use xlink:href="#f3_p" transform="matrix(12,0,0,12,759.6,388.1)" />
<use xlink:href="#f3_q" transform="matrix(12,0,0,12,691.8,388.1)" />
<use xlink:href="#f3_t" transform="matrix(12,0,0,12,704.5,388.1)" />
</g>
</g>
<path d="M128.6,392.7H780.8M128.6,414.9H780.8M128.6,437H780.8M128.6,459.2H780.8M128.6,481.3H780.8M128.6,503.5H780.8M128.6,525.6H780.8M128.9,392.3V526M454.7,392.3V526M780.4,392.3V526" class="g0_22" />
<g clip-path="url(#c0_22)">
<g fill="#000000" >
<use xlink:href="#f0_y" transform="matrix(11,0,0,11,137.7,408.8)" />
<use xlink:href="#f0_8" transform="matrix(11,0,0,11,149.7,408.8)" />
<use xlink:href="#f0_h" transform="matrix(11,0,0,11,162.4,408.8)" />
<use xlink:href="#f0_3" transform="matrix(11,0,0,11,167.1,408.8)" />
<use xlink:href="#f0_m" transform="matrix(11,0,0,11,172.6,408.8)" />
<use xlink:href="#f0_v" transform="matrix(11,0,0,11,180.1,408.8)" />
<use xlink:href="#f0_m" transform="matrix(11,0,0,11,188.5,408.8)" />
<use xlink:href="#f0_1b" transform="matrix(11,0,0,11,195.9,408.8)" />
<use xlink:href="#f0_8" transform="matrix(11,0,0,11,200.6,408.8)" />
<use xlink:href="#f0_e" transform="matrix(11,0,0,11,213.2,408.8)" />
<use xlink:href="#f0_2" transform="matrix(11,0,0,11,221.6,408.8)" />
<use xlink:href="#f0_g" transform="matrix(11,0,0,11,229,408.8)" />
<use xlink:href="#f0_e" transform="matrix(11,0,0,11,235.6,408.8)" />
<use xlink:href="#f0_2" transform="matrix(11,0,0,11,244,408.8)" />
<use xlink:href="#f0_l" transform="matrix(11,0,0,11,255.6,408.8)" />
<use xlink:href="#f0_m" transform="matrix(11,0,0,11,260.3,408.8)" />
<use xlink:href="#f0_f" transform="matrix(11,0,0,11,271.9,408.8)" />
<use xlink:href="#f0_a" transform="matrix(11,0,0,11,280.3,408.8)" />
<use xlink:href="#f0_m" transform="matrix(11,0,0,11,288.7,408.8)" />
<use xlink:href="#f0_x" transform="matrix(11,0,0,11,300.2,408.8)" />
<use xlink:href="#f0_m" transform="matrix(11,0,0,11,308.6,408.8)" />
<use xlink:href="#f0_g" transform="matrix(11,0,0,11,316.1,408.8)" />
<use xlink:href="#f0_h" transform="matrix(11,0,0,11,322.7,408.8)" />
<use xlink:href="#f0_m" transform="matrix(11,0,0,11,327.4,408.8)" />
<use xlink:href="#f0_l" transform="matrix(11,0,0,11,339,408.8)" />
<use xlink:href="#f0_m" transform="matrix(11,0,0,11,343.7,408.8)" />
<use xlink:href="#f0_g" transform="matrix(11,0,0,11,351,408.8)" />
<use xlink:href="#f0_5" transform="matrix(11,0,0,11,361.8,408.8)" />
<use xlink:href="#f0_4" transform="matrix(11,0,0,11,369.2,408.8)" />
<use xlink:href="#f0_a" transform="matrix(11,0,0,11,373.9,408.8)" />
<use xlink:href="#f0_5" transform="matrix(11,0,0,11,382.3,408.8)" />
<use xlink:href="#f0_8" transform="matrix(11,0,0,11,389.8,408.8)" />
<use xlink:href="#f0_o" transform="matrix(11,0,0,11,398.2,408.8)" />
<use xlink:href="#f2_j" transform="matrix(12,0,0,12,574.6,410.2)" />
<use xlink:href="#f2_4" transform="matrix(12,0,0,12,580.4,410.2)" />
<use xlink:href="#f2_8" transform="matrix(12,0,0,12,593.4,410.2)" />
<use xlink:href="#f2_g" transform="matrix(12,0,0,12,605.9,410.2)" />
<use xlink:href="#f2_q" transform="matrix(12,0,0,12,623.6,410.2)" />
<use xlink:href="#f2_l" transform="matrix(12,0,0,12,633.6,410.2)" />
<use xlink:href="#f2_e" transform="matrix(12,0,0,12,651,410.2)" />
<use xlink:href="#f2_g" transform="matrix(12,0,0,12,663,410.2)" />
<use xlink:href="#f2_d" transform="matrix(12,0,0,12,674.9,410.2)" />
<use xlink:href="#f2_8" transform="matrix(12,0,0,12,687.1,410.2)" />
<use xlink:href="#f2_q" transform="matrix(12,0,0,12,705.5,410.2)" />
<use xlink:href="#f2_f" transform="matrix(12,0,0,12,715.5,410.2)" />
<use xlink:href="#f2_c" transform="matrix(12,0,0,12,726.1,410.2)" />
<use xlink:href="#f2_l" transform="matrix(12,0,0,12,731,410.2)" />
<use xlink:href="#f2_7" transform="matrix(12,0,0,12,748.4,410.2)" />
<use xlink:href="#f2_n" transform="matrix(12,0,0,12,752.5,410.2)" />
<use xlink:href="#f2_d" transform="matrix(12,0,0,12,759.8,410.2)" />
<use xlink:href="#f0_13" transform="matrix(11,0,0,11,137.7,431)" />
<use xlink:href="#f0_2" transform="matrix(11,0,0,11,149.7,431)" />
<use xlink:href="#f0_g" transform="matrix(11,0,0,11,157.2,431)" />
<use xlink:href="#f0_e" transform="matrix(11,0,0,11,163.7,431)" />
<use xlink:href="#f0_2" transform="matrix(11,0,0,11,172.1,431)" />
<use xlink:href="#f0_5" transform="matrix(11,0,0,11,183.9,431)" />
<use xlink:href="#f0_f" transform="matrix(11,0,0,11,191.3,431)" />
<use xlink:href="#f0_16" transform="matrix(11,0,0,11,199.6,431)" />
<use xlink:href="#f0_a" transform="matrix(11,0,0,11,207,431)" />
<use xlink:href="#f0_e" transform="matrix(11,0,0,11,215.4,431)" />
<use xlink:href="#f0_8" transform="matrix(11,0,0,11,223.8,431)" />
<use xlink:href="#f0_2" transform="matrix(11,0,0,11,236.5,431)" />
<use xlink:href="#f0_g" transform="matrix(11,0,0,11,244,431)" />
<use xlink:href="#f0_h" transform="matrix(11,0,0,11,250.4,431)" />
<use xlink:href="#f0_16" transform="matrix(11,0,0,11,255.1,431)" />
<use xlink:href="#f0_g" transform="matrix(11,0,0,11,262.6,431)" />
<use xlink:href="#f0_2" transform="matrix(11,0,0,11,273.3,431)" />
<use xlink:href="#f0_a" transform="matrix(11,0,0,11,280.7,431)" />
<use xlink:href="#f0_b" transform="matrix(11,0,0,11,293.4,431)" />
<use xlink:href="#f0_g" transform="matrix(11,0,0,11,298.9,431)" />
<use xlink:href="#f0_3" transform="matrix(11,0,0,11,305.4,431)" />
<use xlink:href="#f0_m" transform="matrix(11,0,0,11,311.1,431)" />
<use xlink:href="#f0_2" transform="matrix(11,0,0,11,318.4,431)" />
<use xlink:href="#f0_l" transform="matrix(11,0,0,11,325.9,431)" />
<use xlink:href="#f0_17" transform="matrix(11,0,0,11,330.6,431)" />
<use xlink:href="#f2_1k" transform="matrix(12,0,0,12,563.9,432.4)" />
<use xlink:href="#f2_3" transform="matrix(12,0,0,12,573.7,432.4)" />
<use xlink:href="#f2_d" transform="matrix(12,0,0,12,584.1,432.4)" />
<use xlink:href="#f2_a" transform="matrix(12,0,0,12,596.3,432.4)" />
<use xlink:href="#f2_4" transform="matrix(12,0,0,12,606.7,432.4)" />
<use xlink:href="#f2_7" transform="matrix(12,0,0,12,619.6,432.4)" />
<use xlink:href="#f2_f" transform="matrix(12,0,0,12,623.7,432.4)" />
<use xlink:href="#f2_d" transform="matrix(12,0,0,12,640.2,432.4)" />
<use xlink:href="#f2_b" transform="matrix(12,0,0,12,652.5,432.4)" />
<use xlink:href="#f2_8" transform="matrix(12,0,0,12,663.3,432.4)" />
<use xlink:href="#f2_n" transform="matrix(12,0,0,12,675.7,432.4)" />
<use xlink:href="#f2_9" transform="matrix(12,0,0,12,689,432.4)" />
<use xlink:href="#f2_e" transform="matrix(12,0,0,12,700.9,432.4)" />
<use xlink:href="#f2_d" transform="matrix(12,0,0,12,712.9,432.4)" />
<use xlink:href="#f2_7" transform="matrix(12,0,0,12,731,432.4)" />
<use xlink:href="#f2_e" transform="matrix(12,0,0,12,735.1,432.4)" />
<use xlink:href="#f2_8" transform="matrix(12,0,0,12,747,432.4)" />
<use xlink:href="#f2_8" transform="matrix(12,0,0,12,759.5,432.4)" />
<use xlink:href="#f0_d" transform="matrix(11,0,0,11,137.7,453.1)" />
<use xlink:href="#f0_g" transform="matrix(11,0,0,11,147.9,453.1)" />
<use xlink:href="#f0_h" transform="matrix(11,0,0,11,154.4,453.1)" />
<use xlink:href="#f0_8" transform="matrix(11,0,0,11,159.2,453.1)" />
<use xlink:href="#f0_7" transform="matrix(11,0,0,11,167.6,453.1)" />
<use xlink:href="#f0_2" transform="matrix(11,0,0,11,180.1,453.1)" />
<use xlink:href="#f0_a" transform="matrix(11,0,0,11,187.5,453.1)" />
<use xlink:href="#f0_b" transform="matrix(11,0,0,11,200.2,453.1)" />
<use xlink:href="#f0_g" transform="matrix(11,0,0,11,205.7,453.1)" />
<use xlink:href="#f0_3" transform="matrix(11,0,0,11,212.3,453.1)" />
<use xlink:href="#f0_m" transform="matrix(11,0,0,11,217.9,453.1)" />
<use xlink:href="#f0_2" transform="matrix(11,0,0,11,225.4,453.1)" />
<use xlink:href="#f0_l" transform="matrix(11,0,0,11,232.7,453.1)" />
<use xlink:href="#f0_e" transform="matrix(11,0,0,11,241.7,453.1)" />
<use xlink:href="#f0_2" transform="matrix(11,0,0,11,249.9,453.1)" />
<use xlink:href="#f0_g" transform="matrix(11,0,0,11,257.4,453.1)" />
<use xlink:href="#f0_e" transform="matrix(11,0,0,11,263.9,453.1)" />
<use xlink:href="#f0_2" transform="matrix(11,0,0,11,272.3,453.1)" />
<use xlink:href="#f0_x" transform="matrix(11,0,0,11,284.1,453.1)" />
<use xlink:href="#f0_m" transform="matrix(11,0,0,11,292.3,453.1)" />
<use xlink:href="#f0_5" transform="matrix(11,0,0,11,299.8,453.1)" />
<use xlink:href="#f0_2" transform="matrix(11,0,0,11,307.3,453.1)" />
<use xlink:href="#f0_5" transform="matrix(11,0,0,11,319,453.1)" />
<use xlink:href="#f0_f" transform="matrix(11,0,0,11,326.3,453.1)" />
<use xlink:href="#f0_m" transform="matrix(11,0,0,11,334.7,453.1)" />
<use xlink:href="#f0_h" transform="matrix(11,0,0,11,342.2,453.1)" />
<use xlink:href="#f0_3" transform="matrix(11,0,0,11,346.9,453.1)" />
<use xlink:href="#f0_8" transform="matrix(11,0,0,11,352.5,453.1)" />
<use xlink:href="#f0_m" transform="matrix(11,0,0,11,365,453.1)" />
<use xlink:href="#f0_1e" transform="matrix(11,0,0,11,372.5,453.1)" />
<use xlink:href="#f0_8" transform="matrix(11,0,0,11,380.9,453.1)" />
<use xlink:href="#f0_g" transform="matrix(11,0,0,11,389.3,453.1)" />
<use xlink:href="#f0_o" transform="matrix(11,0,0,11,395.7,453.1)" />
<use xlink:href="#f2_j" transform="matrix(12,0,0,12,546.5,454.5)" />
<use xlink:href="#f2_6" transform="matrix(12,0,0,12,552.3,454.5)" />
<use xlink:href="#f2_7" transform="matrix(12,0,0,12,564.5,454.5)" />
<use xlink:href="#f2_n" transform="matrix(12,0,0,12,568.5,454.5)" />
<use xlink:href="#f2_4" transform="matrix(12,0,0,12,575.8,454.5)" />
<use xlink:href="#f2_l" transform="matrix(12,0,0,12,594.8,454.5)" />
<use xlink:href="#f2_f" transform="matrix(12,0,0,12,606.2,454.5)" />
<use xlink:href="#f2_a" transform="matrix(12,0,0,12,616.8,454.5)" />
<use xlink:href="#f2_d" transform="matrix(12,0,0,12,627.1,454.5)" />
<use xlink:href="#f2_9" transform="matrix(12,0,0,12,645.2,454.5)" />
<use xlink:href="#f2_o" transform="matrix(12,0,0,12,657.1,454.5)" />
<use xlink:href="#f2_8" transform="matrix(12,0,0,12,663.5,454.5)" />
<use xlink:href="#f2_3" transform="matrix(12,0,0,12,681.8,454.5)" />
<use xlink:href="#f2_d" transform="matrix(12,0,0,12,692.2,454.5)" />
<use xlink:href="#f2_a" transform="matrix(12,0,0,12,704.4,454.5)" />
<use xlink:href="#f2_4" transform="matrix(12,0,0,12,714.8,454.5)" />
<use xlink:href="#f2_7" transform="matrix(12,0,0,12,727.8,454.5)" />
<use xlink:href="#f2_f" transform="matrix(12,0,0,12,731.9,454.5)" />
<use xlink:href="#f2_7" transform="matrix(12,0,0,12,748.4,454.5)" />
<use xlink:href="#f2_n" transform="matrix(12,0,0,12,752.5,454.5)" />
<use xlink:href="#f2_d" transform="matrix(12,0,0,12,759.8,454.5)" />
<use xlink:href="#f0_1w" transform="matrix(11,0,0,11,137.7,475.3)" />
<use xlink:href="#f0_f" transform="matrix(11,0,0,11,149.7,475.3)" />
<use xlink:href="#f0_k" transform="matrix(11,0,0,11,158.1,475.3)" />
<use xlink:href="#f0_x" transform="matrix(11,0,0,11,169.9,475.3)" />
<use xlink:href="#f0_8" transform="matrix(11,0,0,11,178.3,475.3)" />
<use xlink:href="#f0_3" transform="matrix(11,0,0,11,186.7,475.3)" />
<use xlink:href="#f0_m" transform="matrix(11,0,0,11,192.3,475.3)" />
<use xlink:href="#f0_2" transform="matrix(11,0,0,11,203.9,475.3)" />
<use xlink:href="#f0_g" transform="matrix(11,0,0,11,211.3,475.3)" />
<use xlink:href="#f0_17" transform="matrix(11,0,0,11,217.9,475.3)" />
<use xlink:href="#f2_1k" transform="matrix(12,0,0,12,683.8,476.7)" />
<use xlink:href="#f2_9" transform="matrix(12,0,0,12,693.6,476.7)" />
<use xlink:href="#f2_l" transform="matrix(12,0,0,12,705.5,476.7)" />
<use xlink:href="#f2_4" transform="matrix(12,0,0,12,717,476.7)" />
<use xlink:href="#f2_9" transform="matrix(12,0,0,12,729.9,476.7)" />
<use xlink:href="#f2_9" transform="matrix(12,0,0,12,747.7,476.7)" />
<use xlink:href="#f2_8" transform="matrix(12,0,0,12,759.6,476.7)" />
<use xlink:href="#f0_18" transform="matrix(11,0,0,11,137.7,497.4)" />
<use xlink:href="#f0_8" transform="matrix(11,0,0,11,147,497.4)" />
<use xlink:href="#f0_a" transform="matrix(11,0,0,11,155.4,497.4)" />
<use xlink:href="#f0_l" transform="matrix(11,0,0,11,168.1,497.4)" />
<use xlink:href="#f0_m" transform="matrix(11,0,0,11,172.6,497.4)" />
<use xlink:href="#f0_g" transform="matrix(11,0,0,11,180.1,497.4)" />
<use xlink:href="#f0_5" transform="matrix(11,0,0,11,190.9,497.4)" />
<use xlink:href="#f0_f" transform="matrix(11,0,0,11,198.4,497.4)" />
<use xlink:href="#f0_m" transform="matrix(11,0,0,11,206.6,497.4)" />
<use xlink:href="#f0_h" transform="matrix(11,0,0,11,214.1,497.4)" />
<use xlink:href="#f0_3" transform="matrix(11,0,0,11,218.8,497.4)" />
<use xlink:href="#f0_8" transform="matrix(11,0,0,11,224.5,497.4)" />
<use xlink:href="#f0_e" transform="matrix(11,0,0,11,237,497.4)" />
<use xlink:href="#f0_2" transform="matrix(11,0,0,11,245.4,497.4)" />
<use xlink:href="#f0_l" transform="matrix(11,0,0,11,257,497.4)" />
<use xlink:href="#f0_m" transform="matrix(11,0,0,11,261.7,497.4)" />
<use xlink:href="#f0_h" transform="matrix(11,0,0,11,273.3,497.4)" />
<use xlink:href="#f0_m" transform="matrix(11,0,0,11,278,497.4)" />
<use xlink:href="#f0_3" transform="matrix(11,0,0,11,285.3,497.4)" />
<use xlink:href="#f0_e" transform="matrix(11,0,0,11,290.9,497.4)" />
<use xlink:href="#f0_2" transform="matrix(11,0,0,11,299.3,497.4)" />
<use xlink:href="#f0_o" transform="matrix(11,0,0,11,306.8,497.4)" />
<use xlink:href="#f2_j" transform="matrix(12,0,0,12,597.4,498.8)" />
<use xlink:href="#f2_6" transform="matrix(12,0,0,12,603.2,498.8)" />
<use xlink:href="#f2_7" transform="matrix(12,0,0,12,615.4,498.8)" />
<use xlink:href="#f2_7" transform="matrix(12,0,0,12,619.5,498.8)" />
<use xlink:href="#f2_a" transform="matrix(12,0,0,12,623.6,498.8)" />
<use xlink:href="#f2_9" transform="matrix(12,0,0,12,634,498.8)" />
<use xlink:href="#f2_b" transform="matrix(12,0,0,12,645.9,498.8)" />
<use xlink:href="#f2_f" transform="matrix(12,0,0,12,656.7,498.8)" />
<use xlink:href="#f2_l" transform="matrix(12,0,0,12,673.2,498.8)" />
<use xlink:href="#f2_f" transform="matrix(12,0,0,12,684.7,498.8)" />
<use xlink:href="#f2_a" transform="matrix(12,0,0,12,695.2,498.8)" />
<use xlink:href="#f2_d" transform="matrix(12,0,0,12,705.6,498.8)" />
<use xlink:href="#f2_9" transform="matrix(12,0,0,12,723.8,498.8)" />
<use xlink:href="#f2_l" transform="matrix(12,0,0,12,735.7,498.8)" />
<use xlink:href="#f2_4" transform="matrix(12,0,0,12,747.1,498.8)" />
<use xlink:href="#f2_9" transform="matrix(12,0,0,12,760.1,498.8)" />
<use xlink:href="#f0_d" transform="matrix(11,0,0,11,137.7,519.6)" />
<use xlink:href="#f0_g" transform="matrix(11,0,0,11,147.9,519.6)" />
<use xlink:href="#f0_l" transform="matrix(11,0,0,11,158.7,519.6)" />
<use xlink:href="#f0_m" transform="matrix(11,0,0,11,163.3,519.6)" />
<use xlink:href="#f0_f" transform="matrix(11,0,0,11,175,519.6)" />
<use xlink:href="#f0_a" transform="matrix(11,0,0,11,183.4,519.6)" />
<use xlink:href="#f0_m" transform="matrix(11,0,0,11,191.8,519.6)" />
<use xlink:href="#f0_p" transform="matrix(11,0,0,11,203.4,519.6)" />
<use xlink:href="#f0_2" transform="matrix(11,0,0,11,216.5,519.6)" />
<use xlink:href="#f0_a" transform="matrix(11,0,0,11,223.9,519.6)" />
<use xlink:href="#f0_8" transform="matrix(11,0,0,11,232.3,519.6)" />
<use xlink:href="#f0_g" transform="matrix(11,0,0,11,240.7,519.6)" />
<use xlink:href="#f0_5" transform="matrix(11,0,0,11,251.5,519.6)" />
<use xlink:href="#f0_f" transform="matrix(11,0,0,11,259,519.6)" />
<use xlink:href="#f0_m" transform="matrix(11,0,0,11,267.2,519.6)" />
<use xlink:href="#f0_3" transform="matrix(11,0,0,11,274.7,519.6)" />
<use xlink:href="#f0_h" transform="matrix(11,0,0,11,280.3,519.6)" />
<use xlink:href="#f0_8" transform="matrix(11,0,0,11,285,519.6)" />
<use xlink:href="#f0_o" transform="matrix(11,0,0,11,293.3,519.6)" />
<use xlink:href="#f2_j" transform="matrix(12,0,0,12,627.2,521)" />
<use xlink:href="#f2_e" transform="matrix(12,0,0,12,633,521)" />
<use xlink:href="#f2_g" transform="matrix(12,0,0,12,645,521)" />
<use xlink:href="#f2_d" transform="matrix(12,0,0,12,656.9,521)" />
<use xlink:href="#f2_3" transform="matrix(12,0,0,12,669.2,521)" />
<use xlink:href="#f2_l" transform="matrix(12,0,0,12,685.5,521)" />
<use xlink:href="#f2_f" transform="matrix(12,0,0,12,696.9,521)" />
<use xlink:href="#f2_a" transform="matrix(12,0,0,12,707.5,521)" />
<use xlink:href="#f2_9" transform="matrix(12,0,0,12,723.8,521)" />
<use xlink:href="#f2_l" transform="matrix(12,0,0,12,735.7,521)" />
<use xlink:href="#f2_4" transform="matrix(12,0,0,12,747.2,521)" />
<use xlink:href="#f2_9" transform="matrix(12,0,0,12,760.2,521)" />
</g>
<g fill="#0000FF" >
<use xlink:href="#f2_p" transform="matrix(12,0,0,12,669.9,562.4)" />
<use xlink:href="#f2_a" transform="matrix(12,0,0,12,682.9,562.4)" />
<use xlink:href="#f2_m" transform="matrix(12,0,0,12,693.1,562.4)" />
<use xlink:href="#f2_3" transform="matrix(12,0,0,12,704.6,562.4)" />
<use xlink:href="#f2_9" transform="matrix(12,0,0,12,720.9,562.4)" />
<use xlink:href="#f2_a" transform="matrix(12,0,0,12,732.8,562.4)" />
<use xlink:href="#f2_o" transform="matrix(12,0,0,12,743.2,562.4)" />
<use xlink:href="#f2_g" transform="matrix(12,0,0,12,749.6,562.4)" />
<use xlink:href="#f2_f" transform="matrix(12,0,0,12,761.5,562.4)" />
</g>
</g>
<path d="M669.8,564.2H772.1" class="g1_22" />
<g clip-path="url(#c0_22)">
<g fill="#000000" >
<use xlink:href="#f3_n" transform="matrix(12,0,0,12,723.8,622.4)" />
<use xlink:href="#f3_d" transform="matrix(12,0,0,12,735,622.4)" />
<use xlink:href="#f3_o" transform="matrix(12,0,0,12,740.3,622.4)" />
<use xlink:href="#f3_4" transform="matrix(12,0,0,12,748.6,622.4)" />
<use xlink:href="#f3_p" transform="matrix(12,0,0,12,759.6,622.4)" />
<use xlink:href="#f3_q" transform="matrix(12,0,0,12,691.8,622.4)" />
<use xlink:href="#f3_z" transform="matrix(12,0,0,12,704.5,622.4)" />
</g>
</g>
<path d="M128.6,627.2H491M128.6,649.4H491M128.6,671.5H491M128.6,693.7H491M128.6,715.8H491m-362.1,-89v89.4M334.7,626.8v89.4M490.6,626.8v89.4" class="g0_22" />
<g clip-path="url(#c0_22)">
<g fill="#000000" >
<use xlink:href="#f4_g" transform="matrix(12,0,0,12,468.7,644.6)" />
<use xlink:href="#f4_h" transform="matrix(12,0,0,12,403.9,644.6)" />
<use xlink:href="#f4_a" transform="matrix(12,0,0,12,414.3,644.6)" />
<use xlink:href="#f4_i" transform="matrix(12,0,0,12,418.4,644.6)" />
<use xlink:href="#f4_j" transform="matrix(12,0,0,12,428.8,644.6)" />
<use xlink:href="#f4_9" transform="matrix(12,0,0,12,440.3,644.6)" />
<use xlink:href="#f4_4" transform="matrix(12,0,0,12,452.5,644.6)" />
<use xlink:href="#f5_9" transform="matrix(11,0,0,11,137.7,643.2)" />
<use xlink:href="#f5_g" transform="matrix(11,0,0,11,146.1,643.2)" />
<use xlink:href="#f5_6" transform="matrix(11,0,0,11,153.5,643.2)" />
<use xlink:href="#f5_5" transform="matrix(11,0,0,11,161,643.2)" />
<use xlink:href="#f2_18" transform="matrix(12,0,0,12,470.6,666.7)" />
<use xlink:href="#f2_3" transform="matrix(12,0,0,12,405.8,666.7)" />
<use xlink:href="#f2_7" transform="matrix(12,0,0,12,416.2,666.7)" />
<use xlink:href="#f2_a" transform="matrix(12,0,0,12,420.3,666.7)" />
<use xlink:href="#f2_m" transform="matrix(12,0,0,12,430.7,666.7)" />
<use xlink:href="#f2_d" transform="matrix(12,0,0,12,442.1,666.7)" />
<use xlink:href="#f2_f" transform="matrix(12,0,0,12,454.3,666.7)" />
<use xlink:href="#f0_p" transform="matrix(11,0,0,11,137.7,665.3)" />
<use xlink:href="#f0_m" transform="matrix(11,0,0,11,150.8,665.3)" />
<use xlink:href="#f0_1e" transform="matrix(11,0,0,11,158.2,665.3)" />
<use xlink:href="#f0_m" transform="matrix(11,0,0,11,166.6,665.3)" />
<use xlink:href="#f0_a" transform="matrix(11,0,0,11,174.1,665.3)" />
<use xlink:href="#f0_m" transform="matrix(11,0,0,11,182.4,665.3)" />
<use xlink:href="#f2_14" transform="matrix(12,0,0,12,470.6,688.9)" />
<use xlink:href="#f2_3" transform="matrix(12,0,0,12,405.8,688.9)" />
<use xlink:href="#f2_7" transform="matrix(12,0,0,12,416.2,688.9)" />
<use xlink:href="#f2_a" transform="matrix(12,0,0,12,420.3,688.9)" />
<use xlink:href="#f2_m" transform="matrix(12,0,0,12,430.7,688.9)" />
<use xlink:href="#f2_d" transform="matrix(12,0,0,12,442.1,688.9)" />
<use xlink:href="#f2_f" transform="matrix(12,0,0,12,454.3,688.9)" />
<use xlink:href="#f0_m" transform="matrix(11,0,0,11,137.7,687.5)" />
<use xlink:href="#f0_a" transform="matrix(11,0,0,11,145.1,687.5)" />
<use xlink:href="#f0_h" transform="matrix(11,0,0,11,153.5,687.5)" />
<use xlink:href="#f0_2" transform="matrix(11,0,0,11,158.2,687.5)" />
<use xlink:href="#f0_m" transform="matrix(11,0,0,11,165.6,687.5)" />
<use xlink:href="#f0_7" transform="matrix(11,0,0,11,173,687.5)" />
<use xlink:href="#f0_2" transform="matrix(11,0,0,11,181.4,687.5)" />
<use xlink:href="#f0_3" transform="matrix(11,0,0,11,188.9,687.5)" />
<use xlink:href="#f2_19" transform="matrix(12,0,0,12,470.6,711)" />
<use xlink:href="#f2_3" transform="matrix(12,0,0,12,405.8,711)" />
<use xlink:href="#f2_7" transform="matrix(12,0,0,12,416.2,711)" />
<use xlink:href="#f2_a" transform="matrix(12,0,0,12,420.3,711)" />
<use xlink:href="#f2_m" transform="matrix(12,0,0,12,430.7,711)" />
<use xlink:href="#f2_d" transform="matrix(12,0,0,12,442.1,711)" />
<use xlink:href="#f2_f" transform="matrix(12,0,0,12,454.3,711)" />
<use xlink:href="#f0_u" transform="matrix(11,0,0,11,137.7,709.7)" />
<use xlink:href="#f0_m" transform="matrix(11,0,0,11,146.1,709.7)" />
<use xlink:href="#f0_g" transform="matrix(11,0,0,11,153.5,709.7)" />
<use xlink:href="#f0_m" transform="matrix(11,0,0,11,160.1,709.7)" />
<use xlink:href="#f0_e" transform="matrix(11,0,0,11,167.5,709.7)" />
<use xlink:href="#f0_8" transform="matrix(11,0,0,11,175.9,709.7)" />
<use xlink:href="#f0_p" transform="matrix(11,0,0,11,188.5,709.7)" />
<use xlink:href="#f0_m" transform="matrix(11,0,0,11,201.6,709.7)" />
<use xlink:href="#f0_1e" transform="matrix(11,0,0,11,209,709.7)" />
<use xlink:href="#f0_m" transform="matrix(11,0,0,11,217.4,709.7)" />
<use xlink:href="#f0_a" transform="matrix(11,0,0,11,224.9,709.7)" />
<use xlink:href="#f0_m" transform="matrix(11,0,0,11,233.2,709.7)" />
</g>
<g fill="#0000FF" >
<use xlink:href="#f2_p" transform="matrix(12,0,0,12,669.9,752.6)" />
<use xlink:href="#f2_a" transform="matrix(12,0,0,12,682.9,752.6)" />
<use xlink:href="#f2_m" transform="matrix(12,0,0,12,693.1,752.6)" />
<use xlink:href="#f2_3" transform="matrix(12,0,0,12,704.6,752.6)" />
<use xlink:href="#f2_9" transform="matrix(12,0,0,12,720.9,752.6)" />
<use xlink:href="#f2_a" transform="matrix(12,0,0,12,732.8,752.6)" />
<use xlink:href="#f2_o" transform="matrix(12,0,0,12,743.2,752.6)" />
<use xlink:href="#f2_g" transform="matrix(12,0,0,12,749.6,752.6)" />
<use xlink:href="#f2_f" transform="matrix(12,0,0,12,761.5,752.6)" />
</g>
</g>
<path d="M669.8,754.4H772.1" class="g1_22" />
<g clip-path="url(#c0_22)">
<g fill="#000000" >
<use xlink:href="#f3_n" transform="matrix(12,0,0,12,723.8,812.6)" />
<use xlink:href="#f3_d" transform="matrix(12,0,0,12,735,812.6)" />
<use xlink:href="#f3_o" transform="matrix(12,0,0,12,740.3,812.6)" />
<use xlink:href="#f3_4" transform="matrix(12,0,0,12,748.6,812.6)" />
<use xlink:href="#f3_p" transform="matrix(12,0,0,12,759.6,812.6)" />
<use xlink:href="#f3_q" transform="matrix(12,0,0,12,691.8,812.6)" />
<use xlink:href="#f3_6" transform="matrix(12,0,0,12,704.5,812.6)" />
</g>
</g>
<path d="M128.9,817.3H325m323.6,0H816.1M128.9,839.4H325m323.6,0H816.1M128.9,861.6H325m323.6,0H816.1M128.9,915.8H325m323.6,0H816.1M128.9,938H325m323.6,0H816.1M128.9,960.1H325m323.6,0H816.1M128.9,982.3H325m323.6,0H816.1m-687.2,22.1H325m323.6,0H816.1m-167.5,22.2H816.1m-167.5,22.1H816.1m-167.5,22.2H816.1m-167.5,54.2H816.1m-167.5,22.2H816.1M129.2,816.9v187.9M259.3,816.9v187.9M324.7,816.9v187.9M649,816.9v330.8M779,816.9v330.8M815.7,816.9v330.8" class="g0_22" />
<g clip-path="url(#c0_22)">
<g fill="#000000" >
<use xlink:href="#f2_17" transform="matrix(12,0,0,12,795.7,834.8)" />
<use xlink:href="#f0_m" transform="matrix(11,0,0,11,657.4,833.4)" />
<use xlink:href="#f0_v" transform="matrix(11,0,0,11,664.9,833.4)" />
<use xlink:href="#f0_3" transform="matrix(11,0,0,11,673.3,833.4)" />
<use xlink:href="#f0_4" transform="matrix(11,0,0,11,678.8,833.4)" />
<use xlink:href="#f0_l" transform="matrix(11,0,0,11,683.5,833.4)" />
<use xlink:href="#f0_1x" transform="matrix(11,0,0,11,267.7,833.4)" />
<use xlink:href="#f0_e" transform="matrix(11,0,0,11,137.7,833.4)" />
<use xlink:href="#f0_8" transform="matrix(11,0,0,11,146.1,833.4)" />
<use xlink:href="#f0_p" transform="matrix(11,0,0,11,154.5,833.4)" />
<use xlink:href="#f0_4" transform="matrix(11,0,0,11,167.4,833.4)" />
<use xlink:href="#f0_a" transform="matrix(11,0,0,11,172.2,833.4)" />
<use xlink:href="#f0_w" transform="matrix(11,0,0,11,180.6,833.4)" />
<use xlink:href="#f0_8" transform="matrix(11,0,0,11,189,833.4)" />
<use xlink:href="#f2_1b" transform="matrix(12,0,0,12,795.7,856.9)" />
<use xlink:href="#f0_m" transform="matrix(11,0,0,11,657.4,855.6)" />
<use xlink:href="#f0_w" transform="matrix(11,0,0,11,664.9,855.6)" />
<use xlink:href="#f0_8" transform="matrix(11,0,0,11,673.3,855.6)" />
<use xlink:href="#f0_g" transform="matrix(11,0,0,11,681.7,855.6)" />
<use xlink:href="#f0_h" transform="matrix(11,0,0,11,688.2,855.6)" />
<use xlink:href="#f0_8" transform="matrix(11,0,0,11,692.9,855.6)" />
<use xlink:href="#f0_1y" transform="matrix(11,0,0,11,267.7,855.6)" />
<use xlink:href="#f0_1b" transform="matrix(11,0,0,11,137.7,855.6)" />
<use xlink:href="#f0_f" transform="matrix(11,0,0,11,142.4,855.6)" />
<use xlink:href="#f0_2" transform="matrix(11,0,0,11,150.8,855.6)" />
<use xlink:href="#f0_s" transform="matrix(11,0,0,11,158.2,855.6)" />
<use xlink:href="#f0_2" transform="matrix(11,0,0,11,166.6,855.6)" />
<use xlink:href="#f0_g" transform="matrix(11,0,0,11,174,855.6)" />
<use xlink:href="#f2_13" transform="matrix(12,0,0,12,795.7,879.1)" />
<use xlink:href="#f2_14" transform="matrix(12,0,0,12,795.7,911.2)" />
<use xlink:href="#f0_e" transform="matrix(11,0,0,11,657.4,877.7)" />
<use xlink:href="#f0_4" transform="matrix(11,0,0,11,665.8,877.7)" />
<use xlink:href="#f0_5" transform="matrix(11,0,0,11,670.5,877.7)" />
<use xlink:href="#f0_4" transform="matrix(11,0,0,11,677.9,877.7)" />
<use xlink:href="#f0_2" transform="matrix(11,0,0,11,682.6,877.7)" />
<use xlink:href="#f0_p" transform="matrix(11,0,0,11,690,877.7)" />
<use xlink:href="#f0_v" transform="matrix(11,0,0,11,703.2,877.7)" />
<use xlink:href="#f0_3" transform="matrix(11,0,0,11,711.4,877.7)" />
<use xlink:href="#f0_2" transform="matrix(11,0,0,11,717,877.7)" />
<use xlink:href="#f0_1z" transform="matrix(11,0,0,11,267.7,877.7)" />
<use xlink:href="#f0_l" transform="matrix(11,0,0,11,137.7,877.7)" />
<use xlink:href="#f0_f" transform="matrix(11,0,0,11,142.4,877.7)" />
<use xlink:href="#f0_a" transform="matrix(11,0,0,11,150.8,877.7)" />
<use xlink:href="#f0_2" transform="matrix(11,0,0,11,159.2,877.7)" />
<use xlink:href="#f0_g" transform="matrix(11,0,0,11,166.6,877.7)" />
<use xlink:href="#f2_13" transform="matrix(12,0,0,12,795.7,933.3)" />
<use xlink:href="#f0_2" transform="matrix(11,0,0,11,657.4,931.9)" />
<use xlink:href="#f0_a" transform="matrix(11,0,0,11,664.9,931.9)" />
<use xlink:href="#f0_2" transform="matrix(11,0,0,11,673.3,931.9)" />
<use xlink:href="#f0_3" transform="matrix(11,0,0,11,680.7,931.9)" />
<use xlink:href="#f0_8" transform="matrix(11,0,0,11,686.4,931.9)" />
<use xlink:href="#f0_20" transform="matrix(11,0,0,11,267.7,931.9)" />
<use xlink:href="#f0_p" transform="matrix(11,0,0,11,137.7,931.9)" />
<use xlink:href="#f0_m" transform="matrix(11,0,0,11,150.8,931.9)" />
<use xlink:href="#f0_3" transform="matrix(11,0,0,11,158.1,931.9)" />
<use xlink:href="#f0_h" transform="matrix(11,0,0,11,163.7,931.9)" />
<use xlink:href="#f0_2" transform="matrix(11,0,0,11,168.5,931.9)" />
<use xlink:href="#f0_g" transform="matrix(11,0,0,11,175.9,931.9)" />
<use xlink:href="#f2_14" transform="matrix(12,0,0,12,795.7,955.5)" />
<use xlink:href="#f0_t" transform="matrix(11,0,0,11,657.4,954.1)" />
<use xlink:href="#f0_2" transform="matrix(11,0,0,11,663,954.1)" />
<use xlink:href="#f0_v" transform="matrix(11,0,0,11,670.5,954.1)" />
<use xlink:href="#f0_3" transform="matrix(11,0,0,11,678.7,954.1)" />
<use xlink:href="#f0_2" transform="matrix(11,0,0,11,684.4,954.1)" />
<use xlink:href="#f0_3" transform="matrix(11,0,0,11,691.8,954.1)" />
<use xlink:href="#f0_8" transform="matrix(11,0,0,11,697.5,954.1)" />
<use xlink:href="#f0_21" transform="matrix(11,0,0,11,267.7,954.1)" />
<use xlink:href="#f0_p" transform="matrix(11,0,0,11,137.7,954.1)" />
<use xlink:href="#f0_4" transform="matrix(11,0,0,11,150.8,954.1)" />
<use xlink:href="#f0_k" transform="matrix(11,0,0,11,155.4,954.1)" />
<use xlink:href="#f0_3" transform="matrix(11,0,0,11,162.8,954.1)" />
<use xlink:href="#f0_5" transform="matrix(11,0,0,11,168.5,954.1)" />
<use xlink:href="#f0_8" transform="matrix(11,0,0,11,175.9,954.1)" />
<use xlink:href="#f0_l" transform="matrix(11,0,0,11,184.2,954.1)" />
<use xlink:href="#f0_2" transform="matrix(11,0,0,11,188.9,954.1)" />
<use xlink:href="#f0_g" transform="matrix(11,0,0,11,196.4,954.1)" />
<use xlink:href="#f2_1a" transform="matrix(12,0,0,12,795.7,977.6)" />
<use xlink:href="#f0_1b" transform="matrix(11,0,0,11,657.4,976.3)" />
<use xlink:href="#f0_f" transform="matrix(11,0,0,11,662.1,976.3)" />
<use xlink:href="#f0_l" transform="matrix(11,0,0,11,670.4,976.3)" />
<use xlink:href="#f0_4" transform="matrix(11,0,0,11,675.1,976.3)" />
<use xlink:href="#f0_8" transform="matrix(11,0,0,11,679.8,976.3)" />
<use xlink:href="#f0_22" transform="matrix(11,0,0,11,267.7,976.3)" />
<use xlink:href="#f0_g" transform="matrix(11,0,0,11,137.7,976.3)" />
<use xlink:href="#f0_16" transform="matrix(11,0,0,11,144.2,976.3)" />
<use xlink:href="#f0_v" transform="matrix(11,0,0,11,151.7,976.3)" />
<use xlink:href="#f0_m" transform="matrix(11,0,0,11,160.1,976.3)" />
<use xlink:href="#f0_e" transform="matrix(11,0,0,11,167.5,976.3)" />
<use xlink:href="#f0_8" transform="matrix(11,0,0,11,175.9,976.3)" />
<use xlink:href="#f2_19" transform="matrix(12,0,0,12,795.7,999.8)" />
<use xlink:href="#f0_1b" transform="matrix(11,0,0,11,657.4,998.4)" />
<use xlink:href="#f0_f" transform="matrix(11,0,0,11,662.1,998.4)" />
<use xlink:href="#f0_a" transform="matrix(11,0,0,11,670.5,998.4)" />
<use xlink:href="#f0_4" transform="matrix(11,0,0,11,678.8,998.4)" />
<use xlink:href="#f0_8" transform="matrix(11,0,0,11,683.5,998.4)" />
<use xlink:href="#f0_23" transform="matrix(11,0,0,11,267.7,998.4)" />
<use xlink:href="#f0_s" transform="matrix(11,0,0,11,137.7,998.4)" />
<use xlink:href="#f0_4" transform="matrix(11,0,0,11,146.1,998.4)" />
<use xlink:href="#f0_2" transform="matrix(11,0,0,11,150.8,998.4)" />
<use xlink:href="#f0_3" transform="matrix(11,0,0,11,158.1,998.4)" />
<use xlink:href="#f0_a" transform="matrix(11,0,0,11,163.7,998.4)" />
<use xlink:href="#f0_2" transform="matrix(11,0,0,11,172.1,998.4)" />
<use xlink:href="#f0_g" transform="matrix(11,0,0,11,179.6,998.4)" />
<use xlink:href="#f2_16" transform="matrix(12,0,0,12,795.7,1021.9)" />
<use xlink:href="#f0_p" transform="matrix(11,0,0,11,657.4,1020.6)" />
<use xlink:href="#f0_m" transform="matrix(11,0,0,11,670.5,1020.6)" />
<use xlink:href="#f0_3" transform="matrix(11,0,0,11,677.9,1020.6)" />
<use xlink:href="#f0_9" transform="matrix(11,0,0,11,683.5,1020.6)" />
<use xlink:href="#f0_8" transform="matrix(11,0,0,11,690.9,1020.6)" />
<use xlink:href="#f2_18" transform="matrix(12,0,0,12,795.7,1044.1)" />
<use xlink:href="#f0_p" transform="matrix(11,0,0,11,657.4,1042.7)" />
<use xlink:href="#f0_m" transform="matrix(11,0,0,11,670.5,1042.7)" />
<use xlink:href="#f0_7" transform="matrix(11,0,0,11,678,1042.7)" />
<use xlink:href="#f0_8" transform="matrix(11,0,0,11,686.4,1042.7)" />
<use xlink:href="#f2_1d" transform="matrix(12,0,0,12,795.7,1066.2)" />
<use xlink:href="#f0_g" transform="matrix(11,0,0,11,657.4,1064.9)" />
<use xlink:href="#f0_2" transform="matrix(11,0,0,11,664,1064.9)" />
<use xlink:href="#f0_u" transform="matrix(11,0,0,11,671.4,1064.9)" />
<use xlink:href="#f0_h" transform="matrix(11,0,0,11,679.8,1064.9)" />
<use xlink:href="#f0_4" transform="matrix(11,0,0,11,684.4,1064.9)" />
<use xlink:href="#f0_2" transform="matrix(11,0,0,11,689.1,1064.9)" />
<use xlink:href="#f0_p" transform="matrix(11,0,0,11,696.6,1064.9)" />
<use xlink:href="#f0_v" transform="matrix(11,0,0,11,709.7,1064.9)" />
<use xlink:href="#f0_3" transform="matrix(11,0,0,11,718,1064.9)" />
<use xlink:href="#f0_2" transform="matrix(11,0,0,11,723.6,1064.9)" />
<use xlink:href="#f2_13" transform="matrix(12,0,0,12,795.7,1088.4)" />
<use xlink:href="#f2_1f" transform="matrix(12,0,0,12,795.7,1120.5)" />
<use xlink:href="#f0_8" transform="matrix(11,0,0,11,657.4,1087)" />
<use xlink:href="#f0_5" transform="matrix(11,0,0,11,665.8,1087)" />
<use xlink:href="#f0_h" transform="matrix(11,0,0,11,673.3,1087)" />
<use xlink:href="#f0_f" transform="matrix(11,0,0,11,678,1087)" />
<use xlink:href="#f0_v" transform="matrix(11,0,0,11,686.4,1087)" />
<use xlink:href="#f0_3" transform="matrix(11,0,0,11,694.6,1087)" />
<use xlink:href="#f0_2" transform="matrix(11,0,0,11,700.3,1087)" />
<use xlink:href="#f2_13" transform="matrix(12,0,0,12,795.7,1142.6)" />
<use xlink:href="#f0_a" transform="matrix(11,0,0,11,657.4,1141.3)" />
<use xlink:href="#f0_8" transform="matrix(11,0,0,11,665.8,1141.3)" />
<use xlink:href="#f0_s" transform="matrix(11,0,0,11,674.2,1141.3)" />
<use xlink:href="#f0_4" transform="matrix(11,0,0,11,682.6,1141.3)" />
<use xlink:href="#f0_2" transform="matrix(11,0,0,11,687.3,1141.3)" />
<use xlink:href="#f0_p" transform="matrix(11,0,0,11,694.7,1141.3)" />
<use xlink:href="#f0_v" transform="matrix(11,0,0,11,707.8,1141.3)" />
<use xlink:href="#f0_3" transform="matrix(11,0,0,11,716.2,1141.3)" />
<use xlink:href="#f0_2" transform="matrix(11,0,0,11,721.8,1141.3)" />
</g>
</g>
<defs>
<path d="M399,-14c0,0,-341,0,-341,370c0,0,0,175,87,269c0,0,87,95,249,95c0,0,101,0,220,-23V501H573L541,625c0,0,-62,35,-149,35c0,0,-200,0,-200,-304c0,0,0,-158,61,-225c0,0,61,-67,189,-67c0,0,109,0,189,24V43C631,43,595,16,530,1c0,0,-64,-15,-131,-15Z" 
id="f0_5"
transform="scale(0.001,-0.001)" />

<path d="M495,413c0,0,0,133,-34,190c0,0,-34,57,-105,57c0,0,-78,0,-119,-63c0,0,-42,-62,-42,-184ZM374,-14c0,0,-163,0,-239,87c0,0,-75,88,-75,283c0,0,0,183,77,273c0,0,76,91,219,91c0,0,269,0,269,-306V353H194V340c0,0,0,-103,23,-160c0,0,22,-57,70,-87c0,0,47,-29,124,-29c0,0,40,0,96,6c0,0,55,7,91,15V43C598,43,562,20,500,3c0,0,-61,-17,-126,-17Z" 
id="f0_2"
transform="scale(0.001,-0.001)" />

<path d="M439,0V33l93,19V500c0,0,0,62,-30,97c0,0,-31,36,-94,36c0,0,-67,0,-165,-22V52L338,33V0H35V33l84,19V649L35,668v33H235l7,-57c0,0,57,33,122,54c0,0,65,22,108,22c0,0,91,0,137,-53c0,0,47,-53,47,-154V52L741,33V0Z" 
id="f0_a"
transform="scale(0.001,-0.001)" />

<path d="M284,67c0,0,51,0,88,12c0,0,37,12,74,30V358l-98,-3c0,0,-100,-4,-135,-39c0,0,-35,-35,-35,-117c0,0,0,-132,106,-132ZM233,-14c0,0,-179,0,-179,208c0,0,0,70,27,116c0,0,27,46,87,70c0,0,60,24,173,27l105,3V519c0,0,0,72,-26,107c0,0,-27,34,-82,34c0,0,-75,0,-137,-35L176,538H134V691c0,0,121,26,213,26c0,0,115,0,169,-47c0,0,54,-47,54,-144V52L657,33V0H465L451,70c0,0,-85,-84,-218,-84Z" 
id="f0_m"
transform="scale(0.001,-0.001)" />

<path d="M31,0V33l88,19V649L31,668v33H235l7,-87c0,0,44,37,121,71c0,0,76,35,121,35h11V530H463l-43,82c0,0,-37,0,-88,-10c0,0,-52,-10,-89,-26V52L363,33V0Z" 
id="f0_3"
transform="scale(0.001,-0.001)" />

<path d="M31,0V33L150,52v956L31,1026v34H274V52L394,33V0Z" 
id="f0_l"
transform="scale(0.001,-0.001)" />

<path d="M431,0V33L535,52V499c0,0,0,62,-32,96c0,0,-32,33,-95,33c0,0,-66,0,-163,-22V52L350,33V0H32V33l89,19V649L32,668v33H237l6,-57c0,0,56,32,119,54c0,0,62,22,110,22c0,0,52,0,95,-20c0,0,44,-19,66,-62c0,0,57,32,134,57c0,0,77,25,128,25c0,0,179,0,179,-207V52l90,-19V0H846V33L950,52V499c0,0,0,129,-119,129c0,0,-19,0,-45,-3c0,0,-26,-3,-52,-7c0,0,-25,-4,-49,-8c0,0,-23,-5,-39,-8c0,0,13,-41,13,-89V52L764,33V0Z" 
id="f0_p"
transform="scale(0.001,-0.001)" />

<path d="M377,45c0,0,99,0,147,73c0,0,47,73,47,237c0,0,0,161,-47,233c0,0,-47,72,-147,72c0,0,-97,0,-141,-69c0,0,-44,-69,-44,-236c0,0,0,-169,45,-240c0,0,44,-70,140,-70Zm0,-59c0,0,-158,0,-238,94c0,0,-81,95,-81,274c0,0,0,178,81,272c0,0,80,94,244,94c0,0,160,0,241,-92c0,0,82,-92,82,-274c0,0,0,-368,-329,-368Z" 
id="f0_8"
transform="scale(0.001,-0.001)" />

<path d="M41,0V34L426,641H261c0,0,-42,0,-80,-7c0,0,-39,-7,-54,-19L104,515H69V701H586V665L201,60H407c0,0,42,0,89,10c0,0,47,10,66,25l39,147h35L617,0Z" 
id="f0_9"
transform="scale(0.001,-0.001)" />

<path d="M425,-14c0,0,-187,0,-280,90c0,0,-93,90,-93,276c0,0,0,115,42,198c0,0,43,82,121,126c0,0,78,44,182,44c0,0,104,0,227,-26V486H571L539,609c0,0,-25,19,-50,26c0,0,-24,7,-65,7c0,0,-44,0,-79,-35c0,0,-36,-35,-56,-98c0,0,-20,-64,-20,-153c0,0,0,-150,47,-214c0,0,47,-64,148,-64c0,0,103,0,176,21V42C640,42,606,15,547,0c0,0,-59,-14,-122,-14Z" 
id="f1_l"
transform="scale(0.001,-0.001)" />

<path d="M379,60c0,0,59,0,84,64c0,0,24,65,24,231c0,0,0,164,-24,227c0,0,-24,63,-84,63c0,0,-57,0,-80,-60c0,0,-22,-61,-22,-230c0,0,0,-173,23,-234c0,0,22,-61,79,-61Zm-2,-74c0,0,-161,0,-240,91c0,0,-79,91,-79,277c0,0,0,186,80,276c0,0,81,90,245,90c0,0,167,0,245,-93c0,0,78,-93,78,-273c0,0,0,-188,-81,-278c0,0,-81,-90,-248,-90Z" 
id="f1_k"
transform="scale(0.001,-0.001)" />

<path d="M41,0V49l69,18V634L41,652v49H313l11,-61l50,26c0,0,105,54,188,54c0,0,125,0,167,-91c0,0,153,91,258,91c0,0,189,0,189,-207V67l71,-17V0H898V50l63,17V484c0,0,0,63,-24,98c0,0,-25,35,-74,35c0,0,-55,0,-119,-31c0,0,7,-32,7,-73V67L821,50V0H473V50l63,17V484c0,0,0,63,-25,98c0,0,-24,35,-73,35c0,0,-49,0,-113,-29V67L389,49V0Z" 
id="f1_12"
transform="scale(0.001,-0.001)" />

<path d="M434,423c0,0,0,101,-7,142c0,0,-6,40,-22,60c0,0,-16,19,-45,19c0,0,-44,0,-66,-48c0,0,-22,-49,-22,-173ZM389,-14c0,0,-172,0,-254,89c0,0,-83,90,-83,279c0,0,0,184,79,274c0,0,79,91,238,91c0,0,142,0,206,-76c0,0,64,-76,64,-237V345H271V333c0,0,0,-111,18,-158c0,0,18,-47,58,-72c0,0,40,-25,110,-25c0,0,66,0,166,22V42C623,42,582,18,517,1c0,0,-66,-15,-128,-15Z" 
id="f1_p"
transform="scale(0.001,-0.001)" />

<path d="M41,0V49l91,18V634L41,652v49H336l8,-145c0,0,80,89,144,128c0,0,64,40,117,40h40V468H604l-45,94c0,0,-47,0,-106,-21c0,0,-60,-20,-105,-48V67L460,49V0Z" 
id="f1_o"
transform="scale(0.001,-0.001)" />

<path d="M383,64c0,0,85,0,152,28V645c0,0,-67,13,-152,13c0,0,-194,0,-194,-314c0,0,0,-141,48,-211c0,0,48,-69,146,-69ZM342,-14c0,0,-287,0,-287,358c0,0,0,184,82,280c0,0,81,96,239,96c0,0,81,0,163,-18c0,0,-4,25,-4,124v182l-118,18v34H659V52L745,33V0H548l-9,52c0,0,-84,-66,-197,-66Z" 
id="f0_e"
transform="scale(0.001,-0.001)" />

<path d="M278,-14c0,0,-52,0,-115,11c0,0,-63,10,-99,23V193H98L134,95c0,0,56,-50,146,-50c0,0,144,0,144,123c0,0,0,91,-114,130l-66,21c0,0,-75,25,-110,50c0,0,-34,26,-53,63c0,0,-18,36,-18,89c0,0,0,92,63,145c0,0,63,54,170,54c0,0,77,0,193,-23V544H454l-32,81c0,0,-39,35,-124,35c0,0,-61,0,-92,-30c0,0,-32,-30,-32,-80c0,0,0,-43,29,-72c0,0,28,-29,86,-48c0,0,110,-38,144,-55c0,0,33,-17,57,-42c0,0,23,-25,36,-57c0,0,13,-32,13,-79c0,0,0,-104,-66,-158c0,0,-66,-53,-195,-53Z" 
id="f0_g"
transform="scale(0.001,-0.001)" />

<path d="M148,-329c0,0,-58,0,-114,13v151H69l24,-71c0,0,23,-17,64,-17c0,0,39,0,72,22c0,0,33,23,60,67c0,0,27,44,68,157L90,649L19,668v33H344V668L233,648L423,158L606,649L497,668v33H758V668L685,652L411,-43c0,0,-48,-124,-84,-177c0,0,-36,-54,-79,-82c0,0,-44,-27,-100,-27Z" 
id="f0_7"
transform="scale(0.001,-0.001)" />

<path d="M289,-14c0,0,-179,0,-179,205V649L20,668v33H233V200c0,0,0,-128,120,-128c0,0,92,0,173,23V649L420,668v33H649V52L738,33V0H533l-6,57C527,57,474,28,405,7c0,0,-69,-21,-116,-21Z" 
id="f0_f"
transform="scale(0.001,-0.001)" />

<path d="M64,-325c0,0,-46,0,-107,14v148H-8l19,-81c0,0,25,-21,62,-21c0,0,44,0,67,47c0,0,22,47,22,152V649L57,668v33H286V-28c0,0,0,-146,-57,-221c0,0,-56,-76,-165,-76ZM213,850c0,0,-34,0,-58,24c0,0,-24,24,-24,56c0,0,0,34,24,58c0,0,24,24,58,24c0,0,32,0,56,-24c0,0,24,-24,24,-58c0,0,0,-32,-24,-56c0,0,-24,-24,-56,-24Z" 
id="f0_1b"
transform="scale(0.001,-0.001)" />

<path d="M41,0V49l69,18V634L41,652v49H313l11,-61l50,26c0,0,105,54,188,54c0,0,194,0,194,-207V67L827,49V0H478V49l63,18V484c0,0,0,63,-27,98c0,0,-26,35,-75,35c0,0,-57,0,-114,-25V67L389,49V0Z" 
id="f1_11"
transform="scale(0.001,-0.001)" />

<path d="M345,75c0,0,50,0,110,26V351l-63,-2c0,0,-72,-3,-100,-38c0,0,-28,-35,-28,-113c0,0,0,-63,22,-93c0,0,23,-30,59,-30ZM266,-14c0,0,-217,0,-217,208c0,0,0,79,32,126c0,0,32,48,93,71c0,0,60,22,190,25l91,2V521c0,0,0,126,-104,126c0,0,-62,0,-140,-39L183,521H134V691c0,0,112,17,165,21c0,0,53,5,108,5c0,0,264,0,264,-194V67L741,49V0H483L466,54C466,54,408,14,361,0c0,0,-47,-14,-95,-14Z" 
id="f1_q"
transform="scale(0.001,-0.001)" />

<path d="M116,-325c0,0,-67,0,-128,14v168H35l32,-84c0,0,18,-14,37,-14c0,0,40,0,63,49c0,0,24,50,24,141V627L67,652v49H407V-28c0,0,0,-141,-76,-219c0,0,-76,-78,-215,-78ZM298,831c0,0,-47,0,-81,33c0,0,-33,33,-33,82c0,0,0,47,33,80c0,0,33,34,81,34c0,0,47,0,81,-33c0,0,34,-33,34,-81c0,0,0,-48,-34,-81c0,0,-33,-34,-81,-34Z" 
id="f1_24"
transform="scale(0.001,-0.001)" />

<path d="M382,45c0,0,188,0,188,314c0,0,0,143,-47,213c0,0,-46,69,-141,69c0,0,-87,0,-146,-24V58c0,0,67,-13,146,-13ZM25,-325v35l88,18V649L34,668v33H231l1,-41c0,0,31,27,84,43c0,0,53,17,107,17c0,0,134,0,208,-94c0,0,73,-93,73,-267c0,0,0,-178,-80,-276c0,0,-80,-97,-232,-97c0,0,-84,0,-160,16c0,0,4,-53,4,-84V-272l123,-18v-35Z" 
id="f0_u"
transform="scale(0.001,-0.001)" />

<path d="M249,-14c0,0,-71,0,-107,42c0,0,-35,42,-35,119V639H15v33l93,29l76,159h47V701H391V639H231V161c0,0,0,-48,22,-73c0,0,22,-24,57,-24c0,0,44,0,106,12V26C416,26,389,8,340,-2c0,0,-49,-12,-91,-12Z" 
id="f0_h"
transform="scale(0.001,-0.001)" />

<path d="M495,413c0,0,0,133,-34,190c0,0,-34,57,-105,57c0,0,-78,0,-119,-62c0,0,-42,-63,-42,-185ZM374,-14c0,0,-163,0,-239,87c0,0,-75,88,-75,283c0,0,0,183,77,274c0,0,76,90,219,90c0,0,269,0,269,-306V353H194V339c0,0,0,-103,23,-160c0,0,22,-57,70,-86c0,0,47,-30,124,-30c0,0,40,0,96,6c0,0,55,7,91,15V43C598,43,562,19,500,2c0,0,-61,-16,-126,-16ZM285,835v24l146,203H590v-27L326,835Z" 
id="f0_k"
transform="scale(0.001,-0.001)" />

<path d="M416,68c0,0,60,0,124,32V628c0,0,-58,15,-118,15c0,0,-67,0,-104,-73c0,0,-38,-73,-38,-216c0,0,0,-139,36,-212c0,0,35,-74,100,-74ZM369,-14c0,0,-155,0,-231,88c0,0,-76,90,-76,274c0,0,0,182,82,277c0,0,81,95,236,95c0,0,82,0,165,-20c0,0,-5,24,-5,115V992l-72,18v50H756V67L833,49V0H562L547,40C547,40,505,13,483,4c0,0,-23,-7,-51,-12c0,0,-28,-6,-63,-6Z" 
id="f1_1n"
transform="scale(0.001,-0.001)" />

<path d="M359,-270c0,0,124,0,192,46c0,0,67,47,67,129c0,0,0,43,-26,67c0,0,-26,24,-79,24H242c0,0,-32,-27,-51,-69c0,0,-20,-41,-20,-77c0,0,0,-64,46,-92c0,0,46,-28,142,-28Zm11,561c0,0,81,0,115,47c0,0,34,47,34,141c0,0,0,100,-35,142c0,0,-35,42,-113,42c0,0,-78,0,-114,-43c0,0,-37,-42,-37,-141c0,0,0,-98,36,-143c0,0,36,-45,114,-45ZM359,-329c0,0,-143,0,-218,44c0,0,-75,43,-75,125c0,0,0,39,27,78c0,0,26,38,98,89c0,0,-43,14,-72,48c0,0,-29,35,-29,74L208,262c0,0,-118,55,-118,217c0,0,0,115,73,178c0,0,73,63,211,63c0,0,28,0,71,-6c0,0,44,-6,67,-13l165,83l26,-32L599,644c0,0,50,-56,50,-165c0,0,0,-120,-72,-182c0,0,-73,-62,-208,-62c0,0,-62,0,-114,11L208,148c0,0,2,-13,29,-24c0,0,27,-12,67,-12H512c0,0,113,0,168,-49c0,0,55,-49,55,-134c0,0,0,-79,-44,-137c0,0,-43,-58,-128,-90c0,0,-84,-31,-204,-31Z" 
id="f0_w"
transform="scale(0.001,-0.001)" />

<path d="M32,0V33L151,52V649L52,668v33H275V52L395,33V0ZM201,850c0,0,-32,0,-56,24c0,0,-24,24,-24,56c0,0,0,34,24,58c0,0,24,24,56,24c0,0,34,0,58,-24c0,0,24,-24,24,-58c0,0,0,-32,-24,-56c0,0,-24,-24,-58,-24Z" 
id="f0_4"
transform="scale(0.001,-0.001)" />

<path d="M64,0V34L168,59V639H47v36l121,29v49c0,0,0,155,61,239c0,0,62,84,173,84c0,0,58,0,107,-15V908H472l-33,92c0,0,-26,16,-62,16c0,0,-47,0,-66,-42c0,0,-19,-42,-19,-157V701H478V639H292V59L443,34V0Z" 
id="f0_t"
transform="scale(0.001,-0.001)" />

<path d="M287,-18c0,0,-194,0,-194,206V634L23,652v49H309V217c0,0,0,-63,26,-98c0,0,27,-35,76,-35c0,0,57,0,113,25V634l-64,18v49H740V67L809,49V0H536L526,61L475,35c0,0,-104,-53,-188,-53Z" 
id="f1_14"
transform="scale(0.001,-0.001)" />

<path d="M276,-14c0,0,-57,0,-125,13C151,-1,83,10,48,23V214H97l28,-98c0,0,26,-26,69,-44c0,0,42,-17,86,-17c0,0,65,0,97,28c0,0,32,28,32,71c0,0,0,41,-31,65c0,0,-30,25,-133,57c0,0,-108,34,-154,92c0,0,-45,58,-45,143c0,0,0,95,71,152c0,0,71,57,183,57c0,0,77,0,207,-22V518H457l-24,82c0,0,-21,22,-60,35c0,0,-40,14,-75,14c0,0,-53,0,-79,-22c0,0,-26,-22,-26,-59c0,0,0,-40,32,-65c0,0,32,-26,132,-55c0,0,109,-34,155,-89c0,0,45,-55,45,-137c0,0,0,-117,-72,-177c0,0,-72,-59,-209,-59Z" 
id="f1_1l"
transform="scale(0.001,-0.001)" />

<path d="M376,50c0,0,103,0,149,80c0,0,46,81,46,240c0,0,0,137,-47,204c0,0,-48,67,-148,67c0,0,-44,0,-87,-7c0,0,-44,-8,-63,-17V62c0,0,63,-12,150,-12Zm3,-64c0,0,-64,0,-141,14c0,0,-78,14,-136,37v971L0,1026v34H226V809c0,0,0,-40,-4,-148c0,0,74,59,188,59c0,0,143,0,219,-87c0,0,77,-87,77,-263c0,0,0,-189,-84,-287c0,0,-84,-97,-243,-97Z" 
id="f0_v"
transform="scale(0.001,-0.001)" />

<path d="M34,0V49l76,18V634L38,652v49H325V67L402,49V0ZM217,831c0,0,-48,0,-81,33c0,0,-34,33,-34,82c0,0,0,48,34,81c0,0,34,33,81,33c0,0,48,0,81,-33c0,0,33,-33,33,-81c0,0,0,-47,-33,-81c0,0,-32,-34,-81,-34Z" 
id="f1_n"
transform="scale(0.001,-0.001)" />

<path d="M327,-14c0,0,-101,0,-156,45c0,0,-55,45,-55,131V624H25v48l108,29l87,159H332V701H480V624H332V176c0,0,0,-49,20,-73c0,0,20,-25,53,-25c0,0,40,0,97,12V26c0,0,-22,-15,-76,-27c0,0,-55,-13,-99,-13Z" 
id="f1_s"
transform="scale(0.001,-0.001)" />

<path d="M30,0V49l76,18V992l-72,18v50H322V67L398,49V0Z" 
id="f1_13"
transform="scale(0.001,-0.001)" />

<path d="M360,-256c0,0,108,0,167,35c0,0,59,35,59,98c0,0,0,70,-95,70H254c0,0,-65,-47,-65,-108c0,0,0,-47,46,-71c0,0,45,-24,125,-24Zm9,561c0,0,55,0,79,43c0,0,25,43,25,129c0,0,0,87,-24,127c0,0,-25,41,-80,41c0,0,-52,0,-75,-41c0,0,-24,-40,-24,-127c0,0,0,-86,23,-129c0,0,23,-43,76,-43Zm-9,-641c0,0,-153,0,-236,43c0,0,-84,44,-84,120c0,0,0,33,28,65c0,0,27,31,105,76c0,0,-44,17,-75,59c0,0,-31,43,-31,90L192,258c0,0,-133,56,-133,219c0,0,0,116,81,180c0,0,82,63,233,63c0,0,32,0,82,-6c0,0,51,-6,74,-13l168,83l26,-32L638,631c0,0,46,-57,46,-154c0,0,0,-119,-80,-182c0,0,-80,-64,-234,-64c0,0,-59,0,-114,9L238,183c0,0,1,-22,28,-41c0,0,26,-19,64,-19H493c0,0,256,0,256,-196c0,0,0,-81,-44,-139c0,0,-45,-59,-131,-92c0,0,-86,-32,-214,-32Z" 
id="f1_w"
transform="scale(0.001,-0.001)" />

<path d="M41,0V49l69,18V992l-72,18v50H325V756c0,0,0,-49,-4,-116l51,26c0,0,106,54,190,54c0,0,194,0,194,-207V67L827,49V0H478V49l63,18V484c0,0,0,63,-27,98c0,0,-26,35,-75,35c0,0,-57,0,-114,-25V67L389,49V0Z" 
id="f1_1h"
transform="scale(0.001,-0.001)" />

<path d="M156,-317V454l139,56V-317ZM505,0L806,729H139V835H967V753L650,0Z" 
id="f2_p"
transform="scale(0.001,-0.001)" />

<path d="M585,0V426c0,0,0,54,-8,98c0,0,-8,44,-27,83c0,0,-19,40,-49,66c0,0,-30,26,-77,41c0,0,-47,15,-108,15H66V836H315c0,0,94,0,166,-20c0,0,71,-20,116,-54c0,0,46,-35,75,-88c0,0,28,-52,40,-112c0,0,12,-60,12,-137V0Z" 
id="f2_a"
transform="scale(0.001,-0.001)" />

<path d="M139,0V106H400c0,0,176,0,253,71c0,0,78,72,78,250c0,0,0,163,-80,233c0,0,-81,69,-250,69H278L277,564c0,0,-1,-54,26,-80c0,0,27,-25,82,-25c0,0,30,0,80,9V355c0,0,-61,-12,-111,-12c0,0,-100,0,-157,55c0,0,-58,55,-58,186V836H456c0,0,193,0,303,-109c0,0,110,-109,110,-309c0,0,0,-200,-110,-309C759,109,648,0,456,0Z" 
id="f2_m"
transform="scale(0.001,-0.001)" />

<path d="M287,0L589,729H66v386H205V836l547,-1l-2,-82L433,0Z" 
id="f2_3"
transform="scale(0.001,-0.001)" />

<path d="M154,0V454l138,56V0ZM722,0V454c0,0,0,161,-49,218c0,0,-48,57,-186,57H139V836H485c0,0,207,0,291,-93c0,0,83,-94,83,-318V0Z" 
id="f2_9"
transform="scale(0.001,-0.001)" />

<path d="M152,0V473c0,0,0,94,28,161c0,0,29,66,71,95H66V836H463V729H404c0,0,-65,0,-89,-57c0,0,-25,-58,-25,-199V0Z" 
id="f2_o"
transform="scale(0.001,-0.001)" />

<path d="M139,0V836H485c0,0,206,0,290,-90c0,0,84,-89,84,-294V0H721V473c0,0,0,147,-49,202c0,0,-48,54,-186,54H277V0Z" 
id="f2_g"
transform="scale(0.001,-0.001)" />

<path d="M66,0V107H554V452c0,0,0,56,-4,93c0,0,-4,37,-18,75c0,0,-14,38,-40,60c0,0,-26,22,-71,36c0,0,-45,13,-110,13H66V836H312c0,0,91,0,157,-17c0,0,66,-17,109,-49c0,0,44,-32,69,-84c0,0,26,-52,36,-114c0,0,10,-62,10,-147V107H817V0Z" 
id="f2_f"
transform="scale(0.001,-0.001)" />

<path d="M248,0L521,658H66v429H313V836l493,-1V716L504,0Z" 
id="f3_n"
transform="scale(0.001,-0.001)" />

<path d="M102,250V836H349V351L102,250Z" 
id="f3_d"
transform="scale(0.001,-0.001)" />

<path d="M154,-13c0,0,-38,0,-85,9V198c0,0,58,-15,103,-15c0,0,84,0,118,60c0,0,35,61,35,206c0,0,0,66,-7,105c0,0,-6,39,-24,63c0,0,-17,25,-44,33c0,0,-27,8,-73,8H66V836H225c0,0,198,0,275,-115c0,0,56,-84,65,-264c0,0,3,-55,3,-148c0,0,0,-177,71,-309L393,1c0,0,-53,130,-54,141c0,0,-28,-90,-65,-123c0,0,-38,-32,-120,-32Z" 
id="f3_o"
transform="scale(0.001,-0.001)" />

<path d="M534,0V425c0,0,0,109,-41,171c0,0,-41,62,-140,62H66V836H352c0,0,99,0,174,-20c0,0,75,-20,123,-55c0,0,48,-35,78,-87c0,0,30,-53,42,-113c0,0,12,-60,12,-136V0Z" 
id="f3_4"
transform="scale(0.001,-0.001)" />

<path d="M173,-6C173,-6,61,-6,15,9V177c0,0,73,-10,82,-10c0,0,37,0,52,30c0,0,14,29,14,116V658H18V836H516c0,0,262,0,341,-145c0,0,48,-89,48,-242V0H658V450c0,0,0,131,-37,171c0,0,-34,37,-105,37H411V313c0,0,0,-189,-67,-258C344,55,285,-6,173,-6Z" 
id="f3_p"
transform="scale(0.001,-0.001)" />

<path d="M180,0V198H433V918L173,864v196l258,54H705V198H958V0Z" 
id="f3_q"
transform="scale(0.001,-0.001)" />

<path d="M562,411V877L247,411ZM562,0V202H68V449l447,665H834V411H993V202H834V0Z" 
id="f3_t"
transform="scale(0.001,-0.001)" />

<path d="M322,0V40L481,60V389L130,941L17,960v40H440V960L306,941L593,480L866,941L739,960v40h326V960L955,941L625,394V60L784,40V0Z" 
id="f0_y"
transform="scale(0.001,-0.001)" />

<path d="M442,0V33l93,19V504c0,0,0,129,-124,129c0,0,-70,0,-168,-22V52L338,33V0H31V33l88,19v956L15,1026v34H243V756c0,0,0,-77,-5,-112c0,0,54,31,122,53c0,0,68,23,115,23c0,0,91,0,137,-53c0,0,47,-53,47,-154V52L744,33V0Z" 
id="f0_x"
transform="scale(0.001,-0.001)" />

<path d="M191,-20c0,0,-39,0,-65,25c0,0,-25,27,-25,64c0,0,0,38,26,64c0,0,26,26,64,26c0,0,38,0,64,-26c0,0,26,-26,26,-64c0,0,0,-37,-25,-64c0,0,-26,-25,-65,-25Z" 
id="f0_o"
transform="scale(0.001,-0.001)" />

<path d="M163,0V190H321V0Z" 
id="f2_j"
transform="scale(0.001,-0.001)" />

<path d="M180,0L66,836H203L258,443c0,0,36,1,64,6c0,0,28,6,49,18c0,0,20,12,35,26c0,0,15,13,26,36c0,0,11,24,17,44c0,0,7,20,12,55c0,0,6,34,9,60c0,0,3,26,8,71c0,0,4,45,9,77H610c0,0,-13,-194,-31,-271c0,0,-31,-127,-111,-179c0,0,-71,-45,-196,-50L304,107c0,0,73,0,130,5c0,0,56,6,111,21c0,0,54,15,94,40c0,0,40,25,77,64c0,0,37,39,63,94c0,0,25,54,46,128c0,0,21,73,34,166c0,0,13,94,20,211h138c0,0,-14,-124,-29,-218c0,0,-16,-94,-39,-179c0,0,-22,-85,-50,-146c0,0,-28,-61,-68,-112c0,0,-39,-51,-87,-84C744,97,696,65,632,42C632,42,568,19,492,10C492,10,417,0,320,0Z" 
id="f2_4"
transform="scale(0.001,-0.001)" />

<path d="M114,0l60,312c0,0,2,12,8,39c0,0,6,27,7,37c0,0,2,11,5,30c0,0,2,19,4,33c0,0,1,15,1,31c0,0,0,48,-35,146c0,0,-35,98,-98,208H228c0,0,3,-8,27,-67c0,0,25,-58,41,-117c0,0,21,53,50,90c0,0,29,37,57,57c0,0,29,21,65,32c0,0,37,11,65,14c0,0,28,3,67,3c0,0,300,0,300,-396V0H480V106H761V452c0,0,0,146,-46,215c0,0,-45,70,-118,70c0,0,-134,0,-198,-119c0,0,-36,-68,-67,-222c0,0,-2,-10,-6,-27L253,0Z" 
id="f2_8"
transform="scale(0.001,-0.001)" />

<path d="M495,0V729H66V836H781V729H634V0Z" 
id="f2_q"
transform="scale(0.001,-0.001)" />

<path d="M71,-141V-15L289,62L66,836H210L416,109c0,0,99,42,153,98c0,0,53,56,80,155c0,0,26,98,26,262V836H817V624c0,0,0,-88,-7,-154c0,0,-7,-67,-25,-132c0,0,-18,-66,-51,-116c0,0,-33,-51,-84,-98c0,0,-50,-48,-123,-87c0,0,-72,-39,-169,-74L71,-141Z" 
id="f2_l"
transform="scale(0.001,-0.001)" />

<path d="M112,-5c0,0,-39,0,-97,11V113c0,0,48,-10,77,-10c0,0,53,0,70,42c0,0,17,43,17,164V729H50V836H501c0,0,107,0,179,-25c0,0,72,-25,112,-77c0,0,40,-51,57,-118c0,0,16,-67,16,-164V0H726V454c0,0,0,55,-3,92c0,0,-4,37,-17,75c0,0,-14,38,-38,59c0,0,-24,22,-65,36c0,0,-42,13,-102,13H318V309c0,0,0,-160,-46,-237C272,72,226,-5,112,-5Z" 
id="f2_e"
transform="scale(0.001,-0.001)" />

<path d="M139,0V138c0,0,0,61,8,112c0,0,7,52,19,87c0,0,11,36,30,66c0,0,19,31,35,49c0,0,17,19,41,35c0,0,25,17,41,25c0,0,17,7,40,17L141,836H303L613,388c0,0,20,10,33,18c0,0,13,8,34,28c0,0,20,20,33,44c0,0,13,25,22,66c0,0,10,41,10,92V836H882V698c0,0,0,-61,-7,-112c0,0,-6,-52,-18,-88c0,0,-12,-36,-30,-66c0,0,-19,-30,-36,-49c0,0,-17,-18,-41,-34c0,0,-24,-17,-40,-25c0,0,-17,-8,-41,-17L882,0H720L409,448c0,0,-21,-11,-34,-19c0,0,-13,-8,-34,-27c0,0,-21,-20,-34,-44c0,0,-12,-25,-22,-66c0,0,-9,-41,-9,-92V0Z" 
id="f2_d"
transform="scale(0.001,-0.001)" />

<path d="M139,0V836H278V0Z" 
id="f2_c"
transform="scale(0.001,-0.001)" />

<path d="M102,312V836H241V369L102,312Z" 
id="f2_7"
transform="scale(0.001,-0.001)" />

<path d="M66,0V107H332V555c0,0,0,92,-37,133c0,0,-37,41,-116,41H85V836h94c0,0,153,0,223,-66c0,0,69,-66,69,-231V0Z" 
id="f2_n"
transform="scale(0.001,-0.001)" />

<path d="M529,65c0,0,183,0,270,108c0,0,87,108,87,334c0,0,0,210,-113,318c0,0,-113,108,-322,108H316V71c0,0,90,-6,213,-6Zm0,-67L172,0H44V40L172,60V941L44,960v40H498c0,0,277,0,411,-123c0,0,133,-124,133,-371c0,0,0,-251,-129,-380C913,126,785,-2,529,-2Z" 
id="f0_13"
transform="scale(0.001,-0.001)" />

<path d="M284,67c0,0,51,0,88,12c0,0,37,11,74,29V357l-98,-3c0,0,-100,-3,-135,-38c0,0,-35,-36,-35,-118c0,0,0,-131,106,-131ZM233,-14c0,0,-179,0,-179,208c0,0,0,70,27,116c0,0,27,46,87,70c0,0,60,24,173,27l105,3V519c0,0,0,73,-26,107c0,0,-27,34,-82,34c0,0,-75,0,-137,-35L176,538H134V691c0,0,121,26,213,26c0,0,115,0,169,-47c0,0,54,-47,54,-144V52L657,34V0H465L451,70c0,0,-85,-84,-218,-84Zm22,849v24l146,203H560v-27L296,835Z" 
id="f0_16"
transform="scale(0.001,-0.001)" />

<path d="M55,0V40L184,60V941L55,960v40H455V960L327,941V60L455,40V0Z" 
id="f0_b"
transform="scale(0.001,-0.001)" />

<path d="M306,-20c0,0,-39,0,-65,25c0,0,-25,27,-25,64c0,0,0,38,26,64c0,0,26,26,64,26c0,0,37,0,63,-25c0,0,26,-26,26,-65c0,0,0,-37,-25,-64c0,0,-26,-25,-64,-25ZM269,261L249,510l107,22c0,0,64,13,93,65c0,0,29,52,29,152c0,0,0,109,-39,154c0,0,-40,45,-140,45c0,0,-83,0,-145,-36L128,789H79V979c0,0,118,32,220,32c0,0,316,0,316,-253c0,0,0,-121,-60,-195c0,0,-60,-74,-175,-98l-42,-9L328,261Z" 
id="f0_17"
transform="scale(0.001,-0.001)" />

<path d="M291,0V190H443V0Zm5,299V414c0,0,0,75,21,124c0,0,21,48,88,113l67,66c0,0,42,40,61,75c0,0,19,35,19,71c0,0,0,67,-48,108c0,0,-49,41,-130,41c0,0,-59,0,-125,-26c0,0,-67,-26,-139,-77v140c0,0,70,43,142,64c0,0,72,21,148,21c0,0,138,0,221,-72c0,0,83,-73,83,-191c0,0,0,-57,-27,-108c0,0,-27,-51,-94,-115L517,583c0,0,-34,-35,-49,-54c0,0,-14,-20,-20,-39c0,0,-5,-16,-7,-38c0,0,-2,-22,-2,-61V299Z" 
id="f2_1k"
transform="scale(0.001,-0.001)" />

<path d="M66,0V106H564L66,836H228L516,413c0,0,3,2,9,6c0,0,17,13,27,21c0,0,10,8,26,27c0,0,17,20,26,40c0,0,9,21,16,54c0,0,7,34,7,75V836H764V698c0,0,0,-55,-7,-102c0,0,-7,-47,-16,-79c0,0,-10,-33,-27,-62c0,0,-18,-29,-32,-46c0,0,-14,-17,-37,-35c0,0,-22,-17,-36,-25c0,0,-13,-8,-36,-20L767,53V0Z" 
id="f2_b"
transform="scale(0.001,-0.001)" />

<path d="M44,0V40L172,60V941L44,960v40H794V760H745L721,922c0,0,-83,11,-241,11H316V543H586l23,119h48V354H609L586,475H316V67H513c0,0,193,0,252,12l43,185h49L843,0Z" 
id="f0_d"
transform="scale(0.001,-0.001)" />

<path d="M35,0V34l84,18V649L35,668v33H235l7,-56c0,0,57,32,122,54c0,0,65,21,108,21c0,0,91,0,137,-53c0,0,47,-53,47,-154V52L741,34V0H439V34l93,18V500c0,0,0,62,-30,97c0,0,-31,36,-94,36c0,0,-67,0,-165,-22V52L338,34V0ZM481,834c0,0,-36,0,-66,16c0,0,-30,16,-57,36c0,0,-27,20,-52,36c0,0,-25,16,-49,16c0,0,-24,0,-39,-9c0,0,-14,-9,-23,-26c0,0,-8,-17,-13,-54H143c0,0,11,180,146,180c0,0,36,0,66,-16c0,0,30,-16,57,-35c0,0,27,-20,52,-36c0,0,25,-16,49,-16c0,0,32,0,50,18c0,0,18,19,25,70h39c0,0,-12,-180,-146,-180Z" 
id="f0_1e"
transform="scale(0.001,-0.001)" />

<path d="M736,107V473c0,0,0,147,-48,202c0,0,-49,54,-187,54H278V107ZM139,0V836H499c0,0,105,0,177,-22c0,0,72,-21,116,-69c0,0,44,-49,64,-119c0,0,19,-71,19,-174V0Z" 
id="f2_6"
transform="scale(0.001,-0.001)" />

<path d="M551,45c0,0,171,0,252,106c0,0,82,107,82,349c0,0,0,241,-82,346c0,0,-82,105,-252,105c0,0,-171,0,-252,-106c0,0,-80,-106,-80,-345c0,0,0,-241,80,-348c0,0,81,-107,252,-107ZM930,-246c0,0,-53,0,-94,17c0,0,-41,18,-83,56c0,0,-41,39,-139,162c0,0,-27,-3,-63,-3c0,0,-239,0,-364,130C187,116,63,247,63,500c0,0,0,511,488,511c0,0,240,0,365,-129c0,0,125,-130,125,-382c0,0,0,-366,-265,-475l37,-45c0,0,66,-82,112,-117c0,0,46,-35,91,-35l61,2v-49c0,0,-17,-7,-64,-17c0,0,-48,-10,-83,-10Z" 
id="f0_1w"
transform="scale(0.001,-0.001)" />

<path d="M410,-14c0,0,-80,0,-162,14c0,0,-81,14,-144,38V270h48L178,134c0,0,28,-35,95,-62c0,0,68,-27,134,-27c0,0,104,0,163,53c0,0,58,54,58,148c0,0,0,54,-23,89c0,0,-22,35,-59,59c0,0,-37,24,-84,41c0,0,-47,17,-97,34c0,0,-49,17,-96,38c0,0,-47,21,-84,53c0,0,-37,32,-60,79c0,0,-23,48,-23,117c0,0,0,119,90,187c0,0,89,68,248,68c0,0,121,0,263,-32V771H654L628,893c0,0,-76,55,-188,55c0,0,-100,0,-156,-40c0,0,-56,-41,-56,-112c0,0,0,-49,22,-81c0,0,23,-32,60,-55c0,0,37,-22,84,-39c0,0,48,-16,97,-34c0,0,50,-17,97,-39c0,0,48,-22,85,-56c0,0,36,-34,59,-83c0,0,23,-49,23,-120c0,0,0,-145,-89,-224c0,0,-89,-79,-256,-79Z" 
id="f0_18"
transform="scale(0.001,-0.001)" />

<path d="M491,-20c0,0,-95,0,-188,18c0,0,-93,17,-185,55V279c0,0,91,-53,173,-79c0,0,82,-26,154,-26c0,0,105,0,165,51c0,0,60,51,60,138c0,0,0,88,-60,139c0,0,-60,50,-165,50c0,0,-62,0,-132,-16c0,0,-70,-16,-151,-49v627H877V903H391V730c0,0,33,9,66,14c0,0,33,5,69,5c0,0,204,0,318,-102c0,0,113,-102,113,-284c0,0,0,-180,-123,-282C834,81,710,-20,491,-20Z" 
id="f3_z"
transform="scale(0.001,-0.001)" />

<path d="M290,-20c0,0,-70,0,-142,13C148,-7,77,6,3,33L31,176c0,0,70,-38,141,-57c0,0,71,-19,146,-19c0,0,147,0,238,75c0,0,91,76,91,197c0,0,0,78,-58,120c0,0,-58,42,-166,42H293l23,122H453c0,0,124,0,195,57c0,0,72,56,72,153c0,0,0,70,-53,109c0,0,-52,38,-146,38c0,0,-72,0,-147,-15c0,0,-75,-15,-156,-46l24,134c0,0,82,24,159,36c0,0,77,12,152,12c0,0,147,0,234,-65c0,0,86,-66,86,-176c0,0,0,-109,-68,-186c0,0,-68,-78,-188,-106c0,0,94,-27,138,-84c0,0,44,-56,44,-150c0,0,0,-89,-43,-168c0,0,-43,-78,-123,-135C633,64,571,21,486,0c0,0,-85,-20,-196,-20Z" 
id="f4_g"
transform="scale(0.001,-0.001)" />

<path d="M287,0L730,729H207l75,385H421L368,836l547,-1L896,753L433,0Z" 
id="f4_h"
transform="scale(0.001,-0.001)" />

<path d="M162,312L264,836H403L312,369L162,312Z" 
id="f4_a"
transform="scale(0.001,-0.001)" />

<path d="M585,0l83,425c0,0,10,55,11,99c0,0,1,44,-11,83c0,0,-12,39,-36,65c0,0,-25,26,-69,42c0,0,-44,15,-105,15H207l21,107H478c0,0,94,0,161,-20c0,0,67,-20,106,-55c0,0,39,-34,58,-87c0,0,18,-53,18,-113c0,0,0,-60,-15,-136L724,0Z" 
id="f4_i"
transform="scale(0.001,-0.001)" />

<path d="M139,0l21,106H421c0,0,176,0,268,72c0,0,91,71,126,249c0,0,32,163,-35,232c0,0,-68,70,-238,70H419L386,563c0,0,-11,-54,11,-80c0,0,22,-26,77,-26c0,0,30,0,83,10L534,354c0,0,-63,-12,-113,-12c0,0,-100,0,-147,55c0,0,-47,55,-22,186l49,253H619c0,0,193,0,282,-109c0,0,89,-109,50,-309c0,0,-39,-200,-171,-309C780,109,648,0,457,0Z" 
id="f4_j"
transform="scale(0.001,-0.001)" />

<path d="M139,0l27,138c0,0,12,60,29,112c0,0,18,51,36,87c0,0,18,36,43,66c0,0,24,30,45,49c0,0,20,19,48,35c0,0,27,17,45,24c0,0,18,8,43,18L303,836H465L688,388c0,0,22,10,37,17c0,0,14,8,39,28c0,0,25,21,42,45c0,0,18,24,35,65c0,0,18,41,28,93l39,200h137L1018,697c0,0,-12,-61,-29,-112c0,0,-18,-51,-36,-87c0,0,-19,-36,-43,-66c0,0,-25,-31,-45,-49c0,0,-21,-18,-49,-35c0,0,-27,-16,-45,-24c0,0,-18,-8,-43,-17L881,0H719L496,448c0,0,-23,-11,-38,-19c0,0,-14,-8,-39,-27c0,0,-24,-20,-42,-44c0,0,-17,-25,-34,-66c0,0,-18,-41,-28,-92L276,0Z" 
id="f4_9"
transform="scale(0.001,-0.001)" />

<path d="M66,0L87,107H576l67,345c0,0,10,56,14,93c0,0,3,37,-4,75c0,0,-7,38,-28,60c0,0,-21,21,-64,35c0,0,-43,14,-107,14H207l21,107H474c0,0,92,0,155,-18c0,0,63,-17,99,-49c0,0,37,-31,53,-83c0,0,16,-52,14,-114c0,0,-2,-62,-18,-147L715,107H838L818,0Z" 
id="f4_4"
transform="scale(0.001,-0.001)" />

<path d="M301,78c0,0,85,0,185,104l81,442c0,0,-29,20,-55,28c0,0,-25,8,-62,8c0,0,-75,0,-137,-56c0,0,-62,-56,-98,-152c0,0,-36,-95,-36,-199c0,0,0,-79,33,-127c0,0,33,-48,89,-48ZM245,-14c0,0,-90,0,-145,66c0,0,-54,66,-54,182c0,0,0,131,57,244c0,0,57,114,152,178c0,0,96,64,208,64c0,0,90,0,170,-33l33,26h40L589,52L673,33L667,0H454l22,117C476,117,350,-14,245,-14Z" 
id="f5_9"
transform="scale(0.001,-0.001)" />

<path d="M-15,-329c0,0,-61,0,-112,13l28,152h34l12,-72c0,0,18,-17,60,-17c0,0,100,0,212,202L253,9L116,649L33,668l6,33H230L338,155L513,458c0,0,48,83,48,144c0,0,0,27,-16,44c0,0,-15,16,-33,22l6,33H659c0,0,20,-17,20,-47c0,0,0,-59,-62,-164L322,-7c0,0,-86,-145,-135,-205c0,0,-50,-61,-98,-89c0,0,-49,-28,-104,-28Z" 
id="f5_g"
transform="scale(0.001,-0.001)" />

<path d="M188,355c0,0,148,11,236,69c0,0,89,58,89,143c0,0,0,41,-23,68c0,0,-22,27,-66,27c0,0,-52,0,-101,-43c0,0,-49,-42,-85,-114c0,0,-36,-71,-50,-150ZM298,-14c0,0,-120,0,-186,67c0,0,-65,67,-65,193c0,0,0,125,53,232c0,0,52,108,145,175c0,0,94,67,196,67c0,0,92,0,147,-42c0,0,56,-43,56,-111c0,0,0,-102,-126,-173c0,0,-125,-72,-336,-86l-3,-54c0,0,0,-95,40,-143c0,0,40,-47,118,-47c0,0,67,0,124,22c0,0,57,23,106,52l22,-32c0,0,-69,-58,-146,-89c0,0,-76,-31,-145,-31Z" 
id="f5_6"
transform="scale(0.001,-0.001)" />

<path d="M62,0L176,649L88,668l6,33H301L278,543c0,0,55,84,124,130c0,0,69,47,138,47c0,0,37,0,59,-6L566,530H534l-28,95c0,0,-60,0,-124,-46c0,0,-63,-45,-116,-120L186,0Z" 
id="f5_5"
transform="scale(0.001,-0.001)" />

<path d="M411,-20c0,0,-70,0,-142,11c0,0,-73,11,-151,35V178c0,0,67,-37,139,-54c0,0,72,-18,152,-18c0,0,129,0,204,67c0,0,75,68,75,184c0,0,0,117,-75,184c0,0,-75,68,-204,68c0,0,-61,0,-121,-13c0,0,-60,-13,-123,-42v560H757V987H303V714c0,0,33,11,66,17c0,0,33,5,65,5c0,0,187,0,296,-102c0,0,109,-102,109,-277c0,0,0,-179,-112,-279c0,0,-112,-98,-316,-98Z" 
id="f2_18"
transform="scale(0.001,-0.001)" />

<path d="M111,0V127c0,0,86,89,234,238c0,0,148,150,186,193c0,0,73,81,101,138c0,0,29,56,29,110c0,0,0,89,-62,145c0,0,-62,56,-162,56c0,0,-71,0,-150,-25c0,0,-78,-24,-168,-75v153c0,0,91,37,170,55c0,0,79,19,145,19c0,0,173,0,276,-86c0,0,103,-87,103,-232c0,0,0,-68,-26,-130c0,0,-26,-61,-94,-145c0,0,-18,-22,-118,-125C575,416,475,313,293,127H818V0Z" 
id="f2_14"
transform="scale(0.001,-0.001)" />

<path d="M505,98c0,0,101,0,160,70c0,0,60,69,60,189c0,0,0,121,-60,191c0,0,-59,69,-160,69c0,0,-102,0,-161,-69c0,0,-59,-70,-59,-191c0,0,0,-120,59,-189c0,0,59,-70,161,-70ZM504,-20c0,0,-193,0,-295,147c0,0,-102,148,-102,429c0,0,0,264,125,421c0,0,125,157,337,157c0,0,56,0,114,-11c0,0,58,-11,121,-34V952c0,0,-57,27,-115,41c0,0,-58,14,-115,14c0,0,-149,0,-228,-101c0,0,-79,-100,-90,-304c0,0,44,65,111,100c0,0,66,34,146,34c0,0,168,0,266,-102c0,0,97,-101,97,-277c0,0,0,-171,-101,-275C775,82,673,-20,504,-20Z" 
id="f2_19"
transform="scale(0.001,-0.001)" />

<path d="M553,159c0,0,76,0,113,49c0,0,38,49,38,147c0,0,0,98,-38,147c0,0,-37,49,-113,49c0,0,-76,0,-113,-49c0,0,-38,-49,-38,-147c0,0,0,-98,38,-147c0,0,37,-49,113,-49ZM550,-20c0,0,-217,0,-336,145C214,125,95,272,95,541c0,0,0,276,139,434c0,0,139,157,381,157c0,0,77,0,149,-11c0,0,73,-12,143,-36V879c0,0,-70,34,-133,50c0,0,-63,16,-122,16c0,0,-128,0,-200,-72c0,0,-71,-71,-83,-211c0,0,49,37,106,55c0,0,58,18,125,18c0,0,171,0,276,-100c0,0,105,-100,105,-262c0,0,0,-179,-117,-287C864,86,747,-20,550,-20Z" 
id="f3_6"
transform="scale(0.001,-0.001)" />

<path d="M578,388V982L197,388ZM578,0V263H74V408l464,706H727V388H887V263H727V0Z" 
id="f2_17"
transform="scale(0.001,-0.001)" />

<path d="M134,0V40L339,60V876L137,804v39l292,166h39V60L672,40V0Z" 
id="f0_1x"
transform="scale(0.001,-0.001)" />

<path d="M486,98c0,0,107,0,169,58c0,0,62,57,62,157c0,0,0,101,-62,159c0,0,-61,57,-169,57c0,0,-108,0,-169,-57c0,0,-62,-58,-62,-159c0,0,0,-100,62,-158c0,0,61,-57,169,-57Zm-1,549c0,0,97,0,152,49c0,0,54,48,54,135c0,0,0,87,-54,135c0,0,-55,49,-152,49c0,0,-97,0,-151,-49c0,0,-54,-48,-54,-135c0,0,0,-87,54,-135c0,0,54,-49,151,-49Zm0,-667c0,0,-184,0,-283,85c0,0,-98,86,-98,248c0,0,0,107,61,181c0,0,61,74,170,99c0,0,-97,24,-151,90c0,0,-54,67,-54,162c0,0,0,134,95,212c0,0,95,77,260,77c0,0,167,0,261,-77c0,0,95,-78,95,-212c0,0,0,-95,-54,-162c0,0,-54,-66,-151,-90c0,0,109,-25,170,-99c0,0,61,-74,61,-181c0,0,0,-162,-99,-248c0,0,-98,-85,-283,-85Z" 
id="f2_1b"
transform="scale(0.001,-0.001)" />

<path d="M350,-14c0,0,-142,0,-253,31L89,228h49L172,87c0,0,32,-18,78,-29c0,0,46,-11,88,-11c0,0,118,0,173,56c0,0,56,55,56,187c0,0,0,93,-24,140c0,0,-24,47,-76,70c0,0,-52,22,-140,22c0,0,-68,0,-133,-18H122v496H630V886H189V567c0,0,81,18,173,18c0,0,173,0,258,-71c0,0,84,-71,84,-216c0,0,0,-151,-92,-232c0,0,-91,-80,-262,-80Z" 
id="f0_1y"
transform="scale(0.001,-0.001)" />

<path d="M360,-14L72,649L0,668v33H327V668L216,648L420,164L615,649L504,668v33H764V668L697,652L416,-14Z" 
id="f0_s"
transform="scale(0.001,-0.001)" />

<path d="M190,0V127H436V977L168,923v137l267,54H586V127H832V0Z" 
id="f2_13"
transform="scale(0.001,-0.001)" />

<path d="M67,0V109L206,235c0,0,133,118,196,190c0,0,63,72,90,149c0,0,27,77,27,177c0,0,0,97,-44,148c0,0,-44,50,-144,50c0,0,-39,0,-81,-10c0,0,-42,-11,-74,-29L150,787H101V980c0,0,135,32,230,32c0,0,164,0,247,-68c0,0,82,-69,82,-193c0,0,0,-84,-32,-158c0,0,-33,-75,-100,-148c0,0,-67,-74,-222,-206c0,0,-67,-57,-141,-125H680V0Z" 
id="f0_1z"
transform="scale(0.001,-0.001)" />

<path d="M350,-14c0,0,-142,0,-269,31L73,228h49L156,87c0,0,29,-16,82,-28c0,0,54,-12,100,-12c0,0,117,0,173,54c0,0,56,53,56,178c0,0,0,99,-52,150c0,0,-51,51,-159,56l-107,6v61l107,7c0,0,84,5,124,52c0,0,41,48,41,145c0,0,0,101,-44,147c0,0,-44,45,-139,45c0,0,-40,0,-83,-10c0,0,-43,-11,-76,-29L153,786H104V979c0,0,74,19,127,26c0,0,54,6,107,6c0,0,321,0,321,-246c0,0,0,-104,-57,-165c0,0,-57,-62,-162,-77c0,0,136,-16,200,-78c0,0,64,-62,64,-173c0,0,0,-135,-92,-211c0,0,-93,-75,-262,-75Z" 
id="f0_20"
transform="scale(0.001,-0.001)" />

<path d="M476,327V830h-4L114,327ZM476,0V220H30v99l488,686h86V327H740V220H604V0Z" 
id="f0_21"
transform="scale(0.001,-0.001)" />

<path d="M280,0L660,987H125v127H841v-64L437,0Z" 
id="f2_1a"
transform="scale(0.001,-0.001)" />

<path d="M178,0L615,886H176L150,764H101v236H720V943L274,0Z" 
id="f0_22"
transform="scale(0.001,-0.001)" />

<path d="M410,45c0,0,90,0,130,58c0,0,40,59,40,193c0,0,0,122,-38,177c0,0,-38,54,-122,54c0,0,-102,0,-217,-37c0,0,0,-227,51,-336c0,0,52,-109,156,-109Zm3,-59c0,0,-169,0,-258,131c0,0,-89,131,-89,377c0,0,0,161,47,278c0,0,47,117,131,178c0,0,85,61,196,61c0,0,109,0,217,-26V813H608L582,915c0,0,-25,13,-67,23c0,0,-41,10,-75,10c0,0,-109,0,-170,-105c0,0,-60,-106,-66,-308c0,0,121,63,244,63c0,0,132,0,201,-74c0,0,69,-74,69,-214c0,0,0,-156,-78,-240c0,0,-79,-84,-227,-84Z" 
id="f0_23"
transform="scale(0.001,-0.001)" />

<path d="M414,-20c0,0,-70,0,-144,13c0,0,-75,13,-154,40V179c0,0,63,-36,138,-55c0,0,74,-18,156,-18c0,0,142,0,216,55c0,0,74,56,74,163c0,0,0,98,-69,153c0,0,-69,56,-192,56H309V657H445c0,0,111,0,170,44c0,0,59,45,59,128c0,0,0,86,-61,132c0,0,-61,46,-174,46c0,0,-62,0,-133,-13c0,0,-71,-14,-156,-42v134c0,0,85,24,160,36c0,0,75,12,142,12c0,0,171,0,271,-78c0,0,100,-78,100,-211c0,0,0,-92,-53,-156c0,0,-52,-64,-150,-89c0,0,108,-23,169,-96c0,0,61,-73,61,-180c0,0,0,-165,-114,-255c0,0,-113,-89,-322,-89Z" 
id="f2_16"
transform="scale(0.001,-0.001)" />

<path d="M467,496c0,0,102,0,161,69c0,0,59,70,59,190c0,0,0,120,-59,190c0,0,-59,70,-161,70c0,0,-101,0,-160,-70c0,0,-60,-70,-60,-190c0,0,0,-120,60,-190c0,0,59,-69,160,-69ZM403,-20c0,0,-57,0,-115,11c0,0,-58,10,-121,32V160c0,0,57,-26,115,-40c0,0,58,-14,115,-14c0,0,149,0,228,100c0,0,79,100,90,305c0,0,-44,-65,-110,-99c0,0,-66,-35,-147,-35c0,0,-167,0,-265,102c0,0,-97,101,-97,276c0,0,0,172,101,275c0,0,102,104,270,104c0,0,194,0,295,-148c0,0,102,-148,102,-430c0,0,0,-263,-125,-420C739,136,614,-20,403,-20Z" 
id="f2_1d"
transform="scale(0.001,-0.001)" />

<path d="M486,98c0,0,117,0,175,114c0,0,59,115,59,344c0,0,0,230,-59,344c0,0,-58,115,-175,115c0,0,-117,0,-175,-115c0,0,-59,-114,-59,-344c0,0,0,-229,59,-344c0,0,58,-114,175,-114ZM485,-20c0,0,-187,0,-285,147c0,0,-99,148,-99,429c0,0,0,282,98,430c0,0,99,148,286,148c0,0,188,0,286,-148c0,0,99,-148,99,-430c0,0,0,-281,-99,-429c0,0,-98,-147,-286,-147Z" 
id="f2_1f"
transform="scale(0.001,-0.001)" />


</defs>
</svg>