<?xml version="1.0" encoding="UTF-8" standalone="no"?>
<!DOCTYPE svg PUBLIC "-//W3C//DTD SVG 1.1//EN"
"http://www.w3.org/Graphics/SVG/1.1/DTD/svg11.dtd">
<svg viewBox="0 0 909 1286" version="1.1" xmlns="http://www.w3.org/2000/svg" xmlns:xlink="http://www.w3.org/1999/xlink">
<defs>
<clipPath id="c0_7"><path d="M0,1286.2V0H909.4V1286.2Z" /></clipPath>
<style type="text/css"><![CDATA[
.g0_7{
fill: none;
stroke: #000000;
stroke-width: 0.7638889;
stroke-linecap: butt;
stroke-linejoin: round;
}
]]></style>
</defs>
<path d="M128.6,110.4H490.5M128.6,132.5H490.5M128.6,176.1H490.5M128.6,198.2H490.5M128.6,220.4H490.5M128.6,242.5H490.5M128.6,264.7H490.5M128.6,286.8H490.5M128.6,309H490.5M128.6,331.1H490.5m-361.9,24H490.5M128.6,377.3H490.5M128.6,399.4H490.5M128.6,443H490.5M128.6,465.1H490.5M128.9,110V465.5M258.8,110V465.5M380,110V465.5M490.1,110V465.5" class="g0_7" />
<g clip-path="url(#c0_7)">
<g fill="#000000" >
<use xlink:href="#f0_3" transform="matrix(12,0,0,12,447.8,127.9)" />
<use xlink:href="#f0_7" transform="matrix(12,0,0,12,459.7,127.9)" />
<use xlink:href="#f0_k" transform="matrix(12,0,0,12,472.2,127.9)" />
<use xlink:href="#f1_16" transform="matrix(11,0,0,11,267.7,126.5)" />
<use xlink:href="#f1_l" transform="matrix(11,0,0,11,275.1,126.5)" />
<use xlink:href="#f1_h" transform="matrix(11,0,0,11,283.4,126.5)" />
<use xlink:href="#f1_m" transform="matrix(11,0,0,11,290.8,126.5)" />
<use xlink:href="#f1_g" transform="matrix(11,0,0,11,299.2,126.5)" />
<use xlink:href="#f1_4" transform="matrix(11,0,0,11,304,126.5)" />
<use xlink:href="#f0_x" transform="matrix(12,0,0,12,196.3,127.9)" />
<use xlink:href="#f0_e" transform="matrix(12,0,0,12,196.3,127.9)" />
<use xlink:href="#f0_z" transform="matrix(12,0,0,12,201.2,127.9)" />
<use xlink:href="#f0_10" transform="matrix(12,0,0,12,211.2,127.9)" />
<use xlink:href="#f0_b" transform="matrix(12,0,0,12,213.1,127.9)" />
<use xlink:href="#f0_w" transform="matrix(12,0,0,12,221.2,127.9)" />
<use xlink:href="#f0_q" transform="matrix(12,0,0,12,220.4,127.9)" />
<use xlink:href="#f0_12" transform="matrix(12,0,0,12,227.2,125.7)" />
<use xlink:href="#f0_e" transform="matrix(12,0,0,12,232.7,127.9)" />
<use xlink:href="#f0_i" transform="matrix(12,0,0,12,237.7,127.9)" />
<use xlink:href="#f0_1m" transform="matrix(12,0,0,12,405.5,150)" />
<use xlink:href="#f0_o" transform="matrix(12,0,0,12,411.6,150)" />
<use xlink:href="#f0_d" transform="matrix(12,0,0,12,423.6,150)" />
<use xlink:href="#f0_d" transform="matrix(12,0,0,12,427.7,150)" />
<use xlink:href="#f0_g" transform="matrix(12,0,0,12,431.9,150)" />
<use xlink:href="#f0_i" transform="matrix(12,0,0,12,443.3,150)" />
<use xlink:href="#f0_6" transform="matrix(12,0,0,12,456.3,150)" />
<use xlink:href="#f0_7" transform="matrix(12,0,0,12,469.3,150)" />
<use xlink:href="#f0_8" transform="matrix(12,0,0,12,430.4,171.4)" />
<use xlink:href="#f0_e" transform="matrix(12,0,0,12,442.3,171.4)" />
<use xlink:href="#f0_6" transform="matrix(12,0,0,12,447.3,171.4)" />
<use xlink:href="#f0_a" transform="matrix(12,0,0,12,460.3,171.4)" />
<use xlink:href="#f0_h" transform="matrix(12,0,0,12,470.4,171.4)" />
<use xlink:href="#f1_5" transform="matrix(11,0,0,11,267.7,148.7)" />
<use xlink:href="#f1_e" transform="matrix(11,0,0,11,272.3,148.7)" />
<use xlink:href="#f1_m" transform="matrix(11,0,0,11,279.7,148.7)" />
<use xlink:href="#f1_g" transform="matrix(11,0,0,11,288.1,148.7)" />
<use xlink:href="#f1_e" transform="matrix(11,0,0,11,292.8,148.7)" />
<use xlink:href="#f1_f" transform="matrix(11,0,0,11,300.2,148.7)" />
<use xlink:href="#f0_f" transform="matrix(12,0,0,12,209.2,150)" />
<use xlink:href="#f0_11" transform="matrix(12,0,0,12,221.5,150)" />
<use xlink:href="#f0_z" transform="matrix(12,0,0,12,221.1,150)" />
<use xlink:href="#f0_10" transform="matrix(12,0,0,12,231,150)" />
<use xlink:href="#f0_b" transform="matrix(12,0,0,12,232.9,150)" />
<use xlink:href="#f0_11" transform="matrix(12,0,0,12,238.8,150)" />
<use xlink:href="#f0_9" transform="matrix(12,0,0,12,240.3,150)" />
<use xlink:href="#f0_4" transform="matrix(12,0,0,12,449.8,193.6)" />
<use xlink:href="#f0_d" transform="matrix(12,0,0,12,460.3,193.6)" />
<use xlink:href="#f0_a" transform="matrix(12,0,0,12,464.4,193.6)" />
<use xlink:href="#f0_b" transform="matrix(12,0,0,12,474.5,193.6)" />
<use xlink:href="#f1_y" transform="matrix(11,0,0,11,267.7,192.2)" />
<use xlink:href="#f1_e" transform="matrix(11,0,0,11,276.1,192.2)" />
<use xlink:href="#f1_m" transform="matrix(11,0,0,11,283.5,192.2)" />
<use xlink:href="#f1_e" transform="matrix(11,0,0,11,291.8,192.2)" />
<use xlink:href="#f1_u" transform="matrix(11,0,0,11,299.2,192.2)" />
<use xlink:href="#f1_4" transform="matrix(11,0,0,11,304.9,192.2)" />
<use xlink:href="#f1_f" transform="matrix(11,0,0,11,313.3,192.2)" />
<use xlink:href="#f1_4" transform="matrix(11,0,0,11,319.8,192.2)" />
<use xlink:href="#f0_x" transform="matrix(12,0,0,12,199.2,193.6)" />
<use xlink:href="#f0_e" transform="matrix(12,0,0,12,199.2,193.6)" />
<use xlink:href="#f0_f" transform="matrix(12,0,0,12,204.1,193.6)" />
<use xlink:href="#f0_x" transform="matrix(12,0,0,12,216,193.6)" />
<use xlink:href="#f0_e" transform="matrix(12,0,0,12,216,193.6)" />
<use xlink:href="#f0_j" transform="matrix(12,0,0,12,221,193.6)" />
<use xlink:href="#f0_11" transform="matrix(12,0,0,12,229.4,193.6)" />
<use xlink:href="#f0_b" transform="matrix(12,0,0,12,231.4,193.6)" />
<use xlink:href="#f0_11" transform="matrix(12,0,0,12,239,193.6)" />
<use xlink:href="#f0_n" transform="matrix(12,0,0,12,238.7,193.6)" />
<use xlink:href="#f0_3" transform="matrix(12,0,0,12,436,215.7)" />
<use xlink:href="#f0_j" transform="matrix(12,0,0,12,447.9,215.7)" />
<use xlink:href="#f0_z" transform="matrix(12,0,0,12,458.3,215.7)" />
<use xlink:href="#f0_d" transform="matrix(12,0,0,12,470.2,215.7)" />
<use xlink:href="#f0_r" transform="matrix(12,0,0,12,474.3,215.7)" />
<use xlink:href="#f1_y" transform="matrix(11,0,0,11,267.7,214.3)" />
<use xlink:href="#f1_l" transform="matrix(11,0,0,11,276.1,214.3)" />
<use xlink:href="#f1_s" transform="matrix(11,0,0,11,284.3,214.3)" />
<use xlink:href="#f1_g" transform="matrix(11,0,0,11,289,214.3)" />
<use xlink:href="#f1_6" transform="matrix(11,0,0,11,293.8,214.3)" />
<use xlink:href="#f1_u" transform="matrix(11,0,0,11,301.1,214.3)" />
<use xlink:href="#f1_u" transform="matrix(11,0,0,11,306.7,214.3)" />
<use xlink:href="#f1_6" transform="matrix(11,0,0,11,312.4,214.3)" />
<use xlink:href="#f0_3" transform="matrix(12,0,0,12,194.6,215.7)" />
<use xlink:href="#f0_w" transform="matrix(12,0,0,12,205.3,215.7)" />
<use xlink:href="#f0_j" transform="matrix(12,0,0,12,206.5,215.7)" />
<use xlink:href="#f0_10" transform="matrix(12,0,0,12,215.6,215.7)" />
<use xlink:href="#f0_j" transform="matrix(12,0,0,12,216.8,215.7)" />
<use xlink:href="#f0_w" transform="matrix(12,0,0,12,227.6,215.7)" />
<use xlink:href="#f0_z" transform="matrix(12,0,0,12,227.1,215.7)" />
<use xlink:href="#f0_d" transform="matrix(12,0,0,12,239,215.7)" />
<use xlink:href="#f0_13" transform="matrix(12,0,0,12,241.5,215.7)" />
<use xlink:href="#f0_r" transform="matrix(12,0,0,12,243.1,215.7)" />
<use xlink:href="#f0_3" transform="matrix(12,0,0,12,441.4,237.9)" />
<use xlink:href="#f0_6" transform="matrix(12,0,0,12,453.3,237.9)" />
<use xlink:href="#f0_e" transform="matrix(12,0,0,12,466.3,237.9)" />
<use xlink:href="#f0_4" transform="matrix(12,0,0,12,471.3,237.9)" />
<use xlink:href="#f1_v" transform="matrix(11,0,0,11,267.7,236.5)" />
<use xlink:href="#f1_e" transform="matrix(11,0,0,11,276.1,236.5)" />
<use xlink:href="#f1_u" transform="matrix(11,0,0,11,283.4,236.5)" />
<use xlink:href="#f1_y" transform="matrix(11,0,0,11,289,236.5)" />
<use xlink:href="#f1_1q" transform="matrix(11,0,0,11,297.4,236.5)" />
<use xlink:href="#f1_e" transform="matrix(11,0,0,11,305.8,236.5)" />
<use xlink:href="#f1_m" transform="matrix(11,0,0,11,313.3,236.5)" />
<use xlink:href="#f1_w" transform="matrix(11,0,0,11,321.7,236.5)" />
<use xlink:href="#f1_6" transform="matrix(11,0,0,11,329.2,236.5)" />
<use xlink:href="#f0_3" transform="matrix(12,0,0,12,179.5,237.9)" />
<use xlink:href="#f0_w" transform="matrix(12,0,0,12,192.6,237.9)" />
<use xlink:href="#f0_f" transform="matrix(12,0,0,12,191.4,237.9)" />
<use xlink:href="#f0_10" transform="matrix(12,0,0,12,201.3,237.9)" />
<use xlink:href="#f0_b" transform="matrix(12,0,0,12,203.3,237.9)" />
<use xlink:href="#f0_11" transform="matrix(12,0,0,12,211.4,237.9)" />
<use xlink:href="#f0_q" transform="matrix(12,0,0,12,210.6,237.9)" />
<use xlink:href="#f0_12" transform="matrix(12,0,0,12,217.4,235.7)" />
<use xlink:href="#f0_e" transform="matrix(12,0,0,12,222.9,237.9)" />
<use xlink:href="#f0_r" transform="matrix(12,0,0,12,227.9,237.9)" />
<use xlink:href="#f0_10" transform="matrix(12,0,0,12,234.2,237.9)" />
<use xlink:href="#f0_j" transform="matrix(12,0,0,12,235.4,237.9)" />
<use xlink:href="#f0_11" transform="matrix(12,0,0,12,242.3,237.9)" />
<use xlink:href="#f0_e" transform="matrix(12,0,0,12,245.6,237.9)" />
<use xlink:href="#f0_o" transform="matrix(12,0,0,12,442.4,260)" />
<use xlink:href="#f0_e" transform="matrix(12,0,0,12,454.5,260)" />
<use xlink:href="#f0_a" transform="matrix(12,0,0,12,459.5,260)" />
<use xlink:href="#f0_q" transform="matrix(12,0,0,12,469.6,260)" />
<use xlink:href="#f1_u" transform="matrix(11,0,0,11,267.7,258.7)" />
<use xlink:href="#f1_4" transform="matrix(11,0,0,11,273.2,258.7)" />
<use xlink:href="#f1_14" transform="matrix(11,0,0,11,281.6,258.7)" />
<use xlink:href="#f1_4" transform="matrix(11,0,0,11,286.3,258.7)" />
<use xlink:href="#f0_x" transform="matrix(12,0,0,12,218.5,260)" />
<use xlink:href="#f0_e" transform="matrix(12,0,0,12,218.5,260)" />
<use xlink:href="#f0_n" transform="matrix(12,0,0,12,223.5,260)" />
<use xlink:href="#f0_x" transform="matrix(12,0,0,12,235.4,260)" />
<use xlink:href="#f0_e" transform="matrix(12,0,0,12,235.4,260)" />
<use xlink:href="#f0_j" transform="matrix(12,0,0,12,240.3,260)" />
<use xlink:href="#f0_3" transform="matrix(12,0,0,12,440.9,282.2)" />
<use xlink:href="#f0_n" transform="matrix(12,0,0,12,452.8,282.2)" />
<use xlink:href="#f0_d" transform="matrix(12,0,0,12,464.7,282.2)" />
<use xlink:href="#f0_6" transform="matrix(12,0,0,12,468.9,282.2)" />
<use xlink:href="#f1_5" transform="matrix(11,0,0,11,267.7,280.8)" />
<use xlink:href="#f1_5" transform="matrix(11,0,0,11,272.3,280.8)" />
<use xlink:href="#f1_6" transform="matrix(11,0,0,11,277,280.8)" />
<use xlink:href="#f1_c" transform="matrix(11,0,0,11,284.3,280.8)" />
<use xlink:href="#f1_6" transform="matrix(11,0,0,11,297.4,280.8)" />
<use xlink:href="#f1_q" transform="matrix(11,0,0,11,304.9,280.8)" />
<use xlink:href="#f1_6" transform="matrix(11,0,0,11,313.3,280.8)" />
<use xlink:href="#f0_3" transform="matrix(12,0,0,12,212.2,282.2)" />
<use xlink:href="#f0_w" transform="matrix(12,0,0,12,225,282.2)" />
<use xlink:href="#f0_a" transform="matrix(12,0,0,12,224.1,282.2)" />
<use xlink:href="#f0_w" transform="matrix(12,0,0,12,235.2,282.2)" />
<use xlink:href="#f0_7" transform="matrix(12,0,0,12,234.2,282.2)" />
<use xlink:href="#f0_w" transform="matrix(12,0,0,12,242.7,282.2)" />
<use xlink:href="#f0_d" transform="matrix(12,0,0,12,246.5,282.2)" />
<use xlink:href="#f0_o" transform="matrix(12,0,0,12,442.3,304.3)" />
<use xlink:href="#f0_e" transform="matrix(12,0,0,12,454.5,304.3)" />
<use xlink:href="#f0_9" transform="matrix(12,0,0,12,459.5,304.3)" />
<use xlink:href="#f0_n" transform="matrix(12,0,0,12,469.9,304.3)" />
<use xlink:href="#f1_f" transform="matrix(11,0,0,11,267.7,303)" />
<use xlink:href="#f1_l" transform="matrix(11,0,0,11,274.2,303)" />
<use xlink:href="#f1_e" transform="matrix(11,0,0,11,282.5,303)" />
<use xlink:href="#f1_10" transform="matrix(11,0,0,11,289.9,303)" />
<use xlink:href="#f1_4" transform="matrix(11,0,0,11,298.3,303)" />
<use xlink:href="#f0_x" transform="matrix(12,0,0,12,205.2,304.3)" />
<use xlink:href="#f0_e" transform="matrix(12,0,0,12,205.2,304.3)" />
<use xlink:href="#f0_d" transform="matrix(12,0,0,12,210.2,304.3)" />
<use xlink:href="#f0_10" transform="matrix(12,0,0,12,212.3,304.3)" />
<use xlink:href="#f0_b" transform="matrix(12,0,0,12,214.3,304.3)" />
<use xlink:href="#f0_11" transform="matrix(12,0,0,12,222.4,304.3)" />
<use xlink:href="#f0_q" transform="matrix(12,0,0,12,221.6,304.3)" />
<use xlink:href="#f0_12" transform="matrix(12,0,0,12,228.4,302.2)" />
<use xlink:href="#f0_e" transform="matrix(12,0,0,12,233.9,304.3)" />
<use xlink:href="#f0_f" transform="matrix(12,0,0,12,238.8,304.3)" />
<use xlink:href="#f0_8" transform="matrix(12,0,0,12,416.8,326.5)" />
<use xlink:href="#f0_d" transform="matrix(12,0,0,12,428.8,326.5)" />
<use xlink:href="#f0_4" transform="matrix(12,0,0,12,432.9,326.5)" />
<use xlink:href="#f0_9" transform="matrix(12,0,0,12,449.4,326.5)" />
<use xlink:href="#f0_h" transform="matrix(12,0,0,12,459.8,326.5)" />
<use xlink:href="#f0_4" transform="matrix(12,0,0,12,471.3,326.5)" />
<use xlink:href="#f1_q" transform="matrix(11,0,0,11,267.7,325.1)" />
<use xlink:href="#f1_l" transform="matrix(11,0,0,11,276.1,325.1)" />
<use xlink:href="#f1_e" transform="matrix(11,0,0,11,284.5,325.1)" />
<use xlink:href="#f1_10" transform="matrix(11,0,0,11,291.9,325.1)" />
<use xlink:href="#f1_4" transform="matrix(11,0,0,11,300.3,325.1)" />
<use xlink:href="#f0_e" transform="matrix(12,0,0,12,207,326.5)" />
<use xlink:href="#f0_x" transform="matrix(12,0,0,12,212,326.5)" />
<use xlink:href="#f0_d" transform="matrix(12,0,0,12,212,326.5)" />
<use xlink:href="#f0_10" transform="matrix(12,0,0,12,214.2,326.5)" />
<use xlink:href="#f0_b" transform="matrix(12,0,0,12,216.1,326.5)" />
<use xlink:href="#f0_11" transform="matrix(12,0,0,12,224.2,326.5)" />
<use xlink:href="#f0_q" transform="matrix(12,0,0,12,223.5,326.5)" />
<use xlink:href="#f0_12" transform="matrix(12,0,0,12,230.2,324.3)" />
<use xlink:href="#f0_e" transform="matrix(12,0,0,12,235.7,326.5)" />
<use xlink:href="#f0_a" transform="matrix(12,0,0,12,240.6,326.5)" />
<use xlink:href="#f0_j" transform="matrix(12,0,0,12,449.5,348.6)" />
<use xlink:href="#f0_a" transform="matrix(12,0,0,12,459.8,348.6)" />
<use xlink:href="#f0_n" transform="matrix(12,0,0,12,469.9,348.6)" />
<use xlink:href="#f1_13" transform="matrix(11,0,0,11,267.7,347.3)" />
<use xlink:href="#f1_6" transform="matrix(11,0,0,11,276.1,347.3)" />
<use xlink:href="#f1_r" transform="matrix(11,0,0,11,283.5,347.3)" />
<use xlink:href="#f1_s" transform="matrix(11,0,0,11,291.8,347.3)" />
<use xlink:href="#f1_g" transform="matrix(11,0,0,11,296.5,347.3)" />
<use xlink:href="#f1_6" transform="matrix(11,0,0,11,301.2,347.3)" />
<use xlink:href="#f1_16" transform="matrix(11,0,0,11,308.6,347.3)" />
<use xlink:href="#f1_s" transform="matrix(11,0,0,11,316,347.3)" />
<use xlink:href="#f1_a" transform="matrix(11,0,0,11,320.7,347.3)" />
<use xlink:href="#f1_m" transform="matrix(11,0,0,11,329.1,347.3)" />
<use xlink:href="#f0_w" transform="matrix(12,0,0,12,239.3,350)" />
<use xlink:href="#f0_q" transform="matrix(12,0,0,12,238.5,350)" />
<use xlink:href="#f0_12" transform="matrix(13,0,0,13,224.9,350)" />
<use xlink:href="#f0_4" transform="matrix(13,0,0,13,226.9,350)" />
<use xlink:href="#f0_m" transform="matrix(12,0,0,12,182.9,350)" />
<use xlink:href="#f0_x" transform="matrix(12,0,0,12,187.9,350)" />
<use xlink:href="#f0_e" transform="matrix(12,0,0,12,187.9,350)" />
<use xlink:href="#f0_d" transform="matrix(12,0,0,12,192.8,350)" />
<use xlink:href="#f0_10" transform="matrix(12,0,0,12,198.1,350)" />
<use xlink:href="#f0_f" transform="matrix(12,0,0,12,196.9,350)" />
<use xlink:href="#f0_w" transform="matrix(12,0,0,12,209.3,350)" />
<use xlink:href="#f0_z" transform="matrix(12,0,0,12,208.8,350)" />
<use xlink:href="#f0_d" transform="matrix(12,0,0,12,220.7,350)" />
<use xlink:href="#f0_13" transform="matrix(12,0,0,12,224.8,350)" />
<use xlink:href="#f0_d" transform="matrix(12,0,0,12,398.1,372.5)" />
<use xlink:href="#f0_9" transform="matrix(12,0,0,12,402.2,372.5)" />
<use xlink:href="#f0_e" transform="matrix(12,0,0,12,412.6,372.5)" />
<use xlink:href="#f0_d" transform="matrix(12,0,0,12,417.5,372.5)" />
<use xlink:href="#f0_17" transform="matrix(12,0,0,12,427.5,372.5)" />
<use xlink:href="#f0_6" transform="matrix(12,0,0,12,434.6,372.5)" />
<use xlink:href="#f0_a" transform="matrix(12,0,0,12,447.6,372.5)" />
<use xlink:href="#f0_e" transform="matrix(12,0,0,12,457.7,372.5)" />
<use xlink:href="#f0_n" transform="matrix(12,0,0,12,462.7,372.5)" />
<use xlink:href="#f0_18" transform="matrix(12,0,0,12,474.6,372.5)" />
<use xlink:href="#f1_14" transform="matrix(11,0,0,11,267.7,371.1)" />
<use xlink:href="#f1_l" transform="matrix(11,0,0,11,272.3,371.1)" />
<use xlink:href="#f1_5" transform="matrix(11,0,0,11,280.7,371.1)" />
<use xlink:href="#f1_s" transform="matrix(11,0,0,11,285.4,371.1)" />
<use xlink:href="#f1_4" transform="matrix(11,0,0,11,290.1,371.1)" />
<use xlink:href="#f0_e" transform="matrix(12,0,0,12,214.2,372.5)" />
<use xlink:href="#f0_x" transform="matrix(12,0,0,12,219.2,372.5)" />
<use xlink:href="#f0_d" transform="matrix(12,0,0,12,219.2,372.5)" />
<use xlink:href="#f0_10" transform="matrix(12,0,0,12,221.8,372.5)" />
<use xlink:href="#f0_9" transform="matrix(12,0,0,12,223.3,372.5)" />
<use xlink:href="#f0_12" transform="matrix(12,0,0,12,228.3,370.3)" />
<use xlink:href="#f0_e" transform="matrix(12,0,0,12,233.8,372.5)" />
<use xlink:href="#f0_n" transform="matrix(12,0,0,12,238.8,372.5)" />
<use xlink:href="#f0_d" transform="matrix(12,0,0,12,447,394.6)" />
<use xlink:href="#f0_e" transform="matrix(12,0,0,12,451.1,394.6)" />
<use xlink:href="#f0_k" transform="matrix(12,0,0,12,456.2,394.6)" />
<use xlink:href="#f0_d" transform="matrix(12,0,0,12,465.8,394.6)" />
<use xlink:href="#f0_f" transform="matrix(12,0,0,12,469.9,394.6)" />
<use xlink:href="#f1_16" transform="matrix(11,0,0,11,267.7,393.3)" />
<use xlink:href="#f1_13" transform="matrix(11,0,0,11,275.1,393.3)" />
<use xlink:href="#f1_6" transform="matrix(11,0,0,11,283.4,393.3)" />
<use xlink:href="#f1_m" transform="matrix(11,0,0,11,290.8,393.3)" />
<use xlink:href="#f1_16" transform="matrix(11,0,0,11,299.2,393.3)" />
<use xlink:href="#f1_e" transform="matrix(11,0,0,11,306.7,393.3)" />
<use xlink:href="#f0_3" transform="matrix(12,0,0,12,203.7,394.6)" />
<use xlink:href="#f0_11" transform="matrix(12,0,0,12,216.8,394.6)" />
<use xlink:href="#f0_f" transform="matrix(12,0,0,12,215.6,394.6)" />
<use xlink:href="#f0_10" transform="matrix(12,0,0,12,225.5,394.6)" />
<use xlink:href="#f0_b" transform="matrix(12,0,0,12,227.4,394.6)" />
<use xlink:href="#f0_2" transform="matrix(12,0,0,12,234.8,394.6)" />
<use xlink:href="#f0_w" transform="matrix(12,0,0,12,238.9,394.6)" />
<use xlink:href="#f0_p" transform="matrix(12,0,0,12,239.8,394.6)" />
<use xlink:href="#f0_o" transform="matrix(12,0,0,12,388.5,416.8)" />
<use xlink:href="#f0_h" transform="matrix(12,0,0,12,400.7,416.8)" />
<use xlink:href="#f0_g" transform="matrix(12,0,0,12,412.2,416.8)" />
<use xlink:href="#f0_14" transform="matrix(12,0,0,12,457.8,416.8)" />
<use xlink:href="#f0_q" transform="matrix(12,0,0,12,469.6,416.8)" />
<use xlink:href="#f0_q" transform="matrix(12,0,0,12,459.3,438.2)" />
<use xlink:href="#f0_9" transform="matrix(12,0,0,12,471.5,438.2)" />
<use xlink:href="#f1_14" transform="matrix(11,0,0,11,267.7,415.4)" />
<use xlink:href="#f1_6" transform="matrix(11,0,0,11,272.3,415.4)" />
<use xlink:href="#f1_c" transform="matrix(11,0,0,11,279.7,415.4)" />
<use xlink:href="#f1_h" transform="matrix(11,0,0,11,292.8,415.4)" />
<use xlink:href="#f1_f" transform="matrix(11,0,0,11,300.2,415.4)" />
<use xlink:href="#f0_f" transform="matrix(12,0,0,12,214.3,416.8)" />
<use xlink:href="#f0_w" transform="matrix(12,0,0,12,227.3,416.8)" />
<use xlink:href="#f0_7" transform="matrix(12,0,0,12,226.2,416.8)" />
<use xlink:href="#f0_w" transform="matrix(12,0,0,12,239.1,416.8)" />
<use xlink:href="#f0_n" transform="matrix(12,0,0,12,238.7,416.8)" />
<use xlink:href="#f0_j" transform="matrix(12,0,0,12,454.2,460.3)" />
<use xlink:href="#f0_e" transform="matrix(12,0,0,12,464.6,460.3)" />
<use xlink:href="#f0_q" transform="matrix(12,0,0,12,469.6,460.3)" />
<use xlink:href="#f1_5" transform="matrix(11,0,0,11,267.7,458.9)" />
<use xlink:href="#f1_l" transform="matrix(11,0,0,11,272.3,458.9)" />
<use xlink:href="#f1_w" transform="matrix(11,0,0,11,280.7,458.9)" />
<use xlink:href="#f0_f" transform="matrix(12,0,0,12,223.5,460.3)" />
<use xlink:href="#f0_12" transform="matrix(12,0,0,12,229.8,458.2)" />
<use xlink:href="#f0_e" transform="matrix(12,0,0,12,235.3,460.3)" />
<use xlink:href="#f0_9" transform="matrix(12,0,0,12,240.3,460.3)" />
<use xlink:href="#f2_5" transform="matrix(16,0,0,16,682.9,506.6)" />
<use xlink:href="#f2_7" transform="matrix(16,0,0,16,689.6,506.6)" />
<use xlink:href="#f2_1m" transform="matrix(16,0,0,16,697.9,506.6)" />
<use xlink:href="#f2_6" transform="matrix(16,0,0,16,710.1,506.6)" />
<use xlink:href="#f2_l" transform="matrix(16,0,0,16,724.8,506.6)" />
<use xlink:href="#f2_c" transform="matrix(16,0,0,16,743.1,506.6)" />
<use xlink:href="#f2_6" transform="matrix(16,0,0,16,757.5,506.6)" />
<use xlink:href="#f0_i" transform="matrix(12,0,0,12,655.2,528.9)" />
<use xlink:href="#f0_j" transform="matrix(12,0,0,12,668.2,528.9)" />
<use xlink:href="#f0_g" transform="matrix(12,0,0,12,678.6,528.9)" />
<use xlink:href="#f0_8" transform="matrix(12,0,0,12,696.6,528.9)" />
<use xlink:href="#f0_q" transform="matrix(12,0,0,12,708.6,528.9)" />
<use xlink:href="#f0_8" transform="matrix(12,0,0,12,727.4,528.9)" />
<use xlink:href="#f0_7" transform="matrix(12,0,0,12,739.4,528.9)" />
<use xlink:href="#f0_d" transform="matrix(12,0,0,12,751.9,528.9)" />
<use xlink:href="#f0_d" transform="matrix(12,0,0,12,756,528.9)" />
<use xlink:href="#f0_f" transform="matrix(12,0,0,12,760,528.9)" />
<use xlink:href="#f0_16" transform="matrix(12,0,0,12,636.6,528.9)" />
<use xlink:href="#f0_k" transform="matrix(12,0,0,12,487,528.9)" />
<use xlink:href="#f0_3" transform="matrix(12,0,0,12,503.3,528.9)" />
<use xlink:href="#f0_b" transform="matrix(12,0,0,12,515.3,528.9)" />
<use xlink:href="#f0_e" transform="matrix(12,0,0,12,522.6,528.9)" />
<use xlink:href="#f0_6" transform="matrix(12,0,0,12,527.6,528.9)" />
<use xlink:href="#f0_q" transform="matrix(12,0,0,12,540.6,528.9)" />
<use xlink:href="#f0_j" transform="matrix(12,0,0,12,552.8,528.9)" />
<use xlink:href="#f0_9" transform="matrix(12,0,0,12,563.2,528.9)" />
<use xlink:href="#f0_8" transform="matrix(12,0,0,12,580.1,528.9)" />
<use xlink:href="#f0_j" transform="matrix(12,0,0,12,592.2,528.9)" />
<use xlink:href="#f0_k" transform="matrix(12,0,0,12,602.5,528.9)" />
<use xlink:href="#f0_3" transform="matrix(12,0,0,12,612.2,528.9)" />
<use xlink:href="#f0_15" transform="matrix(12,0,0,12,630.8,528.9)" />
<use xlink:href="#f0_1i" transform="matrix(12,0,0,12,457,528.9)" />
<use xlink:href="#f0_1o" transform="matrix(12,0,0,12,468.6,528.9)" />
<use xlink:href="#f0_j" transform="matrix(12,0,0,12,138,528.9)" />
<use xlink:href="#f0_k" transform="matrix(12,0,0,12,148.3,528.9)" />
<use xlink:href="#f0_e" transform="matrix(12,0,0,12,158,528.9)" />
<use xlink:href="#f0_l" transform="matrix(12,0,0,12,162.9,528.9)" />
<use xlink:href="#f0_3" transform="matrix(12,0,0,12,176,528.9)" />
<use xlink:href="#f0_8" transform="matrix(12,0,0,12,187.9,528.9)" />
<use xlink:href="#f0_q" transform="matrix(12,0,0,12,199.9,528.9)" />
<use xlink:href="#f0_m" transform="matrix(12,0,0,12,218.8,528.9)" />
<use xlink:href="#f0_i" transform="matrix(12,0,0,12,223.9,528.9)" />
<use xlink:href="#f0_9" transform="matrix(12,0,0,12,236.8,528.9)" />
<use xlink:href="#f0_n" transform="matrix(12,0,0,12,247.2,528.9)" />
<use xlink:href="#f0_8" transform="matrix(12,0,0,12,265.7,528.9)" />
<use xlink:href="#f0_q" transform="matrix(12,0,0,12,277.8,528.9)" />
<use xlink:href="#f0_i" transform="matrix(12,0,0,12,296.5,528.9)" />
<use xlink:href="#f0_j" transform="matrix(12,0,0,12,309.5,528.9)" />
<use xlink:href="#f0_6" transform="matrix(12,0,0,12,319.9,528.9)" />
<use xlink:href="#f0_8" transform="matrix(12,0,0,12,339.4,528.9)" />
<use xlink:href="#f0_e" transform="matrix(12,0,0,12,351.4,528.9)" />
<use xlink:href="#f0_j" transform="matrix(12,0,0,12,356.4,528.9)" />
<use xlink:href="#f0_7" transform="matrix(12,0,0,12,366.7,528.9)" />
<use xlink:href="#f0_9" transform="matrix(12,0,0,12,379.2,528.9)" />
<use xlink:href="#f0_e" transform="matrix(12,0,0,12,389.6,528.9)" />
<use xlink:href="#f0_15" transform="matrix(12,0,0,12,401.2,528.9)" />
<use xlink:href="#f0_o" transform="matrix(12,0,0,12,407,528.9)" />
<use xlink:href="#f0_d" transform="matrix(12,0,0,12,419.2,528.9)" />
<use xlink:href="#f0_9" transform="matrix(12,0,0,12,423.3,528.9)" />
<use xlink:href="#f0_d" transform="matrix(12,0,0,12,433.7,528.9)" />
<use xlink:href="#f0_7" transform="matrix(12,0,0,12,437.7,528.9)" />
<use xlink:href="#f0_c" transform="matrix(12,0,0,12,261.3,550.3)" />
<use xlink:href="#f0_m" transform="matrix(12,0,0,12,267.1,550.3)" />
<use xlink:href="#f0_8" transform="matrix(12,0,0,12,272,550.3)" />
<use xlink:href="#f0_e" transform="matrix(12,0,0,12,284,550.3)" />
<use xlink:href="#f0_q" transform="matrix(12,0,0,12,289,550.3)" />
<use xlink:href="#f0_h" transform="matrix(12,0,0,12,307.1,550.3)" />
<use xlink:href="#f0_d" transform="matrix(12,0,0,12,318.5,550.3)" />
<use xlink:href="#f0_7" transform="matrix(12,0,0,12,322.6,550.3)" />
<use xlink:href="#f0_z" transform="matrix(12,0,0,12,335.1,550.3)" />
<use xlink:href="#f0_8" transform="matrix(12,0,0,12,346.9,550.3)" />
<use xlink:href="#f0_6" transform="matrix(12,0,0,12,358.9,550.3)" />
<use xlink:href="#f0_s" transform="matrix(12,0,0,12,377.9,550.3)" />
<use xlink:href="#f0_k" transform="matrix(12,0,0,12,387.6,550.3)" />
<use xlink:href="#f0_8" transform="matrix(12,0,0,12,403.1,550.3)" />
<use xlink:href="#f0_e" transform="matrix(12,0,0,12,415.1,550.3)" />
<use xlink:href="#f0_4" transform="matrix(12,0,0,12,420.1,550.3)" />
<use xlink:href="#f0_j" transform="matrix(12,0,0,12,430.7,550.3)" />
<use xlink:href="#f0_o" transform="matrix(12,0,0,12,446.9,550.3)" />
<use xlink:href="#f0_d" transform="matrix(12,0,0,12,459.1,550.3)" />
<use xlink:href="#f0_7" transform="matrix(12,0,0,12,463.2,550.3)" />
<use xlink:href="#f0_h" transform="matrix(12,0,0,12,475.6,550.3)" />
<use xlink:href="#f0_g" transform="matrix(12,0,0,12,487,550.3)" />
<use xlink:href="#f0_o" transform="matrix(12,0,0,12,504.4,550.3)" />
<use xlink:href="#f0_d" transform="matrix(12,0,0,12,516.6,550.3)" />
<use xlink:href="#f0_q" transform="matrix(12,0,0,12,520.7,550.3)" />
<use xlink:href="#f0_4" transform="matrix(12,0,0,12,532.9,550.3)" />
<use xlink:href="#f0_3" transform="matrix(12,0,0,12,543.5,550.3)" />
<use xlink:href="#f0_o" transform="matrix(12,0,0,12,561.2,550.3)" />
<use xlink:href="#f0_d" transform="matrix(12,0,0,12,573.4,550.3)" />
<use xlink:href="#f0_i" transform="matrix(12,0,0,12,577.5,550.3)" />
<use xlink:href="#f0_j" transform="matrix(12,0,0,12,590.5,550.3)" />
<use xlink:href="#f0_g" transform="matrix(12,0,0,12,600.9,550.3)" />
<use xlink:href="#f0_4" transform="matrix(12,0,0,12,612.3,550.3)" />
<use xlink:href="#f0_4" transform="matrix(12,0,0,12,628.7,550.3)" />
<use xlink:href="#f0_e" transform="matrix(12,0,0,12,639.2,550.3)" />
<use xlink:href="#f0_6" transform="matrix(12,0,0,12,644.3,550.3)" />
<use xlink:href="#f0_e" transform="matrix(12,0,0,12,663,550.3)" />
<use xlink:href="#f0_h" transform="matrix(12,0,0,12,668.1,550.3)" />
<use xlink:href="#f0_d" transform="matrix(12,0,0,12,679.5,550.3)" />
<use xlink:href="#f0_g" transform="matrix(12,0,0,12,683.6,550.3)" />
<use xlink:href="#f0_e" transform="matrix(12,0,0,12,695.1,550.3)" />
<use xlink:href="#f0_d" transform="matrix(12,0,0,12,700,550.3)" />
<use xlink:href="#f0_m" transform="matrix(12,0,0,12,710,550.3)" />
<use xlink:href="#f0_3" transform="matrix(12,0,0,12,715,550.3)" />
<use xlink:href="#f0_15" transform="matrix(12,0,0,12,732.8,550.3)" />
<use xlink:href="#f0_8" transform="matrix(12,0,0,12,738.6,550.3)" />
<use xlink:href="#f0_h" transform="matrix(12,0,0,12,750.6,550.3)" />
<use xlink:href="#f0_k" transform="matrix(12,0,0,12,762.1,550.3)" />
<use xlink:href="#f0_c" transform="matrix(12,0,0,12,239.7,571.7)" />
<use xlink:href="#f0_3" transform="matrix(12,0,0,12,245.5,571.7)" />
<use xlink:href="#f0_4" transform="matrix(12,0,0,12,257.4,571.7)" />
<use xlink:href="#f0_i" transform="matrix(12,0,0,12,268,571.7)" />
<use xlink:href="#f0_b" transform="matrix(12,0,0,12,280.9,571.7)" />
<use xlink:href="#f0_e" transform="matrix(12,0,0,12,288.1,571.7)" />
<use xlink:href="#f0_j" transform="matrix(12,0,0,12,299.1,571.7)" />
<use xlink:href="#f0_k" transform="matrix(12,0,0,12,309.3,571.7)" />
<use xlink:href="#f0_l" transform="matrix(12,0,0,12,319,571.7)" />
<use xlink:href="#f0_m" transform="matrix(12,0,0,12,331.3,571.7)" />
<use xlink:href="#f0_d" transform="matrix(12,0,0,12,336.2,571.7)" />
<use xlink:href="#f0_4" transform="matrix(12,0,0,12,340.3,571.7)" />
<use xlink:href="#f0_m" transform="matrix(12,0,0,12,356.8,571.7)" />
<use xlink:href="#f0_d" transform="matrix(12,0,0,12,361.8,571.7)" />
<use xlink:href="#f0_n" transform="matrix(12,0,0,12,365.9,571.7)" />
<use xlink:href="#f0_4" transform="matrix(12,0,0,12,377.9,571.7)" />
<use xlink:href="#f0_3" transform="matrix(12,0,0,12,388.4,571.7)" />
<use xlink:href="#f0_9" transform="matrix(12,0,0,12,400.3,571.7)" />
<use xlink:href="#f0_e" transform="matrix(12,0,0,12,410.7,571.7)" />
<use xlink:href="#f0_o" transform="matrix(12,0,0,12,421.5,571.7)" />
<use xlink:href="#f0_d" transform="matrix(12,0,0,12,433.7,571.7)" />
<use xlink:href="#f0_z" transform="matrix(12,0,0,12,437.9,571.7)" />
<use xlink:href="#f0_e" transform="matrix(12,0,0,12,449.8,571.7)" />
<use xlink:href="#f0_6" transform="matrix(12,0,0,12,454.6,571.7)" />
<use xlink:href="#f0_g" transform="matrix(12,0,0,12,467.6,571.7)" />
<use xlink:href="#f0_o" transform="matrix(12,0,0,12,484.9,571.7)" />
<use xlink:href="#f0_d" transform="matrix(12,0,0,12,497.1,571.7)" />
<use xlink:href="#f0_z" transform="matrix(12,0,0,12,501.2,571.7)" />
<use xlink:href="#f0_g" transform="matrix(12,0,0,12,513.1,571.7)" />
<use xlink:href="#f0_6" transform="matrix(12,0,0,12,524.5,571.7)" />
<use xlink:href="#f0_7" transform="matrix(12,0,0,12,537.4,571.7)" />
<use xlink:href="#f0_8" transform="matrix(12,0,0,12,555.8,571.7)" />
<use xlink:href="#f0_e" transform="matrix(12,0,0,12,567.9,571.7)" />
<use xlink:href="#f0_b" transform="matrix(12,0,0,12,572.9,571.7)" />
<use xlink:href="#f0_4" transform="matrix(12,0,0,12,580.2,571.7)" />
<use xlink:href="#f0_9" transform="matrix(12,0,0,12,590.8,571.7)" />
<use xlink:href="#f0_9" transform="matrix(12,0,0,12,607,571.7)" />
<use xlink:href="#f0_r" transform="matrix(12,0,0,12,617.4,571.7)" />
<use xlink:href="#f0_e" transform="matrix(12,0,0,12,624.8,571.7)" />
<use xlink:href="#f0_f" transform="matrix(12,0,0,12,629.9,571.7)" />
<use xlink:href="#f0_7" transform="matrix(12,0,0,12,641.6,571.7)" />
<use xlink:href="#f0_3" transform="matrix(12,0,0,12,660.1,571.7)" />
<use xlink:href="#f0_8" transform="matrix(12,0,0,12,672,571.7)" />
<use xlink:href="#f0_q" transform="matrix(12,0,0,12,684,571.7)" />
<use xlink:href="#f0_8" transform="matrix(12,0,0,12,702.1,571.7)" />
<use xlink:href="#f0_h" transform="matrix(12,0,0,12,714.1,571.7)" />
<use xlink:href="#f0_k" transform="matrix(12,0,0,12,725.6,571.7)" />
<use xlink:href="#f0_j" transform="matrix(12,0,0,12,741.1,571.7)" />
<use xlink:href="#f0_4" transform="matrix(12,0,0,12,751.5,571.7)" />
<use xlink:href="#f0_k" transform="matrix(12,0,0,12,762.1,571.7)" />
<use xlink:href="#f0_o" transform="matrix(12,0,0,12,138.1,612.5)" />
<use xlink:href="#f0_d" transform="matrix(12,0,0,12,150.3,612.5)" />
<use xlink:href="#f0_9" transform="matrix(12,0,0,12,154.4,612.5)" />
<use xlink:href="#f0_d" transform="matrix(12,0,0,12,164.8,612.5)" />
<use xlink:href="#f0_7" transform="matrix(12,0,0,12,168.9,612.5)" />
<use xlink:href="#f0_4" transform="matrix(12,0,0,12,181.4,612.5)" />
<use xlink:href="#f0_j" transform="matrix(12,0,0,12,198.7,612.5)" />
<use xlink:href="#f0_k" transform="matrix(12,0,0,12,209,612.5)" />
<use xlink:href="#f0_l" transform="matrix(12,0,0,12,218.7,612.5)" />
<use xlink:href="#f0_d" transform="matrix(12,0,0,12,225.1,612.5)" />
<use xlink:href="#f0_3" transform="matrix(12,0,0,12,229.2,612.5)" />
<use xlink:href="#f0_9" transform="matrix(12,0,0,12,241.1,612.5)" />
<use xlink:href="#f0_d" transform="matrix(12,0,0,12,258.2,612.5)" />
<use xlink:href="#f0_a" transform="matrix(12,0,0,12,262.3,612.5)" />
<use xlink:href="#f0_k" transform="matrix(12,0,0,12,272.3,612.5)" />
<use xlink:href="#f0_15" transform="matrix(12,0,0,12,288.7,612.5)" />
<use xlink:href="#f0_j" transform="matrix(12,0,0,12,294.5,612.5)" />
<use xlink:href="#f0_g" transform="matrix(12,0,0,12,304.9,612.5)" />
<use xlink:href="#f0_f" transform="matrix(12,0,0,12,316.3,612.5)" />
<use xlink:href="#f0_3" transform="matrix(12,0,0,12,328.2,612.5)" />
<use xlink:href="#f0_14" transform="matrix(12,0,0,12,346.8,612.5)" />
<use xlink:href="#f0_e" transform="matrix(12,0,0,12,358.6,612.5)" />
<use xlink:href="#f0_f" transform="matrix(12,0,0,12,363.6,612.5)" />
<use xlink:href="#f0_4" transform="matrix(12,0,0,12,375.5,612.5)" />
<use xlink:href="#f0_h" transform="matrix(12,0,0,12,392.7,612.5)" />
<use xlink:href="#f0_d" transform="matrix(12,0,0,12,404.2,612.5)" />
<use xlink:href="#f0_g" transform="matrix(12,0,0,12,408.3,612.5)" />
<use xlink:href="#f0_e" transform="matrix(12,0,0,12,419.7,612.5)" />
<use xlink:href="#f0_7" transform="matrix(12,0,0,12,424.7,612.5)" />
<use xlink:href="#f0_3" transform="matrix(12,0,0,12,437.2,612.5)" />
<use xlink:href="#f0_m" transform="matrix(12,0,0,12,455.8,612.5)" />
<use xlink:href="#f0_e" transform="matrix(12,0,0,12,460.7,612.5)" />
<use xlink:href="#f0_9" transform="matrix(12,0,0,12,465.8,612.5)" />
<use xlink:href="#f0_d" transform="matrix(12,0,0,12,476.2,612.5)" />
<use xlink:href="#f0_7" transform="matrix(12,0,0,12,480.3,612.5)" />
<use xlink:href="#f0_4" transform="matrix(12,0,0,12,492.8,612.5)" />
<use xlink:href="#f0_6" transform="matrix(12,0,0,12,510,612.5)" />
<use xlink:href="#f0_7" transform="matrix(12,0,0,12,523,612.5)" />
<use xlink:href="#f0_8" transform="matrix(12,0,0,12,535.5,612.5)" />
<use xlink:href="#f0_6" transform="matrix(12,0,0,12,547.5,612.5)" />
<use xlink:href="#f0_3" transform="matrix(12,0,0,12,560.5,612.5)" />
<use xlink:href="#f0_9" transform="matrix(12,0,0,12,572.4,612.5)" />
<use xlink:href="#f0_u" transform="matrix(12,0,0,12,589.5,612.5)" />
<use xlink:href="#f0_9" transform="matrix(12,0,0,12,599.4,612.5)" />
<use xlink:href="#f0_7" transform="matrix(12,0,0,12,609.8,612.5)" />
<use xlink:href="#f0_e" transform="matrix(12,0,0,12,622.2,612.5)" />
<use xlink:href="#f0_7" transform="matrix(12,0,0,12,627.2,612.5)" />
<use xlink:href="#f0_15" transform="matrix(12,0,0,12,646.4,612.5)" />
<use xlink:href="#f0_o" transform="matrix(12,0,0,12,652.3,612.5)" />
<use xlink:href="#f0_d" transform="matrix(12,0,0,12,664.5,612.5)" />
<use xlink:href="#f0_9" transform="matrix(12,0,0,12,668.6,612.5)" />
<use xlink:href="#f0_e" transform="matrix(12,0,0,12,679,612.5)" />
<use xlink:href="#f0_r" transform="matrix(12,0,0,12,684,612.5)" />
<use xlink:href="#f0_j" transform="matrix(12,0,0,12,691.5,612.5)" />
<use xlink:href="#f0_8" transform="matrix(12,0,0,12,701.8,612.5)" />
<use xlink:href="#f0_4" transform="matrix(12,0,0,12,713.9,612.5)" />
<use xlink:href="#f0_9" transform="matrix(12,0,0,12,731.3,612.5)" />
<use xlink:href="#f0_9" transform="matrix(12,0,0,12,741.7,612.5)" />
<use xlink:href="#f0_k" transform="matrix(12,0,0,12,752.1,612.5)" />
<use xlink:href="#f0_k" transform="matrix(12,0,0,12,761.7,612.5)" />
<use xlink:href="#f0_o" transform="matrix(12,0,0,12,138,633.9)" />
<use xlink:href="#f0_d" transform="matrix(12,0,0,12,150,633.9)" />
<use xlink:href="#f0_g" transform="matrix(12,0,0,12,154.1,633.9)" />
<use xlink:href="#f0_a" transform="matrix(12,0,0,12,165.6,633.9)" />
<use xlink:href="#f0_4" transform="matrix(12,0,0,12,175.6,633.9)" />
<use xlink:href="#f0_4" transform="matrix(12,0,0,12,197,633.9)" />
<use xlink:href="#f0_e" transform="matrix(12,0,0,12,207.5,633.9)" />
<use xlink:href="#f0_j" transform="matrix(12,0,0,12,212.6,633.9)" />
<use xlink:href="#f0_9" transform="matrix(12,0,0,12,222.9,633.9)" />
<use xlink:href="#f0_h" transform="matrix(12,0,0,12,244,633.9)" />
<use xlink:href="#f0_d" transform="matrix(12,0,0,12,255.4,633.9)" />
<use xlink:href="#f0_g" transform="matrix(12,0,0,12,259.5,633.9)" />
<use xlink:href="#f0_e" transform="matrix(12,0,0,12,271,633.9)" />
<use xlink:href="#f0_7" transform="matrix(12,0,0,12,275.9,633.9)" />
<use xlink:href="#f0_e" transform="matrix(12,0,0,12,288.4,633.9)" />
<use xlink:href="#f0_j" transform="matrix(12,0,0,12,304.2,633.9)" />
<use xlink:href="#f0_d" transform="matrix(12,0,0,12,314.5,633.9)" />
<use xlink:href="#f0_k" transform="matrix(12,0,0,12,318.6,633.9)" />
<use xlink:href="#f0_7" transform="matrix(12,0,0,12,328.2,633.9)" />
<use xlink:href="#f0_3" transform="matrix(12,0,0,12,351.5,633.9)" />
<use xlink:href="#f0_8" transform="matrix(12,0,0,12,363.5,633.9)" />
<use xlink:href="#f0_q" transform="matrix(12,0,0,12,375.5,633.9)" />
<use xlink:href="#f0_6" transform="matrix(12,0,0,12,387.7,633.9)" />
<use xlink:href="#f0_o" transform="matrix(12,0,0,12,411.5,633.9)" />
<use xlink:href="#f0_d" transform="matrix(12,0,0,12,423.7,633.9)" />
<use xlink:href="#f0_9" transform="matrix(12,0,0,12,427.7,633.9)" />
<use xlink:href="#f0_d" transform="matrix(12,0,0,12,438.1,633.9)" />
<use xlink:href="#f0_7" transform="matrix(12,0,0,12,442.2,633.9)" />
<use xlink:href="#f0_j" transform="matrix(12,0,0,12,465.6,633.9)" />
<use xlink:href="#f0_p" transform="matrix(12,0,0,12,475.8,633.9)" />
<use xlink:href="#f0_e" transform="matrix(12,0,0,12,486.6,633.9)" />
<use xlink:href="#f0_q" transform="matrix(12,0,0,12,491.7,633.9)" />
<use xlink:href="#f0_e" transform="matrix(12,0,0,12,514.7,633.9)" />
<use xlink:href="#f0_9" transform="matrix(12,0,0,12,519.7,633.9)" />
<use xlink:href="#f0_d" transform="matrix(12,0,0,12,530.1,633.9)" />
<use xlink:href="#f0_k" transform="matrix(12,0,0,12,534.2,633.9)" />
<use xlink:href="#f0_d" transform="matrix(12,0,0,12,543.8,633.9)" />
<use xlink:href="#f0_o" transform="matrix(12,0,0,12,558.8,633.9)" />
<use xlink:href="#f0_d" transform="matrix(12,0,0,12,570.8,633.9)" />
<use xlink:href="#f0_9" transform="matrix(12,0,0,12,575,633.9)" />
<use xlink:href="#f0_e" transform="matrix(12,0,0,12,585.3,633.9)" />
<use xlink:href="#f0_r" transform="matrix(12,0,0,12,590.4,633.9)" />
<use xlink:href="#f0_j" transform="matrix(12,0,0,12,597.8,633.9)" />
<use xlink:href="#f0_8" transform="matrix(12,0,0,12,608.2,633.9)" />
<use xlink:href="#f0_3" transform="matrix(12,0,0,12,620.3,633.9)" />
<use xlink:href="#f0_9" transform="matrix(12,0,0,12,643.2,633.9)" />
<use xlink:href="#f0_k" transform="matrix(12,0,0,12,653.5,633.9)" />
<use xlink:href="#f0_c" transform="matrix(12,0,0,12,674,633.9)" />
<use xlink:href="#f0_8" transform="matrix(12,0,0,12,679.8,633.9)" />
<use xlink:href="#f0_n" transform="matrix(12,0,0,12,691.8,633.9)" />
<use xlink:href="#f0_k" transform="matrix(12,0,0,12,703.7,633.9)" />
<use xlink:href="#f0_6" transform="matrix(12,0,0,12,713.4,633.9)" />
<use xlink:href="#f0_m" transform="matrix(12,0,0,12,737.2,633.9)" />
<use xlink:href="#f0_8" transform="matrix(12,0,0,12,742.1,633.9)" />
<use xlink:href="#f0_e" transform="matrix(12,0,0,12,754.1,633.9)" />
<use xlink:href="#f0_q" transform="matrix(12,0,0,12,759.1,633.9)" />
<use xlink:href="#f0_u" transform="matrix(12,0,0,12,138.3,655.3)" />
<use xlink:href="#f0_9" transform="matrix(12,0,0,12,148.2,655.3)" />
<use xlink:href="#f0_7" transform="matrix(12,0,0,12,158.6,655.3)" />
<use xlink:href="#f0_e" transform="matrix(12,0,0,12,171.1,655.3)" />
<use xlink:href="#f0_7" transform="matrix(12,0,0,12,176,655.3)" />
<use xlink:href="#f0_e" transform="matrix(12,0,0,12,188.5,655.3)" />
<use xlink:href="#f0_15" transform="matrix(12,0,0,12,199.6,655.3)" />
<use xlink:href="#f0_3" transform="matrix(12,0,0,12,205.4,655.3)" />
<use xlink:href="#f0_b" transform="matrix(12,0,0,12,217.3,655.3)" />
<use xlink:href="#f0_e" transform="matrix(12,0,0,12,224.7,655.3)" />
<use xlink:href="#f0_6" transform="matrix(12,0,0,12,229.7,655.3)" />
<use xlink:href="#f0_q" transform="matrix(12,0,0,12,242.7,655.3)" />
<use xlink:href="#f0_j" transform="matrix(12,0,0,12,254.9,655.3)" />
<use xlink:href="#f0_3" transform="matrix(12,0,0,12,265.3,655.3)" />
<use xlink:href="#f0_o" transform="matrix(12,0,0,12,283.4,655.3)" />
<use xlink:href="#f0_h" transform="matrix(12,0,0,12,295.6,655.3)" />
<use xlink:href="#f0_g" transform="matrix(12,0,0,12,307.1,655.3)" />
<use xlink:href="#f0_4" transform="matrix(12,0,0,12,318.5,655.3)" />
<use xlink:href="#f0_o" transform="matrix(12,0,0,12,335.1,655.3)" />
<use xlink:href="#f0_d" transform="matrix(12,0,0,12,347.3,655.3)" />
<use xlink:href="#f0_9" transform="matrix(12,0,0,12,351.4,655.3)" />
<use xlink:href="#f0_d" transform="matrix(12,0,0,12,361.8,655.3)" />
<use xlink:href="#f0_7" transform="matrix(12,0,0,12,365.8,655.3)" />
<use xlink:href="#f0_3" transform="matrix(12,0,0,12,378.3,655.3)" />
<use xlink:href="#f0_j" transform="matrix(12,0,0,12,396.3,655.3)" />
<use xlink:href="#f0_p" transform="matrix(12,0,0,12,406.7,655.3)" />
<use xlink:href="#f0_e" transform="matrix(12,0,0,12,417.5,655.3)" />
<use xlink:href="#f0_q" transform="matrix(12,0,0,12,422.6,655.3)" />
<use xlink:href="#f0_9" transform="matrix(12,0,0,12,441,655.3)" />
<use xlink:href="#f0_k" transform="matrix(12,0,0,12,451.4,655.3)" />
<use xlink:href="#f0_8" transform="matrix(12,0,0,12,467.1,655.3)" />
<use xlink:href="#f0_q" transform="matrix(12,0,0,12,479.1,655.3)" />
<use xlink:href="#f0_j" transform="matrix(12,0,0,12,497.4,655.3)" />
<use xlink:href="#f0_e" transform="matrix(12,0,0,12,507.8,655.3)" />
<use xlink:href="#f0_k" transform="matrix(12,0,0,12,512.8,655.3)" />
<use xlink:href="#f0_l" transform="matrix(12,0,0,12,522.5,655.3)" />
<use xlink:href="#f0_8" transform="matrix(12,0,0,12,528.9,655.3)" />
<use xlink:href="#f0_q" transform="matrix(12,0,0,12,547,655.3)" />
<use xlink:href="#f0_9" transform="matrix(12,0,0,12,559.2,655.3)" />
<use xlink:href="#f0_6" transform="matrix(12,0,0,12,569.6,655.3)" />
<use xlink:href="#f0_j" transform="matrix(12,0,0,12,588.7,655.3)" />
<use xlink:href="#f0_e" transform="matrix(12,0,0,12,599.1,655.3)" />
<use xlink:href="#f0_j" transform="matrix(12,0,0,12,604.1,655.3)" />
<use xlink:href="#f0_4" transform="matrix(12,0,0,12,614.5,655.3)" />
<use xlink:href="#f0_s" transform="matrix(12,0,0,12,631.2,655.3)" />
<use xlink:href="#f0_q" transform="matrix(12,0,0,12,641,655.3)" />
<use xlink:href="#f0_15" transform="matrix(12,0,0,12,659.3,655.3)" />
<use xlink:href="#f0_j" transform="matrix(12,0,0,12,665.1,655.3)" />
<use xlink:href="#f0_8" transform="matrix(12,0,0,12,675.5,655.3)" />
<use xlink:href="#f0_e" transform="matrix(12,0,0,12,687.5,655.3)" />
<use xlink:href="#f0_d" transform="matrix(12,0,0,12,692.4,655.3)" />
<use xlink:href="#f0_o" transform="matrix(12,0,0,12,702.6,655.3)" />
<use xlink:href="#f0_d" transform="matrix(12,0,0,12,714.8,655.3)" />
<use xlink:href="#f0_7" transform="matrix(12,0,0,12,718.9,655.3)" />
<use xlink:href="#f0_a" transform="matrix(12,0,0,12,731.3,655.3)" />
<use xlink:href="#f0_e" transform="matrix(12,0,0,12,741.4,655.3)" />
<use xlink:href="#f0_i" transform="matrix(12,0,0,12,746.4,655.3)" />
<use xlink:href="#f0_3" transform="matrix(12,0,0,12,759.4,655.3)" />
<use xlink:href="#f0_c" transform="matrix(12,0,0,12,487.2,676.7)" />
<use xlink:href="#f0_9" transform="matrix(12,0,0,12,493,676.7)" />
<use xlink:href="#f0_k" transform="matrix(12,0,0,12,503.4,676.7)" />
<use xlink:href="#f0_e" transform="matrix(12,0,0,12,513,676.7)" />
<use xlink:href="#f0_8" transform="matrix(12,0,0,12,518.1,676.7)" />
<use xlink:href="#f0_6" transform="matrix(12,0,0,12,530.1,676.7)" />
<use xlink:href="#f0_9" transform="matrix(12,0,0,12,549,676.7)" />
<use xlink:href="#f0_k" transform="matrix(12,0,0,12,559.4,676.7)" />
<use xlink:href="#f0_k" transform="matrix(12,0,0,12,569,676.7)" />
<use xlink:href="#f0_8" transform="matrix(12,0,0,12,584.5,676.7)" />
<use xlink:href="#f0_q" transform="matrix(12,0,0,12,596.5,676.7)" />
<use xlink:href="#f0_l" transform="matrix(12,0,0,12,608.8,676.7)" />
<use xlink:href="#f0_9" transform="matrix(12,0,0,12,621.1,676.7)" />
<use xlink:href="#f0_k" transform="matrix(12,0,0,12,631.5,676.7)" />
<use xlink:href="#f0_4" transform="matrix(12,0,0,12,641.1,676.7)" />
<use xlink:href="#f0_o" transform="matrix(12,0,0,12,657.5,676.7)" />
<use xlink:href="#f0_r" transform="matrix(12,0,0,12,669.7,676.7)" />
<use xlink:href="#f0_j" transform="matrix(12,0,0,12,677.2,676.7)" />
<use xlink:href="#f0_8" transform="matrix(12,0,0,12,687.5,676.7)" />
<use xlink:href="#f0_9" transform="matrix(12,0,0,12,699.6,676.7)" />
<use xlink:href="#f0_3" transform="matrix(12,0,0,12,715.8,676.7)" />
<use xlink:href="#f0_f" transform="matrix(12,0,0,12,727.7,676.7)" />
<use xlink:href="#f0_b" transform="matrix(12,0,0,12,739.6,676.7)" />
<use xlink:href="#f0_8" transform="matrix(12,0,0,12,746.9,676.7)" />
<use xlink:href="#f0_6" transform="matrix(12,0,0,12,759,676.7)" />
<use xlink:href="#f0_s" transform="matrix(12,0,0,12,138.3,717.3)" />
<use xlink:href="#f0_9" transform="matrix(12,0,0,12,148,717.3)" />
<use xlink:href="#f0_6" transform="matrix(12,0,0,12,158.4,717.3)" />
<use xlink:href="#f0_o" transform="matrix(12,0,0,12,178.7,717.3)" />
<use xlink:href="#f0_d" transform="matrix(12,0,0,12,190.9,717.3)" />
<use xlink:href="#f0_9" transform="matrix(12,0,0,12,195,717.3)" />
<use xlink:href="#f0_d" transform="matrix(12,0,0,12,205.4,717.3)" />
<use xlink:href="#f0_7" transform="matrix(12,0,0,12,209.5,717.3)" />
<use xlink:href="#f0_3" transform="matrix(12,0,0,12,222,717.3)" />
<use xlink:href="#f0_j" transform="matrix(12,0,0,12,241.2,717.3)" />
<use xlink:href="#f0_p" transform="matrix(12,0,0,12,251.6,717.3)" />
<use xlink:href="#f0_e" transform="matrix(12,0,0,12,262.5,717.3)" />
<use xlink:href="#f0_q" transform="matrix(12,0,0,12,267.5,717.3)" />
<use xlink:href="#f0_e" transform="matrix(12,0,0,12,279.7,717.3)" />
<use xlink:href="#f0_j" transform="matrix(12,0,0,12,292.2,717.3)" />
<use xlink:href="#f0_8" transform="matrix(12,0,0,12,302.4,717.3)" />
<use xlink:href="#f0_e" transform="matrix(12,0,0,12,314.5,717.3)" />
<use xlink:href="#f0_d" transform="matrix(12,0,0,12,319.5,717.3)" />
<use xlink:href="#f0_o" transform="matrix(12,0,0,12,330.9,717.3)" />
<use xlink:href="#f0_d" transform="matrix(12,0,0,12,343.1,717.3)" />
<use xlink:href="#f0_7" transform="matrix(12,0,0,12,347.2,717.3)" />
<use xlink:href="#f0_k" transform="matrix(12,0,0,12,359.7,717.3)" />
<use xlink:href="#f0_n" transform="matrix(12,0,0,12,369.4,717.3)" />
<use xlink:href="#f0_e" transform="matrix(12,0,0,12,381.3,717.3)" />
<use xlink:href="#f0_8" transform="matrix(12,0,0,12,386.3,717.3)" />
<use xlink:href="#f0_7" transform="matrix(12,0,0,12,398.2,717.3)" />
<use xlink:href="#f0_o" transform="matrix(12,0,0,12,418.2,717.3)" />
<use xlink:href="#f0_d" transform="matrix(12,0,0,12,430.4,717.3)" />
<use xlink:href="#f0_z" transform="matrix(12,0,0,12,434.4,717.3)" />
<use xlink:href="#f0_g" transform="matrix(12,0,0,12,446.3,717.3)" />
<use xlink:href="#f0_6" transform="matrix(12,0,0,12,457.7,717.3)" />
<use xlink:href="#f0_7" transform="matrix(12,0,0,12,470.7,717.3)" />
<use xlink:href="#f0_j" transform="matrix(12,0,0,12,490.5,717.3)" />
<use xlink:href="#f0_e" transform="matrix(12,0,0,12,500.9,717.3)" />
<use xlink:href="#f0_p" transform="matrix(12,0,0,12,505.9,717.3)" />
<use xlink:href="#f0_d" transform="matrix(12,0,0,12,516.8,717.3)" />
<use xlink:href="#f0_9" transform="matrix(12,0,0,12,520.9,717.3)" />
<use xlink:href="#f0_e" transform="matrix(12,0,0,12,531.3,717.3)" />
<use xlink:href="#f0_m" transform="matrix(12,0,0,12,543.8,717.3)" />
<use xlink:href="#f0_d" transform="matrix(12,0,0,12,548.8,717.3)" />
<use xlink:href="#f0_4" transform="matrix(12,0,0,12,552.9,717.3)" />
<use xlink:href="#f0_3" transform="matrix(12,0,0,12,563.5,717.3)" />
<use xlink:href="#f0_9" transform="matrix(12,0,0,12,575.4,717.3)" />
<use xlink:href="#f0_a" transform="matrix(12,0,0,12,593,717.3)" />
<use xlink:href="#f0_7" transform="matrix(12,0,0,12,603.1,717.3)" />
<use xlink:href="#f0_9" transform="matrix(12,0,0,12,615.5,717.3)" />
<use xlink:href="#f0_8" transform="matrix(12,0,0,12,625.9,717.3)" />
<use xlink:href="#f0_15" transform="matrix(12,0,0,12,645.5,717.3)" />
<use xlink:href="#f0_o" transform="matrix(12,0,0,12,651.4,717.3)" />
<use xlink:href="#f0_d" transform="matrix(12,0,0,12,663.6,717.3)" />
<use xlink:href="#f0_q" transform="matrix(12,0,0,12,667.7,717.3)" />
<use xlink:href="#f0_4" transform="matrix(12,0,0,12,679.9,717.3)" />
<use xlink:href="#f0_3" transform="matrix(12,0,0,12,690.4,717.3)" />
<use xlink:href="#f0_o" transform="matrix(12,0,0,12,709.7,717.3)" />
<use xlink:href="#f0_d" transform="matrix(12,0,0,12,721.9,717.3)" />
<use xlink:href="#f0_i" transform="matrix(12,0,0,12,726,717.3)" />
<use xlink:href="#f0_j" transform="matrix(12,0,0,12,739,717.3)" />
<use xlink:href="#f0_g" transform="matrix(12,0,0,12,749.3,717.3)" />
<use xlink:href="#f0_4" transform="matrix(12,0,0,12,760.8,717.3)" />
<use xlink:href="#f0_c" transform="matrix(12,0,0,12,698.7,738.7)" />
<use xlink:href="#f0_j" transform="matrix(12,0,0,12,704.5,738.7)" />
<use xlink:href="#f0_4" transform="matrix(12,0,0,12,714.8,738.7)" />
<use xlink:href="#f0_r" transform="matrix(12,0,0,12,725.4,738.7)" />
<use xlink:href="#f0_d" transform="matrix(12,0,0,12,732.9,738.7)" />
<use xlink:href="#f0_e" transform="matrix(12,0,0,12,737,738.7)" />
<use xlink:href="#f0_s" transform="matrix(12,0,0,12,747.8,738.7)" />
<use xlink:href="#f0_9" transform="matrix(12,0,0,12,757.6,738.7)" />
<use xlink:href="#f0_d" transform="matrix(12,0,0,12,768,738.7)" />
<use xlink:href="#f0_1h" transform="matrix(12,0,0,12,137.7,1208.5)" />
</g>
</g>
<defs>
<path d="M154,0V454l138,56V0ZM722,0V454c0,0,0,161,-49,218c0,0,-48,57,-186,57H139V836H485c0,0,207,0,291,-93c0,0,83,-94,83,-318V0Z" 
id="f0_3"
transform="scale(0.001,-0.001)" />

<path d="M114,0l60,312c0,0,2,12,8,39c0,0,6,27,7,37c0,0,2,11,5,30c0,0,2,19,4,33c0,0,1,15,1,31c0,0,0,48,-35,146c0,0,-35,98,-98,208H228c0,0,3,-8,27,-67c0,0,25,-58,41,-117c0,0,21,53,50,90c0,0,29,37,57,57c0,0,29,21,65,32c0,0,37,11,65,14c0,0,28,3,67,3c0,0,300,0,300,-396V0H480V106H761V452c0,0,0,146,-46,215c0,0,-45,70,-118,70c0,0,-134,0,-198,-119c0,0,-36,-68,-67,-222c0,0,-2,-10,-6,-27L253,0Z" 
id="f0_7"
transform="scale(0.001,-0.001)" />

<path d="M66,0V106H322c0,0,75,0,127,23c0,0,53,23,82,67c0,0,29,43,42,98c0,0,13,54,13,124c0,0,0,70,-13,124c0,0,-13,55,-42,98c0,0,-29,44,-82,67c0,0,-52,23,-127,23H66V836H322c0,0,87,0,157,-24c0,0,70,-24,115,-64c0,0,45,-40,74,-94c0,0,30,-55,43,-113c0,0,13,-59,13,-123c0,0,0,-64,-13,-123c0,0,-13,-58,-43,-113c0,0,-29,-54,-74,-94C594,88,549,48,479,24C479,24,409,0,322,0Z" 
id="f0_k"
transform="scale(0.001,-0.001)" />

<path d="M399,-14c0,0,-341,0,-341,370c0,0,0,175,87,269c0,0,87,95,249,95c0,0,101,0,220,-23V501H573L541,625c0,0,-62,35,-149,35c0,0,-200,0,-200,-304c0,0,0,-158,61,-225c0,0,61,-67,189,-67c0,0,109,0,189,24V43C631,43,595,16,530,1c0,0,-64,-15,-131,-15Z" 
id="f1_16"
transform="scale(0.001,-0.001)" />

<path d="M289,-14c0,0,-179,0,-179,205V649L20,668v33H233V200c0,0,0,-128,120,-128c0,0,92,0,173,23V649L420,668v33H649V52L738,33V0H533l-6,57C527,57,474,28,405,7c0,0,-69,-21,-116,-21Z" 
id="f1_l"
transform="scale(0.001,-0.001)" />

<path d="M284,67c0,0,51,0,88,12c0,0,37,11,74,29V357l-98,-3c0,0,-100,-3,-135,-38c0,0,-35,-36,-35,-118c0,0,0,-131,106,-131ZM233,-14c0,0,-179,0,-179,208c0,0,0,70,27,116c0,0,27,46,87,70c0,0,60,24,173,27l105,3V519c0,0,0,73,-26,107c0,0,-27,34,-82,34c0,0,-75,0,-137,-35L176,538H134V691c0,0,121,26,213,26c0,0,115,0,169,-47c0,0,54,-47,54,-144V52L657,34V0H465L451,70c0,0,-85,-84,-218,-84Zm22,849v24l146,203H560v-27L296,835Z" 
id="f1_h"
transform="scale(0.001,-0.001)" />

<path d="M439,0V33l93,19V500c0,0,0,62,-30,97c0,0,-31,36,-94,36c0,0,-67,0,-165,-22V52L338,33V0H35V33l84,19V649L35,668v33H235l7,-57c0,0,57,33,122,54c0,0,65,22,108,22c0,0,91,0,137,-53c0,0,47,-53,47,-154V52L741,33V0Z" 
id="f1_m"
transform="scale(0.001,-0.001)" />

<path d="M249,-14c0,0,-71,0,-107,42c0,0,-35,42,-35,119V639H15v33l93,29l76,159h47V701H391V639H231V161c0,0,0,-48,22,-73c0,0,22,-24,57,-24c0,0,44,0,106,12V26C416,26,389,8,340,-2c0,0,-49,-12,-91,-12Z" 
id="f1_g"
transform="scale(0.001,-0.001)" />

<path d="M377,45c0,0,99,0,147,73c0,0,47,73,47,237c0,0,0,161,-47,233c0,0,-47,72,-147,72c0,0,-97,0,-141,-69c0,0,-44,-69,-44,-236c0,0,0,-169,45,-240c0,0,44,-70,140,-70Zm0,-59c0,0,-158,0,-238,94c0,0,-81,95,-81,274c0,0,0,178,81,272c0,0,80,94,244,94c0,0,160,0,241,-92c0,0,82,-92,82,-274c0,0,0,-368,-329,-368Z" 
id="f1_4"
transform="scale(0.001,-0.001)" />

<path d="M0,955v112H111V955Z" 
id="f0_x"
transform="scale(0.001,-0.001)" />

<path d="M139,0V836H278V0Z" 
id="f0_e"
transform="scale(0.001,-0.001)" />

<path d="M522,-20c0,0,-196,0,-290,99c0,0,-94,100,-94,324V836H276V397c0,0,0,-86,16,-147c0,0,17,-60,50,-94c0,0,34,-34,77,-49c0,0,43,-15,103,-15c0,0,59,0,102,15c0,0,44,15,77,49c0,0,33,34,50,94c0,0,17,61,17,147c0,0,0,84,-8,143c0,0,-7,58,-25,105c0,0,-17,47,-51,69c0,0,-33,23,-83,23c0,0,-50,0,-119,-22V821c0,0,85,23,150,23c0,0,76,0,130,-30c0,0,53,-31,85,-90c0,0,31,-59,45,-138c0,0,13,-78,13,-183c0,0,0,-224,-93,-324c0,0,-94,-99,-290,-99Z" 
id="f0_z"
transform="scale(0.001,-0.001)" />

<path d="M433,-329v111H545V-329Zm0,185V-32H545V-144Z" 
id="f0_10"
transform="scale(0.001,-0.001)" />

<path d="M66,0V107H332V555c0,0,0,92,-37,133c0,0,-37,41,-116,41H85V836h94c0,0,153,0,223,-66c0,0,69,-66,69,-231V0Z" 
id="f0_b"
transform="scale(0.001,-0.001)" />

<path d="M433,-292v111H265V-69H713V-181H545V-292Z" 
id="f0_w"
transform="scale(0.001,-0.001)" />

<path d="M139,0V138c0,0,0,61,8,112c0,0,7,52,19,87c0,0,11,36,30,66c0,0,19,31,35,49c0,0,17,19,41,35c0,0,25,17,41,25c0,0,17,7,40,17L141,836H303L613,388c0,0,20,10,33,18c0,0,13,8,34,28c0,0,20,20,33,44c0,0,13,25,22,66c0,0,10,41,10,92V836H882V698c0,0,0,-61,-7,-112c0,0,-6,-52,-18,-88c0,0,-12,-36,-30,-66c0,0,-19,-30,-36,-49c0,0,-17,-18,-41,-34c0,0,-24,-17,-40,-25c0,0,-17,-8,-41,-17L882,0H720L409,448c0,0,-21,-11,-34,-19c0,0,-13,-8,-34,-27c0,0,-21,-20,-34,-44c0,0,-12,-25,-22,-66c0,0,-9,-41,-9,-92V0Z" 
id="f0_q"
transform="scale(0.001,-0.001)" />

<path d="M441,362V473H552V362Z" 
id="f0_12"
transform="scale(0.001,-0.001)" />

<path d="M156,-317V454l139,56V-317ZM505,0L806,729H139V835H967V753L650,0Z" 
id="f0_i"
transform="scale(0.001,-0.001)" />

<path d="M0,-141L388,1114H514L127,-141Z" 
id="f0_1m"
transform="scale(0.001,-0.001)" />

<path d="M736,107V473c0,0,0,147,-48,202c0,0,-49,54,-187,54H278V107ZM139,0V836H499c0,0,105,0,177,-22c0,0,72,-21,116,-69c0,0,44,-49,64,-119c0,0,19,-71,19,-174V0Z" 
id="f0_o"
transform="scale(0.001,-0.001)" />

<path d="M102,312V836H241V369L102,312Z" 
id="f0_d"
transform="scale(0.001,-0.001)" />

<path d="M139,0V106H400c0,0,176,0,253,71c0,0,78,72,78,250c0,0,0,163,-80,233c0,0,-81,69,-250,69H278L277,564c0,0,-1,-54,26,-80c0,0,27,-25,82,-25c0,0,30,0,80,9V355c0,0,-61,-12,-111,-12c0,0,-100,0,-157,55c0,0,-58,55,-58,186V836H456c0,0,193,0,303,-109c0,0,110,-109,110,-309c0,0,0,-200,-110,-309C759,109,648,0,456,0Z" 
id="f0_g"
transform="scale(0.001,-0.001)" />

<path d="M180,0L66,836H203L258,443c0,0,36,1,64,6c0,0,28,6,49,18c0,0,20,12,35,26c0,0,15,13,26,36c0,0,11,24,17,44c0,0,7,20,12,55c0,0,6,34,9,60c0,0,3,26,8,71c0,0,4,45,9,77H610c0,0,-13,-194,-31,-271c0,0,-31,-127,-111,-179c0,0,-71,-45,-196,-50L304,107c0,0,73,0,130,5c0,0,56,6,111,21c0,0,54,15,94,40c0,0,40,25,77,64c0,0,37,39,63,94c0,0,25,54,46,128c0,0,21,73,34,166c0,0,13,94,20,211h138c0,0,-14,-124,-29,-218c0,0,-16,-94,-39,-179c0,0,-22,-85,-50,-146c0,0,-28,-61,-68,-112c0,0,-39,-51,-87,-84C744,97,696,65,632,42C632,42,568,19,492,10C492,10,417,0,320,0Z" 
id="f0_6"
transform="scale(0.001,-0.001)" />

<path d="M112,-5c0,0,-39,0,-97,11V113c0,0,48,-10,77,-10c0,0,53,0,70,42c0,0,17,43,17,164V729H50V836H501c0,0,107,0,179,-25c0,0,72,-25,112,-77c0,0,40,-51,57,-118c0,0,16,-67,16,-164V0H726V454c0,0,0,55,-3,92c0,0,-4,37,-17,75c0,0,-14,38,-38,59c0,0,-24,22,-65,36c0,0,-42,13,-102,13H318V309c0,0,0,-160,-46,-237C272,72,226,-5,112,-5Z" 
id="f0_8"
transform="scale(0.001,-0.001)" />

<path d="M495,0V729H66V836H781V729H634V0Z" 
id="f0_a"
transform="scale(0.001,-0.001)" />

<path d="M71,-141V-15L289,62L66,836H210L416,109c0,0,99,42,153,98c0,0,53,56,80,155c0,0,26,98,26,262V836H817V624c0,0,0,-88,-7,-154c0,0,-7,-67,-25,-132c0,0,-18,-66,-51,-116c0,0,-33,-51,-84,-98c0,0,-50,-48,-123,-87c0,0,-72,-39,-169,-74L71,-141Z" 
id="f0_h"
transform="scale(0.001,-0.001)" />

<path d="M31,0V33L150,52v956L31,1026v34H274V52L394,33V0Z" 
id="f1_5"
transform="scale(0.001,-0.001)" />

<path d="M495,413c0,0,0,133,-34,190c0,0,-34,57,-105,57c0,0,-78,0,-119,-63c0,0,-42,-62,-42,-184ZM374,-14c0,0,-163,0,-239,87c0,0,-75,88,-75,283c0,0,0,183,77,273c0,0,76,91,219,91c0,0,269,0,269,-306V353H194V340c0,0,0,-103,23,-160c0,0,22,-57,70,-87c0,0,47,-29,124,-29c0,0,40,0,96,6c0,0,55,7,91,15V43C598,43,562,20,500,3c0,0,-61,-17,-126,-17Z" 
id="f1_e"
transform="scale(0.001,-0.001)" />

<path d="M278,-14c0,0,-52,0,-115,11c0,0,-63,10,-99,23V193H98L134,95c0,0,56,-50,146,-50c0,0,144,0,144,123c0,0,0,91,-114,130l-66,21c0,0,-75,25,-110,50c0,0,-34,26,-53,63c0,0,-18,36,-18,89c0,0,0,92,63,145c0,0,63,54,170,54c0,0,77,0,193,-23V544H454l-32,81c0,0,-39,35,-124,35c0,0,-61,0,-92,-30c0,0,-32,-30,-32,-80c0,0,0,-43,29,-72c0,0,28,-29,86,-48c0,0,110,-38,144,-55c0,0,33,-17,57,-42c0,0,23,-25,36,-57c0,0,13,-32,13,-79c0,0,0,-104,-66,-158c0,0,-66,-53,-195,-53Z" 
id="f1_f"
transform="scale(0.001,-0.001)" />

<path d="M522,92c0,0,247,0,247,333c0,0,0,88,-17,146c0,0,-17,58,-53,91c0,0,-35,33,-82,46c0,0,-48,14,-116,14H276V419c0,0,0,-327,246,-327Zm0,-112c0,0,-193,0,-289,109c0,0,-95,110,-95,337V836H501c0,0,213,0,309,-93c0,0,96,-94,96,-317c0,0,0,-227,-95,-337C811,89,715,-20,522,-20Z" 
id="f0_f"
transform="scale(0.001,-0.001)" />

<path d="M433,-329v111H545V-329Zm-93,185V-32H452V-144Zm186,0V-32H638V-144Z" 
id="f0_11"
transform="scale(0.001,-0.001)" />

<path d="M287,0L589,729H66v386H205V836l547,-1l-2,-82L433,0Z" 
id="f0_9"
transform="scale(0.001,-0.001)" />

<path d="M66,0V107H554V452c0,0,0,56,-4,93c0,0,-4,37,-18,75c0,0,-14,38,-40,60c0,0,-26,22,-71,36c0,0,-45,13,-110,13H66V836H312c0,0,91,0,157,-17c0,0,66,-17,109,-49c0,0,44,-32,69,-84c0,0,26,-52,36,-114c0,0,10,-62,10,-147V107H817V0Z" 
id="f0_4"
transform="scale(0.001,-0.001)" />

<path d="M359,-270c0,0,124,0,192,46c0,0,67,47,67,129c0,0,0,43,-26,67c0,0,-26,24,-79,24H242c0,0,-32,-27,-51,-69c0,0,-20,-41,-20,-77c0,0,0,-64,46,-92c0,0,46,-28,142,-28Zm11,561c0,0,81,0,115,47c0,0,34,47,34,141c0,0,0,100,-35,142c0,0,-35,42,-113,42c0,0,-78,0,-114,-43c0,0,-37,-42,-37,-141c0,0,0,-98,36,-143c0,0,36,-45,114,-45ZM359,-329c0,0,-143,0,-218,44c0,0,-75,43,-75,125c0,0,0,39,27,78c0,0,26,38,98,89c0,0,-43,14,-72,48c0,0,-29,35,-29,74L208,262c0,0,-118,55,-118,217c0,0,0,115,73,178c0,0,73,63,211,63c0,0,28,0,71,-6c0,0,44,-6,67,-13l165,83l26,-32L599,644c0,0,50,-56,50,-165c0,0,0,-120,-72,-182c0,0,-73,-62,-208,-62c0,0,-62,0,-114,11L208,148c0,0,2,-13,29,-24c0,0,27,-12,67,-12H512c0,0,113,0,168,-49c0,0,55,-49,55,-134c0,0,0,-79,-44,-137c0,0,-43,-58,-128,-90c0,0,-84,-31,-204,-31Z" 
id="f1_y"
transform="scale(0.001,-0.001)" />

<path d="M31,0V33l88,19V649L31,668v33H235l7,-87c0,0,44,37,121,71c0,0,76,35,121,35h11V530H463l-43,82c0,0,-37,0,-88,-10c0,0,-52,-10,-89,-26V52L363,33V0Z" 
id="f1_u"
transform="scale(0.001,-0.001)" />

<path d="M585,0V426c0,0,0,54,-8,98c0,0,-8,44,-27,83c0,0,-19,40,-49,66c0,0,-30,26,-77,41c0,0,-47,15,-108,15H66V836H315c0,0,94,0,166,-20c0,0,71,-20,116,-54c0,0,46,-35,75,-88c0,0,28,-52,40,-112c0,0,12,-60,12,-137V0Z" 
id="f0_j"
transform="scale(0.001,-0.001)" />

<path d="M139,0V836H485c0,0,206,0,290,-90c0,0,84,-89,84,-294V0H721V473c0,0,0,147,-49,202c0,0,-48,54,-186,54H277V0Z" 
id="f0_n"
transform="scale(0.001,-0.001)" />

<path d="M138,-7c0,0,-34,0,-72,10V129c0,0,25,-8,52,-8c0,0,33,0,58,5c0,0,26,5,58,24c0,0,33,20,53,54c0,0,21,34,36,97c0,0,15,64,15,151c0,0,0,113,-19,173c0,0,-19,60,-56,82c0,0,-38,22,-107,22H89V836h72c0,0,165,0,240,-91c0,0,76,-91,76,-293c0,0,0,-107,26,-227c0,0,25,-119,83,-225H437c0,0,-43,101,-62,184c0,0,-24,-60,-51,-99c0,0,-26,-38,-56,-58C268,27,239,7,209,0c0,0,-30,-7,-71,-7Z" 
id="f0_r"
transform="scale(0.001,-0.001)" />

<path d="M32,0V33L151,52V649L52,668v33H275V52L395,33V0ZM201,850c0,0,-32,0,-56,24c0,0,-24,24,-24,56c0,0,0,34,24,58c0,0,24,24,56,24c0,0,34,0,58,-24c0,0,24,-24,24,-58c0,0,0,-32,-24,-56c0,0,-24,-24,-58,-24Z" 
id="f1_s"
transform="scale(0.001,-0.001)" />

<path d="M284,67c0,0,51,0,88,12c0,0,37,12,74,30V358l-98,-3c0,0,-100,-4,-135,-39c0,0,-35,-35,-35,-117c0,0,0,-132,106,-132ZM233,-14c0,0,-179,0,-179,208c0,0,0,70,27,116c0,0,27,46,87,70c0,0,60,24,173,27l105,3V519c0,0,0,72,-26,107c0,0,-27,34,-82,34c0,0,-75,0,-137,-35L176,538H134V691c0,0,121,26,213,26c0,0,115,0,169,-47c0,0,54,-47,54,-144V52L657,33V0H465L451,70c0,0,-85,-84,-218,-84Z" 
id="f1_6"
transform="scale(0.001,-0.001)" />

<path d="M433,-241v111H545V-241Z" 
id="f0_13"
transform="scale(0.001,-0.001)" />

<path d="M360,-14L72,649L0,668v33H327V668L216,648L420,164L615,649L504,668v33H764V668L697,652L416,-14Z" 
id="f1_v"
transform="scale(0.001,-0.001)" />

<path d="M289,-14c0,0,-179,0,-179,205V649L20,668v33H233V200c0,0,0,-128,120,-128c0,0,92,0,173,23V649L420,668v33H649V52L738,34V0H533l-6,57C527,57,474,28,405,6c0,0,-69,-20,-116,-20ZM251,815c0,0,-31,0,-53,23c0,0,-23,22,-23,53c0,0,0,31,23,53c0,0,24,21,53,21c0,0,31,0,52,-21c0,0,21,-22,21,-53c0,0,0,-32,-21,-54c0,0,-21,-22,-52,-22Zm265,0c0,0,-31,0,-53,23c0,0,-21,24,-21,53c0,0,0,31,21,53c0,0,22,21,53,21c0,0,32,0,52,-21c0,0,21,-22,21,-53c0,0,0,-32,-21,-54c0,0,-20,-22,-52,-22Z" 
id="f1_1q"
transform="scale(0.001,-0.001)" />

<path d="M41,0V34L426,641H261c0,0,-42,0,-80,-7c0,0,-39,-7,-54,-19L104,515H69V701H586V665L201,60H407c0,0,42,0,89,10c0,0,47,10,66,25l39,147h35L617,0Z" 
id="f1_w"
transform="scale(0.001,-0.001)" />

<path d="M64,-325c0,0,-46,0,-107,14v148H-8l19,-81c0,0,25,-21,62,-21c0,0,44,0,67,47c0,0,22,47,22,152V649L57,668v33H286V-28c0,0,0,-146,-57,-221c0,0,-56,-76,-165,-76ZM213,850c0,0,-34,0,-58,24c0,0,-24,24,-24,56c0,0,0,34,24,58c0,0,24,24,58,24c0,0,32,0,56,-24c0,0,24,-24,24,-58c0,0,0,-32,-24,-56c0,0,-24,-24,-56,-24Z" 
id="f1_14"
transform="scale(0.001,-0.001)" />

<path d="M431,0V33L535,52V499c0,0,0,62,-32,96c0,0,-32,33,-95,33c0,0,-66,0,-163,-22V52L350,33V0H32V33l89,19V649L32,668v33H237l6,-57c0,0,56,32,119,54c0,0,62,22,110,22c0,0,52,0,95,-20c0,0,44,-19,66,-62c0,0,57,32,134,57c0,0,77,25,128,25c0,0,179,0,179,-207V52l90,-19V0H846V33L950,52V499c0,0,0,129,-119,129c0,0,-19,0,-45,-3c0,0,-26,-3,-52,-7c0,0,-25,-4,-49,-8c0,0,-23,-5,-39,-8c0,0,13,-41,13,-89V52L764,33V0Z" 
id="f1_c"
transform="scale(0.001,-0.001)" />

<path d="M383,64c0,0,85,0,152,28V645c0,0,-67,13,-152,13c0,0,-194,0,-194,-314c0,0,0,-141,48,-211c0,0,48,-69,146,-69ZM342,-14c0,0,-287,0,-287,358c0,0,0,184,82,280c0,0,81,96,239,96c0,0,81,0,163,-18c0,0,-4,25,-4,124v182l-118,18v34H659V52L745,33V0H548l-9,52c0,0,-84,-66,-197,-66Z" 
id="f1_q"
transform="scale(0.001,-0.001)" />

<path d="M35,0V34l84,18V649L35,668v33H235l7,-56c0,0,57,32,122,54c0,0,65,21,108,21c0,0,91,0,137,-53c0,0,47,-53,47,-154V52L741,34V0H439V34l93,18V500c0,0,0,62,-30,97c0,0,-31,36,-94,36c0,0,-67,0,-165,-22V52L338,34V0ZM481,834c0,0,-36,0,-66,16c0,0,-30,16,-57,36c0,0,-27,20,-52,36c0,0,-25,16,-49,16c0,0,-24,0,-39,-9c0,0,-14,-9,-23,-26c0,0,-8,-17,-13,-54H143c0,0,11,180,146,180c0,0,36,0,66,-16c0,0,30,-16,57,-35c0,0,27,-20,52,-36c0,0,25,-16,49,-16c0,0,32,0,50,18c0,0,18,19,25,70h39c0,0,-12,-180,-146,-180Z" 
id="f1_10"
transform="scale(0.001,-0.001)" />

<path d="M442,0V33l93,19V504c0,0,0,129,-124,129c0,0,-70,0,-168,-22V52L338,33V0H31V33l88,19v956L15,1026v34H243V756c0,0,0,-77,-5,-112c0,0,54,31,122,53c0,0,68,23,115,23c0,0,91,0,137,-53c0,0,47,-53,47,-154V52L744,33V0Z" 
id="f1_13"
transform="scale(0.001,-0.001)" />

<path d="M376,50c0,0,103,0,149,80c0,0,46,81,46,240c0,0,0,137,-47,204c0,0,-48,67,-148,67c0,0,-44,0,-87,-7c0,0,-44,-8,-63,-17V62c0,0,63,-12,150,-12Zm3,-64c0,0,-64,0,-141,14c0,0,-78,14,-136,37v971L0,1026v34H226V809c0,0,0,-40,-4,-148c0,0,74,59,188,59c0,0,143,0,219,-87c0,0,77,-87,77,-263c0,0,0,-189,-84,-287c0,0,-84,-97,-243,-97Z" 
id="f1_r"
transform="scale(0.001,-0.001)" />

<path d="M377,44c0,0,99,0,147,73c0,0,47,73,47,237c0,0,0,161,-47,234c0,0,-47,72,-147,72c0,0,-97,0,-141,-69c0,0,-44,-70,-44,-237c0,0,0,-169,45,-239c0,0,44,-71,140,-71Zm0,-58c0,0,-158,0,-238,94c0,0,-81,95,-81,274c0,0,0,178,81,272c0,0,80,94,244,94c0,0,160,0,241,-92c0,0,82,-92,82,-274c0,0,0,-368,-329,-368ZM301,835v24l147,203H606v-27L342,835Z" 
id="f1_a"
transform="scale(0.001,-0.001)" />

<path d="M139,-317V836H278V-317Z" 
id="f0_m"
transform="scale(0.001,-0.001)" />

<path d="M354,-200c0,0,-112,175,-167,343c0,0,-56,170,-56,337c0,0,0,166,55,335c0,0,55,169,168,345H473c0,0,-100,-172,-148,-340c0,0,-48,-168,-48,-340c0,0,0,-173,48,-342c0,0,49,-168,148,-338Z" 
id="f0_17"
transform="scale(0.001,-0.001)" />

<path d="M122,-200c0,0,99,170,148,338c0,0,49,169,49,342c0,0,0,172,-49,340c0,0,-49,168,-148,340H241c0,0,112,-176,168,-345c0,0,55,-169,55,-335c0,0,0,-167,-55,-337c0,0,-56,-168,-168,-343Z" 
id="f0_18"
transform="scale(0.001,-0.001)" />

<path d="M147,700v414H274V700Z" 
id="f0_2"
transform="scale(0.001,-0.001)" />

<path d="M66,0V106H564L66,836H228L516,413c0,0,3,2,9,6c0,0,17,13,27,21c0,0,10,8,26,27c0,0,17,20,26,40c0,0,9,21,16,54c0,0,7,34,7,75V836H764V698c0,0,0,-55,-7,-102c0,0,-7,-47,-16,-79c0,0,-10,-33,-27,-62c0,0,-18,-29,-32,-46c0,0,-14,-17,-37,-35c0,0,-22,-17,-36,-25c0,0,-13,-8,-36,-20L767,53V0Z" 
id="f0_p"
transform="scale(0.001,-0.001)" />

<path d="M700,-317V454c0,0,0,155,-54,215c0,0,-54,60,-180,60H277V551c0,0,0,-55,26,-80c0,0,27,-26,82,-26c0,0,30,0,80,10V341c0,0,-61,-11,-111,-11c0,0,-100,0,-157,55c0,0,-58,55,-58,186V836H466c0,0,203,0,288,-91c0,0,85,-92,85,-293V-317Z" 
id="f0_14"
transform="scale(0.001,-0.001)" />

<path d="M204,-8c0,0,-9,0,-11,5c0,0,-2,5,-2,22V549c0,0,0,40,-4,56c0,0,-4,16,-15,22c0,0,-10,7,-39,7H90c0,0,-33,0,-52,33c0,0,-19,33,-19,90c0,0,0,53,15,98c0,0,16,44,35,44c0,0,12,0,12,-13V872c0,0,0,-27,31,-27h42c0,0,79,0,103,-20c0,0,23,-19,23,-83V67c0,0,0,-16,-8,-26c0,0,-9,-10,-33,-30c0,0,-25,-19,-35,-19Z" 
id="f2_5"
transform="scale(0.001,-0.001)" />

<path d="M13,0L67,212H274c0,0,15,0,19,4c0,0,5,4,5,13c0,0,0,6,-9,22c0,0,-9,16,-19,38c0,0,-11,21,-20,45c0,0,-8,24,-8,48c0,0,0,18,11,89c0,0,11,70,11,102c0,0,0,27,-16,45c0,0,-17,18,-37,18H188c0,0,-89,0,-89,117c0,0,0,52,15,99c0,0,15,47,30,47c0,0,18,0,18,-22c0,0,0,-19,10,-25c0,0,10,-7,39,-7h56c0,0,65,0,86,-15c0,0,21,-16,21,-56c0,0,0,-21,-5,-50c0,0,-38,-172,-38,-258c0,0,0,-63,11,-100c0,0,11,-37,46,-104c0,0,20,-38,20,-58c0,0,0,-16,-10,-74C398,130,388,72,369,0Z" 
id="f2_7"
transform="scale(0.001,-0.001)" />

<path d="M469,-18c0,0,-14,0,-14,15l2,7c0,0,20,43,20,158l-3,156l-2,119c0,0,0,65,19,109c0,0,19,44,60,88H110c0,0,-47,0,-69,34c0,0,-22,35,-22,109c0,0,0,50,16,85c0,0,16,36,35,36c0,0,14,0,14,-12L83,869c0,0,0,-13,7,-19c0,0,6,-5,23,-5H608c0,0,25,0,40,-14c0,0,15,-15,15,-38V686c0,0,0,-26,-4,-35c0,0,-3,-9,-11,-11c0,0,-42,-9,-56,-40c0,0,-15,-30,-15,-93c0,0,0,-56,12,-184c0,0,10,-129,10,-224c0,0,0,-24,-6,-37c0,0,-7,-13,-17,-25c0,0,-7,-6,-18,-12c0,0,-11,-7,-23,-13C535,12,523,5,512,0c0,0,-10,-5,-15,-8c0,0,-22,-10,-28,-10Z" 
id="f2_1m"
transform="scale(0.001,-0.001)" />

<path d="M102,-3c0,0,-26,0,-26,31c0,0,0,176,35,320c0,0,34,145,102,247c0,0,3,4,3,25c0,0,0,24,-19,37c0,0,-19,13,-79,15c0,0,-40,0,-61,35c0,0,-22,35,-22,95c0,0,0,39,14,67c0,0,14,29,32,29c0,0,20,0,20,-25c0,0,0,-28,32,-28h33c0,0,54,0,85,-25c0,0,30,-25,30,-68l-3,-52c0,0,0,-22,3,-31c0,0,76,71,104,109c0,0,29,37,36,75c0,0,55,7,82,7c0,0,154,0,239,-126c0,0,85,-127,85,-352c0,0,0,-99,-15,-200C812,182,798,81,774,0H335l42,214H652c0,0,25,0,37,5c0,0,11,4,21,18c0,0,10,14,17,36c0,0,7,22,12,56c0,0,5,34,5,64c0,0,0,247,-241,247c0,0,-337,0,-337,-609c0,0,0,-20,-5,-27c0,0,-6,-7,-22,-7Z" 
id="f2_6"
transform="scale(0.001,-0.001)" />

<path d="M235,-20c0,0,-31,0,-51,19c0,0,-21,18,-21,50c0,0,0,65,39,120c0,0,39,54,125,109c0,0,56,35,87,56c0,0,32,20,46,33c0,0,79,45,79,143c0,0,0,27,-7,65c0,0,-8,39,-27,49c0,0,-19,10,-85,10H110c0,0,-36,0,-53,21c0,0,-17,22,-25,71c0,0,-7,49,-7,134c0,0,0,62,27,122c0,0,8,15,8,34c0,0,0,23,-35,37c0,0,-21,7,-30,29c0,0,-9,22,-9,72c0,0,0,24,10,46c0,0,8,22,25,38c0,0,16,16,26,16c0,0,17,0,17,-14c0,0,0,-9,7,-17c0,0,7,-8,34,-14c0,0,65,-15,81,-26c0,0,15,-10,15,-31c0,0,0,-15,-15,-38c0,0,-15,-22,-33,-53c0,0,-19,-30,-34,-67c0,0,-15,-36,-15,-79c0,0,0,-43,14,-56c0,0,15,-14,54,-14H518c0,0,39,0,63,-17c0,0,23,-16,33,-53c0,0,10,-36,17,-89c0,0,6,-52,6,-93c0,0,0,-99,-9,-144c0,0,-9,-44,-40,-80c0,0,-31,-36,-110,-86c0,0,-112,-71,-138,-95c0,0,-26,-23,-36,-44c0,0,-9,-20,-9,-43c0,0,0,-11,5,-26c0,0,6,-15,6,-26c0,0,0,-32,-20,-50c0,0,-20,-19,-51,-19Z" 
id="f2_l"
transform="scale(0.001,-0.001)" />

<path d="M107,-18c0,0,-17,0,-17,18l3,9c0,0,23,48,23,124l-1,177c0,0,0,55,8,77c0,0,9,22,33,46c0,0,23,23,51,40c0,0,28,17,42,17c0,0,5,0,9,-3c0,0,5,-3,5,-8c0,0,0,-3,-11,-26c0,0,-14,-49,-14,-120l4,-223c0,0,0,-38,-9,-54c0,0,-8,-17,-32,-34C201,22,178,6,150,-5c0,0,-28,-13,-43,-13Zm547,0c0,0,-17,0,-17,18l2,10c0,0,10,38,10,109c0,0,0,79,-14,208c0,0,-15,128,-15,149c0,0,0,54,16,89c0,0,15,36,53,69H154c0,0,-35,0,-57,40c0,0,-21,40,-21,103c0,0,0,33,8,61c0,0,7,28,19,44c0,0,13,17,24,17c0,0,15,0,15,-13V869c0,0,0,-13,5,-19c0,0,5,-5,22,-5H718c0,0,50,0,50,-63V652c0,0,0,-21,-15,-30c0,0,-35,-24,-35,-77c0,0,0,-57,20,-169c0,0,27,-157,27,-272c0,0,0,-29,-6,-44c0,0,-6,-15,-17,-26c0,0,-12,-16,-47,-35L681,-9l-13,-6l-14,-3Z" 
id="f2_c"
transform="scale(0.001,-0.001)" />

<path d="M190,0V127H436V977L168,923v137l267,54H586V127H832V0Z" 
id="f0_16"
transform="scale(0.001,-0.001)" />

<path d="M117,-176L179,62V190H336V62L213,-176Z" 
id="f0_15"
transform="scale(0.001,-0.001)" />

<path d="M486,98c0,0,107,0,169,58c0,0,62,57,62,157c0,0,0,101,-62,159c0,0,-61,57,-169,57c0,0,-108,0,-169,-57c0,0,-62,-58,-62,-159c0,0,0,-100,62,-158c0,0,61,-57,169,-57Zm-1,549c0,0,97,0,152,49c0,0,54,48,54,135c0,0,0,87,-54,135c0,0,-55,49,-152,49c0,0,-97,0,-151,-49c0,0,-54,-48,-54,-135c0,0,0,-87,54,-135c0,0,54,-49,151,-49Zm0,-667c0,0,-184,0,-283,85c0,0,-98,86,-98,248c0,0,0,107,61,181c0,0,61,74,170,99c0,0,-97,24,-151,90c0,0,-54,67,-54,162c0,0,0,134,95,212c0,0,95,77,260,77c0,0,167,0,261,-77c0,0,95,-78,95,-212c0,0,0,-95,-54,-162c0,0,-54,-66,-151,-90c0,0,109,-25,170,-99c0,0,61,-74,61,-181c0,0,0,-162,-99,-248c0,0,-98,-85,-283,-85Z" 
id="f0_1i"
transform="scale(0.001,-0.001)" />

<path d="M486,98c0,0,117,0,175,114c0,0,59,115,59,344c0,0,0,230,-59,344c0,0,-58,115,-175,115c0,0,-117,0,-175,-115c0,0,-59,-114,-59,-344c0,0,0,-229,59,-344c0,0,58,-114,175,-114ZM485,-20c0,0,-187,0,-285,147c0,0,-99,148,-99,429c0,0,0,282,98,430c0,0,99,148,286,148c0,0,188,0,286,-148c0,0,99,-148,99,-430c0,0,0,-281,-99,-429c0,0,-98,-147,-286,-147Z" 
id="f0_1o"
transform="scale(0.001,-0.001)" />

<path d="M152,0V473c0,0,0,94,28,161c0,0,29,66,71,95H66V836H463V729H404c0,0,-65,0,-89,-57c0,0,-25,-58,-25,-199V0Z" 
id="f0_l"
transform="scale(0.001,-0.001)" />

<path d="M163,0V190H321V0Z" 
id="f0_c"
transform="scale(0.001,-0.001)" />

<path d="M543,-317V369c0,0,0,85,-8,143c0,0,-8,58,-27,101c0,0,-18,44,-51,69c0,0,-33,24,-80,36c0,0,-48,11,-117,11H66V836H257c0,0,125,0,205,-23c0,0,80,-23,130,-79c0,0,50,-56,70,-143c0,0,20,-86,20,-222V-317Z" 
id="f0_s"
transform="scale(0.001,-0.001)" />

<path d="M347,-317V284c0,0,0,59,-21,123c0,0,-21,64,-44,103c0,0,-23,40,-59,94L66,838H218L336,668c0,0,76,-109,120,-223c0,0,87,34,126,107c0,0,39,73,39,186v98H758V737c0,0,0,-82,-23,-152c0,0,-23,-69,-61,-116c0,0,-39,-47,-87,-78c0,0,-47,-31,-101,-45V-317Z" 
id="f0_u"
transform="scale(0.001,-0.001)" />

<path d="M280,0L660,987H125v127H841v-64L437,0Z" 
id="f0_1h"
transform="scale(0.001,-0.001)" />


</defs>
</svg>