<?xml version="1.0" encoding="UTF-8" standalone="no"?>
<!DOCTYPE svg PUBLIC "-//W3C//DTD SVG 1.1//EN"
"http://www.w3.org/Graphics/SVG/1.1/DTD/svg11.dtd">
<svg viewBox="0 0 909 1286" version="1.1" xmlns="http://www.w3.org/2000/svg" xmlns:xlink="http://www.w3.org/1999/xlink">
<defs>
<clipPath id="c0_18"><path d="M0,1286.2V0H909.4V1286.2Z" /></clipPath>
<style type="text/css"><![CDATA[
.g0_18{
fill: none;
stroke: #000000;
stroke-width: 0.7638889;
stroke-linecap: butt;
stroke-linejoin: round;
}
.g1_18{
fill: none;
stroke: #0000FF;
stroke-width: 1.0694444;
stroke-linecap: butt;
stroke-linejoin: miter;
}
]]></style>
</defs>
<g clip-path="url(#c0_18)">
<g fill="#000000" >
<use xlink:href="#f0_2" transform="matrix(13,0,0,13,137.7,128.6)" />
<use xlink:href="#f0_3" transform="matrix(13,0,0,13,152.8,128.6)" />
<use xlink:href="#f0_4" transform="matrix(13,0,0,13,160,128.6)" />
<use xlink:href="#f0_5" transform="matrix(13,0,0,13,172.6,128.6)" />
<use xlink:href="#f0_6" transform="matrix(13,0,0,13,183,128.6)" />
<use xlink:href="#f0_7" transform="matrix(13,0,0,13,195.1,128.6)" />
<use xlink:href="#f0_6" transform="matrix(13,0,0,13,202.6,128.6)" />
<use xlink:href="#f0_7" transform="matrix(13,0,0,13,214.6,128.6)" />
<use xlink:href="#f0_8" transform="matrix(13,0,0,13,222.1,128.6)" />
<use xlink:href="#f0_n" transform="matrix(13,0,0,13,242.6,128.6)" />
</g>
</g>
<path d="M128.6,133.8H780.8M128.6,177.3H780.8M128.6,199.5H780.8M128.6,221.6H780.8M128.6,265.1H780.8M128.6,308.7H780.8M128.6,348.1H780.8M128.9,133.4V348.5M454.7,133.4V348.5M780.4,133.4V348.5" class="g0_18" />
<g clip-path="url(#c0_18)">
<g fill="#000000" >
<use xlink:href="#f1_b" transform="matrix(12,0,0,12,463.5,151.3)" />
<use xlink:href="#f1_7" transform="matrix(12,0,0,12,475.4,151.3)" />
<use xlink:href="#f1_l" transform="matrix(12,0,0,12,499.6,151.3)" />
<use xlink:href="#f1_m" transform="matrix(12,0,0,12,511.8,151.3)" />
<use xlink:href="#f1_6" transform="matrix(12,0,0,12,522.2,151.3)" />
<use xlink:href="#f1_a" transform="matrix(12,0,0,12,538.9,151.3)" />
<use xlink:href="#f1_6" transform="matrix(12,0,0,12,549.5,151.3)" />
<use xlink:href="#f1_j" transform="matrix(12,0,0,12,554.5,151.3)" />
<use xlink:href="#f1_5" transform="matrix(12,0,0,12,567.5,151.3)" />
<use xlink:href="#f1_m" transform="matrix(12,0,0,12,579.4,151.3)" />
<use xlink:href="#f1_b" transform="matrix(12,0,0,12,601.4,151.3)" />
<use xlink:href="#f1_7" transform="matrix(12,0,0,12,613.3,151.3)" />
<use xlink:href="#f1_l" transform="matrix(12,0,0,12,637.5,151.3)" />
<use xlink:href="#f1_m" transform="matrix(12,0,0,12,649.8,151.3)" />
<use xlink:href="#f1_h" transform="matrix(12,0,0,12,671.7,151.3)" />
<use xlink:href="#f1_4" transform="matrix(12,0,0,12,683.2,151.3)" />
<use xlink:href="#f1_6" transform="matrix(12,0,0,12,693.1,151.3)" />
<use xlink:href="#f1_3" transform="matrix(12,0,0,12,698.1,151.3)" />
<use xlink:href="#f1_l" transform="matrix(12,0,0,12,713.8,151.3)" />
<use xlink:href="#f1_m" transform="matrix(12,0,0,12,726.1,151.3)" />
<use xlink:href="#f1_3" transform="matrix(12,0,0,12,748.2,151.3)" />
<use xlink:href="#f1_9" transform="matrix(12,0,0,12,752.3,151.3)" />
<use xlink:href="#f1_l" transform="matrix(12,0,0,12,759.6,151.3)" />
<use xlink:href="#f1_r" transform="matrix(12,0,0,12,714.4,172.6)" />
<use xlink:href="#f1_g" transform="matrix(12,0,0,12,720.2,172.6)" />
<use xlink:href="#f1_6" transform="matrix(12,0,0,12,732.2,172.6)" />
<use xlink:href="#f1_j" transform="matrix(12,0,0,12,737.3,172.6)" />
<use xlink:href="#f1_h" transform="matrix(12,0,0,12,750.2,172.6)" />
<use xlink:href="#f1_m" transform="matrix(12,0,0,12,761.7,172.6)" />
<use xlink:href="#f2_1o" transform="matrix(11,0,0,11,137.7,149.9)" />
<use xlink:href="#f2_3" transform="matrix(11,0,0,11,149.7,149.9)" />
<use xlink:href="#f2_c" transform="matrix(11,0,0,11,162.4,149.9)" />
<use xlink:href="#f2_j" transform="matrix(11,0,0,11,168.9,149.9)" />
<use xlink:href="#f2_n" transform="matrix(11,0,0,11,180.5,149.9)" />
<use xlink:href="#f2_b" transform="matrix(11,0,0,11,188.9,149.9)" />
<use xlink:href="#f2_1e" transform="matrix(11,0,0,11,197.7,149.9)" />
<use xlink:href="#f2_p" transform="matrix(11,0,0,11,206.2,149.9)" />
<use xlink:href="#f2_j" transform="matrix(11,0,0,11,214.6,149.9)" />
<use xlink:href="#f2_u" transform="matrix(11,0,0,11,226.3,149.9)" />
<use xlink:href="#f2_9" transform="matrix(11,0,0,11,234.7,149.9)" />
<use xlink:href="#f2_n" transform="matrix(11,0,0,11,242.1,149.9)" />
<use xlink:href="#f2_c" transform="matrix(11,0,0,11,250.4,149.9)" />
<use xlink:href="#f2_6" transform="matrix(11,0,0,11,257,149.9)" />
<use xlink:href="#f2_a" transform="matrix(11,0,0,11,264.4,149.9)" />
<use xlink:href="#f2_n" transform="matrix(11,0,0,11,274.2,149.9)" />
<use xlink:href="#f2_b" transform="matrix(11,0,0,11,282.6,149.9)" />
<use xlink:href="#f2_1e" transform="matrix(11,0,0,11,291.6,149.9)" />
<use xlink:href="#f2_p" transform="matrix(11,0,0,11,300,149.9)" />
<use xlink:href="#f2_j" transform="matrix(11,0,0,11,308.2,149.9)" />
<use xlink:href="#f2_x" transform="matrix(11,0,0,11,319.9,149.9)" />
<use xlink:href="#f2_6" transform="matrix(11,0,0,11,328.3,149.9)" />
<use xlink:href="#f2_7" transform="matrix(11,0,0,11,335.8,149.9)" />
<use xlink:href="#f2_9" transform="matrix(11,0,0,11,343.1,149.9)" />
<use xlink:href="#f2_a" transform="matrix(11,0,0,11,350.6,149.9)" />
<use xlink:href="#f2_m" transform="matrix(11,0,0,11,356.2,149.9)" />
<use xlink:href="#f1_r" transform="matrix(12,0,0,12,601.2,194.8)" />
<use xlink:href="#f1_e" transform="matrix(12,0,0,12,607,194.8)" />
<use xlink:href="#f1_6" transform="matrix(12,0,0,12,612,194.8)" />
<use xlink:href="#f1_j" transform="matrix(12,0,0,12,616.9,194.8)" />
<use xlink:href="#f1_3" transform="matrix(12,0,0,12,629.9,194.8)" />
<use xlink:href="#f1_m" transform="matrix(12,0,0,12,634,194.8)" />
<use xlink:href="#f1_b" transform="matrix(12,0,0,12,650.3,194.8)" />
<use xlink:href="#f1_n" transform="matrix(12,0,0,12,662.2,194.8)" />
<use xlink:href="#f1_6" transform="matrix(12,0,0,12,673.1,194.8)" />
<use xlink:href="#f1_d" transform="matrix(12,0,0,12,678.1,194.8)" />
<use xlink:href="#f1_l" transform="matrix(12,0,0,12,694.3,194.8)" />
<use xlink:href="#f1_m" transform="matrix(12,0,0,12,706.5,194.8)" />
<use xlink:href="#f1_2" transform="matrix(12,0,0,12,722.7,194.8)" />
<use xlink:href="#f1_q" transform="matrix(12,0,0,12,735,194.8)" />
<use xlink:href="#f1_3" transform="matrix(12,0,0,12,748.4,194.8)" />
<use xlink:href="#f1_9" transform="matrix(12,0,0,12,752.5,194.8)" />
<use xlink:href="#f1_l" transform="matrix(12,0,0,12,759.8,194.8)" />
<use xlink:href="#f2_1g" transform="matrix(11,0,0,11,137.7,193.4)" />
<use xlink:href="#f2_3" transform="matrix(11,0,0,11,149.7,193.4)" />
<use xlink:href="#f2_e" transform="matrix(11,0,0,11,162.4,193.4)" />
<use xlink:href="#f2_6" transform="matrix(11,0,0,11,167.1,193.4)" />
<use xlink:href="#f2_8" transform="matrix(11,0,0,11,174.4,193.4)" />
<use xlink:href="#f2_u" transform="matrix(11,0,0,11,187.5,193.4)" />
<use xlink:href="#f2_3" transform="matrix(11,0,0,11,196,193.4)" />
<use xlink:href="#f2_7" transform="matrix(11,0,0,11,204.4,193.4)" />
<use xlink:href="#f2_3" transform="matrix(11,0,0,11,211.8,193.4)" />
<use xlink:href="#f2_1e" transform="matrix(11,0,0,11,224.5,193.4)" />
<use xlink:href="#f2_p" transform="matrix(11,0,0,11,232.9,193.4)" />
<use xlink:href="#f2_b" transform="matrix(11,0,0,11,241.1,193.4)" />
<use xlink:href="#f2_9" transform="matrix(11,0,0,11,245.9,193.4)" />
<use xlink:href="#f2_a" transform="matrix(11,0,0,11,253.3,193.4)" />
<use xlink:href="#f2_3" transform="matrix(11,0,0,11,259,193.4)" />
<use xlink:href="#f2_i" transform="matrix(11,0,0,11,271.5,193.4)" />
<use xlink:href="#f2_3" transform="matrix(11,0,0,11,279.9,193.4)" />
<use xlink:href="#f2_a" transform="matrix(11,0,0,11,288.3,193.4)" />
<use xlink:href="#f2_8" transform="matrix(11,0,0,11,293.8,193.4)" />
<use xlink:href="#f2_b" transform="matrix(11,0,0,11,306.9,193.4)" />
<use xlink:href="#f2_a" transform="matrix(11,0,0,11,311.6,193.4)" />
<use xlink:href="#f2_m" transform="matrix(11,0,0,11,317.1,193.4)" />
<use xlink:href="#f1_r" transform="matrix(12,0,0,12,526,216.9)" />
<use xlink:href="#f1_b" transform="matrix(12,0,0,12,531.8,216.9)" />
<use xlink:href="#f1_d" transform="matrix(12,0,0,12,543.7,216.9)" />
<use xlink:href="#f1_3" transform="matrix(12,0,0,12,554.1,216.9)" />
<use xlink:href="#f1_h" transform="matrix(12,0,0,12,558.2,216.9)" />
<use xlink:href="#f1_n" transform="matrix(12,0,0,12,569.7,216.9)" />
<use xlink:href="#f1_g" transform="matrix(12,0,0,12,586.3,216.9)" />
<use xlink:href="#f1_d" transform="matrix(12,0,0,12,598.4,216.9)" />
<use xlink:href="#f1_a" transform="matrix(12,0,0,12,608.8,216.9)" />
<use xlink:href="#f1_q" transform="matrix(12,0,0,12,619.3,216.9)" />
<use xlink:href="#f1_l" transform="matrix(12,0,0,12,632.8,216.9)" />
<use xlink:href="#f1_m" transform="matrix(12,0,0,12,645,216.9)" />
<use xlink:href="#f1_l" transform="matrix(12,0,0,12,655.4,216.9)" />
<use xlink:href="#f1_g" transform="matrix(12,0,0,12,673.5,216.9)" />
<use xlink:href="#f1_d" transform="matrix(12,0,0,12,685.6,216.9)" />
<use xlink:href="#f1_a" transform="matrix(12,0,0,12,696,216.9)" />
<use xlink:href="#f1_q" transform="matrix(12,0,0,12,706.5,216.9)" />
<use xlink:href="#f1_l" transform="matrix(12,0,0,12,719.8,216.9)" />
<use xlink:href="#f1_m" transform="matrix(12,0,0,12,732,216.9)" />
<use xlink:href="#f1_3" transform="matrix(12,0,0,12,748.4,216.9)" />
<use xlink:href="#f1_9" transform="matrix(12,0,0,12,752.5,216.9)" />
<use xlink:href="#f1_l" transform="matrix(12,0,0,12,759.8,216.9)" />
<use xlink:href="#f2_1g" transform="matrix(11,0,0,11,137.7,215.6)" />
<use xlink:href="#f2_3" transform="matrix(11,0,0,11,149.7,215.6)" />
<use xlink:href="#f2_n" transform="matrix(11,0,0,11,162.4,215.6)" />
<use xlink:href="#f2_3" transform="matrix(11,0,0,11,170.8,215.6)" />
<use xlink:href="#f2_c" transform="matrix(11,0,0,11,183.4,215.6)" />
<use xlink:href="#f2_3" transform="matrix(11,0,0,11,190,215.6)" />
<use xlink:href="#f2_2" transform="matrix(11,0,0,11,198.4,215.6)" />
<use xlink:href="#f2_p" transform="matrix(11,0,0,11,210.9,215.6)" />
<use xlink:href="#f2_n" transform="matrix(11,0,0,11,219.3,215.6)" />
<use xlink:href="#f2_6" transform="matrix(11,0,0,11,227.7,215.6)" />
<use xlink:href="#f2_c" transform="matrix(11,0,0,11,239.3,215.6)" />
<use xlink:href="#f2_9" transform="matrix(11,0,0,11,245.9,215.6)" />
<use xlink:href="#f2_10" transform="matrix(11,0,0,11,253.3,215.6)" />
<use xlink:href="#f2_3" transform="matrix(11,0,0,11,261.7,215.6)" />
<use xlink:href="#f2_a" transform="matrix(11,0,0,11,270.1,215.6)" />
<use xlink:href="#f2_6" transform="matrix(11,0,0,11,275.8,215.6)" />
<use xlink:href="#f2_c" transform="matrix(11,0,0,11,287.3,215.6)" />
<use xlink:href="#f2_b" transform="matrix(11,0,0,11,293.9,215.6)" />
<use xlink:href="#f2_n" transform="matrix(11,0,0,11,298.5,215.6)" />
<use xlink:href="#f2_3" transform="matrix(11,0,0,11,306.9,215.6)" />
<use xlink:href="#f2_p" transform="matrix(11,0,0,11,319.6,215.6)" />
<use xlink:href="#f2_n" transform="matrix(11,0,0,11,328,215.6)" />
<use xlink:href="#f2_6" transform="matrix(11,0,0,11,336.4,215.6)" />
<use xlink:href="#f2_c" transform="matrix(11,0,0,11,347.9,215.6)" />
<use xlink:href="#f2_9" transform="matrix(11,0,0,11,354.5,215.6)" />
<use xlink:href="#f2_10" transform="matrix(11,0,0,11,362,215.6)" />
<use xlink:href="#f2_3" transform="matrix(11,0,0,11,370.4,215.6)" />
<use xlink:href="#f2_a" transform="matrix(11,0,0,11,378.8,215.6)" />
<use xlink:href="#f2_b" transform="matrix(11,0,0,11,384.3,215.6)" />
<use xlink:href="#f2_e" transform="matrix(11,0,0,11,389,215.6)" />
<use xlink:href="#f2_6" transform="matrix(11,0,0,11,393.7,215.6)" />
<use xlink:href="#f2_m" transform="matrix(11,0,0,11,401,215.6)" />
<use xlink:href="#f1_g" transform="matrix(12,0,0,12,463.4,239.1)" />
<use xlink:href="#f1_l" transform="matrix(12,0,0,12,475.4,239.1)" />
<use xlink:href="#f1_b" transform="matrix(12,0,0,12,501.8,239.1)" />
<use xlink:href="#f1_7" transform="matrix(12,0,0,12,513.7,239.1)" />
<use xlink:href="#f1_f" transform="matrix(12,0,0,12,540.4,239.1)" />
<use xlink:href="#f1_4" transform="matrix(12,0,0,12,546.2,239.1)" />
<use xlink:href="#f1_6" transform="matrix(12,0,0,12,556.3,239.1)" />
<use xlink:href="#f1_7" transform="matrix(12,0,0,12,561.2,239.1)" />
<use xlink:href="#f1_m" transform="matrix(12,0,0,12,573.7,239.1)" />
<use xlink:href="#f1_m" transform="matrix(12,0,0,12,584.1,239.1)" />
<use xlink:href="#f1_g" transform="matrix(12,0,0,12,608.8,239.1)" />
<use xlink:href="#f1_c" transform="matrix(12,0,0,12,620.9,239.1)" />
<use xlink:href="#f1_m" transform="matrix(12,0,0,12,630.5,239.1)" />
<use xlink:href="#f1_6" transform="matrix(12,0,0,12,640.9,239.1)" />
<use xlink:href="#f1_b" transform="matrix(12,0,0,12,645.9,239.1)" />
<use xlink:href="#f1_l" transform="matrix(12,0,0,12,672,239.1)" />
<use xlink:href="#f1_m" transform="matrix(12,0,0,12,684.2,239.1)" />
<use xlink:href="#f1_g" transform="matrix(12,0,0,12,708.9,239.1)" />
<use xlink:href="#f1_l" transform="matrix(12,0,0,12,721,239.1)" />
<use xlink:href="#f1_2" transform="matrix(12,0,0,12,747.4,239.1)" />
<use xlink:href="#f1_l" transform="matrix(12,0,0,12,759.6,239.1)" />
<use xlink:href="#f1_1b" transform="matrix(12,0,0,12,655.6,260.5)" />
<use xlink:href="#f1_g" transform="matrix(12,0,0,12,665.2,260.5)" />
<use xlink:href="#f1_6" transform="matrix(12,0,0,12,677.2,260.5)" />
<use xlink:href="#f1_j" transform="matrix(12,0,0,12,682.3,260.5)" />
<use xlink:href="#f1_h" transform="matrix(12,0,0,12,695.2,260.5)" />
<use xlink:href="#f1_m" transform="matrix(12,0,0,12,706.7,260.5)" />
<use xlink:href="#f1_g" transform="matrix(12,0,0,12,723,260.5)" />
<use xlink:href="#f1_c" transform="matrix(12,0,0,12,735.1,260.5)" />
<use xlink:href="#f1_m" transform="matrix(12,0,0,12,744.7,260.5)" />
<use xlink:href="#f1_6" transform="matrix(12,0,0,12,755.1,260.5)" />
<use xlink:href="#f1_b" transform="matrix(12,0,0,12,760.1,260.5)" />
<use xlink:href="#f2_1j" transform="matrix(11,0,0,11,137.7,237.7)" />
<use xlink:href="#f2_b" transform="matrix(11,0,0,11,147,237.7)" />
<use xlink:href="#f2_n" transform="matrix(11,0,0,11,156,237.7)" />
<use xlink:href="#f2_3" transform="matrix(11,0,0,11,164.4,237.7)" />
<use xlink:href="#f2_4" transform="matrix(11,0,0,11,176.9,237.7)" />
<use xlink:href="#f2_6" transform="matrix(11,0,0,11,185.3,237.7)" />
<use xlink:href="#f2_c" transform="matrix(11,0,0,11,192.8,237.7)" />
<use xlink:href="#f2_6" transform="matrix(11,0,0,11,203.4,237.7)" />
<use xlink:href="#f2_9" transform="matrix(11,0,0,11,215.2,237.7)" />
<use xlink:href="#f2_c" transform="matrix(11,0,0,11,222.5,237.7)" />
<use xlink:href="#f2_e" transform="matrix(11,0,0,11,229,237.7)" />
<use xlink:href="#f2_p" transform="matrix(11,0,0,11,233.8,237.7)" />
<use xlink:href="#f2_i" transform="matrix(11,0,0,11,242.2,237.7)" />
<use xlink:href="#f2_b" transform="matrix(11,0,0,11,250.4,237.7)" />
<use xlink:href="#f2_6" transform="matrix(11,0,0,11,255.1,237.7)" />
<use xlink:href="#f2_a" transform="matrix(11,0,0,11,262.6,237.7)" />
<use xlink:href="#f2_19" transform="matrix(11,0,0,11,268.1,237.7)" />
<use xlink:href="#f2_1e" transform="matrix(11,0,0,11,276.6,237.7)" />
<use xlink:href="#f2_p" transform="matrix(11,0,0,11,285,237.7)" />
<use xlink:href="#f2_j" transform="matrix(11,0,0,11,293.4,237.7)" />
<use xlink:href="#f2_4" transform="matrix(11,0,0,11,305,237.7)" />
<use xlink:href="#f2_6" transform="matrix(11,0,0,11,313.4,237.7)" />
<use xlink:href="#f2_c" transform="matrix(11,0,0,11,320.9,237.7)" />
<use xlink:href="#f2_6" transform="matrix(11,0,0,11,331.6,237.7)" />
<use xlink:href="#f2_x" transform="matrix(11,0,0,11,343.3,237.7)" />
<use xlink:href="#f2_6" transform="matrix(11,0,0,11,351.7,237.7)" />
<use xlink:href="#f2_7" transform="matrix(11,0,0,11,359,237.7)" />
<use xlink:href="#f2_9" transform="matrix(11,0,0,11,366.5,237.7)" />
<use xlink:href="#f2_a" transform="matrix(11,0,0,11,373.9,237.7)" />
<use xlink:href="#f2_12" transform="matrix(11,0,0,11,379.6,237.7)" />
<use xlink:href="#f1_g" transform="matrix(12,0,0,12,463.4,282.6)" />
<use xlink:href="#f1_l" transform="matrix(12,0,0,12,475.4,282.6)" />
<use xlink:href="#f1_2" transform="matrix(12,0,0,12,504.3,282.6)" />
<use xlink:href="#f1_q" transform="matrix(12,0,0,12,516.5,282.6)" />
<use xlink:href="#f1_6" transform="matrix(12,0,0,12,523.9,282.6)" />
<use xlink:href="#f1_t" transform="matrix(12,0,0,12,545.8,282.6)" />
<use xlink:href="#f1_m" transform="matrix(12,0,0,12,555.5,282.6)" />
<use xlink:href="#f1_j" transform="matrix(12,0,0,12,565.9,282.6)" />
<use xlink:href="#f1_g" transform="matrix(12,0,0,12,595.9,282.6)" />
<use xlink:href="#f1_6" transform="matrix(12,0,0,12,607.9,282.6)" />
<use xlink:href="#f1_3" transform="matrix(12,0,0,12,612.9,282.6)" />
<use xlink:href="#f1_9" transform="matrix(12,0,0,12,617,282.6)" />
<use xlink:href="#f1_a" transform="matrix(12,0,0,12,624.4,282.6)" />
<use xlink:href="#f1_q" transform="matrix(12,0,0,12,634.9,282.6)" />
<use xlink:href="#f1_h" transform="matrix(12,0,0,12,642.4,282.6)" />
<use xlink:href="#f1_b" transform="matrix(12,0,0,12,653.8,282.6)" />
<use xlink:href="#f1_g" transform="matrix(12,0,0,12,682.5,282.6)" />
<use xlink:href="#f1_l" transform="matrix(12,0,0,12,694.6,282.6)" />
<use xlink:href="#f1_3" transform="matrix(12,0,0,12,723.4,282.6)" />
<use xlink:href="#f1_m" transform="matrix(12,0,0,12,727.5,282.6)" />
<use xlink:href="#f1_j" transform="matrix(12,0,0,12,754.7,282.6)" />
<use xlink:href="#f1_3" transform="matrix(12,0,0,12,767.7,282.6)" />
<use xlink:href="#f1_r" transform="matrix(12,0,0,12,640.9,304)" />
<use xlink:href="#f1_t" transform="matrix(12,0,0,12,646.7,304)" />
<use xlink:href="#f1_m" transform="matrix(12,0,0,12,656.5,304)" />
<use xlink:href="#f1_j" transform="matrix(12,0,0,12,666.9,304)" />
<use xlink:href="#f1_2" transform="matrix(12,0,0,12,685.8,304)" />
<use xlink:href="#f1_3" transform="matrix(12,0,0,12,697.9,304)" />
<use xlink:href="#f1_9" transform="matrix(12,0,0,12,702,304)" />
<use xlink:href="#f1_6" transform="matrix(12,0,0,12,709.3,304)" />
<use xlink:href="#f1_k" transform="matrix(12,0,0,12,714.3,304)" />
<use xlink:href="#f1_k" transform="matrix(12,0,0,12,725.8,304)" />
<use xlink:href="#f1_m" transform="matrix(12,0,0,12,737.2,304)" />
<use xlink:href="#f1_7" transform="matrix(12,0,0,12,747.6,304)" />
<use xlink:href="#f1_b" transform="matrix(12,0,0,12,760.1,304)" />
<use xlink:href="#f2_r" transform="matrix(11,0,0,11,137.7,281.3)" />
<use xlink:href="#f2_9" transform="matrix(11,0,0,11,147.9,281.3)" />
<use xlink:href="#f2_n" transform="matrix(11,0,0,11,155.3,281.3)" />
<use xlink:href="#f2_q" transform="matrix(11,0,0,11,163.8,281.3)" />
<use xlink:href="#f2_3" transform="matrix(11,0,0,11,172.2,281.3)" />
<use xlink:href="#f2_e" transform="matrix(11,0,0,11,184.8,281.3)" />
<use xlink:href="#f2_p" transform="matrix(11,0,0,11,189.4,281.3)" />
<use xlink:href="#f2_c" transform="matrix(11,0,0,11,197.8,281.3)" />
<use xlink:href="#f2_e" transform="matrix(11,0,0,11,208.6,281.3)" />
<use xlink:href="#f2_3" transform="matrix(11,0,0,11,213.2,281.3)" />
<use xlink:href="#f2_8" transform="matrix(11,0,0,11,221.6,281.3)" />
<use xlink:href="#f2_6" transform="matrix(11,0,0,11,234.8,281.3)" />
<use xlink:href="#f2_e" transform="matrix(11,0,0,11,242.1,281.3)" />
<use xlink:href="#f2_9" transform="matrix(11,0,0,11,246.8,281.3)" />
<use xlink:href="#f2_c" transform="matrix(11,0,0,11,254.3,281.3)" />
<use xlink:href="#f2_2" transform="matrix(11,0,0,11,264.9,281.3)" />
<use xlink:href="#f2_e" transform="matrix(11,0,0,11,277.6,281.3)" />
<use xlink:href="#f2_p" transform="matrix(11,0,0,11,282.3,281.3)" />
<use xlink:href="#f2_c" transform="matrix(11,0,0,11,290.6,281.3)" />
<use xlink:href="#f2_u" transform="matrix(11,0,0,11,301.4,281.3)" />
<use xlink:href="#f2_9" transform="matrix(11,0,0,11,309.8,281.3)" />
<use xlink:href="#f2_u" transform="matrix(11,0,0,11,317.3,281.3)" />
<use xlink:href="#f2_b" transform="matrix(11,0,0,11,325.5,281.3)" />
<use xlink:href="#f2_n" transform="matrix(11,0,0,11,330.2,281.3)" />
<use xlink:href="#f2_3" transform="matrix(11,0,0,11,338.6,281.3)" />
<use xlink:href="#f2_c" transform="matrix(11,0,0,11,347.1,281.3)" />
<use xlink:href="#f2_e" transform="matrix(11,0,0,11,357.9,281.3)" />
<use xlink:href="#f2_6" transform="matrix(11,0,0,11,362.5,281.3)" />
<use xlink:href="#f2_8" transform="matrix(11,0,0,11,369.9,281.3)" />
<use xlink:href="#f2_o" transform="matrix(11,0,0,11,383,281.3)" />
<use xlink:href="#f2_b" transform="matrix(11,0,0,11,391.3,281.3)" />
<use xlink:href="#f2_j" transform="matrix(11,0,0,11,396,281.3)" />
<use xlink:href="#f2_n" transform="matrix(11,0,0,11,403.5,281.3)" />
<use xlink:href="#f2_m" transform="matrix(11,0,0,11,411.9,281.3)" />
<use xlink:href="#f1_r" transform="matrix(12,0,0,12,481.4,326.2)" />
<use xlink:href="#f1_2" transform="matrix(12,0,0,12,487.2,326.2)" />
<use xlink:href="#f1_g" transform="matrix(12,0,0,12,499.4,326.2)" />
<use xlink:href="#f1_l" transform="matrix(12,0,0,12,511.5,326.2)" />
<use xlink:href="#f1_3" transform="matrix(12,0,0,12,529.5,326.2)" />
<use xlink:href="#f1_7" transform="matrix(12,0,0,12,533.6,326.2)" />
<use xlink:href="#f1_l" transform="matrix(12,0,0,12,551.9,326.2)" />
<use xlink:href="#f1_m" transform="matrix(12,0,0,12,564.2,326.2)" />
<use xlink:href="#f1_6" transform="matrix(12,0,0,12,574.6,326.2)" />
<use xlink:href="#f1_2" transform="matrix(12,0,0,12,585.4,326.2)" />
<use xlink:href="#f1_b" transform="matrix(12,0,0,12,597.6,326.2)" />
<use xlink:href="#f1_3" transform="matrix(12,0,0,12,615.3,326.2)" />
<use xlink:href="#f1_7" transform="matrix(12,0,0,12,619.4,326.2)" />
<use xlink:href="#f1_l" transform="matrix(12,0,0,12,637.7,326.2)" />
<use xlink:href="#f1_m" transform="matrix(12,0,0,12,650,326.2)" />
<use xlink:href="#f1_2" transform="matrix(12,0,0,12,666.2,326.2)" />
<use xlink:href="#f1_3" transform="matrix(12,0,0,12,678.4,326.2)" />
<use xlink:href="#f1_h" transform="matrix(12,0,0,12,682.5,326.2)" />
<use xlink:href="#f1_4" transform="matrix(12,0,0,12,694,326.2)" />
<use xlink:href="#f1_6" transform="matrix(12,0,0,12,703.9,326.2)" />
<use xlink:href="#f1_3" transform="matrix(12,0,0,12,708.9,326.2)" />
<use xlink:href="#f1_l" transform="matrix(12,0,0,12,719,326.2)" />
<use xlink:href="#f1_m" transform="matrix(12,0,0,12,731.2,326.2)" />
<use xlink:href="#f1_6" transform="matrix(12,0,0,12,747.4,326.2)" />
<use xlink:href="#f1_9" transform="matrix(12,0,0,12,752.4,326.2)" />
<use xlink:href="#f1_l" transform="matrix(12,0,0,12,759.8,326.2)" />
<use xlink:href="#f2_1o" transform="matrix(11,0,0,11,137.7,324.8)" />
<use xlink:href="#f2_3" transform="matrix(11,0,0,11,149.7,324.8)" />
<use xlink:href="#f2_c" transform="matrix(11,0,0,11,164.8,324.8)" />
<use xlink:href="#f2_6" transform="matrix(11,0,0,11,171.4,324.8)" />
<use xlink:href="#f2_o" transform="matrix(11,0,0,11,178.8,324.8)" />
<use xlink:href="#f2_9" transform="matrix(11,0,0,11,187.2,324.8)" />
<use xlink:href="#f2_8" transform="matrix(11,0,0,11,194.6,324.8)" />
<use xlink:href="#f2_3" transform="matrix(11,0,0,11,207.7,324.8)" />
<use xlink:href="#f2_c" transform="matrix(11,0,0,11,216.1,324.8)" />
<use xlink:href="#f2_n" transform="matrix(11,0,0,11,229.3,324.8)" />
<use xlink:href="#f2_b" transform="matrix(11,0,0,11,237.6,324.8)" />
<use xlink:href="#f2_1e" transform="matrix(11,0,0,11,249,324.8)" />
<use xlink:href="#f2_p" transform="matrix(11,0,0,11,257.4,324.8)" />
<use xlink:href="#f2_b" transform="matrix(11,0,0,11,265.7,324.8)" />
<use xlink:href="#f2_j" transform="matrix(11,0,0,11,270.4,324.8)" />
<use xlink:href="#f2_n" transform="matrix(11,0,0,11,277.9,324.8)" />
<use xlink:href="#f2_9" transform="matrix(11,0,0,11,286.3,324.8)" />
<use xlink:href="#f2_c" transform="matrix(11,0,0,11,293.7,324.8)" />
<use xlink:href="#f2_c" transform="matrix(11,0,0,11,306.8,324.8)" />
<use xlink:href="#f2_3" transform="matrix(11,0,0,11,313.4,324.8)" />
<use xlink:href="#f2_n" transform="matrix(11,0,0,11,321.8,324.8)" />
<use xlink:href="#f2_9" transform="matrix(11,0,0,11,336.9,324.8)" />
<use xlink:href="#f2_d" transform="matrix(11,0,0,11,344.2,324.8)" />
<use xlink:href="#f2_d" transform="matrix(11,0,0,11,348.9,324.8)" />
<use xlink:href="#f2_3" transform="matrix(11,0,0,11,353.7,324.8)" />
<use xlink:href="#f2_c" transform="matrix(11,0,0,11,361.9,324.8)" />
<use xlink:href="#f2_n" transform="matrix(11,0,0,11,375.2,324.8)" />
<use xlink:href="#f2_b" transform="matrix(11,0,0,11,383.6,324.8)" />
<use xlink:href="#f2_1e" transform="matrix(11,0,0,11,394.8,324.8)" />
<use xlink:href="#f2_p" transform="matrix(11,0,0,11,403.2,324.8)" />
<use xlink:href="#f2_b" transform="matrix(11,0,0,11,411.7,324.8)" />
<use xlink:href="#f2_j" transform="matrix(11,0,0,11,416.2,324.8)" />
<use xlink:href="#f2_n" transform="matrix(11,0,0,11,423.7,324.8)" />
<use xlink:href="#f2_9" transform="matrix(11,0,0,11,432.1,324.8)" />
<use xlink:href="#f2_c" transform="matrix(11,0,0,11,439.6,324.8)" />
<use xlink:href="#f2_c" transform="matrix(11,0,0,11,137.7,344.1)" />
<use xlink:href="#f2_3" transform="matrix(11,0,0,11,144.2,344.1)" />
<use xlink:href="#f2_n" transform="matrix(11,0,0,11,152.6,344.1)" />
<use xlink:href="#f2_l" transform="matrix(11,0,0,11,165.3,344.1)" />
<use xlink:href="#f2_i" transform="matrix(11,0,0,11,177.3,344.1)" />
<use xlink:href="#f2_c" transform="matrix(11,0,0,11,185.8,344.1)" />
<use xlink:href="#f2_m" transform="matrix(11,0,0,11,192.2,344.1)" />
</g>
<g fill="#0000FF" >
<use xlink:href="#f1_p" transform="matrix(12,0,0,12,669.9,365.6)" />
<use xlink:href="#f1_d" transform="matrix(12,0,0,12,682.9,365.6)" />
<use xlink:href="#f1_k" transform="matrix(12,0,0,12,693.1,365.6)" />
<use xlink:href="#f1_m" transform="matrix(12,0,0,12,704.6,365.6)" />
<use xlink:href="#f1_b" transform="matrix(12,0,0,12,720.9,365.6)" />
<use xlink:href="#f1_d" transform="matrix(12,0,0,12,732.8,365.6)" />
<use xlink:href="#f1_o" transform="matrix(12,0,0,12,743.2,365.6)" />
<use xlink:href="#f1_5" transform="matrix(12,0,0,12,749.6,365.6)" />
<use xlink:href="#f1_a" transform="matrix(12,0,0,12,761.5,365.6)" />
</g>
</g>
<path d="M669.8,367.4H772.1" class="g1_18" />
<g clip-path="url(#c0_18)">
<g fill="#000000" >
<use xlink:href="#f3_1v" transform="matrix(16,0,0,16,210.7,500.2)" />
<use xlink:href="#f3_q" transform="matrix(16,0,0,16,230.1,500.2)" />
<use xlink:href="#f3_1a" transform="matrix(16,0,0,16,243.9,500.2)" />
<use xlink:href="#f3_s" transform="matrix(16,0,0,16,261.8,500.2)" />
<use xlink:href="#f3_1w" transform="matrix(16,0,0,16,275.7,500.2)" />
<use xlink:href="#f3_f" transform="matrix(16,0,0,16,282.8,500.2)" />
<use xlink:href="#f3_h" transform="matrix(16,0,0,16,301.9,500.2)" />
<use xlink:href="#f3_f" transform="matrix(16,0,0,16,310.4,500.2)" />
<use xlink:href="#f3_n" transform="matrix(16,0,0,16,323,500.2)" />
<use xlink:href="#f3_z" transform="matrix(16,0,0,16,343.4,500.2)" />
<use xlink:href="#f3_f" transform="matrix(16,0,0,16,364.1,500.2)" />
<use xlink:href="#f3_o" transform="matrix(16,0,0,16,376.7,500.2)" />
<use xlink:href="#f3_10" transform="matrix(16,0,0,16,383.8,500.2)" />
<use xlink:href="#f1_l" transform="matrix(12,0,0,12,138.3,522.5)" />
<use xlink:href="#f1_n" transform="matrix(12,0,0,12,150.5,522.5)" />
<use xlink:href="#f1_6" transform="matrix(12,0,0,12,161.3,522.5)" />
<use xlink:href="#f1_3" transform="matrix(12,0,0,12,166.4,522.5)" />
<use xlink:href="#f1_l" transform="matrix(12,0,0,12,178.5,522.5)" />
<use xlink:href="#f1_m" transform="matrix(12,0,0,12,190.8,522.5)" />
<use xlink:href="#f1_d" transform="matrix(12,0,0,12,209.1,522.5)" />
<use xlink:href="#f1_a" transform="matrix(12,0,0,12,219.3,522.5)" />
<use xlink:href="#f1_4" transform="matrix(12,0,0,12,229.8,522.5)" />
<use xlink:href="#f1_2" transform="matrix(12,0,0,12,248,522.5)" />
<use xlink:href="#f1_6" transform="matrix(12,0,0,12,260.1,522.5)" />
<use xlink:href="#f1_j" transform="matrix(12,0,0,12,265.1,522.5)" />
<use xlink:href="#f1_16" transform="matrix(12,0,0,12,286,522.5)" />
<use xlink:href="#f1_2" transform="matrix(12,0,0,12,293.3,522.5)" />
<use xlink:href="#f1_6" transform="matrix(12,0,0,12,305.5,522.5)" />
<use xlink:href="#f1_3" transform="matrix(12,0,0,12,310.5,522.5)" />
<use xlink:href="#f1_b" transform="matrix(12,0,0,12,314.6,522.5)" />
<use xlink:href="#f1_3" transform="matrix(12,0,0,12,334.5,522.5)" />
<use xlink:href="#f1_m" transform="matrix(12,0,0,12,338.6,522.5)" />
<use xlink:href="#f1_j" transform="matrix(12,0,0,12,356.9,522.5)" />
<use xlink:href="#f1_3" transform="matrix(12,0,0,12,369.9,522.5)" />
<use xlink:href="#f1_l" transform="matrix(12,0,0,12,381.9,522.5)" />
<use xlink:href="#f1_d" transform="matrix(12,0,0,12,394.1,522.5)" />
<use xlink:href="#f1_6" transform="matrix(12,0,0,12,404.5,522.5)" />
<use xlink:href="#f1_9" transform="matrix(12,0,0,12,409.5,522.5)" />
<use xlink:href="#f1_x" transform="matrix(12,0,0,12,424.9,522.5)" />
<use xlink:href="#f1_t" transform="matrix(12,0,0,12,432.1,522.5)" />
<use xlink:href="#f1_c" transform="matrix(12,0,0,12,441.8,522.5)" />
<use xlink:href="#f1_m" transform="matrix(12,0,0,12,459.4,522.5)" />
<use xlink:href="#f1_c" transform="matrix(12,0,0,12,469.7,522.5)" />
<use xlink:href="#f1_w" transform="matrix(12,0,0,12,479.4,522.5)" />
<use xlink:href="#f1_2" transform="matrix(12,0,0,12,494.5,522.5)" />
<use xlink:href="#f1_6" transform="matrix(12,0,0,12,506.7,522.5)" />
<use xlink:href="#f1_3" transform="matrix(12,0,0,12,511.7,522.5)" />
<use xlink:href="#f1_b" transform="matrix(12,0,0,12,523.7,522.5)" />
<use xlink:href="#f1_o" transform="matrix(12,0,0,12,535.6,522.5)" />
<use xlink:href="#f1_3" transform="matrix(12,0,0,12,542,522.5)" />
<use xlink:href="#f1_l" transform="matrix(12,0,0,12,546.1,522.5)" />
<use xlink:href="#f1_f" transform="matrix(12,0,0,12,566.3,522.5)" />
<use xlink:href="#f1_x" transform="matrix(12,0,0,12,572.1,522.5)" />
<use xlink:href="#f1_3" transform="matrix(12,0,0,12,579.3,522.5)" />
<use xlink:href="#f1_h" transform="matrix(12,0,0,12,583.4,522.5)" />
<use xlink:href="#f1_3" transform="matrix(12,0,0,12,594.8,522.5)" />
<use xlink:href="#f1_a" transform="matrix(12,0,0,12,598.9,522.5)" />
<use xlink:href="#f1_d" transform="matrix(12,0,0,12,609.5,522.5)" />
<use xlink:href="#f1_2" transform="matrix(12,0,0,12,627.8,522.5)" />
<use xlink:href="#f1_6" transform="matrix(12,0,0,12,640,522.5)" />
<use xlink:href="#f1_3" transform="matrix(12,0,0,12,644.9,522.5)" />
<use xlink:href="#f1_10" transform="matrix(12,0,0,12,657,522.5)" />
<use xlink:href="#f1_g" transform="matrix(12,0,0,12,663.1,522.5)" />
<use xlink:href="#f1_3" transform="matrix(12,0,0,12,675.2,522.5)" />
<use xlink:href="#f1_m" transform="matrix(12,0,0,12,679.3,522.5)" />
<use xlink:href="#f1_6" transform="matrix(12,0,0,12,689.7,522.5)" />
<use xlink:href="#f1_m" transform="matrix(12,0,0,12,694.6,522.5)" />
<use xlink:href="#f1_3" transform="matrix(12,0,0,12,705,522.5)" />
<use xlink:href="#f1_7" transform="matrix(12,0,0,12,709.1,522.5)" />
<use xlink:href="#f1_w" transform="matrix(12,0,0,12,721.6,522.5)" />
<use xlink:href="#f1_l" transform="matrix(12,0,0,12,736.7,522.5)" />
<use xlink:href="#f1_d" transform="matrix(12,0,0,12,748.9,522.5)" />
<use xlink:href="#f1_5" transform="matrix(12,0,0,12,759.3,522.5)" />
<use xlink:href="#f1_11" transform="matrix(12,0,0,12,138.6,543.9)" />
<use xlink:href="#f1_s" transform="matrix(12,0,0,12,150.3,543.9)" />
<use xlink:href="#f1_c" transform="matrix(12,0,0,12,162.2,543.9)" />
<use xlink:href="#f1_3" transform="matrix(12,0,0,12,179.7,543.9)" />
<use xlink:href="#f1_m" transform="matrix(12,0,0,12,183.9,543.9)" />
<use xlink:href="#f1_j" transform="matrix(12,0,0,12,202.3,543.9)" />
<use xlink:href="#f1_3" transform="matrix(12,0,0,12,215.3,543.9)" />
<use xlink:href="#f1_j" transform="matrix(12,0,0,12,219.4,543.9)" />
<use xlink:href="#f1_2" transform="matrix(12,0,0,12,240.4,543.9)" />
<use xlink:href="#f1_3" transform="matrix(12,0,0,12,252.6,543.9)" />
<use xlink:href="#f1_a" transform="matrix(12,0,0,12,256.7,543.9)" />
<use xlink:href="#f1_j" transform="matrix(12,0,0,12,267.3,543.9)" />
<use xlink:href="#f1_6" transform="matrix(12,0,0,12,280.3,543.9)" />
<use xlink:href="#f1_5" transform="matrix(12,0,0,12,285.3,543.9)" />
<use xlink:href="#f1_3" transform="matrix(12,0,0,12,305.1,543.9)" />
<use xlink:href="#f1_m" transform="matrix(12,0,0,12,309.2,543.9)" />
<use xlink:href="#f1_j" transform="matrix(12,0,0,12,319.6,543.9)" />
<use xlink:href="#f1_2" transform="matrix(12,0,0,12,340.7,543.9)" />
<use xlink:href="#f1_3" transform="matrix(12,0,0,12,352.9,543.9)" />
<use xlink:href="#f1_4" transform="matrix(12,0,0,12,356.8,543.9)" />
<use xlink:href="#f1_m" transform="matrix(12,0,0,12,366.9,543.9)" />
<use xlink:href="#f1_3" transform="matrix(12,0,0,12,377.3,543.9)" />
<use xlink:href="#f1_b" transform="matrix(12,0,0,12,381.4,543.9)" />
<use xlink:href="#f1_r" transform="matrix(12,0,0,12,401.4,543.9)" />
<use xlink:href="#f1_3" transform="matrix(12,0,0,12,407.2,543.9)" />
<use xlink:href="#f1_g" transform="matrix(12,0,0,12,411.3,543.9)" />
<use xlink:href="#f1_3" transform="matrix(12,0,0,12,423.4,543.9)" />
<use xlink:href="#f1_a" transform="matrix(12,0,0,12,427.5,543.9)" />
<use xlink:href="#f1_a" transform="matrix(12,0,0,12,438,543.9)" />
<use xlink:href="#f1_l" transform="matrix(12,0,0,12,456.6,543.9)" />
<use xlink:href="#f1_m" transform="matrix(12,0,0,12,468.8,543.9)" />
<use xlink:href="#f1_6" transform="matrix(12,0,0,12,479.2,543.9)" />
<use xlink:href="#f1_3" transform="matrix(12,0,0,12,492.3,543.9)" />
<use xlink:href="#f1_g" transform="matrix(12,0,0,12,496.5,543.9)" />
<use xlink:href="#f1_4" transform="matrix(12,0,0,12,508.5,543.9)" />
<use xlink:href="#f1_6" transform="matrix(12,0,0,12,518.6,543.9)" />
<use xlink:href="#f1_a" transform="matrix(12,0,0,12,523.6,543.9)" />
<use xlink:href="#f1_h" transform="matrix(12,0,0,12,534.1,543.9)" />
<use xlink:href="#f1_a" transform="matrix(12,0,0,12,545.6,543.9)" />
<use xlink:href="#f1_l" transform="matrix(12,0,0,12,564.2,543.9)" />
<use xlink:href="#f1_m" transform="matrix(12,0,0,12,576.4,543.9)" />
<use xlink:href="#f1_m" transform="matrix(12,0,0,12,594.7,543.9)" />
<use xlink:href="#f1_o" transform="matrix(12,0,0,12,605.1,543.9)" />
<use xlink:href="#f1_7" transform="matrix(12,0,0,12,611.5,543.9)" />
<use xlink:href="#f1_3" transform="matrix(12,0,0,12,631.9,543.9)" />
<use xlink:href="#f1_m" transform="matrix(12,0,0,12,636,543.9)" />
<use xlink:href="#f1_e" transform="matrix(12,0,0,12,654.5,543.9)" />
<use xlink:href="#f1_3" transform="matrix(12,0,0,12,659.5,543.9)" />
<use xlink:href="#f1_l" transform="matrix(12,0,0,12,663.6,543.9)" />
<use xlink:href="#f1_r" transform="matrix(12,0,0,12,683.9,543.9)" />
<use xlink:href="#f1_3" transform="matrix(12,0,0,12,689.7,543.9)" />
<use xlink:href="#f1_3" transform="matrix(12,0,0,12,693.8,543.9)" />
<use xlink:href="#f1_5" transform="matrix(12,0,0,12,697.9,543.9)" />
<use xlink:href="#f1_a" transform="matrix(12,0,0,12,709.8,543.9)" />
<use xlink:href="#f1_d" transform="matrix(12,0,0,12,728.4,543.9)" />
<use xlink:href="#f1_4" transform="matrix(12,0,0,12,738.7,543.9)" />
<use xlink:href="#f1_s" transform="matrix(12,0,0,12,748.7,543.9)" />
<use xlink:href="#f1_a" transform="matrix(12,0,0,12,760.6,543.9)" />
<use xlink:href="#f1_3" transform="matrix(12,0,0,12,138.4,565.3)" />
<use xlink:href="#f1_m" transform="matrix(12,0,0,12,142.5,565.3)" />
<use xlink:href="#f1_j" transform="matrix(12,0,0,12,161.4,565.3)" />
<use xlink:href="#f1_3" transform="matrix(12,0,0,12,174.4,565.3)" />
<use xlink:href="#f1_j" transform="matrix(12,0,0,12,178.5,565.3)" />
<use xlink:href="#f1_b" transform="matrix(12,0,0,12,200.2,565.3)" />
<use xlink:href="#f1_5" transform="matrix(12,0,0,12,212.1,565.3)" />
<use xlink:href="#f1_6" transform="matrix(12,0,0,12,224,565.3)" />
<use xlink:href="#f1_i" transform="matrix(12,0,0,12,229,565.3)" />
<use xlink:href="#f1_a" transform="matrix(12,0,0,12,240.9,565.3)" />
<use xlink:href="#f1_3" transform="matrix(12,0,0,12,260,565.3)" />
<use xlink:href="#f1_g" transform="matrix(12,0,0,12,264.1,565.3)" />
<use xlink:href="#f1_j" transform="matrix(12,0,0,12,276.2,565.3)" />
<use xlink:href="#f1_l" transform="matrix(12,0,0,12,289.1,565.3)" />
<use xlink:href="#f1_r" transform="matrix(12,0,0,12,309.9,565.3)" />
<use xlink:href="#f1_3" transform="matrix(12,0,0,12,315.7,565.3)" />
<use xlink:href="#f1_3" transform="matrix(12,0,0,12,319.8,565.3)" />
<use xlink:href="#f1_5" transform="matrix(12,0,0,12,323.9,565.3)" />
<use xlink:href="#f1_m" transform="matrix(12,0,0,12,344.5,565.3)" />
<use xlink:href="#f1_c" transform="matrix(12,0,0,12,354.9,565.3)" />
<use xlink:href="#f1_m" transform="matrix(12,0,0,12,373,565.3)" />
<use xlink:href="#f1_j" transform="matrix(12,0,0,12,383.4,565.3)" />
<use xlink:href="#f1_g" transform="matrix(12,0,0,12,405.1,565.3)" />
<use xlink:href="#f1_3" transform="matrix(12,0,0,12,417.1,565.3)" />
<use xlink:href="#f1_a" transform="matrix(12,0,0,12,421.2,565.3)" />
<use xlink:href="#f1_b" transform="matrix(12,0,0,12,431.8,565.3)" />
<use xlink:href="#f1_m" transform="matrix(12,0,0,12,452.4,565.3)" />
<use xlink:href="#f1_h" transform="matrix(12,0,0,12,462.8,565.3)" />
<use xlink:href="#f1_a" transform="matrix(12,0,0,12,474.2,565.3)" />
<use xlink:href="#f1_l" transform="matrix(12,0,0,12,493.3,565.3)" />
<use xlink:href="#f1_6" transform="matrix(12,0,0,12,505.5,565.3)" />
<use xlink:href="#f1_b" transform="matrix(12,0,0,12,510.5,565.3)" />
<use xlink:href="#f1_j" transform="matrix(12,0,0,12,522.5,565.3)" />
<use xlink:href="#f1_e" transform="matrix(12,0,0,12,544,565.3)" />
<use xlink:href="#f1_3" transform="matrix(12,0,0,12,549,565.3)" />
<use xlink:href="#f1_7" transform="matrix(12,0,0,12,553.1,565.3)" />
<use xlink:href="#f1_l" transform="matrix(12,0,0,12,565.5,565.3)" />
<use xlink:href="#f1_7" transform="matrix(12,0,0,12,577.7,565.3)" />
<use xlink:href="#f1_3" transform="matrix(12,0,0,12,598.7,565.3)" />
<use xlink:href="#f1_m" transform="matrix(12,0,0,12,602.9,565.3)" />
<use xlink:href="#f1_j" transform="matrix(12,0,0,12,613.2,565.3)" />
<use xlink:href="#f1_s" transform="matrix(12,0,0,12,634.9,565.3)" />
<use xlink:href="#f1_6" transform="matrix(12,0,0,12,646.8,565.3)" />
<use xlink:href="#f1_a" transform="matrix(12,0,0,12,651.8,565.3)" />
<use xlink:href="#f1_b" transform="matrix(12,0,0,12,662.4,565.3)" />
<use xlink:href="#f1_r" transform="matrix(12,0,0,12,682.8,565.3)" />
<use xlink:href="#f1_l" transform="matrix(12,0,0,12,688.6,565.3)" />
<use xlink:href="#f1_3" transform="matrix(12,0,0,12,700.8,565.3)" />
<use xlink:href="#f1_j" transform="matrix(12,0,0,12,705,565.3)" />
<use xlink:href="#f1_9" transform="matrix(12,0,0,12,717.9,565.3)" />
<use xlink:href="#f1_m" transform="matrix(12,0,0,12,725.3,565.3)" />
<use xlink:href="#f1_6" transform="matrix(12,0,0,12,744.3,565.3)" />
<use xlink:href="#f1_7" transform="matrix(12,0,0,12,749.2,565.3)" />
<use xlink:href="#f1_c" transform="matrix(12,0,0,12,761.7,565.3)" />
<use xlink:href="#f1_3" transform="matrix(12,0,0,12,138.3,586.7)" />
<use xlink:href="#f1_9" transform="matrix(12,0,0,12,142.4,586.7)" />
<use xlink:href="#f1_l" transform="matrix(12,0,0,12,149.7,586.7)" />
<use xlink:href="#f1_r" transform="matrix(12,0,0,12,169.1,586.7)" />
<use xlink:href="#f1_e" transform="matrix(12,0,0,12,174.9,586.7)" />
<use xlink:href="#f1_7" transform="matrix(12,0,0,12,179.8,586.7)" />
<use xlink:href="#f1_o" transform="matrix(12,0,0,12,192.3,586.7)" />
<use xlink:href="#f1_b" transform="matrix(12,0,0,12,206,586.7)" />
<use xlink:href="#f1_7" transform="matrix(12,0,0,12,217.9,586.7)" />
<use xlink:href="#f1_c" transform="matrix(12,0,0,12,230.4,586.7)" />
<use xlink:href="#f1_m" transform="matrix(12,0,0,12,240,586.7)" />
<use xlink:href="#f1_l" transform="matrix(12,0,0,12,257.6,586.7)" />
<use xlink:href="#f1_m" transform="matrix(12,0,0,12,269.8,586.7)" />
<use xlink:href="#f1_6" transform="matrix(12,0,0,12,280.2,586.7)" />
<use xlink:href="#f1_f" transform="matrix(12,0,0,12,292.4,586.7)" />
<use xlink:href="#f1_e" transform="matrix(12,0,0,12,298.2,586.7)" />
<use xlink:href="#f1_l" transform="matrix(12,0,0,12,303.2,586.7)" />
<use xlink:href="#f1_m" transform="matrix(12,0,0,12,315.4,586.7)" />
<use xlink:href="#f1_3" transform="matrix(12,0,0,12,333,586.7)" />
<use xlink:href="#f1_m" transform="matrix(12,0,0,12,337.1,586.7)" />
<use xlink:href="#f1_g" transform="matrix(12,0,0,12,354.7,586.7)" />
<use xlink:href="#f1_k" transform="matrix(12,0,0,12,366.8,586.7)" />
<use xlink:href="#f1_c" transform="matrix(12,0,0,12,378.2,586.7)" />
<use xlink:href="#f1_l" transform="matrix(12,0,0,12,387.9,586.7)" />
<use xlink:href="#f1_l" transform="matrix(12,0,0,12,407.4,586.7)" />
<use xlink:href="#f1_m" transform="matrix(12,0,0,12,419.6,586.7)" />
<use xlink:href="#f1_r" transform="matrix(12,0,0,12,437.1,586.7)" />
<use xlink:href="#f1_2" transform="matrix(12,0,0,12,442.9,586.7)" />
<use xlink:href="#f1_6" transform="matrix(12,0,0,12,455.1,586.7)" />
<use xlink:href="#f1_p" transform="matrix(12,0,0,12,460,586.7)" />
<use xlink:href="#f1_7" transform="matrix(12,0,0,12,473,586.7)" />
<use xlink:href="#f1_6" transform="matrix(12,0,0,12,492.7,586.7)" />
<use xlink:href="#f1_b" transform="matrix(12,0,0,12,497.7,586.7)" />
<use xlink:href="#f1_j" transform="matrix(12,0,0,12,509.6,586.7)" />
<use xlink:href="#f1_o" transform="matrix(12,0,0,12,522.6,586.7)" />
<use xlink:href="#f1_3" transform="matrix(12,0,0,12,529,586.7)" />
<use xlink:href="#f1_l" transform="matrix(12,0,0,12,533.1,586.7)" />
<use xlink:href="#f1_m" transform="matrix(12,0,0,12,545.3,586.7)" />
<use xlink:href="#f1_5" transform="matrix(12,0,0,12,563,586.7)" />
<use xlink:href="#f1_6" transform="matrix(12,0,0,12,574.9,586.7)" />
<use xlink:href="#f1_d" transform="matrix(12,0,0,12,580,586.7)" />
<use xlink:href="#f1_a" transform="matrix(12,0,0,12,590.3,586.7)" />
<use xlink:href="#f1_m" transform="matrix(12,0,0,12,600.9,586.7)" />
<use xlink:href="#f1_b" transform="matrix(12,0,0,12,618.4,586.7)" />
<use xlink:href="#f1_n" transform="matrix(12,0,0,12,630.3,586.7)" />
<use xlink:href="#f1_6" transform="matrix(12,0,0,12,641.2,586.7)" />
<use xlink:href="#f1_d" transform="matrix(12,0,0,12,646.2,586.7)" />
<use xlink:href="#f1_3" transform="matrix(12,0,0,12,663.7,586.7)" />
<use xlink:href="#f1_9" transform="matrix(12,0,0,12,667.8,586.7)" />
<use xlink:href="#f1_l" transform="matrix(12,0,0,12,675.2,586.7)" />
<use xlink:href="#f1_r" transform="matrix(12,0,0,12,694.7,586.7)" />
<use xlink:href="#f1_r" transform="matrix(12,0,0,12,700.5,586.7)" />
<use xlink:href="#f1_r" transform="matrix(12,0,0,12,706.3,586.7)" />
<use xlink:href="#f1_g" transform="matrix(12,0,0,12,712.1,586.7)" />
<use xlink:href="#f1_a" transform="matrix(12,0,0,12,724.1,586.7)" />
<use xlink:href="#f1_b" transform="matrix(12,0,0,12,734.7,586.7)" />
<use xlink:href="#f1_l" transform="matrix(12,0,0,12,746.6,586.7)" />
<use xlink:href="#f1_7" transform="matrix(12,0,0,12,758.8,586.7)" />
<use xlink:href="#f1_2" transform="matrix(12,0,0,12,138,608.1)" />
<use xlink:href="#f1_3" transform="matrix(12,0,0,12,150.2,608.1)" />
<use xlink:href="#f1_d" transform="matrix(12,0,0,12,154.3,608.1)" />
<use xlink:href="#f1_7" transform="matrix(12,0,0,12,164.5,608.1)" />
<use xlink:href="#f1_6" transform="matrix(12,0,0,12,177,608.1)" />
<use xlink:href="#f1_l" transform="matrix(12,0,0,12,182,608.1)" />
<use xlink:href="#f1_r" transform="matrix(12,0,0,12,203.8,608.1)" />
<use xlink:href="#f1_b" transform="matrix(12,0,0,12,209.7,608.1)" />
<use xlink:href="#f1_a" transform="matrix(12,0,0,12,221.6,608.1)" />
<use xlink:href="#f1_6" transform="matrix(12,0,0,12,232.1,608.1)" />
<use xlink:href="#f1_p" transform="matrix(12,0,0,12,237.1,608.1)" />
<use xlink:href="#f1_m" transform="matrix(12,0,0,12,259.7,608.1)" />
<use xlink:href="#f1_j" transform="matrix(12,0,0,12,270.1,608.1)" />
<use xlink:href="#f1_2" transform="matrix(12,0,0,12,292.7,608.1)" />
<use xlink:href="#f1_3" transform="matrix(12,0,0,12,304.9,608.1)" />
<use xlink:href="#f1_k" transform="matrix(12,0,0,12,309,608.1)" />
<use xlink:href="#f1_6" transform="matrix(12,0,0,12,320.5,608.1)" />
<use xlink:href="#f1_5" transform="matrix(12,0,0,12,325.5,608.1)" />
<use xlink:href="#f1_a" transform="matrix(12,0,0,12,337.4,608.1)" />
<use xlink:href="#f1_3" transform="matrix(12,0,0,12,357.4,608.1)" />
<use xlink:href="#f1_m" transform="matrix(12,0,0,12,361.5,608.1)" />
<use xlink:href="#f1_6" transform="matrix(12,0,0,12,371.9,608.1)" />
<use xlink:href="#f1_l" transform="matrix(12,0,0,12,376.9,608.1)" />
<use xlink:href="#f1_f" transform="matrix(12,0,0,12,398.7,608.1)" />
<use xlink:href="#f1_3" transform="matrix(12,0,0,12,404.5,608.1)" />
<use xlink:href="#f1_l" transform="matrix(12,0,0,12,408.6,608.1)" />
<use xlink:href="#f1_b" transform="matrix(12,0,0,12,430.5,608.1)" />
<use xlink:href="#f1_o" transform="matrix(12,0,0,12,442.4,608.1)" />
<use xlink:href="#f1_3" transform="matrix(12,0,0,12,448.8,608.1)" />
<use xlink:href="#f1_l" transform="matrix(12,0,0,12,452.9,608.1)" />
<use xlink:href="#f1_a" transform="matrix(12,0,0,12,465.1,608.1)" />
<use xlink:href="#f1_3" transform="matrix(12,0,0,12,485.2,608.1)" />
<use xlink:href="#f1_m" transform="matrix(12,0,0,12,489.4,608.1)" />
<use xlink:href="#f1_6" transform="matrix(12,0,0,12,499.7,608.1)" />
<use xlink:href="#f1_l" transform="matrix(12,0,0,12,504.8,608.1)" />
<use xlink:href="#f1_r" transform="matrix(12,0,0,12,526.6,608.1)" />
<use xlink:href="#f1_g" transform="matrix(12,0,0,12,532.4,608.1)" />
<use xlink:href="#f1_d" transform="matrix(12,0,0,12,544.4,608.1)" />
<use xlink:href="#f1_5" transform="matrix(12,0,0,12,554.8,608.1)" />
<use xlink:href="#f1_l" transform="matrix(12,0,0,12,566.7,608.1)" />
<use xlink:href="#f1_b" transform="matrix(12,0,0,12,588.6,608.1)" />
<use xlink:href="#f1_9" transform="matrix(12,0,0,12,600.5,608.1)" />
<use xlink:href="#f1_3" transform="matrix(12,0,0,12,607.8,608.1)" />
<use xlink:href="#f1_4" transform="matrix(12,0,0,12,611.9,608.1)" />
<use xlink:href="#f1_7" transform="matrix(12,0,0,12,621.8,608.1)" />
<use xlink:href="#f1_a" transform="matrix(12,0,0,12,634.4,608.1)" />
<use xlink:href="#f1_l" transform="matrix(12,0,0,12,654.8,608.1)" />
<use xlink:href="#f1_a" transform="matrix(12,0,0,12,667,608.1)" />
<use xlink:href="#f1_5" transform="matrix(12,0,0,12,677.5,608.1)" />
<use xlink:href="#f1_g" transform="matrix(12,0,0,12,689.5,608.1)" />
<use xlink:href="#f1_b" transform="matrix(12,0,0,12,701.5,608.1)" />
<use xlink:href="#f1_m" transform="matrix(12,0,0,12,713.4,608.1)" />
<use xlink:href="#f1_b" transform="matrix(12,0,0,12,733.4,608.1)" />
<use xlink:href="#f1_n" transform="matrix(12,0,0,12,745.3,608.1)" />
<use xlink:href="#f1_6" transform="matrix(12,0,0,12,756.2,608.1)" />
<use xlink:href="#f1_d" transform="matrix(12,0,0,12,761.1,608.1)" />
<use xlink:href="#f1_r" transform="matrix(12,0,0,12,168.7,629.4)" />
<use xlink:href="#f1_b" transform="matrix(12,0,0,12,174.5,629.4)" />
<use xlink:href="#f1_7" transform="matrix(12,0,0,12,186.4,629.4)" />
<use xlink:href="#f1_e" transform="matrix(12,0,0,12,204.7,629.4)" />
<use xlink:href="#f1_7" transform="matrix(12,0,0,12,209.7,629.4)" />
<use xlink:href="#f1_o" transform="matrix(12,0,0,12,222.1,629.4)" />
<use xlink:href="#f1_m" transform="matrix(12,0,0,12,228.5,629.4)" />
<use xlink:href="#f1_5" transform="matrix(12,0,0,12,244.7,629.4)" />
<use xlink:href="#f1_6" transform="matrix(12,0,0,12,256.6,629.4)" />
<use xlink:href="#f1_9" transform="matrix(12,0,0,12,261.7,629.4)" />
<use xlink:href="#f1_m" transform="matrix(12,0,0,12,269,629.4)" />
<use xlink:href="#f1_6" transform="matrix(12,0,0,12,279.4,629.4)" />
<use xlink:href="#f1_5" transform="matrix(12,0,0,12,290.4,629.4)" />
<use xlink:href="#f1_6" transform="matrix(12,0,0,12,302.3,629.4)" />
<use xlink:href="#f1_d" transform="matrix(12,0,0,12,307.3,629.4)" />
<use xlink:href="#f1_a" transform="matrix(12,0,0,12,317.7,629.4)" />
<use xlink:href="#f1_m" transform="matrix(12,0,0,12,328.2,629.4)" />
<use xlink:href="#f1_r" transform="matrix(12,0,0,12,344.4,629.4)" />
<use xlink:href="#f1_b" transform="matrix(12,0,0,12,350.2,629.4)" />
<use xlink:href="#f1_n" transform="matrix(12,0,0,12,362.1,629.4)" />
<use xlink:href="#f1_6" transform="matrix(12,0,0,12,373,629.4)" />
<use xlink:href="#f1_d" transform="matrix(12,0,0,12,378,629.4)" />
<use xlink:href="#f1_3" transform="matrix(12,0,0,12,394.2,629.4)" />
<use xlink:href="#f1_9" transform="matrix(12,0,0,12,398.3,629.4)" />
<use xlink:href="#f1_l" transform="matrix(12,0,0,12,405.6,629.4)" />
<use xlink:href="#f1_j" transform="matrix(12,0,0,12,417.9,629.4)" />
<use xlink:href="#f1_b" transform="matrix(12,0,0,12,436.7,629.4)" />
<use xlink:href="#f1_7" transform="matrix(12,0,0,12,448.6,629.4)" />
<use xlink:href="#f1_b" transform="matrix(12,0,0,12,467.1,629.4)" />
<use xlink:href="#f1_o" transform="matrix(12,0,0,12,479,629.4)" />
<use xlink:href="#f1_r" transform="matrix(12,0,0,12,491.2,629.4)" />
<use xlink:href="#f1_2" transform="matrix(12,0,0,12,497,629.4)" />
<use xlink:href="#f1_3" transform="matrix(12,0,0,12,509.2,629.4)" />
<use xlink:href="#f1_3" transform="matrix(12,0,0,12,513.2,629.4)" />
<use xlink:href="#f1_p" transform="matrix(12,0,0,12,517.3,629.4)" />
<use xlink:href="#f1_9" transform="matrix(12,0,0,12,530.3,629.4)" />
<use xlink:href="#f1_6" transform="matrix(12,0,0,12,537.6,629.4)" />
<use xlink:href="#f1_2" transform="matrix(12,0,0,12,548.4,629.4)" />
<use xlink:href="#f1_3" transform="matrix(12,0,0,12,560.7,629.4)" />
<use xlink:href="#f1_k" transform="matrix(12,0,0,12,564.8,629.4)" />
<use xlink:href="#f1_3" transform="matrix(12,0,0,12,576.2,629.4)" />
<use xlink:href="#f1_4" transform="matrix(12,0,0,12,586.1,629.4)" />
<use xlink:href="#f1_l" transform="matrix(12,0,0,12,596.1,629.4)" />
<use xlink:href="#f1_7" transform="matrix(12,0,0,12,608.3,629.4)" />
<use xlink:href="#f1_b" transform="matrix(12,0,0,12,626.7,629.4)" />
<use xlink:href="#f1_a" transform="matrix(12,0,0,12,638.6,629.4)" />
<use xlink:href="#f1_6" transform="matrix(12,0,0,12,649.2,629.4)" />
<use xlink:href="#f1_p" transform="matrix(12,0,0,12,654.2,629.4)" />
<use xlink:href="#f1_m" transform="matrix(12,0,0,12,673,629.4)" />
<use xlink:href="#f1_j" transform="matrix(12,0,0,12,683.4,629.4)" />
<use xlink:href="#f1_2" transform="matrix(12,0,0,12,702.2,629.4)" />
<use xlink:href="#f1_3" transform="matrix(12,0,0,12,714.4,629.4)" />
<use xlink:href="#f1_k" transform="matrix(12,0,0,12,718.5,629.4)" />
<use xlink:href="#f1_6" transform="matrix(12,0,0,12,729.9,629.4)" />
<use xlink:href="#f1_5" transform="matrix(12,0,0,12,735,629.4)" />
<use xlink:href="#f1_b" transform="matrix(12,0,0,12,746.9,629.4)" />
<use xlink:href="#f1_j" transform="matrix(12,0,0,12,758.8,629.4)" />
</g>
<g fill="#0000FF" >
<use xlink:href="#f1_p" transform="matrix(12,0,0,12,669.9,670.2)" />
<use xlink:href="#f1_d" transform="matrix(12,0,0,12,682.9,670.2)" />
<use xlink:href="#f1_k" transform="matrix(12,0,0,12,693.1,670.2)" />
<use xlink:href="#f1_m" transform="matrix(12,0,0,12,704.6,670.2)" />
<use xlink:href="#f1_b" transform="matrix(12,0,0,12,720.9,670.2)" />
<use xlink:href="#f1_d" transform="matrix(12,0,0,12,732.8,670.2)" />
<use xlink:href="#f1_o" transform="matrix(12,0,0,12,743.2,670.2)" />
<use xlink:href="#f1_5" transform="matrix(12,0,0,12,749.6,670.2)" />
<use xlink:href="#f1_a" transform="matrix(12,0,0,12,761.5,670.2)" />
</g>
</g>
<path d="M664,672.1H772.1" class="g1_18" />
<g clip-path="url(#c0_18)">
<g fill="#000000" >
<use xlink:href="#f1_z" transform="matrix(11,0,0,11,137.5,1208.9)" />
<use xlink:href="#f1_1f" transform="matrix(11,0,0,11,148.2,1208.9)" />
</g>
</g>
<image preserveAspectRatio="none" x="135" y="420" width="62" height="64" xlink:href="img/1.png" />
<defs>
<path d="M71,0V90H214v934H71v90H1073V851H970v160H502V654H792V796H895V411H792V552H502V103H984V263h102V0Z" 
id="f0_2"
transform="scale(0.001,-0.001)" />

<path d="M87,-338c0,0,-45,0,-94,7c0,0,-51,8,-105,22v168l84,-1c0,0,1,-59,23,-86c0,0,21,-26,70,-26c0,0,55,0,77,35c0,0,21,35,21,127V703H51v90H427V-92c0,0,0,-122,-86,-184c0,0,-86,-62,-254,-62ZM277,876c0,0,-61,0,-102,41c0,0,-42,41,-42,101c0,0,0,60,41,101c0,0,42,42,103,42c0,0,58,0,100,-42c0,0,42,-42,42,-101c0,0,0,-59,-42,-101c0,0,-41,-41,-100,-41Z" 
id="f0_3"
transform="scale(0.001,-0.001)" />

<path d="M612,448c0,0,0,156,-29,219c0,0,-29,63,-99,63c0,0,-68,0,-98,-61c0,0,-29,-62,-29,-208V448ZM488,-20c0,0,-205,0,-315,107C173,87,63,195,63,397c0,0,0,197,112,307c0,0,113,110,313,110c0,0,197,0,303,-115c0,0,105,-116,111,-340H357v-6c0,0,0,-154,46,-222c0,0,46,-68,149,-68c0,0,86,0,139,45c0,0,53,46,68,133H883C883,241,851,105,755,42c0,0,-95,-62,-267,-62Z" 
id="f0_4"
transform="scale(0.001,-0.001)" />

<path d="M53,0V90H165V703H44v90H429V652c0,0,39,83,103,123c0,0,64,39,156,39c0,0,24,0,57,-3c0,0,33,-3,76,-9V565H737c0,0,-4,63,-34,94c0,0,-30,31,-87,31c0,0,-87,0,-137,-76c0,0,-50,-76,-50,-211V90H573V0Z" 
id="f0_5"
transform="scale(0.001,-0.001)" />

<path d="M507,-20c0,0,-212,0,-328,108C179,88,63,198,63,397c0,0,0,197,114,307c0,0,115,110,320,110c0,0,82,0,167,-15c0,0,84,-16,171,-47V532H752c0,0,-12,101,-59,150c0,0,-47,48,-132,48c0,0,-111,0,-157,-74c0,0,-47,-75,-47,-259c0,0,0,-180,45,-257c0,0,46,-77,149,-77c0,0,80,0,128,47c0,0,48,48,58,137H861C861,247,833,112,745,45c0,0,-87,-65,-238,-65Z" 
id="f0_6"
transform="scale(0.001,-0.001)" />

<path d="M53,0V90H165V703H53v90H429V90H543V0ZM285,876c0,0,-61,0,-102,41c0,0,-42,41,-42,101c0,0,0,60,42,101c0,0,41,42,102,42c0,0,59,0,100,-42c0,0,41,-41,41,-101c0,0,0,-59,-41,-101c0,0,-41,-41,-100,-41Z" 
id="f0_7"
transform="scale(0.001,-0.001)" />

<path d="M510,63c0,0,84,0,118,71c0,0,34,72,34,263c0,0,0,191,-34,262c0,0,-33,71,-118,71c0,0,-84,0,-119,-72c0,0,-34,-72,-34,-261c0,0,0,-190,34,-262c0,0,35,-72,119,-72Zm0,-83c0,0,-209,0,-328,110C182,90,63,201,63,397c0,0,0,196,119,307c0,0,119,110,328,110c0,0,211,0,330,-110c0,0,118,-111,118,-307c0,0,0,-196,-119,-307C839,90,720,-20,510,-20Z" 
id="f0_8"
transform="scale(0.001,-0.001)" />

<path d="M521,463c0,0,76,0,109,66c0,0,33,65,33,226c0,0,0,162,-33,227c0,0,-33,65,-109,65c0,0,-77,0,-109,-65c0,0,-33,-65,-33,-227c0,0,0,-161,33,-226c0,0,32,-66,109,-66ZM450,-20c0,0,-68,0,-144,11c0,0,-77,10,-165,32V220h90c0,0,18,-76,70,-115c0,0,52,-39,135,-39c0,0,131,0,191,91c0,0,60,91,60,297c0,0,-49,-40,-109,-60c0,0,-60,-19,-130,-19c0,0,-170,0,-268,99c0,0,-97,100,-97,275c0,0,0,185,109,285c0,0,109,100,311,100c0,0,228,0,346,-138c0,0,118,-138,118,-404c0,0,0,-304,-130,-459C837,133,706,-20,450,-20Z" 
id="f0_n"
transform="scale(0.001,-0.001)" />

<path d="M154,0V454l138,56V0ZM722,0V454c0,0,0,161,-49,218c0,0,-48,57,-186,57H139V836H485c0,0,207,0,291,-93c0,0,83,-94,83,-318V0Z" 
id="f1_b"
transform="scale(0.001,-0.001)" />

<path d="M114,0l60,312c0,0,2,12,8,39c0,0,6,27,7,37c0,0,2,11,5,30c0,0,2,19,4,33c0,0,1,15,1,31c0,0,0,48,-35,146c0,0,-35,98,-98,208H228c0,0,3,-8,27,-67c0,0,25,-58,41,-117c0,0,21,53,50,90c0,0,29,37,57,57c0,0,29,21,65,32c0,0,37,11,65,14c0,0,28,3,67,3c0,0,300,0,300,-396V0H480V106H761V452c0,0,0,146,-46,215c0,0,-45,70,-118,70c0,0,-134,0,-198,-119c0,0,-36,-68,-67,-222c0,0,-2,-10,-6,-27L253,0Z" 
id="f1_7"
transform="scale(0.001,-0.001)" />

<path d="M139,0V138c0,0,0,61,8,112c0,0,7,52,19,87c0,0,11,36,30,66c0,0,19,31,35,49c0,0,17,19,41,35c0,0,25,17,41,25c0,0,17,7,40,17L141,836H303L613,388c0,0,20,10,33,18c0,0,13,8,34,28c0,0,20,20,33,44c0,0,13,25,22,66c0,0,10,41,10,92V836H882V698c0,0,0,-61,-7,-112c0,0,-6,-52,-18,-88c0,0,-12,-36,-30,-66c0,0,-19,-30,-36,-49c0,0,-17,-18,-41,-34c0,0,-24,-17,-40,-25c0,0,-17,-8,-41,-17L882,0H720L409,448c0,0,-21,-11,-34,-19c0,0,-13,-8,-34,-27c0,0,-21,-20,-34,-44c0,0,-12,-25,-22,-66c0,0,-9,-41,-9,-92V0Z" 
id="f1_l"
transform="scale(0.001,-0.001)" />

<path d="M287,0L589,729H66v386H205V836l547,-1l-2,-82L433,0Z" 
id="f1_m"
transform="scale(0.001,-0.001)" />

<path d="M139,0V836H278V0Z" 
id="f1_6"
transform="scale(0.001,-0.001)" />

<path d="M66,0V107H554V452c0,0,0,56,-4,93c0,0,-4,37,-18,75c0,0,-14,38,-40,60c0,0,-26,22,-71,36c0,0,-45,13,-110,13H66V836H312c0,0,91,0,157,-17c0,0,66,-17,109,-49c0,0,44,-32,69,-84c0,0,26,-52,36,-114c0,0,10,-62,10,-147V107H817V0Z" 
id="f1_a"
transform="scale(0.001,-0.001)" />

<path d="M180,0L66,836H203L258,443c0,0,36,1,64,6c0,0,28,6,49,18c0,0,20,12,35,26c0,0,15,13,26,36c0,0,11,24,17,44c0,0,7,20,12,55c0,0,6,34,9,60c0,0,3,26,8,71c0,0,4,45,9,77H610c0,0,-13,-194,-31,-271c0,0,-31,-127,-111,-179c0,0,-71,-45,-196,-50L304,107c0,0,73,0,130,5c0,0,56,6,111,21c0,0,54,15,94,40c0,0,40,25,77,64c0,0,37,39,63,94c0,0,25,54,46,128c0,0,21,73,34,166c0,0,13,94,20,211h138c0,0,-14,-124,-29,-218c0,0,-16,-94,-39,-179c0,0,-22,-85,-50,-146c0,0,-28,-61,-68,-112c0,0,-39,-51,-87,-84C744,97,696,65,632,42C632,42,568,19,492,10C492,10,417,0,320,0Z" 
id="f1_j"
transform="scale(0.001,-0.001)" />

<path d="M139,0V836H485c0,0,206,0,290,-90c0,0,84,-89,84,-294V0H721V473c0,0,0,147,-49,202c0,0,-48,54,-186,54H277V0Z" 
id="f1_5"
transform="scale(0.001,-0.001)" />

<path d="M71,-141V-15L289,62L66,836H210L416,109c0,0,99,42,153,98c0,0,53,56,80,155c0,0,26,98,26,262V836H817V624c0,0,0,-88,-7,-154c0,0,-7,-67,-25,-132c0,0,-18,-66,-51,-116c0,0,-33,-51,-84,-98c0,0,-50,-48,-123,-87c0,0,-72,-39,-169,-74L71,-141Z" 
id="f1_h"
transform="scale(0.001,-0.001)" />

<path d="M495,0V729H66V836H781V729H634V0Z" 
id="f1_4"
transform="scale(0.001,-0.001)" />

<path d="M102,312V836H241V369L102,312Z" 
id="f1_3"
transform="scale(0.001,-0.001)" />

<path d="M66,0V107H332V555c0,0,0,92,-37,133c0,0,-37,41,-116,41H85V836h94c0,0,153,0,223,-66c0,0,69,-66,69,-231V0Z" 
id="f1_9"
transform="scale(0.001,-0.001)" />

<path d="M163,0V190H321V0Z" 
id="f1_r"
transform="scale(0.001,-0.001)" />

<path d="M112,-5c0,0,-39,0,-97,11V113c0,0,48,-10,77,-10c0,0,53,0,70,42c0,0,17,43,17,164V729H50V836H501c0,0,107,0,179,-25c0,0,72,-25,112,-77c0,0,40,-51,57,-118c0,0,16,-67,16,-164V0H726V454c0,0,0,55,-3,92c0,0,-4,37,-17,75c0,0,-14,38,-38,59c0,0,-24,22,-65,36c0,0,-42,13,-102,13H318V309c0,0,0,-160,-46,-237C272,72,226,-5,112,-5Z" 
id="f1_g"
transform="scale(0.001,-0.001)" />

<path d="M868,0L251,900V60L385,40V0H44V40L172,60V941L44,960v40H347L862,259V941L727,960v40h341V960L940,941V0Z" 
id="f2_1o"
transform="scale(0.001,-0.001)" />

<path d="M377,45c0,0,99,0,147,73c0,0,47,73,47,237c0,0,0,161,-47,233c0,0,-47,72,-147,72c0,0,-97,0,-141,-69c0,0,-44,-69,-44,-236c0,0,0,-169,45,-240c0,0,44,-70,140,-70Zm0,-59c0,0,-158,0,-238,94c0,0,-81,95,-81,274c0,0,0,178,81,272c0,0,80,94,244,94c0,0,160,0,241,-92c0,0,82,-92,82,-274c0,0,0,-368,-329,-368Z" 
id="f2_3"
transform="scale(0.001,-0.001)" />

<path d="M278,-14c0,0,-52,0,-115,11c0,0,-63,10,-99,23V193H98L134,95c0,0,56,-50,146,-50c0,0,144,0,144,123c0,0,0,91,-114,130l-66,21c0,0,-75,25,-110,50c0,0,-34,26,-53,63c0,0,-18,36,-18,89c0,0,0,92,63,145c0,0,63,54,170,54c0,0,77,0,193,-23V544H454l-32,81c0,0,-39,35,-124,35c0,0,-61,0,-92,-30c0,0,-32,-30,-32,-80c0,0,0,-43,29,-72c0,0,28,-29,86,-48c0,0,110,-38,144,-55c0,0,33,-17,57,-42c0,0,23,-25,36,-57c0,0,13,-32,13,-79c0,0,0,-104,-66,-158c0,0,-66,-53,-195,-53Z" 
id="f2_c"
transform="scale(0.001,-0.001)" />

<path d="M495,413c0,0,0,133,-34,190c0,0,-34,57,-105,57c0,0,-78,0,-119,-62c0,0,-42,-63,-42,-185ZM374,-14c0,0,-163,0,-239,87c0,0,-75,88,-75,283c0,0,0,183,77,274c0,0,76,90,219,90c0,0,269,0,269,-306V353H194V339c0,0,0,-103,23,-160c0,0,22,-57,70,-86c0,0,47,-30,124,-30c0,0,40,0,96,6c0,0,55,7,91,15V43C598,43,562,19,500,2c0,0,-61,-16,-126,-16ZM285,835v24l146,203H590v-27L326,835Z" 
id="f2_j"
transform="scale(0.001,-0.001)" />

<path d="M439,0V33l93,19V500c0,0,0,62,-30,97c0,0,-31,36,-94,36c0,0,-67,0,-165,-22V52L338,33V0H35V33l84,19V649L35,668v33H235l7,-57c0,0,57,33,122,54c0,0,65,22,108,22c0,0,91,0,137,-53c0,0,47,-53,47,-154V52L741,33V0Z" 
id="f2_n"
transform="scale(0.001,-0.001)" />

<path d="M32,0V33L151,52V649L52,668v33H275V52L395,33V0ZM201,850c0,0,-32,0,-56,24c0,0,-24,24,-24,56c0,0,0,34,24,58c0,0,24,24,56,24c0,0,34,0,58,-24c0,0,24,-24,24,-58c0,0,0,-32,-24,-56c0,0,-24,-24,-58,-24Z" 
id="f2_b"
transform="scale(0.001,-0.001)" />

<path d="M383,64c0,0,44,0,87,7c0,0,43,7,65,17V645c0,0,-67,13,-152,13c0,0,-194,0,-194,-309c0,0,0,-143,48,-214c0,0,47,-71,146,-71Zm56,-389v35l96,18V-77c0,0,0,73,7,124c0,0,-79,-61,-200,-61c0,0,-287,0,-287,362c0,0,0,180,81,276c0,0,81,96,237,96c0,0,84,0,166,-18l67,33h53V-272l77,-18v-35Z" 
id="f2_1e"
transform="scale(0.001,-0.001)" />

<path d="M289,-14c0,0,-179,0,-179,205V649L20,668v33H233V200c0,0,0,-128,120,-128c0,0,92,0,173,23V649L420,668v33H649V52L738,33V0H533l-6,57C527,57,474,28,405,7c0,0,-69,-21,-116,-21Z" 
id="f2_p"
transform="scale(0.001,-0.001)" />

<path d="M382,45c0,0,188,0,188,314c0,0,0,143,-47,213c0,0,-46,69,-141,69c0,0,-87,0,-146,-24V58c0,0,67,-13,146,-13ZM25,-325v35l88,18V649L34,668v33H231l1,-41c0,0,31,27,84,43c0,0,53,17,107,17c0,0,134,0,208,-94c0,0,73,-93,73,-267c0,0,0,-178,-80,-276c0,0,-80,-97,-232,-97c0,0,-84,0,-160,16c0,0,4,-53,4,-84V-272l123,-18v-35Z" 
id="f2_u"
transform="scale(0.001,-0.001)" />

<path d="M495,413c0,0,0,133,-34,190c0,0,-34,57,-105,57c0,0,-78,0,-119,-63c0,0,-42,-62,-42,-184ZM374,-14c0,0,-163,0,-239,87c0,0,-75,88,-75,283c0,0,0,183,77,273c0,0,76,91,219,91c0,0,269,0,269,-306V353H194V340c0,0,0,-103,23,-160c0,0,22,-57,70,-87c0,0,47,-29,124,-29c0,0,40,0,96,6c0,0,55,7,91,15V43C598,43,562,20,500,3c0,0,-61,-17,-126,-17Z" 
id="f2_9"
transform="scale(0.001,-0.001)" />

<path d="M284,67c0,0,51,0,88,12c0,0,37,12,74,30V358l-98,-3c0,0,-100,-4,-135,-39c0,0,-35,-35,-35,-117c0,0,0,-132,106,-132ZM233,-14c0,0,-179,0,-179,208c0,0,0,70,27,116c0,0,27,46,87,70c0,0,60,24,173,27l105,3V519c0,0,0,72,-26,107c0,0,-27,34,-82,34c0,0,-75,0,-137,-35L176,538H134V691c0,0,121,26,213,26c0,0,115,0,169,-47c0,0,54,-47,54,-144V52L657,33V0H465L451,70c0,0,-85,-84,-218,-84Z" 
id="f2_6"
transform="scale(0.001,-0.001)" />

<path d="M31,0V33l88,19V649L31,668v33H235l7,-87c0,0,44,37,121,71c0,0,76,35,121,35h11V530H463l-43,82c0,0,-37,0,-88,-10c0,0,-52,-10,-89,-26V52L363,33V0Z" 
id="f2_a"
transform="scale(0.001,-0.001)" />

<path d="M442,0V33l93,19V504c0,0,0,129,-124,129c0,0,-70,0,-168,-22V52L338,33V0H31V33l88,19v956L15,1026v34H243V756c0,0,0,-77,-5,-112c0,0,54,31,122,53c0,0,68,23,115,23c0,0,91,0,137,-53c0,0,47,-53,47,-154V52L744,33V0Z" 
id="f2_x"
transform="scale(0.001,-0.001)" />

<path d="M399,-14c0,0,-341,0,-341,370c0,0,0,175,87,269c0,0,87,95,249,95c0,0,101,0,220,-23V501H573L541,625c0,0,-62,35,-149,35c0,0,-200,0,-200,-304c0,0,0,-158,61,-225c0,0,61,-67,189,-67c0,0,109,0,189,24V43C631,43,595,16,530,1c0,0,-64,-15,-131,-15Z" 
id="f2_7"
transform="scale(0.001,-0.001)" />

<path d="M191,-20c0,0,-39,0,-65,25c0,0,-25,27,-25,64c0,0,0,38,26,64c0,0,26,26,64,26c0,0,38,0,64,-26c0,0,26,-26,26,-64c0,0,0,-37,-25,-64c0,0,-26,-25,-65,-25Z" 
id="f2_m"
transform="scale(0.001,-0.001)" />

<path d="M139,-317V836H278V-317Z" 
id="f1_e"
transform="scale(0.001,-0.001)" />

<path d="M66,0V106H564L66,836H228L516,413c0,0,3,2,9,6c0,0,17,13,27,21c0,0,10,8,26,27c0,0,17,20,26,40c0,0,9,21,16,54c0,0,7,34,7,75V836H764V698c0,0,0,-55,-7,-102c0,0,-7,-47,-16,-79c0,0,-10,-33,-27,-62c0,0,-18,-29,-32,-46c0,0,-14,-17,-37,-35c0,0,-22,-17,-36,-25c0,0,-13,-8,-36,-20L767,53V0Z" 
id="f1_n"
transform="scale(0.001,-0.001)" />

<path d="M585,0V426c0,0,0,54,-8,98c0,0,-8,44,-27,83c0,0,-19,40,-49,66c0,0,-30,26,-77,41c0,0,-47,15,-108,15H66V836H315c0,0,94,0,166,-20c0,0,71,-20,116,-54c0,0,46,-35,75,-88c0,0,28,-52,40,-112c0,0,12,-60,12,-137V0Z" 
id="f1_d"
transform="scale(0.001,-0.001)" />

<path d="M736,107V473c0,0,0,147,-48,202c0,0,-49,54,-187,54H278V107ZM139,0V836H499c0,0,105,0,177,-22c0,0,72,-21,116,-69c0,0,44,-49,64,-119c0,0,19,-71,19,-174V0Z" 
id="f1_2"
transform="scale(0.001,-0.001)" />

<path d="M138,-7c0,0,-34,0,-72,10V129c0,0,25,-8,52,-8c0,0,33,0,58,5c0,0,26,5,58,24c0,0,33,20,53,54c0,0,21,34,36,97c0,0,15,64,15,151c0,0,0,113,-19,173c0,0,-19,60,-56,82c0,0,-38,22,-107,22H89V836h72c0,0,165,0,240,-91c0,0,76,-91,76,-293c0,0,0,-107,26,-227c0,0,25,-119,83,-225H437c0,0,-43,101,-62,184c0,0,-24,-60,-51,-99c0,0,-26,-38,-56,-58C268,27,239,7,209,0c0,0,-30,-7,-71,-7Z" 
id="f1_q"
transform="scale(0.001,-0.001)" />

<path d="M322,0V40L481,60V389L130,941L17,960v40H440V960L306,941L593,480L866,941L739,960v40h326V960L955,941L625,394V60L784,40V0Z" 
id="f2_1g"
transform="scale(0.001,-0.001)" />

<path d="M249,-14c0,0,-71,0,-107,42c0,0,-35,42,-35,119V639H15v33l93,29l76,159h47V701H391V639H231V161c0,0,0,-48,22,-73c0,0,22,-24,57,-24c0,0,44,0,106,12V26C416,26,389,8,340,-2c0,0,-49,-12,-91,-12Z" 
id="f2_e"
transform="scale(0.001,-0.001)" />

<path d="M431,0V33L535,52V499c0,0,0,62,-32,96c0,0,-32,33,-95,33c0,0,-66,0,-163,-22V52L350,33V0H32V33l89,19V649L32,668v33H237l6,-57c0,0,56,32,119,54c0,0,62,22,110,22c0,0,52,0,95,-20c0,0,44,-19,66,-62c0,0,57,32,134,57c0,0,77,25,128,25c0,0,179,0,179,-207V52l90,-19V0H846V33L950,52V499c0,0,0,129,-119,129c0,0,-19,0,-45,-3c0,0,-26,-3,-52,-7c0,0,-25,-4,-49,-8c0,0,-23,-5,-39,-8c0,0,13,-41,13,-89V52L764,33V0Z" 
id="f2_8"
transform="scale(0.001,-0.001)" />

<path d="M383,64c0,0,85,0,152,28V645c0,0,-67,13,-152,13c0,0,-194,0,-194,-314c0,0,0,-141,48,-211c0,0,48,-69,146,-69ZM342,-14c0,0,-287,0,-287,358c0,0,0,184,82,280c0,0,81,96,239,96c0,0,81,0,163,-18c0,0,-4,25,-4,124v182l-118,18v34H659V52L745,33V0H548l-9,52c0,0,-84,-66,-197,-66Z" 
id="f2_i"
transform="scale(0.001,-0.001)" />

<path d="M148,-329c0,0,-58,0,-114,13v151H69l24,-71c0,0,23,-17,64,-17c0,0,39,0,72,22c0,0,33,23,60,67c0,0,27,44,68,157L90,649L19,668v33H344V668L233,648L423,158L606,649L497,668v33H758V668L685,652L411,-43c0,0,-48,-124,-84,-177c0,0,-36,-54,-79,-82c0,0,-44,-27,-100,-27Z" 
id="f2_2"
transform="scale(0.001,-0.001)" />

<path d="M35,0V34l84,18V649L35,668v33H235l7,-56c0,0,57,32,122,54c0,0,65,21,108,21c0,0,91,0,137,-53c0,0,47,-53,47,-154V52L741,34V0H439V34l93,18V500c0,0,0,62,-30,97c0,0,-31,36,-94,36c0,0,-67,0,-165,-22V52L338,34V0ZM481,834c0,0,-36,0,-66,16c0,0,-30,16,-57,36c0,0,-27,20,-52,36c0,0,-25,16,-49,16c0,0,-24,0,-39,-9c0,0,-14,-9,-23,-26c0,0,-8,-17,-13,-54H143c0,0,11,180,146,180c0,0,36,0,66,-16c0,0,30,-16,57,-35c0,0,27,-20,52,-36c0,0,25,-16,49,-16c0,0,32,0,50,18c0,0,18,19,25,70h39c0,0,-12,-180,-146,-180Z" 
id="f2_10"
transform="scale(0.001,-0.001)" />

<path d="M117,-176L179,62V190H336V62L213,-176Z" 
id="f1_f"
transform="scale(0.001,-0.001)" />

<path d="M66,0V106H322c0,0,75,0,127,23c0,0,53,23,82,67c0,0,29,43,42,98c0,0,13,54,13,124c0,0,0,70,-13,124c0,0,-13,55,-42,98c0,0,-29,44,-82,67c0,0,-52,23,-127,23H66V836H322c0,0,87,0,157,-24c0,0,70,-24,115,-64c0,0,45,-40,74,-94c0,0,30,-55,43,-113c0,0,13,-59,13,-123c0,0,0,-64,-13,-123c0,0,-13,-58,-43,-113c0,0,-29,-54,-74,-94C594,88,549,48,479,24C479,24,409,0,322,0Z" 
id="f1_c"
transform="scale(0.001,-0.001)" />

<path d="M291,0V190H443V0Zm5,299V414c0,0,0,75,21,124c0,0,21,48,88,113l67,66c0,0,42,40,61,75c0,0,19,35,19,71c0,0,0,67,-48,108c0,0,-49,41,-130,41c0,0,-59,0,-125,-26c0,0,-67,-26,-139,-77v140c0,0,70,43,142,64c0,0,72,21,148,21c0,0,138,0,221,-72c0,0,83,-73,83,-191c0,0,0,-57,-27,-108c0,0,-27,-51,-94,-115L517,583c0,0,-34,-35,-49,-54c0,0,-14,-20,-20,-39c0,0,-5,-16,-7,-38c0,0,-2,-22,-2,-61V299Z" 
id="f1_1b"
transform="scale(0.001,-0.001)" />

<path d="M410,-14c0,0,-80,0,-162,14c0,0,-81,14,-144,38V270h48L178,134c0,0,28,-35,95,-62c0,0,68,-27,134,-27c0,0,104,0,163,53c0,0,58,54,58,148c0,0,0,54,-23,89c0,0,-22,35,-59,59c0,0,-37,24,-84,41c0,0,-47,17,-97,34c0,0,-49,17,-96,38c0,0,-47,21,-84,53c0,0,-37,32,-60,79c0,0,-23,48,-23,117c0,0,0,119,90,187c0,0,89,68,248,68c0,0,121,0,263,-32V771H654L628,893c0,0,-76,55,-188,55c0,0,-100,0,-156,-40c0,0,-56,-41,-56,-112c0,0,0,-49,22,-81c0,0,23,-32,60,-55c0,0,37,-22,84,-39c0,0,48,-16,97,-34c0,0,50,-17,97,-39c0,0,48,-22,85,-56c0,0,36,-34,59,-83c0,0,23,-49,23,-120c0,0,0,-145,-89,-224c0,0,-89,-79,-256,-79Z" 
id="f2_1j"
transform="scale(0.001,-0.001)" />

<path d="M360,-14L72,649L0,668v33H327V668L216,648L420,164L615,649L504,668v33H764V668L697,652L416,-14Z" 
id="f2_4"
transform="scale(0.001,-0.001)" />

<path d="M58,-234v58c0,0,131,42,131,125c0,0,0,15,-11,27c0,0,-11,12,-38,25C140,1,89,27,89,75c0,0,0,40,25,61c0,0,26,21,65,21c0,0,48,0,77,-34c0,0,30,-34,30,-86c0,0,0,-101,-60,-170c0,0,-59,-69,-168,-101Z" 
id="f2_19"
transform="scale(0.001,-0.001)" />

<path d="M306,-20c0,0,-39,0,-65,25c0,0,-25,27,-25,64c0,0,0,38,26,64c0,0,26,26,64,26c0,0,37,0,63,-25c0,0,26,-26,26,-65c0,0,0,-37,-25,-64c0,0,-26,-25,-64,-25ZM269,261L249,510l107,22c0,0,64,13,93,65c0,0,29,52,29,152c0,0,0,109,-39,154c0,0,-40,45,-140,45c0,0,-83,0,-145,-36L128,789H79V979c0,0,118,32,220,32c0,0,316,0,316,-253c0,0,0,-121,-60,-195c0,0,-60,-74,-175,-98l-42,-9L328,261Z" 
id="f2_12"
transform="scale(0.001,-0.001)" />

<path d="M543,-317V369c0,0,0,85,-8,143c0,0,-8,58,-27,101c0,0,-18,44,-51,69c0,0,-33,24,-80,36c0,0,-48,11,-117,11H66V836H257c0,0,125,0,205,-23c0,0,80,-23,130,-79c0,0,50,-56,70,-143c0,0,20,-86,20,-222V-317Z" 
id="f1_t"
transform="scale(0.001,-0.001)" />

<path d="M139,0V106H400c0,0,176,0,253,71c0,0,78,72,78,250c0,0,0,163,-80,233c0,0,-81,69,-250,69H278L277,564c0,0,-1,-54,26,-80c0,0,27,-25,82,-25c0,0,30,0,80,9V355c0,0,-61,-12,-111,-12c0,0,-100,0,-157,55c0,0,-58,55,-58,186V836H456c0,0,193,0,303,-109c0,0,110,-109,110,-309c0,0,0,-200,-110,-309C759,109,648,0,456,0Z" 
id="f1_k"
transform="scale(0.001,-0.001)" />

<path d="M235,0V40L394,60V936H356c0,0,-189,0,-258,-15L78,766H28v234H908V766H857L837,921c0,0,-22,5,-98,9c0,0,-75,4,-165,4H538V60L697,40V0Z" 
id="f2_r"
transform="scale(0.001,-0.001)" />

<path d="M359,-270c0,0,124,0,192,46c0,0,67,47,67,129c0,0,0,43,-26,67c0,0,-26,24,-79,24H242c0,0,-32,-27,-51,-69c0,0,-20,-41,-20,-77c0,0,0,-64,46,-92c0,0,46,-28,142,-28Zm11,561c0,0,81,0,115,47c0,0,34,47,34,141c0,0,0,100,-35,142c0,0,-35,42,-113,42c0,0,-78,0,-114,-43c0,0,-37,-42,-37,-141c0,0,0,-98,36,-143c0,0,36,-45,114,-45ZM359,-329c0,0,-143,0,-218,44c0,0,-75,43,-75,125c0,0,0,39,27,78c0,0,26,38,98,89c0,0,-43,14,-72,48c0,0,-29,35,-29,74L208,262c0,0,-118,55,-118,217c0,0,0,115,73,178c0,0,73,63,211,63c0,0,28,0,71,-6c0,0,44,-6,67,-13l165,83l26,-32L599,644c0,0,50,-56,50,-165c0,0,0,-120,-72,-182c0,0,-73,-62,-208,-62c0,0,-62,0,-114,11L208,148c0,0,2,-13,29,-24c0,0,27,-12,67,-12H512c0,0,113,0,168,-49c0,0,55,-49,55,-134c0,0,0,-79,-44,-137c0,0,-43,-58,-128,-90c0,0,-84,-31,-204,-31Z" 
id="f2_q"
transform="scale(0.001,-0.001)" />

<path d="M376,50c0,0,103,0,149,80c0,0,46,81,46,240c0,0,0,137,-47,204c0,0,-48,67,-148,67c0,0,-44,0,-87,-7c0,0,-44,-8,-63,-17V62c0,0,63,-12,150,-12Zm3,-64c0,0,-64,0,-141,14c0,0,-78,14,-136,37v971L0,1026v34H226V809c0,0,0,-40,-4,-148c0,0,74,59,188,59c0,0,143,0,219,-87c0,0,77,-87,77,-263c0,0,0,-189,-84,-287c0,0,-84,-97,-243,-97Z" 
id="f2_o"
transform="scale(0.001,-0.001)" />

<path d="M31,0V33L150,52v956L31,1026v34H274V52L394,33V0Z" 
id="f2_d"
transform="scale(0.001,-0.001)" />

<path d="M557,-14c0,0,-199,0,-298,89c0,0,-99,90,-99,255V941L32,960v40H432V960L304,941V341c0,0,0,-273,264,-273c0,0,144,0,220,68c0,0,77,68,77,202V941L730,960v40h341V960L943,941V344c0,0,0,-180,-99,-269c0,0,-99,-89,-287,-89Z" 
id="f2_l"
transform="scale(0.001,-0.001)" />

<path d="M156,-317V454l139,56V-317ZM505,0L806,729H139V835H967V753L650,0Z" 
id="f1_p"
transform="scale(0.001,-0.001)" />

<path d="M152,0V473c0,0,0,94,28,161c0,0,29,66,71,95H66V836H463V729H404c0,0,-65,0,-89,-57c0,0,-25,-58,-25,-199V0Z" 
id="f1_o"
transform="scale(0.001,-0.001)" />

<path d="M595,60c0,0,141,0,206,102c0,0,65,102,65,340c0,0,0,236,-65,335c0,0,-65,100,-206,100c0,0,-142,0,-207,-100c0,0,-66,-99,-66,-335c0,0,0,-239,66,-340c0,0,65,-102,207,-102ZM945,-246c0,0,-54,0,-96,10c0,0,-43,10,-79,31c0,0,-36,21,-71,56c0,0,-34,35,-113,135c0,0,-249,2,-380,132C206,118,75,250,75,501c0,0,0,510,520,510c0,0,256,0,387,-129c0,0,132,-130,132,-381c0,0,0,-370,-279,-477l37,-44c0,0,110,-138,188,-138c0,0,39,0,61,6v-64c0,0,-15,-7,-73,-19c0,0,-57,-11,-103,-11Z" 
id="f3_1v"
transform="scale(0.001,-0.001)" />

<path d="M287,-18c0,0,-194,0,-194,206V634L23,652v49H309V217c0,0,0,-63,26,-98c0,0,27,-35,76,-35c0,0,57,0,113,25V634l-64,18v49H740V67L809,49V0H536L526,61L475,35c0,0,-104,-53,-188,-53Z" 
id="f3_q"
transform="scale(0.001,-0.001)" />

<path d="M434,423c0,0,0,100,-7,141c0,0,-6,40,-22,60c0,0,-16,19,-45,19c0,0,-44,0,-66,-48c0,0,-22,-49,-22,-172ZM389,-13c0,0,-172,0,-254,89c0,0,-83,90,-83,278c0,0,0,184,79,274c0,0,79,90,238,90c0,0,142,0,206,-76c0,0,64,-76,64,-236V345H271V333c0,0,0,-111,18,-158c0,0,18,-47,58,-72c0,0,40,-25,110,-25c0,0,66,0,166,22V43C623,43,582,18,517,2c0,0,-66,-15,-128,-15ZM267,834v25l124,203H604v-28L331,834Z" 
id="f3_1a"
transform="scale(0.001,-0.001)" />

<path d="M416,68c0,0,60,0,124,32V628c0,0,-58,15,-118,15c0,0,-67,0,-104,-73c0,0,-38,-73,-38,-216c0,0,0,-139,36,-212c0,0,35,-74,100,-74ZM369,-14c0,0,-155,0,-231,88c0,0,-76,90,-76,274c0,0,0,182,82,277c0,0,81,95,236,95c0,0,82,0,165,-20c0,0,-5,24,-5,115V992l-72,18v50H756V67L833,49V0H562L547,40C547,40,505,13,483,4c0,0,-23,-7,-51,-12c0,0,-28,-6,-63,-6Z" 
id="f3_s"
transform="scale(0.001,-0.001)" />

<path d="M34,0V49l76,18V634L38,652v49H325V67L402,49V0Zm73,834v25l124,203H443v-28L171,834Z" 
id="f3_1w"
transform="scale(0.001,-0.001)" />

<path d="M345,75c0,0,50,0,110,26V351l-63,-2c0,0,-72,-3,-100,-38c0,0,-28,-35,-28,-113c0,0,0,-63,22,-93c0,0,23,-30,59,-30ZM266,-14c0,0,-217,0,-217,208c0,0,0,79,32,126c0,0,32,48,93,71c0,0,60,22,190,25l91,2V521c0,0,0,126,-104,126c0,0,-62,0,-140,-39L183,521H134V691c0,0,112,17,165,21c0,0,53,5,108,5c0,0,264,0,264,-194V67L741,49V0H483L466,54C466,54,408,14,361,0c0,0,-47,-14,-95,-14Z" 
id="f3_f"
transform="scale(0.001,-0.001)" />

<path d="M327,-14c0,0,-101,0,-156,45c0,0,-55,45,-55,131V624H25v48l108,29l87,159H332V701H480V624H332V176c0,0,0,-49,20,-73c0,0,20,-25,53,-25c0,0,40,0,97,12V26c0,0,-22,-15,-76,-27c0,0,-55,-13,-99,-13Z" 
id="f3_h"
transform="scale(0.001,-0.001)" />

<path d="M41,0V49l69,18V634L41,652v49H313l11,-61l50,26c0,0,105,54,188,54c0,0,194,0,194,-207V67L827,49V0H478V49l63,18V484c0,0,0,63,-27,98c0,0,-26,35,-75,35c0,0,-57,0,-114,-25V67L389,49V0Z" 
id="f3_n"
transform="scale(0.001,-0.001)" />

<path d="M41,0V49l69,18V634L41,652v49H313l11,-61l50,26c0,0,105,54,188,54c0,0,125,0,167,-91c0,0,153,91,258,91c0,0,189,0,189,-207V67l71,-17V0H898V50l63,17V484c0,0,0,63,-24,98c0,0,-25,35,-74,35c0,0,-55,0,-119,-31c0,0,7,-32,7,-73V67L821,50V0H473V50l63,17V484c0,0,0,63,-25,98c0,0,-24,35,-73,35c0,0,-49,0,-113,-29V67L389,49V0Z" 
id="f3_z"
transform="scale(0.001,-0.001)" />

<path d="M30,0V49l76,18V992l-72,18v50H322V67L398,49V0Z" 
id="f3_o"
transform="scale(0.001,-0.001)" />

<path d="M379,60c0,0,59,0,84,64c0,0,24,65,24,231c0,0,0,164,-24,227c0,0,-24,63,-84,63c0,0,-57,0,-80,-60c0,0,-22,-61,-22,-230c0,0,0,-173,23,-234c0,0,22,-61,79,-61Zm-2,-74c0,0,-161,0,-240,91c0,0,-79,91,-79,277c0,0,0,186,80,276c0,0,81,90,245,90c0,0,167,0,245,-93c0,0,78,-93,78,-273c0,0,0,-188,-81,-278c0,0,-81,-90,-248,-90Z" 
id="f3_10"
transform="scale(0.001,-0.001)" />

<path d="M231,0V190H382V0Zm15,359L231,625v489H382V625L367,359Z" 
id="f1_16"
transform="scale(0.001,-0.001)" />

<path d="M354,-200c0,0,-112,175,-167,343c0,0,-56,170,-56,337c0,0,0,166,55,335c0,0,55,169,168,345H473c0,0,-100,-172,-148,-340c0,0,-48,-168,-48,-340c0,0,0,-173,48,-342c0,0,49,-168,148,-338Z" 
id="f1_x"
transform="scale(0.001,-0.001)" />

<path d="M122,-200c0,0,99,170,148,338c0,0,49,169,49,342c0,0,0,172,-49,340c0,0,-49,168,-148,340H241c0,0,112,-176,168,-345c0,0,55,-169,55,-335c0,0,0,-167,-55,-337c0,0,-56,-168,-168,-343Z" 
id="f1_w"
transform="scale(0.001,-0.001)" />

<path d="M179,0V190H336V0Zm0,600V790H336V600Z" 
id="f1_10"
transform="scale(0.001,-0.001)" />

<path d="M700,-317V454c0,0,0,155,-54,215c0,0,-54,60,-180,60H277V551c0,0,0,-55,26,-80c0,0,27,-26,82,-26c0,0,30,0,80,10V341c0,0,-61,-11,-111,-11c0,0,-100,0,-157,55c0,0,-58,55,-58,186V836H466c0,0,203,0,288,-91c0,0,85,-92,85,-293V-317Z" 
id="f1_11"
transform="scale(0.001,-0.001)" />

<path d="M522,92c0,0,247,0,247,333c0,0,0,88,-17,146c0,0,-17,58,-53,91c0,0,-35,33,-82,46c0,0,-48,14,-116,14H276V419c0,0,0,-327,246,-327Zm0,-112c0,0,-193,0,-289,109c0,0,-95,110,-95,337V836H501c0,0,213,0,309,-93c0,0,96,-94,96,-317c0,0,0,-227,-95,-337C811,89,715,-20,522,-20Z" 
id="f1_s"
transform="scale(0.001,-0.001)" />

<path d="M522,-20c0,0,-196,0,-290,99c0,0,-94,100,-94,324V836H276V397c0,0,0,-86,16,-147c0,0,17,-60,50,-94c0,0,34,-34,77,-49c0,0,43,-15,103,-15c0,0,59,0,102,15c0,0,44,15,77,49c0,0,33,34,50,94c0,0,17,61,17,147c0,0,0,84,-8,143c0,0,-7,58,-25,105c0,0,-17,47,-51,69c0,0,-33,23,-83,23c0,0,-50,0,-119,-22V821c0,0,85,23,150,23c0,0,76,0,130,-30c0,0,53,-31,85,-90c0,0,31,-59,45,-138c0,0,13,-78,13,-183c0,0,0,-224,-93,-324c0,0,-94,-99,-290,-99Z" 
id="f1_i"
transform="scale(0.001,-0.001)" />

<path d="M190,0V127H436V977L168,923v137l267,54H586V127H832V0Z" 
id="f1_z"
transform="scale(0.001,-0.001)" />

<path d="M486,98c0,0,107,0,169,58c0,0,62,57,62,157c0,0,0,101,-62,159c0,0,-61,57,-169,57c0,0,-108,0,-169,-57c0,0,-62,-58,-62,-159c0,0,0,-100,62,-158c0,0,61,-57,169,-57Zm-1,549c0,0,97,0,152,49c0,0,54,48,54,135c0,0,0,87,-54,135c0,0,-55,49,-152,49c0,0,-97,0,-151,-49c0,0,-54,-48,-54,-135c0,0,0,-87,54,-135c0,0,54,-49,151,-49Zm0,-667c0,0,-184,0,-283,85c0,0,-98,86,-98,248c0,0,0,107,61,181c0,0,61,74,170,99c0,0,-97,24,-151,90c0,0,-54,67,-54,162c0,0,0,134,95,212c0,0,95,77,260,77c0,0,167,0,261,-77c0,0,95,-78,95,-212c0,0,0,-95,-54,-162c0,0,-54,-66,-151,-90c0,0,109,-25,170,-99c0,0,61,-74,61,-181c0,0,0,-162,-99,-248c0,0,-98,-85,-283,-85Z" 
id="f1_1f"
transform="scale(0.001,-0.001)" />


</defs>
</svg>