<?xml version="1.0" encoding="UTF-8" standalone="no"?>
<!DOCTYPE svg PUBLIC "-//W3C//DTD SVG 1.1//EN"
"http://www.w3.org/Graphics/SVG/1.1/DTD/svg11.dtd">
<svg viewBox="0 0 909 1286" version="1.1" xmlns="http://www.w3.org/2000/svg" xmlns:xlink="http://www.w3.org/1999/xlink">
<defs>
<clipPath id="c0_8"><path d="M0,1286.2V0H909.4V1286.2Z" /></clipPath>
<style type="text/css"><![CDATA[
.g0_8{
fill: none;
stroke: #0000FF;
stroke-width: 1.0694444;
stroke-linecap: butt;
stroke-linejoin: miter;
}
.g1_8{
fill: none;
stroke: #000000;
stroke-width: 0.7638889;
stroke-linecap: butt;
stroke-linejoin: round;
}
]]></style>
</defs>
<g clip-path="url(#c0_8)">
<g fill="#000000" >
<use xlink:href="#f0_9" transform="matrix(16,0,0,16,698.8,151.3)" />
<use xlink:href="#f0_5" transform="matrix(16,0,0,16,714,151.3)" />
<use xlink:href="#f0_d" transform="matrix(16,0,0,16,720.7,151.3)" />
<use xlink:href="#f0_5" transform="matrix(16,0,0,16,732.8,151.3)" />
<use xlink:href="#f0_t" transform="matrix(16,0,0,16,739.5,151.3)" />
<use xlink:href="#f0_9" transform="matrix(16,0,0,16,757,151.3)" />
<use xlink:href="#f1_g" transform="matrix(12,0,0,12,723.8,192.8)" />
<use xlink:href="#f1_8" transform="matrix(12,0,0,12,735,192.8)" />
<use xlink:href="#f1_i" transform="matrix(12,0,0,12,740.3,192.8)" />
<use xlink:href="#f1_4" transform="matrix(12,0,0,12,748.6,192.8)" />
<use xlink:href="#f1_7" transform="matrix(12,0,0,12,759.6,192.8)" />
<use xlink:href="#f1_6" transform="matrix(12,0,0,12,704.6,192.8)" />
<use xlink:href="#f1_z" transform="matrix(12,0,0,12,690.7,192.8)" />
<use xlink:href="#f2_z" transform="matrix(10.5,0,0,10.5,254.2,231.5)" />
<use xlink:href="#f2_5" transform="matrix(10.5,0,0,10.5,264,231.5)" />
<use xlink:href="#f2_m" transform="matrix(10.5,0,0,10.5,272.6,231.5)" />
<use xlink:href="#f2_s" transform="matrix(10.5,0,0,10.5,280.6,231.5)" />
<use xlink:href="#f2_10" transform="matrix(10.5,0,0,10.5,284.9,231.5)" />
<use xlink:href="#f2_4" transform="matrix(10.5,0,0,10.5,293,231.5)" />
<use xlink:href="#f2_12" transform="matrix(10.5,0,0,10.5,340.8,231.5)" />
<use xlink:href="#f2_6" transform="matrix(10.5,0,0,10.5,350.6,231.5)" />
<use xlink:href="#f2_m" transform="matrix(10.5,0,0,10.5,361.8,231.5)" />
<use xlink:href="#f2_s" transform="matrix(10.5,0,0,10.5,369.9,231.5)" />
<use xlink:href="#f2_10" transform="matrix(10.5,0,0,10.5,374.1,231.5)" />
<use xlink:href="#f2_6" transform="matrix(10.5,0,0,10.5,382.2,231.5)" />
<use xlink:href="#f2_12" transform="matrix(10.5,0,0,10.5,449,231.5)" />
<use xlink:href="#f2_6" transform="matrix(10.5,0,0,10.5,458.8,231.5)" />
<use xlink:href="#f2_13" transform="matrix(10.5,0,0,10.5,469.9,231.5)" />
<use xlink:href="#f2_e" transform="matrix(10.5,0,0,10.5,478,231.5)" />
<use xlink:href="#f2_u" transform="matrix(10.5,0,0,10.5,485.1,231.5)" />
<use xlink:href="#f2_c" transform="matrix(10.5,0,0,10.5,490.4,231.5)" />
<use xlink:href="#f2_6" transform="matrix(10.5,0,0,10.5,502.9,231.5)" />
<use xlink:href="#f2_m" transform="matrix(10.5,0,0,10.5,509.9,231.5)" />
<use xlink:href="#f2_6" transform="matrix(10.5,0,0,10.5,518,231.5)" />
<use xlink:href="#f2_z" transform="matrix(10.5,0,0,10.5,589.9,231.5)" />
<use xlink:href="#f2_5" transform="matrix(10.5,0,0,10.5,599.7,231.5)" />
<use xlink:href="#f2_y" transform="matrix(10.5,0,0,10.5,608.2,231.5)" />
<use xlink:href="#f2_4" transform="matrix(10.5,0,0,10.5,616.2,231.5)" />
<use xlink:href="#f2_u" transform="matrix(10.5,0,0,10.5,624.2,231.5)" />
<use xlink:href="#f2_q" transform="matrix(10.5,0,0,10.5,629.4,231.5)" />
<use xlink:href="#f2_4" transform="matrix(10.5,0,0,10.5,637.5,231.5)" />
<use xlink:href="#f2_z" transform="matrix(10.5,0,0,10.5,698.2,231.5)" />
<use xlink:href="#f2_5" transform="matrix(10.5,0,0,10.5,708,231.5)" />
<use xlink:href="#f2_r" transform="matrix(10.5,0,0,10.5,716.4,231.5)" />
<use xlink:href="#f2_6" transform="matrix(10.5,0,0,10.5,724.5,231.5)" />
<use xlink:href="#f2_14" transform="matrix(10.5,0,0,10.5,731.6,231.5)" />
<use xlink:href="#f2_4" transform="matrix(10.5,0,0,10.5,735.9,231.5)" />
<use xlink:href="#f2_12" transform="matrix(10.5,0,0,10.5,254.2,249.9)" />
<use xlink:href="#f2_6" transform="matrix(10.5,0,0,10.5,264,249.9)" />
<use xlink:href="#f2_16" transform="matrix(10.5,0,0,10.5,275.2,249.9)" />
<use xlink:href="#f2_6" transform="matrix(10.5,0,0,10.5,282.3,249.9)" />
<use xlink:href="#f2_u" transform="matrix(10.5,0,0,10.5,289.4,249.9)" />
<use xlink:href="#f2_6" transform="matrix(10.5,0,0,10.5,294.7,249.9)" />
<use xlink:href="#f2_12" transform="matrix(10.5,0,0,10.5,340.8,249.9)" />
<use xlink:href="#f2_6" transform="matrix(10.5,0,0,10.5,350.6,249.9)" />
<use xlink:href="#f2_r" transform="matrix(10.5,0,0,10.5,361.8,249.9)" />
<use xlink:href="#f2_6" transform="matrix(10.5,0,0,10.5,369.9,249.9)" />
<use xlink:href="#f2_14" transform="matrix(10.5,0,0,10.5,377,249.9)" />
<use xlink:href="#f2_6" transform="matrix(10.5,0,0,10.5,381.3,249.9)" />
<use xlink:href="#f2_z" transform="matrix(10.5,0,0,10.5,449,249.9)" />
<use xlink:href="#f2_5" transform="matrix(10.5,0,0,10.5,458.8,249.9)" />
<use xlink:href="#f2_q" transform="matrix(10.5,0,0,10.5,467.3,249.9)" />
<use xlink:href="#f2_e" transform="matrix(10.5,0,0,10.5,475.3,249.9)" />
<use xlink:href="#f2_5" transform="matrix(10.5,0,0,10.5,482.5,249.9)" />
<use xlink:href="#f2_y" transform="matrix(10.5,0,0,10.5,486.9,249.9)" />
<use xlink:href="#f2_6" transform="matrix(10.5,0,0,10.5,494.8,249.9)" />
<use xlink:href="#f2_q" transform="matrix(10.5,0,0,10.5,502,249.9)" />
<use xlink:href="#f2_4" transform="matrix(10.5,0,0,10.5,509.9,249.9)" />
<use xlink:href="#f2_z" transform="matrix(10.5,0,0,10.5,589.9,249.9)" />
<use xlink:href="#f2_5" transform="matrix(10.5,0,0,10.5,599.7,249.9)" />
<use xlink:href="#f2_x" transform="matrix(10.5,0,0,10.5,608.2,249.9)" />
<use xlink:href="#f2_u" transform="matrix(10.5,0,0,10.5,616.2,249.9)" />
<use xlink:href="#f2_4" transform="matrix(10.5,0,0,10.5,621.5,249.9)" />
<use xlink:href="#f2_r" transform="matrix(10.5,0,0,10.5,629.4,249.9)" />
<use xlink:href="#f2_5" transform="matrix(10.5,0,0,10.5,637.5,249.9)" />
<use xlink:href="#f2_e" transform="matrix(10.5,0,0,10.5,641.9,249.9)" />
<use xlink:href="#f2_c" transform="matrix(10.5,0,0,10.5,649.1,249.9)" />
<use xlink:href="#f2_6" transform="matrix(10.5,0,0,10.5,661.5,249.9)" />
</g>
<g fill="#0000FF" >
<use xlink:href="#f3_i" transform="matrix(12,0,0,12,669.9,289.1)" />
<use xlink:href="#f3_j" transform="matrix(12,0,0,12,682.9,289.1)" />
<use xlink:href="#f3_g" transform="matrix(12,0,0,12,693.1,289.1)" />
<use xlink:href="#f3_9" transform="matrix(12,0,0,12,704.6,289.1)" />
<use xlink:href="#f3_3" transform="matrix(12,0,0,12,720.9,289.1)" />
<use xlink:href="#f3_j" transform="matrix(12,0,0,12,732.8,289.1)" />
<use xlink:href="#f3_l" transform="matrix(12,0,0,12,743.2,289.1)" />
<use xlink:href="#f3_n" transform="matrix(12,0,0,12,749.6,289.1)" />
<use xlink:href="#f3_4" transform="matrix(12,0,0,12,761.5,289.1)" />
</g>
</g>
<path d="M669.8,290.9H772.1" class="g0_8" />
<g clip-path="url(#c0_8)">
<g fill="#000000" >
<use xlink:href="#f1_g" transform="matrix(12,0,0,12,723.8,371.9)" />
<use xlink:href="#f1_8" transform="matrix(12,0,0,12,735,371.9)" />
<use xlink:href="#f1_i" transform="matrix(12,0,0,12,740.3,371.9)" />
<use xlink:href="#f1_4" transform="matrix(12,0,0,12,748.6,371.9)" />
<use xlink:href="#f1_7" transform="matrix(12,0,0,12,759.6,371.9)" />
<use xlink:href="#f1_m" transform="matrix(12,0,0,12,704.6,371.9)" />
<use xlink:href="#f1_10" transform="matrix(10.5,0,0,10.5,691.1,371.9)" />
</g>
</g>
<path d="M128.6,395.2H780.3M128.6,417.3H780.3M128.6,460.9H780.3M128.6,483H780.3M128.6,505.2H780.3M128.6,527.3H780.3M128.6,549.5H780.3M128.9,394.8v155M343,394.8v155m436.9,-155v155" class="g1_8" />
<g clip-path="url(#c0_8)">
<g fill="#000000" >
<use xlink:href="#f3_c" transform="matrix(12,0,0,12,653.4,412.5)" />
<use xlink:href="#f3_3" transform="matrix(12,0,0,12,659.2,412.5)" />
<use xlink:href="#f3_e" transform="matrix(12,0,0,12,671.2,412.5)" />
<use xlink:href="#f3_4" transform="matrix(12,0,0,12,676.2,412.5)" />
<use xlink:href="#f3_r" transform="matrix(12,0,0,12,686.7,412.5)" />
<use xlink:href="#f3_q" transform="matrix(12,0,0,12,700.1,412.5)" />
<use xlink:href="#f3_e" transform="matrix(12,0,0,12,712.4,412.5)" />
<use xlink:href="#f3_3" transform="matrix(12,0,0,12,717.4,412.5)" />
<use xlink:href="#f3_a" transform="matrix(12,0,0,12,735.1,412.5)" />
<use xlink:href="#f3_9" transform="matrix(12,0,0,12,745.2,412.5)" />
<use xlink:href="#f3_d" transform="matrix(12,0,0,12,755.6,412.5)" />
<use xlink:href="#f3_3" transform="matrix(12,0,0,12,759.7,412.5)" />
<use xlink:href="#f2_z" transform="matrix(11,0,0,11,137.7,411.1)" />
<use xlink:href="#f2_5" transform="matrix(11,0,0,11,147.9,411.1)" />
<use xlink:href="#f2_m" transform="matrix(11,0,0,11,156.9,411.1)" />
<use xlink:href="#f2_s" transform="matrix(11,0,0,11,165.1,411.1)" />
<use xlink:href="#f2_10" transform="matrix(11,0,0,11,169.9,411.1)" />
<use xlink:href="#f2_4" transform="matrix(11,0,0,11,178.3,411.1)" />
<use xlink:href="#f2_e" transform="matrix(11,0,0,11,190.9,411.1)" />
<use xlink:href="#f2_f" transform="matrix(11,0,0,11,198.3,411.1)" />
<use xlink:href="#f2_6" transform="matrix(11,0,0,11,209.1,411.1)" />
<use xlink:href="#f2_5" transform="matrix(11,0,0,11,216.4,411.1)" />
<use xlink:href="#f2_g" transform="matrix(11,0,0,11,221.1,411.1)" />
<use xlink:href="#f2_4" transform="matrix(11,0,0,11,225.8,411.1)" />
<use xlink:href="#f2_n" transform="matrix(11,0,0,11,234.1,411.1)" />
<use xlink:href="#f3_3" transform="matrix(12,0,0,12,574.9,434.7)" />
<use xlink:href="#f3_9" transform="matrix(12,0,0,12,586.8,434.7)" />
<use xlink:href="#f3_d" transform="matrix(12,0,0,12,597.2,434.7)" />
<use xlink:href="#f3_7" transform="matrix(12,0,0,12,601.3,434.7)" />
<use xlink:href="#f3_3" transform="matrix(12,0,0,12,613.8,434.7)" />
<use xlink:href="#f3_18" transform="matrix(12,0,0,12,625.7,434.7)" />
<use xlink:href="#f3_3" transform="matrix(12,0,0,12,640.2,434.7)" />
<use xlink:href="#f3_g" transform="matrix(12,0,0,12,652.1,434.7)" />
<use xlink:href="#f3_d" transform="matrix(12,0,0,12,663.5,434.7)" />
<use xlink:href="#f3_q" transform="matrix(12,0,0,12,675.1,434.7)" />
<use xlink:href="#f3_d" transform="matrix(12,0,0,12,687.4,434.7)" />
<use xlink:href="#f3_3" transform="matrix(12,0,0,12,691.5,434.7)" />
<use xlink:href="#f3_3" transform="matrix(12,0,0,12,710.7,434.7)" />
<use xlink:href="#f3_b" transform="matrix(12,0,0,12,722.6,434.7)" />
<use xlink:href="#f3_e" transform="matrix(12,0,0,12,729.9,434.7)" />
<use xlink:href="#f3_7" transform="matrix(12,0,0,12,734.9,434.7)" />
<use xlink:href="#f3_8" transform="matrix(12,0,0,12,747.4,434.7)" />
<use xlink:href="#f3_3" transform="matrix(12,0,0,12,759.5,434.7)" />
<use xlink:href="#f2_15" transform="matrix(10.5,0,0,10.5,541.6,434.7)" />
<use xlink:href="#f2_4" transform="matrix(10.5,0,0,10.5,546.8,434.7)" />
<use xlink:href="#f2_g" transform="matrix(10.5,0,0,10.5,554.9,434.7)" />
<use xlink:href="#f2_4" transform="matrix(10.5,0,0,10.5,559.3,434.7)" />
<use xlink:href="#f3_8" transform="matrix(12,0,0,12,351.8,434.7)" />
<use xlink:href="#f3_e" transform="matrix(12,0,0,12,363.9,434.7)" />
<use xlink:href="#f3_j" transform="matrix(12,0,0,12,368.8,434.7)" />
<use xlink:href="#f3_7" transform="matrix(12,0,0,12,379.2,434.7)" />
<use xlink:href="#f3_9" transform="matrix(12,0,0,12,391.7,434.7)" />
<use xlink:href="#f3_3" transform="matrix(12,0,0,12,409.5,434.7)" />
<use xlink:href="#f3_4" transform="matrix(12,0,0,12,421.4,434.7)" />
<use xlink:href="#f3_i" transform="matrix(12,0,0,12,432,434.7)" />
<use xlink:href="#f3_b" transform="matrix(12,0,0,12,444.9,434.7)" />
<use xlink:href="#f3_8" transform="matrix(12,0,0,12,459.6,434.7)" />
<use xlink:href="#f3_9" transform="matrix(12,0,0,12,471.6,434.7)" />
<use xlink:href="#f3_d" transform="matrix(12,0,0,12,482,434.7)" />
<use xlink:href="#f3_7" transform="matrix(12,0,0,12,486,434.7)" />
<use xlink:href="#f3_q" transform="matrix(12,0,0,12,506,434.7)" />
<use xlink:href="#f3_d" transform="matrix(12,0,0,12,518.2,434.7)" />
<use xlink:href="#f3_3" transform="matrix(12,0,0,12,522.3,434.7)" />
<use xlink:href="#f3_8" transform="matrix(12,0,0,12,726.2,456)" />
<use xlink:href="#f3_7" transform="matrix(12,0,0,12,738.2,456)" />
<use xlink:href="#f3_e" transform="matrix(12,0,0,12,750.6,456)" />
<use xlink:href="#f3_d" transform="matrix(12,0,0,12,755.6,456)" />
<use xlink:href="#f3_f" transform="matrix(12,0,0,12,759.7,456)" />
<use xlink:href="#f2_4" transform="matrix(10.5,0,0,10.5,712.3,456)" />
<use xlink:href="#f3_c" transform="matrix(12,0,0,12,699.4,456)" />
<use xlink:href="#f3_17" transform="matrix(12,0,0,12,705.2,456)" />
<use xlink:href="#f2_12" transform="matrix(11,0,0,11,137.7,433.3)" />
<use xlink:href="#f2_6" transform="matrix(11,0,0,11,147.9,433.3)" />
<use xlink:href="#f2_15" transform="matrix(11,0,0,11,163.7,433.3)" />
<use xlink:href="#f2_4" transform="matrix(11,0,0,11,169.4,433.3)" />
<use xlink:href="#f2_g" transform="matrix(11,0,0,11,177.8,433.3)" />
<use xlink:href="#f2_4" transform="matrix(11,0,0,11,182.5,433.3)" />
<use xlink:href="#f2_e" transform="matrix(11,0,0,11,195,433.3)" />
<use xlink:href="#f2_f" transform="matrix(11,0,0,11,202.5,433.3)" />
<use xlink:href="#f2_r" transform="matrix(11,0,0,11,213.1,433.3)" />
<use xlink:href="#f2_4" transform="matrix(11,0,0,11,221.5,433.3)" />
<use xlink:href="#f2_m" transform="matrix(11,0,0,11,229.9,433.3)" />
<use xlink:href="#f2_s" transform="matrix(11,0,0,11,238.4,433.3)" />
<use xlink:href="#f2_g" transform="matrix(11,0,0,11,242.9,433.3)" />
<use xlink:href="#f2_6" transform="matrix(11,0,0,11,247.7,433.3)" />
<use xlink:href="#f2_n" transform="matrix(11,0,0,11,255.1,433.3)" />
<use xlink:href="#f3_c" transform="matrix(12,0,0,12,620.6,478.2)" />
<use xlink:href="#f3_3" transform="matrix(12,0,0,12,626.4,478.2)" />
<use xlink:href="#f3_j" transform="matrix(12,0,0,12,638.3,478.2)" />
<use xlink:href="#f3_i" transform="matrix(12,0,0,12,648.7,478.2)" />
<use xlink:href="#f3_d" transform="matrix(12,0,0,12,661.7,478.2)" />
<use xlink:href="#f3_q" transform="matrix(12,0,0,12,671.7,478.2)" />
<use xlink:href="#f3_d" transform="matrix(12,0,0,12,683.9,478.2)" />
<use xlink:href="#f3_3" transform="matrix(12,0,0,12,688,478.2)" />
<use xlink:href="#f3_3" transform="matrix(12,0,0,12,705.8,478.2)" />
<use xlink:href="#f3_d" transform="matrix(12,0,0,12,717.7,478.2)" />
<use xlink:href="#f3_l" transform="matrix(12,0,0,12,721.8,478.2)" />
<use xlink:href="#f3_d" transform="matrix(12,0,0,12,728.2,478.2)" />
<use xlink:href="#f3_e" transform="matrix(12,0,0,12,732.3,478.2)" />
<use xlink:href="#f3_9" transform="matrix(12,0,0,12,737.3,478.2)" />
<use xlink:href="#f3_z" transform="matrix(12,0,0,12,747.7,478.2)" />
<use xlink:href="#f3_3" transform="matrix(12,0,0,12,759.6,478.2)" />
<use xlink:href="#f2_12" transform="matrix(11,0,0,11,137.7,476.8)" />
<use xlink:href="#f2_6" transform="matrix(11,0,0,11,147.9,476.8)" />
<use xlink:href="#f2_g" transform="matrix(11,0,0,11,159.6,476.8)" />
<use xlink:href="#f2_e" transform="matrix(11,0,0,11,164.2,476.8)" />
<use xlink:href="#f2_5" transform="matrix(11,0,0,11,171.7,476.8)" />
<use xlink:href="#f2_e" transform="matrix(11,0,0,11,176.4,476.8)" />
<use xlink:href="#f2_v" transform="matrix(11,0,0,11,183.9,476.8)" />
<use xlink:href="#f2_s" transform="matrix(11,0,0,11,192.1,476.8)" />
<use xlink:href="#f2_f" transform="matrix(11,0,0,11,196.8,476.8)" />
<use xlink:href="#f2_s" transform="matrix(11,0,0,11,203.4,476.8)" />
<use xlink:href="#f2_a" transform="matrix(11,0,0,11,208.1,476.8)" />
<use xlink:href="#f2_m" transform="matrix(11,0,0,11,216.5,476.8)" />
<use xlink:href="#f2_e" transform="matrix(11,0,0,11,229,476.8)" />
<use xlink:href="#f2_f" transform="matrix(11,0,0,11,236.5,476.8)" />
<use xlink:href="#f2_16" transform="matrix(11,0,0,11,247.2,476.8)" />
<use xlink:href="#f2_6" transform="matrix(11,0,0,11,254.6,476.8)" />
<use xlink:href="#f2_u" transform="matrix(11,0,0,11,262.1,476.8)" />
<use xlink:href="#f2_6" transform="matrix(11,0,0,11,267.6,476.8)" />
<use xlink:href="#f2_n" transform="matrix(11,0,0,11,275,476.8)" />
<use xlink:href="#f3_c" transform="matrix(12,0,0,12,660.9,500.3)" />
<use xlink:href="#f3_3" transform="matrix(12,0,0,12,666.7,500.3)" />
<use xlink:href="#f3_g" transform="matrix(12,0,0,12,678.6,500.3)" />
<use xlink:href="#f3_d" transform="matrix(12,0,0,12,690.1,500.3)" />
<use xlink:href="#f3_q" transform="matrix(12,0,0,12,700.1,500.3)" />
<use xlink:href="#f3_e" transform="matrix(12,0,0,12,712.4,500.3)" />
<use xlink:href="#f3_3" transform="matrix(12,0,0,12,717.4,500.3)" />
<use xlink:href="#f3_a" transform="matrix(12,0,0,12,735.1,500.3)" />
<use xlink:href="#f3_9" transform="matrix(12,0,0,12,745.2,500.3)" />
<use xlink:href="#f3_d" transform="matrix(12,0,0,12,755.6,500.3)" />
<use xlink:href="#f3_3" transform="matrix(12,0,0,12,759.7,500.3)" />
<use xlink:href="#f2_z" transform="matrix(10.5,0,0,10.5,137.7,498.4)" />
<use xlink:href="#f2_5" transform="matrix(10.5,0,0,10.5,147.4,498.4)" />
<use xlink:href="#f2_m" transform="matrix(10.5,0,0,10.5,156,498.4)" />
<use xlink:href="#f2_s" transform="matrix(10.5,0,0,10.5,164.1,498.4)" />
<use xlink:href="#f2_10" transform="matrix(10.5,0,0,10.5,168.4,498.4)" />
<use xlink:href="#f2_4" transform="matrix(10.5,0,0,10.5,176.4,498.4)" />
<use xlink:href="#f2_e" transform="matrix(10.5,0,0,10.5,188.5,498.4)" />
<use xlink:href="#f2_f" transform="matrix(10.5,0,0,10.5,195.5,498.4)" />
<use xlink:href="#f2_r" transform="matrix(10.5,0,0,10.5,205.7,498.4)" />
<use xlink:href="#f2_4" transform="matrix(10.5,0,0,10.5,213.8,498.4)" />
<use xlink:href="#f2_m" transform="matrix(10.5,0,0,10.5,221.8,498.4)" />
<use xlink:href="#f2_s" transform="matrix(10.5,0,0,10.5,229.9,498.4)" />
<use xlink:href="#f2_g" transform="matrix(10.5,0,0,10.5,234.3,498.4)" />
<use xlink:href="#f2_4" transform="matrix(10.5,0,0,10.5,238.7,498.4)" />
<use xlink:href="#f2_n" transform="matrix(10.5,0,0,10.5,246.8,498.4)" />
<use xlink:href="#f3_c" transform="matrix(12,0,0,12,603.2,522.5)" />
<use xlink:href="#f3_8" transform="matrix(12,0,0,12,609,522.5)" />
<use xlink:href="#f3_d" transform="matrix(12,0,0,12,621,522.5)" />
<use xlink:href="#f3_z" transform="matrix(12,0,0,12,625.1,522.5)" />
<use xlink:href="#f3_g" transform="matrix(12,0,0,12,637,522.5)" />
<use xlink:href="#f3_7" transform="matrix(12,0,0,12,648.5,522.5)" />
<use xlink:href="#f3_d" transform="matrix(12,0,0,12,660.8,522.5)" />
<use xlink:href="#f3_f" transform="matrix(12,0,0,12,664.9,522.5)" />
<use xlink:href="#f3_q" transform="matrix(12,0,0,12,682.8,522.5)" />
<use xlink:href="#f3_d" transform="matrix(12,0,0,12,695,522.5)" />
<use xlink:href="#f3_3" transform="matrix(12,0,0,12,699.1,522.5)" />
<use xlink:href="#f3_3" transform="matrix(12,0,0,12,717,522.5)" />
<use xlink:href="#f3_4" transform="matrix(12,0,0,12,729,522.5)" />
<use xlink:href="#f3_9" transform="matrix(12,0,0,12,739.6,522.5)" />
<use xlink:href="#f3_k" transform="matrix(12,0,0,12,750,522.5)" />
<use xlink:href="#f3_3" transform="matrix(12,0,0,12,759.6,522.5)" />
<use xlink:href="#f2_12" transform="matrix(10.5,0,0,10.5,137.7,520.5)" />
<use xlink:href="#f2_6" transform="matrix(10.5,0,0,10.5,147.4,520.5)" />
<use xlink:href="#f2_x" transform="matrix(10.5,0,0,10.5,158.6,520.5)" />
<use xlink:href="#f2_e" transform="matrix(10.5,0,0,10.5,166.7,520.5)" />
<use xlink:href="#f2_u" transform="matrix(10.5,0,0,10.5,173.7,520.5)" />
<use xlink:href="#f2_u" transform="matrix(10.5,0,0,10.5,179,520.5)" />
<use xlink:href="#f2_6" transform="matrix(10.5,0,0,10.5,184.4,520.5)" />
<use xlink:href="#f2_e" transform="matrix(10.5,0,0,10.5,195.5,520.5)" />
<use xlink:href="#f2_f" transform="matrix(10.5,0,0,10.5,202.7,520.5)" />
<use xlink:href="#f2_f" transform="matrix(10.5,0,0,10.5,212.9,520.5)" />
<use xlink:href="#f2_s" transform="matrix(10.5,0,0,10.5,219.2,520.5)" />
<use xlink:href="#f2_c" transform="matrix(10.5,0,0,10.5,223.6,520.5)" />
<use xlink:href="#f2_x" transform="matrix(10.5,0,0,10.5,236,520.5)" />
<use xlink:href="#f2_h" transform="matrix(10.5,0,0,10.5,244,520.5)" />
<use xlink:href="#f2_g" transform="matrix(10.5,0,0,10.5,251.2,520.5)" />
<use xlink:href="#f2_s" transform="matrix(10.5,0,0,10.5,255.6,520.5)" />
<use xlink:href="#f2_16" transform="matrix(10.5,0,0,10.5,260.1,520.5)" />
<use xlink:href="#f2_6" transform="matrix(10.5,0,0,10.5,267.1,520.5)" />
<use xlink:href="#f2_n" transform="matrix(10.5,0,0,10.5,274.3,520.5)" />
<use xlink:href="#f3_c" transform="matrix(12,0,0,12,651,544.7)" />
<use xlink:href="#f3_j" transform="matrix(12,0,0,12,656.8,544.7)" />
<use xlink:href="#f3_i" transform="matrix(12,0,0,12,667,544.7)" />
<use xlink:href="#f3_d" transform="matrix(12,0,0,12,680,544.7)" />
<use xlink:href="#f3_q" transform="matrix(12,0,0,12,690.1,544.7)" />
<use xlink:href="#f3_e" transform="matrix(12,0,0,12,702.3,544.7)" />
<use xlink:href="#f3_3" transform="matrix(12,0,0,12,707.3,544.7)" />
<use xlink:href="#f3_o" transform="matrix(12,0,0,12,725.2,544.7)" />
<use xlink:href="#f3_n" transform="matrix(12,0,0,12,737.4,544.7)" />
<use xlink:href="#f3_9" transform="matrix(12,0,0,12,749.3,544.7)" />
<use xlink:href="#f3_3" transform="matrix(12,0,0,12,759.7,544.7)" />
<use xlink:href="#f2_z" transform="matrix(10.5,0,0,10.5,137.7,542.7)" />
<use xlink:href="#f2_5" transform="matrix(10.5,0,0,10.5,147.4,542.7)" />
<use xlink:href="#f2_x" transform="matrix(10.5,0,0,10.5,156,542.7)" />
<use xlink:href="#f2_6" transform="matrix(10.5,0,0,10.5,163.9,542.7)" />
<use xlink:href="#f2_m" transform="matrix(10.5,0,0,10.5,171.1,542.7)" />
<use xlink:href="#f2_e" transform="matrix(10.5,0,0,10.5,183.1,542.7)" />
<use xlink:href="#f2_f" transform="matrix(10.5,0,0,10.5,190.2,542.7)" />
<use xlink:href="#f2_16" transform="matrix(10.5,0,0,10.5,200.4,542.7)" />
<use xlink:href="#f2_6" transform="matrix(10.5,0,0,10.5,207.6,542.7)" />
<use xlink:href="#f2_u" transform="matrix(10.5,0,0,10.5,214.7,542.7)" />
<use xlink:href="#f2_4" transform="matrix(10.5,0,0,10.5,219.9,542.7)" />
<use xlink:href="#f2_n" transform="matrix(10.5,0,0,10.5,228,542.7)" />
</g>
<g fill="#0000FF" >
<use xlink:href="#f3_i" transform="matrix(12,0,0,12,669.9,586.2)" />
<use xlink:href="#f3_j" transform="matrix(12,0,0,12,682.9,586.2)" />
<use xlink:href="#f3_g" transform="matrix(12,0,0,12,693.1,586.2)" />
<use xlink:href="#f3_9" transform="matrix(12,0,0,12,704.6,586.2)" />
<use xlink:href="#f3_3" transform="matrix(12,0,0,12,720.9,586.2)" />
<use xlink:href="#f3_j" transform="matrix(12,0,0,12,732.8,586.2)" />
<use xlink:href="#f3_l" transform="matrix(12,0,0,12,743.2,586.2)" />
<use xlink:href="#f3_n" transform="matrix(12,0,0,12,749.6,586.2)" />
<use xlink:href="#f3_4" transform="matrix(12,0,0,12,761.5,586.2)" />
</g>
</g>
<path d="M669.8,588H772.1" class="g0_8" />
<g clip-path="url(#c0_8)">
<g fill="#000000" >
<use xlink:href="#f3_15" transform="matrix(12,0,0,12,168.1,626.8)" />
<use xlink:href="#f3_8" transform="matrix(12,0,0,12,173.9,626.8)" />
<use xlink:href="#f3_d" transform="matrix(12,0,0,12,185.9,626.8)" />
<use xlink:href="#f3_a" transform="matrix(12,0,0,12,190,626.8)" />
<use xlink:href="#f3_j" transform="matrix(12,0,0,12,200,626.8)" />
<use xlink:href="#f3_g" transform="matrix(12,0,0,12,210.3,626.8)" />
<use xlink:href="#f3_f" transform="matrix(12,0,0,12,221.8,626.8)" />
<use xlink:href="#f3_4" transform="matrix(12,0,0,12,233.7,626.8)" />
<use xlink:href="#f3_o" transform="matrix(12,0,0,12,250,626.8)" />
<use xlink:href="#f3_d" transform="matrix(12,0,0,12,262.2,626.8)" />
<use xlink:href="#f3_9" transform="matrix(12,0,0,12,266.3,626.8)" />
<use xlink:href="#f3_d" transform="matrix(12,0,0,12,276.7,626.8)" />
<use xlink:href="#f3_7" transform="matrix(12,0,0,12,280.8,626.8)" />
<use xlink:href="#f3_3" transform="matrix(12,0,0,12,293.3,626.8)" />
<use xlink:href="#f3_8" transform="matrix(12,0,0,12,311.1,626.8)" />
<use xlink:href="#f3_q" transform="matrix(12,0,0,12,323.1,626.8)" />
<use xlink:href="#f3_s" transform="matrix(12,0,0,12,341.3,626.8)" />
<use xlink:href="#f3_9" transform="matrix(12,0,0,12,351.1,626.8)" />
<use xlink:href="#f3_j" transform="matrix(12,0,0,12,367.3,626.8)" />
<use xlink:href="#f3_d" transform="matrix(12,0,0,12,377.6,626.8)" />
<use xlink:href="#f3_k" transform="matrix(12,0,0,12,381.7,626.8)" />
<use xlink:href="#f3_l" transform="matrix(12,0,0,12,391.4,626.8)" />
<use xlink:href="#f3_3" transform="matrix(12,0,0,12,397.8,626.8)" />
<use xlink:href="#f3_9" transform="matrix(12,0,0,12,409.7,626.8)" />
<use xlink:href="#f3_o" transform="matrix(12,0,0,12,425.9,626.8)" />
<use xlink:href="#f3_8" transform="matrix(12,0,0,12,438.1,626.8)" />
<use xlink:href="#f3_j" transform="matrix(12,0,0,12,450.2,626.8)" />
<use xlink:href="#f3_z" transform="matrix(12,0,0,12,460.4,626.8)" />
<use xlink:href="#f3_7" transform="matrix(12,0,0,12,472.3,626.8)" />
<use xlink:href="#f3_15" transform="matrix(12,0,0,12,490.7,626.8)" />
<use xlink:href="#f3_3" transform="matrix(12,0,0,12,496.5,626.8)" />
<use xlink:href="#f3_d" transform="matrix(12,0,0,12,508.5,626.8)" />
<use xlink:href="#f3_d" transform="matrix(12,0,0,12,512.6,626.8)" />
<use xlink:href="#f3_b" transform="matrix(12,0,0,12,516.7,626.8)" />
<use xlink:href="#f3_6" transform="matrix(12,0,0,12,524,626.8)" />
<use xlink:href="#f3_3" transform="matrix(12,0,0,12,537,626.8)" />
<use xlink:href="#f3_o" transform="matrix(12,0,0,12,554.7,626.8)" />
<use xlink:href="#f3_h" transform="matrix(12,0,0,12,566.9,626.8)" />
<use xlink:href="#f3_g" transform="matrix(12,0,0,12,578.4,626.8)" />
<use xlink:href="#f3_4" transform="matrix(12,0,0,12,589.8,626.8)" />
<use xlink:href="#f3_o" transform="matrix(12,0,0,12,606.2,626.8)" />
<use xlink:href="#f3_d" transform="matrix(12,0,0,12,618.4,626.8)" />
<use xlink:href="#f3_h" transform="matrix(12,0,0,12,622.5,626.8)" />
<use xlink:href="#f3_d" transform="matrix(12,0,0,12,633.9,626.8)" />
<use xlink:href="#f3_g" transform="matrix(12,0,0,12,637.9,626.8)" />
<use xlink:href="#f3_e" transform="matrix(12,0,0,12,649.4,626.8)" />
<use xlink:href="#f3_7" transform="matrix(12,0,0,12,654.3,626.8)" />
<use xlink:href="#f3_o" transform="matrix(12,0,0,12,672.7,626.8)" />
<use xlink:href="#f3_d" transform="matrix(12,0,0,12,684.8,626.8)" />
<use xlink:href="#f3_j" transform="matrix(12,0,0,12,688.9,626.8)" />
<use xlink:href="#f3_e" transform="matrix(12,0,0,12,699.3,626.8)" />
<use xlink:href="#f3_d" transform="matrix(12,0,0,12,704.3,626.8)" />
<use xlink:href="#f3_q" transform="matrix(12,0,0,12,708.4,626.8)" />
<use xlink:href="#f3_j" transform="matrix(12,0,0,12,726.5,626.8)" />
<use xlink:href="#f3_6" transform="matrix(12,0,0,12,736.8,626.8)" />
<use xlink:href="#f3_q" transform="matrix(12,0,0,12,749.8,626.8)" />
<use xlink:href="#f3_k" transform="matrix(12,0,0,12,762,626.8)" />
<use xlink:href="#f3_c" transform="matrix(12,0,0,12,567.4,648.2)" />
<use xlink:href="#f3_8" transform="matrix(12,0,0,12,573.2,648.2)" />
<use xlink:href="#f3_d" transform="matrix(12,0,0,12,585.3,648.2)" />
<use xlink:href="#f3_j" transform="matrix(12,0,0,12,589.4,648.2)" />
<use xlink:href="#f3_4" transform="matrix(12,0,0,12,599.8,648.2)" />
<use xlink:href="#f3_h" transform="matrix(12,0,0,12,610.3,648.2)" />
<use xlink:href="#f3_9" transform="matrix(12,0,0,12,621.8,648.2)" />
<use xlink:href="#f3_8" transform="matrix(12,0,0,12,638.1,648.2)" />
<use xlink:href="#f3_e" transform="matrix(12,0,0,12,650,648.2)" />
<use xlink:href="#f3_7" transform="matrix(12,0,0,12,655,648.2)" />
<use xlink:href="#f3_r" transform="matrix(12,0,0,12,667.5,648.2)" />
<use xlink:href="#f3_j" transform="matrix(12,0,0,12,675,648.2)" />
<use xlink:href="#f3_e" transform="matrix(12,0,0,12,685.4,648.2)" />
<use xlink:href="#f3_8" transform="matrix(12,0,0,12,690.3,648.2)" />
<use xlink:href="#f3_7" transform="matrix(12,0,0,12,702.3,648.2)" />
<use xlink:href="#f3_m" transform="matrix(12,0,0,12,720.7,648.2)" />
<use xlink:href="#f3_b" transform="matrix(12,0,0,12,725.7,648.2)" />
<use xlink:href="#f3_d" transform="matrix(12,0,0,12,733,648.2)" />
<use xlink:href="#f3_q" transform="matrix(12,0,0,12,737.1,648.2)" />
<use xlink:href="#f3_6" transform="matrix(12,0,0,12,749.3,648.2)" />
<use xlink:href="#f3_k" transform="matrix(12,0,0,12,762.3,648.2)" />
<use xlink:href="#f3_t" transform="matrix(12,0,0,12,610.3,689)" />
<use xlink:href="#f3_o" transform="matrix(12,0,0,12,616.5,689)" />
<use xlink:href="#f3_d" transform="matrix(12,0,0,12,628.7,689)" />
<use xlink:href="#f3_q" transform="matrix(12,0,0,12,632.8,689)" />
<use xlink:href="#f3_4" transform="matrix(12,0,0,12,645,689)" />
<use xlink:href="#f3_3" transform="matrix(12,0,0,12,655.5,689)" />
<use xlink:href="#f3_o" transform="matrix(12,0,0,12,673.3,689)" />
<use xlink:href="#f3_d" transform="matrix(12,0,0,12,685.5,689)" />
<use xlink:href="#f3_j" transform="matrix(12,0,0,12,689.5,689)" />
<use xlink:href="#f3_e" transform="matrix(12,0,0,12,699.8,689)" />
<use xlink:href="#f3_d" transform="matrix(12,0,0,12,704.9,689)" />
<use xlink:href="#f3_q" transform="matrix(12,0,0,12,709,689)" />
<use xlink:href="#f3_4" transform="matrix(12,0,0,12,721.2,689)" />
<use xlink:href="#f3_z" transform="matrix(12,0,0,12,737.7,689)" />
<use xlink:href="#f3_4" transform="matrix(12,0,0,12,749.6,689)" />
<use xlink:href="#f3_3" transform="matrix(12,0,0,12,760.1,689)" />
<use xlink:href="#f2_z" transform="matrix(11,0,0,11,670.7,882.9)" />
<use xlink:href="#f2_5" transform="matrix(11,0,0,11,680.9,882.9)" />
<use xlink:href="#f2_h" transform="matrix(11,0,0,11,689.8,882.9)" />
<use xlink:href="#f2_u" transform="matrix(11,0,0,11,697.2,882.9)" />
<use xlink:href="#f2_r" transform="matrix(11,0,0,11,702.9,882.9)" />
<use xlink:href="#f2_4" transform="matrix(11,0,0,11,711.3,882.9)" />
<use xlink:href="#f2_5" transform="matrix(11,0,0,11,719.5,882.9)" />
<use xlink:href="#f2_e" transform="matrix(11,0,0,11,728.5,882.9)" />
<use xlink:href="#f2_f" transform="matrix(11,0,0,11,735.8,882.9)" />
<use xlink:href="#f2_6" transform="matrix(11,0,0,11,746.7,882.9)" />
<use xlink:href="#f2_5" transform="matrix(11,0,0,11,754,882.9)" />
<use xlink:href="#f2_g" transform="matrix(11,0,0,11,758.7,882.9)" />
<use xlink:href="#f2_4" transform="matrix(11,0,0,11,763.4,882.9)" />
<use xlink:href="#f2_12" transform="matrix(11,0,0,11,167.1,882.9)" />
<use xlink:href="#f2_6" transform="matrix(11,0,0,11,177.4,882.9)" />
<use xlink:href="#f2_e" transform="matrix(11,0,0,11,189.1,882.9)" />
<use xlink:href="#f2_f" transform="matrix(11,0,0,11,196.4,882.9)" />
<use xlink:href="#f2_g" transform="matrix(11,0,0,11,203,882.9)" />
<use xlink:href="#f2_l" transform="matrix(11,0,0,11,207.7,882.9)" />
<use xlink:href="#f2_q" transform="matrix(11,0,0,11,216.1,882.9)" />
<use xlink:href="#f2_s" transform="matrix(11,0,0,11,224.5,882.9)" />
<use xlink:href="#f2_6" transform="matrix(11,0,0,11,229.1,882.9)" />
<use xlink:href="#f2_m" transform="matrix(11,0,0,11,236.6,882.9)" />
<use xlink:href="#f2_g" transform="matrix(11,0,0,11,245,882.9)" />
<use xlink:href="#f2_e" transform="matrix(11,0,0,11,249.7,882.9)" />
<use xlink:href="#f2_e" transform="matrix(11,0,0,11,261.3,882.9)" />
<use xlink:href="#f2_f" transform="matrix(11,0,0,11,268.7,882.9)" />
<use xlink:href="#f2_q" transform="matrix(11,0,0,11,279.6,882.9)" />
<use xlink:href="#f2_e" transform="matrix(11,0,0,11,287.8,882.9)" />
<use xlink:href="#f2_5" transform="matrix(11,0,0,11,295.3,882.9)" />
<use xlink:href="#f2_y" transform="matrix(11,0,0,11,300,882.9)" />
<use xlink:href="#f2_6" transform="matrix(11,0,0,11,308.4,882.9)" />
<use xlink:href="#f2_q" transform="matrix(11,0,0,11,315.9,882.9)" />
<use xlink:href="#f2_6" transform="matrix(11,0,0,11,324.3,882.9)" />
<use xlink:href="#f3_1i" transform="matrix(12,0,0,12,137.7,1208.5)" />
</g>
</g>
<image preserveAspectRatio="none" x="221" y="743" width="130" height="99" xlink:href="img/1.png" />
<image preserveAspectRatio="none" x="545" y="743" width="97" height="103" xlink:href="img/2.png" />
<defs>
<path d="M721,-14c0,0,-12,0,-12,9l4,28c0,0,17,82,17,338c0,0,0,105,-11,163c0,0,-11,58,-35,84c0,0,-25,26,-83,26H315c0,0,-43,-39,-67,-90c0,0,-25,-51,-25,-104c0,0,0,-59,17,-104c0,0,17,-45,35,-78c0,0,18,-34,18,-44c0,0,0,-26,-20,-95C273,119,252,50,231,0H26L87,214h69c0,0,23,0,23,14l-7,15c0,0,-15,27,-27,68c0,0,-11,41,-11,83c0,0,0,68,25,124c0,0,25,57,86,116H200c0,0,-45,0,-71,32c0,0,-27,33,-27,94c0,0,0,49,17,93c0,0,16,43,32,43c0,0,17,0,17,-10V869c0,0,0,-24,27,-24H637c0,0,73,0,103,-18c0,0,30,-17,46,-62c0,0,17,-46,24,-124c0,0,8,-78,8,-214V338c0,0,0,-279,-27,-311c0,0,-14,-16,-37,-28c0,0,-23,-13,-33,-13Z" 
id="f0_9"
transform="scale(0.001,-0.001)" />

<path d="M204,-8c0,0,-9,0,-11,5c0,0,-2,5,-2,22V549c0,0,0,40,-4,56c0,0,-4,16,-15,22c0,0,-10,7,-39,7H90c0,0,-33,0,-52,33c0,0,-19,33,-19,90c0,0,0,53,15,98c0,0,16,44,35,44c0,0,12,0,12,-13V872c0,0,0,-27,31,-27h42c0,0,79,0,103,-20c0,0,23,-19,23,-83V67c0,0,0,-16,-8,-26c0,0,-9,-10,-33,-30c0,0,-25,-19,-35,-19Z" 
id="f0_5"
transform="scale(0.001,-0.001)" />

<path d="M20,0L75,212H492c0,0,19,51,25,97c0,0,5,46,5,105c0,0,0,63,-6,124c0,0,-6,61,-23,78c0,0,-16,18,-66,18H112c0,0,-36,0,-57,40c0,0,-21,40,-21,101c0,0,0,50,16,87c0,0,16,36,36,36c0,0,13,0,13,-14V870c0,0,0,-25,34,-25H457c0,0,63,0,92,-11c0,0,28,-10,41,-36c0,0,13,-26,18,-107c0,0,4,-80,4,-174c0,0,0,-174,-13,-224c0,0,-4,-15,-21,-41c0,0,-17,-25,-31,-40H688L640,0Z" 
id="f0_d"
transform="scale(0.001,-0.001)" />

<path d="M216,0c0,0,-59,212,-83,350c0,0,-25,139,-25,198c0,0,0,76,23,127c0,0,-42,13,-58,43c0,0,-15,30,-15,72c0,0,0,40,20,74c0,0,20,34,37,34c0,0,10,0,10,-13c0,0,0,-42,69,-42c0,0,57,0,80,-21c0,0,22,-21,22,-62c0,0,0,-38,-7,-72c0,0,-6,-34,-12,-34c0,0,-6,0,-16,10c0,0,-10,10,-25,10c0,0,-25,0,-35,-24c0,0,-10,-24,-10,-71c0,0,0,-164,72,-374c0,0,38,80,116,231c0,0,87,168,121,238c0,0,-36,6,-52,34c0,0,-17,28,-17,66c0,0,0,41,21,82c0,0,20,42,37,42c0,0,9,0,10,-7c0,0,5,-22,13,-32c0,0,9,-11,32,-12l44,-4c0,0,87,-4,87,-94c0,0,0,-33,-7,-67c0,0,-8,-34,-16,-34l-16,10c0,0,-15,10,-30,10c0,0,-22,0,-39,-29c0,0,-18,-32,-39,-72c0,0,-21,-41,-178,-355H691l38,91c0,0,58,139,124,224c0,0,38,50,60,80c0,0,22,29,22,45c0,0,0,12,-7,19c0,0,-6,7,-27,12c0,0,-42,18,-60,41c0,0,-17,24,-17,59c0,0,0,29,11,56c0,0,12,27,27,43c0,0,16,16,26,16c0,0,9,-1,10,-6l4,-14c0,0,4,-21,27,-25l70,-13c0,0,32,-6,51,-30c0,0,20,-24,20,-61c0,0,-2,-45,-23,-87c0,0,-21,-41,-91,-127c0,0,-46,-57,-77,-116c0,0,-31,-59,-71,-161L706,0Z" 
id="f0_t"
transform="scale(0.001,-0.001)" />

<path d="M248,0L521,658H66v429H313V836l493,-1V716L504,0Z" 
id="f1_g"
transform="scale(0.001,-0.001)" />

<path d="M102,250V836H349V351L102,250Z" 
id="f1_8"
transform="scale(0.001,-0.001)" />

<path d="M154,-13c0,0,-38,0,-85,9V198c0,0,58,-15,103,-15c0,0,84,0,118,60c0,0,35,61,35,206c0,0,0,66,-7,105c0,0,-6,39,-24,63c0,0,-17,25,-44,33c0,0,-27,8,-73,8H66V836H225c0,0,198,0,275,-115c0,0,56,-84,65,-264c0,0,3,-55,3,-148c0,0,0,-177,71,-309L393,1c0,0,-53,130,-54,141c0,0,-28,-90,-65,-123c0,0,-38,-32,-120,-32Z" 
id="f1_i"
transform="scale(0.001,-0.001)" />

<path d="M534,0V425c0,0,0,109,-41,171c0,0,-41,62,-140,62H66V836H352c0,0,99,0,174,-20c0,0,75,-20,123,-55c0,0,48,-35,78,-87c0,0,30,-53,42,-113c0,0,12,-60,12,-136V0Z" 
id="f1_4"
transform="scale(0.001,-0.001)" />

<path d="M173,-6C173,-6,61,-6,15,9V177c0,0,73,-10,82,-10c0,0,37,0,52,30c0,0,14,29,14,116V658H18V836H516c0,0,262,0,341,-145c0,0,48,-89,48,-242V0H658V450c0,0,0,131,-37,171c0,0,-34,37,-105,37H411V313c0,0,0,-189,-67,-258C344,55,285,-6,173,-6Z" 
id="f1_7"
transform="scale(0.001,-0.001)" />

<path d="M180,0V198H433V918L173,864v196l258,54H705V198H958V0Z" 
id="f1_6"
transform="scale(0.001,-0.001)" />

<path d="M83,331V549H551V331Z" 
id="f1_z"
transform="scale(0.001,-0.001)" />

<path d="M44,0V40L172,60V941L44,960v40H794V760H745L721,922c0,0,-83,11,-241,11H316V543H586l23,119h48V354H609L586,475H316V67H513c0,0,193,0,252,12l43,185h49L843,0Z" 
id="f2_z"
transform="scale(0.001,-0.001)" />

<path d="M31,0V33L150,52v956L31,1026v34H274V52L394,33V0Z" 
id="f2_5"
transform="scale(0.001,-0.001)" />

<path d="M439,0V33l93,19V500c0,0,0,62,-30,97c0,0,-31,36,-94,36c0,0,-67,0,-165,-22V52L338,33V0H35V33l84,19V649L35,668v33H235l7,-57c0,0,57,33,122,54c0,0,65,22,108,22c0,0,91,0,137,-53c0,0,47,-53,47,-154V52L741,33V0Z" 
id="f2_m"
transform="scale(0.001,-0.001)" />

<path d="M32,0V33L151,52V649L52,668v33H275V52L395,33V0ZM201,850c0,0,-32,0,-56,24c0,0,-24,24,-24,56c0,0,0,34,24,58c0,0,24,24,56,24c0,0,34,0,58,-24c0,0,24,-24,24,-58c0,0,0,-32,-24,-56c0,0,-24,-24,-58,-24Z" 
id="f2_s"
transform="scale(0.001,-0.001)" />

<path d="M35,0V34l84,18V649L35,668v33H235l7,-56c0,0,57,32,122,54c0,0,65,21,108,21c0,0,91,0,137,-53c0,0,47,-53,47,-154V52L741,34V0H439V34l93,18V500c0,0,0,62,-30,97c0,0,-31,36,-94,36c0,0,-67,0,-165,-22V52L338,34V0ZM481,834c0,0,-36,0,-66,16c0,0,-30,16,-57,36c0,0,-27,20,-52,36c0,0,-25,16,-49,16c0,0,-24,0,-39,-9c0,0,-14,-9,-23,-26c0,0,-8,-17,-13,-54H143c0,0,11,180,146,180c0,0,36,0,66,-16c0,0,30,-16,57,-35c0,0,27,-20,52,-36c0,0,25,-16,49,-16c0,0,32,0,50,18c0,0,18,19,25,70h39c0,0,-12,-180,-146,-180Z" 
id="f2_10"
transform="scale(0.001,-0.001)" />

<path d="M377,45c0,0,99,0,147,73c0,0,47,73,47,237c0,0,0,161,-47,233c0,0,-47,72,-147,72c0,0,-97,0,-141,-69c0,0,-44,-69,-44,-236c0,0,0,-169,45,-240c0,0,44,-70,140,-70Zm0,-59c0,0,-158,0,-238,94c0,0,-81,95,-81,274c0,0,0,178,81,272c0,0,80,94,244,94c0,0,160,0,241,-92c0,0,82,-92,82,-274c0,0,0,-368,-329,-368Z" 
id="f2_4"
transform="scale(0.001,-0.001)" />

<path d="M44,0V40L172,60V941L44,960v40H471V960L316,941V65H513c0,0,159,0,234,14l46,208h48L828,0Z" 
id="f2_12"
transform="scale(0.001,-0.001)" />

<path d="M284,67c0,0,51,0,88,12c0,0,37,12,74,30V358l-98,-3c0,0,-100,-4,-135,-39c0,0,-35,-35,-35,-117c0,0,0,-132,106,-132ZM233,-14c0,0,-179,0,-179,208c0,0,0,70,27,116c0,0,27,46,87,70c0,0,60,24,173,27l105,3V519c0,0,0,72,-26,107c0,0,-27,34,-82,34c0,0,-75,0,-137,-35L176,538H134V691c0,0,121,26,213,26c0,0,115,0,169,-47c0,0,54,-47,54,-144V52L657,33V0H465L451,70c0,0,-85,-84,-218,-84Z" 
id="f2_6"
transform="scale(0.001,-0.001)" />

<path d="M442,0V33l93,19V504c0,0,0,129,-124,129c0,0,-70,0,-168,-22V52L338,33V0H31V33l88,19v956L15,1026v34H243V756c0,0,0,-77,-5,-112c0,0,54,31,122,53c0,0,68,23,115,23c0,0,91,0,137,-53c0,0,47,-53,47,-154V52L744,33V0Z" 
id="f2_13"
transform="scale(0.001,-0.001)" />

<path d="M495,413c0,0,0,133,-34,190c0,0,-34,57,-105,57c0,0,-78,0,-119,-63c0,0,-42,-62,-42,-184ZM374,-14c0,0,-163,0,-239,87c0,0,-75,88,-75,283c0,0,0,183,77,273c0,0,76,91,219,91c0,0,269,0,269,-306V353H194V340c0,0,0,-103,23,-160c0,0,22,-57,70,-87c0,0,47,-29,124,-29c0,0,40,0,96,6c0,0,55,7,91,15V43C598,43,562,20,500,3c0,0,-61,-17,-126,-17Z" 
id="f2_e"
transform="scale(0.001,-0.001)" />

<path d="M31,0V33l88,19V649L31,668v33H235l7,-87c0,0,44,37,121,71c0,0,76,35,121,35h11V530H463l-43,82c0,0,-37,0,-88,-10c0,0,-52,-10,-89,-26V52L363,33V0Z" 
id="f2_u"
transform="scale(0.001,-0.001)" />

<path d="M431,0V33L535,52V499c0,0,0,62,-32,96c0,0,-32,33,-95,33c0,0,-66,0,-163,-22V52L350,33V0H32V33l89,19V649L32,668v33H237l6,-57c0,0,56,32,119,54c0,0,62,22,110,22c0,0,52,0,95,-20c0,0,44,-19,66,-62c0,0,57,32,134,57c0,0,77,25,128,25c0,0,179,0,179,-207V52l90,-19V0H846V33L950,52V499c0,0,0,129,-119,129c0,0,-19,0,-45,-3c0,0,-26,-3,-52,-7c0,0,-25,-4,-49,-8c0,0,-23,-5,-39,-8c0,0,13,-41,13,-89V52L764,33V0Z" 
id="f2_c"
transform="scale(0.001,-0.001)" />

<path d="M359,-270c0,0,124,0,192,46c0,0,67,47,67,129c0,0,0,43,-26,67c0,0,-26,24,-79,24H242c0,0,-32,-27,-51,-69c0,0,-20,-41,-20,-77c0,0,0,-64,46,-92c0,0,46,-28,142,-28Zm11,561c0,0,81,0,115,47c0,0,34,47,34,141c0,0,0,100,-35,142c0,0,-35,42,-113,42c0,0,-78,0,-114,-43c0,0,-37,-42,-37,-141c0,0,0,-98,36,-143c0,0,36,-45,114,-45ZM359,-329c0,0,-143,0,-218,44c0,0,-75,43,-75,125c0,0,0,39,27,78c0,0,26,38,98,89c0,0,-43,14,-72,48c0,0,-29,35,-29,74L208,262c0,0,-118,55,-118,217c0,0,0,115,73,178c0,0,73,63,211,63c0,0,28,0,71,-6c0,0,44,-6,67,-13l165,83l26,-32L599,644c0,0,50,-56,50,-165c0,0,0,-120,-72,-182c0,0,-73,-62,-208,-62c0,0,-62,0,-114,11L208,148c0,0,2,-13,29,-24c0,0,27,-12,67,-12H512c0,0,113,0,168,-49c0,0,55,-49,55,-134c0,0,0,-79,-44,-137c0,0,-43,-58,-128,-90c0,0,-84,-31,-204,-31Z" 
id="f2_y"
transform="scale(0.001,-0.001)" />

<path d="M383,64c0,0,85,0,152,28V645c0,0,-67,13,-152,13c0,0,-194,0,-194,-314c0,0,0,-141,48,-211c0,0,48,-69,146,-69ZM342,-14c0,0,-287,0,-287,358c0,0,0,184,82,280c0,0,81,96,239,96c0,0,81,0,163,-18c0,0,-4,25,-4,124v182l-118,18v34H659V52L745,33V0H548l-9,52c0,0,-84,-66,-197,-66Z" 
id="f2_q"
transform="scale(0.001,-0.001)" />

<path d="M376,50c0,0,103,0,149,80c0,0,46,81,46,240c0,0,0,137,-47,204c0,0,-48,67,-148,67c0,0,-44,0,-87,-7c0,0,-44,-8,-63,-17V62c0,0,63,-12,150,-12Zm3,-64c0,0,-64,0,-141,14c0,0,-78,14,-136,37v971L0,1026v34H226V809c0,0,0,-40,-4,-148c0,0,74,59,188,59c0,0,143,0,219,-87c0,0,77,-87,77,-263c0,0,0,-189,-84,-287c0,0,-84,-97,-243,-97Z" 
id="f2_r"
transform="scale(0.001,-0.001)" />

<path d="M64,-325c0,0,-46,0,-107,14v148H-8l19,-81c0,0,25,-21,62,-21c0,0,44,0,67,47c0,0,22,47,22,152V649L57,668v33H286V-28c0,0,0,-146,-57,-221c0,0,-56,-76,-165,-76ZM213,850c0,0,-34,0,-58,24c0,0,-24,24,-24,56c0,0,0,34,24,58c0,0,24,24,58,24c0,0,32,0,56,-24c0,0,24,-24,24,-58c0,0,0,-32,-24,-56c0,0,-24,-24,-56,-24Z" 
id="f2_14"
transform="scale(0.001,-0.001)" />

<path d="M399,-14c0,0,-341,0,-341,370c0,0,0,175,87,269c0,0,87,95,249,95c0,0,101,0,220,-23V501H573L541,625c0,0,-62,35,-149,35c0,0,-200,0,-200,-304c0,0,0,-158,61,-225c0,0,61,-67,189,-67c0,0,109,0,189,24V43C631,43,595,16,530,1c0,0,-64,-15,-131,-15Z" 
id="f2_16"
transform="scale(0.001,-0.001)" />

<path d="M382,45c0,0,188,0,188,314c0,0,0,143,-47,213c0,0,-46,69,-141,69c0,0,-87,0,-146,-24V58c0,0,67,-13,146,-13ZM25,-325v35l88,18V649L34,668v33H231l1,-41c0,0,31,27,84,43c0,0,53,17,107,17c0,0,134,0,208,-94c0,0,73,-93,73,-267c0,0,0,-178,-80,-276c0,0,-80,-97,-232,-97c0,0,-84,0,-160,16c0,0,4,-53,4,-84V-272l123,-18v-35Z" 
id="f2_x"
transform="scale(0.001,-0.001)" />

<path d="M156,-317V454l139,56V-317ZM505,0L806,729H139V835H967V753L650,0Z" 
id="f3_i"
transform="scale(0.001,-0.001)" />

<path d="M585,0V426c0,0,0,54,-8,98c0,0,-8,44,-27,83c0,0,-19,40,-49,66c0,0,-30,26,-77,41c0,0,-47,15,-108,15H66V836H315c0,0,94,0,166,-20c0,0,71,-20,116,-54c0,0,46,-35,75,-88c0,0,28,-52,40,-112c0,0,12,-60,12,-137V0Z" 
id="f3_j"
transform="scale(0.001,-0.001)" />

<path d="M139,0V106H400c0,0,176,0,253,71c0,0,78,72,78,250c0,0,0,163,-80,233c0,0,-81,69,-250,69H278L277,564c0,0,-1,-54,26,-80c0,0,27,-25,82,-25c0,0,30,0,80,9V355c0,0,-61,-12,-111,-12c0,0,-100,0,-157,55c0,0,-58,55,-58,186V836H456c0,0,193,0,303,-109c0,0,110,-109,110,-309c0,0,0,-200,-110,-309C759,109,648,0,456,0Z" 
id="f3_g"
transform="scale(0.001,-0.001)" />

<path d="M287,0L589,729H66v386H205V836l547,-1l-2,-82L433,0Z" 
id="f3_9"
transform="scale(0.001,-0.001)" />

<path d="M154,0V454l138,56V0ZM722,0V454c0,0,0,161,-49,218c0,0,-48,57,-186,57H139V836H485c0,0,207,0,291,-93c0,0,83,-94,83,-318V0Z" 
id="f3_3"
transform="scale(0.001,-0.001)" />

<path d="M152,0V473c0,0,0,94,28,161c0,0,29,66,71,95H66V836H463V729H404c0,0,-65,0,-89,-57c0,0,-25,-58,-25,-199V0Z" 
id="f3_l"
transform="scale(0.001,-0.001)" />

<path d="M139,0V836H485c0,0,206,0,290,-90c0,0,84,-89,84,-294V0H721V473c0,0,0,147,-49,202c0,0,-48,54,-186,54H277V0Z" 
id="f3_n"
transform="scale(0.001,-0.001)" />

<path d="M66,0V107H554V452c0,0,0,56,-4,93c0,0,-4,37,-18,75c0,0,-14,38,-40,60c0,0,-26,22,-71,36c0,0,-45,13,-110,13H66V836H312c0,0,91,0,157,-17c0,0,66,-17,109,-49c0,0,44,-32,69,-84c0,0,26,-52,36,-114c0,0,10,-62,10,-147V107H817V0Z" 
id="f3_4"
transform="scale(0.001,-0.001)" />

<path d="M121,0V211L528,570c0,0,54,50,80,96c0,0,27,47,27,98c0,0,0,78,-53,126c0,0,-53,48,-140,48c0,0,-67,0,-147,-29c0,0,-80,-28,-171,-85v245c0,0,97,32,192,48c0,0,95,17,186,17c0,0,199,0,310,-88c0,0,111,-88,111,-245c0,0,0,-91,-47,-170c0,0,-47,-79,-197,-211L441,211H931V0Z" 
id="f1_m"
transform="scale(0.001,-0.001)" />

<path d="M82,322V514H682V322Z" 
id="f1_10"
transform="scale(0.001,-0.001)" />

<path d="M163,0V190H321V0Z" 
id="f3_c"
transform="scale(0.001,-0.001)" />

<path d="M139,0V836H278V0Z" 
id="f3_e"
transform="scale(0.001,-0.001)" />

<path d="M138,-7c0,0,-34,0,-72,10V129c0,0,25,-8,52,-8c0,0,33,0,58,5c0,0,26,5,58,24c0,0,33,20,53,54c0,0,21,34,36,97c0,0,15,64,15,151c0,0,0,113,-19,173c0,0,-19,60,-56,82c0,0,-38,22,-107,22H89V836h72c0,0,165,0,240,-91c0,0,76,-91,76,-293c0,0,0,-107,26,-227c0,0,25,-119,83,-225H437c0,0,-43,101,-62,184c0,0,-24,-60,-51,-99c0,0,-26,-38,-56,-58C268,27,239,7,209,0c0,0,-30,-7,-71,-7Z" 
id="f3_r"
transform="scale(0.001,-0.001)" />

<path d="M139,0V138c0,0,0,61,8,112c0,0,7,52,19,87c0,0,11,36,30,66c0,0,19,31,35,49c0,0,17,19,41,35c0,0,25,17,41,25c0,0,17,7,40,17L141,836H303L613,388c0,0,20,10,33,18c0,0,13,8,34,28c0,0,20,20,33,44c0,0,13,25,22,66c0,0,10,41,10,92V836H882V698c0,0,0,-61,-7,-112c0,0,-6,-52,-18,-88c0,0,-12,-36,-30,-66c0,0,-19,-30,-36,-49c0,0,-17,-18,-41,-34c0,0,-24,-17,-40,-25c0,0,-17,-8,-41,-17L882,0H720L409,448c0,0,-21,-11,-34,-19c0,0,-13,-8,-34,-27c0,0,-21,-20,-34,-44c0,0,-12,-25,-22,-66c0,0,-9,-41,-9,-92V0Z" 
id="f3_q"
transform="scale(0.001,-0.001)" />

<path d="M495,0V729H66V836H781V729H634V0Z" 
id="f3_a"
transform="scale(0.001,-0.001)" />

<path d="M102,312V836H241V369L102,312Z" 
id="f3_d"
transform="scale(0.001,-0.001)" />

<path d="M278,-14c0,0,-52,0,-115,11c0,0,-63,10,-99,23V193H98L134,95c0,0,56,-50,146,-50c0,0,144,0,144,123c0,0,0,91,-114,130l-66,21c0,0,-75,25,-110,50c0,0,-34,26,-53,63c0,0,-18,36,-18,89c0,0,0,92,63,145c0,0,63,54,170,54c0,0,77,0,193,-23V544H454l-32,81c0,0,-39,35,-124,35c0,0,-61,0,-92,-30c0,0,-32,-30,-32,-80c0,0,0,-43,29,-72c0,0,28,-29,86,-48c0,0,110,-38,144,-55c0,0,33,-17,57,-42c0,0,23,-25,36,-57c0,0,13,-32,13,-79c0,0,0,-104,-66,-158c0,0,-66,-53,-195,-53Z" 
id="f2_f"
transform="scale(0.001,-0.001)" />

<path d="M249,-14c0,0,-71,0,-107,42c0,0,-35,42,-35,119V639H15v33l93,29l76,159h47V701H391V639H231V161c0,0,0,-48,22,-73c0,0,22,-24,57,-24c0,0,44,0,106,12V26C416,26,389,8,340,-2c0,0,-49,-12,-91,-12Z" 
id="f2_g"
transform="scale(0.001,-0.001)" />

<path d="M191,-20c0,0,-39,0,-65,25c0,0,-25,27,-25,64c0,0,0,38,26,64c0,0,26,26,64,26c0,0,38,0,64,-26c0,0,26,-26,26,-64c0,0,0,-37,-25,-64c0,0,-26,-25,-65,-25Z" 
id="f2_n"
transform="scale(0.001,-0.001)" />

<path d="M114,0l60,312c0,0,2,12,8,39c0,0,6,27,7,37c0,0,2,11,5,30c0,0,2,19,4,33c0,0,1,15,1,31c0,0,0,48,-35,146c0,0,-35,98,-98,208H228c0,0,3,-8,27,-67c0,0,25,-58,41,-117c0,0,21,53,50,90c0,0,29,37,57,57c0,0,29,21,65,32c0,0,37,11,65,14c0,0,28,3,67,3c0,0,300,0,300,-396V0H480V106H761V452c0,0,0,146,-46,215c0,0,-45,70,-118,70c0,0,-134,0,-198,-119c0,0,-36,-68,-67,-222c0,0,-2,-10,-6,-27L253,0Z" 
id="f3_7"
transform="scale(0.001,-0.001)" />

<path d="M122,-200c0,0,99,170,148,338c0,0,49,169,49,342c0,0,0,172,-49,340c0,0,-49,168,-148,340H241c0,0,112,-176,168,-345c0,0,55,-169,55,-335c0,0,0,-167,-55,-337c0,0,-56,-168,-168,-343Z" 
id="f3_18"
transform="scale(0.001,-0.001)" />

<path d="M66,0V107H332V555c0,0,0,92,-37,133c0,0,-37,41,-116,41H85V836h94c0,0,153,0,223,-66c0,0,69,-66,69,-231V0Z" 
id="f3_b"
transform="scale(0.001,-0.001)" />

<path d="M112,-5c0,0,-39,0,-97,11V113c0,0,48,-10,77,-10c0,0,53,0,70,42c0,0,17,43,17,164V729H50V836H501c0,0,107,0,179,-25c0,0,72,-25,112,-77c0,0,40,-51,57,-118c0,0,16,-67,16,-164V0H726V454c0,0,0,55,-3,92c0,0,-4,37,-17,75c0,0,-14,38,-38,59c0,0,-24,22,-65,36c0,0,-42,13,-102,13H318V309c0,0,0,-160,-46,-237C272,72,226,-5,112,-5Z" 
id="f3_8"
transform="scale(0.001,-0.001)" />

<path d="M64,0V34L168,59V639H47v36l121,29v49c0,0,0,155,61,239c0,0,62,84,173,84c0,0,58,0,107,-15V908H472l-33,92c0,0,-26,16,-62,16c0,0,-47,0,-66,-42c0,0,-19,-42,-19,-157V701H478V639H292V59L443,34V0Z" 
id="f2_15"
transform="scale(0.001,-0.001)" />

<path d="M522,92c0,0,247,0,247,333c0,0,0,88,-17,146c0,0,-17,58,-53,91c0,0,-35,33,-82,46c0,0,-48,14,-116,14H276V419c0,0,0,-327,246,-327Zm0,-112c0,0,-193,0,-289,109c0,0,-95,110,-95,337V836H501c0,0,213,0,309,-93c0,0,96,-94,96,-317c0,0,0,-227,-95,-337C811,89,715,-20,522,-20Z" 
id="f3_f"
transform="scale(0.001,-0.001)" />

<path d="M354,-200c0,0,-112,175,-167,343c0,0,-56,170,-56,337c0,0,0,166,55,335c0,0,55,169,168,345H473c0,0,-100,-172,-148,-340c0,0,-48,-168,-48,-340c0,0,0,-173,48,-342c0,0,49,-168,148,-338Z" 
id="f3_17"
transform="scale(0.001,-0.001)" />

<path d="M522,-20c0,0,-196,0,-290,99c0,0,-94,100,-94,324V836H276V397c0,0,0,-86,16,-147c0,0,17,-60,50,-94c0,0,34,-34,77,-49c0,0,43,-15,103,-15c0,0,59,0,102,15c0,0,44,15,77,49c0,0,33,34,50,94c0,0,17,61,17,147c0,0,0,84,-8,143c0,0,-7,58,-25,105c0,0,-17,47,-51,69c0,0,-33,23,-83,23c0,0,-50,0,-119,-22V821c0,0,85,23,150,23c0,0,76,0,130,-30c0,0,53,-31,85,-90c0,0,31,-59,45,-138c0,0,13,-78,13,-183c0,0,0,-224,-93,-324c0,0,-94,-99,-290,-99Z" 
id="f3_z"
transform="scale(0.001,-0.001)" />

<path d="M360,-14L72,649L0,668v33H327V668L216,648L420,164L615,649L504,668v33H764V668L697,652L416,-14Z" 
id="f2_v"
transform="scale(0.001,-0.001)" />

<path d="M377,44c0,0,99,0,147,73c0,0,47,73,47,237c0,0,0,161,-47,234c0,0,-47,72,-147,72c0,0,-97,0,-141,-69c0,0,-44,-70,-44,-237c0,0,0,-169,45,-239c0,0,44,-71,140,-71Zm0,-58c0,0,-158,0,-238,94c0,0,-81,95,-81,274c0,0,0,178,81,272c0,0,80,94,244,94c0,0,160,0,241,-92c0,0,82,-92,82,-274c0,0,0,-368,-329,-368ZM301,835v24l147,203H606v-27L342,835Z" 
id="f2_a"
transform="scale(0.001,-0.001)" />

<path d="M66,0V106H322c0,0,75,0,127,23c0,0,53,23,82,67c0,0,29,43,42,98c0,0,13,54,13,124c0,0,0,70,-13,124c0,0,-13,55,-42,98c0,0,-29,44,-82,67c0,0,-52,23,-127,23H66V836H322c0,0,87,0,157,-24c0,0,70,-24,115,-64c0,0,45,-40,74,-94c0,0,30,-55,43,-113c0,0,13,-59,13,-123c0,0,0,-64,-13,-123c0,0,-13,-58,-43,-113c0,0,-29,-54,-74,-94C594,88,549,48,479,24C479,24,409,0,322,0Z" 
id="f3_k"
transform="scale(0.001,-0.001)" />

<path d="M284,67c0,0,51,0,88,12c0,0,37,11,74,29V357l-98,-3c0,0,-100,-3,-135,-38c0,0,-35,-36,-35,-118c0,0,0,-131,106,-131ZM233,-14c0,0,-179,0,-179,208c0,0,0,70,27,116c0,0,27,46,87,70c0,0,60,24,173,27l105,3V519c0,0,0,73,-26,107c0,0,-27,34,-82,34c0,0,-75,0,-137,-35L176,538H134V691c0,0,121,26,213,26c0,0,115,0,169,-47c0,0,54,-47,54,-144V52L657,34V0H465L451,70c0,0,-85,-84,-218,-84Zm22,849v24l146,203H560v-27L296,835Z" 
id="f2_h"
transform="scale(0.001,-0.001)" />

<path d="M736,107V473c0,0,0,147,-48,202c0,0,-49,54,-187,54H278V107ZM139,0V836H499c0,0,105,0,177,-22c0,0,72,-21,116,-69c0,0,44,-49,64,-119c0,0,19,-71,19,-174V0Z" 
id="f3_o"
transform="scale(0.001,-0.001)" />

<path d="M117,-176L179,62V190H336V62L213,-176Z" 
id="f3_15"
transform="scale(0.001,-0.001)" />

<path d="M543,-317V369c0,0,0,85,-8,143c0,0,-8,58,-27,101c0,0,-18,44,-51,69c0,0,-33,24,-80,36c0,0,-48,11,-117,11H66V836H257c0,0,125,0,205,-23c0,0,80,-23,130,-79c0,0,50,-56,70,-143c0,0,20,-86,20,-222V-317Z" 
id="f3_s"
transform="scale(0.001,-0.001)" />

<path d="M180,0L66,836H203L258,443c0,0,36,1,64,6c0,0,28,6,49,18c0,0,20,12,35,26c0,0,15,13,26,36c0,0,11,24,17,44c0,0,7,20,12,55c0,0,6,34,9,60c0,0,3,26,8,71c0,0,4,45,9,77H610c0,0,-13,-194,-31,-271c0,0,-31,-127,-111,-179c0,0,-71,-45,-196,-50L304,107c0,0,73,0,130,5c0,0,56,6,111,21c0,0,54,15,94,40c0,0,40,25,77,64c0,0,37,39,63,94c0,0,25,54,46,128c0,0,21,73,34,166c0,0,13,94,20,211h138c0,0,-14,-124,-29,-218c0,0,-16,-94,-39,-179c0,0,-22,-85,-50,-146c0,0,-28,-61,-68,-112c0,0,-39,-51,-87,-84C744,97,696,65,632,42C632,42,568,19,492,10C492,10,417,0,320,0Z" 
id="f3_6"
transform="scale(0.001,-0.001)" />

<path d="M71,-141V-15L289,62L66,836H210L416,109c0,0,99,42,153,98c0,0,53,56,80,155c0,0,26,98,26,262V836H817V624c0,0,0,-88,-7,-154c0,0,-7,-67,-25,-132c0,0,-18,-66,-51,-116c0,0,-33,-51,-84,-98c0,0,-50,-48,-123,-87c0,0,-72,-39,-169,-74L71,-141Z" 
id="f3_h"
transform="scale(0.001,-0.001)" />

<path d="M139,-317V836H278V-317Z" 
id="f3_m"
transform="scale(0.001,-0.001)" />

<path d="M179,0V190H336V0Zm0,600V790H336V600Z" 
id="f3_t"
transform="scale(0.001,-0.001)" />

<path d="M289,-14c0,0,-179,0,-179,205V649L20,668v33H233V200c0,0,0,-128,120,-128c0,0,92,0,173,23V649L420,668v33H649V52L738,33V0H533l-6,57C527,57,474,28,405,7c0,0,-69,-21,-116,-21Z" 
id="f2_l"
transform="scale(0.001,-0.001)" />

<path d="M486,98c0,0,107,0,169,58c0,0,62,57,62,157c0,0,0,101,-62,159c0,0,-61,57,-169,57c0,0,-108,0,-169,-57c0,0,-62,-58,-62,-159c0,0,0,-100,62,-158c0,0,61,-57,169,-57Zm-1,549c0,0,97,0,152,49c0,0,54,48,54,135c0,0,0,87,-54,135c0,0,-55,49,-152,49c0,0,-97,0,-151,-49c0,0,-54,-48,-54,-135c0,0,0,-87,54,-135c0,0,54,-49,151,-49Zm0,-667c0,0,-184,0,-283,85c0,0,-98,86,-98,248c0,0,0,107,61,181c0,0,61,74,170,99c0,0,-97,24,-151,90c0,0,-54,67,-54,162c0,0,0,134,95,212c0,0,95,77,260,77c0,0,167,0,261,-77c0,0,95,-78,95,-212c0,0,0,-95,-54,-162c0,0,-54,-66,-151,-90c0,0,109,-25,170,-99c0,0,61,-74,61,-181c0,0,0,-162,-99,-248c0,0,-98,-85,-283,-85Z" 
id="f3_1i"
transform="scale(0.001,-0.001)" />


</defs>
</svg>