<?xml version="1.0" encoding="UTF-8" standalone="no"?>
<!DOCTYPE svg PUBLIC "-//W3C//DTD SVG 1.1//EN"
"http://www.w3.org/Graphics/SVG/1.1/DTD/svg11.dtd">
<svg viewBox="0 0 909 1286" version="1.1" xmlns="http://www.w3.org/2000/svg" xmlns:xlink="http://www.w3.org/1999/xlink">
<defs>
<clipPath id="c0_9"><path d="M0,1286.2V0H909.4V1286.2Z" /></clipPath>
<style type="text/css"><![CDATA[
.g0_9{
fill: none;
stroke: #000000;
stroke-width: 0.7638889;
stroke-linecap: butt;
stroke-linejoin: round;
}
.g1_9{
fill: none;
stroke: #0000FF;
stroke-width: 1.0694444;
stroke-linecap: butt;
stroke-linejoin: miter;
}
]]></style>
</defs>
<g clip-path="url(#c0_9)">
<g fill="#000000" >
<use xlink:href="#f0_r" transform="matrix(12,0,0,12,680.5,127.1)" />
<use xlink:href="#f0_t" transform="matrix(12,0,0,12,686.3,127.1)" />
<use xlink:href="#f0_4" transform="matrix(12,0,0,12,696.1,127.1)" />
<use xlink:href="#f0_6" transform="matrix(12,0,0,12,706.1,127.1)" />
<use xlink:href="#f0_a" transform="matrix(12,0,0,12,711.1,127.1)" />
<use xlink:href="#f0_c" transform="matrix(12,0,0,12,721.7,127.1)" />
<use xlink:href="#f1_m" transform="matrix(12,0,0,12,677.4,148.5)" />
<use xlink:href="#f1_9" transform="matrix(12,0,0,12,688.6,148.5)" />
<use xlink:href="#f1_b" transform="matrix(12,0,0,12,693.9,148.5)" />
<use xlink:href="#f1_c" transform="matrix(12,0,0,12,705.8,148.5)" />
<use xlink:href="#f1_a" transform="matrix(12,0,0,12,718,148.5)" />
<use xlink:href="#f0_t" transform="matrix(12,0,0,12,440.3,148.5)" />
<use xlink:href="#f0_g" transform="matrix(12,0,0,12,450.1,148.5)" />
<use xlink:href="#f0_6" transform="matrix(12,0,0,12,462.1,148.5)" />
<use xlink:href="#f0_l" transform="matrix(12,0,0,12,467,148.5)" />
<use xlink:href="#f0_d" transform="matrix(12,0,0,12,479.2,148.5)" />
<use xlink:href="#f0_m" transform="matrix(12,0,0,12,489.6,148.5)" />
<use xlink:href="#f0_x" transform="matrix(12,0,0,12,510.7,148.5)" />
<use xlink:href="#f0_d" transform="matrix(12,0,0,12,517.7,148.5)" />
<use xlink:href="#f0_h" transform="matrix(12,0,0,12,528.1,148.5)" />
<use xlink:href="#f0_n" transform="matrix(12,0,0,12,539.5,148.5)" />
<use xlink:href="#f0_3" transform="matrix(12,0,0,12,561,148.5)" />
<use xlink:href="#f0_m" transform="matrix(12,0,0,12,565.1,148.5)" />
<use xlink:href="#f0_e" transform="matrix(12,0,0,12,586,148.5)" />
<use xlink:href="#f0_g" transform="matrix(12,0,0,12,590.9,148.5)" />
<use xlink:href="#f0_6" transform="matrix(12,0,0,12,603,148.5)" />
<use xlink:href="#f0_9" transform="matrix(12,0,0,12,608,148.5)" />
<use xlink:href="#f0_w" transform="matrix(12,0,0,12,615.3,148.5)" />
<use xlink:href="#f0_3" transform="matrix(12,0,0,12,633,148.5)" />
<use xlink:href="#f0_g" transform="matrix(12,0,0,12,637.1,148.5)" />
<use xlink:href="#f0_6" transform="matrix(12,0,0,12,649.2,148.5)" />
<use xlink:href="#f0_l" transform="matrix(12,0,0,12,654.2,148.5)" />
<use xlink:href="#f0_r" transform="matrix(12,0,0,12,661.7,169.9)" />
<use xlink:href="#f0_m" transform="matrix(12,0,0,12,667.5,169.9)" />
<use xlink:href="#f0_q" transform="matrix(12,0,0,12,677.9,169.9)" />
<use xlink:href="#f0_3" transform="matrix(12,0,0,12,685.4,169.9)" />
<use xlink:href="#f0_7" transform="matrix(12,0,0,12,689.3,169.9)" />
<use xlink:href="#f0_2" transform="matrix(12,0,0,12,707.7,169.9)" />
<use xlink:href="#f0_h" transform="matrix(12,0,0,12,719.9,169.9)" />
<use xlink:href="#f2_1n" transform="matrix(11,0,0,11,137.7,147.1)" />
<use xlink:href="#f2_9" transform="matrix(11,0,0,11,152.6,147.1)" />
<use xlink:href="#f3_s" transform="matrix(11,0,0,11,164.2,147.1)" />
<use xlink:href="#f3_f" transform="matrix(11,0,0,11,173.6,147.1)" />
<use xlink:href="#f3_d" transform="matrix(11,0,0,11,186.2,147.1)" />
<use xlink:href="#f3_l" transform="matrix(11,0,0,11,195.6,147.1)" />
<use xlink:href="#f3_n" transform="matrix(11,0,0,11,203,147.1)" />
<use xlink:href="#f3_f" transform="matrix(11,0,0,11,212.4,147.1)" />
<use xlink:href="#f2_4" transform="matrix(11,0,0,11,225,147.1)" />
<use xlink:href="#f2_9" transform="matrix(11,0,0,11,233.4,147.1)" />
<use xlink:href="#f2_a" transform="matrix(11,0,0,11,240.8,147.1)" />
<use xlink:href="#f2_e" transform="matrix(11,0,0,11,246.4,147.1)" />
<use xlink:href="#f2_9" transform="matrix(11,0,0,11,251.1,147.1)" />
<use xlink:href="#f2_7" transform="matrix(11,0,0,11,262.7,147.1)" />
<use xlink:href="#f2_3" transform="matrix(11,0,0,11,270.2,147.1)" />
<use xlink:href="#f2_n" transform="matrix(11,0,0,11,278.6,147.1)" />
<use xlink:href="#f2_1n" transform="matrix(11,0,0,11,291.2,147.1)" />
<use xlink:href="#f2_b" transform="matrix(11,0,0,11,306.1,147.1)" />
<use xlink:href="#f2_q" transform="matrix(11,0,0,11,310.8,147.1)" />
<use xlink:href="#f2_p" transform="matrix(11,0,0,11,319.2,147.1)" />
<use xlink:href="#f2_9" transform="matrix(11,0,0,11,327.6,147.1)" />
<use xlink:href="#f2_d" transform="matrix(11,0,0,11,334.9,147.1)" />
<use xlink:href="#f2_m" transform="matrix(11,0,0,11,339.6,147.1)" />
<use xlink:href="#f0_l" transform="matrix(12,0,0,12,708.7,191.3)" />
<use xlink:href="#f0_m" transform="matrix(12,0,0,12,721,191.3)" />
<use xlink:href="#f1_7" transform="matrix(12,0,0,12,598,191.3)" />
<use xlink:href="#f1_5" transform="matrix(12,0,0,12,610.5,191.3)" />
<use xlink:href="#f1_h" transform="matrix(12,0,0,12,622.5,191.3)" />
<use xlink:href="#f1_9" transform="matrix(12,0,0,12,632.9,191.3)" />
<use xlink:href="#f1_j" transform="matrix(12,0,0,12,638.3,191.3)" />
<use xlink:href="#f1_x" transform="matrix(12,0,0,12,651.6,191.3)" />
<use xlink:href="#f1_m" transform="matrix(12,0,0,12,658.3,191.3)" />
<use xlink:href="#f1_8" transform="matrix(12,0,0,12,669.4,191.3)" />
<use xlink:href="#f1_s" transform="matrix(12,0,0,12,675.7,191.3)" />
<use xlink:href="#f1_u" transform="matrix(12,0,0,12,689.6,191.3)" />
<use xlink:href="#f0_r" transform="matrix(12,0,0,12,528.5,191.3)" />
<use xlink:href="#f0_2" transform="matrix(12,0,0,12,534.3,191.3)" />
<use xlink:href="#f0_6" transform="matrix(12,0,0,12,546.5,191.3)" />
<use xlink:href="#f0_m" transform="matrix(12,0,0,12,551.5,191.3)" />
<use xlink:href="#f0_c" transform="matrix(12,0,0,12,561.9,191.3)" />
<use xlink:href="#f0_3" transform="matrix(12,0,0,12,577.5,191.3)" />
<use xlink:href="#f0_m" transform="matrix(12,0,0,12,581.6,191.3)" />
<use xlink:href="#f2_1o" transform="matrix(11,0,0,11,137.7,189.9)" />
<use xlink:href="#f2_3" transform="matrix(11,0,0,11,149.7,189.9)" />
<use xlink:href="#f2_8" transform="matrix(11,0,0,11,162.4,189.9)" />
<use xlink:href="#f2_9" transform="matrix(11,0,0,11,175.5,189.9)" />
<use xlink:href="#f3_i" transform="matrix(11,0,0,11,187.2,189.9)" />
<use xlink:href="#f3_z" transform="matrix(11,0,0,11,191.9,189.9)" />
<use xlink:href="#f3_d" transform="matrix(11,0,0,11,205.9,189.9)" />
<use xlink:href="#f3_10" transform="matrix(11,0,0,11,215.2,189.9)" />
<use xlink:href="#f3_e" transform="matrix(11,0,0,11,223.6,189.9)" />
<use xlink:href="#f3_h" transform="matrix(11,0,0,11,231,189.9)" />
<use xlink:href="#f3_f" transform="matrix(11,0,0,11,236.6,189.9)" />
<use xlink:href="#f2_n" transform="matrix(11,0,0,11,249.3,189.9)" />
<use xlink:href="#f2_6" transform="matrix(11,0,0,11,257.7,189.9)" />
<use xlink:href="#f2_i" transform="matrix(11,0,0,11,265.2,189.9)" />
<use xlink:href="#f2_6" transform="matrix(11,0,0,11,273.4,189.9)" />
<use xlink:href="#f2_m" transform="matrix(11,0,0,11,280.9,189.9)" />
<use xlink:href="#f1_m" transform="matrix(12,0,0,12,690.3,212.7)" />
<use xlink:href="#f1_j" transform="matrix(12,0,0,12,701.4,212.7)" />
<use xlink:href="#f1_8" transform="matrix(12,0,0,12,714.7,212.7)" />
<use xlink:href="#f1_h" transform="matrix(12,0,0,12,721,212.7)" />
<use xlink:href="#f0_r" transform="matrix(12,0,0,12,609.7,212.7)" />
<use xlink:href="#f0_j" transform="matrix(12,0,0,12,615.5,212.7)" />
<use xlink:href="#f0_l" transform="matrix(12,0,0,12,628.5,212.7)" />
<use xlink:href="#f0_d" transform="matrix(12,0,0,12,640.8,212.7)" />
<use xlink:href="#f0_b" transform="matrix(12,0,0,12,651.1,212.7)" />
<use xlink:href="#f0_6" transform="matrix(12,0,0,12,668.9,212.7)" />
<use xlink:href="#f0_m" transform="matrix(12,0,0,12,673.9,212.7)" />
<use xlink:href="#f2_14" transform="matrix(11,0,0,11,137.7,211.3)" />
<use xlink:href="#f2_9" transform="matrix(11,0,0,11,147.9,211.3)" />
<use xlink:href="#f3_s" transform="matrix(11,0,0,11,159.7,211.3)" />
<use xlink:href="#f3_q" transform="matrix(11,0,0,11,169,211.3)" />
<use xlink:href="#f3_l" transform="matrix(11,0,0,11,178.3,211.3)" />
<use xlink:href="#f3_o" transform="matrix(11,0,0,11,185.8,211.3)" />
<use xlink:href="#f3_l" transform="matrix(11,0,0,11,190.4,211.3)" />
<use xlink:href="#f2_d" transform="matrix(11,0,0,11,202.1,211.3)" />
<use xlink:href="#f2_6" transform="matrix(11,0,0,11,206.7,211.3)" />
<use xlink:href="#f2_7" transform="matrix(11,0,0,11,218.4,211.3)" />
<use xlink:href="#f2_6" transform="matrix(11,0,0,11,225.8,211.3)" />
<use xlink:href="#f2_o" transform="matrix(11,0,0,11,233.2,211.3)" />
<use xlink:href="#f2_9" transform="matrix(11,0,0,11,241.6,211.3)" />
<use xlink:href="#f2_1p" transform="matrix(11,0,0,11,249.1,211.3)" />
<use xlink:href="#f2_6" transform="matrix(11,0,0,11,256.5,211.3)" />
<use xlink:href="#f2_m" transform="matrix(11,0,0,11,263.9,211.3)" />
<use xlink:href="#f1_9" transform="matrix(12,0,0,12,672.4,234.1)" />
<use xlink:href="#f1_d" transform="matrix(12,0,0,12,677.7,234.1)" />
<use xlink:href="#f1_4" transform="matrix(12,0,0,12,695.3,234.1)" />
<use xlink:href="#f1_n" transform="matrix(12,0,0,12,706.3,234.1)" />
<use xlink:href="#f1_u" transform="matrix(12,0,0,12,718.8,234.1)" />
<use xlink:href="#f0_r" transform="matrix(12,0,0,12,472.7,234.1)" />
<use xlink:href="#f0_t" transform="matrix(12,0,0,12,478.5,234.1)" />
<use xlink:href="#f0_m" transform="matrix(12,0,0,12,488.3,234.1)" />
<use xlink:href="#f0_j" transform="matrix(12,0,0,12,498.7,234.1)" />
<use xlink:href="#f0_5" transform="matrix(12,0,0,12,517.6,234.1)" />
<use xlink:href="#f0_3" transform="matrix(12,0,0,12,529.5,234.1)" />
<use xlink:href="#f0_d" transform="matrix(12,0,0,12,533.6,234.1)" />
<use xlink:href="#f0_m" transform="matrix(12,0,0,12,544,234.1)" />
<use xlink:href="#f0_x" transform="matrix(12,0,0,12,560.2,234.1)" />
<use xlink:href="#f0_h" transform="matrix(12,0,0,12,567.4,234.1)" />
<use xlink:href="#f0_q" transform="matrix(12,0,0,12,578.8,234.1)" />
<use xlink:href="#f0_h" transform="matrix(12,0,0,12,586.3,234.1)" />
<use xlink:href="#f0_q" transform="matrix(12,0,0,12,597.8,234.1)" />
<use xlink:href="#f0_g" transform="matrix(12,0,0,12,605.2,234.1)" />
<use xlink:href="#f0_7" transform="matrix(12,0,0,12,617.3,234.1)" />
<use xlink:href="#f0_3" transform="matrix(12,0,0,12,635.6,234.1)" />
<use xlink:href="#f0_9" transform="matrix(12,0,0,12,639.7,234.1)" />
<use xlink:href="#f0_l" transform="matrix(12,0,0,12,647,234.1)" />
<use xlink:href="#f0_w" transform="matrix(12,0,0,12,659.3,234.1)" />
<use xlink:href="#f2_1n" transform="matrix(11,0,0,11,137.7,232.7)" />
<use xlink:href="#f2_9" transform="matrix(11,0,0,11,152.6,232.7)" />
<use xlink:href="#f3_1k" transform="matrix(11,0,0,11,164.2,232.7)" />
<use xlink:href="#f3_f" transform="matrix(11,0,0,11,173.6,232.7)" />
<use xlink:href="#f3_g" transform="matrix(11,0,0,11,182,232.7)" />
<use xlink:href="#f3_l" transform="matrix(11,0,0,11,189.4,232.7)" />
<use xlink:href="#f3_19" transform="matrix(11,0,0,11,201.2,232.7)" />
<use xlink:href="#f3_f" transform="matrix(11,0,0,11,206.7,232.7)" />
<use xlink:href="#f3_o" transform="matrix(11,0,0,11,215.1,232.7)" />
<use xlink:href="#f3_h" transform="matrix(11,0,0,11,219.8,232.7)" />
<use xlink:href="#f3_f" transform="matrix(11,0,0,11,225.4,232.7)" />
<use xlink:href="#f2_e" transform="matrix(11,0,0,11,238,232.7)" />
<use xlink:href="#f2_p" transform="matrix(11,0,0,11,242.7,232.7)" />
<use xlink:href="#f2_3" transform="matrix(11,0,0,11,255.3,232.7)" />
<use xlink:href="#f2_d" transform="matrix(11,0,0,11,263.7,232.7)" />
<use xlink:href="#f2_3" transform="matrix(11,0,0,11,268.4,232.7)" />
<use xlink:href="#f2_a" transform="matrix(11,0,0,11,276.8,232.7)" />
<use xlink:href="#f2_m" transform="matrix(11,0,0,11,282.3,232.7)" />
<use xlink:href="#f3_c" transform="matrix(16,0,0,16,647.9,298.8)" />
<use xlink:href="#f3_d" transform="matrix(16,0,0,16,672.5,298.8)" />
<use xlink:href="#f3_e" transform="matrix(16,0,0,16,686.4,298.8)" />
<use xlink:href="#f3_f" transform="matrix(16,0,0,16,697.7,298.8)" />
<use xlink:href="#f3_g" transform="matrix(16,0,0,16,710.2,298.8)" />
<use xlink:href="#f3_h" transform="matrix(16,0,0,16,721.5,298.8)" />
<use xlink:href="#f3_i" transform="matrix(16,0,0,16,729.9,298.8)" />
<use xlink:href="#f3_g" transform="matrix(16,0,0,16,737,298.8)" />
<use xlink:href="#f3_f" transform="matrix(16,0,0,16,748.2,298.8)" />
<use xlink:href="#f3_e" transform="matrix(16,0,0,16,760.8,298.8)" />
<use xlink:href="#f4_2" transform="matrix(13,0,0,13,137.7,322.8)" />
<use xlink:href="#f4_3" transform="matrix(13,0,0,13,152.8,322.8)" />
<use xlink:href="#f4_4" transform="matrix(13,0,0,13,160,322.8)" />
<use xlink:href="#f4_5" transform="matrix(13,0,0,13,172.6,322.8)" />
<use xlink:href="#f4_6" transform="matrix(13,0,0,13,183,322.8)" />
<use xlink:href="#f4_7" transform="matrix(13,0,0,13,195.1,322.8)" />
<use xlink:href="#f4_6" transform="matrix(13,0,0,13,202.6,322.8)" />
<use xlink:href="#f4_7" transform="matrix(13,0,0,13,214.6,322.8)" />
<use xlink:href="#f4_8" transform="matrix(13,0,0,13,222.1,322.8)" />
<use xlink:href="#f4_k" transform="matrix(13,0,0,13,242.6,322.8)" />
<use xlink:href="#f4_b" transform="matrix(13,0,0,13,263.2,322.8)" />
<use xlink:href="#f2_r" transform="matrix(11,0,0,11,278.5,322.8)" />
<use xlink:href="#f2_a" transform="matrix(11,0,0,11,288.7,322.8)" />
<use xlink:href="#f2_6" transform="matrix(11,0,0,11,294.2,322.8)" />
<use xlink:href="#f2_i" transform="matrix(11,0,0,11,301.7,322.8)" />
<use xlink:href="#f2_p" transform="matrix(11,0,0,11,310.1,322.8)" />
<use xlink:href="#f2_7" transform="matrix(11,0,0,11,318.5,322.8)" />
<use xlink:href="#f2_9" transform="matrix(11,0,0,11,326,322.8)" />
<use xlink:href="#f2_d" transform="matrix(11,0,0,11,337.7,322.8)" />
<use xlink:href="#f2_6" transform="matrix(11,0,0,11,342.3,322.8)" />
<use xlink:href="#f2_c" transform="matrix(11,0,0,11,349.8,322.8)" />
<use xlink:href="#f2_c" transform="matrix(11,0,0,11,360.4,322.8)" />
<use xlink:href="#f2_b" transform="matrix(11,0,0,11,367,322.8)" />
<use xlink:href="#f2_q" transform="matrix(11,0,0,11,371.7,322.8)" />
<use xlink:href="#f2_p" transform="matrix(11,0,0,11,380.1,322.8)" />
<use xlink:href="#f2_b" transform="matrix(11,0,0,11,388.4,322.8)" />
<use xlink:href="#f2_9" transform="matrix(11,0,0,11,393.1,322.8)" />
<use xlink:href="#f2_n" transform="matrix(11,0,0,11,400.5,322.8)" />
<use xlink:href="#f2_e" transform="matrix(11,0,0,11,408.9,322.8)" />
<use xlink:href="#f2_9" transform="matrix(11,0,0,11,413.7,322.8)" />
<use xlink:href="#f2_c" transform="matrix(11,0,0,11,421,322.8)" />
<use xlink:href="#f2_s" transform="matrix(11,0,0,11,431.8,322.8)" />
<use xlink:href="#f2_a" transform="matrix(11,0,0,11,437.3,322.8)" />
<use xlink:href="#f2_6" transform="matrix(11,0,0,11,442.9,322.8)" />
<use xlink:href="#f2_c" transform="matrix(11,0,0,11,450.4,322.8)" />
<use xlink:href="#f2_9" transform="matrix(11,0,0,11,457,322.8)" />
<use xlink:href="#f2_c" transform="matrix(11,0,0,11,464.4,322.8)" />
</g>
</g>
<path d="M455,390H780.7M455,410H780.7M455,430.1H780.7M455,450.2H780.7M455,470.3H780.7M455,490.3H780.7M455,510.5H780.7M129.2,532.7H455M129.2,554.8H455M129.2,577H455M129.2,599.1H455M129.2,621.3H455M129.2,664.8H455M129.2,687H455" class="g0_9" />
<g clip-path="url(#c0_9)">
<g fill="#000000" >
<use xlink:href="#f2_r" transform="matrix(11,0,0,11,137.7,385.9)" />
<use xlink:href="#f2_9" transform="matrix(11,0,0,11,147.9,385.9)" />
<use xlink:href="#f2_u" transform="matrix(11,0,0,11,159.6,385.9)" />
<use xlink:href="#f2_6" transform="matrix(11,0,0,11,168,385.9)" />
<use xlink:href="#f2_a" transform="matrix(11,0,0,11,175.3,385.9)" />
<use xlink:href="#f2_9" transform="matrix(11,0,0,11,181,385.9)" />
<use xlink:href="#f2_7" transform="matrix(11,0,0,11,188.4,385.9)" />
<use xlink:href="#f2_9" transform="matrix(11,0,0,11,195.9,385.9)" />
<use xlink:href="#f2_b" transform="matrix(11,0,0,11,207.5,385.9)" />
<use xlink:href="#f2_a" transform="matrix(11,0,0,11,212.2,385.9)" />
<use xlink:href="#f2_6" transform="matrix(11,0,0,11,221.9,385.9)" />
<use xlink:href="#f2_d" transform="matrix(11,0,0,11,229.4,385.9)" />
<use xlink:href="#f2_c" transform="matrix(11,0,0,11,238.3,385.9)" />
<use xlink:href="#f2_p" transform="matrix(11,0,0,11,244.8,385.9)" />
<use xlink:href="#f2_u" transform="matrix(11,0,0,11,253.2,385.9)" />
<use xlink:href="#f2_9" transform="matrix(11,0,0,11,261.6,385.9)" />
<use xlink:href="#f2_a" transform="matrix(11,0,0,11,269,385.9)" />
<use xlink:href="#f2_8" transform="matrix(11,0,0,11,274.6,385.9)" />
<use xlink:href="#f2_9" transform="matrix(11,0,0,11,287.7,385.9)" />
<use xlink:href="#f2_a" transform="matrix(11,0,0,11,295,385.9)" />
<use xlink:href="#f2_7" transform="matrix(11,0,0,11,300.7,385.9)" />
<use xlink:href="#f2_6" transform="matrix(11,0,0,11,308.1,385.9)" />
<use xlink:href="#f2_i" transform="matrix(11,0,0,11,315.6,385.9)" />
<use xlink:href="#f2_3" transform="matrix(11,0,0,11,324,385.9)" />
<use xlink:href="#f2_8" transform="matrix(11,0,0,11,336.7,385.9)" />
<use xlink:href="#f2_6" transform="matrix(11,0,0,11,349.7,385.9)" />
<use xlink:href="#f2_10" transform="matrix(11,0,0,11,357.1,385.9)" />
<use xlink:href="#f2_6" transform="matrix(11,0,0,11,365.5,385.9)" />
<use xlink:href="#f2_n" transform="matrix(11,0,0,11,373,385.9)" />
<use xlink:href="#f2_6" transform="matrix(11,0,0,11,381.4,385.9)" />
<use xlink:href="#f2_12" transform="matrix(11,0,0,11,388.7,385.9)" />
<use xlink:href="#f2_1n" transform="matrix(11,0,0,11,137.7,405.9)" />
<use xlink:href="#f2_9" transform="matrix(11,0,0,11,152.6,405.9)" />
<use xlink:href="#f2_q" transform="matrix(11,0,0,11,164.2,405.9)" />
<use xlink:href="#f2_p" transform="matrix(11,0,0,11,172.6,405.9)" />
<use xlink:href="#f2_c" transform="matrix(11,0,0,11,181,405.9)" />
<use xlink:href="#f2_e" transform="matrix(11,0,0,11,187.5,405.9)" />
<use xlink:href="#f2_6" transform="matrix(11,0,0,11,192.3,405.9)" />
<use xlink:href="#f2_i" transform="matrix(11,0,0,11,203.8,405.9)" />
<use xlink:href="#f2_9" transform="matrix(11,0,0,11,212.3,405.9)" />
<use xlink:href="#f2_i" transform="matrix(11,0,0,11,219.7,405.9)" />
<use xlink:href="#f2_b" transform="matrix(11,0,0,11,228.1,405.9)" />
<use xlink:href="#f2_7" transform="matrix(11,0,0,11,232.7,405.9)" />
<use xlink:href="#f2_6" transform="matrix(11,0,0,11,240.2,405.9)" />
<use xlink:href="#f2_a" transform="matrix(11,0,0,11,247.6,405.9)" />
<use xlink:href="#f2_8" transform="matrix(11,0,0,11,253.3,405.9)" />
<use xlink:href="#f2_9" transform="matrix(11,0,0,11,266.2,405.9)" />
<use xlink:href="#f2_6" transform="matrix(11,0,0,11,278,405.9)" />
<use xlink:href="#f2_e" transform="matrix(11,0,0,11,289.6,405.9)" />
<use xlink:href="#f2_b" transform="matrix(11,0,0,11,294.3,405.9)" />
<use xlink:href="#f2_m" transform="matrix(11,0,0,11,298.9,405.9)" />
<use xlink:href="#f2_14" transform="matrix(11,0,0,11,137.7,426.1)" />
<use xlink:href="#f2_9" transform="matrix(11,0,0,11,147.9,426.1)" />
<use xlink:href="#f2_c" transform="matrix(11,0,0,11,155.3,426.1)" />
<use xlink:href="#f2_b" transform="matrix(11,0,0,11,166.2,426.1)" />
<use xlink:href="#f2_n" transform="matrix(11,0,0,11,170.8,426.1)" />
<use xlink:href="#f2_e" transform="matrix(11,0,0,11,179.2,426.1)" />
<use xlink:href="#f2_9" transform="matrix(11,0,0,11,183.9,426.1)" />
<use xlink:href="#f2_a" transform="matrix(11,0,0,11,191.2,426.1)" />
<use xlink:href="#f2_9" transform="matrix(11,0,0,11,196.8,426.1)" />
<use xlink:href="#f2_c" transform="matrix(11,0,0,11,204.3,426.1)" />
<use xlink:href="#f2_6" transform="matrix(11,0,0,11,210.9,426.1)" />
<use xlink:href="#f2_19" transform="matrix(11,0,0,11,218.2,426.1)" />
<use xlink:href="#f2_1e" transform="matrix(11,0,0,11,226.7,426.1)" />
<use xlink:href="#f2_p" transform="matrix(11,0,0,11,235.1,426.1)" />
<use xlink:href="#f2_j" transform="matrix(11,0,0,11,243.5,426.1)" />
<use xlink:href="#f2_x" transform="matrix(11,0,0,11,255.1,426.1)" />
<use xlink:href="#f2_6" transform="matrix(11,0,0,11,263.5,426.1)" />
<use xlink:href="#f2_7" transform="matrix(11,0,0,11,271,426.1)" />
<use xlink:href="#f2_9" transform="matrix(11,0,0,11,278.4,426.1)" />
<use xlink:href="#f2_9" transform="matrix(11,0,0,11,290,426.1)" />
<use xlink:href="#f2_d" transform="matrix(11,0,0,11,297.5,426.1)" />
<use xlink:href="#f2_i" transform="matrix(11,0,0,11,306.3,426.1)" />
<use xlink:href="#f2_9" transform="matrix(11,0,0,11,314.7,426.1)" />
<use xlink:href="#f2_n" transform="matrix(11,0,0,11,322.2,426.1)" />
<use xlink:href="#f2_e" transform="matrix(11,0,0,11,330.4,426.1)" />
<use xlink:href="#f2_b" transform="matrix(11,0,0,11,335.2,426.1)" />
<use xlink:href="#f2_c" transform="matrix(11,0,0,11,339.9,426.1)" />
<use xlink:href="#f2_e" transform="matrix(11,0,0,11,346.3,426.1)" />
<use xlink:href="#f2_6" transform="matrix(11,0,0,11,351,426.1)" />
<use xlink:href="#f2_8" transform="matrix(11,0,0,11,362.7,426.1)" />
<use xlink:href="#f2_6" transform="matrix(11,0,0,11,375.7,426.1)" />
<use xlink:href="#f2_d" transform="matrix(11,0,0,11,383.2,426.1)" />
<use xlink:href="#f2_4" transform="matrix(11,0,0,11,387.9,426.1)" />
<use xlink:href="#f2_6" transform="matrix(11,0,0,11,396.3,426.1)" />
<use xlink:href="#f2_i" transform="matrix(11,0,0,11,403.8,426.1)" />
<use xlink:href="#f2_3" transform="matrix(11,0,0,11,412.2,426.1)" />
<use xlink:href="#f2_m" transform="matrix(11,0,0,11,420.4,426.1)" />
<use xlink:href="#f2_14" transform="matrix(11,0,0,11,137.7,446.1)" />
<use xlink:href="#f2_9" transform="matrix(11,0,0,11,147.9,446.1)" />
<use xlink:href="#f2_i" transform="matrix(11,0,0,11,159.6,446.1)" />
<use xlink:href="#f2_6" transform="matrix(11,0,0,11,168,446.1)" />
<use xlink:href="#f2_u" transform="matrix(11,0,0,11,179.6,446.1)" />
<use xlink:href="#f2_9" transform="matrix(11,0,0,11,188,446.1)" />
<use xlink:href="#f2_n" transform="matrix(11,0,0,11,195.5,446.1)" />
<use xlink:href="#f2_6" transform="matrix(11,0,0,11,203.9,446.1)" />
<use xlink:href="#f2_1e" transform="matrix(11,0,0,11,215.4,446.1)" />
<use xlink:href="#f2_p" transform="matrix(11,0,0,11,223.8,446.1)" />
<use xlink:href="#f2_9" transform="matrix(11,0,0,11,232.3,446.1)" />
<use xlink:href="#f2_c" transform="matrix(11,0,0,11,244,446.1)" />
<use xlink:href="#f2_9" transform="matrix(11,0,0,11,250.4,446.1)" />
<use xlink:href="#f2_8" transform="matrix(11,0,0,11,262.1,446.1)" />
<use xlink:href="#f2_p" transform="matrix(11,0,0,11,275.1,446.1)" />
<use xlink:href="#f2_9" transform="matrix(11,0,0,11,283.5,446.1)" />
<use xlink:href="#f2_a" transform="matrix(11,0,0,11,291,446.1)" />
<use xlink:href="#f2_9" transform="matrix(11,0,0,11,296.6,446.1)" />
<use xlink:href="#f2_9" transform="matrix(11,0,0,11,308.2,446.1)" />
<use xlink:href="#f2_d" transform="matrix(11,0,0,11,315.7,446.1)" />
<use xlink:href="#f2_e" transform="matrix(11,0,0,11,324.5,446.1)" />
<use xlink:href="#f2_b" transform="matrix(11,0,0,11,329.2,446.1)" />
<use xlink:href="#f2_o" transform="matrix(11,0,0,11,333.8,446.1)" />
<use xlink:href="#f2_p" transform="matrix(11,0,0,11,342.2,446.1)" />
<use xlink:href="#f2_a" transform="matrix(11,0,0,11,350.6,446.1)" />
<use xlink:href="#f2_1a" transform="matrix(11,0,0,11,356.2,446.1)" />
<use xlink:href="#f2_n" transform="matrix(11,0,0,11,364.6,446.1)" />
<use xlink:href="#f2_m" transform="matrix(11,0,0,11,372.9,446.1)" />
<use xlink:href="#f2_1m" transform="matrix(11,0,0,11,137.7,466.3)" />
<use xlink:href="#f2_d" transform="matrix(11,0,0,11,149.7,466.3)" />
<use xlink:href="#f2_6" transform="matrix(11,0,0,11,158.7,466.3)" />
<use xlink:href="#f2_o" transform="matrix(11,0,0,11,166.2,466.3)" />
<use xlink:href="#f2_3" transform="matrix(11,0,0,11,174.6,466.3)" />
<use xlink:href="#f2_q" transform="matrix(11,0,0,11,183,466.3)" />
<use xlink:href="#f2_6" transform="matrix(11,0,0,11,191.2,466.3)" />
<use xlink:href="#f2_i" transform="matrix(11,0,0,11,198.7,466.3)" />
<use xlink:href="#f2_3" transform="matrix(11,0,0,11,207.1,466.3)" />
<use xlink:href="#f2_19" transform="matrix(11,0,0,11,215.5,466.3)" />
<use xlink:href="#f2_d" transform="matrix(11,0,0,11,223.9,466.3)" />
<use xlink:href="#f2_9" transform="matrix(11,0,0,11,228.6,466.3)" />
<use xlink:href="#f2_x" transform="matrix(11,0,0,11,240.2,466.3)" />
<use xlink:href="#f2_6" transform="matrix(11,0,0,11,248.6,466.3)" />
<use xlink:href="#f2_7" transform="matrix(11,0,0,11,256,466.3)" />
<use xlink:href="#f2_9" transform="matrix(11,0,0,11,263.5,466.3)" />
<use xlink:href="#f2_s" transform="matrix(11,0,0,11,275.1,466.3)" />
<use xlink:href="#f2_6" transform="matrix(11,0,0,11,280.7,466.3)" />
<use xlink:href="#f2_d" transform="matrix(11,0,0,11,288,466.3)" />
<use xlink:href="#f2_e" transform="matrix(11,0,0,11,292.8,466.3)" />
<use xlink:href="#f2_6" transform="matrix(11,0,0,11,297.5,466.3)" />
<use xlink:href="#f2_9" transform="matrix(11,0,0,11,309.1,466.3)" />
<use xlink:href="#f2_d" transform="matrix(11,0,0,11,316.5,466.3)" />
<use xlink:href="#f2_i" transform="matrix(11,0,0,11,325.4,466.3)" />
<use xlink:href="#f2_b" transform="matrix(11,0,0,11,333.8,466.3)" />
<use xlink:href="#f2_n" transform="matrix(11,0,0,11,338.5,466.3)" />
<use xlink:href="#f2_9" transform="matrix(11,0,0,11,346.9,466.3)" />
<use xlink:href="#f2_a" transform="matrix(11,0,0,11,354.2,466.3)" />
<use xlink:href="#f2_3" transform="matrix(11,0,0,11,359.9,466.3)" />
<use xlink:href="#f2_m" transform="matrix(11,0,0,11,368.3,466.3)" />
<use xlink:href="#f2_14" transform="matrix(11,0,0,11,137.7,486.3)" />
<use xlink:href="#f2_9" transform="matrix(11,0,0,11,147.9,486.3)" />
<use xlink:href="#f2_c" transform="matrix(11,0,0,11,155.3,486.3)" />
<use xlink:href="#f2_i" transform="matrix(11,0,0,11,166.2,486.3)" />
<use xlink:href="#f2_p" transform="matrix(11,0,0,11,174.6,486.3)" />
<use xlink:href="#f2_9" transform="matrix(11,0,0,11,182.8,486.3)" />
<use xlink:href="#f2_d" transform="matrix(11,0,0,11,190.3,486.3)" />
<use xlink:href="#f2_9" transform="matrix(11,0,0,11,195,486.3)" />
<use xlink:href="#f2_u" transform="matrix(11,0,0,11,206.6,486.3)" />
<use xlink:href="#f2_9" transform="matrix(11,0,0,11,215,486.3)" />
<use xlink:href="#f2_a" transform="matrix(11,0,0,11,222.5,486.3)" />
<use xlink:href="#f2_i" transform="matrix(11,0,0,11,228.1,486.3)" />
<use xlink:href="#f2_9" transform="matrix(11,0,0,11,236.5,486.3)" />
<use xlink:href="#f2_a" transform="matrix(11,0,0,11,243.8,486.3)" />
<use xlink:href="#f2_c" transform="matrix(11,0,0,11,253.7,486.3)" />
<use xlink:href="#f2_p" transform="matrix(11,0,0,11,260.3,486.3)" />
<use xlink:href="#f2_7" transform="matrix(11,0,0,11,272.8,486.3)" />
<use xlink:href="#f2_6" transform="matrix(11,0,0,11,280.2,486.3)" />
<use xlink:href="#f2_c" transform="matrix(11,0,0,11,287.7,486.3)" />
<use xlink:href="#f2_6" transform="matrix(11,0,0,11,294.3,486.3)" />
<use xlink:href="#f2_m" transform="matrix(11,0,0,11,301.6,486.3)" />
<use xlink:href="#f2_d" transform="matrix(11,0,0,11,137.7,506.5)" />
<use xlink:href="#f2_9" transform="matrix(11,0,0,11,142.4,506.5)" />
<use xlink:href="#f2_c" transform="matrix(11,0,0,11,149.8,506.5)" />
<use xlink:href="#f2_u" transform="matrix(11,0,0,11,160.5,506.5)" />
<use xlink:href="#f2_6" transform="matrix(11,0,0,11,168.9,506.5)" />
<use xlink:href="#f2_a" transform="matrix(11,0,0,11,176.4,506.5)" />
<use xlink:href="#f2_9" transform="matrix(11,0,0,11,181.9,506.5)" />
<use xlink:href="#f2_7" transform="matrix(11,0,0,11,189.3,506.5)" />
<use xlink:href="#f2_9" transform="matrix(11,0,0,11,196.8,506.5)" />
<use xlink:href="#f2_o" transform="matrix(11,0,0,11,208.5,506.5)" />
<use xlink:href="#f2_b" transform="matrix(11,0,0,11,216.8,506.5)" />
<use xlink:href="#f2_9" transform="matrix(11,0,0,11,221.5,506.5)" />
<use xlink:href="#f2_n" transform="matrix(11,0,0,11,229,506.5)" />
<use xlink:href="#f2_4" transform="matrix(11,0,0,11,241.5,506.5)" />
<use xlink:href="#f2_b" transform="matrix(11,0,0,11,249.9,506.5)" />
<use xlink:href="#f2_6" transform="matrix(11,0,0,11,254.6,506.5)" />
<use xlink:href="#f2_w" transform="matrix(11,0,0,11,261.9,506.5)" />
<use xlink:href="#f2_6" transform="matrix(11,0,0,11,266.7,506.5)" />
<use xlink:href="#f2_a" transform="matrix(11,0,0,11,274.1,506.5)" />
<use xlink:href="#f2_7" transform="matrix(11,0,0,11,283.9,506.5)" />
<use xlink:href="#f2_3" transform="matrix(11,0,0,11,291.3,506.5)" />
<use xlink:href="#f2_n" transform="matrix(11,0,0,11,299.7,506.5)" />
<use xlink:href="#f2_n" transform="matrix(11,0,0,11,312.4,506.5)" />
<use xlink:href="#f2_3" transform="matrix(11,0,0,11,320.8,506.5)" />
<use xlink:href="#f2_c" transform="matrix(11,0,0,11,329.2,506.5)" />
<use xlink:href="#f2_3" transform="matrix(11,0,0,11,335.8,506.5)" />
<use xlink:href="#f2_e" transform="matrix(11,0,0,11,344,506.5)" />
<use xlink:href="#f2_a" transform="matrix(11,0,0,11,348.7,506.5)" />
<use xlink:href="#f2_3" transform="matrix(11,0,0,11,354.4,506.5)" />
<use xlink:href="#f2_c" transform="matrix(11,0,0,11,362.8,506.5)" />
<use xlink:href="#f2_m" transform="matrix(11,0,0,11,369.2,506.5)" />
<use xlink:href="#f0_r" transform="matrix(12,0,0,12,626.4,527.8)" />
<use xlink:href="#f0_2" transform="matrix(12,0,0,12,632.2,527.8)" />
<use xlink:href="#f0_3" transform="matrix(12,0,0,12,644.3,527.8)" />
<use xlink:href="#f0_9" transform="matrix(12,0,0,12,648.4,527.8)" />
<use xlink:href="#f0_6" transform="matrix(12,0,0,12,655.7,527.8)" />
<use xlink:href="#f0_d" transform="matrix(12,0,0,12,660.7,527.8)" />
<use xlink:href="#f0_3" transform="matrix(12,0,0,12,671.1,527.8)" />
<use xlink:href="#f0_6" transform="matrix(12,0,0,12,675.1,527.8)" />
<use xlink:href="#f0_6" transform="matrix(12,0,0,12,680.1,527.8)" />
<use xlink:href="#f0_l" transform="matrix(12,0,0,12,685.1,527.8)" />
<use xlink:href="#f0_a" transform="matrix(12,0,0,12,703.3,527.8)" />
<use xlink:href="#f0_b" transform="matrix(12,0,0,12,713.8,527.8)" />
<use xlink:href="#f0_6" transform="matrix(12,0,0,12,725.8,527.8)" />
<use xlink:href="#f0_l" transform="matrix(12,0,0,12,730.8,527.8)" />
<use xlink:href="#f0_3" transform="matrix(12,0,0,12,748.8,527.8)" />
<use xlink:href="#f0_9" transform="matrix(12,0,0,12,752.9,527.8)" />
<use xlink:href="#f0_l" transform="matrix(12,0,0,12,760.3,527.8)" />
<use xlink:href="#f0_r" transform="matrix(12,0,0,12,652.5,550)" />
<use xlink:href="#f0_t" transform="matrix(12,0,0,12,658.3,550)" />
<use xlink:href="#f0_g" transform="matrix(12,0,0,12,668.1,550)" />
<use xlink:href="#f0_6" transform="matrix(12,0,0,12,680.1,550)" />
<use xlink:href="#f0_l" transform="matrix(12,0,0,12,685.2,550)" />
<use xlink:href="#f0_a" transform="matrix(12,0,0,12,703.3,550)" />
<use xlink:href="#f0_b" transform="matrix(12,0,0,12,713.9,550)" />
<use xlink:href="#f0_6" transform="matrix(12,0,0,12,725.8,550)" />
<use xlink:href="#f0_l" transform="matrix(12,0,0,12,730.8,550)" />
<use xlink:href="#f0_3" transform="matrix(12,0,0,12,748.9,550)" />
<use xlink:href="#f0_9" transform="matrix(12,0,0,12,753,550)" />
<use xlink:href="#f0_l" transform="matrix(12,0,0,12,760.3,550)" />
<use xlink:href="#f0_r" transform="matrix(12,0,0,12,509.8,572.2)" />
<use xlink:href="#f0_d" transform="matrix(12,0,0,12,515.6,572.2)" />
<use xlink:href="#f0_3" transform="matrix(12,0,0,12,526,572.2)" />
<use xlink:href="#f0_h" transform="matrix(12,0,0,12,530.1,572.2)" />
<use xlink:href="#f0_b" transform="matrix(12,0,0,12,541.6,572.2)" />
<use xlink:href="#f0_m" transform="matrix(12,0,0,12,559.3,572.2)" />
<use xlink:href="#f0_j" transform="matrix(12,0,0,12,569.7,572.2)" />
<use xlink:href="#f0_g" transform="matrix(12,0,0,12,588.5,572.2)" />
<use xlink:href="#f0_6" transform="matrix(12,0,0,12,600.5,572.2)" />
<use xlink:href="#f0_a" transform="matrix(12,0,0,12,605.6,572.2)" />
<use xlink:href="#f0_d" transform="matrix(12,0,0,12,616.1,572.2)" />
<use xlink:href="#f0_g" transform="matrix(12,0,0,12,626.5,572.2)" />
<use xlink:href="#f0_b" transform="matrix(12,0,0,12,638.5,572.2)" />
<use xlink:href="#f0_g" transform="matrix(12,0,0,12,656.4,572.2)" />
<use xlink:href="#f0_l" transform="matrix(12,0,0,12,668.4,572.2)" />
<use xlink:href="#f0_2" transform="matrix(12,0,0,12,686.5,572.2)" />
<use xlink:href="#f0_3" transform="matrix(12,0,0,12,698.7,572.2)" />
<use xlink:href="#f0_a" transform="matrix(12,0,0,12,702.8,572.2)" />
<use xlink:href="#f0_b" transform="matrix(12,0,0,12,713.3,572.2)" />
<use xlink:href="#f0_6" transform="matrix(12,0,0,12,725.2,572.2)" />
<use xlink:href="#f0_l" transform="matrix(12,0,0,12,730.3,572.2)" />
<use xlink:href="#f0_2" transform="matrix(12,0,0,12,748.3,572.2)" />
<use xlink:href="#f0_b" transform="matrix(12,0,0,12,760.5,572.2)" />
<use xlink:href="#f0_r" transform="matrix(12,0,0,12,596.9,594.3)" />
<use xlink:href="#f0_2" transform="matrix(12,0,0,12,602.7,594.3)" />
<use xlink:href="#f0_c" transform="matrix(12,0,0,12,614.9,594.3)" />
<use xlink:href="#f0_g" transform="matrix(12,0,0,12,624.5,594.3)" />
<use xlink:href="#f0_l" transform="matrix(12,0,0,12,636.6,594.3)" />
<use xlink:href="#f0_g" transform="matrix(12,0,0,12,654.6,594.3)" />
<use xlink:href="#f0_6" transform="matrix(12,0,0,12,666.7,594.3)" />
<use xlink:href="#f0_l" transform="matrix(12,0,0,12,671.7,594.3)" />
<use xlink:href="#f0_d" transform="matrix(12,0,0,12,683.9,594.3)" />
<use xlink:href="#f0_m" transform="matrix(12,0,0,12,694.2,594.3)" />
<use xlink:href="#f0_3" transform="matrix(12,0,0,12,710.5,594.3)" />
<use xlink:href="#f0_m" transform="matrix(12,0,0,12,714.6,594.3)" />
<use xlink:href="#f0_q" transform="matrix(12,0,0,12,730.8,594.3)" />
<use xlink:href="#f0_9" transform="matrix(12,0,0,12,738.3,594.3)" />
<use xlink:href="#f0_6" transform="matrix(12,0,0,12,745.6,594.3)" />
<use xlink:href="#f0_h" transform="matrix(12,0,0,12,750.6,594.3)" />
<use xlink:href="#f0_m" transform="matrix(12,0,0,12,762.1,594.3)" />
<use xlink:href="#f0_r" transform="matrix(12,0,0,12,543.4,616.5)" />
<use xlink:href="#f0_d" transform="matrix(12,0,0,12,549.2,616.5)" />
<use xlink:href="#f0_k" transform="matrix(12,0,0,12,559.6,616.5)" />
<use xlink:href="#f0_s" transform="matrix(12,0,0,12,571.1,616.5)" />
<use xlink:href="#f0_g" transform="matrix(12,0,0,12,588.8,616.5)" />
<use xlink:href="#f0_3" transform="matrix(12,0,0,12,600.8,616.5)" />
<use xlink:href="#f0_a" transform="matrix(12,0,0,12,604.9,616.5)" />
<use xlink:href="#f0_m" transform="matrix(12,0,0,12,615.5,616.5)" />
<use xlink:href="#f0_g" transform="matrix(12,0,0,12,631.8,616.5)" />
<use xlink:href="#f0_c" transform="matrix(12,0,0,12,643.8,616.5)" />
<use xlink:href="#f0_m" transform="matrix(12,0,0,12,653.5,616.5)" />
<use xlink:href="#f0_m" transform="matrix(12,0,0,12,663.9,616.5)" />
<use xlink:href="#f0_2" transform="matrix(12,0,0,12,680.1,616.5)" />
<use xlink:href="#f0_g" transform="matrix(12,0,0,12,692.3,616.5)" />
<use xlink:href="#f0_6" transform="matrix(12,0,0,12,704.3,616.5)" />
<use xlink:href="#f0_l" transform="matrix(12,0,0,12,709.3,616.5)" />
<use xlink:href="#f0_d" transform="matrix(12,0,0,12,727.4,616.5)" />
<use xlink:href="#f0_h" transform="matrix(12,0,0,12,737.8,616.5)" />
<use xlink:href="#f0_n" transform="matrix(12,0,0,12,749.2,616.5)" />
<use xlink:href="#f0_7" transform="matrix(12,0,0,12,759.9,616.5)" />
<use xlink:href="#f0_b" transform="matrix(12,0,0,12,463.8,638.6)" />
<use xlink:href="#f0_g" transform="matrix(12,0,0,12,475.8,638.6)" />
<use xlink:href="#f0_l" transform="matrix(12,0,0,12,487.8,638.6)" />
<use xlink:href="#f0_j" transform="matrix(12,0,0,12,500,638.6)" />
<use xlink:href="#f0_c" transform="matrix(12,0,0,12,513,638.6)" />
<use xlink:href="#f0_b" transform="matrix(12,0,0,12,546.1,638.6)" />
<use xlink:href="#f0_y" transform="matrix(12,0,0,12,558,638.6)" />
<use xlink:href="#f0_6" transform="matrix(12,0,0,12,564.1,638.6)" />
<use xlink:href="#f0_g" transform="matrix(12,0,0,12,569.1,638.6)" />
<use xlink:href="#f0_6" transform="matrix(12,0,0,12,581.1,638.6)" />
<use xlink:href="#f0_l" transform="matrix(12,0,0,12,586.1,638.6)" />
<use xlink:href="#f0_d" transform="matrix(12,0,0,12,610,638.6)" />
<use xlink:href="#f0_h" transform="matrix(12,0,0,12,620.4,638.6)" />
<use xlink:href="#f0_n" transform="matrix(12,0,0,12,631.9,638.6)" />
<use xlink:href="#f0_7" transform="matrix(12,0,0,12,642.5,638.6)" />
<use xlink:href="#f0_b" transform="matrix(12,0,0,12,666.9,638.6)" />
<use xlink:href="#f0_g" transform="matrix(12,0,0,12,678.9,638.6)" />
<use xlink:href="#f0_l" transform="matrix(12,0,0,12,690.9,638.6)" />
<use xlink:href="#f0_f" transform="matrix(12,0,0,12,714.9,638.6)" />
<use xlink:href="#f0_b" transform="matrix(12,0,0,12,720.7,638.6)" />
<use xlink:href="#f0_d" transform="matrix(12,0,0,12,732.6,638.6)" />
<use xlink:href="#f0_6" transform="matrix(12,0,0,12,743,638.6)" />
<use xlink:href="#f0_7" transform="matrix(12,0,0,12,747.9,638.6)" />
<use xlink:href="#f0_b" transform="matrix(12,0,0,12,760.4,638.6)" />
<use xlink:href="#f0_r" transform="matrix(12,0,0,12,666.6,660)" />
<use xlink:href="#f0_b" transform="matrix(12,0,0,12,672.4,660)" />
<use xlink:href="#f0_g" transform="matrix(12,0,0,12,684.3,660)" />
<use xlink:href="#f0_3" transform="matrix(12,0,0,12,696.3,660)" />
<use xlink:href="#f0_c" transform="matrix(12,0,0,12,700.4,660)" />
<use xlink:href="#f0_b" transform="matrix(12,0,0,12,710.1,660)" />
<use xlink:href="#f0_7" transform="matrix(12,0,0,12,722,660)" />
<use xlink:href="#f0_l" transform="matrix(12,0,0,12,740.4,660)" />
<use xlink:href="#f0_n" transform="matrix(12,0,0,12,752.7,660)" />
<use xlink:href="#f0_6" transform="matrix(12,0,0,12,763.5,660)" />
<use xlink:href="#f0_3" transform="matrix(12,0,0,12,768.4,660)" />
<use xlink:href="#f0_1b" transform="matrix(12,0,0,12,590.9,682.2)" />
<use xlink:href="#f0_l" transform="matrix(12,0,0,12,600.7,682.2)" />
<use xlink:href="#f0_3" transform="matrix(12,0,0,12,612.9,682.2)" />
<use xlink:href="#f0_j" transform="matrix(12,0,0,12,617,682.2)" />
<use xlink:href="#f0_9" transform="matrix(12,0,0,12,630,682.2)" />
<use xlink:href="#f0_b" transform="matrix(12,0,0,12,637.3,682.2)" />
<use xlink:href="#f0_3" transform="matrix(12,0,0,12,655.1,682.2)" />
<use xlink:href="#f0_7" transform="matrix(12,0,0,12,659.1,682.2)" />
<use xlink:href="#f0_t" transform="matrix(12,0,0,12,677.5,682.2)" />
<use xlink:href="#f0_m" transform="matrix(12,0,0,12,687.3,682.2)" />
<use xlink:href="#f0_a" transform="matrix(12,0,0,12,703.6,682.2)" />
<use xlink:href="#f0_6" transform="matrix(12,0,0,12,714.1,682.2)" />
<use xlink:href="#f0_j" transform="matrix(12,0,0,12,719.2,682.2)" />
<use xlink:href="#f0_5" transform="matrix(12,0,0,12,732.1,682.2)" />
<use xlink:href="#f0_l" transform="matrix(12,0,0,12,749.9,682.2)" />
<use xlink:href="#f0_m" transform="matrix(12,0,0,12,762.1,682.2)" />
</g>
<g fill="#0000FF" >
<use xlink:href="#f2_13" transform="matrix(12,0,0,12,687,742.3)" />
<use xlink:href="#f2_9" transform="matrix(12,0,0,12,699.7,742.3)" />
<use xlink:href="#f2_c" transform="matrix(12,0,0,12,708.1,742.3)" />
<use xlink:href="#f2_u" transform="matrix(12,0,0,12,715.7,742.3)" />
<use xlink:href="#f2_p" transform="matrix(12,0,0,12,725.2,742.3)" />
<use xlink:href="#f2_9" transform="matrix(12,0,0,12,734.8,742.3)" />
<use xlink:href="#f2_c" transform="matrix(12,0,0,12,743.2,742.3)" />
<use xlink:href="#f2_e" transform="matrix(12,0,0,12,750.8,742.3)" />
<use xlink:href="#f2_6" transform="matrix(12,0,0,12,756.1,742.3)" />
<use xlink:href="#f2_c" transform="matrix(12,0,0,12,764.7,742.3)" />
</g>
</g>
<path d="M687,744h85.3" class="g1_9" />
<g clip-path="url(#c0_9)">
<g fill="#000000" >
<use xlink:href="#f0_e" transform="matrix(12,0,0,12,556.6,850.1)" />
<use xlink:href="#f0_k" transform="matrix(12,0,0,12,561.6,850.1)" />
<use xlink:href="#f0_6" transform="matrix(12,0,0,12,573,850.1)" />
<use xlink:href="#f0_4" transform="matrix(12,0,0,12,577.9,850.1)" />
<use xlink:href="#f0_b" transform="matrix(12,0,0,12,588,850.1)" />
<use xlink:href="#f0_g" transform="matrix(12,0,0,12,605.8,850.1)" />
<use xlink:href="#f0_l" transform="matrix(12,0,0,12,617.9,850.1)" />
<use xlink:href="#f0_n" transform="matrix(12,0,0,12,630.1,850.1)" />
<use xlink:href="#f0_6" transform="matrix(12,0,0,12,641,850.1)" />
<use xlink:href="#f0_3" transform="matrix(12,0,0,12,645.9,850.1)" />
<use xlink:href="#f0_b" transform="matrix(12,0,0,12,655.9,850.1)" />
<use xlink:href="#f0_m" transform="matrix(12,0,0,12,667.8,850.1)" />
<use xlink:href="#f0_3" transform="matrix(12,0,0,12,678.2,850.1)" />
<use xlink:href="#f0_7" transform="matrix(12,0,0,12,682.3,850.1)" />
<use xlink:href="#f0_b" transform="matrix(12,0,0,12,694.8,850.1)" />
<use xlink:href="#f0_g" transform="matrix(12,0,0,12,712.6,850.1)" />
<use xlink:href="#f0_l" transform="matrix(12,0,0,12,724.6,850.1)" />
<use xlink:href="#f0_e" transform="matrix(12,0,0,12,742.7,850.1)" />
<use xlink:href="#f0_7" transform="matrix(12,0,0,12,747.7,850.1)" />
<use xlink:href="#f0_s" transform="matrix(12,0,0,12,760.1,850.1)" />
<use xlink:href="#f4_2" transform="matrix(13,0,0,13,153.4,850.1)" />
<use xlink:href="#f4_3" transform="matrix(13,0,0,13,168.5,850.1)" />
<use xlink:href="#f4_4" transform="matrix(13,0,0,13,175.7,850.1)" />
<use xlink:href="#f4_5" transform="matrix(13,0,0,13,188.3,850.1)" />
<use xlink:href="#f4_6" transform="matrix(13,0,0,13,198.7,850.1)" />
<use xlink:href="#f4_7" transform="matrix(13,0,0,13,210.8,850.1)" />
<use xlink:href="#f4_6" transform="matrix(13,0,0,13,218.3,850.1)" />
<use xlink:href="#f4_7" transform="matrix(13,0,0,13,230.4,850.1)" />
<use xlink:href="#f4_8" transform="matrix(13,0,0,13,237.9,850.1)" />
<use xlink:href="#f4_l" transform="matrix(13,0,0,13,758.1,873.4)" />
<use xlink:href="#f1_y" transform="matrix(12,0,0,12,744.2,873.4)" />
</g>
<g fill="#0000FF" >
<use xlink:href="#f2_13" transform="matrix(12,0,0,12,687,1101.1)" />
<use xlink:href="#f2_9" transform="matrix(12,0,0,12,699.7,1101.1)" />
<use xlink:href="#f2_c" transform="matrix(12,0,0,12,708.1,1101.1)" />
<use xlink:href="#f2_u" transform="matrix(12,0,0,12,715.7,1101.1)" />
<use xlink:href="#f2_p" transform="matrix(12,0,0,12,725.2,1101.1)" />
<use xlink:href="#f2_9" transform="matrix(12,0,0,12,734.8,1101.1)" />
<use xlink:href="#f2_c" transform="matrix(12,0,0,12,743.2,1101.1)" />
<use xlink:href="#f2_e" transform="matrix(12,0,0,12,750.8,1101.1)" />
<use xlink:href="#f2_6" transform="matrix(12,0,0,12,756.1,1101.1)" />
<use xlink:href="#f2_c" transform="matrix(12,0,0,12,764.7,1101.1)" />
</g>
</g>
<path d="M687,1102.8h85.3" class="g1_9" />
<g clip-path="url(#c0_9)">
<g fill="#000000" >
<use xlink:href="#f3_1e" transform="matrix(16,0,0,16,632,1169.7)" />
<use xlink:href="#f3_14" transform="matrix(16,0,0,16,647.6,1169.7)" />
<use xlink:href="#f3_16" transform="matrix(16,0,0,16,671.7,1169.7)" />
<use xlink:href="#f3_3" transform="matrix(16,0,0,16,687.7,1169.7)" />
<use xlink:href="#f3_6" transform="matrix(16,0,0,16,694.4,1169.7)" />
<use xlink:href="#f3_6" transform="matrix(16,0,0,16,708.7,1169.7)" />
<use xlink:href="#f3_3" transform="matrix(16,0,0,16,723.2,1169.7)" />
<use xlink:href="#f3_6" transform="matrix(16,0,0,16,736.3,1169.7)" />
<use xlink:href="#f3_1p" transform="matrix(16,0,0,16,750.7,1169.7)" />
<use xlink:href="#f3_6" transform="matrix(16,0,0,16,757.8,1169.7)" />
<use xlink:href="#f3_1q" transform="matrix(16,0,0,16,468.1,1169.7)" />
<use xlink:href="#f3_p" transform="matrix(16,0,0,16,484.7,1169.7)" />
<use xlink:href="#f3_h" transform="matrix(16,0,0,16,494.6,1169.7)" />
<use xlink:href="#f3_l" transform="matrix(16,0,0,16,503,1169.7)" />
<use xlink:href="#f3_1g" transform="matrix(16,0,0,16,520.9,1169.7)" />
<use xlink:href="#f3_f" transform="matrix(16,0,0,16,539.9,1169.7)" />
<use xlink:href="#f3_1r" transform="matrix(16,0,0,16,552.4,1169.7)" />
<use xlink:href="#f3_q" transform="matrix(16,0,0,16,566.5,1169.7)" />
<use xlink:href="#f3_l" transform="matrix(16,0,0,16,580.4,1169.7)" />
<use xlink:href="#f3_o" transform="matrix(16,0,0,16,591.7,1169.7)" />
<use xlink:href="#f3_o" transform="matrix(16,0,0,16,598.7,1169.7)" />
<use xlink:href="#f3_10" transform="matrix(16,0,0,16,605.8,1169.7)" />
<use xlink:href="#f0_1g" transform="matrix(11,0,0,11,137.5,1208.9)" />
</g>
</g>
<path d="M208.9,898H781.1M208.9,918.1H781.1m-572.2,20H781.1M208.9,958.3H781.1m-572.2,20H781.1M208.9,998.5H781.1m-572.2,20H781.1M209.3,897.6v121.3M780.7,897.6v121.3" class="g0_9" />
<g fill="#000000" >
<use xlink:href="#f2_i" transform="matrix(11,0,0,11,217.7,914.1)" />
<use xlink:href="#f2_b" transform="matrix(11,0,0,11,226.1,914.1)" />
<use xlink:href="#f2_4" transform="matrix(11,0,0,11,230.8,914.1)" />
<use xlink:href="#f2_9" transform="matrix(11,0,0,11,239.2,914.1)" />
<use xlink:href="#f2_a" transform="matrix(11,0,0,11,246.6,914.1)" />
<use xlink:href="#f2_e" transform="matrix(11,0,0,11,252.2,914.1)" />
<use xlink:href="#f2_b" transform="matrix(11,0,0,11,256.9,914.1)" />
<use xlink:href="#f2_a" transform="matrix(11,0,0,11,261.5,914.1)" />
<use xlink:href="#f2_i" transform="matrix(11,0,0,11,380.4,914.1)" />
<use xlink:href="#f2_3" transform="matrix(11,0,0,11,388.8,914.1)" />
<use xlink:href="#f2_d" transform="matrix(11,0,0,11,397.2,914.1)" />
<use xlink:href="#f2_9" transform="matrix(11,0,0,11,401.9,914.1)" />
<use xlink:href="#f2_a" transform="matrix(11,0,0,11,409.3,914.1)" />
<use xlink:href="#f2_i" transform="matrix(11,0,0,11,539.9,914.1)" />
<use xlink:href="#f2_6" transform="matrix(11,0,0,11,548.3,914.1)" />
<use xlink:href="#f2_a" transform="matrix(11,0,0,11,555.8,914.1)" />
<use xlink:href="#f2_u" transform="matrix(11,0,0,11,565.5,914.1)" />
<use xlink:href="#f2_9" transform="matrix(11,0,0,11,573.9,914.1)" />
<use xlink:href="#f2_n" transform="matrix(11,0,0,11,581.4,914.1)" />
<use xlink:href="#f2_6" transform="matrix(11,0,0,11,589.8,914.1)" />
<use xlink:href="#f2_i" transform="matrix(11,0,0,11,669.9,914.1)" />
<use xlink:href="#f2_9" transform="matrix(11,0,0,11,678.3,914.1)" />
<use xlink:href="#f2_c" transform="matrix(11,0,0,11,685.7,914.1)" />
<use xlink:href="#f2_e" transform="matrix(11,0,0,11,692.2,914.1)" />
<use xlink:href="#f2_a" transform="matrix(11,0,0,11,696.9,914.1)" />
<use xlink:href="#f2_p" transform="matrix(11,0,0,11,702.6,914.1)" />
<use xlink:href="#f2_b" transform="matrix(11,0,0,11,710.8,914.1)" />
<use xlink:href="#f2_a" transform="matrix(11,0,0,11,715.5,914.1)" />
<use xlink:href="#f2_3" transform="matrix(11,0,0,11,217.7,934.1)" />
<use xlink:href="#f2_d" transform="matrix(11,0,0,11,226.1,934.1)" />
<use xlink:href="#f2_3" transform="matrix(11,0,0,11,230.8,934.1)" />
<use xlink:href="#f2_a" transform="matrix(11,0,0,11,239.2,934.1)" />
<use xlink:href="#f2_7" transform="matrix(11,0,0,11,380.4,934.1)" />
<use xlink:href="#f2_6" transform="matrix(11,0,0,11,387.9,934.1)" />
<use xlink:href="#f2_o" transform="matrix(11,0,0,11,395.3,934.1)" />
<use xlink:href="#f2_9" transform="matrix(11,0,0,11,403.7,934.1)" />
<use xlink:href="#f2_1p" transform="matrix(11,0,0,11,411.2,934.1)" />
<use xlink:href="#f2_6" transform="matrix(11,0,0,11,418.5,934.1)" />
<use xlink:href="#f2_d" transform="matrix(11,0,0,11,539.9,934.1)" />
<use xlink:href="#f2_9" transform="matrix(11,0,0,11,544.6,934.1)" />
<use xlink:href="#f2_n" transform="matrix(11,0,0,11,552.1,934.1)" />
<use xlink:href="#f2_q" transform="matrix(11,0,0,11,560.5,934.1)" />
<use xlink:href="#f2_p" transform="matrix(11,0,0,11,568.9,934.1)" />
<use xlink:href="#f2_6" transform="matrix(11,0,0,11,577.3,934.1)" />
<use xlink:href="#f2_d" transform="matrix(11,0,0,11,217.7,954.3)" />
<use xlink:href="#f2_9" transform="matrix(11,0,0,11,222.4,954.3)" />
<use xlink:href="#f2_4" transform="matrix(11,0,0,11,229.9,954.3)" />
<use xlink:href="#f2_6" transform="matrix(11,0,0,11,238.3,954.3)" />
<use xlink:href="#f2_n" transform="matrix(11,0,0,11,245.8,954.3)" />
<use xlink:href="#f2_e" transform="matrix(11,0,0,11,254,954.3)" />
<use xlink:href="#f2_6" transform="matrix(11,0,0,11,258.7,954.3)" />
<use xlink:href="#f2_a" transform="matrix(11,0,0,11,266.2,954.3)" />
<use xlink:href="#f2_1e" transform="matrix(11,0,0,11,380.4,954.3)" />
<use xlink:href="#f2_p" transform="matrix(11,0,0,11,388.8,954.3)" />
<use xlink:href="#f2_9" transform="matrix(11,0,0,11,397.2,954.3)" />
<use xlink:href="#f2_a" transform="matrix(11,0,0,11,404.7,954.3)" />
<use xlink:href="#f2_9" transform="matrix(11,0,0,11,410.3,954.3)" />
<use xlink:href="#f2_a" transform="matrix(11,0,0,11,417.6,954.3)" />
<use xlink:href="#f2_i" transform="matrix(11,0,0,11,539.9,954.3)" />
<use xlink:href="#f2_9" transform="matrix(11,0,0,11,548.3,954.3)" />
<use xlink:href="#f2_c" transform="matrix(11,0,0,11,555.8,954.3)" />
<use xlink:href="#f2_9" transform="matrix(11,0,0,11,562.3,954.3)" />
<use xlink:href="#f2_6" transform="matrix(11,0,0,11,569.8,954.3)" />
<use xlink:href="#f2_a" transform="matrix(11,0,0,11,577.1,954.3)" />
<use xlink:href="#f2_7" transform="matrix(11,0,0,11,217.7,974.3)" />
<use xlink:href="#f2_6" transform="matrix(11,0,0,11,225.2,974.3)" />
<use xlink:href="#f2_d" transform="matrix(11,0,0,11,232.6,974.3)" />
<use xlink:href="#f2_9" transform="matrix(11,0,0,11,237.2,974.3)" />
<use xlink:href="#f2_n" transform="matrix(11,0,0,11,244.7,974.3)" />
<use xlink:href="#f2_e" transform="matrix(11,0,0,11,253.1,974.3)" />
<use xlink:href="#f2_6" transform="matrix(11,0,0,11,257.8,974.3)" />
<use xlink:href="#f2_a" transform="matrix(11,0,0,11,265.1,974.3)" />
<use xlink:href="#f2_c" transform="matrix(11,0,0,11,270.8,974.3)" />
<use xlink:href="#f2_9" transform="matrix(11,0,0,11,277.3,974.3)" />
<use xlink:href="#f2_a" transform="matrix(11,0,0,11,380.4,974.3)" />
<use xlink:href="#f2_9" transform="matrix(11,0,0,11,386,974.3)" />
<use xlink:href="#f2_u" transform="matrix(11,0,0,11,393.5,974.3)" />
<use xlink:href="#f2_9" transform="matrix(11,0,0,11,401.9,974.3)" />
<use xlink:href="#f2_e" transform="matrix(11,0,0,11,409.2,974.3)" />
<use xlink:href="#f2_b" transform="matrix(11,0,0,11,414,974.3)" />
<use xlink:href="#f2_a" transform="matrix(11,0,0,11,418.5,974.3)" />
<use xlink:href="#f2_c" transform="matrix(11,0,0,11,424.2,974.3)" />
<use xlink:href="#f2_9" transform="matrix(11,0,0,11,430.7,974.3)" />
<use xlink:href="#f2_c" transform="matrix(11,0,0,11,539.9,974.3)" />
<use xlink:href="#f2_9" transform="matrix(11,0,0,11,546.5,974.3)" />
<use xlink:href="#f2_7" transform="matrix(11,0,0,11,553.9,974.3)" />
<use xlink:href="#f2_6" transform="matrix(11,0,0,11,561.4,974.3)" />
<use xlink:href="#f2_a" transform="matrix(11,0,0,11,568.7,974.3)" />
<use xlink:href="#f2_c" transform="matrix(11,0,0,11,574.4,974.3)" />
<use xlink:href="#f2_9" transform="matrix(11,0,0,11,580.9,974.3)" />
<use xlink:href="#f2_7" transform="matrix(11,0,0,11,217.7,994.4)" />
<use xlink:href="#f2_6" transform="matrix(11,0,0,11,225.2,994.4)" />
<use xlink:href="#f2_u" transform="matrix(11,0,0,11,232.6,994.4)" />
<use xlink:href="#f2_6" transform="matrix(11,0,0,11,241,994.4)" />
<use xlink:href="#f2_1p" transform="matrix(11,0,0,11,248.5,994.4)" />
<use xlink:href="#f2_a" transform="matrix(11,0,0,11,380.4,994.4)" />
<use xlink:href="#f2_6" transform="matrix(11,0,0,11,386,994.4)" />
<use xlink:href="#f2_1p" transform="matrix(11,0,0,11,393.5,994.4)" />
<use xlink:href="#f2_1a" transform="matrix(11,0,0,11,401,994.4)" />
<use xlink:href="#f2_n" transform="matrix(11,0,0,11,409.4,994.4)" />
<use xlink:href="#f2_d" transform="matrix(11,0,0,11,539.9,994.4)" />
<use xlink:href="#f2_y" transform="matrix(11,0,0,11,544.6,994.4)" />
<use xlink:href="#f2_i" transform="matrix(11,0,0,11,549.2,994.4)" />
<use xlink:href="#f2_9" transform="matrix(11,0,0,11,557.6,994.4)" />
<use xlink:href="#f2_a" transform="matrix(11,0,0,11,565.1,994.4)" />
<use xlink:href="#f2_d" transform="matrix(11,0,0,11,217.7,1014.4)" />
<use xlink:href="#f2_p" transform="matrix(11,0,0,11,222.4,1014.4)" />
<use xlink:href="#f2_n" transform="matrix(11,0,0,11,230.8,1014.4)" />
<use xlink:href="#f2_6" transform="matrix(11,0,0,11,239.2,1014.4)" />
<use xlink:href="#f2_b" transform="matrix(11,0,0,11,380.4,1014.4)" />
<use xlink:href="#f2_c" transform="matrix(11,0,0,11,385.1,1014.4)" />
<use xlink:href="#f2_d" transform="matrix(11,0,0,11,391.6,1014.4)" />
<use xlink:href="#f2_6" transform="matrix(11,0,0,11,396.3,1014.4)" />
<use xlink:href="#f2_u" transform="matrix(11,0,0,11,539.9,1014.4)" />
<use xlink:href="#f2_3" transform="matrix(11,0,0,11,548.3,1014.4)" />
<use xlink:href="#f2_d" transform="matrix(11,0,0,11,556.7,1014.4)" />
<use xlink:href="#f2_4" transform="matrix(11,0,0,11,561.4,1014.4)" />
<use xlink:href="#f2_3" transform="matrix(11,0,0,11,569.8,1014.4)" />
</g>
<defs>
<path d="M163,0V190H321V0Z" 
id="f0_r"
transform="scale(0.001,-0.001)" />

<path d="M543,-317V369c0,0,0,85,-8,143c0,0,-8,58,-27,101c0,0,-18,44,-51,69c0,0,-33,24,-80,36c0,0,-48,11,-117,11H66V836H257c0,0,125,0,205,-23c0,0,80,-23,130,-79c0,0,50,-56,70,-143c0,0,20,-86,20,-222V-317Z" 
id="f0_t"
transform="scale(0.001,-0.001)" />

<path d="M495,0V729H66V836H781V729H634V0Z" 
id="f0_4"
transform="scale(0.001,-0.001)" />

<path d="M139,0V836H278V0Z" 
id="f0_6"
transform="scale(0.001,-0.001)" />

<path d="M66,0V107H554V452c0,0,0,56,-4,93c0,0,-4,37,-18,75c0,0,-14,38,-40,60c0,0,-26,22,-71,36c0,0,-45,13,-110,13H66V836H312c0,0,91,0,157,-17c0,0,66,-17,109,-49c0,0,44,-32,69,-84c0,0,26,-52,36,-114c0,0,10,-62,10,-147V107H817V0Z" 
id="f0_a"
transform="scale(0.001,-0.001)" />

<path d="M66,0V106H322c0,0,75,0,127,23c0,0,53,23,82,67c0,0,29,43,42,98c0,0,13,54,13,124c0,0,0,70,-13,124c0,0,-13,55,-42,98c0,0,-29,44,-82,67c0,0,-52,23,-127,23H66V836H322c0,0,87,0,157,-24c0,0,70,-24,115,-64c0,0,45,-40,74,-94c0,0,30,-55,43,-113c0,0,13,-59,13,-123c0,0,0,-64,-13,-123c0,0,-13,-58,-43,-113c0,0,-29,-54,-74,-94C594,88,549,48,479,24C479,24,409,0,322,0Z" 
id="f0_c"
transform="scale(0.001,-0.001)" />

<path d="M66,0V178H507V449c0,0,0,43,-2,71c0,0,-3,28,-12,56c0,0,-9,28,-26,45c0,0,-17,16,-47,27c0,0,-29,10,-72,10H66V836H349c0,0,97,0,167,-17c0,0,71,-17,117,-49c0,0,46,-32,73,-84c0,0,27,-52,38,-114c0,0,11,-62,11,-147V178H866V0Z" 
id="f1_m"
transform="scale(0.001,-0.001)" />

<path d="M102,250V836H349V351L102,250Z" 
id="f1_9"
transform="scale(0.001,-0.001)" />

<path d="M82,0V177H500L50,836H328L560,491c0,0,56,19,56,124V836H861V671c0,0,0,-116,-45,-192c0,0,-40,-68,-85,-90c0,0,-50,-26,-71,-26c0,0,-1,0,-1,0L838,96V0Z" 
id="f1_b"
transform="scale(0.001,-0.001)" />

<path d="M84,-153V45l189,68L66,836H321L497,205c0,0,72,50,101,138c0,0,30,88,30,261V836H878V604c0,0,0,-84,-7,-147c0,0,-7,-63,-25,-126c0,0,-19,-62,-51,-111c0,0,-33,-48,-82,-94c0,0,-50,-45,-122,-84C591,42,519,3,423,-30L84,-153Z" 
id="f1_c"
transform="scale(0.001,-0.001)" />

<path d="M129,0l69,362c0,0,10,56,12,100c0,0,0,84,-27,159c0,0,-27,76,-117,215H322c0,0,9,-6,31,-79c0,0,23,-72,23,-105c0,0,23,82,100,138c0,0,77,57,160,57c0,0,332,0,332,-397V0H538V177H721V449c0,0,0,124,-20,170c0,0,-20,47,-82,47c0,0,-23,0,-43,-9c0,0,-19,-10,-34,-23c0,0,-14,-14,-27,-39c0,0,-13,-25,-22,-46c0,0,-8,-22,-17,-57c0,0,-9,-36,-15,-61c0,0,-5,-24,-13,-65L375,0Z" 
id="f1_a"
transform="scale(0.001,-0.001)" />

<path d="M112,-5c0,0,-39,0,-97,11V113c0,0,48,-10,77,-10c0,0,53,0,70,42c0,0,17,43,17,164V729H50V836H501c0,0,107,0,179,-25c0,0,72,-25,112,-77c0,0,40,-51,57,-118c0,0,16,-67,16,-164V0H726V454c0,0,0,55,-3,92c0,0,-4,37,-17,75c0,0,-14,38,-38,59c0,0,-24,22,-65,36c0,0,-42,13,-102,13H318V309c0,0,0,-160,-46,-237C272,72,226,-5,112,-5Z" 
id="f0_g"
transform="scale(0.001,-0.001)" />

<path d="M139,0V138c0,0,0,61,8,112c0,0,7,52,19,87c0,0,11,36,30,66c0,0,19,31,35,49c0,0,17,19,41,35c0,0,25,17,41,25c0,0,17,7,40,17L141,836H303L613,388c0,0,20,10,33,18c0,0,13,8,34,28c0,0,20,20,33,44c0,0,13,25,22,66c0,0,10,41,10,92V836H882V698c0,0,0,-61,-7,-112c0,0,-6,-52,-18,-88c0,0,-12,-36,-30,-66c0,0,-19,-30,-36,-49c0,0,-17,-18,-41,-34c0,0,-24,-17,-40,-25c0,0,-17,-8,-41,-17L882,0H720L409,448c0,0,-21,-11,-34,-19c0,0,-13,-8,-34,-27c0,0,-21,-20,-34,-44c0,0,-12,-25,-22,-66c0,0,-9,-41,-9,-92V0Z" 
id="f0_l"
transform="scale(0.001,-0.001)" />

<path d="M585,0V426c0,0,0,54,-8,98c0,0,-8,44,-27,83c0,0,-19,40,-49,66c0,0,-30,26,-77,41c0,0,-47,15,-108,15H66V836H315c0,0,94,0,166,-20c0,0,71,-20,116,-54c0,0,46,-35,75,-88c0,0,28,-52,40,-112c0,0,12,-60,12,-137V0Z" 
id="f0_d"
transform="scale(0.001,-0.001)" />

<path d="M287,0L589,729H66v386H205V836l547,-1l-2,-82L433,0Z" 
id="f0_m"
transform="scale(0.001,-0.001)" />

<path d="M354,-200c0,0,-112,175,-167,343c0,0,-56,170,-56,337c0,0,0,166,55,335c0,0,55,169,168,345H473c0,0,-100,-172,-148,-340c0,0,-48,-168,-48,-340c0,0,0,-173,48,-342c0,0,49,-168,148,-338Z" 
id="f0_x"
transform="scale(0.001,-0.001)" />

<path d="M71,-141V-15L289,62L66,836H210L416,109c0,0,99,42,153,98c0,0,53,56,80,155c0,0,26,98,26,262V836H817V624c0,0,0,-88,-7,-154c0,0,-7,-67,-25,-132c0,0,-18,-66,-51,-116c0,0,-33,-51,-84,-98c0,0,-50,-48,-123,-87c0,0,-72,-39,-169,-74L71,-141Z" 
id="f0_h"
transform="scale(0.001,-0.001)" />

<path d="M66,0V106H564L66,836H228L516,413c0,0,3,2,9,6c0,0,17,13,27,21c0,0,10,8,26,27c0,0,17,20,26,40c0,0,9,21,16,54c0,0,7,34,7,75V836H764V698c0,0,0,-55,-7,-102c0,0,-7,-47,-16,-79c0,0,-10,-33,-27,-62c0,0,-18,-29,-32,-46c0,0,-14,-17,-37,-35c0,0,-22,-17,-36,-25c0,0,-13,-8,-36,-20L767,53V0Z" 
id="f0_n"
transform="scale(0.001,-0.001)" />

<path d="M102,312V836H241V369L102,312Z" 
id="f0_3"
transform="scale(0.001,-0.001)" />

<path d="M139,-317V836H278V-317Z" 
id="f0_e"
transform="scale(0.001,-0.001)" />

<path d="M66,0V107H332V555c0,0,0,92,-37,133c0,0,-37,41,-116,41H85V836h94c0,0,153,0,223,-66c0,0,69,-66,69,-231V0Z" 
id="f0_9"
transform="scale(0.001,-0.001)" />

<path d="M122,-200c0,0,99,170,148,338c0,0,49,169,49,342c0,0,0,172,-49,340c0,0,-49,168,-148,340H241c0,0,112,-176,168,-345c0,0,55,-169,55,-335c0,0,0,-167,-55,-337c0,0,-56,-168,-168,-343Z" 
id="f0_w"
transform="scale(0.001,-0.001)" />

<path d="M138,-7c0,0,-34,0,-72,10V129c0,0,25,-8,52,-8c0,0,33,0,58,5c0,0,26,5,58,24c0,0,33,20,53,54c0,0,21,34,36,97c0,0,15,64,15,151c0,0,0,113,-19,173c0,0,-19,60,-56,82c0,0,-38,22,-107,22H89V836h72c0,0,165,0,240,-91c0,0,76,-91,76,-293c0,0,0,-107,26,-227c0,0,25,-119,83,-225H437c0,0,-43,101,-62,184c0,0,-24,-60,-51,-99c0,0,-26,-38,-56,-58C268,27,239,7,209,0c0,0,-30,-7,-71,-7Z" 
id="f0_q"
transform="scale(0.001,-0.001)" />

<path d="M114,0l60,312c0,0,2,12,8,39c0,0,6,27,7,37c0,0,2,11,5,30c0,0,2,19,4,33c0,0,1,15,1,31c0,0,0,48,-35,146c0,0,-35,98,-98,208H228c0,0,3,-8,27,-67c0,0,25,-58,41,-117c0,0,21,53,50,90c0,0,29,37,57,57c0,0,29,21,65,32c0,0,37,11,65,14c0,0,28,3,67,3c0,0,300,0,300,-396V0H480V106H761V452c0,0,0,146,-46,215c0,0,-45,70,-118,70c0,0,-134,0,-198,-119c0,0,-36,-68,-67,-222c0,0,-2,-10,-6,-27L253,0Z" 
id="f0_7"
transform="scale(0.001,-0.001)" />

<path d="M736,107V473c0,0,0,147,-48,202c0,0,-49,54,-187,54H278V107ZM139,0V836H499c0,0,105,0,177,-22c0,0,72,-21,116,-69c0,0,44,-49,64,-119c0,0,19,-71,19,-174V0Z" 
id="f0_2"
transform="scale(0.001,-0.001)" />

<path d="M617,0L251,860V60L385,40V0H44V40L172,60V941L44,960v40H347L672,239l355,761h287V960L1185,941V60L1314,40V0H908V40l134,20V859L643,0Z" 
id="f2_1n"
transform="scale(0.001,-0.001)" />

<path d="M495,413c0,0,0,133,-34,190c0,0,-34,57,-105,57c0,0,-78,0,-119,-63c0,0,-42,-62,-42,-184ZM374,-14c0,0,-163,0,-239,87c0,0,-75,88,-75,283c0,0,0,183,77,273c0,0,76,91,219,91c0,0,269,0,269,-306V353H194V340c0,0,0,-103,23,-160c0,0,22,-57,70,-87c0,0,47,-29,124,-29c0,0,40,0,96,6c0,0,55,7,91,15V43C598,43,562,20,500,3c0,0,-61,-17,-126,-17Z" 
id="f2_9"
transform="scale(0.001,-0.001)" />

<path d="M416,68c0,0,60,0,124,32V628c0,0,-58,15,-118,15c0,0,-67,0,-104,-73c0,0,-38,-73,-38,-216c0,0,0,-139,36,-212c0,0,35,-74,100,-74ZM369,-14c0,0,-155,0,-231,88c0,0,-76,90,-76,274c0,0,0,182,82,277c0,0,81,95,236,95c0,0,82,0,165,-20c0,0,-5,24,-5,115V992l-72,18v50H756V67L833,49V0H562L547,40C547,40,505,13,483,4c0,0,-23,-7,-51,-12c0,0,-28,-6,-63,-6Z" 
id="f3_s"
transform="scale(0.001,-0.001)" />

<path d="M345,75c0,0,50,0,110,26V351l-63,-2c0,0,-72,-3,-100,-38c0,0,-28,-35,-28,-113c0,0,0,-63,22,-93c0,0,23,-30,59,-30ZM266,-14c0,0,-217,0,-217,208c0,0,0,79,32,126c0,0,32,48,93,71c0,0,60,22,190,25l91,2V521c0,0,0,126,-104,126c0,0,-62,0,-140,-39L183,521H134V691c0,0,112,17,165,21c0,0,53,5,108,5c0,0,264,0,264,-194V67L741,49V0H483L466,54C466,54,408,14,361,0c0,0,-47,-14,-95,-14Z" 
id="f3_f"
transform="scale(0.001,-0.001)" />

<path d="M438,65c0,0,131,0,131,293c0,0,0,279,-130,279c0,0,-69,0,-127,-29V80c0,0,60,-15,126,-15ZM20,-325v50l76,18V634L19,652v49H304l1,-36c0,0,80,55,194,55c0,0,146,0,218,-86c0,0,71,-86,71,-271c0,0,0,-183,-83,-280c0,0,-83,-97,-238,-97c0,0,-79,0,-160,19c0,0,5,-48,5,-109V-257l103,-18v-50Z" 
id="f3_d"
transform="scale(0.001,-0.001)" />

<path d="M434,423c0,0,0,101,-7,142c0,0,-6,40,-22,60c0,0,-16,19,-45,19c0,0,-44,0,-66,-48c0,0,-22,-49,-22,-173ZM389,-14c0,0,-172,0,-254,89c0,0,-83,90,-83,279c0,0,0,184,79,274c0,0,79,91,238,91c0,0,142,0,206,-76c0,0,64,-76,64,-237V345H271V333c0,0,0,-111,18,-158c0,0,18,-47,58,-72c0,0,40,-25,110,-25c0,0,66,0,166,22V42C623,42,582,18,517,1c0,0,-66,-15,-128,-15Z" 
id="f3_l"
transform="scale(0.001,-0.001)" />

<path d="M41,0V49l69,18V634L41,652v49H313l11,-61l50,26c0,0,105,54,188,54c0,0,194,0,194,-207V67L827,49V0H478V49l63,18V484c0,0,0,63,-27,98c0,0,-26,35,-75,35c0,0,-57,0,-114,-25V67L389,49V0Z" 
id="f3_n"
transform="scale(0.001,-0.001)" />

<path d="M360,-14L72,649L0,668v33H327V668L216,648L420,164L615,649L504,668v33H764V668L697,652L416,-14Z" 
id="f2_4"
transform="scale(0.001,-0.001)" />

<path d="M31,0V33l88,19V649L31,668v33H235l7,-87c0,0,44,37,121,71c0,0,76,35,121,35h11V530H463l-43,82c0,0,-37,0,-88,-10c0,0,-52,-10,-89,-26V52L363,33V0Z" 
id="f2_a"
transform="scale(0.001,-0.001)" />

<path d="M249,-14c0,0,-71,0,-107,42c0,0,-35,42,-35,119V639H15v33l93,29l76,159h47V701H391V639H231V161c0,0,0,-48,22,-73c0,0,22,-24,57,-24c0,0,44,0,106,12V26C416,26,389,8,340,-2c0,0,-49,-12,-91,-12Z" 
id="f2_e"
transform="scale(0.001,-0.001)" />

<path d="M399,-14c0,0,-341,0,-341,370c0,0,0,175,87,269c0,0,87,95,249,95c0,0,101,0,220,-23V501H573L541,625c0,0,-62,35,-149,35c0,0,-200,0,-200,-304c0,0,0,-158,61,-225c0,0,61,-67,189,-67c0,0,109,0,189,24V43C631,43,595,16,530,1c0,0,-64,-15,-131,-15Z" 
id="f2_7"
transform="scale(0.001,-0.001)" />

<path d="M377,45c0,0,99,0,147,73c0,0,47,73,47,237c0,0,0,161,-47,233c0,0,-47,72,-147,72c0,0,-97,0,-141,-69c0,0,-44,-69,-44,-236c0,0,0,-169,45,-240c0,0,44,-70,140,-70Zm0,-59c0,0,-158,0,-238,94c0,0,-81,95,-81,274c0,0,0,178,81,272c0,0,80,94,244,94c0,0,160,0,241,-92c0,0,82,-92,82,-274c0,0,0,-368,-329,-368Z" 
id="f2_3"
transform="scale(0.001,-0.001)" />

<path d="M439,0V33l93,19V500c0,0,0,62,-30,97c0,0,-31,36,-94,36c0,0,-67,0,-165,-22V52L338,33V0H35V33l84,19V649L35,668v33H235l7,-57c0,0,57,33,122,54c0,0,65,22,108,22c0,0,91,0,137,-53c0,0,47,-53,47,-154V52L741,33V0Z" 
id="f2_n"
transform="scale(0.001,-0.001)" />

<path d="M32,0V33L151,52V649L52,668v33H275V52L395,33V0ZM201,850c0,0,-32,0,-56,24c0,0,-24,24,-24,56c0,0,0,34,24,58c0,0,24,24,56,24c0,0,34,0,58,-24c0,0,24,-24,24,-58c0,0,0,-32,-24,-56c0,0,-24,-24,-58,-24Z" 
id="f2_b"
transform="scale(0.001,-0.001)" />

<path d="M359,-270c0,0,124,0,192,46c0,0,67,47,67,129c0,0,0,43,-26,67c0,0,-26,24,-79,24H242c0,0,-32,-27,-51,-69c0,0,-20,-41,-20,-77c0,0,0,-64,46,-92c0,0,46,-28,142,-28Zm11,561c0,0,81,0,115,47c0,0,34,47,34,141c0,0,0,100,-35,142c0,0,-35,42,-113,42c0,0,-78,0,-114,-43c0,0,-37,-42,-37,-141c0,0,0,-98,36,-143c0,0,36,-45,114,-45ZM359,-329c0,0,-143,0,-218,44c0,0,-75,43,-75,125c0,0,0,39,27,78c0,0,26,38,98,89c0,0,-43,14,-72,48c0,0,-29,35,-29,74L208,262c0,0,-118,55,-118,217c0,0,0,115,73,178c0,0,73,63,211,63c0,0,28,0,71,-6c0,0,44,-6,67,-13l165,83l26,-32L599,644c0,0,50,-56,50,-165c0,0,0,-120,-72,-182c0,0,-73,-62,-208,-62c0,0,-62,0,-114,11L208,148c0,0,2,-13,29,-24c0,0,27,-12,67,-12H512c0,0,113,0,168,-49c0,0,55,-49,55,-134c0,0,0,-79,-44,-137c0,0,-43,-58,-128,-90c0,0,-84,-31,-204,-31Z" 
id="f2_q"
transform="scale(0.001,-0.001)" />

<path d="M289,-14c0,0,-179,0,-179,205V649L20,668v33H233V200c0,0,0,-128,120,-128c0,0,92,0,173,23V649L420,668v33H649V52L738,33V0H533l-6,57C527,57,474,28,405,7c0,0,-69,-21,-116,-21Z" 
id="f2_p"
transform="scale(0.001,-0.001)" />

<path d="M31,0V33L150,52v956L31,1026v34H274V52L394,33V0Z" 
id="f2_d"
transform="scale(0.001,-0.001)" />

<path d="M191,-20c0,0,-39,0,-65,25c0,0,-25,27,-25,64c0,0,0,38,26,64c0,0,26,26,64,26c0,0,38,0,64,-26c0,0,26,-26,26,-64c0,0,0,-37,-25,-64c0,0,-26,-25,-65,-25Z" 
id="f2_m"
transform="scale(0.001,-0.001)" />

<path d="M173,-6C173,-6,61,-6,15,9V177c0,0,73,-10,82,-10c0,0,37,0,52,30c0,0,14,29,14,116V658H18V836H516c0,0,262,0,341,-145c0,0,48,-89,48,-242V0H658V450c0,0,0,131,-37,171c0,0,-34,37,-105,37H411V313c0,0,0,-189,-67,-258C344,55,285,-6,173,-6Z" 
id="f1_7"
transform="scale(0.001,-0.001)" />

<path d="M139,0V177H436c0,0,127,0,184,56c0,0,56,55,56,186c0,0,0,132,-58,186c0,0,-58,53,-181,53H386L385,553c0,0,0,-40,12,-54c0,0,12,-15,31,-15c0,0,19,0,38,2V343c0,0,-46,-11,-94,-11c0,0,-48,0,-87,11c0,0,-38,10,-73,34c0,0,-73,53,-73,196V836H487c0,0,203,0,319,-109c0,0,116,-109,116,-309c0,0,0,-200,-117,-309C805,109,689,0,487,0Z" 
id="f1_5"
transform="scale(0.001,-0.001)" />

<path d="M66,0V177H334c0,0,99,0,150,66c0,0,51,67,51,175c0,0,0,108,-51,175c0,0,-51,66,-150,66H66V836H334c0,0,92,0,168,-24c0,0,75,-24,127,-64c0,0,51,-40,86,-94c0,0,35,-54,51,-113c0,0,15,-60,15,-123c0,0,0,-63,-15,-123c0,0,-16,-59,-51,-113c0,0,-35,-54,-86,-94C629,88,577,48,502,24C502,24,426,0,334,0Z" 
id="f1_h"
transform="scale(0.001,-0.001)" />

<path d="M159,0V165c0,0,0,69,13,124c0,0,12,55,29,89c0,0,17,33,45,62c0,0,29,28,50,42c0,0,22,14,54,30L128,836H405L666,460c0,0,41,48,41,155V836H952V671c0,0,0,-50,-6,-93c0,0,-6,-42,-16,-73c0,0,-10,-30,-26,-57c0,0,-17,-27,-31,-44c0,0,-15,-17,-37,-33c0,0,-22,-16,-38,-25c0,0,-15,-9,-38,-21L984,0H706L445,376c0,0,-41,-48,-41,-155V0Z" 
id="f1_j"
transform="scale(0.001,-0.001)" />

<path d="M0,-141L393,1114H558L165,-141Z" 
id="f1_x"
transform="scale(0.001,-0.001)" />

<path d="M139,0V836H386V0Z" 
id="f1_8"
transform="scale(0.001,-0.001)" />

<path d="M137,0L30,830H277L321,522c0,0,68,3,96,27c0,0,27,23,38,58c0,0,26,74,31,228H733c0,0,-31,-218,-70,-316c0,0,-23,-59,-88,-100c0,0,-54,-34,-116,-42c0,0,-62,-8,-117,-8L362,178c0,0,27,-1,61,-1c40,0,89,1,119,6c0,0,57,8,94,25c0,0,37,18,69,47c0,0,32,30,60,79c0,0,28,48,51,117c0,0,48,143,82,384h248c0,0,-53,-404,-172,-586C974,249,879,103,745,51C745,51,613,0,318,0Z" 
id="f1_s"
transform="scale(0.001,-0.001)" />

<path d="M139,0V836H512c0,0,219,0,309,-90c0,0,90,-90,90,-297V0H665V467c0,0,0,110,-31,150c0,0,-32,41,-120,41H385V0Z" 
id="f1_u"
transform="scale(0.001,-0.001)" />

<path d="M868,0L251,900V60L385,40V0H44V40L172,60V941L44,960v40H347L862,259V941L727,960v40h341V960L940,941V0Z" 
id="f2_1o"
transform="scale(0.001,-0.001)" />

<path d="M431,0V33L535,52V499c0,0,0,62,-32,96c0,0,-32,33,-95,33c0,0,-66,0,-163,-22V52L350,33V0H32V33l89,19V649L32,668v33H237l6,-57c0,0,56,32,119,54c0,0,62,22,110,22c0,0,52,0,95,-20c0,0,44,-19,66,-62c0,0,57,32,134,57c0,0,77,25,128,25c0,0,179,0,179,-207V52l90,-19V0H846V33L950,52V499c0,0,0,129,-119,129c0,0,-19,0,-45,-3c0,0,-26,-3,-52,-7c0,0,-25,-4,-49,-8c0,0,-23,-5,-39,-8c0,0,13,-41,13,-89V52L764,33V0Z" 
id="f2_8"
transform="scale(0.001,-0.001)" />

<path d="M34,0V49l76,18V634L38,652v49H325V67L402,49V0ZM217,831c0,0,-48,0,-81,33c0,0,-34,33,-34,82c0,0,0,48,34,81c0,0,34,33,81,33c0,0,48,0,81,-33c0,0,33,-33,33,-81c0,0,0,-47,-33,-81c0,0,-32,-34,-81,-34Z" 
id="f3_i"
transform="scale(0.001,-0.001)" />

<path d="M41,0V49l69,18V634L41,652v49H313l11,-61l50,26c0,0,105,54,188,54c0,0,125,0,167,-91c0,0,153,91,258,91c0,0,189,0,189,-207V67l71,-17V0H898V50l63,17V484c0,0,0,63,-24,98c0,0,-25,35,-74,35c0,0,-55,0,-119,-31c0,0,7,-32,7,-73V67L821,50V0H473V50l63,17V484c0,0,0,63,-25,98c0,0,-24,35,-73,35c0,0,-49,0,-113,-29V67L389,49V0Z" 
id="f3_z"
transform="scale(0.001,-0.001)" />

<path d="M379,60c0,0,59,0,84,64c0,0,24,65,24,231c0,0,0,164,-24,227c0,0,-24,63,-84,63c0,0,-57,0,-80,-60c0,0,-22,-61,-22,-230c0,0,0,-173,23,-234c0,0,22,-61,79,-61Zm-2,-74c0,0,-161,0,-240,91c0,0,-79,91,-79,277c0,0,0,186,80,276c0,0,81,90,245,90c0,0,167,0,245,-93c0,0,78,-93,78,-273c0,0,0,-188,-81,-278c0,0,-81,-90,-248,-90Z" 
id="f3_10"
transform="scale(0.001,-0.001)" />

<path d="M41,0V49l91,18V634L41,652v49H336l8,-145c0,0,80,89,144,128c0,0,64,40,117,40h40V468H604l-45,94c0,0,-47,0,-106,-21c0,0,-60,-20,-105,-48V67L460,49V0Z" 
id="f3_e"
transform="scale(0.001,-0.001)" />

<path d="M327,-14c0,0,-101,0,-156,45c0,0,-55,45,-55,131V624H25v48l108,29l87,159H332V701H480V624H332V176c0,0,0,-49,20,-73c0,0,20,-25,53,-25c0,0,40,0,97,12V26c0,0,-22,-15,-76,-27c0,0,-55,-13,-99,-13Z" 
id="f3_h"
transform="scale(0.001,-0.001)" />

<path d="M284,67c0,0,51,0,88,12c0,0,37,12,74,30V358l-98,-3c0,0,-100,-4,-135,-39c0,0,-35,-35,-35,-117c0,0,0,-132,106,-132ZM233,-14c0,0,-179,0,-179,208c0,0,0,70,27,116c0,0,27,46,87,70c0,0,60,24,173,27l105,3V519c0,0,0,72,-26,107c0,0,-27,34,-82,34c0,0,-75,0,-137,-35L176,538H134V691c0,0,121,26,213,26c0,0,115,0,169,-47c0,0,54,-47,54,-144V52L657,33V0H465L451,70c0,0,-85,-84,-218,-84Z" 
id="f2_6"
transform="scale(0.001,-0.001)" />

<path d="M383,64c0,0,85,0,152,28V645c0,0,-67,13,-152,13c0,0,-194,0,-194,-314c0,0,0,-141,48,-211c0,0,48,-69,146,-69ZM342,-14c0,0,-287,0,-287,358c0,0,0,184,82,280c0,0,81,96,239,96c0,0,81,0,163,-18c0,0,-4,25,-4,124v182l-118,18v34H659V52L745,33V0H548l-9,52c0,0,-84,-66,-197,-66Z" 
id="f2_i"
transform="scale(0.001,-0.001)" />

<path d="M180,0L66,836H203L258,443c0,0,36,1,64,6c0,0,28,6,49,18c0,0,20,12,35,26c0,0,15,13,26,36c0,0,11,24,17,44c0,0,7,20,12,55c0,0,6,34,9,60c0,0,3,26,8,71c0,0,4,45,9,77H610c0,0,-13,-194,-31,-271c0,0,-31,-127,-111,-179c0,0,-71,-45,-196,-50L304,107c0,0,73,0,130,5c0,0,56,6,111,21c0,0,54,15,94,40c0,0,40,25,77,64c0,0,37,39,63,94c0,0,25,54,46,128c0,0,21,73,34,166c0,0,13,94,20,211h138c0,0,-14,-124,-29,-218c0,0,-16,-94,-39,-179c0,0,-22,-85,-50,-146c0,0,-28,-61,-68,-112c0,0,-39,-51,-87,-84C744,97,696,65,632,42C632,42,568,19,492,10C492,10,417,0,320,0Z" 
id="f0_j"
transform="scale(0.001,-0.001)" />

<path d="M154,0V454l138,56V0ZM722,0V454c0,0,0,161,-49,218c0,0,-48,57,-186,57H139V836H485c0,0,207,0,291,-93c0,0,83,-94,83,-318V0Z" 
id="f0_b"
transform="scale(0.001,-0.001)" />

<path d="M44,0V40L172,60V941L44,960v40H471V960L316,941V65H513c0,0,159,0,234,14l46,208h48L828,0Z" 
id="f2_14"
transform="scale(0.001,-0.001)" />

<path d="M287,-18c0,0,-194,0,-194,206V634L23,652v49H309V217c0,0,0,-63,26,-98c0,0,27,-35,76,-35c0,0,57,0,113,25V634l-64,18v49H740V67L809,49V0H536L526,61L475,35c0,0,-104,-53,-188,-53Z" 
id="f3_q"
transform="scale(0.001,-0.001)" />

<path d="M30,0V49l76,18V992l-72,18v50H322V67L398,49V0Z" 
id="f3_o"
transform="scale(0.001,-0.001)" />

<path d="M376,50c0,0,103,0,149,80c0,0,46,81,46,240c0,0,0,137,-47,204c0,0,-48,67,-148,67c0,0,-44,0,-87,-7c0,0,-44,-8,-63,-17V62c0,0,63,-12,150,-12Zm3,-64c0,0,-64,0,-141,14c0,0,-78,14,-136,37v971L0,1026v34H226V809c0,0,0,-40,-4,-148c0,0,74,59,188,59c0,0,143,0,219,-87c0,0,77,-87,77,-263c0,0,0,-189,-84,-287c0,0,-84,-97,-243,-97Z" 
id="f2_o"
transform="scale(0.001,-0.001)" />

<path d="M41,0V34L426,641H261c0,0,-42,0,-80,-7c0,0,-39,-7,-54,-19L104,515H69V701H586V665L201,60H407c0,0,42,0,89,10c0,0,47,10,66,25l39,147h35L617,0Z" 
id="f2_1p"
transform="scale(0.001,-0.001)" />

<path d="M248,0L521,658H66v429H313V836l493,-1V716L504,0Z" 
id="f1_d"
transform="scale(0.001,-0.001)" />

<path d="M534,0V425c0,0,0,109,-41,171c0,0,-41,62,-140,62H66V836H352c0,0,99,0,174,-20c0,0,75,-20,123,-55c0,0,48,-35,78,-87c0,0,30,-53,42,-113c0,0,12,-60,12,-136V0Z" 
id="f1_4"
transform="scale(0.001,-0.001)" />

<path d="M545,163c0,0,162,0,162,262c0,0,0,66,-11,111c0,0,-11,45,-36,71c0,0,-24,25,-56,35c0,0,-31,10,-78,10H383V420c0,0,0,-257,162,-257Zm0,-182c0,0,-205,0,-306,109c0,0,-101,109,-101,335V836H527c0,0,223,0,325,-94c0,0,101,-93,101,-317c0,0,0,-226,-101,-335C852,90,750,-19,545,-19Z" 
id="f1_n"
transform="scale(0.001,-0.001)" />

<path d="M139,0V836H485c0,0,206,0,290,-90c0,0,84,-89,84,-294V0H721V473c0,0,0,147,-49,202c0,0,-48,54,-186,54H277V0Z" 
id="f0_5"
transform="scale(0.001,-0.001)" />

<path d="M41,0V49l69,18V992l-72,18v50H325V756c0,0,0,-49,-4,-116l51,26c0,0,106,54,190,54c0,0,194,0,194,-207V67L827,49V0H478V49l63,18V484c0,0,0,63,-27,98c0,0,-26,35,-75,35c0,0,-57,0,-114,-25V67L389,49V0Z" 
id="f3_1k"
transform="scale(0.001,-0.001)" />

<path d="M425,-14c0,0,-187,0,-280,90c0,0,-93,90,-93,276c0,0,0,115,42,198c0,0,43,82,121,126c0,0,78,44,182,44c0,0,104,0,227,-26V486H571L539,609c0,0,-25,19,-50,26c0,0,-24,7,-65,7c0,0,-44,0,-79,-35c0,0,-36,-35,-56,-98c0,0,-20,-64,-20,-153c0,0,0,-150,47,-214c0,0,47,-64,148,-64c0,0,103,0,176,21V42C640,42,606,15,547,0c0,0,-59,-14,-122,-14Z" 
id="f3_g"
transform="scale(0.001,-0.001)" />

<path d="M41,0V49l76,18V624H11v51l106,29v75c0,0,0,144,73,220c0,0,73,77,210,77c0,0,74,0,124,-15V894H476l-22,81c0,0,-18,17,-47,17c0,0,-74,0,-74,-189V701H475V624H333V67L447,49V0Z" 
id="f3_19"
transform="scale(0.001,-0.001)" />

<path d="M639,416L478,858L313,416ZM647,0V54L762,74L667,333H283L191,74L319,54V0H15V54L90,74l355,935H662L1016,74l76,-20V0Z" 
id="f3_c"
transform="scale(0.001,-0.001)" />

<path d="M71,0V90H214v934H71v90H1073V851H970v160H502V654H792V796H895V411H792V552H502V103H984V263h102V0Z" 
id="f4_2"
transform="scale(0.001,-0.001)" />

<path d="M87,-338c0,0,-45,0,-94,7c0,0,-51,8,-105,22v168l84,-1c0,0,1,-59,23,-86c0,0,21,-26,70,-26c0,0,55,0,77,35c0,0,21,35,21,127V703H51v90H427V-92c0,0,0,-122,-86,-184c0,0,-86,-62,-254,-62ZM277,876c0,0,-61,0,-102,41c0,0,-42,41,-42,101c0,0,0,60,41,101c0,0,42,42,103,42c0,0,58,0,100,-42c0,0,42,-42,42,-101c0,0,0,-59,-42,-101c0,0,-41,-41,-100,-41Z" 
id="f4_3"
transform="scale(0.001,-0.001)" />

<path d="M612,448c0,0,0,156,-29,219c0,0,-29,63,-99,63c0,0,-68,0,-98,-61c0,0,-29,-62,-29,-208V448ZM488,-20c0,0,-205,0,-315,107C173,87,63,195,63,397c0,0,0,197,112,307c0,0,113,110,313,110c0,0,197,0,303,-115c0,0,105,-116,111,-340H357v-6c0,0,0,-154,46,-222c0,0,46,-68,149,-68c0,0,86,0,139,45c0,0,53,46,68,133H883C883,241,851,105,755,42c0,0,-95,-62,-267,-62Z" 
id="f4_4"
transform="scale(0.001,-0.001)" />

<path d="M53,0V90H165V703H44v90H429V652c0,0,39,83,103,123c0,0,64,39,156,39c0,0,24,0,57,-3c0,0,33,-3,76,-9V565H737c0,0,-4,63,-34,94c0,0,-30,31,-87,31c0,0,-87,0,-137,-76c0,0,-50,-76,-50,-211V90H573V0Z" 
id="f4_5"
transform="scale(0.001,-0.001)" />

<path d="M507,-20c0,0,-212,0,-328,108C179,88,63,198,63,397c0,0,0,197,114,307c0,0,115,110,320,110c0,0,82,0,167,-15c0,0,84,-16,171,-47V532H752c0,0,-12,101,-59,150c0,0,-47,48,-132,48c0,0,-111,0,-157,-74c0,0,-47,-75,-47,-259c0,0,0,-180,45,-257c0,0,46,-77,149,-77c0,0,80,0,128,47c0,0,48,48,58,137H861C861,247,833,112,745,45c0,0,-87,-65,-238,-65Z" 
id="f4_6"
transform="scale(0.001,-0.001)" />

<path d="M53,0V90H165V703H53v90H429V90H543V0ZM285,876c0,0,-61,0,-102,41c0,0,-42,41,-42,101c0,0,0,60,42,101c0,0,41,42,102,42c0,0,59,0,100,-42c0,0,41,-41,41,-101c0,0,0,-59,-41,-101c0,0,-41,-41,-100,-41Z" 
id="f4_7"
transform="scale(0.001,-0.001)" />

<path d="M510,63c0,0,84,0,118,71c0,0,34,72,34,263c0,0,0,191,-34,262c0,0,-33,71,-118,71c0,0,-84,0,-119,-72c0,0,-34,-72,-34,-261c0,0,0,-190,34,-262c0,0,35,-72,119,-72Zm0,-83c0,0,-209,0,-328,110C182,90,63,201,63,397c0,0,0,196,119,307c0,0,119,110,328,110c0,0,211,0,330,-110c0,0,118,-111,118,-307c0,0,0,-196,-119,-307C839,90,720,-20,510,-20Z" 
id="f4_8"
transform="scale(0.001,-0.001)" />

<path d="M542,66c0,0,77,0,110,65c0,0,32,65,32,226c0,0,0,162,-32,227c0,0,-33,65,-110,65c0,0,-77,0,-110,-65c0,0,-32,-65,-32,-227c0,0,0,-161,32,-226c0,0,33,-65,110,-65Zm17,-86c0,0,-228,0,-346,136C213,116,96,254,96,521c0,0,0,304,130,458c0,0,131,155,387,155c0,0,67,0,144,-11c0,0,77,-11,165,-34V893H832c0,0,-19,76,-70,115c0,0,-52,39,-134,39c0,0,-133,0,-192,-91c0,0,-60,-91,-61,-295c0,0,49,38,109,58c0,0,60,19,131,19c0,0,171,0,268,-100c0,0,98,-100,98,-274c0,0,0,-185,-110,-285c0,0,-110,-99,-312,-99Z" 
id="f4_k"
transform="scale(0.001,-0.001)" />

<path d="M83,309V510H551V309Z" 
id="f4_b"
transform="scale(0.001,-0.001)" />

<path d="M235,0V40L394,60V936H356c0,0,-189,0,-258,-15L78,766H28v234H908V766H857L837,921c0,0,-22,5,-98,9c0,0,-75,4,-165,4H538V60L697,40V0Z" 
id="f2_r"
transform="scale(0.001,-0.001)" />

<path d="M278,-14c0,0,-52,0,-115,11c0,0,-63,10,-99,23V193H98L134,95c0,0,56,-50,146,-50c0,0,144,0,144,123c0,0,0,91,-114,130l-66,21c0,0,-75,25,-110,50c0,0,-34,26,-53,63c0,0,-18,36,-18,89c0,0,0,92,63,145c0,0,63,54,170,54c0,0,77,0,193,-23V544H454l-32,81c0,0,-39,35,-124,35c0,0,-61,0,-92,-30c0,0,-32,-30,-32,-80c0,0,0,-43,29,-72c0,0,28,-29,86,-48c0,0,110,-38,144,-55c0,0,33,-17,57,-42c0,0,23,-25,36,-57c0,0,13,-32,13,-79c0,0,0,-104,-66,-158c0,0,-66,-53,-195,-53Z" 
id="f2_c"
transform="scale(0.001,-0.001)" />

<path d="M64,0V34L168,59V639H47v36l121,29v49c0,0,0,155,61,239c0,0,62,84,173,84c0,0,58,0,107,-15V908H472l-33,92c0,0,-26,16,-62,16c0,0,-47,0,-66,-42c0,0,-19,-42,-19,-157V701H478V639H292V59L443,34V0Z" 
id="f2_s"
transform="scale(0.001,-0.001)" />

<path d="M382,45c0,0,188,0,188,314c0,0,0,143,-47,213c0,0,-46,69,-141,69c0,0,-87,0,-146,-24V58c0,0,67,-13,146,-13ZM25,-325v35l88,18V649L34,668v33H231l1,-41c0,0,31,27,84,43c0,0,53,17,107,17c0,0,134,0,208,-94c0,0,73,-93,73,-267c0,0,0,-178,-80,-276c0,0,-80,-97,-232,-97c0,0,-84,0,-160,16c0,0,4,-53,4,-84V-272l123,-18v-35Z" 
id="f2_u"
transform="scale(0.001,-0.001)" />

<path d="M35,0V34l84,18V649L35,668v33H235l7,-56c0,0,57,32,122,54c0,0,65,21,108,21c0,0,91,0,137,-53c0,0,47,-53,47,-154V52L741,34V0H439V34l93,18V500c0,0,0,62,-30,97c0,0,-31,36,-94,36c0,0,-67,0,-165,-22V52L338,34V0ZM481,834c0,0,-36,0,-66,16c0,0,-30,16,-57,36c0,0,-27,20,-52,36c0,0,-25,16,-49,16c0,0,-24,0,-39,-9c0,0,-14,-9,-23,-26c0,0,-8,-17,-13,-54H143c0,0,11,180,146,180c0,0,36,0,66,-16c0,0,30,-16,57,-35c0,0,27,-20,52,-36c0,0,25,-16,49,-16c0,0,32,0,50,18c0,0,18,19,25,70h39c0,0,-12,-180,-146,-180Z" 
id="f2_10"
transform="scale(0.001,-0.001)" />

<path d="M306,-20c0,0,-39,0,-65,25c0,0,-25,27,-25,64c0,0,0,38,26,64c0,0,26,26,64,26c0,0,37,0,63,-25c0,0,26,-26,26,-65c0,0,0,-37,-25,-64c0,0,-26,-25,-64,-25ZM269,261L249,510l107,22c0,0,64,13,93,65c0,0,29,52,29,152c0,0,0,109,-39,154c0,0,-40,45,-140,45c0,0,-83,0,-145,-36L128,789H79V979c0,0,118,32,220,32c0,0,316,0,316,-253c0,0,0,-121,-60,-195c0,0,-60,-74,-175,-98l-42,-9L328,261Z" 
id="f2_12"
transform="scale(0.001,-0.001)" />

<path d="M58,-234v58c0,0,131,42,131,125c0,0,0,15,-11,27c0,0,-11,12,-38,25C140,1,89,27,89,75c0,0,0,40,25,61c0,0,26,21,65,21c0,0,48,0,77,-34c0,0,30,-34,30,-86c0,0,0,-101,-60,-170c0,0,-59,-69,-168,-101Z" 
id="f2_19"
transform="scale(0.001,-0.001)" />

<path d="M383,64c0,0,44,0,87,7c0,0,43,7,65,17V645c0,0,-67,13,-152,13c0,0,-194,0,-194,-309c0,0,0,-143,48,-214c0,0,47,-71,146,-71Zm56,-389v35l96,18V-77c0,0,0,73,7,124c0,0,-79,-61,-200,-61c0,0,-287,0,-287,362c0,0,0,180,81,276c0,0,81,96,237,96c0,0,84,0,166,-18l67,33h53V-272l77,-18v-35Z" 
id="f2_1e"
transform="scale(0.001,-0.001)" />

<path d="M495,413c0,0,0,133,-34,190c0,0,-34,57,-105,57c0,0,-78,0,-119,-62c0,0,-42,-63,-42,-185ZM374,-14c0,0,-163,0,-239,87c0,0,-75,88,-75,283c0,0,0,183,77,274c0,0,76,90,219,90c0,0,269,0,269,-306V353H194V339c0,0,0,-103,23,-160c0,0,22,-57,70,-86c0,0,47,-30,124,-30c0,0,40,0,96,6c0,0,55,7,91,15V43C598,43,562,19,500,2c0,0,-61,-16,-126,-16ZM285,835v24l146,203H590v-27L326,835Z" 
id="f2_j"
transform="scale(0.001,-0.001)" />

<path d="M442,0V33l93,19V504c0,0,0,129,-124,129c0,0,-70,0,-168,-22V52L338,33V0H31V33l88,19v956L15,1026v34H243V756c0,0,0,-77,-5,-112c0,0,54,31,122,53c0,0,68,23,115,23c0,0,91,0,137,-53c0,0,47,-53,47,-154V52L744,33V0Z" 
id="f2_x"
transform="scale(0.001,-0.001)" />

<path d="M377,44c0,0,99,0,147,73c0,0,47,73,47,237c0,0,0,161,-47,234c0,0,-47,72,-147,72c0,0,-97,0,-141,-69c0,0,-44,-70,-44,-237c0,0,0,-169,45,-239c0,0,44,-71,140,-71Zm0,-58c0,0,-158,0,-238,94c0,0,-81,95,-81,274c0,0,0,178,81,272c0,0,80,94,244,94c0,0,160,0,241,-92c0,0,82,-92,82,-274c0,0,0,-368,-329,-368ZM301,835v24l147,203H606v-27L342,835Z" 
id="f2_1a"
transform="scale(0.001,-0.001)" />

<path d="M681,416L504,902L333,416ZM669,0V40L803,60L704,348H310L210,60L344,40V0H15V40L128,60l341,949H611L965,60L1092,40V0Z" 
id="f2_1m"
transform="scale(0.001,-0.001)" />

<path d="M64,-325c0,0,-46,0,-107,14v148H-8l19,-81c0,0,25,-21,62,-21c0,0,44,0,67,47c0,0,22,47,22,152V649L57,668v33H286V-28c0,0,0,-146,-57,-221c0,0,-56,-76,-165,-76ZM213,850c0,0,-34,0,-58,24c0,0,-24,24,-24,56c0,0,0,34,24,58c0,0,24,24,58,24c0,0,32,0,56,-24c0,0,24,-24,24,-58c0,0,0,-32,-24,-56c0,0,-24,-24,-56,-24Z" 
id="f2_w"
transform="scale(0.001,-0.001)" />

<path d="M139,0V106H400c0,0,176,0,253,71c0,0,78,72,78,250c0,0,0,163,-80,233c0,0,-81,69,-250,69H278L277,564c0,0,-1,-54,26,-80c0,0,27,-25,82,-25c0,0,30,0,80,9V355c0,0,-61,-12,-111,-12c0,0,-100,0,-157,55c0,0,-58,55,-58,186V836H456c0,0,193,0,303,-109c0,0,110,-109,110,-309c0,0,0,-200,-110,-309C759,109,648,0,456,0Z" 
id="f0_k"
transform="scale(0.001,-0.001)" />

<path d="M522,92c0,0,247,0,247,333c0,0,0,88,-17,146c0,0,-17,58,-53,91c0,0,-35,33,-82,46c0,0,-48,14,-116,14H276V419c0,0,0,-327,246,-327Zm0,-112c0,0,-193,0,-289,109c0,0,-95,110,-95,337V836H501c0,0,213,0,309,-93c0,0,96,-94,96,-317c0,0,0,-227,-95,-337C811,89,715,-20,522,-20Z" 
id="f0_s"
transform="scale(0.001,-0.001)" />

<path d="M0,-141L388,1114H514L127,-141Z" 
id="f0_y"
transform="scale(0.001,-0.001)" />

<path d="M117,-176L179,62V190H336V62L213,-176Z" 
id="f0_f"
transform="scale(0.001,-0.001)" />

<path d="M291,0V190H443V0Zm5,299V414c0,0,0,75,21,124c0,0,21,48,88,113l67,66c0,0,42,40,61,75c0,0,19,35,19,71c0,0,0,67,-48,108c0,0,-49,41,-130,41c0,0,-59,0,-125,-26c0,0,-67,-26,-139,-77v140c0,0,70,43,142,64c0,0,72,21,148,21c0,0,138,0,221,-72c0,0,83,-73,83,-191c0,0,0,-57,-27,-108c0,0,-27,-51,-94,-115L517,583c0,0,-34,-35,-49,-54c0,0,-14,-20,-20,-39c0,0,-5,-16,-7,-38c0,0,-2,-22,-2,-61V299Z" 
id="f0_1b"
transform="scale(0.001,-0.001)" />

<path d="M448,506c0,0,134,0,190,49c0,0,57,50,57,168c0,0,0,114,-56,162c0,0,-56,48,-195,48H316V506ZM777,0L496,438H316V60L468,40V0H54V40L172,60V941L44,960v40H476c0,0,188,0,277,-63c0,0,90,-64,90,-204c0,0,0,-100,-54,-173c0,0,-55,-73,-151,-101L909,60L1017,40V0Z" 
id="f2_13"
transform="scale(0.001,-0.001)" />

<path d="M326,0L773,903H224V752H121v362H937V924L477,0Z" 
id="f4_l"
transform="scale(0.001,-0.001)" />

<path d="M83,331V549H551V331Z" 
id="f1_y"
transform="scale(0.001,-0.001)" />

<path d="M730,212c0,0,17,78,17,199c0,0,0,85,-13,133c0,0,-12,48,-36,69c0,0,-24,21,-87,21H312c0,0,-55,-53,-72,-91c0,0,-17,-38,-17,-96c0,0,0,-124,8,-235ZM134,0l-1,360c0,0,0,121,7,151c0,0,7,30,31,61c0,0,24,32,57,62H201c0,0,-37,0,-59,39c0,0,-23,40,-23,101c0,0,0,51,18,87c0,0,18,35,35,35c0,0,12,0,16,-2c0,0,4,-2,4,-8V869c0,0,0,-24,31,-24H645c0,0,73,0,104,-18c0,0,30,-18,49,-58c0,0,19,-39,27,-107c0,0,9,-67,9,-162c0,0,0,-166,-12,-500Z" 
id="f3_1e"
transform="scale(0.001,-0.001)" />

<path d="M216,0c0,0,-59,212,-83,350c0,0,-25,139,-25,198c0,0,0,76,23,127c0,0,-42,13,-58,43c0,0,-15,30,-15,72c0,0,0,40,20,74c0,0,20,34,37,34c0,0,10,0,10,-13c0,0,0,-42,69,-42c0,0,57,0,80,-21c0,0,22,-21,22,-62c0,0,0,-38,-7,-72c0,0,-6,-34,-12,-34c0,0,-6,0,-16,10c0,0,-10,10,-25,10c0,0,-25,0,-35,-24c0,0,-10,-24,-10,-71c0,0,0,-164,72,-374c0,0,38,80,116,231c0,0,87,168,121,238c0,0,-36,6,-52,34c0,0,-17,28,-17,66c0,0,0,41,21,82c0,0,20,42,37,42c0,0,9,0,10,-7c0,0,5,-22,13,-32c0,0,9,-11,32,-12l44,-4c0,0,87,-4,87,-94c0,0,0,-33,-7,-67c0,0,-8,-34,-16,-34l-16,10c0,0,-15,10,-30,10c0,0,-22,0,-39,-29c0,0,-18,-32,-39,-72c0,0,-21,-41,-178,-355H691l38,91c0,0,58,139,124,224c0,0,38,50,60,80c0,0,22,29,22,45c0,0,0,12,-7,19c0,0,-6,7,-27,12c0,0,-42,18,-60,41c0,0,-17,24,-17,59c0,0,0,29,11,56c0,0,12,27,27,43c0,0,16,16,26,16c0,0,9,-1,10,-6l4,-14c0,0,4,-21,27,-25l70,-13c0,0,32,-6,51,-30c0,0,20,-24,20,-61c0,0,-2,-45,-23,-87c0,0,-21,-41,-91,-127c0,0,-46,-57,-77,-116c0,0,-31,-59,-71,-161L706,0Z" 
id="f3_14"
transform="scale(0.001,-0.001)" />

<path d="M787,-20c0,0,-16,0,-25,16c0,0,-7,18,-31,51c0,0,-23,32,-53,62L293,522c0,0,-42,-34,-60,-62c0,0,-17,-28,-17,-68c0,0,0,-38,20,-77c0,0,21,-38,68,-90c0,0,48,-52,68,-88c0,0,20,-36,20,-68c0,0,0,-38,-22,-69H70V63h80c0,0,31,0,31,35c0,0,0,18,-14,41c0,0,-14,24,-31,53c0,0,-17,30,-30,68c0,0,-14,38,-14,87c0,0,0,59,33,109c0,0,34,50,103,98l21,16l-96,96c0,0,-24,24,-36,42c0,0,-12,19,-12,41c0,0,0,26,21,61c0,0,22,36,53,65c0,0,31,29,46,29c0,0,13,0,24,-15c0,0,21,-34,56,-78c0,0,34,-44,65,-77L570,517c0,0,72,100,180,158c0,0,-38,0,-60,33c0,0,-21,33,-21,95c0,0,0,38,18,66c0,0,19,29,40,29c0,0,5,0,6,-4c0,0,0,-4,0,-17c0,0,0,-34,46,-34l69,2c0,0,40,0,63,-26c0,0,22,-25,22,-67c0,0,0,-27,-5,-60c0,0,-6,-34,-14,-45c0,0,-15,15,-24,20c0,0,-9,5,-19,5c0,0,-35,0,-118,-65c0,0,-82,-64,-122,-158L833,259c0,0,49,-47,63,-71c0,0,13,-24,13,-50c0,0,0,-21,-24,-62C885,76,860,35,832,7c0,0,-29,-27,-45,-27Z" 
id="f3_16"
transform="scale(0.001,-0.001)" />

<path d="M204,-8c0,0,-9,0,-11,5c0,0,-2,5,-2,22V549c0,0,0,40,-4,56c0,0,-4,16,-15,22c0,0,-10,7,-39,7H90c0,0,-33,0,-52,33c0,0,-19,33,-19,90c0,0,0,53,15,98c0,0,16,44,35,44c0,0,12,0,12,-13V872c0,0,0,-27,31,-27h42c0,0,79,0,103,-20c0,0,23,-19,23,-83V67c0,0,0,-16,-8,-26c0,0,-9,-10,-33,-30c0,0,-25,-19,-35,-19Z" 
id="f3_3"
transform="scale(0.001,-0.001)" />

<path d="M107,-18c0,0,-17,0,-17,18l3,9c0,0,23,48,23,124l-1,177c0,0,0,55,8,77c0,0,9,22,33,46c0,0,23,23,51,40c0,0,28,17,42,17c0,0,5,0,9,-3c0,0,5,-3,5,-8c0,0,0,-3,-11,-26c0,0,-14,-49,-14,-120l4,-223c0,0,0,-38,-9,-54c0,0,-8,-17,-32,-34C201,22,178,6,150,-5c0,0,-28,-13,-43,-13Zm547,0c0,0,-17,0,-17,18l2,10c0,0,10,38,10,109c0,0,0,79,-14,208c0,0,-15,128,-15,149c0,0,0,54,16,89c0,0,15,36,53,69H154c0,0,-35,0,-57,40c0,0,-21,40,-21,103c0,0,0,33,8,61c0,0,7,28,19,44c0,0,13,17,24,17c0,0,15,0,15,-13V869c0,0,0,-13,5,-19c0,0,5,-5,22,-5H718c0,0,50,0,50,-63V652c0,0,0,-21,-15,-30c0,0,-35,-24,-35,-77c0,0,0,-57,20,-169c0,0,27,-157,27,-272c0,0,0,-29,-6,-44c0,0,-6,-15,-17,-26c0,0,-12,-16,-47,-35L681,-9l-13,-6l-14,-3Z" 
id="f3_6"
transform="scale(0.001,-0.001)" />

<path d="M145,-11c0,0,-11,0,-11,11l4,14c0,0,21,67,21,169c0,0,0,41,-6,115c0,0,-6,75,-6,128c0,0,0,61,8,96c0,0,8,35,27,69c0,0,19,34,51,73c0,0,-154,0,-154,108c0,0,0,35,9,62c0,0,8,27,23,45c0,0,14,19,25,19c0,0,17,0,17,-11V873c0,0,0,-28,36,-28h91c0,0,52,0,80,-33c0,0,28,-34,28,-96c0,0,0,-29,-5,-53c0,0,-6,-24,-12,-24c0,0,-6,0,-17,11c0,0,-15,17,-36,17c0,0,-20,0,-38,-20c0,0,-17,-19,-25,-62c0,0,-9,-43,-9,-92c0,0,0,-41,11,-190c0,0,12,-150,12,-187c0,0,0,-35,-15,-64c0,0,-10,-17,-53,-40c0,0,-43,-23,-56,-23Z" 
id="f3_1p"
transform="scale(0.001,-0.001)" />

<path d="M26,0V54L154,74V926L26,945v55H878V746H810L786,908c0,0,-83,10,-241,10H389V551H651l23,111h67V355H674L651,468H389V82H578c0,0,193,0,252,12l43,185h68L927,0Z" 
id="f3_1q"
transform="scale(0.001,-0.001)" />

<path d="M276,-14c0,0,-57,0,-125,13C151,-1,83,10,48,23V214H97l28,-98c0,0,26,-26,69,-44c0,0,42,-17,86,-17c0,0,65,0,97,28c0,0,32,28,32,71c0,0,0,41,-31,65c0,0,-30,25,-133,57c0,0,-108,34,-154,92c0,0,-45,58,-45,143c0,0,0,95,71,152c0,0,71,57,183,57c0,0,77,0,207,-22V518H457l-24,82c0,0,-21,22,-60,35c0,0,-40,14,-75,14c0,0,-53,0,-79,-22c0,0,-26,-22,-26,-59c0,0,0,-40,32,-65c0,0,32,-26,132,-55c0,0,109,-34,155,-89c0,0,45,-55,45,-137c0,0,0,-117,-72,-177c0,0,-72,-59,-209,-59Z" 
id="f3_p"
transform="scale(0.001,-0.001)" />

<path d="M159,-329c0,0,-61,0,-123,14v180H81l32,-94c0,0,21,-17,55,-17c0,0,28,0,50,13c0,0,21,14,40,39c0,0,20,25,37,62c0,0,17,37,50,110L64,634L15,652v49H374V652L290,632L455,244L602,634l-82,18v49H749V652L698,637L421,-44c0,0,-47,-121,-83,-176c0,0,-36,-55,-80,-82c0,0,-43,-27,-99,-27Z" 
id="f3_1g"
transform="scale(0.001,-0.001)" />

<path d="M430,68c0,0,29,0,60,8c0,0,32,8,54,21V630c0,0,-51,12,-114,12c0,0,-76,0,-112,-75c0,0,-37,-75,-37,-233c0,0,0,-134,35,-200c0,0,35,-66,114,-66Zm11,-393v50l103,18V-97c0,0,0,70,7,141c0,0,-73,-58,-182,-58c0,0,-156,0,-231,91c0,0,-75,92,-75,277c0,0,0,179,84,272c0,0,84,94,248,94c0,0,53,0,208,-18l89,33h67V-257l77,-18v-50Z" 
id="f3_1r"
transform="scale(0.001,-0.001)" />

<path d="M467,496c0,0,102,0,161,69c0,0,59,70,59,190c0,0,0,120,-59,190c0,0,-59,70,-161,70c0,0,-101,0,-160,-70c0,0,-60,-70,-60,-190c0,0,0,-120,60,-190c0,0,59,-69,160,-69ZM403,-20c0,0,-57,0,-115,11c0,0,-58,10,-121,32V160c0,0,57,-26,115,-40c0,0,58,-14,115,-14c0,0,149,0,228,100c0,0,79,100,90,305c0,0,-44,-65,-110,-99c0,0,-66,-35,-147,-35c0,0,-167,0,-265,102c0,0,-97,101,-97,276c0,0,0,172,101,275c0,0,102,104,270,104c0,0,194,0,295,-148c0,0,102,-148,102,-430c0,0,0,-263,-125,-420C739,136,614,-20,403,-20Z" 
id="f0_1g"
transform="scale(0.001,-0.001)" />

<path d="M32,0V34L151,52V649L52,668v33H275V52L395,34V0Zm71,835v24l146,203H408v-27L144,835Z" 
id="f2_y"
transform="scale(0.001,-0.001)" />


</defs>
</svg>