<?xml version="1.0" encoding="UTF-8" standalone="no"?>
<!DOCTYPE svg PUBLIC "-//W3C//DTD SVG 1.1//EN"
"http://www.w3.org/Graphics/SVG/1.1/DTD/svg11.dtd">
<svg viewBox="0 0 909 1286" version="1.1" xmlns="http://www.w3.org/2000/svg" xmlns:xlink="http://www.w3.org/1999/xlink">
<defs>
<clipPath id="c0_4"><path d="M0,1286.2V0H909.4V1286.2Z" /></clipPath>
<style type="text/css"><![CDATA[
.g0_4{
fill: #D8D8D8;
}
.g1_4{
fill: none;
stroke: #000000;
stroke-width: 0.7638889;
stroke-linecap: butt;
stroke-linejoin: round;
}
]]></style>
</defs>
<path fill-rule="evenodd" d="M229.6,256.3H338V193.4H229.6v62.9Z" class="g0_4" />
<path fill-rule="evenodd" d="M338.1,256.3H446.5V193.4H338.1v62.9Z" class="g0_4" />
<path fill-rule="evenodd" d="M446.6,256.3H555V193.4H446.6v62.9Z" class="g0_4" />
<path fill-rule="evenodd" d="M555,256.3H663.6V193.4H555v62.9Z" class="g0_4" />
<path fill-rule="evenodd" d="M663.7,256.3H771.9V193.4H663.7v62.9Z" class="g0_4" />
<path fill-rule="evenodd" d="M121.2,276.3H229.5V256.4H121.2v19.9Z" class="g0_4" />
<path fill-rule="evenodd" d="M121.2,296.5H229.5V276.4H121.2v20.1Z" class="g0_4" />
<path fill-rule="evenodd" d="M121.2,316.5H229.5v-20H121.2v20Z" class="g0_4" />
<path fill-rule="evenodd" d="M121.2,336.6H229.5v-20H121.2v20Z" class="g0_4" />
<path fill-rule="evenodd" d="M121.2,356.7H229.5v-20H121.2v20Z" class="g0_4" />
<path fill-rule="evenodd" d="M554.9,526.1h217V506h-217v20.1Z" class="g0_4" />
<path fill-rule="evenodd" d="M337.8,526.1h217V506h-217v20.1Z" class="g0_4" />
<path fill-rule="evenodd" d="M395.1,960.4H771.9V940.5H395.1v19.9Z" class="g0_4" />
<path fill-rule="evenodd" d="M120.5,960.4H395V940.5H120.5v19.9Z" class="g0_4" />
<path fill-rule="evenodd" d="M229.6,256.3H338V193.4H229.6v62.9Z" class="g0_4" />
<path fill-rule="evenodd" d="M338.1,256.3H446.5V193.4H338.1v62.9Z" class="g0_4" />
<path fill-rule="evenodd" d="M446.6,256.3H555V193.4H446.6v62.9Z" class="g0_4" />
<path fill-rule="evenodd" d="M555,256.3H663.6V193.4H555v62.9Z" class="g0_4" />
<path fill-rule="evenodd" d="M663.7,256.3H771.9V193.4H663.7v62.9Z" class="g0_4" />
<path fill-rule="evenodd" d="M121.2,276.3H229.5V256.4H121.2v19.9Z" class="g0_4" />
<path fill-rule="evenodd" d="M121.2,296.5H229.5V276.4H121.2v20.1Z" class="g0_4" />
<path fill-rule="evenodd" d="M121.2,316.5H229.5v-20H121.2v20Z" class="g0_4" />
<path fill-rule="evenodd" d="M121.2,336.6H229.5v-20H121.2v20Z" class="g0_4" />
<path fill-rule="evenodd" d="M121.2,356.7H229.5v-20H121.2v20Z" class="g0_4" />
<path fill-rule="evenodd" d="M554.9,526.1h217V506h-217v20.1Z" class="g0_4" />
<path fill-rule="evenodd" d="M337.8,526.1h217V506h-217v20.1Z" class="g0_4" />
<path fill-rule="evenodd" d="M395.1,960.4H771.9V940.5H395.1v19.9Z" class="g0_4" />
<path fill-rule="evenodd" d="M120.5,960.4H395V940.5H120.5v19.9Z" class="g0_4" />
<g clip-path="url(#c0_4)">
<g fill="#0000FF" >
<use xlink:href="#f0_v" transform="matrix(12,0,0,12,687,127.4)" />
<use xlink:href="#f0_6" transform="matrix(12,0,0,12,699.7,127.4)" />
<use xlink:href="#f0_4" transform="matrix(12,0,0,12,708.1,127.4)" />
<use xlink:href="#f0_d" transform="matrix(12,0,0,12,715.7,127.4)" />
<use xlink:href="#f0_m" transform="matrix(12,0,0,12,725.2,127.4)" />
<use xlink:href="#f0_6" transform="matrix(12,0,0,12,734.8,127.4)" />
<use xlink:href="#f0_4" transform="matrix(12,0,0,12,743.2,127.4)" />
<use xlink:href="#f0_5" transform="matrix(12,0,0,12,750.8,127.4)" />
<use xlink:href="#f0_3" transform="matrix(12,0,0,12,756.1,127.4)" />
<use xlink:href="#f0_4" transform="matrix(12,0,0,12,764.7,127.4)" />
</g>
<g fill="#000000" >
<use xlink:href="#f1_2" transform="matrix(13,0,0,13,137.7,188.7)" />
<use xlink:href="#f1_3" transform="matrix(13,0,0,13,152.8,188.7)" />
<use xlink:href="#f1_4" transform="matrix(13,0,0,13,160,188.7)" />
<use xlink:href="#f1_5" transform="matrix(13,0,0,13,172.6,188.7)" />
<use xlink:href="#f1_6" transform="matrix(13,0,0,13,183,188.7)" />
<use xlink:href="#f1_7" transform="matrix(13,0,0,13,195.1,188.7)" />
<use xlink:href="#f1_6" transform="matrix(13,0,0,13,202.6,188.7)" />
<use xlink:href="#f1_7" transform="matrix(13,0,0,13,214.6,188.7)" />
<use xlink:href="#f1_8" transform="matrix(13,0,0,13,222.1,188.7)" />
<use xlink:href="#f1_k" transform="matrix(13,0,0,13,242.6,188.7)" />
<use xlink:href="#f1_l" transform="matrix(13,0,0,13,263.2,188.7)" />
</g>
</g>
<path d="M229.2,193.8H772.4M120.8,256.7H772.4M120.8,276.8H772.4M120.8,296.9H772.4m-651.6,20H772.4M120.8,337.1H772.4m-651.6,20H772.4M121.2,256.4V357.5M229.6,193.4V357.5M338.1,193.4V357.5M446.6,193.4V357.5M555,193.4V357.5M663.7,193.4V357.5M772,193.4V357.5" class="g1_4" />
<g clip-path="url(#c0_4)">
<g fill="#000000" >
<use xlink:href="#f2_j" transform="matrix(12,0,0,12,282.9,211.3)" />
<use xlink:href="#f2_q" transform="matrix(12,0,0,12,290.4,211.3)" />
<use xlink:href="#f2_o" transform="matrix(12,0,0,12,294.5,211.3)" />
<use xlink:href="#f2_3" transform="matrix(12,0,0,12,307.5,211.3)" />
<use xlink:href="#f2_e" transform="matrix(12,0,0,12,319.4,211.3)" />
<use xlink:href="#f0_f" transform="matrix(11,0,0,11,264.3,231.3)" />
<use xlink:href="#f0_9" transform="matrix(11,0,0,11,271.8,231.3)" />
<use xlink:href="#f0_8" transform="matrix(11,0,0,11,280.2,231.3)" />
<use xlink:href="#f0_4" transform="matrix(11,0,0,11,288.6,231.3)" />
<use xlink:href="#f0_6" transform="matrix(11,0,0,11,295.1,231.3)" />
<use xlink:href="#f0_n" transform="matrix(11,0,0,11,302.6,231.3)" />
<use xlink:href="#f0_m" transform="matrix(11,0,0,11,311,231.3)" />
<use xlink:href="#f0_e" transform="matrix(11,0,0,11,319.2,231.3)" />
<use xlink:href="#f0_c" transform="matrix(11,0,0,11,324,231.3)" />
<use xlink:href="#f2_b" transform="matrix(12,0,0,12,403.9,211.3)" />
<use xlink:href="#f2_b" transform="matrix(12,0,0,12,416,211.3)" />
<use xlink:href="#f2_e" transform="matrix(12,0,0,12,428,211.3)" />
<use xlink:href="#f0_k" transform="matrix(11,0,0,11,416.8,231.3)" />
<use xlink:href="#f0_3" transform="matrix(11,0,0,11,425.2,231.3)" />
<use xlink:href="#f0_c" transform="matrix(11,0,0,11,432.6,231.3)" />
<use xlink:href="#f2_b" transform="matrix(12,0,0,12,503.1,211.3)" />
<use xlink:href="#f2_p" transform="matrix(12,0,0,12,515.1,211.3)" />
<use xlink:href="#f2_r" transform="matrix(12,0,0,12,526.6,211.3)" />
<use xlink:href="#f2_e" transform="matrix(12,0,0,12,536.5,211.3)" />
<use xlink:href="#f0_4" transform="matrix(11,0,0,11,511.3,231.3)" />
<use xlink:href="#f0_3" transform="matrix(11,0,0,11,517.8,231.3)" />
<use xlink:href="#f0_b" transform="matrix(11,0,0,11,525.2,231.3)" />
<use xlink:href="#f0_6" transform="matrix(11,0,0,11,533.6,231.3)" />
<use xlink:href="#f0_c" transform="matrix(11,0,0,11,541.1,231.3)" />
<use xlink:href="#f2_i" transform="matrix(12,0,0,12,605.5,211.3)" />
<use xlink:href="#f2_c" transform="matrix(12,0,0,12,617.5,211.3)" />
<use xlink:href="#f2_7" transform="matrix(12,0,0,12,622.5,211.3)" />
<use xlink:href="#f2_b" transform="matrix(12,0,0,12,632.9,211.3)" />
<use xlink:href="#f2_e" transform="matrix(12,0,0,12,645,211.3)" />
<use xlink:href="#f0_f" transform="matrix(11,0,0,11,589,231.3)" />
<use xlink:href="#f0_9" transform="matrix(11,0,0,11,596.4,231.3)" />
<use xlink:href="#f0_8" transform="matrix(11,0,0,11,604.8,231.3)" />
<use xlink:href="#f0_5" transform="matrix(11,0,0,11,613.2,231.3)" />
<use xlink:href="#f0_c" transform="matrix(11,0,0,11,617.8,231.3)" />
<use xlink:href="#f0_e" transform="matrix(11,0,0,11,623.4,231.3)" />
<use xlink:href="#f0_b" transform="matrix(11,0,0,11,628.2,231.3)" />
<use xlink:href="#f0_m" transform="matrix(11,0,0,11,636.6,231.3)" />
<use xlink:href="#f0_e" transform="matrix(11,0,0,11,645,231.3)" />
<use xlink:href="#f0_c" transform="matrix(11,0,0,11,649.6,231.3)" />
<use xlink:href="#f2_w" transform="matrix(12,0,0,12,722.8,211.3)" />
<use xlink:href="#f2_t" transform="matrix(12,0,0,12,728.9,211.3)" />
<use xlink:href="#f2_c" transform="matrix(12,0,0,12,733.8,211.3)" />
<use xlink:href="#f2_c" transform="matrix(12,0,0,12,738.8,211.3)" />
<use xlink:href="#f2_n" transform="matrix(12,0,0,12,743.8,211.3)" />
<use xlink:href="#f2_e" transform="matrix(12,0,0,12,753.5,211.3)" />
<use xlink:href="#f2_j" transform="matrix(12,0,0,12,710.7,232.7)" />
<use xlink:href="#f2_q" transform="matrix(12,0,0,12,718.2,232.7)" />
<use xlink:href="#f2_3" transform="matrix(12,0,0,12,722.3,232.7)" />
<use xlink:href="#f2_d" transform="matrix(12,0,0,12,734.2,232.7)" />
<use xlink:href="#f2_3" transform="matrix(12,0,0,12,741.6,232.7)" />
<use xlink:href="#f2_e" transform="matrix(12,0,0,12,753.5,232.7)" />
<use xlink:href="#f0_k" transform="matrix(11,0,0,11,721.7,252.7)" />
<use xlink:href="#f0_e" transform="matrix(11,0,0,11,730,252.7)" />
<use xlink:href="#f0_c" transform="matrix(11,0,0,11,734.7,252.7)" />
<use xlink:href="#f0_e" transform="matrix(11,0,0,11,740.3,252.7)" />
<use xlink:href="#f0_n" transform="matrix(11,0,0,11,745,252.7)" />
<use xlink:href="#f0_e" transform="matrix(11,0,0,11,753.3,252.7)" />
<use xlink:href="#f0_c" transform="matrix(11,0,0,11,758,252.7)" />
<use xlink:href="#f0_10" transform="matrix(10.5,0,0,10.5,129.9,272.1)" />
<use xlink:href="#f0_9" transform="matrix(10.5,0,0,10.5,137.9,272.1)" />
<use xlink:href="#f0_5" transform="matrix(10.5,0,0,10.5,129.9,292.1)" />
<use xlink:href="#f0_x" transform="matrix(10.5,0,0,10.5,134.3,292.1)" />
<use xlink:href="#f0_j" transform="matrix(10.5,0,0,10.5,129.9,312.3)" />
<use xlink:href="#f0_7" transform="matrix(10.5,0,0,10.5,137,312.3)" />
<use xlink:href="#f0_11" transform="matrix(10.5,0,0,10.5,141.5,312.3)" />
<use xlink:href="#f0_6" transform="matrix(10.5,0,0,10.5,145.9,312.3)" />
<use xlink:href="#f0_7" transform="matrix(10.5,0,0,10.5,153.1,312.3)" />
<use xlink:href="#f0_7" transform="matrix(10.5,0,0,10.5,157.5,312.3)" />
<use xlink:href="#f0_3" transform="matrix(10.5,0,0,10.5,161.9,312.3)" />
<use xlink:href="#f0_11" transform="matrix(10.5,0,0,10.5,169.1,312.3)" />
<use xlink:href="#f0_12" transform="matrix(10.5,0,0,10.5,173.5,312.3)" />
<use xlink:href="#f0_k" transform="matrix(10.5,0,0,10.5,185,312.3)" />
<use xlink:href="#f0_13" transform="matrix(10.5,0,0,10.5,193,312.3)" />
<use xlink:href="#f0_8" transform="matrix(10.5,0,0,10.5,129.9,332.3)" />
<use xlink:href="#f0_9" transform="matrix(10.5,0,0,10.5,137.9,332.3)" />
<use xlink:href="#f0_4" transform="matrix(10.5,0,0,10.5,145.9,332.3)" />
<use xlink:href="#f0_9" transform="matrix(10.5,0,0,10.5,152.1,332.3)" />
<use xlink:href="#f0_5" transform="matrix(10.5,0,0,10.5,160.2,332.3)" />
<use xlink:href="#f0_c" transform="matrix(10.5,0,0,10.5,164.6,332.3)" />
<use xlink:href="#f0_9" transform="matrix(10.5,0,0,10.5,169.8,332.3)" />
<use xlink:href="#f0_4" transform="matrix(10.5,0,0,10.5,177.9,332.3)" />
<use xlink:href="#f0_11" transform="matrix(10.5,0,0,10.5,184.2,332.3)" />
<use xlink:href="#f0_3" transform="matrix(10.5,0,0,10.5,188.6,332.3)" />
<use xlink:href="#f0_4" transform="matrix(10.5,0,0,10.5,195.8,332.3)" />
<use xlink:href="#f0_6" transform="matrix(10.5,0,0,10.5,129.9,352.5)" />
<use xlink:href="#f0_7" transform="matrix(10.5,0,0,10.5,137,352.5)" />
<use xlink:href="#f0_7" transform="matrix(10.5,0,0,10.5,141.5,352.5)" />
<use xlink:href="#f0_9" transform="matrix(10.5,0,0,10.5,145.9,352.5)" />
<use xlink:href="#f0_4" transform="matrix(10.5,0,0,10.5,154,352.5)" />
<use xlink:href="#f0_11" transform="matrix(10.5,0,0,10.5,160.2,352.5)" />
<use xlink:href="#f0_3" transform="matrix(10.5,0,0,10.5,164.5,352.5)" />
<use xlink:href="#f0_4" transform="matrix(10.5,0,0,10.5,171.7,352.5)" />
<use xlink:href="#f0_11" transform="matrix(10.5,0,0,10.5,177.9,352.5)" />
<use xlink:href="#f0_12" transform="matrix(10.5,0,0,10.5,182.3,352.5)" />
<use xlink:href="#f0_k" transform="matrix(10.5,0,0,10.5,193.9,352.5)" />
<use xlink:href="#f0_4" transform="matrix(10.5,0,0,10.5,201.9,352.5)" />
<use xlink:href="#f0_13" transform="matrix(10.5,0,0,10.5,208.1,352.5)" />
</g>
<g fill="#0000FF" >
<use xlink:href="#f0_v" transform="matrix(12,0,0,12,687,412.7)" />
<use xlink:href="#f0_6" transform="matrix(12,0,0,12,699.7,412.7)" />
<use xlink:href="#f0_4" transform="matrix(12,0,0,12,708.1,412.7)" />
<use xlink:href="#f0_d" transform="matrix(12,0,0,12,715.7,412.7)" />
<use xlink:href="#f0_m" transform="matrix(12,0,0,12,725.2,412.7)" />
<use xlink:href="#f0_6" transform="matrix(12,0,0,12,734.8,412.7)" />
<use xlink:href="#f0_4" transform="matrix(12,0,0,12,743.2,412.7)" />
<use xlink:href="#f0_5" transform="matrix(12,0,0,12,750.8,412.7)" />
<use xlink:href="#f0_3" transform="matrix(12,0,0,12,756.1,412.7)" />
<use xlink:href="#f0_4" transform="matrix(12,0,0,12,764.7,412.7)" />
</g>
<g fill="#000000" >
<use xlink:href="#f3_h" transform="matrix(12,0,0,12,717.9,458.6)" />
<use xlink:href="#f3_8" transform="matrix(12,0,0,12,729,458.6)" />
<use xlink:href="#f3_b" transform="matrix(12,0,0,12,741.2,458.6)" />
<use xlink:href="#f3_5" transform="matrix(12,0,0,12,747.5,458.6)" />
<use xlink:href="#f3_7" transform="matrix(12,0,0,12,759.5,458.6)" />
<use xlink:href="#f1_e" transform="matrix(13,0,0,13,651.9,458.6)" />
<use xlink:href="#f1_4" transform="matrix(13,0,0,13,661.1,458.6)" />
<use xlink:href="#f1_m" transform="matrix(13,0,0,13,673.7,458.6)" />
<use xlink:href="#f1_4" transform="matrix(13,0,0,13,688.1,458.6)" />
<use xlink:href="#f1_5" transform="matrix(13,0,0,13,700.7,458.6)" />
<use xlink:href="#f2_v" transform="matrix(12,0,0,12,554.1,501.3)" />
<use xlink:href="#f2_i" transform="matrix(12,0,0,12,560.2,501.3)" />
<use xlink:href="#f2_q" transform="matrix(12,0,0,12,572.4,501.3)" />
<use xlink:href="#f2_9" transform="matrix(12,0,0,12,576.5,501.3)" />
<use xlink:href="#f2_f" transform="matrix(12,0,0,12,588.7,501.3)" />
<use xlink:href="#f2_3" transform="matrix(12,0,0,12,599.3,501.3)" />
<use xlink:href="#f2_i" transform="matrix(12,0,0,12,617,501.3)" />
<use xlink:href="#f2_q" transform="matrix(12,0,0,12,629.2,501.3)" />
<use xlink:href="#f2_k" transform="matrix(12,0,0,12,633.2,501.3)" />
<use xlink:href="#f2_8" transform="matrix(12,0,0,12,645.1,501.3)" />
<use xlink:href="#f2_o" transform="matrix(12,0,0,12,656.5,501.3)" />
<use xlink:href="#f2_l" transform="matrix(12,0,0,12,669.5,501.3)" />
<use xlink:href="#f2_3" transform="matrix(12,0,0,12,682,501.3)" />
<use xlink:href="#f2_b" transform="matrix(12,0,0,12,699.8,501.3)" />
<use xlink:href="#f2_9" transform="matrix(12,0,0,12,711.8,501.3)" />
<use xlink:href="#f2_i" transform="matrix(12,0,0,12,730,501.3)" />
<use xlink:href="#f2_j" transform="matrix(12,0,0,12,742.2,501.3)" />
<use xlink:href="#f2_7" transform="matrix(12,0,0,12,749.7,501.3)" />
<use xlink:href="#f2_b" transform="matrix(12,0,0,12,759.9,501.3)" />
<use xlink:href="#f1_2" transform="matrix(13,0,0,13,410.7,501.3)" />
<use xlink:href="#f1_3" transform="matrix(13,0,0,13,425.8,501.3)" />
<use xlink:href="#f1_4" transform="matrix(13,0,0,13,433,501.3)" />
<use xlink:href="#f1_5" transform="matrix(13,0,0,13,445.6,501.3)" />
<use xlink:href="#f1_6" transform="matrix(13,0,0,13,456,501.3)" />
<use xlink:href="#f1_7" transform="matrix(13,0,0,13,468.1,501.3)" />
<use xlink:href="#f1_6" transform="matrix(13,0,0,13,475.6,501.3)" />
<use xlink:href="#f1_7" transform="matrix(13,0,0,13,487.6,501.3)" />
<use xlink:href="#f1_8" transform="matrix(13,0,0,13,495.1,501.3)" />
<use xlink:href="#f1_n" transform="matrix(13,0,0,13,515.4,501.3)" />
<use xlink:href="#f3_k" transform="matrix(12,0,0,12,396.8,501.3)" />
</g>
</g>
<path d="M337.4,506.4h435m-435,20.1h435m-435,22.2h435m-435,29.2h435M337.4,600h435m-435,20.2h435m-435,20h435m-435,29.5h435m-435,20h435m-435,20.2h435m-435,20h435m-435,20.2h435m-435,20h435M337.8,506V770.5M554.9,506V770.5M772,506V770.5" class="g1_4" />
<g clip-path="url(#c0_4)">
<g fill="#000000" >
<use xlink:href="#f0_1e" transform="matrix(11,0,0,11,636.5,522.5)" />
<use xlink:href="#f0_4" transform="matrix(11,0,0,11,646.7,522.5)" />
<use xlink:href="#f0_d" transform="matrix(11,0,0,11,653.3,522.5)" />
<use xlink:href="#f0_3" transform="matrix(11,0,0,11,661.7,522.5)" />
<use xlink:href="#f0_1b" transform="matrix(11,0,0,11,669.1,522.5)" />
<use xlink:href="#f0_9" transform="matrix(11,0,0,11,677.5,522.5)" />
<use xlink:href="#f0_7" transform="matrix(11,0,0,11,685.9,522.5)" />
<use xlink:href="#f0_a" transform="matrix(11,0,0,11,421.7,522.5)" />
<use xlink:href="#f0_6" transform="matrix(11,0,0,11,433.7,522.5)" />
<use xlink:href="#f0_b" transform="matrix(11,0,0,11,441.2,522.5)" />
<use xlink:href="#f0_c" transform="matrix(11,0,0,11,449.6,522.5)" />
<use xlink:href="#f0_6" transform="matrix(11,0,0,11,455.2,522.5)" />
<use xlink:href="#f0_9" transform="matrix(11,0,0,11,462.7,522.5)" />
<use xlink:href="#f2_m" transform="matrix(12,0,0,12,496.5,543.9)" />
<use xlink:href="#f2_q" transform="matrix(12,0,0,12,502.3,543.9)" />
<use xlink:href="#f2_e" transform="matrix(12,0,0,12,506.4,543.9)" />
<use xlink:href="#f2_i" transform="matrix(12,0,0,12,522.7,543.9)" />
<use xlink:href="#f2_h" transform="matrix(12,0,0,12,534.9,543.9)" />
<use xlink:href="#f3_r" transform="matrix(16,0,0,16,364.7,571.7)" />
<use xlink:href="#f3_f" transform="matrix(16,0,0,16,374,571.7)" />
<use xlink:href="#f3_g" transform="matrix(16,0,0,16,390.9,571.7)" />
<use xlink:href="#f3_l" transform="matrix(16,0,0,16,398.1,571.7)" />
<use xlink:href="#f3_8" transform="matrix(16,0,0,16,413.1,571.7)" />
<use xlink:href="#f3_4" transform="matrix(16,0,0,16,429.4,571.7)" />
<use xlink:href="#f3_f" transform="matrix(16,0,0,16,452.8,571.7)" />
<use xlink:href="#f3_j" transform="matrix(16,0,0,16,469.7,571.7)" />
<use xlink:href="#f3_s" transform="matrix(16,0,0,16,486.4,571.7)" />
<use xlink:href="#f3_t" transform="matrix(16,0,0,16,504.1,571.7)" />
<use xlink:href="#f3_f" transform="matrix(16,0,0,16,513,571.7)" />
<use xlink:href="#f3_7" transform="matrix(16,0,0,16,529.9,571.7)" />
<use xlink:href="#f2_m" transform="matrix(12,0,0,12,467.7,595.4)" />
<use xlink:href="#f2_e" transform="matrix(12,0,0,12,473.5,595.4)" />
<use xlink:href="#f2_4" transform="matrix(12,0,0,12,483.9,595.4)" />
<use xlink:href="#f2_l" transform="matrix(12,0,0,12,490.1,595.4)" />
<use xlink:href="#f2_c" transform="matrix(12,0,0,12,508.4,595.4)" />
<use xlink:href="#f2_e" transform="matrix(12,0,0,12,513.5,595.4)" />
<use xlink:href="#f2_o" transform="matrix(12,0,0,12,529.7,595.4)" />
<use xlink:href="#f2_q" transform="matrix(12,0,0,12,542.7,595.4)" />
<use xlink:href="#f0_1k" transform="matrix(11,0,0,11,563.8,616.2)" />
<use xlink:href="#f0_6" transform="matrix(11,0,0,11,574,616.2)" />
<use xlink:href="#f0_8" transform="matrix(11,0,0,11,581.4,616.2)" />
<use xlink:href="#f0_6" transform="matrix(11,0,0,11,589.8,616.2)" />
<use xlink:href="#f0_i" transform="matrix(11,0,0,11,597.2,616.2)" />
<use xlink:href="#f0_9" transform="matrix(11,0,0,11,610.3,616.2)" />
<use xlink:href="#f0_4" transform="matrix(11,0,0,11,618.7,616.2)" />
<use xlink:href="#f0_f" transform="matrix(11,0,0,11,629.5,616.2)" />
<use xlink:href="#f0_m" transform="matrix(11,0,0,11,636.9,616.2)" />
<use xlink:href="#f0_e" transform="matrix(11,0,0,11,645.3,616.2)" />
<use xlink:href="#f0_k" transform="matrix(11,0,0,11,650,616.2)" />
<use xlink:href="#f0_3" transform="matrix(11,0,0,11,658.4,616.2)" />
<use xlink:href="#f0_k" transform="matrix(11,0,0,11,665.8,616.2)" />
<use xlink:href="#f0_9" transform="matrix(11,0,0,11,674.2,616.2)" />
<use xlink:href="#f0_13" transform="matrix(11,0,0,11,682.5,616.2)" />
<use xlink:href="#f0_12" transform="matrix(11,0,0,11,563.8,636.2)" />
<use xlink:href="#f0_k" transform="matrix(11,0,0,11,575.8,636.2)" />
<use xlink:href="#f0_4" transform="matrix(11,0,0,11,584.2,636.2)" />
<use xlink:href="#f0_13" transform="matrix(11,0,0,11,590.8,636.2)" />
<use xlink:href="#f0_5" transform="matrix(11,0,0,11,599.2,636.2)" />
<use xlink:href="#f0_e" transform="matrix(11,0,0,11,603.9,636.2)" />
<use xlink:href="#f0_6" transform="matrix(11,0,0,11,608.5,636.2)" />
<use xlink:href="#f0_8" transform="matrix(11,0,0,11,615.9,636.2)" />
<use xlink:href="#f0_6" transform="matrix(11,0,0,11,624.3,636.2)" />
<use xlink:href="#f0_8" transform="matrix(11,0,0,11,631.8,636.2)" />
<use xlink:href="#f0_4" transform="matrix(11,0,0,11,644.3,636.2)" />
<use xlink:href="#f0_6" transform="matrix(11,0,0,11,650.9,636.2)" />
<use xlink:href="#f0_k" transform="matrix(11,0,0,11,658.3,636.2)" />
<use xlink:href="#f0_13" transform="matrix(11,0,0,11,666.7,636.2)" />
<use xlink:href="#f4_l" transform="matrix(16,0,0,16,628.5,663.5)" />
<use xlink:href="#f4_g" transform="matrix(16,0,0,16,644.9,663.5)" />
<use xlink:href="#f4_2" transform="matrix(16,0,0,16,655.7,663.5)" />
<use xlink:href="#f4_j" transform="matrix(16,0,0,16,669.3,663.5)" />
<use xlink:href="#f4_4" transform="matrix(16,0,0,16,681.5,663.5)" />
<use xlink:href="#f4_6" transform="matrix(16,0,0,16,699.8,663.5)" />
<use xlink:href="#f4_b" transform="matrix(16,0,0,16,720.1,663.5)" />
<use xlink:href="#f4_g" transform="matrix(16,0,0,16,726.9,663.5)" />
<use xlink:href="#f4_9" transform="matrix(16,0,0,16,737.7,663.5)" />
<use xlink:href="#f4_4" transform="matrix(16,0,0,16,751.3,663.5)" />
<use xlink:href="#f3_r" transform="matrix(16,0,0,16,619.4,663.5)" />
<use xlink:href="#f0_12" transform="matrix(11,0,0,11,563.8,685.7)" />
<use xlink:href="#f0_k" transform="matrix(11,0,0,11,575.8,685.7)" />
<use xlink:href="#f0_13" transform="matrix(11,0,0,11,584.2,685.7)" />
<use xlink:href="#f0_5" transform="matrix(11,0,0,11,592.6,685.7)" />
<use xlink:href="#f0_e" transform="matrix(11,0,0,11,597.3,685.7)" />
<use xlink:href="#f0_6" transform="matrix(11,0,0,11,601.9,685.7)" />
<use xlink:href="#f0_8" transform="matrix(11,0,0,11,609.4,685.7)" />
<use xlink:href="#f0_6" transform="matrix(11,0,0,11,617.8,685.7)" />
<use xlink:href="#f0_c" transform="matrix(11,0,0,11,629.5,685.7)" />
<use xlink:href="#f0_3" transform="matrix(11,0,0,11,635,685.7)" />
<use xlink:href="#f0_t" transform="matrix(11,0,0,11,642.5,685.7)" />
<use xlink:href="#f0_g" transform="matrix(11,0,0,11,649.9,685.7)" />
<use xlink:href="#f0_8" transform="matrix(11,0,0,11,658.3,685.7)" />
<use xlink:href="#f0_13" transform="matrix(11,0,0,11,666.6,685.7)" />
<use xlink:href="#f0_1k" transform="matrix(11,0,0,11,563.8,705.8)" />
<use xlink:href="#f0_6" transform="matrix(11,0,0,11,574,705.8)" />
<use xlink:href="#f0_8" transform="matrix(11,0,0,11,581.4,705.8)" />
<use xlink:href="#f0_n" transform="matrix(11,0,0,11,589.8,705.8)" />
<use xlink:href="#f0_9" transform="matrix(11,0,0,11,598.3,705.8)" />
<use xlink:href="#f0_7" transform="matrix(11,0,0,11,610.8,705.8)" />
<use xlink:href="#f0_3" transform="matrix(11,0,0,11,615.5,705.8)" />
<use xlink:href="#f0_f" transform="matrix(11,0,0,11,627.1,705.8)" />
<use xlink:href="#f0_9" transform="matrix(11,0,0,11,634.5,705.8)" />
<use xlink:href="#f0_4" transform="matrix(11,0,0,11,642.9,705.8)" />
<use xlink:href="#f0_5" transform="matrix(11,0,0,11,649.4,705.8)" />
<use xlink:href="#f0_m" transform="matrix(11,0,0,11,654.1,705.8)" />
<use xlink:href="#f0_i" transform="matrix(11,0,0,11,662.5,705.8)" />
<use xlink:href="#f0_b" transform="matrix(11,0,0,11,675.6,705.8)" />
<use xlink:href="#f0_c" transform="matrix(11,0,0,11,684,705.8)" />
<use xlink:href="#f0_6" transform="matrix(11,0,0,11,689.6,705.8)" />
<use xlink:href="#f0_k" transform="matrix(11,0,0,11,701.2,705.8)" />
<use xlink:href="#f0_6" transform="matrix(11,0,0,11,709.6,705.8)" />
<use xlink:href="#f0_b" transform="matrix(11,0,0,11,721.2,705.8)" />
<use xlink:href="#f0_6" transform="matrix(11,0,0,11,729.6,705.8)" />
<use xlink:href="#f0_b" transform="matrix(11,0,0,11,737.1,705.8)" />
<use xlink:href="#f0_6" transform="matrix(11,0,0,11,745.5,705.8)" />
<use xlink:href="#f0_c" transform="matrix(11,0,0,11,752.9,705.8)" />
<use xlink:href="#f0_13" transform="matrix(11,0,0,11,758.4,705.8)" />
<use xlink:href="#f0_1e" transform="matrix(11,0,0,11,563.8,725.8)" />
<use xlink:href="#f0_7" transform="matrix(11,0,0,11,574,725.8)" />
<use xlink:href="#f0_7" transform="matrix(11,0,0,11,578.6,725.8)" />
<use xlink:href="#f0_3" transform="matrix(11,0,0,11,583.3,725.8)" />
<use xlink:href="#f0_5" transform="matrix(11,0,0,11,594.9,725.8)" />
<use xlink:href="#f0_e" transform="matrix(11,0,0,11,599.6,725.8)" />
<use xlink:href="#f0_6" transform="matrix(11,0,0,11,604.2,725.8)" />
<use xlink:href="#f0_8" transform="matrix(11,0,0,11,611.6,725.8)" />
<use xlink:href="#f0_6" transform="matrix(11,0,0,11,620,725.8)" />
<use xlink:href="#f0_j" transform="matrix(11,0,0,11,631.8,725.8)" />
<use xlink:href="#f0_1j" transform="matrix(11,0,0,11,639.2,725.8)" />
<use xlink:href="#f0_e" transform="matrix(11,0,0,11,647.5,725.8)" />
<use xlink:href="#f0_5" transform="matrix(11,0,0,11,652.2,725.8)" />
<use xlink:href="#f0_9" transform="matrix(11,0,0,11,656.9,725.8)" />
<use xlink:href="#f0_13" transform="matrix(11,0,0,11,665.2,725.8)" />
<use xlink:href="#f0_1k" transform="matrix(11,0,0,11,563.8,746)" />
<use xlink:href="#f0_6" transform="matrix(11,0,0,11,574,746)" />
<use xlink:href="#f0_8" transform="matrix(11,0,0,11,581.4,746)" />
<use xlink:href="#f0_6" transform="matrix(11,0,0,11,589.8,746)" />
<use xlink:href="#f0_i" transform="matrix(11,0,0,11,597.2,746)" />
<use xlink:href="#f0_9" transform="matrix(11,0,0,11,610.3,746)" />
<use xlink:href="#f0_4" transform="matrix(11,0,0,11,618.7,746)" />
<use xlink:href="#f0_l" transform="matrix(11,0,0,11,629.5,746)" />
<use xlink:href="#f0_m" transform="matrix(11,0,0,11,637.9,746)" />
<use xlink:href="#f0_6" transform="matrix(11,0,0,11,646.2,746)" />
<use xlink:href="#f0_f" transform="matrix(11,0,0,11,657.9,746)" />
<use xlink:href="#f0_9" transform="matrix(11,0,0,11,665.4,746)" />
<use xlink:href="#f0_i" transform="matrix(11,0,0,11,673.6,746)" />
<use xlink:href="#f0_6" transform="matrix(11,0,0,11,686.7,746)" />
<use xlink:href="#f0_c" transform="matrix(11,0,0,11,694.2,746)" />
<use xlink:href="#f0_13" transform="matrix(11,0,0,11,699.7,746)" />
<use xlink:href="#f0_1k" transform="matrix(11,0,0,11,563.8,766)" />
<use xlink:href="#f0_6" transform="matrix(11,0,0,11,574,766)" />
<use xlink:href="#f0_8" transform="matrix(11,0,0,11,581.4,766)" />
<use xlink:href="#f0_n" transform="matrix(11,0,0,11,589.8,766)" />
<use xlink:href="#f0_9" transform="matrix(11,0,0,11,598.3,766)" />
<use xlink:href="#f0_n" transform="matrix(11,0,0,11,610.8,766)" />
<use xlink:href="#f0_3" transform="matrix(11,0,0,11,619.2,766)" />
<use xlink:href="#f0_8" transform="matrix(11,0,0,11,626.6,766)" />
<use xlink:href="#f0_3" transform="matrix(11,0,0,11,635,766)" />
<use xlink:href="#f0_4" transform="matrix(11,0,0,11,642.5,766)" />
<use xlink:href="#f0_k" transform="matrix(11,0,0,11,653.2,766)" />
<use xlink:href="#f0_6" transform="matrix(11,0,0,11,661.6,766)" />
<use xlink:href="#f0_i" transform="matrix(11,0,0,11,673.3,766)" />
<use xlink:href="#f0_3" transform="matrix(11,0,0,11,686.3,766)" />
<use xlink:href="#f0_8" transform="matrix(11,0,0,11,693.8,766)" />
<use xlink:href="#f0_6" transform="matrix(11,0,0,11,702.2,766)" />
<use xlink:href="#f0_u" transform="matrix(11,0,0,11,709.5,766)" />
<use xlink:href="#f0_3" transform="matrix(11,0,0,11,714.2,766)" />
<use xlink:href="#f0_c" transform="matrix(11,0,0,11,721.7,766)" />
<use xlink:href="#f0_13" transform="matrix(11,0,0,11,727.2,766)" />
</g>
<g fill="#0000FF" >
<use xlink:href="#f0_v" transform="matrix(12,0,0,12,687,806.2)" />
<use xlink:href="#f0_6" transform="matrix(12,0,0,12,699.7,806.2)" />
<use xlink:href="#f0_4" transform="matrix(12,0,0,12,708.1,806.2)" />
<use xlink:href="#f0_d" transform="matrix(12,0,0,12,715.7,806.2)" />
<use xlink:href="#f0_m" transform="matrix(12,0,0,12,725.2,806.2)" />
<use xlink:href="#f0_6" transform="matrix(12,0,0,12,734.8,806.2)" />
<use xlink:href="#f0_4" transform="matrix(12,0,0,12,743.2,806.2)" />
<use xlink:href="#f0_5" transform="matrix(12,0,0,12,750.8,806.2)" />
<use xlink:href="#f0_3" transform="matrix(12,0,0,12,756.1,806.2)" />
<use xlink:href="#f0_4" transform="matrix(12,0,0,12,764.7,806.2)" />
</g>
<g fill="#000000" >
<use xlink:href="#f3_u" transform="matrix(12,0,0,12,699.6,850.7)" />
<use xlink:href="#f3_h" transform="matrix(12,0,0,12,710.1,850.7)" />
<use xlink:href="#f3_q" transform="matrix(12,0,0,12,721.2,850.7)" />
<use xlink:href="#f3_t" transform="matrix(12,0,0,12,735.1,850.7)" />
<use xlink:href="#f3_g" transform="matrix(12,0,0,12,741.8,850.7)" />
<use xlink:href="#f3_h" transform="matrix(12,0,0,12,747.2,850.7)" />
<use xlink:href="#f3_q" transform="matrix(12,0,0,12,758.2,850.7)" />
<use xlink:href="#f2_v" transform="matrix(12,0,0,12,668.8,872.1)" />
<use xlink:href="#f2_3" transform="matrix(12,0,0,12,674.9,872.1)" />
<use xlink:href="#f2_k" transform="matrix(12,0,0,12,686.9,872.1)" />
<use xlink:href="#f2_c" transform="matrix(12,0,0,12,698.6,872.1)" />
<use xlink:href="#f2_o" transform="matrix(12,0,0,12,703.7,872.1)" />
<use xlink:href="#f2_8" transform="matrix(12,0,0,12,716.6,872.1)" />
<use xlink:href="#f2_3" transform="matrix(12,0,0,12,734,872.1)" />
<use xlink:href="#f2_7" transform="matrix(12,0,0,12,745.9,872.1)" />
<use xlink:href="#f2_c" transform="matrix(12,0,0,12,756.2,872.1)" />
<use xlink:href="#f2_s" transform="matrix(12,0,0,12,761.2,872.1)" />
<use xlink:href="#f0_i" transform="matrix(11,0,0,11,362.8,872.1)" />
<use xlink:href="#f0_e" transform="matrix(11,0,0,11,375.8,872.1)" />
<use xlink:href="#f0_11" transform="matrix(11,0,0,11,380.6,872.1)" />
<use xlink:href="#f0_i" transform="matrix(11,0,0,11,385.1,872.1)" />
<use xlink:href="#f0_e" transform="matrix(11,0,0,11,398.3,872.1)" />
<use xlink:href="#f0_4" transform="matrix(11,0,0,11,403,872.1)" />
<use xlink:href="#f0_z" transform="matrix(11,0,0,11,409.4,872.1)" />
<use xlink:href="#f0_5" transform="matrix(11,0,0,11,418,872.1)" />
<use xlink:href="#f0_m" transform="matrix(11,0,0,11,422.5,872.1)" />
<use xlink:href="#f0_11" transform="matrix(11,0,0,11,430.9,872.1)" />
<use xlink:href="#f0_5" transform="matrix(11,0,0,11,435.5,872.1)" />
<use xlink:href="#f0_m" transform="matrix(11,0,0,11,440.3,872.1)" />
<use xlink:href="#f0_4" transform="matrix(11,0,0,11,448.7,872.1)" />
<use xlink:href="#f0_z" transform="matrix(11,0,0,11,455.2,872.1)" />
<use xlink:href="#f0_4" transform="matrix(11,0,0,11,463.6,872.1)" />
<use xlink:href="#f0_m" transform="matrix(11,0,0,11,470.2,872.1)" />
<use xlink:href="#f0_11" transform="matrix(11,0,0,11,478.6,872.1)" />
<use xlink:href="#f0_4" transform="matrix(11,0,0,11,483.1,872.1)" />
<use xlink:href="#f0_m" transform="matrix(11,0,0,11,489.7,872.1)" />
<use xlink:href="#f0_4" transform="matrix(11,0,0,11,498.1,872.1)" />
<use xlink:href="#f0_z" transform="matrix(11,0,0,11,504.7,872.1)" />
<use xlink:href="#f0_8" transform="matrix(11,0,0,11,513,872.1)" />
<use xlink:href="#f0_m" transform="matrix(11,0,0,11,521.4,872.1)" />
<use xlink:href="#f0_6" transform="matrix(11,0,0,11,529.8,872.1)" />
<use xlink:href="#f0_4" transform="matrix(11,0,0,11,537.3,872.1)" />
<use xlink:href="#f0_5" transform="matrix(11,0,0,11,543.7,872.1)" />
<use xlink:href="#f0_c" transform="matrix(11,0,0,11,548.4,872.1)" />
<use xlink:href="#f0_9" transform="matrix(11,0,0,11,554.1,872.1)" />
<use xlink:href="#f0_11" transform="matrix(11,0,0,11,562.5,872.1)" />
<use xlink:href="#f0_3" transform="matrix(11,0,0,11,567.2,872.1)" />
<use xlink:href="#f0_11" transform="matrix(11,0,0,11,574.5,872.1)" />
<use xlink:href="#f0_9" transform="matrix(11,0,0,11,579.3,872.1)" />
<use xlink:href="#f0_4" transform="matrix(11,0,0,11,587.7,872.1)" />
<use xlink:href="#f0_11" transform="matrix(11,0,0,11,594.2,872.1)" />
<use xlink:href="#f0_3" transform="matrix(11,0,0,11,598.8,872.1)" />
<use xlink:href="#f0_4" transform="matrix(11,0,0,11,606.3,872.1)" />
<use xlink:href="#f0_z" transform="matrix(11,0,0,11,612.8,872.1)" />
<use xlink:href="#f0_4" transform="matrix(11,0,0,11,621.2,872.1)" />
<use xlink:href="#f0_m" transform="matrix(11,0,0,11,627.8,872.1)" />
<use xlink:href="#f0_11" transform="matrix(11,0,0,11,636.2,872.1)" />
<use xlink:href="#f0_4" transform="matrix(11,0,0,11,640.7,872.1)" />
<use xlink:href="#f0_m" transform="matrix(11,0,0,11,647.3,872.1)" />
<use xlink:href="#f0_4" transform="matrix(11,0,0,11,655.7,872.1)" />
<use xlink:href="#f2_m" transform="matrix(12,0,0,12,357.2,872.1)" />
<use xlink:href="#f2_v" transform="matrix(12,0,0,12,662,893.4)" />
<use xlink:href="#f2_b" transform="matrix(12,0,0,12,668.1,893.4)" />
<use xlink:href="#f2_f" transform="matrix(12,0,0,12,680.1,893.4)" />
<use xlink:href="#f2_n" transform="matrix(12,0,0,12,690.7,893.4)" />
<use xlink:href="#f2_7" transform="matrix(12,0,0,12,700.3,893.4)" />
<use xlink:href="#f2_c" transform="matrix(12,0,0,12,710.7,893.4)" />
<use xlink:href="#f2_l" transform="matrix(12,0,0,12,715.6,893.4)" />
<use xlink:href="#f2_3" transform="matrix(12,0,0,12,734,893.4)" />
<use xlink:href="#f2_7" transform="matrix(12,0,0,12,745.9,893.4)" />
<use xlink:href="#f2_c" transform="matrix(12,0,0,12,756.2,893.4)" />
<use xlink:href="#f2_s" transform="matrix(12,0,0,12,761.2,893.4)" />
<use xlink:href="#f0_i" transform="matrix(11,0,0,11,206.9,893.4)" />
<use xlink:href="#f0_p" transform="matrix(11,0,0,11,219.9,893.4)" />
<use xlink:href="#f0_9" transform="matrix(11,0,0,11,224.6,893.4)" />
<use xlink:href="#f0_11" transform="matrix(11,0,0,11,233,893.4)" />
<use xlink:href="#f0_3" transform="matrix(11,0,0,11,237.6,893.4)" />
<use xlink:href="#f0_11" transform="matrix(11,0,0,11,245,893.4)" />
<use xlink:href="#f0_9" transform="matrix(11,0,0,11,249.7,893.4)" />
<use xlink:href="#f0_4" transform="matrix(11,0,0,11,258.2,893.4)" />
<use xlink:href="#f0_11" transform="matrix(11,0,0,11,264.6,893.4)" />
<use xlink:href="#f0_3" transform="matrix(11,0,0,11,269.3,893.4)" />
<use xlink:href="#f0_4" transform="matrix(11,0,0,11,276.8,893.4)" />
<use xlink:href="#f0_z" transform="matrix(11,0,0,11,283.3,893.4)" />
<use xlink:href="#f0_5" transform="matrix(11,0,0,11,291.7,893.4)" />
<use xlink:href="#f0_m" transform="matrix(11,0,0,11,296.4,893.4)" />
<use xlink:href="#f0_10" transform="matrix(11,0,0,11,304.8,893.4)" />
<use xlink:href="#f0_9" transform="matrix(11,0,0,11,313.2,893.4)" />
<use xlink:href="#f0_11" transform="matrix(11,0,0,11,321.5,893.4)" />
<use xlink:href="#f0_3" transform="matrix(11,0,0,11,326.2,893.4)" />
<use xlink:href="#f0_11" transform="matrix(11,0,0,11,333.7,893.4)" />
<use xlink:href="#f0_9" transform="matrix(11,0,0,11,338.4,893.4)" />
<use xlink:href="#f0_4" transform="matrix(11,0,0,11,346.6,893.4)" />
<use xlink:href="#f0_11" transform="matrix(11,0,0,11,353.2,893.4)" />
<use xlink:href="#f0_3" transform="matrix(11,0,0,11,357.9,893.4)" />
<use xlink:href="#f0_4" transform="matrix(11,0,0,11,365.4,893.4)" />
<use xlink:href="#f0_z" transform="matrix(11,0,0,11,371.8,893.4)" />
<use xlink:href="#f0_4" transform="matrix(11,0,0,11,380.3,893.4)" />
<use xlink:href="#f0_m" transform="matrix(11,0,0,11,386.9,893.4)" />
<use xlink:href="#f0_10" transform="matrix(11,0,0,11,395.3,893.4)" />
<use xlink:href="#f0_9" transform="matrix(11,0,0,11,403.7,893.4)" />
<use xlink:href="#f0_11" transform="matrix(11,0,0,11,411.9,893.4)" />
<use xlink:href="#f0_3" transform="matrix(11,0,0,11,416.7,893.4)" />
<use xlink:href="#f0_11" transform="matrix(11,0,0,11,424.1,893.4)" />
<use xlink:href="#f0_9" transform="matrix(11,0,0,11,428.8,893.4)" />
<use xlink:href="#f0_4" transform="matrix(11,0,0,11,437.1,893.4)" />
<use xlink:href="#f0_11" transform="matrix(11,0,0,11,443.7,893.4)" />
<use xlink:href="#f0_3" transform="matrix(11,0,0,11,448.4,893.4)" />
<use xlink:href="#f0_4" transform="matrix(11,0,0,11,455.8,893.4)" />
<use xlink:href="#f0_z" transform="matrix(11,0,0,11,462.3,893.4)" />
<use xlink:href="#f0_8" transform="matrix(11,0,0,11,470.8,893.4)" />
<use xlink:href="#f0_m" transform="matrix(11,0,0,11,479.2,893.4)" />
<use xlink:href="#f0_6" transform="matrix(11,0,0,11,487.4,893.4)" />
<use xlink:href="#f0_4" transform="matrix(11,0,0,11,494.9,893.4)" />
<use xlink:href="#f0_5" transform="matrix(11,0,0,11,501.5,893.4)" />
<use xlink:href="#f0_c" transform="matrix(11,0,0,11,506.2,893.4)" />
<use xlink:href="#f0_9" transform="matrix(11,0,0,11,511.8,893.4)" />
<use xlink:href="#f0_11" transform="matrix(11,0,0,11,520.1,893.4)" />
<use xlink:href="#f0_3" transform="matrix(11,0,0,11,524.8,893.4)" />
<use xlink:href="#f0_11" transform="matrix(11,0,0,11,532.3,893.4)" />
<use xlink:href="#f0_9" transform="matrix(11,0,0,11,537,893.4)" />
<use xlink:href="#f0_4" transform="matrix(11,0,0,11,545.2,893.4)" />
<use xlink:href="#f0_11" transform="matrix(11,0,0,11,551.8,893.4)" />
<use xlink:href="#f0_3" transform="matrix(11,0,0,11,556.5,893.4)" />
<use xlink:href="#f0_4" transform="matrix(11,0,0,11,564,893.4)" />
<use xlink:href="#f0_z" transform="matrix(11,0,0,11,570.4,893.4)" />
<use xlink:href="#f0_4" transform="matrix(11,0,0,11,578.9,893.4)" />
<use xlink:href="#f0_m" transform="matrix(11,0,0,11,585.3,893.4)" />
<use xlink:href="#f0_10" transform="matrix(11,0,0,11,593.7,893.4)" />
<use xlink:href="#f0_9" transform="matrix(11,0,0,11,602.1,893.4)" />
<use xlink:href="#f0_11" transform="matrix(11,0,0,11,610.5,893.4)" />
<use xlink:href="#f0_3" transform="matrix(11,0,0,11,615.3,893.4)" />
<use xlink:href="#f0_11" transform="matrix(11,0,0,11,622.6,893.4)" />
<use xlink:href="#f0_9" transform="matrix(11,0,0,11,627.3,893.4)" />
<use xlink:href="#f0_4" transform="matrix(11,0,0,11,635.7,893.4)" />
<use xlink:href="#f0_11" transform="matrix(11,0,0,11,642.3,893.4)" />
<use xlink:href="#f0_3" transform="matrix(11,0,0,11,647,893.4)" />
<use xlink:href="#f0_4" transform="matrix(11,0,0,11,654.5,893.4)" />
<use xlink:href="#f2_m" transform="matrix(12,0,0,12,201.2,893.4)" />
<use xlink:href="#f2_v" transform="matrix(12,0,0,12,554.1,935.8)" />
<use xlink:href="#f2_i" transform="matrix(12,0,0,12,560.2,935.8)" />
<use xlink:href="#f2_q" transform="matrix(12,0,0,12,572.4,935.8)" />
<use xlink:href="#f2_9" transform="matrix(12,0,0,12,576.5,935.8)" />
<use xlink:href="#f2_f" transform="matrix(12,0,0,12,588.8,935.8)" />
<use xlink:href="#f2_3" transform="matrix(12,0,0,12,599.3,935.8)" />
<use xlink:href="#f2_i" transform="matrix(12,0,0,12,617,935.8)" />
<use xlink:href="#f2_q" transform="matrix(12,0,0,12,629.2,935.8)" />
<use xlink:href="#f2_k" transform="matrix(12,0,0,12,633.2,935.8)" />
<use xlink:href="#f2_8" transform="matrix(12,0,0,12,645.1,935.8)" />
<use xlink:href="#f2_o" transform="matrix(12,0,0,12,656.6,935.8)" />
<use xlink:href="#f2_l" transform="matrix(12,0,0,12,669.5,935.8)" />
<use xlink:href="#f2_3" transform="matrix(12,0,0,12,682,935.8)" />
<use xlink:href="#f2_b" transform="matrix(12,0,0,12,699.8,935.8)" />
<use xlink:href="#f2_9" transform="matrix(12,0,0,12,711.8,935.8)" />
<use xlink:href="#f2_i" transform="matrix(12,0,0,12,730,935.8)" />
<use xlink:href="#f2_j" transform="matrix(12,0,0,12,742.2,935.8)" />
<use xlink:href="#f2_7" transform="matrix(12,0,0,12,749.7,935.8)" />
<use xlink:href="#f2_b" transform="matrix(12,0,0,12,759.9,935.8)" />
<use xlink:href="#f1_2" transform="matrix(13,0,0,13,409.4,935.8)" />
<use xlink:href="#f1_3" transform="matrix(13,0,0,13,424.6,935.8)" />
<use xlink:href="#f1_4" transform="matrix(13,0,0,13,431.7,935.8)" />
<use xlink:href="#f1_5" transform="matrix(13,0,0,13,444.4,935.8)" />
<use xlink:href="#f1_6" transform="matrix(13,0,0,13,454.8,935.8)" />
<use xlink:href="#f1_7" transform="matrix(13,0,0,13,466.9,935.8)" />
<use xlink:href="#f1_6" transform="matrix(13,0,0,13,474.4,935.8)" />
<use xlink:href="#f1_7" transform="matrix(13,0,0,13,486.4,935.8)" />
<use xlink:href="#f1_8" transform="matrix(13,0,0,13,493.9,935.8)" />
<use xlink:href="#f1_a" transform="matrix(13,0,0,13,514.4,935.8)" />
<use xlink:href="#f1_o" transform="matrix(13,0,0,13,528.1,935.8)" />
<use xlink:href="#f3_k" transform="matrix(12,0,0,12,395.5,935.8)" />
</g>
</g>
<path d="M120.2,940.9H772.4m-652.2,20H772.4M120.2,983H772.4m-652.2,22.2H772.4m-652.2,22.2H772.4m-652.2,22.1H772.4m-652.2,22.2H772.4m-652.2,22.1H772.4M120.2,1116H772.4m-652.2,43.5H772.4M120.5,940.5v219.4M395.1,940.5v219.4M772,940.5v219.4" class="g1_4" />
<g clip-path="url(#c0_4)">
<g fill="#000000" >
<use xlink:href="#f0_1e" transform="matrix(11,0,0,11,556.6,956.8)" />
<use xlink:href="#f0_4" transform="matrix(11,0,0,11,566.8,956.8)" />
<use xlink:href="#f0_d" transform="matrix(11,0,0,11,573.4,956.8)" />
<use xlink:href="#f0_3" transform="matrix(11,0,0,11,581.8,956.8)" />
<use xlink:href="#f0_1b" transform="matrix(11,0,0,11,589.2,956.8)" />
<use xlink:href="#f0_9" transform="matrix(11,0,0,11,597.6,956.8)" />
<use xlink:href="#f0_7" transform="matrix(11,0,0,11,606,956.8)" />
<use xlink:href="#f0_a" transform="matrix(11,0,0,11,233.1,956.8)" />
<use xlink:href="#f0_6" transform="matrix(11,0,0,11,245.2,956.8)" />
<use xlink:href="#f0_b" transform="matrix(11,0,0,11,252.7,956.8)" />
<use xlink:href="#f0_c" transform="matrix(11,0,0,11,261.1,956.8)" />
<use xlink:href="#f0_6" transform="matrix(11,0,0,11,266.7,956.8)" />
<use xlink:href="#f0_9" transform="matrix(11,0,0,11,274.2,956.8)" />
<use xlink:href="#f2_m" transform="matrix(12,0,0,12,219.2,978.4)" />
<use xlink:href="#f2_q" transform="matrix(12,0,0,12,225,978.4)" />
<use xlink:href="#f2_e" transform="matrix(12,0,0,12,229.2,978.4)" />
<use xlink:href="#f2_o" transform="matrix(12,0,0,12,239.5,978.4)" />
<use xlink:href="#f2_3" transform="matrix(12,0,0,12,258.5,978.4)" />
<use xlink:href="#f2_n" transform="matrix(12,0,0,12,270.4,978.4)" />
<use xlink:href="#f2_g" transform="matrix(12,0,0,12,280,978.4)" />
<use xlink:href="#f2_l" transform="matrix(12,0,0,12,291.9,978.4)" />
<use xlink:href="#f2_3" transform="matrix(12,0,0,12,304.4,978.4)" />
<use xlink:href="#f2_9" transform="matrix(12,0,0,12,322.1,978.4)" />
<use xlink:href="#f2_q" transform="matrix(12,0,0,12,334.4,978.4)" />
<use xlink:href="#f2_3" transform="matrix(12,0,0,12,338.5,978.4)" />
<use xlink:href="#f2_b" transform="matrix(12,0,0,12,356.3,978.4)" />
<use xlink:href="#f2_9" transform="matrix(12,0,0,12,368.2,978.4)" />
<use xlink:href="#f2_4" transform="matrix(12,0,0,12,380.5,978.4)" />
<use xlink:href="#f2_m" transform="matrix(12,0,0,12,277.4,1000.5)" />
<use xlink:href="#f2_q" transform="matrix(12,0,0,12,283.3,1000.5)" />
<use xlink:href="#f2_e" transform="matrix(12,0,0,12,287.4,1000.5)" />
<use xlink:href="#f2_o" transform="matrix(12,0,0,12,297.8,1000.5)" />
<use xlink:href="#f2_9" transform="matrix(12,0,0,12,316.7,1000.5)" />
<use xlink:href="#f2_c" transform="matrix(12,0,0,12,328.9,1000.5)" />
<use xlink:href="#f2_3" transform="matrix(12,0,0,12,333.9,1000.5)" />
<use xlink:href="#f2_k" transform="matrix(12,0,0,12,351.7,1000.5)" />
<use xlink:href="#f2_p" transform="matrix(12,0,0,12,363.6,1000.5)" />
<use xlink:href="#f2_3" transform="matrix(12,0,0,12,375,1000.5)" />
<use xlink:href="#f2_m" transform="matrix(12,0,0,12,233.4,1022.7)" />
<use xlink:href="#f2_c" transform="matrix(12,0,0,12,239.3,1022.7)" />
<use xlink:href="#f2_e" transform="matrix(12,0,0,12,244.3,1022.7)" />
<use xlink:href="#f2_o" transform="matrix(12,0,0,12,254.7,1022.7)" />
<use xlink:href="#f2_t" transform="matrix(12,0,0,12,273.5,1022.7)" />
<use xlink:href="#f2_c" transform="matrix(12,0,0,12,278.5,1022.7)" />
<use xlink:href="#f2_r" transform="matrix(12,0,0,12,283.4,1022.7)" />
<use xlink:href="#f2_p" transform="matrix(12,0,0,12,293.4,1022.7)" />
<use xlink:href="#f2_c" transform="matrix(12,0,0,12,304.9,1022.7)" />
<use xlink:href="#f2_l" transform="matrix(12,0,0,12,309.9,1022.7)" />
<use xlink:href="#f2_3" transform="matrix(12,0,0,12,322.3,1022.7)" />
<use xlink:href="#f2_9" transform="matrix(12,0,0,12,340.2,1022.7)" />
<use xlink:href="#f2_e" transform="matrix(12,0,0,12,352.4,1022.7)" />
<use xlink:href="#f2_3" transform="matrix(12,0,0,12,368.6,1022.7)" />
<use xlink:href="#f2_4" transform="matrix(12,0,0,12,380.5,1022.7)" />
<use xlink:href="#f2_m" transform="matrix(12,0,0,12,194.3,1044.8)" />
<use xlink:href="#f2_i" transform="matrix(12,0,0,12,200.1,1044.8)" />
<use xlink:href="#f2_q" transform="matrix(12,0,0,12,212.4,1044.8)" />
<use xlink:href="#f2_6" transform="matrix(12,0,0,12,216.5,1044.8)" />
<use xlink:href="#f2_d" transform="matrix(12,0,0,12,229.4,1044.8)" />
<use xlink:href="#f2_p" transform="matrix(12,0,0,12,236.8,1044.8)" />
<use xlink:href="#f2_i" transform="matrix(12,0,0,12,254.2,1044.8)" />
<use xlink:href="#f2_3" transform="matrix(12,0,0,12,266.4,1044.8)" />
<use xlink:href="#f2_e" transform="matrix(12,0,0,12,278.3,1044.8)" />
<use xlink:href="#f2_o" transform="matrix(12,0,0,12,288.7,1044.8)" />
<use xlink:href="#f2_i" transform="matrix(12,0,0,12,307.5,1044.8)" />
<use xlink:href="#f2_q" transform="matrix(12,0,0,12,319.6,1044.8)" />
<use xlink:href="#f2_d" transform="matrix(12,0,0,12,323.7,1044.8)" />
<use xlink:href="#f2_c" transform="matrix(12,0,0,12,331,1044.8)" />
<use xlink:href="#f2_r" transform="matrix(12,0,0,12,336,1044.8)" />
<use xlink:href="#f2_p" transform="matrix(12,0,0,12,346.1,1044.8)" />
<use xlink:href="#f2_c" transform="matrix(12,0,0,12,357.5,1044.8)" />
<use xlink:href="#f2_l" transform="matrix(12,0,0,12,362.4,1044.8)" />
<use xlink:href="#f2_3" transform="matrix(12,0,0,12,374.9,1044.8)" />
<use xlink:href="#f2_m" transform="matrix(12,0,0,12,197.5,1067)" />
<use xlink:href="#f2_7" transform="matrix(12,0,0,12,203.4,1067)" />
<use xlink:href="#f2_b" transform="matrix(12,0,0,12,213.7,1067)" />
<use xlink:href="#f2_c" transform="matrix(12,0,0,12,225.8,1067)" />
<use xlink:href="#f2_q" transform="matrix(12,0,0,12,230.7,1067)" />
<use xlink:href="#f2_6" transform="matrix(12,0,0,12,240.7,1067)" />
<use xlink:href="#f2_c" transform="matrix(12,0,0,12,253.7,1067)" />
<use xlink:href="#f2_7" transform="matrix(12,0,0,12,258.6,1067)" />
<use xlink:href="#f2_q" transform="matrix(12,0,0,12,269,1067)" />
<use xlink:href="#f2_9" transform="matrix(12,0,0,12,279,1067)" />
<use xlink:href="#f2_e" transform="matrix(12,0,0,12,291.3,1067)" />
<use xlink:href="#f2_c" transform="matrix(12,0,0,12,307.5,1067)" />
<use xlink:href="#f2_e" transform="matrix(12,0,0,12,312.5,1067)" />
<use xlink:href="#f2_o" transform="matrix(12,0,0,12,322.9,1067)" />
<use xlink:href="#f2_10" transform="matrix(12,0,0,12,341.7,1067)" />
<use xlink:href="#f2_g" transform="matrix(12,0,0,12,353.4,1067)" />
<use xlink:href="#f2_n" transform="matrix(12,0,0,12,365.3,1067)" />
<use xlink:href="#f2_3" transform="matrix(12,0,0,12,375,1067)" />
<use xlink:href="#f2_m" transform="matrix(12,0,0,12,269,1089.2)" />
<use xlink:href="#f2_t" transform="matrix(12,0,0,12,274.9,1089.2)" />
<use xlink:href="#f2_o" transform="matrix(12,0,0,12,279.9,1089.2)" />
<use xlink:href="#f2_q" transform="matrix(12,0,0,12,292.9,1089.2)" />
<use xlink:href="#f2_c" transform="matrix(12,0,0,12,302.8,1089.2)" />
<use xlink:href="#f2_d" transform="matrix(12,0,0,12,307.8,1089.2)" />
<use xlink:href="#f2_e" transform="matrix(12,0,0,12,315.1,1089.2)" />
<use xlink:href="#f2_o" transform="matrix(12,0,0,12,325.5,1089.2)" />
<use xlink:href="#f2_f" transform="matrix(12,0,0,12,344.4,1089.2)" />
<use xlink:href="#f2_e" transform="matrix(12,0,0,12,355,1089.2)" />
<use xlink:href="#f2_n" transform="matrix(12,0,0,12,365.4,1089.2)" />
<use xlink:href="#f2_3" transform="matrix(12,0,0,12,375,1089.2)" />
<use xlink:href="#f2_m" transform="matrix(12,0,0,12,153.8,1111.3)" />
<use xlink:href="#f2_3" transform="matrix(12,0,0,12,159.7,1111.3)" />
<use xlink:href="#f2_7" transform="matrix(12,0,0,12,171.6,1111.3)" />
<use xlink:href="#f2_6" transform="matrix(12,0,0,12,182,1111.3)" />
<use xlink:href="#f2_q" transform="matrix(12,0,0,12,194.9,1111.3)" />
<use xlink:href="#f2_r" transform="matrix(12,0,0,12,204.9,1111.3)" />
<use xlink:href="#f2_c" transform="matrix(12,0,0,12,214.9,1111.3)" />
<use xlink:href="#f2_9" transform="matrix(12,0,0,12,219.9,1111.3)" />
<use xlink:href="#f2_l" transform="matrix(12,0,0,12,232,1111.3)" />
<use xlink:href="#f2_i" transform="matrix(12,0,0,12,250.4,1111.3)" />
<use xlink:href="#f2_n" transform="matrix(12,0,0,12,262.7,1111.3)" />
<use xlink:href="#f2_e" transform="matrix(12,0,0,12,272.3,1111.3)" />
<use xlink:href="#f2_o" transform="matrix(12,0,0,12,282.7,1111.3)" />
<use xlink:href="#f2_t" transform="matrix(12,0,0,12,301.5,1111.3)" />
<use xlink:href="#f2_q" transform="matrix(12,0,0,12,306.5,1111.3)" />
<use xlink:href="#f2_r" transform="matrix(12,0,0,12,310.5,1111.3)" />
<use xlink:href="#f2_3" transform="matrix(12,0,0,12,320.5,1111.3)" />
<use xlink:href="#f2_b" transform="matrix(12,0,0,12,338.4,1111.3)" />
<use xlink:href="#f2_n" transform="matrix(12,0,0,12,350.4,1111.3)" />
<use xlink:href="#f2_7" transform="matrix(12,0,0,12,360.1,1111.3)" />
<use xlink:href="#f2_c" transform="matrix(12,0,0,12,370.3,1111.3)" />
<use xlink:href="#f2_p" transform="matrix(12,0,0,12,375.3,1111.3)" />
<use xlink:href="#f2_b" transform="matrix(12,0,0,12,129.4,1133.5)" />
<use xlink:href="#f2_q" transform="matrix(12,0,0,12,141.4,1133.5)" />
<use xlink:href="#f2_f" transform="matrix(12,0,0,12,145.6,1133.5)" />
<use xlink:href="#f2_f" transform="matrix(12,0,0,12,156.1,1133.5)" />
<use xlink:href="#f2_7" transform="matrix(12,0,0,12,179,1133.5)" />
<use xlink:href="#f2_b" transform="matrix(12,0,0,12,189.2,1133.5)" />
<use xlink:href="#f2_c" transform="matrix(12,0,0,12,201.3,1133.5)" />
<use xlink:href="#f2_q" transform="matrix(12,0,0,12,206.3,1133.5)" />
<use xlink:href="#f2_i" transform="matrix(12,0,0,12,222.6,1133.5)" />
<use xlink:href="#f2_q" transform="matrix(12,0,0,12,234.8,1133.5)" />
<use xlink:href="#f2_h" transform="matrix(12,0,0,12,238.9,1133.5)" />
<use xlink:href="#f2_q" transform="matrix(12,0,0,12,250.8,1133.5)" />
<use xlink:href="#f2_e" transform="matrix(12,0,0,12,254.9,1133.5)" />
<use xlink:href="#f2_s" transform="matrix(12,0,0,12,265.3,1133.5)" />
<use xlink:href="#f2_l" transform="matrix(12,0,0,12,276,1133.5)" />
<use xlink:href="#f2_q" transform="matrix(12,0,0,12,300.9,1133.5)" />
<use xlink:href="#f2_e" transform="matrix(12,0,0,12,305,1133.5)" />
<use xlink:href="#f2_o" transform="matrix(12,0,0,12,315.4,1133.5)" />
<use xlink:href="#f2_i" transform="matrix(12,0,0,12,340.6,1133.5)" />
<use xlink:href="#f2_q" transform="matrix(12,0,0,12,352.8,1133.5)" />
<use xlink:href="#f2_d" transform="matrix(12,0,0,12,356.9,1133.5)" />
<use xlink:href="#f2_f" transform="matrix(12,0,0,12,364.2,1133.5)" />
<use xlink:href="#f2_3" transform="matrix(12,0,0,12,374.8,1133.5)" />
<use xlink:href="#f2_m" transform="matrix(12,0,0,12,335.5,1154.8)" />
<use xlink:href="#f2_7" transform="matrix(12,0,0,12,341.3,1154.8)" />
<use xlink:href="#f2_8" transform="matrix(12,0,0,12,351.7,1154.8)" />
<use xlink:href="#f2_g" transform="matrix(12,0,0,12,363.1,1154.8)" />
<use xlink:href="#f2_3" transform="matrix(12,0,0,12,375,1154.8)" />
</g>
</g>
<defs>
<path d="M448,506c0,0,134,0,190,49c0,0,57,50,57,168c0,0,0,114,-56,162c0,0,-56,48,-195,48H316V506ZM777,0L496,438H316V60L468,40V0H54V40L172,60V941L44,960v40H476c0,0,188,0,277,-63c0,0,90,-64,90,-204c0,0,0,-100,-54,-173c0,0,-55,-73,-151,-101L909,60L1017,40V0Z" 
id="f0_v"
transform="scale(0.001,-0.001)" />

<path d="M495,413c0,0,0,133,-34,190c0,0,-34,57,-105,57c0,0,-78,0,-119,-63c0,0,-42,-62,-42,-184ZM374,-14c0,0,-163,0,-239,87c0,0,-75,88,-75,283c0,0,0,183,77,273c0,0,76,91,219,91c0,0,269,0,269,-306V353H194V340c0,0,0,-103,23,-160c0,0,22,-57,70,-87c0,0,47,-29,124,-29c0,0,40,0,96,6c0,0,55,7,91,15V43C598,43,562,20,500,3c0,0,-61,-17,-126,-17Z" 
id="f0_6"
transform="scale(0.001,-0.001)" />

<path d="M278,-14c0,0,-52,0,-115,11c0,0,-63,10,-99,23V193H98L134,95c0,0,56,-50,146,-50c0,0,144,0,144,123c0,0,0,91,-114,130l-66,21c0,0,-75,25,-110,50c0,0,-34,26,-53,63c0,0,-18,36,-18,89c0,0,0,92,63,145c0,0,63,54,170,54c0,0,77,0,193,-23V544H454l-32,81c0,0,-39,35,-124,35c0,0,-61,0,-92,-30c0,0,-32,-30,-32,-80c0,0,0,-43,29,-72c0,0,28,-29,86,-48c0,0,110,-38,144,-55c0,0,33,-17,57,-42c0,0,23,-25,36,-57c0,0,13,-32,13,-79c0,0,0,-104,-66,-158c0,0,-66,-53,-195,-53Z" 
id="f0_4"
transform="scale(0.001,-0.001)" />

<path d="M382,45c0,0,188,0,188,314c0,0,0,143,-47,213c0,0,-46,69,-141,69c0,0,-87,0,-146,-24V58c0,0,67,-13,146,-13ZM25,-325v35l88,18V649L34,668v33H231l1,-41c0,0,31,27,84,43c0,0,53,17,107,17c0,0,134,0,208,-94c0,0,73,-93,73,-267c0,0,0,-178,-80,-276c0,0,-80,-97,-232,-97c0,0,-84,0,-160,16c0,0,4,-53,4,-84V-272l123,-18v-35Z" 
id="f0_d"
transform="scale(0.001,-0.001)" />

<path d="M289,-14c0,0,-179,0,-179,205V649L20,668v33H233V200c0,0,0,-128,120,-128c0,0,92,0,173,23V649L420,668v33H649V52L738,33V0H533l-6,57C527,57,474,28,405,7c0,0,-69,-21,-116,-21Z" 
id="f0_m"
transform="scale(0.001,-0.001)" />

<path d="M249,-14c0,0,-71,0,-107,42c0,0,-35,42,-35,119V639H15v33l93,29l76,159h47V701H391V639H231V161c0,0,0,-48,22,-73c0,0,22,-24,57,-24c0,0,44,0,106,12V26C416,26,389,8,340,-2c0,0,-49,-12,-91,-12Z" 
id="f0_5"
transform="scale(0.001,-0.001)" />

<path d="M284,67c0,0,51,0,88,12c0,0,37,12,74,30V358l-98,-3c0,0,-100,-4,-135,-39c0,0,-35,-35,-35,-117c0,0,0,-132,106,-132ZM233,-14c0,0,-179,0,-179,208c0,0,0,70,27,116c0,0,27,46,87,70c0,0,60,24,173,27l105,3V519c0,0,0,72,-26,107c0,0,-27,34,-82,34c0,0,-75,0,-137,-35L176,538H134V691c0,0,121,26,213,26c0,0,115,0,169,-47c0,0,54,-47,54,-144V52L657,33V0H465L451,70c0,0,-85,-84,-218,-84Z" 
id="f0_3"
transform="scale(0.001,-0.001)" />

<path d="M71,0V90H214v934H71v90H1073V851H970v160H502V654H792V796H895V411H792V552H502V103H984V263h102V0Z" 
id="f1_2"
transform="scale(0.001,-0.001)" />

<path d="M87,-338c0,0,-45,0,-94,7c0,0,-51,8,-105,22v168l84,-1c0,0,1,-59,23,-86c0,0,21,-26,70,-26c0,0,55,0,77,35c0,0,21,35,21,127V703H51v90H427V-92c0,0,0,-122,-86,-184c0,0,-86,-62,-254,-62ZM277,876c0,0,-61,0,-102,41c0,0,-42,41,-42,101c0,0,0,60,41,101c0,0,42,42,103,42c0,0,58,0,100,-42c0,0,42,-42,42,-101c0,0,0,-59,-42,-101c0,0,-41,-41,-100,-41Z" 
id="f1_3"
transform="scale(0.001,-0.001)" />

<path d="M612,448c0,0,0,156,-29,219c0,0,-29,63,-99,63c0,0,-68,0,-98,-61c0,0,-29,-62,-29,-208V448ZM488,-20c0,0,-205,0,-315,107C173,87,63,195,63,397c0,0,0,197,112,307c0,0,113,110,313,110c0,0,197,0,303,-115c0,0,105,-116,111,-340H357v-6c0,0,0,-154,46,-222c0,0,46,-68,149,-68c0,0,86,0,139,45c0,0,53,46,68,133H883C883,241,851,105,755,42c0,0,-95,-62,-267,-62Z" 
id="f1_4"
transform="scale(0.001,-0.001)" />

<path d="M53,0V90H165V703H44v90H429V652c0,0,39,83,103,123c0,0,64,39,156,39c0,0,24,0,57,-3c0,0,33,-3,76,-9V565H737c0,0,-4,63,-34,94c0,0,-30,31,-87,31c0,0,-87,0,-137,-76c0,0,-50,-76,-50,-211V90H573V0Z" 
id="f1_5"
transform="scale(0.001,-0.001)" />

<path d="M507,-20c0,0,-212,0,-328,108C179,88,63,198,63,397c0,0,0,197,114,307c0,0,115,110,320,110c0,0,82,0,167,-15c0,0,84,-16,171,-47V532H752c0,0,-12,101,-59,150c0,0,-47,48,-132,48c0,0,-111,0,-157,-74c0,0,-47,-75,-47,-259c0,0,0,-180,45,-257c0,0,46,-77,149,-77c0,0,80,0,128,47c0,0,48,48,58,137H861C861,247,833,112,745,45c0,0,-87,-65,-238,-65Z" 
id="f1_6"
transform="scale(0.001,-0.001)" />

<path d="M53,0V90H165V703H53v90H429V90H543V0ZM285,876c0,0,-61,0,-102,41c0,0,-42,41,-42,101c0,0,0,60,42,101c0,0,41,42,102,42c0,0,59,0,100,-42c0,0,41,-41,41,-101c0,0,0,-59,-41,-101c0,0,-41,-41,-100,-41Z" 
id="f1_7"
transform="scale(0.001,-0.001)" />

<path d="M510,63c0,0,84,0,118,71c0,0,34,72,34,263c0,0,0,191,-34,262c0,0,-33,71,-118,71c0,0,-84,0,-119,-72c0,0,-34,-72,-34,-261c0,0,0,-190,34,-262c0,0,35,-72,119,-72Zm0,-83c0,0,-209,0,-328,110C182,90,63,201,63,397c0,0,0,196,119,307c0,0,119,110,328,110c0,0,211,0,330,-110c0,0,118,-111,118,-307c0,0,0,-196,-119,-307C839,90,720,-20,510,-20Z" 
id="f1_8"
transform="scale(0.001,-0.001)" />

<path d="M530,66c0,0,85,0,119,52c0,0,35,53,35,191c0,0,0,137,-34,188c0,0,-35,52,-120,52c0,0,-85,0,-119,-52c0,0,-35,-51,-35,-188c0,0,0,-138,35,-191c0,0,35,-52,119,-52Zm0,570c0,0,70,0,98,43c0,0,28,44,28,161c0,0,0,118,-28,163c0,0,-29,44,-98,44c0,0,-69,0,-97,-44c0,0,-28,-45,-28,-163c0,0,0,-117,28,-161c0,0,28,-43,97,-43Zm0,-656c0,0,-218,0,-334,81C196,61,79,143,79,296c0,0,0,123,70,199c0,0,69,77,201,98c0,0,-117,27,-175,90c0,0,-59,63,-59,160c0,0,0,142,106,217c0,0,106,74,308,74c0,0,202,0,308,-74c0,0,107,-75,107,-217c0,0,0,-97,-59,-160c0,0,-59,-63,-176,-90c0,0,133,-21,202,-98c0,0,69,-76,69,-199c0,0,0,-153,-116,-235c0,0,-116,-81,-335,-81Z" 
id="f1_k"
transform="scale(0.001,-0.001)" />

<path d="M83,309V510H551V309Z" 
id="f1_l"
transform="scale(0.001,-0.001)" />

<path d="M138,-7c0,0,-34,0,-72,10V129c0,0,25,-8,52,-8c0,0,33,0,58,5c0,0,26,5,58,24c0,0,33,20,53,54c0,0,21,34,36,97c0,0,15,64,15,151c0,0,0,113,-19,173c0,0,-19,60,-56,82c0,0,-38,22,-107,22H89V836h72c0,0,165,0,240,-91c0,0,76,-91,76,-293c0,0,0,-107,26,-227c0,0,25,-119,83,-225H437c0,0,-43,101,-62,184c0,0,-24,-60,-51,-99c0,0,-26,-38,-56,-58C268,27,239,7,209,0c0,0,-30,-7,-71,-7Z" 
id="f2_j"
transform="scale(0.001,-0.001)" />

<path d="M102,312V836H241V369L102,312Z" 
id="f2_q"
transform="scale(0.001,-0.001)" />

<path d="M180,0L66,836H203L258,443c0,0,36,1,64,6c0,0,28,6,49,18c0,0,20,12,35,26c0,0,15,13,26,36c0,0,11,24,17,44c0,0,7,20,12,55c0,0,6,34,9,60c0,0,3,26,8,71c0,0,4,45,9,77H610c0,0,-13,-194,-31,-271c0,0,-31,-127,-111,-179c0,0,-71,-45,-196,-50L304,107c0,0,73,0,130,5c0,0,56,6,111,21c0,0,54,15,94,40c0,0,40,25,77,64c0,0,37,39,63,94c0,0,25,54,46,128c0,0,21,73,34,166c0,0,13,94,20,211h138c0,0,-14,-124,-29,-218c0,0,-16,-94,-39,-179c0,0,-22,-85,-50,-146c0,0,-28,-61,-68,-112c0,0,-39,-51,-87,-84C744,97,696,65,632,42C632,42,568,19,492,10C492,10,417,0,320,0Z" 
id="f2_o"
transform="scale(0.001,-0.001)" />

<path d="M154,0V454l138,56V0ZM722,0V454c0,0,0,161,-49,218c0,0,-48,57,-186,57H139V836H485c0,0,207,0,291,-93c0,0,83,-94,83,-318V0Z" 
id="f2_3"
transform="scale(0.001,-0.001)" />

<path d="M287,0L589,729H66v386H205V836l547,-1l-2,-82L433,0Z" 
id="f2_e"
transform="scale(0.001,-0.001)" />

<path d="M399,-14c0,0,-341,0,-341,370c0,0,0,175,87,269c0,0,87,95,249,95c0,0,101,0,220,-23V501H573L541,625c0,0,-62,35,-149,35c0,0,-200,0,-200,-304c0,0,0,-158,61,-225c0,0,61,-67,189,-67c0,0,109,0,189,24V43C631,43,595,16,530,1c0,0,-64,-15,-131,-15Z" 
id="f0_f"
transform="scale(0.001,-0.001)" />

<path d="M377,45c0,0,99,0,147,73c0,0,47,73,47,237c0,0,0,161,-47,233c0,0,-47,72,-147,72c0,0,-97,0,-141,-69c0,0,-44,-69,-44,-236c0,0,0,-169,45,-240c0,0,44,-70,140,-70Zm0,-59c0,0,-158,0,-238,94c0,0,-81,95,-81,274c0,0,0,178,81,272c0,0,80,94,244,94c0,0,160,0,241,-92c0,0,82,-92,82,-274c0,0,0,-368,-329,-368Z" 
id="f0_9"
transform="scale(0.001,-0.001)" />

<path d="M439,0V33l93,19V500c0,0,0,62,-30,97c0,0,-31,36,-94,36c0,0,-67,0,-165,-22V52L338,33V0H35V33l84,19V649L35,668v33H235l7,-57c0,0,57,33,122,54c0,0,65,22,108,22c0,0,91,0,137,-53c0,0,47,-53,47,-154V52L741,33V0Z" 
id="f0_8"
transform="scale(0.001,-0.001)" />

<path d="M359,-270c0,0,124,0,192,46c0,0,67,47,67,129c0,0,0,43,-26,67c0,0,-26,24,-79,24H242c0,0,-32,-27,-51,-69c0,0,-20,-41,-20,-77c0,0,0,-64,46,-92c0,0,46,-28,142,-28Zm11,561c0,0,81,0,115,47c0,0,34,47,34,141c0,0,0,100,-35,142c0,0,-35,42,-113,42c0,0,-78,0,-114,-43c0,0,-37,-42,-37,-141c0,0,0,-98,36,-143c0,0,36,-45,114,-45ZM359,-329c0,0,-143,0,-218,44c0,0,-75,43,-75,125c0,0,0,39,27,78c0,0,26,38,98,89c0,0,-43,14,-72,48c0,0,-29,35,-29,74L208,262c0,0,-118,55,-118,217c0,0,0,115,73,178c0,0,73,63,211,63c0,0,28,0,71,-6c0,0,44,-6,67,-13l165,83l26,-32L599,644c0,0,50,-56,50,-165c0,0,0,-120,-72,-182c0,0,-73,-62,-208,-62c0,0,-62,0,-114,11L208,148c0,0,2,-13,29,-24c0,0,27,-12,67,-12H512c0,0,113,0,168,-49c0,0,55,-49,55,-134c0,0,0,-79,-44,-137c0,0,-43,-58,-128,-90c0,0,-84,-31,-204,-31Z" 
id="f0_n"
transform="scale(0.001,-0.001)" />

<path d="M32,0V33L151,52V649L52,668v33H275V52L395,33V0ZM201,850c0,0,-32,0,-56,24c0,0,-24,24,-24,56c0,0,0,34,24,58c0,0,24,24,56,24c0,0,34,0,58,-24c0,0,24,-24,24,-58c0,0,0,-32,-24,-56c0,0,-24,-24,-58,-24Z" 
id="f0_e"
transform="scale(0.001,-0.001)" />

<path d="M31,0V33l88,19V649L31,668v33H235l7,-87c0,0,44,37,121,71c0,0,76,35,121,35h11V530H463l-43,82c0,0,-37,0,-88,-10c0,0,-52,-10,-89,-26V52L363,33V0Z" 
id="f0_c"
transform="scale(0.001,-0.001)" />

<path d="M112,-5c0,0,-39,0,-97,11V113c0,0,48,-10,77,-10c0,0,53,0,70,42c0,0,17,43,17,164V729H50V836H501c0,0,107,0,179,-25c0,0,72,-25,112,-77c0,0,40,-51,57,-118c0,0,16,-67,16,-164V0H726V454c0,0,0,55,-3,92c0,0,-4,37,-17,75c0,0,-14,38,-38,59c0,0,-24,22,-65,36c0,0,-42,13,-102,13H318V309c0,0,0,-160,-46,-237C272,72,226,-5,112,-5Z" 
id="f2_b"
transform="scale(0.001,-0.001)" />

<path d="M383,64c0,0,85,0,152,28V645c0,0,-67,13,-152,13c0,0,-194,0,-194,-314c0,0,0,-141,48,-211c0,0,48,-69,146,-69ZM342,-14c0,0,-287,0,-287,358c0,0,0,184,82,280c0,0,81,96,239,96c0,0,81,0,163,-18c0,0,-4,25,-4,124v182l-118,18v34H659V52L745,33V0H548l-9,52c0,0,-84,-66,-197,-66Z" 
id="f0_k"
transform="scale(0.001,-0.001)" />

<path d="M71,-141V-15L289,62L66,836H210L416,109c0,0,99,42,153,98c0,0,53,56,80,155c0,0,26,98,26,262V836H817V624c0,0,0,-88,-7,-154c0,0,-7,-67,-25,-132c0,0,-18,-66,-51,-116c0,0,-33,-51,-84,-98c0,0,-50,-48,-123,-87c0,0,-72,-39,-169,-74L71,-141Z" 
id="f2_p"
transform="scale(0.001,-0.001)" />

<path d="M495,0V729H66V836H781V729H634V0Z" 
id="f2_r"
transform="scale(0.001,-0.001)" />

<path d="M376,50c0,0,103,0,149,80c0,0,46,81,46,240c0,0,0,137,-47,204c0,0,-48,67,-148,67c0,0,-44,0,-87,-7c0,0,-44,-8,-63,-17V62c0,0,63,-12,150,-12Zm3,-64c0,0,-64,0,-141,14c0,0,-78,14,-136,37v971L0,1026v34H226V809c0,0,0,-40,-4,-148c0,0,74,59,188,59c0,0,143,0,219,-87c0,0,77,-87,77,-263c0,0,0,-189,-84,-287c0,0,-84,-97,-243,-97Z" 
id="f0_b"
transform="scale(0.001,-0.001)" />

<path d="M736,107V473c0,0,0,147,-48,202c0,0,-49,54,-187,54H278V107ZM139,0V836H499c0,0,105,0,177,-22c0,0,72,-21,116,-69c0,0,44,-49,64,-119c0,0,19,-71,19,-174V0Z" 
id="f2_i"
transform="scale(0.001,-0.001)" />

<path d="M139,0V836H278V0Z" 
id="f2_c"
transform="scale(0.001,-0.001)" />

<path d="M585,0V426c0,0,0,54,-8,98c0,0,-8,44,-27,83c0,0,-19,40,-49,66c0,0,-30,26,-77,41c0,0,-47,15,-108,15H66V836H315c0,0,94,0,166,-20c0,0,71,-20,116,-54c0,0,46,-35,75,-88c0,0,28,-52,40,-112c0,0,12,-60,12,-137V0Z" 
id="f2_7"
transform="scale(0.001,-0.001)" />

<path d="M0,-141L388,1114H514L127,-141Z" 
id="f2_w"
transform="scale(0.001,-0.001)" />

<path d="M139,-317V836H278V-317Z" 
id="f2_t"
transform="scale(0.001,-0.001)" />

<path d="M66,0V106H322c0,0,75,0,127,23c0,0,53,23,82,67c0,0,29,43,42,98c0,0,13,54,13,124c0,0,0,70,-13,124c0,0,-13,55,-42,98c0,0,-29,44,-82,67c0,0,-52,23,-127,23H66V836H322c0,0,87,0,157,-24c0,0,70,-24,115,-64c0,0,45,-40,74,-94c0,0,30,-55,43,-113c0,0,13,-59,13,-123c0,0,0,-64,-13,-123c0,0,-13,-58,-43,-113c0,0,-29,-54,-74,-94C594,88,549,48,479,24C479,24,409,0,322,0Z" 
id="f2_n"
transform="scale(0.001,-0.001)" />

<path d="M66,0V107H332V555c0,0,0,92,-37,133c0,0,-37,41,-116,41H85V836h94c0,0,153,0,223,-66c0,0,69,-66,69,-231V0Z" 
id="f2_d"
transform="scale(0.001,-0.001)" />

<path d="M148,-329c0,0,-58,0,-114,13v151H69l24,-71c0,0,23,-17,64,-17c0,0,39,0,72,22c0,0,33,23,60,67c0,0,27,44,68,157L90,649L19,668v33H344V668L233,648L423,158L606,649L497,668v33H758V668L685,652L411,-43c0,0,-48,-124,-84,-177c0,0,-36,-54,-79,-82c0,0,-44,-27,-100,-27Z" 
id="f0_10"
transform="scale(0.001,-0.001)" />

<path d="M289,-14c0,0,-179,0,-179,205V649L20,668v33H233V200c0,0,0,-128,120,-128c0,0,92,0,173,23V649L420,668v33H649V52L738,34V0H533l-6,57C527,57,474,28,405,6c0,0,-69,-20,-116,-20Zm24,849v24l147,203H618v-27L354,835Z" 
id="f0_x"
transform="scale(0.001,-0.001)" />

<path d="M495,413c0,0,0,133,-34,190c0,0,-34,57,-105,57c0,0,-78,0,-119,-62c0,0,-42,-63,-42,-185ZM374,-14c0,0,-163,0,-239,87c0,0,-75,88,-75,283c0,0,0,183,77,274c0,0,76,90,219,90c0,0,269,0,269,-306V353H194V339c0,0,0,-103,23,-160c0,0,22,-57,70,-86c0,0,47,-30,124,-30c0,0,40,0,96,6c0,0,55,7,91,15V43C598,43,562,19,500,2c0,0,-61,-16,-126,-16ZM285,835v24l146,203H590v-27L326,835Z" 
id="f0_j"
transform="scale(0.001,-0.001)" />

<path d="M31,0V33L150,52v956L31,1026v34H274V52L394,33V0Z" 
id="f0_7"
transform="scale(0.001,-0.001)" />

<path d="M0,-14L351,1007h73L75,-14Z" 
id="f0_11"
transform="scale(0.001,-0.001)" />

<path d="M557,-14c0,0,-199,0,-298,89c0,0,-99,90,-99,255V941L32,960v40H432V960L304,941V341c0,0,0,-273,264,-273c0,0,144,0,220,68c0,0,77,68,77,202V941L730,960v40h341V960L943,941V344c0,0,0,-180,-99,-269c0,0,-99,-89,-287,-89Z" 
id="f0_12"
transform="scale(0.001,-0.001)" />

<path d="M191,-20c0,0,-39,0,-65,25c0,0,-25,27,-25,64c0,0,0,38,26,64c0,0,26,26,64,26c0,0,38,0,64,-26c0,0,26,-26,26,-64c0,0,0,-37,-25,-64c0,0,-26,-25,-65,-25Z" 
id="f0_13"
transform="scale(0.001,-0.001)" />

<path d="M248,0L521,658H66v429H313V836l493,-1V716L504,0Z" 
id="f3_h"
transform="scale(0.001,-0.001)" />

<path d="M84,-153V45l189,68L66,836H321L497,205c0,0,72,50,101,138c0,0,30,88,30,261V836H878V604c0,0,0,-84,-7,-147c0,0,-7,-63,-25,-126c0,0,-19,-62,-51,-111c0,0,-33,-48,-82,-94c0,0,-50,-45,-122,-84C591,42,519,3,423,-30L84,-153Z" 
id="f3_8"
transform="scale(0.001,-0.001)" />

<path d="M139,0V836H386V0Z" 
id="f3_b"
transform="scale(0.001,-0.001)" />

<path d="M139,0V177H436c0,0,127,0,184,56c0,0,56,55,56,186c0,0,0,132,-58,186c0,0,-58,53,-181,53H386L385,553c0,0,0,-40,12,-54c0,0,12,-15,31,-15c0,0,19,0,38,2V343c0,0,-46,-11,-94,-11c0,0,-48,0,-87,11c0,0,-38,10,-73,34c0,0,-73,53,-73,196V836H487c0,0,203,0,319,-109c0,0,116,-109,116,-309c0,0,0,-200,-117,-309C805,109,689,0,487,0Z" 
id="f3_5"
transform="scale(0.001,-0.001)" />

<path d="M153,0V437L399,539V0ZM664,0V450c0,0,0,122,-31,165c0,0,-31,43,-121,43H138V836H511c0,0,113,0,188,-22c0,0,75,-23,123,-73c0,0,47,-51,68,-127c0,0,20,-76,20,-189V0Z" 
id="f3_7"
transform="scale(0.001,-0.001)" />

<path d="M431,-20c0,0,-163,0,-221,50c0,0,-58,50,-58,187V703H37v90H152v246H416V793H636V703H416V217c0,0,0,-104,16,-129c0,0,16,-25,59,-25c0,0,48,0,71,32c0,0,23,32,25,99H698c0,0,-7,-119,-65,-167c0,0,-59,-47,-202,-47Z" 
id="f1_e"
transform="scale(0.001,-0.001)" />

<path d="M53,0V90H165V703H53v90H429V681c0,0,48,71,109,102c0,0,61,31,155,31c0,0,133,0,202,-78c0,0,68,-79,68,-232V90h114V0H603V90h96V511c0,0,0,101,-26,140c0,0,-25,39,-89,39c0,0,-80,0,-117,-58c0,0,-38,-59,-38,-186V90h97V0Z" 
id="f1_m"
transform="scale(0.001,-0.001)" />

<path d="M179,0V190H336V0Zm0,600V790H336V600Z" 
id="f2_v"
transform="scale(0.001,-0.001)" />

<path d="M139,0V138c0,0,0,61,8,112c0,0,7,52,19,87c0,0,11,36,30,66c0,0,19,31,35,49c0,0,17,19,41,35c0,0,25,17,41,25c0,0,17,7,40,17L141,836H303L613,388c0,0,20,10,33,18c0,0,13,8,34,28c0,0,20,20,33,44c0,0,13,25,22,66c0,0,10,41,10,92V836H882V698c0,0,0,-61,-7,-112c0,0,-6,-52,-18,-88c0,0,-12,-36,-30,-66c0,0,-19,-30,-36,-49c0,0,-17,-18,-41,-34c0,0,-24,-17,-40,-25c0,0,-17,-8,-41,-17L882,0H720L409,448c0,0,-21,-11,-34,-19c0,0,-13,-8,-34,-27c0,0,-21,-20,-34,-44c0,0,-12,-25,-22,-66c0,0,-9,-41,-9,-92V0Z" 
id="f2_9"
transform="scale(0.001,-0.001)" />

<path d="M66,0V107H554V452c0,0,0,56,-4,93c0,0,-4,37,-18,75c0,0,-14,38,-40,60c0,0,-26,22,-71,36c0,0,-45,13,-110,13H66V836H312c0,0,91,0,157,-17c0,0,66,-17,109,-49c0,0,44,-32,69,-84c0,0,26,-52,36,-114c0,0,10,-62,10,-147V107H817V0Z" 
id="f2_f"
transform="scale(0.001,-0.001)" />

<path d="M522,-20c0,0,-196,0,-290,99c0,0,-94,100,-94,324V836H276V397c0,0,0,-86,16,-147c0,0,17,-60,50,-94c0,0,34,-34,77,-49c0,0,43,-15,103,-15c0,0,59,0,102,15c0,0,44,15,77,49c0,0,33,34,50,94c0,0,17,61,17,147c0,0,0,84,-8,143c0,0,-7,58,-25,105c0,0,-17,47,-51,69c0,0,-33,23,-83,23c0,0,-50,0,-119,-22V821c0,0,85,23,150,23c0,0,76,0,130,-30c0,0,53,-31,85,-90c0,0,31,-59,45,-138c0,0,13,-78,13,-183c0,0,0,-224,-93,-324c0,0,-94,-99,-290,-99Z" 
id="f2_k"
transform="scale(0.001,-0.001)" />

<path d="M139,0V106H400c0,0,176,0,253,71c0,0,78,72,78,250c0,0,0,163,-80,233c0,0,-81,69,-250,69H278L277,564c0,0,-1,-54,26,-80c0,0,27,-25,82,-25c0,0,30,0,80,9V355c0,0,-61,-12,-111,-12c0,0,-100,0,-157,55c0,0,-58,55,-58,186V836H456c0,0,193,0,303,-109c0,0,110,-109,110,-309c0,0,0,-200,-110,-309C759,109,648,0,456,0Z" 
id="f2_8"
transform="scale(0.001,-0.001)" />

<path d="M114,0l60,312c0,0,2,12,8,39c0,0,6,27,7,37c0,0,2,11,5,30c0,0,2,19,4,33c0,0,1,15,1,31c0,0,0,48,-35,146c0,0,-35,98,-98,208H228c0,0,3,-8,27,-67c0,0,25,-58,41,-117c0,0,21,53,50,90c0,0,29,37,57,57c0,0,29,21,65,32c0,0,37,11,65,14c0,0,28,3,67,3c0,0,300,0,300,-396V0H480V106H761V452c0,0,0,146,-46,215c0,0,-45,70,-118,70c0,0,-134,0,-198,-119c0,0,-36,-68,-67,-222c0,0,-2,-10,-6,-27L253,0Z" 
id="f2_l"
transform="scale(0.001,-0.001)" />

<path d="M521,463c0,0,76,0,109,66c0,0,33,65,33,226c0,0,0,162,-33,227c0,0,-33,65,-109,65c0,0,-77,0,-109,-65c0,0,-33,-65,-33,-227c0,0,0,-161,33,-226c0,0,32,-66,109,-66ZM450,-20c0,0,-68,0,-144,11c0,0,-77,10,-165,32V220h90c0,0,18,-76,70,-115c0,0,52,-39,135,-39c0,0,131,0,191,91c0,0,60,91,60,297c0,0,-49,-40,-109,-60c0,0,-60,-19,-130,-19c0,0,-170,0,-268,99c0,0,-97,100,-97,275c0,0,0,185,109,285c0,0,109,100,311,100c0,0,228,0,346,-138c0,0,118,-138,118,-404c0,0,0,-304,-130,-459C837,133,706,-20,450,-20Z" 
id="f1_n"
transform="scale(0.001,-0.001)" />

<path d="M83,331V549H551V331Z" 
id="f3_k"
transform="scale(0.001,-0.001)" />

<path d="M44,0V40L172,60V941L44,960v40H794V760H745L721,922c0,0,-83,11,-241,11H316V543H586l23,119h48V354H609L586,475H316V67H513c0,0,193,0,252,12l43,185h49L843,0Z" 
id="f0_1e"
transform="scale(0.001,-0.001)" />

<path d="M35,0V34l84,18V649L35,668v33H235l7,-56c0,0,57,32,122,54c0,0,65,21,108,21c0,0,91,0,137,-53c0,0,47,-53,47,-154V52L741,34V0H439V34l93,18V500c0,0,0,62,-30,97c0,0,-31,36,-94,36c0,0,-67,0,-165,-22V52L338,34V0ZM481,834c0,0,-36,0,-66,16c0,0,-30,16,-57,36c0,0,-27,20,-52,36c0,0,-25,16,-49,16c0,0,-24,0,-39,-9c0,0,-14,-9,-23,-26c0,0,-8,-17,-13,-54H143c0,0,11,180,146,180c0,0,36,0,66,-16c0,0,30,-16,57,-35c0,0,27,-20,52,-36c0,0,25,-16,49,-16c0,0,32,0,50,18c0,0,18,19,25,70h39c0,0,-12,-180,-146,-180Z" 
id="f0_1b"
transform="scale(0.001,-0.001)" />

<path d="M44,0V40L172,60V941L44,960v40H445V960L316,941V549H787V941L659,960v40h400V960L930,941V60L1059,40V0H659V40L787,60V481H316V60L445,40V0Z" 
id="f0_a"
transform="scale(0.001,-0.001)" />

<path d="M163,0V190H321V0Z" 
id="f2_m"
transform="scale(0.001,-0.001)" />

<path d="M139,0V836H485c0,0,206,0,290,-90c0,0,84,-89,84,-294V0H721V473c0,0,0,147,-49,202c0,0,-48,54,-186,54H277V0Z" 
id="f2_h"
transform="scale(0.001,-0.001)" />

<path d="M155,0V288H424V0Z" 
id="f3_r"
transform="scale(0.001,-0.001)" />

<path d="M679,178V467c0,0,0,110,-32,150c0,0,-31,41,-120,41H385V178ZM139,0V836H525c0,0,220,0,311,-90c0,0,90,-90,90,-297V0Z" 
id="f3_f"
transform="scale(0.001,-0.001)" />

<path d="M102,250V836H349V351L102,250Z" 
id="f3_g"
transform="scale(0.001,-0.001)" />

<path d="M66,0V178H507V449c0,0,0,43,-2,71c0,0,-3,28,-12,56c0,0,-9,28,-26,45c0,0,-17,16,-47,27c0,0,-29,10,-72,10H66V836H349c0,0,97,0,167,-17c0,0,71,-17,117,-49c0,0,46,-32,73,-84c0,0,27,-52,38,-114c0,0,11,-62,11,-147V178H866V0Z" 
id="f3_l"
transform="scale(0.001,-0.001)" />

<path d="M534,0V425c0,0,0,109,-41,171c0,0,-41,62,-140,62H66V836H352c0,0,99,0,174,-20c0,0,75,-20,123,-55c0,0,48,-35,78,-87c0,0,30,-53,42,-113c0,0,12,-60,12,-136V0Z" 
id="f3_4"
transform="scale(0.001,-0.001)" />

<path d="M173,-6C173,-6,61,-6,15,9V177c0,0,73,-10,82,-10c0,0,37,0,52,30c0,0,14,29,14,116V658H18V836H516c0,0,262,0,341,-145c0,0,48,-89,48,-242V0H658V450c0,0,0,131,-37,171c0,0,-34,37,-105,37H411V313c0,0,0,-189,-67,-258C344,55,285,-6,173,-6Z" 
id="f3_j"
transform="scale(0.001,-0.001)" />

<path d="M159,0V165c0,0,0,69,13,124c0,0,12,55,29,89c0,0,17,33,45,62c0,0,29,28,50,42c0,0,22,14,54,30L128,836H405L666,460c0,0,41,48,41,155V836H952V671c0,0,0,-50,-6,-93c0,0,-6,-42,-16,-73c0,0,-10,-30,-26,-57c0,0,-17,-27,-31,-44c0,0,-15,-17,-37,-33c0,0,-22,-16,-38,-25c0,0,-15,-9,-38,-21L984,0H706L445,376c0,0,-41,-48,-41,-155V0Z" 
id="f3_s"
transform="scale(0.001,-0.001)" />

<path d="M0,-141L393,1114H558L165,-141Z" 
id="f3_t"
transform="scale(0.001,-0.001)" />

<path d="M152,0V473c0,0,0,94,28,161c0,0,29,66,71,95H66V836H463V729H404c0,0,-65,0,-89,-57c0,0,-25,-58,-25,-199V0Z" 
id="f2_4"
transform="scale(0.001,-0.001)" />

<path d="M235,0V40L394,60V936H356c0,0,-189,0,-258,-15L78,766H28v234H908V766H857L837,921c0,0,-22,5,-98,9c0,0,-75,4,-165,4H538V60L697,40V0Z" 
id="f0_1k"
transform="scale(0.001,-0.001)" />

<path d="M431,0V33L535,52V499c0,0,0,62,-32,96c0,0,-32,33,-95,33c0,0,-66,0,-163,-22V52L350,33V0H32V33l89,19V649L32,668v33H237l6,-57c0,0,56,32,119,54c0,0,62,22,110,22c0,0,52,0,95,-20c0,0,44,-19,66,-62c0,0,57,32,134,57c0,0,77,25,128,25c0,0,179,0,179,-207V52l90,-19V0H846V33L950,52V499c0,0,0,129,-119,129c0,0,-19,0,-45,-3c0,0,-26,-3,-52,-7c0,0,-25,-4,-49,-8c0,0,-23,-5,-39,-8c0,0,13,-41,13,-89V52L764,33V0Z" 
id="f0_i"
transform="scale(0.001,-0.001)" />

<path d="M231,0V54L390,74V921H352c0,0,-171,0,-240,-15L92,721H24v279H996V721H927L907,906c0,0,-62,14,-245,14H626V74L785,54V0Z" 
id="f4_l"
transform="scale(0.001,-0.001)" />

<path d="M434,423c0,0,0,101,-7,142c0,0,-6,40,-22,60c0,0,-16,19,-45,19c0,0,-44,0,-66,-48c0,0,-22,-49,-22,-173ZM389,-14c0,0,-172,0,-254,89c0,0,-83,90,-83,279c0,0,0,184,79,274c0,0,79,91,238,91c0,0,142,0,206,-76c0,0,64,-76,64,-237V345H271V333c0,0,0,-111,18,-158c0,0,18,-47,58,-72c0,0,40,-25,110,-25c0,0,66,0,166,22V42C623,42,582,18,517,1c0,0,-66,-15,-128,-15Z" 
id="f4_g"
transform="scale(0.001,-0.001)" />

<path d="M41,0V49l69,18V634L41,652v49H313l11,-61l50,26c0,0,105,54,188,54c0,0,194,0,194,-207V67L827,49V0H478V49l63,18V484c0,0,0,63,-27,98c0,0,-26,35,-75,35c0,0,-57,0,-114,-25V67L389,49V0Z" 
id="f4_2"
transform="scale(0.001,-0.001)" />

<path d="M360,-256c0,0,108,0,167,35c0,0,59,35,59,98c0,0,0,70,-95,70H254c0,0,-65,-47,-65,-108c0,0,0,-47,46,-71c0,0,45,-24,125,-24Zm9,561c0,0,55,0,79,43c0,0,25,43,25,129c0,0,0,87,-24,127c0,0,-25,41,-80,41c0,0,-52,0,-75,-41c0,0,-24,-40,-24,-127c0,0,0,-86,23,-129c0,0,23,-43,76,-43Zm-9,-641c0,0,-153,0,-236,43c0,0,-84,44,-84,120c0,0,0,33,28,65c0,0,27,31,105,76c0,0,-44,17,-75,59c0,0,-31,43,-31,90L192,258c0,0,-133,56,-133,219c0,0,0,116,81,180c0,0,82,63,233,63c0,0,32,0,82,-6c0,0,51,-6,74,-13l168,83l26,-32L638,631c0,0,46,-57,46,-154c0,0,0,-119,-80,-182c0,0,-80,-64,-234,-64c0,0,-59,0,-114,9L238,183c0,0,1,-22,28,-41c0,0,26,-19,64,-19H493c0,0,256,0,256,-196c0,0,0,-81,-44,-139c0,0,-45,-59,-131,-92c0,0,-86,-32,-214,-32Z" 
id="f4_j"
transform="scale(0.001,-0.001)" />

<path d="M379,60c0,0,59,0,84,64c0,0,24,65,24,231c0,0,0,164,-24,227c0,0,-24,63,-84,63c0,0,-57,0,-80,-60c0,0,-22,-61,-22,-230c0,0,0,-173,23,-234c0,0,22,-61,79,-61Zm-2,-74c0,0,-161,0,-240,91c0,0,-79,91,-79,277c0,0,0,186,80,276c0,0,81,90,245,90c0,0,167,0,245,-93c0,0,78,-93,78,-273c0,0,0,-188,-81,-278c0,0,-81,-90,-248,-90Z" 
id="f4_4"
transform="scale(0.001,-0.001)" />

<path d="M41,0V49l69,18V634L41,652v49H313l11,-61l50,26c0,0,105,54,188,54c0,0,125,0,167,-91c0,0,153,91,258,91c0,0,189,0,189,-207V67l71,-17V0H898V50l63,17V484c0,0,0,63,-24,98c0,0,-25,35,-74,35c0,0,-55,0,-119,-31c0,0,7,-32,7,-73V67L821,50V0H473V50l63,17V484c0,0,0,63,-25,98c0,0,-24,35,-73,35c0,0,-49,0,-113,-29V67L389,49V0Z" 
id="f4_6"
transform="scale(0.001,-0.001)" />

<path d="M34,0V49l76,18V634L38,652v49H325V67L402,49V0ZM217,831c0,0,-48,0,-81,33c0,0,-34,33,-34,82c0,0,0,48,34,81c0,0,34,33,81,33c0,0,48,0,81,-33c0,0,33,-33,33,-81c0,0,0,-47,-33,-81c0,0,-32,-34,-81,-34Z" 
id="f4_b"
transform="scale(0.001,-0.001)" />

<path d="M416,68c0,0,60,0,124,32V628c0,0,-58,15,-118,15c0,0,-67,0,-104,-73c0,0,-38,-73,-38,-216c0,0,0,-139,36,-212c0,0,35,-74,100,-74ZM369,-14c0,0,-155,0,-231,88c0,0,-76,90,-76,274c0,0,0,182,82,277c0,0,81,95,236,95c0,0,82,0,165,-20c0,0,-5,24,-5,115V992l-72,18v50H756V67L833,49V0H562L547,40C547,40,505,13,483,4c0,0,-23,-7,-51,-12c0,0,-28,-6,-63,-6Z" 
id="f4_9"
transform="scale(0.001,-0.001)" />

<path d="M41,0V34L426,641H261c0,0,-42,0,-80,-7c0,0,-39,-7,-54,-19L104,515H69V701H586V665L201,60H407c0,0,42,0,89,10c0,0,47,10,66,25l39,147h35L617,0Z" 
id="f0_t"
transform="scale(0.001,-0.001)" />

<path d="M377,44c0,0,99,0,147,73c0,0,47,73,47,237c0,0,0,161,-47,234c0,0,-47,72,-147,72c0,0,-97,0,-141,-69c0,0,-44,-70,-44,-237c0,0,0,-169,45,-239c0,0,44,-71,140,-71Zm0,-58c0,0,-158,0,-238,94c0,0,-81,95,-81,274c0,0,0,178,81,272c0,0,80,94,244,94c0,0,160,0,241,-92c0,0,82,-92,82,-274c0,0,0,-368,-329,-368ZM301,835v24l147,203H606v-27L342,835Z" 
id="f0_g"
transform="scale(0.001,-0.001)" />

<path d="M13,0V34L95,46L325,350L122,649L40,668v33H357V668L264,648L399,446L554,649l-96,19v33H710V668L630,652L433,397L663,50L745,34V0H427V34l94,17L359,299L169,50L266,34V0Z" 
id="f0_1j"
transform="scale(0.001,-0.001)" />

<path d="M383,64c0,0,44,0,87,7c0,0,43,7,65,17V645c0,0,-67,13,-152,13c0,0,-194,0,-194,-309c0,0,0,-143,48,-214c0,0,47,-71,146,-71Zm56,-389v35l96,18V-77c0,0,0,73,7,124c0,0,-79,-61,-200,-61c0,0,-287,0,-287,362c0,0,0,180,81,276c0,0,81,96,237,96c0,0,84,0,166,-18l67,33h53V-272l77,-18v-35Z" 
id="f0_l"
transform="scale(0.001,-0.001)" />

<path d="M64,-325c0,0,-46,0,-107,14v148H-8l19,-81c0,0,25,-21,62,-21c0,0,44,0,67,47c0,0,22,47,22,152V649L57,668v33H286V-28c0,0,0,-146,-57,-221c0,0,-56,-76,-165,-76ZM213,850c0,0,-34,0,-58,24c0,0,-24,24,-24,56c0,0,0,34,24,58c0,0,24,24,58,24c0,0,32,0,56,-24c0,0,24,-24,24,-58c0,0,0,-32,-24,-56c0,0,-24,-24,-56,-24Z" 
id="f0_u"
transform="scale(0.001,-0.001)" />

<path d="M497,-366V373c0,0,0,165,-40,225c0,0,-39,60,-155,60H66V836H300c0,0,131,0,215,-23c0,0,84,-23,135,-78c0,0,52,-56,73,-141c0,0,21,-86,21,-221V-366Z" 
id="f3_u"
transform="scale(0.001,-0.001)" />

<path d="M137,0L30,830H277L321,522c0,0,68,3,96,27c0,0,27,23,38,58c0,0,26,74,31,228H733c0,0,-31,-218,-70,-316c0,0,-23,-59,-88,-100c0,0,-54,-34,-116,-42c0,0,-62,-8,-117,-8L362,178c0,0,27,-1,61,-1c40,0,89,1,119,6c0,0,57,8,94,25c0,0,37,18,69,47c0,0,32,30,60,79c0,0,28,48,51,117c0,0,48,143,82,384h248c0,0,-53,-404,-172,-586C974,249,879,103,745,51C745,51,613,0,318,0Z" 
id="f3_q"
transform="scale(0.001,-0.001)" />

<path d="M66,0V106H564L66,836H228L516,413c0,0,3,2,9,6c0,0,17,13,27,21c0,0,10,8,26,27c0,0,17,20,26,40c0,0,9,21,16,54c0,0,7,34,7,75V836H764V698c0,0,0,-55,-7,-102c0,0,-7,-47,-16,-79c0,0,-10,-33,-27,-62c0,0,-18,-29,-32,-46c0,0,-14,-17,-37,-35c0,0,-22,-17,-36,-25c0,0,-13,-8,-36,-20L767,53V0Z" 
id="f2_s"
transform="scale(0.001,-0.001)" />

<path d="M58,-234v58c0,0,131,42,131,125c0,0,0,15,-11,27c0,0,-11,12,-38,25C140,1,89,27,89,75c0,0,0,40,25,61c0,0,26,21,65,21c0,0,48,0,77,-34c0,0,30,-34,30,-86c0,0,0,-101,-60,-170c0,0,-59,-69,-168,-101Z" 
id="f0_z"
transform="scale(0.001,-0.001)" />

<path d="M32,0V34L151,52V649L52,668v33H275V52L395,34V0Zm71,835v24l146,203H408v-27L144,835Z" 
id="f0_p"
transform="scale(0.001,-0.001)" />

<path d="M209,0V90H418V992L187,854V966l279,168H701V90H910V0Z" 
id="f1_a"
transform="scale(0.001,-0.001)" />

<path d="M531,66c0,0,90,0,123,81c0,0,33,81,33,409c0,0,0,325,-33,408c0,0,-33,83,-123,83c0,0,-89,0,-122,-81c0,0,-34,-82,-34,-410c0,0,0,-328,34,-409c0,0,33,-81,122,-81Zm1,-86c0,0,-223,0,-342,147C190,127,71,276,71,556c0,0,0,280,119,429c0,0,119,149,342,149c0,0,222,0,341,-149c0,0,118,-149,118,-429c0,0,0,-280,-118,-429C873,127,754,-20,532,-20Z" 
id="f1_o"
transform="scale(0.001,-0.001)" />

<path d="M522,92c0,0,247,0,247,333c0,0,0,88,-17,146c0,0,-17,58,-53,91c0,0,-35,33,-82,46c0,0,-48,14,-116,14H276V419c0,0,0,-327,246,-327Zm0,-112c0,0,-193,0,-289,109c0,0,-95,110,-95,337V836H501c0,0,213,0,309,-93c0,0,96,-94,96,-317c0,0,0,-227,-95,-337C811,89,715,-20,522,-20Z" 
id="f2_g"
transform="scale(0.001,-0.001)" />

<path d="M156,-317V454l139,56V-317ZM505,0L806,729H139V835H967V753L650,0Z" 
id="f2_6"
transform="scale(0.001,-0.001)" />

<path d="M700,-317V454c0,0,0,155,-54,215c0,0,-54,60,-180,60H277V551c0,0,0,-55,26,-80c0,0,27,-26,82,-26c0,0,30,0,80,10V341c0,0,-61,-11,-111,-11c0,0,-100,0,-157,55c0,0,-58,55,-58,186V836H466c0,0,203,0,288,-91c0,0,85,-92,85,-293V-317Z" 
id="f2_10"
transform="scale(0.001,-0.001)" />


</defs>
</svg>