<?xml version="1.0" encoding="UTF-8" standalone="no"?>
<!DOCTYPE svg PUBLIC "-//W3C//DTD SVG 1.1//EN"
"http://www.w3.org/Graphics/SVG/1.1/DTD/svg11.dtd">
<svg viewBox="0 0 909 1286" version="1.1" xmlns="http://www.w3.org/2000/svg" xmlns:xlink="http://www.w3.org/1999/xlink">
<defs>
<clipPath id="c0_2"><path d="M0,1286.2V0H909.4V1286.2Z" /></clipPath>
</defs>
<g clip-path="url(#c0_2)">
<g fill="#000000" >
<use xlink:href="#f0_n" transform="matrix(12,0,0,12,138.3,127.1)" />
<use xlink:href="#f0_o" transform="matrix(12,0,0,12,144.1,127.1)" />
<use xlink:href="#f0_3" transform="matrix(12,0,0,12,156.3,127.1)" />
<use xlink:href="#f0_3" transform="matrix(12,0,0,12,160.4,127.1)" />
<use xlink:href="#f0_e" transform="matrix(12,0,0,12,164.5,127.1)" />
<use xlink:href="#f0_7" transform="matrix(12,0,0,12,176.9,127.1)" />
<use xlink:href="#f0_8" transform="matrix(12,0,0,12,181.9,127.1)" />
<use xlink:href="#f0_e" transform="matrix(12,0,0,12,194.9,127.1)" />
<use xlink:href="#f0_4" transform="matrix(12,0,0,12,207.4,127.1)" />
<use xlink:href="#f0_i" transform="matrix(12,0,0,12,225.7,127.1)" />
<use xlink:href="#f0_3" transform="matrix(12,0,0,12,235.7,127.1)" />
<use xlink:href="#f0_e" transform="matrix(12,0,0,12,239.8,127.1)" />
<use xlink:href="#f0_a" transform="matrix(12,0,0,12,252.2,127.1)" />
<use xlink:href="#f0_b" transform="matrix(12,0,0,12,272.4,127.1)" />
<use xlink:href="#f0_7" transform="matrix(12,0,0,12,282.6,127.1)" />
<use xlink:href="#f0_b" transform="matrix(12,0,0,12,287.6,127.1)" />
<use xlink:href="#f0_d" transform="matrix(12,0,0,12,298,127.1)" />
<use xlink:href="#f0_j" transform="matrix(12,0,0,12,316.6,127.1)" />
<use xlink:href="#f0_4" transform="matrix(12,0,0,12,328.8,127.1)" />
<use xlink:href="#f0_t" transform="matrix(12,0,0,12,347.4,127.1)" />
<use xlink:href="#f0_r" transform="matrix(12,0,0,12,353.2,127.1)" />
<use xlink:href="#f0_7" transform="matrix(12,0,0,12,365.1,127.1)" />
<use xlink:href="#f0_8" transform="matrix(12,0,0,12,370.2,127.1)" />
<use xlink:href="#f0_4" transform="matrix(12,0,0,12,383.1,127.1)" />
<use xlink:href="#f0_4" transform="matrix(12,0,0,12,393.5,127.1)" />
<use xlink:href="#f0_2" transform="matrix(12,0,0,12,412,127.1)" />
<use xlink:href="#f0_7" transform="matrix(12,0,0,12,421.8,127.1)" />
<use xlink:href="#f0_h" transform="matrix(12,0,0,12,426.8,127.1)" />
<use xlink:href="#f0_r" transform="matrix(12,0,0,12,438.7,127.1)" />
<use xlink:href="#f0_4" transform="matrix(12,0,0,12,450.6,127.1)" />
<use xlink:href="#f0_p" transform="matrix(12,0,0,12,469,127.1)" />
<use xlink:href="#f0_a" transform="matrix(12,0,0,12,473.9,127.1)" />
<use xlink:href="#f0_b" transform="matrix(12,0,0,12,486,127.1)" />
<use xlink:href="#f0_k" transform="matrix(12,0,0,12,496.4,127.1)" />
<use xlink:href="#f0_e" transform="matrix(12,0,0,12,508.1,127.1)" />
<use xlink:href="#f0_p" transform="matrix(12,0,0,12,528.7,127.1)" />
<use xlink:href="#f0_7" transform="matrix(12,0,0,12,533.7,127.1)" />
<use xlink:href="#f0_f" transform="matrix(12,0,0,12,538.8,127.1)" />
<use xlink:href="#f0_h" transform="matrix(12,0,0,12,548.4,127.1)" />
<use xlink:href="#f0_3" transform="matrix(12,0,0,12,560.3,127.1)" />
<use xlink:href="#f0_r" transform="matrix(12,0,0,12,564.4,127.1)" />
<use xlink:href="#f0_a" transform="matrix(12,0,0,12,584.2,127.1)" />
<use xlink:href="#f0_7" transform="matrix(12,0,0,12,596.2,127.1)" />
<use xlink:href="#f0_l" transform="matrix(12,0,0,12,601.3,127.1)" />
<use xlink:href="#f0_3" transform="matrix(12,0,0,12,607.5,127.1)" />
<use xlink:href="#f0_b" transform="matrix(12,0,0,12,611.6,127.1)" />
<use xlink:href="#f0_j" transform="matrix(12,0,0,12,622,127.1)" />
<use xlink:href="#f0_3" transform="matrix(12,0,0,12,642.3,127.1)" />
<use xlink:href="#f0_f" transform="matrix(12,0,0,12,646.4,127.1)" />
<use xlink:href="#f0_b" transform="matrix(12,0,0,12,664.1,127.1)" />
<use xlink:href="#f0_e" transform="matrix(12,0,0,12,674.5,127.1)" />
<use xlink:href="#f0_7" transform="matrix(12,0,0,12,686.9,127.1)" />
<use xlink:href="#f0_j" transform="matrix(12,0,0,12,691.9,127.1)" />
<use xlink:href="#f0_7" transform="matrix(12,0,0,12,704.1,127.1)" />
<use xlink:href="#f0_3" transform="matrix(12,0,0,12,717.2,127.1)" />
<use xlink:href="#f0_4" transform="matrix(12,0,0,12,721.3,127.1)" />
<use xlink:href="#f0_j" transform="matrix(12,0,0,12,731.7,127.1)" />
<use xlink:href="#f0_b" transform="matrix(12,0,0,12,743.9,127.1)" />
<use xlink:href="#f0_9" transform="matrix(12,0,0,12,754.2,127.1)" />
<use xlink:href="#f0_3" transform="matrix(12,0,0,12,767.1,127.1)" />
<use xlink:href="#f0_n" transform="matrix(12,0,0,12,138.1,148.5)" />
<use xlink:href="#f0_b" transform="matrix(12,0,0,12,143.9,148.5)" />
<use xlink:href="#f0_d" transform="matrix(12,0,0,12,154.3,148.5)" />
<use xlink:href="#f0_i" transform="matrix(12,0,0,12,164.8,148.5)" />
<use xlink:href="#f0_d" transform="matrix(12,0,0,12,174.9,148.5)" />
<use xlink:href="#f0_7" transform="matrix(12,0,0,12,193.1,148.5)" />
<use xlink:href="#f0_b" transform="matrix(12,0,0,12,198.1,148.5)" />
<use xlink:href="#f0_l" transform="matrix(12,0,0,12,208.5,148.5)" />
<use xlink:href="#f0_5" transform="matrix(12,0,0,12,214.7,148.5)" />
<use xlink:href="#f0_3" transform="matrix(12,0,0,12,226.2,148.5)" />
<use xlink:href="#f0_j" transform="matrix(12,0,0,12,238.1,148.5)" />
<use xlink:href="#f0_4" transform="matrix(12,0,0,12,250.3,148.5)" />
<use xlink:href="#f0_t" transform="matrix(12,0,0,12,268.3,148.5)" />
<use xlink:href="#f0_p" transform="matrix(12,0,0,12,274.1,148.5)" />
<use xlink:href="#f0_7" transform="matrix(12,0,0,12,279.1,148.5)" />
<use xlink:href="#f0_3" transform="matrix(12,0,0,12,284.2,148.5)" />
<use xlink:href="#f0_u" transform="matrix(12,0,0,12,288.3,148.5)" />
<use xlink:href="#f0_c" transform="matrix(12,0,0,12,295.7,148.5)" />
<use xlink:href="#f0_b" transform="matrix(12,0,0,12,315.3,148.5)" />
<use xlink:href="#f0_h" transform="matrix(12,0,0,12,325.6,148.5)" />
<use xlink:href="#f0_r" transform="matrix(12,0,0,12,337.5,148.5)" />
<use xlink:href="#f0_a" transform="matrix(12,0,0,12,357.1,148.5)" />
<use xlink:href="#f0_7" transform="matrix(12,0,0,12,369.1,148.5)" />
<use xlink:href="#f0_q" transform="matrix(12,0,0,12,374.1,148.5)" />
<use xlink:href="#f0_7" transform="matrix(12,0,0,12,381.5,148.5)" />
<use xlink:href="#f0_9" transform="matrix(12,0,0,12,386.5,148.5)" />
<use xlink:href="#f0_c" transform="matrix(12,0,0,12,399.5,148.5)" />
<use xlink:href="#f0_a" transform="matrix(12,0,0,12,419,148.5)" />
<use xlink:href="#f0_7" transform="matrix(12,0,0,12,431,148.5)" />
<use xlink:href="#f0_l" transform="matrix(12,0,0,12,436.1,148.5)" />
<use xlink:href="#f0_3" transform="matrix(12,0,0,12,442.5,148.5)" />
<use xlink:href="#f0_b" transform="matrix(12,0,0,12,446.6,148.5)" />
<use xlink:href="#f0_j" transform="matrix(12,0,0,12,456.9,148.5)" />
<use xlink:href="#f0_c" transform="matrix(12,0,0,12,469.2,148.5)" />
<use xlink:href="#f0_b" transform="matrix(12,0,0,12,488.7,148.5)" />
<use xlink:href="#f0_3" transform="matrix(12,0,0,12,498.9,148.5)" />
<use xlink:href="#f0_r" transform="matrix(12,0,0,12,503,148.5)" />
<use xlink:href="#f0_e" transform="matrix(12,0,0,12,515,148.5)" />
<use xlink:href="#f0_3" transform="matrix(12,0,0,12,535.2,148.5)" />
<use xlink:href="#f0_f" transform="matrix(12,0,0,12,539.3,148.5)" />
<use xlink:href="#f0_b" transform="matrix(12,0,0,12,556.6,148.5)" />
<use xlink:href="#f0_f" transform="matrix(12,0,0,12,566.9,148.5)" />
<use xlink:href="#f0_7" transform="matrix(12,0,0,12,576.6,148.5)" />
<use xlink:href="#f0_e" transform="matrix(12,0,0,12,581.6,148.5)" />
<use xlink:href="#f0_4" transform="matrix(12,0,0,12,594,148.5)" />
<use xlink:href="#f0_b" transform="matrix(12,0,0,12,612.1,148.5)" />
<use xlink:href="#f0_3" transform="matrix(12,0,0,12,622.5,148.5)" />
<use xlink:href="#f0_d" transform="matrix(12,0,0,12,626.6,148.5)" />
<use xlink:href="#f0_h" transform="matrix(12,0,0,12,637.1,148.5)" />
<use xlink:href="#f0_c" transform="matrix(12,0,0,12,649,148.5)" />
<use xlink:href="#f0_4" transform="matrix(12,0,0,12,661,148.5)" />
<use xlink:href="#f0_a" transform="matrix(12,0,0,12,679,148.5)" />
<use xlink:href="#f0_7" transform="matrix(12,0,0,12,691,148.5)" />
<use xlink:href="#f0_q" transform="matrix(12,0,0,12,696,148.5)" />
<use xlink:href="#f0_7" transform="matrix(12,0,0,12,703.4,148.5)" />
<use xlink:href="#f0_3" transform="matrix(12,0,0,12,708.3,148.5)" />
<use xlink:href="#f0_h" transform="matrix(12,0,0,12,712.4,148.5)" />
<use xlink:href="#f0_q" transform="matrix(12,0,0,12,724.3,148.5)" />
<use xlink:href="#f0_c" transform="matrix(12,0,0,12,731.6,148.5)" />
<use xlink:href="#f0_4" transform="matrix(12,0,0,12,751.3,148.5)" />
<use xlink:href="#f0_f" transform="matrix(12,0,0,12,761.7,148.5)" />
<use xlink:href="#f0_b" transform="matrix(12,0,0,12,183.8,169.9)" />
<use xlink:href="#f0_7" transform="matrix(12,0,0,12,194.2,169.9)" />
<use xlink:href="#f0_b" transform="matrix(12,0,0,12,199.2,169.9)" />
<use xlink:href="#f0_d" transform="matrix(12,0,0,12,209.6,169.9)" />
<use xlink:href="#f0_d" transform="matrix(12,0,0,12,220.1,169.9)" />
<use xlink:href="#f0_o" transform="matrix(12,0,0,12,237.6,169.9)" />
<use xlink:href="#f0_7" transform="matrix(12,0,0,12,249.8,169.9)" />
<use xlink:href="#f0_9" transform="matrix(12,0,0,12,254.7,169.9)" />
<use xlink:href="#f0_b" transform="matrix(12,0,0,12,267.7,169.9)" />
<use xlink:href="#f0_x" transform="matrix(12,0,0,12,285.1,169.9)" />
<use xlink:href="#f0_7" transform="matrix(12,0,0,12,292.3,169.9)" />
<use xlink:href="#f0_b" transform="matrix(12,0,0,12,297.1,169.9)" />
<use xlink:href="#f0_m" transform="matrix(12,0,0,12,307.5,169.9)" />
<use xlink:href="#f0_a" transform="matrix(12,0,0,12,326,169.9)" />
<use xlink:href="#f0_q" transform="matrix(12,0,0,12,337.9,169.9)" />
<use xlink:href="#f0_3" transform="matrix(12,0,0,12,345.2,169.9)" />
<use xlink:href="#f0_i" transform="matrix(12,0,0,12,349.3,169.9)" />
<use xlink:href="#f0_e" transform="matrix(12,0,0,12,359.4,169.9)" />
<use xlink:href="#f0_d" transform="matrix(12,0,0,12,371.9,169.9)" />
<use xlink:href="#f0_i" transform="matrix(12,0,0,12,389.3,169.9)" />
<use xlink:href="#f0_7" transform="matrix(12,0,0,12,399.3,169.9)" />
<use xlink:href="#f0_c" transform="matrix(12,0,0,12,404.4,169.9)" />
<use xlink:href="#f0_j" transform="matrix(12,0,0,12,416.3,169.9)" />
<use xlink:href="#f0_c" transform="matrix(12,0,0,12,435.6,169.9)" />
<use xlink:href="#f0_q" transform="matrix(12,0,0,12,447.6,169.9)" />
<use xlink:href="#f0_q" transform="matrix(12,0,0,12,454.9,169.9)" />
<use xlink:href="#f0_d" transform="matrix(12,0,0,12,462.2,169.9)" />
<use xlink:href="#f0_l" transform="matrix(12,0,0,12,479.7,169.9)" />
<use xlink:href="#f0_7" transform="matrix(12,0,0,12,486,169.9)" />
<use xlink:href="#f0_l" transform="matrix(12,0,0,12,491,169.9)" />
<use xlink:href="#f0_u" transform="matrix(12,0,0,12,497.4,169.9)" />
<use xlink:href="#f0_v" transform="matrix(12,0,0,12,504.9,169.9)" />
<use xlink:href="#f0_w" transform="matrix(12,0,0,12,519.1,169.9)" />
<use xlink:href="#f0_c" transform="matrix(12,0,0,12,527.5,169.9)" />
<use xlink:href="#f0_4" transform="matrix(12,0,0,12,539.4,169.9)" />
<use xlink:href="#f0_7" transform="matrix(12,0,0,12,549.8,169.9)" />
<use xlink:href="#f0_8" transform="matrix(12,0,0,12,554.8,169.9)" />
<use xlink:href="#f0_c" transform="matrix(12,0,0,12,574.8,169.9)" />
<use xlink:href="#f0_8" transform="matrix(12,0,0,12,586.7,169.9)" />
<use xlink:href="#f0_q" transform="matrix(12,0,0,12,599.7,169.9)" />
<use xlink:href="#f0_3" transform="matrix(12,0,0,12,607,169.9)" />
<use xlink:href="#f0_j" transform="matrix(12,0,0,12,611.1,169.9)" />
<use xlink:href="#f0_w" transform="matrix(12,0,0,12,623.4,169.9)" />
<use xlink:href="#f0_c" transform="matrix(12,0,0,12,638.9,169.9)" />
<use xlink:href="#f0_a" transform="matrix(12,0,0,12,657.7,169.9)" />
<use xlink:href="#f0_l" transform="matrix(12,0,0,12,669.7,169.9)" />
<use xlink:href="#f0_3" transform="matrix(12,0,0,12,676.1,169.9)" />
<use xlink:href="#f0_b" transform="matrix(12,0,0,12,680.2,169.9)" />
<use xlink:href="#f0_j" transform="matrix(12,0,0,12,690.6,169.9)" />
<use xlink:href="#f0_d" transform="matrix(12,0,0,12,702.8,169.9)" />
<use xlink:href="#f0_o" transform="matrix(12,0,0,12,720.4,169.9)" />
<use xlink:href="#f0_j" transform="matrix(12,0,0,12,732.4,169.9)" />
<use xlink:href="#f0_o" transform="matrix(12,0,0,12,751.6,169.9)" />
<use xlink:href="#f0_u" transform="matrix(12,0,0,12,763.8,169.9)" />
<use xlink:href="#f0_14" transform="matrix(12,0,0,12,137.5,169.9)" />
<use xlink:href="#f0_15" transform="matrix(12,0,0,12,149.1,169.9)" />
<use xlink:href="#f0_13" transform="matrix(12,0,0,12,164.5,169.9)" />
<use xlink:href="#f0_4" transform="matrix(12,0,0,12,138.1,191.3)" />
<use xlink:href="#f0_3" transform="matrix(12,0,0,12,148.5,191.3)" />
<use xlink:href="#f0_m" transform="matrix(12,0,0,12,152.6,191.3)" />
<use xlink:href="#f0_f" transform="matrix(12,0,0,12,164.1,191.3)" />
<use xlink:href="#f0_3" transform="matrix(12,0,0,12,173.7,191.3)" />
<use xlink:href="#f0_t" transform="matrix(12,0,0,12,185.7,191.3)" />
<use xlink:href="#f0_b" transform="matrix(12,0,0,12,191.5,191.3)" />
<use xlink:href="#f0_d" transform="matrix(12,0,0,12,201.9,191.3)" />
<use xlink:href="#f0_h" transform="matrix(12,0,0,12,212.4,191.3)" />
<use xlink:href="#f0_c" transform="matrix(12,0,0,12,224.3,191.3)" />
<use xlink:href="#f0_9" transform="matrix(12,0,0,12,244,191.3)" />
<use xlink:href="#f0_8" transform="matrix(12,0,0,12,257,191.3)" />
<use xlink:href="#f0_d" transform="matrix(12,0,0,12,270,191.3)" />
<use xlink:href="#f0_a" transform="matrix(12,0,0,12,280.5,191.3)" />
<use xlink:href="#f0_7" transform="matrix(12,0,0,12,300.2,191.3)" />
<use xlink:href="#f0_4" transform="matrix(12,0,0,12,305.2,191.3)" />
<use xlink:href="#f0_7" transform="matrix(12,0,0,12,315.6,191.3)" />
<use xlink:href="#f0_t" transform="matrix(12,0,0,12,328.4,191.3)" />
<use xlink:href="#f0_9" transform="matrix(12,0,0,12,334.2,191.3)" />
<use xlink:href="#f0_9" transform="matrix(12,0,0,12,347.2,191.3)" />
<use xlink:href="#f0_c" transform="matrix(12,0,0,12,360.2,191.3)" />
<use xlink:href="#f0_4" transform="matrix(12,0,0,12,379.8,191.3)" />
<use xlink:href="#f0_f" transform="matrix(12,0,0,12,390.2,191.3)" />
<use xlink:href="#f0_4" transform="matrix(12,0,0,12,407.6,191.3)" />
<use xlink:href="#f0_5" transform="matrix(12,0,0,12,418,191.3)" />
<use xlink:href="#f0_j" transform="matrix(12,0,0,12,437.2,191.3)" />
<use xlink:href="#f0_4" transform="matrix(12,0,0,12,449.4,191.3)" />
<use xlink:href="#f0_e" transform="matrix(12,0,0,12,459.8,191.3)" />
<use xlink:href="#f0_b" transform="matrix(12,0,0,12,480.1,191.3)" />
<use xlink:href="#f0_3" transform="matrix(12,0,0,12,490.4,191.3)" />
<use xlink:href="#f0_r" transform="matrix(12,0,0,12,494.5,191.3)" />
<use xlink:href="#f0_e" transform="matrix(12,0,0,12,506.4,191.3)" />
<use xlink:href="#f0_o" transform="matrix(12,0,0,12,526.7,191.3)" />
<use xlink:href="#f0_3" transform="matrix(12,0,0,12,538.7,191.3)" />
<use xlink:href="#f0_a" transform="matrix(12,0,0,12,542.9,191.3)" />
<use xlink:href="#f0_3" transform="matrix(12,0,0,12,554.9,191.3)" />
<use xlink:href="#f0_5" transform="matrix(12,0,0,12,559,191.3)" />
<use xlink:href="#f0_4" transform="matrix(12,0,0,12,570.5,191.3)" />
<use xlink:href="#f0_b" transform="matrix(12,0,0,12,588.6,191.3)" />
<use xlink:href="#f0_f" transform="matrix(12,0,0,12,599,191.3)" />
<use xlink:href="#f0_7" transform="matrix(12,0,0,12,608.6,191.3)" />
<use xlink:href="#f0_e" transform="matrix(12,0,0,12,613.6,191.3)" />
<use xlink:href="#f0_c" transform="matrix(12,0,0,12,626.1,191.3)" />
<use xlink:href="#f0_2" transform="matrix(12,0,0,12,645.7,191.3)" />
<use xlink:href="#f0_e" transform="matrix(12,0,0,12,655.4,191.3)" />
<use xlink:href="#f0_e" transform="matrix(12,0,0,12,667.9,191.3)" />
<use xlink:href="#f0_c" transform="matrix(12,0,0,12,688.2,191.3)" />
<use xlink:href="#f0_d" transform="matrix(12,0,0,12,700.1,191.3)" />
<use xlink:href="#f0_u" transform="matrix(12,0,0,12,710.7,191.3)" />
<use xlink:href="#f0_3" transform="matrix(12,0,0,12,718.2,191.3)" />
<use xlink:href="#f0_t" transform="matrix(12,0,0,12,730,191.3)" />
<use xlink:href="#f0_o" transform="matrix(12,0,0,12,735.9,191.3)" />
<use xlink:href="#f0_q" transform="matrix(12,0,0,12,748.1,191.3)" />
<use xlink:href="#f0_3" transform="matrix(12,0,0,12,755.4,191.3)" />
<use xlink:href="#f0_r" transform="matrix(12,0,0,12,759.5,191.3)" />
<use xlink:href="#f0_n" transform="matrix(12,0,0,12,215.6,212.7)" />
<use xlink:href="#f0_4" transform="matrix(12,0,0,12,221.4,212.7)" />
<use xlink:href="#f0_7" transform="matrix(12,0,0,12,231.8,212.7)" />
<use xlink:href="#f0_i" transform="matrix(12,0,0,12,236.7,212.7)" />
<use xlink:href="#f0_u" transform="matrix(12,0,0,12,246.7,212.7)" />
<use xlink:href="#f0_p" transform="matrix(12,0,0,12,260,212.7)" />
<use xlink:href="#f0_7" transform="matrix(12,0,0,12,265.1,212.7)" />
<use xlink:href="#f0_r" transform="matrix(12,0,0,12,270.1,212.7)" />
<use xlink:href="#f0_s" transform="matrix(12,0,0,12,282,212.7)" />
<use xlink:href="#f0_3" transform="matrix(12,0,0,12,292.8,212.7)" />
<use xlink:href="#f0_q" transform="matrix(12,0,0,12,297,212.7)" />
<use xlink:href="#f0_2" transform="matrix(12,0,0,12,310.2,212.7)" />
<use xlink:href="#f0_7" transform="matrix(12,0,0,12,320,212.7)" />
<use xlink:href="#f0_3" transform="matrix(12,0,0,12,325,212.7)" />
<use xlink:href="#f0_r" transform="matrix(12,0,0,12,329.1,212.7)" />
<use xlink:href="#f0_2" transform="matrix(12,0,0,12,346.9,212.7)" />
<use xlink:href="#f0_3" transform="matrix(12,0,0,12,356.6,212.7)" />
<use xlink:href="#f0_3" transform="matrix(12,0,0,12,360.7,212.7)" />
<use xlink:href="#f0_r" transform="matrix(12,0,0,12,364.8,212.7)" />
<use xlink:href="#f0_3" transform="matrix(12,0,0,12,376.8,212.7)" />
<use xlink:href="#f0_7" transform="matrix(12,0,0,12,380.9,212.7)" />
<use xlink:href="#f0_c" transform="matrix(12,0,0,12,391.7,212.7)" />
<use xlink:href="#f0_i" transform="matrix(12,0,0,12,403.6,212.7)" />
<use xlink:href="#f0_3" transform="matrix(12,0,0,12,413.7,212.7)" />
<use xlink:href="#f0_r" transform="matrix(12,0,0,12,417.8,212.7)" />
<use xlink:href="#f0_3" transform="matrix(12,0,0,12,429.7,212.7)" />
<use xlink:href="#f0_4" transform="matrix(12,0,0,12,439.7,212.7)" />
<use xlink:href="#f0_f" transform="matrix(12,0,0,12,450.1,212.7)" />
<use xlink:href="#f0_b" transform="matrix(12,0,0,12,465.6,212.7)" />
<use xlink:href="#f0_3" transform="matrix(12,0,0,12,476,212.7)" />
<use xlink:href="#f0_r" transform="matrix(12,0,0,12,480.1,212.7)" />
<use xlink:href="#f0_e" transform="matrix(12,0,0,12,491.8,212.7)" />
<use xlink:href="#f0_a" transform="matrix(12,0,0,12,510.3,212.7)" />
<use xlink:href="#f0_j" transform="matrix(12,0,0,12,522.4,212.7)" />
<use xlink:href="#f0_9" transform="matrix(12,0,0,12,540.4,212.7)" />
<use xlink:href="#f0_9" transform="matrix(12,0,0,12,553.4,212.7)" />
<use xlink:href="#f0_4" transform="matrix(12,0,0,12,572.2,212.7)" />
<use xlink:href="#f0_7" transform="matrix(12,0,0,12,582.6,212.7)" />
<use xlink:href="#f0_m" transform="matrix(12,0,0,12,587.6,212.7)" />
<use xlink:href="#f0_f" transform="matrix(12,0,0,12,599,212.7)" />
<use xlink:href="#f0_7" transform="matrix(12,0,0,12,614.6,212.7)" />
<use xlink:href="#f0_q" transform="matrix(12,0,0,12,619.6,212.7)" />
<use xlink:href="#f0_7" transform="matrix(12,0,0,12,627,212.7)" />
<use xlink:href="#f0_d" transform="matrix(12,0,0,12,632,212.7)" />
<use xlink:href="#f0_9" transform="matrix(12,0,0,12,642.5,212.7)" />
<use xlink:href="#f0_r" transform="matrix(12,0,0,12,655.5,212.7)" />
<use xlink:href="#f0_e" transform="matrix(12,0,0,12,667.4,212.7)" />
<use xlink:href="#f0_d" transform="matrix(12,0,0,12,679.9,212.7)" />
<use xlink:href="#f0_b" transform="matrix(12,0,0,12,696.3,212.7)" />
<use xlink:href="#f0_f" transform="matrix(12,0,0,12,706.6,212.7)" />
<use xlink:href="#f0_7" transform="matrix(12,0,0,12,716.3,212.7)" />
<use xlink:href="#f0_e" transform="matrix(12,0,0,12,721.3,212.7)" />
<use xlink:href="#f0_c" transform="matrix(12,0,0,12,733.7,212.7)" />
<use xlink:href="#f0_2" transform="matrix(12,0,0,12,751.5,212.7)" />
<use xlink:href="#f0_4" transform="matrix(12,0,0,12,761.3,212.7)" />
<use xlink:href="#f0_16" transform="matrix(11,0,0,11,137.5,1208.9)" />
</g>
</g>
<defs>
<path d="M163,0V190H321V0Z" 
id="f0_n"
transform="scale(0.001,-0.001)" />

<path d="M736,107V473c0,0,0,147,-48,202c0,0,-49,54,-187,54H278V107ZM139,0V836H499c0,0,105,0,177,-22c0,0,72,-21,116,-69c0,0,44,-49,64,-119c0,0,19,-71,19,-174V0Z" 
id="f0_o"
transform="scale(0.001,-0.001)" />

<path d="M102,312V836H241V369L102,312Z" 
id="f0_3"
transform="scale(0.001,-0.001)" />

<path d="M114,0l60,312c0,0,2,12,8,39c0,0,6,27,7,37c0,0,2,11,5,30c0,0,2,19,4,33c0,0,1,15,1,31c0,0,0,48,-35,146c0,0,-35,98,-98,208H228c0,0,3,-8,27,-67c0,0,25,-58,41,-117c0,0,21,53,50,90c0,0,29,37,57,57c0,0,29,21,65,32c0,0,37,11,65,14c0,0,28,3,67,3c0,0,300,0,300,-396V0H480V106H761V452c0,0,0,146,-46,215c0,0,-45,70,-118,70c0,0,-134,0,-198,-119c0,0,-36,-68,-67,-222c0,0,-2,-10,-6,-27L253,0Z" 
id="f0_e"
transform="scale(0.001,-0.001)" />

<path d="M139,0V836H278V0Z" 
id="f0_7"
transform="scale(0.001,-0.001)" />

<path d="M156,-317V454l139,56V-317ZM505,0L806,729H139V835H967V753L650,0Z" 
id="f0_8"
transform="scale(0.001,-0.001)" />

<path d="M287,0L589,729H66v386H205V836l547,-1l-2,-82L433,0Z" 
id="f0_4"
transform="scale(0.001,-0.001)" />

<path d="M495,0V729H66V836H781V729H634V0Z" 
id="f0_i"
transform="scale(0.001,-0.001)" />

<path d="M112,-5c0,0,-39,0,-97,11V113c0,0,48,-10,77,-10c0,0,53,0,70,42c0,0,17,43,17,164V729H50V836H501c0,0,107,0,179,-25c0,0,72,-25,112,-77c0,0,40,-51,57,-118c0,0,16,-67,16,-164V0H726V454c0,0,0,55,-3,92c0,0,-4,37,-17,75c0,0,-14,38,-38,59c0,0,-24,22,-65,36c0,0,-42,13,-102,13H318V309c0,0,0,-160,-46,-237C272,72,226,-5,112,-5Z" 
id="f0_a"
transform="scale(0.001,-0.001)" />

<path d="M585,0V426c0,0,0,54,-8,98c0,0,-8,44,-27,83c0,0,-19,40,-49,66c0,0,-30,26,-77,41c0,0,-47,15,-108,15H66V836H315c0,0,94,0,166,-20c0,0,71,-20,116,-54c0,0,46,-35,75,-88c0,0,28,-52,40,-112c0,0,12,-60,12,-137V0Z" 
id="f0_b"
transform="scale(0.001,-0.001)" />

<path d="M66,0V107H554V452c0,0,0,56,-4,93c0,0,-4,37,-18,75c0,0,-14,38,-40,60c0,0,-26,22,-71,36c0,0,-45,13,-110,13H66V836H312c0,0,91,0,157,-17c0,0,66,-17,109,-49c0,0,44,-32,69,-84c0,0,26,-52,36,-114c0,0,10,-62,10,-147V107H817V0Z" 
id="f0_d"
transform="scale(0.001,-0.001)" />

<path d="M139,0V138c0,0,0,61,8,112c0,0,7,52,19,87c0,0,11,36,30,66c0,0,19,31,35,49c0,0,17,19,41,35c0,0,25,17,41,25c0,0,17,7,40,17L141,836H303L613,388c0,0,20,10,33,18c0,0,13,8,34,28c0,0,20,20,33,44c0,0,13,25,22,66c0,0,10,41,10,92V836H882V698c0,0,0,-61,-7,-112c0,0,-6,-52,-18,-88c0,0,-12,-36,-30,-66c0,0,-19,-30,-36,-49c0,0,-17,-18,-41,-34c0,0,-24,-17,-40,-25c0,0,-17,-8,-41,-17L882,0H720L409,448c0,0,-21,-11,-34,-19c0,0,-13,-8,-34,-27c0,0,-21,-20,-34,-44c0,0,-12,-25,-22,-66c0,0,-9,-41,-9,-92V0Z" 
id="f0_j"
transform="scale(0.001,-0.001)" />

<path d="M117,-176L179,62V190H336V62L213,-176Z" 
id="f0_t"
transform="scale(0.001,-0.001)" />

<path d="M139,0V836H485c0,0,206,0,290,-90c0,0,84,-89,84,-294V0H721V473c0,0,0,147,-49,202c0,0,-48,54,-186,54H277V0Z" 
id="f0_r"
transform="scale(0.001,-0.001)" />

<path d="M543,-317V369c0,0,0,85,-8,143c0,0,-8,58,-27,101c0,0,-18,44,-51,69c0,0,-33,24,-80,36c0,0,-48,11,-117,11H66V836H257c0,0,125,0,205,-23c0,0,80,-23,130,-79c0,0,50,-56,70,-143c0,0,20,-86,20,-222V-317Z" 
id="f0_2"
transform="scale(0.001,-0.001)" />

<path d="M522,92c0,0,247,0,247,333c0,0,0,88,-17,146c0,0,-17,58,-53,91c0,0,-35,33,-82,46c0,0,-48,14,-116,14H276V419c0,0,0,-327,246,-327Zm0,-112c0,0,-193,0,-289,109c0,0,-95,110,-95,337V836H501c0,0,213,0,309,-93c0,0,96,-94,96,-317c0,0,0,-227,-95,-337C811,89,715,-20,522,-20Z" 
id="f0_h"
transform="scale(0.001,-0.001)" />

<path d="M139,-317V836H278V-317Z" 
id="f0_p"
transform="scale(0.001,-0.001)" />

<path d="M522,-20c0,0,-196,0,-290,99c0,0,-94,100,-94,324V836H276V397c0,0,0,-86,16,-147c0,0,17,-60,50,-94c0,0,34,-34,77,-49c0,0,43,-15,103,-15c0,0,59,0,102,15c0,0,44,15,77,49c0,0,33,34,50,94c0,0,17,61,17,147c0,0,0,84,-8,143c0,0,-7,58,-25,105c0,0,-17,47,-51,69c0,0,-33,23,-83,23c0,0,-50,0,-119,-22V821c0,0,85,23,150,23c0,0,76,0,130,-30c0,0,53,-31,85,-90c0,0,31,-59,45,-138c0,0,13,-78,13,-183c0,0,0,-224,-93,-324c0,0,-94,-99,-290,-99Z" 
id="f0_k"
transform="scale(0.001,-0.001)" />

<path d="M66,0V106H322c0,0,75,0,127,23c0,0,53,23,82,67c0,0,29,43,42,98c0,0,13,54,13,124c0,0,0,70,-13,124c0,0,-13,55,-42,98c0,0,-29,44,-82,67c0,0,-52,23,-127,23H66V836H322c0,0,87,0,157,-24c0,0,70,-24,115,-64c0,0,45,-40,74,-94c0,0,30,-55,43,-113c0,0,13,-59,13,-123c0,0,0,-64,-13,-123c0,0,-13,-58,-43,-113c0,0,-29,-54,-74,-94C594,88,549,48,479,24C479,24,409,0,322,0Z" 
id="f0_f"
transform="scale(0.001,-0.001)" />

<path d="M152,0V473c0,0,0,94,28,161c0,0,29,66,71,95H66V836H463V729H404c0,0,-65,0,-89,-57c0,0,-25,-58,-25,-199V0Z" 
id="f0_l"
transform="scale(0.001,-0.001)" />

<path d="M180,0L66,836H203L258,443c0,0,36,1,64,6c0,0,28,6,49,18c0,0,20,12,35,26c0,0,15,13,26,36c0,0,11,24,17,44c0,0,7,20,12,55c0,0,6,34,9,60c0,0,3,26,8,71c0,0,4,45,9,77H610c0,0,-13,-194,-31,-271c0,0,-31,-127,-111,-179c0,0,-71,-45,-196,-50L304,107c0,0,73,0,130,5c0,0,56,6,111,21c0,0,54,15,94,40c0,0,40,25,77,64c0,0,37,39,63,94c0,0,25,54,46,128c0,0,21,73,34,166c0,0,13,94,20,211h138c0,0,-14,-124,-29,-218c0,0,-16,-94,-39,-179c0,0,-22,-85,-50,-146c0,0,-28,-61,-68,-112c0,0,-39,-51,-87,-84C744,97,696,65,632,42C632,42,568,19,492,10C492,10,417,0,320,0Z" 
id="f0_9"
transform="scale(0.001,-0.001)" />

<path d="M71,-141V-15L289,62L66,836H210L416,109c0,0,99,42,153,98c0,0,53,56,80,155c0,0,26,98,26,262V836H817V624c0,0,0,-88,-7,-154c0,0,-7,-67,-25,-132c0,0,-18,-66,-51,-116c0,0,-33,-51,-84,-98c0,0,-50,-48,-123,-87c0,0,-72,-39,-169,-74L71,-141Z" 
id="f0_5"
transform="scale(0.001,-0.001)" />

<path d="M138,-7c0,0,-34,0,-72,10V129c0,0,25,-8,52,-8c0,0,33,0,58,5c0,0,26,5,58,24c0,0,33,20,53,54c0,0,21,34,36,97c0,0,15,64,15,151c0,0,0,113,-19,173c0,0,-19,60,-56,82c0,0,-38,22,-107,22H89V836h72c0,0,165,0,240,-91c0,0,76,-91,76,-293c0,0,0,-107,26,-227c0,0,25,-119,83,-225H437c0,0,-43,101,-62,184c0,0,-24,-60,-51,-99c0,0,-26,-38,-56,-58C268,27,239,7,209,0c0,0,-30,-7,-71,-7Z" 
id="f0_u"
transform="scale(0.001,-0.001)" />

<path d="M154,0V454l138,56V0ZM722,0V454c0,0,0,161,-49,218c0,0,-48,57,-186,57H139V836H485c0,0,207,0,291,-93c0,0,83,-94,83,-318V0Z" 
id="f0_c"
transform="scale(0.001,-0.001)" />

<path d="M66,0V107H332V555c0,0,0,92,-37,133c0,0,-37,41,-116,41H85V836h94c0,0,153,0,223,-66c0,0,69,-66,69,-231V0Z" 
id="f0_q"
transform="scale(0.001,-0.001)" />

<path d="M354,-200c0,0,-112,175,-167,343c0,0,-56,170,-56,337c0,0,0,166,55,335c0,0,55,169,168,345H473c0,0,-100,-172,-148,-340c0,0,-48,-168,-48,-340c0,0,0,-173,48,-342c0,0,49,-168,148,-338Z" 
id="f0_x"
transform="scale(0.001,-0.001)" />

<path d="M139,0V106H400c0,0,176,0,253,71c0,0,78,72,78,250c0,0,0,163,-80,233c0,0,-81,69,-250,69H278L277,564c0,0,-1,-54,26,-80c0,0,27,-25,82,-25c0,0,30,0,80,9V355c0,0,-61,-12,-111,-12c0,0,-100,0,-157,55c0,0,-58,55,-58,186V836H456c0,0,193,0,303,-109c0,0,110,-109,110,-309c0,0,0,-200,-110,-309C759,109,648,0,456,0Z" 
id="f0_m"
transform="scale(0.001,-0.001)" />

<path d="M122,-200c0,0,99,170,148,338c0,0,49,169,49,342c0,0,0,172,-49,340c0,0,-49,168,-148,340H241c0,0,112,-176,168,-345c0,0,55,-169,55,-335c0,0,0,-167,-55,-337c0,0,-56,-168,-168,-343Z" 
id="f0_v"
transform="scale(0.001,-0.001)" />

<path d="M147,700v414H274V700Zm282,0v414H556V700Z" 
id="f0_w"
transform="scale(0.001,-0.001)" />

<path d="M411,-20c0,0,-70,0,-142,11c0,0,-73,11,-151,35V178c0,0,67,-37,139,-54c0,0,72,-18,152,-18c0,0,129,0,204,67c0,0,75,68,75,184c0,0,0,117,-75,184c0,0,-75,68,-204,68c0,0,-61,0,-121,-13c0,0,-60,-13,-123,-42v560H757V987H303V714c0,0,33,11,66,17c0,0,33,5,65,5c0,0,187,0,296,-102c0,0,109,-102,109,-277c0,0,0,-179,-112,-279c0,0,-112,-98,-316,-98Z" 
id="f0_14"
transform="scale(0.001,-0.001)" />

<path d="M578,0V416H162V543H578V958H703V543h416V416H703V0Z" 
id="f0_15"
transform="scale(0.001,-0.001)" />

<path d="M190,0V127H436V977L168,923v137l267,54H586V127H832V0Z" 
id="f0_13"
transform="scale(0.001,-0.001)" />

<path d="M66,0V106H564L66,836H228L516,413c0,0,3,2,9,6c0,0,17,13,27,21c0,0,10,8,26,27c0,0,17,20,26,40c0,0,9,21,16,54c0,0,7,34,7,75V836H764V698c0,0,0,-55,-7,-102c0,0,-7,-47,-16,-79c0,0,-10,-33,-27,-62c0,0,-18,-29,-32,-46c0,0,-14,-17,-37,-35c0,0,-22,-17,-36,-25c0,0,-13,-8,-36,-20L767,53V0Z" 
id="f0_s"
transform="scale(0.001,-0.001)" />

<path d="M111,0V127c0,0,86,89,234,238c0,0,148,150,186,193c0,0,73,81,101,138c0,0,29,56,29,110c0,0,0,89,-62,145c0,0,-62,56,-162,56c0,0,-71,0,-150,-25c0,0,-78,-24,-168,-75v153c0,0,91,37,170,55c0,0,79,19,145,19c0,0,173,0,276,-86c0,0,103,-87,103,-232c0,0,0,-68,-26,-130c0,0,-26,-61,-94,-145c0,0,-18,-22,-118,-125C575,416,475,313,293,127H818V0Z" 
id="f0_16"
transform="scale(0.001,-0.001)" />


</defs>
</svg>