<?xml version="1.0" encoding="UTF-8" standalone="no"?>
<!DOCTYPE svg PUBLIC "-//W3C//DTD SVG 1.1//EN"
"http://www.w3.org/Graphics/SVG/1.1/DTD/svg11.dtd">
<svg viewBox="0 0 909 1286" version="1.1" xmlns="http://www.w3.org/2000/svg" xmlns:xlink="http://www.w3.org/1999/xlink">
<defs>
<clipPath id="c0_8"><path d="M0,1286.2V0H909.4V1286.2Z" /></clipPath>
<clipPath id="c1_8"><path d="M642.4,719V697.7h.3V719Z" /></clipPath>
<clipPath id="c2_8"><path d="M642.4,1012V990.7h.3V1012Z" /></clipPath>
<style type="text/css"><![CDATA[
.g0_8{
fill: none;
stroke: #000000;
stroke-width: 1.0694444;
stroke-linecap: butt;
stroke-linejoin: miter;
}
.g1_8{
fill: none;
stroke: #000000;
stroke-width: 0.7638889;
stroke-linecap: butt;
stroke-linejoin: round;
}
.g2_8{
fill: none;
stroke: #0000FF;
stroke-width: 1.0694444;
stroke-linecap: butt;
stroke-linejoin: miter;
}
]]></style>
</defs>
<g clip-path="url(#c0_8)">
<g fill="#000000" >
<use xlink:href="#f0_p" transform="matrix(12,0,0,12,356,127.1)" />
<use xlink:href="#f0_7" transform="matrix(12,0,0,12,361,127.1)" />
<use xlink:href="#f0_n" transform="matrix(12,0,0,12,365.9,127.1)" />
<use xlink:href="#f0_b" transform="matrix(12,0,0,12,377.3,127.1)" />
<use xlink:href="#f0_7" transform="matrix(12,0,0,12,396.3,127.1)" />
<use xlink:href="#f0_d" transform="matrix(12,0,0,12,401.2,127.1)" />
<use xlink:href="#f0_2" transform="matrix(12,0,0,12,408.5,127.1)" />
<use xlink:href="#f0_a" transform="matrix(12,0,0,12,424.9,127.1)" />
<use xlink:href="#f0_d" transform="matrix(12,0,0,12,436.8,127.1)" />
<use xlink:href="#f0_7" transform="matrix(12,0,0,12,444.1,127.1)" />
<use xlink:href="#f0_3" transform="matrix(12,0,0,12,449.1,127.1)" />
<use xlink:href="#f0_c" transform="matrix(12,0,0,12,468,127.1)" />
<use xlink:href="#f0_2" transform="matrix(12,0,0,12,480.3,127.1)" />
<use xlink:href="#f0_a" transform="matrix(12,0,0,12,496.5,127.1)" />
<use xlink:href="#f0_4" transform="matrix(12,0,0,12,508.4,127.1)" />
<use xlink:href="#f0_c" transform="matrix(12,0,0,12,520.4,127.1)" />
<use xlink:href="#f1_r" transform="matrix(11,0,0,11,137.7,125.7)" />
<use xlink:href="#f1_f" transform="matrix(11,0,0,11,149.7,125.7)" />
<use xlink:href="#f2_o" transform="matrix(11,0,0,11,162.4,125.7)" />
<use xlink:href="#f2_r" transform="matrix(11,0,0,11,171.7,125.7)" />
<use xlink:href="#f2_d" transform="matrix(11,0,0,11,180.1,125.7)" />
<use xlink:href="#f1_i" transform="matrix(11,0,0,11,191,125.7)" />
<use xlink:href="#f1_f" transform="matrix(11,0,0,11,198.4,125.7)" />
<use xlink:href="#f1_k" transform="matrix(11,0,0,11,206.7,125.7)" />
<use xlink:href="#f1_g" transform="matrix(11,0,0,11,219.8,125.7)" />
<use xlink:href="#f1_h" transform="matrix(11,0,0,11,228.2,125.7)" />
<use xlink:href="#f1_b" transform="matrix(11,0,0,11,233.8,125.7)" />
<use xlink:href="#f1_9" transform="matrix(11,0,0,11,241.3,125.7)" />
<use xlink:href="#f1_o" transform="matrix(11,0,0,11,252,125.7)" />
<use xlink:href="#f1_e" transform="matrix(11,0,0,11,260.4,125.7)" />
<use xlink:href="#f1_h" transform="matrix(11,0,0,11,273,125.7)" />
<use xlink:href="#f1_c" transform="matrix(11,0,0,11,278.5,125.7)" />
<use xlink:href="#f1_d" transform="matrix(11,0,0,11,286,125.7)" />
<use xlink:href="#f1_f" transform="matrix(11,0,0,11,290.7,125.7)" />
<use xlink:href="#f1_m" transform="matrix(11,0,0,11,299,125.7)" />
<use xlink:href="#f0_w" transform="matrix(12,0,0,12,383.6,148.5)" />
<use xlink:href="#f0_p" transform="matrix(12,0,0,12,391,148.5)" />
<use xlink:href="#f0_7" transform="matrix(12,0,0,12,396,148.5)" />
<use xlink:href="#f0_n" transform="matrix(12,0,0,12,401,148.5)" />
<use xlink:href="#f0_b" transform="matrix(12,0,0,12,412.5,148.5)" />
<use xlink:href="#f0_7" transform="matrix(12,0,0,12,431.3,148.5)" />
<use xlink:href="#f0_d" transform="matrix(12,0,0,12,436.3,148.5)" />
<use xlink:href="#f0_2" transform="matrix(12,0,0,12,443.6,148.5)" />
<use xlink:href="#f0_a" transform="matrix(12,0,0,12,459.9,148.5)" />
<use xlink:href="#f0_d" transform="matrix(12,0,0,12,471.9,148.5)" />
<use xlink:href="#f0_3" transform="matrix(12,0,0,12,479.2,148.5)" />
<use xlink:href="#f0_4" transform="matrix(12,0,0,12,492.2,148.5)" />
<use xlink:href="#f0_2" transform="matrix(12,0,0,12,510,148.5)" />
<use xlink:href="#f0_c" transform="matrix(12,0,0,12,520.4,148.5)" />
<use xlink:href="#f1_r" transform="matrix(11,0,0,11,137.7,147.1)" />
<use xlink:href="#f1_f" transform="matrix(11,0,0,11,149.7,147.1)" />
<use xlink:href="#f2_o" transform="matrix(11,0,0,11,162.4,147.1)" />
<use xlink:href="#f2_r" transform="matrix(11,0,0,11,171.7,147.1)" />
<use xlink:href="#f2_d" transform="matrix(11,0,0,11,180.1,147.1)" />
<use xlink:href="#f1_i" transform="matrix(11,0,0,11,191,147.1)" />
<use xlink:href="#f1_f" transform="matrix(11,0,0,11,198.4,147.1)" />
<use xlink:href="#f1_k" transform="matrix(11,0,0,11,206.7,147.1)" />
<use xlink:href="#f1_g" transform="matrix(11,0,0,11,219.8,147.1)" />
<use xlink:href="#f1_h" transform="matrix(11,0,0,11,228.2,147.1)" />
<use xlink:href="#f1_b" transform="matrix(11,0,0,11,233.8,147.1)" />
<use xlink:href="#f1_o" transform="matrix(11,0,0,11,245.4,147.1)" />
<use xlink:href="#f1_e" transform="matrix(11,0,0,11,253.8,147.1)" />
<use xlink:href="#f1_h" transform="matrix(11,0,0,11,266.5,147.1)" />
<use xlink:href="#f1_c" transform="matrix(11,0,0,11,272,147.1)" />
<use xlink:href="#f1_d" transform="matrix(11,0,0,11,279.4,147.1)" />
<use xlink:href="#f1_f" transform="matrix(11,0,0,11,284.2,147.1)" />
<use xlink:href="#f1_m" transform="matrix(11,0,0,11,292.4,147.1)" />
<use xlink:href="#f1_x" transform="matrix(11,0,0,11,297.1,147.1)" />
<use xlink:href="#f0_5" transform="matrix(12,0,0,12,595.2,169.9)" />
<use xlink:href="#f0_9" transform="matrix(12,0,0,12,599.3,169.9)" />
<use xlink:href="#f0_r" transform="matrix(12,0,0,12,609.7,169.9)" />
<use xlink:href="#f0_c" transform="matrix(12,0,0,12,621.6,169.9)" />
</g>
</g>
<path d="M595.1,171.7h38.8" class="g0_8" />
<g clip-path="url(#c0_8)">
<g fill="#000000" >
<use xlink:href="#f0_2" transform="matrix(12,0,0,12,583.6,191.3)" />
<use xlink:href="#f0_n" transform="matrix(12,0,0,12,594,191.3)" />
<use xlink:href="#f0_7" transform="matrix(12,0,0,12,605.5,191.3)" />
<use xlink:href="#f0_j" transform="matrix(12,0,0,12,610.5,191.3)" />
<use xlink:href="#f0_a" transform="matrix(12,0,0,12,621.9,191.3)" />
</g>
</g>
<path d="M583.5,193.1h50.4" class="g0_8" />
<g clip-path="url(#c0_8)">
<g fill="#000000" >
<use xlink:href="#f0_w" transform="matrix(12,0,0,12,424.3,212.7)" />
<use xlink:href="#f0_p" transform="matrix(12,0,0,12,431.6,212.7)" />
<use xlink:href="#f0_7" transform="matrix(12,0,0,12,436.6,212.7)" />
<use xlink:href="#f0_n" transform="matrix(12,0,0,12,441.5,212.7)" />
<use xlink:href="#f0_b" transform="matrix(12,0,0,12,453,212.7)" />
<use xlink:href="#f0_7" transform="matrix(12,0,0,12,471.8,212.7)" />
<use xlink:href="#f0_d" transform="matrix(12,0,0,12,476.8,212.7)" />
<use xlink:href="#f0_2" transform="matrix(12,0,0,12,484.1,212.7)" />
<use xlink:href="#f0_a" transform="matrix(12,0,0,12,500.5,212.7)" />
<use xlink:href="#f0_d" transform="matrix(12,0,0,12,512.4,212.7)" />
<use xlink:href="#f0_3" transform="matrix(12,0,0,12,519.7,212.7)" />
<use xlink:href="#f1_a" transform="matrix(11,0,0,11,137.7,211.3)" />
<use xlink:href="#f1_1g" transform="matrix(11,0,0,11,148.8,211.3)" />
<use xlink:href="#f1_k" transform="matrix(11,0,0,11,157.2,211.3)" />
<use xlink:href="#f1_g" transform="matrix(11,0,0,11,170.3,211.3)" />
<use xlink:href="#f1_h" transform="matrix(11,0,0,11,178.7,211.3)" />
<use xlink:href="#f1_b" transform="matrix(11,0,0,11,184.4,211.3)" />
<use xlink:href="#f2_o" transform="matrix(11,0,0,11,191.9,211.3)" />
<use xlink:href="#f2_r" transform="matrix(11,0,0,11,201.2,211.3)" />
<use xlink:href="#f2_d" transform="matrix(11,0,0,11,209.6,211.3)" />
<use xlink:href="#f1_o" transform="matrix(11,0,0,11,220.3,211.3)" />
<use xlink:href="#f1_e" transform="matrix(11,0,0,11,228.7,211.3)" />
<use xlink:href="#f1_h" transform="matrix(11,0,0,11,241.4,211.3)" />
<use xlink:href="#f1_c" transform="matrix(11,0,0,11,246.9,211.3)" />
<use xlink:href="#f1_d" transform="matrix(11,0,0,11,254.3,211.3)" />
<use xlink:href="#f1_f" transform="matrix(11,0,0,11,259.1,211.3)" />
<use xlink:href="#f1_m" transform="matrix(11,0,0,11,267.3,211.3)" />
<use xlink:href="#f1_x" transform="matrix(11,0,0,11,272,211.3)" />
<use xlink:href="#f0_7" transform="matrix(12,0,0,12,354.4,234.1)" />
<use xlink:href="#f0_d" transform="matrix(12,0,0,12,359.5,234.1)" />
<use xlink:href="#f0_2" transform="matrix(12,0,0,12,366.8,234.1)" />
<use xlink:href="#f0_4" transform="matrix(12,0,0,12,388.1,234.1)" />
<use xlink:href="#f0_7" transform="matrix(12,0,0,12,400.2,234.1)" />
<use xlink:href="#f0_d" transform="matrix(12,0,0,12,405.2,234.1)" />
<use xlink:href="#f0_3" transform="matrix(12,0,0,12,412.5,234.1)" />
<use xlink:href="#f0_2" transform="matrix(12,0,0,12,425.5,234.1)" />
<use xlink:href="#f0_a" transform="matrix(12,0,0,12,447.2,234.1)" />
<use xlink:href="#f0_g" transform="matrix(12,0,0,12,459.1,234.1)" />
<use xlink:href="#f0_7" transform="matrix(12,0,0,12,470,234.1)" />
<use xlink:href="#f0_9" transform="matrix(12,0,0,12,474.9,234.1)" />
<use xlink:href="#f0_a" transform="matrix(12,0,0,12,496.4,234.1)" />
<use xlink:href="#f0_4" transform="matrix(12,0,0,12,508.3,234.1)" />
<use xlink:href="#f0_c" transform="matrix(12,0,0,12,520.3,234.1)" />
<use xlink:href="#f0_p" transform="matrix(12,0,0,12,498.4,255.4)" />
<use xlink:href="#f0_7" transform="matrix(12,0,0,12,503.3,255.4)" />
<use xlink:href="#f0_n" transform="matrix(12,0,0,12,508.3,255.4)" />
<use xlink:href="#f0_b" transform="matrix(12,0,0,12,519.7,255.4)" />
<use xlink:href="#f1_1k" transform="matrix(11,0,0,11,137.7,232.7)" />
<use xlink:href="#f1_o" transform="matrix(11,0,0,11,149.7,232.7)" />
<use xlink:href="#f1_j" transform="matrix(11,0,0,11,158.1,232.7)" />
<use xlink:href="#f1_c" transform="matrix(11,0,0,11,162.8,232.7)" />
<use xlink:href="#f1_h" transform="matrix(11,0,0,11,170.3,232.7)" />
<use xlink:href="#f1_c" transform="matrix(11,0,0,11,175.9,232.7)" />
<use xlink:href="#f1_9" transform="matrix(11,0,0,11,183.3,232.7)" />
<use xlink:href="#f1_i" transform="matrix(11,0,0,11,194.1,232.7)" />
<use xlink:href="#f1_f" transform="matrix(11,0,0,11,201.5,232.7)" />
<use xlink:href="#f1_k" transform="matrix(11,0,0,11,209.8,232.7)" />
<use xlink:href="#f1_g" transform="matrix(11,0,0,11,222.9,232.7)" />
<use xlink:href="#f1_h" transform="matrix(11,0,0,11,231.3,232.7)" />
<use xlink:href="#f1_b" transform="matrix(11,0,0,11,237,232.7)" />
<use xlink:href="#f1_h" transform="matrix(11,0,0,11,244.4,232.7)" />
<use xlink:href="#f2_o" transform="matrix(11,0,0,11,250.3,232.7)" />
<use xlink:href="#f2_r" transform="matrix(11,0,0,11,259.6,232.7)" />
<use xlink:href="#f2_d" transform="matrix(11,0,0,11,268,232.7)" />
<use xlink:href="#f1_o" transform="matrix(11,0,0,11,278.7,232.7)" />
<use xlink:href="#f1_e" transform="matrix(11,0,0,11,287.1,232.7)" />
<use xlink:href="#f1_h" transform="matrix(11,0,0,11,299.7,232.7)" />
<use xlink:href="#f1_c" transform="matrix(11,0,0,11,305.2,232.7)" />
<use xlink:href="#f1_d" transform="matrix(11,0,0,11,312.7,232.7)" />
<use xlink:href="#f1_f" transform="matrix(11,0,0,11,317.4,232.7)" />
<use xlink:href="#f1_m" transform="matrix(11,0,0,11,325.7,232.7)" />
<use xlink:href="#f3_l" transform="matrix(12,0,0,12,714.4,296.1)" />
<use xlink:href="#f3_8" transform="matrix(12,0,0,12,726.9,296.1)" />
<use xlink:href="#f3_m" transform="matrix(12,0,0,12,733.2,296.1)" />
<use xlink:href="#f3_7" transform="matrix(12,0,0,12,744.3,296.1)" />
<use xlink:href="#f3_5" transform="matrix(12,0,0,12,749.7,296.1)" />
<use xlink:href="#f3_o" transform="matrix(12,0,0,12,761.7,296.1)" />
<use xlink:href="#f0_p" transform="matrix(12,0,0,12,214.5,317.5)" />
<use xlink:href="#f0_4" transform="matrix(12,0,0,12,219.4,317.5)" />
<use xlink:href="#f0_v" transform="matrix(12,0,0,12,238.4,317.5)" />
<use xlink:href="#f0_2" transform="matrix(12,0,0,12,244.5,317.5)" />
<use xlink:href="#f0_b" transform="matrix(12,0,0,12,254.9,317.5)" />
<use xlink:href="#f0_f" transform="matrix(12,0,0,12,267.9,317.5)" />
<use xlink:href="#f0_2" transform="matrix(12,0,0,12,280.4,317.5)" />
<use xlink:href="#f0_q" transform="matrix(12,0,0,12,297.8,317.5)" />
<use xlink:href="#f0_a" transform="matrix(12,0,0,12,303.6,317.5)" />
<use xlink:href="#f0_d" transform="matrix(12,0,0,12,315.5,317.5)" />
<use xlink:href="#f0_7" transform="matrix(12,0,0,12,322.9,317.5)" />
<use xlink:href="#f0_7" transform="matrix(12,0,0,12,327.9,317.5)" />
<use xlink:href="#f0_h" transform="matrix(12,0,0,12,332.9,317.5)" />
<use xlink:href="#f0_a" transform="matrix(12,0,0,12,342.5,317.5)" />
<use xlink:href="#f0_5" transform="matrix(12,0,0,12,361.5,317.5)" />
<use xlink:href="#f0_f" transform="matrix(12,0,0,12,365.6,317.5)" />
<use xlink:href="#f0_2" transform="matrix(12,0,0,12,378.1,317.5)" />
<use xlink:href="#f0_e" transform="matrix(12,0,0,12,395.3,317.5)" />
<use xlink:href="#f0_5" transform="matrix(12,0,0,12,407.5,317.5)" />
<use xlink:href="#f0_5" transform="matrix(12,0,0,12,411.6,317.5)" />
<use xlink:href="#f0_f" transform="matrix(12,0,0,12,415.7,317.5)" />
<use xlink:href="#f0_n" transform="matrix(12,0,0,12,428.1,317.5)" />
<use xlink:href="#f0_j" transform="matrix(12,0,0,12,439.6,317.5)" />
<use xlink:href="#f0_t" transform="matrix(12,0,0,12,458,317.5)" />
<use xlink:href="#f0_9" transform="matrix(12,0,0,12,469.9,317.5)" />
<use xlink:href="#f0_j" transform="matrix(12,0,0,12,480.1,317.5)" />
<use xlink:href="#f0_2" transform="matrix(12,0,0,12,491.6,317.5)" />
<use xlink:href="#f0_4" transform="matrix(12,0,0,12,508.9,317.5)" />
<use xlink:href="#f0_5" transform="matrix(12,0,0,12,521,317.5)" />
<use xlink:href="#f0_l" transform="matrix(12,0,0,12,525.1,317.5)" />
<use xlink:href="#f0_9" transform="matrix(12,0,0,12,535,317.5)" />
<use xlink:href="#f0_j" transform="matrix(12,0,0,12,545.4,317.5)" />
<use xlink:href="#f0_o" transform="matrix(12,0,0,12,556.9,317.5)" />
<use xlink:href="#f0_8" transform="matrix(12,0,0,12,568.7,317.5)" />
<use xlink:href="#f0_9" transform="matrix(12,0,0,12,586.3,317.5)" />
<use xlink:href="#f0_b" transform="matrix(12,0,0,12,596.7,317.5)" />
<use xlink:href="#f0_j" transform="matrix(12,0,0,12,609.6,317.5)" />
<use xlink:href="#f0_c" transform="matrix(12,0,0,12,621.1,317.5)" />
<use xlink:href="#f0_m" transform="matrix(12,0,0,12,640.3,317.5)" />
<use xlink:href="#f0_4" transform="matrix(12,0,0,12,646.1,317.5)" />
<use xlink:href="#f0_5" transform="matrix(12,0,0,12,658,317.5)" />
<use xlink:href="#f0_9" transform="matrix(12,0,0,12,662.1,317.5)" />
<use xlink:href="#f0_8" transform="matrix(12,0,0,12,672.5,317.5)" />
<use xlink:href="#f0_n" transform="matrix(12,0,0,12,683,317.5)" />
<use xlink:href="#f0_f" transform="matrix(12,0,0,12,694.5,317.5)" />
<use xlink:href="#f0_2" transform="matrix(12,0,0,12,714,317.5)" />
<use xlink:href="#f0_5" transform="matrix(12,0,0,12,724.4,317.5)" />
<use xlink:href="#f0_l" transform="matrix(12,0,0,12,728.5,317.5)" />
<use xlink:href="#f0_8" transform="matrix(12,0,0,12,738.6,317.5)" />
<use xlink:href="#f0_a" transform="matrix(12,0,0,12,749.1,317.5)" />
<use xlink:href="#f0_2" transform="matrix(12,0,0,12,761,317.5)" />
<use xlink:href="#f3_8" transform="matrix(12,0,0,12,189.3,317.5)" />
<use xlink:href="#f3_m" transform="matrix(12,0,0,12,195.6,317.5)" />
<use xlink:href="#f0_p" transform="matrix(12,0,0,12,137.8,317.5)" />
<use xlink:href="#f0_c" transform="matrix(12,0,0,12,142.8,317.5)" />
<use xlink:href="#f0_7" transform="matrix(12,0,0,12,155.1,317.5)" />
<use xlink:href="#f0_r" transform="matrix(12,0,0,12,160.1,317.5)" />
<use xlink:href="#f0_2" transform="matrix(12,0,0,12,172,317.5)" />
<use xlink:href="#f1_8" transform="matrix(11,0,0,11,708.4,338.9)" />
<use xlink:href="#f1_b" transform="matrix(11,0,0,11,716.8,338.9)" />
<use xlink:href="#f2_e" transform="matrix(11,0,0,11,728.6,338.9)" />
<use xlink:href="#f1_1h" transform="matrix(11,0,0,11,741.1,338.9)" />
<use xlink:href="#f1_o" transform="matrix(11,0,0,11,747.7,338.9)" />
<use xlink:href="#f1_b" transform="matrix(11,0,0,11,756.1,338.9)" />
<use xlink:href="#f1_e" transform="matrix(11,0,0,11,763.5,338.9)" />
<use xlink:href="#f0_7" transform="matrix(12,0,0,12,685.5,338.9)" />
<use xlink:href="#f0_c" transform="matrix(12,0,0,12,690.5,338.9)" />
<use xlink:href="#f1_8" transform="matrix(11,0,0,11,603.9,338.9)" />
<use xlink:href="#f1_b" transform="matrix(11,0,0,11,612.3,338.9)" />
<use xlink:href="#f2_c" transform="matrix(11,0,0,11,619.8,338.9)" />
<use xlink:href="#f2_f" transform="matrix(11,0,0,11,624.4,338.9)" />
<use xlink:href="#f2_e" transform="matrix(11,0,0,11,636.1,338.9)" />
<use xlink:href="#f1_1h" transform="matrix(11,0,0,11,648.7,338.9)" />
<use xlink:href="#f1_o" transform="matrix(11,0,0,11,655.2,338.9)" />
<use xlink:href="#f1_b" transform="matrix(11,0,0,11,663.7,338.9)" />
<use xlink:href="#f1_e" transform="matrix(11,0,0,11,671.1,338.9)" />
<use xlink:href="#f0_q" transform="matrix(12,0,0,12,598.3,338.9)" />
<use xlink:href="#f3_l" transform="matrix(12,0,0,12,701.6,361.9)" />
<use xlink:href="#f3_8" transform="matrix(12,0,0,12,714.1,361.9)" />
<use xlink:href="#f3_9" transform="matrix(12,0,0,12,720.3,361.9)" />
<use xlink:href="#f3_d" transform="matrix(12,0,0,12,733.6,361.9)" />
<use xlink:href="#f3_b" transform="matrix(12,0,0,12,746.9,361.9)" />
<use xlink:href="#f3_8" transform="matrix(12,0,0,12,755,361.9)" />
<use xlink:href="#f3_n" transform="matrix(12,0,0,12,761.3,361.9)" />
<use xlink:href="#f4_2" transform="matrix(13,0,0,13,560.1,361.9)" />
<use xlink:href="#f4_3" transform="matrix(13,0,0,13,575.2,361.9)" />
<use xlink:href="#f4_4" transform="matrix(13,0,0,13,582.4,361.9)" />
<use xlink:href="#f4_5" transform="matrix(13,0,0,13,595,361.9)" />
<use xlink:href="#f4_6" transform="matrix(13,0,0,13,616.1,361.9)" />
<use xlink:href="#f4_7" transform="matrix(13,0,0,13,630,361.9)" />
<use xlink:href="#f4_8" transform="matrix(13,0,0,13,637.5,361.9)" />
<use xlink:href="#f4_9" transform="matrix(13,0,0,13,650.7,361.9)" />
<use xlink:href="#f0_w" transform="matrix(12,0,0,12,355.1,383.6)" />
<use xlink:href="#f0_10" transform="matrix(12,0,0,12,362.4,383.6)" />
<use xlink:href="#f0_o" transform="matrix(12,0,0,12,374.1,383.6)" />
<use xlink:href="#f0_h" transform="matrix(12,0,0,12,386,383.6)" />
<use xlink:href="#f0_5" transform="matrix(12,0,0,12,401.5,383.6)" />
<use xlink:href="#f0_2" transform="matrix(12,0,0,12,405.6,383.6)" />
<use xlink:href="#f0_p" transform="matrix(12,0,0,12,421.8,383.6)" />
<use xlink:href="#f0_4" transform="matrix(12,0,0,12,426.8,383.6)" />
<use xlink:href="#f1_1d" transform="matrix(11,0,0,11,137.7,382.3)" />
<use xlink:href="#f1_b" transform="matrix(11,0,0,11,149.7,382.3)" />
<use xlink:href="#f1_k" transform="matrix(11,0,0,11,157.2,382.3)" />
<use xlink:href="#f1_c" transform="matrix(11,0,0,11,170.3,382.3)" />
<use xlink:href="#f1_1b" transform="matrix(11,0,0,11,181.9,382.3)" />
<use xlink:href="#f1_1a" transform="matrix(11,0,0,11,187.5,382.3)" />
<use xlink:href="#f1_k" transform="matrix(11,0,0,11,203.8,382.3)" />
<use xlink:href="#f1_14" transform="matrix(11,0,0,11,217,382.3)" />
<use xlink:href="#f1_1c" transform="matrix(11,0,0,11,221.5,382.3)" />
<use xlink:href="#f1_8" transform="matrix(11,0,0,11,231.3,382.3)" />
<use xlink:href="#f1_j" transform="matrix(11,0,0,11,239.7,382.3)" />
<use xlink:href="#f1_e" transform="matrix(11,0,0,11,244.4,382.3)" />
<use xlink:href="#f1_c" transform="matrix(11,0,0,11,252.8,382.3)" />
<use xlink:href="#f1_h" transform="matrix(11,0,0,11,260.1,382.3)" />
<use xlink:href="#f1_f" transform="matrix(11,0,0,11,265.8,382.3)" />
<use xlink:href="#f1_x" transform="matrix(11,0,0,11,274.2,382.3)" />
<use xlink:href="#f0_w" transform="matrix(12,0,0,12,354.4,405)" />
<use xlink:href="#f0_7" transform="matrix(12,0,0,12,361.8,405)" />
<use xlink:href="#f0_d" transform="matrix(12,0,0,12,366.8,405)" />
<use xlink:href="#f0_2" transform="matrix(12,0,0,12,374.1,405)" />
<use xlink:href="#f0_8" transform="matrix(12,0,0,12,390.5,405)" />
<use xlink:href="#f0_b" transform="matrix(12,0,0,12,401,405)" />
<use xlink:href="#f0_3" transform="matrix(12,0,0,12,414,405)" />
<use xlink:href="#f0_a" transform="matrix(12,0,0,12,427,405)" />
<use xlink:href="#f1_t" transform="matrix(11,0,0,11,137.7,403.6)" />
<use xlink:href="#f1_9" transform="matrix(11,0,0,11,147.9,403.6)" />
<use xlink:href="#f1_i" transform="matrix(11,0,0,11,154.4,403.6)" />
<use xlink:href="#f1_3" transform="matrix(11,0,0,11,161.9,403.6)" />
<use xlink:href="#f1_i" transform="matrix(11,0,0,11,170.3,403.6)" />
<use xlink:href="#f1_12" transform="matrix(11,0,0,11,177.8,403.6)" />
<use xlink:href="#f1_b" transform="matrix(11,0,0,11,186.2,403.6)" />
<use xlink:href="#f1_e" transform="matrix(11,0,0,11,193.6,403.6)" />
<use xlink:href="#f1_f" transform="matrix(11,0,0,11,202,403.6)" />
<use xlink:href="#f1_9" transform="matrix(11,0,0,11,210.4,403.6)" />
<use xlink:href="#f1_1b" transform="matrix(11,0,0,11,221.1,403.6)" />
<use xlink:href="#f1_b" transform="matrix(11,0,0,11,226.7,403.6)" />
<use xlink:href="#f1_e" transform="matrix(11,0,0,11,238.3,403.6)" />
<use xlink:href="#f1_f" transform="matrix(11,0,0,11,246.7,403.6)" />
<use xlink:href="#f1_9" transform="matrix(11,0,0,11,255.1,403.6)" />
<use xlink:href="#f1_f" transform="matrix(11,0,0,11,261.7,403.6)" />
<use xlink:href="#f1_2" transform="matrix(11,0,0,11,270.1,403.6)" />
<use xlink:href="#f1_h" transform="matrix(11,0,0,11,274.7,403.6)" />
<use xlink:href="#f1_f" transform="matrix(11,0,0,11,280.3,403.6)" />
<use xlink:href="#f1_9" transform="matrix(11,0,0,11,288.7,403.6)" />
<use xlink:href="#f1_1c" transform="matrix(11,0,0,11,295.3,403.6)" />
<use xlink:href="#f1_x" transform="matrix(11,0,0,11,300.8,403.6)" />
<use xlink:href="#f0_k" transform="matrix(12,0,0,12,343.3,426.4)" />
<use xlink:href="#f0_2" transform="matrix(12,0,0,12,353.1,426.4)" />
<use xlink:href="#f0_c" transform="matrix(12,0,0,12,404.2,426.4)" />
<use xlink:href="#f0_8" transform="matrix(12,0,0,12,416.4,426.4)" />
<use xlink:href="#f0_a" transform="matrix(12,0,0,12,427,426.4)" />
<use xlink:href="#f0_w" transform="matrix(12,0,0,12,395.2,447.8)" />
<use xlink:href="#f0_a" transform="matrix(12,0,0,12,402.6,447.8)" />
<use xlink:href="#f0_j" transform="matrix(12,0,0,12,414.5,447.8)" />
<use xlink:href="#f0_3" transform="matrix(12,0,0,12,425.9,447.8)" />
<use xlink:href="#f1_1l" transform="matrix(11,0,0,11,137.7,425)" />
<use xlink:href="#f1_h" transform="matrix(11,0,0,11,147.9,425)" />
<use xlink:href="#f1_w" transform="matrix(11,0,0,11,153.5,425)" />
<use xlink:href="#f1_c" transform="matrix(11,0,0,11,161,425)" />
<use xlink:href="#f1_2" transform="matrix(11,0,0,11,168.3,425)" />
<use xlink:href="#f1_c" transform="matrix(11,0,0,11,173,425)" />
<use xlink:href="#f1_1b" transform="matrix(11,0,0,11,184.8,425)" />
<use xlink:href="#f1_b" transform="matrix(11,0,0,11,190.3,425)" />
<use xlink:href="#f1_2" transform="matrix(11,0,0,11,202,425)" />
<use xlink:href="#f1_j" transform="matrix(11,0,0,11,206.6,425)" />
<use xlink:href="#f1_1c" transform="matrix(11,0,0,11,211.3,425)" />
<use xlink:href="#f1_o" transform="matrix(11,0,0,11,221,425)" />
<use xlink:href="#f1_e" transform="matrix(11,0,0,11,229.4,425)" />
<use xlink:href="#f1_i" transform="matrix(11,0,0,11,242.1,425)" />
<use xlink:href="#f1_b" transform="matrix(11,0,0,11,249.4,425)" />
<use xlink:href="#f1_18" transform="matrix(11,0,0,11,256.9,425)" />
<use xlink:href="#f1_y" transform="matrix(11,0,0,11,262.5,425)" />
<use xlink:href="#f1_x" transform="matrix(11,0,0,11,269.9,425)" />
<use xlink:href="#f2_p" transform="matrix(16,0,0,16,717.9,493.3)" />
<use xlink:href="#f2_3" transform="matrix(16,0,0,16,729.8,493.3)" />
<use xlink:href="#f2_s" transform="matrix(16,0,0,16,736.3,493.3)" />
<use xlink:href="#f2_t" transform="matrix(16,0,0,16,744.7,493.3)" />
<use xlink:href="#f2_u" transform="matrix(16,0,0,16,757.1,493.3)" />
<use xlink:href="#f2_e" transform="matrix(16,0,0,16,543.4,493.3)" />
<use xlink:href="#f2_v" transform="matrix(16,0,0,16,562.5,493.3)" />
<use xlink:href="#f2_w" transform="matrix(16,0,0,16,576.5,493.3)" />
<use xlink:href="#f2_e" transform="matrix(16,0,0,16,587.7,493.3)" />
<use xlink:href="#f2_x" transform="matrix(16,0,0,16,600.3,493.3)" />
<use xlink:href="#f2_6" transform="matrix(16,0,0,16,611.4,493.3)" />
<use xlink:href="#f2_y" transform="matrix(16,0,0,16,620,493.3)" />
<use xlink:href="#f2_x" transform="matrix(16,0,0,16,627,493.3)" />
<use xlink:href="#f2_e" transform="matrix(16,0,0,16,638.3,493.3)" />
<use xlink:href="#f2_w" transform="matrix(16,0,0,16,650.8,493.3)" />
<use xlink:href="#f3_m" transform="matrix(12,0,0,12,723.8,515.6)" />
<use xlink:href="#f3_7" transform="matrix(12,0,0,12,735,515.6)" />
<use xlink:href="#f3_b" transform="matrix(12,0,0,12,740.3,515.6)" />
<use xlink:href="#f3_4" transform="matrix(12,0,0,12,748.6,515.6)" />
<use xlink:href="#f3_l" transform="matrix(12,0,0,12,759.6,515.6)" />
<use xlink:href="#f3_14" transform="matrix(12,0,0,12,704.6,515.6)" />
<use xlink:href="#f0_e" transform="matrix(12,0,0,12,474.5,515.6)" />
<use xlink:href="#f0_5" transform="matrix(12,0,0,12,486.7,515.6)" />
<use xlink:href="#f0_c" transform="matrix(12,0,0,12,490.9,515.6)" />
<use xlink:href="#f0_8" transform="matrix(12,0,0,12,503.1,515.6)" />
<use xlink:href="#f0_a" transform="matrix(12,0,0,12,513.6,515.6)" />
<use xlink:href="#f0_e" transform="matrix(12,0,0,12,531.3,515.6)" />
<use xlink:href="#f0_5" transform="matrix(12,0,0,12,543.6,515.6)" />
<use xlink:href="#f0_t" transform="matrix(12,0,0,12,547.7,515.6)" />
<use xlink:href="#f0_j" transform="matrix(12,0,0,12,559.6,515.6)" />
<use xlink:href="#f0_b" transform="matrix(12,0,0,12,571,515.6)" />
<use xlink:href="#f0_f" transform="matrix(12,0,0,12,584,515.6)" />
<use xlink:href="#f0_a" transform="matrix(12,0,0,12,596.4,515.6)" />
<use xlink:href="#f0_4" transform="matrix(12,0,0,12,614.2,515.6)" />
<use xlink:href="#f0_c" transform="matrix(12,0,0,12,626.3,515.6)" />
<use xlink:href="#f0_e" transform="matrix(12,0,0,12,644.3,515.6)" />
<use xlink:href="#f0_s" transform="matrix(12,0,0,12,656.5,515.6)" />
<use xlink:href="#f0_9" transform="matrix(12,0,0,12,664,515.6)" />
<use xlink:href="#f0_4" transform="matrix(12,0,0,12,674.4,515.6)" />
<use xlink:href="#f0_13" transform="matrix(12,0,0,12,692.2,515.6)" />
<use xlink:href="#f1_1l" transform="matrix(11,0,0,11,275.6,515.6)" />
<use xlink:href="#f1_h" transform="matrix(11,0,0,11,285.8,515.6)" />
<use xlink:href="#f1_b" transform="matrix(11,0,0,11,291.3,515.6)" />
<use xlink:href="#f1_8" transform="matrix(11,0,0,11,298.8,515.6)" />
<use xlink:href="#f1_o" transform="matrix(11,0,0,11,307.2,515.6)" />
<use xlink:href="#f1_i" transform="matrix(11,0,0,11,315.6,515.6)" />
<use xlink:href="#f1_c" transform="matrix(11,0,0,11,323.1,515.6)" />
<use xlink:href="#f1_d" transform="matrix(11,0,0,11,334.8,515.6)" />
<use xlink:href="#f1_b" transform="matrix(11,0,0,11,339.4,515.6)" />
<use xlink:href="#f1_9" transform="matrix(11,0,0,11,346.8,515.6)" />
<use xlink:href="#f1_9" transform="matrix(11,0,0,11,357.5,515.6)" />
<use xlink:href="#f1_j" transform="matrix(11,0,0,11,364.1,515.6)" />
<use xlink:href="#f1_l" transform="matrix(11,0,0,11,368.8,515.6)" />
<use xlink:href="#f1_o" transform="matrix(11,0,0,11,377.2,515.6)" />
<use xlink:href="#f1_j" transform="matrix(11,0,0,11,385.5,515.6)" />
<use xlink:href="#f1_c" transform="matrix(11,0,0,11,390.2,515.6)" />
<use xlink:href="#f1_e" transform="matrix(11,0,0,11,397.6,515.6)" />
<use xlink:href="#f1_2" transform="matrix(11,0,0,11,406,515.6)" />
<use xlink:href="#f1_c" transform="matrix(11,0,0,11,410.8,515.6)" />
<use xlink:href="#f1_9" transform="matrix(11,0,0,11,418.1,515.6)" />
<use xlink:href="#f1_18" transform="matrix(11,0,0,11,428.9,515.6)" />
<use xlink:href="#f1_h" transform="matrix(11,0,0,11,434.4,515.6)" />
<use xlink:href="#f1_b" transform="matrix(11,0,0,11,440,515.6)" />
<use xlink:href="#f1_9" transform="matrix(11,0,0,11,447.5,515.6)" />
<use xlink:href="#f1_c" transform="matrix(11,0,0,11,454.1,515.6)" />
<use xlink:href="#f1_9" transform="matrix(11,0,0,11,461.5,515.6)" />
</g>
</g>
<path d="M129.2,561.1H603.8M129.2,583.2H603.8M129.2,605.4H603.8M129.2,659.6H603.8" class="g1_8" />
<g clip-path="url(#c0_8)">
<g fill="#000000" >
<use xlink:href="#f0_w" transform="matrix(12,0,0,12,707.7,556.4)" />
<use xlink:href="#f0_5" transform="matrix(12,0,0,12,715,556.4)" />
<use xlink:href="#f0_2" transform="matrix(12,0,0,12,719.1,556.4)" />
<use xlink:href="#f0_8" transform="matrix(12,0,0,12,735.3,556.4)" />
<use xlink:href="#f0_7" transform="matrix(12,0,0,12,745.9,556.4)" />
<use xlink:href="#f0_4" transform="matrix(12,0,0,12,750.9,556.4)" />
<use xlink:href="#f0_h" transform="matrix(12,0,0,12,762.9,556.4)" />
<use xlink:href="#f0_w" transform="matrix(12,0,0,12,658.8,578.6)" />
<use xlink:href="#f0_7" transform="matrix(12,0,0,12,666.1,578.6)" />
<use xlink:href="#f0_d" transform="matrix(12,0,0,12,671.1,578.6)" />
<use xlink:href="#f0_2" transform="matrix(12,0,0,12,678.5,578.6)" />
<use xlink:href="#f0_8" transform="matrix(12,0,0,12,694.8,578.6)" />
<use xlink:href="#f0_7" transform="matrix(12,0,0,12,705.3,578.6)" />
<use xlink:href="#f0_4" transform="matrix(12,0,0,12,710.4,578.6)" />
<use xlink:href="#f0_h" transform="matrix(12,0,0,12,722.4,578.6)" />
<use xlink:href="#f0_4" transform="matrix(12,0,0,12,732,578.6)" />
<use xlink:href="#f0_2" transform="matrix(12,0,0,12,749.9,578.6)" />
<use xlink:href="#f0_c" transform="matrix(12,0,0,12,760.3,578.6)" />
<use xlink:href="#f0_w" transform="matrix(12,0,0,12,657.3,600.7)" />
<use xlink:href="#f0_7" transform="matrix(12,0,0,12,664.6,600.7)" />
<use xlink:href="#f0_d" transform="matrix(12,0,0,12,669.6,600.7)" />
<use xlink:href="#f0_2" transform="matrix(12,0,0,12,676.9,600.7)" />
<use xlink:href="#f0_8" transform="matrix(12,0,0,12,693.3,600.7)" />
<use xlink:href="#f0_4" transform="matrix(12,0,0,12,703.8,600.7)" />
<use xlink:href="#f0_7" transform="matrix(12,0,0,12,715.9,600.7)" />
<use xlink:href="#f0_h" transform="matrix(12,0,0,12,720.9,600.7)" />
<use xlink:href="#f0_a" transform="matrix(12,0,0,12,736.3,600.7)" />
<use xlink:href="#f0_4" transform="matrix(12,0,0,12,748.2,600.7)" />
<use xlink:href="#f0_c" transform="matrix(12,0,0,12,760.3,600.7)" />
<use xlink:href="#f0_8" transform="matrix(12,0,0,12,612.2,622.9)" />
<use xlink:href="#f0_7" transform="matrix(12,0,0,12,622.7,622.9)" />
<use xlink:href="#f0_4" transform="matrix(12,0,0,12,627.7,622.9)" />
<use xlink:href="#f0_h" transform="matrix(12,0,0,12,639.8,622.9)" />
<use xlink:href="#f0_2" transform="matrix(12,0,0,12,649.4,622.9)" />
<use xlink:href="#f0_k" transform="matrix(12,0,0,12,680.5,622.9)" />
<use xlink:href="#f0_5" transform="matrix(12,0,0,12,690.3,622.9)" />
<use xlink:href="#f0_9" transform="matrix(12,0,0,12,694.4,622.9)" />
<use xlink:href="#f0_g" transform="matrix(12,0,0,12,704.8,622.9)" />
<use xlink:href="#f0_a" transform="matrix(12,0,0,12,736.2,622.9)" />
<use xlink:href="#f0_4" transform="matrix(12,0,0,12,748.2,622.9)" />
<use xlink:href="#f0_c" transform="matrix(12,0,0,12,760.2,622.9)" />
<use xlink:href="#f0_w" transform="matrix(12,0,0,12,730.7,655)" />
<use xlink:href="#f0_e" transform="matrix(12,0,0,12,738.1,655)" />
<use xlink:href="#f0_a" transform="matrix(12,0,0,12,750.3,655)" />
<use xlink:href="#f0_2" transform="matrix(12,0,0,12,762.2,655)" />
</g>
<g fill="#0000FF" >
<use xlink:href="#f0_2" transform="matrix(12,0,0,12,649.3,714.7)" />
<use xlink:href="#f0_5" transform="matrix(12,0,0,12,660,714.7)" />
<use xlink:href="#f0_s" transform="matrix(12,0,0,12,664.5,714.7)" />
<use xlink:href="#f0_9" transform="matrix(12,0,0,12,672.3,714.7)" />
<use xlink:href="#f0_4" transform="matrix(12,0,0,12,683.1,714.7)" />
<use xlink:href="#f0_2" transform="matrix(12,0,0,12,695.5,714.7)" />
<use xlink:href="#f0_4" transform="matrix(12,0,0,12,712.4,714.7)" />
<use xlink:href="#f0_7" transform="matrix(12,0,0,12,724.9,714.7)" />
<use xlink:href="#f0_8" transform="matrix(12,0,0,12,730.3,714.7)" />
<use xlink:href="#f0_7" transform="matrix(12,0,0,12,741.2,714.7)" />
<use xlink:href="#f0_b" transform="matrix(12,0,0,12,746.6,714.7)" />
<use xlink:href="#f0_4" transform="matrix(12,0,0,12,759.8,714.7)" />
</g>
</g>
<path d="M642.9,716.5H772.1" class="g2_8" />
<g clip-path="url(#c1_8)">
<path d="M642.4,716.5h5.8" class="g2_8" />
</g>
<g clip-path="url(#c0_8)">
<g fill="#0000FF" >
<use xlink:href="#f0_1b" transform="matrix(12,0,0,12,630.7,714.7)" />
</g>
</g>
<path d="M630.7,716.5h11.6" class="g2_8" />
<g clip-path="url(#c0_8)">
<g fill="#000000" >
<use xlink:href="#f3_m" transform="matrix(12,0,0,12,723.8,755.5)" />
<use xlink:href="#f3_7" transform="matrix(12,0,0,12,735,755.5)" />
<use xlink:href="#f3_b" transform="matrix(12,0,0,12,740.3,755.5)" />
<use xlink:href="#f3_4" transform="matrix(12,0,0,12,748.6,755.5)" />
<use xlink:href="#f3_l" transform="matrix(12,0,0,12,759.6,755.5)" />
<use xlink:href="#f3_15" transform="matrix(12,0,0,12,704.6,755.5)" />
<use xlink:href="#f0_c" transform="matrix(12,0,0,12,319,755.5)" />
<use xlink:href="#f0_b" transform="matrix(12,0,0,12,331.2,755.5)" />
<use xlink:href="#f0_7" transform="matrix(12,0,0,12,344.2,755.5)" />
<use xlink:href="#f0_f" transform="matrix(12,0,0,12,349.2,755.5)" />
<use xlink:href="#f0_e" transform="matrix(12,0,0,12,367.5,755.5)" />
<use xlink:href="#f0_n" transform="matrix(12,0,0,12,379.8,755.5)" />
<use xlink:href="#f0_e" transform="matrix(12,0,0,12,397,755.5)" />
<use xlink:href="#f0_5" transform="matrix(12,0,0,12,409.1,755.5)" />
<use xlink:href="#f0_t" transform="matrix(12,0,0,12,413.2,755.5)" />
<use xlink:href="#f0_j" transform="matrix(12,0,0,12,425.1,755.5)" />
<use xlink:href="#f0_b" transform="matrix(12,0,0,12,436.5,755.5)" />
<use xlink:href="#f0_f" transform="matrix(12,0,0,12,449.5,755.5)" />
<use xlink:href="#f0_2" transform="matrix(12,0,0,12,462,755.5)" />
<use xlink:href="#f0_e" transform="matrix(12,0,0,12,478.2,755.5)" />
<use xlink:href="#f0_5" transform="matrix(12,0,0,12,490.4,755.5)" />
<use xlink:href="#f0_c" transform="matrix(12,0,0,12,494.5,755.5)" />
<use xlink:href="#f0_8" transform="matrix(12,0,0,12,506.8,755.5)" />
<use xlink:href="#f0_a" transform="matrix(12,0,0,12,517.3,755.5)" />
<use xlink:href="#f0_e" transform="matrix(12,0,0,12,535.2,755.5)" />
<use xlink:href="#f0_5" transform="matrix(12,0,0,12,547.2,755.5)" />
<use xlink:href="#f0_t" transform="matrix(12,0,0,12,551.3,755.5)" />
<use xlink:href="#f0_j" transform="matrix(12,0,0,12,563.2,755.5)" />
<use xlink:href="#f0_b" transform="matrix(12,0,0,12,574.7,755.5)" />
<use xlink:href="#f0_f" transform="matrix(12,0,0,12,587.7,755.5)" />
<use xlink:href="#f0_a" transform="matrix(12,0,0,12,600.2,755.5)" />
<use xlink:href="#f0_4" transform="matrix(12,0,0,12,617.9,755.5)" />
<use xlink:href="#f0_c" transform="matrix(12,0,0,12,629.9,755.5)" />
<use xlink:href="#f0_k" transform="matrix(12,0,0,12,648.1,755.5)" />
<use xlink:href="#f0_7" transform="matrix(12,0,0,12,657.9,755.5)" />
<use xlink:href="#f0_j" transform="matrix(12,0,0,12,662.9,755.5)" />
<use xlink:href="#f0_a" transform="matrix(12,0,0,12,674.3,755.5)" />
<use xlink:href="#f0_13" transform="matrix(12,0,0,12,692.1,755.5)" />
</g>
</g>
<path d="M128.6,779.5H780.8M128.6,807H780.8M128.6,834.5H780.8M128.6,862H780.8M128.6,889.5H780.8M128.6,917H780.8M128.6,944.5H780.8M128.6,972H780.8M128.9,779.2V972.4M454.7,779.2V972.4M780.4,779.2V972.4" class="g1_8" />
<g clip-path="url(#c0_8)">
<g fill="#000000" >
<use xlink:href="#f5_2" transform="matrix(11,0,0,11,463.4,803)" />
<use xlink:href="#f5_3" transform="matrix(11,0,0,11,474.5,803)" />
<use xlink:href="#f5_4" transform="matrix(11,0,0,11,482.9,803)" />
<use xlink:href="#f5_6" transform="matrix(11,0,0,11,493.8,803)" />
<use xlink:href="#f5_3" transform="matrix(11,0,0,11,501.2,803)" />
<use xlink:href="#f5_7" transform="matrix(11,0,0,11,509.6,803)" />
<use xlink:href="#f5_8" transform="matrix(11,0,0,11,521.7,803)" />
<use xlink:href="#f5_9" transform="matrix(11,0,0,11,530.1,803)" />
<use xlink:href="#f5_a" transform="matrix(11,0,0,11,536.6,803)" />
<use xlink:href="#f5_7" transform="matrix(11,0,0,11,545.1,803)" />
<use xlink:href="#f5_3" transform="matrix(11,0,0,11,557.1,803)" />
<use xlink:href="#f5_4" transform="matrix(11,0,0,11,565.5,803)" />
<use xlink:href="#f5_b" transform="matrix(11,0,0,11,576.3,803)" />
<use xlink:href="#f5_c" transform="matrix(11,0,0,11,584.7,803)" />
<use xlink:href="#f5_9" transform="matrix(11,0,0,11,597.3,803)" />
<use xlink:href="#f5_d" transform="matrix(11,0,0,11,603.8,803)" />
<use xlink:href="#f5_e" transform="matrix(11,0,0,11,611.3,803)" />
<use xlink:href="#f5_3" transform="matrix(11,0,0,11,616,803)" />
<use xlink:href="#f5_f" transform="matrix(11,0,0,11,624.3,803)" />
<use xlink:href="#f5_g" transform="matrix(11,0,0,11,629,803)" />
<use xlink:href="#f5_h" transform="matrix(11,0,0,11,137.7,803)" />
<use xlink:href="#f5_3" transform="matrix(11,0,0,11,148.8,803)" />
<use xlink:href="#f5_7" transform="matrix(11,0,0,11,157.2,803)" />
<use xlink:href="#f5_8" transform="matrix(11,0,0,11,169.3,803)" />
<use xlink:href="#f5_9" transform="matrix(11,0,0,11,177.7,803)" />
<use xlink:href="#f5_a" transform="matrix(11,0,0,11,184.2,803)" />
<use xlink:href="#f5_7" transform="matrix(11,0,0,11,192.6,803)" />
<use xlink:href="#f5_3" transform="matrix(11,0,0,11,204.7,803)" />
<use xlink:href="#f5_4" transform="matrix(11,0,0,11,213.1,803)" />
<use xlink:href="#f5_b" transform="matrix(11,0,0,11,224.1,803)" />
<use xlink:href="#f5_c" transform="matrix(11,0,0,11,232.5,803)" />
<use xlink:href="#f5_9" transform="matrix(11,0,0,11,245,803)" />
<use xlink:href="#f5_d" transform="matrix(11,0,0,11,251.6,803)" />
<use xlink:href="#f5_e" transform="matrix(11,0,0,11,258.9,803)" />
<use xlink:href="#f5_3" transform="matrix(11,0,0,11,263.6,803)" />
<use xlink:href="#f5_f" transform="matrix(11,0,0,11,272,803)" />
<use xlink:href="#f5_a" transform="matrix(11,0,0,11,280.9,803)" />
<use xlink:href="#f5_c" transform="matrix(11,0,0,11,293.5,803)" />
<use xlink:href="#f5_3" transform="matrix(11,0,0,11,301.9,803)" />
<use xlink:href="#f5_4" transform="matrix(11,0,0,11,310.3,803)" />
<use xlink:href="#f5_3" transform="matrix(11,0,0,11,316.9,803)" />
<use xlink:href="#f5_i" transform="matrix(11,0,0,11,325.1,803)" />
<use xlink:href="#f5_9" transform="matrix(11,0,0,11,329.9,803)" />
<use xlink:href="#f5_3" transform="matrix(11,0,0,11,336.4,803)" />
<use xlink:href="#f5_4" transform="matrix(11,0,0,11,344.8,803)" />
<use xlink:href="#f5_g" transform="matrix(11,0,0,11,351.4,803)" />
<use xlink:href="#f1_t" transform="matrix(11,0,0,11,137.7,830.5)" />
<use xlink:href="#f1_9" transform="matrix(11,0,0,11,147.9,830.5)" />
<use xlink:href="#f1_i" transform="matrix(11,0,0,11,154.4,830.5)" />
<use xlink:href="#f1_h" transform="matrix(11,0,0,11,161.9,830.5)" />
<use xlink:href="#f1_j" transform="matrix(11,0,0,11,167.4,830.5)" />
<use xlink:href="#f1_v" transform="matrix(11,0,0,11,172.1,830.5)" />
<use xlink:href="#f1_c" transform="matrix(11,0,0,11,180.5,830.5)" />
<use xlink:href="#f1_9" transform="matrix(11,0,0,11,188,830.5)" />
<use xlink:href="#f1_o" transform="matrix(11,0,0,11,198.8,830.5)" />
<use xlink:href="#f1_e" transform="matrix(11,0,0,11,207.2,830.5)" />
<use xlink:href="#f1_i" transform="matrix(11,0,0,11,219.7,830.5)" />
<use xlink:href="#f1_o" transform="matrix(11,0,0,11,227.2,830.5)" />
<use xlink:href="#f1_c" transform="matrix(11,0,0,11,235.6,830.5)" />
<use xlink:href="#f1_e" transform="matrix(11,0,0,11,243.1,830.5)" />
<use xlink:href="#f1_2" transform="matrix(11,0,0,11,251.3,830.5)" />
<use xlink:href="#f1_f" transform="matrix(11,0,0,11,256,830.5)" />
<use xlink:href="#f1_b" transform="matrix(11,0,0,11,268.7,830.5)" />
<use xlink:href="#f1_c" transform="matrix(11,0,0,11,280.3,830.5)" />
<use xlink:href="#f1_d" transform="matrix(11,0,0,11,287.7,830.5)" />
<use xlink:href="#f1_d" transform="matrix(11,0,0,11,292.3,830.5)" />
<use xlink:href="#f1_b" transform="matrix(11,0,0,11,297.1,830.5)" />
<use xlink:href="#f1_9" transform="matrix(11,0,0,11,304.5,830.5)" />
<use xlink:href="#f1_13" transform="matrix(11,0,0,11,310.9,830.5)" />
<use xlink:href="#f1_1d" transform="matrix(11,0,0,11,137.7,858)" />
<use xlink:href="#f1_b" transform="matrix(11,0,0,11,149.7,858)" />
<use xlink:href="#f1_k" transform="matrix(11,0,0,11,157.2,858)" />
<use xlink:href="#f1_f" transform="matrix(11,0,0,11,170.3,858)" />
<use xlink:href="#f1_9" transform="matrix(11,0,0,11,178.7,858)" />
<use xlink:href="#f1_o" transform="matrix(11,0,0,11,189.4,858)" />
<use xlink:href="#f1_e" transform="matrix(11,0,0,11,197.8,858)" />
<use xlink:href="#f1_l" transform="matrix(11,0,0,11,210.5,858)" />
<use xlink:href="#f1_b" transform="matrix(11,0,0,11,218.9,858)" />
<use xlink:href="#f1_2" transform="matrix(11,0,0,11,226.2,858)" />
<use xlink:href="#f1_f" transform="matrix(11,0,0,11,230.9,858)" />
<use xlink:href="#f1_b" transform="matrix(11,0,0,11,243.6,858)" />
<use xlink:href="#f1_7" transform="matrix(11,0,0,11,255.2,858)" />
<use xlink:href="#f1_8" transform="matrix(11,0,0,11,267.2,858)" />
<use xlink:href="#f1_9" transform="matrix(11,0,0,11,275.6,858)" />
<use xlink:href="#f1_13" transform="matrix(11,0,0,11,282.2,858)" />
<use xlink:href="#f1_u" transform="matrix(11,0,0,11,137.7,885.5)" />
<use xlink:href="#f1_o" transform="matrix(11,0,0,11,152.6,885.5)" />
<use xlink:href="#f1_c" transform="matrix(11,0,0,11,161,885.5)" />
<use xlink:href="#f1_9" transform="matrix(11,0,0,11,168.5,885.5)" />
<use xlink:href="#f1_2" transform="matrix(11,0,0,11,174.9,885.5)" />
<use xlink:href="#f1_h" transform="matrix(11,0,0,11,179.6,885.5)" />
<use xlink:href="#f1_b" transform="matrix(11,0,0,11,185.2,885.5)" />
<use xlink:href="#f1_1b" transform="matrix(11,0,0,11,196.8,885.5)" />
<use xlink:href="#f1_2" transform="matrix(11,0,0,11,202.5,885.5)" />
<use xlink:href="#f1_3" transform="matrix(11,0,0,11,207.2,885.5)" />
<use xlink:href="#f1_1c" transform="matrix(11,0,0,11,215.4,885.5)" />
<use xlink:href="#f1_d" transform="matrix(11,0,0,11,225.3,885.5)" />
<use xlink:href="#f1_b" transform="matrix(11,0,0,11,229.9,885.5)" />
<use xlink:href="#f1_k" transform="matrix(11,0,0,11,241.6,885.5)" />
<use xlink:href="#f1_c" transform="matrix(11,0,0,11,254.6,885.5)" />
<use xlink:href="#f1_9" transform="matrix(11,0,0,11,262.1,885.5)" />
<use xlink:href="#f1_b" transform="matrix(11,0,0,11,268.7,885.5)" />
<use xlink:href="#f1_b" transform="matrix(11,0,0,11,280.2,885.5)" />
<use xlink:href="#f1_y" transform="matrix(11,0,0,11,292,885.5)" />
<use xlink:href="#f1_d" transform="matrix(11,0,0,11,299.3,885.5)" />
<use xlink:href="#f1_x" transform="matrix(11,0,0,11,304,885.5)" />
<use xlink:href="#f1_r" transform="matrix(11,0,0,11,137.7,913)" />
<use xlink:href="#f1_f" transform="matrix(11,0,0,11,149.7,913)" />
<use xlink:href="#f1_8" transform="matrix(11,0,0,11,162.4,913)" />
<use xlink:href="#f1_f" transform="matrix(11,0,0,11,170.8,913)" />
<use xlink:href="#f1_11" transform="matrix(11,0,0,11,179.2,913)" />
<use xlink:href="#f1_e" transform="matrix(11,0,0,11,191.9,913)" />
<use xlink:href="#f1_b" transform="matrix(11,0,0,11,200.3,913)" />
<use xlink:href="#f1_8" transform="matrix(11,0,0,11,207.7,913)" />
<use xlink:href="#f1_b" transform="matrix(11,0,0,11,216,913)" />
<use xlink:href="#f1_b" transform="matrix(11,0,0,11,227.7,913)" />
<use xlink:href="#f1_2" transform="matrix(11,0,0,11,239.3,913)" />
<use xlink:href="#f1_j" transform="matrix(11,0,0,11,244,913)" />
<use xlink:href="#f1_13" transform="matrix(11,0,0,11,248.6,913)" />
<use xlink:href="#f1_1l" transform="matrix(11,0,0,11,137.7,940.5)" />
<use xlink:href="#f1_h" transform="matrix(11,0,0,11,147.9,940.5)" />
<use xlink:href="#f1_b" transform="matrix(11,0,0,11,153.5,940.5)" />
<use xlink:href="#f1_c" transform="matrix(11,0,0,11,161,940.5)" />
<use xlink:href="#f1_9" transform="matrix(11,0,0,11,168.4,940.5)" />
<use xlink:href="#f1_m" transform="matrix(11,0,0,11,179.1,940.5)" />
<use xlink:href="#f1_o" transform="matrix(11,0,0,11,183.8,940.5)" />
<use xlink:href="#f1_l" transform="matrix(11,0,0,11,192.2,940.5)" />
<use xlink:href="#f1_f" transform="matrix(11,0,0,11,200.6,940.5)" />
<use xlink:href="#f1_8" transform="matrix(11,0,0,11,213.2,940.5)" />
<use xlink:href="#f1_c" transform="matrix(11,0,0,11,221.6,940.5)" />
<use xlink:href="#f1_e" transform="matrix(11,0,0,11,233.3,940.5)" />
<use xlink:href="#f1_b" transform="matrix(11,0,0,11,241.5,940.5)" />
<use xlink:href="#f1_h" transform="matrix(11,0,0,11,249,940.5)" />
<use xlink:href="#f1_b" transform="matrix(11,0,0,11,254.6,940.5)" />
<use xlink:href="#f1_e" transform="matrix(11,0,0,11,262.1,940.5)" />
<use xlink:href="#f1_m" transform="matrix(11,0,0,11,270.3,940.5)" />
<use xlink:href="#f1_b" transform="matrix(11,0,0,11,275.1,940.5)" />
<use xlink:href="#f1_b" transform="matrix(11,0,0,11,286.8,940.5)" />
<use xlink:href="#f1_17" transform="matrix(11,0,0,11,298.4,940.5)" />
<use xlink:href="#f1_f" transform="matrix(11,0,0,11,308.6,940.5)" />
<use xlink:href="#f1_d" transform="matrix(11,0,0,11,317,940.5)" />
<use xlink:href="#f1_b" transform="matrix(11,0,0,11,321.7,940.5)" />
<use xlink:href="#f1_13" transform="matrix(11,0,0,11,329.1,940.5)" />
<use xlink:href="#f1_1l" transform="matrix(11,0,0,11,137.7,968)" />
<use xlink:href="#f1_h" transform="matrix(11,0,0,11,147.9,968)" />
<use xlink:href="#f1_b" transform="matrix(11,0,0,11,153.5,968)" />
<use xlink:href="#f1_c" transform="matrix(11,0,0,11,161,968)" />
<use xlink:href="#f1_9" transform="matrix(11,0,0,11,168.4,968)" />
<use xlink:href="#f1_2" transform="matrix(11,0,0,11,179.1,968)" />
<use xlink:href="#f1_o" transform="matrix(11,0,0,11,183.8,968)" />
<use xlink:href="#f1_8" transform="matrix(11,0,0,11,196.4,968)" />
<use xlink:href="#f1_j" transform="matrix(11,0,0,11,204.8,968)" />
<use xlink:href="#f1_e" transform="matrix(11,0,0,11,209.5,968)" />
<use xlink:href="#f1_c" transform="matrix(11,0,0,11,217.9,968)" />
<use xlink:href="#f1_h" transform="matrix(11,0,0,11,225.2,968)" />
<use xlink:href="#f1_f" transform="matrix(11,0,0,11,230.8,968)" />
<use xlink:href="#f1_b" transform="matrix(11,0,0,11,243.5,968)" />
<use xlink:href="#f1_e" transform="matrix(11,0,0,11,255.1,968)" />
<use xlink:href="#f1_f" transform="matrix(11,0,0,11,263.5,968)" />
<use xlink:href="#f1_9" transform="matrix(11,0,0,11,271.9,968)" />
<use xlink:href="#f1_f" transform="matrix(11,0,0,11,278.4,968)" />
<use xlink:href="#f1_2" transform="matrix(11,0,0,11,286.9,968)" />
<use xlink:href="#f1_h" transform="matrix(11,0,0,11,291.4,968)" />
<use xlink:href="#f1_f" transform="matrix(11,0,0,11,297.1,968)" />
<use xlink:href="#f1_9" transform="matrix(11,0,0,11,305.5,968)" />
<use xlink:href="#f1_13" transform="matrix(11,0,0,11,312,968)" />
</g>
<g fill="#0000FF" >
<use xlink:href="#f0_2" transform="matrix(12,0,0,12,649.3,1007.7)" />
<use xlink:href="#f0_5" transform="matrix(12,0,0,12,660,1007.7)" />
<use xlink:href="#f0_s" transform="matrix(12,0,0,12,664.5,1007.7)" />
<use xlink:href="#f0_9" transform="matrix(12,0,0,12,672.3,1007.7)" />
<use xlink:href="#f0_4" transform="matrix(12,0,0,12,683.1,1007.7)" />
<use xlink:href="#f0_2" transform="matrix(12,0,0,12,695.5,1007.7)" />
<use xlink:href="#f0_4" transform="matrix(12,0,0,12,712.4,1007.7)" />
<use xlink:href="#f0_7" transform="matrix(12,0,0,12,724.9,1007.7)" />
<use xlink:href="#f0_8" transform="matrix(12,0,0,12,730.3,1007.7)" />
<use xlink:href="#f0_7" transform="matrix(12,0,0,12,741.2,1007.7)" />
<use xlink:href="#f0_b" transform="matrix(12,0,0,12,746.6,1007.7)" />
<use xlink:href="#f0_4" transform="matrix(12,0,0,12,759.8,1007.7)" />
</g>
</g>
<path d="M642.9,1009.6H772.1" class="g2_8" />
<g clip-path="url(#c2_8)">
<path d="M642.4,1009.6h5.8" class="g2_8" />
</g>
<g clip-path="url(#c0_8)">
<g fill="#0000FF" >
<use xlink:href="#f0_1d" transform="matrix(12,0,0,12,630.7,1007.7)" />
</g>
</g>
<path d="M630.7,1009.6h11.6" class="g2_8" />
<g clip-path="url(#c0_8)">
<g fill="#000000" >
<use xlink:href="#f3_m" transform="matrix(12,0,0,12,723.8,1087.2)" />
<use xlink:href="#f3_7" transform="matrix(12,0,0,12,735,1087.2)" />
<use xlink:href="#f3_b" transform="matrix(12,0,0,12,740.3,1087.2)" />
<use xlink:href="#f3_4" transform="matrix(12,0,0,12,748.6,1087.2)" />
<use xlink:href="#f3_l" transform="matrix(12,0,0,12,759.6,1087.2)" />
<use xlink:href="#f3_6" transform="matrix(12,0,0,12,704.6,1087.2)" />
<use xlink:href="#f0_c" transform="matrix(12,0,0,12,352.3,1087.2)" />
<use xlink:href="#f0_f" transform="matrix(12,0,0,12,364.5,1087.2)" />
<use xlink:href="#f0_s" transform="matrix(12,0,0,12,377,1087.2)" />
<use xlink:href="#f0_7" transform="matrix(12,0,0,12,384.5,1087.2)" />
<use xlink:href="#f0_l" transform="matrix(12,0,0,12,389.5,1087.2)" />
<use xlink:href="#f0_a" transform="matrix(12,0,0,12,399.6,1087.2)" />
<use xlink:href="#f0_5" transform="matrix(12,0,0,12,417.3,1087.2)" />
<use xlink:href="#f0_j" transform="matrix(12,0,0,12,421.4,1087.2)" />
<use xlink:href="#f0_2" transform="matrix(12,0,0,12,432.9,1087.2)" />
<use xlink:href="#f0_e" transform="matrix(12,0,0,12,449.2,1087.2)" />
<use xlink:href="#f0_5" transform="matrix(12,0,0,12,461.4,1087.2)" />
<use xlink:href="#f0_c" transform="matrix(12,0,0,12,465.5,1087.2)" />
<use xlink:href="#f0_8" transform="matrix(12,0,0,12,477.8,1087.2)" />
<use xlink:href="#f0_a" transform="matrix(12,0,0,12,488.3,1087.2)" />
<use xlink:href="#f0_e" transform="matrix(12,0,0,12,506,1087.2)" />
<use xlink:href="#f0_5" transform="matrix(12,0,0,12,518.1,1087.2)" />
<use xlink:href="#f0_t" transform="matrix(12,0,0,12,522.2,1087.2)" />
<use xlink:href="#f0_j" transform="matrix(12,0,0,12,534.1,1087.2)" />
<use xlink:href="#f0_b" transform="matrix(12,0,0,12,545.5,1087.2)" />
<use xlink:href="#f0_f" transform="matrix(12,0,0,12,558.5,1087.2)" />
<use xlink:href="#f0_2" transform="matrix(12,0,0,12,571,1087.2)" />
<use xlink:href="#f0_4" transform="matrix(12,0,0,12,587.2,1087.2)" />
<use xlink:href="#f0_7" transform="matrix(12,0,0,12,599.3,1087.2)" />
<use xlink:href="#f0_2" transform="matrix(12,0,0,12,604.3,1087.2)" />
<use xlink:href="#f0_5" transform="matrix(12,0,0,12,614.7,1087.2)" />
<use xlink:href="#f0_j" transform="matrix(12,0,0,12,618.8,1087.2)" />
<use xlink:href="#f0_h" transform="matrix(12,0,0,12,630.2,1087.2)" />
<use xlink:href="#f0_10" transform="matrix(12,0,0,12,645.7,1087.2)" />
<use xlink:href="#f0_o" transform="matrix(12,0,0,12,657.4,1087.2)" />
<use xlink:href="#f0_7" transform="matrix(12,0,0,12,669.3,1087.2)" />
<use xlink:href="#f0_a" transform="matrix(12,0,0,12,674.3,1087.2)" />
<use xlink:href="#f0_13" transform="matrix(12,0,0,12,692.1,1087.2)" />
</g>
</g>
<path d="M128.6,1091.8H780.8m-652.2,27.5H780.8m-652.2,27.5H780.8m-652.2,27.5H780.8M128.9,1091.4v83.3m325.8,-83.3v83.3m325.7,-83.3v83.3" class="g1_8" />
<g clip-path="url(#c0_8)">
<g fill="#000000" >
<use xlink:href="#f5_2" transform="matrix(11,0,0,11,463.4,1115.3)" />
<use xlink:href="#f5_3" transform="matrix(11,0,0,11,474.5,1115.3)" />
<use xlink:href="#f5_4" transform="matrix(11,0,0,11,482.9,1115.3)" />
<use xlink:href="#f5_6" transform="matrix(11,0,0,11,493.8,1115.3)" />
<use xlink:href="#f5_3" transform="matrix(11,0,0,11,501.2,1115.3)" />
<use xlink:href="#f5_7" transform="matrix(11,0,0,11,509.6,1115.3)" />
<use xlink:href="#f5_8" transform="matrix(11,0,0,11,521.7,1115.3)" />
<use xlink:href="#f5_9" transform="matrix(11,0,0,11,530.1,1115.3)" />
<use xlink:href="#f5_a" transform="matrix(11,0,0,11,536.6,1115.3)" />
<use xlink:href="#f5_7" transform="matrix(11,0,0,11,545.1,1115.3)" />
<use xlink:href="#f5_3" transform="matrix(11,0,0,11,557.1,1115.3)" />
<use xlink:href="#f5_4" transform="matrix(11,0,0,11,565.5,1115.3)" />
<use xlink:href="#f5_b" transform="matrix(11,0,0,11,576.3,1115.3)" />
<use xlink:href="#f5_c" transform="matrix(11,0,0,11,584.7,1115.3)" />
<use xlink:href="#f5_9" transform="matrix(11,0,0,11,597.3,1115.3)" />
<use xlink:href="#f5_d" transform="matrix(11,0,0,11,603.8,1115.3)" />
<use xlink:href="#f5_e" transform="matrix(11,0,0,11,611.3,1115.3)" />
<use xlink:href="#f5_3" transform="matrix(11,0,0,11,616,1115.3)" />
<use xlink:href="#f5_f" transform="matrix(11,0,0,11,624.3,1115.3)" />
<use xlink:href="#f5_a" transform="matrix(11,0,0,11,633.2,1115.3)" />
<use xlink:href="#f5_c" transform="matrix(11,0,0,11,645.8,1115.3)" />
<use xlink:href="#f5_3" transform="matrix(11,0,0,11,654.2,1115.3)" />
<use xlink:href="#f5_4" transform="matrix(11,0,0,11,662.6,1115.3)" />
<use xlink:href="#f5_3" transform="matrix(11,0,0,11,669.1,1115.3)" />
<use xlink:href="#f5_i" transform="matrix(11,0,0,11,677.5,1115.3)" />
<use xlink:href="#f5_9" transform="matrix(11,0,0,11,682.1,1115.3)" />
<use xlink:href="#f5_3" transform="matrix(11,0,0,11,688.7,1115.3)" />
<use xlink:href="#f5_4" transform="matrix(11,0,0,11,697.1,1115.3)" />
<use xlink:href="#f5_g" transform="matrix(11,0,0,11,703.6,1115.3)" />
<use xlink:href="#f5_h" transform="matrix(11,0,0,11,137.7,1115.3)" />
<use xlink:href="#f5_3" transform="matrix(11,0,0,11,148.8,1115.3)" />
<use xlink:href="#f5_7" transform="matrix(11,0,0,11,157.2,1115.3)" />
<use xlink:href="#f5_8" transform="matrix(11,0,0,11,169.3,1115.3)" />
<use xlink:href="#f5_9" transform="matrix(11,0,0,11,177.7,1115.3)" />
<use xlink:href="#f5_a" transform="matrix(11,0,0,11,184.2,1115.3)" />
<use xlink:href="#f5_7" transform="matrix(11,0,0,11,192.6,1115.3)" />
<use xlink:href="#f5_3" transform="matrix(11,0,0,11,204.7,1115.3)" />
<use xlink:href="#f5_4" transform="matrix(11,0,0,11,213.1,1115.3)" />
<use xlink:href="#f5_b" transform="matrix(11,0,0,11,224.1,1115.3)" />
<use xlink:href="#f5_c" transform="matrix(11,0,0,11,232.5,1115.3)" />
<use xlink:href="#f5_9" transform="matrix(11,0,0,11,245,1115.3)" />
<use xlink:href="#f5_d" transform="matrix(11,0,0,11,251.6,1115.3)" />
<use xlink:href="#f5_e" transform="matrix(11,0,0,11,258.9,1115.3)" />
<use xlink:href="#f5_3" transform="matrix(11,0,0,11,263.6,1115.3)" />
<use xlink:href="#f5_f" transform="matrix(11,0,0,11,272,1115.3)" />
<use xlink:href="#f5_a" transform="matrix(11,0,0,11,280.9,1115.3)" />
<use xlink:href="#f5_c" transform="matrix(11,0,0,11,293.5,1115.3)" />
<use xlink:href="#f5_3" transform="matrix(11,0,0,11,301.9,1115.3)" />
<use xlink:href="#f5_4" transform="matrix(11,0,0,11,310.3,1115.3)" />
<use xlink:href="#f5_3" transform="matrix(11,0,0,11,316.9,1115.3)" />
<use xlink:href="#f5_i" transform="matrix(11,0,0,11,325.1,1115.3)" />
<use xlink:href="#f5_9" transform="matrix(11,0,0,11,329.9,1115.3)" />
<use xlink:href="#f5_3" transform="matrix(11,0,0,11,336.4,1115.3)" />
<use xlink:href="#f5_4" transform="matrix(11,0,0,11,344.8,1115.3)" />
<use xlink:href="#f5_g" transform="matrix(11,0,0,11,351.4,1115.3)" />
<use xlink:href="#f1_t" transform="matrix(11,0,0,11,137.7,1142.8)" />
<use xlink:href="#f1_9" transform="matrix(11,0,0,11,147.9,1142.8)" />
<use xlink:href="#f1_i" transform="matrix(11,0,0,11,154.4,1142.8)" />
<use xlink:href="#f1_h" transform="matrix(11,0,0,11,161.9,1142.8)" />
<use xlink:href="#f1_j" transform="matrix(11,0,0,11,167.4,1142.8)" />
<use xlink:href="#f1_v" transform="matrix(11,0,0,11,172.1,1142.8)" />
<use xlink:href="#f1_f" transform="matrix(11,0,0,11,180.5,1142.8)" />
<use xlink:href="#f1_o" transform="matrix(11,0,0,11,193.2,1142.8)" />
<use xlink:href="#f1_e" transform="matrix(11,0,0,11,201.6,1142.8)" />
<use xlink:href="#f1_b" transform="matrix(11,0,0,11,210,1142.8)" />
<use xlink:href="#f1_i" transform="matrix(11,0,0,11,221.6,1142.8)" />
<use xlink:href="#f1_b" transform="matrix(11,0,0,11,229,1142.8)" />
<use xlink:href="#f1_h" transform="matrix(11,0,0,11,236.5,1142.8)" />
<use xlink:href="#f1_2" transform="matrix(11,0,0,11,242,1142.8)" />
<use xlink:href="#f1_b" transform="matrix(11,0,0,11,246.7,1142.8)" />
<use xlink:href="#f1_b" transform="matrix(11,0,0,11,258.3,1142.8)" />
<use xlink:href="#f1_u" transform="matrix(11,0,0,11,270,1142.8)" />
<use xlink:href="#f1_j" transform="matrix(11,0,0,11,284.9,1142.8)" />
<use xlink:href="#f1_l" transform="matrix(11,0,0,11,289.6,1142.8)" />
<use xlink:href="#f1_o" transform="matrix(11,0,0,11,298,1142.8)" />
<use xlink:href="#f1_c" transform="matrix(11,0,0,11,306.4,1142.8)" />
<use xlink:href="#f1_d" transform="matrix(11,0,0,11,313.8,1142.8)" />
<use xlink:href="#f1_1d" transform="matrix(11,0,0,11,137.7,1170.3)" />
<use xlink:href="#f1_c" transform="matrix(11,0,0,11,149.7,1170.3)" />
<use xlink:href="#f1_e" transform="matrix(11,0,0,11,157.2,1170.3)" />
<use xlink:href="#f1_b" transform="matrix(11,0,0,11,169.8,1170.3)" />
<use xlink:href="#f1_l" transform="matrix(11,0,0,11,177.3,1170.3)" />
<use xlink:href="#f1_o" transform="matrix(11,0,0,11,185.7,1170.3)" />
<use xlink:href="#f1_b" transform="matrix(11,0,0,11,194.1,1170.3)" />
<use xlink:href="#f1_b" transform="matrix(11,0,0,11,205.7,1170.3)" />
<use xlink:href="#f1_d" transform="matrix(11,0,0,11,217.4,1170.3)" />
<use xlink:href="#f1_f" transform="matrix(11,0,0,11,222,1170.3)" />
<use xlink:href="#f1_9" transform="matrix(11,0,0,11,230.4,1170.3)" />
<use xlink:href="#f1_w" transform="matrix(11,0,0,11,241.1,1170.3)" />
<use xlink:href="#f1_h" transform="matrix(11,0,0,11,248.5,1170.3)" />
<use xlink:href="#f1_v" transform="matrix(11,0,0,11,254.2,1170.3)" />
<use xlink:href="#f1_f" transform="matrix(11,0,0,11,262.6,1170.3)" />
<use xlink:href="#f1_d" transform="matrix(11,0,0,11,271,1170.3)" />
<use xlink:href="#f1_c" transform="matrix(11,0,0,11,275.6,1170.3)" />
<use xlink:href="#f1_9" transform="matrix(11,0,0,11,283,1170.3)" />
<use xlink:href="#f1_x" transform="matrix(11,0,0,11,289.6,1170.3)" />
<use xlink:href="#f0_1e" transform="matrix(11,0,0,11,137.5,1208.9)" />
</g>
</g>
<defs>
<path d="M139,-317V836H278V-317Z" 
id="f0_p"
transform="scale(0.001,-0.001)" />

<path d="M139,0V836H278V0Z" 
id="f0_7"
transform="scale(0.001,-0.001)" />

<path d="M71,-141V-15L289,62L66,836H210L416,109c0,0,99,42,153,98c0,0,53,56,80,155c0,0,26,98,26,262V836H817V624c0,0,0,-88,-7,-154c0,0,-7,-67,-25,-132c0,0,-18,-66,-51,-116c0,0,-33,-51,-84,-98c0,0,-50,-48,-123,-87c0,0,-72,-39,-169,-74L71,-141Z" 
id="f0_n"
transform="scale(0.001,-0.001)" />

<path d="M180,0L66,836H203L258,443c0,0,36,1,64,6c0,0,28,6,49,18c0,0,20,12,35,26c0,0,15,13,26,36c0,0,11,24,17,44c0,0,7,20,12,55c0,0,6,34,9,60c0,0,3,26,8,71c0,0,4,45,9,77H610c0,0,-13,-194,-31,-271c0,0,-31,-127,-111,-179c0,0,-71,-45,-196,-50L304,107c0,0,73,0,130,5c0,0,56,6,111,21c0,0,54,15,94,40c0,0,40,25,77,64c0,0,37,39,63,94c0,0,25,54,46,128c0,0,21,73,34,166c0,0,13,94,20,211h138c0,0,-14,-124,-29,-218c0,0,-16,-94,-39,-179c0,0,-22,-85,-50,-146c0,0,-28,-61,-68,-112c0,0,-39,-51,-87,-84C744,97,696,65,632,42C632,42,568,19,492,10C492,10,417,0,320,0Z" 
id="f0_b"
transform="scale(0.001,-0.001)" />

<path d="M66,0V107H332V555c0,0,0,92,-37,133c0,0,-37,41,-116,41H85V836h94c0,0,153,0,223,-66c0,0,69,-66,69,-231V0Z" 
id="f0_d"
transform="scale(0.001,-0.001)" />

<path d="M287,0L589,729H66v386H205V836l547,-1l-2,-82L433,0Z" 
id="f0_2"
transform="scale(0.001,-0.001)" />

<path d="M154,0V454l138,56V0ZM722,0V454c0,0,0,161,-49,218c0,0,-48,57,-186,57H139V836H485c0,0,207,0,291,-93c0,0,83,-94,83,-318V0Z" 
id="f0_a"
transform="scale(0.001,-0.001)" />

<path d="M156,-317V454l139,56V-317ZM505,0L806,729H139V835H967V753L650,0Z" 
id="f0_3"
transform="scale(0.001,-0.001)" />

<path d="M139,0V138c0,0,0,61,8,112c0,0,7,52,19,87c0,0,11,36,30,66c0,0,19,31,35,49c0,0,17,19,41,35c0,0,25,17,41,25c0,0,17,7,40,17L141,836H303L613,388c0,0,20,10,33,18c0,0,13,8,34,28c0,0,20,20,33,44c0,0,13,25,22,66c0,0,10,41,10,92V836H882V698c0,0,0,-61,-7,-112c0,0,-6,-52,-18,-88c0,0,-12,-36,-30,-66c0,0,-19,-30,-36,-49c0,0,-17,-18,-41,-34c0,0,-24,-17,-40,-25c0,0,-17,-8,-41,-17L882,0H720L409,448c0,0,-21,-11,-34,-19c0,0,-13,-8,-34,-27c0,0,-21,-20,-34,-44c0,0,-12,-25,-22,-66c0,0,-9,-41,-9,-92V0Z" 
id="f0_c"
transform="scale(0.001,-0.001)" />

<path d="M112,-5c0,0,-39,0,-97,11V113c0,0,48,-10,77,-10c0,0,53,0,70,42c0,0,17,43,17,164V729H50V836H501c0,0,107,0,179,-25c0,0,72,-25,112,-77c0,0,40,-51,57,-118c0,0,16,-67,16,-164V0H726V454c0,0,0,55,-3,92c0,0,-4,37,-17,75c0,0,-14,38,-38,59c0,0,-24,22,-65,36c0,0,-42,13,-102,13H318V309c0,0,0,-160,-46,-237C272,72,226,-5,112,-5Z" 
id="f0_4"
transform="scale(0.001,-0.001)" />

<path d="M868,0L251,900V60L385,40V0H44V40L172,60V941L44,960v40H347L862,259V941L727,960v40h341V960L940,941V0Z" 
id="f1_r"
transform="scale(0.001,-0.001)" />

<path d="M377,45c0,0,99,0,147,73c0,0,47,73,47,237c0,0,0,161,-47,233c0,0,-47,72,-147,72c0,0,-97,0,-141,-69c0,0,-44,-69,-44,-236c0,0,0,-169,45,-240c0,0,44,-70,140,-70Zm0,-59c0,0,-158,0,-238,94c0,0,-81,95,-81,274c0,0,0,178,81,272c0,0,80,94,244,94c0,0,160,0,241,-92c0,0,82,-92,82,-274c0,0,0,-368,-329,-368Z" 
id="f1_f"
transform="scale(0.001,-0.001)" />

<path d="M41,0V49l69,18V634L41,652v49H313l11,-61l50,26c0,0,105,54,188,54c0,0,194,0,194,-207V67L827,49V0H478V49l63,18V484c0,0,0,63,-27,98c0,0,-26,35,-75,35c0,0,-57,0,-114,-25V67L389,49V0Z" 
id="f2_o"
transform="scale(0.001,-0.001)" />

<path d="M379,60c0,0,59,0,84,64c0,0,24,65,24,231c0,0,0,164,-24,227c0,0,-24,63,-84,63c0,0,-57,0,-80,-60c0,0,-22,-61,-22,-230c0,0,0,-173,23,-234c0,0,22,-61,79,-61Zm-2,-74c0,0,-161,0,-240,91c0,0,-79,91,-79,277c0,0,0,186,80,276c0,0,81,90,245,90c0,0,167,0,245,-93c0,0,78,-93,78,-273c0,0,0,-188,-81,-278c0,0,-81,-90,-248,-90Z" 
id="f2_r"
transform="scale(0.001,-0.001)" />

<path d="M276,-14c0,0,-57,0,-125,13C151,-1,83,10,48,23V214H97l28,-98c0,0,26,-26,69,-44c0,0,42,-17,86,-17c0,0,65,0,97,28c0,0,32,28,32,71c0,0,0,41,-31,65c0,0,-30,25,-133,57c0,0,-108,34,-154,92c0,0,-45,58,-45,143c0,0,0,95,71,152c0,0,71,57,183,57c0,0,77,0,207,-22V518H457l-24,82c0,0,-21,22,-60,35c0,0,-40,14,-75,14c0,0,-53,0,-79,-22c0,0,-26,-22,-26,-59c0,0,0,-40,32,-65c0,0,32,-26,132,-55c0,0,109,-34,155,-89c0,0,45,-55,45,-137c0,0,0,-117,-72,-177c0,0,-72,-59,-209,-59Z" 
id="f2_d"
transform="scale(0.001,-0.001)" />

<path d="M399,-14c0,0,-341,0,-341,370c0,0,0,175,87,269c0,0,87,95,249,95c0,0,101,0,220,-23V501H573L541,625c0,0,-62,35,-149,35c0,0,-200,0,-200,-304c0,0,0,-158,61,-225c0,0,61,-67,189,-67c0,0,109,0,189,24V43C631,43,595,16,530,1c0,0,-64,-15,-131,-15Z" 
id="f1_i"
transform="scale(0.001,-0.001)" />

<path d="M431,0V33L535,52V499c0,0,0,62,-32,96c0,0,-32,33,-95,33c0,0,-66,0,-163,-22V52L350,33V0H32V33l89,19V649L32,668v33H237l6,-57c0,0,56,32,119,54c0,0,62,22,110,22c0,0,52,0,95,-20c0,0,44,-19,66,-62c0,0,57,32,134,57c0,0,77,25,128,25c0,0,179,0,179,-207V52l90,-19V0H846V33L950,52V499c0,0,0,129,-119,129c0,0,-19,0,-45,-3c0,0,-26,-3,-52,-7c0,0,-25,-4,-49,-8c0,0,-23,-5,-39,-8c0,0,13,-41,13,-89V52L764,33V0Z" 
id="f1_k"
transform="scale(0.001,-0.001)" />

<path d="M382,45c0,0,188,0,188,314c0,0,0,143,-47,213c0,0,-46,69,-141,69c0,0,-87,0,-146,-24V58c0,0,67,-13,146,-13ZM25,-325v35l88,18V649L34,668v33H231l1,-41c0,0,31,27,84,43c0,0,53,17,107,17c0,0,134,0,208,-94c0,0,73,-93,73,-267c0,0,0,-178,-80,-276c0,0,-80,-97,-232,-97c0,0,-84,0,-160,16c0,0,4,-53,4,-84V-272l123,-18v-35Z" 
id="f1_g"
transform="scale(0.001,-0.001)" />

<path d="M31,0V33l88,19V649L31,668v33H235l7,-87c0,0,44,37,121,71c0,0,76,35,121,35h11V530H463l-43,82c0,0,-37,0,-88,-10c0,0,-52,-10,-89,-26V52L363,33V0Z" 
id="f1_h"
transform="scale(0.001,-0.001)" />

<path d="M284,67c0,0,51,0,88,12c0,0,37,12,74,30V358l-98,-3c0,0,-100,-4,-135,-39c0,0,-35,-35,-35,-117c0,0,0,-132,106,-132ZM233,-14c0,0,-179,0,-179,208c0,0,0,70,27,116c0,0,27,46,87,70c0,0,60,24,173,27l105,3V519c0,0,0,72,-26,107c0,0,-27,34,-82,34c0,0,-75,0,-137,-35L176,538H134V691c0,0,121,26,213,26c0,0,115,0,169,-47c0,0,54,-47,54,-144V52L657,33V0H465L451,70c0,0,-85,-84,-218,-84Z" 
id="f1_b"
transform="scale(0.001,-0.001)" />

<path d="M278,-14c0,0,-52,0,-115,11c0,0,-63,10,-99,23V193H98L134,95c0,0,56,-50,146,-50c0,0,144,0,144,123c0,0,0,91,-114,130l-66,21c0,0,-75,25,-110,50c0,0,-34,26,-53,63c0,0,-18,36,-18,89c0,0,0,92,63,145c0,0,63,54,170,54c0,0,77,0,193,-23V544H454l-32,81c0,0,-39,35,-124,35c0,0,-61,0,-92,-30c0,0,-32,-30,-32,-80c0,0,0,-43,29,-72c0,0,28,-29,86,-48c0,0,110,-38,144,-55c0,0,33,-17,57,-42c0,0,23,-25,36,-57c0,0,13,-32,13,-79c0,0,0,-104,-66,-158c0,0,-66,-53,-195,-53Z" 
id="f1_9"
transform="scale(0.001,-0.001)" />

<path d="M289,-14c0,0,-179,0,-179,205V649L20,668v33H233V200c0,0,0,-128,120,-128c0,0,92,0,173,23V649L420,668v33H649V52L738,33V0H533l-6,57C527,57,474,28,405,7c0,0,-69,-21,-116,-21Z" 
id="f1_o"
transform="scale(0.001,-0.001)" />

<path d="M439,0V33l93,19V500c0,0,0,62,-30,97c0,0,-31,36,-94,36c0,0,-67,0,-165,-22V52L338,33V0H35V33l84,19V649L35,668v33H235l7,-57c0,0,57,33,122,54c0,0,65,22,108,22c0,0,91,0,137,-53c0,0,47,-53,47,-154V52L741,33V0Z" 
id="f1_e"
transform="scale(0.001,-0.001)" />

<path d="M495,413c0,0,0,133,-34,190c0,0,-34,57,-105,57c0,0,-78,0,-119,-63c0,0,-42,-62,-42,-184ZM374,-14c0,0,-163,0,-239,87c0,0,-75,88,-75,283c0,0,0,183,77,273c0,0,76,91,219,91c0,0,269,0,269,-306V353H194V340c0,0,0,-103,23,-160c0,0,22,-57,70,-87c0,0,47,-29,124,-29c0,0,40,0,96,6c0,0,55,7,91,15V43C598,43,562,20,500,3c0,0,-61,-17,-126,-17Z" 
id="f1_c"
transform="scale(0.001,-0.001)" />

<path d="M31,0V33L150,52v956L31,1026v34H274V52L394,33V0Z" 
id="f1_d"
transform="scale(0.001,-0.001)" />

<path d="M64,-325c0,0,-46,0,-107,14v148H-8l19,-81c0,0,25,-21,62,-21c0,0,44,0,67,47c0,0,22,47,22,152V649L57,668v33H286V-28c0,0,0,-146,-57,-221c0,0,-56,-76,-165,-76ZM213,850c0,0,-34,0,-58,24c0,0,-24,24,-24,56c0,0,0,34,24,58c0,0,24,24,58,24c0,0,32,0,56,-24c0,0,24,-24,24,-58c0,0,0,-32,-24,-56c0,0,-24,-24,-56,-24Z" 
id="f1_m"
transform="scale(0.001,-0.001)" />

<path d="M231,0V190H382V0Zm15,359L231,625v489H382V625L367,359Z" 
id="f0_w"
transform="scale(0.001,-0.001)" />

<path d="M254,-20c0,0,-39,0,-65,25c0,0,-26,27,-26,64c0,0,0,38,26,64c0,0,27,26,65,26c0,0,38,0,64,-26c0,0,26,-26,26,-64c0,0,0,-37,-26,-64c0,0,-26,-25,-64,-25ZM219,290l-47,710H335L289,290Z" 
id="f1_x"
transform="scale(0.001,-0.001)" />

<path d="M102,312V836H241V369L102,312Z" 
id="f0_5"
transform="scale(0.001,-0.001)" />

<path d="M585,0V426c0,0,0,54,-8,98c0,0,-8,44,-27,83c0,0,-19,40,-49,66c0,0,-30,26,-77,41c0,0,-47,15,-108,15H66V836H315c0,0,94,0,166,-20c0,0,71,-20,116,-54c0,0,46,-35,75,-88c0,0,28,-52,40,-112c0,0,12,-60,12,-137V0Z" 
id="f0_9"
transform="scale(0.001,-0.001)" />

<path d="M139,0V836H485c0,0,206,0,290,-90c0,0,84,-89,84,-294V0H721V473c0,0,0,147,-49,202c0,0,-48,54,-186,54H277V0Z" 
id="f0_r"
transform="scale(0.001,-0.001)" />

<path d="M139,0V106H400c0,0,176,0,253,71c0,0,78,72,78,250c0,0,0,163,-80,233c0,0,-81,69,-250,69H278L277,564c0,0,-1,-54,26,-80c0,0,27,-25,82,-25c0,0,30,0,80,9V355c0,0,-61,-12,-111,-12c0,0,-100,0,-157,55c0,0,-58,55,-58,186V836H456c0,0,193,0,303,-109c0,0,110,-109,110,-309c0,0,0,-200,-110,-309C759,109,648,0,456,0Z" 
id="f0_j"
transform="scale(0.001,-0.001)" />

<path d="M577,-14c0,0,-243,0,-379,132C198,118,63,250,63,488c0,0,0,258,130,391c0,0,131,132,387,132c0,0,156,0,335,-38l5,-218H871L848,884c0,0,-52,32,-121,50c0,0,-69,17,-141,17c0,0,-191,0,-279,-112c0,0,-88,-113,-88,-349c0,0,0,-217,92,-332c0,0,92,-115,268,-115c0,0,85,0,160,20c0,0,76,21,120,55l27,149h49L930,32c0,0,-164,-46,-353,-46Z" 
id="f1_a"
transform="scale(0.001,-0.001)" />

<path d="M377,44c0,0,99,0,147,73c0,0,47,73,47,237c0,0,0,161,-47,234c0,0,-47,72,-147,72c0,0,-97,0,-141,-69c0,0,-44,-70,-44,-237c0,0,0,-169,45,-239c0,0,44,-71,140,-71Zm0,-58c0,0,-158,0,-238,94c0,0,-81,95,-81,274c0,0,0,178,81,272c0,0,80,94,244,94c0,0,160,0,241,-92c0,0,82,-92,82,-274c0,0,0,-368,-329,-368ZM301,835v24l147,203H606v-27L342,835Z" 
id="f1_1g"
transform="scale(0.001,-0.001)" />

<path d="M66,0V106H564L66,836H228L516,413c0,0,3,2,9,6c0,0,17,13,27,21c0,0,10,8,26,27c0,0,17,20,26,40c0,0,9,21,16,54c0,0,7,34,7,75V836H764V698c0,0,0,-55,-7,-102c0,0,-7,-47,-16,-79c0,0,-10,-33,-27,-62c0,0,-18,-29,-32,-46c0,0,-14,-17,-37,-35c0,0,-22,-17,-36,-25c0,0,-13,-8,-36,-20L767,53V0Z" 
id="f0_g"
transform="scale(0.001,-0.001)" />

<path d="M551,45c0,0,171,0,252,106c0,0,82,107,82,349c0,0,0,241,-82,346c0,0,-82,105,-252,105c0,0,-171,0,-252,-106c0,0,-80,-106,-80,-345c0,0,0,-241,80,-348c0,0,81,-107,252,-107ZM930,-246c0,0,-53,0,-94,17c0,0,-41,18,-83,56c0,0,-41,39,-139,162c0,0,-27,-3,-63,-3c0,0,-239,0,-364,130C187,116,63,247,63,500c0,0,0,511,488,511c0,0,240,0,365,-129c0,0,125,-130,125,-382c0,0,0,-366,-265,-475l37,-45c0,0,66,-82,112,-117c0,0,46,-35,91,-35l61,2v-49c0,0,-17,-7,-64,-17c0,0,-48,-10,-83,-10Z" 
id="f1_1k"
transform="scale(0.001,-0.001)" />

<path d="M32,0V33L151,52V649L52,668v33H275V52L395,33V0ZM201,850c0,0,-32,0,-56,24c0,0,-24,24,-24,56c0,0,0,34,24,58c0,0,24,24,56,24c0,0,34,0,58,-24c0,0,24,-24,24,-58c0,0,0,-32,-24,-56c0,0,-24,-24,-58,-24Z" 
id="f1_j"
transform="scale(0.001,-0.001)" />

<path d="M173,-6C173,-6,61,-6,15,9V177c0,0,73,-10,82,-10c0,0,37,0,52,30c0,0,14,29,14,116V658H18V836H516c0,0,262,0,341,-145c0,0,48,-89,48,-242V0H658V450c0,0,0,131,-37,171c0,0,-34,37,-105,37H411V313c0,0,0,-189,-67,-258C344,55,285,-6,173,-6Z" 
id="f3_l"
transform="scale(0.001,-0.001)" />

<path d="M139,0V836H386V0Z" 
id="f3_8"
transform="scale(0.001,-0.001)" />

<path d="M248,0L521,658H66v429H313V836l493,-1V716L504,0Z" 
id="f3_m"
transform="scale(0.001,-0.001)" />

<path d="M102,250V836H349V351L102,250Z" 
id="f3_7"
transform="scale(0.001,-0.001)" />

<path d="M139,0V177H436c0,0,127,0,184,56c0,0,56,55,56,186c0,0,0,132,-58,186c0,0,-58,53,-181,53H386L385,553c0,0,0,-40,12,-54c0,0,12,-15,31,-15c0,0,19,0,38,2V343c0,0,-46,-11,-94,-11c0,0,-48,0,-87,11c0,0,-38,10,-73,34c0,0,-73,53,-73,196V836H487c0,0,203,0,319,-109c0,0,116,-109,116,-309c0,0,0,-200,-117,-309C805,109,689,0,487,0Z" 
id="f3_5"
transform="scale(0.001,-0.001)" />

<path d="M66,0V177H334c0,0,99,0,150,66c0,0,51,67,51,175c0,0,0,108,-51,175c0,0,-51,66,-150,66H66V836H334c0,0,92,0,168,-24c0,0,75,-24,127,-64c0,0,51,-40,86,-94c0,0,35,-54,51,-113c0,0,15,-60,15,-123c0,0,0,-63,-15,-123c0,0,-16,-59,-51,-113c0,0,-35,-54,-86,-94C629,88,577,48,502,24C502,24,426,0,334,0Z" 
id="f3_o"
transform="scale(0.001,-0.001)" />

<path d="M179,0V190H336V0Zm0,600V790H336V600Z" 
id="f0_v"
transform="scale(0.001,-0.001)" />

<path d="M114,0l60,312c0,0,2,12,8,39c0,0,6,27,7,37c0,0,2,11,5,30c0,0,2,19,4,33c0,0,1,15,1,31c0,0,0,48,-35,146c0,0,-35,98,-98,208H228c0,0,3,-8,27,-67c0,0,25,-58,41,-117c0,0,21,53,50,90c0,0,29,37,57,57c0,0,29,21,65,32c0,0,37,11,65,14c0,0,28,3,67,3c0,0,300,0,300,-396V0H480V106H761V452c0,0,0,146,-46,215c0,0,-45,70,-118,70c0,0,-134,0,-198,-119c0,0,-36,-68,-67,-222c0,0,-2,-10,-6,-27L253,0Z" 
id="f0_f"
transform="scale(0.001,-0.001)" />

<path d="M163,0V190H321V0Z" 
id="f0_q"
transform="scale(0.001,-0.001)" />

<path d="M66,0V106H322c0,0,75,0,127,23c0,0,53,23,82,67c0,0,29,43,42,98c0,0,13,54,13,124c0,0,0,70,-13,124c0,0,-13,55,-42,98c0,0,-29,44,-82,67c0,0,-52,23,-127,23H66V836H322c0,0,87,0,157,-24c0,0,70,-24,115,-64c0,0,45,-40,74,-94c0,0,30,-55,43,-113c0,0,13,-59,13,-123c0,0,0,-64,-13,-123c0,0,-13,-58,-43,-113c0,0,-29,-54,-74,-94C594,88,549,48,479,24C479,24,409,0,322,0Z" 
id="f0_h"
transform="scale(0.001,-0.001)" />

<path d="M736,107V473c0,0,0,147,-48,202c0,0,-49,54,-187,54H278V107ZM139,0V836H499c0,0,105,0,177,-22c0,0,72,-21,116,-69c0,0,44,-49,64,-119c0,0,19,-71,19,-174V0Z" 
id="f0_e"
transform="scale(0.001,-0.001)" />

<path d="M522,-20c0,0,-196,0,-290,99c0,0,-94,100,-94,324V836H276V397c0,0,0,-86,16,-147c0,0,17,-60,50,-94c0,0,34,-34,77,-49c0,0,43,-15,103,-15c0,0,59,0,102,15c0,0,44,15,77,49c0,0,33,34,50,94c0,0,17,61,17,147c0,0,0,84,-8,143c0,0,-7,58,-25,105c0,0,-17,47,-51,69c0,0,-33,23,-83,23c0,0,-50,0,-119,-22V821c0,0,85,23,150,23c0,0,76,0,130,-30c0,0,53,-31,85,-90c0,0,31,-59,45,-138c0,0,13,-78,13,-183c0,0,0,-224,-93,-324c0,0,-94,-99,-290,-99Z" 
id="f0_t"
transform="scale(0.001,-0.001)" />

<path d="M495,0V729H66V836H781V729H634V0Z" 
id="f0_l"
transform="scale(0.001,-0.001)" />

<path d="M522,92c0,0,247,0,247,333c0,0,0,88,-17,146c0,0,-17,58,-53,91c0,0,-35,33,-82,46c0,0,-48,14,-116,14H276V419c0,0,0,-327,246,-327Zm0,-112c0,0,-193,0,-289,109c0,0,-95,110,-95,337V836H501c0,0,213,0,309,-93c0,0,96,-94,96,-317c0,0,0,-227,-95,-337C811,89,715,-20,522,-20Z" 
id="f0_o"
transform="scale(0.001,-0.001)" />

<path d="M66,0V107H554V452c0,0,0,56,-4,93c0,0,-4,37,-18,75c0,0,-14,38,-40,60c0,0,-26,22,-71,36c0,0,-45,13,-110,13H66V836H312c0,0,91,0,157,-17c0,0,66,-17,109,-49c0,0,44,-32,69,-84c0,0,26,-52,36,-114c0,0,10,-62,10,-147V107H817V0Z" 
id="f0_8"
transform="scale(0.001,-0.001)" />

<path d="M117,-176L179,62V190H336V62L213,-176Z" 
id="f0_m"
transform="scale(0.001,-0.001)" />

<path d="M383,64c0,0,85,0,152,28V645c0,0,-67,13,-152,13c0,0,-194,0,-194,-314c0,0,0,-141,48,-211c0,0,48,-69,146,-69ZM342,-14c0,0,-287,0,-287,358c0,0,0,184,82,280c0,0,81,96,239,96c0,0,81,0,163,-18c0,0,-4,25,-4,124v182l-118,18v34H659V52L745,33V0H548l-9,52c0,0,-84,-66,-197,-66Z" 
id="f1_8"
transform="scale(0.001,-0.001)" />

<path d="M345,75c0,0,50,0,110,26V351l-63,-2c0,0,-72,-3,-100,-38c0,0,-28,-35,-28,-113c0,0,0,-63,22,-93c0,0,23,-30,59,-30ZM266,-14c0,0,-217,0,-217,208c0,0,0,79,32,126c0,0,32,48,93,71c0,0,60,22,190,25l91,2V521c0,0,0,126,-104,126c0,0,-62,0,-140,-39L183,521H134V691c0,0,112,17,165,21c0,0,53,5,108,5c0,0,264,0,264,-194V67L741,49V0H483L466,54C466,54,408,14,361,0c0,0,-47,-14,-95,-14Z" 
id="f2_e"
transform="scale(0.001,-0.001)" />

<path d="M186,-14c0,0,-95,0,-154,22V190H81L104,86c0,0,14,-17,40,-26c0,0,26,-10,57,-10c0,0,105,0,105,141V941L178,960v40H562V960L449,941V322c0,0,0,-100,-30,-175c0,0,-31,-74,-93,-118c0,0,-63,-43,-140,-43Z" 
id="f1_1h"
transform="scale(0.001,-0.001)" />

<path d="M30,0V49l76,18V992l-72,18v50H322V67L398,49V0Z" 
id="f2_c"
transform="scale(0.001,-0.001)" />

<path d="M434,423c0,0,0,101,-7,142c0,0,-6,40,-22,60c0,0,-16,19,-45,19c0,0,-44,0,-66,-48c0,0,-22,-49,-22,-173ZM389,-14c0,0,-172,0,-254,89c0,0,-83,90,-83,279c0,0,0,184,79,274c0,0,79,91,238,91c0,0,142,0,206,-76c0,0,64,-76,64,-237V345H271V333c0,0,0,-111,18,-158c0,0,18,-47,58,-72c0,0,40,-25,110,-25c0,0,66,0,166,22V42C623,42,582,18,517,1c0,0,-66,-15,-128,-15Z" 
id="f2_f"
transform="scale(0.001,-0.001)" />

<path d="M159,0V165c0,0,0,69,13,124c0,0,12,55,29,89c0,0,17,33,45,62c0,0,29,28,50,42c0,0,22,14,54,30L128,836H405L666,460c0,0,41,48,41,155V836H952V671c0,0,0,-50,-6,-93c0,0,-6,-42,-16,-73c0,0,-10,-30,-26,-57c0,0,-17,-27,-31,-44c0,0,-15,-17,-37,-33c0,0,-22,-16,-38,-25c0,0,-15,-9,-38,-21L984,0H706L445,376c0,0,-41,-48,-41,-155V0Z" 
id="f3_9"
transform="scale(0.001,-0.001)" />

<path d="M129,0l69,362c0,0,10,56,12,100c0,0,0,84,-27,159c0,0,-27,76,-117,215H322c0,0,9,-6,31,-79c0,0,23,-72,23,-105c0,0,23,82,100,138c0,0,77,57,160,57c0,0,332,0,332,-397V0H538V177H721V449c0,0,0,124,-20,170c0,0,-20,47,-82,47c0,0,-23,0,-43,-9c0,0,-19,-10,-34,-23c0,0,-14,-14,-27,-39c0,0,-13,-25,-22,-46c0,0,-8,-22,-17,-57c0,0,-9,-36,-15,-61c0,0,-5,-24,-13,-65L375,0Z" 
id="f3_d"
transform="scale(0.001,-0.001)" />

<path d="M154,-13c0,0,-38,0,-85,9V198c0,0,58,-15,103,-15c0,0,84,0,118,60c0,0,35,61,35,206c0,0,0,66,-7,105c0,0,-6,39,-24,63c0,0,-17,25,-44,33c0,0,-27,8,-73,8H66V836H225c0,0,198,0,275,-115c0,0,56,-84,65,-264c0,0,3,-55,3,-148c0,0,0,-177,71,-309L393,1c0,0,-53,130,-54,141c0,0,-28,-90,-65,-123c0,0,-38,-32,-120,-32Z" 
id="f3_b"
transform="scale(0.001,-0.001)" />

<path d="M453,0V658H66V836H833V658H700V0Z" 
id="f3_n"
transform="scale(0.001,-0.001)" />

<path d="M71,0V90H214v934H71v90H1073V851H970v160H502V654H792V796H895V411H792V552H502V103H984V263h102V0Z" 
id="f4_2"
transform="scale(0.001,-0.001)" />

<path d="M87,-338c0,0,-45,0,-94,7c0,0,-51,8,-105,22v168l84,-1c0,0,1,-59,23,-86c0,0,21,-26,70,-26c0,0,55,0,77,35c0,0,21,35,21,127V703H51v90H427V-92c0,0,0,-122,-86,-184c0,0,-86,-62,-254,-62ZM277,876c0,0,-61,0,-102,41c0,0,-42,41,-42,101c0,0,0,60,41,101c0,0,42,42,103,42c0,0,58,0,100,-42c0,0,42,-42,42,-101c0,0,0,-59,-42,-101c0,0,-41,-41,-100,-41Z" 
id="f4_3"
transform="scale(0.001,-0.001)" />

<path d="M612,448c0,0,0,156,-29,219c0,0,-29,63,-99,63c0,0,-68,0,-98,-61c0,0,-29,-62,-29,-208V448ZM488,-20c0,0,-205,0,-315,107C173,87,63,195,63,397c0,0,0,197,112,307c0,0,113,110,313,110c0,0,197,0,303,-115c0,0,105,-116,111,-340H357v-6c0,0,0,-154,46,-222c0,0,46,-68,149,-68c0,0,86,0,139,45c0,0,53,46,68,133H883C883,241,851,105,755,42c0,0,-95,-62,-267,-62Z" 
id="f4_4"
transform="scale(0.001,-0.001)" />

<path d="M53,0V90H165V703H53v90H429V681c0,0,47,69,106,101c0,0,60,32,142,32c0,0,97,0,158,-37c0,0,60,-37,93,-114c0,0,55,79,119,115c0,0,64,36,150,36c0,0,137,0,204,-77c0,0,68,-77,68,-233V90h113V0H1110V90h95V464c0,0,0,149,-23,188c0,0,-23,38,-85,38c0,0,-70,0,-109,-54c0,0,-39,-54,-39,-154V90h95V0H591V90h94V464c0,0,0,149,-23,188c0,0,-23,38,-84,38c0,0,-71,0,-110,-54c0,0,-39,-54,-39,-154V90h95V0Z" 
id="f4_5"
transform="scale(0.001,-0.001)" />

<path d="M562,95c0,0,82,0,115,65c0,0,33,66,33,237c0,0,0,171,-33,236c0,0,-33,65,-115,65c0,0,-79,0,-114,-62c0,0,-35,-62,-35,-200V357c0,0,0,-138,35,-200c0,0,35,-62,114,-62ZM35,-317v90H149V703H35v90H413V692c0,0,33,62,90,92c0,0,57,30,140,30c0,0,169,0,267,-111c0,0,97,-111,97,-306c0,0,0,-195,-97,-307C910,90,812,-20,643,-20c0,0,-83,0,-140,29c0,0,-57,30,-90,92V-227H535v-90Z" 
id="f4_6"
transform="scale(0.001,-0.001)" />

<path d="M53,0V90H165v981H53v90H429V90H543V0Z" 
id="f4_7"
transform="scale(0.001,-0.001)" />

<path d="M510,63c0,0,84,0,118,71c0,0,34,72,34,263c0,0,0,191,-34,262c0,0,-33,71,-118,71c0,0,-84,0,-119,-72c0,0,-34,-72,-34,-261c0,0,0,-190,34,-262c0,0,35,-72,119,-72Zm0,-83c0,0,-209,0,-328,110C182,90,63,201,63,397c0,0,0,196,119,307c0,0,119,110,328,110c0,0,211,0,330,-110c0,0,118,-111,118,-307c0,0,0,-196,-119,-307C839,90,720,-20,510,-20Z" 
id="f4_8"
transform="scale(0.001,-0.001)" />

<path d="M403,-20c0,0,-74,0,-156,11C247,-9,164,1,71,23V244h84c0,0,11,-88,67,-135c0,0,56,-46,152,-46c0,0,81,0,124,28c0,0,43,28,43,80c0,0,0,47,-28,74c0,0,-27,26,-105,45L299,318c0,0,-123,30,-178,87c0,0,-55,57,-55,154c0,0,0,129,89,192c0,0,89,63,276,63c0,0,70,0,149,-11c0,0,80,-12,176,-36V567H672c0,0,-7,81,-58,122c0,0,-51,41,-147,41c0,0,-80,0,-122,-25c0,0,-41,-26,-41,-75c0,0,0,-41,24,-64c0,0,24,-23,86,-38L522,500c0,0,156,-40,215,-98c0,0,60,-58,60,-162c0,0,0,-134,-96,-198c0,0,-96,-62,-298,-62Z" 
id="f4_9"
transform="scale(0.001,-0.001)" />

<path d="M700,-317V454c0,0,0,155,-54,215c0,0,-54,60,-180,60H277V551c0,0,0,-55,26,-80c0,0,27,-26,82,-26c0,0,30,0,80,10V341c0,0,-61,-11,-111,-11c0,0,-100,0,-157,55c0,0,-58,55,-58,186V836H466c0,0,203,0,288,-91c0,0,85,-92,85,-293V-317Z" 
id="f0_10"
transform="scale(0.001,-0.001)" />

<path d="M529,65c0,0,183,0,270,108c0,0,87,108,87,334c0,0,0,210,-113,318c0,0,-113,108,-322,108H316V71c0,0,90,-6,213,-6Zm0,-67L172,0H44V40L172,60V941L44,960v40H498c0,0,277,0,411,-123c0,0,133,-124,133,-371c0,0,0,-251,-129,-380C913,126,785,-2,529,-2Z" 
id="f1_1d"
transform="scale(0.001,-0.001)" />

<path d="M460,-325c0,0,-148,79,-231,172c0,0,-84,93,-123,217c0,0,-39,126,-39,304c0,0,0,178,39,303c0,0,39,125,122,217c0,0,82,93,232,172V997c0,0,-91,-52,-145,-134c0,0,-54,-81,-79,-190c0,0,-25,-109,-25,-305c0,0,0,-194,26,-309c0,0,26,-114,82,-193c0,0,56,-79,141,-128v-63Z" 
id="f1_1b"
transform="scale(0.001,-0.001)" />

<path d="M681,416L504,902L333,416ZM669,0V40L803,60L704,348H310L210,60L344,40V0H15V40L128,60l341,949H611L965,60L1092,40V0Z" 
id="f1_1a"
transform="scale(0.001,-0.001)" />

<path d="M32,0V34L151,52V649L52,668v33H275V52L395,34V0Zm71,835v24l146,203H408v-27L144,835Z" 
id="f1_14"
transform="scale(0.001,-0.001)" />

<path d="M49,-325v63c0,0,85,49,140,128c0,0,56,79,83,194c0,0,26,115,26,308c0,0,0,196,-25,305c0,0,-25,109,-79,190c0,0,-54,82,-145,134v63c0,0,149,-80,232,-172c0,0,83,-92,122,-217c0,0,39,-125,39,-303c0,0,0,-177,-39,-303c0,0,-39,-125,-122,-217c0,0,-83,-93,-232,-173Z" 
id="f1_1c"
transform="scale(0.001,-0.001)" />

<path d="M44,0V40L172,60V941L44,960v40H794V760H745L721,922c0,0,-83,11,-241,11H316V543H586l23,119h48V354H609L586,475H316V67H513c0,0,193,0,252,12l43,185h49L843,0Z" 
id="f1_t"
transform="scale(0.001,-0.001)" />

<path d="M289,-14c0,0,-179,0,-179,205V649L20,668v33H233V200c0,0,0,-128,120,-128c0,0,92,0,173,23V649L420,668v33H649V52L738,34V0H533l-6,57C527,57,474,28,405,6c0,0,-69,-20,-116,-20Zm24,849v24l147,203H618v-27L354,835Z" 
id="f1_3"
transform="scale(0.001,-0.001)" />

<path d="M442,0V33l93,19V504c0,0,0,129,-124,129c0,0,-70,0,-168,-22V52L338,33V0H31V33l88,19v956L15,1026v34H243V756c0,0,0,-77,-5,-112c0,0,54,31,122,53c0,0,68,23,115,23c0,0,91,0,137,-53c0,0,47,-53,47,-154V52L744,33V0Z" 
id="f1_12"
transform="scale(0.001,-0.001)" />

<path d="M249,-14c0,0,-71,0,-107,42c0,0,-35,42,-35,119V639H15v33l93,29l76,159h47V701H391V639H231V161c0,0,0,-48,22,-73c0,0,22,-24,57,-24c0,0,44,0,106,12V26C416,26,389,8,340,-2c0,0,-49,-12,-91,-12Z" 
id="f1_2"
transform="scale(0.001,-0.001)" />

<path d="M543,-317V369c0,0,0,85,-8,143c0,0,-8,58,-27,101c0,0,-18,44,-51,69c0,0,-33,24,-80,36c0,0,-48,11,-117,11H66V836H257c0,0,125,0,205,-23c0,0,80,-23,130,-79c0,0,50,-56,70,-143c0,0,20,-86,20,-222V-317Z" 
id="f0_k"
transform="scale(0.001,-0.001)" />

<path d="M235,0V40L394,60V936H356c0,0,-189,0,-258,-15L78,766H28v234H908V766H857L837,921c0,0,-22,5,-98,9c0,0,-75,4,-165,4H538V60L697,40V0Z" 
id="f1_1l"
transform="scale(0.001,-0.001)" />

<path d="M284,67c0,0,51,0,88,12c0,0,37,11,74,29V357l-98,-3c0,0,-100,-3,-135,-38c0,0,-35,-36,-35,-118c0,0,0,-131,106,-131ZM233,-14c0,0,-179,0,-179,208c0,0,0,70,27,116c0,0,27,46,87,70c0,0,60,24,173,27l105,3V519c0,0,0,73,-26,107c0,0,-27,34,-82,34c0,0,-75,0,-137,-35L176,538H134V691c0,0,121,26,213,26c0,0,115,0,169,-47c0,0,54,-47,54,-144V52L657,34V0H465L451,70c0,0,-85,-84,-218,-84Zm22,849v24l146,203H560v-27L296,835Z" 
id="f1_w"
transform="scale(0.001,-0.001)" />

<path d="M64,0V34L168,59V639H47v36l121,29v49c0,0,0,155,61,239c0,0,62,84,173,84c0,0,58,0,107,-15V908H472l-33,92c0,0,-26,16,-62,16c0,0,-47,0,-66,-42c0,0,-19,-42,-19,-157V701H478V639H292V59L443,34V0Z" 
id="f1_18"
transform="scale(0.001,-0.001)" />

<path d="M495,413c0,0,0,133,-34,190c0,0,-34,57,-105,57c0,0,-78,0,-119,-62c0,0,-42,-63,-42,-185ZM374,-14c0,0,-163,0,-239,87c0,0,-75,88,-75,283c0,0,0,183,77,274c0,0,76,90,219,90c0,0,269,0,269,-306V353H194V339c0,0,0,-103,23,-160c0,0,22,-57,70,-86c0,0,47,-30,124,-30c0,0,40,0,96,6c0,0,55,7,91,15V43C598,43,562,19,500,2c0,0,-61,-16,-126,-16ZM285,835v24l146,203H590v-27L326,835Z" 
id="f1_y"
transform="scale(0.001,-0.001)" />

<path d="M235,-20c0,0,-31,0,-51,19c0,0,-21,18,-21,50c0,0,0,65,39,120c0,0,39,54,125,109c0,0,56,35,87,56c0,0,32,20,46,33c0,0,79,45,79,143c0,0,0,27,-7,65c0,0,-8,39,-27,49c0,0,-19,10,-85,10H110c0,0,-36,0,-53,21c0,0,-17,22,-25,71c0,0,-7,49,-7,134c0,0,0,62,27,122c0,0,8,15,8,34c0,0,0,23,-35,37c0,0,-21,7,-30,29c0,0,-9,22,-9,72c0,0,0,24,10,46c0,0,8,22,25,38c0,0,16,16,26,16c0,0,17,0,17,-14c0,0,0,-9,7,-17c0,0,7,-8,34,-14c0,0,65,-15,81,-26c0,0,15,-10,15,-31c0,0,0,-15,-15,-38c0,0,-15,-22,-33,-53c0,0,-19,-30,-34,-67c0,0,-15,-36,-15,-79c0,0,0,-43,14,-56c0,0,15,-14,54,-14H518c0,0,39,0,63,-17c0,0,23,-16,33,-53c0,0,10,-36,17,-89c0,0,6,-52,6,-93c0,0,0,-99,-9,-144c0,0,-9,-44,-40,-80c0,0,-31,-36,-110,-86c0,0,-112,-71,-138,-95c0,0,-26,-23,-36,-44c0,0,-9,-20,-9,-43c0,0,0,-11,5,-26c0,0,6,-15,6,-26c0,0,0,-32,-20,-50c0,0,-20,-19,-51,-19Z" 
id="f2_p"
transform="scale(0.001,-0.001)" />

<path d="M204,-8c0,0,-9,0,-11,5c0,0,-2,5,-2,22V549c0,0,0,40,-4,56c0,0,-4,16,-15,22c0,0,-10,7,-39,7H90c0,0,-33,0,-52,33c0,0,-19,33,-19,90c0,0,0,53,15,98c0,0,16,44,35,44c0,0,12,0,12,-13V872c0,0,0,-27,31,-27h42c0,0,79,0,103,-20c0,0,23,-19,23,-83V67c0,0,0,-16,-8,-26c0,0,-9,-10,-33,-30c0,0,-25,-19,-35,-19Z" 
id="f2_3"
transform="scale(0.001,-0.001)" />

<path d="M423,-13c0,0,-9,0,-14,7c0,0,-5,6,-10,23c0,0,-13,51,-37,108c0,0,-25,58,-55,101c0,0,-21,-37,-51,-115C256,111,225,34,216,0H12L55,212h99c0,0,51,0,72,12c0,0,20,12,40,58c0,0,20,46,18,98V543c0,0,0,46,-7,61c0,0,-7,15,-23,22c0,0,-17,8,-50,8H189c0,0,-76,0,-76,115c0,0,0,56,16,103c0,0,16,47,33,47c0,0,14,0,14,-15c0,0,0,-17,9,-28c0,0,10,-11,40,-11h21c0,0,60,0,85,-8c0,0,25,-9,39,-26c0,0,13,-18,13,-49c0,0,0,-20,-4,-43c0,0,-5,-23,-10,-53c0,0,-6,-31,-10,-71c0,0,-5,-41,-5,-97c0,0,0,-150,62,-269c0,0,28,-58,38,-90l9,-65c0,0,0,-27,-13,-57c0,0,-13,-30,-27,-30Z" 
id="f2_s"
transform="scale(0.001,-0.001)" />

<path d="M554,-8c0,0,-9,0,-11,6c0,0,-2,5,-2,24V548c0,0,0,38,-5,56c0,0,-4,18,-15,25c0,0,-12,7,-41,7H90c0,0,-33,0,-52,33c0,0,-19,33,-19,90c0,0,0,54,15,97c0,0,14,43,30,43c0,0,17,0,17,-13V872c0,0,0,-9,7,-18c0,0,7,-9,27,-9H512c0,0,54,0,77,-8c0,0,23,-9,33,-28c0,0,9,-20,9,-67V81c0,0,0,-31,-27,-53L583,9C583,9,563,-8,554,-8Z" 
id="f2_t"
transform="scale(0.001,-0.001)" />

<path d="M721,-14c0,0,-12,0,-12,9l4,28c0,0,17,82,17,338c0,0,0,105,-11,163c0,0,-11,58,-35,84c0,0,-25,26,-83,26H315c0,0,-43,-39,-67,-90c0,0,-25,-51,-25,-104c0,0,0,-59,17,-104c0,0,17,-45,35,-78c0,0,18,-34,18,-44c0,0,0,-26,-20,-95C273,119,252,50,231,0H26L87,214h69c0,0,23,0,23,14l-7,15c0,0,-15,27,-27,68c0,0,-11,41,-11,83c0,0,0,68,25,124c0,0,25,57,86,116H200c0,0,-45,0,-71,32c0,0,-27,33,-27,94c0,0,0,49,17,93c0,0,16,43,32,43c0,0,17,0,17,-10V869c0,0,0,-24,27,-24H637c0,0,73,0,103,-18c0,0,30,-17,46,-62c0,0,17,-46,24,-124c0,0,8,-78,8,-214V338c0,0,0,-279,-27,-311c0,0,-14,-16,-37,-28c0,0,-23,-13,-33,-13Z" 
id="f2_u"
transform="scale(0.001,-0.001)" />

<path d="M438,65c0,0,131,0,131,293c0,0,0,279,-130,279c0,0,-69,0,-127,-29V80c0,0,60,-15,126,-15ZM20,-325v50l76,18V634L19,652v49H304l1,-36c0,0,80,55,194,55c0,0,146,0,218,-86c0,0,71,-86,71,-271c0,0,0,-183,-83,-280c0,0,-83,-97,-238,-97c0,0,-79,0,-160,19c0,0,5,-48,5,-109V-257l103,-18v-50Z" 
id="f2_v"
transform="scale(0.001,-0.001)" />

<path d="M41,0V49l91,18V634L41,652v49H336l8,-145c0,0,80,89,144,128c0,0,64,40,117,40h40V468H604l-45,94c0,0,-47,0,-106,-21c0,0,-60,-20,-105,-48V67L460,49V0Z" 
id="f2_w"
transform="scale(0.001,-0.001)" />

<path d="M425,-14c0,0,-187,0,-280,90c0,0,-93,90,-93,276c0,0,0,115,42,198c0,0,43,82,121,126c0,0,78,44,182,44c0,0,104,0,227,-26V486H571L539,609c0,0,-25,19,-50,26c0,0,-24,7,-65,7c0,0,-44,0,-79,-35c0,0,-36,-35,-56,-98c0,0,-20,-64,-20,-153c0,0,0,-150,47,-214c0,0,47,-64,148,-64c0,0,103,0,176,21V42C640,42,606,15,547,0c0,0,-59,-14,-122,-14Z" 
id="f2_x"
transform="scale(0.001,-0.001)" />

<path d="M327,-14c0,0,-101,0,-156,45c0,0,-55,45,-55,131V624H25v48l108,29l87,159H332V701H480V624H332V176c0,0,0,-49,20,-73c0,0,20,-25,53,-25c0,0,40,0,97,12V26c0,0,-22,-15,-76,-27c0,0,-55,-13,-99,-13Z" 
id="f2_6"
transform="scale(0.001,-0.001)" />

<path d="M34,0V49l76,18V634L38,652v49H325V67L402,49V0ZM217,831c0,0,-48,0,-81,33c0,0,-34,33,-34,82c0,0,0,48,34,81c0,0,34,33,81,33c0,0,48,0,81,-33c0,0,33,-33,33,-81c0,0,0,-47,-33,-81c0,0,-32,-34,-81,-34Z" 
id="f2_y"
transform="scale(0.001,-0.001)" />

<path d="M534,0V425c0,0,0,109,-41,171c0,0,-41,62,-140,62H66V836H352c0,0,99,0,174,-20c0,0,75,-20,123,-55c0,0,48,-35,78,-87c0,0,30,-53,42,-113c0,0,12,-60,12,-136V0Z" 
id="f3_4"
transform="scale(0.001,-0.001)" />

<path d="M553,159c0,0,76,0,113,49c0,0,38,49,38,147c0,0,0,98,-38,147c0,0,-37,49,-113,49c0,0,-76,0,-113,-49c0,0,-38,-49,-38,-147c0,0,0,-98,38,-147c0,0,37,-49,113,-49ZM550,-20c0,0,-217,0,-336,145C214,125,95,272,95,541c0,0,0,276,139,434c0,0,139,157,381,157c0,0,77,0,149,-11c0,0,73,-12,143,-36V879c0,0,-70,34,-133,50c0,0,-63,16,-122,16c0,0,-128,0,-200,-72c0,0,-71,-71,-83,-211c0,0,49,37,106,55c0,0,58,18,125,18c0,0,171,0,276,-100c0,0,105,-100,105,-262c0,0,0,-179,-117,-287C864,86,747,-20,550,-20Z" 
id="f3_14"
transform="scale(0.001,-0.001)" />

<path d="M138,-7c0,0,-34,0,-72,10V129c0,0,25,-8,52,-8c0,0,33,0,58,5c0,0,26,5,58,24c0,0,33,20,53,54c0,0,21,34,36,97c0,0,15,64,15,151c0,0,0,113,-19,173c0,0,-19,60,-56,82c0,0,-38,22,-107,22H89V836h72c0,0,165,0,240,-91c0,0,76,-91,76,-293c0,0,0,-107,26,-227c0,0,25,-119,83,-225H437c0,0,-43,101,-62,184c0,0,-24,-60,-51,-99c0,0,-26,-38,-56,-58C268,27,239,7,209,0c0,0,-30,-7,-71,-7Z" 
id="f0_s"
transform="scale(0.001,-0.001)" />

<path d="M74,357V479H476V357Z" 
id="f0_13"
transform="scale(0.001,-0.001)" />

<path d="M359,-270c0,0,124,0,192,46c0,0,67,47,67,129c0,0,0,43,-26,67c0,0,-26,24,-79,24H242c0,0,-32,-27,-51,-69c0,0,-20,-41,-20,-77c0,0,0,-64,46,-92c0,0,46,-28,142,-28Zm11,561c0,0,81,0,115,47c0,0,34,47,34,141c0,0,0,100,-35,142c0,0,-35,42,-113,42c0,0,-78,0,-114,-43c0,0,-37,-42,-37,-141c0,0,0,-98,36,-143c0,0,36,-45,114,-45ZM359,-329c0,0,-143,0,-218,44c0,0,-75,43,-75,125c0,0,0,39,27,78c0,0,26,38,98,89c0,0,-43,14,-72,48c0,0,-29,35,-29,74L208,262c0,0,-118,55,-118,217c0,0,0,115,73,178c0,0,73,63,211,63c0,0,28,0,71,-6c0,0,44,-6,67,-13l165,83l26,-32L599,644c0,0,50,-56,50,-165c0,0,0,-120,-72,-182c0,0,-73,-62,-208,-62c0,0,-62,0,-114,11L208,148c0,0,2,-13,29,-24c0,0,27,-12,67,-12H512c0,0,113,0,168,-49c0,0,55,-49,55,-134c0,0,0,-79,-44,-137c0,0,-43,-58,-128,-90c0,0,-84,-31,-204,-31Z" 
id="f1_l"
transform="scale(0.001,-0.001)" />

<path d="M505,98c0,0,101,0,160,70c0,0,60,69,60,189c0,0,0,121,-60,191c0,0,-59,69,-160,69c0,0,-102,0,-161,-69c0,0,-59,-70,-59,-191c0,0,0,-120,59,-189c0,0,59,-70,161,-70ZM504,-20c0,0,-193,0,-295,147c0,0,-102,148,-102,429c0,0,0,264,125,421c0,0,125,157,337,157c0,0,56,0,114,-11c0,0,58,-11,121,-34V952c0,0,-57,27,-115,41c0,0,-58,14,-115,14c0,0,-149,0,-228,-101c0,0,-79,-100,-90,-304c0,0,44,65,111,100c0,0,66,34,146,34c0,0,168,0,266,-102c0,0,97,-101,97,-277c0,0,0,-171,-101,-275C775,82,673,-20,504,-20Z" 
id="f0_1b"
transform="scale(0.001,-0.001)" />

<path d="M228,0L639,903H103v211H942V952L508,0Z" 
id="f3_15"
transform="scale(0.001,-0.001)" />

<path d="M712,0L354,900L205,60L336,40L329,0H-10l7,40L127,60L283,941L157,960l8,40H454L752,250L873,941L742,960l7,40h341l-8,-40L951,941L785,0Z" 
id="f5_2"
transform="scale(0.001,-0.001)" />

<path d="M325,47c0,0,68,0,130,54c0,0,61,55,97,149c0,0,36,94,36,202c0,0,0,103,-39,156c0,0,-39,53,-113,53c0,0,-67,0,-128,-54c0,0,-61,-55,-96,-149c0,0,-35,-94,-35,-204c0,0,0,-101,39,-154c0,0,39,-53,109,-53Zm-6,-61c0,0,-124,0,-199,79c0,0,-74,79,-74,214c0,0,0,120,51,222c0,0,51,102,143,160c0,0,91,59,205,59c0,0,124,0,199,-80c0,0,74,-79,74,-214c0,0,0,-120,-51,-222C667,204,615,102,524,43c0,0,-91,-57,-205,-57Z" 
id="f5_3"
transform="scale(0.001,-0.001)" />

<path d="M228,-14c0,0,-103,0,-209,46L49,200H83L95,99c0,0,20,-21,55,-38c0,0,36,-16,81,-16c0,0,163,0,163,133c0,0,0,44,-35,78c0,0,-34,34,-113,72c0,0,-75,37,-112,81c0,0,-36,45,-36,104c0,0,0,99,66,153c0,0,67,54,184,54c0,0,85,0,200,-26L521,538H486l-11,80c0,0,-47,42,-124,42c0,0,-61,0,-97,-28c0,0,-37,-28,-37,-87c0,0,0,-40,31,-71c0,0,32,-30,119,-75c0,0,78,-40,113,-86c0,0,36,-47,36,-107c0,0,0,-113,-71,-167c0,0,-72,-53,-217,-53Z" 
id="f5_4"
transform="scale(0.001,-0.001)" />

<path d="M298,-14c0,0,-120,0,-185,69c0,0,-66,69,-66,191c0,0,0,130,52,237c0,0,52,107,149,172c0,0,97,65,203,65c0,0,53,0,112,-12c0,0,60,-11,99,-27L628,485H587L575,615c0,0,-47,47,-125,47c0,0,-72,0,-134,-53c0,0,-62,-53,-100,-147c0,0,-37,-95,-37,-208c0,0,0,-190,154,-190c0,0,106,0,222,74l22,-32c0,0,-60,-56,-135,-88c0,0,-76,-32,-144,-32Z" 
id="f5_6"
transform="scale(0.001,-0.001)" />

<path d="M55,0L169,649L81,668l6,33H295L274,557c0,0,52,73,117,118c0,0,65,45,122,45c0,0,66,0,102,-42c0,0,36,-41,36,-121c0,0,51,72,115,117c0,0,64,46,123,46c0,0,63,0,99,-40c0,0,36,-40,36,-116c0,0,0,-16,-3,-42c0,0,-3,-27,-80,-470l98,-19L1032,0H808l77,434c0,0,17,90,17,124c0,0,0,34,-16,54c0,0,-15,21,-49,21c0,0,-33,0,-78,-32c0,0,-46,-31,-83,-80c0,0,-37,-49,-44,-91L558,0H434l76,434c0,0,19,98,19,124c0,0,0,34,-17,54c0,0,-16,21,-51,21c0,0,-33,0,-81,-34c0,0,-47,-33,-84,-80c0,0,-36,-48,-43,-89L179,0Z" 
id="f5_7"
transform="scale(0.001,-0.001)" />

<path d="M317,45c0,0,74,0,134,54c0,0,60,55,97,153c0,0,36,98,36,200c0,0,0,82,-33,129c0,0,-33,46,-89,46c0,0,-40,0,-93,-29c0,0,-54,-29,-96,-75L192,81c0,0,46,-36,125,-36ZM-88,-325l5,35l90,17L170,649L93,668l6,33H297L283,588c0,0,130,132,235,132c0,0,90,0,145,-67c0,0,55,-66,55,-182c0,0,0,-132,-56,-244C662,227,606,114,510,49c0,0,-97,-63,-209,-63c0,0,-35,0,-72,5c0,0,-37,5,-55,11l-8,-67L130,-273l119,-17l-6,-35Z" 
id="f5_8"
transform="scale(0.001,-0.001)" />

<path d="M62,0L176,649L88,668l6,33H301L278,543c0,0,55,84,124,130c0,0,69,47,138,47c0,0,37,0,59,-6L566,530H534l-28,95c0,0,-60,0,-124,-46c0,0,-63,-45,-116,-120L186,0Z" 
id="f5_9"
transform="scale(0.001,-0.001)" />

<path d="M301,78c0,0,85,0,185,104l81,442c0,0,-29,20,-55,28c0,0,-25,8,-62,8c0,0,-75,0,-137,-56c0,0,-62,-56,-98,-152c0,0,-36,-95,-36,-199c0,0,0,-79,33,-127c0,0,33,-48,89,-48ZM245,-14c0,0,-90,0,-145,66c0,0,-54,66,-54,182c0,0,0,131,57,244c0,0,57,114,152,178c0,0,96,64,208,64c0,0,90,0,170,-33l33,26h40L589,52L673,33L667,0H454l22,117C476,117,350,-14,245,-14Z" 
id="f5_a"
transform="scale(0.001,-0.001)" />

<path d="M228,-17c0,0,-76,0,-114,40c0,0,-38,41,-38,117c0,0,0,11,4,39c0,0,4,29,80,470L78,667l6,34H293L217,268c0,0,-17,-94,-17,-124c0,0,0,-34,18,-55c0,0,18,-21,57,-21c0,0,55,0,120,47c0,0,65,47,107,115l83,471H709L595,52L683,33L677,0H469l20,144C489,144,427,64,360,23c0,0,-67,-40,-132,-40Z" 
id="f5_b"
transform="scale(0.001,-0.001)" />

<path d="M54,0L169,649L81,668l6,33H294L274,558c0,0,62,81,130,121c0,0,67,41,132,41c0,0,75,0,113,-41c0,0,38,-41,38,-117c0,0,0,-10,-3,-32c0,0,-3,-21,-81,-478L700,34L695,0H470l76,434c0,0,17,94,17,123c0,0,0,34,-18,55c0,0,-18,21,-56,21c0,0,-56,0,-121,-47c0,0,-65,-47,-108,-117L178,0Z" 
id="f5_c"
transform="scale(0.001,-0.001)" />

<path d="M188,355c0,0,148,11,236,69c0,0,89,58,89,143c0,0,0,41,-23,68c0,0,-22,27,-66,27c0,0,-52,0,-101,-43c0,0,-49,-42,-85,-114c0,0,-36,-71,-50,-150ZM298,-14c0,0,-120,0,-186,67c0,0,-65,67,-65,193c0,0,0,125,53,232c0,0,52,108,145,175c0,0,94,67,196,67c0,0,92,0,147,-42c0,0,56,-43,56,-111c0,0,0,-102,-126,-173c0,0,-125,-72,-336,-86l-3,-54c0,0,0,-95,40,-143c0,0,40,-47,118,-47c0,0,67,0,124,22c0,0,57,23,106,52l22,-32c0,0,-69,-58,-146,-89c0,0,-76,-31,-145,-31Z" 
id="f5_d"
transform="scale(0.001,-0.001)" />

<path d="M81,0L258,1008l-96,18l6,34H391L214,52L331,33L325,0Z" 
id="f5_e"
transform="scale(0.001,-0.001)" />

<path d="M-43,-325c0,0,-60,0,-119,23l24,140h35l12,-83c0,0,20,-20,52,-20c0,0,48,0,76,48c0,0,28,48,46,151L210,649L107,668l6,33H342L213,-28c0,0,-27,-151,-90,-224c0,0,-63,-73,-166,-73ZM306,849c0,0,-33,0,-57,24c0,0,-24,24,-24,57c0,0,0,33,24,57c0,0,24,24,57,24c0,0,33,0,57,-24c0,0,24,-24,24,-57c0,0,0,-33,-24,-57c0,0,-24,-24,-57,-24Z" 
id="f5_f"
transform="scale(0.001,-0.001)" />

<path d="M154,-20c0,0,-39,0,-65,25C89,5,63,32,63,69c0,0,0,38,27,64c0,0,26,26,64,26c0,0,38,0,64,-26c0,0,26,-26,26,-64c0,0,0,-37,-26,-64c0,0,-26,-25,-64,-25Z" 
id="f5_g"
transform="scale(0.001,-0.001)" />

<path d="M521,-14c0,0,-205,0,-320,107C201,93,85,200,85,390c0,0,0,185,77,326c0,0,77,142,220,219c0,0,142,76,324,76c0,0,158,0,327,-38L1000,755H951V884c0,0,-46,32,-112,50c0,0,-65,17,-137,17c0,0,-135,0,-242,-72c0,0,-107,-72,-166,-203c0,0,-60,-132,-60,-301c0,0,0,-160,78,-244c0,0,78,-84,222,-84c0,0,85,0,166,25c0,0,82,26,133,65l53,149h49L889,52C889,52,803,20,705,3c0,0,-99,-17,-184,-17Z" 
id="f5_h"
transform="scale(0.001,-0.001)" />

<path d="M200,-14c0,0,-59,0,-93,35c0,0,-34,36,-34,100c0,0,0,22,4,51c0,0,4,30,82,467H67l6,33l99,29L275,860h47L295,701H455L443,639H283L210,230c0,0,-13,-69,-13,-99c0,0,0,-34,17,-51c0,0,17,-16,43,-16c0,0,54,0,113,21L386,50c0,0,-92,-64,-186,-64Z" 
id="f5_i"
transform="scale(0.001,-0.001)" />

<path d="M376,50c0,0,103,0,149,80c0,0,46,81,46,240c0,0,0,137,-47,204c0,0,-48,67,-148,67c0,0,-44,0,-87,-7c0,0,-44,-8,-63,-17V62c0,0,63,-12,150,-12Zm3,-64c0,0,-64,0,-141,14c0,0,-78,14,-136,37v971L0,1026v34H226V809c0,0,0,-40,-4,-148c0,0,74,59,188,59c0,0,143,0,219,-87c0,0,77,-87,77,-263c0,0,0,-189,-84,-287c0,0,-84,-97,-243,-97Z" 
id="f1_v"
transform="scale(0.001,-0.001)" />

<path d="M191,-20c0,0,-39,0,-65,25c0,0,-25,27,-25,64c0,0,0,38,26,64c0,0,26,26,64,26c0,0,38,0,64,-26c0,0,26,-26,26,-64c0,0,0,-37,-25,-64c0,0,-26,-25,-65,-25Z" 
id="f1_13"
transform="scale(0.001,-0.001)" />

<path d="M557,-14c0,0,-199,0,-298,89c0,0,-99,90,-99,255V941L32,960v40H432V960L304,941V341c0,0,0,-273,264,-273c0,0,144,0,220,68c0,0,77,68,77,202V941L730,960v40h341V960L943,941V344c0,0,0,-180,-99,-269c0,0,-99,-89,-287,-89Z" 
id="f1_7"
transform="scale(0.001,-0.001)" />

<path d="M617,0L251,860V60L385,40V0H44V40L172,60V941L44,960v40H347L672,239l355,761h287V960L1185,941V60L1314,40V0H908V40l134,20V859L643,0Z" 
id="f1_u"
transform="scale(0.001,-0.001)" />

<path d="M148,-329c0,0,-58,0,-114,13v151H69l24,-71c0,0,23,-17,64,-17c0,0,39,0,72,22c0,0,33,23,60,67c0,0,27,44,68,157L90,649L19,668v33H344V668L233,648L423,158L606,649L497,668v33H758V668L685,652L411,-43c0,0,-48,-124,-84,-177c0,0,-36,-54,-79,-82c0,0,-44,-27,-100,-27Z" 
id="f1_11"
transform="scale(0.001,-0.001)" />

<path d="M44,0V40L172,60V941L44,960v40H471V960L316,941V65H513c0,0,159,0,234,14l46,208h48L828,0Z" 
id="f1_17"
transform="scale(0.001,-0.001)" />

<path d="M280,0L660,987H125v127H841v-64L437,0Z" 
id="f0_1d"
transform="scale(0.001,-0.001)" />

<path d="M532,159c0,0,79,0,122,44c0,0,42,44,42,126c0,0,0,82,-42,126c0,0,-43,44,-122,44c0,0,-81,0,-124,-44c0,0,-43,-44,-43,-126c0,0,0,-82,43,-126c0,0,43,-44,124,-44Zm0,520c0,0,67,0,104,35c0,0,37,36,37,102c0,0,0,67,-37,102c0,0,-37,35,-104,35c0,0,-69,0,-106,-35c0,0,-37,-36,-37,-102c0,0,0,-66,37,-102c0,0,37,-35,106,-35Zm0,-699c0,0,-218,0,-328,83C204,63,93,148,93,314c0,0,0,107,58,178c0,0,58,70,171,101c0,0,-102,31,-153,94c0,0,-52,64,-52,159c0,0,0,141,106,214c0,0,105,74,309,74c0,0,202,0,307,-73c0,0,106,-74,106,-215c0,0,0,-95,-52,-159c0,0,-52,-63,-154,-94c0,0,113,-31,171,-101c0,0,58,-71,58,-178c0,0,0,-166,-110,-251c0,0,-110,-83,-326,-83Z" 
id="f3_6"
transform="scale(0.001,-0.001)" />

<path d="M486,98c0,0,107,0,169,58c0,0,62,57,62,157c0,0,0,101,-62,159c0,0,-61,57,-169,57c0,0,-108,0,-169,-57c0,0,-62,-58,-62,-159c0,0,0,-100,62,-158c0,0,61,-57,169,-57Zm-1,549c0,0,97,0,152,49c0,0,54,48,54,135c0,0,0,87,-54,135c0,0,-55,49,-152,49c0,0,-97,0,-151,-49c0,0,-54,-48,-54,-135c0,0,0,-87,54,-135c0,0,54,-49,151,-49Zm0,-667c0,0,-184,0,-283,85c0,0,-98,86,-98,248c0,0,0,107,61,181c0,0,61,74,170,99c0,0,-97,24,-151,90c0,0,-54,67,-54,162c0,0,0,134,95,212c0,0,95,77,260,77c0,0,167,0,261,-77c0,0,95,-78,95,-212c0,0,0,-95,-54,-162c0,0,-54,-66,-151,-90c0,0,109,-25,170,-99c0,0,61,-74,61,-181c0,0,0,-162,-99,-248c0,0,-98,-85,-283,-85Z" 
id="f0_1e"
transform="scale(0.001,-0.001)" />


</defs>
</svg>