<?xml version="1.0" encoding="UTF-8" standalone="no"?>
<!DOCTYPE svg PUBLIC "-//W3C//DTD SVG 1.1//EN"
"http://www.w3.org/Graphics/SVG/1.1/DTD/svg11.dtd">
<svg viewBox="0 0 909 1286" version="1.1" xmlns="http://www.w3.org/2000/svg" xmlns:xlink="http://www.w3.org/1999/xlink">
<defs>
<clipPath id="c0_3"><path d="M0,1286.2V0H909.4V1286.2Z" /></clipPath>
<clipPath id="c1_3"><path d="M642.4,564.5V543.2h.3v21.3Z" /></clipPath>
<clipPath id="c2_3"><path d="M642.4,956.5V935.2h.3v21.3Z" /></clipPath>
<style type="text/css"><![CDATA[
.g0_3{
fill: #D8D8D8;
}
.g1_3{
fill: none;
stroke: #000000;
stroke-width: 0.7638889;
stroke-linecap: butt;
stroke-linejoin: round;
}
.g2_3{
fill: none;
stroke: #0000FF;
stroke-width: 1.0694444;
stroke-linecap: butt;
stroke-linejoin: miter;
}
]]></style>
</defs>
<path fill-rule="evenodd" d="M627,384.2H782.5v-20H627v20Z" class="g0_3" />
<path fill-rule="evenodd" d="M432.2,384.2H626.9v-20H432.2v20Z" class="g0_3" />
<path fill-rule="evenodd" d="M237.3,384.2H432.1v-20H237.3v20Z" class="g0_3" />
<path fill-rule="evenodd" d="M627,404.3H782.5V384.2H627v20.1Z" class="g0_3" />
<path fill-rule="evenodd" d="M432.2,404.3H626.9V384.2H432.2v20.1Z" class="g0_3" />
<path fill-rule="evenodd" d="M237.3,404.3H432.1V384.2H237.3v20.1Z" class="g0_3" />
<path fill-rule="evenodd" d="M128.9,424.3H237.2V404.4H128.9v19.9Z" class="g0_3" />
<path fill-rule="evenodd" d="M128.9,444.5H237.2V424.4H128.9v20.1Z" class="g0_3" />
<path fill-rule="evenodd" d="M128.9,464.5H237.2V444.6H128.9v19.9Z" class="g0_3" />
<path fill-rule="evenodd" d="M128.9,484.7H237.2V464.6H128.9v20.1Z" class="g0_3" />
<path fill-rule="evenodd" d="M128.9,504.7H237.2V484.8H128.9v19.9Z" class="g0_3" />
<path fill-rule="evenodd" d="M627,384.2H782.5v-20H627v20Z" class="g0_3" />
<path fill-rule="evenodd" d="M432.2,384.2H626.9v-20H432.2v20Z" class="g0_3" />
<path fill-rule="evenodd" d="M237.3,384.2H432.1v-20H237.3v20Z" class="g0_3" />
<path fill-rule="evenodd" d="M627,404.3H782.5V384.2H627v20.1Z" class="g0_3" />
<path fill-rule="evenodd" d="M432.2,404.3H626.9V384.2H432.2v20.1Z" class="g0_3" />
<path fill-rule="evenodd" d="M237.3,404.3H432.1V384.2H237.3v20.1Z" class="g0_3" />
<path fill-rule="evenodd" d="M128.9,424.3H237.2V404.4H128.9v19.9Z" class="g0_3" />
<path fill-rule="evenodd" d="M128.9,444.5H237.2V424.4H128.9v20.1Z" class="g0_3" />
<path fill-rule="evenodd" d="M128.9,464.5H237.2V444.6H128.9v19.9Z" class="g0_3" />
<path fill-rule="evenodd" d="M128.9,484.7H237.2V464.6H128.9v20.1Z" class="g0_3" />
<path fill-rule="evenodd" d="M128.9,504.7H237.2V484.8H128.9v19.9Z" class="g0_3" />
<g clip-path="url(#c0_3)">
<g fill="#000000" >
<use xlink:href="#f0_7" transform="matrix(12,0,0,12,549.4,127.1)" />
<use xlink:href="#f0_h" transform="matrix(12,0,0,12,561.9,127.1)" />
<use xlink:href="#f0_i" transform="matrix(12,0,0,12,567.3,127.1)" />
<use xlink:href="#f0_h" transform="matrix(12,0,0,12,575.5,127.1)" />
<use xlink:href="#f0_j" transform="matrix(12,0,0,12,580.9,127.1)" />
<use xlink:href="#f0_b" transform="matrix(12,0,0,12,593.2,127.1)" />
<use xlink:href="#f0_k" transform="matrix(12,0,0,12,610.9,127.1)" />
<use xlink:href="#f0_9" transform="matrix(12,0,0,12,623.4,127.1)" />
<use xlink:href="#f0_k" transform="matrix(12,0,0,12,634.6,127.1)" />
<use xlink:href="#f0_c" transform="matrix(12,0,0,12,647.1,127.1)" />
<use xlink:href="#f0_d" transform="matrix(12,0,0,12,666.9,127.1)" />
<use xlink:href="#f0_7" transform="matrix(12,0,0,12,674.3,127.1)" />
<use xlink:href="#f0_8" transform="matrix(12,0,0,12,686.8,127.1)" />
<use xlink:href="#f0_9" transform="matrix(12,0,0,12,693,127.1)" />
<use xlink:href="#f0_4" transform="matrix(12,0,0,12,704.2,127.1)" />
<use xlink:href="#f0_7" transform="matrix(12,0,0,12,715.2,127.1)" />
<use xlink:href="#f0_7" transform="matrix(12,0,0,12,734.1,127.1)" />
<use xlink:href="#f0_l" transform="matrix(12,0,0,12,746.6,127.1)" />
<use xlink:href="#f0_3" transform="matrix(12,0,0,12,758.6,127.1)" />
<use xlink:href="#f1_7" transform="matrix(12,0,0,12,721.9,148.5)" />
<use xlink:href="#f1_k" transform="matrix(12,0,0,12,732.3,148.5)" />
<use xlink:href="#f1_9" transform="matrix(12,0,0,12,743.7,148.5)" />
<use xlink:href="#f1_d" transform="matrix(12,0,0,12,748.7,148.5)" />
<use xlink:href="#f1_6" transform="matrix(12,0,0,12,760.2,148.5)" />
<use xlink:href="#f2_b" transform="matrix(11,0,0,11,677.1,148.5)" />
<use xlink:href="#f2_a" transform="matrix(11,0,0,11,684.6,148.5)" />
<use xlink:href="#f2_b" transform="matrix(11,0,0,11,697.7,148.5)" />
<use xlink:href="#f2_r" transform="matrix(11,0,0,11,705,148.5)" />
<use xlink:href="#f1_e" transform="matrix(12,0,0,12,204.7,148.5)" />
<use xlink:href="#f1_9" transform="matrix(12,0,0,12,217,148.5)" />
<use xlink:href="#f1_6" transform="matrix(12,0,0,12,222,148.5)" />
<use xlink:href="#f1_s" transform="matrix(12,0,0,12,244.9,148.5)" />
<use xlink:href="#f1_n" transform="matrix(12,0,0,12,254.6,148.5)" />
<use xlink:href="#f1_m" transform="matrix(12,0,0,12,267.6,148.5)" />
<use xlink:href="#f1_6" transform="matrix(12,0,0,12,280.1,148.5)" />
<use xlink:href="#f1_2" transform="matrix(12,0,0,12,292,148.5)" />
<use xlink:href="#f1_h" transform="matrix(12,0,0,12,313.4,148.5)" />
<use xlink:href="#f1_m" transform="matrix(12,0,0,12,323.3,148.5)" />
<use xlink:href="#f1_7" transform="matrix(12,0,0,12,335.8,148.5)" />
<use xlink:href="#f1_l" transform="matrix(12,0,0,12,346.2,148.5)" />
<use xlink:href="#f1_h" transform="matrix(12,0,0,12,364.4,148.5)" />
<use xlink:href="#f1_9" transform="matrix(12,0,0,12,374.4,148.5)" />
<use xlink:href="#f1_k" transform="matrix(12,0,0,12,379.3,148.5)" />
<use xlink:href="#f1_n" transform="matrix(12,0,0,12,390.8,148.5)" />
<use xlink:href="#f1_5" transform="matrix(12,0,0,12,414.7,148.5)" />
<use xlink:href="#f1_f" transform="matrix(12,0,0,12,425.1,148.5)" />
<use xlink:href="#f1_e" transform="matrix(12,0,0,12,437,148.5)" />
<use xlink:href="#f1_7" transform="matrix(12,0,0,12,460,148.5)" />
<use xlink:href="#f1_k" transform="matrix(12,0,0,12,470.4,148.5)" />
<use xlink:href="#f1_9" transform="matrix(12,0,0,12,481.9,148.5)" />
<use xlink:href="#f1_d" transform="matrix(12,0,0,12,486.9,148.5)" />
<use xlink:href="#f1_g" transform="matrix(12,0,0,12,509.3,148.5)" />
<use xlink:href="#f1_2" transform="matrix(12,0,0,12,515.1,148.5)" />
<use xlink:href="#f1_9" transform="matrix(12,0,0,12,525.7,148.5)" />
<use xlink:href="#f1_6" transform="matrix(12,0,0,12,530.7,148.5)" />
<use xlink:href="#f1_e" transform="matrix(12,0,0,12,542.6,148.5)" />
<use xlink:href="#f1_7" transform="matrix(12,0,0,12,554.9,148.5)" />
<use xlink:href="#f1_5" transform="matrix(12,0,0,12,576,148.5)" />
<use xlink:href="#f1_9" transform="matrix(12,0,0,12,586.4,148.5)" />
<use xlink:href="#f1_m" transform="matrix(12,0,0,12,591.4,148.5)" />
<use xlink:href="#f1_e" transform="matrix(12,0,0,12,603.9,148.5)" />
<use xlink:href="#f1_4" transform="matrix(12,0,0,12,616.2,148.5)" />
<use xlink:href="#f1_e" transform="matrix(12,0,0,12,636.8,148.5)" />
<use xlink:href="#f1_9" transform="matrix(12,0,0,12,649,148.5)" />
<use xlink:href="#f1_6" transform="matrix(12,0,0,12,654,148.5)" />
<use xlink:href="#f1_y" transform="matrix(12,0,0,12,706.6,169.9)" />
<use xlink:href="#f1_a" transform="matrix(12,0,0,12,715,169.9)" />
<use xlink:href="#f1_9" transform="matrix(12,0,0,12,727,169.9)" />
<use xlink:href="#f1_q" transform="matrix(12,0,0,12,732.1,169.9)" />
<use xlink:href="#f1_5" transform="matrix(12,0,0,12,742.9,169.9)" />
<use xlink:href="#f1_7" transform="matrix(12,0,0,12,753.3,169.9)" />
<use xlink:href="#f1_y" transform="matrix(12,0,0,12,763.7,169.9)" />
<use xlink:href="#f2_x" transform="matrix(11,0,0,11,655.3,169.9)" />
<use xlink:href="#f2_y" transform="matrix(11,0,0,11,663.7,169.9)" />
<use xlink:href="#f2_l" transform="matrix(11,0,0,11,672.1,169.9)" />
<use xlink:href="#f2_r" transform="matrix(11,0,0,11,679.5,169.9)" />
<use xlink:href="#f2_l" transform="matrix(11,0,0,11,685.2,169.9)" />
<use xlink:href="#f2_r" transform="matrix(11,0,0,11,692.5,169.9)" />
<use xlink:href="#f1_7" transform="matrix(12,0,0,12,412,169.9)" />
<use xlink:href="#f1_n" transform="matrix(12,0,0,12,422.4,169.9)" />
<use xlink:href="#f1_a" transform="matrix(12,0,0,12,443.5,169.9)" />
<use xlink:href="#f1_3" transform="matrix(12,0,0,12,455.5,169.9)" />
<use xlink:href="#f1_7" transform="matrix(12,0,0,12,459.6,169.9)" />
<use xlink:href="#f1_9" transform="matrix(12,0,0,12,470,169.9)" />
<use xlink:href="#f1_7" transform="matrix(12,0,0,12,475,169.9)" />
<use xlink:href="#f1_3" transform="matrix(12,0,0,12,485.4,169.9)" />
<use xlink:href="#f1_m" transform="matrix(12,0,0,12,489.5,169.9)" />
<use xlink:href="#f1_6" transform="matrix(12,0,0,12,502,169.9)" />
<use xlink:href="#f1_a" transform="matrix(12,0,0,12,522,169.9)" />
<use xlink:href="#f1_9" transform="matrix(12,0,0,12,534.1,169.9)" />
<use xlink:href="#f1_k" transform="matrix(12,0,0,12,539.1,169.9)" />
<use xlink:href="#f1_m" transform="matrix(12,0,0,12,550.5,169.9)" />
<use xlink:href="#f1_n" transform="matrix(12,0,0,12,562.9,169.9)" />
<use xlink:href="#f1_m" transform="matrix(12,0,0,12,575.9,169.9)" />
<use xlink:href="#f1_6" transform="matrix(12,0,0,12,588.4,169.9)" />
<use xlink:href="#f1_n" transform="matrix(12,0,0,12,600.3,169.9)" />
<use xlink:href="#f1_s" transform="matrix(12,0,0,12,621.7,169.9)" />
<use xlink:href="#f1_4" transform="matrix(12,0,0,12,631.4,169.9)" />
<use xlink:href="#f1_g" transform="matrix(12,0,0,12,649.3,169.9)" />
<use xlink:href="#f2_z" transform="matrix(11,0,0,11,333.5,169.9)" />
<use xlink:href="#f2_9" transform="matrix(11,0,0,11,345.6,169.9)" />
<use xlink:href="#f2_x" transform="matrix(11,0,0,11,360.5,169.9)" />
<use xlink:href="#f2_y" transform="matrix(11,0,0,11,368.9,169.9)" />
<use xlink:href="#f2_7" transform="matrix(11,0,0,11,377.3,169.9)" />
<use xlink:href="#f2_l" transform="matrix(11,0,0,11,382,169.9)" />
<use xlink:href="#f2_r" transform="matrix(11,0,0,11,389.4,169.9)" />
<use xlink:href="#f2_9" transform="matrix(11,0,0,11,395,169.9)" />
<use xlink:href="#f1_o" transform="matrix(12,0,0,12,204.9,169.9)" />
<use xlink:href="#f1_6" transform="matrix(12,0,0,12,210.7,169.9)" />
<use xlink:href="#f1_q" transform="matrix(12,0,0,12,222.6,169.9)" />
<use xlink:href="#f1_9" transform="matrix(12,0,0,12,233.5,169.9)" />
<use xlink:href="#f1_5" transform="matrix(12,0,0,12,238.5,169.9)" />
<use xlink:href="#f1_3" transform="matrix(12,0,0,12,257.1,169.9)" />
<use xlink:href="#f1_l" transform="matrix(12,0,0,12,261.2,169.9)" />
<use xlink:href="#f1_e" transform="matrix(12,0,0,12,268.5,169.9)" />
<use xlink:href="#f1_e" transform="matrix(12,0,0,12,288.9,169.9)" />
<use xlink:href="#f1_3" transform="matrix(12,0,0,12,301.2,169.9)" />
<use xlink:href="#f1_6" transform="matrix(12,0,0,12,305.3,169.9)" />
<use xlink:href="#f1_g" transform="matrix(12,0,0,12,138,191.3)" />
<use xlink:href="#f1_a" transform="matrix(12,0,0,12,143.8,191.3)" />
<use xlink:href="#f1_3" transform="matrix(12,0,0,12,155.8,191.3)" />
<use xlink:href="#f1_h" transform="matrix(12,0,0,12,159.9,191.3)" />
<use xlink:href="#f1_5" transform="matrix(12,0,0,12,169.9,191.3)" />
<use xlink:href="#f1_d" transform="matrix(12,0,0,12,180.2,191.3)" />
<use xlink:href="#f1_i" transform="matrix(12,0,0,12,191.7,191.3)" />
<use xlink:href="#f1_6" transform="matrix(12,0,0,12,203.6,191.3)" />
<use xlink:href="#f1_6" transform="matrix(12,0,0,12,221.9,191.3)" />
<use xlink:href="#f1_d" transform="matrix(12,0,0,12,233.8,191.3)" />
<use xlink:href="#f1_n" transform="matrix(12,0,0,12,245.2,191.3)" />
<use xlink:href="#f1_2" transform="matrix(12,0,0,12,258.2,191.3)" />
<use xlink:href="#f1_t" transform="matrix(12,0,0,12,275,191.3)" />
<use xlink:href="#f1_5" transform="matrix(12,0,0,12,286.7,191.3)" />
<use xlink:href="#f1_9" transform="matrix(12,0,0,12,297.1,191.3)" />
<use xlink:href="#f1_u" transform="matrix(12,0,0,12,302.1,191.3)" />
<use xlink:href="#f1_r" transform="matrix(12,0,0,12,315.8,191.3)" />
<use xlink:href="#f1_d" transform="matrix(12,0,0,12,320.9,191.3)" />
<use xlink:href="#f1_9" transform="matrix(12,0,0,12,332.3,191.3)" />
<use xlink:href="#f1_e" transform="matrix(12,0,0,12,337.3,191.3)" />
<use xlink:href="#f1_2" transform="matrix(12,0,0,12,349.6,191.3)" />
<use xlink:href="#f1_j" transform="matrix(12,0,0,12,366.3,191.3)" />
<use xlink:href="#f1_3" transform="matrix(12,0,0,12,378.5,191.3)" />
<use xlink:href="#f1_n" transform="matrix(12,0,0,12,382.5,191.3)" />
<use xlink:href="#f1_m" transform="matrix(12,0,0,12,395.5,191.3)" />
<use xlink:href="#f1_a" transform="matrix(12,0,0,12,408,191.3)" />
<use xlink:href="#f1_n" transform="matrix(12,0,0,12,420,191.3)" />
<use xlink:href="#f1_m" transform="matrix(12,0,0,12,432.9,191.3)" />
<use xlink:href="#f1_9" transform="matrix(12,0,0,12,451.6,191.3)" />
<use xlink:href="#f1_2" transform="matrix(12,0,0,12,456.6,191.3)" />
<use xlink:href="#f1_7" transform="matrix(12,0,0,12,473.6,191.3)" />
<use xlink:href="#f1_k" transform="matrix(12,0,0,12,484,191.3)" />
<use xlink:href="#f1_9" transform="matrix(12,0,0,12,495.4,191.3)" />
<use xlink:href="#f1_d" transform="matrix(12,0,0,12,500.4,191.3)" />
<use xlink:href="#f1_6" transform="matrix(12,0,0,12,511.9,191.3)" />
<use xlink:href="#f1_9" transform="matrix(12,0,0,12,530,191.3)" />
<use xlink:href="#f1_6" transform="matrix(12,0,0,12,535.1,191.3)" />
<use xlink:href="#f1_b" transform="matrix(12,0,0,12,547,191.3)" />
<use xlink:href="#f1_a" transform="matrix(12,0,0,12,559.6,191.3)" />
<use xlink:href="#f1_e" transform="matrix(12,0,0,12,571.7,191.3)" />
<use xlink:href="#f1_b" transform="matrix(12,0,0,12,583.9,191.3)" />
<use xlink:href="#f1_7" transform="matrix(12,0,0,12,596.7,191.3)" />
<use xlink:href="#f1_4" transform="matrix(12,0,0,12,607.1,191.3)" />
<use xlink:href="#f1_2" transform="matrix(12,0,0,12,616.7,191.3)" />
<use xlink:href="#f1_s" transform="matrix(12,0,0,12,633.6,191.3)" />
<use xlink:href="#f1_e" transform="matrix(12,0,0,12,643.4,191.3)" />
<use xlink:href="#f1_g" transform="matrix(12,0,0,12,662,191.3)" />
<use xlink:href="#f1_2" transform="matrix(12,0,0,12,667.8,191.3)" />
<use xlink:href="#f1_6" transform="matrix(12,0,0,12,678.4,191.3)" />
<use xlink:href="#f1_9" transform="matrix(12,0,0,12,690.3,191.3)" />
<use xlink:href="#f1_e" transform="matrix(12,0,0,12,695.3,191.3)" />
<use xlink:href="#f1_3" transform="matrix(12,0,0,12,713.7,191.3)" />
<use xlink:href="#f1_l" transform="matrix(12,0,0,12,717.8,191.3)" />
<use xlink:href="#f1_e" transform="matrix(12,0,0,12,725.2,191.3)" />
<use xlink:href="#f1_e" transform="matrix(12,0,0,12,743.6,191.3)" />
<use xlink:href="#f1_7" transform="matrix(12,0,0,12,755.8,191.3)" />
<use xlink:href="#f1_9" transform="matrix(12,0,0,12,766.2,191.3)" />
<use xlink:href="#f1_s" transform="matrix(12,0,0,12,138,212.7)" />
<use xlink:href="#f1_7" transform="matrix(12,0,0,12,147.7,212.7)" />
<use xlink:href="#f1_5" transform="matrix(12,0,0,12,164.7,212.7)" />
<use xlink:href="#f1_m" transform="matrix(12,0,0,12,175,212.7)" />
<use xlink:href="#f1_9" transform="matrix(12,0,0,12,187.4,212.7)" />
<use xlink:href="#f1_e" transform="matrix(12,0,0,12,192.4,212.7)" />
<use xlink:href="#f1_e" transform="matrix(12,0,0,12,211.3,212.7)" />
<use xlink:href="#f1_9" transform="matrix(12,0,0,12,223.6,212.7)" />
<use xlink:href="#f1_6" transform="matrix(12,0,0,12,228.6,212.7)" />
<use xlink:href="#f1_n" transform="matrix(12,0,0,12,240.5,212.7)" />
<use xlink:href="#f1_4" transform="matrix(12,0,0,12,253.5,212.7)" />
<use xlink:href="#f1_o" transform="matrix(12,0,0,12,269.8,212.7)" />
<use xlink:href="#f1_3" transform="matrix(12,0,0,12,275.6,212.7)" />
<use xlink:href="#f1_l" transform="matrix(12,0,0,12,279.6,212.7)" />
<use xlink:href="#f1_n" transform="matrix(12,0,0,12,286.9,212.7)" />
<use xlink:href="#f1_h" transform="matrix(12,0,0,12,306.6,212.7)" />
<use xlink:href="#f1_q" transform="matrix(12,0,0,12,316.5,212.7)" />
<use xlink:href="#f1_m" transform="matrix(12,0,0,12,327.4,212.7)" />
<use xlink:href="#f1_o" transform="matrix(12,0,0,12,346.5,212.7)" />
<use xlink:href="#f1_x" transform="matrix(12,0,0,12,352.3,212.7)" />
<use xlink:href="#f1_a" transform="matrix(12,0,0,12,359.4,212.7)" />
<use xlink:href="#f1_9" transform="matrix(12,0,0,12,371.5,212.7)" />
<use xlink:href="#f1_q" transform="matrix(12,0,0,12,376.5,212.7)" />
<use xlink:href="#f1_5" transform="matrix(12,0,0,12,387.4,212.7)" />
<use xlink:href="#f1_7" transform="matrix(12,0,0,12,397.6,212.7)" />
<use xlink:href="#f1_w" transform="matrix(12,0,0,12,408,212.7)" />
<use xlink:href="#f1_2" transform="matrix(12,0,0,12,421.9,212.7)" />
<use xlink:href="#f1_9" transform="matrix(12,0,0,12,432.4,212.7)" />
<use xlink:href="#f1_6" transform="matrix(12,0,0,12,437.4,212.7)" />
<use xlink:href="#f1_e" transform="matrix(12,0,0,12,449.3,212.7)" />
<use xlink:href="#f1_7" transform="matrix(12,0,0,12,461.6,212.7)" />
<use xlink:href="#f1_n" transform="matrix(12,0,0,12,478.7,212.7)" />
<use xlink:href="#f1_9" transform="matrix(12,0,0,12,491.6,212.7)" />
<use xlink:href="#f1_5" transform="matrix(12,0,0,12,496.5,212.7)" />
<use xlink:href="#f1_3" transform="matrix(12,0,0,12,506.9,212.7)" />
<use xlink:href="#f1_d" transform="matrix(12,0,0,12,511,212.7)" />
<use xlink:href="#f1_7" transform="matrix(12,0,0,12,522.5,212.7)" />
<use xlink:href="#f1_3" transform="matrix(12,0,0,12,539.4,212.7)" />
<use xlink:href="#f1_l" transform="matrix(12,0,0,12,543.5,212.7)" />
<use xlink:href="#f1_5" transform="matrix(12,0,0,12,550.8,212.7)" />
<use xlink:href="#f1_m" transform="matrix(12,0,0,12,561.2,212.7)" />
<use xlink:href="#f1_9" transform="matrix(12,0,0,12,573.6,212.7)" />
<use xlink:href="#f1_f" transform="matrix(12,0,0,12,578.6,212.7)" />
<use xlink:href="#f1_a" transform="matrix(12,0,0,12,597.2,212.7)" />
<use xlink:href="#f1_q" transform="matrix(12,0,0,12,609.3,212.7)" />
<use xlink:href="#f1_c" transform="matrix(12,0,0,12,620.1,212.7)" />
<use xlink:href="#f1_3" transform="matrix(12,0,0,12,639.6,212.7)" />
<use xlink:href="#f1_d" transform="matrix(12,0,0,12,643.7,212.7)" />
<use xlink:href="#f1_9" transform="matrix(12,0,0,12,655.2,212.7)" />
<use xlink:href="#f1_e" transform="matrix(12,0,0,12,660.2,212.7)" />
<use xlink:href="#f1_r" transform="matrix(12,0,0,12,679,212.7)" />
<use xlink:href="#f1_a" transform="matrix(12,0,0,12,683.9,212.7)" />
<use xlink:href="#f1_9" transform="matrix(12,0,0,12,695.9,212.7)" />
<use xlink:href="#f1_l" transform="matrix(12,0,0,12,700.9,212.7)" />
<use xlink:href="#f1_6" transform="matrix(12,0,0,12,714.8,212.7)" />
<use xlink:href="#f1_b" transform="matrix(12,0,0,12,726.7,212.7)" />
<use xlink:href="#f1_3" transform="matrix(12,0,0,12,739.6,212.7)" />
<use xlink:href="#f1_7" transform="matrix(12,0,0,12,743.7,212.7)" />
<use xlink:href="#f1_9" transform="matrix(12,0,0,12,754.1,212.7)" />
<use xlink:href="#f1_e" transform="matrix(12,0,0,12,759.2,212.7)" />
<use xlink:href="#f1_a" transform="matrix(12,0,0,12,303.9,234.1)" />
<use xlink:href="#f1_m" transform="matrix(12,0,0,12,315.9,234.1)" />
<use xlink:href="#f1_e" transform="matrix(12,0,0,12,328.4,234.1)" />
<use xlink:href="#f1_2" transform="matrix(12,0,0,12,340.7,234.1)" />
<use xlink:href="#f1_e" transform="matrix(12,0,0,12,357.1,234.1)" />
<use xlink:href="#f1_9" transform="matrix(12,0,0,12,369.4,234.1)" />
<use xlink:href="#f1_6" transform="matrix(12,0,0,12,374.4,234.1)" />
<use xlink:href="#f1_o" transform="matrix(12,0,0,12,392.1,234.1)" />
<use xlink:href="#f1_5" transform="matrix(12,0,0,12,397.9,234.1)" />
<use xlink:href="#f1_m" transform="matrix(12,0,0,12,408.3,234.1)" />
<use xlink:href="#f1_9" transform="matrix(12,0,0,12,420.7,234.1)" />
<use xlink:href="#f1_e" transform="matrix(12,0,0,12,425.7,234.1)" />
<use xlink:href="#f1_j" transform="matrix(12,0,0,12,443.9,234.1)" />
<use xlink:href="#f1_a" transform="matrix(12,0,0,12,455.9,234.1)" />
<use xlink:href="#f1_i" transform="matrix(12,0,0,12,468,234.1)" />
<use xlink:href="#f1_e" transform="matrix(12,0,0,12,485.7,234.1)" />
<use xlink:href="#f1_7" transform="matrix(12,0,0,12,497.9,234.1)" />
<use xlink:href="#f1_e" transform="matrix(12,0,0,12,514.3,234.1)" />
<use xlink:href="#f1_9" transform="matrix(12,0,0,12,526.5,234.1)" />
<use xlink:href="#f1_6" transform="matrix(12,0,0,12,531.5,234.1)" />
<use xlink:href="#f1_n" transform="matrix(12,0,0,12,543.4,234.1)" />
<use xlink:href="#f1_a" transform="matrix(12,0,0,12,562.2,234.1)" />
<use xlink:href="#f1_k" transform="matrix(12,0,0,12,574.3,234.1)" />
<use xlink:href="#f1_h" transform="matrix(12,0,0,12,585.7,234.1)" />
<use xlink:href="#f1_9" transform="matrix(12,0,0,12,595.8,234.1)" />
<use xlink:href="#f1_3" transform="matrix(12,0,0,12,600.7,234.1)" />
<use xlink:href="#f1_a" transform="matrix(12,0,0,12,610.6,234.1)" />
<use xlink:href="#f1_e" transform="matrix(12,0,0,12,622.6,234.1)" />
<use xlink:href="#f1_y" transform="matrix(12,0,0,12,640.8,234.1)" />
<use xlink:href="#f1_s" transform="matrix(12,0,0,12,649.2,234.1)" />
<use xlink:href="#f1_a" transform="matrix(12,0,0,12,659,234.1)" />
<use xlink:href="#f1_9" transform="matrix(12,0,0,12,671,234.1)" />
<use xlink:href="#f1_e" transform="matrix(12,0,0,12,676,234.1)" />
<use xlink:href="#f1_2" transform="matrix(12,0,0,12,694.2,234.1)" />
<use xlink:href="#f1_6" transform="matrix(12,0,0,12,704.8,234.1)" />
<use xlink:href="#f1_9" transform="matrix(12,0,0,12,716.7,234.1)" />
<use xlink:href="#f1_e" transform="matrix(12,0,0,12,721.7,234.1)" />
<use xlink:href="#f1_3" transform="matrix(12,0,0,12,739.7,234.1)" />
<use xlink:href="#f1_l" transform="matrix(12,0,0,12,743.8,234.1)" />
<use xlink:href="#f1_e" transform="matrix(12,0,0,12,751.2,234.1)" />
<use xlink:href="#f1_y" transform="matrix(12,0,0,12,763.4,234.1)" />
<use xlink:href="#f0_k" transform="matrix(12,0,0,12,256.4,234.1)" />
<use xlink:href="#f0_l" transform="matrix(12,0,0,12,268.9,234.1)" />
<use xlink:href="#f0_8" transform="matrix(12,0,0,12,280.8,234.1)" />
<use xlink:href="#f0_4" transform="matrix(12,0,0,12,287.1,234.1)" />
<use xlink:href="#f1_g" transform="matrix(12,0,0,12,250.4,234.1)" />
<use xlink:href="#f3_g" transform="matrix(16,0,0,16,717.9,298.8)" />
<use xlink:href="#f3_3" transform="matrix(16,0,0,16,729.8,298.8)" />
<use xlink:href="#f3_h" transform="matrix(16,0,0,16,736.3,298.8)" />
<use xlink:href="#f3_i" transform="matrix(16,0,0,16,744.7,298.8)" />
<use xlink:href="#f3_j" transform="matrix(16,0,0,16,757.1,298.8)" />
<use xlink:href="#f3_b" transform="matrix(16,0,0,16,543.4,298.8)" />
<use xlink:href="#f3_k" transform="matrix(16,0,0,16,562.5,298.8)" />
<use xlink:href="#f3_9" transform="matrix(16,0,0,16,576.5,298.8)" />
<use xlink:href="#f3_b" transform="matrix(16,0,0,16,587.7,298.8)" />
<use xlink:href="#f3_l" transform="matrix(16,0,0,16,600.3,298.8)" />
<use xlink:href="#f3_m" transform="matrix(16,0,0,16,611.4,298.8)" />
<use xlink:href="#f3_8" transform="matrix(16,0,0,16,620,298.8)" />
<use xlink:href="#f3_l" transform="matrix(16,0,0,16,627,298.8)" />
<use xlink:href="#f3_b" transform="matrix(16,0,0,16,638.3,298.8)" />
<use xlink:href="#f3_9" transform="matrix(16,0,0,16,650.8,298.8)" />
<use xlink:href="#f0_b" transform="matrix(12,0,0,12,723.8,340.5)" />
<use xlink:href="#f0_h" transform="matrix(12,0,0,12,735,340.5)" />
<use xlink:href="#f0_f" transform="matrix(12,0,0,12,740.3,340.5)" />
<use xlink:href="#f0_4" transform="matrix(12,0,0,12,748.6,340.5)" />
<use xlink:href="#f0_7" transform="matrix(12,0,0,12,759.6,340.5)" />
<use xlink:href="#f0_m" transform="matrix(12,0,0,12,704.6,340.5)" />
<use xlink:href="#f1_v" transform="matrix(12,0,0,12,392.3,340.5)" />
<use xlink:href="#f1_9" transform="matrix(12,0,0,12,398.4,340.5)" />
<use xlink:href="#f1_b" transform="matrix(12,0,0,12,403.3,340.5)" />
<use xlink:href="#f1_6" transform="matrix(12,0,0,12,415.8,340.5)" />
<use xlink:href="#f1_7" transform="matrix(12,0,0,12,427.7,340.5)" />
<use xlink:href="#f1_2" transform="matrix(12,0,0,12,438.1,340.5)" />
<use xlink:href="#f1_p" transform="matrix(12,0,0,12,448.7,340.5)" />
<use xlink:href="#f1_2" transform="matrix(12,0,0,12,460.6,340.5)" />
<use xlink:href="#f1_a" transform="matrix(12,0,0,12,476.9,340.5)" />
<use xlink:href="#f1_9" transform="matrix(12,0,0,12,489,340.5)" />
<use xlink:href="#f1_5" transform="matrix(12,0,0,12,494,340.5)" />
<use xlink:href="#f1_i" transform="matrix(12,0,0,12,504.4,340.5)" />
<use xlink:href="#f1_f" transform="matrix(12,0,0,12,516.3,340.5)" />
<use xlink:href="#f1_6" transform="matrix(12,0,0,12,528.2,340.5)" />
<use xlink:href="#f1_a" transform="matrix(12,0,0,12,545.9,340.5)" />
<use xlink:href="#f1_9" transform="matrix(12,0,0,12,558,340.5)" />
<use xlink:href="#f1_3" transform="matrix(12,0,0,12,563,340.5)" />
<use xlink:href="#f1_p" transform="matrix(12,0,0,12,567.1,340.5)" />
<use xlink:href="#f1_6" transform="matrix(12,0,0,12,579,340.5)" />
<use xlink:href="#f1_6" transform="matrix(12,0,0,12,590.9,340.5)" />
<use xlink:href="#f1_a" transform="matrix(12,0,0,12,608.6,340.5)" />
<use xlink:href="#f1_e" transform="matrix(12,0,0,12,620.7,340.5)" />
<use xlink:href="#f1_j" transform="matrix(12,0,0,12,638.8,340.5)" />
<use xlink:href="#f1_7" transform="matrix(12,0,0,12,651.1,340.5)" />
<use xlink:href="#f1_n" transform="matrix(12,0,0,12,661.4,340.5)" />
<use xlink:href="#f1_6" transform="matrix(12,0,0,12,674.4,340.5)" />
<use xlink:href="#f1_16" transform="matrix(12,0,0,12,692.2,340.5)" />
</g>
</g>
<path d="M236.9,364.6h546m-546,20h546M128.6,404.8H782.9m-654.3,20H782.9M128.6,445H782.9M128.6,465H782.9M128.6,485.1H782.9M128.6,505.2H782.9M128.9,404.4V505.5M237.3,364.2V505.5M432.2,364.2V505.5M627,364.2V505.5M782.5,364.2V505.5" class="g1_3" />
<g clip-path="url(#c0_3)">
<g fill="#000000" >
<use xlink:href="#f2_2" transform="matrix(11,0,0,11,696.5,380.6)" />
<use xlink:href="#f2_3" transform="matrix(11,0,0,11,702.1,380.6)" />
<use xlink:href="#f2_4" transform="matrix(11,0,0,11,519,380.6)" />
<use xlink:href="#f2_3" transform="matrix(11,0,0,11,529.2,380.6)" />
<use xlink:href="#f2_5" transform="matrix(11,0,0,11,323.1,380.6)" />
<use xlink:href="#f2_3" transform="matrix(11,0,0,11,335.2,380.6)" />
<use xlink:href="#f2_6" transform="matrix(11,0,0,11,688.1,400.7)" />
<use xlink:href="#f2_7" transform="matrix(11,0,0,11,696.4,400.7)" />
<use xlink:href="#f2_6" transform="matrix(11,0,0,11,701.1,400.7)" />
<use xlink:href="#f3_8" transform="matrix(11,0,0,11,709.5,400.7)" />
<use xlink:href="#f3_9" transform="matrix(11,0,0,11,714.2,400.7)" />
<use xlink:href="#f2_8" transform="matrix(11,0,0,11,507.8,400.7)" />
<use xlink:href="#f2_9" transform="matrix(11,0,0,11,515.3,400.7)" />
<use xlink:href="#f2_a" transform="matrix(11,0,0,11,523.5,400.7)" />
<use xlink:href="#f3_a" transform="matrix(11,0,0,11,536.7,400.7)" />
<use xlink:href="#f3_9" transform="matrix(11,0,0,11,544.2,400.7)" />
<use xlink:href="#f2_b" transform="matrix(11,0,0,11,316.6,400.7)" />
<use xlink:href="#f2_a" transform="matrix(11,0,0,11,324,400.7)" />
<use xlink:href="#f3_b" transform="matrix(11,0,0,11,337.2,400.7)" />
<use xlink:href="#f3_9" transform="matrix(11,0,0,11,345.6,400.7)" />
<use xlink:href="#f2_8" transform="matrix(11,0,0,11,440.9,420.8)" />
<use xlink:href="#f2_9" transform="matrix(11,0,0,11,448.4,420.8)" />
<use xlink:href="#f2_a" transform="matrix(11,0,0,11,456.8,420.8)" />
<use xlink:href="#f2_9" transform="matrix(11,0,0,11,469.9,420.8)" />
<use xlink:href="#f2_c" transform="matrix(11,0,0,11,137.7,420.8)" />
<use xlink:href="#f2_9" transform="matrix(11,0,0,11,146.1,420.8)" />
<use xlink:href="#f2_6" transform="matrix(11,0,0,11,635.9,440.9)" />
<use xlink:href="#f2_7" transform="matrix(11,0,0,11,644.1,440.9)" />
<use xlink:href="#f2_6" transform="matrix(11,0,0,11,648.8,440.9)" />
<use xlink:href="#f2_l" transform="matrix(11,0,0,11,657.2,440.9)" />
<use xlink:href="#f2_q" transform="matrix(11,0,0,11,664.7,440.9)" />
<use xlink:href="#f2_d" transform="matrix(11,0,0,11,137.7,440.9)" />
<use xlink:href="#f2_e" transform="matrix(11,0,0,11,142.4,440.9)" />
<use xlink:href="#f2_b" transform="matrix(11,0,0,11,246,460.9)" />
<use xlink:href="#f2_a" transform="matrix(11,0,0,11,253.4,460.9)" />
<use xlink:href="#f2_b" transform="matrix(11,0,0,11,266.6,460.9)" />
<use xlink:href="#f2_h" transform="matrix(11,0,0,11,137.7,460.9)" />
<use xlink:href="#f2_j" transform="matrix(11,0,0,11,145.1,460.9)" />
<use xlink:href="#f2_k" transform="matrix(11,0,0,11,149.7,460.9)" />
<use xlink:href="#f2_l" transform="matrix(11,0,0,11,154.4,460.9)" />
<use xlink:href="#f2_j" transform="matrix(11,0,0,11,161.9,460.9)" />
<use xlink:href="#f2_j" transform="matrix(11,0,0,11,166.5,460.9)" />
<use xlink:href="#f2_b" transform="matrix(11,0,0,11,171.2,460.9)" />
<use xlink:href="#f2_k" transform="matrix(11,0,0,11,178.7,460.9)" />
<use xlink:href="#f2_m" transform="matrix(11,0,0,11,183.4,460.9)" />
<use xlink:href="#f2_n" transform="matrix(11,0,0,11,195.4,460.9)" />
<use xlink:href="#f2_o" transform="matrix(11,0,0,11,203.8,460.9)" />
<use xlink:href="#f2_6" transform="matrix(11,0,0,11,635.9,481.1)" />
<use xlink:href="#f2_7" transform="matrix(11,0,0,11,644.1,481.1)" />
<use xlink:href="#f2_6" transform="matrix(11,0,0,11,648.8,481.1)" />
<use xlink:href="#f2_7" transform="matrix(11,0,0,11,657.2,481.1)" />
<use xlink:href="#f2_a" transform="matrix(11,0,0,11,662,481.1)" />
<use xlink:href="#f2_9" transform="matrix(11,0,0,11,675.1,481.1)" />
<use xlink:href="#f2_q" transform="matrix(11,0,0,11,683.3,481.1)" />
<use xlink:href="#f2_p" transform="matrix(11,0,0,11,137.7,481.1)" />
<use xlink:href="#f2_9" transform="matrix(11,0,0,11,146.1,481.1)" />
<use xlink:href="#f2_q" transform="matrix(11,0,0,11,154.5,481.1)" />
<use xlink:href="#f2_9" transform="matrix(11,0,0,11,161,481.1)" />
<use xlink:href="#f2_d" transform="matrix(11,0,0,11,169.4,481.1)" />
<use xlink:href="#f2_r" transform="matrix(11,0,0,11,174,481.1)" />
<use xlink:href="#f2_9" transform="matrix(11,0,0,11,179.6,481.1)" />
<use xlink:href="#f2_q" transform="matrix(11,0,0,11,188,481.1)" />
<use xlink:href="#f2_k" transform="matrix(11,0,0,11,194.6,481.1)" />
<use xlink:href="#f2_b" transform="matrix(11,0,0,11,199.3,481.1)" />
<use xlink:href="#f2_q" transform="matrix(11,0,0,11,206.6,481.1)" />
<use xlink:href="#f2_8" transform="matrix(11,0,0,11,440.9,501.1)" />
<use xlink:href="#f2_9" transform="matrix(11,0,0,11,448.4,501.1)" />
<use xlink:href="#f2_a" transform="matrix(11,0,0,11,456.8,501.1)" />
<use xlink:href="#f2_l" transform="matrix(11,0,0,11,469.9,501.1)" />
<use xlink:href="#f2_p" transform="matrix(11,0,0,11,477.4,501.1)" />
<use xlink:href="#f2_l" transform="matrix(11,0,0,11,137.7,501.1)" />
<use xlink:href="#f2_j" transform="matrix(11,0,0,11,145.1,501.1)" />
<use xlink:href="#f2_j" transform="matrix(11,0,0,11,149.7,501.1)" />
<use xlink:href="#f2_9" transform="matrix(11,0,0,11,154.4,501.1)" />
<use xlink:href="#f2_q" transform="matrix(11,0,0,11,162.8,501.1)" />
<use xlink:href="#f2_k" transform="matrix(11,0,0,11,169.4,501.1)" />
<use xlink:href="#f2_b" transform="matrix(11,0,0,11,174.1,501.1)" />
<use xlink:href="#f2_q" transform="matrix(11,0,0,11,181.4,501.1)" />
<use xlink:href="#f2_k" transform="matrix(11,0,0,11,188,501.1)" />
<use xlink:href="#f2_m" transform="matrix(11,0,0,11,192.7,501.1)" />
<use xlink:href="#f2_n" transform="matrix(11,0,0,11,204.8,501.1)" />
<use xlink:href="#f2_q" transform="matrix(11,0,0,11,213.2,501.1)" />
<use xlink:href="#f2_o" transform="matrix(11,0,0,11,219.7,501.1)" />
</g>
<g fill="#0000FF" >
<use xlink:href="#f1_7" transform="matrix(12,0,0,12,649.3,560.2)" />
<use xlink:href="#f1_3" transform="matrix(12,0,0,12,660,560.2)" />
<use xlink:href="#f1_u" transform="matrix(12,0,0,12,664.5,560.2)" />
<use xlink:href="#f1_5" transform="matrix(12,0,0,12,672.3,560.2)" />
<use xlink:href="#f1_a" transform="matrix(12,0,0,12,683.1,560.2)" />
<use xlink:href="#f1_7" transform="matrix(12,0,0,12,695.5,560.2)" />
<use xlink:href="#f1_a" transform="matrix(12,0,0,12,712.4,560.2)" />
<use xlink:href="#f1_9" transform="matrix(12,0,0,12,724.9,560.2)" />
<use xlink:href="#f1_2" transform="matrix(12,0,0,12,730.3,560.2)" />
<use xlink:href="#f1_9" transform="matrix(12,0,0,12,741.2,560.2)" />
<use xlink:href="#f1_n" transform="matrix(12,0,0,12,746.6,560.2)" />
<use xlink:href="#f1_a" transform="matrix(12,0,0,12,759.8,560.2)" />
</g>
</g>
<path d="M642.9,562.1H772.1" class="g2_3" />
<g clip-path="url(#c1_3)">
<path d="M642.4,562.1h5.8" class="g2_3" />
</g>
<g clip-path="url(#c0_3)">
<g fill="#0000FF" >
<use xlink:href="#f1_z" transform="matrix(12,0,0,12,630.7,560.2)" />
</g>
</g>
<path d="M630.7,562.1h11.6" class="g2_3" />
<g clip-path="url(#c0_3)">
<g fill="#000000" >
<use xlink:href="#f0_b" transform="matrix(12,0,0,12,723.8,620.3)" />
<use xlink:href="#f0_h" transform="matrix(12,0,0,12,735,620.3)" />
<use xlink:href="#f0_f" transform="matrix(12,0,0,12,740.3,620.3)" />
<use xlink:href="#f0_4" transform="matrix(12,0,0,12,748.6,620.3)" />
<use xlink:href="#f0_7" transform="matrix(12,0,0,12,759.6,620.3)" />
<use xlink:href="#f0_n" transform="matrix(12,0,0,12,704.6,620.3)" />
<use xlink:href="#f1_a" transform="matrix(12,0,0,12,487.8,620.3)" />
<use xlink:href="#f1_9" transform="matrix(12,0,0,12,499.9,620.3)" />
<use xlink:href="#f1_e" transform="matrix(12,0,0,12,504.9,620.3)" />
<use xlink:href="#f1_2" transform="matrix(12,0,0,12,517.1,620.3)" />
<use xlink:href="#f1_6" transform="matrix(12,0,0,12,527.7,620.3)" />
<use xlink:href="#f1_a" transform="matrix(12,0,0,12,545.4,620.3)" />
<use xlink:href="#f1_9" transform="matrix(12,0,0,12,557.4,620.3)" />
<use xlink:href="#f1_3" transform="matrix(12,0,0,12,562.5,620.3)" />
<use xlink:href="#f1_p" transform="matrix(12,0,0,12,566.6,620.3)" />
<use xlink:href="#f1_6" transform="matrix(12,0,0,12,578.5,620.3)" />
<use xlink:href="#f1_6" transform="matrix(12,0,0,12,590.4,620.3)" />
<use xlink:href="#f1_a" transform="matrix(12,0,0,12,608.1,620.3)" />
<use xlink:href="#f1_e" transform="matrix(12,0,0,12,620.1,620.3)" />
<use xlink:href="#f1_j" transform="matrix(12,0,0,12,638.3,620.3)" />
<use xlink:href="#f1_7" transform="matrix(12,0,0,12,650.5,620.3)" />
<use xlink:href="#f1_n" transform="matrix(12,0,0,12,660.9,620.3)" />
<use xlink:href="#f1_6" transform="matrix(12,0,0,12,673.9,620.3)" />
<use xlink:href="#f1_16" transform="matrix(12,0,0,12,691.6,620.3)" />
</g>
</g>
<path d="M129.2,665.7H356.7M129.2,687.9H356.7M129.2,710H356.7M129.2,732.2H356.7M129.2,754.3H356.7M129.2,776.5H356.7M129.2,798.6H356.7M129.2,820.8H356.7M129.2,875H356.7M129.2,897.2H356.7" class="g1_3" />
<g clip-path="url(#c0_3)">
<g fill="#000000" >
<use xlink:href="#f4_2" transform="matrix(12,0,0,12,502.8,661.1)" />
<use xlink:href="#f4_3" transform="matrix(12,0,0,12,514.7,661.1)" />
<use xlink:href="#f4_4" transform="matrix(12,0,0,12,522,661.1)" />
<use xlink:href="#f4_5" transform="matrix(12,0,0,12,531.6,661.1)" />
<use xlink:href="#f4_6" transform="matrix(12,0,0,12,535.8,661.1)" />
<use xlink:href="#f4_7" transform="matrix(12,0,0,12,547.7,661.1)" />
<use xlink:href="#f5_2" transform="matrix(11,0,0,11,304.8,659.7)" />
<use xlink:href="#f5_3" transform="matrix(11,0,0,11,312.3,659.7)" />
<use xlink:href="#f5_4" transform="matrix(11,0,0,11,320.5,659.7)" />
<use xlink:href="#f5_5" transform="matrix(11,0,0,11,325.2,659.7)" />
<use xlink:href="#f5_6" transform="matrix(11,0,0,11,331.8,659.7)" />
<use xlink:href="#f5_5" transform="matrix(11,0,0,11,340.2,659.7)" />
<use xlink:href="#f1_i" transform="matrix(12,0,0,12,492.4,683.2)" />
<use xlink:href="#f1_l" transform="matrix(12,0,0,12,504.3,683.2)" />
<use xlink:href="#f1_4" transform="matrix(12,0,0,12,511.6,683.2)" />
<use xlink:href="#f1_l" transform="matrix(12,0,0,12,521.3,683.2)" />
<use xlink:href="#f1_3" transform="matrix(12,0,0,12,534.4,683.2)" />
<use xlink:href="#f1_l" transform="matrix(12,0,0,12,538.5,683.2)" />
<use xlink:href="#f1_e" transform="matrix(12,0,0,12,545.8,683.2)" />
<use xlink:href="#f1_i" transform="matrix(12,0,0,12,479.9,705.4)" />
<use xlink:href="#f1_l" transform="matrix(12,0,0,12,491.8,705.4)" />
<use xlink:href="#f1_4" transform="matrix(12,0,0,12,499.1,705.4)" />
<use xlink:href="#f1_l" transform="matrix(12,0,0,12,508.7,705.4)" />
<use xlink:href="#f1_6" transform="matrix(12,0,0,12,521.9,705.4)" />
<use xlink:href="#f1_a" transform="matrix(12,0,0,12,533.8,705.4)" />
<use xlink:href="#f1_e" transform="matrix(12,0,0,12,545.8,705.4)" />
<use xlink:href="#f1_i" transform="matrix(12,0,0,12,486.9,727.5)" />
<use xlink:href="#f1_l" transform="matrix(12,0,0,12,498.8,727.5)" />
<use xlink:href="#f1_4" transform="matrix(12,0,0,12,506.1,727.5)" />
<use xlink:href="#f1_l" transform="matrix(12,0,0,12,515.8,727.5)" />
<use xlink:href="#f1_e" transform="matrix(12,0,0,12,528.9,727.5)" />
<use xlink:href="#f1_9" transform="matrix(12,0,0,12,541.1,727.5)" />
<use xlink:href="#f1_6" transform="matrix(12,0,0,12,546.2,727.5)" />
<use xlink:href="#f1_a" transform="matrix(12,0,0,12,475.8,749.7)" />
<use xlink:href="#f1_i" transform="matrix(12,0,0,12,487.8,749.7)" />
<use xlink:href="#f1_l" transform="matrix(12,0,0,12,499.7,749.7)" />
<use xlink:href="#f1_4" transform="matrix(12,0,0,12,507,749.7)" />
<use xlink:href="#f1_l" transform="matrix(12,0,0,12,516.7,749.7)" />
<use xlink:href="#f1_e" transform="matrix(12,0,0,12,529.8,749.7)" />
<use xlink:href="#f1_3" transform="matrix(12,0,0,12,542,749.7)" />
<use xlink:href="#f1_6" transform="matrix(12,0,0,12,546.1,749.7)" />
<use xlink:href="#f1_j" transform="matrix(12,0,0,12,455.9,771.8)" />
<use xlink:href="#f1_3" transform="matrix(12,0,0,12,468.1,771.8)" />
<use xlink:href="#f1_i" transform="matrix(12,0,0,12,472.2,771.8)" />
<use xlink:href="#f1_l" transform="matrix(12,0,0,12,484.1,771.8)" />
<use xlink:href="#f1_4" transform="matrix(12,0,0,12,491.4,771.8)" />
<use xlink:href="#f1_l" transform="matrix(12,0,0,12,501.1,771.8)" />
<use xlink:href="#f1_9" transform="matrix(12,0,0,12,514.2,771.8)" />
<use xlink:href="#f1_l" transform="matrix(12,0,0,12,519.2,771.8)" />
<use xlink:href="#f1_f" transform="matrix(12,0,0,12,526.6,771.8)" />
<use xlink:href="#f1_l" transform="matrix(12,0,0,12,538.5,771.8)" />
<use xlink:href="#f1_e" transform="matrix(12,0,0,12,545.8,771.8)" />
<use xlink:href="#f1_i" transform="matrix(12,0,0,12,475.8,794)" />
<use xlink:href="#f1_l" transform="matrix(12,0,0,12,487.6,794)" />
<use xlink:href="#f1_4" transform="matrix(12,0,0,12,495,794)" />
<use xlink:href="#f1_l" transform="matrix(12,0,0,12,504.6,794)" />
<use xlink:href="#f1_9" transform="matrix(12,0,0,12,517.9,794)" />
<use xlink:href="#f1_h" transform="matrix(12,0,0,12,522.8,794)" />
<use xlink:href="#f1_9" transform="matrix(12,0,0,12,532.8,794)" />
<use xlink:href="#f1_2" transform="matrix(12,0,0,12,537.9,794)" />
<use xlink:href="#f1_4" transform="matrix(12,0,0,12,548.4,794)" />
<use xlink:href="#f1_j" transform="matrix(12,0,0,12,475.6,816.1)" />
<use xlink:href="#f1_3" transform="matrix(12,0,0,12,487.8,816.1)" />
<use xlink:href="#f1_i" transform="matrix(12,0,0,12,491.9,816.1)" />
<use xlink:href="#f1_l" transform="matrix(12,0,0,12,503.8,816.1)" />
<use xlink:href="#f1_4" transform="matrix(12,0,0,12,511.1,816.1)" />
<use xlink:href="#f1_l" transform="matrix(12,0,0,12,520.8,816.1)" />
<use xlink:href="#f1_j" transform="matrix(12,0,0,12,533.9,816.1)" />
<use xlink:href="#f1_6" transform="matrix(12,0,0,12,546.1,816.1)" />
<use xlink:href="#f1_3" transform="matrix(12,0,0,12,365,838.3)" />
<use xlink:href="#f1_d" transform="matrix(12,0,0,12,369.1,838.3)" />
<use xlink:href="#f1_7" transform="matrix(12,0,0,12,380.5,838.3)" />
<use xlink:href="#f1_w" transform="matrix(12,0,0,12,390.9,838.3)" />
<use xlink:href="#f1_j" transform="matrix(12,0,0,12,433.5,838.3)" />
<use xlink:href="#f1_3" transform="matrix(12,0,0,12,445.7,838.3)" />
<use xlink:href="#f1_i" transform="matrix(12,0,0,12,449.8,838.3)" />
<use xlink:href="#f1_l" transform="matrix(12,0,0,12,461.7,838.3)" />
<use xlink:href="#f1_4" transform="matrix(12,0,0,12,469.1,838.3)" />
<use xlink:href="#f1_l" transform="matrix(12,0,0,12,478.7,838.3)" />
<use xlink:href="#f1_j" transform="matrix(12,0,0,12,521.4,838.3)" />
<use xlink:href="#f1_a" transform="matrix(12,0,0,12,533.6,838.3)" />
<use xlink:href="#f1_e" transform="matrix(12,0,0,12,545.7,838.3)" />
<use xlink:href="#f1_x" transform="matrix(12,0,0,12,503.6,870.4)" />
<use xlink:href="#f1_j" transform="matrix(12,0,0,12,510.7,870.4)" />
<use xlink:href="#f1_h" transform="matrix(12,0,0,12,522.8,870.4)" />
<use xlink:href="#f1_9" transform="matrix(12,0,0,12,532.9,870.4)" />
<use xlink:href="#f1_2" transform="matrix(12,0,0,12,537.9,870.4)" />
<use xlink:href="#f1_4" transform="matrix(12,0,0,12,548.4,870.4)" />
<use xlink:href="#f1_a" transform="matrix(12,0,0,12,479.7,892.5)" />
<use xlink:href="#f1_i" transform="matrix(12,0,0,12,491.8,892.5)" />
<use xlink:href="#f1_l" transform="matrix(12,0,0,12,503.7,892.5)" />
<use xlink:href="#f1_4" transform="matrix(12,0,0,12,511,892.5)" />
<use xlink:href="#f1_l" transform="matrix(12,0,0,12,520.6,892.5)" />
<use xlink:href="#f1_a" transform="matrix(12,0,0,12,533.8,892.5)" />
<use xlink:href="#f1_e" transform="matrix(12,0,0,12,545.8,892.5)" />
</g>
<g fill="#0000FF" >
<use xlink:href="#f1_7" transform="matrix(12,0,0,12,649.3,952.3)" />
<use xlink:href="#f1_3" transform="matrix(12,0,0,12,660,952.3)" />
<use xlink:href="#f1_u" transform="matrix(12,0,0,12,664.5,952.3)" />
<use xlink:href="#f1_5" transform="matrix(12,0,0,12,672.3,952.3)" />
<use xlink:href="#f1_a" transform="matrix(12,0,0,12,683.1,952.3)" />
<use xlink:href="#f1_7" transform="matrix(12,0,0,12,695.5,952.3)" />
<use xlink:href="#f1_a" transform="matrix(12,0,0,12,712.4,952.3)" />
<use xlink:href="#f1_9" transform="matrix(12,0,0,12,724.9,952.3)" />
<use xlink:href="#f1_2" transform="matrix(12,0,0,12,730.3,952.3)" />
<use xlink:href="#f1_9" transform="matrix(12,0,0,12,741.2,952.3)" />
<use xlink:href="#f1_n" transform="matrix(12,0,0,12,746.6,952.3)" />
<use xlink:href="#f1_a" transform="matrix(12,0,0,12,759.8,952.3)" />
</g>
</g>
<path d="M642.9,954.1H772.1" class="g2_3" />
<g clip-path="url(#c2_3)">
<path d="M642.4,954.1h5.8" class="g2_3" />
</g>
<g clip-path="url(#c0_3)">
<g fill="#0000FF" >
<use xlink:href="#f1_10" transform="matrix(12,0,0,12,630.7,952.3)" />
</g>
</g>
<path d="M630.7,954.1h11.6" class="g2_3" />
<g clip-path="url(#c0_3)">
<g fill="#000000" >
<use xlink:href="#f1_11" transform="matrix(11,0,0,11,137.5,1208.9)" />
</g>
</g>
<image preserveAspectRatio="none" x="137" y="110" width="54" height="54" xlink:href="img/1.png" />
<defs>
<path d="M173,-6C173,-6,61,-6,15,9V177c0,0,73,-10,82,-10c0,0,37,0,52,30c0,0,14,29,14,116V658H18V836H516c0,0,262,0,341,-145c0,0,48,-89,48,-242V0H658V450c0,0,0,131,-37,171c0,0,-34,37,-105,37H411V313c0,0,0,-189,-67,-258C344,55,285,-6,173,-6Z" 
id="f0_7"
transform="scale(0.001,-0.001)" />

<path d="M102,250V836H349V351L102,250Z" 
id="f0_h"
transform="scale(0.001,-0.001)" />

<path d="M66,0V178H307V510c0,0,0,100,-31,124c0,0,-30,24,-79,24H83V836H197c0,0,215,0,286,-85c0,0,71,-85,71,-224V0Z" 
id="f0_i"
transform="scale(0.001,-0.001)" />

<path d="M545,-19c0,0,-208,0,-308,99c0,0,-99,101,-99,324V836H383V399c0,0,0,-130,41,-183c0,0,41,-53,121,-53c0,0,80,0,121,53c0,0,41,53,41,183c0,0,0,142,-27,203c0,0,-28,61,-90,61c0,0,-36,0,-92,-20V825c0,0,80,21,142,21c0,0,153,0,233,-113c0,0,80,-113,80,-328c0,0,0,-224,-100,-325c0,0,-100,-99,-308,-99Z" 
id="f0_j"
transform="scale(0.001,-0.001)" />

<path d="M248,0L521,658H66v429H313V836l493,-1V716L504,0Z" 
id="f0_b"
transform="scale(0.001,-0.001)" />

<path d="M153,0V437L399,539V0ZM664,0V450c0,0,0,122,-31,165c0,0,-31,43,-121,43H138V836H511c0,0,113,0,188,-22c0,0,75,-23,123,-73c0,0,47,-51,68,-127c0,0,20,-76,20,-189V0Z" 
id="f0_k"
transform="scale(0.001,-0.001)" />

<path d="M66,0V178H507V449c0,0,0,43,-2,71c0,0,-3,28,-12,56c0,0,-9,28,-26,45c0,0,-17,16,-47,27c0,0,-29,10,-72,10H66V836H349c0,0,97,0,167,-17c0,0,71,-17,117,-49c0,0,46,-32,73,-84c0,0,27,-52,38,-114c0,0,11,-62,11,-147V178H866V0Z" 
id="f0_9"
transform="scale(0.001,-0.001)" />

<path d="M159,0V165c0,0,0,69,13,124c0,0,12,55,29,89c0,0,17,33,45,62c0,0,29,28,50,42c0,0,22,14,54,30L128,836H405L666,460c0,0,41,48,41,155V836H952V671c0,0,0,-50,-6,-93c0,0,-6,-42,-16,-73c0,0,-10,-30,-26,-57c0,0,-17,-27,-31,-44c0,0,-15,-17,-37,-33c0,0,-22,-16,-38,-25c0,0,-15,-9,-38,-21L984,0H706L445,376c0,0,-41,-48,-41,-155V0Z" 
id="f0_c"
transform="scale(0.001,-0.001)" />

<path d="M171,0V288H440V0Zm0,548V836H440V548Z" 
id="f0_d"
transform="scale(0.001,-0.001)" />

<path d="M139,0V836H386V0Z" 
id="f0_8"
transform="scale(0.001,-0.001)" />

<path d="M534,0V425c0,0,0,109,-41,171c0,0,-41,62,-140,62H66V836H352c0,0,99,0,174,-20c0,0,75,-20,123,-55c0,0,48,-35,78,-87c0,0,30,-53,42,-113c0,0,12,-60,12,-136V0Z" 
id="f0_4"
transform="scale(0.001,-0.001)" />

<path d="M82,0V177H500L50,836H328L560,491c0,0,56,19,56,124V836H861V671c0,0,0,-116,-45,-192c0,0,-40,-68,-85,-90c0,0,-50,-26,-71,-26c0,0,-1,0,-1,0L838,96V0Z" 
id="f0_l"
transform="scale(0.001,-0.001)" />

<path d="M150,-366V437L396,539V-366ZM499,0L727,658H139V835h870V716L754,0Z" 
id="f0_3"
transform="scale(0.001,-0.001)" />

<path d="M287,0L589,729H66v386H205V836l547,-1l-2,-82L433,0Z" 
id="f1_7"
transform="scale(0.001,-0.001)" />

<path d="M71,-141V-15L289,62L66,836H210L416,109c0,0,99,42,153,98c0,0,53,56,80,155c0,0,26,98,26,262V836H817V624c0,0,0,-88,-7,-154c0,0,-7,-67,-25,-132c0,0,-18,-66,-51,-116c0,0,-33,-51,-84,-98c0,0,-50,-48,-123,-87c0,0,-72,-39,-169,-74L71,-141Z" 
id="f1_k"
transform="scale(0.001,-0.001)" />

<path d="M139,0V836H278V0Z" 
id="f1_9"
transform="scale(0.001,-0.001)" />

<path d="M139,0V106H400c0,0,176,0,253,71c0,0,78,72,78,250c0,0,0,163,-80,233c0,0,-81,69,-250,69H278L277,564c0,0,-1,-54,26,-80c0,0,27,-25,82,-25c0,0,30,0,80,9V355c0,0,-61,-12,-111,-12c0,0,-100,0,-157,55c0,0,-58,55,-58,186V836H456c0,0,193,0,303,-109c0,0,110,-109,110,-309c0,0,0,-200,-110,-309C759,109,648,0,456,0Z" 
id="f1_d"
transform="scale(0.001,-0.001)" />

<path d="M154,0V454l138,56V0ZM722,0V454c0,0,0,161,-49,218c0,0,-48,57,-186,57H139V836H485c0,0,207,0,291,-93c0,0,83,-94,83,-318V0Z" 
id="f1_6"
transform="scale(0.001,-0.001)" />

<path d="M284,67c0,0,51,0,88,12c0,0,37,12,74,30V358l-98,-3c0,0,-100,-4,-135,-39c0,0,-35,-35,-35,-117c0,0,0,-132,106,-132ZM233,-14c0,0,-179,0,-179,208c0,0,0,70,27,116c0,0,27,46,87,70c0,0,60,24,173,27l105,3V519c0,0,0,72,-26,107c0,0,-27,34,-82,34c0,0,-75,0,-137,-35L176,538H134V691c0,0,121,26,213,26c0,0,115,0,169,-47c0,0,54,-47,54,-144V52L657,33V0H465L451,70c0,0,-85,-84,-218,-84Z" 
id="f2_b"
transform="scale(0.001,-0.001)" />

<path d="M431,0V33L535,52V499c0,0,0,62,-32,96c0,0,-32,33,-95,33c0,0,-66,0,-163,-22V52L350,33V0H32V33l89,19V649L32,668v33H237l6,-57c0,0,56,32,119,54c0,0,62,22,110,22c0,0,52,0,95,-20c0,0,44,-19,66,-62c0,0,57,32,134,57c0,0,77,25,128,25c0,0,179,0,179,-207V52l90,-19V0H846V33L950,52V499c0,0,0,129,-119,129c0,0,-19,0,-45,-3c0,0,-26,-3,-52,-7c0,0,-25,-4,-49,-8c0,0,-23,-5,-39,-8c0,0,13,-41,13,-89V52L764,33V0Z" 
id="f2_a"
transform="scale(0.001,-0.001)" />

<path d="M31,0V33l88,19V649L31,668v33H235l7,-87c0,0,44,37,121,71c0,0,76,35,121,35h11V530H463l-43,82c0,0,-37,0,-88,-10c0,0,-52,-10,-89,-26V52L363,33V0Z" 
id="f2_r"
transform="scale(0.001,-0.001)" />

<path d="M139,0V138c0,0,0,61,8,112c0,0,7,52,19,87c0,0,11,36,30,66c0,0,19,31,35,49c0,0,17,19,41,35c0,0,25,17,41,25c0,0,17,7,40,17L141,836H303L613,388c0,0,20,10,33,18c0,0,13,8,34,28c0,0,20,20,33,44c0,0,13,25,22,66c0,0,10,41,10,92V836H882V698c0,0,0,-61,-7,-112c0,0,-6,-52,-18,-88c0,0,-12,-36,-30,-66c0,0,-19,-30,-36,-49c0,0,-17,-18,-41,-34c0,0,-24,-17,-40,-25c0,0,-17,-8,-41,-17L882,0H720L409,448c0,0,-21,-11,-34,-19c0,0,-13,-8,-34,-27c0,0,-21,-20,-34,-44c0,0,-12,-25,-22,-66c0,0,-9,-41,-9,-92V0Z" 
id="f1_e"
transform="scale(0.001,-0.001)" />

<path d="M543,-317V369c0,0,0,85,-8,143c0,0,-8,58,-27,101c0,0,-18,44,-51,69c0,0,-33,24,-80,36c0,0,-48,11,-117,11H66V836H257c0,0,125,0,205,-23c0,0,80,-23,130,-79c0,0,50,-56,70,-143c0,0,20,-86,20,-222V-317Z" 
id="f1_s"
transform="scale(0.001,-0.001)" />

<path d="M180,0L66,836H203L258,443c0,0,36,1,64,6c0,0,28,6,49,18c0,0,20,12,35,26c0,0,15,13,26,36c0,0,11,24,17,44c0,0,7,20,12,55c0,0,6,34,9,60c0,0,3,26,8,71c0,0,4,45,9,77H610c0,0,-13,-194,-31,-271c0,0,-31,-127,-111,-179c0,0,-71,-45,-196,-50L304,107c0,0,73,0,130,5c0,0,56,6,111,21c0,0,54,15,94,40c0,0,40,25,77,64c0,0,37,39,63,94c0,0,25,54,46,128c0,0,21,73,34,166c0,0,13,94,20,211h138c0,0,-14,-124,-29,-218c0,0,-16,-94,-39,-179c0,0,-22,-85,-50,-146c0,0,-28,-61,-68,-112c0,0,-39,-51,-87,-84C744,97,696,65,632,42C632,42,568,19,492,10C492,10,417,0,320,0Z" 
id="f1_n"
transform="scale(0.001,-0.001)" />

<path d="M114,0l60,312c0,0,2,12,8,39c0,0,6,27,7,37c0,0,2,11,5,30c0,0,2,19,4,33c0,0,1,15,1,31c0,0,0,48,-35,146c0,0,-35,98,-98,208H228c0,0,3,-8,27,-67c0,0,25,-58,41,-117c0,0,21,53,50,90c0,0,29,37,57,57c0,0,29,21,65,32c0,0,37,11,65,14c0,0,28,3,67,3c0,0,300,0,300,-396V0H480V106H761V452c0,0,0,146,-46,215c0,0,-45,70,-118,70c0,0,-134,0,-198,-119c0,0,-36,-68,-67,-222c0,0,-2,-10,-6,-27L253,0Z" 
id="f1_m"
transform="scale(0.001,-0.001)" />

<path d="M66,0V107H554V452c0,0,0,56,-4,93c0,0,-4,37,-18,75c0,0,-14,38,-40,60c0,0,-26,22,-71,36c0,0,-45,13,-110,13H66V836H312c0,0,91,0,157,-17c0,0,66,-17,109,-49c0,0,44,-32,69,-84c0,0,26,-52,36,-114c0,0,10,-62,10,-147V107H817V0Z" 
id="f1_2"
transform="scale(0.001,-0.001)" />

<path d="M495,0V729H66V836H781V729H634V0Z" 
id="f1_h"
transform="scale(0.001,-0.001)" />

<path d="M66,0V107H332V555c0,0,0,92,-37,133c0,0,-37,41,-116,41H85V836h94c0,0,153,0,223,-66c0,0,69,-66,69,-231V0Z" 
id="f1_l"
transform="scale(0.001,-0.001)" />

<path d="M585,0V426c0,0,0,54,-8,98c0,0,-8,44,-27,83c0,0,-19,40,-49,66c0,0,-30,26,-77,41c0,0,-47,15,-108,15H66V836H315c0,0,94,0,166,-20c0,0,71,-20,116,-54c0,0,46,-35,75,-88c0,0,28,-52,40,-112c0,0,12,-60,12,-137V0Z" 
id="f1_5"
transform="scale(0.001,-0.001)" />

<path d="M139,0V836H485c0,0,206,0,290,-90c0,0,84,-89,84,-294V0H721V473c0,0,0,147,-49,202c0,0,-48,54,-186,54H277V0Z" 
id="f1_f"
transform="scale(0.001,-0.001)" />

<path d="M163,0V190H321V0Z" 
id="f1_g"
transform="scale(0.001,-0.001)" />

<path d="M66,0V106H322c0,0,75,0,127,23c0,0,53,23,82,67c0,0,29,43,42,98c0,0,13,54,13,124c0,0,0,70,-13,124c0,0,-13,55,-42,98c0,0,-29,44,-82,67c0,0,-52,23,-127,23H66V836H322c0,0,87,0,157,-24c0,0,70,-24,115,-64c0,0,45,-40,74,-94c0,0,30,-55,43,-113c0,0,13,-59,13,-123c0,0,0,-64,-13,-123c0,0,-13,-58,-43,-113c0,0,-29,-54,-74,-94C594,88,549,48,479,24C479,24,409,0,322,0Z" 
id="f1_4"
transform="scale(0.001,-0.001)" />

<path d="M147,700v414H274V700Zm282,0v414H556V700Z" 
id="f1_y"
transform="scale(0.001,-0.001)" />

<path d="M112,-5c0,0,-39,0,-97,11V113c0,0,48,-10,77,-10c0,0,53,0,70,42c0,0,17,43,17,164V729H50V836H501c0,0,107,0,179,-25c0,0,72,-25,112,-77c0,0,40,-51,57,-118c0,0,16,-67,16,-164V0H726V454c0,0,0,55,-3,92c0,0,-4,37,-17,75c0,0,-14,38,-38,59c0,0,-24,22,-65,36c0,0,-42,13,-102,13H318V309c0,0,0,-160,-46,-237C272,72,226,-5,112,-5Z" 
id="f1_a"
transform="scale(0.001,-0.001)" />

<path d="M66,0V106H564L66,836H228L516,413c0,0,3,2,9,6c0,0,17,13,27,21c0,0,10,8,26,27c0,0,17,20,26,40c0,0,9,21,16,54c0,0,7,34,7,75V836H764V698c0,0,0,-55,-7,-102c0,0,-7,-47,-16,-79c0,0,-10,-33,-27,-62c0,0,-18,-29,-32,-46c0,0,-14,-17,-37,-35c0,0,-22,-17,-36,-25c0,0,-13,-8,-36,-20L767,53V0Z" 
id="f1_q"
transform="scale(0.001,-0.001)" />

<path d="M383,64c0,0,44,0,87,7c0,0,43,7,65,17V645c0,0,-67,13,-152,13c0,0,-194,0,-194,-309c0,0,0,-143,48,-214c0,0,47,-71,146,-71Zm56,-389v35l96,18V-77c0,0,0,73,7,124c0,0,-79,-61,-200,-61c0,0,-287,0,-287,362c0,0,0,180,81,276c0,0,81,96,237,96c0,0,84,0,166,-18l67,33h53V-272l77,-18v-35Z" 
id="f2_x"
transform="scale(0.001,-0.001)" />

<path d="M289,-14c0,0,-179,0,-179,205V649L20,668v33H233V200c0,0,0,-128,120,-128c0,0,92,0,173,23V649L420,668v33H649V52L738,33V0H533l-6,57C527,57,474,28,405,7c0,0,-69,-21,-116,-21Z" 
id="f2_y"
transform="scale(0.001,-0.001)" />

<path d="M495,413c0,0,0,133,-34,190c0,0,-34,57,-105,57c0,0,-78,0,-119,-63c0,0,-42,-62,-42,-184ZM374,-14c0,0,-163,0,-239,87c0,0,-75,88,-75,283c0,0,0,183,77,273c0,0,76,91,219,91c0,0,269,0,269,-306V353H194V340c0,0,0,-103,23,-160c0,0,22,-57,70,-87c0,0,47,-29,124,-29c0,0,40,0,96,6c0,0,55,7,91,15V43C598,43,562,20,500,3c0,0,-61,-17,-126,-17Z" 
id="f2_l"
transform="scale(0.001,-0.001)" />

<path d="M102,312V836H241V369L102,312Z" 
id="f1_3"
transform="scale(0.001,-0.001)" />

<path d="M322,0V40L481,60V389L130,941L17,960v40H440V960L306,941L593,480L866,941L739,960v40h326V960L955,941L625,394V60L784,40V0Z" 
id="f2_z"
transform="scale(0.001,-0.001)" />

<path d="M377,45c0,0,99,0,147,73c0,0,47,73,47,237c0,0,0,161,-47,233c0,0,-47,72,-147,72c0,0,-97,0,-141,-69c0,0,-44,-69,-44,-236c0,0,0,-169,45,-240c0,0,44,-70,140,-70Zm0,-59c0,0,-158,0,-238,94c0,0,-81,95,-81,274c0,0,0,178,81,272c0,0,80,94,244,94c0,0,160,0,241,-92c0,0,82,-92,82,-274c0,0,0,-368,-329,-368Z" 
id="f2_9"
transform="scale(0.001,-0.001)" />

<path d="M32,0V33L151,52V649L52,668v33H275V52L395,33V0ZM201,850c0,0,-32,0,-56,24c0,0,-24,24,-24,56c0,0,0,34,24,58c0,0,24,24,56,24c0,0,34,0,58,-24c0,0,24,-24,24,-58c0,0,0,-32,-24,-56c0,0,-24,-24,-58,-24Z" 
id="f2_7"
transform="scale(0.001,-0.001)" />

<path d="M117,-176L179,62V190H336V62L213,-176Z" 
id="f1_o"
transform="scale(0.001,-0.001)" />

<path d="M522,92c0,0,247,0,247,333c0,0,0,88,-17,146c0,0,-17,58,-53,91c0,0,-35,33,-82,46c0,0,-48,14,-116,14H276V419c0,0,0,-327,246,-327Zm0,-112c0,0,-193,0,-289,109c0,0,-95,110,-95,337V836H501c0,0,213,0,309,-93c0,0,96,-94,96,-317c0,0,0,-227,-95,-337C811,89,715,-20,522,-20Z" 
id="f1_i"
transform="scale(0.001,-0.001)" />

<path d="M700,-317V454c0,0,0,155,-54,215c0,0,-54,60,-180,60H277V551c0,0,0,-55,26,-80c0,0,27,-26,82,-26c0,0,30,0,80,10V341c0,0,-61,-11,-111,-11c0,0,-100,0,-157,55c0,0,-58,55,-58,186V836H466c0,0,203,0,288,-91c0,0,85,-92,85,-293V-317Z" 
id="f1_t"
transform="scale(0.001,-0.001)" />

<path d="M138,-7c0,0,-34,0,-72,10V129c0,0,25,-8,52,-8c0,0,33,0,58,5c0,0,26,5,58,24c0,0,33,20,53,54c0,0,21,34,36,97c0,0,15,64,15,151c0,0,0,113,-19,173c0,0,-19,60,-56,82c0,0,-38,22,-107,22H89V836h72c0,0,165,0,240,-91c0,0,76,-91,76,-293c0,0,0,-107,26,-227c0,0,25,-119,83,-225H437c0,0,-43,101,-62,184c0,0,-24,-60,-51,-99c0,0,-26,-38,-56,-58C268,27,239,7,209,0c0,0,-30,-7,-71,-7Z" 
id="f1_u"
transform="scale(0.001,-0.001)" />

<path d="M139,-317V836H278V-317Z" 
id="f1_r"
transform="scale(0.001,-0.001)" />

<path d="M736,107V473c0,0,0,147,-48,202c0,0,-49,54,-187,54H278V107ZM139,0V836H499c0,0,105,0,177,-22c0,0,72,-21,116,-69c0,0,44,-49,64,-119c0,0,19,-71,19,-174V0Z" 
id="f1_j"
transform="scale(0.001,-0.001)" />

<path d="M152,0V473c0,0,0,94,28,161c0,0,29,66,71,95H66V836H463V729H404c0,0,-65,0,-89,-57c0,0,-25,-58,-25,-199V0Z" 
id="f1_b"
transform="scale(0.001,-0.001)" />

<path d="M354,-200c0,0,-112,175,-167,343c0,0,-56,170,-56,337c0,0,0,166,55,335c0,0,55,169,168,345H473c0,0,-100,-172,-148,-340c0,0,-48,-168,-48,-340c0,0,0,-173,48,-342c0,0,49,-168,148,-338Z" 
id="f1_x"
transform="scale(0.001,-0.001)" />

<path d="M122,-200c0,0,99,170,148,338c0,0,49,169,49,342c0,0,0,172,-49,340c0,0,-49,168,-148,340H241c0,0,112,-176,168,-345c0,0,55,-169,55,-335c0,0,0,-167,-55,-337c0,0,-56,-168,-168,-343Z" 
id="f1_w"
transform="scale(0.001,-0.001)" />

<path d="M156,-317V454l139,56V-317ZM505,0L806,729H139V835H967V753L650,0Z" 
id="f1_c"
transform="scale(0.001,-0.001)" />

<path d="M235,-20c0,0,-31,0,-51,19c0,0,-21,18,-21,50c0,0,0,65,39,120c0,0,39,54,125,109c0,0,56,35,87,56c0,0,32,20,46,33c0,0,79,45,79,143c0,0,0,27,-7,65c0,0,-8,39,-27,49c0,0,-19,10,-85,10H110c0,0,-36,0,-53,21c0,0,-17,22,-25,71c0,0,-7,49,-7,134c0,0,0,62,27,122c0,0,8,15,8,34c0,0,0,23,-35,37c0,0,-21,7,-30,29c0,0,-9,22,-9,72c0,0,0,24,10,46c0,0,8,22,25,38c0,0,16,16,26,16c0,0,17,0,17,-14c0,0,0,-9,7,-17c0,0,7,-8,34,-14c0,0,65,-15,81,-26c0,0,15,-10,15,-31c0,0,0,-15,-15,-38c0,0,-15,-22,-33,-53c0,0,-19,-30,-34,-67c0,0,-15,-36,-15,-79c0,0,0,-43,14,-56c0,0,15,-14,54,-14H518c0,0,39,0,63,-17c0,0,23,-16,33,-53c0,0,10,-36,17,-89c0,0,6,-52,6,-93c0,0,0,-99,-9,-144c0,0,-9,-44,-40,-80c0,0,-31,-36,-110,-86c0,0,-112,-71,-138,-95c0,0,-26,-23,-36,-44c0,0,-9,-20,-9,-43c0,0,0,-11,5,-26c0,0,6,-15,6,-26c0,0,0,-32,-20,-50c0,0,-20,-19,-51,-19Z" 
id="f3_g"
transform="scale(0.001,-0.001)" />

<path d="M204,-8c0,0,-9,0,-11,5c0,0,-2,5,-2,22V549c0,0,0,40,-4,56c0,0,-4,16,-15,22c0,0,-10,7,-39,7H90c0,0,-33,0,-52,33c0,0,-19,33,-19,90c0,0,0,53,15,98c0,0,16,44,35,44c0,0,12,0,12,-13V872c0,0,0,-27,31,-27h42c0,0,79,0,103,-20c0,0,23,-19,23,-83V67c0,0,0,-16,-8,-26c0,0,-9,-10,-33,-30c0,0,-25,-19,-35,-19Z" 
id="f3_3"
transform="scale(0.001,-0.001)" />

<path d="M423,-13c0,0,-9,0,-14,7c0,0,-5,6,-10,23c0,0,-13,51,-37,108c0,0,-25,58,-55,101c0,0,-21,-37,-51,-115C256,111,225,34,216,0H12L55,212h99c0,0,51,0,72,12c0,0,20,12,40,58c0,0,20,46,18,98V543c0,0,0,46,-7,61c0,0,-7,15,-23,22c0,0,-17,8,-50,8H189c0,0,-76,0,-76,115c0,0,0,56,16,103c0,0,16,47,33,47c0,0,14,0,14,-15c0,0,0,-17,9,-28c0,0,10,-11,40,-11h21c0,0,60,0,85,-8c0,0,25,-9,39,-26c0,0,13,-18,13,-49c0,0,0,-20,-4,-43c0,0,-5,-23,-10,-53c0,0,-6,-31,-10,-71c0,0,-5,-41,-5,-97c0,0,0,-150,62,-269c0,0,28,-58,38,-90l9,-65c0,0,0,-27,-13,-57c0,0,-13,-30,-27,-30Z" 
id="f3_h"
transform="scale(0.001,-0.001)" />

<path d="M554,-8c0,0,-9,0,-11,6c0,0,-2,5,-2,24V548c0,0,0,38,-5,56c0,0,-4,18,-15,25c0,0,-12,7,-41,7H90c0,0,-33,0,-52,33c0,0,-19,33,-19,90c0,0,0,54,15,97c0,0,14,43,30,43c0,0,17,0,17,-13V872c0,0,0,-9,7,-18c0,0,7,-9,27,-9H512c0,0,54,0,77,-8c0,0,23,-9,33,-28c0,0,9,-20,9,-67V81c0,0,0,-31,-27,-53L583,9C583,9,563,-8,554,-8Z" 
id="f3_i"
transform="scale(0.001,-0.001)" />

<path d="M721,-14c0,0,-12,0,-12,9l4,28c0,0,17,82,17,338c0,0,0,105,-11,163c0,0,-11,58,-35,84c0,0,-25,26,-83,26H315c0,0,-43,-39,-67,-90c0,0,-25,-51,-25,-104c0,0,0,-59,17,-104c0,0,17,-45,35,-78c0,0,18,-34,18,-44c0,0,0,-26,-20,-95C273,119,252,50,231,0H26L87,214h69c0,0,23,0,23,14l-7,15c0,0,-15,27,-27,68c0,0,-11,41,-11,83c0,0,0,68,25,124c0,0,25,57,86,116H200c0,0,-45,0,-71,32c0,0,-27,33,-27,94c0,0,0,49,17,93c0,0,16,43,32,43c0,0,17,0,17,-10V869c0,0,0,-24,27,-24H637c0,0,73,0,103,-18c0,0,30,-17,46,-62c0,0,17,-46,24,-124c0,0,8,-78,8,-214V338c0,0,0,-279,-27,-311c0,0,-14,-16,-37,-28c0,0,-23,-13,-33,-13Z" 
id="f3_j"
transform="scale(0.001,-0.001)" />

<path d="M345,75c0,0,50,0,110,26V351l-63,-2c0,0,-72,-3,-100,-38c0,0,-28,-35,-28,-113c0,0,0,-63,22,-93c0,0,23,-30,59,-30ZM266,-14c0,0,-217,0,-217,208c0,0,0,79,32,126c0,0,32,48,93,71c0,0,60,22,190,25l91,2V521c0,0,0,126,-104,126c0,0,-62,0,-140,-39L183,521H134V691c0,0,112,17,165,21c0,0,53,5,108,5c0,0,264,0,264,-194V67L741,49V0H483L466,54C466,54,408,14,361,0c0,0,-47,-14,-95,-14Z" 
id="f3_b"
transform="scale(0.001,-0.001)" />

<path d="M438,65c0,0,131,0,131,293c0,0,0,279,-130,279c0,0,-69,0,-127,-29V80c0,0,60,-15,126,-15ZM20,-325v50l76,18V634L19,652v49H304l1,-36c0,0,80,55,194,55c0,0,146,0,218,-86c0,0,71,-86,71,-271c0,0,0,-183,-83,-280c0,0,-83,-97,-238,-97c0,0,-79,0,-160,19c0,0,5,-48,5,-109V-257l103,-18v-50Z" 
id="f3_k"
transform="scale(0.001,-0.001)" />

<path d="M41,0V49l91,18V634L41,652v49H336l8,-145c0,0,80,89,144,128c0,0,64,40,117,40h40V468H604l-45,94c0,0,-47,0,-106,-21c0,0,-60,-20,-105,-48V67L460,49V0Z" 
id="f3_9"
transform="scale(0.001,-0.001)" />

<path d="M425,-14c0,0,-187,0,-280,90c0,0,-93,90,-93,276c0,0,0,115,42,198c0,0,43,82,121,126c0,0,78,44,182,44c0,0,104,0,227,-26V486H571L539,609c0,0,-25,19,-50,26c0,0,-24,7,-65,7c0,0,-44,0,-79,-35c0,0,-36,-35,-56,-98c0,0,-20,-64,-20,-153c0,0,0,-150,47,-214c0,0,47,-64,148,-64c0,0,103,0,176,21V42C640,42,606,15,547,0c0,0,-59,-14,-122,-14Z" 
id="f3_l"
transform="scale(0.001,-0.001)" />

<path d="M327,-14c0,0,-101,0,-156,45c0,0,-55,45,-55,131V624H25v48l108,29l87,159H332V701H480V624H332V176c0,0,0,-49,20,-73c0,0,20,-25,53,-25c0,0,40,0,97,12V26c0,0,-22,-15,-76,-27c0,0,-55,-13,-99,-13Z" 
id="f3_m"
transform="scale(0.001,-0.001)" />

<path d="M34,0V49l76,18V634L38,652v49H325V67L402,49V0ZM217,831c0,0,-48,0,-81,33c0,0,-34,33,-34,82c0,0,0,48,34,81c0,0,34,33,81,33c0,0,48,0,81,-33c0,0,33,-33,33,-81c0,0,0,-47,-33,-81c0,0,-32,-34,-81,-34Z" 
id="f3_8"
transform="scale(0.001,-0.001)" />

<path d="M154,-13c0,0,-38,0,-85,9V198c0,0,58,-15,103,-15c0,0,84,0,118,60c0,0,35,61,35,206c0,0,0,66,-7,105c0,0,-6,39,-24,63c0,0,-17,25,-44,33c0,0,-27,8,-73,8H66V836H225c0,0,198,0,275,-115c0,0,56,-84,65,-264c0,0,3,-55,3,-148c0,0,0,-177,71,-309L393,1c0,0,-53,130,-54,141c0,0,-28,-90,-65,-123c0,0,-38,-32,-120,-32Z" 
id="f0_f"
transform="scale(0.001,-0.001)" />

<path d="M180,0V198H433V918L173,864v196l258,54H705V198H958V0Z" 
id="f0_m"
transform="scale(0.001,-0.001)" />

<path d="M179,0V190H336V0Zm0,600V790H336V600Z" 
id="f1_v"
transform="scale(0.001,-0.001)" />

<path d="M522,-20c0,0,-196,0,-290,99c0,0,-94,100,-94,324V836H276V397c0,0,0,-86,16,-147c0,0,17,-60,50,-94c0,0,34,-34,77,-49c0,0,43,-15,103,-15c0,0,59,0,102,15c0,0,44,15,77,49c0,0,33,34,50,94c0,0,17,61,17,147c0,0,0,84,-8,143c0,0,-7,58,-25,105c0,0,-17,47,-51,69c0,0,-33,23,-83,23c0,0,-50,0,-119,-22V821c0,0,85,23,150,23c0,0,76,0,130,-30c0,0,53,-31,85,-90c0,0,31,-59,45,-138c0,0,13,-78,13,-183c0,0,0,-224,-93,-324c0,0,-94,-99,-290,-99Z" 
id="f1_p"
transform="scale(0.001,-0.001)" />

<path d="M74,357V479H476V357Z" 
id="f1_16"
transform="scale(0.001,-0.001)" />

<path d="M55,0V40L184,60V941L55,960v40H455V960L327,941V60L455,40V0Z" 
id="f2_2"
transform="scale(0.001,-0.001)" />

<path d="M448,506c0,0,134,0,190,49c0,0,57,50,57,168c0,0,0,114,-56,162c0,0,-56,48,-195,48H316V506ZM777,0L496,438H316V60L468,40V0H54V40L172,60V941L44,960v40H476c0,0,188,0,277,-63c0,0,90,-64,90,-204c0,0,0,-100,-54,-173c0,0,-55,-73,-151,-101L909,60L1017,40V0Z" 
id="f2_3"
transform="scale(0.001,-0.001)" />

<path d="M44,0V40L172,60V941L44,960v40H794V760H745L721,922c0,0,-83,11,-241,11H316V543H586l23,119h48V354H609L586,475H316V67H513c0,0,193,0,252,12l43,185h49L843,0Z" 
id="f2_4"
transform="scale(0.001,-0.001)" />

<path d="M681,416L504,902L333,416ZM669,0V40L803,60L704,348H310L210,60L344,40V0H15V40L128,60l341,949H611L965,60L1092,40V0Z" 
id="f2_5"
transform="scale(0.001,-0.001)" />

<path d="M360,-14L72,649L0,668v33H327V668L216,648L420,164L615,649L504,668v33H764V668L697,652L416,-14Z" 
id="f2_6"
transform="scale(0.001,-0.001)" />

<path d="M399,-14c0,0,-341,0,-341,370c0,0,0,175,87,269c0,0,87,95,249,95c0,0,101,0,220,-23V501H573L541,625c0,0,-62,35,-149,35c0,0,-200,0,-200,-304c0,0,0,-158,61,-225c0,0,61,-67,189,-67c0,0,109,0,189,24V43C631,43,595,16,530,1c0,0,-64,-15,-131,-15Z" 
id="f2_8"
transform="scale(0.001,-0.001)" />

<path d="M434,423c0,0,0,101,-7,142c0,0,-6,40,-22,60c0,0,-16,19,-45,19c0,0,-44,0,-66,-48c0,0,-22,-49,-22,-173ZM389,-14c0,0,-172,0,-254,89c0,0,-83,90,-83,279c0,0,0,184,79,274c0,0,79,91,238,91c0,0,142,0,206,-76c0,0,64,-76,64,-237V345H271V333c0,0,0,-111,18,-158c0,0,18,-47,58,-72c0,0,40,-25,110,-25c0,0,66,0,166,22V42C623,42,582,18,517,1c0,0,-66,-15,-128,-15Z" 
id="f3_a"
transform="scale(0.001,-0.001)" />

<path d="M148,-329c0,0,-58,0,-114,13v151H69l24,-71c0,0,23,-17,64,-17c0,0,39,0,72,22c0,0,33,23,60,67c0,0,27,44,68,157L90,649L19,668v33H344V668L233,648L423,158L606,649L497,668v33H758V668L685,652L411,-43c0,0,-48,-124,-84,-177c0,0,-36,-54,-79,-82c0,0,-44,-27,-100,-27Z" 
id="f2_c"
transform="scale(0.001,-0.001)" />

<path d="M278,-14c0,0,-52,0,-115,11c0,0,-63,10,-99,23V193H98L134,95c0,0,56,-50,146,-50c0,0,144,0,144,123c0,0,0,91,-114,130l-66,21c0,0,-75,25,-110,50c0,0,-34,26,-53,63c0,0,-18,36,-18,89c0,0,0,92,63,145c0,0,63,54,170,54c0,0,77,0,193,-23V544H454l-32,81c0,0,-39,35,-124,35c0,0,-61,0,-92,-30c0,0,-32,-30,-32,-80c0,0,0,-43,29,-72c0,0,28,-29,86,-48c0,0,110,-38,144,-55c0,0,33,-17,57,-42c0,0,23,-25,36,-57c0,0,13,-32,13,-79c0,0,0,-104,-66,-158c0,0,-66,-53,-195,-53Z" 
id="f2_q"
transform="scale(0.001,-0.001)" />

<path d="M249,-14c0,0,-71,0,-107,42c0,0,-35,42,-35,119V639H15v33l93,29l76,159h47V701H391V639H231V161c0,0,0,-48,22,-73c0,0,22,-24,57,-24c0,0,44,0,106,12V26C416,26,389,8,340,-2c0,0,-49,-12,-91,-12Z" 
id="f2_d"
transform="scale(0.001,-0.001)" />

<path d="M289,-14c0,0,-179,0,-179,205V649L20,668v33H233V200c0,0,0,-128,120,-128c0,0,92,0,173,23V649L420,668v33H649V52L738,34V0H533l-6,57C527,57,474,28,405,6c0,0,-69,-20,-116,-20Zm24,849v24l147,203H618v-27L354,835Z" 
id="f2_e"
transform="scale(0.001,-0.001)" />

<path d="M495,413c0,0,0,133,-34,190c0,0,-34,57,-105,57c0,0,-78,0,-119,-62c0,0,-42,-63,-42,-185ZM374,-14c0,0,-163,0,-239,87c0,0,-75,88,-75,283c0,0,0,183,77,274c0,0,76,90,219,90c0,0,269,0,269,-306V353H194V339c0,0,0,-103,23,-160c0,0,22,-57,70,-86c0,0,47,-30,124,-30c0,0,40,0,96,6c0,0,55,7,91,15V43C598,43,562,19,500,2c0,0,-61,-16,-126,-16ZM285,835v24l146,203H590v-27L326,835Z" 
id="f2_h"
transform="scale(0.001,-0.001)" />

<path d="M31,0V33L150,52v956L31,1026v34H274V52L394,33V0Z" 
id="f2_j"
transform="scale(0.001,-0.001)" />

<path d="M0,-14L351,1007h73L75,-14Z" 
id="f2_k"
transform="scale(0.001,-0.001)" />

<path d="M557,-14c0,0,-199,0,-298,89c0,0,-99,90,-99,255V941L32,960v40H432V960L304,941V341c0,0,0,-273,264,-273c0,0,144,0,220,68c0,0,77,68,77,202V941L730,960v40h341V960L943,941V344c0,0,0,-180,-99,-269c0,0,-99,-89,-287,-89Z" 
id="f2_m"
transform="scale(0.001,-0.001)" />

<path d="M383,64c0,0,85,0,152,28V645c0,0,-67,13,-152,13c0,0,-194,0,-194,-314c0,0,0,-141,48,-211c0,0,48,-69,146,-69ZM342,-14c0,0,-287,0,-287,358c0,0,0,184,82,280c0,0,81,96,239,96c0,0,81,0,163,-18c0,0,-4,25,-4,124v182l-118,18v34H659V52L745,33V0H548l-9,52c0,0,-84,-66,-197,-66Z" 
id="f2_n"
transform="scale(0.001,-0.001)" />

<path d="M191,-20c0,0,-39,0,-65,25c0,0,-25,27,-25,64c0,0,0,38,26,64c0,0,26,26,64,26c0,0,38,0,64,-26c0,0,26,-26,26,-64c0,0,0,-37,-25,-64c0,0,-26,-25,-65,-25Z" 
id="f2_o"
transform="scale(0.001,-0.001)" />

<path d="M439,0V33l93,19V500c0,0,0,62,-30,97c0,0,-31,36,-94,36c0,0,-67,0,-165,-22V52L338,33V0H35V33l84,19V649L35,668v33H235l7,-57c0,0,57,33,122,54c0,0,65,22,108,22c0,0,91,0,137,-53c0,0,47,-53,47,-154V52L741,33V0Z" 
id="f2_p"
transform="scale(0.001,-0.001)" />

<path d="M190,0V127H436V977L168,923v137l267,54H586V127H832V0Z" 
id="f1_z"
transform="scale(0.001,-0.001)" />

<path d="M121,0V211L528,570c0,0,54,50,80,96c0,0,27,47,27,98c0,0,0,78,-53,126c0,0,-53,48,-140,48c0,0,-67,0,-147,-29c0,0,-80,-28,-171,-85v245c0,0,97,32,192,48c0,0,95,17,186,17c0,0,199,0,310,-88c0,0,111,-88,111,-245c0,0,0,-91,-47,-170c0,0,-47,-79,-197,-211L441,211H931V0Z" 
id="f0_n"
transform="scale(0.001,-0.001)" />

<path d="M540,92c0,0,246,0,311,333c0,0,17,87,12,146c0,0,-6,58,-35,91c0,0,-29,33,-74,46c0,0,-45,13,-112,13H416L357,419C357,419,294,92,540,92ZM518,-21c0,0,-193,0,-267,109c0,0,-74,110,-30,337l80,411H664c0,0,213,0,290,-94c0,0,78,-93,35,-317C989,425,945,198,828,88C828,88,711,-21,518,-21Z" 
id="f4_2"
transform="scale(0.001,-0.001)" />

<path d="M66,0L87,107H354l86,447c0,0,18,92,-11,133c0,0,-29,42,-108,42H227l21,107h94c0,0,153,0,209,-67c0,0,57,-66,25,-230L471,0Z" 
id="f4_3"
transform="scale(0.001,-0.001)" />

<path d="M66,0L87,106H343c0,0,75,0,132,23c0,0,57,23,94,67c0,0,37,43,61,98c0,0,23,54,37,124c0,0,13,70,11,124c0,0,-2,54,-23,98c0,0,-20,43,-68,66c0,0,-48,24,-123,24H207l21,106H485c0,0,87,0,152,-24c0,0,65,-24,102,-64c0,0,37,-40,56,-95c0,0,20,-54,21,-113c0,0,2,-58,-11,-122c0,0,-13,-64,-37,-123c0,0,-24,-59,-64,-113c0,0,-41,-54,-93,-94C611,88,558,48,484,24C484,24,410,0,322,0Z" 
id="f4_4"
transform="scale(0.001,-0.001)" />

<path d="M162,312L264,836H403L312,369L162,312Z" 
id="f4_5"
transform="scale(0.001,-0.001)" />

<path d="M154,0l88,454l150,56L292,0ZM721,0l88,454c0,0,32,161,-5,218c0,0,-37,57,-176,57H280l21,107H648c0,0,206,0,272,-94c0,0,65,-93,22,-317L859,0Z" 
id="f4_6"
transform="scale(0.001,-0.001)" />

<path d="M287,0L730,729H207l75,385H421L368,836l547,-1L896,753L433,0Z" 
id="f4_7"
transform="scale(0.001,-0.001)" />

<path d="M188,355c0,0,148,11,236,69c0,0,89,58,89,143c0,0,0,41,-23,68c0,0,-22,27,-66,27c0,0,-52,0,-101,-43c0,0,-49,-42,-85,-114c0,0,-36,-71,-50,-150ZM298,-14c0,0,-120,0,-186,67c0,0,-65,67,-65,193c0,0,0,125,53,232c0,0,52,108,145,175c0,0,94,67,196,67c0,0,92,0,147,-42c0,0,56,-43,56,-111c0,0,0,-102,-126,-173c0,0,-125,-72,-336,-86l-3,-54c0,0,0,-95,40,-143c0,0,40,-47,118,-47c0,0,67,0,124,22c0,0,57,23,106,52l22,-32c0,0,-69,-58,-146,-89c0,0,-76,-31,-145,-31Z" 
id="f5_2"
transform="scale(0.001,-0.001)" />

<path d="M54,0L169,649L81,668l6,33H294L274,558c0,0,62,81,130,121c0,0,67,41,132,41c0,0,75,0,113,-41c0,0,38,-41,38,-117c0,0,0,-10,-3,-32c0,0,-3,-21,-81,-478L700,34L695,0H470l76,434c0,0,17,94,17,123c0,0,0,34,-18,55c0,0,-18,21,-56,21c0,0,-56,0,-121,-47c0,0,-65,-47,-108,-117L178,0Z" 
id="f5_3"
transform="scale(0.001,-0.001)" />

<path d="M200,-14c0,0,-59,0,-93,35c0,0,-34,36,-34,100c0,0,0,22,4,51c0,0,4,30,82,467H67l6,33l99,29L275,860h47L295,701H455L443,639H283L210,230c0,0,-13,-69,-13,-99c0,0,0,-34,17,-51c0,0,17,-16,43,-16c0,0,54,0,113,21L386,50c0,0,-92,-64,-186,-64Z" 
id="f5_4"
transform="scale(0.001,-0.001)" />

<path d="M62,0L176,649L88,668l6,33H301L278,543c0,0,55,84,124,130c0,0,69,47,138,47c0,0,37,0,59,-6L566,530H534l-28,95c0,0,-60,0,-124,-46c0,0,-63,-45,-116,-120L186,0Z" 
id="f5_5"
transform="scale(0.001,-0.001)" />

<path d="M301,78c0,0,85,0,185,104l81,442c0,0,-29,20,-55,28c0,0,-25,8,-62,8c0,0,-75,0,-137,-56c0,0,-62,-56,-98,-152c0,0,-36,-95,-36,-199c0,0,0,-79,33,-127c0,0,33,-48,89,-48ZM245,-14c0,0,-90,0,-145,66c0,0,-54,66,-54,182c0,0,0,131,57,244c0,0,57,114,152,178c0,0,96,64,208,64c0,0,90,0,170,-33l33,26h40L589,52L673,33L667,0H454l22,117C476,117,350,-14,245,-14Z" 
id="f5_6"
transform="scale(0.001,-0.001)" />

<path d="M111,0V127c0,0,86,89,234,238c0,0,148,150,186,193c0,0,73,81,101,138c0,0,29,56,29,110c0,0,0,89,-62,145c0,0,-62,56,-162,56c0,0,-71,0,-150,-25c0,0,-78,-24,-168,-75v153c0,0,91,37,170,55c0,0,79,19,145,19c0,0,173,0,276,-86c0,0,103,-87,103,-232c0,0,0,-68,-26,-130c0,0,-26,-61,-94,-145c0,0,-18,-22,-118,-125C575,416,475,313,293,127H818V0Z" 
id="f1_10"
transform="scale(0.001,-0.001)" />

<path d="M414,-20c0,0,-70,0,-144,13c0,0,-75,13,-154,40V179c0,0,63,-36,138,-55c0,0,74,-18,156,-18c0,0,142,0,216,55c0,0,74,56,74,163c0,0,0,98,-69,153c0,0,-69,56,-192,56H309V657H445c0,0,111,0,170,44c0,0,59,45,59,128c0,0,0,86,-61,132c0,0,-61,46,-174,46c0,0,-62,0,-133,-13c0,0,-71,-14,-156,-42v134c0,0,85,24,160,36c0,0,75,12,142,12c0,0,171,0,271,-78c0,0,100,-78,100,-211c0,0,0,-92,-53,-156c0,0,-52,-64,-150,-89c0,0,108,-23,169,-96c0,0,61,-73,61,-180c0,0,0,-165,-114,-255c0,0,-113,-89,-322,-89Z" 
id="f1_11"
transform="scale(0.001,-0.001)" />


</defs>
</svg>