<?xml version="1.0" encoding="UTF-8" standalone="no"?>
<!DOCTYPE svg PUBLIC "-//W3C//DTD SVG 1.1//EN"
"http://www.w3.org/Graphics/SVG/1.1/DTD/svg11.dtd">
<svg viewBox="0 0 909 1286" version="1.1" xmlns="http://www.w3.org/2000/svg" xmlns:xlink="http://www.w3.org/1999/xlink">
<defs>
<style type="text/css"><![CDATA[
.g0_12{
fill: none;
stroke: #000000;
stroke-width: 0.7638889;
stroke-linecap: butt;
stroke-linejoin: round;
}
.g1_12{
fill: none;
stroke: #0000FF;
stroke-width: 1.0694444;
stroke-linecap: butt;
stroke-linejoin: miter;
}
]]></style>
</defs>
<path d="M120.6,110.4H772.4M120.6,132.5H772.4M120.6,176.1H772.4M120.6,198.2H772.4M120.6,220.4H772.4M120.6,242.5H772.4M121,110V242.9M446.6,110V242.9M772,110V242.9" class="g0_12" />
<path d="M669.8,281.1H772.1M669.8,641.5H772.1" class="g1_12" />
<path d="M120.6,706.4H772.4M120.6,728.5H772.4M120.6,777.6H772.4M120.6,821.1H772.4M120.6,864.6H772.4M120.6,908.2H772.4M120.6,951.7H772.4M120.6,973.9H772.4m-651.8,43.5H772.4m-651.8,22.2H772.4m-651.8,43.5H772.4m-651.8,43.6H772.4m-651.8,43.5H772.4M121,706v464.6M446.6,706v464.6M772,706v464.6" class="g0_12" />
<image preserveAspectRatio="none" x="119" y="299" width="58" height="50" xlink:href="img/1.png" />
</svg>