<?xml version="1.0" encoding="UTF-8" standalone="no"?>
<!DOCTYPE svg PUBLIC "-//W3C//DTD SVG 1.1//EN"
"http://www.w3.org/Graphics/SVG/1.1/DTD/svg11.dtd">
<svg viewBox="0 0 909 1286" version="1.1" xmlns="http://www.w3.org/2000/svg" xmlns:xlink="http://www.w3.org/1999/xlink">
<defs>
<clipPath id="c0_17"><path d="M0,1286.2V0H909.4V1286.2Z" /></clipPath>
</defs>
<g clip-path="url(#c0_17)">
<g fill="#000000" >
<use xlink:href="#f0_29" transform="matrix(16,0,0,16,670.4,151.3)" />
<use xlink:href="#f0_e" transform="matrix(16,0,0,16,682.9,151.3)" />
<use xlink:href="#f0_1e" transform="matrix(16,0,0,16,689.6,151.3)" />
<use xlink:href="#f0_z" transform="matrix(16,0,0,16,697.8,151.3)" />
<use xlink:href="#f0_16" transform="matrix(16,0,0,16,710,151.3)" />
<use xlink:href="#f0_6" transform="matrix(16,0,0,16,724.8,151.3)" />
<use xlink:href="#f0_f" transform="matrix(16,0,0,16,743.1,151.3)" />
<use xlink:href="#f0_16" transform="matrix(16,0,0,16,757.5,151.3)" />
<use xlink:href="#f1_9" transform="matrix(12,0,0,12,138.1,173.6)" />
<use xlink:href="#f1_f" transform="matrix(12,0,0,12,150,173.6)" />
<use xlink:href="#f1_c" transform="matrix(12,0,0,12,160.6,173.6)" />
<use xlink:href="#f1_a" transform="matrix(12,0,0,12,165.5,173.6)" />
<use xlink:href="#f1_8" transform="matrix(12,0,0,12,175.8,173.6)" />
<use xlink:href="#f1_9" transform="matrix(12,0,0,12,195.7,173.6)" />
<use xlink:href="#f1_i" transform="matrix(12,0,0,12,207.6,173.6)" />
<use xlink:href="#f1_d" transform="matrix(12,0,0,12,217.2,173.6)" />
<use xlink:href="#f1_3" transform="matrix(12,0,0,12,229.4,173.6)" />
<use xlink:href="#f1_8" transform="matrix(12,0,0,12,239.7,173.6)" />
<use xlink:href="#f1_7" transform="matrix(12,0,0,12,259.3,173.6)" />
<use xlink:href="#f1_9" transform="matrix(12,0,0,12,263.4,173.6)" />
<use xlink:href="#f1_c" transform="matrix(12,0,0,12,275.4,173.6)" />
<use xlink:href="#f1_o" transform="matrix(12,0,0,12,280.4,173.6)" />
<use xlink:href="#f1_s" transform="matrix(12,0,0,12,293.9,173.6)" />
<use xlink:href="#f1_6" transform="matrix(12,0,0,12,299.7,173.6)" />
<use xlink:href="#f1_7" transform="matrix(12,0,0,12,311.9,173.6)" />
<use xlink:href="#f1_k" transform="matrix(12,0,0,12,316.1,173.6)" />
<use xlink:href="#f1_7" transform="matrix(12,0,0,12,323.5,173.6)" />
<use xlink:href="#f1_a" transform="matrix(12,0,0,12,327.6,173.6)" />
<use xlink:href="#f1_g" transform="matrix(12,0,0,12,338,173.6)" />
<use xlink:href="#f1_9" transform="matrix(12,0,0,12,349.9,173.6)" />
<use xlink:href="#f1_e" transform="matrix(12,0,0,12,368.8,173.6)" />
<use xlink:href="#f1_4" transform="matrix(12,0,0,12,380.9,173.6)" />
<use xlink:href="#f1_4" transform="matrix(12,0,0,12,393.9,173.6)" />
<use xlink:href="#f1_3" transform="matrix(12,0,0,12,414,173.6)" />
<use xlink:href="#f1_3" transform="matrix(12,0,0,12,424.4,173.6)" />
<use xlink:href="#f1_c" transform="matrix(12,0,0,12,434.8,173.6)" />
<use xlink:href="#f1_i" transform="matrix(12,0,0,12,439.8,173.6)" />
<use xlink:href="#f1_9" transform="matrix(12,0,0,12,456.7,173.6)" />
<use xlink:href="#f1_c" transform="matrix(12,0,0,12,468.6,173.6)" />
<use xlink:href="#f1_9" transform="matrix(12,0,0,12,473.7,173.6)" />
<use xlink:href="#f1_9" transform="matrix(12,0,0,12,485.6,173.6)" />
<use xlink:href="#f1_h" transform="matrix(12,0,0,12,504.6,173.6)" />
<use xlink:href="#f1_8" transform="matrix(12,0,0,12,509.5,173.6)" />
<use xlink:href="#f1_o" transform="matrix(12,0,0,12,522,173.6)" />
<use xlink:href="#f1_f" transform="matrix(12,0,0,12,528.4,173.6)" />
<use xlink:href="#f1_6" transform="matrix(12,0,0,12,546,173.6)" />
<use xlink:href="#f1_7" transform="matrix(12,0,0,12,558.2,173.6)" />
<use xlink:href="#f1_3" transform="matrix(12,0,0,12,562.3,173.6)" />
<use xlink:href="#f1_l" transform="matrix(12,0,0,12,572.7,173.6)" />
<use xlink:href="#f1_m" transform="matrix(12,0,0,12,584.1,173.6)" />
<use xlink:href="#f1_9" transform="matrix(12,0,0,12,595.6,173.6)" />
<use xlink:href="#f1_3" transform="matrix(12,0,0,12,614.8,173.6)" />
<use xlink:href="#f1_i" transform="matrix(12,0,0,12,625.2,173.6)" />
<use xlink:href="#f1_e" transform="matrix(12,0,0,12,641.8,173.6)" />
<use xlink:href="#f1_d" transform="matrix(12,0,0,12,653.8,173.6)" />
<use xlink:href="#f1_a" transform="matrix(12,0,0,12,673.4,173.6)" />
<use xlink:href="#f1_7" transform="matrix(12,0,0,12,683.7,173.6)" />
<use xlink:href="#f1_i" transform="matrix(12,0,0,12,687.8,173.6)" />
<use xlink:href="#f1_9" transform="matrix(12,0,0,12,697.5,173.6)" />
<use xlink:href="#f1_3" transform="matrix(12,0,0,12,709.4,173.6)" />
<use xlink:href="#f1_e" transform="matrix(12,0,0,12,726.8,173.6)" />
<use xlink:href="#f1_8" transform="matrix(12,0,0,12,738.8,173.6)" />
<use xlink:href="#f1_7" transform="matrix(12,0,0,12,751.3,173.6)" />
<use xlink:href="#f1_7" transform="matrix(12,0,0,12,755.4,173.6)" />
<use xlink:href="#f1_t" transform="matrix(12,0,0,12,759.4,173.6)" />
<use xlink:href="#f1_j" transform="matrix(12,0,0,12,138,194.9)" />
<use xlink:href="#f1_9" transform="matrix(12,0,0,12,143.8,194.9)" />
<use xlink:href="#f1_b" transform="matrix(12,0,0,12,155.7,194.9)" />
<use xlink:href="#f1_a" transform="matrix(12,0,0,12,166.5,194.9)" />
<use xlink:href="#f1_e" transform="matrix(12,0,0,12,176.9,194.9)" />
<use xlink:href="#f1_4" transform="matrix(12,0,0,12,189,194.9)" />
<use xlink:href="#f1_w" transform="matrix(12,0,0,12,211.5,194.9)" />
<use xlink:href="#f1_m" transform="matrix(12,0,0,12,223.4,194.9)" />
<use xlink:href="#f1_4" transform="matrix(12,0,0,12,234.9,194.9)" />
<use xlink:href="#f1_8" transform="matrix(12,0,0,12,247.7,194.9)" />
<use xlink:href="#f1_3" transform="matrix(12,0,0,12,270.1,194.9)" />
<use xlink:href="#f1_i" transform="matrix(12,0,0,12,280.5,194.9)" />
<use xlink:href="#f1_e" transform="matrix(12,0,0,12,299.8,194.9)" />
<use xlink:href="#f1_c" transform="matrix(12,0,0,12,311.8,194.9)" />
<use xlink:href="#f1_7" transform="matrix(12,0,0,12,316.8,194.9)" />
<use xlink:href="#f1_c" transform="matrix(12,0,0,12,320.9,194.9)" />
<use xlink:href="#f1_l" transform="matrix(12,0,0,12,325.8,194.9)" />
<use xlink:href="#f1_w" transform="matrix(12,0,0,12,337.3,194.9)" />
<use xlink:href="#f1_d" transform="matrix(12,0,0,12,359.1,194.9)" />
<use xlink:href="#f1_3" transform="matrix(12,0,0,12,371.3,194.9)" />
<use xlink:href="#f1_3" transform="matrix(12,0,0,12,381.7,194.9)" />
<use xlink:href="#f1_a" transform="matrix(12,0,0,12,401.7,194.9)" />
<use xlink:href="#f1_8" transform="matrix(12,0,0,12,412.1,194.9)" />
<use xlink:href="#f1_d" transform="matrix(12,0,0,12,424.6,194.9)" />
<use xlink:href="#f1_e" transform="matrix(12,0,0,12,436.8,194.9)" />
<use xlink:href="#f1_4" transform="matrix(12,0,0,12,448.8,194.9)" />
<use xlink:href="#f1_q" transform="matrix(12,0,0,12,471.4,194.9)" />
<use xlink:href="#f1_l" transform="matrix(12,0,0,12,481.5,194.9)" />
<use xlink:href="#f1_f" transform="matrix(12,0,0,12,502.7,194.9)" />
<use xlink:href="#f1_a" transform="matrix(12,0,0,12,513.2,194.9)" />
<use xlink:href="#f1_3" transform="matrix(12,0,0,12,533.4,194.9)" />
<use xlink:href="#f1_c" transform="matrix(12,0,0,12,543.7,194.9)" />
<use xlink:href="#f1_k" transform="matrix(12,0,0,12,548.8,194.9)" />
<use xlink:href="#f1_a" transform="matrix(12,0,0,12,556.3,194.9)" />
<use xlink:href="#f1_e" transform="matrix(12,0,0,12,566.5,194.9)" />
<use xlink:href="#f1_q" transform="matrix(12,0,0,12,588.3,194.9)" />
<use xlink:href="#f1_c" transform="matrix(12,0,0,12,598.2,194.9)" />
<use xlink:href="#f1_l" transform="matrix(12,0,0,12,603.3,194.9)" />
<use xlink:href="#f1_4" transform="matrix(12,0,0,12,624.5,194.9)" />
<use xlink:href="#f1_a" transform="matrix(12,0,0,12,637.4,194.9)" />
<use xlink:href="#f1_q" transform="matrix(12,0,0,12,647.7,194.9)" />
<use xlink:href="#f1_7" transform="matrix(12,0,0,12,657.7,194.9)" />
<use xlink:href="#f1_7" transform="matrix(12,0,0,12,661.8,194.9)" />
<use xlink:href="#f1_7" transform="matrix(12,0,0,12,675.7,194.9)" />
<use xlink:href="#f1_i" transform="matrix(12,0,0,12,679.8,194.9)" />
<use xlink:href="#f1_p" transform="matrix(12,0,0,12,699,194.9)" />
<use xlink:href="#f1_m" transform="matrix(12,0,0,12,712,194.9)" />
<use xlink:href="#f1_t" transform="matrix(12,0,0,12,723.4,194.9)" />
<use xlink:href="#f1_h" transform="matrix(12,0,0,12,745.1,194.9)" />
<use xlink:href="#f1_7" transform="matrix(12,0,0,12,750,194.9)" />
<use xlink:href="#f1_d" transform="matrix(12,0,0,12,754.1,194.9)" />
<use xlink:href="#f1_c" transform="matrix(12,0,0,12,766.3,194.9)" />
<use xlink:href="#f1_6" transform="matrix(12,0,0,12,137.8,216.3)" />
<use xlink:href="#f1_7" transform="matrix(12,0,0,12,150,216.3)" />
<use xlink:href="#f1_3" transform="matrix(12,0,0,12,154.1,216.3)" />
<use xlink:href="#f1_l" transform="matrix(12,0,0,12,164.5,216.3)" />
<use xlink:href="#f1_m" transform="matrix(12,0,0,12,176,216.3)" />
<use xlink:href="#f1_9" transform="matrix(12,0,0,12,187.4,216.3)" />
<use xlink:href="#f1_e" transform="matrix(12,0,0,12,207.1,216.3)" />
<use xlink:href="#f1_d" transform="matrix(12,0,0,12,219.1,216.3)" />
<use xlink:href="#f1_a" transform="matrix(12,0,0,12,239.1,216.3)" />
<use xlink:href="#f1_c" transform="matrix(12,0,0,12,249.5,216.3)" />
<use xlink:href="#f1_i" transform="matrix(12,0,0,12,254.5,216.3)" />
<use xlink:href="#f1_o" transform="matrix(12,0,0,12,264.1,216.3)" />
<use xlink:href="#f1_3" transform="matrix(12,0,0,12,270.4,216.3)" />
<use xlink:href="#f1_7" transform="matrix(12,0,0,12,288.6,216.3)" />
<use xlink:href="#f1_q" transform="matrix(12,0,0,12,292.7,216.3)" />
<use xlink:href="#f1_i" transform="matrix(12,0,0,12,302.7,216.3)" />
<use xlink:href="#f1_6" transform="matrix(12,0,0,12,320.1,216.3)" />
<use xlink:href="#f1_9" transform="matrix(12,0,0,12,332.3,216.3)" />
<use xlink:href="#f1_7" transform="matrix(12,0,0,12,344.2,216.3)" />
<use xlink:href="#f1_3" transform="matrix(12,0,0,12,348.3,216.3)" />
<use xlink:href="#f1_l" transform="matrix(12,0,0,12,358.7,216.3)" />
<use xlink:href="#f1_a" transform="matrix(12,0,0,12,377.8,216.3)" />
<use xlink:href="#f1_c" transform="matrix(12,0,0,12,388.2,216.3)" />
<use xlink:href="#f1_o" transform="matrix(12,0,0,12,393.2,216.3)" />
<use xlink:href="#f1_g" transform="matrix(12,0,0,12,399.6,216.3)" />
<use xlink:href="#f1_3" transform="matrix(12,0,0,12,411.5,216.3)" />
<use xlink:href="#f1_4" transform="matrix(12,0,0,12,429.7,216.3)" />
<use xlink:href="#f1_7" transform="matrix(12,0,0,12,442.7,216.3)" />
<use xlink:href="#f1_c" transform="matrix(12,0,0,12,446.6,216.3)" />
<use xlink:href="#f1_6" transform="matrix(12,0,0,12,459.4,216.3)" />
<use xlink:href="#f1_7" transform="matrix(12,0,0,12,471.5,216.3)" />
<use xlink:href="#f1_f" transform="matrix(12,0,0,12,475.6,216.3)" />
<use xlink:href="#f1_a" transform="matrix(12,0,0,12,486.1,216.3)" />
<use xlink:href="#f1_6" transform="matrix(12,0,0,12,504.3,216.3)" />
<use xlink:href="#f1_7" transform="matrix(12,0,0,12,516.5,216.3)" />
<use xlink:href="#f1_4" transform="matrix(12,0,0,12,520.6,216.3)" />
<use xlink:href="#f1_q" transform="matrix(12,0,0,12,533.6,216.3)" />
<use xlink:href="#f1_g" transform="matrix(12,0,0,12,543.7,216.3)" />
<use xlink:href="#f1_6" transform="matrix(12,0,0,12,563.2,216.3)" />
<use xlink:href="#f1_7" transform="matrix(12,0,0,12,575.4,216.3)" />
<use xlink:href="#f1_3" transform="matrix(12,0,0,12,579.5,216.3)" />
<use xlink:href="#f1_l" transform="matrix(12,0,0,12,589.9,216.3)" />
<use xlink:href="#f1_m" transform="matrix(12,0,0,12,601.3,216.3)" />
<use xlink:href="#f1_6" transform="matrix(12,0,0,12,620.6,216.3)" />
<use xlink:href="#f1_k" transform="matrix(12,0,0,12,632.8,216.3)" />
<use xlink:href="#f1_c" transform="matrix(12,0,0,12,648,216.3)" />
<use xlink:href="#f1_n" transform="matrix(12,0,0,12,653,216.3)" />
<use xlink:href="#f1_a" transform="matrix(12,0,0,12,660.4,216.3)" />
<use xlink:href="#f1_i" transform="matrix(12,0,0,12,670.7,216.3)" />
<use xlink:href="#f1_9" transform="matrix(12,0,0,12,680.4,216.3)" />
<use xlink:href="#f1_9" transform="matrix(12,0,0,12,699.9,216.3)" />
<use xlink:href="#f1_o" transform="matrix(12,0,0,12,711.8,216.3)" />
<use xlink:href="#f1_p" transform="matrix(12,0,0,12,726,216.3)" />
<use xlink:href="#f1_a" transform="matrix(12,0,0,12,739,216.3)" />
<use xlink:href="#f1_m" transform="matrix(12,0,0,12,749.3,216.3)" />
<use xlink:href="#f1_f" transform="matrix(12,0,0,12,760.8,216.3)" />
<use xlink:href="#f1_j" transform="matrix(12,0,0,12,705.1,237.7)" />
<use xlink:href="#f1_6" transform="matrix(12,0,0,12,710.9,237.7)" />
<use xlink:href="#f1_e" transform="matrix(12,0,0,12,723.1,237.7)" />
<use xlink:href="#f1_7" transform="matrix(12,0,0,12,735.1,237.7)" />
<use xlink:href="#f1_7" transform="matrix(12,0,0,12,739.1,237.7)" />
<use xlink:href="#f1_w" transform="matrix(12,0,0,12,743.2,237.7)" />
<use xlink:href="#f1_9" transform="matrix(12,0,0,12,755.1,237.7)" />
<use xlink:href="#f1_c" transform="matrix(12,0,0,12,767,237.7)" />
<use xlink:href="#f1_6" transform="matrix(12,0,0,12,138.3,278.4)" />
<use xlink:href="#f1_d" transform="matrix(12,0,0,12,150.5,278.4)" />
<use xlink:href="#f1_6" transform="matrix(12,0,0,12,170,278.4)" />
<use xlink:href="#f1_k" transform="matrix(12,0,0,12,182.2,278.4)" />
<use xlink:href="#f1_c" transform="matrix(12,0,0,12,189.7,278.4)" />
<use xlink:href="#f1_9" transform="matrix(12,0,0,12,202,278.4)" />
<use xlink:href="#f1_m" transform="matrix(12,0,0,12,213.9,278.4)" />
<use xlink:href="#f1_4" transform="matrix(12,0,0,12,225.4,278.4)" />
<use xlink:href="#f1_9" transform="matrix(12,0,0,12,238.4,278.4)" />
<use xlink:href="#f1_6" transform="matrix(12,0,0,12,257.6,278.4)" />
<use xlink:href="#f1_l" transform="matrix(12,0,0,12,269.8,278.4)" />
<use xlink:href="#f1_f" transform="matrix(12,0,0,12,288.5,278.4)" />
<use xlink:href="#f1_w" transform="matrix(12,0,0,12,299.1,278.4)" />
<use xlink:href="#f1_7" transform="matrix(12,0,0,12,311,278.4)" />
<use xlink:href="#f1_9" transform="matrix(12,0,0,12,315.1,278.4)" />
<use xlink:href="#f1_q" transform="matrix(12,0,0,12,334.2,278.4)" />
<use xlink:href="#f1_q" transform="matrix(12,0,0,12,344.2,278.4)" />
<use xlink:href="#f1_c" transform="matrix(12,0,0,12,354.2,278.4)" />
<use xlink:href="#f1_8" transform="matrix(12,0,0,12,359.2,278.4)" />
<use xlink:href="#f1_e" transform="matrix(12,0,0,12,371.6,278.4)" />
<use xlink:href="#f1_8" transform="matrix(12,0,0,12,383.6,278.4)" />
<use xlink:href="#f1_a" transform="matrix(12,0,0,12,403.4,278.4)" />
<use xlink:href="#f1_f" transform="matrix(12,0,0,12,413.8,278.4)" />
<use xlink:href="#f1_i" transform="matrix(12,0,0,12,424.3,278.4)" />
<use xlink:href="#f1_9" transform="matrix(12,0,0,12,441.3,278.4)" />
<use xlink:href="#f1_e" transform="matrix(12,0,0,12,453.2,278.4)" />
<use xlink:href="#f1_d" transform="matrix(12,0,0,12,465.2,278.4)" />
<use xlink:href="#f1_s" transform="matrix(12,0,0,12,484.7,278.4)" />
<use xlink:href="#f1_p" transform="matrix(12,0,0,12,490.6,278.4)" />
<use xlink:href="#f1_a" transform="matrix(12,0,0,12,503.5,278.4)" />
<use xlink:href="#f1_m" transform="matrix(12,0,0,12,513.9,278.4)" />
<use xlink:href="#f1_f" transform="matrix(12,0,0,12,525.4,278.4)" />
<use xlink:href="#f1_4" transform="matrix(12,0,0,12,535.9,278.4)" />
<use xlink:href="#f1_9" transform="matrix(12,0,0,12,556.3,278.4)" />
<use xlink:href="#f1_d" transform="matrix(12,0,0,12,568.2,278.4)" />
<use xlink:href="#f1_7" transform="matrix(12,0,0,12,580.5,278.4)" />
<use xlink:href="#f1_a" transform="matrix(12,0,0,12,584.6,278.4)" />
<use xlink:href="#f1_p" transform="matrix(12,0,0,12,594.9,278.4)" />
<use xlink:href="#f1_9" transform="matrix(12,0,0,12,607.9,278.4)" />
<use xlink:href="#f1_7" transform="matrix(12,0,0,12,627.1,278.4)" />
<use xlink:href="#f1_l" transform="matrix(12,0,0,12,631.2,278.4)" />
<use xlink:href="#f1_w" transform="matrix(12,0,0,12,642.7,278.4)" />
<use xlink:href="#f1_p" transform="matrix(12,0,0,12,654.5,278.4)" />
<use xlink:href="#f1_8" transform="matrix(12,0,0,12,667.5,278.4)" />
<use xlink:href="#f1_e" transform="matrix(12,0,0,12,687.3,278.4)" />
<use xlink:href="#f1_7" transform="matrix(12,0,0,12,699.3,278.4)" />
<use xlink:href="#f1_d" transform="matrix(12,0,0,12,703.4,278.4)" />
<use xlink:href="#f1_a" transform="matrix(12,0,0,12,715.7,278.4)" />
<use xlink:href="#f1_4" transform="matrix(12,0,0,12,725.9,278.4)" />
<use xlink:href="#f1_7" transform="matrix(12,0,0,12,746.2,278.4)" />
<use xlink:href="#f1_m" transform="matrix(12,0,0,12,750.3,278.4)" />
<use xlink:href="#f1_i" transform="matrix(12,0,0,12,761.7,278.4)" />
<use xlink:href="#f1_3" transform="matrix(12,0,0,12,137.8,299.8)" />
<use xlink:href="#f1_i" transform="matrix(12,0,0,12,148.2,299.8)" />
<use xlink:href="#f1_3" transform="matrix(12,0,0,12,167.7,299.8)" />
<use xlink:href="#f1_l" transform="matrix(12,0,0,12,178.1,299.8)" />
<use xlink:href="#f1_a" transform="matrix(12,0,0,12,199.5,299.8)" />
<use xlink:href="#f1_c" transform="matrix(12,0,0,12,209.7,299.8)" />
<use xlink:href="#f1_o" transform="matrix(12,0,0,12,214.7,299.8)" />
<use xlink:href="#f1_g" transform="matrix(12,0,0,12,221.1,299.8)" />
<use xlink:href="#f1_e" transform="matrix(12,0,0,12,233,299.8)" />
<use xlink:href="#f1_6" transform="matrix(12,0,0,12,254.9,299.8)" />
<use xlink:href="#f1_d" transform="matrix(12,0,0,12,267.1,299.8)" />
<use xlink:href="#f1_c" transform="matrix(12,0,0,12,279.3,299.8)" />
<use xlink:href="#f1_e" transform="matrix(12,0,0,12,294.2,299.8)" />
<use xlink:href="#f1_c" transform="matrix(12,0,0,12,306.3,299.8)" />
<use xlink:href="#f1_f" transform="matrix(12,0,0,12,311.2,299.8)" />
<use xlink:href="#f1_a" transform="matrix(12,0,0,12,321.7,299.8)" />
<use xlink:href="#f1_6" transform="matrix(12,0,0,12,342,299.8)" />
<use xlink:href="#f1_7" transform="matrix(12,0,0,12,354.2,299.8)" />
<use xlink:href="#f1_3" transform="matrix(12,0,0,12,358.3,299.8)" />
<use xlink:href="#f1_7" transform="matrix(12,0,0,12,368.7,299.8)" />
<use xlink:href="#f1_8" transform="matrix(12,0,0,12,372.7,299.8)" />
<use xlink:href="#f1_a" transform="matrix(12,0,0,12,395.1,299.8)" />
<use xlink:href="#f1_7" transform="matrix(12,0,0,12,405.3,299.8)" />
<use xlink:href="#f1_i" transform="matrix(12,0,0,12,409.5,299.8)" />
<use xlink:href="#f1_8" transform="matrix(12,0,0,12,419.1,299.8)" />
<use xlink:href="#f1_9" transform="matrix(12,0,0,12,441.5,299.8)" />
<use xlink:href="#f1_e" transform="matrix(12,0,0,12,453.4,299.8)" />
<use xlink:href="#f1_d" transform="matrix(12,0,0,12,465.5,299.8)" />
<use xlink:href="#f1_4" transform="matrix(12,0,0,12,477.7,299.8)" />
<use xlink:href="#f1_7" transform="matrix(12,0,0,12,500.6,299.8)" />
<use xlink:href="#f1_a" transform="matrix(12,0,0,12,504.7,299.8)" />
<use xlink:href="#f1_9" transform="matrix(12,0,0,12,515.1,299.8)" />
<use xlink:href="#f1_s" transform="matrix(12,0,0,12,537,299.8)" />
<use xlink:href="#f1_9" transform="matrix(12,0,0,12,542.8,299.8)" />
<use xlink:href="#f1_d" transform="matrix(12,0,0,12,554.7,299.8)" />
<use xlink:href="#f1_c" transform="matrix(12,0,0,12,567,299.8)" />
<use xlink:href="#f1_3" transform="matrix(12,0,0,12,571.9,299.8)" />
<use xlink:href="#f1_8" transform="matrix(12,0,0,12,582.3,299.8)" />
<use xlink:href="#f1_f" transform="matrix(12,0,0,12,594.8,299.8)" />
<use xlink:href="#f1_9" transform="matrix(12,0,0,12,615.4,299.8)" />
<use xlink:href="#f1_g" transform="matrix(12,0,0,12,627.3,299.8)" />
<use xlink:href="#f1_7" transform="matrix(12,0,0,12,639.2,299.8)" />
<use xlink:href="#f1_4" transform="matrix(12,0,0,12,643.3,299.8)" />
<use xlink:href="#f1_3" transform="matrix(12,0,0,12,666.2,299.8)" />
<use xlink:href="#f1_i" transform="matrix(12,0,0,12,676.6,299.8)" />
<use xlink:href="#f1_h" transform="matrix(12,0,0,12,696.1,299.8)" />
<use xlink:href="#f1_7" transform="matrix(12,0,0,12,701,299.8)" />
<use xlink:href="#f1_f" transform="matrix(12,0,0,12,705.1,299.8)" />
<use xlink:href="#f1_8" transform="matrix(12,0,0,12,715.6,299.8)" />
<use xlink:href="#f1_2" transform="matrix(12,0,0,12,738.1,299.8)" />
<use xlink:href="#f1_n" transform="matrix(12,0,0,12,747.8,299.8)" />
<use xlink:href="#f1_7" transform="matrix(12,0,0,12,755.2,299.8)" />
<use xlink:href="#f1_d" transform="matrix(12,0,0,12,759.3,299.8)" />
<use xlink:href="#f1_j" transform="matrix(12,0,0,12,281.3,321.1)" />
<use xlink:href="#f1_e" transform="matrix(12,0,0,12,287.1,321.1)" />
<use xlink:href="#f1_7" transform="matrix(12,0,0,12,299.1,321.1)" />
<use xlink:href="#f1_q" transform="matrix(12,0,0,12,303.2,321.1)" />
<use xlink:href="#f1_a" transform="matrix(12,0,0,12,313.3,321.1)" />
<use xlink:href="#f1_m" transform="matrix(12,0,0,12,323.5,321.1)" />
<use xlink:href="#f1_t" transform="matrix(12,0,0,12,335,321.1)" />
<use xlink:href="#f1_7" transform="matrix(12,0,0,12,352.7,321.1)" />
<use xlink:href="#f1_a" transform="matrix(12,0,0,12,356.8,321.1)" />
<use xlink:href="#f1_f" transform="matrix(12,0,0,12,367.2,321.1)" />
<use xlink:href="#f1_c" transform="matrix(12,0,0,12,377.7,321.1)" />
<use xlink:href="#f1_q" transform="matrix(12,0,0,12,382.6,321.1)" />
<use xlink:href="#f1_6" transform="matrix(12,0,0,12,398.6,321.1)" />
<use xlink:href="#f1_l" transform="matrix(12,0,0,12,410.7,321.1)" />
<use xlink:href="#f1_e" transform="matrix(12,0,0,12,427.9,321.1)" />
<use xlink:href="#f1_c" transform="matrix(12,0,0,12,440,321.1)" />
<use xlink:href="#f1_g" transform="matrix(12,0,0,12,445,321.1)" />
<use xlink:href="#f1_7" transform="matrix(12,0,0,12,456.9,321.1)" />
<use xlink:href="#f1_4" transform="matrix(12,0,0,12,461,321.1)" />
<use xlink:href="#f1_3" transform="matrix(12,0,0,12,480,321.1)" />
<use xlink:href="#f1_9" transform="matrix(12,0,0,12,490.4,321.1)" />
<use xlink:href="#f1_n" transform="matrix(12,0,0,12,502.3,321.1)" />
<use xlink:href="#f1_3" transform="matrix(12,0,0,12,509.6,321.1)" />
<use xlink:href="#f1_e" transform="matrix(12,0,0,12,525.9,321.1)" />
<use xlink:href="#f1_l" transform="matrix(12,0,0,12,538,321.1)" />
<use xlink:href="#f1_i" transform="matrix(12,0,0,12,549.4,321.1)" />
<use xlink:href="#f1_a" transform="matrix(12,0,0,12,564.9,321.1)" />
<use xlink:href="#f1_f" transform="matrix(12,0,0,12,575.3,321.1)" />
<use xlink:href="#f1_i" transform="matrix(12,0,0,12,585.8,321.1)" />
<use xlink:href="#f1_3" transform="matrix(12,0,0,12,601.4,321.1)" />
<use xlink:href="#f1_i" transform="matrix(12,0,0,12,611.8,321.1)" />
<use xlink:href="#f1_c" transform="matrix(12,0,0,12,621.4,321.1)" />
<use xlink:href="#f1_e" transform="matrix(12,0,0,12,626.4,321.1)" />
<use xlink:href="#f1_6" transform="matrix(12,0,0,12,644.3,321.1)" />
<use xlink:href="#f1_7" transform="matrix(12,0,0,12,656.5,321.1)" />
<use xlink:href="#f1_3" transform="matrix(12,0,0,12,660.6,321.1)" />
<use xlink:href="#f1_l" transform="matrix(12,0,0,12,671,321.1)" />
<use xlink:href="#f1_m" transform="matrix(12,0,0,12,682.4,321.1)" />
<use xlink:href="#f1_9" transform="matrix(12,0,0,12,693.9,321.1)" />
<use xlink:href="#f1_c" transform="matrix(12,0,0,12,705.8,321.1)" />
<use xlink:href="#f1_6" transform="matrix(12,0,0,12,716.6,321.1)" />
<use xlink:href="#f1_7" transform="matrix(12,0,0,12,728.7,321.1)" />
<use xlink:href="#f1_3" transform="matrix(12,0,0,12,732.8,321.1)" />
<use xlink:href="#f1_7" transform="matrix(12,0,0,12,743.2,321.1)" />
<use xlink:href="#f1_8" transform="matrix(12,0,0,12,747.3,321.1)" />
<use xlink:href="#f1_9" transform="matrix(12,0,0,12,759.8,321.1)" />
<use xlink:href="#f1_e" transform="matrix(12,0,0,12,454,361.9)" />
<use xlink:href="#f1_c" transform="matrix(12,0,0,12,466.1,361.9)" />
<use xlink:href="#f1_d" transform="matrix(12,0,0,12,471.1,361.9)" />
<use xlink:href="#f1_f" transform="matrix(12,0,0,12,483.3,361.9)" />
<use xlink:href="#f1_e" transform="matrix(12,0,0,12,500.3,361.9)" />
<use xlink:href="#f1_c" transform="matrix(12,0,0,12,512.3,361.9)" />
<use xlink:href="#f1_8" transform="matrix(12,0,0,12,517.3,361.9)" />
<use xlink:href="#f1_7" transform="matrix(12,0,0,12,529.7,361.9)" />
<use xlink:href="#f1_7" transform="matrix(12,0,0,12,533.8,361.9)" />
<use xlink:href="#f1_e" transform="matrix(12,0,0,12,537.9,361.9)" />
<use xlink:href="#f1_t" transform="matrix(12,0,0,12,550,361.9)" />
<use xlink:href="#f1_8" transform="matrix(12,0,0,12,561.7,361.9)" />
<use xlink:href="#f1_9" transform="matrix(12,0,0,12,574.2,361.9)" />
<use xlink:href="#f1_6" transform="matrix(12,0,0,12,592.5,361.9)" />
<use xlink:href="#f1_7" transform="matrix(12,0,0,12,604.7,361.9)" />
<use xlink:href="#f1_3" transform="matrix(12,0,0,12,608.9,361.9)" />
<use xlink:href="#f1_7" transform="matrix(12,0,0,12,619.2,361.9)" />
<use xlink:href="#f1_8" transform="matrix(12,0,0,12,623.2,361.9)" />
<use xlink:href="#f1_4" transform="matrix(12,0,0,12,635.7,361.9)" />
<use xlink:href="#f1_a" transform="matrix(12,0,0,12,655.1,361.9)" />
<use xlink:href="#f1_i" transform="matrix(12,0,0,12,665.5,361.9)" />
<use xlink:href="#f1_c" transform="matrix(12,0,0,12,675.1,361.9)" />
<use xlink:href="#f1_o" transform="matrix(12,0,0,12,680,361.9)" />
<use xlink:href="#f1_9" transform="matrix(12,0,0,12,692.8,361.9)" />
<use xlink:href="#f1_e" transform="matrix(12,0,0,12,704.7,361.9)" />
<use xlink:href="#f1_d" transform="matrix(12,0,0,12,716.7,361.9)" />
<use xlink:href="#f1_6" transform="matrix(12,0,0,12,735.3,361.9)" />
<use xlink:href="#f1_d" transform="matrix(12,0,0,12,747.5,361.9)" />
<use xlink:href="#f1_9" transform="matrix(12,0,0,12,759.8,361.9)" />
<use xlink:href="#f2_a" transform="matrix(11,0,0,11,438.9,361.9)" />
<use xlink:href="#f1_3" transform="matrix(12,0,0,12,208.7,361.9)" />
<use xlink:href="#f1_3" transform="matrix(12,0,0,12,219.1,361.9)" />
<use xlink:href="#f1_i" transform="matrix(12,0,0,12,229.5,361.9)" />
<use xlink:href="#f1_7" transform="matrix(12,0,0,12,245.5,361.9)" />
<use xlink:href="#f1_m" transform="matrix(12,0,0,12,249.6,361.9)" />
<use xlink:href="#f1_3" transform="matrix(12,0,0,12,261,361.9)" />
<use xlink:href="#f1_v" transform="matrix(12,0,0,12,271.4,361.9)" />
<use xlink:href="#f1_a" transform="matrix(12,0,0,12,284.8,361.9)" />
<use xlink:href="#f1_i" transform="matrix(12,0,0,12,295.2,361.9)" />
<use xlink:href="#f1_o" transform="matrix(12,0,0,12,304.8,361.9)" />
<use xlink:href="#f1_e" transform="matrix(12,0,0,12,317.6,361.9)" />
<use xlink:href="#f1_a" transform="matrix(12,0,0,12,329.7,361.9)" />
<use xlink:href="#f1_c" transform="matrix(12,0,0,12,340,361.9)" />
<use xlink:href="#f1_b" transform="matrix(12,0,0,12,345.1,361.9)" />
<use xlink:href="#f1_f" transform="matrix(12,0,0,12,355.9,361.9)" />
<use xlink:href="#f1_f" transform="matrix(12,0,0,12,372.8,361.9)" />
<use xlink:href="#f1_c" transform="matrix(12,0,0,12,383.4,361.9)" />
<use xlink:href="#f1_a" transform="matrix(12,0,0,12,388.3,361.9)" />
<use xlink:href="#f1_3" transform="matrix(12,0,0,12,398.6,361.9)" />
<use xlink:href="#f1_h" transform="matrix(12,0,0,12,415.4,361.9)" />
<use xlink:href="#f1_9" transform="matrix(12,0,0,12,420.4,361.9)" />
<use xlink:href="#f2_a" transform="matrix(11,0,0,11,154.3,361.9)" />
<use xlink:href="#f2_8" transform="matrix(11,0,0,11,162.7,361.9)" />
<use xlink:href="#f2_3" transform="matrix(11,0,0,11,171.1,361.9)" />
<use xlink:href="#f2_p" transform="matrix(11,0,0,11,176.7,361.9)" />
<use xlink:href="#f2_m" transform="matrix(11,0,0,11,189.7,361.9)" />
<use xlink:href="#f2_l" transform="matrix(11,0,0,11,197.2,361.9)" />
<use xlink:href="#f1_1k" transform="matrix(12,0,0,12,137.5,361.9)" />
<use xlink:href="#f1_x" transform="matrix(12,0,0,12,147.3,361.9)" />
<use xlink:href="#f1_7" transform="matrix(12,0,0,12,137.8,383.3)" />
<use xlink:href="#f1_q" transform="matrix(12,0,0,12,141.9,383.3)" />
<use xlink:href="#f1_i" transform="matrix(12,0,0,12,152,383.3)" />
<use xlink:href="#f1_s" transform="matrix(12,0,0,12,168,383.3)" />
<use xlink:href="#f1_c" transform="matrix(12,0,0,12,173.8,383.3)" />
<use xlink:href="#f1_n" transform="matrix(12,0,0,12,178.8,383.3)" />
<use xlink:href="#f1_q" transform="matrix(12,0,0,12,186.2,383.3)" />
<use xlink:href="#f1_8" transform="matrix(12,0,0,12,196.2,383.3)" />
<use xlink:href="#f1_3" transform="matrix(12,0,0,12,208.6,383.3)" />
<use xlink:href="#f1_4" transform="matrix(12,0,0,12,219,383.3)" />
<use xlink:href="#f1_9" transform="matrix(12,0,0,12,238.5,383.3)" />
<use xlink:href="#f1_8" transform="matrix(12,0,0,12,250.4,383.3)" />
<use xlink:href="#f1_f" transform="matrix(12,0,0,12,262.9,383.3)" />
<use xlink:href="#f1_a" transform="matrix(12,0,0,12,279.9,383.3)" />
<use xlink:href="#f1_i" transform="matrix(12,0,0,12,290.2,383.3)" />
<use xlink:href="#f1_o" transform="matrix(12,0,0,12,299.9,383.3)" />
<use xlink:href="#f1_7" transform="matrix(12,0,0,12,306.3,383.3)" />
<use xlink:href="#f1_9" transform="matrix(12,0,0,12,310.4,383.3)" />
<use xlink:href="#f1_3" transform="matrix(12,0,0,12,322.3,383.3)" />
<use xlink:href="#f1_c" transform="matrix(12,0,0,12,332.7,383.3)" />
<use xlink:href="#f1_6" transform="matrix(12,0,0,12,344.1,383.3)" />
<use xlink:href="#f1_7" transform="matrix(12,0,0,12,356.3,383.3)" />
<use xlink:href="#f1_8" transform="matrix(12,0,0,12,360.3,383.3)" />
<use xlink:href="#f1_q" transform="matrix(12,0,0,12,372.8,383.3)" />
<use xlink:href="#f1_c" transform="matrix(12,0,0,12,382.8,383.3)" />
<use xlink:href="#f1_p" transform="matrix(12,0,0,12,387.9,383.3)" />
<use xlink:href="#f1_9" transform="matrix(12,0,0,12,400.9,383.3)" />
<use xlink:href="#f1_6" transform="matrix(12,0,0,12,419.1,383.3)" />
<use xlink:href="#f1_7" transform="matrix(12,0,0,12,431.4,383.3)" />
<use xlink:href="#f1_p" transform="matrix(12,0,0,12,435.5,383.3)" />
<use xlink:href="#f1_a" transform="matrix(12,0,0,12,448.4,383.3)" />
<use xlink:href="#f1_m" transform="matrix(12,0,0,12,458.8,383.3)" />
<use xlink:href="#f1_9" transform="matrix(12,0,0,12,470.3,383.3)" />
<use xlink:href="#f1_3" transform="matrix(12,0,0,12,488.6,383.3)" />
<use xlink:href="#f1_l" transform="matrix(12,0,0,12,499,383.3)" />
<use xlink:href="#f1_f" transform="matrix(12,0,0,12,517,383.3)" />
<use xlink:href="#f1_c" transform="matrix(12,0,0,12,527.5,383.3)" />
<use xlink:href="#f1_a" transform="matrix(12,0,0,12,532.5,383.3)" />
<use xlink:href="#f1_p" transform="matrix(12,0,0,12,542.9,383.3)" />
<use xlink:href="#f1_9" transform="matrix(12,0,0,12,555.9,383.3)" />
<use xlink:href="#f1_p" transform="matrix(12,0,0,12,574.2,383.3)" />
<use xlink:href="#f1_a" transform="matrix(12,0,0,12,587.2,383.3)" />
<use xlink:href="#f1_m" transform="matrix(12,0,0,12,597.5,383.3)" />
<use xlink:href="#f1_9" transform="matrix(12,0,0,12,609,383.3)" />
<use xlink:href="#f1_7" transform="matrix(12,0,0,12,627.3,383.3)" />
<use xlink:href="#f1_n" transform="matrix(12,0,0,12,631.4,383.3)" />
<use xlink:href="#f1_m" transform="matrix(12,0,0,12,638.7,383.3)" />
<use xlink:href="#f1_3" transform="matrix(12,0,0,12,650.1,383.3)" />
<use xlink:href="#f1_a" transform="matrix(12,0,0,12,666.9,383.3)" />
<use xlink:href="#f1_c" transform="matrix(12,0,0,12,677.3,383.3)" />
<use xlink:href="#f1_f" transform="matrix(12,0,0,12,682.3,383.3)" />
<use xlink:href="#f1_l" transform="matrix(12,0,0,12,692.8,383.3)" />
<use xlink:href="#f1_3" transform="matrix(12,0,0,12,704.3,383.3)" />
<use xlink:href="#f1_1e" transform="matrix(12,0,0,12,721.2,383.3)" />
<use xlink:href="#f1_3" transform="matrix(12,0,0,12,731,383.3)" />
<use xlink:href="#f1_8" transform="matrix(12,0,0,12,741.4,383.3)" />
<use xlink:href="#f1_c" transform="matrix(12,0,0,12,753.9,383.3)" />
<use xlink:href="#f1_8" transform="matrix(12,0,0,12,758.8,383.3)" />
<use xlink:href="#f1_j" transform="matrix(12,0,0,12,447,404.7)" />
<use xlink:href="#f1_6" transform="matrix(12,0,0,12,452.8,404.7)" />
<use xlink:href="#f1_n" transform="matrix(12,0,0,12,465,404.7)" />
<use xlink:href="#f1_7" transform="matrix(12,0,0,12,472.4,404.7)" />
<use xlink:href="#f1_f" transform="matrix(12,0,0,12,476.5,404.7)" />
<use xlink:href="#f1_9" transform="matrix(12,0,0,12,487,404.7)" />
<use xlink:href="#f1_3" transform="matrix(12,0,0,12,498.9,404.7)" />
<use xlink:href="#f1_c" transform="matrix(12,0,0,12,509.3,404.7)" />
<use xlink:href="#f1_6" transform="matrix(12,0,0,12,520.2,404.7)" />
<use xlink:href="#f1_7" transform="matrix(12,0,0,12,532.4,404.7)" />
<use xlink:href="#f1_w" transform="matrix(12,0,0,12,536.5,404.7)" />
<use xlink:href="#f1_t" transform="matrix(12,0,0,12,548.4,404.7)" />
<use xlink:href="#f1_p" transform="matrix(12,0,0,12,560.3,404.7)" />
<use xlink:href="#f1_w" transform="matrix(12,0,0,12,573.3,404.7)" />
<use xlink:href="#f1_9" transform="matrix(12,0,0,12,585.2,404.7)" />
<use xlink:href="#f1_e" transform="matrix(12,0,0,12,602.9,404.7)" />
<use xlink:href="#f1_d" transform="matrix(12,0,0,12,614.9,404.7)" />
<use xlink:href="#f1_d" transform="matrix(12,0,0,12,633,404.7)" />
<use xlink:href="#f1_c" transform="matrix(12,0,0,12,645.2,404.7)" />
<use xlink:href="#f1_a" transform="matrix(12,0,0,12,650.2,404.7)" />
<use xlink:href="#f1_p" transform="matrix(12,0,0,12,660.6,404.7)" />
<use xlink:href="#f1_3" transform="matrix(12,0,0,12,673.6,404.7)" />
<use xlink:href="#f1_2" transform="matrix(12,0,0,12,689.9,404.7)" />
<use xlink:href="#f1_7" transform="matrix(12,0,0,12,699.7,404.7)" />
<use xlink:href="#f1_3" transform="matrix(12,0,0,12,703.8,404.7)" />
<use xlink:href="#f1_l" transform="matrix(12,0,0,12,714.2,404.7)" />
<use xlink:href="#f1_3" transform="matrix(12,0,0,12,731.5,404.7)" />
<use xlink:href="#f1_p" transform="matrix(12,0,0,12,741.9,404.7)" />
<use xlink:href="#f1_7" transform="matrix(12,0,0,12,754.8,404.7)" />
<use xlink:href="#f1_4" transform="matrix(12,0,0,12,759,404.7)" />
<use xlink:href="#f1_15" transform="matrix(12,0,0,12,639.7,445.3)" />
<use xlink:href="#f1_e" transform="matrix(12,0,0,12,645.8,445.3)" />
<use xlink:href="#f1_q" transform="matrix(12,0,0,12,657.8,445.3)" />
<use xlink:href="#f1_8" transform="matrix(12,0,0,12,667.8,445.3)" />
<use xlink:href="#f1_3" transform="matrix(12,0,0,12,680.3,445.3)" />
<use xlink:href="#f1_a" transform="matrix(12,0,0,12,697,445.3)" />
<use xlink:href="#f1_f" transform="matrix(12,0,0,12,707.4,445.3)" />
<use xlink:href="#f1_i" transform="matrix(12,0,0,12,717.9,445.3)" />
<use xlink:href="#f1_4" transform="matrix(12,0,0,12,727.6,445.3)" />
<use xlink:href="#f1_7" transform="matrix(12,0,0,12,746.8,445.3)" />
<use xlink:href="#f1_m" transform="matrix(12,0,0,12,750.9,445.3)" />
<use xlink:href="#f1_i" transform="matrix(12,0,0,12,762.3,445.3)" />
<use xlink:href="#f2_n" transform="matrix(11,0,0,11,468,445.3)" />
<use xlink:href="#f2_a" transform="matrix(11,0,0,11,480,445.3)" />
<use xlink:href="#f2_8" transform="matrix(11,0,0,11,488.4,445.3)" />
<use xlink:href="#f2_h" transform="matrix(11,0,0,11,501.5,445.3)" />
<use xlink:href="#f2_4" transform="matrix(11,0,0,11,506.1,445.3)" />
<use xlink:href="#f2_2" transform="matrix(11,0,0,11,510.8,445.3)" />
<use xlink:href="#f2_a" transform="matrix(11,0,0,11,518.3,445.3)" />
<use xlink:href="#f2_2" transform="matrix(11,0,0,11,526.7,445.3)" />
<use xlink:href="#f2_1g" transform="matrix(11,0,0,11,538.8,445.3)" />
<use xlink:href="#f2_f" transform="matrix(11,0,0,11,547.2,445.3)" />
<use xlink:href="#f2_2" transform="matrix(11,0,0,11,555.6,445.3)" />
<use xlink:href="#f2_e" transform="matrix(11,0,0,11,567.6,445.3)" />
<use xlink:href="#f2_2" transform="matrix(11,0,0,11,576,445.3)" />
<use xlink:href="#f2_g" transform="matrix(11,0,0,11,583.5,445.3)" />
<use xlink:href="#f2_5" transform="matrix(11,0,0,11,590,445.3)" />
<use xlink:href="#f2_m" transform="matrix(11,0,0,11,597.5,445.3)" />
<use xlink:href="#f2_a" transform="matrix(11,0,0,11,605,445.3)" />
<use xlink:href="#f2_g" transform="matrix(11,0,0,11,613.4,445.3)" />
<use xlink:href="#f2_m" transform="matrix(11,0,0,11,619.8,445.3)" />
<use xlink:href="#f2_3" transform="matrix(11,0,0,11,627.2,445.3)" />
<use xlink:href="#f1_7" transform="matrix(12,0,0,12,137.7,445.3)" />
<use xlink:href="#f1_q" transform="matrix(12,0,0,12,141.6,445.3)" />
<use xlink:href="#f1_8" transform="matrix(12,0,0,12,151.7,445.3)" />
<use xlink:href="#f1_q" transform="matrix(12,0,0,12,170.5,445.3)" />
<use xlink:href="#f1_7" transform="matrix(12,0,0,12,180.5,445.3)" />
<use xlink:href="#f1_f" transform="matrix(12,0,0,12,184.6,445.3)" />
<use xlink:href="#f1_i" transform="matrix(12,0,0,12,195.2,445.3)" />
<use xlink:href="#f1_n" transform="matrix(12,0,0,12,204.8,445.3)" />
<use xlink:href="#f1_d" transform="matrix(12,0,0,12,218.5,445.3)" />
<use xlink:href="#f1_3" transform="matrix(12,0,0,12,230.7,445.3)" />
<use xlink:href="#f1_7" transform="matrix(12,0,0,12,247.3,445.3)" />
<use xlink:href="#f1_l" transform="matrix(12,0,0,12,251.4,445.3)" />
<use xlink:href="#f1_7" transform="matrix(12,0,0,12,262.9,445.3)" />
<use xlink:href="#f1_f" transform="matrix(12,0,0,12,267,445.3)" />
<use xlink:href="#f1_4" transform="matrix(12,0,0,12,277.6,445.3)" />
<use xlink:href="#f1_9" transform="matrix(12,0,0,12,290.5,445.3)" />
<use xlink:href="#f1_p" transform="matrix(12,0,0,12,308.8,445.3)" />
<use xlink:href="#f1_a" transform="matrix(12,0,0,12,321.8,445.3)" />
<use xlink:href="#f1_m" transform="matrix(12,0,0,12,332.2,445.3)" />
<use xlink:href="#f1_f" transform="matrix(12,0,0,12,343.6,445.3)" />
<use xlink:href="#f1_h" transform="matrix(12,0,0,12,360.4,445.3)" />
<use xlink:href="#f1_i" transform="matrix(12,0,0,12,365.4,445.3)" />
<use xlink:href="#f1_3" transform="matrix(12,0,0,12,375,445.3)" />
<use xlink:href="#f1_j" transform="matrix(12,0,0,12,391.8,445.3)" />
<use xlink:href="#f1_g" transform="matrix(12,0,0,12,397.6,445.3)" />
<use xlink:href="#f1_c" transform="matrix(12,0,0,12,409.5,445.3)" />
<use xlink:href="#f1_n" transform="matrix(12,0,0,12,414.5,445.3)" />
<use xlink:href="#f1_3" transform="matrix(12,0,0,12,421.9,445.3)" />
<use xlink:href="#f1_4" transform="matrix(12,0,0,12,438.5,445.3)" />
<use xlink:href="#f1_7" transform="matrix(12,0,0,12,451.5,445.3)" />
<use xlink:href="#f1_s" transform="matrix(12,0,0,12,461.8,445.3)" />
<use xlink:href="#f1_j" transform="matrix(12,0,0,12,218,466.7)" />
<use xlink:href="#f1_e" transform="matrix(12,0,0,12,223.8,466.7)" />
<use xlink:href="#f1_c" transform="matrix(12,0,0,12,235.9,466.7)" />
<use xlink:href="#f1_q" transform="matrix(12,0,0,12,240.9,466.7)" />
<use xlink:href="#f1_l" transform="matrix(12,0,0,12,250.8,466.7)" />
<use xlink:href="#f1_t" transform="matrix(12,0,0,12,262.3,466.7)" />
<use xlink:href="#f1_8" transform="matrix(12,0,0,12,274.2,466.7)" />
<use xlink:href="#f1_c" transform="matrix(12,0,0,12,286.6,466.7)" />
<use xlink:href="#f1_3" transform="matrix(12,0,0,12,297.5,466.7)" />
<use xlink:href="#f1_i" transform="matrix(12,0,0,12,307.9,466.7)" />
<use xlink:href="#f1_c" transform="matrix(12,0,0,12,317.5,466.7)" />
<use xlink:href="#f1_d" transform="matrix(12,0,0,12,322.6,466.7)" />
<use xlink:href="#f1_3" transform="matrix(12,0,0,12,334.8,466.7)" />
<use xlink:href="#f1_a" transform="matrix(12,0,0,12,351,466.7)" />
<use xlink:href="#f1_c" transform="matrix(12,0,0,12,361.4,466.7)" />
<use xlink:href="#f1_4" transform="matrix(12,0,0,12,366.4,466.7)" />
<use xlink:href="#f1_p" transform="matrix(12,0,0,12,379.4,466.7)" />
<use xlink:href="#f1_9" transform="matrix(12,0,0,12,392.4,466.7)" />
<use xlink:href="#f1_6" transform="matrix(12,0,0,12,410.1,466.7)" />
<use xlink:href="#f1_7" transform="matrix(12,0,0,12,422.3,466.7)" />
<use xlink:href="#f1_3" transform="matrix(12,0,0,12,426.4,466.7)" />
<use xlink:href="#f1_7" transform="matrix(12,0,0,12,436.8,466.7)" />
<use xlink:href="#f1_8" transform="matrix(12,0,0,12,440.8,466.7)" />
<use xlink:href="#f1_a" transform="matrix(12,0,0,12,459.1,466.7)" />
<use xlink:href="#f1_b" transform="matrix(12,0,0,12,469.5,466.7)" />
<use xlink:href="#f1_c" transform="matrix(12,0,0,12,480.3,466.7)" />
<use xlink:href="#f1_d" transform="matrix(12,0,0,12,485.4,466.7)" />
<use xlink:href="#f1_3" transform="matrix(12,0,0,12,503.5,466.7)" />
<use xlink:href="#f1_k" transform="matrix(12,0,0,12,513.9,466.7)" />
<use xlink:href="#f1_a" transform="matrix(12,0,0,12,521.4,466.7)" />
<use xlink:href="#f1_e" transform="matrix(12,0,0,12,531.8,466.7)" />
<use xlink:href="#f1_n" transform="matrix(12,0,0,12,543.8,466.7)" />
<use xlink:href="#f1_e" transform="matrix(12,0,0,12,557,466.7)" />
<use xlink:href="#f1_d" transform="matrix(12,0,0,12,569,466.7)" />
<use xlink:href="#f1_o" transform="matrix(12,0,0,12,581.2,466.7)" />
<use xlink:href="#f1_6" transform="matrix(12,0,0,12,593.4,466.7)" />
<use xlink:href="#f1_c" transform="matrix(12,0,0,12,605.5,466.7)" />
<use xlink:href="#f1_p" transform="matrix(12,0,0,12,610.5,466.7)" />
<use xlink:href="#f1_8" transform="matrix(12,0,0,12,623.5,466.7)" />
<use xlink:href="#f1_f" transform="matrix(12,0,0,12,636,466.7)" />
<use xlink:href="#f1_c" transform="matrix(12,0,0,12,646.6,466.7)" />
<use xlink:href="#f1_6" transform="matrix(12,0,0,12,657.4,466.7)" />
<use xlink:href="#f1_7" transform="matrix(12,0,0,12,669.6,466.7)" />
<use xlink:href="#f1_4" transform="matrix(12,0,0,12,673.6,466.7)" />
<use xlink:href="#f1_q" transform="matrix(12,0,0,12,686.6,466.7)" />
<use xlink:href="#f1_g" transform="matrix(12,0,0,12,696.6,466.7)" />
<use xlink:href="#f1_6" transform="matrix(12,0,0,12,714.5,466.7)" />
<use xlink:href="#f1_7" transform="matrix(12,0,0,12,726.7,466.7)" />
<use xlink:href="#f1_3" transform="matrix(12,0,0,12,730.8,466.7)" />
<use xlink:href="#f1_3" transform="matrix(12,0,0,12,741.2,466.7)" />
<use xlink:href="#f1_i" transform="matrix(12,0,0,12,751.6,466.7)" />
<use xlink:href="#f1_f" transform="matrix(12,0,0,12,761.2,466.7)" />
</g>
</g>
<defs>
<path d="M332,-20c0,0,-52,0,-88,34c0,0,-35,36,-35,88c0,0,0,52,35,88c0,0,36,36,88,36c0,0,51,0,88,-36c0,0,36,-36,36,-88c0,0,0,-51,-36,-87c0,0,-36,-35,-88,-35ZM289,290L247,524l71,19c0,0,77,20,108,68c0,0,31,48,31,130c0,0,0,102,-36,148c0,0,-35,46,-119,46c0,0,-63,0,-111,-32L159,759H93V979c0,0,123,32,241,32c0,0,339,0,339,-265c0,0,0,-108,-58,-183c0,0,-58,-74,-164,-104L386,441L366,290Z" 
id="f0_29"
transform="scale(0.001,-0.001)" />

<path d="M204,-8c0,0,-9,0,-11,5c0,0,-2,5,-2,22V549c0,0,0,40,-4,56c0,0,-4,16,-15,22c0,0,-10,7,-39,7H90c0,0,-33,0,-52,33c0,0,-19,33,-19,90c0,0,0,53,15,98c0,0,16,44,35,44c0,0,12,0,12,-13V872c0,0,0,-27,31,-27h42c0,0,79,0,103,-20c0,0,23,-19,23,-83V67c0,0,0,-16,-8,-26c0,0,-9,-10,-33,-30c0,0,-25,-19,-35,-19Z" 
id="f0_e"
transform="scale(0.001,-0.001)" />

<path d="M13,0L67,212H274c0,0,15,0,19,4c0,0,5,4,5,13c0,0,0,6,-9,22c0,0,-9,16,-19,38c0,0,-11,21,-20,45c0,0,-8,24,-8,48c0,0,0,18,11,89c0,0,11,70,11,102c0,0,0,27,-16,45c0,0,-17,18,-37,18H188c0,0,-89,0,-89,117c0,0,0,52,15,99c0,0,15,47,30,47c0,0,18,0,18,-22c0,0,0,-19,10,-25c0,0,10,-7,39,-7h56c0,0,65,0,86,-15c0,0,21,-16,21,-56c0,0,0,-21,-5,-50c0,0,-38,-172,-38,-258c0,0,0,-63,11,-100c0,0,11,-37,46,-104c0,0,20,-38,20,-58c0,0,0,-16,-10,-74C398,130,388,72,369,0Z" 
id="f0_1e"
transform="scale(0.001,-0.001)" />

<path d="M469,-18c0,0,-14,0,-14,15l2,7c0,0,20,43,20,158l-3,156l-2,119c0,0,0,65,19,109c0,0,19,44,60,88H110c0,0,-47,0,-69,34c0,0,-22,35,-22,109c0,0,0,50,16,85c0,0,16,36,35,36c0,0,14,0,14,-12L83,869c0,0,0,-13,7,-19c0,0,6,-5,23,-5H608c0,0,25,0,40,-14c0,0,15,-15,15,-38V686c0,0,0,-26,-4,-35c0,0,-3,-9,-11,-11c0,0,-42,-9,-56,-40c0,0,-15,-30,-15,-93c0,0,0,-56,12,-184c0,0,10,-129,10,-224c0,0,0,-24,-6,-37c0,0,-7,-13,-17,-25c0,0,-7,-6,-18,-12c0,0,-11,-7,-23,-13C535,12,523,5,512,0c0,0,-10,-5,-15,-8c0,0,-22,-10,-28,-10Z" 
id="f0_z"
transform="scale(0.001,-0.001)" />

<path d="M102,-3c0,0,-26,0,-26,31c0,0,0,176,35,320c0,0,34,145,102,247c0,0,3,4,3,25c0,0,0,24,-19,37c0,0,-19,13,-79,15c0,0,-40,0,-61,35c0,0,-22,35,-22,95c0,0,0,39,14,67c0,0,14,29,32,29c0,0,20,0,20,-25c0,0,0,-28,32,-28h33c0,0,54,0,85,-25c0,0,30,-25,30,-68l-3,-52c0,0,0,-22,3,-31c0,0,76,71,104,109c0,0,29,37,36,75c0,0,55,7,82,7c0,0,154,0,239,-126c0,0,85,-127,85,-352c0,0,0,-99,-15,-200C812,182,798,81,774,0H335l42,214H652c0,0,25,0,37,5c0,0,11,4,21,18c0,0,10,14,17,36c0,0,7,22,12,56c0,0,5,34,5,64c0,0,0,247,-241,247c0,0,-337,0,-337,-609c0,0,0,-20,-5,-27c0,0,-6,-7,-22,-7Z" 
id="f0_16"
transform="scale(0.001,-0.001)" />

<path d="M235,-20c0,0,-31,0,-51,19c0,0,-21,18,-21,50c0,0,0,65,39,120c0,0,39,54,125,109c0,0,56,35,87,56c0,0,32,20,46,33c0,0,79,45,79,143c0,0,0,27,-7,65c0,0,-8,39,-27,49c0,0,-19,10,-85,10H110c0,0,-36,0,-53,21c0,0,-17,22,-25,71c0,0,-7,49,-7,134c0,0,0,62,27,122c0,0,8,15,8,34c0,0,0,23,-35,37c0,0,-21,7,-30,29c0,0,-9,22,-9,72c0,0,0,24,10,46c0,0,8,22,25,38c0,0,16,16,26,16c0,0,17,0,17,-14c0,0,0,-9,7,-17c0,0,7,-8,34,-14c0,0,65,-15,81,-26c0,0,15,-10,15,-31c0,0,0,-15,-15,-38c0,0,-15,-22,-33,-53c0,0,-19,-30,-34,-67c0,0,-15,-36,-15,-79c0,0,0,-43,14,-56c0,0,15,-14,54,-14H518c0,0,39,0,63,-17c0,0,23,-16,33,-53c0,0,10,-36,17,-89c0,0,6,-52,6,-93c0,0,0,-99,-9,-144c0,0,-9,-44,-40,-80c0,0,-31,-36,-110,-86c0,0,-112,-71,-138,-95c0,0,-26,-23,-36,-44c0,0,-9,-20,-9,-43c0,0,0,-11,5,-26c0,0,6,-15,6,-26c0,0,0,-32,-20,-50c0,0,-20,-19,-51,-19Z" 
id="f0_6"
transform="scale(0.001,-0.001)" />

<path d="M107,-18c0,0,-17,0,-17,18l3,9c0,0,23,48,23,124l-1,177c0,0,0,55,8,77c0,0,9,22,33,46c0,0,23,23,51,40c0,0,28,17,42,17c0,0,5,0,9,-3c0,0,5,-3,5,-8c0,0,0,-3,-11,-26c0,0,-14,-49,-14,-120l4,-223c0,0,0,-38,-9,-54c0,0,-8,-17,-32,-34C201,22,178,6,150,-5c0,0,-28,-13,-43,-13Zm547,0c0,0,-17,0,-17,18l2,10c0,0,10,38,10,109c0,0,0,79,-14,208c0,0,-15,128,-15,149c0,0,0,54,16,89c0,0,15,36,53,69H154c0,0,-35,0,-57,40c0,0,-21,40,-21,103c0,0,0,33,8,61c0,0,7,28,19,44c0,0,13,17,24,17c0,0,15,0,15,-13V869c0,0,0,-13,5,-19c0,0,5,-5,22,-5H718c0,0,50,0,50,-63V652c0,0,0,-21,-15,-30c0,0,-35,-24,-35,-77c0,0,0,-57,20,-169c0,0,27,-157,27,-272c0,0,0,-29,-6,-44c0,0,-6,-15,-17,-26c0,0,-12,-16,-47,-35L681,-9l-13,-6l-14,-3Z" 
id="f0_f"
transform="scale(0.001,-0.001)" />

<path d="M154,0V454l138,56V0ZM722,0V454c0,0,0,161,-49,218c0,0,-48,57,-186,57H139V836H485c0,0,207,0,291,-93c0,0,83,-94,83,-318V0Z" 
id="f1_9"
transform="scale(0.001,-0.001)" />

<path d="M66,0V107H554V452c0,0,0,56,-4,93c0,0,-4,37,-18,75c0,0,-14,38,-40,60c0,0,-26,22,-71,36c0,0,-45,13,-110,13H66V836H312c0,0,91,0,157,-17c0,0,66,-17,109,-49c0,0,44,-32,69,-84c0,0,26,-52,36,-114c0,0,10,-62,10,-147V107H817V0Z" 
id="f1_f"
transform="scale(0.001,-0.001)" />

<path d="M139,0V836H278V0Z" 
id="f1_c"
transform="scale(0.001,-0.001)" />

<path d="M585,0V426c0,0,0,54,-8,98c0,0,-8,44,-27,83c0,0,-19,40,-49,66c0,0,-30,26,-77,41c0,0,-47,15,-108,15H66V836H315c0,0,94,0,166,-20c0,0,71,-20,116,-54c0,0,46,-35,75,-88c0,0,28,-52,40,-112c0,0,12,-60,12,-137V0Z" 
id="f1_a"
transform="scale(0.001,-0.001)" />

<path d="M114,0l60,312c0,0,2,12,8,39c0,0,6,27,7,37c0,0,2,11,5,30c0,0,2,19,4,33c0,0,1,15,1,31c0,0,0,48,-35,146c0,0,-35,98,-98,208H228c0,0,3,-8,27,-67c0,0,25,-58,41,-117c0,0,21,53,50,90c0,0,29,37,57,57c0,0,29,21,65,32c0,0,37,11,65,14c0,0,28,3,67,3c0,0,300,0,300,-396V0H480V106H761V452c0,0,0,146,-46,215c0,0,-45,70,-118,70c0,0,-134,0,-198,-119c0,0,-36,-68,-67,-222c0,0,-2,-10,-6,-27L253,0Z" 
id="f1_8"
transform="scale(0.001,-0.001)" />

<path d="M66,0V106H322c0,0,75,0,127,23c0,0,53,23,82,67c0,0,29,43,42,98c0,0,13,54,13,124c0,0,0,70,-13,124c0,0,-13,55,-42,98c0,0,-29,44,-82,67c0,0,-52,23,-127,23H66V836H322c0,0,87,0,157,-24c0,0,70,-24,115,-64c0,0,45,-40,74,-94c0,0,30,-55,43,-113c0,0,13,-59,13,-123c0,0,0,-64,-13,-123c0,0,-13,-58,-43,-113c0,0,-29,-54,-74,-94C594,88,549,48,479,24C479,24,409,0,322,0Z" 
id="f1_i"
transform="scale(0.001,-0.001)" />

<path d="M139,0V138c0,0,0,61,8,112c0,0,7,52,19,87c0,0,11,36,30,66c0,0,19,31,35,49c0,0,17,19,41,35c0,0,25,17,41,25c0,0,17,7,40,17L141,836H303L613,388c0,0,20,10,33,18c0,0,13,8,34,28c0,0,20,20,33,44c0,0,13,25,22,66c0,0,10,41,10,92V836H882V698c0,0,0,-61,-7,-112c0,0,-6,-52,-18,-88c0,0,-12,-36,-30,-66c0,0,-19,-30,-36,-49c0,0,-17,-18,-41,-34c0,0,-24,-17,-40,-25c0,0,-17,-8,-41,-17L882,0H720L409,448c0,0,-21,-11,-34,-19c0,0,-13,-8,-34,-27c0,0,-21,-20,-34,-44c0,0,-12,-25,-22,-66c0,0,-9,-41,-9,-92V0Z" 
id="f1_d"
transform="scale(0.001,-0.001)" />

<path d="M287,0L589,729H66v386H205V836l547,-1l-2,-82L433,0Z" 
id="f1_3"
transform="scale(0.001,-0.001)" />

<path d="M102,312V836H241V369L102,312Z" 
id="f1_7"
transform="scale(0.001,-0.001)" />

<path d="M152,0V473c0,0,0,94,28,161c0,0,29,66,71,95H66V836H463V729H404c0,0,-65,0,-89,-57c0,0,-25,-58,-25,-199V0Z" 
id="f1_o"
transform="scale(0.001,-0.001)" />

<path d="M117,-176L179,62V190H336V62L213,-176Z" 
id="f1_s"
transform="scale(0.001,-0.001)" />

<path d="M736,107V473c0,0,0,147,-48,202c0,0,-49,54,-187,54H278V107ZM139,0V836H499c0,0,105,0,177,-22c0,0,72,-21,116,-69c0,0,44,-49,64,-119c0,0,19,-71,19,-174V0Z" 
id="f1_6"
transform="scale(0.001,-0.001)" />

<path d="M138,-7c0,0,-34,0,-72,10V129c0,0,25,-8,52,-8c0,0,33,0,58,5c0,0,26,5,58,24c0,0,33,20,53,54c0,0,21,34,36,97c0,0,15,64,15,151c0,0,0,113,-19,173c0,0,-19,60,-56,82c0,0,-38,22,-107,22H89V836h72c0,0,165,0,240,-91c0,0,76,-91,76,-293c0,0,0,-107,26,-227c0,0,25,-119,83,-225H437c0,0,-43,101,-62,184c0,0,-24,-60,-51,-99c0,0,-26,-38,-56,-58C268,27,239,7,209,0c0,0,-30,-7,-71,-7Z" 
id="f1_k"
transform="scale(0.001,-0.001)" />

<path d="M139,0V836H485c0,0,206,0,290,-90c0,0,84,-89,84,-294V0H721V473c0,0,0,147,-49,202c0,0,-48,54,-186,54H277V0Z" 
id="f1_g"
transform="scale(0.001,-0.001)" />

<path d="M112,-5c0,0,-39,0,-97,11V113c0,0,48,-10,77,-10c0,0,53,0,70,42c0,0,17,43,17,164V729H50V836H501c0,0,107,0,179,-25c0,0,72,-25,112,-77c0,0,40,-51,57,-118c0,0,16,-67,16,-164V0H726V454c0,0,0,55,-3,92c0,0,-4,37,-17,75c0,0,-14,38,-38,59c0,0,-24,22,-65,36c0,0,-42,13,-102,13H318V309c0,0,0,-160,-46,-237C272,72,226,-5,112,-5Z" 
id="f1_e"
transform="scale(0.001,-0.001)" />

<path d="M180,0L66,836H203L258,443c0,0,36,1,64,6c0,0,28,6,49,18c0,0,20,12,35,26c0,0,15,13,26,36c0,0,11,24,17,44c0,0,7,20,12,55c0,0,6,34,9,60c0,0,3,26,8,71c0,0,4,45,9,77H610c0,0,-13,-194,-31,-271c0,0,-31,-127,-111,-179c0,0,-71,-45,-196,-50L304,107c0,0,73,0,130,5c0,0,56,6,111,21c0,0,54,15,94,40c0,0,40,25,77,64c0,0,37,39,63,94c0,0,25,54,46,128c0,0,21,73,34,166c0,0,13,94,20,211h138c0,0,-14,-124,-29,-218c0,0,-16,-94,-39,-179c0,0,-22,-85,-50,-146c0,0,-28,-61,-68,-112c0,0,-39,-51,-87,-84C744,97,696,65,632,42C632,42,568,19,492,10C492,10,417,0,320,0Z" 
id="f1_4"
transform="scale(0.001,-0.001)" />

<path d="M139,-317V836H278V-317Z" 
id="f1_h"
transform="scale(0.001,-0.001)" />

<path d="M71,-141V-15L289,62L66,836H210L416,109c0,0,99,42,153,98c0,0,53,56,80,155c0,0,26,98,26,262V836H817V624c0,0,0,-88,-7,-154c0,0,-7,-67,-25,-132c0,0,-18,-66,-51,-116c0,0,-33,-51,-84,-98c0,0,-50,-48,-123,-87c0,0,-72,-39,-169,-74L71,-141Z" 
id="f1_l"
transform="scale(0.001,-0.001)" />

<path d="M139,0V106H400c0,0,176,0,253,71c0,0,78,72,78,250c0,0,0,163,-80,233c0,0,-81,69,-250,69H278L277,564c0,0,-1,-54,26,-80c0,0,27,-25,82,-25c0,0,30,0,80,9V355c0,0,-61,-12,-111,-12c0,0,-100,0,-157,55c0,0,-58,55,-58,186V836H456c0,0,193,0,303,-109c0,0,110,-109,110,-309c0,0,0,-200,-110,-309C759,109,648,0,456,0Z" 
id="f1_m"
transform="scale(0.001,-0.001)" />

<path d="M522,92c0,0,247,0,247,333c0,0,0,88,-17,146c0,0,-17,58,-53,91c0,0,-35,33,-82,46c0,0,-48,14,-116,14H276V419c0,0,0,-327,246,-327Zm0,-112c0,0,-193,0,-289,109c0,0,-95,110,-95,337V836H501c0,0,213,0,309,-93c0,0,96,-94,96,-317c0,0,0,-227,-95,-337C811,89,715,-20,522,-20Z" 
id="f1_t"
transform="scale(0.001,-0.001)" />

<path d="M163,0V190H321V0Z" 
id="f1_j"
transform="scale(0.001,-0.001)" />

<path d="M66,0V106H564L66,836H228L516,413c0,0,3,2,9,6c0,0,17,13,27,21c0,0,10,8,26,27c0,0,17,20,26,40c0,0,9,21,16,54c0,0,7,34,7,75V836H764V698c0,0,0,-55,-7,-102c0,0,-7,-47,-16,-79c0,0,-10,-33,-27,-62c0,0,-18,-29,-32,-46c0,0,-14,-17,-37,-35c0,0,-22,-17,-36,-25c0,0,-13,-8,-36,-20L767,53V0Z" 
id="f1_b"
transform="scale(0.001,-0.001)" />

<path d="M522,-20c0,0,-196,0,-290,99c0,0,-94,100,-94,324V836H276V397c0,0,0,-86,16,-147c0,0,17,-60,50,-94c0,0,34,-34,77,-49c0,0,43,-15,103,-15c0,0,59,0,102,15c0,0,44,15,77,49c0,0,33,34,50,94c0,0,17,61,17,147c0,0,0,84,-8,143c0,0,-7,58,-25,105c0,0,-17,47,-51,69c0,0,-33,23,-83,23c0,0,-50,0,-119,-22V821c0,0,85,23,150,23c0,0,76,0,130,-30c0,0,53,-31,85,-90c0,0,31,-59,45,-138c0,0,13,-78,13,-183c0,0,0,-224,-93,-324c0,0,-94,-99,-290,-99Z" 
id="f1_w"
transform="scale(0.001,-0.001)" />

<path d="M495,0V729H66V836H781V729H634V0Z" 
id="f1_q"
transform="scale(0.001,-0.001)" />

<path d="M156,-317V454l139,56V-317ZM505,0L806,729H139V835H967V753L650,0Z" 
id="f1_p"
transform="scale(0.001,-0.001)" />

<path d="M66,0V107H332V555c0,0,0,92,-37,133c0,0,-37,41,-116,41H85V836h94c0,0,153,0,223,-66c0,0,69,-66,69,-231V0Z" 
id="f1_n"
transform="scale(0.001,-0.001)" />

<path d="M543,-317V369c0,0,0,85,-8,143c0,0,-8,58,-27,101c0,0,-18,44,-51,69c0,0,-33,24,-80,36c0,0,-48,11,-117,11H66V836H257c0,0,125,0,205,-23c0,0,80,-23,130,-79c0,0,50,-56,70,-143c0,0,20,-86,20,-222V-317Z" 
id="f1_2"
transform="scale(0.001,-0.001)" />

<path d="M439,0V33l93,19V500c0,0,0,62,-30,97c0,0,-31,36,-94,36c0,0,-67,0,-165,-22V52L338,33V0H35V33l84,19V649L35,668v33H235l7,-57c0,0,57,33,122,54c0,0,65,22,108,22c0,0,91,0,137,-53c0,0,47,-53,47,-154V52L741,33V0Z" 
id="f2_a"
transform="scale(0.001,-0.001)" />

<path d="M122,-200c0,0,99,170,148,338c0,0,49,169,49,342c0,0,0,172,-49,340c0,0,-49,168,-148,340H241c0,0,112,-176,168,-345c0,0,55,-169,55,-335c0,0,0,-167,-55,-337c0,0,-56,-168,-168,-343Z" 
id="f1_v"
transform="scale(0.001,-0.001)" />

<path d="M377,45c0,0,99,0,147,73c0,0,47,73,47,237c0,0,0,161,-47,233c0,0,-47,72,-147,72c0,0,-97,0,-141,-69c0,0,-44,-69,-44,-236c0,0,0,-169,45,-240c0,0,44,-70,140,-70Zm0,-59c0,0,-158,0,-238,94c0,0,-81,95,-81,274c0,0,0,178,81,272c0,0,80,94,244,94c0,0,160,0,241,-92c0,0,82,-92,82,-274c0,0,0,-368,-329,-368Z" 
id="f2_8"
transform="scale(0.001,-0.001)" />

<path d="M31,0V33l88,19V649L31,668v33H235l7,-87c0,0,44,37,121,71c0,0,76,35,121,35h11V530H463l-43,82c0,0,-37,0,-88,-10c0,0,-52,-10,-89,-26V52L363,33V0Z" 
id="f2_3"
transform="scale(0.001,-0.001)" />

<path d="M431,0V33L535,52V499c0,0,0,62,-32,96c0,0,-32,33,-95,33c0,0,-66,0,-163,-22V52L350,33V0H32V33l89,19V649L32,668v33H237l6,-57c0,0,56,32,119,54c0,0,62,22,110,22c0,0,52,0,95,-20c0,0,44,-19,66,-62c0,0,57,32,134,57c0,0,77,25,128,25c0,0,179,0,179,-207V52l90,-19V0H846V33L950,52V499c0,0,0,129,-119,129c0,0,-19,0,-45,-3c0,0,-26,-3,-52,-7c0,0,-25,-4,-49,-8c0,0,-23,-5,-39,-8c0,0,13,-41,13,-89V52L764,33V0Z" 
id="f2_p"
transform="scale(0.001,-0.001)" />

<path d="M284,67c0,0,51,0,88,12c0,0,37,12,74,30V358l-98,-3c0,0,-100,-4,-135,-39c0,0,-35,-35,-35,-117c0,0,0,-132,106,-132ZM233,-14c0,0,-179,0,-179,208c0,0,0,70,27,116c0,0,27,46,87,70c0,0,60,24,173,27l105,3V519c0,0,0,72,-26,107c0,0,-27,34,-82,34c0,0,-75,0,-137,-35L176,538H134V691c0,0,121,26,213,26c0,0,115,0,169,-47c0,0,54,-47,54,-144V52L657,33V0H465L451,70c0,0,-85,-84,-218,-84Z" 
id="f2_m"
transform="scale(0.001,-0.001)" />

<path d="M31,0V33L150,52v956L31,1026v34H274V52L394,33V0Z" 
id="f2_l"
transform="scale(0.001,-0.001)" />

<path d="M291,0V190H443V0Zm5,299V414c0,0,0,75,21,124c0,0,21,48,88,113l67,66c0,0,42,40,61,75c0,0,19,35,19,71c0,0,0,67,-48,108c0,0,-49,41,-130,41c0,0,-59,0,-125,-26c0,0,-67,-26,-139,-77v140c0,0,70,43,142,64c0,0,72,21,148,21c0,0,138,0,221,-72c0,0,83,-73,83,-191c0,0,0,-57,-27,-108c0,0,-27,-51,-94,-115L517,583c0,0,-34,-35,-49,-54c0,0,-14,-20,-20,-39c0,0,-5,-16,-7,-38c0,0,-2,-22,-2,-61V299Z" 
id="f1_1k"
transform="scale(0.001,-0.001)" />

<path d="M354,-200c0,0,-112,175,-167,343c0,0,-56,170,-56,337c0,0,0,166,55,335c0,0,55,169,168,345H473c0,0,-100,-172,-148,-340c0,0,-48,-168,-48,-340c0,0,0,-173,48,-342c0,0,49,-168,148,-338Z" 
id="f1_x"
transform="scale(0.001,-0.001)" />

<path d="M347,-317V284c0,0,0,59,-21,123c0,0,-21,64,-44,103c0,0,-23,40,-59,94L66,838H218L336,668c0,0,76,-109,120,-223c0,0,87,34,126,107c0,0,39,73,39,186v98H758V737c0,0,0,-82,-23,-152c0,0,-23,-69,-61,-116c0,0,-39,-47,-87,-78c0,0,-47,-31,-101,-45V-317Z" 
id="f1_1e"
transform="scale(0.001,-0.001)" />

<path d="M179,0V190H336V0Zm0,600V790H336V600Z" 
id="f1_15"
transform="scale(0.001,-0.001)" />

<path d="M557,-14c0,0,-199,0,-298,89c0,0,-99,90,-99,255V941L32,960v40H432V960L304,941V341c0,0,0,-273,264,-273c0,0,144,0,220,68c0,0,77,68,77,202V941L730,960v40h341V960L943,941V344c0,0,0,-180,-99,-269c0,0,-99,-89,-287,-89Z" 
id="f2_n"
transform="scale(0.001,-0.001)" />

<path d="M249,-14c0,0,-71,0,-107,42c0,0,-35,42,-35,119V639H15v33l93,29l76,159h47V701H391V639H231V161c0,0,0,-48,22,-73c0,0,22,-24,57,-24c0,0,44,0,106,12V26C416,26,389,8,340,-2c0,0,-49,-12,-91,-12Z" 
id="f2_h"
transform="scale(0.001,-0.001)" />

<path d="M32,0V33L151,52V649L52,668v33H275V52L395,33V0ZM201,850c0,0,-32,0,-56,24c0,0,-24,24,-24,56c0,0,0,34,24,58c0,0,24,24,56,24c0,0,34,0,58,-24c0,0,24,-24,24,-58c0,0,0,-32,-24,-56c0,0,-24,-24,-58,-24Z" 
id="f2_4"
transform="scale(0.001,-0.001)" />

<path d="M495,413c0,0,0,133,-34,190c0,0,-34,57,-105,57c0,0,-78,0,-119,-63c0,0,-42,-62,-42,-184ZM374,-14c0,0,-163,0,-239,87c0,0,-75,88,-75,283c0,0,0,183,77,273c0,0,76,91,219,91c0,0,269,0,269,-306V353H194V340c0,0,0,-103,23,-160c0,0,22,-57,70,-87c0,0,47,-29,124,-29c0,0,40,0,96,6c0,0,55,7,91,15V43C598,43,562,20,500,3c0,0,-61,-17,-126,-17Z" 
id="f2_2"
transform="scale(0.001,-0.001)" />

<path d="M383,64c0,0,44,0,87,7c0,0,43,7,65,17V645c0,0,-67,13,-152,13c0,0,-194,0,-194,-309c0,0,0,-143,48,-214c0,0,47,-71,146,-71Zm56,-389v35l96,18V-77c0,0,0,73,7,124c0,0,-79,-61,-200,-61c0,0,-287,0,-287,362c0,0,0,180,81,276c0,0,81,96,237,96c0,0,84,0,166,-18l67,33h53V-272l77,-18v-35Z" 
id="f2_1g"
transform="scale(0.001,-0.001)" />

<path d="M289,-14c0,0,-179,0,-179,205V649L20,668v33H233V200c0,0,0,-128,120,-128c0,0,92,0,173,23V649L420,668v33H649V52L738,33V0H533l-6,57C527,57,474,28,405,7c0,0,-69,-21,-116,-21Z" 
id="f2_f"
transform="scale(0.001,-0.001)" />

<path d="M383,64c0,0,85,0,152,28V645c0,0,-67,13,-152,13c0,0,-194,0,-194,-314c0,0,0,-141,48,-211c0,0,48,-69,146,-69ZM342,-14c0,0,-287,0,-287,358c0,0,0,184,82,280c0,0,81,96,239,96c0,0,81,0,163,-18c0,0,-4,25,-4,124v182l-118,18v34H659V52L745,33V0H548l-9,52c0,0,-84,-66,-197,-66Z" 
id="f2_e"
transform="scale(0.001,-0.001)" />

<path d="M278,-14c0,0,-52,0,-115,11c0,0,-63,10,-99,23V193H98L134,95c0,0,56,-50,146,-50c0,0,144,0,144,123c0,0,0,91,-114,130l-66,21c0,0,-75,25,-110,50c0,0,-34,26,-53,63c0,0,-18,36,-18,89c0,0,0,92,63,145c0,0,63,54,170,54c0,0,77,0,193,-23V544H454l-32,81c0,0,-39,35,-124,35c0,0,-61,0,-92,-30c0,0,-32,-30,-32,-80c0,0,0,-43,29,-72c0,0,28,-29,86,-48c0,0,110,-38,144,-55c0,0,33,-17,57,-42c0,0,23,-25,36,-57c0,0,13,-32,13,-79c0,0,0,-104,-66,-158c0,0,-66,-53,-195,-53Z" 
id="f2_g"
transform="scale(0.001,-0.001)" />

<path d="M399,-14c0,0,-341,0,-341,370c0,0,0,175,87,269c0,0,87,95,249,95c0,0,101,0,220,-23V501H573L541,625c0,0,-62,35,-149,35c0,0,-200,0,-200,-304c0,0,0,-158,61,-225c0,0,61,-67,189,-67c0,0,109,0,189,24V43C631,43,595,16,530,1c0,0,-64,-15,-131,-15Z" 
id="f2_5"
transform="scale(0.001,-0.001)" />


</defs>
</svg>