<?xml version="1.0" encoding="UTF-8" standalone="no"?>
<!DOCTYPE svg PUBLIC "-//W3C//DTD SVG 1.1//EN"
"http://www.w3.org/Graphics/SVG/1.1/DTD/svg11.dtd">
<svg viewBox="0 0 909 1286" version="1.1" xmlns="http://www.w3.org/2000/svg" xmlns:xlink="http://www.w3.org/1999/xlink">
<defs>
<clipPath id="c0_3"><path d="M0,1286.2V0H909.4V1286.2Z" /></clipPath>
</defs>
<g clip-path="url(#c0_3)">
<g fill="#000000" >
<use xlink:href="#f0_z" transform="matrix(12,0,0,12,138,127.1)" />
<use xlink:href="#f0_3" transform="matrix(12,0,0,12,149.7,127.1)" />
<use xlink:href="#f0_t" transform="matrix(12,0,0,12,153.8,127.1)" />
<use xlink:href="#f0_6" transform="matrix(12,0,0,12,165.7,127.1)" />
<use xlink:href="#f0_n" transform="matrix(12,0,0,12,170.6,127.1)" />
<use xlink:href="#f0_e" transform="matrix(12,0,0,12,185.7,127.1)" />
<use xlink:href="#f0_o" transform="matrix(12,0,0,12,197.6,127.1)" />
<use xlink:href="#f0_e" transform="matrix(12,0,0,12,208.2,127.1)" />
<use xlink:href="#f0_k" transform="matrix(12,0,0,12,227.7,127.1)" />
<use xlink:href="#f0_e" transform="matrix(12,0,0,12,233.5,127.1)" />
<use xlink:href="#f0_7" transform="matrix(12,0,0,12,245.4,127.1)" />
<use xlink:href="#f0_5" transform="matrix(12,0,0,12,251.8,127.1)" />
<use xlink:href="#f0_g" transform="matrix(12,0,0,12,268.9,127.1)" />
<use xlink:href="#f0_u" transform="matrix(12,0,0,12,279,127.1)" />
<use xlink:href="#f0_j" transform="matrix(12,0,0,12,290.9,127.1)" />
<use xlink:href="#f0_e" transform="matrix(12,0,0,12,310.7,127.1)" />
<use xlink:href="#f0_a" transform="matrix(12,0,0,12,322.6,127.1)" />
<use xlink:href="#f0_c" transform="matrix(12,0,0,12,340.5,127.1)" />
<use xlink:href="#f0_3" transform="matrix(12,0,0,12,353.4,127.1)" />
<use xlink:href="#f0_c" transform="matrix(12,0,0,12,357.6,127.1)" />
<use xlink:href="#f0_e" transform="matrix(12,0,0,12,378.1,127.1)" />
<use xlink:href="#f0_u" transform="matrix(12,0,0,12,390.1,127.1)" />
<use xlink:href="#f0_b" transform="matrix(12,0,0,12,402,127.1)" />
<use xlink:href="#f0_c" transform="matrix(12,0,0,12,414.4,127.1)" />
<use xlink:href="#f0_e" transform="matrix(12,0,0,12,434.9,127.1)" />
<use xlink:href="#f0_n" transform="matrix(12,0,0,12,446.9,127.1)" />
<use xlink:href="#f0_g" transform="matrix(12,0,0,12,454,127.1)" />
<use xlink:href="#f0_3" transform="matrix(12,0,0,12,471.7,127.1)" />
<use xlink:href="#f0_5" transform="matrix(12,0,0,12,475.8,127.1)" />
<use xlink:href="#f0_4" transform="matrix(12,0,0,12,492.9,127.1)" />
<use xlink:href="#f0_c" transform="matrix(12,0,0,12,503.3,127.1)" />
<use xlink:href="#f0_r" transform="matrix(12,0,0,12,516.3,127.1)" />
<use xlink:href="#f0_e" transform="matrix(12,0,0,12,529.3,127.1)" />
<use xlink:href="#f0_e" transform="matrix(12,0,0,12,541.2,127.1)" />
<use xlink:href="#f0_b" transform="matrix(12,0,0,12,553.1,127.1)" />
<use xlink:href="#f0_4" transform="matrix(12,0,0,12,573.1,127.1)" />
<use xlink:href="#f0_6" transform="matrix(12,0,0,12,583.4,127.1)" />
<use xlink:href="#f0_4" transform="matrix(12,0,0,12,588.5,127.1)" />
<use xlink:href="#f0_o" transform="matrix(12,0,0,12,598.8,127.1)" />
<use xlink:href="#f0_p" transform="matrix(12,0,0,12,617,127.1)" />
<use xlink:href="#f0_j" transform="matrix(12,0,0,12,626.8,127.1)" />
<use xlink:href="#f0_k" transform="matrix(12,0,0,12,646.4,127.1)" />
<use xlink:href="#f0_6" transform="matrix(12,0,0,12,652.2,127.1)" />
<use xlink:href="#f0_n" transform="matrix(12,0,0,12,657.3,127.1)" />
<use xlink:href="#f0_j" transform="matrix(12,0,0,12,664.6,127.1)" />
<use xlink:href="#f0_h" transform="matrix(12,0,0,12,676.8,127.1)" />
<use xlink:href="#f0_b" transform="matrix(12,0,0,12,687.7,127.1)" />
<use xlink:href="#f0_e" transform="matrix(12,0,0,12,700.2,127.1)" />
<use xlink:href="#f0_c" transform="matrix(12,0,0,12,712.1,127.1)" />
<use xlink:href="#f0_e" transform="matrix(12,0,0,12,732.7,127.1)" />
<use xlink:href="#f0_a" transform="matrix(12,0,0,12,744.6,127.1)" />
<use xlink:href="#f0_3" transform="matrix(12,0,0,12,755,127.1)" />
<use xlink:href="#f0_b" transform="matrix(12,0,0,12,759,127.1)" />
<use xlink:href="#f0_6" transform="matrix(12,0,0,12,138.3,148.5)" />
<use xlink:href="#f0_n" transform="matrix(12,0,0,12,143.3,148.5)" />
<use xlink:href="#f0_b" transform="matrix(12,0,0,12,150.6,148.5)" />
<use xlink:href="#f0_b" transform="matrix(12,0,0,12,163,148.5)" />
<use xlink:href="#f0_a" transform="matrix(12,0,0,12,183.1,148.5)" />
<use xlink:href="#f0_f" transform="matrix(12,0,0,12,193.5,148.5)" />
<use xlink:href="#f0_n" transform="matrix(12,0,0,12,205,148.5)" />
<use xlink:href="#f0_j" transform="matrix(12,0,0,12,219.8,148.5)" />
<use xlink:href="#f0_6" transform="matrix(12,0,0,12,232,148.5)" />
<use xlink:href="#f0_e" transform="matrix(12,0,0,12,237,148.5)" />
<use xlink:href="#f0_p" transform="matrix(12,0,0,12,256.5,148.5)" />
<use xlink:href="#f0_j" transform="matrix(12,0,0,12,266.3,148.5)" />
<use xlink:href="#f0_9" transform="matrix(12,0,0,12,286,148.5)" />
<use xlink:href="#f0_r" transform="matrix(12,0,0,12,291.8,148.5)" />
<use xlink:href="#f0_4" transform="matrix(12,0,0,12,304.8,148.5)" />
<use xlink:href="#f0_6" transform="matrix(12,0,0,12,315.1,148.5)" />
<use xlink:href="#f0_l" transform="matrix(12,0,0,12,320.2,148.5)" />
<use xlink:href="#f0_3" transform="matrix(12,0,0,12,332.1,148.5)" />
<use xlink:href="#f0_n" transform="matrix(12,0,0,12,336.2,148.5)" />
<use xlink:href="#f0_a" transform="matrix(12,0,0,12,343.5,148.5)" />
<use xlink:href="#f0_3" transform="matrix(12,0,0,12,353.9,148.5)" />
<use xlink:href="#f0_o" transform="matrix(12,0,0,12,358,148.5)" />
<use xlink:href="#f0_e" transform="matrix(12,0,0,12,376.2,148.5)" />
<use xlink:href="#f0_3" transform="matrix(12,0,0,12,388.1,148.5)" />
<use xlink:href="#f0_e" transform="matrix(12,0,0,12,392.2,148.5)" />
<use xlink:href="#f0_3" transform="matrix(12,0,0,12,411.7,148.5)" />
<use xlink:href="#f0_a" transform="matrix(12,0,0,12,415.8,148.5)" />
<use xlink:href="#f0_m" transform="matrix(12,0,0,12,426.2,148.5)" />
<use xlink:href="#f0_o" transform="matrix(12,0,0,12,437.7,148.5)" />
<use xlink:href="#f0_a" transform="matrix(12,0,0,12,448.2,148.5)" />
<use xlink:href="#f0_9" transform="matrix(12,0,0,12,466,148.5)" />
<use xlink:href="#f0_i" transform="matrix(12,0,0,12,471.9,148.5)" />
<use xlink:href="#f0_4" transform="matrix(12,0,0,12,483.9,148.5)" />
<use xlink:href="#f0_b" transform="matrix(12,0,0,12,494.3,148.5)" />
<use xlink:href="#f0_6" transform="matrix(12,0,0,12,506.7,148.5)" />
<use xlink:href="#f0_j" transform="matrix(12,0,0,12,511.7,148.5)" />
<use xlink:href="#f0_i" transform="matrix(12,0,0,12,531.3,148.5)" />
<use xlink:href="#f0_j" transform="matrix(12,0,0,12,543.4,148.5)" />
<use xlink:href="#f0_e" transform="matrix(12,0,0,12,563.2,148.5)" />
<use xlink:href="#f0_b" transform="matrix(12,0,0,12,575.1,148.5)" />
<use xlink:href="#f0_v" transform="matrix(12,0,0,12,587.5,148.5)" />
<use xlink:href="#f0_w" transform="matrix(12,0,0,12,603.7,148.5)" />
<use xlink:href="#f0_s" transform="matrix(12,0,0,12,609.8,148.5)" />
<use xlink:href="#f0_6" transform="matrix(12,0,0,12,617.3,148.5)" />
<use xlink:href="#f0_a" transform="matrix(12,0,0,12,622.3,148.5)" />
<use xlink:href="#f0_j" transform="matrix(12,0,0,12,632.7,148.5)" />
<use xlink:href="#f0_3" transform="matrix(12,0,0,12,644.9,148.5)" />
<use xlink:href="#f0_g" transform="matrix(12,0,0,12,648.9,148.5)" />
<use xlink:href="#f0_a" transform="matrix(12,0,0,12,658.9,148.5)" />
<use xlink:href="#f0_i" transform="matrix(12,0,0,12,676.8,148.5)" />
<use xlink:href="#f0_f" transform="matrix(12,0,0,12,688.8,148.5)" />
<use xlink:href="#f0_t" transform="matrix(12,0,0,12,700.3,148.5)" />
<use xlink:href="#f0_6" transform="matrix(12,0,0,12,712.2,148.5)" />
<use xlink:href="#f0_n" transform="matrix(12,0,0,12,717.2,148.5)" />
<use xlink:href="#f0_i" transform="matrix(12,0,0,12,732,148.5)" />
<use xlink:href="#f0_6" transform="matrix(12,0,0,12,743.9,148.5)" />
<use xlink:href="#f0_b" transform="matrix(12,0,0,12,748.9,148.5)" />
<use xlink:href="#f0_g" transform="matrix(12,0,0,12,761.3,148.5)" />
<use xlink:href="#f0_k" transform="matrix(12,0,0,12,179.1,169.9)" />
<use xlink:href="#f0_o" transform="matrix(12,0,0,12,184.9,169.9)" />
<use xlink:href="#f0_5" transform="matrix(12,0,0,12,195.4,169.9)" />
<use xlink:href="#f0_4" transform="matrix(12,0,0,12,205,169.9)" />
<use xlink:href="#f0_3" transform="matrix(12,0,0,12,221.4,169.9)" />
<use xlink:href="#f0_a" transform="matrix(12,0,0,12,225.5,169.9)" />
<use xlink:href="#f0_5" transform="matrix(12,0,0,12,235.9,169.9)" />
<use xlink:href="#f0_a" transform="matrix(12,0,0,12,251.3,169.9)" />
<use xlink:href="#f0_c" transform="matrix(12,0,0,12,261.7,169.9)" />
<use xlink:href="#f0_s" transform="matrix(12,0,0,12,280.6,169.9)" />
<use xlink:href="#f0_6" transform="matrix(12,0,0,12,288.1,169.9)" />
<use xlink:href="#f0_t" transform="matrix(12,0,0,12,293,169.9)" />
<use xlink:href="#f0_e" transform="matrix(12,0,0,12,310.7,169.9)" />
<use xlink:href="#f0_7" transform="matrix(12,0,0,12,322.6,169.9)" />
<use xlink:href="#f0_r" transform="matrix(12,0,0,12,334.9,169.9)" />
<use xlink:href="#f0_4" transform="matrix(12,0,0,12,347.9,169.9)" />
<use xlink:href="#f0_6" transform="matrix(12,0,0,12,358.2,169.9)" />
<use xlink:href="#f0_l" transform="matrix(12,0,0,12,363.2,169.9)" />
<use xlink:href="#f0_n" transform="matrix(12,0,0,12,375.1,169.9)" />
<use xlink:href="#f0_3" transform="matrix(12,0,0,12,382.4,169.9)" />
<use xlink:href="#f0_a" transform="matrix(12,0,0,12,386.5,169.9)" />
<use xlink:href="#f0_3" transform="matrix(12,0,0,12,396.9,169.9)" />
<use xlink:href="#f0_o" transform="matrix(12,0,0,12,401,169.9)" />
<use xlink:href="#f0_c" transform="matrix(12,0,0,12,411.6,169.9)" />
<use xlink:href="#f0_c" transform="matrix(12,0,0,12,430.5,169.9)" />
<use xlink:href="#f0_u" transform="matrix(12,0,0,12,443.5,169.9)" />
<use xlink:href="#f0_n" transform="matrix(12,0,0,12,455.4,169.9)" />
<use xlink:href="#f0_a" transform="matrix(12,0,0,12,462.7,169.9)" />
<use xlink:href="#f0_c" transform="matrix(12,0,0,12,478.9,169.9)" />
<use xlink:href="#f0_b" transform="matrix(12,0,0,12,491.9,169.9)" />
<use xlink:href="#f0_b" transform="matrix(12,0,0,12,504.3,169.9)" />
<use xlink:href="#f0_q" transform="matrix(12,0,0,12,522.6,169.9)" />
<use xlink:href="#f0_i" transform="matrix(12,0,0,12,527.6,169.9)" />
<use xlink:href="#f0_3" transform="matrix(12,0,0,12,539.7,169.9)" />
<use xlink:href="#f0_n" transform="matrix(12,0,0,12,543.8,169.9)" />
<use xlink:href="#f0_4" transform="matrix(12,0,0,12,557,169.9)" />
<use xlink:href="#f0_o" transform="matrix(12,0,0,12,567.4,169.9)" />
<use xlink:href="#f0_5" transform="matrix(12,0,0,12,578,169.9)" />
<use xlink:href="#f0_6" transform="matrix(12,0,0,12,593.4,169.9)" />
<use xlink:href="#f0_3" transform="matrix(12,0,0,12,598.4,169.9)" />
<use xlink:href="#f0_c" transform="matrix(12,0,0,12,602.5,169.9)" />
<use xlink:href="#f0_5" transform="matrix(12,0,0,12,615.5,169.9)" />
<use xlink:href="#f0_m" transform="matrix(12,0,0,12,625.1,169.9)" />
<use xlink:href="#f0_k" transform="matrix(12,0,0,12,642.5,169.9)" />
<use xlink:href="#f0_v" transform="matrix(12,0,0,12,648.3,169.9)" />
<use xlink:href="#f0_a" transform="matrix(12,0,0,12,656.7,169.9)" />
<use xlink:href="#f0_s" transform="matrix(12,0,0,12,667.1,169.9)" />
<use xlink:href="#f0_4" transform="matrix(12,0,0,12,674.6,169.9)" />
<use xlink:href="#f0_e" transform="matrix(12,0,0,12,685,169.9)" />
<use xlink:href="#f0_i" transform="matrix(12,0,0,12,702.7,169.9)" />
<use xlink:href="#f0_j" transform="matrix(12,0,0,12,714.8,169.9)" />
<use xlink:href="#f0_4" transform="matrix(12,0,0,12,732.9,169.9)" />
<use xlink:href="#f0_o" transform="matrix(12,0,0,12,743.3,169.9)" />
<use xlink:href="#f0_c" transform="matrix(12,0,0,12,753.8,169.9)" />
<use xlink:href="#f0_6" transform="matrix(12,0,0,12,766.7,169.9)" />
<use xlink:href="#f0_3" transform="matrix(12,0,0,12,137.8,191.3)" />
<use xlink:href="#f0_m" transform="matrix(12,0,0,12,141.9,191.3)" />
<use xlink:href="#f0_l" transform="matrix(12,0,0,12,153.4,191.3)" />
<use xlink:href="#f0_r" transform="matrix(12,0,0,12,165.3,191.3)" />
<use xlink:href="#f0_6" transform="matrix(12,0,0,12,178.2,191.3)" />
<use xlink:href="#f0_2" transform="matrix(12,0,0,12,195.9,191.3)" />
<use xlink:href="#f0_3" transform="matrix(12,0,0,12,208.1,191.3)" />
<use xlink:href="#f0_s" transform="matrix(12,0,0,12,212.2,191.3)" />
<use xlink:href="#f0_6" transform="matrix(12,0,0,12,219.7,191.3)" />
<use xlink:href="#f0_a" transform="matrix(12,0,0,12,224.7,191.3)" />
<use xlink:href="#f0_j" transform="matrix(12,0,0,12,235.1,191.3)" />
<use xlink:href="#f0_3" transform="matrix(12,0,0,12,247.4,191.3)" />
<use xlink:href="#f0_g" transform="matrix(12,0,0,12,251.3,191.3)" />
<use xlink:href="#f0_6" transform="matrix(12,0,0,12,274.2,191.3)" />
<use xlink:href="#f0_o" transform="matrix(12,0,0,12,279.2,191.3)" />
<use xlink:href="#f0_a" transform="matrix(12,0,0,12,289.8,191.3)" />
<use xlink:href="#f0_6" transform="matrix(12,0,0,12,300.2,191.3)" />
<use xlink:href="#f0_c" transform="matrix(12,0,0,12,305.1,191.3)" />
<use xlink:href="#f0_3" transform="matrix(12,0,0,12,318.1,191.3)" />
<use xlink:href="#f0_2" transform="matrix(12,0,0,12,335,191.3)" />
<use xlink:href="#f0_3" transform="matrix(12,0,0,12,347.2,191.3)" />
<use xlink:href="#f0_j" transform="matrix(12,0,0,12,351.3,191.3)" />
<use xlink:href="#f0_o" transform="matrix(12,0,0,12,363.5,191.3)" />
<use xlink:href="#f0_e" transform="matrix(12,0,0,12,374.1,191.3)" />
<use xlink:href="#f0_2" transform="matrix(12,0,0,12,398.6,191.3)" />
<use xlink:href="#f0_3" transform="matrix(12,0,0,12,410.8,191.3)" />
<use xlink:href="#f0_r" transform="matrix(12,0,0,12,415,191.3)" />
<use xlink:href="#f0_4" transform="matrix(12,0,0,12,427.9,191.3)" />
<use xlink:href="#f0_f" transform="matrix(12,0,0,12,438.3,191.3)" />
<use xlink:href="#f0_o" transform="matrix(12,0,0,12,449.7,191.3)" />
<use xlink:href="#f0_k" transform="matrix(12,0,0,12,472.9,191.3)" />
<use xlink:href="#f0_i" transform="matrix(12,0,0,12,478.8,191.3)" />
<use xlink:href="#f0_6" transform="matrix(12,0,0,12,490.8,191.3)" />
<use xlink:href="#f0_c" transform="matrix(12,0,0,12,495.8,191.3)" />
<use xlink:href="#f0_g" transform="matrix(12,0,0,12,508.8,191.3)" />
<use xlink:href="#f0_u" transform="matrix(12,0,0,12,518.9,191.3)" />
<use xlink:href="#f0_2" transform="matrix(12,0,0,12,543.4,191.3)" />
<use xlink:href="#f0_3" transform="matrix(12,0,0,12,555.5,191.3)" />
<use xlink:href="#f0_a" transform="matrix(12,0,0,12,559.6,191.3)" />
<use xlink:href="#f0_3" transform="matrix(12,0,0,12,570,191.3)" />
<use xlink:href="#f0_b" transform="matrix(12,0,0,12,574.1,191.3)" />
<use xlink:href="#f0_i" transform="matrix(12,0,0,12,599.3,191.3)" />
<use xlink:href="#f0_6" transform="matrix(12,0,0,12,611.3,191.3)" />
<use xlink:href="#f0_c" transform="matrix(12,0,0,12,616.3,191.3)" />
<use xlink:href="#f0_5" transform="matrix(12,0,0,12,629.3,191.3)" />
<use xlink:href="#f0_4" transform="matrix(12,0,0,12,638.9,191.3)" />
<use xlink:href="#f0_n" transform="matrix(12,0,0,12,649.3,191.3)" />
<use xlink:href="#f0_9" transform="matrix(12,0,0,12,669.3,191.3)" />
<use xlink:href="#f0_e" transform="matrix(12,0,0,12,675.1,191.3)" />
<use xlink:href="#f0_b" transform="matrix(12,0,0,12,687,191.3)" />
<use xlink:href="#f0_6" transform="matrix(12,0,0,12,699.5,191.3)" />
<use xlink:href="#f0_g" transform="matrix(12,0,0,12,704.4,191.3)" />
<use xlink:href="#f0_q" transform="matrix(12,0,0,12,727.1,191.3)" />
<use xlink:href="#f0_f" transform="matrix(12,0,0,12,732.2,191.3)" />
<use xlink:href="#f0_6" transform="matrix(12,0,0,12,743.6,191.3)" />
<use xlink:href="#f0_j" transform="matrix(12,0,0,12,748.6,191.3)" />
<use xlink:href="#f0_o" transform="matrix(12,0,0,12,760.8,191.3)" />
<use xlink:href="#f0_2" transform="matrix(12,0,0,12,137.7,212.7)" />
<use xlink:href="#f0_j" transform="matrix(12,0,0,12,149.7,212.7)" />
<use xlink:href="#f0_2" transform="matrix(12,0,0,12,168.5,212.7)" />
<use xlink:href="#f0_s" transform="matrix(12,0,0,12,180.7,212.7)" />
<use xlink:href="#f0_9" transform="matrix(12,0,0,12,194.7,212.7)" />
<use xlink:href="#f0_4" transform="matrix(12,0,0,12,200.5,212.7)" />
<use xlink:href="#f0_c" transform="matrix(12,0,0,12,210.9,212.7)" />
<use xlink:href="#f0_r" transform="matrix(12,0,0,12,223.9,212.7)" />
<use xlink:href="#f0_e" transform="matrix(12,0,0,12,236.9,212.7)" />
<use xlink:href="#f0_e" transform="matrix(12,0,0,12,248.8,212.7)" />
<use xlink:href="#f0_q" transform="matrix(12,0,0,12,267.1,212.7)" />
<use xlink:href="#f0_b" transform="matrix(12,0,0,12,272,212.7)" />
<use xlink:href="#f0_q" transform="matrix(12,0,0,12,290.9,212.7)" />
<use xlink:href="#f0_i" transform="matrix(12,0,0,12,295.9,212.7)" />
<use xlink:href="#f0_6" transform="matrix(12,0,0,12,307.9,212.7)" />
<use xlink:href="#f0_j" transform="matrix(12,0,0,12,313,212.7)" />
<use xlink:href="#f0_q" transform="matrix(12,0,0,12,331.5,212.7)" />
<use xlink:href="#f0_3" transform="matrix(12,0,0,12,336.6,212.7)" />
<use xlink:href="#f0_o" transform="matrix(12,0,0,12,340.7,212.7)" />
<use xlink:href="#f0_i" transform="matrix(12,0,0,12,351.2,212.7)" />
<use xlink:href="#f0_c" transform="matrix(12,0,0,12,363.3,212.7)" />
<use xlink:href="#f0_q" transform="matrix(12,0,0,12,382.6,212.7)" />
<use xlink:href="#f0_5" transform="matrix(12,0,0,12,387.6,212.7)" />
<use xlink:href="#f0_i" transform="matrix(12,0,0,12,397.3,212.7)" />
<use xlink:href="#f0_3" transform="matrix(12,0,0,12,409.3,212.7)" />
<use xlink:href="#f0_3" transform="matrix(12,0,0,12,413.3,212.7)" />
<use xlink:href="#f0_p" transform="matrix(12,0,0,12,423.9,212.7)" />
<use xlink:href="#f0_j" transform="matrix(12,0,0,12,433.7,212.7)" />
<use xlink:href="#f0_9" transform="matrix(12,0,0,12,452.5,212.7)" />
<use xlink:href="#f0_q" transform="matrix(12,0,0,12,458.3,212.7)" />
<use xlink:href="#f0_5" transform="matrix(12,0,0,12,463.3,212.7)" />
<use xlink:href="#f0_3" transform="matrix(12,0,0,12,479.3,212.7)" />
<use xlink:href="#f0_n" transform="matrix(12,0,0,12,483.4,212.7)" />
<use xlink:href="#f0_f" transform="matrix(12,0,0,12,490.8,212.7)" />
<use xlink:href="#f0_a" transform="matrix(12,0,0,12,502.2,212.7)" />
<use xlink:href="#f0_4" transform="matrix(12,0,0,12,518.9,212.7)" />
<use xlink:href="#f0_3" transform="matrix(12,0,0,12,529.3,212.7)" />
<use xlink:href="#f0_5" transform="matrix(12,0,0,12,533.4,212.7)" />
<use xlink:href="#f0_i" transform="matrix(12,0,0,12,543.1,212.7)" />
<use xlink:href="#f0_j" transform="matrix(12,0,0,12,561.5,212.7)" />
<use xlink:href="#f0_a" transform="matrix(12,0,0,12,573.7,212.7)" />
<use xlink:href="#f0_2" transform="matrix(12,0,0,12,590.7,212.7)" />
<use xlink:href="#f0_3" transform="matrix(12,0,0,12,602.7,212.7)" />
<use xlink:href="#f0_a" transform="matrix(12,0,0,12,606.8,212.7)" />
<use xlink:href="#f0_3" transform="matrix(12,0,0,12,617.2,212.7)" />
<use xlink:href="#f0_b" transform="matrix(12,0,0,12,621.3,212.7)" />
<use xlink:href="#f0_e" transform="matrix(12,0,0,12,633.8,212.7)" />
<use xlink:href="#f0_b" transform="matrix(12,0,0,12,645.6,212.7)" />
<use xlink:href="#f0_r" transform="matrix(12,0,0,12,664.6,212.7)" />
<use xlink:href="#f0_a" transform="matrix(12,0,0,12,677.6,212.7)" />
<use xlink:href="#f0_u" transform="matrix(12,0,0,12,688,212.7)" />
<use xlink:href="#f0_k" transform="matrix(12,0,0,12,706.5,212.7)" />
<use xlink:href="#f0_2" transform="matrix(12,0,0,12,712.3,212.7)" />
<use xlink:href="#f0_3" transform="matrix(12,0,0,12,724.3,212.7)" />
<use xlink:href="#f0_4" transform="matrix(12,0,0,12,728.4,212.7)" />
<use xlink:href="#f0_6" transform="matrix(12,0,0,12,738.8,212.7)" />
<use xlink:href="#f0_f" transform="matrix(12,0,0,12,743.8,212.7)" />
<use xlink:href="#f0_3" transform="matrix(12,0,0,12,755.3,212.7)" />
<use xlink:href="#f0_t" transform="matrix(12,0,0,12,759.3,212.7)" />
<use xlink:href="#f0_k" transform="matrix(12,0,0,12,387.9,234.1)" />
<use xlink:href="#f0_r" transform="matrix(12,0,0,12,393.7,234.1)" />
<use xlink:href="#f0_4" transform="matrix(12,0,0,12,406.7,234.1)" />
<use xlink:href="#f0_6" transform="matrix(12,0,0,12,417.1,234.1)" />
<use xlink:href="#f0_l" transform="matrix(12,0,0,12,422.1,234.1)" />
<use xlink:href="#f0_n" transform="matrix(12,0,0,12,434,234.1)" />
<use xlink:href="#f0_3" transform="matrix(12,0,0,12,441.3,234.1)" />
<use xlink:href="#f0_a" transform="matrix(12,0,0,12,445.4,234.1)" />
<use xlink:href="#f0_3" transform="matrix(12,0,0,12,455.8,234.1)" />
<use xlink:href="#f0_o" transform="matrix(12,0,0,12,459.9,234.1)" />
<use xlink:href="#f0_e" transform="matrix(12,0,0,12,470.5,234.1)" />
<use xlink:href="#f0_2" transform="matrix(12,0,0,12,488.2,234.1)" />
<use xlink:href="#f0_m" transform="matrix(12,0,0,12,500.4,234.1)" />
<use xlink:href="#f0_j" transform="matrix(12,0,0,12,517.7,234.1)" />
<use xlink:href="#f0_b" transform="matrix(12,0,0,12,529.9,234.1)" />
<use xlink:href="#f0_s" transform="matrix(12,0,0,12,542.4,234.1)" />
<use xlink:href="#f0_6" transform="matrix(12,0,0,12,549.9,234.1)" />
<use xlink:href="#f0_g" transform="matrix(12,0,0,12,554.9,234.1)" />
<use xlink:href="#f0_o" transform="matrix(12,0,0,12,565,234.1)" />
<use xlink:href="#f0_6" transform="matrix(12,0,0,12,581.3,234.1)" />
<use xlink:href="#f0_b" transform="matrix(12,0,0,12,586.4,234.1)" />
<use xlink:href="#f0_5" transform="matrix(12,0,0,12,598.7,234.1)" />
<use xlink:href="#f0_9" transform="matrix(12,0,0,12,614.3,234.1)" />
<use xlink:href="#f0_e" transform="matrix(12,0,0,12,620.1,234.1)" />
<use xlink:href="#f0_n" transform="matrix(12,0,0,12,632,234.1)" />
<use xlink:href="#f0_6" transform="matrix(12,0,0,12,639.4,234.1)" />
<use xlink:href="#f0_c" transform="matrix(12,0,0,12,644.4,234.1)" />
<use xlink:href="#f0_j" transform="matrix(12,0,0,12,657.4,234.1)" />
<use xlink:href="#f0_4" transform="matrix(12,0,0,12,669.6,234.1)" />
<use xlink:href="#f0_e" transform="matrix(12,0,0,12,680,234.1)" />
<use xlink:href="#f0_2" transform="matrix(12,0,0,12,697.8,234.1)" />
<use xlink:href="#f0_m" transform="matrix(12,0,0,12,710,234.1)" />
<use xlink:href="#f0_f" transform="matrix(12,0,0,12,721.5,234.1)" />
<use xlink:href="#f0_o" transform="matrix(12,0,0,12,732.9,234.1)" />
<use xlink:href="#f0_j" transform="matrix(12,0,0,12,749.3,234.1)" />
<use xlink:href="#f0_a" transform="matrix(12,0,0,12,761.5,234.1)" />
<use xlink:href="#f0_i" transform="matrix(12,0,0,12,138.3,255.4)" />
<use xlink:href="#f0_6" transform="matrix(12,0,0,12,150.3,255.4)" />
<use xlink:href="#f0_t" transform="matrix(12,0,0,12,155.3,255.4)" />
<use xlink:href="#f0_n" transform="matrix(12,0,0,12,167.2,255.4)" />
<use xlink:href="#f0_a" transform="matrix(12,0,0,12,174.6,255.4)" />
<use xlink:href="#f0_c" transform="matrix(12,0,0,12,190.8,255.4)" />
<use xlink:href="#f0_3" transform="matrix(12,0,0,12,203.8,255.4)" />
<use xlink:href="#f0_9" transform="matrix(12,0,0,12,213.9,255.4)" />
<use xlink:href="#f0_e" transform="matrix(12,0,0,12,219.8,255.4)" />
<use xlink:href="#f0_4" transform="matrix(12,0,0,12,231.7,255.4)" />
<use xlink:href="#f0_h" transform="matrix(12,0,0,12,242,255.4)" />
<use xlink:href="#f0_r" transform="matrix(12,0,0,12,252.9,255.4)" />
<use xlink:href="#f0_2" transform="matrix(12,0,0,12,271.7,255.4)" />
<use xlink:href="#f0_3" transform="matrix(12,0,0,12,283.9,255.4)" />
<use xlink:href="#f0_a" transform="matrix(12,0,0,12,288,255.4)" />
<use xlink:href="#f0_3" transform="matrix(12,0,0,12,298.4,255.4)" />
<use xlink:href="#f0_b" transform="matrix(12,0,0,12,302.4,255.4)" />
<use xlink:href="#f0_i" transform="matrix(12,0,0,12,320.9,255.4)" />
<use xlink:href="#f0_b" transform="matrix(12,0,0,12,332.9,255.4)" />
<use xlink:href="#f0_3" transform="matrix(12,0,0,12,345.3,255.4)" />
<use xlink:href="#f0_c" transform="matrix(12,0,0,12,349.4,255.4)" />
<use xlink:href="#f0_4" transform="matrix(12,0,0,12,362.4,255.4)" />
<use xlink:href="#f0_2" transform="matrix(12,0,0,12,378.6,255.4)" />
<use xlink:href="#f0_3" transform="matrix(12,0,0,12,390.8,255.4)" />
<use xlink:href="#f0_m" transform="matrix(12,0,0,12,394.9,255.4)" />
<use xlink:href="#f0_l" transform="matrix(12,0,0,12,406.3,255.4)" />
<use xlink:href="#f0_r" transform="matrix(12,0,0,12,418.2,255.4)" />
<use xlink:href="#f0_e" transform="matrix(12,0,0,12,431.2,255.4)" />
<use xlink:href="#f0_q" transform="matrix(12,0,0,12,449.1,255.4)" />
<use xlink:href="#f0_b" transform="matrix(12,0,0,12,454,255.4)" />
<use xlink:href="#f0_r" transform="matrix(12,0,0,12,472.6,255.4)" />
<use xlink:href="#f0_a" transform="matrix(12,0,0,12,485.6,255.4)" />
<use xlink:href="#f0_u" transform="matrix(12,0,0,12,495.9,255.4)" />
<use xlink:href="#f0_3" transform="matrix(12,0,0,12,513.7,255.4)" />
<use xlink:href="#f0_n" transform="matrix(12,0,0,12,517.8,255.4)" />
<use xlink:href="#f0_f" transform="matrix(12,0,0,12,525.1,255.4)" />
<use xlink:href="#f0_a" transform="matrix(12,0,0,12,536.6,255.4)" />
<use xlink:href="#f0_m" transform="matrix(12,0,0,12,552.9,255.4)" />
<use xlink:href="#f0_3" transform="matrix(12,0,0,12,564.3,255.4)" />
<use xlink:href="#f0_f" transform="matrix(12,0,0,12,568.5,255.4)" />
<use xlink:href="#f0_6" transform="matrix(12,0,0,12,579.9,255.4)" />
<use xlink:href="#f0_i" transform="matrix(12,0,0,12,584.8,255.4)" />
<use xlink:href="#f0_9" transform="matrix(12,0,0,12,602.8,255.4)" />
<use xlink:href="#f0_g" transform="matrix(12,0,0,12,608.6,255.4)" />
<use xlink:href="#f0_6" transform="matrix(12,0,0,12,618.7,255.4)" />
<use xlink:href="#f0_b" transform="matrix(12,0,0,12,623.6,255.4)" />
<use xlink:href="#f0_3" transform="matrix(12,0,0,12,636.1,255.4)" />
<use xlink:href="#f0_a" transform="matrix(12,0,0,12,640.2,255.4)" />
<use xlink:href="#f0_e" transform="matrix(12,0,0,12,650.6,255.4)" />
<use xlink:href="#f0_a" transform="matrix(12,0,0,12,668.4,255.4)" />
<use xlink:href="#f0_m" transform="matrix(12,0,0,12,678.8,255.4)" />
<use xlink:href="#f0_a" transform="matrix(12,0,0,12,696.4,255.4)" />
<use xlink:href="#f0_r" transform="matrix(12,0,0,12,706.8,255.4)" />
<use xlink:href="#f0_e" transform="matrix(12,0,0,12,719.7,255.4)" />
<use xlink:href="#f0_a" transform="matrix(12,0,0,12,731.7,255.4)" />
<use xlink:href="#f0_3" transform="matrix(12,0,0,12,747.9,255.4)" />
<use xlink:href="#f0_g" transform="matrix(12,0,0,12,752,255.4)" />
<use xlink:href="#f0_5" transform="matrix(12,0,0,12,762,255.4)" />
<use xlink:href="#f0_k" transform="matrix(12,0,0,12,279,276.8)" />
<use xlink:href="#f0_4" transform="matrix(12,0,0,12,284.8,276.8)" />
<use xlink:href="#f0_c" transform="matrix(12,0,0,12,295.2,276.8)" />
<use xlink:href="#f0_r" transform="matrix(12,0,0,12,308.1,276.8)" />
<use xlink:href="#f0_e" transform="matrix(12,0,0,12,321.1,276.8)" />
<use xlink:href="#f0_o" transform="matrix(12,0,0,12,333,276.8)" />
<use xlink:href="#f0_2" transform="matrix(12,0,0,12,349.4,276.8)" />
<use xlink:href="#f0_s" transform="matrix(12,0,0,12,361.6,276.8)" />
<use xlink:href="#f0_q" transform="matrix(12,0,0,12,374.9,276.8)" />
<use xlink:href="#f0_e" transform="matrix(12,0,0,12,379.9,276.8)" />
<use xlink:href="#f0_o" transform="matrix(12,0,0,12,391.8,276.8)" />
<use xlink:href="#f0_a" transform="matrix(12,0,0,12,408.3,276.8)" />
<use xlink:href="#f0_r" transform="matrix(12,0,0,12,418.7,276.8)" />
<use xlink:href="#f0_i" transform="matrix(12,0,0,12,431.7,276.8)" />
<use xlink:href="#f0_3" transform="matrix(12,0,0,12,443.7,276.8)" />
<use xlink:href="#f0_i" transform="matrix(12,0,0,12,447.7,276.8)" />
<use xlink:href="#f0_6" transform="matrix(12,0,0,12,465.7,276.8)" />
<use xlink:href="#f0_o" transform="matrix(12,0,0,12,470.8,276.8)" />
<use xlink:href="#f0_9" transform="matrix(12,0,0,12,487.2,276.8)" />
<use xlink:href="#f0_m" transform="matrix(12,0,0,12,493.1,276.8)" />
<use xlink:href="#f0_l" transform="matrix(12,0,0,12,504.5,276.8)" />
<use xlink:href="#f0_r" transform="matrix(12,0,0,12,516.4,276.8)" />
<use xlink:href="#f0_e" transform="matrix(12,0,0,12,529.4,276.8)" />
<use xlink:href="#f0_i" transform="matrix(12,0,0,12,547.1,276.8)" />
<use xlink:href="#f0_j" transform="matrix(12,0,0,12,559.2,276.8)" />
<use xlink:href="#f0_j" transform="matrix(12,0,0,12,577.2,276.8)" />
<use xlink:href="#f0_6" transform="matrix(12,0,0,12,589.4,276.8)" />
<use xlink:href="#f0_4" transform="matrix(12,0,0,12,594.5,276.8)" />
<use xlink:href="#f0_r" transform="matrix(12,0,0,12,604.8,276.8)" />
<use xlink:href="#f0_a" transform="matrix(12,0,0,12,617.8,276.8)" />
<use xlink:href="#f0_6" transform="matrix(12,0,0,12,628.2,276.8)" />
<use xlink:href="#f0_2" transform="matrix(12,0,0,12,639,276.8)" />
<use xlink:href="#f0_3" transform="matrix(12,0,0,12,651.1,276.8)" />
<use xlink:href="#f0_a" transform="matrix(12,0,0,12,655.2,276.8)" />
<use xlink:href="#f0_3" transform="matrix(12,0,0,12,665.6,276.8)" />
<use xlink:href="#f0_b" transform="matrix(12,0,0,12,669.7,276.8)" />
<use xlink:href="#f0_e" transform="matrix(12,0,0,12,682.2,276.8)" />
<use xlink:href="#f0_i" transform="matrix(12,0,0,12,699.9,276.8)" />
<use xlink:href="#f0_j" transform="matrix(12,0,0,12,712,276.8)" />
<use xlink:href="#f0_4" transform="matrix(12,0,0,12,730.2,276.8)" />
<use xlink:href="#f0_6" transform="matrix(12,0,0,12,740.4,276.8)" />
<use xlink:href="#f0_5" transform="matrix(12,0,0,12,745.4,276.8)" />
<use xlink:href="#f0_7" transform="matrix(12,0,0,12,755,276.8)" />
<use xlink:href="#f0_a" transform="matrix(12,0,0,12,761.4,276.8)" />
<use xlink:href="#f0_10" transform="matrix(12,0,0,12,137.7,1208.5)" />
</g>
</g>
<defs>
<path d="M700,-317V454c0,0,0,155,-54,215c0,0,-54,60,-180,60H277V551c0,0,0,-55,26,-80c0,0,27,-26,82,-26c0,0,30,0,80,10V341c0,0,-61,-11,-111,-11c0,0,-100,0,-157,55c0,0,-58,55,-58,186V836H466c0,0,203,0,288,-91c0,0,85,-92,85,-293V-317Z" 
id="f0_z"
transform="scale(0.001,-0.001)" />

<path d="M102,312V836H241V369L102,312Z" 
id="f0_3"
transform="scale(0.001,-0.001)" />

<path d="M522,92c0,0,247,0,247,333c0,0,0,88,-17,146c0,0,-17,58,-53,91c0,0,-35,33,-82,46c0,0,-48,14,-116,14H276V419c0,0,0,-327,246,-327Zm0,-112c0,0,-193,0,-289,109c0,0,-95,110,-95,337V836H501c0,0,213,0,309,-93c0,0,96,-94,96,-317c0,0,0,-227,-95,-337C811,89,715,-20,522,-20Z" 
id="f0_t"
transform="scale(0.001,-0.001)" />

<path d="M139,0V836H278V0Z" 
id="f0_6"
transform="scale(0.001,-0.001)" />

<path d="M66,0V107H332V555c0,0,0,92,-37,133c0,0,-37,41,-116,41H85V836h94c0,0,153,0,223,-66c0,0,69,-66,69,-231V0Z" 
id="f0_n"
transform="scale(0.001,-0.001)" />

<path d="M154,0V454l138,56V0ZM722,0V454c0,0,0,161,-49,218c0,0,-48,57,-186,57H139V836H485c0,0,207,0,291,-93c0,0,83,-94,83,-318V0Z" 
id="f0_e"
transform="scale(0.001,-0.001)" />

<path d="M66,0V107H554V452c0,0,0,56,-4,93c0,0,-4,37,-18,75c0,0,-14,38,-40,60c0,0,-26,22,-71,36c0,0,-45,13,-110,13H66V836H312c0,0,91,0,157,-17c0,0,66,-17,109,-49c0,0,44,-32,69,-84c0,0,26,-52,36,-114c0,0,10,-62,10,-147V107H817V0Z" 
id="f0_o"
transform="scale(0.001,-0.001)" />

<path d="M163,0V190H321V0Z" 
id="f0_k"
transform="scale(0.001,-0.001)" />

<path d="M152,0V473c0,0,0,94,28,161c0,0,29,66,71,95H66V836H463V729H404c0,0,-65,0,-89,-57c0,0,-25,-58,-25,-199V0Z" 
id="f0_7"
transform="scale(0.001,-0.001)" />

<path d="M66,0V106H322c0,0,75,0,127,23c0,0,53,23,82,67c0,0,29,43,42,98c0,0,13,54,13,124c0,0,0,70,-13,124c0,0,-13,55,-42,98c0,0,-29,44,-82,67c0,0,-52,23,-127,23H66V836H322c0,0,87,0,157,-24c0,0,70,-24,115,-64c0,0,45,-40,74,-94c0,0,30,-55,43,-113c0,0,13,-59,13,-123c0,0,0,-64,-13,-123c0,0,-13,-58,-43,-113c0,0,-29,-54,-74,-94C594,88,549,48,479,24C479,24,409,0,322,0Z" 
id="f0_5"
transform="scale(0.001,-0.001)" />

<path d="M495,0V729H66V836H781V729H634V0Z" 
id="f0_g"
transform="scale(0.001,-0.001)" />

<path d="M139,0V836H485c0,0,206,0,290,-90c0,0,84,-89,84,-294V0H721V473c0,0,0,147,-49,202c0,0,-48,54,-186,54H277V0Z" 
id="f0_u"
transform="scale(0.001,-0.001)" />

<path d="M139,0V138c0,0,0,61,8,112c0,0,7,52,19,87c0,0,11,36,30,66c0,0,19,31,35,49c0,0,17,19,41,35c0,0,25,17,41,25c0,0,17,7,40,17L141,836H303L613,388c0,0,20,10,33,18c0,0,13,8,34,28c0,0,20,20,33,44c0,0,13,25,22,66c0,0,10,41,10,92V836H882V698c0,0,0,-61,-7,-112c0,0,-6,-52,-18,-88c0,0,-12,-36,-30,-66c0,0,-19,-30,-36,-49c0,0,-17,-18,-41,-34c0,0,-24,-17,-40,-25c0,0,-17,-8,-41,-17L882,0H720L409,448c0,0,-21,-11,-34,-19c0,0,-13,-8,-34,-27c0,0,-21,-20,-34,-44c0,0,-12,-25,-22,-66c0,0,-9,-41,-9,-92V0Z" 
id="f0_j"
transform="scale(0.001,-0.001)" />

<path d="M287,0L589,729H66v386H205V836l547,-1l-2,-82L433,0Z" 
id="f0_a"
transform="scale(0.001,-0.001)" />

<path d="M180,0L66,836H203L258,443c0,0,36,1,64,6c0,0,28,6,49,18c0,0,20,12,35,26c0,0,15,13,26,36c0,0,11,24,17,44c0,0,7,20,12,55c0,0,6,34,9,60c0,0,3,26,8,71c0,0,4,45,9,77H610c0,0,-13,-194,-31,-271c0,0,-31,-127,-111,-179c0,0,-71,-45,-196,-50L304,107c0,0,73,0,130,5c0,0,56,6,111,21c0,0,54,15,94,40c0,0,40,25,77,64c0,0,37,39,63,94c0,0,25,54,46,128c0,0,21,73,34,166c0,0,13,94,20,211h138c0,0,-14,-124,-29,-218c0,0,-16,-94,-39,-179c0,0,-22,-85,-50,-146c0,0,-28,-61,-68,-112c0,0,-39,-51,-87,-84C744,97,696,65,632,42C632,42,568,19,492,10C492,10,417,0,320,0Z" 
id="f0_c"
transform="scale(0.001,-0.001)" />

<path d="M114,0l60,312c0,0,2,12,8,39c0,0,6,27,7,37c0,0,2,11,5,30c0,0,2,19,4,33c0,0,1,15,1,31c0,0,0,48,-35,146c0,0,-35,98,-98,208H228c0,0,3,-8,27,-67c0,0,25,-58,41,-117c0,0,21,53,50,90c0,0,29,37,57,57c0,0,29,21,65,32c0,0,37,11,65,14c0,0,28,3,67,3c0,0,300,0,300,-396V0H480V106H761V452c0,0,0,146,-46,215c0,0,-45,70,-118,70c0,0,-134,0,-198,-119c0,0,-36,-68,-67,-222c0,0,-2,-10,-6,-27L253,0Z" 
id="f0_b"
transform="scale(0.001,-0.001)" />

<path d="M585,0V426c0,0,0,54,-8,98c0,0,-8,44,-27,83c0,0,-19,40,-49,66c0,0,-30,26,-77,41c0,0,-47,15,-108,15H66V836H315c0,0,94,0,166,-20c0,0,71,-20,116,-54c0,0,46,-35,75,-88c0,0,28,-52,40,-112c0,0,12,-60,12,-137V0Z" 
id="f0_4"
transform="scale(0.001,-0.001)" />

<path d="M156,-317V454l139,56V-317ZM505,0L806,729H139V835H967V753L650,0Z" 
id="f0_r"
transform="scale(0.001,-0.001)" />

<path d="M543,-317V369c0,0,0,85,-8,143c0,0,-8,58,-27,101c0,0,-18,44,-51,69c0,0,-33,24,-80,36c0,0,-48,11,-117,11H66V836H257c0,0,125,0,205,-23c0,0,80,-23,130,-79c0,0,50,-56,70,-143c0,0,20,-86,20,-222V-317Z" 
id="f0_p"
transform="scale(0.001,-0.001)" />

<path d="M66,0V106H564L66,836H228L516,413c0,0,3,2,9,6c0,0,17,13,27,21c0,0,10,8,26,27c0,0,17,20,26,40c0,0,9,21,16,54c0,0,7,34,7,75V836H764V698c0,0,0,-55,-7,-102c0,0,-7,-47,-16,-79c0,0,-10,-33,-27,-62c0,0,-18,-29,-32,-46c0,0,-14,-17,-37,-35c0,0,-22,-17,-36,-25c0,0,-13,-8,-36,-20L767,53V0Z" 
id="f0_h"
transform="scale(0.001,-0.001)" />

<path d="M139,0V106H400c0,0,176,0,253,71c0,0,78,72,78,250c0,0,0,163,-80,233c0,0,-81,69,-250,69H278L277,564c0,0,-1,-54,26,-80c0,0,27,-25,82,-25c0,0,30,0,80,9V355c0,0,-61,-12,-111,-12c0,0,-100,0,-157,55c0,0,-58,55,-58,186V836H456c0,0,193,0,303,-109c0,0,110,-109,110,-309c0,0,0,-200,-110,-309C759,109,648,0,456,0Z" 
id="f0_f"
transform="scale(0.001,-0.001)" />

<path d="M117,-176L179,62V190H336V62L213,-176Z" 
id="f0_9"
transform="scale(0.001,-0.001)" />

<path d="M522,-20c0,0,-196,0,-290,99c0,0,-94,100,-94,324V836H276V397c0,0,0,-86,16,-147c0,0,17,-60,50,-94c0,0,34,-34,77,-49c0,0,43,-15,103,-15c0,0,59,0,102,15c0,0,44,15,77,49c0,0,33,34,50,94c0,0,17,61,17,147c0,0,0,84,-8,143c0,0,-7,58,-25,105c0,0,-17,47,-51,69c0,0,-33,23,-83,23c0,0,-50,0,-119,-22V821c0,0,85,23,150,23c0,0,76,0,130,-30c0,0,53,-31,85,-90c0,0,31,-59,45,-138c0,0,13,-78,13,-183c0,0,0,-224,-93,-324c0,0,-94,-99,-290,-99Z" 
id="f0_l"
transform="scale(0.001,-0.001)" />

<path d="M71,-141V-15L289,62L66,836H210L416,109c0,0,99,42,153,98c0,0,53,56,80,155c0,0,26,98,26,262V836H817V624c0,0,0,-88,-7,-154c0,0,-7,-67,-25,-132c0,0,-18,-66,-51,-116c0,0,-33,-51,-84,-98c0,0,-50,-48,-123,-87c0,0,-72,-39,-169,-74L71,-141Z" 
id="f0_m"
transform="scale(0.001,-0.001)" />

<path d="M112,-5c0,0,-39,0,-97,11V113c0,0,48,-10,77,-10c0,0,53,0,70,42c0,0,17,43,17,164V729H50V836H501c0,0,107,0,179,-25c0,0,72,-25,112,-77c0,0,40,-51,57,-118c0,0,16,-67,16,-164V0H726V454c0,0,0,55,-3,92c0,0,-4,37,-17,75c0,0,-14,38,-38,59c0,0,-24,22,-65,36c0,0,-42,13,-102,13H318V309c0,0,0,-160,-46,-237C272,72,226,-5,112,-5Z" 
id="f0_i"
transform="scale(0.001,-0.001)" />

<path d="M147,700v414H274V700Zm282,0v414H556V700Z" 
id="f0_v"
transform="scale(0.001,-0.001)" />

<path d="M179,0V190H336V0Zm0,600V790H336V600Z" 
id="f0_w"
transform="scale(0.001,-0.001)" />

<path d="M138,-7c0,0,-34,0,-72,10V129c0,0,25,-8,52,-8c0,0,33,0,58,5c0,0,26,5,58,24c0,0,33,20,53,54c0,0,21,34,36,97c0,0,15,64,15,151c0,0,0,113,-19,173c0,0,-19,60,-56,82c0,0,-38,22,-107,22H89V836h72c0,0,165,0,240,-91c0,0,76,-91,76,-293c0,0,0,-107,26,-227c0,0,25,-119,83,-225H437c0,0,-43,101,-62,184c0,0,-24,-60,-51,-99c0,0,-26,-38,-56,-58C268,27,239,7,209,0c0,0,-30,-7,-71,-7Z" 
id="f0_s"
transform="scale(0.001,-0.001)" />

<path d="M139,-317V836H278V-317Z" 
id="f0_q"
transform="scale(0.001,-0.001)" />

<path d="M736,107V473c0,0,0,147,-48,202c0,0,-49,54,-187,54H278V107ZM139,0V836H499c0,0,105,0,177,-22c0,0,72,-21,116,-69c0,0,44,-49,64,-119c0,0,19,-71,19,-174V0Z" 
id="f0_2"
transform="scale(0.001,-0.001)" />

<path d="M414,-20c0,0,-70,0,-144,13c0,0,-75,13,-154,40V179c0,0,63,-36,138,-55c0,0,74,-18,156,-18c0,0,142,0,216,55c0,0,74,56,74,163c0,0,0,98,-69,153c0,0,-69,56,-192,56H309V657H445c0,0,111,0,170,44c0,0,59,45,59,128c0,0,0,86,-61,132c0,0,-61,46,-174,46c0,0,-62,0,-133,-13c0,0,-71,-14,-156,-42v134c0,0,85,24,160,36c0,0,75,12,142,12c0,0,171,0,271,-78c0,0,100,-78,100,-211c0,0,0,-92,-53,-156c0,0,-52,-64,-150,-89c0,0,108,-23,169,-96c0,0,61,-73,61,-180c0,0,0,-165,-114,-255c0,0,-113,-89,-322,-89Z" 
id="f0_10"
transform="scale(0.001,-0.001)" />


</defs>
</svg>