<?xml version="1.0" encoding="UTF-8" standalone="no"?>
<!DOCTYPE svg PUBLIC "-//W3C//DTD SVG 1.1//EN"
"http://www.w3.org/Graphics/SVG/1.1/DTD/svg11.dtd">
<svg viewBox="0 0 909 1286" version="1.1" xmlns="http://www.w3.org/2000/svg" xmlns:xlink="http://www.w3.org/1999/xlink">
<defs>
<clipPath id="c0_15"><path d="M0,1286.2V0H909.4V1286.2Z" /></clipPath>
<style type="text/css"><![CDATA[
.g0_15{
fill: #D8D8D8;
}
.g1_15{
fill: none;
stroke: #000000;
stroke-width: 0.7638889;
stroke-linecap: butt;
stroke-linejoin: round;
}
.g2_15{
fill: none;
stroke: #000000;
stroke-width: 0.9166667;
stroke-linecap: butt;
stroke-linejoin: miter;
}
.g3_15{
fill: none;
stroke: #0000FF;
stroke-width: 1.0694444;
stroke-linecap: butt;
stroke-linejoin: miter;
}
]]></style>
</defs>
<path fill-rule="evenodd" d="M388.8,686H511.7V666.1H388.8V686Z" class="g0_15" />
<path fill-rule="evenodd" d="M258.8,686H388.7V666.1H258.8V686Z" class="g0_15" />
<path fill-rule="evenodd" d="M128.9,686H258.7V666.1H128.9V686Z" class="g0_15" />
<path fill-rule="evenodd" d="M388.8,686H511.7V666.1H388.8V686Z" class="g0_15" />
<path fill-rule="evenodd" d="M258.8,686H388.7V666.1H258.8V686Z" class="g0_15" />
<path fill-rule="evenodd" d="M128.9,686H258.7V666.1H128.9V686Z" class="g0_15" />
<path d="M128.6,110.4H780.5M128.6,132.5H780.5M128.9,110v22.9M237.6,110v22.9M346,110v22.9M451.5,110v22.9M563.1,110v22.9M689.8,110v22.9M780.1,110v22.9" class="g1_15" />
<g clip-path="url(#c0_15)">
<g fill="#000000" >
<use xlink:href="#f0_x" transform="matrix(12,0,0,12,485.1,127.9)" />
<use xlink:href="#f0_a" transform="matrix(12,0,0,12,492.2,127.9)" />
<use xlink:href="#f0_b" transform="matrix(12,0,0,12,504.3,127.9)" />
<use xlink:href="#f0_7" transform="matrix(12,0,0,12,514.5,127.9)" />
<use xlink:href="#f0_f" transform="matrix(12,0,0,12,519.5,127.9)" />
<use xlink:href="#f0_l" transform="matrix(12,0,0,12,529.2,127.9)" />
<use xlink:href="#f0_a" transform="matrix(12,0,0,12,535.6,127.9)" />
<use xlink:href="#f0_v" transform="matrix(12,0,0,12,547.6,127.9)" />
<use xlink:href="#f0_x" transform="matrix(12,0,0,12,268,127.9)" />
<use xlink:href="#f0_a" transform="matrix(12,0,0,12,275.1,127.9)" />
<use xlink:href="#f0_b" transform="matrix(12,0,0,12,287.2,127.9)" />
<use xlink:href="#f0_7" transform="matrix(12,0,0,12,297.4,127.9)" />
<use xlink:href="#f0_f" transform="matrix(12,0,0,12,302.4,127.9)" />
<use xlink:href="#f0_l" transform="matrix(12,0,0,12,312.1,127.9)" />
<use xlink:href="#f0_a" transform="matrix(12,0,0,12,318.5,127.9)" />
<use xlink:href="#f0_v" transform="matrix(12,0,0,12,330.5,127.9)" />
<use xlink:href="#f1_l" transform="matrix(11,0,0,11,137.7,196.9)" />
<use xlink:href="#f1_8" transform="matrix(11,0,0,11,144.2,196.9)" />
<use xlink:href="#f1_1u" transform="matrix(11,0,0,11,153.5,196.9)" />
<use xlink:href="#f1_u" transform="matrix(11,0,0,11,161.9,196.9)" />
<use xlink:href="#f1_t" transform="matrix(11,0,0,11,169.4,196.9)" />
<use xlink:href="#f1_r" transform="matrix(11,0,0,11,176.9,196.9)" />
<use xlink:href="#f1_7" transform="matrix(11,0,0,11,186.2,196.9)" />
<use xlink:href="#f1_t" transform="matrix(11,0,0,11,190.9,196.9)" />
<use xlink:href="#f1_8" transform="matrix(11,0,0,11,198.4,196.9)" />
<use xlink:href="#f1_s" transform="matrix(11,0,0,11,207.5,196.9)" />
<use xlink:href="#f1_t" transform="matrix(11,0,0,11,213.2,196.9)" />
<use xlink:href="#f1_a" transform="matrix(11,0,0,11,220.6,196.9)" />
<use xlink:href="#f1_1p" transform="matrix(11,0,0,11,227.2,196.9)" />
<use xlink:href="#f1_s" transform="matrix(11,0,0,11,236.9,196.9)" />
<use xlink:href="#f1_u" transform="matrix(11,0,0,11,242.6,196.9)" />
<use xlink:href="#f1_t" transform="matrix(11,0,0,11,250,196.9)" />
<use xlink:href="#f1_a" transform="matrix(11,0,0,11,257.3,196.9)" />
<use xlink:href="#f1_s" transform="matrix(11,0,0,11,268.2,196.9)" />
<use xlink:href="#f1_6" transform="matrix(11,0,0,11,273.8,196.9)" />
<use xlink:href="#f1_w" transform="matrix(11,0,0,11,282,196.9)" />
<use xlink:href="#f1_3" transform="matrix(11,0,0,11,296.1,196.9)" />
<use xlink:href="#f1_s" transform="matrix(11,0,0,11,304.5,196.9)" />
<use xlink:href="#f1_t" transform="matrix(11,0,0,11,310.1,196.9)" />
<use xlink:href="#f1_a" transform="matrix(11,0,0,11,317.6,196.9)" />
<use xlink:href="#f1_1i" transform="matrix(11,0,0,11,324,196.9)" />
<use xlink:href="#f1_r" transform="matrix(11,0,0,11,332.5,196.9)" />
<use xlink:href="#f1_6" transform="matrix(11,0,0,11,341.9,196.9)" />
<use xlink:href="#f1_a" transform="matrix(11,0,0,11,350.3,196.9)" />
<use xlink:href="#f1_b" transform="matrix(11,0,0,11,360.9,196.9)" />
<use xlink:href="#f1_t" transform="matrix(11,0,0,11,370.3,196.9)" />
<use xlink:href="#f1_b" transform="matrix(11,0,0,11,377.7,196.9)" />
<use xlink:href="#f1_7" transform="matrix(11,0,0,11,387,196.9)" />
<use xlink:href="#f1_8" transform="matrix(11,0,0,11,391.8,196.9)" />
<use xlink:href="#f1_6" transform="matrix(11,0,0,11,401.1,196.9)" />
<use xlink:href="#f1_a" transform="matrix(11,0,0,11,409.5,196.9)" />
<use xlink:href="#f1_1i" transform="matrix(11,0,0,11,415.9,196.9)" />
<use xlink:href="#f1_s" transform="matrix(11,0,0,11,424.5,196.9)" />
<use xlink:href="#f1_u" transform="matrix(11,0,0,11,430,196.9)" />
<use xlink:href="#f1_t" transform="matrix(11,0,0,11,437.4,196.9)" />
<use xlink:href="#f1_a" transform="matrix(11,0,0,11,444.9,196.9)" />
<use xlink:href="#f1_5" transform="matrix(11,0,0,11,455.5,196.9)" />
<use xlink:href="#f1_t" transform="matrix(11,0,0,11,463,196.9)" />
<use xlink:href="#f1_1v" transform="matrix(11,0,0,11,470.5,196.9)" />
<use xlink:href="#f1_6" transform="matrix(11,0,0,11,479.8,196.9)" />
<use xlink:href="#f1_e" transform="matrix(11,0,0,11,488.2,196.9)" />
<use xlink:href="#f1_e" transform="matrix(11,0,0,11,492.8,196.9)" />
<use xlink:href="#f1_3" transform="matrix(11,0,0,11,497.5,196.9)" />
<use xlink:href="#f1_a" transform="matrix(11,0,0,11,505.9,196.9)" />
<use xlink:href="#f1_1i" transform="matrix(11,0,0,11,512.5,196.9)" />
<use xlink:href="#f1_r" transform="matrix(11,0,0,11,520.9,196.9)" />
<use xlink:href="#f1_6" transform="matrix(11,0,0,11,530.2,196.9)" />
<use xlink:href="#f1_a" transform="matrix(11,0,0,11,538.6,196.9)" />
<use xlink:href="#f1_r" transform="matrix(11,0,0,11,549.4,196.9)" />
<use xlink:href="#f1_7" transform="matrix(11,0,0,11,558.7,196.9)" />
<use xlink:href="#f1_t" transform="matrix(11,0,0,11,563.3,196.9)" />
<use xlink:href="#f1_8" transform="matrix(11,0,0,11,570.8,196.9)" />
<use xlink:href="#f1_s" transform="matrix(11,0,0,11,580.1,196.9)" />
<use xlink:href="#f1_t" transform="matrix(11,0,0,11,585.7,196.9)" />
<use xlink:href="#f1_a" transform="matrix(11,0,0,11,593.2,196.9)" />
<use xlink:href="#f1_r" transform="matrix(11,0,0,11,603.9,196.9)" />
<use xlink:href="#f1_t" transform="matrix(11,0,0,11,613.2,196.9)" />
<use xlink:href="#f1_3" transform="matrix(11,0,0,11,624.9,196.9)" />
<use xlink:href="#f1_14" transform="matrix(11,0,0,11,633.3,196.9)" />
<use xlink:href="#f1_6" transform="matrix(11,0,0,11,639,196.9)" />
<use xlink:href="#f1_1i" transform="matrix(11,0,0,11,647.2,196.9)" />
<use xlink:href="#f1_3" transform="matrix(11,0,0,11,655.8,196.9)" />
<use xlink:href="#f1_5" transform="matrix(11,0,0,11,664,196.9)" />
<use xlink:href="#f1_t" transform="matrix(11,0,0,11,671.5,196.9)" />
<use xlink:href="#f1_7" transform="matrix(11,0,0,11,678.9,196.9)" />
<use xlink:href="#f1_s" transform="matrix(11,0,0,11,683.5,196.9)" />
<use xlink:href="#f1_t" transform="matrix(11,0,0,11,689.1,196.9)" />
<use xlink:href="#f1_1w" transform="matrix(11,0,0,11,696.6,196.9)" />
</g>
</g>
<path d="M137.7,198.5h564" class="g2_15" />
<g clip-path="url(#c0_15)">
<g fill="#000000" >
<use xlink:href="#f2_16" transform="matrix(11,0,0,11,145.4,225.8)" />
<use xlink:href="#f2_d" transform="matrix(11,0,0,11,154.8,225.8)" />
<use xlink:href="#f2_f" transform="matrix(11,0,0,11,162.2,225.8)" />
<use xlink:href="#f2_d" transform="matrix(11,0,0,11,167.9,225.8)" />
<use xlink:href="#f2_9" transform="matrix(11,0,0,11,183.1,225.8)" />
<use xlink:href="#f2_c" transform="matrix(11,0,0,11,190.4,225.8)" />
<use xlink:href="#f2_m" transform="matrix(11,0,0,11,203.5,225.8)" />
<use xlink:href="#f2_9" transform="matrix(11,0,0,11,212,225.8)" />
<use xlink:href="#f2_13" transform="matrix(11,0,0,11,219.4,225.8)" />
<use xlink:href="#f2_d" transform="matrix(11,0,0,11,226.9,225.8)" />
<use xlink:href="#f2_f" transform="matrix(11,0,0,11,234.2,225.8)" />
<use xlink:href="#f2_z" transform="matrix(11,0,0,11,239.8,225.8)" />
<use xlink:href="#f2_m" transform="matrix(11,0,0,11,251.9,225.8)" />
<use xlink:href="#f2_b" transform="matrix(11,0,0,11,260.3,225.8)" />
<use xlink:href="#f2_o" transform="matrix(11,0,0,11,268.7,225.8)" />
<use xlink:href="#f2_9" transform="matrix(11,0,0,11,277.1,225.8)" />
<use xlink:href="#f2_c" transform="matrix(11,0,0,11,284.4,225.8)" />
<use xlink:href="#f2_b" transform="matrix(11,0,0,11,297.5,225.8)" />
<use xlink:href="#f2_h" transform="matrix(11,0,0,11,305.9,225.8)" />
<use xlink:href="#f2_d" transform="matrix(11,0,0,11,320.3,225.8)" />
<use xlink:href="#f2_u" transform="matrix(11,0,0,11,327.7,225.8)" />
<use xlink:href="#f2_g" transform="matrix(11,0,0,11,336.1,225.8)" />
<use xlink:href="#f2_d" transform="matrix(11,0,0,11,344.5,225.8)" />
<use xlink:href="#f2_i" transform="matrix(11,0,0,11,359.8,225.8)" />
<use xlink:href="#f2_b" transform="matrix(11,0,0,11,367.3,225.8)" />
<use xlink:href="#f2_o" transform="matrix(11,0,0,11,375.7,225.8)" />
<use xlink:href="#f2_h" transform="matrix(11,0,0,11,391.8,225.8)" />
<use xlink:href="#f2_d" transform="matrix(11,0,0,11,398.2,225.8)" />
<use xlink:href="#f2_k" transform="matrix(11,0,0,11,405.7,225.8)" />
<use xlink:href="#f2_d" transform="matrix(11,0,0,11,418.2,225.8)" />
<use xlink:href="#f2_t" transform="matrix(11,0,0,11,433.4,225.8)" />
<use xlink:href="#f2_9" transform="matrix(11,0,0,11,441.9,225.8)" />
<use xlink:href="#f2_f" transform="matrix(11,0,0,11,449.2,225.8)" />
<use xlink:href="#f2_e" transform="matrix(11,0,0,11,454.8,225.8)" />
<use xlink:href="#f2_n" transform="matrix(11,0,0,11,463.2,225.8)" />
<use xlink:href="#f2_f" transform="matrix(11,0,0,11,467.8,225.8)" />
<use xlink:href="#f2_4" transform="matrix(11,0,0,11,473.4,225.8)" />
<use xlink:href="#f2_14" transform="matrix(11,0,0,11,485.5,225.8)" />
<use xlink:href="#f2_g" transform="matrix(11,0,0,11,496.6,225.8)" />
<use xlink:href="#f2_d" transform="matrix(11,0,0,11,505,225.8)" />
<use xlink:href="#f2_o" transform="matrix(11,0,0,11,512.5,225.8)" />
<use xlink:href="#f2_8" transform="matrix(11,0,0,11,520.9,225.8)" />
<use xlink:href="#f2_b" transform="matrix(11,0,0,11,529.3,225.8)" />
<use xlink:href="#f2_a" transform="matrix(11,0,0,11,545.5,225.8)" />
<use xlink:href="#f2_9" transform="matrix(11,0,0,11,550.2,225.8)" />
<use xlink:href="#f2_f" transform="matrix(11,0,0,11,557.5,225.8)" />
<use xlink:href="#f2_c" transform="matrix(11,0,0,11,563.2,225.8)" />
<use xlink:href="#f2_n" transform="matrix(11,0,0,11,576.1,225.8)" />
<use xlink:href="#f2_o" transform="matrix(11,0,0,11,580.9,225.8)" />
<use xlink:href="#f2_d" transform="matrix(11,0,0,11,589.3,225.8)" />
<use xlink:href="#f2_8" transform="matrix(11,0,0,11,604.5,225.8)" />
<use xlink:href="#f2_9" transform="matrix(11,0,0,11,612.9,225.8)" />
<use xlink:href="#f2_t" transform="matrix(11,0,0,11,628.2,225.8)" />
<use xlink:href="#f2_9" transform="matrix(11,0,0,11,636.6,225.8)" />
<use xlink:href="#f2_f" transform="matrix(11,0,0,11,644.1,225.8)" />
<use xlink:href="#f2_e" transform="matrix(11,0,0,11,649.7,225.8)" />
<use xlink:href="#f2_n" transform="matrix(11,0,0,11,657.9,225.8)" />
<use xlink:href="#f2_f" transform="matrix(11,0,0,11,662.7,225.8)" />
<use xlink:href="#f2_z" transform="matrix(11,0,0,11,668.2,225.8)" />
<use xlink:href="#f2_d" transform="matrix(11,0,0,11,680.2,225.8)" />
<use xlink:href="#f2_1k" transform="matrix(11,0,0,11,687.7,225.8)" />
<use xlink:href="#f2_d" transform="matrix(11,0,0,11,696.1,225.8)" />
<use xlink:href="#f2_8" transform="matrix(11,0,0,11,703.5,225.8)" />
<use xlink:href="#f2_n" transform="matrix(11,0,0,11,711.9,225.8)" />
<use xlink:href="#f2_c" transform="matrix(11,0,0,11,716.5,225.8)" />
<use xlink:href="#f2_b" transform="matrix(11,0,0,11,729.6,225.8)" />
<use xlink:href="#f2_h" transform="matrix(11,0,0,11,738,225.8)" />
<use xlink:href="#f2_k" transform="matrix(11,0,0,11,752.4,225.8)" />
<use xlink:href="#f2_d" transform="matrix(11,0,0,11,757,225.8)" />
<use xlink:href="#f2_h" transform="matrix(11,0,0,11,764.4,225.8)" />
<use xlink:href="#f2_e" transform="matrix(11,0,0,11,137.7,254.8)" />
<use xlink:href="#f2_9" transform="matrix(11,0,0,11,146.1,254.8)" />
<use xlink:href="#f2_f" transform="matrix(11,0,0,11,153.5,254.8)" />
<use xlink:href="#f2_8" transform="matrix(11,0,0,11,159.1,254.8)" />
<use xlink:href="#f2_g" transform="matrix(11,0,0,11,167.5,254.8)" />
<use xlink:href="#f2_f" transform="matrix(11,0,0,11,175.8,254.8)" />
<use xlink:href="#f2_d" transform="matrix(11,0,0,11,181.4,254.8)" />
<use xlink:href="#f2_h" transform="matrix(11,0,0,11,188.9,254.8)" />
<use xlink:href="#f2_l" transform="matrix(11,0,0,11,199.7,254.8)" />
<use xlink:href="#f2_8" transform="matrix(11,0,0,11,212.2,254.8)" />
<use xlink:href="#f2_9" transform="matrix(11,0,0,11,220.6,254.8)" />
<use xlink:href="#f2_1d" transform="matrix(11,0,0,11,228.1,254.8)" />
<use xlink:href="#f2_d" transform="matrix(11,0,0,11,232.7,254.8)" />
<use xlink:href="#f2_c" transform="matrix(11,0,0,11,240.1,254.8)" />
<use xlink:href="#f2_b" transform="matrix(11,0,0,11,253.3,254.8)" />
<use xlink:href="#f2_h" transform="matrix(11,0,0,11,261.7,254.8)" />
<use xlink:href="#f2_i" transform="matrix(11,0,0,11,272.3,254.8)" />
<use xlink:href="#f2_b" transform="matrix(11,0,0,11,279.8,254.8)" />
<use xlink:href="#f2_i" transform="matrix(11,0,0,11,288.2,254.8)" />
<use xlink:href="#f2_9" transform="matrix(11,0,0,11,295.7,254.8)" />
<use xlink:href="#f2_f" transform="matrix(11,0,0,11,303,254.8)" />
<use xlink:href="#f2_8" transform="matrix(11,0,0,11,312.9,254.8)" />
<use xlink:href="#f2_g" transform="matrix(11,0,0,11,321.3,254.8)" />
<use xlink:href="#f2_f" transform="matrix(11,0,0,11,329.7,254.8)" />
<use xlink:href="#f2_d" transform="matrix(11,0,0,11,335.2,254.8)" />
<use xlink:href="#f2_o" transform="matrix(11,0,0,11,342.7,254.8)" />
<use xlink:href="#f2_a" transform="matrix(11,0,0,11,351.1,254.8)" />
<use xlink:href="#f2_9" transform="matrix(11,0,0,11,355.8,254.8)" />
<use xlink:href="#f2_8" transform="matrix(11,0,0,11,367.4,254.8)" />
<use xlink:href="#f2_n" transform="matrix(11,0,0,11,375.8,254.8)" />
<use xlink:href="#f2_9" transform="matrix(11,0,0,11,380.5,254.8)" />
<use xlink:href="#f2_13" transform="matrix(11,0,0,11,388,254.8)" />
<use xlink:href="#f2_c" transform="matrix(11,0,0,11,399.5,254.8)" />
<use xlink:href="#f2_n" transform="matrix(11,0,0,11,412.7,254.8)" />
<use xlink:href="#f2_o" transform="matrix(11,0,0,11,417.2,254.8)" />
<use xlink:href="#f2_g" transform="matrix(11,0,0,11,425.6,254.8)" />
<use xlink:href="#f2_a" transform="matrix(11,0,0,11,434.1,254.8)" />
<use xlink:href="#f2_b" transform="matrix(11,0,0,11,438.8,254.8)" />
<use xlink:href="#f2_h" transform="matrix(11,0,0,11,447.2,254.8)" />
<use xlink:href="#f2_4" transform="matrix(11,0,0,11,453.6,254.8)" />
<use xlink:href="#f2_16" transform="matrix(11,0,0,11,137.7,283.7)" />
<use xlink:href="#f2_b" transform="matrix(11,0,0,11,147,283.7)" />
<use xlink:href="#f2_o" transform="matrix(11,0,0,11,155.4,283.7)" />
<use xlink:href="#f2_9" transform="matrix(11,0,0,11,163.8,283.7)" />
<use xlink:href="#f2_c" transform="matrix(11,0,0,11,171.2,283.7)" />
<use xlink:href="#f2_b" transform="matrix(11,0,0,11,184.4,283.7)" />
<use xlink:href="#f2_h" transform="matrix(11,0,0,11,192.8,283.7)" />
<use xlink:href="#f2_9" transform="matrix(11,0,0,11,203.4,283.7)" />
<use xlink:href="#f2_k" transform="matrix(11,0,0,11,210.9,283.7)" />
<use xlink:href="#f2_d" transform="matrix(11,0,0,11,219.7,283.7)" />
<use xlink:href="#f2_i" transform="matrix(11,0,0,11,227.2,283.7)" />
<use xlink:href="#f2_9" transform="matrix(11,0,0,11,234.7,283.7)" />
<use xlink:href="#f2_n" transform="matrix(11,0,0,11,242,283.7)" />
<use xlink:href="#f2_a" transform="matrix(11,0,0,11,246.7,283.7)" />
<use xlink:href="#f2_9" transform="matrix(11,0,0,11,251.4,283.7)" />
<use xlink:href="#f2_l" transform="matrix(11,0,0,11,263,283.7)" />
<use xlink:href="#f2_k" transform="matrix(11,0,0,11,275.7,283.7)" />
<use xlink:href="#f2_b" transform="matrix(11,0,0,11,280.3,283.7)" />
<use xlink:href="#f2_h" transform="matrix(11,0,0,11,288.7,283.7)" />
<use xlink:href="#f2_d" transform="matrix(11,0,0,11,299.5,283.7)" />
<use xlink:href="#f2_1d" transform="matrix(11,0,0,11,306.8,283.7)" />
<use xlink:href="#f2_b" transform="matrix(11,0,0,11,311.6,283.7)" />
<use xlink:href="#f2_h" transform="matrix(11,0,0,11,320,283.7)" />
<use xlink:href="#f2_9" transform="matrix(11,0,0,11,330.6,283.7)" />
<use xlink:href="#f2_o" transform="matrix(11,0,0,11,338.1,283.7)" />
<use xlink:href="#f2_g" transform="matrix(11,0,0,11,350.8,283.7)" />
<use xlink:href="#f2_o" transform="matrix(11,0,0,11,359.2,283.7)" />
<use xlink:href="#f2_d" transform="matrix(11,0,0,11,367.4,283.7)" />
<use xlink:href="#f2_h" transform="matrix(11,0,0,11,379.1,283.7)" />
<use xlink:href="#f2_d" transform="matrix(11,0,0,11,385.7,283.7)" />
<use xlink:href="#f2_f" transform="matrix(11,0,0,11,393,283.7)" />
<use xlink:href="#f2_a" transform="matrix(11,0,0,11,398.7,283.7)" />
<use xlink:href="#f2_11" transform="matrix(11,0,0,11,403.4,283.7)" />
<use xlink:href="#f2_o" transform="matrix(11,0,0,11,410.8,283.7)" />
<use xlink:href="#f2_t" transform="matrix(11,0,0,11,423.4,283.7)" />
<use xlink:href="#f2_d" transform="matrix(11,0,0,11,431.8,283.7)" />
<use xlink:href="#f2_h" transform="matrix(11,0,0,11,439.2,283.7)" />
<use xlink:href="#f2_a" transform="matrix(11,0,0,11,445.6,283.7)" />
<use xlink:href="#f2_d" transform="matrix(11,0,0,11,450.4,283.7)" />
<use xlink:href="#f2_18" transform="matrix(11,0,0,11,462.1,283.7)" />
<use xlink:href="#f2_g" transform="matrix(11,0,0,11,470.5,283.7)" />
<use xlink:href="#f2_9" transform="matrix(11,0,0,11,478.9,283.7)" />
<use xlink:href="#f2_9" transform="matrix(11,0,0,11,490.5,283.7)" />
<use xlink:href="#f2_h" transform="matrix(11,0,0,11,497.9,283.7)" />
<use xlink:href="#f2_a" transform="matrix(11,0,0,11,504.4,283.7)" />
<use xlink:href="#f2_1g" transform="matrix(11,0,0,11,509.1,283.7)" />
<use xlink:href="#f2_o" transform="matrix(11,0,0,11,516.6,283.7)" />
<use xlink:href="#f2_8" transform="matrix(11,0,0,11,529.2,283.7)" />
<use xlink:href="#f2_b" transform="matrix(11,0,0,11,537.6,283.7)" />
<use xlink:href="#f2_f" transform="matrix(11,0,0,11,545.9,283.7)" />
<use xlink:href="#f2_d" transform="matrix(11,0,0,11,551.5,283.7)" />
<use xlink:href="#f2_8" transform="matrix(11,0,0,11,559,283.7)" />
<use xlink:href="#f2_b" transform="matrix(11,0,0,11,567.4,283.7)" />
<use xlink:href="#f2_h" transform="matrix(11,0,0,11,575.8,283.7)" />
<use xlink:href="#f2_4" transform="matrix(11,0,0,11,582.3,283.7)" />
<use xlink:href="#f2_1o" transform="matrix(11,0,0,11,137.7,313.7)" />
<use xlink:href="#f2_1k" transform="matrix(11,0,0,11,149.7,313.7)" />
<use xlink:href="#f2_d" transform="matrix(11,0,0,11,158.1,313.7)" />
<use xlink:href="#f2_8" transform="matrix(11,0,0,11,165.6,313.7)" />
<use xlink:href="#f2_n" transform="matrix(11,0,0,11,174,313.7)" />
<use xlink:href="#f2_c" transform="matrix(11,0,0,11,178.7,313.7)" />
<use xlink:href="#f2_b" transform="matrix(11,0,0,11,191.8,313.7)" />
<use xlink:href="#f2_h" transform="matrix(11,0,0,11,200.2,313.7)" />
<use xlink:href="#f2_k" transform="matrix(11,0,0,11,212.7,313.7)" />
<use xlink:href="#f2_b" transform="matrix(11,0,0,11,217.4,313.7)" />
<use xlink:href="#f2_h" transform="matrix(11,0,0,11,225.7,313.7)" />
<use xlink:href="#f2_d" transform="matrix(11,0,0,11,238.3,313.7)" />
<use xlink:href="#f2_1d" transform="matrix(11,0,0,11,245.7,313.7)" />
<use xlink:href="#f2_b" transform="matrix(11,0,0,11,250.4,313.7)" />
<use xlink:href="#f2_h" transform="matrix(11,0,0,11,258.8,313.7)" />
<use xlink:href="#f2_8" transform="matrix(11,0,0,11,271.4,313.7)" />
<use xlink:href="#f2_b" transform="matrix(11,0,0,11,279.8,313.7)" />
<use xlink:href="#f2_f" transform="matrix(11,0,0,11,288.1,313.7)" />
<use xlink:href="#f2_d" transform="matrix(11,0,0,11,293.7,313.7)" />
<use xlink:href="#f2_8" transform="matrix(11,0,0,11,301.2,313.7)" />
<use xlink:href="#f2_b" transform="matrix(11,0,0,11,309.6,313.7)" />
<use xlink:href="#f2_h" transform="matrix(11,0,0,11,318,313.7)" />
<use xlink:href="#f2_d" transform="matrix(11,0,0,11,330.6,313.7)" />
<use xlink:href="#f2_k" transform="matrix(11,0,0,11,344,313.7)" />
<use xlink:href="#f2_d" transform="matrix(11,0,0,11,348.6,313.7)" />
<use xlink:href="#f2_h" transform="matrix(11,0,0,11,356.1,313.7)" />
<use xlink:href="#f2_e" transform="matrix(11,0,0,11,368.7,313.7)" />
<use xlink:href="#f2_9" transform="matrix(11,0,0,11,377,313.7)" />
<use xlink:href="#f2_f" transform="matrix(11,0,0,11,384.4,313.7)" />
<use xlink:href="#f2_8" transform="matrix(11,0,0,11,390.1,313.7)" />
<use xlink:href="#f2_g" transform="matrix(11,0,0,11,398.5,313.7)" />
<use xlink:href="#f2_f" transform="matrix(11,0,0,11,406.9,313.7)" />
<use xlink:href="#f2_d" transform="matrix(11,0,0,11,412.5,313.7)" />
<use xlink:href="#f2_h" transform="matrix(11,0,0,11,419.8,313.7)" />
<use xlink:href="#f2_4" transform="matrix(11,0,0,11,426.4,313.7)" />
<use xlink:href="#f2_26" transform="matrix(11,0,0,11,436.6,313.7)" />
<use xlink:href="#f2_9" transform="matrix(11,0,0,11,447.7,313.7)" />
<use xlink:href="#f2_e" transform="matrix(11,0,0,11,455.2,313.7)" />
<use xlink:href="#f2_b" transform="matrix(11,0,0,11,463.6,313.7)" />
<use xlink:href="#f2_k" transform="matrix(11,0,0,11,472,313.7)" />
<use xlink:href="#f2_e" transform="matrix(11,0,0,11,476.7,313.7)" />
<use xlink:href="#f2_9" transform="matrix(11,0,0,11,485.1,313.7)" />
<use xlink:href="#f2_c" transform="matrix(11,0,0,11,492.6,313.7)" />
<use xlink:href="#f2_b" transform="matrix(11,0,0,11,505.7,313.7)" />
<use xlink:href="#f2_h" transform="matrix(11,0,0,11,514,313.7)" />
<use xlink:href="#f2_j" transform="matrix(11,0,0,11,526.6,313.7)" />
<use xlink:href="#f2_n" transform="matrix(11,0,0,11,535,313.7)" />
<use xlink:href="#f2_9" transform="matrix(11,0,0,11,539.6,313.7)" />
<use xlink:href="#f2_o" transform="matrix(11,0,0,11,547.1,313.7)" />
<use xlink:href="#f2_k" transform="matrix(11,0,0,11,561.5,313.7)" />
<use xlink:href="#f2_d" transform="matrix(11,0,0,11,566.1,313.7)" />
<use xlink:href="#f2_h" transform="matrix(11,0,0,11,573.6,313.7)" />
<use xlink:href="#f2_e" transform="matrix(11,0,0,11,586.2,313.7)" />
<use xlink:href="#f2_9" transform="matrix(11,0,0,11,594.5,313.7)" />
<use xlink:href="#f2_f" transform="matrix(11,0,0,11,601.9,313.7)" />
<use xlink:href="#f2_8" transform="matrix(11,0,0,11,607.6,313.7)" />
<use xlink:href="#f2_g" transform="matrix(11,0,0,11,616,313.7)" />
<use xlink:href="#f2_f" transform="matrix(11,0,0,11,624.4,313.7)" />
<use xlink:href="#f2_d" transform="matrix(11,0,0,11,630,313.7)" />
<use xlink:href="#f2_h" transform="matrix(11,0,0,11,637.3,313.7)" />
<use xlink:href="#f2_l" transform="matrix(11,0,0,11,650,313.7)" />
<use xlink:href="#f2_8" transform="matrix(11,0,0,11,137.7,342.5)" />
<use xlink:href="#f2_9" transform="matrix(11,0,0,11,146.1,342.5)" />
<use xlink:href="#f2_1d" transform="matrix(11,0,0,11,153.5,342.5)" />
<use xlink:href="#f2_d" transform="matrix(11,0,0,11,158.2,342.5)" />
<use xlink:href="#f2_c" transform="matrix(11,0,0,11,165.6,342.5)" />
<use xlink:href="#f2_b" transform="matrix(11,0,0,11,178.7,342.5)" />
<use xlink:href="#f2_h" transform="matrix(11,0,0,11,187.1,342.5)" />
<use xlink:href="#f2_t" transform="matrix(11,0,0,11,197.8,342.5)" />
<use xlink:href="#f2_9" transform="matrix(11,0,0,11,206.2,342.5)" />
<use xlink:href="#f2_f" transform="matrix(11,0,0,11,213.6,342.5)" />
<use xlink:href="#f2_e" transform="matrix(11,0,0,11,219.3,342.5)" />
<use xlink:href="#f2_n" transform="matrix(11,0,0,11,227.7,342.5)" />
<use xlink:href="#f2_f" transform="matrix(11,0,0,11,232.3,342.5)" />
<use xlink:href="#f2_m" transform="matrix(11,0,0,11,242.1,342.5)" />
<use xlink:href="#f2_b" transform="matrix(11,0,0,11,250.6,342.5)" />
<use xlink:href="#f2_f" transform="matrix(11,0,0,11,258.8,342.5)" />
<use xlink:href="#f2_g" transform="matrix(11,0,0,11,268.7,342.5)" />
<use xlink:href="#f2_o" transform="matrix(11,0,0,11,277.1,342.5)" />
<use xlink:href="#f2_b" transform="matrix(11,0,0,11,285.5,342.5)" />
<use xlink:href="#f2_h" transform="matrix(11,0,0,11,293.9,342.5)" />
<use xlink:href="#f2_c" transform="matrix(11,0,0,11,304.6,342.5)" />
<use xlink:href="#f2_n" transform="matrix(11,0,0,11,317.7,342.5)" />
<use xlink:href="#f2_o" transform="matrix(11,0,0,11,322.3,342.5)" />
<use xlink:href="#f2_g" transform="matrix(11,0,0,11,330.7,342.5)" />
<use xlink:href="#f2_a" transform="matrix(11,0,0,11,339.1,342.5)" />
<use xlink:href="#f2_b" transform="matrix(11,0,0,11,343.8,342.5)" />
<use xlink:href="#f2_h" transform="matrix(11,0,0,11,352.2,342.5)" />
<use xlink:href="#f2_c" transform="matrix(11,0,0,11,362.9,342.5)" />
<use xlink:href="#f2_1g" transform="matrix(11,0,0,11,376,342.5)" />
<use xlink:href="#f2_h" transform="matrix(11,0,0,11,383.5,342.5)" />
<use xlink:href="#f2_z" transform="matrix(11,0,0,11,389.9,342.5)" />
<use xlink:href="#f2_1y" transform="matrix(11,0,0,11,398.4,342.5)" />
<use xlink:href="#f2_k" transform="matrix(11,0,0,11,414.6,342.5)" />
<use xlink:href="#f2_d" transform="matrix(11,0,0,11,419.3,342.5)" />
<use xlink:href="#f2_h" transform="matrix(11,0,0,11,430.9,342.5)" />
<use xlink:href="#f2_b" transform="matrix(11,0,0,11,437.5,342.5)" />
<use xlink:href="#f2_m" transform="matrix(11,0,0,11,445.9,342.5)" />
<use xlink:href="#f2_d" transform="matrix(11,0,0,11,454.3,342.5)" />
<use xlink:href="#f2_9" transform="matrix(11,0,0,11,466,342.5)" />
<use xlink:href="#f2_h" transform="matrix(11,0,0,11,473.3,342.5)" />
<use xlink:href="#f2_a" transform="matrix(11,0,0,11,479.9,342.5)" />
<use xlink:href="#f2_d" transform="matrix(11,0,0,11,484.6,342.5)" />
<use xlink:href="#f2_m" transform="matrix(11,0,0,11,496.2,342.5)" />
<use xlink:href="#f2_f" transform="matrix(11,0,0,11,504.6,342.5)" />
<use xlink:href="#f2_9" transform="matrix(11,0,0,11,510.2,342.5)" />
<use xlink:href="#f2_m" transform="matrix(11,0,0,11,517.7,342.5)" />
<use xlink:href="#f2_d" transform="matrix(11,0,0,11,525.9,342.5)" />
<use xlink:href="#f2_f" transform="matrix(11,0,0,11,533.4,342.5)" />
<use xlink:href="#f2_d" transform="matrix(11,0,0,11,539,342.5)" />
<use xlink:href="#f2_8" transform="matrix(11,0,0,11,546.5,342.5)" />
<use xlink:href="#f2_d" transform="matrix(11,0,0,11,554.9,342.5)" />
<use xlink:href="#f2_4" transform="matrix(11,0,0,11,562.2,342.5)" />
</g>
<g fill="#0000FF" >
<use xlink:href="#f0_o" transform="matrix(12,0,0,12,723.6,391.3)" />
<use xlink:href="#f0_7" transform="matrix(12,0,0,12,736.1,391.3)" />
<use xlink:href="#f0_u" transform="matrix(12,0,0,12,741.5,391.3)" />
<use xlink:href="#f0_b" transform="matrix(12,0,0,12,749.3,391.3)" />
<use xlink:href="#f0_a" transform="matrix(12,0,0,12,760,391.3)" />
</g>
</g>
<path d="M723.1,393.1h49.3" class="g3_15" />
<g clip-path="url(#c0_15)">
<g fill="#000000" >
<use xlink:href="#f3_7" transform="matrix(12,0,0,12,546.6,599.7)" />
<use xlink:href="#f3_8" transform="matrix(12,0,0,12,559.2,599.7)" />
<use xlink:href="#f3_5" transform="matrix(12,0,0,12,565.4,599.7)" />
<use xlink:href="#f3_9" transform="matrix(12,0,0,12,577.5,599.7)" />
<use xlink:href="#f3_4" transform="matrix(12,0,0,12,588.3,599.7)" />
<use xlink:href="#f3_k" transform="matrix(12,0,0,12,599.3,599.7)" />
<use xlink:href="#f3_p" transform="matrix(12,0,0,12,614,599.7)" />
<use xlink:href="#f3_i" transform="matrix(12,0,0,12,626.8,599.7)" />
<use xlink:href="#f3_d" transform="matrix(12,0,0,12,632.1,599.7)" />
<use xlink:href="#f3_i" transform="matrix(12,0,0,12,643.1,599.7)" />
<use xlink:href="#f3_c" transform="matrix(12,0,0,12,648.5,599.7)" />
<use xlink:href="#f3_1b" transform="matrix(12,0,0,12,668.2,599.7)" />
<use xlink:href="#f3_p" transform="matrix(12,0,0,12,675.2,599.7)" />
<use xlink:href="#f3_i" transform="matrix(12,0,0,12,688,599.7)" />
<use xlink:href="#f3_d" transform="matrix(12,0,0,12,693.3,599.7)" />
<use xlink:href="#f3_i" transform="matrix(12,0,0,12,704.3,599.7)" />
<use xlink:href="#f3_c" transform="matrix(12,0,0,12,709.7,599.7)" />
<use xlink:href="#f3_4" transform="matrix(12,0,0,12,729.5,599.7)" />
<use xlink:href="#f3_h" transform="matrix(12,0,0,12,740.5,599.7)" />
<use xlink:href="#f3_8" transform="matrix(12,0,0,12,752.4,599.7)" />
<use xlink:href="#f3_f" transform="matrix(12,0,0,12,758.7,599.7)" />
<use xlink:href="#f0_c" transform="matrix(12,0,0,12,138,621)" />
<use xlink:href="#f0_4" transform="matrix(12,0,0,12,149.9,621)" />
<use xlink:href="#f0_3" transform="matrix(12,0,0,12,160.3,621)" />
<use xlink:href="#f0_e" transform="matrix(12,0,0,12,164.4,621)" />
<use xlink:href="#f0_d" transform="matrix(12,0,0,12,176.9,621)" />
<use xlink:href="#f0_9" transform="matrix(12,0,0,12,196.9,621)" />
<use xlink:href="#f0_e" transform="matrix(12,0,0,12,209.8,621)" />
<use xlink:href="#f0_a" transform="matrix(12,0,0,12,222.3,621)" />
<use xlink:href="#f0_9" transform="matrix(12,0,0,12,234.4,621)" />
<use xlink:href="#f0_c" transform="matrix(12,0,0,12,247.4,621)" />
<use xlink:href="#f0_4" transform="matrix(12,0,0,12,259.3,621)" />
<use xlink:href="#f0_b" transform="matrix(12,0,0,12,279,621)" />
<use xlink:href="#f0_a" transform="matrix(12,0,0,12,289.3,621)" />
<use xlink:href="#f0_7" transform="matrix(12,0,0,12,301.4,621)" />
<use xlink:href="#f0_3" transform="matrix(12,0,0,12,306.3,621)" />
<use xlink:href="#f0_4" transform="matrix(12,0,0,12,320,621)" />
<use xlink:href="#f0_d" transform="matrix(12,0,0,12,330.4,621)" />
<use xlink:href="#f0_7" transform="matrix(12,0,0,12,340.9,621)" />
<use xlink:href="#f0_8" transform="matrix(12,0,0,12,345.8,621)" />
<use xlink:href="#f0_e" transform="matrix(12,0,0,12,358.8,621)" />
<use xlink:href="#f0_a" transform="matrix(12,0,0,12,380.8,621)" />
<use xlink:href="#f0_7" transform="matrix(12,0,0,12,392.7,621)" />
<use xlink:href="#f0_q" transform="matrix(12,0,0,12,397.7,621)" />
<use xlink:href="#f0_7" transform="matrix(12,0,0,12,405,621)" />
<use xlink:href="#f0_9" transform="matrix(12,0,0,12,410.1,621)" />
<use xlink:href="#f0_a" transform="matrix(12,0,0,12,432.5,621)" />
<use xlink:href="#f0_7" transform="matrix(12,0,0,12,444.4,621)" />
<use xlink:href="#f0_q" transform="matrix(12,0,0,12,449.4,621)" />
<use xlink:href="#f0_3" transform="matrix(12,0,0,12,456.8,621)" />
<use xlink:href="#f0_i" transform="matrix(12,0,0,12,460.9,621)" />
<use xlink:href="#f0_e" transform="matrix(12,0,0,12,470.8,621)" />
<use xlink:href="#f0_d" transform="matrix(12,0,0,12,483.3,621)" />
<use xlink:href="#f0_n" transform="matrix(12,0,0,12,503.3,621)" />
<use xlink:href="#f0_a" transform="matrix(12,0,0,12,509.1,621)" />
<use xlink:href="#f0_7" transform="matrix(12,0,0,12,521.1,621)" />
<use xlink:href="#f0_d" transform="matrix(12,0,0,12,526.1,621)" />
<use xlink:href="#f0_b" transform="matrix(12,0,0,12,536.7,621)" />
<use xlink:href="#f0_a" transform="matrix(12,0,0,12,556.5,621)" />
<use xlink:href="#f0_7" transform="matrix(12,0,0,12,568.4,621)" />
<use xlink:href="#f0_m" transform="matrix(12,0,0,12,573.5,621)" />
<use xlink:href="#f0_i" transform="matrix(12,0,0,12,584.9,621)" />
<use xlink:href="#f0_b" transform="matrix(12,0,0,12,594.8,621)" />
<use xlink:href="#f0_q" transform="matrix(12,0,0,12,605.2,621)" />
<use xlink:href="#f0_o" transform="matrix(12,0,0,12,622,621)" />
<use xlink:href="#f0_3" transform="matrix(12,0,0,12,634.2,621)" />
<use xlink:href="#f0_4" transform="matrix(12,0,0,12,638.2,621)" />
<use xlink:href="#f0_3" transform="matrix(12,0,0,12,648.6,621)" />
<use xlink:href="#f0_e" transform="matrix(12,0,0,12,652.7,621)" />
<use xlink:href="#f0_9" transform="matrix(12,0,0,12,674.6,621)" />
<use xlink:href="#f0_3" transform="matrix(12,0,0,12,687.5,621)" />
<use xlink:href="#f0_a" transform="matrix(12,0,0,12,701,621)" />
<use xlink:href="#f0_3" transform="matrix(12,0,0,12,713.1,621)" />
<use xlink:href="#f0_i" transform="matrix(12,0,0,12,717.2,621)" />
<use xlink:href="#f0_b" transform="matrix(12,0,0,12,727.1,621)" />
<use xlink:href="#f0_m" transform="matrix(12,0,0,12,737.5,621)" />
<use xlink:href="#f0_h" transform="matrix(12,0,0,12,748.9,621)" />
<use xlink:href="#f0_d" transform="matrix(12,0,0,12,760.8,621)" />
<use xlink:href="#f0_n" transform="matrix(12,0,0,12,270.7,642.4)" />
<use xlink:href="#f0_i" transform="matrix(12,0,0,12,276.5,642.4)" />
<use xlink:href="#f0_j" transform="matrix(12,0,0,12,286.6,642.4)" />
<use xlink:href="#f0_e" transform="matrix(12,0,0,12,298.7,642.4)" />
<use xlink:href="#f0_a" transform="matrix(12,0,0,12,317.1,642.4)" />
<use xlink:href="#f0_7" transform="matrix(12,0,0,12,329.1,642.4)" />
<use xlink:href="#f0_s" transform="matrix(12,0,0,12,334.1,642.4)" />
<use xlink:href="#f0_7" transform="matrix(12,0,0,12,344.9,642.4)" />
<use xlink:href="#f0_m" transform="matrix(12,0,0,12,350,642.4)" />
<use xlink:href="#f0_q" transform="matrix(12,0,0,12,361.4,642.4)" />
<use xlink:href="#f0_o" transform="matrix(12,0,0,12,374.5,642.4)" />
<use xlink:href="#f0_3" transform="matrix(12,0,0,12,386.8,642.4)" />
<use xlink:href="#f0_4" transform="matrix(12,0,0,12,390.9,642.4)" />
<use xlink:href="#f0_3" transform="matrix(12,0,0,12,401.3,642.4)" />
<use xlink:href="#f0_e" transform="matrix(12,0,0,12,405.2,642.4)" />
<use xlink:href="#f0_4" transform="matrix(12,0,0,12,423.5,642.4)" />
<use xlink:href="#f0_3" transform="matrix(12,0,0,12,433.9,642.4)" />
<use xlink:href="#f0_f" transform="matrix(12,0,0,12,438.1,642.4)" />
<use xlink:href="#f0_e" transform="matrix(12,0,0,12,447.7,642.4)" />
<use xlink:href="#f0_2" transform="matrix(12,0,0,12,466.1,642.4)" />
<use xlink:href="#f0_3" transform="matrix(12,0,0,12,475.9,642.4)" />
<use xlink:href="#f0_q" transform="matrix(12,0,0,12,480,642.4)" />
<use xlink:href="#f0_m" transform="matrix(12,0,0,12,487.3,642.4)" />
<use xlink:href="#f0_4" transform="matrix(12,0,0,12,498.8,642.4)" />
<use xlink:href="#f0_9" transform="matrix(12,0,0,12,509.2,642.4)" />
<use xlink:href="#f0_o" transform="matrix(12,0,0,12,528,642.4)" />
<use xlink:href="#f0_3" transform="matrix(12,0,0,12,540.2,642.4)" />
<use xlink:href="#f0_4" transform="matrix(12,0,0,12,544.3,642.4)" />
<use xlink:href="#f0_3" transform="matrix(12,0,0,12,554.7,642.4)" />
<use xlink:href="#f0_e" transform="matrix(12,0,0,12,558.6,642.4)" />
<use xlink:href="#f0_c" transform="matrix(12,0,0,12,571.2,642.4)" />
<use xlink:href="#f0_b" transform="matrix(12,0,0,12,588.9,642.4)" />
<use xlink:href="#f0_s" transform="matrix(12,0,0,12,599.3,642.4)" />
<use xlink:href="#f0_7" transform="matrix(12,0,0,12,610.1,642.4)" />
<use xlink:href="#f0_j" transform="matrix(12,0,0,12,615.1,642.4)" />
<use xlink:href="#f0_n" transform="matrix(12,0,0,12,633.3,642.4)" />
<use xlink:href="#f0_a" transform="matrix(12,0,0,12,639.1,642.4)" />
<use xlink:href="#f0_b" transform="matrix(12,0,0,12,651.2,642.4)" />
<use xlink:href="#f0_r" transform="matrix(12,0,0,12,661.5,642.4)" />
<use xlink:href="#f0_j" transform="matrix(12,0,0,12,673.5,642.4)" />
<use xlink:href="#f0_d" transform="matrix(12,0,0,12,685.7,642.4)" />
<use xlink:href="#f0_j" transform="matrix(12,0,0,12,702.2,642.4)" />
<use xlink:href="#f0_4" transform="matrix(12,0,0,12,714.4,642.4)" />
<use xlink:href="#f0_7" transform="matrix(12,0,0,12,724.8,642.4)" />
<use xlink:href="#f0_a" transform="matrix(12,0,0,12,735.6,642.4)" />
<use xlink:href="#f0_r" transform="matrix(12,0,0,12,747.7,642.4)" />
<use xlink:href="#f0_j" transform="matrix(12,0,0,12,759.6,642.4)" />
</g>
</g>
<path d="M128.6,666.5H512.2m-383.6,20H512.2M128.6,708.7H512.2M128.6,730.8H512.2M128.6,753H512.2M128.6,775.1H512.2M128.6,797.3H512.2M128.6,819.4H512.2M128.6,841.6H512.2M128.6,863.7H512.2M128.6,885.9H512.2M128.6,908H512.2M128.6,930.2H512.2M128.6,952.3H512.2M128.6,974.5H512.2M128.6,996.6H512.2m-383.6,22.2H512.2M128.6,1041H512.2m-383.6,22.1H512.2m-383.6,22.2H512.2m-383.6,22.1H512.2m-383.6,22.2H512.2M128.9,666.1v463.8M258.8,666.1v463.8m130,-463.8v463.8m123,-463.8v463.8" class="g1_15" />
<g clip-path="url(#c0_15)">
<g fill="#000000" >
<use xlink:href="#f2_1z" transform="matrix(11,0,0,11,453.9,682.5)" />
<use xlink:href="#f2_9" transform="matrix(11,0,0,11,466,682.5)" />
<use xlink:href="#f2_j" transform="matrix(11,0,0,11,473.4,682.5)" />
<use xlink:href="#f2_f" transform="matrix(11,0,0,11,481.8,682.5)" />
<use xlink:href="#f2_9" transform="matrix(11,0,0,11,487.5,682.5)" />
<use xlink:href="#f2_b" transform="matrix(11,0,0,11,494.9,682.5)" />
<use xlink:href="#f2_14" transform="matrix(11,0,0,11,267.7,682.5)" />
<use xlink:href="#f2_d" transform="matrix(11,0,0,11,278.8,682.5)" />
<use xlink:href="#f2_h" transform="matrix(11,0,0,11,286.3,682.5)" />
<use xlink:href="#f2_a" transform="matrix(11,0,0,11,292.7,682.5)" />
<use xlink:href="#f2_9" transform="matrix(11,0,0,11,297.4,682.5)" />
<use xlink:href="#f2_k" transform="matrix(11,0,0,11,304.9,682.5)" />
<use xlink:href="#f2_k" transform="matrix(11,0,0,11,309.5,682.5)" />
<use xlink:href="#f2_d" transform="matrix(11,0,0,11,314.2,682.5)" />
<use xlink:href="#f2_o" transform="matrix(11,0,0,11,321.7,682.5)" />
<use xlink:href="#f2_b" transform="matrix(11,0,0,11,330.1,682.5)" />
<use xlink:href="#f2_14" transform="matrix(11,0,0,11,137.7,682.5)" />
<use xlink:href="#f2_d" transform="matrix(11,0,0,11,148.8,682.5)" />
<use xlink:href="#f2_h" transform="matrix(11,0,0,11,156.3,682.5)" />
<use xlink:href="#f2_a" transform="matrix(11,0,0,11,162.8,682.5)" />
<use xlink:href="#f2_9" transform="matrix(11,0,0,11,167.5,682.5)" />
<use xlink:href="#f2_k" transform="matrix(11,0,0,11,174.9,682.5)" />
<use xlink:href="#f2_k" transform="matrix(11,0,0,11,179.6,682.5)" />
<use xlink:href="#f2_d" transform="matrix(11,0,0,11,184.3,682.5)" />
<use xlink:href="#f2_o" transform="matrix(11,0,0,11,191.8,682.5)" />
<use xlink:href="#f2_b" transform="matrix(11,0,0,11,200.2,682.5)" />
<use xlink:href="#f0_o" transform="matrix(12,0,0,12,469.9,704)" />
<use xlink:href="#f0_7" transform="matrix(12,0,0,12,482.2,704)" />
<use xlink:href="#f0_3" transform="matrix(12,0,0,12,487.2,704)" />
<use xlink:href="#f0_j" transform="matrix(12,0,0,12,491.3,704)" />
<use xlink:href="#f2_t" transform="matrix(11,0,0,11,267.7,702.6)" />
<use xlink:href="#f2_b" transform="matrix(11,0,0,11,276.1,702.6)" />
<use xlink:href="#f2_f" transform="matrix(11,0,0,11,284.3,702.6)" />
<use xlink:href="#f2_f" transform="matrix(11,0,0,11,290,702.6)" />
<use xlink:href="#f2_n" transform="matrix(11,0,0,11,295.6,702.6)" />
<use xlink:href="#f2_j" transform="matrix(11,0,0,11,300.3,702.6)" />
<use xlink:href="#f2_k" transform="matrix(11,0,0,11,308.6,702.6)" />
<use xlink:href="#f2_9" transform="matrix(11,0,0,11,313.3,702.6)" />
<use xlink:href="#f2_a" transform="matrix(11,0,0,11,137.7,702.6)" />
<use xlink:href="#f2_9" transform="matrix(11,0,0,11,142.4,702.6)" />
<use xlink:href="#f2_f" transform="matrix(11,0,0,11,149.7,702.6)" />
<use xlink:href="#f2_f" transform="matrix(11,0,0,11,155.3,702.6)" />
<use xlink:href="#f2_n" transform="matrix(11,0,0,11,161,702.6)" />
<use xlink:href="#f2_j" transform="matrix(11,0,0,11,165.7,702.6)" />
<use xlink:href="#f2_k" transform="matrix(11,0,0,11,173.9,702.6)" />
<use xlink:href="#f2_9" transform="matrix(11,0,0,11,178.7,702.6)" />
<use xlink:href="#f0_b" transform="matrix(12,0,0,12,465.5,726.2)" />
<use xlink:href="#f0_7" transform="matrix(12,0,0,12,475.7,726.2)" />
<use xlink:href="#f0_l" transform="matrix(12,0,0,12,480.8,726.2)" />
<use xlink:href="#f0_3" transform="matrix(12,0,0,12,487.2,726.2)" />
<use xlink:href="#f0_j" transform="matrix(12,0,0,12,491.3,726.2)" />
<use xlink:href="#f2_13" transform="matrix(11,0,0,11,267.7,724.8)" />
<use xlink:href="#f2_b" transform="matrix(11,0,0,11,275.1,724.8)" />
<use xlink:href="#f2_o" transform="matrix(11,0,0,11,283.5,724.8)" />
<use xlink:href="#f2_d" transform="matrix(11,0,0,11,291.8,724.8)" />
<use xlink:href="#f2_1g" transform="matrix(11,0,0,11,137.7,724.8)" />
<use xlink:href="#f2_f" transform="matrix(11,0,0,11,145.1,724.8)" />
<use xlink:href="#f2_9" transform="matrix(11,0,0,11,150.7,724.8)" />
<use xlink:href="#f2_d" transform="matrix(11,0,0,11,158.1,724.8)" />
<use xlink:href="#f0_o" transform="matrix(12,0,0,12,469.8,748.3)" />
<use xlink:href="#f0_f" transform="matrix(12,0,0,12,482,748.3)" />
<use xlink:href="#f0_r" transform="matrix(12,0,0,12,491.6,748.3)" />
<use xlink:href="#f2_n" transform="matrix(11,0,0,11,267.7,746.9)" />
<use xlink:href="#f2_o" transform="matrix(11,0,0,11,272.3,746.9)" />
<use xlink:href="#f2_a" transform="matrix(11,0,0,11,280.7,746.9)" />
<use xlink:href="#f2_9" transform="matrix(11,0,0,11,285.4,746.9)" />
<use xlink:href="#f2_k" transform="matrix(11,0,0,11,292.7,746.9)" />
<use xlink:href="#f2_n" transform="matrix(11,0,0,11,297.4,746.9)" />
<use xlink:href="#f2_u" transform="matrix(11,0,0,11,302.2,746.9)" />
<use xlink:href="#f2_9" transform="matrix(11,0,0,11,310.6,746.9)" />
<use xlink:href="#f2_o" transform="matrix(11,0,0,11,318,746.9)" />
<use xlink:href="#f2_a" transform="matrix(11,0,0,11,326.3,746.9)" />
<use xlink:href="#f2_9" transform="matrix(11,0,0,11,331,746.9)" />
<use xlink:href="#f2_h" transform="matrix(11,0,0,11,137.7,746.9)" />
<use xlink:href="#f2_d" transform="matrix(11,0,0,11,144.2,746.9)" />
<use xlink:href="#f2_j" transform="matrix(11,0,0,11,151.7,746.9)" />
<use xlink:href="#f2_n" transform="matrix(11,0,0,11,160.1,746.9)" />
<use xlink:href="#f2_b" transform="matrix(11,0,0,11,164.8,746.9)" />
<use xlink:href="#f0_x" transform="matrix(12,0,0,12,419.5,770.5)" />
<use xlink:href="#f0_a" transform="matrix(12,0,0,12,426.7,770.5)" />
<use xlink:href="#f0_e" transform="matrix(12,0,0,12,438.7,770.5)" />
<use xlink:href="#f0_j" transform="matrix(12,0,0,12,451.2,770.5)" />
<use xlink:href="#f0_v" transform="matrix(12,0,0,12,463.5,770.5)" />
<use xlink:href="#f0_p" transform="matrix(12,0,0,12,476.5,770.5)" />
<use xlink:href="#f0_7" transform="matrix(12,0,0,12,481.5,770.5)" />
<use xlink:href="#f0_f" transform="matrix(12,0,0,12,486.5,770.5)" />
<use xlink:href="#f0_q" transform="matrix(12,0,0,12,496.1,770.5)" />
<use xlink:href="#f2_e" transform="matrix(11,0,0,11,267.7,769.1)" />
<use xlink:href="#f2_9" transform="matrix(11,0,0,11,276.1,769.1)" />
<use xlink:href="#f2_f" transform="matrix(11,0,0,11,283.4,769.1)" />
<use xlink:href="#f2_8" transform="matrix(11,0,0,11,289,769.1)" />
<use xlink:href="#f2_d" transform="matrix(11,0,0,11,297.4,769.1)" />
<use xlink:href="#f2_8" transform="matrix(11,0,0,11,304.9,769.1)" />
<use xlink:href="#f2_i" transform="matrix(11,0,0,11,137.7,769.1)" />
<use xlink:href="#f2_n" transform="matrix(11,0,0,11,145.1,769.1)" />
<use xlink:href="#f2_9" transform="matrix(11,0,0,11,149.8,769.1)" />
<use xlink:href="#f2_f" transform="matrix(11,0,0,11,157.2,769.1)" />
<use xlink:href="#f2_a" transform="matrix(11,0,0,11,162.8,769.1)" />
<use xlink:href="#f2_b" transform="matrix(11,0,0,11,167.5,769.1)" />
<use xlink:href="#f0_j" transform="matrix(12,0,0,12,410.2,792.6)" />
<use xlink:href="#f0_4" transform="matrix(12,0,0,12,422.4,792.6)" />
<use xlink:href="#f0_o" transform="matrix(12,0,0,12,438.6,792.6)" />
<use xlink:href="#f0_5" transform="matrix(12,0,0,12,450.9,792.6)" />
<use xlink:href="#f0_m" transform="matrix(12,0,0,12,462.3,792.6)" />
<use xlink:href="#f0_g" transform="matrix(12,0,0,12,479.6,792.6)" />
<use xlink:href="#f0_j" transform="matrix(12,0,0,12,491.3,792.6)" />
<use xlink:href="#f2_1d" transform="matrix(11,0,0,11,267.7,791.2)" />
<use xlink:href="#f2_d" transform="matrix(11,0,0,11,272.3,791.2)" />
<use xlink:href="#f2_c" transform="matrix(11,0,0,11,279.7,791.2)" />
<use xlink:href="#f2_1g" transform="matrix(11,0,0,11,292.8,791.2)" />
<use xlink:href="#f2_h" transform="matrix(11,0,0,11,300.2,791.2)" />
<use xlink:href="#f2_o" transform="matrix(11,0,0,11,137.7,791.2)" />
<use xlink:href="#f2_g" transform="matrix(11,0,0,11,146.1,791.2)" />
<use xlink:href="#f2_o" transform="matrix(11,0,0,11,154.5,791.2)" />
<use xlink:href="#f2_i" transform="matrix(11,0,0,11,162.9,791.2)" />
<use xlink:href="#f2_d" transform="matrix(11,0,0,11,170.3,791.2)" />
<use xlink:href="#f0_b" transform="matrix(12,0,0,12,465.7,814.8)" />
<use xlink:href="#f0_7" transform="matrix(12,0,0,12,476,814.8)" />
<use xlink:href="#f0_r" transform="matrix(12,0,0,12,481.1,814.8)" />
<use xlink:href="#f0_d" transform="matrix(12,0,0,12,493,814.8)" />
<use xlink:href="#f2_c" transform="matrix(11,0,0,11,267.7,813.4)" />
<use xlink:href="#f2_g" transform="matrix(11,0,0,11,280.7,813.4)" />
<use xlink:href="#f2_i" transform="matrix(11,0,0,11,289.1,813.4)" />
<use xlink:href="#f2_t" transform="matrix(11,0,0,11,296.5,813.4)" />
<use xlink:href="#f2_d" transform="matrix(11,0,0,11,304.9,813.4)" />
<use xlink:href="#f2_i" transform="matrix(11,0,0,11,312.4,813.4)" />
<use xlink:href="#f2_t" transform="matrix(11,0,0,11,319.8,813.4)" />
<use xlink:href="#f2_b" transform="matrix(11,0,0,11,328.3,813.4)" />
<use xlink:href="#f2_i" transform="matrix(11,0,0,11,137.7,813.4)" />
<use xlink:href="#f2_t" transform="matrix(11,0,0,11,145.1,813.4)" />
<use xlink:href="#f2_n" transform="matrix(11,0,0,11,153.5,813.4)" />
<use xlink:href="#f2_i" transform="matrix(11,0,0,11,158.2,813.4)" />
<use xlink:href="#f2_b" transform="matrix(11,0,0,11,165.7,813.4)" />
<use xlink:href="#f0_i" transform="matrix(12,0,0,12,479,836.9)" />
<use xlink:href="#f0_4" transform="matrix(12,0,0,12,489,836.9)" />
<use xlink:href="#f0_3" transform="matrix(12,0,0,12,499.4,836.9)" />
<use xlink:href="#f2_o" transform="matrix(11,0,0,11,267.7,835.5)" />
<use xlink:href="#f2_n" transform="matrix(11,0,0,11,275.9,835.5)" />
<use xlink:href="#f2_1k" transform="matrix(11,0,0,11,280.6,835.5)" />
<use xlink:href="#f2_b" transform="matrix(11,0,0,11,289,835.5)" />
<use xlink:href="#f2_i" transform="matrix(11,0,0,11,137.7,835.5)" />
<use xlink:href="#f2_t" transform="matrix(11,0,0,11,145.1,835.5)" />
<use xlink:href="#f2_n" transform="matrix(11,0,0,11,153.5,835.5)" />
<use xlink:href="#f2_i" transform="matrix(11,0,0,11,158.2,835.5)" />
<use xlink:href="#f2_b" transform="matrix(11,0,0,11,165.7,835.5)" />
<use xlink:href="#f0_b" transform="matrix(12,0,0,12,455.3,859.1)" />
<use xlink:href="#f0_7" transform="matrix(12,0,0,12,465.7,859.1)" />
<use xlink:href="#f0_r" transform="matrix(12,0,0,12,470.7,859.1)" />
<use xlink:href="#f0_d" transform="matrix(12,0,0,12,482.6,859.1)" />
<use xlink:href="#f0_4" transform="matrix(12,0,0,12,493.1,859.1)" />
<use xlink:href="#f2_9" transform="matrix(11,0,0,11,267.7,857.7)" />
<use xlink:href="#f2_k" transform="matrix(11,0,0,11,275,857.7)" />
<use xlink:href="#f2_9" transform="matrix(11,0,0,11,279.7,857.7)" />
<use xlink:href="#f2_u" transform="matrix(11,0,0,11,287.2,857.7)" />
<use xlink:href="#f2_n" transform="matrix(11,0,0,11,295.6,857.7)" />
<use xlink:href="#f2_f" transform="matrix(11,0,0,11,300.2,857.7)" />
<use xlink:href="#f2_9" transform="matrix(11,0,0,11,137.7,857.7)" />
<use xlink:href="#f2_h" transform="matrix(11,0,0,11,145.1,857.7)" />
<use xlink:href="#f2_i" transform="matrix(11,0,0,11,151.7,857.7)" />
<use xlink:href="#f2_b" transform="matrix(11,0,0,11,159.1,857.7)" />
<use xlink:href="#f2_u" transform="matrix(11,0,0,11,167.5,857.7)" />
<use xlink:href="#f2_9" transform="matrix(11,0,0,11,175.9,857.7)" />
<use xlink:href="#f2_f" transform="matrix(11,0,0,11,183.3,857.7)" />
<use xlink:href="#f0_r" transform="matrix(12,0,0,12,455.3,881.2)" />
<use xlink:href="#f0_7" transform="matrix(12,0,0,12,467.2,881.2)" />
<use xlink:href="#f0_b" transform="matrix(12,0,0,12,472.2,881.2)" />
<use xlink:href="#f0_d" transform="matrix(12,0,0,12,482.6,881.2)" />
<use xlink:href="#f0_4" transform="matrix(12,0,0,12,493.1,881.2)" />
<use xlink:href="#f2_t" transform="matrix(11,0,0,11,267.7,879.8)" />
<use xlink:href="#f2_g" transform="matrix(11,0,0,11,276.1,879.8)" />
<use xlink:href="#f2_n" transform="matrix(11,0,0,11,284.3,879.8)" />
<use xlink:href="#f2_f" transform="matrix(11,0,0,11,289,879.8)" />
<use xlink:href="#f2_9" transform="matrix(11,0,0,11,137.7,879.8)" />
<use xlink:href="#f2_h" transform="matrix(11,0,0,11,145.1,879.8)" />
<use xlink:href="#f2_i" transform="matrix(11,0,0,11,151.7,879.8)" />
<use xlink:href="#f2_d" transform="matrix(11,0,0,11,159.1,879.8)" />
<use xlink:href="#f2_m" transform="matrix(11,0,0,11,166.6,879.8)" />
<use xlink:href="#f2_d" transform="matrix(11,0,0,11,174.8,879.8)" />
<use xlink:href="#f2_f" transform="matrix(11,0,0,11,182.3,879.8)" />
<use xlink:href="#f0_p" transform="matrix(12,0,0,12,461.5,903.4)" />
<use xlink:href="#f0_3" transform="matrix(12,0,0,12,466.6,903.4)" />
<use xlink:href="#f0_d" transform="matrix(12,0,0,12,470.7,903.4)" />
<use xlink:href="#f0_c" transform="matrix(12,0,0,12,481.2,903.4)" />
<use xlink:href="#f0_4" transform="matrix(12,0,0,12,493.1,903.4)" />
<use xlink:href="#f2_9" transform="matrix(11,0,0,11,267.7,902)" />
<use xlink:href="#f2_o" transform="matrix(11,0,0,11,275.1,902)" />
<use xlink:href="#f2_a" transform="matrix(11,0,0,11,283.4,902)" />
<use xlink:href="#f2_9" transform="matrix(11,0,0,11,288.1,902)" />
<use xlink:href="#f2_o" transform="matrix(11,0,0,11,295.6,902)" />
<use xlink:href="#f2_8" transform="matrix(11,0,0,11,304,902)" />
<use xlink:href="#f2_9" transform="matrix(11,0,0,11,312.4,902)" />
<use xlink:href="#f2_f" transform="matrix(11,0,0,11,319.8,902)" />
<use xlink:href="#f2_i" transform="matrix(11,0,0,11,137.7,902)" />
<use xlink:href="#f2_b" transform="matrix(11,0,0,11,145.1,902)" />
<use xlink:href="#f2_c" transform="matrix(11,0,0,11,153.5,902)" />
<use xlink:href="#f2_m" transform="matrix(11,0,0,11,166.6,902)" />
<use xlink:href="#f2_f" transform="matrix(11,0,0,11,174.9,902)" />
<use xlink:href="#f2_9" transform="matrix(11,0,0,11,180.5,902)" />
<use xlink:href="#f2_o" transform="matrix(11,0,0,11,188,902)" />
<use xlink:href="#f2_8" transform="matrix(11,0,0,11,196.4,902)" />
<use xlink:href="#f2_9" transform="matrix(11,0,0,11,204.8,902)" />
<use xlink:href="#f2_f" transform="matrix(11,0,0,11,212.3,902)" />
<use xlink:href="#f0_k" transform="matrix(12,0,0,12,440.8,925.5)" />
<use xlink:href="#f0_3" transform="matrix(12,0,0,12,452.7,925.5)" />
<use xlink:href="#f0_9" transform="matrix(12,0,0,12,456.8,925.5)" />
<use xlink:href="#f0_m" transform="matrix(12,0,0,12,469.7,925.5)" />
<use xlink:href="#f0_c" transform="matrix(12,0,0,12,481.2,925.5)" />
<use xlink:href="#f0_4" transform="matrix(12,0,0,12,493.1,925.5)" />
<use xlink:href="#f2_8" transform="matrix(11,0,0,11,267.7,924.2)" />
<use xlink:href="#f2_9" transform="matrix(11,0,0,11,276.1,924.2)" />
<use xlink:href="#f2_h" transform="matrix(11,0,0,11,283.4,924.2)" />
<use xlink:href="#f2_e" transform="matrix(11,0,0,11,290,924.2)" />
<use xlink:href="#f2_9" transform="matrix(11,0,0,11,298.4,924.2)" />
<use xlink:href="#f2_h" transform="matrix(11,0,0,11,305.8,924.2)" />
<use xlink:href="#f2_a" transform="matrix(11,0,0,11,312.4,924.2)" />
<use xlink:href="#f2_n" transform="matrix(11,0,0,11,317,924.2)" />
<use xlink:href="#f2_f" transform="matrix(11,0,0,11,321.7,924.2)" />
<use xlink:href="#f2_8" transform="matrix(11,0,0,11,137.7,924.2)" />
<use xlink:href="#f2_9" transform="matrix(11,0,0,11,146.1,924.2)" />
<use xlink:href="#f2_h" transform="matrix(11,0,0,11,153.5,924.2)" />
<use xlink:href="#f2_o" transform="matrix(11,0,0,11,160.1,924.2)" />
<use xlink:href="#f2_g" transform="matrix(11,0,0,11,168.5,924.2)" />
<use xlink:href="#f2_8" transform="matrix(11,0,0,11,176.9,924.2)" />
<use xlink:href="#f2_d" transform="matrix(11,0,0,11,185.3,924.2)" />
<use xlink:href="#f2_f" transform="matrix(11,0,0,11,192.6,924.2)" />
<use xlink:href="#f0_b" transform="matrix(12,0,0,12,459.4,947.7)" />
<use xlink:href="#f0_7" transform="matrix(12,0,0,12,469.8,947.7)" />
<use xlink:href="#f0_l" transform="matrix(12,0,0,12,474.8,947.7)" />
<use xlink:href="#f0_r" transform="matrix(12,0,0,12,481.2,947.7)" />
<use xlink:href="#f0_4" transform="matrix(12,0,0,12,493.1,947.7)" />
<use xlink:href="#f2_e" transform="matrix(11,0,0,11,267.7,946.3)" />
<use xlink:href="#f2_b" transform="matrix(11,0,0,11,276.1,946.3)" />
<use xlink:href="#f2_k" transform="matrix(11,0,0,11,284.3,946.3)" />
<use xlink:href="#f2_e" transform="matrix(11,0,0,11,289,946.3)" />
<use xlink:href="#f2_9" transform="matrix(11,0,0,11,297.4,946.3)" />
<use xlink:href="#f2_f" transform="matrix(11,0,0,11,304.9,946.3)" />
<use xlink:href="#f2_f" transform="matrix(11,0,0,11,137.7,946.3)" />
<use xlink:href="#f2_9" transform="matrix(11,0,0,11,143.3,946.3)" />
<use xlink:href="#f2_u" transform="matrix(11,0,0,11,150.7,946.3)" />
<use xlink:href="#f2_f" transform="matrix(11,0,0,11,159,946.3)" />
<use xlink:href="#f2_9" transform="matrix(11,0,0,11,164.6,946.3)" />
<use xlink:href="#f2_h" transform="matrix(11,0,0,11,172.1,946.3)" />
<use xlink:href="#f2_d" transform="matrix(11,0,0,11,178.6,946.3)" />
<use xlink:href="#f2_f" transform="matrix(11,0,0,11,186.1,946.3)" />
<use xlink:href="#f0_b" transform="matrix(12,0,0,12,459.4,969.8)" />
<use xlink:href="#f0_7" transform="matrix(12,0,0,12,469.8,969.8)" />
<use xlink:href="#f0_l" transform="matrix(12,0,0,12,474.8,969.8)" />
<use xlink:href="#f0_r" transform="matrix(12,0,0,12,481.2,969.8)" />
<use xlink:href="#f0_4" transform="matrix(12,0,0,12,493.1,969.8)" />
<use xlink:href="#f2_e" transform="matrix(11,0,0,11,267.7,968.5)" />
<use xlink:href="#f2_b" transform="matrix(11,0,0,11,276.1,968.5)" />
<use xlink:href="#f2_k" transform="matrix(11,0,0,11,284.3,968.5)" />
<use xlink:href="#f2_e" transform="matrix(11,0,0,11,289,968.5)" />
<use xlink:href="#f2_9" transform="matrix(11,0,0,11,297.4,968.5)" />
<use xlink:href="#f2_f" transform="matrix(11,0,0,11,304.9,968.5)" />
<use xlink:href="#f2_f" transform="matrix(11,0,0,11,137.7,968.5)" />
<use xlink:href="#f2_9" transform="matrix(11,0,0,11,143.3,968.5)" />
<use xlink:href="#f2_a" transform="matrix(11,0,0,11,150.6,968.5)" />
<use xlink:href="#f2_b" transform="matrix(11,0,0,11,155.3,968.5)" />
<use xlink:href="#f2_f" transform="matrix(11,0,0,11,163.7,968.5)" />
<use xlink:href="#f2_o" transform="matrix(11,0,0,11,169.4,968.5)" />
<use xlink:href="#f2_d" transform="matrix(11,0,0,11,177.8,968.5)" />
<use xlink:href="#f2_f" transform="matrix(11,0,0,11,185.2,968.5)" />
<use xlink:href="#f0_d" transform="matrix(12,0,0,12,414.3,992)" />
<use xlink:href="#f0_f" transform="matrix(12,0,0,12,424.9,992)" />
<use xlink:href="#f0_b" transform="matrix(12,0,0,12,434.5,992)" />
<use xlink:href="#f0_d" transform="matrix(12,0,0,12,444.9,992)" />
<use xlink:href="#f0_u" transform="matrix(12,0,0,12,461.4,992)" />
<use xlink:href="#f0_7" transform="matrix(12,0,0,12,468.8,992)" />
<use xlink:href="#f0_c" transform="matrix(12,0,0,12,473.9,992)" />
<use xlink:href="#f0_q" transform="matrix(12,0,0,12,485.8,992)" />
<use xlink:href="#f0_4" transform="matrix(12,0,0,12,493.1,992)" />
<use xlink:href="#f2_i" transform="matrix(11,0,0,11,267.7,990.6)" />
<use xlink:href="#f2_b" transform="matrix(11,0,0,11,275.1,990.6)" />
<use xlink:href="#f2_o" transform="matrix(11,0,0,11,283.5,990.6)" />
<use xlink:href="#f2_8" transform="matrix(11,0,0,11,291.9,990.6)" />
<use xlink:href="#f2_g" transform="matrix(11,0,0,11,300.3,990.6)" />
<use xlink:href="#f2_i" transform="matrix(11,0,0,11,308.6,990.6)" />
<use xlink:href="#f2_n" transform="matrix(11,0,0,11,316,990.6)" />
<use xlink:href="#f2_f" transform="matrix(11,0,0,11,320.8,990.6)" />
<use xlink:href="#f2_c" transform="matrix(11,0,0,11,137.7,990.6)" />
<use xlink:href="#f2_d" transform="matrix(11,0,0,11,150.8,990.6)" />
<use xlink:href="#f2_o" transform="matrix(11,0,0,11,158.2,990.6)" />
<use xlink:href="#f2_9" transform="matrix(11,0,0,11,166.6,990.6)" />
<use xlink:href="#f2_1d" transform="matrix(11,0,0,11,174,990.6)" />
<use xlink:href="#f2_d" transform="matrix(11,0,0,11,178.7,990.6)" />
<use xlink:href="#f2_f" transform="matrix(11,0,0,11,186.2,990.6)" />
<use xlink:href="#f0_o" transform="matrix(12,0,0,12,437.4,1014.1)" />
<use xlink:href="#f0_3" transform="matrix(12,0,0,12,449.5,1014.1)" />
<use xlink:href="#f0_m" transform="matrix(12,0,0,12,453.6,1014.1)" />
<use xlink:href="#f0_8" transform="matrix(12,0,0,12,465,1014.1)" />
<use xlink:href="#f0_9" transform="matrix(12,0,0,12,478,1014.1)" />
<use xlink:href="#f0_e" transform="matrix(12,0,0,12,491,1014.1)" />
<use xlink:href="#f2_k" transform="matrix(11,0,0,11,267.7,1012.8)" />
<use xlink:href="#f2_9" transform="matrix(11,0,0,11,272.3,1012.8)" />
<use xlink:href="#f2_o" transform="matrix(11,0,0,11,279.7,1012.8)" />
<use xlink:href="#f2_a" transform="matrix(11,0,0,11,288.1,1012.8)" />
<use xlink:href="#f2_9" transform="matrix(11,0,0,11,292.8,1012.8)" />
<use xlink:href="#f2_h" transform="matrix(11,0,0,11,300.2,1012.8)" />
<use xlink:href="#f2_d" transform="matrix(11,0,0,11,137.7,1012.8)" />
<use xlink:href="#f2_o" transform="matrix(11,0,0,11,145.1,1012.8)" />
<use xlink:href="#f2_a" transform="matrix(11,0,0,11,153.5,1012.8)" />
<use xlink:href="#f2_9" transform="matrix(11,0,0,11,158.2,1012.8)" />
<use xlink:href="#f2_b" transform="matrix(11,0,0,11,165.7,1012.8)" />
<use xlink:href="#f2_1d" transform="matrix(11,0,0,11,174,1012.8)" />
<use xlink:href="#f2_b" transform="matrix(11,0,0,11,178.7,1012.8)" />
<use xlink:href="#f2_h" transform="matrix(11,0,0,11,187.1,1012.8)" />
<use xlink:href="#f0_c" transform="matrix(12,0,0,12,476.1,1036.3)" />
<use xlink:href="#f0_m" transform="matrix(12,0,0,12,488,1036.3)" />
<use xlink:href="#f0_3" transform="matrix(12,0,0,12,499.4,1036.3)" />
<use xlink:href="#f2_j" transform="matrix(11,0,0,11,267.7,1034.9)" />
<use xlink:href="#f2_b" transform="matrix(11,0,0,11,276.1,1034.9)" />
<use xlink:href="#f2_o" transform="matrix(11,0,0,11,284.5,1034.9)" />
<use xlink:href="#f2_n" transform="matrix(11,0,0,11,292.7,1034.9)" />
<use xlink:href="#f2_a" transform="matrix(11,0,0,11,297.4,1034.9)" />
<use xlink:href="#f2_b" transform="matrix(11,0,0,11,302.2,1034.9)" />
<use xlink:href="#f2_k" transform="matrix(11,0,0,11,137.7,1034.9)" />
<use xlink:href="#f2_n" transform="matrix(11,0,0,11,142.4,1034.9)" />
<use xlink:href="#f2_o" transform="matrix(11,0,0,11,147,1034.9)" />
<use xlink:href="#f2_8" transform="matrix(11,0,0,11,155.4,1034.9)" />
<use xlink:href="#f2_b" transform="matrix(11,0,0,11,163.8,1034.9)" />
<use xlink:href="#f0_c" transform="matrix(12,0,0,12,476.1,1058.4)" />
<use xlink:href="#f0_m" transform="matrix(12,0,0,12,488,1058.4)" />
<use xlink:href="#f0_3" transform="matrix(12,0,0,12,499.4,1058.4)" />
<use xlink:href="#f2_j" transform="matrix(11,0,0,11,267.7,1057.1)" />
<use xlink:href="#f2_b" transform="matrix(11,0,0,11,276.1,1057.1)" />
<use xlink:href="#f2_o" transform="matrix(11,0,0,11,284.5,1057.1)" />
<use xlink:href="#f2_n" transform="matrix(11,0,0,11,292.7,1057.1)" />
<use xlink:href="#f2_a" transform="matrix(11,0,0,11,297.4,1057.1)" />
<use xlink:href="#f2_b" transform="matrix(11,0,0,11,302.2,1057.1)" />
<use xlink:href="#f2_t" transform="matrix(11,0,0,11,137.7,1057.1)" />
<use xlink:href="#f2_9" transform="matrix(11,0,0,11,146.1,1057.1)" />
<use xlink:href="#f2_f" transform="matrix(11,0,0,11,153.5,1057.1)" />
<use xlink:href="#f2_c" transform="matrix(11,0,0,11,159,1057.1)" />
<use xlink:href="#f2_b" transform="matrix(11,0,0,11,172.1,1057.1)" />
<use xlink:href="#f2_h" transform="matrix(11,0,0,11,180.5,1057.1)" />
<use xlink:href="#f2_b" transform="matrix(11,0,0,11,187.1,1057.1)" />
<use xlink:href="#f0_c" transform="matrix(12,0,0,12,463.8,1080.6)" />
<use xlink:href="#f0_b" transform="matrix(12,0,0,12,475.8,1080.6)" />
<use xlink:href="#f0_7" transform="matrix(12,0,0,12,486,1080.6)" />
<use xlink:href="#f0_e" transform="matrix(12,0,0,12,491,1080.6)" />
<use xlink:href="#f2_c" transform="matrix(11,0,0,11,267.7,1079.2)" />
<use xlink:href="#f2_d" transform="matrix(11,0,0,11,280.7,1079.2)" />
<use xlink:href="#f2_9" transform="matrix(11,0,0,11,288.1,1079.2)" />
<use xlink:href="#f2_h" transform="matrix(11,0,0,11,295.6,1079.2)" />
<use xlink:href="#f2_a" transform="matrix(11,0,0,11,302,1079.2)" />
<use xlink:href="#f2_f" transform="matrix(11,0,0,11,306.7,1079.2)" />
<use xlink:href="#f2_b" transform="matrix(11,0,0,11,312.4,1079.2)" />
<use xlink:href="#f2_m" transform="matrix(11,0,0,11,137.7,1079.2)" />
<use xlink:href="#f2_f" transform="matrix(11,0,0,11,146.1,1079.2)" />
<use xlink:href="#f2_b" transform="matrix(11,0,0,11,151.7,1079.2)" />
<use xlink:href="#f2_y" transform="matrix(11,0,0,11,160.1,1079.2)" />
<use xlink:href="#f2_9" transform="matrix(11,0,0,11,165.6,1079.2)" />
<use xlink:href="#f2_h" transform="matrix(11,0,0,11,173,1079.2)" />
<use xlink:href="#f2_b" transform="matrix(11,0,0,11,179.6,1079.2)" />
<use xlink:href="#f2_f" transform="matrix(11,0,0,11,188,1079.2)" />
<use xlink:href="#f0_a" transform="matrix(12,0,0,12,451,1102.8)" />
<use xlink:href="#f0_7" transform="matrix(12,0,0,12,463,1102.8)" />
<use xlink:href="#f0_a" transform="matrix(12,0,0,12,468.1,1102.8)" />
<use xlink:href="#f0_9" transform="matrix(12,0,0,12,480.1,1102.8)" />
<use xlink:href="#f0_4" transform="matrix(12,0,0,12,493.1,1102.8)" />
<use xlink:href="#f2_j" transform="matrix(11,0,0,11,267.7,1101.4)" />
<use xlink:href="#f2_9" transform="matrix(11,0,0,11,276.1,1101.4)" />
<use xlink:href="#f2_j" transform="matrix(11,0,0,11,283.5,1101.4)" />
<use xlink:href="#f2_9" transform="matrix(11,0,0,11,291.8,1101.4)" />
<use xlink:href="#f2_f" transform="matrix(11,0,0,11,299.2,1101.4)" />
<use xlink:href="#f2_a" transform="matrix(11,0,0,11,137.7,1101.4)" />
<use xlink:href="#f2_b" transform="matrix(11,0,0,11,142.4,1101.4)" />
<use xlink:href="#f2_c" transform="matrix(11,0,0,11,150.6,1101.4)" />
<use xlink:href="#f2_d" transform="matrix(11,0,0,11,163.8,1101.4)" />
<use xlink:href="#f2_f" transform="matrix(11,0,0,11,171.2,1101.4)" />
<use xlink:href="#f0_a" transform="matrix(12,0,0,12,399.2,1124.9)" />
<use xlink:href="#f0_r" transform="matrix(12,0,0,12,411.3,1124.9)" />
<use xlink:href="#f0_8" transform="matrix(12,0,0,12,423.2,1124.9)" />
<use xlink:href="#f0_4" transform="matrix(12,0,0,12,436.1,1124.9)" />
<use xlink:href="#f0_19" transform="matrix(12,0,0,12,446.5,1124.9)" />
<use xlink:href="#f0_h" transform="matrix(12,0,0,12,452.6,1124.9)" />
<use xlink:href="#f0_7" transform="matrix(12,0,0,12,464.5,1124.9)" />
<use xlink:href="#f0_m" transform="matrix(12,0,0,12,469.6,1124.9)" />
<use xlink:href="#f0_a" transform="matrix(12,0,0,12,481,1124.9)" />
<use xlink:href="#f0_4" transform="matrix(12,0,0,12,493.1,1124.9)" />
<use xlink:href="#f2_i" transform="matrix(11,0,0,11,267.7,1123.5)" />
<use xlink:href="#f2_b" transform="matrix(11,0,0,11,275.1,1123.5)" />
<use xlink:href="#f2_u" transform="matrix(11,0,0,11,283.5,1123.5)" />
<use xlink:href="#f2_9" transform="matrix(11,0,0,11,291.8,1123.5)" />
<use xlink:href="#f2_f" transform="matrix(11,0,0,11,299.2,1123.5)" />
<use xlink:href="#f2_a" transform="matrix(11,0,0,11,137.7,1123.5)" />
<use xlink:href="#f2_b" transform="matrix(11,0,0,11,142.4,1123.5)" />
<use xlink:href="#f2_c" transform="matrix(11,0,0,11,150.6,1123.5)" />
<use xlink:href="#f2_d" transform="matrix(11,0,0,11,163.8,1123.5)" />
<use xlink:href="#f2_f" transform="matrix(11,0,0,11,171.2,1123.5)" />
<use xlink:href="#f0_13" transform="matrix(11,0,0,11,137.5,1208.9)" />
<use xlink:href="#f0_14" transform="matrix(11,0,0,11,148.2,1208.9)" />
</g>
</g>
<image preserveAspectRatio="none" x="351" y="375" width="206" height="135" xlink:href="img/1.png" />
<image preserveAspectRatio="none" x="673" y="266" width="99" height="65" xlink:href="img/2.png" />
<defs>
<path d="M354,-200c0,0,-112,175,-167,343c0,0,-56,170,-56,337c0,0,0,166,55,335c0,0,55,169,168,345H473c0,0,-100,-172,-148,-340c0,0,-48,-168,-48,-340c0,0,0,-173,48,-342c0,0,49,-168,148,-338Z" 
id="f0_x"
transform="scale(0.001,-0.001)" />

<path d="M112,-5c0,0,-39,0,-97,11V113c0,0,48,-10,77,-10c0,0,53,0,70,42c0,0,17,43,17,164V729H50V836H501c0,0,107,0,179,-25c0,0,72,-25,112,-77c0,0,40,-51,57,-118c0,0,16,-67,16,-164V0H726V454c0,0,0,55,-3,92c0,0,-4,37,-17,75c0,0,-14,38,-38,59c0,0,-24,22,-65,36c0,0,-42,13,-102,13H318V309c0,0,0,-160,-46,-237C272,72,226,-5,112,-5Z" 
id="f0_a"
transform="scale(0.001,-0.001)" />

<path d="M585,0V426c0,0,0,54,-8,98c0,0,-8,44,-27,83c0,0,-19,40,-49,66c0,0,-30,26,-77,41c0,0,-47,15,-108,15H66V836H315c0,0,94,0,166,-20c0,0,71,-20,116,-54c0,0,46,-35,75,-88c0,0,28,-52,40,-112c0,0,12,-60,12,-137V0Z" 
id="f0_b"
transform="scale(0.001,-0.001)" />

<path d="M139,0V836H278V0Z" 
id="f0_7"
transform="scale(0.001,-0.001)" />

<path d="M66,0V106H322c0,0,75,0,127,23c0,0,53,23,82,67c0,0,29,43,42,98c0,0,13,54,13,124c0,0,0,70,-13,124c0,0,-13,55,-42,98c0,0,-29,44,-82,67c0,0,-52,23,-127,23H66V836H322c0,0,87,0,157,-24c0,0,70,-24,115,-64c0,0,45,-40,74,-94c0,0,30,-55,43,-113c0,0,13,-59,13,-123c0,0,0,-64,-13,-123c0,0,-13,-58,-43,-113c0,0,-29,-54,-74,-94C594,88,549,48,479,24C479,24,409,0,322,0Z" 
id="f0_f"
transform="scale(0.001,-0.001)" />

<path d="M152,0V473c0,0,0,94,28,161c0,0,29,66,71,95H66V836H463V729H404c0,0,-65,0,-89,-57c0,0,-25,-58,-25,-199V0Z" 
id="f0_l"
transform="scale(0.001,-0.001)" />

<path d="M122,-200c0,0,99,170,148,338c0,0,49,169,49,342c0,0,0,172,-49,340c0,0,-49,168,-148,340H241c0,0,112,-176,168,-345c0,0,55,-169,55,-335c0,0,0,-167,-55,-337c0,0,-56,-168,-168,-343Z" 
id="f0_v"
transform="scale(0.001,-0.001)" />

<path d="M51,0V55L180,74V926L51,946v54H543V946L415,926V74L543,55V0Z" 
id="f1_l"
transform="scale(0.001,-0.001)" />

<path d="M41,0V49l69,18V634L41,652v49H313l11,-61l50,26c0,0,105,54,188,54c0,0,194,0,194,-207V67L827,49V0H478V49l63,18V484c0,0,0,63,-27,98c0,0,-26,35,-75,35c0,0,-57,0,-114,-25V67L389,49V0Z" 
id="f1_8"
transform="scale(0.001,-0.001)" />

<path d="M360,-256c0,0,108,0,167,35c0,0,59,35,59,98c0,0,0,70,-95,70H254c0,0,-65,-47,-65,-108c0,0,0,-47,46,-71c0,0,45,-24,125,-24Zm9,561c0,0,55,0,79,43c0,0,25,43,25,129c0,0,0,87,-24,127c0,0,-25,41,-80,41c0,0,-52,0,-75,-41c0,0,-24,-40,-24,-127c0,0,0,-86,23,-129c0,0,23,-43,76,-43Zm-9,-641c0,0,-153,0,-236,43c0,0,-84,44,-84,120c0,0,0,33,28,65c0,0,27,31,105,76c0,0,-44,17,-75,59c0,0,-31,43,-31,90L192,258c0,0,-133,56,-133,219c0,0,0,116,81,180c0,0,82,63,233,63c0,0,32,0,82,-6c0,0,51,-6,74,-13l168,83l26,-32L638,631c0,0,46,-57,46,-154c0,0,0,-119,-80,-182c0,0,-80,-64,-234,-64c0,0,-59,0,-114,9L238,183c0,0,1,-22,28,-41c0,0,26,-19,64,-19H493c0,0,256,0,256,-196c0,0,0,-81,-44,-139c0,0,-45,-59,-131,-92c0,0,-86,-32,-214,-32Z" 
id="f1_1u"
transform="scale(0.001,-0.001)" />

<path d="M41,0V49l91,18V634L41,652v49H336l8,-145c0,0,80,89,144,128c0,0,64,40,117,40h40V468H604l-45,94c0,0,-47,0,-106,-21c0,0,-60,-20,-105,-48V67L460,49V0Z" 
id="f1_u"
transform="scale(0.001,-0.001)" />

<path d="M434,423c0,0,0,101,-7,142c0,0,-6,40,-22,60c0,0,-16,19,-45,19c0,0,-44,0,-66,-48c0,0,-22,-49,-22,-173ZM389,-14c0,0,-172,0,-254,89c0,0,-83,90,-83,279c0,0,0,184,79,274c0,0,79,91,238,91c0,0,142,0,206,-76c0,0,64,-76,64,-237V345H271V333c0,0,0,-111,18,-158c0,0,18,-47,58,-72c0,0,40,-25,110,-25c0,0,66,0,166,22V42C623,42,582,18,517,1c0,0,-66,-15,-128,-15Z" 
id="f1_t"
transform="scale(0.001,-0.001)" />

<path d="M416,68c0,0,60,0,124,32V628c0,0,-58,15,-118,15c0,0,-67,0,-104,-73c0,0,-38,-73,-38,-216c0,0,0,-139,36,-212c0,0,35,-74,100,-74ZM369,-14c0,0,-155,0,-231,88c0,0,-76,90,-76,274c0,0,0,182,82,277c0,0,81,95,236,95c0,0,82,0,165,-20c0,0,-5,24,-5,115V992l-72,18v50H756V67L833,49V0H562L547,40C547,40,505,13,483,4c0,0,-23,-7,-51,-12c0,0,-28,-6,-63,-6Z" 
id="f1_r"
transform="scale(0.001,-0.001)" />

<path d="M34,0V49l76,18V634L38,652v49H325V67L402,49V0ZM217,831c0,0,-48,0,-81,33c0,0,-34,33,-34,82c0,0,0,48,34,81c0,0,34,33,81,33c0,0,48,0,81,-33c0,0,33,-33,33,-81c0,0,0,-47,-33,-81c0,0,-32,-34,-81,-34Z" 
id="f1_7"
transform="scale(0.001,-0.001)" />

<path d="M327,-14c0,0,-101,0,-156,45c0,0,-55,45,-55,131V624H25v48l108,29l87,159H332V701H480V624H332V176c0,0,0,-49,20,-73c0,0,20,-25,53,-25c0,0,40,0,97,12V26c0,0,-22,-15,-76,-27c0,0,-55,-13,-99,-13Z" 
id="f1_s"
transform="scale(0.001,-0.001)" />

<path d="M276,-14c0,0,-57,0,-125,13C151,-1,83,10,48,23V214H97l28,-98c0,0,26,-26,69,-44c0,0,42,-17,86,-17c0,0,65,0,97,28c0,0,32,28,32,71c0,0,0,41,-31,65c0,0,-30,25,-133,57c0,0,-108,34,-154,92c0,0,-45,58,-45,143c0,0,0,95,71,152c0,0,71,57,183,57c0,0,77,0,207,-22V518H457l-24,82c0,0,-21,22,-60,35c0,0,-40,14,-75,14c0,0,-53,0,-79,-22c0,0,-26,-22,-26,-59c0,0,0,-40,32,-65c0,0,32,-26,132,-55c0,0,109,-34,155,-89c0,0,45,-55,45,-137c0,0,0,-117,-72,-177c0,0,-72,-59,-209,-59Z" 
id="f1_a"
transform="scale(0.001,-0.001)" />

<path d="M248,-20c0,0,-52,0,-87,34c0,0,-36,36,-36,88c0,0,0,52,36,88c0,0,35,36,87,36c0,0,52,0,88,-36c0,0,36,-36,36,-88c0,0,0,-51,-36,-87c0,0,-35,-35,-88,-35Zm0,488c0,0,-52,0,-87,36c0,0,-36,36,-36,88c0,0,0,52,35,88c0,0,35,36,88,36c0,0,53,0,89,-36c0,0,35,-37,35,-88c0,0,0,-51,-36,-87c0,0,-35,-37,-88,-37Z" 
id="f1_1p"
transform="scale(0.001,-0.001)" />

<path d="M379,60c0,0,59,0,84,64c0,0,24,65,24,231c0,0,0,164,-24,227c0,0,-24,63,-84,63c0,0,-57,0,-80,-60c0,0,-22,-61,-22,-230c0,0,0,-173,23,-234c0,0,22,-61,79,-61Zm-2,-74c0,0,-161,0,-240,91c0,0,-79,91,-79,277c0,0,0,186,80,276c0,0,81,90,245,90c0,0,167,0,245,-93c0,0,78,-93,78,-273c0,0,0,-188,-81,-278c0,0,-81,-90,-248,-90Z" 
id="f1_6"
transform="scale(0.001,-0.001)" />

<path d="M41,0V49l69,18V634L41,652v49H313l11,-61l50,26c0,0,105,54,188,54c0,0,125,0,167,-91c0,0,153,91,258,91c0,0,189,0,189,-207V67l71,-17V0H898V50l63,17V484c0,0,0,63,-24,98c0,0,-25,35,-74,35c0,0,-55,0,-119,-31c0,0,7,-32,7,-73V67L821,50V0H473V50l63,17V484c0,0,0,63,-25,98c0,0,-24,35,-73,35c0,0,-49,0,-113,-29V67L389,49V0Z" 
id="f1_w"
transform="scale(0.001,-0.001)" />

<path d="M345,75c0,0,50,0,110,26V351l-63,-2c0,0,-72,-3,-100,-38c0,0,-28,-35,-28,-113c0,0,0,-63,22,-93c0,0,23,-30,59,-30ZM266,-14c0,0,-217,0,-217,208c0,0,0,79,32,126c0,0,32,48,93,71c0,0,60,22,190,25l91,2V521c0,0,0,126,-104,126c0,0,-62,0,-140,-39L183,521H134V691c0,0,112,17,165,21c0,0,53,5,108,5c0,0,264,0,264,-194V67L741,49V0H483L466,54C466,54,408,14,361,0c0,0,-47,-14,-95,-14Z" 
id="f1_3"
transform="scale(0.001,-0.001)" />

<path d="M20,-236v69c0,0,47,14,81,37c0,0,33,24,52,52c0,0,18,28,18,53c0,0,0,17,-11,28c0,0,-12,12,-45,30c0,0,-57,30,-57,93c0,0,0,48,34,74c0,0,33,25,85,25c0,0,63,0,105,-41c0,0,42,-41,42,-105c0,0,0,-115,-78,-195c0,0,-77,-81,-226,-120Z" 
id="f1_1i"
transform="scale(0.001,-0.001)" />

<path d="M438,65c0,0,131,0,131,293c0,0,0,279,-130,279c0,0,-69,0,-127,-29V80c0,0,60,-15,126,-15ZM20,-325v50l76,18V634L19,652v49H304l1,-36c0,0,80,55,194,55c0,0,146,0,218,-86c0,0,71,-86,71,-271c0,0,0,-183,-83,-280c0,0,-83,-97,-238,-97c0,0,-79,0,-160,19c0,0,5,-48,5,-109V-257l103,-18v-50Z" 
id="f1_b"
transform="scale(0.001,-0.001)" />

<path d="M425,-14c0,0,-187,0,-280,90c0,0,-93,90,-93,276c0,0,0,115,42,198c0,0,43,82,121,126c0,0,78,44,182,44c0,0,104,0,227,-26V486H571L539,609c0,0,-25,19,-50,26c0,0,-24,7,-65,7c0,0,-44,0,-79,-35c0,0,-36,-35,-56,-98c0,0,-20,-64,-20,-153c0,0,0,-150,47,-214c0,0,47,-64,148,-64c0,0,103,0,176,21V42C640,42,606,15,547,0c0,0,-59,-14,-122,-14Z" 
id="f1_5"
transform="scale(0.001,-0.001)" />

<path d="M424,64c0,0,74,0,109,71c0,0,36,72,36,236c0,0,0,137,-34,201c0,0,-34,65,-111,65c0,0,-29,0,-62,-7c0,0,-34,-6,-55,-19V76c0,0,47,-12,117,-12Zm21,-78c0,0,-121,0,-354,50V994l-72,18v48H307V802c0,0,0,-69,-8,-141c0,0,30,25,86,42c0,0,57,17,110,17c0,0,153,0,223,-84c0,0,70,-83,70,-266c0,0,0,-180,-90,-283C698,87,608,-14,445,-14Z" 
id="f1_1v"
transform="scale(0.001,-0.001)" />

<path d="M30,0V49l76,18V992l-72,18v50H322V67L398,49V0Z" 
id="f1_e"
transform="scale(0.001,-0.001)" />

<path d="M116,-325c0,0,-67,0,-128,14v168H35l32,-84c0,0,18,-14,37,-14c0,0,40,0,63,49c0,0,24,50,24,141V627L67,652v49H407V-28c0,0,0,-141,-76,-219c0,0,-76,-78,-215,-78ZM298,831c0,0,-47,0,-81,33c0,0,-33,33,-33,82c0,0,0,47,33,80c0,0,33,34,81,34c0,0,47,0,81,-33c0,0,34,-33,34,-81c0,0,0,-48,-34,-81c0,0,-33,-34,-81,-34Z" 
id="f1_14"
transform="scale(0.001,-0.001)" />

<path d="M191,-20c0,0,-51,0,-88,34c0,0,-36,36,-36,88c0,0,0,52,36,88c0,0,36,36,88,36c0,0,51,0,88,-36c0,0,36,-36,36,-88c0,0,0,-51,-36,-87c0,0,-36,-35,-88,-35Z" 
id="f1_1w"
transform="scale(0.001,-0.001)" />

<path d="M394,460c0,0,126,0,186,57c0,0,60,57,60,187c0,0,0,123,-57,176c0,0,-58,53,-194,53H316V460ZM54,0V40L172,60V941L44,960v40H421c0,0,368,0,368,-295c0,0,0,-153,-93,-233c0,0,-93,-80,-267,-80H316V60L475,40V0Z" 
id="f2_16"
transform="scale(0.001,-0.001)" />

<path d="M284,67c0,0,51,0,88,12c0,0,37,12,74,30V358l-98,-3c0,0,-100,-4,-135,-39c0,0,-35,-35,-35,-117c0,0,0,-132,106,-132ZM233,-14c0,0,-179,0,-179,208c0,0,0,70,27,116c0,0,27,46,87,70c0,0,60,24,173,27l105,3V519c0,0,0,72,-26,107c0,0,-27,34,-82,34c0,0,-75,0,-137,-35L176,538H134V691c0,0,121,26,213,26c0,0,115,0,169,-47c0,0,54,-47,54,-144V52L657,33V0H465L451,70c0,0,-85,-84,-218,-84Z" 
id="f2_d"
transform="scale(0.001,-0.001)" />

<path d="M31,0V33l88,19V649L31,668v33H235l7,-87c0,0,44,37,121,71c0,0,76,35,121,35h11V530H463l-43,82c0,0,-37,0,-88,-10c0,0,-52,-10,-89,-26V52L363,33V0Z" 
id="f2_f"
transform="scale(0.001,-0.001)" />

<path d="M495,413c0,0,0,133,-34,190c0,0,-34,57,-105,57c0,0,-78,0,-119,-63c0,0,-42,-62,-42,-184ZM374,-14c0,0,-163,0,-239,87c0,0,-75,88,-75,283c0,0,0,183,77,273c0,0,76,91,219,91c0,0,269,0,269,-306V353H194V340c0,0,0,-103,23,-160c0,0,22,-57,70,-87c0,0,47,-29,124,-29c0,0,40,0,96,6c0,0,55,7,91,15V43C598,43,562,20,500,3c0,0,-61,-17,-126,-17Z" 
id="f2_9"
transform="scale(0.001,-0.001)" />

<path d="M431,0V33L535,52V499c0,0,0,62,-32,96c0,0,-32,33,-95,33c0,0,-66,0,-163,-22V52L350,33V0H32V33l89,19V649L32,668v33H237l6,-57c0,0,56,32,119,54c0,0,62,22,110,22c0,0,52,0,95,-20c0,0,44,-19,66,-62c0,0,57,32,134,57c0,0,77,25,128,25c0,0,179,0,179,-207V52l90,-19V0H846V33L950,52V499c0,0,0,129,-119,129c0,0,-19,0,-45,-3c0,0,-26,-3,-52,-7c0,0,-25,-4,-49,-8c0,0,-23,-5,-39,-8c0,0,13,-41,13,-89V52L764,33V0Z" 
id="f2_c"
transform="scale(0.001,-0.001)" />

<path d="M382,45c0,0,188,0,188,314c0,0,0,143,-47,213c0,0,-46,69,-141,69c0,0,-87,0,-146,-24V58c0,0,67,-13,146,-13ZM25,-325v35l88,18V649L34,668v33H231l1,-41c0,0,31,27,84,43c0,0,53,17,107,17c0,0,134,0,208,-94c0,0,73,-93,73,-267c0,0,0,-178,-80,-276c0,0,-80,-97,-232,-97c0,0,-84,0,-160,16c0,0,4,-53,4,-84V-272l123,-18v-35Z" 
id="f2_m"
transform="scale(0.001,-0.001)" />

<path d="M41,0V34L426,641H261c0,0,-42,0,-80,-7c0,0,-39,-7,-54,-19L104,515H69V701H586V665L201,60H407c0,0,42,0,89,10c0,0,47,10,66,25l39,147h35L617,0Z" 
id="f2_13"
transform="scale(0.001,-0.001)" />

<path d="M58,-234v58c0,0,131,42,131,125c0,0,0,15,-11,27c0,0,-11,12,-38,25C140,1,89,27,89,75c0,0,0,40,25,61c0,0,26,21,65,21c0,0,48,0,77,-34c0,0,30,-34,30,-86c0,0,0,-101,-60,-170c0,0,-59,-69,-168,-101Z" 
id="f2_z"
transform="scale(0.001,-0.001)" />

<path d="M377,45c0,0,99,0,147,73c0,0,47,73,47,237c0,0,0,161,-47,233c0,0,-47,72,-147,72c0,0,-97,0,-141,-69c0,0,-44,-69,-44,-236c0,0,0,-169,45,-240c0,0,44,-70,140,-70Zm0,-59c0,0,-158,0,-238,94c0,0,-81,95,-81,274c0,0,0,178,81,272c0,0,80,94,244,94c0,0,160,0,241,-92c0,0,82,-92,82,-274c0,0,0,-368,-329,-368Z" 
id="f2_b"
transform="scale(0.001,-0.001)" />

<path d="M439,0V33l93,19V500c0,0,0,62,-30,97c0,0,-31,36,-94,36c0,0,-67,0,-165,-22V52L338,33V0H35V33l84,19V649L35,668v33H235l7,-57c0,0,57,33,122,54c0,0,65,22,108,22c0,0,91,0,137,-53c0,0,47,-53,47,-154V52L741,33V0Z" 
id="f2_o"
transform="scale(0.001,-0.001)" />

<path d="M278,-14c0,0,-52,0,-115,11c0,0,-63,10,-99,23V193H98L134,95c0,0,56,-50,146,-50c0,0,144,0,144,123c0,0,0,91,-114,130l-66,21c0,0,-75,25,-110,50c0,0,-34,26,-53,63c0,0,-18,36,-18,89c0,0,0,92,63,145c0,0,63,54,170,54c0,0,77,0,193,-23V544H454l-32,81c0,0,-39,35,-124,35c0,0,-61,0,-92,-30c0,0,-32,-30,-32,-80c0,0,0,-43,29,-72c0,0,28,-29,86,-48c0,0,110,-38,144,-55c0,0,33,-17,57,-42c0,0,23,-25,36,-57c0,0,13,-32,13,-79c0,0,0,-104,-66,-158c0,0,-66,-53,-195,-53Z" 
id="f2_h"
transform="scale(0.001,-0.001)" />

<path d="M359,-270c0,0,124,0,192,46c0,0,67,47,67,129c0,0,0,43,-26,67c0,0,-26,24,-79,24H242c0,0,-32,-27,-51,-69c0,0,-20,-41,-20,-77c0,0,0,-64,46,-92c0,0,46,-28,142,-28Zm11,561c0,0,81,0,115,47c0,0,34,47,34,141c0,0,0,100,-35,142c0,0,-35,42,-113,42c0,0,-78,0,-114,-43c0,0,-37,-42,-37,-141c0,0,0,-98,36,-143c0,0,36,-45,114,-45ZM359,-329c0,0,-143,0,-218,44c0,0,-75,43,-75,125c0,0,0,39,27,78c0,0,26,38,98,89c0,0,-43,14,-72,48c0,0,-29,35,-29,74L208,262c0,0,-118,55,-118,217c0,0,0,115,73,178c0,0,73,63,211,63c0,0,28,0,71,-6c0,0,44,-6,67,-13l165,83l26,-32L599,644c0,0,50,-56,50,-165c0,0,0,-120,-72,-182c0,0,-73,-62,-208,-62c0,0,-62,0,-114,11L208,148c0,0,2,-13,29,-24c0,0,27,-12,67,-12H512c0,0,113,0,168,-49c0,0,55,-49,55,-134c0,0,0,-79,-44,-137c0,0,-43,-58,-128,-90c0,0,-84,-31,-204,-31Z" 
id="f2_u"
transform="scale(0.001,-0.001)" />

<path d="M289,-14c0,0,-179,0,-179,205V649L20,668v33H233V200c0,0,0,-128,120,-128c0,0,92,0,173,23V649L420,668v33H649V52L738,33V0H533l-6,57C527,57,474,28,405,7c0,0,-69,-21,-116,-21Z" 
id="f2_g"
transform="scale(0.001,-0.001)" />

<path d="M399,-14c0,0,-341,0,-341,370c0,0,0,175,87,269c0,0,87,95,249,95c0,0,101,0,220,-23V501H573L541,625c0,0,-62,35,-149,35c0,0,-200,0,-200,-304c0,0,0,-158,61,-225c0,0,61,-67,189,-67c0,0,109,0,189,24V43C631,43,595,16,530,1c0,0,-64,-15,-131,-15Z" 
id="f2_i"
transform="scale(0.001,-0.001)" />

<path d="M31,0V33L150,52v956L31,1026v34H274V52L394,33V0Z" 
id="f2_k"
transform="scale(0.001,-0.001)" />

<path d="M442,0V33l93,19V504c0,0,0,129,-124,129c0,0,-70,0,-168,-22V52L338,33V0H31V33l88,19v956L15,1026v34H243V756c0,0,0,-77,-5,-112c0,0,54,31,122,53c0,0,68,23,115,23c0,0,91,0,137,-53c0,0,47,-53,47,-154V52L744,33V0Z" 
id="f2_t"
transform="scale(0.001,-0.001)" />

<path d="M360,-14L72,649L0,668v33H327V668L216,648L420,164L615,649L504,668v33H764V668L697,652L416,-14Z" 
id="f2_e"
transform="scale(0.001,-0.001)" />

<path d="M32,0V33L151,52V649L52,668v33H275V52L395,33V0ZM201,850c0,0,-32,0,-56,24c0,0,-24,24,-24,56c0,0,0,34,24,58c0,0,24,24,56,24c0,0,34,0,58,-24c0,0,24,-24,24,-58c0,0,0,-32,-24,-56c0,0,-24,-24,-58,-24Z" 
id="f2_n"
transform="scale(0.001,-0.001)" />

<path d="M191,-20c0,0,-39,0,-65,25c0,0,-25,27,-25,64c0,0,0,38,26,64c0,0,26,26,64,26c0,0,38,0,64,-26c0,0,26,-26,26,-64c0,0,0,-37,-25,-64c0,0,-26,-25,-65,-25Z" 
id="f2_4"
transform="scale(0.001,-0.001)" />

<path d="M577,-14c0,0,-243,0,-379,132C198,118,63,250,63,488c0,0,0,258,130,391c0,0,131,132,387,132c0,0,156,0,335,-38l5,-218H871L848,884c0,0,-52,32,-121,50c0,0,-69,17,-141,17c0,0,-191,0,-279,-112c0,0,-88,-113,-88,-349c0,0,0,-217,92,-332c0,0,92,-115,268,-115c0,0,85,0,160,20c0,0,76,21,120,55l27,149h49L930,32c0,0,-164,-46,-353,-46Z" 
id="f2_14"
transform="scale(0.001,-0.001)" />

<path d="M383,64c0,0,85,0,152,28V645c0,0,-67,13,-152,13c0,0,-194,0,-194,-314c0,0,0,-141,48,-211c0,0,48,-69,146,-69ZM342,-14c0,0,-287,0,-287,358c0,0,0,184,82,280c0,0,81,96,239,96c0,0,81,0,163,-18c0,0,-4,25,-4,124v182l-118,18v34H659V52L745,33V0H548l-9,52c0,0,-84,-66,-197,-66Z" 
id="f2_8"
transform="scale(0.001,-0.001)" />

<path d="M249,-14c0,0,-71,0,-107,42c0,0,-35,42,-35,119V639H15v33l93,29l76,159h47V701H391V639H231V161c0,0,0,-48,22,-73c0,0,22,-24,57,-24c0,0,44,0,106,12V26C416,26,389,8,340,-2c0,0,-49,-12,-91,-12Z" 
id="f2_a"
transform="scale(0.001,-0.001)" />

<path d="M35,0V34l84,18V649L35,668v33H235l7,-56c0,0,57,32,122,54c0,0,65,21,108,21c0,0,91,0,137,-53c0,0,47,-53,47,-154V52L741,34V0H439V34l93,18V500c0,0,0,62,-30,97c0,0,-31,36,-94,36c0,0,-67,0,-165,-22V52L338,34V0ZM481,834c0,0,-36,0,-66,16c0,0,-30,16,-57,36c0,0,-27,20,-52,36c0,0,-25,16,-49,16c0,0,-24,0,-39,-9c0,0,-14,-9,-23,-26c0,0,-8,-17,-13,-54H143c0,0,11,180,146,180c0,0,36,0,66,-16c0,0,30,-16,57,-35c0,0,27,-20,52,-36c0,0,25,-16,49,-16c0,0,32,0,50,18c0,0,18,19,25,70h39c0,0,-12,-180,-146,-180Z" 
id="f2_1k"
transform="scale(0.001,-0.001)" />

<path d="M148,-329c0,0,-58,0,-114,13v151H69l24,-71c0,0,23,-17,64,-17c0,0,39,0,72,22c0,0,33,23,60,67c0,0,27,44,68,157L90,649L19,668v33H344V668L233,648L423,158L606,649L497,668v33H758V668L685,652L411,-43c0,0,-48,-124,-84,-177c0,0,-36,-54,-79,-82c0,0,-44,-27,-100,-27Z" 
id="f2_l"
transform="scale(0.001,-0.001)" />

<path d="M64,-325c0,0,-46,0,-107,14v148H-8l19,-81c0,0,25,-21,62,-21c0,0,44,0,67,47c0,0,22,47,22,152V649L57,668v33H286V-28c0,0,0,-146,-57,-221c0,0,-56,-76,-165,-76ZM213,850c0,0,-34,0,-58,24c0,0,-24,24,-24,56c0,0,0,34,24,58c0,0,24,24,58,24c0,0,32,0,56,-24c0,0,24,-24,24,-58c0,0,0,-32,-24,-56c0,0,-24,-24,-56,-24Z" 
id="f2_1d"
transform="scale(0.001,-0.001)" />

<path d="M495,413c0,0,0,133,-34,190c0,0,-34,57,-105,57c0,0,-78,0,-119,-62c0,0,-42,-63,-42,-185ZM374,-14c0,0,-163,0,-239,87c0,0,-75,88,-75,283c0,0,0,183,77,274c0,0,76,90,219,90c0,0,269,0,269,-306V353H194V339c0,0,0,-103,23,-160c0,0,22,-57,70,-86c0,0,47,-30,124,-30c0,0,40,0,96,6c0,0,55,7,91,15V43C598,43,562,19,500,2c0,0,-61,-16,-126,-16ZM285,835v24l146,203H590v-27L326,835Z" 
id="f2_11"
transform="scale(0.001,-0.001)" />

<path d="M383,64c0,0,44,0,87,7c0,0,43,7,65,17V645c0,0,-67,13,-152,13c0,0,-194,0,-194,-309c0,0,0,-143,48,-214c0,0,47,-71,146,-71Zm56,-389v35l96,18V-77c0,0,0,73,7,124c0,0,-79,-61,-200,-61c0,0,-287,0,-287,362c0,0,0,180,81,276c0,0,81,96,237,96c0,0,84,0,166,-18l67,33h53V-272l77,-18v-35Z" 
id="f2_18"
transform="scale(0.001,-0.001)" />

<path d="M284,67c0,0,51,0,88,12c0,0,37,11,74,29V357l-98,-3c0,0,-100,-3,-135,-38c0,0,-35,-36,-35,-118c0,0,0,-131,106,-131ZM233,-14c0,0,-179,0,-179,208c0,0,0,70,27,116c0,0,27,46,87,70c0,0,60,24,173,27l105,3V519c0,0,0,73,-26,107c0,0,-27,34,-82,34c0,0,-75,0,-137,-35L176,538H134V691c0,0,121,26,213,26c0,0,115,0,169,-47c0,0,54,-47,54,-144V52L657,34V0H465L451,70c0,0,-85,-84,-218,-84Zm22,849v24l146,203H560v-27L296,835Z" 
id="f2_1g"
transform="scale(0.001,-0.001)" />

<path d="M681,416L504,902L333,416ZM669,0V40L803,60L704,348H310L210,60L344,40V0H15V40L128,60l341,949H611L965,60L1092,40V0Z" 
id="f2_1o"
transform="scale(0.001,-0.001)" />

<path d="M448,506c0,0,134,0,190,49c0,0,57,50,57,168c0,0,0,114,-56,162c0,0,-56,48,-195,48H316V506ZM777,0L496,438H316V60L468,40V0H54V40L172,60V941L44,960v40H476c0,0,188,0,277,-63c0,0,90,-64,90,-204c0,0,0,-100,-54,-173c0,0,-55,-73,-151,-101L909,60L1017,40V0Z" 
id="f2_26"
transform="scale(0.001,-0.001)" />

<path d="M376,50c0,0,103,0,149,80c0,0,46,81,46,240c0,0,0,137,-47,204c0,0,-48,67,-148,67c0,0,-44,0,-87,-7c0,0,-44,-8,-63,-17V62c0,0,63,-12,150,-12Zm3,-64c0,0,-64,0,-141,14c0,0,-78,14,-136,37v971L0,1026v34H226V809c0,0,0,-40,-4,-148c0,0,74,59,188,59c0,0,143,0,219,-87c0,0,77,-87,77,-263c0,0,0,-189,-84,-287c0,0,-84,-97,-243,-97Z" 
id="f2_j"
transform="scale(0.001,-0.001)" />

<path d="M322,0V40L481,60V389L130,941L17,960v40H440V960L306,941L593,480L866,941L739,960v40h326V960L955,941L625,394V60L784,40V0Z" 
id="f2_1y"
transform="scale(0.001,-0.001)" />

<path d="M736,107V473c0,0,0,147,-48,202c0,0,-49,54,-187,54H278V107ZM139,0V836H499c0,0,105,0,177,-22c0,0,72,-21,116,-69c0,0,44,-49,64,-119c0,0,19,-71,19,-174V0Z" 
id="f0_o"
transform="scale(0.001,-0.001)" />

<path d="M138,-7c0,0,-34,0,-72,10V129c0,0,25,-8,52,-8c0,0,33,0,58,5c0,0,26,5,58,24c0,0,33,20,53,54c0,0,21,34,36,97c0,0,15,64,15,151c0,0,0,113,-19,173c0,0,-19,60,-56,82c0,0,-38,22,-107,22H89V836h72c0,0,165,0,240,-91c0,0,76,-91,76,-293c0,0,0,-107,26,-227c0,0,25,-119,83,-225H437c0,0,-43,101,-62,184c0,0,-24,-60,-51,-99c0,0,-26,-38,-56,-58C268,27,239,7,209,0c0,0,-30,-7,-71,-7Z" 
id="f0_u"
transform="scale(0.001,-0.001)" />

<path d="M173,-6C173,-6,61,-6,15,9V177c0,0,73,-10,82,-10c0,0,37,0,52,30c0,0,14,29,14,116V658H18V836H516c0,0,262,0,341,-145c0,0,48,-89,48,-242V0H658V450c0,0,0,131,-37,171c0,0,-34,37,-105,37H411V313c0,0,0,-189,-67,-258C344,55,285,-6,173,-6Z" 
id="f3_7"
transform="scale(0.001,-0.001)" />

<path d="M139,0V836H386V0Z" 
id="f3_8"
transform="scale(0.001,-0.001)" />

<path d="M139,0V177H436c0,0,127,0,184,56c0,0,56,55,56,186c0,0,0,132,-58,186c0,0,-58,53,-181,53H386L385,553c0,0,0,-40,12,-54c0,0,12,-15,31,-15c0,0,19,0,38,2V343c0,0,-46,-11,-94,-11c0,0,-48,0,-87,11c0,0,-38,10,-73,34c0,0,-73,53,-73,196V836H487c0,0,203,0,319,-109c0,0,116,-109,116,-309c0,0,0,-200,-117,-309C805,109,689,0,487,0Z" 
id="f3_5"
transform="scale(0.001,-0.001)" />

<path d="M453,0V658H66V836H833V658H700V0Z" 
id="f3_9"
transform="scale(0.001,-0.001)" />

<path d="M534,0V425c0,0,0,109,-41,171c0,0,-41,62,-140,62H66V836H352c0,0,99,0,174,-20c0,0,75,-20,123,-55c0,0,48,-35,78,-87c0,0,30,-53,42,-113c0,0,12,-60,12,-136V0Z" 
id="f3_4"
transform="scale(0.001,-0.001)" />

<path d="M66,0V178H307V510c0,0,0,100,-31,124c0,0,-30,24,-79,24H83V836H197c0,0,215,0,286,-85c0,0,71,-85,71,-224V0Z" 
id="f3_k"
transform="scale(0.001,-0.001)" />

<path d="M679,178V467c0,0,0,110,-32,150c0,0,-31,41,-120,41H385V178ZM139,0V836H525c0,0,220,0,311,-90c0,0,90,-90,90,-297V0Z" 
id="f3_p"
transform="scale(0.001,-0.001)" />

<path d="M102,250V836H349V351L102,250Z" 
id="f3_i"
transform="scale(0.001,-0.001)" />

<path d="M248,0L521,658H66v429H313V836l493,-1V716L504,0Z" 
id="f3_d"
transform="scale(0.001,-0.001)" />

<path d="M129,0l69,362c0,0,10,56,12,100c0,0,0,84,-27,159c0,0,-27,76,-117,215H322c0,0,9,-6,31,-79c0,0,23,-72,23,-105c0,0,23,82,100,138c0,0,77,57,160,57c0,0,332,0,332,-397V0H538V177H721V449c0,0,0,124,-20,170c0,0,-20,47,-82,47c0,0,-23,0,-43,-9c0,0,-19,-10,-34,-23c0,0,-14,-14,-27,-39c0,0,-13,-25,-22,-46c0,0,-8,-22,-17,-57c0,0,-9,-36,-15,-61c0,0,-5,-24,-13,-65L375,0Z" 
id="f3_c"
transform="scale(0.001,-0.001)" />

<path d="M81,-216L155,61V288H424V61L241,-216Z" 
id="f3_1b"
transform="scale(0.001,-0.001)" />

<path d="M82,0V177H500L50,836H328L560,491c0,0,56,19,56,124V836H861V671c0,0,0,-116,-45,-192c0,0,-40,-68,-85,-90c0,0,-50,-26,-71,-26c0,0,-1,0,-1,0L838,96V0Z" 
id="f3_h"
transform="scale(0.001,-0.001)" />

<path d="M159,0V165c0,0,0,69,13,124c0,0,12,55,29,89c0,0,17,33,45,62c0,0,29,28,50,42c0,0,22,14,54,30L128,836H405L666,460c0,0,41,48,41,155V836H952V671c0,0,0,-50,-6,-93c0,0,-6,-42,-16,-73c0,0,-10,-30,-26,-57c0,0,-17,-27,-31,-44c0,0,-15,-17,-37,-33c0,0,-22,-16,-38,-25c0,0,-15,-9,-38,-21L984,0H706L445,376c0,0,-41,-48,-41,-155V0Z" 
id="f3_f"
transform="scale(0.001,-0.001)" />

<path d="M154,0V454l138,56V0ZM722,0V454c0,0,0,161,-49,218c0,0,-48,57,-186,57H139V836H485c0,0,207,0,291,-93c0,0,83,-94,83,-318V0Z" 
id="f0_c"
transform="scale(0.001,-0.001)" />

<path d="M287,0L589,729H66v386H205V836l547,-1l-2,-82L433,0Z" 
id="f0_4"
transform="scale(0.001,-0.001)" />

<path d="M102,312V836H241V369L102,312Z" 
id="f0_3"
transform="scale(0.001,-0.001)" />

<path d="M114,0l60,312c0,0,2,12,8,39c0,0,6,27,7,37c0,0,2,11,5,30c0,0,2,19,4,33c0,0,1,15,1,31c0,0,0,48,-35,146c0,0,-35,98,-98,208H228c0,0,3,-8,27,-67c0,0,25,-58,41,-117c0,0,21,53,50,90c0,0,29,37,57,57c0,0,29,21,65,32c0,0,37,11,65,14c0,0,28,3,67,3c0,0,300,0,300,-396V0H480V106H761V452c0,0,0,146,-46,215c0,0,-45,70,-118,70c0,0,-134,0,-198,-119c0,0,-36,-68,-67,-222c0,0,-2,-10,-6,-27L253,0Z" 
id="f0_e"
transform="scale(0.001,-0.001)" />

<path d="M66,0V107H554V452c0,0,0,56,-4,93c0,0,-4,37,-18,75c0,0,-14,38,-40,60c0,0,-26,22,-71,36c0,0,-45,13,-110,13H66V836H312c0,0,91,0,157,-17c0,0,66,-17,109,-49c0,0,44,-32,69,-84c0,0,26,-52,36,-114c0,0,10,-62,10,-147V107H817V0Z" 
id="f0_d"
transform="scale(0.001,-0.001)" />

<path d="M180,0L66,836H203L258,443c0,0,36,1,64,6c0,0,28,6,49,18c0,0,20,12,35,26c0,0,15,13,26,36c0,0,11,24,17,44c0,0,7,20,12,55c0,0,6,34,9,60c0,0,3,26,8,71c0,0,4,45,9,77H610c0,0,-13,-194,-31,-271c0,0,-31,-127,-111,-179c0,0,-71,-45,-196,-50L304,107c0,0,73,0,130,5c0,0,56,6,111,21c0,0,54,15,94,40c0,0,40,25,77,64c0,0,37,39,63,94c0,0,25,54,46,128c0,0,21,73,34,166c0,0,13,94,20,211h138c0,0,-14,-124,-29,-218c0,0,-16,-94,-39,-179c0,0,-22,-85,-50,-146c0,0,-28,-61,-68,-112c0,0,-39,-51,-87,-84C744,97,696,65,632,42C632,42,568,19,492,10C492,10,417,0,320,0Z" 
id="f0_9"
transform="scale(0.001,-0.001)" />

<path d="M156,-317V454l139,56V-317ZM505,0L806,729H139V835H967V753L650,0Z" 
id="f0_8"
transform="scale(0.001,-0.001)" />

<path d="M66,0V107H332V555c0,0,0,92,-37,133c0,0,-37,41,-116,41H85V836h94c0,0,153,0,223,-66c0,0,69,-66,69,-231V0Z" 
id="f0_q"
transform="scale(0.001,-0.001)" />

<path d="M495,0V729H66V836H781V729H634V0Z" 
id="f0_i"
transform="scale(0.001,-0.001)" />

<path d="M163,0V190H321V0Z" 
id="f0_n"
transform="scale(0.001,-0.001)" />

<path d="M139,0V106H400c0,0,176,0,253,71c0,0,78,72,78,250c0,0,0,163,-80,233c0,0,-81,69,-250,69H278L277,564c0,0,-1,-54,26,-80c0,0,27,-25,82,-25c0,0,30,0,80,9V355c0,0,-61,-12,-111,-12c0,0,-100,0,-157,55c0,0,-58,55,-58,186V836H456c0,0,193,0,303,-109c0,0,110,-109,110,-309c0,0,0,-200,-110,-309C759,109,648,0,456,0Z" 
id="f0_m"
transform="scale(0.001,-0.001)" />

<path d="M522,92c0,0,247,0,247,333c0,0,0,88,-17,146c0,0,-17,58,-53,91c0,0,-35,33,-82,46c0,0,-48,14,-116,14H276V419c0,0,0,-327,246,-327Zm0,-112c0,0,-193,0,-289,109c0,0,-95,110,-95,337V836H501c0,0,213,0,309,-93c0,0,96,-94,96,-317c0,0,0,-227,-95,-337C811,89,715,-20,522,-20Z" 
id="f0_h"
transform="scale(0.001,-0.001)" />

<path d="M139,0V138c0,0,0,61,8,112c0,0,7,52,19,87c0,0,11,36,30,66c0,0,19,31,35,49c0,0,17,19,41,35c0,0,25,17,41,25c0,0,17,7,40,17L141,836H303L613,388c0,0,20,10,33,18c0,0,13,8,34,28c0,0,20,20,33,44c0,0,13,25,22,66c0,0,10,41,10,92V836H882V698c0,0,0,-61,-7,-112c0,0,-6,-52,-18,-88c0,0,-12,-36,-30,-66c0,0,-19,-30,-36,-49c0,0,-17,-18,-41,-34c0,0,-24,-17,-40,-25c0,0,-17,-8,-41,-17L882,0H720L409,448c0,0,-21,-11,-34,-19c0,0,-13,-8,-34,-27c0,0,-21,-20,-34,-44c0,0,-12,-25,-22,-66c0,0,-9,-41,-9,-92V0Z" 
id="f0_j"
transform="scale(0.001,-0.001)" />

<path d="M66,0V106H564L66,836H228L516,413c0,0,3,2,9,6c0,0,17,13,27,21c0,0,10,8,26,27c0,0,17,20,26,40c0,0,9,21,16,54c0,0,7,34,7,75V836H764V698c0,0,0,-55,-7,-102c0,0,-7,-47,-16,-79c0,0,-10,-33,-27,-62c0,0,-18,-29,-32,-46c0,0,-14,-17,-37,-35c0,0,-22,-17,-36,-25c0,0,-13,-8,-36,-20L767,53V0Z" 
id="f0_s"
transform="scale(0.001,-0.001)" />

<path d="M543,-317V369c0,0,0,85,-8,143c0,0,-8,58,-27,101c0,0,-18,44,-51,69c0,0,-33,24,-80,36c0,0,-48,11,-117,11H66V836H257c0,0,125,0,205,-23c0,0,80,-23,130,-79c0,0,50,-56,70,-143c0,0,20,-86,20,-222V-317Z" 
id="f0_2"
transform="scale(0.001,-0.001)" />

<path d="M139,0V836H485c0,0,206,0,290,-90c0,0,84,-89,84,-294V0H721V473c0,0,0,147,-49,202c0,0,-48,54,-186,54H277V0Z" 
id="f0_r"
transform="scale(0.001,-0.001)" />

<path d="M44,0V40L172,60V941L44,960v40H445V960L316,941V549H787V941L659,960v40h400V960L930,941V60L1059,40V0H659V40L787,60V481H316V60L445,40V0Z" 
id="f2_1z"
transform="scale(0.001,-0.001)" />

<path d="M139,-317V836H278V-317Z" 
id="f0_p"
transform="scale(0.001,-0.001)" />

<path d="M71,-141V-15L289,62L66,836H210L416,109c0,0,99,42,153,98c0,0,53,56,80,155c0,0,26,98,26,262V836H817V624c0,0,0,-88,-7,-154c0,0,-7,-67,-25,-132c0,0,-18,-66,-51,-116c0,0,-33,-51,-84,-98c0,0,-50,-48,-123,-87c0,0,-72,-39,-169,-74L71,-141Z" 
id="f0_5"
transform="scale(0.001,-0.001)" />

<path d="M700,-317V454c0,0,0,155,-54,215c0,0,-54,60,-180,60H277V551c0,0,0,-55,26,-80c0,0,27,-26,82,-26c0,0,30,0,80,10V341c0,0,-61,-11,-111,-11c0,0,-100,0,-157,55c0,0,-58,55,-58,186V836H466c0,0,203,0,288,-91c0,0,85,-92,85,-293V-317Z" 
id="f0_g"
transform="scale(0.001,-0.001)" />

<path d="M522,-20c0,0,-196,0,-290,99c0,0,-94,100,-94,324V836H276V397c0,0,0,-86,16,-147c0,0,17,-60,50,-94c0,0,34,-34,77,-49c0,0,43,-15,103,-15c0,0,59,0,102,15c0,0,44,15,77,49c0,0,33,34,50,94c0,0,17,61,17,147c0,0,0,84,-8,143c0,0,-7,58,-25,105c0,0,-17,47,-51,69c0,0,-33,23,-83,23c0,0,-50,0,-119,-22V821c0,0,85,23,150,23c0,0,76,0,130,-30c0,0,53,-31,85,-90c0,0,31,-59,45,-138c0,0,13,-78,13,-183c0,0,0,-224,-93,-324c0,0,-94,-99,-290,-99Z" 
id="f0_k"
transform="scale(0.001,-0.001)" />

<path d="M64,0V34L168,59V639H47v36l121,29v49c0,0,0,155,61,239c0,0,62,84,173,84c0,0,58,0,107,-15V908H472l-33,92c0,0,-26,16,-62,16c0,0,-47,0,-66,-42c0,0,-19,-42,-19,-157V701H478V639H292V59L443,34V0Z" 
id="f2_y"
transform="scale(0.001,-0.001)" />

<path d="M0,-141L388,1114H514L127,-141Z" 
id="f0_19"
transform="scale(0.001,-0.001)" />

<path d="M190,0V127H436V977L168,923v137l267,54H586V127H832V0Z" 
id="f0_13"
transform="scale(0.001,-0.001)" />

<path d="M411,-20c0,0,-70,0,-142,11c0,0,-73,11,-151,35V178c0,0,67,-37,139,-54c0,0,72,-18,152,-18c0,0,129,0,204,67c0,0,75,68,75,184c0,0,0,117,-75,184c0,0,-75,68,-204,68c0,0,-61,0,-121,-13c0,0,-60,-13,-123,-42v560H757V987H303V714c0,0,33,11,66,17c0,0,33,5,65,5c0,0,187,0,296,-102c0,0,109,-102,109,-277c0,0,0,-179,-112,-279c0,0,-112,-98,-316,-98Z" 
id="f0_14"
transform="scale(0.001,-0.001)" />


</defs>
</svg>