<?xml version="1.0" encoding="UTF-8" standalone="no"?>
<!DOCTYPE svg PUBLIC "-//W3C//DTD SVG 1.1//EN"
"http://www.w3.org/Graphics/SVG/1.1/DTD/svg11.dtd">
<svg viewBox="0 0 909 1286" version="1.1" xmlns="http://www.w3.org/2000/svg" xmlns:xlink="http://www.w3.org/1999/xlink">
<defs>
<clipPath id="c0_18"><path d="M0,1286.2V0H909.4V1286.2Z" /></clipPath>
<style type="text/css"><![CDATA[
.g0_18{
fill: none;
stroke: #0000FF;
stroke-width: 1.0694444;
stroke-linecap: butt;
stroke-linejoin: miter;
}
]]></style>
</defs>
<g clip-path="url(#c0_18)">
<g fill="#000000" >
<use xlink:href="#f0_c" transform="matrix(11,0,0,11,554.9,149.1)" />
<use xlink:href="#f0_11" transform="matrix(11,0,0,11,566,149.1)" />
<use xlink:href="#f0_j" transform="matrix(11,0,0,11,574.9,149.1)" />
<use xlink:href="#f0_13" transform="matrix(11,0,0,11,582.3,149.1)" />
<use xlink:href="#f0_o" transform="matrix(11,0,0,11,591.7,149.1)" />
<use xlink:href="#f0_r" transform="matrix(11,0,0,11,599.1,149.1)" />
<use xlink:href="#f0_j" transform="matrix(11,0,0,11,608.5,149.1)" />
<use xlink:href="#f0_13" transform="matrix(11,0,0,11,615.9,149.1)" />
<use xlink:href="#f0_p" transform="matrix(11,0,0,11,625.3,149.1)" />
<use xlink:href="#f0_n" transform="matrix(11,0,0,11,630.9,149.1)" />
<use xlink:href="#f0_t" transform="matrix(11,0,0,11,638.3,149.1)" />
<use xlink:href="#f0_18" transform="matrix(11,0,0,11,650.9,149.1)" />
<use xlink:href="#f0_j" transform="matrix(11,0,0,11,660.2,149.1)" />
<use xlink:href="#f0_1g" transform="matrix(11,0,0,11,671.9,149.1)" />
<use xlink:href="#f0_l" transform="matrix(11,0,0,11,682.2,149.1)" />
<use xlink:href="#f0_z" transform="matrix(11,0,0,11,690.6,149.1)" />
<use xlink:href="#f0_11" transform="matrix(11,0,0,11,699.9,149.1)" />
<use xlink:href="#f0_t" transform="matrix(11,0,0,11,704.6,149.1)" />
<use xlink:href="#f0_j" transform="matrix(11,0,0,11,717.1,149.1)" />
<use xlink:href="#f0_i" transform="matrix(11,0,0,11,728.7,149.1)" />
<use xlink:href="#f0_x" transform="matrix(11,0,0,11,735.3,149.1)" />
<use xlink:href="#f0_l" transform="matrix(11,0,0,11,741.8,149.1)" />
<use xlink:href="#f0_z" transform="matrix(11,0,0,11,750.2,149.1)" />
<use xlink:href="#f0_j" transform="matrix(11,0,0,11,759.5,149.1)" />
<use xlink:href="#f0_11" transform="matrix(11,0,0,11,767,149.1)" />
<use xlink:href="#f1_13" transform="matrix(12,0,0,12,722.9,189.1)" />
<use xlink:href="#f1_b" transform="matrix(12,0,0,12,729,189.1)" />
<use xlink:href="#f1_f" transform="matrix(12,0,0,12,739.4,189.1)" />
<use xlink:href="#f1_p" transform="matrix(12,0,0,12,750,189.1)" />
<use xlink:href="#f1_i" transform="matrix(12,0,0,12,756.3,189.1)" />
<use xlink:href="#f1_s" transform="matrix(12,0,0,12,760.4,189.1)" />
<use xlink:href="#f1_8" transform="matrix(12,0,0,12,291.3,189.1)" />
<use xlink:href="#f1_g" transform="matrix(12,0,0,12,297.2,189.1)" />
<use xlink:href="#f1_q" transform="matrix(12,0,0,12,309.1,189.1)" />
<use xlink:href="#f1_p" transform="matrix(12,0,0,12,319.3,189.1)" />
<use xlink:href="#f1_e" transform="matrix(12,0,0,12,325.7,189.1)" />
<use xlink:href="#f1_g" transform="matrix(12,0,0,12,343.1,189.1)" />
<use xlink:href="#f1_4" transform="matrix(12,0,0,12,355,189.1)" />
<use xlink:href="#f1_i" transform="matrix(12,0,0,12,364.6,189.1)" />
<use xlink:href="#f1_q" transform="matrix(12,0,0,12,368.8,189.1)" />
<use xlink:href="#f1_r" transform="matrix(12,0,0,12,379.1,189.1)" />
<use xlink:href="#f1_i" transform="matrix(12,0,0,12,395.8,189.1)" />
<use xlink:href="#f1_9" transform="matrix(12,0,0,12,399.9,189.1)" />
<use xlink:href="#f1_s" transform="matrix(12,0,0,12,407.2,189.1)" />
<use xlink:href="#f1_1d" transform="matrix(12,0,0,12,425.3,189.1)" />
<use xlink:href="#f1_q" transform="matrix(12,0,0,12,435,189.1)" />
<use xlink:href="#f1_m" transform="matrix(12,0,0,12,445.4,189.1)" />
<use xlink:href="#f1_o" transform="matrix(12,0,0,12,456.8,189.1)" />
<use xlink:href="#f1_g" transform="matrix(12,0,0,12,468.7,189.1)" />
<use xlink:href="#f1_h" transform="matrix(12,0,0,12,486.5,189.1)" />
<use xlink:href="#f1_i" transform="matrix(12,0,0,12,498.5,189.1)" />
<use xlink:href="#f1_f" transform="matrix(12,0,0,12,502.6,189.1)" />
<use xlink:href="#f1_s" transform="matrix(12,0,0,12,519.1,189.1)" />
<use xlink:href="#f1_r" transform="matrix(12,0,0,12,531.3,189.1)" />
<use xlink:href="#f1_7" transform="matrix(12,0,0,12,542.2,189.1)" />
<use xlink:href="#f1_9" transform="matrix(12,0,0,12,554.6,189.1)" />
<use xlink:href="#f1_g" transform="matrix(12,0,0,12,567.8,189.1)" />
<use xlink:href="#f1_m" transform="matrix(12,0,0,12,579.7,189.1)" />
<use xlink:href="#f1_i" transform="matrix(12,0,0,12,591.2,189.1)" />
<use xlink:href="#f1_s" transform="matrix(12,0,0,12,595.3,189.1)" />
<use xlink:href="#f1_2" transform="matrix(12,0,0,12,613.3,189.1)" />
<use xlink:href="#f1_l" transform="matrix(12,0,0,12,619.1,189.1)" />
<use xlink:href="#f1_6" transform="matrix(12,0,0,12,631.4,189.1)" />
<use xlink:href="#f1_b" transform="matrix(12,0,0,12,636.4,189.1)" />
<use xlink:href="#f1_c" transform="matrix(12,0,0,12,646.8,189.1)" />
<use xlink:href="#f1_13" transform="matrix(12,0,0,12,729.1,210.5)" />
<use xlink:href="#f1_6" transform="matrix(12,0,0,12,735.2,210.5)" />
<use xlink:href="#f1_b" transform="matrix(12,0,0,12,740.2,210.5)" />
<use xlink:href="#f1_f" transform="matrix(12,0,0,12,750.6,210.5)" />
<use xlink:href="#f1_m" transform="matrix(12,0,0,12,761.1,210.5)" />
<use xlink:href="#f1_8" transform="matrix(12,0,0,12,546,210.5)" />
<use xlink:href="#f1_q" transform="matrix(12,0,0,12,551.8,210.5)" />
<use xlink:href="#f1_6" transform="matrix(12,0,0,12,562.2,210.5)" />
<use xlink:href="#f1_p" transform="matrix(12,0,0,12,567.1,210.5)" />
<use xlink:href="#f1_e" transform="matrix(12,0,0,12,573.5,210.5)" />
<use xlink:href="#f1_b" transform="matrix(12,0,0,12,585,210.5)" />
<use xlink:href="#f1_b" transform="matrix(12,0,0,12,601.2,210.5)" />
<use xlink:href="#f1_6" transform="matrix(12,0,0,12,611.6,210.5)" />
<use xlink:href="#f1_4" transform="matrix(12,0,0,12,616.6,210.5)" />
<use xlink:href="#f1_i" transform="matrix(12,0,0,12,626.2,210.5)" />
<use xlink:href="#f1_i" transform="matrix(12,0,0,12,636.3,210.5)" />
<use xlink:href="#f1_9" transform="matrix(12,0,0,12,640.4,210.5)" />
<use xlink:href="#f1_s" transform="matrix(12,0,0,12,647.7,210.5)" />
<use xlink:href="#f1_13" transform="matrix(12,0,0,12,722.9,231.9)" />
<use xlink:href="#f1_b" transform="matrix(12,0,0,12,729,231.9)" />
<use xlink:href="#f1_f" transform="matrix(12,0,0,12,739.4,231.9)" />
<use xlink:href="#f1_p" transform="matrix(12,0,0,12,750,231.9)" />
<use xlink:href="#f1_i" transform="matrix(12,0,0,12,756.3,231.9)" />
<use xlink:href="#f1_s" transform="matrix(12,0,0,12,760.4,231.9)" />
<use xlink:href="#f1_1d" transform="matrix(12,0,0,12,500.7,231.9)" />
<use xlink:href="#f1_t" transform="matrix(12,0,0,12,510.4,231.9)" />
<use xlink:href="#f1_7" transform="matrix(12,0,0,12,520.2,231.9)" />
<use xlink:href="#f1_c" transform="matrix(12,0,0,12,532.7,231.9)" />
<use xlink:href="#f1_g" transform="matrix(12,0,0,12,551.5,231.9)" />
<use xlink:href="#f1_7" transform="matrix(12,0,0,12,563.4,231.9)" />
<use xlink:href="#f1_2" transform="matrix(12,0,0,12,581.8,231.9)" />
<use xlink:href="#f1_g" transform="matrix(12,0,0,12,587.6,231.9)" />
<use xlink:href="#f1_a" transform="matrix(12,0,0,12,599.6,231.9)" />
<use xlink:href="#f1_6" transform="matrix(12,0,0,12,609.5,231.9)" />
<use xlink:href="#f1_h" transform="matrix(12,0,0,12,614.5,231.9)" />
<use xlink:href="#f1_f" transform="matrix(12,0,0,12,632.4,231.9)" />
<use xlink:href="#f1_6" transform="matrix(12,0,0,12,642.9,231.9)" />
<use xlink:href="#f1_d" transform="matrix(12,0,0,12,647.9,231.9)" />
<use xlink:href="#f1_13" transform="matrix(12,0,0,12,729.1,253.3)" />
<use xlink:href="#f1_6" transform="matrix(12,0,0,12,735.2,253.3)" />
<use xlink:href="#f1_b" transform="matrix(12,0,0,12,740.2,253.3)" />
<use xlink:href="#f1_f" transform="matrix(12,0,0,12,750.6,253.3)" />
<use xlink:href="#f1_m" transform="matrix(12,0,0,12,761.1,253.3)" />
<use xlink:href="#f1_8" transform="matrix(12,0,0,12,295.8,253.3)" />
<use xlink:href="#f1_q" transform="matrix(12,0,0,12,301.6,253.3)" />
<use xlink:href="#f1_6" transform="matrix(12,0,0,12,312,253.3)" />
<use xlink:href="#f1_a" transform="matrix(12,0,0,12,317,253.3)" />
<use xlink:href="#f1_6" transform="matrix(12,0,0,12,326.9,253.3)" />
<use xlink:href="#f1_6" transform="matrix(12,0,0,12,331.9,253.3)" />
<use xlink:href="#f1_j" transform="matrix(12,0,0,12,337,253.3)" />
<use xlink:href="#f1_s" transform="matrix(12,0,0,12,350,253.3)" />
<use xlink:href="#f1_f" transform="matrix(12,0,0,12,362.2,253.3)" />
<use xlink:href="#f1_3" transform="matrix(12,0,0,12,378.7,253.3)" />
<use xlink:href="#f1_s" transform="matrix(12,0,0,12,383.7,253.3)" />
<use xlink:href="#f1_4" transform="matrix(12,0,0,12,395.9,253.3)" />
<use xlink:href="#f1_l" transform="matrix(12,0,0,12,411.4,253.3)" />
<use xlink:href="#f1_i" transform="matrix(12,0,0,12,423.6,253.3)" />
<use xlink:href="#f1_q" transform="matrix(12,0,0,12,427.5,253.3)" />
<use xlink:href="#f1_i" transform="matrix(12,0,0,12,437.9,253.3)" />
<use xlink:href="#f1_i" transform="matrix(12,0,0,12,442,253.3)" />
<use xlink:href="#f1_h" transform="matrix(12,0,0,12,446.1,253.3)" />
<use xlink:href="#f1_t" transform="matrix(12,0,0,12,464,253.3)" />
<use xlink:href="#f1_i" transform="matrix(12,0,0,12,473.8,253.3)" />
<use xlink:href="#f1_q" transform="matrix(12,0,0,12,477.9,253.3)" />
<use xlink:href="#f1_a" transform="matrix(12,0,0,12,488.1,253.3)" />
<use xlink:href="#f1_7" transform="matrix(12,0,0,12,498.2,253.3)" />
<use xlink:href="#f1_i" transform="matrix(12,0,0,12,516.5,253.3)" />
<use xlink:href="#f1_9" transform="matrix(12,0,0,12,520.6,253.3)" />
<use xlink:href="#f1_s" transform="matrix(12,0,0,12,527.9,253.3)" />
<use xlink:href="#f1_2" transform="matrix(12,0,0,12,546.1,253.3)" />
<use xlink:href="#f1_6" transform="matrix(12,0,0,12,551.9,253.3)" />
<use xlink:href="#f1_b" transform="matrix(12,0,0,12,556.9,253.3)" />
<use xlink:href="#f1_f" transform="matrix(12,0,0,12,567.3,253.3)" />
<use xlink:href="#f1_m" transform="matrix(12,0,0,12,577.9,253.3)" />
<use xlink:href="#f1_s" transform="matrix(12,0,0,12,595.1,253.3)" />
<use xlink:href="#f1_6" transform="matrix(12,0,0,12,607.3,253.3)" />
<use xlink:href="#f1_g" transform="matrix(12,0,0,12,612.4,253.3)" />
<use xlink:href="#f1_i" transform="matrix(12,0,0,12,630.1,253.3)" />
<use xlink:href="#f1_7" transform="matrix(12,0,0,12,634.2,253.3)" />
<use xlink:href="#f1_c" transform="matrix(12,0,0,12,646.7,253.3)" />
<use xlink:href="#f1_13" transform="matrix(12,0,0,12,722.9,274.7)" />
<use xlink:href="#f1_b" transform="matrix(12,0,0,12,729,274.7)" />
<use xlink:href="#f1_f" transform="matrix(12,0,0,12,739.4,274.7)" />
<use xlink:href="#f1_p" transform="matrix(12,0,0,12,750,274.7)" />
<use xlink:href="#f1_i" transform="matrix(12,0,0,12,756.3,274.7)" />
<use xlink:href="#f1_s" transform="matrix(12,0,0,12,760.4,274.7)" />
<use xlink:href="#f1_8" transform="matrix(12,0,0,12,147.6,274.7)" />
<use xlink:href="#f1_g" transform="matrix(12,0,0,12,153.4,274.7)" />
<use xlink:href="#f1_i" transform="matrix(12,0,0,12,165.3,274.7)" />
<use xlink:href="#f1_j" transform="matrix(12,0,0,12,169.4,274.7)" />
<use xlink:href="#f1_b" transform="matrix(12,0,0,12,182.4,274.7)" />
<use xlink:href="#f1_d" transform="matrix(12,0,0,12,192.8,274.7)" />
<use xlink:href="#f1_i" transform="matrix(12,0,0,12,204.7,274.7)" />
<use xlink:href="#f1_s" transform="matrix(12,0,0,12,208.8,274.7)" />
<use xlink:href="#f1_i" transform="matrix(12,0,0,12,226.8,274.7)" />
<use xlink:href="#f1_9" transform="matrix(12,0,0,12,230.9,274.7)" />
<use xlink:href="#f1_s" transform="matrix(12,0,0,12,238.3,274.7)" />
<use xlink:href="#f1_2" transform="matrix(12,0,0,12,256.4,274.7)" />
<use xlink:href="#f1_h" transform="matrix(12,0,0,12,262.3,274.7)" />
<use xlink:href="#f1_i" transform="matrix(12,0,0,12,274.3,274.7)" />
<use xlink:href="#f1_a" transform="matrix(12,0,0,12,278.3,274.7)" />
<use xlink:href="#f1_q" transform="matrix(12,0,0,12,288.3,274.7)" />
<use xlink:href="#f1_m" transform="matrix(12,0,0,12,298.7,274.7)" />
<use xlink:href="#f1_o" transform="matrix(12,0,0,12,310.2,274.7)" />
<use xlink:href="#f1_b" transform="matrix(12,0,0,12,322.1,274.7)" />
<use xlink:href="#f1_g" transform="matrix(12,0,0,12,338.3,274.7)" />
<use xlink:href="#f1_a" transform="matrix(12,0,0,12,350.2,274.7)" />
<use xlink:href="#f1_i" transform="matrix(12,0,0,12,360.3,274.7)" />
<use xlink:href="#f1_7" transform="matrix(12,0,0,12,364.2,274.7)" />
<use xlink:href="#f1_b" transform="matrix(12,0,0,12,376.7,274.7)" />
<use xlink:href="#f1_h" transform="matrix(12,0,0,12,387.1,274.7)" />
<use xlink:href="#f1_i" transform="matrix(12,0,0,12,405,274.7)" />
<use xlink:href="#f1_9" transform="matrix(12,0,0,12,409.1,274.7)" />
<use xlink:href="#f1_s" transform="matrix(12,0,0,12,416.4,274.7)" />
<use xlink:href="#f1_6" transform="matrix(12,0,0,12,428.7,274.7)" />
<use xlink:href="#f1_8" transform="matrix(12,0,0,12,439.5,274.7)" />
<use xlink:href="#f1_a" transform="matrix(12,0,0,12,445.3,274.7)" />
<use xlink:href="#f1_6" transform="matrix(12,0,0,12,455.4,274.7)" />
<use xlink:href="#f1_s" transform="matrix(12,0,0,12,460.3,274.7)" />
<use xlink:href="#f1_7" transform="matrix(12,0,0,12,472.5,274.7)" />
<use xlink:href="#f1_g" transform="matrix(12,0,0,12,490.9,274.7)" />
<use xlink:href="#f1_m" transform="matrix(12,0,0,12,502.8,274.7)" />
<use xlink:href="#f1_i" transform="matrix(12,0,0,12,514.3,274.7)" />
<use xlink:href="#f1_2" transform="matrix(12,0,0,12,524.2,274.7)" />
<use xlink:href="#f1_l" transform="matrix(12,0,0,12,530,274.7)" />
<use xlink:href="#f1_i" transform="matrix(12,0,0,12,542.2,274.7)" />
<use xlink:href="#f1_q" transform="matrix(12,0,0,12,546.2,274.7)" />
<use xlink:href="#f1_i" transform="matrix(12,0,0,12,556.6,274.7)" />
<use xlink:href="#f1_i" transform="matrix(12,0,0,12,560.7,274.7)" />
<use xlink:href="#f1_h" transform="matrix(12,0,0,12,564.8,274.7)" />
<use xlink:href="#f1_t" transform="matrix(12,0,0,12,582.7,274.7)" />
<use xlink:href="#f1_i" transform="matrix(12,0,0,12,592.4,274.7)" />
<use xlink:href="#f1_q" transform="matrix(12,0,0,12,596.5,274.7)" />
<use xlink:href="#f1_a" transform="matrix(12,0,0,12,606.8,274.7)" />
<use xlink:href="#f1_7" transform="matrix(12,0,0,12,616.8,274.7)" />
<use xlink:href="#f1_1d" transform="matrix(12,0,0,12,635.1,274.7)" />
<use xlink:href="#f1_3" transform="matrix(12,0,0,12,644.9,274.7)" />
<use xlink:href="#f1_4" transform="matrix(12,0,0,12,649.9,274.7)" />
<use xlink:href="#f1_13" transform="matrix(12,0,0,12,729.1,296.1)" />
<use xlink:href="#f1_6" transform="matrix(12,0,0,12,735.2,296.1)" />
<use xlink:href="#f1_b" transform="matrix(12,0,0,12,740.2,296.1)" />
<use xlink:href="#f1_f" transform="matrix(12,0,0,12,750.6,296.1)" />
<use xlink:href="#f1_m" transform="matrix(12,0,0,12,761.1,296.1)" />
<use xlink:href="#f1_b" transform="matrix(12,0,0,12,138.3,296.1)" />
<use xlink:href="#f1_6" transform="matrix(12,0,0,12,148.7,296.1)" />
<use xlink:href="#f1_4" transform="matrix(12,0,0,12,153.7,296.1)" />
<use xlink:href="#f1_s" transform="matrix(12,0,0,12,163.3,296.1)" />
<use xlink:href="#f1_b" transform="matrix(12,0,0,12,175.5,296.1)" />
<use xlink:href="#f1_g" transform="matrix(12,0,0,12,196.4,296.1)" />
<use xlink:href="#f1_r" transform="matrix(12,0,0,12,208.4,296.1)" />
<use xlink:href="#f1_6" transform="matrix(12,0,0,12,219.2,296.1)" />
<use xlink:href="#f1_q" transform="matrix(12,0,0,12,224.2,296.1)" />
<use xlink:href="#f1_i" transform="matrix(12,0,0,12,245.1,296.1)" />
<use xlink:href="#f1_9" transform="matrix(12,0,0,12,249.2,296.1)" />
<use xlink:href="#f1_s" transform="matrix(12,0,0,12,256.6,296.1)" />
<use xlink:href="#f1_8" transform="matrix(12,0,0,12,279.3,296.1)" />
<use xlink:href="#f1_3" transform="matrix(12,0,0,12,285.1,296.1)" />
<use xlink:href="#f1_f" transform="matrix(12,0,0,12,290.1,296.1)" />
<use xlink:href="#f1_6" transform="matrix(12,0,0,12,300.7,296.1)" />
<use xlink:href="#f1_7" transform="matrix(12,0,0,12,305.7,296.1)" />
<use xlink:href="#f1_4" transform="matrix(12,0,0,12,318.2,296.1)" />
<use xlink:href="#f1_2" transform="matrix(12,0,0,12,338.3,296.1)" />
<use xlink:href="#f1_i" transform="matrix(12,0,0,12,344.1,296.1)" />
<use xlink:href="#f1_q" transform="matrix(12,0,0,12,348.3,296.1)" />
<use xlink:href="#f1_6" transform="matrix(12,0,0,12,358.6,296.1)" />
<use xlink:href="#f1_a" transform="matrix(12,0,0,12,363.7,296.1)" />
<use xlink:href="#f1_6" transform="matrix(12,0,0,12,373.6,296.1)" />
<use xlink:href="#f1_6" transform="matrix(12,0,0,12,378.6,296.1)" />
<use xlink:href="#f1_j" transform="matrix(12,0,0,12,383.6,296.1)" />
<use xlink:href="#f1_s" transform="matrix(12,0,0,12,396.6,296.1)" />
<use xlink:href="#f1_i" transform="matrix(12,0,0,12,419.4,296.1)" />
<use xlink:href="#f1_9" transform="matrix(12,0,0,12,423.5,296.1)" />
<use xlink:href="#f1_s" transform="matrix(12,0,0,12,430.8,296.1)" />
<use xlink:href="#f1_8" transform="matrix(12,0,0,12,453.7,296.1)" />
<use xlink:href="#f1_a" transform="matrix(12,0,0,12,459.5,296.1)" />
<use xlink:href="#f1_6" transform="matrix(12,0,0,12,469.4,296.1)" />
<use xlink:href="#f1_s" transform="matrix(12,0,0,12,474.4,296.1)" />
<use xlink:href="#f1_7" transform="matrix(12,0,0,12,486.5,296.1)" />
<use xlink:href="#f1_g" transform="matrix(12,0,0,12,509.7,296.1)" />
<use xlink:href="#f1_m" transform="matrix(12,0,0,12,521.6,296.1)" />
<use xlink:href="#f1_i" transform="matrix(12,0,0,12,533.1,296.1)" />
<use xlink:href="#f1_1d" transform="matrix(12,0,0,12,547.7,296.1)" />
<use xlink:href="#f1_g" transform="matrix(12,0,0,12,557.4,296.1)" />
<use xlink:href="#f1_i" transform="matrix(12,0,0,12,569.4,296.1)" />
<use xlink:href="#f1_b" transform="matrix(12,0,0,12,573.5,296.1)" />
<use xlink:href="#f1_d" transform="matrix(12,0,0,12,583.9,296.1)" />
<use xlink:href="#f1_i" transform="matrix(12,0,0,12,595.8,296.1)" />
<use xlink:href="#f1_s" transform="matrix(12,0,0,12,599.9,296.1)" />
<use xlink:href="#f1_7" transform="matrix(12,0,0,12,611.9,296.1)" />
<use xlink:href="#f1_h" transform="matrix(12,0,0,12,635.1,296.1)" />
<use xlink:href="#f1_s" transform="matrix(12,0,0,12,647.2,296.1)" />
<use xlink:href="#f1_1d" transform="matrix(12,0,0,12,416.2,317.5)" />
<use xlink:href="#f1_g" transform="matrix(12,0,0,12,425.9,317.5)" />
<use xlink:href="#f1_m" transform="matrix(12,0,0,12,437.8,317.5)" />
<use xlink:href="#f1_j" transform="matrix(12,0,0,12,449.3,317.5)" />
<use xlink:href="#f1_h" transform="matrix(12,0,0,12,468.1,317.5)" />
<use xlink:href="#f1_6" transform="matrix(12,0,0,12,480.1,317.5)" />
<use xlink:href="#f1_h" transform="matrix(12,0,0,12,485,317.5)" />
<use xlink:href="#f1_c" transform="matrix(12,0,0,12,497.1,317.5)" />
<use xlink:href="#f1_b" transform="matrix(12,0,0,12,510,317.5)" />
<use xlink:href="#f1_g" transform="matrix(12,0,0,12,526.4,317.5)" />
<use xlink:href="#f1_r" transform="matrix(12,0,0,12,538.3,317.5)" />
<use xlink:href="#f1_6" transform="matrix(12,0,0,12,549.1,317.5)" />
<use xlink:href="#f1_q" transform="matrix(12,0,0,12,554,317.5)" />
<use xlink:href="#f1_h" transform="matrix(12,0,0,12,570.4,317.5)" />
<use xlink:href="#f1_s" transform="matrix(12,0,0,12,582.4,317.5)" />
<use xlink:href="#f1_8" transform="matrix(12,0,0,12,600.5,317.5)" />
<use xlink:href="#f1_l" transform="matrix(12,0,0,12,606.3,317.5)" />
<use xlink:href="#f1_i" transform="matrix(12,0,0,12,618.5,317.5)" />
<use xlink:href="#f1_i" transform="matrix(12,0,0,12,622.6,317.5)" />
<use xlink:href="#f1_q" transform="matrix(12,0,0,12,626.7,317.5)" />
<use xlink:href="#f1_g" transform="matrix(12,0,0,12,637.1,317.5)" />
<use xlink:href="#f1_r" transform="matrix(12,0,0,12,649,317.5)" />
<use xlink:href="#f1_13" transform="matrix(12,0,0,12,722.9,338.9)" />
<use xlink:href="#f1_b" transform="matrix(12,0,0,12,729,338.9)" />
<use xlink:href="#f1_f" transform="matrix(12,0,0,12,739.4,338.9)" />
<use xlink:href="#f1_p" transform="matrix(12,0,0,12,750,338.9)" />
<use xlink:href="#f1_i" transform="matrix(12,0,0,12,756.3,338.9)" />
<use xlink:href="#f1_s" transform="matrix(12,0,0,12,760.4,338.9)" />
<use xlink:href="#f1_8" transform="matrix(12,0,0,12,380,338.9)" />
<use xlink:href="#f1_a" transform="matrix(12,0,0,12,385.8,338.9)" />
<use xlink:href="#f1_6" transform="matrix(12,0,0,12,395.8,338.9)" />
<use xlink:href="#f1_7" transform="matrix(12,0,0,12,400.7,338.9)" />
<use xlink:href="#f1_b" transform="matrix(12,0,0,12,413.2,338.9)" />
<use xlink:href="#f1_b" transform="matrix(12,0,0,12,423.6,338.9)" />
<use xlink:href="#f1_g" transform="matrix(12,0,0,12,440,338.9)" />
<use xlink:href="#f1_4" transform="matrix(12,0,0,12,451.9,338.9)" />
<use xlink:href="#f1_i" transform="matrix(12,0,0,12,461.5,338.9)" />
<use xlink:href="#f1_q" transform="matrix(12,0,0,12,465.6,338.9)" />
<use xlink:href="#f1_r" transform="matrix(12,0,0,12,476,338.9)" />
<use xlink:href="#f1_i" transform="matrix(12,0,0,12,492.7,338.9)" />
<use xlink:href="#f1_9" transform="matrix(12,0,0,12,496.8,338.9)" />
<use xlink:href="#f1_s" transform="matrix(12,0,0,12,504.1,338.9)" />
<use xlink:href="#f1_c" transform="matrix(12,0,0,12,516.3,338.9)" />
<use xlink:href="#f1_h" transform="matrix(12,0,0,12,535.2,338.9)" />
<use xlink:href="#f1_f" transform="matrix(12,0,0,12,547.3,338.9)" />
<use xlink:href="#f1_c" transform="matrix(12,0,0,12,557.8,338.9)" />
<use xlink:href="#f1_6" transform="matrix(12,0,0,12,570.8,338.9)" />
<use xlink:href="#f1_k" transform="matrix(12,0,0,12,575.8,338.9)" />
<use xlink:href="#f1_i" transform="matrix(12,0,0,12,593.7,338.9)" />
<use xlink:href="#f1_9" transform="matrix(12,0,0,12,597.8,338.9)" />
<use xlink:href="#f1_s" transform="matrix(12,0,0,12,605.1,338.9)" />
<use xlink:href="#f1_1e" transform="matrix(12,0,0,12,617.4,338.9)" />
<use xlink:href="#f1_g" transform="matrix(12,0,0,12,635.7,338.9)" />
<use xlink:href="#f1_s" transform="matrix(12,0,0,12,647.6,338.9)" />
<use xlink:href="#f1_13" transform="matrix(12,0,0,12,729.1,360.3)" />
<use xlink:href="#f1_6" transform="matrix(12,0,0,12,735.2,360.3)" />
<use xlink:href="#f1_b" transform="matrix(12,0,0,12,740.2,360.3)" />
<use xlink:href="#f1_f" transform="matrix(12,0,0,12,750.6,360.3)" />
<use xlink:href="#f1_m" transform="matrix(12,0,0,12,761.1,360.3)" />
<use xlink:href="#f1_8" transform="matrix(12,0,0,12,474.4,360.3)" />
<use xlink:href="#f1_g" transform="matrix(12,0,0,12,480.2,360.3)" />
<use xlink:href="#f1_f" transform="matrix(12,0,0,12,492.1,360.3)" />
<use xlink:href="#f1_q" transform="matrix(12,0,0,12,502.6,360.3)" />
<use xlink:href="#f1_g" transform="matrix(12,0,0,12,513,360.3)" />
<use xlink:href="#f1_s" transform="matrix(12,0,0,12,530.9,360.3)" />
<use xlink:href="#f1_b" transform="matrix(12,0,0,12,543.1,360.3)" />
<use xlink:href="#f1_g" transform="matrix(12,0,0,12,559.3,360.3)" />
<use xlink:href="#f1_p" transform="matrix(12,0,0,12,571.2,360.3)" />
<use xlink:href="#f1_a" transform="matrix(12,0,0,12,583.4,360.3)" />
<use xlink:href="#f1_k" transform="matrix(12,0,0,12,593.5,360.3)" />
<use xlink:href="#f1_s" transform="matrix(12,0,0,12,605.4,360.3)" />
<use xlink:href="#f1_g" transform="matrix(12,0,0,12,623.6,360.3)" />
<use xlink:href="#f1_m" transform="matrix(12,0,0,12,635.5,360.3)" />
<use xlink:href="#f1_j" transform="matrix(12,0,0,12,646.9,360.3)" />
<use xlink:href="#f1_13" transform="matrix(12,0,0,12,722.9,381.6)" />
<use xlink:href="#f1_b" transform="matrix(12,0,0,12,729,381.6)" />
<use xlink:href="#f1_f" transform="matrix(12,0,0,12,739.4,381.6)" />
<use xlink:href="#f1_p" transform="matrix(12,0,0,12,750,381.6)" />
<use xlink:href="#f1_i" transform="matrix(12,0,0,12,756.3,381.6)" />
<use xlink:href="#f1_s" transform="matrix(12,0,0,12,760.4,381.6)" />
<use xlink:href="#f1_8" transform="matrix(12,0,0,12,168.7,381.6)" />
<use xlink:href="#f1_q" transform="matrix(12,0,0,12,174.5,381.6)" />
<use xlink:href="#f1_m" transform="matrix(12,0,0,12,184.9,381.6)" />
<use xlink:href="#f1_o" transform="matrix(12,0,0,12,196.3,381.6)" />
<use xlink:href="#f1_g" transform="matrix(12,0,0,12,208.2,381.6)" />
<use xlink:href="#f1_h" transform="matrix(12,0,0,12,226.1,381.6)" />
<use xlink:href="#f1_i" transform="matrix(12,0,0,12,238.1,381.6)" />
<use xlink:href="#f1_f" transform="matrix(12,0,0,12,242.2,381.6)" />
<use xlink:href="#f1_b" transform="matrix(12,0,0,12,258.6,381.6)" />
<use xlink:href="#f1_c" transform="matrix(12,0,0,12,269,381.6)" />
<use xlink:href="#f1_g" transform="matrix(12,0,0,12,287.9,381.6)" />
<use xlink:href="#f1_q" transform="matrix(12,0,0,12,299.8,381.6)" />
<use xlink:href="#f1_6" transform="matrix(12,0,0,12,310,381.6)" />
<use xlink:href="#f1_7" transform="matrix(12,0,0,12,315,381.6)" />
<use xlink:href="#f1_g" transform="matrix(12,0,0,12,327.5,381.6)" />
<use xlink:href="#f1_l" transform="matrix(12,0,0,12,345.3,381.6)" />
<use xlink:href="#f1_e" transform="matrix(12,0,0,12,357.5,381.6)" />
<use xlink:href="#f1_a" transform="matrix(12,0,0,12,374.8,381.6)" />
<use xlink:href="#f1_6" transform="matrix(12,0,0,12,384.7,381.6)" />
<use xlink:href="#f1_7" transform="matrix(12,0,0,12,389.7,381.6)" />
<use xlink:href="#f1_b" transform="matrix(12,0,0,12,402.2,381.6)" />
<use xlink:href="#f1_b" transform="matrix(12,0,0,12,412.6,381.6)" />
<use xlink:href="#f1_h" transform="matrix(12,0,0,12,428.8,381.6)" />
<use xlink:href="#f1_q" transform="matrix(12,0,0,12,440.9,381.6)" />
<use xlink:href="#f1_p" transform="matrix(12,0,0,12,451.2,381.6)" />
<use xlink:href="#f1_6" transform="matrix(12,0,0,12,457.5,381.6)" />
<use xlink:href="#f1_k" transform="matrix(12,0,0,12,462.5,381.6)" />
<use xlink:href="#f1_i" transform="matrix(12,0,0,12,480.4,381.6)" />
<use xlink:href="#f1_9" transform="matrix(12,0,0,12,484.4,381.6)" />
<use xlink:href="#f1_s" transform="matrix(12,0,0,12,491.7,381.6)" />
<use xlink:href="#f1_6" transform="matrix(12,0,0,12,503.9,381.6)" />
<use xlink:href="#f1_a" transform="matrix(12,0,0,12,514.9,381.6)" />
<use xlink:href="#f1_k" transform="matrix(12,0,0,12,525,381.6)" />
<use xlink:href="#f1_s" transform="matrix(12,0,0,12,536.9,381.6)" />
<use xlink:href="#f1_g" transform="matrix(12,0,0,12,554.9,381.6)" />
<use xlink:href="#f1_m" transform="matrix(12,0,0,12,566.8,381.6)" />
<use xlink:href="#f1_j" transform="matrix(12,0,0,12,578.3,381.6)" />
<use xlink:href="#f1_j" transform="matrix(12,0,0,12,597.2,381.6)" />
<use xlink:href="#f1_q" transform="matrix(12,0,0,12,610.1,381.6)" />
<use xlink:href="#f1_2" transform="matrix(12,0,0,12,626.4,381.6)" />
<use xlink:href="#f1_f" transform="matrix(12,0,0,12,632.2,381.6)" />
<use xlink:href="#f1_6" transform="matrix(12,0,0,12,642.7,381.6)" />
<use xlink:href="#f1_d" transform="matrix(12,0,0,12,647.8,381.6)" />
<use xlink:href="#f1_13" transform="matrix(12,0,0,12,729.1,403)" />
<use xlink:href="#f1_6" transform="matrix(12,0,0,12,735.2,403)" />
<use xlink:href="#f1_b" transform="matrix(12,0,0,12,740.2,403)" />
<use xlink:href="#f1_f" transform="matrix(12,0,0,12,750.6,403)" />
<use xlink:href="#f1_m" transform="matrix(12,0,0,12,761.1,403)" />
</g>
<g fill="#0000FF" >
<use xlink:href="#f1_g" transform="matrix(12,0,0,12,721.4,443.7)" />
<use xlink:href="#f1_q" transform="matrix(12,0,0,12,733.3,443.7)" />
<use xlink:href="#f1_p" transform="matrix(12,0,0,12,743.7,443.7)" />
<use xlink:href="#f1_k" transform="matrix(12,0,0,12,750.1,443.7)" />
<use xlink:href="#f1_f" transform="matrix(12,0,0,12,762,443.7)" />
</g>
</g>
<path d="M721.4,445.5h51.2" class="g0_18" />
<g clip-path="url(#c0_18)">
<g fill="#0000FF" >
<use xlink:href="#f1_j" transform="matrix(12,0,0,12,727.4,465.1)" />
<use xlink:href="#f1_q" transform="matrix(12,0,0,12,740.4,465.1)" />
<use xlink:href="#f1_m" transform="matrix(12,0,0,12,750.7,465.1)" />
<use xlink:href="#f1_b" transform="matrix(12,0,0,12,762.2,465.1)" />
</g>
</g>
<path d="M727.4,466.9h45.2" class="g0_18" />
<g clip-path="url(#c0_18)">
<g fill="#000000" >
<use xlink:href="#f1_8" transform="matrix(12,0,0,12,371.7,403)" />
<use xlink:href="#f1_q" transform="matrix(12,0,0,12,377.5,403)" />
<use xlink:href="#f1_a" transform="matrix(12,0,0,12,387.8,403)" />
<use xlink:href="#f1_g" transform="matrix(12,0,0,12,397.8,403)" />
<use xlink:href="#f1_9" transform="matrix(12,0,0,12,409.7,403)" />
<use xlink:href="#f1_2" transform="matrix(12,0,0,12,423,403)" />
<use xlink:href="#f1_g" transform="matrix(12,0,0,12,428.8,403)" />
<use xlink:href="#f1_m" transform="matrix(12,0,0,12,440.7,403)" />
<use xlink:href="#f1_i" transform="matrix(12,0,0,12,452.2,403)" />
<use xlink:href="#f1_g" transform="matrix(12,0,0,12,462.2,403)" />
<use xlink:href="#f1_i" transform="matrix(12,0,0,12,474.1,403)" />
<use xlink:href="#f1_j" transform="matrix(12,0,0,12,478.2,403)" />
<use xlink:href="#f1_b" transform="matrix(12,0,0,12,491.2,403)" />
<use xlink:href="#f1_d" transform="matrix(12,0,0,12,501.6,403)" />
<use xlink:href="#f1_i" transform="matrix(12,0,0,12,513.4,403)" />
<use xlink:href="#f1_s" transform="matrix(12,0,0,12,517.5,403)" />
<use xlink:href="#f1_l" transform="matrix(12,0,0,12,535.7,403)" />
<use xlink:href="#f1_e" transform="matrix(12,0,0,12,547.7,403)" />
<use xlink:href="#f1_g" transform="matrix(12,0,0,12,565.1,403)" />
<use xlink:href="#f1_m" transform="matrix(12,0,0,12,577,403)" />
<use xlink:href="#f1_j" transform="matrix(12,0,0,12,588.5,403)" />
<use xlink:href="#f1_h" transform="matrix(12,0,0,12,607.3,403)" />
<use xlink:href="#f1_6" transform="matrix(12,0,0,12,619.3,403)" />
<use xlink:href="#f1_h" transform="matrix(12,0,0,12,624.3,403)" />
<use xlink:href="#f1_c" transform="matrix(12,0,0,12,636.4,403)" />
<use xlink:href="#f1_b" transform="matrix(12,0,0,12,649.4,403)" />
<use xlink:href="#f0_1m" transform="matrix(11,0,0,11,583.1,673.1)" />
<use xlink:href="#f0_1n" transform="matrix(11,0,0,11,591.5,673.1)" />
<use xlink:href="#f0_r" transform="matrix(11,0,0,11,604.6,673.1)" />
<use xlink:href="#f0_1j" transform="matrix(11,0,0,11,613.9,673.1)" />
<use xlink:href="#f0_p" transform="matrix(11,0,0,11,625.5,673.1)" />
<use xlink:href="#f0_l" transform="matrix(11,0,0,11,631.2,673.1)" />
<use xlink:href="#f0_11" transform="matrix(11,0,0,11,639.6,673.1)" />
<use xlink:href="#f0_1o" transform="matrix(11,0,0,11,644.3,673.1)" />
<use xlink:href="#f1_13" transform="matrix(12,0,0,12,715.9,717.3)" />
<use xlink:href="#f1_o" transform="matrix(12,0,0,12,722,717.3)" />
<use xlink:href="#f1_6" transform="matrix(12,0,0,12,733.8,717.3)" />
<use xlink:href="#f1_b" transform="matrix(12,0,0,12,738.8,717.3)" />
<use xlink:href="#f1_q" transform="matrix(12,0,0,12,749.2,717.3)" />
<use xlink:href="#f1_j" transform="matrix(12,0,0,12,759.6,717.3)" />
<use xlink:href="#f1_1d" transform="matrix(12,0,0,12,442.8,717.3)" />
<use xlink:href="#f1_t" transform="matrix(12,0,0,12,452.5,717.3)" />
<use xlink:href="#f1_7" transform="matrix(12,0,0,12,462.3,717.3)" />
<use xlink:href="#f1_6" transform="matrix(12,0,0,12,474.7,717.3)" />
<use xlink:href="#f1_b" transform="matrix(12,0,0,12,479.7,717.3)" />
<use xlink:href="#f1_c" transform="matrix(12,0,0,12,490.1,717.3)" />
<use xlink:href="#f1_g" transform="matrix(12,0,0,12,508.9,717.3)" />
<use xlink:href="#f1_7" transform="matrix(12,0,0,12,520.8,717.3)" />
<use xlink:href="#f1_g" transform="matrix(12,0,0,12,539.2,717.3)" />
<use xlink:href="#f1_q" transform="matrix(12,0,0,12,551.1,717.3)" />
<use xlink:href="#f1_a" transform="matrix(12,0,0,12,561.5,717.3)" />
<use xlink:href="#f1_9" transform="matrix(12,0,0,12,571.6,717.3)" />
<use xlink:href="#f1_k" transform="matrix(12,0,0,12,578.9,717.3)" />
<use xlink:href="#f1_b" transform="matrix(12,0,0,12,590.8,717.3)" />
<use xlink:href="#f1_s" transform="matrix(12,0,0,12,601.2,717.3)" />
<use xlink:href="#f1_l" transform="matrix(12,0,0,12,619.3,717.3)" />
<use xlink:href="#f1_6" transform="matrix(12,0,0,12,631.5,717.3)" />
<use xlink:href="#f1_b" transform="matrix(12,0,0,12,636.5,717.3)" />
<use xlink:href="#f1_c" transform="matrix(12,0,0,12,646.9,717.3)" />
<use xlink:href="#f1_13" transform="matrix(12,0,0,12,692.2,738.7)" />
<use xlink:href="#f1_g" transform="matrix(12,0,0,12,698.3,738.7)" />
<use xlink:href="#f1_q" transform="matrix(12,0,0,12,710.3,738.7)" />
<use xlink:href="#f1_a" transform="matrix(12,0,0,12,720.6,738.7)" />
<use xlink:href="#f1_9" transform="matrix(12,0,0,12,730.7,738.7)" />
<use xlink:href="#f1_k" transform="matrix(12,0,0,12,738,738.7)" />
<use xlink:href="#f1_b" transform="matrix(12,0,0,12,749.9,738.7)" />
<use xlink:href="#f1_s" transform="matrix(12,0,0,12,760.3,738.7)" />
<use xlink:href="#f1_1d" transform="matrix(12,0,0,12,455.1,738.7)" />
<use xlink:href="#f1_g" transform="matrix(12,0,0,12,464.9,738.7)" />
<use xlink:href="#f1_q" transform="matrix(12,0,0,12,476.8,738.7)" />
<use xlink:href="#f1_6" transform="matrix(12,0,0,12,487.2,738.7)" />
<use xlink:href="#f1_j" transform="matrix(12,0,0,12,492.1,738.7)" />
<use xlink:href="#f1_g" transform="matrix(12,0,0,12,511,738.7)" />
<use xlink:href="#f1_7" transform="matrix(12,0,0,12,522.8,738.7)" />
<use xlink:href="#f1_2" transform="matrix(12,0,0,12,541.3,738.7)" />
<use xlink:href="#f1_g" transform="matrix(12,0,0,12,547.1,738.7)" />
<use xlink:href="#f1_a" transform="matrix(12,0,0,12,559,738.7)" />
<use xlink:href="#f1_6" transform="matrix(12,0,0,12,569,738.7)" />
<use xlink:href="#f1_h" transform="matrix(12,0,0,12,573.9,738.7)" />
<use xlink:href="#f1_a" transform="matrix(12,0,0,12,591.8,738.7)" />
<use xlink:href="#f1_s" transform="matrix(12,0,0,12,601.9,738.7)" />
<use xlink:href="#f1_7" transform="matrix(12,0,0,12,614.1,738.7)" />
<use xlink:href="#f1_f" transform="matrix(12,0,0,12,632.4,738.7)" />
<use xlink:href="#f1_6" transform="matrix(12,0,0,12,642.9,738.7)" />
<use xlink:href="#f1_d" transform="matrix(12,0,0,12,648,738.7)" />
<use xlink:href="#f1_13" transform="matrix(12,0,0,12,715.9,760.1)" />
<use xlink:href="#f1_o" transform="matrix(12,0,0,12,722,760.1)" />
<use xlink:href="#f1_6" transform="matrix(12,0,0,12,733.8,760.1)" />
<use xlink:href="#f1_b" transform="matrix(12,0,0,12,738.8,760.1)" />
<use xlink:href="#f1_q" transform="matrix(12,0,0,12,749.2,760.1)" />
<use xlink:href="#f1_j" transform="matrix(12,0,0,12,759.6,760.1)" />
<use xlink:href="#f1_g" transform="matrix(12,0,0,12,395.4,760.1)" />
<use xlink:href="#f1_i" transform="matrix(12,0,0,12,407.3,760.1)" />
<use xlink:href="#f1_q" transform="matrix(12,0,0,12,411.4,760.1)" />
<use xlink:href="#f1_a" transform="matrix(12,0,0,12,421.8,760.1)" />
<use xlink:href="#f1_i" transform="matrix(12,0,0,12,431.9,760.1)" />
<use xlink:href="#f1_b" transform="matrix(12,0,0,12,436,760.1)" />
<use xlink:href="#f1_n" transform="matrix(12,0,0,12,446.4,760.1)" />
<use xlink:href="#f1_f" transform="matrix(12,0,0,12,453.8,760.1)" />
<use xlink:href="#f1_a" transform="matrix(12,0,0,12,470.2,760.1)" />
<use xlink:href="#f1_f" transform="matrix(12,0,0,12,480.3,760.1)" />
<use xlink:href="#f1_6" transform="matrix(12,0,0,12,490.8,760.1)" />
<use xlink:href="#f1_e" transform="matrix(12,0,0,12,495.7,760.1)" />
<use xlink:href="#f1_i" transform="matrix(12,0,0,12,513.1,760.1)" />
<use xlink:href="#f1_9" transform="matrix(12,0,0,12,517.2,760.1)" />
<use xlink:href="#f1_s" transform="matrix(12,0,0,12,524.5,760.1)" />
<use xlink:href="#f1_l" transform="matrix(12,0,0,12,542.6,760.1)" />
<use xlink:href="#f1_6" transform="matrix(12,0,0,12,554.8,760.1)" />
<use xlink:href="#f1_i" transform="matrix(12,0,0,12,559.8,760.1)" />
<use xlink:href="#f1_g" transform="matrix(12,0,0,12,563.9,760.1)" />
<use xlink:href="#f1_2" transform="matrix(12,0,0,12,581.6,760.1)" />
<use xlink:href="#f1_q" transform="matrix(12,0,0,12,587.4,760.1)" />
<use xlink:href="#f1_a" transform="matrix(12,0,0,12,597.8,760.1)" />
<use xlink:href="#f1_o" transform="matrix(12,0,0,12,607.8,760.1)" />
<use xlink:href="#f1_f" transform="matrix(12,0,0,12,619.7,760.1)" />
<use xlink:href="#f1_i" transform="matrix(12,0,0,12,636.1,760.1)" />
<use xlink:href="#f1_9" transform="matrix(12,0,0,12,640.2,760.1)" />
<use xlink:href="#f1_s" transform="matrix(12,0,0,12,647.6,760.1)" />
<use xlink:href="#f1_13" transform="matrix(12,0,0,12,692.2,781.5)" />
<use xlink:href="#f1_g" transform="matrix(12,0,0,12,698.3,781.5)" />
<use xlink:href="#f1_q" transform="matrix(12,0,0,12,710.3,781.5)" />
<use xlink:href="#f1_a" transform="matrix(12,0,0,12,720.6,781.5)" />
<use xlink:href="#f1_9" transform="matrix(12,0,0,12,730.7,781.5)" />
<use xlink:href="#f1_k" transform="matrix(12,0,0,12,738,781.5)" />
<use xlink:href="#f1_b" transform="matrix(12,0,0,12,749.9,781.5)" />
<use xlink:href="#f1_s" transform="matrix(12,0,0,12,760.3,781.5)" />
<use xlink:href="#f1_1d" transform="matrix(12,0,0,12,339,781.5)" />
<use xlink:href="#f1_h" transform="matrix(12,0,0,12,348.6,781.5)" />
<use xlink:href="#f1_6" transform="matrix(12,0,0,12,360.7,781.5)" />
<use xlink:href="#f1_a" transform="matrix(12,0,0,12,365.7,781.5)" />
<use xlink:href="#f1_i" transform="matrix(12,0,0,12,375.8,781.5)" />
<use xlink:href="#f1_b" transform="matrix(12,0,0,12,379.9,781.5)" />
<use xlink:href="#f1_n" transform="matrix(12,0,0,12,390.3,781.5)" />
<use xlink:href="#f1_g" transform="matrix(12,0,0,12,403.6,781.5)" />
<use xlink:href="#f1_7" transform="matrix(12,0,0,12,415.5,781.5)" />
<use xlink:href="#f1_4" transform="matrix(12,0,0,12,428,781.5)" />
<use xlink:href="#f1_v" transform="matrix(12,0,0,12,443.4,781.5)" />
<use xlink:href="#f1_l" transform="matrix(12,0,0,12,450.6,781.5)" />
<use xlink:href="#f1_i" transform="matrix(12,0,0,12,462.8,781.5)" />
<use xlink:href="#f1_b" transform="matrix(12,0,0,12,466.9,781.5)" />
<use xlink:href="#f1_4" transform="matrix(12,0,0,12,477.3,781.5)" />
<use xlink:href="#f1_6" transform="matrix(12,0,0,12,486.9,781.5)" />
<use xlink:href="#f1_s" transform="matrix(12,0,0,12,492,781.5)" />
<use xlink:href="#f1_6" transform="matrix(12,0,0,12,510.1,781.5)" />
<use xlink:href="#f1_9" transform="matrix(12,0,0,12,515.1,781.5)" />
<use xlink:href="#f1_k" transform="matrix(12,0,0,12,522.5,781.5)" />
<use xlink:href="#f1_9" transform="matrix(12,0,0,12,534.4,781.5)" />
<use xlink:href="#f1_s" transform="matrix(12,0,0,12,541.7,781.5)" />
<use xlink:href="#f1_w" transform="matrix(12,0,0,12,554,781.5)" />
<use xlink:href="#f1_b" transform="matrix(12,0,0,12,567.1,781.5)" />
<use xlink:href="#f1_4" transform="matrix(12,0,0,12,577.5,781.5)" />
<use xlink:href="#f1_s" transform="matrix(12,0,0,12,587.1,781.5)" />
<use xlink:href="#f1_9" transform="matrix(12,0,0,12,599.3,781.5)" />
<use xlink:href="#f1_2" transform="matrix(12,0,0,12,612.5,781.5)" />
<use xlink:href="#f1_3" transform="matrix(12,0,0,12,618.3,781.5)" />
<use xlink:href="#f1_i" transform="matrix(12,0,0,12,623.3,781.5)" />
<use xlink:href="#f1_i" transform="matrix(12,0,0,12,627.4,781.5)" />
<use xlink:href="#f1_6" transform="matrix(12,0,0,12,631.4,781.5)" />
<use xlink:href="#f1_r" transform="matrix(12,0,0,12,636.4,781.5)" />
<use xlink:href="#f1_7" transform="matrix(12,0,0,12,647.3,781.5)" />
<use xlink:href="#f1_13" transform="matrix(12,0,0,12,715.9,802.8)" />
<use xlink:href="#f1_o" transform="matrix(12,0,0,12,722,802.8)" />
<use xlink:href="#f1_6" transform="matrix(12,0,0,12,733.8,802.8)" />
<use xlink:href="#f1_b" transform="matrix(12,0,0,12,738.8,802.8)" />
<use xlink:href="#f1_q" transform="matrix(12,0,0,12,749.2,802.8)" />
<use xlink:href="#f1_j" transform="matrix(12,0,0,12,759.6,802.8)" />
<use xlink:href="#f1_g" transform="matrix(12,0,0,12,138.1,802.8)" />
<use xlink:href="#f1_f" transform="matrix(12,0,0,12,150,802.8)" />
<use xlink:href="#f1_g" transform="matrix(12,0,0,12,170.3,802.8)" />
<use xlink:href="#f1_i" transform="matrix(12,0,0,12,182.2,802.8)" />
<use xlink:href="#f1_q" transform="matrix(12,0,0,12,186.3,802.8)" />
<use xlink:href="#f1_a" transform="matrix(12,0,0,12,196.7,802.8)" />
<use xlink:href="#f1_i" transform="matrix(12,0,0,12,206.8,802.8)" />
<use xlink:href="#f1_b" transform="matrix(12,0,0,12,210.9,802.8)" />
<use xlink:href="#f1_n" transform="matrix(12,0,0,12,221.3,802.8)" />
<use xlink:href="#f1_g" transform="matrix(12,0,0,12,228.8,802.8)" />
<use xlink:href="#f1_b" transform="matrix(12,0,0,12,250.4,802.8)" />
<use xlink:href="#f1_c" transform="matrix(12,0,0,12,260.8,802.8)" />
<use xlink:href="#f1_l" transform="matrix(12,0,0,12,283.5,802.8)" />
<use xlink:href="#f1_i" transform="matrix(12,0,0,12,295.7,802.8)" />
<use xlink:href="#f1_b" transform="matrix(12,0,0,12,299.8,802.8)" />
<use xlink:href="#f1_e" transform="matrix(12,0,0,12,310.2,802.8)" />
<use xlink:href="#f1_f" transform="matrix(12,0,0,12,321.7,802.8)" />
<use xlink:href="#f1_g" transform="matrix(12,0,0,12,332.2,802.8)" />
<use xlink:href="#f1_8" transform="matrix(12,0,0,12,353.9,802.8)" />
<use xlink:href="#f1_g" transform="matrix(12,0,0,12,359.7,802.8)" />
<use xlink:href="#f1_a" transform="matrix(12,0,0,12,371.6,802.8)" />
<use xlink:href="#f1_6" transform="matrix(12,0,0,12,381.7,802.8)" />
<use xlink:href="#f1_f" transform="matrix(12,0,0,12,386.7,802.8)" />
<use xlink:href="#f1_e" transform="matrix(12,0,0,12,397.3,802.8)" />
<use xlink:href="#f1_g" transform="matrix(12,0,0,12,408.7,802.8)" />
<use xlink:href="#f1_h" transform="matrix(12,0,0,12,430.4,802.8)" />
<use xlink:href="#f1_s" transform="matrix(12,0,0,12,442.4,802.8)" />
<use xlink:href="#f1_a" transform="matrix(12,0,0,12,464.4,802.8)" />
<use xlink:href="#f1_f" transform="matrix(12,0,0,12,474.4,802.8)" />
<use xlink:href="#f1_s" transform="matrix(12,0,0,12,485,802.8)" />
<use xlink:href="#f1_b" transform="matrix(12,0,0,12,497.2,802.8)" />
<use xlink:href="#f1_g" transform="matrix(12,0,0,12,517.3,802.8)" />
<use xlink:href="#f1_r" transform="matrix(12,0,0,12,529.3,802.8)" />
<use xlink:href="#f1_6" transform="matrix(12,0,0,12,540.1,802.8)" />
<use xlink:href="#f1_q" transform="matrix(12,0,0,12,545.1,802.8)" />
<use xlink:href="#f1_s" transform="matrix(12,0,0,12,565.3,802.8)" />
<use xlink:href="#f1_b" transform="matrix(12,0,0,12,577.5,802.8)" />
<use xlink:href="#f1_i" transform="matrix(12,0,0,12,597.5,802.8)" />
<use xlink:href="#f1_9" transform="matrix(12,0,0,12,601.6,802.8)" />
<use xlink:href="#f1_s" transform="matrix(12,0,0,12,608.9,802.8)" />
<use xlink:href="#f1_2" transform="matrix(12,0,0,12,631,802.8)" />
<use xlink:href="#f1_s" transform="matrix(12,0,0,12,636.8,802.8)" />
<use xlink:href="#f1_b" transform="matrix(12,0,0,12,649.1,802.8)" />
<use xlink:href="#f1_8" transform="matrix(12,0,0,12,405.2,824.2)" />
<use xlink:href="#f1_i" transform="matrix(12,0,0,12,411,824.2)" />
<use xlink:href="#f1_d" transform="matrix(12,0,0,12,415.1,824.2)" />
<use xlink:href="#f1_m" transform="matrix(12,0,0,12,427,824.2)" />
<use xlink:href="#f1_7" transform="matrix(12,0,0,12,438.4,824.2)" />
<use xlink:href="#f1_i" transform="matrix(12,0,0,12,450.8,824.2)" />
<use xlink:href="#f1_o" transform="matrix(12,0,0,12,454.9,824.2)" />
<use xlink:href="#f1_6" transform="matrix(12,0,0,12,472.6,824.2)" />
<use xlink:href="#f1_9" transform="matrix(12,0,0,12,477.6,824.2)" />
<use xlink:href="#f1_9" transform="matrix(12,0,0,12,485,824.2)" />
<use xlink:href="#f1_i" transform="matrix(12,0,0,12,492.3,824.2)" />
<use xlink:href="#f1_s" transform="matrix(12,0,0,12,496.4,824.2)" />
<use xlink:href="#f1_a" transform="matrix(12,0,0,12,514.5,824.2)" />
<use xlink:href="#f1_f" transform="matrix(12,0,0,12,524.5,824.2)" />
<use xlink:href="#f1_6" transform="matrix(12,0,0,12,535.1,824.2)" />
<use xlink:href="#f1_e" transform="matrix(12,0,0,12,540.1,824.2)" />
<use xlink:href="#f1_i" transform="matrix(12,0,0,12,557.4,824.2)" />
<use xlink:href="#f1_9" transform="matrix(12,0,0,12,561.5,824.2)" />
<use xlink:href="#f1_s" transform="matrix(12,0,0,12,568.8,824.2)" />
<use xlink:href="#f1_v" transform="matrix(12,0,0,12,586.8,824.2)" />
<use xlink:href="#f1_c" transform="matrix(12,0,0,12,594,824.2)" />
<use xlink:href="#f1_g" transform="matrix(12,0,0,12,612.9,824.2)" />
<use xlink:href="#f1_m" transform="matrix(12,0,0,12,624.8,824.2)" />
<use xlink:href="#f1_i" transform="matrix(12,0,0,12,636.3,824.2)" />
<use xlink:href="#f1_s" transform="matrix(12,0,0,12,640.4,824.2)" />
<use xlink:href="#f1_w" transform="matrix(12,0,0,12,652.6,824.2)" />
</g>
<g fill="#0000FF" >
<use xlink:href="#f1_j" transform="matrix(12,0,0,12,669.9,864.9)" />
<use xlink:href="#f1_q" transform="matrix(12,0,0,12,682.9,864.9)" />
<use xlink:href="#f1_m" transform="matrix(12,0,0,12,693.1,864.9)" />
<use xlink:href="#f1_b" transform="matrix(12,0,0,12,704.6,864.9)" />
<use xlink:href="#f1_g" transform="matrix(12,0,0,12,720.9,864.9)" />
<use xlink:href="#f1_q" transform="matrix(12,0,0,12,732.8,864.9)" />
<use xlink:href="#f1_p" transform="matrix(12,0,0,12,743.2,864.9)" />
<use xlink:href="#f1_k" transform="matrix(12,0,0,12,749.6,864.9)" />
<use xlink:href="#f1_f" transform="matrix(12,0,0,12,761.5,864.9)" />
</g>
</g>
<path d="M669.8,866.7H772.1" class="g0_18" />
<g clip-path="url(#c0_18)">
<g fill="#000000" >
<use xlink:href="#f1_14" transform="matrix(11,0,0,11,137.5,1208.9)" />
<use xlink:href="#f1_1i" transform="matrix(11,0,0,11,148.2,1208.9)" />
</g>
</g>
<image preserveAspectRatio="none" x="137" y="109" width="57" height="50" xlink:href="img/1.png" />
<image preserveAspectRatio="none" x="671" y="607" width="58" height="50" xlink:href="img/2.png" />
<image preserveAspectRatio="none" x="444" y="975" width="180" height="159" xlink:href="img/3.png" />
<image preserveAspectRatio="none" x="194" y="975" width="151" height="164" xlink:href="img/4.png" />
<defs>
<path d="M26,0V54L154,74V926L26,945v55H878V746H810L786,908c0,0,-83,10,-241,10H389V551H651l23,111h67V355H674L651,468H389V82H578c0,0,193,0,252,12l43,185h68L927,0Z" 
id="f0_c"
transform="scale(0.001,-0.001)" />

<path d="M30,0V49l76,18V992l-72,18v50H322V67L398,49V0Z" 
id="f0_11"
transform="scale(0.001,-0.001)" />

<path d="M434,423c0,0,0,101,-7,142c0,0,-6,40,-22,60c0,0,-16,19,-45,19c0,0,-44,0,-66,-48c0,0,-22,-49,-22,-173ZM389,-14c0,0,-172,0,-254,89c0,0,-83,90,-83,279c0,0,0,184,79,274c0,0,79,91,238,91c0,0,142,0,206,-76c0,0,64,-76,64,-237V345H271V333c0,0,0,-111,18,-158c0,0,18,-47,58,-72c0,0,40,-25,110,-25c0,0,66,0,166,22V42C623,42,582,18,517,1c0,0,-66,-15,-128,-15Z" 
id="f0_j"
transform="scale(0.001,-0.001)" />

<path d="M41,0V49l69,18V634L41,652v49H313l11,-61l50,26c0,0,105,54,188,54c0,0,194,0,194,-207V67L827,49V0H478V49l63,18V484c0,0,0,63,-27,98c0,0,-26,35,-75,35c0,0,-57,0,-114,-25V67L389,49V0Z" 
id="f0_13"
transform="scale(0.001,-0.001)" />

<path d="M425,-14c0,0,-187,0,-280,90c0,0,-93,90,-93,276c0,0,0,115,42,198c0,0,43,82,121,126c0,0,78,44,182,44c0,0,104,0,227,-26V486H571L539,609c0,0,-25,19,-50,26c0,0,-24,7,-65,7c0,0,-44,0,-79,-35c0,0,-36,-35,-56,-98c0,0,-20,-64,-20,-153c0,0,0,-150,47,-214c0,0,47,-64,148,-64c0,0,103,0,176,21V42C640,42,606,15,547,0c0,0,-59,-14,-122,-14Z" 
id="f0_o"
transform="scale(0.001,-0.001)" />

<path d="M287,-18c0,0,-194,0,-194,206V634L23,652v49H309V217c0,0,0,-63,26,-98c0,0,27,-35,76,-35c0,0,57,0,113,25V634l-64,18v49H740V67L809,49V0H536L526,61L475,35c0,0,-104,-53,-188,-53Z" 
id="f0_r"
transform="scale(0.001,-0.001)" />

<path d="M327,-14c0,0,-101,0,-156,45c0,0,-55,45,-55,131V624H25v48l108,29l87,159H332V701H480V624H332V176c0,0,0,-49,20,-73c0,0,20,-25,53,-25c0,0,40,0,97,12V26c0,0,-22,-15,-76,-27c0,0,-55,-13,-99,-13Z" 
id="f0_p"
transform="scale(0.001,-0.001)" />

<path d="M41,0V49l91,18V634L41,652v49H336l8,-145c0,0,80,89,144,128c0,0,64,40,117,40h40V468H604l-45,94c0,0,-47,0,-106,-21c0,0,-60,-20,-105,-48V67L460,49V0Z" 
id="f0_n"
transform="scale(0.001,-0.001)" />

<path d="M379,60c0,0,59,0,84,64c0,0,24,65,24,231c0,0,0,164,-24,227c0,0,-24,63,-84,63c0,0,-57,0,-80,-60c0,0,-22,-61,-22,-230c0,0,0,-173,23,-234c0,0,22,-61,79,-61Zm-2,-74c0,0,-161,0,-240,91c0,0,-79,91,-79,277c0,0,0,186,80,276c0,0,81,90,245,90c0,0,167,0,245,-93c0,0,78,-93,78,-273c0,0,0,-188,-81,-278c0,0,-81,-90,-248,-90Z" 
id="f0_t"
transform="scale(0.001,-0.001)" />

<path d="M416,68c0,0,60,0,124,32V628c0,0,-58,15,-118,15c0,0,-67,0,-104,-73c0,0,-38,-73,-38,-216c0,0,0,-139,36,-212c0,0,35,-74,100,-74ZM369,-14c0,0,-155,0,-231,88c0,0,-76,90,-76,274c0,0,0,182,82,277c0,0,81,95,236,95c0,0,82,0,165,-20c0,0,-5,24,-5,115V992l-72,18v50H756V67L833,49V0H562L547,40C547,40,505,13,483,4c0,0,-23,-7,-51,-12c0,0,-28,-6,-63,-6Z" 
id="f0_18"
transform="scale(0.001,-0.001)" />

<path d="M452,474c0,0,104,0,151,52c0,0,47,53,47,178c0,0,0,119,-45,167c0,0,-44,47,-156,47H390V474ZM36,0V54L154,74V926L26,945v55H467c0,0,213,0,318,-71c0,0,105,-71,105,-224c0,0,0,-313,-366,-313H390V74L557,54V0Z" 
id="f0_1g"
transform="scale(0.001,-0.001)" />

<path d="M345,75c0,0,50,0,110,26V351l-63,-2c0,0,-72,-3,-100,-38c0,0,-28,-35,-28,-113c0,0,0,-63,22,-93c0,0,23,-30,59,-30ZM266,-14c0,0,-217,0,-217,208c0,0,0,79,32,126c0,0,32,48,93,71c0,0,60,22,190,25l91,2V521c0,0,0,126,-104,126c0,0,-62,0,-140,-39L183,521H134V691c0,0,112,17,165,21c0,0,53,5,108,5c0,0,264,0,264,-194V67L741,49V0H483L466,54C466,54,408,14,361,0c0,0,-47,-14,-95,-14Z" 
id="f0_l"
transform="scale(0.001,-0.001)" />

<path d="M424,64c0,0,74,0,109,71c0,0,36,72,36,236c0,0,0,137,-34,201c0,0,-34,65,-111,65c0,0,-29,0,-62,-7c0,0,-34,-6,-55,-19V76c0,0,47,-12,117,-12Zm21,-78c0,0,-121,0,-354,50V994l-72,18v48H307V802c0,0,0,-69,-8,-141c0,0,30,25,86,42c0,0,57,17,110,17c0,0,153,0,223,-84c0,0,70,-83,70,-266c0,0,0,-180,-90,-283C698,87,608,-14,445,-14Z" 
id="f0_z"
transform="scale(0.001,-0.001)" />

<path d="M51,0V55L180,74V926L51,946v54H543V946L415,926V74L543,55V0Z" 
id="f0_i"
transform="scale(0.001,-0.001)" />

<path d="M276,-14c0,0,-57,0,-125,13C151,-1,83,10,48,23V214H97l28,-98c0,0,26,-26,69,-44c0,0,42,-17,86,-17c0,0,65,0,97,28c0,0,32,28,32,71c0,0,0,41,-31,65c0,0,-30,25,-133,57c0,0,-108,34,-154,92c0,0,-45,58,-45,143c0,0,0,95,71,152c0,0,71,57,183,57c0,0,77,0,207,-22V518H457l-24,82c0,0,-21,22,-60,35c0,0,-40,14,-75,14c0,0,-53,0,-79,-22c0,0,-26,-22,-26,-59c0,0,0,-40,32,-65c0,0,32,-26,132,-55c0,0,109,-34,155,-89c0,0,45,-55,45,-137c0,0,0,-117,-72,-177c0,0,-72,-59,-209,-59Z" 
id="f0_x"
transform="scale(0.001,-0.001)" />

<path d="M179,0V190H336V0Zm0,600V790H336V600Z" 
id="f1_13"
transform="scale(0.001,-0.001)" />

<path d="M287,0L589,729H66v386H205V836l547,-1l-2,-82L433,0Z" 
id="f1_b"
transform="scale(0.001,-0.001)" />

<path d="M66,0V107H554V452c0,0,0,56,-4,93c0,0,-4,37,-18,75c0,0,-14,38,-40,60c0,0,-26,22,-71,36c0,0,-45,13,-110,13H66V836H312c0,0,91,0,157,-17c0,0,66,-17,109,-49c0,0,44,-32,69,-84c0,0,26,-52,36,-114c0,0,10,-62,10,-147V107H817V0Z" 
id="f1_f"
transform="scale(0.001,-0.001)" />

<path d="M152,0V473c0,0,0,94,28,161c0,0,29,66,71,95H66V836H463V729H404c0,0,-65,0,-89,-57c0,0,-25,-58,-25,-199V0Z" 
id="f1_p"
transform="scale(0.001,-0.001)" />

<path d="M102,312V836H241V369L102,312Z" 
id="f1_i"
transform="scale(0.001,-0.001)" />

<path d="M139,0V138c0,0,0,61,8,112c0,0,7,52,19,87c0,0,11,36,30,66c0,0,19,31,35,49c0,0,17,19,41,35c0,0,25,17,41,25c0,0,17,7,40,17L141,836H303L613,388c0,0,20,10,33,18c0,0,13,8,34,28c0,0,20,20,33,44c0,0,13,25,22,66c0,0,10,41,10,92V836H882V698c0,0,0,-61,-7,-112c0,0,-6,-52,-18,-88c0,0,-12,-36,-30,-66c0,0,-19,-30,-36,-49c0,0,-17,-18,-41,-34c0,0,-24,-17,-40,-25c0,0,-17,-8,-41,-17L882,0H720L409,448c0,0,-21,-11,-34,-19c0,0,-13,-8,-34,-27c0,0,-21,-20,-34,-44c0,0,-12,-25,-22,-66c0,0,-9,-41,-9,-92V0Z" 
id="f1_s"
transform="scale(0.001,-0.001)" />

<path d="M163,0V190H321V0Z" 
id="f1_8"
transform="scale(0.001,-0.001)" />

<path d="M154,0V454l138,56V0ZM722,0V454c0,0,0,161,-49,218c0,0,-48,57,-186,57H139V836H485c0,0,207,0,291,-93c0,0,83,-94,83,-318V0Z" 
id="f1_g"
transform="scale(0.001,-0.001)" />

<path d="M585,0V426c0,0,0,54,-8,98c0,0,-8,44,-27,83c0,0,-19,40,-49,66c0,0,-30,26,-77,41c0,0,-47,15,-108,15H66V836H315c0,0,94,0,166,-20c0,0,71,-20,116,-54c0,0,46,-35,75,-88c0,0,28,-52,40,-112c0,0,12,-60,12,-137V0Z" 
id="f1_q"
transform="scale(0.001,-0.001)" />

<path d="M71,-141V-15L289,62L66,836H210L416,109c0,0,99,42,153,98c0,0,53,56,80,155c0,0,26,98,26,262V836H817V624c0,0,0,-88,-7,-154c0,0,-7,-67,-25,-132c0,0,-18,-66,-51,-116c0,0,-33,-51,-84,-98c0,0,-50,-48,-123,-87c0,0,-72,-39,-169,-74L71,-141Z" 
id="f1_e"
transform="scale(0.001,-0.001)" />

<path d="M66,0V106H322c0,0,75,0,127,23c0,0,53,23,82,67c0,0,29,43,42,98c0,0,13,54,13,124c0,0,0,70,-13,124c0,0,-13,55,-42,98c0,0,-29,44,-82,67c0,0,-52,23,-127,23H66V836H322c0,0,87,0,157,-24c0,0,70,-24,115,-64c0,0,45,-40,74,-94c0,0,30,-55,43,-113c0,0,13,-59,13,-123c0,0,0,-64,-13,-123c0,0,-13,-58,-43,-113c0,0,-29,-54,-74,-94C594,88,549,48,479,24C479,24,409,0,322,0Z" 
id="f1_4"
transform="scale(0.001,-0.001)" />

<path d="M66,0V106H564L66,836H228L516,413c0,0,3,2,9,6c0,0,17,13,27,21c0,0,10,8,26,27c0,0,17,20,26,40c0,0,9,21,16,54c0,0,7,34,7,75V836H764V698c0,0,0,-55,-7,-102c0,0,-7,-47,-16,-79c0,0,-10,-33,-27,-62c0,0,-18,-29,-32,-46c0,0,-14,-17,-37,-35c0,0,-22,-17,-36,-25c0,0,-13,-8,-36,-20L767,53V0Z" 
id="f1_r"
transform="scale(0.001,-0.001)" />

<path d="M66,0V107H332V555c0,0,0,92,-37,133c0,0,-37,41,-116,41H85V836h94c0,0,153,0,223,-66c0,0,69,-66,69,-231V0Z" 
id="f1_9"
transform="scale(0.001,-0.001)" />

<path d="M291,0V190H443V0Zm5,299V414c0,0,0,75,21,124c0,0,21,48,88,113l67,66c0,0,42,40,61,75c0,0,19,35,19,71c0,0,0,67,-48,108c0,0,-49,41,-130,41c0,0,-59,0,-125,-26c0,0,-67,-26,-139,-77v140c0,0,70,43,142,64c0,0,72,21,148,21c0,0,138,0,221,-72c0,0,83,-73,83,-191c0,0,0,-57,-27,-108c0,0,-27,-51,-94,-115L517,583c0,0,-34,-35,-49,-54c0,0,-14,-20,-20,-39c0,0,-5,-16,-7,-38c0,0,-2,-22,-2,-61V299Z" 
id="f1_1d"
transform="scale(0.001,-0.001)" />

<path d="M139,0V106H400c0,0,176,0,253,71c0,0,78,72,78,250c0,0,0,163,-80,233c0,0,-81,69,-250,69H278L277,564c0,0,-1,-54,26,-80c0,0,27,-25,82,-25c0,0,30,0,80,9V355c0,0,-61,-12,-111,-12c0,0,-100,0,-157,55c0,0,-58,55,-58,186V836H456c0,0,193,0,303,-109c0,0,110,-109,110,-309c0,0,0,-200,-110,-309C759,109,648,0,456,0Z" 
id="f1_m"
transform="scale(0.001,-0.001)" />

<path d="M522,92c0,0,247,0,247,333c0,0,0,88,-17,146c0,0,-17,58,-53,91c0,0,-35,33,-82,46c0,0,-48,14,-116,14H276V419c0,0,0,-327,246,-327Zm0,-112c0,0,-193,0,-289,109c0,0,-95,110,-95,337V836H501c0,0,213,0,309,-93c0,0,96,-94,96,-317c0,0,0,-227,-95,-337C811,89,715,-20,522,-20Z" 
id="f1_o"
transform="scale(0.001,-0.001)" />

<path d="M112,-5c0,0,-39,0,-97,11V113c0,0,48,-10,77,-10c0,0,53,0,70,42c0,0,17,43,17,164V729H50V836H501c0,0,107,0,179,-25c0,0,72,-25,112,-77c0,0,40,-51,57,-118c0,0,16,-67,16,-164V0H726V454c0,0,0,55,-3,92c0,0,-4,37,-17,75c0,0,-14,38,-38,59c0,0,-24,22,-65,36c0,0,-42,13,-102,13H318V309c0,0,0,-160,-46,-237C272,72,226,-5,112,-5Z" 
id="f1_h"
transform="scale(0.001,-0.001)" />

<path d="M114,0l60,312c0,0,2,12,8,39c0,0,6,27,7,37c0,0,2,11,5,30c0,0,2,19,4,33c0,0,1,15,1,31c0,0,0,48,-35,146c0,0,-35,98,-98,208H228c0,0,3,-8,27,-67c0,0,25,-58,41,-117c0,0,21,53,50,90c0,0,29,37,57,57c0,0,29,21,65,32c0,0,37,11,65,14c0,0,28,3,67,3c0,0,300,0,300,-396V0H480V106H761V452c0,0,0,146,-46,215c0,0,-45,70,-118,70c0,0,-134,0,-198,-119c0,0,-36,-68,-67,-222c0,0,-2,-10,-6,-27L253,0Z" 
id="f1_7"
transform="scale(0.001,-0.001)" />

<path d="M117,-176L179,62V190H336V62L213,-176Z" 
id="f1_2"
transform="scale(0.001,-0.001)" />

<path d="M736,107V473c0,0,0,147,-48,202c0,0,-49,54,-187,54H278V107ZM139,0V836H499c0,0,105,0,177,-22c0,0,72,-21,116,-69c0,0,44,-49,64,-119c0,0,19,-71,19,-174V0Z" 
id="f1_l"
transform="scale(0.001,-0.001)" />

<path d="M139,0V836H278V0Z" 
id="f1_6"
transform="scale(0.001,-0.001)" />

<path d="M180,0L66,836H203L258,443c0,0,36,1,64,6c0,0,28,6,49,18c0,0,20,12,35,26c0,0,15,13,26,36c0,0,11,24,17,44c0,0,7,20,12,55c0,0,6,34,9,60c0,0,3,26,8,71c0,0,4,45,9,77H610c0,0,-13,-194,-31,-271c0,0,-31,-127,-111,-179c0,0,-71,-45,-196,-50L304,107c0,0,73,0,130,5c0,0,56,6,111,21c0,0,54,15,94,40c0,0,40,25,77,64c0,0,37,39,63,94c0,0,25,54,46,128c0,0,21,73,34,166c0,0,13,94,20,211h138c0,0,-14,-124,-29,-218c0,0,-16,-94,-39,-179c0,0,-22,-85,-50,-146c0,0,-28,-61,-68,-112c0,0,-39,-51,-87,-84C744,97,696,65,632,42C632,42,568,19,492,10C492,10,417,0,320,0Z" 
id="f1_c"
transform="scale(0.001,-0.001)" />

<path d="M543,-317V369c0,0,0,85,-8,143c0,0,-8,58,-27,101c0,0,-18,44,-51,69c0,0,-33,24,-80,36c0,0,-48,11,-117,11H66V836H257c0,0,125,0,205,-23c0,0,80,-23,130,-79c0,0,50,-56,70,-143c0,0,20,-86,20,-222V-317Z" 
id="f1_t"
transform="scale(0.001,-0.001)" />

<path d="M495,0V729H66V836H781V729H634V0Z" 
id="f1_a"
transform="scale(0.001,-0.001)" />

<path d="M522,-20c0,0,-196,0,-290,99c0,0,-94,100,-94,324V836H276V397c0,0,0,-86,16,-147c0,0,17,-60,50,-94c0,0,34,-34,77,-49c0,0,43,-15,103,-15c0,0,59,0,102,15c0,0,44,15,77,49c0,0,33,34,50,94c0,0,17,61,17,147c0,0,0,84,-8,143c0,0,-7,58,-25,105c0,0,-17,47,-51,69c0,0,-33,23,-83,23c0,0,-50,0,-119,-22V821c0,0,85,23,150,23c0,0,76,0,130,-30c0,0,53,-31,85,-90c0,0,31,-59,45,-138c0,0,13,-78,13,-183c0,0,0,-224,-93,-324c0,0,-94,-99,-290,-99Z" 
id="f1_d"
transform="scale(0.001,-0.001)" />

<path d="M156,-317V454l139,56V-317ZM505,0L806,729H139V835H967V753L650,0Z" 
id="f1_j"
transform="scale(0.001,-0.001)" />

<path d="M139,-317V836H278V-317Z" 
id="f1_3"
transform="scale(0.001,-0.001)" />

<path d="M139,0V836H485c0,0,206,0,290,-90c0,0,84,-89,84,-294V0H721V473c0,0,0,147,-49,202c0,0,-48,54,-186,54H277V0Z" 
id="f1_k"
transform="scale(0.001,-0.001)" />

<path d="M176,0V190H335V0ZM685,0V190H844V0Zm508,0V190h159V0Z" 
id="f1_1e"
transform="scale(0.001,-0.001)" />

<path d="M431,-315c0,0,-338,0,-338,265c0,0,0,107,57,182c0,0,58,74,164,104l65,18l20,151h77L518,171L448,152c0,0,-78,-20,-109,-68c0,0,-31,-48,-31,-129c0,0,0,-102,36,-148c0,0,36,-46,119,-46c0,0,63,0,111,32l32,144h67V-283c0,0,-124,-32,-242,-32Zm2,784c0,0,-51,0,-87,36c0,0,-36,36,-36,88c0,0,0,51,35,88c0,0,36,36,88,36c0,0,53,0,88,-36c0,0,36,-36,36,-88c0,0,0,-52,-36,-88c0,0,-35,-36,-88,-36Z" 
id="f0_1m"
transform="scale(0.001,-0.001)" />

<path d="M595,60c0,0,141,0,206,102c0,0,65,102,65,340c0,0,0,236,-65,335c0,0,-65,100,-206,100c0,0,-142,0,-207,-100c0,0,-66,-99,-66,-335c0,0,0,-239,66,-340c0,0,65,-102,207,-102ZM945,-246c0,0,-54,0,-96,10c0,0,-43,10,-79,31c0,0,-36,21,-71,56c0,0,-34,35,-113,135c0,0,-249,2,-380,132C206,118,75,250,75,501c0,0,0,510,520,510c0,0,256,0,387,-129c0,0,132,-130,132,-381c0,0,0,-370,-279,-477l37,-44c0,0,110,-138,188,-138c0,0,39,0,61,6v-64c0,0,-15,-7,-73,-19c0,0,-57,-11,-103,-11Z" 
id="f0_1n"
transform="scale(0.001,-0.001)" />

<path d="M434,423c0,0,0,100,-7,141c0,0,-6,40,-22,60c0,0,-16,19,-45,19c0,0,-44,0,-66,-48c0,0,-22,-49,-22,-172ZM389,-13c0,0,-172,0,-254,89c0,0,-83,90,-83,278c0,0,0,184,79,274c0,0,79,90,238,90c0,0,142,0,206,-76c0,0,64,-76,64,-236V345H271V333c0,0,0,-111,18,-158c0,0,18,-47,58,-72c0,0,40,-25,110,-25c0,0,66,0,166,22V43C623,43,582,18,517,2c0,0,-66,-15,-128,-15ZM267,834v25l124,203H604v-28L331,834Z" 
id="f0_1j"
transform="scale(0.001,-0.001)" />

<path d="M332,-20c0,0,-52,0,-88,34c0,0,-35,36,-35,88c0,0,0,52,35,88c0,0,36,36,88,36c0,0,51,0,88,-36c0,0,36,-36,36,-88c0,0,0,-51,-36,-87c0,0,-36,-35,-88,-35ZM289,290L247,524l71,19c0,0,77,20,108,68c0,0,31,48,31,130c0,0,0,102,-36,148c0,0,-35,46,-119,46c0,0,-63,0,-111,-32L159,759H93V979c0,0,123,32,241,32c0,0,339,0,339,-265c0,0,0,-108,-58,-183c0,0,-58,-74,-164,-104L386,441L366,290Z" 
id="f0_1o"
transform="scale(0.001,-0.001)" />

<path d="M138,-7c0,0,-34,0,-72,10V129c0,0,25,-8,52,-8c0,0,33,0,58,5c0,0,26,5,58,24c0,0,33,20,53,54c0,0,21,34,36,97c0,0,15,64,15,151c0,0,0,113,-19,173c0,0,-19,60,-56,82c0,0,-38,22,-107,22H89V836h72c0,0,165,0,240,-91c0,0,76,-91,76,-293c0,0,0,-107,26,-227c0,0,25,-119,83,-225H437c0,0,-43,101,-62,184c0,0,-24,-60,-51,-99c0,0,-26,-38,-56,-58C268,27,239,7,209,0c0,0,-30,-7,-71,-7Z" 
id="f1_n"
transform="scale(0.001,-0.001)" />

<path d="M354,-200c0,0,-112,175,-167,343c0,0,-56,170,-56,337c0,0,0,166,55,335c0,0,55,169,168,345H473c0,0,-100,-172,-148,-340c0,0,-48,-168,-48,-340c0,0,0,-173,48,-342c0,0,49,-168,148,-338Z" 
id="f1_v"
transform="scale(0.001,-0.001)" />

<path d="M122,-200c0,0,99,170,148,338c0,0,49,169,49,342c0,0,0,172,-49,340c0,0,-49,168,-148,340H241c0,0,112,-176,168,-345c0,0,55,-169,55,-335c0,0,0,-167,-55,-337c0,0,-56,-168,-168,-343Z" 
id="f1_w"
transform="scale(0.001,-0.001)" />

<path d="M190,0V127H436V977L168,923v137l267,54H586V127H832V0Z" 
id="f1_14"
transform="scale(0.001,-0.001)" />

<path d="M486,98c0,0,107,0,169,58c0,0,62,57,62,157c0,0,0,101,-62,159c0,0,-61,57,-169,57c0,0,-108,0,-169,-57c0,0,-62,-58,-62,-159c0,0,0,-100,62,-158c0,0,61,-57,169,-57Zm-1,549c0,0,97,0,152,49c0,0,54,48,54,135c0,0,0,87,-54,135c0,0,-55,49,-152,49c0,0,-97,0,-151,-49c0,0,-54,-48,-54,-135c0,0,0,-87,54,-135c0,0,54,-49,151,-49Zm0,-667c0,0,-184,0,-283,85c0,0,-98,86,-98,248c0,0,0,107,61,181c0,0,61,74,170,99c0,0,-97,24,-151,90c0,0,-54,67,-54,162c0,0,0,134,95,212c0,0,95,77,260,77c0,0,167,0,261,-77c0,0,95,-78,95,-212c0,0,0,-95,-54,-162c0,0,-54,-66,-151,-90c0,0,109,-25,170,-99c0,0,61,-74,61,-181c0,0,0,-162,-99,-248c0,0,-98,-85,-283,-85Z" 
id="f1_1i"
transform="scale(0.001,-0.001)" />


</defs>
</svg>