<?xml version="1.0" encoding="UTF-8" standalone="no"?>
<!DOCTYPE svg PUBLIC "-//W3C//DTD SVG 1.1//EN"
"http://www.w3.org/Graphics/SVG/1.1/DTD/svg11.dtd">
<svg viewBox="0 0 909 1286" version="1.1" xmlns="http://www.w3.org/2000/svg" xmlns:xlink="http://www.w3.org/1999/xlink">
<defs>
<clipPath id="c0_23"><path d="M0,1286.2V0H909.4V1286.2Z" /></clipPath>
<style type="text/css"><![CDATA[
.g0_23{
fill: none;
stroke: #000000;
stroke-width: 0.7638889;
stroke-linecap: butt;
stroke-linejoin: round;
}
.g1_23{
fill: none;
stroke: #0000FF;
stroke-width: 1.0694444;
stroke-linecap: butt;
stroke-linejoin: miter;
}
]]></style>
</defs>
<path d="M128.6,110.4h572m-572,20.1h572m-572,20.1h572m-572,20.1h572m-572,20h572m-572,20.2h572m-572,20h572m-572,20.2h572M128.9,110V251.5M700.2,110V251.5" class="g0_23" />
<g clip-path="url(#c0_23)">
<g fill="#000000" >
<use xlink:href="#f0_e" transform="matrix(11,0,0,11,137.7,126.5)" />
<use xlink:href="#f0_b" transform="matrix(11,0,0,11,146.1,126.5)" />
<use xlink:href="#f0_k" transform="matrix(11,0,0,11,154.5,126.5)" />
<use xlink:href="#f0_e" transform="matrix(11,0,0,11,159.2,126.5)" />
<use xlink:href="#f0_9" transform="matrix(11,0,0,11,167.6,126.5)" />
<use xlink:href="#f0_f" transform="matrix(11,0,0,11,174.9,126.5)" />
<use xlink:href="#f0_f" transform="matrix(11,0,0,11,300.4,126.5)" />
<use xlink:href="#f0_9" transform="matrix(11,0,0,11,306,126.5)" />
<use xlink:href="#f0_u" transform="matrix(11,0,0,11,313.5,126.5)" />
<use xlink:href="#f0_f" transform="matrix(11,0,0,11,321.7,126.5)" />
<use xlink:href="#f0_9" transform="matrix(11,0,0,11,327.3,126.5)" />
<use xlink:href="#f0_h" transform="matrix(11,0,0,11,334.8,126.5)" />
<use xlink:href="#f0_d" transform="matrix(11,0,0,11,341.3,126.5)" />
<use xlink:href="#f0_f" transform="matrix(11,0,0,11,348.8,126.5)" />
<use xlink:href="#f0_f" transform="matrix(11,0,0,11,463.1,126.5)" />
<use xlink:href="#f0_9" transform="matrix(11,0,0,11,468.7,126.5)" />
<use xlink:href="#f0_a" transform="matrix(11,0,0,11,476,126.5)" />
<use xlink:href="#f0_b" transform="matrix(11,0,0,11,480.7,126.5)" />
<use xlink:href="#f0_f" transform="matrix(11,0,0,11,489.2,126.5)" />
<use xlink:href="#f0_o" transform="matrix(11,0,0,11,494.8,126.5)" />
<use xlink:href="#f0_d" transform="matrix(11,0,0,11,503.2,126.5)" />
<use xlink:href="#f0_f" transform="matrix(11,0,0,11,510.6,126.5)" />
<use xlink:href="#f1_u" transform="matrix(11,0,0,11,589.9,126.5)" />
<use xlink:href="#f1_t" transform="matrix(11,0,0,11,597.3,126.5)" />
<use xlink:href="#f1_v" transform="matrix(11,0,0,11,604.8,126.5)" />
<use xlink:href="#f1_6" transform="matrix(11,0,0,11,613.2,126.5)" />
<use xlink:href="#f1_e" transform="matrix(11,0,0,11,621.6,126.5)" />
<use xlink:href="#f1_v" transform="matrix(11,0,0,11,626.3,126.5)" />
<use xlink:href="#f1_t" transform="matrix(11,0,0,11,634.6,126.5)" />
<use xlink:href="#f1_u" transform="matrix(11,0,0,11,642,126.5)" />
<use xlink:href="#f0_i" transform="matrix(11,0,0,11,137.7,146.5)" />
<use xlink:href="#f0_b" transform="matrix(11,0,0,11,145.1,146.5)" />
<use xlink:href="#f0_o" transform="matrix(11,0,0,11,153.5,146.5)" />
<use xlink:href="#f0_a" transform="matrix(11,0,0,11,161.9,146.5)" />
<use xlink:href="#f0_n" transform="matrix(11,0,0,11,166.5,146.5)" />
<use xlink:href="#f0_o" transform="matrix(11,0,0,11,171.2,146.5)" />
<use xlink:href="#f0_g" transform="matrix(11,0,0,11,179.6,146.5)" />
<use xlink:href="#f0_d" transform="matrix(11,0,0,11,188,146.5)" />
<use xlink:href="#f0_i" transform="matrix(11,0,0,11,195.5,146.5)" />
<use xlink:href="#f0_n" transform="matrix(11,0,0,11,203,146.5)" />
<use xlink:href="#f0_15" transform="matrix(11,0,0,11,207.7,146.5)" />
<use xlink:href="#f0_o" transform="matrix(11,0,0,11,216.1,146.5)" />
<use xlink:href="#f1_s" transform="matrix(11,0,0,11,300.4,146.5)" />
<use xlink:href="#f1_t" transform="matrix(11,0,0,11,306,146.5)" />
<use xlink:href="#f1_u" transform="matrix(11,0,0,11,313.5,146.5)" />
<use xlink:href="#f1_u" transform="matrix(11,0,0,11,320.8,146.5)" />
<use xlink:href="#f1_7" transform="matrix(11,0,0,11,328.2,146.5)" />
<use xlink:href="#f1_1v" transform="matrix(11,0,0,11,333,146.5)" />
<use xlink:href="#f1_e" transform="matrix(11,0,0,11,342.3,146.5)" />
<use xlink:href="#f1_t" transform="matrix(11,0,0,11,347,146.5)" />
<use xlink:href="#f0_8" transform="matrix(11,0,0,11,463.1,146.5)" />
<use xlink:href="#f0_g" transform="matrix(11,0,0,11,471.5,146.5)" />
<use xlink:href="#f0_f" transform="matrix(11,0,0,11,479.9,146.5)" />
<use xlink:href="#f0_d" transform="matrix(11,0,0,11,485.5,146.5)" />
<use xlink:href="#f0_o" transform="matrix(11,0,0,11,493,146.5)" />
<use xlink:href="#f0_a" transform="matrix(11,0,0,11,501.2,146.5)" />
<use xlink:href="#f0_9" transform="matrix(11,0,0,11,505.9,146.5)" />
<use xlink:href="#f0_i" transform="matrix(11,0,0,11,137.7,166.7)" />
<use xlink:href="#f0_b" transform="matrix(11,0,0,11,145.1,166.7)" />
<use xlink:href="#f0_o" transform="matrix(11,0,0,11,153.5,166.7)" />
<use xlink:href="#f0_8" transform="matrix(11,0,0,11,161.9,166.7)" />
<use xlink:href="#f0_g" transform="matrix(11,0,0,11,170.3,166.7)" />
<use xlink:href="#f0_i" transform="matrix(11,0,0,11,178.7,166.7)" />
<use xlink:href="#f0_n" transform="matrix(11,0,0,11,186.2,166.7)" />
<use xlink:href="#f0_f" transform="matrix(11,0,0,11,190.8,166.7)" />
<use xlink:href="#f0_c" transform="matrix(11,0,0,11,300.4,166.7)" />
<use xlink:href="#f0_d" transform="matrix(11,0,0,11,313.5,166.7)" />
<use xlink:href="#f0_o" transform="matrix(11,0,0,11,320.9,166.7)" />
<use xlink:href="#f0_9" transform="matrix(11,0,0,11,329.4,166.7)" />
<use xlink:href="#f0_1d" transform="matrix(11,0,0,11,336.7,166.7)" />
<use xlink:href="#f0_d" transform="matrix(11,0,0,11,341.4,166.7)" />
<use xlink:href="#f0_f" transform="matrix(11,0,0,11,348.9,166.7)" />
<use xlink:href="#f1_3" transform="matrix(11,0,0,11,463.1,166.7)" />
<use xlink:href="#f1_b" transform="matrix(11,0,0,11,471.5,166.7)" />
<use xlink:href="#f1_u" transform="matrix(11,0,0,11,480.8,166.7)" />
<use xlink:href="#f1_6" transform="matrix(11,0,0,11,488.3,166.7)" />
<use xlink:href="#f1_1v" transform="matrix(11,0,0,11,496.7,166.7)" />
<use xlink:href="#f1_3" transform="matrix(11,0,0,11,506,166.7)" />
<use xlink:href="#f1_u" transform="matrix(11,0,0,11,514.4,166.7)" />
<use xlink:href="#f0_13" transform="matrix(11,0,0,11,137.7,186.7)" />
<use xlink:href="#f0_b" transform="matrix(11,0,0,11,145.1,186.7)" />
<use xlink:href="#f0_o" transform="matrix(11,0,0,11,153.5,186.7)" />
<use xlink:href="#f0_d" transform="matrix(11,0,0,11,161.9,186.7)" />
<use xlink:href="#f1_b" transform="matrix(11,0,0,11,300.4,186.7)" />
<use xlink:href="#f1_15" transform="matrix(11,0,0,11,309.7,186.7)" />
<use xlink:href="#f1_t" transform="matrix(11,0,0,11,319,186.7)" />
<use xlink:href="#f1_1v" transform="matrix(11,0,0,11,326.5,186.7)" />
<use xlink:href="#f1_e" transform="matrix(11,0,0,11,335.8,186.7)" />
<use xlink:href="#f1_6" transform="matrix(11,0,0,11,340.5,186.7)" />
<use xlink:href="#f0_1g" transform="matrix(11,0,0,11,463.1,186.7)" />
<use xlink:href="#f0_f" transform="matrix(11,0,0,11,470.5,186.7)" />
<use xlink:href="#f0_9" transform="matrix(11,0,0,11,476.2,186.7)" />
<use xlink:href="#f0_d" transform="matrix(11,0,0,11,483.5,186.7)" />
<use xlink:href="#f1_r" transform="matrix(11,0,0,11,137.7,206.9)" />
<use xlink:href="#f1_7" transform="matrix(11,0,0,11,147,206.9)" />
<use xlink:href="#f1_v" transform="matrix(11,0,0,11,151.7,206.9)" />
<use xlink:href="#f1_t" transform="matrix(11,0,0,11,160.1,206.9)" />
<use xlink:href="#f1_u" transform="matrix(11,0,0,11,167.6,206.9)" />
<use xlink:href="#f1_s" transform="matrix(11,0,0,11,174.9,206.9)" />
<use xlink:href="#f1_7" transform="matrix(11,0,0,11,180.5,206.9)" />
<use xlink:href="#f1_u" transform="matrix(11,0,0,11,185.2,206.9)" />
<use xlink:href="#f0_8" transform="matrix(11,0,0,11,300.4,206.9)" />
<use xlink:href="#f0_9" transform="matrix(11,0,0,11,308.8,206.9)" />
<use xlink:href="#f0_h" transform="matrix(11,0,0,11,316.2,206.9)" />
<use xlink:href="#f0_o" transform="matrix(11,0,0,11,322.8,206.9)" />
<use xlink:href="#f0_g" transform="matrix(11,0,0,11,331.2,206.9)" />
<use xlink:href="#f0_8" transform="matrix(11,0,0,11,339.6,206.9)" />
<use xlink:href="#f0_d" transform="matrix(11,0,0,11,348,206.9)" />
<use xlink:href="#f0_f" transform="matrix(11,0,0,11,355.3,206.9)" />
<use xlink:href="#f0_8" transform="matrix(11,0,0,11,463.1,206.9)" />
<use xlink:href="#f0_9" transform="matrix(11,0,0,11,471.5,206.9)" />
<use xlink:href="#f0_h" transform="matrix(11,0,0,11,478.9,206.9)" />
<use xlink:href="#f0_e" transform="matrix(11,0,0,11,485.5,206.9)" />
<use xlink:href="#f0_9" transform="matrix(11,0,0,11,493.9,206.9)" />
<use xlink:href="#f0_h" transform="matrix(11,0,0,11,501.4,206.9)" />
<use xlink:href="#f0_a" transform="matrix(11,0,0,11,507.8,206.9)" />
<use xlink:href="#f0_n" transform="matrix(11,0,0,11,512.5,206.9)" />
<use xlink:href="#f0_f" transform="matrix(11,0,0,11,517.1,206.9)" />
<use xlink:href="#f0_e" transform="matrix(11,0,0,11,137.7,226.9)" />
<use xlink:href="#f0_9" transform="matrix(11,0,0,11,146.1,226.9)" />
<use xlink:href="#f0_f" transform="matrix(11,0,0,11,153.5,226.9)" />
<use xlink:href="#f0_8" transform="matrix(11,0,0,11,159.1,226.9)" />
<use xlink:href="#f0_d" transform="matrix(11,0,0,11,167.5,226.9)" />
<use xlink:href="#f0_8" transform="matrix(11,0,0,11,175,226.9)" />
<use xlink:href="#f0_i" transform="matrix(11,0,0,11,300.4,226.9)" />
<use xlink:href="#f0_n" transform="matrix(11,0,0,11,307.8,226.9)" />
<use xlink:href="#f0_9" transform="matrix(11,0,0,11,312.5,226.9)" />
<use xlink:href="#f0_f" transform="matrix(11,0,0,11,319.9,226.9)" />
<use xlink:href="#f0_a" transform="matrix(11,0,0,11,325.5,226.9)" />
<use xlink:href="#f0_b" transform="matrix(11,0,0,11,330.2,226.9)" />
<use xlink:href="#f1_w" transform="matrix(11,0,0,11,463.1,226.9)" />
<use xlink:href="#f1_t" transform="matrix(11,0,0,11,477.1,226.9)" />
<use xlink:href="#f1_8" transform="matrix(11,0,0,11,484.6,226.9)" />
<use xlink:href="#f1_s" transform="matrix(11,0,0,11,493.9,226.9)" />
<use xlink:href="#f1_7" transform="matrix(11,0,0,11,499.4,226.9)" />
<use xlink:href="#f1_u" transform="matrix(11,0,0,11,504.1,226.9)" />
<use xlink:href="#f1_3" transform="matrix(11,0,0,11,511.6,226.9)" />
<use xlink:href="#f0_t" transform="matrix(11,0,0,11,137.7,247)" />
<use xlink:href="#f0_g" transform="matrix(11,0,0,11,146.1,247)" />
<use xlink:href="#f0_n" transform="matrix(11,0,0,11,154.5,247)" />
<use xlink:href="#f0_f" transform="matrix(11,0,0,11,159.2,247)" />
<use xlink:href="#f0_9" transform="matrix(11,0,0,11,300.4,247)" />
<use xlink:href="#f0_h" transform="matrix(11,0,0,11,307.8,247)" />
<use xlink:href="#f0_i" transform="matrix(11,0,0,11,314.4,247)" />
<use xlink:href="#f0_d" transform="matrix(11,0,0,11,321.8,247)" />
<use xlink:href="#f0_m" transform="matrix(11,0,0,11,329.3,247)" />
<use xlink:href="#f0_d" transform="matrix(11,0,0,11,337.6,247)" />
<use xlink:href="#f0_f" transform="matrix(11,0,0,11,345,247)" />
<use xlink:href="#f1_b" transform="matrix(11,0,0,11,463.1,247)" />
<use xlink:href="#f1_t" transform="matrix(11,0,0,11,472.4,247)" />
<use xlink:href="#f1_u" transform="matrix(11,0,0,11,479.9,247)" />
<use xlink:href="#f1_a" transform="matrix(11,0,0,11,487.3,247)" />
<use xlink:href="#f1_t" transform="matrix(11,0,0,11,493.9,247)" />
<use xlink:href="#f1_1u" transform="matrix(11,0,0,11,501.3,247)" />
<use xlink:href="#f1_15" transform="matrix(11,0,0,11,509.7,247)" />
<use xlink:href="#f1_7" transform="matrix(11,0,0,11,519.1,247)" />
<use xlink:href="#f1_u" transform="matrix(11,0,0,11,523.7,247)" />
</g>
<g fill="#0000FF" >
<use xlink:href="#f2_8" transform="matrix(12,0,0,12,669.9,287.8)" />
<use xlink:href="#f2_b" transform="matrix(12,0,0,12,682.9,287.8)" />
<use xlink:href="#f2_m" transform="matrix(12,0,0,12,693.1,287.8)" />
<use xlink:href="#f2_4" transform="matrix(12,0,0,12,704.6,287.8)" />
<use xlink:href="#f2_c" transform="matrix(12,0,0,12,720.9,287.8)" />
<use xlink:href="#f2_b" transform="matrix(12,0,0,12,732.8,287.8)" />
<use xlink:href="#f2_l" transform="matrix(12,0,0,12,743.2,287.8)" />
<use xlink:href="#f2_r" transform="matrix(12,0,0,12,749.6,287.8)" />
<use xlink:href="#f2_d" transform="matrix(12,0,0,12,761.5,287.8)" />
</g>
</g>
<path d="M669.8,289.7H772.1" class="g1_23" />
<g clip-path="url(#c0_23)">
<g fill="#000000" >
<use xlink:href="#f3_d" transform="matrix(12,0,0,12,723.8,328.5)" />
<use xlink:href="#f3_i" transform="matrix(12,0,0,12,735,328.5)" />
<use xlink:href="#f3_q" transform="matrix(12,0,0,12,740.3,328.5)" />
<use xlink:href="#f3_4" transform="matrix(12,0,0,12,748.6,328.5)" />
<use xlink:href="#f3_7" transform="matrix(12,0,0,12,759.6,328.5)" />
<use xlink:href="#f3_1g" transform="matrix(12,0,0,12,704.6,328.5)" />
</g>
</g>
<path d="M128.6,352.5H780.5M128.6,394.1H780.5M128.6,435.5H780.5M128.6,498.4H780.5M128.9,352.2V498.8M259.1,352.2V498.8M389.4,352.2V498.8M519.6,352.2V498.8M649.9,352.2V498.8M780.1,352.2V498.8" class="g0_23" />
<g clip-path="url(#c0_23)">
<g fill="#000000" >
<use xlink:href="#f2_9" transform="matrix(12,0,0,12,709.3,370)" />
<use xlink:href="#f2_3" transform="matrix(12,0,0,12,722.3,370)" />
<use xlink:href="#f2_i" transform="matrix(12,0,0,12,726.4,370)" />
<use xlink:href="#f2_8" transform="matrix(12,0,0,12,736.5,370)" />
<use xlink:href="#f2_c" transform="matrix(12,0,0,12,749.5,370)" />
<use xlink:href="#f2_4" transform="matrix(12,0,0,12,761.4,370)" />
<use xlink:href="#f0_8" transform="matrix(11,0,0,11,658.6,390)" />
<use xlink:href="#f0_9" transform="matrix(11,0,0,11,667,390)" />
<use xlink:href="#f0_8" transform="matrix(11,0,0,11,674.5,390)" />
<use xlink:href="#f0_n" transform="matrix(11,0,0,11,682.9,390)" />
<use xlink:href="#f0_i" transform="matrix(11,0,0,11,687.6,390)" />
<use xlink:href="#f0_d" transform="matrix(11,0,0,11,694.9,390)" />
<use xlink:href="#f0_f" transform="matrix(11,0,0,11,702.4,390)" />
<use xlink:href="#f2_p" transform="matrix(12,0,0,12,585.4,370)" />
<use xlink:href="#f2_3" transform="matrix(12,0,0,12,590.5,370)" />
<use xlink:href="#f2_e" transform="matrix(12,0,0,12,594.6,370)" />
<use xlink:href="#f2_j" transform="matrix(12,0,0,12,607.1,370)" />
<use xlink:href="#f2_c" transform="matrix(12,0,0,12,619.3,370)" />
<use xlink:href="#f2_4" transform="matrix(12,0,0,12,631.2,370)" />
<use xlink:href="#f0_i" transform="matrix(11,0,0,11,528.5,390)" />
<use xlink:href="#f0_f" transform="matrix(11,0,0,11,535.8,390)" />
<use xlink:href="#f0_9" transform="matrix(11,0,0,11,541.4,390)" />
<use xlink:href="#f0_9" transform="matrix(11,0,0,11,548.9,390)" />
<use xlink:href="#f0_f" transform="matrix(11,0,0,11,556.3,390)" />
<use xlink:href="#f2_a" transform="matrix(12,0,0,12,462.5,370)" />
<use xlink:href="#f2_7" transform="matrix(12,0,0,12,474.5,370)" />
<use xlink:href="#f2_h" transform="matrix(12,0,0,12,479.5,370)" />
<use xlink:href="#f2_f" transform="matrix(12,0,0,12,491.4,370)" />
<use xlink:href="#f2_4" transform="matrix(12,0,0,12,501.1,370)" />
<use xlink:href="#f0_i" transform="matrix(11,0,0,11,398.1,390)" />
<use xlink:href="#f0_g" transform="matrix(11,0,0,11,405.6,390)" />
<use xlink:href="#f0_j" transform="matrix(11,0,0,11,414,390)" />
<use xlink:href="#f0_f" transform="matrix(11,0,0,11,422.4,390)" />
<use xlink:href="#f0_n" transform="matrix(11,0,0,11,427.9,390)" />
<use xlink:href="#f0_f" transform="matrix(11,0,0,11,432.6,390)" />
<use xlink:href="#f2_r" transform="matrix(12,0,0,12,330.3,370)" />
<use xlink:href="#f2_7" transform="matrix(12,0,0,12,342.2,370)" />
<use xlink:href="#f2_a" transform="matrix(12,0,0,12,347.2,370)" />
<use xlink:href="#f2_m" transform="matrix(12,0,0,12,359.3,370)" />
<use xlink:href="#f2_4" transform="matrix(12,0,0,12,370.7,370)" />
<use xlink:href="#f0_d" transform="matrix(11,0,0,11,268,390)" />
<use xlink:href="#f0_j" transform="matrix(11,0,0,11,275.4,390)" />
<use xlink:href="#f0_f" transform="matrix(11,0,0,11,283.7,390)" />
<use xlink:href="#f0_n" transform="matrix(11,0,0,11,289.3,390)" />
<use xlink:href="#f0_f" transform="matrix(11,0,0,11,294,390)" />
<use xlink:href="#f2_d" transform="matrix(12,0,0,12,150.8,370)" />
<use xlink:href="#f2_7" transform="matrix(12,0,0,12,161.3,370)" />
<use xlink:href="#f2_l" transform="matrix(12,0,0,12,166.4,370)" />
<use xlink:href="#f2_5" transform="matrix(12,0,0,12,172.8,370)" />
<use xlink:href="#f2_4" transform="matrix(12,0,0,12,184.2,370)" />
<use xlink:href="#f2_19" transform="matrix(12,0,0,12,194.6,370)" />
<use xlink:href="#f2_a" transform="matrix(12,0,0,12,200.7,370)" />
<use xlink:href="#f2_7" transform="matrix(12,0,0,12,212.8,370)" />
<use xlink:href="#f2_s" transform="matrix(12,0,0,12,217.8,370)" />
<use xlink:href="#f2_r" transform="matrix(12,0,0,12,228.6,370)" />
<use xlink:href="#f2_4" transform="matrix(12,0,0,12,240.6,370)" />
<use xlink:href="#f0_m" transform="matrix(11,0,0,11,137.7,390)" />
<use xlink:href="#f0_d" transform="matrix(11,0,0,11,146.1,390)" />
<use xlink:href="#f0_f" transform="matrix(11,0,0,11,153.5,390)" />
<use xlink:href="#f0_a" transform="matrix(11,0,0,11,159,390)" />
<use xlink:href="#f0_n" transform="matrix(11,0,0,11,163.7,390)" />
<use xlink:href="#f0_f" transform="matrix(11,0,0,11,168.5,390)" />
<use xlink:href="#f2_a" transform="matrix(12,0,0,12,726,411.4)" />
<use xlink:href="#f2_7" transform="matrix(12,0,0,12,738,411.4)" />
<use xlink:href="#f2_c" transform="matrix(12,0,0,12,743.1,411.4)" />
<use xlink:href="#f2_l" transform="matrix(12,0,0,12,755,411.4)" />
<use xlink:href="#f2_4" transform="matrix(12,0,0,12,761.4,411.4)" />
<use xlink:href="#f0_f" transform="matrix(11,0,0,11,658.6,431.4)" />
<use xlink:href="#f0_9" transform="matrix(11,0,0,11,664.3,431.4)" />
<use xlink:href="#f0_i" transform="matrix(11,0,0,11,671.7,431.4)" />
<use xlink:href="#f0_b" transform="matrix(11,0,0,11,679.2,431.4)" />
<use xlink:href="#f0_o" transform="matrix(11,0,0,11,687.6,431.4)" />
<use xlink:href="#f0_b" transform="matrix(11,0,0,11,696,431.4)" />
<use xlink:href="#f0_i" transform="matrix(11,0,0,11,704.2,431.4)" />
<use xlink:href="#f0_9" transform="matrix(11,0,0,11,711.7,431.4)" />
<use xlink:href="#f0_f" transform="matrix(11,0,0,11,719.2,431.4)" />
<use xlink:href="#f2_9" transform="matrix(12,0,0,12,580.7,411.4)" />
<use xlink:href="#f2_3" transform="matrix(12,0,0,12,593.7,411.4)" />
<use xlink:href="#f2_r" transform="matrix(12,0,0,12,597.8,411.4)" />
<use xlink:href="#f2_f" transform="matrix(12,0,0,12,609.7,411.4)" />
<use xlink:href="#f2_c" transform="matrix(12,0,0,12,619.3,411.4)" />
<use xlink:href="#f2_4" transform="matrix(12,0,0,12,631.3,411.4)" />
<use xlink:href="#f0_o" transform="matrix(11,0,0,11,528.5,431.4)" />
<use xlink:href="#f0_9" transform="matrix(11,0,0,11,536.9,431.4)" />
<use xlink:href="#f0_u" transform="matrix(11,0,0,11,544.3,431.4)" />
<use xlink:href="#f0_d" transform="matrix(11,0,0,11,552.6,431.4)" />
<use xlink:href="#f0_f" transform="matrix(11,0,0,11,560,431.4)" />
<use xlink:href="#f2_8" transform="matrix(12,0,0,12,451.6,411.4)" />
<use xlink:href="#f2_3" transform="matrix(12,0,0,12,464.6,411.4)" />
<use xlink:href="#f2_4" transform="matrix(12,0,0,12,468.7,411.4)" />
<use xlink:href="#f2_i" transform="matrix(12,0,0,12,479.1,411.4)" />
<use xlink:href="#f2_c" transform="matrix(12,0,0,12,489.2,411.4)" />
<use xlink:href="#f2_4" transform="matrix(12,0,0,12,501.1,411.4)" />
<use xlink:href="#f0_9" transform="matrix(11,0,0,11,398.1,431.4)" />
<use xlink:href="#f0_o" transform="matrix(11,0,0,11,405.6,431.4)" />
<use xlink:href="#f0_i" transform="matrix(11,0,0,11,414,431.4)" />
<use xlink:href="#f0_9" transform="matrix(11,0,0,11,421.5,431.4)" />
<use xlink:href="#f0_o" transform="matrix(11,0,0,11,428.9,431.4)" />
<use xlink:href="#f0_8" transform="matrix(11,0,0,11,437.3,431.4)" />
<use xlink:href="#f0_9" transform="matrix(11,0,0,11,445.7,431.4)" />
<use xlink:href="#f0_f" transform="matrix(11,0,0,11,453.1,431.4)" />
<use xlink:href="#f2_l" transform="matrix(12,0,0,12,341.9,411.4)" />
<use xlink:href="#f2_3" transform="matrix(12,0,0,12,348.3,411.4)" />
<use xlink:href="#f2_l" transform="matrix(12,0,0,12,352.4,411.4)" />
<use xlink:href="#f2_c" transform="matrix(12,0,0,12,358.8,411.4)" />
<use xlink:href="#f2_4" transform="matrix(12,0,0,12,370.7,411.4)" />
<use xlink:href="#f0_c" transform="matrix(11,0,0,11,268,431.4)" />
<use xlink:href="#f0_b" transform="matrix(11,0,0,11,281,431.4)" />
<use xlink:href="#f0_e" transform="matrix(11,0,0,11,289.4,431.4)" />
<use xlink:href="#f0_9" transform="matrix(11,0,0,11,297.8,431.4)" />
<use xlink:href="#f0_f" transform="matrix(11,0,0,11,305.2,431.4)" />
<use xlink:href="#f2_r" transform="matrix(12,0,0,12,202.3,411.4)" />
<use xlink:href="#f2_3" transform="matrix(12,0,0,12,214.2,411.4)" />
<use xlink:href="#f2_b" transform="matrix(12,0,0,12,218.3,411.4)" />
<use xlink:href="#f2_c" transform="matrix(12,0,0,12,228.7,411.4)" />
<use xlink:href="#f2_4" transform="matrix(12,0,0,12,240.6,411.4)" />
<use xlink:href="#f0_b" transform="matrix(11,0,0,11,137.7,431.4)" />
<use xlink:href="#f0_k" transform="matrix(11,0,0,11,146.1,431.4)" />
<use xlink:href="#f0_9" transform="matrix(11,0,0,11,150.8,431.4)" />
<use xlink:href="#f0_f" transform="matrix(11,0,0,11,158.1,431.4)" />
<use xlink:href="#f2_j" transform="matrix(12,0,0,12,726.8,453)" />
<use xlink:href="#f2_k" transform="matrix(12,0,0,12,739,453)" />
<use xlink:href="#f2_d" transform="matrix(12,0,0,12,750.9,453)" />
<use xlink:href="#f2_4" transform="matrix(12,0,0,12,761.4,453)" />
<use xlink:href="#f0_9" transform="matrix(11,0,0,11,658.6,473)" />
<use xlink:href="#f0_17" transform="matrix(11,0,0,11,666.1,473)" />
<use xlink:href="#f0_m" transform="matrix(11,0,0,11,674.5,473)" />
<use xlink:href="#f0_f" transform="matrix(11,0,0,11,682.9,473)" />
<use xlink:href="#f0_9" transform="matrix(11,0,0,11,688.5,473)" />
<use xlink:href="#f0_h" transform="matrix(11,0,0,11,695.8,473)" />
<use xlink:href="#f0_d" transform="matrix(11,0,0,11,702.4,473)" />
<use xlink:href="#f0_f" transform="matrix(11,0,0,11,709.9,473)" />
<use xlink:href="#f2_19" transform="matrix(12,0,0,12,586.7,453)" />
<use xlink:href="#f2_k" transform="matrix(12,0,0,12,592.8,453)" />
<use xlink:href="#f2_3" transform="matrix(12,0,0,12,604.7,453)" />
<use xlink:href="#f2_d" transform="matrix(12,0,0,12,608.8,453)" />
<use xlink:href="#f2_c" transform="matrix(12,0,0,12,619.3,453)" />
<use xlink:href="#f2_4" transform="matrix(12,0,0,12,631.2,453)" />
<use xlink:href="#f2_4" transform="matrix(12,0,0,12,575.4,474.4)" />
<use xlink:href="#f2_f" transform="matrix(12,0,0,12,585.8,474.4)" />
<use xlink:href="#f2_a" transform="matrix(12,0,0,12,595.4,474.4)" />
<use xlink:href="#f2_h" transform="matrix(12,0,0,12,607.4,474.4)" />
<use xlink:href="#f2_c" transform="matrix(12,0,0,12,619.3,474.4)" />
<use xlink:href="#f2_4" transform="matrix(12,0,0,12,631.2,474.4)" />
<use xlink:href="#f0_c" transform="matrix(11,0,0,11,528.5,494.4)" />
<use xlink:href="#f0_n" transform="matrix(11,0,0,11,541.4,494.4)" />
<use xlink:href="#f0_f" transform="matrix(11,0,0,11,546.2,494.4)" />
<use xlink:href="#f0_d" transform="matrix(11,0,0,11,551.7,494.4)" />
<use xlink:href="#f0_f" transform="matrix(11,0,0,11,559.1,494.4)" />
<use xlink:href="#f2_2" transform="matrix(12,0,0,12,455,453)" />
<use xlink:href="#f2_3" transform="matrix(12,0,0,12,464.7,453)" />
<use xlink:href="#f2_b" transform="matrix(12,0,0,12,468.7,453)" />
<use xlink:href="#f2_i" transform="matrix(12,0,0,12,479.1,453)" />
<use xlink:href="#f2_c" transform="matrix(12,0,0,12,489.2,453)" />
<use xlink:href="#f2_4" transform="matrix(12,0,0,12,501.1,453)" />
<use xlink:href="#f0_u" transform="matrix(11,0,0,11,398.1,473)" />
<use xlink:href="#f0_g" transform="matrix(11,0,0,11,406.5,473)" />
<use xlink:href="#f0_n" transform="matrix(11,0,0,11,414.9,473)" />
<use xlink:href="#f0_d" transform="matrix(11,0,0,11,419.7,473)" />
<use xlink:href="#f0_f" transform="matrix(11,0,0,11,427,473)" />
<use xlink:href="#f2_b" transform="matrix(12,0,0,12,335,453)" />
<use xlink:href="#f2_7" transform="matrix(12,0,0,12,345.4,453)" />
<use xlink:href="#f2_9" transform="matrix(12,0,0,12,350.4,453)" />
<use xlink:href="#f2_q" transform="matrix(12,0,0,12,363.4,453)" />
<use xlink:href="#f2_4" transform="matrix(12,0,0,12,370.8,453)" />
<use xlink:href="#f0_i" transform="matrix(11,0,0,11,268,473)" />
<use xlink:href="#f0_d" transform="matrix(11,0,0,11,275.3,473)" />
<use xlink:href="#f0_9" transform="matrix(11,0,0,11,282.8,473)" />
<use xlink:href="#f0_f" transform="matrix(11,0,0,11,290.2,473)" />
<use xlink:href="#f2_r" transform="matrix(12,0,0,12,202.7,453)" />
<use xlink:href="#f2_7" transform="matrix(12,0,0,12,214.7,453)" />
<use xlink:href="#f2_b" transform="matrix(12,0,0,12,219.7,453)" />
<use xlink:href="#f2_d" transform="matrix(12,0,0,12,230.1,453)" />
<use xlink:href="#f2_4" transform="matrix(12,0,0,12,240.6,453)" />
<use xlink:href="#f0_t" transform="matrix(11,0,0,11,137.7,473)" />
<use xlink:href="#f0_g" transform="matrix(11,0,0,11,146.1,473)" />
<use xlink:href="#f0_n" transform="matrix(11,0,0,11,154.5,473)" />
<use xlink:href="#f0_f" transform="matrix(11,0,0,11,159.2,473)" />
</g>
<g fill="#0000FF" >
<use xlink:href="#f2_8" transform="matrix(12,0,0,12,669.9,535.2)" />
<use xlink:href="#f2_b" transform="matrix(12,0,0,12,682.9,535.2)" />
<use xlink:href="#f2_m" transform="matrix(12,0,0,12,693.1,535.2)" />
<use xlink:href="#f2_4" transform="matrix(12,0,0,12,704.6,535.2)" />
<use xlink:href="#f2_c" transform="matrix(12,0,0,12,720.9,535.2)" />
<use xlink:href="#f2_b" transform="matrix(12,0,0,12,732.8,535.2)" />
<use xlink:href="#f2_l" transform="matrix(12,0,0,12,743.2,535.2)" />
<use xlink:href="#f2_r" transform="matrix(12,0,0,12,749.6,535.2)" />
<use xlink:href="#f2_d" transform="matrix(12,0,0,12,761.5,535.2)" />
</g>
</g>
<path d="M669.8,537H772.1" class="g1_23" />
<g clip-path="url(#c0_23)">
<g fill="#000000" >
<use xlink:href="#f2_16" transform="matrix(11,0,0,11,137.5,1208.9)" />
<use xlink:href="#f2_17" transform="matrix(11,0,0,11,148.2,1208.9)" />
</g>
</g>
<defs>
<path d="M360,-14L72,649L0,668v33H327V668L216,648L420,164L615,649L504,668v33H764V668L697,652L416,-14Z" 
id="f0_e"
transform="scale(0.001,-0.001)" />

<path d="M377,45c0,0,99,0,147,73c0,0,47,73,47,237c0,0,0,161,-47,233c0,0,-47,72,-147,72c0,0,-97,0,-141,-69c0,0,-44,-69,-44,-236c0,0,0,-169,45,-240c0,0,44,-70,140,-70Zm0,-59c0,0,-158,0,-238,94c0,0,-81,95,-81,274c0,0,0,178,81,272c0,0,80,94,244,94c0,0,160,0,241,-92c0,0,82,-92,82,-274c0,0,0,-368,-329,-368Z" 
id="f0_b"
transform="scale(0.001,-0.001)" />

<path d="M31,0V33L150,52v956L31,1026v34H274V52L394,33V0Z" 
id="f0_k"
transform="scale(0.001,-0.001)" />

<path d="M495,413c0,0,0,133,-34,190c0,0,-34,57,-105,57c0,0,-78,0,-119,-63c0,0,-42,-62,-42,-184ZM374,-14c0,0,-163,0,-239,87c0,0,-75,88,-75,283c0,0,0,183,77,273c0,0,76,91,219,91c0,0,269,0,269,-306V353H194V340c0,0,0,-103,23,-160c0,0,22,-57,70,-87c0,0,47,-29,124,-29c0,0,40,0,96,6c0,0,55,7,91,15V43C598,43,562,20,500,3c0,0,-61,-17,-126,-17Z" 
id="f0_9"
transform="scale(0.001,-0.001)" />

<path d="M31,0V33l88,19V649L31,668v33H235l7,-87c0,0,44,37,121,71c0,0,76,35,121,35h11V530H463l-43,82c0,0,-37,0,-88,-10c0,0,-52,-10,-89,-26V52L363,33V0Z" 
id="f0_f"
transform="scale(0.001,-0.001)" />

<path d="M359,-270c0,0,124,0,192,46c0,0,67,47,67,129c0,0,0,43,-26,67c0,0,-26,24,-79,24H242c0,0,-32,-27,-51,-69c0,0,-20,-41,-20,-77c0,0,0,-64,46,-92c0,0,46,-28,142,-28Zm11,561c0,0,81,0,115,47c0,0,34,47,34,141c0,0,0,100,-35,142c0,0,-35,42,-113,42c0,0,-78,0,-114,-43c0,0,-37,-42,-37,-141c0,0,0,-98,36,-143c0,0,36,-45,114,-45ZM359,-329c0,0,-143,0,-218,44c0,0,-75,43,-75,125c0,0,0,39,27,78c0,0,26,38,98,89c0,0,-43,14,-72,48c0,0,-29,35,-29,74L208,262c0,0,-118,55,-118,217c0,0,0,115,73,178c0,0,73,63,211,63c0,0,28,0,71,-6c0,0,44,-6,67,-13l165,83l26,-32L599,644c0,0,50,-56,50,-165c0,0,0,-120,-72,-182c0,0,-73,-62,-208,-62c0,0,-62,0,-114,11L208,148c0,0,2,-13,29,-24c0,0,27,-12,67,-12H512c0,0,113,0,168,-49c0,0,55,-49,55,-134c0,0,0,-79,-44,-137c0,0,-43,-58,-128,-90c0,0,-84,-31,-204,-31Z" 
id="f0_u"
transform="scale(0.001,-0.001)" />

<path d="M278,-14c0,0,-52,0,-115,11c0,0,-63,10,-99,23V193H98L134,95c0,0,56,-50,146,-50c0,0,144,0,144,123c0,0,0,91,-114,130l-66,21c0,0,-75,25,-110,50c0,0,-34,26,-53,63c0,0,-18,36,-18,89c0,0,0,92,63,145c0,0,63,54,170,54c0,0,77,0,193,-23V544H454l-32,81c0,0,-39,35,-124,35c0,0,-61,0,-92,-30c0,0,-32,-30,-32,-80c0,0,0,-43,29,-72c0,0,28,-29,86,-48c0,0,110,-38,144,-55c0,0,33,-17,57,-42c0,0,23,-25,36,-57c0,0,13,-32,13,-79c0,0,0,-104,-66,-158c0,0,-66,-53,-195,-53Z" 
id="f0_h"
transform="scale(0.001,-0.001)" />

<path d="M284,67c0,0,51,0,88,12c0,0,37,12,74,30V358l-98,-3c0,0,-100,-4,-135,-39c0,0,-35,-35,-35,-117c0,0,0,-132,106,-132ZM233,-14c0,0,-179,0,-179,208c0,0,0,70,27,116c0,0,27,46,87,70c0,0,60,24,173,27l105,3V519c0,0,0,72,-26,107c0,0,-27,34,-82,34c0,0,-75,0,-137,-35L176,538H134V691c0,0,121,26,213,26c0,0,115,0,169,-47c0,0,54,-47,54,-144V52L657,33V0H465L451,70c0,0,-85,-84,-218,-84Z" 
id="f0_d"
transform="scale(0.001,-0.001)" />

<path d="M249,-14c0,0,-71,0,-107,42c0,0,-35,42,-35,119V639H15v33l93,29l76,159h47V701H391V639H231V161c0,0,0,-48,22,-73c0,0,22,-24,57,-24c0,0,44,0,106,12V26C416,26,389,8,340,-2c0,0,-49,-12,-91,-12Z" 
id="f0_a"
transform="scale(0.001,-0.001)" />

<path d="M439,0V33l93,19V500c0,0,0,62,-30,97c0,0,-31,36,-94,36c0,0,-67,0,-165,-22V52L338,33V0H35V33l84,19V649L35,668v33H235l7,-57c0,0,57,33,122,54c0,0,65,22,108,22c0,0,91,0,137,-53c0,0,47,-53,47,-154V52L741,33V0Z" 
id="f0_o"
transform="scale(0.001,-0.001)" />

<path d="M41,0V49l91,18V634L41,652v49H336l8,-145c0,0,80,89,144,128c0,0,64,40,117,40h40V468H604l-45,94c0,0,-47,0,-106,-21c0,0,-60,-20,-105,-48V67L460,49V0Z" 
id="f1_u"
transform="scale(0.001,-0.001)" />

<path d="M434,423c0,0,0,101,-7,142c0,0,-6,40,-22,60c0,0,-16,19,-45,19c0,0,-44,0,-66,-48c0,0,-22,-49,-22,-173ZM389,-14c0,0,-172,0,-254,89c0,0,-83,90,-83,279c0,0,0,184,79,274c0,0,79,91,238,91c0,0,142,0,206,-76c0,0,64,-76,64,-237V345H271V333c0,0,0,-111,18,-158c0,0,18,-47,58,-72c0,0,40,-25,110,-25c0,0,66,0,166,22V42C623,42,582,18,517,1c0,0,-66,-15,-128,-15Z" 
id="f1_t"
transform="scale(0.001,-0.001)" />

<path d="M342,-14L49,634L0,652v49H359V652L275,632L455,233L617,634l-82,18v49H764V652L713,637L433,-14Z" 
id="f1_v"
transform="scale(0.001,-0.001)" />

<path d="M379,60c0,0,59,0,84,64c0,0,24,65,24,231c0,0,0,164,-24,227c0,0,-24,63,-84,63c0,0,-57,0,-80,-60c0,0,-22,-61,-22,-230c0,0,0,-173,23,-234c0,0,22,-61,79,-61Zm-2,-74c0,0,-161,0,-240,91c0,0,-79,91,-79,277c0,0,0,186,80,276c0,0,81,90,245,90c0,0,167,0,245,-93c0,0,78,-93,78,-273c0,0,0,-188,-81,-278c0,0,-81,-90,-248,-90Z" 
id="f1_6"
transform="scale(0.001,-0.001)" />

<path d="M30,0V49l76,18V992l-72,18v50H322V67L398,49V0Z" 
id="f1_e"
transform="scale(0.001,-0.001)" />

<path d="M399,-14c0,0,-341,0,-341,370c0,0,0,175,87,269c0,0,87,95,249,95c0,0,101,0,220,-23V501H573L541,625c0,0,-62,35,-149,35c0,0,-200,0,-200,-304c0,0,0,-158,61,-225c0,0,61,-67,189,-67c0,0,109,0,189,24V43C631,43,595,16,530,1c0,0,-64,-15,-131,-15Z" 
id="f0_i"
transform="scale(0.001,-0.001)" />

<path d="M32,0V33L151,52V649L52,668v33H275V52L395,33V0ZM201,850c0,0,-32,0,-56,24c0,0,-24,24,-24,56c0,0,0,34,24,58c0,0,24,24,56,24c0,0,34,0,58,-24c0,0,24,-24,24,-58c0,0,0,-32,-24,-56c0,0,-24,-24,-58,-24Z" 
id="f0_n"
transform="scale(0.001,-0.001)" />

<path d="M289,-14c0,0,-179,0,-179,205V649L20,668v33H233V200c0,0,0,-128,120,-128c0,0,92,0,173,23V649L420,668v33H649V52L738,33V0H533l-6,57C527,57,474,28,405,7c0,0,-69,-21,-116,-21Z" 
id="f0_g"
transform="scale(0.001,-0.001)" />

<path d="M377,44c0,0,99,0,147,73c0,0,47,73,47,237c0,0,0,161,-47,234c0,0,-47,72,-147,72c0,0,-97,0,-141,-69c0,0,-44,-70,-44,-237c0,0,0,-169,45,-239c0,0,44,-71,140,-71Zm0,-58c0,0,-158,0,-238,94c0,0,-81,95,-81,274c0,0,0,178,81,272c0,0,80,94,244,94c0,0,160,0,241,-92c0,0,82,-92,82,-274c0,0,0,-368,-329,-368ZM301,835v24l147,203H606v-27L342,835Z" 
id="f0_15"
transform="scale(0.001,-0.001)" />

<path d="M327,-14c0,0,-101,0,-156,45c0,0,-55,45,-55,131V624H25v48l108,29l87,159H332V701H480V624H332V176c0,0,0,-49,20,-73c0,0,20,-25,53,-25c0,0,40,0,97,12V26c0,0,-22,-15,-76,-27c0,0,-55,-13,-99,-13Z" 
id="f1_s"
transform="scale(0.001,-0.001)" />

<path d="M34,0V49l76,18V634L38,652v49H325V67L402,49V0ZM217,831c0,0,-48,0,-81,33c0,0,-34,33,-34,82c0,0,0,48,34,81c0,0,34,33,81,33c0,0,48,0,81,-33c0,0,33,-33,33,-81c0,0,0,-47,-33,-81c0,0,-32,-34,-81,-34Z" 
id="f1_7"
transform="scale(0.001,-0.001)" />

<path d="M424,64c0,0,74,0,109,71c0,0,36,72,36,236c0,0,0,137,-34,201c0,0,-34,65,-111,65c0,0,-29,0,-62,-7c0,0,-34,-6,-55,-19V76c0,0,47,-12,117,-12Zm21,-78c0,0,-121,0,-354,50V994l-72,18v48H307V802c0,0,0,-69,-8,-141c0,0,30,25,86,42c0,0,57,17,110,17c0,0,153,0,223,-84c0,0,70,-83,70,-266c0,0,0,-180,-90,-283C698,87,608,-14,445,-14Z" 
id="f1_1v"
transform="scale(0.001,-0.001)" />

<path d="M383,64c0,0,85,0,152,28V645c0,0,-67,13,-152,13c0,0,-194,0,-194,-314c0,0,0,-141,48,-211c0,0,48,-69,146,-69ZM342,-14c0,0,-287,0,-287,358c0,0,0,184,82,280c0,0,81,96,239,96c0,0,81,0,163,-18c0,0,-4,25,-4,124v182l-118,18v34H659V52L745,33V0H548l-9,52c0,0,-84,-66,-197,-66Z" 
id="f0_8"
transform="scale(0.001,-0.001)" />

<path d="M431,0V33L535,52V499c0,0,0,62,-32,96c0,0,-32,33,-95,33c0,0,-66,0,-163,-22V52L350,33V0H32V33l89,19V649L32,668v33H237l6,-57c0,0,56,32,119,54c0,0,62,22,110,22c0,0,52,0,95,-20c0,0,44,-19,66,-62c0,0,57,32,134,57c0,0,77,25,128,25c0,0,179,0,179,-207V52l90,-19V0H846V33L950,52V499c0,0,0,129,-119,129c0,0,-19,0,-45,-3c0,0,-26,-3,-52,-7c0,0,-25,-4,-49,-8c0,0,-23,-5,-39,-8c0,0,13,-41,13,-89V52L764,33V0Z" 
id="f0_c"
transform="scale(0.001,-0.001)" />

<path d="M64,-325c0,0,-46,0,-107,14v148H-8l19,-81c0,0,25,-21,62,-21c0,0,44,0,67,47c0,0,22,47,22,152V649L57,668v33H286V-28c0,0,0,-146,-57,-221c0,0,-56,-76,-165,-76ZM213,850c0,0,-34,0,-58,24c0,0,-24,24,-24,56c0,0,0,34,24,58c0,0,24,24,58,24c0,0,32,0,56,-24c0,0,24,-24,24,-58c0,0,0,-32,-24,-56c0,0,-24,-24,-56,-24Z" 
id="f0_1d"
transform="scale(0.001,-0.001)" />

<path d="M345,75c0,0,50,0,110,26V351l-63,-2c0,0,-72,-3,-100,-38c0,0,-28,-35,-28,-113c0,0,0,-63,22,-93c0,0,23,-30,59,-30ZM266,-14c0,0,-217,0,-217,208c0,0,0,79,32,126c0,0,32,48,93,71c0,0,60,22,190,25l91,2V521c0,0,0,126,-104,126c0,0,-62,0,-140,-39L183,521H134V691c0,0,112,17,165,21c0,0,53,5,108,5c0,0,264,0,264,-194V67L741,49V0H483L466,54C466,54,408,14,361,0c0,0,-47,-14,-95,-14Z" 
id="f1_3"
transform="scale(0.001,-0.001)" />

<path d="M438,65c0,0,131,0,131,293c0,0,0,279,-130,279c0,0,-69,0,-127,-29V80c0,0,60,-15,126,-15ZM20,-325v50l76,18V634L19,652v49H304l1,-36c0,0,80,55,194,55c0,0,146,0,218,-86c0,0,71,-86,71,-271c0,0,0,-183,-83,-280c0,0,-83,-97,-238,-97c0,0,-79,0,-160,19c0,0,5,-48,5,-109V-257l103,-18v-50Z" 
id="f1_b"
transform="scale(0.001,-0.001)" />

<path d="M41,0V34L426,641H261c0,0,-42,0,-80,-7c0,0,-39,-7,-54,-19L104,515H69V701H586V665L201,60H407c0,0,42,0,89,10c0,0,47,10,66,25l39,147h35L617,0Z" 
id="f0_13"
transform="scale(0.001,-0.001)" />

<path d="M287,-18c0,0,-194,0,-194,206V634L23,652v49H309V217c0,0,0,-63,26,-98c0,0,27,-35,76,-35c0,0,57,0,113,25V634l-64,18v49H740V67L809,49V0H536L526,61L475,35c0,0,-104,-53,-188,-53Z" 
id="f1_15"
transform="scale(0.001,-0.001)" />

<path d="M284,67c0,0,51,0,88,12c0,0,37,11,74,29V357l-98,-3c0,0,-100,-3,-135,-38c0,0,-35,-36,-35,-118c0,0,0,-131,106,-131ZM233,-14c0,0,-179,0,-179,208c0,0,0,70,27,116c0,0,27,46,87,70c0,0,60,24,173,27l105,3V519c0,0,0,73,-26,107c0,0,-27,34,-82,34c0,0,-75,0,-137,-35L176,538H134V691c0,0,121,26,213,26c0,0,115,0,169,-47c0,0,54,-47,54,-144V52L657,34V0H465L451,70c0,0,-85,-84,-218,-84Zm22,849v24l146,203H560v-27L296,835Z" 
id="f0_1g"
transform="scale(0.001,-0.001)" />

<path d="M416,68c0,0,60,0,124,32V628c0,0,-58,15,-118,15c0,0,-67,0,-104,-73c0,0,-38,-73,-38,-216c0,0,0,-139,36,-212c0,0,35,-74,100,-74ZM369,-14c0,0,-155,0,-231,88c0,0,-76,90,-76,274c0,0,0,182,82,277c0,0,81,95,236,95c0,0,82,0,165,-20c0,0,-5,24,-5,115V992l-72,18v50H756V67L833,49V0H562L547,40C547,40,505,13,483,4c0,0,-23,-7,-51,-12c0,0,-28,-6,-63,-6Z" 
id="f1_r"
transform="scale(0.001,-0.001)" />

<path d="M41,0V49l69,18V634L41,652v49H313l11,-61l50,26c0,0,105,54,188,54c0,0,125,0,167,-91c0,0,153,91,258,91c0,0,189,0,189,-207V67l71,-17V0H898V50l63,17V484c0,0,0,63,-24,98c0,0,-25,35,-74,35c0,0,-55,0,-119,-31c0,0,7,-32,7,-73V67L821,50V0H473V50l63,17V484c0,0,0,63,-25,98c0,0,-24,35,-73,35c0,0,-49,0,-113,-29V67L389,49V0Z" 
id="f1_w"
transform="scale(0.001,-0.001)" />

<path d="M41,0V49l69,18V634L41,652v49H313l11,-61l50,26c0,0,105,54,188,54c0,0,194,0,194,-207V67L827,49V0H478V49l63,18V484c0,0,0,63,-27,98c0,0,-26,35,-75,35c0,0,-57,0,-114,-25V67L389,49V0Z" 
id="f1_8"
transform="scale(0.001,-0.001)" />

<path d="M442,0V33l93,19V504c0,0,0,129,-124,129c0,0,-70,0,-168,-22V52L338,33V0H31V33l88,19v956L15,1026v34H243V756c0,0,0,-77,-5,-112c0,0,54,31,122,53c0,0,68,23,115,23c0,0,91,0,137,-53c0,0,47,-53,47,-154V52L744,33V0Z" 
id="f0_t"
transform="scale(0.001,-0.001)" />

<path d="M382,45c0,0,188,0,188,314c0,0,0,143,-47,213c0,0,-46,69,-141,69c0,0,-87,0,-146,-24V58c0,0,67,-13,146,-13ZM25,-325v35l88,18V649L34,668v33H231l1,-41c0,0,31,27,84,43c0,0,53,17,107,17c0,0,134,0,208,-94c0,0,73,-93,73,-267c0,0,0,-178,-80,-276c0,0,-80,-97,-232,-97c0,0,-84,0,-160,16c0,0,4,-53,4,-84V-272l123,-18v-35Z" 
id="f0_m"
transform="scale(0.001,-0.001)" />

<path d="M276,-14c0,0,-57,0,-125,13C151,-1,83,10,48,23V214H97l28,-98c0,0,26,-26,69,-44c0,0,42,-17,86,-17c0,0,65,0,97,28c0,0,32,28,32,71c0,0,0,41,-31,65c0,0,-30,25,-133,57c0,0,-108,34,-154,92c0,0,-45,58,-45,143c0,0,0,95,71,152c0,0,71,57,183,57c0,0,77,0,207,-22V518H457l-24,82c0,0,-21,22,-60,35c0,0,-40,14,-75,14c0,0,-53,0,-79,-22c0,0,-26,-22,-26,-59c0,0,0,-40,32,-65c0,0,32,-26,132,-55c0,0,109,-34,155,-89c0,0,45,-55,45,-137c0,0,0,-117,-72,-177c0,0,-72,-59,-209,-59Z" 
id="f1_a"
transform="scale(0.001,-0.001)" />

<path d="M360,-256c0,0,108,0,167,35c0,0,59,35,59,98c0,0,0,70,-95,70H254c0,0,-65,-47,-65,-108c0,0,0,-47,46,-71c0,0,45,-24,125,-24Zm9,561c0,0,55,0,79,43c0,0,25,43,25,129c0,0,0,87,-24,127c0,0,-25,41,-80,41c0,0,-52,0,-75,-41c0,0,-24,-40,-24,-127c0,0,0,-86,23,-129c0,0,23,-43,76,-43Zm-9,-641c0,0,-153,0,-236,43c0,0,-84,44,-84,120c0,0,0,33,28,65c0,0,27,31,105,76c0,0,-44,17,-75,59c0,0,-31,43,-31,90L192,258c0,0,-133,56,-133,219c0,0,0,116,81,180c0,0,82,63,233,63c0,0,32,0,82,-6c0,0,51,-6,74,-13l168,83l26,-32L638,631c0,0,46,-57,46,-154c0,0,0,-119,-80,-182c0,0,-80,-64,-234,-64c0,0,-59,0,-114,9L238,183c0,0,1,-22,28,-41c0,0,26,-19,64,-19H493c0,0,256,0,256,-196c0,0,0,-81,-44,-139c0,0,-45,-59,-131,-92c0,0,-86,-32,-214,-32Z" 
id="f1_1u"
transform="scale(0.001,-0.001)" />

<path d="M156,-317V454l139,56V-317ZM505,0L806,729H139V835H967V753L650,0Z" 
id="f2_8"
transform="scale(0.001,-0.001)" />

<path d="M585,0V426c0,0,0,54,-8,98c0,0,-8,44,-27,83c0,0,-19,40,-49,66c0,0,-30,26,-77,41c0,0,-47,15,-108,15H66V836H315c0,0,94,0,166,-20c0,0,71,-20,116,-54c0,0,46,-35,75,-88c0,0,28,-52,40,-112c0,0,12,-60,12,-137V0Z" 
id="f2_b"
transform="scale(0.001,-0.001)" />

<path d="M139,0V106H400c0,0,176,0,253,71c0,0,78,72,78,250c0,0,0,163,-80,233c0,0,-81,69,-250,69H278L277,564c0,0,-1,-54,26,-80c0,0,27,-25,82,-25c0,0,30,0,80,9V355c0,0,-61,-12,-111,-12c0,0,-100,0,-157,55c0,0,-58,55,-58,186V836H456c0,0,193,0,303,-109c0,0,110,-109,110,-309c0,0,0,-200,-110,-309C759,109,648,0,456,0Z" 
id="f2_m"
transform="scale(0.001,-0.001)" />

<path d="M287,0L589,729H66v386H205V836l547,-1l-2,-82L433,0Z" 
id="f2_4"
transform="scale(0.001,-0.001)" />

<path d="M154,0V454l138,56V0ZM722,0V454c0,0,0,161,-49,218c0,0,-48,57,-186,57H139V836H485c0,0,207,0,291,-93c0,0,83,-94,83,-318V0Z" 
id="f2_c"
transform="scale(0.001,-0.001)" />

<path d="M152,0V473c0,0,0,94,28,161c0,0,29,66,71,95H66V836H463V729H404c0,0,-65,0,-89,-57c0,0,-25,-58,-25,-199V0Z" 
id="f2_l"
transform="scale(0.001,-0.001)" />

<path d="M139,0V836H485c0,0,206,0,290,-90c0,0,84,-89,84,-294V0H721V473c0,0,0,147,-49,202c0,0,-48,54,-186,54H277V0Z" 
id="f2_r"
transform="scale(0.001,-0.001)" />

<path d="M66,0V107H554V452c0,0,0,56,-4,93c0,0,-4,37,-18,75c0,0,-14,38,-40,60c0,0,-26,22,-71,36c0,0,-45,13,-110,13H66V836H312c0,0,91,0,157,-17c0,0,66,-17,109,-49c0,0,44,-32,69,-84c0,0,26,-52,36,-114c0,0,10,-62,10,-147V107H817V0Z" 
id="f2_d"
transform="scale(0.001,-0.001)" />

<path d="M248,0L521,658H66v429H313V836l493,-1V716L504,0Z" 
id="f3_d"
transform="scale(0.001,-0.001)" />

<path d="M102,250V836H349V351L102,250Z" 
id="f3_i"
transform="scale(0.001,-0.001)" />

<path d="M154,-13c0,0,-38,0,-85,9V198c0,0,58,-15,103,-15c0,0,84,0,118,60c0,0,35,61,35,206c0,0,0,66,-7,105c0,0,-6,39,-24,63c0,0,-17,25,-44,33c0,0,-27,8,-73,8H66V836H225c0,0,198,0,275,-115c0,0,56,-84,65,-264c0,0,3,-55,3,-148c0,0,0,-177,71,-309L393,1c0,0,-53,130,-54,141c0,0,-28,-90,-65,-123c0,0,-38,-32,-120,-32Z" 
id="f3_q"
transform="scale(0.001,-0.001)" />

<path d="M534,0V425c0,0,0,109,-41,171c0,0,-41,62,-140,62H66V836H352c0,0,99,0,174,-20c0,0,75,-20,123,-55c0,0,48,-35,78,-87c0,0,30,-53,42,-113c0,0,12,-60,12,-136V0Z" 
id="f3_4"
transform="scale(0.001,-0.001)" />

<path d="M173,-6C173,-6,61,-6,15,9V177c0,0,73,-10,82,-10c0,0,37,0,52,30c0,0,14,29,14,116V658H18V836H516c0,0,262,0,341,-145c0,0,48,-89,48,-242V0H658V450c0,0,0,131,-37,171c0,0,-34,37,-105,37H411V313c0,0,0,-189,-67,-258C344,55,285,-6,173,-6Z" 
id="f3_7"
transform="scale(0.001,-0.001)" />

<path d="M507,561c0,0,76,0,114,49c0,0,38,49,38,146c0,0,0,97,-38,146c0,0,-38,49,-114,49c0,0,-75,0,-113,-49c0,0,-38,-49,-38,-146c0,0,0,-97,38,-146c0,0,38,-49,113,-49ZM443,-20c0,0,-78,0,-149,11c0,0,-72,10,-140,33V231c0,0,68,-33,131,-49c0,0,62,-16,123,-16c0,0,129,0,200,72c0,0,72,71,84,211c0,0,-50,-37,-108,-56c0,0,-57,-18,-124,-18c0,0,-171,0,-276,99C184,474,79,574,79,736c0,0,0,180,117,288c0,0,117,108,313,108c0,0,217,0,337,-147c0,0,119,-147,119,-415c0,0,0,-276,-139,-434C826,136,686,-20,443,-20Z" 
id="f3_1g"
transform="scale(0.001,-0.001)" />

<path d="M180,0L66,836H203L258,443c0,0,36,1,64,6c0,0,28,6,49,18c0,0,20,12,35,26c0,0,15,13,26,36c0,0,11,24,17,44c0,0,7,20,12,55c0,0,6,34,9,60c0,0,3,26,8,71c0,0,4,45,9,77H610c0,0,-13,-194,-31,-271c0,0,-31,-127,-111,-179c0,0,-71,-45,-196,-50L304,107c0,0,73,0,130,5c0,0,56,6,111,21c0,0,54,15,94,40c0,0,40,25,77,64c0,0,37,39,63,94c0,0,25,54,46,128c0,0,21,73,34,166c0,0,13,94,20,211h138c0,0,-14,-124,-29,-218c0,0,-16,-94,-39,-179c0,0,-22,-85,-50,-146c0,0,-28,-61,-68,-112c0,0,-39,-51,-87,-84C744,97,696,65,632,42C632,42,568,19,492,10C492,10,417,0,320,0Z" 
id="f2_9"
transform="scale(0.001,-0.001)" />

<path d="M102,312V836H241V369L102,312Z" 
id="f2_3"
transform="scale(0.001,-0.001)" />

<path d="M495,0V729H66V836H781V729H634V0Z" 
id="f2_i"
transform="scale(0.001,-0.001)" />

<path d="M139,-317V836H278V-317Z" 
id="f2_p"
transform="scale(0.001,-0.001)" />

<path d="M114,0l60,312c0,0,2,12,8,39c0,0,6,27,7,37c0,0,2,11,5,30c0,0,2,19,4,33c0,0,1,15,1,31c0,0,0,48,-35,146c0,0,-35,98,-98,208H228c0,0,3,-8,27,-67c0,0,25,-58,41,-117c0,0,21,53,50,90c0,0,29,37,57,57c0,0,29,21,65,32c0,0,37,11,65,14c0,0,28,3,67,3c0,0,300,0,300,-396V0H480V106H761V452c0,0,0,146,-46,215c0,0,-45,70,-118,70c0,0,-134,0,-198,-119c0,0,-36,-68,-67,-222c0,0,-2,-10,-6,-27L253,0Z" 
id="f2_e"
transform="scale(0.001,-0.001)" />

<path d="M139,0V138c0,0,0,61,8,112c0,0,7,52,19,87c0,0,11,36,30,66c0,0,19,31,35,49c0,0,17,19,41,35c0,0,25,17,41,25c0,0,17,7,40,17L141,836H303L613,388c0,0,20,10,33,18c0,0,13,8,34,28c0,0,20,20,33,44c0,0,13,25,22,66c0,0,10,41,10,92V836H882V698c0,0,0,-61,-7,-112c0,0,-6,-52,-18,-88c0,0,-12,-36,-30,-66c0,0,-19,-30,-36,-49c0,0,-17,-18,-41,-34c0,0,-24,-17,-40,-25c0,0,-17,-8,-41,-17L882,0H720L409,448c0,0,-21,-11,-34,-19c0,0,-13,-8,-34,-27c0,0,-21,-20,-34,-44c0,0,-12,-25,-22,-66c0,0,-9,-41,-9,-92V0Z" 
id="f2_j"
transform="scale(0.001,-0.001)" />

<path d="M112,-5c0,0,-39,0,-97,11V113c0,0,48,-10,77,-10c0,0,53,0,70,42c0,0,17,43,17,164V729H50V836H501c0,0,107,0,179,-25c0,0,72,-25,112,-77c0,0,40,-51,57,-118c0,0,16,-67,16,-164V0H726V454c0,0,0,55,-3,92c0,0,-4,37,-17,75c0,0,-14,38,-38,59c0,0,-24,22,-65,36c0,0,-42,13,-102,13H318V309c0,0,0,-160,-46,-237C272,72,226,-5,112,-5Z" 
id="f2_a"
transform="scale(0.001,-0.001)" />

<path d="M139,0V836H278V0Z" 
id="f2_7"
transform="scale(0.001,-0.001)" />

<path d="M522,92c0,0,247,0,247,333c0,0,0,88,-17,146c0,0,-17,58,-53,91c0,0,-35,33,-82,46c0,0,-48,14,-116,14H276V419c0,0,0,-327,246,-327Zm0,-112c0,0,-193,0,-289,109c0,0,-95,110,-95,337V836H501c0,0,213,0,309,-93c0,0,96,-94,96,-317c0,0,0,-227,-95,-337C811,89,715,-20,522,-20Z" 
id="f2_h"
transform="scale(0.001,-0.001)" />

<path d="M66,0V106H322c0,0,75,0,127,23c0,0,53,23,82,67c0,0,29,43,42,98c0,0,13,54,13,124c0,0,0,70,-13,124c0,0,-13,55,-42,98c0,0,-29,44,-82,67c0,0,-52,23,-127,23H66V836H322c0,0,87,0,157,-24c0,0,70,-24,115,-64c0,0,45,-40,74,-94c0,0,30,-55,43,-113c0,0,13,-59,13,-123c0,0,0,-64,-13,-123c0,0,-13,-58,-43,-113c0,0,-29,-54,-74,-94C594,88,549,48,479,24C479,24,409,0,322,0Z" 
id="f2_f"
transform="scale(0.001,-0.001)" />

<path d="M376,50c0,0,103,0,149,80c0,0,46,81,46,240c0,0,0,137,-47,204c0,0,-48,67,-148,67c0,0,-44,0,-87,-7c0,0,-44,-8,-63,-17V62c0,0,63,-12,150,-12Zm3,-64c0,0,-64,0,-141,14c0,0,-78,14,-136,37v971L0,1026v34H226V809c0,0,0,-40,-4,-148c0,0,74,59,188,59c0,0,143,0,219,-87c0,0,77,-87,77,-263c0,0,0,-189,-84,-287c0,0,-84,-97,-243,-97Z" 
id="f0_j"
transform="scale(0.001,-0.001)" />

<path d="M71,-141V-15L289,62L66,836H210L416,109c0,0,99,42,153,98c0,0,53,56,80,155c0,0,26,98,26,262V836H817V624c0,0,0,-88,-7,-154c0,0,-7,-67,-25,-132c0,0,-18,-66,-51,-116c0,0,-33,-51,-84,-98c0,0,-50,-48,-123,-87c0,0,-72,-39,-169,-74L71,-141Z" 
id="f2_5"
transform="scale(0.001,-0.001)" />

<path d="M0,-141L388,1114H514L127,-141Z" 
id="f2_19"
transform="scale(0.001,-0.001)" />

<path d="M66,0V106H564L66,836H228L516,413c0,0,3,2,9,6c0,0,17,13,27,21c0,0,10,8,26,27c0,0,17,20,26,40c0,0,9,21,16,54c0,0,7,34,7,75V836H764V698c0,0,0,-55,-7,-102c0,0,-7,-47,-16,-79c0,0,-10,-33,-27,-62c0,0,-18,-29,-32,-46c0,0,-14,-17,-37,-35c0,0,-22,-17,-36,-25c0,0,-13,-8,-36,-20L767,53V0Z" 
id="f2_s"
transform="scale(0.001,-0.001)" />

<path d="M522,-20c0,0,-196,0,-290,99c0,0,-94,100,-94,324V836H276V397c0,0,0,-86,16,-147c0,0,17,-60,50,-94c0,0,34,-34,77,-49c0,0,43,-15,103,-15c0,0,59,0,102,15c0,0,44,15,77,49c0,0,33,34,50,94c0,0,17,61,17,147c0,0,0,84,-8,143c0,0,-7,58,-25,105c0,0,-17,47,-51,69c0,0,-33,23,-83,23c0,0,-50,0,-119,-22V821c0,0,85,23,150,23c0,0,76,0,130,-30c0,0,53,-31,85,-90c0,0,31,-59,45,-138c0,0,13,-78,13,-183c0,0,0,-224,-93,-324c0,0,-94,-99,-290,-99Z" 
id="f2_k"
transform="scale(0.001,-0.001)" />

<path d="M13,0V34L95,46L325,350L122,649L40,668v33H357V668L264,648L399,446L554,649l-96,19v33H710V668L630,652L433,397L663,50L745,34V0H427V34l94,17L359,299L169,50L266,34V0Z" 
id="f0_17"
transform="scale(0.001,-0.001)" />

<path d="M543,-317V369c0,0,0,85,-8,143c0,0,-8,58,-27,101c0,0,-18,44,-51,69c0,0,-33,24,-80,36c0,0,-48,11,-117,11H66V836H257c0,0,125,0,205,-23c0,0,80,-23,130,-79c0,0,50,-56,70,-143c0,0,20,-86,20,-222V-317Z" 
id="f2_2"
transform="scale(0.001,-0.001)" />

<path d="M66,0V107H332V555c0,0,0,92,-37,133c0,0,-37,41,-116,41H85V836h94c0,0,153,0,223,-66c0,0,69,-66,69,-231V0Z" 
id="f2_q"
transform="scale(0.001,-0.001)" />

<path d="M111,0V127c0,0,86,89,234,238c0,0,148,150,186,193c0,0,73,81,101,138c0,0,29,56,29,110c0,0,0,89,-62,145c0,0,-62,56,-162,56c0,0,-71,0,-150,-25c0,0,-78,-24,-168,-75v153c0,0,91,37,170,55c0,0,79,19,145,19c0,0,173,0,276,-86c0,0,103,-87,103,-232c0,0,0,-68,-26,-130c0,0,-26,-61,-94,-145c0,0,-18,-22,-118,-125C575,416,475,313,293,127H818V0Z" 
id="f2_16"
transform="scale(0.001,-0.001)" />

<path d="M414,-20c0,0,-70,0,-144,13c0,0,-75,13,-154,40V179c0,0,63,-36,138,-55c0,0,74,-18,156,-18c0,0,142,0,216,55c0,0,74,56,74,163c0,0,0,98,-69,153c0,0,-69,56,-192,56H309V657H445c0,0,111,0,170,44c0,0,59,45,59,128c0,0,0,86,-61,132c0,0,-61,46,-174,46c0,0,-62,0,-133,-13c0,0,-71,-14,-156,-42v134c0,0,85,24,160,36c0,0,75,12,142,12c0,0,171,0,271,-78c0,0,100,-78,100,-211c0,0,0,-92,-53,-156c0,0,-52,-64,-150,-89c0,0,108,-23,169,-96c0,0,61,-73,61,-180c0,0,0,-165,-114,-255c0,0,-113,-89,-322,-89Z" 
id="f2_17"
transform="scale(0.001,-0.001)" />


</defs>
</svg>