<?xml version="1.0" encoding="UTF-8" standalone="no"?>
<!DOCTYPE svg PUBLIC "-//W3C//DTD SVG 1.1//EN"
"http://www.w3.org/Graphics/SVG/1.1/DTD/svg11.dtd">
<svg viewBox="0 0 909 1286" version="1.1" xmlns="http://www.w3.org/2000/svg" xmlns:xlink="http://www.w3.org/1999/xlink">
<defs>
<clipPath id="c0_18"><path d="M0,1286.2V0H909.4V1286.2Z" /></clipPath>
<style type="text/css"><![CDATA[
.g0_18{
fill: #D8D8D8;
}
.g1_18{
fill: none;
stroke: #000000;
stroke-width: 0.7638889;
stroke-linecap: butt;
stroke-linejoin: round;
}
.g2_18{
fill: none;
stroke: #0000FF;
stroke-width: 1.0694444;
stroke-linecap: butt;
stroke-linejoin: miter;
}
]]></style>
</defs>
<path fill-rule="evenodd" d="M617.5,488.8H780.3V468.7H617.5v20.1Z" class="g0_18" />
<path fill-rule="evenodd" d="M454.7,488.8H617.5V468.7H454.7v20.1Z" class="g0_18" />
<path fill-rule="evenodd" d="M291.8,488.8H454.6V468.7H291.8v20.1Z" class="g0_18" />
<path fill-rule="evenodd" d="M128.9,488.8H291.7V468.7H128.9v20.1Z" class="g0_18" />
<path fill-rule="evenodd" d="M128.9,508.8H291.7V488.9H128.9v19.9Z" class="g0_18" />
<path fill-rule="evenodd" d="M128.9,529H291.7V508.9H128.9V529Z" class="g0_18" />
<path fill-rule="evenodd" d="M128.9,549H291.7V529.1H128.9V549Z" class="g0_18" />
<path fill-rule="evenodd" d="M617.5,632H780.3V612H617.5v20Z" class="g0_18" />
<path fill-rule="evenodd" d="M454.7,632H617.5V612H454.7v20Z" class="g0_18" />
<path fill-rule="evenodd" d="M291.8,632H454.6V612H291.8v20Z" class="g0_18" />
<path fill-rule="evenodd" d="M128.9,632H291.7V612H128.9v20Z" class="g0_18" />
<path fill-rule="evenodd" d="M128.9,652.1H291.7V632H128.9v20.1Z" class="g0_18" />
<path fill-rule="evenodd" d="M128.9,672.1H291.7V652.2H128.9v19.9Z" class="g0_18" />
<path fill-rule="evenodd" d="M128.9,692.3H291.7V672.2H128.9v20.1Z" class="g0_18" />
<path fill-rule="evenodd" d="M581,796.7H780.2V774.6H581v22.1Z" class="g0_18" />
<path fill-rule="evenodd" d="M418.6,796.7H580.9V774.6H418.6v22.1Z" class="g0_18" />
<path fill-rule="evenodd" d="M202,796.7H418.5V774.6H202v22.1Z" class="g0_18" />
<path fill-rule="evenodd" d="M128.9,796.7h73V774.6h-73v22.1Z" class="g0_18" />
<path fill-rule="evenodd" d="M128.9,816.7h73v-20h-73v20Z" class="g0_18" />
<path fill-rule="evenodd" d="M128.9,836.8h73v-20h-73v20Z" class="g0_18" />
<path fill-rule="evenodd" d="M128.9,856.9h73v-20h-73v20Z" class="g0_18" />
<path fill-rule="evenodd" d="M617.5,488.8H780.3V468.7H617.5v20.1Z" class="g0_18" />
<path fill-rule="evenodd" d="M454.7,488.8H617.5V468.7H454.7v20.1Z" class="g0_18" />
<path fill-rule="evenodd" d="M291.8,488.8H454.6V468.7H291.8v20.1Z" class="g0_18" />
<path fill-rule="evenodd" d="M128.9,488.8H291.7V468.7H128.9v20.1Z" class="g0_18" />
<path fill-rule="evenodd" d="M128.9,508.8H291.7V488.9H128.9v19.9Z" class="g0_18" />
<path fill-rule="evenodd" d="M128.9,529H291.7V508.9H128.9V529Z" class="g0_18" />
<path fill-rule="evenodd" d="M128.9,549H291.7V529.1H128.9V549Z" class="g0_18" />
<path fill-rule="evenodd" d="M617.5,632H780.3V612H617.5v20Z" class="g0_18" />
<path fill-rule="evenodd" d="M454.7,632H617.5V612H454.7v20Z" class="g0_18" />
<path fill-rule="evenodd" d="M291.8,632H454.6V612H291.8v20Z" class="g0_18" />
<path fill-rule="evenodd" d="M128.9,632H291.7V612H128.9v20Z" class="g0_18" />
<path fill-rule="evenodd" d="M128.9,652.1H291.7V632H128.9v20.1Z" class="g0_18" />
<path fill-rule="evenodd" d="M128.9,672.1H291.7V652.2H128.9v19.9Z" class="g0_18" />
<path fill-rule="evenodd" d="M128.9,692.3H291.7V672.2H128.9v20.1Z" class="g0_18" />
<path fill-rule="evenodd" d="M581,796.7H780.2V774.6H581v22.1Z" class="g0_18" />
<path fill-rule="evenodd" d="M418.6,796.7H580.9V774.6H418.6v22.1Z" class="g0_18" />
<path fill-rule="evenodd" d="M202,796.7H418.5V774.6H202v22.1Z" class="g0_18" />
<path fill-rule="evenodd" d="M128.9,796.7h73V774.6h-73v22.1Z" class="g0_18" />
<path fill-rule="evenodd" d="M128.9,816.7h73v-20h-73v20Z" class="g0_18" />
<path fill-rule="evenodd" d="M128.9,836.8h73v-20h-73v20Z" class="g0_18" />
<path fill-rule="evenodd" d="M128.9,856.9h73v-20h-73v20Z" class="g0_18" />
<g clip-path="url(#c0_18)">
<g fill="#000000" >
<use xlink:href="#f0_20" transform="matrix(16,0,0,16,686.6,422.7)" />
<use xlink:href="#f0_u" transform="matrix(16,0,0,16,700.8,422.7)" />
<use xlink:href="#f0_3" transform="matrix(16,0,0,16,715.6,422.7)" />
<use xlink:href="#f0_13" transform="matrix(16,0,0,16,721.8,422.7)" />
<use xlink:href="#f0_3" transform="matrix(16,0,0,16,733.6,422.7)" />
<use xlink:href="#f0_q" transform="matrix(16,0,0,16,739.8,422.7)" />
<use xlink:href="#f0_u" transform="matrix(16,0,0,16,757.1,422.7)" />
<use xlink:href="#f0_21" transform="matrix(16,0,0,16,169.9,422.7)" />
<use xlink:href="#f0_f" transform="matrix(16,0,0,16,187.5,422.7)" />
<use xlink:href="#f0_d" transform="matrix(16,0,0,16,198.3,422.7)" />
<use xlink:href="#f0_v" transform="matrix(16,0,0,16,207.8,422.7)" />
<use xlink:href="#f0_14" transform="matrix(16,0,0,16,221.3,422.7)" />
<use xlink:href="#f0_f" transform="matrix(16,0,0,16,234.9,422.7)" />
<use xlink:href="#f0_d" transform="matrix(16,0,0,16,245.8,422.7)" />
<use xlink:href="#f0_6" transform="matrix(16,0,0,16,255.2,422.7)" />
<use xlink:href="#f0_e" transform="matrix(16,0,0,16,263.3,422.7)" />
<use xlink:href="#f0_d" transform="matrix(16,0,0,16,275.5,422.7)" />
<use xlink:href="#f1_m" transform="matrix(12,0,0,12,723.8,464.4)" />
<use xlink:href="#f1_7" transform="matrix(12,0,0,12,735,464.4)" />
<use xlink:href="#f1_b" transform="matrix(12,0,0,12,740.3,464.4)" />
<use xlink:href="#f1_4" transform="matrix(12,0,0,12,748.6,464.4)" />
<use xlink:href="#f1_l" transform="matrix(12,0,0,12,759.6,464.4)" />
<use xlink:href="#f1_x" transform="matrix(12,0,0,12,704.6,464.4)" />
</g>
</g>
<path d="M128.6,469.1H780.8M128.6,489.3H780.8m-652.2,20H780.8M128.6,529.5H780.8m-652.2,20H780.8M128.9,468.7v81.1M291.8,468.7v81.1M454.7,468.7v81.1M617.5,468.7v81.1M780.4,468.7v81.1" class="g1_18" />
<g clip-path="url(#c0_18)">
<g fill="#000000" >
<use xlink:href="#f2_c" transform="matrix(11,0,0,11,626.4,485.2)" />
<use xlink:href="#f2_9" transform="matrix(11,0,0,11,633.7,485.2)" />
<use xlink:href="#f2_i" transform="matrix(11,0,0,11,640.3,485.2)" />
<use xlink:href="#f2_h" transform="matrix(11,0,0,11,647.7,485.2)" />
<use xlink:href="#f2_j" transform="matrix(11,0,0,11,653.4,485.2)" />
<use xlink:href="#f2_v" transform="matrix(11,0,0,11,658.1,485.2)" />
<use xlink:href="#f2_j" transform="matrix(11,0,0,11,666.3,485.2)" />
<use xlink:href="#f2_h" transform="matrix(11,0,0,11,671.1,485.2)" />
<use xlink:href="#f2_h" transform="matrix(11,0,0,11,463.5,485.2)" />
<use xlink:href="#f2_c" transform="matrix(11,0,0,11,469,485.2)" />
<use xlink:href="#f2_9" transform="matrix(11,0,0,11,476.5,485.2)" />
<use xlink:href="#f2_g" transform="matrix(11,0,0,11,483,485.2)" />
<use xlink:href="#f2_f" transform="matrix(11,0,0,11,491.4,485.2)" />
<use xlink:href="#f2_e" transform="matrix(11,0,0,11,499.8,485.2)" />
<use xlink:href="#f2_8" transform="matrix(11,0,0,11,508.2,485.2)" />
<use xlink:href="#f2_c" transform="matrix(11,0,0,11,516.7,485.2)" />
<use xlink:href="#f2_h" transform="matrix(11,0,0,11,524.1,485.2)" />
<use xlink:href="#f2_v" transform="matrix(11,0,0,11,300.7,485.2)" />
<use xlink:href="#f2_o" transform="matrix(11,0,0,11,309.1,485.2)" />
<use xlink:href="#f2_9" transform="matrix(11,0,0,11,317.5,485.2)" />
<use xlink:href="#f2_i" transform="matrix(11,0,0,11,323.9,485.2)" />
<use xlink:href="#f2_b" transform="matrix(11,0,0,11,331.4,485.2)" />
<use xlink:href="#f2_h" transform="matrix(11,0,0,11,338.8,485.2)" />
<use xlink:href="#f2_c" transform="matrix(11,0,0,11,626.4,505.2)" />
<use xlink:href="#f2_9" transform="matrix(11,0,0,11,633.7,505.2)" />
<use xlink:href="#f2_i" transform="matrix(11,0,0,11,640.3,505.2)" />
<use xlink:href="#f2_h" transform="matrix(11,0,0,11,647.7,505.2)" />
<use xlink:href="#f2_j" transform="matrix(11,0,0,11,653.4,505.2)" />
<use xlink:href="#f2_v" transform="matrix(11,0,0,11,658.1,505.2)" />
<use xlink:href="#f2_c" transform="matrix(11,0,0,11,666.3,505.2)" />
<use xlink:href="#f2_x" transform="matrix(11,0,0,11,673.8,505.2)" />
<use xlink:href="#f2_h" transform="matrix(11,0,0,11,463.5,505.2)" />
<use xlink:href="#f2_c" transform="matrix(11,0,0,11,469,505.2)" />
<use xlink:href="#f2_9" transform="matrix(11,0,0,11,476.5,505.2)" />
<use xlink:href="#f2_g" transform="matrix(11,0,0,11,483,505.2)" />
<use xlink:href="#f2_f" transform="matrix(11,0,0,11,491.4,505.2)" />
<use xlink:href="#f2_e" transform="matrix(11,0,0,11,499.8,505.2)" />
<use xlink:href="#f2_8" transform="matrix(11,0,0,11,508.2,505.2)" />
<use xlink:href="#f2_c" transform="matrix(11,0,0,11,516.7,505.2)" />
<use xlink:href="#f2_x" transform="matrix(11,0,0,11,524.1,505.2)" />
<use xlink:href="#f2_v" transform="matrix(11,0,0,11,300.7,505.2)" />
<use xlink:href="#f2_o" transform="matrix(11,0,0,11,309.1,505.2)" />
<use xlink:href="#f2_9" transform="matrix(11,0,0,11,317.5,505.2)" />
<use xlink:href="#f2_i" transform="matrix(11,0,0,11,323.9,505.2)" />
<use xlink:href="#f2_b" transform="matrix(11,0,0,11,331.4,505.2)" />
<use xlink:href="#f2_x" transform="matrix(11,0,0,11,338.8,505.2)" />
<use xlink:href="#f2_2" transform="matrix(11,0,0,11,137.7,505.2)" />
<use xlink:href="#f2_3" transform="matrix(11,0,0,11,142.4,505.2)" />
<use xlink:href="#f2_c" transform="matrix(11,0,0,11,626.4,525.4)" />
<use xlink:href="#f2_9" transform="matrix(11,0,0,11,633.7,525.4)" />
<use xlink:href="#f2_i" transform="matrix(11,0,0,11,640.3,525.4)" />
<use xlink:href="#f2_h" transform="matrix(11,0,0,11,647.7,525.4)" />
<use xlink:href="#f2_j" transform="matrix(11,0,0,11,653.4,525.4)" />
<use xlink:href="#f2_v" transform="matrix(11,0,0,11,658.1,525.4)" />
<use xlink:href="#f2_b" transform="matrix(11,0,0,11,666.3,525.4)" />
<use xlink:href="#f2_x" transform="matrix(11,0,0,11,673.8,525.4)" />
<use xlink:href="#f2_h" transform="matrix(11,0,0,11,463.5,525.4)" />
<use xlink:href="#f2_c" transform="matrix(11,0,0,11,469,525.4)" />
<use xlink:href="#f2_9" transform="matrix(11,0,0,11,476.5,525.4)" />
<use xlink:href="#f2_g" transform="matrix(11,0,0,11,483,525.4)" />
<use xlink:href="#f2_f" transform="matrix(11,0,0,11,491.4,525.4)" />
<use xlink:href="#f2_e" transform="matrix(11,0,0,11,499.8,525.4)" />
<use xlink:href="#f2_8" transform="matrix(11,0,0,11,508.2,525.4)" />
<use xlink:href="#f2_b" transform="matrix(11,0,0,11,516.7,525.4)" />
<use xlink:href="#f2_x" transform="matrix(11,0,0,11,524.1,525.4)" />
<use xlink:href="#f2_v" transform="matrix(11,0,0,11,300.7,525.4)" />
<use xlink:href="#f2_o" transform="matrix(11,0,0,11,309.1,525.4)" />
<use xlink:href="#f2_9" transform="matrix(11,0,0,11,317.5,525.4)" />
<use xlink:href="#f0_1r" transform="matrix(11,0,0,11,324,525.4)" />
<use xlink:href="#f0_14" transform="matrix(11,0,0,11,333.4,525.4)" />
<use xlink:href="#f0_f" transform="matrix(11,0,0,11,342.7,525.4)" />
<use xlink:href="#f0_l" transform="matrix(11,0,0,11,350.2,525.4)" />
<use xlink:href="#f2_o" transform="matrix(11,0,0,11,137.7,525.4)" />
<use xlink:href="#f2_9" transform="matrix(11,0,0,11,146.1,525.4)" />
<use xlink:href="#f2_2" transform="matrix(11,0,0,11,152.6,525.4)" />
<use xlink:href="#f2_c" transform="matrix(11,0,0,11,157.3,525.4)" />
<use xlink:href="#f2_8" transform="matrix(11,0,0,11,164.8,525.4)" />
<use xlink:href="#f2_c" transform="matrix(11,0,0,11,626.4,545.4)" />
<use xlink:href="#f2_9" transform="matrix(11,0,0,11,633.7,545.4)" />
<use xlink:href="#f2_i" transform="matrix(11,0,0,11,640.3,545.4)" />
<use xlink:href="#f2_h" transform="matrix(11,0,0,11,647.7,545.4)" />
<use xlink:href="#f2_j" transform="matrix(11,0,0,11,653.4,545.4)" />
<use xlink:href="#f2_v" transform="matrix(11,0,0,11,658.1,545.4)" />
<use xlink:href="#f2_b" transform="matrix(11,0,0,11,666.3,545.4)" />
<use xlink:href="#f2_e" transform="matrix(11,0,0,11,673.8,545.4)" />
<use xlink:href="#f2_x" transform="matrix(11,0,0,11,682.2,545.4)" />
<use xlink:href="#f2_h" transform="matrix(11,0,0,11,463.5,545.4)" />
<use xlink:href="#f2_c" transform="matrix(11,0,0,11,469,545.4)" />
<use xlink:href="#f2_9" transform="matrix(11,0,0,11,476.5,545.4)" />
<use xlink:href="#f2_g" transform="matrix(11,0,0,11,483,545.4)" />
<use xlink:href="#f2_f" transform="matrix(11,0,0,11,491.4,545.4)" />
<use xlink:href="#f2_e" transform="matrix(11,0,0,11,499.8,545.4)" />
<use xlink:href="#f2_8" transform="matrix(11,0,0,11,508.2,545.4)" />
<use xlink:href="#f2_b" transform="matrix(11,0,0,11,516.7,545.4)" />
<use xlink:href="#f2_e" transform="matrix(11,0,0,11,524.1,545.4)" />
<use xlink:href="#f2_x" transform="matrix(11,0,0,11,532.5,545.4)" />
<use xlink:href="#f2_v" transform="matrix(11,0,0,11,300.7,545.4)" />
<use xlink:href="#f2_o" transform="matrix(11,0,0,11,309.1,545.4)" />
<use xlink:href="#f2_9" transform="matrix(11,0,0,11,317.5,545.4)" />
<use xlink:href="#f0_1r" transform="matrix(11,0,0,11,324,545.4)" />
<use xlink:href="#f0_14" transform="matrix(11,0,0,11,333.4,545.4)" />
<use xlink:href="#f0_f" transform="matrix(11,0,0,11,342.7,545.4)" />
<use xlink:href="#f0_o" transform="matrix(11,0,0,11,350.2,545.4)" />
<use xlink:href="#f0_l" transform="matrix(11,0,0,11,359.5,545.4)" />
<use xlink:href="#f2_o" transform="matrix(11,0,0,11,137.7,545.4)" />
<use xlink:href="#f2_9" transform="matrix(11,0,0,11,146.1,545.4)" />
<use xlink:href="#f2_2" transform="matrix(11,0,0,11,152.6,545.4)" />
<use xlink:href="#f2_c" transform="matrix(11,0,0,11,157.3,545.4)" />
<use xlink:href="#f2_8" transform="matrix(11,0,0,11,164.8,545.4)" />
<use xlink:href="#f2_c" transform="matrix(11,0,0,11,173,545.4)" />
<use xlink:href="#f2_9" transform="matrix(11,0,0,11,180.5,545.4)" />
</g>
<g fill="#0000FF" >
<use xlink:href="#f3_3" transform="matrix(12,0,0,12,669.9,567)" />
<use xlink:href="#f3_9" transform="matrix(12,0,0,12,682.9,567)" />
<use xlink:href="#f3_j" transform="matrix(12,0,0,12,693.1,567)" />
<use xlink:href="#f3_2" transform="matrix(12,0,0,12,704.6,567)" />
<use xlink:href="#f3_a" transform="matrix(12,0,0,12,720.9,567)" />
<use xlink:href="#f3_9" transform="matrix(12,0,0,12,732.8,567)" />
<use xlink:href="#f3_i" transform="matrix(12,0,0,12,743.2,567)" />
<use xlink:href="#f3_r" transform="matrix(12,0,0,12,749.6,567)" />
<use xlink:href="#f3_8" transform="matrix(12,0,0,12,761.5,567)" />
</g>
</g>
<path d="M669.8,568.8H772.1" class="g2_18" />
<g clip-path="url(#c0_18)">
<g fill="#000000" >
<use xlink:href="#f1_m" transform="matrix(12,0,0,12,723.8,607.6)" />
<use xlink:href="#f1_7" transform="matrix(12,0,0,12,735,607.6)" />
<use xlink:href="#f1_b" transform="matrix(12,0,0,12,740.3,607.6)" />
<use xlink:href="#f1_4" transform="matrix(12,0,0,12,748.6,607.6)" />
<use xlink:href="#f1_l" transform="matrix(12,0,0,12,759.6,607.6)" />
<use xlink:href="#f1_y" transform="matrix(12,0,0,12,704.6,607.6)" />
</g>
</g>
<path d="M128.6,612.4H780.8m-652.2,20H780.8M128.6,652.6H780.8m-652.2,20H780.8M128.6,692.8H780.8M128.9,612v81.2M291.8,612v81.2M454.7,612v81.2M617.5,612v81.2M780.4,612v81.2" class="g1_18" />
<g clip-path="url(#c0_18)">
<g fill="#000000" >
<use xlink:href="#f2_c" transform="matrix(11,0,0,11,626.4,628.4)" />
<use xlink:href="#f2_9" transform="matrix(11,0,0,11,633.7,628.4)" />
<use xlink:href="#f2_i" transform="matrix(11,0,0,11,640.3,628.4)" />
<use xlink:href="#f2_h" transform="matrix(11,0,0,11,647.7,628.4)" />
<use xlink:href="#f2_j" transform="matrix(11,0,0,11,653.4,628.4)" />
<use xlink:href="#f2_v" transform="matrix(11,0,0,11,658.1,628.4)" />
<use xlink:href="#f2_j" transform="matrix(11,0,0,11,666.3,628.4)" />
<use xlink:href="#f2_h" transform="matrix(11,0,0,11,671.1,628.4)" />
<use xlink:href="#f2_h" transform="matrix(11,0,0,11,463.5,628.4)" />
<use xlink:href="#f2_c" transform="matrix(11,0,0,11,469,628.4)" />
<use xlink:href="#f2_9" transform="matrix(11,0,0,11,476.5,628.4)" />
<use xlink:href="#f2_g" transform="matrix(11,0,0,11,483,628.4)" />
<use xlink:href="#f2_f" transform="matrix(11,0,0,11,491.4,628.4)" />
<use xlink:href="#f2_e" transform="matrix(11,0,0,11,499.8,628.4)" />
<use xlink:href="#f2_8" transform="matrix(11,0,0,11,508.2,628.4)" />
<use xlink:href="#f2_c" transform="matrix(11,0,0,11,516.7,628.4)" />
<use xlink:href="#f2_h" transform="matrix(11,0,0,11,524.1,628.4)" />
<use xlink:href="#f2_v" transform="matrix(11,0,0,11,300.7,628.4)" />
<use xlink:href="#f2_o" transform="matrix(11,0,0,11,309.1,628.4)" />
<use xlink:href="#f2_9" transform="matrix(11,0,0,11,317.5,628.4)" />
<use xlink:href="#f2_i" transform="matrix(11,0,0,11,323.9,628.4)" />
<use xlink:href="#f2_b" transform="matrix(11,0,0,11,331.4,628.4)" />
<use xlink:href="#f2_h" transform="matrix(11,0,0,11,338.8,628.4)" />
<use xlink:href="#f2_e" transform="matrix(11,0,0,11,626.4,648.5)" />
<use xlink:href="#f2_f" transform="matrix(11,0,0,11,634.8,648.5)" />
<use xlink:href="#f2_c" transform="matrix(11,0,0,11,647.3,648.5)" />
<use xlink:href="#f2_9" transform="matrix(11,0,0,11,654.8,648.5)" />
<use xlink:href="#f2_i" transform="matrix(11,0,0,11,661.3,648.5)" />
<use xlink:href="#f2_h" transform="matrix(11,0,0,11,668.7,648.5)" />
<use xlink:href="#f2_j" transform="matrix(11,0,0,11,674.3,648.5)" />
<use xlink:href="#f2_v" transform="matrix(11,0,0,11,679,648.5)" />
<use xlink:href="#f2_b" transform="matrix(11,0,0,11,687.4,648.5)" />
<use xlink:href="#f2_9" transform="matrix(11,0,0,11,694.9,648.5)" />
<use xlink:href="#f2_x" transform="matrix(11,0,0,11,701.3,648.5)" />
<use xlink:href="#f2_e" transform="matrix(11,0,0,11,463.5,648.5)" />
<use xlink:href="#f2_f" transform="matrix(11,0,0,11,471.9,648.5)" />
<use xlink:href="#f2_h" transform="matrix(11,0,0,11,484.5,648.5)" />
<use xlink:href="#f2_c" transform="matrix(11,0,0,11,490.1,648.5)" />
<use xlink:href="#f2_9" transform="matrix(11,0,0,11,497.5,648.5)" />
<use xlink:href="#f2_g" transform="matrix(11,0,0,11,504.1,648.5)" />
<use xlink:href="#f2_f" transform="matrix(11,0,0,11,512.5,648.5)" />
<use xlink:href="#f2_e" transform="matrix(11,0,0,11,520.9,648.5)" />
<use xlink:href="#f2_8" transform="matrix(11,0,0,11,529.3,648.5)" />
<use xlink:href="#f2_b" transform="matrix(11,0,0,11,537.6,648.5)" />
<use xlink:href="#f2_9" transform="matrix(11,0,0,11,545,648.5)" />
<use xlink:href="#f2_x" transform="matrix(11,0,0,11,551.6,648.5)" />
<use xlink:href="#f2_e" transform="matrix(11,0,0,11,300.7,648.5)" />
<use xlink:href="#f2_f" transform="matrix(11,0,0,11,309.1,648.5)" />
<use xlink:href="#f2_v" transform="matrix(11,0,0,11,321.6,648.5)" />
<use xlink:href="#f2_o" transform="matrix(11,0,0,11,330,648.5)" />
<use xlink:href="#f2_9" transform="matrix(11,0,0,11,338.4,648.5)" />
<use xlink:href="#f0_1r" transform="matrix(11,0,0,11,345,648.5)" />
<use xlink:href="#f0_14" transform="matrix(11,0,0,11,354.3,648.5)" />
<use xlink:href="#f0_f" transform="matrix(11,0,0,11,363.6,648.5)" />
<use xlink:href="#f0_d" transform="matrix(11,0,0,11,371.1,648.5)" />
<use xlink:href="#f0_l" transform="matrix(11,0,0,11,377.6,648.5)" />
<use xlink:href="#f2_2" transform="matrix(11,0,0,11,137.7,648.5)" />
<use xlink:href="#f2_3" transform="matrix(11,0,0,11,142.4,648.5)" />
<use xlink:href="#f2_e" transform="matrix(11,0,0,11,626.4,668.6)" />
<use xlink:href="#f2_f" transform="matrix(11,0,0,11,634.8,668.6)" />
<use xlink:href="#f2_c" transform="matrix(11,0,0,11,647.3,668.6)" />
<use xlink:href="#f2_9" transform="matrix(11,0,0,11,654.8,668.6)" />
<use xlink:href="#f2_i" transform="matrix(11,0,0,11,661.3,668.6)" />
<use xlink:href="#f2_h" transform="matrix(11,0,0,11,668.7,668.6)" />
<use xlink:href="#f2_j" transform="matrix(11,0,0,11,674.3,668.6)" />
<use xlink:href="#f2_v" transform="matrix(11,0,0,11,679,668.6)" />
<use xlink:href="#f2_b" transform="matrix(11,0,0,11,687.4,668.6)" />
<use xlink:href="#f2_x" transform="matrix(11,0,0,11,694.9,668.6)" />
<use xlink:href="#f2_e" transform="matrix(11,0,0,11,463.5,668.6)" />
<use xlink:href="#f2_f" transform="matrix(11,0,0,11,471.9,668.6)" />
<use xlink:href="#f2_h" transform="matrix(11,0,0,11,484.5,668.6)" />
<use xlink:href="#f2_c" transform="matrix(11,0,0,11,490.1,668.6)" />
<use xlink:href="#f2_9" transform="matrix(11,0,0,11,497.5,668.6)" />
<use xlink:href="#f2_g" transform="matrix(11,0,0,11,504.1,668.6)" />
<use xlink:href="#f2_f" transform="matrix(11,0,0,11,512.5,668.6)" />
<use xlink:href="#f2_e" transform="matrix(11,0,0,11,520.9,668.6)" />
<use xlink:href="#f2_8" transform="matrix(11,0,0,11,529.3,668.6)" />
<use xlink:href="#f2_b" transform="matrix(11,0,0,11,537.6,668.6)" />
<use xlink:href="#f2_x" transform="matrix(11,0,0,11,545,668.6)" />
<use xlink:href="#f2_e" transform="matrix(11,0,0,11,300.7,668.6)" />
<use xlink:href="#f2_f" transform="matrix(11,0,0,11,309.1,668.6)" />
<use xlink:href="#f2_v" transform="matrix(11,0,0,11,321.6,668.6)" />
<use xlink:href="#f2_o" transform="matrix(11,0,0,11,330,668.6)" />
<use xlink:href="#f2_9" transform="matrix(11,0,0,11,338.4,668.6)" />
<use xlink:href="#f0_1r" transform="matrix(11,0,0,11,345,668.6)" />
<use xlink:href="#f0_14" transform="matrix(11,0,0,11,354.3,668.6)" />
<use xlink:href="#f0_f" transform="matrix(11,0,0,11,363.6,668.6)" />
<use xlink:href="#f0_l" transform="matrix(11,0,0,11,371.1,668.6)" />
<use xlink:href="#f2_o" transform="matrix(11,0,0,11,137.7,668.6)" />
<use xlink:href="#f2_9" transform="matrix(11,0,0,11,146.1,668.6)" />
<use xlink:href="#f2_2" transform="matrix(11,0,0,11,152.6,668.6)" />
<use xlink:href="#f2_c" transform="matrix(11,0,0,11,157.3,668.6)" />
<use xlink:href="#f2_8" transform="matrix(11,0,0,11,164.8,668.6)" />
<use xlink:href="#f2_e" transform="matrix(11,0,0,11,626.4,688.7)" />
<use xlink:href="#f2_f" transform="matrix(11,0,0,11,634.8,688.7)" />
<use xlink:href="#f2_c" transform="matrix(11,0,0,11,647.3,688.7)" />
<use xlink:href="#f2_9" transform="matrix(11,0,0,11,654.8,688.7)" />
<use xlink:href="#f2_i" transform="matrix(11,0,0,11,661.3,688.7)" />
<use xlink:href="#f2_h" transform="matrix(11,0,0,11,668.7,688.7)" />
<use xlink:href="#f2_j" transform="matrix(11,0,0,11,674.3,688.7)" />
<use xlink:href="#f2_v" transform="matrix(11,0,0,11,679,688.7)" />
<use xlink:href="#f2_b" transform="matrix(11,0,0,11,687.4,688.7)" />
<use xlink:href="#f2_e" transform="matrix(11,0,0,11,694.9,688.7)" />
<use xlink:href="#f2_x" transform="matrix(11,0,0,11,703.3,688.7)" />
<use xlink:href="#f2_e" transform="matrix(11,0,0,11,463.5,688.7)" />
<use xlink:href="#f2_f" transform="matrix(11,0,0,11,471.9,688.7)" />
<use xlink:href="#f2_h" transform="matrix(11,0,0,11,484.5,688.7)" />
<use xlink:href="#f2_c" transform="matrix(11,0,0,11,490.1,688.7)" />
<use xlink:href="#f2_9" transform="matrix(11,0,0,11,497.5,688.7)" />
<use xlink:href="#f2_g" transform="matrix(11,0,0,11,504.1,688.7)" />
<use xlink:href="#f2_f" transform="matrix(11,0,0,11,512.5,688.7)" />
<use xlink:href="#f2_e" transform="matrix(11,0,0,11,520.9,688.7)" />
<use xlink:href="#f2_8" transform="matrix(11,0,0,11,529.3,688.7)" />
<use xlink:href="#f2_b" transform="matrix(11,0,0,11,537.6,688.7)" />
<use xlink:href="#f2_e" transform="matrix(11,0,0,11,545,688.7)" />
<use xlink:href="#f2_x" transform="matrix(11,0,0,11,553.4,688.7)" />
<use xlink:href="#f2_e" transform="matrix(11,0,0,11,300.7,688.7)" />
<use xlink:href="#f2_f" transform="matrix(11,0,0,11,309.1,688.7)" />
<use xlink:href="#f2_v" transform="matrix(11,0,0,11,321.6,688.7)" />
<use xlink:href="#f2_o" transform="matrix(11,0,0,11,330,688.7)" />
<use xlink:href="#f2_9" transform="matrix(11,0,0,11,338.4,688.7)" />
<use xlink:href="#f0_1r" transform="matrix(11,0,0,11,345,688.7)" />
<use xlink:href="#f0_14" transform="matrix(11,0,0,11,354.3,688.7)" />
<use xlink:href="#f0_f" transform="matrix(11,0,0,11,363.6,688.7)" />
<use xlink:href="#f0_o" transform="matrix(11,0,0,11,371.1,688.7)" />
<use xlink:href="#f0_l" transform="matrix(11,0,0,11,380.4,688.7)" />
<use xlink:href="#f2_o" transform="matrix(11,0,0,11,137.7,688.7)" />
<use xlink:href="#f2_9" transform="matrix(11,0,0,11,146.1,688.7)" />
<use xlink:href="#f2_2" transform="matrix(11,0,0,11,152.6,688.7)" />
<use xlink:href="#f2_c" transform="matrix(11,0,0,11,157.3,688.7)" />
<use xlink:href="#f2_8" transform="matrix(11,0,0,11,164.8,688.7)" />
<use xlink:href="#f2_c" transform="matrix(11,0,0,11,173,688.7)" />
<use xlink:href="#f2_9" transform="matrix(11,0,0,11,180.5,688.7)" />
</g>
<g fill="#0000FF" >
<use xlink:href="#f3_3" transform="matrix(12,0,0,12,669.9,710.1)" />
<use xlink:href="#f3_9" transform="matrix(12,0,0,12,682.9,710.1)" />
<use xlink:href="#f3_j" transform="matrix(12,0,0,12,693.1,710.1)" />
<use xlink:href="#f3_2" transform="matrix(12,0,0,12,704.6,710.1)" />
<use xlink:href="#f3_a" transform="matrix(12,0,0,12,720.9,710.1)" />
<use xlink:href="#f3_9" transform="matrix(12,0,0,12,732.8,710.1)" />
<use xlink:href="#f3_i" transform="matrix(12,0,0,12,743.2,710.1)" />
<use xlink:href="#f3_r" transform="matrix(12,0,0,12,749.6,710.1)" />
<use xlink:href="#f3_8" transform="matrix(12,0,0,12,761.5,710.1)" />
</g>
</g>
<path d="M669.8,711.9H772.1" class="g2_18" />
<g clip-path="url(#c0_18)">
<g fill="#000000" >
<use xlink:href="#f1_m" transform="matrix(12,0,0,12,723.8,770.2)" />
<use xlink:href="#f1_7" transform="matrix(12,0,0,12,735,770.2)" />
<use xlink:href="#f1_b" transform="matrix(12,0,0,12,740.3,770.2)" />
<use xlink:href="#f1_4" transform="matrix(12,0,0,12,748.6,770.2)" />
<use xlink:href="#f1_l" transform="matrix(12,0,0,12,759.6,770.2)" />
<use xlink:href="#f1_z" transform="matrix(12,0,0,12,704.6,770.2)" />
</g>
</g>
<path d="M128.6,775h652m-652,22.1h652m-652,20h652m-652,20.2h652m-652,20h652M128.9,774.6v83.1m73.1,-61v61m0,-83.1v22.9m97.4,-.8v61M418.6,774.6v83.1m75.8,-61v61M581,774.6v83.1m86.6,-61v61M780.2,774.6v83.1" class="g1_18" />
<g clip-path="url(#c0_18)">
<g fill="#000000" >
<use xlink:href="#f3_13" transform="matrix(12,0,0,12,668.8,792.3)" />
<use xlink:href="#f3_b" transform="matrix(12,0,0,12,675.4,792.3)" />
<use xlink:href="#f3_5" transform="matrix(12,0,0,12,688.4,792.3)" />
<use xlink:href="#f3_r" transform="matrix(12,0,0,12,692.5,792.3)" />
<use xlink:href="#f3_h" transform="matrix(12,0,0,12,704.4,792.3)" />
<use xlink:href="#f3_a" transform="matrix(12,0,0,12,714,792.3)" />
<use xlink:href="#f3_2" transform="matrix(12,0,0,12,726,792.3)" />
<use xlink:href="#f2_e" transform="matrix(11,0,0,11,625.2,792.3)" />
<use xlink:href="#f2_c" transform="matrix(11,0,0,11,633.6,792.3)" />
<use xlink:href="#f2_l" transform="matrix(11,0,0,11,641,792.3)" />
<use xlink:href="#f2_b" transform="matrix(11,0,0,11,649.4,792.3)" />
<use xlink:href="#f2_h" transform="matrix(11,0,0,11,656.9,792.3)" />
<use xlink:href="#f3_13" transform="matrix(12,0,0,12,493.6,792.3)" />
<use xlink:href="#f3_b" transform="matrix(12,0,0,12,500.2,792.3)" />
<use xlink:href="#f3_3" transform="matrix(12,0,0,12,513.2,792.3)" />
<use xlink:href="#f3_8" transform="matrix(12,0,0,12,526.1,792.3)" />
<use xlink:href="#f3_2" transform="matrix(12,0,0,12,536.7,792.3)" />
<use xlink:href="#f2_g" transform="matrix(11,0,0,11,452.8,792.3)" />
<use xlink:href="#f2_c" transform="matrix(11,0,0,11,461.2,792.3)" />
<use xlink:href="#f2_8" transform="matrix(11,0,0,11,468.7,792.3)" />
<use xlink:href="#f2_j" transform="matrix(11,0,0,11,477.1,792.3)" />
<use xlink:href="#f2_h" transform="matrix(11,0,0,11,481.7,792.3)" />
<use xlink:href="#f3_13" transform="matrix(12,0,0,12,312,792.3)" />
<use xlink:href="#f3_9" transform="matrix(12,0,0,12,318.5,792.3)" />
<use xlink:href="#f3_5" transform="matrix(12,0,0,12,328.9,792.3)" />
<use xlink:href="#f3_i" transform="matrix(12,0,0,12,333,792.3)" />
<use xlink:href="#f3_r" transform="matrix(12,0,0,12,339.4,792.3)" />
<use xlink:href="#f3_a" transform="matrix(12,0,0,12,351.3,792.3)" />
<use xlink:href="#f3_2" transform="matrix(12,0,0,12,363.2,792.3)" />
<use xlink:href="#f2_8" transform="matrix(11,0,0,11,247.2,792.3)" />
<use xlink:href="#f2_c" transform="matrix(11,0,0,11,255.6,792.3)" />
<use xlink:href="#f2_z" transform="matrix(11,0,0,11,263.1,792.3)" />
<use xlink:href="#f2_f" transform="matrix(11,0,0,11,271.5,792.3)" />
<use xlink:href="#f2_d" transform="matrix(11,0,0,11,279.7,792.3)" />
<use xlink:href="#f2_z" transform="matrix(11,0,0,11,284.4,792.3)" />
<use xlink:href="#f2_c" transform="matrix(11,0,0,11,292.8,792.3)" />
<use xlink:href="#f2_h" transform="matrix(11,0,0,11,300.3,792.3)" />
<use xlink:href="#f2_e" transform="matrix(11,0,0,11,676.3,813.1)" />
<use xlink:href="#f2_f" transform="matrix(11,0,0,11,684.8,813.1)" />
<use xlink:href="#f2_e" transform="matrix(11,0,0,11,697.4,813.1)" />
<use xlink:href="#f2_j" transform="matrix(11,0,0,11,705.7,813.1)" />
<use xlink:href="#f2_c" transform="matrix(11,0,0,11,710.4,813.1)" />
<use xlink:href="#f2_l" transform="matrix(11,0,0,11,717.9,813.1)" />
<use xlink:href="#f2_o" transform="matrix(11,0,0,11,726.3,813.1)" />
<use xlink:href="#f2_c" transform="matrix(11,0,0,11,734.7,813.1)" />
<use xlink:href="#f2_9" transform="matrix(11,0,0,11,742.1,813.1)" />
<use xlink:href="#f2_x" transform="matrix(11,0,0,11,748.7,813.1)" />
<use xlink:href="#f2_e" transform="matrix(11,0,0,11,589.7,813.1)" />
<use xlink:href="#f2_j" transform="matrix(11,0,0,11,598.1,813.1)" />
<use xlink:href="#f2_c" transform="matrix(11,0,0,11,602.8,813.1)" />
<use xlink:href="#f2_l" transform="matrix(11,0,0,11,610.3,813.1)" />
<use xlink:href="#f2_b" transform="matrix(11,0,0,11,618.7,813.1)" />
<use xlink:href="#f2_x" transform="matrix(11,0,0,11,626,813.1)" />
<use xlink:href="#f2_e" transform="matrix(11,0,0,11,503.1,813.1)" />
<use xlink:href="#f2_f" transform="matrix(11,0,0,11,511.5,813.1)" />
<use xlink:href="#f2_g" transform="matrix(11,0,0,11,524.2,813.1)" />
<use xlink:href="#f2_j" transform="matrix(11,0,0,11,532.4,813.1)" />
<use xlink:href="#f2_8" transform="matrix(11,0,0,11,537.1,813.1)" />
<use xlink:href="#f2_b" transform="matrix(11,0,0,11,545.5,813.1)" />
<use xlink:href="#f2_9" transform="matrix(11,0,0,11,553,813.1)" />
<use xlink:href="#f2_x" transform="matrix(11,0,0,11,559.6,813.1)" />
<use xlink:href="#f2_g" transform="matrix(11,0,0,11,427.3,813.1)" />
<use xlink:href="#f2_j" transform="matrix(11,0,0,11,435.7,813.1)" />
<use xlink:href="#f2_8" transform="matrix(11,0,0,11,440.4,813.1)" />
<use xlink:href="#f2_c" transform="matrix(11,0,0,11,448.8,813.1)" />
<use xlink:href="#f2_x" transform="matrix(11,0,0,11,456.2,813.1)" />
<use xlink:href="#f2_e" transform="matrix(11,0,0,11,308.3,813.1)" />
<use xlink:href="#f2_f" transform="matrix(11,0,0,11,316.7,813.1)" />
<use xlink:href="#f2_8" transform="matrix(11,0,0,11,329.2,813.1)" />
<use xlink:href="#f2_c" transform="matrix(11,0,0,11,337.6,813.1)" />
<use xlink:href="#f2_z" transform="matrix(11,0,0,11,345.1,813.1)" />
<use xlink:href="#f2_o" transform="matrix(11,0,0,11,353.5,813.1)" />
<use xlink:href="#f2_c" transform="matrix(11,0,0,11,361.9,813.1)" />
<use xlink:href="#f2_d" transform="matrix(11,0,0,11,369.4,813.1)" />
<use xlink:href="#f2_z" transform="matrix(11,0,0,11,374.1,813.1)" />
<use xlink:href="#f2_b" transform="matrix(11,0,0,11,382.3,813.1)" />
<use xlink:href="#f2_9" transform="matrix(11,0,0,11,389.8,813.1)" />
<use xlink:href="#f2_x" transform="matrix(11,0,0,11,396.3,813.1)" />
<use xlink:href="#f2_8" transform="matrix(11,0,0,11,210.7,813.1)" />
<use xlink:href="#f2_c" transform="matrix(11,0,0,11,219.1,813.1)" />
<use xlink:href="#f2_z" transform="matrix(11,0,0,11,226.5,813.1)" />
<use xlink:href="#f2_o" transform="matrix(11,0,0,11,234.9,813.1)" />
<use xlink:href="#f2_c" transform="matrix(11,0,0,11,243.4,813.1)" />
<use xlink:href="#f2_d" transform="matrix(11,0,0,11,250.8,813.1)" />
<use xlink:href="#f2_z" transform="matrix(11,0,0,11,255.5,813.1)" />
<use xlink:href="#f2_c" transform="matrix(11,0,0,11,263.8,813.1)" />
<use xlink:href="#f2_x" transform="matrix(11,0,0,11,271.2,813.1)" />
<use xlink:href="#f2_2" transform="matrix(11,0,0,11,137.7,813.1)" />
<use xlink:href="#f2_3" transform="matrix(11,0,0,11,142.4,813.1)" />
<use xlink:href="#f2_e" transform="matrix(11,0,0,11,676.3,833.3)" />
<use xlink:href="#f2_f" transform="matrix(11,0,0,11,684.8,833.3)" />
<use xlink:href="#f2_e" transform="matrix(11,0,0,11,697.4,833.3)" />
<use xlink:href="#f2_j" transform="matrix(11,0,0,11,705.7,833.3)" />
<use xlink:href="#f2_c" transform="matrix(11,0,0,11,710.4,833.3)" />
<use xlink:href="#f2_l" transform="matrix(11,0,0,11,717.9,833.3)" />
<use xlink:href="#f2_o" transform="matrix(11,0,0,11,726.3,833.3)" />
<use xlink:href="#f2_c" transform="matrix(11,0,0,11,734.7,833.3)" />
<use xlink:href="#f2_x" transform="matrix(11,0,0,11,742.1,833.3)" />
<use xlink:href="#f2_e" transform="matrix(11,0,0,11,589.7,833.3)" />
<use xlink:href="#f2_j" transform="matrix(11,0,0,11,598.1,833.3)" />
<use xlink:href="#f2_c" transform="matrix(11,0,0,11,602.8,833.3)" />
<use xlink:href="#f2_l" transform="matrix(11,0,0,11,610.3,833.3)" />
<use xlink:href="#f2_o" transform="matrix(11,0,0,11,618.7,833.3)" />
<use xlink:href="#f2_c" transform="matrix(11,0,0,11,627.1,833.3)" />
<use xlink:href="#f2_x" transform="matrix(11,0,0,11,634.4,833.3)" />
<use xlink:href="#f2_e" transform="matrix(11,0,0,11,503.1,833.3)" />
<use xlink:href="#f2_f" transform="matrix(11,0,0,11,511.5,833.3)" />
<use xlink:href="#f2_g" transform="matrix(11,0,0,11,524.2,833.3)" />
<use xlink:href="#f2_j" transform="matrix(11,0,0,11,532.4,833.3)" />
<use xlink:href="#f2_8" transform="matrix(11,0,0,11,537.1,833.3)" />
<use xlink:href="#f2_b" transform="matrix(11,0,0,11,545.5,833.3)" />
<use xlink:href="#f2_x" transform="matrix(11,0,0,11,553,833.3)" />
<use xlink:href="#f2_g" transform="matrix(11,0,0,11,427.3,833.3)" />
<use xlink:href="#f2_j" transform="matrix(11,0,0,11,435.7,833.3)" />
<use xlink:href="#f2_8" transform="matrix(11,0,0,11,440.4,833.3)" />
<use xlink:href="#f2_b" transform="matrix(11,0,0,11,448.8,833.3)" />
<use xlink:href="#f2_x" transform="matrix(11,0,0,11,456.2,833.3)" />
<use xlink:href="#f2_e" transform="matrix(11,0,0,11,308.3,833.3)" />
<use xlink:href="#f2_f" transform="matrix(11,0,0,11,316.7,833.3)" />
<use xlink:href="#f2_8" transform="matrix(11,0,0,11,329.2,833.3)" />
<use xlink:href="#f2_c" transform="matrix(11,0,0,11,337.6,833.3)" />
<use xlink:href="#f2_z" transform="matrix(11,0,0,11,345.1,833.3)" />
<use xlink:href="#f2_o" transform="matrix(11,0,0,11,353.5,833.3)" />
<use xlink:href="#f2_c" transform="matrix(11,0,0,11,361.9,833.3)" />
<use xlink:href="#f2_d" transform="matrix(11,0,0,11,369.4,833.3)" />
<use xlink:href="#f2_z" transform="matrix(11,0,0,11,374.1,833.3)" />
<use xlink:href="#f2_b" transform="matrix(11,0,0,11,382.3,833.3)" />
<use xlink:href="#f2_x" transform="matrix(11,0,0,11,389.8,833.3)" />
<use xlink:href="#f2_8" transform="matrix(11,0,0,11,210.7,833.3)" />
<use xlink:href="#f2_c" transform="matrix(11,0,0,11,219.1,833.3)" />
<use xlink:href="#f2_z" transform="matrix(11,0,0,11,226.5,833.3)" />
<use xlink:href="#f2_o" transform="matrix(11,0,0,11,234.9,833.3)" />
<use xlink:href="#f2_c" transform="matrix(11,0,0,11,243.4,833.3)" />
<use xlink:href="#f2_d" transform="matrix(11,0,0,11,250.8,833.3)" />
<use xlink:href="#f2_z" transform="matrix(11,0,0,11,255.5,833.3)" />
<use xlink:href="#f2_b" transform="matrix(11,0,0,11,263.8,833.3)" />
<use xlink:href="#f2_x" transform="matrix(11,0,0,11,271.2,833.3)" />
<use xlink:href="#f2_o" transform="matrix(11,0,0,11,137.7,833.3)" />
<use xlink:href="#f2_9" transform="matrix(11,0,0,11,146.1,833.3)" />
<use xlink:href="#f2_2" transform="matrix(11,0,0,11,152.6,833.3)" />
<use xlink:href="#f2_c" transform="matrix(11,0,0,11,157.3,833.3)" />
<use xlink:href="#f2_8" transform="matrix(11,0,0,11,164.8,833.3)" />
<use xlink:href="#f2_e" transform="matrix(11,0,0,11,676.3,853.3)" />
<use xlink:href="#f2_f" transform="matrix(11,0,0,11,684.8,853.3)" />
<use xlink:href="#f2_e" transform="matrix(11,0,0,11,697.4,853.3)" />
<use xlink:href="#f2_j" transform="matrix(11,0,0,11,705.7,853.3)" />
<use xlink:href="#f2_c" transform="matrix(11,0,0,11,710.4,853.3)" />
<use xlink:href="#f2_l" transform="matrix(11,0,0,11,717.9,853.3)" />
<use xlink:href="#f2_o" transform="matrix(11,0,0,11,726.3,853.3)" />
<use xlink:href="#f2_c" transform="matrix(11,0,0,11,734.7,853.3)" />
<use xlink:href="#f2_e" transform="matrix(11,0,0,11,742.1,853.3)" />
<use xlink:href="#f2_x" transform="matrix(11,0,0,11,750.5,853.3)" />
<use xlink:href="#f2_e" transform="matrix(11,0,0,11,589.7,853.3)" />
<use xlink:href="#f2_j" transform="matrix(11,0,0,11,598.1,853.3)" />
<use xlink:href="#f2_c" transform="matrix(11,0,0,11,602.8,853.3)" />
<use xlink:href="#f2_l" transform="matrix(11,0,0,11,610.3,853.3)" />
<use xlink:href="#f2_o" transform="matrix(11,0,0,11,618.7,853.3)" />
<use xlink:href="#f2_c" transform="matrix(11,0,0,11,627.1,853.3)" />
<use xlink:href="#f2_e" transform="matrix(11,0,0,11,634.6,853.3)" />
<use xlink:href="#f2_x" transform="matrix(11,0,0,11,642.8,853.3)" />
<use xlink:href="#f2_e" transform="matrix(11,0,0,11,503.1,853.3)" />
<use xlink:href="#f2_f" transform="matrix(11,0,0,11,511.5,853.3)" />
<use xlink:href="#f2_g" transform="matrix(11,0,0,11,524.2,853.3)" />
<use xlink:href="#f2_j" transform="matrix(11,0,0,11,532.4,853.3)" />
<use xlink:href="#f2_8" transform="matrix(11,0,0,11,537.1,853.3)" />
<use xlink:href="#f2_b" transform="matrix(11,0,0,11,545.5,853.3)" />
<use xlink:href="#f2_e" transform="matrix(11,0,0,11,553,853.3)" />
<use xlink:href="#f2_x" transform="matrix(11,0,0,11,561.4,853.3)" />
<use xlink:href="#f2_g" transform="matrix(11,0,0,11,427.3,853.3)" />
<use xlink:href="#f2_j" transform="matrix(11,0,0,11,435.7,853.3)" />
<use xlink:href="#f2_8" transform="matrix(11,0,0,11,440.4,853.3)" />
<use xlink:href="#f2_b" transform="matrix(11,0,0,11,448.8,853.3)" />
<use xlink:href="#f2_e" transform="matrix(11,0,0,11,456.3,853.3)" />
<use xlink:href="#f2_x" transform="matrix(11,0,0,11,464.6,853.3)" />
<use xlink:href="#f2_e" transform="matrix(11,0,0,11,308.3,853.3)" />
<use xlink:href="#f2_f" transform="matrix(11,0,0,11,316.7,853.3)" />
<use xlink:href="#f2_8" transform="matrix(11,0,0,11,329.2,853.3)" />
<use xlink:href="#f2_c" transform="matrix(11,0,0,11,337.6,853.3)" />
<use xlink:href="#f2_z" transform="matrix(11,0,0,11,345.1,853.3)" />
<use xlink:href="#f2_o" transform="matrix(11,0,0,11,353.5,853.3)" />
<use xlink:href="#f2_c" transform="matrix(11,0,0,11,361.9,853.3)" />
<use xlink:href="#f2_d" transform="matrix(11,0,0,11,369.4,853.3)" />
<use xlink:href="#f2_z" transform="matrix(11,0,0,11,374.1,853.3)" />
<use xlink:href="#f2_b" transform="matrix(11,0,0,11,382.3,853.3)" />
<use xlink:href="#f2_e" transform="matrix(11,0,0,11,389.8,853.3)" />
<use xlink:href="#f2_x" transform="matrix(11,0,0,11,398.2,853.3)" />
<use xlink:href="#f2_8" transform="matrix(11,0,0,11,210.7,853.3)" />
<use xlink:href="#f2_c" transform="matrix(11,0,0,11,219.1,853.3)" />
<use xlink:href="#f2_z" transform="matrix(11,0,0,11,226.5,853.3)" />
<use xlink:href="#f2_o" transform="matrix(11,0,0,11,234.9,853.3)" />
<use xlink:href="#f2_c" transform="matrix(11,0,0,11,243.4,853.3)" />
<use xlink:href="#f2_d" transform="matrix(11,0,0,11,250.8,853.3)" />
<use xlink:href="#f2_z" transform="matrix(11,0,0,11,255.5,853.3)" />
<use xlink:href="#f2_b" transform="matrix(11,0,0,11,263.8,853.3)" />
<use xlink:href="#f2_e" transform="matrix(11,0,0,11,271.2,853.3)" />
<use xlink:href="#f2_x" transform="matrix(11,0,0,11,279.7,853.3)" />
<use xlink:href="#f2_o" transform="matrix(11,0,0,11,137.7,853.3)" />
<use xlink:href="#f2_9" transform="matrix(11,0,0,11,146.1,853.3)" />
<use xlink:href="#f2_2" transform="matrix(11,0,0,11,152.6,853.3)" />
<use xlink:href="#f2_c" transform="matrix(11,0,0,11,157.3,853.3)" />
<use xlink:href="#f2_8" transform="matrix(11,0,0,11,164.8,853.3)" />
<use xlink:href="#f2_c" transform="matrix(11,0,0,11,173,853.3)" />
<use xlink:href="#f2_9" transform="matrix(11,0,0,11,180.5,853.3)" />
</g>
<g fill="#0000FF" >
<use xlink:href="#f3_3" transform="matrix(12,0,0,12,669.9,874.8)" />
<use xlink:href="#f3_9" transform="matrix(12,0,0,12,682.9,874.8)" />
<use xlink:href="#f3_j" transform="matrix(12,0,0,12,693.1,874.8)" />
<use xlink:href="#f3_2" transform="matrix(12,0,0,12,704.6,874.8)" />
<use xlink:href="#f3_a" transform="matrix(12,0,0,12,720.9,874.8)" />
<use xlink:href="#f3_9" transform="matrix(12,0,0,12,732.8,874.8)" />
<use xlink:href="#f3_i" transform="matrix(12,0,0,12,743.2,874.8)" />
<use xlink:href="#f3_r" transform="matrix(12,0,0,12,749.6,874.8)" />
<use xlink:href="#f3_8" transform="matrix(12,0,0,12,761.5,874.8)" />
</g>
</g>
<path d="M669.8,876.6H772.1" class="g2_18" />
<g clip-path="url(#c0_18)">
<g fill="#000000" >
<use xlink:href="#f1_m" transform="matrix(12,0,0,12,723.8,954.1)" />
<use xlink:href="#f1_7" transform="matrix(12,0,0,12,735,954.1)" />
<use xlink:href="#f1_b" transform="matrix(12,0,0,12,740.3,954.1)" />
<use xlink:href="#f1_4" transform="matrix(12,0,0,12,748.6,954.1)" />
<use xlink:href="#f1_l" transform="matrix(12,0,0,12,759.6,954.1)" />
<use xlink:href="#f1_11" transform="matrix(12,0,0,12,704.6,954.1)" />
</g>
</g>
<path d="M128.6,958.9H780.8M128.6,981.1H780.8m-652.2,22.1H780.8m-652.2,22.2H780.8m-652.2,22.1H780.8m-652.2,22.2H780.8m-652.2,22.1H780.8M128.6,1114H780.8m-652.2,22.1H780.8m-652.2,22.2H780.8M128.9,958.5v200.2M454.7,958.5v200.2M780.4,958.5v200.2" class="g1_18" />
<g clip-path="url(#c0_18)">
<g fill="#000000" >
<use xlink:href="#f3_w" transform="matrix(12,0,0,12,610.3,976.3)" />
<use xlink:href="#f3_e" transform="matrix(12,0,0,12,617.7,976.3)" />
<use xlink:href="#f3_5" transform="matrix(12,0,0,12,629.9,976.3)" />
<use xlink:href="#f3_8" transform="matrix(12,0,0,12,634,976.3)" />
<use xlink:href="#f3_5" transform="matrix(12,0,0,12,644.5,976.3)" />
<use xlink:href="#f3_h" transform="matrix(12,0,0,12,648.6,976.3)" />
<use xlink:href="#f3_9" transform="matrix(12,0,0,12,658.3,976.3)" />
<use xlink:href="#f3_f" transform="matrix(12,0,0,12,668.6,976.3)" />
<use xlink:href="#f3_a" transform="matrix(12,0,0,12,681.2,976.3)" />
<use xlink:href="#f3_4" transform="matrix(12,0,0,12,698.9,976.3)" />
<use xlink:href="#f3_c" transform="matrix(12,0,0,12,710.9,976.3)" />
<use xlink:href="#f3_8" transform="matrix(12,0,0,12,729.1,976.3)" />
<use xlink:href="#f3_8" transform="matrix(12,0,0,12,739.6,976.3)" />
<use xlink:href="#f3_9" transform="matrix(12,0,0,12,750.2,976.3)" />
<use xlink:href="#f3_n" transform="matrix(12,0,0,12,760.6,976.3)" />
<use xlink:href="#f2_16" transform="matrix(11,0,0,11,137.7,974.9)" />
<use xlink:href="#f2_c" transform="matrix(11,0,0,11,148.8,974.9)" />
<use xlink:href="#f2_z" transform="matrix(11,0,0,11,156.3,974.9)" />
<use xlink:href="#f2_o" transform="matrix(11,0,0,11,164.7,974.9)" />
<use xlink:href="#f2_c" transform="matrix(11,0,0,11,173.1,974.9)" />
<use xlink:href="#f2_d" transform="matrix(11,0,0,11,180.5,974.9)" />
<use xlink:href="#f2_z" transform="matrix(11,0,0,11,185.3,974.9)" />
<use xlink:href="#f2_c" transform="matrix(11,0,0,11,193.7,974.9)" />
<use xlink:href="#f2_d" transform="matrix(11,0,0,11,205.2,974.9)" />
<use xlink:href="#f2_f" transform="matrix(11,0,0,11,210,974.9)" />
<use xlink:href="#f2_9" transform="matrix(11,0,0,11,218.4,974.9)" />
<use xlink:href="#f2_j" transform="matrix(11,0,0,11,229,974.9)" />
<use xlink:href="#f2_e" transform="matrix(11,0,0,11,233.8,974.9)" />
<use xlink:href="#f2_l" transform="matrix(11,0,0,11,242.2,974.9)" />
<use xlink:href="#f2_h" transform="matrix(11,0,0,11,250.4,974.9)" />
<use xlink:href="#f2_c" transform="matrix(11,0,0,11,256,974.9)" />
<use xlink:href="#f2_8" transform="matrix(11,0,0,11,263.5,974.9)" />
<use xlink:href="#f2_j" transform="matrix(11,0,0,11,271.9,974.9)" />
<use xlink:href="#f2_c" transform="matrix(11,0,0,11,276.6,974.9)" />
<use xlink:href="#f2_e" transform="matrix(11,0,0,11,284.1,974.9)" />
<use xlink:href="#f2_2" transform="matrix(11,0,0,11,292.3,974.9)" />
<use xlink:href="#f2_c" transform="matrix(11,0,0,11,297.1,974.9)" />
<use xlink:href="#f2_9" transform="matrix(11,0,0,11,304.5,974.9)" />
<use xlink:href="#f2_x" transform="matrix(11,0,0,11,311.1,974.9)" />
<use xlink:href="#f3_w" transform="matrix(12,0,0,12,612.9,998.4)" />
<use xlink:href="#f3_c" transform="matrix(12,0,0,12,620.3,998.4)" />
<use xlink:href="#f3_j" transform="matrix(12,0,0,12,632.5,998.4)" />
<use xlink:href="#f3_7" transform="matrix(12,0,0,12,643.9,998.4)" />
<use xlink:href="#f3_9" transform="matrix(12,0,0,12,648.8,998.4)" />
<use xlink:href="#f3_a" transform="matrix(12,0,0,12,659.2,998.4)" />
<use xlink:href="#f3_f" transform="matrix(12,0,0,12,671.1,998.4)" />
<use xlink:href="#f3_a" transform="matrix(12,0,0,12,689.6,998.4)" />
<use xlink:href="#f3_9" transform="matrix(12,0,0,12,701.5,998.4)" />
<use xlink:href="#f3_i" transform="matrix(12,0,0,12,711.7,998.4)" />
<use xlink:href="#f3_n" transform="matrix(12,0,0,12,718.1,998.4)" />
<use xlink:href="#f3_b" transform="matrix(12,0,0,12,735.5,998.4)" />
<use xlink:href="#f3_3" transform="matrix(12,0,0,12,748.5,998.4)" />
<use xlink:href="#f3_8" transform="matrix(12,0,0,12,761.5,998.4)" />
<use xlink:href="#f2_q" transform="matrix(11,0,0,11,137.7,997)" />
<use xlink:href="#f2_j" transform="matrix(11,0,0,11,147,997)" />
<use xlink:href="#f2_8" transform="matrix(11,0,0,11,151.7,997)" />
<use xlink:href="#f2_c" transform="matrix(11,0,0,11,160.1,997)" />
<use xlink:href="#f2_b" transform="matrix(11,0,0,11,171.7,997)" />
<use xlink:href="#f2_11" transform="matrix(11,0,0,11,179.1,997)" />
<use xlink:href="#f2_o" transform="matrix(11,0,0,11,187.5,997)" />
<use xlink:href="#f2_8" transform="matrix(11,0,0,11,196,997)" />
<use xlink:href="#f2_b" transform="matrix(11,0,0,11,204.4,997)" />
<use xlink:href="#f2_8" transform="matrix(11,0,0,11,216.1,997)" />
<use xlink:href="#f2_c" transform="matrix(11,0,0,11,224.3,997)" />
<use xlink:href="#f2_d" transform="matrix(11,0,0,11,231.8,997)" />
<use xlink:href="#f2_k" transform="matrix(11,0,0,11,240.6,997)" />
<use xlink:href="#f2_y" transform="matrix(11,0,0,11,253.8,997)" />
<use xlink:href="#f2_8" transform="matrix(11,0,0,11,261.2,997)" />
<use xlink:href="#f2_j" transform="matrix(11,0,0,11,269.5,997)" />
<use xlink:href="#f2_i" transform="matrix(11,0,0,11,274.2,997)" />
<use xlink:href="#f2_f" transform="matrix(11,0,0,11,281.7,997)" />
<use xlink:href="#f2_x" transform="matrix(11,0,0,11,290.1,997)" />
<use xlink:href="#f3_w" transform="matrix(12,0,0,12,558.4,1020.6)" />
<use xlink:href="#f3_a" transform="matrix(12,0,0,12,565.7,1020.6)" />
<use xlink:href="#f3_5" transform="matrix(12,0,0,12,577.7,1020.6)" />
<use xlink:href="#f3_j" transform="matrix(12,0,0,12,581.8,1020.6)" />
<use xlink:href="#f3_9" transform="matrix(12,0,0,12,593.2,1020.6)" />
<use xlink:href="#f3_s" transform="matrix(12,0,0,12,603.6,1020.6)" />
<use xlink:href="#f3_7" transform="matrix(12,0,0,12,611.1,1020.6)" />
<use xlink:href="#f3_c" transform="matrix(12,0,0,12,616.1,1020.6)" />
<use xlink:href="#f3_5" transform="matrix(12,0,0,12,628.3,1020.6)" />
<use xlink:href="#f3_s" transform="matrix(12,0,0,12,632.4,1020.6)" />
<use xlink:href="#f3_a" transform="matrix(12,0,0,12,639.9,1020.6)" />
<use xlink:href="#f3_5" transform="matrix(12,0,0,12,657.6,1020.6)" />
<use xlink:href="#f3_9" transform="matrix(12,0,0,12,661.7,1020.6)" />
<use xlink:href="#f3_j" transform="matrix(12,0,0,12,672.1,1020.6)" />
<use xlink:href="#f3_o" transform="matrix(12,0,0,12,683.4,1020.6)" />
<use xlink:href="#f3_4" transform="matrix(12,0,0,12,701.3,1020.6)" />
<use xlink:href="#f3_c" transform="matrix(12,0,0,12,713.3,1020.6)" />
<use xlink:href="#f3_7" transform="matrix(12,0,0,12,731.4,1020.6)" />
<use xlink:href="#f3_c" transform="matrix(12,0,0,12,736.4,1020.6)" />
<use xlink:href="#f3_9" transform="matrix(12,0,0,12,748.6,1020.6)" />
<use xlink:href="#f3_3" transform="matrix(12,0,0,12,759,1020.6)" />
<use xlink:href="#f2_17" transform="matrix(11,0,0,11,137.7,1019.2)" />
<use xlink:href="#f2_c" transform="matrix(11,0,0,11,147.9,1019.2)" />
<use xlink:href="#f2_b" transform="matrix(11,0,0,11,155.3,1019.2)" />
<use xlink:href="#f2_e" transform="matrix(11,0,0,11,162.8,1019.2)" />
<use xlink:href="#f2_d" transform="matrix(11,0,0,11,175.5,1019.2)" />
<use xlink:href="#f2_f" transform="matrix(11,0,0,11,180.1,1019.2)" />
<use xlink:href="#f2_9" transform="matrix(11,0,0,11,188.5,1019.2)" />
<use xlink:href="#f2_d" transform="matrix(11,0,0,11,199.3,1019.2)" />
<use xlink:href="#f2_j" transform="matrix(11,0,0,11,203.9,1019.2)" />
<use xlink:href="#f2_v" transform="matrix(11,0,0,11,208.6,1019.2)" />
<use xlink:href="#f2_h" transform="matrix(11,0,0,11,216.9,1019.2)" />
<use xlink:href="#f2_f" transform="matrix(11,0,0,11,222.5,1019.2)" />
<use xlink:href="#f2_9" transform="matrix(11,0,0,11,230.9,1019.2)" />
<use xlink:href="#f2_8" transform="matrix(11,0,0,11,241.7,1019.2)" />
<use xlink:href="#f2_c" transform="matrix(11,0,0,11,250.1,1019.2)" />
<use xlink:href="#f2_l" transform="matrix(11,0,0,11,261.7,1019.2)" />
<use xlink:href="#f2_c" transform="matrix(11,0,0,11,270.1,1019.2)" />
<use xlink:href="#f2_f" transform="matrix(11,0,0,11,277.6,1019.2)" />
<use xlink:href="#f2_l" transform="matrix(11,0,0,11,286,1019.2)" />
<use xlink:href="#f2_h" transform="matrix(11,0,0,11,294.4,1019.2)" />
<use xlink:href="#f2_b" transform="matrix(11,0,0,11,299.9,1019.2)" />
<use xlink:href="#f2_18" transform="matrix(11,0,0,11,307.3,1019.2)" />
<use xlink:href="#f2_14" transform="matrix(11,0,0,11,313,1019.2)" />
<use xlink:href="#f2_b" transform="matrix(11,0,0,11,317.5,1019.2)" />
<use xlink:href="#f2_x" transform="matrix(11,0,0,11,325,1019.2)" />
<use xlink:href="#f3_w" transform="matrix(12,0,0,12,488.3,1042.7)" />
<use xlink:href="#f3_x" transform="matrix(12,0,0,12,495.6,1042.7)" />
<use xlink:href="#f3_7" transform="matrix(12,0,0,12,502.8,1042.7)" />
<use xlink:href="#f3_l" transform="matrix(12,0,0,12,507.8,1042.7)" />
<use xlink:href="#f3_7" transform="matrix(12,0,0,12,517.7,1042.7)" />
<use xlink:href="#f3_8" transform="matrix(12,0,0,12,522.8,1042.7)" />
<use xlink:href="#f3_h" transform="matrix(12,0,0,12,533.3,1042.7)" />
<use xlink:href="#f3_y" transform="matrix(12,0,0,12,542.9,1042.7)" />
<use xlink:href="#f3_a" transform="matrix(12,0,0,12,556.1,1042.7)" />
<use xlink:href="#f3_d" transform="matrix(12,0,0,12,568,1042.7)" />
<use xlink:href="#f3_5" transform="matrix(12,0,0,12,575.3,1042.7)" />
<use xlink:href="#f3_t" transform="matrix(12,0,0,12,579.4,1042.7)" />
<use xlink:href="#f3_d" transform="matrix(12,0,0,12,591.3,1042.7)" />
<use xlink:href="#f3_s" transform="matrix(12,0,0,12,598.6,1042.7)" />
<use xlink:href="#f3_9" transform="matrix(12,0,0,12,606.1,1042.7)" />
<use xlink:href="#f3_c" transform="matrix(12,0,0,12,616.5,1042.7)" />
<use xlink:href="#f3_2" transform="matrix(12,0,0,12,628.7,1042.7)" />
<use xlink:href="#f3_n" transform="matrix(12,0,0,12,645.1,1042.7)" />
<use xlink:href="#f3_o" transform="matrix(12,0,0,12,656.5,1042.7)" />
<use xlink:href="#f3_7" transform="matrix(12,0,0,12,668.3,1042.7)" />
<use xlink:href="#f3_4" transform="matrix(12,0,0,12,679.3,1042.7)" />
<use xlink:href="#f3_8" transform="matrix(12,0,0,12,691.3,1042.7)" />
<use xlink:href="#f3_h" transform="matrix(12,0,0,12,701.8,1042.7)" />
<use xlink:href="#f3_9" transform="matrix(12,0,0,12,711.5,1042.7)" />
<use xlink:href="#f3_2" transform="matrix(12,0,0,12,721.8,1042.7)" />
<use xlink:href="#f3_a" transform="matrix(12,0,0,12,738.2,1042.7)" />
<use xlink:href="#f3_2" transform="matrix(12,0,0,12,750.1,1042.7)" />
<use xlink:href="#f3_n" transform="matrix(12,0,0,12,760.5,1042.7)" />
<use xlink:href="#f2_19" transform="matrix(11,0,0,11,137.7,1041.3)" />
<use xlink:href="#f2_o" transform="matrix(11,0,0,11,147,1041.3)" />
<use xlink:href="#f2_v" transform="matrix(11,0,0,11,155.4,1041.3)" />
<use xlink:href="#f2_b" transform="matrix(11,0,0,11,163.8,1041.3)" />
<use xlink:href="#f2_7" transform="matrix(11,0,0,11,175.5,1041.3)" />
<use xlink:href="#f2_8" transform="matrix(11,0,0,11,187.6,1041.3)" />
<use xlink:href="#f2_13" transform="matrix(11,0,0,11,196,1041.3)" />
<use xlink:href="#f2_b" transform="matrix(11,0,0,11,204.4,1041.3)" />
<use xlink:href="#f2_d" transform="matrix(11,0,0,11,211.8,1041.3)" />
<use xlink:href="#f2_2" transform="matrix(11,0,0,11,220.7,1041.3)" />
<use xlink:href="#f2_h" transform="matrix(11,0,0,11,225.4,1041.3)" />
<use xlink:href="#f2_c" transform="matrix(11,0,0,11,230.9,1041.3)" />
<use xlink:href="#f2_e" transform="matrix(11,0,0,11,238.4,1041.3)" />
<use xlink:href="#f2_11" transform="matrix(11,0,0,11,251,1041.3)" />
<use xlink:href="#f2_z" transform="matrix(11,0,0,11,263.5,1041.3)" />
<use xlink:href="#f2_j" transform="matrix(11,0,0,11,271.9,1041.3)" />
<use xlink:href="#f2_b" transform="matrix(11,0,0,11,276.7,1041.3)" />
<use xlink:href="#f2_m" transform="matrix(11,0,0,11,284,1041.3)" />
<use xlink:href="#f2_c" transform="matrix(11,0,0,11,288.7,1041.3)" />
<use xlink:href="#f2_b" transform="matrix(11,0,0,11,300.4,1041.3)" />
<use xlink:href="#f2_1a" transform="matrix(11,0,0,11,312,1041.3)" />
<use xlink:href="#f2_h" transform="matrix(11,0,0,11,324.1,1041.3)" />
<use xlink:href="#f2_l" transform="matrix(11,0,0,11,329.7,1041.3)" />
<use xlink:href="#f2_c" transform="matrix(11,0,0,11,338.1,1041.3)" />
<use xlink:href="#f2_e" transform="matrix(11,0,0,11,345.6,1041.3)" />
<use xlink:href="#f2_2" transform="matrix(11,0,0,11,353.9,1041.3)" />
<use xlink:href="#f2_j" transform="matrix(11,0,0,11,358.6,1041.3)" />
<use xlink:href="#f2_e" transform="matrix(11,0,0,11,363.3,1041.3)" />
<use xlink:href="#f2_b" transform="matrix(11,0,0,11,371.7,1041.3)" />
<use xlink:href="#f2_x" transform="matrix(11,0,0,11,379,1041.3)" />
<use xlink:href="#f3_w" transform="matrix(12,0,0,12,696.4,1064.9)" />
<use xlink:href="#f3_p" transform="matrix(12,0,0,12,703.7,1064.9)" />
<use xlink:href="#f3_c" transform="matrix(12,0,0,12,708.7,1064.9)" />
<use xlink:href="#f3_h" transform="matrix(12,0,0,12,720.9,1064.9)" />
<use xlink:href="#f3_f" transform="matrix(12,0,0,12,730.6,1064.9)" />
<use xlink:href="#f3_c" transform="matrix(12,0,0,12,749,1064.9)" />
<use xlink:href="#f3_g" transform="matrix(12,0,0,12,761.2,1064.9)" />
<use xlink:href="#f2_19" transform="matrix(11,0,0,11,137.7,1063.5)" />
<use xlink:href="#f2_b" transform="matrix(11,0,0,11,147,1063.5)" />
<use xlink:href="#f2_d" transform="matrix(11,0,0,11,154.4,1063.5)" />
<use xlink:href="#f2_8" transform="matrix(11,0,0,11,163.3,1063.5)" />
<use xlink:href="#f2_c" transform="matrix(11,0,0,11,171.7,1063.5)" />
<use xlink:href="#f2_b" transform="matrix(11,0,0,11,183.4,1063.5)" />
<use xlink:href="#f2_n" transform="matrix(11,0,0,11,190.9,1063.5)" />
<use xlink:href="#f2_o" transform="matrix(11,0,0,11,199.3,1063.5)" />
<use xlink:href="#f2_14" transform="matrix(11,0,0,11,207.5,1063.5)" />
<use xlink:href="#f2_x" transform="matrix(11,0,0,11,212.3,1063.5)" />
<use xlink:href="#f3_w" transform="matrix(12,0,0,12,587.1,1087)" />
<use xlink:href="#f3_x" transform="matrix(12,0,0,12,594.5,1087)" />
<use xlink:href="#f3_7" transform="matrix(12,0,0,12,601.6,1087)" />
<use xlink:href="#f3_l" transform="matrix(12,0,0,12,606.5,1087)" />
<use xlink:href="#f3_7" transform="matrix(12,0,0,12,616.6,1087)" />
<use xlink:href="#f3_8" transform="matrix(12,0,0,12,621.6,1087)" />
<use xlink:href="#f3_h" transform="matrix(12,0,0,12,632.2,1087)" />
<use xlink:href="#f3_y" transform="matrix(12,0,0,12,641.8,1087)" />
<use xlink:href="#f3_a" transform="matrix(12,0,0,12,654.9,1087)" />
<use xlink:href="#f3_j" transform="matrix(12,0,0,12,666.8,1087)" />
<use xlink:href="#f3_b" transform="matrix(12,0,0,12,678.2,1087)" />
<use xlink:href="#f3_a" transform="matrix(12,0,0,12,691.2,1087)" />
<use xlink:href="#f3_4" transform="matrix(12,0,0,12,708.9,1087)" />
<use xlink:href="#f3_c" transform="matrix(12,0,0,12,721,1087)" />
<use xlink:href="#f3_l" transform="matrix(12,0,0,12,739.2,1087)" />
<use xlink:href="#f3_f" transform="matrix(12,0,0,12,749.1,1087)" />
<use xlink:href="#f3_2" transform="matrix(12,0,0,12,761.6,1087)" />
<use xlink:href="#f2_t" transform="matrix(11,0,0,11,137.7,1085.6)" />
<use xlink:href="#f2_9" transform="matrix(11,0,0,11,147.9,1085.6)" />
<use xlink:href="#f2_2" transform="matrix(11,0,0,11,154.4,1085.6)" />
<use xlink:href="#f2_o" transform="matrix(11,0,0,11,159.2,1085.6)" />
<use xlink:href="#f2_8" transform="matrix(11,0,0,11,167.6,1085.6)" />
<use xlink:href="#f2_j" transform="matrix(11,0,0,11,175.8,1085.6)" />
<use xlink:href="#f2_c" transform="matrix(11,0,0,11,180.5,1085.6)" />
<use xlink:href="#f2_c" transform="matrix(11,0,0,11,192.3,1085.6)" />
<use xlink:href="#f2_d" transform="matrix(11,0,0,11,199.6,1085.6)" />
<use xlink:href="#f2_j" transform="matrix(11,0,0,11,208.6,1085.6)" />
<use xlink:href="#f2_8" transform="matrix(11,0,0,11,213.2,1085.6)" />
<use xlink:href="#f2_j" transform="matrix(11,0,0,11,221.6,1085.6)" />
<use xlink:href="#f2_f" transform="matrix(11,0,0,11,226.3,1085.6)" />
<use xlink:href="#f2_k" transform="matrix(11,0,0,11,234.6,1085.6)" />
<use xlink:href="#f2_b" transform="matrix(11,0,0,11,247.7,1085.6)" />
<use xlink:href="#f2_x" transform="matrix(11,0,0,11,255.1,1085.6)" />
<use xlink:href="#f3_w" transform="matrix(12,0,0,12,482.3,1109.2)" />
<use xlink:href="#f3_x" transform="matrix(12,0,0,12,489.7,1109.2)" />
<use xlink:href="#f3_a" transform="matrix(12,0,0,12,496.8,1109.2)" />
<use xlink:href="#f3_n" transform="matrix(12,0,0,12,508.7,1109.2)" />
<use xlink:href="#f3_5" transform="matrix(12,0,0,12,520.2,1109.2)" />
<use xlink:href="#f3_l" transform="matrix(12,0,0,12,524.3,1109.2)" />
<use xlink:href="#f3_5" transform="matrix(12,0,0,12,534.4,1109.2)" />
<use xlink:href="#f3_a" transform="matrix(12,0,0,12,538.5,1109.2)" />
<use xlink:href="#f3_z" transform="matrix(12,0,0,12,556.3,1109.2)" />
<use xlink:href="#f3_a" transform="matrix(12,0,0,12,561.4,1109.2)" />
<use xlink:href="#f3_e" transform="matrix(12,0,0,12,579.1,1109.2)" />
<use xlink:href="#f3_n" transform="matrix(12,0,0,12,591.3,1109.2)" />
<use xlink:href="#f3_n" transform="matrix(12,0,0,12,608.6,1109.2)" />
<use xlink:href="#f3_5" transform="matrix(12,0,0,12,620,1109.2)" />
<use xlink:href="#f3_j" transform="matrix(12,0,0,12,624.1,1109.2)" />
<use xlink:href="#f3_7" transform="matrix(12,0,0,12,635.6,1109.2)" />
<use xlink:href="#f3_f" transform="matrix(12,0,0,12,640.5,1109.2)" />
<use xlink:href="#f3_y" transform="matrix(12,0,0,12,653,1109.2)" />
<use xlink:href="#f3_4" transform="matrix(12,0,0,12,665.9,1109.2)" />
<use xlink:href="#f3_5" transform="matrix(12,0,0,12,678,1109.2)" />
<use xlink:href="#f3_l" transform="matrix(12,0,0,12,682,1109.2)" />
<use xlink:href="#f3_9" transform="matrix(12,0,0,12,692,1109.2)" />
<use xlink:href="#f3_j" transform="matrix(12,0,0,12,702.4,1109.2)" />
<use xlink:href="#f3_o" transform="matrix(12,0,0,12,713.7,1109.2)" />
<use xlink:href="#f3_2" transform="matrix(12,0,0,12,731.6,1109.2)" />
<use xlink:href="#f3_s" transform="matrix(12,0,0,12,742,1109.2)" />
<use xlink:href="#f3_9" transform="matrix(12,0,0,12,749.5,1109.2)" />
<use xlink:href="#f3_4" transform="matrix(12,0,0,12,759.8,1109.2)" />
<use xlink:href="#f2_q" transform="matrix(11,0,0,11,137.7,1107.8)" />
<use xlink:href="#f2_h" transform="matrix(11,0,0,11,147,1107.8)" />
<use xlink:href="#f2_b" transform="matrix(11,0,0,11,152.6,1107.8)" />
<use xlink:href="#f2_i" transform="matrix(11,0,0,11,160.1,1107.8)" />
<use xlink:href="#f2_2" transform="matrix(11,0,0,11,167.4,1107.8)" />
<use xlink:href="#f2_j" transform="matrix(11,0,0,11,172.1,1107.8)" />
<use xlink:href="#f2_i" transform="matrix(11,0,0,11,176.8,1107.8)" />
<use xlink:href="#f2_b" transform="matrix(11,0,0,11,184.3,1107.8)" />
<use xlink:href="#f2_c" transform="matrix(11,0,0,11,195.9,1107.8)" />
<use xlink:href="#f2_d" transform="matrix(11,0,0,11,203.3,1107.8)" />
<use xlink:href="#f2_i" transform="matrix(11,0,0,11,212.2,1107.8)" />
<use xlink:href="#f2_b" transform="matrix(11,0,0,11,219.6,1107.8)" />
<use xlink:href="#f2_9" transform="matrix(11,0,0,11,227.1,1107.8)" />
<use xlink:href="#f2_2" transform="matrix(11,0,0,11,233.5,1107.8)" />
<use xlink:href="#f2_c" transform="matrix(11,0,0,11,238.3,1107.8)" />
<use xlink:href="#f2_d" transform="matrix(11,0,0,11,245.7,1107.8)" />
<use xlink:href="#f2_d" transform="matrix(11,0,0,11,250.3,1107.8)" />
<use xlink:href="#f2_b" transform="matrix(11,0,0,11,255,1107.8)" />
<use xlink:href="#f2_e" transform="matrix(11,0,0,11,262.5,1107.8)" />
<use xlink:href="#f2_f" transform="matrix(11,0,0,11,270.9,1107.8)" />
<use xlink:href="#f2_6" transform="matrix(11,0,0,11,279.3,1107.8)" />
<use xlink:href="#f2_c" transform="matrix(11,0,0,11,283.9,1107.8)" />
<use xlink:href="#f2_9" transform="matrix(11,0,0,11,291.3,1107.8)" />
<use xlink:href="#f2_g" transform="matrix(11,0,0,11,297.9,1107.8)" />
<use xlink:href="#f2_b" transform="matrix(11,0,0,11,306.3,1107.8)" />
<use xlink:href="#f2_1i" transform="matrix(11,0,0,11,313.8,1107.8)" />
<use xlink:href="#f2_f" transform="matrix(11,0,0,11,322.2,1107.8)" />
<use xlink:href="#f2_d" transform="matrix(11,0,0,11,330.6,1107.8)" />
<use xlink:href="#f2_x" transform="matrix(11,0,0,11,335.2,1107.8)" />
<use xlink:href="#f3_w" transform="matrix(12,0,0,12,660.8,1131.3)" />
<use xlink:href="#f3_7" transform="matrix(12,0,0,12,668.1,1131.3)" />
<use xlink:href="#f3_3" transform="matrix(12,0,0,12,673,1131.3)" />
<use xlink:href="#f3_5" transform="matrix(12,0,0,12,686,1131.3)" />
<use xlink:href="#f3_o" transform="matrix(12,0,0,12,690.1,1131.3)" />
<use xlink:href="#f3_3" transform="matrix(12,0,0,12,702,1131.3)" />
<use xlink:href="#f3_f" transform="matrix(12,0,0,12,715,1131.3)" />
<use xlink:href="#f3_2" transform="matrix(12,0,0,12,727.5,1131.3)" />
<use xlink:href="#f3_7" transform="matrix(12,0,0,12,743.7,1131.3)" />
<use xlink:href="#f3_n" transform="matrix(12,0,0,12,748.7,1131.3)" />
<use xlink:href="#f3_o" transform="matrix(12,0,0,12,760.1,1131.3)" />
<use xlink:href="#f2_1f" transform="matrix(11,0,0,11,137.7,1129.9)" />
<use xlink:href="#f2_j" transform="matrix(11,0,0,11,149.7,1129.9)" />
<use xlink:href="#f2_b" transform="matrix(11,0,0,11,154.4,1129.9)" />
<use xlink:href="#f2_m" transform="matrix(11,0,0,11,161.9,1129.9)" />
<use xlink:href="#f2_c" transform="matrix(11,0,0,11,166.6,1129.9)" />
<use xlink:href="#f2_e" transform="matrix(11,0,0,11,174.1,1129.9)" />
<use xlink:href="#f2_b" transform="matrix(11,0,0,11,186.6,1129.9)" />
<use xlink:href="#f2_u" transform="matrix(11,0,0,11,198.2,1129.9)" />
<use xlink:href="#f2_y" transform="matrix(11,0,0,11,213.1,1129.9)" />
<use xlink:href="#f2_1v" transform="matrix(11,0,0,11,220.6,1129.9)" />
<use xlink:href="#f2_j" transform="matrix(11,0,0,11,229,1129.9)" />
<use xlink:href="#f2_i" transform="matrix(11,0,0,11,233.6,1129.9)" />
<use xlink:href="#f2_f" transform="matrix(11,0,0,11,241.1,1129.9)" />
<use xlink:href="#f2_x" transform="matrix(11,0,0,11,249.5,1129.9)" />
<use xlink:href="#f3_w" transform="matrix(12,0,0,12,589.9,1153.5)" />
<use xlink:href="#f3_e" transform="matrix(12,0,0,12,597.2,1153.5)" />
<use xlink:href="#f3_5" transform="matrix(12,0,0,12,609.4,1153.5)" />
<use xlink:href="#f3_j" transform="matrix(12,0,0,12,613.5,1153.5)" />
<use xlink:href="#f3_5" transform="matrix(12,0,0,12,625,1153.5)" />
<use xlink:href="#f3_a" transform="matrix(12,0,0,12,629.1,1153.5)" />
<use xlink:href="#f3_e" transform="matrix(12,0,0,12,646.8,1153.5)" />
<use xlink:href="#f3_5" transform="matrix(12,0,0,12,659,1153.5)" />
<use xlink:href="#f3_j" transform="matrix(12,0,0,12,663.1,1153.5)" />
<use xlink:href="#f3_7" transform="matrix(12,0,0,12,674.6,1153.5)" />
<use xlink:href="#f3_r" transform="matrix(12,0,0,12,679.6,1153.5)" />
<use xlink:href="#f3_a" transform="matrix(12,0,0,12,691.5,1153.5)" />
<use xlink:href="#f3_4" transform="matrix(12,0,0,12,709.2,1153.5)" />
<use xlink:href="#f3_c" transform="matrix(12,0,0,12,721.3,1153.5)" />
<use xlink:href="#f3_7" transform="matrix(12,0,0,12,739.3,1153.5)" />
<use xlink:href="#f3_c" transform="matrix(12,0,0,12,744.3,1153.5)" />
<use xlink:href="#f3_9" transform="matrix(12,0,0,12,756.6,1153.5)" />
<use xlink:href="#f3_7" transform="matrix(12,0,0,12,766.9,1153.5)" />
<use xlink:href="#f2_1t" transform="matrix(11,0,0,11,137.7,1152.1)" />
<use xlink:href="#f2_k" transform="matrix(11,0,0,11,154,1152.1)" />
<use xlink:href="#f2_j" transform="matrix(11,0,0,11,167.1,1152.1)" />
<use xlink:href="#f2_h" transform="matrix(11,0,0,11,171.7,1152.1)" />
<use xlink:href="#f2_c" transform="matrix(11,0,0,11,177.3,1152.1)" />
<use xlink:href="#f2_e" transform="matrix(11,0,0,11,184.8,1152.1)" />
<use xlink:href="#f2_d" transform="matrix(11,0,0,11,197.3,1152.1)" />
<use xlink:href="#f2_b" transform="matrix(11,0,0,11,202,1152.1)" />
<use xlink:href="#f2_9" transform="matrix(11,0,0,11,209.5,1152.1)" />
<use xlink:href="#f2_g" transform="matrix(11,0,0,11,220.2,1152.1)" />
<use xlink:href="#f2_d" transform="matrix(11,0,0,11,228.6,1152.1)" />
<use xlink:href="#f2_b" transform="matrix(11,0,0,11,233.3,1152.1)" />
<use xlink:href="#f2_11" transform="matrix(11,0,0,11,240.7,1152.1)" />
<use xlink:href="#f2_b" transform="matrix(11,0,0,11,249,1152.1)" />
<use xlink:href="#f2_9" transform="matrix(11,0,0,11,256.5,1152.1)" />
<use xlink:href="#f2_v" transform="matrix(11,0,0,11,267.3,1152.1)" />
<use xlink:href="#f2_f" transform="matrix(11,0,0,11,275.7,1152.1)" />
<use xlink:href="#f2_e" transform="matrix(11,0,0,11,284.1,1152.1)" />
<use xlink:href="#f2_j" transform="matrix(11,0,0,11,292.3,1152.1)" />
<use xlink:href="#f2_2" transform="matrix(11,0,0,11,297.1,1152.1)" />
<use xlink:href="#f2_b" transform="matrix(11,0,0,11,301.8,1152.1)" />
<use xlink:href="#f2_9" transform="matrix(11,0,0,11,309.2,1152.1)" />
<use xlink:href="#f2_6" transform="matrix(11,0,0,11,315.7,1152.1)" />
<use xlink:href="#f2_d" transform="matrix(11,0,0,11,320.4,1152.1)" />
<use xlink:href="#f2_j" transform="matrix(11,0,0,11,325,1152.1)" />
<use xlink:href="#f2_e" transform="matrix(11,0,0,11,329.7,1152.1)" />
<use xlink:href="#f2_8" transform="matrix(11,0,0,11,338.1,1152.1)" />
<use xlink:href="#f2_b" transform="matrix(11,0,0,11,346.5,1152.1)" />
<use xlink:href="#f2_9" transform="matrix(11,0,0,11,354,1152.1)" />
<use xlink:href="#f2_6" transform="matrix(11,0,0,11,360.5,1152.1)" />
<use xlink:href="#f2_12" transform="matrix(11,0,0,11,365.2,1152.1)" />
<use xlink:href="#f2_c" transform="matrix(11,0,0,11,373.5,1152.1)" />
<use xlink:href="#f2_h" transform="matrix(11,0,0,11,380.9,1152.1)" />
<use xlink:href="#f2_k" transform="matrix(11,0,0,11,386.6,1152.1)" />
<use xlink:href="#f2_f" transform="matrix(11,0,0,11,399.7,1152.1)" />
<use xlink:href="#f2_9" transform="matrix(11,0,0,11,408,1152.1)" />
<use xlink:href="#f2_b" transform="matrix(11,0,0,11,414.5,1152.1)" />
<use xlink:href="#f2_9" transform="matrix(11,0,0,11,422,1152.1)" />
<use xlink:href="#f2_x" transform="matrix(11,0,0,11,428.5,1152.1)" />
<use xlink:href="#f3_12" transform="matrix(11,0,0,11,137.5,1208.9)" />
<use xlink:href="#f3_1e" transform="matrix(11,0,0,11,148.2,1208.9)" />
</g>
</g>
<image preserveAspectRatio="none" x="299" y="177" width="338" height="223" xlink:href="img/1.png" />
<defs>
<path d="M56,294V424H453V294Z" 
id="f0_20"
transform="scale(0.001,-0.001)" />

<path d="M721,-14c0,0,-12,0,-12,9l4,28c0,0,17,82,17,338c0,0,0,105,-11,163c0,0,-11,58,-35,84c0,0,-25,26,-83,26H315c0,0,-43,-39,-67,-90c0,0,-25,-51,-25,-104c0,0,0,-59,17,-104c0,0,17,-45,35,-78c0,0,18,-34,18,-44c0,0,0,-26,-20,-95C273,119,252,50,231,0H26L87,214h69c0,0,23,0,23,14l-7,15c0,0,-15,27,-27,68c0,0,-11,41,-11,83c0,0,0,68,25,124c0,0,25,57,86,116H200c0,0,-45,0,-71,32c0,0,-27,33,-27,94c0,0,0,49,17,93c0,0,16,43,32,43c0,0,17,0,17,-10V869c0,0,0,-24,27,-24H637c0,0,73,0,103,-18c0,0,30,-17,46,-62c0,0,17,-46,24,-124c0,0,8,-78,8,-214V338c0,0,0,-279,-27,-311c0,0,-14,-16,-37,-28c0,0,-23,-13,-33,-13Z" 
id="f0_u"
transform="scale(0.001,-0.001)" />

<path d="M204,-8c0,0,-9,0,-11,5c0,0,-2,5,-2,22V549c0,0,0,40,-4,56c0,0,-4,16,-15,22c0,0,-10,7,-39,7H90c0,0,-33,0,-52,33c0,0,-19,33,-19,90c0,0,0,53,15,98c0,0,16,44,35,44c0,0,12,0,12,-13V872c0,0,0,-27,31,-27h42c0,0,79,0,103,-20c0,0,23,-19,23,-83V67c0,0,0,-16,-8,-26c0,0,-9,-10,-33,-30c0,0,-25,-19,-35,-19Z" 
id="f0_3"
transform="scale(0.001,-0.001)" />

<path d="M20,0L75,212H492c0,0,19,51,25,97c0,0,5,46,5,105c0,0,0,63,-6,124c0,0,-6,61,-23,78c0,0,-16,18,-66,18H112c0,0,-36,0,-57,40c0,0,-21,40,-21,101c0,0,0,50,16,87c0,0,16,36,36,36c0,0,13,0,13,-14V870c0,0,0,-25,34,-25H457c0,0,63,0,92,-11c0,0,28,-10,41,-36c0,0,13,-26,18,-107c0,0,4,-80,4,-174c0,0,0,-174,-13,-224c0,0,-4,-15,-21,-41c0,0,-17,-25,-31,-40H688L640,0Z" 
id="f0_13"
transform="scale(0.001,-0.001)" />

<path d="M216,0c0,0,-59,212,-83,350c0,0,-25,139,-25,198c0,0,0,76,23,127c0,0,-42,13,-58,43c0,0,-15,30,-15,72c0,0,0,40,20,74c0,0,20,34,37,34c0,0,10,0,10,-13c0,0,0,-42,69,-42c0,0,57,0,80,-21c0,0,22,-21,22,-62c0,0,0,-38,-7,-72c0,0,-6,-34,-12,-34c0,0,-6,0,-16,10c0,0,-10,10,-25,10c0,0,-25,0,-35,-24c0,0,-10,-24,-10,-71c0,0,0,-164,72,-374c0,0,38,80,116,231c0,0,87,168,121,238c0,0,-36,6,-52,34c0,0,-17,28,-17,66c0,0,0,41,21,82c0,0,20,42,37,42c0,0,9,0,10,-7c0,0,5,-22,13,-32c0,0,9,-11,32,-12l44,-4c0,0,87,-4,87,-94c0,0,0,-33,-7,-67c0,0,-8,-34,-16,-34l-16,10c0,0,-15,10,-30,10c0,0,-22,0,-39,-29c0,0,-18,-32,-39,-72c0,0,-21,-41,-178,-355H691l38,91c0,0,58,139,124,224c0,0,38,50,60,80c0,0,22,29,22,45c0,0,0,12,-7,19c0,0,-6,7,-27,12c0,0,-42,18,-60,41c0,0,-17,24,-17,59c0,0,0,29,11,56c0,0,12,27,27,43c0,0,16,16,26,16c0,0,9,-1,10,-6l4,-14c0,0,4,-21,27,-25l70,-13c0,0,32,-6,51,-30c0,0,20,-24,20,-61c0,0,-2,-45,-23,-87c0,0,-21,-41,-91,-127c0,0,-46,-57,-77,-116c0,0,-31,-59,-71,-161L706,0Z" 
id="f0_q"
transform="scale(0.001,-0.001)" />

<path d="M498,506c0,0,115,0,164,47c0,0,48,48,48,166c0,0,0,112,-46,156c0,0,-46,43,-169,43H390V506ZM793,0L514,423H390V74L518,54V0H36V54L154,74V926L26,945v55H504c0,0,221,0,330,-68c0,0,109,-68,109,-212c0,0,0,-215,-201,-276L1009,74L1117,54V0Z" 
id="f0_21"
transform="scale(0.001,-0.001)" />

<path d="M434,423c0,0,0,101,-7,142c0,0,-6,40,-22,60c0,0,-16,19,-45,19c0,0,-44,0,-66,-48c0,0,-22,-49,-22,-173ZM389,-14c0,0,-172,0,-254,89c0,0,-83,90,-83,279c0,0,0,184,79,274c0,0,79,91,238,91c0,0,142,0,206,-76c0,0,64,-76,64,-237V345H271V333c0,0,0,-111,18,-158c0,0,18,-47,58,-72c0,0,40,-25,110,-25c0,0,66,0,166,22V42C623,42,582,18,517,1c0,0,-66,-15,-128,-15Z" 
id="f0_f"
transform="scale(0.001,-0.001)" />

<path d="M276,-14c0,0,-57,0,-125,13C151,-1,83,10,48,23V214H97l28,-98c0,0,26,-26,69,-44c0,0,42,-17,86,-17c0,0,65,0,97,28c0,0,32,28,32,71c0,0,0,41,-31,65c0,0,-30,25,-133,57c0,0,-108,34,-154,92c0,0,-45,58,-45,143c0,0,0,95,71,152c0,0,71,57,183,57c0,0,77,0,207,-22V518H457l-24,82c0,0,-21,22,-60,35c0,0,-40,14,-75,14c0,0,-53,0,-79,-22c0,0,-26,-22,-26,-59c0,0,0,-40,32,-65c0,0,32,-26,132,-55c0,0,109,-34,155,-89c0,0,45,-55,45,-137c0,0,0,-117,-72,-177c0,0,-72,-59,-209,-59Z" 
id="f0_d"
transform="scale(0.001,-0.001)" />

<path d="M438,65c0,0,131,0,131,293c0,0,0,279,-130,279c0,0,-69,0,-127,-29V80c0,0,60,-15,126,-15ZM20,-325v50l76,18V634L19,652v49H304l1,-36c0,0,80,55,194,55c0,0,146,0,218,-86c0,0,71,-86,71,-271c0,0,0,-183,-83,-280c0,0,-83,-97,-238,-97c0,0,-79,0,-160,19c0,0,5,-48,5,-109V-257l103,-18v-50Z" 
id="f0_v"
transform="scale(0.001,-0.001)" />

<path d="M287,-18c0,0,-194,0,-194,206V634L23,652v49H309V217c0,0,0,-63,26,-98c0,0,27,-35,76,-35c0,0,57,0,113,25V634l-64,18v49H740V67L809,49V0H536L526,61L475,35c0,0,-104,-53,-188,-53Z" 
id="f0_14"
transform="scale(0.001,-0.001)" />

<path d="M327,-14c0,0,-101,0,-156,45c0,0,-55,45,-55,131V624H25v48l108,29l87,159H332V701H480V624H332V176c0,0,0,-49,20,-73c0,0,20,-25,53,-25c0,0,40,0,97,12V26c0,0,-22,-15,-76,-27c0,0,-55,-13,-99,-13Z" 
id="f0_6"
transform="scale(0.001,-0.001)" />

<path d="M345,75c0,0,50,0,110,26V351l-63,-2c0,0,-72,-3,-100,-38c0,0,-28,-35,-28,-113c0,0,0,-63,22,-93c0,0,23,-30,59,-30ZM266,-14c0,0,-217,0,-217,208c0,0,0,79,32,126c0,0,32,48,93,71c0,0,60,22,190,25l91,2V521c0,0,0,126,-104,126c0,0,-62,0,-140,-39L183,521H134V691c0,0,112,17,165,21c0,0,53,5,108,5c0,0,264,0,264,-194V67L741,49V0H483L466,54C466,54,408,14,361,0c0,0,-47,-14,-95,-14Z" 
id="f0_e"
transform="scale(0.001,-0.001)" />

<path d="M248,0L521,658H66v429H313V836l493,-1V716L504,0Z" 
id="f1_m"
transform="scale(0.001,-0.001)" />

<path d="M102,250V836H349V351L102,250Z" 
id="f1_7"
transform="scale(0.001,-0.001)" />

<path d="M154,-13c0,0,-38,0,-85,9V198c0,0,58,-15,103,-15c0,0,84,0,118,60c0,0,35,61,35,206c0,0,0,66,-7,105c0,0,-6,39,-24,63c0,0,-17,25,-44,33c0,0,-27,8,-73,8H66V836H225c0,0,198,0,275,-115c0,0,56,-84,65,-264c0,0,3,-55,3,-148c0,0,0,-177,71,-309L393,1c0,0,-53,130,-54,141c0,0,-28,-90,-65,-123c0,0,-38,-32,-120,-32Z" 
id="f1_b"
transform="scale(0.001,-0.001)" />

<path d="M534,0V425c0,0,0,109,-41,171c0,0,-41,62,-140,62H66V836H352c0,0,99,0,174,-20c0,0,75,-20,123,-55c0,0,48,-35,78,-87c0,0,30,-53,42,-113c0,0,12,-60,12,-136V0Z" 
id="f1_4"
transform="scale(0.001,-0.001)" />

<path d="M173,-6C173,-6,61,-6,15,9V177c0,0,73,-10,82,-10c0,0,37,0,52,30c0,0,14,29,14,116V658H18V836H516c0,0,262,0,341,-145c0,0,48,-89,48,-242V0H658V450c0,0,0,131,-37,171c0,0,-34,37,-105,37H411V313c0,0,0,-189,-67,-258C344,55,285,-6,173,-6Z" 
id="f1_l"
transform="scale(0.001,-0.001)" />

<path d="M180,0V198H433V918L173,864v196l258,54H705V198H958V0Z" 
id="f1_x"
transform="scale(0.001,-0.001)" />

<path d="M495,413c0,0,0,133,-34,190c0,0,-34,57,-105,57c0,0,-78,0,-119,-63c0,0,-42,-62,-42,-184ZM374,-14c0,0,-163,0,-239,87c0,0,-75,88,-75,283c0,0,0,183,77,273c0,0,76,91,219,91c0,0,269,0,269,-306V353H194V340c0,0,0,-103,23,-160c0,0,22,-57,70,-87c0,0,47,-29,124,-29c0,0,40,0,96,6c0,0,55,7,91,15V43C598,43,562,20,500,3c0,0,-61,-17,-126,-17Z" 
id="f2_c"
transform="scale(0.001,-0.001)" />

<path d="M278,-14c0,0,-52,0,-115,11c0,0,-63,10,-99,23V193H98L134,95c0,0,56,-50,146,-50c0,0,144,0,144,123c0,0,0,91,-114,130l-66,21c0,0,-75,25,-110,50c0,0,-34,26,-53,63c0,0,-18,36,-18,89c0,0,0,92,63,145c0,0,63,54,170,54c0,0,77,0,193,-23V544H454l-32,81c0,0,-39,35,-124,35c0,0,-61,0,-92,-30c0,0,-32,-30,-32,-80c0,0,0,-43,29,-72c0,0,28,-29,86,-48c0,0,110,-38,144,-55c0,0,33,-17,57,-42c0,0,23,-25,36,-57c0,0,13,-32,13,-79c0,0,0,-104,-66,-158c0,0,-66,-53,-195,-53Z" 
id="f2_9"
transform="scale(0.001,-0.001)" />

<path d="M399,-14c0,0,-341,0,-341,370c0,0,0,175,87,269c0,0,87,95,249,95c0,0,101,0,220,-23V501H573L541,625c0,0,-62,35,-149,35c0,0,-200,0,-200,-304c0,0,0,-158,61,-225c0,0,61,-67,189,-67c0,0,109,0,189,24V43C631,43,595,16,530,1c0,0,-64,-15,-131,-15Z" 
id="f2_i"
transform="scale(0.001,-0.001)" />

<path d="M31,0V33l88,19V649L31,668v33H235l7,-87c0,0,44,37,121,71c0,0,76,35,121,35h11V530H463l-43,82c0,0,-37,0,-88,-10c0,0,-52,-10,-89,-26V52L363,33V0Z" 
id="f2_h"
transform="scale(0.001,-0.001)" />

<path d="M32,0V33L151,52V649L52,668v33H275V52L395,33V0ZM201,850c0,0,-32,0,-56,24c0,0,-24,24,-24,56c0,0,0,34,24,58c0,0,24,24,56,24c0,0,34,0,58,-24c0,0,24,-24,24,-58c0,0,0,-32,-24,-56c0,0,-24,-24,-58,-24Z" 
id="f2_j"
transform="scale(0.001,-0.001)" />

<path d="M376,50c0,0,103,0,149,80c0,0,46,81,46,240c0,0,0,137,-47,204c0,0,-48,67,-148,67c0,0,-44,0,-87,-7c0,0,-44,-8,-63,-17V62c0,0,63,-12,150,-12Zm3,-64c0,0,-64,0,-141,14c0,0,-78,14,-136,37v971L0,1026v34H226V809c0,0,0,-40,-4,-148c0,0,74,59,188,59c0,0,143,0,219,-87c0,0,77,-87,77,-263c0,0,0,-189,-84,-287c0,0,-84,-97,-243,-97Z" 
id="f2_v"
transform="scale(0.001,-0.001)" />

<path d="M382,45c0,0,188,0,188,314c0,0,0,143,-47,213c0,0,-46,69,-141,69c0,0,-87,0,-146,-24V58c0,0,67,-13,146,-13ZM25,-325v35l88,18V649L34,668v33H231l1,-41c0,0,31,27,84,43c0,0,53,17,107,17c0,0,134,0,208,-94c0,0,73,-93,73,-267c0,0,0,-178,-80,-276c0,0,-80,-97,-232,-97c0,0,-84,0,-160,16c0,0,4,-53,4,-84V-272l123,-18v-35Z" 
id="f2_g"
transform="scale(0.001,-0.001)" />

<path d="M377,45c0,0,99,0,147,73c0,0,47,73,47,237c0,0,0,161,-47,233c0,0,-47,72,-147,72c0,0,-97,0,-141,-69c0,0,-44,-69,-44,-236c0,0,0,-169,45,-240c0,0,44,-70,140,-70Zm0,-59c0,0,-158,0,-238,94c0,0,-81,95,-81,274c0,0,0,178,81,272c0,0,80,94,244,94c0,0,160,0,241,-92c0,0,82,-92,82,-274c0,0,0,-368,-329,-368Z" 
id="f2_f"
transform="scale(0.001,-0.001)" />

<path d="M439,0V33l93,19V500c0,0,0,62,-30,97c0,0,-31,36,-94,36c0,0,-67,0,-165,-22V52L338,33V0H35V33l84,19V649L35,668v33H235l7,-57c0,0,57,33,122,54c0,0,65,22,108,22c0,0,91,0,137,-53c0,0,47,-53,47,-154V52L741,33V0Z" 
id="f2_e"
transform="scale(0.001,-0.001)" />

<path d="M383,64c0,0,85,0,152,28V645c0,0,-67,13,-152,13c0,0,-194,0,-194,-314c0,0,0,-141,48,-211c0,0,48,-69,146,-69ZM342,-14c0,0,-287,0,-287,358c0,0,0,184,82,280c0,0,81,96,239,96c0,0,81,0,163,-18c0,0,-4,25,-4,124v182l-118,18v34H659V52L745,33V0H548l-9,52c0,0,-84,-66,-197,-66Z" 
id="f2_8"
transform="scale(0.001,-0.001)" />

<path d="M289,-14c0,0,-179,0,-179,205V649L20,668v33H233V200c0,0,0,-128,120,-128c0,0,92,0,173,23V649L420,668v33H649V52L738,33V0H533l-6,57C527,57,474,28,405,7c0,0,-69,-21,-116,-21Z" 
id="f2_o"
transform="scale(0.001,-0.001)" />

<path d="M284,67c0,0,51,0,88,12c0,0,37,12,74,30V358l-98,-3c0,0,-100,-4,-135,-39c0,0,-35,-35,-35,-117c0,0,0,-132,106,-132ZM233,-14c0,0,-179,0,-179,208c0,0,0,70,27,116c0,0,27,46,87,70c0,0,60,24,173,27l105,3V519c0,0,0,72,-26,107c0,0,-27,34,-82,34c0,0,-75,0,-137,-35L176,538H134V691c0,0,121,26,213,26c0,0,115,0,169,-47c0,0,54,-47,54,-144V52L657,33V0H465L451,70c0,0,-85,-84,-218,-84Z" 
id="f2_b"
transform="scale(0.001,-0.001)" />

<path d="M254,-20c0,0,-39,0,-65,25c0,0,-26,27,-26,64c0,0,0,38,26,64c0,0,27,26,65,26c0,0,38,0,64,-26c0,0,26,-26,26,-64c0,0,0,-37,-26,-64c0,0,-26,-25,-64,-25ZM219,290l-47,710H335L289,290Z" 
id="f2_x"
transform="scale(0.001,-0.001)" />

<path d="M249,-14c0,0,-71,0,-107,42c0,0,-35,42,-35,119V639H15v33l93,29l76,159h47V701H391V639H231V161c0,0,0,-48,22,-73c0,0,22,-24,57,-24c0,0,44,0,106,12V26C416,26,389,8,340,-2c0,0,-49,-12,-91,-12Z" 
id="f2_2"
transform="scale(0.001,-0.001)" />

<path d="M289,-14c0,0,-179,0,-179,205V649L20,668v33H233V200c0,0,0,-128,120,-128c0,0,92,0,173,23V649L420,668v33H649V52L738,34V0H533l-6,57C527,57,474,28,405,6c0,0,-69,-20,-116,-20Zm24,849v24l147,203H618v-27L354,835Z" 
id="f2_3"
transform="scale(0.001,-0.001)" />

<path d="M430,68c0,0,29,0,60,8c0,0,32,8,54,21V630c0,0,-51,12,-114,12c0,0,-76,0,-112,-75c0,0,-37,-75,-37,-233c0,0,0,-134,35,-200c0,0,35,-66,114,-66Zm11,-393v50l103,18V-97c0,0,0,70,7,141c0,0,-73,-58,-182,-58c0,0,-156,0,-231,91c0,0,-75,92,-75,277c0,0,0,179,84,272c0,0,84,94,248,94c0,0,53,0,208,-18l89,33h67V-257l77,-18v-50Z" 
id="f0_1r"
transform="scale(0.001,-0.001)" />

<path d="M254,-20c0,0,-52,0,-88,34c0,0,-36,36,-36,88c0,0,0,52,36,88c0,0,35,36,88,36c0,0,51,0,87,-36c0,0,36,-36,36,-88c0,0,0,-51,-35,-87c0,0,-36,-35,-88,-35ZM210,313l-68,687H365L296,313Z" 
id="f0_l"
transform="scale(0.001,-0.001)" />

<path d="M41,0V49l69,18V634L41,652v49H313l11,-61l50,26c0,0,105,54,188,54c0,0,194,0,194,-207V67L827,49V0H478V49l63,18V484c0,0,0,63,-27,98c0,0,-26,35,-75,35c0,0,-57,0,-114,-25V67L389,49V0Z" 
id="f0_o"
transform="scale(0.001,-0.001)" />

<path d="M156,-317V454l139,56V-317ZM505,0L806,729H139V835H967V753L650,0Z" 
id="f3_3"
transform="scale(0.001,-0.001)" />

<path d="M585,0V426c0,0,0,54,-8,98c0,0,-8,44,-27,83c0,0,-19,40,-49,66c0,0,-30,26,-77,41c0,0,-47,15,-108,15H66V836H315c0,0,94,0,166,-20c0,0,71,-20,116,-54c0,0,46,-35,75,-88c0,0,28,-52,40,-112c0,0,12,-60,12,-137V0Z" 
id="f3_9"
transform="scale(0.001,-0.001)" />

<path d="M139,0V106H400c0,0,176,0,253,71c0,0,78,72,78,250c0,0,0,163,-80,233c0,0,-81,69,-250,69H278L277,564c0,0,-1,-54,26,-80c0,0,27,-25,82,-25c0,0,30,0,80,9V355c0,0,-61,-12,-111,-12c0,0,-100,0,-157,55c0,0,-58,55,-58,186V836H456c0,0,193,0,303,-109c0,0,110,-109,110,-309c0,0,0,-200,-110,-309C759,109,648,0,456,0Z" 
id="f3_j"
transform="scale(0.001,-0.001)" />

<path d="M287,0L589,729H66v386H205V836l547,-1l-2,-82L433,0Z" 
id="f3_2"
transform="scale(0.001,-0.001)" />

<path d="M154,0V454l138,56V0ZM722,0V454c0,0,0,161,-49,218c0,0,-48,57,-186,57H139V836H485c0,0,207,0,291,-93c0,0,83,-94,83,-318V0Z" 
id="f3_a"
transform="scale(0.001,-0.001)" />

<path d="M152,0V473c0,0,0,94,28,161c0,0,29,66,71,95H66V836H463V729H404c0,0,-65,0,-89,-57c0,0,-25,-58,-25,-199V0Z" 
id="f3_i"
transform="scale(0.001,-0.001)" />

<path d="M139,0V836H485c0,0,206,0,290,-90c0,0,84,-89,84,-294V0H721V473c0,0,0,147,-49,202c0,0,-48,54,-186,54H277V0Z" 
id="f3_r"
transform="scale(0.001,-0.001)" />

<path d="M66,0V107H554V452c0,0,0,56,-4,93c0,0,-4,37,-18,75c0,0,-14,38,-40,60c0,0,-26,22,-71,36c0,0,-45,13,-110,13H66V836H312c0,0,91,0,157,-17c0,0,66,-17,109,-49c0,0,44,-32,69,-84c0,0,26,-52,36,-114c0,0,10,-62,10,-147V107H817V0Z" 
id="f3_8"
transform="scale(0.001,-0.001)" />

<path d="M121,0V211L528,570c0,0,54,50,80,96c0,0,27,47,27,98c0,0,0,78,-53,126c0,0,-53,48,-140,48c0,0,-67,0,-147,-29c0,0,-80,-28,-171,-85v245c0,0,97,32,192,48c0,0,95,17,186,17c0,0,199,0,310,-88c0,0,111,-88,111,-245c0,0,0,-91,-47,-170c0,0,-47,-79,-197,-211L441,211H931V0Z" 
id="f1_y"
transform="scale(0.001,-0.001)" />

<path d="M445,-20c0,0,-86,0,-172,13c0,0,-86,13,-170,40V255c0,0,80,-40,160,-60c0,0,79,-21,156,-21c0,0,114,0,174,40c0,0,61,39,61,113c0,0,0,76,-62,115c0,0,-62,39,-184,39H293V666H414c0,0,108,0,161,34c0,0,53,34,53,103c0,0,0,65,-52,100c0,0,-51,35,-145,35c0,0,-69,0,-140,-16c0,0,-70,-15,-140,-46v210c0,0,85,24,168,36c0,0,83,12,164,12c0,0,217,0,325,-71c0,0,107,-71,107,-215c0,0,0,-98,-51,-160c0,0,-52,-62,-152,-88c0,0,112,-29,171,-101c0,0,59,-72,59,-183c0,0,0,-165,-127,-251c0,0,-127,-85,-370,-85Z" 
id="f1_z"
transform="scale(0.001,-0.001)" />

<path d="M74,357V479H476V357Z" 
id="f3_13"
transform="scale(0.001,-0.001)" />

<path d="M180,0L66,836H203L258,443c0,0,36,1,64,6c0,0,28,6,49,18c0,0,20,12,35,26c0,0,15,13,26,36c0,0,11,24,17,44c0,0,7,20,12,55c0,0,6,34,9,60c0,0,3,26,8,71c0,0,4,45,9,77H610c0,0,-13,-194,-31,-271c0,0,-31,-127,-111,-179c0,0,-71,-45,-196,-50L304,107c0,0,73,0,130,5c0,0,56,6,111,21c0,0,54,15,94,40c0,0,40,25,77,64c0,0,37,39,63,94c0,0,25,54,46,128c0,0,21,73,34,166c0,0,13,94,20,211h138c0,0,-14,-124,-29,-218c0,0,-16,-94,-39,-179c0,0,-22,-85,-50,-146c0,0,-28,-61,-68,-112c0,0,-39,-51,-87,-84C744,97,696,65,632,42C632,42,568,19,492,10C492,10,417,0,320,0Z" 
id="f3_b"
transform="scale(0.001,-0.001)" />

<path d="M102,312V836H241V369L102,312Z" 
id="f3_5"
transform="scale(0.001,-0.001)" />

<path d="M66,0V106H322c0,0,75,0,127,23c0,0,53,23,82,67c0,0,29,43,42,98c0,0,13,54,13,124c0,0,0,70,-13,124c0,0,-13,55,-42,98c0,0,-29,44,-82,67c0,0,-52,23,-127,23H66V836H322c0,0,87,0,157,-24c0,0,70,-24,115,-64c0,0,45,-40,74,-94c0,0,30,-55,43,-113c0,0,13,-59,13,-123c0,0,0,-64,-13,-123c0,0,-13,-58,-43,-113c0,0,-29,-54,-74,-94C594,88,549,48,479,24C479,24,409,0,322,0Z" 
id="f3_h"
transform="scale(0.001,-0.001)" />

<path d="M359,-270c0,0,124,0,192,46c0,0,67,47,67,129c0,0,0,43,-26,67c0,0,-26,24,-79,24H242c0,0,-32,-27,-51,-69c0,0,-20,-41,-20,-77c0,0,0,-64,46,-92c0,0,46,-28,142,-28Zm11,561c0,0,81,0,115,47c0,0,34,47,34,141c0,0,0,100,-35,142c0,0,-35,42,-113,42c0,0,-78,0,-114,-43c0,0,-37,-42,-37,-141c0,0,0,-98,36,-143c0,0,36,-45,114,-45ZM359,-329c0,0,-143,0,-218,44c0,0,-75,43,-75,125c0,0,0,39,27,78c0,0,26,38,98,89c0,0,-43,14,-72,48c0,0,-29,35,-29,74L208,262c0,0,-118,55,-118,217c0,0,0,115,73,178c0,0,73,63,211,63c0,0,28,0,71,-6c0,0,44,-6,67,-13l165,83l26,-32L599,644c0,0,50,-56,50,-165c0,0,0,-120,-72,-182c0,0,-73,-62,-208,-62c0,0,-62,0,-114,11L208,148c0,0,2,-13,29,-24c0,0,27,-12,67,-12H512c0,0,113,0,168,-49c0,0,55,-49,55,-134c0,0,0,-79,-44,-137c0,0,-43,-58,-128,-90c0,0,-84,-31,-204,-31Z" 
id="f2_l"
transform="scale(0.001,-0.001)" />

<path d="M360,-14L72,649L0,668v33H327V668L216,648L420,164L615,649L504,668v33H764V668L697,652L416,-14Z" 
id="f2_z"
transform="scale(0.001,-0.001)" />

<path d="M31,0V33L150,52v956L31,1026v34H274V52L394,33V0Z" 
id="f2_d"
transform="scale(0.001,-0.001)" />

<path d="M562,411V877L247,411ZM562,0V202H68V449l447,665H834V411H993V202H834V0Z" 
id="f1_11"
transform="scale(0.001,-0.001)" />

<path d="M231,0V190H382V0Zm15,359L231,625v489H382V625L367,359Z" 
id="f3_w"
transform="scale(0.001,-0.001)" />

<path d="M736,107V473c0,0,0,147,-48,202c0,0,-49,54,-187,54H278V107ZM139,0V836H499c0,0,105,0,177,-22c0,0,72,-21,116,-69c0,0,44,-49,64,-119c0,0,19,-71,19,-174V0Z" 
id="f3_e"
transform="scale(0.001,-0.001)" />

<path d="M114,0l60,312c0,0,2,12,8,39c0,0,6,27,7,37c0,0,2,11,5,30c0,0,2,19,4,33c0,0,1,15,1,31c0,0,0,48,-35,146c0,0,-35,98,-98,208H228c0,0,3,-8,27,-67c0,0,25,-58,41,-117c0,0,21,53,50,90c0,0,29,37,57,57c0,0,29,21,65,32c0,0,37,11,65,14c0,0,28,3,67,3c0,0,300,0,300,-396V0H480V106H761V452c0,0,0,146,-46,215c0,0,-45,70,-118,70c0,0,-134,0,-198,-119c0,0,-36,-68,-67,-222c0,0,-2,-10,-6,-27L253,0Z" 
id="f3_f"
transform="scale(0.001,-0.001)" />

<path d="M112,-5c0,0,-39,0,-97,11V113c0,0,48,-10,77,-10c0,0,53,0,70,42c0,0,17,43,17,164V729H50V836H501c0,0,107,0,179,-25c0,0,72,-25,112,-77c0,0,40,-51,57,-118c0,0,16,-67,16,-164V0H726V454c0,0,0,55,-3,92c0,0,-4,37,-17,75c0,0,-14,38,-38,59c0,0,-24,22,-65,36c0,0,-42,13,-102,13H318V309c0,0,0,-160,-46,-237C272,72,226,-5,112,-5Z" 
id="f3_4"
transform="scale(0.001,-0.001)" />

<path d="M139,0V138c0,0,0,61,8,112c0,0,7,52,19,87c0,0,11,36,30,66c0,0,19,31,35,49c0,0,17,19,41,35c0,0,25,17,41,25c0,0,17,7,40,17L141,836H303L613,388c0,0,20,10,33,18c0,0,13,8,34,28c0,0,20,20,33,44c0,0,13,25,22,66c0,0,10,41,10,92V836H882V698c0,0,0,-61,-7,-112c0,0,-6,-52,-18,-88c0,0,-12,-36,-30,-66c0,0,-19,-30,-36,-49c0,0,-17,-18,-41,-34c0,0,-24,-17,-40,-25c0,0,-17,-8,-41,-17L882,0H720L409,448c0,0,-21,-11,-34,-19c0,0,-13,-8,-34,-27c0,0,-21,-20,-34,-44c0,0,-12,-25,-22,-66c0,0,-9,-41,-9,-92V0Z" 
id="f3_c"
transform="scale(0.001,-0.001)" />

<path d="M71,-141V-15L289,62L66,836H210L416,109c0,0,99,42,153,98c0,0,53,56,80,155c0,0,26,98,26,262V836H817V624c0,0,0,-88,-7,-154c0,0,-7,-67,-25,-132c0,0,-18,-66,-51,-116c0,0,-33,-51,-84,-98c0,0,-50,-48,-123,-87c0,0,-72,-39,-169,-74L71,-141Z" 
id="f3_n"
transform="scale(0.001,-0.001)" />

<path d="M448,506c0,0,134,0,190,49c0,0,57,50,57,168c0,0,0,114,-56,162c0,0,-56,48,-195,48H316V506ZM777,0L496,438H316V60L468,40V0H54V40L172,60V941L44,960v40H476c0,0,188,0,277,-63c0,0,90,-64,90,-204c0,0,0,-100,-54,-173c0,0,-55,-73,-151,-101L909,60L1017,40V0Z" 
id="f2_16"
transform="scale(0.001,-0.001)" />

<path d="M139,0V836H278V0Z" 
id="f3_7"
transform="scale(0.001,-0.001)" />

<path d="M394,460c0,0,126,0,186,57c0,0,60,57,60,187c0,0,0,123,-57,176c0,0,-58,53,-194,53H316V460ZM54,0V40L172,60V941L44,960v40H421c0,0,368,0,368,-295c0,0,0,-153,-93,-233c0,0,-93,-80,-267,-80H316V60L475,40V0Z" 
id="f2_q"
transform="scale(0.001,-0.001)" />

<path d="M148,-329c0,0,-58,0,-114,13v151H69l24,-71c0,0,23,-17,64,-17c0,0,39,0,72,22c0,0,33,23,60,67c0,0,27,44,68,157L90,649L19,668v33H344V668L233,648L423,158L606,649L497,668v33H758V668L685,652L411,-43c0,0,-48,-124,-84,-177c0,0,-36,-54,-79,-82c0,0,-44,-27,-100,-27Z" 
id="f2_11"
transform="scale(0.001,-0.001)" />

<path d="M431,0V33L535,52V499c0,0,0,62,-32,96c0,0,-32,33,-95,33c0,0,-66,0,-163,-22V52L350,33V0H32V33l89,19V649L32,668v33H237l6,-57c0,0,56,32,119,54c0,0,62,22,110,22c0,0,52,0,95,-20c0,0,44,-19,66,-62c0,0,57,32,134,57c0,0,77,25,128,25c0,0,179,0,179,-207V52l90,-19V0H846V33L950,52V499c0,0,0,129,-119,129c0,0,-19,0,-45,-3c0,0,-26,-3,-52,-7c0,0,-25,-4,-49,-8c0,0,-23,-5,-39,-8c0,0,13,-41,13,-89V52L764,33V0Z" 
id="f2_k"
transform="scale(0.001,-0.001)" />

<path d="M495,413c0,0,0,133,-34,190c0,0,-34,57,-105,57c0,0,-78,0,-119,-62c0,0,-42,-63,-42,-185ZM374,-14c0,0,-163,0,-239,87c0,0,-75,88,-75,283c0,0,0,183,77,274c0,0,76,90,219,90c0,0,269,0,269,-306V353H194V339c0,0,0,-103,23,-160c0,0,22,-57,70,-86c0,0,47,-30,124,-30c0,0,40,0,96,6c0,0,55,7,91,15V43C598,43,562,19,500,2c0,0,-61,-16,-126,-16ZM285,835v24l146,203H590v-27L326,835Z" 
id="f2_y"
transform="scale(0.001,-0.001)" />

<path d="M138,-7c0,0,-34,0,-72,10V129c0,0,25,-8,52,-8c0,0,33,0,58,5c0,0,26,5,58,24c0,0,33,20,53,54c0,0,21,34,36,97c0,0,15,64,15,151c0,0,0,113,-19,173c0,0,-19,60,-56,82c0,0,-38,22,-107,22H89V836h72c0,0,165,0,240,-91c0,0,76,-91,76,-293c0,0,0,-107,26,-227c0,0,25,-119,83,-225H437c0,0,-43,101,-62,184c0,0,-24,-60,-51,-99c0,0,-26,-38,-56,-58C268,27,239,7,209,0c0,0,-30,-7,-71,-7Z" 
id="f3_s"
transform="scale(0.001,-0.001)" />

<path d="M522,92c0,0,247,0,247,333c0,0,0,88,-17,146c0,0,-17,58,-53,91c0,0,-35,33,-82,46c0,0,-48,14,-116,14H276V419c0,0,0,-327,246,-327Zm0,-112c0,0,-193,0,-289,109c0,0,-95,110,-95,337V836H501c0,0,213,0,309,-93c0,0,96,-94,96,-317c0,0,0,-227,-95,-337C811,89,715,-20,522,-20Z" 
id="f3_o"
transform="scale(0.001,-0.001)" />

<path d="M44,0V40L172,60V941L44,960v40H471V960L316,941V65H513c0,0,159,0,234,14l46,208h48L828,0Z" 
id="f2_17"
transform="scale(0.001,-0.001)" />

<path d="M64,0V34L168,59V639H47v36l121,29v49c0,0,0,155,61,239c0,0,62,84,173,84c0,0,58,0,107,-15V908H472l-33,92c0,0,-26,16,-62,16c0,0,-47,0,-66,-42c0,0,-19,-42,-19,-157V701H478V639H292V59L443,34V0Z" 
id="f2_18"
transform="scale(0.001,-0.001)" />

<path d="M32,0V34L151,52V649L52,668v33H275V52L395,34V0Zm71,835v24l146,203H408v-27L144,835Z" 
id="f2_14"
transform="scale(0.001,-0.001)" />

<path d="M354,-200c0,0,-112,175,-167,343c0,0,-56,170,-56,337c0,0,0,166,55,335c0,0,55,169,168,345H473c0,0,-100,-172,-148,-340c0,0,-48,-168,-48,-340c0,0,0,-173,48,-342c0,0,49,-168,148,-338Z" 
id="f3_x"
transform="scale(0.001,-0.001)" />

<path d="M495,0V729H66V836H781V729H634V0Z" 
id="f3_l"
transform="scale(0.001,-0.001)" />

<path d="M122,-200c0,0,99,170,148,338c0,0,49,169,49,342c0,0,0,172,-49,340c0,0,-49,168,-148,340H241c0,0,112,-176,168,-345c0,0,55,-169,55,-335c0,0,0,-167,-55,-337c0,0,-56,-168,-168,-343Z" 
id="f3_y"
transform="scale(0.001,-0.001)" />

<path d="M66,0V107H332V555c0,0,0,92,-37,133c0,0,-37,41,-116,41H85V836h94c0,0,153,0,223,-66c0,0,69,-66,69,-231V0Z" 
id="f3_d"
transform="scale(0.001,-0.001)" />

<path d="M522,-20c0,0,-196,0,-290,99c0,0,-94,100,-94,324V836H276V397c0,0,0,-86,16,-147c0,0,17,-60,50,-94c0,0,34,-34,77,-49c0,0,43,-15,103,-15c0,0,59,0,102,15c0,0,44,15,77,49c0,0,33,34,50,94c0,0,17,61,17,147c0,0,0,84,-8,143c0,0,-7,58,-25,105c0,0,-17,47,-51,69c0,0,-33,23,-83,23c0,0,-50,0,-119,-22V821c0,0,85,23,150,23c0,0,76,0,130,-30c0,0,53,-31,85,-90c0,0,31,-59,45,-138c0,0,13,-78,13,-183c0,0,0,-224,-93,-324c0,0,-94,-99,-290,-99Z" 
id="f3_t"
transform="scale(0.001,-0.001)" />

<path d="M410,-14c0,0,-80,0,-162,14c0,0,-81,14,-144,38V270h48L178,134c0,0,28,-35,95,-62c0,0,68,-27,134,-27c0,0,104,0,163,53c0,0,58,54,58,148c0,0,0,54,-23,89c0,0,-22,35,-59,59c0,0,-37,24,-84,41c0,0,-47,17,-97,34c0,0,-49,17,-96,38c0,0,-47,21,-84,53c0,0,-37,32,-60,79c0,0,-23,48,-23,117c0,0,0,119,90,187c0,0,89,68,248,68c0,0,121,0,263,-32V771H654L628,893c0,0,-76,55,-188,55c0,0,-100,0,-156,-40c0,0,-56,-41,-56,-112c0,0,0,-49,22,-81c0,0,23,-32,60,-55c0,0,37,-22,84,-39c0,0,48,-16,97,-34c0,0,50,-17,97,-39c0,0,48,-22,85,-56c0,0,36,-34,59,-83c0,0,23,-49,23,-120c0,0,0,-145,-89,-224c0,0,-89,-79,-256,-79Z" 
id="f2_19"
transform="scale(0.001,-0.001)" />

<path d="M557,-14c0,0,-199,0,-298,89c0,0,-99,90,-99,255V941L32,960v40H432V960L304,941V341c0,0,0,-273,264,-273c0,0,144,0,220,68c0,0,77,68,77,202V941L730,960v40h341V960L943,941V344c0,0,0,-180,-99,-269c0,0,-99,-89,-287,-89Z" 
id="f2_7"
transform="scale(0.001,-0.001)" />

<path d="M191,-20c0,0,-39,0,-65,25c0,0,-25,27,-25,64c0,0,0,38,26,64c0,0,26,26,64,26c0,0,38,0,64,-26c0,0,26,-26,26,-64c0,0,0,-37,-25,-64c0,0,-26,-25,-65,-25Z" 
id="f2_13"
transform="scale(0.001,-0.001)" />

<path d="M64,-325c0,0,-46,0,-107,14v148H-8l19,-81c0,0,25,-21,62,-21c0,0,44,0,67,47c0,0,22,47,22,152V649L57,668v33H286V-28c0,0,0,-146,-57,-221c0,0,-56,-76,-165,-76ZM213,850c0,0,-34,0,-58,24c0,0,-24,24,-24,56c0,0,0,34,24,58c0,0,24,24,58,24c0,0,32,0,56,-24c0,0,24,-24,24,-58c0,0,0,-32,-24,-56c0,0,-24,-24,-56,-24Z" 
id="f2_m"
transform="scale(0.001,-0.001)" />

<path d="M681,416L504,902L333,416ZM669,0V40L803,60L704,348H310L210,60L344,40V0H15V40L128,60l341,949H611L965,60L1092,40V0Z" 
id="f2_1a"
transform="scale(0.001,-0.001)" />

<path d="M139,-317V836H278V-317Z" 
id="f3_p"
transform="scale(0.001,-0.001)" />

<path d="M66,0V106H564L66,836H228L516,413c0,0,3,2,9,6c0,0,17,13,27,21c0,0,10,8,26,27c0,0,17,20,26,40c0,0,9,21,16,54c0,0,7,34,7,75V836H764V698c0,0,0,-55,-7,-102c0,0,-7,-47,-16,-79c0,0,-10,-33,-27,-62c0,0,-18,-29,-32,-46c0,0,-14,-17,-37,-35c0,0,-22,-17,-36,-25c0,0,-13,-8,-36,-20L767,53V0Z" 
id="f3_g"
transform="scale(0.001,-0.001)" />

<path d="M383,64c0,0,44,0,87,7c0,0,43,7,65,17V645c0,0,-67,13,-152,13c0,0,-194,0,-194,-309c0,0,0,-143,48,-214c0,0,47,-71,146,-71Zm56,-389v35l96,18V-77c0,0,0,73,7,124c0,0,-79,-61,-200,-61c0,0,-287,0,-287,362c0,0,0,180,81,276c0,0,81,96,237,96c0,0,84,0,166,-18l67,33h53V-272l77,-18v-35Z" 
id="f2_n"
transform="scale(0.001,-0.001)" />

<path d="M44,0V40L172,60V941L44,960v40H794V760H745L721,922c0,0,-83,11,-241,11H316V543H586l23,119h48V354H609L586,475H316V67H513c0,0,193,0,252,12l43,185h49L843,0Z" 
id="f2_t"
transform="scale(0.001,-0.001)" />

<path d="M147,700v414H274V700Z" 
id="f3_z"
transform="scale(0.001,-0.001)" />

<path d="M0,-14L351,1007h73L75,-14Z" 
id="f2_6"
transform="scale(0.001,-0.001)" />

<path d="M35,0V34l84,18V649L35,668v33H235l7,-56c0,0,57,32,122,54c0,0,65,21,108,21c0,0,91,0,137,-53c0,0,47,-53,47,-154V52L741,34V0H439V34l93,18V500c0,0,0,62,-30,97c0,0,-31,36,-94,36c0,0,-67,0,-165,-22V52L338,34V0ZM481,834c0,0,-36,0,-66,16c0,0,-30,16,-57,36c0,0,-27,20,-52,36c0,0,-25,16,-49,16c0,0,-24,0,-39,-9c0,0,-14,-9,-23,-26c0,0,-8,-17,-13,-54H143c0,0,11,180,146,180c0,0,36,0,66,-16c0,0,30,-16,57,-35c0,0,27,-20,52,-36c0,0,25,-16,49,-16c0,0,32,0,50,18c0,0,18,19,25,70h39c0,0,-12,-180,-146,-180Z" 
id="f2_1i"
transform="scale(0.001,-0.001)" />

<path d="M536,-22L130,941L17,960v40H421V960L287,941L590,205L892,941L761,960v40h325V960L976,941L574,-22Z" 
id="f2_1f"
transform="scale(0.001,-0.001)" />

<path d="M617,0L251,860V60L385,40V0H44V40L172,60V941L44,960v40H347L672,239l355,761h287V960L1185,941V60L1314,40V0H908V40l134,20V859L643,0Z" 
id="f2_u"
transform="scale(0.001,-0.001)" />

<path d="M13,0V34L95,46L325,350L122,649L40,668v33H357V668L264,648L399,446L554,649l-96,19v33H710V668L630,652L433,397L663,50L745,34V0H427V34l94,17L359,299L169,50L266,34V0Z" 
id="f2_1v"
transform="scale(0.001,-0.001)" />

<path d="M322,0V40L481,60V389L130,941L17,960v40H440V960L306,941L593,480L866,941L739,960v40h326V960L955,941L625,394V60L784,40V0Z" 
id="f2_1t"
transform="scale(0.001,-0.001)" />

<path d="M442,0V33l93,19V504c0,0,0,129,-124,129c0,0,-70,0,-168,-22V52L338,33V0H31V33l88,19v956L15,1026v34H243V756c0,0,0,-77,-5,-112c0,0,54,31,122,53c0,0,68,23,115,23c0,0,91,0,137,-53c0,0,47,-53,47,-154V52L744,33V0Z" 
id="f2_12"
transform="scale(0.001,-0.001)" />

<path d="M190,0V127H436V977L168,923v137l267,54H586V127H832V0Z" 
id="f3_12"
transform="scale(0.001,-0.001)" />

<path d="M486,98c0,0,107,0,169,58c0,0,62,57,62,157c0,0,0,101,-62,159c0,0,-61,57,-169,57c0,0,-108,0,-169,-57c0,0,-62,-58,-62,-159c0,0,0,-100,62,-158c0,0,61,-57,169,-57Zm-1,549c0,0,97,0,152,49c0,0,54,48,54,135c0,0,0,87,-54,135c0,0,-55,49,-152,49c0,0,-97,0,-151,-49c0,0,-54,-48,-54,-135c0,0,0,-87,54,-135c0,0,54,-49,151,-49Zm0,-667c0,0,-184,0,-283,85c0,0,-98,86,-98,248c0,0,0,107,61,181c0,0,61,74,170,99c0,0,-97,24,-151,90c0,0,-54,67,-54,162c0,0,0,134,95,212c0,0,95,77,260,77c0,0,167,0,261,-77c0,0,95,-78,95,-212c0,0,0,-95,-54,-162c0,0,-54,-66,-151,-90c0,0,109,-25,170,-99c0,0,61,-74,61,-181c0,0,0,-162,-99,-248c0,0,-98,-85,-283,-85Z" 
id="f3_1e"
transform="scale(0.001,-0.001)" />


</defs>
</svg>