<?xml version="1.0" encoding="UTF-8" standalone="no"?>
<!DOCTYPE svg PUBLIC "-//W3C//DTD SVG 1.1//EN"
"http://www.w3.org/Graphics/SVG/1.1/DTD/svg11.dtd">
<svg viewBox="0 0 909 1286" version="1.1" xmlns="http://www.w3.org/2000/svg" xmlns:xlink="http://www.w3.org/1999/xlink">
<defs>
<clipPath id="c0_11"><path d="M0,1286.2V0H909.4V1286.2Z" /></clipPath>
<style type="text/css"><![CDATA[
.g0_11{
fill: #D8D8D8;
}
.g1_11{
fill: none;
stroke: #000000;
stroke-width: 0.7638889;
stroke-linecap: butt;
stroke-linejoin: round;
}
.g2_11{
fill: none;
stroke: #0000FF;
stroke-width: 1.0694444;
stroke-linecap: butt;
stroke-linejoin: miter;
}
]]></style>
</defs>
<path fill-rule="evenodd" d="M547.6,627.4h83.6V605.3H547.6v22.1Z" class="g0_11" />
<path fill-rule="evenodd" d="M463.8,627.4h83.7V605.3H463.8v22.1Z" class="g0_11" />
<path fill-rule="evenodd" d="M380.3,627.4h83.5V605.3H380.3v22.1Z" class="g0_11" />
<path fill-rule="evenodd" d="M296.7,627.4h83.5V605.3H296.7v22.1Z" class="g0_11" />
<path fill-rule="evenodd" d="M213.1,627.4h83.5V605.3H213.1v22.1Z" class="g0_11" />
<path fill-rule="evenodd" d="M129.4,627.4H213V605.3H129.4v22.1Z" class="g0_11" />
<path fill-rule="evenodd" d="M631.3,647.4H771.9V627.5H631.3v19.9Z" class="g0_11" />
<path fill-rule="evenodd" d="M631.3,667.6H771.9V647.5H631.3v20.1Z" class="g0_11" />
<path fill-rule="evenodd" d="M631.3,687.6H771.9v-20H631.3v20Z" class="g0_11" />
<path fill-rule="evenodd" d="M631.3,707.7H771.9v-20H631.3v20Z" class="g0_11" />
<path fill-rule="evenodd" d="M631.3,727.8H771.9v-20H631.3v20Z" class="g0_11" />
<path fill-rule="evenodd" d="M547.6,627.4h83.6V605.3H547.6v22.1Z" class="g0_11" />
<path fill-rule="evenodd" d="M463.8,627.4h83.7V605.3H463.8v22.1Z" class="g0_11" />
<path fill-rule="evenodd" d="M380.3,627.4h83.5V605.3H380.3v22.1Z" class="g0_11" />
<path fill-rule="evenodd" d="M296.7,627.4h83.5V605.3H296.7v22.1Z" class="g0_11" />
<path fill-rule="evenodd" d="M213.1,627.4h83.5V605.3H213.1v22.1Z" class="g0_11" />
<path fill-rule="evenodd" d="M129.4,627.4H213V605.3H129.4v22.1Z" class="g0_11" />
<path fill-rule="evenodd" d="M631.3,647.4H771.9V627.5H631.3v19.9Z" class="g0_11" />
<path fill-rule="evenodd" d="M631.3,667.6H771.9V647.5H631.3v20.1Z" class="g0_11" />
<path fill-rule="evenodd" d="M631.3,687.6H771.9v-20H631.3v20Z" class="g0_11" />
<path fill-rule="evenodd" d="M631.3,707.7H771.9v-20H631.3v20Z" class="g0_11" />
<path fill-rule="evenodd" d="M631.3,727.8H771.9v-20H631.3v20Z" class="g0_11" />
<g clip-path="url(#c0_11)">
<g fill="#000000" >
<use xlink:href="#f0_f" transform="matrix(12,0,0,12,137.7,127.1)" />
<use xlink:href="#f0_h" transform="matrix(12,0,0,12,149.9,127.1)" />
<use xlink:href="#f0_a" transform="matrix(12,0,0,12,167.3,127.1)" />
<use xlink:href="#f0_4" transform="matrix(12,0,0,12,179.3,127.1)" />
<use xlink:href="#f0_q" transform="matrix(12,0,0,12,184.3,127.1)" />
<use xlink:href="#f0_l" transform="matrix(12,0,0,12,196.2,127.1)" />
<use xlink:href="#f0_p" transform="matrix(12,0,0,12,200.4,127.1)" />
<use xlink:href="#f0_6" transform="matrix(12,0,0,12,213.3,127.1)" />
<use xlink:href="#f0_4" transform="matrix(12,0,0,12,230,127.1)" />
<use xlink:href="#f0_8" transform="matrix(12,0,0,12,235,127.1)" />
<use xlink:href="#f0_b" transform="matrix(12,0,0,12,253.3,127.1)" />
<use xlink:href="#f0_4" transform="matrix(12,0,0,12,263.7,127.1)" />
<use xlink:href="#f0_l" transform="matrix(12,0,0,12,268.7,127.1)" />
<use xlink:href="#f0_9" transform="matrix(12,0,0,12,272.8,127.1)" />
<use xlink:href="#f0_6" transform="matrix(12,0,0,12,284.7,127.1)" />
<use xlink:href="#f0_4" transform="matrix(12,0,0,12,301.2,127.1)" />
<use xlink:href="#f0_6" transform="matrix(12,0,0,12,306.2,127.1)" />
<use xlink:href="#f0_b" transform="matrix(12,0,0,12,322.8,127.1)" />
<use xlink:href="#f0_d" transform="matrix(12,0,0,12,333.2,127.1)" />
<use xlink:href="#f0_a" transform="matrix(12,0,0,12,346.2,127.1)" />
<use xlink:href="#f0_a" transform="matrix(12,0,0,12,358.3,127.1)" />
<use xlink:href="#f0_l" transform="matrix(12,0,0,12,376.4,127.1)" />
<use xlink:href="#f0_8" transform="matrix(12,0,0,12,380.5,127.1)" />
<use xlink:href="#f0_m" transform="matrix(12,0,0,12,392.7,127.1)" />
<use xlink:href="#f0_4" transform="matrix(12,0,0,12,402.7,127.1)" />
<use xlink:href="#f0_4" transform="matrix(12,0,0,12,407.7,127.1)" />
<use xlink:href="#f0_6" transform="matrix(12,0,0,12,412.7,127.1)" />
<use xlink:href="#f0_6" transform="matrix(12,0,0,12,423.3,127.1)" />
<use xlink:href="#f0_p" transform="matrix(12,0,0,12,433.8,127.1)" />
<use xlink:href="#f0_6" transform="matrix(12,0,0,12,452.9,127.1)" />
<use xlink:href="#f0_3" transform="matrix(12,0,0,12,463.4,127.1)" />
<use xlink:href="#f0_f" transform="matrix(12,0,0,12,479.9,127.1)" />
<use xlink:href="#f0_l" transform="matrix(12,0,0,12,492.1,127.1)" />
<use xlink:href="#f0_b" transform="matrix(12,0,0,12,496.1,127.1)" />
<use xlink:href="#f0_l" transform="matrix(12,0,0,12,506.5,127.1)" />
<use xlink:href="#f0_j" transform="matrix(12,0,0,12,510.6,127.1)" />
<use xlink:href="#f0_3" transform="matrix(12,0,0,12,529.2,127.1)" />
<use xlink:href="#f0_5" transform="matrix(12,0,0,12,539.4,127.1)" />
<use xlink:href="#f0_4" transform="matrix(12,0,0,12,550.3,127.1)" />
<use xlink:href="#f0_8" transform="matrix(12,0,0,12,555.3,127.1)" />
<use xlink:href="#f0_s" transform="matrix(12,0,0,12,573.7,127.1)" />
<use xlink:href="#f0_b" transform="matrix(12,0,0,12,583.5,127.1)" />
<use xlink:href="#f0_v" transform="matrix(12,0,0,12,599.9,127.1)" />
<use xlink:href="#f0_t" transform="matrix(12,0,0,12,611.6,127.1)" />
<use xlink:href="#f0_4" transform="matrix(12,0,0,12,623.5,127.1)" />
<use xlink:href="#f0_4" transform="matrix(12,0,0,12,628.5,127.1)" />
<use xlink:href="#f0_a" transform="matrix(12,0,0,12,633.4,127.1)" />
<use xlink:href="#f0_2" transform="matrix(12,0,0,12,645.5,127.1)" />
<use xlink:href="#f0_i" transform="matrix(12,0,0,12,663.5,127.1)" />
<use xlink:href="#f0_4" transform="matrix(12,0,0,12,668.5,127.1)" />
<use xlink:href="#f0_3" transform="matrix(12,0,0,12,673.5,127.1)" />
<use xlink:href="#f0_q" transform="matrix(12,0,0,12,683.9,127.1)" />
<use xlink:href="#f0_8" transform="matrix(12,0,0,12,695.8,127.1)" />
<use xlink:href="#f0_2" transform="matrix(12,0,0,12,708.1,127.1)" />
<use xlink:href="#f0_d" transform="matrix(12,0,0,12,726,127.1)" />
<use xlink:href="#f0_3" transform="matrix(12,0,0,12,739,127.1)" />
<use xlink:href="#f0_e" transform="matrix(12,0,0,12,749.4,127.1)" />
<use xlink:href="#f0_6" transform="matrix(12,0,0,12,760.8,127.1)" />
<use xlink:href="#f0_b" transform="matrix(12,0,0,12,137.7,148.5)" />
<use xlink:href="#f0_c" transform="matrix(12,0,0,12,148,148.5)" />
<use xlink:href="#f0_a" transform="matrix(12,0,0,12,163.7,148.5)" />
<use xlink:href="#f0_8" transform="matrix(12,0,0,12,175.8,148.5)" />
<use xlink:href="#f0_3" transform="matrix(12,0,0,12,194,148.5)" />
<use xlink:href="#f0_l" transform="matrix(12,0,0,12,204.3,148.5)" />
<use xlink:href="#f0_c" transform="matrix(12,0,0,12,208.4,148.5)" />
<use xlink:href="#f0_2" transform="matrix(12,0,0,12,218.1,148.5)" />
<use xlink:href="#f0_b" transform="matrix(12,0,0,12,230,148.5)" />
<use xlink:href="#f0_6" transform="matrix(12,0,0,12,246.4,148.5)" />
<use xlink:href="#f0_4" transform="matrix(12,0,0,12,257,148.5)" />
<use xlink:href="#f0_p" transform="matrix(12,0,0,12,262,148.5)" />
<use xlink:href="#f0_q" transform="matrix(12,0,0,12,275,148.5)" />
<use xlink:href="#f0_i" transform="matrix(12,0,0,12,292.8,148.5)" />
<use xlink:href="#f0_c" transform="matrix(12,0,0,12,297.9,148.5)" />
<use xlink:href="#f0_b" transform="matrix(12,0,0,12,307.5,148.5)" />
<use xlink:href="#f0_4" transform="matrix(12,0,0,12,317.9,148.5)" />
<use xlink:href="#f0_a" transform="matrix(12,0,0,12,328.9,148.5)" />
<use xlink:href="#f0_l" transform="matrix(12,0,0,12,340.9,148.5)" />
<use xlink:href="#f0_m" transform="matrix(12,0,0,12,345,148.5)" />
<use xlink:href="#f0_3" transform="matrix(12,0,0,12,355,148.5)" />
<use xlink:href="#f0_e" transform="matrix(12,0,0,12,365.3,148.5)" />
<use xlink:href="#f0_t" transform="matrix(12,0,0,12,376.8,148.5)" />
<use xlink:href="#f0_2" transform="matrix(12,0,0,12,388.7,148.5)" />
<use xlink:href="#f0_2" transform="matrix(12,0,0,12,406.7,148.5)" />
<use xlink:href="#f0_e" transform="matrix(12,0,0,12,418.6,148.5)" />
<use xlink:href="#f0_p" transform="matrix(12,0,0,12,430,148.5)" />
<use xlink:href="#f0_2" transform="matrix(12,0,0,12,443,148.5)" />
<use xlink:href="#f0_i" transform="matrix(12,0,0,12,460.9,148.5)" />
<use xlink:href="#f0_j" transform="matrix(12,0,0,12,465.9,148.5)" />
<use xlink:href="#f0_d" transform="matrix(12,0,0,12,484.5,148.5)" />
<use xlink:href="#f0_b" transform="matrix(12,0,0,12,497.4,148.5)" />
<use xlink:href="#f0_q" transform="matrix(12,0,0,12,507.8,148.5)" />
<use xlink:href="#f0_i" transform="matrix(12,0,0,12,525.7,148.5)" />
<use xlink:href="#f0_2" transform="matrix(12,0,0,12,530.7,148.5)" />
<use xlink:href="#f0_a" transform="matrix(12,0,0,12,548.6,148.5)" />
<use xlink:href="#f0_4" transform="matrix(12,0,0,12,560.6,148.5)" />
<use xlink:href="#f0_e" transform="matrix(12,0,0,12,565.5,148.5)" />
<use xlink:href="#f0_m" transform="matrix(12,0,0,12,577,148.5)" />
<use xlink:href="#f0_3" transform="matrix(12,0,0,12,587,148.5)" />
<use xlink:href="#f0_n" transform="matrix(12,0,0,12,597.4,148.5)" />
<use xlink:href="#f0_f" transform="matrix(12,0,0,12,610.7,148.5)" />
<use xlink:href="#f0_l" transform="matrix(12,0,0,12,622.9,148.5)" />
<use xlink:href="#f0_b" transform="matrix(12,0,0,12,626.9,148.5)" />
<use xlink:href="#f0_l" transform="matrix(12,0,0,12,637.3,148.5)" />
<use xlink:href="#f0_j" transform="matrix(12,0,0,12,641.4,148.5)" />
<use xlink:href="#f0_g" transform="matrix(12,0,0,12,659.8,148.5)" />
<use xlink:href="#f0_a" transform="matrix(12,0,0,12,665.7,148.5)" />
<use xlink:href="#f0_l" transform="matrix(12,0,0,12,677.7,148.5)" />
<use xlink:href="#f0_m" transform="matrix(12,0,0,12,681.8,148.5)" />
<use xlink:href="#f0_3" transform="matrix(12,0,0,12,691.7,148.5)" />
<use xlink:href="#f0_e" transform="matrix(12,0,0,12,702.1,148.5)" />
<use xlink:href="#f0_t" transform="matrix(12,0,0,12,713.6,148.5)" />
<use xlink:href="#f0_l" transform="matrix(12,0,0,12,731.4,148.5)" />
<use xlink:href="#f0_3" transform="matrix(12,0,0,12,735.5,148.5)" />
<use xlink:href="#f0_6" transform="matrix(12,0,0,12,745.9,148.5)" />
<use xlink:href="#f0_4" transform="matrix(12,0,0,12,756.4,148.5)" />
<use xlink:href="#f0_m" transform="matrix(12,0,0,12,761.3,148.5)" />
<use xlink:href="#f0_s" transform="matrix(12,0,0,12,138,169.9)" />
<use xlink:href="#f0_n" transform="matrix(12,0,0,12,147.7,169.9)" />
<use xlink:href="#f0_l" transform="matrix(12,0,0,12,155.1,169.9)" />
<use xlink:href="#f0_8" transform="matrix(12,0,0,12,159.2,169.9)" />
<use xlink:href="#f0_f" transform="matrix(12,0,0,12,179.2,169.9)" />
<use xlink:href="#f0_8" transform="matrix(12,0,0,12,191.4,169.9)" />
<use xlink:href="#f0_o" transform="matrix(12,0,0,12,211.3,169.9)" />
<use xlink:href="#f0_8" transform="matrix(12,0,0,12,218.8,169.9)" />
<use xlink:href="#f0_m" transform="matrix(12,0,0,12,231.1,169.9)" />
<use xlink:href="#f0_a" transform="matrix(12,0,0,12,241.1,169.9)" />
<use xlink:href="#f0_b" transform="matrix(12,0,0,12,260.9,169.9)" />
<use xlink:href="#f0_8" transform="matrix(12,0,0,12,271.3,169.9)" />
<use xlink:href="#f0_g" transform="matrix(12,0,0,12,291.3,169.9)" />
<use xlink:href="#f0_s" transform="matrix(12,0,0,12,297.1,169.9)" />
<use xlink:href="#f0_l" transform="matrix(12,0,0,12,306.9,169.9)" />
<use xlink:href="#f0_a" transform="matrix(12,0,0,12,311,169.9)" />
<use xlink:href="#f0_4" transform="matrix(12,0,0,12,323.1,169.9)" />
<use xlink:href="#f0_q" transform="matrix(12,0,0,12,328.1,169.9)" />
<use xlink:href="#f0_l" transform="matrix(12,0,0,12,340,169.9)" />
<use xlink:href="#f0_p" transform="matrix(12,0,0,12,344.1,169.9)" />
<use xlink:href="#f0_6" transform="matrix(12,0,0,12,357.1,169.9)" />
<use xlink:href="#f0_i" transform="matrix(12,0,0,12,375.4,169.9)" />
<use xlink:href="#f0_b" transform="matrix(12,0,0,12,380.4,169.9)" />
<use xlink:href="#f0_4" transform="matrix(12,0,0,12,390.8,169.9)" />
<use xlink:href="#f0_c" transform="matrix(12,0,0,12,395.8,169.9)" />
<use xlink:href="#f0_6" transform="matrix(12,0,0,12,405.4,169.9)" />
<use xlink:href="#f0_p" transform="matrix(12,0,0,12,423.7,169.9)" />
<use xlink:href="#f0_j" transform="matrix(12,0,0,12,436.7,169.9)" />
<use xlink:href="#f0_a" transform="matrix(12,0,0,12,449.1,169.9)" />
<use xlink:href="#f0_p" transform="matrix(12,0,0,12,461.1,169.9)" />
<use xlink:href="#f0_a" transform="matrix(12,0,0,12,474.1,169.9)" />
<use xlink:href="#f0_p" transform="matrix(12,0,0,12,486.2,169.9)" />
<use xlink:href="#f0_3" transform="matrix(12,0,0,12,506.9,169.9)" />
<use xlink:href="#f0_l" transform="matrix(12,0,0,12,517.1,169.9)" />
<use xlink:href="#f0_6" transform="matrix(12,0,0,12,521.3,169.9)" />
<use xlink:href="#f0_t" transform="matrix(12,0,0,12,531.8,169.9)" />
<use xlink:href="#f0_8" transform="matrix(12,0,0,12,551.5,169.9)" />
<use xlink:href="#f0_b" transform="matrix(12,0,0,12,563.7,169.9)" />
<use xlink:href="#f0_f" transform="matrix(12,0,0,12,581.8,169.9)" />
<use xlink:href="#f0_8" transform="matrix(12,0,0,12,594.1,169.9)" />
<use xlink:href="#f0_f" transform="matrix(12,0,0,12,614,169.9)" />
<use xlink:href="#f0_o" transform="matrix(12,0,0,12,626.2,169.9)" />
<use xlink:href="#f0_r" transform="matrix(12,0,0,12,641.5,169.9)" />
<use xlink:href="#f0_4" transform="matrix(12,0,0,12,647.3,169.9)" />
<use xlink:href="#f0_3" transform="matrix(12,0,0,12,652.2,169.9)" />
<use xlink:href="#f0_c" transform="matrix(12,0,0,12,662.6,169.9)" />
<use xlink:href="#f0_k" transform="matrix(12,0,0,12,672.2,169.9)" />
<use xlink:href="#f0_4" transform="matrix(12,0,0,12,678.6,169.9)" />
<use xlink:href="#f0_2" transform="matrix(12,0,0,12,683.6,169.9)" />
<use xlink:href="#f0_p" transform="matrix(12,0,0,12,695.5,169.9)" />
<use xlink:href="#f0_f" transform="matrix(12,0,0,12,716.3,169.9)" />
<use xlink:href="#f0_l" transform="matrix(12,0,0,12,728.3,169.9)" />
<use xlink:href="#f0_b" transform="matrix(12,0,0,12,732.5,169.9)" />
<use xlink:href="#f0_l" transform="matrix(12,0,0,12,742.8,169.9)" />
<use xlink:href="#f0_j" transform="matrix(12,0,0,12,747,169.9)" />
<use xlink:href="#f0_2" transform="matrix(12,0,0,12,759.5,169.9)" />
<use xlink:href="#f0_g" transform="matrix(12,0,0,12,445.5,191.3)" />
<use xlink:href="#f0_2" transform="matrix(12,0,0,12,451.3,191.3)" />
<use xlink:href="#f0_k" transform="matrix(12,0,0,12,463.2,191.3)" />
<use xlink:href="#f0_3" transform="matrix(12,0,0,12,475.4,191.3)" />
<use xlink:href="#f0_e" transform="matrix(12,0,0,12,485.8,191.3)" />
<use xlink:href="#f0_t" transform="matrix(12,0,0,12,497.3,191.3)" />
<use xlink:href="#f0_6" transform="matrix(12,0,0,12,509.2,191.3)" />
<use xlink:href="#f0_6" transform="matrix(12,0,0,12,525.5,191.3)" />
<use xlink:href="#f0_4" transform="matrix(12,0,0,12,536,191.3)" />
<use xlink:href="#f0_p" transform="matrix(12,0,0,12,541.1,191.3)" />
<use xlink:href="#f0_4" transform="matrix(12,0,0,12,559.9,191.3)" />
<use xlink:href="#f0_h" transform="matrix(12,0,0,12,564.9,191.3)" />
<use xlink:href="#f0_l" transform="matrix(12,0,0,12,576.3,191.3)" />
<use xlink:href="#f0_e" transform="matrix(12,0,0,12,580.5,191.3)" />
<use xlink:href="#f0_4" transform="matrix(12,0,0,12,591.9,191.3)" />
<use xlink:href="#f0_l" transform="matrix(12,0,0,12,596.8,191.3)" />
<use xlink:href="#f0_4" transform="matrix(12,0,0,12,606.8,191.3)" />
<use xlink:href="#f0_b" transform="matrix(12,0,0,12,611.9,191.3)" />
<use xlink:href="#f0_8" transform="matrix(12,0,0,12,622.3,191.3)" />
<use xlink:href="#f0_f" transform="matrix(12,0,0,12,640.3,191.3)" />
<use xlink:href="#f0_l" transform="matrix(12,0,0,12,652.4,191.3)" />
<use xlink:href="#f0_b" transform="matrix(12,0,0,12,656.5,191.3)" />
<use xlink:href="#f0_l" transform="matrix(12,0,0,12,666.9,191.3)" />
<use xlink:href="#f0_j" transform="matrix(12,0,0,12,671,191.3)" />
<use xlink:href="#f0_r" transform="matrix(12,0,0,12,689.3,191.3)" />
<use xlink:href="#f0_i" transform="matrix(12,0,0,12,695.1,191.3)" />
<use xlink:href="#f0_l" transform="matrix(12,0,0,12,700.1,191.3)" />
<use xlink:href="#f0_l" transform="matrix(12,0,0,12,704.2,191.3)" />
<use xlink:href="#f0_m" transform="matrix(12,0,0,12,708.2,191.3)" />
<use xlink:href="#f0_h" transform="matrix(12,0,0,12,718.3,191.3)" />
<use xlink:href="#f0_i" transform="matrix(12,0,0,12,735.5,191.3)" />
<use xlink:href="#f0_3" transform="matrix(12,0,0,12,740.6,191.3)" />
<use xlink:href="#f0_c" transform="matrix(12,0,0,12,750.9,191.3)" />
<use xlink:href="#f0_4" transform="matrix(12,0,0,12,760.6,191.3)" />
<use xlink:href="#f0_k" transform="matrix(12,0,0,12,765.5,191.3)" />
<use xlink:href="#f0_r" transform="matrix(12,0,0,12,138.4,231.9)" />
<use xlink:href="#f0_3" transform="matrix(12,0,0,12,144.2,231.9)" />
<use xlink:href="#f0_a" transform="matrix(12,0,0,12,154.6,231.9)" />
<use xlink:href="#f0_4" transform="matrix(12,0,0,12,166.5,231.9)" />
<use xlink:href="#f0_l" transform="matrix(12,0,0,12,171.5,231.9)" />
<use xlink:href="#f0_i" transform="matrix(12,0,0,12,183.4,231.9)" />
<use xlink:href="#f0_4" transform="matrix(12,0,0,12,188.3,231.9)" />
<use xlink:href="#f0_c" transform="matrix(12,0,0,12,193.3,231.9)" />
<use xlink:href="#f0_n" transform="matrix(12,0,0,12,203,231.9)" />
<use xlink:href="#f0_8" transform="matrix(12,0,0,12,218.2,231.9)" />
<use xlink:href="#f0_9" transform="matrix(12,0,0,12,230.4,231.9)" />
<use xlink:href="#f0_6" transform="matrix(12,0,0,12,242.3,231.9)" />
<use xlink:href="#f0_a" transform="matrix(12,0,0,12,252.9,231.9)" />
<use xlink:href="#f0_2" transform="matrix(12,0,0,12,264.9,231.9)" />
<use xlink:href="#f0_b" transform="matrix(12,0,0,12,276.8,231.9)" />
<use xlink:href="#f0_l" transform="matrix(12,0,0,12,295,231.9)" />
<use xlink:href="#f0_m" transform="matrix(12,0,0,12,299,231.9)" />
<use xlink:href="#f0_c" transform="matrix(12,0,0,12,309,231.9)" />
<use xlink:href="#f0_g" transform="matrix(12,0,0,12,326.4,231.9)" />
<use xlink:href="#f0_m" transform="matrix(12,0,0,12,332.2,231.9)" />
<use xlink:href="#f0_l" transform="matrix(12,0,0,12,342.3,231.9)" />
<use xlink:href="#f0_a" transform="matrix(12,0,0,12,346.4,231.9)" />
<use xlink:href="#f0_h" transform="matrix(12,0,0,12,358.3,231.9)" />
<use xlink:href="#f0_b" transform="matrix(12,0,0,12,369.8,231.9)" />
<use xlink:href="#f0_4" transform="matrix(12,0,0,12,380.2,231.9)" />
<use xlink:href="#f0_3" transform="matrix(12,0,0,12,393,231.9)" />
<use xlink:href="#f0_6" transform="matrix(12,0,0,12,403.3,231.9)" />
<use xlink:href="#f0_h" transform="matrix(12,0,0,12,413.9,231.9)" />
<use xlink:href="#f0_b" transform="matrix(12,0,0,12,425.3,231.9)" />
<use xlink:href="#f0_a" transform="matrix(12,0,0,12,443.5,231.9)" />
<use xlink:href="#f0_4" transform="matrix(12,0,0,12,455.5,231.9)" />
<use xlink:href="#f0_3" transform="matrix(12,0,0,12,460.6,231.9)" />
<use xlink:href="#f0_4" transform="matrix(12,0,0,12,470.8,231.9)" />
<use xlink:href="#f0_5" transform="matrix(12,0,0,12,475.8,231.9)" />
<use xlink:href="#f0_2" transform="matrix(12,0,0,12,494.4,231.9)" />
<use xlink:href="#f0_j" transform="matrix(12,0,0,12,506.3,231.9)" />
<use xlink:href="#f0_c" transform="matrix(12,0,0,12,518.8,231.9)" />
<use xlink:href="#f0_p" transform="matrix(12,0,0,12,536.2,231.9)" />
<use xlink:href="#f0_l" transform="matrix(12,0,0,12,549.2,231.9)" />
<use xlink:href="#f0_a" transform="matrix(12,0,0,12,560.9,231.9)" />
<use xlink:href="#f0_l" transform="matrix(12,0,0,12,573,231.9)" />
<use xlink:href="#f0_m" transform="matrix(12,0,0,12,577.1,231.9)" />
<use xlink:href="#f0_3" transform="matrix(12,0,0,12,587,231.9)" />
<use xlink:href="#f0_e" transform="matrix(12,0,0,12,597.4,231.9)" />
<use xlink:href="#f0_t" transform="matrix(12,0,0,12,608.8,231.9)" />
<use xlink:href="#f0_6" transform="matrix(12,0,0,12,620.7,231.9)" />
<use xlink:href="#f0_f" transform="matrix(12,0,0,12,639,231.9)" />
<use xlink:href="#f0_o" transform="matrix(12,0,0,12,651.2,231.9)" />
<use xlink:href="#f0_r" transform="matrix(12,0,0,12,666.6,231.9)" />
<use xlink:href="#f0_a" transform="matrix(12,0,0,12,672.4,231.9)" />
<use xlink:href="#f0_l" transform="matrix(12,0,0,12,684.5,231.9)" />
<use xlink:href="#f0_b" transform="matrix(12,0,0,12,688.6,231.9)" />
<use xlink:href="#f0_o" transform="matrix(12,0,0,12,699,231.9)" />
<use xlink:href="#f0_n" transform="matrix(12,0,0,12,706.5,231.9)" />
<use xlink:href="#f0_8" transform="matrix(12,0,0,12,713.8,231.9)" />
<use xlink:href="#f0_6" transform="matrix(12,0,0,12,726,231.9)" />
<use xlink:href="#f0_4" transform="matrix(12,0,0,12,744.3,231.9)" />
<use xlink:href="#f0_j" transform="matrix(12,0,0,12,749.2,231.9)" />
<use xlink:href="#f0_c" transform="matrix(12,0,0,12,761.7,231.9)" />
<use xlink:href="#f0_m" transform="matrix(12,0,0,12,138.1,253.3)" />
<use xlink:href="#f0_4" transform="matrix(12,0,0,12,148.2,253.3)" />
<use xlink:href="#f0_h" transform="matrix(12,0,0,12,153.2,253.3)" />
<use xlink:href="#f0_m" transform="matrix(12,0,0,12,170.9,253.3)" />
<use xlink:href="#f0_j" transform="matrix(12,0,0,12,181,253.3)" />
<use xlink:href="#f0_b" transform="matrix(12,0,0,12,193.3,253.3)" />
<use xlink:href="#f0_a" transform="matrix(12,0,0,12,203.7,253.3)" />
<use xlink:href="#f0_f" transform="matrix(12,0,0,12,222.3,253.3)" />
<use xlink:href="#f0_2" transform="matrix(12,0,0,12,234.5,253.3)" />
<use xlink:href="#f0_6" transform="matrix(12,0,0,12,246.4,253.3)" />
<use xlink:href="#f0_r" transform="matrix(12,0,0,12,263.4,253.3)" />
<use xlink:href="#f0_f" transform="matrix(12,0,0,12,269.2,253.3)" />
<use xlink:href="#f0_l" transform="matrix(12,0,0,12,281.4,253.3)" />
<use xlink:href="#f0_8" transform="matrix(12,0,0,12,285.5,253.3)" />
<use xlink:href="#f0_6" transform="matrix(12,0,0,12,297.7,253.3)" />
<use xlink:href="#f0_2" transform="matrix(12,0,0,12,308.3,253.3)" />
<use xlink:href="#f0_f" transform="matrix(12,0,0,12,326.6,253.3)" />
<use xlink:href="#f0_l" transform="matrix(12,0,0,12,338.6,253.3)" />
<use xlink:href="#f0_d" transform="matrix(12,0,0,12,342.7,253.3)" />
<use xlink:href="#f0_3" transform="matrix(12,0,0,12,355.7,253.3)" />
<use xlink:href="#f0_e" transform="matrix(12,0,0,12,366.1,253.3)" />
<use xlink:href="#f0_2" transform="matrix(12,0,0,12,377.5,253.3)" />
<use xlink:href="#f0_a" transform="matrix(12,0,0,12,395.8,253.3)" />
<use xlink:href="#f0_8" transform="matrix(12,0,0,12,407.9,253.3)" />
<use xlink:href="#f0_8" transform="matrix(12,0,0,12,426.5,253.3)" />
<use xlink:href="#f0_4" transform="matrix(12,0,0,12,438.7,253.3)" />
<use xlink:href="#f0_3" transform="matrix(12,0,0,12,443.7,253.3)" />
<use xlink:href="#f0_d" transform="matrix(12,0,0,12,454.1,253.3)" />
<use xlink:href="#f0_b" transform="matrix(12,0,0,12,467.1,253.3)" />
<use xlink:href="#f0_s" transform="matrix(12,0,0,12,483.8,253.3)" />
<use xlink:href="#f0_p" transform="matrix(12,0,0,12,493.6,253.3)" />
<use xlink:href="#f0_j" transform="matrix(12,0,0,12,506.6,253.3)" />
<use xlink:href="#f0_2" transform="matrix(12,0,0,12,519.1,253.3)" />
<use xlink:href="#f0_r" transform="matrix(12,0,0,12,537.4,253.3)" />
<use xlink:href="#f0_s" transform="matrix(12,0,0,12,543.2,253.3)" />
<use xlink:href="#f0_j" transform="matrix(12,0,0,12,553,253.3)" />
<use xlink:href="#f0_h" transform="matrix(12,0,0,12,565.5,253.3)" />
<use xlink:href="#f0_4" transform="matrix(12,0,0,12,583.2,253.3)" />
<use xlink:href="#f0_3" transform="matrix(12,0,0,12,588.2,253.3)" />
<use xlink:href="#f0_6" transform="matrix(12,0,0,12,598.6,253.3)" />
<use xlink:href="#f0_m" transform="matrix(12,0,0,12,609.1,253.3)" />
<use xlink:href="#f0_l" transform="matrix(12,0,0,12,619.2,253.3)" />
<use xlink:href="#f0_p" transform="matrix(12,0,0,12,623.1,253.3)" />
<use xlink:href="#f0_a" transform="matrix(12,0,0,12,642.5,253.3)" />
<use xlink:href="#f0_8" transform="matrix(12,0,0,12,654.5,253.3)" />
<use xlink:href="#f0_i" transform="matrix(12,0,0,12,673.1,253.3)" />
<use xlink:href="#f0_l" transform="matrix(12,0,0,12,678.2,253.3)" />
<use xlink:href="#f0_6" transform="matrix(12,0,0,12,682.3,253.3)" />
<use xlink:href="#f0_2" transform="matrix(12,0,0,12,692.8,253.3)" />
<use xlink:href="#f0_b" transform="matrix(12,0,0,12,704.7,253.3)" />
<use xlink:href="#f0_l" transform="matrix(12,0,0,12,721.5,253.3)" />
<use xlink:href="#f0_m" transform="matrix(12,0,0,12,725.6,253.3)" />
<use xlink:href="#f0_c" transform="matrix(12,0,0,12,735.7,253.3)" />
<use xlink:href="#f0_i" transform="matrix(12,0,0,12,751.5,253.3)" />
<use xlink:href="#f0_c" transform="matrix(12,0,0,12,756.5,253.3)" />
<use xlink:href="#f0_4" transform="matrix(12,0,0,12,766.2,253.3)" />
<use xlink:href="#f0_g" transform="matrix(12,0,0,12,379.2,274.7)" />
<use xlink:href="#f0_s" transform="matrix(12,0,0,12,385,274.7)" />
<use xlink:href="#f0_b" transform="matrix(12,0,0,12,394.8,274.7)" />
<use xlink:href="#f0_p" transform="matrix(12,0,0,12,405.2,274.7)" />
<use xlink:href="#f0_f" transform="matrix(12,0,0,12,424.1,274.7)" />
<use xlink:href="#f0_l" transform="matrix(12,0,0,12,436.2,274.7)" />
<use xlink:href="#f0_b" transform="matrix(12,0,0,12,440.3,274.7)" />
<use xlink:href="#f0_l" transform="matrix(12,0,0,12,450.7,274.7)" />
<use xlink:href="#f0_j" transform="matrix(12,0,0,12,454.8,274.7)" />
<use xlink:href="#f0_2" transform="matrix(12,0,0,12,467.3,274.7)" />
<use xlink:href="#f0_3" transform="matrix(12,0,0,12,485,274.7)" />
<use xlink:href="#f0_5" transform="matrix(12,0,0,12,495.4,274.7)" />
<use xlink:href="#f0_4" transform="matrix(12,0,0,12,506.2,274.7)" />
<use xlink:href="#f0_8" transform="matrix(12,0,0,12,511.3,274.7)" />
<use xlink:href="#f0_a" transform="matrix(12,0,0,12,529.3,274.7)" />
<use xlink:href="#f0_8" transform="matrix(12,0,0,12,541.4,274.7)" />
<use xlink:href="#f0_3" transform="matrix(12,0,0,12,559.4,274.7)" />
<use xlink:href="#f0_l" transform="matrix(12,0,0,12,569.8,274.7)" />
<use xlink:href="#f0_p" transform="matrix(12,0,0,12,573.9,274.7)" />
<use xlink:href="#f0_h" transform="matrix(12,0,0,12,586.9,274.7)" />
<use xlink:href="#f0_a" transform="matrix(12,0,0,12,598.3,274.7)" />
<use xlink:href="#f0_4" transform="matrix(12,0,0,12,610.4,274.7)" />
<use xlink:href="#f0_r" transform="matrix(12,0,0,12,621.2,274.7)" />
<use xlink:href="#f0_f" transform="matrix(12,0,0,12,627,274.7)" />
<use xlink:href="#f0_l" transform="matrix(12,0,0,12,639.2,274.7)" />
<use xlink:href="#f0_6" transform="matrix(12,0,0,12,643.3,274.7)" />
<use xlink:href="#f0_4" transform="matrix(12,0,0,12,653.9,274.7)" />
<use xlink:href="#f0_p" transform="matrix(12,0,0,12,658.9,274.7)" />
<use xlink:href="#f0_q" transform="matrix(12,0,0,12,671.9,274.7)" />
<use xlink:href="#f0_f" transform="matrix(12,0,0,12,689.6,274.7)" />
<use xlink:href="#f0_l" transform="matrix(12,0,0,12,701.8,274.7)" />
<use xlink:href="#f0_n" transform="matrix(12,0,0,12,705.9,274.7)" />
<use xlink:href="#f0_j" transform="matrix(12,0,0,12,713.1,274.7)" />
<use xlink:href="#f0_k" transform="matrix(12,0,0,12,725.6,274.7)" />
<use xlink:href="#f0_2" transform="matrix(12,0,0,12,737.8,274.7)" />
<use xlink:href="#f0_j" transform="matrix(12,0,0,12,749.7,274.7)" />
<use xlink:href="#f0_c" transform="matrix(12,0,0,12,762.2,274.7)" />
<use xlink:href="#f0_h" transform="matrix(12,0,0,12,138.1,296.1)" />
<use xlink:href="#f0_m" transform="matrix(12,0,0,12,149.6,296.1)" />
<use xlink:href="#f0_l" transform="matrix(12,0,0,12,159.6,296.1)" />
<use xlink:href="#f0_2" transform="matrix(12,0,0,12,163.6,296.1)" />
<use xlink:href="#f0_4" transform="matrix(12,0,0,12,175.5,296.1)" />
<use xlink:href="#f0_f" transform="matrix(12,0,0,12,186.7,296.1)" />
<use xlink:href="#f0_l" transform="matrix(12,0,0,12,198.9,296.1)" />
<use xlink:href="#f0_b" transform="matrix(12,0,0,12,203,296.1)" />
<use xlink:href="#f0_l" transform="matrix(12,0,0,12,213.4,296.1)" />
<use xlink:href="#f0_j" transform="matrix(12,0,0,12,217.5,296.1)" />
<use xlink:href="#f0_2" transform="matrix(12,0,0,12,230,296.1)" />
<use xlink:href="#f0_3" transform="matrix(12,0,0,12,247.9,296.1)" />
<use xlink:href="#f0_5" transform="matrix(12,0,0,12,258.2,296.1)" />
<use xlink:href="#f0_4" transform="matrix(12,0,0,12,269.1,296.1)" />
<use xlink:href="#f0_8" transform="matrix(12,0,0,12,274.1,296.1)" />
<use xlink:href="#f0_b" transform="matrix(12,0,0,12,292.4,296.1)" />
<use xlink:href="#f0_p" transform="matrix(12,0,0,12,302.8,296.1)" />
<use xlink:href="#f0_2" transform="matrix(12,0,0,12,321.9,296.1)" />
<use xlink:href="#f0_h" transform="matrix(12,0,0,12,333.8,296.1)" />
<use xlink:href="#f0_j" transform="matrix(12,0,0,12,345.2,296.1)" />
<use xlink:href="#f0_9" transform="matrix(12,0,0,12,357.7,296.1)" />
<use xlink:href="#f0_2" transform="matrix(12,0,0,12,369.6,296.1)" />
<use xlink:href="#f0_b" transform="matrix(12,0,0,12,381.6,296.1)" />
<use xlink:href="#f0_4" transform="matrix(12,0,0,12,392,296.1)" />
<use xlink:href="#f0_2" transform="matrix(12,0,0,12,403.1,296.1)" />
<use xlink:href="#f0_e" transform="matrix(12,0,0,12,415,296.1)" />
<use xlink:href="#f0_p" transform="matrix(12,0,0,12,426.4,296.1)" />
<use xlink:href="#f0_2" transform="matrix(12,0,0,12,439.4,296.1)" />
<use xlink:href="#f0_l" transform="matrix(12,0,0,12,457.4,296.1)" />
<use xlink:href="#f0_b" transform="matrix(12,0,0,12,461.5,296.1)" />
<use xlink:href="#f0_b" transform="matrix(12,0,0,12,471.9,296.1)" />
<use xlink:href="#f0_c" transform="matrix(12,0,0,12,482.3,296.1)" />
<use xlink:href="#f0_b" transform="matrix(12,0,0,12,498,296.1)" />
<use xlink:href="#f0_h" transform="matrix(12,0,0,12,508.4,296.1)" />
<use xlink:href="#f0_2" transform="matrix(12,0,0,12,525.9,296.1)" />
<use xlink:href="#f0_3" transform="matrix(12,0,0,12,537.8,296.1)" />
<use xlink:href="#f0_k" transform="matrix(12,0,0,12,548.2,296.1)" />
<use xlink:href="#f0_q" transform="matrix(12,0,0,12,554.6,296.1)" />
<use xlink:href="#f0_b" transform="matrix(12,0,0,12,566.5,296.1)" />
<use xlink:href="#f0_m" transform="matrix(12,0,0,12,583,296.1)" />
<use xlink:href="#f0_q" transform="matrix(12,0,0,12,593,296.1)" />
<use xlink:href="#f0_8" transform="matrix(12,0,0,12,605,296.1)" />
<use xlink:href="#f0_d" transform="matrix(12,0,0,12,623.2,296.1)" />
<use xlink:href="#f0_3" transform="matrix(12,0,0,12,636.2,296.1)" />
<use xlink:href="#f0_e" transform="matrix(12,0,0,12,646.6,296.1)" />
<use xlink:href="#f0_p" transform="matrix(12,0,0,12,664,296.1)" />
<use xlink:href="#f0_l" transform="matrix(12,0,0,12,677,296.1)" />
<use xlink:href="#f0_m" transform="matrix(12,0,0,12,681.1,296.1)" />
<use xlink:href="#f0_d" transform="matrix(12,0,0,12,691.2,296.1)" />
<use xlink:href="#f0_n" transform="matrix(12,0,0,12,704.1,296.1)" />
<use xlink:href="#f0_i" transform="matrix(12,0,0,12,717.5,296.1)" />
<use xlink:href="#f0_c" transform="matrix(12,0,0,12,722.6,296.1)" />
<use xlink:href="#f0_l" transform="matrix(12,0,0,12,738.1,296.1)" />
<use xlink:href="#f0_n" transform="matrix(12,0,0,12,742.2,296.1)" />
<use xlink:href="#f0_e" transform="matrix(12,0,0,12,749.6,296.1)" />
<use xlink:href="#f0_b" transform="matrix(12,0,0,12,761,296.1)" />
<use xlink:href="#f0_g" transform="matrix(12,0,0,12,709.5,317.5)" />
<use xlink:href="#f0_a" transform="matrix(12,0,0,12,715.3,317.5)" />
<use xlink:href="#f0_3" transform="matrix(12,0,0,12,727.4,317.5)" />
<use xlink:href="#f0_6" transform="matrix(12,0,0,12,737.7,317.5)" />
<use xlink:href="#f0_5" transform="matrix(12,0,0,12,748.3,317.5)" />
<use xlink:href="#f0_p" transform="matrix(12,0,0,12,759.1,317.5)" />
<use xlink:href="#f1_1u" transform="matrix(16,0,0,16,720.3,537.9)" />
<use xlink:href="#f1_d" transform="matrix(16,0,0,16,737.9,537.9)" />
<use xlink:href="#f1_j" transform="matrix(16,0,0,16,748.8,537.9)" />
<use xlink:href="#f1_r" transform="matrix(16,0,0,16,758.2,537.9)" />
<use xlink:href="#f1_s" transform="matrix(16,0,0,16,452.8,537.9)" />
<use xlink:href="#f1_d" transform="matrix(16,0,0,16,466.4,537.9)" />
<use xlink:href="#f1_j" transform="matrix(16,0,0,16,477.3,537.9)" />
<use xlink:href="#f1_k" transform="matrix(16,0,0,16,486.7,537.9)" />
<use xlink:href="#f1_b" transform="matrix(16,0,0,16,494.8,537.9)" />
<use xlink:href="#f1_j" transform="matrix(16,0,0,16,507,537.9)" />
<use xlink:href="#f2_2" transform="matrix(13,0,0,13,387.9,581.2)" />
<use xlink:href="#f2_3" transform="matrix(13,0,0,13,403,581.2)" />
<use xlink:href="#f2_4" transform="matrix(13,0,0,13,410.2,581.2)" />
<use xlink:href="#f2_a" transform="matrix(13,0,0,13,422.9,581.2)" />
<use xlink:href="#f2_b" transform="matrix(13,0,0,13,433.2,581.2)" />
<use xlink:href="#f2_c" transform="matrix(13,0,0,13,445.3,581.2)" />
<use xlink:href="#f2_b" transform="matrix(13,0,0,13,452.8,581.2)" />
<use xlink:href="#f2_c" transform="matrix(13,0,0,13,464.9,581.2)" />
<use xlink:href="#f2_8" transform="matrix(13,0,0,13,472.4,581.2)" />
<use xlink:href="#f2_e" transform="matrix(13,0,0,13,492.8,581.2)" />
<use xlink:href="#f2_g" transform="matrix(13,0,0,13,711.8,581.2)" />
</g>
</g>
<path d="M129,605.7H631.7M129,627.8H772.4M129,647.9H772.4M129,668H772.4M129,688H772.4M129,708.2H772.4M129,728.2H772.4M129.4,605.3V728.6M296.7,605.3V728.6M463.8,605.3V728.6M631.3,605.3V728.6M772,627.5V728.6" class="g1_11" />
<g clip-path="url(#c0_11)">
<g fill="#000000" >
<use xlink:href="#f3_6" transform="matrix(11,0,0,11,556.3,621.7)" />
<use xlink:href="#f3_7" transform="matrix(11,0,0,11,563.7,621.7)" />
<use xlink:href="#f3_8" transform="matrix(11,0,0,11,572.1,621.7)" />
<use xlink:href="#f3_9" transform="matrix(11,0,0,11,585.3,621.7)" />
<use xlink:href="#f3_a" transform="matrix(11,0,0,11,593.5,621.7)" />
<use xlink:href="#f3_n" transform="matrix(11,0,0,11,599.1,621.7)" />
<use xlink:href="#f3_a" transform="matrix(11,0,0,11,606.6,621.7)" />
<use xlink:href="#f0_a" transform="matrix(12,0,0,12,491.5,623)" />
<use xlink:href="#f0_4" transform="matrix(12,0,0,12,503.5,623)" />
<use xlink:href="#f0_n" transform="matrix(12,0,0,12,508.6,623)" />
<use xlink:href="#f0_d" transform="matrix(12,0,0,12,515.9,623)" />
<use xlink:href="#f0_b" transform="matrix(12,0,0,12,528.9,623)" />
<use xlink:href="#f3_6" transform="matrix(11,0,0,11,389.1,621.7)" />
<use xlink:href="#f3_7" transform="matrix(11,0,0,11,396.6,621.7)" />
<use xlink:href="#f3_8" transform="matrix(11,0,0,11,404.8,621.7)" />
<use xlink:href="#f3_m" transform="matrix(11,0,0,11,418,621.7)" />
<use xlink:href="#f3_a" transform="matrix(11,0,0,11,425.4,621.7)" />
<use xlink:href="#f0_b" transform="matrix(12,0,0,12,324.5,623)" />
<use xlink:href="#f0_4" transform="matrix(12,0,0,12,334.9,623)" />
<use xlink:href="#f0_c" transform="matrix(12,0,0,12,339.9,623)" />
<use xlink:href="#f0_8" transform="matrix(12,0,0,12,349.5,623)" />
<use xlink:href="#f0_b" transform="matrix(12,0,0,12,361.8,623)" />
<use xlink:href="#f3_b" transform="matrix(10.5,0,0,10.5,221.8,621)" />
<use xlink:href="#f3_c" transform="matrix(10.5,0,0,10.5,228.1,621)" />
<use xlink:href="#f3_d" transform="matrix(10.5,0,0,10.5,236,621)" />
<use xlink:href="#f3_t" transform="matrix(10.5,0,0,10.5,244.1,621)" />
<use xlink:href="#f3_a" transform="matrix(10.5,0,0,10.5,248.5,621)" />
<use xlink:href="#f0_a" transform="matrix(12,0,0,12,155.5,623)" />
<use xlink:href="#f0_4" transform="matrix(12,0,0,12,167.6,623)" />
<use xlink:href="#f0_b" transform="matrix(12,0,0,12,172.6,623)" />
<use xlink:href="#f0_h" transform="matrix(12,0,0,12,183,623)" />
<use xlink:href="#f0_b" transform="matrix(12,0,0,12,194.4,623)" />
<use xlink:href="#f3_e" transform="matrix(11,0,0,11,640,643.8)" />
<use xlink:href="#f3_7" transform="matrix(11,0,0,11,648.4,643.8)" />
<use xlink:href="#f3_6" transform="matrix(11,0,0,11,472.7,643.8)" />
<use xlink:href="#f3_7" transform="matrix(11,0,0,11,480.2,643.8)" />
<use xlink:href="#f3_8" transform="matrix(11,0,0,11,488.4,643.8)" />
<use xlink:href="#f3_9" transform="matrix(11,0,0,11,501.5,643.8)" />
<use xlink:href="#f3_a" transform="matrix(11,0,0,11,509.9,643.8)" />
<use xlink:href="#f3_i" transform="matrix(11,0,0,11,515.6,643.8)" />
<use xlink:href="#f3_6" transform="matrix(11,0,0,11,305.4,643.8)" />
<use xlink:href="#f3_7" transform="matrix(11,0,0,11,312.9,643.8)" />
<use xlink:href="#f3_8" transform="matrix(11,0,0,11,321.3,643.8)" />
<use xlink:href="#f3_x" transform="matrix(11,0,0,11,334.3,643.8)" />
<use xlink:href="#f3_b" transform="matrix(11,0,0,11,138.1,643.8)" />
<use xlink:href="#f3_c" transform="matrix(11,0,0,11,144.7,643.8)" />
<use xlink:href="#f3_d" transform="matrix(11,0,0,11,153.1,643.8)" />
<use xlink:href="#f3_x" transform="matrix(11,0,0,11,161.5,643.8)" />
<use xlink:href="#f3_f" transform="matrix(11,0,0,11,640,664)" />
<use xlink:href="#f3_g" transform="matrix(11,0,0,11,644.7,664)" />
<use xlink:href="#f3_6" transform="matrix(11,0,0,11,472.7,664)" />
<use xlink:href="#f3_7" transform="matrix(11,0,0,11,480.2,664)" />
<use xlink:href="#f3_8" transform="matrix(11,0,0,11,488.4,664)" />
<use xlink:href="#f3_9" transform="matrix(11,0,0,11,501.5,664)" />
<use xlink:href="#f3_a" transform="matrix(11,0,0,11,509.9,664)" />
<use xlink:href="#f3_n" transform="matrix(11,0,0,11,515.6,664)" />
<use xlink:href="#f3_b" transform="matrix(11,0,0,11,523,664)" />
<use xlink:href="#f3_f" transform="matrix(11,0,0,11,529.4,664)" />
<use xlink:href="#f3_m" transform="matrix(11,0,0,11,534.2,664)" />
<use xlink:href="#f3_6" transform="matrix(11,0,0,11,305.4,664)" />
<use xlink:href="#f3_7" transform="matrix(11,0,0,11,312.9,664)" />
<use xlink:href="#f3_8" transform="matrix(11,0,0,11,321.3,664)" />
<use xlink:href="#f3_t" transform="matrix(11,0,0,11,334.3,664)" />
<use xlink:href="#f3_b" transform="matrix(11,0,0,11,339,664)" />
<use xlink:href="#f3_f" transform="matrix(11,0,0,11,345.5,664)" />
<use xlink:href="#f3_m" transform="matrix(11,0,0,11,350.3,664)" />
<use xlink:href="#f3_b" transform="matrix(11,0,0,11,138.1,664)" />
<use xlink:href="#f3_c" transform="matrix(11,0,0,11,144.7,664)" />
<use xlink:href="#f3_d" transform="matrix(11,0,0,11,153.1,664)" />
<use xlink:href="#f3_t" transform="matrix(11,0,0,11,161.5,664)" />
<use xlink:href="#f3_b" transform="matrix(11,0,0,11,166.2,664)" />
<use xlink:href="#f3_f" transform="matrix(11,0,0,11,172.6,664)" />
<use xlink:href="#f3_m" transform="matrix(11,0,0,11,177.3,664)" />
<use xlink:href="#f3_i" transform="matrix(11,0,0,11,640,684)" />
<use xlink:href="#f3_k" transform="matrix(11,0,0,11,647.4,684)" />
<use xlink:href="#f3_l" transform="matrix(11,0,0,11,652,684)" />
<use xlink:href="#f3_m" transform="matrix(11,0,0,11,656.8,684)" />
<use xlink:href="#f3_k" transform="matrix(11,0,0,11,664.2,684)" />
<use xlink:href="#f3_k" transform="matrix(11,0,0,11,668.8,684)" />
<use xlink:href="#f3_n" transform="matrix(11,0,0,11,673.5,684)" />
<use xlink:href="#f3_l" transform="matrix(11,0,0,11,681,684)" />
<use xlink:href="#f3_o" transform="matrix(11,0,0,11,685.7,684)" />
<use xlink:href="#f3_p" transform="matrix(11,0,0,11,697.8,684)" />
<use xlink:href="#f3_q" transform="matrix(11,0,0,11,706.2,684)" />
<use xlink:href="#f3_6" transform="matrix(11,0,0,11,472.7,684)" />
<use xlink:href="#f3_7" transform="matrix(11,0,0,11,480.2,684)" />
<use xlink:href="#f3_8" transform="matrix(11,0,0,11,488.4,684)" />
<use xlink:href="#f3_9" transform="matrix(11,0,0,11,501.5,684)" />
<use xlink:href="#f3_a" transform="matrix(11,0,0,11,509.9,684)" />
<use xlink:href="#f3_w" transform="matrix(11,0,0,11,515.6,684)" />
<use xlink:href="#f3_6" transform="matrix(11,0,0,11,305.4,684)" />
<use xlink:href="#f3_7" transform="matrix(11,0,0,11,312.9,684)" />
<use xlink:href="#f3_8" transform="matrix(11,0,0,11,321.3,684)" />
<use xlink:href="#f3_t" transform="matrix(11,0,0,11,334.3,684)" />
<use xlink:href="#f3_w" transform="matrix(11,0,0,11,339,684)" />
<use xlink:href="#f3_b" transform="matrix(11,0,0,11,138.1,684)" />
<use xlink:href="#f3_c" transform="matrix(11,0,0,11,144.7,684)" />
<use xlink:href="#f3_d" transform="matrix(11,0,0,11,153.1,684)" />
<use xlink:href="#f3_t" transform="matrix(11,0,0,11,161.5,684)" />
<use xlink:href="#f3_w" transform="matrix(11,0,0,11,166.2,684)" />
<use xlink:href="#f3_r" transform="matrix(11,0,0,11,640,704.2)" />
<use xlink:href="#f3_7" transform="matrix(11,0,0,11,648.4,704.2)" />
<use xlink:href="#f3_b" transform="matrix(11,0,0,11,656.8,704.2)" />
<use xlink:href="#f3_7" transform="matrix(11,0,0,11,663.3,704.2)" />
<use xlink:href="#f3_f" transform="matrix(11,0,0,11,671.7,704.2)" />
<use xlink:href="#f3_a" transform="matrix(11,0,0,11,676.3,704.2)" />
<use xlink:href="#f3_7" transform="matrix(11,0,0,11,682,704.2)" />
<use xlink:href="#f3_b" transform="matrix(11,0,0,11,690.4,704.2)" />
<use xlink:href="#f3_l" transform="matrix(11,0,0,11,696.9,704.2)" />
<use xlink:href="#f3_n" transform="matrix(11,0,0,11,701.6,704.2)" />
<use xlink:href="#f3_b" transform="matrix(11,0,0,11,709,704.2)" />
<use xlink:href="#f3_6" transform="matrix(11,0,0,11,472.7,704.2)" />
<use xlink:href="#f3_7" transform="matrix(11,0,0,11,480.2,704.2)" />
<use xlink:href="#f3_8" transform="matrix(11,0,0,11,488.4,704.2)" />
<use xlink:href="#f3_9" transform="matrix(11,0,0,11,501.5,704.2)" />
<use xlink:href="#f3_a" transform="matrix(11,0,0,11,509.9,704.2)" />
<use xlink:href="#f3_n" transform="matrix(11,0,0,11,515.6,704.2)" />
<use xlink:href="#f3_8" transform="matrix(11,0,0,11,522.9,704.2)" />
<use xlink:href="#f3_7" transform="matrix(11,0,0,11,536,704.2)" />
<use xlink:href="#f3_b" transform="matrix(11,0,0,11,544.4,704.2)" />
<use xlink:href="#f3_6" transform="matrix(11,0,0,11,305.4,704.2)" />
<use xlink:href="#f3_7" transform="matrix(11,0,0,11,312.9,704.2)" />
<use xlink:href="#f3_8" transform="matrix(11,0,0,11,321.3,704.2)" />
<use xlink:href="#f3_t" transform="matrix(11,0,0,11,334.3,704.2)" />
<use xlink:href="#f3_8" transform="matrix(11,0,0,11,339,704.2)" />
<use xlink:href="#f3_7" transform="matrix(11,0,0,11,352.1,704.2)" />
<use xlink:href="#f3_b" transform="matrix(11,0,0,11,360.5,704.2)" />
<use xlink:href="#f3_b" transform="matrix(11,0,0,11,138.1,704.2)" />
<use xlink:href="#f3_c" transform="matrix(11,0,0,11,144.7,704.2)" />
<use xlink:href="#f3_d" transform="matrix(11,0,0,11,153.1,704.2)" />
<use xlink:href="#f3_t" transform="matrix(11,0,0,11,161.5,704.2)" />
<use xlink:href="#f3_8" transform="matrix(11,0,0,11,166.1,704.2)" />
<use xlink:href="#f3_7" transform="matrix(11,0,0,11,179.2,704.2)" />
<use xlink:href="#f3_b" transform="matrix(11,0,0,11,187.6,704.2)" />
<use xlink:href="#f3_m" transform="matrix(11,0,0,11,640,724.2)" />
<use xlink:href="#f3_k" transform="matrix(11,0,0,11,647.4,724.2)" />
<use xlink:href="#f3_k" transform="matrix(11,0,0,11,652,724.2)" />
<use xlink:href="#f3_7" transform="matrix(11,0,0,11,656.8,724.2)" />
<use xlink:href="#f3_b" transform="matrix(11,0,0,11,665.2,724.2)" />
<use xlink:href="#f3_l" transform="matrix(11,0,0,11,671.7,724.2)" />
<use xlink:href="#f3_n" transform="matrix(11,0,0,11,676.4,724.2)" />
<use xlink:href="#f3_b" transform="matrix(11,0,0,11,683.8,724.2)" />
<use xlink:href="#f3_l" transform="matrix(11,0,0,11,690.3,724.2)" />
<use xlink:href="#f3_o" transform="matrix(11,0,0,11,695,724.2)" />
<use xlink:href="#f3_p" transform="matrix(11,0,0,11,707.1,724.2)" />
<use xlink:href="#f3_b" transform="matrix(11,0,0,11,715.5,724.2)" />
<use xlink:href="#f3_q" transform="matrix(11,0,0,11,722.1,724.2)" />
<use xlink:href="#f3_6" transform="matrix(11,0,0,11,472.7,724.2)" />
<use xlink:href="#f3_7" transform="matrix(11,0,0,11,480.2,724.2)" />
<use xlink:href="#f3_8" transform="matrix(11,0,0,11,488.4,724.2)" />
<use xlink:href="#f3_9" transform="matrix(11,0,0,11,501.5,724.2)" />
<use xlink:href="#f3_a" transform="matrix(11,0,0,11,509.9,724.2)" />
<use xlink:href="#f3_n" transform="matrix(11,0,0,11,515.6,724.2)" />
<use xlink:href="#f3_a" transform="matrix(11,0,0,11,522.9,724.2)" />
<use xlink:href="#f3_7" transform="matrix(11,0,0,11,528.5,724.2)" />
<use xlink:href="#f3_r" transform="matrix(11,0,0,11,536.9,724.2)" />
<use xlink:href="#f3_6" transform="matrix(11,0,0,11,305.4,724.2)" />
<use xlink:href="#f3_7" transform="matrix(11,0,0,11,312.9,724.2)" />
<use xlink:href="#f3_8" transform="matrix(11,0,0,11,321.3,724.2)" />
<use xlink:href="#f3_t" transform="matrix(11,0,0,11,334.3,724.2)" />
<use xlink:href="#f3_m" transform="matrix(11,0,0,11,339,724.2)" />
<use xlink:href="#f3_a" transform="matrix(11,0,0,11,346.4,724.2)" />
<use xlink:href="#f3_7" transform="matrix(11,0,0,11,352.1,724.2)" />
<use xlink:href="#f3_r" transform="matrix(11,0,0,11,360.5,724.2)" />
<use xlink:href="#f3_b" transform="matrix(11,0,0,11,138.1,724.2)" />
<use xlink:href="#f3_c" transform="matrix(11,0,0,11,144.7,724.2)" />
<use xlink:href="#f3_d" transform="matrix(11,0,0,11,153.1,724.2)" />
<use xlink:href="#f3_t" transform="matrix(11,0,0,11,161.5,724.2)" />
<use xlink:href="#f3_m" transform="matrix(11,0,0,11,166.2,724.2)" />
<use xlink:href="#f3_a" transform="matrix(11,0,0,11,173.5,724.2)" />
<use xlink:href="#f3_7" transform="matrix(11,0,0,11,179.2,724.2)" />
<use xlink:href="#f3_r" transform="matrix(11,0,0,11,187.6,724.2)" />
</g>
<g fill="#0000FF" >
<use xlink:href="#f0_d" transform="matrix(12,0,0,12,669.9,765)" />
<use xlink:href="#f0_3" transform="matrix(12,0,0,12,682.9,765)" />
<use xlink:href="#f0_e" transform="matrix(12,0,0,12,693.1,765)" />
<use xlink:href="#f0_b" transform="matrix(12,0,0,12,704.6,765)" />
<use xlink:href="#f0_2" transform="matrix(12,0,0,12,720.9,765)" />
<use xlink:href="#f0_3" transform="matrix(12,0,0,12,732.8,765)" />
<use xlink:href="#f0_k" transform="matrix(12,0,0,12,743.2,765)" />
<use xlink:href="#f0_q" transform="matrix(12,0,0,12,749.6,765)" />
<use xlink:href="#f0_6" transform="matrix(12,0,0,12,761.5,765)" />
</g>
</g>
<path d="M669.8,766.8H772.1" class="g2_11" />
<g clip-path="url(#c0_11)">
<g fill="#000000" >
<use xlink:href="#f2_2" transform="matrix(13,0,0,13,137.7,807.3)" />
<use xlink:href="#f2_3" transform="matrix(13,0,0,13,152.8,807.3)" />
<use xlink:href="#f2_4" transform="matrix(13,0,0,13,160,807.3)" />
<use xlink:href="#f2_a" transform="matrix(13,0,0,13,172.6,807.3)" />
<use xlink:href="#f2_b" transform="matrix(13,0,0,13,183,807.3)" />
<use xlink:href="#f2_c" transform="matrix(13,0,0,13,195.1,807.3)" />
<use xlink:href="#f2_b" transform="matrix(13,0,0,13,202.6,807.3)" />
<use xlink:href="#f2_c" transform="matrix(13,0,0,13,214.6,807.3)" />
<use xlink:href="#f2_8" transform="matrix(13,0,0,13,222.1,807.3)" />
<use xlink:href="#f2_f" transform="matrix(13,0,0,13,242.6,807.3)" />
<use xlink:href="#f2_g" transform="matrix(13,0,0,13,263.2,807.3)" />
</g>
</g>
<path d="M367.2,851H772.4M367.2,873.2H772.4M367.2,895.4H772.4M367.2,917.5H772.4M367.2,939.7H772.4M367.2,961.8H772.4M367.2,984H772.4m-405.2,22.1H772.4m-405.2,22.2H772.4m-405.2,22.1H772.4M367.6,850.7v200.1M562.4,850.7v200.1M772,850.7v200.1" class="g1_11" />
<g clip-path="url(#c0_11)">
<g fill="#000000" >
<use xlink:href="#f3_1j" transform="matrix(11,0,0,11,376.3,867.2)" />
<use xlink:href="#f3_7" transform="matrix(11,0,0,11,388.4,867.2)" />
<use xlink:href="#f3_m" transform="matrix(11,0,0,11,401,867.2)" />
<use xlink:href="#f3_r" transform="matrix(11,0,0,11,408.5,867.2)" />
<use xlink:href="#f3_f" transform="matrix(11,0,0,11,416.9,867.2)" />
<use xlink:href="#f3_a" transform="matrix(11,0,0,11,421.5,867.2)" />
<use xlink:href="#f3_i" transform="matrix(11,0,0,11,427.1,867.2)" />
<use xlink:href="#f3_q" transform="matrix(11,0,0,11,434.6,867.2)" />
<use xlink:href="#f0_g" transform="matrix(12,0,0,12,676.2,868.5)" />
<use xlink:href="#f0_l" transform="matrix(12,0,0,12,682,868.5)" />
<use xlink:href="#f0_a" transform="matrix(12,0,0,12,686.1,868.5)" />
<use xlink:href="#f0_t" transform="matrix(12,0,0,12,698.2,868.5)" />
<use xlink:href="#f0_n" transform="matrix(12,0,0,12,710.1,868.5)" />
<use xlink:href="#f0_c" transform="matrix(12,0,0,12,717.4,868.5)" />
<use xlink:href="#f0_n" transform="matrix(12,0,0,12,727,868.5)" />
<use xlink:href="#f0_l" transform="matrix(12,0,0,12,740.2,868.5)" />
<use xlink:href="#f0_n" transform="matrix(12,0,0,12,744.3,868.5)" />
<use xlink:href="#f0_8" transform="matrix(12,0,0,12,751.6,868.5)" />
<use xlink:href="#f3_1l" transform="matrix(11,0,0,11,376.3,889.3)" />
<use xlink:href="#f3_g" transform="matrix(11,0,0,11,386.5,889.3)" />
<use xlink:href="#f3_m" transform="matrix(11,0,0,11,399.2,889.3)" />
<use xlink:href="#f3_r" transform="matrix(11,0,0,11,406.7,889.3)" />
<use xlink:href="#f3_f" transform="matrix(11,0,0,11,414.9,889.3)" />
<use xlink:href="#f3_a" transform="matrix(11,0,0,11,419.6,889.3)" />
<use xlink:href="#f3_n" transform="matrix(11,0,0,11,425.3,889.3)" />
<use xlink:href="#f3_b" transform="matrix(11,0,0,11,432.7,889.3)" />
<use xlink:href="#f3_f" transform="matrix(11,0,0,11,439.1,889.3)" />
<use xlink:href="#f3_m" transform="matrix(11,0,0,11,443.9,889.3)" />
<use xlink:href="#f3_q" transform="matrix(11,0,0,11,451.3,889.3)" />
<use xlink:href="#f0_g" transform="matrix(12,0,0,12,667.8,890.7)" />
<use xlink:href="#f0_a" transform="matrix(12,0,0,12,673.6,890.7)" />
<use xlink:href="#f0_t" transform="matrix(12,0,0,12,685.6,890.7)" />
<use xlink:href="#f0_n" transform="matrix(12,0,0,12,697.5,890.7)" />
<use xlink:href="#f0_c" transform="matrix(12,0,0,12,704.9,890.7)" />
<use xlink:href="#f0_n" transform="matrix(12,0,0,12,714.5,890.7)" />
<use xlink:href="#f0_2" transform="matrix(12,0,0,12,727.6,890.7)" />
<use xlink:href="#f0_a" transform="matrix(12,0,0,12,739.6,890.7)" />
<use xlink:href="#f0_8" transform="matrix(12,0,0,12,751.6,890.7)" />
<use xlink:href="#f3_4" transform="matrix(11,0,0,11,376.3,911.5)" />
<use xlink:href="#f3_k" transform="matrix(11,0,0,11,386.5,911.5)" />
<use xlink:href="#f3_m" transform="matrix(11,0,0,11,395.5,911.5)" />
<use xlink:href="#f3_r" transform="matrix(11,0,0,11,402.8,911.5)" />
<use xlink:href="#f3_f" transform="matrix(11,0,0,11,411.2,911.5)" />
<use xlink:href="#f3_a" transform="matrix(11,0,0,11,416,911.5)" />
<use xlink:href="#f3_w" transform="matrix(11,0,0,11,421.6,911.5)" />
<use xlink:href="#f3_q" transform="matrix(11,0,0,11,429.9,911.5)" />
<use xlink:href="#f0_g" transform="matrix(12,0,0,12,686.9,912.8)" />
<use xlink:href="#f0_t" transform="matrix(12,0,0,12,692.7,912.8)" />
<use xlink:href="#f0_n" transform="matrix(12,0,0,12,704.6,912.8)" />
<use xlink:href="#f0_c" transform="matrix(12,0,0,12,711.9,912.8)" />
<use xlink:href="#f0_n" transform="matrix(12,0,0,12,721.6,912.8)" />
<use xlink:href="#f0_8" transform="matrix(12,0,0,12,734.7,912.8)" />
<use xlink:href="#f0_4" transform="matrix(12,0,0,12,746.9,912.8)" />
<use xlink:href="#f0_2" transform="matrix(12,0,0,12,752,912.8)" />
<use xlink:href="#f3_4" transform="matrix(11,0,0,11,376.3,933.6)" />
<use xlink:href="#f3_k" transform="matrix(11,0,0,11,386.5,933.6)" />
<use xlink:href="#f3_k" transform="matrix(11,0,0,11,391.2,933.6)" />
<use xlink:href="#f3_n" transform="matrix(11,0,0,11,395.8,933.6)" />
<use xlink:href="#f3_m" transform="matrix(11,0,0,11,407.6,933.6)" />
<use xlink:href="#f3_r" transform="matrix(11,0,0,11,415,933.6)" />
<use xlink:href="#f3_f" transform="matrix(11,0,0,11,423.3,933.6)" />
<use xlink:href="#f3_a" transform="matrix(11,0,0,11,428,933.6)" />
<use xlink:href="#f3_w" transform="matrix(11,0,0,11,433.6,933.6)" />
<use xlink:href="#f3_q" transform="matrix(11,0,0,11,442,933.6)" />
<use xlink:href="#f0_g" transform="matrix(12,0,0,12,675.9,935)" />
<use xlink:href="#f0_2" transform="matrix(12,0,0,12,681.7,935)" />
<use xlink:href="#f0_t" transform="matrix(12,0,0,12,693.6,935)" />
<use xlink:href="#f0_n" transform="matrix(12,0,0,12,705.5,935)" />
<use xlink:href="#f0_c" transform="matrix(12,0,0,12,712.8,935)" />
<use xlink:href="#f0_n" transform="matrix(12,0,0,12,722.5,935)" />
<use xlink:href="#f0_8" transform="matrix(12,0,0,12,735.6,935)" />
<use xlink:href="#f0_l" transform="matrix(12,0,0,12,747.8,935)" />
<use xlink:href="#f0_2" transform="matrix(12,0,0,12,752,935)" />
<use xlink:href="#f3_1k" transform="matrix(11,0,0,11,376.3,955.8)" />
<use xlink:href="#f3_7" transform="matrix(11,0,0,11,388.4,955.8)" />
<use xlink:href="#f3_b" transform="matrix(11,0,0,11,396.8,955.8)" />
<use xlink:href="#f3_7" transform="matrix(11,0,0,11,403.3,955.8)" />
<use xlink:href="#f3_f" transform="matrix(11,0,0,11,411.7,955.8)" />
<use xlink:href="#f3_a" transform="matrix(11,0,0,11,416.4,955.8)" />
<use xlink:href="#f3_7" transform="matrix(11,0,0,11,422.1,955.8)" />
<use xlink:href="#f3_b" transform="matrix(11,0,0,11,430.5,955.8)" />
<use xlink:href="#f3_m" transform="matrix(11,0,0,11,441.1,955.8)" />
<use xlink:href="#f3_r" transform="matrix(11,0,0,11,448.6,955.8)" />
<use xlink:href="#f3_f" transform="matrix(11,0,0,11,457,955.8)" />
<use xlink:href="#f3_a" transform="matrix(11,0,0,11,461.6,955.8)" />
<use xlink:href="#f3_n" transform="matrix(11,0,0,11,467.2,955.8)" />
<use xlink:href="#f3_8" transform="matrix(11,0,0,11,474.7,955.8)" />
<use xlink:href="#f3_7" transform="matrix(11,0,0,11,487.8,955.8)" />
<use xlink:href="#f3_b" transform="matrix(11,0,0,11,496.1,955.8)" />
<use xlink:href="#f3_q" transform="matrix(11,0,0,11,502.6,955.8)" />
<use xlink:href="#f0_g" transform="matrix(12,0,0,12,659.8,957.2)" />
<use xlink:href="#f0_4" transform="matrix(12,0,0,12,665.7,957.2)" />
<use xlink:href="#f0_n" transform="matrix(12,0,0,12,670.7,957.2)" />
<use xlink:href="#f0_t" transform="matrix(12,0,0,12,678,957.2)" />
<use xlink:href="#f0_n" transform="matrix(12,0,0,12,689.9,957.2)" />
<use xlink:href="#f0_c" transform="matrix(12,0,0,12,697.2,957.2)" />
<use xlink:href="#f0_n" transform="matrix(12,0,0,12,706.9,957.2)" />
<use xlink:href="#f0_4" transform="matrix(12,0,0,12,720,957.2)" />
<use xlink:href="#f0_n" transform="matrix(12,0,0,12,725,957.2)" />
<use xlink:href="#f0_q" transform="matrix(12,0,0,12,732.4,957.2)" />
<use xlink:href="#f0_n" transform="matrix(12,0,0,12,744.3,957.2)" />
<use xlink:href="#f0_8" transform="matrix(12,0,0,12,751.6,957.2)" />
<use xlink:href="#f3_o" transform="matrix(11,0,0,11,376.3,977.9)" />
<use xlink:href="#f3_p" transform="matrix(11,0,0,11,388.4,977.9)" />
<use xlink:href="#f3_q" transform="matrix(11,0,0,11,396.8,977.9)" />
<use xlink:href="#f3_m" transform="matrix(11,0,0,11,405.3,977.9)" />
<use xlink:href="#f3_r" transform="matrix(11,0,0,11,412.8,977.9)" />
<use xlink:href="#f3_f" transform="matrix(11,0,0,11,421,977.9)" />
<use xlink:href="#f3_a" transform="matrix(11,0,0,11,425.7,977.9)" />
<use xlink:href="#f3_w" transform="matrix(11,0,0,11,431.4,977.9)" />
<use xlink:href="#f3_q" transform="matrix(11,0,0,11,439.6,977.9)" />
<use xlink:href="#f0_g" transform="matrix(12,0,0,12,675.7,979.3)" />
<use xlink:href="#f0_t" transform="matrix(12,0,0,12,681.5,979.3)" />
<use xlink:href="#f0_n" transform="matrix(12,0,0,12,693.4,979.3)" />
<use xlink:href="#f0_c" transform="matrix(12,0,0,12,700.8,979.3)" />
<use xlink:href="#f0_n" transform="matrix(12,0,0,12,710.4,979.3)" />
<use xlink:href="#f0_4" transform="matrix(12,0,0,12,723.7,979.3)" />
<use xlink:href="#f0_m" transform="matrix(12,0,0,12,728.6,979.3)" />
<use xlink:href="#f0_4" transform="matrix(12,0,0,12,738.6,979.3)" />
<use xlink:href="#f0_6" transform="matrix(12,0,0,12,743.7,979.3)" />
<use xlink:href="#f0_c" transform="matrix(12,0,0,12,754.2,979.3)" />
<use xlink:href="#f3_4" transform="matrix(11,0,0,11,376.3,1000.1)" />
<use xlink:href="#f3_k" transform="matrix(11,0,0,11,386.5,1000.1)" />
<use xlink:href="#f3_k" transform="matrix(11,0,0,11,391.2,1000.1)" />
<use xlink:href="#f3_7" transform="matrix(11,0,0,11,396,1000.1)" />
<use xlink:href="#f3_b" transform="matrix(11,0,0,11,404.2,1000.1)" />
<use xlink:href="#f3_m" transform="matrix(11,0,0,11,415,1000.1)" />
<use xlink:href="#f3_r" transform="matrix(11,0,0,11,422.5,1000.1)" />
<use xlink:href="#f3_f" transform="matrix(11,0,0,11,430.8,1000.1)" />
<use xlink:href="#f3_a" transform="matrix(11,0,0,11,435.5,1000.1)" />
<use xlink:href="#f3_n" transform="matrix(11,0,0,11,441.1,1000.1)" />
<use xlink:href="#f3_a" transform="matrix(11,0,0,11,448.6,1000.1)" />
<use xlink:href="#f3_7" transform="matrix(11,0,0,11,454.2,1000.1)" />
<use xlink:href="#f3_r" transform="matrix(11,0,0,11,462.6,1000.1)" />
<use xlink:href="#f3_q" transform="matrix(11,0,0,11,470.9,1000.1)" />
<use xlink:href="#f0_g" transform="matrix(12,0,0,12,686.9,1001.5)" />
<use xlink:href="#f0_4" transform="matrix(12,0,0,12,692.7,1001.5)" />
<use xlink:href="#f0_t" transform="matrix(12,0,0,12,697.7,1001.5)" />
<use xlink:href="#f0_n" transform="matrix(12,0,0,12,709.6,1001.5)" />
<use xlink:href="#f0_c" transform="matrix(12,0,0,12,717,1001.5)" />
<use xlink:href="#f0_n" transform="matrix(12,0,0,12,726.6,1001.5)" />
<use xlink:href="#f0_f" transform="matrix(12,0,0,12,739.7,1001.5)" />
<use xlink:href="#f0_2" transform="matrix(12,0,0,12,751.9,1001.5)" />
<use xlink:href="#f3_o" transform="matrix(11,0,0,11,376.3,1022.2)" />
<use xlink:href="#f3_p" transform="matrix(11,0,0,11,388.4,1022.2)" />
<use xlink:href="#f3_b" transform="matrix(11,0,0,11,396.8,1022.2)" />
<use xlink:href="#f3_q" transform="matrix(11,0,0,11,403.3,1022.2)" />
<use xlink:href="#f3_m" transform="matrix(11,0,0,11,411.9,1022.2)" />
<use xlink:href="#f3_r" transform="matrix(11,0,0,11,419.2,1022.2)" />
<use xlink:href="#f3_f" transform="matrix(11,0,0,11,427.6,1022.2)" />
<use xlink:href="#f3_a" transform="matrix(11,0,0,11,432.3,1022.2)" />
<use xlink:href="#f3_n" transform="matrix(11,0,0,11,437.8,1022.2)" />
<use xlink:href="#f3_a" transform="matrix(11,0,0,11,445.3,1022.2)" />
<use xlink:href="#f3_7" transform="matrix(11,0,0,11,450.9,1022.2)" />
<use xlink:href="#f3_r" transform="matrix(11,0,0,11,459.3,1022.2)" />
<use xlink:href="#f3_q" transform="matrix(11,0,0,11,467.7,1022.2)" />
<use xlink:href="#f0_g" transform="matrix(12,0,0,12,655.3,1023.6)" />
<use xlink:href="#f0_f" transform="matrix(12,0,0,12,661.1,1023.6)" />
<use xlink:href="#f0_a" transform="matrix(12,0,0,12,673.3,1023.6)" />
<use xlink:href="#f0_t" transform="matrix(12,0,0,12,685.3,1023.6)" />
<use xlink:href="#f0_n" transform="matrix(12,0,0,12,697.2,1023.6)" />
<use xlink:href="#f0_c" transform="matrix(12,0,0,12,704.6,1023.6)" />
<use xlink:href="#f0_n" transform="matrix(12,0,0,12,714.2,1023.6)" />
<use xlink:href="#f0_f" transform="matrix(12,0,0,12,727.3,1023.6)" />
<use xlink:href="#f0_a" transform="matrix(12,0,0,12,739.5,1023.6)" />
<use xlink:href="#f0_8" transform="matrix(12,0,0,12,751.6,1023.6)" />
<use xlink:href="#f3_1l" transform="matrix(11,0,0,11,376.3,1044.4)" />
<use xlink:href="#f3_g" transform="matrix(11,0,0,11,386.5,1044.4)" />
<use xlink:href="#f3_m" transform="matrix(11,0,0,11,399.2,1044.4)" />
<use xlink:href="#f3_r" transform="matrix(11,0,0,11,406.7,1044.4)" />
<use xlink:href="#f3_f" transform="matrix(11,0,0,11,414.9,1044.4)" />
<use xlink:href="#f3_a" transform="matrix(11,0,0,11,419.6,1044.4)" />
<use xlink:href="#f3_n" transform="matrix(11,0,0,11,425.3,1044.4)" />
<use xlink:href="#f3_b" transform="matrix(11,0,0,11,432.7,1044.4)" />
<use xlink:href="#f3_f" transform="matrix(11,0,0,11,439.1,1044.4)" />
<use xlink:href="#f3_m" transform="matrix(11,0,0,11,443.9,1044.4)" />
<use xlink:href="#f3_q" transform="matrix(11,0,0,11,451.3,1044.4)" />
<use xlink:href="#f0_g" transform="matrix(12,0,0,12,679.7,1045.8)" />
<use xlink:href="#f0_a" transform="matrix(12,0,0,12,685.5,1045.8)" />
<use xlink:href="#f0_t" transform="matrix(12,0,0,12,697.6,1045.8)" />
<use xlink:href="#f0_n" transform="matrix(12,0,0,12,709.5,1045.8)" />
<use xlink:href="#f0_c" transform="matrix(12,0,0,12,716.8,1045.8)" />
<use xlink:href="#f0_n" transform="matrix(12,0,0,12,726.4,1045.8)" />
<use xlink:href="#f0_a" transform="matrix(12,0,0,12,739.6,1045.8)" />
<use xlink:href="#f0_8" transform="matrix(12,0,0,12,751.6,1045.8)" />
</g>
<g fill="#0000FF" >
<use xlink:href="#f0_d" transform="matrix(12,0,0,12,669.9,1087.2)" />
<use xlink:href="#f0_3" transform="matrix(12,0,0,12,682.9,1087.2)" />
<use xlink:href="#f0_e" transform="matrix(12,0,0,12,693.1,1087.2)" />
<use xlink:href="#f0_b" transform="matrix(12,0,0,12,704.6,1087.2)" />
<use xlink:href="#f0_2" transform="matrix(12,0,0,12,720.9,1087.2)" />
<use xlink:href="#f0_3" transform="matrix(12,0,0,12,732.8,1087.2)" />
<use xlink:href="#f0_k" transform="matrix(12,0,0,12,743.2,1087.2)" />
<use xlink:href="#f0_q" transform="matrix(12,0,0,12,749.6,1087.2)" />
<use xlink:href="#f0_6" transform="matrix(12,0,0,12,761.5,1087.2)" />
</g>
</g>
<path d="M669.8,1089H772.1" class="g2_11" />
<g clip-path="url(#c0_11)">
<g fill="#000000" >
<use xlink:href="#f2_2" transform="matrix(13,0,0,13,137.7,1148.9)" />
<use xlink:href="#f2_3" transform="matrix(13,0,0,13,152.8,1148.9)" />
<use xlink:href="#f2_4" transform="matrix(13,0,0,13,160,1148.9)" />
<use xlink:href="#f2_a" transform="matrix(13,0,0,13,172.6,1148.9)" />
<use xlink:href="#f2_b" transform="matrix(13,0,0,13,183,1148.9)" />
<use xlink:href="#f2_c" transform="matrix(13,0,0,13,195.1,1148.9)" />
<use xlink:href="#f2_b" transform="matrix(13,0,0,13,202.6,1148.9)" />
<use xlink:href="#f2_c" transform="matrix(13,0,0,13,214.6,1148.9)" />
<use xlink:href="#f2_8" transform="matrix(13,0,0,13,222.1,1148.9)" />
<use xlink:href="#f2_h" transform="matrix(13,0,0,13,242.6,1148.9)" />
<use xlink:href="#f2_g" transform="matrix(13,0,0,13,263.2,1148.9)" />
<use xlink:href="#f0_z" transform="matrix(11,0,0,11,137.5,1208.9)" />
<use xlink:href="#f0_z" transform="matrix(11,0,0,11,148.2,1208.9)" />
</g>
</g>
<image preserveAspectRatio="none" x="143" y="432" width="242" height="273" xlink:href="img/1.png" />
<image preserveAspectRatio="none" x="510" y="473" width="209" height="233" xlink:href="img/2.png" />
<defs>
<path d="M736,107V473c0,0,0,147,-48,202c0,0,-49,54,-187,54H278V107ZM139,0V836H499c0,0,105,0,177,-22c0,0,72,-21,116,-69c0,0,44,-49,64,-119c0,0,19,-71,19,-174V0Z" 
id="f0_f"
transform="scale(0.001,-0.001)" />

<path d="M71,-141V-15L289,62L66,836H210L416,109c0,0,99,42,153,98c0,0,53,56,80,155c0,0,26,98,26,262V836H817V624c0,0,0,-88,-7,-154c0,0,-7,-67,-25,-132c0,0,-18,-66,-51,-116c0,0,-33,-51,-84,-98c0,0,-50,-48,-123,-87c0,0,-72,-39,-169,-74L71,-141Z" 
id="f0_h"
transform="scale(0.001,-0.001)" />

<path d="M112,-5c0,0,-39,0,-97,11V113c0,0,48,-10,77,-10c0,0,53,0,70,42c0,0,17,43,17,164V729H50V836H501c0,0,107,0,179,-25c0,0,72,-25,112,-77c0,0,40,-51,57,-118c0,0,16,-67,16,-164V0H726V454c0,0,0,55,-3,92c0,0,-4,37,-17,75c0,0,-14,38,-38,59c0,0,-24,22,-65,36c0,0,-42,13,-102,13H318V309c0,0,0,-160,-46,-237C272,72,226,-5,112,-5Z" 
id="f0_a"
transform="scale(0.001,-0.001)" />

<path d="M139,0V836H278V0Z" 
id="f0_4"
transform="scale(0.001,-0.001)" />

<path d="M139,0V836H485c0,0,206,0,290,-90c0,0,84,-89,84,-294V0H721V473c0,0,0,147,-49,202c0,0,-48,54,-186,54H277V0Z" 
id="f0_q"
transform="scale(0.001,-0.001)" />

<path d="M102,312V836H241V369L102,312Z" 
id="f0_l"
transform="scale(0.001,-0.001)" />

<path d="M180,0L66,836H203L258,443c0,0,36,1,64,6c0,0,28,6,49,18c0,0,20,12,35,26c0,0,15,13,26,36c0,0,11,24,17,44c0,0,7,20,12,55c0,0,6,34,9,60c0,0,3,26,8,71c0,0,4,45,9,77H610c0,0,-13,-194,-31,-271c0,0,-31,-127,-111,-179c0,0,-71,-45,-196,-50L304,107c0,0,73,0,130,5c0,0,56,6,111,21c0,0,54,15,94,40c0,0,40,25,77,64c0,0,37,39,63,94c0,0,25,54,46,128c0,0,21,73,34,166c0,0,13,94,20,211h138c0,0,-14,-124,-29,-218c0,0,-16,-94,-39,-179c0,0,-22,-85,-50,-146c0,0,-28,-61,-68,-112c0,0,-39,-51,-87,-84C744,97,696,65,632,42C632,42,568,19,492,10C492,10,417,0,320,0Z" 
id="f0_p"
transform="scale(0.001,-0.001)" />

<path d="M66,0V107H554V452c0,0,0,56,-4,93c0,0,-4,37,-18,75c0,0,-14,38,-40,60c0,0,-26,22,-71,36c0,0,-45,13,-110,13H66V836H312c0,0,91,0,157,-17c0,0,66,-17,109,-49c0,0,44,-32,69,-84c0,0,26,-52,36,-114c0,0,10,-62,10,-147V107H817V0Z" 
id="f0_6"
transform="scale(0.001,-0.001)" />

<path d="M139,0V138c0,0,0,61,8,112c0,0,7,52,19,87c0,0,11,36,30,66c0,0,19,31,35,49c0,0,17,19,41,35c0,0,25,17,41,25c0,0,17,7,40,17L141,836H303L613,388c0,0,20,10,33,18c0,0,13,8,34,28c0,0,20,20,33,44c0,0,13,25,22,66c0,0,10,41,10,92V836H882V698c0,0,0,-61,-7,-112c0,0,-6,-52,-18,-88c0,0,-12,-36,-30,-66c0,0,-19,-30,-36,-49c0,0,-17,-18,-41,-34c0,0,-24,-17,-40,-25c0,0,-17,-8,-41,-17L882,0H720L409,448c0,0,-21,-11,-34,-19c0,0,-13,-8,-34,-27c0,0,-21,-20,-34,-44c0,0,-12,-25,-22,-66c0,0,-9,-41,-9,-92V0Z" 
id="f0_8"
transform="scale(0.001,-0.001)" />

<path d="M287,0L589,729H66v386H205V836l547,-1l-2,-82L433,0Z" 
id="f0_b"
transform="scale(0.001,-0.001)" />

<path d="M522,-20c0,0,-196,0,-290,99c0,0,-94,100,-94,324V836H276V397c0,0,0,-86,16,-147c0,0,17,-60,50,-94c0,0,34,-34,77,-49c0,0,43,-15,103,-15c0,0,59,0,102,15c0,0,44,15,77,49c0,0,33,34,50,94c0,0,17,61,17,147c0,0,0,84,-8,143c0,0,-7,58,-25,105c0,0,-17,47,-51,69c0,0,-33,23,-83,23c0,0,-50,0,-119,-22V821c0,0,85,23,150,23c0,0,76,0,130,-30c0,0,53,-31,85,-90c0,0,31,-59,45,-138c0,0,13,-78,13,-183c0,0,0,-224,-93,-324c0,0,-94,-99,-290,-99Z" 
id="f0_9"
transform="scale(0.001,-0.001)" />

<path d="M156,-317V454l139,56V-317ZM505,0L806,729H139V835H967V753L650,0Z" 
id="f0_d"
transform="scale(0.001,-0.001)" />

<path d="M495,0V729H66V836H781V729H634V0Z" 
id="f0_m"
transform="scale(0.001,-0.001)" />

<path d="M585,0V426c0,0,0,54,-8,98c0,0,-8,44,-27,83c0,0,-19,40,-49,66c0,0,-30,26,-77,41c0,0,-47,15,-108,15H66V836H315c0,0,94,0,166,-20c0,0,71,-20,116,-54c0,0,46,-35,75,-88c0,0,28,-52,40,-112c0,0,12,-60,12,-137V0Z" 
id="f0_3"
transform="scale(0.001,-0.001)" />

<path d="M114,0l60,312c0,0,2,12,8,39c0,0,6,27,7,37c0,0,2,11,5,30c0,0,2,19,4,33c0,0,1,15,1,31c0,0,0,48,-35,146c0,0,-35,98,-98,208H228c0,0,3,-8,27,-67c0,0,25,-58,41,-117c0,0,21,53,50,90c0,0,29,37,57,57c0,0,29,21,65,32c0,0,37,11,65,14c0,0,28,3,67,3c0,0,300,0,300,-396V0H480V106H761V452c0,0,0,146,-46,215c0,0,-45,70,-118,70c0,0,-134,0,-198,-119c0,0,-36,-68,-67,-222c0,0,-2,-10,-6,-27L253,0Z" 
id="f0_j"
transform="scale(0.001,-0.001)" />

<path d="M66,0V106H564L66,836H228L516,413c0,0,3,2,9,6c0,0,17,13,27,21c0,0,10,8,26,27c0,0,17,20,26,40c0,0,9,21,16,54c0,0,7,34,7,75V836H764V698c0,0,0,-55,-7,-102c0,0,-7,-47,-16,-79c0,0,-10,-33,-27,-62c0,0,-18,-29,-32,-46c0,0,-14,-17,-37,-35c0,0,-22,-17,-36,-25c0,0,-13,-8,-36,-20L767,53V0Z" 
id="f0_5"
transform="scale(0.001,-0.001)" />

<path d="M543,-317V369c0,0,0,85,-8,143c0,0,-8,58,-27,101c0,0,-18,44,-51,69c0,0,-33,24,-80,36c0,0,-48,11,-117,11H66V836H257c0,0,125,0,205,-23c0,0,80,-23,130,-79c0,0,50,-56,70,-143c0,0,20,-86,20,-222V-317Z" 
id="f0_s"
transform="scale(0.001,-0.001)" />

<path d="M700,-317V454c0,0,0,155,-54,215c0,0,-54,60,-180,60H277V551c0,0,0,-55,26,-80c0,0,27,-26,82,-26c0,0,30,0,80,10V341c0,0,-61,-11,-111,-11c0,0,-100,0,-157,55c0,0,-58,55,-58,186V836H466c0,0,203,0,288,-91c0,0,85,-92,85,-293V-317Z" 
id="f0_v"
transform="scale(0.001,-0.001)" />

<path d="M522,92c0,0,247,0,247,333c0,0,0,88,-17,146c0,0,-17,58,-53,91c0,0,-35,33,-82,46c0,0,-48,14,-116,14H276V419c0,0,0,-327,246,-327Zm0,-112c0,0,-193,0,-289,109c0,0,-95,110,-95,337V836H501c0,0,213,0,309,-93c0,0,96,-94,96,-317c0,0,0,-227,-95,-337C811,89,715,-20,522,-20Z" 
id="f0_t"
transform="scale(0.001,-0.001)" />

<path d="M154,0V454l138,56V0ZM722,0V454c0,0,0,161,-49,218c0,0,-48,57,-186,57H139V836H485c0,0,207,0,291,-93c0,0,83,-94,83,-318V0Z" 
id="f0_2"
transform="scale(0.001,-0.001)" />

<path d="M139,-317V836H278V-317Z" 
id="f0_i"
transform="scale(0.001,-0.001)" />

<path d="M139,0V106H400c0,0,176,0,253,71c0,0,78,72,78,250c0,0,0,163,-80,233c0,0,-81,69,-250,69H278L277,564c0,0,-1,-54,26,-80c0,0,27,-25,82,-25c0,0,30,0,80,9V355c0,0,-61,-12,-111,-12c0,0,-100,0,-157,55c0,0,-58,55,-58,186V836H456c0,0,193,0,303,-109c0,0,110,-109,110,-309c0,0,0,-200,-110,-309C759,109,648,0,456,0Z" 
id="f0_e"
transform="scale(0.001,-0.001)" />

<path d="M66,0V106H322c0,0,75,0,127,23c0,0,53,23,82,67c0,0,29,43,42,98c0,0,13,54,13,124c0,0,0,70,-13,124c0,0,-13,55,-42,98c0,0,-29,44,-82,67c0,0,-52,23,-127,23H66V836H322c0,0,87,0,157,-24c0,0,70,-24,115,-64c0,0,45,-40,74,-94c0,0,30,-55,43,-113c0,0,13,-59,13,-123c0,0,0,-64,-13,-123c0,0,-13,-58,-43,-113c0,0,-29,-54,-74,-94C594,88,549,48,479,24C479,24,409,0,322,0Z" 
id="f0_c"
transform="scale(0.001,-0.001)" />

<path d="M66,0V107H332V555c0,0,0,92,-37,133c0,0,-37,41,-116,41H85V836h94c0,0,153,0,223,-66c0,0,69,-66,69,-231V0Z" 
id="f0_n"
transform="scale(0.001,-0.001)" />

<path d="M163,0V190H321V0Z" 
id="f0_g"
transform="scale(0.001,-0.001)" />

<path d="M138,-7c0,0,-34,0,-72,10V129c0,0,25,-8,52,-8c0,0,33,0,58,5c0,0,26,5,58,24c0,0,33,20,53,54c0,0,21,34,36,97c0,0,15,64,15,151c0,0,0,113,-19,173c0,0,-19,60,-56,82c0,0,-38,22,-107,22H89V836h72c0,0,165,0,240,-91c0,0,76,-91,76,-293c0,0,0,-107,26,-227c0,0,25,-119,83,-225H437c0,0,-43,101,-62,184c0,0,-24,-60,-51,-99c0,0,-26,-38,-56,-58C268,27,239,7,209,0c0,0,-30,-7,-71,-7Z" 
id="f0_o"
transform="scale(0.001,-0.001)" />

<path d="M117,-176L179,62V190H336V62L213,-176Z" 
id="f0_r"
transform="scale(0.001,-0.001)" />

<path d="M152,0V473c0,0,0,94,28,161c0,0,29,66,71,95H66V836H463V729H404c0,0,-65,0,-89,-57c0,0,-25,-58,-25,-199V0Z" 
id="f0_k"
transform="scale(0.001,-0.001)" />

<path d="M498,506c0,0,115,0,164,47c0,0,48,48,48,166c0,0,0,112,-46,156c0,0,-46,43,-169,43H390V506ZM793,0L514,423H390V74L518,54V0H36V54L154,74V926L26,945v55H504c0,0,221,0,330,-68c0,0,109,-68,109,-212c0,0,0,-215,-201,-276L1009,74L1117,54V0Z" 
id="f1_1u"
transform="scale(0.001,-0.001)" />

<path d="M434,423c0,0,0,101,-7,142c0,0,-6,40,-22,60c0,0,-16,19,-45,19c0,0,-44,0,-66,-48c0,0,-22,-49,-22,-173ZM389,-14c0,0,-172,0,-254,89c0,0,-83,90,-83,279c0,0,0,184,79,274c0,0,79,91,238,91c0,0,142,0,206,-76c0,0,64,-76,64,-237V345H271V333c0,0,0,-111,18,-158c0,0,18,-47,58,-72c0,0,40,-25,110,-25c0,0,66,0,166,22V42C623,42,582,18,517,1c0,0,-66,-15,-128,-15Z" 
id="f1_d"
transform="scale(0.001,-0.001)" />

<path d="M276,-14c0,0,-57,0,-125,13C151,-1,83,10,48,23V214H97l28,-98c0,0,26,-26,69,-44c0,0,42,-17,86,-17c0,0,65,0,97,28c0,0,32,28,32,71c0,0,0,41,-31,65c0,0,-30,25,-133,57c0,0,-108,34,-154,92c0,0,-45,58,-45,143c0,0,0,95,71,152c0,0,71,57,183,57c0,0,77,0,207,-22V518H457l-24,82c0,0,-21,22,-60,35c0,0,-40,14,-75,14c0,0,-53,0,-79,-22c0,0,-26,-22,-26,-59c0,0,0,-40,32,-65c0,0,32,-26,132,-55c0,0,109,-34,155,-89c0,0,45,-55,45,-137c0,0,0,-117,-72,-177c0,0,-72,-59,-209,-59Z" 
id="f1_j"
transform="scale(0.001,-0.001)" />

<path d="M438,65c0,0,131,0,131,293c0,0,0,279,-130,279c0,0,-69,0,-127,-29V80c0,0,60,-15,126,-15ZM20,-325v50l76,18V634L19,652v49H304l1,-36c0,0,80,55,194,55c0,0,146,0,218,-86c0,0,71,-86,71,-271c0,0,0,-183,-83,-280c0,0,-83,-97,-238,-97c0,0,-79,0,-160,19c0,0,5,-48,5,-109V-257l103,-18v-50Z" 
id="f1_r"
transform="scale(0.001,-0.001)" />

<path d="M287,-18c0,0,-194,0,-194,206V634L23,652v49H309V217c0,0,0,-63,26,-98c0,0,27,-35,76,-35c0,0,57,0,113,25V634l-64,18v49H740V67L809,49V0H536L526,61L475,35c0,0,-104,-53,-188,-53Z" 
id="f1_s"
transform="scale(0.001,-0.001)" />

<path d="M327,-14c0,0,-101,0,-156,45c0,0,-55,45,-55,131V624H25v48l108,29l87,159H332V701H480V624H332V176c0,0,0,-49,20,-73c0,0,20,-25,53,-25c0,0,40,0,97,12V26c0,0,-22,-15,-76,-27c0,0,-55,-13,-99,-13Z" 
id="f1_k"
transform="scale(0.001,-0.001)" />

<path d="M345,75c0,0,50,0,110,26V351l-63,-2c0,0,-72,-3,-100,-38c0,0,-28,-35,-28,-113c0,0,0,-63,22,-93c0,0,23,-30,59,-30ZM266,-14c0,0,-217,0,-217,208c0,0,0,79,32,126c0,0,32,48,93,71c0,0,60,22,190,25l91,2V521c0,0,0,126,-104,126c0,0,-62,0,-140,-39L183,521H134V691c0,0,112,17,165,21c0,0,53,5,108,5c0,0,264,0,264,-194V67L741,49V0H483L466,54C466,54,408,14,361,0c0,0,-47,-14,-95,-14Z" 
id="f1_b"
transform="scale(0.001,-0.001)" />

<path d="M71,0V90H214v934H71v90H1073V851H970v160H502V654H792V796H895V411H792V552H502V103H984V263h102V0Z" 
id="f2_2"
transform="scale(0.001,-0.001)" />

<path d="M87,-338c0,0,-45,0,-94,7c0,0,-51,8,-105,22v168l84,-1c0,0,1,-59,23,-86c0,0,21,-26,70,-26c0,0,55,0,77,35c0,0,21,35,21,127V703H51v90H427V-92c0,0,0,-122,-86,-184c0,0,-86,-62,-254,-62ZM277,876c0,0,-61,0,-102,41c0,0,-42,41,-42,101c0,0,0,60,41,101c0,0,42,42,103,42c0,0,58,0,100,-42c0,0,42,-42,42,-101c0,0,0,-59,-42,-101c0,0,-41,-41,-100,-41Z" 
id="f2_3"
transform="scale(0.001,-0.001)" />

<path d="M612,448c0,0,0,156,-29,219c0,0,-29,63,-99,63c0,0,-68,0,-98,-61c0,0,-29,-62,-29,-208V448ZM488,-20c0,0,-205,0,-315,107C173,87,63,195,63,397c0,0,0,197,112,307c0,0,113,110,313,110c0,0,197,0,303,-115c0,0,105,-116,111,-340H357v-6c0,0,0,-154,46,-222c0,0,46,-68,149,-68c0,0,86,0,139,45c0,0,53,46,68,133H883C883,241,851,105,755,42c0,0,-95,-62,-267,-62Z" 
id="f2_4"
transform="scale(0.001,-0.001)" />

<path d="M53,0V90H165V703H44v90H429V652c0,0,39,83,103,123c0,0,64,39,156,39c0,0,24,0,57,-3c0,0,33,-3,76,-9V565H737c0,0,-4,63,-34,94c0,0,-30,31,-87,31c0,0,-87,0,-137,-76c0,0,-50,-76,-50,-211V90H573V0Z" 
id="f2_a"
transform="scale(0.001,-0.001)" />

<path d="M507,-20c0,0,-212,0,-328,108C179,88,63,198,63,397c0,0,0,197,114,307c0,0,115,110,320,110c0,0,82,0,167,-15c0,0,84,-16,171,-47V532H752c0,0,-12,101,-59,150c0,0,-47,48,-132,48c0,0,-111,0,-157,-74c0,0,-47,-75,-47,-259c0,0,0,-180,45,-257c0,0,46,-77,149,-77c0,0,80,0,128,47c0,0,48,48,58,137H861C861,247,833,112,745,45c0,0,-87,-65,-238,-65Z" 
id="f2_b"
transform="scale(0.001,-0.001)" />

<path d="M53,0V90H165V703H53v90H429V90H543V0ZM285,876c0,0,-61,0,-102,41c0,0,-42,41,-42,101c0,0,0,60,42,101c0,0,41,42,102,42c0,0,59,0,100,-42c0,0,41,-41,41,-101c0,0,0,-59,-41,-101c0,0,-41,-41,-100,-41Z" 
id="f2_c"
transform="scale(0.001,-0.001)" />

<path d="M510,63c0,0,84,0,118,71c0,0,34,72,34,263c0,0,0,191,-34,262c0,0,-33,71,-118,71c0,0,-84,0,-119,-72c0,0,-34,-72,-34,-261c0,0,0,-190,34,-262c0,0,35,-72,119,-72Zm0,-83c0,0,-209,0,-328,110C182,90,63,201,63,397c0,0,0,196,119,307c0,0,119,110,328,110c0,0,211,0,330,-110c0,0,118,-111,118,-307c0,0,0,-196,-119,-307C839,90,720,-20,510,-20Z" 
id="f2_8"
transform="scale(0.001,-0.001)" />

<path d="M209,0V90H418V992L187,854V966l279,168H701V90H910V0Z" 
id="f2_e"
transform="scale(0.001,-0.001)" />

<path d="M83,309V510H551V309Z" 
id="f2_g"
transform="scale(0.001,-0.001)" />

<path d="M399,-14c0,0,-341,0,-341,370c0,0,0,175,87,269c0,0,87,95,249,95c0,0,101,0,220,-23V501H573L541,625c0,0,-62,35,-149,35c0,0,-200,0,-200,-304c0,0,0,-158,61,-225c0,0,61,-67,189,-67c0,0,109,0,189,24V43C631,43,595,16,530,1c0,0,-64,-15,-131,-15Z" 
id="f3_6"
transform="scale(0.001,-0.001)" />

<path d="M377,45c0,0,99,0,147,73c0,0,47,73,47,237c0,0,0,161,-47,233c0,0,-47,72,-147,72c0,0,-97,0,-141,-69c0,0,-44,-69,-44,-236c0,0,0,-169,45,-240c0,0,44,-70,140,-70Zm0,-59c0,0,-158,0,-238,94c0,0,-81,95,-81,274c0,0,0,178,81,272c0,0,80,94,244,94c0,0,160,0,241,-92c0,0,82,-92,82,-274c0,0,0,-368,-329,-368Z" 
id="f3_7"
transform="scale(0.001,-0.001)" />

<path d="M431,0V33L535,52V499c0,0,0,62,-32,96c0,0,-32,33,-95,33c0,0,-66,0,-163,-22V52L350,33V0H32V33l89,19V649L32,668v33H237l6,-57c0,0,56,32,119,54c0,0,62,22,110,22c0,0,52,0,95,-20c0,0,44,-19,66,-62c0,0,57,32,134,57c0,0,77,25,128,25c0,0,179,0,179,-207V52l90,-19V0H846V33L950,52V499c0,0,0,129,-119,129c0,0,-19,0,-45,-3c0,0,-26,-3,-52,-7c0,0,-25,-4,-49,-8c0,0,-23,-5,-39,-8c0,0,13,-41,13,-89V52L764,33V0Z" 
id="f3_8"
transform="scale(0.001,-0.001)" />

<path d="M382,45c0,0,188,0,188,314c0,0,0,143,-47,213c0,0,-46,69,-141,69c0,0,-87,0,-146,-24V58c0,0,67,-13,146,-13ZM25,-325v35l88,18V649L34,668v33H231l1,-41c0,0,31,27,84,43c0,0,53,17,107,17c0,0,134,0,208,-94c0,0,73,-93,73,-267c0,0,0,-178,-80,-276c0,0,-80,-97,-232,-97c0,0,-84,0,-160,16c0,0,4,-53,4,-84V-272l123,-18v-35Z" 
id="f3_9"
transform="scale(0.001,-0.001)" />

<path d="M31,0V33l88,19V649L31,668v33H235l7,-87c0,0,44,37,121,71c0,0,76,35,121,35h11V530H463l-43,82c0,0,-37,0,-88,-10c0,0,-52,-10,-89,-26V52L363,33V0Z" 
id="f3_a"
transform="scale(0.001,-0.001)" />

<path d="M284,67c0,0,51,0,88,12c0,0,37,12,74,30V358l-98,-3c0,0,-100,-4,-135,-39c0,0,-35,-35,-35,-117c0,0,0,-132,106,-132ZM233,-14c0,0,-179,0,-179,208c0,0,0,70,27,116c0,0,27,46,87,70c0,0,60,24,173,27l105,3V519c0,0,0,72,-26,107c0,0,-27,34,-82,34c0,0,-75,0,-137,-35L176,538H134V691c0,0,121,26,213,26c0,0,115,0,169,-47c0,0,54,-47,54,-144V52L657,33V0H465L451,70c0,0,-85,-84,-218,-84Z" 
id="f3_n"
transform="scale(0.001,-0.001)" />

<path d="M495,413c0,0,0,133,-34,190c0,0,-34,57,-105,57c0,0,-78,0,-119,-63c0,0,-42,-62,-42,-184ZM374,-14c0,0,-163,0,-239,87c0,0,-75,88,-75,283c0,0,0,183,77,273c0,0,76,91,219,91c0,0,269,0,269,-306V353H194V340c0,0,0,-103,23,-160c0,0,22,-57,70,-87c0,0,47,-29,124,-29c0,0,40,0,96,6c0,0,55,7,91,15V43C598,43,562,20,500,3c0,0,-61,-17,-126,-17Z" 
id="f3_m"
transform="scale(0.001,-0.001)" />

<path d="M278,-14c0,0,-52,0,-115,11c0,0,-63,10,-99,23V193H98L134,95c0,0,56,-50,146,-50c0,0,144,0,144,123c0,0,0,91,-114,130l-66,21c0,0,-75,25,-110,50c0,0,-34,26,-53,63c0,0,-18,36,-18,89c0,0,0,92,63,145c0,0,63,54,170,54c0,0,77,0,193,-23V544H454l-32,81c0,0,-39,35,-124,35c0,0,-61,0,-92,-30c0,0,-32,-30,-32,-80c0,0,0,-43,29,-72c0,0,28,-29,86,-48c0,0,110,-38,144,-55c0,0,33,-17,57,-42c0,0,23,-25,36,-57c0,0,13,-32,13,-79c0,0,0,-104,-66,-158c0,0,-66,-53,-195,-53Z" 
id="f3_b"
transform="scale(0.001,-0.001)" />

<path d="M289,-14c0,0,-179,0,-179,205V649L20,668v33H233V200c0,0,0,-128,120,-128c0,0,92,0,173,23V649L420,668v33H649V52L738,33V0H533l-6,57C527,57,474,28,405,7c0,0,-69,-21,-116,-21Z" 
id="f3_c"
transform="scale(0.001,-0.001)" />

<path d="M376,50c0,0,103,0,149,80c0,0,46,81,46,240c0,0,0,137,-47,204c0,0,-48,67,-148,67c0,0,-44,0,-87,-7c0,0,-44,-8,-63,-17V62c0,0,63,-12,150,-12Zm3,-64c0,0,-64,0,-141,14c0,0,-78,14,-136,37v971L0,1026v34H226V809c0,0,0,-40,-4,-148c0,0,74,59,188,59c0,0,143,0,219,-87c0,0,77,-87,77,-263c0,0,0,-189,-84,-287c0,0,-84,-97,-243,-97Z" 
id="f3_d"
transform="scale(0.001,-0.001)" />

<path d="M32,0V33L151,52V649L52,668v33H275V52L395,33V0ZM201,850c0,0,-32,0,-56,24c0,0,-24,24,-24,56c0,0,0,34,24,58c0,0,24,24,56,24c0,0,34,0,58,-24c0,0,24,-24,24,-58c0,0,0,-32,-24,-56c0,0,-24,-24,-58,-24Z" 
id="f3_t"
transform="scale(0.001,-0.001)" />

<path d="M148,-329c0,0,-58,0,-114,13v151H69l24,-71c0,0,23,-17,64,-17c0,0,39,0,72,22c0,0,33,23,60,67c0,0,27,44,68,157L90,649L19,668v33H344V668L233,648L423,158L606,649L497,668v33H758V668L685,652L411,-43c0,0,-48,-124,-84,-177c0,0,-36,-54,-79,-82c0,0,-44,-27,-100,-27Z" 
id="f3_e"
transform="scale(0.001,-0.001)" />

<path d="M495,413c0,0,0,133,-34,190c0,0,-34,57,-105,57c0,0,-78,0,-119,-62c0,0,-42,-63,-42,-185ZM374,-14c0,0,-163,0,-239,87c0,0,-75,88,-75,283c0,0,0,183,77,274c0,0,76,90,219,90c0,0,269,0,269,-306V353H194V339c0,0,0,-103,23,-160c0,0,22,-57,70,-86c0,0,47,-30,124,-30c0,0,40,0,96,6c0,0,55,7,91,15V43C598,43,562,19,500,2c0,0,-61,-16,-126,-16ZM285,835v24l146,203H590v-27L326,835Z" 
id="f3_i"
transform="scale(0.001,-0.001)" />

<path d="M32,0V34L151,52V649L52,668v33H275V52L395,34V0Zm71,835v24l146,203H408v-27L144,835Z" 
id="f3_x"
transform="scale(0.001,-0.001)" />

<path d="M249,-14c0,0,-71,0,-107,42c0,0,-35,42,-35,119V639H15v33l93,29l76,159h47V701H391V639H231V161c0,0,0,-48,22,-73c0,0,22,-24,57,-24c0,0,44,0,106,12V26C416,26,389,8,340,-2c0,0,-49,-12,-91,-12Z" 
id="f3_f"
transform="scale(0.001,-0.001)" />

<path d="M289,-14c0,0,-179,0,-179,205V649L20,668v33H233V200c0,0,0,-128,120,-128c0,0,92,0,173,23V649L420,668v33H649V52L738,34V0H533l-6,57C527,57,474,28,405,6c0,0,-69,-20,-116,-20Zm24,849v24l147,203H618v-27L354,835Z" 
id="f3_g"
transform="scale(0.001,-0.001)" />

<path d="M31,0V33L150,52v956L31,1026v34H274V52L394,33V0Z" 
id="f3_k"
transform="scale(0.001,-0.001)" />

<path d="M0,-14L351,1007h73L75,-14Z" 
id="f3_l"
transform="scale(0.001,-0.001)" />

<path d="M557,-14c0,0,-199,0,-298,89c0,0,-99,90,-99,255V941L32,960v40H432V960L304,941V341c0,0,0,-273,264,-273c0,0,144,0,220,68c0,0,77,68,77,202V941L730,960v40h341V960L943,941V344c0,0,0,-180,-99,-269c0,0,-99,-89,-287,-89Z" 
id="f3_o"
transform="scale(0.001,-0.001)" />

<path d="M383,64c0,0,85,0,152,28V645c0,0,-67,13,-152,13c0,0,-194,0,-194,-314c0,0,0,-141,48,-211c0,0,48,-69,146,-69ZM342,-14c0,0,-287,0,-287,358c0,0,0,184,82,280c0,0,81,96,239,96c0,0,81,0,163,-18c0,0,-4,25,-4,124v182l-118,18v34H659V52L745,33V0H548l-9,52c0,0,-84,-66,-197,-66Z" 
id="f3_p"
transform="scale(0.001,-0.001)" />

<path d="M191,-20c0,0,-39,0,-65,25c0,0,-25,27,-25,64c0,0,0,38,26,64c0,0,26,26,64,26c0,0,38,0,64,-26c0,0,26,-26,26,-64c0,0,0,-37,-25,-64c0,0,-26,-25,-65,-25Z" 
id="f3_q"
transform="scale(0.001,-0.001)" />

<path d="M377,44c0,0,99,0,147,73c0,0,47,73,47,237c0,0,0,161,-47,234c0,0,-47,72,-147,72c0,0,-97,0,-141,-69c0,0,-44,-70,-44,-237c0,0,0,-169,45,-239c0,0,44,-71,140,-71Zm0,-58c0,0,-158,0,-238,94c0,0,-81,95,-81,274c0,0,0,178,81,272c0,0,80,94,244,94c0,0,160,0,241,-92c0,0,82,-92,82,-274c0,0,0,-368,-329,-368ZM301,835v24l147,203H606v-27L342,835Z" 
id="f3_w"
transform="scale(0.001,-0.001)" />

<path d="M439,0V33l93,19V500c0,0,0,62,-30,97c0,0,-31,36,-94,36c0,0,-67,0,-165,-22V52L338,33V0H35V33l84,19V649L35,668v33H235l7,-57c0,0,57,33,122,54c0,0,65,22,108,22c0,0,91,0,137,-53c0,0,47,-53,47,-154V52L741,33V0Z" 
id="f3_r"
transform="scale(0.001,-0.001)" />

<path d="M102,0V182L267,296c0,0,211,146,281,248c0,0,70,102,70,239c0,0,0,129,-53,197c0,0,-54,67,-156,67c0,0,-88,0,-141,-53c0,0,-52,-54,-67,-155H111v240c0,0,91,28,181,42c0,0,89,13,180,13c0,0,212,0,331,-87c0,0,119,-87,119,-242c0,0,0,-110,-66,-198c0,0,-65,-88,-250,-208L296,196H822V327H925V0Z" 
id="f2_f"
transform="scale(0.001,-0.001)" />

<path d="M322,0V40L481,60V389L130,941L17,960v40H440V960L306,941L593,480L866,941L739,960v40h326V960L955,941L625,394V60L784,40V0Z" 
id="f3_1j"
transform="scale(0.001,-0.001)" />

<path d="M235,0V40L394,60V936H356c0,0,-189,0,-258,-15L78,766H28v234H908V766H857L837,921c0,0,-22,5,-98,9c0,0,-75,4,-165,4H538V60L697,40V0Z" 
id="f3_1l"
transform="scale(0.001,-0.001)" />

<path d="M44,0V40L172,60V941L44,960v40H794V760H745L721,922c0,0,-83,11,-241,11H316V543H586l23,119h48V354H609L586,475H316V67H513c0,0,193,0,252,12l43,185h49L843,0Z" 
id="f3_4"
transform="scale(0.001,-0.001)" />

<path d="M868,0L251,900V60L385,40V0H44V40L172,60V941L44,960v40H347L862,259V941L727,960v40h341V960L940,941V0Z" 
id="f3_1k"
transform="scale(0.001,-0.001)" />

<path d="M484,-20c0,0,-88,0,-182,14c0,0,-93,14,-195,44V283h90c0,0,8,-106,66,-162c0,0,58,-55,161,-55c0,0,113,0,175,63c0,0,62,63,62,178c0,0,0,121,-65,187c0,0,-64,65,-183,65H364v90h39c0,0,109,0,165,51c0,0,55,51,55,152c0,0,0,94,-52,145c0,0,-52,50,-149,50c0,0,-88,0,-139,-48c0,0,-52,-48,-62,-140H131v223c0,0,98,26,191,39c0,0,92,13,180,13c0,0,202,0,309,-72c0,0,108,-72,108,-206c0,0,0,-101,-62,-164c0,0,-62,-62,-181,-84c0,0,146,-23,217,-99c0,0,72,-76,72,-208c0,0,0,-156,-123,-239c0,0,-124,-82,-358,-82Z" 
id="f2_h"
transform="scale(0.001,-0.001)" />

<path d="M190,0V127H436V977L168,923v137l267,54H586V127H832V0Z" 
id="f0_z"
transform="scale(0.001,-0.001)" />


</defs>
</svg>