<?xml version="1.0" encoding="UTF-8" standalone="no"?>
<!DOCTYPE svg PUBLIC "-//W3C//DTD SVG 1.1//EN"
"http://www.w3.org/Graphics/SVG/1.1/DTD/svg11.dtd">
<svg viewBox="0 0 909 1286" version="1.1" xmlns="http://www.w3.org/2000/svg" xmlns:xlink="http://www.w3.org/1999/xlink">
<defs>
<clipPath id="c0_4"><path d="M0,1286.2V0H909.4V1286.2Z" /></clipPath>
<style type="text/css"><![CDATA[
.g0_4{
fill: none;
stroke: #000000;
stroke-width: 0.7638889;
stroke-linecap: butt;
stroke-linejoin: round;
}
]]></style>
</defs>
<path d="M128.6,129.8H642M128.6,173.3H642M128.6,216.9H642M128.9,129.4v87.9M388.8,129.4v87.9M641.7,129.4v87.9" class="g0_4" />
<g clip-path="url(#c0_4)">
<g fill="#000000" >
<use xlink:href="#f0_h" transform="matrix(12,0,0,12,527.5,147.1)" />
<use xlink:href="#f0_7" transform="matrix(12,0,0,12,532.4,147.1)" />
<use xlink:href="#f0_q" transform="matrix(12,0,0,12,536.5,147.1)" />
<use xlink:href="#f0_e" transform="matrix(12,0,0,12,585.1,147.1)" />
<use xlink:href="#f0_i" transform="matrix(12,0,0,12,597.1,147.1)" />
<use xlink:href="#f0_a" transform="matrix(12,0,0,12,606.8,147.1)" />
<use xlink:href="#f0_c" transform="matrix(12,0,0,12,617,147.1)" />
<use xlink:href="#f0_l" transform="matrix(12,0,0,12,622,147.1)" />
<use xlink:href="#f0_9" transform="matrix(12,0,0,12,594.3,168.5)" />
<use xlink:href="#f0_f" transform="matrix(12,0,0,12,606.2,168.5)" />
<use xlink:href="#f0_c" transform="matrix(12,0,0,12,616.8,168.5)" />
<use xlink:href="#f0_w" transform="matrix(12,0,0,12,621.7,168.5)" />
<use xlink:href="#f1_v" transform="matrix(11,0,0,11,397.7,145.8)" />
<use xlink:href="#f1_f" transform="matrix(11,0,0,11,406.1,145.8)" />
<use xlink:href="#f1_2" transform="matrix(11,0,0,11,414.5,145.8)" />
<use xlink:href="#f1_a" transform="matrix(11,0,0,11,421.9,145.8)" />
<use xlink:href="#f1_m" transform="matrix(11,0,0,11,430.2,145.8)" />
<use xlink:href="#f1_m" transform="matrix(11,0,0,11,441.9,145.8)" />
<use xlink:href="#f1_v" transform="matrix(11,0,0,11,449.4,145.8)" />
<use xlink:href="#f1_8" transform="matrix(11,0,0,11,457.8,145.8)" />
<use xlink:href="#f1_w" transform="matrix(11,0,0,11,466.2,145.8)" />
<use xlink:href="#f1_m" transform="matrix(11,0,0,11,474.6,145.8)" />
<use xlink:href="#f1_e" transform="matrix(11,0,0,11,482.1,145.8)" />
<use xlink:href="#f1_m" transform="matrix(11,0,0,11,490.3,145.8)" />
<use xlink:href="#f0_h" transform="matrix(12,0,0,12,256.8,147.1)" />
<use xlink:href="#f0_7" transform="matrix(12,0,0,12,261.8,147.1)" />
<use xlink:href="#f0_q" transform="matrix(12,0,0,12,265.8,147.1)" />
<use xlink:href="#f0_e" transform="matrix(12,0,0,12,332.2,147.1)" />
<use xlink:href="#f0_i" transform="matrix(12,0,0,12,344.3,147.1)" />
<use xlink:href="#f0_a" transform="matrix(12,0,0,12,353.9,147.1)" />
<use xlink:href="#f0_c" transform="matrix(12,0,0,12,364.1,147.1)" />
<use xlink:href="#f0_l" transform="matrix(12,0,0,12,369.2,147.1)" />
<use xlink:href="#f0_9" transform="matrix(12,0,0,12,334.4,168.5)" />
<use xlink:href="#f0_l" transform="matrix(12,0,0,12,346.3,168.5)" />
<use xlink:href="#f0_c" transform="matrix(12,0,0,12,357.8,168.5)" />
<use xlink:href="#f0_a" transform="matrix(12,0,0,12,362.8,168.5)" />
<use xlink:href="#f0_k" transform="matrix(12,0,0,12,373.2,168.5)" />
<use xlink:href="#f1_p" transform="matrix(11,0,0,11,137.7,145.8)" />
<use xlink:href="#f1_m" transform="matrix(11,0,0,11,150.8,145.8)" />
<use xlink:href="#f1_l" transform="matrix(11,0,0,11,158.1,145.8)" />
<use xlink:href="#f1_m" transform="matrix(11,0,0,11,162.8,145.8)" />
<use xlink:href="#f1_m" transform="matrix(11,0,0,11,174.6,145.8)" />
<use xlink:href="#f1_v" transform="matrix(11,0,0,11,181.9,145.8)" />
<use xlink:href="#f1_8" transform="matrix(11,0,0,11,190.3,145.8)" />
<use xlink:href="#f1_w" transform="matrix(11,0,0,11,198.7,145.8)" />
<use xlink:href="#f1_m" transform="matrix(11,0,0,11,207.1,145.8)" />
<use xlink:href="#f1_e" transform="matrix(11,0,0,11,214.6,145.8)" />
<use xlink:href="#f1_m" transform="matrix(11,0,0,11,223,145.8)" />
<use xlink:href="#f0_9" transform="matrix(12,0,0,12,552.8,190.7)" />
<use xlink:href="#f0_l" transform="matrix(12,0,0,12,564.7,190.7)" />
<use xlink:href="#f0_a" transform="matrix(12,0,0,12,576.1,190.7)" />
<use xlink:href="#f0_9" transform="matrix(12,0,0,12,592.3,190.7)" />
<use xlink:href="#f0_4" transform="matrix(12,0,0,12,604.2,190.7)" />
<use xlink:href="#f0_7" transform="matrix(12,0,0,12,617.2,190.7)" />
<use xlink:href="#f0_d" transform="matrix(12,0,0,12,621.3,190.7)" />
<use xlink:href="#f1_p" transform="matrix(11,0,0,11,397.7,189.3)" />
<use xlink:href="#f1_m" transform="matrix(11,0,0,11,410.7,189.3)" />
<use xlink:href="#f1_l" transform="matrix(11,0,0,11,418.1,189.3)" />
<use xlink:href="#f1_m" transform="matrix(11,0,0,11,422.9,189.3)" />
<use xlink:href="#f1_p" transform="matrix(11,0,0,11,434.4,189.3)" />
<use xlink:href="#f1_f" transform="matrix(11,0,0,11,447.6,189.3)" />
<use xlink:href="#f1_1b" transform="matrix(11,0,0,11,455.8,189.3)" />
<use xlink:href="#f1_2" transform="matrix(11,0,0,11,460.5,189.3)" />
<use xlink:href="#f1_3" transform="matrix(11,0,0,11,468,189.3)" />
<use xlink:href="#f0_f" transform="matrix(12,0,0,12,257,190.7)" />
<use xlink:href="#f0_c" transform="matrix(12,0,0,12,267.5,190.7)" />
<use xlink:href="#f0_w" transform="matrix(12,0,0,12,272.4,190.7)" />
<use xlink:href="#f0_3" transform="matrix(12,0,0,12,351.5,190.7)" />
<use xlink:href="#f0_o" transform="matrix(12,0,0,12,361.9,190.7)" />
<use xlink:href="#f0_8" transform="matrix(12,0,0,12,368.2,190.7)" />
<use xlink:href="#f0_x" transform="matrix(12,0,0,12,323.6,212.1)" />
<use xlink:href="#f0_9" transform="matrix(12,0,0,12,330.8,212.1)" />
<use xlink:href="#f0_f" transform="matrix(12,0,0,12,342.7,212.1)" />
<use xlink:href="#f0_p" transform="matrix(12,0,0,12,353.2,212.1)" />
<use xlink:href="#f0_n" transform="matrix(12,0,0,12,366.2,212.1)" />
<use xlink:href="#f0_v" transform="matrix(12,0,0,12,373.5,212.1)" />
<use xlink:href="#f1_v" transform="matrix(11,0,0,11,137.7,189.3)" />
<use xlink:href="#f1_f" transform="matrix(11,0,0,11,146.1,189.3)" />
<use xlink:href="#f1_2" transform="matrix(11,0,0,11,154.5,189.3)" />
<use xlink:href="#f1_a" transform="matrix(11,0,0,11,161.9,189.3)" />
<use xlink:href="#f1_m" transform="matrix(11,0,0,11,170.3,189.3)" />
<use xlink:href="#f1_g" transform="matrix(11,0,0,11,181.9,189.3)" />
<use xlink:href="#f1_f" transform="matrix(11,0,0,11,188.5,189.3)" />
<use xlink:href="#f1_2" transform="matrix(11,0,0,11,196.9,189.3)" />
<use xlink:href="#f1_3" transform="matrix(11,0,0,11,204.3,189.3)" />
<use xlink:href="#f1_h" transform="matrix(11,0,0,11,209.8,189.3)" />
<use xlink:href="#f1_2" transform="matrix(11,0,0,11,214.5,189.3)" />
<use xlink:href="#f0_s" transform="matrix(12,0,0,12,138.6,253.6)" />
<use xlink:href="#f0_3" transform="matrix(12,0,0,12,144.4,253.6)" />
<use xlink:href="#f0_3" transform="matrix(12,0,0,12,154.8,253.6)" />
<use xlink:href="#f0_i" transform="matrix(12,0,0,12,165.2,253.6)" />
<use xlink:href="#f0_9" transform="matrix(12,0,0,12,174.8,253.6)" />
<use xlink:href="#f0_3" transform="matrix(12,0,0,12,194,253.6)" />
<use xlink:href="#f0_l" transform="matrix(12,0,0,12,204.4,253.6)" />
<use xlink:href="#f0_e" transform="matrix(12,0,0,12,223.3,253.6)" />
<use xlink:href="#f0_c" transform="matrix(12,0,0,12,235.2,253.6)" />
<use xlink:href="#f0_q" transform="matrix(12,0,0,12,240.2,253.6)" />
<use xlink:href="#f0_7" transform="matrix(12,0,0,12,250.3,253.6)" />
<use xlink:href="#f0_l" transform="matrix(12,0,0,12,254.3,253.6)" />
<use xlink:href="#f0_8" transform="matrix(12,0,0,12,265.7,253.6)" />
<use xlink:href="#f0_9" transform="matrix(12,0,0,12,278.3,253.6)" />
<use xlink:href="#f0_s" transform="matrix(12,0,0,12,297.6,253.6)" />
<use xlink:href="#f0_c" transform="matrix(12,0,0,12,303.4,253.6)" />
<use xlink:href="#f0_n" transform="matrix(12,0,0,12,308.3,253.6)" />
<use xlink:href="#f0_e" transform="matrix(12,0,0,12,315.7,253.6)" />
<use xlink:href="#f0_7" transform="matrix(12,0,0,12,327.7,253.6)" />
<use xlink:href="#f0_n" transform="matrix(12,0,0,12,331.8,253.6)" />
<use xlink:href="#f0_4" transform="matrix(12,0,0,12,339.1,253.6)" />
<use xlink:href="#f0_e" transform="matrix(12,0,0,12,359.4,253.6)" />
<use xlink:href="#f0_c" transform="matrix(12,0,0,12,371.5,253.6)" />
<use xlink:href="#f0_k" transform="matrix(12,0,0,12,376.5,253.6)" />
<use xlink:href="#f0_b" transform="matrix(12,0,0,12,384,253.6)" />
<use xlink:href="#f0_7" transform="matrix(12,0,0,12,394.8,253.6)" />
<use xlink:href="#f0_7" transform="matrix(12,0,0,12,398.9,253.6)" />
<use xlink:href="#f0_8" transform="matrix(12,0,0,12,403,253.6)" />
<use xlink:href="#f0_9" transform="matrix(12,0,0,12,415.5,253.6)" />
<use xlink:href="#f0_e" transform="matrix(12,0,0,12,434.7,253.6)" />
<use xlink:href="#f0_c" transform="matrix(12,0,0,12,446.8,253.6)" />
<use xlink:href="#f0_d" transform="matrix(12,0,0,12,451.8,253.6)" />
<use xlink:href="#f0_8" transform="matrix(12,0,0,12,464,253.6)" />
<use xlink:href="#f0_k" transform="matrix(12,0,0,12,476.5,253.6)" />
<use xlink:href="#f0_c" transform="matrix(12,0,0,12,484,253.6)" />
<use xlink:href="#f0_q" transform="matrix(12,0,0,12,489,253.6)" />
<use xlink:href="#f0_9" transform="matrix(12,0,0,12,499,253.6)" />
<use xlink:href="#f0_e" transform="matrix(12,0,0,12,518.3,253.6)" />
<use xlink:href="#f0_d" transform="matrix(12,0,0,12,530.4,253.6)" />
<use xlink:href="#f0_a" transform="matrix(12,0,0,12,549.9,253.6)" />
<use xlink:href="#f0_c" transform="matrix(12,0,0,12,560.3,253.6)" />
<use xlink:href="#f0_i" transform="matrix(12,0,0,12,565.3,253.6)" />
<use xlink:href="#f0_o" transform="matrix(12,0,0,12,574.9,253.6)" />
<use xlink:href="#f0_3" transform="matrix(12,0,0,12,581.2,253.6)" />
<use xlink:href="#f0_a" transform="matrix(12,0,0,12,599,253.6)" />
<use xlink:href="#f0_e" transform="matrix(12,0,0,12,609.3,253.6)" />
<use xlink:href="#f0_c" transform="matrix(12,0,0,12,621.3,253.6)" />
<use xlink:href="#f0_7" transform="matrix(12,0,0,12,626.3,253.6)" />
<use xlink:href="#f0_3" transform="matrix(12,0,0,12,637.7,253.6)" />
<use xlink:href="#f0_p" transform="matrix(12,0,0,12,648.1,253.6)" />
<use xlink:href="#f0_2" transform="matrix(12,0,0,12,668.6,253.6)" />
<use xlink:href="#f0_3" transform="matrix(12,0,0,12,678.4,253.6)" />
<use xlink:href="#f0_9" transform="matrix(12,0,0,12,696.2,253.6)" />
<use xlink:href="#f0_7" transform="matrix(12,0,0,12,708.1,253.6)" />
<use xlink:href="#f0_9" transform="matrix(12,0,0,12,712.2,253.6)" />
<use xlink:href="#f0_7" transform="matrix(12,0,0,12,724.1,253.6)" />
<use xlink:href="#f0_c" transform="matrix(12,0,0,12,728.1,253.6)" />
<use xlink:href="#f0_h" transform="matrix(12,0,0,12,740.6,253.6)" />
<use xlink:href="#f0_i" transform="matrix(12,0,0,12,745.6,253.6)" />
<use xlink:href="#f0_e" transform="matrix(12,0,0,12,755.3,253.6)" />
<use xlink:href="#f0_7" transform="matrix(12,0,0,12,767.2,253.6)" />
<use xlink:href="#f0_j" transform="matrix(12,0,0,12,614.6,275)" />
<use xlink:href="#f0_c" transform="matrix(12,0,0,12,620.4,275)" />
<use xlink:href="#f0_8" transform="matrix(12,0,0,12,625.5,275)" />
<use xlink:href="#f0_b" transform="matrix(12,0,0,12,637.8,275)" />
<use xlink:href="#f0_l" transform="matrix(12,0,0,12,648.7,275)" />
<use xlink:href="#f0_3" transform="matrix(12,0,0,12,666.2,275)" />
<use xlink:href="#f0_3" transform="matrix(12,0,0,12,676.6,275)" />
<use xlink:href="#f0_i" transform="matrix(12,0,0,12,687,275)" />
<use xlink:href="#f0_9" transform="matrix(12,0,0,12,696.6,275)" />
<use xlink:href="#f0_e" transform="matrix(12,0,0,12,714.4,275)" />
<use xlink:href="#f0_d" transform="matrix(12,0,0,12,726.4,275)" />
<use xlink:href="#f0_d" transform="matrix(12,0,0,12,744.4,275)" />
<use xlink:href="#f0_3" transform="matrix(12,0,0,12,756.7,275)" />
<use xlink:href="#f0_c" transform="matrix(12,0,0,12,767.1,275)" />
</g>
</g>
<defs>
<path d="M139,-317V836H278V-317Z" 
id="f0_h"
transform="scale(0.001,-0.001)" />

<path d="M102,312V836H241V369L102,312Z" 
id="f0_7"
transform="scale(0.001,-0.001)" />

<path d="M495,0V729H66V836H781V729H634V0Z" 
id="f0_q"
transform="scale(0.001,-0.001)" />

<path d="M112,-5c0,0,-39,0,-97,11V113c0,0,48,-10,77,-10c0,0,53,0,70,42c0,0,17,43,17,164V729H50V836H501c0,0,107,0,179,-25c0,0,72,-25,112,-77c0,0,40,-51,57,-118c0,0,16,-67,16,-164V0H726V454c0,0,0,55,-3,92c0,0,-4,37,-17,75c0,0,-14,38,-38,59c0,0,-24,22,-65,36c0,0,-42,13,-102,13H318V309c0,0,0,-160,-46,-237C272,72,226,-5,112,-5Z" 
id="f0_e"
transform="scale(0.001,-0.001)" />

<path d="M66,0V106H322c0,0,75,0,127,23c0,0,53,23,82,67c0,0,29,43,42,98c0,0,13,54,13,124c0,0,0,70,-13,124c0,0,-13,55,-42,98c0,0,-29,44,-82,67c0,0,-52,23,-127,23H66V836H322c0,0,87,0,157,-24c0,0,70,-24,115,-64c0,0,45,-40,74,-94c0,0,30,-55,43,-113c0,0,13,-59,13,-123c0,0,0,-64,-13,-123c0,0,-13,-58,-43,-113c0,0,-29,-54,-74,-94C594,88,549,48,479,24C479,24,409,0,322,0Z" 
id="f0_i"
transform="scale(0.001,-0.001)" />

<path d="M585,0V426c0,0,0,54,-8,98c0,0,-8,44,-27,83c0,0,-19,40,-49,66c0,0,-30,26,-77,41c0,0,-47,15,-108,15H66V836H315c0,0,94,0,166,-20c0,0,71,-20,116,-54c0,0,46,-35,75,-88c0,0,28,-52,40,-112c0,0,12,-60,12,-137V0Z" 
id="f0_a"
transform="scale(0.001,-0.001)" />

<path d="M139,0V836H278V0Z" 
id="f0_c"
transform="scale(0.001,-0.001)" />

<path d="M71,-141V-15L289,62L66,836H210L416,109c0,0,99,42,153,98c0,0,53,56,80,155c0,0,26,98,26,262V836H817V624c0,0,0,-88,-7,-154c0,0,-7,-67,-25,-132c0,0,-18,-66,-51,-116c0,0,-33,-51,-84,-98c0,0,-50,-48,-123,-87c0,0,-72,-39,-169,-74L71,-141Z" 
id="f0_l"
transform="scale(0.001,-0.001)" />

<path d="M154,0V454l138,56V0ZM722,0V454c0,0,0,161,-49,218c0,0,-48,57,-186,57H139V836H485c0,0,207,0,291,-93c0,0,83,-94,83,-318V0Z" 
id="f0_9"
transform="scale(0.001,-0.001)" />

<path d="M66,0V107H554V452c0,0,0,56,-4,93c0,0,-4,37,-18,75c0,0,-14,38,-40,60c0,0,-26,22,-71,36c0,0,-45,13,-110,13H66V836H312c0,0,91,0,157,-17c0,0,66,-17,109,-49c0,0,44,-32,69,-84c0,0,26,-52,36,-114c0,0,10,-62,10,-147V107H817V0Z" 
id="f0_f"
transform="scale(0.001,-0.001)" />

<path d="M522,-20c0,0,-196,0,-290,99c0,0,-94,100,-94,324V836H276V397c0,0,0,-86,16,-147c0,0,17,-60,50,-94c0,0,34,-34,77,-49c0,0,43,-15,103,-15c0,0,59,0,102,15c0,0,44,15,77,49c0,0,33,34,50,94c0,0,17,61,17,147c0,0,0,84,-8,143c0,0,-7,58,-25,105c0,0,-17,47,-51,69c0,0,-33,23,-83,23c0,0,-50,0,-119,-22V821c0,0,85,23,150,23c0,0,76,0,130,-30c0,0,53,-31,85,-90c0,0,31,-59,45,-138c0,0,13,-78,13,-183c0,0,0,-224,-93,-324c0,0,-94,-99,-290,-99Z" 
id="f0_w"
transform="scale(0.001,-0.001)" />

<path d="M376,50c0,0,103,0,149,80c0,0,46,81,46,240c0,0,0,137,-47,204c0,0,-48,67,-148,67c0,0,-44,0,-87,-7c0,0,-44,-8,-63,-17V62c0,0,63,-12,150,-12Zm3,-64c0,0,-64,0,-141,14c0,0,-78,14,-136,37v971L0,1026v34H226V809c0,0,0,-40,-4,-148c0,0,74,59,188,59c0,0,143,0,219,-87c0,0,77,-87,77,-263c0,0,0,-189,-84,-287c0,0,-84,-97,-243,-97Z" 
id="f1_v"
transform="scale(0.001,-0.001)" />

<path d="M289,-14c0,0,-179,0,-179,205V649L20,668v33H233V200c0,0,0,-128,120,-128c0,0,92,0,173,23V649L420,668v33H649V52L738,33V0H533l-6,57C527,57,474,28,405,7c0,0,-69,-21,-116,-21Z" 
id="f1_f"
transform="scale(0.001,-0.001)" />

<path d="M495,413c0,0,0,133,-34,190c0,0,-34,57,-105,57c0,0,-78,0,-119,-63c0,0,-42,-62,-42,-184ZM374,-14c0,0,-163,0,-239,87c0,0,-75,88,-75,283c0,0,0,183,77,273c0,0,76,91,219,91c0,0,269,0,269,-306V353H194V340c0,0,0,-103,23,-160c0,0,22,-57,70,-87c0,0,47,-29,124,-29c0,0,40,0,96,6c0,0,55,7,91,15V43C598,43,562,20,500,3c0,0,-61,-17,-126,-17Z" 
id="f1_2"
transform="scale(0.001,-0.001)" />

<path d="M439,0V33l93,19V500c0,0,0,62,-30,97c0,0,-31,36,-94,36c0,0,-67,0,-165,-22V52L338,33V0H35V33l84,19V649L35,668v33H235l7,-57c0,0,57,33,122,54c0,0,65,22,108,22c0,0,91,0,137,-53c0,0,47,-53,47,-154V52L741,33V0Z" 
id="f1_a"
transform="scale(0.001,-0.001)" />

<path d="M284,67c0,0,51,0,88,12c0,0,37,12,74,30V358l-98,-3c0,0,-100,-4,-135,-39c0,0,-35,-35,-35,-117c0,0,0,-132,106,-132ZM233,-14c0,0,-179,0,-179,208c0,0,0,70,27,116c0,0,27,46,87,70c0,0,60,24,173,27l105,3V519c0,0,0,72,-26,107c0,0,-27,34,-82,34c0,0,-75,0,-137,-35L176,538H134V691c0,0,121,26,213,26c0,0,115,0,169,-47c0,0,54,-47,54,-144V52L657,33V0H465L451,70c0,0,-85,-84,-218,-84Z" 
id="f1_m"
transform="scale(0.001,-0.001)" />

<path d="M377,45c0,0,99,0,147,73c0,0,47,73,47,237c0,0,0,161,-47,233c0,0,-47,72,-147,72c0,0,-97,0,-141,-69c0,0,-44,-69,-44,-236c0,0,0,-169,45,-240c0,0,44,-70,140,-70Zm0,-59c0,0,-158,0,-238,94c0,0,-81,95,-81,274c0,0,0,178,81,272c0,0,80,94,244,94c0,0,160,0,241,-92c0,0,82,-92,82,-274c0,0,0,-368,-329,-368Z" 
id="f1_8"
transform="scale(0.001,-0.001)" />

<path d="M359,-270c0,0,124,0,192,46c0,0,67,47,67,129c0,0,0,43,-26,67c0,0,-26,24,-79,24H242c0,0,-32,-27,-51,-69c0,0,-20,-41,-20,-77c0,0,0,-64,46,-92c0,0,46,-28,142,-28Zm11,561c0,0,81,0,115,47c0,0,34,47,34,141c0,0,0,100,-35,142c0,0,-35,42,-113,42c0,0,-78,0,-114,-43c0,0,-37,-42,-37,-141c0,0,0,-98,36,-143c0,0,36,-45,114,-45ZM359,-329c0,0,-143,0,-218,44c0,0,-75,43,-75,125c0,0,0,39,27,78c0,0,26,38,98,89c0,0,-43,14,-72,48c0,0,-29,35,-29,74L208,262c0,0,-118,55,-118,217c0,0,0,115,73,178c0,0,73,63,211,63c0,0,28,0,71,-6c0,0,44,-6,67,-13l165,83l26,-32L599,644c0,0,50,-56,50,-165c0,0,0,-120,-72,-182c0,0,-73,-62,-208,-62c0,0,-62,0,-114,11L208,148c0,0,2,-13,29,-24c0,0,27,-12,67,-12H512c0,0,113,0,168,-49c0,0,55,-49,55,-134c0,0,0,-79,-44,-137c0,0,-43,-58,-128,-90c0,0,-84,-31,-204,-31Z" 
id="f1_w"
transform="scale(0.001,-0.001)" />

<path d="M383,64c0,0,85,0,152,28V645c0,0,-67,13,-152,13c0,0,-194,0,-194,-314c0,0,0,-141,48,-211c0,0,48,-69,146,-69ZM342,-14c0,0,-287,0,-287,358c0,0,0,184,82,280c0,0,81,96,239,96c0,0,81,0,163,-18c0,0,-4,25,-4,124v182l-118,18v34H659V52L745,33V0H548l-9,52c0,0,-84,-66,-197,-66Z" 
id="f1_e"
transform="scale(0.001,-0.001)" />

<path d="M138,-7c0,0,-34,0,-72,10V129c0,0,25,-8,52,-8c0,0,33,0,58,5c0,0,26,5,58,24c0,0,33,20,53,54c0,0,21,34,36,97c0,0,15,64,15,151c0,0,0,113,-19,173c0,0,-19,60,-56,82c0,0,-38,22,-107,22H89V836h72c0,0,165,0,240,-91c0,0,76,-91,76,-293c0,0,0,-107,26,-227c0,0,25,-119,83,-225H437c0,0,-43,101,-62,184c0,0,-24,-60,-51,-99c0,0,-26,-38,-56,-58C268,27,239,7,209,0c0,0,-30,-7,-71,-7Z" 
id="f0_k"
transform="scale(0.001,-0.001)" />

<path d="M431,0V33L535,52V499c0,0,0,62,-32,96c0,0,-32,33,-95,33c0,0,-66,0,-163,-22V52L350,33V0H32V33l89,19V649L32,668v33H237l6,-57c0,0,56,32,119,54c0,0,62,22,110,22c0,0,52,0,95,-20c0,0,44,-19,66,-62c0,0,57,32,134,57c0,0,77,25,128,25c0,0,179,0,179,-207V52l90,-19V0H846V33L950,52V499c0,0,0,129,-119,129c0,0,-19,0,-45,-3c0,0,-26,-3,-52,-7c0,0,-25,-4,-49,-8c0,0,-23,-5,-39,-8c0,0,13,-41,13,-89V52L764,33V0Z" 
id="f1_p"
transform="scale(0.001,-0.001)" />

<path d="M31,0V33L150,52v956L31,1026v34H274V52L394,33V0Z" 
id="f1_l"
transform="scale(0.001,-0.001)" />

<path d="M180,0L66,836H203L258,443c0,0,36,1,64,6c0,0,28,6,49,18c0,0,20,12,35,26c0,0,15,13,26,36c0,0,11,24,17,44c0,0,7,20,12,55c0,0,6,34,9,60c0,0,3,26,8,71c0,0,4,45,9,77H610c0,0,-13,-194,-31,-271c0,0,-31,-127,-111,-179c0,0,-71,-45,-196,-50L304,107c0,0,73,0,130,5c0,0,56,6,111,21c0,0,54,15,94,40c0,0,40,25,77,64c0,0,37,39,63,94c0,0,25,54,46,128c0,0,21,73,34,166c0,0,13,94,20,211h138c0,0,-14,-124,-29,-218c0,0,-16,-94,-39,-179c0,0,-22,-85,-50,-146c0,0,-28,-61,-68,-112c0,0,-39,-51,-87,-84C744,97,696,65,632,42C632,42,568,19,492,10C492,10,417,0,320,0Z" 
id="f0_4"
transform="scale(0.001,-0.001)" />

<path d="M139,0V138c0,0,0,61,8,112c0,0,7,52,19,87c0,0,11,36,30,66c0,0,19,31,35,49c0,0,17,19,41,35c0,0,25,17,41,25c0,0,17,7,40,17L141,836H303L613,388c0,0,20,10,33,18c0,0,13,8,34,28c0,0,20,20,33,44c0,0,13,25,22,66c0,0,10,41,10,92V836H882V698c0,0,0,-61,-7,-112c0,0,-6,-52,-18,-88c0,0,-12,-36,-30,-66c0,0,-19,-30,-36,-49c0,0,-17,-18,-41,-34c0,0,-24,-17,-40,-25c0,0,-17,-8,-41,-17L882,0H720L409,448c0,0,-21,-11,-34,-19c0,0,-13,-8,-34,-27c0,0,-21,-20,-34,-44c0,0,-12,-25,-22,-66c0,0,-9,-41,-9,-92V0Z" 
id="f0_d"
transform="scale(0.001,-0.001)" />

<path d="M64,-325c0,0,-46,0,-107,14v148H-8l19,-81c0,0,25,-21,62,-21c0,0,44,0,67,47c0,0,22,47,22,152V649L57,668v33H286V-28c0,0,0,-146,-57,-221c0,0,-56,-76,-165,-76ZM213,850c0,0,-34,0,-58,24c0,0,-24,24,-24,56c0,0,0,34,24,58c0,0,24,24,58,24c0,0,32,0,56,-24c0,0,24,-24,24,-58c0,0,0,-32,-24,-56c0,0,-24,-24,-56,-24Z" 
id="f1_1b"
transform="scale(0.001,-0.001)" />

<path d="M31,0V33l88,19V649L31,668v33H235l7,-87c0,0,44,37,121,71c0,0,76,35,121,35h11V530H463l-43,82c0,0,-37,0,-88,-10c0,0,-52,-10,-89,-26V52L363,33V0Z" 
id="f1_3"
transform="scale(0.001,-0.001)" />

<path d="M287,0L589,729H66v386H205V836l547,-1l-2,-82L433,0Z" 
id="f0_3"
transform="scale(0.001,-0.001)" />

<path d="M152,0V473c0,0,0,94,28,161c0,0,29,66,71,95H66V836H463V729H404c0,0,-65,0,-89,-57c0,0,-25,-58,-25,-199V0Z" 
id="f0_o"
transform="scale(0.001,-0.001)" />

<path d="M114,0l60,312c0,0,2,12,8,39c0,0,6,27,7,37c0,0,2,11,5,30c0,0,2,19,4,33c0,0,1,15,1,31c0,0,0,48,-35,146c0,0,-35,98,-98,208H228c0,0,3,-8,27,-67c0,0,25,-58,41,-117c0,0,21,53,50,90c0,0,29,37,57,57c0,0,29,21,65,32c0,0,37,11,65,14c0,0,28,3,67,3c0,0,300,0,300,-396V0H480V106H761V452c0,0,0,146,-46,215c0,0,-45,70,-118,70c0,0,-134,0,-198,-119c0,0,-36,-68,-67,-222c0,0,-2,-10,-6,-27L253,0Z" 
id="f0_8"
transform="scale(0.001,-0.001)" />

<path d="M354,-200c0,0,-112,175,-167,343c0,0,-56,170,-56,337c0,0,0,166,55,335c0,0,55,169,168,345H473c0,0,-100,-172,-148,-340c0,0,-48,-168,-48,-340c0,0,0,-173,48,-342c0,0,49,-168,148,-338Z" 
id="f0_x"
transform="scale(0.001,-0.001)" />

<path d="M156,-317V454l139,56V-317ZM505,0L806,729H139V835H967V753L650,0Z" 
id="f0_p"
transform="scale(0.001,-0.001)" />

<path d="M66,0V107H332V555c0,0,0,92,-37,133c0,0,-37,41,-116,41H85V836h94c0,0,153,0,223,-66c0,0,69,-66,69,-231V0Z" 
id="f0_n"
transform="scale(0.001,-0.001)" />

<path d="M122,-200c0,0,99,170,148,338c0,0,49,169,49,342c0,0,0,172,-49,340c0,0,-49,168,-148,340H241c0,0,112,-176,168,-345c0,0,55,-169,55,-335c0,0,0,-167,-55,-337c0,0,-56,-168,-168,-343Z" 
id="f0_v"
transform="scale(0.001,-0.001)" />

<path d="M278,-14c0,0,-52,0,-115,11c0,0,-63,10,-99,23V193H98L134,95c0,0,56,-50,146,-50c0,0,144,0,144,123c0,0,0,91,-114,130l-66,21c0,0,-75,25,-110,50c0,0,-34,26,-53,63c0,0,-18,36,-18,89c0,0,0,92,63,145c0,0,63,54,170,54c0,0,77,0,193,-23V544H454l-32,81c0,0,-39,35,-124,35c0,0,-61,0,-92,-30c0,0,-32,-30,-32,-80c0,0,0,-43,29,-72c0,0,28,-29,86,-48c0,0,110,-38,144,-55c0,0,33,-17,57,-42c0,0,23,-25,36,-57c0,0,13,-32,13,-79c0,0,0,-104,-66,-158c0,0,-66,-53,-195,-53Z" 
id="f1_g"
transform="scale(0.001,-0.001)" />

<path d="M249,-14c0,0,-71,0,-107,42c0,0,-35,42,-35,119V639H15v33l93,29l76,159h47V701H391V639H231V161c0,0,0,-48,22,-73c0,0,22,-24,57,-24c0,0,44,0,106,12V26C416,26,389,8,340,-2c0,0,-49,-12,-91,-12Z" 
id="f1_h"
transform="scale(0.001,-0.001)" />

<path d="M117,-176L179,62V190H336V62L213,-176Z" 
id="f0_s"
transform="scale(0.001,-0.001)" />

<path d="M66,0V106H564L66,836H228L516,413c0,0,3,2,9,6c0,0,17,13,27,21c0,0,10,8,26,27c0,0,17,20,26,40c0,0,9,21,16,54c0,0,7,34,7,75V836H764V698c0,0,0,-55,-7,-102c0,0,-7,-47,-16,-79c0,0,-10,-33,-27,-62c0,0,-18,-29,-32,-46c0,0,-14,-17,-37,-35c0,0,-22,-17,-36,-25c0,0,-13,-8,-36,-20L767,53V0Z" 
id="f0_b"
transform="scale(0.001,-0.001)" />

<path d="M543,-317V369c0,0,0,85,-8,143c0,0,-8,58,-27,101c0,0,-18,44,-51,69c0,0,-33,24,-80,36c0,0,-48,11,-117,11H66V836H257c0,0,125,0,205,-23c0,0,80,-23,130,-79c0,0,50,-56,70,-143c0,0,20,-86,20,-222V-317Z" 
id="f0_2"
transform="scale(0.001,-0.001)" />

<path d="M163,0V190H321V0Z" 
id="f0_j"
transform="scale(0.001,-0.001)" />


</defs>
</svg>