<?xml version="1.0" encoding="UTF-8" standalone="no"?>
<!DOCTYPE svg PUBLIC "-//W3C//DTD SVG 1.1//EN"
"http://www.w3.org/Graphics/SVG/1.1/DTD/svg11.dtd">
<svg viewBox="0 0 909 1286" version="1.1" xmlns="http://www.w3.org/2000/svg" xmlns:xlink="http://www.w3.org/1999/xlink">
<defs>
<clipPath id="c0_18"><path d="M0,1286.2V0H909.4V1286.2Z" /></clipPath>
<style type="text/css"><![CDATA[
.g0_18{
fill: #D8D8D8;
}
.g1_18{
fill: none;
stroke: #000000;
stroke-width: 0.7638889;
stroke-linecap: butt;
stroke-linejoin: round;
}
.g2_18{
fill: none;
stroke: #0000FF;
stroke-width: 1.0694444;
stroke-linecap: butt;
stroke-linejoin: miter;
}
]]></style>
</defs>
<path fill-rule="evenodd" d="M637.8,295.5H761.2v-20H637.8v20Z" class="g0_18" />
<path fill-rule="evenodd" d="M508,295.5H637.8v-20H508v20Z" class="g0_18" />
<path fill-rule="evenodd" d="M356.3,295.5H507.9v-20H356.3v20Z" class="g0_18" />
<path fill-rule="evenodd" d="M237.3,295.5H356.2v-20H237.3v20Z" class="g0_18" />
<path fill-rule="evenodd" d="M637.8,337H761.2V295.6H637.8V337Z" class="g0_18" />
<path fill-rule="evenodd" d="M508,337H637.8V295.6H508V337Z" class="g0_18" />
<path fill-rule="evenodd" d="M356.3,337H507.9V295.6H356.3V337Z" class="g0_18" />
<path fill-rule="evenodd" d="M237.3,337H356.2V295.6H237.3V337Z" class="g0_18" />
<path fill-rule="evenodd" d="M128.9,357.1H237.2V337H128.9v20.1Z" class="g0_18" />
<path fill-rule="evenodd" d="M128.9,377.1H237.2V357.2H128.9v19.9Z" class="g0_18" />
<path fill-rule="evenodd" d="M128.9,397.3H237.2V377.2H128.9v20.1Z" class="g0_18" />
<path fill-rule="evenodd" d="M128.9,417.3H237.2V397.4H128.9v19.9Z" class="g0_18" />
<path fill-rule="evenodd" d="M128.9,437.5H237.2V417.4H128.9v20.1Z" class="g0_18" />
<path fill-rule="evenodd" d="M442.9,545.8H566.3V523.7H442.9v22.1Z" class="g0_18" />
<path fill-rule="evenodd" d="M248.1,545.8H442.8V523.7H248.1v22.1Z" class="g0_18" />
<path fill-rule="evenodd" d="M128.9,545.8H248V523.7H128.9v22.1Z" class="g0_18" />
<path fill-rule="evenodd" d="M746.2,805.2h90.3V783.1H746.2v22.1Z" class="g0_18" />
<path fill-rule="evenodd" d="M659.5,805.2h86.6V783.1H659.5v22.1Z" class="g0_18" />
<path fill-rule="evenodd" d="M562.2,805.2h97.3V783.1H562.2v22.1Z" class="g0_18" />
<path fill-rule="evenodd" d="M464.8,805.2h97.3V783.1H464.8v22.1Z" class="g0_18" />
<path fill-rule="evenodd" d="M356.4,805.2H464.7V783.1H356.4v22.1Z" class="g0_18" />
<path fill-rule="evenodd" d="M237.3,805.2H356.4V783.1H237.3v22.1Z" class="g0_18" />
<path fill-rule="evenodd" d="M128.9,825.4H237.2V805.3H128.9v20.1Z" class="g0_18" />
<path fill-rule="evenodd" d="M128.9,845.4H237.2V825.5H128.9v19.9Z" class="g0_18" />
<path fill-rule="evenodd" d="M128.9,865.6H237.2V845.5H128.9v20.1Z" class="g0_18" />
<path fill-rule="evenodd" d="M128.9,885.6H237.2v-20H128.9v20Z" class="g0_18" />
<path fill-rule="evenodd" d="M128.9,905.7H237.2v-20H128.9v20Z" class="g0_18" />
<path fill-rule="evenodd" d="M367.1,1029.3H561.8v-22H367.1v22Z" class="g0_18" />
<path fill-rule="evenodd" d="M248,1029.3H367v-22H248v22Z" class="g0_18" />
<path fill-rule="evenodd" d="M128.9,1029.3h119v-22h-119v22Z" class="g0_18" />
<path fill-rule="evenodd" d="M637.8,295.5H761.2v-20H637.8v20Z" class="g0_18" />
<path fill-rule="evenodd" d="M508,295.5H637.8v-20H508v20Z" class="g0_18" />
<path fill-rule="evenodd" d="M356.3,295.5H507.9v-20H356.3v20Z" class="g0_18" />
<path fill-rule="evenodd" d="M237.3,295.5H356.2v-20H237.3v20Z" class="g0_18" />
<path fill-rule="evenodd" d="M637.8,337H761.2V295.6H637.8V337Z" class="g0_18" />
<path fill-rule="evenodd" d="M508,337H637.8V295.6H508V337Z" class="g0_18" />
<path fill-rule="evenodd" d="M356.3,337H507.9V295.6H356.3V337Z" class="g0_18" />
<path fill-rule="evenodd" d="M237.3,337H356.2V295.6H237.3V337Z" class="g0_18" />
<path fill-rule="evenodd" d="M128.9,357.1H237.2V337H128.9v20.1Z" class="g0_18" />
<path fill-rule="evenodd" d="M128.9,377.1H237.2V357.2H128.9v19.9Z" class="g0_18" />
<path fill-rule="evenodd" d="M128.9,397.3H237.2V377.2H128.9v20.1Z" class="g0_18" />
<path fill-rule="evenodd" d="M128.9,417.3H237.2V397.4H128.9v19.9Z" class="g0_18" />
<path fill-rule="evenodd" d="M128.9,437.5H237.2V417.4H128.9v20.1Z" class="g0_18" />
<path fill-rule="evenodd" d="M442.9,545.8H566.3V523.7H442.9v22.1Z" class="g0_18" />
<path fill-rule="evenodd" d="M248.1,545.8H442.8V523.7H248.1v22.1Z" class="g0_18" />
<path fill-rule="evenodd" d="M128.9,545.8H248V523.7H128.9v22.1Z" class="g0_18" />
<path fill-rule="evenodd" d="M746.2,805.2h90.3V783.1H746.2v22.1Z" class="g0_18" />
<path fill-rule="evenodd" d="M659.5,805.2h86.6V783.1H659.5v22.1Z" class="g0_18" />
<path fill-rule="evenodd" d="M562.2,805.2h97.3V783.1H562.2v22.1Z" class="g0_18" />
<path fill-rule="evenodd" d="M464.8,805.2h97.3V783.1H464.8v22.1Z" class="g0_18" />
<path fill-rule="evenodd" d="M356.4,805.2H464.7V783.1H356.4v22.1Z" class="g0_18" />
<path fill-rule="evenodd" d="M237.3,805.2H356.4V783.1H237.3v22.1Z" class="g0_18" />
<path fill-rule="evenodd" d="M128.9,825.4H237.2V805.3H128.9v20.1Z" class="g0_18" />
<path fill-rule="evenodd" d="M128.9,845.4H237.2V825.5H128.9v19.9Z" class="g0_18" />
<path fill-rule="evenodd" d="M128.9,865.6H237.2V845.5H128.9v20.1Z" class="g0_18" />
<path fill-rule="evenodd" d="M128.9,885.6H237.2v-20H128.9v20Z" class="g0_18" />
<path fill-rule="evenodd" d="M128.9,905.7H237.2v-20H128.9v20Z" class="g0_18" />
<path fill-rule="evenodd" d="M367.1,1029.3H561.8v-22H367.1v22Z" class="g0_18" />
<path fill-rule="evenodd" d="M248,1029.3H367v-22H248v22Z" class="g0_18" />
<path fill-rule="evenodd" d="M128.9,1029.3h119v-22h-119v22Z" class="g0_18" />
<g clip-path="url(#c0_18)">
<g fill="#000000" >
<use xlink:href="#f0_b" transform="matrix(16,0,0,16,700.8,229.5)" />
<use xlink:href="#f0_e" transform="matrix(16,0,0,16,715.6,229.5)" />
<use xlink:href="#f0_i" transform="matrix(16,0,0,16,721.8,229.5)" />
<use xlink:href="#f0_e" transform="matrix(16,0,0,16,733.6,229.5)" />
<use xlink:href="#f0_5" transform="matrix(16,0,0,16,739.8,229.5)" />
<use xlink:href="#f0_b" transform="matrix(16,0,0,16,757.1,229.5)" />
<use xlink:href="#f1_n" transform="matrix(12,0,0,12,723.8,271.2)" />
<use xlink:href="#f1_d" transform="matrix(12,0,0,12,735,271.2)" />
<use xlink:href="#f1_o" transform="matrix(12,0,0,12,740.3,271.2)" />
<use xlink:href="#f1_4" transform="matrix(12,0,0,12,748.6,271.2)" />
<use xlink:href="#f1_p" transform="matrix(12,0,0,12,759.6,271.2)" />
<use xlink:href="#f1_q" transform="matrix(12,0,0,12,704.6,271.2)" />
</g>
</g>
<path d="M236.9,275.8H761.7M236.9,296H761.7M128.6,337.4H761.7M128.6,357.6H761.7m-633.1,20H761.7M128.6,397.8H761.7m-633.1,20H761.7M128.6,437.9H761.7M128.9,337V438.3M237.3,275.5V438.3m119,-162.8V438.3M508,275.5V438.3M637.8,275.5V438.3M761.3,275.5V438.3" class="g1_18" />
<g clip-path="url(#c0_18)">
<g fill="#000000" >
<use xlink:href="#f2_b" transform="matrix(11,0,0,11,691.5,292)" />
<use xlink:href="#f2_c" transform="matrix(11,0,0,11,697.1,292)" />
<use xlink:href="#f2_d" transform="matrix(11,0,0,11,562.5,292)" />
<use xlink:href="#f2_c" transform="matrix(11,0,0,11,572.8,292)" />
<use xlink:href="#f2_b" transform="matrix(11,0,0,11,424.1,292)" />
<use xlink:href="#f2_c" transform="matrix(11,0,0,11,429.7,292)" />
<use xlink:href="#f2_d" transform="matrix(11,0,0,11,286.5,292)" />
<use xlink:href="#f2_c" transform="matrix(11,0,0,11,296.7,292)" />
<use xlink:href="#f3_6" transform="matrix(12,0,0,12,700.5,313.3)" />
<use xlink:href="#f3_k" transform="matrix(12,0,0,12,712.7,313.3)" />
<use xlink:href="#f3_a" transform="matrix(12,0,0,12,720.2,313.3)" />
<use xlink:href="#f3_e" transform="matrix(12,0,0,12,730.6,313.3)" />
<use xlink:href="#f3_3" transform="matrix(12,0,0,12,742.6,313.3)" />
<use xlink:href="#f2_h" transform="matrix(11,0,0,11,646.7,333.4)" />
<use xlink:href="#f2_3" transform="matrix(11,0,0,11,651.3,333.4)" />
<use xlink:href="#f2_m" transform="matrix(11,0,0,11,656.9,333.4)" />
<use xlink:href="#f2_e" transform="matrix(11,0,0,11,664.4,333.4)" />
<use xlink:href="#f2_f" transform="matrix(11,0,0,11,672.8,333.4)" />
<use xlink:href="#f2_5" transform="matrix(11,0,0,11,681.2,333.4)" />
<use xlink:href="#f0_n" transform="matrix(11,0,0,11,688.7,333.4)" />
<use xlink:href="#f0_o" transform="matrix(11,0,0,11,693.3,333.4)" />
<use xlink:href="#f3_e" transform="matrix(12,0,0,12,584.1,313.3)" />
<use xlink:href="#f3_c" transform="matrix(12,0,0,12,596,313.3)" />
<use xlink:href="#f3_9" transform="matrix(12,0,0,12,601,313.3)" />
<use xlink:href="#f3_o" transform="matrix(12,0,0,12,612.9,313.3)" />
<use xlink:href="#f3_3" transform="matrix(12,0,0,12,619.3,313.3)" />
<use xlink:href="#f2_3" transform="matrix(11,0,0,11,516.7,333.4)" />
<use xlink:href="#f2_2" transform="matrix(11,0,0,11,522.3,333.4)" />
<use xlink:href="#f2_5" transform="matrix(11,0,0,11,529.8,333.4)" />
<use xlink:href="#f2_8" transform="matrix(11,0,0,11,537.2,333.4)" />
<use xlink:href="#f2_a" transform="matrix(11,0,0,11,545.7,333.4)" />
<use xlink:href="#f2_8" transform="matrix(11,0,0,11,554.1,333.4)" />
<use xlink:href="#f2_5" transform="matrix(11,0,0,11,562.3,333.4)" />
<use xlink:href="#f0_p" transform="matrix(11,0,0,11,569.9,333.4)" />
<use xlink:href="#f0_o" transform="matrix(11,0,0,11,577.3,333.4)" />
<use xlink:href="#f3_k" transform="matrix(12,0,0,12,455,313.3)" />
<use xlink:href="#f3_7" transform="matrix(12,0,0,12,462.5,313.3)" />
<use xlink:href="#f3_b" transform="matrix(12,0,0,12,466.6,313.3)" />
<use xlink:href="#f3_9" transform="matrix(12,0,0,12,477.4,313.3)" />
<use xlink:href="#f3_3" transform="matrix(12,0,0,12,489.3,313.3)" />
<use xlink:href="#f2_4" transform="matrix(11,0,0,11,365.1,333.4)" />
<use xlink:href="#f2_a" transform="matrix(11,0,0,11,369.7,333.4)" />
<use xlink:href="#f2_h" transform="matrix(11,0,0,11,378.1,333.4)" />
<use xlink:href="#f2_3" transform="matrix(11,0,0,11,382.9,333.4)" />
<use xlink:href="#f2_8" transform="matrix(11,0,0,11,388.5,333.4)" />
<use xlink:href="#f2_e" transform="matrix(11,0,0,11,396.9,333.4)" />
<use xlink:href="#f2_f" transform="matrix(11,0,0,11,405.3,333.4)" />
<use xlink:href="#f2_5" transform="matrix(11,0,0,11,413.5,333.4)" />
<use xlink:href="#f0_n" transform="matrix(11,0,0,11,421.1,333.4)" />
<use xlink:href="#f0_o" transform="matrix(11,0,0,11,425.8,333.4)" />
<use xlink:href="#f3_l" transform="matrix(12,0,0,12,299.4,313.3)" />
<use xlink:href="#f3_7" transform="matrix(12,0,0,12,310.9,313.3)" />
<use xlink:href="#f3_b" transform="matrix(12,0,0,12,315,313.3)" />
<use xlink:href="#f3_9" transform="matrix(12,0,0,12,325.9,313.3)" />
<use xlink:href="#f3_3" transform="matrix(12,0,0,12,337.8,313.3)" />
<use xlink:href="#f2_8" transform="matrix(11,0,0,11,246.1,333.4)" />
<use xlink:href="#f2_t" transform="matrix(11,0,0,11,254.4,333.4)" />
<use xlink:href="#f2_3" transform="matrix(11,0,0,11,260,333.4)" />
<use xlink:href="#f2_2" transform="matrix(11,0,0,11,265.6,333.4)" />
<use xlink:href="#f2_5" transform="matrix(11,0,0,11,273.1,333.4)" />
<use xlink:href="#f0_p" transform="matrix(11,0,0,11,280.7,333.4)" />
<use xlink:href="#f0_o" transform="matrix(11,0,0,11,288,333.4)" />
<use xlink:href="#f2_h" transform="matrix(11,0,0,11,646.7,353.5)" />
<use xlink:href="#f2_3" transform="matrix(11,0,0,11,651.3,353.5)" />
<use xlink:href="#f2_m" transform="matrix(11,0,0,11,656.9,353.5)" />
<use xlink:href="#f2_e" transform="matrix(11,0,0,11,664.4,353.5)" />
<use xlink:href="#f2_f" transform="matrix(11,0,0,11,672.8,353.5)" />
<use xlink:href="#f2_9" transform="matrix(11,0,0,11,681.2,353.5)" />
<use xlink:href="#f2_5" transform="matrix(11,0,0,11,688.7,353.5)" />
<use xlink:href="#f2_8" transform="matrix(11,0,0,11,696.1,353.5)" />
<use xlink:href="#f2_3" transform="matrix(11,0,0,11,516.7,353.5)" />
<use xlink:href="#f2_2" transform="matrix(11,0,0,11,522.3,353.5)" />
<use xlink:href="#f2_5" transform="matrix(11,0,0,11,529.8,353.5)" />
<use xlink:href="#f2_8" transform="matrix(11,0,0,11,537.2,353.5)" />
<use xlink:href="#f2_a" transform="matrix(11,0,0,11,545.7,353.5)" />
<use xlink:href="#f2_8" transform="matrix(11,0,0,11,554.1,353.5)" />
<use xlink:href="#f2_9" transform="matrix(11,0,0,11,562.3,353.5)" />
<use xlink:href="#f2_5" transform="matrix(11,0,0,11,569.8,353.5)" />
<use xlink:href="#f2_8" transform="matrix(11,0,0,11,577.2,353.5)" />
<use xlink:href="#f2_4" transform="matrix(11,0,0,11,365.1,353.5)" />
<use xlink:href="#f2_a" transform="matrix(11,0,0,11,369.7,353.5)" />
<use xlink:href="#f2_h" transform="matrix(11,0,0,11,378.1,353.5)" />
<use xlink:href="#f2_3" transform="matrix(11,0,0,11,382.9,353.5)" />
<use xlink:href="#f2_8" transform="matrix(11,0,0,11,388.5,353.5)" />
<use xlink:href="#f2_e" transform="matrix(11,0,0,11,396.9,353.5)" />
<use xlink:href="#f2_f" transform="matrix(11,0,0,11,405.3,353.5)" />
<use xlink:href="#f2_9" transform="matrix(11,0,0,11,413.5,353.5)" />
<use xlink:href="#f2_5" transform="matrix(11,0,0,11,421,353.5)" />
<use xlink:href="#f2_8" transform="matrix(11,0,0,11,428.5,353.5)" />
<use xlink:href="#f2_8" transform="matrix(11,0,0,11,246.1,353.5)" />
<use xlink:href="#f2_t" transform="matrix(11,0,0,11,254.4,353.5)" />
<use xlink:href="#f2_3" transform="matrix(11,0,0,11,260,353.5)" />
<use xlink:href="#f2_2" transform="matrix(11,0,0,11,265.6,353.5)" />
<use xlink:href="#f2_9" transform="matrix(11,0,0,11,273.1,353.5)" />
<use xlink:href="#f2_5" transform="matrix(11,0,0,11,280.6,353.5)" />
<use xlink:href="#f2_8" transform="matrix(11,0,0,11,288,353.5)" />
<use xlink:href="#f2_7" transform="matrix(11,0,0,11,137.7,353.5)" />
<use xlink:href="#f2_8" transform="matrix(11,0,0,11,146.1,353.5)" />
<use xlink:href="#f2_h" transform="matrix(11,0,0,11,646.7,373.5)" />
<use xlink:href="#f2_3" transform="matrix(11,0,0,11,651.3,373.5)" />
<use xlink:href="#f2_m" transform="matrix(11,0,0,11,656.9,373.5)" />
<use xlink:href="#f2_e" transform="matrix(11,0,0,11,664.4,373.5)" />
<use xlink:href="#f2_f" transform="matrix(11,0,0,11,672.8,373.5)" />
<use xlink:href="#f2_5" transform="matrix(11,0,0,11,681.2,373.5)" />
<use xlink:href="#f2_2" transform="matrix(11,0,0,11,688.7,373.5)" />
<use xlink:href="#f2_g" transform="matrix(11,0,0,11,696,373.5)" />
<use xlink:href="#f2_3" transform="matrix(11,0,0,11,516.7,373.5)" />
<use xlink:href="#f2_2" transform="matrix(11,0,0,11,522.3,373.5)" />
<use xlink:href="#f2_5" transform="matrix(11,0,0,11,529.8,373.5)" />
<use xlink:href="#f2_8" transform="matrix(11,0,0,11,537.2,373.5)" />
<use xlink:href="#f2_a" transform="matrix(11,0,0,11,545.7,373.5)" />
<use xlink:href="#f2_8" transform="matrix(11,0,0,11,554.1,373.5)" />
<use xlink:href="#f2_5" transform="matrix(11,0,0,11,562.3,373.5)" />
<use xlink:href="#f2_2" transform="matrix(11,0,0,11,569.8,373.5)" />
<use xlink:href="#f2_g" transform="matrix(11,0,0,11,577.2,373.5)" />
<use xlink:href="#f2_4" transform="matrix(11,0,0,11,365.1,373.5)" />
<use xlink:href="#f2_a" transform="matrix(11,0,0,11,369.7,373.5)" />
<use xlink:href="#f2_h" transform="matrix(11,0,0,11,378.1,373.5)" />
<use xlink:href="#f2_3" transform="matrix(11,0,0,11,382.9,373.5)" />
<use xlink:href="#f2_8" transform="matrix(11,0,0,11,388.5,373.5)" />
<use xlink:href="#f2_e" transform="matrix(11,0,0,11,396.9,373.5)" />
<use xlink:href="#f2_f" transform="matrix(11,0,0,11,405.3,373.5)" />
<use xlink:href="#f2_5" transform="matrix(11,0,0,11,413.5,373.5)" />
<use xlink:href="#f2_2" transform="matrix(11,0,0,11,421,373.5)" />
<use xlink:href="#f2_g" transform="matrix(11,0,0,11,428.5,373.5)" />
<use xlink:href="#f2_8" transform="matrix(11,0,0,11,246.1,373.5)" />
<use xlink:href="#f2_t" transform="matrix(11,0,0,11,254.4,373.5)" />
<use xlink:href="#f2_3" transform="matrix(11,0,0,11,260,373.5)" />
<use xlink:href="#f2_2" transform="matrix(11,0,0,11,265.6,373.5)" />
<use xlink:href="#f2_5" transform="matrix(11,0,0,11,273.1,373.5)" />
<use xlink:href="#f2_2" transform="matrix(11,0,0,11,280.6,373.5)" />
<use xlink:href="#f2_g" transform="matrix(11,0,0,11,287.9,373.5)" />
<use xlink:href="#f2_h" transform="matrix(11,0,0,11,137.7,373.5)" />
<use xlink:href="#f2_i" transform="matrix(11,0,0,11,142.4,373.5)" />
<use xlink:href="#f2_h" transform="matrix(11,0,0,11,646.7,393.7)" />
<use xlink:href="#f2_3" transform="matrix(11,0,0,11,651.3,393.7)" />
<use xlink:href="#f2_m" transform="matrix(11,0,0,11,656.9,393.7)" />
<use xlink:href="#f2_e" transform="matrix(11,0,0,11,664.4,393.7)" />
<use xlink:href="#f2_f" transform="matrix(11,0,0,11,672.8,393.7)" />
<use xlink:href="#f2_5" transform="matrix(11,0,0,11,681.2,393.7)" />
<use xlink:href="#f2_2" transform="matrix(11,0,0,11,688.7,393.7)" />
<use xlink:href="#f2_3" transform="matrix(11,0,0,11,516.7,393.7)" />
<use xlink:href="#f2_2" transform="matrix(11,0,0,11,522.3,393.7)" />
<use xlink:href="#f2_5" transform="matrix(11,0,0,11,529.8,393.7)" />
<use xlink:href="#f2_8" transform="matrix(11,0,0,11,537.2,393.7)" />
<use xlink:href="#f2_a" transform="matrix(11,0,0,11,545.7,393.7)" />
<use xlink:href="#f2_8" transform="matrix(11,0,0,11,554.1,393.7)" />
<use xlink:href="#f2_5" transform="matrix(11,0,0,11,562.3,393.7)" />
<use xlink:href="#f2_2" transform="matrix(11,0,0,11,569.8,393.7)" />
<use xlink:href="#f2_4" transform="matrix(11,0,0,11,365.1,393.7)" />
<use xlink:href="#f2_a" transform="matrix(11,0,0,11,369.7,393.7)" />
<use xlink:href="#f2_h" transform="matrix(11,0,0,11,378.1,393.7)" />
<use xlink:href="#f2_3" transform="matrix(11,0,0,11,382.9,393.7)" />
<use xlink:href="#f2_8" transform="matrix(11,0,0,11,388.5,393.7)" />
<use xlink:href="#f2_e" transform="matrix(11,0,0,11,396.9,393.7)" />
<use xlink:href="#f2_f" transform="matrix(11,0,0,11,405.3,393.7)" />
<use xlink:href="#f2_5" transform="matrix(11,0,0,11,413.5,393.7)" />
<use xlink:href="#f2_2" transform="matrix(11,0,0,11,421,393.7)" />
<use xlink:href="#f2_8" transform="matrix(11,0,0,11,246.1,393.7)" />
<use xlink:href="#f2_t" transform="matrix(11,0,0,11,254.4,393.7)" />
<use xlink:href="#f2_3" transform="matrix(11,0,0,11,260,393.7)" />
<use xlink:href="#f2_2" transform="matrix(11,0,0,11,265.6,393.7)" />
<use xlink:href="#f2_5" transform="matrix(11,0,0,11,273.1,393.7)" />
<use xlink:href="#f2_2" transform="matrix(11,0,0,11,280.6,393.7)" />
<use xlink:href="#f2_k" transform="matrix(11,0,0,11,137.7,393.7)" />
<use xlink:href="#f2_l" transform="matrix(11,0,0,11,145.1,393.7)" />
<use xlink:href="#f2_6" transform="matrix(11,0,0,11,149.7,393.7)" />
<use xlink:href="#f2_2" transform="matrix(11,0,0,11,154.4,393.7)" />
<use xlink:href="#f2_l" transform="matrix(11,0,0,11,161.9,393.7)" />
<use xlink:href="#f2_l" transform="matrix(11,0,0,11,166.5,393.7)" />
<use xlink:href="#f2_m" transform="matrix(11,0,0,11,171.2,393.7)" />
<use xlink:href="#f2_6" transform="matrix(11,0,0,11,178.7,393.7)" />
<use xlink:href="#f2_n" transform="matrix(11,0,0,11,183.4,393.7)" />
<use xlink:href="#f2_e" transform="matrix(11,0,0,11,195.4,393.7)" />
<use xlink:href="#f2_o" transform="matrix(11,0,0,11,203.8,393.7)" />
<use xlink:href="#f2_h" transform="matrix(11,0,0,11,646.7,413.7)" />
<use xlink:href="#f2_3" transform="matrix(11,0,0,11,651.3,413.7)" />
<use xlink:href="#f2_m" transform="matrix(11,0,0,11,656.9,413.7)" />
<use xlink:href="#f2_e" transform="matrix(11,0,0,11,664.4,413.7)" />
<use xlink:href="#f2_f" transform="matrix(11,0,0,11,672.8,413.7)" />
<use xlink:href="#f2_5" transform="matrix(11,0,0,11,681.2,413.7)" />
<use xlink:href="#f2_4" transform="matrix(11,0,0,11,688.5,413.7)" />
<use xlink:href="#f2_p" transform="matrix(11,0,0,11,693.2,413.7)" />
<use xlink:href="#f2_8" transform="matrix(11,0,0,11,706.4,413.7)" />
<use xlink:href="#f2_g" transform="matrix(11,0,0,11,714.8,413.7)" />
<use xlink:href="#f2_3" transform="matrix(11,0,0,11,516.7,413.7)" />
<use xlink:href="#f2_2" transform="matrix(11,0,0,11,522.3,413.7)" />
<use xlink:href="#f2_5" transform="matrix(11,0,0,11,529.8,413.7)" />
<use xlink:href="#f2_8" transform="matrix(11,0,0,11,537.2,413.7)" />
<use xlink:href="#f2_a" transform="matrix(11,0,0,11,545.7,413.7)" />
<use xlink:href="#f2_8" transform="matrix(11,0,0,11,554.1,413.7)" />
<use xlink:href="#f2_5" transform="matrix(11,0,0,11,562.3,413.7)" />
<use xlink:href="#f2_2" transform="matrix(11,0,0,11,569.8,413.7)" />
<use xlink:href="#f2_p" transform="matrix(11,0,0,11,577.2,413.7)" />
<use xlink:href="#f2_8" transform="matrix(11,0,0,11,590.4,413.7)" />
<use xlink:href="#f2_g" transform="matrix(11,0,0,11,598.8,413.7)" />
<use xlink:href="#f2_4" transform="matrix(11,0,0,11,365.1,413.7)" />
<use xlink:href="#f2_a" transform="matrix(11,0,0,11,369.7,413.7)" />
<use xlink:href="#f2_h" transform="matrix(11,0,0,11,378.1,413.7)" />
<use xlink:href="#f2_3" transform="matrix(11,0,0,11,382.9,413.7)" />
<use xlink:href="#f2_8" transform="matrix(11,0,0,11,388.5,413.7)" />
<use xlink:href="#f2_e" transform="matrix(11,0,0,11,396.9,413.7)" />
<use xlink:href="#f2_f" transform="matrix(11,0,0,11,405.3,413.7)" />
<use xlink:href="#f2_5" transform="matrix(11,0,0,11,413.5,413.7)" />
<use xlink:href="#f2_4" transform="matrix(11,0,0,11,421,413.7)" />
<use xlink:href="#f2_p" transform="matrix(11,0,0,11,425.7,413.7)" />
<use xlink:href="#f2_8" transform="matrix(11,0,0,11,438.8,413.7)" />
<use xlink:href="#f2_g" transform="matrix(11,0,0,11,447.1,413.7)" />
<use xlink:href="#f2_8" transform="matrix(11,0,0,11,246.1,413.7)" />
<use xlink:href="#f2_t" transform="matrix(11,0,0,11,254.4,413.7)" />
<use xlink:href="#f2_3" transform="matrix(11,0,0,11,260,413.7)" />
<use xlink:href="#f2_2" transform="matrix(11,0,0,11,265.6,413.7)" />
<use xlink:href="#f2_5" transform="matrix(11,0,0,11,273.1,413.7)" />
<use xlink:href="#f2_2" transform="matrix(11,0,0,11,280.6,413.7)" />
<use xlink:href="#f2_p" transform="matrix(11,0,0,11,287.9,413.7)" />
<use xlink:href="#f2_8" transform="matrix(11,0,0,11,301,413.7)" />
<use xlink:href="#f2_g" transform="matrix(11,0,0,11,309.4,413.7)" />
<use xlink:href="#f2_a" transform="matrix(11,0,0,11,137.7,413.7)" />
<use xlink:href="#f2_8" transform="matrix(11,0,0,11,146.1,413.7)" />
<use xlink:href="#f2_g" transform="matrix(11,0,0,11,154.5,413.7)" />
<use xlink:href="#f2_8" transform="matrix(11,0,0,11,161,413.7)" />
<use xlink:href="#f2_h" transform="matrix(11,0,0,11,169.4,413.7)" />
<use xlink:href="#f2_3" transform="matrix(11,0,0,11,174,413.7)" />
<use xlink:href="#f2_8" transform="matrix(11,0,0,11,179.6,413.7)" />
<use xlink:href="#f2_g" transform="matrix(11,0,0,11,188,413.7)" />
<use xlink:href="#f2_6" transform="matrix(11,0,0,11,194.6,413.7)" />
<use xlink:href="#f2_m" transform="matrix(11,0,0,11,199.3,413.7)" />
<use xlink:href="#f2_g" transform="matrix(11,0,0,11,206.6,413.7)" />
<use xlink:href="#f2_h" transform="matrix(11,0,0,11,646.7,433.9)" />
<use xlink:href="#f2_3" transform="matrix(11,0,0,11,651.3,433.9)" />
<use xlink:href="#f2_m" transform="matrix(11,0,0,11,656.9,433.9)" />
<use xlink:href="#f2_e" transform="matrix(11,0,0,11,664.4,433.9)" />
<use xlink:href="#f2_f" transform="matrix(11,0,0,11,672.8,433.9)" />
<use xlink:href="#f2_5" transform="matrix(11,0,0,11,681.2,433.9)" />
<use xlink:href="#f2_2" transform="matrix(11,0,0,11,688.7,433.9)" />
<use xlink:href="#f2_a" transform="matrix(11,0,0,11,696.1,433.9)" />
<use xlink:href="#f2_3" transform="matrix(11,0,0,11,516.7,433.9)" />
<use xlink:href="#f2_2" transform="matrix(11,0,0,11,522.3,433.9)" />
<use xlink:href="#f2_5" transform="matrix(11,0,0,11,529.8,433.9)" />
<use xlink:href="#f2_8" transform="matrix(11,0,0,11,537.2,433.9)" />
<use xlink:href="#f2_a" transform="matrix(11,0,0,11,545.7,433.9)" />
<use xlink:href="#f2_8" transform="matrix(11,0,0,11,554.1,433.9)" />
<use xlink:href="#f2_5" transform="matrix(11,0,0,11,562.3,433.9)" />
<use xlink:href="#f2_2" transform="matrix(11,0,0,11,569.8,433.9)" />
<use xlink:href="#f2_a" transform="matrix(11,0,0,11,577.2,433.9)" />
<use xlink:href="#f2_4" transform="matrix(11,0,0,11,365.1,433.9)" />
<use xlink:href="#f2_a" transform="matrix(11,0,0,11,369.7,433.9)" />
<use xlink:href="#f2_h" transform="matrix(11,0,0,11,378.1,433.9)" />
<use xlink:href="#f2_3" transform="matrix(11,0,0,11,382.9,433.9)" />
<use xlink:href="#f2_8" transform="matrix(11,0,0,11,388.5,433.9)" />
<use xlink:href="#f2_e" transform="matrix(11,0,0,11,396.9,433.9)" />
<use xlink:href="#f2_f" transform="matrix(11,0,0,11,405.3,433.9)" />
<use xlink:href="#f2_5" transform="matrix(11,0,0,11,413.5,433.9)" />
<use xlink:href="#f2_2" transform="matrix(11,0,0,11,421,433.9)" />
<use xlink:href="#f2_a" transform="matrix(11,0,0,11,428.5,433.9)" />
<use xlink:href="#f2_8" transform="matrix(11,0,0,11,246.1,433.9)" />
<use xlink:href="#f2_t" transform="matrix(11,0,0,11,254.4,433.9)" />
<use xlink:href="#f2_3" transform="matrix(11,0,0,11,260,433.9)" />
<use xlink:href="#f2_2" transform="matrix(11,0,0,11,265.6,433.9)" />
<use xlink:href="#f2_5" transform="matrix(11,0,0,11,273.1,433.9)" />
<use xlink:href="#f2_2" transform="matrix(11,0,0,11,280.6,433.9)" />
<use xlink:href="#f2_a" transform="matrix(11,0,0,11,288,433.9)" />
<use xlink:href="#f2_2" transform="matrix(11,0,0,11,137.7,433.9)" />
<use xlink:href="#f2_l" transform="matrix(11,0,0,11,145.1,433.9)" />
<use xlink:href="#f2_l" transform="matrix(11,0,0,11,149.7,433.9)" />
<use xlink:href="#f2_8" transform="matrix(11,0,0,11,154.4,433.9)" />
<use xlink:href="#f2_g" transform="matrix(11,0,0,11,162.8,433.9)" />
<use xlink:href="#f2_6" transform="matrix(11,0,0,11,169.4,433.9)" />
<use xlink:href="#f2_m" transform="matrix(11,0,0,11,174.1,433.9)" />
<use xlink:href="#f2_g" transform="matrix(11,0,0,11,181.4,433.9)" />
<use xlink:href="#f2_6" transform="matrix(11,0,0,11,188,433.9)" />
<use xlink:href="#f2_n" transform="matrix(11,0,0,11,192.7,433.9)" />
<use xlink:href="#f2_e" transform="matrix(11,0,0,11,204.8,433.9)" />
<use xlink:href="#f2_g" transform="matrix(11,0,0,11,213.2,433.9)" />
<use xlink:href="#f2_o" transform="matrix(11,0,0,11,219.7,433.9)" />
</g>
<g fill="#0000FF" >
<use xlink:href="#f3_p" transform="matrix(12,0,0,12,669.9,455.3)" />
<use xlink:href="#f3_a" transform="matrix(12,0,0,12,682.9,455.3)" />
<use xlink:href="#f3_m" transform="matrix(12,0,0,12,693.1,455.3)" />
<use xlink:href="#f3_3" transform="matrix(12,0,0,12,704.6,455.3)" />
<use xlink:href="#f3_9" transform="matrix(12,0,0,12,720.9,455.3)" />
<use xlink:href="#f3_a" transform="matrix(12,0,0,12,732.8,455.3)" />
<use xlink:href="#f3_o" transform="matrix(12,0,0,12,743.2,455.3)" />
<use xlink:href="#f3_g" transform="matrix(12,0,0,12,749.6,455.3)" />
<use xlink:href="#f3_f" transform="matrix(12,0,0,12,761.5,455.3)" />
</g>
</g>
<path d="M669.8,457.1H772.1" class="g2_18" />
<g clip-path="url(#c0_18)">
<g fill="#000000" >
<use xlink:href="#f1_n" transform="matrix(12,0,0,12,723.8,519.4)" />
<use xlink:href="#f1_d" transform="matrix(12,0,0,12,735,519.4)" />
<use xlink:href="#f1_o" transform="matrix(12,0,0,12,740.3,519.4)" />
<use xlink:href="#f1_4" transform="matrix(12,0,0,12,748.6,519.4)" />
<use xlink:href="#f1_p" transform="matrix(12,0,0,12,759.6,519.4)" />
<use xlink:href="#f1_r" transform="matrix(12,0,0,12,704.6,519.4)" />
</g>
</g>
<path d="M128.6,524.1H566.7M128.6,546.3H566.7M128.6,568.4H566.7M128.6,590.6H566.7M128.6,612.7H566.7M128.6,634.9H566.7M128.6,657H566.7M128.6,679.2H566.7M128.6,701.3H566.7M128.9,523.7v178m119.2,-178v178m194.8,-178v178m123.4,-178v178" class="g1_18" />
<g clip-path="url(#c0_18)">
<g fill="#000000" >
<use xlink:href="#f3_3" transform="matrix(12,0,0,12,507.8,541.6)" />
<use xlink:href="#f3_l" transform="matrix(12,0,0,12,518.2,541.6)" />
<use xlink:href="#f3_c" transform="matrix(12,0,0,12,529.7,541.6)" />
<use xlink:href="#f3_m" transform="matrix(12,0,0,12,534.7,541.6)" />
<use xlink:href="#f3_9" transform="matrix(12,0,0,12,546.1,541.6)" />
<use xlink:href="#f3_6" transform="matrix(12,0,0,12,387.8,541.6)" />
<use xlink:href="#f3_c" transform="matrix(12,0,0,12,400,541.6)" />
<use xlink:href="#f3_k" transform="matrix(12,0,0,12,405,541.6)" />
<use xlink:href="#f3_a" transform="matrix(12,0,0,12,412.5,541.6)" />
<use xlink:href="#f3_e" transform="matrix(12,0,0,12,422.7,541.6)" />
<use xlink:href="#f2_y" transform="matrix(11,0,0,11,219.2,540.2)" />
<use xlink:href="#f2_8" transform="matrix(11,0,0,11,231.3,540.2)" />
<use xlink:href="#f2_3" transform="matrix(11,0,0,11,451.8,562.4)" />
<use xlink:href="#f2_2" transform="matrix(11,0,0,11,457.3,562.4)" />
<use xlink:href="#f2_e" transform="matrix(11,0,0,11,464.7,562.4)" />
<use xlink:href="#f2_f" transform="matrix(11,0,0,11,473.1,562.4)" />
<use xlink:href="#f2_5" transform="matrix(11,0,0,11,481.5,562.4)" />
<use xlink:href="#f2_4" transform="matrix(11,0,0,11,489,562.4)" />
<use xlink:href="#f2_3" transform="matrix(11,0,0,11,493.6,562.4)" />
<use xlink:href="#f3_e" transform="matrix(12,0,0,12,372.9,563.8)" />
<use xlink:href="#f3_7" transform="matrix(12,0,0,12,385,563.8)" />
<use xlink:href="#f3_g" transform="matrix(12,0,0,12,389.1,563.8)" />
<use xlink:href="#f3_m" transform="matrix(12,0,0,12,401,563.8)" />
<use xlink:href="#f3_9" transform="matrix(12,0,0,12,412.4,563.8)" />
<use xlink:href="#f3_3" transform="matrix(12,0,0,12,424.4,563.8)" />
<use xlink:href="#f2_3" transform="matrix(11,0,0,11,137.7,562.4)" />
<use xlink:href="#f2_2" transform="matrix(11,0,0,11,143.3,562.4)" />
<use xlink:href="#f2_e" transform="matrix(11,0,0,11,150.7,562.4)" />
<use xlink:href="#f2_f" transform="matrix(11,0,0,11,159.1,562.4)" />
<use xlink:href="#f2_9" transform="matrix(11,0,0,11,167.5,562.4)" />
<use xlink:href="#f2_5" transform="matrix(11,0,0,11,174.9,562.4)" />
<use xlink:href="#f2_8" transform="matrix(11,0,0,11,182.3,562.4)" />
<use xlink:href="#f2_u" transform="matrix(11,0,0,11,451.8,584.5)" />
<use xlink:href="#f2_3" transform="matrix(11,0,0,11,460,584.5)" />
<use xlink:href="#f2_8" transform="matrix(11,0,0,11,465.6,584.5)" />
<use xlink:href="#f2_e" transform="matrix(11,0,0,11,474,584.5)" />
<use xlink:href="#f2_f" transform="matrix(11,0,0,11,482.5,584.5)" />
<use xlink:href="#f2_5" transform="matrix(11,0,0,11,490.9,584.5)" />
<use xlink:href="#f2_4" transform="matrix(11,0,0,11,498.3,584.5)" />
<use xlink:href="#f2_3" transform="matrix(11,0,0,11,503,584.5)" />
<use xlink:href="#f3_p" transform="matrix(12,0,0,12,383.9,585.9)" />
<use xlink:href="#f3_7" transform="matrix(12,0,0,12,396.9,585.9)" />
<use xlink:href="#f3_m" transform="matrix(12,0,0,12,401,585.9)" />
<use xlink:href="#f3_9" transform="matrix(12,0,0,12,412.5,585.9)" />
<use xlink:href="#f3_3" transform="matrix(12,0,0,12,424.4,585.9)" />
<use xlink:href="#f2_u" transform="matrix(11,0,0,11,137.7,584.5)" />
<use xlink:href="#f2_3" transform="matrix(11,0,0,11,146.1,584.5)" />
<use xlink:href="#f2_8" transform="matrix(11,0,0,11,151.7,584.5)" />
<use xlink:href="#f2_e" transform="matrix(11,0,0,11,160.1,584.5)" />
<use xlink:href="#f2_f" transform="matrix(11,0,0,11,168.5,584.5)" />
<use xlink:href="#f2_9" transform="matrix(11,0,0,11,176.9,584.5)" />
<use xlink:href="#f2_5" transform="matrix(11,0,0,11,184.4,584.5)" />
<use xlink:href="#f2_8" transform="matrix(11,0,0,11,191.8,584.5)" />
<use xlink:href="#f2_p" transform="matrix(11,0,0,11,451.8,606.7)" />
<use xlink:href="#f2_2" transform="matrix(11,0,0,11,464.8,606.7)" />
<use xlink:href="#f2_3" transform="matrix(11,0,0,11,472.2,606.7)" />
<use xlink:href="#f2_2" transform="matrix(11,0,0,11,477.8,606.7)" />
<use xlink:href="#f2_5" transform="matrix(11,0,0,11,485.3,606.7)" />
<use xlink:href="#f2_2" transform="matrix(11,0,0,11,492.6,606.7)" />
<use xlink:href="#f2_3" transform="matrix(11,0,0,11,500.1,606.7)" />
<use xlink:href="#f3_7" transform="matrix(12,0,0,12,260,608.1)" />
<use xlink:href="#f3_d" transform="matrix(12,0,0,12,264.1,608.1)" />
<use xlink:href="#f3_i" transform="matrix(12,0,0,12,276.4,608.1)" />
<use xlink:href="#f3_o" transform="matrix(12,0,0,12,286,608.1)" />
<use xlink:href="#f3_e" transform="matrix(12,0,0,12,298.2,608.1)" />
<use xlink:href="#f3_c" transform="matrix(12,0,0,12,310.2,608.1)" />
<use xlink:href="#f3_7" transform="matrix(12,0,0,12,315.3,608.1)" />
<use xlink:href="#f3_9" transform="matrix(12,0,0,12,319.4,608.1)" />
<use xlink:href="#f3_3" transform="matrix(12,0,0,12,331.3,608.1)" />
<use xlink:href="#f3_r" transform="matrix(12,0,0,12,347.6,608.1)" />
<use xlink:href="#f3_7" transform="matrix(12,0,0,12,353.7,608.1)" />
<use xlink:href="#f3_c" transform="matrix(12,0,0,12,357.7,608.1)" />
<use xlink:href="#f3_d" transform="matrix(12,0,0,12,362.7,608.1)" />
<use xlink:href="#f3_a" transform="matrix(12,0,0,12,375,608.1)" />
<use xlink:href="#f3_e" transform="matrix(12,0,0,12,391.1,608.1)" />
<use xlink:href="#f3_c" transform="matrix(12,0,0,12,403.2,608.1)" />
<use xlink:href="#f3_7" transform="matrix(12,0,0,12,408.2,608.1)" />
<use xlink:href="#f3_9" transform="matrix(12,0,0,12,412.3,608.1)" />
<use xlink:href="#f3_3" transform="matrix(12,0,0,12,424.2,608.1)" />
<use xlink:href="#f2_p" transform="matrix(11,0,0,11,137.7,606.7)" />
<use xlink:href="#f2_2" transform="matrix(11,0,0,11,150.8,606.7)" />
<use xlink:href="#f2_3" transform="matrix(11,0,0,11,158.1,606.7)" />
<use xlink:href="#f2_2" transform="matrix(11,0,0,11,163.7,606.7)" />
<use xlink:href="#f2_9" transform="matrix(11,0,0,11,171.2,606.7)" />
<use xlink:href="#f2_5" transform="matrix(11,0,0,11,178.7,606.7)" />
<use xlink:href="#f2_8" transform="matrix(11,0,0,11,186.1,606.7)" />
<use xlink:href="#f2_2" transform="matrix(11,0,0,11,451.8,628.8)" />
<use xlink:href="#f2_g" transform="matrix(11,0,0,11,459.1,628.8)" />
<use xlink:href="#f2_h" transform="matrix(11,0,0,11,465.6,628.8)" />
<use xlink:href="#f2_m" transform="matrix(11,0,0,11,470.4,628.8)" />
<use xlink:href="#f2_v" transform="matrix(11,0,0,11,477.8,628.8)" />
<use xlink:href="#f2_l" transform="matrix(11,0,0,11,486.1,628.8)" />
<use xlink:href="#f2_2" transform="matrix(11,0,0,11,490.8,628.8)" />
<use xlink:href="#f2_5" transform="matrix(11,0,0,11,498.3,628.8)" />
<use xlink:href="#f2_2" transform="matrix(11,0,0,11,505.7,628.8)" />
<use xlink:href="#f2_3" transform="matrix(11,0,0,11,513.2,628.8)" />
<use xlink:href="#f3_q" transform="matrix(12,0,0,12,394.3,630.2)" />
<use xlink:href="#f3_t" transform="matrix(12,0,0,12,404.4,630.2)" />
<use xlink:href="#f3_7" transform="matrix(12,0,0,12,416.2,630.2)" />
<use xlink:href="#f3_7" transform="matrix(12,0,0,12,420.3,630.2)" />
<use xlink:href="#f3_3" transform="matrix(12,0,0,12,424.4,630.2)" />
<use xlink:href="#f2_2" transform="matrix(11,0,0,11,137.7,628.8)" />
<use xlink:href="#f2_g" transform="matrix(11,0,0,11,145.1,628.8)" />
<use xlink:href="#f2_h" transform="matrix(11,0,0,11,151.7,628.8)" />
<use xlink:href="#f2_m" transform="matrix(11,0,0,11,156.3,628.8)" />
<use xlink:href="#f2_v" transform="matrix(11,0,0,11,163.7,628.8)" />
<use xlink:href="#f2_l" transform="matrix(11,0,0,11,172.1,628.8)" />
<use xlink:href="#f2_2" transform="matrix(11,0,0,11,176.8,628.8)" />
<use xlink:href="#f2_9" transform="matrix(11,0,0,11,184.3,628.8)" />
<use xlink:href="#f2_5" transform="matrix(11,0,0,11,191.6,628.8)" />
<use xlink:href="#f2_8" transform="matrix(11,0,0,11,199.1,628.8)" />
<use xlink:href="#f2_a" transform="matrix(11,0,0,11,451.8,651)" />
<use xlink:href="#f2_m" transform="matrix(11,0,0,11,460.2,651)" />
<use xlink:href="#f2_5" transform="matrix(11,0,0,11,467.5,651)" />
<use xlink:href="#f2_2" transform="matrix(11,0,0,11,475,651)" />
<use xlink:href="#f2_3" transform="matrix(11,0,0,11,482.4,651)" />
<use xlink:href="#f3_q" transform="matrix(12,0,0,12,378,652.4)" />
<use xlink:href="#f3_3" transform="matrix(12,0,0,12,387.9,652.4)" />
<use xlink:href="#f3_c" transform="matrix(12,0,0,12,398.3,652.4)" />
<use xlink:href="#f3_c" transform="matrix(12,0,0,12,403.3,652.4)" />
<use xlink:href="#f3_7" transform="matrix(12,0,0,12,408.4,652.4)" />
<use xlink:href="#f3_9" transform="matrix(12,0,0,12,412.5,652.4)" />
<use xlink:href="#f3_3" transform="matrix(12,0,0,12,424.4,652.4)" />
<use xlink:href="#f2_a" transform="matrix(11,0,0,11,137.7,651)" />
<use xlink:href="#f2_m" transform="matrix(11,0,0,11,146.1,651)" />
<use xlink:href="#f2_9" transform="matrix(11,0,0,11,153.5,651)" />
<use xlink:href="#f2_5" transform="matrix(11,0,0,11,161,651)" />
<use xlink:href="#f2_8" transform="matrix(11,0,0,11,168.4,651)" />
<use xlink:href="#f2_3" transform="matrix(11,0,0,11,451.8,673.1)" />
<use xlink:href="#f2_2" transform="matrix(11,0,0,11,457.3,673.1)" />
<use xlink:href="#f2_a" transform="matrix(11,0,0,11,464.7,673.1)" />
<use xlink:href="#f2_m" transform="matrix(11,0,0,11,473.1,673.1)" />
<use xlink:href="#f2_5" transform="matrix(11,0,0,11,480.6,673.1)" />
<use xlink:href="#f2_2" transform="matrix(11,0,0,11,488,673.1)" />
<use xlink:href="#f2_3" transform="matrix(11,0,0,11,495.4,673.1)" />
<use xlink:href="#f3_4" transform="matrix(12,0,0,12,324.7,674.5)" />
<use xlink:href="#f3_q" transform="matrix(12,0,0,12,337.6,674.5)" />
<use xlink:href="#f3_g" transform="matrix(12,0,0,12,347.7,674.5)" />
<use xlink:href="#f3_8" transform="matrix(12,0,0,12,359.6,674.5)" />
<use xlink:href="#f3_q" transform="matrix(12,0,0,12,377.9,674.5)" />
<use xlink:href="#f3_3" transform="matrix(12,0,0,12,387.9,674.5)" />
<use xlink:href="#f3_c" transform="matrix(12,0,0,12,398.3,674.5)" />
<use xlink:href="#f3_c" transform="matrix(12,0,0,12,403.3,674.5)" />
<use xlink:href="#f3_7" transform="matrix(12,0,0,12,408.3,674.5)" />
<use xlink:href="#f3_9" transform="matrix(12,0,0,12,412.4,674.5)" />
<use xlink:href="#f3_3" transform="matrix(12,0,0,12,424.3,674.5)" />
<use xlink:href="#f2_3" transform="matrix(11,0,0,11,137.7,673.1)" />
<use xlink:href="#f2_2" transform="matrix(11,0,0,11,143.3,673.1)" />
<use xlink:href="#f2_a" transform="matrix(11,0,0,11,150.7,673.1)" />
<use xlink:href="#f2_m" transform="matrix(11,0,0,11,159.1,673.1)" />
<use xlink:href="#f2_9" transform="matrix(11,0,0,11,166.5,673.1)" />
<use xlink:href="#f2_5" transform="matrix(11,0,0,11,173.9,673.1)" />
<use xlink:href="#f2_8" transform="matrix(11,0,0,11,181.4,673.1)" />
<use xlink:href="#f2_t" transform="matrix(11,0,0,11,451.8,695.3)" />
<use xlink:href="#f2_l" transform="matrix(11,0,0,11,457.3,695.3)" />
<use xlink:href="#f2_8" transform="matrix(11,0,0,11,462,695.3)" />
<use xlink:href="#f2_3" transform="matrix(11,0,0,11,470.4,695.3)" />
<use xlink:href="#f2_2" transform="matrix(11,0,0,11,476,695.3)" />
<use xlink:href="#f2_5" transform="matrix(11,0,0,11,483.3,695.3)" />
<use xlink:href="#f2_2" transform="matrix(11,0,0,11,490.8,695.3)" />
<use xlink:href="#f2_3" transform="matrix(11,0,0,11,498.3,695.3)" />
<use xlink:href="#f3_g" transform="matrix(12,0,0,12,385.8,696.7)" />
<use xlink:href="#f3_c" transform="matrix(12,0,0,12,397.7,696.7)" />
<use xlink:href="#f3_a" transform="matrix(12,0,0,12,402.6,696.7)" />
<use xlink:href="#f3_m" transform="matrix(12,0,0,12,413,696.7)" />
<use xlink:href="#f3_3" transform="matrix(12,0,0,12,424.4,696.7)" />
<use xlink:href="#f2_t" transform="matrix(11,0,0,11,137.7,695.3)" />
<use xlink:href="#f2_l" transform="matrix(11,0,0,11,143.3,695.3)" />
<use xlink:href="#f2_8" transform="matrix(11,0,0,11,148,695.3)" />
<use xlink:href="#f2_3" transform="matrix(11,0,0,11,156.3,695.3)" />
<use xlink:href="#f2_2" transform="matrix(11,0,0,11,161.9,695.3)" />
<use xlink:href="#f2_9" transform="matrix(11,0,0,11,169.3,695.3)" />
<use xlink:href="#f2_5" transform="matrix(11,0,0,11,176.8,695.3)" />
<use xlink:href="#f2_8" transform="matrix(11,0,0,11,184.3,695.3)" />
</g>
<g fill="#0000FF" >
<use xlink:href="#f3_p" transform="matrix(12,0,0,12,669.9,718.8)" />
<use xlink:href="#f3_a" transform="matrix(12,0,0,12,682.9,718.8)" />
<use xlink:href="#f3_m" transform="matrix(12,0,0,12,693.1,718.8)" />
<use xlink:href="#f3_3" transform="matrix(12,0,0,12,704.6,718.8)" />
<use xlink:href="#f3_9" transform="matrix(12,0,0,12,720.9,718.8)" />
<use xlink:href="#f3_a" transform="matrix(12,0,0,12,732.8,718.8)" />
<use xlink:href="#f3_o" transform="matrix(12,0,0,12,743.2,718.8)" />
<use xlink:href="#f3_g" transform="matrix(12,0,0,12,749.6,718.8)" />
<use xlink:href="#f3_f" transform="matrix(12,0,0,12,761.5,718.8)" />
</g>
</g>
<path d="M669.8,720.7H772.1" class="g2_18" />
<g clip-path="url(#c0_18)">
<g fill="#000000" >
<use xlink:href="#f1_n" transform="matrix(12,0,0,12,723.8,778.9)" />
<use xlink:href="#f1_d" transform="matrix(12,0,0,12,735,778.9)" />
<use xlink:href="#f1_o" transform="matrix(12,0,0,12,740.3,778.9)" />
<use xlink:href="#f1_4" transform="matrix(12,0,0,12,748.6,778.9)" />
<use xlink:href="#f1_p" transform="matrix(12,0,0,12,759.6,778.9)" />
<use xlink:href="#f1_s" transform="matrix(12,0,0,12,704.6,778.9)" />
</g>
</g>
<path d="M236.9,783.5H837M128.6,805.7H837M128.6,825.8H837M128.6,845.9H837M128.6,866H837M128.6,886H837M128.6,906.2H837M128.9,805.3V906.6M237.3,805.3V906.6m0,-123.5v23m227.3,-.8V906.6m.2,-123.5v23m194.7,-23V906.6M836.6,783.1V906.6" class="g1_18" />
<g clip-path="url(#c0_18)">
<g fill="#000000" >
<use xlink:href="#f3_q" transform="matrix(12,0,0,12,784.5,801)" />
<use xlink:href="#f3_7" transform="matrix(12,0,0,12,794.6,801)" />
<use xlink:href="#f3_k" transform="matrix(12,0,0,12,798.7,801)" />
<use xlink:href="#f3_9" transform="matrix(12,0,0,12,806.2,801)" />
<use xlink:href="#f3_3" transform="matrix(12,0,0,12,818.1,801)" />
<use xlink:href="#f2_e" transform="matrix(11,0,0,11,668.4,799.6)" />
<use xlink:href="#f2_2" transform="matrix(11,0,0,11,676.8,799.6)" />
<use xlink:href="#f2_5" transform="matrix(11,0,0,11,684.1,799.6)" />
<use xlink:href="#f2_4" transform="matrix(11,0,0,11,691.6,799.6)" />
<use xlink:href="#f2_3" transform="matrix(11,0,0,11,696.3,799.6)" />
<use xlink:href="#f3_6" transform="matrix(12,0,0,12,611.9,801)" />
<use xlink:href="#f3_7" transform="matrix(12,0,0,12,623.9,801)" />
<use xlink:href="#f3_4" transform="matrix(12,0,0,12,628,801)" />
<use xlink:href="#f3_3" transform="matrix(12,0,0,12,641,801)" />
<use xlink:href="#f2_u" transform="matrix(11,0,0,11,473.5,799.6)" />
<use xlink:href="#f2_8" transform="matrix(11,0,0,11,481.9,799.6)" />
<use xlink:href="#f2_a" transform="matrix(11,0,0,11,490.3,799.6)" />
<use xlink:href="#f2_2" transform="matrix(11,0,0,11,498.7,799.6)" />
<use xlink:href="#f2_3" transform="matrix(11,0,0,11,506.1,799.6)" />
<use xlink:href="#f3_d" transform="matrix(12,0,0,12,418.3,801)" />
<use xlink:href="#f3_c" transform="matrix(12,0,0,12,430.5,801)" />
<use xlink:href="#f3_f" transform="matrix(12,0,0,12,435.6,801)" />
<use xlink:href="#f3_3" transform="matrix(12,0,0,12,446.1,801)" />
<use xlink:href="#f2_s" transform="matrix(11,0,0,11,246.1,799.6)" />
<use xlink:href="#f2_2" transform="matrix(11,0,0,11,254.5,799.6)" />
<use xlink:href="#f2_a" transform="matrix(11,0,0,11,262,799.6)" />
<use xlink:href="#f2_4" transform="matrix(11,0,0,11,270.2,799.6)" />
<use xlink:href="#f2_3" transform="matrix(11,0,0,11,275,799.6)" />
<use xlink:href="#f2_e" transform="matrix(11,0,0,11,668.4,821.8)" />
<use xlink:href="#f2_4" transform="matrix(11,0,0,11,676.7,821.8)" />
<use xlink:href="#f2_w" transform="matrix(11,0,0,11,681.4,821.8)" />
<use xlink:href="#f2_8" transform="matrix(11,0,0,11,689.8,821.8)" />
<use xlink:href="#f2_u" transform="matrix(11,0,0,11,473.5,821.8)" />
<use xlink:href="#f2_8" transform="matrix(11,0,0,11,481.9,821.8)" />
<use xlink:href="#f2_a" transform="matrix(11,0,0,11,490.3,821.8)" />
<use xlink:href="#f2_w" transform="matrix(11,0,0,11,498.7,821.8)" />
<use xlink:href="#f2_8" transform="matrix(11,0,0,11,507.1,821.8)" />
<use xlink:href="#f2_s" transform="matrix(11,0,0,11,246,821.8)" />
<use xlink:href="#f2_2" transform="matrix(11,0,0,11,254.4,821.8)" />
<use xlink:href="#f2_a" transform="matrix(11,0,0,11,261.8,821.8)" />
<use xlink:href="#f2_w" transform="matrix(11,0,0,11,270.2,821.8)" />
<use xlink:href="#f2_8" transform="matrix(11,0,0,11,278.6,821.8)" />
<use xlink:href="#f2_7" transform="matrix(11,0,0,11,137.7,821.8)" />
<use xlink:href="#f2_8" transform="matrix(11,0,0,11,146.1,821.8)" />
<use xlink:href="#f2_e" transform="matrix(11,0,0,11,668.4,841.8)" />
<use xlink:href="#f2_4" transform="matrix(11,0,0,11,676.7,841.8)" />
<use xlink:href="#f2_5" transform="matrix(11,0,0,11,681.4,841.8)" />
<use xlink:href="#f2_2" transform="matrix(11,0,0,11,688.8,841.8)" />
<use xlink:href="#f2_g" transform="matrix(11,0,0,11,696.3,841.8)" />
<use xlink:href="#f2_u" transform="matrix(11,0,0,11,473.5,841.8)" />
<use xlink:href="#f2_8" transform="matrix(11,0,0,11,481.9,841.8)" />
<use xlink:href="#f2_a" transform="matrix(11,0,0,11,490.3,841.8)" />
<use xlink:href="#f2_2" transform="matrix(11,0,0,11,498.7,841.8)" />
<use xlink:href="#f2_g" transform="matrix(11,0,0,11,506,841.8)" />
<use xlink:href="#f2_s" transform="matrix(11,0,0,11,246,841.8)" />
<use xlink:href="#f2_4" transform="matrix(11,0,0,11,254.4,841.8)" />
<use xlink:href="#f2_2" transform="matrix(11,0,0,11,259.1,841.8)" />
<use xlink:href="#f2_a" transform="matrix(11,0,0,11,266.6,841.8)" />
<use xlink:href="#f2_2" transform="matrix(11,0,0,11,275,841.8)" />
<use xlink:href="#f2_g" transform="matrix(11,0,0,11,282.3,841.8)" />
<use xlink:href="#f2_h" transform="matrix(11,0,0,11,137.7,841.8)" />
<use xlink:href="#f2_i" transform="matrix(11,0,0,11,142.4,841.8)" />
<use xlink:href="#f2_e" transform="matrix(11,0,0,11,668.4,862)" />
<use xlink:href="#f2_4" transform="matrix(11,0,0,11,676.7,862)" />
<use xlink:href="#f2_5" transform="matrix(11,0,0,11,681.4,862)" />
<use xlink:href="#f2_2" transform="matrix(11,0,0,11,688.8,862)" />
<use xlink:href="#f2_u" transform="matrix(11,0,0,11,473.5,862)" />
<use xlink:href="#f2_8" transform="matrix(11,0,0,11,481.9,862)" />
<use xlink:href="#f2_a" transform="matrix(11,0,0,11,490.3,862)" />
<use xlink:href="#f2_2" transform="matrix(11,0,0,11,498.7,862)" />
<use xlink:href="#f2_s" transform="matrix(11,0,0,11,246,862)" />
<use xlink:href="#f2_4" transform="matrix(11,0,0,11,254.4,862)" />
<use xlink:href="#f2_2" transform="matrix(11,0,0,11,259.1,862)" />
<use xlink:href="#f2_a" transform="matrix(11,0,0,11,266.6,862)" />
<use xlink:href="#f2_2" transform="matrix(11,0,0,11,275,862)" />
<use xlink:href="#f2_k" transform="matrix(11,0,0,11,137.7,862)" />
<use xlink:href="#f2_l" transform="matrix(11,0,0,11,145.1,862)" />
<use xlink:href="#f2_6" transform="matrix(11,0,0,11,149.7,862)" />
<use xlink:href="#f2_2" transform="matrix(11,0,0,11,154.4,862)" />
<use xlink:href="#f2_l" transform="matrix(11,0,0,11,161.9,862)" />
<use xlink:href="#f2_l" transform="matrix(11,0,0,11,166.5,862)" />
<use xlink:href="#f2_m" transform="matrix(11,0,0,11,171.2,862)" />
<use xlink:href="#f2_6" transform="matrix(11,0,0,11,178.7,862)" />
<use xlink:href="#f2_n" transform="matrix(11,0,0,11,183.4,862)" />
<use xlink:href="#f2_e" transform="matrix(11,0,0,11,195.4,862)" />
<use xlink:href="#f2_o" transform="matrix(11,0,0,11,203.8,862)" />
<use xlink:href="#f2_e" transform="matrix(11,0,0,11,668.4,882)" />
<use xlink:href="#f2_2" transform="matrix(11,0,0,11,676.8,882)" />
<use xlink:href="#f2_5" transform="matrix(11,0,0,11,684.1,882)" />
<use xlink:href="#f2_4" transform="matrix(11,0,0,11,691.6,882)" />
<use xlink:href="#f2_p" transform="matrix(11,0,0,11,696.3,882)" />
<use xlink:href="#f2_8" transform="matrix(11,0,0,11,709.4,882)" />
<use xlink:href="#f2_g" transform="matrix(11,0,0,11,717.7,882)" />
<use xlink:href="#f2_u" transform="matrix(11,0,0,11,473.5,882)" />
<use xlink:href="#f2_8" transform="matrix(11,0,0,11,481.9,882)" />
<use xlink:href="#f2_a" transform="matrix(11,0,0,11,490.3,882)" />
<use xlink:href="#f2_2" transform="matrix(11,0,0,11,498.7,882)" />
<use xlink:href="#f2_p" transform="matrix(11,0,0,11,506,882)" />
<use xlink:href="#f2_8" transform="matrix(11,0,0,11,519.1,882)" />
<use xlink:href="#f2_g" transform="matrix(11,0,0,11,527.5,882)" />
<use xlink:href="#f2_s" transform="matrix(11,0,0,11,246,882)" />
<use xlink:href="#f2_2" transform="matrix(11,0,0,11,254.4,882)" />
<use xlink:href="#f2_a" transform="matrix(11,0,0,11,261.8,882)" />
<use xlink:href="#f2_4" transform="matrix(11,0,0,11,270.2,882)" />
<use xlink:href="#f2_p" transform="matrix(11,0,0,11,274.8,882)" />
<use xlink:href="#f2_8" transform="matrix(11,0,0,11,288,882)" />
<use xlink:href="#f2_g" transform="matrix(11,0,0,11,296.4,882)" />
<use xlink:href="#f2_a" transform="matrix(11,0,0,11,137.7,882)" />
<use xlink:href="#f2_8" transform="matrix(11,0,0,11,146.1,882)" />
<use xlink:href="#f2_g" transform="matrix(11,0,0,11,154.5,882)" />
<use xlink:href="#f2_8" transform="matrix(11,0,0,11,161,882)" />
<use xlink:href="#f2_h" transform="matrix(11,0,0,11,169.4,882)" />
<use xlink:href="#f2_3" transform="matrix(11,0,0,11,174,882)" />
<use xlink:href="#f2_8" transform="matrix(11,0,0,11,179.6,882)" />
<use xlink:href="#f2_g" transform="matrix(11,0,0,11,188,882)" />
<use xlink:href="#f2_6" transform="matrix(11,0,0,11,194.6,882)" />
<use xlink:href="#f2_m" transform="matrix(11,0,0,11,199.3,882)" />
<use xlink:href="#f2_g" transform="matrix(11,0,0,11,206.6,882)" />
<use xlink:href="#f2_e" transform="matrix(11,0,0,11,668.4,902.2)" />
<use xlink:href="#f2_4" transform="matrix(11,0,0,11,676.7,902.2)" />
<use xlink:href="#f2_5" transform="matrix(11,0,0,11,681.4,902.2)" />
<use xlink:href="#f2_2" transform="matrix(11,0,0,11,688.8,902.2)" />
<use xlink:href="#f2_a" transform="matrix(11,0,0,11,696.3,902.2)" />
<use xlink:href="#f2_u" transform="matrix(11,0,0,11,473.5,902.2)" />
<use xlink:href="#f2_8" transform="matrix(11,0,0,11,481.9,902.2)" />
<use xlink:href="#f2_a" transform="matrix(11,0,0,11,490.3,902.2)" />
<use xlink:href="#f2_2" transform="matrix(11,0,0,11,498.7,902.2)" />
<use xlink:href="#f2_a" transform="matrix(11,0,0,11,506.1,902.2)" />
<use xlink:href="#f2_s" transform="matrix(11,0,0,11,246,902.2)" />
<use xlink:href="#f2_4" transform="matrix(11,0,0,11,254.4,902.2)" />
<use xlink:href="#f2_2" transform="matrix(11,0,0,11,259.1,902.2)" />
<use xlink:href="#f2_a" transform="matrix(11,0,0,11,266.6,902.2)" />
<use xlink:href="#f2_2" transform="matrix(11,0,0,11,275,902.2)" />
<use xlink:href="#f2_a" transform="matrix(11,0,0,11,282.4,902.2)" />
<use xlink:href="#f2_2" transform="matrix(11,0,0,11,137.7,902.2)" />
<use xlink:href="#f2_l" transform="matrix(11,0,0,11,145.1,902.2)" />
<use xlink:href="#f2_l" transform="matrix(11,0,0,11,149.7,902.2)" />
<use xlink:href="#f2_8" transform="matrix(11,0,0,11,154.4,902.2)" />
<use xlink:href="#f2_g" transform="matrix(11,0,0,11,162.8,902.2)" />
<use xlink:href="#f2_6" transform="matrix(11,0,0,11,169.4,902.2)" />
<use xlink:href="#f2_m" transform="matrix(11,0,0,11,174.1,902.2)" />
<use xlink:href="#f2_g" transform="matrix(11,0,0,11,181.4,902.2)" />
<use xlink:href="#f2_6" transform="matrix(11,0,0,11,188,902.2)" />
<use xlink:href="#f2_n" transform="matrix(11,0,0,11,192.7,902.2)" />
<use xlink:href="#f2_e" transform="matrix(11,0,0,11,204.8,902.2)" />
<use xlink:href="#f2_g" transform="matrix(11,0,0,11,213.2,902.2)" />
<use xlink:href="#f2_o" transform="matrix(11,0,0,11,219.7,902.2)" />
</g>
<g fill="#0000FF" >
<use xlink:href="#f3_p" transform="matrix(12,0,0,12,669.9,923.5)" />
<use xlink:href="#f3_a" transform="matrix(12,0,0,12,682.9,923.5)" />
<use xlink:href="#f3_m" transform="matrix(12,0,0,12,693.1,923.5)" />
<use xlink:href="#f3_3" transform="matrix(12,0,0,12,704.6,923.5)" />
<use xlink:href="#f3_9" transform="matrix(12,0,0,12,720.9,923.5)" />
<use xlink:href="#f3_a" transform="matrix(12,0,0,12,732.8,923.5)" />
<use xlink:href="#f3_o" transform="matrix(12,0,0,12,743.2,923.5)" />
<use xlink:href="#f3_g" transform="matrix(12,0,0,12,749.6,923.5)" />
<use xlink:href="#f3_f" transform="matrix(12,0,0,12,761.5,923.5)" />
</g>
</g>
<path d="M669.8,925.4H772.1" class="g2_18" />
<g clip-path="url(#c0_18)">
<g fill="#000000" >
<use xlink:href="#f1_n" transform="matrix(12,0,0,12,723.8,1003)" />
<use xlink:href="#f1_d" transform="matrix(12,0,0,12,735,1003)" />
<use xlink:href="#f1_o" transform="matrix(12,0,0,12,740.3,1003)" />
<use xlink:href="#f1_4" transform="matrix(12,0,0,12,748.6,1003)" />
<use xlink:href="#f1_p" transform="matrix(12,0,0,12,759.6,1003)" />
<use xlink:href="#f1_t" transform="matrix(12,0,0,12,704.6,1003)" />
</g>
</g>
<path d="M128.6,1007.6H562.3m-433.7,22.2H562.3m-433.7,43.5H562.3m-433.7,22.2H562.3m-433.7,22.1H562.3m-433.7,22.2H562.3M128.6,1162H562.3M128.9,1007.3v155M248,1007.3v155m119.1,-155v155m194.8,-155v155" class="g1_18" />
<g clip-path="url(#c0_18)">
<g fill="#000000" >
<use xlink:href="#f3_6" transform="matrix(12,0,0,12,506.8,1025.1)" />
<use xlink:href="#f3_c" transform="matrix(12,0,0,12,519,1025.1)" />
<use xlink:href="#f3_k" transform="matrix(12,0,0,12,524,1025.1)" />
<use xlink:href="#f3_a" transform="matrix(12,0,0,12,531.5,1025.1)" />
<use xlink:href="#f3_e" transform="matrix(12,0,0,12,541.7,1025.1)" />
<use xlink:href="#f2_7" transform="matrix(11,0,0,11,256.8,1023.8)" />
<use xlink:href="#f2_8" transform="matrix(11,0,0,11,265.2,1023.8)" />
<use xlink:href="#f3_3" transform="matrix(12,0,0,12,189.6,1025.1)" />
<use xlink:href="#f3_l" transform="matrix(12,0,0,12,200,1025.1)" />
<use xlink:href="#f3_c" transform="matrix(12,0,0,12,211.5,1025.1)" />
<use xlink:href="#f3_m" transform="matrix(12,0,0,12,216.5,1025.1)" />
<use xlink:href="#f3_9" transform="matrix(12,0,0,12,227.9,1025.1)" />
<use xlink:href="#f3_2" transform="matrix(12,0,0,12,375.8,1047.3)" />
<use xlink:href="#f3_a" transform="matrix(12,0,0,12,385.6,1047.3)" />
<use xlink:href="#f3_l" transform="matrix(12,0,0,12,396,1047.3)" />
<use xlink:href="#f3_3" transform="matrix(12,0,0,12,442.7,1047.3)" />
<use xlink:href="#f3_l" transform="matrix(12,0,0,12,453.1,1047.3)" />
<use xlink:href="#f3_f" transform="matrix(12,0,0,12,464.5,1047.3)" />
<use xlink:href="#f3_e" transform="matrix(12,0,0,12,510.2,1047.3)" />
<use xlink:href="#f3_c" transform="matrix(12,0,0,12,522.2,1047.3)" />
<use xlink:href="#f3_7" transform="matrix(12,0,0,12,527.3,1047.3)" />
<use xlink:href="#f3_9" transform="matrix(12,0,0,12,531.4,1047.3)" />
<use xlink:href="#f3_3" transform="matrix(12,0,0,12,543.3,1047.3)" />
<use xlink:href="#f3_x" transform="matrix(12,0,0,12,490.3,1068.7)" />
<use xlink:href="#f3_e" transform="matrix(12,0,0,12,497.3,1068.7)" />
<use xlink:href="#f3_c" transform="matrix(12,0,0,12,509.3,1068.7)" />
<use xlink:href="#f3_3" transform="matrix(12,0,0,12,514.4,1068.7)" />
<use xlink:href="#f3_l" transform="matrix(12,0,0,12,524.7,1068.7)" />
<use xlink:href="#f3_3" transform="matrix(12,0,0,12,536.2,1068.7)" />
<use xlink:href="#f3_v" transform="matrix(12,0,0,12,546.6,1068.7)" />
<use xlink:href="#f2_s" transform="matrix(11,0,0,11,256.8,1045.9)" />
<use xlink:href="#f2_m" transform="matrix(11,0,0,11,265.2,1045.9)" />
<use xlink:href="#f2_l" transform="matrix(11,0,0,11,272.5,1045.9)" />
<use xlink:href="#f2_w" transform="matrix(11,0,0,11,277.3,1045.9)" />
<use xlink:href="#f2_8" transform="matrix(11,0,0,11,285.7,1045.9)" />
<use xlink:href="#f2_s" transform="matrix(11,0,0,11,137.7,1045.9)" />
<use xlink:href="#f2_m" transform="matrix(11,0,0,11,146.1,1045.9)" />
<use xlink:href="#f2_l" transform="matrix(11,0,0,11,153.5,1045.9)" />
<use xlink:href="#f2_2" transform="matrix(11,0,0,11,158.2,1045.9)" />
<use xlink:href="#f2_3" transform="matrix(11,0,0,11,165.6,1045.9)" />
<use xlink:href="#f3_6" transform="matrix(12,0,0,12,501.3,1090.8)" />
<use xlink:href="#f3_k" transform="matrix(12,0,0,12,513.5,1090.8)" />
<use xlink:href="#f3_a" transform="matrix(12,0,0,12,521,1090.8)" />
<use xlink:href="#f3_e" transform="matrix(12,0,0,12,531.3,1090.8)" />
<use xlink:href="#f3_3" transform="matrix(12,0,0,12,543.4,1090.8)" />
<use xlink:href="#f2_h" transform="matrix(11,0,0,11,256.8,1089.5)" />
<use xlink:href="#f2_3" transform="matrix(11,0,0,11,261.4,1089.5)" />
<use xlink:href="#f2_m" transform="matrix(11,0,0,11,267,1089.5)" />
<use xlink:href="#f2_e" transform="matrix(11,0,0,11,274.5,1089.5)" />
<use xlink:href="#f2_f" transform="matrix(11,0,0,11,282.9,1089.5)" />
<use xlink:href="#f2_9" transform="matrix(11,0,0,11,291.3,1089.5)" />
<use xlink:href="#f2_5" transform="matrix(11,0,0,11,298.8,1089.5)" />
<use xlink:href="#f2_8" transform="matrix(11,0,0,11,306.2,1089.5)" />
<use xlink:href="#f2_h" transform="matrix(11,0,0,11,137.7,1089.5)" />
<use xlink:href="#f2_3" transform="matrix(11,0,0,11,142.4,1089.5)" />
<use xlink:href="#f2_m" transform="matrix(11,0,0,11,147.9,1089.5)" />
<use xlink:href="#f2_e" transform="matrix(11,0,0,11,155.3,1089.5)" />
<use xlink:href="#f2_f" transform="matrix(11,0,0,11,163.7,1089.5)" />
<use xlink:href="#f2_5" transform="matrix(11,0,0,11,172.1,1089.5)" />
<use xlink:href="#f2_4" transform="matrix(11,0,0,11,179.6,1089.5)" />
<use xlink:href="#f2_3" transform="matrix(11,0,0,11,184.2,1089.5)" />
<use xlink:href="#f3_d" transform="matrix(12,0,0,12,515.6,1113)" />
<use xlink:href="#f3_c" transform="matrix(12,0,0,12,527.9,1113)" />
<use xlink:href="#f3_f" transform="matrix(12,0,0,12,532.9,1113)" />
<use xlink:href="#f3_3" transform="matrix(12,0,0,12,543.4,1113)" />
<use xlink:href="#f2_s" transform="matrix(11,0,0,11,256.8,1111.6)" />
<use xlink:href="#f2_2" transform="matrix(11,0,0,11,265.2,1111.6)" />
<use xlink:href="#f2_a" transform="matrix(11,0,0,11,272.7,1111.6)" />
<use xlink:href="#f2_w" transform="matrix(11,0,0,11,281.1,1111.6)" />
<use xlink:href="#f2_8" transform="matrix(11,0,0,11,289.5,1111.6)" />
<use xlink:href="#f2_s" transform="matrix(11,0,0,11,137.7,1111.6)" />
<use xlink:href="#f2_2" transform="matrix(11,0,0,11,146.1,1111.6)" />
<use xlink:href="#f2_a" transform="matrix(11,0,0,11,153.5,1111.6)" />
<use xlink:href="#f2_4" transform="matrix(11,0,0,11,161.9,1111.6)" />
<use xlink:href="#f2_3" transform="matrix(11,0,0,11,166.5,1111.6)" />
<use xlink:href="#f3_e" transform="matrix(12,0,0,12,508.1,1135.1)" />
<use xlink:href="#f3_c" transform="matrix(12,0,0,12,520.1,1135.1)" />
<use xlink:href="#f3_9" transform="matrix(12,0,0,12,525.1,1135.1)" />
<use xlink:href="#f3_o" transform="matrix(12,0,0,12,537,1135.1)" />
<use xlink:href="#f3_3" transform="matrix(12,0,0,12,543.4,1135.1)" />
<use xlink:href="#f2_3" transform="matrix(11,0,0,11,256.8,1133.8)" />
<use xlink:href="#f2_2" transform="matrix(11,0,0,11,262.3,1133.8)" />
<use xlink:href="#f2_5" transform="matrix(11,0,0,11,269.8,1133.8)" />
<use xlink:href="#f2_8" transform="matrix(11,0,0,11,277.2,1133.8)" />
<use xlink:href="#f2_a" transform="matrix(11,0,0,11,285.6,1133.8)" />
<use xlink:href="#f2_8" transform="matrix(11,0,0,11,294,1133.8)" />
<use xlink:href="#f2_9" transform="matrix(11,0,0,11,302.4,1133.8)" />
<use xlink:href="#f2_5" transform="matrix(11,0,0,11,309.9,1133.8)" />
<use xlink:href="#f2_8" transform="matrix(11,0,0,11,317.4,1133.8)" />
<use xlink:href="#f2_3" transform="matrix(11,0,0,11,137.7,1133.8)" />
<use xlink:href="#f2_2" transform="matrix(11,0,0,11,143.3,1133.8)" />
<use xlink:href="#f2_5" transform="matrix(11,0,0,11,150.7,1133.8)" />
<use xlink:href="#f2_8" transform="matrix(11,0,0,11,158.2,1133.8)" />
<use xlink:href="#f2_a" transform="matrix(11,0,0,11,166.6,1133.8)" />
<use xlink:href="#f2_8" transform="matrix(11,0,0,11,175,1133.8)" />
<use xlink:href="#f2_5" transform="matrix(11,0,0,11,183.3,1133.8)" />
<use xlink:href="#f2_2" transform="matrix(11,0,0,11,190.7,1133.8)" />
<use xlink:href="#f2_3" transform="matrix(11,0,0,11,198.2,1133.8)" />
<use xlink:href="#f3_7" transform="matrix(12,0,0,12,379,1157.3)" />
<use xlink:href="#f3_d" transform="matrix(12,0,0,12,383.1,1157.3)" />
<use xlink:href="#f3_i" transform="matrix(12,0,0,12,395.4,1157.3)" />
<use xlink:href="#f3_o" transform="matrix(12,0,0,12,405,1157.3)" />
<use xlink:href="#f3_e" transform="matrix(12,0,0,12,417.2,1157.3)" />
<use xlink:href="#f3_c" transform="matrix(12,0,0,12,429.3,1157.3)" />
<use xlink:href="#f3_7" transform="matrix(12,0,0,12,434.3,1157.3)" />
<use xlink:href="#f3_9" transform="matrix(12,0,0,12,438.4,1157.3)" />
<use xlink:href="#f3_3" transform="matrix(12,0,0,12,450.3,1157.3)" />
<use xlink:href="#f3_r" transform="matrix(12,0,0,12,466.6,1157.3)" />
<use xlink:href="#f3_7" transform="matrix(12,0,0,12,472.7,1157.3)" />
<use xlink:href="#f3_c" transform="matrix(12,0,0,12,476.7,1157.3)" />
<use xlink:href="#f3_d" transform="matrix(12,0,0,12,481.7,1157.3)" />
<use xlink:href="#f3_a" transform="matrix(12,0,0,12,494,1157.3)" />
<use xlink:href="#f3_e" transform="matrix(12,0,0,12,510.2,1157.3)" />
<use xlink:href="#f3_c" transform="matrix(12,0,0,12,522.2,1157.3)" />
<use xlink:href="#f3_7" transform="matrix(12,0,0,12,527.2,1157.3)" />
<use xlink:href="#f3_9" transform="matrix(12,0,0,12,531.3,1157.3)" />
<use xlink:href="#f3_3" transform="matrix(12,0,0,12,543.3,1157.3)" />
<use xlink:href="#f2_p" transform="matrix(11,0,0,11,256.8,1155.9)" />
<use xlink:href="#f2_2" transform="matrix(11,0,0,11,269.8,1155.9)" />
<use xlink:href="#f2_3" transform="matrix(11,0,0,11,277.3,1155.9)" />
<use xlink:href="#f2_2" transform="matrix(11,0,0,11,282.9,1155.9)" />
<use xlink:href="#f2_9" transform="matrix(11,0,0,11,290.4,1155.9)" />
<use xlink:href="#f2_5" transform="matrix(11,0,0,11,297.7,1155.9)" />
<use xlink:href="#f2_8" transform="matrix(11,0,0,11,305.2,1155.9)" />
<use xlink:href="#f2_p" transform="matrix(11,0,0,11,137.7,1155.9)" />
<use xlink:href="#f2_2" transform="matrix(11,0,0,11,150.8,1155.9)" />
<use xlink:href="#f2_3" transform="matrix(11,0,0,11,158.1,1155.9)" />
<use xlink:href="#f2_2" transform="matrix(11,0,0,11,163.7,1155.9)" />
<use xlink:href="#f2_5" transform="matrix(11,0,0,11,171.2,1155.9)" />
<use xlink:href="#f2_2" transform="matrix(11,0,0,11,178.7,1155.9)" />
<use xlink:href="#f2_3" transform="matrix(11,0,0,11,186.1,1155.9)" />
</g>
</g>
<defs>
<path d="M721,-14c0,0,-12,0,-12,9l4,28c0,0,17,82,17,338c0,0,0,105,-11,163c0,0,-11,58,-35,84c0,0,-25,26,-83,26H315c0,0,-43,-39,-67,-90c0,0,-25,-51,-25,-104c0,0,0,-59,17,-104c0,0,17,-45,35,-78c0,0,18,-34,18,-44c0,0,0,-26,-20,-95C273,119,252,50,231,0H26L87,214h69c0,0,23,0,23,14l-7,15c0,0,-15,27,-27,68c0,0,-11,41,-11,83c0,0,0,68,25,124c0,0,25,57,86,116H200c0,0,-45,0,-71,32c0,0,-27,33,-27,94c0,0,0,49,17,93c0,0,16,43,32,43c0,0,17,0,17,-10V869c0,0,0,-24,27,-24H637c0,0,73,0,103,-18c0,0,30,-17,46,-62c0,0,17,-46,24,-124c0,0,8,-78,8,-214V338c0,0,0,-279,-27,-311c0,0,-14,-16,-37,-28c0,0,-23,-13,-33,-13Z" 
id="f0_b"
transform="scale(0.001,-0.001)" />

<path d="M204,-8c0,0,-9,0,-11,5c0,0,-2,5,-2,22V549c0,0,0,40,-4,56c0,0,-4,16,-15,22c0,0,-10,7,-39,7H90c0,0,-33,0,-52,33c0,0,-19,33,-19,90c0,0,0,53,15,98c0,0,16,44,35,44c0,0,12,0,12,-13V872c0,0,0,-27,31,-27h42c0,0,79,0,103,-20c0,0,23,-19,23,-83V67c0,0,0,-16,-8,-26c0,0,-9,-10,-33,-30c0,0,-25,-19,-35,-19Z" 
id="f0_e"
transform="scale(0.001,-0.001)" />

<path d="M20,0L75,212H492c0,0,19,51,25,97c0,0,5,46,5,105c0,0,0,63,-6,124c0,0,-6,61,-23,78c0,0,-16,18,-66,18H112c0,0,-36,0,-57,40c0,0,-21,40,-21,101c0,0,0,50,16,87c0,0,16,36,36,36c0,0,13,0,13,-14V870c0,0,0,-25,34,-25H457c0,0,63,0,92,-11c0,0,28,-10,41,-36c0,0,13,-26,18,-107c0,0,4,-80,4,-174c0,0,0,-174,-13,-224c0,0,-4,-15,-21,-41c0,0,-17,-25,-31,-40H688L640,0Z" 
id="f0_i"
transform="scale(0.001,-0.001)" />

<path d="M216,0c0,0,-59,212,-83,350c0,0,-25,139,-25,198c0,0,0,76,23,127c0,0,-42,13,-58,43c0,0,-15,30,-15,72c0,0,0,40,20,74c0,0,20,34,37,34c0,0,10,0,10,-13c0,0,0,-42,69,-42c0,0,57,0,80,-21c0,0,22,-21,22,-62c0,0,0,-38,-7,-72c0,0,-6,-34,-12,-34c0,0,-6,0,-16,10c0,0,-10,10,-25,10c0,0,-25,0,-35,-24c0,0,-10,-24,-10,-71c0,0,0,-164,72,-374c0,0,38,80,116,231c0,0,87,168,121,238c0,0,-36,6,-52,34c0,0,-17,28,-17,66c0,0,0,41,21,82c0,0,20,42,37,42c0,0,9,0,10,-7c0,0,5,-22,13,-32c0,0,9,-11,32,-12l44,-4c0,0,87,-4,87,-94c0,0,0,-33,-7,-67c0,0,-8,-34,-16,-34l-16,10c0,0,-15,10,-30,10c0,0,-22,0,-39,-29c0,0,-18,-32,-39,-72c0,0,-21,-41,-178,-355H691l38,91c0,0,58,139,124,224c0,0,38,50,60,80c0,0,22,29,22,45c0,0,0,12,-7,19c0,0,-6,7,-27,12c0,0,-42,18,-60,41c0,0,-17,24,-17,59c0,0,0,29,11,56c0,0,12,27,27,43c0,0,16,16,26,16c0,0,9,-1,10,-6l4,-14c0,0,4,-21,27,-25l70,-13c0,0,32,-6,51,-30c0,0,20,-24,20,-61c0,0,-2,-45,-23,-87c0,0,-21,-41,-91,-127c0,0,-46,-57,-77,-116c0,0,-31,-59,-71,-161L706,0Z" 
id="f0_5"
transform="scale(0.001,-0.001)" />

<path d="M248,0L521,658H66v429H313V836l493,-1V716L504,0Z" 
id="f1_n"
transform="scale(0.001,-0.001)" />

<path d="M102,250V836H349V351L102,250Z" 
id="f1_d"
transform="scale(0.001,-0.001)" />

<path d="M154,-13c0,0,-38,0,-85,9V198c0,0,58,-15,103,-15c0,0,84,0,118,60c0,0,35,61,35,206c0,0,0,66,-7,105c0,0,-6,39,-24,63c0,0,-17,25,-44,33c0,0,-27,8,-73,8H66V836H225c0,0,198,0,275,-115c0,0,56,-84,65,-264c0,0,3,-55,3,-148c0,0,0,-177,71,-309L393,1c0,0,-53,130,-54,141c0,0,-28,-90,-65,-123c0,0,-38,-32,-120,-32Z" 
id="f1_o"
transform="scale(0.001,-0.001)" />

<path d="M534,0V425c0,0,0,109,-41,171c0,0,-41,62,-140,62H66V836H352c0,0,99,0,174,-20c0,0,75,-20,123,-55c0,0,48,-35,78,-87c0,0,30,-53,42,-113c0,0,12,-60,12,-136V0Z" 
id="f1_4"
transform="scale(0.001,-0.001)" />

<path d="M173,-6C173,-6,61,-6,15,9V177c0,0,73,-10,82,-10c0,0,37,0,52,30c0,0,14,29,14,116V658H18V836H516c0,0,262,0,341,-145c0,0,48,-89,48,-242V0H658V450c0,0,0,131,-37,171c0,0,-34,37,-105,37H411V313c0,0,0,-189,-67,-258C344,55,285,-6,173,-6Z" 
id="f1_p"
transform="scale(0.001,-0.001)" />

<path d="M180,0V198H433V918L173,864v196l258,54H705V198H958V0Z" 
id="f1_q"
transform="scale(0.001,-0.001)" />

<path d="M55,0V40L184,60V941L55,960v40H455V960L327,941V60L455,40V0Z" 
id="f2_b"
transform="scale(0.001,-0.001)" />

<path d="M448,506c0,0,134,0,190,49c0,0,57,50,57,168c0,0,0,114,-56,162c0,0,-56,48,-195,48H316V506ZM777,0L496,438H316V60L468,40V0H54V40L172,60V941L44,960v40H476c0,0,188,0,277,-63c0,0,90,-64,90,-204c0,0,0,-100,-54,-173c0,0,-55,-73,-151,-101L909,60L1017,40V0Z" 
id="f2_c"
transform="scale(0.001,-0.001)" />

<path d="M44,0V40L172,60V941L44,960v40H794V760H745L721,922c0,0,-83,11,-241,11H316V543H586l23,119h48V354H609L586,475H316V67H513c0,0,193,0,252,12l43,185h49L843,0Z" 
id="f2_d"
transform="scale(0.001,-0.001)" />

<path d="M736,107V473c0,0,0,147,-48,202c0,0,-49,54,-187,54H278V107ZM139,0V836H499c0,0,105,0,177,-22c0,0,72,-21,116,-69c0,0,44,-49,64,-119c0,0,19,-71,19,-174V0Z" 
id="f3_6"
transform="scale(0.001,-0.001)" />

<path d="M138,-7c0,0,-34,0,-72,10V129c0,0,25,-8,52,-8c0,0,33,0,58,5c0,0,26,5,58,24c0,0,33,20,53,54c0,0,21,34,36,97c0,0,15,64,15,151c0,0,0,113,-19,173c0,0,-19,60,-56,82c0,0,-38,22,-107,22H89V836h72c0,0,165,0,240,-91c0,0,76,-91,76,-293c0,0,0,-107,26,-227c0,0,25,-119,83,-225H437c0,0,-43,101,-62,184c0,0,-24,-60,-51,-99c0,0,-26,-38,-56,-58C268,27,239,7,209,0c0,0,-30,-7,-71,-7Z" 
id="f3_k"
transform="scale(0.001,-0.001)" />

<path d="M585,0V426c0,0,0,54,-8,98c0,0,-8,44,-27,83c0,0,-19,40,-49,66c0,0,-30,26,-77,41c0,0,-47,15,-108,15H66V836H315c0,0,94,0,166,-20c0,0,71,-20,116,-54c0,0,46,-35,75,-88c0,0,28,-52,40,-112c0,0,12,-60,12,-137V0Z" 
id="f3_a"
transform="scale(0.001,-0.001)" />

<path d="M112,-5c0,0,-39,0,-97,11V113c0,0,48,-10,77,-10c0,0,53,0,70,42c0,0,17,43,17,164V729H50V836H501c0,0,107,0,179,-25c0,0,72,-25,112,-77c0,0,40,-51,57,-118c0,0,16,-67,16,-164V0H726V454c0,0,0,55,-3,92c0,0,-4,37,-17,75c0,0,-14,38,-38,59c0,0,-24,22,-65,36c0,0,-42,13,-102,13H318V309c0,0,0,-160,-46,-237C272,72,226,-5,112,-5Z" 
id="f3_e"
transform="scale(0.001,-0.001)" />

<path d="M287,0L589,729H66v386H205V836l547,-1l-2,-82L433,0Z" 
id="f3_3"
transform="scale(0.001,-0.001)" />

<path d="M249,-14c0,0,-71,0,-107,42c0,0,-35,42,-35,119V639H15v33l93,29l76,159h47V701H391V639H231V161c0,0,0,-48,22,-73c0,0,22,-24,57,-24c0,0,44,0,106,12V26C416,26,389,8,340,-2c0,0,-49,-12,-91,-12Z" 
id="f2_h"
transform="scale(0.001,-0.001)" />

<path d="M31,0V33l88,19V649L31,668v33H235l7,-87c0,0,44,37,121,71c0,0,76,35,121,35h11V530H463l-43,82c0,0,-37,0,-88,-10c0,0,-52,-10,-89,-26V52L363,33V0Z" 
id="f2_3"
transform="scale(0.001,-0.001)" />

<path d="M284,67c0,0,51,0,88,12c0,0,37,12,74,30V358l-98,-3c0,0,-100,-4,-135,-39c0,0,-35,-35,-35,-117c0,0,0,-132,106,-132ZM233,-14c0,0,-179,0,-179,208c0,0,0,70,27,116c0,0,27,46,87,70c0,0,60,24,173,27l105,3V519c0,0,0,72,-26,107c0,0,-27,34,-82,34c0,0,-75,0,-137,-35L176,538H134V691c0,0,121,26,213,26c0,0,115,0,169,-47c0,0,54,-47,54,-144V52L657,33V0H465L451,70c0,0,-85,-84,-218,-84Z" 
id="f2_m"
transform="scale(0.001,-0.001)" />

<path d="M383,64c0,0,85,0,152,28V645c0,0,-67,13,-152,13c0,0,-194,0,-194,-314c0,0,0,-141,48,-211c0,0,48,-69,146,-69ZM342,-14c0,0,-287,0,-287,358c0,0,0,184,82,280c0,0,81,96,239,96c0,0,81,0,163,-18c0,0,-4,25,-4,124v182l-118,18v34H659V52L745,33V0H548l-9,52c0,0,-84,-66,-197,-66Z" 
id="f2_e"
transform="scale(0.001,-0.001)" />

<path d="M289,-14c0,0,-179,0,-179,205V649L20,668v33H233V200c0,0,0,-128,120,-128c0,0,92,0,173,23V649L420,668v33H649V52L738,33V0H533l-6,57C527,57,474,28,405,7c0,0,-69,-21,-116,-21Z" 
id="f2_f"
transform="scale(0.001,-0.001)" />

<path d="M399,-14c0,0,-341,0,-341,370c0,0,0,175,87,269c0,0,87,95,249,95c0,0,101,0,220,-23V501H573L541,625c0,0,-62,35,-149,35c0,0,-200,0,-200,-304c0,0,0,-158,61,-225c0,0,61,-67,189,-67c0,0,109,0,189,24V43C631,43,595,16,530,1c0,0,-64,-15,-131,-15Z" 
id="f2_5"
transform="scale(0.001,-0.001)" />

<path d="M34,0V49l76,18V634L38,652v49H325V67L402,49V0ZM217,831c0,0,-48,0,-81,33c0,0,-34,33,-34,82c0,0,0,48,34,81c0,0,34,33,81,33c0,0,48,0,81,-33c0,0,33,-33,33,-81c0,0,0,-47,-33,-81c0,0,-32,-34,-81,-34Z" 
id="f0_n"
transform="scale(0.001,-0.001)" />

<path d="M41,0V49l91,18V634L41,652v49H336l8,-145c0,0,80,89,144,128c0,0,64,40,117,40h40V468H604l-45,94c0,0,-47,0,-106,-21c0,0,-60,-20,-105,-48V67L460,49V0Z" 
id="f0_o"
transform="scale(0.001,-0.001)" />

<path d="M139,0V836H278V0Z" 
id="f3_c"
transform="scale(0.001,-0.001)" />

<path d="M154,0V454l138,56V0ZM722,0V454c0,0,0,161,-49,218c0,0,-48,57,-186,57H139V836H485c0,0,207,0,291,-93c0,0,83,-94,83,-318V0Z" 
id="f3_9"
transform="scale(0.001,-0.001)" />

<path d="M152,0V473c0,0,0,94,28,161c0,0,29,66,71,95H66V836H463V729H404c0,0,-65,0,-89,-57c0,0,-25,-58,-25,-199V0Z" 
id="f3_o"
transform="scale(0.001,-0.001)" />

<path d="M495,413c0,0,0,133,-34,190c0,0,-34,57,-105,57c0,0,-78,0,-119,-63c0,0,-42,-62,-42,-184ZM374,-14c0,0,-163,0,-239,87c0,0,-75,88,-75,283c0,0,0,183,77,273c0,0,76,91,219,91c0,0,269,0,269,-306V353H194V340c0,0,0,-103,23,-160c0,0,22,-57,70,-87c0,0,47,-29,124,-29c0,0,40,0,96,6c0,0,55,7,91,15V43C598,43,562,20,500,3c0,0,-61,-17,-126,-17Z" 
id="f2_2"
transform="scale(0.001,-0.001)" />

<path d="M377,45c0,0,99,0,147,73c0,0,47,73,47,237c0,0,0,161,-47,233c0,0,-47,72,-147,72c0,0,-97,0,-141,-69c0,0,-44,-69,-44,-236c0,0,0,-169,45,-240c0,0,44,-70,140,-70Zm0,-59c0,0,-158,0,-238,94c0,0,-81,95,-81,274c0,0,0,178,81,272c0,0,80,94,244,94c0,0,160,0,241,-92c0,0,82,-92,82,-274c0,0,0,-368,-329,-368Z" 
id="f2_8"
transform="scale(0.001,-0.001)" />

<path d="M439,0V33l93,19V500c0,0,0,62,-30,97c0,0,-31,36,-94,36c0,0,-67,0,-165,-22V52L338,33V0H35V33l84,19V649L35,668v33H235l7,-57c0,0,57,33,122,54c0,0,65,22,108,22c0,0,91,0,137,-53c0,0,47,-53,47,-154V52L741,33V0Z" 
id="f2_a"
transform="scale(0.001,-0.001)" />

<path d="M434,423c0,0,0,101,-7,142c0,0,-6,40,-22,60c0,0,-16,19,-45,19c0,0,-44,0,-66,-48c0,0,-22,-49,-22,-173ZM389,-14c0,0,-172,0,-254,89c0,0,-83,90,-83,279c0,0,0,184,79,274c0,0,79,91,238,91c0,0,142,0,206,-76c0,0,64,-76,64,-237V345H271V333c0,0,0,-111,18,-158c0,0,18,-47,58,-72c0,0,40,-25,110,-25c0,0,66,0,166,22V42C623,42,582,18,517,1c0,0,-66,-15,-128,-15Z" 
id="f0_p"
transform="scale(0.001,-0.001)" />

<path d="M102,312V836H241V369L102,312Z" 
id="f3_7"
transform="scale(0.001,-0.001)" />

<path d="M66,0V106H564L66,836H228L516,413c0,0,3,2,9,6c0,0,17,13,27,21c0,0,10,8,26,27c0,0,17,20,26,40c0,0,9,21,16,54c0,0,7,34,7,75V836H764V698c0,0,0,-55,-7,-102c0,0,-7,-47,-16,-79c0,0,-10,-33,-27,-62c0,0,-18,-29,-32,-46c0,0,-14,-17,-37,-35c0,0,-22,-17,-36,-25c0,0,-13,-8,-36,-20L767,53V0Z" 
id="f3_b"
transform="scale(0.001,-0.001)" />

<path d="M32,0V33L151,52V649L52,668v33H275V52L395,33V0ZM201,850c0,0,-32,0,-56,24c0,0,-24,24,-24,56c0,0,0,34,24,58c0,0,24,24,56,24c0,0,34,0,58,-24c0,0,24,-24,24,-58c0,0,0,-32,-24,-56c0,0,-24,-24,-58,-24Z" 
id="f2_4"
transform="scale(0.001,-0.001)" />

<path d="M71,-141V-15L289,62L66,836H210L416,109c0,0,99,42,153,98c0,0,53,56,80,155c0,0,26,98,26,262V836H817V624c0,0,0,-88,-7,-154c0,0,-7,-67,-25,-132c0,0,-18,-66,-51,-116c0,0,-33,-51,-84,-98c0,0,-50,-48,-123,-87c0,0,-72,-39,-169,-74L71,-141Z" 
id="f3_l"
transform="scale(0.001,-0.001)" />

<path d="M64,0V34L168,59V639H47v36l121,29v49c0,0,0,155,61,239c0,0,62,84,173,84c0,0,58,0,107,-15V908H472l-33,92c0,0,-26,16,-62,16c0,0,-47,0,-66,-42c0,0,-19,-42,-19,-157V701H478V639H292V59L443,34V0Z" 
id="f2_t"
transform="scale(0.001,-0.001)" />

<path d="M41,0V34L426,641H261c0,0,-42,0,-80,-7c0,0,-39,-7,-54,-19L104,515H69V701H586V665L201,60H407c0,0,42,0,89,10c0,0,47,10,66,25l39,147h35L617,0Z" 
id="f2_9"
transform="scale(0.001,-0.001)" />

<path d="M148,-329c0,0,-58,0,-114,13v151H69l24,-71c0,0,23,-17,64,-17c0,0,39,0,72,22c0,0,33,23,60,67c0,0,27,44,68,157L90,649L19,668v33H344V668L233,648L423,158L606,649L497,668v33H758V668L685,652L411,-43c0,0,-48,-124,-84,-177c0,0,-36,-54,-79,-82c0,0,-44,-27,-100,-27Z" 
id="f2_7"
transform="scale(0.001,-0.001)" />

<path d="M278,-14c0,0,-52,0,-115,11c0,0,-63,10,-99,23V193H98L134,95c0,0,56,-50,146,-50c0,0,144,0,144,123c0,0,0,91,-114,130l-66,21c0,0,-75,25,-110,50c0,0,-34,26,-53,63c0,0,-18,36,-18,89c0,0,0,92,63,145c0,0,63,54,170,54c0,0,77,0,193,-23V544H454l-32,81c0,0,-39,35,-124,35c0,0,-61,0,-92,-30c0,0,-32,-30,-32,-80c0,0,0,-43,29,-72c0,0,28,-29,86,-48c0,0,110,-38,144,-55c0,0,33,-17,57,-42c0,0,23,-25,36,-57c0,0,13,-32,13,-79c0,0,0,-104,-66,-158c0,0,-66,-53,-195,-53Z" 
id="f2_g"
transform="scale(0.001,-0.001)" />

<path d="M289,-14c0,0,-179,0,-179,205V649L20,668v33H233V200c0,0,0,-128,120,-128c0,0,92,0,173,23V649L420,668v33H649V52L738,34V0H533l-6,57C527,57,474,28,405,6c0,0,-69,-20,-116,-20Zm24,849v24l147,203H618v-27L354,835Z" 
id="f2_i"
transform="scale(0.001,-0.001)" />

<path d="M495,413c0,0,0,133,-34,190c0,0,-34,57,-105,57c0,0,-78,0,-119,-62c0,0,-42,-63,-42,-185ZM374,-14c0,0,-163,0,-239,87c0,0,-75,88,-75,283c0,0,0,183,77,274c0,0,76,90,219,90c0,0,269,0,269,-306V353H194V339c0,0,0,-103,23,-160c0,0,22,-57,70,-86c0,0,47,-30,124,-30c0,0,40,0,96,6c0,0,55,7,91,15V43C598,43,562,19,500,2c0,0,-61,-16,-126,-16ZM285,835v24l146,203H590v-27L326,835Z" 
id="f2_k"
transform="scale(0.001,-0.001)" />

<path d="M31,0V33L150,52v956L31,1026v34H274V52L394,33V0Z" 
id="f2_l"
transform="scale(0.001,-0.001)" />

<path d="M0,-14L351,1007h73L75,-14Z" 
id="f2_6"
transform="scale(0.001,-0.001)" />

<path d="M557,-14c0,0,-199,0,-298,89c0,0,-99,90,-99,255V941L32,960v40H432V960L304,941V341c0,0,0,-273,264,-273c0,0,144,0,220,68c0,0,77,68,77,202V941L730,960v40h341V960L943,941V344c0,0,0,-180,-99,-269c0,0,-99,-89,-287,-89Z" 
id="f2_n"
transform="scale(0.001,-0.001)" />

<path d="M191,-20c0,0,-39,0,-65,25c0,0,-25,27,-25,64c0,0,0,38,26,64c0,0,26,26,64,26c0,0,38,0,64,-26c0,0,26,-26,26,-64c0,0,0,-37,-25,-64c0,0,-26,-25,-65,-25Z" 
id="f2_o"
transform="scale(0.001,-0.001)" />

<path d="M431,0V33L535,52V499c0,0,0,62,-32,96c0,0,-32,33,-95,33c0,0,-66,0,-163,-22V52L350,33V0H32V33l89,19V649L32,668v33H237l6,-57c0,0,56,32,119,54c0,0,62,22,110,22c0,0,52,0,95,-20c0,0,44,-19,66,-62c0,0,57,32,134,57c0,0,77,25,128,25c0,0,179,0,179,-207V52l90,-19V0H846V33L950,52V499c0,0,0,129,-119,129c0,0,-19,0,-45,-3c0,0,-26,-3,-52,-7c0,0,-25,-4,-49,-8c0,0,-23,-5,-39,-8c0,0,13,-41,13,-89V52L764,33V0Z" 
id="f2_p"
transform="scale(0.001,-0.001)" />

<path d="M156,-317V454l139,56V-317ZM505,0L806,729H139V835H967V753L650,0Z" 
id="f3_p"
transform="scale(0.001,-0.001)" />

<path d="M139,0V106H400c0,0,176,0,253,71c0,0,78,72,78,250c0,0,0,163,-80,233c0,0,-81,69,-250,69H278L277,564c0,0,-1,-54,26,-80c0,0,27,-25,82,-25c0,0,30,0,80,9V355c0,0,-61,-12,-111,-12c0,0,-100,0,-157,55c0,0,-58,55,-58,186V836H456c0,0,193,0,303,-109c0,0,110,-109,110,-309c0,0,0,-200,-110,-309C759,109,648,0,456,0Z" 
id="f3_m"
transform="scale(0.001,-0.001)" />

<path d="M139,0V836H485c0,0,206,0,290,-90c0,0,84,-89,84,-294V0H721V473c0,0,0,147,-49,202c0,0,-48,54,-186,54H277V0Z" 
id="f3_g"
transform="scale(0.001,-0.001)" />

<path d="M66,0V107H554V452c0,0,0,56,-4,93c0,0,-4,37,-18,75c0,0,-14,38,-40,60c0,0,-26,22,-71,36c0,0,-45,13,-110,13H66V836H312c0,0,91,0,157,-17c0,0,66,-17,109,-49c0,0,44,-32,69,-84c0,0,26,-52,36,-114c0,0,10,-62,10,-147V107H817V0Z" 
id="f3_f"
transform="scale(0.001,-0.001)" />

<path d="M121,0V211L528,570c0,0,54,50,80,96c0,0,27,47,27,98c0,0,0,78,-53,126c0,0,-53,48,-140,48c0,0,-67,0,-147,-29c0,0,-80,-28,-171,-85v245c0,0,97,32,192,48c0,0,95,17,186,17c0,0,199,0,310,-88c0,0,111,-88,111,-245c0,0,0,-91,-47,-170c0,0,-47,-79,-197,-211L441,211H931V0Z" 
id="f1_r"
transform="scale(0.001,-0.001)" />

<path d="M322,0V40L481,60V389L130,941L17,960v40H440V960L306,941L593,480L866,941L739,960v40h326V960L955,941L625,394V60L784,40V0Z" 
id="f2_y"
transform="scale(0.001,-0.001)" />

<path d="M382,45c0,0,188,0,188,314c0,0,0,143,-47,213c0,0,-46,69,-141,69c0,0,-87,0,-146,-24V58c0,0,67,-13,146,-13ZM25,-325v35l88,18V649L34,668v33H231l1,-41c0,0,31,27,84,43c0,0,53,17,107,17c0,0,134,0,208,-94c0,0,73,-93,73,-267c0,0,0,-178,-80,-276c0,0,-80,-97,-232,-97c0,0,-84,0,-160,16c0,0,4,-53,4,-84V-272l123,-18v-35Z" 
id="f2_u"
transform="scale(0.001,-0.001)" />

<path d="M139,0V138c0,0,0,61,8,112c0,0,7,52,19,87c0,0,11,36,30,66c0,0,19,31,35,49c0,0,17,19,41,35c0,0,25,17,41,25c0,0,17,7,40,17L141,836H303L613,388c0,0,20,10,33,18c0,0,13,8,34,28c0,0,20,20,33,44c0,0,13,25,22,66c0,0,10,41,10,92V836H882V698c0,0,0,-61,-7,-112c0,0,-6,-52,-18,-88c0,0,-12,-36,-30,-66c0,0,-19,-30,-36,-49c0,0,-17,-18,-41,-34c0,0,-24,-17,-40,-25c0,0,-17,-8,-41,-17L882,0H720L409,448c0,0,-21,-11,-34,-19c0,0,-13,-8,-34,-27c0,0,-21,-20,-34,-44c0,0,-12,-25,-22,-66c0,0,-9,-41,-9,-92V0Z" 
id="f3_d"
transform="scale(0.001,-0.001)" />

<path d="M66,0V106H322c0,0,75,0,127,23c0,0,53,23,82,67c0,0,29,43,42,98c0,0,13,54,13,124c0,0,0,70,-13,124c0,0,-13,55,-42,98c0,0,-29,44,-82,67c0,0,-52,23,-127,23H66V836H322c0,0,87,0,157,-24c0,0,70,-24,115,-64c0,0,45,-40,74,-94c0,0,30,-55,43,-113c0,0,13,-59,13,-123c0,0,0,-64,-13,-123c0,0,-13,-58,-43,-113c0,0,-29,-54,-74,-94C594,88,549,48,479,24C479,24,409,0,322,0Z" 
id="f3_i"
transform="scale(0.001,-0.001)" />

<path d="M0,-141L388,1114H514L127,-141Z" 
id="f3_r"
transform="scale(0.001,-0.001)" />

<path d="M376,50c0,0,103,0,149,80c0,0,46,81,46,240c0,0,0,137,-47,204c0,0,-48,67,-148,67c0,0,-44,0,-87,-7c0,0,-44,-8,-63,-17V62c0,0,63,-12,150,-12Zm3,-64c0,0,-64,0,-141,14c0,0,-78,14,-136,37v971L0,1026v34H226V809c0,0,0,-40,-4,-148c0,0,74,59,188,59c0,0,143,0,219,-87c0,0,77,-87,77,-263c0,0,0,-189,-84,-287c0,0,-84,-97,-243,-97Z" 
id="f2_v"
transform="scale(0.001,-0.001)" />

<path d="M495,0V729H66V836H781V729H634V0Z" 
id="f3_q"
transform="scale(0.001,-0.001)" />

<path d="M522,92c0,0,247,0,247,333c0,0,0,88,-17,146c0,0,-17,58,-53,91c0,0,-35,33,-82,46c0,0,-48,14,-116,14H276V419c0,0,0,-327,246,-327Zm0,-112c0,0,-193,0,-289,109c0,0,-95,110,-95,337V836H501c0,0,213,0,309,-93c0,0,96,-94,96,-317c0,0,0,-227,-95,-337C811,89,715,-20,522,-20Z" 
id="f3_t"
transform="scale(0.001,-0.001)" />

<path d="M180,0L66,836H203L258,443c0,0,36,1,64,6c0,0,28,6,49,18c0,0,20,12,35,26c0,0,15,13,26,36c0,0,11,24,17,44c0,0,7,20,12,55c0,0,6,34,9,60c0,0,3,26,8,71c0,0,4,45,9,77H610c0,0,-13,-194,-31,-271c0,0,-31,-127,-111,-179c0,0,-71,-45,-196,-50L304,107c0,0,73,0,130,5c0,0,56,6,111,21c0,0,54,15,94,40c0,0,40,25,77,64c0,0,37,39,63,94c0,0,25,54,46,128c0,0,21,73,34,166c0,0,13,94,20,211h138c0,0,-14,-124,-29,-218c0,0,-16,-94,-39,-179c0,0,-22,-85,-50,-146c0,0,-28,-61,-68,-112c0,0,-39,-51,-87,-84C744,97,696,65,632,42C632,42,568,19,492,10C492,10,417,0,320,0Z" 
id="f3_4"
transform="scale(0.001,-0.001)" />

<path d="M114,0l60,312c0,0,2,12,8,39c0,0,6,27,7,37c0,0,2,11,5,30c0,0,2,19,4,33c0,0,1,15,1,31c0,0,0,48,-35,146c0,0,-35,98,-98,208H228c0,0,3,-8,27,-67c0,0,25,-58,41,-117c0,0,21,53,50,90c0,0,29,37,57,57c0,0,29,21,65,32c0,0,37,11,65,14c0,0,28,3,67,3c0,0,300,0,300,-396V0H480V106H761V452c0,0,0,146,-46,215c0,0,-45,70,-118,70c0,0,-134,0,-198,-119c0,0,-36,-68,-67,-222c0,0,-2,-10,-6,-27L253,0Z" 
id="f3_8"
transform="scale(0.001,-0.001)" />

<path d="M445,-20c0,0,-86,0,-172,13c0,0,-86,13,-170,40V255c0,0,80,-40,160,-60c0,0,79,-21,156,-21c0,0,114,0,174,40c0,0,61,39,61,113c0,0,0,76,-62,115c0,0,-62,39,-184,39H293V666H414c0,0,108,0,161,34c0,0,53,34,53,103c0,0,0,65,-52,100c0,0,-51,35,-145,35c0,0,-69,0,-140,-16c0,0,-70,-15,-140,-46v210c0,0,85,24,168,36c0,0,83,12,164,12c0,0,217,0,325,-71c0,0,107,-71,107,-215c0,0,0,-98,-51,-160c0,0,-52,-62,-152,-88c0,0,112,-29,171,-101c0,0,59,-72,59,-183c0,0,0,-165,-127,-251c0,0,-127,-85,-370,-85Z" 
id="f1_s"
transform="scale(0.001,-0.001)" />

<path d="M360,-14L72,649L0,668v33H327V668L216,648L420,164L615,649L504,668v33H764V668L697,652L416,-14Z" 
id="f2_s"
transform="scale(0.001,-0.001)" />

<path d="M359,-270c0,0,124,0,192,46c0,0,67,47,67,129c0,0,0,43,-26,67c0,0,-26,24,-79,24H242c0,0,-32,-27,-51,-69c0,0,-20,-41,-20,-77c0,0,0,-64,46,-92c0,0,46,-28,142,-28Zm11,561c0,0,81,0,115,47c0,0,34,47,34,141c0,0,0,100,-35,142c0,0,-35,42,-113,42c0,0,-78,0,-114,-43c0,0,-37,-42,-37,-141c0,0,0,-98,36,-143c0,0,36,-45,114,-45ZM359,-329c0,0,-143,0,-218,44c0,0,-75,43,-75,125c0,0,0,39,27,78c0,0,26,38,98,89c0,0,-43,14,-72,48c0,0,-29,35,-29,74L208,262c0,0,-118,55,-118,217c0,0,0,115,73,178c0,0,73,63,211,63c0,0,28,0,71,-6c0,0,44,-6,67,-13l165,83l26,-32L599,644c0,0,50,-56,50,-165c0,0,0,-120,-72,-182c0,0,-73,-62,-208,-62c0,0,-62,0,-114,11L208,148c0,0,2,-13,29,-24c0,0,27,-12,67,-12H512c0,0,113,0,168,-49c0,0,55,-49,55,-134c0,0,0,-79,-44,-137c0,0,-43,-58,-128,-90c0,0,-84,-31,-204,-31Z" 
id="f2_w"
transform="scale(0.001,-0.001)" />

<path d="M562,411V877L247,411ZM562,0V202H68V449l447,665H834V411H993V202H834V0Z" 
id="f1_t"
transform="scale(0.001,-0.001)" />

<path d="M543,-317V369c0,0,0,85,-8,143c0,0,-8,58,-27,101c0,0,-18,44,-51,69c0,0,-33,24,-80,36c0,0,-48,11,-117,11H66V836H257c0,0,125,0,205,-23c0,0,80,-23,130,-79c0,0,50,-56,70,-143c0,0,20,-86,20,-222V-317Z" 
id="f3_2"
transform="scale(0.001,-0.001)" />

<path d="M354,-200c0,0,-112,175,-167,343c0,0,-56,170,-56,337c0,0,0,166,55,335c0,0,55,169,168,345H473c0,0,-100,-172,-148,-340c0,0,-48,-168,-48,-340c0,0,0,-173,48,-342c0,0,49,-168,148,-338Z" 
id="f3_x"
transform="scale(0.001,-0.001)" />

<path d="M122,-200c0,0,99,170,148,338c0,0,49,169,49,342c0,0,0,172,-49,340c0,0,-49,168,-148,340H241c0,0,112,-176,168,-345c0,0,55,-169,55,-335c0,0,0,-167,-55,-337c0,0,-56,-168,-168,-343Z" 
id="f3_v"
transform="scale(0.001,-0.001)" />


</defs>
</svg>