<?xml version="1.0" encoding="UTF-8" standalone="no"?>
<!DOCTYPE svg PUBLIC "-//W3C//DTD SVG 1.1//EN"
"http://www.w3.org/Graphics/SVG/1.1/DTD/svg11.dtd">
<svg viewBox="0 0 909 1286" version="1.1" xmlns="http://www.w3.org/2000/svg" xmlns:xlink="http://www.w3.org/1999/xlink">
<defs>
<clipPath id="c0_2"><path d="M0,1286.2V0H909.4V1286.2Z" /></clipPath>
<clipPath id="c1_2"><path d="M631.8,1022.5v-21.3h.3v21.3Z" /></clipPath>
<style type="text/css"><![CDATA[
.g0_2{
fill: none;
stroke: #000000;
stroke-width: 1.0694444;
stroke-linecap: butt;
stroke-linejoin: miter;
}
.g1_2{
fill: none;
stroke: #000000;
stroke-width: 1.1458334;
stroke-linecap: butt;
stroke-linejoin: round;
}
.g2_2{
fill: none;
stroke: #0000FF;
stroke-width: 1.0694444;
stroke-linecap: butt;
stroke-linejoin: miter;
}
.g3_2{
stroke: #000000;
stroke-width: 0.15277778;
stroke-linecap: butt;
stroke-linejoin: miter;
}
]]></style>
</defs>
<g clip-path="url(#c0_2)">
<g fill="#000000" >
<use xlink:href="#f0_g" transform="matrix(12,0,0,12,739.6,243.1)" />
<use xlink:href="#f0_g" transform="matrix(12,0,0,12,750.7,243.1)" />
<use xlink:href="#f0_h" transform="matrix(12,0,0,12,761.7,243.1)" />
</g>
</g>
<path d="M733.2,244.9h38.9" class="g0_2" />
<g clip-path="url(#c0_2)">
<g fill="#000000" >
<use xlink:href="#f0_6" transform="matrix(12,0,0,12,720.2,243.1)" />
</g>
</g>
<path d="M720.2,244.9h12.7" class="g0_2" />
<g clip-path="url(#c0_2)">
<g fill="#000000" >
<use xlink:href="#f1_8" transform="matrix(12,0,0,12,726.8,264.5)" />
<use xlink:href="#f1_7" transform="matrix(12,0,0,12,738.7,264.5)" />
<use xlink:href="#f1_e" transform="matrix(12,0,0,12,751.2,264.5)" />
<use xlink:href="#f1_d" transform="matrix(12,0,0,12,756.2,264.5)" />
<use xlink:href="#f1_f" transform="matrix(12,0,0,12,760.2,264.5)" />
<use xlink:href="#f2_4" transform="matrix(11,0,0,11,712.3,264.5)" />
<use xlink:href="#f1_t" transform="matrix(12,0,0,12,663.7,264.5)" />
<use xlink:href="#f1_j" transform="matrix(12,0,0,12,669.8,264.5)" />
<use xlink:href="#f1_k" transform="matrix(12,0,0,12,680.1,264.5)" />
<use xlink:href="#f1_l" transform="matrix(12,0,0,12,689.8,264.5)" />
<use xlink:href="#f1_9" transform="matrix(12,0,0,12,696.2,264.5)" />
<use xlink:href="#f2_z" transform="matrix(11,0,0,11,601.2,264.5)" />
<use xlink:href="#f2_5" transform="matrix(11,0,0,11,611.4,264.5)" />
<use xlink:href="#f2_m" transform="matrix(11,0,0,11,620.4,264.5)" />
<use xlink:href="#f2_s" transform="matrix(11,0,0,11,628.7,264.5)" />
<use xlink:href="#f2_10" transform="matrix(11,0,0,11,633.4,264.5)" />
<use xlink:href="#f3_k" transform="matrix(11,0,0,11,641.8,264.5)" />
<use xlink:href="#f1_8" transform="matrix(12,0,0,12,726.8,285.8)" />
<use xlink:href="#f1_7" transform="matrix(12,0,0,12,738.7,285.8)" />
<use xlink:href="#f1_e" transform="matrix(12,0,0,12,751.2,285.8)" />
<use xlink:href="#f1_d" transform="matrix(12,0,0,12,756.2,285.8)" />
<use xlink:href="#f1_f" transform="matrix(12,0,0,12,760.2,285.8)" />
<use xlink:href="#f2_6" transform="matrix(11,0,0,11,713.2,285.8)" />
<use xlink:href="#f1_t" transform="matrix(12,0,0,12,648.2,285.8)" />
<use xlink:href="#f1_3" transform="matrix(12,0,0,12,654.3,285.8)" />
<use xlink:href="#f1_4" transform="matrix(12,0,0,12,666.3,285.8)" />
<use xlink:href="#f1_i" transform="matrix(12,0,0,12,676.8,285.8)" />
<use xlink:href="#f1_b" transform="matrix(12,0,0,12,689.8,285.8)" />
<use xlink:href="#f1_9" transform="matrix(12,0,0,12,697.1,285.8)" />
<use xlink:href="#f2_12" transform="matrix(11,0,0,11,549.4,285.8)" />
<use xlink:href="#f2_6" transform="matrix(11,0,0,11,559.6,285.8)" />
<use xlink:href="#f2_m" transform="matrix(11,0,0,11,571.2,285.8)" />
<use xlink:href="#f2_s" transform="matrix(11,0,0,11,579.6,285.8)" />
<use xlink:href="#f2_10" transform="matrix(11,0,0,11,584.3,285.8)" />
<use xlink:href="#f3_j" transform="matrix(11,0,0,11,592.8,285.8)" />
<use xlink:href="#f1_6" transform="matrix(12,0,0,12,138,326.5)" />
<use xlink:href="#f1_n" transform="matrix(12,0,0,12,150.9,326.5)" />
<use xlink:href="#f1_b" transform="matrix(12,0,0,12,162.9,326.5)" />
<use xlink:href="#f1_9" transform="matrix(12,0,0,12,170.2,326.5)" />
<use xlink:href="#f1_3" transform="matrix(12,0,0,12,186.9,326.5)" />
<use xlink:href="#f1_f" transform="matrix(12,0,0,12,198.9,326.5)" />
<use xlink:href="#f1_b" transform="matrix(12,0,0,12,210.8,326.5)" />
<use xlink:href="#f1_e" transform="matrix(12,0,0,12,218.1,326.5)" />
<use xlink:href="#f1_15" transform="matrix(12,0,0,12,229.5,326.5)" />
<use xlink:href="#f1_m" transform="matrix(12,0,0,12,235.3,326.5)" />
<use xlink:href="#f1_d" transform="matrix(12,0,0,12,240.2,326.5)" />
<use xlink:href="#f1_7" transform="matrix(12,0,0,12,244.3,326.5)" />
<use xlink:href="#f1_d" transform="matrix(12,0,0,12,256.8,326.5)" />
<use xlink:href="#f1_7" transform="matrix(12,0,0,12,260.8,326.5)" />
<use xlink:href="#f1_j" transform="matrix(12,0,0,12,279.7,326.5)" />
<use xlink:href="#f1_k" transform="matrix(12,0,0,12,290.1,326.5)" />
<use xlink:href="#f1_l" transform="matrix(12,0,0,12,299.7,326.5)" />
<use xlink:href="#f1_3" transform="matrix(12,0,0,12,306.1,326.5)" />
<use xlink:href="#f1_8" transform="matrix(12,0,0,12,324.4,326.5)" />
<use xlink:href="#f1_j" transform="matrix(12,0,0,12,336.3,326.5)" />
<use xlink:href="#f1_e" transform="matrix(12,0,0,12,346.7,326.5)" />
<use xlink:href="#f1_p" transform="matrix(12,0,0,12,351.7,326.5)" />
<use xlink:href="#f1_4" transform="matrix(12,0,0,12,362.6,326.5)" />
<use xlink:href="#f1_m" transform="matrix(12,0,0,12,379.5,326.5)" />
<use xlink:href="#f1_b" transform="matrix(12,0,0,12,384.5,326.5)" />
<use xlink:href="#f1_e" transform="matrix(12,0,0,12,391.9,326.5)" />
<use xlink:href="#f1_4" transform="matrix(12,0,0,12,396.9,326.5)" />
<use xlink:href="#f1_8" transform="matrix(12,0,0,12,407.4,326.5)" />
<use xlink:href="#f1_3" transform="matrix(12,0,0,12,419.5,326.5)" />
<use xlink:href="#f1_c" transform="matrix(12,0,0,12,437.8,326.5)" />
<use xlink:href="#f1_m" transform="matrix(12,0,0,12,443.6,326.5)" />
<use xlink:href="#f1_d" transform="matrix(12,0,0,12,448.6,326.5)" />
<use xlink:href="#f1_7" transform="matrix(12,0,0,12,452.6,326.5)" />
<use xlink:href="#f1_4" transform="matrix(12,0,0,12,465.1,326.5)" />
<use xlink:href="#f1_m" transform="matrix(12,0,0,12,482.1,326.5)" />
<use xlink:href="#f1_d" transform="matrix(12,0,0,12,487.2,326.5)" />
<use xlink:href="#f1_n" transform="matrix(12,0,0,12,491.3,326.5)" />
<use xlink:href="#f1_4" transform="matrix(12,0,0,12,503.2,326.5)" />
<use xlink:href="#f1_3" transform="matrix(12,0,0,12,513.7,326.5)" />
<use xlink:href="#f1_9" transform="matrix(12,0,0,12,525.7,326.5)" />
<use xlink:href="#f1_m" transform="matrix(12,0,0,12,542.4,326.5)" />
<use xlink:href="#f1_k" transform="matrix(12,0,0,12,547.4,326.5)" />
<use xlink:href="#f1_o" transform="matrix(12,0,0,12,563.3,326.5)" />
<use xlink:href="#f1_q" transform="matrix(12,0,0,12,575.5,326.5)" />
<use xlink:href="#f1_m" transform="matrix(12,0,0,12,594.1,326.5)" />
<use xlink:href="#f1_8" transform="matrix(12,0,0,12,599.1,326.5)" />
<use xlink:href="#f1_d" transform="matrix(12,0,0,12,611,326.5)" />
<use xlink:href="#f1_b" transform="matrix(12,0,0,12,615.1,326.5)" />
<use xlink:href="#f1_3" transform="matrix(12,0,0,12,629,326.5)" />
<use xlink:href="#f1_h" transform="matrix(12,0,0,12,640.9,326.5)" />
<use xlink:href="#f1_d" transform="matrix(12,0,0,12,652.4,326.5)" />
<use xlink:href="#f1_a" transform="matrix(12,0,0,12,656.4,326.5)" />
<use xlink:href="#f1_d" transform="matrix(12,0,0,12,666.4,326.5)" />
<use xlink:href="#f1_3" transform="matrix(12,0,0,12,670.5,326.5)" />
<use xlink:href="#f1_2" transform="matrix(12,0,0,12,688.8,326.5)" />
<use xlink:href="#f1_3" transform="matrix(12,0,0,12,693.8,326.5)" />
<use xlink:href="#f1_q" transform="matrix(12,0,0,12,712.1,326.5)" />
<use xlink:href="#f1_9" transform="matrix(12,0,0,12,724.4,326.5)" />
<use xlink:href="#f1_9" transform="matrix(12,0,0,12,734.8,326.5)" />
<use xlink:href="#f1_o" transform="matrix(12,0,0,12,751.5,326.5)" />
<use xlink:href="#f1_r" transform="matrix(12,0,0,12,763.7,326.5)" />
<use xlink:href="#f1_c" transform="matrix(12,0,0,12,570.9,347.9)" />
<use xlink:href="#f1_9" transform="matrix(12,0,0,12,576.7,347.9)" />
<use xlink:href="#f1_q" transform="matrix(12,0,0,12,587.1,347.9)" />
<use xlink:href="#f1_7" transform="matrix(12,0,0,12,599.4,347.9)" />
<use xlink:href="#f1_6" transform="matrix(12,0,0,12,611.7,347.9)" />
<use xlink:href="#f1_7" transform="matrix(12,0,0,12,624.7,347.9)" />
<use xlink:href="#f1_3" transform="matrix(12,0,0,12,643.2,347.9)" />
<use xlink:href="#f1_4" transform="matrix(12,0,0,12,655.1,347.9)" />
<use xlink:href="#f1_i" transform="matrix(12,0,0,12,665.6,347.9)" />
<use xlink:href="#f1_b" transform="matrix(12,0,0,12,678.6,347.9)" />
<use xlink:href="#f1_3" transform="matrix(12,0,0,12,685.9,347.9)" />
<use xlink:href="#f1_8" transform="matrix(12,0,0,12,703.8,347.9)" />
<use xlink:href="#f1_j" transform="matrix(12,0,0,12,715.7,347.9)" />
<use xlink:href="#f1_e" transform="matrix(12,0,0,12,726.1,347.9)" />
<use xlink:href="#f1_p" transform="matrix(12,0,0,12,731.1,347.9)" />
<use xlink:href="#f1_8" transform="matrix(12,0,0,12,747.8,347.9)" />
<use xlink:href="#f1_q" transform="matrix(12,0,0,12,759.8,347.9)" />
</g>
</g>
<path d="M130.1,372.2H661.8M130.1,394.8H661.8M130.1,417.2H661.8M130.1,439.8H661.8M130.1,462.3H661.8M130.1,484.9H661.8M130.1,507.4H661.8M130.1,530H661.8M130.1,552.4H661.8M130.6,371.6V553M219.1,371.6V553M307.5,371.6V553M396,371.6V553M484.5,371.6V553M572.9,371.6V553M661.2,371.6V553" class="g1_2" />
<g clip-path="url(#c0_2)">
<g fill="#000000" >
<use xlink:href="#f1_3" transform="matrix(12,0,0,12,625.6,389.7)" />
<use xlink:href="#f1_11" transform="matrix(12,0,0,12,636.9,389.7)" />
<use xlink:href="#f1_g" transform="matrix(12,0,0,12,637.5,389.7)" />
<use xlink:href="#f1_w" transform="matrix(12,0,0,12,645.2,389.7)" />
<use xlink:href="#f1_d" transform="matrix(12,0,0,12,649,389.7)" />
<use xlink:href="#f1_x" transform="matrix(12,0,0,12,520.7,389.7)" />
<use xlink:href="#f1_e" transform="matrix(12,0,0,12,520.7,389.7)" />
<use xlink:href="#f1_z" transform="matrix(12,0,0,12,525.7,389.7)" />
<use xlink:href="#f1_d" transform="matrix(12,0,0,12,537.6,389.7)" />
<use xlink:href="#f1_13" transform="matrix(12,0,0,12,539.7,389.7)" />
<use xlink:href="#f1_b" transform="matrix(12,0,0,12,541.7,389.7)" />
<use xlink:href="#f1_x" transform="matrix(12,0,0,12,549,389.7)" />
<use xlink:href="#f1_e" transform="matrix(12,0,0,12,549,389.7)" />
<use xlink:href="#f1_12" transform="matrix(12,0,0,12,552.2,389.7)" />
<use xlink:href="#f1_4" transform="matrix(12,0,0,12,554.1,389.7)" />
<use xlink:href="#f2_r" transform="matrix(11,0,0,11,404.9,388.4)" />
<use xlink:href="#f2_4" transform="matrix(11,0,0,11,413.3,388.4)" />
<use xlink:href="#f2_m" transform="matrix(11,0,0,11,421.7,388.4)" />
<use xlink:href="#f2_s" transform="matrix(11,0,0,11,430.1,388.4)" />
<use xlink:href="#f2_g" transform="matrix(11,0,0,11,434.7,388.4)" />
<use xlink:href="#f3_k" transform="matrix(11,0,0,11,439.4,388.4)" />
<use xlink:href="#f1_3" transform="matrix(12,0,0,12,360.3,389.7)" />
<use xlink:href="#f1_w" transform="matrix(12,0,0,12,371.6,389.7)" />
<use xlink:href="#f1_g" transform="matrix(12,0,0,12,372.1,389.7)" />
<use xlink:href="#f1_w" transform="matrix(12,0,0,12,379.8,389.7)" />
<use xlink:href="#f1_d" transform="matrix(12,0,0,12,383.6,389.7)" />
<use xlink:href="#f1_3" transform="matrix(12,0,0,12,248.4,389.7)" />
<use xlink:href="#f1_w" transform="matrix(12,0,0,12,260.8,389.7)" />
<use xlink:href="#f1_z" transform="matrix(12,0,0,12,260.3,389.7)" />
<use xlink:href="#f1_d" transform="matrix(12,0,0,12,272.2,389.7)" />
<use xlink:href="#f1_13" transform="matrix(12,0,0,12,274.4,389.7)" />
<use xlink:href="#f1_b" transform="matrix(12,0,0,12,276.3,389.7)" />
<use xlink:href="#f1_x" transform="matrix(12,0,0,12,283.7,389.7)" />
<use xlink:href="#f1_e" transform="matrix(12,0,0,12,283.7,389.7)" />
<use xlink:href="#f1_12" transform="matrix(12,0,0,12,286.9,389.7)" />
<use xlink:href="#f1_4" transform="matrix(12,0,0,12,288.7,389.7)" />
<use xlink:href="#f2_r" transform="matrix(11,0,0,11,139.5,388.4)" />
<use xlink:href="#f2_4" transform="matrix(11,0,0,11,147.9,388.4)" />
<use xlink:href="#f2_m" transform="matrix(11,0,0,11,156.3,388.4)" />
<use xlink:href="#f2_s" transform="matrix(11,0,0,11,164.7,388.4)" />
<use xlink:href="#f2_g" transform="matrix(11,0,0,11,169.3,388.4)" />
<use xlink:href="#f3_j" transform="matrix(11,0,0,11,174,388.4)" />
<use xlink:href="#f1_m" transform="matrix(12,0,0,12,622.7,412.3)" />
<use xlink:href="#f1_11" transform="matrix(12,0,0,12,628.8,412.3)" />
<use xlink:href="#f1_7" transform="matrix(12,0,0,12,627.7,412.3)" />
<use xlink:href="#f1_w" transform="matrix(12,0,0,12,641.2,412.3)" />
<use xlink:href="#f1_6" transform="matrix(12,0,0,12,640.1,412.3)" />
<use xlink:href="#f1_x" transform="matrix(12,0,0,12,526.8,412.3)" />
<use xlink:href="#f1_e" transform="matrix(12,0,0,12,526.8,412.3)" />
<use xlink:href="#f1_a" transform="matrix(12,0,0,12,531.7,412.3)" />
<use xlink:href="#f1_10" transform="matrix(12,0,0,12,540.5,412.3)" />
<use xlink:href="#f1_j" transform="matrix(12,0,0,12,541.7,412.3)" />
<use xlink:href="#f1_x" transform="matrix(12,0,0,12,552.1,412.3)" />
<use xlink:href="#f1_e" transform="matrix(12,0,0,12,552.1,412.3)" />
<use xlink:href="#f1_r" transform="matrix(12,0,0,12,557.1,412.3)" />
<use xlink:href="#f2_y" transform="matrix(11,0,0,11,404.9,411)" />
<use xlink:href="#f2_4" transform="matrix(11,0,0,11,413.3,411)" />
<use xlink:href="#f2_u" transform="matrix(11,0,0,11,421.7,411)" />
<use xlink:href="#f2_q" transform="matrix(11,0,0,11,427.3,411)" />
<use xlink:href="#f3_k" transform="matrix(11,0,0,11,435.7,411)" />
<use xlink:href="#f1_3" transform="matrix(12,0,0,12,343,412.3)" />
<use xlink:href="#f1_w" transform="matrix(12,0,0,12,352.9,412.3)" />
<use xlink:href="#f1_b" transform="matrix(12,0,0,12,354.9,412.3)" />
<use xlink:href="#f1_11" transform="matrix(12,0,0,12,363.3,412.3)" />
<use xlink:href="#f1_7" transform="matrix(12,0,0,12,362.2,412.3)" />
<use xlink:href="#f1_10" transform="matrix(12,0,0,12,375.8,412.3)" />
<use xlink:href="#f1_6" transform="matrix(12,0,0,12,374.7,412.3)" />
<use xlink:href="#f1_3" transform="matrix(12,0,0,12,254.4,412.3)" />
<use xlink:href="#f1_w" transform="matrix(12,0,0,12,267.2,412.3)" />
<use xlink:href="#f1_a" transform="matrix(12,0,0,12,266.3,412.3)" />
<use xlink:href="#f1_10" transform="matrix(12,0,0,12,275.1,412.3)" />
<use xlink:href="#f1_j" transform="matrix(12,0,0,12,276.3,412.3)" />
<use xlink:href="#f1_x" transform="matrix(12,0,0,12,286.7,412.3)" />
<use xlink:href="#f1_e" transform="matrix(12,0,0,12,286.7,412.3)" />
<use xlink:href="#f1_r" transform="matrix(12,0,0,12,291.7,412.3)" />
<use xlink:href="#f2_y" transform="matrix(11,0,0,11,139.5,411)" />
<use xlink:href="#f2_4" transform="matrix(11,0,0,11,147.9,411)" />
<use xlink:href="#f2_u" transform="matrix(11,0,0,11,156.3,411)" />
<use xlink:href="#f2_q" transform="matrix(11,0,0,11,161.9,411)" />
<use xlink:href="#f3_j" transform="matrix(11,0,0,11,170.3,411)" />
<use xlink:href="#f1_9" transform="matrix(12,0,0,12,631.4,434.8)" />
<use xlink:href="#f1_e" transform="matrix(12,0,0,12,641.8,434.8)" />
<use xlink:href="#f1_l" transform="matrix(12,0,0,12,646.7,434.8)" />
<use xlink:href="#f1_x" transform="matrix(12,0,0,12,526.8,434.8)" />
<use xlink:href="#f1_e" transform="matrix(12,0,0,12,526.8,434.8)" />
<use xlink:href="#f1_z" transform="matrix(12,0,0,12,531.8,434.8)" />
<use xlink:href="#f1_w" transform="matrix(12,0,0,12,542.5,434.8)" />
<use xlink:href="#f1_j" transform="matrix(12,0,0,12,543.7,434.8)" />
<use xlink:href="#f1_w" transform="matrix(12,0,0,12,553.6,434.8)" />
<use xlink:href="#f1_12" transform="matrix(12,0,0,12,552.3,434.8)" />
<use xlink:href="#f1_4" transform="matrix(12,0,0,12,554.1,434.8)" />
<use xlink:href="#f2_r" transform="matrix(11,0,0,11,404.9,433.4)" />
<use xlink:href="#f2_6" transform="matrix(11,0,0,11,413.3,433.4)" />
<use xlink:href="#f2_u" transform="matrix(11,0,0,11,420.7,433.4)" />
<use xlink:href="#f2_6" transform="matrix(11,0,0,11,426.4,433.4)" />
<use xlink:href="#f2_g" transform="matrix(11,0,0,11,433.7,433.4)" />
<use xlink:href="#f3_k" transform="matrix(11,0,0,11,438.5,433.4)" />
<use xlink:href="#f1_3" transform="matrix(12,0,0,12,354,434.8)" />
<use xlink:href="#f1_9" transform="matrix(12,0,0,12,365.9,434.8)" />
<use xlink:href="#f1_e" transform="matrix(12,0,0,12,376.3,434.8)" />
<use xlink:href="#f1_l" transform="matrix(12,0,0,12,381.3,434.8)" />
<use xlink:href="#f1_3" transform="matrix(12,0,0,12,254.5,434.8)" />
<use xlink:href="#f1_w" transform="matrix(12,0,0,12,266.9,434.8)" />
<use xlink:href="#f1_z" transform="matrix(12,0,0,12,266.4,434.8)" />
<use xlink:href="#f1_w" transform="matrix(12,0,0,12,277.1,434.8)" />
<use xlink:href="#f1_j" transform="matrix(12,0,0,12,278.3,434.8)" />
<use xlink:href="#f1_w" transform="matrix(12,0,0,12,288.3,434.8)" />
<use xlink:href="#f1_12" transform="matrix(12,0,0,12,286.9,434.8)" />
<use xlink:href="#f1_4" transform="matrix(12,0,0,12,288.7,434.8)" />
<use xlink:href="#f2_r" transform="matrix(11,0,0,11,139.5,433.4)" />
<use xlink:href="#f2_6" transform="matrix(11,0,0,11,147.9,433.4)" />
<use xlink:href="#f2_u" transform="matrix(11,0,0,11,155.4,433.4)" />
<use xlink:href="#f2_6" transform="matrix(11,0,0,11,161,433.4)" />
<use xlink:href="#f2_g" transform="matrix(11,0,0,11,168.3,433.4)" />
<use xlink:href="#f3_j" transform="matrix(11,0,0,11,173.1,433.4)" />
<use xlink:href="#f1_s" transform="matrix(12,0,0,12,618.6,457.4)" />
<use xlink:href="#f1_e" transform="matrix(12,0,0,12,628.4,457.4)" />
<use xlink:href="#f1_7" transform="matrix(12,0,0,12,633.4,457.4)" />
<use xlink:href="#f1_b" transform="matrix(12,0,0,12,645.8,457.4)" />
<use xlink:href="#f1_x" transform="matrix(12,0,0,12,537.2,457.4)" />
<use xlink:href="#f1_e" transform="matrix(12,0,0,12,537.2,457.4)" />
<use xlink:href="#f1_n" transform="matrix(12,0,0,12,542.2,457.4)" />
<use xlink:href="#f1_w" transform="matrix(12,0,0,12,553.6,457.4)" />
<use xlink:href="#f1_12" transform="matrix(12,0,0,12,552.3,457.4)" />
<use xlink:href="#f1_4" transform="matrix(12,0,0,12,554.1,457.4)" />
<use xlink:href="#f2_r" transform="matrix(11,0,0,11,404.9,456)" />
<use xlink:href="#f2_6" transform="matrix(11,0,0,11,413.3,456)" />
<use xlink:href="#f2_14" transform="matrix(11,0,0,11,420.7,456)" />
<use xlink:href="#f3_k" transform="matrix(11,0,0,11,425.5,456)" />
<use xlink:href="#f1_3" transform="matrix(12,0,0,12,341.3,457.4)" />
<use xlink:href="#f1_k" transform="matrix(12,0,0,12,353.2,457.4)" />
<use xlink:href="#f1_e" transform="matrix(12,0,0,12,362.8,457.4)" />
<use xlink:href="#f1_7" transform="matrix(12,0,0,12,367.9,457.4)" />
<use xlink:href="#f1_b" transform="matrix(12,0,0,12,380.4,457.4)" />
<use xlink:href="#f1_3" transform="matrix(12,0,0,12,264.9,457.4)" />
<use xlink:href="#f1_w" transform="matrix(12,0,0,12,277.1,457.4)" />
<use xlink:href="#f1_n" transform="matrix(12,0,0,12,276.8,457.4)" />
<use xlink:href="#f1_w" transform="matrix(12,0,0,12,288.3,457.4)" />
<use xlink:href="#f1_12" transform="matrix(12,0,0,12,286.9,457.4)" />
<use xlink:href="#f1_4" transform="matrix(12,0,0,12,288.7,457.4)" />
<use xlink:href="#f2_r" transform="matrix(11,0,0,11,139.5,456)" />
<use xlink:href="#f2_6" transform="matrix(11,0,0,11,147.9,456)" />
<use xlink:href="#f2_14" transform="matrix(11,0,0,11,155.4,456)" />
<use xlink:href="#f3_j" transform="matrix(11,0,0,11,160.1,456)" />
<use xlink:href="#f1_j" transform="matrix(12,0,0,12,604.2,479.9)" />
<use xlink:href="#f1_h" transform="matrix(12,0,0,12,614.6,479.9)" />
<use xlink:href="#f1_e" transform="matrix(12,0,0,12,626.1,479.9)" />
<use xlink:href="#f1_k" transform="matrix(12,0,0,12,631,479.9)" />
<use xlink:href="#f1_7" transform="matrix(12,0,0,12,640.6,479.9)" />
<use xlink:href="#f1_x" transform="matrix(12,0,0,12,535.9,479.9)" />
<use xlink:href="#f1_e" transform="matrix(12,0,0,12,535.9,479.9)" />
<use xlink:href="#f1_q" transform="matrix(12,0,0,12,541,479.9)" />
<use xlink:href="#f1_11" transform="matrix(12,0,0,12,552.6,479.9)" />
<use xlink:href="#f1_g" transform="matrix(12,0,0,12,553.2,479.9)" />
<use xlink:href="#f2_15" transform="matrix(11,0,0,11,404.9,478.5)" />
<use xlink:href="#f2_e" transform="matrix(11,0,0,11,410.5,478.5)" />
<use xlink:href="#f3_k" transform="matrix(11,0,0,11,418,478.5)" />
<use xlink:href="#f1_8" transform="matrix(12,0,0,12,326.6,479.9)" />
<use xlink:href="#f1_j" transform="matrix(12,0,0,12,338.7,479.9)" />
<use xlink:href="#f1_h" transform="matrix(12,0,0,12,349.1,479.9)" />
<use xlink:href="#f1_e" transform="matrix(12,0,0,12,360.5,479.9)" />
<use xlink:href="#f1_k" transform="matrix(12,0,0,12,365.5,479.9)" />
<use xlink:href="#f1_7" transform="matrix(12,0,0,12,375.2,479.9)" />
<use xlink:href="#f1_3" transform="matrix(12,0,0,12,263.7,479.9)" />
<use xlink:href="#f1_w" transform="matrix(12,0,0,12,276.4,479.9)" />
<use xlink:href="#f1_q" transform="matrix(12,0,0,12,275.6,479.9)" />
<use xlink:href="#f1_11" transform="matrix(12,0,0,12,287.2,479.9)" />
<use xlink:href="#f1_g" transform="matrix(12,0,0,12,287.8,479.9)" />
<use xlink:href="#f2_15" transform="matrix(11,0,0,11,139.5,478.5)" />
<use xlink:href="#f2_e" transform="matrix(11,0,0,11,145.1,478.5)" />
<use xlink:href="#f3_j" transform="matrix(11,0,0,11,152.6,478.5)" />
<use xlink:href="#f1_3" transform="matrix(12,0,0,12,624.6,502.5)" />
<use xlink:href="#f1_11" transform="matrix(12,0,0,12,633.3,502.5)" />
<use xlink:href="#f1_l" transform="matrix(12,0,0,12,636.5,502.5)" />
<use xlink:href="#f1_w" transform="matrix(12,0,0,12,641.5,502.5)" />
<use xlink:href="#f1_j" transform="matrix(12,0,0,12,642.7,502.5)" />
<use xlink:href="#f1_x" transform="matrix(12,0,0,12,521.6,502.5)" />
<use xlink:href="#f1_e" transform="matrix(12,0,0,12,521.6,502.5)" />
<use xlink:href="#f1_a" transform="matrix(12,0,0,12,526.6,502.5)" />
<use xlink:href="#f1_w" transform="matrix(12,0,0,12,535,502.5)" />
<use xlink:href="#f1_r" transform="matrix(12,0,0,12,536.7,502.5)" />
<use xlink:href="#f1_10" transform="matrix(12,0,0,12,542.6,502.5)" />
<use xlink:href="#f1_9" transform="matrix(12,0,0,12,544.1,502.5)" />
<use xlink:href="#f1_11" transform="matrix(12,0,0,12,555.4,502.5)" />
<use xlink:href="#f1_a" transform="matrix(12,0,0,12,554.5,502.5)" />
<use xlink:href="#f2_q" transform="matrix(11,0,0,11,404.9,501.1)" />
<use xlink:href="#f2_e" transform="matrix(11,0,0,11,413.3,501.1)" />
<use xlink:href="#f2_5" transform="matrix(11,0,0,11,420.7,501.1)" />
<use xlink:href="#f2_y" transform="matrix(11,0,0,11,425.4,501.1)" />
<use xlink:href="#f2_6" transform="matrix(11,0,0,11,433.9,501.1)" />
<use xlink:href="#f2_q" transform="matrix(11,0,0,11,441.3,501.1)" />
<use xlink:href="#f3_k" transform="matrix(11,0,0,11,449.8,501.1)" />
<use xlink:href="#f1_3" transform="matrix(12,0,0,12,359,502.5)" />
<use xlink:href="#f1_w" transform="matrix(12,0,0,12,367.7,502.5)" />
<use xlink:href="#f1_l" transform="matrix(12,0,0,12,370.9,502.5)" />
<use xlink:href="#f1_w" transform="matrix(12,0,0,12,376.1,502.5)" />
<use xlink:href="#f1_j" transform="matrix(12,0,0,12,377.3,502.5)" />
<use xlink:href="#f1_3" transform="matrix(12,0,0,12,249.3,502.5)" />
<use xlink:href="#f1_w" transform="matrix(12,0,0,12,262.1,502.5)" />
<use xlink:href="#f1_a" transform="matrix(12,0,0,12,261.2,502.5)" />
<use xlink:href="#f1_w" transform="matrix(12,0,0,12,269.6,502.5)" />
<use xlink:href="#f1_r" transform="matrix(12,0,0,12,271.3,502.5)" />
<use xlink:href="#f1_10" transform="matrix(12,0,0,12,277.3,502.5)" />
<use xlink:href="#f1_9" transform="matrix(12,0,0,12,278.8,502.5)" />
<use xlink:href="#f1_11" transform="matrix(12,0,0,12,290.1,502.5)" />
<use xlink:href="#f1_a" transform="matrix(12,0,0,12,289.1,502.5)" />
<use xlink:href="#f2_q" transform="matrix(11,0,0,11,139.5,501.1)" />
<use xlink:href="#f2_e" transform="matrix(11,0,0,11,147.9,501.1)" />
<use xlink:href="#f2_5" transform="matrix(11,0,0,11,155.4,501.1)" />
<use xlink:href="#f2_y" transform="matrix(11,0,0,11,160.1,501.1)" />
<use xlink:href="#f2_6" transform="matrix(11,0,0,11,168.5,501.1)" />
<use xlink:href="#f2_q" transform="matrix(11,0,0,11,175.9,501.1)" />
<use xlink:href="#f3_j" transform="matrix(11,0,0,11,184.4,501.1)" />
<use xlink:href="#f1_j" transform="matrix(12,0,0,12,625.6,524.9)" />
<use xlink:href="#f1_w" transform="matrix(12,0,0,12,636.5,524.9)" />
<use xlink:href="#f1_i" transform="matrix(12,0,0,12,636,524.9)" />
<use xlink:href="#f1_w" transform="matrix(12,0,0,12,645.2,524.9)" />
<use xlink:href="#f1_d" transform="matrix(12,0,0,12,649,524.9)" />
<use xlink:href="#f1_x" transform="matrix(12,0,0,12,536.3,524.9)" />
<use xlink:href="#f1_e" transform="matrix(12,0,0,12,536.3,524.9)" />
<use xlink:href="#f1_j" transform="matrix(12,0,0,12,541.3,524.9)" />
<use xlink:href="#f1_w" transform="matrix(12,0,0,12,552.1,524.9)" />
<use xlink:href="#f1_i" transform="matrix(12,0,0,12,551.7,524.9)" />
<use xlink:href="#f2_16" transform="matrix(11,0,0,11,404.9,523.6)" />
<use xlink:href="#f2_6" transform="matrix(11,0,0,11,412.3,523.6)" />
<use xlink:href="#f2_u" transform="matrix(11,0,0,11,419.8,523.6)" />
<use xlink:href="#f3_k" transform="matrix(11,0,0,11,425.5,523.6)" />
<use xlink:href="#f1_3" transform="matrix(12,0,0,12,348.3,524.9)" />
<use xlink:href="#f1_j" transform="matrix(12,0,0,12,360.3,524.9)" />
<use xlink:href="#f1_i" transform="matrix(12,0,0,12,370.6,524.9)" />
<use xlink:href="#f1_d" transform="matrix(12,0,0,12,383.6,524.9)" />
<use xlink:href="#f1_3" transform="matrix(12,0,0,12,264,524.9)" />
<use xlink:href="#f1_w" transform="matrix(12,0,0,12,274.7,524.9)" />
<use xlink:href="#f1_j" transform="matrix(12,0,0,12,275.9,524.9)" />
<use xlink:href="#f1_w" transform="matrix(12,0,0,12,286.7,524.9)" />
<use xlink:href="#f1_i" transform="matrix(12,0,0,12,286.3,524.9)" />
<use xlink:href="#f2_16" transform="matrix(11,0,0,11,139.5,523.6)" />
<use xlink:href="#f2_6" transform="matrix(11,0,0,11,146.9,523.6)" />
<use xlink:href="#f2_u" transform="matrix(11,0,0,11,154.4,523.6)" />
<use xlink:href="#f3_j" transform="matrix(11,0,0,11,160.1,523.6)" />
<use xlink:href="#f1_3" transform="matrix(12,0,0,12,618.1,547.6)" />
<use xlink:href="#f1_e" transform="matrix(12,0,0,12,630.1,547.6)" />
<use xlink:href="#f1_4" transform="matrix(12,0,0,12,635.1,547.6)" />
<use xlink:href="#f1_r" transform="matrix(12,0,0,12,645.6,547.6)" />
<use xlink:href="#f1_x" transform="matrix(12,0,0,12,525.1,547.6)" />
<use xlink:href="#f1_e" transform="matrix(12,0,0,12,525.1,547.6)" />
<use xlink:href="#f1_z" transform="matrix(12,0,0,12,530.1,547.6)" />
<use xlink:href="#f1_10" transform="matrix(12,0,0,12,540.5,547.6)" />
<use xlink:href="#f1_9" transform="matrix(12,0,0,12,542,547.6)" />
<use xlink:href="#f1_w" transform="matrix(12,0,0,12,553.1,547.6)" />
<use xlink:href="#f1_q" transform="matrix(12,0,0,12,552.4,547.6)" />
<use xlink:href="#f2_6" transform="matrix(11,0,0,11,404.9,546.2)" />
<use xlink:href="#f2_5" transform="matrix(11,0,0,11,412.3,546.2)" />
<use xlink:href="#f2_g" transform="matrix(11,0,0,11,416.9,546.2)" />
<use xlink:href="#f3_k" transform="matrix(11,0,0,11,421.7,546.2)" />
<use xlink:href="#f1_3" transform="matrix(12,0,0,12,340.8,547.6)" />
<use xlink:href="#f1_3" transform="matrix(12,0,0,12,352.8,547.6)" />
<use xlink:href="#f1_e" transform="matrix(12,0,0,12,364.7,547.6)" />
<use xlink:href="#f1_4" transform="matrix(12,0,0,12,369.7,547.6)" />
<use xlink:href="#f1_r" transform="matrix(12,0,0,12,380.2,547.6)" />
<use xlink:href="#f1_3" transform="matrix(12,0,0,12,252.8,547.6)" />
<use xlink:href="#f1_w" transform="matrix(12,0,0,12,265.2,547.6)" />
<use xlink:href="#f1_z" transform="matrix(12,0,0,12,264.7,547.6)" />
<use xlink:href="#f1_10" transform="matrix(12,0,0,12,275.1,547.6)" />
<use xlink:href="#f1_9" transform="matrix(12,0,0,12,276.6,547.6)" />
<use xlink:href="#f1_w" transform="matrix(12,0,0,12,287.8,547.6)" />
<use xlink:href="#f1_q" transform="matrix(12,0,0,12,287,547.6)" />
<use xlink:href="#f2_6" transform="matrix(11,0,0,11,139.5,546.2)" />
<use xlink:href="#f2_5" transform="matrix(11,0,0,11,146.9,546.2)" />
<use xlink:href="#f2_g" transform="matrix(11,0,0,11,151.5,546.2)" />
<use xlink:href="#f3_j" transform="matrix(11,0,0,11,156.3,546.2)" />
<use xlink:href="#f1_o" transform="matrix(12,0,0,12,355.2,590.8)" />
<use xlink:href="#f1_p" transform="matrix(12,0,0,12,367.4,590.8)" />
<use xlink:href="#f1_h" transform="matrix(12,0,0,12,378.3,590.8)" />
<use xlink:href="#f1_8" transform="matrix(12,0,0,12,396.6,590.8)" />
<use xlink:href="#f1_e" transform="matrix(12,0,0,12,408.6,590.8)" />
<use xlink:href="#f1_7" transform="matrix(12,0,0,12,413.6,590.8)" />
<use xlink:href="#f1_6" transform="matrix(12,0,0,12,426,590.8)" />
<use xlink:href="#f1_9" transform="matrix(12,0,0,12,439,590.8)" />
<use xlink:href="#f1_o" transform="matrix(12,0,0,12,456.4,590.8)" />
<use xlink:href="#f1_r" transform="matrix(12,0,0,12,468.6,590.8)" />
<use xlink:href="#f1_o" transform="matrix(12,0,0,12,483.1,590.8)" />
<use xlink:href="#f1_d" transform="matrix(12,0,0,12,495.1,590.8)" />
<use xlink:href="#f1_j" transform="matrix(12,0,0,12,499.2,590.8)" />
<use xlink:href="#f1_i" transform="matrix(12,0,0,12,509.6,590.8)" />
<use xlink:href="#f1_7" transform="matrix(12,0,0,12,522.6,590.8)" />
<use xlink:href="#f1_3" transform="matrix(12,0,0,12,535.1,590.8)" />
<use xlink:href="#f1_8" transform="matrix(12,0,0,12,554,590.8)" />
<use xlink:href="#f1_d" transform="matrix(12,0,0,12,566,590.8)" />
<use xlink:href="#f1_4" transform="matrix(12,0,0,12,570.1,590.8)" />
<use xlink:href="#f1_j" transform="matrix(12,0,0,12,580.7,590.8)" />
<use xlink:href="#f1_7" transform="matrix(12,0,0,12,591.1,590.8)" />
<use xlink:href="#f1_4" transform="matrix(12,0,0,12,603.6,590.8)" />
<use xlink:href="#f1_14" transform="matrix(12,0,0,12,620.9,590.8)" />
<use xlink:href="#f1_i" transform="matrix(12,0,0,12,632.7,590.8)" />
<use xlink:href="#f1_8" transform="matrix(12,0,0,12,645.7,590.8)" />
<use xlink:href="#f1_m" transform="matrix(12,0,0,12,664.7,590.8)" />
<use xlink:href="#f1_e" transform="matrix(12,0,0,12,669.6,590.8)" />
<use xlink:href="#f1_6" transform="matrix(12,0,0,12,674.7,590.8)" />
<use xlink:href="#f1_q" transform="matrix(12,0,0,12,687.6,590.8)" />
<use xlink:href="#f1_j" transform="matrix(12,0,0,12,699.9,590.8)" />
<use xlink:href="#f1_3" transform="matrix(12,0,0,12,710.3,590.8)" />
<use xlink:href="#f1_9" transform="matrix(12,0,0,12,729.3,590.8)" />
<use xlink:href="#f1_9" transform="matrix(12,0,0,12,739.7,590.8)" />
<use xlink:href="#f1_k" transform="matrix(12,0,0,12,750.1,590.8)" />
<use xlink:href="#f1_3" transform="matrix(12,0,0,12,759.7,590.8)" />
<use xlink:href="#f1_16" transform="matrix(7.5,0,0,7.5,347.4,583)" />
<use xlink:href="#f1_8" transform="matrix(12,0,0,12,137.8,590.8)" />
<use xlink:href="#f1_e" transform="matrix(12,0,0,12,149.9,590.8)" />
<use xlink:href="#f1_7" transform="matrix(12,0,0,12,154.9,590.8)" />
<use xlink:href="#f1_6" transform="matrix(12,0,0,12,167.2,590.8)" />
<use xlink:href="#f1_9" transform="matrix(12,0,0,12,180.2,590.8)" />
<use xlink:href="#f1_o" transform="matrix(12,0,0,12,197.6,590.8)" />
<use xlink:href="#f1_r" transform="matrix(12,0,0,12,209.8,590.8)" />
<use xlink:href="#f1_e" transform="matrix(12,0,0,12,217.3,590.8)" />
<use xlink:href="#f1_17" transform="matrix(12,0,0,12,229.2,590.8)" />
<use xlink:href="#f1_m" transform="matrix(12,0,0,12,236.3,590.8)" />
<use xlink:href="#f1_e" transform="matrix(12,0,0,12,241.4,590.8)" />
<use xlink:href="#f1_q" transform="matrix(12,0,0,12,246.4,590.8)" />
<use xlink:href="#f1_d" transform="matrix(12,0,0,12,258.6,590.8)" />
<use xlink:href="#f1_l" transform="matrix(12,0,0,12,262.6,590.8)" />
<use xlink:href="#f1_e" transform="matrix(12,0,0,12,269,590.8)" />
<use xlink:href="#f1_7" transform="matrix(12,0,0,12,273.9,590.8)" />
<use xlink:href="#f1_15" transform="matrix(12,0,0,12,293.6,590.8)" />
<use xlink:href="#f1_q" transform="matrix(12,0,0,12,299.4,590.8)" />
<use xlink:href="#f1_f" transform="matrix(12,0,0,12,311.6,590.8)" />
<use xlink:href="#f1_k" transform="matrix(12,0,0,12,323.5,590.8)" />
<use xlink:href="#f1_18" transform="matrix(12,0,0,12,333.1,590.8)" />
<use xlink:href="#f1_c" transform="matrix(12,0,0,12,640,612.5)" />
<use xlink:href="#f1_17" transform="matrix(12,0,0,12,645.8,612.5)" />
<use xlink:href="#f1_j" transform="matrix(12,0,0,12,652.8,612.5)" />
<use xlink:href="#f1_i" transform="matrix(12,0,0,12,663.2,612.5)" />
<use xlink:href="#f1_d" transform="matrix(12,0,0,12,676.2,612.5)" />
<use xlink:href="#f1_15" transform="matrix(12,0,0,12,686.2,612.5)" />
<use xlink:href="#f1_3" transform="matrix(12,0,0,12,692,612.5)" />
<use xlink:href="#f1_g" transform="matrix(12,0,0,12,704,612.5)" />
<use xlink:href="#f1_d" transform="matrix(12,0,0,12,715.4,612.5)" />
<use xlink:href="#f1_18" transform="matrix(12,0,0,12,719.5,612.5)" />
<use xlink:href="#f1_j" transform="matrix(12,0,0,12,732.5,612.5)" />
<use xlink:href="#f1_q" transform="matrix(12,0,0,12,742.9,612.5)" />
<use xlink:href="#f1_e" transform="matrix(12,0,0,12,755.1,612.5)" />
<use xlink:href="#f1_8" transform="matrix(12,0,0,12,760,612.5)" />
<use xlink:href="#f1_t" transform="matrix(12,0,0,12,258.3,633.9)" />
<use xlink:href="#f1_o" transform="matrix(12,0,0,12,264.5,633.9)" />
<use xlink:href="#f1_8" transform="matrix(12,0,0,12,276.7,633.9)" />
<use xlink:href="#f1_p" transform="matrix(12,0,0,12,288.7,633.9)" />
<use xlink:href="#f1_i" transform="matrix(12,0,0,12,299.6,633.9)" />
<use xlink:href="#f1_7" transform="matrix(12,0,0,12,312.4,633.9)" />
<use xlink:href="#f1_i" transform="matrix(12,0,0,12,330.7,633.9)" />
<use xlink:href="#f1_j" transform="matrix(12,0,0,12,343.7,633.9)" />
<use xlink:href="#f1_3" transform="matrix(12,0,0,12,359.9,633.9)" />
<use xlink:href="#f1_l" transform="matrix(12,0,0,12,371.8,633.9)" />
<use xlink:href="#f1_4" transform="matrix(12,0,0,12,384.3,633.9)" />
<use xlink:href="#f1_9" transform="matrix(12,0,0,12,394.8,633.9)" />
<use xlink:href="#f1_6" transform="matrix(12,0,0,12,405.2,633.9)" />
<use xlink:href="#f1_4" transform="matrix(12,0,0,12,418.2,633.9)" />
<use xlink:href="#f1_r" transform="matrix(12,0,0,12,434.5,633.9)" />
<use xlink:href="#f1_d" transform="matrix(12,0,0,12,442,633.9)" />
<use xlink:href="#f1_p" transform="matrix(12,0,0,12,446.1,633.9)" />
<use xlink:href="#f1_b" transform="matrix(12,0,0,12,457,633.9)" />
<use xlink:href="#f1_15" transform="matrix(12,0,0,12,470.3,633.9)" />
<use xlink:href="#f1_19" transform="matrix(12,0,0,12,476.1,633.9)" />
<use xlink:href="#f1_8" transform="matrix(12,0,0,12,484.5,633.9)" />
<use xlink:href="#f1_e" transform="matrix(12,0,0,12,496.5,633.9)" />
<use xlink:href="#f1_j" transform="matrix(12,0,0,12,501.4,633.9)" />
<use xlink:href="#f1_p" transform="matrix(12,0,0,12,511.8,633.9)" />
<use xlink:href="#f1_d" transform="matrix(12,0,0,12,528.5,633.9)" />
<use xlink:href="#f1_6" transform="matrix(12,0,0,12,532.6,633.9)" />
<use xlink:href="#f1_e" transform="matrix(12,0,0,12,545.5,633.9)" />
<use xlink:href="#f1_h" transform="matrix(12,0,0,12,550.6,633.9)" />
<use xlink:href="#f1_19" transform="matrix(12,0,0,12,562,633.9)" />
<use xlink:href="#f1_3" transform="matrix(12,0,0,12,576.4,633.9)" />
<use xlink:href="#f1_7" transform="matrix(12,0,0,12,588.3,633.9)" />
<use xlink:href="#f1_k" transform="matrix(12,0,0,12,600.8,633.9)" />
<use xlink:href="#f1_6" transform="matrix(12,0,0,12,616.2,633.9)" />
<use xlink:href="#f1_d" transform="matrix(12,0,0,12,629.2,633.9)" />
<use xlink:href="#f1_9" transform="matrix(12,0,0,12,639.2,633.9)" />
<use xlink:href="#f1_9" transform="matrix(12,0,0,12,649.6,633.9)" />
<use xlink:href="#f1_k" transform="matrix(12,0,0,12,660,633.9)" />
<use xlink:href="#f1_9" transform="matrix(12,0,0,12,675.5,633.9)" />
<use xlink:href="#f1_k" transform="matrix(12,0,0,12,685.9,633.9)" />
<use xlink:href="#f1_9" transform="matrix(12,0,0,12,695.5,633.9)" />
<use xlink:href="#f1_8" transform="matrix(12,0,0,12,711.8,633.9)" />
<use xlink:href="#f1_q" transform="matrix(12,0,0,12,723.7,633.9)" />
<use xlink:href="#f1_l" transform="matrix(12,0,0,12,736,633.9)" />
<use xlink:href="#f1_o" transform="matrix(12,0,0,12,748.2,633.9)" />
<use xlink:href="#f1_h" transform="matrix(12,0,0,12,760.4,633.9)" />
<use xlink:href="#f1_j" transform="matrix(12,0,0,12,486.3,674.7)" />
<use xlink:href="#f1_k" transform="matrix(12,0,0,12,496.7,674.7)" />
<use xlink:href="#f1_l" transform="matrix(12,0,0,12,506.3,674.7)" />
</g>
</g>
<path d="M486.3,676.5h26.4" class="g0_2" />
<g clip-path="url(#c0_2)">
<g fill="#000000" >
<use xlink:href="#f1_3" transform="matrix(12,0,0,12,398,674.7)" />
<use xlink:href="#f1_d" transform="matrix(12,0,0,12,409.9,674.7)" />
<use xlink:href="#f1_h" transform="matrix(12,0,0,12,414,674.7)" />
<use xlink:href="#f1_4" transform="matrix(12,0,0,12,425.5,674.7)" />
<use xlink:href="#f1_3" transform="matrix(12,0,0,12,436,674.7)" />
<use xlink:href="#f1_3" transform="matrix(12,0,0,12,260.6,674.7)" />
<use xlink:href="#f1_w" transform="matrix(12,0,0,12,273.6,674.7)" />
<use xlink:href="#f1_7" transform="matrix(12,0,0,12,272.5,674.7)" />
<use xlink:href="#f1_11" transform="matrix(12,0,0,12,283.5,674.7)" />
<use xlink:href="#f1_9" transform="matrix(12,0,0,12,285,674.7)" />
<use xlink:href="#f1_10" transform="matrix(12,0,0,12,295,674.7)" />
<use xlink:href="#f1_12" transform="matrix(12,0,0,12,293.6,674.7)" />
<use xlink:href="#f1_4" transform="matrix(12,0,0,12,295.4,674.7)" />
<use xlink:href="#f1_x" transform="matrix(12,0,0,12,306,674.7)" />
<use xlink:href="#f1_e" transform="matrix(12,0,0,12,306,674.7)" />
<use xlink:href="#f1_j" transform="matrix(12,0,0,12,311,674.7)" />
<use xlink:href="#f1_10" transform="matrix(12,0,0,12,320.8,674.7)" />
<use xlink:href="#f1_g" transform="matrix(12,0,0,12,321.3,674.7)" />
<use xlink:href="#f1_9" transform="matrix(12,0,0,12,338.6,674.7)" />
<use xlink:href="#f1_11" transform="matrix(12,0,0,12,349.7,674.7)" />
<use xlink:href="#f1_q" transform="matrix(12,0,0,12,349,674.7)" />
<use xlink:href="#f2_z" transform="matrix(11,0,0,11,139.5,673.3)" />
<use xlink:href="#f2_5" transform="matrix(11,0,0,11,149.7,673.3)" />
<use xlink:href="#f2_x" transform="matrix(11,0,0,11,158.7,673.3)" />
<use xlink:href="#f2_u" transform="matrix(11,0,0,11,167,673.3)" />
<use xlink:href="#f2_4" transform="matrix(11,0,0,11,172.6,673.3)" />
<use xlink:href="#f2_r" transform="matrix(11,0,0,11,181,673.3)" />
<use xlink:href="#f2_5" transform="matrix(11,0,0,11,189.4,673.3)" />
<use xlink:href="#f2_e" transform="matrix(11,0,0,11,194.1,673.3)" />
<use xlink:href="#f2_c" transform="matrix(11,0,0,11,201.4,673.3)" />
<use xlink:href="#f2_6" transform="matrix(11,0,0,11,214.6,673.3)" />
<use xlink:href="#f2_17" transform="matrix(11,0,0,11,222,673.3)" />
<use xlink:href="#f1_3" transform="matrix(12,0,0,12,400.1,699.3)" />
<use xlink:href="#f1_g" transform="matrix(12,0,0,12,412,699.3)" />
<use xlink:href="#f1_7" transform="matrix(12,0,0,12,423.5,699.3)" />
<use xlink:href="#f1_3" transform="matrix(12,0,0,12,436,699.3)" />
<use xlink:href="#f1_3" transform="matrix(12,0,0,12,297,699.3)" />
<use xlink:href="#f1_w" transform="matrix(12,0,0,12,308.3,699.3)" />
<use xlink:href="#f1_12" transform="matrix(12,0,0,12,310,699.3)" />
<use xlink:href="#f1_g" transform="matrix(12,0,0,12,308.9,699.3)" />
<use xlink:href="#f1_w" transform="matrix(12,0,0,12,321.4,699.3)" />
<use xlink:href="#f1_7" transform="matrix(12,0,0,12,320.4,699.3)" />
<use xlink:href="#f1_9" transform="matrix(12,0,0,12,338.7,699.3)" />
<use xlink:href="#f1_11" transform="matrix(12,0,0,12,349.8,699.3)" />
<use xlink:href="#f1_q" transform="matrix(12,0,0,12,349,699.3)" />
<use xlink:href="#f2_z" transform="matrix(11,0,0,11,139.5,697.9)" />
<use xlink:href="#f2_5" transform="matrix(11,0,0,11,149.7,697.9)" />
<use xlink:href="#f2_c" transform="matrix(11,0,0,11,158.7,697.9)" />
<use xlink:href="#f2_6" transform="matrix(11,0,0,11,171.7,697.9)" />
<use xlink:href="#f2_x" transform="matrix(11,0,0,11,179.2,697.9)" />
<use xlink:href="#f2_6" transform="matrix(11,0,0,11,187.6,697.9)" />
<use xlink:href="#f1_3" transform="matrix(12,0,0,12,469.9,737.9)" />
<use xlink:href="#f1_4" transform="matrix(12,0,0,12,481.9,737.9)" />
<use xlink:href="#f1_i" transform="matrix(12,0,0,12,492.4,737.9)" />
<use xlink:href="#f1_b" transform="matrix(12,0,0,12,505.4,737.9)" />
</g>
</g>
<path d="M469.8,739.8h42.9" class="g0_2" />
<g clip-path="url(#c0_2)">
<g fill="#000000" >
<use xlink:href="#f1_a" transform="matrix(12,0,0,12,421.8,737.9)" />
<use xlink:href="#f1_d" transform="matrix(12,0,0,12,431.9,737.9)" />
<use xlink:href="#f1_3" transform="matrix(12,0,0,12,436,737.9)" />
<use xlink:href="#f1_x" transform="matrix(12,0,0,12,308.3,737.9)" />
<use xlink:href="#f1_e" transform="matrix(12,0,0,12,308.3,737.9)" />
<use xlink:href="#f1_b" transform="matrix(12,0,0,12,313.3,737.9)" />
<use xlink:href="#f1_w" transform="matrix(12,0,0,12,321.7,737.9)" />
<use xlink:href="#f1_7" transform="matrix(12,0,0,12,320.5,737.9)" />
<use xlink:href="#f1_3" transform="matrix(12,0,0,12,339,737.9)" />
<use xlink:href="#f1_w" transform="matrix(12,0,0,12,349.4,737.9)" />
<use xlink:href="#f1_9" transform="matrix(12,0,0,12,350.9,737.9)" />
<use xlink:href="#f2_12" transform="matrix(11,0,0,11,139.5,736.5)" />
<use xlink:href="#f2_6" transform="matrix(11,0,0,11,149.7,736.5)" />
<use xlink:href="#f2_c" transform="matrix(11,0,0,11,161.5,736.5)" />
<use xlink:href="#f2_6" transform="matrix(11,0,0,11,174.4,736.5)" />
<use xlink:href="#f2_m" transform="matrix(11,0,0,11,181.9,736.5)" />
<use xlink:href="#f2_4" transform="matrix(11,0,0,11,190.3,736.5)" />
<use xlink:href="#f1_e" transform="matrix(12,0,0,12,406.5,759.3)" />
<use xlink:href="#f1_d" transform="matrix(12,0,0,12,411.6,759.3)" />
<use xlink:href="#f1_a" transform="matrix(12,0,0,12,415.7,759.3)" />
<use xlink:href="#f1_j" transform="matrix(12,0,0,12,425.6,759.3)" />
<use xlink:href="#f1_3" transform="matrix(12,0,0,12,436,759.3)" />
<use xlink:href="#f1_x" transform="matrix(12,0,0,12,303.7,759.3)" />
<use xlink:href="#f1_e" transform="matrix(12,0,0,12,303.7,759.3)" />
<use xlink:href="#f1_d" transform="matrix(12,0,0,12,308.6,759.3)" />
<use xlink:href="#f1_10" transform="matrix(12,0,0,12,313.6,759.3)" />
<use xlink:href="#f1_a" transform="matrix(12,0,0,12,312.7,759.3)" />
<use xlink:href="#f1_w" transform="matrix(12,0,0,12,321.6,759.3)" />
<use xlink:href="#f1_j" transform="matrix(12,0,0,12,322.6,759.3)" />
<use xlink:href="#f1_3" transform="matrix(12,0,0,12,339,759.3)" />
<use xlink:href="#f1_w" transform="matrix(12,0,0,12,349.4,759.3)" />
<use xlink:href="#f1_9" transform="matrix(12,0,0,12,350.9,759.3)" />
<use xlink:href="#f2_12" transform="matrix(11,0,0,11,139.5,757.9)" />
<use xlink:href="#f2_6" transform="matrix(11,0,0,11,149.7,757.9)" />
<use xlink:href="#f2_u" transform="matrix(11,0,0,11,161.5,757.9)" />
<use xlink:href="#f2_6" transform="matrix(11,0,0,11,166.9,757.9)" />
<use xlink:href="#f2_q" transform="matrix(11,0,0,11,174.4,757.9)" />
<use xlink:href="#f2_s" transform="matrix(11,0,0,11,182.8,757.9)" />
<use xlink:href="#f2_4" transform="matrix(11,0,0,11,187.5,757.9)" />
<use xlink:href="#f1_3" transform="matrix(12,0,0,12,387.3,780.7)" />
<use xlink:href="#f1_b" transform="matrix(12,0,0,12,399.2,780.7)" />
<use xlink:href="#f1_e" transform="matrix(12,0,0,12,406.5,780.7)" />
<use xlink:href="#f1_7" transform="matrix(12,0,0,12,411.4,780.7)" />
<use xlink:href="#f1_8" transform="matrix(12,0,0,12,423.9,780.7)" />
<use xlink:href="#f1_3" transform="matrix(12,0,0,12,436,780.7)" />
<use xlink:href="#f1_x" transform="matrix(12,0,0,12,299.8,780.7)" />
<use xlink:href="#f1_e" transform="matrix(12,0,0,12,299.8,780.7)" />
<use xlink:href="#f1_z" transform="matrix(12,0,0,12,304.8,780.7)" />
<use xlink:href="#f1_x" transform="matrix(12,0,0,12,316.7,780.7)" />
<use xlink:href="#f1_e" transform="matrix(12,0,0,12,316.7,780.7)" />
<use xlink:href="#f1_g" transform="matrix(12,0,0,12,321.6,780.7)" />
<use xlink:href="#f1_3" transform="matrix(12,0,0,12,339,780.7)" />
<use xlink:href="#f1_w" transform="matrix(12,0,0,12,349.4,780.7)" />
<use xlink:href="#f1_9" transform="matrix(12,0,0,12,350.9,780.7)" />
<use xlink:href="#f2_12" transform="matrix(11,0,0,11,139.5,779.3)" />
<use xlink:href="#f2_6" transform="matrix(11,0,0,11,149.7,779.3)" />
<use xlink:href="#f2_15" transform="matrix(11,0,0,11,161.5,779.3)" />
<use xlink:href="#f2_4" transform="matrix(11,0,0,11,166.9,779.3)" />
<use xlink:href="#f2_g" transform="matrix(11,0,0,11,175.3,779.3)" />
<use xlink:href="#f2_4" transform="matrix(11,0,0,11,180.1,779.3)" />
<use xlink:href="#f1_8" transform="matrix(12,0,0,12,717.6,802.1)" />
<use xlink:href="#f1_7" transform="matrix(12,0,0,12,729.5,802.1)" />
<use xlink:href="#f1_e" transform="matrix(12,0,0,12,742,802.1)" />
<use xlink:href="#f1_d" transform="matrix(12,0,0,12,747,802.1)" />
<use xlink:href="#f1_f" transform="matrix(12,0,0,12,751,802.1)" />
<use xlink:href="#f1_1a" transform="matrix(12,0,0,12,762.9,802.1)" />
<use xlink:href="#f2_c" transform="matrix(11,0,0,11,690.9,802.1)" />
<use xlink:href="#f2_6" transform="matrix(11,0,0,11,704,802.1)" />
<use xlink:href="#f1_t" transform="matrix(12,0,0,12,450.2,802.1)" />
<use xlink:href="#f1_j" transform="matrix(12,0,0,12,456.3,802.1)" />
<use xlink:href="#f1_k" transform="matrix(12,0,0,12,466.7,802.1)" />
<use xlink:href="#f1_l" transform="matrix(12,0,0,12,476.3,802.1)" />
<use xlink:href="#f1_9" transform="matrix(12,0,0,12,482.6,802.1)" />
<use xlink:href="#f1_d" transform="matrix(12,0,0,12,498.8,802.1)" />
<use xlink:href="#f1_b" transform="matrix(12,0,0,12,502.9,802.1)" />
<use xlink:href="#f1_d" transform="matrix(12,0,0,12,510.2,802.1)" />
<use xlink:href="#f1_d" transform="matrix(12,0,0,12,514.3,802.1)" />
<use xlink:href="#f1_g" transform="matrix(12,0,0,12,518.5,802.1)" />
<use xlink:href="#f1_e" transform="matrix(12,0,0,12,529.9,802.1)" />
<use xlink:href="#f1_q" transform="matrix(12,0,0,12,534.9,802.1)" />
<use xlink:href="#f1_6" transform="matrix(12,0,0,12,547.1,802.1)" />
<use xlink:href="#f1_d" transform="matrix(12,0,0,12,565.9,802.1)" />
<use xlink:href="#f1_a" transform="matrix(12,0,0,12,570,802.1)" />
<use xlink:href="#f1_e" transform="matrix(12,0,0,12,580,802.1)" />
<use xlink:href="#f1_n" transform="matrix(12,0,0,12,585,802.1)" />
<use xlink:href="#f1_d" transform="matrix(12,0,0,12,596.9,802.1)" />
<use xlink:href="#f1_d" transform="matrix(12,0,0,12,601,802.1)" />
<use xlink:href="#f1_r" transform="matrix(12,0,0,12,611.1,802.1)" />
<use xlink:href="#f1_d" transform="matrix(12,0,0,12,618.6,802.1)" />
<use xlink:href="#f1_j" transform="matrix(12,0,0,12,622.7,802.1)" />
<use xlink:href="#f1_n" transform="matrix(12,0,0,12,633,802.1)" />
<use xlink:href="#f1_q" transform="matrix(12,0,0,12,650.8,802.1)" />
<use xlink:href="#f1_d" transform="matrix(12,0,0,12,663,802.1)" />
<use xlink:href="#f1_3" transform="matrix(12,0,0,12,667.1,802.1)" />
<use xlink:href="#f2_z" transform="matrix(11,0,0,11,374.6,802.1)" />
<use xlink:href="#f2_5" transform="matrix(11,0,0,11,384.8,802.1)" />
<use xlink:href="#f2_f" transform="matrix(11,0,0,11,393.7,802.1)" />
<use xlink:href="#f2_s" transform="matrix(11,0,0,11,400.2,802.1)" />
<use xlink:href="#f2_f" transform="matrix(11,0,0,11,404.8,802.1)" />
<use xlink:href="#f2_g" transform="matrix(11,0,0,11,411.4,802.1)" />
<use xlink:href="#f2_e" transform="matrix(11,0,0,11,416.1,802.1)" />
<use xlink:href="#f2_c" transform="matrix(11,0,0,11,423.4,802.1)" />
<use xlink:href="#f2_6" transform="matrix(11,0,0,11,436.6,802.1)" />
<use xlink:href="#f1_c" transform="matrix(12,0,0,12,282.8,802.1)" />
<use xlink:href="#f1_8" transform="matrix(12,0,0,12,288.6,802.1)" />
<use xlink:href="#f1_k" transform="matrix(12,0,0,12,300.6,802.1)" />
<use xlink:href="#f1_j" transform="matrix(12,0,0,12,310.3,802.1)" />
<use xlink:href="#f1_h" transform="matrix(12,0,0,12,320.7,802.1)" />
<use xlink:href="#f1_7" transform="matrix(12,0,0,12,332.1,802.1)" />
<use xlink:href="#f1_3" transform="matrix(12,0,0,12,344.6,802.1)" />
<use xlink:href="#f1_1b" transform="matrix(12,0,0,12,362.3,802.1)" />
<use xlink:href="#f3_l" transform="matrix(16,0,0,16,717.9,894.1)" />
<use xlink:href="#f3_5" transform="matrix(16,0,0,16,729.8,894.1)" />
<use xlink:href="#f3_m" transform="matrix(16,0,0,16,736.3,894.1)" />
<use xlink:href="#f3_a" transform="matrix(16,0,0,16,744.7,894.1)" />
<use xlink:href="#f3_9" transform="matrix(16,0,0,16,757.1,894.1)" />
<use xlink:href="#f3_j" transform="matrix(16,0,0,16,543.4,894.1)" />
<use xlink:href="#f3_n" transform="matrix(16,0,0,16,562.5,894.1)" />
<use xlink:href="#f3_o" transform="matrix(16,0,0,16,576.5,894.1)" />
<use xlink:href="#f3_j" transform="matrix(16,0,0,16,587.7,894.1)" />
<use xlink:href="#f3_p" transform="matrix(16,0,0,16,600.3,894.1)" />
<use xlink:href="#f3_q" transform="matrix(16,0,0,16,611.4,894.1)" />
<use xlink:href="#f3_r" transform="matrix(16,0,0,16,620,894.1)" />
<use xlink:href="#f3_p" transform="matrix(16,0,0,16,627,894.1)" />
<use xlink:href="#f3_j" transform="matrix(16,0,0,16,638.3,894.1)" />
<use xlink:href="#f3_o" transform="matrix(16,0,0,16,650.8,894.1)" />
<use xlink:href="#f0_g" transform="matrix(12,0,0,12,723.8,935.8)" />
<use xlink:href="#f0_8" transform="matrix(12,0,0,12,735,935.8)" />
<use xlink:href="#f0_i" transform="matrix(12,0,0,12,740.3,935.8)" />
<use xlink:href="#f0_4" transform="matrix(12,0,0,12,748.6,935.8)" />
<use xlink:href="#f0_7" transform="matrix(12,0,0,12,759.6,935.8)" />
<use xlink:href="#f0_6" transform="matrix(12,0,0,12,704.6,935.8)" />
<use xlink:href="#f1_c" transform="matrix(12,0,0,12,242.3,935.8)" />
<use xlink:href="#f1_17" transform="matrix(12,0,0,12,248.1,935.8)" />
<use xlink:href="#f1_3" transform="matrix(12,0,0,12,255.3,935.8)" />
<use xlink:href="#f1_4" transform="matrix(12,0,0,12,267.2,935.8)" />
<use xlink:href="#f1_i" transform="matrix(12,0,0,12,277.7,935.8)" />
<use xlink:href="#f1_b" transform="matrix(12,0,0,12,290.7,935.8)" />
<use xlink:href="#f1_15" transform="matrix(12,0,0,12,304,935.8)" />
<use xlink:href="#f1_j" transform="matrix(12,0,0,12,309.8,935.8)" />
<use xlink:href="#f1_k" transform="matrix(12,0,0,12,320.2,935.8)" />
<use xlink:href="#f1_l" transform="matrix(12,0,0,12,329.8,935.8)" />
<use xlink:href="#f1_18" transform="matrix(12,0,0,12,336.1,935.8)" />
<use xlink:href="#f1_m" transform="matrix(12,0,0,12,349.2,935.8)" />
<use xlink:href="#f1_b" transform="matrix(12,0,0,12,354.1,935.8)" />
<use xlink:href="#f1_d" transform="matrix(12,0,0,12,361.4,935.8)" />
<use xlink:href="#f1_7" transform="matrix(12,0,0,12,365.5,935.8)" />
<use xlink:href="#f1_d" transform="matrix(12,0,0,12,383.9,935.8)" />
<use xlink:href="#f1_g" transform="matrix(12,0,0,12,388,935.8)" />
<use xlink:href="#f1_9" transform="matrix(12,0,0,12,399.4,935.8)" />
<use xlink:href="#f1_8" transform="matrix(12,0,0,12,415.6,935.8)" />
<use xlink:href="#f1_e" transform="matrix(12,0,0,12,427.7,935.8)" />
<use xlink:href="#f1_q" transform="matrix(12,0,0,12,432.7,935.8)" />
<use xlink:href="#f1_4" transform="matrix(12,0,0,12,444.9,935.8)" />
<use xlink:href="#f1_3" transform="matrix(12,0,0,12,455.4,935.8)" />
<use xlink:href="#f1_o" transform="matrix(12,0,0,12,473.3,935.8)" />
<use xlink:href="#f1_d" transform="matrix(12,0,0,12,485.4,935.8)" />
<use xlink:href="#f1_9" transform="matrix(12,0,0,12,489.5,935.8)" />
<use xlink:href="#f1_d" transform="matrix(12,0,0,12,499.9,935.8)" />
<use xlink:href="#f1_7" transform="matrix(12,0,0,12,504,935.8)" />
<use xlink:href="#f1_9" transform="matrix(12,0,0,12,516.5,935.8)" />
<use xlink:href="#f1_3" transform="matrix(12,0,0,12,532.7,935.8)" />
<use xlink:href="#f1_h" transform="matrix(12,0,0,12,544.6,935.8)" />
<use xlink:href="#f1_d" transform="matrix(12,0,0,12,556.1,935.8)" />
<use xlink:href="#f1_a" transform="matrix(12,0,0,12,560.2,935.8)" />
<use xlink:href="#f1_d" transform="matrix(12,0,0,12,570.2,935.8)" />
<use xlink:href="#f1_3" transform="matrix(12,0,0,12,574.3,935.8)" />
<use xlink:href="#f1_2" transform="matrix(12,0,0,12,592.2,935.8)" />
<use xlink:href="#f1_3" transform="matrix(12,0,0,12,597.2,935.8)" />
<use xlink:href="#f1_8" transform="matrix(12,0,0,12,614.9,935.8)" />
<use xlink:href="#f1_q" transform="matrix(12,0,0,12,627,935.8)" />
<use xlink:href="#f1_14" transform="matrix(12,0,0,12,645,935.8)" />
<use xlink:href="#f1_f" transform="matrix(12,0,0,12,656.8,935.8)" />
<use xlink:href="#f1_e" transform="matrix(12,0,0,12,668.7,935.8)" />
<use xlink:href="#f1_3" transform="matrix(12,0,0,12,673.7,935.8)" />
<use xlink:href="#f1_1b" transform="matrix(12,0,0,12,691.4,935.8)" />
<use xlink:href="#f1_16" transform="matrix(12,0,0,12,756.4,957.2)" />
<use xlink:href="#f1_c" transform="matrix(12,0,0,12,750.8,957.2)" />
<use xlink:href="#f2_m" transform="matrix(11,0,0,11,720.7,957.2)" />
<use xlink:href="#f2_s" transform="matrix(11,0,0,11,729.1,957.2)" />
<use xlink:href="#f2_10" transform="matrix(11,0,0,11,733.8,957.2)" />
<use xlink:href="#f2_4" transform="matrix(11,0,0,11,742.2,957.2)" />
<use xlink:href="#f1_1c" transform="matrix(12,0,0,12,669.8,957.2)" />
<use xlink:href="#f1_c" transform="matrix(12,0,0,12,664.1,957.2)" />
<use xlink:href="#f2_m" transform="matrix(11,0,0,11,629.1,957.2)" />
<use xlink:href="#f2_s" transform="matrix(11,0,0,11,637.4,957.2)" />
<use xlink:href="#f2_10" transform="matrix(11,0,0,11,642.1,957.2)" />
<use xlink:href="#f2_6" transform="matrix(11,0,0,11,650.5,957.2)" />
<use xlink:href="#f1_1d" transform="matrix(12,0,0,12,561.6,957.2)" />
<use xlink:href="#f1_c" transform="matrix(12,0,0,12,556,957.2)" />
<use xlink:href="#f2_13" transform="matrix(11,0,0,11,497.9,957.2)" />
<use xlink:href="#f2_e" transform="matrix(11,0,0,11,506.3,957.2)" />
<use xlink:href="#f2_u" transform="matrix(11,0,0,11,513.6,957.2)" />
<use xlink:href="#f2_c" transform="matrix(11,0,0,11,519.3,957.2)" />
<use xlink:href="#f2_6" transform="matrix(11,0,0,11,532.4,957.2)" />
<use xlink:href="#f2_m" transform="matrix(11,0,0,11,539.8,957.2)" />
<use xlink:href="#f2_6" transform="matrix(11,0,0,11,548.3,957.2)" />
<use xlink:href="#f1_1e" transform="matrix(12,0,0,12,420.8,957.2)" />
<use xlink:href="#f1_c" transform="matrix(12,0,0,12,415.1,957.2)" />
<use xlink:href="#f2_y" transform="matrix(11,0,0,11,375.7,957.2)" />
<use xlink:href="#f2_4" transform="matrix(11,0,0,11,384.1,957.2)" />
<use xlink:href="#f2_u" transform="matrix(11,0,0,11,392.5,957.2)" />
<use xlink:href="#f2_q" transform="matrix(11,0,0,11,398.1,957.2)" />
<use xlink:href="#f2_4" transform="matrix(11,0,0,11,406.5,957.2)" />
<use xlink:href="#f1_1f" transform="matrix(12,0,0,12,312.4,957.2)" />
<use xlink:href="#f1_c" transform="matrix(12,0,0,12,306.8,957.2)" />
<use xlink:href="#f2_r" transform="matrix(11,0,0,11,277.8,957.2)" />
<use xlink:href="#f2_6" transform="matrix(11,0,0,11,286.2,957.2)" />
<use xlink:href="#f2_14" transform="matrix(11,0,0,11,293.5,957.2)" />
<use xlink:href="#f2_4" transform="matrix(11,0,0,11,298.2,957.2)" />
<use xlink:href="#f1_1g" transform="matrix(12,0,0,12,750.6,978.5)" />
<use xlink:href="#f1_c" transform="matrix(12,0,0,12,744.9,978.5)" />
<use xlink:href="#f2_16" transform="matrix(11,0,0,11,716.8,978.5)" />
<use xlink:href="#f2_6" transform="matrix(11,0,0,11,724.2,978.5)" />
<use xlink:href="#f2_u" transform="matrix(11,0,0,11,731.6,978.5)" />
<use xlink:href="#f2_6" transform="matrix(11,0,0,11,737.3,978.5)" />
<use xlink:href="#f1_1h" transform="matrix(12,0,0,12,669.8,978.5)" />
<use xlink:href="#f1_c" transform="matrix(12,0,0,12,664.1,978.5)" />
<use xlink:href="#f2_r" transform="matrix(11,0,0,11,635.9,978.5)" />
<use xlink:href="#f2_6" transform="matrix(11,0,0,11,644.3,978.5)" />
<use xlink:href="#f2_14" transform="matrix(11,0,0,11,651.7,978.5)" />
<use xlink:href="#f2_6" transform="matrix(11,0,0,11,656.4,978.5)" />
<use xlink:href="#f1_1i" transform="matrix(12,0,0,12,561.6,978.5)" />
<use xlink:href="#f1_c" transform="matrix(12,0,0,12,556,978.5)" />
<use xlink:href="#f2_q" transform="matrix(11,0,0,11,502.5,978.5)" />
<use xlink:href="#f2_e" transform="matrix(11,0,0,11,510.9,978.5)" />
<use xlink:href="#f2_5" transform="matrix(11,0,0,11,518.4,978.5)" />
<use xlink:href="#f2_y" transform="matrix(11,0,0,11,523.1,978.5)" />
<use xlink:href="#f2_6" transform="matrix(11,0,0,11,531.5,978.5)" />
<use xlink:href="#f2_q" transform="matrix(11,0,0,11,538.9,978.5)" />
<use xlink:href="#f2_4" transform="matrix(11,0,0,11,547.3,978.5)" />
<use xlink:href="#f1_1j" transform="matrix(12,0,0,12,420.8,978.5)" />
<use xlink:href="#f1_c" transform="matrix(12,0,0,12,415.1,978.5)" />
<use xlink:href="#f2_x" transform="matrix(11,0,0,11,345.6,978.5)" />
<use xlink:href="#f2_u" transform="matrix(11,0,0,11,353.8,978.5)" />
<use xlink:href="#f2_4" transform="matrix(11,0,0,11,359.5,978.5)" />
<use xlink:href="#f2_r" transform="matrix(11,0,0,11,367.9,978.5)" />
<use xlink:href="#f2_5" transform="matrix(11,0,0,11,376.3,978.5)" />
<use xlink:href="#f2_e" transform="matrix(11,0,0,11,381,978.5)" />
<use xlink:href="#f2_c" transform="matrix(11,0,0,11,388.3,978.5)" />
<use xlink:href="#f2_6" transform="matrix(11,0,0,11,401.4,978.5)" />
</g>
<g fill="#0000FF" >
<use xlink:href="#f0_g" transform="matrix(12,0,0,12,639.2,1018.3)" />
<use xlink:href="#f0_8" transform="matrix(12,0,0,12,650.6,1018.3)" />
<use xlink:href="#f0_i" transform="matrix(12,0,0,12,656.4,1018.3)" />
<use xlink:href="#f0_4" transform="matrix(12,0,0,12,665,1018.3)" />
<use xlink:href="#f0_7" transform="matrix(12,0,0,12,676.3,1018.3)" />
<use xlink:href="#f0_g" transform="matrix(12,0,0,12,689.1,1018.3)" />
<use xlink:href="#f0_7" transform="matrix(12,0,0,12,707.5,1018.3)" />
<use xlink:href="#f0_c" transform="matrix(12,0,0,12,720.3,1018.3)" />
<use xlink:href="#f0_d" transform="matrix(12,0,0,12,727.1,1018.3)" />
<use xlink:href="#f0_c" transform="matrix(12,0,0,12,738.5,1018.3)" />
<use xlink:href="#f0_j" transform="matrix(12,0,0,12,745.2,1018.3)" />
<use xlink:href="#f0_7" transform="matrix(12,0,0,12,759.4,1018.3)" />
</g>
</g>
<path d="M632.3,1020.1H772.1" class="g2_2" />
<g clip-path="url(#c1_2)">
<path d="M631.9,1020.1h6.4" class="g2_2" />
</g>
<g clip-path="url(#c0_2)">
<g fill="#0000FF" >
<use xlink:href="#f0_6" transform="matrix(12,0,0,12,619.1,1018.3)" />
</g>
</g>
<path d="M619.1,1020.1h12.6" class="g2_2" />
<g clip-path="url(#c0_2)">
<g fill="#000000" >
<use xlink:href="#f1_16" transform="matrix(5.8,0,0,5.8,766.2,1145.4)" />
<use xlink:href="#f1_15" transform="matrix(10,0,0,10,137.5,1151.3)" />
<use xlink:href="#f1_j" transform="matrix(10,0,0,10,142.7,1151.3)" />
<use xlink:href="#f1_q" transform="matrix(10,0,0,10,151.7,1151.3)" />
<use xlink:href="#f1_e" transform="matrix(10,0,0,10,162.2,1151.3)" />
<use xlink:href="#f1_8" transform="matrix(10,0,0,10,166.8,1151.3)" />
<use xlink:href="#f1_8" transform="matrix(10,0,0,10,182.5,1151.3)" />
<use xlink:href="#f1_e" transform="matrix(10,0,0,10,192.9,1151.3)" />
<use xlink:href="#f1_7" transform="matrix(10,0,0,10,197.4,1151.3)" />
<use xlink:href="#f1_6" transform="matrix(10,0,0,10,208.1,1151.3)" />
<use xlink:href="#f1_c" transform="matrix(10,0,0,10,224.6,1151.3)" />
<use xlink:href="#f1_9" transform="matrix(10,0,0,10,229.9,1151.3)" />
<use xlink:href="#f1_q" transform="matrix(10,0,0,10,238.9,1151.3)" />
<use xlink:href="#f1_j" transform="matrix(10,0,0,10,249.6,1151.3)" />
<use xlink:href="#f1_6" transform="matrix(10,0,0,10,258.4,1151.3)" />
<use xlink:href="#f1_d" transform="matrix(10,0,0,10,269.7,1151.3)" />
<use xlink:href="#f1_15" transform="matrix(10,0,0,10,278.7,1151.3)" />
<use xlink:href="#f1_4" transform="matrix(10,0,0,10,283.9,1151.3)" />
<use xlink:href="#f1_6" transform="matrix(10,0,0,10,293.2,1151.3)" />
<use xlink:href="#f1_n" transform="matrix(10,0,0,10,304.3,1151.3)" />
<use xlink:href="#f1_7" transform="matrix(10,0,0,10,314.7,1151.3)" />
<use xlink:href="#f1_15" transform="matrix(10,0,0,10,330.7,1151.3)" />
<use xlink:href="#f1_m" transform="matrix(10,0,0,10,336,1151.3)" />
<use xlink:href="#f1_n" transform="matrix(10,0,0,10,340.5,1151.3)" />
<use xlink:href="#f1_9" transform="matrix(10,0,0,10,350.8,1151.3)" />
<use xlink:href="#f1_e" transform="matrix(10,0,0,10,359.8,1151.3)" />
<use xlink:href="#f1_6" transform="matrix(10,0,0,10,364.4,1151.3)" />
<use xlink:href="#f1_15" transform="matrix(10,0,0,10,380.9,1151.3)" />
<use xlink:href="#f1_4" transform="matrix(10,0,0,10,386,1151.3)" />
<use xlink:href="#f1_9" transform="matrix(10,0,0,10,395.3,1151.3)" />
<use xlink:href="#f1_k" transform="matrix(10,0,0,10,404.3,1151.3)" />
<use xlink:href="#f1_15" transform="matrix(10,0,0,10,418.1,1151.3)" />
<use xlink:href="#f1_a" transform="matrix(10,0,0,10,423.2,1151.3)" />
<use xlink:href="#f1_9" transform="matrix(10,0,0,10,432.1,1151.3)" />
<use xlink:href="#f1_d" transform="matrix(10,0,0,10,441.1,1151.3)" />
<use xlink:href="#f1_t" transform="matrix(10,0,0,10,450.1,1151.3)" />
<use xlink:href="#f1_9" transform="matrix(10,0,0,10,455.7,1151.3)" />
<use xlink:href="#f1_6" transform="matrix(10,0,0,10,464.7,1151.3)" />
<use xlink:href="#f1_7" transform="matrix(10,0,0,10,475.8,1151.3)" />
<use xlink:href="#f1_9" transform="matrix(10,0,0,10,486.5,1151.3)" />
<use xlink:href="#f1_o" transform="matrix(10,0,0,10,501,1151.3)" />
<use xlink:href="#f1_3" transform="matrix(10,0,0,10,511.5,1151.3)" />
<use xlink:href="#f1_17" transform="matrix(10,0,0,10,527.2,1151.3)" />
<use xlink:href="#f1_3" transform="matrix(10,0,0,10,533.5,1151.3)" />
<use xlink:href="#f1_4" transform="matrix(10,0,0,10,543.9,1151.3)" />
<use xlink:href="#f1_e" transform="matrix(10,0,0,10,553,1151.3)" />
<use xlink:href="#f1_6" transform="matrix(10,0,0,10,557.6,1151.3)" />
<use xlink:href="#f1_n" transform="matrix(10,0,0,10,568.7,1151.3)" />
<use xlink:href="#f1_3" transform="matrix(10,0,0,10,584.4,1151.3)" />
<use xlink:href="#f1_b" transform="matrix(10,0,0,10,594.6,1151.3)" />
<use xlink:href="#f1_d" transform="matrix(10,0,0,10,601.2,1151.3)" />
<use xlink:href="#f1_q" transform="matrix(10,0,0,10,604.8,1151.3)" />
<use xlink:href="#f1_3" transform="matrix(10,0,0,10,621,1151.3)" />
<use xlink:href="#f1_j" transform="matrix(10,0,0,10,631.2,1151.3)" />
<use xlink:href="#f1_a" transform="matrix(10,0,0,10,640.2,1151.3)" />
<use xlink:href="#f1_r" transform="matrix(10,0,0,10,648.9,1151.3)" />
<use xlink:href="#f1_3" transform="matrix(10,0,0,10,655.6,1151.3)" />
<use xlink:href="#f1_3" transform="matrix(10,0,0,10,665.9,1151.3)" />
<use xlink:href="#f1_18" transform="matrix(10,0,0,10,676.2,1151.3)" />
<use xlink:href="#f1_o" transform="matrix(10,0,0,10,688,1151.3)" />
<use xlink:href="#f1_p" transform="matrix(10,0,0,10,698.3,1151.3)" />
<use xlink:href="#f1_h" transform="matrix(10,0,0,10,707.6,1151.3)" />
<use xlink:href="#f1_8" transform="matrix(10,0,0,10,723,1151.3)" />
<use xlink:href="#f1_e" transform="matrix(10,0,0,10,733.4,1151.3)" />
<use xlink:href="#f1_7" transform="matrix(10,0,0,10,738,1151.3)" />
<use xlink:href="#f1_6" transform="matrix(10,0,0,10,748.7,1151.3)" />
<use xlink:href="#f1_c" transform="matrix(10,0,0,10,469.5,1172.7)" />
<use xlink:href="#f1_3" transform="matrix(10,0,0,10,474.7,1172.7)" />
<use xlink:href="#f1_j" transform="matrix(10,0,0,10,485,1172.7)" />
<use xlink:href="#f1_d" transform="matrix(10,0,0,10,493.9,1172.7)" />
<use xlink:href="#f1_3" transform="matrix(10,0,0,10,497.7,1172.7)" />
<use xlink:href="#f1_7" transform="matrix(10,0,0,10,507.9,1172.7)" />
<use xlink:href="#f1_15" transform="matrix(10,0,0,10,523.9,1172.7)" />
<use xlink:href="#f1_9" transform="matrix(10,0,0,10,529.1,1172.7)" />
<use xlink:href="#f1_e" transform="matrix(10,0,0,10,538.3,1172.7)" />
<use xlink:href="#f1_a" transform="matrix(10,0,0,10,542.7,1172.7)" />
<use xlink:href="#f1_r" transform="matrix(10,0,0,10,551.4,1172.7)" />
<use xlink:href="#f1_15" transform="matrix(10,0,0,10,563.4,1172.7)" />
<use xlink:href="#f1_3" transform="matrix(10,0,0,10,568.7,1172.7)" />
<use xlink:href="#f1_g" transform="matrix(10,0,0,10,579,1172.7)" />
<use xlink:href="#f1_d" transform="matrix(10,0,0,10,588.9,1172.7)" />
<use xlink:href="#f1_t" transform="matrix(10,0,0,10,597.9,1172.7)" />
<use xlink:href="#f1_o" transform="matrix(10,0,0,10,603.3,1172.7)" />
<use xlink:href="#f1_p" transform="matrix(10,0,0,10,613.9,1172.7)" />
<use xlink:href="#f1_h" transform="matrix(10,0,0,10,623.2,1172.7)" />
<use xlink:href="#f1_3" transform="matrix(10,0,0,10,633.2,1172.7)" />
<use xlink:href="#f1_8" transform="matrix(10,0,0,10,648.6,1172.7)" />
<use xlink:href="#f1_e" transform="matrix(10,0,0,10,659.2,1172.7)" />
<use xlink:href="#f1_7" transform="matrix(10,0,0,10,663.6,1172.7)" />
<use xlink:href="#f1_6" transform="matrix(10,0,0,10,674.4,1172.7)" />
<use xlink:href="#f1_8" transform="matrix(10,0,0,10,690.7,1172.7)" />
<use xlink:href="#f1_q" transform="matrix(10,0,0,10,701.1,1172.7)" />
<use xlink:href="#f1_o" transform="matrix(10,0,0,10,717.1,1172.7)" />
<use xlink:href="#f1_d" transform="matrix(10,0,0,10,727.6,1172.7)" />
<use xlink:href="#f1_j" transform="matrix(10,0,0,10,731.3,1172.7)" />
<use xlink:href="#f1_q" transform="matrix(10,0,0,10,740.3,1172.7)" />
<use xlink:href="#f1_8" transform="matrix(10,0,0,10,750.8,1172.7)" />
<use xlink:href="#f1_7" transform="matrix(10,0,0,10,761.2,1172.7)" />
<use xlink:href="#f1_1c" transform="matrix(12,0,0,12,137.7,1208.5)" />
</g>
</g>
<path fill-rule="evenodd" d="M613.4,1119.9H772v-.7H613.4v.7Z" class="g3_2" />
<image preserveAspectRatio="none" x="413" y="1030" width="229" height="200" xlink:href="img/1.png" />
<defs>
<path d="M248,0L521,658H66v429H313V836l493,-1V716L504,0Z" 
id="f0_g"
transform="scale(0.001,-0.001)" />

<path d="M66,0V177H334c0,0,99,0,150,66c0,0,51,67,51,175c0,0,0,108,-51,175c0,0,-51,66,-150,66H66V836H334c0,0,92,0,168,-24c0,0,75,-24,127,-64c0,0,51,-40,86,-94c0,0,35,-54,51,-113c0,0,15,-60,15,-123c0,0,0,-63,-15,-123c0,0,-16,-59,-51,-113c0,0,-35,-54,-86,-94C629,88,577,48,502,24C502,24,426,0,334,0Z" 
id="f0_h"
transform="scale(0.001,-0.001)" />

<path d="M180,0V198H433V918L173,864v196l258,54H705V198H958V0Z" 
id="f0_6"
transform="scale(0.001,-0.001)" />

<path d="M112,-5c0,0,-39,0,-97,11V113c0,0,48,-10,77,-10c0,0,53,0,70,42c0,0,17,43,17,164V729H50V836H501c0,0,107,0,179,-25c0,0,72,-25,112,-77c0,0,40,-51,57,-118c0,0,16,-67,16,-164V0H726V454c0,0,0,55,-3,92c0,0,-4,37,-17,75c0,0,-14,38,-38,59c0,0,-24,22,-65,36c0,0,-42,13,-102,13H318V309c0,0,0,-160,-46,-237C272,72,226,-5,112,-5Z" 
id="f1_8"
transform="scale(0.001,-0.001)" />

<path d="M114,0l60,312c0,0,2,12,8,39c0,0,6,27,7,37c0,0,2,11,5,30c0,0,2,19,4,33c0,0,1,15,1,31c0,0,0,48,-35,146c0,0,-35,98,-98,208H228c0,0,3,-8,27,-67c0,0,25,-58,41,-117c0,0,21,53,50,90c0,0,29,37,57,57c0,0,29,21,65,32c0,0,37,11,65,14c0,0,28,3,67,3c0,0,300,0,300,-396V0H480V106H761V452c0,0,0,146,-46,215c0,0,-45,70,-118,70c0,0,-134,0,-198,-119c0,0,-36,-68,-67,-222c0,0,-2,-10,-6,-27L253,0Z" 
id="f1_7"
transform="scale(0.001,-0.001)" />

<path d="M139,0V836H278V0Z" 
id="f1_e"
transform="scale(0.001,-0.001)" />

<path d="M102,312V836H241V369L102,312Z" 
id="f1_d"
transform="scale(0.001,-0.001)" />

<path d="M522,92c0,0,247,0,247,333c0,0,0,88,-17,146c0,0,-17,58,-53,91c0,0,-35,33,-82,46c0,0,-48,14,-116,14H276V419c0,0,0,-327,246,-327Zm0,-112c0,0,-193,0,-289,109c0,0,-95,110,-95,337V836H501c0,0,213,0,309,-93c0,0,96,-94,96,-317c0,0,0,-227,-95,-337C811,89,715,-20,522,-20Z" 
id="f1_f"
transform="scale(0.001,-0.001)" />

<path d="M377,45c0,0,99,0,147,73c0,0,47,73,47,237c0,0,0,161,-47,233c0,0,-47,72,-147,72c0,0,-97,0,-141,-69c0,0,-44,-69,-44,-236c0,0,0,-169,45,-240c0,0,44,-70,140,-70Zm0,-59c0,0,-158,0,-238,94c0,0,-81,95,-81,274c0,0,0,178,81,272c0,0,80,94,244,94c0,0,160,0,241,-92c0,0,82,-92,82,-274c0,0,0,-368,-329,-368Z" 
id="f2_4"
transform="scale(0.001,-0.001)" />

<path d="M179,0V190H336V0Zm0,600V790H336V600Z" 
id="f1_t"
transform="scale(0.001,-0.001)" />

<path d="M585,0V426c0,0,0,54,-8,98c0,0,-8,44,-27,83c0,0,-19,40,-49,66c0,0,-30,26,-77,41c0,0,-47,15,-108,15H66V836H315c0,0,94,0,166,-20c0,0,71,-20,116,-54c0,0,46,-35,75,-88c0,0,28,-52,40,-112c0,0,12,-60,12,-137V0Z" 
id="f1_j"
transform="scale(0.001,-0.001)" />

<path d="M66,0V106H322c0,0,75,0,127,23c0,0,53,23,82,67c0,0,29,43,42,98c0,0,13,54,13,124c0,0,0,70,-13,124c0,0,-13,55,-42,98c0,0,-29,44,-82,67c0,0,-52,23,-127,23H66V836H322c0,0,87,0,157,-24c0,0,70,-24,115,-64c0,0,45,-40,74,-94c0,0,30,-55,43,-113c0,0,13,-59,13,-123c0,0,0,-64,-13,-123c0,0,-13,-58,-43,-113c0,0,-29,-54,-74,-94C594,88,549,48,479,24C479,24,409,0,322,0Z" 
id="f1_k"
transform="scale(0.001,-0.001)" />

<path d="M152,0V473c0,0,0,94,28,161c0,0,29,66,71,95H66V836H463V729H404c0,0,-65,0,-89,-57c0,0,-25,-58,-25,-199V0Z" 
id="f1_l"
transform="scale(0.001,-0.001)" />

<path d="M287,0L589,729H66v386H205V836l547,-1l-2,-82L433,0Z" 
id="f1_9"
transform="scale(0.001,-0.001)" />

<path d="M44,0V40L172,60V941L44,960v40H794V760H745L721,922c0,0,-83,11,-241,11H316V543H586l23,119h48V354H609L586,475H316V67H513c0,0,193,0,252,12l43,185h49L843,0Z" 
id="f2_z"
transform="scale(0.001,-0.001)" />

<path d="M31,0V33L150,52v956L31,1026v34H274V52L394,33V0Z" 
id="f2_5"
transform="scale(0.001,-0.001)" />

<path d="M439,0V33l93,19V500c0,0,0,62,-30,97c0,0,-31,36,-94,36c0,0,-67,0,-165,-22V52L338,33V0H35V33l84,19V649L35,668v33H235l7,-57c0,0,57,33,122,54c0,0,65,22,108,22c0,0,91,0,137,-53c0,0,47,-53,47,-154V52L741,33V0Z" 
id="f2_m"
transform="scale(0.001,-0.001)" />

<path d="M32,0V33L151,52V649L52,668v33H275V52L395,33V0ZM201,850c0,0,-32,0,-56,24c0,0,-24,24,-24,56c0,0,0,34,24,58c0,0,24,24,56,24c0,0,34,0,58,-24c0,0,24,-24,24,-58c0,0,0,-32,-24,-56c0,0,-24,-24,-58,-24Z" 
id="f2_s"
transform="scale(0.001,-0.001)" />

<path d="M35,0V34l84,18V649L35,668v33H235l7,-56c0,0,57,32,122,54c0,0,65,21,108,21c0,0,91,0,137,-53c0,0,47,-53,47,-154V52L741,34V0H439V34l93,18V500c0,0,0,62,-30,97c0,0,-31,36,-94,36c0,0,-67,0,-165,-22V52L338,34V0ZM481,834c0,0,-36,0,-66,16c0,0,-30,16,-57,36c0,0,-27,20,-52,36c0,0,-25,16,-49,16c0,0,-24,0,-39,-9c0,0,-14,-9,-23,-26c0,0,-8,-17,-13,-54H143c0,0,11,180,146,180c0,0,36,0,66,-16c0,0,30,-16,57,-35c0,0,27,-20,52,-36c0,0,25,-16,49,-16c0,0,32,0,50,18c0,0,18,19,25,70h39c0,0,-12,-180,-146,-180Z" 
id="f2_10"
transform="scale(0.001,-0.001)" />

<path d="M379,60c0,0,59,0,84,64c0,0,24,65,24,231c0,0,0,164,-24,227c0,0,-24,63,-84,63c0,0,-57,0,-80,-60c0,0,-22,-61,-22,-230c0,0,0,-173,23,-234c0,0,22,-61,79,-61Zm-2,-74c0,0,-161,0,-240,91c0,0,-79,91,-79,277c0,0,0,186,80,276c0,0,81,90,245,90c0,0,167,0,245,-93c0,0,78,-93,78,-273c0,0,0,-188,-81,-278c0,0,-81,-90,-248,-90Z" 
id="f3_k"
transform="scale(0.001,-0.001)" />

<path d="M284,67c0,0,51,0,88,12c0,0,37,12,74,30V358l-98,-3c0,0,-100,-4,-135,-39c0,0,-35,-35,-35,-117c0,0,0,-132,106,-132ZM233,-14c0,0,-179,0,-179,208c0,0,0,70,27,116c0,0,27,46,87,70c0,0,60,24,173,27l105,3V519c0,0,0,72,-26,107c0,0,-27,34,-82,34c0,0,-75,0,-137,-35L176,538H134V691c0,0,121,26,213,26c0,0,115,0,169,-47c0,0,54,-47,54,-144V52L657,33V0H465L451,70c0,0,-85,-84,-218,-84Z" 
id="f2_6"
transform="scale(0.001,-0.001)" />

<path d="M154,0V454l138,56V0ZM722,0V454c0,0,0,161,-49,218c0,0,-48,57,-186,57H139V836H485c0,0,207,0,291,-93c0,0,83,-94,83,-318V0Z" 
id="f1_3"
transform="scale(0.001,-0.001)" />

<path d="M66,0V107H554V452c0,0,0,56,-4,93c0,0,-4,37,-18,75c0,0,-14,38,-40,60c0,0,-26,22,-71,36c0,0,-45,13,-110,13H66V836H312c0,0,91,0,157,-17c0,0,66,-17,109,-49c0,0,44,-32,69,-84c0,0,26,-52,36,-114c0,0,10,-62,10,-147V107H817V0Z" 
id="f1_4"
transform="scale(0.001,-0.001)" />

<path d="M156,-317V454l139,56V-317ZM505,0L806,729H139V835H967V753L650,0Z" 
id="f1_i"
transform="scale(0.001,-0.001)" />

<path d="M66,0V107H332V555c0,0,0,92,-37,133c0,0,-37,41,-116,41H85V836h94c0,0,153,0,223,-66c0,0,69,-66,69,-231V0Z" 
id="f1_b"
transform="scale(0.001,-0.001)" />

<path d="M44,0V40L172,60V941L44,960v40H471V960L316,941V65H513c0,0,159,0,234,14l46,208h48L828,0Z" 
id="f2_12"
transform="scale(0.001,-0.001)" />

<path d="M345,75c0,0,50,0,110,26V351l-63,-2c0,0,-72,-3,-100,-38c0,0,-28,-35,-28,-113c0,0,0,-63,22,-93c0,0,23,-30,59,-30ZM266,-14c0,0,-217,0,-217,208c0,0,0,79,32,126c0,0,32,48,93,71c0,0,60,22,190,25l91,2V521c0,0,0,126,-104,126c0,0,-62,0,-140,-39L183,521H134V691c0,0,112,17,165,21c0,0,53,5,108,5c0,0,264,0,264,-194V67L741,49V0H483L466,54C466,54,408,14,361,0c0,0,-47,-14,-95,-14Z" 
id="f3_j"
transform="scale(0.001,-0.001)" />

<path d="M180,0L66,836H203L258,443c0,0,36,1,64,6c0,0,28,6,49,18c0,0,20,12,35,26c0,0,15,13,26,36c0,0,11,24,17,44c0,0,7,20,12,55c0,0,6,34,9,60c0,0,3,26,8,71c0,0,4,45,9,77H610c0,0,-13,-194,-31,-271c0,0,-31,-127,-111,-179c0,0,-71,-45,-196,-50L304,107c0,0,73,0,130,5c0,0,56,6,111,21c0,0,54,15,94,40c0,0,40,25,77,64c0,0,37,39,63,94c0,0,25,54,46,128c0,0,21,73,34,166c0,0,13,94,20,211h138c0,0,-14,-124,-29,-218c0,0,-16,-94,-39,-179c0,0,-22,-85,-50,-146c0,0,-28,-61,-68,-112c0,0,-39,-51,-87,-84C744,97,696,65,632,42C632,42,568,19,492,10C492,10,417,0,320,0Z" 
id="f1_6"
transform="scale(0.001,-0.001)" />

<path d="M139,0V836H485c0,0,206,0,290,-90c0,0,84,-89,84,-294V0H721V473c0,0,0,147,-49,202c0,0,-48,54,-186,54H277V0Z" 
id="f1_n"
transform="scale(0.001,-0.001)" />

<path d="M117,-176L179,62V190H336V62L213,-176Z" 
id="f1_15"
transform="scale(0.001,-0.001)" />

<path d="M139,-317V836H278V-317Z" 
id="f1_m"
transform="scale(0.001,-0.001)" />

<path d="M66,0V106H564L66,836H228L516,413c0,0,3,2,9,6c0,0,17,13,27,21c0,0,10,8,26,27c0,0,17,20,26,40c0,0,9,21,16,54c0,0,7,34,7,75V836H764V698c0,0,0,-55,-7,-102c0,0,-7,-47,-16,-79c0,0,-10,-33,-27,-62c0,0,-18,-29,-32,-46c0,0,-14,-17,-37,-35c0,0,-22,-17,-36,-25c0,0,-13,-8,-36,-20L767,53V0Z" 
id="f1_p"
transform="scale(0.001,-0.001)" />

<path d="M163,0V190H321V0Z" 
id="f1_c"
transform="scale(0.001,-0.001)" />

<path d="M736,107V473c0,0,0,147,-48,202c0,0,-49,54,-187,54H278V107ZM139,0V836H499c0,0,105,0,177,-22c0,0,72,-21,116,-69c0,0,44,-49,64,-119c0,0,19,-71,19,-174V0Z" 
id="f1_o"
transform="scale(0.001,-0.001)" />

<path d="M139,0V138c0,0,0,61,8,112c0,0,7,52,19,87c0,0,11,36,30,66c0,0,19,31,35,49c0,0,17,19,41,35c0,0,25,17,41,25c0,0,17,7,40,17L141,836H303L613,388c0,0,20,10,33,18c0,0,13,8,34,28c0,0,20,20,33,44c0,0,13,25,22,66c0,0,10,41,10,92V836H882V698c0,0,0,-61,-7,-112c0,0,-6,-52,-18,-88c0,0,-12,-36,-30,-66c0,0,-19,-30,-36,-49c0,0,-17,-18,-41,-34c0,0,-24,-17,-40,-25c0,0,-17,-8,-41,-17L882,0H720L409,448c0,0,-21,-11,-34,-19c0,0,-13,-8,-34,-27c0,0,-21,-20,-34,-44c0,0,-12,-25,-22,-66c0,0,-9,-41,-9,-92V0Z" 
id="f1_q"
transform="scale(0.001,-0.001)" />

<path d="M71,-141V-15L289,62L66,836H210L416,109c0,0,99,42,153,98c0,0,53,56,80,155c0,0,26,98,26,262V836H817V624c0,0,0,-88,-7,-154c0,0,-7,-67,-25,-132c0,0,-18,-66,-51,-116c0,0,-33,-51,-84,-98c0,0,-50,-48,-123,-87c0,0,-72,-39,-169,-74L71,-141Z" 
id="f1_h"
transform="scale(0.001,-0.001)" />

<path d="M495,0V729H66V836H781V729H634V0Z" 
id="f1_a"
transform="scale(0.001,-0.001)" />

<path d="M147,700v414H274V700Z" 
id="f1_2"
transform="scale(0.001,-0.001)" />

<path d="M138,-7c0,0,-34,0,-72,10V129c0,0,25,-8,52,-8c0,0,33,0,58,5c0,0,26,5,58,24c0,0,33,20,53,54c0,0,21,34,36,97c0,0,15,64,15,151c0,0,0,113,-19,173c0,0,-19,60,-56,82c0,0,-38,22,-107,22H89V836h72c0,0,165,0,240,-91c0,0,76,-91,76,-293c0,0,0,-107,26,-227c0,0,25,-119,83,-225H437c0,0,-43,101,-62,184c0,0,-24,-60,-51,-99c0,0,-26,-38,-56,-58C268,27,239,7,209,0c0,0,-30,-7,-71,-7Z" 
id="f1_r"
transform="scale(0.001,-0.001)" />

<path d="M433,-329v111H545V-329Zm-93,185V-32H452V-144Zm186,0V-32H638V-144Z" 
id="f1_11"
transform="scale(0.001,-0.001)" />

<path d="M139,0V106H400c0,0,176,0,253,71c0,0,78,72,78,250c0,0,0,163,-80,233c0,0,-81,69,-250,69H278L277,564c0,0,-1,-54,26,-80c0,0,27,-25,82,-25c0,0,30,0,80,9V355c0,0,-61,-12,-111,-12c0,0,-100,0,-157,55c0,0,-58,55,-58,186V836H456c0,0,193,0,303,-109c0,0,110,-109,110,-309c0,0,0,-200,-110,-309C759,109,648,0,456,0Z" 
id="f1_g"
transform="scale(0.001,-0.001)" />

<path d="M433,-292v111H265V-69H713V-181H545V-292Z" 
id="f1_w"
transform="scale(0.001,-0.001)" />

<path d="M0,955v112H111V955Z" 
id="f1_x"
transform="scale(0.001,-0.001)" />

<path d="M522,-20c0,0,-196,0,-290,99c0,0,-94,100,-94,324V836H276V397c0,0,0,-86,16,-147c0,0,17,-60,50,-94c0,0,34,-34,77,-49c0,0,43,-15,103,-15c0,0,59,0,102,15c0,0,44,15,77,49c0,0,33,34,50,94c0,0,17,61,17,147c0,0,0,84,-8,143c0,0,-7,58,-25,105c0,0,-17,47,-51,69c0,0,-33,23,-83,23c0,0,-50,0,-119,-22V821c0,0,85,23,150,23c0,0,76,0,130,-30c0,0,53,-31,85,-90c0,0,31,-59,45,-138c0,0,13,-78,13,-183c0,0,0,-224,-93,-324c0,0,-94,-99,-290,-99Z" 
id="f1_z"
transform="scale(0.001,-0.001)" />

<path d="M433,-241v111H545V-241Z" 
id="f1_13"
transform="scale(0.001,-0.001)" />

<path d="M441,362V473H552V362Z" 
id="f1_12"
transform="scale(0.001,-0.001)" />

<path d="M376,50c0,0,103,0,149,80c0,0,46,81,46,240c0,0,0,137,-47,204c0,0,-48,67,-148,67c0,0,-44,0,-87,-7c0,0,-44,-8,-63,-17V62c0,0,63,-12,150,-12Zm3,-64c0,0,-64,0,-141,14c0,0,-78,14,-136,37v971L0,1026v34H226V809c0,0,0,-40,-4,-148c0,0,74,59,188,59c0,0,143,0,219,-87c0,0,77,-87,77,-263c0,0,0,-189,-84,-287c0,0,-84,-97,-243,-97Z" 
id="f2_r"
transform="scale(0.001,-0.001)" />

<path d="M249,-14c0,0,-71,0,-107,42c0,0,-35,42,-35,119V639H15v33l93,29l76,159h47V701H391V639H231V161c0,0,0,-48,22,-73c0,0,22,-24,57,-24c0,0,44,0,106,12V26C416,26,389,8,340,-2c0,0,-49,-12,-91,-12Z" 
id="f2_g"
transform="scale(0.001,-0.001)" />

<path d="M433,-329v111H545V-329Zm0,185V-32H545V-144Z" 
id="f1_10"
transform="scale(0.001,-0.001)" />

<path d="M359,-270c0,0,124,0,192,46c0,0,67,47,67,129c0,0,0,43,-26,67c0,0,-26,24,-79,24H242c0,0,-32,-27,-51,-69c0,0,-20,-41,-20,-77c0,0,0,-64,46,-92c0,0,46,-28,142,-28Zm11,561c0,0,81,0,115,47c0,0,34,47,34,141c0,0,0,100,-35,142c0,0,-35,42,-113,42c0,0,-78,0,-114,-43c0,0,-37,-42,-37,-141c0,0,0,-98,36,-143c0,0,36,-45,114,-45ZM359,-329c0,0,-143,0,-218,44c0,0,-75,43,-75,125c0,0,0,39,27,78c0,0,26,38,98,89c0,0,-43,14,-72,48c0,0,-29,35,-29,74L208,262c0,0,-118,55,-118,217c0,0,0,115,73,178c0,0,73,63,211,63c0,0,28,0,71,-6c0,0,44,-6,67,-13l165,83l26,-32L599,644c0,0,50,-56,50,-165c0,0,0,-120,-72,-182c0,0,-73,-62,-208,-62c0,0,-62,0,-114,11L208,148c0,0,2,-13,29,-24c0,0,27,-12,67,-12H512c0,0,113,0,168,-49c0,0,55,-49,55,-134c0,0,0,-79,-44,-137c0,0,-43,-58,-128,-90c0,0,-84,-31,-204,-31Z" 
id="f2_y"
transform="scale(0.001,-0.001)" />

<path d="M31,0V33l88,19V649L31,668v33H235l7,-87c0,0,44,37,121,71c0,0,76,35,121,35h11V530H463l-43,82c0,0,-37,0,-88,-10c0,0,-52,-10,-89,-26V52L363,33V0Z" 
id="f2_u"
transform="scale(0.001,-0.001)" />

<path d="M383,64c0,0,85,0,152,28V645c0,0,-67,13,-152,13c0,0,-194,0,-194,-314c0,0,0,-141,48,-211c0,0,48,-69,146,-69ZM342,-14c0,0,-287,0,-287,358c0,0,0,184,82,280c0,0,81,96,239,96c0,0,81,0,163,-18c0,0,-4,25,-4,124v182l-118,18v34H659V52L745,33V0H548l-9,52c0,0,-84,-66,-197,-66Z" 
id="f2_q"
transform="scale(0.001,-0.001)" />

<path d="M543,-317V369c0,0,0,85,-8,143c0,0,-8,58,-27,101c0,0,-18,44,-51,69c0,0,-33,24,-80,36c0,0,-48,11,-117,11H66V836H257c0,0,125,0,205,-23c0,0,80,-23,130,-79c0,0,50,-56,70,-143c0,0,20,-86,20,-222V-317Z" 
id="f1_s"
transform="scale(0.001,-0.001)" />

<path d="M64,-325c0,0,-46,0,-107,14v148H-8l19,-81c0,0,25,-21,62,-21c0,0,44,0,67,47c0,0,22,47,22,152V649L57,668v33H286V-28c0,0,0,-146,-57,-221c0,0,-56,-76,-165,-76ZM213,850c0,0,-34,0,-58,24c0,0,-24,24,-24,56c0,0,0,34,24,58c0,0,24,24,58,24c0,0,32,0,56,-24c0,0,24,-24,24,-58c0,0,0,-32,-24,-56c0,0,-24,-24,-56,-24Z" 
id="f2_14"
transform="scale(0.001,-0.001)" />

<path d="M64,0V34L168,59V639H47v36l121,29v49c0,0,0,155,61,239c0,0,62,84,173,84c0,0,58,0,107,-15V908H472l-33,92c0,0,-26,16,-62,16c0,0,-47,0,-66,-42c0,0,-19,-42,-19,-157V701H478V639H292V59L443,34V0Z" 
id="f2_15"
transform="scale(0.001,-0.001)" />

<path d="M495,413c0,0,0,133,-34,190c0,0,-34,57,-105,57c0,0,-78,0,-119,-63c0,0,-42,-62,-42,-184ZM374,-14c0,0,-163,0,-239,87c0,0,-75,88,-75,283c0,0,0,183,77,273c0,0,76,91,219,91c0,0,269,0,269,-306V353H194V340c0,0,0,-103,23,-160c0,0,22,-57,70,-87c0,0,47,-29,124,-29c0,0,40,0,96,6c0,0,55,7,91,15V43C598,43,562,20,500,3c0,0,-61,-17,-126,-17Z" 
id="f2_e"
transform="scale(0.001,-0.001)" />

<path d="M399,-14c0,0,-341,0,-341,370c0,0,0,175,87,269c0,0,87,95,249,95c0,0,101,0,220,-23V501H573L541,625c0,0,-62,35,-149,35c0,0,-200,0,-200,-304c0,0,0,-158,61,-225c0,0,61,-67,189,-67c0,0,109,0,189,24V43C631,43,595,16,530,1c0,0,-64,-15,-131,-15Z" 
id="f2_16"
transform="scale(0.001,-0.001)" />

<path d="M700,-317V454c0,0,0,155,-54,215c0,0,-54,60,-180,60H277V551c0,0,0,-55,26,-80c0,0,27,-26,82,-26c0,0,30,0,80,10V341c0,0,-61,-11,-111,-11c0,0,-100,0,-157,55c0,0,-58,55,-58,186V836H466c0,0,203,0,288,-91c0,0,85,-92,85,-293V-317Z" 
id="f1_14"
transform="scale(0.001,-0.001)" />

<path d="M190,0V127H436V977L168,923v137l267,54H586V127H832V0Z" 
id="f1_16"
transform="scale(0.001,-0.001)" />

<path d="M354,-200c0,0,-112,175,-167,343c0,0,-56,170,-56,337c0,0,0,166,55,335c0,0,55,169,168,345H473c0,0,-100,-172,-148,-340c0,0,-48,-168,-48,-340c0,0,0,-173,48,-342c0,0,49,-168,148,-338Z" 
id="f1_17"
transform="scale(0.001,-0.001)" />

<path d="M122,-200c0,0,99,170,148,338c0,0,49,169,49,342c0,0,0,172,-49,340c0,0,-49,168,-148,340H241c0,0,112,-176,168,-345c0,0,55,-169,55,-335c0,0,0,-167,-55,-337c0,0,-56,-168,-168,-343Z" 
id="f1_18"
transform="scale(0.001,-0.001)" />

<path d="M147,700v414H274V700Zm282,0v414H556V700Z" 
id="f1_19"
transform="scale(0.001,-0.001)" />

<path d="M382,45c0,0,188,0,188,314c0,0,0,143,-47,213c0,0,-46,69,-141,69c0,0,-87,0,-146,-24V58c0,0,67,-13,146,-13ZM25,-325v35l88,18V649L34,668v33H231l1,-41c0,0,31,27,84,43c0,0,53,17,107,17c0,0,134,0,208,-94c0,0,73,-93,73,-267c0,0,0,-178,-80,-276c0,0,-80,-97,-232,-97c0,0,-84,0,-160,16c0,0,4,-53,4,-84V-272l123,-18v-35Z" 
id="f2_x"
transform="scale(0.001,-0.001)" />

<path d="M431,0V33L535,52V499c0,0,0,62,-32,96c0,0,-32,33,-95,33c0,0,-66,0,-163,-22V52L350,33V0H32V33l89,19V649L32,668v33H237l6,-57c0,0,56,32,119,54c0,0,62,22,110,22c0,0,52,0,95,-20c0,0,44,-19,66,-62c0,0,57,32,134,57c0,0,77,25,128,25c0,0,179,0,179,-207V52l90,-19V0H846V33L950,52V499c0,0,0,129,-119,129c0,0,-19,0,-45,-3c0,0,-26,-3,-52,-7c0,0,-25,-4,-49,-8c0,0,-23,-5,-39,-8c0,0,13,-41,13,-89V52L764,33V0Z" 
id="f2_c"
transform="scale(0.001,-0.001)" />

<path d="M325,440l32,245L122,539L75,646l244,74L75,794l47,107L357,756l-32,244H442L407,756L643,898L691,793L443,720L691,647L643,542L407,682L442,440Z" 
id="f2_17"
transform="scale(0.001,-0.001)" />

<path d="M339,438V719L88,567L45,640L313,786L45,931l43,74L339,853v281h85V853l251,152l44,-74L450,786L719,640L675,567L424,719V438Z" 
id="f1_1a"
transform="scale(0.001,-0.001)" />

<path d="M278,-14c0,0,-52,0,-115,11c0,0,-63,10,-99,23V193H98L134,95c0,0,56,-50,146,-50c0,0,144,0,144,123c0,0,0,91,-114,130l-66,21c0,0,-75,25,-110,50c0,0,-34,26,-53,63c0,0,-18,36,-18,89c0,0,0,92,63,145c0,0,63,54,170,54c0,0,77,0,193,-23V544H454l-32,81c0,0,-39,35,-124,35c0,0,-61,0,-92,-30c0,0,-32,-30,-32,-80c0,0,0,-43,29,-72c0,0,28,-29,86,-48c0,0,110,-38,144,-55c0,0,33,-17,57,-42c0,0,23,-25,36,-57c0,0,13,-32,13,-79c0,0,0,-104,-66,-158c0,0,-66,-53,-195,-53Z" 
id="f2_f"
transform="scale(0.001,-0.001)" />

<path d="M74,357V479H476V357Z" 
id="f1_1b"
transform="scale(0.001,-0.001)" />

<path d="M235,-20c0,0,-31,0,-51,19c0,0,-21,18,-21,50c0,0,0,65,39,120c0,0,39,54,125,109c0,0,56,35,87,56c0,0,32,20,46,33c0,0,79,45,79,143c0,0,0,27,-7,65c0,0,-8,39,-27,49c0,0,-19,10,-85,10H110c0,0,-36,0,-53,21c0,0,-17,22,-25,71c0,0,-7,49,-7,134c0,0,0,62,27,122c0,0,8,15,8,34c0,0,0,23,-35,37c0,0,-21,7,-30,29c0,0,-9,22,-9,72c0,0,0,24,10,46c0,0,8,22,25,38c0,0,16,16,26,16c0,0,17,0,17,-14c0,0,0,-9,7,-17c0,0,7,-8,34,-14c0,0,65,-15,81,-26c0,0,15,-10,15,-31c0,0,0,-15,-15,-38c0,0,-15,-22,-33,-53c0,0,-19,-30,-34,-67c0,0,-15,-36,-15,-79c0,0,0,-43,14,-56c0,0,15,-14,54,-14H518c0,0,39,0,63,-17c0,0,23,-16,33,-53c0,0,10,-36,17,-89c0,0,6,-52,6,-93c0,0,0,-99,-9,-144c0,0,-9,-44,-40,-80c0,0,-31,-36,-110,-86c0,0,-112,-71,-138,-95c0,0,-26,-23,-36,-44c0,0,-9,-20,-9,-43c0,0,0,-11,5,-26c0,0,6,-15,6,-26c0,0,0,-32,-20,-50c0,0,-20,-19,-51,-19Z" 
id="f3_l"
transform="scale(0.001,-0.001)" />

<path d="M204,-8c0,0,-9,0,-11,5c0,0,-2,5,-2,22V549c0,0,0,40,-4,56c0,0,-4,16,-15,22c0,0,-10,7,-39,7H90c0,0,-33,0,-52,33c0,0,-19,33,-19,90c0,0,0,53,15,98c0,0,16,44,35,44c0,0,12,0,12,-13V872c0,0,0,-27,31,-27h42c0,0,79,0,103,-20c0,0,23,-19,23,-83V67c0,0,0,-16,-8,-26c0,0,-9,-10,-33,-30c0,0,-25,-19,-35,-19Z" 
id="f3_5"
transform="scale(0.001,-0.001)" />

<path d="M423,-13c0,0,-9,0,-14,7c0,0,-5,6,-10,23c0,0,-13,51,-37,108c0,0,-25,58,-55,101c0,0,-21,-37,-51,-115C256,111,225,34,216,0H12L55,212h99c0,0,51,0,72,12c0,0,20,12,40,58c0,0,20,46,18,98V543c0,0,0,46,-7,61c0,0,-7,15,-23,22c0,0,-17,8,-50,8H189c0,0,-76,0,-76,115c0,0,0,56,16,103c0,0,16,47,33,47c0,0,14,0,14,-15c0,0,0,-17,9,-28c0,0,10,-11,40,-11h21c0,0,60,0,85,-8c0,0,25,-9,39,-26c0,0,13,-18,13,-49c0,0,0,-20,-4,-43c0,0,-5,-23,-10,-53c0,0,-6,-31,-10,-71c0,0,-5,-41,-5,-97c0,0,0,-150,62,-269c0,0,28,-58,38,-90l9,-65c0,0,0,-27,-13,-57c0,0,-13,-30,-27,-30Z" 
id="f3_m"
transform="scale(0.001,-0.001)" />

<path d="M554,-8c0,0,-9,0,-11,6c0,0,-2,5,-2,24V548c0,0,0,38,-5,56c0,0,-4,18,-15,25c0,0,-12,7,-41,7H90c0,0,-33,0,-52,33c0,0,-19,33,-19,90c0,0,0,54,15,97c0,0,14,43,30,43c0,0,17,0,17,-13V872c0,0,0,-9,7,-18c0,0,7,-9,27,-9H512c0,0,54,0,77,-8c0,0,23,-9,33,-28c0,0,9,-20,9,-67V81c0,0,0,-31,-27,-53L583,9C583,9,563,-8,554,-8Z" 
id="f3_a"
transform="scale(0.001,-0.001)" />

<path d="M721,-14c0,0,-12,0,-12,9l4,28c0,0,17,82,17,338c0,0,0,105,-11,163c0,0,-11,58,-35,84c0,0,-25,26,-83,26H315c0,0,-43,-39,-67,-90c0,0,-25,-51,-25,-104c0,0,0,-59,17,-104c0,0,17,-45,35,-78c0,0,18,-34,18,-44c0,0,0,-26,-20,-95C273,119,252,50,231,0H26L87,214h69c0,0,23,0,23,14l-7,15c0,0,-15,27,-27,68c0,0,-11,41,-11,83c0,0,0,68,25,124c0,0,25,57,86,116H200c0,0,-45,0,-71,32c0,0,-27,33,-27,94c0,0,0,49,17,93c0,0,16,43,32,43c0,0,17,0,17,-10V869c0,0,0,-24,27,-24H637c0,0,73,0,103,-18c0,0,30,-17,46,-62c0,0,17,-46,24,-124c0,0,8,-78,8,-214V338c0,0,0,-279,-27,-311c0,0,-14,-16,-37,-28c0,0,-23,-13,-33,-13Z" 
id="f3_9"
transform="scale(0.001,-0.001)" />

<path d="M438,65c0,0,131,0,131,293c0,0,0,279,-130,279c0,0,-69,0,-127,-29V80c0,0,60,-15,126,-15ZM20,-325v50l76,18V634L19,652v49H304l1,-36c0,0,80,55,194,55c0,0,146,0,218,-86c0,0,71,-86,71,-271c0,0,0,-183,-83,-280c0,0,-83,-97,-238,-97c0,0,-79,0,-160,19c0,0,5,-48,5,-109V-257l103,-18v-50Z" 
id="f3_n"
transform="scale(0.001,-0.001)" />

<path d="M41,0V49l91,18V634L41,652v49H336l8,-145c0,0,80,89,144,128c0,0,64,40,117,40h40V468H604l-45,94c0,0,-47,0,-106,-21c0,0,-60,-20,-105,-48V67L460,49V0Z" 
id="f3_o"
transform="scale(0.001,-0.001)" />

<path d="M425,-14c0,0,-187,0,-280,90c0,0,-93,90,-93,276c0,0,0,115,42,198c0,0,43,82,121,126c0,0,78,44,182,44c0,0,104,0,227,-26V486H571L539,609c0,0,-25,19,-50,26c0,0,-24,7,-65,7c0,0,-44,0,-79,-35c0,0,-36,-35,-56,-98c0,0,-20,-64,-20,-153c0,0,0,-150,47,-214c0,0,47,-64,148,-64c0,0,103,0,176,21V42C640,42,606,15,547,0c0,0,-59,-14,-122,-14Z" 
id="f3_p"
transform="scale(0.001,-0.001)" />

<path d="M327,-14c0,0,-101,0,-156,45c0,0,-55,45,-55,131V624H25v48l108,29l87,159H332V701H480V624H332V176c0,0,0,-49,20,-73c0,0,20,-25,53,-25c0,0,40,0,97,12V26c0,0,-22,-15,-76,-27c0,0,-55,-13,-99,-13Z" 
id="f3_q"
transform="scale(0.001,-0.001)" />

<path d="M34,0V49l76,18V634L38,652v49H325V67L402,49V0ZM217,831c0,0,-48,0,-81,33c0,0,-34,33,-34,82c0,0,0,48,34,81c0,0,34,33,81,33c0,0,48,0,81,-33c0,0,33,-33,33,-81c0,0,0,-47,-33,-81c0,0,-32,-34,-81,-34Z" 
id="f3_r"
transform="scale(0.001,-0.001)" />

<path d="M102,250V836H349V351L102,250Z" 
id="f0_8"
transform="scale(0.001,-0.001)" />

<path d="M154,-13c0,0,-38,0,-85,9V198c0,0,58,-15,103,-15c0,0,84,0,118,60c0,0,35,61,35,206c0,0,0,66,-7,105c0,0,-6,39,-24,63c0,0,-17,25,-44,33c0,0,-27,8,-73,8H66V836H225c0,0,198,0,275,-115c0,0,56,-84,65,-264c0,0,3,-55,3,-148c0,0,0,-177,71,-309L393,1c0,0,-53,130,-54,141c0,0,-28,-90,-65,-123c0,0,-38,-32,-120,-32Z" 
id="f0_i"
transform="scale(0.001,-0.001)" />

<path d="M534,0V425c0,0,0,109,-41,171c0,0,-41,62,-140,62H66V836H352c0,0,99,0,174,-20c0,0,75,-20,123,-55c0,0,48,-35,78,-87c0,0,30,-53,42,-113c0,0,12,-60,12,-136V0Z" 
id="f0_4"
transform="scale(0.001,-0.001)" />

<path d="M173,-6C173,-6,61,-6,15,9V177c0,0,73,-10,82,-10c0,0,37,0,52,30c0,0,14,29,14,116V658H18V836H516c0,0,262,0,341,-145c0,0,48,-89,48,-242V0H658V450c0,0,0,131,-37,171c0,0,-34,37,-105,37H411V313c0,0,0,-189,-67,-258C344,55,285,-6,173,-6Z" 
id="f0_7"
transform="scale(0.001,-0.001)" />

<path d="M111,0V127c0,0,86,89,234,238c0,0,148,150,186,193c0,0,73,81,101,138c0,0,29,56,29,110c0,0,0,89,-62,145c0,0,-62,56,-162,56c0,0,-71,0,-150,-25c0,0,-78,-24,-168,-75v153c0,0,91,37,170,55c0,0,79,19,145,19c0,0,173,0,276,-86c0,0,103,-87,103,-232c0,0,0,-68,-26,-130c0,0,-26,-61,-94,-145c0,0,-18,-22,-118,-125C575,416,475,313,293,127H818V0Z" 
id="f1_1c"
transform="scale(0.001,-0.001)" />

<path d="M414,-20c0,0,-70,0,-144,13c0,0,-75,13,-154,40V179c0,0,63,-36,138,-55c0,0,74,-18,156,-18c0,0,142,0,216,55c0,0,74,56,74,163c0,0,0,98,-69,153c0,0,-69,56,-192,56H309V657H445c0,0,111,0,170,44c0,0,59,45,59,128c0,0,0,86,-61,132c0,0,-61,46,-174,46c0,0,-62,0,-133,-13c0,0,-71,-14,-156,-42v134c0,0,85,24,160,36c0,0,75,12,142,12c0,0,171,0,271,-78c0,0,100,-78,100,-211c0,0,0,-92,-53,-156c0,0,-52,-64,-150,-89c0,0,108,-23,169,-96c0,0,61,-73,61,-180c0,0,0,-165,-114,-255c0,0,-113,-89,-322,-89Z" 
id="f1_1d"
transform="scale(0.001,-0.001)" />

<path d="M442,0V33l93,19V504c0,0,0,129,-124,129c0,0,-70,0,-168,-22V52L338,33V0H31V33l88,19v956L15,1026v34H243V756c0,0,0,-77,-5,-112c0,0,54,31,122,53c0,0,68,23,115,23c0,0,91,0,137,-53c0,0,47,-53,47,-154V52L744,33V0Z" 
id="f2_13"
transform="scale(0.001,-0.001)" />

<path d="M578,388V982L197,388ZM578,0V263H74V408l464,706H727V388H887V263H727V0Z" 
id="f1_1e"
transform="scale(0.001,-0.001)" />

<path d="M411,-20c0,0,-70,0,-142,11c0,0,-73,11,-151,35V178c0,0,67,-37,139,-54c0,0,72,-18,152,-18c0,0,129,0,204,67c0,0,75,68,75,184c0,0,0,117,-75,184c0,0,-75,68,-204,68c0,0,-61,0,-121,-13c0,0,-60,-13,-123,-42v560H757V987H303V714c0,0,33,11,66,17c0,0,33,5,65,5c0,0,187,0,296,-102c0,0,109,-102,109,-277c0,0,0,-179,-112,-279c0,0,-112,-98,-316,-98Z" 
id="f1_1f"
transform="scale(0.001,-0.001)" />

<path d="M505,98c0,0,101,0,160,70c0,0,60,69,60,189c0,0,0,121,-60,191c0,0,-59,69,-160,69c0,0,-102,0,-161,-69c0,0,-59,-70,-59,-191c0,0,0,-120,59,-189c0,0,59,-70,161,-70ZM504,-20c0,0,-193,0,-295,147c0,0,-102,148,-102,429c0,0,0,264,125,421c0,0,125,157,337,157c0,0,56,0,114,-11c0,0,58,-11,121,-34V952c0,0,-57,27,-115,41c0,0,-58,14,-115,14c0,0,-149,0,-228,-101c0,0,-79,-100,-90,-304c0,0,44,65,111,100c0,0,66,34,146,34c0,0,168,0,266,-102c0,0,97,-101,97,-277c0,0,0,-171,-101,-275C775,82,673,-20,504,-20Z" 
id="f1_1g"
transform="scale(0.001,-0.001)" />

<path d="M280,0L660,987H125v127H841v-64L437,0Z" 
id="f1_1h"
transform="scale(0.001,-0.001)" />

<path d="M486,98c0,0,107,0,169,58c0,0,62,57,62,157c0,0,0,101,-62,159c0,0,-61,57,-169,57c0,0,-108,0,-169,-57c0,0,-62,-58,-62,-159c0,0,0,-100,62,-158c0,0,61,-57,169,-57Zm-1,549c0,0,97,0,152,49c0,0,54,48,54,135c0,0,0,87,-54,135c0,0,-55,49,-152,49c0,0,-97,0,-151,-49c0,0,-54,-48,-54,-135c0,0,0,-87,54,-135c0,0,54,-49,151,-49Zm0,-667c0,0,-184,0,-283,85c0,0,-98,86,-98,248c0,0,0,107,61,181c0,0,61,74,170,99c0,0,-97,24,-151,90c0,0,-54,67,-54,162c0,0,0,134,95,212c0,0,95,77,260,77c0,0,167,0,261,-77c0,0,95,-78,95,-212c0,0,0,-95,-54,-162c0,0,-54,-66,-151,-90c0,0,109,-25,170,-99c0,0,61,-74,61,-181c0,0,0,-162,-99,-248c0,0,-98,-85,-283,-85Z" 
id="f1_1i"
transform="scale(0.001,-0.001)" />

<path d="M467,496c0,0,102,0,161,69c0,0,59,70,59,190c0,0,0,120,-59,190c0,0,-59,70,-161,70c0,0,-101,0,-160,-70c0,0,-60,-70,-60,-190c0,0,0,-120,60,-190c0,0,59,-69,160,-69ZM403,-20c0,0,-57,0,-115,11c0,0,-58,10,-121,32V160c0,0,57,-26,115,-40c0,0,58,-14,115,-14c0,0,149,0,228,100c0,0,79,100,90,305c0,0,-44,-65,-110,-99c0,0,-66,-35,-147,-35c0,0,-167,0,-265,102c0,0,-97,101,-97,276c0,0,0,172,101,275c0,0,102,104,270,104c0,0,194,0,295,-148c0,0,102,-148,102,-430c0,0,0,-263,-125,-420C739,136,614,-20,403,-20Z" 
id="f1_1j"
transform="scale(0.001,-0.001)" />

<path d="M139,0V836H386V0Z" 
id="f0_c"
transform="scale(0.001,-0.001)" />

<path d="M66,0V178H507V449c0,0,0,43,-2,71c0,0,-3,28,-12,56c0,0,-9,28,-26,45c0,0,-17,16,-47,27c0,0,-29,10,-72,10H66V836H349c0,0,97,0,167,-17c0,0,71,-17,117,-49c0,0,46,-32,73,-84c0,0,27,-52,38,-114c0,0,11,-62,11,-147V178H866V0Z" 
id="f0_d"
transform="scale(0.001,-0.001)" />

<path d="M137,0L30,830H277L321,522c0,0,68,3,96,27c0,0,27,23,38,58c0,0,26,74,31,228H733c0,0,-31,-218,-70,-316c0,0,-23,-59,-88,-100c0,0,-54,-34,-116,-42c0,0,-62,-8,-117,-8L362,178c0,0,27,-1,61,-1c40,0,89,1,119,6c0,0,57,8,94,25c0,0,37,18,69,47c0,0,32,30,60,79c0,0,28,48,51,117c0,0,48,143,82,384h248c0,0,-53,-404,-172,-586C974,249,879,103,745,51C745,51,613,0,318,0Z" 
id="f0_j"
transform="scale(0.001,-0.001)" />


</defs>
</svg>