<?xml version="1.0" encoding="UTF-8" standalone="no"?>
<!DOCTYPE svg PUBLIC "-//W3C//DTD SVG 1.1//EN"
"http://www.w3.org/Graphics/SVG/1.1/DTD/svg11.dtd">
<svg viewBox="0 0 909 1286" version="1.1" xmlns="http://www.w3.org/2000/svg" xmlns:xlink="http://www.w3.org/1999/xlink">
<defs>
<style type="text/css"><![CDATA[
.g0_10{
fill: #D8D8D8;
}
.g1_10{
fill: none;
stroke: #000000;
stroke-width: 0.7638889;
stroke-linecap: butt;
stroke-linejoin: round;
}
.g2_10{
fill: none;
stroke: #0000FF;
stroke-width: 1.0694444;
stroke-linecap: butt;
stroke-linejoin: miter;
}
]]></style>
</defs>
<path fill-rule="evenodd" d="M121.3,180.7H338V161.5H121.3v19.2Z" class="g0_10" />
<path fill-rule="evenodd" d="M338.1,180.7H555V161.5H338.1v19.2Z" class="g0_10" />
<path fill-rule="evenodd" d="M555,180.7H771.9V161.5H555v19.2Z" class="g0_10" />
<path fill-rule="evenodd" d="M121.3,180.7H338V161.5H121.3v19.2Z" class="g0_10" />
<path fill-rule="evenodd" d="M338.1,180.7H555V161.5H338.1v19.2Z" class="g0_10" />
<path fill-rule="evenodd" d="M555,180.7H771.9V161.5H555v19.2Z" class="g0_10" />
<path d="M120.9,161.9H772.4M120.9,181.1H772.4M120.9,203.3H772.4M120.9,225.4H772.4M120.9,247.6H772.4M120.9,269.7H772.4M120.9,291.9H772.4M120.9,314H772.4M120.9,336.2H772.4M120.9,358.3H772.4M120.9,380.5H772.4M120.9,402.6H772.4M121.3,161.5V403M338.1,161.5V403M555,161.5V403M772,161.5V403" class="g1_10" />
<path d="M669.8,441.2H772.1" class="g2_10" />
<path d="M120.6,506.2H772.4m-651.8,20H772.4M120.6,546.4H772.4m-651.8,20H772.4M120.6,586.6H772.4m-651.8,20H772.4M120.6,626.8H772.4m-651.8,20H772.4M120.6,667H772.4M120.6,687H772.4M120.6,707.1H772.4m-651.8,20H772.4M121,505.8V727.5M446.6,505.8V727.5M772,505.8V727.5" class="g1_10" />
<path d="M669.8,765.7H772.1" class="g2_10" />
<path d="M120.8,830.7H772.4m-651.6,20H772.4M120.8,870.9H772.4m-651.6,20H772.4M120.8,911.1H772.4M121.2,830.3v81.2M283.9,830.3v81.2M446.6,830.3v81.2M609.3,830.3v81.2M772,830.3v81.2" class="g1_10" />
<path d="M669.8,949.7H772.1" class="g2_10" />
<image preserveAspectRatio="none" x="718" y="963" width="58" height="51" xlink:href="img/1.png" />
</svg>