<?xml version="1.0" encoding="UTF-8" standalone="no"?>
<!DOCTYPE svg PUBLIC "-//W3C//DTD SVG 1.1//EN"
"http://www.w3.org/Graphics/SVG/1.1/DTD/svg11.dtd">
<svg viewBox="0 0 909 1286" version="1.1" xmlns="http://www.w3.org/2000/svg" xmlns:xlink="http://www.w3.org/1999/xlink">
<defs>
<clipPath id="c0_16"><path d="M0,1286.2V0H909.4V1286.2Z" /></clipPath>
<clipPath id="c1_16"><path d="M642.4,535.9V514.6h.3v21.3Z" /></clipPath>
<style type="text/css"><![CDATA[
.g0_16{
fill: none;
stroke: #000000;
stroke-width: 0.7638889;
stroke-linecap: butt;
stroke-linejoin: round;
}
.g1_16{
fill: none;
stroke: #0000FF;
stroke-width: 1.0694444;
stroke-linecap: butt;
stroke-linejoin: miter;
}
]]></style>
</defs>
<path d="M129.2,110.4H259.3m259.8,0H649M129.2,132.5H259.3m259.8,0H649M129.2,154.7H259.3m259.8,0H649M129.2,208.9H259.3m259.8,0H649M129.2,231.1H259.3m259.8,0H649M129.2,253.2H259.3m259.8,0H649M129.2,275.4H259.3m259.8,0H649M129.2,297.5H259.3m259.8,0H649M519.1,319.7H649M519.1,341.8H649M519.1,364H649M519.1,418.2H649M519.1,472.5H649" class="g0_16" />
<g clip-path="url(#c0_16)">
<g fill="#000000" >
<use xlink:href="#f0_17" transform="matrix(12,0,0,12,665.8,127.9)" />
<use xlink:href="#f1_9" transform="matrix(10.5,0,0,10.5,527.5,125.7)" />
<use xlink:href="#f1_c" transform="matrix(10.5,0,0,10.5,535.5,125.7)" />
<use xlink:href="#f1_5" transform="matrix(10.5,0,0,10.5,543.6,125.7)" />
<use xlink:href="#f1_h" transform="matrix(10.5,0,0,10.5,549.8,125.7)" />
<use xlink:href="#f1_3" transform="matrix(10.5,0,0,10.5,554.2,125.7)" />
<use xlink:href="#f2_1x" transform="matrix(11,0,0,11,267.7,126.5)" />
<use xlink:href="#f0_1b" transform="matrix(12,0,0,12,665.8,150)" />
<use xlink:href="#f2_1y" transform="matrix(11,0,0,11,267.7,148.7)" />
<use xlink:href="#f0_13" transform="matrix(12,0,0,12,665.8,172.2)" />
<use xlink:href="#f0_14" transform="matrix(12,0,0,12,665.8,204.3)" />
<use xlink:href="#f2_1z" transform="matrix(11,0,0,11,267.7,170.8)" />
<use xlink:href="#f0_13" transform="matrix(12,0,0,12,665.8,226.4)" />
<use xlink:href="#f2_20" transform="matrix(11,0,0,11,267.7,225)" />
<use xlink:href="#f0_14" transform="matrix(12,0,0,12,665.8,248.6)" />
<use xlink:href="#f2_21" transform="matrix(11,0,0,11,267.7,247.2)" />
<use xlink:href="#f0_1a" transform="matrix(12,0,0,12,665.8,270.7)" />
<use xlink:href="#f2_22" transform="matrix(11,0,0,11,267.7,269.3)" />
<use xlink:href="#f0_19" transform="matrix(12,0,0,12,665.8,292.9)" />
<use xlink:href="#f2_23" transform="matrix(11,0,0,11,267.7,291.5)" />
<use xlink:href="#f0_16" transform="matrix(12,0,0,12,665.8,315)" />
<use xlink:href="#f0_18" transform="matrix(12,0,0,12,665.8,337.2)" />
<use xlink:href="#f0_1d" transform="matrix(12,0,0,12,665.8,359.3)" />
<use xlink:href="#f0_13" transform="matrix(12,0,0,12,665.8,381.5)" />
<use xlink:href="#f0_1f" transform="matrix(12,0,0,12,665.8,413.6)" />
<use xlink:href="#f0_13" transform="matrix(12,0,0,12,665.8,435.7)" />
<use xlink:href="#f0_13" transform="matrix(12,0,0,12,665.8,467.8)" />
</g>
<g fill="#0000FF" >
<use xlink:href="#f0_3" transform="matrix(12,0,0,12,649.3,531.7)" />
<use xlink:href="#f0_7" transform="matrix(12,0,0,12,660,531.7)" />
<use xlink:href="#f0_k" transform="matrix(12,0,0,12,664.5,531.7)" />
<use xlink:href="#f0_a" transform="matrix(12,0,0,12,672.3,531.7)" />
<use xlink:href="#f0_e" transform="matrix(12,0,0,12,683.1,531.7)" />
<use xlink:href="#f0_3" transform="matrix(12,0,0,12,695.5,531.7)" />
<use xlink:href="#f0_e" transform="matrix(12,0,0,12,712.4,531.7)" />
<use xlink:href="#f0_c" transform="matrix(12,0,0,12,724.9,531.7)" />
<use xlink:href="#f0_f" transform="matrix(12,0,0,12,730.3,531.7)" />
<use xlink:href="#f0_c" transform="matrix(12,0,0,12,741.2,531.7)" />
<use xlink:href="#f0_4" transform="matrix(12,0,0,12,746.6,531.7)" />
<use xlink:href="#f0_e" transform="matrix(12,0,0,12,759.8,531.7)" />
</g>
</g>
<path d="M642.9,533.5H772.1" class="g1_16" />
<g clip-path="url(#c1_16)">
<path d="M642.4,533.5h5.8" class="g1_16" />
</g>
<g clip-path="url(#c0_16)">
<g fill="#0000FF" >
<use xlink:href="#f0_13" transform="matrix(12,0,0,12,618.8,531.7)" />
<use xlink:href="#f0_19" transform="matrix(12,0,0,12,630.6,531.7)" />
</g>
</g>
<path d="M618.8,533.5h23.6" class="g1_16" />
<g clip-path="url(#c0_16)">
<g fill="#000000" >
<use xlink:href="#f3_c" transform="matrix(12,0,0,12,561.3,599.8)" />
<use xlink:href="#f3_b" transform="matrix(12,0,0,12,574.1,599.8)" />
<use xlink:href="#f3_d" transform="matrix(12,0,0,12,580.4,599.8)" />
<use xlink:href="#f3_n" transform="matrix(12,0,0,12,592.1,599.8)" />
<use xlink:href="#f3_e" transform="matrix(12,0,0,12,603.3,599.8)" />
<use xlink:href="#f3_u" transform="matrix(12,0,0,12,623.6,599.8)" />
<use xlink:href="#f3_4" transform="matrix(12,0,0,12,636.9,599.8)" />
<use xlink:href="#f3_g" transform="matrix(12,0,0,12,647.9,599.8)" />
<use xlink:href="#f3_k" transform="matrix(12,0,0,12,666.9,599.8)" />
<use xlink:href="#f3_p" transform="matrix(12,0,0,12,674.2,599.8)" />
<use xlink:href="#f3_b" transform="matrix(12,0,0,12,686.8,599.8)" />
<use xlink:href="#f3_j" transform="matrix(12,0,0,12,693,599.8)" />
<use xlink:href="#f3_4" transform="matrix(12,0,0,12,704.2,599.8)" />
<use xlink:href="#f3_p" transform="matrix(12,0,0,12,715.2,599.8)" />
<use xlink:href="#f3_p" transform="matrix(12,0,0,12,734.1,599.8)" />
<use xlink:href="#f3_v" transform="matrix(12,0,0,12,746.6,599.8)" />
<use xlink:href="#f3_3" transform="matrix(12,0,0,12,758.5,599.8)" />
<use xlink:href="#f0_a" transform="matrix(12,0,0,12,276,621.2)" />
<use xlink:href="#f0_8" transform="matrix(12,0,0,12,286.4,621.2)" />
<use xlink:href="#f0_d" transform="matrix(12,0,0,12,298.9,621.2)" />
<use xlink:href="#f0_n" transform="matrix(12,0,0,12,311.2,621.2)" />
<use xlink:href="#f0_x" transform="matrix(12,0,0,12,326.1,621.2)" />
<use xlink:href="#f0_9" transform="matrix(12,0,0,12,333.3,621.2)" />
<use xlink:href="#f0_w" transform="matrix(12,0,0,12,345.2,621.2)" />
<use xlink:href="#f0_c" transform="matrix(12,0,0,12,357.1,621.2)" />
<use xlink:href="#f0_f" transform="matrix(12,0,0,12,362.1,621.2)" />
<use xlink:href="#f0_9" transform="matrix(12,0,0,12,372.6,621.2)" />
<use xlink:href="#f0_9" transform="matrix(12,0,0,12,392,621.2)" />
<use xlink:href="#f0_m" transform="matrix(12,0,0,12,403.9,621.2)" />
<use xlink:href="#f0_4" transform="matrix(12,0,0,12,415.4,621.2)" />
<use xlink:href="#f0_9" transform="matrix(12,0,0,12,428.4,621.2)" />
<use xlink:href="#f0_3" transform="matrix(12,0,0,12,447.9,621.2)" />
<use xlink:href="#f0_l" transform="matrix(12,0,0,12,458.3,621.2)" />
<use xlink:href="#f0_c" transform="matrix(12,0,0,12,477.2,621.2)" />
<use xlink:href="#f0_n" transform="matrix(12,0,0,12,482.2,621.2)" />
<use xlink:href="#f0_3" transform="matrix(12,0,0,12,489.5,621.2)" />
<use xlink:href="#f0_g" transform="matrix(12,0,0,12,507.5,621.2)" />
<use xlink:href="#f0_3" transform="matrix(12,0,0,12,519.5,621.2)" />
<use xlink:href="#f0_t" transform="matrix(12,0,0,12,529.9,621.2)" />
<use xlink:href="#f0_7" transform="matrix(12,0,0,12,541.7,621.2)" />
<use xlink:href="#f0_c" transform="matrix(12,0,0,12,545.7,621.2)" />
<use xlink:href="#f0_v" transform="matrix(12,0,0,12,550.8,621.2)" />
<use xlink:href="#f0_u" transform="matrix(12,0,0,12,565.5,621.2)" />
<use xlink:href="#f0_d" transform="matrix(12,0,0,12,573.9,621.2)" />
<use xlink:href="#f0_a" transform="matrix(12,0,0,12,586.2,621.2)" />
<use xlink:href="#f0_g" transform="matrix(12,0,0,12,596.5,621.2)" />
<use xlink:href="#f0_u" transform="matrix(12,0,0,12,608.5,621.2)" />
<use xlink:href="#f0_a" transform="matrix(12,0,0,12,624.3,621.2)" />
<use xlink:href="#f0_8" transform="matrix(12,0,0,12,634.7,621.2)" />
<use xlink:href="#f0_c" transform="matrix(12,0,0,12,647.1,621.2)" />
<use xlink:href="#f0_3" transform="matrix(12,0,0,12,652.1,621.2)" />
<use xlink:href="#f0_7" transform="matrix(12,0,0,12,669.9,621.2)" />
<use xlink:href="#f0_q" transform="matrix(12,0,0,12,674,621.2)" />
<use xlink:href="#f0_i" transform="matrix(12,0,0,12,684.1,621.2)" />
<use xlink:href="#f0_e" transform="matrix(12,0,0,12,701.2,621.2)" />
<use xlink:href="#f0_7" transform="matrix(12,0,0,12,713.2,621.2)" />
<use xlink:href="#f0_q" transform="matrix(12,0,0,12,717.3,621.2)" />
<use xlink:href="#f0_a" transform="matrix(12,0,0,12,727.3,621.2)" />
<use xlink:href="#f0_m" transform="matrix(12,0,0,12,737.6,621.2)" />
<use xlink:href="#f0_t" transform="matrix(12,0,0,12,749.1,621.2)" />
<use xlink:href="#f0_f" transform="matrix(12,0,0,12,761,621.2)" />
<use xlink:href="#f2_p" transform="matrix(11,0,0,11,221.7,621.2)" />
<use xlink:href="#f2_4" transform="matrix(11,0,0,11,234.7,621.2)" />
<use xlink:href="#f2_2" transform="matrix(11,0,0,11,239.4,621.2)" />
<use xlink:href="#f2_3" transform="matrix(11,0,0,11,246.7,621.2)" />
<use xlink:href="#f2_e" transform="matrix(11,0,0,11,252.4,621.2)" />
<use xlink:href="#f2_m" transform="matrix(11,0,0,11,260.8,621.2)" />
<use xlink:href="#f0_j" transform="matrix(12,0,0,12,216,621.2)" />
<use xlink:href="#f0_9" transform="matrix(12,0,0,12,324.5,642.6)" />
<use xlink:href="#f0_3" transform="matrix(12,0,0,12,336.4,642.6)" />
<use xlink:href="#f0_7" transform="matrix(12,0,0,12,346.8,642.6)" />
<use xlink:href="#f0_8" transform="matrix(12,0,0,12,350.9,642.6)" />
<use xlink:href="#f0_f" transform="matrix(12,0,0,12,363.4,642.6)" />
<use xlink:href="#f0_4" transform="matrix(12,0,0,12,380.9,642.6)" />
<use xlink:href="#f0_8" transform="matrix(12,0,0,12,393.9,642.6)" />
<use xlink:href="#f0_e" transform="matrix(12,0,0,12,406.4,642.6)" />
<use xlink:href="#f0_4" transform="matrix(12,0,0,12,418.3,642.6)" />
<use xlink:href="#f0_n" transform="matrix(12,0,0,12,431.3,642.6)" />
<use xlink:href="#f0_s" transform="matrix(12,0,0,12,445.8,642.6)" />
<use xlink:href="#f0_9" transform="matrix(12,0,0,12,451.6,642.6)" />
<use xlink:href="#f0_w" transform="matrix(12,0,0,12,463.5,642.6)" />
<use xlink:href="#f0_c" transform="matrix(12,0,0,12,475.4,642.6)" />
<use xlink:href="#f0_f" transform="matrix(12,0,0,12,480.4,642.6)" />
<use xlink:href="#f0_9" transform="matrix(12,0,0,12,498.1,642.6)" />
<use xlink:href="#f0_m" transform="matrix(12,0,0,12,510,642.6)" />
<use xlink:href="#f0_4" transform="matrix(12,0,0,12,521.5,642.6)" />
<use xlink:href="#f0_f" transform="matrix(12,0,0,12,534.4,642.6)" />
<use xlink:href="#f0_4" transform="matrix(12,0,0,12,552,642.6)" />
<use xlink:href="#f0_8" transform="matrix(12,0,0,12,565,642.6)" />
<use xlink:href="#f0_e" transform="matrix(12,0,0,12,577.5,642.6)" />
<use xlink:href="#f0_4" transform="matrix(12,0,0,12,589.5,642.6)" />
<use xlink:href="#f0_9" transform="matrix(12,0,0,12,602.5,642.6)" />
<use xlink:href="#f0_3" transform="matrix(12,0,0,12,614.4,642.6)" />
<use xlink:href="#f0_d" transform="matrix(12,0,0,12,631.9,642.6)" />
<use xlink:href="#f0_3" transform="matrix(12,0,0,12,644.2,642.6)" />
<use xlink:href="#f0_7" transform="matrix(12,0,0,12,661.5,642.6)" />
<use xlink:href="#f0_q" transform="matrix(12,0,0,12,665.6,642.6)" />
<use xlink:href="#f0_i" transform="matrix(12,0,0,12,675.7,642.6)" />
<use xlink:href="#f0_6" transform="matrix(12,0,0,12,692.3,642.6)" />
<use xlink:href="#f0_7" transform="matrix(12,0,0,12,704.4,642.6)" />
<use xlink:href="#f0_e" transform="matrix(12,0,0,12,708.5,642.6)" />
<use xlink:href="#f0_l" transform="matrix(12,0,0,12,720.5,642.6)" />
<use xlink:href="#f0_3" transform="matrix(12,0,0,12,732,642.6)" />
<use xlink:href="#f0_2" transform="matrix(12,0,0,12,749.5,642.6)" />
<use xlink:href="#f0_d" transform="matrix(12,0,0,12,759.3,642.6)" />
<use xlink:href="#f2_p" transform="matrix(11,0,0,11,251.3,642.6)" />
<use xlink:href="#f2_4" transform="matrix(11,0,0,11,264.4,642.6)" />
<use xlink:href="#f2_k" transform="matrix(11,0,0,11,269,642.6)" />
<use xlink:href="#f2_3" transform="matrix(11,0,0,11,276.5,642.6)" />
<use xlink:href="#f2_5" transform="matrix(11,0,0,11,282.1,642.6)" />
<use xlink:href="#f2_8" transform="matrix(11,0,0,11,289.6,642.6)" />
<use xlink:href="#f2_l" transform="matrix(11,0,0,11,297.8,642.6)" />
<use xlink:href="#f2_2" transform="matrix(11,0,0,11,302.6,642.6)" />
<use xlink:href="#f2_g" transform="matrix(11,0,0,11,310,642.6)" />
<use xlink:href="#f0_6" transform="matrix(12,0,0,12,216,642.6)" />
<use xlink:href="#f0_c" transform="matrix(12,0,0,12,228.1,642.6)" />
<use xlink:href="#f0_7" transform="matrix(12,0,0,12,233.1,642.6)" />
<use xlink:href="#f0_v" transform="matrix(12,0,0,12,237.2,642.6)" />
<use xlink:href="#f0_9" transform="matrix(12,0,0,12,539.9,664)" />
<use xlink:href="#f0_3" transform="matrix(12,0,0,12,551.8,664)" />
<use xlink:href="#f0_7" transform="matrix(12,0,0,12,562.2,664)" />
<use xlink:href="#f0_8" transform="matrix(12,0,0,12,566.3,664)" />
<use xlink:href="#f0_3" transform="matrix(12,0,0,12,578.8,664)" />
<use xlink:href="#f0_3" transform="matrix(12,0,0,12,595.9,664)" />
<use xlink:href="#f0_7" transform="matrix(12,0,0,12,606.3,664)" />
<use xlink:href="#f0_3" transform="matrix(12,0,0,12,610.4,664)" />
<use xlink:href="#f0_b" transform="matrix(12,0,0,12,620.8,664)" />
<use xlink:href="#f0_f" transform="matrix(12,0,0,12,631.7,664)" />
<use xlink:href="#f0_9" transform="matrix(12,0,0,12,649,664)" />
<use xlink:href="#f0_f" transform="matrix(12,0,0,12,661,664)" />
<use xlink:href="#f0_c" transform="matrix(12,0,0,12,671.5,664)" />
<use xlink:href="#f0_a" transform="matrix(12,0,0,12,676.5,664)" />
<use xlink:href="#f0_p" transform="matrix(12,0,0,12,686.9,664)" />
<use xlink:href="#f0_9" transform="matrix(12,0,0,12,699.9,664)" />
<use xlink:href="#f0_s" transform="matrix(12,0,0,12,718.3,664)" />
<use xlink:href="#f0_x" transform="matrix(12,0,0,12,724.1,664)" />
<use xlink:href="#f0_7" transform="matrix(12,0,0,12,731.3,664)" />
<use xlink:href="#f0_l" transform="matrix(12,0,0,12,735.4,664)" />
<use xlink:href="#f0_7" transform="matrix(12,0,0,12,746.9,664)" />
<use xlink:href="#f0_f" transform="matrix(12,0,0,12,751,664)" />
<use xlink:href="#f0_a" transform="matrix(12,0,0,12,761.5,664)" />
<use xlink:href="#f2_p" transform="matrix(11,0,0,11,486,664)" />
<use xlink:href="#f2_4" transform="matrix(11,0,0,11,499.1,664)" />
<use xlink:href="#f2_2" transform="matrix(11,0,0,11,503.7,664)" />
<use xlink:href="#f2_3" transform="matrix(11,0,0,11,511.2,664)" />
<use xlink:href="#f2_e" transform="matrix(11,0,0,11,516.8,664)" />
<use xlink:href="#f2_m" transform="matrix(11,0,0,11,525.2,664)" />
<use xlink:href="#f0_3" transform="matrix(12,0,0,12,216.3,664)" />
<use xlink:href="#f0_l" transform="matrix(12,0,0,12,226.7,664)" />
<use xlink:href="#f0_2" transform="matrix(12,0,0,12,244.9,664)" />
<use xlink:href="#f0_a" transform="matrix(12,0,0,12,254.7,664)" />
<use xlink:href="#f0_c" transform="matrix(12,0,0,12,264.9,664)" />
<use xlink:href="#f0_q" transform="matrix(12,0,0,12,269.9,664)" />
<use xlink:href="#f0_9" transform="matrix(12,0,0,12,286.7,664)" />
<use xlink:href="#f0_e" transform="matrix(12,0,0,12,298.6,664)" />
<use xlink:href="#f0_d" transform="matrix(12,0,0,12,310.6,664)" />
<use xlink:href="#f0_4" transform="matrix(12,0,0,12,322.9,664)" />
<use xlink:href="#f0_9" transform="matrix(12,0,0,12,342.7,664)" />
<use xlink:href="#f0_d" transform="matrix(12,0,0,12,354.6,664)" />
<use xlink:href="#f0_f" transform="matrix(12,0,0,12,366.8,664)" />
<use xlink:href="#f0_9" transform="matrix(12,0,0,12,377.4,664)" />
<use xlink:href="#f0_6" transform="matrix(12,0,0,12,396,664)" />
<use xlink:href="#f0_l" transform="matrix(12,0,0,12,408.2,664)" />
<use xlink:href="#f0_m" transform="matrix(12,0,0,12,419.7,664)" />
<use xlink:href="#f0_f" transform="matrix(12,0,0,12,431.1,664)" />
<use xlink:href="#f0_h" transform="matrix(12,0,0,12,448.3,664)" />
<use xlink:href="#f0_i" transform="matrix(12,0,0,12,453.3,664)" />
<use xlink:href="#f0_3" transform="matrix(12,0,0,12,463,664)" />
<use xlink:href="#f0_j" transform="matrix(12,0,0,12,480.1,664)" />
<use xlink:href="#f0_t" transform="matrix(12,0,0,12,349,685.4)" />
<use xlink:href="#f0_l" transform="matrix(12,0,0,12,360.8,685.4)" />
<use xlink:href="#f0_i" transform="matrix(12,0,0,12,372.3,685.4)" />
<use xlink:href="#f0_f" transform="matrix(12,0,0,12,381.9,685.4)" />
<use xlink:href="#f0_a" transform="matrix(12,0,0,12,398.3,685.4)" />
<use xlink:href="#f0_c" transform="matrix(12,0,0,12,408.7,685.4)" />
<use xlink:href="#f0_8" transform="matrix(12,0,0,12,413.7,685.4)" />
<use xlink:href="#f0_d" transform="matrix(12,0,0,12,426.2,685.4)" />
<use xlink:href="#f0_s" transform="matrix(12,0,0,12,444.4,685.4)" />
<use xlink:href="#f0_e" transform="matrix(12,0,0,12,450.2,685.4)" />
<use xlink:href="#f0_n" transform="matrix(12,0,0,12,462.2,685.4)" />
<use xlink:href="#f0_f" transform="matrix(12,0,0,12,469.5,685.4)" />
<use xlink:href="#f0_b" transform="matrix(12,0,0,12,480.1,685.4)" />
<use xlink:href="#f0_l" transform="matrix(12,0,0,12,490.9,685.4)" />
<use xlink:href="#f0_e" transform="matrix(12,0,0,12,502.4,685.4)" />
<use xlink:href="#f0_9" transform="matrix(12,0,0,12,514.4,685.4)" />
<use xlink:href="#f0_6" transform="matrix(12,0,0,12,532.2,685.4)" />
<use xlink:href="#f0_d" transform="matrix(12,0,0,12,544.4,685.4)" />
<use xlink:href="#f0_s" transform="matrix(12,0,0,12,562.6,685.4)" />
<use xlink:href="#f0_f" transform="matrix(12,0,0,12,568.4,685.4)" />
<use xlink:href="#f0_c" transform="matrix(12,0,0,12,578.9,685.4)" />
<use xlink:href="#f0_g" transform="matrix(12,0,0,12,583.9,685.4)" />
<use xlink:href="#f0_a" transform="matrix(12,0,0,12,595.8,685.4)" />
<use xlink:href="#f0_f" transform="matrix(12,0,0,12,606.2,685.4)" />
<use xlink:href="#f0_f" transform="matrix(12,0,0,12,622.7,685.4)" />
<use xlink:href="#f0_3" transform="matrix(12,0,0,12,633.2,685.4)" />
<use xlink:href="#f0_i" transform="matrix(12,0,0,12,643.6,685.4)" />
<use xlink:href="#f0_a" transform="matrix(12,0,0,12,659.1,685.4)" />
<use xlink:href="#f0_7" transform="matrix(12,0,0,12,669.5,685.4)" />
<use xlink:href="#f0_d" transform="matrix(12,0,0,12,673.6,685.4)" />
<use xlink:href="#f0_4" transform="matrix(12,0,0,12,685.8,685.4)" />
<use xlink:href="#f0_9" transform="matrix(12,0,0,12,698.8,685.4)" />
<use xlink:href="#f0_4" transform="matrix(12,0,0,12,710.7,685.4)" />
<use xlink:href="#f0_c" transform="matrix(12,0,0,12,729.6,685.4)" />
<use xlink:href="#f0_9" transform="matrix(12,0,0,12,734.6,685.4)" />
<use xlink:href="#f0_4" transform="matrix(12,0,0,12,746.6,685.4)" />
<use xlink:href="#f0_8" transform="matrix(12,0,0,12,759.4,685.4)" />
<use xlink:href="#f2_1v" transform="matrix(11,0,0,11,275.6,685.4)" />
<use xlink:href="#f2_4" transform="matrix(11,0,0,11,290.4,685.4)" />
<use xlink:href="#f2_k" transform="matrix(11,0,0,11,295.2,685.4)" />
<use xlink:href="#f2_3" transform="matrix(11,0,0,11,302.6,685.4)" />
<use xlink:href="#f2_5" transform="matrix(11,0,0,11,308.2,685.4)" />
<use xlink:href="#f2_8" transform="matrix(11,0,0,11,315.7,685.4)" />
<use xlink:href="#f2_l" transform="matrix(11,0,0,11,324,685.4)" />
<use xlink:href="#f2_2" transform="matrix(11,0,0,11,328.7,685.4)" />
<use xlink:href="#f2_g" transform="matrix(11,0,0,11,336.1,685.4)" />
<use xlink:href="#f0_j" transform="matrix(12,0,0,12,270,685.4)" />
</g>
</g>
<image preserveAspectRatio="none" x="140" y="586" width="61" height="62" xlink:href="img/1.png" />
<defs>
<path d="M578,388V982L197,388ZM578,0V263H74V408l464,706H727V388H887V263H727V0Z" 
id="f0_17"
transform="scale(0.001,-0.001)" />

<path d="M301,78c0,0,85,0,185,104l81,442c0,0,-29,20,-55,28c0,0,-25,8,-62,8c0,0,-75,0,-137,-56c0,0,-62,-56,-98,-152c0,0,-36,-95,-36,-199c0,0,0,-79,33,-127c0,0,33,-48,89,-48ZM245,-14c0,0,-90,0,-145,66c0,0,-54,66,-54,182c0,0,0,131,57,244c0,0,57,114,152,178c0,0,96,64,208,64c0,0,90,0,170,-33l33,26h40L589,52L673,33L667,0H454l22,117C476,117,350,-14,245,-14Z" 
id="f1_9"
transform="scale(0.001,-0.001)" />

<path d="M305,45c0,0,76,0,141,56c0,0,64,56,101,151c0,0,37,95,37,200c0,0,0,83,-35,129c0,0,-34,46,-92,46c0,0,-44,0,-96,-29c0,0,-51,-29,-97,-75L185,81c0,0,43,-36,120,-36ZM295,-14c0,0,-65,0,-128,16C167,2,104,19,57,48l171,960l-100,18l6,34H358L303,731c0,0,-13,-85,-29,-144c0,0,59,61,122,97c0,0,64,36,116,36c0,0,94,0,150,-67c0,0,56,-67,56,-182c0,0,0,-129,-56,-242C662,229,606,115,509,50c0,0,-98,-64,-214,-64Z" 
id="f1_c"
transform="scale(0.001,-0.001)" />

<path d="M62,0L176,649L88,668l6,33H301L278,543c0,0,55,84,124,130c0,0,69,47,138,47c0,0,37,0,59,-6L566,530H534l-28,95c0,0,-60,0,-124,-46c0,0,-63,-45,-116,-120L186,0Z" 
id="f1_5"
transform="scale(0.001,-0.001)" />

<path d="M85,0L199,649l-96,19l6,33H332L218,52L335,33L329,0ZM297,849c0,0,-33,0,-57,24c0,0,-24,24,-24,57c0,0,0,33,24,57c0,0,24,24,57,24c0,0,33,0,57,-24c0,0,24,-24,24,-57c0,0,0,-33,-24,-57c0,0,-24,-24,-57,-24Z" 
id="f1_h"
transform="scale(0.001,-0.001)" />

<path d="M81,0L258,1008l-96,18l6,34H391L214,52L331,33L325,0Z" 
id="f1_3"
transform="scale(0.001,-0.001)" />

<path d="M134,0V40L339,60V876L137,804v39l292,166h39V60L672,40V0Z" 
id="f2_1x"
transform="scale(0.001,-0.001)" />

<path d="M486,98c0,0,107,0,169,58c0,0,62,57,62,157c0,0,0,101,-62,159c0,0,-61,57,-169,57c0,0,-108,0,-169,-57c0,0,-62,-58,-62,-159c0,0,0,-100,62,-158c0,0,61,-57,169,-57Zm-1,549c0,0,97,0,152,49c0,0,54,48,54,135c0,0,0,87,-54,135c0,0,-55,49,-152,49c0,0,-97,0,-151,-49c0,0,-54,-48,-54,-135c0,0,0,-87,54,-135c0,0,54,-49,151,-49Zm0,-667c0,0,-184,0,-283,85c0,0,-98,86,-98,248c0,0,0,107,61,181c0,0,61,74,170,99c0,0,-97,24,-151,90c0,0,-54,67,-54,162c0,0,0,134,95,212c0,0,95,77,260,77c0,0,167,0,261,-77c0,0,95,-78,95,-212c0,0,0,-95,-54,-162c0,0,-54,-66,-151,-90c0,0,109,-25,170,-99c0,0,61,-74,61,-181c0,0,0,-162,-99,-248c0,0,-98,-85,-283,-85Z" 
id="f0_1b"
transform="scale(0.001,-0.001)" />

<path d="M350,-14c0,0,-142,0,-253,31L89,228h49L172,87c0,0,32,-18,78,-29c0,0,46,-11,88,-11c0,0,118,0,173,56c0,0,56,55,56,187c0,0,0,93,-24,140c0,0,-24,47,-76,70c0,0,-52,22,-140,22c0,0,-68,0,-133,-18H122v496H630V886H189V567c0,0,81,18,173,18c0,0,173,0,258,-71c0,0,84,-71,84,-216c0,0,0,-151,-92,-232c0,0,-91,-80,-262,-80Z" 
id="f2_1y"
transform="scale(0.001,-0.001)" />

<path d="M190,0V127H436V977L168,923v137l267,54H586V127H832V0Z" 
id="f0_13"
transform="scale(0.001,-0.001)" />

<path d="M111,0V127c0,0,86,89,234,238c0,0,148,150,186,193c0,0,73,81,101,138c0,0,29,56,29,110c0,0,0,89,-62,145c0,0,-62,56,-162,56c0,0,-71,0,-150,-25c0,0,-78,-24,-168,-75v153c0,0,91,37,170,55c0,0,79,19,145,19c0,0,173,0,276,-86c0,0,103,-87,103,-232c0,0,0,-68,-26,-130c0,0,-26,-61,-94,-145c0,0,-18,-22,-118,-125C575,416,475,313,293,127H818V0Z" 
id="f0_14"
transform="scale(0.001,-0.001)" />

<path d="M67,0V109L206,235c0,0,133,118,196,190c0,0,63,72,90,149c0,0,27,77,27,177c0,0,0,97,-44,148c0,0,-44,50,-144,50c0,0,-39,0,-81,-10c0,0,-42,-11,-74,-29L150,787H101V980c0,0,135,32,230,32c0,0,164,0,247,-68c0,0,82,-69,82,-193c0,0,0,-84,-32,-158c0,0,-33,-75,-100,-148c0,0,-67,-74,-222,-206c0,0,-67,-57,-141,-125H680V0Z" 
id="f2_1z"
transform="scale(0.001,-0.001)" />

<path d="M350,-14c0,0,-142,0,-269,31L73,228h49L156,87c0,0,29,-16,82,-28c0,0,54,-12,100,-12c0,0,117,0,173,54c0,0,56,53,56,178c0,0,0,99,-52,150c0,0,-51,51,-159,56l-107,6v61l107,7c0,0,84,5,124,52c0,0,41,48,41,145c0,0,0,101,-44,147c0,0,-44,45,-139,45c0,0,-40,0,-83,-10c0,0,-43,-11,-76,-29L153,786H104V979c0,0,74,19,127,26c0,0,54,6,107,6c0,0,321,0,321,-246c0,0,0,-104,-57,-165c0,0,-57,-62,-162,-77c0,0,136,-16,200,-78c0,0,64,-62,64,-173c0,0,0,-135,-92,-211c0,0,-93,-75,-262,-75Z" 
id="f2_20"
transform="scale(0.001,-0.001)" />

<path d="M476,327V830h-4L114,327ZM476,0V220H30v99l488,686h86V327H740V220H604V0Z" 
id="f2_21"
transform="scale(0.001,-0.001)" />

<path d="M280,0L660,987H125v127H841v-64L437,0Z" 
id="f0_1a"
transform="scale(0.001,-0.001)" />

<path d="M178,0L615,886H176L150,764H101v236H720V943L274,0Z" 
id="f2_22"
transform="scale(0.001,-0.001)" />

<path d="M505,98c0,0,101,0,160,70c0,0,60,69,60,189c0,0,0,121,-60,191c0,0,-59,69,-160,69c0,0,-102,0,-161,-69c0,0,-59,-70,-59,-191c0,0,0,-120,59,-189c0,0,59,-70,161,-70ZM504,-20c0,0,-193,0,-295,147c0,0,-102,148,-102,429c0,0,0,264,125,421c0,0,125,157,337,157c0,0,56,0,114,-11c0,0,58,-11,121,-34V952c0,0,-57,27,-115,41c0,0,-58,14,-115,14c0,0,-149,0,-228,-101c0,0,-79,-100,-90,-304c0,0,44,65,111,100c0,0,66,34,146,34c0,0,168,0,266,-102c0,0,97,-101,97,-277c0,0,0,-171,-101,-275C775,82,673,-20,504,-20Z" 
id="f0_19"
transform="scale(0.001,-0.001)" />

<path d="M410,45c0,0,90,0,130,58c0,0,40,59,40,193c0,0,0,122,-38,177c0,0,-38,54,-122,54c0,0,-102,0,-217,-37c0,0,0,-227,51,-336c0,0,52,-109,156,-109Zm3,-59c0,0,-169,0,-258,131c0,0,-89,131,-89,377c0,0,0,161,47,278c0,0,47,117,131,178c0,0,85,61,196,61c0,0,109,0,217,-26V813H608L582,915c0,0,-25,13,-67,23c0,0,-41,10,-75,10c0,0,-109,0,-170,-105c0,0,-60,-106,-66,-308c0,0,121,63,244,63c0,0,132,0,201,-74c0,0,69,-74,69,-214c0,0,0,-156,-78,-240c0,0,-79,-84,-227,-84Z" 
id="f2_23"
transform="scale(0.001,-0.001)" />

<path d="M414,-20c0,0,-70,0,-144,13c0,0,-75,13,-154,40V179c0,0,63,-36,138,-55c0,0,74,-18,156,-18c0,0,142,0,216,55c0,0,74,56,74,163c0,0,0,98,-69,153c0,0,-69,56,-192,56H309V657H445c0,0,111,0,170,44c0,0,59,45,59,128c0,0,0,86,-61,132c0,0,-61,46,-174,46c0,0,-62,0,-133,-13c0,0,-71,-14,-156,-42v134c0,0,85,24,160,36c0,0,75,12,142,12c0,0,171,0,271,-78c0,0,100,-78,100,-211c0,0,0,-92,-53,-156c0,0,-52,-64,-150,-89c0,0,108,-23,169,-96c0,0,61,-73,61,-180c0,0,0,-165,-114,-255c0,0,-113,-89,-322,-89Z" 
id="f0_16"
transform="scale(0.001,-0.001)" />

<path d="M411,-20c0,0,-70,0,-142,11c0,0,-73,11,-151,35V178c0,0,67,-37,139,-54c0,0,72,-18,152,-18c0,0,129,0,204,67c0,0,75,68,75,184c0,0,0,117,-75,184c0,0,-75,68,-204,68c0,0,-61,0,-121,-13c0,0,-60,-13,-123,-42v560H757V987H303V714c0,0,33,11,66,17c0,0,33,5,65,5c0,0,187,0,296,-102c0,0,109,-102,109,-277c0,0,0,-179,-112,-279c0,0,-112,-98,-316,-98Z" 
id="f0_18"
transform="scale(0.001,-0.001)" />

<path d="M467,496c0,0,102,0,161,69c0,0,59,70,59,190c0,0,0,120,-59,190c0,0,-59,70,-161,70c0,0,-101,0,-160,-70c0,0,-60,-70,-60,-190c0,0,0,-120,60,-190c0,0,59,-69,160,-69ZM403,-20c0,0,-57,0,-115,11c0,0,-58,10,-121,32V160c0,0,57,-26,115,-40c0,0,58,-14,115,-14c0,0,149,0,228,100c0,0,79,100,90,305c0,0,-44,-65,-110,-99c0,0,-66,-35,-147,-35c0,0,-167,0,-265,102c0,0,-97,101,-97,276c0,0,0,172,101,275c0,0,102,104,270,104c0,0,194,0,295,-148c0,0,102,-148,102,-430c0,0,0,-263,-125,-420C739,136,614,-20,403,-20Z" 
id="f0_1d"
transform="scale(0.001,-0.001)" />

<path d="M486,98c0,0,117,0,175,114c0,0,59,115,59,344c0,0,0,230,-59,344c0,0,-58,115,-175,115c0,0,-117,0,-175,-115c0,0,-59,-114,-59,-344c0,0,0,-229,59,-344c0,0,58,-114,175,-114ZM485,-20c0,0,-187,0,-285,147c0,0,-99,148,-99,429c0,0,0,282,98,430c0,0,99,148,286,148c0,0,188,0,286,-148c0,0,99,-148,99,-430c0,0,0,-281,-99,-429c0,0,-98,-147,-286,-147Z" 
id="f0_1f"
transform="scale(0.001,-0.001)" />

<path d="M287,0L589,729H66v386H205V836l547,-1l-2,-82L433,0Z" 
id="f0_3"
transform="scale(0.001,-0.001)" />

<path d="M102,312V836H241V369L102,312Z" 
id="f0_7"
transform="scale(0.001,-0.001)" />

<path d="M138,-7c0,0,-34,0,-72,10V129c0,0,25,-8,52,-8c0,0,33,0,58,5c0,0,26,5,58,24c0,0,33,20,53,54c0,0,21,34,36,97c0,0,15,64,15,151c0,0,0,113,-19,173c0,0,-19,60,-56,82c0,0,-38,22,-107,22H89V836h72c0,0,165,0,240,-91c0,0,76,-91,76,-293c0,0,0,-107,26,-227c0,0,25,-119,83,-225H437c0,0,-43,101,-62,184c0,0,-24,-60,-51,-99c0,0,-26,-38,-56,-58C268,27,239,7,209,0c0,0,-30,-7,-71,-7Z" 
id="f0_k"
transform="scale(0.001,-0.001)" />

<path d="M585,0V426c0,0,0,54,-8,98c0,0,-8,44,-27,83c0,0,-19,40,-49,66c0,0,-30,26,-77,41c0,0,-47,15,-108,15H66V836H315c0,0,94,0,166,-20c0,0,71,-20,116,-54c0,0,46,-35,75,-88c0,0,28,-52,40,-112c0,0,12,-60,12,-137V0Z" 
id="f0_a"
transform="scale(0.001,-0.001)" />

<path d="M112,-5c0,0,-39,0,-97,11V113c0,0,48,-10,77,-10c0,0,53,0,70,42c0,0,17,43,17,164V729H50V836H501c0,0,107,0,179,-25c0,0,72,-25,112,-77c0,0,40,-51,57,-118c0,0,16,-67,16,-164V0H726V454c0,0,0,55,-3,92c0,0,-4,37,-17,75c0,0,-14,38,-38,59c0,0,-24,22,-65,36c0,0,-42,13,-102,13H318V309c0,0,0,-160,-46,-237C272,72,226,-5,112,-5Z" 
id="f0_e"
transform="scale(0.001,-0.001)" />

<path d="M139,0V836H278V0Z" 
id="f0_c"
transform="scale(0.001,-0.001)" />

<path d="M66,0V107H554V452c0,0,0,56,-4,93c0,0,-4,37,-18,75c0,0,-14,38,-40,60c0,0,-26,22,-71,36c0,0,-45,13,-110,13H66V836H312c0,0,91,0,157,-17c0,0,66,-17,109,-49c0,0,44,-32,69,-84c0,0,26,-52,36,-114c0,0,10,-62,10,-147V107H817V0Z" 
id="f0_f"
transform="scale(0.001,-0.001)" />

<path d="M180,0L66,836H203L258,443c0,0,36,1,64,6c0,0,28,6,49,18c0,0,20,12,35,26c0,0,15,13,26,36c0,0,11,24,17,44c0,0,7,20,12,55c0,0,6,34,9,60c0,0,3,26,8,71c0,0,4,45,9,77H610c0,0,-13,-194,-31,-271c0,0,-31,-127,-111,-179c0,0,-71,-45,-196,-50L304,107c0,0,73,0,130,5c0,0,56,6,111,21c0,0,54,15,94,40c0,0,40,25,77,64c0,0,37,39,63,94c0,0,25,54,46,128c0,0,21,73,34,166c0,0,13,94,20,211h138c0,0,-14,-124,-29,-218c0,0,-16,-94,-39,-179c0,0,-22,-85,-50,-146c0,0,-28,-61,-68,-112c0,0,-39,-51,-87,-84C744,97,696,65,632,42C632,42,568,19,492,10C492,10,417,0,320,0Z" 
id="f0_4"
transform="scale(0.001,-0.001)" />

<path d="M679,178V467c0,0,0,110,-32,150c0,0,-31,41,-120,41H385V178ZM139,0V836H525c0,0,220,0,311,-90c0,0,90,-90,90,-297V0Z" 
id="f3_c"
transform="scale(0.001,-0.001)" />

<path d="M139,0V836H386V0Z" 
id="f3_b"
transform="scale(0.001,-0.001)" />

<path d="M102,250V836H349V351L102,250Z" 
id="f3_d"
transform="scale(0.001,-0.001)" />

<path d="M248,0L521,658H66v429H313V836l493,-1V716L504,0Z" 
id="f3_n"
transform="scale(0.001,-0.001)" />

<path d="M137,0L30,830H277L321,522c0,0,68,3,96,27c0,0,27,23,38,58c0,0,26,74,31,228H733c0,0,-31,-218,-70,-316c0,0,-23,-59,-88,-100c0,0,-54,-34,-116,-42c0,0,-62,-8,-117,-8L362,178c0,0,27,-1,61,-1c40,0,89,1,119,6c0,0,57,8,94,25c0,0,37,18,69,47c0,0,32,30,60,79c0,0,28,48,51,117c0,0,48,143,82,384h248c0,0,-53,-404,-172,-586C974,249,879,103,745,51C745,51,613,0,318,0Z" 
id="f3_e"
transform="scale(0.001,-0.001)" />

<path d="M159,0V165c0,0,0,69,13,124c0,0,12,55,29,89c0,0,17,33,45,62c0,0,29,28,50,42c0,0,22,14,54,30L128,836H405L666,460c0,0,41,48,41,155V836H952V671c0,0,0,-50,-6,-93c0,0,-6,-42,-16,-73c0,0,-10,-30,-26,-57c0,0,-17,-27,-31,-44c0,0,-15,-17,-37,-33c0,0,-22,-16,-38,-25c0,0,-15,-9,-38,-21L984,0H706L445,376c0,0,-41,-48,-41,-155V0Z" 
id="f3_u"
transform="scale(0.001,-0.001)" />

<path d="M534,0V425c0,0,0,109,-41,171c0,0,-41,62,-140,62H66V836H352c0,0,99,0,174,-20c0,0,75,-20,123,-55c0,0,48,-35,78,-87c0,0,30,-53,42,-113c0,0,12,-60,12,-136V0Z" 
id="f3_4"
transform="scale(0.001,-0.001)" />

<path d="M139,0V836H512c0,0,219,0,309,-90c0,0,90,-90,90,-297V0H665V467c0,0,0,110,-31,150c0,0,-32,41,-120,41H385V0Z" 
id="f3_g"
transform="scale(0.001,-0.001)" />

<path d="M171,0V288H440V0Zm0,548V836H440V548Z" 
id="f3_k"
transform="scale(0.001,-0.001)" />

<path d="M173,-6C173,-6,61,-6,15,9V177c0,0,73,-10,82,-10c0,0,37,0,52,30c0,0,14,29,14,116V658H18V836H516c0,0,262,0,341,-145c0,0,48,-89,48,-242V0H658V450c0,0,0,131,-37,171c0,0,-34,37,-105,37H411V313c0,0,0,-189,-67,-258C344,55,285,-6,173,-6Z" 
id="f3_p"
transform="scale(0.001,-0.001)" />

<path d="M66,0V178H507V449c0,0,0,43,-2,71c0,0,-3,28,-12,56c0,0,-9,28,-26,45c0,0,-17,16,-47,27c0,0,-29,10,-72,10H66V836H349c0,0,97,0,167,-17c0,0,71,-17,117,-49c0,0,46,-32,73,-84c0,0,27,-52,38,-114c0,0,11,-62,11,-147V178H866V0Z" 
id="f3_j"
transform="scale(0.001,-0.001)" />

<path d="M82,0V177H500L50,836H328L560,491c0,0,56,19,56,124V836H861V671c0,0,0,-116,-45,-192c0,0,-40,-68,-85,-90c0,0,-50,-26,-71,-26c0,0,-1,0,-1,0L838,96V0Z" 
id="f3_v"
transform="scale(0.001,-0.001)" />

<path d="M150,-366V437L396,539V-366ZM499,0L727,658H139V835h870V716L754,0Z" 
id="f3_3"
transform="scale(0.001,-0.001)" />

<path d="M114,0l60,312c0,0,2,12,8,39c0,0,6,27,7,37c0,0,2,11,5,30c0,0,2,19,4,33c0,0,1,15,1,31c0,0,0,48,-35,146c0,0,-35,98,-98,208H228c0,0,3,-8,27,-67c0,0,25,-58,41,-117c0,0,21,53,50,90c0,0,29,37,57,57c0,0,29,21,65,32c0,0,37,11,65,14c0,0,28,3,67,3c0,0,300,0,300,-396V0H480V106H761V452c0,0,0,146,-46,215c0,0,-45,70,-118,70c0,0,-134,0,-198,-119c0,0,-36,-68,-67,-222c0,0,-2,-10,-6,-27L253,0Z" 
id="f0_8"
transform="scale(0.001,-0.001)" />

<path d="M139,0V138c0,0,0,61,8,112c0,0,7,52,19,87c0,0,11,36,30,66c0,0,19,31,35,49c0,0,17,19,41,35c0,0,25,17,41,25c0,0,17,7,40,17L141,836H303L613,388c0,0,20,10,33,18c0,0,13,8,34,28c0,0,20,20,33,44c0,0,13,25,22,66c0,0,10,41,10,92V836H882V698c0,0,0,-61,-7,-112c0,0,-6,-52,-18,-88c0,0,-12,-36,-30,-66c0,0,-19,-30,-36,-49c0,0,-17,-18,-41,-34c0,0,-24,-17,-40,-25c0,0,-17,-8,-41,-17L882,0H720L409,448c0,0,-21,-11,-34,-19c0,0,-13,-8,-34,-27c0,0,-21,-20,-34,-44c0,0,-12,-25,-22,-66c0,0,-9,-41,-9,-92V0Z" 
id="f0_d"
transform="scale(0.001,-0.001)" />

<path d="M66,0V107H332V555c0,0,0,92,-37,133c0,0,-37,41,-116,41H85V836h94c0,0,153,0,223,-66c0,0,69,-66,69,-231V0Z" 
id="f0_n"
transform="scale(0.001,-0.001)" />

<path d="M354,-200c0,0,-112,175,-167,343c0,0,-56,170,-56,337c0,0,0,166,55,335c0,0,55,169,168,345H473c0,0,-100,-172,-148,-340c0,0,-48,-168,-48,-340c0,0,0,-173,48,-342c0,0,49,-168,148,-338Z" 
id="f0_x"
transform="scale(0.001,-0.001)" />

<path d="M154,0V454l138,56V0ZM722,0V454c0,0,0,161,-49,218c0,0,-48,57,-186,57H139V836H485c0,0,207,0,291,-93c0,0,83,-94,83,-318V0Z" 
id="f0_9"
transform="scale(0.001,-0.001)" />

<path d="M522,-20c0,0,-196,0,-290,99c0,0,-94,100,-94,324V836H276V397c0,0,0,-86,16,-147c0,0,17,-60,50,-94c0,0,34,-34,77,-49c0,0,43,-15,103,-15c0,0,59,0,102,15c0,0,44,15,77,49c0,0,33,34,50,94c0,0,17,61,17,147c0,0,0,84,-8,143c0,0,-7,58,-25,105c0,0,-17,47,-51,69c0,0,-33,23,-83,23c0,0,-50,0,-119,-22V821c0,0,85,23,150,23c0,0,76,0,130,-30c0,0,53,-31,85,-90c0,0,31,-59,45,-138c0,0,13,-78,13,-183c0,0,0,-224,-93,-324c0,0,-94,-99,-290,-99Z" 
id="f0_w"
transform="scale(0.001,-0.001)" />

<path d="M139,0V106H400c0,0,176,0,253,71c0,0,78,72,78,250c0,0,0,163,-80,233c0,0,-81,69,-250,69H278L277,564c0,0,-1,-54,26,-80c0,0,27,-25,82,-25c0,0,30,0,80,9V355c0,0,-61,-12,-111,-12c0,0,-100,0,-157,55c0,0,-58,55,-58,186V836H456c0,0,193,0,303,-109c0,0,110,-109,110,-309c0,0,0,-200,-110,-309C759,109,648,0,456,0Z" 
id="f0_m"
transform="scale(0.001,-0.001)" />

<path d="M71,-141V-15L289,62L66,836H210L416,109c0,0,99,42,153,98c0,0,53,56,80,155c0,0,26,98,26,262V836H817V624c0,0,0,-88,-7,-154c0,0,-7,-67,-25,-132c0,0,-18,-66,-51,-116c0,0,-33,-51,-84,-98c0,0,-50,-48,-123,-87c0,0,-72,-39,-169,-74L71,-141Z" 
id="f0_l"
transform="scale(0.001,-0.001)" />

<path d="M139,0V836H485c0,0,206,0,290,-90c0,0,84,-89,84,-294V0H721V473c0,0,0,147,-49,202c0,0,-48,54,-186,54H277V0Z" 
id="f0_g"
transform="scale(0.001,-0.001)" />

<path d="M522,92c0,0,247,0,247,333c0,0,0,88,-17,146c0,0,-17,58,-53,91c0,0,-35,33,-82,46c0,0,-48,14,-116,14H276V419c0,0,0,-327,246,-327Zm0,-112c0,0,-193,0,-289,109c0,0,-95,110,-95,337V836H501c0,0,213,0,309,-93c0,0,96,-94,96,-317c0,0,0,-227,-95,-337C811,89,715,-20,522,-20Z" 
id="f0_t"
transform="scale(0.001,-0.001)" />

<path d="M122,-200c0,0,99,170,148,338c0,0,49,169,49,342c0,0,0,172,-49,340c0,0,-49,168,-148,340H241c0,0,112,-176,168,-345c0,0,55,-169,55,-335c0,0,0,-167,-55,-337c0,0,-56,-168,-168,-343Z" 
id="f0_v"
transform="scale(0.001,-0.001)" />

<path d="M147,700v414H274V700Zm282,0v414H556V700Z" 
id="f0_u"
transform="scale(0.001,-0.001)" />

<path d="M495,0V729H66V836H781V729H634V0Z" 
id="f0_q"
transform="scale(0.001,-0.001)" />

<path d="M66,0V106H322c0,0,75,0,127,23c0,0,53,23,82,67c0,0,29,43,42,98c0,0,13,54,13,124c0,0,0,70,-13,124c0,0,-13,55,-42,98c0,0,-29,44,-82,67c0,0,-52,23,-127,23H66V836H322c0,0,87,0,157,-24c0,0,70,-24,115,-64c0,0,45,-40,74,-94c0,0,30,-55,43,-113c0,0,13,-59,13,-123c0,0,0,-64,-13,-123c0,0,-13,-58,-43,-113c0,0,-29,-54,-74,-94C594,88,549,48,479,24C479,24,409,0,322,0Z" 
id="f0_i"
transform="scale(0.001,-0.001)" />

<path d="M431,0V33L535,52V499c0,0,0,62,-32,96c0,0,-32,33,-95,33c0,0,-66,0,-163,-22V52L350,33V0H32V33l89,19V649L32,668v33H237l6,-57c0,0,56,32,119,54c0,0,62,22,110,22c0,0,52,0,95,-20c0,0,44,-19,66,-62c0,0,57,32,134,57c0,0,77,25,128,25c0,0,179,0,179,-207V52l90,-19V0H846V33L950,52V499c0,0,0,129,-119,129c0,0,-19,0,-45,-3c0,0,-26,-3,-52,-7c0,0,-25,-4,-49,-8c0,0,-23,-5,-39,-8c0,0,13,-41,13,-89V52L764,33V0Z" 
id="f2_p"
transform="scale(0.001,-0.001)" />

<path d="M32,0V33L151,52V649L52,668v33H275V52L395,33V0ZM201,850c0,0,-32,0,-56,24c0,0,-24,24,-24,56c0,0,0,34,24,58c0,0,24,24,56,24c0,0,34,0,58,-24c0,0,24,-24,24,-58c0,0,0,-32,-24,-56c0,0,-24,-24,-58,-24Z" 
id="f2_4"
transform="scale(0.001,-0.001)" />

<path d="M495,413c0,0,0,133,-34,190c0,0,-34,57,-105,57c0,0,-78,0,-119,-63c0,0,-42,-62,-42,-184ZM374,-14c0,0,-163,0,-239,87c0,0,-75,88,-75,283c0,0,0,183,77,273c0,0,76,91,219,91c0,0,269,0,269,-306V353H194V340c0,0,0,-103,23,-160c0,0,22,-57,70,-87c0,0,47,-29,124,-29c0,0,40,0,96,6c0,0,55,7,91,15V43C598,43,562,20,500,3c0,0,-61,-17,-126,-17Z" 
id="f2_2"
transform="scale(0.001,-0.001)" />

<path d="M31,0V33l88,19V649L31,668v33H235l7,-87c0,0,44,37,121,71c0,0,76,35,121,35h11V530H463l-43,82c0,0,-37,0,-88,-10c0,0,-52,-10,-89,-26V52L363,33V0Z" 
id="f2_3"
transform="scale(0.001,-0.001)" />

<path d="M383,64c0,0,85,0,152,28V645c0,0,-67,13,-152,13c0,0,-194,0,-194,-314c0,0,0,-141,48,-211c0,0,48,-69,146,-69ZM342,-14c0,0,-287,0,-287,358c0,0,0,184,82,280c0,0,81,96,239,96c0,0,81,0,163,-18c0,0,-4,25,-4,124v182l-118,18v34H659V52L745,33V0H548l-9,52c0,0,-84,-66,-197,-66Z" 
id="f2_e"
transform="scale(0.001,-0.001)" />

<path d="M284,67c0,0,51,0,88,12c0,0,37,12,74,30V358l-98,-3c0,0,-100,-4,-135,-39c0,0,-35,-35,-35,-117c0,0,0,-132,106,-132ZM233,-14c0,0,-179,0,-179,208c0,0,0,70,27,116c0,0,27,46,87,70c0,0,60,24,173,27l105,3V519c0,0,0,72,-26,107c0,0,-27,34,-82,34c0,0,-75,0,-137,-35L176,538H134V691c0,0,121,26,213,26c0,0,115,0,169,-47c0,0,54,-47,54,-144V52L657,33V0H465L451,70c0,0,-85,-84,-218,-84Z" 
id="f2_m"
transform="scale(0.001,-0.001)" />

<path d="M163,0V190H321V0Z" 
id="f0_j"
transform="scale(0.001,-0.001)" />

<path d="M117,-176L179,62V190H336V62L213,-176Z" 
id="f0_s"
transform="scale(0.001,-0.001)" />

<path d="M736,107V473c0,0,0,147,-48,202c0,0,-49,54,-187,54H278V107ZM139,0V836H499c0,0,105,0,177,-22c0,0,72,-21,116,-69c0,0,44,-49,64,-119c0,0,19,-71,19,-174V0Z" 
id="f0_6"
transform="scale(0.001,-0.001)" />

<path d="M543,-317V369c0,0,0,85,-8,143c0,0,-8,58,-27,101c0,0,-18,44,-51,69c0,0,-33,24,-80,36c0,0,-48,11,-117,11H66V836H257c0,0,125,0,205,-23c0,0,80,-23,130,-79c0,0,50,-56,70,-143c0,0,20,-86,20,-222V-317Z" 
id="f0_2"
transform="scale(0.001,-0.001)" />

<path d="M495,413c0,0,0,133,-34,190c0,0,-34,57,-105,57c0,0,-78,0,-119,-62c0,0,-42,-63,-42,-185ZM374,-14c0,0,-163,0,-239,87c0,0,-75,88,-75,283c0,0,0,183,77,274c0,0,76,90,219,90c0,0,269,0,269,-306V353H194V339c0,0,0,-103,23,-160c0,0,22,-57,70,-86c0,0,47,-30,124,-30c0,0,40,0,96,6c0,0,55,7,91,15V43C598,43,562,19,500,2c0,0,-61,-16,-126,-16ZM285,835v24l146,203H590v-27L326,835Z" 
id="f2_k"
transform="scale(0.001,-0.001)" />

<path d="M399,-14c0,0,-341,0,-341,370c0,0,0,175,87,269c0,0,87,95,249,95c0,0,101,0,220,-23V501H573L541,625c0,0,-62,35,-149,35c0,0,-200,0,-200,-304c0,0,0,-158,61,-225c0,0,61,-67,189,-67c0,0,109,0,189,24V43C631,43,595,16,530,1c0,0,-64,-15,-131,-15Z" 
id="f2_5"
transform="scale(0.001,-0.001)" />

<path d="M377,45c0,0,99,0,147,73c0,0,47,73,47,237c0,0,0,161,-47,233c0,0,-47,72,-147,72c0,0,-97,0,-141,-69c0,0,-44,-69,-44,-236c0,0,0,-169,45,-240c0,0,44,-70,140,-70Zm0,-59c0,0,-158,0,-238,94c0,0,-81,95,-81,274c0,0,0,178,81,272c0,0,80,94,244,94c0,0,160,0,241,-92c0,0,82,-92,82,-274c0,0,0,-368,-329,-368Z" 
id="f2_8"
transform="scale(0.001,-0.001)" />

<path d="M31,0V33L150,52v956L31,1026v34H274V52L394,33V0Z" 
id="f2_l"
transform="scale(0.001,-0.001)" />

<path d="M278,-14c0,0,-52,0,-115,11c0,0,-63,10,-99,23V193H98L134,95c0,0,56,-50,146,-50c0,0,144,0,144,123c0,0,0,91,-114,130l-66,21c0,0,-75,25,-110,50c0,0,-34,26,-53,63c0,0,-18,36,-18,89c0,0,0,92,63,145c0,0,63,54,170,54c0,0,77,0,193,-23V544H454l-32,81c0,0,-39,35,-124,35c0,0,-61,0,-92,-30c0,0,-32,-30,-32,-80c0,0,0,-43,29,-72c0,0,28,-29,86,-48c0,0,110,-38,144,-55c0,0,33,-17,57,-42c0,0,23,-25,36,-57c0,0,13,-32,13,-79c0,0,0,-104,-66,-158c0,0,-66,-53,-195,-53Z" 
id="f2_g"
transform="scale(0.001,-0.001)" />

<path d="M66,0V106H564L66,836H228L516,413c0,0,3,2,9,6c0,0,17,13,27,21c0,0,10,8,26,27c0,0,17,20,26,40c0,0,9,21,16,54c0,0,7,34,7,75V836H764V698c0,0,0,-55,-7,-102c0,0,-7,-47,-16,-79c0,0,-10,-33,-27,-62c0,0,-18,-29,-32,-46c0,0,-14,-17,-37,-35c0,0,-22,-17,-36,-25c0,0,-13,-8,-36,-20L767,53V0Z" 
id="f0_b"
transform="scale(0.001,-0.001)" />

<path d="M156,-317V454l139,56V-317ZM505,0L806,729H139V835H967V753L650,0Z" 
id="f0_p"
transform="scale(0.001,-0.001)" />

<path d="M139,-317V836H278V-317Z" 
id="f0_h"
transform="scale(0.001,-0.001)" />

<path d="M617,0L251,860V60L385,40V0H44V40L172,60V941L44,960v40H347L672,239l355,761h287V960L1185,941V60L1314,40V0H908V40l134,20V859L643,0Z" 
id="f2_1v"
transform="scale(0.001,-0.001)" />


</defs>
</svg>