<?xml version="1.0" encoding="UTF-8" standalone="no"?>
<!DOCTYPE svg PUBLIC "-//W3C//DTD SVG 1.1//EN"
"http://www.w3.org/Graphics/SVG/1.1/DTD/svg11.dtd">
<svg viewBox="0 0 909 1286" version="1.1" xmlns="http://www.w3.org/2000/svg" xmlns:xlink="http://www.w3.org/1999/xlink">
<defs>
<clipPath id="c0_2"><path d="M0,1286.2V0H909.4V1286.2Z" /></clipPath>
<clipPath id="c1_2"><path d="M642.4,172.6V151.3h.3v21.3Z" /></clipPath>
<clipPath id="c2_2"><path d="M642.4,477.9V456.6h.3v21.3Z" /></clipPath>
<clipPath id="c3_2"><path d="M642.4,763.9V742.6h.3v21.3Z" /></clipPath>
<style type="text/css"><![CDATA[
.g0_2{
fill: #D8D8D8;
}
.g1_2{
fill: none;
stroke: #000000;
stroke-width: 0.7638889;
stroke-linecap: butt;
stroke-linejoin: round;
}
.g2_2{
fill: none;
stroke: #0000FF;
stroke-width: 1.0694444;
stroke-linecap: butt;
stroke-linejoin: miter;
}
.g3_2{
fill: none;
stroke: #000000;
stroke-width: 0.9166667;
stroke-linecap: butt;
stroke-linejoin: miter;
}
]]></style>
</defs>
<path fill-rule="evenodd" d="M659.5,314.8h177V294.9h-177v19.9Z" class="g0_2" />
<path fill-rule="evenodd" d="M464.6,314.8H659.5V294.9H464.6v19.9Z" class="g0_2" />
<path fill-rule="evenodd" d="M237.3,314.8H464.5V294.9H237.3v19.9Z" class="g0_2" />
<path fill-rule="evenodd" d="M746.2,337h90.3V314.9H746.2V337Z" class="g0_2" />
<path fill-rule="evenodd" d="M659.5,337h86.6V314.9H659.5V337Z" class="g0_2" />
<path fill-rule="evenodd" d="M562.2,337h97.3V314.9H562.2V337Z" class="g0_2" />
<path fill-rule="evenodd" d="M464.8,337h97.3V314.9H464.8V337Z" class="g0_2" />
<path fill-rule="evenodd" d="M356.4,337H464.7V314.9H356.4V337Z" class="g0_2" />
<path fill-rule="evenodd" d="M237.3,337H356.4V314.9H237.3V337Z" class="g0_2" />
<path fill-rule="evenodd" d="M128.9,357.1H237.2V337H128.9v20.1Z" class="g0_2" />
<path fill-rule="evenodd" d="M128.9,377.1H237.2V357.2H128.9v19.9Z" class="g0_2" />
<path fill-rule="evenodd" d="M128.9,397.3H237.2V377.2H128.9v20.1Z" class="g0_2" />
<path fill-rule="evenodd" d="M128.9,417.3H237.2V397.4H128.9v19.9Z" class="g0_2" />
<path fill-rule="evenodd" d="M128.9,437.5H237.2V417.4H128.9v20.1Z" class="g0_2" />
<path fill-rule="evenodd" d="M659.5,600.8h177V580.9h-177v19.9Z" class="g0_2" />
<path fill-rule="evenodd" d="M464.6,600.8H659.5V580.9H464.6v19.9Z" class="g0_2" />
<path fill-rule="evenodd" d="M237.3,600.8H464.5V580.9H237.3v19.9Z" class="g0_2" />
<path fill-rule="evenodd" d="M746.2,623h90.3V600.9H746.2V623Z" class="g0_2" />
<path fill-rule="evenodd" d="M659.5,623h86.6V600.9H659.5V623Z" class="g0_2" />
<path fill-rule="evenodd" d="M562.2,623h97.3V600.9H562.2V623Z" class="g0_2" />
<path fill-rule="evenodd" d="M464.8,623h97.3V600.9H464.8V623Z" class="g0_2" />
<path fill-rule="evenodd" d="M356.4,623H464.7V600.9H356.4V623Z" class="g0_2" />
<path fill-rule="evenodd" d="M237.3,623H356.4V600.9H237.3V623Z" class="g0_2" />
<path fill-rule="evenodd" d="M128.9,643.1H237.2V623H128.9v20.1Z" class="g0_2" />
<path fill-rule="evenodd" d="M128.9,663.1H237.2V643.2H128.9v19.9Z" class="g0_2" />
<path fill-rule="evenodd" d="M128.9,683.3H237.2V663.2H128.9v20.1Z" class="g0_2" />
<path fill-rule="evenodd" d="M128.9,703.3H237.2V683.4H128.9v19.9Z" class="g0_2" />
<path fill-rule="evenodd" d="M128.9,723.5H237.2V703.4H128.9v20.1Z" class="g0_2" />
<path fill-rule="evenodd" d="M592.3,865.4H780V845.5H592.3v19.9Z" class="g0_2" />
<path fill-rule="evenodd" d="M386.5,865.4H592.2V845.5H386.5v19.9Z" class="g0_2" />
<path fill-rule="evenodd" d="M128.9,865.4H386.5V845.5H128.9v19.9Z" class="g0_2" />
<path fill-rule="evenodd" d="M659.5,314.8h177V294.9h-177v19.9Z" class="g0_2" />
<path fill-rule="evenodd" d="M464.6,314.8H659.5V294.9H464.6v19.9Z" class="g0_2" />
<path fill-rule="evenodd" d="M237.3,314.8H464.5V294.9H237.3v19.9Z" class="g0_2" />
<path fill-rule="evenodd" d="M746.2,337h90.3V314.9H746.2V337Z" class="g0_2" />
<path fill-rule="evenodd" d="M659.5,337h86.6V314.9H659.5V337Z" class="g0_2" />
<path fill-rule="evenodd" d="M562.2,337h97.3V314.9H562.2V337Z" class="g0_2" />
<path fill-rule="evenodd" d="M464.8,337h97.3V314.9H464.8V337Z" class="g0_2" />
<path fill-rule="evenodd" d="M356.4,337H464.7V314.9H356.4V337Z" class="g0_2" />
<path fill-rule="evenodd" d="M237.3,337H356.4V314.9H237.3V337Z" class="g0_2" />
<path fill-rule="evenodd" d="M128.9,357.1H237.2V337H128.9v20.1Z" class="g0_2" />
<path fill-rule="evenodd" d="M128.9,377.1H237.2V357.2H128.9v19.9Z" class="g0_2" />
<path fill-rule="evenodd" d="M128.9,397.3H237.2V377.2H128.9v20.1Z" class="g0_2" />
<path fill-rule="evenodd" d="M128.9,417.3H237.2V397.4H128.9v19.9Z" class="g0_2" />
<path fill-rule="evenodd" d="M128.9,437.5H237.2V417.4H128.9v20.1Z" class="g0_2" />
<path fill-rule="evenodd" d="M659.5,600.8h177V580.9h-177v19.9Z" class="g0_2" />
<path fill-rule="evenodd" d="M464.6,600.8H659.5V580.9H464.6v19.9Z" class="g0_2" />
<path fill-rule="evenodd" d="M237.3,600.8H464.5V580.9H237.3v19.9Z" class="g0_2" />
<path fill-rule="evenodd" d="M746.2,623h90.3V600.9H746.2V623Z" class="g0_2" />
<path fill-rule="evenodd" d="M659.5,623h86.6V600.9H659.5V623Z" class="g0_2" />
<path fill-rule="evenodd" d="M562.2,623h97.3V600.9H562.2V623Z" class="g0_2" />
<path fill-rule="evenodd" d="M464.8,623h97.3V600.9H464.8V623Z" class="g0_2" />
<path fill-rule="evenodd" d="M356.4,623H464.7V600.9H356.4V623Z" class="g0_2" />
<path fill-rule="evenodd" d="M237.3,623H356.4V600.9H237.3V623Z" class="g0_2" />
<path fill-rule="evenodd" d="M128.9,643.1H237.2V623H128.9v20.1Z" class="g0_2" />
<path fill-rule="evenodd" d="M128.9,663.1H237.2V643.2H128.9v19.9Z" class="g0_2" />
<path fill-rule="evenodd" d="M128.9,683.3H237.2V663.2H128.9v20.1Z" class="g0_2" />
<path fill-rule="evenodd" d="M128.9,703.3H237.2V683.4H128.9v19.9Z" class="g0_2" />
<path fill-rule="evenodd" d="M128.9,723.5H237.2V703.4H128.9v20.1Z" class="g0_2" />
<path fill-rule="evenodd" d="M592.3,865.4H780V845.5H592.3v19.9Z" class="g0_2" />
<path fill-rule="evenodd" d="M386.5,865.4H592.2V845.5H386.5v19.9Z" class="g0_2" />
<path fill-rule="evenodd" d="M128.9,865.4H386.5V845.5H128.9v19.9Z" class="g0_2" />
<path d="M129.2,110.4H292.3m162.8,0H618M129.2,132.5H292.3m162.8,0H618" class="g1_2" />
<g clip-path="url(#c0_2)">
<g fill="#000000" >
<use xlink:href="#f0_8" transform="matrix(12,0,0,12,673,127.9)" />
<use xlink:href="#f0_l" transform="matrix(12,0,0,12,678.8,127.9)" />
<use xlink:href="#f0_i" transform="matrix(12,0,0,12,691,127.9)" />
<use xlink:href="#f0_c" transform="matrix(12,0,0,12,695.1,127.9)" />
<use xlink:href="#f0_i" transform="matrix(12,0,0,12,708.1,127.9)" />
<use xlink:href="#f0_n" transform="matrix(12,0,0,12,712.2,127.9)" />
<use xlink:href="#f0_q" transform="matrix(12,0,0,12,719.7,127.9)" />
<use xlink:href="#f0_7" transform="matrix(12,0,0,12,729.9,127.9)" />
<use xlink:href="#f0_l" transform="matrix(12,0,0,12,748.4,127.9)" />
<use xlink:href="#f0_g" transform="matrix(12,0,0,12,760.6,127.9)" />
<use xlink:href="#f0_8" transform="matrix(12,0,0,12,347.4,127.9)" />
<use xlink:href="#f0_c" transform="matrix(12,0,0,12,353.2,127.9)" />
<use xlink:href="#f0_i" transform="matrix(12,0,0,12,366.2,127.9)" />
<use xlink:href="#f0_n" transform="matrix(12,0,0,12,370.3,127.9)" />
<use xlink:href="#f0_q" transform="matrix(12,0,0,12,377.8,127.9)" />
<use xlink:href="#f0_7" transform="matrix(12,0,0,12,388.2,127.9)" />
<use xlink:href="#f0_6" transform="matrix(12,0,0,12,406.5,127.9)" />
<use xlink:href="#f0_a" transform="matrix(12,0,0,12,411.5,127.9)" />
<use xlink:href="#f0_6" transform="matrix(12,0,0,12,421.6,127.9)" />
<use xlink:href="#f0_f" transform="matrix(12,0,0,12,426.6,127.9)" />
<use xlink:href="#f0_4" transform="matrix(12,0,0,12,437.1,127.9)" />
</g>
<g fill="#0000FF" >
<use xlink:href="#f0_b" transform="matrix(12,0,0,12,649.3,168.4)" />
<use xlink:href="#f0_i" transform="matrix(12,0,0,12,660,168.4)" />
<use xlink:href="#f0_n" transform="matrix(12,0,0,12,664.5,168.4)" />
<use xlink:href="#f0_q" transform="matrix(12,0,0,12,672.3,168.4)" />
<use xlink:href="#f0_h" transform="matrix(12,0,0,12,683.1,168.4)" />
<use xlink:href="#f0_b" transform="matrix(12,0,0,12,695.5,168.4)" />
<use xlink:href="#f0_h" transform="matrix(12,0,0,12,712.4,168.4)" />
<use xlink:href="#f0_6" transform="matrix(12,0,0,12,724.9,168.4)" />
<use xlink:href="#f0_f" transform="matrix(12,0,0,12,730.3,168.4)" />
<use xlink:href="#f0_6" transform="matrix(12,0,0,12,741.2,168.4)" />
<use xlink:href="#f0_c" transform="matrix(12,0,0,12,746.6,168.4)" />
<use xlink:href="#f0_h" transform="matrix(12,0,0,12,759.8,168.4)" />
</g>
</g>
<path d="M642.9,170.2H772.1" class="g2_2" />
<g clip-path="url(#c1_2)">
<path d="M642.4,170.2h5.8" class="g2_2" />
</g>
<g clip-path="url(#c0_2)">
<g fill="#0000FF" >
<use xlink:href="#f0_14" transform="matrix(12,0,0,12,630.7,168.4)" />
</g>
</g>
<path d="M630.7,170.2h11.6" class="g2_2" />
<g clip-path="url(#c0_2)">
<g fill="#000000" >
<use xlink:href="#f1_a" transform="matrix(12,0,0,12,723.8,228.4)" />
<use xlink:href="#f1_8" transform="matrix(12,0,0,12,735,228.4)" />
<use xlink:href="#f1_k" transform="matrix(12,0,0,12,740.3,228.4)" />
<use xlink:href="#f1_4" transform="matrix(12,0,0,12,748.6,228.4)" />
<use xlink:href="#f1_h" transform="matrix(12,0,0,12,759.6,228.4)" />
<use xlink:href="#f1_n" transform="matrix(12,0,0,12,699.6,228.4)" />
<use xlink:href="#f0_c" transform="matrix(12,0,0,12,137.7,228.4)" />
<use xlink:href="#f0_i" transform="matrix(12,0,0,12,150.6,228.4)" />
<use xlink:href="#f0_i" transform="matrix(12,0,0,12,165.6,228.4)" />
<use xlink:href="#f0_4" transform="matrix(12,0,0,12,169.7,228.4)" />
<use xlink:href="#f0_f" transform="matrix(12,0,0,12,190.3,228.4)" />
<use xlink:href="#f0_b" transform="matrix(12,0,0,12,200.8,228.4)" />
<use xlink:href="#f0_l" transform="matrix(12,0,0,12,222,228.4)" />
<use xlink:href="#f0_i" transform="matrix(12,0,0,12,234.2,228.4)" />
<use xlink:href="#f0_c" transform="matrix(12,0,0,12,238.3,228.4)" />
<use xlink:href="#f0_8" transform="matrix(12,0,0,12,262.3,228.4)" />
<use xlink:href="#f0_n" transform="matrix(12,0,0,12,268.1,228.4)" />
<use xlink:href="#f0_i" transform="matrix(12,0,0,12,275.6,228.4)" />
<use xlink:href="#f0_q" transform="matrix(12,0,0,12,279.7,228.4)" />
<use xlink:href="#f0_k" transform="matrix(12,0,0,12,290,228.4)" />
<use xlink:href="#f0_g" transform="matrix(12,0,0,12,302,228.4)" />
<use xlink:href="#f0_b" transform="matrix(12,0,0,12,324.8,228.4)" />
<use xlink:href="#f0_b" transform="matrix(12,0,0,12,335.2,228.4)" />
<use xlink:href="#f0_4" transform="matrix(12,0,0,12,345.6,228.4)" />
<use xlink:href="#f0_b" transform="matrix(12,0,0,12,355.3,228.4)" />
<use xlink:href="#f0_l" transform="matrix(12,0,0,12,376.6,228.4)" />
<use xlink:href="#f0_s" transform="matrix(12,0,0,12,388.8,228.4)" />
<use xlink:href="#f0_h" transform="matrix(12,0,0,12,401,228.4)" />
<use xlink:href="#f0_g" transform="matrix(12,0,0,12,413.1,228.4)" />
<use xlink:href="#f0_f" transform="matrix(12,0,0,12,425,228.4)" />
<use xlink:href="#f0_h" transform="matrix(12,0,0,12,446.3,228.4)" />
<use xlink:href="#f0_6" transform="matrix(12,0,0,12,458.4,228.4)" />
<use xlink:href="#f0_q" transform="matrix(12,0,0,12,463.4,228.4)" />
<use xlink:href="#f0_o" transform="matrix(12,0,0,12,473.8,228.4)" />
<use xlink:href="#f0_k" transform="matrix(12,0,0,12,485.7,228.4)" />
<use xlink:href="#f0_g" transform="matrix(12,0,0,12,497.6,228.4)" />
<use xlink:href="#f0_h" transform="matrix(12,0,0,12,520.3,228.4)" />
<use xlink:href="#f0_6" transform="matrix(12,0,0,12,532.4,228.4)" />
<use xlink:href="#f0_i" transform="matrix(12,0,0,12,537.4,228.4)" />
<use xlink:href="#f0_d" transform="matrix(12,0,0,12,541.5,228.4)" />
<use xlink:href="#f0_g" transform="matrix(12,0,0,12,553.4,228.4)" />
<use xlink:href="#f0_g" transform="matrix(12,0,0,12,565.3,228.4)" />
<use xlink:href="#f0_h" transform="matrix(12,0,0,12,588,228.4)" />
<use xlink:href="#f0_s" transform="matrix(12,0,0,12,600.1,228.4)" />
<use xlink:href="#f0_l" transform="matrix(12,0,0,12,623.2,228.4)" />
<use xlink:href="#f0_b" transform="matrix(12,0,0,12,635.5,228.4)" />
<use xlink:href="#f0_c" transform="matrix(12,0,0,12,645.9,228.4)" />
<use xlink:href="#f0_g" transform="matrix(12,0,0,12,658.8,228.4)" />
<use xlink:href="#f0_17" transform="matrix(12,0,0,12,681.5,228.4)" />
<use xlink:href="#f0_h" transform="matrix(12,0,0,12,629.1,249.8)" />
<use xlink:href="#f0_6" transform="matrix(12,0,0,12,641.2,249.8)" />
<use xlink:href="#f0_s" transform="matrix(12,0,0,12,646.2,249.8)" />
<use xlink:href="#f0_g" transform="matrix(12,0,0,12,658.4,249.8)" />
<use xlink:href="#f0_h" transform="matrix(12,0,0,12,678.7,249.8)" />
<use xlink:href="#f0_s" transform="matrix(12,0,0,12,690.7,249.8)" />
<use xlink:href="#f0_12" transform="matrix(12,0,0,12,711.5,249.8)" />
<use xlink:href="#f0_i" transform="matrix(12,0,0,12,723.2,249.8)" />
<use xlink:href="#f0_b" transform="matrix(12,0,0,12,727.3,249.8)" />
<use xlink:href="#f0_k" transform="matrix(12,0,0,12,737.7,249.8)" />
<use xlink:href="#f0_g" transform="matrix(12,0,0,12,749.7,249.8)" />
<use xlink:href="#f0_b" transform="matrix(12,0,0,12,761.6,249.8)" />
<use xlink:href="#f2_2" transform="matrix(11,0,0,11,612.9,249.8)" />
<use xlink:href="#f0_b" transform="matrix(12,0,0,12,494.8,249.8)" />
<use xlink:href="#f0_e" transform="matrix(12,0,0,12,505.2,249.8)" />
<use xlink:href="#f0_6" transform="matrix(12,0,0,12,516.7,249.8)" />
<use xlink:href="#f0_m" transform="matrix(12,0,0,12,521.7,249.8)" />
<use xlink:href="#f0_f" transform="matrix(12,0,0,12,533.1,249.8)" />
<use xlink:href="#f0_g" transform="matrix(12,0,0,12,552.2,249.8)" />
<use xlink:href="#f0_i" transform="matrix(12,0,0,12,564.1,249.8)" />
<use xlink:href="#f0_i" transform="matrix(12,0,0,12,568.2,249.8)" />
<use xlink:href="#f0_9" transform="matrix(12,0,0,12,572.3,249.8)" />
<use xlink:href="#f0_c" transform="matrix(12,0,0,12,579.7,249.8)" />
<use xlink:href="#f0_g" transform="matrix(12,0,0,12,592.6,249.8)" />
<use xlink:href="#f2_4" transform="matrix(11,0,0,11,435.9,249.8)" />
<use xlink:href="#f2_8" transform="matrix(11,0,0,11,444.1,249.8)" />
<use xlink:href="#f2_2" transform="matrix(11,0,0,11,449.8,249.8)" />
<use xlink:href="#f2_x" transform="matrix(11,0,0,11,457.2,249.8)" />
<use xlink:href="#f3_j" transform="matrix(11,0,0,11,462.9,249.8)" />
<use xlink:href="#f2_8" transform="matrix(11,0,0,11,470.4,249.8)" />
<use xlink:href="#f2_3" transform="matrix(11,0,0,11,475.9,249.8)" />
<use xlink:href="#f2_8" transform="matrix(11,0,0,11,480.6,249.8)" />
<use xlink:href="#f0_h" transform="matrix(12,0,0,12,197.4,249.8)" />
<use xlink:href="#f0_6" transform="matrix(12,0,0,12,209.4,249.8)" />
<use xlink:href="#f0_i" transform="matrix(12,0,0,12,214.3,249.8)" />
<use xlink:href="#f0_h" transform="matrix(12,0,0,12,218.4,249.8)" />
<use xlink:href="#f0_6" transform="matrix(12,0,0,12,230.5,249.8)" />
<use xlink:href="#f0_s" transform="matrix(12,0,0,12,235.5,249.8)" />
<use xlink:href="#f0_g" transform="matrix(12,0,0,12,247.7,249.8)" />
<use xlink:href="#f0_h" transform="matrix(12,0,0,12,268.1,249.8)" />
<use xlink:href="#f0_s" transform="matrix(12,0,0,12,280.2,249.8)" />
<use xlink:href="#f0_3" transform="matrix(12,0,0,12,300.8,249.8)" />
<use xlink:href="#f0_6" transform="matrix(12,0,0,12,305.8,249.8)" />
<use xlink:href="#f0_h" transform="matrix(12,0,0,12,310.7,249.8)" />
<use xlink:href="#f0_k" transform="matrix(12,0,0,12,322.7,249.8)" />
<use xlink:href="#f0_h" transform="matrix(12,0,0,12,334.7,249.8)" />
<use xlink:href="#f0_6" transform="matrix(12,0,0,12,355.3,249.8)" />
<use xlink:href="#f0_j" transform="matrix(12,0,0,12,360.3,249.8)" />
<use xlink:href="#f0_f" transform="matrix(12,0,0,12,373.3,249.8)" />
<use xlink:href="#f0_3" transform="matrix(12,0,0,12,392.2,249.8)" />
<use xlink:href="#f0_7" transform="matrix(12,0,0,12,397.1,249.8)" />
<use xlink:href="#f0_o" transform="matrix(12,0,0,12,409.6,249.8)" />
<use xlink:href="#f0_8" transform="matrix(12,0,0,12,429.8,249.8)" />
<use xlink:href="#f2_3" transform="matrix(11,0,0,11,176.6,249.8)" />
<use xlink:href="#f2_2" transform="matrix(11,0,0,11,181.2,249.8)" />
<use xlink:href="#f0_b" transform="matrix(12,0,0,12,137.8,249.8)" />
<use xlink:href="#f0_4" transform="matrix(12,0,0,12,148.2,249.8)" />
<use xlink:href="#f0_f" transform="matrix(12,0,0,12,157.8,249.8)" />
<use xlink:href="#f0_8" transform="matrix(12,0,0,12,728.1,271.2)" />
<use xlink:href="#f0_b" transform="matrix(12,0,0,12,734,271.2)" />
<use xlink:href="#f0_e" transform="matrix(12,0,0,12,744.3,271.2)" />
<use xlink:href="#f0_6" transform="matrix(12,0,0,12,755.8,271.2)" />
<use xlink:href="#f0_m" transform="matrix(12,0,0,12,760.7,271.2)" />
</g>
</g>
<path d="M236.9,295.2H837M236.9,315.3H837M128.6,337.4H837M128.6,357.6H837m-708.4,20H837M128.6,397.8H837m-708.4,20H837M128.6,437.9H837M128.9,337V438.3M237.3,294.9v20m0,22.1V438.3m0,-123.4v22.9M464.6,294.9v20.7m0,21.4V438.3m.2,-123.4v22.9M659.5,294.9V438.3M836.6,294.9V438.3" class="g1_2" />
<g clip-path="url(#c0_2)">
<g fill="#000000" >
<use xlink:href="#f2_a" transform="matrix(11,0,0,11,739.8,311.2)" />
<use xlink:href="#f2_b" transform="matrix(11,0,0,11,745.4,311.2)" />
<use xlink:href="#f2_c" transform="matrix(11,0,0,11,551.5,311.2)" />
<use xlink:href="#f2_b" transform="matrix(11,0,0,11,561.8,311.2)" />
<use xlink:href="#f2_d" transform="matrix(11,0,0,11,339.3,311.2)" />
<use xlink:href="#f2_b" transform="matrix(11,0,0,11,351.4,311.2)" />
<use xlink:href="#f0_12" transform="matrix(12,0,0,12,768.8,332.8)" />
<use xlink:href="#f0_i" transform="matrix(12,0,0,12,780.5,332.8)" />
<use xlink:href="#f0_a" transform="matrix(12,0,0,12,784.6,332.8)" />
<use xlink:href="#f0_e" transform="matrix(12,0,0,12,794.7,332.8)" />
<use xlink:href="#f0_g" transform="matrix(12,0,0,12,806.2,332.8)" />
<use xlink:href="#f0_b" transform="matrix(12,0,0,12,818.1,332.8)" />
<use xlink:href="#f2_4" transform="matrix(11,0,0,11,668.4,331.4)" />
<use xlink:href="#f2_8" transform="matrix(11,0,0,11,676.7,331.4)" />
<use xlink:href="#f2_2" transform="matrix(11,0,0,11,682.3,331.4)" />
<use xlink:href="#f2_x" transform="matrix(11,0,0,11,689.7,331.4)" />
<use xlink:href="#f2_2" transform="matrix(11,0,0,11,695.4,331.4)" />
<use xlink:href="#f2_8" transform="matrix(11,0,0,11,702.7,331.4)" />
<use xlink:href="#f2_3" transform="matrix(11,0,0,11,708.3,331.4)" />
<use xlink:href="#f2_8" transform="matrix(11,0,0,11,713.1,331.4)" />
<use xlink:href="#f0_a" transform="matrix(12,0,0,12,608.2,332.8)" />
<use xlink:href="#f0_f" transform="matrix(12,0,0,12,618.3,332.8)" />
<use xlink:href="#f0_s" transform="matrix(12,0,0,12,628.8,332.8)" />
<use xlink:href="#f0_b" transform="matrix(12,0,0,12,641,332.8)" />
<use xlink:href="#f2_4" transform="matrix(11,0,0,11,473.5,331.4)" />
<use xlink:href="#f2_2" transform="matrix(11,0,0,11,481.9,331.4)" />
<use xlink:href="#f2_8" transform="matrix(11,0,0,11,489.3,331.4)" />
<use xlink:href="#f2_p" transform="matrix(11,0,0,11,495,331.4)" />
<use xlink:href="#f2_2" transform="matrix(11,0,0,11,503.4,331.4)" />
<use xlink:href="#f2_8" transform="matrix(11,0,0,11,510.7,331.4)" />
<use xlink:href="#f0_q" transform="matrix(12,0,0,12,411.3,332.8)" />
<use xlink:href="#f0_6" transform="matrix(12,0,0,12,421.7,332.8)" />
<use xlink:href="#f0_n" transform="matrix(12,0,0,12,426.7,332.8)" />
<use xlink:href="#f0_o" transform="matrix(12,0,0,12,434.2,332.8)" />
<use xlink:href="#f0_b" transform="matrix(12,0,0,12,446.1,332.8)" />
<use xlink:href="#f2_y" transform="matrix(11,0,0,11,246.1,331.4)" />
<use xlink:href="#f2_2" transform="matrix(11,0,0,11,253.5,331.4)" />
<use xlink:href="#f2_8" transform="matrix(11,0,0,11,260.9,331.4)" />
<use xlink:href="#f2_8" transform="matrix(11,0,0,11,266.5,331.4)" />
<use xlink:href="#f2_7" transform="matrix(11,0,0,11,272.2,331.4)" />
<use xlink:href="#f2_8" transform="matrix(11,0,0,11,279.5,331.4)" />
<use xlink:href="#f2_i" transform="matrix(11,0,0,11,137.7,353.5)" />
<use xlink:href="#f2_9" transform="matrix(11,0,0,11,146.1,353.5)" />
<use xlink:href="#f2_y" transform="matrix(11,0,0,11,246,373.5)" />
<use xlink:href="#f2_3" transform="matrix(11,0,0,11,253.5,373.5)" />
<use xlink:href="#f2_2" transform="matrix(11,0,0,11,258.2,373.5)" />
</g>
</g>
<path d="M253.5,375.1h12.2" class="g3_2" />
<g clip-path="url(#c0_2)">
<g fill="#000000" >
<use xlink:href="#f2_8" transform="matrix(11,0,0,11,265.7,373.5)" />
<use xlink:href="#f2_8" transform="matrix(11,0,0,11,271.2,373.5)" />
<use xlink:href="#f2_7" transform="matrix(11,0,0,11,276.8,373.5)" />
<use xlink:href="#f2_6" transform="matrix(11,0,0,11,284.3,373.5)" />
<use xlink:href="#f2_e" transform="matrix(11,0,0,11,137.7,373.5)" />
<use xlink:href="#f2_j" transform="matrix(11,0,0,11,142.4,373.5)" />
<use xlink:href="#f2_4" transform="matrix(11,0,0,11,668.4,393.7)" />
<use xlink:href="#f2_8" transform="matrix(11,0,0,11,676.7,393.7)" />
<use xlink:href="#f2_2" transform="matrix(11,0,0,11,682.3,393.7)" />
<use xlink:href="#f2_x" transform="matrix(11,0,0,11,689.7,393.7)" />
<use xlink:href="#f2_3" transform="matrix(11,0,0,11,695.4,393.7)" />
<use xlink:href="#f2_2" transform="matrix(11,0,0,11,700,393.7)" />
</g>
</g>
<path d="M695.4,395.2h12.1" class="g3_2" />
<g clip-path="url(#c0_2)">
<g fill="#000000" >
<use xlink:href="#f2_8" transform="matrix(11,0,0,11,707.5,393.7)" />
<use xlink:href="#f2_2" transform="matrix(11,0,0,11,713.1,393.7)" />
<use xlink:href="#f2_l" transform="matrix(11,0,0,11,137.7,393.7)" />
<use xlink:href="#f2_m" transform="matrix(11,0,0,11,145.1,393.7)" />
<use xlink:href="#f2_n" transform="matrix(11,0,0,11,149.7,393.7)" />
<use xlink:href="#f2_2" transform="matrix(11,0,0,11,154.4,393.7)" />
<use xlink:href="#f2_m" transform="matrix(11,0,0,11,161.9,393.7)" />
<use xlink:href="#f2_m" transform="matrix(11,0,0,11,166.5,393.7)" />
<use xlink:href="#f2_7" transform="matrix(11,0,0,11,171.2,393.7)" />
<use xlink:href="#f2_n" transform="matrix(11,0,0,11,178.7,393.7)" />
<use xlink:href="#f2_o" transform="matrix(11,0,0,11,183.4,393.7)" />
<use xlink:href="#f2_p" transform="matrix(11,0,0,11,195.4,393.7)" />
<use xlink:href="#f2_q" transform="matrix(11,0,0,11,203.8,393.7)" />
<use xlink:href="#f2_5" transform="matrix(11,0,0,11,137.7,413.7)" />
<use xlink:href="#f2_9" transform="matrix(11,0,0,11,146.1,413.7)" />
<use xlink:href="#f2_6" transform="matrix(11,0,0,11,154.5,413.7)" />
<use xlink:href="#f2_9" transform="matrix(11,0,0,11,161,413.7)" />
<use xlink:href="#f2_e" transform="matrix(11,0,0,11,169.4,413.7)" />
<use xlink:href="#f2_8" transform="matrix(11,0,0,11,174,413.7)" />
<use xlink:href="#f2_9" transform="matrix(11,0,0,11,179.6,413.7)" />
<use xlink:href="#f2_6" transform="matrix(11,0,0,11,188,413.7)" />
<use xlink:href="#f2_n" transform="matrix(11,0,0,11,194.6,413.7)" />
<use xlink:href="#f2_7" transform="matrix(11,0,0,11,199.3,413.7)" />
<use xlink:href="#f2_6" transform="matrix(11,0,0,11,206.6,413.7)" />
<use xlink:href="#f2_4" transform="matrix(11,0,0,11,473.5,433.9)" />
<use xlink:href="#f2_3" transform="matrix(11,0,0,11,481.9,433.9)" />
<use xlink:href="#f2_2" transform="matrix(11,0,0,11,486.4,433.9)" />
</g>
</g>
<path d="M481.9,435.4h12" class="g3_2" />
<g clip-path="url(#c0_2)">
<g fill="#000000" >
<use xlink:href="#f2_8" transform="matrix(11,0,0,11,493.9,433.9)" />
<use xlink:href="#f2_p" transform="matrix(11,0,0,11,499.6,433.9)" />
<use xlink:href="#f2_2" transform="matrix(11,0,0,11,508,433.9)" />
<use xlink:href="#f2_5" transform="matrix(11,0,0,11,515.4,433.9)" />
<use xlink:href="#f2_2" transform="matrix(11,0,0,11,137.7,433.9)" />
<use xlink:href="#f2_m" transform="matrix(11,0,0,11,145.1,433.9)" />
<use xlink:href="#f2_m" transform="matrix(11,0,0,11,149.7,433.9)" />
<use xlink:href="#f2_9" transform="matrix(11,0,0,11,154.4,433.9)" />
<use xlink:href="#f2_6" transform="matrix(11,0,0,11,162.8,433.9)" />
<use xlink:href="#f2_n" transform="matrix(11,0,0,11,169.4,433.9)" />
<use xlink:href="#f2_7" transform="matrix(11,0,0,11,174.1,433.9)" />
<use xlink:href="#f2_6" transform="matrix(11,0,0,11,181.4,433.9)" />
<use xlink:href="#f2_n" transform="matrix(11,0,0,11,188,433.9)" />
<use xlink:href="#f2_o" transform="matrix(11,0,0,11,192.7,433.9)" />
<use xlink:href="#f2_p" transform="matrix(11,0,0,11,204.8,433.9)" />
<use xlink:href="#f2_6" transform="matrix(11,0,0,11,213.2,433.9)" />
<use xlink:href="#f2_q" transform="matrix(11,0,0,11,219.7,433.9)" />
</g>
<g fill="#0000FF" >
<use xlink:href="#f0_b" transform="matrix(12,0,0,12,649.3,473.6)" />
<use xlink:href="#f0_i" transform="matrix(12,0,0,12,660,473.6)" />
<use xlink:href="#f0_n" transform="matrix(12,0,0,12,664.5,473.6)" />
<use xlink:href="#f0_q" transform="matrix(12,0,0,12,672.3,473.6)" />
<use xlink:href="#f0_h" transform="matrix(12,0,0,12,683.1,473.6)" />
<use xlink:href="#f0_b" transform="matrix(12,0,0,12,695.5,473.6)" />
<use xlink:href="#f0_h" transform="matrix(12,0,0,12,712.4,473.6)" />
<use xlink:href="#f0_6" transform="matrix(12,0,0,12,724.9,473.6)" />
<use xlink:href="#f0_f" transform="matrix(12,0,0,12,730.3,473.6)" />
<use xlink:href="#f0_6" transform="matrix(12,0,0,12,741.2,473.6)" />
<use xlink:href="#f0_c" transform="matrix(12,0,0,12,746.6,473.6)" />
<use xlink:href="#f0_h" transform="matrix(12,0,0,12,759.8,473.6)" />
</g>
</g>
<path d="M642.9,475.4H772.1" class="g2_2" />
<g clip-path="url(#c2_2)">
<path d="M642.4,475.4h5.8" class="g2_2" />
</g>
<g clip-path="url(#c0_2)">
<g fill="#0000FF" >
<use xlink:href="#f0_15" transform="matrix(12,0,0,12,630.7,473.6)" />
</g>
</g>
<path d="M630.7,475.4h11.6" class="g2_2" />
<g clip-path="url(#c0_2)">
<g fill="#000000" >
<use xlink:href="#f1_a" transform="matrix(12,0,0,12,723.8,514.4)" />
<use xlink:href="#f1_8" transform="matrix(12,0,0,12,735,514.4)" />
<use xlink:href="#f1_k" transform="matrix(12,0,0,12,740.3,514.4)" />
<use xlink:href="#f1_4" transform="matrix(12,0,0,12,748.6,514.4)" />
<use xlink:href="#f1_h" transform="matrix(12,0,0,12,759.6,514.4)" />
<use xlink:href="#f1_o" transform="matrix(12,0,0,12,702.9,514.4)" />
<use xlink:href="#f0_h" transform="matrix(12,0,0,12,137.8,514.4)" />
<use xlink:href="#f0_s" transform="matrix(12,0,0,12,149.9,514.4)" />
<use xlink:href="#f0_12" transform="matrix(12,0,0,12,169.5,514.4)" />
<use xlink:href="#f0_i" transform="matrix(12,0,0,12,181.3,514.4)" />
<use xlink:href="#f0_b" transform="matrix(12,0,0,12,185.4,514.4)" />
<use xlink:href="#f0_k" transform="matrix(12,0,0,12,195.8,514.4)" />
<use xlink:href="#f0_g" transform="matrix(12,0,0,12,207.7,514.4)" />
<use xlink:href="#f0_b" transform="matrix(12,0,0,12,219.6,514.4)" />
<use xlink:href="#f0_c" transform="matrix(12,0,0,12,237.4,514.4)" />
<use xlink:href="#f0_i" transform="matrix(12,0,0,12,250.4,514.4)" />
<use xlink:href="#f0_8" transform="matrix(12,0,0,12,269.3,514.4)" />
<use xlink:href="#f0_l" transform="matrix(12,0,0,12,275.1,514.4)" />
<use xlink:href="#f0_i" transform="matrix(12,0,0,12,287.3,514.4)" />
<use xlink:href="#f0_m" transform="matrix(12,0,0,12,291.4,514.4)" />
<use xlink:href="#f0_o" transform="matrix(12,0,0,12,302.9,514.4)" />
<use xlink:href="#f0_6" transform="matrix(12,0,0,12,314.6,514.4)" />
<use xlink:href="#f0_9" transform="matrix(12,0,0,12,319.7,514.4)" />
<use xlink:href="#f0_l" transform="matrix(12,0,0,12,334.4,514.4)" />
<use xlink:href="#f0_i" transform="matrix(12,0,0,12,346.7,514.4)" />
<use xlink:href="#f0_n" transform="matrix(12,0,0,12,350.8,514.4)" />
<use xlink:href="#f0_i" transform="matrix(12,0,0,12,358.2,514.4)" />
<use xlink:href="#f0_q" transform="matrix(12,0,0,12,362.4,514.4)" />
<use xlink:href="#f0_k" transform="matrix(12,0,0,12,372.7,514.4)" />
<use xlink:href="#f0_g" transform="matrix(12,0,0,12,392.1,514.4)" />
<use xlink:href="#f0_c" transform="matrix(12,0,0,12,404,514.4)" />
<use xlink:href="#f0_6" transform="matrix(12,0,0,12,417,514.4)" />
<use xlink:href="#f0_b" transform="matrix(12,0,0,12,422,514.4)" />
<use xlink:href="#f0_c" transform="matrix(12,0,0,12,432.4,514.4)" />
<use xlink:href="#f0_l" transform="matrix(12,0,0,12,452.9,514.4)" />
<use xlink:href="#f0_i" transform="matrix(12,0,0,12,465.1,514.4)" />
<use xlink:href="#f0_b" transform="matrix(12,0,0,12,469.2,514.4)" />
<use xlink:href="#f0_c" transform="matrix(12,0,0,12,479.6,514.4)" />
<use xlink:href="#f0_g" transform="matrix(12,0,0,12,492.6,514.4)" />
<use xlink:href="#f0_b" transform="matrix(12,0,0,12,504.5,514.4)" />
<use xlink:href="#f0_t" transform="matrix(12,0,0,12,522.3,514.4)" />
<use xlink:href="#f0_i" transform="matrix(12,0,0,12,532.1,514.4)" />
<use xlink:href="#f0_b" transform="matrix(12,0,0,12,536.2,514.4)" />
<use xlink:href="#f0_e" transform="matrix(12,0,0,12,546.6,514.4)" />
<use xlink:href="#f0_2" transform="matrix(12,0,0,12,565.7,514.4)" />
<use xlink:href="#f0_g" transform="matrix(12,0,0,12,571.5,514.4)" />
<use xlink:href="#f0_s" transform="matrix(12,0,0,12,583.4,514.4)" />
<use xlink:href="#f0_f" transform="matrix(12,0,0,12,595.6,514.4)" />
<use xlink:href="#f0_g" transform="matrix(12,0,0,12,606.1,514.4)" />
<use xlink:href="#f0_g" transform="matrix(12,0,0,12,625.7,514.4)" />
<use xlink:href="#f0_b" transform="matrix(12,0,0,12,637.6,514.4)" />
<use xlink:href="#f0_f" transform="matrix(12,0,0,12,648,514.4)" />
<use xlink:href="#f0_d" transform="matrix(12,0,0,12,658.5,514.4)" />
<use xlink:href="#f0_f" transform="matrix(12,0,0,12,670.4,514.4)" />
<use xlink:href="#f0_17" transform="matrix(12,0,0,12,688.4,514.4)" />
<use xlink:href="#f0_h" transform="matrix(12,0,0,12,730.9,535.8)" />
<use xlink:href="#f0_6" transform="matrix(12,0,0,12,742.9,535.8)" />
<use xlink:href="#f0_s" transform="matrix(12,0,0,12,747.9,535.8)" />
<use xlink:href="#f0_g" transform="matrix(12,0,0,12,760.2,535.8)" />
<use xlink:href="#f2_2" transform="matrix(11,0,0,11,712.6,535.8)" />
<use xlink:href="#f0_b" transform="matrix(12,0,0,12,590,535.8)" />
<use xlink:href="#f0_e" transform="matrix(12,0,0,12,600.4,535.8)" />
<use xlink:href="#f0_6" transform="matrix(12,0,0,12,611.9,535.8)" />
<use xlink:href="#f0_m" transform="matrix(12,0,0,12,616.9,535.8)" />
<use xlink:href="#f0_f" transform="matrix(12,0,0,12,628.3,535.8)" />
<use xlink:href="#f0_g" transform="matrix(12,0,0,12,649.7,535.8)" />
<use xlink:href="#f0_i" transform="matrix(12,0,0,12,661.6,535.8)" />
<use xlink:href="#f0_i" transform="matrix(12,0,0,12,665.7,535.8)" />
<use xlink:href="#f0_9" transform="matrix(12,0,0,12,669.8,535.8)" />
<use xlink:href="#f0_c" transform="matrix(12,0,0,12,677.1,535.8)" />
<use xlink:href="#f0_g" transform="matrix(12,0,0,12,690.1,535.8)" />
<use xlink:href="#f2_2" transform="matrix(11,0,0,11,521.3,535.8)" />
<use xlink:href="#f2_5" transform="matrix(11,0,0,11,528.7,535.8)" />
<use xlink:href="#f2_e" transform="matrix(11,0,0,11,537,535.8)" />
<use xlink:href="#f2_2" transform="matrix(11,0,0,11,541.7,535.8)" />
<use xlink:href="#f2_5" transform="matrix(11,0,0,11,549.2,535.8)" />
<use xlink:href="#f2_p" transform="matrix(11,0,0,11,557.6,535.8)" />
<use xlink:href="#f3_j" transform="matrix(11,0,0,11,566,535.8)" />
<use xlink:href="#f2_8" transform="matrix(11,0,0,11,573.5,535.8)" />
<use xlink:href="#f0_i" transform="matrix(12,0,0,12,138,535.8)" />
<use xlink:href="#f0_9" transform="matrix(12,0,0,12,142.1,535.8)" />
<use xlink:href="#f0_s" transform="matrix(12,0,0,12,149.4,535.8)" />
<use xlink:href="#f0_18" transform="matrix(12,0,0,12,161.6,535.8)" />
<use xlink:href="#f0_b" transform="matrix(12,0,0,12,180.7,535.8)" />
<use xlink:href="#f0_g" transform="matrix(12,0,0,12,201.7,535.8)" />
<use xlink:href="#f0_c" transform="matrix(12,0,0,12,213.7,535.8)" />
<use xlink:href="#f0_e" transform="matrix(12,0,0,12,226.6,535.8)" />
<use xlink:href="#f0_7" transform="matrix(12,0,0,12,238.1,535.8)" />
<use xlink:href="#f0_b" transform="matrix(12,0,0,12,250.6,535.8)" />
<use xlink:href="#f0_g" transform="matrix(12,0,0,12,271.6,535.8)" />
<use xlink:href="#f0_g" transform="matrix(12,0,0,12,283.6,535.8)" />
<use xlink:href="#f0_p" transform="matrix(12,0,0,12,295.5,535.8)" />
<use xlink:href="#f0_18" transform="matrix(12,0,0,12,312.5,535.8)" />
<use xlink:href="#f0_f" transform="matrix(12,0,0,12,320.9,535.8)" />
<use xlink:href="#f0_i" transform="matrix(12,0,0,12,331.5,535.8)" />
<use xlink:href="#f0_c" transform="matrix(12,0,0,12,335.6,535.8)" />
<use xlink:href="#f0_6" transform="matrix(12,0,0,12,348.6,535.8)" />
<use xlink:href="#f0_7" transform="matrix(12,0,0,12,353.5,535.8)" />
<use xlink:href="#f0_i" transform="matrix(12,0,0,12,376.7,535.8)" />
<use xlink:href="#f0_9" transform="matrix(12,0,0,12,380.8,535.8)" />
<use xlink:href="#f0_s" transform="matrix(12,0,0,12,388.1,535.8)" />
<use xlink:href="#f0_18" transform="matrix(12,0,0,12,400.3,535.8)" />
<use xlink:href="#f0_i" transform="matrix(12,0,0,12,419.4,535.8)" />
<use xlink:href="#f0_4" transform="matrix(12,0,0,12,423.5,535.8)" />
<use xlink:href="#f0_f" transform="matrix(12,0,0,12,443.8,535.8)" />
<use xlink:href="#f0_b" transform="matrix(12,0,0,12,454.3,535.8)" />
<use xlink:href="#f0_l" transform="matrix(12,0,0,12,475.4,535.8)" />
<use xlink:href="#f0_i" transform="matrix(12,0,0,12,487.6,535.8)" />
<use xlink:href="#f0_c" transform="matrix(12,0,0,12,491.6,535.8)" />
<use xlink:href="#f0_8" transform="matrix(12,0,0,12,515.2,535.8)" />
<use xlink:href="#f0_8" transform="matrix(12,0,0,12,710.6,557.2)" />
<use xlink:href="#f0_18" transform="matrix(12,0,0,12,716.4,557.2)" />
<use xlink:href="#f0_c" transform="matrix(12,0,0,12,724.8,557.2)" />
<use xlink:href="#f0_i" transform="matrix(12,0,0,12,737.8,557.2)" />
<use xlink:href="#f0_n" transform="matrix(12,0,0,12,741.9,557.2)" />
<use xlink:href="#f0_q" transform="matrix(12,0,0,12,749.3,557.2)" />
<use xlink:href="#f0_7" transform="matrix(12,0,0,12,759.6,557.2)" />
</g>
</g>
<path d="M236.9,581.2H837M236.9,601.3H837M128.6,623.4H837M128.6,643.6H837m-708.4,20H837M128.6,683.8H837m-708.4,20H837M128.6,723.9H837M128.9,623V724.3M237.3,580.9v20m0,22.1V724.3m0,-123.4v22.9M464.6,580.9v20.7m0,21.4V724.3m.2,-123.4v22.9M659.5,580.9V724.3M836.6,580.9V724.3" class="g1_2" />
<g clip-path="url(#c0_2)">
<g fill="#000000" >
<use xlink:href="#f2_a" transform="matrix(11,0,0,11,739.8,597.2)" />
<use xlink:href="#f2_b" transform="matrix(11,0,0,11,745.4,597.2)" />
<use xlink:href="#f2_c" transform="matrix(11,0,0,11,551.5,597.2)" />
<use xlink:href="#f2_b" transform="matrix(11,0,0,11,561.8,597.2)" />
<use xlink:href="#f2_d" transform="matrix(11,0,0,11,339.3,597.2)" />
<use xlink:href="#f2_b" transform="matrix(11,0,0,11,351.4,597.2)" />
<use xlink:href="#f0_e" transform="matrix(12,0,0,12,779.8,618.8)" />
<use xlink:href="#f0_i" transform="matrix(12,0,0,12,791.2,618.8)" />
<use xlink:href="#f0_r" transform="matrix(12,0,0,12,795.3,618.8)" />
<use xlink:href="#f0_g" transform="matrix(12,0,0,12,806.2,618.8)" />
<use xlink:href="#f0_b" transform="matrix(12,0,0,12,818.1,618.8)" />
<use xlink:href="#f2_6" transform="matrix(11,0,0,11,668.4,617.4)" />
<use xlink:href="#f2_g" transform="matrix(11,0,0,11,675,617.4)" />
<use xlink:href="#f2_z" transform="matrix(11,0,0,11,683.4,617.4)" />
<use xlink:href="#f2_2" transform="matrix(11,0,0,11,691.6,617.4)" />
<use xlink:href="#f2_8" transform="matrix(11,0,0,11,699.1,617.4)" />
<use xlink:href="#f2_3" transform="matrix(11,0,0,11,704.7,617.4)" />
<use xlink:href="#f2_8" transform="matrix(11,0,0,11,709.3,617.4)" />
<use xlink:href="#f0_3" transform="matrix(12,0,0,12,609.4,618.8)" />
<use xlink:href="#f0_i" transform="matrix(12,0,0,12,614.5,618.8)" />
<use xlink:href="#f0_f" transform="matrix(12,0,0,12,618.6,618.8)" />
<use xlink:href="#f0_g" transform="matrix(12,0,0,12,629.1,618.8)" />
<use xlink:href="#f0_b" transform="matrix(12,0,0,12,641,618.8)" />
<use xlink:href="#f2_2" transform="matrix(11,0,0,11,473.5,617.4)" />
<use xlink:href="#f2_5" transform="matrix(11,0,0,11,480.9,617.4)" />
<use xlink:href="#f2_e" transform="matrix(11,0,0,11,489.3,617.4)" />
<use xlink:href="#f2_2" transform="matrix(11,0,0,11,494,617.4)" />
<use xlink:href="#f2_5" transform="matrix(11,0,0,11,501.5,617.4)" />
<use xlink:href="#f2_p" transform="matrix(11,0,0,11,509.9,617.4)" />
<use xlink:href="#f2_2" transform="matrix(11,0,0,11,518.2,617.4)" />
<use xlink:href="#f2_8" transform="matrix(11,0,0,11,525.6,617.4)" />
<use xlink:href="#f0_f" transform="matrix(12,0,0,12,401.5,618.8)" />
<use xlink:href="#f0_i" transform="matrix(12,0,0,12,412,618.8)" />
<use xlink:href="#f0_c" transform="matrix(12,0,0,12,416.1,618.8)" />
<use xlink:href="#f0_6" transform="matrix(12,0,0,12,429.1,618.8)" />
<use xlink:href="#f0_g" transform="matrix(12,0,0,12,434.2,618.8)" />
<use xlink:href="#f0_b" transform="matrix(12,0,0,12,446.1,618.8)" />
<use xlink:href="#f2_6" transform="matrix(11,0,0,11,246.1,617.4)" />
<use xlink:href="#f2_2" transform="matrix(11,0,0,11,252.5,617.4)" />
<use xlink:href="#f2_5" transform="matrix(11,0,0,11,260,617.4)" />
<use xlink:href="#f2_e" transform="matrix(11,0,0,11,268.4,617.4)" />
<use xlink:href="#f2_7" transform="matrix(11,0,0,11,273.1,617.4)" />
<use xlink:href="#f2_8" transform="matrix(11,0,0,11,280.6,617.4)" />
<use xlink:href="#f2_i" transform="matrix(11,0,0,11,137.7,639.5)" />
<use xlink:href="#f2_9" transform="matrix(11,0,0,11,146.1,639.5)" />
<use xlink:href="#f2_e" transform="matrix(11,0,0,11,137.7,659.5)" />
<use xlink:href="#f2_j" transform="matrix(11,0,0,11,142.4,659.5)" />
<use xlink:href="#f2_l" transform="matrix(11,0,0,11,137.7,679.7)" />
<use xlink:href="#f2_m" transform="matrix(11,0,0,11,145.1,679.7)" />
<use xlink:href="#f2_n" transform="matrix(11,0,0,11,149.7,679.7)" />
<use xlink:href="#f2_2" transform="matrix(11,0,0,11,154.4,679.7)" />
<use xlink:href="#f2_m" transform="matrix(11,0,0,11,161.9,679.7)" />
<use xlink:href="#f2_m" transform="matrix(11,0,0,11,166.5,679.7)" />
<use xlink:href="#f2_7" transform="matrix(11,0,0,11,171.2,679.7)" />
<use xlink:href="#f2_n" transform="matrix(11,0,0,11,178.7,679.7)" />
<use xlink:href="#f2_o" transform="matrix(11,0,0,11,183.4,679.7)" />
<use xlink:href="#f2_p" transform="matrix(11,0,0,11,195.4,679.7)" />
<use xlink:href="#f2_q" transform="matrix(11,0,0,11,203.8,679.7)" />
<use xlink:href="#f2_5" transform="matrix(11,0,0,11,137.7,699.7)" />
<use xlink:href="#f2_9" transform="matrix(11,0,0,11,146.1,699.7)" />
<use xlink:href="#f2_6" transform="matrix(11,0,0,11,154.5,699.7)" />
<use xlink:href="#f2_9" transform="matrix(11,0,0,11,161,699.7)" />
<use xlink:href="#f2_e" transform="matrix(11,0,0,11,169.4,699.7)" />
<use xlink:href="#f2_8" transform="matrix(11,0,0,11,174,699.7)" />
<use xlink:href="#f2_9" transform="matrix(11,0,0,11,179.6,699.7)" />
<use xlink:href="#f2_6" transform="matrix(11,0,0,11,188,699.7)" />
<use xlink:href="#f2_n" transform="matrix(11,0,0,11,194.6,699.7)" />
<use xlink:href="#f2_7" transform="matrix(11,0,0,11,199.3,699.7)" />
<use xlink:href="#f2_6" transform="matrix(11,0,0,11,206.6,699.7)" />
<use xlink:href="#f2_2" transform="matrix(11,0,0,11,137.7,719.9)" />
<use xlink:href="#f2_m" transform="matrix(11,0,0,11,145.1,719.9)" />
<use xlink:href="#f2_m" transform="matrix(11,0,0,11,149.7,719.9)" />
<use xlink:href="#f2_9" transform="matrix(11,0,0,11,154.4,719.9)" />
<use xlink:href="#f2_6" transform="matrix(11,0,0,11,162.8,719.9)" />
<use xlink:href="#f2_n" transform="matrix(11,0,0,11,169.4,719.9)" />
<use xlink:href="#f2_7" transform="matrix(11,0,0,11,174.1,719.9)" />
<use xlink:href="#f2_6" transform="matrix(11,0,0,11,181.4,719.9)" />
<use xlink:href="#f2_n" transform="matrix(11,0,0,11,188,719.9)" />
<use xlink:href="#f2_o" transform="matrix(11,0,0,11,192.7,719.9)" />
<use xlink:href="#f2_p" transform="matrix(11,0,0,11,204.8,719.9)" />
<use xlink:href="#f2_6" transform="matrix(11,0,0,11,213.2,719.9)" />
<use xlink:href="#f2_q" transform="matrix(11,0,0,11,219.7,719.9)" />
</g>
<g fill="#0000FF" >
<use xlink:href="#f0_b" transform="matrix(12,0,0,12,649.3,759.6)" />
<use xlink:href="#f0_i" transform="matrix(12,0,0,12,660,759.6)" />
<use xlink:href="#f0_n" transform="matrix(12,0,0,12,664.5,759.6)" />
<use xlink:href="#f0_q" transform="matrix(12,0,0,12,672.3,759.6)" />
<use xlink:href="#f0_h" transform="matrix(12,0,0,12,683.1,759.6)" />
<use xlink:href="#f0_b" transform="matrix(12,0,0,12,695.5,759.6)" />
<use xlink:href="#f0_h" transform="matrix(12,0,0,12,712.4,759.6)" />
<use xlink:href="#f0_6" transform="matrix(12,0,0,12,724.9,759.6)" />
<use xlink:href="#f0_f" transform="matrix(12,0,0,12,730.3,759.6)" />
<use xlink:href="#f0_6" transform="matrix(12,0,0,12,741.2,759.6)" />
<use xlink:href="#f0_c" transform="matrix(12,0,0,12,746.6,759.6)" />
<use xlink:href="#f0_h" transform="matrix(12,0,0,12,759.8,759.6)" />
</g>
</g>
<path d="M642.9,761.4H772.1" class="g2_2" />
<g clip-path="url(#c3_2)">
<path d="M642.4,761.4h5.8" class="g2_2" />
</g>
<g clip-path="url(#c0_2)">
<g fill="#0000FF" >
<use xlink:href="#f0_16" transform="matrix(12,0,0,12,630.7,759.6)" />
</g>
</g>
<path d="M630.7,761.4h11.6" class="g2_2" />
<g clip-path="url(#c0_2)">
<g fill="#000000" >
<use xlink:href="#f0_h" transform="matrix(12,0,0,12,268.9,800.4)" />
<use xlink:href="#f0_6" transform="matrix(12,0,0,12,280.9,800.4)" />
<use xlink:href="#f0_s" transform="matrix(12,0,0,12,285.9,800.4)" />
<use xlink:href="#f0_g" transform="matrix(12,0,0,12,298.2,800.4)" />
<use xlink:href="#f0_h" transform="matrix(12,0,0,12,319.5,800.4)" />
<use xlink:href="#f0_s" transform="matrix(12,0,0,12,331.6,800.4)" />
<use xlink:href="#f0_6" transform="matrix(12,0,0,12,353.2,800.4)" />
<use xlink:href="#f0_9" transform="matrix(12,0,0,12,358.3,800.4)" />
<use xlink:href="#f0_c" transform="matrix(12,0,0,12,365.6,800.4)" />
<use xlink:href="#f0_n" transform="matrix(12,0,0,12,378.6,800.4)" />
<use xlink:href="#f0_a" transform="matrix(12,0,0,12,386.1,800.4)" />
<use xlink:href="#f0_g" transform="matrix(12,0,0,12,396.1,800.4)" />
<use xlink:href="#f0_2" transform="matrix(12,0,0,12,417.6,800.4)" />
<use xlink:href="#f0_t" transform="matrix(12,0,0,12,423.4,800.4)" />
<use xlink:href="#f0_h" transform="matrix(12,0,0,12,433.2,800.4)" />
<use xlink:href="#f0_6" transform="matrix(12,0,0,12,445.3,800.4)" />
<use xlink:href="#f0_i" transform="matrix(12,0,0,12,450.3,800.4)" />
<use xlink:href="#f0_k" transform="matrix(12,0,0,12,454.4,800.4)" />
<use xlink:href="#f0_6" transform="matrix(12,0,0,12,466.3,800.4)" />
<use xlink:href="#f0_9" transform="matrix(12,0,0,12,471.3,800.4)" />
<use xlink:href="#f0_b" transform="matrix(12,0,0,12,478.7,800.4)" />
<use xlink:href="#f0_w" transform="matrix(12,0,0,12,489.1,800.4)" />
<use xlink:href="#f0_g" transform="matrix(12,0,0,12,505.7,800.4)" />
<use xlink:href="#f0_p" transform="matrix(12,0,0,12,517.6,800.4)" />
<use xlink:href="#f0_n" transform="matrix(12,0,0,12,533.5,800.4)" />
<use xlink:href="#f0_i" transform="matrix(12,0,0,12,540.9,800.4)" />
<use xlink:href="#f0_q" transform="matrix(12,0,0,12,545,800.4)" />
<use xlink:href="#f0_k" transform="matrix(12,0,0,12,555.4,800.4)" />
<use xlink:href="#f0_l" transform="matrix(12,0,0,12,576.8,800.4)" />
<use xlink:href="#f0_i" transform="matrix(12,0,0,12,589,800.4)" />
<use xlink:href="#f0_7" transform="matrix(12,0,0,12,593.1,800.4)" />
<use xlink:href="#f0_i" transform="matrix(12,0,0,12,605.5,800.4)" />
<use xlink:href="#f0_i" transform="matrix(12,0,0,12,609.6,800.4)" />
<use xlink:href="#f0_j" transform="matrix(12,0,0,12,613.7,800.4)" />
<use xlink:href="#f0_7" transform="matrix(12,0,0,12,626.7,800.4)" />
<use xlink:href="#f0_g" transform="matrix(12,0,0,12,639.2,800.4)" />
<use xlink:href="#f0_l" transform="matrix(12,0,0,12,660.5,800.4)" />
<use xlink:href="#f0_i" transform="matrix(12,0,0,12,672.7,800.4)" />
<use xlink:href="#f0_m" transform="matrix(12,0,0,12,676.8,800.4)" />
<use xlink:href="#f0_o" transform="matrix(12,0,0,12,688.3,800.4)" />
<use xlink:href="#f0_6" transform="matrix(12,0,0,12,700.2,800.4)" />
<use xlink:href="#f0_9" transform="matrix(12,0,0,12,705.1,800.4)" />
<use xlink:href="#f0_l" transform="matrix(12,0,0,12,722,800.4)" />
<use xlink:href="#f0_i" transform="matrix(12,0,0,12,734.1,800.4)" />
<use xlink:href="#f0_b" transform="matrix(12,0,0,12,738.2,800.4)" />
<use xlink:href="#f0_e" transform="matrix(12,0,0,12,748.6,800.4)" />
<use xlink:href="#f0_m" transform="matrix(12,0,0,12,760,800.4)" />
<use xlink:href="#f2_2" transform="matrix(11,0,0,11,251.3,800.4)" />
<use xlink:href="#f0_i" transform="matrix(12,0,0,12,137.8,800.4)" />
<use xlink:href="#f0_m" transform="matrix(12,0,0,12,141.9,800.4)" />
<use xlink:href="#f0_b" transform="matrix(12,0,0,12,153.4,800.4)" />
<use xlink:href="#f0_g" transform="matrix(12,0,0,12,173.2,800.4)" />
<use xlink:href="#f0_9" transform="matrix(12,0,0,12,185.1,800.4)" />
<use xlink:href="#f0_h" transform="matrix(12,0,0,12,192.4,800.4)" />
<use xlink:href="#f0_c" transform="matrix(12,0,0,12,204.5,800.4)" />
<use xlink:href="#f0_7" transform="matrix(12,0,0,12,217.5,800.4)" />
<use xlink:href="#f0_g" transform="matrix(12,0,0,12,230,800.4)" />
<use xlink:href="#f0_8" transform="matrix(12,0,0,12,713.3,821.8)" />
<use xlink:href="#f0_v" transform="matrix(12,0,0,12,719.1,821.8)" />
<use xlink:href="#f0_n" transform="matrix(12,0,0,12,726.3,821.8)" />
<use xlink:href="#f0_i" transform="matrix(12,0,0,12,733.8,821.8)" />
<use xlink:href="#f0_q" transform="matrix(12,0,0,12,737.9,821.8)" />
<use xlink:href="#f0_k" transform="matrix(12,0,0,12,748.3,821.8)" />
<use xlink:href="#f0_g" transform="matrix(12,0,0,12,760.2,821.8)" />
</g>
</g>
<path d="M128.6,845.9H780.5m-651.9,20H780.5M128.6,888H780.5M128.6,931.6H780.5M128.6,953.7H780.5M128.6,975.9H780.5M128.9,845.5V976.3M386.5,845.5V976.3M592.3,845.5V976.3M780.1,845.5V976.3" class="g1_2" />
<g clip-path="url(#c0_2)">
<g fill="#000000" >
<use xlink:href="#f2_a" transform="matrix(11,0,0,11,677.9,861.8)" />
<use xlink:href="#f2_b" transform="matrix(11,0,0,11,683.5,861.8)" />
<use xlink:href="#f2_c" transform="matrix(11,0,0,11,478.8,861.8)" />
<use xlink:href="#f2_b" transform="matrix(11,0,0,11,489,861.8)" />
<use xlink:href="#f2_d" transform="matrix(11,0,0,11,246.1,861.8)" />
<use xlink:href="#f2_b" transform="matrix(11,0,0,11,258.2,861.8)" />
<use xlink:href="#f0_q" transform="matrix(12,0,0,12,725.2,883.4)" />
<use xlink:href="#f0_j" transform="matrix(12,0,0,12,735.6,883.4)" />
<use xlink:href="#f0_c" transform="matrix(12,0,0,12,748.6,883.4)" />
<use xlink:href="#f0_b" transform="matrix(12,0,0,12,761.6,883.4)" />
<use xlink:href="#f2_r" transform="matrix(11,0,0,11,601,882)" />
<use xlink:href="#f3_j" transform="matrix(11,0,0,11,614.2,882)" />
<use xlink:href="#f2_5" transform="matrix(11,0,0,11,621.7,882)" />
<use xlink:href="#f2_e" transform="matrix(11,0,0,11,629.9,882)" />
<use xlink:href="#f2_3" transform="matrix(11,0,0,11,634.6,882)" />
<use xlink:href="#f2_8" transform="matrix(11,0,0,11,639.3,882)" />
<use xlink:href="#f0_3" transform="matrix(12,0,0,12,549.2,883.4)" />
<use xlink:href="#f0_n" transform="matrix(12,0,0,12,554.3,883.4)" />
<use xlink:href="#f0_g" transform="matrix(12,0,0,12,561.7,883.4)" />
<use xlink:href="#f0_b" transform="matrix(12,0,0,12,573.7,883.4)" />
<use xlink:href="#f2_p" transform="matrix(11,0,0,11,395.4,882)" />
<use xlink:href="#f2_2" transform="matrix(11,0,0,11,403.8,882)" />
<use xlink:href="#f2_x" transform="matrix(11,0,0,11,411.1,882)" />
<use xlink:href="#f3_j" transform="matrix(11,0,0,11,416.8,882)" />
<use xlink:href="#f2_5" transform="matrix(11,0,0,11,424.3,882)" />
<use xlink:href="#f2_p" transform="matrix(11,0,0,11,432.7,882)" />
<use xlink:href="#f2_2" transform="matrix(11,0,0,11,441.1,882)" />
<use xlink:href="#f2_8" transform="matrix(11,0,0,11,448.5,882)" />
<use xlink:href="#f0_b" transform="matrix(12,0,0,12,317.6,883.4)" />
<use xlink:href="#f0_i" transform="matrix(12,0,0,12,328,883.4)" />
<use xlink:href="#f0_k" transform="matrix(12,0,0,12,332.1,883.4)" />
<use xlink:href="#f0_h" transform="matrix(12,0,0,12,344,883.4)" />
<use xlink:href="#f0_g" transform="matrix(12,0,0,12,356.1,883.4)" />
<use xlink:href="#f0_b" transform="matrix(12,0,0,12,368,883.4)" />
<use xlink:href="#f2_y" transform="matrix(11,0,0,11,137.7,882)" />
<use xlink:href="#f2_9" transform="matrix(11,0,0,11,145.1,882)" />
<use xlink:href="#f2_r" transform="matrix(11,0,0,11,153.5,882)" />
<use xlink:href="#f3_j" transform="matrix(11,0,0,11,166.7,882)" />
<use xlink:href="#f2_5" transform="matrix(11,0,0,11,174.2,882)" />
<use xlink:href="#f2_10" transform="matrix(11,0,0,11,182.6,882)" />
<use xlink:href="#f2_7" transform="matrix(11,0,0,11,189.9,882)" />
<use xlink:href="#f2_8" transform="matrix(11,0,0,11,197.4,882)" />
<use xlink:href="#f0_h" transform="matrix(12,0,0,12,725.2,905.5)" />
<use xlink:href="#f0_6" transform="matrix(12,0,0,12,737.3,905.5)" />
<use xlink:href="#f0_9" transform="matrix(12,0,0,12,742.3,905.5)" />
<use xlink:href="#f0_g" transform="matrix(12,0,0,12,749.6,905.5)" />
<use xlink:href="#f0_b" transform="matrix(12,0,0,12,761.6,905.5)" />
<use xlink:href="#f2_p" transform="matrix(11,0,0,11,601,904.1)" />
<use xlink:href="#f2_3" transform="matrix(11,0,0,11,609.4,904.1)" />
<use xlink:href="#f2_v" transform="matrix(11,0,0,11,614.2,904.1)" />
<use xlink:href="#f3_j" transform="matrix(11,0,0,11,622.6,904.1)" />
<use xlink:href="#f2_8" transform="matrix(11,0,0,11,630.1,904.1)" />
<use xlink:href="#f2_e" transform="matrix(11,0,0,11,635.6,904.1)" />
<use xlink:href="#f2_3" transform="matrix(11,0,0,11,640.3,904.1)" />
<use xlink:href="#f2_8" transform="matrix(11,0,0,11,644.9,904.1)" />
<use xlink:href="#f0_j" transform="matrix(12,0,0,12,524.2,905.5)" />
<use xlink:href="#f0_i" transform="matrix(12,0,0,12,537.2,905.5)" />
<use xlink:href="#f0_b" transform="matrix(12,0,0,12,541.3,905.5)" />
<use xlink:href="#f0_a" transform="matrix(12,0,0,12,551.7,905.5)" />
<use xlink:href="#f0_g" transform="matrix(12,0,0,12,561.7,905.5)" />
<use xlink:href="#f0_b" transform="matrix(12,0,0,12,573.6,905.5)" />
<use xlink:href="#f2_2" transform="matrix(11,0,0,11,395.4,904.1)" />
<use xlink:href="#f2_5" transform="matrix(11,0,0,11,402.9,904.1)" />
<use xlink:href="#f2_y" transform="matrix(11,0,0,11,411.1,904.1)" />
<use xlink:href="#f3_j" transform="matrix(11,0,0,11,418.6,904.1)" />
<use xlink:href="#f2_5" transform="matrix(11,0,0,11,426.1,904.1)" />
<use xlink:href="#f2_p" transform="matrix(11,0,0,11,434.5,904.1)" />
<use xlink:href="#f2_2" transform="matrix(11,0,0,11,442.9,904.1)" />
<use xlink:href="#f2_8" transform="matrix(11,0,0,11,450.4,904.1)" />
<use xlink:href="#f0_b" transform="matrix(12,0,0,12,246.1,905.5)" />
<use xlink:href="#f0_e" transform="matrix(12,0,0,12,256.5,905.5)" />
<use xlink:href="#f0_6" transform="matrix(12,0,0,12,268,905.5)" />
<use xlink:href="#f0_m" transform="matrix(12,0,0,12,273,905.5)" />
<use xlink:href="#f0_w" transform="matrix(12,0,0,12,284.4,905.5)" />
<use xlink:href="#f0_b" transform="matrix(12,0,0,12,317.6,905.5)" />
<use xlink:href="#f0_i" transform="matrix(12,0,0,12,328,905.5)" />
<use xlink:href="#f0_k" transform="matrix(12,0,0,12,332.1,905.5)" />
<use xlink:href="#f0_h" transform="matrix(12,0,0,12,344,905.5)" />
<use xlink:href="#f0_g" transform="matrix(12,0,0,12,356,905.5)" />
<use xlink:href="#f0_b" transform="matrix(12,0,0,12,368,905.5)" />
<use xlink:href="#f0_v" transform="matrix(12,0,0,12,335.3,926.9)" />
<use xlink:href="#f0_12" transform="matrix(12,0,0,12,342.5,926.9)" />
<use xlink:href="#f0_o" transform="matrix(12,0,0,12,354.3,926.9)" />
<use xlink:href="#f0_6" transform="matrix(12,0,0,12,366,926.9)" />
<use xlink:href="#f0_9" transform="matrix(12,0,0,12,371.1,926.9)" />
<use xlink:href="#f2_2" transform="matrix(11,0,0,11,137.7,904.1)" />
<use xlink:href="#f2_r" transform="matrix(11,0,0,11,145.1,904.1)" />
<use xlink:href="#f2_4" transform="matrix(11,0,0,11,158.2,904.1)" />
<use xlink:href="#f3_j" transform="matrix(11,0,0,11,166.7,904.1)" />
<use xlink:href="#f2_10" transform="matrix(11,0,0,11,174.2,904.1)" />
<use xlink:href="#f2_7" transform="matrix(11,0,0,11,181.5,904.1)" />
<use xlink:href="#f2_8" transform="matrix(11,0,0,11,189,904.1)" />
<use xlink:href="#f0_e" transform="matrix(12,0,0,12,722.8,949.1)" />
<use xlink:href="#f0_6" transform="matrix(12,0,0,12,734.3,949.1)" />
<use xlink:href="#f0_r" transform="matrix(12,0,0,12,739.3,949.1)" />
<use xlink:href="#f0_m" transform="matrix(12,0,0,12,750.1,949.1)" />
<use xlink:href="#f0_b" transform="matrix(12,0,0,12,761.6,949.1)" />
<use xlink:href="#f2_11" transform="matrix(11,0,0,11,601,947.7)" />
<use xlink:href="#f3_j" transform="matrix(11,0,0,11,609.4,947.7)" />
<use xlink:href="#f2_8" transform="matrix(11,0,0,11,616.9,947.7)" />
<use xlink:href="#f2_3" transform="matrix(11,0,0,11,622.5,947.7)" />
<use xlink:href="#f2_8" transform="matrix(11,0,0,11,627.1,947.7)" />
<use xlink:href="#f0_h" transform="matrix(12,0,0,12,534.7,949.1)" />
<use xlink:href="#f0_6" transform="matrix(12,0,0,12,546.8,949.1)" />
<use xlink:href="#f0_b" transform="matrix(12,0,0,12,551.8,949.1)" />
<use xlink:href="#f0_e" transform="matrix(12,0,0,12,562.2,949.1)" />
<use xlink:href="#f0_b" transform="matrix(12,0,0,12,573.6,949.1)" />
<use xlink:href="#f2_7" transform="matrix(11,0,0,11,395.4,947.7)" />
<use xlink:href="#f2_6" transform="matrix(11,0,0,11,402.7,947.7)" />
<use xlink:href="#f2_y" transform="matrix(11,0,0,11,409.3,947.7)" />
<use xlink:href="#f3_j" transform="matrix(11,0,0,11,416.8,947.7)" />
<use xlink:href="#f2_5" transform="matrix(11,0,0,11,424.3,947.7)" />
<use xlink:href="#f2_p" transform="matrix(11,0,0,11,432.7,947.7)" />
<use xlink:href="#f2_2" transform="matrix(11,0,0,11,441.1,947.7)" />
<use xlink:href="#f2_8" transform="matrix(11,0,0,11,448.5,947.7)" />
<use xlink:href="#f0_c" transform="matrix(12,0,0,12,317.5,949.1)" />
<use xlink:href="#f0_i" transform="matrix(12,0,0,12,330.5,949.1)" />
<use xlink:href="#f0_k" transform="matrix(12,0,0,12,334.6,949.1)" />
<use xlink:href="#f0_4" transform="matrix(12,0,0,12,346.5,949.1)" />
<use xlink:href="#f0_g" transform="matrix(12,0,0,12,356.1,949.1)" />
<use xlink:href="#f0_b" transform="matrix(12,0,0,12,368,949.1)" />
<use xlink:href="#f2_5" transform="matrix(11,0,0,11,137.7,947.7)" />
<use xlink:href="#f3_j" transform="matrix(11,0,0,11,146.1,947.7)" />
<use xlink:href="#f2_z" transform="matrix(11,0,0,11,153.5,947.7)" />
<use xlink:href="#f2_7" transform="matrix(11,0,0,11,161.9,947.7)" />
<use xlink:href="#f2_8" transform="matrix(11,0,0,11,169.4,947.7)" />
<use xlink:href="#f0_h" transform="matrix(12,0,0,12,541.1,971.2)" />
<use xlink:href="#f0_a" transform="matrix(12,0,0,12,553.2,971.2)" />
<use xlink:href="#f0_q" transform="matrix(12,0,0,12,563.2,971.2)" />
<use xlink:href="#f0_b" transform="matrix(12,0,0,12,573.6,971.2)" />
<use xlink:href="#f2_p" transform="matrix(11,0,0,11,395.4,969.8)" />
<use xlink:href="#f2_2" transform="matrix(11,0,0,11,403.8,969.8)" />
<use xlink:href="#f2_6" transform="matrix(11,0,0,11,411.1,969.8)" />
<use xlink:href="#f2_y" transform="matrix(11,0,0,11,417.7,969.8)" />
<use xlink:href="#f3_j" transform="matrix(11,0,0,11,425.2,969.8)" />
<use xlink:href="#f2_5" transform="matrix(11,0,0,11,432.7,969.8)" />
<use xlink:href="#f2_p" transform="matrix(11,0,0,11,441.1,969.8)" />
<use xlink:href="#f2_2" transform="matrix(11,0,0,11,449.5,969.8)" />
<use xlink:href="#f2_8" transform="matrix(11,0,0,11,456.9,969.8)" />
<use xlink:href="#f0_19" transform="matrix(12,0,0,12,319.2,971.2)" />
<use xlink:href="#f0_i" transform="matrix(12,0,0,12,329.1,971.2)" />
<use xlink:href="#f0_b" transform="matrix(12,0,0,12,333.2,971.2)" />
<use xlink:href="#f0_7" transform="matrix(12,0,0,12,343.6,971.2)" />
<use xlink:href="#f0_g" transform="matrix(12,0,0,12,356.1,971.2)" />
<use xlink:href="#f0_b" transform="matrix(12,0,0,12,368,971.2)" />
<use xlink:href="#f2_8" transform="matrix(11,0,0,11,137.7,969.8)" />
<use xlink:href="#f2_2" transform="matrix(11,0,0,11,143.3,969.8)" />
<use xlink:href="#f2_y" transform="matrix(11,0,0,11,150.7,969.8)" />
<use xlink:href="#f2_9" transform="matrix(11,0,0,11,158.2,969.8)" />
<use xlink:href="#f2_r" transform="matrix(11,0,0,11,166.5,969.8)" />
<use xlink:href="#f3_j" transform="matrix(11,0,0,11,179.7,969.8)" />
<use xlink:href="#f2_5" transform="matrix(11,0,0,11,187.2,969.8)" />
<use xlink:href="#f2_p" transform="matrix(11,0,0,11,195.6,969.8)" />
<use xlink:href="#f2_7" transform="matrix(11,0,0,11,204,969.8)" />
<use xlink:href="#f2_8" transform="matrix(11,0,0,11,211.4,969.8)" />
<use xlink:href="#f3_q" transform="matrix(15.5,0,0,15.5,702,1036)" />
<use xlink:href="#f3_r" transform="matrix(15.5,0,0,15.5,722,1036)" />
<use xlink:href="#f3_o" transform="matrix(15.5,0,0,15.5,735.6,1036)" />
<use xlink:href="#f3_s" transform="matrix(15.5,0,0,15.5,746.4,1036)" />
<use xlink:href="#f3_t" transform="matrix(15.5,0,0,15.5,760,1036)" />
<use xlink:href="#f3_e" transform="matrix(15.5,0,0,15.5,635.4,1036)" />
<use xlink:href="#f3_u" transform="matrix(15.5,0,0,15.5,650.2,1036)" />
<use xlink:href="#f3_5" transform="matrix(15.5,0,0,15.5,664.5,1036)" />
<use xlink:href="#f3_v" transform="matrix(15.5,0,0,15.5,670.9,1036)" />
<use xlink:href="#f3_d" transform="matrix(15.5,0,0,15.5,684.6,1036)" />
<use xlink:href="#f3_q" transform="matrix(15.5,0,0,15.5,582.8,1036)" />
<use xlink:href="#f3_r" transform="matrix(15.5,0,0,15.5,603,1036)" />
<use xlink:href="#f3_w" transform="matrix(15.5,0,0,15.5,616.4,1036)" />
<use xlink:href="#f0_g" transform="matrix(12,0,0,12,721.2,1058.1)" />
<use xlink:href="#f0_b" transform="matrix(12,0,0,12,733.2,1058.1)" />
<use xlink:href="#f0_i" transform="matrix(12,0,0,12,743.6,1058.1)" />
<use xlink:href="#f0_7" transform="matrix(12,0,0,12,747.7,1058.1)" />
<use xlink:href="#f0_g" transform="matrix(12,0,0,12,760.2,1058.1)" />
<use xlink:href="#f3_q" transform="matrix(11,0,0,11,660.9,1058.1)" />
<use xlink:href="#f3_r" transform="matrix(11,0,0,11,674.9,1058.1)" />
<use xlink:href="#f3_o" transform="matrix(11,0,0,11,684.3,1058.1)" />
<use xlink:href="#f3_s" transform="matrix(11,0,0,11,691.7,1058.1)" />
<use xlink:href="#f3_t" transform="matrix(11,0,0,11,701.1,1058.1)" />
<use xlink:href="#f0_18" transform="matrix(12,0,0,12,568.3,1058.1)" />
<use xlink:href="#f0_g" transform="matrix(12,0,0,12,588.3,1058.1)" />
<use xlink:href="#f0_e" transform="matrix(12,0,0,12,600.2,1058.1)" />
<use xlink:href="#f0_7" transform="matrix(12,0,0,12,611.7,1058.1)" />
<use xlink:href="#f0_c" transform="matrix(12,0,0,12,624.1,1058.1)" />
<use xlink:href="#f0_7" transform="matrix(12,0,0,12,637,1058.1)" />
<use xlink:href="#f1_p" transform="matrix(12,0,0,12,521.1,1058.1)" />
<use xlink:href="#f1_c" transform="matrix(12,0,0,12,533.6,1058.1)" />
<use xlink:href="#f1_4" transform="matrix(12,0,0,12,544.8,1058.1)" />
<use xlink:href="#f1_p" transform="matrix(12,0,0,12,555.8,1058.1)" />
<use xlink:href="#f0_8" transform="matrix(12,0,0,12,506.6,1058.1)" />
<use xlink:href="#f0_18" transform="matrix(12,0,0,12,512.4,1058.1)" />
<use xlink:href="#f3_q" transform="matrix(11,0,0,11,463.2,1058.1)" />
<use xlink:href="#f3_r" transform="matrix(11,0,0,11,477.3,1058.1)" />
<use xlink:href="#f3_w" transform="matrix(11,0,0,11,486.6,1058.1)" />
<use xlink:href="#f0_18" transform="matrix(12,0,0,12,370.6,1058.1)" />
<use xlink:href="#f0_g" transform="matrix(12,0,0,12,390.6,1058.1)" />
<use xlink:href="#f0_e" transform="matrix(12,0,0,12,402.5,1058.1)" />
<use xlink:href="#f0_7" transform="matrix(12,0,0,12,414,1058.1)" />
<use xlink:href="#f0_c" transform="matrix(12,0,0,12,426.5,1058.1)" />
<use xlink:href="#f0_7" transform="matrix(12,0,0,12,439.3,1058.1)" />
<use xlink:href="#f1_l" transform="matrix(12,0,0,12,333.1,1058.1)" />
<use xlink:href="#f1_i" transform="matrix(12,0,0,12,343.9,1058.1)" />
<use xlink:href="#f1_j" transform="matrix(12,0,0,12,357.2,1058.1)" />
<use xlink:href="#f0_g" transform="matrix(12,0,0,12,138,1058.1)" />
<use xlink:href="#f0_f" transform="matrix(12,0,0,12,149.9,1058.1)" />
<use xlink:href="#f0_i" transform="matrix(12,0,0,12,160.4,1058.1)" />
<use xlink:href="#f0_h" transform="matrix(12,0,0,12,164.5,1058.1)" />
<use xlink:href="#f0_4" transform="matrix(12,0,0,12,176.6,1058.1)" />
<use xlink:href="#f0_f" transform="matrix(12,0,0,12,186.2,1058.1)" />
<use xlink:href="#f0_3" transform="matrix(12,0,0,12,208.2,1058.1)" />
<use xlink:href="#f0_6" transform="matrix(12,0,0,12,213.2,1058.1)" />
<use xlink:href="#f0_i" transform="matrix(12,0,0,12,218.2,1058.1)" />
<use xlink:href="#f0_7" transform="matrix(12,0,0,12,222.2,1058.1)" />
<use xlink:href="#f0_a" transform="matrix(12,0,0,12,234.7,1058.1)" />
<use xlink:href="#f0_g" transform="matrix(12,0,0,12,244.8,1058.1)" />
<use xlink:href="#f0_b" transform="matrix(12,0,0,12,268.2,1058.1)" />
<use xlink:href="#f0_b" transform="matrix(12,0,0,12,278.6,1058.1)" />
<use xlink:href="#f0_n" transform="matrix(12,0,0,12,289,1058.1)" />
<use xlink:href="#f0_f" transform="matrix(12,0,0,12,296.5,1058.1)" />
<use xlink:href="#f0_8" transform="matrix(12,0,0,12,318.6,1058.1)" />
<use xlink:href="#f0_18" transform="matrix(12,0,0,12,324.4,1058.1)" />
<use xlink:href="#f0_8" transform="matrix(12,0,0,12,441.1,1079.5)" />
<use xlink:href="#f0_l" transform="matrix(12,0,0,12,446.9,1079.5)" />
<use xlink:href="#f0_i" transform="matrix(12,0,0,12,458.9,1079.5)" />
<use xlink:href="#f0_i" transform="matrix(12,0,0,12,463.1,1079.5)" />
<use xlink:href="#f0_h" transform="matrix(12,0,0,12,467.2,1079.5)" />
<use xlink:href="#f0_c" transform="matrix(12,0,0,12,479.2,1079.5)" />
<use xlink:href="#f0_g" transform="matrix(12,0,0,12,492.2,1079.5)" />
<use xlink:href="#f0_3" transform="matrix(12,0,0,12,510,1079.5)" />
<use xlink:href="#f0_i" transform="matrix(12,0,0,12,514.9,1079.5)" />
<use xlink:href="#f0_f" transform="matrix(12,0,0,12,519,1079.5)" />
<use xlink:href="#f0_l" transform="matrix(12,0,0,12,535.5,1079.5)" />
<use xlink:href="#f0_i" transform="matrix(12,0,0,12,547.6,1079.5)" />
<use xlink:href="#f0_h" transform="matrix(12,0,0,12,551.7,1079.5)" />
<use xlink:href="#f0_i" transform="matrix(12,0,0,12,563.7,1079.5)" />
<use xlink:href="#f0_e" transform="matrix(12,0,0,12,567.8,1079.5)" />
<use xlink:href="#f0_b" transform="matrix(12,0,0,12,579.3,1079.5)" />
<use xlink:href="#f0_l" transform="matrix(12,0,0,12,595.6,1079.5)" />
<use xlink:href="#f0_i" transform="matrix(12,0,0,12,607.8,1079.5)" />
<use xlink:href="#f0_b" transform="matrix(12,0,0,12,612,1079.5)" />
<use xlink:href="#f0_f" transform="matrix(12,0,0,12,622.3,1079.5)" />
<use xlink:href="#f0_b" transform="matrix(12,0,0,12,632.9,1079.5)" />
<use xlink:href="#f0_f" transform="matrix(12,0,0,12,643.3,1079.5)" />
<use xlink:href="#f0_h" transform="matrix(12,0,0,12,653.8,1079.5)" />
<use xlink:href="#f0_7" transform="matrix(12,0,0,12,665.7,1079.5)" />
<use xlink:href="#f0_2" transform="matrix(12,0,0,12,684.2,1079.5)" />
<use xlink:href="#f0_h" transform="matrix(12,0,0,12,690,1079.5)" />
<use xlink:href="#f0_6" transform="matrix(12,0,0,12,701.9,1079.5)" />
<use xlink:href="#f0_e" transform="matrix(12,0,0,12,706.9,1079.5)" />
<use xlink:href="#f0_7" transform="matrix(12,0,0,12,718.4,1079.5)" />
<use xlink:href="#f0_c" transform="matrix(12,0,0,12,730.9,1079.5)" />
<use xlink:href="#f0_7" transform="matrix(12,0,0,12,743.9,1079.5)" />
<use xlink:href="#f0_f" transform="matrix(12,0,0,12,756.3,1079.5)" />
<use xlink:href="#f0_6" transform="matrix(12,0,0,12,766.8,1079.5)" />
<use xlink:href="#f0_g" transform="matrix(12,0,0,12,686.9,1100.9)" />
<use xlink:href="#f0_b" transform="matrix(12,0,0,12,698.8,1100.9)" />
<use xlink:href="#f0_i" transform="matrix(12,0,0,12,709.2,1100.9)" />
<use xlink:href="#f0_7" transform="matrix(12,0,0,12,713.3,1100.9)" />
<use xlink:href="#f0_g" transform="matrix(12,0,0,12,725.7,1100.9)" />
<use xlink:href="#f0_h" transform="matrix(12,0,0,12,747.8,1100.9)" />
<use xlink:href="#f0_s" transform="matrix(12,0,0,12,759.8,1100.9)" />
<use xlink:href="#f2_r" transform="matrix(11,0,0,11,630.5,1100.9)" />
<use xlink:href="#f2_g" transform="matrix(11,0,0,11,643.6,1100.9)" />
<use xlink:href="#f2_y" transform="matrix(11,0,0,11,652,1100.9)" />
<use xlink:href="#f2_11" transform="matrix(11,0,0,11,659.5,1100.9)" />
<use xlink:href="#f2_9" transform="matrix(11,0,0,11,667.9,1100.9)" />
<use xlink:href="#f0_g" transform="matrix(12,0,0,12,137.8,1100.9)" />
<use xlink:href="#f0_b" transform="matrix(12,0,0,12,149.7,1100.9)" />
<use xlink:href="#f0_i" transform="matrix(12,0,0,12,160.1,1100.9)" />
<use xlink:href="#f0_7" transform="matrix(12,0,0,12,164.1,1100.9)" />
<use xlink:href="#f0_g" transform="matrix(12,0,0,12,176.6,1100.9)" />
<use xlink:href="#f0_l" transform="matrix(12,0,0,12,198.7,1100.9)" />
<use xlink:href="#f0_e" transform="matrix(12,0,0,12,210.9,1100.9)" />
<use xlink:href="#f0_a" transform="matrix(12,0,0,12,232.4,1100.9)" />
<use xlink:href="#f0_7" transform="matrix(12,0,0,12,242.5,1100.9)" />
<use xlink:href="#f0_b" transform="matrix(12,0,0,12,255,1100.9)" />
<use xlink:href="#f0_9" transform="matrix(12,0,0,12,265.4,1100.9)" />
<use xlink:href="#f0_q" transform="matrix(12,0,0,12,282.9,1100.9)" />
<use xlink:href="#f0_f" transform="matrix(12,0,0,12,293.3,1100.9)" />
<use xlink:href="#f0_4" transform="matrix(12,0,0,12,303.9,1100.9)" />
<use xlink:href="#f0_c" transform="matrix(12,0,0,12,313.5,1100.9)" />
<use xlink:href="#f0_i" transform="matrix(12,0,0,12,336.6,1100.9)" />
<use xlink:href="#f0_m" transform="matrix(12,0,0,12,340.8,1100.9)" />
<use xlink:href="#f0_4" transform="matrix(12,0,0,12,352.2,1100.9)" />
<use xlink:href="#f0_w" transform="matrix(12,0,0,12,361.8,1100.9)" />
<use xlink:href="#f0_l" transform="matrix(12,0,0,12,379,1100.9)" />
<use xlink:href="#f0_i" transform="matrix(12,0,0,12,391.2,1100.9)" />
<use xlink:href="#f0_f" transform="matrix(12,0,0,12,395.4,1100.9)" />
<use xlink:href="#f0_q" transform="matrix(12,0,0,12,405.9,1100.9)" />
<use xlink:href="#f0_11" transform="matrix(12,0,0,12,416.3,1100.9)" />
<use xlink:href="#f0_a" transform="matrix(12,0,0,12,422.4,1100.9)" />
<use xlink:href="#f0_i" transform="matrix(12,0,0,12,432.4,1100.9)" />
<use xlink:href="#f0_k" transform="matrix(12,0,0,12,436.5,1100.9)" />
<use xlink:href="#f0_i" transform="matrix(12,0,0,12,448.5,1100.9)" />
<use xlink:href="#f0_6" transform="matrix(12,0,0,12,452.6,1100.9)" />
<use xlink:href="#f0_2" transform="matrix(12,0,0,12,467.7,1100.9)" />
<use xlink:href="#f0_3" transform="matrix(12,0,0,12,473.5,1100.9)" />
<use xlink:href="#f0_i" transform="matrix(12,0,0,12,478.5,1100.9)" />
<use xlink:href="#f0_7" transform="matrix(12,0,0,12,482.5,1100.9)" />
<use xlink:href="#f0_i" transform="matrix(12,0,0,12,505.2,1100.9)" />
<use xlink:href="#f0_m" transform="matrix(12,0,0,12,509.3,1100.9)" />
<use xlink:href="#f0_b" transform="matrix(12,0,0,12,520.7,1100.9)" />
<use xlink:href="#f0_h" transform="matrix(12,0,0,12,541.3,1100.9)" />
<use xlink:href="#f0_6" transform="matrix(12,0,0,12,553.4,1100.9)" />
<use xlink:href="#f0_d" transform="matrix(12,0,0,12,558.4,1100.9)" />
<use xlink:href="#f0_g" transform="matrix(12,0,0,12,570.3,1100.9)" />
<use xlink:href="#f0_b" transform="matrix(12,0,0,12,582.2,1100.9)" />
<use xlink:href="#f0_c" transform="matrix(12,0,0,12,602.6,1100.9)" />
<use xlink:href="#f0_i" transform="matrix(12,0,0,12,615.6,1100.9)" />
<use xlink:href="#f2_y" transform="matrix(11,0,0,11,727.1,1122.3)" />
<use xlink:href="#f2_g" transform="matrix(11,0,0,11,734.5,1122.3)" />
<use xlink:href="#f2_u" transform="matrix(11,0,0,11,742.9,1122.3)" />
<use xlink:href="#f2_5" transform="matrix(11,0,0,11,750.4,1122.3)" />
<use xlink:href="#f2_e" transform="matrix(11,0,0,11,758.8,1122.3)" />
<use xlink:href="#f2_9" transform="matrix(11,0,0,11,763.5,1122.3)" />
<use xlink:href="#f0_8" transform="matrix(12,0,0,12,714.2,1122.3)" />
<use xlink:href="#f0_v" transform="matrix(12,0,0,12,720,1122.3)" />
<use xlink:href="#f0_g" transform="matrix(12,0,0,12,691.2,1143.7)" />
<use xlink:href="#f0_b" transform="matrix(12,0,0,12,703.1,1143.7)" />
<use xlink:href="#f0_i" transform="matrix(12,0,0,12,713.5,1143.7)" />
<use xlink:href="#f0_7" transform="matrix(12,0,0,12,717.6,1143.7)" />
<use xlink:href="#f0_g" transform="matrix(12,0,0,12,730.1,1143.7)" />
<use xlink:href="#f0_h" transform="matrix(12,0,0,12,747.8,1143.7)" />
<use xlink:href="#f0_s" transform="matrix(12,0,0,12,759.9,1143.7)" />
<use xlink:href="#f2_r" transform="matrix(11,0,0,11,655.1,1143.7)" />
<use xlink:href="#f2_g" transform="matrix(11,0,0,11,668.2,1143.7)" />
<use xlink:href="#f2_i" transform="matrix(11,0,0,11,676.6,1143.7)" />
<use xlink:href="#f0_8" transform="matrix(12,0,0,12,330.5,1143.7)" />
<use xlink:href="#f0_l" transform="matrix(12,0,0,12,336.3,1143.7)" />
<use xlink:href="#f0_i" transform="matrix(12,0,0,12,348.5,1143.7)" />
<use xlink:href="#f0_q" transform="matrix(12,0,0,12,352.6,1143.7)" />
<use xlink:href="#f0_j" transform="matrix(12,0,0,12,363,1143.7)" />
<use xlink:href="#f0_7" transform="matrix(12,0,0,12,375.9,1143.7)" />
<use xlink:href="#f0_g" transform="matrix(12,0,0,12,388.4,1143.7)" />
<use xlink:href="#f0_b" transform="matrix(12,0,0,12,406.3,1143.7)" />
<use xlink:href="#f0_4" transform="matrix(12,0,0,12,416.7,1143.7)" />
<use xlink:href="#f0_f" transform="matrix(12,0,0,12,426.3,1143.7)" />
<use xlink:href="#f0_b" transform="matrix(12,0,0,12,442.7,1143.7)" />
<use xlink:href="#f0_i" transform="matrix(12,0,0,12,453.1,1143.7)" />
<use xlink:href="#f0_n" transform="matrix(12,0,0,12,457.2,1143.7)" />
<use xlink:href="#f0_q" transform="matrix(12,0,0,12,464.7,1143.7)" />
<use xlink:href="#f0_e" transform="matrix(12,0,0,12,480.8,1143.7)" />
<use xlink:href="#f0_i" transform="matrix(12,0,0,12,492.3,1143.7)" />
<use xlink:href="#f0_m" transform="matrix(12,0,0,12,496.4,1143.7)" />
<use xlink:href="#f0_6" transform="matrix(12,0,0,12,507.9,1143.7)" />
<use xlink:href="#f0_h" transform="matrix(12,0,0,12,512.9,1143.7)" />
<use xlink:href="#f0_s" transform="matrix(12,0,0,12,530.7,1143.7)" />
<use xlink:href="#f0_i" transform="matrix(12,0,0,12,543,1143.7)" />
<use xlink:href="#f0_g" transform="matrix(12,0,0,12,547.1,1143.7)" />
<use xlink:href="#f0_2" transform="matrix(12,0,0,12,564.9,1143.7)" />
<use xlink:href="#f0_h" transform="matrix(12,0,0,12,570.7,1143.7)" />
<use xlink:href="#f0_6" transform="matrix(12,0,0,12,582.8,1143.7)" />
<use xlink:href="#f0_d" transform="matrix(12,0,0,12,587.8,1143.7)" />
<use xlink:href="#f0_g" transform="matrix(12,0,0,12,599.7,1143.7)" />
<use xlink:href="#f0_b" transform="matrix(12,0,0,12,611.6,1143.7)" />
<use xlink:href="#f0_3" transform="matrix(12,0,0,12,627.8,1143.7)" />
<use xlink:href="#f0_i" transform="matrix(12,0,0,12,632.8,1143.7)" />
<use xlink:href="#f0_s" transform="matrix(12,0,0,12,637,1143.7)" />
<use xlink:href="#f0_15" transform="matrix(11,0,0,11,137.5,1208.9)" />
</g>
</g>
<defs>
<path d="M163,0V190H321V0Z" 
id="f0_8"
transform="scale(0.001,-0.001)" />

<path d="M736,107V473c0,0,0,147,-48,202c0,0,-49,54,-187,54H278V107ZM139,0V836H499c0,0,105,0,177,-22c0,0,72,-21,116,-69c0,0,44,-49,64,-119c0,0,19,-71,19,-174V0Z" 
id="f0_l"
transform="scale(0.001,-0.001)" />

<path d="M102,312V836H241V369L102,312Z" 
id="f0_i"
transform="scale(0.001,-0.001)" />

<path d="M180,0L66,836H203L258,443c0,0,36,1,64,6c0,0,28,6,49,18c0,0,20,12,35,26c0,0,15,13,26,36c0,0,11,24,17,44c0,0,7,20,12,55c0,0,6,34,9,60c0,0,3,26,8,71c0,0,4,45,9,77H610c0,0,-13,-194,-31,-271c0,0,-31,-127,-111,-179c0,0,-71,-45,-196,-50L304,107c0,0,73,0,130,5c0,0,56,6,111,21c0,0,54,15,94,40c0,0,40,25,77,64c0,0,37,39,63,94c0,0,25,54,46,128c0,0,21,73,34,166c0,0,13,94,20,211h138c0,0,-14,-124,-29,-218c0,0,-16,-94,-39,-179c0,0,-22,-85,-50,-146c0,0,-28,-61,-68,-112c0,0,-39,-51,-87,-84C744,97,696,65,632,42C632,42,568,19,492,10C492,10,417,0,320,0Z" 
id="f0_c"
transform="scale(0.001,-0.001)" />

<path d="M138,-7c0,0,-34,0,-72,10V129c0,0,25,-8,52,-8c0,0,33,0,58,5c0,0,26,5,58,24c0,0,33,20,53,54c0,0,21,34,36,97c0,0,15,64,15,151c0,0,0,113,-19,173c0,0,-19,60,-56,82c0,0,-38,22,-107,22H89V836h72c0,0,165,0,240,-91c0,0,76,-91,76,-293c0,0,0,-107,26,-227c0,0,25,-119,83,-225H437c0,0,-43,101,-62,184c0,0,-24,-60,-51,-99c0,0,-26,-38,-56,-58C268,27,239,7,209,0c0,0,-30,-7,-71,-7Z" 
id="f0_n"
transform="scale(0.001,-0.001)" />

<path d="M585,0V426c0,0,0,54,-8,98c0,0,-8,44,-27,83c0,0,-19,40,-49,66c0,0,-30,26,-77,41c0,0,-47,15,-108,15H66V836H315c0,0,94,0,166,-20c0,0,71,-20,116,-54c0,0,46,-35,75,-88c0,0,28,-52,40,-112c0,0,12,-60,12,-137V0Z" 
id="f0_q"
transform="scale(0.001,-0.001)" />

<path d="M114,0l60,312c0,0,2,12,8,39c0,0,6,27,7,37c0,0,2,11,5,30c0,0,2,19,4,33c0,0,1,15,1,31c0,0,0,48,-35,146c0,0,-35,98,-98,208H228c0,0,3,-8,27,-67c0,0,25,-58,41,-117c0,0,21,53,50,90c0,0,29,37,57,57c0,0,29,21,65,32c0,0,37,11,65,14c0,0,28,3,67,3c0,0,300,0,300,-396V0H480V106H761V452c0,0,0,146,-46,215c0,0,-45,70,-118,70c0,0,-134,0,-198,-119c0,0,-36,-68,-67,-222c0,0,-2,-10,-6,-27L253,0Z" 
id="f0_7"
transform="scale(0.001,-0.001)" />

<path d="M154,0V454l138,56V0ZM722,0V454c0,0,0,161,-49,218c0,0,-48,57,-186,57H139V836H485c0,0,207,0,291,-93c0,0,83,-94,83,-318V0Z" 
id="f0_g"
transform="scale(0.001,-0.001)" />

<path d="M139,0V836H278V0Z" 
id="f0_6"
transform="scale(0.001,-0.001)" />

<path d="M495,0V729H66V836H781V729H634V0Z" 
id="f0_a"
transform="scale(0.001,-0.001)" />

<path d="M66,0V107H554V452c0,0,0,56,-4,93c0,0,-4,37,-18,75c0,0,-14,38,-40,60c0,0,-26,22,-71,36c0,0,-45,13,-110,13H66V836H312c0,0,91,0,157,-17c0,0,66,-17,109,-49c0,0,44,-32,69,-84c0,0,26,-52,36,-114c0,0,10,-62,10,-147V107H817V0Z" 
id="f0_f"
transform="scale(0.001,-0.001)" />

<path d="M66,0V106H322c0,0,75,0,127,23c0,0,53,23,82,67c0,0,29,43,42,98c0,0,13,54,13,124c0,0,0,70,-13,124c0,0,-13,55,-42,98c0,0,-29,44,-82,67c0,0,-52,23,-127,23H66V836H322c0,0,87,0,157,-24c0,0,70,-24,115,-64c0,0,45,-40,74,-94c0,0,30,-55,43,-113c0,0,13,-59,13,-123c0,0,0,-64,-13,-123c0,0,-13,-58,-43,-113c0,0,-29,-54,-74,-94C594,88,549,48,479,24C479,24,409,0,322,0Z" 
id="f0_4"
transform="scale(0.001,-0.001)" />

<path d="M287,0L589,729H66v386H205V836l547,-1l-2,-82L433,0Z" 
id="f0_b"
transform="scale(0.001,-0.001)" />

<path d="M112,-5c0,0,-39,0,-97,11V113c0,0,48,-10,77,-10c0,0,53,0,70,42c0,0,17,43,17,164V729H50V836H501c0,0,107,0,179,-25c0,0,72,-25,112,-77c0,0,40,-51,57,-118c0,0,16,-67,16,-164V0H726V454c0,0,0,55,-3,92c0,0,-4,37,-17,75c0,0,-14,38,-38,59c0,0,-24,22,-65,36c0,0,-42,13,-102,13H318V309c0,0,0,-160,-46,-237C272,72,226,-5,112,-5Z" 
id="f0_h"
transform="scale(0.001,-0.001)" />

<path d="M190,0V127H436V977L168,923v137l267,54H586V127H832V0Z" 
id="f0_14"
transform="scale(0.001,-0.001)" />

<path d="M248,0L521,658H66v429H313V836l493,-1V716L504,0Z" 
id="f1_a"
transform="scale(0.001,-0.001)" />

<path d="M102,250V836H349V351L102,250Z" 
id="f1_8"
transform="scale(0.001,-0.001)" />

<path d="M154,-13c0,0,-38,0,-85,9V198c0,0,58,-15,103,-15c0,0,84,0,118,60c0,0,35,61,35,206c0,0,0,66,-7,105c0,0,-6,39,-24,63c0,0,-17,25,-44,33c0,0,-27,8,-73,8H66V836H225c0,0,198,0,275,-115c0,0,56,-84,65,-264c0,0,3,-55,3,-148c0,0,0,-177,71,-309L393,1c0,0,-53,130,-54,141c0,0,-28,-90,-65,-123c0,0,-38,-32,-120,-32Z" 
id="f1_k"
transform="scale(0.001,-0.001)" />

<path d="M534,0V425c0,0,0,109,-41,171c0,0,-41,62,-140,62H66V836H352c0,0,99,0,174,-20c0,0,75,-20,123,-55c0,0,48,-35,78,-87c0,0,30,-53,42,-113c0,0,12,-60,12,-136V0Z" 
id="f1_4"
transform="scale(0.001,-0.001)" />

<path d="M173,-6C173,-6,61,-6,15,9V177c0,0,73,-10,82,-10c0,0,37,0,52,30c0,0,14,29,14,116V658H18V836H516c0,0,262,0,341,-145c0,0,48,-89,48,-242V0H658V450c0,0,0,131,-37,171c0,0,-34,37,-105,37H411V313c0,0,0,-189,-67,-258C344,55,285,-6,173,-6Z" 
id="f1_h"
transform="scale(0.001,-0.001)" />

<path d="M121,0V211L528,570c0,0,54,50,80,96c0,0,27,47,27,98c0,0,0,78,-53,126c0,0,-53,48,-140,48c0,0,-67,0,-147,-29c0,0,-80,-28,-171,-85v245c0,0,97,32,192,48c0,0,95,17,186,17c0,0,199,0,310,-88c0,0,111,-88,111,-245c0,0,0,-91,-47,-170c0,0,-47,-79,-197,-211L441,211H931V0Z" 
id="f1_n"
transform="scale(0.001,-0.001)" />

<path d="M139,0V836H485c0,0,206,0,290,-90c0,0,84,-89,84,-294V0H721V473c0,0,0,147,-49,202c0,0,-48,54,-186,54H277V0Z" 
id="f0_k"
transform="scale(0.001,-0.001)" />

<path d="M139,0V138c0,0,0,61,8,112c0,0,7,52,19,87c0,0,11,36,30,66c0,0,19,31,35,49c0,0,17,19,41,35c0,0,25,17,41,25c0,0,17,7,40,17L141,836H303L613,388c0,0,20,10,33,18c0,0,13,8,34,28c0,0,20,20,33,44c0,0,13,25,22,66c0,0,10,41,10,92V836H882V698c0,0,0,-61,-7,-112c0,0,-6,-52,-18,-88c0,0,-12,-36,-30,-66c0,0,-19,-30,-36,-49c0,0,-17,-18,-41,-34c0,0,-24,-17,-40,-25c0,0,-17,-8,-41,-17L882,0H720L409,448c0,0,-21,-11,-34,-19c0,0,-13,-8,-34,-27c0,0,-21,-20,-34,-44c0,0,-12,-25,-22,-66c0,0,-9,-41,-9,-92V0Z" 
id="f0_s"
transform="scale(0.001,-0.001)" />

<path d="M522,92c0,0,247,0,247,333c0,0,0,88,-17,146c0,0,-17,58,-53,91c0,0,-35,33,-82,46c0,0,-48,14,-116,14H276V419c0,0,0,-327,246,-327Zm0,-112c0,0,-193,0,-289,109c0,0,-95,110,-95,337V836H501c0,0,213,0,309,-93c0,0,96,-94,96,-317c0,0,0,-227,-95,-337C811,89,715,-20,522,-20Z" 
id="f0_o"
transform="scale(0.001,-0.001)" />

<path d="M522,-20c0,0,-196,0,-290,99c0,0,-94,100,-94,324V836H276V397c0,0,0,-86,16,-147c0,0,17,-60,50,-94c0,0,34,-34,77,-49c0,0,43,-15,103,-15c0,0,59,0,102,15c0,0,44,15,77,49c0,0,33,34,50,94c0,0,17,61,17,147c0,0,0,84,-8,143c0,0,-7,58,-25,105c0,0,-17,47,-51,69c0,0,-33,23,-83,23c0,0,-50,0,-119,-22V821c0,0,85,23,150,23c0,0,76,0,130,-30c0,0,53,-31,85,-90c0,0,31,-59,45,-138c0,0,13,-78,13,-183c0,0,0,-224,-93,-324c0,0,-94,-99,-290,-99Z" 
id="f0_d"
transform="scale(0.001,-0.001)" />

<path d="M74,357V479H476V357Z" 
id="f0_17"
transform="scale(0.001,-0.001)" />

<path d="M700,-317V454c0,0,0,155,-54,215c0,0,-54,60,-180,60H277V551c0,0,0,-55,26,-80c0,0,27,-26,82,-26c0,0,30,0,80,10V341c0,0,-61,-11,-111,-11c0,0,-100,0,-157,55c0,0,-58,55,-58,186V836H466c0,0,203,0,288,-91c0,0,85,-92,85,-293V-317Z" 
id="f0_12"
transform="scale(0.001,-0.001)" />

<path d="M495,413c0,0,0,133,-34,190c0,0,-34,57,-105,57c0,0,-78,0,-119,-63c0,0,-42,-62,-42,-184ZM374,-14c0,0,-163,0,-239,87c0,0,-75,88,-75,283c0,0,0,183,77,273c0,0,76,91,219,91c0,0,269,0,269,-306V353H194V340c0,0,0,-103,23,-160c0,0,22,-57,70,-87c0,0,47,-29,124,-29c0,0,40,0,96,6c0,0,55,7,91,15V43C598,43,562,20,500,3c0,0,-61,-17,-126,-17Z" 
id="f2_2"
transform="scale(0.001,-0.001)" />

<path d="M71,-141V-15L289,62L66,836H210L416,109c0,0,99,42,153,98c0,0,53,56,80,155c0,0,26,98,26,262V836H817V624c0,0,0,-88,-7,-154c0,0,-7,-67,-25,-132c0,0,-18,-66,-51,-116c0,0,-33,-51,-84,-98c0,0,-50,-48,-123,-87c0,0,-72,-39,-169,-74L71,-141Z" 
id="f0_e"
transform="scale(0.001,-0.001)" />

<path d="M139,0V106H400c0,0,176,0,253,71c0,0,78,72,78,250c0,0,0,163,-80,233c0,0,-81,69,-250,69H278L277,564c0,0,-1,-54,26,-80c0,0,27,-25,82,-25c0,0,30,0,80,9V355c0,0,-61,-12,-111,-12c0,0,-100,0,-157,55c0,0,-58,55,-58,186V836H456c0,0,193,0,303,-109c0,0,110,-109,110,-309c0,0,0,-200,-110,-309C759,109,648,0,456,0Z" 
id="f0_m"
transform="scale(0.001,-0.001)" />

<path d="M66,0V107H332V555c0,0,0,92,-37,133c0,0,-37,41,-116,41H85V836h94c0,0,153,0,223,-66c0,0,69,-66,69,-231V0Z" 
id="f0_9"
transform="scale(0.001,-0.001)" />

<path d="M382,45c0,0,188,0,188,314c0,0,0,143,-47,213c0,0,-46,69,-141,69c0,0,-87,0,-146,-24V58c0,0,67,-13,146,-13ZM25,-325v35l88,18V649L34,668v33H231l1,-41c0,0,31,27,84,43c0,0,53,17,107,17c0,0,134,0,208,-94c0,0,73,-93,73,-267c0,0,0,-178,-80,-276c0,0,-80,-97,-232,-97c0,0,-84,0,-160,16c0,0,4,-53,4,-84V-272l123,-18v-35Z" 
id="f2_4"
transform="scale(0.001,-0.001)" />

<path d="M31,0V33l88,19V649L31,668v33H235l7,-87c0,0,44,37,121,71c0,0,76,35,121,35h11V530H463l-43,82c0,0,-37,0,-88,-10c0,0,-52,-10,-89,-26V52L363,33V0Z" 
id="f2_8"
transform="scale(0.001,-0.001)" />

<path d="M64,0V34L168,59V639H47v36l121,29v49c0,0,0,155,61,239c0,0,62,84,173,84c0,0,58,0,107,-15V908H472l-33,92c0,0,-26,16,-62,16c0,0,-47,0,-66,-42c0,0,-19,-42,-19,-157V701H478V639H292V59L443,34V0Z" 
id="f2_x"
transform="scale(0.001,-0.001)" />

<path d="M434,423c0,0,0,101,-7,142c0,0,-6,40,-22,60c0,0,-16,19,-45,19c0,0,-44,0,-66,-48c0,0,-22,-49,-22,-173ZM389,-14c0,0,-172,0,-254,89c0,0,-83,90,-83,279c0,0,0,184,79,274c0,0,79,91,238,91c0,0,142,0,206,-76c0,0,64,-76,64,-237V345H271V333c0,0,0,-111,18,-158c0,0,18,-47,58,-72c0,0,40,-25,110,-25c0,0,66,0,166,22V42C623,42,582,18,517,1c0,0,-66,-15,-128,-15Z" 
id="f3_j"
transform="scale(0.001,-0.001)" />

<path d="M32,0V33L151,52V649L52,668v33H275V52L395,33V0ZM201,850c0,0,-32,0,-56,24c0,0,-24,24,-24,56c0,0,0,34,24,58c0,0,24,24,56,24c0,0,34,0,58,-24c0,0,24,-24,24,-58c0,0,0,-32,-24,-56c0,0,-24,-24,-58,-24Z" 
id="f2_3"
transform="scale(0.001,-0.001)" />

<path d="M139,-317V836H278V-317Z" 
id="f0_3"
transform="scale(0.001,-0.001)" />

<path d="M156,-317V454l139,56V-317ZM505,0L806,729H139V835H967V753L650,0Z" 
id="f0_j"
transform="scale(0.001,-0.001)" />

<path d="M55,0V40L184,60V941L55,960v40H455V960L327,941V60L455,40V0Z" 
id="f2_a"
transform="scale(0.001,-0.001)" />

<path d="M448,506c0,0,134,0,190,49c0,0,57,50,57,168c0,0,0,114,-56,162c0,0,-56,48,-195,48H316V506ZM777,0L496,438H316V60L468,40V0H54V40L172,60V941L44,960v40H476c0,0,188,0,277,-63c0,0,90,-64,90,-204c0,0,0,-100,-54,-173c0,0,-55,-73,-151,-101L909,60L1017,40V0Z" 
id="f2_b"
transform="scale(0.001,-0.001)" />

<path d="M44,0V40L172,60V941L44,960v40H794V760H745L721,922c0,0,-83,11,-241,11H316V543H586l23,119h48V354H609L586,475H316V67H513c0,0,193,0,252,12l43,185h49L843,0Z" 
id="f2_c"
transform="scale(0.001,-0.001)" />

<path d="M681,416L504,902L333,416ZM669,0V40L803,60L704,348H310L210,60L344,40V0H15V40L128,60l341,949H611L965,60L1092,40V0Z" 
id="f2_d"
transform="scale(0.001,-0.001)" />

<path d="M383,64c0,0,85,0,152,28V645c0,0,-67,13,-152,13c0,0,-194,0,-194,-314c0,0,0,-141,48,-211c0,0,48,-69,146,-69ZM342,-14c0,0,-287,0,-287,358c0,0,0,184,82,280c0,0,81,96,239,96c0,0,81,0,163,-18c0,0,-4,25,-4,124v182l-118,18v34H659V52L745,33V0H548l-9,52c0,0,-84,-66,-197,-66Z" 
id="f2_p"
transform="scale(0.001,-0.001)" />

<path d="M399,-14c0,0,-341,0,-341,370c0,0,0,175,87,269c0,0,87,95,249,95c0,0,101,0,220,-23V501H573L541,625c0,0,-62,35,-149,35c0,0,-200,0,-200,-304c0,0,0,-158,61,-225c0,0,61,-67,189,-67c0,0,109,0,189,24V43C631,43,595,16,530,1c0,0,-64,-15,-131,-15Z" 
id="f2_y"
transform="scale(0.001,-0.001)" />

<path d="M284,67c0,0,51,0,88,12c0,0,37,12,74,30V358l-98,-3c0,0,-100,-4,-135,-39c0,0,-35,-35,-35,-117c0,0,0,-132,106,-132ZM233,-14c0,0,-179,0,-179,208c0,0,0,70,27,116c0,0,27,46,87,70c0,0,60,24,173,27l105,3V519c0,0,0,72,-26,107c0,0,-27,34,-82,34c0,0,-75,0,-137,-35L176,538H134V691c0,0,121,26,213,26c0,0,115,0,169,-47c0,0,54,-47,54,-144V52L657,33V0H465L451,70c0,0,-85,-84,-218,-84Z" 
id="f2_7"
transform="scale(0.001,-0.001)" />

<path d="M148,-329c0,0,-58,0,-114,13v151H69l24,-71c0,0,23,-17,64,-17c0,0,39,0,72,22c0,0,33,23,60,67c0,0,27,44,68,157L90,649L19,668v33H344V668L233,648L423,158L606,649L497,668v33H758V668L685,652L411,-43c0,0,-48,-124,-84,-177c0,0,-36,-54,-79,-82c0,0,-44,-27,-100,-27Z" 
id="f2_i"
transform="scale(0.001,-0.001)" />

<path d="M377,45c0,0,99,0,147,73c0,0,47,73,47,237c0,0,0,161,-47,233c0,0,-47,72,-147,72c0,0,-97,0,-141,-69c0,0,-44,-69,-44,-236c0,0,0,-169,45,-240c0,0,44,-70,140,-70Zm0,-59c0,0,-158,0,-238,94c0,0,-81,95,-81,274c0,0,0,178,81,272c0,0,80,94,244,94c0,0,160,0,241,-92c0,0,82,-92,82,-274c0,0,0,-368,-329,-368Z" 
id="f2_9"
transform="scale(0.001,-0.001)" />

<path d="M278,-14c0,0,-52,0,-115,11c0,0,-63,10,-99,23V193H98L134,95c0,0,56,-50,146,-50c0,0,144,0,144,123c0,0,0,91,-114,130l-66,21c0,0,-75,25,-110,50c0,0,-34,26,-53,63c0,0,-18,36,-18,89c0,0,0,92,63,145c0,0,63,54,170,54c0,0,77,0,193,-23V544H454l-32,81c0,0,-39,35,-124,35c0,0,-61,0,-92,-30c0,0,-32,-30,-32,-80c0,0,0,-43,29,-72c0,0,28,-29,86,-48c0,0,110,-38,144,-55c0,0,33,-17,57,-42c0,0,23,-25,36,-57c0,0,13,-32,13,-79c0,0,0,-104,-66,-158c0,0,-66,-53,-195,-53Z" 
id="f2_6"
transform="scale(0.001,-0.001)" />

<path d="M249,-14c0,0,-71,0,-107,42c0,0,-35,42,-35,119V639H15v33l93,29l76,159h47V701H391V639H231V161c0,0,0,-48,22,-73c0,0,22,-24,57,-24c0,0,44,0,106,12V26C416,26,389,8,340,-2c0,0,-49,-12,-91,-12Z" 
id="f2_e"
transform="scale(0.001,-0.001)" />

<path d="M289,-14c0,0,-179,0,-179,205V649L20,668v33H233V200c0,0,0,-128,120,-128c0,0,92,0,173,23V649L420,668v33H649V52L738,34V0H533l-6,57C527,57,474,28,405,6c0,0,-69,-20,-116,-20Zm24,849v24l147,203H618v-27L354,835Z" 
id="f2_j"
transform="scale(0.001,-0.001)" />

<path d="M495,413c0,0,0,133,-34,190c0,0,-34,57,-105,57c0,0,-78,0,-119,-62c0,0,-42,-63,-42,-185ZM374,-14c0,0,-163,0,-239,87c0,0,-75,88,-75,283c0,0,0,183,77,274c0,0,76,90,219,90c0,0,269,0,269,-306V353H194V339c0,0,0,-103,23,-160c0,0,22,-57,70,-86c0,0,47,-30,124,-30c0,0,40,0,96,6c0,0,55,7,91,15V43C598,43,562,19,500,2c0,0,-61,-16,-126,-16ZM285,835v24l146,203H590v-27L326,835Z" 
id="f2_l"
transform="scale(0.001,-0.001)" />

<path d="M31,0V33L150,52v956L31,1026v34H274V52L394,33V0Z" 
id="f2_m"
transform="scale(0.001,-0.001)" />

<path d="M0,-14L351,1007h73L75,-14Z" 
id="f2_n"
transform="scale(0.001,-0.001)" />

<path d="M557,-14c0,0,-199,0,-298,89c0,0,-99,90,-99,255V941L32,960v40H432V960L304,941V341c0,0,0,-273,264,-273c0,0,144,0,220,68c0,0,77,68,77,202V941L730,960v40h341V960L943,941V344c0,0,0,-180,-99,-269c0,0,-99,-89,-287,-89Z" 
id="f2_o"
transform="scale(0.001,-0.001)" />

<path d="M191,-20c0,0,-39,0,-65,25c0,0,-25,27,-25,64c0,0,0,38,26,64c0,0,26,26,64,26c0,0,38,0,64,-26c0,0,26,-26,26,-64c0,0,0,-37,-25,-64c0,0,-26,-25,-65,-25Z" 
id="f2_q"
transform="scale(0.001,-0.001)" />

<path d="M439,0V33l93,19V500c0,0,0,62,-30,97c0,0,-31,36,-94,36c0,0,-67,0,-165,-22V52L338,33V0H35V33l84,19V649L35,668v33H235l7,-57c0,0,57,33,122,54c0,0,65,22,108,22c0,0,91,0,137,-53c0,0,47,-53,47,-154V52L741,33V0Z" 
id="f2_5"
transform="scale(0.001,-0.001)" />

<path d="M111,0V127c0,0,86,89,234,238c0,0,148,150,186,193c0,0,73,81,101,138c0,0,29,56,29,110c0,0,0,89,-62,145c0,0,-62,56,-162,56c0,0,-71,0,-150,-25c0,0,-78,-24,-168,-75v153c0,0,91,37,170,55c0,0,79,19,145,19c0,0,173,0,276,-86c0,0,103,-87,103,-232c0,0,0,-68,-26,-130c0,0,-26,-61,-94,-145c0,0,-18,-22,-118,-125C575,416,475,313,293,127H818V0Z" 
id="f0_15"
transform="scale(0.001,-0.001)" />

<path d="M445,-20c0,0,-86,0,-172,13c0,0,-86,13,-170,40V255c0,0,80,-40,160,-60c0,0,79,-21,156,-21c0,0,114,0,174,40c0,0,61,39,61,113c0,0,0,76,-62,115c0,0,-62,39,-184,39H293V666H414c0,0,108,0,161,34c0,0,53,34,53,103c0,0,0,65,-52,100c0,0,-51,35,-145,35c0,0,-69,0,-140,-16c0,0,-70,-15,-140,-46v210c0,0,85,24,168,36c0,0,83,12,164,12c0,0,217,0,325,-71c0,0,107,-71,107,-215c0,0,0,-98,-51,-160c0,0,-52,-62,-152,-88c0,0,112,-29,171,-101c0,0,59,-72,59,-183c0,0,0,-165,-127,-251c0,0,-127,-85,-370,-85Z" 
id="f1_o"
transform="scale(0.001,-0.001)" />

<path d="M543,-317V369c0,0,0,85,-8,143c0,0,-8,58,-27,101c0,0,-18,44,-51,69c0,0,-33,24,-80,36c0,0,-48,11,-117,11H66V836H257c0,0,125,0,205,-23c0,0,80,-23,130,-79c0,0,50,-56,70,-143c0,0,20,-86,20,-222V-317Z" 
id="f0_t"
transform="scale(0.001,-0.001)" />

<path d="M117,-176L179,62V190H336V62L213,-176Z" 
id="f0_2"
transform="scale(0.001,-0.001)" />

<path d="M147,700v414H274V700Zm282,0v414H556V700Z" 
id="f0_18"
transform="scale(0.001,-0.001)" />

<path d="M152,0V473c0,0,0,94,28,161c0,0,29,66,71,95H66V836H463V729H404c0,0,-65,0,-89,-57c0,0,-25,-58,-25,-199V0Z" 
id="f0_p"
transform="scale(0.001,-0.001)" />

<path d="M66,0V106H564L66,836H228L516,413c0,0,3,2,9,6c0,0,17,13,27,21c0,0,10,8,26,27c0,0,17,20,26,40c0,0,9,21,16,54c0,0,7,34,7,75V836H764V698c0,0,0,-55,-7,-102c0,0,-7,-47,-16,-79c0,0,-10,-33,-27,-62c0,0,-18,-29,-32,-46c0,0,-14,-17,-37,-35c0,0,-22,-17,-36,-25c0,0,-13,-8,-36,-20L767,53V0Z" 
id="f0_r"
transform="scale(0.001,-0.001)" />

<path d="M289,-14c0,0,-179,0,-179,205V649L20,668v33H233V200c0,0,0,-128,120,-128c0,0,92,0,173,23V649L420,668v33H649V52L738,33V0H533l-6,57C527,57,474,28,405,7c0,0,-69,-21,-116,-21Z" 
id="f2_g"
transform="scale(0.001,-0.001)" />

<path d="M359,-270c0,0,124,0,192,46c0,0,67,47,67,129c0,0,0,43,-26,67c0,0,-26,24,-79,24H242c0,0,-32,-27,-51,-69c0,0,-20,-41,-20,-77c0,0,0,-64,46,-92c0,0,46,-28,142,-28Zm11,561c0,0,81,0,115,47c0,0,34,47,34,141c0,0,0,100,-35,142c0,0,-35,42,-113,42c0,0,-78,0,-114,-43c0,0,-37,-42,-37,-141c0,0,0,-98,36,-143c0,0,36,-45,114,-45ZM359,-329c0,0,-143,0,-218,44c0,0,-75,43,-75,125c0,0,0,39,27,78c0,0,26,38,98,89c0,0,-43,14,-72,48c0,0,-29,35,-29,74L208,262c0,0,-118,55,-118,217c0,0,0,115,73,178c0,0,73,63,211,63c0,0,28,0,71,-6c0,0,44,-6,67,-13l165,83l26,-32L599,644c0,0,50,-56,50,-165c0,0,0,-120,-72,-182c0,0,-73,-62,-208,-62c0,0,-62,0,-114,11L208,148c0,0,2,-13,29,-24c0,0,27,-12,67,-12H512c0,0,113,0,168,-49c0,0,55,-49,55,-134c0,0,0,-79,-44,-137c0,0,-43,-58,-128,-90c0,0,-84,-31,-204,-31Z" 
id="f2_z"
transform="scale(0.001,-0.001)" />

<path d="M414,-20c0,0,-70,0,-144,13c0,0,-75,13,-154,40V179c0,0,63,-36,138,-55c0,0,74,-18,156,-18c0,0,142,0,216,55c0,0,74,56,74,163c0,0,0,98,-69,153c0,0,-69,56,-192,56H309V657H445c0,0,111,0,170,44c0,0,59,45,59,128c0,0,0,86,-61,132c0,0,-61,46,-174,46c0,0,-62,0,-133,-13c0,0,-71,-14,-156,-42v134c0,0,85,24,160,36c0,0,75,12,142,12c0,0,171,0,271,-78c0,0,100,-78,100,-211c0,0,0,-92,-53,-156c0,0,-52,-64,-150,-89c0,0,108,-23,169,-96c0,0,61,-73,61,-180c0,0,0,-165,-114,-255c0,0,-113,-89,-322,-89Z" 
id="f0_16"
transform="scale(0.001,-0.001)" />

<path d="M122,-200c0,0,99,170,148,338c0,0,49,169,49,342c0,0,0,172,-49,340c0,0,-49,168,-148,340H241c0,0,112,-176,168,-345c0,0,55,-169,55,-335c0,0,0,-167,-55,-337c0,0,-56,-168,-168,-343Z" 
id="f0_w"
transform="scale(0.001,-0.001)" />

<path d="M354,-200c0,0,-112,175,-167,343c0,0,-56,170,-56,337c0,0,0,166,55,335c0,0,55,169,168,345H473c0,0,-100,-172,-148,-340c0,0,-48,-168,-48,-340c0,0,0,-173,48,-342c0,0,49,-168,148,-338Z" 
id="f0_v"
transform="scale(0.001,-0.001)" />

<path d="M431,0V33L535,52V499c0,0,0,62,-32,96c0,0,-32,33,-95,33c0,0,-66,0,-163,-22V52L350,33V0H32V33l89,19V649L32,668v33H237l6,-57c0,0,56,32,119,54c0,0,62,22,110,22c0,0,52,0,95,-20c0,0,44,-19,66,-62c0,0,57,32,134,57c0,0,77,25,128,25c0,0,179,0,179,-207V52l90,-19V0H846V33L950,52V499c0,0,0,129,-119,129c0,0,-19,0,-45,-3c0,0,-26,-3,-52,-7c0,0,-25,-4,-49,-8c0,0,-23,-5,-39,-8c0,0,13,-41,13,-89V52L764,33V0Z" 
id="f2_r"
transform="scale(0.001,-0.001)" />

<path d="M41,0V34L426,641H261c0,0,-42,0,-80,-7c0,0,-39,-7,-54,-19L104,515H69V701H586V665L201,60H407c0,0,42,0,89,10c0,0,47,10,66,25l39,147h35L617,0Z" 
id="f2_10"
transform="scale(0.001,-0.001)" />

<path d="M360,-14L72,649L0,668v33H327V668L216,648L420,164L615,649L504,668v33H764V668L697,652L416,-14Z" 
id="f2_v"
transform="scale(0.001,-0.001)" />

<path d="M442,0V33l93,19V504c0,0,0,129,-124,129c0,0,-70,0,-168,-22V52L338,33V0H31V33l88,19v956L15,1026v34H243V756c0,0,0,-77,-5,-112c0,0,54,31,122,53c0,0,68,23,115,23c0,0,91,0,137,-53c0,0,47,-53,47,-154V52L744,33V0Z" 
id="f2_11"
transform="scale(0.001,-0.001)" />

<path d="M347,-317V284c0,0,0,59,-21,123c0,0,-21,64,-44,103c0,0,-23,40,-59,94L66,838H218L336,668c0,0,76,-109,120,-223c0,0,87,34,126,107c0,0,39,73,39,186v98H758V737c0,0,0,-82,-23,-152c0,0,-23,-69,-61,-116c0,0,-39,-47,-87,-78c0,0,-47,-31,-101,-45V-317Z" 
id="f0_19"
transform="scale(0.001,-0.001)" />

<path d="M41,0V49l69,18V634L41,652v49H313l11,-61l50,26c0,0,105,54,188,54c0,0,125,0,167,-91c0,0,153,91,258,91c0,0,189,0,189,-207V67l71,-17V0H898V50l63,17V484c0,0,0,63,-24,98c0,0,-25,35,-74,35c0,0,-55,0,-119,-31c0,0,7,-32,7,-73V67L821,50V0H473V50l63,17V484c0,0,0,63,-25,98c0,0,-24,35,-73,35c0,0,-49,0,-113,-29V67L389,49V0Z" 
id="f3_q"
transform="scale(0.001,-0.001)" />

<path d="M287,-18c0,0,-194,0,-194,206V634L23,652v49H309V217c0,0,0,-63,26,-98c0,0,27,-35,76,-35c0,0,57,0,113,25V634l-64,18v49H740V67L809,49V0H536L526,61L475,35c0,0,-104,-53,-188,-53Z" 
id="f3_r"
transform="scale(0.001,-0.001)" />

<path d="M425,-14c0,0,-187,0,-280,90c0,0,-93,90,-93,276c0,0,0,115,42,198c0,0,43,82,121,126c0,0,78,44,182,44c0,0,104,0,227,-26V486H571L539,609c0,0,-25,19,-50,26c0,0,-24,7,-65,7c0,0,-44,0,-79,-35c0,0,-36,-35,-56,-98c0,0,-20,-64,-20,-153c0,0,0,-150,47,-214c0,0,47,-64,148,-64c0,0,103,0,176,21V42C640,42,606,15,547,0c0,0,-59,-14,-122,-14Z" 
id="f3_o"
transform="scale(0.001,-0.001)" />

<path d="M41,0V49l69,18V992l-72,18v50H325V756c0,0,0,-49,-4,-116l51,26c0,0,106,54,190,54c0,0,194,0,194,-207V67L827,49V0H478V49l63,18V484c0,0,0,63,-27,98c0,0,-26,35,-75,35c0,0,-57,0,-114,-25V67L389,49V0Z" 
id="f3_s"
transform="scale(0.001,-0.001)" />

<path d="M379,60c0,0,59,0,84,64c0,0,24,65,24,231c0,0,0,164,-24,227c0,0,-24,63,-84,63c0,0,-57,0,-80,-60c0,0,-22,-61,-22,-230c0,0,0,-173,23,-234c0,0,22,-61,79,-61Zm-2,-74c0,0,-161,0,-240,91c0,0,-79,91,-79,277c0,0,0,186,80,276c0,0,81,90,245,90c0,0,167,0,245,-93c0,0,78,-93,78,-273c0,0,0,-188,-81,-278c0,0,-81,-90,-248,-90Z" 
id="f3_t"
transform="scale(0.001,-0.001)" />

<path d="M721,-14c0,0,-12,0,-12,9l4,28c0,0,17,82,17,338c0,0,0,105,-11,163c0,0,-11,58,-35,84c0,0,-25,26,-83,26H315c0,0,-43,-39,-67,-90c0,0,-25,-51,-25,-104c0,0,0,-59,17,-104c0,0,17,-45,35,-78c0,0,18,-34,18,-44c0,0,0,-26,-20,-95C273,119,252,50,231,0H26L87,214h69c0,0,23,0,23,14l-7,15c0,0,-15,27,-27,68c0,0,-11,41,-11,83c0,0,0,68,25,124c0,0,25,57,86,116H200c0,0,-45,0,-71,32c0,0,-27,33,-27,94c0,0,0,49,17,93c0,0,16,43,32,43c0,0,17,0,17,-10V869c0,0,0,-24,27,-24H637c0,0,73,0,103,-18c0,0,30,-17,46,-62c0,0,17,-46,24,-124c0,0,8,-78,8,-214V338c0,0,0,-279,-27,-311c0,0,-14,-16,-37,-28c0,0,-23,-13,-33,-13Z" 
id="f3_e"
transform="scale(0.001,-0.001)" />

<path d="M102,-3c0,0,-26,0,-26,31c0,0,0,176,35,320c0,0,34,145,102,247c0,0,3,4,3,25c0,0,0,24,-19,37c0,0,-19,13,-79,15c0,0,-40,0,-61,35c0,0,-22,35,-22,95c0,0,0,39,14,67c0,0,14,29,32,29c0,0,20,0,20,-25c0,0,0,-28,32,-28h33c0,0,54,0,85,-25c0,0,30,-25,30,-68l-3,-52c0,0,0,-22,3,-31c0,0,76,71,104,109c0,0,29,37,36,75c0,0,55,7,82,7c0,0,154,0,239,-126c0,0,85,-127,85,-352c0,0,0,-99,-15,-200C812,182,798,81,774,0H335l42,214H652c0,0,25,0,37,5c0,0,11,4,21,18c0,0,10,14,17,36c0,0,7,22,12,56c0,0,5,34,5,64c0,0,0,247,-241,247c0,0,-337,0,-337,-609c0,0,0,-20,-5,-27c0,0,-6,-7,-22,-7Z" 
id="f3_u"
transform="scale(0.001,-0.001)" />

<path d="M204,-8c0,0,-9,0,-11,5c0,0,-2,5,-2,22V549c0,0,0,40,-4,56c0,0,-4,16,-15,22c0,0,-10,7,-39,7H90c0,0,-33,0,-52,33c0,0,-19,33,-19,90c0,0,0,53,15,98c0,0,16,44,35,44c0,0,12,0,12,-13V872c0,0,0,-27,31,-27h42c0,0,79,0,103,-20c0,0,23,-19,23,-83V67c0,0,0,-16,-8,-26c0,0,-9,-10,-33,-30c0,0,-25,-19,-35,-19Z" 
id="f3_5"
transform="scale(0.001,-0.001)" />

<path d="M38,0L93,212H220c0,0,4,8,7,28c0,0,4,20,4,39c0,0,0,29,-13,61c0,0,-13,31,-29,65c0,0,-15,34,-28,72c0,0,-13,38,-13,81c0,0,0,29,10,54c0,0,9,25,30,60c0,0,-48,0,-68,11c0,0,-19,11,-30,36c0,0,-11,25,-11,71c0,0,0,30,9,54c0,0,8,25,22,40c0,0,14,15,24,15c0,0,17,0,17,-12V875c0,0,0,-30,41,-30h53c0,0,44,0,61,-10c0,0,17,-10,26,-34c0,0,9,-23,9,-67c0,0,0,-38,-6,-57c0,0,-6,-20,-13,-20c0,0,-6,0,-13,4c0,0,-3,4,-17,7c0,0,-14,2,-26,2c0,0,-34,0,-34,-45c0,0,0,-12,9,-34c0,0,8,-22,55,-116c0,0,46,-86,46,-143c0,0,0,-15,-8,-35c0,0,-9,-20,-50,-85H598c0,0,17,0,17,12c0,0,0,19,-6,53c0,0,-5,34,-5,74c0,0,0,80,58,228c0,0,18,46,18,56c0,0,0,15,-12,26c0,0,-12,11,-38,11H602c0,0,-43,0,-62,25c0,0,-19,25,-19,78c0,0,0,47,14,86c0,0,15,38,33,38c0,0,15,0,15,-15V867c0,0,0,-22,31,-22h55c0,0,51,0,78,-20c0,0,27,-20,27,-57c0,0,0,-46,-28,-147c0,0,-40,-145,-40,-253c0,0,0,-33,6,-63c0,0,6,-30,14,-54c0,0,8,-24,14,-42c0,0,7,-19,7,-30c0,0,0,-39,-14,-88C733,91,720,42,701,0Z" 
id="f3_v"
transform="scale(0.001,-0.001)" />

<path d="M235,-20c0,0,-31,0,-51,19c0,0,-21,18,-21,50c0,0,0,65,39,120c0,0,39,54,125,109c0,0,56,35,87,56c0,0,32,20,46,33c0,0,79,45,79,143c0,0,0,27,-7,65c0,0,-8,39,-27,49c0,0,-19,10,-85,10H110c0,0,-36,0,-53,21c0,0,-17,22,-25,71c0,0,-7,49,-7,134c0,0,0,62,27,122c0,0,8,15,8,34c0,0,0,23,-35,37c0,0,-21,7,-30,29c0,0,-9,22,-9,72c0,0,0,24,10,46c0,0,8,22,25,38c0,0,16,16,26,16c0,0,17,0,17,-14c0,0,0,-9,7,-17c0,0,7,-8,34,-14c0,0,65,-15,81,-26c0,0,15,-10,15,-31c0,0,0,-15,-15,-38c0,0,-15,-22,-33,-53c0,0,-19,-30,-34,-67c0,0,-15,-36,-15,-79c0,0,0,-43,14,-56c0,0,15,-14,54,-14H518c0,0,39,0,63,-17c0,0,23,-16,33,-53c0,0,10,-36,17,-89c0,0,6,-52,6,-93c0,0,0,-99,-9,-144c0,0,-9,-44,-40,-80c0,0,-31,-36,-110,-86c0,0,-112,-71,-138,-95c0,0,-26,-23,-36,-44c0,0,-9,-20,-9,-43c0,0,0,-11,5,-26c0,0,6,-15,6,-26c0,0,0,-32,-20,-50c0,0,-20,-19,-51,-19Z" 
id="f3_d"
transform="scale(0.001,-0.001)" />

<path d="M159,-329c0,0,-61,0,-123,14v180H81l32,-94c0,0,21,-17,55,-17c0,0,28,0,50,13c0,0,21,14,40,39c0,0,20,25,37,62c0,0,17,37,50,110L64,634L15,652v49H374V652L290,632L455,244L602,634l-82,18v49H749V652L698,637L421,-44c0,0,-47,-121,-83,-176c0,0,-36,-55,-80,-82c0,0,-43,-27,-99,-27Z" 
id="f3_w"
transform="scale(0.001,-0.001)" />

<path d="M153,0V437L399,539V0ZM664,0V450c0,0,0,122,-31,165c0,0,-31,43,-121,43H138V836H511c0,0,113,0,188,-22c0,0,75,-23,123,-73c0,0,47,-51,68,-127c0,0,20,-76,20,-189V0Z" 
id="f1_p"
transform="scale(0.001,-0.001)" />

<path d="M66,0V178H507V449c0,0,0,43,-2,71c0,0,-3,28,-12,56c0,0,-9,28,-26,45c0,0,-17,16,-47,27c0,0,-29,10,-72,10H66V836H349c0,0,97,0,167,-17c0,0,71,-17,117,-49c0,0,46,-32,73,-84c0,0,27,-52,38,-114c0,0,11,-62,11,-147V178H866V0Z" 
id="f1_c"
transform="scale(0.001,-0.001)" />

<path d="M453,0V658H66V836H833V658H700V0Z" 
id="f1_l"
transform="scale(0.001,-0.001)" />

<path d="M159,0V165c0,0,0,69,13,124c0,0,12,55,29,89c0,0,17,33,45,62c0,0,29,28,50,42c0,0,22,14,54,30L128,836H405L666,460c0,0,41,48,41,155V836H952V671c0,0,0,-50,-6,-93c0,0,-6,-42,-16,-73c0,0,-10,-30,-26,-57c0,0,-17,-27,-31,-44c0,0,-15,-17,-37,-33c0,0,-22,-16,-38,-25c0,0,-15,-9,-38,-21L984,0H706L445,376c0,0,-41,-48,-41,-155V0Z" 
id="f1_i"
transform="scale(0.001,-0.001)" />

<path d="M129,0l69,362c0,0,10,56,12,100c0,0,0,84,-27,159c0,0,-27,76,-117,215H322c0,0,9,-6,31,-79c0,0,23,-72,23,-105c0,0,23,82,100,138c0,0,77,57,160,57c0,0,332,0,332,-397V0H538V177H721V449c0,0,0,124,-20,170c0,0,-20,47,-82,47c0,0,-23,0,-43,-9c0,0,-19,-10,-34,-23c0,0,-14,-14,-27,-39c0,0,-13,-25,-22,-46c0,0,-8,-22,-17,-57c0,0,-9,-36,-15,-61c0,0,-5,-24,-13,-65L375,0Z" 
id="f1_j"
transform="scale(0.001,-0.001)" />

<path d="M0,-141L388,1114H514L127,-141Z" 
id="f0_11"
transform="scale(0.001,-0.001)" />

<path d="M284,67c0,0,51,0,88,12c0,0,37,11,74,29V357l-98,-3c0,0,-100,-3,-135,-38c0,0,-35,-36,-35,-118c0,0,0,-131,106,-131ZM233,-14c0,0,-179,0,-179,208c0,0,0,70,27,116c0,0,27,46,87,70c0,0,60,24,173,27l105,3V519c0,0,0,73,-26,107c0,0,-27,34,-82,34c0,0,-75,0,-137,-35L176,538H134V691c0,0,121,26,213,26c0,0,115,0,169,-47c0,0,54,-47,54,-144V52L657,34V0H465L451,70c0,0,-85,-84,-218,-84Zm22,849v24l146,203H560v-27L296,835Z" 
id="f2_u"
transform="scale(0.001,-0.001)" />


</defs>
</svg>