<?xml version="1.0" encoding="UTF-8" standalone="no"?>
<!DOCTYPE svg PUBLIC "-//W3C//DTD SVG 1.1//EN"
"http://www.w3.org/Graphics/SVG/1.1/DTD/svg11.dtd">
<svg viewBox="0 0 909 1286" version="1.1" xmlns="http://www.w3.org/2000/svg" xmlns:xlink="http://www.w3.org/1999/xlink">
<defs>
<clipPath id="c0_11"><path d="M0,1286.2V0H909.4V1286.2Z" /></clipPath>
<style type="text/css"><![CDATA[
.g0_11{
fill: none;
stroke: #000000;
stroke-width: 0.7638889;
stroke-linecap: butt;
stroke-linejoin: round;
}
.g1_11{
fill: none;
stroke: #0000FF;
stroke-width: 1.0694444;
stroke-linecap: butt;
stroke-linejoin: miter;
}
]]></style>
</defs>
<g clip-path="url(#c0_11)">
<g fill="#000000" >
<use xlink:href="#f0_c" transform="matrix(12,0,0,12,723.8,127.1)" />
<use xlink:href="#f0_9" transform="matrix(12,0,0,12,735,127.1)" />
<use xlink:href="#f0_k" transform="matrix(12,0,0,12,740.3,127.1)" />
<use xlink:href="#f0_4" transform="matrix(12,0,0,12,748.6,127.1)" />
<use xlink:href="#f0_7" transform="matrix(12,0,0,12,759.6,127.1)" />
<use xlink:href="#f0_6" transform="matrix(12,0,0,12,704.6,127.1)" />
</g>
</g>
<path d="M128.6,150.3H669.9M128.6,169.5H669.9M128.6,188.8H669.9M128.6,208H669.9M128.6,245.7H669.9M128.6,286.4H669.9M128.9,149.9V286.8M309.1,149.9V286.8M489.3,149.9V286.8M669.5,149.9V286.8" class="g0_11" />
<g clip-path="url(#c0_11)">
<g fill="#0000FF" >
<use xlink:href="#f1_13" transform="matrix(10.5,0,0,10.5,498.1,165.6)" />
<use xlink:href="#f1_15" transform="matrix(10.5,0,0,10.5,506.1,165.6)" />
<use xlink:href="#f1_9" transform="matrix(10.5,0,0,10.5,518.2,165.6)" />
<use xlink:href="#f1_b" transform="matrix(10.5,0,0,10.5,522.6,165.6)" />
<use xlink:href="#f1_a" transform="matrix(10.5,0,0,10.5,527.8,165.6)" />
<use xlink:href="#f1_4" transform="matrix(10.5,0,0,10.5,535,165.6)" />
<use xlink:href="#f1_8" transform="matrix(10.5,0,0,10.5,539.4,165.6)" />
<use xlink:href="#f1_9" transform="matrix(10.5,0,0,10.5,547.5,165.6)" />
<use xlink:href="#f1_2" transform="matrix(10.5,0,0,10.5,551.9,165.6)" />
<use xlink:href="#f1_z" transform="matrix(10.5,0,0,10.5,563.1,165.6)" />
<use xlink:href="#f1_l" transform="matrix(10.5,0,0,10.5,575.1,165.6)" />
<use xlink:href="#f1_4" transform="matrix(10.5,0,0,10.5,582.1,165.6)" />
<use xlink:href="#f1_8" transform="matrix(10.5,0,0,10.5,586.6,165.6)" />
<use xlink:href="#f1_l" transform="matrix(10.5,0,0,10.5,594.7,165.6)" />
<use xlink:href="#f1_i" transform="matrix(10.5,0,0,10.5,601.7,165.6)" />
</g>
<g fill="#000000" >
<use xlink:href="#f1_11" transform="matrix(10.5,0,0,10.5,317.9,165.6)" />
<use xlink:href="#f1_15" transform="matrix(10.5,0,0,10.5,325.9,165.6)" />
<use xlink:href="#f1_16" transform="matrix(10.5,0,0,10.5,337.9,165.6)" />
<use xlink:href="#f1_k" transform="matrix(10.5,0,0,10.5,346,165.6)" />
<use xlink:href="#f1_4" transform="matrix(10.5,0,0,10.5,354,165.6)" />
<use xlink:href="#f1_8" transform="matrix(10.5,0,0,10.5,358.4,165.6)" />
<use xlink:href="#f1_l" transform="matrix(10.5,0,0,10.5,366.3,165.6)" />
<use xlink:href="#f1_a" transform="matrix(10.5,0,0,10.5,373.5,165.6)" />
<use xlink:href="#f1_11" transform="matrix(10.5,0,0,10.5,137.7,165.6)" />
<use xlink:href="#f1_10" transform="matrix(10.5,0,0,10.5,145.7,165.6)" />
<use xlink:href="#f1_10" transform="matrix(10.5,0,0,10.5,153.7,165.6)" />
<use xlink:href="#f1_l" transform="matrix(10.5,0,0,10.5,165.7,165.6)" />
<use xlink:href="#f1_4" transform="matrix(10.5,0,0,10.5,172.9,165.6)" />
<use xlink:href="#f1_a" transform="matrix(10.5,0,0,10.5,177.2,165.6)" />
<use xlink:href="#f1_8" transform="matrix(10.5,0,0,10.5,184.4,165.6)" />
</g>
<g fill="#0000FF" >
<use xlink:href="#f1_14" transform="matrix(10.5,0,0,10.5,498.1,184.9)" />
<use xlink:href="#f1_19" transform="matrix(10.5,0,0,10.5,506.1,184.9)" />
<use xlink:href="#f1_l" transform="matrix(10.5,0,0,10.5,518.2,184.9)" />
<use xlink:href="#f1_k" transform="matrix(10.5,0,0,10.5,525.2,184.9)" />
<use xlink:href="#f1_2" transform="matrix(10.5,0,0,10.5,533.3,184.9)" />
<use xlink:href="#f1_b" transform="matrix(10.5,0,0,10.5,540.3,184.9)" />
<use xlink:href="#f1_a" transform="matrix(10.5,0,0,10.5,545.7,184.9)" />
<use xlink:href="#f1_8" transform="matrix(10.5,0,0,10.5,552.7,184.9)" />
<use xlink:href="#f1_9" transform="matrix(10.5,0,0,10.5,560.8,184.9)" />
<use xlink:href="#f1_2" transform="matrix(10.5,0,0,10.5,565.2,184.9)" />
<use xlink:href="#f1_z" transform="matrix(10.5,0,0,10.5,576.4,184.9)" />
<use xlink:href="#f1_i" transform="matrix(10.5,0,0,10.5,588.4,184.9)" />
<use xlink:href="#f1_l" transform="matrix(10.5,0,0,10.5,596.5,184.9)" />
<use xlink:href="#f1_o" transform="matrix(10.5,0,0,10.5,603.5,184.9)" />
<use xlink:href="#f1_i" transform="matrix(10.5,0,0,10.5,611.6,184.9)" />
</g>
<g fill="#000000" >
<use xlink:href="#f1_15" transform="matrix(10.5,0,0,10.5,317.9,184.9)" />
<use xlink:href="#f1_10" transform="matrix(10.5,0,0,10.5,325.9,184.9)" />
<use xlink:href="#f1_l" transform="matrix(10.5,0,0,10.5,337.9,184.9)" />
<use xlink:href="#f1_4" transform="matrix(10.5,0,0,10.5,345.1,184.9)" />
<use xlink:href="#f1_8" transform="matrix(10.5,0,0,10.5,349.4,184.9)" />
<use xlink:href="#f1_l" transform="matrix(10.5,0,0,10.5,357.5,184.9)" />
<use xlink:href="#f1_k" transform="matrix(10.5,0,0,10.5,364.5,184.9)" />
<use xlink:href="#f1_a" transform="matrix(10.5,0,0,10.5,372.6,184.9)" />
<use xlink:href="#f1_8" transform="matrix(10.5,0,0,10.5,379.6,184.9)" />
<use xlink:href="#f1_9" transform="matrix(10.5,0,0,10.5,387.7,184.9)" />
<use xlink:href="#f1_2" transform="matrix(10.5,0,0,10.5,392.1,184.9)" />
<use xlink:href="#f1_11" transform="matrix(10.5,0,0,10.5,137.7,184.9)" />
<use xlink:href="#f1_17" transform="matrix(10.5,0,0,10.5,145.7,184.9)" />
<use xlink:href="#f1_12" transform="matrix(10.5,0,0,10.5,153.7,184.9)" />
<use xlink:href="#f1_l" transform="matrix(10.5,0,0,10.5,165.7,184.9)" />
<use xlink:href="#f1_4" transform="matrix(10.5,0,0,10.5,172.9,184.9)" />
<use xlink:href="#f1_a" transform="matrix(10.5,0,0,10.5,177.2,184.9)" />
<use xlink:href="#f1_8" transform="matrix(10.5,0,0,10.5,184.4,184.9)" />
<use xlink:href="#f1_9" transform="matrix(10.5,0,0,10.5,192.5,184.9)" />
<use xlink:href="#f1_i" transform="matrix(10.5,0,0,10.5,196.9,184.9)" />
<use xlink:href="#f1_d" transform="matrix(10.5,0,0,10.5,208.9,184.9)" />
<use xlink:href="#f1_a" transform="matrix(10.5,0,0,10.5,215.1,184.9)" />
<use xlink:href="#f1_d" transform="matrix(10.5,0,0,10.5,222.2,184.9)" />
<use xlink:href="#f1_a" transform="matrix(10.5,0,0,10.5,228.5,184.9)" />
<use xlink:href="#f1_8" transform="matrix(10.5,0,0,10.5,235.5,184.9)" />
<use xlink:href="#f1_9" transform="matrix(10.5,0,0,10.5,243.6,184.9)" />
<use xlink:href="#f1_2" transform="matrix(10.5,0,0,10.5,248,184.9)" />
<use xlink:href="#f1_z" transform="matrix(10.5,0,0,10.5,259.2,184.9)" />
<use xlink:href="#f1_n" transform="matrix(10.5,0,0,10.5,271.2,184.9)" />
<use xlink:href="#f1_i" transform="matrix(10.5,0,0,10.5,279.2,184.9)" />
<use xlink:href="#f1_d" transform="matrix(10.5,0,0,10.5,287.2,184.9)" />
</g>
<g fill="#0000FF" >
<use xlink:href="#f1_18" transform="matrix(10.5,0,0,10.5,498.1,204.1)" />
<use xlink:href="#f1_13" transform="matrix(10.5,0,0,10.5,506.1,204.1)" />
<use xlink:href="#f1_d" transform="matrix(10.5,0,0,10.5,518.2,204.1)" />
<use xlink:href="#f1_a" transform="matrix(10.5,0,0,10.5,524.3,204.1)" />
<use xlink:href="#f1_9" transform="matrix(10.5,0,0,10.5,531.5,204.1)" />
<use xlink:href="#f1_a" transform="matrix(10.5,0,0,10.5,535.9,204.1)" />
<use xlink:href="#f1_8" transform="matrix(10.5,0,0,10.5,542.9,204.1)" />
<use xlink:href="#f1_9" transform="matrix(10.5,0,0,10.5,551,204.1)" />
<use xlink:href="#f1_2" transform="matrix(10.5,0,0,10.5,555.4,204.1)" />
<use xlink:href="#f1_z" transform="matrix(10.5,0,0,10.5,566.6,204.1)" />
<use xlink:href="#f1_9" transform="matrix(10.5,0,0,10.5,578.6,204.1)" />
<use xlink:href="#f1_b" transform="matrix(10.5,0,0,10.5,583.1,204.1)" />
<use xlink:href="#f1_a" transform="matrix(10.5,0,0,10.5,588.4,204.1)" />
<use xlink:href="#f1_d" transform="matrix(10.5,0,0,10.5,595.6,204.1)" />
<use xlink:href="#f1_1a" transform="matrix(10.5,0,0,10.5,317.9,204.1)" />
<use xlink:href="#f1_11" transform="matrix(10.5,0,0,10.5,325.9,204.1)" />
<use xlink:href="#f1_8" transform="matrix(10.5,0,0,10.5,337.9,204.1)" />
<use xlink:href="#f1_i" transform="matrix(10.5,0,0,10.5,346,204.1)" />
<use xlink:href="#f1_3" transform="matrix(10.5,0,0,10.5,354,204.1)" />
<use xlink:href="#f1_a" transform="matrix(10.5,0,0,10.5,362,204.1)" />
<use xlink:href="#f1_8" transform="matrix(10.5,0,0,10.5,369.1,204.1)" />
<use xlink:href="#f1_9" transform="matrix(10.5,0,0,10.5,377.2,204.1)" />
<use xlink:href="#f1_2" transform="matrix(10.5,0,0,10.5,381.4,204.1)" />
<use xlink:href="#f1_z" transform="matrix(10.5,0,0,10.5,392.7,204.1)" />
<use xlink:href="#f1_k" transform="matrix(10.5,0,0,10.5,404.6,204.1)" />
<use xlink:href="#f1_8" transform="matrix(10.5,0,0,10.5,412.7,204.1)" />
<use xlink:href="#f1_i" transform="matrix(10.5,0,0,10.5,420.7,204.1)" />
</g>
<g fill="#000000" >
<use xlink:href="#f1_12" transform="matrix(10.5,0,0,10.5,137.7,204.1)" />
<use xlink:href="#f1_11" transform="matrix(10.5,0,0,10.5,145.7,204.1)" />
<use xlink:href="#f1_3" transform="matrix(10.5,0,0,10.5,157.8,204.1)" />
<use xlink:href="#f1_a" transform="matrix(10.5,0,0,10.5,165.7,204.1)" />
<use xlink:href="#f1_4" transform="matrix(10.5,0,0,10.5,172.9,204.1)" />
<use xlink:href="#f1_8" transform="matrix(10.5,0,0,10.5,177.2,204.1)" />
<use xlink:href="#f1_9" transform="matrix(10.5,0,0,10.5,185.3,204.1)" />
<use xlink:href="#f1_4" transform="matrix(10.5,0,0,10.5,189.7,204.1)" />
<use xlink:href="#f1_k" transform="matrix(10.5,0,0,10.5,194.1,204.1)" />
<use xlink:href="#f1_8" transform="matrix(10.5,0,0,10.5,202.2,204.1)" />
<use xlink:href="#f1_i" transform="matrix(10.5,0,0,10.5,210.1,204.1)" />
<use xlink:href="#f1_15" transform="matrix(10.5,0,0,10.5,498.1,223.4)" />
<use xlink:href="#f1_10" transform="matrix(10.5,0,0,10.5,506.1,223.4)" />
<use xlink:href="#f1_10" transform="matrix(10.5,0,0,10.5,514.1,223.4)" />
<use xlink:href="#f1_16" transform="matrix(10.5,0,0,10.5,526.1,223.4)" />
<use xlink:href="#f1_k" transform="matrix(10.5,0,0,10.5,534.2,223.4)" />
<use xlink:href="#f1_4" transform="matrix(10.5,0,0,10.5,542.2,223.4)" />
<use xlink:href="#f1_8" transform="matrix(10.5,0,0,10.5,546.6,223.4)" />
<use xlink:href="#f1_4" transform="matrix(10.5,0,0,10.5,554.7,223.4)" />
<use xlink:href="#f1_a" transform="matrix(10.5,0,0,10.5,559,223.4)" />
<use xlink:href="#f1_8" transform="matrix(10.5,0,0,10.5,566.1,223.4)" />
<use xlink:href="#f1_9" transform="matrix(10.5,0,0,10.5,574.2,223.4)" />
<use xlink:href="#f1_i" transform="matrix(10.5,0,0,10.5,578.6,223.4)" />
<use xlink:href="#f1_d" transform="matrix(10.5,0,0,10.5,586.6,223.4)" />
<use xlink:href="#f1_12" transform="matrix(10.5,0,0,10.5,317.9,223.4)" />
<use xlink:href="#f1_11" transform="matrix(10.5,0,0,10.5,325.9,223.4)" />
<use xlink:href="#f1_19" transform="matrix(10.5,0,0,10.5,334,223.4)" />
<use xlink:href="#f1_19" transform="matrix(10.5,0,0,10.5,341.9,223.4)" />
<use xlink:href="#f1_n" transform="matrix(10.5,0,0,10.5,366.2,223.4)" />
<use xlink:href="#f1_i" transform="matrix(10.5,0,0,10.5,374.1,223.4)" />
<use xlink:href="#f1_d" transform="matrix(10.5,0,0,10.5,382.2,223.4)" />
<use xlink:href="#f1_m" transform="matrix(10.5,0,0,10.5,404.5,223.4)" />
<use xlink:href="#f1_4" transform="matrix(10.5,0,0,10.5,417,223.4)" />
<use xlink:href="#f1_e" transform="matrix(10.5,0,0,10.5,421.4,223.4)" />
<use xlink:href="#f1_l" transform="matrix(10.5,0,0,10.5,442,223.4)" />
<use xlink:href="#f1_4" transform="matrix(10.5,0,0,10.5,449.2,223.4)" />
<use xlink:href="#f1_a" transform="matrix(10.5,0,0,10.5,453.5,223.4)" />
<use xlink:href="#f1_8" transform="matrix(10.5,0,0,10.5,460.6,223.4)" />
<use xlink:href="#f1_9" transform="matrix(10.5,0,0,10.5,468.7,223.4)" />
<use xlink:href="#f1_i" transform="matrix(10.5,0,0,10.5,473,223.4)" />
<use xlink:href="#f1_i" transform="matrix(10.5,0,0,10.5,317.9,241.8)" />
<use xlink:href="#f1_l" transform="matrix(10.5,0,0,10.5,325.9,241.8)" />
<use xlink:href="#f1_o" transform="matrix(10.5,0,0,10.5,333,241.8)" />
<use xlink:href="#f1_a" transform="matrix(10.5,0,0,10.5,341,241.8)" />
<use xlink:href="#f1_8" transform="matrix(10.5,0,0,10.5,348.2,241.8)" />
<use xlink:href="#f1_9" transform="matrix(10.5,0,0,10.5,356.2,241.8)" />
<use xlink:href="#f1_2" transform="matrix(10.5,0,0,10.5,360.5,241.8)" />
<use xlink:href="#f1_z" transform="matrix(10.5,0,0,10.5,371.7,241.8)" />
<use xlink:href="#f1_i" transform="matrix(10.5,0,0,10.5,383.7,241.8)" />
<use xlink:href="#f1_l" transform="matrix(10.5,0,0,10.5,391.8,241.8)" />
<use xlink:href="#f1_o" transform="matrix(10.5,0,0,10.5,398.8,241.8)" />
<use xlink:href="#f1_i" transform="matrix(10.5,0,0,10.5,406.9,241.8)" />
<use xlink:href="#f1_11" transform="matrix(10.5,0,0,10.5,137.7,223.4)" />
<use xlink:href="#f1_j" transform="matrix(10.5,0,0,10.5,145.7,223.4)" />
<use xlink:href="#f1_15" transform="matrix(10.5,0,0,10.5,149.7,223.4)" />
<use xlink:href="#f1_10" transform="matrix(10.5,0,0,10.5,157.7,223.4)" />
<use xlink:href="#f1_10" transform="matrix(10.5,0,0,10.5,165.7,223.4)" />
<use xlink:href="#f1_m" transform="matrix(10.5,0,0,10.5,177.8,223.4)" />
<use xlink:href="#f1_4" transform="matrix(10.5,0,0,10.5,190.3,223.4)" />
<use xlink:href="#f1_e" transform="matrix(10.5,0,0,10.5,194.7,223.4)" />
<use xlink:href="#f1_16" transform="matrix(10.5,0,0,10.5,203.2,223.4)" />
<use xlink:href="#f1_k" transform="matrix(10.5,0,0,10.5,211.2,223.4)" />
<use xlink:href="#f1_4" transform="matrix(10.5,0,0,10.5,219.2,223.4)" />
<use xlink:href="#f1_8" transform="matrix(10.5,0,0,10.5,223.6,223.4)" />
<use xlink:href="#f1_4" transform="matrix(10.5,0,0,10.5,231.7,223.4)" />
<use xlink:href="#f1_a" transform="matrix(10.5,0,0,10.5,236,223.4)" />
<use xlink:href="#f1_8" transform="matrix(10.5,0,0,10.5,243.1,223.4)" />
<use xlink:href="#f1_9" transform="matrix(10.5,0,0,10.5,251.2,223.4)" />
<use xlink:href="#f1_i" transform="matrix(10.5,0,0,10.5,255.7,223.4)" />
<use xlink:href="#f1_d" transform="matrix(10.5,0,0,10.5,263.6,223.4)" />
<use xlink:href="#f2_8" transform="matrix(12,0,0,12,519.8,263.2)" />
<use xlink:href="#f2_4" transform="matrix(12,0,0,12,532,263.2)" />
<use xlink:href="#f2_9" transform="matrix(12,0,0,12,536.1,263.2)" />
<use xlink:href="#f2_f" transform="matrix(12,0,0,12,546.6,263.2)" />
<use xlink:href="#f2_5" transform="matrix(12,0,0,12,557,263.2)" />
<use xlink:href="#f2_r" transform="matrix(12,0,0,12,572.4,263.2)" />
<use xlink:href="#f2_a" transform="matrix(12,0,0,12,584.5,263.2)" />
<use xlink:href="#f2_q" transform="matrix(12,0,0,12,589.4,263.2)" />
<use xlink:href="#f2_g" transform="matrix(12,0,0,12,601.6,263.2)" />
<use xlink:href="#f2_n" transform="matrix(12,0,0,12,619.9,263.2)" />
<use xlink:href="#f2_a" transform="matrix(12,0,0,12,632.9,263.2)" />
<use xlink:href="#f2_f" transform="matrix(12,0,0,12,637.9,263.2)" />
<use xlink:href="#f2_n" transform="matrix(12,0,0,12,648.3,263.2)" />
<use xlink:href="#f1_9" transform="matrix(10.5,0,0,10.5,498.1,282.5)" />
<use xlink:href="#f1_b" transform="matrix(10.5,0,0,10.5,502.5,282.5)" />
<use xlink:href="#f1_a" transform="matrix(10.5,0,0,10.5,507.8,282.5)" />
<use xlink:href="#f1_d" transform="matrix(10.5,0,0,10.5,515,282.5)" />
<use xlink:href="#f1_l" transform="matrix(10.5,0,0,10.5,521.1,282.5)" />
<use xlink:href="#f1_4" transform="matrix(10.5,0,0,10.5,528.3,282.5)" />
<use xlink:href="#f1_a" transform="matrix(10.5,0,0,10.5,532.7,282.5)" />
<use xlink:href="#f1_8" transform="matrix(10.5,0,0,10.5,539.9,282.5)" />
<use xlink:href="#f1_9" transform="matrix(10.5,0,0,10.5,548,282.5)" />
<use xlink:href="#f1_i" transform="matrix(10.5,0,0,10.5,552.2,282.5)" />
<use xlink:href="#f1_d" transform="matrix(10.5,0,0,10.5,560.3,282.5)" />
<use xlink:href="#f1_t" transform="matrix(10.5,0,0,10.5,570.5,282.5)" />
<use xlink:href="#f1_a" transform="matrix(10.5,0,0,10.5,578.6,282.5)" />
<use xlink:href="#f1_b" transform="matrix(10.5,0,0,10.5,585.8,282.5)" />
<use xlink:href="#f1_b" transform="matrix(10.5,0,0,10.5,591.1,282.5)" />
<use xlink:href="#f1_i" transform="matrix(10.5,0,0,10.5,596.3,282.5)" />
<use xlink:href="#f1_d" transform="matrix(10.5,0,0,10.5,604.4,282.5)" />
<use xlink:href="#f2_r" transform="matrix(12,0,0,12,370.5,263.2)" />
<use xlink:href="#f2_a" transform="matrix(12,0,0,12,382.5,263.2)" />
<use xlink:href="#f2_9" transform="matrix(12,0,0,12,387.6,263.2)" />
<use xlink:href="#f2_f" transform="matrix(12,0,0,12,398.1,263.2)" />
<use xlink:href="#f2_5" transform="matrix(12,0,0,12,408.5,263.2)" />
<use xlink:href="#f2_8" transform="matrix(12,0,0,12,423.9,263.2)" />
<use xlink:href="#f2_4" transform="matrix(12,0,0,12,436,263.2)" />
<use xlink:href="#f2_4" transform="matrix(12,0,0,12,440.1,263.2)" />
<use xlink:href="#f2_r" transform="matrix(12,0,0,12,444.2,263.2)" />
<use xlink:href="#f2_q" transform="matrix(12,0,0,12,456.2,263.2)" />
<use xlink:href="#f2_g" transform="matrix(12,0,0,12,468.5,263.2)" />
<use xlink:href="#f1_n" transform="matrix(10.5,0,0,10.5,317.9,282.5)" />
<use xlink:href="#f1_i" transform="matrix(10.5,0,0,10.5,325.9,282.5)" />
<use xlink:href="#f1_d" transform="matrix(10.5,0,0,10.5,334,282.5)" />
<use xlink:href="#f1_l" transform="matrix(10.5,0,0,10.5,340.1,282.5)" />
<use xlink:href="#f1_4" transform="matrix(10.5,0,0,10.5,347.2,282.5)" />
<use xlink:href="#f1_a" transform="matrix(10.5,0,0,10.5,351.7,282.5)" />
<use xlink:href="#f1_8" transform="matrix(10.5,0,0,10.5,358.7,282.5)" />
<use xlink:href="#f1_9" transform="matrix(10.5,0,0,10.5,366.8,282.5)" />
<use xlink:href="#f3_d" transform="matrix(10.5,0,0,10.5,371.4,282.5)" />
<use xlink:href="#f3_n" transform="matrix(10.5,0,0,10.5,379.3,282.5)" />
<use xlink:href="#f1_t" transform="matrix(10.5,0,0,10.5,389.7,282.5)" />
<use xlink:href="#f1_a" transform="matrix(10.5,0,0,10.5,397.7,282.5)" />
<use xlink:href="#f1_b" transform="matrix(10.5,0,0,10.5,404.8,282.5)" />
<use xlink:href="#f1_b" transform="matrix(10.5,0,0,10.5,410.2,282.5)" />
<use xlink:href="#f1_2" transform="matrix(10.5,0,0,10.5,415.4,282.5)" />
<use xlink:href="#f1_d" transform="matrix(10.5,0,0,10.5,422.5,282.5)" />
<use xlink:href="#f2_r" transform="matrix(12,0,0,12,153.2,263.2)" />
<use xlink:href="#f2_a" transform="matrix(12,0,0,12,165.2,263.2)" />
<use xlink:href="#f2_3" transform="matrix(12,0,0,12,170.2,263.2)" />
<use xlink:href="#f2_a" transform="matrix(12,0,0,12,180.6,263.2)" />
<use xlink:href="#f2_q" transform="matrix(12,0,0,12,185.6,263.2)" />
<use xlink:href="#f2_8" transform="matrix(12,0,0,12,203.6,263.2)" />
<use xlink:href="#f2_4" transform="matrix(12,0,0,12,215.8,263.2)" />
<use xlink:href="#f2_4" transform="matrix(12,0,0,12,219.8,263.2)" />
<use xlink:href="#f2_r" transform="matrix(12,0,0,12,223.9,263.2)" />
<use xlink:href="#f2_q" transform="matrix(12,0,0,12,236,263.2)" />
<use xlink:href="#f2_g" transform="matrix(12,0,0,12,248.2,263.2)" />
<use xlink:href="#f2_z" transform="matrix(12,0,0,12,266.5,263.2)" />
<use xlink:href="#f2_f" transform="matrix(12,0,0,12,278.3,263.2)" />
<use xlink:href="#f2_q" transform="matrix(12,0,0,12,288.6,263.2)" />
<use xlink:href="#f1_m" transform="matrix(10.5,0,0,10.5,137.7,282.5)" />
<use xlink:href="#f1_4" transform="matrix(10.5,0,0,10.5,150.2,282.5)" />
<use xlink:href="#f1_e" transform="matrix(10.5,0,0,10.5,154.6,282.5)" />
<use xlink:href="#f1_n" transform="matrix(10.5,0,0,10.5,163.1,282.5)" />
<use xlink:href="#f1_i" transform="matrix(10.5,0,0,10.5,171.1,282.5)" />
<use xlink:href="#f1_d" transform="matrix(10.5,0,0,10.5,179.2,282.5)" />
<use xlink:href="#f1_l" transform="matrix(10.5,0,0,10.5,185.3,282.5)" />
<use xlink:href="#f1_4" transform="matrix(10.5,0,0,10.5,192.4,282.5)" />
<use xlink:href="#f1_a" transform="matrix(10.5,0,0,10.5,196.9,282.5)" />
<use xlink:href="#f1_8" transform="matrix(10.5,0,0,10.5,203.9,282.5)" />
<use xlink:href="#f1_9" transform="matrix(10.5,0,0,10.5,212,282.5)" />
<use xlink:href="#f3_d" transform="matrix(10.5,0,0,10.5,216.5,282.5)" />
<use xlink:href="#f3_n" transform="matrix(10.5,0,0,10.5,224.6,282.5)" />
<use xlink:href="#f1_e" transform="matrix(10.5,0,0,10.5,234.8,282.5)" />
<use xlink:href="#f1_k" transform="matrix(10.5,0,0,10.5,239.3,282.5)" />
<use xlink:href="#f1_l" transform="matrix(10.5,0,0,10.5,247.2,282.5)" />
<use xlink:href="#f1_a" transform="matrix(10.5,0,0,10.5,254.4,282.5)" />
<use xlink:href="#f1_d" transform="matrix(10.5,0,0,10.5,261.5,282.5)" />
</g>
<g fill="#0000FF" >
<use xlink:href="#f2_i" transform="matrix(11.5,0,0,11.5,674.1,321.6)" />
<use xlink:href="#f2_3" transform="matrix(11.5,0,0,11.5,686.6,321.6)" />
<use xlink:href="#f2_j" transform="matrix(11.5,0,0,11.5,696.5,321.6)" />
<use xlink:href="#f2_f" transform="matrix(11.5,0,0,11.5,707.5,321.6)" />
<use xlink:href="#f2_e" transform="matrix(11.5,0,0,11.5,723,321.6)" />
<use xlink:href="#f2_3" transform="matrix(11.5,0,0,11.5,734.5,321.6)" />
<use xlink:href="#f2_h" transform="matrix(11.5,0,0,11.5,744.4,321.6)" />
<use xlink:href="#f2_c" transform="matrix(11.5,0,0,11.5,750.5,321.6)" />
<use xlink:href="#f2_9" transform="matrix(11.5,0,0,11.5,761.9,321.6)" />
</g>
</g>
<path d="M674.1,323.3h98" class="g1_11" />
<g clip-path="url(#c0_11)">
<g fill="#000000" >
<use xlink:href="#f0_c" transform="matrix(12,0,0,12,723.8,379.8)" />
<use xlink:href="#f0_9" transform="matrix(12,0,0,12,735,379.8)" />
<use xlink:href="#f0_k" transform="matrix(12,0,0,12,740.3,379.8)" />
<use xlink:href="#f0_4" transform="matrix(12,0,0,12,748.6,379.8)" />
<use xlink:href="#f0_7" transform="matrix(12,0,0,12,759.6,379.8)" />
<use xlink:href="#f0_10" transform="matrix(12,0,0,12,704.6,379.8)" />
</g>
</g>
<path d="M128.6,403H670M128.6,425.1H670M128.6,447.3H670M128.6,469.4H670M128.6,491.6H670M128.6,513.7H670M128.6,535.9H670M128.6,558H670M128.6,580.2H670M128.6,617.9H670M128.6,640.1H670M128.6,662.2H670M128.6,684.4H670M128.6,706.5H670M128.6,728.7H670M128.6,750.8H670M128.6,773H670M128.6,795.1H670M128.6,817.3H670M128.6,839.4H670M128.9,402.6V839.8M399.2,402.6V839.8M669.6,402.6V839.8" class="g0_11" />
<g clip-path="url(#c0_11)">
<g fill="#000000" >
<use xlink:href="#f2_o" transform="matrix(12,0,0,12,585.8,420.4)" />
<use xlink:href="#f2_e" transform="matrix(12,0,0,12,591.6,420.4)" />
<use xlink:href="#f2_j" transform="matrix(12,0,0,12,603.5,420.4)" />
<use xlink:href="#f2_4" transform="matrix(12,0,0,12,614.9,420.4)" />
<use xlink:href="#f2_b" transform="matrix(12,0,0,12,624.8,420.4)" />
<use xlink:href="#f2_f" transform="matrix(12,0,0,12,634.9,420.4)" />
<use xlink:href="#f2_4" transform="matrix(12,0,0,12,645.3,420.4)" />
<use xlink:href="#f2_e" transform="matrix(12,0,0,12,649.4,420.4)" />
<use xlink:href="#f1_1o" transform="matrix(10.5,0,0,10.5,137.7,418.3)" />
<use xlink:href="#f1_e" transform="matrix(10.5,0,0,10.5,147.4,418.3)" />
<use xlink:href="#f1_8" transform="matrix(10.5,0,0,10.5,156,418.3)" />
<use xlink:href="#f1_4" transform="matrix(10.5,0,0,10.5,164.1,418.3)" />
<use xlink:href="#f1_g" transform="matrix(10.5,0,0,10.5,168.4,418.3)" />
<use xlink:href="#f1_i" transform="matrix(10.5,0,0,10.5,176.4,418.3)" />
<use xlink:href="#f1_a" transform="matrix(10.5,0,0,10.5,188.5,418.3)" />
<use xlink:href="#f1_d" transform="matrix(10.5,0,0,10.5,195.5,418.3)" />
<use xlink:href="#f1_p" transform="matrix(10.5,0,0,10.5,205.7,418.3)" />
<use xlink:href="#f1_i" transform="matrix(10.5,0,0,10.5,213.8,418.3)" />
<use xlink:href="#f1_8" transform="matrix(10.5,0,0,10.5,221.8,418.3)" />
<use xlink:href="#f1_4" transform="matrix(10.5,0,0,10.5,229.9,418.3)" />
<use xlink:href="#f1_9" transform="matrix(10.5,0,0,10.5,234.3,418.3)" />
<use xlink:href="#f1_i" transform="matrix(10.5,0,0,10.5,238.7,418.3)" />
<use xlink:href="#f1_1f" transform="matrix(10.5,0,0,10.5,246.8,418.3)" />
<use xlink:href="#f2_o" transform="matrix(12,0,0,12,551.1,442.6)" />
<use xlink:href="#f2_e" transform="matrix(12,0,0,12,556.9,442.6)" />
<use xlink:href="#f2_e" transform="matrix(12,0,0,12,568.8,442.6)" />
<use xlink:href="#f2_a" transform="matrix(12,0,0,12,580.7,442.6)" />
<use xlink:href="#f2_9" transform="matrix(12,0,0,12,585.7,442.6)" />
<use xlink:href="#f2_s" transform="matrix(12,0,0,12,596.3,442.6)" />
<use xlink:href="#f2_e" transform="matrix(12,0,0,12,609.6,442.6)" />
<use xlink:href="#f2_3" transform="matrix(12,0,0,12,621.5,442.6)" />
<use xlink:href="#f2_a" transform="matrix(12,0,0,12,631.9,442.6)" />
<use xlink:href="#f2_g" transform="matrix(12,0,0,12,636.9,442.6)" />
<use xlink:href="#f2_e" transform="matrix(12,0,0,12,649.4,442.6)" />
<use xlink:href="#f1_1m" transform="matrix(10.5,0,0,10.5,137.7,440.5)" />
<use xlink:href="#f1_2" transform="matrix(10.5,0,0,10.5,147.4,440.5)" />
<use xlink:href="#f1_m" transform="matrix(10.5,0,0,10.5,158.6,440.5)" />
<use xlink:href="#f1_2" transform="matrix(10.5,0,0,10.5,171.1,440.5)" />
<use xlink:href="#f1_a" transform="matrix(10.5,0,0,10.5,178.1,440.5)" />
<use xlink:href="#f1_d" transform="matrix(10.5,0,0,10.5,185.3,440.5)" />
<use xlink:href="#f1_9" transform="matrix(10.5,0,0,10.5,191.5,440.5)" />
<use xlink:href="#f1_b" transform="matrix(10.5,0,0,10.5,196,440.5)" />
<use xlink:href="#f1_2" transform="matrix(10.5,0,0,10.5,201.3,440.5)" />
<use xlink:href="#f1_a" transform="matrix(10.5,0,0,10.5,212.5,440.5)" />
<use xlink:href="#f1_d" transform="matrix(10.5,0,0,10.5,219.5,440.5)" />
<use xlink:href="#f1_2" transform="matrix(10.5,0,0,10.5,229.8,440.5)" />
<use xlink:href="#f1_e" transform="matrix(10.5,0,0,10.5,236.9,440.5)" />
<use xlink:href="#f1_9" transform="matrix(10.5,0,0,10.5,241.3,440.5)" />
<use xlink:href="#f1_2" transform="matrix(10.5,0,0,10.5,245.7,440.5)" />
<use xlink:href="#f1_1f" transform="matrix(10.5,0,0,10.5,252.9,440.5)" />
<use xlink:href="#f2_o" transform="matrix(12,0,0,12,591.4,464.8)" />
<use xlink:href="#f2_d" transform="matrix(12,0,0,12,597.2,464.8)" />
<use xlink:href="#f2_n" transform="matrix(12,0,0,12,602.1,464.8)" />
<use xlink:href="#f2_4" transform="matrix(12,0,0,12,615.1,464.8)" />
<use xlink:href="#f2_e" transform="matrix(12,0,0,12,625.1,464.8)" />
<use xlink:href="#f2_r" transform="matrix(12,0,0,12,637.1,464.8)" />
<use xlink:href="#f2_q" transform="matrix(12,0,0,12,649.1,464.8)" />
<use xlink:href="#f1_1l" transform="matrix(10.5,0,0,10.5,137.7,462.6)" />
<use xlink:href="#f1_1g" transform="matrix(10.5,0,0,10.5,147.4,462.6)" />
<use xlink:href="#f1_a" transform="matrix(10.5,0,0,10.5,159.5,462.6)" />
<use xlink:href="#f1_d" transform="matrix(10.5,0,0,10.5,166.7,462.6)" />
<use xlink:href="#f1_9" transform="matrix(10.5,0,0,10.5,172.9,462.6)" />
<use xlink:href="#f1_x" transform="matrix(10.5,0,0,10.5,177.2,462.6)" />
<use xlink:href="#f1_d" transform="matrix(10.5,0,0,10.5,184.4,462.6)" />
<use xlink:href="#f1_n" transform="matrix(10.5,0,0,10.5,194.6,462.6)" />
<use xlink:href="#f1_i" transform="matrix(10.5,0,0,10.5,202.7,462.6)" />
<use xlink:href="#f1_b" transform="matrix(10.5,0,0,10.5,210.6,462.6)" />
<use xlink:href="#f1_m" transform="matrix(10.5,0,0,10.5,216,462.6)" />
<use xlink:href="#f1_4" transform="matrix(10.5,0,0,10.5,228.5,462.6)" />
<use xlink:href="#f1_n" transform="matrix(10.5,0,0,10.5,232.9,462.6)" />
<use xlink:href="#f1_i" transform="matrix(10.5,0,0,10.5,240.8,462.6)" />
<use xlink:href="#f1_1f" transform="matrix(10.5,0,0,10.5,248.9,462.6)" />
<use xlink:href="#f2_o" transform="matrix(12,0,0,12,554.6,486.9)" />
<use xlink:href="#f2_4" transform="matrix(12,0,0,12,560.4,486.9)" />
<use xlink:href="#f2_6" transform="matrix(12,0,0,12,564.5,486.9)" />
<use xlink:href="#f2_i" transform="matrix(12,0,0,12,571.8,486.9)" />
<use xlink:href="#f2_4" transform="matrix(12,0,0,12,584.8,486.9)" />
<use xlink:href="#f2_l" transform="matrix(12,0,0,12,588.9,486.9)" />
<use xlink:href="#f2_i" transform="matrix(12,0,0,12,600.8,486.9)" />
<use xlink:href="#f2_g" transform="matrix(12,0,0,12,613.7,486.9)" />
<use xlink:href="#f2_q" transform="matrix(12,0,0,12,632.1,486.9)" />
<use xlink:href="#f2_a" transform="matrix(12,0,0,12,644.3,486.9)" />
<use xlink:href="#f2_e" transform="matrix(12,0,0,12,649.3,486.9)" />
<use xlink:href="#f1_1p" transform="matrix(10.5,0,0,10.5,137.7,484.8)" />
<use xlink:href="#f1_e" transform="matrix(10.5,0,0,10.5,147.4,484.8)" />
<use xlink:href="#f1_a" transform="matrix(10.5,0,0,10.5,156,484.8)" />
<use xlink:href="#f1_d" transform="matrix(10.5,0,0,10.5,163,484.8)" />
<use xlink:href="#f1_m" transform="matrix(10.5,0,0,10.5,173.4,484.8)" />
<use xlink:href="#f1_a" transform="matrix(10.5,0,0,10.5,185.7,484.8)" />
<use xlink:href="#f1_r" transform="matrix(10.5,0,0,10.5,192.9,484.8)" />
<use xlink:href="#f1_4" transform="matrix(10.5,0,0,10.5,200.8,484.8)" />
<use xlink:href="#f1_l" transform="matrix(10.5,0,0,10.5,205.3,484.8)" />
<use xlink:href="#f1_2" transform="matrix(10.5,0,0,10.5,212.4,484.8)" />
<use xlink:href="#f1_8" transform="matrix(10.5,0,0,10.5,219.5,484.8)" />
<use xlink:href="#f1_i" transform="matrix(10.5,0,0,10.5,227.6,484.8)" />
<use xlink:href="#f1_1f" transform="matrix(10.5,0,0,10.5,235.6,484.8)" />
<use xlink:href="#f2_o" transform="matrix(12,0,0,12,540.7,509.1)" />
<use xlink:href="#f2_9" transform="matrix(12,0,0,12,546.5,509.1)" />
<use xlink:href="#f2_4" transform="matrix(12,0,0,12,557,509.1)" />
<use xlink:href="#f2_b" transform="matrix(12,0,0,12,561.1,509.1)" />
<use xlink:href="#f2_6" transform="matrix(12,0,0,12,571.1,509.1)" />
<use xlink:href="#f2_r" transform="matrix(12,0,0,12,584.4,509.1)" />
<use xlink:href="#f2_4" transform="matrix(12,0,0,12,596.4,509.1)" />
<use xlink:href="#f2_9" transform="matrix(12,0,0,12,600.5,509.1)" />
<use xlink:href="#f2_e" transform="matrix(12,0,0,12,611,509.1)" />
<use xlink:href="#f2_f" transform="matrix(12,0,0,12,628.9,509.1)" />
<use xlink:href="#f2_m" transform="matrix(12,0,0,12,639.3,509.1)" />
<use xlink:href="#f2_9" transform="matrix(12,0,0,12,650.8,509.1)" />
<use xlink:href="#f1_1o" transform="matrix(10.5,0,0,10.5,137.7,506.9)" />
<use xlink:href="#f1_e" transform="matrix(10.5,0,0,10.5,147.4,506.9)" />
<use xlink:href="#f1_n" transform="matrix(10.5,0,0,10.5,156,506.9)" />
<use xlink:href="#f1_k" transform="matrix(10.5,0,0,10.5,163.9,506.9)" />
<use xlink:href="#f1_a" transform="matrix(10.5,0,0,10.5,172,506.9)" />
<use xlink:href="#f1_g" transform="matrix(10.5,0,0,10.5,179,506.9)" />
<use xlink:href="#f1_i" transform="matrix(10.5,0,0,10.5,187.1,506.9)" />
<use xlink:href="#f1_a" transform="matrix(10.5,0,0,10.5,199.2,506.9)" />
<use xlink:href="#f1_d" transform="matrix(10.5,0,0,10.5,206.2,506.9)" />
<use xlink:href="#f1_w" transform="matrix(10.5,0,0,10.5,216.4,506.9)" />
<use xlink:href="#f1_a" transform="matrix(10.5,0,0,10.5,224.5,506.9)" />
<use xlink:href="#f1_8" transform="matrix(10.5,0,0,10.5,231.5,506.9)" />
<use xlink:href="#f1_a" transform="matrix(10.5,0,0,10.5,239.6,506.9)" />
<use xlink:href="#f1_b" transform="matrix(10.5,0,0,10.5,246.8,506.9)" />
<use xlink:href="#f1_i" transform="matrix(10.5,0,0,10.5,252,506.9)" />
<use xlink:href="#f1_d" transform="matrix(10.5,0,0,10.5,260.1,506.9)" />
<use xlink:href="#f1_i" transform="matrix(10.5,0,0,10.5,266.2,506.9)" />
<use xlink:href="#f1_1f" transform="matrix(10.5,0,0,10.5,274.3,506.9)" />
<use xlink:href="#f2_o" transform="matrix(12,0,0,12,549.8,531.2)" />
<use xlink:href="#f2_8" transform="matrix(12,0,0,12,555.7,531.2)" />
<use xlink:href="#f2_4" transform="matrix(12,0,0,12,567.7,531.2)" />
<use xlink:href="#f2_j" transform="matrix(12,0,0,12,571.8,531.2)" />
<use xlink:href="#f2_4" transform="matrix(12,0,0,12,583.3,531.2)" />
<use xlink:href="#f2_4" transform="matrix(12,0,0,12,587.4,531.2)" />
<use xlink:href="#f2_m" transform="matrix(12,0,0,12,591.5,531.2)" />
<use xlink:href="#f2_8" transform="matrix(12,0,0,12,608.9,531.2)" />
<use xlink:href="#f2_4" transform="matrix(12,0,0,12,621.1,531.2)" />
<use xlink:href="#f2_c" transform="matrix(12,0,0,12,625.2,531.2)" />
<use xlink:href="#f2_q" transform="matrix(12,0,0,12,637.1,531.2)" />
<use xlink:href="#f2_e" transform="matrix(12,0,0,12,649.3,531.2)" />
<use xlink:href="#f1_1m" transform="matrix(10.5,0,0,10.5,137.7,529.1)" />
<use xlink:href="#f1_i" transform="matrix(10.5,0,0,10.5,147.4,529.1)" />
<use xlink:href="#f1_d" transform="matrix(10.5,0,0,10.5,155.5,529.1)" />
<use xlink:href="#f1_o" transform="matrix(10.5,0,0,10.5,165.7,529.1)" />
<use xlink:href="#f1_a" transform="matrix(10.5,0,0,10.5,173.8,529.1)" />
<use xlink:href="#f1_b" transform="matrix(10.5,0,0,10.5,180.9,529.1)" />
<use xlink:href="#f1_m" transform="matrix(10.5,0,0,10.5,186.2,529.1)" />
<use xlink:href="#f1_2" transform="matrix(10.5,0,0,10.5,198.6,529.1)" />
<use xlink:href="#f1_8" transform="matrix(10.5,0,0,10.5,205.7,529.1)" />
<use xlink:href="#f1_i" transform="matrix(10.5,0,0,10.5,213.7,529.1)" />
<use xlink:href="#f1_d" transform="matrix(10.5,0,0,10.5,221.8,529.1)" />
<use xlink:href="#f1_a" transform="matrix(10.5,0,0,10.5,232,529.1)" />
<use xlink:href="#f1_d" transform="matrix(10.5,0,0,10.5,239.1,529.1)" />
<use xlink:href="#f1_9" transform="matrix(10.5,0,0,10.5,245.4,529.1)" />
<use xlink:href="#f1_x" transform="matrix(10.5,0,0,10.5,249.8,529.1)" />
<use xlink:href="#f1_8" transform="matrix(10.5,0,0,10.5,256.8,529.1)" />
<use xlink:href="#f1_l" transform="matrix(10.5,0,0,10.5,268.9,529.1)" />
<use xlink:href="#f1_2" transform="matrix(10.5,0,0,10.5,276.1,529.1)" />
<use xlink:href="#f1_8" transform="matrix(10.5,0,0,10.5,283.1,529.1)" />
<use xlink:href="#f1_d" transform="matrix(10.5,0,0,10.5,291.2,529.1)" />
<use xlink:href="#f1_2" transform="matrix(10.5,0,0,10.5,297.3,529.1)" />
<use xlink:href="#f1_n" transform="matrix(10.5,0,0,10.5,304.5,529.1)" />
<use xlink:href="#f1_i" transform="matrix(10.5,0,0,10.5,312.4,529.1)" />
<use xlink:href="#f1_d" transform="matrix(10.5,0,0,10.5,320.5,529.1)" />
<use xlink:href="#f1_1f" transform="matrix(10.5,0,0,10.5,326.7,529.1)" />
<use xlink:href="#f2_o" transform="matrix(12,0,0,12,462.6,553.4)" />
<use xlink:href="#f2_d" transform="matrix(12,0,0,12,468.4,553.4)" />
<use xlink:href="#f2_q" transform="matrix(12,0,0,12,473.4,553.4)" />
<use xlink:href="#f2_5" transform="matrix(12,0,0,12,485.7,553.4)" />
<use xlink:href="#f2_11" transform="matrix(12,0,0,12,501.1,553.4)" />
<use xlink:href="#f2_q" transform="matrix(12,0,0,12,508.3,553.4)" />
<use xlink:href="#f2_p" transform="matrix(12,0,0,12,520.5,553.4)" />
<use xlink:href="#f2_g" transform="matrix(12,0,0,12,531.4,553.4)" />
<use xlink:href="#f2_6" transform="matrix(12,0,0,12,543.9,553.4)" />
<use xlink:href="#f2_10" transform="matrix(12,0,0,12,551.1,553.4)" />
<use xlink:href="#f2_q" transform="matrix(12,0,0,12,564.2,553.4)" />
<use xlink:href="#f2_a" transform="matrix(12,0,0,12,576.4,553.4)" />
<use xlink:href="#f2_e" transform="matrix(12,0,0,12,581.4,553.4)" />
<use xlink:href="#f2_d" transform="matrix(12,0,0,12,599.2,553.4)" />
<use xlink:href="#f2_a" transform="matrix(12,0,0,12,604.2,553.4)" />
<use xlink:href="#f2_q" transform="matrix(12,0,0,12,609.2,553.4)" />
<use xlink:href="#f2_4" transform="matrix(12,0,0,12,621.4,553.4)" />
<use xlink:href="#f2_h" transform="matrix(12,0,0,12,625.5,553.4)" />
<use xlink:href="#f2_a" transform="matrix(12,0,0,12,631.8,553.4)" />
<use xlink:href="#f2_g" transform="matrix(12,0,0,12,636.8,553.4)" />
<use xlink:href="#f2_e" transform="matrix(12,0,0,12,649.3,553.4)" />
<use xlink:href="#f1_1o" transform="matrix(10.5,0,0,10.5,137.7,551.2)" />
<use xlink:href="#f1_e" transform="matrix(10.5,0,0,10.5,147.4,551.2)" />
<use xlink:href="#f1_m" transform="matrix(10.5,0,0,10.5,156,551.2)" />
<use xlink:href="#f1_k" transform="matrix(10.5,0,0,10.5,168.4,551.2)" />
<use xlink:href="#f1_d" transform="matrix(10.5,0,0,10.5,176.4,551.2)" />
<use xlink:href="#f1_a" transform="matrix(10.5,0,0,10.5,182.6,551.2)" />
<use xlink:href="#f1_i" transform="matrix(10.5,0,0,10.5,189.7,551.2)" />
<use xlink:href="#f1_a" transform="matrix(10.5,0,0,10.5,201.8,551.2)" />
<use xlink:href="#f1_d" transform="matrix(10.5,0,0,10.5,209,551.2)" />
<use xlink:href="#f1_9" transform="matrix(10.5,0,0,10.5,215.2,551.2)" />
<use xlink:href="#f1_x" transform="matrix(10.5,0,0,10.5,219.5,551.2)" />
<use xlink:href="#f1_2" transform="matrix(10.5,0,0,10.5,230.8,551.2)" />
<use xlink:href="#f1_16" transform="matrix(10.5,0,0,10.5,237.8,551.2)" />
<use xlink:href="#f1_k" transform="matrix(10.5,0,0,10.5,245.9,551.2)" />
<use xlink:href="#f1_1r" transform="matrix(10.5,0,0,10.5,253.8,551.2)" />
<use xlink:href="#f1_1f" transform="matrix(10.5,0,0,10.5,258.2,551.2)" />
<use xlink:href="#f2_o" transform="matrix(12,0,0,12,534,575.5)" />
<use xlink:href="#f2_e" transform="matrix(12,0,0,12,539.8,575.5)" />
<use xlink:href="#f2_f" transform="matrix(12,0,0,12,551.7,575.5)" />
<use xlink:href="#f2_a" transform="matrix(12,0,0,12,562.1,575.5)" />
<use xlink:href="#f2_h" transform="matrix(12,0,0,12,567.1,575.5)" />
<use xlink:href="#f2_q" transform="matrix(12,0,0,12,579.3,575.5)" />
<use xlink:href="#f2_4" transform="matrix(12,0,0,12,591.5,575.5)" />
<use xlink:href="#f2_e" transform="matrix(12,0,0,12,595.6,575.5)" />
<use xlink:href="#f2_e" transform="matrix(12,0,0,12,613.5,575.5)" />
<use xlink:href="#f2_j" transform="matrix(12,0,0,12,625.4,575.5)" />
<use xlink:href="#f2_g" transform="matrix(12,0,0,12,636.9,575.5)" />
<use xlink:href="#f2_e" transform="matrix(12,0,0,12,649.4,575.5)" />
<use xlink:href="#f1_1o" transform="matrix(10.5,0,0,10.5,137.7,573.4)" />
<use xlink:href="#f1_e" transform="matrix(10.5,0,0,10.5,147.4,573.4)" />
<use xlink:href="#f1_m" transform="matrix(10.5,0,0,10.5,156,573.4)" />
<use xlink:href="#f1_2" transform="matrix(10.5,0,0,10.5,168.4,573.4)" />
<use xlink:href="#f1_t" transform="matrix(10.5,0,0,10.5,175.5,573.4)" />
<use xlink:href="#f1_2" transform="matrix(10.5,0,0,10.5,183.5,573.4)" />
<use xlink:href="#f1_a" transform="matrix(10.5,0,0,10.5,194.6,573.4)" />
<use xlink:href="#f1_d" transform="matrix(10.5,0,0,10.5,201.8,573.4)" />
<use xlink:href="#f1_p" transform="matrix(10.5,0,0,10.5,212,573.4)" />
<use xlink:href="#f1_2" transform="matrix(10.5,0,0,10.5,220.1,573.4)" />
<use xlink:href="#f1_b" transform="matrix(10.5,0,0,10.5,227.1,573.4)" />
<use xlink:href="#f1_2" transform="matrix(10.5,0,0,10.5,232.5,573.4)" />
<use xlink:href="#f1_9" transform="matrix(10.5,0,0,10.5,239.6,573.4)" />
<use xlink:href="#f1_i" transform="matrix(10.5,0,0,10.5,243.9,573.4)" />
<use xlink:href="#f1_1f" transform="matrix(10.5,0,0,10.5,252,573.4)" />
<use xlink:href="#f2_o" transform="matrix(12,0,0,12,425.9,597.7)" />
<use xlink:href="#f2_3" transform="matrix(12,0,0,12,431.8,597.7)" />
<use xlink:href="#f2_a" transform="matrix(12,0,0,12,442.1,597.7)" />
<use xlink:href="#f2_b" transform="matrix(12,0,0,12,447.2,597.7)" />
<use xlink:href="#f2_a" transform="matrix(12,0,0,12,457.1,597.7)" />
<use xlink:href="#f2_a" transform="matrix(12,0,0,12,462.1,597.7)" />
<use xlink:href="#f2_i" transform="matrix(12,0,0,12,467.1,597.7)" />
<use xlink:href="#f2_q" transform="matrix(12,0,0,12,480.1,597.7)" />
<use xlink:href="#f2_9" transform="matrix(12,0,0,12,492.3,597.7)" />
<use xlink:href="#f2_e" transform="matrix(12,0,0,12,508.8,597.7)" />
<use xlink:href="#f2_3" transform="matrix(12,0,0,12,520.7,597.7)" />
<use xlink:href="#f2_b" transform="matrix(12,0,0,12,531.1,597.7)" />
<use xlink:href="#f2_6" transform="matrix(12,0,0,12,541.2,597.7)" />
<use xlink:href="#f2_c" transform="matrix(12,0,0,12,548.5,597.7)" />
<use xlink:href="#f2_f" transform="matrix(12,0,0,12,560.4,597.7)" />
<use xlink:href="#f2_q" transform="matrix(12,0,0,12,570.8,597.7)" />
<use xlink:href="#f2_a" transform="matrix(12,0,0,12,583.1,597.7)" />
<use xlink:href="#f2_a" transform="matrix(12,0,0,12,593.9,597.7)" />
<use xlink:href="#f2_3" transform="matrix(12,0,0,12,598.9,597.7)" />
<use xlink:href="#f2_b" transform="matrix(12,0,0,12,609.3,597.7)" />
<use xlink:href="#f2_6" transform="matrix(12,0,0,12,619.4,597.7)" />
<use xlink:href="#f2_c" transform="matrix(12,0,0,12,626.7,597.7)" />
<use xlink:href="#f2_f" transform="matrix(12,0,0,12,638.6,597.7)" />
<use xlink:href="#f2_q" transform="matrix(12,0,0,12,649,597.7)" />
<use xlink:href="#f1_1n" transform="matrix(10.5,0,0,10.5,137.7,595.5)" />
<use xlink:href="#f1_e" transform="matrix(10.5,0,0,10.5,149.3,595.5)" />
<use xlink:href="#f1_a" transform="matrix(10.5,0,0,10.5,153.7,595.5)" />
<use xlink:href="#f1_u" transform="matrix(10.5,0,0,10.5,160.8,595.5)" />
<use xlink:href="#f1_2" transform="matrix(10.5,0,0,10.5,165.3,595.5)" />
<use xlink:href="#f1_8" transform="matrix(10.5,0,0,10.5,172.3,595.5)" />
<use xlink:href="#f1_n" transform="matrix(10.5,0,0,10.5,180.4,595.5)" />
<use xlink:href="#f1_b" transform="matrix(10.5,0,0,10.5,188.5,595.5)" />
<use xlink:href="#f1_i" transform="matrix(10.5,0,0,10.5,193.7,595.5)" />
<use xlink:href="#f1_z" transform="matrix(10.5,0,0,10.5,219.2,595.5)" />
<use xlink:href="#f1_1n" transform="matrix(10.5,0,0,10.5,244.7,595.5)" />
<use xlink:href="#f1_e" transform="matrix(10.5,0,0,10.5,256.2,595.5)" />
<use xlink:href="#f1_a" transform="matrix(10.5,0,0,10.5,260.7,595.5)" />
<use xlink:href="#f1_u" transform="matrix(10.5,0,0,10.5,267.8,595.5)" />
<use xlink:href="#f1_2" transform="matrix(10.5,0,0,10.5,272.1,595.5)" />
<use xlink:href="#f1_8" transform="matrix(10.5,0,0,10.5,279.3,595.5)" />
<use xlink:href="#f1_n" transform="matrix(10.5,0,0,10.5,287.2,595.5)" />
<use xlink:href="#f1_b" transform="matrix(10.5,0,0,10.5,295.3,595.5)" />
<use xlink:href="#f1_2" transform="matrix(10.5,0,0,10.5,300.7,595.5)" />
<use xlink:href="#f1_a" transform="matrix(10.5,0,0,10.5,325.2,595.5)" />
<use xlink:href="#f1_d" transform="matrix(10.5,0,0,10.5,332.4,595.5)" />
<use xlink:href="#f1_9" transform="matrix(10.5,0,0,10.5,338.7,595.5)" />
<use xlink:href="#f1_x" transform="matrix(10.5,0,0,10.5,342.9,595.5)" />
<use xlink:href="#f1_8" transform="matrix(10.5,0,0,10.5,350.1,595.5)" />
<use xlink:href="#f1_a" transform="matrix(10.5,0,0,10.5,375.6,595.5)" />
<use xlink:href="#f1_8" transform="matrix(10.5,0,0,10.5,382.8,595.5)" />
<use xlink:href="#f1_1o" transform="matrix(10.5,0,0,10.5,137.7,614)" />
<use xlink:href="#f1_l" transform="matrix(10.5,0,0,10.5,147.4,614)" />
<use xlink:href="#f1_k" transform="matrix(10.5,0,0,10.5,154.6,614)" />
<use xlink:href="#f1_2" transform="matrix(10.5,0,0,10.5,162.5,614)" />
<use xlink:href="#f1_n" transform="matrix(10.5,0,0,10.5,169.7,614)" />
<use xlink:href="#f1_i" transform="matrix(10.5,0,0,10.5,177.7,614)" />
<use xlink:href="#f1_b" transform="matrix(10.5,0,0,10.5,185.7,614)" />
<use xlink:href="#f1_1f" transform="matrix(10.5,0,0,10.5,191.1,614)" />
<use xlink:href="#f2_o" transform="matrix(12,0,0,12,569.1,635.4)" />
<use xlink:href="#f2_8" transform="matrix(12,0,0,12,574.9,635.4)" />
<use xlink:href="#f2_4" transform="matrix(12,0,0,12,587.1,635.4)" />
<use xlink:href="#f2_3" transform="matrix(12,0,0,12,591.2,635.4)" />
<use xlink:href="#f2_a" transform="matrix(12,0,0,12,601.5,635.4)" />
<use xlink:href="#f2_g" transform="matrix(12,0,0,12,606.5,635.4)" />
<use xlink:href="#f2_8" transform="matrix(12,0,0,12,624.8,635.4)" />
<use xlink:href="#f2_r" transform="matrix(12,0,0,12,637,635.4)" />
<use xlink:href="#f2_q" transform="matrix(12,0,0,12,649,635.4)" />
<use xlink:href="#f1_1h" transform="matrix(10.5,0,0,10.5,137.7,633.3)" />
<use xlink:href="#f1_n" transform="matrix(10.5,0,0,10.5,149.3,633.3)" />
<use xlink:href="#f1_d" transform="matrix(10.5,0,0,10.5,157.2,633.3)" />
<use xlink:href="#f1_1f" transform="matrix(10.5,0,0,10.5,163.4,633.3)" />
<use xlink:href="#f1_d" transform="matrix(10.5,0,0,10.5,171.5,633.3)" />
<use xlink:href="#f1_i" transform="matrix(10.5,0,0,10.5,177.6,633.3)" />
<use xlink:href="#f1_8" transform="matrix(10.5,0,0,10.5,185.7,633.3)" />
<use xlink:href="#f1_m" transform="matrix(10.5,0,0,10.5,197.8,633.3)" />
<use xlink:href="#f1_2" transform="matrix(10.5,0,0,10.5,210.3,633.3)" />
<use xlink:href="#f1_a" transform="matrix(10.5,0,0,10.5,217.3,633.3)" />
<use xlink:href="#f1_d" transform="matrix(10.5,0,0,10.5,224.5,633.3)" />
<use xlink:href="#f1_9" transform="matrix(10.5,0,0,10.5,230.7,633.3)" />
<use xlink:href="#f1_b" transform="matrix(10.5,0,0,10.5,235.2,633.3)" />
<use xlink:href="#f1_i" transform="matrix(10.5,0,0,10.5,240.4,633.3)" />
<use xlink:href="#f1_d" transform="matrix(10.5,0,0,10.5,248.4,633.3)" />
<use xlink:href="#f1_1f" transform="matrix(10.5,0,0,10.5,254.7,633.3)" />
<use xlink:href="#f2_o" transform="matrix(12,0,0,12,590.9,657.6)" />
<use xlink:href="#f2_9" transform="matrix(12,0,0,12,596.8,657.6)" />
<use xlink:href="#f2_a" transform="matrix(12,0,0,12,607.3,657.6)" />
<use xlink:href="#f2_n" transform="matrix(12,0,0,12,612.3,657.6)" />
<use xlink:href="#f2_c" transform="matrix(12,0,0,12,625.3,657.6)" />
<use xlink:href="#f2_e" transform="matrix(12,0,0,12,643,657.6)" />
<use xlink:href="#f2_h" transform="matrix(12,0,0,12,654.9,657.6)" />
<use xlink:href="#f1_1o" transform="matrix(10.5,0,0,10.5,137.7,655.4)" />
<use xlink:href="#f1_d" transform="matrix(10.5,0,0,10.5,147.4,655.4)" />
<use xlink:href="#f1_4" transform="matrix(10.5,0,0,10.5,157.8,655.4)" />
<use xlink:href="#f1_m" transform="matrix(10.5,0,0,10.5,162.1,655.4)" />
<use xlink:href="#f1_t" transform="matrix(10.5,0,0,10.5,174.6,655.4)" />
<use xlink:href="#f1_i" transform="matrix(10.5,0,0,10.5,182.5,655.4)" />
<use xlink:href="#f1_b" transform="matrix(10.5,0,0,10.5,190.6,655.4)" />
<use xlink:href="#f1_9" transform="matrix(10.5,0,0,10.5,195.9,655.4)" />
<use xlink:href="#f1_2" transform="matrix(10.5,0,0,10.5,200.4,655.4)" />
<use xlink:href="#f1_8" transform="matrix(10.5,0,0,10.5,207.5,655.4)" />
<use xlink:href="#f1_9" transform="matrix(10.5,0,0,10.5,215.6,655.4)" />
<use xlink:href="#f1_a" transform="matrix(10.5,0,0,10.5,219.9,655.4)" />
<use xlink:href="#f1_1f" transform="matrix(10.5,0,0,10.5,227.1,655.4)" />
<use xlink:href="#f2_o" transform="matrix(12,0,0,12,487.2,679.7)" />
<use xlink:href="#f2_f" transform="matrix(12,0,0,12,493,679.7)" />
<use xlink:href="#f2_q" transform="matrix(12,0,0,12,503.4,679.7)" />
<use xlink:href="#f2_3" transform="matrix(12,0,0,12,515.6,679.7)" />
<use xlink:href="#f2_n" transform="matrix(12,0,0,12,526,679.7)" />
<use xlink:href="#f2_4" transform="matrix(12,0,0,12,539,679.7)" />
<use xlink:href="#f2_9" transform="matrix(12,0,0,12,543.1,679.7)" />
<use xlink:href="#f2_11" transform="matrix(12,0,0,12,559.6,679.7)" />
<use xlink:href="#f2_q" transform="matrix(12,0,0,12,566.8,679.7)" />
<use xlink:href="#f2_p" transform="matrix(12,0,0,12,579,679.7)" />
<use xlink:href="#f2_g" transform="matrix(12,0,0,12,589.8,679.7)" />
<use xlink:href="#f2_6" transform="matrix(12,0,0,12,602.2,679.7)" />
<use xlink:href="#f2_10" transform="matrix(12,0,0,12,609.5,679.7)" />
<use xlink:href="#f2_r" transform="matrix(12,0,0,12,622.7,679.7)" />
<use xlink:href="#f2_4" transform="matrix(12,0,0,12,634.7,679.7)" />
<use xlink:href="#f2_9" transform="matrix(12,0,0,12,638.8,679.7)" />
<use xlink:href="#f2_e" transform="matrix(12,0,0,12,649.3,679.7)" />
<use xlink:href="#f1_1m" transform="matrix(10.5,0,0,10.5,137.7,677.6)" />
<use xlink:href="#f1_2" transform="matrix(10.5,0,0,10.5,147.4,677.6)" />
<use xlink:href="#f1_l" transform="matrix(10.5,0,0,10.5,158.6,677.6)" />
<use xlink:href="#f1_2" transform="matrix(10.5,0,0,10.5,165.8,677.6)" />
<use xlink:href="#f1_d" transform="matrix(10.5,0,0,10.5,172.8,677.6)" />
<use xlink:href="#f1_2" transform="matrix(10.5,0,0,10.5,179,677.6)" />
<use xlink:href="#f1_a" transform="matrix(10.5,0,0,10.5,190.2,677.6)" />
<use xlink:href="#f1_d" transform="matrix(10.5,0,0,10.5,197.3,677.6)" />
<use xlink:href="#f1_9" transform="matrix(10.5,0,0,10.5,203.6,677.6)" />
<use xlink:href="#f1_x" transform="matrix(10.5,0,0,10.5,207.9,677.6)" />
<use xlink:href="#f1_a" transform="matrix(10.5,0,0,10.5,219.1,677.6)" />
<use xlink:href="#f1_8" transform="matrix(10.5,0,0,10.5,226.2,677.6)" />
<use xlink:href="#f1_s" transform="matrix(10.5,0,0,10.5,238.2,677.6)" />
<use xlink:href="#f1_d" transform="matrix(10.5,0,0,10.5,243.6,677.6)" />
<use xlink:href="#f1_b" transform="matrix(10.5,0,0,10.5,249.8,677.6)" />
<use xlink:href="#f1_2" transform="matrix(10.5,0,0,10.5,255,677.6)" />
<use xlink:href="#f1_a" transform="matrix(10.5,0,0,10.5,262.2,677.6)" />
<use xlink:href="#f1_e" transform="matrix(10.5,0,0,10.5,269.4,677.6)" />
<use xlink:href="#f1_1f" transform="matrix(10.5,0,0,10.5,273.8,677.6)" />
<use xlink:href="#f2_o" transform="matrix(12,0,0,12,483.8,701.9)" />
<use xlink:href="#f2_11" transform="matrix(12,0,0,12,489.7,701.9)" />
<use xlink:href="#f2_8" transform="matrix(12,0,0,12,496.7,701.9)" />
<use xlink:href="#f2_4" transform="matrix(12,0,0,12,508.9,701.9)" />
<use xlink:href="#f2_x" transform="matrix(12,0,0,12,513,701.9)" />
<use xlink:href="#f2_j" transform="matrix(12,0,0,12,524.9,701.9)" />
<use xlink:href="#f2_g" transform="matrix(12,0,0,12,536.3,701.9)" />
<use xlink:href="#f2_4" transform="matrix(12,0,0,12,548.7,701.9)" />
<use xlink:href="#f2_l" transform="matrix(12,0,0,12,552.8,701.9)" />
<use xlink:href="#f2_10" transform="matrix(12,0,0,12,564.7,701.9)" />
<use xlink:href="#f2_8" transform="matrix(12,0,0,12,577.7,701.9)" />
<use xlink:href="#f2_4" transform="matrix(12,0,0,12,589.9,701.9)" />
<use xlink:href="#f2_9" transform="matrix(12,0,0,12,594,701.9)" />
<use xlink:href="#f2_4" transform="matrix(12,0,0,12,604.6,701.9)" />
<use xlink:href="#f2_9" transform="matrix(12,0,0,12,608.7,701.9)" />
<use xlink:href="#f2_c" transform="matrix(12,0,0,12,619.2,701.9)" />
<use xlink:href="#f2_8" transform="matrix(12,0,0,12,637.1,701.9)" />
<use xlink:href="#f2_e" transform="matrix(12,0,0,12,649.3,701.9)" />
<use xlink:href="#f1_1o" transform="matrix(10.5,0,0,10.5,137.7,699.7)" />
<use xlink:href="#f1_e" transform="matrix(10.5,0,0,10.5,147.4,699.7)" />
<use xlink:href="#f1_e" transform="matrix(10.5,0,0,10.5,151.9,699.7)" />
<use xlink:href="#f1_i" transform="matrix(10.5,0,0,10.5,156.3,699.7)" />
<use xlink:href="#f1_d" transform="matrix(10.5,0,0,10.5,164.4,699.7)" />
<use xlink:href="#f1_d" transform="matrix(10.5,0,0,10.5,174.6,699.7)" />
<use xlink:href="#f1_i" transform="matrix(10.5,0,0,10.5,180.8,699.7)" />
<use xlink:href="#f1_8" transform="matrix(10.5,0,0,10.5,188.8,699.7)" />
<use xlink:href="#f1_d" transform="matrix(10.5,0,0,10.5,200.8,699.7)" />
<use xlink:href="#f1_4" transform="matrix(10.5,0,0,10.5,207.1,699.7)" />
<use xlink:href="#f1_m" transform="matrix(10.5,0,0,10.5,211.5,699.7)" />
<use xlink:href="#f1_t" transform="matrix(10.5,0,0,10.5,224,699.7)" />
<use xlink:href="#f1_x" transform="matrix(10.5,0,0,10.5,232,699.7)" />
<use xlink:href="#f1_9" transform="matrix(10.5,0,0,10.5,239.1,699.7)" />
<use xlink:href="#f1_4" transform="matrix(10.5,0,0,10.5,243.6,699.7)" />
<use xlink:href="#f1_l" transform="matrix(10.5,0,0,10.5,248,699.7)" />
<use xlink:href="#f1_i" transform="matrix(10.5,0,0,10.5,255.2,699.7)" />
<use xlink:href="#f1_d" transform="matrix(10.5,0,0,10.5,263.1,699.7)" />
<use xlink:href="#f1_1f" transform="matrix(10.5,0,0,10.5,269.3,699.7)" />
<use xlink:href="#f2_1x" transform="matrix(12,0,0,12,539.2,724)" />
<use xlink:href="#f2_d" transform="matrix(12,0,0,12,548.9,724)" />
<use xlink:href="#f2_q" transform="matrix(12,0,0,12,553.9,724)" />
<use xlink:href="#f2_5" transform="matrix(12,0,0,12,566.2,724)" />
<use xlink:href="#f2_11" transform="matrix(12,0,0,12,581.7,724)" />
<use xlink:href="#f2_q" transform="matrix(12,0,0,12,588.9,724)" />
<use xlink:href="#f2_p" transform="matrix(12,0,0,12,601.1,724)" />
<use xlink:href="#f2_g" transform="matrix(12,0,0,12,612,724)" />
<use xlink:href="#f2_6" transform="matrix(12,0,0,12,624.3,724)" />
<use xlink:href="#f2_10" transform="matrix(12,0,0,12,631.7,724)" />
<use xlink:href="#f2_4" transform="matrix(12,0,0,12,644.7,724)" />
<use xlink:href="#f2_g" transform="matrix(12,0,0,12,648.8,724)" />
<use xlink:href="#f1_1u" transform="matrix(11,0,0,11,137.7,722.6)" />
<use xlink:href="#f1_1v" transform="matrix(11,0,0,11,145.1,722.6)" />
<use xlink:href="#f1_k" transform="matrix(11,0,0,11,157.2,722.6)" />
<use xlink:href="#f1_4" transform="matrix(11,0,0,11,165.6,722.6)" />
<use xlink:href="#f1_c" transform="matrix(11,0,0,11,170.3,722.6)" />
<use xlink:href="#f1_8" transform="matrix(11,0,0,11,177.8,722.6)" />
<use xlink:href="#f1_a" transform="matrix(10.5,0,0,10.5,190.2,722.6)" />
<use xlink:href="#f1_d" transform="matrix(10.5,0,0,10.5,197.4,722.6)" />
<use xlink:href="#f1_9" transform="matrix(10.5,0,0,10.5,203.6,722.6)" />
<use xlink:href="#f1_x" transform="matrix(10.5,0,0,10.5,207.9,722.6)" />
<use xlink:href="#f1_2" transform="matrix(10.5,0,0,10.5,219.1,722.6)" />
<use xlink:href="#f1_16" transform="matrix(10.5,0,0,10.5,226.2,722.6)" />
<use xlink:href="#f1_k" transform="matrix(10.5,0,0,10.5,234.2,722.6)" />
<use xlink:href="#f1_1r" transform="matrix(10.5,0,0,10.5,242.3,722.6)" />
<use xlink:href="#f1_1w" transform="matrix(10.5,0,0,10.5,246.7,722.6)" />
<use xlink:href="#f2_o" transform="matrix(12,0,0,12,449.5,746.2)" />
<use xlink:href="#f2_r" transform="matrix(12,0,0,12,455.3,746.2)" />
<use xlink:href="#f2_a" transform="matrix(12,0,0,12,467.3,746.2)" />
<use xlink:href="#f2_6" transform="matrix(12,0,0,12,472.4,746.2)" />
<use xlink:href="#f2_g" transform="matrix(12,0,0,12,479.7,746.2)" />
<use xlink:href="#f2_n" transform="matrix(12,0,0,12,492.1,746.2)" />
<use xlink:href="#f2_n" transform="matrix(12,0,0,12,511,746.2)" />
<use xlink:href="#f2_a" transform="matrix(12,0,0,12,524,746.2)" />
<use xlink:href="#f2_f" transform="matrix(12,0,0,12,528.9,746.2)" />
<use xlink:href="#f2_n" transform="matrix(12,0,0,12,539.3,746.2)" />
<use xlink:href="#f2_r" transform="matrix(12,0,0,12,558.2,746.2)" />
<use xlink:href="#f2_a" transform="matrix(12,0,0,12,570.1,746.2)" />
<use xlink:href="#f2_q" transform="matrix(12,0,0,12,575.1,746.2)" />
<use xlink:href="#f2_p" transform="matrix(12,0,0,12,587.4,746.2)" />
<use xlink:href="#f2_g" transform="matrix(12,0,0,12,598.2,746.2)" />
<use xlink:href="#f2_6" transform="matrix(12,0,0,12,610.7,746.2)" />
<use xlink:href="#f2_r" transform="matrix(12,0,0,12,624,746.2)" />
<use xlink:href="#f2_4" transform="matrix(12,0,0,12,636.1,746.2)" />
<use xlink:href="#f2_9" transform="matrix(12,0,0,12,640.2,746.2)" />
<use xlink:href="#f2_9" transform="matrix(12,0,0,12,650.7,746.2)" />
<use xlink:href="#f1_1o" transform="matrix(11,0,0,11,137.7,744.8)" />
<use xlink:href="#f1_8" transform="matrix(11,0,0,11,147.9,744.8)" />
<use xlink:href="#f1_e" transform="matrix(11,0,0,11,160.6,744.8)" />
<use xlink:href="#f1_2" transform="matrix(11,0,0,11,165.1,744.8)" />
<use xlink:href="#f1_l" transform="matrix(11,0,0,11,176.9,744.8)" />
<use xlink:href="#f1_2" transform="matrix(11,0,0,11,184.3,744.8)" />
<use xlink:href="#f1_d" transform="matrix(11,0,0,11,191.7,744.8)" />
<use xlink:href="#f1_2" transform="matrix(11,0,0,11,198.2,744.8)" />
<use xlink:href="#f1_a" transform="matrix(11,0,0,11,210,744.8)" />
<use xlink:href="#f1_d" transform="matrix(11,0,0,11,217.3,744.8)" />
<use xlink:href="#f1_9" transform="matrix(11,0,0,11,223.8,744.8)" />
<use xlink:href="#f1_x" transform="matrix(11,0,0,11,228.6,744.8)" />
<use xlink:href="#f1_8" transform="matrix(11,0,0,11,236,744.8)" />
<use xlink:href="#f1_9" transform="matrix(11,0,0,11,248.5,744.8)" />
<use xlink:href="#f1_b" transform="matrix(11,0,0,11,253.3,744.8)" />
<use xlink:href="#f1_a" transform="matrix(11,0,0,11,258.8,744.8)" />
<use xlink:href="#f1_d" transform="matrix(11,0,0,11,266.2,744.8)" />
<use xlink:href="#f1_w" transform="matrix(11,0,0,11,277,744.8)" />
<use xlink:href="#f1_i" transform="matrix(11,0,0,11,285.4,744.8)" />
<use xlink:href="#f1_b" transform="matrix(11,0,0,11,293.7,744.8)" />
<use xlink:href="#f1_n" transform="matrix(11,0,0,11,299.3,744.8)" />
<use xlink:href="#f1_2" transform="matrix(11,0,0,11,307.7,744.8)" />
<use xlink:href="#f1_d" transform="matrix(11,0,0,11,315.2,744.8)" />
<use xlink:href="#f1_1f" transform="matrix(10.5,0,0,10.5,322.1,744.8)" />
<use xlink:href="#f2_o" transform="matrix(12,0,0,12,461.8,768.3)" />
<use xlink:href="#f2_8" transform="matrix(12,0,0,12,467.7,768.3)" />
<use xlink:href="#f2_4" transform="matrix(12,0,0,12,479.9,768.3)" />
<use xlink:href="#f2_b" transform="matrix(12,0,0,12,483.8,768.3)" />
<use xlink:href="#f2_f" transform="matrix(12,0,0,12,493.9,768.3)" />
<use xlink:href="#f2_4" transform="matrix(12,0,0,12,504.3,768.3)" />
<use xlink:href="#f2_e" transform="matrix(12,0,0,12,514.4,768.3)" />
<use xlink:href="#f2_m" transform="matrix(12,0,0,12,526.3,768.3)" />
<use xlink:href="#f2_n" transform="matrix(12,0,0,12,537.7,768.3)" />
<use xlink:href="#f2_r" transform="matrix(12,0,0,12,550.7,768.3)" />
<use xlink:href="#f2_a" transform="matrix(12,0,0,12,562.6,768.3)" />
<use xlink:href="#f2_8" transform="matrix(12,0,0,12,573.5,768.3)" />
<use xlink:href="#f2_4" transform="matrix(12,0,0,12,585.7,768.3)" />
<use xlink:href="#f2_n" transform="matrix(12,0,0,12,589.8,768.3)" />
<use xlink:href="#f2_4" transform="matrix(12,0,0,12,602.8,768.3)" />
<use xlink:href="#f2_g" transform="matrix(12,0,0,12,606.9,768.3)" />
<use xlink:href="#f2_c" transform="matrix(12,0,0,12,619.2,768.3)" />
<use xlink:href="#f2_8" transform="matrix(12,0,0,12,637.1,768.3)" />
<use xlink:href="#f2_e" transform="matrix(12,0,0,12,649.3,768.3)" />
<use xlink:href="#f1_1o" transform="matrix(11,0,0,11,137.7,766.9)" />
<use xlink:href="#f1_e" transform="matrix(11,0,0,11,147.9,766.9)" />
<use xlink:href="#f1_e" transform="matrix(11,0,0,11,152.6,766.9)" />
<use xlink:href="#f1_i" transform="matrix(11,0,0,11,157.3,766.9)" />
<use xlink:href="#f1_d" transform="matrix(11,0,0,11,165.6,766.9)" />
<use xlink:href="#f1_d" transform="matrix(11,0,0,11,176.4,766.9)" />
<use xlink:href="#f1_i" transform="matrix(11,0,0,11,183,766.9)" />
<use xlink:href="#f1_8" transform="matrix(11,0,0,11,191.4,766.9)" />
<use xlink:href="#f1_l" transform="matrix(11,0,0,11,203.9,766.9)" />
<use xlink:href="#f1_4" transform="matrix(11,0,0,11,211.3,766.9)" />
<use xlink:href="#f1_8" transform="matrix(11,0,0,11,216.1,766.9)" />
<use xlink:href="#f1_l" transform="matrix(11,0,0,11,224.5,766.9)" />
<use xlink:href="#f1_k" transform="matrix(11,0,0,11,231.9,766.9)" />
<use xlink:href="#f1_a" transform="matrix(11,0,0,11,240.2,766.9)" />
<use xlink:href="#f1_8" transform="matrix(11,0,0,11,247.6,766.9)" />
<use xlink:href="#f1_9" transform="matrix(11,0,0,11,256,766.9)" />
<use xlink:href="#f1_2" transform="matrix(11,0,0,11,260.8,766.9)" />
<use xlink:href="#f1_z" transform="matrix(11,0,0,11,272.3,766.9)" />
<use xlink:href="#f1_8" transform="matrix(11,0,0,11,285,766.9)" />
<use xlink:href="#f1_k" transform="matrix(11,0,0,11,293.4,766.9)" />
<use xlink:href="#f1_a" transform="matrix(11,0,0,11,301.8,766.9)" />
<use xlink:href="#f1_3" transform="matrix(11,0,0,11,309.3,766.9)" />
<use xlink:href="#f1_a" transform="matrix(11,0,0,11,317.5,766.9)" />
<use xlink:href="#f1_8" transform="matrix(11,0,0,11,329.3,766.9)" />
<use xlink:href="#f1_4" transform="matrix(11,0,0,11,337.7,766.9)" />
<use xlink:href="#f1_g" transform="matrix(11,0,0,11,342.4,766.9)" />
<use xlink:href="#f1_i" transform="matrix(11,0,0,11,350.8,766.9)" />
<use xlink:href="#f1_d" transform="matrix(11,0,0,11,359,766.9)" />
<use xlink:href="#f1_1f" transform="matrix(10.5,0,0,10.5,365.9,766.9)" />
<use xlink:href="#f2_o" transform="matrix(12,0,0,12,480.5,790.5)" />
<use xlink:href="#f2_r" transform="matrix(12,0,0,12,486.3,790.5)" />
<use xlink:href="#f2_4" transform="matrix(12,0,0,12,498.3,790.5)" />
<use xlink:href="#f2_9" transform="matrix(12,0,0,12,502.4,790.5)" />
<use xlink:href="#f2_e" transform="matrix(12,0,0,12,513,790.5)" />
<use xlink:href="#f2_f" transform="matrix(12,0,0,12,530.8,790.5)" />
<use xlink:href="#f2_m" transform="matrix(12,0,0,12,541.2,790.5)" />
<use xlink:href="#f2_9" transform="matrix(12,0,0,12,552.7,790.5)" />
<use xlink:href="#f2_e" transform="matrix(12,0,0,12,569.1,790.5)" />
<use xlink:href="#f2_r" transform="matrix(12,0,0,12,581,790.5)" />
<use xlink:href="#f2_q" transform="matrix(12,0,0,12,593,790.5)" />
<use xlink:href="#f2_8" transform="matrix(12,0,0,12,611.2,790.5)" />
<use xlink:href="#f2_a" transform="matrix(12,0,0,12,623.4,790.5)" />
<use xlink:href="#f2_f" transform="matrix(12,0,0,12,628.4,790.5)" />
<use xlink:href="#f2_c" transform="matrix(12,0,0,12,638.8,790.5)" />
<use xlink:href="#f2_9" transform="matrix(12,0,0,12,650.7,790.5)" />
<use xlink:href="#f1_1o" transform="matrix(11,0,0,11,137.7,789.1)" />
<use xlink:href="#f1_8" transform="matrix(11,0,0,11,147.9,789.1)" />
<use xlink:href="#f1_a" transform="matrix(11,0,0,11,160.6,789.1)" />
<use xlink:href="#f1_e" transform="matrix(11,0,0,11,167.9,789.1)" />
<use xlink:href="#f1_d" transform="matrix(11,0,0,11,176.9,789.1)" />
<use xlink:href="#f1_k" transform="matrix(11,0,0,11,183.4,789.1)" />
<use xlink:href="#f1_a" transform="matrix(11,0,0,11,191.8,789.1)" />
<use xlink:href="#f1_g" transform="matrix(11,0,0,11,199.3,789.1)" />
<use xlink:href="#f1_i" transform="matrix(11,0,0,11,207.7,789.1)" />
<use xlink:href="#f1_1b" transform="matrix(11,0,0,11,220.2,789.1)" />
<use xlink:href="#f1_9" transform="matrix(11,0,0,11,225.8,789.1)" />
<use xlink:href="#f1_1g" transform="matrix(11,0,0,11,230.4,789.1)" />
<use xlink:href="#f1_1d" transform="matrix(11,0,0,11,238.8,789.1)" />
<use xlink:href="#f1_a" transform="matrix(11,0,0,11,248.6,789.1)" />
<use xlink:href="#f1_b" transform="matrix(11,0,0,11,256,789.1)" />
<use xlink:href="#f1_a" transform="matrix(11,0,0,11,261.7,789.1)" />
<use xlink:href="#f1_d" transform="matrix(11,0,0,11,269.1,789.1)" />
<use xlink:href="#f1_a" transform="matrix(11,0,0,11,279.8,789.1)" />
<use xlink:href="#f1_e" transform="matrix(11,0,0,11,287.3,789.1)" />
<use xlink:href="#f1_n" transform="matrix(11,0,0,11,296.1,789.1)" />
<use xlink:href="#f1_k" transform="matrix(11,0,0,11,304.5,789.1)" />
<use xlink:href="#f1_a" transform="matrix(11,0,0,11,312.9,789.1)" />
<use xlink:href="#f1_g" transform="matrix(11,0,0,11,320.4,789.1)" />
<use xlink:href="#f1_i" transform="matrix(11,0,0,11,328.8,789.1)" />
<use xlink:href="#f1_1f" transform="matrix(10.5,0,0,10.5,337.5,789.1)" />
<use xlink:href="#f2_o" transform="matrix(12,0,0,12,440,812.6)" />
<use xlink:href="#f2_q" transform="matrix(12,0,0,12,445.8,812.6)" />
<use xlink:href="#f2_f" transform="matrix(12,0,0,12,458,812.6)" />
<use xlink:href="#f2_8" transform="matrix(12,0,0,12,474.2,812.6)" />
<use xlink:href="#f2_m" transform="matrix(12,0,0,12,486.5,812.6)" />
<use xlink:href="#f2_j" transform="matrix(12,0,0,12,497.9,812.6)" />
<use xlink:href="#f2_z" transform="matrix(12,0,0,12,515.2,812.6)" />
<use xlink:href="#f2_q" transform="matrix(12,0,0,12,526.9,812.6)" />
<use xlink:href="#f2_1x" transform="matrix(12,0,0,12,545.1,812.6)" />
<use xlink:href="#f2_r" transform="matrix(12,0,0,12,554.8,812.6)" />
<use xlink:href="#f2_4" transform="matrix(12,0,0,12,566.9,812.6)" />
<use xlink:href="#f2_9" transform="matrix(12,0,0,12,571,812.6)" />
<use xlink:href="#f2_e" transform="matrix(12,0,0,12,581.5,812.6)" />
<use xlink:href="#f2_f" transform="matrix(12,0,0,12,599.3,812.6)" />
<use xlink:href="#f2_m" transform="matrix(12,0,0,12,609.7,812.6)" />
<use xlink:href="#f2_9" transform="matrix(12,0,0,12,621.1,812.6)" />
<use xlink:href="#f2_4" transform="matrix(12,0,0,12,637.6,812.6)" />
<use xlink:href="#f2_6" transform="matrix(12,0,0,12,641.7,812.6)" />
<use xlink:href="#f2_q" transform="matrix(12,0,0,12,649,812.6)" />
<use xlink:href="#f1_1u" transform="matrix(11,0,0,11,137.7,811.3)" />
<use xlink:href="#f1_1j" transform="matrix(11,0,0,11,145.1,811.3)" />
<use xlink:href="#f1_i" transform="matrix(11,0,0,11,157.2,811.3)" />
<use xlink:href="#f1_d" transform="matrix(11,0,0,11,169.8,811.3)" />
<use xlink:href="#f1_i" transform="matrix(11,0,0,11,176.4,811.3)" />
<use xlink:href="#f1_z" transform="matrix(11,0,0,11,184.8,811.3)" />
<use xlink:href="#f1_a" transform="matrix(11,0,0,11,201.6,811.3)" />
<use xlink:href="#f1_e" transform="matrix(11,0,0,11,208.9,811.3)" />
<use xlink:href="#f1_n" transform="matrix(11,0,0,11,217.9,811.3)" />
<use xlink:href="#f1_k" transform="matrix(11,0,0,11,226.3,811.3)" />
<use xlink:href="#f1_a" transform="matrix(11,0,0,11,234.7,811.3)" />
<use xlink:href="#f1_g" transform="matrix(11,0,0,11,242.2,811.3)" />
<use xlink:href="#f1_i" transform="matrix(11,0,0,11,250.6,811.3)" />
<use xlink:href="#f1_1w" transform="matrix(11,0,0,11,258.8,811.3)" />
<use xlink:href="#f1_u" transform="matrix(11,0,0,11,270.6,811.3)" />
<use xlink:href="#f1_2" transform="matrix(11,0,0,11,275.1,811.3)" />
<use xlink:href="#f1_m" transform="matrix(11,0,0,11,282.6,811.3)" />
<use xlink:href="#f1_x" transform="matrix(11,0,0,11,295.7,811.3)" />
<use xlink:href="#f1_d" transform="matrix(11,0,0,11,303.2,811.3)" />
<use xlink:href="#f1_1f" transform="matrix(10.5,0,0,10.5,310,811.3)" />
<use xlink:href="#f2_o" transform="matrix(12,0,0,12,518.7,834.8)" />
<use xlink:href="#f2_3" transform="matrix(12,0,0,12,530.3,834.8)" />
<use xlink:href="#f2_b" transform="matrix(12,0,0,12,540.7,834.8)" />
<use xlink:href="#f2_c" transform="matrix(12,0,0,12,550.7,834.8)" />
<use xlink:href="#f2_9" transform="matrix(12,0,0,12,562.7,834.8)" />
<use xlink:href="#f2_8" transform="matrix(12,0,0,12,579,834.8)" />
<use xlink:href="#f2_4" transform="matrix(12,0,0,12,591.2,834.8)" />
<use xlink:href="#f2_4" transform="matrix(12,0,0,12,595.3,834.8)" />
<use xlink:href="#f2_j" transform="matrix(12,0,0,12,599.4,834.8)" />
<use xlink:href="#f2_i" transform="matrix(12,0,0,12,610.9,834.8)" />
<use xlink:href="#f2_n" transform="matrix(12,0,0,12,623.9,834.8)" />
<use xlink:href="#f2_g" transform="matrix(12,0,0,12,636.8,834.8)" />
<use xlink:href="#f2_e" transform="matrix(12,0,0,12,649.3,834.8)" />
<use xlink:href="#f1_1m" transform="matrix(11,0,0,11,137.7,833.4)" />
<use xlink:href="#f1_i" transform="matrix(11,0,0,11,147.9,833.4)" />
<use xlink:href="#f1_d" transform="matrix(11,0,0,11,156.3,833.4)" />
<use xlink:href="#f1_e" transform="matrix(11,0,0,11,167.1,833.4)" />
<use xlink:href="#f1_a" transform="matrix(11,0,0,11,171.7,833.4)" />
<use xlink:href="#f1_8" transform="matrix(11,0,0,11,179.2,833.4)" />
<use xlink:href="#f1_9" transform="matrix(11,0,0,11,187.6,833.4)" />
<use xlink:href="#f1_a" transform="matrix(11,0,0,11,192.3,833.4)" />
<use xlink:href="#f1_d" transform="matrix(11,0,0,11,199.6,833.4)" />
<use xlink:href="#f1_a" transform="matrix(11,0,0,11,210.4,833.4)" />
<use xlink:href="#f1_d" transform="matrix(11,0,0,11,217.9,833.4)" />
<use xlink:href="#f1_9" transform="matrix(11,0,0,11,224.3,833.4)" />
<use xlink:href="#f1_x" transform="matrix(11,0,0,11,229,833.4)" />
<use xlink:href="#f1_8" transform="matrix(11,0,0,11,236.5,833.4)" />
<use xlink:href="#f1_a" transform="matrix(11,0,0,11,249.2,833.4)" />
<use xlink:href="#f1_8" transform="matrix(11,0,0,11,256.5,833.4)" />
<use xlink:href="#f1_e" transform="matrix(11,0,0,11,269.2,833.4)" />
<use xlink:href="#f1_2" transform="matrix(11,0,0,11,273.8,833.4)" />
<use xlink:href="#f1_o" transform="matrix(11,0,0,11,285.5,833.4)" />
<use xlink:href="#f1_2" transform="matrix(11,0,0,11,293.9,833.4)" />
<use xlink:href="#f1_p" transform="matrix(11,0,0,11,301.4,833.4)" />
<use xlink:href="#f1_4" transform="matrix(11,0,0,11,309.6,833.4)" />
<use xlink:href="#f1_9" transform="matrix(11,0,0,11,314.3,833.4)" />
<use xlink:href="#f1_2" transform="matrix(11,0,0,11,319.1,833.4)" />
<use xlink:href="#f1_l" transform="matrix(11,0,0,11,326.4,833.4)" />
<use xlink:href="#f1_4" transform="matrix(11,0,0,11,333.8,833.4)" />
<use xlink:href="#f1_5" transform="matrix(11,0,0,11,338.6,833.4)" />
<use xlink:href="#f1_8" transform="matrix(11,0,0,11,347,833.4)" />
<use xlink:href="#f1_1f" transform="matrix(10.5,0,0,10.5,355.7,833.4)" />
</g>
<g fill="#0000FF" >
<use xlink:href="#f2_i" transform="matrix(12,0,0,12,669.9,876.2)" />
<use xlink:href="#f2_3" transform="matrix(12,0,0,12,682.9,876.2)" />
<use xlink:href="#f2_j" transform="matrix(12,0,0,12,693.1,876.2)" />
<use xlink:href="#f2_f" transform="matrix(12,0,0,12,704.6,876.2)" />
<use xlink:href="#f2_e" transform="matrix(12,0,0,12,720.9,876.2)" />
<use xlink:href="#f2_3" transform="matrix(12,0,0,12,732.8,876.2)" />
<use xlink:href="#f2_h" transform="matrix(12,0,0,12,743.2,876.2)" />
<use xlink:href="#f2_c" transform="matrix(12,0,0,12,749.6,876.2)" />
<use xlink:href="#f2_9" transform="matrix(12,0,0,12,761.5,876.2)" />
</g>
</g>
<path d="M669.8,878H772.1" class="g1_11" />
<g clip-path="url(#c0_11)">
<g fill="#000000" >
<use xlink:href="#f2_18" transform="matrix(12,0,0,12,137.7,1208.5)" />
<use xlink:href="#f2_18" transform="matrix(12,0,0,12,149.3,1208.5)" />
</g>
</g>
<defs>
<path d="M248,0L521,658H66v429H313V836l493,-1V716L504,0Z" 
id="f0_c"
transform="scale(0.001,-0.001)" />

<path d="M102,250V836H349V351L102,250Z" 
id="f0_9"
transform="scale(0.001,-0.001)" />

<path d="M154,-13c0,0,-38,0,-85,9V198c0,0,58,-15,103,-15c0,0,84,0,118,60c0,0,35,61,35,206c0,0,0,66,-7,105c0,0,-6,39,-24,63c0,0,-17,25,-44,33c0,0,-27,8,-73,8H66V836H225c0,0,198,0,275,-115c0,0,56,-84,65,-264c0,0,3,-55,3,-148c0,0,0,-177,71,-309L393,1c0,0,-53,130,-54,141c0,0,-28,-90,-65,-123c0,0,-38,-32,-120,-32Z" 
id="f0_k"
transform="scale(0.001,-0.001)" />

<path d="M534,0V425c0,0,0,109,-41,171c0,0,-41,62,-140,62H66V836H352c0,0,99,0,174,-20c0,0,75,-20,123,-55c0,0,48,-35,78,-87c0,0,30,-53,42,-113c0,0,12,-60,12,-136V0Z" 
id="f0_4"
transform="scale(0.001,-0.001)" />

<path d="M173,-6C173,-6,61,-6,15,9V177c0,0,73,-10,82,-10c0,0,37,0,52,30c0,0,14,29,14,116V658H18V836H516c0,0,262,0,341,-145c0,0,48,-89,48,-242V0H658V450c0,0,0,131,-37,171c0,0,-34,37,-105,37H411V313c0,0,0,-189,-67,-258C344,55,285,-6,173,-6Z" 
id="f0_7"
transform="scale(0.001,-0.001)" />

<path d="M121,0V211L528,570c0,0,54,50,80,96c0,0,27,47,27,98c0,0,0,78,-53,126c0,0,-53,48,-140,48c0,0,-67,0,-147,-29c0,0,-80,-28,-171,-85v245c0,0,97,32,192,48c0,0,95,17,186,17c0,0,199,0,310,-88c0,0,111,-88,111,-245c0,0,0,-91,-47,-170c0,0,-47,-79,-197,-211L441,211H931V0Z" 
id="f0_6"
transform="scale(0.001,-0.001)" />

<path d="M350,-14c0,0,-142,0,-269,31L73,228h49L156,87c0,0,29,-16,82,-28c0,0,54,-12,100,-12c0,0,117,0,173,54c0,0,56,53,56,178c0,0,0,99,-52,150c0,0,-51,51,-159,56l-107,6v61l107,7c0,0,84,5,124,52c0,0,41,48,41,145c0,0,0,101,-44,147c0,0,-44,45,-139,45c0,0,-40,0,-83,-10c0,0,-43,-11,-76,-29L153,786H104V979c0,0,74,19,127,26c0,0,54,6,107,6c0,0,321,0,321,-246c0,0,0,-104,-57,-165c0,0,-57,-62,-162,-77c0,0,136,-16,200,-78c0,0,64,-62,64,-173c0,0,0,-135,-92,-211c0,0,-93,-75,-262,-75Z" 
id="f1_13"
transform="scale(0.001,-0.001)" />

<path d="M350,-14c0,0,-142,0,-253,31L89,228h49L172,87c0,0,32,-18,78,-29c0,0,46,-11,88,-11c0,0,118,0,173,56c0,0,56,55,56,187c0,0,0,93,-24,140c0,0,-24,47,-76,70c0,0,-52,22,-140,22c0,0,-68,0,-133,-18H122v496H630V886H189V567c0,0,81,18,173,18c0,0,173,0,258,-71c0,0,84,-71,84,-216c0,0,0,-151,-92,-232c0,0,-91,-80,-262,-80Z" 
id="f1_15"
transform="scale(0.001,-0.001)" />

<path d="M249,-14c0,0,-71,0,-107,42c0,0,-35,42,-35,119V639H15v33l93,29l76,159h47V701H391V639H231V161c0,0,0,-48,22,-73c0,0,22,-24,57,-24c0,0,44,0,106,12V26C416,26,389,8,340,-2c0,0,-49,-12,-91,-12Z" 
id="f1_9"
transform="scale(0.001,-0.001)" />

<path d="M31,0V33l88,19V649L31,668v33H235l7,-87c0,0,44,37,121,71c0,0,76,35,121,35h11V530H463l-43,82c0,0,-37,0,-88,-10c0,0,-52,-10,-89,-26V52L363,33V0Z" 
id="f1_b"
transform="scale(0.001,-0.001)" />

<path d="M495,413c0,0,0,133,-34,190c0,0,-34,57,-105,57c0,0,-78,0,-119,-63c0,0,-42,-62,-42,-184ZM374,-14c0,0,-163,0,-239,87c0,0,-75,88,-75,283c0,0,0,183,77,273c0,0,76,91,219,91c0,0,269,0,269,-306V353H194V340c0,0,0,-103,23,-160c0,0,22,-57,70,-87c0,0,47,-29,124,-29c0,0,40,0,96,6c0,0,55,7,91,15V43C598,43,562,20,500,3c0,0,-61,-17,-126,-17Z" 
id="f1_a"
transform="scale(0.001,-0.001)" />

<path d="M32,0V33L151,52V649L52,668v33H275V52L395,33V0ZM201,850c0,0,-32,0,-56,24c0,0,-24,24,-24,56c0,0,0,34,24,58c0,0,24,24,56,24c0,0,34,0,58,-24c0,0,24,-24,24,-58c0,0,0,-32,-24,-56c0,0,-24,-24,-58,-24Z" 
id="f1_4"
transform="scale(0.001,-0.001)" />

<path d="M439,0V33l93,19V500c0,0,0,62,-30,97c0,0,-31,36,-94,36c0,0,-67,0,-165,-22V52L338,33V0H35V33l84,19V649L35,668v33H235l7,-57c0,0,57,33,122,54c0,0,65,22,108,22c0,0,91,0,137,-53c0,0,47,-53,47,-154V52L741,33V0Z" 
id="f1_8"
transform="scale(0.001,-0.001)" />

<path d="M284,67c0,0,51,0,88,12c0,0,37,12,74,30V358l-98,-3c0,0,-100,-4,-135,-39c0,0,-35,-35,-35,-117c0,0,0,-132,106,-132ZM233,-14c0,0,-179,0,-179,208c0,0,0,70,27,116c0,0,27,46,87,70c0,0,60,24,173,27l105,3V519c0,0,0,72,-26,107c0,0,-27,34,-82,34c0,0,-75,0,-137,-35L176,538H134V691c0,0,121,26,213,26c0,0,115,0,169,-47c0,0,54,-47,54,-144V52L657,33V0H465L451,70c0,0,-85,-84,-218,-84Z" 
id="f1_2"
transform="scale(0.001,-0.001)" />

<path d="M148,-329c0,0,-58,0,-114,13v151H69l24,-71c0,0,23,-17,64,-17c0,0,39,0,72,22c0,0,33,23,60,67c0,0,27,44,68,157L90,649L19,668v33H344V668L233,648L423,158L606,649L497,668v33H758V668L685,652L411,-43c0,0,-48,-124,-84,-177c0,0,-36,-54,-79,-82c0,0,-44,-27,-100,-27Z" 
id="f1_z"
transform="scale(0.001,-0.001)" />

<path d="M399,-14c0,0,-341,0,-341,370c0,0,0,175,87,269c0,0,87,95,249,95c0,0,101,0,220,-23V501H573L541,625c0,0,-62,35,-149,35c0,0,-200,0,-200,-304c0,0,0,-158,61,-225c0,0,61,-67,189,-67c0,0,109,0,189,24V43C631,43,595,16,530,1c0,0,-64,-15,-131,-15Z" 
id="f1_l"
transform="scale(0.001,-0.001)" />

<path d="M377,45c0,0,99,0,147,73c0,0,47,73,47,237c0,0,0,161,-47,233c0,0,-47,72,-147,72c0,0,-97,0,-141,-69c0,0,-44,-69,-44,-236c0,0,0,-169,45,-240c0,0,44,-70,140,-70Zm0,-59c0,0,-158,0,-238,94c0,0,-81,95,-81,274c0,0,0,178,81,272c0,0,80,94,244,94c0,0,160,0,241,-92c0,0,82,-92,82,-274c0,0,0,-368,-329,-368Z" 
id="f1_i"
transform="scale(0.001,-0.001)" />

<path d="M134,0V40L339,60V876L137,804v39l292,166h39V60L672,40V0Z" 
id="f1_11"
transform="scale(0.001,-0.001)" />

<path d="M383,64c0,0,44,0,87,7c0,0,43,7,65,17V645c0,0,-67,13,-152,13c0,0,-194,0,-194,-309c0,0,0,-143,48,-214c0,0,47,-71,146,-71Zm56,-389v35l96,18V-77c0,0,0,73,7,124c0,0,-79,-61,-200,-61c0,0,-287,0,-287,362c0,0,0,180,81,276c0,0,81,96,237,96c0,0,84,0,166,-18l67,33h53V-272l77,-18v-35Z" 
id="f1_16"
transform="scale(0.001,-0.001)" />

<path d="M289,-14c0,0,-179,0,-179,205V649L20,668v33H233V200c0,0,0,-128,120,-128c0,0,92,0,173,23V649L420,668v33H649V52L738,33V0H533l-6,57C527,57,474,28,405,7c0,0,-69,-21,-116,-21Z" 
id="f1_k"
transform="scale(0.001,-0.001)" />

<path d="M377,45c0,0,99,0,145,108c0,0,46,109,46,352c0,0,0,240,-45,345c0,0,-46,106,-146,106c0,0,-97,0,-139,-100c0,0,-43,-99,-43,-351c0,0,0,-254,44,-357c0,0,43,-103,138,-103Zm0,-59c0,0,-158,0,-238,132c0,0,-81,133,-81,386c0,0,0,249,81,380c0,0,80,132,244,132c0,0,159,0,241,-130c0,0,82,-130,82,-382c0,0,0,-518,-329,-518Z" 
id="f1_10"
transform="scale(0.001,-0.001)" />

<path d="M476,327V830h-4L114,327ZM476,0V220H30v99l488,686h86V327H740V220H604V0Z" 
id="f1_14"
transform="scale(0.001,-0.001)" />

<path d="M377,45c0,0,100,0,147,52c0,0,47,52,47,174c0,0,0,119,-46,173c0,0,-47,54,-148,54c0,0,-98,0,-141,-51c0,0,-44,-51,-44,-176c0,0,0,-126,44,-176c0,0,44,-50,141,-50Zm2,518c0,0,84,0,123,46c0,0,39,46,39,148c0,0,0,102,-40,151c0,0,-41,48,-122,48c0,0,-79,0,-118,-47c0,0,-38,-47,-38,-152c0,0,0,-104,37,-149c0,0,38,-45,119,-45ZM377,-14c0,0,-319,0,-319,285c0,0,0,99,48,164c0,0,48,66,129,96c0,0,-65,30,-106,87c0,0,-40,56,-40,139c0,0,0,123,75,191c0,0,76,68,219,68c0,0,139,0,216,-67c0,0,76,-68,76,-192c0,0,0,-82,-40,-139c0,0,-40,-57,-108,-87c0,0,85,-31,132,-98c0,0,47,-67,47,-162c0,0,0,-142,-80,-214c0,0,-80,-71,-249,-71Z" 
id="f1_19"
transform="scale(0.001,-0.001)" />

<path d="M442,0V33l93,19V504c0,0,0,129,-124,129c0,0,-70,0,-168,-22V52L338,33V0H31V33l88,19v956L15,1026v34H243V756c0,0,0,-77,-5,-112c0,0,54,31,122,53c0,0,68,23,115,23c0,0,91,0,137,-53c0,0,47,-53,47,-154V52L744,33V0Z" 
id="f1_o"
transform="scale(0.001,-0.001)" />

<path d="M410,45c0,0,90,0,130,58c0,0,40,59,40,193c0,0,0,122,-38,177c0,0,-38,54,-122,54c0,0,-102,0,-217,-37c0,0,0,-227,51,-336c0,0,52,-109,156,-109Zm3,-59c0,0,-169,0,-258,131c0,0,-89,131,-89,377c0,0,0,161,47,278c0,0,47,117,131,178c0,0,85,61,196,61c0,0,109,0,217,-26V813H608L582,915c0,0,-25,13,-67,23c0,0,-41,10,-75,10c0,0,-109,0,-170,-105c0,0,-60,-106,-66,-308c0,0,121,63,244,63c0,0,132,0,201,-74c0,0,69,-74,69,-214c0,0,0,-156,-78,-240c0,0,-79,-84,-227,-84Z" 
id="f1_17"
transform="scale(0.001,-0.001)" />

<path d="M67,0V109L206,235c0,0,133,118,196,190c0,0,63,72,90,149c0,0,27,77,27,177c0,0,0,97,-44,148c0,0,-44,50,-144,50c0,0,-39,0,-81,-10c0,0,-42,-11,-74,-29L150,787H101V980c0,0,135,32,230,32c0,0,164,0,247,-68c0,0,82,-69,82,-193c0,0,0,-84,-32,-158c0,0,-33,-75,-100,-148c0,0,-67,-74,-222,-206c0,0,-67,-57,-141,-125H680V0Z" 
id="f1_12"
transform="scale(0.001,-0.001)" />

<path d="M278,-14c0,0,-52,0,-115,11c0,0,-63,10,-99,23V193H98L134,95c0,0,56,-50,146,-50c0,0,144,0,144,123c0,0,0,91,-114,130l-66,21c0,0,-75,25,-110,50c0,0,-34,26,-53,63c0,0,-18,36,-18,89c0,0,0,92,63,145c0,0,63,54,170,54c0,0,77,0,193,-23V544H454l-32,81c0,0,-39,35,-124,35c0,0,-61,0,-92,-30c0,0,-32,-30,-32,-80c0,0,0,-43,29,-72c0,0,28,-29,86,-48c0,0,110,-38,144,-55c0,0,33,-17,57,-42c0,0,23,-25,36,-57c0,0,13,-32,13,-79c0,0,0,-104,-66,-158c0,0,-66,-53,-195,-53Z" 
id="f1_d"
transform="scale(0.001,-0.001)" />

<path d="M383,64c0,0,85,0,152,28V645c0,0,-67,13,-152,13c0,0,-194,0,-194,-314c0,0,0,-141,48,-211c0,0,48,-69,146,-69ZM342,-14c0,0,-287,0,-287,358c0,0,0,184,82,280c0,0,81,96,239,96c0,0,81,0,163,-18c0,0,-4,25,-4,124v182l-118,18v34H659V52L745,33V0H548l-9,52c0,0,-84,-66,-197,-66Z" 
id="f1_n"
transform="scale(0.001,-0.001)" />

<path d="M178,0L615,886H176L150,764H101v236H720V943L274,0Z" 
id="f1_18"
transform="scale(0.001,-0.001)" />

<path d="M370,468c0,0,96,0,194,40c0,0,0,229,-45,336c0,0,-45,107,-146,107c0,0,-187,0,-187,-259c0,0,0,-115,45,-169c0,0,45,-55,139,-55ZM312,-14c0,0,-122,0,-223,25V184h48L163,76c0,0,24,-11,65,-20c0,0,40,-9,81,-9c0,0,119,0,183,105c0,0,65,104,71,307c0,0,-113,-62,-230,-62c0,0,-132,0,-208,79c0,0,-76,78,-76,219c0,0,0,151,85,233c0,0,84,83,237,83c0,0,171,0,251,-123c0,0,79,-123,79,-385c0,0,0,-252,-102,-385C599,118,497,-14,312,-14Z" 
id="f1_1a"
transform="scale(0.001,-0.001)" />

<path d="M360,-14L72,649L0,668v33H327V668L216,648L420,164L615,649L504,668v33H764V668L697,652L416,-14Z" 
id="f1_3"
transform="scale(0.001,-0.001)" />

<path d="M431,0V33L535,52V499c0,0,0,62,-32,96c0,0,-32,33,-95,33c0,0,-66,0,-163,-22V52L350,33V0H32V33l89,19V649L32,668v33H237l6,-57c0,0,56,32,119,54c0,0,62,22,110,22c0,0,52,0,95,-20c0,0,44,-19,66,-62c0,0,57,32,134,57c0,0,77,25,128,25c0,0,179,0,179,-207V52l90,-19V0H846V33L950,52V499c0,0,0,129,-119,129c0,0,-19,0,-45,-3c0,0,-26,-3,-52,-7c0,0,-25,-4,-49,-8c0,0,-23,-5,-39,-8c0,0,13,-41,13,-89V52L764,33V0Z" 
id="f1_m"
transform="scale(0.001,-0.001)" />

<path d="M31,0V33L150,52v956L31,1026v34H274V52L394,33V0Z" 
id="f1_e"
transform="scale(0.001,-0.001)" />

<path d="M58,-234v58c0,0,131,42,131,125c0,0,0,15,-11,27c0,0,-11,12,-38,25C140,1,89,27,89,75c0,0,0,40,25,61c0,0,26,21,65,21c0,0,48,0,77,-34c0,0,30,-34,30,-86c0,0,0,-101,-60,-170c0,0,-59,-69,-168,-101Z" 
id="f1_j"
transform="scale(0.001,-0.001)" />

<path d="M736,107V473c0,0,0,147,-48,202c0,0,-49,54,-187,54H278V107ZM139,0V836H499c0,0,105,0,177,-22c0,0,72,-21,116,-69c0,0,44,-49,64,-119c0,0,19,-71,19,-174V0Z" 
id="f2_8"
transform="scale(0.001,-0.001)" />

<path d="M102,312V836H241V369L102,312Z" 
id="f2_4"
transform="scale(0.001,-0.001)" />

<path d="M66,0V107H554V452c0,0,0,56,-4,93c0,0,-4,37,-18,75c0,0,-14,38,-40,60c0,0,-26,22,-71,36c0,0,-45,13,-110,13H66V836H312c0,0,91,0,157,-17c0,0,66,-17,109,-49c0,0,44,-32,69,-84c0,0,26,-52,36,-114c0,0,10,-62,10,-147V107H817V0Z" 
id="f2_9"
transform="scale(0.001,-0.001)" />

<path d="M287,0L589,729H66v386H205V836l547,-1l-2,-82L433,0Z" 
id="f2_f"
transform="scale(0.001,-0.001)" />

<path d="M66,0V106H322c0,0,75,0,127,23c0,0,53,23,82,67c0,0,29,43,42,98c0,0,13,54,13,124c0,0,0,70,-13,124c0,0,-13,55,-42,98c0,0,-29,44,-82,67c0,0,-52,23,-127,23H66V836H322c0,0,87,0,157,-24c0,0,70,-24,115,-64c0,0,45,-40,74,-94c0,0,30,-55,43,-113c0,0,13,-59,13,-123c0,0,0,-64,-13,-123c0,0,-13,-58,-43,-113c0,0,-29,-54,-74,-94C594,88,549,48,479,24C479,24,409,0,322,0Z" 
id="f2_5"
transform="scale(0.001,-0.001)" />

<path d="M112,-5c0,0,-39,0,-97,11V113c0,0,48,-10,77,-10c0,0,53,0,70,42c0,0,17,43,17,164V729H50V836H501c0,0,107,0,179,-25c0,0,72,-25,112,-77c0,0,40,-51,57,-118c0,0,16,-67,16,-164V0H726V454c0,0,0,55,-3,92c0,0,-4,37,-17,75c0,0,-14,38,-38,59c0,0,-24,22,-65,36c0,0,-42,13,-102,13H318V309c0,0,0,-160,-46,-237C272,72,226,-5,112,-5Z" 
id="f2_r"
transform="scale(0.001,-0.001)" />

<path d="M139,0V836H278V0Z" 
id="f2_a"
transform="scale(0.001,-0.001)" />

<path d="M139,0V138c0,0,0,61,8,112c0,0,7,52,19,87c0,0,11,36,30,66c0,0,19,31,35,49c0,0,17,19,41,35c0,0,25,17,41,25c0,0,17,7,40,17L141,836H303L613,388c0,0,20,10,33,18c0,0,13,8,34,28c0,0,20,20,33,44c0,0,13,25,22,66c0,0,10,41,10,92V836H882V698c0,0,0,-61,-7,-112c0,0,-6,-52,-18,-88c0,0,-12,-36,-30,-66c0,0,-19,-30,-36,-49c0,0,-17,-18,-41,-34c0,0,-24,-17,-40,-25c0,0,-17,-8,-41,-17L882,0H720L409,448c0,0,-21,-11,-34,-19c0,0,-13,-8,-34,-27c0,0,-21,-20,-34,-44c0,0,-12,-25,-22,-66c0,0,-9,-41,-9,-92V0Z" 
id="f2_q"
transform="scale(0.001,-0.001)" />

<path d="M114,0l60,312c0,0,2,12,8,39c0,0,6,27,7,37c0,0,2,11,5,30c0,0,2,19,4,33c0,0,1,15,1,31c0,0,0,48,-35,146c0,0,-35,98,-98,208H228c0,0,3,-8,27,-67c0,0,25,-58,41,-117c0,0,21,53,50,90c0,0,29,37,57,57c0,0,29,21,65,32c0,0,37,11,65,14c0,0,28,3,67,3c0,0,300,0,300,-396V0H480V106H761V452c0,0,0,146,-46,215c0,0,-45,70,-118,70c0,0,-134,0,-198,-119c0,0,-36,-68,-67,-222c0,0,-2,-10,-6,-27L253,0Z" 
id="f2_g"
transform="scale(0.001,-0.001)" />

<path d="M180,0L66,836H203L258,443c0,0,36,1,64,6c0,0,28,6,49,18c0,0,20,12,35,26c0,0,15,13,26,36c0,0,11,24,17,44c0,0,7,20,12,55c0,0,6,34,9,60c0,0,3,26,8,71c0,0,4,45,9,77H610c0,0,-13,-194,-31,-271c0,0,-31,-127,-111,-179c0,0,-71,-45,-196,-50L304,107c0,0,73,0,130,5c0,0,56,6,111,21c0,0,54,15,94,40c0,0,40,25,77,64c0,0,37,39,63,94c0,0,25,54,46,128c0,0,21,73,34,166c0,0,13,94,20,211h138c0,0,-14,-124,-29,-218c0,0,-16,-94,-39,-179c0,0,-22,-85,-50,-146c0,0,-28,-61,-68,-112c0,0,-39,-51,-87,-84C744,97,696,65,632,42C632,42,568,19,492,10C492,10,417,0,320,0Z" 
id="f2_n"
transform="scale(0.001,-0.001)" />

<path d="M382,45c0,0,188,0,188,314c0,0,0,143,-47,213c0,0,-46,69,-141,69c0,0,-87,0,-146,-24V58c0,0,67,-13,146,-13ZM25,-325v35l88,18V649L34,668v33H231l1,-41c0,0,31,27,84,43c0,0,53,17,107,17c0,0,134,0,208,-94c0,0,73,-93,73,-267c0,0,0,-178,-80,-276c0,0,-80,-97,-232,-97c0,0,-84,0,-160,16c0,0,4,-53,4,-84V-272l123,-18v-35Z" 
id="f1_t"
transform="scale(0.001,-0.001)" />

<path d="M345,75c0,0,50,0,110,26V351l-63,-2c0,0,-72,-3,-100,-38c0,0,-28,-35,-28,-113c0,0,0,-63,22,-93c0,0,23,-30,59,-30ZM266,-14c0,0,-217,0,-217,208c0,0,0,79,32,126c0,0,32,48,93,71c0,0,60,22,190,25l91,2V521c0,0,0,126,-104,126c0,0,-62,0,-140,-39L183,521H134V691c0,0,112,17,165,21c0,0,53,5,108,5c0,0,264,0,264,-194V67L741,49V0H483L466,54C466,54,408,14,361,0c0,0,-47,-14,-95,-14Z" 
id="f3_d"
transform="scale(0.001,-0.001)" />

<path d="M276,-14c0,0,-57,0,-125,13C151,-1,83,10,48,23V214H97l28,-98c0,0,26,-26,69,-44c0,0,42,-17,86,-17c0,0,65,0,97,28c0,0,32,28,32,71c0,0,0,41,-31,65c0,0,-30,25,-133,57c0,0,-108,34,-154,92c0,0,-45,58,-45,143c0,0,0,95,71,152c0,0,71,57,183,57c0,0,77,0,207,-22V518H457l-24,82c0,0,-21,22,-60,35c0,0,-40,14,-75,14c0,0,-53,0,-79,-22c0,0,-26,-22,-26,-59c0,0,0,-40,32,-65c0,0,32,-26,132,-55c0,0,109,-34,155,-89c0,0,45,-55,45,-137c0,0,0,-117,-72,-177c0,0,-72,-59,-209,-59Z" 
id="f3_n"
transform="scale(0.001,-0.001)" />

<path d="M585,0V426c0,0,0,54,-8,98c0,0,-8,44,-27,83c0,0,-19,40,-49,66c0,0,-30,26,-77,41c0,0,-47,15,-108,15H66V836H315c0,0,94,0,166,-20c0,0,71,-20,116,-54c0,0,46,-35,75,-88c0,0,28,-52,40,-112c0,0,12,-60,12,-137V0Z" 
id="f2_3"
transform="scale(0.001,-0.001)" />

<path d="M700,-317V454c0,0,0,155,-54,215c0,0,-54,60,-180,60H277V551c0,0,0,-55,26,-80c0,0,27,-26,82,-26c0,0,30,0,80,10V341c0,0,-61,-11,-111,-11c0,0,-100,0,-157,55c0,0,-58,55,-58,186V836H466c0,0,203,0,288,-91c0,0,85,-92,85,-293V-317Z" 
id="f2_z"
transform="scale(0.001,-0.001)" />

<path d="M156,-317V454l139,56V-317ZM505,0L806,729H139V835H967V753L650,0Z" 
id="f2_i"
transform="scale(0.001,-0.001)" />

<path d="M139,0V106H400c0,0,176,0,253,71c0,0,78,72,78,250c0,0,0,163,-80,233c0,0,-81,69,-250,69H278L277,564c0,0,-1,-54,26,-80c0,0,27,-25,82,-25c0,0,30,0,80,9V355c0,0,-61,-12,-111,-12c0,0,-100,0,-157,55c0,0,-58,55,-58,186V836H456c0,0,193,0,303,-109c0,0,110,-109,110,-309c0,0,0,-200,-110,-309C759,109,648,0,456,0Z" 
id="f2_j"
transform="scale(0.001,-0.001)" />

<path d="M154,0V454l138,56V0ZM722,0V454c0,0,0,161,-49,218c0,0,-48,57,-186,57H139V836H485c0,0,207,0,291,-93c0,0,83,-94,83,-318V0Z" 
id="f2_e"
transform="scale(0.001,-0.001)" />

<path d="M152,0V473c0,0,0,94,28,161c0,0,29,66,71,95H66V836H463V729H404c0,0,-65,0,-89,-57c0,0,-25,-58,-25,-199V0Z" 
id="f2_h"
transform="scale(0.001,-0.001)" />

<path d="M139,0V836H485c0,0,206,0,290,-90c0,0,84,-89,84,-294V0H721V473c0,0,0,147,-49,202c0,0,-48,54,-186,54H277V0Z" 
id="f2_c"
transform="scale(0.001,-0.001)" />

<path d="M445,-20c0,0,-86,0,-172,13c0,0,-86,13,-170,40V255c0,0,80,-40,160,-60c0,0,79,-21,156,-21c0,0,114,0,174,40c0,0,61,39,61,113c0,0,0,76,-62,115c0,0,-62,39,-184,39H293V666H414c0,0,108,0,161,34c0,0,53,34,53,103c0,0,0,65,-52,100c0,0,-51,35,-145,35c0,0,-69,0,-140,-16c0,0,-70,-15,-140,-46v210c0,0,85,24,168,36c0,0,83,12,164,12c0,0,217,0,325,-71c0,0,107,-71,107,-215c0,0,0,-98,-51,-160c0,0,-52,-62,-152,-88c0,0,112,-29,171,-101c0,0,59,-72,59,-183c0,0,0,-165,-127,-251c0,0,-127,-85,-370,-85Z" 
id="f0_10"
transform="scale(0.001,-0.001)" />

<path d="M163,0V190H321V0Z" 
id="f2_o"
transform="scale(0.001,-0.001)" />

<path d="M495,0V729H66V836H781V729H634V0Z" 
id="f2_b"
transform="scale(0.001,-0.001)" />

<path d="M44,0V40L172,60V941L44,960v40H794V760H745L721,922c0,0,-83,11,-241,11H316V543H586l23,119h48V354H609L586,475H316V67H513c0,0,193,0,252,12l43,185h49L843,0Z" 
id="f1_1o"
transform="scale(0.001,-0.001)" />

<path d="M35,0V34l84,18V649L35,668v33H235l7,-56c0,0,57,32,122,54c0,0,65,21,108,21c0,0,91,0,137,-53c0,0,47,-53,47,-154V52L741,34V0H439V34l93,18V500c0,0,0,62,-30,97c0,0,-31,36,-94,36c0,0,-67,0,-165,-22V52L338,34V0ZM481,834c0,0,-36,0,-66,16c0,0,-30,16,-57,36c0,0,-27,20,-52,36c0,0,-25,16,-49,16c0,0,-24,0,-39,-9c0,0,-14,-9,-23,-26c0,0,-8,-17,-13,-54H143c0,0,11,180,146,180c0,0,36,0,66,-16c0,0,30,-16,57,-35c0,0,27,-20,52,-36c0,0,25,-16,49,-16c0,0,32,0,50,18c0,0,18,19,25,70h39c0,0,-12,-180,-146,-180Z" 
id="f1_g"
transform="scale(0.001,-0.001)" />

<path d="M376,50c0,0,103,0,149,80c0,0,46,81,46,240c0,0,0,137,-47,204c0,0,-48,67,-148,67c0,0,-44,0,-87,-7c0,0,-44,-8,-63,-17V62c0,0,63,-12,150,-12Zm3,-64c0,0,-64,0,-141,14c0,0,-78,14,-136,37v971L0,1026v34H226V809c0,0,0,-40,-4,-148c0,0,74,59,188,59c0,0,143,0,219,-87c0,0,77,-87,77,-263c0,0,0,-189,-84,-287c0,0,-84,-97,-243,-97Z" 
id="f1_p"
transform="scale(0.001,-0.001)" />

<path d="M191,-20c0,0,-39,0,-65,25c0,0,-25,27,-25,64c0,0,0,38,26,64c0,0,26,26,64,26c0,0,38,0,64,-26c0,0,26,-26,26,-64c0,0,0,-37,-25,-64c0,0,-26,-25,-65,-25Z" 
id="f1_1f"
transform="scale(0.001,-0.001)" />

<path d="M138,-7c0,0,-34,0,-72,10V129c0,0,25,-8,52,-8c0,0,33,0,58,5c0,0,26,5,58,24c0,0,33,20,53,54c0,0,21,34,36,97c0,0,15,64,15,151c0,0,0,113,-19,173c0,0,-19,60,-56,82c0,0,-38,22,-107,22H89V836h72c0,0,165,0,240,-91c0,0,76,-91,76,-293c0,0,0,-107,26,-227c0,0,25,-119,83,-225H437c0,0,-43,101,-62,184c0,0,-24,-60,-51,-99c0,0,-26,-38,-56,-58C268,27,239,7,209,0c0,0,-30,-7,-71,-7Z" 
id="f2_s"
transform="scale(0.001,-0.001)" />

<path d="M44,0V40L172,60V941L44,960v40H471V960L316,941V65H513c0,0,159,0,234,14l46,208h48L828,0Z" 
id="f1_1m"
transform="scale(0.001,-0.001)" />

<path d="M139,-317V836H278V-317Z" 
id="f2_d"
transform="scale(0.001,-0.001)" />

<path d="M235,0V40L394,60V936H356c0,0,-189,0,-258,-15L78,766H28v234H908V766H857L837,921c0,0,-22,5,-98,9c0,0,-75,4,-165,4H538V60L697,40V0Z" 
id="f1_1l"
transform="scale(0.001,-0.001)" />

<path d="M289,-14c0,0,-179,0,-179,205V649L20,668v33H233V200c0,0,0,-128,120,-128c0,0,92,0,173,23V649L420,668v33H649V52L738,34V0H533l-6,57C527,57,474,28,405,6c0,0,-69,-20,-116,-20Zm24,849v24l147,203H618v-27L354,835Z" 
id="f1_1g"
transform="scale(0.001,-0.001)" />

<path d="M284,67c0,0,51,0,88,12c0,0,37,11,74,29V357l-98,-3c0,0,-100,-3,-135,-38c0,0,-35,-36,-35,-118c0,0,0,-131,106,-131ZM233,-14c0,0,-179,0,-179,208c0,0,0,70,27,116c0,0,27,46,87,70c0,0,60,24,173,27l105,3V519c0,0,0,73,-26,107c0,0,-27,34,-82,34c0,0,-75,0,-137,-35L176,538H134V691c0,0,121,26,213,26c0,0,115,0,169,-47c0,0,54,-47,54,-144V52L657,34V0H465L451,70c0,0,-85,-84,-218,-84Zm22,849v24l146,203H560v-27L296,835Z" 
id="f1_x"
transform="scale(0.001,-0.001)" />

<path d="M66,0V107H332V555c0,0,0,92,-37,133c0,0,-37,41,-116,41H85V836h94c0,0,153,0,223,-66c0,0,69,-66,69,-231V0Z" 
id="f2_6"
transform="scale(0.001,-0.001)" />

<path d="M522,92c0,0,247,0,247,333c0,0,0,88,-17,146c0,0,-17,58,-53,91c0,0,-35,33,-82,46c0,0,-48,14,-116,14H276V419c0,0,0,-327,246,-327Zm0,-112c0,0,-193,0,-289,109c0,0,-95,110,-95,337V836H501c0,0,213,0,309,-93c0,0,96,-94,96,-317c0,0,0,-227,-95,-337C811,89,715,-20,522,-20Z" 
id="f2_l"
transform="scale(0.001,-0.001)" />

<path d="M44,0V40L172,60V941L44,961v39H794V761H745L721,923c0,0,-83,10,-241,10H316V542H586l23,120h48V354H609L586,475H316V67H513c0,0,193,0,252,12l43,185h49L843,0ZM351,1084v25l146,202H656v-27L392,1084Z" 
id="f1_1p"
transform="scale(0.001,-0.001)" />

<path d="M13,0V34L95,46L325,350L122,649L40,668v33H357V668L264,648L399,446L554,649l-96,19v33H710V668L630,652L433,397L663,50L745,34V0H427V34l94,17L359,299L169,50L266,34V0Z" 
id="f1_r"
transform="scale(0.001,-0.001)" />

<path d="M71,-141V-15L289,62L66,836H210L416,109c0,0,99,42,153,98c0,0,53,56,80,155c0,0,26,98,26,262V836H817V624c0,0,0,-88,-7,-154c0,0,-7,-67,-25,-132c0,0,-18,-66,-51,-116c0,0,-33,-51,-84,-98c0,0,-50,-48,-123,-87c0,0,-72,-39,-169,-74L71,-141Z" 
id="f2_m"
transform="scale(0.001,-0.001)" />

<path d="M359,-270c0,0,124,0,192,46c0,0,67,47,67,129c0,0,0,43,-26,67c0,0,-26,24,-79,24H242c0,0,-32,-27,-51,-69c0,0,-20,-41,-20,-77c0,0,0,-64,46,-92c0,0,46,-28,142,-28Zm11,561c0,0,81,0,115,47c0,0,34,47,34,141c0,0,0,100,-35,142c0,0,-35,42,-113,42c0,0,-78,0,-114,-43c0,0,-37,-42,-37,-141c0,0,0,-98,36,-143c0,0,36,-45,114,-45ZM359,-329c0,0,-143,0,-218,44c0,0,-75,43,-75,125c0,0,0,39,27,78c0,0,26,38,98,89c0,0,-43,14,-72,48c0,0,-29,35,-29,74L208,262c0,0,-118,55,-118,217c0,0,0,115,73,178c0,0,73,63,211,63c0,0,28,0,71,-6c0,0,44,-6,67,-13l165,83l26,-32L599,644c0,0,50,-56,50,-165c0,0,0,-120,-72,-182c0,0,-73,-62,-208,-62c0,0,-62,0,-114,11L208,148c0,0,2,-13,29,-24c0,0,27,-12,67,-12H512c0,0,113,0,168,-49c0,0,55,-49,55,-134c0,0,0,-79,-44,-137c0,0,-43,-58,-128,-90c0,0,-84,-31,-204,-31Z" 
id="f1_w"
transform="scale(0.001,-0.001)" />

<path d="M354,-200c0,0,-112,175,-167,343c0,0,-56,170,-56,337c0,0,0,166,55,335c0,0,55,169,168,345H473c0,0,-100,-172,-148,-340c0,0,-48,-168,-48,-340c0,0,0,-173,48,-342c0,0,49,-168,148,-338Z" 
id="f2_11"
transform="scale(0.001,-0.001)" />

<path d="M66,0V106H564L66,836H228L516,413c0,0,3,2,9,6c0,0,17,13,27,21c0,0,10,8,26,27c0,0,17,20,26,40c0,0,9,21,16,54c0,0,7,34,7,75V836H764V698c0,0,0,-55,-7,-102c0,0,-7,-47,-16,-79c0,0,-10,-33,-27,-62c0,0,-18,-29,-32,-46c0,0,-14,-17,-37,-35c0,0,-22,-17,-36,-25c0,0,-13,-8,-36,-20L767,53V0Z" 
id="f2_p"
transform="scale(0.001,-0.001)" />

<path d="M122,-200c0,0,99,170,148,338c0,0,49,169,49,342c0,0,0,172,-49,340c0,0,-49,168,-148,340H241c0,0,112,-176,168,-345c0,0,55,-169,55,-335c0,0,0,-167,-55,-337c0,0,-56,-168,-168,-343Z" 
id="f2_10"
transform="scale(0.001,-0.001)" />

<path d="M32,0V34L151,52V649L52,668v33H275V52L395,34V0Zm71,835v24l146,203H408v-27L144,835Z" 
id="f1_1r"
transform="scale(0.001,-0.001)" />

<path d="M681,416L504,902L333,416ZM669,0V40L803,60L704,348H310L210,60L344,40V0H15V40L128,60l341,949H611L965,60L1092,40V0Z" 
id="f1_1n"
transform="scale(0.001,-0.001)" />

<path d="M64,-325c0,0,-46,0,-107,14v148H-8l19,-81c0,0,25,-21,62,-21c0,0,44,0,67,47c0,0,22,47,22,152V649L57,668v33H286V-28c0,0,0,-146,-57,-221c0,0,-56,-76,-165,-76ZM213,850c0,0,-34,0,-58,24c0,0,-24,24,-24,56c0,0,0,34,24,58c0,0,24,24,58,24c0,0,32,0,56,-24c0,0,24,-24,24,-58c0,0,0,-32,-24,-56c0,0,-24,-24,-56,-24Z" 
id="f1_u"
transform="scale(0.001,-0.001)" />

<path d="M557,-14c0,0,-199,0,-298,89c0,0,-99,90,-99,255V941L32,960v40H432V960L304,941V341c0,0,0,-273,264,-273c0,0,144,0,220,68c0,0,77,68,77,202V941L730,960v40h341V960L943,941V344c0,0,0,-180,-99,-269c0,0,-99,-89,-287,-89Z" 
id="f1_1h"
transform="scale(0.001,-0.001)" />

<path d="M55,0V40L184,60V941L55,960v40H455V960L327,941V60L455,40V0Z" 
id="f1_s"
transform="scale(0.001,-0.001)" />

<path d="M522,-20c0,0,-196,0,-290,99c0,0,-94,100,-94,324V836H276V397c0,0,0,-86,16,-147c0,0,17,-60,50,-94c0,0,34,-34,77,-49c0,0,43,-15,103,-15c0,0,59,0,102,15c0,0,44,15,77,49c0,0,33,34,50,94c0,0,17,61,17,147c0,0,0,84,-8,143c0,0,-7,58,-25,105c0,0,-17,47,-51,69c0,0,-33,23,-83,23c0,0,-50,0,-119,-22V821c0,0,85,23,150,23c0,0,76,0,130,-30c0,0,53,-31,85,-90c0,0,31,-59,45,-138c0,0,13,-78,13,-183c0,0,0,-224,-93,-324c0,0,-94,-99,-290,-99Z" 
id="f2_x"
transform="scale(0.001,-0.001)" />

<path d="M291,0V190H443V0Zm5,299V414c0,0,0,75,21,124c0,0,21,48,88,113l67,66c0,0,42,40,61,75c0,0,19,35,19,71c0,0,0,67,-48,108c0,0,-49,41,-130,41c0,0,-59,0,-125,-26c0,0,-67,-26,-139,-77v140c0,0,70,43,142,64c0,0,72,21,148,21c0,0,138,0,221,-72c0,0,83,-73,83,-191c0,0,0,-57,-27,-108c0,0,-27,-51,-94,-115L517,583c0,0,-34,-35,-49,-54c0,0,-14,-20,-20,-39c0,0,-5,-16,-7,-38c0,0,-2,-22,-2,-61V299Z" 
id="f2_1x"
transform="scale(0.001,-0.001)" />

<path d="M379,-315c0,0,-316,0,-316,253c0,0,0,119,60,194c0,0,60,74,175,98l43,10l9,193h60L429,185L322,163c0,0,-64,-12,-93,-65c0,0,-29,-52,-29,-151c0,0,0,-110,40,-155c0,0,40,-44,139,-44c0,0,84,0,145,36l26,123h49V-283c0,0,-110,-32,-220,-32Zm-6,851c0,0,-38,0,-64,26c0,0,-26,26,-26,64c0,0,0,37,25,64c0,0,26,27,65,27c0,0,37,0,64,-27c0,0,26,-26,26,-64c0,0,0,-39,-27,-64c0,0,-26,-26,-63,-26Z" 
id="f1_1u"
transform="scale(0.001,-0.001)" />

<path d="M551,45c0,0,171,0,252,106c0,0,82,107,82,349c0,0,0,241,-82,346c0,0,-82,105,-252,105c0,0,-171,0,-252,-106c0,0,-80,-106,-80,-345c0,0,0,-241,80,-348c0,0,81,-107,252,-107ZM930,-246c0,0,-53,0,-94,17c0,0,-41,18,-83,56c0,0,-41,39,-139,162c0,0,-27,-3,-63,-3c0,0,-239,0,-364,130C187,116,63,247,63,500c0,0,0,511,488,511c0,0,240,0,365,-129c0,0,125,-130,125,-382c0,0,0,-366,-265,-475l37,-45c0,0,66,-82,112,-117c0,0,46,-35,91,-35l61,2v-49c0,0,-17,-7,-64,-17c0,0,-48,-10,-83,-10Z" 
id="f1_1v"
transform="scale(0.001,-0.001)" />

<path d="M495,413c0,0,0,133,-34,190c0,0,-34,57,-105,57c0,0,-78,0,-119,-62c0,0,-42,-63,-42,-185ZM374,-14c0,0,-163,0,-239,87c0,0,-75,88,-75,283c0,0,0,183,77,274c0,0,76,90,219,90c0,0,269,0,269,-306V353H194V339c0,0,0,-103,23,-160c0,0,22,-57,70,-86c0,0,47,-30,124,-30c0,0,40,0,96,6c0,0,55,7,91,15V43C598,43,562,19,500,2c0,0,-61,-16,-126,-16ZM285,835v24l146,203H590v-27L326,835Z" 
id="f1_c"
transform="scale(0.001,-0.001)" />

<path d="M306,-20c0,0,-39,0,-65,25c0,0,-25,27,-25,64c0,0,0,38,26,64c0,0,26,26,64,26c0,0,37,0,63,-25c0,0,26,-26,26,-65c0,0,0,-37,-25,-64c0,0,-26,-25,-64,-25ZM269,261L249,510l107,22c0,0,64,13,93,65c0,0,29,52,29,152c0,0,0,109,-39,154c0,0,-40,45,-140,45c0,0,-83,0,-145,-36L128,789H79V979c0,0,118,32,220,32c0,0,316,0,316,-253c0,0,0,-121,-60,-195c0,0,-60,-74,-175,-98l-42,-9L328,261Z" 
id="f1_1w"
transform="scale(0.001,-0.001)" />

<path d="M460,-325c0,0,-148,79,-231,172c0,0,-84,93,-123,217c0,0,-39,126,-39,304c0,0,0,178,39,303c0,0,39,125,122,217c0,0,82,93,232,172V997c0,0,-91,-52,-145,-134c0,0,-54,-81,-79,-190c0,0,-25,-109,-25,-305c0,0,0,-194,26,-309c0,0,26,-114,82,-193c0,0,56,-79,141,-128v-63Z" 
id="f1_1b"
transform="scale(0.001,-0.001)" />

<path d="M49,-325v63c0,0,85,49,140,128c0,0,56,79,83,194c0,0,26,115,26,308c0,0,0,196,-25,305c0,0,-25,109,-79,190c0,0,-54,82,-145,134v63c0,0,149,-80,232,-172c0,0,83,-92,122,-217c0,0,39,-125,39,-303c0,0,0,-177,-39,-303c0,0,-39,-125,-122,-217c0,0,-83,-93,-232,-173Z" 
id="f1_1d"
transform="scale(0.001,-0.001)" />

<path d="M322,0V40L481,60V389L130,941L17,960v40H440V960L306,941L593,480L866,941L739,960v40h326V960L955,941L625,394V60L784,40V0Z" 
id="f1_1j"
transform="scale(0.001,-0.001)" />

<path d="M377,44c0,0,99,0,147,73c0,0,47,73,47,237c0,0,0,161,-47,234c0,0,-47,72,-147,72c0,0,-97,0,-141,-69c0,0,-44,-70,-44,-237c0,0,0,-169,45,-239c0,0,44,-71,140,-71Zm0,-58c0,0,-158,0,-238,94c0,0,-81,95,-81,274c0,0,0,178,81,272c0,0,80,94,244,94c0,0,160,0,241,-92c0,0,82,-92,82,-274c0,0,0,-368,-329,-368ZM301,835v24l147,203H606v-27L342,835Z" 
id="f1_5"
transform="scale(0.001,-0.001)" />

<path d="M190,0V127H436V977L168,923v137l267,54H586V127H832V0Z" 
id="f2_18"
transform="scale(0.001,-0.001)" />


</defs>
</svg>