<?xml version="1.0" encoding="UTF-8" standalone="no"?>
<!DOCTYPE svg PUBLIC "-//W3C//DTD SVG 1.1//EN"
"http://www.w3.org/Graphics/SVG/1.1/DTD/svg11.dtd">
<svg viewBox="0 0 909 1286" version="1.1" xmlns="http://www.w3.org/2000/svg" xmlns:xlink="http://www.w3.org/1999/xlink">
<defs>
<clipPath id="c0_11"><path d="M0,1286.2V0H909.4V1286.2Z" /></clipPath>
<style type="text/css"><![CDATA[
.g0_11{
fill: #D8D8D8;
}
.g1_11{
fill: none;
stroke: #000000;
stroke-width: 0.7638889;
stroke-linecap: butt;
stroke-linejoin: round;
}
.g2_11{
fill: none;
stroke: #0000FF;
stroke-width: 1.0694444;
stroke-linecap: butt;
stroke-linejoin: miter;
}
]]></style>
</defs>
<path fill-rule="evenodd" d="M555.5,178.1H642V152.8H555.5v25.3Z" class="g0_11" />
<path fill-rule="evenodd" d="M464.6,178.1h90.8V152.8H464.6v25.3Z" class="g0_11" />
<path fill-rule="evenodd" d="M642.1,198.1H771.9v-20H642.1v20Z" class="g0_11" />
<path fill-rule="evenodd" d="M642.1,218.2H771.9v-20H642.1v20Z" class="g0_11" />
<path fill-rule="evenodd" d="M642.1,238.3H771.9v-20H642.1v20Z" class="g0_11" />
<path fill-rule="evenodd" d="M642.1,258.4H771.9V238.3H642.1v20.1Z" class="g0_11" />
<path fill-rule="evenodd" d="M642.1,278.4H771.9V258.5H642.1v19.9Z" class="g0_11" />
<path fill-rule="evenodd" d="M468.9,838.5h184V816.4h-184v22.1Z" class="g0_11" />
<path fill-rule="evenodd" d="M273.9,838.5H468.8V816.4H273.9v22.1Z" class="g0_11" />
<path fill-rule="evenodd" d="M118.4,838.5H273.9V816.4H118.4v22.1Z" class="g0_11" />
<path fill-rule="evenodd" d="M653,858.7H771.9V838.6H653v20.1Z" class="g0_11" />
<path fill-rule="evenodd" d="M653,878.7H771.9V858.8H653v19.9Z" class="g0_11" />
<path fill-rule="evenodd" d="M653,898.9H771.9V878.8H653v20.1Z" class="g0_11" />
<path fill-rule="evenodd" d="M653,918.9H771.9v-20H653v20Z" class="g0_11" />
<path fill-rule="evenodd" d="M653,939H771.9V919H653v20Z" class="g0_11" />
<path fill-rule="evenodd" d="M547.4,1089.2H655.5v-48.5H547.4v48.5Z" class="g0_11" />
<path fill-rule="evenodd" d="M439.1,1089.2H547.3v-48.5H439.1v48.5Z" class="g0_11" />
<path fill-rule="evenodd" d="M330.9,1089.2H439v-48.5H330.9v48.5Z" class="g0_11" />
<path fill-rule="evenodd" d="M229.8,1089.2h101v-48.5h-101v48.5Z" class="g0_11" />
<path fill-rule="evenodd" d="M121.3,1089.2H229.7v-48.5H121.3v48.5Z" class="g0_11" />
<path fill-rule="evenodd" d="M655.6,1109.4H771.9v-20.1H655.6v20.1Z" class="g0_11" />
<path fill-rule="evenodd" d="M655.6,1129.4H771.9v-19.9H655.6v19.9Z" class="g0_11" />
<path fill-rule="evenodd" d="M655.6,1149.6H771.9v-20.1H655.6v20.1Z" class="g0_11" />
<path fill-rule="evenodd" d="M655.6,1169.6H771.9v-19.9H655.6v19.9Z" class="g0_11" />
<path fill-rule="evenodd" d="M555.5,178.1H642V152.8H555.5v25.3Z" class="g0_11" />
<path fill-rule="evenodd" d="M464.6,178.1h90.8V152.8H464.6v25.3Z" class="g0_11" />
<path fill-rule="evenodd" d="M642.1,198.1H771.9v-20H642.1v20Z" class="g0_11" />
<path fill-rule="evenodd" d="M642.1,218.2H771.9v-20H642.1v20Z" class="g0_11" />
<path fill-rule="evenodd" d="M642.1,238.3H771.9v-20H642.1v20Z" class="g0_11" />
<path fill-rule="evenodd" d="M642.1,258.4H771.9V238.3H642.1v20.1Z" class="g0_11" />
<path fill-rule="evenodd" d="M642.1,278.4H771.9V258.5H642.1v19.9Z" class="g0_11" />
<path fill-rule="evenodd" d="M468.9,838.5h184V816.4h-184v22.1Z" class="g0_11" />
<path fill-rule="evenodd" d="M273.9,838.5H468.8V816.4H273.9v22.1Z" class="g0_11" />
<path fill-rule="evenodd" d="M118.4,838.5H273.9V816.4H118.4v22.1Z" class="g0_11" />
<path fill-rule="evenodd" d="M653,858.7H771.9V838.6H653v20.1Z" class="g0_11" />
<path fill-rule="evenodd" d="M653,878.7H771.9V858.8H653v19.9Z" class="g0_11" />
<path fill-rule="evenodd" d="M653,898.9H771.9V878.8H653v20.1Z" class="g0_11" />
<path fill-rule="evenodd" d="M653,918.9H771.9v-20H653v20Z" class="g0_11" />
<path fill-rule="evenodd" d="M653,939H771.9V919H653v20Z" class="g0_11" />
<path fill-rule="evenodd" d="M547.4,1089.2H655.5v-48.5H547.4v48.5Z" class="g0_11" />
<path fill-rule="evenodd" d="M439.1,1089.2H547.3v-48.5H439.1v48.5Z" class="g0_11" />
<path fill-rule="evenodd" d="M330.9,1089.2H439v-48.5H330.9v48.5Z" class="g0_11" />
<path fill-rule="evenodd" d="M229.8,1089.2h101v-48.5h-101v48.5Z" class="g0_11" />
<path fill-rule="evenodd" d="M121.3,1089.2H229.7v-48.5H121.3v48.5Z" class="g0_11" />
<path fill-rule="evenodd" d="M655.6,1109.4H771.9v-20.1H655.6v20.1Z" class="g0_11" />
<path fill-rule="evenodd" d="M655.6,1129.4H771.9v-19.9H655.6v19.9Z" class="g0_11" />
<path fill-rule="evenodd" d="M655.6,1149.6H771.9v-20.1H655.6v20.1Z" class="g0_11" />
<path fill-rule="evenodd" d="M655.6,1169.6H771.9v-19.9H655.6v19.9Z" class="g0_11" />
<g clip-path="url(#c0_11)">
<g fill="#000000" >
<use xlink:href="#f0_2" transform="matrix(13,0,0,13,137.7,128.6)" />
<use xlink:href="#f0_3" transform="matrix(13,0,0,13,152.8,128.6)" />
<use xlink:href="#f0_4" transform="matrix(13,0,0,13,160,128.6)" />
<use xlink:href="#f0_5" transform="matrix(13,0,0,13,172.6,128.6)" />
<use xlink:href="#f0_6" transform="matrix(13,0,0,13,183,128.6)" />
<use xlink:href="#f0_7" transform="matrix(13,0,0,13,195.1,128.6)" />
<use xlink:href="#f0_6" transform="matrix(13,0,0,13,202.6,128.6)" />
<use xlink:href="#f0_7" transform="matrix(13,0,0,13,214.6,128.6)" />
<use xlink:href="#f0_8" transform="matrix(13,0,0,13,222.1,128.6)" />
<use xlink:href="#f0_g" transform="matrix(13,0,0,13,242.6,128.6)" />
<use xlink:href="#f0_l" transform="matrix(13,0,0,13,263.2,128.6)" />
</g>
</g>
<path d="M464.2,153.2H642.5M464.2,178.5H772.4m-308.2,20H772.4M464.2,218.7H772.4m-308.2,20H772.4M464.2,258.9H772.4m-308.2,20H772.4M464.6,152.8V279.3M555.5,152.8V279.3M642.1,152.8V279.3M772,178.1V279.3" class="g1_11" />
<g clip-path="url(#c0_11)">
<g fill="#000000" >
<use xlink:href="#f1_e" transform="matrix(14,0,0,14,564.4,173.6)" />
<use xlink:href="#f1_g" transform="matrix(14,0,0,14,572.6,173.6)" />
<use xlink:href="#f1_5" transform="matrix(14,0,0,14,582.1,173.6)" />
<use xlink:href="#f1_g" transform="matrix(14,0,0,14,473.3,173.6)" />
<use xlink:href="#f1_e" transform="matrix(14,0,0,14,482.8,173.6)" />
<use xlink:href="#f1_h" transform="matrix(14,0,0,14,491,173.6)" />
<use xlink:href="#f1_7" transform="matrix(14,0,0,14,498.2,173.6)" />
<use xlink:href="#f1_5" transform="matrix(14,0,0,14,508.9,173.6)" />
<use xlink:href="#f2_10" transform="matrix(11,0,0,11,651,194.5)" />
<use xlink:href="#f2_9" transform="matrix(11,0,0,11,659.4,194.5)" />
<use xlink:href="#f2_4" transform="matrix(11,0,0,11,564.4,194.5)" />
<use xlink:href="#f2_9" transform="matrix(11,0,0,11,570.9,194.5)" />
<use xlink:href="#f2_10" transform="matrix(11,0,0,11,579.3,194.5)" />
<use xlink:href="#f2_6" transform="matrix(11,0,0,11,473.3,194.5)" />
<use xlink:href="#f2_4" transform="matrix(11,0,0,11,480.8,194.5)" />
<use xlink:href="#f2_5" transform="matrix(11,0,0,11,487.3,194.5)" />
<use xlink:href="#f2_9" transform="matrix(11,0,0,11,492,194.5)" />
<use xlink:href="#f2_10" transform="matrix(11,0,0,11,500.4,194.5)" />
<use xlink:href="#f2_5" transform="matrix(11,0,0,11,651,214.7)" />
<use xlink:href="#f2_x" transform="matrix(11,0,0,11,655.6,214.7)" />
<use xlink:href="#f2_1s" transform="matrix(11,0,0,11,668.2,214.7)" />
<use xlink:href="#f2_r" transform="matrix(11,0,0,11,673.9,214.7)" />
<use xlink:href="#f2_9" transform="matrix(11,0,0,11,682.3,214.7)" />
<use xlink:href="#f2_4" transform="matrix(11,0,0,11,690.5,214.7)" />
<use xlink:href="#f2_1u" transform="matrix(11,0,0,11,697.1,214.7)" />
<use xlink:href="#f2_6" transform="matrix(11,0,0,11,564.4,214.7)" />
<use xlink:href="#f2_c" transform="matrix(11,0,0,11,571.7,214.7)" />
<use xlink:href="#f2_6" transform="matrix(11,0,0,11,577.3,214.7)" />
<use xlink:href="#f2_4" transform="matrix(11,0,0,11,584.8,214.7)" />
<use xlink:href="#f2_6" transform="matrix(11,0,0,11,473.3,214.7)" />
<use xlink:href="#f2_4" transform="matrix(11,0,0,11,480.8,214.7)" />
<use xlink:href="#f2_5" transform="matrix(11,0,0,11,487.3,214.7)" />
<use xlink:href="#f2_y" transform="matrix(11,0,0,11,491.9,214.7)" />
<use xlink:href="#f2_4" transform="matrix(11,0,0,11,499.4,214.7)" />
<use xlink:href="#f2_j" transform="matrix(11,0,0,11,651,234.7)" />
<use xlink:href="#f2_7" transform="matrix(11,0,0,11,658.3,234.7)" />
<use xlink:href="#f2_11" transform="matrix(11,0,0,11,663,234.7)" />
<use xlink:href="#f2_6" transform="matrix(11,0,0,11,667.8,234.7)" />
<use xlink:href="#f2_7" transform="matrix(11,0,0,11,675.1,234.7)" />
<use xlink:href="#f2_7" transform="matrix(11,0,0,11,679.8,234.7)" />
<use xlink:href="#f2_3" transform="matrix(11,0,0,11,684.5,234.7)" />
<use xlink:href="#f2_11" transform="matrix(11,0,0,11,691.9,234.7)" />
<use xlink:href="#f2_12" transform="matrix(11,0,0,11,696.6,234.7)" />
<use xlink:href="#f2_k" transform="matrix(11,0,0,11,708.6,234.7)" />
<use xlink:href="#f2_13" transform="matrix(11,0,0,11,717,234.7)" />
<use xlink:href="#f2_6" transform="matrix(11,0,0,11,564.4,234.7)" />
<use xlink:href="#f2_4" transform="matrix(11,0,0,11,571.7,234.7)" />
<use xlink:href="#f2_6" transform="matrix(11,0,0,11,473.3,234.7)" />
<use xlink:href="#f2_4" transform="matrix(11,0,0,11,480.8,234.7)" />
<use xlink:href="#f2_5" transform="matrix(11,0,0,11,487.3,234.7)" />
<use xlink:href="#f2_y" transform="matrix(11,0,0,11,491.9,234.7)" />
<use xlink:href="#f2_8" transform="matrix(11,0,0,11,651,254.8)" />
<use xlink:href="#f2_9" transform="matrix(11,0,0,11,659.4,254.8)" />
<use xlink:href="#f2_4" transform="matrix(11,0,0,11,667.8,254.8)" />
<use xlink:href="#f2_9" transform="matrix(11,0,0,11,674.3,254.8)" />
<use xlink:href="#f2_5" transform="matrix(11,0,0,11,682.6,254.8)" />
<use xlink:href="#f2_c" transform="matrix(11,0,0,11,687.3,254.8)" />
<use xlink:href="#f2_9" transform="matrix(11,0,0,11,692.9,254.8)" />
<use xlink:href="#f2_4" transform="matrix(11,0,0,11,701.4,254.8)" />
<use xlink:href="#f2_11" transform="matrix(11,0,0,11,707.8,254.8)" />
<use xlink:href="#f2_3" transform="matrix(11,0,0,11,712.5,254.8)" />
<use xlink:href="#f2_4" transform="matrix(11,0,0,11,720,254.8)" />
<use xlink:href="#f2_4" transform="matrix(11,0,0,11,564.4,254.8)" />
<use xlink:href="#f2_9" transform="matrix(11,0,0,11,570.9,254.8)" />
<use xlink:href="#f2_i" transform="matrix(11,0,0,11,579.2,254.8)" />
<use xlink:href="#f2_9" transform="matrix(11,0,0,11,592.3,254.8)" />
<use xlink:href="#f2_4" transform="matrix(11,0,0,11,600.7,254.8)" />
<use xlink:href="#f2_6" transform="matrix(11,0,0,11,473.3,254.8)" />
<use xlink:href="#f2_4" transform="matrix(11,0,0,11,480.8,254.8)" />
<use xlink:href="#f2_5" transform="matrix(11,0,0,11,487.3,254.8)" />
<use xlink:href="#f2_3" transform="matrix(11,0,0,11,491.9,254.8)" />
<use xlink:href="#f2_i" transform="matrix(11,0,0,11,499.4,254.8)" />
<use xlink:href="#f2_9" transform="matrix(11,0,0,11,512.5,254.8)" />
<use xlink:href="#f2_4" transform="matrix(11,0,0,11,520.9,254.8)" />
<use xlink:href="#f2_6" transform="matrix(11,0,0,11,651,274.8)" />
<use xlink:href="#f2_7" transform="matrix(11,0,0,11,658.3,274.8)" />
<use xlink:href="#f2_7" transform="matrix(11,0,0,11,663,274.8)" />
<use xlink:href="#f2_9" transform="matrix(11,0,0,11,667.8,274.8)" />
<use xlink:href="#f2_4" transform="matrix(11,0,0,11,676.2,274.8)" />
<use xlink:href="#f2_11" transform="matrix(11,0,0,11,682.6,274.8)" />
<use xlink:href="#f2_6" transform="matrix(11,0,0,11,687.3,274.8)" />
<use xlink:href="#f2_7" transform="matrix(11,0,0,11,694.8,274.8)" />
<use xlink:href="#f2_7" transform="matrix(11,0,0,11,699.4,274.8)" />
<use xlink:href="#f2_3" transform="matrix(11,0,0,11,704.1,274.8)" />
<use xlink:href="#f2_4" transform="matrix(11,0,0,11,711.5,274.8)" />
<use xlink:href="#f2_11" transform="matrix(11,0,0,11,718,274.8)" />
<use xlink:href="#f2_12" transform="matrix(11,0,0,11,722.7,274.8)" />
<use xlink:href="#f2_k" transform="matrix(11,0,0,11,734.7,274.8)" />
<use xlink:href="#f2_4" transform="matrix(11,0,0,11,743.1,274.8)" />
<use xlink:href="#f2_13" transform="matrix(11,0,0,11,749.7,274.8)" />
<use xlink:href="#f2_4" transform="matrix(11,0,0,11,564.4,274.8)" />
<use xlink:href="#f2_9" transform="matrix(11,0,0,11,570.9,274.8)" />
<use xlink:href="#f2_8" transform="matrix(11,0,0,11,579.3,274.8)" />
<use xlink:href="#f2_6" transform="matrix(11,0,0,11,473.3,274.8)" />
<use xlink:href="#f2_4" transform="matrix(11,0,0,11,480.8,274.8)" />
<use xlink:href="#f2_5" transform="matrix(11,0,0,11,487.3,274.8)" />
<use xlink:href="#f2_y" transform="matrix(11,0,0,11,491.9,274.8)" />
<use xlink:href="#f2_8" transform="matrix(11,0,0,11,499.4,274.8)" />
</g>
<g fill="#0000FF" >
<use xlink:href="#f3_6" transform="matrix(11,0,0,11,678.5,314.3)" />
<use xlink:href="#f3_7" transform="matrix(11,0,0,11,690.4,314.3)" />
<use xlink:href="#f3_8" transform="matrix(11,0,0,11,699.7,314.3)" />
<use xlink:href="#f3_e" transform="matrix(11,0,0,11,710.2,314.3)" />
<use xlink:href="#f3_3" transform="matrix(11,0,0,11,725.2,314.3)" />
<use xlink:href="#f3_7" transform="matrix(11,0,0,11,736.2,314.3)" />
<use xlink:href="#f3_4" transform="matrix(11,0,0,11,745.7,314.3)" />
<use xlink:href="#f3_h" transform="matrix(11,0,0,11,751.5,314.3)" />
<use xlink:href="#f3_f" transform="matrix(11,0,0,11,762.3,314.3)" />
</g>
</g>
<path d="M678.3,315.9H772" class="g2_11" />
<g clip-path="url(#c0_11)">
<g fill="#000000" >
<use xlink:href="#f0_2" transform="matrix(13,0,0,13,137.7,402.9)" />
<use xlink:href="#f0_3" transform="matrix(13,0,0,13,152.8,402.9)" />
<use xlink:href="#f0_4" transform="matrix(13,0,0,13,160,402.9)" />
<use xlink:href="#f0_5" transform="matrix(13,0,0,13,172.6,402.9)" />
<use xlink:href="#f0_6" transform="matrix(13,0,0,13,183,402.9)" />
<use xlink:href="#f0_7" transform="matrix(13,0,0,13,195.1,402.9)" />
<use xlink:href="#f0_6" transform="matrix(13,0,0,13,202.6,402.9)" />
<use xlink:href="#f0_7" transform="matrix(13,0,0,13,214.6,402.9)" />
<use xlink:href="#f0_8" transform="matrix(13,0,0,13,222.1,402.9)" />
<use xlink:href="#f0_h" transform="matrix(13,0,0,13,242.6,402.9)" />
<use xlink:href="#f0_l" transform="matrix(13,0,0,13,263.2,402.9)" />
<use xlink:href="#f2_14" transform="matrix(11,0,0,11,224.3,481.3)" />
<use xlink:href="#f2_9" transform="matrix(11,0,0,11,236.3,481.3)" />
<use xlink:href="#f2_4" transform="matrix(11,0,0,11,244.7,481.3)" />
<use xlink:href="#f2_9" transform="matrix(11,0,0,11,251.3,481.3)" />
<use xlink:href="#f2_5" transform="matrix(11,0,0,11,259.7,481.3)" />
<use xlink:href="#f2_c" transform="matrix(11,0,0,11,264.4,481.3)" />
<use xlink:href="#f2_3" transform="matrix(11,0,0,11,270.1,481.3)" />
<use xlink:href="#f2_4" transform="matrix(11,0,0,11,277.4,481.3)" />
<use xlink:href="#f1_e" transform="matrix(11,0,0,11,288.3,481.3)" />
<use xlink:href="#f1_4" transform="matrix(11,0,0,11,294.8,481.3)" />
<use xlink:href="#f1_6" transform="matrix(11,0,0,11,303.1,481.3)" />
<use xlink:href="#f1_4" transform="matrix(11,0,0,11,317.1,481.3)" />
<use xlink:href="#f1_e" transform="matrix(11,0,0,11,325.5,481.3)" />
<use xlink:href="#f2_16" transform="matrix(11,0,0,11,336.4,481.3)" />
<use xlink:href="#f2_3" transform="matrix(11,0,0,11,348.5,481.3)" />
<use xlink:href="#f2_8" transform="matrix(11,0,0,11,355.9,481.3)" />
<use xlink:href="#f2_3" transform="matrix(11,0,0,11,364.3,481.3)" />
<use xlink:href="#f2_10" transform="matrix(11,0,0,11,375.9,481.3)" />
<use xlink:href="#f2_16" transform="matrix(11,0,0,11,388.6,481.3)" />
<use xlink:href="#f2_e" transform="matrix(11,0,0,11,400.7,481.3)" />
<use xlink:href="#f2_8" transform="matrix(11,0,0,11,405.4,481.3)" />
<use xlink:href="#f2_3" transform="matrix(11,0,0,11,413.8,481.3)" />
<use xlink:href="#f2_13" transform="matrix(11,0,0,11,421.1,481.3)" />
<use xlink:href="#f4_r" transform="matrix(16,0,0,16,572.5,488.3)" />
<use xlink:href="#f4_7" transform="matrix(16,0,0,16,581.7,488.3)" />
<use xlink:href="#f4_m" transform="matrix(16,0,0,16,598.4,488.3)" />
<use xlink:href="#f4_g" transform="matrix(16,0,0,16,609.5,488.3)" />
<use xlink:href="#f4_n" transform="matrix(16,0,0,16,616.7,488.3)" />
<use xlink:href="#f4_b" transform="matrix(16,0,0,16,631.1,488.3)" />
<use xlink:href="#f4_7" transform="matrix(16,0,0,16,648,488.3)" />
<use xlink:href="#f4_m" transform="matrix(16,0,0,16,664.8,488.3)" />
<use xlink:href="#f4_n" transform="matrix(16,0,0,16,675.8,488.3)" />
<use xlink:href="#f4_b" transform="matrix(16,0,0,16,698.6,488.3)" />
<use xlink:href="#f4_m" transform="matrix(16,0,0,16,707,488.3)" />
<use xlink:href="#f4_d" transform="matrix(16,0,0,16,718,488.3)" />
<use xlink:href="#f4_m" transform="matrix(16,0,0,16,734.8,488.3)" />
<use xlink:href="#f4_s" transform="matrix(16,0,0,16,745.9,488.3)" />
<use xlink:href="#f2_17" transform="matrix(11,0,0,11,224.3,509.8)" />
<use xlink:href="#f2_7" transform="matrix(11,0,0,11,236.3,509.8)" />
<use xlink:href="#f2_6" transform="matrix(11,0,0,11,241.1,509.8)" />
<use xlink:href="#f2_u" transform="matrix(11,0,0,11,248.5,509.8)" />
<use xlink:href="#f2_3" transform="matrix(11,0,0,11,253.3,509.8)" />
<use xlink:href="#f2_8" transform="matrix(11,0,0,11,260.7,509.8)" />
<use xlink:href="#f2_k" transform="matrix(11,0,0,11,269.1,509.8)" />
<use xlink:href="#f2_c" transform="matrix(11,0,0,11,277.4,509.8)" />
<use xlink:href="#f2_9" transform="matrix(11,0,0,11,283,509.8)" />
<use xlink:href="#f1_g" transform="matrix(11,0,0,11,295.8,509.8)" />
<use xlink:href="#f1_e" transform="matrix(11,0,0,11,303.1,509.8)" />
<use xlink:href="#f2_c" transform="matrix(11,0,0,11,313.9,509.8)" />
<use xlink:href="#f2_m" transform="matrix(11,0,0,11,319.4,509.8)" />
<use xlink:href="#f2_b" transform="matrix(11,0,0,11,327.8,509.8)" />
<use xlink:href="#f2_e" transform="matrix(11,0,0,11,336.3,509.8)" />
<use xlink:href="#f2_9" transform="matrix(11,0,0,11,341,509.8)" />
<use xlink:href="#f2_13" transform="matrix(11,0,0,11,349.4,509.8)" />
<use xlink:href="#f3_m" transform="matrix(12,0,0,12,626.1,511.2)" />
<use xlink:href="#f3_q" transform="matrix(12,0,0,12,631.9,511.2)" />
<use xlink:href="#f3_d" transform="matrix(12,0,0,12,636,511.2)" />
<use xlink:href="#f3_q" transform="matrix(12,0,0,12,643.3,511.2)" />
<use xlink:href="#f3_r" transform="matrix(12,0,0,12,647.3,511.2)" />
<use xlink:href="#f3_d" transform="matrix(12,0,0,12,657.4,511.2)" />
<use xlink:href="#f3_c" transform="matrix(12,0,0,12,664.7,511.2)" />
<use xlink:href="#f3_e" transform="matrix(12,0,0,12,669.7,511.2)" />
<use xlink:href="#f3_f" transform="matrix(12,0,0,12,680.1,511.2)" />
<use xlink:href="#f3_c" transform="matrix(12,0,0,12,696.5,511.2)" />
<use xlink:href="#f3_7" transform="matrix(12,0,0,12,701.5,511.2)" />
<use xlink:href="#f3_r" transform="matrix(12,0,0,12,711.9,511.2)" />
<use xlink:href="#f3_d" transform="matrix(12,0,0,12,721.9,511.2)" />
<use xlink:href="#f3_h" transform="matrix(12,0,0,12,729.3,511.2)" />
<use xlink:href="#f3_e" transform="matrix(12,0,0,12,741.2,511.2)" />
<use xlink:href="#f3_9" transform="matrix(12,0,0,12,751.6,511.2)" />
<use xlink:href="#f2_18" transform="matrix(11,0,0,11,224.3,531.2)" />
<use xlink:href="#f2_m" transform="matrix(11,0,0,11,230.8,531.2)" />
<use xlink:href="#f2_3" transform="matrix(11,0,0,11,239.2,531.2)" />
<use xlink:href="#f2_8" transform="matrix(11,0,0,11,246.7,531.2)" />
<use xlink:href="#f2_19" transform="matrix(11,0,0,11,259.2,531.2)" />
<use xlink:href="#f2_7" transform="matrix(11,0,0,11,271.3,531.2)" />
<use xlink:href="#f2_3" transform="matrix(11,0,0,11,276,531.2)" />
<use xlink:href="#f2_n" transform="matrix(11,0,0,11,283.5,531.2)" />
<use xlink:href="#f1_g" transform="matrix(11,0,0,11,296.2,531.2)" />
<use xlink:href="#f1_e" transform="matrix(11,0,0,11,303.6,531.2)" />
<use xlink:href="#f2_i" transform="matrix(11,0,0,11,314.4,531.2)" />
<use xlink:href="#f2_3" transform="matrix(11,0,0,11,327.4,531.2)" />
<use xlink:href="#f2_c" transform="matrix(11,0,0,11,334.9,531.2)" />
<use xlink:href="#f2_e" transform="matrix(11,0,0,11,340.4,531.2)" />
<use xlink:href="#f2_8" transform="matrix(11,0,0,11,345.1,531.2)" />
<use xlink:href="#f2_6" transform="matrix(11,0,0,11,353.5,531.2)" />
<use xlink:href="#f2_c" transform="matrix(11,0,0,11,361,531.2)" />
<use xlink:href="#f2_9" transform="matrix(11,0,0,11,366.6,531.2)" />
<use xlink:href="#f2_13" transform="matrix(11,0,0,11,374.8,531.2)" />
<use xlink:href="#f3_m" transform="matrix(12,0,0,12,606.5,532.6)" />
<use xlink:href="#f3_q" transform="matrix(12,0,0,12,612.3,532.6)" />
<use xlink:href="#f3_9" transform="matrix(12,0,0,12,616.4,532.6)" />
<use xlink:href="#f3_l" transform="matrix(12,0,0,12,628.7,532.6)" />
<use xlink:href="#f3_q" transform="matrix(12,0,0,12,641,532.6)" />
<use xlink:href="#f3_9" transform="matrix(12,0,0,12,651.1,532.6)" />
<use xlink:href="#f3_c" transform="matrix(12,0,0,12,663.3,532.6)" />
<use xlink:href="#f3_3" transform="matrix(12,0,0,12,668.3,532.6)" />
<use xlink:href="#f3_j" transform="matrix(12,0,0,12,686.2,532.6)" />
<use xlink:href="#f3_9" transform="matrix(12,0,0,12,693.7,532.6)" />
<use xlink:href="#f3_e" transform="matrix(12,0,0,12,705.9,532.6)" />
<use xlink:href="#f3_j" transform="matrix(12,0,0,12,716.3,532.6)" />
<use xlink:href="#f3_t" transform="matrix(12,0,0,12,729.6,532.6)" />
<use xlink:href="#f3_9" transform="matrix(12,0,0,12,734.6,532.6)" />
<use xlink:href="#f3_c" transform="matrix(12,0,0,12,746.9,532.6)" />
<use xlink:href="#f3_h" transform="matrix(12,0,0,12,751.9,532.6)" />
<use xlink:href="#f1_14" transform="matrix(11,0,0,11,224.3,552.6)" />
<use xlink:href="#f1_e" transform="matrix(11,0,0,11,235.4,552.6)" />
<use xlink:href="#f2_i" transform="matrix(11,0,0,11,246.3,552.6)" />
<use xlink:href="#f2_m" transform="matrix(11,0,0,11,259.3,552.6)" />
<use xlink:href="#f2_10" transform="matrix(11,0,0,11,267.7,552.6)" />
<use xlink:href="#f2_4" transform="matrix(11,0,0,11,280.3,552.6)" />
<use xlink:href="#f2_3" transform="matrix(11,0,0,11,286.9,552.6)" />
<use xlink:href="#f2_8" transform="matrix(11,0,0,11,294.3,552.6)" />
<use xlink:href="#f2_9" transform="matrix(11,0,0,11,302.8,552.6)" />
<use xlink:href="#f2_13" transform="matrix(11,0,0,11,311,552.6)" />
<use xlink:href="#f3_m" transform="matrix(12,0,0,12,651.1,554)" />
<use xlink:href="#f3_9" transform="matrix(12,0,0,12,657,554)" />
<use xlink:href="#f3_q" transform="matrix(12,0,0,12,669.2,554)" />
<use xlink:href="#f3_7" transform="matrix(12,0,0,12,673.3,554)" />
<use xlink:href="#f3_f" transform="matrix(12,0,0,12,683.7,554)" />
<use xlink:href="#f3_r" transform="matrix(12,0,0,12,700,554)" />
<use xlink:href="#f3_c" transform="matrix(12,0,0,12,710.1,554)" />
<use xlink:href="#f3_9" transform="matrix(12,0,0,12,715,554)" />
<use xlink:href="#f3_l" transform="matrix(12,0,0,12,727.2,554)" />
<use xlink:href="#f3_3" transform="matrix(12,0,0,12,745.5,554)" />
<use xlink:href="#f3_4" transform="matrix(12,0,0,12,757.4,554)" />
<use xlink:href="#f2_12" transform="matrix(11,0,0,11,224.3,574)" />
<use xlink:href="#f2_k" transform="matrix(11,0,0,11,236.3,574)" />
<use xlink:href="#f2_4" transform="matrix(11,0,0,11,244.7,574)" />
<use xlink:href="#f2_13" transform="matrix(11,0,0,11,251.3,574)" />
<use xlink:href="#f1_g" transform="matrix(11,0,0,11,268.1,574)" />
<use xlink:href="#f1_e" transform="matrix(11,0,0,11,275.6,574)" />
<use xlink:href="#f1_h" transform="matrix(11,0,0,11,282.1,574)" />
<use xlink:href="#f1_15" transform="matrix(11,0,0,11,287.8,574)" />
<use xlink:href="#f1_2" transform="matrix(11,0,0,11,296.2,574)" />
<use xlink:href="#f2_3" transform="matrix(11,0,0,11,318.1,574)" />
<use xlink:href="#f2_l" transform="matrix(11,0,0,11,325.5,574)" />
<use xlink:href="#f2_m" transform="matrix(11,0,0,11,333.9,574)" />
<use xlink:href="#f2_p" transform="matrix(11,0,0,11,342.2,574)" />
<use xlink:href="#f2_3" transform="matrix(11,0,0,11,359.4,574)" />
<use xlink:href="#f2_7" transform="matrix(11,0,0,11,366.9,574)" />
<use xlink:href="#f2_7" transform="matrix(11,0,0,11,384.1,574)" />
<use xlink:href="#f2_3" transform="matrix(11,0,0,11,388.7,574)" />
<use xlink:href="#f2_k" transform="matrix(11,0,0,11,396.1,574)" />
<use xlink:href="#f2_9" transform="matrix(11,0,0,11,404.5,574)" />
<use xlink:href="#f2_k" transform="matrix(11,0,0,11,425.4,574)" />
<use xlink:href="#f2_6" transform="matrix(11,0,0,11,433.8,574)" />
<use xlink:href="#f2_1a" transform="matrix(11,0,0,11,453.8,574)" />
<use xlink:href="#f2_6" transform="matrix(11,0,0,11,463.1,574)" />
<use xlink:href="#f2_1b" transform="matrix(11,0,0,11,470.6,574)" />
<use xlink:href="#f2_9" transform="matrix(11,0,0,11,479,574)" />
<use xlink:href="#f2_c" transform="matrix(11,0,0,11,487.4,574)" />
<use xlink:href="#f2_1d" transform="matrix(11,0,0,11,224.3,593.2)" />
<use xlink:href="#f2_3" transform="matrix(11,0,0,11,233.6,593.2)" />
<use xlink:href="#f2_c" transform="matrix(11,0,0,11,241.1,593.2)" />
<use xlink:href="#f2_b" transform="matrix(11,0,0,11,246.7,593.2)" />
<use xlink:href="#f2_6" transform="matrix(11,0,0,11,255.1,593.2)" />
<use xlink:href="#f2_c" transform="matrix(11,0,0,11,262.4,593.2)" />
<use xlink:href="#f2_13" transform="matrix(11,0,0,11,268.1,593.2)" />
<use xlink:href="#f3_m" transform="matrix(12,0,0,12,571.8,575.4)" />
<use xlink:href="#f3_7" transform="matrix(12,0,0,12,577.7,575.4)" />
<use xlink:href="#f3_f" transform="matrix(12,0,0,12,588,575.4)" />
<use xlink:href="#f3_7" transform="matrix(12,0,0,12,598.6,575.4)" />
<use xlink:href="#f3_8" transform="matrix(12,0,0,12,609,575.4)" />
<use xlink:href="#f3_t" transform="matrix(12,0,0,12,626.2,575.4)" />
<use xlink:href="#f3_c" transform="matrix(12,0,0,12,631.2,575.4)" />
<use xlink:href="#f3_r" transform="matrix(12,0,0,12,636.1,575.4)" />
<use xlink:href="#f3_9" transform="matrix(12,0,0,12,646.2,575.4)" />
<use xlink:href="#f3_r" transform="matrix(12,0,0,12,664.2,575.4)" />
<use xlink:href="#f3_q" transform="matrix(12,0,0,12,674.3,575.4)" />
<use xlink:href="#f3_e" transform="matrix(12,0,0,12,678.4,575.4)" />
<use xlink:href="#f3_t" transform="matrix(12,0,0,12,694.6,575.4)" />
<use xlink:href="#f3_9" transform="matrix(12,0,0,12,699.6,575.4)" />
<use xlink:href="#f3_n" transform="matrix(12,0,0,12,711.9,575.4)" />
<use xlink:href="#f3_i" transform="matrix(12,0,0,12,727.3,575.4)" />
<use xlink:href="#f3_b" transform="matrix(12,0,0,12,739.5,575.4)" />
<use xlink:href="#f3_9" transform="matrix(12,0,0,12,751.6,575.4)" />
<use xlink:href="#f2_1e" transform="matrix(11,0,0,11,224.3,612.6)" />
<use xlink:href="#f2_7" transform="matrix(11,0,0,11,234.5,612.6)" />
<use xlink:href="#f2_o" transform="matrix(11,0,0,11,243.5,612.6)" />
<use xlink:href="#f2_9" transform="matrix(11,0,0,11,251.9,612.6)" />
<use xlink:href="#f2_5" transform="matrix(11,0,0,11,260.2,612.6)" />
<use xlink:href="#f2_6" transform="matrix(11,0,0,11,264.9,612.6)" />
<use xlink:href="#f2_7" transform="matrix(11,0,0,11,272.3,612.6)" />
<use xlink:href="#f2_2" transform="matrix(11,0,0,11,281.2,612.6)" />
<use xlink:href="#f2_9" transform="matrix(11,0,0,11,292.3,612.6)" />
<use xlink:href="#f2_7" transform="matrix(11,0,0,11,300.7,612.6)" />
<use xlink:href="#f2_g" transform="matrix(11,0,0,11,305.5,612.6)" />
<use xlink:href="#f2_8" transform="matrix(11,0,0,11,313.9,612.6)" />
<use xlink:href="#f1_g" transform="matrix(11,0,0,11,326.5,612.6)" />
<use xlink:href="#f1_e" transform="matrix(11,0,0,11,333.9,612.6)" />
<use xlink:href="#f1_h" transform="matrix(11,0,0,11,340.5,612.6)" />
<use xlink:href="#f1_15" transform="matrix(11,0,0,11,346.1,612.6)" />
<use xlink:href="#f2_6" transform="matrix(11,0,0,11,358.7,612.6)" />
<use xlink:href="#f2_8" transform="matrix(11,0,0,11,366.2,612.6)" />
<use xlink:href="#f2_2" transform="matrix(11,0,0,11,378.8,612.6)" />
<use xlink:href="#f2_m" transform="matrix(11,0,0,11,390,612.6)" />
<use xlink:href="#f2_4" transform="matrix(11,0,0,11,398.4,612.6)" />
<use xlink:href="#f2_f" transform="matrix(11,0,0,11,405,612.6)" />
<use xlink:href="#f2_9" transform="matrix(11,0,0,11,412.4,612.6)" />
<use xlink:href="#f2_13" transform="matrix(11,0,0,11,420.7,612.6)" />
<use xlink:href="#f3_9" transform="matrix(12,0,0,12,571.1,614)" />
<use xlink:href="#f3_s" transform="matrix(12,0,0,12,583.3,614)" />
<use xlink:href="#f3_l" transform="matrix(12,0,0,12,594.2,614)" />
<use xlink:href="#f3_d" transform="matrix(12,0,0,12,606.7,614)" />
<use xlink:href="#f3_g" transform="matrix(12,0,0,12,619.8,614)" />
<use xlink:href="#f3_c" transform="matrix(12,0,0,12,631.7,614)" />
<use xlink:href="#f3_f" transform="matrix(12,0,0,12,636.7,614)" />
<use xlink:href="#f3_l" transform="matrix(12,0,0,12,647.3,614)" />
<use xlink:href="#f3_c" transform="matrix(12,0,0,12,659.7,614)" />
<use xlink:href="#f3_e" transform="matrix(12,0,0,12,664.7,614)" />
<use xlink:href="#f3_c" transform="matrix(12,0,0,12,675.1,614)" />
<use xlink:href="#f3_6" transform="matrix(12,0,0,12,680.1,614)" />
<use xlink:href="#f3_t" transform="matrix(12,0,0,12,698.9,614)" />
<use xlink:href="#f3_c" transform="matrix(12,0,0,12,703.9,614)" />
<use xlink:href="#f3_e" transform="matrix(12,0,0,12,708.8,614)" />
<use xlink:href="#f3_l" transform="matrix(12,0,0,12,719.2,614)" />
<use xlink:href="#f3_x" transform="matrix(12,0,0,12,737.5,614)" />
<use xlink:href="#f3_3" transform="matrix(12,0,0,12,744.7,614)" />
<use xlink:href="#f3_y" transform="matrix(12,0,0,12,756.6,614)" />
<use xlink:href="#f3_x" transform="matrix(12,0,0,12,610.3,635.4)" />
<use xlink:href="#f3_c" transform="matrix(12,0,0,12,617.5,635.4)" />
<use xlink:href="#f3_7" transform="matrix(12,0,0,12,622.4,635.4)" />
<use xlink:href="#f3_8" transform="matrix(12,0,0,12,632.8,635.4)" />
<use xlink:href="#f3_f" transform="matrix(12,0,0,12,644.2,635.4)" />
<use xlink:href="#f3_7" transform="matrix(12,0,0,12,660.6,635.4)" />
<use xlink:href="#f3_q" transform="matrix(12,0,0,12,671,635.4)" />
<use xlink:href="#f3_p" transform="matrix(12,0,0,12,675.1,635.4)" />
<use xlink:href="#f3_y" transform="matrix(12,0,0,12,686.5,635.4)" />
<use xlink:href="#f3_m" transform="matrix(12,0,0,12,699.5,635.4)" />
<use xlink:href="#f3_c" transform="matrix(12,0,0,12,705.3,635.4)" />
<use xlink:href="#f3_6" transform="matrix(12,0,0,12,710.3,635.4)" />
<use xlink:href="#f3_g" transform="matrix(12,0,0,12,723.3,635.4)" />
<use xlink:href="#f3_c" transform="matrix(12,0,0,12,735.2,635.4)" />
<use xlink:href="#f3_6" transform="matrix(12,0,0,12,740.2,635.4)" />
<use xlink:href="#f3_f" transform="matrix(12,0,0,12,753.2,635.4)" />
<use xlink:href="#f1_14" transform="matrix(11,0,0,11,224.3,655.4)" />
<use xlink:href="#f1_e" transform="matrix(11,0,0,11,235.4,655.4)" />
<use xlink:href="#f1_h" transform="matrix(11,0,0,11,242,655.4)" />
<use xlink:href="#f1_15" transform="matrix(11,0,0,11,247.6,655.4)" />
<use xlink:href="#f1_e" transform="matrix(11,0,0,11,256,655.4)" />
<use xlink:href="#f2_k" transform="matrix(11,0,0,11,266.7,655.4)" />
<use xlink:href="#f2_9" transform="matrix(11,0,0,11,275.1,655.4)" />
<use xlink:href="#f2_c" transform="matrix(11,0,0,11,283.5,655.4)" />
<use xlink:href="#f2_i" transform="matrix(11,0,0,11,289.2,655.4)" />
<use xlink:href="#f2_e" transform="matrix(11,0,0,11,302.2,655.4)" />
<use xlink:href="#f2_k" transform="matrix(11,0,0,11,306.9,655.4)" />
<use xlink:href="#f2_9" transform="matrix(11,0,0,11,315.3,655.4)" />
<use xlink:href="#f2_1f" transform="matrix(11,0,0,11,323.7,655.4)" />
<use xlink:href="#f3_14" transform="matrix(12,0,0,12,689.9,656.8)" />
<use xlink:href="#f3_t" transform="matrix(12,0,0,12,699.7,656.8)" />
<use xlink:href="#f3_o" transform="matrix(12,0,0,12,704.7,656.8)" />
<use xlink:href="#f3_q" transform="matrix(12,0,0,12,717.7,656.8)" />
<use xlink:href="#f3_3" transform="matrix(12,0,0,12,727.6,656.8)" />
<use xlink:href="#f3_b" transform="matrix(12,0,0,12,739.5,656.8)" />
<use xlink:href="#f3_9" transform="matrix(12,0,0,12,751.6,656.8)" />
</g>
<g fill="#0000FF" >
<use xlink:href="#f3_6" transform="matrix(11,0,0,11,678.5,704.8)" />
<use xlink:href="#f3_7" transform="matrix(11,0,0,11,690.4,704.8)" />
<use xlink:href="#f3_8" transform="matrix(11,0,0,11,699.7,704.8)" />
<use xlink:href="#f3_e" transform="matrix(11,0,0,11,710.2,704.8)" />
<use xlink:href="#f3_3" transform="matrix(11,0,0,11,725.2,704.8)" />
<use xlink:href="#f3_7" transform="matrix(11,0,0,11,736.2,704.8)" />
<use xlink:href="#f3_4" transform="matrix(11,0,0,11,745.7,704.8)" />
<use xlink:href="#f3_h" transform="matrix(11,0,0,11,751.5,704.8)" />
<use xlink:href="#f3_f" transform="matrix(11,0,0,11,762.3,704.8)" />
</g>
</g>
<path d="M678.3,706.4H772" class="g2_11" />
<g clip-path="url(#c0_11)">
<g fill="#000000" >
<use xlink:href="#f0_2" transform="matrix(13,0,0,13,137.7,783.6)" />
<use xlink:href="#f0_3" transform="matrix(13,0,0,13,152.8,783.6)" />
<use xlink:href="#f0_4" transform="matrix(13,0,0,13,160,783.6)" />
<use xlink:href="#f0_5" transform="matrix(13,0,0,13,172.6,783.6)" />
<use xlink:href="#f0_6" transform="matrix(13,0,0,13,183,783.6)" />
<use xlink:href="#f0_7" transform="matrix(13,0,0,13,195.1,783.6)" />
<use xlink:href="#f0_6" transform="matrix(13,0,0,13,202.6,783.6)" />
<use xlink:href="#f0_7" transform="matrix(13,0,0,13,214.6,783.6)" />
<use xlink:href="#f0_8" transform="matrix(13,0,0,13,222.1,783.6)" />
<use xlink:href="#f0_i" transform="matrix(13,0,0,13,242.6,783.6)" />
<use xlink:href="#f0_l" transform="matrix(13,0,0,13,263.2,783.6)" />
</g>
</g>
<path d="M118,816.8H653.4M118,839H772.4M118,859.1H772.4M118,879.2H772.4M118,899.3H772.4M118,919.3H772.4M118,939.5H772.4M118.4,816.4V939.9M273.9,816.4V939.9m195,-123.5V939.9M653,816.4V939.9M772,838.6V939.9" class="g1_11" />
<g clip-path="url(#c0_11)">
<g fill="#000000" >
<use xlink:href="#f3_9" transform="matrix(12,0,0,12,570,834.3)" />
<use xlink:href="#f3_k" transform="matrix(12,0,0,12,582.2,834.3)" />
<use xlink:href="#f3_f" transform="matrix(12,0,0,12,594.1,834.3)" />
<use xlink:href="#f3_e" transform="matrix(12,0,0,12,604.7,834.3)" />
<use xlink:href="#f2_6" transform="matrix(11,0,0,11,507.1,834.3)" />
<use xlink:href="#f2_1j" transform="matrix(11,0,0,11,514.5,834.3)" />
<use xlink:href="#f2_d" transform="matrix(11,0,0,11,522.9,834.3)" />
<use xlink:href="#f2_c" transform="matrix(11,0,0,11,531.2,834.3)" />
<use xlink:href="#f2_6" transform="matrix(11,0,0,11,536.8,834.3)" />
<use xlink:href="#f2_4" transform="matrix(11,0,0,11,544.3,834.3)" />
<use xlink:href="#f2_3" transform="matrix(11,0,0,11,550.8,834.3)" />
<use xlink:href="#f2_c" transform="matrix(11,0,0,11,558.2,834.3)" />
<use xlink:href="#f3_f" transform="matrix(12,0,0,12,353.2,834.3)" />
<use xlink:href="#f3_q" transform="matrix(12,0,0,12,363.7,834.3)" />
<use xlink:href="#f3_q" transform="matrix(12,0,0,12,367.9,834.3)" />
<use xlink:href="#f3_h" transform="matrix(12,0,0,12,372,834.3)" />
<use xlink:href="#f3_b" transform="matrix(12,0,0,12,389.7,834.3)" />
<use xlink:href="#f3_c" transform="matrix(12,0,0,12,401.7,834.3)" />
<use xlink:href="#f3_q" transform="matrix(12,0,0,12,406.8,834.3)" />
<use xlink:href="#f3_3" transform="matrix(12,0,0,12,410.9,834.3)" />
<use xlink:href="#f3_e" transform="matrix(12,0,0,12,422.8,834.3)" />
<use xlink:href="#f2_k" transform="matrix(11,0,0,11,309.8,834.3)" />
<use xlink:href="#f2_6" transform="matrix(11,0,0,11,318.2,834.3)" />
<use xlink:href="#f2_b" transform="matrix(11,0,0,11,325.7,834.3)" />
<use xlink:href="#f2_6" transform="matrix(11,0,0,11,333.9,834.3)" />
<use xlink:href="#f2_c" transform="matrix(11,0,0,11,341.4,834.3)" />
<use xlink:href="#f3_10" transform="matrix(12,0,0,12,193,834.3)" />
<use xlink:href="#f3_q" transform="matrix(12,0,0,12,204.6,834.3)" />
<use xlink:href="#f3_g" transform="matrix(12,0,0,12,208.7,834.3)" />
<use xlink:href="#f3_c" transform="matrix(12,0,0,12,220.6,834.3)" />
<use xlink:href="#f3_3" transform="matrix(12,0,0,12,225.6,834.3)" />
<use xlink:href="#f3_e" transform="matrix(12,0,0,12,237.5,834.3)" />
<use xlink:href="#f2_3" transform="matrix(11,0,0,11,144.8,834.3)" />
<use xlink:href="#f2_1b" transform="matrix(11,0,0,11,152.3,834.3)" />
<use xlink:href="#f2_3" transform="matrix(11,0,0,11,160.5,834.3)" />
<use xlink:href="#f2_k" transform="matrix(11,0,0,11,168,834.3)" />
<use xlink:href="#f2_e" transform="matrix(11,0,0,11,176.4,834.3)" />
<use xlink:href="#f2_c" transform="matrix(11,0,0,11,181.1,834.3)" />
<use xlink:href="#f2_10" transform="matrix(11,0,0,11,661.7,855.1)" />
<use xlink:href="#f2_9" transform="matrix(11,0,0,11,670.1,855.1)" />
<use xlink:href="#f2_6" transform="matrix(11,0,0,11,477.6,855.1)" />
<use xlink:href="#f2_1j" transform="matrix(11,0,0,11,485,855.1)" />
<use xlink:href="#f2_d" transform="matrix(11,0,0,11,493.4,855.1)" />
<use xlink:href="#f2_c" transform="matrix(11,0,0,11,501.9,855.1)" />
<use xlink:href="#f2_6" transform="matrix(11,0,0,11,507.5,855.1)" />
<use xlink:href="#f2_4" transform="matrix(11,0,0,11,514.8,855.1)" />
<use xlink:href="#f2_9" transform="matrix(11,0,0,11,521.4,855.1)" />
<use xlink:href="#f2_k" transform="matrix(11,0,0,11,282.6,855.1)" />
<use xlink:href="#f2_6" transform="matrix(11,0,0,11,291,855.1)" />
<use xlink:href="#f2_b" transform="matrix(11,0,0,11,298.5,855.1)" />
<use xlink:href="#f2_9" transform="matrix(11,0,0,11,306.9,855.1)" />
<use xlink:href="#f2_17" transform="matrix(11,0,0,11,127.3,855.1)" />
<use xlink:href="#f2_1b" transform="matrix(11,0,0,11,139.3,855.1)" />
<use xlink:href="#f2_3" transform="matrix(11,0,0,11,147.7,855.1)" />
<use xlink:href="#f2_k" transform="matrix(11,0,0,11,155.2,855.1)" />
<use xlink:href="#f2_9" transform="matrix(11,0,0,11,163.6,855.1)" />
<use xlink:href="#f2_5" transform="matrix(11,0,0,11,661.7,875.1)" />
<use xlink:href="#f2_x" transform="matrix(11,0,0,11,666.4,875.1)" />
<use xlink:href="#f2_6" transform="matrix(11,0,0,11,477.6,875.1)" />
<use xlink:href="#f2_1j" transform="matrix(11,0,0,11,485,875.1)" />
<use xlink:href="#f2_d" transform="matrix(11,0,0,11,493.4,875.1)" />
<use xlink:href="#f2_c" transform="matrix(11,0,0,11,501.9,875.1)" />
<use xlink:href="#f2_6" transform="matrix(11,0,0,11,507.5,875.1)" />
<use xlink:href="#f2_4" transform="matrix(11,0,0,11,514.8,875.1)" />
<use xlink:href="#f2_3" transform="matrix(11,0,0,11,521.4,875.1)" />
<use xlink:href="#f2_4" transform="matrix(11,0,0,11,528.8,875.1)" />
<use xlink:href="#f2_k" transform="matrix(11,0,0,11,282.6,875.1)" />
<use xlink:href="#f2_6" transform="matrix(11,0,0,11,291,875.1)" />
<use xlink:href="#f2_b" transform="matrix(11,0,0,11,298.5,875.1)" />
<use xlink:href="#f2_6" transform="matrix(11,0,0,11,306.9,875.1)" />
<use xlink:href="#f2_4" transform="matrix(11,0,0,11,314.4,875.1)" />
<use xlink:href="#f2_17" transform="matrix(11,0,0,11,127.3,875.1)" />
<use xlink:href="#f2_1b" transform="matrix(11,0,0,11,139.3,875.1)" />
<use xlink:href="#f2_3" transform="matrix(11,0,0,11,147.7,875.1)" />
<use xlink:href="#f2_k" transform="matrix(11,0,0,11,155.2,875.1)" />
<use xlink:href="#f2_6" transform="matrix(11,0,0,11,163.6,875.1)" />
<use xlink:href="#f2_4" transform="matrix(11,0,0,11,171.1,875.1)" />
<use xlink:href="#f2_j" transform="matrix(11,0,0,11,661.7,895.3)" />
<use xlink:href="#f2_7" transform="matrix(11,0,0,11,669.1,895.3)" />
<use xlink:href="#f2_11" transform="matrix(11,0,0,11,673.7,895.3)" />
<use xlink:href="#f2_6" transform="matrix(11,0,0,11,678.5,895.3)" />
<use xlink:href="#f2_7" transform="matrix(11,0,0,11,685.9,895.3)" />
<use xlink:href="#f2_7" transform="matrix(11,0,0,11,690.5,895.3)" />
<use xlink:href="#f2_3" transform="matrix(11,0,0,11,695.2,895.3)" />
<use xlink:href="#f2_11" transform="matrix(11,0,0,11,702.7,895.3)" />
<use xlink:href="#f2_12" transform="matrix(11,0,0,11,707.4,895.3)" />
<use xlink:href="#f2_k" transform="matrix(11,0,0,11,719.5,895.3)" />
<use xlink:href="#f2_13" transform="matrix(11,0,0,11,727.9,895.3)" />
<use xlink:href="#f2_6" transform="matrix(11,0,0,11,477.6,895.3)" />
<use xlink:href="#f2_1j" transform="matrix(11,0,0,11,485,895.3)" />
<use xlink:href="#f2_d" transform="matrix(11,0,0,11,493.4,895.3)" />
<use xlink:href="#f2_c" transform="matrix(11,0,0,11,501.9,895.3)" />
<use xlink:href="#f2_6" transform="matrix(11,0,0,11,507.5,895.3)" />
<use xlink:href="#f2_4" transform="matrix(11,0,0,11,514.8,895.3)" />
<use xlink:href="#f2_3" transform="matrix(11,0,0,11,521.4,895.3)" />
<use xlink:href="#f2_k" transform="matrix(11,0,0,11,282.6,895.3)" />
<use xlink:href="#f2_6" transform="matrix(11,0,0,11,291,895.3)" />
<use xlink:href="#f2_b" transform="matrix(11,0,0,11,298.5,895.3)" />
<use xlink:href="#f2_6" transform="matrix(11,0,0,11,306.9,895.3)" />
<use xlink:href="#f2_3" transform="matrix(11,0,0,11,127.3,895.3)" />
<use xlink:href="#f2_1b" transform="matrix(11,0,0,11,134.7,895.3)" />
<use xlink:href="#f2_3" transform="matrix(11,0,0,11,143,895.3)" />
<use xlink:href="#f2_k" transform="matrix(11,0,0,11,150.4,895.3)" />
<use xlink:href="#f2_6" transform="matrix(11,0,0,11,158.8,895.3)" />
<use xlink:href="#f2_8" transform="matrix(11,0,0,11,661.7,915.3)" />
<use xlink:href="#f2_9" transform="matrix(11,0,0,11,670.1,915.3)" />
<use xlink:href="#f2_4" transform="matrix(11,0,0,11,678.5,915.3)" />
<use xlink:href="#f2_9" transform="matrix(11,0,0,11,685,915.3)" />
<use xlink:href="#f2_5" transform="matrix(11,0,0,11,693.4,915.3)" />
<use xlink:href="#f2_c" transform="matrix(11,0,0,11,698,915.3)" />
<use xlink:href="#f2_9" transform="matrix(11,0,0,11,703.7,915.3)" />
<use xlink:href="#f2_4" transform="matrix(11,0,0,11,712.1,915.3)" />
<use xlink:href="#f2_11" transform="matrix(11,0,0,11,718.6,915.3)" />
<use xlink:href="#f2_3" transform="matrix(11,0,0,11,723.3,915.3)" />
<use xlink:href="#f2_4" transform="matrix(11,0,0,11,730.7,915.3)" />
<use xlink:href="#f2_6" transform="matrix(11,0,0,11,477.6,915.3)" />
<use xlink:href="#f2_1j" transform="matrix(11,0,0,11,485,915.3)" />
<use xlink:href="#f2_d" transform="matrix(11,0,0,11,493.4,915.3)" />
<use xlink:href="#f2_c" transform="matrix(11,0,0,11,501.9,915.3)" />
<use xlink:href="#f2_6" transform="matrix(11,0,0,11,507.5,915.3)" />
<use xlink:href="#f2_4" transform="matrix(11,0,0,11,514.8,915.3)" />
<use xlink:href="#f2_3" transform="matrix(11,0,0,11,521.4,915.3)" />
<use xlink:href="#f2_i" transform="matrix(11,0,0,11,528.8,915.3)" />
<use xlink:href="#f2_9" transform="matrix(11,0,0,11,541.9,915.3)" />
<use xlink:href="#f2_4" transform="matrix(11,0,0,11,550.4,915.3)" />
<use xlink:href="#f2_k" transform="matrix(11,0,0,11,282.6,915.3)" />
<use xlink:href="#f2_6" transform="matrix(11,0,0,11,291,915.3)" />
<use xlink:href="#f2_b" transform="matrix(11,0,0,11,298.5,915.3)" />
<use xlink:href="#f2_6" transform="matrix(11,0,0,11,306.9,915.3)" />
<use xlink:href="#f2_8" transform="matrix(11,0,0,11,314.4,915.3)" />
<use xlink:href="#f2_3" transform="matrix(11,0,0,11,127.3,915.3)" />
<use xlink:href="#f2_1b" transform="matrix(11,0,0,11,134.7,915.3)" />
<use xlink:href="#f2_3" transform="matrix(11,0,0,11,143,915.3)" />
<use xlink:href="#f2_k" transform="matrix(11,0,0,11,150.4,915.3)" />
<use xlink:href="#f2_e" transform="matrix(11,0,0,11,158.8,915.3)" />
<use xlink:href="#f2_i" transform="matrix(11,0,0,11,163.6,915.3)" />
<use xlink:href="#f2_9" transform="matrix(11,0,0,11,176.7,915.3)" />
<use xlink:href="#f2_4" transform="matrix(11,0,0,11,184.9,915.3)" />
<use xlink:href="#f2_6" transform="matrix(11,0,0,11,661.7,935.5)" />
<use xlink:href="#f2_7" transform="matrix(11,0,0,11,669.1,935.5)" />
<use xlink:href="#f2_7" transform="matrix(11,0,0,11,673.7,935.5)" />
<use xlink:href="#f2_9" transform="matrix(11,0,0,11,678.5,935.5)" />
<use xlink:href="#f2_4" transform="matrix(11,0,0,11,686.9,935.5)" />
<use xlink:href="#f2_11" transform="matrix(11,0,0,11,693.4,935.5)" />
<use xlink:href="#f2_3" transform="matrix(11,0,0,11,698.1,935.5)" />
<use xlink:href="#f2_4" transform="matrix(11,0,0,11,705.5,935.5)" />
<use xlink:href="#f2_11" transform="matrix(11,0,0,11,712,935.5)" />
<use xlink:href="#f2_12" transform="matrix(11,0,0,11,716.7,935.5)" />
<use xlink:href="#f2_k" transform="matrix(11,0,0,11,728.8,935.5)" />
<use xlink:href="#f2_4" transform="matrix(11,0,0,11,737.2,935.5)" />
<use xlink:href="#f2_13" transform="matrix(11,0,0,11,743.8,935.5)" />
<use xlink:href="#f2_6" transform="matrix(11,0,0,11,477.6,935.5)" />
<use xlink:href="#f2_1j" transform="matrix(11,0,0,11,485,935.5)" />
<use xlink:href="#f2_d" transform="matrix(11,0,0,11,493.4,935.5)" />
<use xlink:href="#f2_c" transform="matrix(11,0,0,11,501.9,935.5)" />
<use xlink:href="#f2_6" transform="matrix(11,0,0,11,507.5,935.5)" />
<use xlink:href="#f2_4" transform="matrix(11,0,0,11,514.8,935.5)" />
<use xlink:href="#f2_3" transform="matrix(11,0,0,11,521.4,935.5)" />
<use xlink:href="#f2_8" transform="matrix(11,0,0,11,528.8,935.5)" />
<use xlink:href="#f2_k" transform="matrix(11,0,0,11,282.6,935.5)" />
<use xlink:href="#f2_6" transform="matrix(11,0,0,11,291,935.5)" />
<use xlink:href="#f2_b" transform="matrix(11,0,0,11,298.5,935.5)" />
<use xlink:href="#f2_6" transform="matrix(11,0,0,11,306.9,935.5)" />
<use xlink:href="#f2_i" transform="matrix(11,0,0,11,314.4,935.5)" />
<use xlink:href="#f2_9" transform="matrix(11,0,0,11,327.5,935.5)" />
<use xlink:href="#f2_4" transform="matrix(11,0,0,11,335.7,935.5)" />
<use xlink:href="#f2_3" transform="matrix(11,0,0,11,127.3,935.5)" />
<use xlink:href="#f2_1b" transform="matrix(11,0,0,11,134.7,935.5)" />
<use xlink:href="#f2_3" transform="matrix(11,0,0,11,143,935.5)" />
<use xlink:href="#f2_k" transform="matrix(11,0,0,11,150.4,935.5)" />
<use xlink:href="#f2_6" transform="matrix(11,0,0,11,158.8,935.5)" />
<use xlink:href="#f2_8" transform="matrix(11,0,0,11,166.3,935.5)" />
</g>
<g fill="#0000FF" >
<use xlink:href="#f3_6" transform="matrix(11,0,0,11,678.5,955.5)" />
<use xlink:href="#f3_7" transform="matrix(11,0,0,11,690.4,955.5)" />
<use xlink:href="#f3_8" transform="matrix(11,0,0,11,699.7,955.5)" />
<use xlink:href="#f3_e" transform="matrix(11,0,0,11,710.2,955.5)" />
<use xlink:href="#f3_3" transform="matrix(11,0,0,11,725.2,955.5)" />
<use xlink:href="#f3_7" transform="matrix(11,0,0,11,736.2,955.5)" />
<use xlink:href="#f3_4" transform="matrix(11,0,0,11,745.7,955.5)" />
<use xlink:href="#f3_h" transform="matrix(11,0,0,11,751.5,955.5)" />
<use xlink:href="#f3_f" transform="matrix(11,0,0,11,762.3,955.5)" />
</g>
</g>
<path d="M678.3,957.2H772" class="g2_11" />
<g clip-path="url(#c0_11)">
<g fill="#000000" >
<use xlink:href="#f0_2" transform="matrix(13,0,0,13,137.7,1016.7)" />
<use xlink:href="#f0_3" transform="matrix(13,0,0,13,152.8,1016.7)" />
<use xlink:href="#f0_4" transform="matrix(13,0,0,13,160,1016.7)" />
<use xlink:href="#f0_5" transform="matrix(13,0,0,13,172.6,1016.7)" />
<use xlink:href="#f0_6" transform="matrix(13,0,0,13,183,1016.7)" />
<use xlink:href="#f0_7" transform="matrix(13,0,0,13,195.1,1016.7)" />
<use xlink:href="#f0_6" transform="matrix(13,0,0,13,202.6,1016.7)" />
<use xlink:href="#f0_7" transform="matrix(13,0,0,13,214.6,1016.7)" />
<use xlink:href="#f0_8" transform="matrix(13,0,0,13,222.1,1016.7)" />
<use xlink:href="#f0_j" transform="matrix(13,0,0,13,242.6,1016.7)" />
<use xlink:href="#f0_l" transform="matrix(13,0,0,13,263.2,1016.7)" />
</g>
</g>
<path d="M120.9,1041.1H656m-535.1,48.6H772.4m-651.5,20.2H772.4m-651.5,20H772.4M120.9,1150H772.4m-651.5,20H772.4M121.3,1040.7v129.7M229.8,1040.7v129.7M330.9,1040.7v129.7M439.1,1040.7v129.7M547.4,1040.7v129.7M655.6,1040.7v129.7M772,1089.3v81.1" class="g1_11" />
<g clip-path="url(#c0_11)">
<g fill="#000000" >
<use xlink:href="#f3_6" transform="matrix(12,0,0,12,587.6,1058.6)" />
<use xlink:href="#f3_q" transform="matrix(12,0,0,12,600.6,1058.6)" />
<use xlink:href="#f3_e" transform="matrix(12,0,0,12,604.7,1058.6)" />
<use xlink:href="#f3_r" transform="matrix(12,0,0,12,615.1,1058.6)" />
<use xlink:href="#f3_3" transform="matrix(12,0,0,12,625.1,1058.6)" />
<use xlink:href="#f3_e" transform="matrix(12,0,0,12,637,1058.6)" />
<use xlink:href="#f2_6" transform="matrix(11,0,0,11,556.3,1078.6)" />
<use xlink:href="#f2_8" transform="matrix(11,0,0,11,563.7,1078.6)" />
<use xlink:href="#f2_f" transform="matrix(11,0,0,11,572,1078.6)" />
<use xlink:href="#f2_6" transform="matrix(11,0,0,11,579.4,1078.6)" />
<use xlink:href="#f2_8" transform="matrix(11,0,0,11,586.9,1078.6)" />
<use xlink:href="#f2_k" transform="matrix(11,0,0,11,595.3,1078.6)" />
<use xlink:href="#f2_6" transform="matrix(11,0,0,11,603.7,1078.6)" />
<use xlink:href="#f2_c" transform="matrix(11,0,0,11,611.2,1078.6)" />
<use xlink:href="#f3_b" transform="matrix(12,0,0,12,492.7,1058.6)" />
<use xlink:href="#f3_c" transform="matrix(12,0,0,12,504.6,1058.6)" />
<use xlink:href="#f3_g" transform="matrix(12,0,0,12,509.7,1058.6)" />
<use xlink:href="#f3_d" transform="matrix(12,0,0,12,521.6,1058.6)" />
<use xlink:href="#f3_e" transform="matrix(12,0,0,12,528.9,1058.6)" />
<use xlink:href="#f2_d" transform="matrix(11,0,0,11,447.9,1078.6)" />
<use xlink:href="#f2_c" transform="matrix(11,0,0,11,456.2,1078.6)" />
<use xlink:href="#f2_9" transform="matrix(11,0,0,11,461.8,1078.6)" />
<use xlink:href="#f2_b" transform="matrix(11,0,0,11,470.2,1078.6)" />
<use xlink:href="#f2_3" transform="matrix(11,0,0,11,478.6,1078.6)" />
<use xlink:href="#f2_c" transform="matrix(11,0,0,11,486.1,1078.6)" />
<use xlink:href="#f3_r" transform="matrix(12,0,0,12,374.2,1058.6)" />
<use xlink:href="#f3_e" transform="matrix(12,0,0,12,384.1,1058.6)" />
<use xlink:href="#f3_c" transform="matrix(12,0,0,12,394.5,1058.6)" />
<use xlink:href="#f3_c" transform="matrix(12,0,0,12,399.5,1058.6)" />
<use xlink:href="#f3_q" transform="matrix(12,0,0,12,404.5,1058.6)" />
<use xlink:href="#f3_3" transform="matrix(12,0,0,12,408.6,1058.6)" />
<use xlink:href="#f3_e" transform="matrix(12,0,0,12,420.6,1058.6)" />
<use xlink:href="#f2_8" transform="matrix(11,0,0,11,339.6,1078.6)" />
<use xlink:href="#f2_3" transform="matrix(11,0,0,11,348,1078.6)" />
<use xlink:href="#f2_f" transform="matrix(11,0,0,11,355.5,1078.6)" />
<use xlink:href="#f2_6" transform="matrix(11,0,0,11,363,1078.6)" />
<use xlink:href="#f2_c" transform="matrix(11,0,0,11,370.3,1078.6)" />
<use xlink:href="#f3_7" transform="matrix(12,0,0,12,274.4,1058.6)" />
<use xlink:href="#f3_c" transform="matrix(12,0,0,12,284.8,1058.6)" />
<use xlink:href="#f3_h" transform="matrix(12,0,0,12,289.8,1058.6)" />
<use xlink:href="#f3_f" transform="matrix(12,0,0,12,301.7,1058.6)" />
<use xlink:href="#f3_e" transform="matrix(12,0,0,12,312.2,1058.6)" />
<use xlink:href="#f2_6" transform="matrix(11,0,0,11,238.6,1078.6)" />
<use xlink:href="#f2_7" transform="matrix(11,0,0,11,246,1078.6)" />
<use xlink:href="#f2_6" transform="matrix(11,0,0,11,250.7,1078.6)" />
<use xlink:href="#f2_n" transform="matrix(11,0,0,11,258.2,1078.6)" />
<use xlink:href="#f2_e" transform="matrix(11,0,0,11,266.6,1078.6)" />
<use xlink:href="#f2_c" transform="matrix(11,0,0,11,271.1,1078.6)" />
<use xlink:href="#f4_j" transform="matrix(16,0,0,16,150.8,1064.3)" />
<use xlink:href="#f4_b" transform="matrix(16,0,0,16,167.4,1064.3)" />
<use xlink:href="#f4_h" transform="matrix(16,0,0,16,175.8,1064.3)" />
<use xlink:href="#f4_8" transform="matrix(16,0,0,16,190.6,1064.3)" />
<use xlink:href="#f4_h" transform="matrix(16,0,0,16,206.8,1064.3)" />
<use xlink:href="#f2_r" transform="matrix(11,0,0,11,130,1085.6)" />
<use xlink:href="#f2_3" transform="matrix(11,0,0,11,138.4,1085.6)" />
<use xlink:href="#f2_7" transform="matrix(11,0,0,11,145.9,1085.6)" />
<use xlink:href="#f2_6" transform="matrix(11,0,0,11,150.6,1085.6)" />
<use xlink:href="#f2_c" transform="matrix(11,0,0,11,157.9,1085.6)" />
<use xlink:href="#f2_10" transform="matrix(11,0,0,11,664.4,1105.8)" />
<use xlink:href="#f2_9" transform="matrix(11,0,0,11,672.8,1105.8)" />
<use xlink:href="#f2_6" transform="matrix(11,0,0,11,556.3,1105.8)" />
<use xlink:href="#f2_8" transform="matrix(11,0,0,11,563.7,1105.8)" />
<use xlink:href="#f2_f" transform="matrix(11,0,0,11,572,1105.8)" />
<use xlink:href="#f2_e" transform="matrix(11,0,0,11,579.4,1105.8)" />
<use xlink:href="#f2_6" transform="matrix(11,0,0,11,584.2,1105.8)" />
<use xlink:href="#f2_8" transform="matrix(11,0,0,11,591.6,1105.8)" />
<use xlink:href="#f2_k" transform="matrix(11,0,0,11,600,1105.8)" />
<use xlink:href="#f2_9" transform="matrix(11,0,0,11,608.4,1105.8)" />
<use xlink:href="#f2_d" transform="matrix(11,0,0,11,447.9,1105.8)" />
<use xlink:href="#f2_c" transform="matrix(11,0,0,11,456.2,1105.8)" />
<use xlink:href="#f2_m" transform="matrix(11,0,0,11,461.8,1105.8)" />
<use xlink:href="#f2_6" transform="matrix(11,0,0,11,470.2,1105.8)" />
<use xlink:href="#f2_b" transform="matrix(11,0,0,11,477.7,1105.8)" />
<use xlink:href="#f2_9" transform="matrix(11,0,0,11,486.1,1105.8)" />
<use xlink:href="#f2_8" transform="matrix(11,0,0,11,339.6,1105.8)" />
<use xlink:href="#f2_3" transform="matrix(11,0,0,11,348,1105.8)" />
<use xlink:href="#f2_t" transform="matrix(11,0,0,11,355.5,1105.8)" />
<use xlink:href="#f2_f" transform="matrix(11,0,0,11,363,1105.8)" />
<use xlink:href="#f2_9" transform="matrix(11,0,0,11,370.4,1105.8)" />
<use xlink:href="#f2_6" transform="matrix(11,0,0,11,238.6,1105.8)" />
<use xlink:href="#f2_7" transform="matrix(11,0,0,11,246,1105.8)" />
<use xlink:href="#f2_e" transform="matrix(11,0,0,11,250.7,1105.8)" />
<use xlink:href="#f2_u" transform="matrix(11,0,0,11,255.3,1105.8)" />
<use xlink:href="#f2_9" transform="matrix(11,0,0,11,260,1105.8)" />
<use xlink:href="#f2_r" transform="matrix(11,0,0,11,130,1105.8)" />
<use xlink:href="#f2_3" transform="matrix(11,0,0,11,138.4,1105.8)" />
<use xlink:href="#f2_7" transform="matrix(11,0,0,11,145.9,1105.8)" />
<use xlink:href="#f2_n" transform="matrix(11,0,0,11,150.6,1105.8)" />
<use xlink:href="#f2_9" transform="matrix(11,0,0,11,159,1105.8)" />
<use xlink:href="#f2_5" transform="matrix(11,0,0,11,664.4,1125.8)" />
<use xlink:href="#f2_x" transform="matrix(11,0,0,11,669,1125.8)" />
<use xlink:href="#f2_6" transform="matrix(11,0,0,11,556.3,1125.8)" />
<use xlink:href="#f2_8" transform="matrix(11,0,0,11,563.7,1125.8)" />
<use xlink:href="#f2_f" transform="matrix(11,0,0,11,572,1125.8)" />
<use xlink:href="#f2_e" transform="matrix(11,0,0,11,579.4,1125.8)" />
<use xlink:href="#f2_6" transform="matrix(11,0,0,11,584.2,1125.8)" />
<use xlink:href="#f2_8" transform="matrix(11,0,0,11,591.6,1125.8)" />
<use xlink:href="#f2_k" transform="matrix(11,0,0,11,600,1125.8)" />
<use xlink:href="#f2_6" transform="matrix(11,0,0,11,608.4,1125.8)" />
<use xlink:href="#f2_4" transform="matrix(11,0,0,11,615.9,1125.8)" />
<use xlink:href="#f2_d" transform="matrix(11,0,0,11,447.9,1125.8)" />
<use xlink:href="#f2_c" transform="matrix(11,0,0,11,456.2,1125.8)" />
<use xlink:href="#f2_m" transform="matrix(11,0,0,11,461.8,1125.8)" />
<use xlink:href="#f2_6" transform="matrix(11,0,0,11,470.2,1125.8)" />
<use xlink:href="#f2_b" transform="matrix(11,0,0,11,477.7,1125.8)" />
<use xlink:href="#f2_3" transform="matrix(11,0,0,11,486.1,1125.8)" />
<use xlink:href="#f2_4" transform="matrix(11,0,0,11,493.6,1125.8)" />
<use xlink:href="#f2_8" transform="matrix(11,0,0,11,339.6,1125.8)" />
<use xlink:href="#f2_3" transform="matrix(11,0,0,11,348,1125.8)" />
<use xlink:href="#f2_f" transform="matrix(11,0,0,11,355.5,1125.8)" />
<use xlink:href="#f2_6" transform="matrix(11,0,0,11,363,1125.8)" />
<use xlink:href="#f2_4" transform="matrix(11,0,0,11,370.4,1125.8)" />
<use xlink:href="#f2_6" transform="matrix(11,0,0,11,238.6,1125.8)" />
<use xlink:href="#f2_7" transform="matrix(11,0,0,11,246,1125.8)" />
<use xlink:href="#f2_e" transform="matrix(11,0,0,11,250.7,1125.8)" />
<use xlink:href="#f2_n" transform="matrix(11,0,0,11,255.4,1125.8)" />
<use xlink:href="#f2_6" transform="matrix(11,0,0,11,263.8,1125.8)" />
<use xlink:href="#f2_4" transform="matrix(11,0,0,11,271.1,1125.8)" />
<use xlink:href="#f2_r" transform="matrix(11,0,0,11,130,1125.8)" />
<use xlink:href="#f2_3" transform="matrix(11,0,0,11,138.4,1125.8)" />
<use xlink:href="#f2_7" transform="matrix(11,0,0,11,145.9,1125.8)" />
<use xlink:href="#f2_6" transform="matrix(11,0,0,11,150.6,1125.8)" />
<use xlink:href="#f2_4" transform="matrix(11,0,0,11,157.9,1125.8)" />
<use xlink:href="#f2_j" transform="matrix(11,0,0,11,664.4,1146)" />
<use xlink:href="#f2_7" transform="matrix(11,0,0,11,671.8,1146)" />
<use xlink:href="#f2_11" transform="matrix(11,0,0,11,676.5,1146)" />
<use xlink:href="#f2_6" transform="matrix(11,0,0,11,681.2,1146)" />
<use xlink:href="#f2_7" transform="matrix(11,0,0,11,688.5,1146)" />
<use xlink:href="#f2_7" transform="matrix(11,0,0,11,693.3,1146)" />
<use xlink:href="#f2_3" transform="matrix(11,0,0,11,698,1146)" />
<use xlink:href="#f2_11" transform="matrix(11,0,0,11,705.3,1146)" />
<use xlink:href="#f2_12" transform="matrix(11,0,0,11,710,1146)" />
<use xlink:href="#f2_k" transform="matrix(11,0,0,11,722.1,1146)" />
<use xlink:href="#f2_13" transform="matrix(11,0,0,11,730.5,1146)" />
<use xlink:href="#f2_6" transform="matrix(11,0,0,11,556.3,1146)" />
<use xlink:href="#f2_8" transform="matrix(11,0,0,11,563.7,1146)" />
<use xlink:href="#f2_f" transform="matrix(11,0,0,11,572,1146)" />
<use xlink:href="#f2_e" transform="matrix(11,0,0,11,579.4,1146)" />
<use xlink:href="#f2_6" transform="matrix(11,0,0,11,584.2,1146)" />
<use xlink:href="#f2_8" transform="matrix(11,0,0,11,591.6,1146)" />
<use xlink:href="#f2_k" transform="matrix(11,0,0,11,600,1146)" />
<use xlink:href="#f2_6" transform="matrix(11,0,0,11,608.4,1146)" />
<use xlink:href="#f2_d" transform="matrix(11,0,0,11,447.9,1146)" />
<use xlink:href="#f2_c" transform="matrix(11,0,0,11,456.2,1146)" />
<use xlink:href="#f2_m" transform="matrix(11,0,0,11,461.8,1146)" />
<use xlink:href="#f2_6" transform="matrix(11,0,0,11,470.2,1146)" />
<use xlink:href="#f2_b" transform="matrix(11,0,0,11,477.7,1146)" />
<use xlink:href="#f2_3" transform="matrix(11,0,0,11,486.1,1146)" />
<use xlink:href="#f2_8" transform="matrix(11,0,0,11,339.6,1146)" />
<use xlink:href="#f2_3" transform="matrix(11,0,0,11,348,1146)" />
<use xlink:href="#f2_f" transform="matrix(11,0,0,11,355.5,1146)" />
<use xlink:href="#f2_6" transform="matrix(11,0,0,11,363,1146)" />
<use xlink:href="#f2_6" transform="matrix(11,0,0,11,238.6,1146)" />
<use xlink:href="#f2_7" transform="matrix(11,0,0,11,246,1146)" />
<use xlink:href="#f2_e" transform="matrix(11,0,0,11,250.7,1146)" />
<use xlink:href="#f2_n" transform="matrix(11,0,0,11,255.4,1146)" />
<use xlink:href="#f2_6" transform="matrix(11,0,0,11,263.8,1146)" />
<use xlink:href="#f2_r" transform="matrix(11,0,0,11,130,1146)" />
<use xlink:href="#f2_3" transform="matrix(11,0,0,11,138.4,1146)" />
<use xlink:href="#f2_7" transform="matrix(11,0,0,11,145.9,1146)" />
<use xlink:href="#f2_6" transform="matrix(11,0,0,11,150.6,1146)" />
<use xlink:href="#f2_8" transform="matrix(11,0,0,11,664.4,1166)" />
<use xlink:href="#f2_9" transform="matrix(11,0,0,11,672.8,1166)" />
<use xlink:href="#f2_4" transform="matrix(11,0,0,11,681.2,1166)" />
<use xlink:href="#f2_9" transform="matrix(11,0,0,11,687.8,1166)" />
<use xlink:href="#f2_5" transform="matrix(11,0,0,11,696,1166)" />
<use xlink:href="#f2_c" transform="matrix(11,0,0,11,700.8,1166)" />
<use xlink:href="#f2_9" transform="matrix(11,0,0,11,706.4,1166)" />
<use xlink:href="#f2_4" transform="matrix(11,0,0,11,714.8,1166)" />
<use xlink:href="#f2_11" transform="matrix(11,0,0,11,721.2,1166)" />
<use xlink:href="#f2_3" transform="matrix(11,0,0,11,725.9,1166)" />
<use xlink:href="#f2_4" transform="matrix(11,0,0,11,733.4,1166)" />
<use xlink:href="#f2_6" transform="matrix(11,0,0,11,556.3,1166)" />
<use xlink:href="#f2_8" transform="matrix(11,0,0,11,563.7,1166)" />
<use xlink:href="#f2_f" transform="matrix(11,0,0,11,572,1166)" />
<use xlink:href="#f2_6" transform="matrix(11,0,0,11,579.4,1166)" />
<use xlink:href="#f2_8" transform="matrix(11,0,0,11,586.9,1166)" />
<use xlink:href="#f2_k" transform="matrix(11,0,0,11,595.3,1166)" />
<use xlink:href="#f2_6" transform="matrix(11,0,0,11,603.7,1166)" />
<use xlink:href="#f2_i" transform="matrix(11,0,0,11,611.2,1166)" />
<use xlink:href="#f2_9" transform="matrix(11,0,0,11,624.3,1166)" />
<use xlink:href="#f2_4" transform="matrix(11,0,0,11,632.7,1166)" />
<use xlink:href="#f2_d" transform="matrix(11,0,0,11,447.9,1166)" />
<use xlink:href="#f2_c" transform="matrix(11,0,0,11,456.2,1166)" />
<use xlink:href="#f2_9" transform="matrix(11,0,0,11,461.8,1166)" />
<use xlink:href="#f2_b" transform="matrix(11,0,0,11,470.2,1166)" />
<use xlink:href="#f2_3" transform="matrix(11,0,0,11,478.6,1166)" />
<use xlink:href="#f2_i" transform="matrix(11,0,0,11,486.1,1166)" />
<use xlink:href="#f2_9" transform="matrix(11,0,0,11,499.2,1166)" />
<use xlink:href="#f2_4" transform="matrix(11,0,0,11,507.6,1166)" />
<use xlink:href="#f2_8" transform="matrix(11,0,0,11,339.6,1166)" />
<use xlink:href="#f2_3" transform="matrix(11,0,0,11,348,1166)" />
<use xlink:href="#f2_f" transform="matrix(11,0,0,11,355.5,1166)" />
<use xlink:href="#f2_6" transform="matrix(11,0,0,11,363,1166)" />
<use xlink:href="#f2_i" transform="matrix(11,0,0,11,370.3,1166)" />
<use xlink:href="#f2_9" transform="matrix(11,0,0,11,383.4,1166)" />
<use xlink:href="#f2_4" transform="matrix(11,0,0,11,391.8,1166)" />
<use xlink:href="#f2_6" transform="matrix(11,0,0,11,238.6,1166)" />
<use xlink:href="#f2_7" transform="matrix(11,0,0,11,246,1166)" />
<use xlink:href="#f2_6" transform="matrix(11,0,0,11,250.7,1166)" />
<use xlink:href="#f2_n" transform="matrix(11,0,0,11,258.2,1166)" />
<use xlink:href="#f2_e" transform="matrix(11,0,0,11,266.6,1166)" />
<use xlink:href="#f2_i" transform="matrix(11,0,0,11,271.1,1166)" />
<use xlink:href="#f2_9" transform="matrix(11,0,0,11,284.3,1166)" />
<use xlink:href="#f2_4" transform="matrix(11,0,0,11,292.7,1166)" />
<use xlink:href="#f2_r" transform="matrix(11,0,0,11,130,1166)" />
<use xlink:href="#f2_3" transform="matrix(11,0,0,11,138.4,1166)" />
<use xlink:href="#f2_7" transform="matrix(11,0,0,11,145.9,1166)" />
<use xlink:href="#f2_6" transform="matrix(11,0,0,11,150.6,1166)" />
<use xlink:href="#f2_i" transform="matrix(11,0,0,11,157.9,1166)" />
<use xlink:href="#f2_9" transform="matrix(11,0,0,11,171.1,1166)" />
<use xlink:href="#f2_4" transform="matrix(11,0,0,11,179.5,1166)" />
</g>
</g>
<defs>
<path d="M71,0V90H214v934H71v90H1073V851H970v160H502V654H792V796H895V411H792V552H502V103H984V263h102V0Z" 
id="f0_2"
transform="scale(0.001,-0.001)" />

<path d="M87,-338c0,0,-45,0,-94,7c0,0,-51,8,-105,22v168l84,-1c0,0,1,-59,23,-86c0,0,21,-26,70,-26c0,0,55,0,77,35c0,0,21,35,21,127V703H51v90H427V-92c0,0,0,-122,-86,-184c0,0,-86,-62,-254,-62ZM277,876c0,0,-61,0,-102,41c0,0,-42,41,-42,101c0,0,0,60,41,101c0,0,42,42,103,42c0,0,58,0,100,-42c0,0,42,-42,42,-101c0,0,0,-59,-42,-101c0,0,-41,-41,-100,-41Z" 
id="f0_3"
transform="scale(0.001,-0.001)" />

<path d="M612,448c0,0,0,156,-29,219c0,0,-29,63,-99,63c0,0,-68,0,-98,-61c0,0,-29,-62,-29,-208V448ZM488,-20c0,0,-205,0,-315,107C173,87,63,195,63,397c0,0,0,197,112,307c0,0,113,110,313,110c0,0,197,0,303,-115c0,0,105,-116,111,-340H357v-6c0,0,0,-154,46,-222c0,0,46,-68,149,-68c0,0,86,0,139,45c0,0,53,46,68,133H883C883,241,851,105,755,42c0,0,-95,-62,-267,-62Z" 
id="f0_4"
transform="scale(0.001,-0.001)" />

<path d="M53,0V90H165V703H44v90H429V652c0,0,39,83,103,123c0,0,64,39,156,39c0,0,24,0,57,-3c0,0,33,-3,76,-9V565H737c0,0,-4,63,-34,94c0,0,-30,31,-87,31c0,0,-87,0,-137,-76c0,0,-50,-76,-50,-211V90H573V0Z" 
id="f0_5"
transform="scale(0.001,-0.001)" />

<path d="M507,-20c0,0,-212,0,-328,108C179,88,63,198,63,397c0,0,0,197,114,307c0,0,115,110,320,110c0,0,82,0,167,-15c0,0,84,-16,171,-47V532H752c0,0,-12,101,-59,150c0,0,-47,48,-132,48c0,0,-111,0,-157,-74c0,0,-47,-75,-47,-259c0,0,0,-180,45,-257c0,0,46,-77,149,-77c0,0,80,0,128,47c0,0,48,48,58,137H861C861,247,833,112,745,45c0,0,-87,-65,-238,-65Z" 
id="f0_6"
transform="scale(0.001,-0.001)" />

<path d="M53,0V90H165V703H53v90H429V90H543V0ZM285,876c0,0,-61,0,-102,41c0,0,-42,41,-42,101c0,0,0,60,42,101c0,0,41,42,102,42c0,0,59,0,100,-42c0,0,41,-41,41,-101c0,0,0,-59,-41,-101c0,0,-41,-41,-100,-41Z" 
id="f0_7"
transform="scale(0.001,-0.001)" />

<path d="M510,63c0,0,84,0,118,71c0,0,34,72,34,263c0,0,0,191,-34,262c0,0,-33,71,-118,71c0,0,-84,0,-119,-72c0,0,-34,-72,-34,-261c0,0,0,-190,34,-262c0,0,35,-72,119,-72Zm0,-83c0,0,-209,0,-328,110C182,90,63,201,63,397c0,0,0,196,119,307c0,0,119,110,328,110c0,0,211,0,330,-110c0,0,118,-111,118,-307c0,0,0,-196,-119,-307C839,90,720,-20,510,-20Z" 
id="f0_8"
transform="scale(0.001,-0.001)" />

<path d="M528,389V930L196,389ZM363,0V90H528V293H63v86l466,755H810V389h190V293H810V90H975V0Z" 
id="f0_g"
transform="scale(0.001,-0.001)" />

<path d="M83,309V510H551V309Z" 
id="f0_l"
transform="scale(0.001,-0.001)" />

<path d="M276,-14c0,0,-57,0,-125,13C151,-1,83,10,48,23V214H97l28,-98c0,0,26,-26,69,-44c0,0,42,-17,86,-17c0,0,65,0,97,28c0,0,32,28,32,71c0,0,0,41,-31,65c0,0,-30,25,-133,57c0,0,-108,34,-154,92c0,0,-45,58,-45,143c0,0,0,95,71,152c0,0,71,57,183,57c0,0,77,0,207,-22V518H457l-24,82c0,0,-21,22,-60,35c0,0,-40,14,-75,14c0,0,-53,0,-79,-22c0,0,-26,-22,-26,-59c0,0,0,-40,32,-65c0,0,32,-26,132,-55c0,0,109,-34,155,-89c0,0,45,-55,45,-137c0,0,0,-117,-72,-177c0,0,-72,-59,-209,-59Z" 
id="f1_e"
transform="scale(0.001,-0.001)" />

<path d="M434,423c0,0,0,101,-7,142c0,0,-6,40,-22,60c0,0,-16,19,-45,19c0,0,-44,0,-66,-48c0,0,-22,-49,-22,-173ZM389,-14c0,0,-172,0,-254,89c0,0,-83,90,-83,279c0,0,0,184,79,274c0,0,79,91,238,91c0,0,142,0,206,-76c0,0,64,-76,64,-237V345H271V333c0,0,0,-111,18,-158c0,0,18,-47,58,-72c0,0,40,-25,110,-25c0,0,66,0,166,22V42C623,42,582,18,517,1c0,0,-66,-15,-128,-15Z" 
id="f1_g"
transform="scale(0.001,-0.001)" />

<path d="M41,0V49l91,18V634L41,652v49H336l8,-145c0,0,80,89,144,128c0,0,64,40,117,40h40V468H604l-45,94c0,0,-47,0,-106,-21c0,0,-60,-20,-105,-48V67L460,49V0Z" 
id="f1_5"
transform="scale(0.001,-0.001)" />

<path d="M327,-14c0,0,-101,0,-156,45c0,0,-55,45,-55,131V624H25v48l108,29l87,159H332V701H480V624H332V176c0,0,0,-49,20,-73c0,0,20,-25,53,-25c0,0,40,0,97,12V26c0,0,-22,-15,-76,-27c0,0,-55,-13,-99,-13Z" 
id="f1_h"
transform="scale(0.001,-0.001)" />

<path d="M345,75c0,0,50,0,110,26V351l-63,-2c0,0,-72,-3,-100,-38c0,0,-28,-35,-28,-113c0,0,0,-63,22,-93c0,0,23,-30,59,-30ZM266,-14c0,0,-217,0,-217,208c0,0,0,79,32,126c0,0,32,48,93,71c0,0,60,22,190,25l91,2V521c0,0,0,126,-104,126c0,0,-62,0,-140,-39L183,521H134V691c0,0,112,17,165,21c0,0,53,5,108,5c0,0,264,0,264,-194V67L741,49V0H483L466,54C466,54,408,14,361,0c0,0,-47,-14,-95,-14Z" 
id="f1_7"
transform="scale(0.001,-0.001)" />

<path d="M148,-329c0,0,-58,0,-114,13v151H69l24,-71c0,0,23,-17,64,-17c0,0,39,0,72,22c0,0,33,23,60,67c0,0,27,44,68,157L90,649L19,668v33H344V668L233,648L423,158L606,649L497,668v33H758V668L685,652L411,-43c0,0,-48,-124,-84,-177c0,0,-36,-54,-79,-82c0,0,-44,-27,-100,-27Z" 
id="f2_10"
transform="scale(0.001,-0.001)" />

<path d="M377,45c0,0,99,0,147,73c0,0,47,73,47,237c0,0,0,161,-47,233c0,0,-47,72,-147,72c0,0,-97,0,-141,-69c0,0,-44,-69,-44,-236c0,0,0,-169,45,-240c0,0,44,-70,140,-70Zm0,-59c0,0,-158,0,-238,94c0,0,-81,95,-81,274c0,0,0,178,81,272c0,0,80,94,244,94c0,0,160,0,241,-92c0,0,82,-92,82,-274c0,0,0,-368,-329,-368Z" 
id="f2_9"
transform="scale(0.001,-0.001)" />

<path d="M278,-14c0,0,-52,0,-115,11c0,0,-63,10,-99,23V193H98L134,95c0,0,56,-50,146,-50c0,0,144,0,144,123c0,0,0,91,-114,130l-66,21c0,0,-75,25,-110,50c0,0,-34,26,-53,63c0,0,-18,36,-18,89c0,0,0,92,63,145c0,0,63,54,170,54c0,0,77,0,193,-23V544H454l-32,81c0,0,-39,35,-124,35c0,0,-61,0,-92,-30c0,0,-32,-30,-32,-80c0,0,0,-43,29,-72c0,0,28,-29,86,-48c0,0,110,-38,144,-55c0,0,33,-17,57,-42c0,0,23,-25,36,-57c0,0,13,-32,13,-79c0,0,0,-104,-66,-158c0,0,-66,-53,-195,-53Z" 
id="f2_4"
transform="scale(0.001,-0.001)" />

<path d="M495,413c0,0,0,133,-34,190c0,0,-34,57,-105,57c0,0,-78,0,-119,-63c0,0,-42,-62,-42,-184ZM374,-14c0,0,-163,0,-239,87c0,0,-75,88,-75,283c0,0,0,183,77,273c0,0,76,91,219,91c0,0,269,0,269,-306V353H194V340c0,0,0,-103,23,-160c0,0,22,-57,70,-87c0,0,47,-29,124,-29c0,0,40,0,96,6c0,0,55,7,91,15V43C598,43,562,20,500,3c0,0,-61,-17,-126,-17Z" 
id="f2_6"
transform="scale(0.001,-0.001)" />

<path d="M249,-14c0,0,-71,0,-107,42c0,0,-35,42,-35,119V639H15v33l93,29l76,159h47V701H391V639H231V161c0,0,0,-48,22,-73c0,0,22,-24,57,-24c0,0,44,0,106,12V26C416,26,389,8,340,-2c0,0,-49,-12,-91,-12Z" 
id="f2_5"
transform="scale(0.001,-0.001)" />

<path d="M289,-14c0,0,-179,0,-179,205V649L20,668v33H233V200c0,0,0,-128,120,-128c0,0,92,0,173,23V649L420,668v33H649V52L738,34V0H533l-6,57C527,57,474,28,405,6c0,0,-69,-20,-116,-20Zm24,849v24l147,203H618v-27L354,835Z" 
id="f2_x"
transform="scale(0.001,-0.001)" />

<path d="M460,-325c0,0,-148,79,-231,172c0,0,-84,93,-123,217c0,0,-39,126,-39,304c0,0,0,178,39,303c0,0,39,125,122,217c0,0,82,93,232,172V997c0,0,-91,-52,-145,-134c0,0,-54,-81,-79,-190c0,0,-25,-109,-25,-305c0,0,0,-194,26,-309c0,0,26,-114,82,-193c0,0,56,-79,141,-128v-63Z" 
id="f2_1s"
transform="scale(0.001,-0.001)" />

<path d="M360,-14L72,649L0,668v33H327V668L216,648L420,164L615,649L504,668v33H764V668L697,652L416,-14Z" 
id="f2_r"
transform="scale(0.001,-0.001)" />

<path d="M49,-325v63c0,0,85,49,140,128c0,0,56,79,83,194c0,0,26,115,26,308c0,0,0,196,-25,305c0,0,-25,109,-79,190c0,0,-54,82,-145,134v63c0,0,149,-80,232,-172c0,0,83,-92,122,-217c0,0,39,-125,39,-303c0,0,0,-177,-39,-303c0,0,-39,-125,-122,-217c0,0,-83,-93,-232,-173Z" 
id="f2_1u"
transform="scale(0.001,-0.001)" />

<path d="M31,0V33l88,19V649L31,668v33H235l7,-87c0,0,44,37,121,71c0,0,76,35,121,35h11V530H463l-43,82c0,0,-37,0,-88,-10c0,0,-52,-10,-89,-26V52L363,33V0Z" 
id="f2_c"
transform="scale(0.001,-0.001)" />

<path d="M284,67c0,0,51,0,88,12c0,0,37,11,74,29V357l-98,-3c0,0,-100,-3,-135,-38c0,0,-35,-36,-35,-118c0,0,0,-131,106,-131ZM233,-14c0,0,-179,0,-179,208c0,0,0,70,27,116c0,0,27,46,87,70c0,0,60,24,173,27l105,3V519c0,0,0,73,-26,107c0,0,-27,34,-82,34c0,0,-75,0,-137,-35L176,538H134V691c0,0,121,26,213,26c0,0,115,0,169,-47c0,0,54,-47,54,-144V52L657,34V0H465L451,70c0,0,-85,-84,-218,-84Zm22,849v24l146,203H560v-27L296,835Z" 
id="f2_y"
transform="scale(0.001,-0.001)" />

<path d="M495,413c0,0,0,133,-34,190c0,0,-34,57,-105,57c0,0,-78,0,-119,-62c0,0,-42,-63,-42,-185ZM374,-14c0,0,-163,0,-239,87c0,0,-75,88,-75,283c0,0,0,183,77,274c0,0,76,90,219,90c0,0,269,0,269,-306V353H194V339c0,0,0,-103,23,-160c0,0,22,-57,70,-86c0,0,47,-30,124,-30c0,0,40,0,96,6c0,0,55,7,91,15V43C598,43,562,19,500,2c0,0,-61,-16,-126,-16ZM285,835v24l146,203H590v-27L326,835Z" 
id="f2_j"
transform="scale(0.001,-0.001)" />

<path d="M31,0V33L150,52v956L31,1026v34H274V52L394,33V0Z" 
id="f2_7"
transform="scale(0.001,-0.001)" />

<path d="M0,-14L351,1007h73L75,-14Z" 
id="f2_11"
transform="scale(0.001,-0.001)" />

<path d="M284,67c0,0,51,0,88,12c0,0,37,12,74,30V358l-98,-3c0,0,-100,-4,-135,-39c0,0,-35,-35,-35,-117c0,0,0,-132,106,-132ZM233,-14c0,0,-179,0,-179,208c0,0,0,70,27,116c0,0,27,46,87,70c0,0,60,24,173,27l105,3V519c0,0,0,72,-26,107c0,0,-27,34,-82,34c0,0,-75,0,-137,-35L176,538H134V691c0,0,121,26,213,26c0,0,115,0,169,-47c0,0,54,-47,54,-144V52L657,33V0H465L451,70c0,0,-85,-84,-218,-84Z" 
id="f2_3"
transform="scale(0.001,-0.001)" />

<path d="M557,-14c0,0,-199,0,-298,89c0,0,-99,90,-99,255V941L32,960v40H432V960L304,941V341c0,0,0,-273,264,-273c0,0,144,0,220,68c0,0,77,68,77,202V941L730,960v40h341V960L943,941V344c0,0,0,-180,-99,-269c0,0,-99,-89,-287,-89Z" 
id="f2_12"
transform="scale(0.001,-0.001)" />

<path d="M383,64c0,0,85,0,152,28V645c0,0,-67,13,-152,13c0,0,-194,0,-194,-314c0,0,0,-141,48,-211c0,0,48,-69,146,-69ZM342,-14c0,0,-287,0,-287,358c0,0,0,184,82,280c0,0,81,96,239,96c0,0,81,0,163,-18c0,0,-4,25,-4,124v182l-118,18v34H659V52L745,33V0H548l-9,52c0,0,-84,-66,-197,-66Z" 
id="f2_k"
transform="scale(0.001,-0.001)" />

<path d="M191,-20c0,0,-39,0,-65,25c0,0,-25,27,-25,64c0,0,0,38,26,64c0,0,26,26,64,26c0,0,38,0,64,-26c0,0,26,-26,26,-64c0,0,0,-37,-25,-64c0,0,-26,-25,-65,-25Z" 
id="f2_13"
transform="scale(0.001,-0.001)" />

<path d="M439,0V33l93,19V500c0,0,0,62,-30,97c0,0,-31,36,-94,36c0,0,-67,0,-165,-22V52L338,33V0H35V33l84,19V649L35,668v33H235l7,-57c0,0,57,33,122,54c0,0,65,22,108,22c0,0,91,0,137,-53c0,0,47,-53,47,-154V52L741,33V0Z" 
id="f2_8"
transform="scale(0.001,-0.001)" />

<path d="M431,0V33L535,52V499c0,0,0,62,-32,96c0,0,-32,33,-95,33c0,0,-66,0,-163,-22V52L350,33V0H32V33l89,19V649L32,668v33H237l6,-57c0,0,56,32,119,54c0,0,62,22,110,22c0,0,52,0,95,-20c0,0,44,-19,66,-62c0,0,57,32,134,57c0,0,77,25,128,25c0,0,179,0,179,-207V52l90,-19V0H846V33L950,52V499c0,0,0,129,-119,129c0,0,-19,0,-45,-3c0,0,-26,-3,-52,-7c0,0,-25,-4,-49,-8c0,0,-23,-5,-39,-8c0,0,13,-41,13,-89V52L764,33V0Z" 
id="f2_i"
transform="scale(0.001,-0.001)" />

<path d="M156,-317V454l139,56V-317ZM505,0L806,729H139V835H967V753L650,0Z" 
id="f3_6"
transform="scale(0.001,-0.001)" />

<path d="M585,0V426c0,0,0,54,-8,98c0,0,-8,44,-27,83c0,0,-19,40,-49,66c0,0,-30,26,-77,41c0,0,-47,15,-108,15H66V836H315c0,0,94,0,166,-20c0,0,71,-20,116,-54c0,0,46,-35,75,-88c0,0,28,-52,40,-112c0,0,12,-60,12,-137V0Z" 
id="f3_7"
transform="scale(0.001,-0.001)" />

<path d="M139,0V106H400c0,0,176,0,253,71c0,0,78,72,78,250c0,0,0,163,-80,233c0,0,-81,69,-250,69H278L277,564c0,0,-1,-54,26,-80c0,0,27,-25,82,-25c0,0,30,0,80,9V355c0,0,-61,-12,-111,-12c0,0,-100,0,-157,55c0,0,-58,55,-58,186V836H456c0,0,193,0,303,-109c0,0,110,-109,110,-309c0,0,0,-200,-110,-309C759,109,648,0,456,0Z" 
id="f3_8"
transform="scale(0.001,-0.001)" />

<path d="M287,0L589,729H66v386H205V836l547,-1l-2,-82L433,0Z" 
id="f3_e"
transform="scale(0.001,-0.001)" />

<path d="M154,0V454l138,56V0ZM722,0V454c0,0,0,161,-49,218c0,0,-48,57,-186,57H139V836H485c0,0,207,0,291,-93c0,0,83,-94,83,-318V0Z" 
id="f3_3"
transform="scale(0.001,-0.001)" />

<path d="M152,0V473c0,0,0,94,28,161c0,0,29,66,71,95H66V836H463V729H404c0,0,-65,0,-89,-57c0,0,-25,-58,-25,-199V0Z" 
id="f3_4"
transform="scale(0.001,-0.001)" />

<path d="M139,0V836H485c0,0,206,0,290,-90c0,0,84,-89,84,-294V0H721V473c0,0,0,147,-49,202c0,0,-48,54,-186,54H277V0Z" 
id="f3_h"
transform="scale(0.001,-0.001)" />

<path d="M66,0V107H554V452c0,0,0,56,-4,93c0,0,-4,37,-18,75c0,0,-14,38,-40,60c0,0,-26,22,-71,36c0,0,-45,13,-110,13H66V836H312c0,0,91,0,157,-17c0,0,66,-17,109,-49c0,0,44,-32,69,-84c0,0,26,-52,36,-114c0,0,10,-62,10,-147V107H817V0Z" 
id="f3_f"
transform="scale(0.001,-0.001)" />

<path d="M494,-20c0,0,-91,0,-181,15c0,0,-90,14,-188,45V283h90c0,0,5,-110,57,-164c0,0,53,-53,156,-53c0,0,109,0,162,73c0,0,53,73,53,224c0,0,0,148,-51,222c0,0,-52,73,-157,73c0,0,-57,0,-102,-23c0,0,-44,-24,-82,-73H176v552H861V918H266V673c0,0,49,38,110,58c0,0,60,19,127,19c0,0,206,0,325,-104c0,0,119,-104,119,-283c0,0,0,-182,-119,-283C828,80,709,-20,494,-20Z" 
id="f0_h"
transform="scale(0.001,-0.001)" />

<path d="M868,0L251,900V60L385,40V0H44V40L172,60V941L44,960v40H347L862,259V941L727,960v40h341V960L940,941V0Z" 
id="f2_14"
transform="scale(0.001,-0.001)" />

<path d="M379,60c0,0,59,0,84,64c0,0,24,65,24,231c0,0,0,164,-24,227c0,0,-24,63,-84,63c0,0,-57,0,-80,-60c0,0,-22,-61,-22,-230c0,0,0,-173,23,-234c0,0,22,-61,79,-61Zm-2,-74c0,0,-161,0,-240,91c0,0,-79,91,-79,277c0,0,0,186,80,276c0,0,81,90,245,90c0,0,167,0,245,-93c0,0,78,-93,78,-273c0,0,0,-188,-81,-278c0,0,-81,-90,-248,-90Z" 
id="f1_4"
transform="scale(0.001,-0.001)" />

<path d="M41,0V49l69,18V634L41,652v49H313l11,-61l50,26c0,0,105,54,188,54c0,0,125,0,167,-91c0,0,153,91,258,91c0,0,189,0,189,-207V67l71,-17V0H898V50l63,17V484c0,0,0,63,-24,98c0,0,-25,35,-74,35c0,0,-55,0,-119,-31c0,0,7,-32,7,-73V67L821,50V0H473V50l63,17V484c0,0,0,63,-25,98c0,0,-24,35,-73,35c0,0,-49,0,-113,-29V67L389,49V0Z" 
id="f1_6"
transform="scale(0.001,-0.001)" />

<path d="M529,65c0,0,183,0,270,108c0,0,87,108,87,334c0,0,0,210,-113,318c0,0,-113,108,-322,108H316V71c0,0,90,-6,213,-6Zm0,-67L172,0H44V40L172,60V941L44,960v40H498c0,0,277,0,411,-123c0,0,133,-124,133,-371c0,0,0,-251,-129,-380C913,126,785,-2,529,-2Z" 
id="f2_16"
transform="scale(0.001,-0.001)" />

<path d="M32,0V33L151,52V649L52,668v33H275V52L395,33V0ZM201,850c0,0,-32,0,-56,24c0,0,-24,24,-24,56c0,0,0,34,24,58c0,0,24,24,56,24c0,0,34,0,58,-24c0,0,24,-24,24,-58c0,0,0,-32,-24,-56c0,0,-24,-24,-58,-24Z" 
id="f2_e"
transform="scale(0.001,-0.001)" />

<path d="M155,0V288H424V0Z" 
id="f4_r"
transform="scale(0.001,-0.001)" />

<path d="M153,0V437L399,539V0ZM664,0V450c0,0,0,122,-31,165c0,0,-31,43,-121,43H138V836H511c0,0,113,0,188,-22c0,0,75,-23,123,-73c0,0,47,-51,68,-127c0,0,20,-76,20,-189V0Z" 
id="f4_7"
transform="scale(0.001,-0.001)" />

<path d="M66,0V178H307V510c0,0,0,100,-31,124c0,0,-30,24,-79,24H83V836H197c0,0,215,0,286,-85c0,0,71,-85,71,-224V0Z" 
id="f4_m"
transform="scale(0.001,-0.001)" />

<path d="M102,250V836H349V351L102,250Z" 
id="f4_g"
transform="scale(0.001,-0.001)" />

<path d="M453,0V658H66V836H833V658H700V0Z" 
id="f4_n"
transform="scale(0.001,-0.001)" />

<path d="M139,0V836H386V0Z" 
id="f4_b"
transform="scale(0.001,-0.001)" />

<path d="M139,0V836H512c0,0,219,0,309,-90c0,0,90,-90,90,-297V0H665V467c0,0,0,110,-31,150c0,0,-32,41,-120,41H385V0Z" 
id="f4_d"
transform="scale(0.001,-0.001)" />

<path d="M159,0V165c0,0,0,69,13,124c0,0,12,55,29,89c0,0,17,33,45,62c0,0,29,28,50,42c0,0,22,14,54,30L128,836H405L666,460c0,0,41,48,41,155V836H952V671c0,0,0,-50,-6,-93c0,0,-6,-42,-16,-73c0,0,-10,-30,-26,-57c0,0,-17,-27,-31,-44c0,0,-15,-17,-37,-33c0,0,-22,-16,-38,-25c0,0,-15,-9,-38,-21L984,0H706L445,376c0,0,-41,-48,-41,-155V0Z" 
id="f4_s"
transform="scale(0.001,-0.001)" />

<path d="M681,416L504,902L333,416ZM669,0V40L803,60L704,348H310L210,60L344,40V0H15V40L128,60l341,949H611L965,60L1092,40V0Z" 
id="f2_17"
transform="scale(0.001,-0.001)" />

<path d="M64,-325c0,0,-46,0,-107,14v148H-8l19,-81c0,0,25,-21,62,-21c0,0,44,0,67,47c0,0,22,47,22,152V649L57,668v33H286V-28c0,0,0,-146,-57,-221c0,0,-56,-76,-165,-76ZM213,850c0,0,-34,0,-58,24c0,0,-24,24,-24,56c0,0,0,34,24,58c0,0,24,24,58,24c0,0,32,0,56,-24c0,0,24,-24,24,-58c0,0,0,-32,-24,-56c0,0,-24,-24,-56,-24Z" 
id="f2_u"
transform="scale(0.001,-0.001)" />

<path d="M289,-14c0,0,-179,0,-179,205V649L20,668v33H233V200c0,0,0,-128,120,-128c0,0,92,0,173,23V649L420,668v33H649V52L738,33V0H533l-6,57C527,57,474,28,405,7c0,0,-69,-21,-116,-21Z" 
id="f2_m"
transform="scale(0.001,-0.001)" />

<path d="M376,50c0,0,103,0,149,80c0,0,46,81,46,240c0,0,0,137,-47,204c0,0,-48,67,-148,67c0,0,-44,0,-87,-7c0,0,-44,-8,-63,-17V62c0,0,63,-12,150,-12Zm3,-64c0,0,-64,0,-141,14c0,0,-78,14,-136,37v971L0,1026v34H226V809c0,0,0,-40,-4,-148c0,0,74,59,188,59c0,0,143,0,219,-87c0,0,77,-87,77,-263c0,0,0,-189,-84,-287c0,0,-84,-97,-243,-97Z" 
id="f2_b"
transform="scale(0.001,-0.001)" />

<path d="M163,0V190H321V0Z" 
id="f3_m"
transform="scale(0.001,-0.001)" />

<path d="M102,312V836H241V369L102,312Z" 
id="f3_q"
transform="scale(0.001,-0.001)" />

<path d="M66,0V107H332V555c0,0,0,92,-37,133c0,0,-37,41,-116,41H85V836h94c0,0,153,0,223,-66c0,0,69,-66,69,-231V0Z" 
id="f3_d"
transform="scale(0.001,-0.001)" />

<path d="M495,0V729H66V836H781V729H634V0Z" 
id="f3_r"
transform="scale(0.001,-0.001)" />

<path d="M139,0V836H278V0Z" 
id="f3_c"
transform="scale(0.001,-0.001)" />

<path d="M139,0V138c0,0,0,61,8,112c0,0,7,52,19,87c0,0,11,36,30,66c0,0,19,31,35,49c0,0,17,19,41,35c0,0,25,17,41,25c0,0,17,7,40,17L141,836H303L613,388c0,0,20,10,33,18c0,0,13,8,34,28c0,0,20,20,33,44c0,0,13,25,22,66c0,0,10,41,10,92V836H882V698c0,0,0,-61,-7,-112c0,0,-6,-52,-18,-88c0,0,-12,-36,-30,-66c0,0,-19,-30,-36,-49c0,0,-17,-18,-41,-34c0,0,-24,-17,-40,-25c0,0,-17,-8,-41,-17L882,0H720L409,448c0,0,-21,-11,-34,-19c0,0,-13,-8,-34,-27c0,0,-21,-20,-34,-44c0,0,-12,-25,-22,-66c0,0,-9,-41,-9,-92V0Z" 
id="f3_9"
transform="scale(0.001,-0.001)" />

<path d="M186,-14c0,0,-95,0,-154,22V190H81L104,86c0,0,14,-17,40,-26c0,0,26,-10,57,-10c0,0,105,0,105,141V941L178,960v40H562V960L449,941V322c0,0,0,-100,-30,-175c0,0,-31,-74,-93,-118c0,0,-63,-43,-140,-43Z" 
id="f2_18"
transform="scale(0.001,-0.001)" />

<path d="M577,-14c0,0,-243,0,-379,131C198,117,63,248,63,488c0,0,0,263,131,393c0,0,132,130,386,130c0,0,182,0,352,-45V751H882L862,875c0,0,-52,37,-124,57c0,0,-72,19,-152,19c0,0,-191,0,-279,-113c0,0,-88,-114,-88,-348c0,0,0,-220,91,-333c0,0,91,-114,269,-114c0,0,63,0,131,15c0,0,69,15,105,36V377L686,397v40h370V397L958,377V52C958,52,871,24,778,5c0,0,-93,-19,-201,-19Z" 
id="f2_19"
transform="scale(0.001,-0.001)" />

<path d="M359,-270c0,0,124,0,192,46c0,0,67,47,67,129c0,0,0,43,-26,67c0,0,-26,24,-79,24H242c0,0,-32,-27,-51,-69c0,0,-20,-41,-20,-77c0,0,0,-64,46,-92c0,0,46,-28,142,-28Zm11,561c0,0,81,0,115,47c0,0,34,47,34,141c0,0,0,100,-35,142c0,0,-35,42,-113,42c0,0,-78,0,-114,-43c0,0,-37,-42,-37,-141c0,0,0,-98,36,-143c0,0,36,-45,114,-45ZM359,-329c0,0,-143,0,-218,44c0,0,-75,43,-75,125c0,0,0,39,27,78c0,0,26,38,98,89c0,0,-43,14,-72,48c0,0,-29,35,-29,74L208,262c0,0,-118,55,-118,217c0,0,0,115,73,178c0,0,73,63,211,63c0,0,28,0,71,-6c0,0,44,-6,67,-13l165,83l26,-32L599,644c0,0,50,-56,50,-165c0,0,0,-120,-72,-182c0,0,-73,-62,-208,-62c0,0,-62,0,-114,11L208,148c0,0,2,-13,29,-24c0,0,27,-12,67,-12H512c0,0,113,0,168,-49c0,0,55,-49,55,-134c0,0,0,-79,-44,-137c0,0,-43,-58,-128,-90c0,0,-84,-31,-204,-31Z" 
id="f2_n"
transform="scale(0.001,-0.001)" />

<path d="M114,0l60,312c0,0,2,12,8,39c0,0,6,27,7,37c0,0,2,11,5,30c0,0,2,19,4,33c0,0,1,15,1,31c0,0,0,48,-35,146c0,0,-35,98,-98,208H228c0,0,3,-8,27,-67c0,0,25,-58,41,-117c0,0,21,53,50,90c0,0,29,37,57,57c0,0,29,21,65,32c0,0,37,11,65,14c0,0,28,3,67,3c0,0,300,0,300,-396V0H480V106H761V452c0,0,0,146,-46,215c0,0,-45,70,-118,70c0,0,-134,0,-198,-119c0,0,-36,-68,-67,-222c0,0,-2,-10,-6,-27L253,0Z" 
id="f3_l"
transform="scale(0.001,-0.001)" />

<path d="M138,-7c0,0,-34,0,-72,10V129c0,0,25,-8,52,-8c0,0,33,0,58,5c0,0,26,5,58,24c0,0,33,20,53,54c0,0,21,34,36,97c0,0,15,64,15,151c0,0,0,113,-19,173c0,0,-19,60,-56,82c0,0,-38,22,-107,22H89V836h72c0,0,165,0,240,-91c0,0,76,-91,76,-293c0,0,0,-107,26,-227c0,0,25,-119,83,-225H437c0,0,-43,101,-62,184c0,0,-24,-60,-51,-99c0,0,-26,-38,-56,-58C268,27,239,7,209,0c0,0,-30,-7,-71,-7Z" 
id="f3_j"
transform="scale(0.001,-0.001)" />

<path d="M139,-317V836H278V-317Z" 
id="f3_t"
transform="scale(0.001,-0.001)" />

<path d="M26,0V54L154,74V926L26,945v55H878V746H810L786,908c0,0,-83,10,-241,10H389V551H651l23,111h67V355H674L651,468H389V82H578c0,0,193,0,252,12l43,185h68L927,0Z" 
id="f1_14"
transform="scale(0.001,-0.001)" />

<path d="M345,75c0,0,50,0,110,26V352l-63,-2c0,0,-72,-3,-100,-38c0,0,-28,-35,-28,-114c0,0,0,-63,22,-93c0,0,23,-30,59,-30ZM266,-14c0,0,-217,0,-217,208c0,0,0,79,32,126c0,0,32,48,93,71c0,0,60,22,190,25l91,3V521c0,0,0,127,-104,127c0,0,-62,0,-140,-39L183,521H134V691c0,0,112,17,165,21c0,0,53,5,108,5c0,0,264,0,264,-194V67L741,49V0H483L466,54C466,54,408,14,361,0c0,0,-47,-14,-95,-14Zm5,848v25l124,203H607v-28L335,834Z" 
id="f1_15"
transform="scale(0.001,-0.001)" />

<path d="M41,0V49l69,18V634L41,652v49H313l11,-61l50,26c0,0,105,54,188,54c0,0,194,0,194,-207V67L827,49V0H478V49l63,18V484c0,0,0,63,-27,98c0,0,-26,35,-75,35c0,0,-57,0,-114,-25V67L389,49V0Z" 
id="f1_2"
transform="scale(0.001,-0.001)" />

<path d="M383,64c0,0,44,0,87,7c0,0,43,7,65,17V645c0,0,-67,13,-152,13c0,0,-194,0,-194,-309c0,0,0,-143,48,-214c0,0,47,-71,146,-71Zm56,-389v35l96,18V-77c0,0,0,73,7,124c0,0,-79,-61,-200,-61c0,0,-287,0,-287,362c0,0,0,180,81,276c0,0,81,96,237,96c0,0,84,0,166,-18l67,33h53V-272l77,-18v-35Z" 
id="f2_l"
transform="scale(0.001,-0.001)" />

<path d="M32,0V34L151,52V649L52,668v33H275V52L395,34V0Zm71,835v24l146,203H408v-27L144,835Z" 
id="f2_p"
transform="scale(0.001,-0.001)" />

<path d="M410,-14c0,0,-80,0,-162,14c0,0,-81,14,-144,38V270h48L178,134c0,0,28,-35,95,-62c0,0,68,-27,134,-27c0,0,104,0,163,53c0,0,58,54,58,148c0,0,0,54,-23,89c0,0,-22,35,-59,59c0,0,-37,24,-84,41c0,0,-47,17,-97,34c0,0,-49,17,-96,38c0,0,-47,21,-84,53c0,0,-37,32,-60,79c0,0,-23,48,-23,117c0,0,0,119,90,187c0,0,89,68,248,68c0,0,121,0,263,-32V771H654L628,893c0,0,-76,55,-188,55c0,0,-100,0,-156,-40c0,0,-56,-41,-56,-112c0,0,0,-49,22,-81c0,0,23,-32,60,-55c0,0,37,-22,84,-39c0,0,48,-16,97,-34c0,0,50,-17,97,-39c0,0,48,-22,85,-56c0,0,36,-34,59,-83c0,0,23,-49,23,-120c0,0,0,-145,-89,-224c0,0,-89,-79,-256,-79Z" 
id="f2_1a"
transform="scale(0.001,-0.001)" />

<path d="M35,0V34l84,18V649L35,668v33H235l7,-56c0,0,57,32,122,54c0,0,65,21,108,21c0,0,91,0,137,-53c0,0,47,-53,47,-154V52L741,34V0H439V34l93,18V500c0,0,0,62,-30,97c0,0,-31,36,-94,36c0,0,-67,0,-165,-22V52L338,34V0ZM481,834c0,0,-36,0,-66,16c0,0,-30,16,-57,36c0,0,-27,20,-52,36c0,0,-25,16,-49,16c0,0,-24,0,-39,-9c0,0,-14,-9,-23,-26c0,0,-8,-17,-13,-54H143c0,0,11,180,146,180c0,0,36,0,66,-16c0,0,30,-16,57,-35c0,0,27,-20,52,-36c0,0,25,-16,49,-16c0,0,32,0,50,18c0,0,18,19,25,70h39c0,0,-12,-180,-146,-180Z" 
id="f2_1b"
transform="scale(0.001,-0.001)" />

<path d="M54,0V40L172,60V941L44,960v40H794V760H745L721,922c0,0,-83,11,-241,11H316V516H611l23,120h46V328H634L611,449H316V60L483,40V0Z" 
id="f2_1d"
transform="scale(0.001,-0.001)" />

<path d="M66,0V106H322c0,0,75,0,127,23c0,0,53,23,82,67c0,0,29,43,42,98c0,0,13,54,13,124c0,0,0,70,-13,124c0,0,-13,55,-42,98c0,0,-29,44,-82,67c0,0,-52,23,-127,23H66V836H322c0,0,87,0,157,-24c0,0,70,-24,115,-64c0,0,45,-40,74,-94c0,0,30,-55,43,-113c0,0,13,-59,13,-123c0,0,0,-64,-13,-123c0,0,-13,-58,-43,-113c0,0,-29,-54,-74,-94C594,88,549,48,479,24C479,24,409,0,322,0Z" 
id="f3_n"
transform="scale(0.001,-0.001)" />

<path d="M736,107V473c0,0,0,147,-48,202c0,0,-49,54,-187,54H278V107ZM139,0V836H499c0,0,105,0,177,-22c0,0,72,-21,116,-69c0,0,44,-49,64,-119c0,0,19,-71,19,-174V0Z" 
id="f3_i"
transform="scale(0.001,-0.001)" />

<path d="M112,-5c0,0,-39,0,-97,11V113c0,0,48,-10,77,-10c0,0,53,0,70,42c0,0,17,43,17,164V729H50V836H501c0,0,107,0,179,-25c0,0,72,-25,112,-77c0,0,40,-51,57,-118c0,0,16,-67,16,-164V0H726V454c0,0,0,55,-3,92c0,0,-4,37,-17,75c0,0,-14,38,-38,59c0,0,-24,22,-65,36c0,0,-42,13,-102,13H318V309c0,0,0,-160,-46,-237C272,72,226,-5,112,-5Z" 
id="f3_b"
transform="scale(0.001,-0.001)" />

<path d="M44,0V40L172,60V941L44,960v40H794V760H745L721,922c0,0,-83,11,-241,11H316V543H586l23,119h48V354H609L586,475H316V67H513c0,0,193,0,252,12l43,185h49L843,0Z" 
id="f2_1e"
transform="scale(0.001,-0.001)" />

<path d="M442,0V33l93,19V504c0,0,0,129,-124,129c0,0,-70,0,-168,-22V52L338,33V0H31V33l88,19v956L15,1026v34H243V756c0,0,0,-77,-5,-112c0,0,54,31,122,53c0,0,68,23,115,23c0,0,91,0,137,-53c0,0,47,-53,47,-154V52L744,33V0Z" 
id="f2_o"
transform="scale(0.001,-0.001)" />

<path d="M577,-14c0,0,-243,0,-379,132C198,118,63,250,63,488c0,0,0,258,130,391c0,0,131,132,387,132c0,0,156,0,335,-38l5,-218H871L848,884c0,0,-52,32,-121,50c0,0,-69,17,-141,17c0,0,-191,0,-279,-112c0,0,-88,-113,-88,-349c0,0,0,-217,92,-332c0,0,92,-115,268,-115c0,0,85,0,160,20c0,0,76,21,120,55l27,149h49L930,32c0,0,-164,-46,-353,-46Z" 
id="f2_2"
transform="scale(0.001,-0.001)" />

<path d="M377,44c0,0,99,0,147,73c0,0,47,73,47,237c0,0,0,161,-47,234c0,0,-47,72,-147,72c0,0,-97,0,-141,-69c0,0,-44,-70,-44,-237c0,0,0,-169,45,-239c0,0,44,-71,140,-71Zm0,-58c0,0,-158,0,-238,94c0,0,-81,95,-81,274c0,0,0,178,81,272c0,0,80,94,244,94c0,0,160,0,241,-92c0,0,82,-92,82,-274c0,0,0,-368,-329,-368ZM301,835v24l147,203H606v-27L342,835Z" 
id="f2_g"
transform="scale(0.001,-0.001)" />

<path d="M399,-14c0,0,-341,0,-341,370c0,0,0,175,87,269c0,0,87,95,249,95c0,0,101,0,220,-23V501H573L541,625c0,0,-62,35,-149,35c0,0,-200,0,-200,-304c0,0,0,-158,61,-225c0,0,61,-67,189,-67c0,0,109,0,189,24V43C631,43,595,16,530,1c0,0,-64,-15,-131,-15Z" 
id="f2_f"
transform="scale(0.001,-0.001)" />

<path d="M66,0V106H564L66,836H228L516,413c0,0,3,2,9,6c0,0,17,13,27,21c0,0,10,8,26,27c0,0,17,20,26,40c0,0,9,21,16,54c0,0,7,34,7,75V836H764V698c0,0,0,-55,-7,-102c0,0,-7,-47,-16,-79c0,0,-10,-33,-27,-62c0,0,-18,-29,-32,-46c0,0,-14,-17,-37,-35c0,0,-22,-17,-36,-25c0,0,-13,-8,-36,-20L767,53V0Z" 
id="f3_s"
transform="scale(0.001,-0.001)" />

<path d="M522,92c0,0,247,0,247,333c0,0,0,88,-17,146c0,0,-17,58,-53,91c0,0,-35,33,-82,46c0,0,-48,14,-116,14H276V419c0,0,0,-327,246,-327Zm0,-112c0,0,-193,0,-289,109c0,0,-95,110,-95,337V836H501c0,0,213,0,309,-93c0,0,96,-94,96,-317c0,0,0,-227,-95,-337C811,89,715,-20,522,-20Z" 
id="f3_g"
transform="scale(0.001,-0.001)" />

<path d="M354,-200c0,0,-112,175,-167,343c0,0,-56,170,-56,337c0,0,0,166,55,335c0,0,55,169,168,345H473c0,0,-100,-172,-148,-340c0,0,-48,-168,-48,-340c0,0,0,-173,48,-342c0,0,49,-168,148,-338Z" 
id="f3_x"
transform="scale(0.001,-0.001)" />

<path d="M122,-200c0,0,99,170,148,338c0,0,49,169,49,342c0,0,0,172,-49,340c0,0,-49,168,-148,340H241c0,0,112,-176,168,-345c0,0,55,-169,55,-335c0,0,0,-167,-55,-337c0,0,-56,-168,-168,-343Z" 
id="f3_y"
transform="scale(0.001,-0.001)" />

<path d="M71,-141V-15L289,62L66,836H210L416,109c0,0,99,42,153,98c0,0,53,56,80,155c0,0,26,98,26,262V836H817V624c0,0,0,-88,-7,-154c0,0,-7,-67,-25,-132c0,0,-18,-66,-51,-116c0,0,-33,-51,-84,-98c0,0,-50,-48,-123,-87c0,0,-72,-39,-169,-74L71,-141Z" 
id="f3_p"
transform="scale(0.001,-0.001)" />

<path d="M306,-20c0,0,-39,0,-65,25c0,0,-25,27,-25,64c0,0,0,38,26,64c0,0,26,26,64,26c0,0,37,0,63,-25c0,0,26,-26,26,-65c0,0,0,-37,-25,-64c0,0,-26,-25,-64,-25ZM269,261L249,510l107,22c0,0,64,13,93,65c0,0,29,52,29,152c0,0,0,109,-39,154c0,0,-40,45,-140,45c0,0,-83,0,-145,-36L128,789H79V979c0,0,118,32,220,32c0,0,316,0,316,-253c0,0,0,-121,-60,-195c0,0,-60,-74,-175,-98l-42,-9L328,261Z" 
id="f2_1f"
transform="scale(0.001,-0.001)" />

<path d="M291,0V190H443V0Zm5,299V414c0,0,0,75,21,124c0,0,21,48,88,113l67,66c0,0,42,40,61,75c0,0,19,35,19,71c0,0,0,67,-48,108c0,0,-49,41,-130,41c0,0,-59,0,-125,-26c0,0,-67,-26,-139,-77v140c0,0,70,43,142,64c0,0,72,21,148,21c0,0,138,0,221,-72c0,0,83,-73,83,-191c0,0,0,-57,-27,-108c0,0,-27,-51,-94,-115L517,583c0,0,-34,-35,-49,-54c0,0,-14,-20,-20,-39c0,0,-5,-16,-7,-38c0,0,-2,-22,-2,-61V299Z" 
id="f3_14"
transform="scale(0.001,-0.001)" />

<path d="M180,0L66,836H203L258,443c0,0,36,1,64,6c0,0,28,6,49,18c0,0,20,12,35,26c0,0,15,13,26,36c0,0,11,24,17,44c0,0,7,20,12,55c0,0,6,34,9,60c0,0,3,26,8,71c0,0,4,45,9,77H610c0,0,-13,-194,-31,-271c0,0,-31,-127,-111,-179c0,0,-71,-45,-196,-50L304,107c0,0,73,0,130,5c0,0,56,6,111,21c0,0,54,15,94,40c0,0,40,25,77,64c0,0,37,39,63,94c0,0,25,54,46,128c0,0,21,73,34,166c0,0,13,94,20,211h138c0,0,-14,-124,-29,-218c0,0,-16,-94,-39,-179c0,0,-22,-85,-50,-146c0,0,-28,-61,-68,-112c0,0,-39,-51,-87,-84C744,97,696,65,632,42C632,42,568,19,492,10C492,10,417,0,320,0Z" 
id="f3_o"
transform="scale(0.001,-0.001)" />

<path d="M542,66c0,0,77,0,110,65c0,0,32,65,32,226c0,0,0,162,-32,227c0,0,-33,65,-110,65c0,0,-77,0,-110,-65c0,0,-32,-65,-32,-227c0,0,0,-161,32,-226c0,0,33,-65,110,-65Zm17,-86c0,0,-228,0,-346,136C213,116,96,254,96,521c0,0,0,304,130,458c0,0,131,155,387,155c0,0,67,0,144,-11c0,0,77,-11,165,-34V893H832c0,0,-19,76,-70,115c0,0,-52,39,-134,39c0,0,-133,0,-192,-91c0,0,-60,-91,-61,-295c0,0,49,38,109,58c0,0,60,19,131,19c0,0,171,0,268,-100c0,0,98,-100,98,-274c0,0,0,-185,-110,-285c0,0,-110,-99,-312,-99Z" 
id="f0_i"
transform="scale(0.001,-0.001)" />

<path d="M522,-20c0,0,-196,0,-290,99c0,0,-94,100,-94,324V836H276V397c0,0,0,-86,16,-147c0,0,17,-60,50,-94c0,0,34,-34,77,-49c0,0,43,-15,103,-15c0,0,59,0,102,15c0,0,44,15,77,49c0,0,33,34,50,94c0,0,17,61,17,147c0,0,0,84,-8,143c0,0,-7,58,-25,105c0,0,-17,47,-51,69c0,0,-33,23,-83,23c0,0,-50,0,-119,-22V821c0,0,85,23,150,23c0,0,76,0,130,-30c0,0,53,-31,85,-90c0,0,31,-59,45,-138c0,0,13,-78,13,-183c0,0,0,-224,-93,-324c0,0,-94,-99,-290,-99Z" 
id="f3_k"
transform="scale(0.001,-0.001)" />

<path d="M13,0V34L95,46L325,350L122,649L40,668v33H357V668L264,648L399,446L554,649l-96,19v33H710V668L630,652L433,397L663,50L745,34V0H427V34l94,17L359,299L169,50L266,34V0Z" 
id="f2_1j"
transform="scale(0.001,-0.001)" />

<path d="M382,45c0,0,188,0,188,314c0,0,0,143,-47,213c0,0,-46,69,-141,69c0,0,-87,0,-146,-24V58c0,0,67,-13,146,-13ZM25,-325v35l88,18V649L34,668v33H231l1,-41c0,0,31,27,84,43c0,0,53,17,107,17c0,0,134,0,208,-94c0,0,73,-93,73,-267c0,0,0,-178,-80,-276c0,0,-80,-97,-232,-97c0,0,-84,0,-160,16c0,0,4,-53,4,-84V-272l123,-18v-35Z" 
id="f2_d"
transform="scale(0.001,-0.001)" />

<path d="M700,-317V454c0,0,0,155,-54,215c0,0,-54,60,-180,60H277V551c0,0,0,-55,26,-80c0,0,27,-26,82,-26c0,0,30,0,80,10V341c0,0,-61,-11,-111,-11c0,0,-100,0,-157,55c0,0,-58,55,-58,186V836H466c0,0,203,0,288,-91c0,0,85,-92,85,-293V-317Z" 
id="f3_10"
transform="scale(0.001,-0.001)" />

<path d="M326,0L773,903H224V752H121v362H937V924L477,0Z" 
id="f0_j"
transform="scale(0.001,-0.001)" />

<path d="M173,-6C173,-6,61,-6,15,9V177c0,0,73,-10,82,-10c0,0,37,0,52,30c0,0,14,29,14,116V658H18V836H516c0,0,262,0,341,-145c0,0,48,-89,48,-242V0H658V450c0,0,0,131,-37,171c0,0,-34,37,-105,37H411V313c0,0,0,-189,-67,-258C344,55,285,-6,173,-6Z" 
id="f4_j"
transform="scale(0.001,-0.001)" />

<path d="M248,0L521,658H66v429H313V836l493,-1V716L504,0Z" 
id="f4_h"
transform="scale(0.001,-0.001)" />

<path d="M84,-153V45l189,68L66,836H321L497,205c0,0,72,50,101,138c0,0,30,88,30,261V836H878V604c0,0,0,-84,-7,-147c0,0,-7,-63,-25,-126c0,0,-19,-62,-51,-111c0,0,-33,-48,-82,-94c0,0,-50,-45,-122,-84C591,42,519,3,423,-30L84,-153Z" 
id="f4_8"
transform="scale(0.001,-0.001)" />

<path d="M41,0V34L426,641H261c0,0,-42,0,-80,-7c0,0,-39,-7,-54,-19L104,515H69V701H586V665L201,60H407c0,0,42,0,89,10c0,0,47,10,66,25l39,147h35L617,0Z" 
id="f2_t"
transform="scale(0.001,-0.001)" />


</defs>
</svg>