<?xml version="1.0" encoding="UTF-8" standalone="no"?>
<!DOCTYPE svg PUBLIC "-//W3C//DTD SVG 1.1//EN"
"http://www.w3.org/Graphics/SVG/1.1/DTD/svg11.dtd">
<svg viewBox="0 0 909 1286" version="1.1" xmlns="http://www.w3.org/2000/svg" xmlns:xlink="http://www.w3.org/1999/xlink">
<defs>
<clipPath id="c0_13"><path d="M0,1286.2V0H909.4V1286.2Z" /></clipPath>
</defs>
<g clip-path="url(#c0_13)">
<g fill="#000000" >
<use xlink:href="#f0_1o" transform="matrix(12,0,0,12,764.8,127.1)" />
<use xlink:href="#f1_1m" transform="matrix(11,0,0,11,630.1,127.1)" />
<use xlink:href="#f1_9" transform="matrix(11,0,0,11,642.1,127.1)" />
<use xlink:href="#f1_m" transform="matrix(11,0,0,11,650.5,127.1)" />
<use xlink:href="#f1_7" transform="matrix(11,0,0,11,655.2,127.1)" />
<use xlink:href="#f1_1n" transform="matrix(11,0,0,11,662.6,127.1)" />
<use xlink:href="#f1_1j" transform="matrix(11,0,0,11,676,127.1)" />
<use xlink:href="#f1_1l" transform="matrix(11,0,0,11,688,127.1)" />
<use xlink:href="#f1_c" transform="matrix(11,0,0,11,693.7,127.1)" />
<use xlink:href="#f1_5" transform="matrix(11,0,0,11,703.9,127.1)" />
<use xlink:href="#f1_y" transform="matrix(11,0,0,11,712.2,127.1)" />
<use xlink:href="#f1_7" transform="matrix(11,0,0,11,719.6,127.1)" />
<use xlink:href="#f1_5" transform="matrix(11,0,0,11,727.1,127.1)" />
<use xlink:href="#f1_e" transform="matrix(11,0,0,11,735.5,127.1)" />
<use xlink:href="#f1_7" transform="matrix(11,0,0,11,740.2,127.1)" />
<use xlink:href="#f1_p" transform="matrix(11,0,0,11,747.7,127.1)" />
<use xlink:href="#f1_9" transform="matrix(11,0,0,11,756.1,127.1)" />
<use xlink:href="#f0_l" transform="matrix(12,0,0,12,137.7,127.1)" />
<use xlink:href="#f0_i" transform="matrix(12,0,0,12,149.9,127.1)" />
<use xlink:href="#f0_9" transform="matrix(12,0,0,12,154,127.1)" />
<use xlink:href="#f0_7" transform="matrix(12,0,0,12,161.3,127.1)" />
<use xlink:href="#f0_i" transform="matrix(12,0,0,12,173.7,127.1)" />
<use xlink:href="#f0_o" transform="matrix(12,0,0,12,177.8,127.1)" />
<use xlink:href="#f0_f" transform="matrix(12,0,0,12,189.7,127.1)" />
<use xlink:href="#f0_q" transform="matrix(12,0,0,12,209.7,127.1)" />
<use xlink:href="#f0_m" transform="matrix(12,0,0,12,220,127.1)" />
<use xlink:href="#f0_o" transform="matrix(12,0,0,12,231.5,127.1)" />
<use xlink:href="#f0_g" transform="matrix(12,0,0,12,243.4,127.1)" />
<use xlink:href="#f0_t" transform="matrix(12,0,0,12,264.7,127.1)" />
<use xlink:href="#f0_c" transform="matrix(12,0,0,12,274.5,127.1)" />
<use xlink:href="#f0_7" transform="matrix(12,0,0,12,287.5,127.1)" />
<use xlink:href="#f0_g" transform="matrix(12,0,0,12,300,127.1)" />
<use xlink:href="#f0_f" transform="matrix(12,0,0,12,311.9,127.1)" />
<use xlink:href="#f0_c" transform="matrix(12,0,0,12,331.9,127.1)" />
<use xlink:href="#f0_7" transform="matrix(12,0,0,12,344.9,127.1)" />
<use xlink:href="#f0_h" transform="matrix(12,0,0,12,357.2,127.1)" />
<use xlink:href="#f0_c" transform="matrix(12,0,0,12,369.3,127.1)" />
<use xlink:href="#f0_9" transform="matrix(12,0,0,12,382.3,127.1)" />
<use xlink:href="#f0_s" transform="matrix(12,0,0,12,399,127.1)" />
<use xlink:href="#f0_b" transform="matrix(12,0,0,12,411.3,127.1)" />
<use xlink:href="#f0_2" transform="matrix(12,0,0,12,431.2,127.1)" />
<use xlink:href="#f0_g" transform="matrix(12,0,0,12,437.1,127.1)" />
<use xlink:href="#f0_s" transform="matrix(12,0,0,12,449,127.1)" />
<use xlink:href="#f0_i" transform="matrix(12,0,0,12,461.2,127.1)" />
<use xlink:href="#f0_q" transform="matrix(12,0,0,12,465.3,127.1)" />
<use xlink:href="#f0_j" transform="matrix(12,0,0,12,475.7,127.1)" />
<use xlink:href="#f0_g" transform="matrix(12,0,0,12,488.7,127.1)" />
<use xlink:href="#f0_h" transform="matrix(12,0,0,12,510,127.1)" />
<use xlink:href="#f0_6" transform="matrix(12,0,0,12,522.1,127.1)" />
<use xlink:href="#f0_k" transform="matrix(12,0,0,12,527.1,127.1)" />
<use xlink:href="#f0_6" transform="matrix(12,0,0,12,539,127.1)" />
<use xlink:href="#f0_9" transform="matrix(12,0,0,12,543.9,127.1)" />
<use xlink:href="#f0_t" transform="matrix(12,0,0,12,560.8,127.1)" />
<use xlink:href="#f0_q" transform="matrix(12,0,0,12,570.6,127.1)" />
<use xlink:href="#f0_6" transform="matrix(12,0,0,12,580.8,127.1)" />
<use xlink:href="#f0_r" transform="matrix(12,0,0,12,585.8,127.1)" />
<use xlink:href="#f0_b" transform="matrix(12,0,0,12,596.7,127.1)" />
<use xlink:href="#f0_8" transform="matrix(12,0,0,12,616.5,127.1)" />
<use xlink:href="#f0_1n" transform="matrix(12,0,0,12,622.3,127.1)" />
<use xlink:href="#f0_8" transform="matrix(12,0,0,12,172,148.5)" />
<use xlink:href="#f0_h" transform="matrix(12,0,0,12,177.8,148.5)" />
<use xlink:href="#f0_i" transform="matrix(12,0,0,12,189.9,148.5)" />
<use xlink:href="#f0_a" transform="matrix(12,0,0,12,194,148.5)" />
<use xlink:href="#f0_q" transform="matrix(12,0,0,12,203.9,148.5)" />
<use xlink:href="#f0_m" transform="matrix(12,0,0,12,214.3,148.5)" />
<use xlink:href="#f0_o" transform="matrix(12,0,0,12,225.7,148.5)" />
<use xlink:href="#f0_f" transform="matrix(12,0,0,12,237.6,148.5)" />
<use xlink:href="#f0_g" transform="matrix(12,0,0,12,254.1,148.5)" />
<use xlink:href="#f0_e" transform="matrix(12,0,0,12,266,148.5)" />
<use xlink:href="#f0_a" transform="matrix(12,0,0,12,277.5,148.5)" />
<use xlink:href="#f0_6" transform="matrix(12,0,0,12,287.4,148.5)" />
<use xlink:href="#f0_7" transform="matrix(12,0,0,12,292.5,148.5)" />
<use xlink:href="#f0_f" transform="matrix(12,0,0,12,305,148.5)" />
<use xlink:href="#f0_6" transform="matrix(12,0,0,12,321.3,148.5)" />
<use xlink:href="#f0_s" transform="matrix(12,0,0,12,326.3,148.5)" />
<use xlink:href="#f0_3" transform="matrix(12,0,0,12,344.4,148.5)" />
<use xlink:href="#f0_6" transform="matrix(12,0,0,12,349.4,148.5)" />
<use xlink:href="#f0_h" transform="matrix(12,0,0,12,354.4,148.5)" />
<use xlink:href="#f0_i" transform="matrix(12,0,0,12,366.5,148.5)" />
<use xlink:href="#f0_e" transform="matrix(12,0,0,12,370.6,148.5)" />
<use xlink:href="#f0_f" transform="matrix(12,0,0,12,382,148.5)" />
<use xlink:href="#f0_l" transform="matrix(12,0,0,12,398.4,148.5)" />
<use xlink:href="#f0_g" transform="matrix(12,0,0,12,410.6,148.5)" />
<use xlink:href="#f0_f" transform="matrix(12,0,0,12,422.5,148.5)" />
<use xlink:href="#f0_b" transform="matrix(12,0,0,12,439,148.5)" />
<use xlink:href="#f0_j" transform="matrix(12,0,0,12,449.4,148.5)" />
<use xlink:href="#f0_h" transform="matrix(12,0,0,12,462.4,148.5)" />
<use xlink:href="#f0_i" transform="matrix(12,0,0,12,474.4,148.5)" />
<use xlink:href="#f0_h" transform="matrix(12,0,0,12,478.4,148.5)" />
<use xlink:href="#f0_6" transform="matrix(12,0,0,12,496.3,148.5)" />
<use xlink:href="#f0_b" transform="matrix(12,0,0,12,501.3,148.5)" />
<use xlink:href="#f0_l" transform="matrix(12,0,0,12,517.5,148.5)" />
<use xlink:href="#f0_h" transform="matrix(12,0,0,12,529.7,148.5)" />
<use xlink:href="#f0_6" transform="matrix(12,0,0,12,541.7,148.5)" />
<use xlink:href="#f0_e" transform="matrix(12,0,0,12,546.8,148.5)" />
<use xlink:href="#f0_7" transform="matrix(12,0,0,12,558.2,148.5)" />
<use xlink:href="#f0_c" transform="matrix(12,0,0,12,570.6,148.5)" />
<use xlink:href="#f0_7" transform="matrix(12,0,0,12,583.6,148.5)" />
<use xlink:href="#f0_h" transform="matrix(12,0,0,12,601.9,148.5)" />
<use xlink:href="#f0_s" transform="matrix(12,0,0,12,613.9,148.5)" />
<use xlink:href="#f0_e" transform="matrix(12,0,0,12,632,148.5)" />
<use xlink:href="#f0_a" transform="matrix(12,0,0,12,643.4,148.5)" />
<use xlink:href="#f0_h" transform="matrix(12,0,0,12,653.4,148.5)" />
<use xlink:href="#f0_h" transform="matrix(12,0,0,12,671.4,148.5)" />
<use xlink:href="#f0_e" transform="matrix(12,0,0,12,683.4,148.5)" />
<use xlink:href="#f0_4" transform="matrix(12,0,0,12,694.9,148.5)" />
<use xlink:href="#f0_t" transform="matrix(12,0,0,12,710.5,148.5)" />
<use xlink:href="#f0_s" transform="matrix(12,0,0,12,720.2,148.5)" />
<use xlink:href="#f0_2" transform="matrix(12,0,0,12,738.3,148.5)" />
<use xlink:href="#f0_6" transform="matrix(12,0,0,12,744.1,148.5)" />
<use xlink:href="#f0_b" transform="matrix(12,0,0,12,749.1,148.5)" />
<use xlink:href="#f0_s" transform="matrix(12,0,0,12,759.5,148.5)" />
<use xlink:href="#f0_g" transform="matrix(12,0,0,12,138.1,189.1)" />
<use xlink:href="#f0_q" transform="matrix(12,0,0,12,150,189.1)" />
<use xlink:href="#f0_6" transform="matrix(12,0,0,12,160.4,189.1)" />
<use xlink:href="#f0_r" transform="matrix(12,0,0,12,165.4,189.1)" />
<use xlink:href="#f0_f" transform="matrix(12,0,0,12,176.3,189.1)" />
<use xlink:href="#f0_s" transform="matrix(12,0,0,12,194.1,189.1)" />
<use xlink:href="#f0_d" transform="matrix(12,0,0,12,206.3,189.1)" />
<use xlink:href="#f0_f" transform="matrix(12,0,0,12,218.2,189.1)" />
<use xlink:href="#f0_h" transform="matrix(12,0,0,12,228.8,189.1)" />
<use xlink:href="#f0_g" transform="matrix(12,0,0,12,240.8,189.1)" />
<use xlink:href="#f0_b" transform="matrix(12,0,0,12,252.7,189.1)" />
<use xlink:href="#f0_b" transform="matrix(12,0,0,12,270.6,189.1)" />
<use xlink:href="#f0_4" transform="matrix(12,0,0,12,281,189.1)" />
<use xlink:href="#f0_6" transform="matrix(12,0,0,12,290.6,189.1)" />
<use xlink:href="#f0_h" transform="matrix(12,0,0,12,295.5,189.1)" />
<use xlink:href="#f0_g" transform="matrix(12,0,0,12,314.9,189.1)" />
<use xlink:href="#f0_c" transform="matrix(12,0,0,12,326.8,189.1)" />
<use xlink:href="#f0_e" transform="matrix(12,0,0,12,339.8,189.1)" />
<use xlink:href="#f0_7" transform="matrix(12,0,0,12,351.2,189.1)" />
<use xlink:href="#f0_b" transform="matrix(12,0,0,12,363.7,189.1)" />
<use xlink:href="#f0_6" transform="matrix(12,0,0,12,374.1,189.1)" />
<use xlink:href="#f0_l" transform="matrix(12,0,0,12,386.5,189.1)" />
<use xlink:href="#f0_i" transform="matrix(12,0,0,12,398.7,189.1)" />
<use xlink:href="#f0_n" transform="matrix(12,0,0,12,402.8,189.1)" />
<use xlink:href="#f0_i" transform="matrix(12,0,0,12,410.3,189.1)" />
<use xlink:href="#f0_q" transform="matrix(12,0,0,12,414.4,189.1)" />
<use xlink:href="#f0_k" transform="matrix(12,0,0,12,424.7,189.1)" />
<use xlink:href="#f0_g" transform="matrix(12,0,0,12,436.7,189.1)" />
<use xlink:href="#f0_l" transform="matrix(12,0,0,12,455.7,189.1)" />
<use xlink:href="#f0_i" transform="matrix(12,0,0,12,467.9,189.1)" />
<use xlink:href="#f0_b" transform="matrix(12,0,0,12,472,189.1)" />
<use xlink:href="#f0_e" transform="matrix(12,0,0,12,482.4,189.1)" />
<use xlink:href="#f0_m" transform="matrix(12,0,0,12,493.9,189.1)" />
<use xlink:href="#f0_g" transform="matrix(12,0,0,12,505.3,189.1)" />
<use xlink:href="#f0_b" transform="matrix(12,0,0,12,524.7,189.1)" />
<use xlink:href="#f0_4" transform="matrix(12,0,0,12,535.1,189.1)" />
<use xlink:href="#f0_h" transform="matrix(12,0,0,12,551.9,189.1)" />
<use xlink:href="#f0_s" transform="matrix(12,0,0,12,563.9,189.1)" />
<use xlink:href="#f0_q" transform="matrix(12,0,0,12,583.6,189.1)" />
<use xlink:href="#f0_i" transform="matrix(12,0,0,12,594,189.1)" />
<use xlink:href="#f0_4" transform="matrix(12,0,0,12,598.1,189.1)" />
<use xlink:href="#f0_g" transform="matrix(12,0,0,12,607.7,189.1)" />
<use xlink:href="#f0_b" transform="matrix(12,0,0,12,619.6,189.1)" />
<use xlink:href="#f0_l" transform="matrix(12,0,0,12,637.1,189.1)" />
<use xlink:href="#f0_i" transform="matrix(12,0,0,12,649.3,189.1)" />
<use xlink:href="#f0_i" transform="matrix(12,0,0,12,653.4,189.1)" />
<use xlink:href="#f0_o" transform="matrix(12,0,0,12,657.5,189.1)" />
<use xlink:href="#f0_9" transform="matrix(12,0,0,12,669.4,189.1)" />
<use xlink:href="#f0_s" transform="matrix(12,0,0,12,684.1,189.1)" />
<use xlink:href="#f0_f" transform="matrix(12,0,0,12,696.3,189.1)" />
<use xlink:href="#f0_g" transform="matrix(12,0,0,12,706.8,189.1)" />
<use xlink:href="#f0_j" transform="matrix(12,0,0,12,726.1,189.1)" />
<use xlink:href="#f0_q" transform="matrix(12,0,0,12,739,189.1)" />
<use xlink:href="#f0_m" transform="matrix(12,0,0,12,749.4,189.1)" />
<use xlink:href="#f0_f" transform="matrix(12,0,0,12,760.9,189.1)" />
<use xlink:href="#f0_8" transform="matrix(12,0,0,12,285.2,210.5)" />
<use xlink:href="#f0_e" transform="matrix(12,0,0,12,291,210.5)" />
<use xlink:href="#f0_q" transform="matrix(12,0,0,12,302.5,210.5)" />
<use xlink:href="#f0_b" transform="matrix(12,0,0,12,312.9,210.5)" />
<use xlink:href="#f0_f" transform="matrix(12,0,0,12,329.2,210.5)" />
<use xlink:href="#f0_6" transform="matrix(12,0,0,12,339.8,210.5)" />
<use xlink:href="#f0_d" transform="matrix(12,0,0,12,344.7,210.5)" />
<use xlink:href="#f0_3" transform="matrix(12,0,0,12,362.5,210.5)" />
<use xlink:href="#f0_i" transform="matrix(12,0,0,12,367.4,210.5)" />
<use xlink:href="#f0_f" transform="matrix(12,0,0,12,371.5,210.5)" />
<use xlink:href="#f0_b" transform="matrix(12,0,0,12,388,210.5)" />
<use xlink:href="#f0_i" transform="matrix(12,0,0,12,398.4,210.5)" />
<use xlink:href="#f0_a" transform="matrix(12,0,0,12,402.5,210.5)" />
<use xlink:href="#f0_f" transform="matrix(12,0,0,12,412.6,210.5)" />
<use xlink:href="#f0_9" transform="matrix(12,0,0,12,423.1,210.5)" />
<use xlink:href="#f0_6" transform="matrix(12,0,0,12,430.3,210.5)" />
<use xlink:href="#f0_l" transform="matrix(12,0,0,12,441.3,210.5)" />
<use xlink:href="#f0_i" transform="matrix(12,0,0,12,453.5,210.5)" />
<use xlink:href="#f0_4" transform="matrix(12,0,0,12,457.6,210.5)" />
<use xlink:href="#f0_m" transform="matrix(12,0,0,12,467.2,210.5)" />
<use xlink:href="#f0_g" transform="matrix(12,0,0,12,478.6,210.5)" />
<use xlink:href="#f0_g" transform="matrix(12,0,0,12,496.4,210.5)" />
<use xlink:href="#f0_7" transform="matrix(12,0,0,12,508.3,210.5)" />
<use xlink:href="#f0_4" transform="matrix(12,0,0,12,520.8,210.5)" />
<use xlink:href="#f0_q" transform="matrix(12,0,0,12,536.2,210.5)" />
<use xlink:href="#f0_i" transform="matrix(12,0,0,12,546.6,210.5)" />
<use xlink:href="#f0_4" transform="matrix(12,0,0,12,550.7,210.5)" />
<use xlink:href="#f0_9" transform="matrix(12,0,0,12,560.3,210.5)" />
<use xlink:href="#f0_3" transform="matrix(12,0,0,12,573.6,210.5)" />
<use xlink:href="#f0_4" transform="matrix(12,0,0,12,578.6,210.5)" />
<use xlink:href="#f0_6" transform="matrix(12,0,0,12,594.1,210.5)" />
<use xlink:href="#f0_7" transform="matrix(12,0,0,12,599.1,210.5)" />
<use xlink:href="#f0_4" transform="matrix(12,0,0,12,611.5,210.5)" />
<use xlink:href="#f0_8" transform="matrix(12,0,0,12,627,210.5)" />
<use xlink:href="#f0_g" transform="matrix(12,0,0,12,632.8,210.5)" />
<use xlink:href="#f0_6" transform="matrix(12,0,0,12,644.8,210.5)" />
<use xlink:href="#f0_6" transform="matrix(12,0,0,12,649.8,210.5)" />
<use xlink:href="#f0_g" transform="matrix(12,0,0,12,654.8,210.5)" />
<use xlink:href="#f0_g" transform="matrix(12,0,0,12,666.7,210.5)" />
<use xlink:href="#f0_3" transform="matrix(12,0,0,12,684.6,210.5)" />
<use xlink:href="#f0_7" transform="matrix(12,0,0,12,689.5,210.5)" />
<use xlink:href="#f0_p" transform="matrix(12,0,0,12,702,210.5)" />
<use xlink:href="#f0_f" transform="matrix(12,0,0,12,708.4,210.5)" />
<use xlink:href="#f0_g" transform="matrix(12,0,0,12,724.9,210.5)" />
<use xlink:href="#f0_s" transform="matrix(12,0,0,12,736.8,210.5)" />
<use xlink:href="#f0_b" transform="matrix(12,0,0,12,749,210.5)" />
<use xlink:href="#f0_7" transform="matrix(12,0,0,12,759.2,210.5)" />
<use xlink:href="#f0_14" transform="matrix(11,0,0,11,137.5,1208.9)" />
<use xlink:href="#f0_16" transform="matrix(11,0,0,11,148.2,1208.9)" />
</g>
</g>
<defs>
<path d="M231,-277V211l15,266H367L382,211V-277Zm0,923V836H382V646Z" 
id="f0_1o"
transform="scale(0.001,-0.001)" />

<path d="M44,0V40L172,60V941L44,960v40H445V960L316,941V549H787V941L659,960v40h400V960L930,941V60L1059,40V0H659V40L787,60V481H316V60L445,40V0Z" 
id="f1_1m"
transform="scale(0.001,-0.001)" />

<path d="M377,45c0,0,99,0,147,73c0,0,47,73,47,237c0,0,0,161,-47,233c0,0,-47,72,-147,72c0,0,-97,0,-141,-69c0,0,-44,-69,-44,-236c0,0,0,-169,45,-240c0,0,44,-70,140,-70Zm0,-59c0,0,-158,0,-238,94c0,0,-81,95,-81,274c0,0,0,178,81,272c0,0,80,94,244,94c0,0,160,0,241,-92c0,0,82,-92,82,-274c0,0,0,-368,-329,-368Z" 
id="f1_9"
transform="scale(0.001,-0.001)" />

<path d="M31,0V33L150,52v956L31,1026v34H274V52L394,33V0Z" 
id="f1_m"
transform="scale(0.001,-0.001)" />

<path d="M284,67c0,0,51,0,88,12c0,0,37,12,74,30V358l-98,-3c0,0,-100,-4,-135,-39c0,0,-35,-35,-35,-117c0,0,0,-132,106,-132ZM233,-14c0,0,-179,0,-179,208c0,0,0,70,27,116c0,0,27,46,87,70c0,0,60,24,173,27l105,3V519c0,0,0,72,-26,107c0,0,-27,34,-82,34c0,0,-75,0,-137,-35L176,538H134V691c0,0,121,26,213,26c0,0,115,0,169,-47c0,0,54,-47,54,-144V52L657,33V0H465L451,70c0,0,-85,-84,-218,-84Z" 
id="f1_7"
transform="scale(0.001,-0.001)" />

<path d="M254,-20c0,0,-39,0,-65,25c0,0,-26,27,-26,64c0,0,0,38,26,64c0,0,27,26,65,26c0,0,38,0,64,-26c0,0,26,-26,26,-64c0,0,0,-37,-26,-64c0,0,-26,-25,-64,-25ZM219,290l-47,710H335L289,290Z" 
id="f1_1n"
transform="scale(0.001,-0.001)" />

<path d="M58,-234v58c0,0,131,42,131,125c0,0,0,15,-11,27c0,0,-11,12,-38,25C140,1,89,27,89,75c0,0,0,40,25,61c0,0,26,21,65,21c0,0,48,0,77,-34c0,0,30,-34,30,-86c0,0,0,-101,-60,-170c0,0,-59,-69,-168,-101Z" 
id="f1_1j"
transform="scale(0.001,-0.001)" />

<path d="M172,-305l47,710h70l46,-710Zm82,841c0,0,-38,0,-65,26c0,0,-26,26,-26,64c0,0,0,37,26,64c0,0,26,27,65,27c0,0,38,0,64,-27c0,0,26,-27,26,-64c0,0,0,-38,-26,-64c0,0,-26,-26,-64,-26Z" 
id="f1_1l"
transform="scale(0.001,-0.001)" />

<path d="M44,0V40L172,60V941L44,960v40H794V760H745L721,922c0,0,-83,11,-241,11H316V543H586l23,119h48V354H609L586,475H316V67H513c0,0,193,0,252,12l43,185h49L843,0Z" 
id="f1_c"
transform="scale(0.001,-0.001)" />

<path d="M439,0V33l93,19V500c0,0,0,62,-30,97c0,0,-31,36,-94,36c0,0,-67,0,-165,-22V52L338,33V0H35V33l84,19V649L35,668v33H235l7,-57c0,0,57,33,122,54c0,0,65,22,108,22c0,0,91,0,137,-53c0,0,47,-53,47,-154V52L741,33V0Z" 
id="f1_5"
transform="scale(0.001,-0.001)" />

<path d="M399,-14c0,0,-341,0,-341,370c0,0,0,175,87,269c0,0,87,95,249,95c0,0,101,0,220,-23V501H573L541,625c0,0,-62,35,-149,35c0,0,-200,0,-200,-304c0,0,0,-158,61,-225c0,0,61,-67,189,-67c0,0,109,0,189,24V43C631,43,595,16,530,1c0,0,-64,-15,-131,-15Z" 
id="f1_y"
transform="scale(0.001,-0.001)" />

<path d="M249,-14c0,0,-71,0,-107,42c0,0,-35,42,-35,119V639H15v33l93,29l76,159h47V701H391V639H231V161c0,0,0,-48,22,-73c0,0,22,-24,57,-24c0,0,44,0,106,12V26C416,26,389,8,340,-2c0,0,-49,-12,-91,-12Z" 
id="f1_e"
transform="scale(0.001,-0.001)" />

<path d="M383,64c0,0,85,0,152,28V645c0,0,-67,13,-152,13c0,0,-194,0,-194,-314c0,0,0,-141,48,-211c0,0,48,-69,146,-69ZM342,-14c0,0,-287,0,-287,358c0,0,0,184,82,280c0,0,81,96,239,96c0,0,81,0,163,-18c0,0,-4,25,-4,124v182l-118,18v34H659V52L745,33V0H548l-9,52c0,0,-84,-66,-197,-66Z" 
id="f1_p"
transform="scale(0.001,-0.001)" />

<path d="M736,107V473c0,0,0,147,-48,202c0,0,-49,54,-187,54H278V107ZM139,0V836H499c0,0,105,0,177,-22c0,0,72,-21,116,-69c0,0,44,-49,64,-119c0,0,19,-71,19,-174V0Z" 
id="f0_l"
transform="scale(0.001,-0.001)" />

<path d="M102,312V836H241V369L102,312Z" 
id="f0_i"
transform="scale(0.001,-0.001)" />

<path d="M66,0V107H332V555c0,0,0,92,-37,133c0,0,-37,41,-116,41H85V836h94c0,0,153,0,223,-66c0,0,69,-66,69,-231V0Z" 
id="f0_9"
transform="scale(0.001,-0.001)" />

<path d="M114,0l60,312c0,0,2,12,8,39c0,0,6,27,7,37c0,0,2,11,5,30c0,0,2,19,4,33c0,0,1,15,1,31c0,0,0,48,-35,146c0,0,-35,98,-98,208H228c0,0,3,-8,27,-67c0,0,25,-58,41,-117c0,0,21,53,50,90c0,0,29,37,57,57c0,0,29,21,65,32c0,0,37,11,65,14c0,0,28,3,67,3c0,0,300,0,300,-396V0H480V106H761V452c0,0,0,146,-46,215c0,0,-45,70,-118,70c0,0,-134,0,-198,-119c0,0,-36,-68,-67,-222c0,0,-2,-10,-6,-27L253,0Z" 
id="f0_7"
transform="scale(0.001,-0.001)" />

<path d="M522,92c0,0,247,0,247,333c0,0,0,88,-17,146c0,0,-17,58,-53,91c0,0,-35,33,-82,46c0,0,-48,14,-116,14H276V419c0,0,0,-327,246,-327Zm0,-112c0,0,-193,0,-289,109c0,0,-95,110,-95,337V836H501c0,0,213,0,309,-93c0,0,96,-94,96,-317c0,0,0,-227,-95,-337C811,89,715,-20,522,-20Z" 
id="f0_o"
transform="scale(0.001,-0.001)" />

<path d="M66,0V107H554V452c0,0,0,56,-4,93c0,0,-4,37,-18,75c0,0,-14,38,-40,60c0,0,-26,22,-71,36c0,0,-45,13,-110,13H66V836H312c0,0,91,0,157,-17c0,0,66,-17,109,-49c0,0,44,-32,69,-84c0,0,26,-52,36,-114c0,0,10,-62,10,-147V107H817V0Z" 
id="f0_f"
transform="scale(0.001,-0.001)" />

<path d="M585,0V426c0,0,0,54,-8,98c0,0,-8,44,-27,83c0,0,-19,40,-49,66c0,0,-30,26,-77,41c0,0,-47,15,-108,15H66V836H315c0,0,94,0,166,-20c0,0,71,-20,116,-54c0,0,46,-35,75,-88c0,0,28,-52,40,-112c0,0,12,-60,12,-137V0Z" 
id="f0_q"
transform="scale(0.001,-0.001)" />

<path d="M139,0V106H400c0,0,176,0,253,71c0,0,78,72,78,250c0,0,0,163,-80,233c0,0,-81,69,-250,69H278L277,564c0,0,-1,-54,26,-80c0,0,27,-25,82,-25c0,0,30,0,80,9V355c0,0,-61,-12,-111,-12c0,0,-100,0,-157,55c0,0,-58,55,-58,186V836H456c0,0,193,0,303,-109c0,0,110,-109,110,-309c0,0,0,-200,-110,-309C759,109,648,0,456,0Z" 
id="f0_m"
transform="scale(0.001,-0.001)" />

<path d="M154,0V454l138,56V0ZM722,0V454c0,0,0,161,-49,218c0,0,-48,57,-186,57H139V836H485c0,0,207,0,291,-93c0,0,83,-94,83,-318V0Z" 
id="f0_g"
transform="scale(0.001,-0.001)" />

<path d="M543,-317V369c0,0,0,85,-8,143c0,0,-8,58,-27,101c0,0,-18,44,-51,69c0,0,-33,24,-80,36c0,0,-48,11,-117,11H66V836H257c0,0,125,0,205,-23c0,0,80,-23,130,-79c0,0,50,-56,70,-143c0,0,20,-86,20,-222V-317Z" 
id="f0_t"
transform="scale(0.001,-0.001)" />

<path d="M180,0L66,836H203L258,443c0,0,36,1,64,6c0,0,28,6,49,18c0,0,20,12,35,26c0,0,15,13,26,36c0,0,11,24,17,44c0,0,7,20,12,55c0,0,6,34,9,60c0,0,3,26,8,71c0,0,4,45,9,77H610c0,0,-13,-194,-31,-271c0,0,-31,-127,-111,-179c0,0,-71,-45,-196,-50L304,107c0,0,73,0,130,5c0,0,56,6,111,21c0,0,54,15,94,40c0,0,40,25,77,64c0,0,37,39,63,94c0,0,25,54,46,128c0,0,21,73,34,166c0,0,13,94,20,211h138c0,0,-14,-124,-29,-218c0,0,-16,-94,-39,-179c0,0,-22,-85,-50,-146c0,0,-28,-61,-68,-112c0,0,-39,-51,-87,-84C744,97,696,65,632,42C632,42,568,19,492,10C492,10,417,0,320,0Z" 
id="f0_c"
transform="scale(0.001,-0.001)" />

<path d="M112,-5c0,0,-39,0,-97,11V113c0,0,48,-10,77,-10c0,0,53,0,70,42c0,0,17,43,17,164V729H50V836H501c0,0,107,0,179,-25c0,0,72,-25,112,-77c0,0,40,-51,57,-118c0,0,16,-67,16,-164V0H726V454c0,0,0,55,-3,92c0,0,-4,37,-17,75c0,0,-14,38,-38,59c0,0,-24,22,-65,36c0,0,-42,13,-102,13H318V309c0,0,0,-160,-46,-237C272,72,226,-5,112,-5Z" 
id="f0_h"
transform="scale(0.001,-0.001)" />

<path d="M139,0V138c0,0,0,61,8,112c0,0,7,52,19,87c0,0,11,36,30,66c0,0,19,31,35,49c0,0,17,19,41,35c0,0,25,17,41,25c0,0,17,7,40,17L141,836H303L613,388c0,0,20,10,33,18c0,0,13,8,34,28c0,0,20,20,33,44c0,0,13,25,22,66c0,0,10,41,10,92V836H882V698c0,0,0,-61,-7,-112c0,0,-6,-52,-18,-88c0,0,-12,-36,-30,-66c0,0,-19,-30,-36,-49c0,0,-17,-18,-41,-34c0,0,-24,-17,-40,-25c0,0,-17,-8,-41,-17L882,0H720L409,448c0,0,-21,-11,-34,-19c0,0,-13,-8,-34,-27c0,0,-21,-20,-34,-44c0,0,-12,-25,-22,-66c0,0,-9,-41,-9,-92V0Z" 
id="f0_s"
transform="scale(0.001,-0.001)" />

<path d="M287,0L589,729H66v386H205V836l547,-1l-2,-82L433,0Z" 
id="f0_b"
transform="scale(0.001,-0.001)" />

<path d="M117,-176L179,62V190H336V62L213,-176Z" 
id="f0_2"
transform="scale(0.001,-0.001)" />

<path d="M156,-317V454l139,56V-317ZM505,0L806,729H139V835H967V753L650,0Z" 
id="f0_j"
transform="scale(0.001,-0.001)" />

<path d="M139,0V836H278V0Z" 
id="f0_6"
transform="scale(0.001,-0.001)" />

<path d="M139,0V836H485c0,0,206,0,290,-90c0,0,84,-89,84,-294V0H721V473c0,0,0,147,-49,202c0,0,-48,54,-186,54H277V0Z" 
id="f0_k"
transform="scale(0.001,-0.001)" />

<path d="M66,0V106H564L66,836H228L516,413c0,0,3,2,9,6c0,0,17,13,27,21c0,0,10,8,26,27c0,0,17,20,26,40c0,0,9,21,16,54c0,0,7,34,7,75V836H764V698c0,0,0,-55,-7,-102c0,0,-7,-47,-16,-79c0,0,-10,-33,-27,-62c0,0,-18,-29,-32,-46c0,0,-14,-17,-37,-35c0,0,-22,-17,-36,-25c0,0,-13,-8,-36,-20L767,53V0Z" 
id="f0_r"
transform="scale(0.001,-0.001)" />

<path d="M163,0V190H321V0Z" 
id="f0_8"
transform="scale(0.001,-0.001)" />

<path d="M231,0V190H382V0Zm15,359L231,625v489H382V625L367,359Z" 
id="f0_1n"
transform="scale(0.001,-0.001)" />

<path d="M495,0V729H66V836H781V729H634V0Z" 
id="f0_a"
transform="scale(0.001,-0.001)" />

<path d="M71,-141V-15L289,62L66,836H210L416,109c0,0,99,42,153,98c0,0,53,56,80,155c0,0,26,98,26,262V836H817V624c0,0,0,-88,-7,-154c0,0,-7,-67,-25,-132c0,0,-18,-66,-51,-116c0,0,-33,-51,-84,-98c0,0,-50,-48,-123,-87c0,0,-72,-39,-169,-74L71,-141Z" 
id="f0_e"
transform="scale(0.001,-0.001)" />

<path d="M139,-317V836H278V-317Z" 
id="f0_3"
transform="scale(0.001,-0.001)" />

<path d="M66,0V106H322c0,0,75,0,127,23c0,0,53,23,82,67c0,0,29,43,42,98c0,0,13,54,13,124c0,0,0,70,-13,124c0,0,-13,55,-42,98c0,0,-29,44,-82,67c0,0,-52,23,-127,23H66V836H322c0,0,87,0,157,-24c0,0,70,-24,115,-64c0,0,45,-40,74,-94c0,0,30,-55,43,-113c0,0,13,-59,13,-123c0,0,0,-64,-13,-123c0,0,-13,-58,-43,-113c0,0,-29,-54,-74,-94C594,88,549,48,479,24C479,24,409,0,322,0Z" 
id="f0_4"
transform="scale(0.001,-0.001)" />

<path d="M522,-20c0,0,-196,0,-290,99c0,0,-94,100,-94,324V836H276V397c0,0,0,-86,16,-147c0,0,17,-60,50,-94c0,0,34,-34,77,-49c0,0,43,-15,103,-15c0,0,59,0,102,15c0,0,44,15,77,49c0,0,33,34,50,94c0,0,17,61,17,147c0,0,0,84,-8,143c0,0,-7,58,-25,105c0,0,-17,47,-51,69c0,0,-33,23,-83,23c0,0,-50,0,-119,-22V821c0,0,85,23,150,23c0,0,76,0,130,-30c0,0,53,-31,85,-90c0,0,31,-59,45,-138c0,0,13,-78,13,-183c0,0,0,-224,-93,-324c0,0,-94,-99,-290,-99Z" 
id="f0_d"
transform="scale(0.001,-0.001)" />

<path d="M138,-7c0,0,-34,0,-72,10V129c0,0,25,-8,52,-8c0,0,33,0,58,5c0,0,26,5,58,24c0,0,33,20,53,54c0,0,21,34,36,97c0,0,15,64,15,151c0,0,0,113,-19,173c0,0,-19,60,-56,82c0,0,-38,22,-107,22H89V836h72c0,0,165,0,240,-91c0,0,76,-91,76,-293c0,0,0,-107,26,-227c0,0,25,-119,83,-225H437c0,0,-43,101,-62,184c0,0,-24,-60,-51,-99c0,0,-26,-38,-56,-58C268,27,239,7,209,0c0,0,-30,-7,-71,-7Z" 
id="f0_n"
transform="scale(0.001,-0.001)" />

<path d="M152,0V473c0,0,0,94,28,161c0,0,29,66,71,95H66V836H463V729H404c0,0,-65,0,-89,-57c0,0,-25,-58,-25,-199V0Z" 
id="f0_p"
transform="scale(0.001,-0.001)" />

<path d="M190,0V127H436V977L168,923v137l267,54H586V127H832V0Z" 
id="f0_14"
transform="scale(0.001,-0.001)" />

<path d="M414,-20c0,0,-70,0,-144,13c0,0,-75,13,-154,40V179c0,0,63,-36,138,-55c0,0,74,-18,156,-18c0,0,142,0,216,55c0,0,74,56,74,163c0,0,0,98,-69,153c0,0,-69,56,-192,56H309V657H445c0,0,111,0,170,44c0,0,59,45,59,128c0,0,0,86,-61,132c0,0,-61,46,-174,46c0,0,-62,0,-133,-13c0,0,-71,-14,-156,-42v134c0,0,85,24,160,36c0,0,75,12,142,12c0,0,171,0,271,-78c0,0,100,-78,100,-211c0,0,0,-92,-53,-156c0,0,-52,-64,-150,-89c0,0,108,-23,169,-96c0,0,61,-73,61,-180c0,0,0,-165,-114,-255c0,0,-113,-89,-322,-89Z" 
id="f0_16"
transform="scale(0.001,-0.001)" />


</defs>
</svg>