<?xml version="1.0" encoding="UTF-8" standalone="no"?>
<!DOCTYPE svg PUBLIC "-//W3C//DTD SVG 1.1//EN"
"http://www.w3.org/Graphics/SVG/1.1/DTD/svg11.dtd">
<svg viewBox="0 0 909 1286" version="1.1" xmlns="http://www.w3.org/2000/svg" xmlns:xlink="http://www.w3.org/1999/xlink">
<defs>
<clipPath id="c0_8"><path d="M0,1286.2V0H909.4V1286.2Z" /></clipPath>
<clipPath id="c1_8"><path d="M642.4,190.6V169.3h.3v21.3Z" /></clipPath>
<clipPath id="c2_8"><path d="M642.4,472.8V451.5h.3v21.3Z" /></clipPath>
<style type="text/css"><![CDATA[
.g0_8{
fill: #D8D8D8;
}
.g1_8{
fill: none;
stroke: #000000;
stroke-width: 0.7638889;
stroke-linecap: butt;
stroke-linejoin: round;
}
.g2_8{
fill: none;
stroke: #0000FF;
stroke-width: 1.0694444;
stroke-linecap: butt;
stroke-linejoin: miter;
}
]]></style>
</defs>
<path fill-rule="evenodd" d="M128.9,130.1H237.2V110H128.9v20.1Z" class="g0_8" />
<path fill-rule="evenodd" d="M128.9,150.1H237.2V130.2H128.9v19.9Z" class="g0_8" />
<path fill-rule="evenodd" d="M659.5,288.4h177V269.2h-177v19.2Z" class="g0_8" />
<path fill-rule="evenodd" d="M464.6,288.4H659.5V269.2H464.6v19.2Z" class="g0_8" />
<path fill-rule="evenodd" d="M237.3,288.4H464.5V269.2H237.3v19.2Z" class="g0_8" />
<path fill-rule="evenodd" d="M746.2,331.9h90.3V288.4H746.2v43.5Z" class="g0_8" />
<path fill-rule="evenodd" d="M659.5,331.9h86.6V288.4H659.5v43.5Z" class="g0_8" />
<path fill-rule="evenodd" d="M562.2,331.9h97.3V288.4H562.2v43.5Z" class="g0_8" />
<path fill-rule="evenodd" d="M464.8,331.9h97.3V288.4H464.8v43.5Z" class="g0_8" />
<path fill-rule="evenodd" d="M356.4,331.9H464.7V288.4H356.4v43.5Z" class="g0_8" />
<path fill-rule="evenodd" d="M237.3,331.9H356.4V288.4H237.3v43.5Z" class="g0_8" />
<path fill-rule="evenodd" d="M128.9,352.1H237.2V332H128.9v20.1Z" class="g0_8" />
<path fill-rule="evenodd" d="M128.9,372.1H237.2V352.2H128.9v19.9Z" class="g0_8" />
<path fill-rule="evenodd" d="M128.9,392.3H237.2V372.2H128.9v20.1Z" class="g0_8" />
<path fill-rule="evenodd" d="M128.9,412.3H237.2v-20H128.9v20Z" class="g0_8" />
<path fill-rule="evenodd" d="M128.9,432.4H237.2V412.3H128.9v20.1Z" class="g0_8" />
<path fill-rule="evenodd" d="M563.1,575.6H780V556.4H563.1v19.2Z" class="g0_8" />
<path fill-rule="evenodd" d="M128.9,575.6H563.1V556.4H128.9v19.2Z" class="g0_8" />
<path fill-rule="evenodd" d="M327.7,958.8H544.6V936.7H327.7v22.1Z" class="g0_8" />
<path fill-rule="evenodd" d="M215.6,958.8h112V936.7h-112v22.1Z" class="g0_8" />
<path fill-rule="evenodd" d="M128.9,958.8h86.6V936.7H128.9v22.1Z" class="g0_8" />
<path fill-rule="evenodd" d="M128.9,130.1H237.2V110H128.9v20.1Z" class="g0_8" />
<path fill-rule="evenodd" d="M128.9,150.1H237.2V130.2H128.9v19.9Z" class="g0_8" />
<path fill-rule="evenodd" d="M659.5,288.4h177V269.2h-177v19.2Z" class="g0_8" />
<path fill-rule="evenodd" d="M464.6,288.4H659.5V269.2H464.6v19.2Z" class="g0_8" />
<path fill-rule="evenodd" d="M237.3,288.4H464.5V269.2H237.3v19.2Z" class="g0_8" />
<path fill-rule="evenodd" d="M746.2,331.9h90.3V288.4H746.2v43.5Z" class="g0_8" />
<path fill-rule="evenodd" d="M659.5,331.9h86.6V288.4H659.5v43.5Z" class="g0_8" />
<path fill-rule="evenodd" d="M562.2,331.9h97.3V288.4H562.2v43.5Z" class="g0_8" />
<path fill-rule="evenodd" d="M464.8,331.9h97.3V288.4H464.8v43.5Z" class="g0_8" />
<path fill-rule="evenodd" d="M356.4,331.9H464.7V288.4H356.4v43.5Z" class="g0_8" />
<path fill-rule="evenodd" d="M237.3,331.9H356.4V288.4H237.3v43.5Z" class="g0_8" />
<path fill-rule="evenodd" d="M128.9,352.1H237.2V332H128.9v20.1Z" class="g0_8" />
<path fill-rule="evenodd" d="M128.9,372.1H237.2V352.2H128.9v19.9Z" class="g0_8" />
<path fill-rule="evenodd" d="M128.9,392.3H237.2V372.2H128.9v20.1Z" class="g0_8" />
<path fill-rule="evenodd" d="M128.9,412.3H237.2v-20H128.9v20Z" class="g0_8" />
<path fill-rule="evenodd" d="M128.9,432.4H237.2V412.3H128.9v20.1Z" class="g0_8" />
<path fill-rule="evenodd" d="M563.1,575.6H780V556.4H563.1v19.2Z" class="g0_8" />
<path fill-rule="evenodd" d="M128.9,575.6H563.1V556.4H128.9v19.2Z" class="g0_8" />
<path fill-rule="evenodd" d="M327.7,958.8H544.6V936.7H327.7v22.1Z" class="g0_8" />
<path fill-rule="evenodd" d="M215.6,958.8h112V936.7h-112v22.1Z" class="g0_8" />
<path fill-rule="evenodd" d="M128.9,958.8h86.6V936.7H128.9v22.1Z" class="g0_8" />
<path d="M128.6,110.4H837M128.6,130.5H837M128.6,150.6H837M128.9,110v40.9M237.3,110v40.9M464.6,110v40.9M659.5,110v40.9M836.6,110v40.9" class="g1_8" />
<g clip-path="url(#c0_8)">
<g fill="#000000" >
<use xlink:href="#f0_p" transform="matrix(11,0,0,11,668.4,126.5)" />
<use xlink:href="#f0_9" transform="matrix(11,0,0,11,676.8,126.5)" />
<use xlink:href="#f0_8" transform="matrix(11,0,0,11,685.1,126.5)" />
<use xlink:href="#f0_r" transform="matrix(11,0,0,11,690.7,126.5)" />
<use xlink:href="#f0_3" transform="matrix(11,0,0,11,703.8,126.5)" />
<use xlink:href="#f0_r" transform="matrix(11,0,0,11,708.4,126.5)" />
<use xlink:href="#f0_9" transform="matrix(11,0,0,11,721.5,126.5)" />
<use xlink:href="#f0_6" transform="matrix(11,0,0,11,729.9,126.5)" />
<use xlink:href="#f0_5" transform="matrix(11,0,0,11,137.7,126.5)" />
<use xlink:href="#f0_9" transform="matrix(11,0,0,11,146.1,126.5)" />
<use xlink:href="#f0_6" transform="matrix(11,0,0,11,154.5,126.5)" />
<use xlink:href="#f0_9" transform="matrix(11,0,0,11,161,126.5)" />
<use xlink:href="#f0_e" transform="matrix(11,0,0,11,169.4,126.5)" />
<use xlink:href="#f0_8" transform="matrix(11,0,0,11,174,126.5)" />
<use xlink:href="#f0_9" transform="matrix(11,0,0,11,179.6,126.5)" />
<use xlink:href="#f0_6" transform="matrix(11,0,0,11,188,126.5)" />
<use xlink:href="#f0_n" transform="matrix(11,0,0,11,194.6,126.5)" />
<use xlink:href="#f0_7" transform="matrix(11,0,0,11,199.3,126.5)" />
<use xlink:href="#f0_6" transform="matrix(11,0,0,11,206.6,126.5)" />
<use xlink:href="#f0_2" transform="matrix(11,0,0,11,137.7,146.5)" />
<use xlink:href="#f0_m" transform="matrix(11,0,0,11,145.1,146.5)" />
<use xlink:href="#f0_m" transform="matrix(11,0,0,11,149.7,146.5)" />
<use xlink:href="#f0_9" transform="matrix(11,0,0,11,154.4,146.5)" />
<use xlink:href="#f0_6" transform="matrix(11,0,0,11,162.8,146.5)" />
<use xlink:href="#f0_n" transform="matrix(11,0,0,11,169.4,146.5)" />
<use xlink:href="#f0_7" transform="matrix(11,0,0,11,174.1,146.5)" />
<use xlink:href="#f0_6" transform="matrix(11,0,0,11,181.4,146.5)" />
<use xlink:href="#f0_n" transform="matrix(11,0,0,11,188,146.5)" />
<use xlink:href="#f0_o" transform="matrix(11,0,0,11,192.7,146.5)" />
<use xlink:href="#f0_p" transform="matrix(11,0,0,11,204.8,146.5)" />
<use xlink:href="#f0_6" transform="matrix(11,0,0,11,213.2,146.5)" />
<use xlink:href="#f0_q" transform="matrix(11,0,0,11,219.7,146.5)" />
</g>
<g fill="#0000FF" >
<use xlink:href="#f1_b" transform="matrix(12,0,0,12,649.3,186.4)" />
<use xlink:href="#f1_i" transform="matrix(12,0,0,12,660,186.4)" />
<use xlink:href="#f1_n" transform="matrix(12,0,0,12,664.5,186.4)" />
<use xlink:href="#f1_q" transform="matrix(12,0,0,12,672.3,186.4)" />
<use xlink:href="#f1_h" transform="matrix(12,0,0,12,683.1,186.4)" />
<use xlink:href="#f1_b" transform="matrix(12,0,0,12,695.5,186.4)" />
<use xlink:href="#f1_h" transform="matrix(12,0,0,12,712.4,186.4)" />
<use xlink:href="#f1_6" transform="matrix(12,0,0,12,724.9,186.4)" />
<use xlink:href="#f1_f" transform="matrix(12,0,0,12,730.3,186.4)" />
<use xlink:href="#f1_6" transform="matrix(12,0,0,12,741.2,186.4)" />
<use xlink:href="#f1_c" transform="matrix(12,0,0,12,746.6,186.4)" />
<use xlink:href="#f1_h" transform="matrix(12,0,0,12,759.8,186.4)" />
</g>
</g>
<path d="M642.9,188.2H772.1" class="g2_8" />
<g clip-path="url(#c1_8)">
<path d="M642.4,188.2h5.8" class="g2_8" />
</g>
<g clip-path="url(#c0_8)">
<g fill="#0000FF" >
<use xlink:href="#f1_1g" transform="matrix(12,0,0,12,630.7,186.4)" />
</g>
</g>
<path d="M630.7,188.2h11.6" class="g2_8" />
<g clip-path="url(#c0_8)">
<g fill="#000000" >
<use xlink:href="#f2_a" transform="matrix(12,0,0,12,723.8,246.4)" />
<use xlink:href="#f2_8" transform="matrix(12,0,0,12,735,246.4)" />
<use xlink:href="#f2_k" transform="matrix(12,0,0,12,740.3,246.4)" />
<use xlink:href="#f2_4" transform="matrix(12,0,0,12,748.6,246.4)" />
<use xlink:href="#f2_h" transform="matrix(12,0,0,12,759.6,246.4)" />
<use xlink:href="#f2_x" transform="matrix(12,0,0,12,704.6,246.4)" />
<use xlink:href="#f1_8" transform="matrix(12,0,0,12,284.2,246.4)" />
<use xlink:href="#f1_l" transform="matrix(12,0,0,12,290,246.4)" />
<use xlink:href="#f1_i" transform="matrix(12,0,0,12,302,246.4)" />
<use xlink:href="#f1_m" transform="matrix(12,0,0,12,306.1,246.4)" />
<use xlink:href="#f1_o" transform="matrix(12,0,0,12,317.6,246.4)" />
<use xlink:href="#f1_6" transform="matrix(12,0,0,12,329.5,246.4)" />
<use xlink:href="#f1_9" transform="matrix(12,0,0,12,334.5,246.4)" />
<use xlink:href="#f1_l" transform="matrix(12,0,0,12,347.7,246.4)" />
<use xlink:href="#f1_i" transform="matrix(12,0,0,12,359.9,246.4)" />
<use xlink:href="#f1_n" transform="matrix(12,0,0,12,364,246.4)" />
<use xlink:href="#f1_i" transform="matrix(12,0,0,12,371.5,246.4)" />
<use xlink:href="#f1_q" transform="matrix(12,0,0,12,375.6,246.4)" />
<use xlink:href="#f1_k" transform="matrix(12,0,0,12,385.9,246.4)" />
<use xlink:href="#f1_g" transform="matrix(12,0,0,12,403.7,246.4)" />
<use xlink:href="#f1_c" transform="matrix(12,0,0,12,415.6,246.4)" />
<use xlink:href="#f1_6" transform="matrix(12,0,0,12,428.6,246.4)" />
<use xlink:href="#f1_b" transform="matrix(12,0,0,12,433.6,246.4)" />
<use xlink:href="#f1_c" transform="matrix(12,0,0,12,444,246.4)" />
<use xlink:href="#f1_l" transform="matrix(12,0,0,12,462.9,246.4)" />
<use xlink:href="#f1_i" transform="matrix(12,0,0,12,475.1,246.4)" />
<use xlink:href="#f1_b" transform="matrix(12,0,0,12,479.2,246.4)" />
<use xlink:href="#f1_c" transform="matrix(12,0,0,12,489.6,246.4)" />
<use xlink:href="#f1_g" transform="matrix(12,0,0,12,502.6,246.4)" />
<use xlink:href="#f1_b" transform="matrix(12,0,0,12,514.5,246.4)" />
<use xlink:href="#f1_t" transform="matrix(12,0,0,12,530.7,246.4)" />
<use xlink:href="#f1_i" transform="matrix(12,0,0,12,540.5,246.4)" />
<use xlink:href="#f1_b" transform="matrix(12,0,0,12,544.6,246.4)" />
<use xlink:href="#f1_e" transform="matrix(12,0,0,12,555,246.4)" />
<use xlink:href="#f1_2" transform="matrix(12,0,0,12,572.5,246.4)" />
<use xlink:href="#f1_g" transform="matrix(12,0,0,12,578.3,246.4)" />
<use xlink:href="#f1_s" transform="matrix(12,0,0,12,590.3,246.4)" />
<use xlink:href="#f1_f" transform="matrix(12,0,0,12,602.5,246.4)" />
<use xlink:href="#f1_g" transform="matrix(12,0,0,12,613,246.4)" />
<use xlink:href="#f1_g" transform="matrix(12,0,0,12,631,246.4)" />
<use xlink:href="#f1_b" transform="matrix(12,0,0,12,642.9,246.4)" />
<use xlink:href="#f1_f" transform="matrix(12,0,0,12,653.3,246.4)" />
<use xlink:href="#f1_d" transform="matrix(12,0,0,12,663.9,246.4)" />
<use xlink:href="#f1_f" transform="matrix(12,0,0,12,675.8,246.4)" />
<use xlink:href="#f1_17" transform="matrix(12,0,0,12,692.1,246.4)" />
</g>
</g>
<path d="M236.9,269.6H837M236.9,288.8H837M128.6,332.4H837M128.6,352.5H837m-708.4,20H837M128.6,392.7H837m-708.4,20H837M128.6,432.9H837M128.9,332V433.3M237.3,269.2v19.2m0,43.6V433.3m0,-144.9v44.4M464.6,269.2v20m0,42.8V433.3m.2,-144.9v44.4M659.5,269.2V433.3M836.6,269.2V433.3" class="g1_8" />
<g clip-path="url(#c0_8)">
<g fill="#000000" >
<use xlink:href="#f0_a" transform="matrix(10.5,0,0,10.5,740.5,284.9)" />
<use xlink:href="#f0_b" transform="matrix(10.5,0,0,10.5,745.9,284.9)" />
<use xlink:href="#f0_c" transform="matrix(10.5,0,0,10.5,552.3,284.9)" />
<use xlink:href="#f0_b" transform="matrix(10.5,0,0,10.5,562.1,284.9)" />
<use xlink:href="#f0_d" transform="matrix(10.5,0,0,10.5,340.1,284.9)" />
<use xlink:href="#f0_b" transform="matrix(10.5,0,0,10.5,351.7,284.9)" />
<use xlink:href="#f1_h" transform="matrix(12,0,0,12,788.6,306.3)" />
<use xlink:href="#f1_6" transform="matrix(12,0,0,12,800.7,306.3)" />
<use xlink:href="#f1_7" transform="matrix(12,0,0,12,805.7,306.3)" />
<use xlink:href="#f1_b" transform="matrix(12,0,0,12,818.1,306.3)" />
<use xlink:href="#f0_r" transform="matrix(11,0,0,11,668.4,304.9)" />
<use xlink:href="#f0_9" transform="matrix(11,0,0,11,681.4,304.9)" />
<use xlink:href="#f0_8" transform="matrix(11,0,0,11,689.8,304.9)" />
<use xlink:href="#f0_3" transform="matrix(11,0,0,11,695.4,304.9)" />
<use xlink:href="#f0_8" transform="matrix(11,0,0,11,700,304.9)" />
<use xlink:href="#f1_q" transform="matrix(12,0,0,12,607.4,306.3)" />
<use xlink:href="#f1_6" transform="matrix(12,0,0,12,617.7,306.3)" />
<use xlink:href="#f1_p" transform="matrix(12,0,0,12,622.7,306.3)" />
<use xlink:href="#f1_k" transform="matrix(12,0,0,12,629.1,306.3)" />
<use xlink:href="#f1_b" transform="matrix(12,0,0,12,641,306.3)" />
<use xlink:href="#f0_v" transform="matrix(11,0,0,11,473.5,304.9)" />
<use xlink:href="#f0_9" transform="matrix(11,0,0,11,481.9,304.9)" />
<use xlink:href="#f0_m" transform="matrix(11,0,0,11,490.3,304.9)" />
<use xlink:href="#f0_v" transform="matrix(11,0,0,11,495,304.9)" />
<use xlink:href="#f0_2" transform="matrix(11,0,0,11,503.4,304.9)" />
<use xlink:href="#f0_8" transform="matrix(11,0,0,11,510.7,304.9)" />
<use xlink:href="#f1_11" transform="matrix(12,0,0,12,406.2,306.3)" />
<use xlink:href="#f1_q" transform="matrix(12,0,0,12,412.3,306.3)" />
<use xlink:href="#f1_m" transform="matrix(12,0,0,12,422.7,306.3)" />
<use xlink:href="#f1_o" transform="matrix(12,0,0,12,434.2,306.3)" />
<use xlink:href="#f1_b" transform="matrix(12,0,0,12,446.1,306.3)" />
<use xlink:href="#f1_q" transform="matrix(12,0,0,12,407.3,327.7)" />
<use xlink:href="#f1_6" transform="matrix(12,0,0,12,417.7,327.7)" />
<use xlink:href="#f1_m" transform="matrix(12,0,0,12,422.7,327.7)" />
<use xlink:href="#f1_o" transform="matrix(12,0,0,12,434.1,327.7)" />
<use xlink:href="#f1_b" transform="matrix(12,0,0,12,446,327.7)" />
<use xlink:href="#f0_y" transform="matrix(11,0,0,11,246.1,304.9)" />
<use xlink:href="#f0_9" transform="matrix(11,0,0,11,253.6,304.9)" />
<use xlink:href="#f0_5" transform="matrix(11,0,0,11,262,304.9)" />
<use xlink:href="#f0_e" transform="matrix(11,0,0,11,270.2,304.9)" />
<use xlink:href="#f0_7" transform="matrix(11,0,0,11,275,304.9)" />
<use xlink:href="#f0_8" transform="matrix(11,0,0,11,282.4,304.9)" />
<use xlink:href="#f0_i" transform="matrix(11,0,0,11,137.7,348.5)" />
<use xlink:href="#f0_9" transform="matrix(11,0,0,11,146.1,348.5)" />
<use xlink:href="#f0_e" transform="matrix(11,0,0,11,137.7,368.5)" />
<use xlink:href="#f0_j" transform="matrix(11,0,0,11,142.4,368.5)" />
<use xlink:href="#f0_l" transform="matrix(11,0,0,11,137.7,388.7)" />
<use xlink:href="#f0_m" transform="matrix(11,0,0,11,145.1,388.7)" />
<use xlink:href="#f0_n" transform="matrix(11,0,0,11,149.7,388.7)" />
<use xlink:href="#f0_2" transform="matrix(11,0,0,11,154.4,388.7)" />
<use xlink:href="#f0_m" transform="matrix(11,0,0,11,161.9,388.7)" />
<use xlink:href="#f0_m" transform="matrix(11,0,0,11,166.5,388.7)" />
<use xlink:href="#f0_7" transform="matrix(11,0,0,11,171.2,388.7)" />
<use xlink:href="#f0_n" transform="matrix(11,0,0,11,178.7,388.7)" />
<use xlink:href="#f0_o" transform="matrix(11,0,0,11,183.4,388.7)" />
<use xlink:href="#f0_p" transform="matrix(11,0,0,11,195.4,388.7)" />
<use xlink:href="#f0_q" transform="matrix(11,0,0,11,203.8,388.7)" />
<use xlink:href="#f0_5" transform="matrix(11,0,0,11,137.7,408.7)" />
<use xlink:href="#f0_9" transform="matrix(11,0,0,11,146.1,408.7)" />
<use xlink:href="#f0_6" transform="matrix(11,0,0,11,154.5,408.7)" />
<use xlink:href="#f0_9" transform="matrix(11,0,0,11,161,408.7)" />
<use xlink:href="#f0_e" transform="matrix(11,0,0,11,169.4,408.7)" />
<use xlink:href="#f0_8" transform="matrix(11,0,0,11,174,408.7)" />
<use xlink:href="#f0_9" transform="matrix(11,0,0,11,179.6,408.7)" />
<use xlink:href="#f0_6" transform="matrix(11,0,0,11,188,408.7)" />
<use xlink:href="#f0_n" transform="matrix(11,0,0,11,194.6,408.7)" />
<use xlink:href="#f0_7" transform="matrix(11,0,0,11,199.3,408.7)" />
<use xlink:href="#f0_6" transform="matrix(11,0,0,11,206.6,408.7)" />
<use xlink:href="#f0_2" transform="matrix(11,0,0,11,137.7,428.8)" />
<use xlink:href="#f0_m" transform="matrix(11,0,0,11,145.1,428.8)" />
<use xlink:href="#f0_m" transform="matrix(11,0,0,11,149.7,428.8)" />
<use xlink:href="#f0_9" transform="matrix(11,0,0,11,154.4,428.8)" />
<use xlink:href="#f0_6" transform="matrix(11,0,0,11,162.8,428.8)" />
<use xlink:href="#f0_n" transform="matrix(11,0,0,11,169.4,428.8)" />
<use xlink:href="#f0_7" transform="matrix(11,0,0,11,174.1,428.8)" />
<use xlink:href="#f0_6" transform="matrix(11,0,0,11,181.4,428.8)" />
<use xlink:href="#f0_n" transform="matrix(11,0,0,11,188,428.8)" />
<use xlink:href="#f0_o" transform="matrix(11,0,0,11,192.7,428.8)" />
<use xlink:href="#f0_p" transform="matrix(11,0,0,11,204.8,428.8)" />
<use xlink:href="#f0_6" transform="matrix(11,0,0,11,213.2,428.8)" />
<use xlink:href="#f0_q" transform="matrix(11,0,0,11,219.7,428.8)" />
</g>
<g fill="#0000FF" >
<use xlink:href="#f1_b" transform="matrix(12,0,0,12,649.3,468.6)" />
<use xlink:href="#f1_i" transform="matrix(12,0,0,12,660,468.6)" />
<use xlink:href="#f1_n" transform="matrix(12,0,0,12,664.5,468.6)" />
<use xlink:href="#f1_q" transform="matrix(12,0,0,12,672.3,468.6)" />
<use xlink:href="#f1_h" transform="matrix(12,0,0,12,683.1,468.6)" />
<use xlink:href="#f1_b" transform="matrix(12,0,0,12,695.5,468.6)" />
<use xlink:href="#f1_h" transform="matrix(12,0,0,12,712.4,468.6)" />
<use xlink:href="#f1_6" transform="matrix(12,0,0,12,724.9,468.6)" />
<use xlink:href="#f1_f" transform="matrix(12,0,0,12,730.3,468.6)" />
<use xlink:href="#f1_6" transform="matrix(12,0,0,12,741.2,468.6)" />
<use xlink:href="#f1_c" transform="matrix(12,0,0,12,746.6,468.6)" />
<use xlink:href="#f1_h" transform="matrix(12,0,0,12,759.8,468.6)" />
</g>
</g>
<path d="M642.9,470.4H772.1" class="g2_8" />
<g clip-path="url(#c2_8)">
<path d="M642.4,470.4h5.8" class="g2_8" />
</g>
<g clip-path="url(#c0_8)">
<g fill="#0000FF" >
<use xlink:href="#f1_1h" transform="matrix(12,0,0,12,630.7,468.6)" />
</g>
</g>
<path d="M630.7,470.4h11.6" class="g2_8" />
<g clip-path="url(#c0_8)">
<g fill="#000000" >
<use xlink:href="#f3_h" transform="matrix(16,0,0,16,461.4,532.6)" />
<use xlink:href="#f3_1d" transform="matrix(16,0,0,16,475.7,532.6)" />
<use xlink:href="#f3_9" transform="matrix(16,0,0,16,489.4,532.6)" />
<use xlink:href="#f3_a" transform="matrix(16,0,0,16,497.8,532.6)" />
<use xlink:href="#f3_8" transform="matrix(16,0,0,16,504.5,532.6)" />
<use xlink:href="#f3_b" transform="matrix(16,0,0,16,516.9,532.6)" />
<use xlink:href="#f3_14" transform="matrix(16,0,0,16,538.2,532.6)" />
<use xlink:href="#f3_a" transform="matrix(16,0,0,16,553.9,532.6)" />
<use xlink:href="#f3_u" transform="matrix(16,0,0,16,560.6,532.6)" />
<use xlink:href="#f3_a" transform="matrix(16,0,0,16,575.6,532.6)" />
<use xlink:href="#f3_a" transform="matrix(16,0,0,16,582.3,532.6)" />
<use xlink:href="#f3_1e" transform="matrix(16,0,0,16,589,532.6)" />
<use xlink:href="#f3_u" transform="matrix(16,0,0,16,602.6,532.6)" />
<use xlink:href="#f3_h" transform="matrix(16,0,0,16,617.4,532.6)" />
<use xlink:href="#f3_14" transform="matrix(16,0,0,16,638.3,532.6)" />
<use xlink:href="#f3_a" transform="matrix(16,0,0,16,653.8,532.6)" />
<use xlink:href="#f3_g" transform="matrix(16,0,0,16,660.7,532.6)" />
<use xlink:href="#f3_1f" transform="matrix(16,0,0,16,674.2,532.6)" />
<use xlink:href="#f3_5" transform="matrix(16,0,0,16,688.6,532.6)" />
<use xlink:href="#f3_1a" transform="matrix(16,0,0,16,695.1,532.6)" />
<use xlink:href="#f3_14" transform="matrix(16,0,0,16,709.9,532.6)" />
<use xlink:href="#f3_a" transform="matrix(16,0,0,16,725.5,532.6)" />
<use xlink:href="#f3_d" transform="matrix(16,0,0,16,732.3,532.6)" />
<use xlink:href="#f3_v" transform="matrix(16,0,0,16,744.1,532.6)" />
<use xlink:href="#f3_g" transform="matrix(16,0,0,16,758.2,532.6)" />
<use xlink:href="#f1_h" transform="matrix(12,0,0,12,248.9,532.6)" />
<use xlink:href="#f1_7" transform="matrix(12,0,0,12,260.9,532.6)" />
<use xlink:href="#f1_6" transform="matrix(12,0,0,12,273.3,532.6)" />
<use xlink:href="#f1_i" transform="matrix(12,0,0,12,278.3,532.6)" />
<use xlink:href="#f1_o" transform="matrix(12,0,0,12,282.3,532.6)" />
<use xlink:href="#f1_7" transform="matrix(12,0,0,12,294.2,532.6)" />
<use xlink:href="#f1_l" transform="matrix(12,0,0,12,312.5,532.6)" />
<use xlink:href="#f1_i" transform="matrix(12,0,0,12,324.7,532.6)" />
<use xlink:href="#f1_m" transform="matrix(12,0,0,12,328.8,532.6)" />
<use xlink:href="#f1_o" transform="matrix(12,0,0,12,340.3,532.6)" />
<use xlink:href="#f1_6" transform="matrix(12,0,0,12,352,532.6)" />
<use xlink:href="#f1_9" transform="matrix(12,0,0,12,357.1,532.6)" />
<use xlink:href="#f1_l" transform="matrix(12,0,0,12,370.2,532.6)" />
<use xlink:href="#f1_i" transform="matrix(12,0,0,12,382.4,532.6)" />
<use xlink:href="#f1_b" transform="matrix(12,0,0,12,386.5,532.6)" />
<use xlink:href="#f1_e" transform="matrix(12,0,0,12,396.9,532.6)" />
<use xlink:href="#f1_m" transform="matrix(12,0,0,12,408.4,532.6)" />
<use xlink:href="#f1_3" transform="matrix(12,0,0,12,425.6,532.6)" />
<use xlink:href="#f1_i" transform="matrix(12,0,0,12,430.7,532.6)" />
<use xlink:href="#f1_s" transform="matrix(12,0,0,12,434.8,532.6)" />
<use xlink:href="#f1_w" transform="matrix(12,0,0,12,447,532.6)" />
<use xlink:href="#f0_3" transform="matrix(11,0,0,11,232.7,532.6)" />
<use xlink:href="#f0_8" transform="matrix(11,0,0,11,237.3,532.6)" />
<use xlink:href="#f1_v" transform="matrix(12,0,0,12,225.7,532.6)" />
</g>
</g>
<path d="M128.6,556.8H780.5M128.6,576H780.5M128.6,619.6H780.5M128.6,641.7H780.5M128.6,663.9H780.5M128.6,707.4H780.5M128.6,751H780.5M128.6,794.5H780.5M128.9,556.4V794.9m217,-219.2V794.9M563,575.7V794.9m.1,-238.5v20m217,-20V794.9" class="g1_8" />
<g clip-path="url(#c0_8)">
<g fill="#000000" >
<use xlink:href="#f0_c" transform="matrix(10.5,0,0,10.5,661.7,572.2)" />
<use xlink:href="#f0_b" transform="matrix(10.5,0,0,10.5,671.5,572.2)" />
<use xlink:href="#f0_d" transform="matrix(10.5,0,0,10.5,335.2,572.2)" />
<use xlink:href="#f0_b" transform="matrix(10.5,0,0,10.5,346.8,572.2)" />
<use xlink:href="#f1_q" transform="matrix(12,0,0,12,716.8,593.4)" />
<use xlink:href="#f1_i" transform="matrix(12,0,0,12,727.2,593.4)" />
<use xlink:href="#f1_p" transform="matrix(12,0,0,12,731.3,593.4)" />
<use xlink:href="#f1_k" transform="matrix(12,0,0,12,737.7,593.4)" />
<use xlink:href="#f1_g" transform="matrix(12,0,0,12,749.6,593.4)" />
<use xlink:href="#f1_b" transform="matrix(12,0,0,12,761.5,593.4)" />
<use xlink:href="#f0_p" transform="matrix(10.5,0,0,10.5,571.8,591.4)" />
<use xlink:href="#f0_2" transform="matrix(10.5,0,0,10.5,579.8,591.4)" />
<use xlink:href="#f0_v" transform="matrix(10.5,0,0,10.5,587,591.4)" />
<use xlink:href="#f0_9" transform="matrix(10.5,0,0,10.5,594.9,591.4)" />
<use xlink:href="#f0_m" transform="matrix(10.5,0,0,10.5,603,591.4)" />
<use xlink:href="#f0_v" transform="matrix(10.5,0,0,10.5,607.4,591.4)" />
<use xlink:href="#f0_2" transform="matrix(10.5,0,0,10.5,615.4,591.4)" />
<use xlink:href="#f0_8" transform="matrix(10.5,0,0,10.5,622.5,591.4)" />
<use xlink:href="#f1_l" transform="matrix(12,0,0,12,504.9,593.4)" />
<use xlink:href="#f1_6" transform="matrix(12,0,0,12,517.1,593.4)" />
<use xlink:href="#f1_b" transform="matrix(12,0,0,12,522.2,593.4)" />
<use xlink:href="#f1_k" transform="matrix(12,0,0,12,532.6,593.4)" />
<use xlink:href="#f1_b" transform="matrix(12,0,0,12,544.5,593.4)" />
<use xlink:href="#f0_6" transform="matrix(10.5,0,0,10.5,354.8,591.4)" />
<use xlink:href="#f0_9" transform="matrix(10.5,0,0,10.5,360.9,591.4)" />
<use xlink:href="#f0_1f" transform="matrix(10.5,0,0,10.5,368.9,591.4)" />
<use xlink:href="#f0_7" transform="matrix(10.5,0,0,10.5,376.9,591.4)" />
<use xlink:href="#f0_8" transform="matrix(10.5,0,0,10.5,384.1,591.4)" />
<use xlink:href="#f1_b" transform="matrix(12,0,0,12,290.1,593.4)" />
<use xlink:href="#f1_6" transform="matrix(12,0,0,12,300.5,593.4)" />
<use xlink:href="#f1_4" transform="matrix(12,0,0,12,305.5,593.4)" />
<use xlink:href="#f1_s" transform="matrix(12,0,0,12,315.2,593.4)" />
<use xlink:href="#f1_b" transform="matrix(12,0,0,12,327.4,593.4)" />
<use xlink:href="#f1_l" transform="matrix(12,0,0,12,284.3,614.8)" />
<use xlink:href="#f1_i" transform="matrix(12,0,0,12,296.4,614.8)" />
<use xlink:href="#f1_i" transform="matrix(12,0,0,12,300.5,614.8)" />
<use xlink:href="#f1_q" transform="matrix(12,0,0,12,304.6,614.8)" />
<use xlink:href="#f1_g" transform="matrix(12,0,0,12,315,614.8)" />
<use xlink:href="#f1_r" transform="matrix(12,0,0,12,326.9,614.8)" />
<use xlink:href="#f0_7" transform="matrix(10.5,0,0,10.5,137.7,591.4)" />
<use xlink:href="#f0_m" transform="matrix(10.5,0,0,10.5,144.8,591.4)" />
<use xlink:href="#f0_r" transform="matrix(10.5,0,0,10.5,149.3,591.4)" />
<use xlink:href="#f0_9" transform="matrix(10.5,0,0,10.5,161.6,591.4)" />
<use xlink:href="#f0_8" transform="matrix(10.5,0,0,10.5,169.7,591.4)" />
<use xlink:href="#f0_10" transform="matrix(10.5,0,0,10.5,175,591.4)" />
<use xlink:href="#f0_7" transform="matrix(10.5,0,0,10.5,182.1,591.4)" />
<use xlink:href="#f0_8" transform="matrix(10.5,0,0,10.5,189.2,591.4)" />
<use xlink:href="#f1_c" transform="matrix(12,0,0,12,721.1,636.9)" />
<use xlink:href="#f1_6" transform="matrix(12,0,0,12,734.1,636.9)" />
<use xlink:href="#f1_k" transform="matrix(12,0,0,12,739.1,636.9)" />
<use xlink:href="#f1_f" transform="matrix(12,0,0,12,751,636.9)" />
<use xlink:href="#f1_b" transform="matrix(12,0,0,12,761.6,636.9)" />
<use xlink:href="#f0_8" transform="matrix(10.5,0,0,10.5,571.8,634.9)" />
<use xlink:href="#f0_2" transform="matrix(10.5,0,0,10.5,577,634.9)" />
<use xlink:href="#f0_v" transform="matrix(10.5,0,0,10.5,584.2,634.9)" />
<use xlink:href="#f0_9" transform="matrix(10.5,0,0,10.5,592.2,634.9)" />
<use xlink:href="#f0_m" transform="matrix(10.5,0,0,10.5,600.2,634.9)" />
<use xlink:href="#f0_v" transform="matrix(10.5,0,0,10.5,604.7,634.9)" />
<use xlink:href="#f0_2" transform="matrix(10.5,0,0,10.5,612.8,634.9)" />
<use xlink:href="#f0_8" transform="matrix(10.5,0,0,10.5,619.9,634.9)" />
<use xlink:href="#f1_b" transform="matrix(12,0,0,12,502,636.9)" />
<use xlink:href="#f1_r" transform="matrix(12,0,0,12,512.4,636.9)" />
<use xlink:href="#f1_b" transform="matrix(12,0,0,12,523.3,636.9)" />
<use xlink:href="#f1_r" transform="matrix(12,0,0,12,533.7,636.9)" />
<use xlink:href="#f1_b" transform="matrix(12,0,0,12,544.5,636.9)" />
<use xlink:href="#f0_6" transform="matrix(10.5,0,0,10.5,354.8,634.9)" />
<use xlink:href="#f0_9" transform="matrix(10.5,0,0,10.5,360.9,634.9)" />
<use xlink:href="#f0_5" transform="matrix(10.5,0,0,10.5,368.9,634.9)" />
<use xlink:href="#f0_7" transform="matrix(10.5,0,0,10.5,376.9,634.9)" />
<use xlink:href="#f0_8" transform="matrix(10.5,0,0,10.5,384.1,634.9)" />
<use xlink:href="#f1_h" transform="matrix(12,0,0,12,291.2,636.9)" />
<use xlink:href="#f1_6" transform="matrix(12,0,0,12,303.1,636.9)" />
<use xlink:href="#f1_o" transform="matrix(12,0,0,12,308.1,636.9)" />
<use xlink:href="#f1_9" transform="matrix(12,0,0,12,320,636.9)" />
<use xlink:href="#f1_b" transform="matrix(12,0,0,12,327.4,636.9)" />
<use xlink:href="#f0_4" transform="matrix(10.5,0,0,10.5,137.7,634.9)" />
<use xlink:href="#f0_8" transform="matrix(10.5,0,0,10.5,145.7,634.9)" />
<use xlink:href="#f0_9" transform="matrix(10.5,0,0,10.5,150.9,634.9)" />
<use xlink:href="#f0_w" transform="matrix(10.5,0,0,10.5,159,634.9)" />
<use xlink:href="#f0_7" transform="matrix(10.5,0,0,10.5,167,634.9)" />
<use xlink:href="#f0_8" transform="matrix(10.5,0,0,10.5,174.1,634.9)" />
<use xlink:href="#f1_p" transform="matrix(12,0,0,12,732.9,659.1)" />
<use xlink:href="#f1_i" transform="matrix(12,0,0,12,739.1,659.1)" />
<use xlink:href="#f1_p" transform="matrix(12,0,0,12,743.3,659.1)" />
<use xlink:href="#f1_g" transform="matrix(12,0,0,12,749.7,659.1)" />
<use xlink:href="#f1_b" transform="matrix(12,0,0,12,761.6,659.1)" />
<use xlink:href="#f0_r" transform="matrix(10.5,0,0,10.5,571.8,657.1)" />
<use xlink:href="#f0_9" transform="matrix(10.5,0,0,10.5,584.2,657.1)" />
<use xlink:href="#f0_v" transform="matrix(10.5,0,0,10.5,592.3,657.1)" />
<use xlink:href="#f0_2" transform="matrix(10.5,0,0,10.5,600.2,657.1)" />
<use xlink:href="#f0_8" transform="matrix(10.5,0,0,10.5,607.4,657.1)" />
<use xlink:href="#f1_h" transform="matrix(12,0,0,12,492.9,659.1)" />
<use xlink:href="#f1_6" transform="matrix(12,0,0,12,504.9,659.1)" />
<use xlink:href="#f1_s" transform="matrix(12,0,0,12,509.9,659.1)" />
<use xlink:href="#f1_q" transform="matrix(12,0,0,12,522.2,659.1)" />
<use xlink:href="#f1_g" transform="matrix(12,0,0,12,532.5,659.1)" />
<use xlink:href="#f1_b" transform="matrix(12,0,0,12,544.5,659.1)" />
<use xlink:href="#f0_r" transform="matrix(10.5,0,0,10.5,354.8,657.1)" />
<use xlink:href="#f0_9" transform="matrix(10.5,0,0,10.5,367.1,657.1)" />
<use xlink:href="#f0_6" transform="matrix(10.5,0,0,10.5,375.2,657.1)" />
<use xlink:href="#f0_e" transform="matrix(10.5,0,0,10.5,381.4,657.1)" />
<use xlink:href="#f0_8" transform="matrix(10.5,0,0,10.5,385.9,657.1)" />
<use xlink:href="#f0_7" transform="matrix(10.5,0,0,10.5,391.2,657.1)" />
<use xlink:href="#f0_8" transform="matrix(10.5,0,0,10.5,398.4,657.1)" />
<use xlink:href="#f1_q" transform="matrix(12,0,0,12,291.8,659.1)" />
<use xlink:href="#f1_c" transform="matrix(12,0,0,12,302.2,659.1)" />
<use xlink:href="#f1_s" transform="matrix(12,0,0,12,315.2,659.1)" />
<use xlink:href="#f1_b" transform="matrix(12,0,0,12,327.4,659.1)" />
<use xlink:href="#f0_7" transform="matrix(10.5,0,0,10.5,137.7,657.1)" />
<use xlink:href="#f0_4" transform="matrix(10.5,0,0,10.5,144.8,657.1)" />
<use xlink:href="#f0_8" transform="matrix(10.5,0,0,10.5,152.8,657.1)" />
<use xlink:href="#f0_9" transform="matrix(10.5,0,0,10.5,158.1,657.1)" />
<use xlink:href="#f0_w" transform="matrix(10.5,0,0,10.5,166,657.1)" />
<use xlink:href="#f0_7" transform="matrix(10.5,0,0,10.5,174.1,657.1)" />
<use xlink:href="#f0_8" transform="matrix(10.5,0,0,10.5,181.3,657.1)" />
<use xlink:href="#f1_l" transform="matrix(12,0,0,12,690.7,681.2)" />
<use xlink:href="#f1_c" transform="matrix(12,0,0,12,702.9,681.2)" />
<use xlink:href="#f1_n" transform="matrix(12,0,0,12,715.9,681.2)" />
<use xlink:href="#f1_h" transform="matrix(12,0,0,12,729.2,681.2)" />
<use xlink:href="#f1_a" transform="matrix(12,0,0,12,741.2,681.2)" />
<use xlink:href="#f1_q" transform="matrix(12,0,0,12,751.2,681.2)" />
<use xlink:href="#f1_b" transform="matrix(12,0,0,12,761.5,681.2)" />
<use xlink:href="#f0_m" transform="matrix(10.5,0,0,10.5,571.8,679.3)" />
<use xlink:href="#f0_m" transform="matrix(10.5,0,0,10.5,576.3,679.3)" />
<use xlink:href="#f0_9" transform="matrix(10.5,0,0,10.5,580.7,679.3)" />
<use xlink:href="#f0_v" transform="matrix(10.5,0,0,10.5,588.6,679.3)" />
<use xlink:href="#f0_2" transform="matrix(10.5,0,0,10.5,596.7,679.3)" />
<use xlink:href="#f0_8" transform="matrix(10.5,0,0,10.5,603.9,679.3)" />
<use xlink:href="#f1_l" transform="matrix(12,0,0,12,498.7,681.2)" />
<use xlink:href="#f1_i" transform="matrix(12,0,0,12,510.9,681.2)" />
<use xlink:href="#f1_n" transform="matrix(12,0,0,12,515,681.2)" />
<use xlink:href="#f1_a" transform="matrix(12,0,0,12,522.5,681.2)" />
<use xlink:href="#f1_g" transform="matrix(12,0,0,12,532.5,681.2)" />
<use xlink:href="#f1_b" transform="matrix(12,0,0,12,544.4,681.2)" />
<use xlink:href="#f0_p" transform="matrix(10.5,0,0,10.5,354.8,679.3)" />
<use xlink:href="#f0_2" transform="matrix(10.5,0,0,10.5,362.7,679.3)" />
<use xlink:href="#f0_r" transform="matrix(10.5,0,0,10.5,369.9,679.3)" />
<use xlink:href="#f0_9" transform="matrix(10.5,0,0,10.5,382.2,679.3)" />
<use xlink:href="#f0_6" transform="matrix(10.5,0,0,10.5,390.3,679.3)" />
<use xlink:href="#f0_e" transform="matrix(10.5,0,0,10.5,396.6,679.3)" />
<use xlink:href="#f0_8" transform="matrix(10.5,0,0,10.5,401,679.3)" />
<use xlink:href="#f0_7" transform="matrix(10.5,0,0,10.5,406.3,679.3)" />
<use xlink:href="#f0_8" transform="matrix(10.5,0,0,10.5,413.5,679.3)" />
<use xlink:href="#f1_h" transform="matrix(12,0,0,12,288.4,681.2)" />
<use xlink:href="#f1_6" transform="matrix(12,0,0,12,300.5,681.2)" />
<use xlink:href="#f1_b" transform="matrix(12,0,0,12,305.5,681.2)" />
<use xlink:href="#f1_e" transform="matrix(12,0,0,12,315.9,681.2)" />
<use xlink:href="#f1_b" transform="matrix(12,0,0,12,327.4,681.2)" />
<use xlink:href="#f1_v" transform="matrix(12,0,0,12,284.6,702.6)" />
<use xlink:href="#f1_q" transform="matrix(12,0,0,12,291.8,702.6)" />
<use xlink:href="#f1_i" transform="matrix(12,0,0,12,302.2,702.6)" />
<use xlink:href="#f1_k" transform="matrix(12,0,0,12,306.3,702.6)" />
<use xlink:href="#f1_7" transform="matrix(12,0,0,12,318.2,702.6)" />
<use xlink:href="#f1_w" transform="matrix(12,0,0,12,330.6,702.6)" />
<use xlink:href="#f0_y" transform="matrix(10.5,0,0,10.5,137.7,679.3)" />
<use xlink:href="#f0_9" transform="matrix(10.5,0,0,10.5,144.8,679.3)" />
<use xlink:href="#f0_6" transform="matrix(10.5,0,0,10.5,152.8,679.3)" />
<use xlink:href="#f0_e" transform="matrix(10.5,0,0,10.5,159,679.3)" />
<use xlink:href="#f0_7" transform="matrix(10.5,0,0,10.5,163.4,679.3)" />
<use xlink:href="#f0_8" transform="matrix(10.5,0,0,10.5,170.6,679.3)" />
<use xlink:href="#f1_t" transform="matrix(12,0,0,12,726.5,724.8)" />
<use xlink:href="#f1_6" transform="matrix(12,0,0,12,736.2,724.8)" />
<use xlink:href="#f1_c" transform="matrix(12,0,0,12,741.3,724.8)" />
<use xlink:href="#f1_9" transform="matrix(12,0,0,12,754.2,724.8)" />
<use xlink:href="#f1_b" transform="matrix(12,0,0,12,761.6,724.8)" />
<use xlink:href="#f0_r" transform="matrix(10.5,0,0,10.5,571.8,722.8)" />
<use xlink:href="#f0_9" transform="matrix(10.5,0,0,10.5,584.2,722.8)" />
<use xlink:href="#f0_8" transform="matrix(10.5,0,0,10.5,592.3,722.8)" />
<use xlink:href="#f0_p" transform="matrix(10.5,0,0,10.5,597.5,722.8)" />
<use xlink:href="#f0_2" transform="matrix(10.5,0,0,10.5,605.6,722.8)" />
<use xlink:href="#f0_8" transform="matrix(10.5,0,0,10.5,612.8,722.8)" />
<use xlink:href="#f1_h" transform="matrix(12,0,0,12,505.1,724.8)" />
<use xlink:href="#f1_6" transform="matrix(12,0,0,12,517,724.8)" />
<use xlink:href="#f1_b" transform="matrix(12,0,0,12,522,724.8)" />
<use xlink:href="#f1_h" transform="matrix(12,0,0,12,532.4,724.8)" />
<use xlink:href="#f1_b" transform="matrix(12,0,0,12,544.5,724.8)" />
<use xlink:href="#f0_y" transform="matrix(10.5,0,0,10.5,354.8,722.8)" />
<use xlink:href="#f0_9" transform="matrix(10.5,0,0,10.5,361.8,722.8)" />
<use xlink:href="#f0_m" transform="matrix(10.5,0,0,10.5,369.9,722.8)" />
<use xlink:href="#f0_z" transform="matrix(10.5,0,0,10.5,374.3,722.8)" />
<use xlink:href="#f0_7" transform="matrix(10.5,0,0,10.5,382.2,722.8)" />
<use xlink:href="#f0_8" transform="matrix(10.5,0,0,10.5,389.4,722.8)" />
<use xlink:href="#f1_11" transform="matrix(12,0,0,12,284.3,724.8)" />
<use xlink:href="#f1_c" transform="matrix(12,0,0,12,290.4,724.8)" />
<use xlink:href="#f1_6" transform="matrix(12,0,0,12,303.4,724.8)" />
<use xlink:href="#f1_n" transform="matrix(12,0,0,12,308.4,724.8)" />
<use xlink:href="#f1_m" transform="matrix(12,0,0,12,315.9,724.8)" />
<use xlink:href="#f1_b" transform="matrix(12,0,0,12,327.3,724.8)" />
<use xlink:href="#f1_s" transform="matrix(12,0,0,12,286.9,746.2)" />
<use xlink:href="#f1_6" transform="matrix(12,0,0,12,299.1,746.2)" />
<use xlink:href="#f1_r" transform="matrix(12,0,0,12,304.2,746.2)" />
<use xlink:href="#f1_7" transform="matrix(12,0,0,12,315,746.2)" />
<use xlink:href="#f1_b" transform="matrix(12,0,0,12,327.4,746.2)" />
<use xlink:href="#f0_2" transform="matrix(10.5,0,0,10.5,137.7,722.8)" />
<use xlink:href="#f0_5" transform="matrix(10.5,0,0,10.5,144.8,722.8)" />
<use xlink:href="#f0_y" transform="matrix(10.5,0,0,10.5,152.8,722.8)" />
<use xlink:href="#f0_9" transform="matrix(10.5,0,0,10.5,159.9,722.8)" />
<use xlink:href="#f0_5" transform="matrix(10.5,0,0,10.5,167.9,722.8)" />
<use xlink:href="#f0_e" transform="matrix(10.5,0,0,10.5,176,722.8)" />
<use xlink:href="#f0_8" transform="matrix(10.5,0,0,10.5,180.4,722.8)" />
<use xlink:href="#f0_7" transform="matrix(10.5,0,0,10.5,185.7,722.8)" />
<use xlink:href="#f0_8" transform="matrix(10.5,0,0,10.5,192.9,722.8)" />
<use xlink:href="#f1_f" transform="matrix(12,0,0,12,724.2,768.3)" />
<use xlink:href="#f1_6" transform="matrix(12,0,0,12,734.7,768.3)" />
<use xlink:href="#f1_s" transform="matrix(12,0,0,12,739.7,768.3)" />
<use xlink:href="#f1_4" transform="matrix(12,0,0,12,752,768.3)" />
<use xlink:href="#f1_b" transform="matrix(12,0,0,12,761.6,768.3)" />
<use xlink:href="#f0_p" transform="matrix(10.5,0,0,10.5,571.8,766.3)" />
<use xlink:href="#f0_9" transform="matrix(10.5,0,0,10.5,579.8,766.3)" />
<use xlink:href="#f0_m" transform="matrix(10.5,0,0,10.5,587.9,766.3)" />
<use xlink:href="#f0_2" transform="matrix(10.5,0,0,10.5,592.3,766.3)" />
<use xlink:href="#f0_8" transform="matrix(10.5,0,0,10.5,599.5,766.3)" />
<use xlink:href="#f1_a" transform="matrix(12,0,0,12,503.1,768.3)" />
<use xlink:href="#f1_i" transform="matrix(12,0,0,12,513,768.3)" />
<use xlink:href="#f1_q" transform="matrix(12,0,0,12,517.1,768.3)" />
<use xlink:href="#f1_6" transform="matrix(12,0,0,12,527.5,768.3)" />
<use xlink:href="#f1_g" transform="matrix(12,0,0,12,532.5,768.3)" />
<use xlink:href="#f1_b" transform="matrix(12,0,0,12,544.5,768.3)" />
<use xlink:href="#f1_g" transform="matrix(12,0,0,12,499.9,789.7)" />
<use xlink:href="#f1_i" transform="matrix(12,0,0,12,511.8,789.7)" />
<use xlink:href="#f1_i" transform="matrix(12,0,0,12,515.9,789.7)" />
<use xlink:href="#f1_b" transform="matrix(12,0,0,12,520,789.7)" />
<use xlink:href="#f1_h" transform="matrix(12,0,0,12,530.4,789.7)" />
<use xlink:href="#f1_7" transform="matrix(12,0,0,12,542.3,789.7)" />
<use xlink:href="#f0_p" transform="matrix(10.5,0,0,10.5,354.8,766.3)" />
<use xlink:href="#f0_2" transform="matrix(10.5,0,0,10.5,362.7,766.3)" />
<use xlink:href="#f0_6" transform="matrix(10.5,0,0,10.5,369.9,766.3)" />
<use xlink:href="#f0_y" transform="matrix(10.5,0,0,10.5,376,766.3)" />
<use xlink:href="#f0_9" transform="matrix(10.5,0,0,10.5,383.1,766.3)" />
<use xlink:href="#f0_m" transform="matrix(10.5,0,0,10.5,391.2,766.3)" />
<use xlink:href="#f0_z" transform="matrix(10.5,0,0,10.5,395.5,766.3)" />
<use xlink:href="#f0_7" transform="matrix(10.5,0,0,10.5,403.6,766.3)" />
<use xlink:href="#f0_8" transform="matrix(10.5,0,0,10.5,410.8,766.3)" />
<use xlink:href="#f1_k" transform="matrix(12,0,0,12,289.1,768.3)" />
<use xlink:href="#f1_i" transform="matrix(12,0,0,12,301,768.3)" />
<use xlink:href="#f1_q" transform="matrix(12,0,0,12,305.1,768.3)" />
<use xlink:href="#f1_g" transform="matrix(12,0,0,12,315.5,768.3)" />
<use xlink:href="#f1_b" transform="matrix(12,0,0,12,327.4,768.3)" />
<use xlink:href="#f0_9" transform="matrix(10.5,0,0,10.5,137.7,766.3)" />
<use xlink:href="#f0_m" transform="matrix(10.5,0,0,10.5,145.7,766.3)" />
<use xlink:href="#f0_2" transform="matrix(10.5,0,0,10.5,150.2,766.3)" />
<use xlink:href="#f0_8" transform="matrix(10.5,0,0,10.5,157.3,766.3)" />
<use xlink:href="#f1_b" transform="matrix(12,0,0,12,721.9,830.3)" />
<use xlink:href="#f1_e" transform="matrix(12,0,0,12,732.2,830.3)" />
<use xlink:href="#f1_6" transform="matrix(12,0,0,12,743.7,830.3)" />
<use xlink:href="#f1_m" transform="matrix(12,0,0,12,748.7,830.3)" />
<use xlink:href="#f1_g" transform="matrix(12,0,0,12,760.2,830.3)" />
<use xlink:href="#f0_9" transform="matrix(10.5,0,0,10.5,690.6,830.3)" />
<use xlink:href="#f0_m" transform="matrix(10.5,0,0,10.5,698.6,830.3)" />
<use xlink:href="#f0_2" transform="matrix(10.5,0,0,10.5,703.1,830.3)" />
<use xlink:href="#f0_8" transform="matrix(10.5,0,0,10.5,710.2,830.3)" />
<use xlink:href="#f1_h" transform="matrix(12,0,0,12,247.5,830.3)" />
<use xlink:href="#f1_6" transform="matrix(12,0,0,12,259.5,830.3)" />
<use xlink:href="#f1_s" transform="matrix(12,0,0,12,264.5,830.3)" />
<use xlink:href="#f1_g" transform="matrix(12,0,0,12,276.8,830.3)" />
<use xlink:href="#f1_6" transform="matrix(12,0,0,12,294.6,830.3)" />
<use xlink:href="#f1_h" transform="matrix(12,0,0,12,299.7,830.3)" />
<use xlink:href="#f1_b" transform="matrix(12,0,0,12,311.7,830.3)" />
<use xlink:href="#f1_i" transform="matrix(12,0,0,12,322.1,830.3)" />
<use xlink:href="#f1_k" transform="matrix(12,0,0,12,326.2,830.3)" />
<use xlink:href="#f1_h" transform="matrix(12,0,0,12,338.1,830.3)" />
<use xlink:href="#f1_b" transform="matrix(12,0,0,12,350.2,830.3)" />
<use xlink:href="#f1_h" transform="matrix(12,0,0,12,366.6,830.3)" />
<use xlink:href="#f1_m" transform="matrix(12,0,0,12,378.7,830.3)" />
<use xlink:href="#f1_o" transform="matrix(12,0,0,12,390.1,830.3)" />
<use xlink:href="#f1_6" transform="matrix(12,0,0,12,401.9,830.3)" />
<use xlink:href="#f1_6" transform="matrix(12,0,0,12,406.9,830.3)" />
<use xlink:href="#f1_h" transform="matrix(12,0,0,12,411.9,830.3)" />
<use xlink:href="#f1_7" transform="matrix(12,0,0,12,423.8,830.3)" />
<use xlink:href="#f1_t" transform="matrix(12,0,0,12,442.5,830.3)" />
<use xlink:href="#f1_s" transform="matrix(12,0,0,12,452.2,830.3)" />
<use xlink:href="#f1_2" transform="matrix(12,0,0,12,470.7,830.3)" />
<use xlink:href="#f1_b" transform="matrix(12,0,0,12,476.5,830.3)" />
<use xlink:href="#f1_b" transform="matrix(12,0,0,12,486.9,830.3)" />
<use xlink:href="#f1_4" transform="matrix(12,0,0,12,497.3,830.3)" />
<use xlink:href="#f1_g" transform="matrix(12,0,0,12,506.9,830.3)" />
<use xlink:href="#f1_i" transform="matrix(12,0,0,12,524.9,830.3)" />
<use xlink:href="#f1_m" transform="matrix(12,0,0,12,529,830.3)" />
<use xlink:href="#f1_b" transform="matrix(12,0,0,12,540.5,830.3)" />
<use xlink:href="#f1_n" transform="matrix(12,0,0,12,557.1,830.3)" />
<use xlink:href="#f1_g" transform="matrix(12,0,0,12,564.6,830.3)" />
<use xlink:href="#f1_9" transform="matrix(12,0,0,12,576.5,830.3)" />
<use xlink:href="#f1_h" transform="matrix(12,0,0,12,583.7,830.3)" />
<use xlink:href="#f1_7" transform="matrix(12,0,0,12,595.7,830.3)" />
<use xlink:href="#f1_2" transform="matrix(12,0,0,12,614.3,830.3)" />
<use xlink:href="#f1_k" transform="matrix(12,0,0,12,620.1,830.3)" />
<use xlink:href="#f1_i" transform="matrix(12,0,0,12,632,830.3)" />
<use xlink:href="#f1_q" transform="matrix(12,0,0,12,636.1,830.3)" />
<use xlink:href="#f1_g" transform="matrix(12,0,0,12,646.5,830.3)" />
<use xlink:href="#f1_b" transform="matrix(12,0,0,12,658.4,830.3)" />
<use xlink:href="#f1_u" transform="matrix(12,0,0,12,674.9,830.3)" />
<use xlink:href="#f0_11" transform="matrix(10.5,0,0,10.5,232.7,830.3)" />
<use xlink:href="#f1_l" transform="matrix(12,0,0,12,137.7,830.3)" />
<use xlink:href="#f1_i" transform="matrix(12,0,0,12,149.9,830.3)" />
<use xlink:href="#f1_m" transform="matrix(12,0,0,12,154,830.3)" />
<use xlink:href="#f1_6" transform="matrix(12,0,0,12,165.4,830.3)" />
<use xlink:href="#f1_n" transform="matrix(12,0,0,12,170.4,830.3)" />
<use xlink:href="#f1_g" transform="matrix(12,0,0,12,177.9,830.3)" />
<use xlink:href="#f1_b" transform="matrix(12,0,0,12,196.1,830.3)" />
<use xlink:href="#f1_4" transform="matrix(12,0,0,12,206.5,830.3)" />
<use xlink:href="#f1_f" transform="matrix(12,0,0,12,216.1,830.3)" />
<use xlink:href="#f1_d" transform="matrix(12,0,0,12,726,851.7)" />
<use xlink:href="#f1_e" transform="matrix(12,0,0,12,737.9,851.7)" />
<use xlink:href="#f1_7" transform="matrix(12,0,0,12,749.4,851.7)" />
<use xlink:href="#f1_b" transform="matrix(12,0,0,12,761.7,851.7)" />
<use xlink:href="#f0_5" transform="matrix(10.5,0,0,10.5,647.6,851.7)" />
<use xlink:href="#f0_9" transform="matrix(10.5,0,0,10.5,655.7,851.7)" />
<use xlink:href="#f0_6" transform="matrix(10.5,0,0,10.5,663.7,851.7)" />
<use xlink:href="#f0_9" transform="matrix(10.5,0,0,10.5,669.9,851.7)" />
<use xlink:href="#f0_e" transform="matrix(10.5,0,0,10.5,678,851.7)" />
<use xlink:href="#f0_8" transform="matrix(10.5,0,0,10.5,682.4,851.7)" />
<use xlink:href="#f0_9" transform="matrix(10.5,0,0,10.5,687.6,851.7)" />
<use xlink:href="#f0_6" transform="matrix(10.5,0,0,10.5,695.7,851.7)" />
<use xlink:href="#f0_n" transform="matrix(10.5,0,0,10.5,701.9,851.7)" />
<use xlink:href="#f0_7" transform="matrix(10.5,0,0,10.5,706.4,851.7)" />
<use xlink:href="#f0_6" transform="matrix(10.5,0,0,10.5,713.5,851.7)" />
<use xlink:href="#f1_6" transform="matrix(12,0,0,12,636.9,851.7)" />
<use xlink:href="#f0_v" transform="matrix(10.5,0,0,10.5,558.9,851.7)" />
<use xlink:href="#f0_9" transform="matrix(10.5,0,0,10.5,566.8,851.7)" />
<use xlink:href="#f0_6" transform="matrix(10.5,0,0,10.5,574.9,851.7)" />
<use xlink:href="#f0_9" transform="matrix(10.5,0,0,10.5,581,851.7)" />
<use xlink:href="#f0_e" transform="matrix(10.5,0,0,10.5,589.1,851.7)" />
<use xlink:href="#f0_8" transform="matrix(10.5,0,0,10.5,593.5,851.7)" />
<use xlink:href="#f0_9" transform="matrix(10.5,0,0,10.5,598.9,851.7)" />
<use xlink:href="#f0_6" transform="matrix(10.5,0,0,10.5,606.9,851.7)" />
<use xlink:href="#f0_n" transform="matrix(10.5,0,0,10.5,613.2,851.7)" />
<use xlink:href="#f0_7" transform="matrix(10.5,0,0,10.5,617.5,851.7)" />
<use xlink:href="#f0_6" transform="matrix(10.5,0,0,10.5,624.6,851.7)" />
<use xlink:href="#f1_k" transform="matrix(12,0,0,12,478.7,851.7)" />
<use xlink:href="#f1_i" transform="matrix(12,0,0,12,490.6,851.7)" />
<use xlink:href="#f1_q" transform="matrix(12,0,0,12,494.7,851.7)" />
<use xlink:href="#f1_7" transform="matrix(12,0,0,12,504.9,851.7)" />
<use xlink:href="#f1_i" transform="matrix(12,0,0,12,523.4,851.7)" />
<use xlink:href="#f1_9" transform="matrix(12,0,0,12,527.5,851.7)" />
<use xlink:href="#f1_s" transform="matrix(12,0,0,12,534.8,851.7)" />
<use xlink:href="#f1_13" transform="matrix(12,0,0,12,552.8,851.7)" />
<use xlink:href="#f0_11" transform="matrix(10.5,0,0,10.5,436.9,851.7)" />
<use xlink:href="#f0_g" transform="matrix(10.5,0,0,10.5,444.9,851.7)" />
<use xlink:href="#f0_2" transform="matrix(10.5,0,0,10.5,453,851.7)" />
<use xlink:href="#f0_m" transform="matrix(10.5,0,0,10.5,460.1,851.7)" />
<use xlink:href="#f0_9" transform="matrix(10.5,0,0,10.5,464.4,851.7)" />
<use xlink:href="#f1_k" transform="matrix(12,0,0,12,344.5,851.7)" />
<use xlink:href="#f1_i" transform="matrix(12,0,0,12,356.4,851.7)" />
<use xlink:href="#f1_q" transform="matrix(12,0,0,12,360.5,851.7)" />
<use xlink:href="#f1_7" transform="matrix(12,0,0,12,370.8,851.7)" />
<use xlink:href="#f1_g" transform="matrix(12,0,0,12,389.2,851.7)" />
<use xlink:href="#f1_h" transform="matrix(12,0,0,12,401.1,851.7)" />
<use xlink:href="#f1_s" transform="matrix(12,0,0,12,413.2,851.7)" />
<use xlink:href="#f1_2" transform="matrix(12,0,0,12,431.2,851.7)" />
<use xlink:href="#f0_11" transform="matrix(10.5,0,0,10.5,297.5,851.7)" />
<use xlink:href="#f0_g" transform="matrix(10.5,0,0,10.5,305.5,851.7)" />
<use xlink:href="#f0_2" transform="matrix(10.5,0,0,10.5,313.5,851.7)" />
<use xlink:href="#f0_m" transform="matrix(10.5,0,0,10.5,320.7,851.7)" />
<use xlink:href="#f0_2" transform="matrix(10.5,0,0,10.5,325.1,851.7)" />
<use xlink:href="#f0_6" transform="matrix(10.5,0,0,10.5,332.1,851.7)" />
<use xlink:href="#f1_l" transform="matrix(12,0,0,12,200.3,851.7)" />
<use xlink:href="#f1_i" transform="matrix(12,0,0,12,212.5,851.7)" />
<use xlink:href="#f1_k" transform="matrix(12,0,0,12,216.6,851.7)" />
<use xlink:href="#f1_i" transform="matrix(12,0,0,12,228.5,851.7)" />
<use xlink:href="#f1_q" transform="matrix(12,0,0,12,232.6,851.7)" />
<use xlink:href="#f1_7" transform="matrix(12,0,0,12,242.9,851.7)" />
<use xlink:href="#f1_6" transform="matrix(12,0,0,12,261.2,851.7)" />
<use xlink:href="#f1_9" transform="matrix(12,0,0,12,266.2,851.7)" />
<use xlink:href="#f1_s" transform="matrix(12,0,0,12,273.5,851.7)" />
<use xlink:href="#f1_2" transform="matrix(12,0,0,12,291.7,851.7)" />
<use xlink:href="#f0_9" transform="matrix(10.5,0,0,10.5,148,851.7)" />
<use xlink:href="#f0_m" transform="matrix(10.5,0,0,10.5,156.1,851.7)" />
<use xlink:href="#f0_2" transform="matrix(10.5,0,0,10.5,160.6,851.7)" />
<use xlink:href="#f0_r" transform="matrix(10.5,0,0,10.5,167.6,851.7)" />
<use xlink:href="#f0_9" transform="matrix(10.5,0,0,10.5,180.1,851.7)" />
<use xlink:href="#f0_6" transform="matrix(10.5,0,0,10.5,188.2,851.7)" />
<use xlink:href="#f1_8" transform="matrix(12,0,0,12,142.4,851.7)" />
<use xlink:href="#f1_g" transform="matrix(12,0,0,12,558.1,891.6)" />
<use xlink:href="#f1_q" transform="matrix(12,0,0,12,570,891.6)" />
<use xlink:href="#f1_6" transform="matrix(12,0,0,12,580.4,891.6)" />
<use xlink:href="#f1_s" transform="matrix(12,0,0,12,585.4,891.6)" />
<use xlink:href="#f1_4" transform="matrix(12,0,0,12,597.6,891.6)" />
<use xlink:href="#f1_b" transform="matrix(12,0,0,12,607.3,891.6)" />
<use xlink:href="#f1_6" transform="matrix(12,0,0,12,623.7,891.6)" />
<use xlink:href="#f1_p" transform="matrix(12,0,0,12,628.7,891.6)" />
<use xlink:href="#f1_g" transform="matrix(12,0,0,12,641.2,891.6)" />
<use xlink:href="#f1_7" transform="matrix(12,0,0,12,653.1,891.6)" />
<use xlink:href="#f1_i" transform="matrix(12,0,0,12,665.6,891.6)" />
<use xlink:href="#f1_c" transform="matrix(12,0,0,12,669.8,891.6)" />
<use xlink:href="#f1_q" transform="matrix(12,0,0,12,682.7,891.6)" />
<use xlink:href="#f1_f" transform="matrix(12,0,0,12,693.1,891.6)" />
<use xlink:href="#f1_2" transform="matrix(12,0,0,12,709.9,891.6)" />
<use xlink:href="#f1_f" transform="matrix(12,0,0,12,715.7,891.6)" />
<use xlink:href="#f1_b" transform="matrix(12,0,0,12,726.2,891.6)" />
<use xlink:href="#f1_l" transform="matrix(12,0,0,12,742.7,891.6)" />
<use xlink:href="#f1_i" transform="matrix(12,0,0,12,754.7,891.6)" />
<use xlink:href="#f1_c" transform="matrix(12,0,0,12,758.9,891.6)" />
<use xlink:href="#f1_14" transform="matrix(12,0,0,12,528,891.6)" />
<use xlink:href="#f1_1i" transform="matrix(12,0,0,12,539.6,891.6)" />
<use xlink:href="#f1_l" transform="matrix(12,0,0,12,138.1,891.6)" />
<use xlink:href="#f1_7" transform="matrix(12,0,0,12,150.3,891.6)" />
<use xlink:href="#f1_r" transform="matrix(12,0,0,12,162.7,891.6)" />
<use xlink:href="#f1_e" transform="matrix(12,0,0,12,173.5,891.6)" />
<use xlink:href="#f1_3" transform="matrix(12,0,0,12,191.2,891.6)" />
<use xlink:href="#f1_i" transform="matrix(12,0,0,12,196.3,891.6)" />
<use xlink:href="#f1_f" transform="matrix(12,0,0,12,200.4,891.6)" />
<use xlink:href="#f1_b" transform="matrix(12,0,0,12,210.9,891.6)" />
<use xlink:href="#f1_l" transform="matrix(12,0,0,12,227.4,891.6)" />
<use xlink:href="#f1_9" transform="matrix(12,0,0,12,239.6,891.6)" />
<use xlink:href="#f1_i" transform="matrix(12,0,0,12,246.9,891.6)" />
<use xlink:href="#f1_f" transform="matrix(12,0,0,12,251,891.6)" />
<use xlink:href="#f1_l" transform="matrix(12,0,0,12,267.6,891.6)" />
<use xlink:href="#f1_i" transform="matrix(12,0,0,12,279.8,891.6)" />
<use xlink:href="#f1_q" transform="matrix(12,0,0,12,283.8,891.6)" />
<use xlink:href="#f1_6" transform="matrix(12,0,0,12,294.2,891.6)" />
<use xlink:href="#f1_c" transform="matrix(12,0,0,12,299.2,891.6)" />
<use xlink:href="#f1_j" transform="matrix(12,0,0,12,312.2,891.6)" />
<use xlink:href="#f1_l" transform="matrix(12,0,0,12,331.3,891.6)" />
<use xlink:href="#f1_i" transform="matrix(12,0,0,12,343.5,891.6)" />
<use xlink:href="#f1_i" transform="matrix(12,0,0,12,347.6,891.6)" />
<use xlink:href="#f1_r" transform="matrix(12,0,0,12,351.7,891.6)" />
<use xlink:href="#f1_k" transform="matrix(12,0,0,12,362.5,891.6)" />
<use xlink:href="#f1_t" transform="matrix(12,0,0,12,380.7,891.6)" />
<use xlink:href="#f1_s" transform="matrix(12,0,0,12,390.5,891.6)" />
<use xlink:href="#f1_8" transform="matrix(12,0,0,12,408.7,891.6)" />
<use xlink:href="#f1_l" transform="matrix(12,0,0,12,414.6,891.6)" />
<use xlink:href="#f1_i" transform="matrix(12,0,0,12,426.8,891.6)" />
<use xlink:href="#f1_c" transform="matrix(12,0,0,12,430.9,891.6)" />
<use xlink:href="#f1_a" transform="matrix(12,0,0,12,443.9,891.6)" />
<use xlink:href="#f1_k" transform="matrix(12,0,0,12,453.9,891.6)" />
<use xlink:href="#f1_l" transform="matrix(12,0,0,12,471.9,891.6)" />
<use xlink:href="#f1_i" transform="matrix(12,0,0,12,484.1,891.6)" />
<use xlink:href="#f1_b" transform="matrix(12,0,0,12,488.2,891.6)" />
<use xlink:href="#f1_e" transform="matrix(12,0,0,12,498.6,891.6)" />
<use xlink:href="#f1_m" transform="matrix(12,0,0,12,510.1,891.6)" />
<use xlink:href="#f1_8" transform="matrix(12,0,0,12,549.2,913)" />
<use xlink:href="#f1_q" transform="matrix(12,0,0,12,555,913)" />
<use xlink:href="#f1_i" transform="matrix(12,0,0,12,565.4,913)" />
<use xlink:href="#f1_4" transform="matrix(12,0,0,12,569.5,913)" />
<use xlink:href="#f1_7" transform="matrix(12,0,0,12,579.2,913)" />
<use xlink:href="#f1_q" transform="matrix(12,0,0,12,597.5,913)" />
<use xlink:href="#f1_f" transform="matrix(12,0,0,12,607.8,913)" />
<use xlink:href="#f1_4" transform="matrix(12,0,0,12,618.4,913)" />
<use xlink:href="#f1_g" transform="matrix(12,0,0,12,634,913)" />
<use xlink:href="#f1_h" transform="matrix(12,0,0,12,645.9,913)" />
<use xlink:href="#f1_s" transform="matrix(12,0,0,12,657.9,913)" />
<use xlink:href="#f1_c" transform="matrix(12,0,0,12,670.1,913)" />
<use xlink:href="#f1_l" transform="matrix(12,0,0,12,688.9,913)" />
<use xlink:href="#f1_i" transform="matrix(12,0,0,12,701.1,913)" />
<use xlink:href="#f1_b" transform="matrix(12,0,0,12,705.3,913)" />
<use xlink:href="#f1_e" transform="matrix(12,0,0,12,715.6,913)" />
<use xlink:href="#f1_m" transform="matrix(12,0,0,12,727.1,913)" />
<use xlink:href="#f1_b" transform="matrix(12,0,0,12,738.5,913)" />
<use xlink:href="#f1_6" transform="matrix(12,0,0,12,754.8,913)" />
<use xlink:href="#f1_s" transform="matrix(12,0,0,12,759.8,913)" />
</g>
</g>
<path d="M128.6,937.1H545M128.6,959.2H545m-416.4,43.6H545m-416.4,43.5H545m-416.4,43.5H545m-416.4,65H545M128.9,936.7v218.5M215.6,936.7v218.5M327.7,936.7v218.5m217,-218.5v218.5" class="g1_8" />
<g clip-path="url(#c0_8)">
<g fill="#000000" >
<use xlink:href="#f1_3" transform="matrix(12,0,0,12,491,954.6)" />
<use xlink:href="#f1_6" transform="matrix(12,0,0,12,496.1,954.6)" />
<use xlink:href="#f1_i" transform="matrix(12,0,0,12,501.1,954.6)" />
<use xlink:href="#f1_n" transform="matrix(12,0,0,12,505.2,954.6)" />
<use xlink:href="#f1_g" transform="matrix(12,0,0,12,512.7,954.6)" />
<use xlink:href="#f1_g" transform="matrix(12,0,0,12,524.6,954.6)" />
<use xlink:href="#f1_3" transform="matrix(12,0,0,12,229.6,954.6)" />
<use xlink:href="#f1_6" transform="matrix(12,0,0,12,234.6,954.6)" />
<use xlink:href="#f1_c" transform="matrix(12,0,0,12,239.7,954.6)" />
<use xlink:href="#f1_s" transform="matrix(12,0,0,12,252.7,954.6)" />
<use xlink:href="#f1_q" transform="matrix(12,0,0,12,264.9,954.6)" />
<use xlink:href="#f1_b" transform="matrix(12,0,0,12,281.1,954.6)" />
<use xlink:href="#f1_e" transform="matrix(12,0,0,12,291.5,954.6)" />
<use xlink:href="#f1_6" transform="matrix(12,0,0,12,302.9,954.6)" />
<use xlink:href="#f1_m" transform="matrix(12,0,0,12,307.9,954.6)" />
<use xlink:href="#f1_i" transform="matrix(12,0,0,12,138.7,954.6)" />
<use xlink:href="#f1_9" transform="matrix(12,0,0,12,142.8,954.6)" />
<use xlink:href="#f1_c" transform="matrix(12,0,0,12,150.2,954.6)" />
<use xlink:href="#f1_b" transform="matrix(12,0,0,12,169,954.6)" />
<use xlink:href="#f1_e" transform="matrix(12,0,0,12,179.3,954.6)" />
<use xlink:href="#f1_6" transform="matrix(12,0,0,12,190.8,954.6)" />
<use xlink:href="#f1_m" transform="matrix(12,0,0,12,195.8,954.6)" />
<use xlink:href="#f1_2" transform="matrix(12,0,0,12,336.4,976.7)" />
<use xlink:href="#f1_18" transform="matrix(12,0,0,12,342.2,976.7)" />
<use xlink:href="#f1_l" transform="matrix(12,0,0,12,350.6,976.7)" />
<use xlink:href="#f1_i" transform="matrix(12,0,0,12,362.8,976.7)" />
<use xlink:href="#f1_o" transform="matrix(12,0,0,12,366.9,976.7)" />
<use xlink:href="#f1_9" transform="matrix(12,0,0,12,378.8,976.7)" />
<use xlink:href="#f1_7" transform="matrix(12,0,0,12,386.2,976.7)" />
<use xlink:href="#f1_18" transform="matrix(12,0,0,12,398.5,976.7)" />
<use xlink:href="#f1_c" transform="matrix(12,0,0,12,406.9,976.7)" />
<use xlink:href="#f1_i" transform="matrix(12,0,0,12,497.8,976.7)" />
<use xlink:href="#f1_q" transform="matrix(12,0,0,12,501.9,976.7)" />
<use xlink:href="#f1_k" transform="matrix(12,0,0,12,512.3,976.7)" />
<use xlink:href="#f1_s" transform="matrix(12,0,0,12,524.2,976.7)" />
<use xlink:href="#f1_8" transform="matrix(12,0,0,12,449.6,998.1)" />
<use xlink:href="#f1_18" transform="matrix(12,0,0,12,455.4,998.1)" />
<use xlink:href="#f1_l" transform="matrix(12,0,0,12,463.8,998.1)" />
<use xlink:href="#f1_i" transform="matrix(12,0,0,12,476,998.1)" />
<use xlink:href="#f1_q" transform="matrix(12,0,0,12,480.1,998.1)" />
<use xlink:href="#f1_c" transform="matrix(12,0,0,12,490.5,998.1)" />
<use xlink:href="#f1_s" transform="matrix(12,0,0,12,503.5,998.1)" />
<use xlink:href="#f1_7" transform="matrix(12,0,0,12,515.7,998.1)" />
<use xlink:href="#f1_18" transform="matrix(12,0,0,12,528.1,998.1)" />
<use xlink:href="#f0_4" transform="matrix(10.5,0,0,10.5,224.3,974.6)" />
<use xlink:href="#f0_8" transform="matrix(10.5,0,0,10.5,232.4,974.6)" />
<use xlink:href="#f0_9" transform="matrix(10.5,0,0,10.5,237.6,974.6)" />
<use xlink:href="#f0_w" transform="matrix(10.5,0,0,10.5,245.6,974.6)" />
<use xlink:href="#f0_7" transform="matrix(10.5,0,0,10.5,253.6,974.6)" />
<use xlink:href="#f0_8" transform="matrix(10.5,0,0,10.5,260.8,974.6)" />
<use xlink:href="#f0_7" transform="matrix(10.5,0,0,10.5,137.7,974.6)" />
<use xlink:href="#f0_4" transform="matrix(10.5,0,0,10.5,144.8,974.6)" />
<use xlink:href="#f0_8" transform="matrix(10.5,0,0,10.5,152.8,974.6)" />
<use xlink:href="#f0_9" transform="matrix(10.5,0,0,10.5,158.1,974.6)" />
<use xlink:href="#f0_w" transform="matrix(10.5,0,0,10.5,166,974.6)" />
<use xlink:href="#f0_7" transform="matrix(10.5,0,0,10.5,174.1,974.6)" />
<use xlink:href="#f0_8" transform="matrix(10.5,0,0,10.5,181.3,974.6)" />
<use xlink:href="#f1_g" transform="matrix(12,0,0,12,336.4,1020.3)" />
<use xlink:href="#f1_7" transform="matrix(12,0,0,12,348.3,1020.3)" />
<use xlink:href="#f1_6" transform="matrix(12,0,0,12,360.7,1020.3)" />
<use xlink:href="#f1_a" transform="matrix(12,0,0,12,365.7,1020.3)" />
<use xlink:href="#f1_18" transform="matrix(12,0,0,12,463.5,1020.3)" />
<use xlink:href="#f1_l" transform="matrix(12,0,0,12,471.9,1020.3)" />
<use xlink:href="#f1_i" transform="matrix(12,0,0,12,484.1,1020.3)" />
<use xlink:href="#f1_n" transform="matrix(12,0,0,12,488.2,1020.3)" />
<use xlink:href="#f1_a" transform="matrix(12,0,0,12,495.7,1020.3)" />
<use xlink:href="#f1_g" transform="matrix(12,0,0,12,505.7,1020.3)" />
<use xlink:href="#f1_b" transform="matrix(12,0,0,12,517.6,1020.3)" />
<use xlink:href="#f1_18" transform="matrix(12,0,0,12,528,1020.3)" />
<use xlink:href="#f1_8" transform="matrix(12,0,0,12,441.5,1041.6)" />
<use xlink:href="#f1_18" transform="matrix(12,0,0,12,447.3,1041.6)" />
<use xlink:href="#f1_h" transform="matrix(12,0,0,12,455.7,1041.6)" />
<use xlink:href="#f1_6" transform="matrix(12,0,0,12,467.8,1041.6)" />
<use xlink:href="#f1_s" transform="matrix(12,0,0,12,472.8,1041.6)" />
<use xlink:href="#f1_q" transform="matrix(12,0,0,12,485,1041.6)" />
<use xlink:href="#f1_g" transform="matrix(12,0,0,12,495.4,1041.6)" />
<use xlink:href="#f1_b" transform="matrix(12,0,0,12,507.3,1041.6)" />
<use xlink:href="#f1_18" transform="matrix(12,0,0,12,517.7,1041.6)" />
<use xlink:href="#f1_b" transform="matrix(12,0,0,12,526.1,1041.6)" />
<use xlink:href="#f0_r" transform="matrix(10.5,0,0,10.5,224.3,1018.1)" />
<use xlink:href="#f0_9" transform="matrix(10.5,0,0,10.5,236.8,1018.1)" />
<use xlink:href="#f0_6" transform="matrix(10.5,0,0,10.5,244.7,1018.1)" />
<use xlink:href="#f0_e" transform="matrix(10.5,0,0,10.5,251,1018.1)" />
<use xlink:href="#f0_8" transform="matrix(10.5,0,0,10.5,255.4,1018.1)" />
<use xlink:href="#f0_7" transform="matrix(10.5,0,0,10.5,260.7,1018.1)" />
<use xlink:href="#f0_8" transform="matrix(10.5,0,0,10.5,267.9,1018.1)" />
<use xlink:href="#f0_p" transform="matrix(10.5,0,0,10.5,137.7,1018.1)" />
<use xlink:href="#f0_2" transform="matrix(10.5,0,0,10.5,145.7,1018.1)" />
<use xlink:href="#f0_r" transform="matrix(10.5,0,0,10.5,152.8,1018.1)" />
<use xlink:href="#f0_9" transform="matrix(10.5,0,0,10.5,165.3,1018.1)" />
<use xlink:href="#f0_6" transform="matrix(10.5,0,0,10.5,173.2,1018.1)" />
<use xlink:href="#f0_e" transform="matrix(10.5,0,0,10.5,179.5,1018.1)" />
<use xlink:href="#f0_8" transform="matrix(10.5,0,0,10.5,183.9,1018.1)" />
<use xlink:href="#f0_7" transform="matrix(10.5,0,0,10.5,189.2,1018.1)" />
<use xlink:href="#f0_8" transform="matrix(10.5,0,0,10.5,196.4,1018.1)" />
<use xlink:href="#f1_g" transform="matrix(12,0,0,12,377.7,1063.8)" />
<use xlink:href="#f1_p" transform="matrix(12,0,0,12,389.6,1063.8)" />
<use xlink:href="#f1_g" transform="matrix(12,0,0,12,412.9,1063.8)" />
<use xlink:href="#f1_i" transform="matrix(12,0,0,12,424.8,1063.8)" />
<use xlink:href="#f1_i" transform="matrix(12,0,0,12,428.8,1063.8)" />
<use xlink:href="#f1_b" transform="matrix(12,0,0,12,432.9,1063.8)" />
<use xlink:href="#f1_h" transform="matrix(12,0,0,12,443.3,1063.8)" />
<use xlink:href="#f1_7" transform="matrix(12,0,0,12,455.4,1063.8)" />
<use xlink:href="#f1_a" transform="matrix(12,0,0,12,484.6,1063.8)" />
<use xlink:href="#f1_i" transform="matrix(12,0,0,12,494.6,1063.8)" />
<use xlink:href="#f1_q" transform="matrix(12,0,0,12,498.7,1063.8)" />
<use xlink:href="#f1_6" transform="matrix(12,0,0,12,509.1,1063.8)" />
<use xlink:href="#f1_g" transform="matrix(12,0,0,12,514.1,1063.8)" />
<use xlink:href="#f1_b" transform="matrix(12,0,0,12,526,1063.8)" />
<use xlink:href="#f2_i" transform="matrix(12,0,0,12,336.3,1063.8)" />
<use xlink:href="#f2_a" transform="matrix(12,0,0,12,349.6,1063.8)" />
<use xlink:href="#f1_6" transform="matrix(12,0,0,12,457.7,1085.2)" />
<use xlink:href="#f1_s" transform="matrix(12,0,0,12,462.8,1085.2)" />
<use xlink:href="#f1_2" transform="matrix(12,0,0,12,480.9,1085.2)" />
<use xlink:href="#f1_h" transform="matrix(12,0,0,12,486.7,1085.2)" />
<use xlink:href="#f1_6" transform="matrix(12,0,0,12,498.6,1085.2)" />
<use xlink:href="#f1_b" transform="matrix(12,0,0,12,503.7,1085.2)" />
<use xlink:href="#f1_h" transform="matrix(12,0,0,12,514.1,1085.2)" />
<use xlink:href="#f1_b" transform="matrix(12,0,0,12,526.1,1085.2)" />
<use xlink:href="#f3_18" transform="matrix(10.5,0,0,10.5,429.5,1085.2)" />
<use xlink:href="#f3_j" transform="matrix(10.5,0,0,10.5,438.3,1085.2)" />
<use xlink:href="#f3_x" transform="matrix(10.5,0,0,10.5,445.5,1085.2)" />
<use xlink:href="#f1_8" transform="matrix(12,0,0,12,374,1085.2)" />
<use xlink:href="#f1_h" transform="matrix(12,0,0,12,379.8,1085.2)" />
<use xlink:href="#f1_6" transform="matrix(12,0,0,12,391.7,1085.2)" />
<use xlink:href="#f1_b" transform="matrix(12,0,0,12,396.8,1085.2)" />
<use xlink:href="#f1_h" transform="matrix(12,0,0,12,407.1,1085.2)" />
<use xlink:href="#f1_b" transform="matrix(12,0,0,12,419.2,1085.2)" />
<use xlink:href="#f0_y" transform="matrix(10.5,0,0,10.5,224.3,1061.7)" />
<use xlink:href="#f0_9" transform="matrix(10.5,0,0,10.5,231.4,1061.7)" />
<use xlink:href="#f0_m" transform="matrix(10.5,0,0,10.5,239.5,1061.7)" />
<use xlink:href="#f0_z" transform="matrix(10.5,0,0,10.5,243.8,1061.7)" />
<use xlink:href="#f0_7" transform="matrix(10.5,0,0,10.5,251.9,1061.7)" />
<use xlink:href="#f0_8" transform="matrix(10.5,0,0,10.5,259.1,1061.7)" />
<use xlink:href="#f0_p" transform="matrix(10.5,0,0,10.5,137.7,1061.7)" />
<use xlink:href="#f0_2" transform="matrix(10.5,0,0,10.5,145.7,1061.7)" />
<use xlink:href="#f0_6" transform="matrix(10.5,0,0,10.5,152.8,1061.7)" />
<use xlink:href="#f0_y" transform="matrix(10.5,0,0,10.5,159,1061.7)" />
<use xlink:href="#f0_9" transform="matrix(10.5,0,0,10.5,166,1061.7)" />
<use xlink:href="#f0_m" transform="matrix(10.5,0,0,10.5,174.1,1061.7)" />
<use xlink:href="#f0_z" transform="matrix(10.5,0,0,10.5,178.5,1061.7)" />
<use xlink:href="#f0_7" transform="matrix(10.5,0,0,10.5,186.6,1061.7)" />
<use xlink:href="#f0_8" transform="matrix(10.5,0,0,10.5,193.8,1061.7)" />
<use xlink:href="#f1_l" transform="matrix(12,0,0,12,336.6,1107.3)" />
<use xlink:href="#f1_e" transform="matrix(12,0,0,12,348.6,1107.3)" />
<use xlink:href="#f1_w" transform="matrix(12,0,0,12,360.1,1107.3)" />
<use xlink:href="#f1_q" transform="matrix(12,0,0,12,380.2,1107.3)" />
<use xlink:href="#f1_6" transform="matrix(12,0,0,12,390.6,1107.3)" />
<use xlink:href="#f1_p" transform="matrix(12,0,0,12,395.6,1107.3)" />
<use xlink:href="#f1_k" transform="matrix(12,0,0,12,402,1107.3)" />
<use xlink:href="#f1_b" transform="matrix(12,0,0,12,413.9,1107.3)" />
<use xlink:href="#f1_g" transform="matrix(12,0,0,12,437.3,1107.3)" />
<use xlink:href="#f1_p" transform="matrix(12,0,0,12,449.2,1107.3)" />
<use xlink:href="#f1_18" transform="matrix(12,0,0,12,468.7,1107.3)" />
<use xlink:href="#f1_c" transform="matrix(12,0,0,12,477.1,1107.3)" />
<use xlink:href="#f1_6" transform="matrix(12,0,0,12,490.1,1107.3)" />
<use xlink:href="#f1_k" transform="matrix(12,0,0,12,495.1,1107.3)" />
<use xlink:href="#f1_f" transform="matrix(12,0,0,12,507,1107.3)" />
<use xlink:href="#f1_b" transform="matrix(12,0,0,12,517.6,1107.3)" />
<use xlink:href="#f1_18" transform="matrix(12,0,0,12,528,1107.3)" />
<use xlink:href="#f1_v" transform="matrix(12,0,0,12,496.1,1128.7)" />
<use xlink:href="#f1_12" transform="matrix(12,0,0,12,503.2,1128.7)" />
<use xlink:href="#f1_4" transform="matrix(12,0,0,12,515,1128.7)" />
<use xlink:href="#f1_g" transform="matrix(12,0,0,12,524.6,1128.7)" />
<use xlink:href="#f2_c" transform="matrix(12,0,0,12,440.8,1128.7)" />
<use xlink:href="#f2_d" transform="matrix(12,0,0,12,451.9,1128.7)" />
<use xlink:href="#f2_g" transform="matrix(12,0,0,12,458.2,1128.7)" />
<use xlink:href="#f1_6" transform="matrix(12,0,0,12,336.4,1128.7)" />
<use xlink:href="#f1_s" transform="matrix(12,0,0,12,341.4,1128.7)" />
<use xlink:href="#f1_2" transform="matrix(12,0,0,12,377.6,1128.7)" />
<use xlink:href="#f1_f" transform="matrix(12,0,0,12,383.4,1128.7)" />
<use xlink:href="#f1_6" transform="matrix(12,0,0,12,394,1128.7)" />
<use xlink:href="#f1_c" transform="matrix(12,0,0,12,398.9,1128.7)" />
<use xlink:href="#f1_6" transform="matrix(12,0,0,12,411.8,1128.7)" />
<use xlink:href="#f3_n" transform="matrix(10.5,0,0,10.5,522.2,1150.1)" />
<use xlink:href="#f3_j" transform="matrix(10.5,0,0,10.5,529.2,1150.1)" />
<use xlink:href="#f1_8" transform="matrix(12,0,0,12,472.5,1150.1)" />
<use xlink:href="#f1_q" transform="matrix(12,0,0,12,478.4,1150.1)" />
<use xlink:href="#f1_6" transform="matrix(12,0,0,12,488.6,1150.1)" />
<use xlink:href="#f1_p" transform="matrix(12,0,0,12,493.6,1150.1)" />
<use xlink:href="#f1_k" transform="matrix(12,0,0,12,500,1150.1)" />
<use xlink:href="#f1_b" transform="matrix(12,0,0,12,511.9,1150.1)" />
<use xlink:href="#f0_v" transform="matrix(10.5,0,0,10.5,224.3,1105.2)" />
<use xlink:href="#f0_9" transform="matrix(10.5,0,0,10.5,232.4,1105.2)" />
<use xlink:href="#f0_m" transform="matrix(10.5,0,0,10.5,240.3,1105.2)" />
<use xlink:href="#f0_v" transform="matrix(10.5,0,0,10.5,244.7,1105.2)" />
<use xlink:href="#f0_2" transform="matrix(10.5,0,0,10.5,252.8,1105.2)" />
<use xlink:href="#f0_8" transform="matrix(10.5,0,0,10.5,260,1105.2)" />
<use xlink:href="#f0_8" transform="matrix(10.5,0,0,10.5,137.7,1105.2)" />
<use xlink:href="#f0_2" transform="matrix(10.5,0,0,10.5,143,1105.2)" />
<use xlink:href="#f0_v" transform="matrix(10.5,0,0,10.5,150,1105.2)" />
<use xlink:href="#f0_9" transform="matrix(10.5,0,0,10.5,158.1,1105.2)" />
<use xlink:href="#f0_m" transform="matrix(10.5,0,0,10.5,166.2,1105.2)" />
<use xlink:href="#f0_v" transform="matrix(10.5,0,0,10.5,170.6,1105.2)" />
<use xlink:href="#f0_2" transform="matrix(10.5,0,0,10.5,178.6,1105.2)" />
<use xlink:href="#f0_8" transform="matrix(10.5,0,0,10.5,185.7,1105.2)" />
<use xlink:href="#f1_1i" transform="matrix(11,0,0,11,137.5,1208.9)" />
</g>
</g>
<defs>
<path d="M383,64c0,0,85,0,152,28V645c0,0,-67,13,-152,13c0,0,-194,0,-194,-314c0,0,0,-141,48,-211c0,0,48,-69,146,-69ZM342,-14c0,0,-287,0,-287,358c0,0,0,184,82,280c0,0,81,96,239,96c0,0,81,0,163,-18c0,0,-4,25,-4,124v182l-118,18v34H659V52L745,33V0H548l-9,52c0,0,-84,-66,-197,-66Z" 
id="f0_p"
transform="scale(0.001,-0.001)" />

<path d="M377,45c0,0,99,0,147,73c0,0,47,73,47,237c0,0,0,161,-47,233c0,0,-47,72,-147,72c0,0,-97,0,-141,-69c0,0,-44,-69,-44,-236c0,0,0,-169,45,-240c0,0,44,-70,140,-70Zm0,-59c0,0,-158,0,-238,94c0,0,-81,95,-81,274c0,0,0,178,81,272c0,0,80,94,244,94c0,0,160,0,241,-92c0,0,82,-92,82,-274c0,0,0,-368,-329,-368Z" 
id="f0_9"
transform="scale(0.001,-0.001)" />

<path d="M31,0V33l88,19V649L31,668v33H235l7,-87c0,0,44,37,121,71c0,0,76,35,121,35h11V530H463l-43,82c0,0,-37,0,-88,-10c0,0,-52,-10,-89,-26V52L363,33V0Z" 
id="f0_8"
transform="scale(0.001,-0.001)" />

<path d="M431,0V33L535,52V499c0,0,0,62,-32,96c0,0,-32,33,-95,33c0,0,-66,0,-163,-22V52L350,33V0H32V33l89,19V649L32,668v33H237l6,-57c0,0,56,32,119,54c0,0,62,22,110,22c0,0,52,0,95,-20c0,0,44,-19,66,-62c0,0,57,32,134,57c0,0,77,25,128,25c0,0,179,0,179,-207V52l90,-19V0H846V33L950,52V499c0,0,0,129,-119,129c0,0,-19,0,-45,-3c0,0,-26,-3,-52,-7c0,0,-25,-4,-49,-8c0,0,-23,-5,-39,-8c0,0,13,-41,13,-89V52L764,33V0Z" 
id="f0_r"
transform="scale(0.001,-0.001)" />

<path d="M32,0V33L151,52V649L52,668v33H275V52L395,33V0ZM201,850c0,0,-32,0,-56,24c0,0,-24,24,-24,56c0,0,0,34,24,58c0,0,24,24,56,24c0,0,34,0,58,-24c0,0,24,-24,24,-58c0,0,0,-32,-24,-56c0,0,-24,-24,-58,-24Z" 
id="f0_3"
transform="scale(0.001,-0.001)" />

<path d="M278,-14c0,0,-52,0,-115,11c0,0,-63,10,-99,23V193H98L134,95c0,0,56,-50,146,-50c0,0,144,0,144,123c0,0,0,91,-114,130l-66,21c0,0,-75,25,-110,50c0,0,-34,26,-53,63c0,0,-18,36,-18,89c0,0,0,92,63,145c0,0,63,54,170,54c0,0,77,0,193,-23V544H454l-32,81c0,0,-39,35,-124,35c0,0,-61,0,-92,-30c0,0,-32,-30,-32,-80c0,0,0,-43,29,-72c0,0,28,-29,86,-48c0,0,110,-38,144,-55c0,0,33,-17,57,-42c0,0,23,-25,36,-57c0,0,13,-32,13,-79c0,0,0,-104,-66,-158c0,0,-66,-53,-195,-53Z" 
id="f0_6"
transform="scale(0.001,-0.001)" />

<path d="M439,0V33l93,19V500c0,0,0,62,-30,97c0,0,-31,36,-94,36c0,0,-67,0,-165,-22V52L338,33V0H35V33l84,19V649L35,668v33H235l7,-57c0,0,57,33,122,54c0,0,65,22,108,22c0,0,91,0,137,-53c0,0,47,-53,47,-154V52L741,33V0Z" 
id="f0_5"
transform="scale(0.001,-0.001)" />

<path d="M249,-14c0,0,-71,0,-107,42c0,0,-35,42,-35,119V639H15v33l93,29l76,159h47V701H391V639H231V161c0,0,0,-48,22,-73c0,0,22,-24,57,-24c0,0,44,0,106,12V26C416,26,389,8,340,-2c0,0,-49,-12,-91,-12Z" 
id="f0_e"
transform="scale(0.001,-0.001)" />

<path d="M0,-14L351,1007h73L75,-14Z" 
id="f0_n"
transform="scale(0.001,-0.001)" />

<path d="M284,67c0,0,51,0,88,12c0,0,37,12,74,30V358l-98,-3c0,0,-100,-4,-135,-39c0,0,-35,-35,-35,-117c0,0,0,-132,106,-132ZM233,-14c0,0,-179,0,-179,208c0,0,0,70,27,116c0,0,27,46,87,70c0,0,60,24,173,27l105,3V519c0,0,0,72,-26,107c0,0,-27,34,-82,34c0,0,-75,0,-137,-35L176,538H134V691c0,0,121,26,213,26c0,0,115,0,169,-47c0,0,54,-47,54,-144V52L657,33V0H465L451,70c0,0,-85,-84,-218,-84Z" 
id="f0_7"
transform="scale(0.001,-0.001)" />

<path d="M495,413c0,0,0,133,-34,190c0,0,-34,57,-105,57c0,0,-78,0,-119,-63c0,0,-42,-62,-42,-184ZM374,-14c0,0,-163,0,-239,87c0,0,-75,88,-75,283c0,0,0,183,77,273c0,0,76,91,219,91c0,0,269,0,269,-306V353H194V340c0,0,0,-103,23,-160c0,0,22,-57,70,-87c0,0,47,-29,124,-29c0,0,40,0,96,6c0,0,55,7,91,15V43C598,43,562,20,500,3c0,0,-61,-17,-126,-17Z" 
id="f0_2"
transform="scale(0.001,-0.001)" />

<path d="M31,0V33L150,52v956L31,1026v34H274V52L394,33V0Z" 
id="f0_m"
transform="scale(0.001,-0.001)" />

<path d="M557,-14c0,0,-199,0,-298,89c0,0,-99,90,-99,255V941L32,960v40H432V960L304,941V341c0,0,0,-273,264,-273c0,0,144,0,220,68c0,0,77,68,77,202V941L730,960v40h341V960L943,941V344c0,0,0,-180,-99,-269c0,0,-99,-89,-287,-89Z" 
id="f0_o"
transform="scale(0.001,-0.001)" />

<path d="M191,-20c0,0,-39,0,-65,25c0,0,-25,27,-25,64c0,0,0,38,26,64c0,0,26,26,64,26c0,0,38,0,64,-26c0,0,26,-26,26,-64c0,0,0,-37,-25,-64c0,0,-26,-25,-65,-25Z" 
id="f0_q"
transform="scale(0.001,-0.001)" />

<path d="M287,0L589,729H66v386H205V836l547,-1l-2,-82L433,0Z" 
id="f1_b"
transform="scale(0.001,-0.001)" />

<path d="M102,312V836H241V369L102,312Z" 
id="f1_i"
transform="scale(0.001,-0.001)" />

<path d="M138,-7c0,0,-34,0,-72,10V129c0,0,25,-8,52,-8c0,0,33,0,58,5c0,0,26,5,58,24c0,0,33,20,53,54c0,0,21,34,36,97c0,0,15,64,15,151c0,0,0,113,-19,173c0,0,-19,60,-56,82c0,0,-38,22,-107,22H89V836h72c0,0,165,0,240,-91c0,0,76,-91,76,-293c0,0,0,-107,26,-227c0,0,25,-119,83,-225H437c0,0,-43,101,-62,184c0,0,-24,-60,-51,-99c0,0,-26,-38,-56,-58C268,27,239,7,209,0c0,0,-30,-7,-71,-7Z" 
id="f1_n"
transform="scale(0.001,-0.001)" />

<path d="M585,0V426c0,0,0,54,-8,98c0,0,-8,44,-27,83c0,0,-19,40,-49,66c0,0,-30,26,-77,41c0,0,-47,15,-108,15H66V836H315c0,0,94,0,166,-20c0,0,71,-20,116,-54c0,0,46,-35,75,-88c0,0,28,-52,40,-112c0,0,12,-60,12,-137V0Z" 
id="f1_q"
transform="scale(0.001,-0.001)" />

<path d="M112,-5c0,0,-39,0,-97,11V113c0,0,48,-10,77,-10c0,0,53,0,70,42c0,0,17,43,17,164V729H50V836H501c0,0,107,0,179,-25c0,0,72,-25,112,-77c0,0,40,-51,57,-118c0,0,16,-67,16,-164V0H726V454c0,0,0,55,-3,92c0,0,-4,37,-17,75c0,0,-14,38,-38,59c0,0,-24,22,-65,36c0,0,-42,13,-102,13H318V309c0,0,0,-160,-46,-237C272,72,226,-5,112,-5Z" 
id="f1_h"
transform="scale(0.001,-0.001)" />

<path d="M139,0V836H278V0Z" 
id="f1_6"
transform="scale(0.001,-0.001)" />

<path d="M66,0V107H554V452c0,0,0,56,-4,93c0,0,-4,37,-18,75c0,0,-14,38,-40,60c0,0,-26,22,-71,36c0,0,-45,13,-110,13H66V836H312c0,0,91,0,157,-17c0,0,66,-17,109,-49c0,0,44,-32,69,-84c0,0,26,-52,36,-114c0,0,10,-62,10,-147V107H817V0Z" 
id="f1_f"
transform="scale(0.001,-0.001)" />

<path d="M180,0L66,836H203L258,443c0,0,36,1,64,6c0,0,28,6,49,18c0,0,20,12,35,26c0,0,15,13,26,36c0,0,11,24,17,44c0,0,7,20,12,55c0,0,6,34,9,60c0,0,3,26,8,71c0,0,4,45,9,77H610c0,0,-13,-194,-31,-271c0,0,-31,-127,-111,-179c0,0,-71,-45,-196,-50L304,107c0,0,73,0,130,5c0,0,56,6,111,21c0,0,54,15,94,40c0,0,40,25,77,64c0,0,37,39,63,94c0,0,25,54,46,128c0,0,21,73,34,166c0,0,13,94,20,211h138c0,0,-14,-124,-29,-218c0,0,-16,-94,-39,-179c0,0,-22,-85,-50,-146c0,0,-28,-61,-68,-112c0,0,-39,-51,-87,-84C744,97,696,65,632,42C632,42,568,19,492,10C492,10,417,0,320,0Z" 
id="f1_c"
transform="scale(0.001,-0.001)" />

<path d="M505,98c0,0,101,0,160,70c0,0,60,69,60,189c0,0,0,121,-60,191c0,0,-59,69,-160,69c0,0,-102,0,-161,-69c0,0,-59,-70,-59,-191c0,0,0,-120,59,-189c0,0,59,-70,161,-70ZM504,-20c0,0,-193,0,-295,147c0,0,-102,148,-102,429c0,0,0,264,125,421c0,0,125,157,337,157c0,0,56,0,114,-11c0,0,58,-11,121,-34V952c0,0,-57,27,-115,41c0,0,-58,14,-115,14c0,0,-149,0,-228,-101c0,0,-79,-100,-90,-304c0,0,44,65,111,100c0,0,66,34,146,34c0,0,168,0,266,-102c0,0,97,-101,97,-277c0,0,0,-171,-101,-275C775,82,673,-20,504,-20Z" 
id="f1_1g"
transform="scale(0.001,-0.001)" />

<path d="M248,0L521,658H66v429H313V836l493,-1V716L504,0Z" 
id="f2_a"
transform="scale(0.001,-0.001)" />

<path d="M102,250V836H349V351L102,250Z" 
id="f2_8"
transform="scale(0.001,-0.001)" />

<path d="M154,-13c0,0,-38,0,-85,9V198c0,0,58,-15,103,-15c0,0,84,0,118,60c0,0,35,61,35,206c0,0,0,66,-7,105c0,0,-6,39,-24,63c0,0,-17,25,-44,33c0,0,-27,8,-73,8H66V836H225c0,0,198,0,275,-115c0,0,56,-84,65,-264c0,0,3,-55,3,-148c0,0,0,-177,71,-309L393,1c0,0,-53,130,-54,141c0,0,-28,-90,-65,-123c0,0,-38,-32,-120,-32Z" 
id="f2_k"
transform="scale(0.001,-0.001)" />

<path d="M534,0V425c0,0,0,109,-41,171c0,0,-41,62,-140,62H66V836H352c0,0,99,0,174,-20c0,0,75,-20,123,-55c0,0,48,-35,78,-87c0,0,30,-53,42,-113c0,0,12,-60,12,-136V0Z" 
id="f2_4"
transform="scale(0.001,-0.001)" />

<path d="M173,-6C173,-6,61,-6,15,9V177c0,0,73,-10,82,-10c0,0,37,0,52,30c0,0,14,29,14,116V658H18V836H516c0,0,262,0,341,-145c0,0,48,-89,48,-242V0H658V450c0,0,0,131,-37,171c0,0,-34,37,-105,37H411V313c0,0,0,-189,-67,-258C344,55,285,-6,173,-6Z" 
id="f2_h"
transform="scale(0.001,-0.001)" />

<path d="M228,0L639,903H103v211H942V952L508,0Z" 
id="f2_x"
transform="scale(0.001,-0.001)" />

<path d="M163,0V190H321V0Z" 
id="f1_8"
transform="scale(0.001,-0.001)" />

<path d="M736,107V473c0,0,0,147,-48,202c0,0,-49,54,-187,54H278V107ZM139,0V836H499c0,0,105,0,177,-22c0,0,72,-21,116,-69c0,0,44,-49,64,-119c0,0,19,-71,19,-174V0Z" 
id="f1_l"
transform="scale(0.001,-0.001)" />

<path d="M139,0V106H400c0,0,176,0,253,71c0,0,78,72,78,250c0,0,0,163,-80,233c0,0,-81,69,-250,69H278L277,564c0,0,-1,-54,26,-80c0,0,27,-25,82,-25c0,0,30,0,80,9V355c0,0,-61,-12,-111,-12c0,0,-100,0,-157,55c0,0,-58,55,-58,186V836H456c0,0,193,0,303,-109c0,0,110,-109,110,-309c0,0,0,-200,-110,-309C759,109,648,0,456,0Z" 
id="f1_m"
transform="scale(0.001,-0.001)" />

<path d="M522,92c0,0,247,0,247,333c0,0,0,88,-17,146c0,0,-17,58,-53,91c0,0,-35,33,-82,46c0,0,-48,14,-116,14H276V419c0,0,0,-327,246,-327Zm0,-112c0,0,-193,0,-289,109c0,0,-95,110,-95,337V836H501c0,0,213,0,309,-93c0,0,96,-94,96,-317c0,0,0,-227,-95,-337C811,89,715,-20,522,-20Z" 
id="f1_o"
transform="scale(0.001,-0.001)" />

<path d="M66,0V107H332V555c0,0,0,92,-37,133c0,0,-37,41,-116,41H85V836h94c0,0,153,0,223,-66c0,0,69,-66,69,-231V0Z" 
id="f1_9"
transform="scale(0.001,-0.001)" />

<path d="M139,0V836H485c0,0,206,0,290,-90c0,0,84,-89,84,-294V0H721V473c0,0,0,147,-49,202c0,0,-48,54,-186,54H277V0Z" 
id="f1_k"
transform="scale(0.001,-0.001)" />

<path d="M154,0V454l138,56V0ZM722,0V454c0,0,0,161,-49,218c0,0,-48,57,-186,57H139V836H485c0,0,207,0,291,-93c0,0,83,-94,83,-318V0Z" 
id="f1_g"
transform="scale(0.001,-0.001)" />

<path d="M543,-317V369c0,0,0,85,-8,143c0,0,-8,58,-27,101c0,0,-18,44,-51,69c0,0,-33,24,-80,36c0,0,-48,11,-117,11H66V836H257c0,0,125,0,205,-23c0,0,80,-23,130,-79c0,0,50,-56,70,-143c0,0,20,-86,20,-222V-317Z" 
id="f1_t"
transform="scale(0.001,-0.001)" />

<path d="M71,-141V-15L289,62L66,836H210L416,109c0,0,99,42,153,98c0,0,53,56,80,155c0,0,26,98,26,262V836H817V624c0,0,0,-88,-7,-154c0,0,-7,-67,-25,-132c0,0,-18,-66,-51,-116c0,0,-33,-51,-84,-98c0,0,-50,-48,-123,-87c0,0,-72,-39,-169,-74L71,-141Z" 
id="f1_e"
transform="scale(0.001,-0.001)" />

<path d="M117,-176L179,62V190H336V62L213,-176Z" 
id="f1_2"
transform="scale(0.001,-0.001)" />

<path d="M139,0V138c0,0,0,61,8,112c0,0,7,52,19,87c0,0,11,36,30,66c0,0,19,31,35,49c0,0,17,19,41,35c0,0,25,17,41,25c0,0,17,7,40,17L141,836H303L613,388c0,0,20,10,33,18c0,0,13,8,34,28c0,0,20,20,33,44c0,0,13,25,22,66c0,0,10,41,10,92V836H882V698c0,0,0,-61,-7,-112c0,0,-6,-52,-18,-88c0,0,-12,-36,-30,-66c0,0,-19,-30,-36,-49c0,0,-17,-18,-41,-34c0,0,-24,-17,-40,-25c0,0,-17,-8,-41,-17L882,0H720L409,448c0,0,-21,-11,-34,-19c0,0,-13,-8,-34,-27c0,0,-21,-20,-34,-44c0,0,-12,-25,-22,-66c0,0,-9,-41,-9,-92V0Z" 
id="f1_s"
transform="scale(0.001,-0.001)" />

<path d="M522,-20c0,0,-196,0,-290,99c0,0,-94,100,-94,324V836H276V397c0,0,0,-86,16,-147c0,0,17,-60,50,-94c0,0,34,-34,77,-49c0,0,43,-15,103,-15c0,0,59,0,102,15c0,0,44,15,77,49c0,0,33,34,50,94c0,0,17,61,17,147c0,0,0,84,-8,143c0,0,-7,58,-25,105c0,0,-17,47,-51,69c0,0,-33,23,-83,23c0,0,-50,0,-119,-22V821c0,0,85,23,150,23c0,0,76,0,130,-30c0,0,53,-31,85,-90c0,0,31,-59,45,-138c0,0,13,-78,13,-183c0,0,0,-224,-93,-324c0,0,-94,-99,-290,-99Z" 
id="f1_d"
transform="scale(0.001,-0.001)" />

<path d="M74,357V479H476V357Z" 
id="f1_17"
transform="scale(0.001,-0.001)" />

<path d="M55,0V40L184,60V941L55,960v40H455V960L327,941V60L455,40V0Z" 
id="f0_a"
transform="scale(0.001,-0.001)" />

<path d="M448,506c0,0,134,0,190,49c0,0,57,50,57,168c0,0,0,114,-56,162c0,0,-56,48,-195,48H316V506ZM777,0L496,438H316V60L468,40V0H54V40L172,60V941L44,960v40H476c0,0,188,0,277,-63c0,0,90,-64,90,-204c0,0,0,-100,-54,-173c0,0,-55,-73,-151,-101L909,60L1017,40V0Z" 
id="f0_b"
transform="scale(0.001,-0.001)" />

<path d="M44,0V40L172,60V941L44,960v40H794V760H745L721,922c0,0,-83,11,-241,11H316V543H586l23,119h48V354H609L586,475H316V67H513c0,0,193,0,252,12l43,185h49L843,0Z" 
id="f0_c"
transform="scale(0.001,-0.001)" />

<path d="M681,416L504,902L333,416ZM669,0V40L803,60L704,348H310L210,60L344,40V0H15V40L128,60l341,949H611L965,60L1092,40V0Z" 
id="f0_d"
transform="scale(0.001,-0.001)" />

<path d="M114,0l60,312c0,0,2,12,8,39c0,0,6,27,7,37c0,0,2,11,5,30c0,0,2,19,4,33c0,0,1,15,1,31c0,0,0,48,-35,146c0,0,-35,98,-98,208H228c0,0,3,-8,27,-67c0,0,25,-58,41,-117c0,0,21,53,50,90c0,0,29,37,57,57c0,0,29,21,65,32c0,0,37,11,65,14c0,0,28,3,67,3c0,0,300,0,300,-396V0H480V106H761V452c0,0,0,146,-46,215c0,0,-45,70,-118,70c0,0,-134,0,-198,-119c0,0,-36,-68,-67,-222c0,0,-2,-10,-6,-27L253,0Z" 
id="f1_7"
transform="scale(0.001,-0.001)" />

<path d="M152,0V473c0,0,0,94,28,161c0,0,29,66,71,95H66V836H463V729H404c0,0,-65,0,-89,-57c0,0,-25,-58,-25,-199V0Z" 
id="f1_p"
transform="scale(0.001,-0.001)" />

<path d="M360,-14L72,649L0,668v33H327V668L216,648L420,164L615,649L504,668v33H764V668L697,652L416,-14Z" 
id="f0_v"
transform="scale(0.001,-0.001)" />

<path d="M0,-141L388,1114H514L127,-141Z" 
id="f1_11"
transform="scale(0.001,-0.001)" />

<path d="M399,-14c0,0,-341,0,-341,370c0,0,0,175,87,269c0,0,87,95,249,95c0,0,101,0,220,-23V501H573L541,625c0,0,-62,35,-149,35c0,0,-200,0,-200,-304c0,0,0,-158,61,-225c0,0,61,-67,189,-67c0,0,109,0,189,24V43C631,43,595,16,530,1c0,0,-64,-15,-131,-15Z" 
id="f0_y"
transform="scale(0.001,-0.001)" />

<path d="M148,-329c0,0,-58,0,-114,13v151H69l24,-71c0,0,23,-17,64,-17c0,0,39,0,72,22c0,0,33,23,60,67c0,0,27,44,68,157L90,649L19,668v33H344V668L233,648L423,158L606,649L497,668v33H758V668L685,652L411,-43c0,0,-48,-124,-84,-177c0,0,-36,-54,-79,-82c0,0,-44,-27,-100,-27Z" 
id="f0_i"
transform="scale(0.001,-0.001)" />

<path d="M289,-14c0,0,-179,0,-179,205V649L20,668v33H233V200c0,0,0,-128,120,-128c0,0,92,0,173,23V649L420,668v33H649V52L738,34V0H533l-6,57C527,57,474,28,405,6c0,0,-69,-20,-116,-20Zm24,849v24l147,203H618v-27L354,835Z" 
id="f0_j"
transform="scale(0.001,-0.001)" />

<path d="M495,413c0,0,0,133,-34,190c0,0,-34,57,-105,57c0,0,-78,0,-119,-62c0,0,-42,-63,-42,-185ZM374,-14c0,0,-163,0,-239,87c0,0,-75,88,-75,283c0,0,0,183,77,274c0,0,76,90,219,90c0,0,269,0,269,-306V353H194V339c0,0,0,-103,23,-160c0,0,22,-57,70,-86c0,0,47,-30,124,-30c0,0,40,0,96,6c0,0,55,7,91,15V43C598,43,562,19,500,2c0,0,-61,-16,-126,-16ZM285,835v24l146,203H590v-27L326,835Z" 
id="f0_l"
transform="scale(0.001,-0.001)" />

<path d="M280,0L660,987H125v127H841v-64L437,0Z" 
id="f1_1h"
transform="scale(0.001,-0.001)" />

<path d="M107,-18c0,0,-17,0,-17,18l3,9c0,0,23,48,23,124l-1,177c0,0,0,55,8,77c0,0,9,22,33,46c0,0,23,23,51,40c0,0,28,17,42,17c0,0,5,0,9,-3c0,0,5,-3,5,-8c0,0,0,-3,-11,-26c0,0,-14,-49,-14,-120l4,-223c0,0,0,-38,-9,-54c0,0,-8,-17,-32,-34C201,22,178,6,150,-5c0,0,-28,-13,-43,-13Zm547,0c0,0,-17,0,-17,18l2,10c0,0,10,38,10,109c0,0,0,79,-14,208c0,0,-15,128,-15,149c0,0,0,54,16,89c0,0,15,36,53,69H154c0,0,-35,0,-57,40c0,0,-21,40,-21,103c0,0,0,33,8,61c0,0,7,28,19,44c0,0,13,17,24,17c0,0,15,0,15,-13V869c0,0,0,-13,5,-19c0,0,5,-5,22,-5H718c0,0,50,0,50,-63V652c0,0,0,-21,-15,-30c0,0,-35,-24,-35,-77c0,0,0,-57,20,-169c0,0,27,-157,27,-272c0,0,0,-29,-6,-44c0,0,-6,-15,-17,-26c0,0,-12,-16,-47,-35L681,-9l-13,-6l-14,-3Z" 
id="f3_h"
transform="scale(0.001,-0.001)" />

<path d="M145,-11c0,0,-11,0,-11,11l4,14c0,0,21,67,21,169c0,0,0,41,-6,115c0,0,-6,75,-6,128c0,0,0,61,8,96c0,0,8,35,27,69c0,0,19,34,51,73c0,0,-154,0,-154,108c0,0,0,35,9,62c0,0,8,27,23,45c0,0,14,19,25,19c0,0,17,0,17,-11V873c0,0,0,-28,36,-28h91c0,0,52,0,80,-33c0,0,28,-34,28,-96c0,0,0,-29,-5,-53c0,0,-6,-24,-12,-24c0,0,-6,0,-17,11c0,0,-15,17,-36,17c0,0,-20,0,-38,-20c0,0,-17,-19,-25,-62c0,0,-9,-43,-9,-92c0,0,0,-41,11,-190c0,0,12,-150,12,-187c0,0,0,-35,-15,-64c0,0,-10,-17,-53,-40c0,0,-43,-23,-56,-23Z" 
id="f3_1d"
transform="scale(0.001,-0.001)" />

<path d="M423,-13c0,0,-9,0,-14,7c0,0,-5,6,-10,23c0,0,-13,51,-37,108c0,0,-25,58,-55,101c0,0,-21,-37,-51,-115C256,111,225,34,216,0H12L55,212h99c0,0,51,0,72,12c0,0,20,12,40,58c0,0,20,46,18,98V543c0,0,0,46,-7,61c0,0,-7,15,-23,22c0,0,-17,8,-50,8H189c0,0,-76,0,-76,115c0,0,0,56,16,103c0,0,16,47,33,47c0,0,14,0,14,-15c0,0,0,-17,9,-28c0,0,10,-11,40,-11h21c0,0,60,0,85,-8c0,0,25,-9,39,-26c0,0,13,-18,13,-49c0,0,0,-20,-4,-43c0,0,-5,-23,-10,-53c0,0,-6,-31,-10,-71c0,0,-5,-41,-5,-97c0,0,0,-150,62,-269c0,0,28,-58,38,-90l9,-65c0,0,0,-27,-13,-57c0,0,-13,-30,-27,-30Z" 
id="f3_9"
transform="scale(0.001,-0.001)" />

<path d="M131,353c0,0,-3,0,-6,2c0,0,-3,2,-16,20c0,0,-13,17,-13,28c0,0,0,5,8,9c0,0,45,26,84,67c0,0,38,41,38,85c0,0,0,28,-7,43c0,0,-7,15,-24,21c0,0,-17,6,-61,6H124c0,0,-38,0,-62,34c0,0,-24,35,-24,107c0,0,0,52,16,87c0,0,17,34,38,34c0,0,16,0,16,-12V870c0,0,0,-25,26,-25h63c0,0,29,0,53,-4c0,0,23,-4,39,-23c0,0,17,-19,26,-59c0,0,9,-40,9,-113c0,0,0,-76,-15,-124c0,0,-15,-47,-51,-83c0,0,-35,-36,-74,-61c0,0,-39,-25,-53,-25Z" 
id="f3_a"
transform="scale(0.001,-0.001)" />

<path d="M554,-8c0,0,-9,0,-11,6c0,0,-2,5,-2,24V548c0,0,0,38,-5,56c0,0,-4,18,-15,25c0,0,-12,7,-41,7H90c0,0,-33,0,-52,33c0,0,-19,33,-19,90c0,0,0,54,15,97c0,0,14,43,30,43c0,0,17,0,17,-13V872c0,0,0,-9,7,-18c0,0,7,-9,27,-9H512c0,0,54,0,77,-8c0,0,23,-9,33,-28c0,0,9,-20,9,-67V81c0,0,0,-31,-27,-53L583,9C583,9,563,-8,554,-8Z" 
id="f3_8"
transform="scale(0.001,-0.001)" />

<path d="M131,-18c0,0,-10,0,-10,13l3,10c0,0,13,41,13,128l-3,137l-4,151c0,0,0,60,24,108c0,0,24,47,79,105H186c0,0,-37,0,-60,35c0,0,-22,36,-22,93c0,0,0,48,16,92c0,0,17,45,31,45c0,0,7,0,13,-6c0,0,7,-6,7,-18c0,0,0,-30,32,-30H749c0,0,28,0,37,-12c0,0,8,-12,8,-40V660c0,0,0,-28,-11,-37c0,0,-39,-28,-39,-91c0,0,0,-52,24,-213c0,0,23,-161,23,-221c0,0,0,-46,-42,-81c0,0,-43,-33,-69,-33c0,0,-5,0,-9,4c0,0,-3,5,-3,12c0,0,0,7,4,24c0,0,5,16,5,48c0,0,0,80,-15,234c0,0,-16,154,-16,178c0,0,0,39,14,73c0,0,14,33,46,77H304c0,0,-41,-50,-55,-91c0,0,-14,-41,-14,-109c0,0,0,-44,9,-145c0,0,8,-103,8,-156c0,0,0,-64,-24,-93c0,0,-59,-58,-97,-58Z" 
id="f3_b"
transform="scale(0.001,-0.001)" />

<path d="M730,212c0,0,17,78,17,199c0,0,0,85,-13,133c0,0,-12,48,-36,69c0,0,-24,21,-87,21H312c0,0,-55,-53,-72,-91c0,0,-17,-38,-17,-96c0,0,0,-124,8,-235ZM134,0l-1,360c0,0,0,121,7,151c0,0,7,30,31,61c0,0,24,32,57,62H201c0,0,-37,0,-59,39c0,0,-23,40,-23,101c0,0,0,51,18,87c0,0,18,35,35,35c0,0,12,0,16,-2c0,0,4,-2,4,-8V869c0,0,0,-24,31,-24H645c0,0,73,0,104,-18c0,0,30,-18,49,-58c0,0,19,-39,27,-107c0,0,9,-67,9,-162c0,0,0,-166,-12,-500Z" 
id="f3_14"
transform="scale(0.001,-0.001)" />

<path d="M102,-3c0,0,-26,0,-26,31c0,0,0,176,35,320c0,0,34,145,102,247c0,0,3,4,3,25c0,0,0,24,-19,37c0,0,-19,13,-79,15c0,0,-40,0,-61,35c0,0,-22,35,-22,95c0,0,0,39,14,67c0,0,14,29,32,29c0,0,20,0,20,-25c0,0,0,-28,32,-28h33c0,0,54,0,85,-25c0,0,30,-25,30,-68l-3,-52c0,0,0,-22,3,-31c0,0,76,71,104,109c0,0,29,37,36,75c0,0,55,7,82,7c0,0,154,0,239,-126c0,0,85,-127,85,-352c0,0,0,-99,-15,-200C812,182,798,81,774,0H335l42,214H652c0,0,25,0,37,5c0,0,11,4,21,18c0,0,10,14,17,36c0,0,7,22,12,56c0,0,5,34,5,64c0,0,0,247,-241,247c0,0,-337,0,-337,-609c0,0,0,-20,-5,-27c0,0,-6,-7,-22,-7Z" 
id="f3_u"
transform="scale(0.001,-0.001)" />

<path d="M134,-289c0,0,-15,0,-15,21V460c0,0,0,15,6,21c0,0,5,6,25,19c0,0,39,26,48,26c0,0,6,0,8,-2c0,0,2,-2,2,-9V-221c0,0,0,-17,-7,-25c0,0,-6,-9,-23,-22c0,0,-25,-21,-44,-21ZM351,-20c0,0,-32,0,-52,20c0,0,-19,19,-19,49c0,0,0,67,41,124c0,0,42,56,164,135c0,0,43,28,80,59c0,0,39,21,59,59c0,0,21,37,21,84c0,0,0,22,-6,54c0,0,-6,32,-14,46c0,0,-9,14,-29,19c0,0,-19,5,-70,5H178c0,0,-94,0,-94,125c0,0,0,50,16,94c0,0,16,45,31,45c0,0,17,0,17,-14V870c0,0,0,-25,34,-25H624c0,0,73,0,93,-58c0,0,25,-91,25,-194c0,0,0,-86,-6,-129c0,0,-7,-43,-29,-76c0,0,-21,-35,-85,-79c0,0,-49,-34,-111,-79c0,0,-63,-44,-81,-70c0,0,-19,-26,-19,-59c0,0,0,-11,5,-26c0,0,5,-15,5,-26c0,0,0,-33,-19,-51c0,0,-20,-18,-51,-18Z" 
id="f3_1e"
transform="scale(0.001,-0.001)" />

<path d="M46,0l55,212H483c0,0,68,0,105,25c0,0,38,25,57,78c0,0,18,52,18,131c0,0,0,97,-39,142c0,0,-40,46,-123,46H275c0,0,-25,-15,-40,-35c0,0,-15,-20,-15,-32c0,0,0,-25,37,-25l49,-1c0,0,42,0,67,-26c0,0,26,-26,26,-72c0,0,0,-68,-17,-118c0,0,-18,-50,-41,-50c0,0,-19,0,-19,18c0,0,0,34,-14,51c0,0,-13,16,-54,16c0,0,-38,0,-57,-11c0,0,-19,-11,-26,-43c0,0,-3,-22,-18,-22c0,0,-22,0,-34,37c0,0,-12,38,-12,102c0,0,0,128,78,211H163c0,0,-33,0,-52,34c0,0,-19,35,-19,91c0,0,0,50,15,94c0,0,16,45,32,45c0,0,17,0,17,-14V870c0,0,0,-25,33,-25H544c0,0,62,0,95,-17c0,0,32,-17,58,-66c0,0,26,-48,40,-125c0,0,13,-77,13,-158c0,0,0,-296,-116,-479Z" 
id="f3_g"
transform="scale(0.001,-0.001)" />

<path d="M436,206c0,0,131,0,201,62c0,0,70,63,70,175c0,0,0,47,-9,82c0,0,-9,34,-28,61c0,0,-19,27,-44,37c0,0,-26,11,-82,11H296c0,0,-51,-42,-79,-96c0,0,-29,-53,-29,-112c0,0,0,-110,63,-165c0,0,64,-55,185,-55ZM434,-13c0,0,-169,0,-256,94c0,0,-88,94,-88,274c0,0,0,92,29,159c0,0,28,66,76,120H150c0,0,-37,0,-57,32c0,0,-20,33,-20,108c0,0,0,33,8,60c0,0,8,27,21,45c0,0,14,17,25,17c0,0,20,0,20,-10V869c0,0,0,-24,31,-24H588c0,0,56,0,87,-20c0,0,31,-20,61,-81c0,0,30,-60,46,-129c0,0,15,-69,15,-151c0,0,0,-147,-43,-258C754,206,710,94,628,40c0,0,-81,-53,-194,-53Z" 
id="f3_1f"
transform="scale(0.001,-0.001)" />

<path d="M204,-8c0,0,-9,0,-11,5c0,0,-2,5,-2,22V549c0,0,0,40,-4,56c0,0,-4,16,-15,22c0,0,-10,7,-39,7H90c0,0,-33,0,-52,33c0,0,-19,33,-19,90c0,0,0,53,15,98c0,0,16,44,35,44c0,0,12,0,12,-13V872c0,0,0,-27,31,-27h42c0,0,79,0,103,-20c0,0,23,-19,23,-83V67c0,0,0,-16,-8,-26c0,0,-9,-10,-33,-30c0,0,-25,-19,-35,-19Z" 
id="f3_5"
transform="scale(0.001,-0.001)" />

<path d="M13,0L67,212H274c0,0,15,0,19,4c0,0,5,4,5,13c0,0,0,6,-9,22c0,0,-9,16,-19,38c0,0,-11,21,-20,45c0,0,-8,24,-8,48c0,0,0,18,11,89c0,0,11,70,11,102c0,0,0,27,-16,45c0,0,-17,18,-37,18H188c0,0,-89,0,-89,117c0,0,0,52,15,99c0,0,15,47,30,47c0,0,18,0,18,-22c0,0,0,-19,10,-25c0,0,10,-7,39,-7h56c0,0,65,0,86,-15c0,0,21,-16,21,-56c0,0,0,-21,-5,-50c0,0,-38,-172,-38,-258c0,0,0,-63,11,-100c0,0,11,-37,46,-104c0,0,20,-38,20,-58c0,0,0,-16,-10,-74C398,130,388,72,369,0Z" 
id="f3_1a"
transform="scale(0.001,-0.001)" />

<path d="M235,-20c0,0,-31,0,-51,19c0,0,-21,18,-21,50c0,0,0,65,39,120c0,0,39,54,125,109c0,0,56,35,87,56c0,0,32,20,46,33c0,0,79,45,79,143c0,0,0,27,-7,65c0,0,-8,39,-27,49c0,0,-19,10,-85,10H110c0,0,-36,0,-53,21c0,0,-17,22,-25,71c0,0,-7,49,-7,134c0,0,0,62,27,122c0,0,8,15,8,34c0,0,0,23,-35,37c0,0,-21,7,-30,29c0,0,-9,22,-9,72c0,0,0,24,10,46c0,0,8,22,25,38c0,0,16,16,26,16c0,0,17,0,17,-14c0,0,0,-9,7,-17c0,0,7,-8,34,-14c0,0,65,-15,81,-26c0,0,15,-10,15,-31c0,0,0,-15,-15,-38c0,0,-15,-22,-33,-53c0,0,-19,-30,-34,-67c0,0,-15,-36,-15,-79c0,0,0,-43,14,-56c0,0,15,-14,54,-14H518c0,0,39,0,63,-17c0,0,23,-16,33,-53c0,0,10,-36,17,-89c0,0,6,-52,6,-93c0,0,0,-99,-9,-144c0,0,-9,-44,-40,-80c0,0,-31,-36,-110,-86c0,0,-112,-71,-138,-95c0,0,-26,-23,-36,-44c0,0,-9,-20,-9,-43c0,0,0,-11,5,-26c0,0,6,-15,6,-26c0,0,0,-32,-20,-50c0,0,-20,-19,-51,-19Z" 
id="f3_d"
transform="scale(0.001,-0.001)" />

<path d="M38,0L93,212H220c0,0,4,8,7,28c0,0,4,20,4,39c0,0,0,29,-13,61c0,0,-13,31,-29,65c0,0,-15,34,-28,72c0,0,-13,38,-13,81c0,0,0,29,10,54c0,0,9,25,30,60c0,0,-48,0,-68,11c0,0,-19,11,-30,36c0,0,-11,25,-11,71c0,0,0,30,9,54c0,0,8,25,22,40c0,0,14,15,24,15c0,0,17,0,17,-12V875c0,0,0,-30,41,-30h53c0,0,44,0,61,-10c0,0,17,-10,26,-34c0,0,9,-23,9,-67c0,0,0,-38,-6,-57c0,0,-6,-20,-13,-20c0,0,-6,0,-13,4c0,0,-3,4,-17,7c0,0,-14,2,-26,2c0,0,-34,0,-34,-45c0,0,0,-12,9,-34c0,0,8,-22,55,-116c0,0,46,-86,46,-143c0,0,0,-15,-8,-35c0,0,-9,-20,-50,-85H598c0,0,17,0,17,12c0,0,0,19,-6,53c0,0,-5,34,-5,74c0,0,0,80,58,228c0,0,18,46,18,56c0,0,0,15,-12,26c0,0,-12,11,-38,11H602c0,0,-43,0,-62,25c0,0,-19,25,-19,78c0,0,0,47,14,86c0,0,15,38,33,38c0,0,15,0,15,-15V867c0,0,0,-22,31,-22h55c0,0,51,0,78,-20c0,0,27,-20,27,-57c0,0,0,-46,-28,-147c0,0,-40,-145,-40,-253c0,0,0,-33,6,-63c0,0,6,-30,14,-54c0,0,8,-24,14,-42c0,0,7,-19,7,-30c0,0,0,-39,-14,-88C733,91,720,42,701,0Z" 
id="f3_v"
transform="scale(0.001,-0.001)" />

<path d="M139,-317V836H278V-317Z" 
id="f1_3"
transform="scale(0.001,-0.001)" />

<path d="M122,-200c0,0,99,170,148,338c0,0,49,169,49,342c0,0,0,172,-49,340c0,0,-49,168,-148,340H241c0,0,112,-176,168,-345c0,0,55,-169,55,-335c0,0,0,-167,-55,-337c0,0,-56,-168,-168,-343Z" 
id="f1_w"
transform="scale(0.001,-0.001)" />

<path d="M354,-200c0,0,-112,175,-167,343c0,0,-56,170,-56,337c0,0,0,166,55,335c0,0,55,169,168,345H473c0,0,-100,-172,-148,-340c0,0,-48,-168,-48,-340c0,0,0,-173,48,-342c0,0,49,-168,148,-338Z" 
id="f1_v"
transform="scale(0.001,-0.001)" />

<path d="M35,0V34l84,18V649L35,668v33H235l7,-56c0,0,57,32,122,54c0,0,65,21,108,21c0,0,91,0,137,-53c0,0,47,-53,47,-154V52L741,34V0H439V34l93,18V500c0,0,0,62,-30,97c0,0,-31,36,-94,36c0,0,-67,0,-165,-22V52L338,34V0ZM481,834c0,0,-36,0,-66,16c0,0,-30,16,-57,36c0,0,-27,20,-52,36c0,0,-25,16,-49,16c0,0,-24,0,-39,-9c0,0,-14,-9,-23,-26c0,0,-8,-17,-13,-54H143c0,0,11,180,146,180c0,0,36,0,66,-16c0,0,30,-16,57,-35c0,0,27,-20,52,-36c0,0,25,-16,49,-16c0,0,32,0,50,18c0,0,18,19,25,70h39c0,0,-12,-180,-146,-180Z" 
id="f0_1f"
transform="scale(0.001,-0.001)" />

<path d="M66,0V106H322c0,0,75,0,127,23c0,0,53,23,82,67c0,0,29,43,42,98c0,0,13,54,13,124c0,0,0,70,-13,124c0,0,-13,55,-42,98c0,0,-29,44,-82,67c0,0,-52,23,-127,23H66V836H322c0,0,87,0,157,-24c0,0,70,-24,115,-64c0,0,45,-40,74,-94c0,0,30,-55,43,-113c0,0,13,-59,13,-123c0,0,0,-64,-13,-123c0,0,-13,-58,-43,-113c0,0,-29,-54,-74,-94C594,88,549,48,479,24C479,24,409,0,322,0Z" 
id="f1_4"
transform="scale(0.001,-0.001)" />

<path d="M66,0V106H564L66,836H228L516,413c0,0,3,2,9,6c0,0,17,13,27,21c0,0,10,8,26,27c0,0,17,20,26,40c0,0,9,21,16,54c0,0,7,34,7,75V836H764V698c0,0,0,-55,-7,-102c0,0,-7,-47,-16,-79c0,0,-10,-33,-27,-62c0,0,-18,-29,-32,-46c0,0,-14,-17,-37,-35c0,0,-22,-17,-36,-25c0,0,-13,-8,-36,-20L767,53V0Z" 
id="f1_r"
transform="scale(0.001,-0.001)" />

<path d="M41,0V34L426,641H261c0,0,-42,0,-80,-7c0,0,-39,-7,-54,-19L104,515H69V701H586V665L201,60H407c0,0,42,0,89,10c0,0,47,10,66,25l39,147h35L617,0Z" 
id="f0_10"
transform="scale(0.001,-0.001)" />

<path d="M382,45c0,0,188,0,188,314c0,0,0,143,-47,213c0,0,-46,69,-141,69c0,0,-87,0,-146,-24V58c0,0,67,-13,146,-13ZM25,-325v35l88,18V649L34,668v33H231l1,-41c0,0,31,27,84,43c0,0,53,17,107,17c0,0,134,0,208,-94c0,0,73,-93,73,-267c0,0,0,-178,-80,-276c0,0,-80,-97,-232,-97c0,0,-84,0,-160,16c0,0,4,-53,4,-84V-272l123,-18v-35Z" 
id="f0_4"
transform="scale(0.001,-0.001)" />

<path d="M376,50c0,0,103,0,149,80c0,0,46,81,46,240c0,0,0,137,-47,204c0,0,-48,67,-148,67c0,0,-44,0,-87,-7c0,0,-44,-8,-63,-17V62c0,0,63,-12,150,-12Zm3,-64c0,0,-64,0,-141,14c0,0,-78,14,-136,37v971L0,1026v34H226V809c0,0,0,-40,-4,-148c0,0,74,59,188,59c0,0,143,0,219,-87c0,0,77,-87,77,-263c0,0,0,-189,-84,-287c0,0,-84,-97,-243,-97Z" 
id="f0_w"
transform="scale(0.001,-0.001)" />

<path d="M495,0V729H66V836H781V729H634V0Z" 
id="f1_a"
transform="scale(0.001,-0.001)" />

<path d="M359,-270c0,0,124,0,192,46c0,0,67,47,67,129c0,0,0,43,-26,67c0,0,-26,24,-79,24H242c0,0,-32,-27,-51,-69c0,0,-20,-41,-20,-77c0,0,0,-64,46,-92c0,0,46,-28,142,-28Zm11,561c0,0,81,0,115,47c0,0,34,47,34,141c0,0,0,100,-35,142c0,0,-35,42,-113,42c0,0,-78,0,-114,-43c0,0,-37,-42,-37,-141c0,0,0,-98,36,-143c0,0,36,-45,114,-45ZM359,-329c0,0,-143,0,-218,44c0,0,-75,43,-75,125c0,0,0,39,27,78c0,0,26,38,98,89c0,0,-43,14,-72,48c0,0,-29,35,-29,74L208,262c0,0,-118,55,-118,217c0,0,0,115,73,178c0,0,73,63,211,63c0,0,28,0,71,-6c0,0,44,-6,67,-13l165,83l26,-32L599,644c0,0,50,-56,50,-165c0,0,0,-120,-72,-182c0,0,-73,-62,-208,-62c0,0,-62,0,-114,11L208,148c0,0,2,-13,29,-24c0,0,27,-12,67,-12H512c0,0,113,0,168,-49c0,0,55,-49,55,-134c0,0,0,-79,-44,-137c0,0,-43,-58,-128,-90c0,0,-84,-31,-204,-31Z" 
id="f0_z"
transform="scale(0.001,-0.001)" />

<path d="M74,365V472H689V365Z" 
id="f1_u"
transform="scale(0.001,-0.001)" />

<path d="M442,0V33l93,19V504c0,0,0,129,-124,129c0,0,-70,0,-168,-22V52L338,33V0H31V33l88,19v956L15,1026v34H243V756c0,0,0,-77,-5,-112c0,0,54,31,122,53c0,0,68,23,115,23c0,0,91,0,137,-53c0,0,47,-53,47,-154V52L744,33V0Z" 
id="f0_11"
transform="scale(0.001,-0.001)" />

<path d="M179,0V190H336V0Zm0,600V790H336V600Z" 
id="f1_13"
transform="scale(0.001,-0.001)" />

<path d="M289,-14c0,0,-179,0,-179,205V649L20,668v33H233V200c0,0,0,-128,120,-128c0,0,92,0,173,23V649L420,668v33H649V52L738,33V0H533l-6,57C527,57,474,28,405,7c0,0,-69,-21,-116,-21Z" 
id="f0_g"
transform="scale(0.001,-0.001)" />

<path d="M190,0V127H436V977L168,923v137l267,54H586V127H832V0Z" 
id="f1_14"
transform="scale(0.001,-0.001)" />

<path d="M486,98c0,0,107,0,169,58c0,0,62,57,62,157c0,0,0,101,-62,159c0,0,-61,57,-169,57c0,0,-108,0,-169,-57c0,0,-62,-58,-62,-159c0,0,0,-100,62,-158c0,0,61,-57,169,-57Zm-1,549c0,0,97,0,152,49c0,0,54,48,54,135c0,0,0,87,-54,135c0,0,-55,49,-152,49c0,0,-97,0,-151,-49c0,0,-54,-48,-54,-135c0,0,0,-87,54,-135c0,0,54,-49,151,-49Zm0,-667c0,0,-184,0,-283,85c0,0,-98,86,-98,248c0,0,0,107,61,181c0,0,61,74,170,99c0,0,-97,24,-151,90c0,0,-54,67,-54,162c0,0,0,134,95,212c0,0,95,77,260,77c0,0,167,0,261,-77c0,0,95,-78,95,-212c0,0,0,-95,-54,-162c0,0,-54,-66,-151,-90c0,0,109,-25,170,-99c0,0,61,-74,61,-181c0,0,0,-162,-99,-248c0,0,-98,-85,-283,-85Z" 
id="f1_1i"
transform="scale(0.001,-0.001)" />

<path d="M156,-317V454l139,56V-317ZM505,0L806,729H139V835H967V753L650,0Z" 
id="f1_j"
transform="scale(0.001,-0.001)" />

<path d="M147,700v414H274V700Zm282,0v414H556V700Z" 
id="f1_18"
transform="scale(0.001,-0.001)" />

<path d="M159,0V165c0,0,0,69,13,124c0,0,12,55,29,89c0,0,17,33,45,62c0,0,29,28,50,42c0,0,22,14,54,30L128,836H405L666,460c0,0,41,48,41,155V836H952V671c0,0,0,-50,-6,-93c0,0,-6,-42,-16,-73c0,0,-10,-30,-26,-57c0,0,-17,-27,-31,-44c0,0,-15,-17,-37,-33c0,0,-22,-16,-38,-25c0,0,-15,-9,-38,-21L984,0H706L445,376c0,0,-41,-48,-41,-155V0Z" 
id="f2_i"
transform="scale(0.001,-0.001)" />

<path d="M416,68c0,0,60,0,124,32V628c0,0,-58,15,-118,15c0,0,-67,0,-104,-73c0,0,-38,-73,-38,-216c0,0,0,-139,36,-212c0,0,35,-74,100,-74ZM369,-14c0,0,-155,0,-231,88c0,0,-76,90,-76,274c0,0,0,182,82,277c0,0,81,95,236,95c0,0,82,0,165,-20c0,0,-5,24,-5,115V992l-72,18v50H756V67L833,49V0H562L547,40C547,40,505,13,483,4c0,0,-23,-7,-51,-12c0,0,-28,-6,-63,-6Z" 
id="f3_18"
transform="scale(0.001,-0.001)" />

<path d="M434,423c0,0,0,101,-7,142c0,0,-6,40,-22,60c0,0,-16,19,-45,19c0,0,-44,0,-66,-48c0,0,-22,-49,-22,-173ZM389,-14c0,0,-172,0,-254,89c0,0,-83,90,-83,279c0,0,0,184,79,274c0,0,79,91,238,91c0,0,142,0,206,-76c0,0,64,-76,64,-237V345H271V333c0,0,0,-111,18,-158c0,0,18,-47,58,-72c0,0,40,-25,110,-25c0,0,66,0,166,22V42C623,42,582,18,517,1c0,0,-66,-15,-128,-15Z" 
id="f3_j"
transform="scale(0.001,-0.001)" />

<path d="M276,-14c0,0,-57,0,-125,13C151,-1,83,10,48,23V214H97l28,-98c0,0,26,-26,69,-44c0,0,42,-17,86,-17c0,0,65,0,97,28c0,0,32,28,32,71c0,0,0,41,-31,65c0,0,-30,25,-133,57c0,0,-108,34,-154,92c0,0,-45,58,-45,143c0,0,0,95,71,152c0,0,71,57,183,57c0,0,77,0,207,-22V518H457l-24,82c0,0,-21,22,-60,35c0,0,-40,14,-75,14c0,0,-53,0,-79,-22c0,0,-26,-22,-26,-59c0,0,0,-40,32,-65c0,0,32,-26,132,-55c0,0,109,-34,155,-89c0,0,45,-55,45,-137c0,0,0,-117,-72,-177c0,0,-72,-59,-209,-59Z" 
id="f3_x"
transform="scale(0.001,-0.001)" />

<path d="M700,-317V454c0,0,0,155,-54,215c0,0,-54,60,-180,60H277V551c0,0,0,-55,26,-80c0,0,27,-26,82,-26c0,0,30,0,80,10V341c0,0,-61,-11,-111,-11c0,0,-100,0,-157,55c0,0,-58,55,-58,186V836H466c0,0,203,0,288,-91c0,0,85,-92,85,-293V-317Z" 
id="f1_12"
transform="scale(0.001,-0.001)" />

<path d="M66,0V178H507V449c0,0,0,43,-2,71c0,0,-3,28,-12,56c0,0,-9,28,-26,45c0,0,-17,16,-47,27c0,0,-29,10,-72,10H66V836H349c0,0,97,0,167,-17c0,0,71,-17,117,-49c0,0,46,-32,73,-84c0,0,27,-52,38,-114c0,0,11,-62,11,-147V178H866V0Z" 
id="f2_c"
transform="scale(0.001,-0.001)" />

<path d="M139,0V836H386V0Z" 
id="f2_d"
transform="scale(0.001,-0.001)" />

<path d="M137,0L30,830H277L321,522c0,0,68,3,96,27c0,0,27,23,38,58c0,0,26,74,31,228H733c0,0,-31,-218,-70,-316c0,0,-23,-59,-88,-100c0,0,-54,-34,-116,-42c0,0,-62,-8,-117,-8L362,178c0,0,27,-1,61,-1c40,0,89,1,119,6c0,0,57,8,94,25c0,0,37,18,69,47c0,0,32,30,60,79c0,0,28,48,51,117c0,0,48,143,82,384h248c0,0,-53,-404,-172,-586C974,249,879,103,745,51C745,51,613,0,318,0Z" 
id="f2_g"
transform="scale(0.001,-0.001)" />

<path d="M41,0V49l91,18V634L41,652v49H336l8,-145c0,0,80,89,144,128c0,0,64,40,117,40h40V468H604l-45,94c0,0,-47,0,-106,-21c0,0,-60,-20,-105,-48V67L460,49V0Z" 
id="f3_n"
transform="scale(0.001,-0.001)" />


</defs>
</svg>