<?xml version="1.0" encoding="UTF-8" standalone="no"?>
<!DOCTYPE svg PUBLIC "-//W3C//DTD SVG 1.1//EN"
"http://www.w3.org/Graphics/SVG/1.1/DTD/svg11.dtd">
<svg viewBox="0 0 909 1286" version="1.1" xmlns="http://www.w3.org/2000/svg" xmlns:xlink="http://www.w3.org/1999/xlink">
<defs>
<clipPath id="c0_5"><path d="M0,1286.2V0H909.4V1286.2Z" /></clipPath>
<clipPath id="c1_5"><path d="M642.4,481.3V459.9h.3v21.4Z" /></clipPath>
<clipPath id="c2_5"><path d="M642.4,1086.3v-21.4h.3v21.4Z" /></clipPath>
<style type="text/css"><![CDATA[
.g0_5{
fill: #D8D8D8;
}
.g1_5{
fill: none;
stroke: #000000;
stroke-width: 0.7638889;
stroke-linecap: butt;
stroke-linejoin: round;
}
.g2_5{
fill: none;
stroke: #0000FF;
stroke-width: 1.0694444;
stroke-linecap: butt;
stroke-linejoin: miter;
}
]]></style>
</defs>
<path fill-rule="evenodd" d="M323.9,592.9h90.2V567.6H323.9v25.3Z" class="g0_5" />
<path fill-rule="evenodd" d="M237.3,592.9h86.5V567.6H237.3v25.3Z" class="g0_5" />
<path fill-rule="evenodd" d="M128.9,618.2H237.2V592.9H128.9v25.3Z" class="g0_5" />
<path fill-rule="evenodd" d="M128.9,643.6H237.2V618.3H128.9v25.3Z" class="g0_5" />
<path fill-rule="evenodd" d="M128.9,668.9H237.2V643.7H128.9v25.2Z" class="g0_5" />
<path fill-rule="evenodd" d="M128.9,689.1H237.2V669H128.9v20.1Z" class="g0_5" />
<path fill-rule="evenodd" d="M128.9,714.5H237.2V689.2H128.9v25.3Z" class="g0_5" />
<path fill-rule="evenodd" d="M128.9,734.5H237.2v-20H128.9v20Z" class="g0_5" />
<path fill-rule="evenodd" d="M637.8,926.1H761.2V863.2H637.8v62.9Z" class="g0_5" />
<path fill-rule="evenodd" d="M508,926.1H637.8V863.2H508v62.9Z" class="g0_5" />
<path fill-rule="evenodd" d="M356.3,926.1H507.9V863.2H356.3v62.9Z" class="g0_5" />
<path fill-rule="evenodd" d="M237.3,926.1H356.2V863.2H237.3v62.9Z" class="g0_5" />
<path fill-rule="evenodd" d="M128.9,946.1H237.2v-20H128.9v20Z" class="g0_5" />
<path fill-rule="evenodd" d="M128.9,966.2H237.2v-20H128.9v20Z" class="g0_5" />
<path fill-rule="evenodd" d="M128.9,986.3H237.2v-20H128.9v20Z" class="g0_5" />
<path fill-rule="evenodd" d="M128.9,1006.4H237.2V986.3H128.9v20.1Z" class="g0_5" />
<path fill-rule="evenodd" d="M128.9,1026.4H237.2v-19.9H128.9v19.9Z" class="g0_5" />
<path fill-rule="evenodd" d="M323.9,592.9h90.2V567.6H323.9v25.3Z" class="g0_5" />
<path fill-rule="evenodd" d="M237.3,592.9h86.5V567.6H237.3v25.3Z" class="g0_5" />
<path fill-rule="evenodd" d="M128.9,618.2H237.2V592.9H128.9v25.3Z" class="g0_5" />
<path fill-rule="evenodd" d="M128.9,643.6H237.2V618.3H128.9v25.3Z" class="g0_5" />
<path fill-rule="evenodd" d="M128.9,668.9H237.2V643.7H128.9v25.2Z" class="g0_5" />
<path fill-rule="evenodd" d="M128.9,689.1H237.2V669H128.9v20.1Z" class="g0_5" />
<path fill-rule="evenodd" d="M128.9,714.5H237.2V689.2H128.9v25.3Z" class="g0_5" />
<path fill-rule="evenodd" d="M128.9,734.5H237.2v-20H128.9v20Z" class="g0_5" />
<path fill-rule="evenodd" d="M637.8,926.1H761.2V863.2H637.8v62.9Z" class="g0_5" />
<path fill-rule="evenodd" d="M508,926.1H637.8V863.2H508v62.9Z" class="g0_5" />
<path fill-rule="evenodd" d="M356.3,926.1H507.9V863.2H356.3v62.9Z" class="g0_5" />
<path fill-rule="evenodd" d="M237.3,926.1H356.2V863.2H237.3v62.9Z" class="g0_5" />
<path fill-rule="evenodd" d="M128.9,946.1H237.2v-20H128.9v20Z" class="g0_5" />
<path fill-rule="evenodd" d="M128.9,966.2H237.2v-20H128.9v20Z" class="g0_5" />
<path fill-rule="evenodd" d="M128.9,986.3H237.2v-20H128.9v20Z" class="g0_5" />
<path fill-rule="evenodd" d="M128.9,1006.4H237.2V986.3H128.9v20.1Z" class="g0_5" />
<path fill-rule="evenodd" d="M128.9,1026.4H237.2v-19.9H128.9v19.9Z" class="g0_5" />
<g clip-path="url(#c0_5)">
<g fill="#000000" >
<use xlink:href="#f0_6" transform="matrix(16,0,0,16,717.9,151.3)" />
<use xlink:href="#f0_e" transform="matrix(16,0,0,16,729.8,151.3)" />
<use xlink:href="#f0_7" transform="matrix(16,0,0,16,736.3,151.3)" />
<use xlink:href="#f0_8" transform="matrix(16,0,0,16,744.7,151.3)" />
<use xlink:href="#f0_b" transform="matrix(16,0,0,16,757.1,151.3)" />
<use xlink:href="#f0_q" transform="matrix(16,0,0,16,543.4,151.3)" />
<use xlink:href="#f0_r" transform="matrix(16,0,0,16,562.5,151.3)" />
<use xlink:href="#f0_o" transform="matrix(16,0,0,16,576.5,151.3)" />
<use xlink:href="#f0_q" transform="matrix(16,0,0,16,587.7,151.3)" />
<use xlink:href="#f0_l" transform="matrix(16,0,0,16,600.3,151.3)" />
<use xlink:href="#f0_s" transform="matrix(16,0,0,16,611.4,151.3)" />
<use xlink:href="#f0_n" transform="matrix(16,0,0,16,620,151.3)" />
<use xlink:href="#f0_l" transform="matrix(16,0,0,16,627,151.3)" />
<use xlink:href="#f0_q" transform="matrix(16,0,0,16,638.3,151.3)" />
<use xlink:href="#f0_o" transform="matrix(16,0,0,16,650.8,151.3)" />
<use xlink:href="#f1_n" transform="matrix(12,0,0,12,723.8,173.6)" />
<use xlink:href="#f1_d" transform="matrix(12,0,0,12,735,173.6)" />
<use xlink:href="#f1_o" transform="matrix(12,0,0,12,740.3,173.6)" />
<use xlink:href="#f1_4" transform="matrix(12,0,0,12,748.6,173.6)" />
<use xlink:href="#f1_p" transform="matrix(12,0,0,12,759.6,173.6)" />
<use xlink:href="#f1_z" transform="matrix(12,0,0,12,704.6,173.6)" />
<use xlink:href="#f2_6" transform="matrix(12,0,0,12,360.1,173.6)" />
<use xlink:href="#f2_7" transform="matrix(12,0,0,12,372.3,173.6)" />
<use xlink:href="#f2_d" transform="matrix(12,0,0,12,376.4,173.6)" />
<use xlink:href="#f2_f" transform="matrix(12,0,0,12,388.6,173.6)" />
<use xlink:href="#f2_9" transform="matrix(12,0,0,12,399.2,173.6)" />
<use xlink:href="#f2_6" transform="matrix(12,0,0,12,416.9,173.6)" />
<use xlink:href="#f2_7" transform="matrix(12,0,0,12,429.1,173.6)" />
<use xlink:href="#f2_w" transform="matrix(12,0,0,12,433.1,173.6)" />
<use xlink:href="#f2_m" transform="matrix(12,0,0,12,445,173.6)" />
<use xlink:href="#f2_4" transform="matrix(12,0,0,12,456.4,173.6)" />
<use xlink:href="#f2_8" transform="matrix(12,0,0,12,469.4,173.6)" />
<use xlink:href="#f2_9" transform="matrix(12,0,0,12,481.9,173.6)" />
<use xlink:href="#f2_e" transform="matrix(12,0,0,12,499.7,173.6)" />
<use xlink:href="#f2_d" transform="matrix(12,0,0,12,511.7,173.6)" />
<use xlink:href="#f2_e" transform="matrix(12,0,0,12,529.9,173.6)" />
<use xlink:href="#f2_c" transform="matrix(12,0,0,12,541.8,173.6)" />
<use xlink:href="#f2_d" transform="matrix(12,0,0,12,546.8,173.6)" />
<use xlink:href="#f2_8" transform="matrix(12,0,0,12,559,173.6)" />
<use xlink:href="#f2_k" transform="matrix(12,0,0,12,571.5,173.6)" />
<use xlink:href="#f2_c" transform="matrix(12,0,0,12,579,173.6)" />
<use xlink:href="#f2_q" transform="matrix(12,0,0,12,584,173.6)" />
<use xlink:href="#f2_9" transform="matrix(12,0,0,12,594.1,173.6)" />
<use xlink:href="#f2_7" transform="matrix(12,0,0,12,611.8,173.6)" />
<use xlink:href="#f2_m" transform="matrix(12,0,0,12,615.9,173.6)" />
<use xlink:href="#f2_3" transform="matrix(12,0,0,12,627.4,173.6)" />
<use xlink:href="#f2_6" transform="matrix(12,0,0,12,643.6,173.6)" />
<use xlink:href="#f2_k" transform="matrix(12,0,0,12,655.8,173.6)" />
<use xlink:href="#f2_a" transform="matrix(12,0,0,12,663.3,173.6)" />
<use xlink:href="#f2_e" transform="matrix(12,0,0,12,673.7,173.6)" />
<use xlink:href="#f2_12" transform="matrix(12,0,0,12,691.5,173.6)" />
</g>
</g>
<path d="M128.6,197.6H783.4M128.6,219.8H783.4M128.6,241.9H783.4M128.6,264.1H783.4M128.6,286.2H783.4M128.6,308.4H783.4M128.6,330.5H783.4M128.6,352.7H783.4M128.6,374.8H783.4M128.6,397H783.4M128.6,419.1H783.4M128.6,441.3H783.4M128.9,197.2V441.7M540.5,197.2V441.7M783,197.2V441.7" class="g1_5" />
<g clip-path="url(#c0_5)">
<g fill="#000000" >
<use xlink:href="#f3_2" transform="matrix(12,0,0,12,605.5,215)" />
<use xlink:href="#f3_3" transform="matrix(12,0,0,12,611.3,215)" />
<use xlink:href="#f3_4" transform="matrix(12,0,0,12,623.2,215)" />
<use xlink:href="#f3_5" transform="matrix(12,0,0,12,633.7,215)" />
<use xlink:href="#f3_6" transform="matrix(12,0,0,12,638.6,215)" />
<use xlink:href="#f3_8" transform="matrix(12,0,0,12,656.5,215)" />
<use xlink:href="#f3_9" transform="matrix(12,0,0,12,663.6,215)" />
<use xlink:href="#f3_a" transform="matrix(12,0,0,12,675.9,215)" />
<use xlink:href="#f3_3" transform="matrix(12,0,0,12,680,215)" />
<use xlink:href="#f3_b" transform="matrix(12,0,0,12,691.9,215)" />
<use xlink:href="#f3_3" transform="matrix(12,0,0,12,704.9,215)" />
<use xlink:href="#f3_c" transform="matrix(12,0,0,12,716.8,215)" />
<use xlink:href="#f3_d" transform="matrix(12,0,0,12,726.9,215)" />
<use xlink:href="#f3_e" transform="matrix(12,0,0,12,738.3,215)" />
<use xlink:href="#f3_f" transform="matrix(12,0,0,12,750.2,215)" />
<use xlink:href="#f3_3" transform="matrix(12,0,0,12,762.7,215)" />
<use xlink:href="#f4_2" transform="matrix(11,0,0,11,137.7,213.6)" />
<use xlink:href="#f4_3" transform="matrix(11,0,0,11,147.9,213.6)" />
<use xlink:href="#f4_5" transform="matrix(11,0,0,11,156.9,213.6)" />
<use xlink:href="#f4_6" transform="matrix(11,0,0,11,163.3,213.6)" />
<use xlink:href="#f4_7" transform="matrix(11,0,0,11,170.8,213.6)" />
<use xlink:href="#f4_8" transform="matrix(11,0,0,11,177.3,213.6)" />
<use xlink:href="#f4_9" transform="matrix(11,0,0,11,182,213.6)" />
<use xlink:href="#f4_a" transform="matrix(11,0,0,11,190.4,213.6)" />
<use xlink:href="#f4_5" transform="matrix(11,0,0,11,198.7,213.6)" />
<use xlink:href="#f4_9" transform="matrix(11,0,0,11,205.2,213.6)" />
<use xlink:href="#f4_b" transform="matrix(11,0,0,11,213.6,213.6)" />
<use xlink:href="#f4_8" transform="matrix(11,0,0,11,222.1,213.6)" />
<use xlink:href="#f4_6" transform="matrix(11,0,0,11,226.8,213.6)" />
<use xlink:href="#f4_6" transform="matrix(11,0,0,11,238.4,213.6)" />
<use xlink:href="#f4_7" transform="matrix(11,0,0,11,245.8,213.6)" />
<use xlink:href="#f4_c" transform="matrix(11,0,0,11,256.6,213.6)" />
<use xlink:href="#f4_a" transform="matrix(11,0,0,11,265,213.6)" />
<use xlink:href="#f4_6" transform="matrix(11,0,0,11,273.3,213.6)" />
<use xlink:href="#f4_b" transform="matrix(11,0,0,11,280.8,213.6)" />
<use xlink:href="#f4_d" transform="matrix(11,0,0,11,289.2,213.6)" />
<use xlink:href="#f4_e" transform="matrix(11,0,0,11,297.6,213.6)" />
<use xlink:href="#f3_2" transform="matrix(12,0,0,12,666,237.1)" />
<use xlink:href="#f3_3" transform="matrix(12,0,0,12,671.8,237.1)" />
<use xlink:href="#f3_4" transform="matrix(12,0,0,12,683.7,237.1)" />
<use xlink:href="#f3_5" transform="matrix(12,0,0,12,694.2,237.1)" />
<use xlink:href="#f3_6" transform="matrix(12,0,0,12,699.1,237.1)" />
<use xlink:href="#f3_3" transform="matrix(12,0,0,12,717,237.1)" />
<use xlink:href="#f3_c" transform="matrix(12,0,0,12,728.9,237.1)" />
<use xlink:href="#f3_d" transform="matrix(12,0,0,12,738.8,237.1)" />
<use xlink:href="#f3_e" transform="matrix(12,0,0,12,750.3,237.1)" />
<use xlink:href="#f3_f" transform="matrix(12,0,0,12,762.2,237.1)" />
<use xlink:href="#f4_f" transform="matrix(11,0,0,11,137.7,235.7)" />
<use xlink:href="#f4_a" transform="matrix(11,0,0,11,147.9,235.7)" />
<use xlink:href="#f4_6" transform="matrix(11,0,0,11,156.3,235.7)" />
<use xlink:href="#f4_b" transform="matrix(11,0,0,11,163.8,235.7)" />
<use xlink:href="#f4_5" transform="matrix(11,0,0,11,176.4,235.7)" />
<use xlink:href="#f4_6" transform="matrix(11,0,0,11,182.8,235.7)" />
<use xlink:href="#f4_7" transform="matrix(11,0,0,11,190.3,235.7)" />
<use xlink:href="#f4_8" transform="matrix(11,0,0,11,196.9,235.7)" />
<use xlink:href="#f4_9" transform="matrix(11,0,0,11,201.6,235.7)" />
<use xlink:href="#f4_a" transform="matrix(11,0,0,11,210,235.7)" />
<use xlink:href="#f4_5" transform="matrix(11,0,0,11,218.4,235.7)" />
<use xlink:href="#f4_9" transform="matrix(11,0,0,11,224.9,235.7)" />
<use xlink:href="#f4_b" transform="matrix(11,0,0,11,233.3,235.7)" />
<use xlink:href="#f4_8" transform="matrix(11,0,0,11,241.6,235.7)" />
<use xlink:href="#f4_6" transform="matrix(11,0,0,11,246.3,235.7)" />
<use xlink:href="#f4_e" transform="matrix(11,0,0,11,253.8,235.7)" />
<use xlink:href="#f2_j" transform="matrix(12,0,0,12,655.4,259.3)" />
<use xlink:href="#f2_9" transform="matrix(12,0,0,12,661.2,259.3)" />
<use xlink:href="#f2_f" transform="matrix(12,0,0,12,673.1,259.3)" />
<use xlink:href="#f2_c" transform="matrix(12,0,0,12,683.7,259.3)" />
<use xlink:href="#f2_w" transform="matrix(12,0,0,12,688.6,259.3)" />
<use xlink:href="#f2_9" transform="matrix(12,0,0,12,706.4,259.3)" />
<use xlink:href="#f2_7" transform="matrix(12,0,0,12,718.4,259.3)" />
<use xlink:href="#f2_7" transform="matrix(12,0,0,12,722.5,259.3)" />
<use xlink:href="#f2_m" transform="matrix(12,0,0,12,726.6,259.3)" />
<use xlink:href="#f2_d" transform="matrix(12,0,0,12,738,259.3)" />
<use xlink:href="#f2_8" transform="matrix(12,0,0,12,750.2,259.3)" />
<use xlink:href="#f2_9" transform="matrix(12,0,0,12,762.7,259.3)" />
<use xlink:href="#f2_j" transform="matrix(12,0,0,12,667.3,281.4)" />
<use xlink:href="#f2_9" transform="matrix(12,0,0,12,673.1,281.4)" />
<use xlink:href="#f2_f" transform="matrix(12,0,0,12,685.1,281.4)" />
<use xlink:href="#f2_c" transform="matrix(12,0,0,12,695.6,281.4)" />
<use xlink:href="#f2_w" transform="matrix(12,0,0,12,700.6,281.4)" />
<use xlink:href="#f2_9" transform="matrix(12,0,0,12,718.3,281.4)" />
<use xlink:href="#f2_7" transform="matrix(12,0,0,12,730.3,281.4)" />
<use xlink:href="#f2_7" transform="matrix(12,0,0,12,734.4,281.4)" />
<use xlink:href="#f2_m" transform="matrix(12,0,0,12,738.5,281.4)" />
<use xlink:href="#f2_d" transform="matrix(12,0,0,12,749.9,281.4)" />
<use xlink:href="#f2_8" transform="matrix(12,0,0,12,762.1,281.4)" />
<use xlink:href="#f2_j" transform="matrix(12,0,0,12,704.9,303.6)" />
<use xlink:href="#f2_f" transform="matrix(12,0,0,12,710.7,303.6)" />
<use xlink:href="#f2_c" transform="matrix(12,0,0,12,721.3,303.6)" />
<use xlink:href="#f2_w" transform="matrix(12,0,0,12,726.3,303.6)" />
<use xlink:href="#f2_f" transform="matrix(12,0,0,12,744.1,303.6)" />
<use xlink:href="#f2_3" transform="matrix(12,0,0,12,754.7,303.6)" />
<use xlink:href="#f2_i" transform="matrix(12,0,0,12,765.1,303.6)" />
<use xlink:href="#f2_j" transform="matrix(12,0,0,12,701.9,325.7)" />
<use xlink:href="#f2_l" transform="matrix(12,0,0,12,707.7,325.7)" />
<use xlink:href="#f2_a" transform="matrix(12,0,0,12,719,325.7)" />
<use xlink:href="#f2_3" transform="matrix(12,0,0,12,735.3,325.7)" />
<use xlink:href="#f2_c" transform="matrix(12,0,0,12,745.7,325.7)" />
<use xlink:href="#f2_e" transform="matrix(12,0,0,12,750.7,325.7)" />
<use xlink:href="#f2_g" transform="matrix(12,0,0,12,762.8,325.7)" />
<use xlink:href="#f2_j" transform="matrix(12,0,0,12,600.1,347.9)" />
<use xlink:href="#f2_x" transform="matrix(12,0,0,12,605.9,347.9)" />
<use xlink:href="#f2_f" transform="matrix(12,0,0,12,613.1,347.9)" />
<use xlink:href="#f2_c" transform="matrix(12,0,0,12,623.6,347.9)" />
<use xlink:href="#f2_w" transform="matrix(12,0,0,12,628.7,347.9)" />
<use xlink:href="#f2_d" transform="matrix(12,0,0,12,646.4,347.9)" />
<use xlink:href="#f2_b" transform="matrix(12,0,0,12,658.6,347.9)" />
<use xlink:href="#f2_8" transform="matrix(12,0,0,12,669.4,347.9)" />
<use xlink:href="#f2_n" transform="matrix(12,0,0,12,682,347.9)" />
<use xlink:href="#f2_v" transform="matrix(12,0,0,12,689.3,347.9)" />
<use xlink:href="#f2_a" transform="matrix(12,0,0,12,702.3,347.9)" />
<use xlink:href="#f2_q" transform="matrix(12,0,0,12,712.6,347.9)" />
<use xlink:href="#f2_t" transform="matrix(12,0,0,12,722.6,347.9)" />
<use xlink:href="#f2_f" transform="matrix(12,0,0,12,734.5,347.9)" />
<use xlink:href="#f2_7" transform="matrix(12,0,0,12,751,347.9)" />
<use xlink:href="#f2_n" transform="matrix(12,0,0,12,755.1,347.9)" />
<use xlink:href="#f2_d" transform="matrix(12,0,0,12,762.4,347.9)" />
<use xlink:href="#f2_j" transform="matrix(12,0,0,12,667.9,370)" />
<use xlink:href="#f2_a" transform="matrix(12,0,0,12,673.8,370)" />
<use xlink:href="#f2_q" transform="matrix(12,0,0,12,684.1,370)" />
<use xlink:href="#f2_t" transform="matrix(12,0,0,12,694.2,370)" />
<use xlink:href="#f2_f" transform="matrix(12,0,0,12,706.1,370)" />
<use xlink:href="#f2_d" transform="matrix(12,0,0,12,722.4,370)" />
<use xlink:href="#f2_3" transform="matrix(12,0,0,12,734.7,370)" />
<use xlink:href="#f2_7" transform="matrix(12,0,0,12,751,370)" />
<use xlink:href="#f2_n" transform="matrix(12,0,0,12,755.1,370)" />
<use xlink:href="#f2_d" transform="matrix(12,0,0,12,762.5,370)" />
<use xlink:href="#f2_j" transform="matrix(12,0,0,12,662.8,392.2)" />
<use xlink:href="#f2_f" transform="matrix(12,0,0,12,668.6,392.2)" />
<use xlink:href="#f2_c" transform="matrix(12,0,0,12,679.1,392.2)" />
<use xlink:href="#f2_w" transform="matrix(12,0,0,12,684,392.2)" />
<use xlink:href="#f2_q" transform="matrix(12,0,0,12,701.7,392.2)" />
<use xlink:href="#f2_8" transform="matrix(12,0,0,12,711.8,392.2)" />
<use xlink:href="#f2_c" transform="matrix(12,0,0,12,724.1,392.2)" />
<use xlink:href="#f2_3" transform="matrix(12,0,0,12,729.2,392.2)" />
<use xlink:href="#f2_d" transform="matrix(12,0,0,12,745.5,392.2)" />
<use xlink:href="#f2_c" transform="matrix(12,0,0,12,757.7,392.2)" />
<use xlink:href="#f2_9" transform="matrix(12,0,0,12,762.8,392.2)" />
<use xlink:href="#f2_j" transform="matrix(12,0,0,12,673.8,414.3)" />
<use xlink:href="#f2_l" transform="matrix(12,0,0,12,679.6,414.3)" />
<use xlink:href="#f2_a" transform="matrix(12,0,0,12,691,414.3)" />
<use xlink:href="#f2_6" transform="matrix(12,0,0,12,707.2,414.3)" />
<use xlink:href="#f2_7" transform="matrix(12,0,0,12,719.4,414.3)" />
<use xlink:href="#f2_b" transform="matrix(12,0,0,12,723.5,414.3)" />
<use xlink:href="#f2_a" transform="matrix(12,0,0,12,734.2,414.3)" />
<use xlink:href="#f2_6" transform="matrix(12,0,0,12,750.5,414.3)" />
<use xlink:href="#f2_9" transform="matrix(12,0,0,12,762.8,414.3)" />
<use xlink:href="#f2_j" transform="matrix(12,0,0,12,650.2,436.5)" />
<use xlink:href="#f2_f" transform="matrix(12,0,0,12,656,436.5)" />
<use xlink:href="#f2_c" transform="matrix(12,0,0,12,666.6,436.5)" />
<use xlink:href="#f2_w" transform="matrix(12,0,0,12,671.6,436.5)" />
<use xlink:href="#f2_6" transform="matrix(12,0,0,12,689.3,436.5)" />
<use xlink:href="#f2_7" transform="matrix(12,0,0,12,701.5,436.5)" />
<use xlink:href="#f2_g" transform="matrix(12,0,0,12,705.6,436.5)" />
<use xlink:href="#f2_n" transform="matrix(12,0,0,12,717.5,436.5)" />
<use xlink:href="#f2_c" transform="matrix(12,0,0,12,730.8,436.5)" />
<use xlink:href="#f2_n" transform="matrix(12,0,0,12,735.8,436.5)" />
<use xlink:href="#f2_g" transform="matrix(12,0,0,12,743.2,436.5)" />
<use xlink:href="#f2_n" transform="matrix(12,0,0,12,755.1,436.5)" />
<use xlink:href="#f2_d" transform="matrix(12,0,0,12,762.4,436.5)" />
</g>
<g fill="#0000FF" >
<use xlink:href="#f2_3" transform="matrix(12,0,0,12,649.3,477)" />
<use xlink:href="#f2_7" transform="matrix(12,0,0,12,660,477)" />
<use xlink:href="#f2_k" transform="matrix(12,0,0,12,664.5,477)" />
<use xlink:href="#f2_a" transform="matrix(12,0,0,12,672.3,477)" />
<use xlink:href="#f2_e" transform="matrix(12,0,0,12,683.1,477)" />
<use xlink:href="#f2_3" transform="matrix(12,0,0,12,695.5,477)" />
<use xlink:href="#f2_e" transform="matrix(12,0,0,12,712.4,477)" />
<use xlink:href="#f2_c" transform="matrix(12,0,0,12,724.9,477)" />
<use xlink:href="#f2_f" transform="matrix(12,0,0,12,730.3,477)" />
<use xlink:href="#f2_c" transform="matrix(12,0,0,12,741.2,477)" />
<use xlink:href="#f2_4" transform="matrix(12,0,0,12,746.6,477)" />
<use xlink:href="#f2_e" transform="matrix(12,0,0,12,759.8,477)" />
</g>
</g>
<path d="M642.9,478.8H772.1" class="g2_5" />
<g clip-path="url(#c1_5)">
<path d="M642.4,478.8h5.8" class="g2_5" />
</g>
<g clip-path="url(#c0_5)">
<g fill="#0000FF" >
<use xlink:href="#f2_18" transform="matrix(12,0,0,12,630.7,477)" />
</g>
</g>
<path d="M630.7,478.8h11.6" class="g2_5" />
<g clip-path="url(#c0_5)">
<g fill="#000000" >
<use xlink:href="#f0_3" transform="matrix(15.5,0,0,15.5,657.5,521.7)" />
<use xlink:href="#f0_4" transform="matrix(15.5,0,0,15.5,665.8,521.7)" />
<use xlink:href="#f0_5" transform="matrix(15.5,0,0,15.5,672.5,521.7)" />
<use xlink:href="#f0_4" transform="matrix(15.5,0,0,15.5,689.6,521.7)" />
<use xlink:href="#f0_16" transform="matrix(15.5,0,0,15.5,696.1,521.7)" />
<use xlink:href="#f0_9" transform="matrix(15.5,0,0,15.5,710.4,521.7)" />
<use xlink:href="#f0_7" transform="matrix(15.5,0,0,15.5,731.1,521.7)" />
<use xlink:href="#f0_4" transform="matrix(15.5,0,0,15.5,739.4,521.7)" />
<use xlink:href="#f0_8" transform="matrix(15.5,0,0,15.5,745.9,521.7)" />
<use xlink:href="#f0_9" transform="matrix(15.5,0,0,15.5,757.8,521.7)" />
<use xlink:href="#f0_17" transform="matrix(15.5,0,0,15.5,634.9,521.7)" />
<use xlink:href="#f0_6" transform="matrix(15.5,0,0,15.5,550.9,521.7)" />
<use xlink:href="#f0_b" transform="matrix(15.5,0,0,15.5,568.7,521.7)" />
<use xlink:href="#f0_c" transform="matrix(15.5,0,0,15.5,583.5,521.7)" />
<use xlink:href="#f0_d" transform="matrix(15.5,0,0,15.5,595.4,521.7)" />
<use xlink:href="#f0_e" transform="matrix(15.5,0,0,15.5,608.7,521.7)" />
<use xlink:href="#f0_f" transform="matrix(15.5,0,0,15.5,615.1,521.7)" />
<use xlink:href="#f0_18" transform="matrix(15.5,0,0,15.5,534.9,521.7)" />
<use xlink:href="#f2_f" transform="matrix(12,0,0,12,457.1,543.9)" />
<use xlink:href="#f2_6" transform="matrix(12,0,0,12,473.5,543.9)" />
<use xlink:href="#f2_7" transform="matrix(12,0,0,12,485.7,543.9)" />
<use xlink:href="#f2_8" transform="matrix(12,0,0,12,489.8,543.9)" />
<use xlink:href="#f2_7" transform="matrix(12,0,0,12,502.2,543.9)" />
<use xlink:href="#f2_7" transform="matrix(12,0,0,12,506.3,543.9)" />
<use xlink:href="#f2_e" transform="matrix(12,0,0,12,510.4,543.9)" />
<use xlink:href="#f2_t" transform="matrix(12,0,0,12,522.4,543.9)" />
<use xlink:href="#f2_8" transform="matrix(12,0,0,12,534.3,543.9)" />
<use xlink:href="#f2_9" transform="matrix(12,0,0,12,546.8,543.9)" />
<use xlink:href="#f2_6" transform="matrix(12,0,0,12,564.6,543.9)" />
<use xlink:href="#f2_7" transform="matrix(12,0,0,12,576.8,543.9)" />
<use xlink:href="#f2_3" transform="matrix(12,0,0,12,580.9,543.9)" />
<use xlink:href="#f2_l" transform="matrix(12,0,0,12,591.3,543.9)" />
<use xlink:href="#f2_m" transform="matrix(12,0,0,12,602.7,543.9)" />
<use xlink:href="#f2_f" transform="matrix(12,0,0,12,614.2,543.9)" />
<use xlink:href="#f2_6" transform="matrix(12,0,0,12,630.5,543.9)" />
<use xlink:href="#f2_7" transform="matrix(12,0,0,12,642.7,543.9)" />
<use xlink:href="#f2_7" transform="matrix(12,0,0,12,646.7,543.9)" />
<use xlink:href="#f2_p" transform="matrix(12,0,0,12,650.8,543.9)" />
<use xlink:href="#f2_9" transform="matrix(12,0,0,12,669.7,543.9)" />
<use xlink:href="#f2_o" transform="matrix(12,0,0,12,681.7,543.9)" />
<use xlink:href="#f2_k" transform="matrix(12,0,0,12,693.9,543.9)" />
<use xlink:href="#f2_7" transform="matrix(12,0,0,12,701.4,543.9)" />
<use xlink:href="#f2_a" transform="matrix(12,0,0,12,705.5,543.9)" />
<use xlink:href="#f2_g" transform="matrix(12,0,0,12,715.8,543.9)" />
<use xlink:href="#f2_3" transform="matrix(12,0,0,12,733.7,543.9)" />
<use xlink:href="#f2_l" transform="matrix(12,0,0,12,744.1,543.9)" />
<use xlink:href="#f2_c" transform="matrix(12,0,0,12,755.5,543.9)" />
<use xlink:href="#f2_m" transform="matrix(12,0,0,12,760.4,543.9)" />
<use xlink:href="#f5_4" transform="matrix(11,0,0,11,440.8,543.9)" />
<use xlink:href="#f5_3" transform="matrix(11,0,0,11,445.4,543.9)" />
<use xlink:href="#f2_j" transform="matrix(12,0,0,12,435.1,543.9)" />
</g>
</g>
<path d="M236.9,568H414.6m-286,25.3h286m-286,25.4h286M128.6,644h286m-286,25.4h286m-286,20.2h286m-286,25.3h286m-286,20h286M128.9,592.9V735.3M237.3,567.6V735.3M414.2,567.6V735.3" class="g1_5" />
<g clip-path="url(#c0_5)">
<g fill="#000000" >
<use xlink:href="#f2_4" transform="matrix(12,0,0,12,359.2,585.4)" />
<use xlink:href="#f2_p" transform="matrix(12,0,0,12,372.2,585.4)" />
<use xlink:href="#f2_f" transform="matrix(12,0,0,12,385.1,585.4)" />
<use xlink:href="#f2_3" transform="matrix(12,0,0,12,395.7,585.4)" />
<use xlink:href="#f5_u" transform="matrix(11,0,0,11,246,588.3)" />
<use xlink:href="#f0_p" transform="matrix(14,0,0,14,254.4,588.3)" />
<use xlink:href="#f5_e" transform="matrix(11,0,0,11,263.8,588.3)" />
<use xlink:href="#f5_4" transform="matrix(11,0,0,11,272.3,588.3)" />
<use xlink:href="#f5_3" transform="matrix(11,0,0,11,277,588.3)" />
<use xlink:href="#f5_u" transform="matrix(11,0,0,11,246,613.7)" />
<use xlink:href="#f0_n" transform="matrix(14,0,0,14,254.4,613.7)" />
<use xlink:href="#f5_e" transform="matrix(11,0,0,11,260.3,613.7)" />
<use xlink:href="#f5_8" transform="matrix(11,0,0,11,268.7,613.7)" />
<use xlink:href="#f5_7" transform="matrix(11,0,0,11,137.7,609.4)" />
<use xlink:href="#f5_8" transform="matrix(11,0,0,11,146.1,609.4)" />
<use xlink:href="#f5_u" transform="matrix(11,0,0,11,246,639.1)" />
<use xlink:href="#f0_n" transform="matrix(14,0,0,14,254.4,639.1)" />
<use xlink:href="#f5_e" transform="matrix(11,0,0,11,260.3,639.1)" />
<use xlink:href="#f5_2" transform="matrix(11,0,0,11,268.7,639.1)" />
<use xlink:href="#f5_g" transform="matrix(11,0,0,11,276.2,639.1)" />
<use xlink:href="#f5_h" transform="matrix(11,0,0,11,137.7,634.8)" />
<use xlink:href="#f5_i" transform="matrix(11,0,0,11,142.4,634.8)" />
<use xlink:href="#f5_u" transform="matrix(11,0,0,11,246,664.4)" />
<use xlink:href="#f0_n" transform="matrix(14,0,0,14,254.4,664.4)" />
<use xlink:href="#f5_e" transform="matrix(11,0,0,11,260.3,664.4)" />
<use xlink:href="#f5_2" transform="matrix(11,0,0,11,268.7,664.4)" />
<use xlink:href="#f5_k" transform="matrix(11,0,0,11,137.7,660.2)" />
<use xlink:href="#f5_l" transform="matrix(11,0,0,11,145.1,660.2)" />
<use xlink:href="#f5_6" transform="matrix(11,0,0,11,149.7,660.2)" />
<use xlink:href="#f5_2" transform="matrix(11,0,0,11,154.4,660.2)" />
<use xlink:href="#f5_l" transform="matrix(11,0,0,11,161.9,660.2)" />
<use xlink:href="#f5_l" transform="matrix(11,0,0,11,166.5,660.2)" />
<use xlink:href="#f5_m" transform="matrix(11,0,0,11,171.2,660.2)" />
<use xlink:href="#f5_6" transform="matrix(11,0,0,11,178.7,660.2)" />
<use xlink:href="#f5_n" transform="matrix(11,0,0,11,183.4,660.2)" />
<use xlink:href="#f5_e" transform="matrix(11,0,0,11,195.4,660.2)" />
<use xlink:href="#f5_o" transform="matrix(11,0,0,11,203.8,660.2)" />
<use xlink:href="#f5_u" transform="matrix(11,0,0,11,246,685.5)" />
<use xlink:href="#f5_2" transform="matrix(11,0,0,11,254.4,685.5)" />
<use xlink:href="#f5_e" transform="matrix(11,0,0,11,261.8,685.5)" />
<use xlink:href="#f5_4" transform="matrix(11,0,0,11,270.2,685.5)" />
<use xlink:href="#f5_p" transform="matrix(11,0,0,11,274.8,685.5)" />
<use xlink:href="#f5_8" transform="matrix(11,0,0,11,288,685.5)" />
<use xlink:href="#f5_g" transform="matrix(11,0,0,11,296.4,685.5)" />
<use xlink:href="#f5_a" transform="matrix(11,0,0,11,137.7,685.5)" />
<use xlink:href="#f5_8" transform="matrix(11,0,0,11,146.1,685.5)" />
<use xlink:href="#f5_g" transform="matrix(11,0,0,11,154.5,685.5)" />
<use xlink:href="#f5_8" transform="matrix(11,0,0,11,161,685.5)" />
<use xlink:href="#f5_h" transform="matrix(11,0,0,11,169.4,685.5)" />
<use xlink:href="#f5_3" transform="matrix(11,0,0,11,174,685.5)" />
<use xlink:href="#f5_8" transform="matrix(11,0,0,11,179.6,685.5)" />
<use xlink:href="#f5_g" transform="matrix(11,0,0,11,188,685.5)" />
<use xlink:href="#f5_6" transform="matrix(11,0,0,11,194.6,685.5)" />
<use xlink:href="#f5_m" transform="matrix(11,0,0,11,199.3,685.5)" />
<use xlink:href="#f5_g" transform="matrix(11,0,0,11,206.6,685.5)" />
<use xlink:href="#f5_u" transform="matrix(11,0,0,11,246,710)" />
<use xlink:href="#f0_n" transform="matrix(14,0,0,14,254.4,710)" />
<use xlink:href="#f5_e" transform="matrix(11,0,0,11,260.3,710)" />
<use xlink:href="#f5_2" transform="matrix(11,0,0,11,268.7,710)" />
<use xlink:href="#f5_a" transform="matrix(11,0,0,11,276.2,710)" />
<use xlink:href="#f5_2" transform="matrix(11,0,0,11,137.7,705.5)" />
<use xlink:href="#f5_l" transform="matrix(11,0,0,11,145.1,705.5)" />
<use xlink:href="#f5_l" transform="matrix(11,0,0,11,149.7,705.5)" />
<use xlink:href="#f5_8" transform="matrix(11,0,0,11,154.4,705.5)" />
<use xlink:href="#f5_g" transform="matrix(11,0,0,11,162.8,705.5)" />
<use xlink:href="#f5_6" transform="matrix(11,0,0,11,169.4,705.5)" />
<use xlink:href="#f5_m" transform="matrix(11,0,0,11,174.1,705.5)" />
<use xlink:href="#f5_g" transform="matrix(11,0,0,11,181.4,705.5)" />
<use xlink:href="#f5_6" transform="matrix(11,0,0,11,188,705.5)" />
<use xlink:href="#f5_n" transform="matrix(11,0,0,11,192.7,705.5)" />
<use xlink:href="#f5_e" transform="matrix(11,0,0,11,204.8,705.5)" />
<use xlink:href="#f5_g" transform="matrix(11,0,0,11,213.2,705.5)" />
<use xlink:href="#f5_o" transform="matrix(11,0,0,11,219.7,705.5)" />
<use xlink:href="#f5_u" transform="matrix(11,0,0,11,246,730.9)" />
<use xlink:href="#f5_2" transform="matrix(11,0,0,11,254.4,730.9)" />
<use xlink:href="#f5_e" transform="matrix(11,0,0,11,261.8,730.9)" />
<use xlink:href="#f5_q" transform="matrix(11,0,0,11,270.2,730.9)" />
<use xlink:href="#f5_g" transform="matrix(11,0,0,11,275,730.9)" />
<use xlink:href="#f5_s" transform="matrix(11,0,0,11,137.7,730.9)" />
<use xlink:href="#f5_8" transform="matrix(11,0,0,11,146.1,730.9)" />
<use xlink:href="#f5_g" transform="matrix(11,0,0,11,154.5,730.9)" />
<use xlink:href="#f5_8" transform="matrix(11,0,0,11,161,730.9)" />
<use xlink:href="#f5_h" transform="matrix(11,0,0,11,169.4,730.9)" />
<use xlink:href="#f5_3" transform="matrix(11,0,0,11,174,730.9)" />
<use xlink:href="#f5_8" transform="matrix(11,0,0,11,179.6,730.9)" />
<use xlink:href="#f5_g" transform="matrix(11,0,0,11,188,730.9)" />
<use xlink:href="#f5_6" transform="matrix(11,0,0,11,194.6,730.9)" />
<use xlink:href="#f5_m" transform="matrix(11,0,0,11,199.3,730.9)" />
<use xlink:href="#f5_g" transform="matrix(11,0,0,11,206.6,730.9)" />
<use xlink:href="#f0_6" transform="matrix(16,0,0,16,717.9,795.8)" />
<use xlink:href="#f0_e" transform="matrix(16,0,0,16,729.8,795.8)" />
<use xlink:href="#f0_7" transform="matrix(16,0,0,16,736.3,795.8)" />
<use xlink:href="#f0_8" transform="matrix(16,0,0,16,744.7,795.8)" />
<use xlink:href="#f0_b" transform="matrix(16,0,0,16,757.1,795.8)" />
<use xlink:href="#f0_q" transform="matrix(16,0,0,16,543.4,795.8)" />
<use xlink:href="#f0_r" transform="matrix(16,0,0,16,562.5,795.8)" />
<use xlink:href="#f0_o" transform="matrix(16,0,0,16,576.5,795.8)" />
<use xlink:href="#f0_q" transform="matrix(16,0,0,16,587.7,795.8)" />
<use xlink:href="#f0_l" transform="matrix(16,0,0,16,600.3,795.8)" />
<use xlink:href="#f0_s" transform="matrix(16,0,0,16,611.4,795.8)" />
<use xlink:href="#f0_n" transform="matrix(16,0,0,16,620,795.8)" />
<use xlink:href="#f0_l" transform="matrix(16,0,0,16,627,795.8)" />
<use xlink:href="#f0_q" transform="matrix(16,0,0,16,638.3,795.8)" />
<use xlink:href="#f0_o" transform="matrix(16,0,0,16,650.8,795.8)" />
<use xlink:href="#f1_n" transform="matrix(12,0,0,12,723.8,818.1)" />
<use xlink:href="#f1_d" transform="matrix(12,0,0,12,735,818.1)" />
<use xlink:href="#f1_o" transform="matrix(12,0,0,12,740.3,818.1)" />
<use xlink:href="#f1_4" transform="matrix(12,0,0,12,748.6,818.1)" />
<use xlink:href="#f1_p" transform="matrix(12,0,0,12,759.6,818.1)" />
<use xlink:href="#f1_6" transform="matrix(12,0,0,12,703.8,818.1)" />
<use xlink:href="#f2_c" transform="matrix(12,0,0,12,138.7,818.1)" />
<use xlink:href="#f2_f" transform="matrix(12,0,0,12,143.7,818.1)" />
<use xlink:href="#f2_3" transform="matrix(12,0,0,12,160.8,818.1)" />
<use xlink:href="#f2_l" transform="matrix(12,0,0,12,171.2,818.1)" />
<use xlink:href="#f2_c" transform="matrix(12,0,0,12,182.7,818.1)" />
<use xlink:href="#f2_m" transform="matrix(12,0,0,12,187.7,818.1)" />
<use xlink:href="#f2_f" transform="matrix(12,0,0,12,199.1,818.1)" />
<use xlink:href="#f2_7" transform="matrix(12,0,0,12,216.2,818.1)" />
<use xlink:href="#f2_i" transform="matrix(12,0,0,12,220.3,818.1)" />
<use xlink:href="#f2_f" transform="matrix(12,0,0,12,236.6,818.1)" />
<use xlink:href="#f2_3" transform="matrix(12,0,0,12,247.2,818.1)" />
<use xlink:href="#f2_6" transform="matrix(12,0,0,12,264.1,818.1)" />
<use xlink:href="#f2_7" transform="matrix(12,0,0,12,276.3,818.1)" />
<use xlink:href="#f2_4" transform="matrix(12,0,0,12,280.4,818.1)" />
<use xlink:href="#f2_j" transform="matrix(12,0,0,12,300.1,818.1)" />
<use xlink:href="#f2_k" transform="matrix(12,0,0,12,305.9,818.1)" />
<use xlink:href="#f2_7" transform="matrix(12,0,0,12,313.4,818.1)" />
<use xlink:href="#f2_a" transform="matrix(12,0,0,12,317.5,818.1)" />
<use xlink:href="#f2_g" transform="matrix(12,0,0,12,327.9,818.1)" />
<use xlink:href="#f2_9" transform="matrix(12,0,0,12,339.8,818.1)" />
<use xlink:href="#f2_3" transform="matrix(12,0,0,12,358.4,818.1)" />
<use xlink:href="#f2_3" transform="matrix(12,0,0,12,368.8,818.1)" />
<use xlink:href="#f2_i" transform="matrix(12,0,0,12,379.2,818.1)" />
<use xlink:href="#f2_7" transform="matrix(12,0,0,12,395.3,818.1)" />
<use xlink:href="#f2_m" transform="matrix(12,0,0,12,399.4,818.1)" />
<use xlink:href="#f2_3" transform="matrix(12,0,0,12,410.9,818.1)" />
<use xlink:href="#f2_6" transform="matrix(12,0,0,12,428,818.1)" />
<use xlink:href="#f2_7" transform="matrix(12,0,0,12,440.2,818.1)" />
<use xlink:href="#f2_d" transform="matrix(12,0,0,12,444.3,818.1)" />
<use xlink:href="#f2_f" transform="matrix(12,0,0,12,456.5,818.1)" />
<use xlink:href="#f2_9" transform="matrix(12,0,0,12,467.1,818.1)" />
<use xlink:href="#f2_6" transform="matrix(12,0,0,12,485.5,818.1)" />
<use xlink:href="#f2_7" transform="matrix(12,0,0,12,497.7,818.1)" />
<use xlink:href="#f2_3" transform="matrix(12,0,0,12,501.8,818.1)" />
<use xlink:href="#f2_l" transform="matrix(12,0,0,12,512.2,818.1)" />
<use xlink:href="#f2_m" transform="matrix(12,0,0,12,523.7,818.1)" />
<use xlink:href="#f2_9" transform="matrix(12,0,0,12,535.1,818.1)" />
<use xlink:href="#f2_e" transform="matrix(12,0,0,12,553.6,818.1)" />
<use xlink:href="#f2_l" transform="matrix(12,0,0,12,565.6,818.1)" />
<use xlink:href="#f2_f" transform="matrix(12,0,0,12,577.1,818.1)" />
<use xlink:href="#f2_a" transform="matrix(12,0,0,12,587.6,818.1)" />
<use xlink:href="#f2_d" transform="matrix(12,0,0,12,598,818.1)" />
<use xlink:href="#f2_e" transform="matrix(12,0,0,12,616.9,818.1)" />
<use xlink:href="#f2_d" transform="matrix(12,0,0,12,629,818.1)" />
<use xlink:href="#f2_9" transform="matrix(12,0,0,12,647.9,818.1)" />
<use xlink:href="#f2_w" transform="matrix(12,0,0,12,659.8,818.1)" />
<use xlink:href="#f2_9" transform="matrix(12,0,0,12,671.7,818.1)" />
<use xlink:href="#f2_12" transform="matrix(12,0,0,12,690.1,818.1)" />
<use xlink:href="#f2_e" transform="matrix(12,0,0,12,658.9,839.5)" />
<use xlink:href="#f2_c" transform="matrix(12,0,0,12,670.9,839.5)" />
<use xlink:href="#f2_7" transform="matrix(12,0,0,12,675.9,839.5)" />
<use xlink:href="#f2_e" transform="matrix(12,0,0,12,680,839.5)" />
<use xlink:href="#f2_c" transform="matrix(12,0,0,12,692,839.5)" />
<use xlink:href="#f2_d" transform="matrix(12,0,0,12,697.1,839.5)" />
<use xlink:href="#f2_9" transform="matrix(12,0,0,12,715.1,839.5)" />
<use xlink:href="#f2_8" transform="matrix(12,0,0,12,727,839.5)" />
<use xlink:href="#f2_i" transform="matrix(12,0,0,12,739.5,839.5)" />
<use xlink:href="#f2_4" transform="matrix(12,0,0,12,754.9,839.5)" />
<use xlink:href="#f2_7" transform="matrix(12,0,0,12,767.9,839.5)" />
<use xlink:href="#f5_2" transform="matrix(11,0,0,11,645.3,839.5)" />
<use xlink:href="#f2_j" transform="matrix(12,0,0,12,342.7,839.5)" />
<use xlink:href="#f2_a" transform="matrix(12,0,0,12,348.5,839.5)" />
<use xlink:href="#f2_e" transform="matrix(12,0,0,12,358.7,839.5)" />
<use xlink:href="#f2_c" transform="matrix(12,0,0,12,370.8,839.5)" />
<use xlink:href="#f2_7" transform="matrix(12,0,0,12,375.8,839.5)" />
<use xlink:href="#f2_f" transform="matrix(12,0,0,12,379.9,839.5)" />
<use xlink:href="#f2_9" transform="matrix(12,0,0,12,396.4,839.5)" />
<use xlink:href="#f2_n" transform="matrix(12,0,0,12,408.3,839.5)" />
<use xlink:href="#f2_c" transform="matrix(12,0,0,12,415.6,839.5)" />
<use xlink:href="#f2_a" transform="matrix(12,0,0,12,420.7,839.5)" />
<use xlink:href="#f2_g" transform="matrix(12,0,0,12,431,839.5)" />
<use xlink:href="#f2_d" transform="matrix(12,0,0,12,442.9,839.5)" />
<use xlink:href="#f2_9" transform="matrix(12,0,0,12,455.2,839.5)" />
<use xlink:href="#f2_e" transform="matrix(12,0,0,12,473,839.5)" />
<use xlink:href="#f2_c" transform="matrix(12,0,0,12,485.1,839.5)" />
<use xlink:href="#f2_d" transform="matrix(12,0,0,12,490.1,839.5)" />
<use xlink:href="#f2_9" transform="matrix(12,0,0,12,502.3,839.5)" />
<use xlink:href="#f2_e" transform="matrix(12,0,0,12,520.1,839.5)" />
<use xlink:href="#f2_d" transform="matrix(12,0,0,12,532.1,839.5)" />
<use xlink:href="#f2_z" transform="matrix(12,0,0,12,550.3,839.5)" />
<use xlink:href="#f2_7" transform="matrix(12,0,0,12,562,839.5)" />
<use xlink:href="#f2_3" transform="matrix(12,0,0,12,566.1,839.5)" />
<use xlink:href="#f2_g" transform="matrix(12,0,0,12,576.5,839.5)" />
<use xlink:href="#f2_9" transform="matrix(12,0,0,12,588.4,839.5)" />
<use xlink:href="#f2_3" transform="matrix(12,0,0,12,600.4,839.5)" />
<use xlink:href="#f2_4" transform="matrix(12,0,0,12,616.6,839.5)" />
<use xlink:href="#f2_7" transform="matrix(12,0,0,12,629.5,839.5)" />
<use xlink:href="#f2_s" transform="matrix(12,0,0,12,639.5,839.5)" />
</g>
</g>
<path d="M236.9,863.6H761.7M128.6,926.5H761.7m-633.1,20H761.7M128.6,966.7H761.7m-633.1,20H761.7m-633.1,20.2H761.7m-633.1,20H761.7M128.9,926.1v101.2M237.3,863.2v164.1m119,-164.1v164.1M508,863.2v164.1M637.8,863.2v164.1M761.3,863.2v164.1" class="g1_5" />
<g clip-path="url(#c0_5)">
<g fill="#000000" >
<use xlink:href="#f2_p" transform="matrix(12,0,0,12,701.9,881.1)" />
<use xlink:href="#f2_c" transform="matrix(12,0,0,12,714.8,881.1)" />
<use xlink:href="#f2_g" transform="matrix(12,0,0,12,719.9,881.1)" />
<use xlink:href="#f2_b" transform="matrix(12,0,0,12,731.8,881.1)" />
<use xlink:href="#f2_3" transform="matrix(12,0,0,12,742.6,881.1)" />
<use xlink:href="#f5_3" transform="matrix(11,0,0,11,646.7,901.1)" />
<use xlink:href="#f5_2" transform="matrix(11,0,0,11,652.2,901.1)" />
<use xlink:href="#f5_q" transform="matrix(11,0,0,11,659.7,901.1)" />
<use xlink:href="#f5_3" transform="matrix(11,0,0,11,664.4,901.1)" />
<use xlink:href="#f2_2" transform="matrix(12,0,0,12,589.4,881.1)" />
<use xlink:href="#f2_7" transform="matrix(12,0,0,12,599.2,881.1)" />
<use xlink:href="#f2_7" transform="matrix(12,0,0,12,603.3,881.1)" />
<use xlink:href="#f2_g" transform="matrix(12,0,0,12,607.4,881.1)" />
<use xlink:href="#f2_3" transform="matrix(12,0,0,12,619.3,881.1)" />
<use xlink:href="#f5_g" transform="matrix(11,0,0,11,516.7,901.1)" />
<use xlink:href="#f5_8" transform="matrix(11,0,0,11,523.2,901.1)" />
<use xlink:href="#f5_a" transform="matrix(11,0,0,11,531.7,901.1)" />
<use xlink:href="#f5_3" transform="matrix(11,0,0,11,540.1,901.1)" />
<use xlink:href="#f5_2" transform="matrix(11,0,0,11,545.7,901.1)" />
<use xlink:href="#f5_q" transform="matrix(11,0,0,11,553,901.1)" />
<use xlink:href="#f5_3" transform="matrix(11,0,0,11,557.7,901.1)" />
<use xlink:href="#f2_4" transform="matrix(12,0,0,12,439.4,881.1)" />
<use xlink:href="#f2_7" transform="matrix(12,0,0,12,452.4,881.1)" />
<use xlink:href="#f2_f" transform="matrix(12,0,0,12,456.5,881.1)" />
<use xlink:href="#f2_3" transform="matrix(12,0,0,12,467,881.1)" />
<use xlink:href="#f2_9" transform="matrix(12,0,0,12,477.4,881.1)" />
<use xlink:href="#f2_3" transform="matrix(12,0,0,12,489.3,881.1)" />
<use xlink:href="#f5_s" transform="matrix(11,0,0,11,365.1,901.1)" />
<use xlink:href="#f5_2" transform="matrix(11,0,0,11,373.5,901.1)" />
<use xlink:href="#f5_g" transform="matrix(11,0,0,11,380.9,901.1)" />
<use xlink:href="#f5_h" transform="matrix(11,0,0,11,387.4,901.1)" />
<use xlink:href="#f5_4" transform="matrix(11,0,0,11,392.1,901.1)" />
<use xlink:href="#f5_3" transform="matrix(11,0,0,11,396.7,901.1)" />
<use xlink:href="#f2_w" transform="matrix(12,0,0,12,285.4,881.1)" />
<use xlink:href="#f2_7" transform="matrix(12,0,0,12,297.3,881.1)" />
<use xlink:href="#f2_4" transform="matrix(12,0,0,12,301.4,881.1)" />
<use xlink:href="#f2_m" transform="matrix(12,0,0,12,314.4,881.1)" />
<use xlink:href="#f2_9" transform="matrix(12,0,0,12,325.8,881.1)" />
<use xlink:href="#f2_3" transform="matrix(12,0,0,12,337.7,881.1)" />
<use xlink:href="#f2_x" transform="matrix(12,0,0,12,305.7,902.5)" />
<use xlink:href="#f2_q" transform="matrix(12,0,0,12,312.9,902.5)" />
<use xlink:href="#f2_k" transform="matrix(12,0,0,12,322.9,902.5)" />
<use xlink:href="#f2_f" transform="matrix(12,0,0,12,330.4,902.5)" />
<use xlink:href="#f2_v" transform="matrix(12,0,0,12,341,902.5)" />
<use xlink:href="#f5_e" transform="matrix(11,0,0,11,246.1,922.5)" />
<use xlink:href="#f5_2" transform="matrix(11,0,0,11,254.5,922.5)" />
<use xlink:href="#f5_g" transform="matrix(11,0,0,11,261.9,922.5)" />
<use xlink:href="#f5_s" transform="matrix(11,0,0,11,268.4,922.5)" />
<use xlink:href="#f5_2" transform="matrix(11,0,0,11,276.8,922.5)" />
<use xlink:href="#f5_g" transform="matrix(11,0,0,11,284.3,922.5)" />
<use xlink:href="#f5_h" transform="matrix(11,0,0,11,290.8,922.5)" />
<use xlink:href="#f5_4" transform="matrix(11,0,0,11,295.4,922.5)" />
<use xlink:href="#f5_3" transform="matrix(11,0,0,11,300.1,922.5)" />
<use xlink:href="#f5_7" transform="matrix(11,0,0,11,137.7,942.5)" />
<use xlink:href="#f5_8" transform="matrix(11,0,0,11,146.1,942.5)" />
<use xlink:href="#f5_h" transform="matrix(11,0,0,11,137.7,962.7)" />
<use xlink:href="#f5_i" transform="matrix(11,0,0,11,142.4,962.7)" />
<use xlink:href="#f5_k" transform="matrix(11,0,0,11,137.7,982.7)" />
<use xlink:href="#f5_l" transform="matrix(11,0,0,11,145.1,982.7)" />
<use xlink:href="#f5_6" transform="matrix(11,0,0,11,149.7,982.7)" />
<use xlink:href="#f5_2" transform="matrix(11,0,0,11,154.4,982.7)" />
<use xlink:href="#f5_l" transform="matrix(11,0,0,11,161.9,982.7)" />
<use xlink:href="#f5_l" transform="matrix(11,0,0,11,166.5,982.7)" />
<use xlink:href="#f5_m" transform="matrix(11,0,0,11,171.2,982.7)" />
<use xlink:href="#f5_6" transform="matrix(11,0,0,11,178.7,982.7)" />
<use xlink:href="#f5_n" transform="matrix(11,0,0,11,183.4,982.7)" />
<use xlink:href="#f5_e" transform="matrix(11,0,0,11,195.4,982.7)" />
<use xlink:href="#f5_o" transform="matrix(11,0,0,11,203.8,982.7)" />
<use xlink:href="#f5_a" transform="matrix(11,0,0,11,137.7,1002.8)" />
<use xlink:href="#f5_8" transform="matrix(11,0,0,11,146.1,1002.8)" />
<use xlink:href="#f5_g" transform="matrix(11,0,0,11,154.5,1002.8)" />
<use xlink:href="#f5_8" transform="matrix(11,0,0,11,161,1002.8)" />
<use xlink:href="#f5_h" transform="matrix(11,0,0,11,169.4,1002.8)" />
<use xlink:href="#f5_3" transform="matrix(11,0,0,11,174,1002.8)" />
<use xlink:href="#f5_8" transform="matrix(11,0,0,11,179.6,1002.8)" />
<use xlink:href="#f5_g" transform="matrix(11,0,0,11,188,1002.8)" />
<use xlink:href="#f5_6" transform="matrix(11,0,0,11,194.6,1002.8)" />
<use xlink:href="#f5_m" transform="matrix(11,0,0,11,199.3,1002.8)" />
<use xlink:href="#f5_g" transform="matrix(11,0,0,11,206.6,1002.8)" />
<use xlink:href="#f5_2" transform="matrix(11,0,0,11,137.7,1022.8)" />
<use xlink:href="#f5_l" transform="matrix(11,0,0,11,145.1,1022.8)" />
<use xlink:href="#f5_l" transform="matrix(11,0,0,11,149.7,1022.8)" />
<use xlink:href="#f5_8" transform="matrix(11,0,0,11,154.4,1022.8)" />
<use xlink:href="#f5_g" transform="matrix(11,0,0,11,162.8,1022.8)" />
<use xlink:href="#f5_6" transform="matrix(11,0,0,11,169.4,1022.8)" />
<use xlink:href="#f5_m" transform="matrix(11,0,0,11,174.1,1022.8)" />
<use xlink:href="#f5_g" transform="matrix(11,0,0,11,181.4,1022.8)" />
<use xlink:href="#f5_6" transform="matrix(11,0,0,11,188,1022.8)" />
<use xlink:href="#f5_n" transform="matrix(11,0,0,11,192.7,1022.8)" />
<use xlink:href="#f5_e" transform="matrix(11,0,0,11,204.8,1022.8)" />
<use xlink:href="#f5_g" transform="matrix(11,0,0,11,213.2,1022.8)" />
<use xlink:href="#f5_o" transform="matrix(11,0,0,11,219.7,1022.8)" />
</g>
<g fill="#0000FF" >
<use xlink:href="#f2_3" transform="matrix(12,0,0,12,649.3,1082)" />
<use xlink:href="#f2_7" transform="matrix(12,0,0,12,660,1082)" />
<use xlink:href="#f2_k" transform="matrix(12,0,0,12,664.5,1082)" />
<use xlink:href="#f2_a" transform="matrix(12,0,0,12,672.3,1082)" />
<use xlink:href="#f2_e" transform="matrix(12,0,0,12,683.1,1082)" />
<use xlink:href="#f2_3" transform="matrix(12,0,0,12,695.5,1082)" />
<use xlink:href="#f2_e" transform="matrix(12,0,0,12,712.4,1082)" />
<use xlink:href="#f2_c" transform="matrix(12,0,0,12,724.9,1082)" />
<use xlink:href="#f2_f" transform="matrix(12,0,0,12,730.3,1082)" />
<use xlink:href="#f2_c" transform="matrix(12,0,0,12,741.2,1082)" />
<use xlink:href="#f2_4" transform="matrix(12,0,0,12,746.6,1082)" />
<use xlink:href="#f2_e" transform="matrix(12,0,0,12,759.8,1082)" />
</g>
</g>
<path d="M642.9,1083.8H772.1" class="g2_5" />
<g clip-path="url(#c2_5)">
<path d="M642.4,1083.8h5.8" class="g2_5" />
</g>
<g clip-path="url(#c0_5)">
<g fill="#0000FF" >
<use xlink:href="#f2_19" transform="matrix(12,0,0,12,630.7,1082)" />
</g>
</g>
<path d="M630.7,1083.8h11.6" class="g2_5" />
<g clip-path="url(#c0_5)">
<g fill="#000000" >
<use xlink:href="#f1_n" transform="matrix(12,0,0,12,723.8,1122.8)" />
<use xlink:href="#f1_d" transform="matrix(12,0,0,12,735,1122.8)" />
<use xlink:href="#f1_o" transform="matrix(12,0,0,12,740.3,1122.8)" />
<use xlink:href="#f1_4" transform="matrix(12,0,0,12,748.6,1122.8)" />
<use xlink:href="#f1_p" transform="matrix(12,0,0,12,759.6,1122.8)" />
<use xlink:href="#f1_10" transform="matrix(12,0,0,12,704,1122.8)" />
<use xlink:href="#f2_6" transform="matrix(12,0,0,12,138.3,1122.8)" />
<use xlink:href="#f2_7" transform="matrix(12,0,0,12,150.5,1122.8)" />
<use xlink:href="#f2_m" transform="matrix(12,0,0,12,154.6,1122.8)" />
<use xlink:href="#f2_c" transform="matrix(12,0,0,12,166,1122.8)" />
<use xlink:href="#f2_k" transform="matrix(12,0,0,12,171,1122.8)" />
<use xlink:href="#f2_9" transform="matrix(12,0,0,12,178.5,1122.8)" />
<use xlink:href="#f2_7" transform="matrix(12,0,0,12,196.8,1122.8)" />
<use xlink:href="#f2_n" transform="matrix(12,0,0,12,200.8,1122.8)" />
<use xlink:href="#f2_4" transform="matrix(12,0,0,12,208.1,1122.8)" />
<use xlink:href="#f2_e" transform="matrix(12,0,0,12,227.5,1122.8)" />
<use xlink:href="#f2_d" transform="matrix(12,0,0,12,239.5,1122.8)" />
<use xlink:href="#f2_p" transform="matrix(12,0,0,12,258.1,1122.8)" />
<use xlink:href="#f2_a" transform="matrix(12,0,0,12,271.1,1122.8)" />
<use xlink:href="#f2_9" transform="matrix(12,0,0,12,287.9,1122.8)" />
<use xlink:href="#f2_w" transform="matrix(12,0,0,12,299.8,1122.8)" />
<use xlink:href="#f2_9" transform="matrix(12,0,0,12,311.7,1122.8)" />
<use xlink:href="#f2_s" transform="matrix(12,0,0,12,330,1122.8)" />
<use xlink:href="#f2_9" transform="matrix(12,0,0,12,335.8,1122.8)" />
<use xlink:href="#f2_o" transform="matrix(12,0,0,12,347.7,1122.8)" />
<use xlink:href="#f2_k" transform="matrix(12,0,0,12,360.5,1122.8)" />
<use xlink:href="#f2_7" transform="matrix(12,0,0,12,368,1122.8)" />
<use xlink:href="#f2_a" transform="matrix(12,0,0,12,372.1,1122.8)" />
<use xlink:href="#f2_g" transform="matrix(12,0,0,12,382.5,1122.8)" />
<use xlink:href="#f2_6" transform="matrix(12,0,0,12,400.8,1122.8)" />
<use xlink:href="#f2_7" transform="matrix(12,0,0,12,412.8,1122.8)" />
<use xlink:href="#f2_8" transform="matrix(12,0,0,12,416.9,1122.8)" />
<use xlink:href="#f2_7" transform="matrix(12,0,0,12,429.4,1122.8)" />
<use xlink:href="#f2_7" transform="matrix(12,0,0,12,433.5,1122.8)" />
<use xlink:href="#f2_p" transform="matrix(12,0,0,12,437.6,1122.8)" />
<use xlink:href="#f2_8" transform="matrix(12,0,0,12,450.6,1122.8)" />
<use xlink:href="#f2_9" transform="matrix(12,0,0,12,463,1122.8)" />
<use xlink:href="#f2_6" transform="matrix(12,0,0,12,481.3,1122.8)" />
<use xlink:href="#f2_7" transform="matrix(12,0,0,12,493.5,1122.8)" />
<use xlink:href="#f2_m" transform="matrix(12,0,0,12,497.6,1122.8)" />
<use xlink:href="#f2_t" transform="matrix(12,0,0,12,509.1,1122.8)" />
<use xlink:href="#f2_c" transform="matrix(12,0,0,12,520.8,1122.8)" />
<use xlink:href="#f2_n" transform="matrix(12,0,0,12,525.8,1122.8)" />
<use xlink:href="#f2_6" transform="matrix(12,0,0,12,539.6,1122.8)" />
<use xlink:href="#f2_7" transform="matrix(12,0,0,12,551.6,1122.8)" />
<use xlink:href="#f2_3" transform="matrix(12,0,0,12,555.7,1122.8)" />
<use xlink:href="#f2_l" transform="matrix(12,0,0,12,566.1,1122.8)" />
<use xlink:href="#f2_m" transform="matrix(12,0,0,12,577.6,1122.8)" />
<use xlink:href="#f2_e" transform="matrix(12,0,0,12,595.4,1122.8)" />
<use xlink:href="#f2_8" transform="matrix(12,0,0,12,607.5,1122.8)" />
<use xlink:href="#f2_7" transform="matrix(12,0,0,12,619.8,1122.8)" />
<use xlink:href="#f2_4" transform="matrix(12,0,0,12,624,1122.8)" />
<use xlink:href="#f2_a" transform="matrix(12,0,0,12,636.9,1122.8)" />
<use xlink:href="#f2_k" transform="matrix(12,0,0,12,653.7,1122.8)" />
<use xlink:href="#f2_7" transform="matrix(12,0,0,12,661.2,1122.8)" />
<use xlink:href="#f2_b" transform="matrix(12,0,0,12,665.3,1122.8)" />
<use xlink:href="#f2_n" transform="matrix(12,0,0,12,676.1,1122.8)" />
<use xlink:href="#f2_12" transform="matrix(12,0,0,12,689.8,1122.8)" />
<use xlink:href="#f2_6" transform="matrix(12,0,0,12,700,1144.2)" />
<use xlink:href="#f2_7" transform="matrix(12,0,0,12,712.2,1144.2)" />
<use xlink:href="#f2_n" transform="matrix(12,0,0,12,716.3,1144.2)" />
<use xlink:href="#f2_7" transform="matrix(12,0,0,12,723.7,1144.2)" />
<use xlink:href="#f2_7" transform="matrix(12,0,0,12,727.8,1144.2)" />
<use xlink:href="#f2_c" transform="matrix(12,0,0,12,731.8,1144.2)" />
<use xlink:href="#f2_b" transform="matrix(12,0,0,12,736.8,1144.2)" />
<use xlink:href="#f2_8" transform="matrix(12,0,0,12,747.6,1144.2)" />
<use xlink:href="#f2_9" transform="matrix(12,0,0,12,760.1,1144.2)" />
</g>
</g>
<defs>
<path d="M235,-20c0,0,-31,0,-51,19c0,0,-21,18,-21,50c0,0,0,65,39,120c0,0,39,54,125,109c0,0,56,35,87,56c0,0,32,20,46,33c0,0,79,45,79,143c0,0,0,27,-7,65c0,0,-8,39,-27,49c0,0,-19,10,-85,10H110c0,0,-36,0,-53,21c0,0,-17,22,-25,71c0,0,-7,49,-7,134c0,0,0,62,27,122c0,0,8,15,8,34c0,0,0,23,-35,37c0,0,-21,7,-30,29c0,0,-9,22,-9,72c0,0,0,24,10,46c0,0,8,22,25,38c0,0,16,16,26,16c0,0,17,0,17,-14c0,0,0,-9,7,-17c0,0,7,-8,34,-14c0,0,65,-15,81,-26c0,0,15,-10,15,-31c0,0,0,-15,-15,-38c0,0,-15,-22,-33,-53c0,0,-19,-30,-34,-67c0,0,-15,-36,-15,-79c0,0,0,-43,14,-56c0,0,15,-14,54,-14H518c0,0,39,0,63,-17c0,0,23,-16,33,-53c0,0,10,-36,17,-89c0,0,6,-52,6,-93c0,0,0,-99,-9,-144c0,0,-9,-44,-40,-80c0,0,-31,-36,-110,-86c0,0,-112,-71,-138,-95c0,0,-26,-23,-36,-44c0,0,-9,-20,-9,-43c0,0,0,-11,5,-26c0,0,6,-15,6,-26c0,0,0,-32,-20,-50c0,0,-20,-19,-51,-19Z" 
id="f0_6"
transform="scale(0.001,-0.001)" />

<path d="M204,-8c0,0,-9,0,-11,5c0,0,-2,5,-2,22V549c0,0,0,40,-4,56c0,0,-4,16,-15,22c0,0,-10,7,-39,7H90c0,0,-33,0,-52,33c0,0,-19,33,-19,90c0,0,0,53,15,98c0,0,16,44,35,44c0,0,12,0,12,-13V872c0,0,0,-27,31,-27h42c0,0,79,0,103,-20c0,0,23,-19,23,-83V67c0,0,0,-16,-8,-26c0,0,-9,-10,-33,-30c0,0,-25,-19,-35,-19Z" 
id="f0_e"
transform="scale(0.001,-0.001)" />

<path d="M423,-13c0,0,-9,0,-14,7c0,0,-5,6,-10,23c0,0,-13,51,-37,108c0,0,-25,58,-55,101c0,0,-21,-37,-51,-115C256,111,225,34,216,0H12L55,212h99c0,0,51,0,72,12c0,0,20,12,40,58c0,0,20,46,18,98V543c0,0,0,46,-7,61c0,0,-7,15,-23,22c0,0,-17,8,-50,8H189c0,0,-76,0,-76,115c0,0,0,56,16,103c0,0,16,47,33,47c0,0,14,0,14,-15c0,0,0,-17,9,-28c0,0,10,-11,40,-11h21c0,0,60,0,85,-8c0,0,25,-9,39,-26c0,0,13,-18,13,-49c0,0,0,-20,-4,-43c0,0,-5,-23,-10,-53c0,0,-6,-31,-10,-71c0,0,-5,-41,-5,-97c0,0,0,-150,62,-269c0,0,28,-58,38,-90l9,-65c0,0,0,-27,-13,-57c0,0,-13,-30,-27,-30Z" 
id="f0_7"
transform="scale(0.001,-0.001)" />

<path d="M554,-8c0,0,-9,0,-11,6c0,0,-2,5,-2,24V548c0,0,0,38,-5,56c0,0,-4,18,-15,25c0,0,-12,7,-41,7H90c0,0,-33,0,-52,33c0,0,-19,33,-19,90c0,0,0,54,15,97c0,0,14,43,30,43c0,0,17,0,17,-13V872c0,0,0,-9,7,-18c0,0,7,-9,27,-9H512c0,0,54,0,77,-8c0,0,23,-9,33,-28c0,0,9,-20,9,-67V81c0,0,0,-31,-27,-53L583,9C583,9,563,-8,554,-8Z" 
id="f0_8"
transform="scale(0.001,-0.001)" />

<path d="M721,-14c0,0,-12,0,-12,9l4,28c0,0,17,82,17,338c0,0,0,105,-11,163c0,0,-11,58,-35,84c0,0,-25,26,-83,26H315c0,0,-43,-39,-67,-90c0,0,-25,-51,-25,-104c0,0,0,-59,17,-104c0,0,17,-45,35,-78c0,0,18,-34,18,-44c0,0,0,-26,-20,-95C273,119,252,50,231,0H26L87,214h69c0,0,23,0,23,14l-7,15c0,0,-15,27,-27,68c0,0,-11,41,-11,83c0,0,0,68,25,124c0,0,25,57,86,116H200c0,0,-45,0,-71,32c0,0,-27,33,-27,94c0,0,0,49,17,93c0,0,16,43,32,43c0,0,17,0,17,-10V869c0,0,0,-24,27,-24H637c0,0,73,0,103,-18c0,0,30,-17,46,-62c0,0,17,-46,24,-124c0,0,8,-78,8,-214V338c0,0,0,-279,-27,-311c0,0,-14,-16,-37,-28c0,0,-23,-13,-33,-13Z" 
id="f0_b"
transform="scale(0.001,-0.001)" />

<path d="M345,75c0,0,50,0,110,26V351l-63,-2c0,0,-72,-3,-100,-38c0,0,-28,-35,-28,-113c0,0,0,-63,22,-93c0,0,23,-30,59,-30ZM266,-14c0,0,-217,0,-217,208c0,0,0,79,32,126c0,0,32,48,93,71c0,0,60,22,190,25l91,2V521c0,0,0,126,-104,126c0,0,-62,0,-140,-39L183,521H134V691c0,0,112,17,165,21c0,0,53,5,108,5c0,0,264,0,264,-194V67L741,49V0H483L466,54C466,54,408,14,361,0c0,0,-47,-14,-95,-14Z" 
id="f0_q"
transform="scale(0.001,-0.001)" />

<path d="M438,65c0,0,131,0,131,293c0,0,0,279,-130,279c0,0,-69,0,-127,-29V80c0,0,60,-15,126,-15ZM20,-325v50l76,18V634L19,652v49H304l1,-36c0,0,80,55,194,55c0,0,146,0,218,-86c0,0,71,-86,71,-271c0,0,0,-183,-83,-280c0,0,-83,-97,-238,-97c0,0,-79,0,-160,19c0,0,5,-48,5,-109V-257l103,-18v-50Z" 
id="f0_r"
transform="scale(0.001,-0.001)" />

<path d="M41,0V49l91,18V634L41,652v49H336l8,-145c0,0,80,89,144,128c0,0,64,40,117,40h40V468H604l-45,94c0,0,-47,0,-106,-21c0,0,-60,-20,-105,-48V67L460,49V0Z" 
id="f0_o"
transform="scale(0.001,-0.001)" />

<path d="M425,-14c0,0,-187,0,-280,90c0,0,-93,90,-93,276c0,0,0,115,42,198c0,0,43,82,121,126c0,0,78,44,182,44c0,0,104,0,227,-26V486H571L539,609c0,0,-25,19,-50,26c0,0,-24,7,-65,7c0,0,-44,0,-79,-35c0,0,-36,-35,-56,-98c0,0,-20,-64,-20,-153c0,0,0,-150,47,-214c0,0,47,-64,148,-64c0,0,103,0,176,21V42C640,42,606,15,547,0c0,0,-59,-14,-122,-14Z" 
id="f0_l"
transform="scale(0.001,-0.001)" />

<path d="M327,-14c0,0,-101,0,-156,45c0,0,-55,45,-55,131V624H25v48l108,29l87,159H332V701H480V624H332V176c0,0,0,-49,20,-73c0,0,20,-25,53,-25c0,0,40,0,97,12V26c0,0,-22,-15,-76,-27c0,0,-55,-13,-99,-13Z" 
id="f0_s"
transform="scale(0.001,-0.001)" />

<path d="M34,0V49l76,18V634L38,652v49H325V67L402,49V0ZM217,831c0,0,-48,0,-81,33c0,0,-34,33,-34,82c0,0,0,48,34,81c0,0,34,33,81,33c0,0,48,0,81,-33c0,0,33,-33,33,-81c0,0,0,-47,-33,-81c0,0,-32,-34,-81,-34Z" 
id="f0_n"
transform="scale(0.001,-0.001)" />

<path d="M248,0L521,658H66v429H313V836l493,-1V716L504,0Z" 
id="f1_n"
transform="scale(0.001,-0.001)" />

<path d="M102,250V836H349V351L102,250Z" 
id="f1_d"
transform="scale(0.001,-0.001)" />

<path d="M154,-13c0,0,-38,0,-85,9V198c0,0,58,-15,103,-15c0,0,84,0,118,60c0,0,35,61,35,206c0,0,0,66,-7,105c0,0,-6,39,-24,63c0,0,-17,25,-44,33c0,0,-27,8,-73,8H66V836H225c0,0,198,0,275,-115c0,0,56,-84,65,-264c0,0,3,-55,3,-148c0,0,0,-177,71,-309L393,1c0,0,-53,130,-54,141c0,0,-28,-90,-65,-123c0,0,-38,-32,-120,-32Z" 
id="f1_o"
transform="scale(0.001,-0.001)" />

<path d="M534,0V425c0,0,0,109,-41,171c0,0,-41,62,-140,62H66V836H352c0,0,99,0,174,-20c0,0,75,-20,123,-55c0,0,48,-35,78,-87c0,0,30,-53,42,-113c0,0,12,-60,12,-136V0Z" 
id="f1_4"
transform="scale(0.001,-0.001)" />

<path d="M173,-6C173,-6,61,-6,15,9V177c0,0,73,-10,82,-10c0,0,37,0,52,30c0,0,14,29,14,116V658H18V836H516c0,0,262,0,341,-145c0,0,48,-89,48,-242V0H658V450c0,0,0,131,-37,171c0,0,-34,37,-105,37H411V313c0,0,0,-189,-67,-258C344,55,285,-6,173,-6Z" 
id="f1_p"
transform="scale(0.001,-0.001)" />

<path d="M491,-20c0,0,-95,0,-188,18c0,0,-93,17,-185,55V279c0,0,91,-53,173,-79c0,0,82,-26,154,-26c0,0,105,0,165,51c0,0,60,51,60,138c0,0,0,88,-60,139c0,0,-60,50,-165,50c0,0,-62,0,-132,-16c0,0,-70,-16,-151,-49v627H877V903H391V730c0,0,33,9,66,14c0,0,33,5,69,5c0,0,204,0,318,-102c0,0,113,-102,113,-284c0,0,0,-180,-123,-282C834,81,710,-20,491,-20Z" 
id="f1_z"
transform="scale(0.001,-0.001)" />

<path d="M736,107V473c0,0,0,147,-48,202c0,0,-49,54,-187,54H278V107ZM139,0V836H499c0,0,105,0,177,-22c0,0,72,-21,116,-69c0,0,44,-49,64,-119c0,0,19,-71,19,-174V0Z" 
id="f2_6"
transform="scale(0.001,-0.001)" />

<path d="M102,312V836H241V369L102,312Z" 
id="f2_7"
transform="scale(0.001,-0.001)" />

<path d="M139,0V138c0,0,0,61,8,112c0,0,7,52,19,87c0,0,11,36,30,66c0,0,19,31,35,49c0,0,17,19,41,35c0,0,25,17,41,25c0,0,17,7,40,17L141,836H303L613,388c0,0,20,10,33,18c0,0,13,8,34,28c0,0,20,20,33,44c0,0,13,25,22,66c0,0,10,41,10,92V836H882V698c0,0,0,-61,-7,-112c0,0,-6,-52,-18,-88c0,0,-12,-36,-30,-66c0,0,-19,-30,-36,-49c0,0,-17,-18,-41,-34c0,0,-24,-17,-40,-25c0,0,-17,-8,-41,-17L882,0H720L409,448c0,0,-21,-11,-34,-19c0,0,-13,-8,-34,-27c0,0,-21,-20,-34,-44c0,0,-12,-25,-22,-66c0,0,-9,-41,-9,-92V0Z" 
id="f2_d"
transform="scale(0.001,-0.001)" />

<path d="M66,0V107H554V452c0,0,0,56,-4,93c0,0,-4,37,-18,75c0,0,-14,38,-40,60c0,0,-26,22,-71,36c0,0,-45,13,-110,13H66V836H312c0,0,91,0,157,-17c0,0,66,-17,109,-49c0,0,44,-32,69,-84c0,0,26,-52,36,-114c0,0,10,-62,10,-147V107H817V0Z" 
id="f2_f"
transform="scale(0.001,-0.001)" />

<path d="M154,0V454l138,56V0ZM722,0V454c0,0,0,161,-49,218c0,0,-48,57,-186,57H139V836H485c0,0,207,0,291,-93c0,0,83,-94,83,-318V0Z" 
id="f2_9"
transform="scale(0.001,-0.001)" />

<path d="M522,-20c0,0,-196,0,-290,99c0,0,-94,100,-94,324V836H276V397c0,0,0,-86,16,-147c0,0,17,-60,50,-94c0,0,34,-34,77,-49c0,0,43,-15,103,-15c0,0,59,0,102,15c0,0,44,15,77,49c0,0,33,34,50,94c0,0,17,61,17,147c0,0,0,84,-8,143c0,0,-7,58,-25,105c0,0,-17,47,-51,69c0,0,-33,23,-83,23c0,0,-50,0,-119,-22V821c0,0,85,23,150,23c0,0,76,0,130,-30c0,0,53,-31,85,-90c0,0,31,-59,45,-138c0,0,13,-78,13,-183c0,0,0,-224,-93,-324c0,0,-94,-99,-290,-99Z" 
id="f2_w"
transform="scale(0.001,-0.001)" />

<path d="M139,0V106H400c0,0,176,0,253,71c0,0,78,72,78,250c0,0,0,163,-80,233c0,0,-81,69,-250,69H278L277,564c0,0,-1,-54,26,-80c0,0,27,-25,82,-25c0,0,30,0,80,9V355c0,0,-61,-12,-111,-12c0,0,-100,0,-157,55c0,0,-58,55,-58,186V836H456c0,0,193,0,303,-109c0,0,110,-109,110,-309c0,0,0,-200,-110,-309C759,109,648,0,456,0Z" 
id="f2_m"
transform="scale(0.001,-0.001)" />

<path d="M180,0L66,836H203L258,443c0,0,36,1,64,6c0,0,28,6,49,18c0,0,20,12,35,26c0,0,15,13,26,36c0,0,11,24,17,44c0,0,7,20,12,55c0,0,6,34,9,60c0,0,3,26,8,71c0,0,4,45,9,77H610c0,0,-13,-194,-31,-271c0,0,-31,-127,-111,-179c0,0,-71,-45,-196,-50L304,107c0,0,73,0,130,5c0,0,56,6,111,21c0,0,54,15,94,40c0,0,40,25,77,64c0,0,37,39,63,94c0,0,25,54,46,128c0,0,21,73,34,166c0,0,13,94,20,211h138c0,0,-14,-124,-29,-218c0,0,-16,-94,-39,-179c0,0,-22,-85,-50,-146c0,0,-28,-61,-68,-112c0,0,-39,-51,-87,-84C744,97,696,65,632,42C632,42,568,19,492,10C492,10,417,0,320,0Z" 
id="f2_4"
transform="scale(0.001,-0.001)" />

<path d="M114,0l60,312c0,0,2,12,8,39c0,0,6,27,7,37c0,0,2,11,5,30c0,0,2,19,4,33c0,0,1,15,1,31c0,0,0,48,-35,146c0,0,-35,98,-98,208H228c0,0,3,-8,27,-67c0,0,25,-58,41,-117c0,0,21,53,50,90c0,0,29,37,57,57c0,0,29,21,65,32c0,0,37,11,65,14c0,0,28,3,67,3c0,0,300,0,300,-396V0H480V106H761V452c0,0,0,146,-46,215c0,0,-45,70,-118,70c0,0,-134,0,-198,-119c0,0,-36,-68,-67,-222c0,0,-2,-10,-6,-27L253,0Z" 
id="f2_8"
transform="scale(0.001,-0.001)" />

<path d="M112,-5c0,0,-39,0,-97,11V113c0,0,48,-10,77,-10c0,0,53,0,70,42c0,0,17,43,17,164V729H50V836H501c0,0,107,0,179,-25c0,0,72,-25,112,-77c0,0,40,-51,57,-118c0,0,16,-67,16,-164V0H726V454c0,0,0,55,-3,92c0,0,-4,37,-17,75c0,0,-14,38,-38,59c0,0,-24,22,-65,36c0,0,-42,13,-102,13H318V309c0,0,0,-160,-46,-237C272,72,226,-5,112,-5Z" 
id="f2_e"
transform="scale(0.001,-0.001)" />

<path d="M139,0V836H278V0Z" 
id="f2_c"
transform="scale(0.001,-0.001)" />

<path d="M138,-7c0,0,-34,0,-72,10V129c0,0,25,-8,52,-8c0,0,33,0,58,5c0,0,26,5,58,24c0,0,33,20,53,54c0,0,21,34,36,97c0,0,15,64,15,151c0,0,0,113,-19,173c0,0,-19,60,-56,82c0,0,-38,22,-107,22H89V836h72c0,0,165,0,240,-91c0,0,76,-91,76,-293c0,0,0,-107,26,-227c0,0,25,-119,83,-225H437c0,0,-43,101,-62,184c0,0,-24,-60,-51,-99c0,0,-26,-38,-56,-58C268,27,239,7,209,0c0,0,-30,-7,-71,-7Z" 
id="f2_k"
transform="scale(0.001,-0.001)" />

<path d="M495,0V729H66V836H781V729H634V0Z" 
id="f2_q"
transform="scale(0.001,-0.001)" />

<path d="M287,0L589,729H66v386H205V836l547,-1l-2,-82L433,0Z" 
id="f2_3"
transform="scale(0.001,-0.001)" />

<path d="M585,0V426c0,0,0,54,-8,98c0,0,-8,44,-27,83c0,0,-19,40,-49,66c0,0,-30,26,-77,41c0,0,-47,15,-108,15H66V836H315c0,0,94,0,166,-20c0,0,71,-20,116,-54c0,0,46,-35,75,-88c0,0,28,-52,40,-112c0,0,12,-60,12,-137V0Z" 
id="f2_a"
transform="scale(0.001,-0.001)" />

<path d="M74,357V479H476V357Z" 
id="f2_12"
transform="scale(0.001,-0.001)" />

<path d="M89,0l36,190H283L246,0Z" 
id="f3_2"
transform="scale(0.001,-0.001)" />

<path d="M154,0l88,454l150,56L292,0ZM721,0l88,454c0,0,32,161,-5,218c0,0,-37,57,-176,57H280l21,107H648c0,0,206,0,272,-94c0,0,65,-93,22,-317L859,0Z" 
id="f3_3"
transform="scale(0.001,-0.001)" />

<path d="M66,0L87,107H576l67,345c0,0,10,56,14,93c0,0,3,37,-4,75c0,0,-7,38,-28,60c0,0,-21,21,-64,35c0,0,-43,14,-107,14H207l21,107H474c0,0,92,0,155,-18c0,0,63,-17,99,-49c0,0,37,-31,53,-83c0,0,16,-52,14,-114c0,0,-2,-62,-18,-147L715,107H838L818,0Z" 
id="f3_4"
transform="scale(0.001,-0.001)" />

<path d="M139,0L301,836H440L278,0Z" 
id="f3_5"
transform="scale(0.001,-0.001)" />

<path d="M518,-21c0,0,-196,0,-271,100c0,0,-74,100,-31,324l85,433H439L353,397c0,0,-17,-87,-12,-147c0,0,5,-61,32,-94c0,0,27,-34,67,-49c0,0,40,-15,100,-15c0,0,60,0,106,15c0,0,46,15,86,49c0,0,39,33,68,94c0,0,29,60,45,147c0,0,17,84,21,143c0,0,5,58,-4,105c0,0,-9,47,-38,69c0,0,-30,23,-80,23c0,0,-49,0,-123,-22l21,106c0,0,90,23,155,23c0,0,76,0,124,-30c0,0,47,-31,67,-90c0,0,20,-59,18,-138c0,0,-1,-78,-21,-183C985,403,941,179,828,79C828,79,714,-21,518,-21Z" 
id="f3_6"
transform="scale(0.001,-0.001)" />

<path d="M254,-200c0,0,-69,128,-102,248c0,0,-34,121,-34,238c0,0,0,221,103,439c0,0,102,218,310,435H652c0,0,-197,-247,-295,-469c0,0,-97,-222,-97,-428c0,0,0,-118,28,-234c0,0,29,-115,85,-229Z" 
id="f3_8"
transform="scale(0.001,-0.001)" />

<path d="M139,0l27,138c0,0,12,60,29,112c0,0,18,51,36,87c0,0,18,36,43,66c0,0,24,30,45,49c0,0,20,19,48,35c0,0,27,17,45,24c0,0,18,8,43,18L303,836H465L688,388c0,0,22,10,37,17c0,0,14,8,39,28c0,0,25,21,42,45c0,0,18,24,35,65c0,0,18,41,28,93l39,200h137L1018,697c0,0,-12,-61,-29,-112c0,0,-18,-51,-36,-87c0,0,-19,-36,-43,-66c0,0,-25,-31,-45,-49c0,0,-21,-18,-49,-35c0,0,-27,-16,-45,-24c0,0,-18,-8,-43,-17L881,0H719L496,448c0,0,-23,-11,-38,-19c0,0,-14,-8,-39,-27c0,0,-24,-20,-42,-44c0,0,-17,-25,-34,-66c0,0,-18,-41,-28,-92L276,0Z" 
id="f3_9"
transform="scale(0.001,-0.001)" />

<path d="M162,312L264,836H403L312,369L162,312Z" 
id="f3_a"
transform="scale(0.001,-0.001)" />

<path d="M-94,-200c0,0,197,246,294,468c0,0,97,222,97,428c0,0,0,117,-28,233c0,0,-28,116,-84,231H304c0,0,69,-129,102,-250c0,0,34,-120,34,-236c0,0,0,-223,-103,-442C337,232,233,13,27,-200Z" 
id="f3_b"
transform="scale(0.001,-0.001)" />

<path d="M495,0L636,729H207l21,107H944L923,729H775L633,0Z" 
id="f3_c"
transform="scale(0.001,-0.001)" />

<path d="M44,-141L69,-15L301,62L228,836H373L437,109c0,0,107,42,172,98c0,0,65,56,110,155c0,0,45,98,76,262l42,212H980L938,624c0,0,-16,-88,-36,-155c0,0,-20,-66,-51,-131c0,0,-31,-66,-74,-116c0,0,-42,-51,-102,-99c0,0,-60,-47,-141,-86c0,0,-80,-39,-183,-74L44,-141Z" 
id="f3_d"
transform="scale(0.001,-0.001)" />

<path d="M540,92c0,0,246,0,311,333c0,0,17,87,12,146c0,0,-6,58,-35,91c0,0,-29,33,-74,46c0,0,-45,13,-112,13H416L357,419C357,419,294,92,540,92ZM518,-21c0,0,-193,0,-267,109c0,0,-74,110,-30,337l80,411H664c0,0,213,0,290,-94c0,0,78,-93,35,-317C989,425,945,198,828,88C828,88,711,-21,518,-21Z" 
id="f3_e"
transform="scale(0.001,-0.001)" />

<path d="M114,0L234,312c0,0,5,12,16,39c0,0,11,27,15,37c0,0,4,10,10,29c0,0,6,19,10,34c0,0,4,14,7,31c0,0,9,48,-6,146c0,0,-16,98,-58,208H390c0,0,2,-9,15,-67c0,0,13,-59,18,-117c0,0,31,52,67,90c0,0,36,37,68,57c0,0,32,20,71,31c0,0,39,11,68,14c0,0,29,3,67,3c0,0,300,0,223,-395L899,0H480l21,106H781l67,346c0,0,29,146,-4,215c0,0,-32,70,-104,70c0,0,-134,0,-222,-119c0,0,-49,-68,-109,-222c0,0,-5,-10,-11,-27L253,0Z" 
id="f3_f"
transform="scale(0.001,-0.001)" />

<path d="M-17,0l8,40L120,60L276,941L151,960l7,40H909L866,761H817l4,161c0,0,-81,11,-239,11H419L349,543H619l45,119h48L657,354H609l-1,121H338L266,67H463c0,0,190,0,254,12l75,185h49L780,0Z" 
id="f4_2"
transform="scale(0.001,-0.001)" />

<path d="M81,0L258,1008l-96,18l6,34H391L214,52L331,33L325,0Z" 
id="f4_3"
transform="scale(0.001,-0.001)" />

<path d="M62,0L176,649L88,668l6,33H301L278,543c0,0,55,84,124,130c0,0,69,47,138,47c0,0,37,0,59,-6L566,530H534l-28,95c0,0,-60,0,-124,-46c0,0,-63,-45,-116,-120L186,0Z" 
id="f4_5"
transform="scale(0.001,-0.001)" />

<path d="M188,355c0,0,148,11,236,69c0,0,89,58,89,143c0,0,0,41,-23,68c0,0,-22,27,-66,27c0,0,-52,0,-101,-43c0,0,-49,-42,-85,-114c0,0,-36,-71,-50,-150ZM298,-14c0,0,-120,0,-186,67c0,0,-65,67,-65,193c0,0,0,125,53,232c0,0,52,108,145,175c0,0,94,67,196,67c0,0,92,0,147,-42c0,0,56,-43,56,-111c0,0,0,-102,-126,-173c0,0,-125,-72,-336,-86l-3,-54c0,0,0,-95,40,-143c0,0,40,-47,118,-47c0,0,67,0,124,22c0,0,57,23,106,52l22,-32c0,0,-69,-58,-146,-89c0,0,-76,-31,-145,-31Z" 
id="f4_6"
transform="scale(0.001,-0.001)" />

<path d="M228,-14c0,0,-103,0,-209,46L49,200H83L95,99c0,0,20,-21,55,-38c0,0,36,-16,81,-16c0,0,163,0,163,133c0,0,0,44,-35,78c0,0,-34,34,-113,72c0,0,-75,37,-112,81c0,0,-36,45,-36,104c0,0,0,99,66,153c0,0,67,54,184,54c0,0,85,0,200,-26L521,538H486l-11,80c0,0,-47,42,-124,42c0,0,-61,0,-97,-28c0,0,-37,-28,-37,-87c0,0,0,-40,31,-71c0,0,32,-30,119,-75c0,0,78,-40,113,-86c0,0,36,-47,36,-107c0,0,0,-113,-71,-167c0,0,-72,-53,-217,-53Z" 
id="f4_7"
transform="scale(0.001,-0.001)" />

<path d="M200,-14c0,0,-59,0,-93,35c0,0,-34,36,-34,100c0,0,0,22,4,51c0,0,4,30,82,467H67l6,33l99,29L275,860h47L295,701H455L443,639H283L210,230c0,0,-13,-69,-13,-99c0,0,0,-34,17,-51c0,0,17,-16,43,-16c0,0,54,0,113,21L386,50c0,0,-92,-64,-186,-64Z" 
id="f4_8"
transform="scale(0.001,-0.001)" />

<path d="M301,78c0,0,85,0,185,104l81,442c0,0,-29,20,-55,28c0,0,-25,8,-62,8c0,0,-75,0,-137,-56c0,0,-62,-56,-98,-152c0,0,-36,-95,-36,-199c0,0,0,-79,33,-127c0,0,33,-48,89,-48ZM245,-14c0,0,-90,0,-145,66c0,0,-54,66,-54,182c0,0,0,131,57,244c0,0,57,114,152,178c0,0,96,64,208,64c0,0,90,0,170,-33l33,26h40L589,52L673,33L667,0H454l22,117C476,117,350,-14,245,-14Z" 
id="f4_9"
transform="scale(0.001,-0.001)" />

<path d="M228,-17c0,0,-76,0,-114,40c0,0,-38,41,-38,117c0,0,0,11,4,39c0,0,4,29,80,470L78,667l6,34H293L217,268c0,0,-17,-94,-17,-124c0,0,0,-34,18,-55c0,0,18,-21,57,-21c0,0,55,0,120,47c0,0,65,47,107,115l83,471H709L595,52L683,33L677,0H469l20,144C489,144,427,64,360,23c0,0,-67,-40,-132,-40Z" 
id="f4_a"
transform="scale(0.001,-0.001)" />

<path d="M54,0L169,649L81,668l6,33H294L274,558c0,0,62,81,130,121c0,0,67,41,132,41c0,0,75,0,113,-41c0,0,38,-41,38,-117c0,0,0,-10,-3,-32c0,0,-3,-21,-81,-478L700,34L695,0H470l76,434c0,0,17,94,17,123c0,0,0,34,-18,55c0,0,-18,21,-56,21c0,0,-56,0,-121,-47c0,0,-65,-47,-108,-117L178,0Z" 
id="f4_b"
transform="scale(0.001,-0.001)" />

<path d="M305,45c0,0,76,0,141,56c0,0,64,56,101,151c0,0,37,95,37,200c0,0,0,83,-35,129c0,0,-34,46,-92,46c0,0,-44,0,-96,-29c0,0,-51,-29,-97,-75L185,81c0,0,43,-36,120,-36ZM295,-14c0,0,-65,0,-128,16C167,2,104,19,57,48l171,960l-100,18l6,34H358L303,731c0,0,-13,-85,-29,-144c0,0,59,61,122,97c0,0,64,36,116,36c0,0,94,0,150,-67c0,0,56,-67,56,-182c0,0,0,-129,-56,-242C662,229,606,115,509,50c0,0,-98,-64,-214,-64Z" 
id="f4_c"
transform="scale(0.001,-0.001)" />

<path d="M325,47c0,0,68,0,130,54c0,0,61,55,97,149c0,0,36,94,36,202c0,0,0,103,-39,156c0,0,-39,53,-113,53c0,0,-67,0,-128,-54c0,0,-61,-55,-96,-149c0,0,-35,-94,-35,-204c0,0,0,-101,39,-154c0,0,39,-53,109,-53Zm-6,-61c0,0,-124,0,-199,79c0,0,-74,79,-74,214c0,0,0,120,51,222c0,0,51,102,143,160c0,0,91,59,205,59c0,0,124,0,199,-80c0,0,74,-79,74,-214c0,0,0,-120,-51,-222C667,204,615,102,524,43c0,0,-91,-57,-205,-57Z" 
id="f4_d"
transform="scale(0.001,-0.001)" />

<path d="M154,-20c0,0,-39,0,-65,25C89,5,63,32,63,69c0,0,0,38,27,64c0,0,26,26,64,26c0,0,38,0,64,-26c0,0,26,-26,26,-64c0,0,0,-37,-26,-64c0,0,-26,-25,-64,-25Z" 
id="f4_e"
transform="scale(0.001,-0.001)" />

<path d="M459,63c0,0,143,0,210,55c0,0,67,56,67,185c0,0,0,101,-66,146c0,0,-66,46,-190,46H341L266,67c0,0,114,-4,193,-4Zm18,499c0,0,144,0,206,49c0,0,61,48,61,170c0,0,0,77,-48,115c0,0,-48,37,-160,37H419L353,562ZM459,-4L173,0H14l8,40l99,20L277,941L151,960l8,40H570c0,0,330,0,330,-210c0,0,0,-105,-66,-174c0,0,-66,-69,-184,-85c0,0,115,-9,179,-69c0,0,63,-59,63,-157c0,0,0,-160,-108,-235C784,70,675,-4,459,-4Z" 
id="f4_f"
transform="scale(0.001,-0.001)" />

<path d="M163,0V190H321V0Z" 
id="f2_j"
transform="scale(0.001,-0.001)" />

<path d="M66,0V106H322c0,0,75,0,127,23c0,0,53,23,82,67c0,0,29,43,42,98c0,0,13,54,13,124c0,0,0,70,-13,124c0,0,-13,55,-42,98c0,0,-29,44,-82,67c0,0,-52,23,-127,23H66V836H322c0,0,87,0,157,-24c0,0,70,-24,115,-64c0,0,45,-40,74,-94c0,0,30,-55,43,-113c0,0,13,-59,13,-123c0,0,0,-64,-13,-123c0,0,-13,-58,-43,-113c0,0,-29,-54,-74,-94C594,88,549,48,479,24C479,24,409,0,322,0Z" 
id="f2_i"
transform="scale(0.001,-0.001)" />

<path d="M71,-141V-15L289,62L66,836H210L416,109c0,0,99,42,153,98c0,0,53,56,80,155c0,0,26,98,26,262V836H817V624c0,0,0,-88,-7,-154c0,0,-7,-67,-25,-132c0,0,-18,-66,-51,-116c0,0,-33,-51,-84,-98c0,0,-50,-48,-123,-87c0,0,-72,-39,-169,-74L71,-141Z" 
id="f2_l"
transform="scale(0.001,-0.001)" />

<path d="M139,0V836H485c0,0,206,0,290,-90c0,0,84,-89,84,-294V0H721V473c0,0,0,147,-49,202c0,0,-48,54,-186,54H277V0Z" 
id="f2_g"
transform="scale(0.001,-0.001)" />

<path d="M354,-200c0,0,-112,175,-167,343c0,0,-56,170,-56,337c0,0,0,166,55,335c0,0,55,169,168,345H473c0,0,-100,-172,-148,-340c0,0,-48,-168,-48,-340c0,0,0,-173,48,-342c0,0,49,-168,148,-338Z" 
id="f2_x"
transform="scale(0.001,-0.001)" />

<path d="M66,0V106H564L66,836H228L516,413c0,0,3,2,9,6c0,0,17,13,27,21c0,0,10,8,26,27c0,0,17,20,26,40c0,0,9,21,16,54c0,0,7,34,7,75V836H764V698c0,0,0,-55,-7,-102c0,0,-7,-47,-16,-79c0,0,-10,-33,-27,-62c0,0,-18,-29,-32,-46c0,0,-14,-17,-37,-35c0,0,-22,-17,-36,-25c0,0,-13,-8,-36,-20L767,53V0Z" 
id="f2_b"
transform="scale(0.001,-0.001)" />

<path d="M66,0V107H332V555c0,0,0,92,-37,133c0,0,-37,41,-116,41H85V836h94c0,0,153,0,223,-66c0,0,69,-66,69,-231V0Z" 
id="f2_n"
transform="scale(0.001,-0.001)" />

<path d="M122,-200c0,0,99,170,148,338c0,0,49,169,49,342c0,0,0,172,-49,340c0,0,-49,168,-148,340H241c0,0,112,-176,168,-345c0,0,55,-169,55,-335c0,0,0,-167,-55,-337c0,0,-56,-168,-168,-343Z" 
id="f2_v"
transform="scale(0.001,-0.001)" />

<path d="M522,92c0,0,247,0,247,333c0,0,0,88,-17,146c0,0,-17,58,-53,91c0,0,-35,33,-82,46c0,0,-48,14,-116,14H276V419c0,0,0,-327,246,-327Zm0,-112c0,0,-193,0,-289,109c0,0,-95,110,-95,337V836H501c0,0,213,0,309,-93c0,0,96,-94,96,-317c0,0,0,-227,-95,-337C811,89,715,-20,522,-20Z" 
id="f2_t"
transform="scale(0.001,-0.001)" />

<path d="M411,-20c0,0,-70,0,-142,11c0,0,-73,11,-151,35V178c0,0,67,-37,139,-54c0,0,72,-18,152,-18c0,0,129,0,204,67c0,0,75,68,75,184c0,0,0,117,-75,184c0,0,-75,68,-204,68c0,0,-61,0,-121,-13c0,0,-60,-13,-123,-42v560H757V987H303V714c0,0,33,11,66,17c0,0,33,5,65,5c0,0,187,0,296,-102c0,0,109,-102,109,-277c0,0,0,-179,-112,-279c0,0,-112,-98,-316,-98Z" 
id="f2_18"
transform="scale(0.001,-0.001)" />

<path d="M248,-20c0,0,-52,0,-87,34c0,0,-36,36,-36,88c0,0,0,52,36,88c0,0,35,36,87,36c0,0,52,0,88,-36c0,0,36,-36,36,-88c0,0,0,-51,-36,-87c0,0,-35,-35,-88,-35Zm0,488c0,0,-52,0,-87,36c0,0,-36,36,-36,88c0,0,0,52,35,88c0,0,35,36,88,36c0,0,53,0,89,-36c0,0,35,-37,35,-88c0,0,0,-51,-36,-87c0,0,-35,-37,-88,-37Z" 
id="f0_3"
transform="scale(0.001,-0.001)" />

<path d="M131,353c0,0,-3,0,-6,2c0,0,-3,2,-16,20c0,0,-13,17,-13,28c0,0,0,5,8,9c0,0,45,26,84,67c0,0,38,41,38,85c0,0,0,28,-7,43c0,0,-7,15,-24,21c0,0,-17,6,-61,6H124c0,0,-38,0,-62,34c0,0,-24,35,-24,107c0,0,0,52,16,87c0,0,17,34,38,34c0,0,16,0,16,-12V870c0,0,0,-25,26,-25h63c0,0,29,0,53,-4c0,0,23,-4,39,-23c0,0,17,-19,26,-59c0,0,9,-40,9,-113c0,0,0,-76,-15,-124c0,0,-15,-47,-51,-83c0,0,-35,-36,-74,-61c0,0,-39,-25,-53,-25Z" 
id="f0_4"
transform="scale(0.001,-0.001)" />

<path d="M216,0c0,0,-59,212,-83,350c0,0,-25,139,-25,198c0,0,0,76,23,127c0,0,-42,13,-58,43c0,0,-15,30,-15,72c0,0,0,40,20,74c0,0,20,34,37,34c0,0,10,0,10,-13c0,0,0,-42,69,-42c0,0,57,0,80,-21c0,0,22,-21,22,-62c0,0,0,-38,-7,-72c0,0,-6,-34,-12,-34c0,0,-6,0,-16,10c0,0,-10,10,-25,10c0,0,-25,0,-35,-24c0,0,-10,-24,-10,-71c0,0,0,-164,72,-374c0,0,38,80,116,231c0,0,87,168,121,238c0,0,-36,6,-52,34c0,0,-17,28,-17,66c0,0,0,41,21,82c0,0,20,42,37,42c0,0,9,0,10,-7c0,0,5,-22,13,-32c0,0,9,-11,32,-12l44,-4c0,0,87,-4,87,-94c0,0,0,-33,-7,-67c0,0,-8,-34,-16,-34l-16,10c0,0,-15,10,-30,10c0,0,-22,0,-39,-29c0,0,-18,-32,-39,-72c0,0,-21,-41,-178,-355H691l38,91c0,0,58,139,124,224c0,0,38,50,60,80c0,0,22,29,22,45c0,0,0,12,-7,19c0,0,-6,7,-27,12c0,0,-42,18,-60,41c0,0,-17,24,-17,59c0,0,0,29,11,56c0,0,12,27,27,43c0,0,16,16,26,16c0,0,9,-1,10,-6l4,-14c0,0,4,-21,27,-25l70,-13c0,0,32,-6,51,-30c0,0,20,-24,20,-61c0,0,-2,-45,-23,-87c0,0,-21,-41,-91,-127c0,0,-46,-57,-77,-116c0,0,-31,-59,-71,-161L706,0Z" 
id="f0_5"
transform="scale(0.001,-0.001)" />

<path d="M102,-3c0,0,-26,0,-26,31c0,0,0,176,35,320c0,0,34,145,102,247c0,0,3,4,3,25c0,0,0,24,-19,37c0,0,-19,13,-79,15c0,0,-40,0,-61,35c0,0,-22,35,-22,95c0,0,0,39,14,67c0,0,14,29,32,29c0,0,20,0,20,-25c0,0,0,-28,32,-28h33c0,0,54,0,85,-25c0,0,30,-25,30,-68l-3,-52c0,0,0,-22,3,-31c0,0,76,71,104,109c0,0,29,37,36,75c0,0,55,7,82,7c0,0,154,0,239,-126c0,0,85,-127,85,-352c0,0,0,-99,-15,-200C812,182,798,81,774,0H335l42,214H652c0,0,25,0,37,5c0,0,11,4,21,18c0,0,10,14,17,36c0,0,7,22,12,56c0,0,5,34,5,64c0,0,0,247,-241,247c0,0,-337,0,-337,-609c0,0,0,-20,-5,-27c0,0,-6,-7,-22,-7Z" 
id="f0_16"
transform="scale(0.001,-0.001)" />

<path d="M131,-18c0,0,-10,0,-10,13l3,10c0,0,13,41,13,128l-3,137l-4,151c0,0,0,60,24,108c0,0,24,47,79,105H186c0,0,-37,0,-60,35c0,0,-22,36,-22,93c0,0,0,48,16,92c0,0,17,45,31,45c0,0,7,0,13,-6c0,0,7,-6,7,-18c0,0,0,-30,32,-30H749c0,0,28,0,37,-12c0,0,8,-12,8,-40V660c0,0,0,-28,-11,-37c0,0,-39,-28,-39,-91c0,0,0,-52,24,-213c0,0,23,-161,23,-221c0,0,0,-46,-42,-81c0,0,-43,-33,-69,-33c0,0,-5,0,-9,4c0,0,-3,5,-3,12c0,0,0,7,4,24c0,0,5,16,5,48c0,0,0,80,-15,234c0,0,-16,154,-16,178c0,0,0,39,14,73c0,0,14,33,46,77H304c0,0,-41,-50,-55,-91c0,0,-14,-41,-14,-109c0,0,0,-44,9,-145c0,0,8,-103,8,-156c0,0,0,-64,-24,-93c0,0,-59,-58,-97,-58Z" 
id="f0_9"
transform="scale(0.001,-0.001)" />

<path d="M26,0V54L154,74V926L26,945v55H878V746H810L786,908c0,0,-83,10,-241,10H389V551H651l23,111h67V355H674L651,468H389V82H578c0,0,193,0,252,12l43,185h68L927,0Z" 
id="f0_17"
transform="scale(0.001,-0.001)" />

<path d="M22,0L76,212H399c0,0,67,0,105,25c0,0,38,24,56,77c0,0,19,53,19,132c0,0,0,97,-40,142c0,0,-39,46,-122,46H131c0,0,-46,0,-69,32c0,0,-24,33,-24,93c0,0,0,33,7,66c0,0,8,33,20,53c0,0,11,20,21,20c0,0,16,0,16,-14V870c0,0,0,-25,34,-25H460c0,0,62,0,95,-17c0,0,32,-17,58,-66c0,0,26,-48,39,-125c0,0,14,-77,14,-158c0,0,0,-299,-116,-479Z" 
id="f0_c"
transform="scale(0.001,-0.001)" />

<path d="M46,0l55,212H483c0,0,68,0,105,25c0,0,38,25,57,78c0,0,18,52,18,131c0,0,0,97,-39,142c0,0,-40,46,-123,46H275c0,0,-25,-15,-40,-35c0,0,-15,-20,-15,-32c0,0,0,-25,37,-25l49,-1c0,0,42,0,67,-26c0,0,26,-26,26,-72c0,0,0,-68,-17,-118c0,0,-18,-50,-41,-50c0,0,-19,0,-19,18c0,0,0,34,-14,51c0,0,-13,16,-54,16c0,0,-38,0,-57,-11c0,0,-19,-11,-26,-43c0,0,-3,-22,-18,-22c0,0,-22,0,-34,37c0,0,-12,38,-12,102c0,0,0,128,78,211H163c0,0,-33,0,-52,34c0,0,-19,35,-19,91c0,0,0,50,15,94c0,0,16,45,32,45c0,0,17,0,17,-14V870c0,0,0,-25,33,-25H544c0,0,62,0,95,-17c0,0,32,-17,58,-66c0,0,26,-48,40,-125c0,0,13,-77,13,-158c0,0,0,-296,-116,-479Z" 
id="f0_d"
transform="scale(0.001,-0.001)" />

<path d="M107,-18c0,0,-17,0,-17,18l3,9c0,0,23,48,23,124l-1,177c0,0,0,55,8,77c0,0,9,22,33,46c0,0,23,23,51,40c0,0,28,17,42,17c0,0,5,0,9,-3c0,0,5,-3,5,-8c0,0,0,-3,-11,-26c0,0,-14,-49,-14,-120l4,-223c0,0,0,-38,-9,-54c0,0,-8,-17,-32,-34C201,22,178,6,150,-5c0,0,-28,-13,-43,-13Zm547,0c0,0,-17,0,-17,18l2,10c0,0,10,38,10,109c0,0,0,79,-14,208c0,0,-15,128,-15,149c0,0,0,54,16,89c0,0,15,36,53,69H154c0,0,-35,0,-57,40c0,0,-21,40,-21,103c0,0,0,33,8,61c0,0,7,28,19,44c0,0,13,17,24,17c0,0,15,0,15,-13V869c0,0,0,-13,5,-19c0,0,5,-5,22,-5H718c0,0,50,0,50,-63V652c0,0,0,-21,-15,-30c0,0,-35,-24,-35,-77c0,0,0,-57,20,-169c0,0,27,-157,27,-272c0,0,0,-29,-6,-44c0,0,-6,-15,-17,-26c0,0,-12,-16,-47,-35L681,-9l-13,-6l-14,-3Z" 
id="f0_f"
transform="scale(0.001,-0.001)" />

<path d="M51,0V55L180,74V926L51,946v54H543V946L415,926V74L543,55V0Z" 
id="f0_18"
transform="scale(0.001,-0.001)" />

<path d="M156,-317V454l139,56V-317ZM505,0L806,729H139V835H967V753L650,0Z" 
id="f2_p"
transform="scale(0.001,-0.001)" />

<path d="M152,0V473c0,0,0,94,28,161c0,0,29,66,71,95H66V836H463V729H404c0,0,-65,0,-89,-57c0,0,-25,-58,-25,-199V0Z" 
id="f2_o"
transform="scale(0.001,-0.001)" />

<path d="M32,0V33L151,52V649L52,668v33H275V52L395,33V0ZM201,850c0,0,-32,0,-56,24c0,0,-24,24,-24,56c0,0,0,34,24,58c0,0,24,24,56,24c0,0,34,0,58,-24c0,0,24,-24,24,-58c0,0,0,-32,-24,-56c0,0,-24,-24,-58,-24Z" 
id="f5_4"
transform="scale(0.001,-0.001)" />

<path d="M31,0V33l88,19V649L31,668v33H235l7,-87c0,0,44,37,121,71c0,0,76,35,121,35h11V530H463l-43,82c0,0,-37,0,-88,-10c0,0,-52,-10,-89,-26V52L363,33V0Z" 
id="f5_3"
transform="scale(0.001,-0.001)" />

<path d="M382,45c0,0,188,0,188,314c0,0,0,143,-47,213c0,0,-46,69,-141,69c0,0,-87,0,-146,-24V58c0,0,67,-13,146,-13ZM25,-325v35l88,18V649L34,668v33H231l1,-41c0,0,31,27,84,43c0,0,53,17,107,17c0,0,134,0,208,-94c0,0,73,-93,73,-267c0,0,0,-178,-80,-276c0,0,-80,-97,-232,-97c0,0,-84,0,-160,16c0,0,4,-53,4,-84V-272l123,-18v-35Z" 
id="f5_u"
transform="scale(0.001,-0.001)" />

<path d="M434,423c0,0,0,101,-7,142c0,0,-6,40,-22,60c0,0,-16,19,-45,19c0,0,-44,0,-66,-48c0,0,-22,-49,-22,-173ZM389,-14c0,0,-172,0,-254,89c0,0,-83,90,-83,279c0,0,0,184,79,274c0,0,79,91,238,91c0,0,142,0,206,-76c0,0,64,-76,64,-237V345H271V333c0,0,0,-111,18,-158c0,0,18,-47,58,-72c0,0,40,-25,110,-25c0,0,66,0,166,22V42C623,42,582,18,517,1c0,0,-66,-15,-128,-15Z" 
id="f0_p"
transform="scale(0.001,-0.001)" />

<path d="M383,64c0,0,85,0,152,28V645c0,0,-67,13,-152,13c0,0,-194,0,-194,-314c0,0,0,-141,48,-211c0,0,48,-69,146,-69ZM342,-14c0,0,-287,0,-287,358c0,0,0,184,82,280c0,0,81,96,239,96c0,0,81,0,163,-18c0,0,-4,25,-4,124v182l-118,18v34H659V52L745,33V0H548l-9,52c0,0,-84,-66,-197,-66Z" 
id="f5_e"
transform="scale(0.001,-0.001)" />

<path d="M377,45c0,0,99,0,147,73c0,0,47,73,47,237c0,0,0,161,-47,233c0,0,-47,72,-147,72c0,0,-97,0,-141,-69c0,0,-44,-69,-44,-236c0,0,0,-169,45,-240c0,0,44,-70,140,-70Zm0,-59c0,0,-158,0,-238,94c0,0,-81,95,-81,274c0,0,0,178,81,272c0,0,80,94,244,94c0,0,160,0,241,-92c0,0,82,-92,82,-274c0,0,0,-368,-329,-368Z" 
id="f5_8"
transform="scale(0.001,-0.001)" />

<path d="M148,-329c0,0,-58,0,-114,13v151H69l24,-71c0,0,23,-17,64,-17c0,0,39,0,72,22c0,0,33,23,60,67c0,0,27,44,68,157L90,649L19,668v33H344V668L233,648L423,158L606,649L497,668v33H758V668L685,652L411,-43c0,0,-48,-124,-84,-177c0,0,-36,-54,-79,-82c0,0,-44,-27,-100,-27Z" 
id="f5_7"
transform="scale(0.001,-0.001)" />

<path d="M495,413c0,0,0,133,-34,190c0,0,-34,57,-105,57c0,0,-78,0,-119,-63c0,0,-42,-62,-42,-184ZM374,-14c0,0,-163,0,-239,87c0,0,-75,88,-75,283c0,0,0,183,77,273c0,0,76,91,219,91c0,0,269,0,269,-306V353H194V340c0,0,0,-103,23,-160c0,0,22,-57,70,-87c0,0,47,-29,124,-29c0,0,40,0,96,6c0,0,55,7,91,15V43C598,43,562,20,500,3c0,0,-61,-17,-126,-17Z" 
id="f5_2"
transform="scale(0.001,-0.001)" />

<path d="M278,-14c0,0,-52,0,-115,11c0,0,-63,10,-99,23V193H98L134,95c0,0,56,-50,146,-50c0,0,144,0,144,123c0,0,0,91,-114,130l-66,21c0,0,-75,25,-110,50c0,0,-34,26,-53,63c0,0,-18,36,-18,89c0,0,0,92,63,145c0,0,63,54,170,54c0,0,77,0,193,-23V544H454l-32,81c0,0,-39,35,-124,35c0,0,-61,0,-92,-30c0,0,-32,-30,-32,-80c0,0,0,-43,29,-72c0,0,28,-29,86,-48c0,0,110,-38,144,-55c0,0,33,-17,57,-42c0,0,23,-25,36,-57c0,0,13,-32,13,-79c0,0,0,-104,-66,-158c0,0,-66,-53,-195,-53Z" 
id="f5_g"
transform="scale(0.001,-0.001)" />

<path d="M249,-14c0,0,-71,0,-107,42c0,0,-35,42,-35,119V639H15v33l93,29l76,159h47V701H391V639H231V161c0,0,0,-48,22,-73c0,0,22,-24,57,-24c0,0,44,0,106,12V26C416,26,389,8,340,-2c0,0,-49,-12,-91,-12Z" 
id="f5_h"
transform="scale(0.001,-0.001)" />

<path d="M289,-14c0,0,-179,0,-179,205V649L20,668v33H233V200c0,0,0,-128,120,-128c0,0,92,0,173,23V649L420,668v33H649V52L738,34V0H533l-6,57C527,57,474,28,405,6c0,0,-69,-20,-116,-20Zm24,849v24l147,203H618v-27L354,835Z" 
id="f5_i"
transform="scale(0.001,-0.001)" />

<path d="M495,413c0,0,0,133,-34,190c0,0,-34,57,-105,57c0,0,-78,0,-119,-62c0,0,-42,-63,-42,-185ZM374,-14c0,0,-163,0,-239,87c0,0,-75,88,-75,283c0,0,0,183,77,274c0,0,76,90,219,90c0,0,269,0,269,-306V353H194V339c0,0,0,-103,23,-160c0,0,22,-57,70,-86c0,0,47,-30,124,-30c0,0,40,0,96,6c0,0,55,7,91,15V43C598,43,562,19,500,2c0,0,-61,-16,-126,-16ZM285,835v24l146,203H590v-27L326,835Z" 
id="f5_k"
transform="scale(0.001,-0.001)" />

<path d="M31,0V33L150,52v956L31,1026v34H274V52L394,33V0Z" 
id="f5_l"
transform="scale(0.001,-0.001)" />

<path d="M0,-14L351,1007h73L75,-14Z" 
id="f5_6"
transform="scale(0.001,-0.001)" />

<path d="M284,67c0,0,51,0,88,12c0,0,37,12,74,30V358l-98,-3c0,0,-100,-4,-135,-39c0,0,-35,-35,-35,-117c0,0,0,-132,106,-132ZM233,-14c0,0,-179,0,-179,208c0,0,0,70,27,116c0,0,27,46,87,70c0,0,60,24,173,27l105,3V519c0,0,0,72,-26,107c0,0,-27,34,-82,34c0,0,-75,0,-137,-35L176,538H134V691c0,0,121,26,213,26c0,0,115,0,169,-47c0,0,54,-47,54,-144V52L657,33V0H465L451,70c0,0,-85,-84,-218,-84Z" 
id="f5_m"
transform="scale(0.001,-0.001)" />

<path d="M557,-14c0,0,-199,0,-298,89c0,0,-99,90,-99,255V941L32,960v40H432V960L304,941V341c0,0,0,-273,264,-273c0,0,144,0,220,68c0,0,77,68,77,202V941L730,960v40h341V960L943,941V344c0,0,0,-180,-99,-269c0,0,-99,-89,-287,-89Z" 
id="f5_n"
transform="scale(0.001,-0.001)" />

<path d="M191,-20c0,0,-39,0,-65,25c0,0,-25,27,-25,64c0,0,0,38,26,64c0,0,26,26,64,26c0,0,38,0,64,-26c0,0,26,-26,26,-64c0,0,0,-37,-25,-64c0,0,-26,-25,-65,-25Z" 
id="f5_o"
transform="scale(0.001,-0.001)" />

<path d="M431,0V33L535,52V499c0,0,0,62,-32,96c0,0,-32,33,-95,33c0,0,-66,0,-163,-22V52L350,33V0H32V33l89,19V649L32,668v33H237l6,-57c0,0,56,32,119,54c0,0,62,22,110,22c0,0,52,0,95,-20c0,0,44,-19,66,-62c0,0,57,32,134,57c0,0,77,25,128,25c0,0,179,0,179,-207V52l90,-19V0H846V33L950,52V499c0,0,0,129,-119,129c0,0,-19,0,-45,-3c0,0,-26,-3,-52,-7c0,0,-25,-4,-49,-8c0,0,-23,-5,-39,-8c0,0,13,-41,13,-89V52L764,33V0Z" 
id="f5_p"
transform="scale(0.001,-0.001)" />

<path d="M439,0V33l93,19V500c0,0,0,62,-30,97c0,0,-31,36,-94,36c0,0,-67,0,-165,-22V52L338,33V0H35V33l84,19V649L35,668v33H235l7,-57c0,0,57,33,122,54c0,0,65,22,108,22c0,0,91,0,137,-53c0,0,47,-53,47,-154V52L741,33V0Z" 
id="f5_a"
transform="scale(0.001,-0.001)" />

<path d="M32,0V34L151,52V649L52,668v33H275V52L395,34V0Zm71,835v24l146,203H408v-27L144,835Z" 
id="f5_q"
transform="scale(0.001,-0.001)" />

<path d="M360,-14L72,649L0,668v33H327V668L216,648L420,164L615,649L504,668v33H764V668L697,652L416,-14Z" 
id="f5_s"
transform="scale(0.001,-0.001)" />

<path d="M553,159c0,0,76,0,113,49c0,0,38,49,38,147c0,0,0,98,-38,147c0,0,-37,49,-113,49c0,0,-76,0,-113,-49c0,0,-38,-49,-38,-147c0,0,0,-98,38,-147c0,0,37,-49,113,-49ZM550,-20c0,0,-217,0,-336,145C214,125,95,272,95,541c0,0,0,276,139,434c0,0,139,157,381,157c0,0,77,0,149,-11c0,0,73,-12,143,-36V879c0,0,-70,34,-133,50c0,0,-63,16,-122,16c0,0,-128,0,-200,-72c0,0,-71,-71,-83,-211c0,0,49,37,106,55c0,0,58,18,125,18c0,0,171,0,276,-100c0,0,105,-100,105,-262c0,0,0,-179,-117,-287C864,86,747,-20,550,-20Z" 
id="f1_6"
transform="scale(0.001,-0.001)" />

<path d="M700,-317V454c0,0,0,155,-54,215c0,0,-54,60,-180,60H277V551c0,0,0,-55,26,-80c0,0,27,-26,82,-26c0,0,30,0,80,10V341c0,0,-61,-11,-111,-11c0,0,-100,0,-157,55c0,0,-58,55,-58,186V836H466c0,0,203,0,288,-91c0,0,85,-92,85,-293V-317Z" 
id="f2_z"
transform="scale(0.001,-0.001)" />

<path d="M117,-176L179,62V190H336V62L213,-176Z" 
id="f2_s"
transform="scale(0.001,-0.001)" />

<path d="M543,-317V369c0,0,0,85,-8,143c0,0,-8,58,-27,101c0,0,-18,44,-51,69c0,0,-33,24,-80,36c0,0,-48,11,-117,11H66V836H257c0,0,125,0,205,-23c0,0,80,-23,130,-79c0,0,50,-56,70,-143c0,0,20,-86,20,-222V-317Z" 
id="f2_2"
transform="scale(0.001,-0.001)" />

<path d="M505,98c0,0,101,0,160,70c0,0,60,69,60,189c0,0,0,121,-60,191c0,0,-59,69,-160,69c0,0,-102,0,-161,-69c0,0,-59,-70,-59,-191c0,0,0,-120,59,-189c0,0,59,-70,161,-70ZM504,-20c0,0,-193,0,-295,147c0,0,-102,148,-102,429c0,0,0,264,125,421c0,0,125,157,337,157c0,0,56,0,114,-11c0,0,58,-11,121,-34V952c0,0,-57,27,-115,41c0,0,-58,14,-115,14c0,0,-149,0,-228,-101c0,0,-79,-100,-90,-304c0,0,44,65,111,100c0,0,66,34,146,34c0,0,168,0,266,-102c0,0,97,-101,97,-277c0,0,0,-171,-101,-275C775,82,673,-20,504,-20Z" 
id="f2_19"
transform="scale(0.001,-0.001)" />

<path d="M228,0L639,903H103v211H942V952L508,0Z" 
id="f1_10"
transform="scale(0.001,-0.001)" />


</defs>
</svg>