<?xml version="1.0" encoding="UTF-8" standalone="no"?>
<!DOCTYPE svg PUBLIC "-//W3C//DTD SVG 1.1//EN"
"http://www.w3.org/Graphics/SVG/1.1/DTD/svg11.dtd">
<svg viewBox="0 0 909 1286" version="1.1" xmlns="http://www.w3.org/2000/svg" xmlns:xlink="http://www.w3.org/1999/xlink">
<defs>
<style type="text/css"><![CDATA[
.g0_11{
fill: none;
stroke: #0000FF;
stroke-width: 1.0694444;
stroke-linecap: butt;
stroke-linejoin: miter;
}
.g1_11{
fill: none;
stroke: #000000;
stroke-width: 0.7638889;
stroke-linecap: butt;
stroke-linejoin: round;
}
]]></style>
</defs>
<path d="M669.8,384.4H772.1" class="g0_11" />
<path d="M129.8,468.6H772.4M129.8,490.8H772.4M129.8,513H772.4M129.8,535.1H772.4M129.8,557.3H772.4M129.8,579.4H772.4M129.8,601.6H772.4M129.8,623.7H772.4M129.8,645.9H772.4M129.8,668H772.4M129.8,690.2H772.4M129.8,712.3H772.4M129.8,734.5H772.4M129.8,756.6H772.4M130.2,468.3V757M290.6,468.3V757M451,468.3V757M611.6,468.3V757M772,468.3V757" class="g1_11" />
<path d="M669.8,795.2H772.1" class="g0_11" />
<path d="M120.6,860.1H772.4M120.6,882.2H772.4M120.6,904.4H772.4M120.6,926.5H772.4M120.6,948.7H772.4M120.6,970.8H772.4M120.6,993H772.4m-651.8,22.1H772.4m-651.8,39.4H772.4m-651.8,43.6H772.4m-651.8,43.5H772.4m-651.8,22.2H772.4M121,859.7v304.5M446.6,859.7v304.5M772,859.7v304.5" class="g1_11" />
<image preserveAspectRatio="none" x="126" y="133" width="52" height="45" xlink:href="img/1.png" />
</svg>