<?xml version="1.0" encoding="UTF-8" standalone="no"?>
<!DOCTYPE svg PUBLIC "-//W3C//DTD SVG 1.1//EN"
"http://www.w3.org/Graphics/SVG/1.1/DTD/svg11.dtd">
<svg viewBox="0 0 909 1286" version="1.1" xmlns="http://www.w3.org/2000/svg" xmlns:xlink="http://www.w3.org/1999/xlink">
<defs>
<clipPath id="c0_3"><path d="M0,1286.2V0H909.4V1286.2Z" /></clipPath>
<clipPath id="c1_3"><path d="M642.4,294.4V273.1h.3v21.3Z" /></clipPath>
<clipPath id="c2_3"><path d="M642.4,597.9V576.6h.3v21.3Z" /></clipPath>
<style type="text/css"><![CDATA[
.g0_3{
fill: #D8D8D8;
}
.g1_3{
fill: none;
stroke: #000000;
stroke-width: 0.7638889;
stroke-linecap: butt;
stroke-linejoin: round;
}
.g2_3{
fill: none;
stroke: #0000FF;
stroke-width: 1.0694444;
stroke-linecap: butt;
stroke-linejoin: miter;
}
.g3_3{
fill: none;
stroke: #000000;
stroke-width: 1.0694444;
stroke-linecap: butt;
stroke-linejoin: miter;
}
]]></style>
</defs>
<path fill-rule="evenodd" d="M746.2,153.5h90.3V131.4H746.2v22.1Z" class="g0_3" />
<path fill-rule="evenodd" d="M659.5,153.5h86.6V131.4H659.5v22.1Z" class="g0_3" />
<path fill-rule="evenodd" d="M562.2,153.5h97.3V131.4H562.2v22.1Z" class="g0_3" />
<path fill-rule="evenodd" d="M464.8,153.5h97.3V131.4H464.8v22.1Z" class="g0_3" />
<path fill-rule="evenodd" d="M356.4,153.5H464.7V131.4H356.4v22.1Z" class="g0_3" />
<path fill-rule="evenodd" d="M237.3,153.5H356.4V131.4H237.3v22.1Z" class="g0_3" />
<path fill-rule="evenodd" d="M128.9,173.6H237.2V153.5H128.9v20.1Z" class="g0_3" />
<path fill-rule="evenodd" d="M128.9,193.6H237.2V173.7H128.9v19.9Z" class="g0_3" />
<path fill-rule="evenodd" d="M128.9,213.8H237.2V193.7H128.9v20.1Z" class="g0_3" />
<path fill-rule="evenodd" d="M128.9,233.8H237.2V213.9H128.9v19.9Z" class="g0_3" />
<path fill-rule="evenodd" d="M128.9,254H237.2V233.9H128.9V254Z" class="g0_3" />
<path fill-rule="evenodd" d="M367.1,376.7H561.8V354.6H367.1v22.1Z" class="g0_3" />
<path fill-rule="evenodd" d="M248,376.7H367V354.6H248v22.1Z" class="g0_3" />
<path fill-rule="evenodd" d="M128.9,376.7h119V354.6h-119v22.1Z" class="g0_3" />
<path fill-rule="evenodd" d="M746.2,153.5h90.3V131.4H746.2v22.1Z" class="g0_3" />
<path fill-rule="evenodd" d="M659.5,153.5h86.6V131.4H659.5v22.1Z" class="g0_3" />
<path fill-rule="evenodd" d="M562.2,153.5h97.3V131.4H562.2v22.1Z" class="g0_3" />
<path fill-rule="evenodd" d="M464.8,153.5h97.3V131.4H464.8v22.1Z" class="g0_3" />
<path fill-rule="evenodd" d="M356.4,153.5H464.7V131.4H356.4v22.1Z" class="g0_3" />
<path fill-rule="evenodd" d="M237.3,153.5H356.4V131.4H237.3v22.1Z" class="g0_3" />
<path fill-rule="evenodd" d="M128.9,173.6H237.2V153.5H128.9v20.1Z" class="g0_3" />
<path fill-rule="evenodd" d="M128.9,193.6H237.2V173.7H128.9v19.9Z" class="g0_3" />
<path fill-rule="evenodd" d="M128.9,213.8H237.2V193.7H128.9v20.1Z" class="g0_3" />
<path fill-rule="evenodd" d="M128.9,233.8H237.2V213.9H128.9v19.9Z" class="g0_3" />
<path fill-rule="evenodd" d="M128.9,254H237.2V233.9H128.9V254Z" class="g0_3" />
<path fill-rule="evenodd" d="M367.1,376.7H561.8V354.6H367.1v22.1Z" class="g0_3" />
<path fill-rule="evenodd" d="M248,376.7H367V354.6H248v22.1Z" class="g0_3" />
<path fill-rule="evenodd" d="M128.9,376.7h119V354.6h-119v22.1Z" class="g0_3" />
<g clip-path="url(#c0_3)">
<g fill="#000000" >
<use xlink:href="#f0_n" transform="matrix(12,0,0,12,723.8,127.1)" />
<use xlink:href="#f0_d" transform="matrix(12,0,0,12,735,127.1)" />
<use xlink:href="#f0_o" transform="matrix(12,0,0,12,740.3,127.1)" />
<use xlink:href="#f0_4" transform="matrix(12,0,0,12,748.6,127.1)" />
<use xlink:href="#f0_p" transform="matrix(12,0,0,12,759.6,127.1)" />
<use xlink:href="#f0_s" transform="matrix(12,0,0,12,704.6,127.1)" />
<use xlink:href="#f1_j" transform="matrix(12,0,0,12,387.9,127.1)" />
<use xlink:href="#f1_6" transform="matrix(12,0,0,12,393.7,127.1)" />
<use xlink:href="#f1_7" transform="matrix(12,0,0,12,405.9,127.1)" />
<use xlink:href="#f1_k" transform="matrix(12,0,0,12,410,127.1)" />
<use xlink:href="#f1_7" transform="matrix(12,0,0,12,417.5,127.1)" />
<use xlink:href="#f1_a" transform="matrix(12,0,0,12,421.6,127.1)" />
<use xlink:href="#f1_g" transform="matrix(12,0,0,12,432,127.1)" />
<use xlink:href="#f1_9" transform="matrix(12,0,0,12,443.9,127.1)" />
<use xlink:href="#f1_7" transform="matrix(12,0,0,12,461.6,127.1)" />
<use xlink:href="#f1_m" transform="matrix(12,0,0,12,465.7,127.1)" />
<use xlink:href="#f1_3" transform="matrix(12,0,0,12,477.2,127.1)" />
<use xlink:href="#f1_9" transform="matrix(12,0,0,12,493.5,127.1)" />
<use xlink:href="#f1_d" transform="matrix(12,0,0,12,505.4,127.1)" />
<use xlink:href="#f1_f" transform="matrix(12,0,0,12,517.7,127.1)" />
<use xlink:href="#f1_9" transform="matrix(12,0,0,12,528.2,127.1)" />
<use xlink:href="#f1_9" transform="matrix(12,0,0,12,546.2,127.1)" />
<use xlink:href="#f1_3" transform="matrix(12,0,0,12,558.1,127.1)" />
<use xlink:href="#f1_f" transform="matrix(12,0,0,12,568.5,127.1)" />
<use xlink:href="#f1_w" transform="matrix(12,0,0,12,579,127.1)" />
<use xlink:href="#f1_9" transform="matrix(12,0,0,12,590.9,127.1)" />
<use xlink:href="#f1_e" transform="matrix(12,0,0,12,608.7,127.1)" />
<use xlink:href="#f1_d" transform="matrix(12,0,0,12,620.7,127.1)" />
<use xlink:href="#f1_6" transform="matrix(12,0,0,12,638.9,127.1)" />
<use xlink:href="#f1_3" transform="matrix(12,0,0,12,651.1,127.1)" />
<use xlink:href="#f1_4" transform="matrix(12,0,0,12,661.5,127.1)" />
<use xlink:href="#f1_9" transform="matrix(12,0,0,12,674.5,127.1)" />
<use xlink:href="#f1_12" transform="matrix(12,0,0,12,692.2,127.1)" />
</g>
</g>
<path d="M236.9,131.8H837M128.6,153.9H837M128.6,174.1H837m-708.4,20H837M128.6,214.3H837m-708.4,20H837M128.6,254.5H837M128.9,153.5V254.8M237.3,153.5V254.8m0,-123.4v22.9m227.3,-.8V254.8m.2,-123.4v22.9M659.5,131.4V254.8M836.6,131.4V254.8" class="g1_3" />
<g clip-path="url(#c0_3)">
<g fill="#000000" >
<use xlink:href="#f1_q" transform="matrix(12,0,0,12,784.5,149.3)" />
<use xlink:href="#f1_7" transform="matrix(12,0,0,12,794.6,149.3)" />
<use xlink:href="#f1_k" transform="matrix(12,0,0,12,798.7,149.3)" />
<use xlink:href="#f1_9" transform="matrix(12,0,0,12,806.2,149.3)" />
<use xlink:href="#f1_3" transform="matrix(12,0,0,12,818.1,149.3)" />
<use xlink:href="#f2_e" transform="matrix(11,0,0,11,668.4,147.9)" />
<use xlink:href="#f2_2" transform="matrix(11,0,0,11,676.8,147.9)" />
<use xlink:href="#f2_5" transform="matrix(11,0,0,11,684.1,147.9)" />
<use xlink:href="#f2_4" transform="matrix(11,0,0,11,691.6,147.9)" />
<use xlink:href="#f2_3" transform="matrix(11,0,0,11,696.3,147.9)" />
<use xlink:href="#f1_6" transform="matrix(12,0,0,12,611.9,149.3)" />
<use xlink:href="#f1_7" transform="matrix(12,0,0,12,623.9,149.3)" />
<use xlink:href="#f1_4" transform="matrix(12,0,0,12,628,149.3)" />
<use xlink:href="#f1_3" transform="matrix(12,0,0,12,641,149.3)" />
<use xlink:href="#f2_u" transform="matrix(11,0,0,11,473.5,147.9)" />
<use xlink:href="#f2_8" transform="matrix(11,0,0,11,481.9,147.9)" />
<use xlink:href="#f2_a" transform="matrix(11,0,0,11,490.3,147.9)" />
<use xlink:href="#f2_2" transform="matrix(11,0,0,11,498.7,147.9)" />
<use xlink:href="#f2_3" transform="matrix(11,0,0,11,506.1,147.9)" />
<use xlink:href="#f1_d" transform="matrix(12,0,0,12,418.3,149.3)" />
<use xlink:href="#f1_c" transform="matrix(12,0,0,12,430.5,149.3)" />
<use xlink:href="#f1_f" transform="matrix(12,0,0,12,435.6,149.3)" />
<use xlink:href="#f1_3" transform="matrix(12,0,0,12,446.1,149.3)" />
<use xlink:href="#f2_s" transform="matrix(11,0,0,11,246.1,147.9)" />
<use xlink:href="#f2_2" transform="matrix(11,0,0,11,254.5,147.9)" />
<use xlink:href="#f2_a" transform="matrix(11,0,0,11,262,147.9)" />
<use xlink:href="#f2_4" transform="matrix(11,0,0,11,270.2,147.9)" />
<use xlink:href="#f2_3" transform="matrix(11,0,0,11,275,147.9)" />
<use xlink:href="#f2_s" transform="matrix(11,0,0,11,246,170)" />
<use xlink:href="#f2_2" transform="matrix(11,0,0,11,254.4,170)" />
<use xlink:href="#f2_a" transform="matrix(11,0,0,11,261.8,170)" />
<use xlink:href="#f2_w" transform="matrix(11,0,0,11,270.2,170)" />
<use xlink:href="#f2_8" transform="matrix(11,0,0,11,278.6,170)" />
<use xlink:href="#f2_7" transform="matrix(11,0,0,11,137.7,170)" />
<use xlink:href="#f2_8" transform="matrix(11,0,0,11,146.1,170)" />
<use xlink:href="#f2_u" transform="matrix(11,0,0,11,473.5,190.1)" />
<use xlink:href="#f2_8" transform="matrix(11,0,0,11,481.9,190.1)" />
<use xlink:href="#f2_a" transform="matrix(11,0,0,11,490.3,190.1)" />
<use xlink:href="#f2_2" transform="matrix(11,0,0,11,498.7,190.1)" />
<use xlink:href="#f2_g" transform="matrix(11,0,0,11,506,190.1)" />
<use xlink:href="#f2_h" transform="matrix(11,0,0,11,137.7,190.1)" />
<use xlink:href="#f2_i" transform="matrix(11,0,0,11,142.4,190.1)" />
<use xlink:href="#f2_e" transform="matrix(11,0,0,11,668.4,210.2)" />
<use xlink:href="#f2_4" transform="matrix(11,0,0,11,676.7,210.2)" />
<use xlink:href="#f2_5" transform="matrix(11,0,0,11,681.4,210.2)" />
<use xlink:href="#f2_2" transform="matrix(11,0,0,11,688.8,210.2)" />
<use xlink:href="#f2_k" transform="matrix(11,0,0,11,137.7,210.2)" />
<use xlink:href="#f2_l" transform="matrix(11,0,0,11,145.1,210.2)" />
<use xlink:href="#f2_6" transform="matrix(11,0,0,11,149.7,210.2)" />
<use xlink:href="#f2_2" transform="matrix(11,0,0,11,154.4,210.2)" />
<use xlink:href="#f2_l" transform="matrix(11,0,0,11,161.9,210.2)" />
<use xlink:href="#f2_l" transform="matrix(11,0,0,11,166.5,210.2)" />
<use xlink:href="#f2_m" transform="matrix(11,0,0,11,171.2,210.2)" />
<use xlink:href="#f2_6" transform="matrix(11,0,0,11,178.7,210.2)" />
<use xlink:href="#f2_n" transform="matrix(11,0,0,11,183.4,210.2)" />
<use xlink:href="#f2_e" transform="matrix(11,0,0,11,195.4,210.2)" />
<use xlink:href="#f2_o" transform="matrix(11,0,0,11,203.8,210.2)" />
<use xlink:href="#f2_a" transform="matrix(11,0,0,11,137.7,230.2)" />
<use xlink:href="#f2_8" transform="matrix(11,0,0,11,146.1,230.2)" />
<use xlink:href="#f2_g" transform="matrix(11,0,0,11,154.5,230.2)" />
<use xlink:href="#f2_8" transform="matrix(11,0,0,11,161,230.2)" />
<use xlink:href="#f2_h" transform="matrix(11,0,0,11,169.4,230.2)" />
<use xlink:href="#f2_3" transform="matrix(11,0,0,11,174,230.2)" />
<use xlink:href="#f2_8" transform="matrix(11,0,0,11,179.6,230.2)" />
<use xlink:href="#f2_g" transform="matrix(11,0,0,11,188,230.2)" />
<use xlink:href="#f2_6" transform="matrix(11,0,0,11,194.6,230.2)" />
<use xlink:href="#f2_m" transform="matrix(11,0,0,11,199.3,230.2)" />
<use xlink:href="#f2_g" transform="matrix(11,0,0,11,206.6,230.2)" />
<use xlink:href="#f2_2" transform="matrix(11,0,0,11,137.7,250.4)" />
<use xlink:href="#f2_l" transform="matrix(11,0,0,11,145.1,250.4)" />
<use xlink:href="#f2_l" transform="matrix(11,0,0,11,149.7,250.4)" />
<use xlink:href="#f2_8" transform="matrix(11,0,0,11,154.4,250.4)" />
<use xlink:href="#f2_g" transform="matrix(11,0,0,11,162.8,250.4)" />
<use xlink:href="#f2_6" transform="matrix(11,0,0,11,169.4,250.4)" />
<use xlink:href="#f2_m" transform="matrix(11,0,0,11,174.1,250.4)" />
<use xlink:href="#f2_g" transform="matrix(11,0,0,11,181.4,250.4)" />
<use xlink:href="#f2_6" transform="matrix(11,0,0,11,188,250.4)" />
<use xlink:href="#f2_n" transform="matrix(11,0,0,11,192.7,250.4)" />
<use xlink:href="#f2_e" transform="matrix(11,0,0,11,204.8,250.4)" />
<use xlink:href="#f2_g" transform="matrix(11,0,0,11,213.2,250.4)" />
<use xlink:href="#f2_o" transform="matrix(11,0,0,11,219.7,250.4)" />
</g>
<g fill="#0000FF" >
<use xlink:href="#f1_3" transform="matrix(12,0,0,12,649.3,290.1)" />
<use xlink:href="#f1_7" transform="matrix(12,0,0,12,660,290.1)" />
<use xlink:href="#f1_k" transform="matrix(12,0,0,12,664.5,290.1)" />
<use xlink:href="#f1_a" transform="matrix(12,0,0,12,672.3,290.1)" />
<use xlink:href="#f1_e" transform="matrix(12,0,0,12,683.1,290.1)" />
<use xlink:href="#f1_3" transform="matrix(12,0,0,12,695.5,290.1)" />
<use xlink:href="#f1_e" transform="matrix(12,0,0,12,712.4,290.1)" />
<use xlink:href="#f1_c" transform="matrix(12,0,0,12,724.9,290.1)" />
<use xlink:href="#f1_f" transform="matrix(12,0,0,12,730.3,290.1)" />
<use xlink:href="#f1_c" transform="matrix(12,0,0,12,741.2,290.1)" />
<use xlink:href="#f1_4" transform="matrix(12,0,0,12,746.6,290.1)" />
<use xlink:href="#f1_e" transform="matrix(12,0,0,12,759.8,290.1)" />
</g>
</g>
<path d="M642.9,292H772.1" class="g2_3" />
<g clip-path="url(#c1_3)">
<path d="M642.4,292h5.8" class="g2_3" />
</g>
<g clip-path="url(#c0_3)">
<g fill="#0000FF" >
<use xlink:href="#f1_16" transform="matrix(12,0,0,12,630.7,290.1)" />
</g>
</g>
<path d="M630.7,292h11.6" class="g2_3" />
<g clip-path="url(#c0_3)">
<g fill="#000000" >
<use xlink:href="#f0_n" transform="matrix(12,0,0,12,723.8,330.9)" />
<use xlink:href="#f0_d" transform="matrix(12,0,0,12,735,330.9)" />
<use xlink:href="#f0_o" transform="matrix(12,0,0,12,740.3,330.9)" />
<use xlink:href="#f0_4" transform="matrix(12,0,0,12,748.6,330.9)" />
<use xlink:href="#f0_p" transform="matrix(12,0,0,12,759.6,330.9)" />
<use xlink:href="#f0_t" transform="matrix(12,0,0,12,704.6,330.9)" />
<use xlink:href="#f1_e" transform="matrix(12,0,0,12,429.2,330.9)" />
<use xlink:href="#f1_a" transform="matrix(12,0,0,12,441.2,330.9)" />
<use xlink:href="#f1_c" transform="matrix(12,0,0,12,451.6,330.9)" />
<use xlink:href="#f1_b" transform="matrix(12,0,0,12,456.6,330.9)" />
<use xlink:href="#f1_f" transform="matrix(12,0,0,12,467.5,330.9)" />
<use xlink:href="#f1_6" transform="matrix(12,0,0,12,483.8,330.9)" />
<use xlink:href="#f1_7" transform="matrix(12,0,0,12,496,330.9)" />
<use xlink:href="#f1_d" transform="matrix(12,0,0,12,500.1,330.9)" />
<use xlink:href="#f1_f" transform="matrix(12,0,0,12,512.4,330.9)" />
<use xlink:href="#f1_9" transform="matrix(12,0,0,12,522.9,330.9)" />
<use xlink:href="#f1_6" transform="matrix(12,0,0,12,540.8,330.9)" />
<use xlink:href="#f1_7" transform="matrix(12,0,0,12,553,330.9)" />
<use xlink:href="#f1_k" transform="matrix(12,0,0,12,557.1,330.9)" />
<use xlink:href="#f1_7" transform="matrix(12,0,0,12,564.6,330.9)" />
<use xlink:href="#f1_a" transform="matrix(12,0,0,12,568.7,330.9)" />
<use xlink:href="#f1_g" transform="matrix(12,0,0,12,579,330.9)" />
<use xlink:href="#f1_9" transform="matrix(12,0,0,12,591,330.9)" />
<use xlink:href="#f1_e" transform="matrix(12,0,0,12,608.7,330.9)" />
<use xlink:href="#f1_d" transform="matrix(12,0,0,12,620.7,330.9)" />
<use xlink:href="#f1_6" transform="matrix(12,0,0,12,638.9,330.9)" />
<use xlink:href="#f1_3" transform="matrix(12,0,0,12,651.1,330.9)" />
<use xlink:href="#f1_4" transform="matrix(12,0,0,12,661.5,330.9)" />
<use xlink:href="#f1_9" transform="matrix(12,0,0,12,674.5,330.9)" />
<use xlink:href="#f1_12" transform="matrix(12,0,0,12,692.2,330.9)" />
<use xlink:href="#f2_y" transform="matrix(11,0,0,11,402.6,330.9)" />
<use xlink:href="#f2_8" transform="matrix(11,0,0,11,414.6,330.9)" />
</g>
</g>
<path d="M128.6,355H562.3M128.6,377.1H562.3m-433.7,20H562.3M128.6,417.3H562.3m-433.7,20H562.3M128.6,457.5H562.3m-433.7,20H562.3M128.6,497.7H562.3m-433.7,20H562.3M128.6,537.9H562.3m-433.7,20H562.3M128.9,354.6V558.3M248,354.6V558.3M367.1,354.6V558.3M561.9,354.6V558.3" class="g1_3" />
<g clip-path="url(#c0_3)">
<g fill="#000000" >
<use xlink:href="#f1_6" transform="matrix(12,0,0,12,506.8,372.3)" />
<use xlink:href="#f1_c" transform="matrix(12,0,0,12,519,372.3)" />
<use xlink:href="#f1_k" transform="matrix(12,0,0,12,524,372.3)" />
<use xlink:href="#f1_a" transform="matrix(12,0,0,12,531.5,372.3)" />
<use xlink:href="#f1_e" transform="matrix(12,0,0,12,541.7,372.3)" />
<use xlink:href="#f2_y" transform="matrix(11,0,0,11,338.3,370.9)" />
<use xlink:href="#f2_8" transform="matrix(11,0,0,11,350.3,370.9)" />
<use xlink:href="#f1_3" transform="matrix(12,0,0,12,189.6,372.3)" />
<use xlink:href="#f1_l" transform="matrix(12,0,0,12,200,372.3)" />
<use xlink:href="#f1_c" transform="matrix(12,0,0,12,211.5,372.3)" />
<use xlink:href="#f1_m" transform="matrix(12,0,0,12,216.5,372.3)" />
<use xlink:href="#f1_9" transform="matrix(12,0,0,12,227.9,372.3)" />
<use xlink:href="#f2_s" transform="matrix(11,0,0,11,137.7,393.1)" />
<use xlink:href="#f2_m" transform="matrix(11,0,0,11,146.1,393.1)" />
<use xlink:href="#f2_l" transform="matrix(11,0,0,11,153.5,393.1)" />
<use xlink:href="#f2_2" transform="matrix(11,0,0,11,158.2,393.1)" />
<use xlink:href="#f2_3" transform="matrix(11,0,0,11,165.6,393.1)" />
<use xlink:href="#f2_h" transform="matrix(11,0,0,11,137.7,413.3)" />
<use xlink:href="#f2_3" transform="matrix(11,0,0,11,142.4,413.3)" />
<use xlink:href="#f2_m" transform="matrix(11,0,0,11,147.9,413.3)" />
<use xlink:href="#f2_e" transform="matrix(11,0,0,11,155.3,413.3)" />
<use xlink:href="#f2_f" transform="matrix(11,0,0,11,163.7,413.3)" />
<use xlink:href="#f2_5" transform="matrix(11,0,0,11,172.1,413.3)" />
<use xlink:href="#f2_4" transform="matrix(11,0,0,11,179.6,413.3)" />
<use xlink:href="#f2_3" transform="matrix(11,0,0,11,184.2,413.3)" />
<use xlink:href="#f2_s" transform="matrix(11,0,0,11,137.7,433.3)" />
<use xlink:href="#f2_2" transform="matrix(11,0,0,11,146.1,433.3)" />
<use xlink:href="#f2_a" transform="matrix(11,0,0,11,153.5,433.3)" />
<use xlink:href="#f2_4" transform="matrix(11,0,0,11,161.9,433.3)" />
<use xlink:href="#f2_3" transform="matrix(11,0,0,11,166.5,433.3)" />
<use xlink:href="#f2_3" transform="matrix(11,0,0,11,137.7,453.4)" />
<use xlink:href="#f2_2" transform="matrix(11,0,0,11,143.3,453.4)" />
<use xlink:href="#f2_5" transform="matrix(11,0,0,11,150.7,453.4)" />
<use xlink:href="#f2_8" transform="matrix(11,0,0,11,158.2,453.4)" />
<use xlink:href="#f2_a" transform="matrix(11,0,0,11,166.6,453.4)" />
<use xlink:href="#f2_8" transform="matrix(11,0,0,11,175,453.4)" />
<use xlink:href="#f2_5" transform="matrix(11,0,0,11,183.3,453.4)" />
<use xlink:href="#f2_2" transform="matrix(11,0,0,11,190.7,453.4)" />
<use xlink:href="#f2_3" transform="matrix(11,0,0,11,198.2,453.4)" />
<use xlink:href="#f2_p" transform="matrix(11,0,0,11,137.7,473.5)" />
<use xlink:href="#f2_2" transform="matrix(11,0,0,11,150.8,473.5)" />
<use xlink:href="#f2_3" transform="matrix(11,0,0,11,158.1,473.5)" />
<use xlink:href="#f2_2" transform="matrix(11,0,0,11,163.7,473.5)" />
<use xlink:href="#f2_5" transform="matrix(11,0,0,11,171.2,473.5)" />
<use xlink:href="#f2_2" transform="matrix(11,0,0,11,178.7,473.5)" />
<use xlink:href="#f2_3" transform="matrix(11,0,0,11,186.1,473.5)" />
<use xlink:href="#f2_h" transform="matrix(11,0,0,11,137.7,493.6)" />
<use xlink:href="#f2_3" transform="matrix(11,0,0,11,142.4,493.6)" />
<use xlink:href="#f2_m" transform="matrix(11,0,0,11,147.9,493.6)" />
<use xlink:href="#f2_2" transform="matrix(11,0,0,11,155.3,493.6)" />
<use xlink:href="#f2_3" transform="matrix(11,0,0,11,162.8,493.6)" />
<use xlink:href="#f2_5" transform="matrix(11,0,0,11,137.7,513.6)" />
<use xlink:href="#f2_m" transform="matrix(11,0,0,11,145.1,513.6)" />
<use xlink:href="#f2_2" transform="matrix(11,0,0,11,152.6,513.6)" />
<use xlink:href="#f2_3" transform="matrix(11,0,0,11,159.9,513.6)" />
<use xlink:href="#f2_8" transform="matrix(11,0,0,11,137.7,533.8)" />
<use xlink:href="#f2_t" transform="matrix(11,0,0,11,146.1,533.8)" />
<use xlink:href="#f2_3" transform="matrix(11,0,0,11,151.7,533.8)" />
<use xlink:href="#f2_2" transform="matrix(11,0,0,11,157.2,533.8)" />
<use xlink:href="#f2_5" transform="matrix(11,0,0,11,164.6,533.8)" />
<use xlink:href="#f2_2" transform="matrix(11,0,0,11,172.1,533.8)" />
<use xlink:href="#f2_3" transform="matrix(11,0,0,11,179.6,533.8)" />
<use xlink:href="#f2_x" transform="matrix(11,0,0,11,137.7,553.8)" />
<use xlink:href="#f2_m" transform="matrix(11,0,0,11,146.1,553.8)" />
<use xlink:href="#f2_5" transform="matrix(11,0,0,11,153.5,553.8)" />
<use xlink:href="#f2_2" transform="matrix(11,0,0,11,161,553.8)" />
<use xlink:href="#f2_3" transform="matrix(11,0,0,11,168.3,553.8)" />
</g>
<g fill="#0000FF" >
<use xlink:href="#f1_3" transform="matrix(12,0,0,12,649.3,593.7)" />
<use xlink:href="#f1_7" transform="matrix(12,0,0,12,660,593.7)" />
<use xlink:href="#f1_k" transform="matrix(12,0,0,12,664.5,593.7)" />
<use xlink:href="#f1_a" transform="matrix(12,0,0,12,672.3,593.7)" />
<use xlink:href="#f1_e" transform="matrix(12,0,0,12,683.1,593.7)" />
<use xlink:href="#f1_3" transform="matrix(12,0,0,12,695.5,593.7)" />
<use xlink:href="#f1_e" transform="matrix(12,0,0,12,712.4,593.7)" />
<use xlink:href="#f1_c" transform="matrix(12,0,0,12,724.9,593.7)" />
<use xlink:href="#f1_f" transform="matrix(12,0,0,12,730.3,593.7)" />
<use xlink:href="#f1_c" transform="matrix(12,0,0,12,741.2,593.7)" />
<use xlink:href="#f1_4" transform="matrix(12,0,0,12,746.6,593.7)" />
<use xlink:href="#f1_e" transform="matrix(12,0,0,12,759.8,593.7)" />
</g>
</g>
<path d="M642.9,595.5H772.1" class="g2_3" />
<g clip-path="url(#c2_3)">
<path d="M642.4,595.5h5.8" class="g2_3" />
</g>
<g clip-path="url(#c0_3)">
<g fill="#0000FF" >
<use xlink:href="#f1_17" transform="matrix(12,0,0,12,630.7,593.7)" />
</g>
</g>
<path d="M630.7,595.5h11.6" class="g2_3" />
<g clip-path="url(#c0_3)">
<g fill="#000000" >
<use xlink:href="#f3_u" transform="matrix(16,0,0,16,606.8,639.2)" />
<use xlink:href="#f3_8" transform="matrix(16,0,0,16,621,639.2)" />
<use xlink:href="#f3_e" transform="matrix(16,0,0,16,633.4,639.2)" />
<use xlink:href="#f3_i" transform="matrix(16,0,0,16,646.5,639.2)" />
<use xlink:href="#f3_e" transform="matrix(16,0,0,16,658.7,639.2)" />
<use xlink:href="#f3_x" transform="matrix(16,0,0,16,665.2,639.2)" />
<use xlink:href="#f3_y" transform="matrix(16,0,0,16,686.9,639.2)" />
<use xlink:href="#f3_4" transform="matrix(16,0,0,16,693.4,639.2)" />
<use xlink:href="#f3_i" transform="matrix(16,0,0,16,700.3,639.2)" />
<use xlink:href="#f3_b" transform="matrix(16,0,0,16,718.9,639.2)" />
<use xlink:href="#f3_u" transform="matrix(16,0,0,16,734.1,639.2)" />
<use xlink:href="#f3_z" transform="matrix(16,0,0,16,748.3,639.2)" />
<use xlink:href="#f3_6" transform="matrix(16,0,0,16,760.3,639.2)" />
<use xlink:href="#f1_15" transform="matrix(12,0,0,12,328.2,680.8)" />
<use xlink:href="#f1_9" transform="matrix(12,0,0,12,334.3,680.8)" />
<use xlink:href="#f1_f" transform="matrix(12,0,0,12,346.2,680.8)" />
<use xlink:href="#f1_a" transform="matrix(12,0,0,12,362.7,680.8)" />
<use xlink:href="#f1_i" transform="matrix(12,0,0,12,373,680.8)" />
<use xlink:href="#f1_o" transform="matrix(12,0,0,12,382.7,680.8)" />
<use xlink:href="#f1_7" transform="matrix(12,0,0,12,388.9,680.8)" />
<use xlink:href="#f1_n" transform="matrix(12,0,0,12,393,680.8)" />
<use xlink:href="#f1_9" transform="matrix(12,0,0,12,406.5,680.8)" />
<use xlink:href="#f1_f" transform="matrix(12,0,0,12,418.4,680.8)" />
<use xlink:href="#f1_9" transform="matrix(12,0,0,12,428.9,680.8)" />
<use xlink:href="#f1_s" transform="matrix(12,0,0,12,446.7,680.8)" />
<use xlink:href="#f1_h" transform="matrix(12,0,0,12,452.5,680.8)" />
<use xlink:href="#f1_d" transform="matrix(12,0,0,12,457.5,680.8)" />
<use xlink:href="#f1_c" transform="matrix(12,0,0,12,469.7,680.8)" />
<use xlink:href="#f1_g" transform="matrix(12,0,0,12,474.7,680.8)" />
<use xlink:href="#f1_3" transform="matrix(12,0,0,12,486.7,680.8)" />
<use xlink:href="#f1_9" transform="matrix(12,0,0,12,503,680.8)" />
<use xlink:href="#f1_n" transform="matrix(12,0,0,12,514.9,680.8)" />
<use xlink:href="#f1_q" transform="matrix(12,0,0,12,522.1,680.8)" />
<use xlink:href="#f1_h" transform="matrix(12,0,0,12,538.1,680.8)" />
<use xlink:href="#f1_7" transform="matrix(12,0,0,12,543,680.8)" />
<use xlink:href="#f1_f" transform="matrix(12,0,0,12,547.1,680.8)" />
<use xlink:href="#f1_9" transform="matrix(12,0,0,12,563.6,680.8)" />
<use xlink:href="#f1_g" transform="matrix(12,0,0,12,575.5,680.8)" />
<use xlink:href="#f1_7" transform="matrix(12,0,0,12,587.4,680.8)" />
<use xlink:href="#f1_4" transform="matrix(12,0,0,12,591.5,680.8)" />
<use xlink:href="#f1_c" transform="matrix(12,0,0,12,610.3,680.8)" />
<use xlink:href="#f1_n" transform="matrix(12,0,0,12,615.4,680.8)" />
<use xlink:href="#f1_d" transform="matrix(12,0,0,12,622.7,680.8)" />
<use xlink:href="#f1_a" transform="matrix(12,0,0,12,634.9,680.8)" />
<use xlink:href="#f1_p" transform="matrix(12,0,0,12,645.3,680.8)" />
<use xlink:href="#f1_7" transform="matrix(12,0,0,12,664.2,680.8)" />
<use xlink:href="#f1_4" transform="matrix(12,0,0,12,668.3,680.8)" />
<use xlink:href="#f1_7" transform="matrix(12,0,0,12,681.3,680.8)" />
<use xlink:href="#f1_3" transform="matrix(12,0,0,12,685.4,680.8)" />
<use xlink:href="#f1_4" transform="matrix(12,0,0,12,695.8,680.8)" />
<use xlink:href="#f1_9" transform="matrix(12,0,0,12,708.8,680.8)" />
<use xlink:href="#f1_p" transform="matrix(12,0,0,12,726.5,680.8)" />
<use xlink:href="#f1_a" transform="matrix(12,0,0,12,739.5,680.8)" />
<use xlink:href="#f1_m" transform="matrix(12,0,0,12,749.9,680.8)" />
<use xlink:href="#f1_f" transform="matrix(12,0,0,12,761.3,680.8)" />
<use xlink:href="#f2_z" transform="matrix(11,0,0,11,137.7,700.8)" />
<use xlink:href="#f2_f" transform="matrix(11,0,0,11,144.2,700.8)" />
<use xlink:href="#f2_m" transform="matrix(11,0,0,11,152.6,700.8)" />
<use xlink:href="#f2_a" transform="matrix(11,0,0,11,160.1,700.8)" />
<use xlink:href="#f2_10" transform="matrix(11,0,0,11,168.5,700.8)" />
<use xlink:href="#f2_11" transform="matrix(11,0,0,11,211,700.8)" />
<use xlink:href="#f2_8" transform="matrix(11,0,0,11,223.1,700.8)" />
<use xlink:href="#f2_l" transform="matrix(11,0,0,11,231.5,700.8)" />
<use xlink:href="#f2_m" transform="matrix(11,0,0,11,236.2,700.8)" />
<use xlink:href="#f2_13" transform="matrix(11,0,0,11,247.8,700.8)" />
<use xlink:href="#f2_m" transform="matrix(11,0,0,11,259.8,700.8)" />
<use xlink:href="#f2_a" transform="matrix(11,0,0,11,267.3,700.8)" />
<use xlink:href="#f2_m" transform="matrix(11,0,0,11,275.7,700.8)" />
<use xlink:href="#f2_o" transform="matrix(11,0,0,11,283.1,700.8)" />
<use xlink:href="#f2_14" transform="matrix(11,0,0,11,291.5,700.8)" />
<use xlink:href="#f2_15" transform="matrix(11,0,0,11,299,700.8)" />
<use xlink:href="#f2_8" transform="matrix(11,0,0,11,310.2,700.8)" />
<use xlink:href="#f2_p" transform="matrix(11,0,0,11,318.6,700.8)" />
<use xlink:href="#f2_8" transform="matrix(11,0,0,11,331.7,700.8)" />
<use xlink:href="#f2_2" transform="matrix(11,0,0,11,344.2,700.8)" />
<use xlink:href="#f2_g" transform="matrix(11,0,0,11,351.7,700.8)" />
<use xlink:href="#f2_h" transform="matrix(11,0,0,11,358.2,700.8)" />
<use xlink:href="#f2_16" transform="matrix(11,0,0,11,362.9,700.8)" />
<use xlink:href="#f2_g" transform="matrix(11,0,0,11,370.3,700.8)" />
<use xlink:href="#f2_17" transform="matrix(11,0,0,11,376.8,700.8)" />
<use xlink:href="#f2_13" transform="matrix(11,0,0,11,137.7,720.2)" />
<use xlink:href="#f2_m" transform="matrix(11,0,0,11,149.7,720.2)" />
<use xlink:href="#f2_a" transform="matrix(11,0,0,11,157.2,720.2)" />
<use xlink:href="#f2_m" transform="matrix(11,0,0,11,165.6,720.2)" />
<use xlink:href="#f2_10" transform="matrix(11,0,0,11,173,720.2)" />
<use xlink:href="#f2_y" transform="matrix(11,0,0,11,211,724.5)" />
<use xlink:href="#f2_8" transform="matrix(11,0,0,11,223.1,724.5)" />
<use xlink:href="#f2_2" transform="matrix(11,0,0,11,235.7,724.5)" />
<use xlink:href="#f2_g" transform="matrix(11,0,0,11,243.1,724.5)" />
<use xlink:href="#f2_h" transform="matrix(11,0,0,11,249.6,724.5)" />
<use xlink:href="#f2_8" transform="matrix(11,0,0,11,254.3,724.5)" />
<use xlink:href="#f2_7" transform="matrix(11,0,0,11,262.7,724.5)" />
<use xlink:href="#f3_10" transform="matrix(14,0,0,14,275.3,724.5)" />
<use xlink:href="#f3_n" transform="matrix(14,0,0,14,287.2,724.5)" />
<use xlink:href="#f3_p" transform="matrix(14,0,0,14,293.1,724.5)" />
<use xlink:href="#f3_11" transform="matrix(14,0,0,14,302.6,724.5)" />
<use xlink:href="#f2_w" transform="matrix(11,0,0,11,318.8,724.5)" />
<use xlink:href="#f2_3" transform="matrix(11,0,0,11,327.1,724.5)" />
<use xlink:href="#f2_m" transform="matrix(11,0,0,11,332.7,724.5)" />
<use xlink:href="#f2_5" transform="matrix(11,0,0,11,340.2,724.5)" />
<use xlink:href="#f2_4" transform="matrix(11,0,0,11,347.6,724.5)" />
<use xlink:href="#f2_m" transform="matrix(11,0,0,11,352.4,724.5)" />
<use xlink:href="#f2_g" transform="matrix(11,0,0,11,359.7,724.5)" />
<use xlink:href="#f1_9" transform="matrix(12,0,0,12,282.5,768.5)" />
<use xlink:href="#f1_n" transform="matrix(12,0,0,12,294.4,768.5)" />
<use xlink:href="#f1_c" transform="matrix(12,0,0,12,301.7,768.5)" />
<use xlink:href="#f1_l" transform="matrix(12,0,0,12,306.6,768.5)" />
<use xlink:href="#f1_9" transform="matrix(12,0,0,12,324,768.5)" />
<use xlink:href="#f1_e" transform="matrix(12,0,0,12,335.9,768.5)" />
<use xlink:href="#f1_7" transform="matrix(12,0,0,12,348,768.5)" />
<use xlink:href="#f1_7" transform="matrix(12,0,0,12,352.1,768.5)" />
<use xlink:href="#f1_9" transform="matrix(12,0,0,12,356.2,768.5)" />
<use xlink:href="#f1_d" transform="matrix(12,0,0,12,374,768.5)" />
<use xlink:href="#f1_7" transform="matrix(12,0,0,12,386.3,768.5)" />
<use xlink:href="#f1_9" transform="matrix(12,0,0,12,390.4,768.5)" />
<use xlink:href="#f1_s" transform="matrix(12,0,0,12,408.1,768.5)" />
<use xlink:href="#f1_a" transform="matrix(12,0,0,12,413.9,768.5)" />
<use xlink:href="#f1_q" transform="matrix(12,0,0,12,424.3,768.5)" />
<use xlink:href="#f1_t" transform="matrix(12,0,0,12,434.2,768.5)" />
<use xlink:href="#f1_f" transform="matrix(12,0,0,12,446.1,768.5)" />
<use xlink:href="#f1_x" transform="matrix(12,0,0,12,462.6,768.5)" />
<use xlink:href="#f1_e" transform="matrix(12,0,0,12,469.8,768.5)" />
<use xlink:href="#f1_d" transform="matrix(12,0,0,12,481.8,768.5)" />
<use xlink:href="#f1_b" transform="matrix(12,0,0,12,494.1,768.5)" />
<use xlink:href="#f1_8" transform="matrix(12,0,0,12,504.9,768.5)" />
<use xlink:href="#f1_n" transform="matrix(12,0,0,12,517.3,768.5)" />
<use xlink:href="#f1_v" transform="matrix(12,0,0,12,524.6,768.5)" />
<use xlink:href="#f1_9" transform="matrix(12,0,0,12,537.7,768.5)" />
<use xlink:href="#f1_n" transform="matrix(12,0,0,12,549.6,768.5)" />
<use xlink:href="#f1_7" transform="matrix(12,0,0,12,557,768.5)" />
<use xlink:href="#f1_d" transform="matrix(12,0,0,12,561.1,768.5)" />
<use xlink:href="#f1_d" transform="matrix(12,0,0,12,579.1,768.5)" />
<use xlink:href="#f1_7" transform="matrix(12,0,0,12,591.3,768.5)" />
<use xlink:href="#f1_9" transform="matrix(12,0,0,12,595.5,768.5)" />
<use xlink:href="#f1_4" transform="matrix(12,0,0,12,607.4,768.5)" />
<use xlink:href="#f1_a" transform="matrix(12,0,0,12,626.3,768.5)" />
<use xlink:href="#f1_8" transform="matrix(12,0,0,12,636.5,768.5)" />
<use xlink:href="#f1_c" transform="matrix(12,0,0,12,649,768.5)" />
<use xlink:href="#f1_3" transform="matrix(12,0,0,12,654.1,768.5)" />
<use xlink:href="#f1_9" transform="matrix(12,0,0,12,670.3,768.5)" />
<use xlink:href="#f1_e" transform="matrix(12,0,0,12,682.2,768.5)" />
<use xlink:href="#f1_b" transform="matrix(12,0,0,12,694.2,768.5)" />
<use xlink:href="#f1_a" transform="matrix(12,0,0,12,705.1,768.5)" />
<use xlink:href="#f1_9" transform="matrix(12,0,0,12,721.4,768.5)" />
<use xlink:href="#f1_n" transform="matrix(12,0,0,12,733.3,768.5)" />
<use xlink:href="#f1_q" transform="matrix(12,0,0,12,740.5,768.5)" />
<use xlink:href="#f1_c" transform="matrix(12,0,0,12,756.4,768.5)" />
<use xlink:href="#f1_3" transform="matrix(12,0,0,12,761.4,768.5)" />
<use xlink:href="#f2_y" transform="matrix(11,0,0,11,177.4,768.5)" />
<use xlink:href="#f2_8" transform="matrix(11,0,0,11,189.4,768.5)" />
<use xlink:href="#f2_2" transform="matrix(11,0,0,11,202.1,768.5)" />
<use xlink:href="#f2_g" transform="matrix(11,0,0,11,209.6,768.5)" />
<use xlink:href="#f2_h" transform="matrix(11,0,0,11,216,768.5)" />
<use xlink:href="#f2_8" transform="matrix(11,0,0,11,220.7,768.5)" />
<use xlink:href="#f2_7" transform="matrix(11,0,0,11,229.1,768.5)" />
<use xlink:href="#f3_12" transform="matrix(14,0,0,14,241.8,768.5)" />
<use xlink:href="#f3_q" transform="matrix(14,0,0,14,259.6,768.5)" />
<use xlink:href="#f3_13" transform="matrix(14,0,0,14,270.3,768.5)" />
<use xlink:href="#f1_j" transform="matrix(12,0,0,12,171.7,768.5)" />
<use xlink:href="#f1_15" transform="matrix(12,0,0,12,325.6,790)" />
<use xlink:href="#f1_9" transform="matrix(12,0,0,12,331.7,790)" />
<use xlink:href="#f1_q" transform="matrix(12,0,0,12,343.6,790)" />
<use xlink:href="#f1_l" transform="matrix(12,0,0,12,353.7,790)" />
<use xlink:href="#f1_t" transform="matrix(12,0,0,12,365.1,790)" />
<use xlink:href="#f1_8" transform="matrix(12,0,0,12,376.9,790)" />
<use xlink:href="#f1_3" transform="matrix(12,0,0,12,395.2,790)" />
<use xlink:href="#f1_4" transform="matrix(12,0,0,12,405.6,790)" />
<use xlink:href="#f1_9" transform="matrix(12,0,0,12,424.5,790)" />
<use xlink:href="#f1_f" transform="matrix(12,0,0,12,436.4,790)" />
<use xlink:href="#f1_7" transform="matrix(12,0,0,12,447,790)" />
<use xlink:href="#f1_w" transform="matrix(12,0,0,12,451.1,790)" />
<use xlink:href="#f1_3" transform="matrix(12,0,0,12,468.8,790)" />
<use xlink:href="#f1_l" transform="matrix(12,0,0,12,479.2,790)" />
<use xlink:href="#f1_h" transform="matrix(12,0,0,12,496.6,790)" />
<use xlink:href="#f1_d" transform="matrix(12,0,0,12,501.6,790)" />
<use xlink:href="#f1_c" transform="matrix(12,0,0,12,513.9,790)" />
<use xlink:href="#f1_g" transform="matrix(12,0,0,12,518.9,790)" />
<use xlink:href="#f1_e" transform="matrix(12,0,0,12,536.6,790)" />
<use xlink:href="#f1_d" transform="matrix(12,0,0,12,548.6,790)" />
<use xlink:href="#f1_9" transform="matrix(12,0,0,12,566.7,790)" />
<use xlink:href="#f1_n" transform="matrix(12,0,0,12,578.6,790)" />
<use xlink:href="#f1_q" transform="matrix(12,0,0,12,585.9,790)" />
<use xlink:href="#f1_9" transform="matrix(12,0,0,12,601.9,790)" />
<use xlink:href="#f1_3" transform="matrix(12,0,0,12,613.9,790)" />
<use xlink:href="#f1_d" transform="matrix(12,0,0,12,624.3,790)" />
<use xlink:href="#f1_4" transform="matrix(12,0,0,12,636.5,790)" />
<use xlink:href="#f1_9" transform="matrix(12,0,0,12,655.4,790)" />
<use xlink:href="#f1_g" transform="matrix(12,0,0,12,667.3,790)" />
<use xlink:href="#f1_7" transform="matrix(12,0,0,12,679.2,790)" />
<use xlink:href="#f1_4" transform="matrix(12,0,0,12,683.3,790)" />
<use xlink:href="#f1_9" transform="matrix(12,0,0,12,696.3,790)" />
<use xlink:href="#f1_2" transform="matrix(12,0,0,12,714.2,790)" />
<use xlink:href="#f1_4" transform="matrix(12,0,0,12,724,790)" />
<use xlink:href="#f1_8" transform="matrix(12,0,0,12,736.9,790)" />
<use xlink:href="#f1_9" transform="matrix(12,0,0,12,749.4,790)" />
<use xlink:href="#f1_f" transform="matrix(12,0,0,12,761.4,790)" />
<use xlink:href="#f2_13" transform="matrix(11,0,0,11,137.7,810)" />
<use xlink:href="#f2_m" transform="matrix(11,0,0,11,149.7,810)" />
<use xlink:href="#f2_a" transform="matrix(11,0,0,11,157.2,810)" />
<use xlink:href="#f2_m" transform="matrix(11,0,0,11,165.6,810)" />
<use xlink:href="#f2_14" transform="matrix(11,0,0,11,211,814.5)" />
<use xlink:href="#f2_d" transform="matrix(11,0,0,11,218.4,814.5)" />
<use xlink:href="#f2_l" transform="matrix(11,0,0,11,228.5,814.5)" />
<use xlink:href="#f2_3" transform="matrix(11,0,0,11,237.5,814.5)" />
<use xlink:href="#f2_2" transform="matrix(11,0,0,11,243,814.5)" />
<use xlink:href="#f2_g" transform="matrix(11,0,0,11,250.5,814.5)" />
<use xlink:href="#f2_h" transform="matrix(11,0,0,11,257,814.5)" />
<use xlink:href="#f2_m" transform="matrix(11,0,0,11,261.8,814.5)" />
<use xlink:href="#f2_f" transform="matrix(11,0,0,11,269.2,814.5)" />
<use xlink:href="#f2_3" transform="matrix(11,0,0,11,277.5,814.5)" />
<use xlink:href="#f2_m" transform="matrix(11,0,0,11,283.1,814.5)" />
<use xlink:href="#f2_a" transform="matrix(11,0,0,11,290.6,814.5)" />
<use xlink:href="#f2_h" transform="matrix(11,0,0,11,299,814.5)" />
<use xlink:href="#f2_2" transform="matrix(11,0,0,11,303.7,814.5)" />
<use xlink:href="#f2_2" transform="matrix(11,0,0,11,315.3,814.5)" />
<use xlink:href="#f2_g" transform="matrix(11,0,0,11,322.7,814.5)" />
<use xlink:href="#f3_10" transform="matrix(14,0,0,14,333.7,814.5)" />
<use xlink:href="#f3_14" transform="matrix(14,0,0,14,345.6,814.5)" />
<use xlink:href="#f3_p" transform="matrix(14,0,0,14,357.5,814.5)" />
<use xlink:href="#f3_11" transform="matrix(14,0,0,14,366.9,814.5)" />
<use xlink:href="#f3_k" transform="matrix(14,0,0,14,378.8,814.5)" />
<use xlink:href="#f2_17" transform="matrix(11,0,0,11,389.6,814.5)" />
<use xlink:href="#f2_z" transform="matrix(11,0,0,11,137.7,834.6)" />
<use xlink:href="#f2_f" transform="matrix(11,0,0,11,144.2,834.6)" />
<use xlink:href="#f2_m" transform="matrix(11,0,0,11,152.6,834.6)" />
<use xlink:href="#f2_a" transform="matrix(11,0,0,11,160.1,834.6)" />
<use xlink:href="#f2_10" transform="matrix(11,0,0,11,168.5,834.6)" />
<use xlink:href="#f2_18" transform="matrix(11,0,0,11,211,834.6)" />
<use xlink:href="#f2_q" transform="matrix(11,0,0,11,220.3,834.6)" />
<use xlink:href="#f2_19" transform="matrix(11,0,0,11,224.9,834.6)" />
<use xlink:href="#f2_2" transform="matrix(11,0,0,11,233.4,834.6)" />
<use xlink:href="#f2_l" transform="matrix(11,0,0,11,240.8,834.6)" />
<use xlink:href="#f2_5" transform="matrix(11,0,0,11,249.6,834.6)" />
<use xlink:href="#f2_m" transform="matrix(11,0,0,11,257.1,834.6)" />
<use xlink:href="#f2_t" transform="matrix(11,0,0,11,264.5,834.6)" />
<use xlink:href="#f2_k" transform="matrix(11,0,0,11,270.2,834.6)" />
<use xlink:href="#f2_2" transform="matrix(11,0,0,11,281.7,834.6)" />
<use xlink:href="#f2_g" transform="matrix(11,0,0,11,289.2,834.6)" />
<use xlink:href="#f2_e" transform="matrix(11,0,0,11,299.9,834.6)" />
<use xlink:href="#f2_2" transform="matrix(11,0,0,11,308.3,834.6)" />
<use xlink:href="#f2_l" transform="matrix(11,0,0,11,315.7,834.6)" />
<use xlink:href="#f2_4" transform="matrix(11,0,0,11,320.3,834.6)" />
<use xlink:href="#f2_5" transform="matrix(11,0,0,11,325,834.6)" />
<use xlink:href="#f2_4" transform="matrix(11,0,0,11,332.5,834.6)" />
<use xlink:href="#f2_8" transform="matrix(11,0,0,11,337.2,834.6)" />
<use xlink:href="#f2_g" transform="matrix(11,0,0,11,345.6,834.6)" />
<use xlink:href="#f2_8" transform="matrix(11,0,0,11,352.2,834.6)" />
<use xlink:href="#f2_o" transform="matrix(11,0,0,11,360.4,834.6)" />
<use xlink:href="#f1_9" transform="matrix(12,0,0,12,355.2,877.7)" />
<use xlink:href="#f1_n" transform="matrix(12,0,0,12,367.1,877.7)" />
<use xlink:href="#f1_c" transform="matrix(12,0,0,12,374.4,877.7)" />
<use xlink:href="#f1_l" transform="matrix(12,0,0,12,379.5,877.7)" />
<use xlink:href="#f1_9" transform="matrix(12,0,0,12,400.5,877.7)" />
<use xlink:href="#f1_7" transform="matrix(12,0,0,12,412.4,877.7)" />
<use xlink:href="#f1_9" transform="matrix(12,0,0,12,416.5,877.7)" />
<use xlink:href="#f1_d" transform="matrix(12,0,0,12,438,877.7)" />
<use xlink:href="#f1_c" transform="matrix(12,0,0,12,450.3,877.7)" />
<use xlink:href="#f1_9" transform="matrix(12,0,0,12,455.3,877.7)" />
<use xlink:href="#f1_9" transform="matrix(12,0,0,12,476.8,877.7)" />
<use xlink:href="#f1_l" transform="matrix(12,0,0,12,488.7,877.7)" />
<use xlink:href="#f1_c" transform="matrix(12,0,0,12,500.2,877.7)" />
<use xlink:href="#f1_a" transform="matrix(12,0,0,12,505.2,877.7)" />
<use xlink:href="#f1_k" transform="matrix(12,0,0,12,515.6,877.7)" />
<use xlink:href="#f1_9" transform="matrix(12,0,0,12,532.7,877.7)" />
<use xlink:href="#f1_q" transform="matrix(12,0,0,12,544.6,877.7)" />
<use xlink:href="#f1_l" transform="matrix(12,0,0,12,554.6,877.7)" />
<use xlink:href="#f1_t" transform="matrix(12,0,0,12,566.1,877.7)" />
<use xlink:href="#f1_8" transform="matrix(12,0,0,12,578,877.7)" />
<use xlink:href="#f1_9" transform="matrix(12,0,0,12,590.5,877.7)" />
<use xlink:href="#f1_4" transform="matrix(12,0,0,12,602.4,877.7)" />
<use xlink:href="#f1_f" transform="matrix(12,0,0,12,625,877.7)" />
<use xlink:href="#f1_4" transform="matrix(12,0,0,12,635.5,877.7)" />
<use xlink:href="#f1_c" transform="matrix(12,0,0,12,648.5,877.7)" />
<use xlink:href="#f1_g" transform="matrix(12,0,0,12,653.5,877.7)" />
<use xlink:href="#f1_9" transform="matrix(12,0,0,12,675,877.7)" />
<use xlink:href="#f1_7" transform="matrix(12,0,0,12,686.9,877.7)" />
<use xlink:href="#f1_9" transform="matrix(12,0,0,12,691.1,877.7)" />
<use xlink:href="#f1_h" transform="matrix(12,0,0,12,712.6,877.7)" />
<use xlink:href="#f1_d" transform="matrix(12,0,0,12,717.6,877.7)" />
<use xlink:href="#f1_c" transform="matrix(12,0,0,12,729.8,877.7)" />
<use xlink:href="#f1_g" transform="matrix(12,0,0,12,734.8,877.7)" />
<use xlink:href="#f1_c" transform="matrix(12,0,0,12,756.2,877.7)" />
<use xlink:href="#f1_3" transform="matrix(12,0,0,12,761.2,877.7)" />
<use xlink:href="#f2_1a" transform="matrix(11,0,0,11,143.3,877.7)" />
<use xlink:href="#f2_8" transform="matrix(11,0,0,11,155.4,877.7)" />
<use xlink:href="#f2_19" transform="matrix(11,0,0,11,163.8,877.7)" />
<use xlink:href="#f2_2" transform="matrix(11,0,0,11,176,877.7)" />
<use xlink:href="#f2_l" transform="matrix(11,0,0,11,183.3,877.7)" />
<use xlink:href="#f2_3" transform="matrix(11,0,0,11,196,877.7)" />
<use xlink:href="#f2_2" transform="matrix(11,0,0,11,201.6,877.7)" />
<use xlink:href="#f2_g" transform="matrix(11,0,0,11,208.9,877.7)" />
<use xlink:href="#f2_h" transform="matrix(11,0,0,11,215.5,877.7)" />
<use xlink:href="#f2_m" transform="matrix(11,0,0,11,220.2,877.7)" />
<use xlink:href="#f2_f" transform="matrix(11,0,0,11,227.7,877.7)" />
<use xlink:href="#f2_3" transform="matrix(11,0,0,11,236.1,877.7)" />
<use xlink:href="#f2_m" transform="matrix(11,0,0,11,241.6,877.7)" />
<use xlink:href="#f2_a" transform="matrix(11,0,0,11,249,877.7)" />
<use xlink:href="#f2_h" transform="matrix(11,0,0,11,257.4,877.7)" />
<use xlink:href="#f2_2" transform="matrix(11,0,0,11,262.1,877.7)" />
<use xlink:href="#f2_2" transform="matrix(11,0,0,11,277.5,877.7)" />
<use xlink:href="#f2_g" transform="matrix(11,0,0,11,284.9,877.7)" />
<use xlink:href="#f3_12" transform="matrix(14,0,0,14,299.8,877.7)" />
<use xlink:href="#f3_q" transform="matrix(14,0,0,14,317.6,877.7)" />
<use xlink:href="#f3_13" transform="matrix(14,0,0,14,328.3,877.7)" />
<use xlink:href="#f3_k" transform="matrix(14,0,0,14,334.3,877.7)" />
<use xlink:href="#f1_j" transform="matrix(12,0,0,12,137.7,877.7)" />
<use xlink:href="#f1_15" transform="matrix(12,0,0,12,721.7,899.3)" />
<use xlink:href="#f1_h" transform="matrix(12,0,0,12,727.8,899.3)" />
<use xlink:href="#f1_d" transform="matrix(12,0,0,12,732.9,899.3)" />
<use xlink:href="#f1_i" transform="matrix(12,0,0,12,745.1,899.3)" />
<use xlink:href="#f1_8" transform="matrix(12,0,0,12,754.7,899.3)" />
<use xlink:href="#f1_c" transform="matrix(12,0,0,12,767.1,899.3)" />
<use xlink:href="#f0_j" transform="matrix(12,0,0,12,482.1,942.9)" />
<use xlink:href="#f0_c" transform="matrix(12,0,0,12,499.5,942.9)" />
<use xlink:href="#f0_d" transform="matrix(12,0,0,12,512.4,942.9)" />
<use xlink:href="#f0_e" transform="matrix(12,0,0,12,517.7,942.9)" />
<use xlink:href="#f0_8" transform="matrix(12,0,0,12,531.6,942.9)" />
<use xlink:href="#f0_p" transform="matrix(12,0,0,12,544.9,942.9)" />
<use xlink:href="#f0_e" transform="matrix(12,0,0,12,557.4,942.9)" />
<use xlink:href="#f0_8" transform="matrix(12,0,0,12,571.3,942.9)" />
<use xlink:href="#f0_h" transform="matrix(12,0,0,12,591,942.9)" />
<use xlink:href="#f0_n" transform="matrix(12,0,0,12,597.8,942.9)" />
<use xlink:href="#f0_i" transform="matrix(12,0,0,12,609,942.9)" />
<use xlink:href="#f0_b" transform="matrix(12,0,0,12,621.2,942.9)" />
<use xlink:href="#f0_5" transform="matrix(12,0,0,12,627.5,942.9)" />
<use xlink:href="#f0_4" transform="matrix(12,0,0,12,645.9,942.9)" />
<use xlink:href="#f0_u" transform="matrix(12,0,0,12,656.9,942.9)" />
<use xlink:href="#f0_p" transform="matrix(12,0,0,12,670.2,942.9)" />
<use xlink:href="#f0_n" transform="matrix(12,0,0,12,682.7,942.9)" />
<use xlink:href="#f0_c" transform="matrix(12,0,0,12,700.2,942.9)" />
<use xlink:href="#f0_d" transform="matrix(12,0,0,12,713.1,942.9)" />
<use xlink:href="#f0_v" transform="matrix(12,0,0,12,718.4,942.9)" />
<use xlink:href="#f0_b" transform="matrix(12,0,0,12,730.3,942.9)" />
<use xlink:href="#f0_4" transform="matrix(12,0,0,12,736.6,942.9)" />
<use xlink:href="#f0_e" transform="matrix(12,0,0,12,747.6,942.9)" />
<use xlink:href="#f0_w" transform="matrix(12,0,0,12,761.5,942.9)" />
</g>
</g>
<path d="M475.7,944.8H772.3" class="g3_3" />
<g clip-path="url(#c0_3)">
<g fill="#000000" >
<use xlink:href="#f3_10" transform="matrix(14,0,0,14,436.2,942.9)" />
<use xlink:href="#f3_n" transform="matrix(14,0,0,14,448.1,942.9)" />
<use xlink:href="#f3_p" transform="matrix(14,0,0,14,454,942.9)" />
<use xlink:href="#f3_11" transform="matrix(14,0,0,14,463.5,942.9)" />
<use xlink:href="#f0_b" transform="matrix(12,0,0,12,410.3,942.9)" />
<use xlink:href="#f0_u" transform="matrix(12,0,0,12,416.6,942.9)" />
<use xlink:href="#f3_12" transform="matrix(14,0,0,14,363,942.9)" />
<use xlink:href="#f3_q" transform="matrix(14,0,0,14,380.7,942.9)" />
<use xlink:href="#f3_13" transform="matrix(14,0,0,14,391.4,942.9)" />
<use xlink:href="#f0_x" transform="matrix(12,0,0,12,356.1,942.9)" />
<use xlink:href="#f0_j" transform="matrix(12,0,0,12,453.7,967.5)" />
<use xlink:href="#f0_c" transform="matrix(12,0,0,12,471.3,967.5)" />
<use xlink:href="#f0_d" transform="matrix(12,0,0,12,484.1,967.5)" />
<use xlink:href="#f0_e" transform="matrix(12,0,0,12,489.4,967.5)" />
<use xlink:href="#f0_8" transform="matrix(12,0,0,12,503.3,967.5)" />
<use xlink:href="#f0_p" transform="matrix(12,0,0,12,516.6,967.5)" />
<use xlink:href="#f0_e" transform="matrix(12,0,0,12,529.1,967.5)" />
<use xlink:href="#f0_8" transform="matrix(12,0,0,12,542.9,967.5)" />
<use xlink:href="#f0_h" transform="matrix(12,0,0,12,562.6,967.5)" />
<use xlink:href="#f0_c" transform="matrix(12,0,0,12,569.6,967.5)" />
<use xlink:href="#f0_v" transform="matrix(12,0,0,12,582.4,967.5)" />
<use xlink:href="#f0_i" transform="matrix(12,0,0,12,594.3,967.5)" />
<use xlink:href="#f0_c" transform="matrix(12,0,0,12,612.8,967.5)" />
<use xlink:href="#f0_e" transform="matrix(12,0,0,12,625.6,967.5)" />
<use xlink:href="#f0_4" transform="matrix(12,0,0,12,645.9,967.5)" />
<use xlink:href="#f0_u" transform="matrix(12,0,0,12,656.9,967.5)" />
<use xlink:href="#f0_p" transform="matrix(12,0,0,12,670.2,967.5)" />
<use xlink:href="#f0_n" transform="matrix(12,0,0,12,682.7,967.5)" />
<use xlink:href="#f0_c" transform="matrix(12,0,0,12,700.2,967.5)" />
<use xlink:href="#f0_d" transform="matrix(12,0,0,12,713,967.5)" />
<use xlink:href="#f0_v" transform="matrix(12,0,0,12,718.4,967.5)" />
<use xlink:href="#f0_b" transform="matrix(12,0,0,12,730.3,967.5)" />
<use xlink:href="#f0_4" transform="matrix(12,0,0,12,736.6,967.5)" />
<use xlink:href="#f0_e" transform="matrix(12,0,0,12,747.6,967.5)" />
<use xlink:href="#f0_w" transform="matrix(12,0,0,12,761.5,967.5)" />
</g>
</g>
<path d="M447.3,969.4H772.1" class="g3_3" />
<g clip-path="url(#c0_3)">
<g fill="#000000" >
<use xlink:href="#f3_10" transform="matrix(14,0,0,14,374.6,967.5)" />
<use xlink:href="#f3_14" transform="matrix(14,0,0,14,386.5,967.5)" />
<use xlink:href="#f3_p" transform="matrix(14,0,0,14,398.4,967.5)" />
<use xlink:href="#f3_11" transform="matrix(14,0,0,14,407.9,967.5)" />
<use xlink:href="#f3_k" transform="matrix(14,0,0,14,419.8,967.5)" />
<use xlink:href="#f3_15" transform="matrix(14,0,0,14,430.5,967.5)" />
<use xlink:href="#f3_q" transform="matrix(14,0,0,14,436.4,967.5)" />
<use xlink:href="#f0_b" transform="matrix(12,0,0,12,342.3,967.5)" />
<use xlink:href="#f0_u" transform="matrix(12,0,0,12,348.6,967.5)" />
<use xlink:href="#f3_12" transform="matrix(14,0,0,14,267.7,967.5)" />
<use xlink:href="#f3_q" transform="matrix(14,0,0,14,285.5,967.5)" />
<use xlink:href="#f3_13" transform="matrix(14,0,0,14,296.2,967.5)" />
<use xlink:href="#f3_k" transform="matrix(14,0,0,14,302.2,967.5)" />
<use xlink:href="#f3_15" transform="matrix(14,0,0,14,312.9,967.5)" />
<use xlink:href="#f3_q" transform="matrix(14,0,0,14,318.8,967.5)" />
<use xlink:href="#f1_15" transform="matrix(12,0,0,12,539.5,1008.5)" />
<use xlink:href="#f1_z" transform="matrix(12,0,0,12,545.6,1008.5)" />
<use xlink:href="#f1_t" transform="matrix(12,0,0,12,557.3,1008.5)" />
<use xlink:href="#f1_c" transform="matrix(12,0,0,12,569.2,1008.5)" />
<use xlink:href="#f1_n" transform="matrix(12,0,0,12,574.2,1008.5)" />
<use xlink:href="#f1_3" transform="matrix(12,0,0,12,587.5,1008.5)" />
<use xlink:href="#f1_3" transform="matrix(12,0,0,12,597.9,1008.5)" />
<use xlink:href="#f1_i" transform="matrix(12,0,0,12,608.3,1008.5)" />
<use xlink:href="#f1_4" transform="matrix(12,0,0,12,623.7,1008.5)" />
<use xlink:href="#f1_7" transform="matrix(12,0,0,12,636.7,1008.5)" />
<use xlink:href="#f1_6" transform="matrix(12,0,0,12,646.6,1008.5)" />
<use xlink:href="#f1_b" transform="matrix(12,0,0,12,658.8,1008.5)" />
<use xlink:href="#f1_l" transform="matrix(12,0,0,12,669.7,1008.5)" />
<use xlink:href="#f1_6" transform="matrix(12,0,0,12,687,1008.5)" />
<use xlink:href="#f1_4" transform="matrix(12,0,0,12,699.2,1008.5)" />
<use xlink:href="#f1_a" transform="matrix(12,0,0,12,718,1008.5)" />
<use xlink:href="#f1_c" transform="matrix(12,0,0,12,728.2,1008.5)" />
<use xlink:href="#f1_d" transform="matrix(12,0,0,12,733.2,1008.5)" />
<use xlink:href="#f1_7" transform="matrix(12,0,0,12,745.5,1008.5)" />
<use xlink:href="#f1_e" transform="matrix(12,0,0,12,749.6,1008.5)" />
<use xlink:href="#f1_3" transform="matrix(12,0,0,12,761.6,1008.5)" />
<use xlink:href="#f1_l" transform="matrix(12,0,0,12,591.2,1029.9)" />
<use xlink:href="#f1_7" transform="matrix(12,0,0,12,602.7,1029.9)" />
<use xlink:href="#f1_m" transform="matrix(12,0,0,12,606.8,1029.9)" />
<use xlink:href="#f1_c" transform="matrix(12,0,0,12,618.1,1029.9)" />
<use xlink:href="#f1_8" transform="matrix(12,0,0,12,623.1,1029.9)" />
<use xlink:href="#f1_l" transform="matrix(12,0,0,12,648.3,1029.9)" />
<use xlink:href="#f1_a" transform="matrix(12,0,0,12,659.8,1029.9)" />
<use xlink:href="#f1_r" transform="matrix(12,0,0,12,670.1,1029.9)" />
<use xlink:href="#f1_f" transform="matrix(12,0,0,12,676.2,1029.9)" />
<use xlink:href="#f1_c" transform="matrix(12,0,0,12,686.8,1029.9)" />
<use xlink:href="#f1_w" transform="matrix(12,0,0,12,691.8,1029.9)" />
<use xlink:href="#f1_a" transform="matrix(12,0,0,12,716.2,1029.9)" />
<use xlink:href="#f1_c" transform="matrix(12,0,0,12,726.6,1029.9)" />
<use xlink:href="#f1_d" transform="matrix(12,0,0,12,731.6,1029.9)" />
<use xlink:href="#f1_7" transform="matrix(12,0,0,12,743.8,1029.9)" />
<use xlink:href="#f1_e" transform="matrix(12,0,0,12,748,1029.9)" />
<use xlink:href="#f1_9" transform="matrix(12,0,0,12,760,1029.9)" />
<use xlink:href="#f0_d" transform="matrix(12,0,0,12,541.8,1029.9)" />
<use xlink:href="#f0_y" transform="matrix(12,0,0,12,547.1,1029.9)" />
<use xlink:href="#f0_5" transform="matrix(12,0,0,12,555.4,1029.9)" />
<use xlink:href="#f0_n" transform="matrix(12,0,0,12,567.3,1029.9)" />
<use xlink:href="#f1_6" transform="matrix(12,0,0,12,297.9,1029.9)" />
<use xlink:href="#f1_7" transform="matrix(12,0,0,12,310.1,1029.9)" />
<use xlink:href="#f1_w" transform="matrix(12,0,0,12,314.2,1029.9)" />
<use xlink:href="#f1_c" transform="matrix(12,0,0,12,326.1,1029.9)" />
<use xlink:href="#f1_4" transform="matrix(12,0,0,12,331,1029.9)" />
<use xlink:href="#f1_m" transform="matrix(12,0,0,12,344,1029.9)" />
<use xlink:href="#f1_6" transform="matrix(12,0,0,12,368.1,1029.9)" />
<use xlink:href="#f1_7" transform="matrix(12,0,0,12,380.3,1029.9)" />
<use xlink:href="#f1_w" transform="matrix(12,0,0,12,384.3,1029.9)" />
<use xlink:href="#f1_m" transform="matrix(12,0,0,12,396.2,1029.9)" />
<use xlink:href="#f1_4" transform="matrix(12,0,0,12,407.6,1029.9)" />
<use xlink:href="#f1_8" transform="matrix(12,0,0,12,420.6,1029.9)" />
<use xlink:href="#f1_f" transform="matrix(12,0,0,12,433.1,1029.9)" />
<use xlink:href="#f1_6" transform="matrix(12,0,0,12,456.3,1029.9)" />
<use xlink:href="#f1_b" transform="matrix(12,0,0,12,468.5,1029.9)" />
<use xlink:href="#f1_l" transform="matrix(12,0,0,12,479.4,1029.9)" />
<use xlink:href="#f1_6" transform="matrix(12,0,0,12,503.3,1029.9)" />
<use xlink:href="#f1_4" transform="matrix(12,0,0,12,515.5,1029.9)" />
<use xlink:href="#f0_p" transform="matrix(12,0,0,12,137.8,1029.9)" />
<use xlink:href="#f0_4" transform="matrix(12,0,0,12,150.3,1029.9)" />
<use xlink:href="#f0_v" transform="matrix(12,0,0,12,161.3,1029.9)" />
<use xlink:href="#f0_b" transform="matrix(12,0,0,12,173.2,1029.9)" />
<use xlink:href="#f0_3" transform="matrix(12,0,0,12,179.5,1029.9)" />
<use xlink:href="#f0_8" transform="matrix(12,0,0,12,193,1029.9)" />
<use xlink:href="#f0_a" transform="matrix(12,0,0,12,206.2,1029.9)" />
<use xlink:href="#f0_a" transform="matrix(12,0,0,12,232.2,1029.9)" />
<use xlink:href="#f0_4" transform="matrix(12,0,0,12,244.7,1029.9)" />
<use xlink:href="#f0_b" transform="matrix(12,0,0,12,255.7,1029.9)" />
<use xlink:href="#f0_v" transform="matrix(12,0,0,12,262,1029.9)" />
<use xlink:href="#f0_j" transform="matrix(12,0,0,12,273.9,1029.9)" />
<use xlink:href="#f2_v" transform="matrix(11,0,0,11,709.3,1051.3)" />
<use xlink:href="#f2_f" transform="matrix(11,0,0,11,717.8,1051.3)" />
<use xlink:href="#f2_2" transform="matrix(11,0,0,11,726.2,1051.3)" />
<use xlink:href="#f2_a" transform="matrix(11,0,0,11,733.6,1051.3)" />
<use xlink:href="#f2_6" transform="matrix(11,0,0,11,742,1051.3)" />
<use xlink:href="#f2_p" transform="matrix(11,0,0,11,746.6,1051.3)" />
<use xlink:href="#f2_m" transform="matrix(11,0,0,11,759.7,1051.3)" />
<use xlink:href="#f2_l" transform="matrix(11,0,0,11,767.2,1051.3)" />
<use xlink:href="#f1_15" transform="matrix(12,0,0,12,137.5,1051.3)" />
<use xlink:href="#f1_3" transform="matrix(12,0,0,12,143.6,1051.3)" />
<use xlink:href="#f1_4" transform="matrix(12,0,0,12,154,1051.3)" />
<use xlink:href="#f1_8" transform="matrix(12,0,0,12,167,1051.3)" />
<use xlink:href="#f1_3" transform="matrix(12,0,0,12,179.5,1051.3)" />
<use xlink:href="#f1_j" transform="matrix(12,0,0,12,703.6,1051.3)" />
</g>
</g>
<path d="M128.6,1075.3H620.4m-491.8,22.2H620.4m-491.8,22.1H620.4M128.9,1074.9V1120m238.2,-45.1V1120M620,1074.9V1120" class="g1_3" />
<g clip-path="url(#c0_3)">
<g fill="#000000" >
<use xlink:href="#f1_f" transform="matrix(12,0,0,12,517,1092.8)" />
<use xlink:href="#f1_c" transform="matrix(12,0,0,12,527.5,1092.8)" />
<use xlink:href="#f1_w" transform="matrix(12,0,0,12,532.6,1092.8)" />
<use xlink:href="#f1_h" transform="matrix(12,0,0,12,550.3,1092.8)" />
<use xlink:href="#f1_7" transform="matrix(12,0,0,12,555.3,1092.8)" />
<use xlink:href="#f1_q" transform="matrix(12,0,0,12,559.3,1092.8)" />
<use xlink:href="#f1_2" transform="matrix(12,0,0,12,575.3,1092.8)" />
<use xlink:href="#f1_a" transform="matrix(12,0,0,12,585.1,1092.8)" />
<use xlink:href="#f1_c" transform="matrix(12,0,0,12,595.3,1092.8)" />
<use xlink:href="#f1_l" transform="matrix(12,0,0,12,600.3,1092.8)" />
<use xlink:href="#f2_v" transform="matrix(11,0,0,11,376,1091.4)" />
<use xlink:href="#f2_f" transform="matrix(11,0,0,11,384.4,1091.4)" />
<use xlink:href="#f2_2" transform="matrix(11,0,0,11,392.8,1091.4)" />
<use xlink:href="#f2_a" transform="matrix(11,0,0,11,400.3,1091.4)" />
<use xlink:href="#f2_m" transform="matrix(11,0,0,11,412.8,1091.4)" />
<use xlink:href="#f2_v" transform="matrix(11,0,0,11,420.2,1091.4)" />
<use xlink:href="#f2_8" transform="matrix(11,0,0,11,428.6,1091.4)" />
<use xlink:href="#f2_w" transform="matrix(11,0,0,11,437,1091.4)" />
<use xlink:href="#f2_m" transform="matrix(11,0,0,11,445.4,1091.4)" />
<use xlink:href="#f2_e" transform="matrix(11,0,0,11,452.9,1091.4)" />
<use xlink:href="#f2_8" transform="matrix(11,0,0,11,461.3,1091.4)" />
<use xlink:href="#f1_f" transform="matrix(12,0,0,12,304.5,1092.8)" />
<use xlink:href="#f1_c" transform="matrix(12,0,0,12,315,1092.8)" />
<use xlink:href="#f1_w" transform="matrix(12,0,0,12,320.1,1092.8)" />
<use xlink:href="#f1_6" transform="matrix(12,0,0,12,337.8,1092.8)" />
<use xlink:href="#f1_c" transform="matrix(12,0,0,12,350,1092.8)" />
<use xlink:href="#f1_7" transform="matrix(12,0,0,12,354.9,1092.8)" />
<use xlink:href="#f2_v" transform="matrix(11,0,0,11,137.7,1091.4)" />
<use xlink:href="#f2_f" transform="matrix(11,0,0,11,146.1,1091.4)" />
<use xlink:href="#f2_2" transform="matrix(11,0,0,11,154.5,1091.4)" />
<use xlink:href="#f2_a" transform="matrix(11,0,0,11,161.9,1091.4)" />
<use xlink:href="#f2_e" transform="matrix(11,0,0,11,174.6,1091.4)" />
<use xlink:href="#f2_q" transform="matrix(11,0,0,11,182.8,1091.4)" />
<use xlink:href="#f2_m" transform="matrix(11,0,0,11,187.6,1091.4)" />
<use xlink:href="#f1_l" transform="matrix(12,0,0,12,539.5,1115)" />
<use xlink:href="#f1_a" transform="matrix(12,0,0,12,550.9,1115)" />
<use xlink:href="#f1_a" transform="matrix(12,0,0,12,567.1,1115)" />
<use xlink:href="#f1_c" transform="matrix(12,0,0,12,577.5,1115)" />
<use xlink:href="#f1_8" transform="matrix(12,0,0,12,582.5,1115)" />
<use xlink:href="#f1_c" transform="matrix(12,0,0,12,594.9,1115)" />
<use xlink:href="#f1_9" transform="matrix(12,0,0,12,599.9,1115)" />
<use xlink:href="#f2_p" transform="matrix(11,0,0,11,376,1113.6)" />
<use xlink:href="#f2_m" transform="matrix(11,0,0,11,389,1113.6)" />
<use xlink:href="#f2_l" transform="matrix(11,0,0,11,396.4,1113.6)" />
<use xlink:href="#f2_x" transform="matrix(11,0,0,11,405.3,1113.6)" />
<use xlink:href="#f2_f" transform="matrix(11,0,0,11,413.7,1113.6)" />
<use xlink:href="#f2_p" transform="matrix(11,0,0,11,422.1,1113.6)" />
<use xlink:href="#f2_8" transform="matrix(11,0,0,11,435.2,1113.6)" />
<use xlink:href="#f2_3" transform="matrix(11,0,0,11,443.6,1113.6)" />
<use xlink:href="#f1_l" transform="matrix(12,0,0,12,310.1,1115)" />
<use xlink:href="#f1_a" transform="matrix(12,0,0,12,321.6,1115)" />
<use xlink:href="#f1_6" transform="matrix(12,0,0,12,337.8,1115)" />
<use xlink:href="#f1_c" transform="matrix(12,0,0,12,350,1115)" />
<use xlink:href="#f1_7" transform="matrix(12,0,0,12,354.9,1115)" />
<use xlink:href="#f2_p" transform="matrix(11,0,0,11,137.7,1113.6)" />
<use xlink:href="#f2_m" transform="matrix(11,0,0,11,150.8,1113.6)" />
<use xlink:href="#f2_l" transform="matrix(11,0,0,11,158.1,1113.6)" />
<use xlink:href="#f2_e" transform="matrix(11,0,0,11,167.1,1113.6)" />
<use xlink:href="#f2_q" transform="matrix(11,0,0,11,175.3,1113.6)" />
<use xlink:href="#f2_m" transform="matrix(11,0,0,11,180.1,1113.6)" />
<use xlink:href="#f1_9" transform="matrix(12,0,0,12,399.2,1156.4)" />
<use xlink:href="#f1_d" transform="matrix(12,0,0,12,411.1,1156.4)" />
<use xlink:href="#f1_3" transform="matrix(12,0,0,12,423.3,1156.4)" />
<use xlink:href="#f1_8" transform="matrix(12,0,0,12,433.7,1156.4)" />
<use xlink:href="#f1_9" transform="matrix(12,0,0,12,446.2,1156.4)" />
<use xlink:href="#f1_9" transform="matrix(12,0,0,12,464.1,1156.4)" />
<use xlink:href="#f1_a" transform="matrix(12,0,0,12,476,1156.4)" />
<use xlink:href="#f1_c" transform="matrix(12,0,0,12,486.4,1156.4)" />
<use xlink:href="#f1_b" transform="matrix(12,0,0,12,491.4,1156.4)" />
<use xlink:href="#f1_f" transform="matrix(12,0,0,12,502.3,1156.4)" />
<use xlink:href="#f1_e" transform="matrix(12,0,0,12,518.6,1156.4)" />
<use xlink:href="#f1_a" transform="matrix(12,0,0,12,530.7,1156.4)" />
<use xlink:href="#f1_d" transform="matrix(12,0,0,12,541,1156.4)" />
<use xlink:href="#f1_4" transform="matrix(12,0,0,12,553.3,1156.4)" />
<use xlink:href="#f1_n" transform="matrix(12,0,0,12,566.2,1156.4)" />
<use xlink:href="#f1_e" transform="matrix(12,0,0,12,579.4,1156.4)" />
<use xlink:href="#f1_d" transform="matrix(12,0,0,12,591.4,1156.4)" />
<use xlink:href="#f1_o" transform="matrix(12,0,0,12,603.7,1156.4)" />
<use xlink:href="#f1_e" transform="matrix(12,0,0,12,615.9,1156.4)" />
<use xlink:href="#f1_8" transform="matrix(12,0,0,12,627.9,1156.4)" />
<use xlink:href="#f1_c" transform="matrix(12,0,0,12,640.3,1156.4)" />
<use xlink:href="#f1_l" transform="matrix(12,0,0,12,645.3,1156.4)" />
<use xlink:href="#f1_3" transform="matrix(12,0,0,12,656.8,1156.4)" />
<use xlink:href="#f1_9" transform="matrix(12,0,0,12,673.3,1156.4)" />
<use xlink:href="#f1_f" transform="matrix(12,0,0,12,685.2,1156.4)" />
<use xlink:href="#f1_p" transform="matrix(12,0,0,12,695.7,1156.4)" />
<use xlink:href="#f1_n" transform="matrix(12,0,0,12,708.7,1156.4)" />
<use xlink:href="#f1_9" transform="matrix(12,0,0,12,716,1156.4)" />
<use xlink:href="#f1_e" transform="matrix(12,0,0,12,733.8,1156.4)" />
<use xlink:href="#f1_a" transform="matrix(12,0,0,12,745.8,1156.4)" />
<use xlink:href="#f1_c" transform="matrix(12,0,0,12,756,1156.4)" />
<use xlink:href="#f1_b" transform="matrix(12,0,0,12,761.1,1156.4)" />
<use xlink:href="#f2_v" transform="matrix(11,0,0,11,315.6,1156.4)" />
<use xlink:href="#f2_f" transform="matrix(11,0,0,11,324,1156.4)" />
<use xlink:href="#f2_2" transform="matrix(11,0,0,11,332.4,1156.4)" />
<use xlink:href="#f2_a" transform="matrix(11,0,0,11,339.9,1156.4)" />
<use xlink:href="#f2_m" transform="matrix(11,0,0,11,348.2,1156.4)" />
<use xlink:href="#f2_6" transform="matrix(11,0,0,11,355.6,1156.4)" />
<use xlink:href="#f2_p" transform="matrix(11,0,0,11,360.3,1156.4)" />
<use xlink:href="#f2_m" transform="matrix(11,0,0,11,373.3,1156.4)" />
<use xlink:href="#f2_l" transform="matrix(11,0,0,11,380.8,1156.4)" />
<use xlink:href="#f2_m" transform="matrix(11,0,0,11,385.5,1156.4)" />
<use xlink:href="#f1_15" transform="matrix(12,0,0,12,251.8,1156.4)" />
<use xlink:href="#f1_3" transform="matrix(12,0,0,12,257.9,1156.4)" />
<use xlink:href="#f1_4" transform="matrix(12,0,0,12,268.3,1156.4)" />
<use xlink:href="#f1_8" transform="matrix(12,0,0,12,281.3,1156.4)" />
<use xlink:href="#f1_3" transform="matrix(12,0,0,12,293.8,1156.4)" />
<use xlink:href="#f1_j" transform="matrix(12,0,0,12,310,1156.4)" />
</g>
</g>
<defs>
<path d="M248,0L521,658H66v429H313V836l493,-1V716L504,0Z" 
id="f0_n"
transform="scale(0.001,-0.001)" />

<path d="M102,250V836H349V351L102,250Z" 
id="f0_d"
transform="scale(0.001,-0.001)" />

<path d="M154,-13c0,0,-38,0,-85,9V198c0,0,58,-15,103,-15c0,0,84,0,118,60c0,0,35,61,35,206c0,0,0,66,-7,105c0,0,-6,39,-24,63c0,0,-17,25,-44,33c0,0,-27,8,-73,8H66V836H225c0,0,198,0,275,-115c0,0,56,-84,65,-264c0,0,3,-55,3,-148c0,0,0,-177,71,-309L393,1c0,0,-53,130,-54,141c0,0,-28,-90,-65,-123c0,0,-38,-32,-120,-32Z" 
id="f0_o"
transform="scale(0.001,-0.001)" />

<path d="M534,0V425c0,0,0,109,-41,171c0,0,-41,62,-140,62H66V836H352c0,0,99,0,174,-20c0,0,75,-20,123,-55c0,0,48,-35,78,-87c0,0,30,-53,42,-113c0,0,12,-60,12,-136V0Z" 
id="f0_4"
transform="scale(0.001,-0.001)" />

<path d="M173,-6C173,-6,61,-6,15,9V177c0,0,73,-10,82,-10c0,0,37,0,52,30c0,0,14,29,14,116V658H18V836H516c0,0,262,0,341,-145c0,0,48,-89,48,-242V0H658V450c0,0,0,131,-37,171c0,0,-34,37,-105,37H411V313c0,0,0,-189,-67,-258C344,55,285,-6,173,-6Z" 
id="f0_p"
transform="scale(0.001,-0.001)" />

<path d="M445,-20c0,0,-86,0,-172,13c0,0,-86,13,-170,40V255c0,0,80,-40,160,-60c0,0,79,-21,156,-21c0,0,114,0,174,40c0,0,61,39,61,113c0,0,0,76,-62,115c0,0,-62,39,-184,39H293V666H414c0,0,108,0,161,34c0,0,53,34,53,103c0,0,0,65,-52,100c0,0,-51,35,-145,35c0,0,-69,0,-140,-16c0,0,-70,-15,-140,-46v210c0,0,85,24,168,36c0,0,83,12,164,12c0,0,217,0,325,-71c0,0,107,-71,107,-215c0,0,0,-98,-51,-160c0,0,-52,-62,-152,-88c0,0,112,-29,171,-101c0,0,59,-72,59,-183c0,0,0,-165,-127,-251c0,0,-127,-85,-370,-85Z" 
id="f0_s"
transform="scale(0.001,-0.001)" />

<path d="M163,0V190H321V0Z" 
id="f1_j"
transform="scale(0.001,-0.001)" />

<path d="M736,107V473c0,0,0,147,-48,202c0,0,-49,54,-187,54H278V107ZM139,0V836H499c0,0,105,0,177,-22c0,0,72,-21,116,-69c0,0,44,-49,64,-119c0,0,19,-71,19,-174V0Z" 
id="f1_6"
transform="scale(0.001,-0.001)" />

<path d="M102,312V836H241V369L102,312Z" 
id="f1_7"
transform="scale(0.001,-0.001)" />

<path d="M138,-7c0,0,-34,0,-72,10V129c0,0,25,-8,52,-8c0,0,33,0,58,5c0,0,26,5,58,24c0,0,33,20,53,54c0,0,21,34,36,97c0,0,15,64,15,151c0,0,0,113,-19,173c0,0,-19,60,-56,82c0,0,-38,22,-107,22H89V836h72c0,0,165,0,240,-91c0,0,76,-91,76,-293c0,0,0,-107,26,-227c0,0,25,-119,83,-225H437c0,0,-43,101,-62,184c0,0,-24,-60,-51,-99c0,0,-26,-38,-56,-58C268,27,239,7,209,0c0,0,-30,-7,-71,-7Z" 
id="f1_k"
transform="scale(0.001,-0.001)" />

<path d="M585,0V426c0,0,0,54,-8,98c0,0,-8,44,-27,83c0,0,-19,40,-49,66c0,0,-30,26,-77,41c0,0,-47,15,-108,15H66V836H315c0,0,94,0,166,-20c0,0,71,-20,116,-54c0,0,46,-35,75,-88c0,0,28,-52,40,-112c0,0,12,-60,12,-137V0Z" 
id="f1_a"
transform="scale(0.001,-0.001)" />

<path d="M139,0V836H485c0,0,206,0,290,-90c0,0,84,-89,84,-294V0H721V473c0,0,0,147,-49,202c0,0,-48,54,-186,54H277V0Z" 
id="f1_g"
transform="scale(0.001,-0.001)" />

<path d="M154,0V454l138,56V0ZM722,0V454c0,0,0,161,-49,218c0,0,-48,57,-186,57H139V836H485c0,0,207,0,291,-93c0,0,83,-94,83,-318V0Z" 
id="f1_9"
transform="scale(0.001,-0.001)" />

<path d="M139,0V106H400c0,0,176,0,253,71c0,0,78,72,78,250c0,0,0,163,-80,233c0,0,-81,69,-250,69H278L277,564c0,0,-1,-54,26,-80c0,0,27,-25,82,-25c0,0,30,0,80,9V355c0,0,-61,-12,-111,-12c0,0,-100,0,-157,55c0,0,-58,55,-58,186V836H456c0,0,193,0,303,-109c0,0,110,-109,110,-309c0,0,0,-200,-110,-309C759,109,648,0,456,0Z" 
id="f1_m"
transform="scale(0.001,-0.001)" />

<path d="M287,0L589,729H66v386H205V836l547,-1l-2,-82L433,0Z" 
id="f1_3"
transform="scale(0.001,-0.001)" />

<path d="M139,0V138c0,0,0,61,8,112c0,0,7,52,19,87c0,0,11,36,30,66c0,0,19,31,35,49c0,0,17,19,41,35c0,0,25,17,41,25c0,0,17,7,40,17L141,836H303L613,388c0,0,20,10,33,18c0,0,13,8,34,28c0,0,20,20,33,44c0,0,13,25,22,66c0,0,10,41,10,92V836H882V698c0,0,0,-61,-7,-112c0,0,-6,-52,-18,-88c0,0,-12,-36,-30,-66c0,0,-19,-30,-36,-49c0,0,-17,-18,-41,-34c0,0,-24,-17,-40,-25c0,0,-17,-8,-41,-17L882,0H720L409,448c0,0,-21,-11,-34,-19c0,0,-13,-8,-34,-27c0,0,-21,-20,-34,-44c0,0,-12,-25,-22,-66c0,0,-9,-41,-9,-92V0Z" 
id="f1_d"
transform="scale(0.001,-0.001)" />

<path d="M66,0V107H554V452c0,0,0,56,-4,93c0,0,-4,37,-18,75c0,0,-14,38,-40,60c0,0,-26,22,-71,36c0,0,-45,13,-110,13H66V836H312c0,0,91,0,157,-17c0,0,66,-17,109,-49c0,0,44,-32,69,-84c0,0,26,-52,36,-114c0,0,10,-62,10,-147V107H817V0Z" 
id="f1_f"
transform="scale(0.001,-0.001)" />

<path d="M522,-20c0,0,-196,0,-290,99c0,0,-94,100,-94,324V836H276V397c0,0,0,-86,16,-147c0,0,17,-60,50,-94c0,0,34,-34,77,-49c0,0,43,-15,103,-15c0,0,59,0,102,15c0,0,44,15,77,49c0,0,33,34,50,94c0,0,17,61,17,147c0,0,0,84,-8,143c0,0,-7,58,-25,105c0,0,-17,47,-51,69c0,0,-33,23,-83,23c0,0,-50,0,-119,-22V821c0,0,85,23,150,23c0,0,76,0,130,-30c0,0,53,-31,85,-90c0,0,31,-59,45,-138c0,0,13,-78,13,-183c0,0,0,-224,-93,-324c0,0,-94,-99,-290,-99Z" 
id="f1_w"
transform="scale(0.001,-0.001)" />

<path d="M112,-5c0,0,-39,0,-97,11V113c0,0,48,-10,77,-10c0,0,53,0,70,42c0,0,17,43,17,164V729H50V836H501c0,0,107,0,179,-25c0,0,72,-25,112,-77c0,0,40,-51,57,-118c0,0,16,-67,16,-164V0H726V454c0,0,0,55,-3,92c0,0,-4,37,-17,75c0,0,-14,38,-38,59c0,0,-24,22,-65,36c0,0,-42,13,-102,13H318V309c0,0,0,-160,-46,-237C272,72,226,-5,112,-5Z" 
id="f1_e"
transform="scale(0.001,-0.001)" />

<path d="M180,0L66,836H203L258,443c0,0,36,1,64,6c0,0,28,6,49,18c0,0,20,12,35,26c0,0,15,13,26,36c0,0,11,24,17,44c0,0,7,20,12,55c0,0,6,34,9,60c0,0,3,26,8,71c0,0,4,45,9,77H610c0,0,-13,-194,-31,-271c0,0,-31,-127,-111,-179c0,0,-71,-45,-196,-50L304,107c0,0,73,0,130,5c0,0,56,6,111,21c0,0,54,15,94,40c0,0,40,25,77,64c0,0,37,39,63,94c0,0,25,54,46,128c0,0,21,73,34,166c0,0,13,94,20,211h138c0,0,-14,-124,-29,-218c0,0,-16,-94,-39,-179c0,0,-22,-85,-50,-146c0,0,-28,-61,-68,-112c0,0,-39,-51,-87,-84C744,97,696,65,632,42C632,42,568,19,492,10C492,10,417,0,320,0Z" 
id="f1_4"
transform="scale(0.001,-0.001)" />

<path d="M74,357V479H476V357Z" 
id="f1_12"
transform="scale(0.001,-0.001)" />

<path d="M495,0V729H66V836H781V729H634V0Z" 
id="f1_q"
transform="scale(0.001,-0.001)" />

<path d="M383,64c0,0,85,0,152,28V645c0,0,-67,13,-152,13c0,0,-194,0,-194,-314c0,0,0,-141,48,-211c0,0,48,-69,146,-69ZM342,-14c0,0,-287,0,-287,358c0,0,0,184,82,280c0,0,81,96,239,96c0,0,81,0,163,-18c0,0,-4,25,-4,124v182l-118,18v34H659V52L745,33V0H548l-9,52c0,0,-84,-66,-197,-66Z" 
id="f2_e"
transform="scale(0.001,-0.001)" />

<path d="M495,413c0,0,0,133,-34,190c0,0,-34,57,-105,57c0,0,-78,0,-119,-63c0,0,-42,-62,-42,-184ZM374,-14c0,0,-163,0,-239,87c0,0,-75,88,-75,283c0,0,0,183,77,273c0,0,76,91,219,91c0,0,269,0,269,-306V353H194V340c0,0,0,-103,23,-160c0,0,22,-57,70,-87c0,0,47,-29,124,-29c0,0,40,0,96,6c0,0,55,7,91,15V43C598,43,562,20,500,3c0,0,-61,-17,-126,-17Z" 
id="f2_2"
transform="scale(0.001,-0.001)" />

<path d="M399,-14c0,0,-341,0,-341,370c0,0,0,175,87,269c0,0,87,95,249,95c0,0,101,0,220,-23V501H573L541,625c0,0,-62,35,-149,35c0,0,-200,0,-200,-304c0,0,0,-158,61,-225c0,0,61,-67,189,-67c0,0,109,0,189,24V43C631,43,595,16,530,1c0,0,-64,-15,-131,-15Z" 
id="f2_5"
transform="scale(0.001,-0.001)" />

<path d="M32,0V33L151,52V649L52,668v33H275V52L395,33V0ZM201,850c0,0,-32,0,-56,24c0,0,-24,24,-24,56c0,0,0,34,24,58c0,0,24,24,56,24c0,0,34,0,58,-24c0,0,24,-24,24,-58c0,0,0,-32,-24,-56c0,0,-24,-24,-58,-24Z" 
id="f2_4"
transform="scale(0.001,-0.001)" />

<path d="M31,0V33l88,19V649L31,668v33H235l7,-87c0,0,44,37,121,71c0,0,76,35,121,35h11V530H463l-43,82c0,0,-37,0,-88,-10c0,0,-52,-10,-89,-26V52L363,33V0Z" 
id="f2_3"
transform="scale(0.001,-0.001)" />

<path d="M382,45c0,0,188,0,188,314c0,0,0,143,-47,213c0,0,-46,69,-141,69c0,0,-87,0,-146,-24V58c0,0,67,-13,146,-13ZM25,-325v35l88,18V649L34,668v33H231l1,-41c0,0,31,27,84,43c0,0,53,17,107,17c0,0,134,0,208,-94c0,0,73,-93,73,-267c0,0,0,-178,-80,-276c0,0,-80,-97,-232,-97c0,0,-84,0,-160,16c0,0,4,-53,4,-84V-272l123,-18v-35Z" 
id="f2_u"
transform="scale(0.001,-0.001)" />

<path d="M377,45c0,0,99,0,147,73c0,0,47,73,47,237c0,0,0,161,-47,233c0,0,-47,72,-147,72c0,0,-97,0,-141,-69c0,0,-44,-69,-44,-236c0,0,0,-169,45,-240c0,0,44,-70,140,-70Zm0,-59c0,0,-158,0,-238,94c0,0,-81,95,-81,274c0,0,0,178,81,272c0,0,80,94,244,94c0,0,160,0,241,-92c0,0,82,-92,82,-274c0,0,0,-368,-329,-368Z" 
id="f2_8"
transform="scale(0.001,-0.001)" />

<path d="M439,0V33l93,19V500c0,0,0,62,-30,97c0,0,-31,36,-94,36c0,0,-67,0,-165,-22V52L338,33V0H35V33l84,19V649L35,668v33H235l7,-57c0,0,57,33,122,54c0,0,65,22,108,22c0,0,91,0,137,-53c0,0,47,-53,47,-154V52L741,33V0Z" 
id="f2_a"
transform="scale(0.001,-0.001)" />

<path d="M139,0V836H278V0Z" 
id="f1_c"
transform="scale(0.001,-0.001)" />

<path d="M360,-14L72,649L0,668v33H327V668L216,648L420,164L615,649L504,668v33H764V668L697,652L416,-14Z" 
id="f2_s"
transform="scale(0.001,-0.001)" />

<path d="M359,-270c0,0,124,0,192,46c0,0,67,47,67,129c0,0,0,43,-26,67c0,0,-26,24,-79,24H242c0,0,-32,-27,-51,-69c0,0,-20,-41,-20,-77c0,0,0,-64,46,-92c0,0,46,-28,142,-28Zm11,561c0,0,81,0,115,47c0,0,34,47,34,141c0,0,0,100,-35,142c0,0,-35,42,-113,42c0,0,-78,0,-114,-43c0,0,-37,-42,-37,-141c0,0,0,-98,36,-143c0,0,36,-45,114,-45ZM359,-329c0,0,-143,0,-218,44c0,0,-75,43,-75,125c0,0,0,39,27,78c0,0,26,38,98,89c0,0,-43,14,-72,48c0,0,-29,35,-29,74L208,262c0,0,-118,55,-118,217c0,0,0,115,73,178c0,0,73,63,211,63c0,0,28,0,71,-6c0,0,44,-6,67,-13l165,83l26,-32L599,644c0,0,50,-56,50,-165c0,0,0,-120,-72,-182c0,0,-73,-62,-208,-62c0,0,-62,0,-114,11L208,148c0,0,2,-13,29,-24c0,0,27,-12,67,-12H512c0,0,113,0,168,-49c0,0,55,-49,55,-134c0,0,0,-79,-44,-137c0,0,-43,-58,-128,-90c0,0,-84,-31,-204,-31Z" 
id="f2_w"
transform="scale(0.001,-0.001)" />

<path d="M148,-329c0,0,-58,0,-114,13v151H69l24,-71c0,0,23,-17,64,-17c0,0,39,0,72,22c0,0,33,23,60,67c0,0,27,44,68,157L90,649L19,668v33H344V668L233,648L423,158L606,649L497,668v33H758V668L685,652L411,-43c0,0,-48,-124,-84,-177c0,0,-36,-54,-79,-82c0,0,-44,-27,-100,-27Z" 
id="f2_7"
transform="scale(0.001,-0.001)" />

<path d="M278,-14c0,0,-52,0,-115,11c0,0,-63,10,-99,23V193H98L134,95c0,0,56,-50,146,-50c0,0,144,0,144,123c0,0,0,91,-114,130l-66,21c0,0,-75,25,-110,50c0,0,-34,26,-53,63c0,0,-18,36,-18,89c0,0,0,92,63,145c0,0,63,54,170,54c0,0,77,0,193,-23V544H454l-32,81c0,0,-39,35,-124,35c0,0,-61,0,-92,-30c0,0,-32,-30,-32,-80c0,0,0,-43,29,-72c0,0,28,-29,86,-48c0,0,110,-38,144,-55c0,0,33,-17,57,-42c0,0,23,-25,36,-57c0,0,13,-32,13,-79c0,0,0,-104,-66,-158c0,0,-66,-53,-195,-53Z" 
id="f2_g"
transform="scale(0.001,-0.001)" />

<path d="M249,-14c0,0,-71,0,-107,42c0,0,-35,42,-35,119V639H15v33l93,29l76,159h47V701H391V639H231V161c0,0,0,-48,22,-73c0,0,22,-24,57,-24c0,0,44,0,106,12V26C416,26,389,8,340,-2c0,0,-49,-12,-91,-12Z" 
id="f2_h"
transform="scale(0.001,-0.001)" />

<path d="M289,-14c0,0,-179,0,-179,205V649L20,668v33H233V200c0,0,0,-128,120,-128c0,0,92,0,173,23V649L420,668v33H649V52L738,34V0H533l-6,57C527,57,474,28,405,6c0,0,-69,-20,-116,-20Zm24,849v24l147,203H618v-27L354,835Z" 
id="f2_i"
transform="scale(0.001,-0.001)" />

<path d="M495,413c0,0,0,133,-34,190c0,0,-34,57,-105,57c0,0,-78,0,-119,-62c0,0,-42,-63,-42,-185ZM374,-14c0,0,-163,0,-239,87c0,0,-75,88,-75,283c0,0,0,183,77,274c0,0,76,90,219,90c0,0,269,0,269,-306V353H194V339c0,0,0,-103,23,-160c0,0,22,-57,70,-86c0,0,47,-30,124,-30c0,0,40,0,96,6c0,0,55,7,91,15V43C598,43,562,19,500,2c0,0,-61,-16,-126,-16ZM285,835v24l146,203H590v-27L326,835Z" 
id="f2_k"
transform="scale(0.001,-0.001)" />

<path d="M31,0V33L150,52v956L31,1026v34H274V52L394,33V0Z" 
id="f2_l"
transform="scale(0.001,-0.001)" />

<path d="M0,-14L351,1007h73L75,-14Z" 
id="f2_6"
transform="scale(0.001,-0.001)" />

<path d="M284,67c0,0,51,0,88,12c0,0,37,12,74,30V358l-98,-3c0,0,-100,-4,-135,-39c0,0,-35,-35,-35,-117c0,0,0,-132,106,-132ZM233,-14c0,0,-179,0,-179,208c0,0,0,70,27,116c0,0,27,46,87,70c0,0,60,24,173,27l105,3V519c0,0,0,72,-26,107c0,0,-27,34,-82,34c0,0,-75,0,-137,-35L176,538H134V691c0,0,121,26,213,26c0,0,115,0,169,-47c0,0,54,-47,54,-144V52L657,33V0H465L451,70c0,0,-85,-84,-218,-84Z" 
id="f2_m"
transform="scale(0.001,-0.001)" />

<path d="M557,-14c0,0,-199,0,-298,89c0,0,-99,90,-99,255V941L32,960v40H432V960L304,941V341c0,0,0,-273,264,-273c0,0,144,0,220,68c0,0,77,68,77,202V941L730,960v40h341V960L943,941V344c0,0,0,-180,-99,-269c0,0,-99,-89,-287,-89Z" 
id="f2_n"
transform="scale(0.001,-0.001)" />

<path d="M191,-20c0,0,-39,0,-65,25c0,0,-25,27,-25,64c0,0,0,38,26,64c0,0,26,26,64,26c0,0,38,0,64,-26c0,0,26,-26,26,-64c0,0,0,-37,-25,-64c0,0,-26,-25,-65,-25Z" 
id="f2_o"
transform="scale(0.001,-0.001)" />

<path d="M414,-20c0,0,-70,0,-144,13c0,0,-75,13,-154,40V179c0,0,63,-36,138,-55c0,0,74,-18,156,-18c0,0,142,0,216,55c0,0,74,56,74,163c0,0,0,98,-69,153c0,0,-69,56,-192,56H309V657H445c0,0,111,0,170,44c0,0,59,45,59,128c0,0,0,86,-61,132c0,0,-61,46,-174,46c0,0,-62,0,-133,-13c0,0,-71,-14,-156,-42v134c0,0,85,24,160,36c0,0,75,12,142,12c0,0,171,0,271,-78c0,0,100,-78,100,-211c0,0,0,-92,-53,-156c0,0,-52,-64,-150,-89c0,0,108,-23,169,-96c0,0,61,-73,61,-180c0,0,0,-165,-114,-255c0,0,-113,-89,-322,-89Z" 
id="f1_16"
transform="scale(0.001,-0.001)" />

<path d="M562,411V877L247,411ZM562,0V202H68V449l447,665H834V411H993V202H834V0Z" 
id="f0_t"
transform="scale(0.001,-0.001)" />

<path d="M66,0V106H564L66,836H228L516,413c0,0,3,2,9,6c0,0,17,13,27,21c0,0,10,8,26,27c0,0,17,20,26,40c0,0,9,21,16,54c0,0,7,34,7,75V836H764V698c0,0,0,-55,-7,-102c0,0,-7,-47,-16,-79c0,0,-10,-33,-27,-62c0,0,-18,-29,-32,-46c0,0,-14,-17,-37,-35c0,0,-22,-17,-36,-25c0,0,-13,-8,-36,-20L767,53V0Z" 
id="f1_b"
transform="scale(0.001,-0.001)" />

<path d="M322,0V40L481,60V389L130,941L17,960v40H440V960L306,941L593,480L866,941L739,960v40h326V960L955,941L625,394V60L784,40V0Z" 
id="f2_y"
transform="scale(0.001,-0.001)" />

<path d="M71,-141V-15L289,62L66,836H210L416,109c0,0,99,42,153,98c0,0,53,56,80,155c0,0,26,98,26,262V836H817V624c0,0,0,-88,-7,-154c0,0,-7,-67,-25,-132c0,0,-18,-66,-51,-116c0,0,-33,-51,-84,-98c0,0,-50,-48,-123,-87c0,0,-72,-39,-169,-74L71,-141Z" 
id="f1_l"
transform="scale(0.001,-0.001)" />

<path d="M289,-14c0,0,-179,0,-179,205V649L20,668v33H233V200c0,0,0,-128,120,-128c0,0,92,0,173,23V649L420,668v33H649V52L738,33V0H533l-6,57C527,57,474,28,405,7c0,0,-69,-21,-116,-21Z" 
id="f2_f"
transform="scale(0.001,-0.001)" />

<path d="M431,0V33L535,52V499c0,0,0,62,-32,96c0,0,-32,33,-95,33c0,0,-66,0,-163,-22V52L350,33V0H32V33l89,19V649L32,668v33H237l6,-57c0,0,56,32,119,54c0,0,62,22,110,22c0,0,52,0,95,-20c0,0,44,-19,66,-62c0,0,57,32,134,57c0,0,77,25,128,25c0,0,179,0,179,-207V52l90,-19V0H846V33L950,52V499c0,0,0,129,-119,129c0,0,-19,0,-45,-3c0,0,-26,-3,-52,-7c0,0,-25,-4,-49,-8c0,0,-23,-5,-39,-8c0,0,13,-41,13,-89V52L764,33V0Z" 
id="f2_p"
transform="scale(0.001,-0.001)" />

<path d="M64,0V34L168,59V639H47v36l121,29v49c0,0,0,155,61,239c0,0,62,84,173,84c0,0,58,0,107,-15V908H472l-33,92c0,0,-26,16,-62,16c0,0,-47,0,-66,-42c0,0,-19,-42,-19,-157V701H478V639H292V59L443,34V0Z" 
id="f2_t"
transform="scale(0.001,-0.001)" />

<path d="M442,0V33l93,19V504c0,0,0,129,-124,129c0,0,-70,0,-168,-22V52L338,33V0H31V33l88,19v956L15,1026v34H243V756c0,0,0,-77,-5,-112c0,0,54,31,122,53c0,0,68,23,115,23c0,0,91,0,137,-53c0,0,47,-53,47,-154V52L744,33V0Z" 
id="f2_x"
transform="scale(0.001,-0.001)" />

<path d="M578,388V982L197,388ZM578,0V263H74V408l464,706H727V388H887V263H727V0Z" 
id="f1_17"
transform="scale(0.001,-0.001)" />

<path d="M38,0L93,212H220c0,0,4,8,7,28c0,0,4,20,4,39c0,0,0,29,-13,61c0,0,-13,31,-29,65c0,0,-15,34,-28,72c0,0,-13,38,-13,81c0,0,0,29,10,54c0,0,9,25,30,60c0,0,-48,0,-68,11c0,0,-19,11,-30,36c0,0,-11,25,-11,71c0,0,0,30,9,54c0,0,8,25,22,40c0,0,14,15,24,15c0,0,17,0,17,-12V875c0,0,0,-30,41,-30h53c0,0,44,0,61,-10c0,0,17,-10,26,-34c0,0,9,-23,9,-67c0,0,0,-38,-6,-57c0,0,-6,-20,-13,-20c0,0,-6,0,-13,4c0,0,-3,4,-17,7c0,0,-14,2,-26,2c0,0,-34,0,-34,-45c0,0,0,-12,9,-34c0,0,8,-22,55,-116c0,0,46,-86,46,-143c0,0,0,-15,-8,-35c0,0,-9,-20,-50,-85H598c0,0,17,0,17,12c0,0,0,19,-6,53c0,0,-5,34,-5,74c0,0,0,80,58,228c0,0,18,46,18,56c0,0,0,15,-12,26c0,0,-12,11,-38,11H602c0,0,-43,0,-62,25c0,0,-19,25,-19,78c0,0,0,47,14,86c0,0,15,38,33,38c0,0,15,0,15,-15V867c0,0,0,-22,31,-22h55c0,0,51,0,78,-20c0,0,27,-20,27,-57c0,0,0,-46,-28,-147c0,0,-40,-145,-40,-253c0,0,0,-33,6,-63c0,0,6,-30,14,-54c0,0,8,-24,14,-42c0,0,7,-19,7,-30c0,0,0,-39,-14,-88C733,91,720,42,701,0Z" 
id="f3_u"
transform="scale(0.001,-0.001)" />

<path d="M554,-8c0,0,-9,0,-11,6c0,0,-2,5,-2,24V548c0,0,0,38,-5,56c0,0,-4,18,-15,25c0,0,-12,7,-41,7H90c0,0,-33,0,-52,33c0,0,-19,33,-19,90c0,0,0,54,15,97c0,0,14,43,30,43c0,0,17,0,17,-13V872c0,0,0,-9,7,-18c0,0,7,-9,27,-9H512c0,0,54,0,77,-8c0,0,23,-9,33,-28c0,0,9,-20,9,-67V81c0,0,0,-31,-27,-53L583,9C583,9,563,-8,554,-8Z" 
id="f3_8"
transform="scale(0.001,-0.001)" />

<path d="M204,-8c0,0,-9,0,-11,5c0,0,-2,5,-2,22V549c0,0,0,40,-4,56c0,0,-4,16,-15,22c0,0,-10,7,-39,7H90c0,0,-33,0,-52,33c0,0,-19,33,-19,90c0,0,0,53,15,98c0,0,16,44,35,44c0,0,12,0,12,-13V872c0,0,0,-27,31,-27h42c0,0,79,0,103,-20c0,0,23,-19,23,-83V67c0,0,0,-16,-8,-26c0,0,-9,-10,-33,-30c0,0,-25,-19,-35,-19Z" 
id="f3_e"
transform="scale(0.001,-0.001)" />

<path d="M20,0L75,212H492c0,0,19,51,25,97c0,0,5,46,5,105c0,0,0,63,-6,124c0,0,-6,61,-23,78c0,0,-16,18,-66,18H112c0,0,-36,0,-57,40c0,0,-21,40,-21,101c0,0,0,50,16,87c0,0,16,36,36,36c0,0,13,0,13,-14V870c0,0,0,-25,34,-25H457c0,0,63,0,92,-11c0,0,28,-10,41,-36c0,0,13,-26,18,-107c0,0,4,-80,4,-174c0,0,0,-174,-13,-224c0,0,-4,-15,-21,-41c0,0,-17,-25,-31,-40H688L640,0Z" 
id="f3_i"
transform="scale(0.001,-0.001)" />

<path d="M181,0c0,0,0,50,-6,96c0,0,-6,46,-30,148c0,0,-29,121,-29,202c0,0,0,72,11,122c0,0,10,50,33,103c0,0,-56,0,-76,25c0,0,-20,24,-20,93c0,0,0,46,18,77c0,0,17,32,40,32c0,0,17,0,17,-12l-3,-16c0,0,0,-25,38,-25h58c0,0,99,0,99,-123c0,0,0,-27,-5,-54c0,0,-6,-27,-13,-27c0,0,-4,0,-7,3c0,0,-20,23,-37,23c0,0,-20,0,-31,-15c0,0,-12,-15,-24,-61c0,0,-13,-46,-13,-89c0,0,0,-63,14,-130c0,0,14,-66,48,-160H692c0,0,35,75,51,136c0,0,16,62,16,131c0,0,0,69,-31,110c0,0,-31,42,-83,42c0,0,-56,0,-96,-41c0,0,-39,-40,-84,-138l-64,23c0,0,67,216,123,297c0,0,57,81,138,81c0,0,45,0,88,-44c0,0,43,-43,68,-121c0,0,25,-77,25,-179c0,0,0,-59,-6,-109c0,0,-7,-50,-22,-115c0,0,-16,-66,-82,-285Z" 
id="f3_x"
transform="scale(0.001,-0.001)" />

<path d="M150,-306c0,0,-6,0,-6,8l3,26c0,0,6,61,7,104c0,0,0,42,0,114V16l2,261v93c0,0,0,97,4,123c0,0,3,25,16,44c0,0,11,22,20,40c0,0,8,17,8,32c0,0,0,25,-42,25H130c0,0,-41,0,-66,39c0,0,-24,39,-24,101c0,0,0,43,16,83c0,0,16,41,33,41c0,0,15,0,15,-14l-2,-15c0,0,0,-24,29,-24H232c0,0,48,0,65,-17c0,0,16,-16,16,-54V713c0,0,0,-32,-17,-76L269,580c0,0,-21,-43,-21,-124l15,-667c0,0,0,-14,-9,-25c0,0,-9,-12,-43,-33l-35,-23c0,0,-19,-14,-26,-14Z" 
id="f3_y"
transform="scale(0.001,-0.001)" />

<path d="M131,353c0,0,-3,0,-6,2c0,0,-3,2,-16,20c0,0,-13,17,-13,28c0,0,0,5,8,9c0,0,45,26,84,67c0,0,38,41,38,85c0,0,0,28,-7,43c0,0,-7,15,-24,21c0,0,-17,6,-61,6H124c0,0,-38,0,-62,34c0,0,-24,35,-24,107c0,0,0,52,16,87c0,0,17,34,38,34c0,0,16,0,16,-12V870c0,0,0,-25,26,-25h63c0,0,29,0,53,-4c0,0,23,-4,39,-23c0,0,17,-19,26,-59c0,0,9,-40,9,-113c0,0,0,-76,-15,-124c0,0,-15,-47,-51,-83c0,0,-35,-36,-74,-61c0,0,-39,-25,-53,-25Z" 
id="f3_4"
transform="scale(0.001,-0.001)" />

<path d="M721,-14c0,0,-12,0,-12,9l4,28c0,0,17,82,17,338c0,0,0,105,-11,163c0,0,-11,58,-35,84c0,0,-25,26,-83,26H315c0,0,-43,-39,-67,-90c0,0,-25,-51,-25,-104c0,0,0,-59,17,-104c0,0,17,-45,35,-78c0,0,18,-34,18,-44c0,0,0,-26,-20,-95C273,119,252,50,231,0H26L87,214h69c0,0,23,0,23,14l-7,15c0,0,-15,27,-27,68c0,0,-11,41,-11,83c0,0,0,68,25,124c0,0,25,57,86,116H200c0,0,-45,0,-71,32c0,0,-27,33,-27,94c0,0,0,49,17,93c0,0,16,43,32,43c0,0,17,0,17,-10V869c0,0,0,-24,27,-24H637c0,0,73,0,103,-18c0,0,30,-17,46,-62c0,0,17,-46,24,-124c0,0,8,-78,8,-214V338c0,0,0,-279,-27,-311c0,0,-14,-16,-37,-28c0,0,-23,-13,-33,-13Z" 
id="f3_b"
transform="scale(0.001,-0.001)" />

<path d="M469,-18c0,0,-14,0,-14,15l2,7c0,0,20,43,20,158l-3,156l-2,119c0,0,0,65,19,109c0,0,19,44,60,88H110c0,0,-47,0,-69,34c0,0,-22,35,-22,109c0,0,0,50,16,85c0,0,16,36,35,36c0,0,14,0,14,-12L83,869c0,0,0,-13,7,-19c0,0,6,-5,23,-5H608c0,0,25,0,40,-14c0,0,15,-15,15,-38V686c0,0,0,-26,-4,-35c0,0,-3,-9,-11,-11c0,0,-42,-9,-56,-40c0,0,-15,-30,-15,-93c0,0,0,-56,12,-184c0,0,10,-129,10,-224c0,0,0,-24,-6,-37c0,0,-7,-13,-17,-25c0,0,-7,-6,-18,-12c0,0,-11,-7,-23,-13C535,12,523,5,512,0c0,0,-10,-5,-15,-8c0,0,-22,-10,-28,-10Z" 
id="f3_z"
transform="scale(0.001,-0.001)" />

<path d="M235,-20c0,0,-31,0,-51,19c0,0,-21,18,-21,50c0,0,0,65,39,120c0,0,39,54,125,109c0,0,56,35,87,56c0,0,32,20,46,33c0,0,79,45,79,143c0,0,0,27,-7,65c0,0,-8,39,-27,49c0,0,-19,10,-85,10H110c0,0,-36,0,-53,21c0,0,-17,22,-25,71c0,0,-7,49,-7,134c0,0,0,62,27,122c0,0,8,15,8,34c0,0,0,23,-35,37c0,0,-21,7,-30,29c0,0,-9,22,-9,72c0,0,0,24,10,46c0,0,8,22,25,38c0,0,16,16,26,16c0,0,17,0,17,-14c0,0,0,-9,7,-17c0,0,7,-8,34,-14c0,0,65,-15,81,-26c0,0,15,-10,15,-31c0,0,0,-15,-15,-38c0,0,-15,-22,-33,-53c0,0,-19,-30,-34,-67c0,0,-15,-36,-15,-79c0,0,0,-43,14,-56c0,0,15,-14,54,-14H518c0,0,39,0,63,-17c0,0,23,-16,33,-53c0,0,10,-36,17,-89c0,0,6,-52,6,-93c0,0,0,-99,-9,-144c0,0,-9,-44,-40,-80c0,0,-31,-36,-110,-86c0,0,-112,-71,-138,-95c0,0,-26,-23,-36,-44c0,0,-9,-20,-9,-43c0,0,0,-11,5,-26c0,0,6,-15,6,-26c0,0,0,-32,-20,-50c0,0,-20,-19,-51,-19Z" 
id="f3_6"
transform="scale(0.001,-0.001)" />

<path d="M179,0V190H336V0Zm0,600V790H336V600Z" 
id="f1_15"
transform="scale(0.001,-0.001)" />

<path d="M66,0V106H322c0,0,75,0,127,23c0,0,53,23,82,67c0,0,29,43,42,98c0,0,13,54,13,124c0,0,0,70,-13,124c0,0,-13,55,-42,98c0,0,-29,44,-82,67c0,0,-52,23,-127,23H66V836H322c0,0,87,0,157,-24c0,0,70,-24,115,-64c0,0,45,-40,74,-94c0,0,30,-55,43,-113c0,0,13,-59,13,-123c0,0,0,-64,-13,-123c0,0,-13,-58,-43,-113c0,0,-29,-54,-74,-94C594,88,549,48,479,24C479,24,409,0,322,0Z" 
id="f1_i"
transform="scale(0.001,-0.001)" />

<path d="M152,0V473c0,0,0,94,28,161c0,0,29,66,71,95H66V836H463V729H404c0,0,-65,0,-89,-57c0,0,-25,-58,-25,-199V0Z" 
id="f1_o"
transform="scale(0.001,-0.001)" />

<path d="M66,0V107H332V555c0,0,0,92,-37,133c0,0,-37,41,-116,41H85V836h94c0,0,153,0,223,-66c0,0,69,-66,69,-231V0Z" 
id="f1_n"
transform="scale(0.001,-0.001)" />

<path d="M117,-176L179,62V190H336V62L213,-176Z" 
id="f1_s"
transform="scale(0.001,-0.001)" />

<path d="M139,-317V836H278V-317Z" 
id="f1_h"
transform="scale(0.001,-0.001)" />

<path d="M156,-317V454l139,56V-317ZM505,0L806,729H139V835H967V753L650,0Z" 
id="f1_p"
transform="scale(0.001,-0.001)" />

<path d="M186,-14c0,0,-95,0,-154,22V190H81L104,86c0,0,14,-17,40,-26c0,0,26,-10,57,-10c0,0,105,0,105,141V941L178,960v40H562V960L449,941V322c0,0,0,-100,-30,-175c0,0,-31,-74,-93,-118c0,0,-63,-43,-140,-43Z" 
id="f2_z"
transform="scale(0.001,-0.001)" />

<path d="M211,-20c0,0,-39,0,-64,25c0,0,-26,27,-26,64c0,0,0,38,26,64c0,0,26,26,64,26c0,0,37,0,64,-25c0,0,26,-26,26,-65c0,0,0,-37,-26,-64c0,0,-26,-25,-64,-25Zm0,556c0,0,-38,0,-64,26c0,0,-26,26,-26,64c0,0,0,37,26,64c0,0,25,27,64,27c0,0,38,0,64,-27c0,0,26,-27,26,-64c0,0,0,-38,-26,-64c0,0,-27,-26,-64,-26Z" 
id="f2_10"
transform="scale(0.001,-0.001)" />

<path d="M44,0V40L172,60V941L44,960v40H445V960L316,941V549H787V941L659,960v40h400V960L930,941V60L1059,40V0H659V40L787,60V481H316V60L445,40V0Z" 
id="f2_11"
transform="scale(0.001,-0.001)" />

<path d="M529,65c0,0,183,0,270,108c0,0,87,108,87,334c0,0,0,210,-113,318c0,0,-113,108,-322,108H316V71c0,0,90,-6,213,-6Zm0,-67L172,0H44V40L172,60V941L44,960v40H498c0,0,277,0,411,-123c0,0,133,-124,133,-371c0,0,0,-251,-129,-380C913,126,785,-2,529,-2Z" 
id="f2_13"
transform="scale(0.001,-0.001)" />

<path d="M379,-315c0,0,-316,0,-316,253c0,0,0,119,60,194c0,0,60,74,175,98l43,10l9,193h60L429,185L322,163c0,0,-64,-12,-93,-65c0,0,-29,-52,-29,-151c0,0,0,-110,40,-155c0,0,40,-44,139,-44c0,0,84,0,145,36l26,123h49V-283c0,0,-110,-32,-220,-32Zm-6,851c0,0,-38,0,-64,26c0,0,-26,26,-26,64c0,0,0,37,25,64c0,0,26,27,65,27c0,0,37,0,64,-27c0,0,26,-26,26,-64c0,0,0,-39,-27,-64c0,0,-26,-26,-63,-26Z" 
id="f2_14"
transform="scale(0.001,-0.001)" />

<path d="M577,-14c0,0,-243,0,-379,132C198,118,63,250,63,488c0,0,0,258,130,391c0,0,131,132,387,132c0,0,156,0,335,-38l5,-218H871L848,884c0,0,-52,32,-121,50c0,0,-69,17,-141,17c0,0,-191,0,-279,-112c0,0,-88,-113,-88,-349c0,0,0,-217,92,-332c0,0,92,-115,268,-115c0,0,85,0,160,20c0,0,76,21,120,55l27,149h49L930,32c0,0,-164,-46,-353,-46Z" 
id="f2_15"
transform="scale(0.001,-0.001)" />

<path d="M284,67c0,0,51,0,88,12c0,0,37,11,74,29V357l-98,-3c0,0,-100,-3,-135,-38c0,0,-35,-36,-35,-118c0,0,0,-131,106,-131ZM233,-14c0,0,-179,0,-179,208c0,0,0,70,27,116c0,0,27,46,87,70c0,0,60,24,173,27l105,3V519c0,0,0,73,-26,107c0,0,-27,34,-82,34c0,0,-75,0,-137,-35L176,538H134V691c0,0,121,26,213,26c0,0,115,0,169,-47c0,0,54,-47,54,-144V52L657,34V0H465L451,70c0,0,-85,-84,-218,-84Zm22,849v24l146,203H560v-27L296,835Z" 
id="f2_16"
transform="scale(0.001,-0.001)" />

<path d="M306,-20c0,0,-39,0,-65,25c0,0,-25,27,-25,64c0,0,0,38,26,64c0,0,26,26,64,26c0,0,37,0,63,-25c0,0,26,-26,26,-65c0,0,0,-37,-25,-64c0,0,-26,-25,-64,-25ZM269,261L249,510l107,22c0,0,64,13,93,65c0,0,29,52,29,152c0,0,0,109,-39,154c0,0,-40,45,-140,45c0,0,-83,0,-145,-36L128,789H79V979c0,0,118,32,220,32c0,0,316,0,316,-253c0,0,0,-121,-60,-195c0,0,-60,-74,-175,-98l-42,-9L328,261Z" 
id="f2_17"
transform="scale(0.001,-0.001)" />

<path d="M424,64c0,0,74,0,109,71c0,0,36,72,36,236c0,0,0,137,-34,201c0,0,-34,65,-111,65c0,0,-29,0,-62,-7c0,0,-34,-6,-55,-19V76c0,0,47,-12,117,-12Zm21,-78c0,0,-121,0,-354,50V994l-72,18v48H307V802c0,0,0,-69,-8,-141c0,0,30,25,86,42c0,0,57,17,110,17c0,0,153,0,223,-84c0,0,70,-83,70,-266c0,0,0,-180,-90,-283C698,87,608,-14,445,-14Z" 
id="f3_10"
transform="scale(0.001,-0.001)" />

<path d="M34,0V49l76,18V634L38,652v49H325V67L402,49V0ZM217,831c0,0,-48,0,-81,33c0,0,-34,33,-34,82c0,0,0,48,34,81c0,0,34,33,81,33c0,0,48,0,81,-33c0,0,33,-33,33,-81c0,0,0,-47,-33,-81c0,0,-32,-34,-81,-34Z" 
id="f3_n"
transform="scale(0.001,-0.001)" />

<path d="M434,423c0,0,0,101,-7,142c0,0,-6,40,-22,60c0,0,-16,19,-45,19c0,0,-44,0,-66,-48c0,0,-22,-49,-22,-173ZM389,-14c0,0,-172,0,-254,89c0,0,-83,90,-83,279c0,0,0,184,79,274c0,0,79,91,238,91c0,0,142,0,206,-76c0,0,64,-76,64,-237V345H271V333c0,0,0,-111,18,-158c0,0,18,-47,58,-72c0,0,40,-25,110,-25c0,0,66,0,166,22V42C623,42,582,18,517,1c0,0,-66,-15,-128,-15Z" 
id="f3_p"
transform="scale(0.001,-0.001)" />

<path d="M41,0V49l69,18V634L41,652v49H313l11,-61l50,26c0,0,105,54,188,54c0,0,194,0,194,-207V67L827,49V0H478V49l63,18V484c0,0,0,63,-27,98c0,0,-26,35,-75,35c0,0,-57,0,-114,-25V67L389,49V0Z" 
id="f3_11"
transform="scale(0.001,-0.001)" />

<path d="M522,92c0,0,247,0,247,333c0,0,0,88,-17,146c0,0,-17,58,-53,91c0,0,-35,33,-82,46c0,0,-48,14,-116,14H276V419c0,0,0,-327,246,-327Zm0,-112c0,0,-193,0,-289,109c0,0,-95,110,-95,337V836H501c0,0,213,0,309,-93c0,0,96,-94,96,-317c0,0,0,-227,-95,-337C811,89,715,-20,522,-20Z" 
id="f1_t"
transform="scale(0.001,-0.001)" />

<path d="M354,-200c0,0,-112,175,-167,343c0,0,-56,170,-56,337c0,0,0,166,55,335c0,0,55,169,168,345H473c0,0,-100,-172,-148,-340c0,0,-48,-168,-48,-340c0,0,0,-173,48,-342c0,0,49,-168,148,-338Z" 
id="f1_x"
transform="scale(0.001,-0.001)" />

<path d="M114,0l60,312c0,0,2,12,8,39c0,0,6,27,7,37c0,0,2,11,5,30c0,0,2,19,4,33c0,0,1,15,1,31c0,0,0,48,-35,146c0,0,-35,98,-98,208H228c0,0,3,-8,27,-67c0,0,25,-58,41,-117c0,0,21,53,50,90c0,0,29,37,57,57c0,0,29,21,65,32c0,0,37,11,65,14c0,0,28,3,67,3c0,0,300,0,300,-396V0H480V106H761V452c0,0,0,146,-46,215c0,0,-45,70,-118,70c0,0,-134,0,-198,-119c0,0,-36,-68,-67,-222c0,0,-2,-10,-6,-27L253,0Z" 
id="f1_8"
transform="scale(0.001,-0.001)" />

<path d="M122,-200c0,0,99,170,148,338c0,0,49,169,49,342c0,0,0,172,-49,340c0,0,-49,168,-148,340H241c0,0,112,-176,168,-345c0,0,55,-169,55,-335c0,0,0,-167,-55,-337c0,0,-56,-168,-168,-343Z" 
id="f1_v"
transform="scale(0.001,-0.001)" />

<path d="M41,0V49l69,18V634L41,652v49H313l11,-61l50,26c0,0,105,54,188,54c0,0,125,0,167,-91c0,0,153,91,258,91c0,0,189,0,189,-207V67l71,-17V0H898V50l63,17V484c0,0,0,63,-24,98c0,0,-25,35,-74,35c0,0,-55,0,-119,-31c0,0,7,-32,7,-73V67L821,50V0H473V50l63,17V484c0,0,0,63,-25,98c0,0,-24,35,-73,35c0,0,-49,0,-113,-29V67L389,49V0Z" 
id="f3_12"
transform="scale(0.001,-0.001)" />

<path d="M345,75c0,0,50,0,110,26V351l-63,-2c0,0,-72,-3,-100,-38c0,0,-28,-35,-28,-113c0,0,0,-63,22,-93c0,0,23,-30,59,-30ZM266,-14c0,0,-217,0,-217,208c0,0,0,79,32,126c0,0,32,48,93,71c0,0,60,22,190,25l91,2V521c0,0,0,126,-104,126c0,0,-62,0,-140,-39L183,521H134V691c0,0,112,17,165,21c0,0,53,5,108,5c0,0,264,0,264,-194V67L741,49V0H483L466,54C466,54,408,14,361,0c0,0,-47,-14,-95,-14Z" 
id="f3_q"
transform="scale(0.001,-0.001)" />

<path d="M30,0V49l76,18V992l-72,18v50H322V67L398,49V0Z" 
id="f3_13"
transform="scale(0.001,-0.001)" />

<path d="M543,-317V369c0,0,0,85,-8,143c0,0,-8,58,-27,101c0,0,-18,44,-51,69c0,0,-33,24,-80,36c0,0,-48,11,-117,11H66V836H257c0,0,125,0,205,-23c0,0,80,-23,130,-79c0,0,50,-56,70,-143c0,0,20,-86,20,-222V-317Z" 
id="f1_2"
transform="scale(0.001,-0.001)" />

<path d="M44,0V40L172,60V941L44,960v40H794V760H745L721,922c0,0,-83,11,-241,11H316V543H586l23,119h48V354H609L586,475H316V67H513c0,0,193,0,252,12l43,185h49L843,0Z" 
id="f2_d"
transform="scale(0.001,-0.001)" />

<path d="M287,-18c0,0,-194,0,-194,206V634L23,652v49H309V217c0,0,0,-63,26,-98c0,0,27,-35,76,-35c0,0,57,0,113,25V634l-64,18v49H740V67L809,49V0H536L526,61L475,35c0,0,-104,-53,-188,-53Z" 
id="f3_14"
transform="scale(0.001,-0.001)" />

<path d="M379,60c0,0,59,0,84,64c0,0,24,65,24,231c0,0,0,164,-24,227c0,0,-24,63,-84,63c0,0,-57,0,-80,-60c0,0,-22,-61,-22,-230c0,0,0,-173,23,-234c0,0,22,-61,79,-61Zm-2,-74c0,0,-161,0,-240,91c0,0,-79,91,-79,277c0,0,0,186,80,276c0,0,81,90,245,90c0,0,167,0,245,-93c0,0,78,-93,78,-273c0,0,0,-188,-81,-278c0,0,-81,-90,-248,-90Z" 
id="f3_k"
transform="scale(0.001,-0.001)" />

<path d="M410,-14c0,0,-80,0,-162,14c0,0,-81,14,-144,38V270h48L178,134c0,0,28,-35,95,-62c0,0,68,-27,134,-27c0,0,104,0,163,53c0,0,58,54,58,148c0,0,0,54,-23,89c0,0,-22,35,-59,59c0,0,-37,24,-84,41c0,0,-47,17,-97,34c0,0,-49,17,-96,38c0,0,-47,21,-84,53c0,0,-37,32,-60,79c0,0,-23,48,-23,117c0,0,0,119,90,187c0,0,89,68,248,68c0,0,121,0,263,-32V771H654L628,893c0,0,-76,55,-188,55c0,0,-100,0,-156,-40c0,0,-56,-41,-56,-112c0,0,0,-49,22,-81c0,0,23,-32,60,-55c0,0,37,-22,84,-39c0,0,48,-16,97,-34c0,0,50,-17,97,-39c0,0,48,-22,85,-56c0,0,36,-34,59,-83c0,0,23,-49,23,-120c0,0,0,-145,-89,-224c0,0,-89,-79,-256,-79Z" 
id="f2_18"
transform="scale(0.001,-0.001)" />

<path d="M32,0V34L151,52V649L52,668v33H275V52L395,34V0Zm71,835v24l146,203H408v-27L144,835Z" 
id="f2_q"
transform="scale(0.001,-0.001)" />

<path d="M58,-234v58c0,0,131,42,131,125c0,0,0,15,-11,27c0,0,-11,12,-38,25C140,1,89,27,89,75c0,0,0,40,25,61c0,0,26,21,65,21c0,0,48,0,77,-34c0,0,30,-34,30,-86c0,0,0,-101,-60,-170c0,0,-59,-69,-168,-101Z" 
id="f2_19"
transform="scale(0.001,-0.001)" />

<path d="M868,0L251,900V60L385,40V0H44V40L172,60V941L44,960v40H347L862,259V941L727,960v40h341V960L940,941V0Z" 
id="f2_1a"
transform="scale(0.001,-0.001)" />

<path d="M66,0V178H507V449c0,0,0,43,-2,71c0,0,-3,28,-12,56c0,0,-9,28,-26,45c0,0,-17,16,-47,27c0,0,-29,10,-72,10H66V836H349c0,0,97,0,167,-17c0,0,71,-17,117,-49c0,0,46,-32,73,-84c0,0,27,-52,38,-114c0,0,11,-62,11,-147V178H866V0Z" 
id="f0_j"
transform="scale(0.001,-0.001)" />

<path d="M679,178V467c0,0,0,110,-32,150c0,0,-31,41,-120,41H385V178ZM139,0V836H525c0,0,220,0,311,-90c0,0,90,-90,90,-297V0Z" 
id="f0_c"
transform="scale(0.001,-0.001)" />

<path d="M137,0L30,830H277L321,522c0,0,68,3,96,27c0,0,27,23,38,58c0,0,26,74,31,228H733c0,0,-31,-218,-70,-316c0,0,-23,-59,-88,-100c0,0,-54,-34,-116,-42c0,0,-62,-8,-117,-8L362,178c0,0,27,-1,61,-1c40,0,89,1,119,6c0,0,57,8,94,25c0,0,37,18,69,47c0,0,32,30,60,79c0,0,28,48,51,117c0,0,48,143,82,384h248c0,0,-53,-404,-172,-586C974,249,879,103,745,51C745,51,613,0,318,0Z" 
id="f0_e"
transform="scale(0.001,-0.001)" />

<path d="M129,0l69,362c0,0,10,56,12,100c0,0,0,84,-27,159c0,0,-27,76,-117,215H322c0,0,9,-6,31,-79c0,0,23,-72,23,-105c0,0,23,82,100,138c0,0,77,57,160,57c0,0,332,0,332,-397V0H538V177H721V449c0,0,0,124,-20,170c0,0,-20,47,-82,47c0,0,-23,0,-43,-9c0,0,-19,-10,-34,-23c0,0,-14,-14,-27,-39c0,0,-13,-25,-22,-46c0,0,-8,-22,-17,-57c0,0,-9,-36,-15,-61c0,0,-5,-24,-13,-65L375,0Z" 
id="f0_8"
transform="scale(0.001,-0.001)" />

<path d="M81,-216L155,61V288H424V61L241,-216Z" 
id="f0_h"
transform="scale(0.001,-0.001)" />

<path d="M84,-153V45l189,68L66,836H321L497,205c0,0,72,50,101,138c0,0,30,88,30,261V836H878V604c0,0,0,-84,-7,-147c0,0,-7,-63,-25,-126c0,0,-19,-62,-51,-111c0,0,-33,-48,-82,-94c0,0,-50,-45,-122,-84C591,42,519,3,423,-30L84,-153Z" 
id="f0_i"
transform="scale(0.001,-0.001)" />

<path d="M139,0V836H386V0Z" 
id="f0_b"
transform="scale(0.001,-0.001)" />

<path d="M139,0V177H436c0,0,127,0,184,56c0,0,56,55,56,186c0,0,0,132,-58,186c0,0,-58,53,-181,53H386L385,553c0,0,0,-40,12,-54c0,0,12,-15,31,-15c0,0,19,0,38,2V343c0,0,-46,-11,-94,-11c0,0,-48,0,-87,11c0,0,-38,10,-73,34c0,0,-73,53,-73,196V836H487c0,0,203,0,319,-109c0,0,116,-109,116,-309c0,0,0,-200,-117,-309C805,109,689,0,487,0Z" 
id="f0_5"
transform="scale(0.001,-0.001)" />

<path d="M159,0V165c0,0,0,69,13,124c0,0,12,55,29,89c0,0,17,33,45,62c0,0,29,28,50,42c0,0,22,14,54,30L128,836H405L666,460c0,0,41,48,41,155V836H952V671c0,0,0,-50,-6,-93c0,0,-6,-42,-16,-73c0,0,-10,-30,-26,-57c0,0,-17,-27,-31,-44c0,0,-15,-17,-37,-33c0,0,-22,-16,-38,-25c0,0,-15,-9,-38,-21L984,0H706L445,376c0,0,-41,-48,-41,-155V0Z" 
id="f0_u"
transform="scale(0.001,-0.001)" />

<path d="M82,0V177H500L50,836H328L560,491c0,0,56,19,56,124V836H861V671c0,0,0,-116,-45,-192c0,0,-40,-68,-85,-90c0,0,-50,-26,-71,-26c0,0,-1,0,-1,0L838,96V0Z" 
id="f0_v"
transform="scale(0.001,-0.001)" />

<path d="M66,0V177H334c0,0,99,0,150,66c0,0,51,67,51,175c0,0,0,108,-51,175c0,0,-51,66,-150,66H66V836H334c0,0,92,0,168,-24c0,0,75,-24,127,-64c0,0,51,-40,86,-94c0,0,35,-54,51,-113c0,0,15,-60,15,-123c0,0,0,-63,-15,-123c0,0,-16,-59,-51,-113c0,0,-35,-54,-86,-94C629,88,577,48,502,24C502,24,426,0,334,0Z" 
id="f0_w"
transform="scale(0.001,-0.001)" />

<path d="M155,0V288H424V0Z" 
id="f0_x"
transform="scale(0.001,-0.001)" />

<path d="M-14,-14L336,1006H440L90,-14Z" 
id="f3_15"
transform="scale(0.001,-0.001)" />

<path d="M700,-317V454c0,0,0,155,-54,215c0,0,-54,60,-180,60H277V551c0,0,0,-55,26,-80c0,0,27,-26,82,-26c0,0,30,0,80,10V341c0,0,-61,-11,-111,-11c0,0,-100,0,-157,55c0,0,-58,55,-58,186V836H466c0,0,203,0,288,-91c0,0,85,-92,85,-293V-317Z" 
id="f1_z"
transform="scale(0.001,-0.001)" />

<path d="M0,-141L388,1114H514L127,-141Z" 
id="f1_r"
transform="scale(0.001,-0.001)" />

<path d="M66,0V178H307V510c0,0,0,100,-31,124c0,0,-30,24,-79,24H83V836H197c0,0,215,0,286,-85c0,0,71,-85,71,-224V0Z" 
id="f0_y"
transform="scale(0.001,-0.001)" />

<path d="M150,-366V437L396,539V-366ZM499,0L727,658H139V835h870V716L754,0Z" 
id="f0_3"
transform="scale(0.001,-0.001)" />

<path d="M153,0V437L399,539V0ZM664,0V450c0,0,0,122,-31,165c0,0,-31,43,-121,43H138V836H511c0,0,113,0,188,-22c0,0,75,-23,123,-73c0,0,47,-51,68,-127c0,0,20,-76,20,-189V0Z" 
id="f0_a"
transform="scale(0.001,-0.001)" />

<path d="M376,50c0,0,103,0,149,80c0,0,46,81,46,240c0,0,0,137,-47,204c0,0,-48,67,-148,67c0,0,-44,0,-87,-7c0,0,-44,-8,-63,-17V62c0,0,63,-12,150,-12Zm3,-64c0,0,-64,0,-141,14c0,0,-78,14,-136,37v971L0,1026v34H226V809c0,0,0,-40,-4,-148c0,0,74,59,188,59c0,0,143,0,219,-87c0,0,77,-87,77,-263c0,0,0,-189,-84,-287c0,0,-84,-97,-243,-97Z" 
id="f2_v"
transform="scale(0.001,-0.001)" />


</defs>
</svg>