<?xml version="1.0" encoding="UTF-8" standalone="no"?>
<!DOCTYPE svg PUBLIC "-//W3C//DTD SVG 1.1//EN"
"http://www.w3.org/Graphics/SVG/1.1/DTD/svg11.dtd">
<svg viewBox="0 0 909 1286" version="1.1" xmlns="http://www.w3.org/2000/svg" xmlns:xlink="http://www.w3.org/1999/xlink">
<defs>
<clipPath id="c0_17"><path d="M0,1286.2V0H909.4V1286.2Z" /></clipPath>
<style type="text/css"><![CDATA[
.g0_17{
fill: none;
stroke: #000000;
stroke-width: 0.38194445;
stroke-linecap: butt;
stroke-linejoin: round;
}
.g1_17{
fill: none;
stroke: #0000FF;
stroke-width: 1.0694444;
stroke-linecap: butt;
stroke-linejoin: miter;
}
]]></style>
</defs>
<path d="M128.9,110.2H780.8M128.9,132.1H780.8M128.9,175.2H780.8M128.9,197H780.8M128.9,218.7H780.8M128.9,240.5H780.8M128.9,283.6H780.8M128.9,305.5H780.8M128.9,327.2H780.8M128.9,349H780.8M128.9,370.7H780.8M128.9,392.6H780.8M128.9,414.3H780.8M129.1,110V414.4M462.3,110V414.4M780.5,110V414.4" class="g0_17" />
<g clip-path="url(#c0_17)">
<g fill="#000000" >
<use xlink:href="#f0_8" transform="matrix(12,0,0,12,727.8,127.4)" />
<use xlink:href="#f0_f" transform="matrix(12,0,0,12,733.6,127.4)" />
<use xlink:href="#f0_6" transform="matrix(12,0,0,12,744.2,127.4)" />
<use xlink:href="#f0_g" transform="matrix(12,0,0,12,749.2,127.4)" />
<use xlink:href="#f0_p" transform="matrix(12,0,0,12,761.1,127.4)" />
<use xlink:href="#f0_6" transform="matrix(12,0,0,12,767.4,127.4)" />
<use xlink:href="#f1_p" transform="matrix(11,0,0,11,137.7,126)" />
<use xlink:href="#f1_9" transform="matrix(11,0,0,11,146.1,126)" />
<use xlink:href="#f1_8" transform="matrix(11,0,0,11,154.5,126)" />
<use xlink:href="#f1_7" transform="matrix(11,0,0,11,160.1,126)" />
<use xlink:href="#f1_p" transform="matrix(11,0,0,11,167.5,126)" />
<use xlink:href="#f1_9" transform="matrix(11,0,0,11,176,126)" />
<use xlink:href="#f1_q" transform="matrix(11,0,0,11,184.2,126)" />
<use xlink:href="#f0_g" transform="matrix(12,0,0,12,471.2,149.3)" />
<use xlink:href="#f0_c" transform="matrix(12,0,0,12,483.1,149.3)" />
<use xlink:href="#f0_6" transform="matrix(12,0,0,12,496.1,149.3)" />
<use xlink:href="#f0_b" transform="matrix(12,0,0,12,501,149.3)" />
<use xlink:href="#f0_c" transform="matrix(12,0,0,12,511.4,149.3)" />
<use xlink:href="#f0_l" transform="matrix(12,0,0,12,535,149.3)" />
<use xlink:href="#f0_i" transform="matrix(12,0,0,12,547.2,149.3)" />
<use xlink:href="#f0_i" transform="matrix(12,0,0,12,551.3,149.3)" />
<use xlink:href="#f0_q" transform="matrix(12,0,0,12,555.4,149.3)" />
<use xlink:href="#f0_g" transform="matrix(12,0,0,12,565.8,149.3)" />
<use xlink:href="#f0_r" transform="matrix(12,0,0,12,577.7,149.3)" />
<use xlink:href="#f0_h" transform="matrix(12,0,0,12,599.2,149.3)" />
<use xlink:href="#f0_k" transform="matrix(12,0,0,12,611.3,149.3)" />
<use xlink:href="#f0_6" transform="matrix(12,0,0,12,623.2,149.3)" />
<use xlink:href="#f0_q" transform="matrix(12,0,0,12,628.1,149.3)" />
<use xlink:href="#f0_s" transform="matrix(12,0,0,12,638.5,149.3)" />
<use xlink:href="#f0_b" transform="matrix(12,0,0,12,650.7,149.3)" />
<use xlink:href="#f0_b" transform="matrix(12,0,0,12,671.9,149.3)" />
<use xlink:href="#f0_4" transform="matrix(12,0,0,12,682.3,149.3)" />
<use xlink:href="#f0_6" transform="matrix(12,0,0,12,691.9,149.3)" />
<use xlink:href="#f0_s" transform="matrix(12,0,0,12,696.9,149.3)" />
<use xlink:href="#f0_f" transform="matrix(12,0,0,12,719.8,149.3)" />
<use xlink:href="#f0_9" transform="matrix(12,0,0,12,730.3,149.3)" />
<use xlink:href="#f0_q" transform="matrix(12,0,0,12,737.7,149.3)" />
<use xlink:href="#f0_s" transform="matrix(12,0,0,12,748.1,149.3)" />
<use xlink:href="#f0_g" transform="matrix(12,0,0,12,760.3,149.3)" />
<use xlink:href="#f0_8" transform="matrix(12,0,0,12,718.7,170.7)" />
<use xlink:href="#f0_l" transform="matrix(12,0,0,12,730.3,170.7)" />
<use xlink:href="#f0_i" transform="matrix(12,0,0,12,742.4,170.7)" />
<use xlink:href="#f0_b" transform="matrix(12,0,0,12,746.5,170.7)" />
<use xlink:href="#f0_i" transform="matrix(12,0,0,12,756.9,170.7)" />
<use xlink:href="#f0_m" transform="matrix(12,0,0,12,761,170.7)" />
<use xlink:href="#f1_c" transform="matrix(11,0,0,11,137.7,147.9)" />
<use xlink:href="#f1_m" transform="matrix(11,0,0,11,147.9,147.9)" />
<use xlink:href="#f1_y" transform="matrix(11,0,0,11,156.9,147.9)" />
<use xlink:href="#f1_9" transform="matrix(11,0,0,11,164.2,147.9)" />
<use xlink:href="#f1_5" transform="matrix(11,0,0,11,172.6,147.9)" />
<use xlink:href="#f1_2" transform="matrix(11,0,0,11,181,147.9)" />
<use xlink:href="#f1_13" transform="matrix(11,0,0,11,188.5,147.9)" />
<use xlink:href="#f1_9" transform="matrix(11,0,0,11,193.2,147.9)" />
<use xlink:href="#f1_7" transform="matrix(11,0,0,11,205.7,147.9)" />
<use xlink:href="#f1_m" transform="matrix(11,0,0,11,213.2,147.9)" />
<use xlink:href="#f1_r" transform="matrix(11,0,0,11,217.8,147.9)" />
<use xlink:href="#f1_g" transform="matrix(11,0,0,11,230.9,147.9)" />
<use xlink:href="#f1_2" transform="matrix(11,0,0,11,239.3,147.9)" />
<use xlink:href="#f1_8" transform="matrix(11,0,0,11,246.8,147.9)" />
<use xlink:href="#f1_10" transform="matrix(11,0,0,11,252.4,147.9)" />
<use xlink:href="#f1_7" transform="matrix(11,0,0,11,259.7,147.9)" />
<use xlink:href="#f1_e" transform="matrix(11,0,0,11,271.4,147.9)" />
<use xlink:href="#f1_8" transform="matrix(11,0,0,11,276,147.9)" />
<use xlink:href="#f1_2" transform="matrix(11,0,0,11,281.7,147.9)" />
<use xlink:href="#f1_6" transform="matrix(11,0,0,11,289.1,147.9)" />
<use xlink:href="#f1_2" transform="matrix(11,0,0,11,299.8,147.9)" />
<use xlink:href="#f1_m" transform="matrix(11,0,0,11,307.3,147.9)" />
<use xlink:href="#f1_2" transform="matrix(11,0,0,11,312,147.9)" />
<use xlink:href="#f1_x" transform="matrix(11,0,0,11,319.3,147.9)" />
<use xlink:href="#f1_7" transform="matrix(11,0,0,11,324.9,147.9)" />
<use xlink:href="#f1_5" transform="matrix(11,0,0,11,332.4,147.9)" />
<use xlink:href="#f1_e" transform="matrix(11,0,0,11,340.8,147.9)" />
<use xlink:href="#f1_2" transform="matrix(11,0,0,11,345.5,147.9)" />
<use xlink:href="#f1_6" transform="matrix(11,0,0,11,352.8,147.9)" />
<use xlink:href="#f1_q" transform="matrix(11,0,0,11,359.4,147.9)" />
<use xlink:href="#f0_8" transform="matrix(12,0,0,12,642.4,192.3)" />
<use xlink:href="#f0_q" transform="matrix(12,0,0,12,648.2,192.3)" />
<use xlink:href="#f0_6" transform="matrix(12,0,0,12,658.5,192.3)" />
<use xlink:href="#f0_m" transform="matrix(12,0,0,12,663.5,192.3)" />
<use xlink:href="#f0_i" transform="matrix(12,0,0,12,674.9,192.3)" />
<use xlink:href="#f0_o" transform="matrix(12,0,0,12,679,192.3)" />
<use xlink:href="#f0_q" transform="matrix(12,0,0,12,696.8,192.3)" />
<use xlink:href="#f0_m" transform="matrix(12,0,0,12,707.1,192.3)" />
<use xlink:href="#f0_o" transform="matrix(12,0,0,12,718.4,192.3)" />
<use xlink:href="#f0_7" transform="matrix(12,0,0,12,730.3,192.3)" />
<use xlink:href="#f0_i" transform="matrix(12,0,0,12,748.7,192.3)" />
<use xlink:href="#f0_9" transform="matrix(12,0,0,12,752.8,192.3)" />
<use xlink:href="#f0_s" transform="matrix(12,0,0,12,760.1,192.3)" />
<use xlink:href="#f1_16" transform="matrix(11,0,0,11,137.7,191)" />
<use xlink:href="#f1_g" transform="matrix(11,0,0,11,148.8,191)" />
<use xlink:href="#f1_2" transform="matrix(11,0,0,11,157.2,191)" />
<use xlink:href="#f1_5" transform="matrix(11,0,0,11,164.7,191)" />
<use xlink:href="#f1_e" transform="matrix(11,0,0,11,173.1,191)" />
<use xlink:href="#f1_9" transform="matrix(11,0,0,11,177.8,191)" />
<use xlink:href="#f1_g" transform="matrix(11,0,0,11,190.5,191)" />
<use xlink:href="#f1_5" transform="matrix(11,0,0,11,198.9,191)" />
<use xlink:href="#f1_y" transform="matrix(11,0,0,11,211.4,191)" />
<use xlink:href="#f1_g" transform="matrix(11,0,0,11,218.9,191)" />
<use xlink:href="#f1_2" transform="matrix(11,0,0,11,227.3,191)" />
<use xlink:href="#f1_5" transform="matrix(11,0,0,11,234.7,191)" />
<use xlink:href="#f1_e" transform="matrix(11,0,0,11,243,191)" />
<use xlink:href="#f1_9" transform="matrix(11,0,0,11,247.7,191)" />
<use xlink:href="#f1_q" transform="matrix(11,0,0,11,256.1,191)" />
<use xlink:href="#f0_8" transform="matrix(12,0,0,12,568.3,214.2)" />
<use xlink:href="#f0_g" transform="matrix(12,0,0,12,574.1,214.2)" />
<use xlink:href="#f0_i" transform="matrix(12,0,0,12,586.1,214.2)" />
<use xlink:href="#f0_f" transform="matrix(12,0,0,12,590.2,214.2)" />
<use xlink:href="#f0_7" transform="matrix(12,0,0,12,600.7,214.2)" />
<use xlink:href="#f0_6" transform="matrix(12,0,0,12,613.2,214.2)" />
<use xlink:href="#f0_b" transform="matrix(12,0,0,12,618.2,214.2)" />
<use xlink:href="#f0_6" transform="matrix(12,0,0,12,628.6,214.2)" />
<use xlink:href="#f0_j" transform="matrix(12,0,0,12,633.7,214.2)" />
<use xlink:href="#f0_b" transform="matrix(12,0,0,12,646.6,214.2)" />
<use xlink:href="#f0_g" transform="matrix(12,0,0,12,662.8,214.2)" />
<use xlink:href="#f0_o" transform="matrix(12,0,0,12,674.8,214.2)" />
<use xlink:href="#f0_i" transform="matrix(12,0,0,12,686.7,214.2)" />
<use xlink:href="#f0_d" transform="matrix(12,0,0,12,690.8,214.2)" />
<use xlink:href="#f0_f" transform="matrix(12,0,0,12,702.7,214.2)" />
<use xlink:href="#f0_o" transform="matrix(12,0,0,12,719,214.2)" />
<use xlink:href="#f0_d" transform="matrix(12,0,0,12,730.9,214.2)" />
<use xlink:href="#f0_i" transform="matrix(12,0,0,12,748.6,214.2)" />
<use xlink:href="#f0_9" transform="matrix(12,0,0,12,752.7,214.2)" />
<use xlink:href="#f0_s" transform="matrix(12,0,0,12,760.1,214.2)" />
<use xlink:href="#f1_1w" transform="matrix(11,0,0,11,137.7,212.8)" />
<use xlink:href="#f1_g" transform="matrix(11,0,0,11,149.7,212.8)" />
<use xlink:href="#f1_2" transform="matrix(11,0,0,11,158.1,212.8)" />
<use xlink:href="#f1_m" transform="matrix(11,0,0,11,165.6,212.8)" />
<use xlink:href="#f1_9" transform="matrix(11,0,0,11,170.3,212.8)" />
<use xlink:href="#f1_2" transform="matrix(11,0,0,11,183,212.8)" />
<use xlink:href="#f1_5" transform="matrix(11,0,0,11,190.3,212.8)" />
<use xlink:href="#f1_g" transform="matrix(11,0,0,11,203,212.8)" />
<use xlink:href="#f1_5" transform="matrix(11,0,0,11,211.4,212.8)" />
<use xlink:href="#f1_v" transform="matrix(11,0,0,11,223.9,212.8)" />
<use xlink:href="#f1_g" transform="matrix(11,0,0,11,232.3,212.8)" />
<use xlink:href="#f1_2" transform="matrix(11,0,0,11,240.7,212.8)" />
<use xlink:href="#f1_m" transform="matrix(11,0,0,11,248.2,212.8)" />
<use xlink:href="#f1_9" transform="matrix(11,0,0,11,252.9,212.8)" />
<use xlink:href="#f1_7" transform="matrix(11,0,0,11,265.4,212.8)" />
<use xlink:href="#f1_16" transform="matrix(11,0,0,11,277.1,212.8)" />
<use xlink:href="#f1_9" transform="matrix(11,0,0,11,288.3,212.8)" />
<use xlink:href="#f1_m" transform="matrix(11,0,0,11,296.7,212.8)" />
<use xlink:href="#f1_9" transform="matrix(11,0,0,11,301.4,212.8)" />
<use xlink:href="#f1_r" transform="matrix(11,0,0,11,309.7,212.8)" />
<use xlink:href="#f1_w" transform="matrix(11,0,0,11,322.8,212.8)" />
<use xlink:href="#f1_3" transform="matrix(11,0,0,11,331.2,212.8)" />
<use xlink:href="#f1_7" transform="matrix(11,0,0,11,335.9,212.8)" />
<use xlink:href="#f1_q" transform="matrix(11,0,0,11,343.3,212.8)" />
<use xlink:href="#f0_8" transform="matrix(12,0,0,12,600.6,235.9)" />
<use xlink:href="#f0_g" transform="matrix(12,0,0,12,606.4,235.9)" />
<use xlink:href="#f0_c" transform="matrix(12,0,0,12,618.3,235.9)" />
<use xlink:href="#f0_j" transform="matrix(12,0,0,12,631.3,235.9)" />
<use xlink:href="#f0_f" transform="matrix(12,0,0,12,644.3,235.9)" />
<use xlink:href="#f0_f" transform="matrix(12,0,0,12,654.8,235.9)" />
<use xlink:href="#f0_3" transform="matrix(12,0,0,12,671.2,235.9)" />
<use xlink:href="#f0_6" transform="matrix(12,0,0,12,676.2,235.9)" />
<use xlink:href="#f0_f" transform="matrix(12,0,0,12,681.2,235.9)" />
<use xlink:href="#f0_c" transform="matrix(12,0,0,12,691.7,235.9)" />
<use xlink:href="#f0_k" transform="matrix(12,0,0,12,704.7,235.9)" />
<use xlink:href="#f0_2" transform="matrix(12,0,0,12,722.6,235.9)" />
<use xlink:href="#f0_q" transform="matrix(12,0,0,12,728.4,235.9)" />
<use xlink:href="#f0_r" transform="matrix(12,0,0,12,738.8,235.9)" />
<use xlink:href="#f0_b" transform="matrix(12,0,0,12,749.6,235.9)" />
<use xlink:href="#f0_7" transform="matrix(12,0,0,12,759.8,235.9)" />
<use xlink:href="#f1_1p" transform="matrix(11,0,0,11,137.7,234.5)" />
<use xlink:href="#f1_9" transform="matrix(11,0,0,11,152.6,234.5)" />
<use xlink:href="#f1_10" transform="matrix(11,0,0,11,161,234.5)" />
<use xlink:href="#f1_9" transform="matrix(11,0,0,11,168.5,234.5)" />
<use xlink:href="#f1_1j" transform="matrix(11,0,0,11,176.7,234.5)" />
<use xlink:href="#f1_m" transform="matrix(11,0,0,11,185.3,234.5)" />
<use xlink:href="#f1_7" transform="matrix(11,0,0,11,189.9,234.5)" />
<use xlink:href="#f1_y" transform="matrix(11,0,0,11,201.6,234.5)" />
<use xlink:href="#f1_g" transform="matrix(11,0,0,11,209,234.5)" />
<use xlink:href="#f1_2" transform="matrix(11,0,0,11,217.4,234.5)" />
<use xlink:href="#f1_5" transform="matrix(11,0,0,11,224.9,234.5)" />
<use xlink:href="#f1_e" transform="matrix(11,0,0,11,233.2,234.5)" />
<use xlink:href="#f1_7" transform="matrix(11,0,0,11,237.9,234.5)" />
<use xlink:href="#f1_4" transform="matrix(11,0,0,11,249.5,234.5)" />
<use xlink:href="#f1_9" transform="matrix(11,0,0,11,257.9,234.5)" />
<use xlink:href="#f1_8" transform="matrix(11,0,0,11,266.3,234.5)" />
<use xlink:href="#f1_x" transform="matrix(11,0,0,11,276.2,234.5)" />
<use xlink:href="#f1_7" transform="matrix(11,0,0,11,281.7,234.5)" />
<use xlink:href="#f1_v" transform="matrix(11,0,0,11,289.1,234.5)" />
<use xlink:href="#f1_9" transform="matrix(11,0,0,11,297.5,234.5)" />
<use xlink:href="#f1_8" transform="matrix(11,0,0,11,305.9,234.5)" />
<use xlink:href="#f1_q" transform="matrix(11,0,0,11,311.4,234.5)" />
<use xlink:href="#f0_l" transform="matrix(12,0,0,12,471.2,257.7)" />
<use xlink:href="#f0_i" transform="matrix(12,0,0,12,483.4,257.7)" />
<use xlink:href="#f0_4" transform="matrix(12,0,0,12,487.5,257.7)" />
<use xlink:href="#f0_b" transform="matrix(12,0,0,12,497.1,257.7)" />
<use xlink:href="#f0_4" transform="matrix(12,0,0,12,507.5,257.7)" />
<use xlink:href="#f0_6" transform="matrix(12,0,0,12,517.1,257.7)" />
<use xlink:href="#f0_b" transform="matrix(12,0,0,12,522.2,257.7)" />
<use xlink:href="#f0_7" transform="matrix(12,0,0,12,532.5,257.7)" />
<use xlink:href="#f0_g" transform="matrix(12,0,0,12,545,257.7)" />
<use xlink:href="#f0_l" transform="matrix(12,0,0,12,570.2,257.7)" />
<use xlink:href="#f0_i" transform="matrix(12,0,0,12,582.4,257.7)" />
<use xlink:href="#f0_a" transform="matrix(12,0,0,12,586.5,257.7)" />
<use xlink:href="#f0_n" transform="matrix(12,0,0,12,596.6,257.7)" />
<use xlink:href="#f0_f" transform="matrix(12,0,0,12,604.1,257.7)" />
<use xlink:href="#f0_g" transform="matrix(12,0,0,12,614.6,257.7)" />
<use xlink:href="#f0_h" transform="matrix(12,0,0,12,639.8,257.7)" />
<use xlink:href="#f0_s" transform="matrix(12,0,0,12,651.8,257.7)" />
<use xlink:href="#f0_q" transform="matrix(12,0,0,12,677.3,257.7)" />
<use xlink:href="#f0_i" transform="matrix(12,0,0,12,687.7,257.7)" />
<use xlink:href="#f0_p" transform="matrix(12,0,0,12,691.8,257.7)" />
<use xlink:href="#f0_k" transform="matrix(12,0,0,12,698.2,257.7)" />
<use xlink:href="#f0_7" transform="matrix(12,0,0,12,710.1,257.7)" />
<use xlink:href="#f0_g" transform="matrix(12,0,0,12,735.9,257.7)" />
<use xlink:href="#f0_h" transform="matrix(12,0,0,12,747.8,257.7)" />
<use xlink:href="#f0_s" transform="matrix(12,0,0,12,759.9,257.7)" />
<use xlink:href="#f0_8" transform="matrix(12,0,0,12,718.8,279.1)" />
<use xlink:href="#f0_3" transform="matrix(12,0,0,12,724.6,279.1)" />
<use xlink:href="#f0_7" transform="matrix(12,0,0,12,729.5,279.1)" />
<use xlink:href="#f0_q" transform="matrix(12,0,0,12,742,279.1)" />
<use xlink:href="#f0_4" transform="matrix(12,0,0,12,752.4,279.1)" />
<use xlink:href="#f0_b" transform="matrix(12,0,0,12,762,279.1)" />
<use xlink:href="#f1_1c" transform="matrix(11,0,0,11,137.7,256.4)" />
<use xlink:href="#f1_1b" transform="matrix(11,0,0,11,145.1,256.4)" />
<use xlink:href="#f1_2" transform="matrix(11,0,0,11,157.2,256.4)" />
<use xlink:href="#f1_v" transform="matrix(11,0,0,11,164.6,256.4)" />
<use xlink:href="#f1_g" transform="matrix(11,0,0,11,173,256.4)" />
<use xlink:href="#f1_2" transform="matrix(11,0,0,11,181.4,256.4)" />
<use xlink:href="#f1_m" transform="matrix(11,0,0,11,188.9,256.4)" />
<use xlink:href="#f1_v" transform="matrix(11,0,0,11,193.6,256.4)" />
<use xlink:href="#f1_2" transform="matrix(11,0,0,11,202,256.4)" />
<use xlink:href="#f1_6" transform="matrix(11,0,0,11,209.4,256.4)" />
<use xlink:href="#f1_m" transform="matrix(11,0,0,11,220.2,256.4)" />
<use xlink:href="#f1_7" transform="matrix(11,0,0,11,224.8,256.4)" />
<use xlink:href="#f1_6" transform="matrix(11,0,0,11,232.2,256.4)" />
<use xlink:href="#f1_8" transform="matrix(11,0,0,11,243.1,256.4)" />
<use xlink:href="#f1_9" transform="matrix(11,0,0,11,248.6,256.4)" />
<use xlink:href="#f1_4" transform="matrix(11,0,0,11,257,256.4)" />
<use xlink:href="#f1_7" transform="matrix(11,0,0,11,265.4,256.4)" />
<use xlink:href="#f1_6" transform="matrix(11,0,0,11,272.8,256.4)" />
<use xlink:href="#f1_6" transform="matrix(11,0,0,11,283.6,256.4)" />
<use xlink:href="#f1_g" transform="matrix(11,0,0,11,290.1,256.4)" />
<use xlink:href="#f1_y" transform="matrix(11,0,0,11,298.5,256.4)" />
<use xlink:href="#f1_3" transform="matrix(11,0,0,11,305.9,256.4)" />
<use xlink:href="#f1_7" transform="matrix(11,0,0,11,310.6,256.4)" />
<use xlink:href="#f1_6" transform="matrix(11,0,0,11,318,256.4)" />
<use xlink:href="#f1_7" transform="matrix(11,0,0,11,328.8,256.4)" />
<use xlink:href="#f1_16" transform="matrix(11,0,0,11,340.4,256.4)" />
<use xlink:href="#f1_7" transform="matrix(11,0,0,11,351.5,256.4)" />
<use xlink:href="#f1_8" transform="matrix(11,0,0,11,359,256.4)" />
<use xlink:href="#f1_r" transform="matrix(11,0,0,11,364.6,256.4)" />
<use xlink:href="#f1_2" transform="matrix(11,0,0,11,377.8,256.4)" />
<use xlink:href="#f1_5" transform="matrix(11,0,0,11,385.2,256.4)" />
<use xlink:href="#f1_1d" transform="matrix(11,0,0,11,393.5,256.4)" />
<use xlink:href="#f0_8" transform="matrix(12,0,0,12,551.5,300.8)" />
<use xlink:href="#f0_6" transform="matrix(12,0,0,12,557.3,300.8)" />
<use xlink:href="#f0_b" transform="matrix(12,0,0,12,562.4,300.8)" />
<use xlink:href="#f0_f" transform="matrix(12,0,0,12,572.8,300.8)" />
<use xlink:href="#f0_m" transform="matrix(12,0,0,12,583.3,300.8)" />
<use xlink:href="#f0_l" transform="matrix(12,0,0,12,600.6,300.8)" />
<use xlink:href="#f0_e" transform="matrix(12,0,0,12,612.8,300.8)" />
<use xlink:href="#f0_l" transform="matrix(12,0,0,12,630,300.8)" />
<use xlink:href="#f0_i" transform="matrix(12,0,0,12,642.2,300.8)" />
<use xlink:href="#f0_b" transform="matrix(12,0,0,12,646.3,300.8)" />
<use xlink:href="#f0_4" transform="matrix(12,0,0,12,656.7,300.8)" />
<use xlink:href="#f0_6" transform="matrix(12,0,0,12,666.4,300.8)" />
<use xlink:href="#f0_s" transform="matrix(12,0,0,12,671.4,300.8)" />
<use xlink:href="#f0_6" transform="matrix(12,0,0,12,689.4,300.8)" />
<use xlink:href="#f0_9" transform="matrix(12,0,0,12,694.5,300.8)" />
<use xlink:href="#f0_k" transform="matrix(12,0,0,12,701.8,300.8)" />
<use xlink:href="#f0_9" transform="matrix(12,0,0,12,713.7,300.8)" />
<use xlink:href="#f0_s" transform="matrix(12,0,0,12,721,300.8)" />
<use xlink:href="#f0_l" transform="matrix(12,0,0,12,739.2,300.8)" />
<use xlink:href="#f0_6" transform="matrix(12,0,0,12,751.3,300.8)" />
<use xlink:href="#f0_i" transform="matrix(12,0,0,12,756.3,300.8)" />
<use xlink:href="#f0_g" transform="matrix(12,0,0,12,760.4,300.8)" />
<use xlink:href="#f1_1m" transform="matrix(11,0,0,11,137.7,299.4)" />
<use xlink:href="#f1_9" transform="matrix(11,0,0,11,149.7,299.4)" />
<use xlink:href="#f1_i" transform="matrix(11,0,0,11,158.1,299.4)" />
<use xlink:href="#f1_y" transform="matrix(11,0,0,11,170.8,299.4)" />
<use xlink:href="#f1_9" transform="matrix(11,0,0,11,178.2,299.4)" />
<use xlink:href="#f1_r" transform="matrix(11,0,0,11,186.6,299.4)" />
<use xlink:href="#f1_2" transform="matrix(11,0,0,11,199.6,299.4)" />
<use xlink:href="#f1_r" transform="matrix(11,0,0,11,207.1,299.4)" />
<use xlink:href="#f1_9" transform="matrix(11,0,0,11,220.2,299.4)" />
<use xlink:href="#f1_6" transform="matrix(11,0,0,11,228.6,299.4)" />
<use xlink:href="#f1_y" transform="matrix(11,0,0,11,239.3,299.4)" />
<use xlink:href="#f1_9" transform="matrix(11,0,0,11,246.8,299.4)" />
<use xlink:href="#f1_5" transform="matrix(11,0,0,11,255.2,299.4)" />
<use xlink:href="#f1_1i" transform="matrix(11,0,0,11,267.8,299.4)" />
<use xlink:href="#f1_7" transform="matrix(11,0,0,11,277.2,299.4)" />
<use xlink:href="#f1_w" transform="matrix(11,0,0,11,284.6,299.4)" />
<use xlink:href="#f1_m" transform="matrix(11,0,0,11,292.9,299.4)" />
<use xlink:href="#f1_9" transform="matrix(11,0,0,11,297.6,299.4)" />
<use xlink:href="#f1_q" transform="matrix(11,0,0,11,306,299.4)" />
<use xlink:href="#f0_8" transform="matrix(12,0,0,12,598.9,322.7)" />
<use xlink:href="#f0_6" transform="matrix(12,0,0,12,604.7,322.7)" />
<use xlink:href="#f0_i" transform="matrix(12,0,0,12,609.7,322.7)" />
<use xlink:href="#f0_c" transform="matrix(12,0,0,12,613.8,322.7)" />
<use xlink:href="#f0_4" transform="matrix(12,0,0,12,626.8,322.7)" />
<use xlink:href="#f0_e" transform="matrix(12,0,0,12,636.4,322.7)" />
<use xlink:href="#f0_l" transform="matrix(12,0,0,12,653.7,322.7)" />
<use xlink:href="#f0_c" transform="matrix(12,0,0,12,665.9,322.7)" />
<use xlink:href="#f0_n" transform="matrix(12,0,0,12,678.9,322.7)" />
<use xlink:href="#f0_g" transform="matrix(12,0,0,12,692.3,322.7)" />
<use xlink:href="#f0_f" transform="matrix(12,0,0,12,704.2,322.7)" />
<use xlink:href="#f0_q" transform="matrix(12,0,0,12,714.8,322.7)" />
<use xlink:href="#f0_g" transform="matrix(12,0,0,12,725.2,322.7)" />
<use xlink:href="#f0_a" transform="matrix(12,0,0,12,742.9,322.7)" />
<use xlink:href="#f0_q" transform="matrix(12,0,0,12,752.9,322.7)" />
<use xlink:href="#f0_6" transform="matrix(12,0,0,12,763.3,322.7)" />
<use xlink:href="#f0_i" transform="matrix(12,0,0,12,768.2,322.7)" />
<use xlink:href="#f1_19" transform="matrix(11,0,0,11,137.7,321.3)" />
<use xlink:href="#f1_m" transform="matrix(11,0,0,11,147.9,321.3)" />
<use xlink:href="#f1_g" transform="matrix(11,0,0,11,152.6,321.3)" />
<use xlink:href="#f1_2" transform="matrix(11,0,0,11,161,321.3)" />
<use xlink:href="#f1_v" transform="matrix(11,0,0,11,168.5,321.3)" />
<use xlink:href="#f1_2" transform="matrix(11,0,0,11,176.9,321.3)" />
<use xlink:href="#f1_r" transform="matrix(11,0,0,11,188.5,321.3)" />
<use xlink:href="#f1_g" transform="matrix(11,0,0,11,201.6,321.3)" />
<use xlink:href="#f1_y" transform="matrix(11,0,0,11,210,321.3)" />
<use xlink:href="#f1_11" transform="matrix(11,0,0,11,217.4,321.3)" />
<use xlink:href="#f1_7" transform="matrix(11,0,0,11,225.7,321.3)" />
<use xlink:href="#f1_m" transform="matrix(11,0,0,11,237.4,321.3)" />
<use xlink:href="#f1_m" transform="matrix(11,0,0,11,242,321.3)" />
<use xlink:href="#f1_g" transform="matrix(11,0,0,11,246.7,321.3)" />
<use xlink:href="#f1_v" transform="matrix(11,0,0,11,255.1,321.3)" />
<use xlink:href="#f1_3" transform="matrix(11,0,0,11,263.5,321.3)" />
<use xlink:href="#f1_7" transform="matrix(11,0,0,11,268.3,321.3)" />
<use xlink:href="#f1_7" transform="matrix(11,0,0,11,279.8,321.3)" />
<use xlink:href="#f1_11" transform="matrix(11,0,0,11,287.3,321.3)" />
<use xlink:href="#f1_9" transform="matrix(11,0,0,11,295.7,321.3)" />
<use xlink:href="#f1_8" transform="matrix(11,0,0,11,304.1,321.3)" />
<use xlink:href="#f1_7" transform="matrix(11,0,0,11,309.6,321.3)" />
<use xlink:href="#f1_q" transform="matrix(11,0,0,11,317.1,321.3)" />
<use xlink:href="#f0_8" transform="matrix(12,0,0,12,535.2,344.4)" />
<use xlink:href="#f0_i" transform="matrix(12,0,0,12,541,344.4)" />
<use xlink:href="#f0_q" transform="matrix(12,0,0,12,545.1,344.4)" />
<use xlink:href="#f0_c" transform="matrix(12,0,0,12,555.5,344.4)" />
<use xlink:href="#f0_m" transform="matrix(12,0,0,12,568.5,344.4)" />
<use xlink:href="#f0_s" transform="matrix(12,0,0,12,579.9,344.4)" />
<use xlink:href="#f0_i" transform="matrix(12,0,0,12,597.9,344.4)" />
<use xlink:href="#f0_h" transform="matrix(12,0,0,12,602,344.4)" />
<use xlink:href="#f0_b" transform="matrix(12,0,0,12,614.1,344.4)" />
<use xlink:href="#f0_f" transform="matrix(12,0,0,12,624.5,344.4)" />
<use xlink:href="#f0_l" transform="matrix(12,0,0,12,641,344.4)" />
<use xlink:href="#f0_6" transform="matrix(12,0,0,12,653.2,344.4)" />
<use xlink:href="#f0_b" transform="matrix(12,0,0,12,658.2,344.4)" />
<use xlink:href="#f0_k" transform="matrix(12,0,0,12,668.6,344.4)" />
<use xlink:href="#f0_l" transform="matrix(12,0,0,12,686.3,344.4)" />
<use xlink:href="#f0_i" transform="matrix(12,0,0,12,698.4,344.4)" />
<use xlink:href="#f0_7" transform="matrix(12,0,0,12,702.5,344.4)" />
<use xlink:href="#f0_b" transform="matrix(12,0,0,12,715,344.4)" />
<use xlink:href="#f0_6" transform="matrix(12,0,0,12,725.4,344.4)" />
<use xlink:href="#f0_k" transform="matrix(12,0,0,12,730.4,344.4)" />
<use xlink:href="#f0_l" transform="matrix(12,0,0,12,748.1,344.4)" />
<use xlink:href="#f0_g" transform="matrix(12,0,0,12,760.4,344.4)" />
<use xlink:href="#f1_c" transform="matrix(11,0,0,11,137.7,343)" />
<use xlink:href="#f1_m" transform="matrix(11,0,0,11,147.9,343)" />
<use xlink:href="#f1_m" transform="matrix(11,0,0,11,152.6,343)" />
<use xlink:href="#f1_9" transform="matrix(11,0,0,11,157.3,343)" />
<use xlink:href="#f1_6" transform="matrix(11,0,0,11,165.6,343)" />
<use xlink:href="#f1_6" transform="matrix(11,0,0,11,176.4,343)" />
<use xlink:href="#f1_g" transform="matrix(11,0,0,11,183,343)" />
<use xlink:href="#f1_2" transform="matrix(11,0,0,11,191.4,343)" />
<use xlink:href="#f1_1f" transform="matrix(11,0,0,11,198.8,343)" />
<use xlink:href="#f1_7" transform="matrix(11,0,0,11,207.1,343)" />
<use xlink:href="#f1_5" transform="matrix(11,0,0,11,214.5,343)" />
<use xlink:href="#f1_g" transform="matrix(11,0,0,11,227.2,343)" />
<use xlink:href="#f1_5" transform="matrix(11,0,0,11,235.6,343)" />
<use xlink:href="#f1_6" transform="matrix(11,0,0,11,248.1,343)" />
<use xlink:href="#f1_g" transform="matrix(11,0,0,11,254.7,343)" />
<use xlink:href="#f1_2" transform="matrix(11,0,0,11,263.1,343)" />
<use xlink:href="#f1_1f" transform="matrix(11,0,0,11,270.6,343)" />
<use xlink:href="#f1_9" transform="matrix(11,0,0,11,279,343)" />
<use xlink:href="#f1_3" transform="matrix(11,0,0,11,291.6,343)" />
<use xlink:href="#f1_r" transform="matrix(11,0,0,11,296.2,343)" />
<use xlink:href="#f1_4" transform="matrix(11,0,0,11,309.3,343)" />
<use xlink:href="#f1_9" transform="matrix(11,0,0,11,317.7,343)" />
<use xlink:href="#f1_6" transform="matrix(11,0,0,11,326.1,343)" />
<use xlink:href="#f1_3" transform="matrix(11,0,0,11,332.6,343)" />
<use xlink:href="#f1_w" transform="matrix(11,0,0,11,337.3,343)" />
<use xlink:href="#f1_m" transform="matrix(11,0,0,11,345.7,343)" />
<use xlink:href="#f1_2" transform="matrix(11,0,0,11,350.4,343)" />
<use xlink:href="#f1_q" transform="matrix(11,0,0,11,357.7,343)" />
<use xlink:href="#f0_8" transform="matrix(12,0,0,12,554.6,366.2)" />
<use xlink:href="#f0_g" transform="matrix(12,0,0,12,560.4,366.2)" />
<use xlink:href="#f0_c" transform="matrix(12,0,0,12,572.3,366.2)" />
<use xlink:href="#f0_a" transform="matrix(12,0,0,12,585.3,366.2)" />
<use xlink:href="#f0_k" transform="matrix(12,0,0,12,595.2,366.2)" />
<use xlink:href="#f0_g" transform="matrix(12,0,0,12,613.2,366.2)" />
<use xlink:href="#f0_b" transform="matrix(12,0,0,12,625.1,366.2)" />
<use xlink:href="#f0_k" transform="matrix(12,0,0,12,635.5,366.2)" />
<use xlink:href="#f0_h" transform="matrix(12,0,0,12,647.4,366.2)" />
<use xlink:href="#f0_g" transform="matrix(12,0,0,12,659.5,366.2)" />
<use xlink:href="#f0_s" transform="matrix(12,0,0,12,677.3,366.2)" />
<use xlink:href="#f0_i" transform="matrix(12,0,0,12,689.6,366.2)" />
<use xlink:href="#f0_g" transform="matrix(12,0,0,12,693.7,366.2)" />
<use xlink:href="#f0_g" transform="matrix(12,0,0,12,711.4,366.2)" />
<use xlink:href="#f0_a" transform="matrix(12,0,0,12,723.3,366.2)" />
<use xlink:href="#f0_6" transform="matrix(12,0,0,12,733.4,366.2)" />
<use xlink:href="#f0_f" transform="matrix(12,0,0,12,738.4,366.2)" />
<use xlink:href="#f0_e" transform="matrix(12,0,0,12,749,366.2)" />
<use xlink:href="#f0_g" transform="matrix(12,0,0,12,760.4,366.2)" />
<use xlink:href="#f1_c" transform="matrix(11,0,0,11,137.7,364.8)" />
<use xlink:href="#f1_m" transform="matrix(11,0,0,11,147.9,364.8)" />
<use xlink:href="#f1_e" transform="matrix(11,0,0,11,156.9,364.8)" />
<use xlink:href="#f1_8" transform="matrix(11,0,0,11,161.5,364.8)" />
<use xlink:href="#f1_7" transform="matrix(11,0,0,11,167.1,364.8)" />
<use xlink:href="#f1_w" transform="matrix(11,0,0,11,174.6,364.8)" />
<use xlink:href="#f1_7" transform="matrix(11,0,0,11,182.8,364.8)" />
<use xlink:href="#f1_13" transform="matrix(11,0,0,11,190.3,364.8)" />
<use xlink:href="#f1_9" transform="matrix(11,0,0,11,195,364.8)" />
<use xlink:href="#f1_2" transform="matrix(11,0,0,11,207.7,364.8)" />
<use xlink:href="#f1_6" transform="matrix(11,0,0,11,215,364.8)" />
<use xlink:href="#f1_g" transform="matrix(11,0,0,11,225.8,364.8)" />
<use xlink:href="#f1_5" transform="matrix(11,0,0,11,234.2,364.8)" />
<use xlink:href="#f1_y" transform="matrix(11,0,0,11,246.7,364.8)" />
<use xlink:href="#f1_9" transform="matrix(11,0,0,11,254.2,364.8)" />
<use xlink:href="#f1_r" transform="matrix(11,0,0,11,262.6,364.8)" />
<use xlink:href="#f1_3" transform="matrix(11,0,0,11,275.6,364.8)" />
<use xlink:href="#f1_2" transform="matrix(11,0,0,11,280.3,364.8)" />
<use xlink:href="#f1_5" transform="matrix(11,0,0,11,287.8,364.8)" />
<use xlink:href="#f1_10" transform="matrix(11,0,0,11,296.2,364.8)" />
<use xlink:href="#f1_9" transform="matrix(11,0,0,11,303.6,364.8)" />
<use xlink:href="#f1_5" transform="matrix(11,0,0,11,316.2,364.8)" />
<use xlink:href="#f1_g" transform="matrix(11,0,0,11,324.6,364.8)" />
<use xlink:href="#f1_2" transform="matrix(11,0,0,11,333,364.8)" />
<use xlink:href="#f1_v" transform="matrix(11,0,0,11,340.4,364.8)" />
<use xlink:href="#f1_9" transform="matrix(11,0,0,11,348.8,364.8)" />
<use xlink:href="#f1_q" transform="matrix(11,0,0,11,357.2,364.8)" />
<use xlink:href="#f0_8" transform="matrix(12,0,0,12,529.8,387.9)" />
<use xlink:href="#f0_l" transform="matrix(12,0,0,12,535.6,387.9)" />
<use xlink:href="#f0_i" transform="matrix(12,0,0,12,547.9,387.9)" />
<use xlink:href="#f0_p" transform="matrix(12,0,0,12,552,387.9)" />
<use xlink:href="#f0_6" transform="matrix(12,0,0,12,558.4,387.9)" />
<use xlink:href="#f0_m" transform="matrix(12,0,0,12,563.3,387.9)" />
<use xlink:href="#f0_h" transform="matrix(12,0,0,12,574.7,387.9)" />
<use xlink:href="#f0_g" transform="matrix(12,0,0,12,592.7,387.9)" />
<use xlink:href="#f0_f" transform="matrix(12,0,0,12,604.6,387.9)" />
<use xlink:href="#f0_q" transform="matrix(12,0,0,12,615.1,387.9)" />
<use xlink:href="#f0_g" transform="matrix(12,0,0,12,625.5,387.9)" />
<use xlink:href="#f0_l" transform="matrix(12,0,0,12,643.2,387.9)" />
<use xlink:href="#f0_e" transform="matrix(12,0,0,12,655.5,387.9)" />
<use xlink:href="#f0_l" transform="matrix(12,0,0,12,672.7,387.9)" />
<use xlink:href="#f0_i" transform="matrix(12,0,0,12,684.9,387.9)" />
<use xlink:href="#f0_c" transform="matrix(12,0,0,12,689,387.9)" />
<use xlink:href="#f0_9" transform="matrix(12,0,0,12,702,387.9)" />
<use xlink:href="#f0_s" transform="matrix(12,0,0,12,709.4,387.9)" />
<use xlink:href="#f0_g" transform="matrix(12,0,0,12,727.5,387.9)" />
<use xlink:href="#f0_f" transform="matrix(12,0,0,12,739.4,387.9)" />
<use xlink:href="#f0_q" transform="matrix(12,0,0,12,750,387.9)" />
<use xlink:href="#f0_g" transform="matrix(12,0,0,12,760.4,387.9)" />
<use xlink:href="#f1_1p" transform="matrix(11,0,0,11,137.7,386.5)" />
<use xlink:href="#f1_g" transform="matrix(11,0,0,11,152.6,386.5)" />
<use xlink:href="#f1_y" transform="matrix(11,0,0,11,161,386.5)" />
<use xlink:href="#f1_11" transform="matrix(11,0,0,11,168.5,386.5)" />
<use xlink:href="#f1_7" transform="matrix(11,0,0,11,176.9,386.5)" />
<use xlink:href="#f1_z" transform="matrix(11,0,0,11,188.5,386.5)" />
<use xlink:href="#f1_2" transform="matrix(11,0,0,11,196.9,386.5)" />
<use xlink:href="#f1_5" transform="matrix(11,0,0,11,204.3,386.5)" />
<use xlink:href="#f1_e" transform="matrix(11,0,0,11,212.7,386.5)" />
<use xlink:href="#f1_2" transform="matrix(11,0,0,11,217.4,386.5)" />
<use xlink:href="#f1_y" transform="matrix(11,0,0,11,229,386.5)" />
<use xlink:href="#f1_9" transform="matrix(11,0,0,11,236.5,386.5)" />
<use xlink:href="#f1_5" transform="matrix(11,0,0,11,244.9,386.5)" />
<use xlink:href="#f1_r" transform="matrix(11,0,0,11,257.4,386.5)" />
<use xlink:href="#f1_g" transform="matrix(11,0,0,11,270.5,386.5)" />
<use xlink:href="#f1_y" transform="matrix(11,0,0,11,278.9,386.5)" />
<use xlink:href="#f1_11" transform="matrix(11,0,0,11,286.4,386.5)" />
<use xlink:href="#f1_7" transform="matrix(11,0,0,11,294.8,386.5)" />
<use xlink:href="#f1_6" transform="matrix(11,0,0,11,302.1,386.5)" />
<use xlink:href="#f1_5" transform="matrix(11,0,0,11,313,386.5)" />
<use xlink:href="#f1_7" transform="matrix(11,0,0,11,321.4,386.5)" />
<use xlink:href="#f1_8" transform="matrix(11,0,0,11,328.7,386.5)" />
<use xlink:href="#f1_7" transform="matrix(11,0,0,11,334.3,386.5)" />
<use xlink:href="#f1_5" transform="matrix(11,0,0,11,341.8,386.5)" />
<use xlink:href="#f1_13" transform="matrix(11,0,0,11,350.2,386.5)" />
<use xlink:href="#f1_7" transform="matrix(11,0,0,11,354.9,386.5)" />
<use xlink:href="#f1_6" transform="matrix(11,0,0,11,362.4,386.5)" />
<use xlink:href="#f1_q" transform="matrix(11,0,0,11,368.8,386.5)" />
<use xlink:href="#f0_8" transform="matrix(12,0,0,12,651.4,409.8)" />
<use xlink:href="#f0_g" transform="matrix(12,0,0,12,657.3,409.8)" />
<use xlink:href="#f0_g" transform="matrix(12,0,0,12,669.2,409.8)" />
<use xlink:href="#f0_6" transform="matrix(12,0,0,12,681.1,409.8)" />
<use xlink:href="#f0_f" transform="matrix(12,0,0,12,686.1,409.8)" />
<use xlink:href="#f0_n" transform="matrix(12,0,0,12,696.7,409.8)" />
<use xlink:href="#f0_g" transform="matrix(12,0,0,12,710.1,409.8)" />
<use xlink:href="#f0_m" transform="matrix(12,0,0,12,722,409.8)" />
<use xlink:href="#f0_q" transform="matrix(12,0,0,12,733.4,409.8)" />
<use xlink:href="#f0_i" transform="matrix(12,0,0,12,743.8,409.8)" />
<use xlink:href="#f0_1b" transform="matrix(12,0,0,12,747.9,409.8)" />
<use xlink:href="#f0_n" transform="matrix(12,0,0,12,752.9,409.8)" />
<use xlink:href="#f0_g" transform="matrix(12,0,0,12,760.4,409.8)" />
<use xlink:href="#f1_19" transform="matrix(11,0,0,11,137.7,408.4)" />
<use xlink:href="#f1_7" transform="matrix(11,0,0,11,147.9,408.4)" />
<use xlink:href="#f1_13" transform="matrix(11,0,0,11,159.6,408.4)" />
<use xlink:href="#f1_3" transform="matrix(11,0,0,11,164.2,408.4)" />
<use xlink:href="#f1_8" transform="matrix(11,0,0,11,168.9,408.4)" />
<use xlink:href="#f1_7" transform="matrix(11,0,0,11,174.4,408.4)" />
<use xlink:href="#f1_x" transform="matrix(11,0,0,11,181.9,408.4)" />
<use xlink:href="#f1_7" transform="matrix(11,0,0,11,187.5,408.4)" />
<use xlink:href="#f1_2" transform="matrix(11,0,0,11,199.1,408.4)" />
<use xlink:href="#f1_6" transform="matrix(11,0,0,11,206.6,408.4)" />
<use xlink:href="#f1_7" transform="matrix(11,0,0,11,217.4,408.4)" />
<use xlink:href="#f1_m" transform="matrix(11,0,0,11,224.7,408.4)" />
<use xlink:href="#f1_e" transform="matrix(11,0,0,11,229.4,408.4)" />
<use xlink:href="#f1_7" transform="matrix(11,0,0,11,234,408.4)" />
<use xlink:href="#f1_q" transform="matrix(11,0,0,11,241.5,408.4)" />
</g>
<g fill="#0000FF" >
<use xlink:href="#f0_j" transform="matrix(12,0,0,12,669.9,450.8)" />
<use xlink:href="#f0_q" transform="matrix(12,0,0,12,682.9,450.8)" />
<use xlink:href="#f0_m" transform="matrix(12,0,0,12,693.1,450.8)" />
<use xlink:href="#f0_b" transform="matrix(12,0,0,12,704.6,450.8)" />
<use xlink:href="#f0_g" transform="matrix(12,0,0,12,720.9,450.8)" />
<use xlink:href="#f0_q" transform="matrix(12,0,0,12,732.8,450.8)" />
<use xlink:href="#f0_p" transform="matrix(12,0,0,12,743.2,450.8)" />
<use xlink:href="#f0_k" transform="matrix(12,0,0,12,749.6,450.8)" />
<use xlink:href="#f0_f" transform="matrix(12,0,0,12,761.5,450.8)" />
</g>
</g>
<path d="M669.8,452.7H772.1" class="g1_17" />
<g clip-path="url(#c0_17)">
<g fill="#000000" >
<use xlink:href="#f0_14" transform="matrix(11,0,0,11,137.5,1208.9)" />
<use xlink:href="#f0_1h" transform="matrix(11,0,0,11,148.2,1208.9)" />
</g>
</g>
<defs>
<path d="M163,0V190H321V0Z" 
id="f0_8"
transform="scale(0.001,-0.001)" />

<path d="M66,0V107H554V452c0,0,0,56,-4,93c0,0,-4,37,-18,75c0,0,-14,38,-40,60c0,0,-26,22,-71,36c0,0,-45,13,-110,13H66V836H312c0,0,91,0,157,-17c0,0,66,-17,109,-49c0,0,44,-32,69,-84c0,0,26,-52,36,-114c0,0,10,-62,10,-147V107H817V0Z" 
id="f0_f"
transform="scale(0.001,-0.001)" />

<path d="M139,0V836H278V0Z" 
id="f0_6"
transform="scale(0.001,-0.001)" />

<path d="M154,0V454l138,56V0ZM722,0V454c0,0,0,161,-49,218c0,0,-48,57,-186,57H139V836H485c0,0,207,0,291,-93c0,0,83,-94,83,-318V0Z" 
id="f0_g"
transform="scale(0.001,-0.001)" />

<path d="M152,0V473c0,0,0,94,28,161c0,0,29,66,71,95H66V836H463V729H404c0,0,-65,0,-89,-57c0,0,-25,-58,-25,-199V0Z" 
id="f0_p"
transform="scale(0.001,-0.001)" />

<path d="M383,64c0,0,85,0,152,28V645c0,0,-67,13,-152,13c0,0,-194,0,-194,-314c0,0,0,-141,48,-211c0,0,48,-69,146,-69ZM342,-14c0,0,-287,0,-287,358c0,0,0,184,82,280c0,0,81,96,239,96c0,0,81,0,163,-18c0,0,-4,25,-4,124v182l-118,18v34H659V52L745,33V0H548l-9,52c0,0,-84,-66,-197,-66Z" 
id="f1_p"
transform="scale(0.001,-0.001)" />

<path d="M377,45c0,0,99,0,147,73c0,0,47,73,47,237c0,0,0,161,-47,233c0,0,-47,72,-147,72c0,0,-97,0,-141,-69c0,0,-44,-69,-44,-236c0,0,0,-169,45,-240c0,0,44,-70,140,-70Zm0,-59c0,0,-158,0,-238,94c0,0,-81,95,-81,274c0,0,0,178,81,272c0,0,80,94,244,94c0,0,160,0,241,-92c0,0,82,-92,82,-274c0,0,0,-368,-329,-368Z" 
id="f1_9"
transform="scale(0.001,-0.001)" />

<path d="M31,0V33l88,19V649L31,668v33H235l7,-87c0,0,44,37,121,71c0,0,76,35,121,35h11V530H463l-43,82c0,0,-37,0,-88,-10c0,0,-52,-10,-89,-26V52L363,33V0Z" 
id="f1_8"
transform="scale(0.001,-0.001)" />

<path d="M284,67c0,0,51,0,88,12c0,0,37,12,74,30V358l-98,-3c0,0,-100,-4,-135,-39c0,0,-35,-35,-35,-117c0,0,0,-132,106,-132ZM233,-14c0,0,-179,0,-179,208c0,0,0,70,27,116c0,0,27,46,87,70c0,0,60,24,173,27l105,3V519c0,0,0,72,-26,107c0,0,-27,34,-82,34c0,0,-75,0,-137,-35L176,538H134V691c0,0,121,26,213,26c0,0,115,0,169,-47c0,0,54,-47,54,-144V52L657,33V0H465L451,70c0,0,-85,-84,-218,-84Z" 
id="f1_7"
transform="scale(0.001,-0.001)" />

<path d="M191,-20c0,0,-39,0,-65,25c0,0,-25,27,-25,64c0,0,0,38,26,64c0,0,26,26,64,26c0,0,38,0,64,-26c0,0,26,-26,26,-64c0,0,0,-37,-25,-64c0,0,-26,-25,-65,-25Z" 
id="f1_q"
transform="scale(0.001,-0.001)" />

<path d="M180,0L66,836H203L258,443c0,0,36,1,64,6c0,0,28,6,49,18c0,0,20,12,35,26c0,0,15,13,26,36c0,0,11,24,17,44c0,0,7,20,12,55c0,0,6,34,9,60c0,0,3,26,8,71c0,0,4,45,9,77H610c0,0,-13,-194,-31,-271c0,0,-31,-127,-111,-179c0,0,-71,-45,-196,-50L304,107c0,0,73,0,130,5c0,0,56,6,111,21c0,0,54,15,94,40c0,0,40,25,77,64c0,0,37,39,63,94c0,0,25,54,46,128c0,0,21,73,34,166c0,0,13,94,20,211h138c0,0,-14,-124,-29,-218c0,0,-16,-94,-39,-179c0,0,-22,-85,-50,-146c0,0,-28,-61,-68,-112c0,0,-39,-51,-87,-84C744,97,696,65,632,42C632,42,568,19,492,10C492,10,417,0,320,0Z" 
id="f0_c"
transform="scale(0.001,-0.001)" />

<path d="M287,0L589,729H66v386H205V836l547,-1l-2,-82L433,0Z" 
id="f0_b"
transform="scale(0.001,-0.001)" />

<path d="M736,107V473c0,0,0,147,-48,202c0,0,-49,54,-187,54H278V107ZM139,0V836H499c0,0,105,0,177,-22c0,0,72,-21,116,-69c0,0,44,-49,64,-119c0,0,19,-71,19,-174V0Z" 
id="f0_l"
transform="scale(0.001,-0.001)" />

<path d="M102,312V836H241V369L102,312Z" 
id="f0_i"
transform="scale(0.001,-0.001)" />

<path d="M585,0V426c0,0,0,54,-8,98c0,0,-8,44,-27,83c0,0,-19,40,-49,66c0,0,-30,26,-77,41c0,0,-47,15,-108,15H66V836H315c0,0,94,0,166,-20c0,0,71,-20,116,-54c0,0,46,-35,75,-88c0,0,28,-52,40,-112c0,0,12,-60,12,-137V0Z" 
id="f0_q"
transform="scale(0.001,-0.001)" />

<path d="M66,0V106H564L66,836H228L516,413c0,0,3,2,9,6c0,0,17,13,27,21c0,0,10,8,26,27c0,0,17,20,26,40c0,0,9,21,16,54c0,0,7,34,7,75V836H764V698c0,0,0,-55,-7,-102c0,0,-7,-47,-16,-79c0,0,-10,-33,-27,-62c0,0,-18,-29,-32,-46c0,0,-14,-17,-37,-35c0,0,-22,-17,-36,-25c0,0,-13,-8,-36,-20L767,53V0Z" 
id="f0_r"
transform="scale(0.001,-0.001)" />

<path d="M112,-5c0,0,-39,0,-97,11V113c0,0,48,-10,77,-10c0,0,53,0,70,42c0,0,17,43,17,164V729H50V836H501c0,0,107,0,179,-25c0,0,72,-25,112,-77c0,0,40,-51,57,-118c0,0,16,-67,16,-164V0H726V454c0,0,0,55,-3,92c0,0,-4,37,-17,75c0,0,-14,38,-38,59c0,0,-24,22,-65,36c0,0,-42,13,-102,13H318V309c0,0,0,-160,-46,-237C272,72,226,-5,112,-5Z" 
id="f0_h"
transform="scale(0.001,-0.001)" />

<path d="M139,0V836H485c0,0,206,0,290,-90c0,0,84,-89,84,-294V0H721V473c0,0,0,147,-49,202c0,0,-48,54,-186,54H277V0Z" 
id="f0_k"
transform="scale(0.001,-0.001)" />

<path d="M139,0V138c0,0,0,61,8,112c0,0,7,52,19,87c0,0,11,36,30,66c0,0,19,31,35,49c0,0,17,19,41,35c0,0,25,17,41,25c0,0,17,7,40,17L141,836H303L613,388c0,0,20,10,33,18c0,0,13,8,34,28c0,0,20,20,33,44c0,0,13,25,22,66c0,0,10,41,10,92V836H882V698c0,0,0,-61,-7,-112c0,0,-6,-52,-18,-88c0,0,-12,-36,-30,-66c0,0,-19,-30,-36,-49c0,0,-17,-18,-41,-34c0,0,-24,-17,-40,-25c0,0,-17,-8,-41,-17L882,0H720L409,448c0,0,-21,-11,-34,-19c0,0,-13,-8,-34,-27c0,0,-21,-20,-34,-44c0,0,-12,-25,-22,-66c0,0,-9,-41,-9,-92V0Z" 
id="f0_s"
transform="scale(0.001,-0.001)" />

<path d="M66,0V106H322c0,0,75,0,127,23c0,0,53,23,82,67c0,0,29,43,42,98c0,0,13,54,13,124c0,0,0,70,-13,124c0,0,-13,55,-42,98c0,0,-29,44,-82,67c0,0,-52,23,-127,23H66V836H322c0,0,87,0,157,-24c0,0,70,-24,115,-64c0,0,45,-40,74,-94c0,0,30,-55,43,-113c0,0,13,-59,13,-123c0,0,0,-64,-13,-123c0,0,-13,-58,-43,-113c0,0,-29,-54,-74,-94C594,88,549,48,479,24C479,24,409,0,322,0Z" 
id="f0_4"
transform="scale(0.001,-0.001)" />

<path d="M66,0V107H332V555c0,0,0,92,-37,133c0,0,-37,41,-116,41H85V836h94c0,0,153,0,223,-66c0,0,69,-66,69,-231V0Z" 
id="f0_9"
transform="scale(0.001,-0.001)" />

<path d="M139,0V106H400c0,0,176,0,253,71c0,0,78,72,78,250c0,0,0,163,-80,233c0,0,-81,69,-250,69H278L277,564c0,0,-1,-54,26,-80c0,0,27,-25,82,-25c0,0,30,0,80,9V355c0,0,-61,-12,-111,-12c0,0,-100,0,-157,55c0,0,-58,55,-58,186V836H456c0,0,193,0,303,-109c0,0,110,-109,110,-309c0,0,0,-200,-110,-309C759,109,648,0,456,0Z" 
id="f0_m"
transform="scale(0.001,-0.001)" />

<path d="M44,0V40L172,60V941L44,960v40H794V760H745L721,922c0,0,-83,11,-241,11H316V543H586l23,119h48V354H609L586,475H316V67H513c0,0,193,0,252,12l43,185h49L843,0Z" 
id="f1_c"
transform="scale(0.001,-0.001)" />

<path d="M31,0V33L150,52v956L31,1026v34H274V52L394,33V0Z" 
id="f1_m"
transform="scale(0.001,-0.001)" />

<path d="M399,-14c0,0,-341,0,-341,370c0,0,0,175,87,269c0,0,87,95,249,95c0,0,101,0,220,-23V501H573L541,625c0,0,-62,35,-149,35c0,0,-200,0,-200,-304c0,0,0,-158,61,-225c0,0,61,-67,189,-67c0,0,109,0,189,24V43C631,43,595,16,530,1c0,0,-64,-15,-131,-15Z" 
id="f1_y"
transform="scale(0.001,-0.001)" />

<path d="M439,0V33l93,19V500c0,0,0,62,-30,97c0,0,-31,36,-94,36c0,0,-67,0,-165,-22V52L338,33V0H35V33l84,19V649L35,668v33H235l7,-57c0,0,57,33,122,54c0,0,65,22,108,22c0,0,91,0,137,-53c0,0,47,-53,47,-154V52L741,33V0Z" 
id="f1_5"
transform="scale(0.001,-0.001)" />

<path d="M495,413c0,0,0,133,-34,190c0,0,-34,57,-105,57c0,0,-78,0,-119,-63c0,0,-42,-62,-42,-184ZM374,-14c0,0,-163,0,-239,87c0,0,-75,88,-75,283c0,0,0,183,77,273c0,0,76,91,219,91c0,0,269,0,269,-306V353H194V340c0,0,0,-103,23,-160c0,0,22,-57,70,-87c0,0,47,-29,124,-29c0,0,40,0,96,6c0,0,55,7,91,15V43C598,43,562,20,500,3c0,0,-61,-17,-126,-17Z" 
id="f1_2"
transform="scale(0.001,-0.001)" />

<path d="M64,-325c0,0,-46,0,-107,14v148H-8l19,-81c0,0,25,-21,62,-21c0,0,44,0,67,47c0,0,22,47,22,152V649L57,668v33H286V-28c0,0,0,-146,-57,-221c0,0,-56,-76,-165,-76ZM213,850c0,0,-34,0,-58,24c0,0,-24,24,-24,56c0,0,0,34,24,58c0,0,24,24,58,24c0,0,32,0,56,-24c0,0,24,-24,24,-58c0,0,0,-32,-24,-56c0,0,-24,-24,-56,-24Z" 
id="f1_13"
transform="scale(0.001,-0.001)" />

<path d="M431,0V33L535,52V499c0,0,0,62,-32,96c0,0,-32,33,-95,33c0,0,-66,0,-163,-22V52L350,33V0H32V33l89,19V649L32,668v33H237l6,-57c0,0,56,32,119,54c0,0,62,22,110,22c0,0,52,0,95,-20c0,0,44,-19,66,-62c0,0,57,32,134,57c0,0,77,25,128,25c0,0,179,0,179,-207V52l90,-19V0H846V33L950,52V499c0,0,0,129,-119,129c0,0,-19,0,-45,-3c0,0,-26,-3,-52,-7c0,0,-25,-4,-49,-8c0,0,-23,-5,-39,-8c0,0,13,-41,13,-89V52L764,33V0Z" 
id="f1_r"
transform="scale(0.001,-0.001)" />

<path d="M289,-14c0,0,-179,0,-179,205V649L20,668v33H233V200c0,0,0,-128,120,-128c0,0,92,0,173,23V649L420,668v33H649V52L738,33V0H533l-6,57C527,57,474,28,405,7c0,0,-69,-21,-116,-21Z" 
id="f1_g"
transform="scale(0.001,-0.001)" />

<path d="M41,0V34L426,641H261c0,0,-42,0,-80,-7c0,0,-39,-7,-54,-19L104,515H69V701H586V665L201,60H407c0,0,42,0,89,10c0,0,47,10,66,25l39,147h35L617,0Z" 
id="f1_10"
transform="scale(0.001,-0.001)" />

<path d="M249,-14c0,0,-71,0,-107,42c0,0,-35,42,-35,119V639H15v33l93,29l76,159h47V701H391V639H231V161c0,0,0,-48,22,-73c0,0,22,-24,57,-24c0,0,44,0,106,12V26C416,26,389,8,340,-2c0,0,-49,-12,-91,-12Z" 
id="f1_e"
transform="scale(0.001,-0.001)" />

<path d="M278,-14c0,0,-52,0,-115,11c0,0,-63,10,-99,23V193H98L134,95c0,0,56,-50,146,-50c0,0,144,0,144,123c0,0,0,91,-114,130l-66,21c0,0,-75,25,-110,50c0,0,-34,26,-53,63c0,0,-18,36,-18,89c0,0,0,92,63,145c0,0,63,54,170,54c0,0,77,0,193,-23V544H454l-32,81c0,0,-39,35,-124,35c0,0,-61,0,-92,-30c0,0,-32,-30,-32,-80c0,0,0,-43,29,-72c0,0,28,-29,86,-48c0,0,110,-38,144,-55c0,0,33,-17,57,-42c0,0,23,-25,36,-57c0,0,13,-32,13,-79c0,0,0,-104,-66,-158c0,0,-66,-53,-195,-53Z" 
id="f1_6"
transform="scale(0.001,-0.001)" />

<path d="M64,0V34L168,59V639H47v36l121,29v49c0,0,0,155,61,239c0,0,62,84,173,84c0,0,58,0,107,-15V908H472l-33,92c0,0,-26,16,-62,16c0,0,-47,0,-66,-42c0,0,-19,-42,-19,-157V701H478V639H292V59L443,34V0Z" 
id="f1_x"
transform="scale(0.001,-0.001)" />

<path d="M522,92c0,0,247,0,247,333c0,0,0,88,-17,146c0,0,-17,58,-53,91c0,0,-35,33,-82,46c0,0,-48,14,-116,14H276V419c0,0,0,-327,246,-327Zm0,-112c0,0,-193,0,-289,109c0,0,-95,110,-95,337V836H501c0,0,213,0,309,-93c0,0,96,-94,96,-317c0,0,0,-227,-95,-337C811,89,715,-20,522,-20Z" 
id="f0_o"
transform="scale(0.001,-0.001)" />

<path d="M114,0l60,312c0,0,2,12,8,39c0,0,6,27,7,37c0,0,2,11,5,30c0,0,2,19,4,33c0,0,1,15,1,31c0,0,0,48,-35,146c0,0,-35,98,-98,208H228c0,0,3,-8,27,-67c0,0,25,-58,41,-117c0,0,21,53,50,90c0,0,29,37,57,57c0,0,29,21,65,32c0,0,37,11,65,14c0,0,28,3,67,3c0,0,300,0,300,-396V0H480V106H761V452c0,0,0,146,-46,215c0,0,-45,70,-118,70c0,0,-134,0,-198,-119c0,0,-36,-68,-67,-222c0,0,-2,-10,-6,-27L253,0Z" 
id="f0_7"
transform="scale(0.001,-0.001)" />

<path d="M577,-14c0,0,-243,0,-379,132C198,118,63,250,63,488c0,0,0,258,130,391c0,0,131,132,387,132c0,0,156,0,335,-38l5,-218H871L848,884c0,0,-52,32,-121,50c0,0,-69,17,-141,17c0,0,-191,0,-279,-112c0,0,-88,-113,-88,-349c0,0,0,-217,92,-332c0,0,92,-115,268,-115c0,0,85,0,160,20c0,0,76,21,120,55l27,149h49L930,32c0,0,-164,-46,-353,-46Z" 
id="f1_16"
transform="scale(0.001,-0.001)" />

<path d="M156,-317V454l139,56V-317ZM505,0L806,729H139V835H967V753L650,0Z" 
id="f0_j"
transform="scale(0.001,-0.001)" />

<path d="M522,-20c0,0,-196,0,-290,99c0,0,-94,100,-94,324V836H276V397c0,0,0,-86,16,-147c0,0,17,-60,50,-94c0,0,34,-34,77,-49c0,0,43,-15,103,-15c0,0,59,0,102,15c0,0,44,15,77,49c0,0,33,34,50,94c0,0,17,61,17,147c0,0,0,84,-8,143c0,0,-7,58,-25,105c0,0,-17,47,-51,69c0,0,-33,23,-83,23c0,0,-50,0,-119,-22V821c0,0,85,23,150,23c0,0,76,0,130,-30c0,0,53,-31,85,-90c0,0,31,-59,45,-138c0,0,13,-78,13,-183c0,0,0,-224,-93,-324c0,0,-94,-99,-290,-99Z" 
id="f0_d"
transform="scale(0.001,-0.001)" />

<path d="M536,-22L130,941L17,960v40H421V960L287,941L590,205L892,941L761,960v40h325V960L976,941L574,-22Z" 
id="f1_1w"
transform="scale(0.001,-0.001)" />

<path d="M360,-14L72,649L0,668v33H327V668L216,648L420,164L615,649L504,668v33H764V668L697,652L416,-14Z" 
id="f1_v"
transform="scale(0.001,-0.001)" />

<path d="M376,50c0,0,103,0,149,80c0,0,46,81,46,240c0,0,0,137,-47,204c0,0,-48,67,-148,67c0,0,-44,0,-87,-7c0,0,-44,-8,-63,-17V62c0,0,63,-12,150,-12Zm3,-64c0,0,-64,0,-141,14c0,0,-78,14,-136,37v971L0,1026v34H226V809c0,0,0,-40,-4,-148c0,0,74,59,188,59c0,0,143,0,219,-87c0,0,77,-87,77,-263c0,0,0,-189,-84,-287c0,0,-84,-97,-243,-97Z" 
id="f1_w"
transform="scale(0.001,-0.001)" />

<path d="M32,0V33L151,52V649L52,668v33H275V52L395,33V0ZM201,850c0,0,-32,0,-56,24c0,0,-24,24,-24,56c0,0,0,34,24,58c0,0,24,24,56,24c0,0,34,0,58,-24c0,0,24,-24,24,-58c0,0,0,-32,-24,-56c0,0,-24,-24,-58,-24Z" 
id="f1_3"
transform="scale(0.001,-0.001)" />

<path d="M139,-317V836H278V-317Z" 
id="f0_3"
transform="scale(0.001,-0.001)" />

<path d="M117,-176L179,62V190H336V62L213,-176Z" 
id="f0_2"
transform="scale(0.001,-0.001)" />

<path d="M617,0L251,860V60L385,40V0H44V40L172,60V941L44,960v40H347L672,239l355,761h287V960L1185,941V60L1314,40V0H908V40l134,20V859L643,0Z" 
id="f1_1p"
transform="scale(0.001,-0.001)" />

<path d="M58,-234v58c0,0,131,42,131,125c0,0,0,15,-11,27c0,0,-11,12,-38,25C140,1,89,27,89,75c0,0,0,40,25,61c0,0,26,21,65,21c0,0,48,0,77,-34c0,0,30,-34,30,-86c0,0,0,-101,-60,-170c0,0,-59,-69,-168,-101Z" 
id="f1_1j"
transform="scale(0.001,-0.001)" />

<path d="M382,45c0,0,188,0,188,314c0,0,0,143,-47,213c0,0,-46,69,-141,69c0,0,-87,0,-146,-24V58c0,0,67,-13,146,-13ZM25,-325v35l88,18V649L34,668v33H231l1,-41c0,0,31,27,84,43c0,0,53,17,107,17c0,0,134,0,208,-94c0,0,73,-93,73,-267c0,0,0,-178,-80,-276c0,0,-80,-97,-232,-97c0,0,-84,0,-160,16c0,0,4,-53,4,-84V-272l123,-18v-35Z" 
id="f1_4"
transform="scale(0.001,-0.001)" />

<path d="M495,0V729H66V836H781V729H634V0Z" 
id="f0_a"
transform="scale(0.001,-0.001)" />

<path d="M138,-7c0,0,-34,0,-72,10V129c0,0,25,-8,52,-8c0,0,33,0,58,5c0,0,26,5,58,24c0,0,33,20,53,54c0,0,21,34,36,97c0,0,15,64,15,151c0,0,0,113,-19,173c0,0,-19,60,-56,82c0,0,-38,22,-107,22H89V836h72c0,0,165,0,240,-91c0,0,76,-91,76,-293c0,0,0,-107,26,-227c0,0,25,-119,83,-225H437c0,0,-43,101,-62,184c0,0,-24,-60,-51,-99c0,0,-26,-38,-56,-58C268,27,239,7,209,0c0,0,-30,-7,-71,-7Z" 
id="f0_n"
transform="scale(0.001,-0.001)" />

<path d="M379,-315c0,0,-316,0,-316,253c0,0,0,119,60,194c0,0,60,74,175,98l43,10l9,193h60L429,185L322,163c0,0,-64,-12,-93,-65c0,0,-29,-52,-29,-151c0,0,0,-110,40,-155c0,0,40,-44,139,-44c0,0,84,0,145,36l26,123h49V-283c0,0,-110,-32,-220,-32Zm-6,851c0,0,-38,0,-64,26c0,0,-26,26,-26,64c0,0,0,37,25,64c0,0,26,27,65,27c0,0,37,0,64,-27c0,0,26,-26,26,-64c0,0,0,-39,-27,-64c0,0,-26,-26,-63,-26Z" 
id="f1_1c"
transform="scale(0.001,-0.001)" />

<path d="M529,65c0,0,183,0,270,108c0,0,87,108,87,334c0,0,0,210,-113,318c0,0,-113,108,-322,108H316V71c0,0,90,-6,213,-6Zm0,-67L172,0H44V40L172,60V941L44,960v40H498c0,0,277,0,411,-123c0,0,133,-124,133,-371c0,0,0,-251,-129,-380C913,126,785,-2,529,-2Z" 
id="f1_1b"
transform="scale(0.001,-0.001)" />

<path d="M306,-20c0,0,-39,0,-65,25c0,0,-25,27,-25,64c0,0,0,38,26,64c0,0,26,26,64,26c0,0,37,0,63,-25c0,0,26,-26,26,-65c0,0,0,-37,-25,-64c0,0,-26,-25,-64,-25ZM269,261L249,510l107,22c0,0,64,13,93,65c0,0,29,52,29,152c0,0,0,109,-39,154c0,0,-40,45,-140,45c0,0,-83,0,-145,-36L128,789H79V979c0,0,118,32,220,32c0,0,316,0,316,-253c0,0,0,-121,-60,-195c0,0,-60,-74,-175,-98l-42,-9L328,261Z" 
id="f1_1d"
transform="scale(0.001,-0.001)" />

<path d="M71,-141V-15L289,62L66,836H210L416,109c0,0,99,42,153,98c0,0,53,56,80,155c0,0,26,98,26,262V836H817V624c0,0,0,-88,-7,-154c0,0,-7,-67,-25,-132c0,0,-18,-66,-51,-116c0,0,-33,-51,-84,-98c0,0,-50,-48,-123,-87c0,0,-72,-39,-169,-74L71,-141Z" 
id="f0_e"
transform="scale(0.001,-0.001)" />

<path d="M44,0V40L172,60V941L44,960v40H445V960L316,941V549H787V941L659,960v40h400V960L930,941V60L1059,40V0H659V40L787,60V481H316V60L445,40V0Z" 
id="f1_1m"
transform="scale(0.001,-0.001)" />

<path d="M148,-329c0,0,-58,0,-114,13v151H69l24,-71c0,0,23,-17,64,-17c0,0,39,0,72,22c0,0,33,23,60,67c0,0,27,44,68,157L90,649L19,668v33H344V668L233,648L423,158L606,649L497,668v33H758V668L685,652L411,-43c0,0,-48,-124,-84,-177c0,0,-36,-54,-79,-82c0,0,-44,-27,-100,-27Z" 
id="f1_i"
transform="scale(0.001,-0.001)" />

<path d="M394,460c0,0,126,0,186,57c0,0,60,57,60,187c0,0,0,123,-57,176c0,0,-58,53,-194,53H316V460ZM54,0V40L172,60V941L44,960v40H421c0,0,368,0,368,-295c0,0,0,-153,-93,-233c0,0,-93,-80,-267,-80H316V60L475,40V0Z" 
id="f1_1i"
transform="scale(0.001,-0.001)" />

<path d="M44,0V40L172,60V941L44,960v40H471V960L316,941V65H513c0,0,159,0,234,14l46,208h48L828,0Z" 
id="f1_19"
transform="scale(0.001,-0.001)" />

<path d="M442,0V33l93,19V504c0,0,0,129,-124,129c0,0,-70,0,-168,-22V52L338,33V0H31V33l88,19v956L15,1026v34H243V756c0,0,0,-77,-5,-112c0,0,54,31,122,53c0,0,68,23,115,23c0,0,91,0,137,-53c0,0,47,-53,47,-154V52L744,33V0Z" 
id="f1_11"
transform="scale(0.001,-0.001)" />

<path d="M35,0V34l84,18V649L35,668v33H235l7,-56c0,0,57,32,122,54c0,0,65,21,108,21c0,0,91,0,137,-53c0,0,47,-53,47,-154V52L741,34V0H439V34l93,18V500c0,0,0,62,-30,97c0,0,-31,36,-94,36c0,0,-67,0,-165,-22V52L338,34V0ZM481,834c0,0,-36,0,-66,16c0,0,-30,16,-57,36c0,0,-27,20,-52,36c0,0,-25,16,-49,16c0,0,-24,0,-39,-9c0,0,-14,-9,-23,-26c0,0,-8,-17,-13,-54H143c0,0,11,180,146,180c0,0,36,0,66,-16c0,0,30,-16,57,-35c0,0,27,-20,52,-36c0,0,25,-16,49,-16c0,0,32,0,50,18c0,0,18,19,25,70h39c0,0,-12,-180,-146,-180Z" 
id="f1_1f"
transform="scale(0.001,-0.001)" />

<path d="M359,-270c0,0,124,0,192,46c0,0,67,47,67,129c0,0,0,43,-26,67c0,0,-26,24,-79,24H242c0,0,-32,-27,-51,-69c0,0,-20,-41,-20,-77c0,0,0,-64,46,-92c0,0,46,-28,142,-28Zm11,561c0,0,81,0,115,47c0,0,34,47,34,141c0,0,0,100,-35,142c0,0,-35,42,-113,42c0,0,-78,0,-114,-43c0,0,-37,-42,-37,-141c0,0,0,-98,36,-143c0,0,36,-45,114,-45ZM359,-329c0,0,-143,0,-218,44c0,0,-75,43,-75,125c0,0,0,39,27,78c0,0,26,38,98,89c0,0,-43,14,-72,48c0,0,-29,35,-29,74L208,262c0,0,-118,55,-118,217c0,0,0,115,73,178c0,0,73,63,211,63c0,0,28,0,71,-6c0,0,44,-6,67,-13l165,83l26,-32L599,644c0,0,50,-56,50,-165c0,0,0,-120,-72,-182c0,0,-73,-62,-208,-62c0,0,-62,0,-114,11L208,148c0,0,2,-13,29,-24c0,0,27,-12,67,-12H512c0,0,113,0,168,-49c0,0,55,-49,55,-134c0,0,0,-79,-44,-137c0,0,-43,-58,-128,-90c0,0,-84,-31,-204,-31Z" 
id="f1_z"
transform="scale(0.001,-0.001)" />

<path d="M147,700v414H274V700Z" 
id="f0_1b"
transform="scale(0.001,-0.001)" />

<path d="M190,0V127H436V977L168,923v137l267,54H586V127H832V0Z" 
id="f0_14"
transform="scale(0.001,-0.001)" />

<path d="M280,0L660,987H125v127H841v-64L437,0Z" 
id="f0_1h"
transform="scale(0.001,-0.001)" />


</defs>
</svg>