<?xml version="1.0" encoding="UTF-8" standalone="no"?>
<!DOCTYPE svg PUBLIC "-//W3C//DTD SVG 1.1//EN"
"http://www.w3.org/Graphics/SVG/1.1/DTD/svg11.dtd">
<svg viewBox="0 0 909 1286" version="1.1" xmlns="http://www.w3.org/2000/svg" xmlns:xlink="http://www.w3.org/1999/xlink">
<defs>
<clipPath id="c0_3"><path d="M0,1286.2V0H909.4V1286.2Z" /></clipPath>
<style type="text/css"><![CDATA[
.g0_3{
fill: #A5A5A5;
}
.g1_3{
fill: none;
stroke: #000000;
stroke-width: 0.9166667;
stroke-linecap: butt;
stroke-linejoin: miter;
}
.g2_3{
fill: none;
stroke: #000000;
stroke-width: 0.7638889;
stroke-linecap: butt;
stroke-linejoin: round;
}
.g3_3{
fill: none;
stroke: #000000;
stroke-width: 1.0694444;
stroke-linecap: butt;
stroke-linejoin: miter;
}
.g4_3{
fill: none;
stroke: #000000;
stroke-width: 1.1458334;
stroke-linecap: butt;
stroke-linejoin: round;
}
]]></style>
</defs>
<path fill-rule="evenodd" d="M446.6,1029.3H771.5V992.1H446.6v37.2Z" class="g0_3" />
<path fill-rule="evenodd" d="M132.6,1029.3H446.5V992.1H132.6v37.2Z" class="g0_3" />
<path fill-rule="evenodd" d="M446.6,1029.3H771.5V992.1H446.6v37.2Z" class="g0_3" />
<path fill-rule="evenodd" d="M132.6,1029.3H446.5V992.1H132.6v37.2Z" class="g0_3" />
<g clip-path="url(#c0_3)">
<g fill="#000000" >
<use xlink:href="#f0_o" transform="matrix(12,0,0,12,559.3,173.6)" />
<use xlink:href="#f0_d" transform="matrix(12,0,0,12,571.8,173.6)" />
<use xlink:href="#f0_i" transform="matrix(12,0,0,12,576.4,173.6)" />
<use xlink:href="#f0_n" transform="matrix(12,0,0,12,589.7,173.6)" />
<use xlink:href="#f0_6" transform="matrix(12,0,0,12,602,173.6)" />
<use xlink:href="#f0_x" transform="matrix(12,0,0,12,621.5,173.6)" />
<use xlink:href="#f0_e" transform="matrix(12,0,0,12,621.8,173.6)" />
<use xlink:href="#f0_a" transform="matrix(12,0,0,12,627.2,173.6)" />
<use xlink:href="#f0_10" transform="matrix(12,0,0,12,636.3,173.6)" />
<use xlink:href="#f0_j" transform="matrix(12,0,0,12,638,173.6)" />
<use xlink:href="#f0_x" transform="matrix(12,0,0,12,648.7,173.6)" />
<use xlink:href="#f0_e" transform="matrix(12,0,0,12,649.1,173.6)" />
<use xlink:href="#f0_r" transform="matrix(12,0,0,12,654.5,173.6)" />
<use xlink:href="#f0_1b" transform="matrix(12,0,0,12,585.6,194.9)" />
<use xlink:href="#f0_m" transform="matrix(12,0,0,12,598,194.9)" />
<use xlink:href="#f0_1k" transform="matrix(12,0,0,12,604,194.9)" />
<use xlink:href="#f0_7" transform="matrix(12,0,0,12,603,194.9)" />
<use xlink:href="#f0_w" transform="matrix(12,0,0,12,615.4,194.9)" />
<use xlink:href="#f0_1l" transform="matrix(12,0,0,12,615.4,194.9)" />
<use xlink:href="#f0_6" transform="matrix(12,0,0,12,615.4,194.9)" />
<use xlink:href="#f0_18" transform="matrix(12,0,0,12,628.3,194.9)" />
<use xlink:href="#f1_y" transform="matrix(11,0,0,11,540.2,194.9)" />
<use xlink:href="#f1_4" transform="matrix(11,0,0,11,548.6,194.9)" />
<use xlink:href="#f1_u" transform="matrix(11,0,0,11,557,194.9)" />
<use xlink:href="#f1_q" transform="matrix(11,0,0,11,562.7,194.9)" />
<use xlink:href="#f1_4" transform="matrix(11,0,0,11,571.1,194.9)" />
<use xlink:href="#f0_17" transform="matrix(12,0,0,12,533.2,194.9)" />
<use xlink:href="#f2_a" transform="matrix(16,0,0,16,661.2,286.9)" />
<use xlink:href="#f2_s" transform="matrix(16,0,0,16,673.6,286.9)" />
<use xlink:href="#f2_5" transform="matrix(16,0,0,16,689.6,286.9)" />
<use xlink:href="#f2_9" transform="matrix(16,0,0,16,696.1,286.9)" />
<use xlink:href="#f2_9" transform="matrix(16,0,0,16,717.9,286.9)" />
<use xlink:href="#f2_5" transform="matrix(16,0,0,16,733.2,286.9)" />
<use xlink:href="#f2_6" transform="matrix(16,0,0,16,739.9,286.9)" />
<use xlink:href="#f2_t" transform="matrix(16,0,0,16,754.7,286.9)" />
<use xlink:href="#f0_3" transform="matrix(12,0,0,12,367,309.2)" />
<use xlink:href="#f0_g" transform="matrix(12,0,0,12,378.9,309.2)" />
<use xlink:href="#f0_d" transform="matrix(12,0,0,12,390.2,309.2)" />
<use xlink:href="#f0_a" transform="matrix(12,0,0,12,400.1,309.2)" />
<use xlink:href="#f0_9" transform="matrix(12,0,0,12,410.2,309.2)" />
<use xlink:href="#f0_d" transform="matrix(12,0,0,12,420.6,309.2)" />
<use xlink:href="#f0_t" transform="matrix(12,0,0,12,430.6,309.2)" />
<use xlink:href="#f0_8" transform="matrix(12,0,0,12,436.7,309.2)" />
<use xlink:href="#f0_d" transform="matrix(12,0,0,12,448.8,309.2)" />
<use xlink:href="#f0_j" transform="matrix(12,0,0,12,452.9,309.2)" />
<use xlink:href="#f0_4" transform="matrix(12,0,0,12,463.2,309.2)" />
<use xlink:href="#f0_h" transform="matrix(12,0,0,12,473.8,309.2)" />
<use xlink:href="#f0_4" transform="matrix(12,0,0,12,485.2,309.2)" />
<use xlink:href="#f0_k" transform="matrix(12,0,0,12,495.8,309.2)" />
<use xlink:href="#f0_o" transform="matrix(12,0,0,12,511.3,309.2)" />
<use xlink:href="#f0_p" transform="matrix(12,0,0,12,523.6,309.2)" />
<use xlink:href="#f0_h" transform="matrix(12,0,0,12,534.4,309.2)" />
<use xlink:href="#f0_3" transform="matrix(12,0,0,12,545.9,309.2)" />
<use xlink:href="#f0_o" transform="matrix(12,0,0,12,563.6,309.2)" />
<use xlink:href="#f0_6" transform="matrix(12,0,0,12,575.8,309.2)" />
<use xlink:href="#f0_d" transform="matrix(12,0,0,12,594.6,309.2)" />
<use xlink:href="#f0_j" transform="matrix(12,0,0,12,598.7,309.2)" />
<use xlink:href="#f0_n" transform="matrix(12,0,0,12,609.1,309.2)" />
<use xlink:href="#f0_q" transform="matrix(12,0,0,12,621,309.2)" />
<use xlink:href="#f0_o" transform="matrix(12,0,0,12,639,309.2)" />
<use xlink:href="#f0_d" transform="matrix(12,0,0,12,651.2,309.2)" />
<use xlink:href="#f0_q" transform="matrix(12,0,0,12,655.4,309.2)" />
<use xlink:href="#f0_4" transform="matrix(12,0,0,12,667.6,309.2)" />
<use xlink:href="#f0_j" transform="matrix(12,0,0,12,684.1,309.2)" />
<use xlink:href="#f0_q" transform="matrix(12,0,0,12,694.4,309.2)" />
<use xlink:href="#f0_e" transform="matrix(12,0,0,12,706.7,309.2)" />
<use xlink:href="#f0_8" transform="matrix(12,0,0,12,711.6,309.2)" />
<use xlink:href="#f0_8" transform="matrix(12,0,0,12,729.4,309.2)" />
<use xlink:href="#f0_e" transform="matrix(12,0,0,12,741.5,309.2)" />
<use xlink:href="#f0_7" transform="matrix(12,0,0,12,746.5,309.2)" />
<use xlink:href="#f0_6" transform="matrix(12,0,0,12,758.9,309.2)" />
<use xlink:href="#f1_m" transform="matrix(11,0,0,11,283.7,309.2)" />
<use xlink:href="#f1_s" transform="matrix(11,0,0,11,292,309.2)" />
<use xlink:href="#f1_10" transform="matrix(11,0,0,11,296.7,309.2)" />
<use xlink:href="#f1_4" transform="matrix(11,0,0,11,305.1,309.2)" />
<use xlink:href="#f1_r" transform="matrix(11,0,0,11,317.8,309.2)" />
<use xlink:href="#f1_4" transform="matrix(11,0,0,11,326.2,309.2)" />
<use xlink:href="#f1_m" transform="matrix(11,0,0,11,334.6,309.2)" />
<use xlink:href="#f1_s" transform="matrix(11,0,0,11,342.8,309.2)" />
<use xlink:href="#f1_g" transform="matrix(11,0,0,11,347.5,309.2)" />
<use xlink:href="#f1_4" transform="matrix(11,0,0,11,352.3,309.2)" />
<use xlink:href="#f0_c" transform="matrix(12,0,0,12,278.1,309.2)" />
<use xlink:href="#f0_t" transform="matrix(12,0,0,12,293.6,330.6)" />
<use xlink:href="#f0_o" transform="matrix(12,0,0,12,299.7,330.6)" />
<use xlink:href="#f0_p" transform="matrix(12,0,0,12,311.9,330.6)" />
<use xlink:href="#f0_h" transform="matrix(12,0,0,12,322.8,330.6)" />
<use xlink:href="#f0_3" transform="matrix(12,0,0,12,334.3,330.6)" />
<use xlink:href="#f0_o" transform="matrix(12,0,0,12,354.8,330.6)" />
<use xlink:href="#f0_6" transform="matrix(12,0,0,12,366.9,330.6)" />
<use xlink:href="#f0_9" transform="matrix(12,0,0,12,379.9,330.6)" />
<use xlink:href="#f0_i" transform="matrix(12,0,0,12,399,330.6)" />
<use xlink:href="#f0_j" transform="matrix(12,0,0,12,411.9,330.6)" />
<use xlink:href="#f0_15" transform="matrix(12,0,0,12,430.9,330.6)" />
<use xlink:href="#f0_8" transform="matrix(12,0,0,12,436.7,330.6)" />
<use xlink:href="#f0_d" transform="matrix(12,0,0,12,448.7,330.6)" />
<use xlink:href="#f0_j" transform="matrix(12,0,0,12,452.8,330.6)" />
<use xlink:href="#f0_4" transform="matrix(12,0,0,12,463.2,330.6)" />
<use xlink:href="#f0_h" transform="matrix(12,0,0,12,473.7,330.6)" />
<use xlink:href="#f0_4" transform="matrix(12,0,0,12,485.2,330.6)" />
<use xlink:href="#f0_e" transform="matrix(12,0,0,12,504.3,330.6)" />
<use xlink:href="#f0_7" transform="matrix(12,0,0,12,509.3,330.6)" />
<use xlink:href="#f0_k" transform="matrix(12,0,0,12,521.8,330.6)" />
<use xlink:href="#f0_q" transform="matrix(12,0,0,12,540.1,330.6)" />
<use xlink:href="#f0_9" transform="matrix(12,0,0,12,552.3,330.6)" />
<use xlink:href="#f0_6" transform="matrix(12,0,0,12,562.7,330.6)" />
<use xlink:href="#f0_15" transform="matrix(12,0,0,12,584.2,330.6)" />
<use xlink:href="#f0_o" transform="matrix(12,0,0,12,590,330.6)" />
<use xlink:href="#f0_d" transform="matrix(12,0,0,12,602.2,330.6)" />
<use xlink:href="#f0_g" transform="matrix(12,0,0,12,606.2,330.6)" />
<use xlink:href="#f0_d" transform="matrix(12,0,0,12,617.6,330.6)" />
<use xlink:href="#f0_f" transform="matrix(12,0,0,12,621.8,330.6)" />
<use xlink:href="#f0_e" transform="matrix(12,0,0,12,633.7,330.6)" />
<use xlink:href="#f0_7" transform="matrix(12,0,0,12,638.5,330.6)" />
<use xlink:href="#f0_3" transform="matrix(12,0,0,12,659.7,330.6)" />
<use xlink:href="#f0_h" transform="matrix(12,0,0,12,671.7,330.6)" />
<use xlink:href="#f0_d" transform="matrix(12,0,0,12,683.1,330.6)" />
<use xlink:href="#f0_a" transform="matrix(12,0,0,12,687.2,330.6)" />
<use xlink:href="#f0_d" transform="matrix(12,0,0,12,697.2,330.6)" />
<use xlink:href="#f0_3" transform="matrix(12,0,0,12,701.3,330.6)" />
<use xlink:href="#f0_2" transform="matrix(12,0,0,12,721.9,330.6)" />
<use xlink:href="#f0_3" transform="matrix(12,0,0,12,726.9,330.6)" />
<use xlink:href="#f0_8" transform="matrix(12,0,0,12,747.3,330.6)" />
<use xlink:href="#f0_q" transform="matrix(12,0,0,12,759.4,330.6)" />
<use xlink:href="#f3_k" transform="matrix(12,0,0,12,272.3,330.6)" />
<use xlink:href="#f0_a" transform="matrix(12,0,0,12,247.5,330.6)" />
<use xlink:href="#f0_9" transform="matrix(12,0,0,12,257.6,330.6)" />
<use xlink:href="#f0_d" transform="matrix(12,0,0,12,267.9,330.6)" />
<use xlink:href="#f3_k" transform="matrix(12,0,0,12,226.6,330.6)" />
<use xlink:href="#f0_3" transform="matrix(12,0,0,12,198.9,330.6)" />
<use xlink:href="#f0_g" transform="matrix(12,0,0,12,210.8,330.6)" />
<use xlink:href="#f0_d" transform="matrix(12,0,0,12,222.3,330.6)" />
<use xlink:href="#f2_g" transform="matrix(11,0,0,11,137.5,330.6)" />
<use xlink:href="#f2_h" transform="matrix(11,0,0,11,148.7,330.6)" />
<use xlink:href="#f1_m" transform="matrix(11,0,0,11,160.2,330.6)" />
<use xlink:href="#f1_s" transform="matrix(11,0,0,11,168.6,330.6)" />
<use xlink:href="#f1_10" transform="matrix(11,0,0,11,173.4,330.6)" />
<use xlink:href="#f1_4" transform="matrix(11,0,0,11,181.8,330.6)" />
<use xlink:href="#f1_r" transform="matrix(11,0,0,11,729.1,352)" />
<use xlink:href="#f1_4" transform="matrix(11,0,0,11,737.5,352)" />
<use xlink:href="#f1_m" transform="matrix(11,0,0,11,745.9,352)" />
<use xlink:href="#f1_s" transform="matrix(11,0,0,11,754.1,352)" />
<use xlink:href="#f1_g" transform="matrix(11,0,0,11,758.8,352)" />
<use xlink:href="#f1_4" transform="matrix(11,0,0,11,763.6,352)" />
<use xlink:href="#f0_q" transform="matrix(12,0,0,12,695.8,352)" />
<use xlink:href="#f0_9" transform="matrix(12,0,0,12,708,352)" />
<use xlink:href="#f0_e" transform="matrix(12,0,0,12,718.4,352)" />
<use xlink:href="#f2_g" transform="matrix(11,0,0,11,652.7,373.4)" />
<use xlink:href="#f2_h" transform="matrix(11,0,0,11,663.8,373.4)" />
</g>
</g>
<path d="M652.7,368.7h15.9" class="g1_3" />
<g clip-path="url(#c0_3)">
<g fill="#000000" >
<use xlink:href="#f1_m" transform="matrix(11,0,0,11,672.8,373.4)" />
<use xlink:href="#f1_s" transform="matrix(11,0,0,11,681.1,373.4)" />
<use xlink:href="#f1_10" transform="matrix(11,0,0,11,685.8,373.4)" />
<use xlink:href="#f1_4" transform="matrix(11,0,0,11,694.2,373.4)" />
</g>
</g>
<path d="M668.6,368.7h38.3" class="g1_3" />
<g clip-path="url(#c0_3)">
<g fill="#000000" >
<use xlink:href="#f2_u" transform="matrix(11,0,0,11,706.9,373.4)" />
<use xlink:href="#f2_h" transform="matrix(11,0,0,11,714.2,373.4)" />
</g>
</g>
<path d="M706.9,368.7H719" class="g1_3" />
<g clip-path="url(#c0_3)">
<g fill="#000000" >
<use xlink:href="#f1_r" transform="matrix(11,0,0,11,723.2,373.4)" />
<use xlink:href="#f1_4" transform="matrix(11,0,0,11,731.6,373.4)" />
<use xlink:href="#f1_m" transform="matrix(11,0,0,11,740,373.4)" />
<use xlink:href="#f1_s" transform="matrix(11,0,0,11,748.3,373.4)" />
<use xlink:href="#f1_g" transform="matrix(11,0,0,11,753,373.4)" />
<use xlink:href="#f1_4" transform="matrix(11,0,0,11,757.7,373.4)" />
</g>
</g>
<path d="M719,368.7h47.2" class="g1_3" />
<g clip-path="url(#c0_3)">
<g fill="#000000" >
<use xlink:href="#f0_t" transform="matrix(12,0,0,12,552,373.4)" />
<use xlink:href="#f0_q" transform="matrix(12,0,0,12,558.1,373.4)" />
<use xlink:href="#f0_7" transform="matrix(12,0,0,12,570.3,373.4)" />
<use xlink:href="#f0_r" transform="matrix(12,0,0,12,582.8,373.4)" />
<use xlink:href="#f0_e" transform="matrix(12,0,0,12,590.3,373.4)" />
<use xlink:href="#f0_a" transform="matrix(12,0,0,12,595.3,373.4)" />
<use xlink:href="#f0_9" transform="matrix(12,0,0,12,605.2,373.4)" />
<use xlink:href="#f0_s" transform="matrix(12,0,0,12,621.6,373.4)" />
<use xlink:href="#f0_k" transform="matrix(12,0,0,12,631.4,373.4)" />
<use xlink:href="#f0_c" transform="matrix(12,0,0,12,646.9,373.4)" />
<use xlink:href="#f3_k" transform="matrix(12,0,0,12,533.7,373.4)" />
<use xlink:href="#f0_a" transform="matrix(12,0,0,12,508.9,373.4)" />
<use xlink:href="#f0_9" transform="matrix(12,0,0,12,519,373.4)" />
<use xlink:href="#f0_d" transform="matrix(12,0,0,12,529.4,373.4)" />
<use xlink:href="#f3_k" transform="matrix(12,0,0,12,490.7,373.4)" />
<use xlink:href="#f0_t" transform="matrix(12,0,0,12,389.7,373.4)" />
<use xlink:href="#f0_a" transform="matrix(12,0,0,12,395.8,373.4)" />
<use xlink:href="#f0_e" transform="matrix(12,0,0,12,405.9,373.4)" />
<use xlink:href="#f0_a" transform="matrix(12,0,0,12,410.8,373.4)" />
<use xlink:href="#f0_q" transform="matrix(12,0,0,12,426.8,373.4)" />
<use xlink:href="#f0_e" transform="matrix(12,0,0,12,439,373.4)" />
<use xlink:href="#f0_3" transform="matrix(12,0,0,12,444.1,373.4)" />
<use xlink:href="#f0_3" transform="matrix(12,0,0,12,461.8,373.4)" />
<use xlink:href="#f0_l" transform="matrix(12,0,0,12,473.7,373.4)" />
<use xlink:href="#f0_j" transform="matrix(12,0,0,12,480.1,373.4)" />
<use xlink:href="#f2_g" transform="matrix(11,0,0,11,601,394.8)" />
<use xlink:href="#f2_h" transform="matrix(11,0,0,11,612.2,394.8)" />
<use xlink:href="#f1_m" transform="matrix(11,0,0,11,621.2,394.8)" />
<use xlink:href="#f1_s" transform="matrix(11,0,0,11,629.4,394.8)" />
<use xlink:href="#f1_10" transform="matrix(11,0,0,11,634.2,394.8)" />
<use xlink:href="#f1_4" transform="matrix(11,0,0,11,642.6,394.8)" />
<use xlink:href="#f1_q" transform="matrix(11,0,0,11,655.2,394.8)" />
<use xlink:href="#f1_e" transform="matrix(11,0,0,11,663.6,394.8)" />
<use xlink:href="#f1_5" transform="matrix(11,0,0,11,671,394.8)" />
<use xlink:href="#f1_y" transform="matrix(11,0,0,11,675.7,394.8)" />
<use xlink:href="#f1_6" transform="matrix(11,0,0,11,684.1,394.8)" />
<use xlink:href="#f1_q" transform="matrix(11,0,0,11,691.6,394.8)" />
<use xlink:href="#f1_4" transform="matrix(11,0,0,11,700,394.8)" />
<use xlink:href="#f1_e" transform="matrix(11,0,0,11,712.6,394.8)" />
<use xlink:href="#f1_f" transform="matrix(11,0,0,11,720,394.8)" />
<use xlink:href="#f1_18" transform="matrix(11,0,0,11,730.8,394.8)" />
<use xlink:href="#f1_6" transform="matrix(11,0,0,11,742.8,394.8)" />
<use xlink:href="#f1_v" transform="matrix(11,0,0,11,750.3,394.8)" />
<use xlink:href="#f1_s" transform="matrix(11,0,0,11,758.7,394.8)" />
<use xlink:href="#f1_q" transform="matrix(11,0,0,11,763.4,394.8)" />
<use xlink:href="#f0_c" transform="matrix(12,0,0,12,595.4,394.8)" />
<use xlink:href="#f3_7" transform="matrix(12,0,0,12,701.6,437.1)" />
<use xlink:href="#f3_c" transform="matrix(12,0,0,12,714.1,437.1)" />
<use xlink:href="#f3_b" transform="matrix(12,0,0,12,720.3,437.1)" />
<use xlink:href="#f3_l" transform="matrix(12,0,0,12,733.6,437.1)" />
<use xlink:href="#f3_i" transform="matrix(12,0,0,12,746.9,437.1)" />
<use xlink:href="#f3_c" transform="matrix(12,0,0,12,755,437.1)" />
<use xlink:href="#f3_9" transform="matrix(12,0,0,12,761.3,437.1)" />
<use xlink:href="#f4_2" transform="matrix(13,0,0,13,560.1,437.1)" />
<use xlink:href="#f4_3" transform="matrix(13,0,0,13,575.2,437.1)" />
<use xlink:href="#f4_4" transform="matrix(13,0,0,13,582.4,437.1)" />
<use xlink:href="#f4_5" transform="matrix(13,0,0,13,595,437.1)" />
<use xlink:href="#f4_6" transform="matrix(13,0,0,13,616.1,437.1)" />
<use xlink:href="#f4_7" transform="matrix(13,0,0,13,630,437.1)" />
<use xlink:href="#f4_8" transform="matrix(13,0,0,13,637.5,437.1)" />
<use xlink:href="#f4_9" transform="matrix(13,0,0,13,650.7,437.1)" />
</g>
</g>
<path d="M128.6,461.5H782.9M128.6,615.2H782.9M128.6,656.6H782.9M128.6,847.4H782.9M128.6,888.9H782.9M128.9,461.1V889.3M346.8,461.1V889.3M564.7,461.1V889.3M782.5,461.1V889.3" class="g2_3" />
<g clip-path="url(#c0_3)">
<g fill="#000000" >
<use xlink:href="#f1_z" transform="matrix(11,0,0,11,660.8,631.1)" />
<use xlink:href="#f1_5" transform="matrix(11,0,0,11,671,631.1)" />
<use xlink:href="#f1_x" transform="matrix(11,0,0,11,680,631.1)" />
<use xlink:href="#f1_e" transform="matrix(11,0,0,11,688.2,631.1)" />
<use xlink:href="#f1_u" transform="matrix(11,0,0,11,695.7,631.1)" />
<use xlink:href="#f1_u" transform="matrix(11,0,0,11,701.3,631.1)" />
<use xlink:href="#f1_4" transform="matrix(11,0,0,11,707,631.1)" />
<use xlink:href="#f1_e" transform="matrix(11,0,0,11,719.5,631.1)" />
<use xlink:href="#f1_r" transform="matrix(11,0,0,11,731.2,631.1)" />
<use xlink:href="#f1_4" transform="matrix(11,0,0,11,739.6,631.1)" />
<use xlink:href="#f1_m" transform="matrix(11,0,0,11,748,631.1)" />
<use xlink:href="#f1_s" transform="matrix(11,0,0,11,756.3,631.1)" />
<use xlink:href="#f1_g" transform="matrix(11,0,0,11,761,631.1)" />
<use xlink:href="#f1_4" transform="matrix(11,0,0,11,765.7,631.1)" />
<use xlink:href="#f0_3" transform="matrix(12,0,0,12,657.6,651.9)" />
<use xlink:href="#f0_g" transform="matrix(12,0,0,12,669.5,651.9)" />
<use xlink:href="#f0_d" transform="matrix(12,0,0,12,680.9,651.9)" />
<use xlink:href="#f0_q" transform="matrix(12,0,0,12,690.8,651.9)" />
<use xlink:href="#f0_e" transform="matrix(12,0,0,12,703.1,651.9)" />
<use xlink:href="#f0_3" transform="matrix(12,0,0,12,708.1,651.9)" />
<use xlink:href="#f0_4" transform="matrix(12,0,0,12,731.9,651.9)" />
<use xlink:href="#f0_9" transform="matrix(12,0,0,12,742.4,651.9)" />
<use xlink:href="#f0_k" transform="matrix(12,0,0,12,752.8,651.9)" />
<use xlink:href="#f0_3" transform="matrix(12,0,0,12,762.4,651.9)" />
<use xlink:href="#f1_12" transform="matrix(11,0,0,11,458.8,631.1)" />
<use xlink:href="#f1_6" transform="matrix(11,0,0,11,469,631.1)" />
<use xlink:href="#f1_m" transform="matrix(11,0,0,11,480.8,631.1)" />
<use xlink:href="#f1_s" transform="matrix(11,0,0,11,489,631.1)" />
<use xlink:href="#f1_10" transform="matrix(11,0,0,11,493.7,631.1)" />
<use xlink:href="#f1_6" transform="matrix(11,0,0,11,502.1,631.1)" />
<use xlink:href="#f1_e" transform="matrix(11,0,0,11,513.9,631.1)" />
<use xlink:href="#f1_f" transform="matrix(11,0,0,11,521.2,631.1)" />
<use xlink:href="#f1_6" transform="matrix(11,0,0,11,532,631.1)" />
<use xlink:href="#f1_5" transform="matrix(11,0,0,11,539.3,631.1)" />
<use xlink:href="#f1_g" transform="matrix(11,0,0,11,544.1,631.1)" />
<use xlink:href="#f1_6" transform="matrix(11,0,0,11,548.8,631.1)" />
<use xlink:href="#f0_3" transform="matrix(12,0,0,12,455.4,651.9)" />
<use xlink:href="#f0_3" transform="matrix(12,0,0,12,467.3,651.9)" />
<use xlink:href="#f0_e" transform="matrix(12,0,0,12,479.3,651.9)" />
<use xlink:href="#f0_4" transform="matrix(12,0,0,12,484.3,651.9)" />
<use xlink:href="#f0_r" transform="matrix(12,0,0,12,494.8,651.9)" />
<use xlink:href="#f0_3" transform="matrix(12,0,0,12,508.1,651.9)" />
<use xlink:href="#f0_a" transform="matrix(12,0,0,12,520,651.9)" />
<use xlink:href="#f0_9" transform="matrix(12,0,0,12,530.1,651.9)" />
<use xlink:href="#f0_d" transform="matrix(12,0,0,12,540.5,651.9)" />
<use xlink:href="#f0_3" transform="matrix(12,0,0,12,544.6,651.9)" />
<use xlink:href="#f1_z" transform="matrix(11,0,0,11,224.1,631.1)" />
<use xlink:href="#f1_5" transform="matrix(11,0,0,11,234.4,631.1)" />
<use xlink:href="#f1_c" transform="matrix(11,0,0,11,243.4,631.1)" />
<use xlink:href="#f1_l" transform="matrix(11,0,0,11,256.3,631.1)" />
<use xlink:href="#f1_f" transform="matrix(11,0,0,11,264.7,631.1)" />
<use xlink:href="#f1_e" transform="matrix(11,0,0,11,271.3,631.1)" />
<use xlink:href="#f1_4" transform="matrix(11,0,0,11,278.8,631.1)" />
<use xlink:href="#f1_e" transform="matrix(11,0,0,11,291.3,631.1)" />
<use xlink:href="#f1_f" transform="matrix(11,0,0,11,298.7,631.1)" />
<use xlink:href="#f1_16" transform="matrix(11,0,0,11,309.4,631.1)" />
<use xlink:href="#f1_6" transform="matrix(11,0,0,11,316.9,631.1)" />
<use xlink:href="#f1_u" transform="matrix(11,0,0,11,324.3,631.1)" />
<use xlink:href="#f1_4" transform="matrix(11,0,0,11,330,631.1)" />
<use xlink:href="#f0_j" transform="matrix(12,0,0,12,208.2,651.9)" />
<use xlink:href="#f0_i" transform="matrix(12,0,0,12,218.6,651.9)" />
<use xlink:href="#f0_d" transform="matrix(12,0,0,12,231.6,651.9)" />
<use xlink:href="#f0_q" transform="matrix(12,0,0,12,241.5,651.9)" />
<use xlink:href="#f0_e" transform="matrix(12,0,0,12,253.7,651.9)" />
<use xlink:href="#f0_3" transform="matrix(12,0,0,12,258.8,651.9)" />
<use xlink:href="#f0_m" transform="matrix(12,0,0,12,276.6,651.9)" />
<use xlink:href="#f0_e" transform="matrix(12,0,0,12,281.5,651.9)" />
<use xlink:href="#f0_q" transform="matrix(12,0,0,12,286.5,651.9)" />
<use xlink:href="#f0_d" transform="matrix(12,0,0,12,298.8,651.9)" />
<use xlink:href="#f0_l" transform="matrix(12,0,0,12,302.9,651.9)" />
<use xlink:href="#f0_e" transform="matrix(12,0,0,12,309.3,651.9)" />
<use xlink:href="#f0_7" transform="matrix(12,0,0,12,314.2,651.9)" />
<use xlink:href="#f0_3" transform="matrix(12,0,0,12,326.7,651.9)" />
<use xlink:href="#f1_12" transform="matrix(11,0,0,11,590.3,863.5)" />
<use xlink:href="#f1_6" transform="matrix(11,0,0,11,600.6,863.5)" />
<use xlink:href="#f1_13" transform="matrix(11,0,0,11,612.3,863.5)" />
<use xlink:href="#f1_e" transform="matrix(11,0,0,11,620.7,863.5)" />
<use xlink:href="#f1_u" transform="matrix(11,0,0,11,628,863.5)" />
<use xlink:href="#f1_c" transform="matrix(11,0,0,11,633.7,863.5)" />
<use xlink:href="#f1_6" transform="matrix(11,0,0,11,646.8,863.5)" />
<use xlink:href="#f1_m" transform="matrix(11,0,0,11,654.2,863.5)" />
<use xlink:href="#f1_6" transform="matrix(11,0,0,11,662.6,863.5)" />
<use xlink:href="#f1_r" transform="matrix(11,0,0,11,674.2,863.5)" />
<use xlink:href="#f1_4" transform="matrix(11,0,0,11,682.6,863.5)" />
<use xlink:href="#f1_m" transform="matrix(11,0,0,11,691,863.5)" />
<use xlink:href="#f1_s" transform="matrix(11,0,0,11,699.4,863.5)" />
<use xlink:href="#f1_g" transform="matrix(11,0,0,11,704,863.5)" />
<use xlink:href="#f1_6" transform="matrix(11,0,0,11,708.7,863.5)" />
<use xlink:href="#f1_e" transform="matrix(11,0,0,11,720.5,863.5)" />
<use xlink:href="#f1_f" transform="matrix(11,0,0,11,727.8,863.5)" />
<use xlink:href="#f1_18" transform="matrix(11,0,0,11,738.6,863.5)" />
<use xlink:href="#f1_6" transform="matrix(11,0,0,11,750.7,863.5)" />
<use xlink:href="#f1_m" transform="matrix(11,0,0,11,758.2,863.5)" />
<use xlink:href="#f1_6" transform="matrix(11,0,0,11,766.6,863.5)" />
<use xlink:href="#f0_3" transform="matrix(12,0,0,12,606.5,884.1)" />
<use xlink:href="#f0_b" transform="matrix(12,0,0,12,618.4,884.1)" />
<use xlink:href="#f0_a" transform="matrix(12,0,0,12,625.8,884.1)" />
<use xlink:href="#f0_q" transform="matrix(12,0,0,12,641.8,884.1)" />
<use xlink:href="#f0_d" transform="matrix(12,0,0,12,654,884.1)" />
<use xlink:href="#f0_3" transform="matrix(12,0,0,12,658.1,884.1)" />
<use xlink:href="#f0_3" transform="matrix(12,0,0,12,675.8,884.1)" />
<use xlink:href="#f0_g" transform="matrix(12,0,0,12,687.8,884.1)" />
<use xlink:href="#f0_d" transform="matrix(12,0,0,12,699.2,884.1)" />
<use xlink:href="#f0_3" transform="matrix(12,0,0,12,703.3,884.1)" />
<use xlink:href="#f0_8" transform="matrix(12,0,0,12,721.2,884.1)" />
<use xlink:href="#f0_e" transform="matrix(12,0,0,12,733.2,884.1)" />
<use xlink:href="#f0_n" transform="matrix(12,0,0,12,738.2,884.1)" />
<use xlink:href="#f0_q" transform="matrix(12,0,0,12,750.2,884.1)" />
<use xlink:href="#f0_3" transform="matrix(12,0,0,12,762.4,884.1)" />
<use xlink:href="#f1_z" transform="matrix(11,0,0,11,386.4,863.5)" />
<use xlink:href="#f1_5" transform="matrix(11,0,0,11,396.6,863.5)" />
<use xlink:href="#f1_m" transform="matrix(11,0,0,11,405.6,863.5)" />
<use xlink:href="#f1_s" transform="matrix(11,0,0,11,413.9,863.5)" />
<use xlink:href="#f1_10" transform="matrix(11,0,0,11,418.6,863.5)" />
<use xlink:href="#f1_4" transform="matrix(11,0,0,11,427,863.5)" />
<use xlink:href="#f1_f" transform="matrix(11,0,0,11,439.6,863.5)" />
<use xlink:href="#f1_s" transform="matrix(11,0,0,11,446.1,863.5)" />
<use xlink:href="#f1_c" transform="matrix(11,0,0,11,450.8,863.5)" />
<use xlink:href="#f1_x" transform="matrix(11,0,0,11,463.9,863.5)" />
<use xlink:href="#f1_h" transform="matrix(11,0,0,11,472.2,863.5)" />
<use xlink:href="#f1_g" transform="matrix(11,0,0,11,479.6,863.5)" />
<use xlink:href="#f1_s" transform="matrix(11,0,0,11,484.4,863.5)" />
<use xlink:href="#f1_16" transform="matrix(11,0,0,11,488.9,863.5)" />
<use xlink:href="#f1_4" transform="matrix(11,0,0,11,496.4,863.5)" />
<use xlink:href="#f1_e" transform="matrix(11,0,0,11,509.1,863.5)" />
<use xlink:href="#f1_f" transform="matrix(11,0,0,11,516.5,863.5)" />
<use xlink:href="#f1_r" transform="matrix(11,0,0,11,527.2,863.5)" />
<use xlink:href="#f1_6" transform="matrix(11,0,0,11,535.6,863.5)" />
<use xlink:href="#f1_14" transform="matrix(11,0,0,11,543.1,863.5)" />
<use xlink:href="#f1_4" transform="matrix(11,0,0,11,547.8,863.5)" />
<use xlink:href="#f0_s" transform="matrix(12,0,0,12,370.9,884.1)" />
<use xlink:href="#f0_e" transform="matrix(12,0,0,12,380.7,884.1)" />
<use xlink:href="#f0_7" transform="matrix(12,0,0,12,385.7,884.1)" />
<use xlink:href="#f0_b" transform="matrix(12,0,0,12,398.1,884.1)" />
<use xlink:href="#f0_q" transform="matrix(12,0,0,12,411.4,884.1)" />
<use xlink:href="#f0_e" transform="matrix(12,0,0,12,423.6,884.1)" />
<use xlink:href="#f0_3" transform="matrix(12,0,0,12,428.6,884.1)" />
<use xlink:href="#f0_d" transform="matrix(12,0,0,12,446.4,884.1)" />
<use xlink:href="#f0_z" transform="matrix(12,0,0,12,450.5,884.1)" />
<use xlink:href="#f0_g" transform="matrix(12,0,0,12,462.4,884.1)" />
<use xlink:href="#f0_7" transform="matrix(12,0,0,12,473.8,884.1)" />
<use xlink:href="#f0_d" transform="matrix(12,0,0,12,486.2,884.1)" />
<use xlink:href="#f0_f" transform="matrix(12,0,0,12,490.3,884.1)" />
<use xlink:href="#f0_3" transform="matrix(12,0,0,12,502.2,884.1)" />
<use xlink:href="#f0_a" transform="matrix(12,0,0,12,519.9,884.1)" />
<use xlink:href="#f0_9" transform="matrix(12,0,0,12,530,884.1)" />
<use xlink:href="#f0_d" transform="matrix(12,0,0,12,540.4,884.1)" />
<use xlink:href="#f0_3" transform="matrix(12,0,0,12,544.5,884.1)" />
<use xlink:href="#f1_z" transform="matrix(11,0,0,11,191.9,863.5)" />
<use xlink:href="#f1_5" transform="matrix(11,0,0,11,202.1,863.5)" />
<use xlink:href="#f1_c" transform="matrix(11,0,0,11,211.1,863.5)" />
<use xlink:href="#f1_6" transform="matrix(11,0,0,11,224.1,863.5)" />
<use xlink:href="#f1_x" transform="matrix(11,0,0,11,231.6,863.5)" />
<use xlink:href="#f1_6" transform="matrix(11,0,0,11,240,863.5)" />
<use xlink:href="#f1_e" transform="matrix(11,0,0,11,251.5,863.5)" />
<use xlink:href="#f1_f" transform="matrix(11,0,0,11,259,863.5)" />
<use xlink:href="#f1_19" transform="matrix(11,0,0,11,269.7,863.5)" />
<use xlink:href="#f1_q" transform="matrix(11,0,0,11,275.3,863.5)" />
<use xlink:href="#f1_e" transform="matrix(11,0,0,11,283.7,863.5)" />
<use xlink:href="#f1_1a" transform="matrix(11,0,0,11,291.2,863.5)" />
<use xlink:href="#f1_1b" transform="matrix(11,0,0,11,300.9,863.5)" />
<use xlink:href="#f1_f" transform="matrix(11,0,0,11,306.6,863.5)" />
<use xlink:href="#f1_u" transform="matrix(11,0,0,11,313,863.5)" />
<use xlink:href="#f1_6" transform="matrix(11,0,0,11,318.6,863.5)" />
<use xlink:href="#f1_e" transform="matrix(11,0,0,11,326.1,863.5)" />
<use xlink:href="#f1_5" transform="matrix(11,0,0,11,333.5,863.5)" />
<use xlink:href="#f0_9" transform="matrix(12,0,0,12,152.9,884.1)" />
<use xlink:href="#f0_q" transform="matrix(12,0,0,12,163.3,884.1)" />
<use xlink:href="#f0_j" transform="matrix(12,0,0,12,175.6,884.1)" />
<use xlink:href="#f0_6" transform="matrix(12,0,0,12,185.9,884.1)" />
<use xlink:href="#f0_d" transform="matrix(12,0,0,12,198.9,884.1)" />
<use xlink:href="#f0_9" transform="matrix(12,0,0,12,208.8,884.1)" />
<use xlink:href="#f0_6" transform="matrix(12,0,0,12,219.2,884.1)" />
<use xlink:href="#f0_1m" transform="matrix(12,0,0,12,232.2,884.1)" />
<use xlink:href="#f0_7" transform="matrix(12,0,0,12,238.3,884.1)" />
<use xlink:href="#f0_q" transform="matrix(12,0,0,12,256.8,884.1)" />
<use xlink:href="#f0_d" transform="matrix(12,0,0,12,269,884.1)" />
<use xlink:href="#f0_3" transform="matrix(12,0,0,12,273.1,884.1)" />
<use xlink:href="#f0_3" transform="matrix(12,0,0,12,290.8,884.1)" />
<use xlink:href="#f0_g" transform="matrix(12,0,0,12,302.7,884.1)" />
<use xlink:href="#f0_7" transform="matrix(12,0,0,12,314.2,884.1)" />
<use xlink:href="#f0_3" transform="matrix(12,0,0,12,326.7,884.1)" />
<use xlink:href="#f3_g" transform="matrix(12,0,0,12,739.6,925.7)" />
<use xlink:href="#f3_g" transform="matrix(12,0,0,12,750.7,925.7)" />
<use xlink:href="#f3_h" transform="matrix(12,0,0,12,761.7,925.7)" />
</g>
</g>
<path d="M733.2,927.5h38.9" class="g3_3" />
<g clip-path="url(#c0_3)">
<g fill="#000000" >
<use xlink:href="#f3_m" transform="matrix(12,0,0,12,720.2,925.7)" />
</g>
</g>
<path d="M720.2,927.5h12.7" class="g3_3" />
<g clip-path="url(#c0_3)">
<g fill="#000000" >
<use xlink:href="#f0_8" transform="matrix(12,0,0,12,721.7,947.1)" />
<use xlink:href="#f0_e" transform="matrix(12,0,0,12,733.8,947.1)" />
<use xlink:href="#f0_7" transform="matrix(12,0,0,12,738.7,947.1)" />
<use xlink:href="#f0_e" transform="matrix(12,0,0,12,751.2,947.1)" />
<use xlink:href="#f0_d" transform="matrix(12,0,0,12,756.2,947.1)" />
<use xlink:href="#f0_f" transform="matrix(12,0,0,12,760.2,947.1)" />
<use xlink:href="#f2_v" transform="matrix(11,0,0,11,623.9,947.1)" />
<use xlink:href="#f2_w" transform="matrix(11,0,0,11,633.1,947.1)" />
<use xlink:href="#f2_k" transform="matrix(11,0,0,11,641.6,947.1)" />
<use xlink:href="#f2_w" transform="matrix(11,0,0,11,649.9,947.1)" />
<use xlink:href="#f2_o" transform="matrix(11,0,0,11,658.4,947.1)" />
<use xlink:href="#f2_w" transform="matrix(11,0,0,11,665.8,947.1)" />
<use xlink:href="#f2_x" transform="matrix(11,0,0,11,674.3,947.1)" />
<use xlink:href="#f2_j" transform="matrix(11,0,0,11,688.2,947.1)" />
<use xlink:href="#f2_w" transform="matrix(11,0,0,11,696.6,947.1)" />
<use xlink:href="#f2_h" transform="matrix(11,0,0,11,705,947.1)" />
<use xlink:href="#f0_c" transform="matrix(12,0,0,12,569.3,947.1)" />
<use xlink:href="#f0_j" transform="matrix(12,0,0,12,575.1,947.1)" />
<use xlink:href="#f0_k" transform="matrix(12,0,0,12,585.4,947.1)" />
<use xlink:href="#f0_l" transform="matrix(12,0,0,12,595.1,947.1)" />
<use xlink:href="#f0_9" transform="matrix(12,0,0,12,601.5,947.1)" />
<use xlink:href="#f0_8" transform="matrix(12,0,0,12,721.7,968.5)" />
<use xlink:href="#f0_e" transform="matrix(12,0,0,12,733.8,968.5)" />
<use xlink:href="#f0_7" transform="matrix(12,0,0,12,738.7,968.5)" />
<use xlink:href="#f0_e" transform="matrix(12,0,0,12,751.2,968.5)" />
<use xlink:href="#f0_d" transform="matrix(12,0,0,12,756.2,968.5)" />
<use xlink:href="#f0_f" transform="matrix(12,0,0,12,760.2,968.5)" />
<use xlink:href="#f2_y" transform="matrix(11,0,0,11,614.8,968.5)" />
<use xlink:href="#f2_w" transform="matrix(11,0,0,11,624.1,968.5)" />
<use xlink:href="#f2_p" transform="matrix(11,0,0,11,632.5,968.5)" />
<use xlink:href="#f2_r" transform="matrix(11,0,0,11,640,968.5)" />
<use xlink:href="#f2_z" transform="matrix(11,0,0,11,644.7,968.5)" />
<use xlink:href="#f2_v" transform="matrix(11,0,0,11,653.1,968.5)" />
<use xlink:href="#f2_w" transform="matrix(11,0,0,11,662.4,968.5)" />
<use xlink:href="#f2_11" transform="matrix(11,0,0,11,670.8,968.5)" />
<use xlink:href="#f2_r" transform="matrix(11,0,0,11,677.3,968.5)" />
<use xlink:href="#f2_z" transform="matrix(11,0,0,11,681.9,968.5)" />
<use xlink:href="#f2_v" transform="matrix(11,0,0,11,690.3,968.5)" />
<use xlink:href="#f2_w" transform="matrix(11,0,0,11,699.7,968.5)" />
<use xlink:href="#f2_12" transform="matrix(11,0,0,11,708.2,968.5)" />
<use xlink:href="#f0_c" transform="matrix(12,0,0,12,550.2,968.5)" />
<use xlink:href="#f0_3" transform="matrix(12,0,0,12,556,968.5)" />
<use xlink:href="#f0_4" transform="matrix(12,0,0,12,567.9,968.5)" />
<use xlink:href="#f0_i" transform="matrix(12,0,0,12,578.4,968.5)" />
<use xlink:href="#f0_b" transform="matrix(12,0,0,12,591.4,968.5)" />
<use xlink:href="#f0_9" transform="matrix(12,0,0,12,598.7,968.5)" />
</g>
</g>
<path d="M132.1,992.8h640m-640,37.2h640m-640,50.9h640m-640,50.9h640M132.6,992.1v140.2M316.7,1029.4v102.9M446.6,992.1v140.2M609.1,1029.4v102.9M771.5,992.1v140.2" class="g4_3" />
<g clip-path="url(#c0_3)">
<g fill="#000000" >
<use xlink:href="#f0_j" transform="matrix(12,0,0,12,736.8,1010.3)" />
<use xlink:href="#f0_k" transform="matrix(12,0,0,12,747.2,1010.3)" />
<use xlink:href="#f0_l" transform="matrix(12,0,0,12,756.8,1010.3)" />
<use xlink:href="#f0_3" transform="matrix(12,0,0,12,395.7,1010.3)" />
<use xlink:href="#f0_4" transform="matrix(12,0,0,12,407.6,1010.3)" />
<use xlink:href="#f0_i" transform="matrix(12,0,0,12,418.2,1010.3)" />
<use xlink:href="#f0_b" transform="matrix(12,0,0,12,431.1,1010.3)" />
<use xlink:href="#f0_m" transform="matrix(12,0,0,12,653.4,1047.6)" />
<use xlink:href="#f0_w" transform="matrix(12,0,0,12,657.9,1047.6)" />
<use xlink:href="#f0_g" transform="matrix(12,0,0,12,658.5,1047.6)" />
<use xlink:href="#f0_9" transform="matrix(12,0,0,12,675.7,1047.6)" />
<use xlink:href="#f0_q" transform="matrix(12,0,0,12,686.1,1047.6)" />
<use xlink:href="#f0_1b" transform="matrix(12,0,0,12,704.3,1047.6)" />
<use xlink:href="#f0_o" transform="matrix(12,0,0,12,716.8,1047.6)" />
<use xlink:href="#f0_11" transform="matrix(12,0,0,12,729.3,1047.6)" />
<use xlink:href="#f0_n" transform="matrix(12,0,0,12,729,1047.6)" />
<use xlink:href="#f0_11" transform="matrix(12,0,0,12,739.4,1047.6)" />
<use xlink:href="#f0_9" transform="matrix(12,0,0,12,740.9,1047.6)" />
<use xlink:href="#f0_w" transform="matrix(12,0,0,12,751.5,1047.6)" />
<use xlink:href="#f0_3" transform="matrix(12,0,0,12,751.2,1047.6)" />
<use xlink:href="#f2_v" transform="matrix(11,0,0,11,455.6,1046.2)" />
<use xlink:href="#f1_1c" transform="matrix(11,0,0,11,464.9,1046.2)" />
<use xlink:href="#f1_e" transform="matrix(11,0,0,11,498.9,1046.2)" />
<use xlink:href="#f1_5" transform="matrix(11,0,0,11,506.2,1046.2)" />
<use xlink:href="#f1_x" transform="matrix(11,0,0,11,515.2,1046.2)" />
<use xlink:href="#f1_6" transform="matrix(11,0,0,11,523.6,1046.2)" />
<use xlink:href="#f2_v" transform="matrix(11,0,0,11,531.2,1046.2)" />
<use xlink:href="#f0_3" transform="matrix(12,0,0,12,325.7,1047.6)" />
<use xlink:href="#f0_9" transform="matrix(12,0,0,12,337.6,1047.6)" />
<use xlink:href="#f0_1b" transform="matrix(12,0,0,12,371.1,1047.6)" />
<use xlink:href="#f0_j" transform="matrix(12,0,0,12,400.5,1047.6)" />
<use xlink:href="#f0_d" transform="matrix(12,0,0,12,410.9,1047.6)" />
<use xlink:href="#f0_h" transform="matrix(12,0,0,12,415,1047.6)" />
<use xlink:href="#f0_3" transform="matrix(12,0,0,12,426.4,1047.6)" />
<use xlink:href="#f0_a" transform="matrix(12,0,0,12,397.5,1069)" />
<use xlink:href="#f0_w" transform="matrix(12,0,0,12,408.4,1069)" />
<use xlink:href="#f0_a" transform="matrix(12,0,0,12,407.4,1069)" />
<use xlink:href="#f0_12" transform="matrix(12,0,0,12,412,1066.8)" />
<use xlink:href="#f0_e" transform="matrix(12,0,0,12,417.5,1069)" />
<use xlink:href="#f0_d" transform="matrix(12,0,0,12,422.6,1069)" />
<use xlink:href="#f0_13" transform="matrix(12,0,0,12,427.7,1069)" />
<use xlink:href="#f0_f" transform="matrix(12,0,0,12,426.5,1069)" />
<use xlink:href="#f2_y" transform="matrix(11,0,0,11,141.5,1046.2)" />
<use xlink:href="#f1_1c" transform="matrix(11,0,0,11,150.8,1046.2)" />
<use xlink:href="#f1_5" transform="matrix(11,0,0,11,193.2,1046.2)" />
<use xlink:href="#f1_6" transform="matrix(11,0,0,11,197.9,1046.2)" />
<use xlink:href="#f1_16" transform="matrix(11,0,0,11,209.5,1046.2)" />
<use xlink:href="#f1_s" transform="matrix(11,0,0,11,216.9,1046.2)" />
<use xlink:href="#f1_l" transform="matrix(11,0,0,11,221.7,1046.2)" />
<use xlink:href="#f1_q" transform="matrix(11,0,0,11,230.1,1046.2)" />
<use xlink:href="#f1_6" transform="matrix(11,0,0,11,238.5,1046.2)" />
<use xlink:href="#f2_y" transform="matrix(11,0,0,11,246.1,1046.2)" />
<use xlink:href="#f0_j" transform="matrix(12,0,0,12,665.3,1098.5)" />
<use xlink:href="#f0_w" transform="matrix(12,0,0,12,676.8,1098.5)" />
<use xlink:href="#f0_7" transform="matrix(12,0,0,12,675.7,1098.5)" />
<use xlink:href="#f0_9" transform="matrix(12,0,0,12,694,1098.5)" />
<use xlink:href="#f0_q" transform="matrix(12,0,0,12,704.4,1098.5)" />
<use xlink:href="#f0_1b" transform="matrix(12,0,0,12,722.6,1098.5)" />
<use xlink:href="#f0_o" transform="matrix(12,0,0,12,735,1098.5)" />
<use xlink:href="#f0_d" transform="matrix(12,0,0,12,747.2,1098.5)" />
<use xlink:href="#f0_3" transform="matrix(12,0,0,12,751.3,1098.5)" />
<use xlink:href="#f2_o" transform="matrix(11,0,0,11,455.6,1097.1)" />
<use xlink:href="#f1_1c" transform="matrix(11,0,0,11,463.1,1097.1)" />
<use xlink:href="#f1_e" transform="matrix(11,0,0,11,501.2,1097.1)" />
<use xlink:href="#f1_5" transform="matrix(11,0,0,11,508.7,1097.1)" />
<use xlink:href="#f1_c" transform="matrix(11,0,0,11,517.5,1097.1)" />
<use xlink:href="#f1_6" transform="matrix(11,0,0,11,530.6,1097.1)" />
<use xlink:href="#f2_o" transform="matrix(11,0,0,11,538.2,1097.1)" />
<use xlink:href="#f0_3" transform="matrix(12,0,0,12,325.9,1098.5)" />
<use xlink:href="#f0_9" transform="matrix(12,0,0,12,337.8,1098.5)" />
<use xlink:href="#f0_1b" transform="matrix(12,0,0,12,370.3,1098.5)" />
<use xlink:href="#f0_j" transform="matrix(12,0,0,12,399,1098.5)" />
<use xlink:href="#f0_d" transform="matrix(12,0,0,12,409.3,1098.5)" />
<use xlink:href="#f0_6" transform="matrix(12,0,0,12,413.5,1098.5)" />
<use xlink:href="#f0_3" transform="matrix(12,0,0,12,426.4,1098.5)" />
<use xlink:href="#f0_m" transform="matrix(12,0,0,12,392.2,1119.9)" />
<use xlink:href="#f0_x" transform="matrix(12,0,0,12,397.2,1119.9)" />
<use xlink:href="#f0_e" transform="matrix(12,0,0,12,397.2,1119.9)" />
<use xlink:href="#f0_d" transform="matrix(12,0,0,12,402.1,1119.9)" />
<use xlink:href="#f0_10" transform="matrix(12,0,0,12,407.4,1119.9)" />
<use xlink:href="#f0_f" transform="matrix(12,0,0,12,406.2,1119.9)" />
<use xlink:href="#f0_10" transform="matrix(12,0,0,12,416.1,1119.9)" />
<use xlink:href="#f0_b" transform="matrix(12,0,0,12,418.1,1119.9)" />
<use xlink:href="#f0_w" transform="matrix(12,0,0,12,425.9,1119.9)" />
<use xlink:href="#f0_i" transform="matrix(12,0,0,12,425.4,1119.9)" />
<use xlink:href="#f2_p" transform="matrix(11,0,0,11,141.5,1097.1)" />
<use xlink:href="#f2_r" transform="matrix(11,0,0,11,148.9,1097.1)" />
<use xlink:href="#f2_z" transform="matrix(11,0,0,11,153.7,1097.1)" />
<use xlink:href="#f2_v" transform="matrix(11,0,0,11,162.1,1097.1)" />
<use xlink:href="#f1_1c" transform="matrix(11,0,0,11,171.4,1097.1)" />
<use xlink:href="#f1_5" transform="matrix(11,0,0,11,197,1097.1)" />
<use xlink:href="#f1_6" transform="matrix(11,0,0,11,201.6,1097.1)" />
<use xlink:href="#f1_16" transform="matrix(11,0,0,11,213.4,1097.1)" />
<use xlink:href="#f1_6" transform="matrix(11,0,0,11,220.7,1097.1)" />
<use xlink:href="#f1_m" transform="matrix(11,0,0,11,228.2,1097.1)" />
<use xlink:href="#f1_16" transform="matrix(11,0,0,11,236.6,1097.1)" />
<use xlink:href="#f1_s" transform="matrix(11,0,0,11,244,1097.1)" />
<use xlink:href="#f1_a" transform="matrix(11,0,0,11,248.7,1097.1)" />
<use xlink:href="#f1_m" transform="matrix(11,0,0,11,257.1,1097.1)" />
<use xlink:href="#f0_1d" transform="matrix(12,0,0,12,137.7,1208.5)" />
</g>
</g>
<image preserveAspectRatio="none" x="149" y="694" width="183" height="114" xlink:href="img/1.png" />
<image preserveAspectRatio="none" x="578" y="481" width="196" height="114" xlink:href="img/2.png" />
<image preserveAspectRatio="none" x="361" y="481" width="195" height="114" xlink:href="img/3.png" />
<image preserveAspectRatio="none" x="140" y="481" width="198" height="114" xlink:href="img/4.png" />
<image preserveAspectRatio="none" x="588" y="696" width="186" height="114" xlink:href="img/5.png" />
<image preserveAspectRatio="none" x="367" y="696" width="189" height="113" xlink:href="img/6.png" />
<defs>
<path d="M736,107V473c0,0,0,147,-48,202c0,0,-49,54,-187,54H278V107ZM139,0V836H499c0,0,105,0,177,-22c0,0,72,-21,116,-69c0,0,44,-49,64,-119c0,0,19,-71,19,-174V0Z" 
id="f0_o"
transform="scale(0.001,-0.001)" />

<path d="M102,312V836H241V369L102,312Z" 
id="f0_d"
transform="scale(0.001,-0.001)" />

<path d="M156,-317V454l139,56V-317ZM505,0L806,729H139V835H967V753L650,0Z" 
id="f0_i"
transform="scale(0.001,-0.001)" />

<path d="M139,0V836H485c0,0,206,0,290,-90c0,0,84,-89,84,-294V0H721V473c0,0,0,147,-49,202c0,0,-48,54,-186,54H277V0Z" 
id="f0_n"
transform="scale(0.001,-0.001)" />

<path d="M180,0L66,836H203L258,443c0,0,36,1,64,6c0,0,28,6,49,18c0,0,20,12,35,26c0,0,15,13,26,36c0,0,11,24,17,44c0,0,7,20,12,55c0,0,6,34,9,60c0,0,3,26,8,71c0,0,4,45,9,77H610c0,0,-13,-194,-31,-271c0,0,-31,-127,-111,-179c0,0,-71,-45,-196,-50L304,107c0,0,73,0,130,5c0,0,56,6,111,21c0,0,54,15,94,40c0,0,40,25,77,64c0,0,37,39,63,94c0,0,25,54,46,128c0,0,21,73,34,166c0,0,13,94,20,211h138c0,0,-14,-124,-29,-218c0,0,-16,-94,-39,-179c0,0,-22,-85,-50,-146c0,0,-28,-61,-68,-112c0,0,-39,-51,-87,-84C744,97,696,65,632,42C632,42,568,19,492,10C492,10,417,0,320,0Z" 
id="f0_6"
transform="scale(0.001,-0.001)" />

<path d="M0,955v112H111V955Z" 
id="f0_x"
transform="scale(0.001,-0.001)" />

<path d="M139,0V836H278V0Z" 
id="f0_e"
transform="scale(0.001,-0.001)" />

<path d="M495,0V729H66V836H781V729H634V0Z" 
id="f0_a"
transform="scale(0.001,-0.001)" />

<path d="M433,-329v111H545V-329Zm0,185V-32H545V-144Z" 
id="f0_10"
transform="scale(0.001,-0.001)" />

<path d="M585,0V426c0,0,0,54,-8,98c0,0,-8,44,-27,83c0,0,-19,40,-49,66c0,0,-30,26,-77,41c0,0,-47,15,-108,15H66V836H315c0,0,94,0,166,-20c0,0,71,-20,116,-54c0,0,46,-35,75,-88c0,0,28,-52,40,-112c0,0,12,-60,12,-137V0Z" 
id="f0_j"
transform="scale(0.001,-0.001)" />

<path d="M138,-7c0,0,-34,0,-72,10V129c0,0,25,-8,52,-8c0,0,33,0,58,5c0,0,26,5,58,24c0,0,33,20,53,54c0,0,21,34,36,97c0,0,15,64,15,151c0,0,0,113,-19,173c0,0,-19,60,-56,82c0,0,-38,22,-107,22H89V836h72c0,0,165,0,240,-91c0,0,76,-91,76,-293c0,0,0,-107,26,-227c0,0,25,-119,83,-225H437c0,0,-43,101,-62,184c0,0,-24,-60,-51,-99c0,0,-26,-38,-56,-58C268,27,239,7,209,0c0,0,-30,-7,-71,-7Z" 
id="f0_r"
transform="scale(0.001,-0.001)" />

<path d="M74,357V479H476V357Z" 
id="f0_1b"
transform="scale(0.001,-0.001)" />

<path d="M139,-317V836H278V-317Z" 
id="f0_m"
transform="scale(0.001,-0.001)" />

<path d="M339,-241v111H451V-241Zm187,0v111H638V-241Z" 
id="f0_1k"
transform="scale(0.001,-0.001)" />

<path d="M114,0l60,312c0,0,2,12,8,39c0,0,6,27,7,37c0,0,2,11,5,30c0,0,2,19,4,33c0,0,1,15,1,31c0,0,0,48,-35,146c0,0,-35,98,-98,208H228c0,0,3,-8,27,-67c0,0,25,-58,41,-117c0,0,21,53,50,90c0,0,29,37,57,57c0,0,29,21,65,32c0,0,37,11,65,14c0,0,28,3,67,3c0,0,300,0,300,-396V0H480V106H761V452c0,0,0,146,-46,215c0,0,-45,70,-118,70c0,0,-134,0,-198,-119c0,0,-36,-68,-67,-222c0,0,-2,-10,-6,-27L253,0Z" 
id="f0_7"
transform="scale(0.001,-0.001)" />

<path d="M433,-292v111H265V-69H713V-181H545V-292Z" 
id="f0_w"
transform="scale(0.001,-0.001)" />

<path d="M974,955v112h111V955Z" 
id="f0_1l"
transform="scale(0.001,-0.001)" />

<path d="M122,-200c0,0,99,170,148,338c0,0,49,169,49,342c0,0,0,172,-49,340c0,0,-49,168,-148,340H241c0,0,112,-176,168,-345c0,0,55,-169,55,-335c0,0,0,-167,-55,-337c0,0,-56,-168,-168,-343Z" 
id="f0_18"
transform="scale(0.001,-0.001)" />

<path d="M359,-270c0,0,124,0,192,46c0,0,67,47,67,129c0,0,0,43,-26,67c0,0,-26,24,-79,24H242c0,0,-32,-27,-51,-69c0,0,-20,-41,-20,-77c0,0,0,-64,46,-92c0,0,46,-28,142,-28Zm11,561c0,0,81,0,115,47c0,0,34,47,34,141c0,0,0,100,-35,142c0,0,-35,42,-113,42c0,0,-78,0,-114,-43c0,0,-37,-42,-37,-141c0,0,0,-98,36,-143c0,0,36,-45,114,-45ZM359,-329c0,0,-143,0,-218,44c0,0,-75,43,-75,125c0,0,0,39,27,78c0,0,26,38,98,89c0,0,-43,14,-72,48c0,0,-29,35,-29,74L208,262c0,0,-118,55,-118,217c0,0,0,115,73,178c0,0,73,63,211,63c0,0,28,0,71,-6c0,0,44,-6,67,-13l165,83l26,-32L599,644c0,0,50,-56,50,-165c0,0,0,-120,-72,-182c0,0,-73,-62,-208,-62c0,0,-62,0,-114,11L208,148c0,0,2,-13,29,-24c0,0,27,-12,67,-12H512c0,0,113,0,168,-49c0,0,55,-49,55,-134c0,0,0,-79,-44,-137c0,0,-43,-58,-128,-90c0,0,-84,-31,-204,-31Z" 
id="f1_y"
transform="scale(0.001,-0.001)" />

<path d="M377,45c0,0,99,0,147,73c0,0,47,73,47,237c0,0,0,161,-47,233c0,0,-47,72,-147,72c0,0,-97,0,-141,-69c0,0,-44,-69,-44,-236c0,0,0,-169,45,-240c0,0,44,-70,140,-70Zm0,-59c0,0,-158,0,-238,94c0,0,-81,95,-81,274c0,0,0,178,81,272c0,0,80,94,244,94c0,0,160,0,241,-92c0,0,82,-92,82,-274c0,0,0,-368,-329,-368Z" 
id="f1_4"
transform="scale(0.001,-0.001)" />

<path d="M31,0V33l88,19V649L31,668v33H235l7,-87c0,0,44,37,121,71c0,0,76,35,121,35h11V530H463l-43,82c0,0,-37,0,-88,-10c0,0,-52,-10,-89,-26V52L363,33V0Z" 
id="f1_u"
transform="scale(0.001,-0.001)" />

<path d="M383,64c0,0,85,0,152,28V645c0,0,-67,13,-152,13c0,0,-194,0,-194,-314c0,0,0,-141,48,-211c0,0,48,-69,146,-69ZM342,-14c0,0,-287,0,-287,358c0,0,0,184,82,280c0,0,81,96,239,96c0,0,81,0,163,-18c0,0,-4,25,-4,124v182l-118,18v34H659V52L745,33V0H548l-9,52c0,0,-84,-66,-197,-66Z" 
id="f1_q"
transform="scale(0.001,-0.001)" />

<path d="M354,-200c0,0,-112,175,-167,343c0,0,-56,170,-56,337c0,0,0,166,55,335c0,0,55,169,168,345H473c0,0,-100,-172,-148,-340c0,0,-48,-168,-48,-340c0,0,0,-173,48,-342c0,0,49,-168,148,-338Z" 
id="f0_17"
transform="scale(0.001,-0.001)" />

<path d="M554,-8c0,0,-9,0,-11,6c0,0,-2,5,-2,24V548c0,0,0,38,-5,56c0,0,-4,18,-15,25c0,0,-12,7,-41,7H90c0,0,-33,0,-52,33c0,0,-19,33,-19,90c0,0,0,54,15,97c0,0,14,43,30,43c0,0,17,0,17,-13V872c0,0,0,-9,7,-18c0,0,7,-9,27,-9H512c0,0,54,0,77,-8c0,0,23,-9,33,-28c0,0,9,-20,9,-67V81c0,0,0,-31,-27,-53L583,9C583,9,563,-8,554,-8Z" 
id="f2_a"
transform="scale(0.001,-0.001)" />

<path d="M787,-20c0,0,-16,0,-25,16c0,0,-7,18,-31,51c0,0,-23,32,-53,62L293,522c0,0,-42,-34,-60,-62c0,0,-17,-28,-17,-68c0,0,0,-38,20,-77c0,0,21,-38,68,-90c0,0,48,-52,68,-88c0,0,20,-36,20,-68c0,0,0,-38,-22,-69H70V63h80c0,0,31,0,31,35c0,0,0,18,-14,41c0,0,-14,24,-31,53c0,0,-17,30,-30,68c0,0,-14,38,-14,87c0,0,0,59,33,109c0,0,34,50,103,98l21,16l-96,96c0,0,-24,24,-36,42c0,0,-12,19,-12,41c0,0,0,26,21,61c0,0,22,36,53,65c0,0,31,29,46,29c0,0,13,0,24,-15c0,0,21,-34,56,-78c0,0,34,-44,65,-77L570,517c0,0,72,100,180,158c0,0,-38,0,-60,33c0,0,-21,33,-21,95c0,0,0,38,18,66c0,0,19,29,40,29c0,0,5,0,6,-4c0,0,0,-4,0,-17c0,0,0,-34,46,-34l69,2c0,0,40,0,63,-26c0,0,22,-25,22,-67c0,0,0,-27,-5,-60c0,0,-6,-34,-14,-45c0,0,-15,15,-24,20c0,0,-9,5,-19,5c0,0,-35,0,-118,-65c0,0,-82,-64,-122,-158L833,259c0,0,49,-47,63,-71c0,0,13,-24,13,-50c0,0,0,-21,-24,-62C885,76,860,35,832,7c0,0,-29,-27,-45,-27Z" 
id="f2_s"
transform="scale(0.001,-0.001)" />

<path d="M204,-8c0,0,-9,0,-11,5c0,0,-2,5,-2,22V549c0,0,0,40,-4,56c0,0,-4,16,-15,22c0,0,-10,7,-39,7H90c0,0,-33,0,-52,33c0,0,-19,33,-19,90c0,0,0,53,15,98c0,0,16,44,35,44c0,0,12,0,12,-13V872c0,0,0,-27,31,-27h42c0,0,79,0,103,-20c0,0,23,-19,23,-83V67c0,0,0,-16,-8,-26c0,0,-9,-10,-33,-30c0,0,-25,-19,-35,-19Z" 
id="f2_5"
transform="scale(0.001,-0.001)" />

<path d="M721,-14c0,0,-12,0,-12,9l4,28c0,0,17,82,17,338c0,0,0,105,-11,163c0,0,-11,58,-35,84c0,0,-25,26,-83,26H315c0,0,-43,-39,-67,-90c0,0,-25,-51,-25,-104c0,0,0,-59,17,-104c0,0,17,-45,35,-78c0,0,18,-34,18,-44c0,0,0,-26,-20,-95C273,119,252,50,231,0H26L87,214h69c0,0,23,0,23,14l-7,15c0,0,-15,27,-27,68c0,0,-11,41,-11,83c0,0,0,68,25,124c0,0,25,57,86,116H200c0,0,-45,0,-71,32c0,0,-27,33,-27,94c0,0,0,49,17,93c0,0,16,43,32,43c0,0,17,0,17,-10V869c0,0,0,-24,27,-24H637c0,0,73,0,103,-18c0,0,30,-17,46,-62c0,0,17,-46,24,-124c0,0,8,-78,8,-214V338c0,0,0,-279,-27,-311c0,0,-14,-16,-37,-28c0,0,-23,-13,-33,-13Z" 
id="f2_9"
transform="scale(0.001,-0.001)" />

<path d="M102,-3c0,0,-26,0,-26,31c0,0,0,176,35,320c0,0,34,145,102,247c0,0,3,4,3,25c0,0,0,24,-19,37c0,0,-19,13,-79,15c0,0,-40,0,-61,35c0,0,-22,35,-22,95c0,0,0,39,14,67c0,0,14,29,32,29c0,0,20,0,20,-25c0,0,0,-28,32,-28h33c0,0,54,0,85,-25c0,0,30,-25,30,-68l-3,-52c0,0,0,-22,3,-31c0,0,76,71,104,109c0,0,29,37,36,75c0,0,55,7,82,7c0,0,154,0,239,-126c0,0,85,-127,85,-352c0,0,0,-99,-15,-200C812,182,798,81,774,0H335l42,214H652c0,0,25,0,37,5c0,0,11,4,21,18c0,0,10,14,17,36c0,0,7,22,12,56c0,0,5,34,5,64c0,0,0,247,-241,247c0,0,-337,0,-337,-609c0,0,0,-20,-5,-27c0,0,-6,-7,-22,-7Z" 
id="f2_6"
transform="scale(0.001,-0.001)" />

<path d="M216,0c0,0,-59,212,-83,350c0,0,-25,139,-25,198c0,0,0,76,23,127c0,0,-42,13,-58,43c0,0,-15,30,-15,72c0,0,0,40,20,74c0,0,20,34,37,34c0,0,10,0,10,-13c0,0,0,-42,69,-42c0,0,57,0,80,-21c0,0,22,-21,22,-62c0,0,0,-38,-7,-72c0,0,-6,-34,-12,-34c0,0,-6,0,-16,10c0,0,-10,10,-25,10c0,0,-25,0,-35,-24c0,0,-10,-24,-10,-71c0,0,0,-164,72,-374c0,0,38,80,116,231c0,0,87,168,121,238c0,0,-36,6,-52,34c0,0,-17,28,-17,66c0,0,0,41,21,82c0,0,20,42,37,42c0,0,9,0,10,-7c0,0,5,-22,13,-32c0,0,9,-11,32,-12l44,-4c0,0,87,-4,87,-94c0,0,0,-33,-7,-67c0,0,-8,-34,-16,-34l-16,10c0,0,-15,10,-30,10c0,0,-22,0,-39,-29c0,0,-18,-32,-39,-72c0,0,-21,-41,-178,-355H691l38,91c0,0,58,139,124,224c0,0,38,50,60,80c0,0,22,29,22,45c0,0,0,12,-7,19c0,0,-6,7,-27,12c0,0,-42,18,-60,41c0,0,-17,24,-17,59c0,0,0,29,11,56c0,0,12,27,27,43c0,0,16,16,26,16c0,0,9,-1,10,-6l4,-14c0,0,4,-21,27,-25l70,-13c0,0,32,-6,51,-30c0,0,20,-24,20,-61c0,0,-2,-45,-23,-87c0,0,-21,-41,-91,-127c0,0,-46,-57,-77,-116c0,0,-31,-59,-71,-161L706,0Z" 
id="f2_t"
transform="scale(0.001,-0.001)" />

<path d="M154,0V454l138,56V0ZM722,0V454c0,0,0,161,-49,218c0,0,-48,57,-186,57H139V836H485c0,0,207,0,291,-93c0,0,83,-94,83,-318V0Z" 
id="f0_3"
transform="scale(0.001,-0.001)" />

<path d="M139,0V106H400c0,0,176,0,253,71c0,0,78,72,78,250c0,0,0,163,-80,233c0,0,-81,69,-250,69H278L277,564c0,0,-1,-54,26,-80c0,0,27,-25,82,-25c0,0,30,0,80,9V355c0,0,-61,-12,-111,-12c0,0,-100,0,-157,55c0,0,-58,55,-58,186V836H456c0,0,193,0,303,-109c0,0,110,-109,110,-309c0,0,0,-200,-110,-309C759,109,648,0,456,0Z" 
id="f0_g"
transform="scale(0.001,-0.001)" />

<path d="M287,0L589,729H66v386H205V836l547,-1l-2,-82L433,0Z" 
id="f0_9"
transform="scale(0.001,-0.001)" />

<path d="M179,0V190H336V0Zm0,600V790H336V600Z" 
id="f0_t"
transform="scale(0.001,-0.001)" />

<path d="M112,-5c0,0,-39,0,-97,11V113c0,0,48,-10,77,-10c0,0,53,0,70,42c0,0,17,43,17,164V729H50V836H501c0,0,107,0,179,-25c0,0,72,-25,112,-77c0,0,40,-51,57,-118c0,0,16,-67,16,-164V0H726V454c0,0,0,55,-3,92c0,0,-4,37,-17,75c0,0,-14,38,-38,59c0,0,-24,22,-65,36c0,0,-42,13,-102,13H318V309c0,0,0,-160,-46,-237C272,72,226,-5,112,-5Z" 
id="f0_8"
transform="scale(0.001,-0.001)" />

<path d="M66,0V107H554V452c0,0,0,56,-4,93c0,0,-4,37,-18,75c0,0,-14,38,-40,60c0,0,-26,22,-71,36c0,0,-45,13,-110,13H66V836H312c0,0,91,0,157,-17c0,0,66,-17,109,-49c0,0,44,-32,69,-84c0,0,26,-52,36,-114c0,0,10,-62,10,-147V107H817V0Z" 
id="f0_4"
transform="scale(0.001,-0.001)" />

<path d="M71,-141V-15L289,62L66,836H210L416,109c0,0,99,42,153,98c0,0,53,56,80,155c0,0,26,98,26,262V836H817V624c0,0,0,-88,-7,-154c0,0,-7,-67,-25,-132c0,0,-18,-66,-51,-116c0,0,-33,-51,-84,-98c0,0,-50,-48,-123,-87c0,0,-72,-39,-169,-74L71,-141Z" 
id="f0_h"
transform="scale(0.001,-0.001)" />

<path d="M66,0V106H322c0,0,75,0,127,23c0,0,53,23,82,67c0,0,29,43,42,98c0,0,13,54,13,124c0,0,0,70,-13,124c0,0,-13,55,-42,98c0,0,-29,44,-82,67c0,0,-52,23,-127,23H66V836H322c0,0,87,0,157,-24c0,0,70,-24,115,-64c0,0,45,-40,74,-94c0,0,30,-55,43,-113c0,0,13,-59,13,-123c0,0,0,-64,-13,-123c0,0,-13,-58,-43,-113c0,0,-29,-54,-74,-94C594,88,549,48,479,24C479,24,409,0,322,0Z" 
id="f0_k"
transform="scale(0.001,-0.001)" />

<path d="M66,0V106H564L66,836H228L516,413c0,0,3,2,9,6c0,0,17,13,27,21c0,0,10,8,26,27c0,0,17,20,26,40c0,0,9,21,16,54c0,0,7,34,7,75V836H764V698c0,0,0,-55,-7,-102c0,0,-7,-47,-16,-79c0,0,-10,-33,-27,-62c0,0,-18,-29,-32,-46c0,0,-14,-17,-37,-35c0,0,-22,-17,-36,-25c0,0,-13,-8,-36,-20L767,53V0Z" 
id="f0_p"
transform="scale(0.001,-0.001)" />

<path d="M139,0V138c0,0,0,61,8,112c0,0,7,52,19,87c0,0,11,36,30,66c0,0,19,31,35,49c0,0,17,19,41,35c0,0,25,17,41,25c0,0,17,7,40,17L141,836H303L613,388c0,0,20,10,33,18c0,0,13,8,34,28c0,0,20,20,33,44c0,0,13,25,22,66c0,0,10,41,10,92V836H882V698c0,0,0,-61,-7,-112c0,0,-6,-52,-18,-88c0,0,-12,-36,-30,-66c0,0,-19,-30,-36,-49c0,0,-17,-18,-41,-34c0,0,-24,-17,-40,-25c0,0,-17,-8,-41,-17L882,0H720L409,448c0,0,-21,-11,-34,-19c0,0,-13,-8,-34,-27c0,0,-21,-20,-34,-44c0,0,-12,-25,-22,-66c0,0,-9,-41,-9,-92V0Z" 
id="f0_q"
transform="scale(0.001,-0.001)" />

<path d="M439,0V33l93,19V500c0,0,0,62,-30,97c0,0,-31,36,-94,36c0,0,-67,0,-165,-22V52L338,33V0H35V33l84,19V649L35,668v33H235l7,-57c0,0,57,33,122,54c0,0,65,22,108,22c0,0,91,0,137,-53c0,0,47,-53,47,-154V52L741,33V0Z" 
id="f1_m"
transform="scale(0.001,-0.001)" />

<path d="M32,0V33L151,52V649L52,668v33H275V52L395,33V0ZM201,850c0,0,-32,0,-56,24c0,0,-24,24,-24,56c0,0,0,34,24,58c0,0,24,24,56,24c0,0,34,0,58,-24c0,0,24,-24,24,-58c0,0,0,-32,-24,-56c0,0,-24,-24,-58,-24Z" 
id="f1_s"
transform="scale(0.001,-0.001)" />

<path d="M35,0V34l84,18V649L35,668v33H235l7,-56c0,0,57,32,122,54c0,0,65,21,108,21c0,0,91,0,137,-53c0,0,47,-53,47,-154V52L741,34V0H439V34l93,18V500c0,0,0,62,-30,97c0,0,-31,36,-94,36c0,0,-67,0,-165,-22V52L338,34V0ZM481,834c0,0,-36,0,-66,16c0,0,-30,16,-57,36c0,0,-27,20,-52,36c0,0,-25,16,-49,16c0,0,-24,0,-39,-9c0,0,-14,-9,-23,-26c0,0,-8,-17,-13,-54H143c0,0,11,180,146,180c0,0,36,0,66,-16c0,0,30,-16,57,-35c0,0,27,-20,52,-36c0,0,25,-16,49,-16c0,0,32,0,50,18c0,0,18,19,25,70h39c0,0,-12,-180,-146,-180Z" 
id="f1_10"
transform="scale(0.001,-0.001)" />

<path d="M376,50c0,0,103,0,149,80c0,0,46,81,46,240c0,0,0,137,-47,204c0,0,-48,67,-148,67c0,0,-44,0,-87,-7c0,0,-44,-8,-63,-17V62c0,0,63,-12,150,-12Zm3,-64c0,0,-64,0,-141,14c0,0,-78,14,-136,37v971L0,1026v34H226V809c0,0,0,-40,-4,-148c0,0,74,59,188,59c0,0,143,0,219,-87c0,0,77,-87,77,-263c0,0,0,-189,-84,-287c0,0,-84,-97,-243,-97Z" 
id="f1_r"
transform="scale(0.001,-0.001)" />

<path d="M249,-14c0,0,-71,0,-107,42c0,0,-35,42,-35,119V639H15v33l93,29l76,159h47V701H391V639H231V161c0,0,0,-48,22,-73c0,0,22,-24,57,-24c0,0,44,0,106,12V26C416,26,389,8,340,-2c0,0,-49,-12,-91,-12Z" 
id="f1_g"
transform="scale(0.001,-0.001)" />

<path d="M163,0V190H321V0Z" 
id="f0_c"
transform="scale(0.001,-0.001)" />

<path d="M117,-176L179,62V190H336V62L213,-176Z" 
id="f0_15"
transform="scale(0.001,-0.001)" />

<path d="M522,92c0,0,247,0,247,333c0,0,0,88,-17,146c0,0,-17,58,-53,91c0,0,-35,33,-82,46c0,0,-48,14,-116,14H276V419c0,0,0,-327,246,-327Zm0,-112c0,0,-193,0,-289,109c0,0,-95,110,-95,337V836H501c0,0,213,0,309,-93c0,0,96,-94,96,-317c0,0,0,-227,-95,-337C811,89,715,-20,522,-20Z" 
id="f0_f"
transform="scale(0.001,-0.001)" />

<path d="M147,700v414H274V700Z" 
id="f0_2"
transform="scale(0.001,-0.001)" />

<path d="M153,0V437L399,539V0ZM664,0V450c0,0,0,122,-31,165c0,0,-31,43,-121,43H138V836H511c0,0,113,0,188,-22c0,0,75,-23,123,-73c0,0,47,-51,68,-127c0,0,20,-76,20,-189V0Z" 
id="f3_k"
transform="scale(0.001,-0.001)" />

<path d="M26,0V54L154,74V926L26,945v55H878V746H810L786,908c0,0,-83,10,-241,10H389V551H651l23,111h67V355H674L651,468H389V82H578c0,0,193,0,252,12l43,185h68L927,0Z" 
id="f2_g"
transform="scale(0.001,-0.001)" />

<path d="M30,0V49l76,18V992l-72,18v50H322V67L398,49V0Z" 
id="f2_h"
transform="scale(0.001,-0.001)" />

<path d="M434,423c0,0,0,101,-7,142c0,0,-6,40,-22,60c0,0,-16,19,-45,19c0,0,-44,0,-66,-48c0,0,-22,-49,-22,-173ZM389,-14c0,0,-172,0,-254,89c0,0,-83,90,-83,279c0,0,0,184,79,274c0,0,79,91,238,91c0,0,142,0,206,-76c0,0,64,-76,64,-237V345H271V333c0,0,0,-111,18,-158c0,0,18,-47,58,-72c0,0,40,-25,110,-25c0,0,66,0,166,22V42C623,42,582,18,517,1c0,0,-66,-15,-128,-15Z" 
id="f2_u"
transform="scale(0.001,-0.001)" />

<path d="M543,-317V369c0,0,0,85,-8,143c0,0,-8,58,-27,101c0,0,-18,44,-51,69c0,0,-33,24,-80,36c0,0,-48,11,-117,11H66V836H257c0,0,125,0,205,-23c0,0,80,-23,130,-79c0,0,50,-56,70,-143c0,0,20,-86,20,-222V-317Z" 
id="f0_s"
transform="scale(0.001,-0.001)" />

<path d="M152,0V473c0,0,0,94,28,161c0,0,29,66,71,95H66V836H463V729H404c0,0,-65,0,-89,-57c0,0,-25,-58,-25,-199V0Z" 
id="f0_l"
transform="scale(0.001,-0.001)" />

<path d="M495,413c0,0,0,133,-34,190c0,0,-34,57,-105,57c0,0,-78,0,-119,-63c0,0,-42,-62,-42,-184ZM374,-14c0,0,-163,0,-239,87c0,0,-75,88,-75,283c0,0,0,183,77,273c0,0,76,91,219,91c0,0,269,0,269,-306V353H194V340c0,0,0,-103,23,-160c0,0,22,-57,70,-87c0,0,47,-29,124,-29c0,0,40,0,96,6c0,0,55,7,91,15V43C598,43,562,20,500,3c0,0,-61,-17,-126,-17Z" 
id="f1_e"
transform="scale(0.001,-0.001)" />

<path d="M31,0V33L150,52v956L31,1026v34H274V52L394,33V0Z" 
id="f1_5"
transform="scale(0.001,-0.001)" />

<path d="M284,67c0,0,51,0,88,12c0,0,37,12,74,30V358l-98,-3c0,0,-100,-4,-135,-39c0,0,-35,-35,-35,-117c0,0,0,-132,106,-132ZM233,-14c0,0,-179,0,-179,208c0,0,0,70,27,116c0,0,27,46,87,70c0,0,60,24,173,27l105,3V519c0,0,0,72,-26,107c0,0,-27,34,-82,34c0,0,-75,0,-137,-35L176,538H134V691c0,0,121,26,213,26c0,0,115,0,169,-47c0,0,54,-47,54,-144V52L657,33V0H465L451,70c0,0,-85,-84,-218,-84Z" 
id="f1_6"
transform="scale(0.001,-0.001)" />

<path d="M278,-14c0,0,-52,0,-115,11c0,0,-63,10,-99,23V193H98L134,95c0,0,56,-50,146,-50c0,0,144,0,144,123c0,0,0,91,-114,130l-66,21c0,0,-75,25,-110,50c0,0,-34,26,-53,63c0,0,-18,36,-18,89c0,0,0,92,63,145c0,0,63,54,170,54c0,0,77,0,193,-23V544H454l-32,81c0,0,-39,35,-124,35c0,0,-61,0,-92,-30c0,0,-32,-30,-32,-80c0,0,0,-43,29,-72c0,0,28,-29,86,-48c0,0,110,-38,144,-55c0,0,33,-17,57,-42c0,0,23,-25,36,-57c0,0,13,-32,13,-79c0,0,0,-104,-66,-158c0,0,-66,-53,-195,-53Z" 
id="f1_f"
transform="scale(0.001,-0.001)" />

<path d="M529,65c0,0,183,0,270,108c0,0,87,108,87,334c0,0,0,210,-113,318c0,0,-113,108,-322,108H316V71c0,0,90,-6,213,-6Zm0,-67L172,0H44V40L172,60V941L44,960v40H498c0,0,277,0,411,-123c0,0,133,-124,133,-371c0,0,0,-251,-129,-380C913,126,785,-2,529,-2Z" 
id="f1_18"
transform="scale(0.001,-0.001)" />

<path d="M360,-14L72,649L0,668v33H327V668L216,648L420,164L615,649L504,668v33H764V668L697,652L416,-14Z" 
id="f1_v"
transform="scale(0.001,-0.001)" />

<path d="M173,-6C173,-6,61,-6,15,9V177c0,0,73,-10,82,-10c0,0,37,0,52,30c0,0,14,29,14,116V658H18V836H516c0,0,262,0,341,-145c0,0,48,-89,48,-242V0H658V450c0,0,0,131,-37,171c0,0,-34,37,-105,37H411V313c0,0,0,-189,-67,-258C344,55,285,-6,173,-6Z" 
id="f3_7"
transform="scale(0.001,-0.001)" />

<path d="M139,0V836H386V0Z" 
id="f3_c"
transform="scale(0.001,-0.001)" />

<path d="M159,0V165c0,0,0,69,13,124c0,0,12,55,29,89c0,0,17,33,45,62c0,0,29,28,50,42c0,0,22,14,54,30L128,836H405L666,460c0,0,41,48,41,155V836H952V671c0,0,0,-50,-6,-93c0,0,-6,-42,-16,-73c0,0,-10,-30,-26,-57c0,0,-17,-27,-31,-44c0,0,-15,-17,-37,-33c0,0,-22,-16,-38,-25c0,0,-15,-9,-38,-21L984,0H706L445,376c0,0,-41,-48,-41,-155V0Z" 
id="f3_b"
transform="scale(0.001,-0.001)" />

<path d="M129,0l69,362c0,0,10,56,12,100c0,0,0,84,-27,159c0,0,-27,76,-117,215H322c0,0,9,-6,31,-79c0,0,23,-72,23,-105c0,0,23,82,100,138c0,0,77,57,160,57c0,0,332,0,332,-397V0H538V177H721V449c0,0,0,124,-20,170c0,0,-20,47,-82,47c0,0,-23,0,-43,-9c0,0,-19,-10,-34,-23c0,0,-14,-14,-27,-39c0,0,-13,-25,-22,-46c0,0,-8,-22,-17,-57c0,0,-9,-36,-15,-61c0,0,-5,-24,-13,-65L375,0Z" 
id="f3_l"
transform="scale(0.001,-0.001)" />

<path d="M154,-13c0,0,-38,0,-85,9V198c0,0,58,-15,103,-15c0,0,84,0,118,60c0,0,35,61,35,206c0,0,0,66,-7,105c0,0,-6,39,-24,63c0,0,-17,25,-44,33c0,0,-27,8,-73,8H66V836H225c0,0,198,0,275,-115c0,0,56,-84,65,-264c0,0,3,-55,3,-148c0,0,0,-177,71,-309L393,1c0,0,-53,130,-54,141c0,0,-28,-90,-65,-123c0,0,-38,-32,-120,-32Z" 
id="f3_i"
transform="scale(0.001,-0.001)" />

<path d="M453,0V658H66V836H833V658H700V0Z" 
id="f3_9"
transform="scale(0.001,-0.001)" />

<path d="M71,0V90H214v934H71v90H1073V851H970v160H502V654H792V796H895V411H792V552H502V103H984V263h102V0Z" 
id="f4_2"
transform="scale(0.001,-0.001)" />

<path d="M87,-338c0,0,-45,0,-94,7c0,0,-51,8,-105,22v168l84,-1c0,0,1,-59,23,-86c0,0,21,-26,70,-26c0,0,55,0,77,35c0,0,21,35,21,127V703H51v90H427V-92c0,0,0,-122,-86,-184c0,0,-86,-62,-254,-62ZM277,876c0,0,-61,0,-102,41c0,0,-42,41,-42,101c0,0,0,60,41,101c0,0,42,42,103,42c0,0,58,0,100,-42c0,0,42,-42,42,-101c0,0,0,-59,-42,-101c0,0,-41,-41,-100,-41Z" 
id="f4_3"
transform="scale(0.001,-0.001)" />

<path d="M612,448c0,0,0,156,-29,219c0,0,-29,63,-99,63c0,0,-68,0,-98,-61c0,0,-29,-62,-29,-208V448ZM488,-20c0,0,-205,0,-315,107C173,87,63,195,63,397c0,0,0,197,112,307c0,0,113,110,313,110c0,0,197,0,303,-115c0,0,105,-116,111,-340H357v-6c0,0,0,-154,46,-222c0,0,46,-68,149,-68c0,0,86,0,139,45c0,0,53,46,68,133H883C883,241,851,105,755,42c0,0,-95,-62,-267,-62Z" 
id="f4_4"
transform="scale(0.001,-0.001)" />

<path d="M53,0V90H165V703H53v90H429V681c0,0,47,69,106,101c0,0,60,32,142,32c0,0,97,0,158,-37c0,0,60,-37,93,-114c0,0,55,79,119,115c0,0,64,36,150,36c0,0,137,0,204,-77c0,0,68,-77,68,-233V90h113V0H1110V90h95V464c0,0,0,149,-23,188c0,0,-23,38,-85,38c0,0,-70,0,-109,-54c0,0,-39,-54,-39,-154V90h95V0H591V90h94V464c0,0,0,149,-23,188c0,0,-23,38,-84,38c0,0,-71,0,-110,-54c0,0,-39,-54,-39,-154V90h95V0Z" 
id="f4_5"
transform="scale(0.001,-0.001)" />

<path d="M562,95c0,0,82,0,115,65c0,0,33,66,33,237c0,0,0,171,-33,236c0,0,-33,65,-115,65c0,0,-79,0,-114,-62c0,0,-35,-62,-35,-200V357c0,0,0,-138,35,-200c0,0,35,-62,114,-62ZM35,-317v90H149V703H35v90H413V692c0,0,33,62,90,92c0,0,57,30,140,30c0,0,169,0,267,-111c0,0,97,-111,97,-306c0,0,0,-195,-97,-307C910,90,812,-20,643,-20c0,0,-83,0,-140,29c0,0,-57,30,-90,92V-227H535v-90Z" 
id="f4_6"
transform="scale(0.001,-0.001)" />

<path d="M53,0V90H165v981H53v90H429V90H543V0Z" 
id="f4_7"
transform="scale(0.001,-0.001)" />

<path d="M510,63c0,0,84,0,118,71c0,0,34,72,34,263c0,0,0,191,-34,262c0,0,-33,71,-118,71c0,0,-84,0,-119,-72c0,0,-34,-72,-34,-261c0,0,0,-190,34,-262c0,0,35,-72,119,-72Zm0,-83c0,0,-209,0,-328,110C182,90,63,201,63,397c0,0,0,196,119,307c0,0,119,110,328,110c0,0,211,0,330,-110c0,0,118,-111,118,-307c0,0,0,-196,-119,-307C839,90,720,-20,510,-20Z" 
id="f4_8"
transform="scale(0.001,-0.001)" />

<path d="M403,-20c0,0,-74,0,-156,11C247,-9,164,1,71,23V244h84c0,0,11,-88,67,-135c0,0,56,-46,152,-46c0,0,81,0,124,28c0,0,43,28,43,80c0,0,0,47,-28,74c0,0,-27,26,-105,45L299,318c0,0,-123,30,-178,87c0,0,-55,57,-55,154c0,0,0,129,89,192c0,0,89,63,276,63c0,0,70,0,149,-11c0,0,80,-12,176,-36V567H672c0,0,-7,81,-58,122c0,0,-51,41,-147,41c0,0,-80,0,-122,-25c0,0,-41,-26,-41,-75c0,0,0,-41,24,-64c0,0,24,-23,86,-38L522,500c0,0,156,-40,215,-98c0,0,60,-58,60,-162c0,0,0,-134,-96,-198c0,0,-96,-62,-298,-62Z" 
id="f4_9"
transform="scale(0.001,-0.001)" />

<path d="M44,0V40L172,60V941L44,960v40H794V760H745L721,922c0,0,-83,11,-241,11H316V543H586l23,119h48V354H609L586,475H316V67H513c0,0,193,0,252,12l43,185h49L843,0Z" 
id="f1_z"
transform="scale(0.001,-0.001)" />

<path d="M382,45c0,0,188,0,188,314c0,0,0,143,-47,213c0,0,-46,69,-141,69c0,0,-87,0,-146,-24V58c0,0,67,-13,146,-13ZM25,-325v35l88,18V649L34,668v33H231l1,-41c0,0,31,27,84,43c0,0,53,17,107,17c0,0,134,0,208,-94c0,0,73,-93,73,-267c0,0,0,-178,-80,-276c0,0,-80,-97,-232,-97c0,0,-84,0,-160,16c0,0,4,-53,4,-84V-272l123,-18v-35Z" 
id="f1_x"
transform="scale(0.001,-0.001)" />

<path d="M44,0V40L172,60V941L44,960v40H471V960L316,941V65H513c0,0,159,0,234,14l46,208h48L828,0Z" 
id="f1_12"
transform="scale(0.001,-0.001)" />

<path d="M431,0V33L535,52V499c0,0,0,62,-32,96c0,0,-32,33,-95,33c0,0,-66,0,-163,-22V52L350,33V0H32V33l89,19V649L32,668v33H237l6,-57c0,0,56,32,119,54c0,0,62,22,110,22c0,0,52,0,95,-20c0,0,44,-19,66,-62c0,0,57,32,134,57c0,0,77,25,128,25c0,0,179,0,179,-207V52l90,-19V0H846V33L950,52V499c0,0,0,129,-119,129c0,0,-19,0,-45,-3c0,0,-26,-3,-52,-7c0,0,-25,-4,-49,-8c0,0,-23,-5,-39,-8c0,0,13,-41,13,-89V52L764,33V0Z" 
id="f1_c"
transform="scale(0.001,-0.001)" />

<path d="M289,-14c0,0,-179,0,-179,205V649L20,668v33H233V200c0,0,0,-128,120,-128c0,0,92,0,173,23V649L420,668v33H649V52L738,33V0H533l-6,57C527,57,474,28,405,7c0,0,-69,-21,-116,-21Z" 
id="f1_l"
transform="scale(0.001,-0.001)" />

<path d="M399,-14c0,0,-341,0,-341,370c0,0,0,175,87,269c0,0,87,95,249,95c0,0,101,0,220,-23V501H573L541,625c0,0,-62,35,-149,35c0,0,-200,0,-200,-304c0,0,0,-158,61,-225c0,0,61,-67,189,-67c0,0,109,0,189,24V43C631,43,595,16,530,1c0,0,-64,-15,-131,-15Z" 
id="f1_16"
transform="scale(0.001,-0.001)" />

<path d="M442,0V33l93,19V504c0,0,0,129,-124,129c0,0,-70,0,-168,-22V52L338,33V0H31V33l88,19v956L15,1026v34H243V756c0,0,0,-77,-5,-112c0,0,54,31,122,53c0,0,68,23,115,23c0,0,91,0,137,-53c0,0,47,-53,47,-154V52L744,33V0Z" 
id="f1_13"
transform="scale(0.001,-0.001)" />

<path d="M66,0V107H332V555c0,0,0,92,-37,133c0,0,-37,41,-116,41H85V836h94c0,0,153,0,223,-66c0,0,69,-66,69,-231V0Z" 
id="f0_b"
transform="scale(0.001,-0.001)" />

<path d="M284,67c0,0,51,0,88,12c0,0,37,11,74,29V357l-98,-3c0,0,-100,-3,-135,-38c0,0,-35,-36,-35,-118c0,0,0,-131,106,-131ZM233,-14c0,0,-179,0,-179,208c0,0,0,70,27,116c0,0,27,46,87,70c0,0,60,24,173,27l105,3V519c0,0,0,73,-26,107c0,0,-27,34,-82,34c0,0,-75,0,-137,-35L176,538H134V691c0,0,121,26,213,26c0,0,115,0,169,-47c0,0,54,-47,54,-144V52L657,34V0H465L451,70c0,0,-85,-84,-218,-84Zm22,849v24l146,203H560v-27L296,835Z" 
id="f1_h"
transform="scale(0.001,-0.001)" />

<path d="M64,-325c0,0,-46,0,-107,14v148H-8l19,-81c0,0,25,-21,62,-21c0,0,44,0,67,47c0,0,22,47,22,152V649L57,668v33H286V-28c0,0,0,-146,-57,-221c0,0,-56,-76,-165,-76ZM213,850c0,0,-34,0,-58,24c0,0,-24,24,-24,56c0,0,0,34,24,58c0,0,24,24,58,24c0,0,32,0,56,-24c0,0,24,-24,24,-58c0,0,0,-32,-24,-56c0,0,-24,-24,-56,-24Z" 
id="f1_14"
transform="scale(0.001,-0.001)" />

<path d="M522,-20c0,0,-196,0,-290,99c0,0,-94,100,-94,324V836H276V397c0,0,0,-86,16,-147c0,0,17,-60,50,-94c0,0,34,-34,77,-49c0,0,43,-15,103,-15c0,0,59,0,102,15c0,0,44,15,77,49c0,0,33,34,50,94c0,0,17,61,17,147c0,0,0,84,-8,143c0,0,-7,58,-25,105c0,0,-17,47,-51,69c0,0,-33,23,-83,23c0,0,-50,0,-119,-22V821c0,0,85,23,150,23c0,0,76,0,130,-30c0,0,53,-31,85,-90c0,0,31,-59,45,-138c0,0,13,-78,13,-183c0,0,0,-224,-93,-324c0,0,-94,-99,-290,-99Z" 
id="f0_z"
transform="scale(0.001,-0.001)" />

<path d="M460,-325c0,0,-148,79,-231,172c0,0,-84,93,-123,217c0,0,-39,126,-39,304c0,0,0,178,39,303c0,0,39,125,122,217c0,0,82,93,232,172V997c0,0,-91,-52,-145,-134c0,0,-54,-81,-79,-190c0,0,-25,-109,-25,-305c0,0,0,-194,26,-309c0,0,26,-114,82,-193c0,0,56,-79,141,-128v-63Z" 
id="f1_19"
transform="scale(0.001,-0.001)" />

<path d="M49,-325v63c0,0,85,49,140,128c0,0,56,79,83,194c0,0,26,115,26,308c0,0,0,196,-25,305c0,0,-25,109,-79,190c0,0,-54,82,-145,134v63c0,0,149,-80,232,-172c0,0,83,-92,122,-217c0,0,39,-125,39,-303c0,0,0,-177,-39,-303c0,0,-39,-125,-122,-217c0,0,-83,-93,-232,-173Z" 
id="f1_1a"
transform="scale(0.001,-0.001)" />

<path d="M55,0V40L184,60V941L55,960v40H455V960L327,941V60L455,40V0Z" 
id="f1_1b"
transform="scale(0.001,-0.001)" />

<path d="M0,-141L388,1114H514L127,-141Z" 
id="f0_1m"
transform="scale(0.001,-0.001)" />

<path d="M248,0L521,658H66v429H313V836l493,-1V716L504,0Z" 
id="f3_g"
transform="scale(0.001,-0.001)" />

<path d="M66,0V177H334c0,0,99,0,150,66c0,0,51,67,51,175c0,0,0,108,-51,175c0,0,-51,66,-150,66H66V836H334c0,0,92,0,168,-24c0,0,75,-24,127,-64c0,0,51,-40,86,-94c0,0,35,-54,51,-113c0,0,15,-60,15,-123c0,0,0,-63,-15,-123c0,0,-16,-59,-51,-113c0,0,-35,-54,-86,-94C629,88,577,48,502,24C502,24,426,0,334,0Z" 
id="f3_h"
transform="scale(0.001,-0.001)" />

<path d="M121,0V211L528,570c0,0,54,50,80,96c0,0,27,47,27,98c0,0,0,78,-53,126c0,0,-53,48,-140,48c0,0,-67,0,-147,-29c0,0,-80,-28,-171,-85v245c0,0,97,32,192,48c0,0,95,17,186,17c0,0,199,0,310,-88c0,0,111,-88,111,-245c0,0,0,-91,-47,-170c0,0,-47,-79,-197,-211L441,211H931V0Z" 
id="f3_m"
transform="scale(0.001,-0.001)" />

<path d="M41,0V49l69,18V634L41,652v49H313l11,-61l50,26c0,0,105,54,188,54c0,0,194,0,194,-207V67L827,49V0H478V49l63,18V484c0,0,0,63,-27,98c0,0,-26,35,-75,35c0,0,-57,0,-114,-25V67L389,49V0Z" 
id="f2_v"
transform="scale(0.001,-0.001)" />

<path d="M20,-236v69c0,0,47,14,81,37c0,0,33,24,52,52c0,0,18,28,18,53c0,0,0,17,-11,28c0,0,-12,12,-45,30c0,0,-57,30,-57,93c0,0,0,48,34,74c0,0,33,25,85,25c0,0,63,0,105,-41c0,0,42,-41,42,-105c0,0,0,-115,-78,-195c0,0,-77,-81,-226,-120Z" 
id="f2_w"
transform="scale(0.001,-0.001)" />

<path d="M379,60c0,0,59,0,84,64c0,0,24,65,24,231c0,0,0,164,-24,227c0,0,-24,63,-84,63c0,0,-57,0,-80,-60c0,0,-22,-61,-22,-230c0,0,0,-173,23,-234c0,0,22,-61,79,-61Zm-2,-74c0,0,-161,0,-240,91c0,0,-79,91,-79,277c0,0,0,186,80,276c0,0,81,90,245,90c0,0,167,0,245,-93c0,0,78,-93,78,-273c0,0,0,-188,-81,-278c0,0,-81,-90,-248,-90Z" 
id="f2_k"
transform="scale(0.001,-0.001)" />

<path d="M41,0V49l91,18V634L41,652v49H336l8,-145c0,0,80,89,144,128c0,0,64,40,117,40h40V468H604l-45,94c0,0,-47,0,-106,-21c0,0,-60,-20,-105,-48V67L460,49V0Z" 
id="f2_o"
transform="scale(0.001,-0.001)" />

<path d="M41,0V49l69,18V634L41,652v49H313l11,-61l50,26c0,0,105,54,188,54c0,0,125,0,167,-91c0,0,153,91,258,91c0,0,189,0,189,-207V67l71,-17V0H898V50l63,17V484c0,0,0,63,-24,98c0,0,-25,35,-74,35c0,0,-55,0,-119,-31c0,0,7,-32,7,-73V67L821,50V0H473V50l63,17V484c0,0,0,63,-25,98c0,0,-24,35,-73,35c0,0,-49,0,-113,-29V67L389,49V0Z" 
id="f2_x"
transform="scale(0.001,-0.001)" />

<path d="M345,75c0,0,50,0,110,26V351l-63,-2c0,0,-72,-3,-100,-38c0,0,-28,-35,-28,-113c0,0,0,-63,22,-93c0,0,23,-30,59,-30ZM266,-14c0,0,-217,0,-217,208c0,0,0,79,32,126c0,0,32,48,93,71c0,0,60,22,190,25l91,2V521c0,0,0,126,-104,126c0,0,-62,0,-140,-39L183,521H134V691c0,0,112,17,165,21c0,0,53,5,108,5c0,0,264,0,264,-194V67L741,49V0H483L466,54C466,54,408,14,361,0c0,0,-47,-14,-95,-14Z" 
id="f2_j"
transform="scale(0.001,-0.001)" />

<path d="M416,68c0,0,60,0,124,32V628c0,0,-58,15,-118,15c0,0,-67,0,-104,-73c0,0,-38,-73,-38,-216c0,0,0,-139,36,-212c0,0,35,-74,100,-74ZM369,-14c0,0,-155,0,-231,88c0,0,-76,90,-76,274c0,0,0,182,82,277c0,0,81,95,236,95c0,0,82,0,165,-20c0,0,-5,24,-5,115V992l-72,18v50H756V67L833,49V0H562L547,40C547,40,505,13,483,4c0,0,-23,-7,-51,-12c0,0,-28,-6,-63,-6Z" 
id="f2_y"
transform="scale(0.001,-0.001)" />

<path d="M425,-14c0,0,-187,0,-280,90c0,0,-93,90,-93,276c0,0,0,115,42,198c0,0,43,82,121,126c0,0,78,44,182,44c0,0,104,0,227,-26V486H571L539,609c0,0,-25,19,-50,26c0,0,-24,7,-65,7c0,0,-44,0,-79,-35c0,0,-36,-35,-56,-98c0,0,-20,-64,-20,-153c0,0,0,-150,47,-214c0,0,47,-64,148,-64c0,0,103,0,176,21V42C640,42,606,15,547,0c0,0,-59,-14,-122,-14Z" 
id="f2_p"
transform="scale(0.001,-0.001)" />

<path d="M34,0V49l76,18V634L38,652v49H325V67L402,49V0ZM217,831c0,0,-48,0,-81,33c0,0,-34,33,-34,82c0,0,0,48,34,81c0,0,34,33,81,33c0,0,48,0,81,-33c0,0,33,-33,33,-81c0,0,0,-47,-33,-81c0,0,-32,-34,-81,-34Z" 
id="f2_r"
transform="scale(0.001,-0.001)" />

<path d="M379,60c0,0,59,0,84,64c0,0,24,65,24,230c0,0,0,164,-24,228c0,0,-24,63,-84,63c0,0,-57,0,-80,-61c0,0,-22,-60,-22,-230c0,0,0,-172,23,-233c0,0,22,-61,79,-61Zm-2,-74c0,0,-161,0,-240,90c0,0,-79,92,-79,278c0,0,0,186,80,276c0,0,81,90,245,90c0,0,167,0,245,-93c0,0,78,-93,78,-273c0,0,0,-188,-81,-279c0,0,-81,-89,-248,-89ZM280,834v25l124,203H616v-28L344,834Z" 
id="f2_z"
transform="scale(0.001,-0.001)" />

<path d="M276,-14c0,0,-57,0,-125,13C151,-1,83,10,48,23V214H97l28,-98c0,0,26,-26,69,-44c0,0,42,-17,86,-17c0,0,65,0,97,28c0,0,32,28,32,71c0,0,0,41,-31,65c0,0,-30,25,-133,57c0,0,-108,34,-154,92c0,0,-45,58,-45,143c0,0,0,95,71,152c0,0,71,57,183,57c0,0,77,0,207,-22V518H457l-24,82c0,0,-21,22,-60,35c0,0,-40,14,-75,14c0,0,-53,0,-79,-22c0,0,-26,-22,-26,-59c0,0,0,-40,32,-65c0,0,32,-26,132,-55c0,0,109,-34,155,-89c0,0,45,-55,45,-137c0,0,0,-117,-72,-177c0,0,-72,-59,-209,-59Z" 
id="f2_11"
transform="scale(0.001,-0.001)" />

<path d="M30,0V34L352,634H272c0,0,-41,0,-80,-7c0,0,-39,-8,-54,-19L115,492H61V701H606V664L283,67H395c0,0,43,0,90,11c0,0,47,10,66,24l40,162h54L624,0Z" 
id="f2_12"
transform="scale(0.001,-0.001)" />

<path d="M433,-329v111H545V-329Zm-93,185V-32H452V-144Zm186,0V-32H638V-144Z" 
id="f0_11"
transform="scale(0.001,-0.001)" />

<path d="M211,-20c0,0,-39,0,-64,25c0,0,-26,27,-26,64c0,0,0,38,26,64c0,0,26,26,64,26c0,0,37,0,64,-25c0,0,26,-26,26,-65c0,0,0,-37,-26,-64c0,0,-26,-25,-64,-25Zm0,556c0,0,-38,0,-64,26c0,0,-26,26,-26,64c0,0,0,37,26,64c0,0,25,27,64,27c0,0,38,0,64,-27c0,0,26,-27,26,-64c0,0,0,-38,-26,-64c0,0,-27,-26,-64,-26Z" 
id="f1_1c"
transform="scale(0.001,-0.001)" />

<path d="M441,362V473H552V362Z" 
id="f0_12"
transform="scale(0.001,-0.001)" />

<path d="M433,-241v111H545V-241Z" 
id="f0_13"
transform="scale(0.001,-0.001)" />

<path d="M377,44c0,0,99,0,147,73c0,0,47,73,47,237c0,0,0,161,-47,234c0,0,-47,72,-147,72c0,0,-97,0,-141,-69c0,0,-44,-70,-44,-237c0,0,0,-169,45,-239c0,0,44,-71,140,-71Zm0,-58c0,0,-158,0,-238,94c0,0,-81,95,-81,274c0,0,0,178,81,272c0,0,80,94,244,94c0,0,160,0,241,-92c0,0,82,-92,82,-274c0,0,0,-368,-329,-368ZM301,835v24l147,203H606v-27L342,835Z" 
id="f1_a"
transform="scale(0.001,-0.001)" />

<path d="M414,-20c0,0,-70,0,-144,13c0,0,-75,13,-154,40V179c0,0,63,-36,138,-55c0,0,74,-18,156,-18c0,0,142,0,216,55c0,0,74,56,74,163c0,0,0,98,-69,153c0,0,-69,56,-192,56H309V657H445c0,0,111,0,170,44c0,0,59,45,59,128c0,0,0,86,-61,132c0,0,-61,46,-174,46c0,0,-62,0,-133,-13c0,0,-71,-14,-156,-42v134c0,0,85,24,160,36c0,0,75,12,142,12c0,0,171,0,271,-78c0,0,100,-78,100,-211c0,0,0,-92,-53,-156c0,0,-52,-64,-150,-89c0,0,108,-23,169,-96c0,0,61,-73,61,-180c0,0,0,-165,-114,-255c0,0,-113,-89,-322,-89Z" 
id="f0_1d"
transform="scale(0.001,-0.001)" />


</defs>
</svg>