<?xml version="1.0" encoding="UTF-8" standalone="no"?>
<!DOCTYPE svg PUBLIC "-//W3C//DTD SVG 1.1//EN"
"http://www.w3.org/Graphics/SVG/1.1/DTD/svg11.dtd">
<svg viewBox="0 0 909 1286" version="1.1" xmlns="http://www.w3.org/2000/svg" xmlns:xlink="http://www.w3.org/1999/xlink">
<defs>
<clipPath id="c0_7"><path d="M0,1286.2V0H909.4V1286.2Z" /></clipPath>
<clipPath id="c1_7"><path d="M642.4,262.4V241.1h.3v21.3Z" /></clipPath>
<style type="text/css"><![CDATA[
.g0_7{
fill: #D8D8D8;
}
.g1_7{
fill: none;
stroke: #000000;
stroke-width: 0.7638889;
stroke-linecap: butt;
stroke-linejoin: round;
}
.g2_7{
fill: none;
stroke: #0000FF;
stroke-width: 1.0694444;
stroke-linecap: butt;
stroke-linejoin: miter;
}
.g3_7{
fill: none;
stroke: #000000;
stroke-width: 0.9166667;
stroke-linecap: butt;
stroke-linejoin: miter;
}
]]></style>
</defs>
<path fill-rule="evenodd" d="M659.5,410.6h177V390.7h-177v19.9Z" class="g0_7" />
<path fill-rule="evenodd" d="M464.6,410.6H659.5V390.7H464.6v19.9Z" class="g0_7" />
<path fill-rule="evenodd" d="M237.3,410.6H464.5V390.7H237.3v19.9Z" class="g0_7" />
<path fill-rule="evenodd" d="M746.2,436h90.3V410.7H746.2V436Z" class="g0_7" />
<path fill-rule="evenodd" d="M659.5,436h86.6V410.7H659.5V436Z" class="g0_7" />
<path fill-rule="evenodd" d="M562.2,436h97.3V410.7H562.2V436Z" class="g0_7" />
<path fill-rule="evenodd" d="M464.8,436h97.3V410.7H464.8V436Z" class="g0_7" />
<path fill-rule="evenodd" d="M356.4,436H464.7V410.7H356.4V436Z" class="g0_7" />
<path fill-rule="evenodd" d="M237.3,436H356.4V410.7H237.3V436Z" class="g0_7" />
<path fill-rule="evenodd" d="M128.9,460.5H237.2V436H128.9v24.5Z" class="g0_7" />
<path fill-rule="evenodd" d="M128.9,485H237.2V460.6H128.9V485Z" class="g0_7" />
<path fill-rule="evenodd" d="M128.9,509.6H237.2V485.1H128.9v24.5Z" class="g0_7" />
<path fill-rule="evenodd" d="M128.9,529.6H237.2V509.7H128.9v19.9Z" class="g0_7" />
<path fill-rule="evenodd" d="M128.9,554.2H237.2V529.7H128.9v24.5Z" class="g0_7" />
<path fill-rule="evenodd" d="M128.9,574.2H237.2V554.3H128.9v19.9Z" class="g0_7" />
<path fill-rule="evenodd" d="M659.5,1075.8h177v-19.2h-177v19.2Z" class="g0_7" />
<path fill-rule="evenodd" d="M464.6,1075.8H659.5v-19.2H464.6v19.2Z" class="g0_7" />
<path fill-rule="evenodd" d="M237.3,1075.8H464.5v-19.2H237.3v19.2Z" class="g0_7" />
<path fill-rule="evenodd" d="M746.2,1097.9h90.3v-22H746.2v22Z" class="g0_7" />
<path fill-rule="evenodd" d="M659.5,1097.9h86.6v-22H659.5v22Z" class="g0_7" />
<path fill-rule="evenodd" d="M562.2,1097.9h97.3v-22H562.2v22Z" class="g0_7" />
<path fill-rule="evenodd" d="M464.8,1097.9h97.3v-22H464.8v22Z" class="g0_7" />
<path fill-rule="evenodd" d="M356.4,1097.9H464.7v-22H356.4v22Z" class="g0_7" />
<path fill-rule="evenodd" d="M237.3,1097.9H356.4v-22H237.3v22Z" class="g0_7" />
<path fill-rule="evenodd" d="M128.9,1118H237.2v-20H128.9v20Z" class="g0_7" />
<path fill-rule="evenodd" d="M128.9,1138.1H237.2V1118H128.9v20.1Z" class="g0_7" />
<path fill-rule="evenodd" d="M128.9,1158.1H237.2v-19.9H128.9v19.9Z" class="g0_7" />
<path fill-rule="evenodd" d="M659.5,410.6h177V390.7h-177v19.9Z" class="g0_7" />
<path fill-rule="evenodd" d="M464.6,410.6H659.5V390.7H464.6v19.9Z" class="g0_7" />
<path fill-rule="evenodd" d="M237.3,410.6H464.5V390.7H237.3v19.9Z" class="g0_7" />
<path fill-rule="evenodd" d="M746.2,436h90.3V410.7H746.2V436Z" class="g0_7" />
<path fill-rule="evenodd" d="M659.5,436h86.6V410.7H659.5V436Z" class="g0_7" />
<path fill-rule="evenodd" d="M562.2,436h97.3V410.7H562.2V436Z" class="g0_7" />
<path fill-rule="evenodd" d="M464.8,436h97.3V410.7H464.8V436Z" class="g0_7" />
<path fill-rule="evenodd" d="M356.4,436H464.7V410.7H356.4V436Z" class="g0_7" />
<path fill-rule="evenodd" d="M237.3,436H356.4V410.7H237.3V436Z" class="g0_7" />
<path fill-rule="evenodd" d="M128.9,460.5H237.2V436H128.9v24.5Z" class="g0_7" />
<path fill-rule="evenodd" d="M128.9,485H237.2V460.6H128.9V485Z" class="g0_7" />
<path fill-rule="evenodd" d="M128.9,509.6H237.2V485.1H128.9v24.5Z" class="g0_7" />
<path fill-rule="evenodd" d="M128.9,529.6H237.2V509.7H128.9v19.9Z" class="g0_7" />
<path fill-rule="evenodd" d="M128.9,554.2H237.2V529.7H128.9v24.5Z" class="g0_7" />
<path fill-rule="evenodd" d="M128.9,574.2H237.2V554.3H128.9v19.9Z" class="g0_7" />
<path fill-rule="evenodd" d="M659.5,1075.8h177v-19.2h-177v19.2Z" class="g0_7" />
<path fill-rule="evenodd" d="M464.6,1075.8H659.5v-19.2H464.6v19.2Z" class="g0_7" />
<path fill-rule="evenodd" d="M237.3,1075.8H464.5v-19.2H237.3v19.2Z" class="g0_7" />
<path fill-rule="evenodd" d="M746.2,1097.9h90.3v-22H746.2v22Z" class="g0_7" />
<path fill-rule="evenodd" d="M659.5,1097.9h86.6v-22H659.5v22Z" class="g0_7" />
<path fill-rule="evenodd" d="M562.2,1097.9h97.3v-22H562.2v22Z" class="g0_7" />
<path fill-rule="evenodd" d="M464.8,1097.9h97.3v-22H464.8v22Z" class="g0_7" />
<path fill-rule="evenodd" d="M356.4,1097.9H464.7v-22H356.4v22Z" class="g0_7" />
<path fill-rule="evenodd" d="M237.3,1097.9H356.4v-22H237.3v22Z" class="g0_7" />
<path fill-rule="evenodd" d="M128.9,1118H237.2v-20H128.9v20Z" class="g0_7" />
<path fill-rule="evenodd" d="M128.9,1138.1H237.2V1118H128.9v20.1Z" class="g0_7" />
<path fill-rule="evenodd" d="M128.9,1158.1H237.2v-19.9H128.9v19.9Z" class="g0_7" />
<path d="M129.2,110.4H378.3M129.2,132.5H378.3M129.2,154.7H378.3M129.2,176.8H378.3M129.2,199H378.3" class="g1_7" />
<g clip-path="url(#c0_7)">
<g fill="#000000" >
<use xlink:href="#f0_8" transform="matrix(12,0,0,12,490.7,127.9)" />
<use xlink:href="#f0_l" transform="matrix(12,0,0,12,496.5,127.9)" />
<use xlink:href="#f0_i" transform="matrix(12,0,0,12,508.7,127.9)" />
<use xlink:href="#f0_m" transform="matrix(12,0,0,12,512.7,127.9)" />
<use xlink:href="#f0_6" transform="matrix(12,0,0,12,524.2,127.9)" />
<use xlink:href="#f0_j" transform="matrix(12,0,0,12,529.2,127.9)" />
<use xlink:href="#f0_c" transform="matrix(12,0,0,12,542.2,127.9)" />
<use xlink:href="#f0_l" transform="matrix(12,0,0,12,561,127.9)" />
<use xlink:href="#f0_i" transform="matrix(12,0,0,12,573.2,127.9)" />
<use xlink:href="#f0_7" transform="matrix(12,0,0,12,577.3,127.9)" />
<use xlink:href="#f0_g" transform="matrix(12,0,0,12,589.8,127.9)" />
<use xlink:href="#f0_8" transform="matrix(12,0,0,12,412.2,150)" />
<use xlink:href="#f0_l" transform="matrix(12,0,0,12,418,150)" />
<use xlink:href="#f0_i" transform="matrix(12,0,0,12,430.2,150)" />
<use xlink:href="#f0_e" transform="matrix(12,0,0,12,434.3,150)" />
<use xlink:href="#f0_d" transform="matrix(12,0,0,12,445.8,150)" />
<use xlink:href="#f0_s" transform="matrix(12,0,0,12,463.5,150)" />
<use xlink:href="#f0_6" transform="matrix(12,0,0,12,475.7,150)" />
<use xlink:href="#f0_g" transform="matrix(12,0,0,12,480.7,150)" />
<use xlink:href="#f0_l" transform="matrix(12,0,0,12,498.5,150)" />
<use xlink:href="#f0_6" transform="matrix(12,0,0,12,510.7,150)" />
<use xlink:href="#f0_a" transform="matrix(12,0,0,12,515.7,150)" />
<use xlink:href="#f0_s" transform="matrix(12,0,0,12,525.8,150)" />
<use xlink:href="#f0_g" transform="matrix(12,0,0,12,538,150)" />
<use xlink:href="#f0_q" transform="matrix(12,0,0,12,555.9,150)" />
<use xlink:href="#f0_c" transform="matrix(12,0,0,12,566.2,150)" />
<use xlink:href="#f0_f" transform="matrix(12,0,0,12,579.2,150)" />
<use xlink:href="#f0_g" transform="matrix(12,0,0,12,589.8,150)" />
<use xlink:href="#f0_8" transform="matrix(12,0,0,12,509.7,172.2)" />
<use xlink:href="#f0_b" transform="matrix(12,0,0,12,515.5,172.2)" />
<use xlink:href="#f0_6" transform="matrix(12,0,0,12,525.9,172.2)" />
<use xlink:href="#f0_n" transform="matrix(12,0,0,12,530.9,172.2)" />
<use xlink:href="#f0_o" transform="matrix(12,0,0,12,538.4,172.2)" />
<use xlink:href="#f0_q" transform="matrix(12,0,0,12,556.1,172.2)" />
<use xlink:href="#f0_m" transform="matrix(12,0,0,12,566.5,172.2)" />
<use xlink:href="#f0_o" transform="matrix(12,0,0,12,577.9,172.2)" />
<use xlink:href="#f0_g" transform="matrix(12,0,0,12,589.8,172.2)" />
<use xlink:href="#f0_8" transform="matrix(12,0,0,12,488,194.3)" />
<use xlink:href="#f0_h" transform="matrix(12,0,0,12,493.8,194.3)" />
<use xlink:href="#f0_6" transform="matrix(12,0,0,12,505.8,194.3)" />
<use xlink:href="#f0_9" transform="matrix(12,0,0,12,510.9,194.3)" />
<use xlink:href="#f0_f" transform="matrix(12,0,0,12,518.2,194.3)" />
<use xlink:href="#f0_b" transform="matrix(12,0,0,12,528.7,194.3)" />
<use xlink:href="#f0_l" transform="matrix(12,0,0,12,544.9,194.3)" />
<use xlink:href="#f0_i" transform="matrix(12,0,0,12,557.1,194.3)" />
<use xlink:href="#f0_i" transform="matrix(12,0,0,12,561.3,194.3)" />
<use xlink:href="#f0_9" transform="matrix(12,0,0,12,565.4,194.3)" />
<use xlink:href="#f0_i" transform="matrix(12,0,0,12,572.7,194.3)" />
<use xlink:href="#f0_c" transform="matrix(12,0,0,12,576.8,194.3)" />
<use xlink:href="#f0_g" transform="matrix(12,0,0,12,589.8,194.3)" />
</g>
<g fill="#0000FF" >
<use xlink:href="#f0_b" transform="matrix(12,0,0,12,649.3,258.2)" />
<use xlink:href="#f0_i" transform="matrix(12,0,0,12,660,258.2)" />
<use xlink:href="#f0_n" transform="matrix(12,0,0,12,664.5,258.2)" />
<use xlink:href="#f0_q" transform="matrix(12,0,0,12,672.3,258.2)" />
<use xlink:href="#f0_h" transform="matrix(12,0,0,12,683.1,258.2)" />
<use xlink:href="#f0_b" transform="matrix(12,0,0,12,695.5,258.2)" />
<use xlink:href="#f0_h" transform="matrix(12,0,0,12,712.4,258.2)" />
<use xlink:href="#f0_6" transform="matrix(12,0,0,12,724.9,258.2)" />
<use xlink:href="#f0_f" transform="matrix(12,0,0,12,730.3,258.2)" />
<use xlink:href="#f0_6" transform="matrix(12,0,0,12,741.2,258.2)" />
<use xlink:href="#f0_c" transform="matrix(12,0,0,12,746.6,258.2)" />
<use xlink:href="#f0_h" transform="matrix(12,0,0,12,759.8,258.2)" />
</g>
</g>
<path d="M642.9,260H772.1" class="g2_7" />
<g clip-path="url(#c1_7)">
<path d="M642.4,260h5.8" class="g2_7" />
</g>
<g clip-path="url(#c0_7)">
<g fill="#0000FF" >
<use xlink:href="#f0_1f" transform="matrix(12,0,0,12,630.7,258.2)" />
</g>
</g>
<path d="M630.7,260h11.6" class="g2_7" />
<g clip-path="url(#c0_7)">
<g fill="#000000" >
<use xlink:href="#f1_3" transform="matrix(15.5,0,0,15.5,684.9,326.3)" />
<use xlink:href="#f1_a" transform="matrix(15.5,0,0,15.5,693.1,326.3)" />
<use xlink:href="#f1_1a" transform="matrix(15.5,0,0,15.5,699.8,326.3)" />
<use xlink:href="#f1_6" transform="matrix(15.5,0,0,15.5,707.7,326.3)" />
<use xlink:href="#f1_9" transform="matrix(15.5,0,0,15.5,731.2,326.3)" />
<use xlink:href="#f1_a" transform="matrix(15.5,0,0,15.5,739.4,326.3)" />
<use xlink:href="#f1_8" transform="matrix(15.5,0,0,15.5,746,326.3)" />
<use xlink:href="#f1_b" transform="matrix(15.5,0,0,15.5,757.9,326.3)" />
<use xlink:href="#f1_1b" transform="matrix(15.5,0,0,15.5,659.7,326.3)" />
<use xlink:href="#f1_d" transform="matrix(15.5,0,0,15.5,569.4,326.3)" />
<use xlink:href="#f1_e" transform="matrix(15.5,0,0,15.5,587.1,326.3)" />
<use xlink:href="#f1_f" transform="matrix(15.5,0,0,15.5,601.9,326.3)" />
<use xlink:href="#f1_g" transform="matrix(15.5,0,0,15.5,613.9,326.3)" />
<use xlink:href="#f1_5" transform="matrix(15.5,0,0,15.5,627.1,326.3)" />
<use xlink:href="#f1_h" transform="matrix(15.5,0,0,15.5,633.6,326.3)" />
<use xlink:href="#f1_1c" transform="matrix(15.5,0,0,15.5,529.2,326.3)" />
<use xlink:href="#f1_c" transform="matrix(15.5,0,0,15.5,546.6,326.3)" />
<use xlink:href="#f0_8" transform="matrix(12,0,0,12,228.1,367)" />
<use xlink:href="#f0_a" transform="matrix(12,0,0,12,233.9,367)" />
<use xlink:href="#f0_f" transform="matrix(12,0,0,12,244,367)" />
<use xlink:href="#f0_6" transform="matrix(12,0,0,12,254.5,367)" />
<use xlink:href="#f0_e" transform="matrix(12,0,0,12,259.5,367)" />
<use xlink:href="#f0_i" transform="matrix(12,0,0,12,276.8,367)" />
<use xlink:href="#f0_9" transform="matrix(12,0,0,12,280.9,367)" />
<use xlink:href="#f0_c" transform="matrix(12,0,0,12,288.2,367)" />
<use xlink:href="#f0_g" transform="matrix(12,0,0,12,301.2,367)" />
<use xlink:href="#f0_n" transform="matrix(12,0,0,12,319.1,367)" />
<use xlink:href="#f0_i" transform="matrix(12,0,0,12,326.6,367)" />
<use xlink:href="#f0_q" transform="matrix(12,0,0,12,330.7,367)" />
<use xlink:href="#f0_k" transform="matrix(12,0,0,12,341,367)" />
<use xlink:href="#f0_g" transform="matrix(12,0,0,12,353,367)" />
<use xlink:href="#f0_a" transform="matrix(12,0,0,12,370.7,367)" />
<use xlink:href="#f0_r" transform="matrix(12,0,0,12,380.8,367)" />
<use xlink:href="#f0_i" transform="matrix(12,0,0,12,391.6,367)" />
<use xlink:href="#f0_4" transform="matrix(12,0,0,12,395.7,367)" />
<use xlink:href="#f0_h" transform="matrix(12,0,0,12,411.2,367)" />
<use xlink:href="#f0_6" transform="matrix(12,0,0,12,423.2,367)" />
<use xlink:href="#f0_q" transform="matrix(12,0,0,12,428.2,367)" />
<use xlink:href="#f0_i" transform="matrix(12,0,0,12,438.6,367)" />
<use xlink:href="#f0_c" transform="matrix(12,0,0,12,442.6,367)" />
<use xlink:href="#f0_i" transform="matrix(12,0,0,12,455.6,367)" />
<use xlink:href="#f0_l" transform="matrix(12,0,0,12,465.5,367)" />
<use xlink:href="#f0_i" transform="matrix(12,0,0,12,477.7,367)" />
<use xlink:href="#f0_n" transform="matrix(12,0,0,12,481.8,367)" />
<use xlink:href="#f0_a" transform="matrix(12,0,0,12,489.3,367)" />
<use xlink:href="#f0_9" transform="matrix(12,0,0,12,499.3,367)" />
<use xlink:href="#f0_2" transform="matrix(12,0,0,12,512.6,367)" />
<use xlink:href="#f0_n" transform="matrix(12,0,0,12,518.4,367)" />
<use xlink:href="#f0_i" transform="matrix(12,0,0,12,525.9,367)" />
<use xlink:href="#f0_q" transform="matrix(12,0,0,12,530,367)" />
<use xlink:href="#f0_k" transform="matrix(12,0,0,12,540.4,367)" />
<use xlink:href="#f0_b" transform="matrix(12,0,0,12,558.1,367)" />
<use xlink:href="#f0_e" transform="matrix(12,0,0,12,568.5,367)" />
<use xlink:href="#f0_6" transform="matrix(12,0,0,12,580,367)" />
<use xlink:href="#f0_m" transform="matrix(12,0,0,12,585,367)" />
<use xlink:href="#f0_6" transform="matrix(12,0,0,12,602.2,367)" />
<use xlink:href="#f0_g" transform="matrix(12,0,0,12,607.1,367)" />
<use xlink:href="#f0_7" transform="matrix(12,0,0,12,619.1,367)" />
<use xlink:href="#f0_e" transform="matrix(12,0,0,12,637.5,367)" />
<use xlink:href="#f0_a" transform="matrix(12,0,0,12,649,367)" />
<use xlink:href="#f0_6" transform="matrix(12,0,0,12,658.9,367)" />
<use xlink:href="#f0_i" transform="matrix(12,0,0,12,664,367)" />
<use xlink:href="#f0_g" transform="matrix(12,0,0,12,674,367)" />
<use xlink:href="#f0_h" transform="matrix(12,0,0,12,685.9,367)" />
<use xlink:href="#f0_s" transform="matrix(12,0,0,12,698,367)" />
<use xlink:href="#f0_c" transform="matrix(12,0,0,12,710.2,367)" />
<use xlink:href="#f0_4" transform="matrix(12,0,0,12,723.2,367)" />
<use xlink:href="#f0_h" transform="matrix(12,0,0,12,738.6,367)" />
<use xlink:href="#f0_e" transform="matrix(12,0,0,12,750.7,367)" />
<use xlink:href="#f0_4" transform="matrix(12,0,0,12,762.1,367)" />
</g>
</g>
<path d="M236.9,391H837M236.9,411H837M128.6,436.4H837M128.6,461H837M128.6,485.5H837M128.6,510H837M128.6,530.1H837M128.6,554.7H837m-708.4,20H837M128.9,436V575.1M237.3,390.7v20m0,25.3V575.1m0,-164.4v26.1M464.6,390.7v20.7m0,24.6V575.1m.2,-164.4v26.1M659.5,390.7V575.1M836.6,390.7V575.1" class="g1_7" />
<g clip-path="url(#c0_7)">
<g fill="#000000" >
<use xlink:href="#f2_a" transform="matrix(11,0,0,11,739.8,407)" />
<use xlink:href="#f2_b" transform="matrix(11,0,0,11,745.4,407)" />
<use xlink:href="#f2_c" transform="matrix(11,0,0,11,551.5,407)" />
<use xlink:href="#f2_b" transform="matrix(11,0,0,11,561.8,407)" />
<use xlink:href="#f2_d" transform="matrix(11,0,0,11,339.3,407)" />
<use xlink:href="#f2_b" transform="matrix(11,0,0,11,351.4,407)" />
<use xlink:href="#f0_3" transform="matrix(12,0,0,12,791.1,428.5)" />
<use xlink:href="#f0_6" transform="matrix(12,0,0,12,796.1,428.5)" />
<use xlink:href="#f0_c" transform="matrix(12,0,0,12,801,428.5)" />
<use xlink:href="#f0_i" transform="matrix(12,0,0,12,814,428.5)" />
<use xlink:href="#f0_b" transform="matrix(12,0,0,12,818.1,428.5)" />
<use xlink:href="#f2_p" transform="matrix(11,0,0,11,668.4,431.4)" />
<use xlink:href="#f1_t" transform="matrix(14,0,0,14,676.8,431.4)" />
<use xlink:href="#f2_8" transform="matrix(11,0,0,11,687.5,431.4)" />
<use xlink:href="#f2_r" transform="matrix(11,0,0,11,693,431.4)" />
<use xlink:href="#f2_3" transform="matrix(11,0,0,11,706.1,431.4)" />
<use xlink:href="#f2_8" transform="matrix(11,0,0,11,710.7,431.4)" />
<use xlink:href="#f0_b" transform="matrix(12,0,0,12,572.9,428.5)" />
<use xlink:href="#f0_6" transform="matrix(12,0,0,12,583.3,428.5)" />
<use xlink:href="#f0_4" transform="matrix(12,0,0,12,588.3,428.5)" />
<use xlink:href="#f0_i" transform="matrix(12,0,0,12,598,428.5)" />
<use xlink:href="#f0_h" transform="matrix(12,0,0,12,607.9,428.5)" />
<use xlink:href="#f0_6" transform="matrix(12,0,0,12,619.9,428.5)" />
<use xlink:href="#f0_i" transform="matrix(12,0,0,12,624.9,428.5)" />
<use xlink:href="#f0_g" transform="matrix(12,0,0,12,629.1,428.5)" />
<use xlink:href="#f0_b" transform="matrix(12,0,0,12,641,428.5)" />
<use xlink:href="#f2_4" transform="matrix(11,0,0,11,473.5,431.4)" />
<use xlink:href="#f1_t" transform="matrix(14,0,0,14,481.9,431.4)" />
<use xlink:href="#f2_p" transform="matrix(11,0,0,11,492.6,431.4)" />
<use xlink:href="#f2_2" transform="matrix(11,0,0,11,501,431.4)" />
<use xlink:href="#f2_8" transform="matrix(11,0,0,11,508.4,431.4)" />
<use xlink:href="#f0_12" transform="matrix(12,0,0,12,417.8,428.5)" />
<use xlink:href="#f0_6" transform="matrix(12,0,0,12,429.6,428.5)" />
<use xlink:href="#f0_e" transform="matrix(12,0,0,12,434.6,428.5)" />
<use xlink:href="#f0_b" transform="matrix(12,0,0,12,446.1,428.5)" />
<use xlink:href="#f2_v" transform="matrix(11,0,0,11,246.1,431.4)" />
<use xlink:href="#f1_t" transform="matrix(14,0,0,14,254.5,431.4)" />
<use xlink:href="#f2_m" transform="matrix(11,0,0,11,265.2,431.4)" />
<use xlink:href="#f2_7" transform="matrix(11,0,0,11,269.8,431.4)" />
<use xlink:href="#f2_8" transform="matrix(11,0,0,11,277.3,431.4)" />
<use xlink:href="#f2_p" transform="matrix(11,0,0,11,668.4,456.2)" />
<use xlink:href="#f1_r" transform="matrix(13.5,0,0,13.5,676.8,456.2)" />
<use xlink:href="#f1_j" transform="matrix(13.5,0,0,13.5,688.3,456.2)" />
<use xlink:href="#f2_8" transform="matrix(11,0,0,11,697.4,456.2)" />
<use xlink:href="#f2_r" transform="matrix(11,0,0,11,702.9,456.2)" />
<use xlink:href="#f2_9" transform="matrix(11,0,0,11,716.1,456.2)" />
<use xlink:href="#f2_4" transform="matrix(11,0,0,11,473.5,456.2)" />
<use xlink:href="#f1_r" transform="matrix(13.5,0,0,13.5,481.9,456.2)" />
<use xlink:href="#f1_j" transform="matrix(13.5,0,0,13.5,493.3,456.2)" />
<use xlink:href="#f2_p" transform="matrix(11,0,0,11,502.5,456.2)" />
<use xlink:href="#f2_9" transform="matrix(11,0,0,11,510.9,456.2)" />
<use xlink:href="#f2_v" transform="matrix(11,0,0,11,246,456.2)" />
<use xlink:href="#f1_r" transform="matrix(13.5,0,0,13.5,254.4,456.2)" />
<use xlink:href="#f1_j" transform="matrix(13.5,0,0,13.5,265.8,456.2)" />
<use xlink:href="#f2_m" transform="matrix(11,0,0,11,275,456.2)" />
<use xlink:href="#f2_9" transform="matrix(11,0,0,11,279.7,456.2)" />
<use xlink:href="#f2_i" transform="matrix(11,0,0,11,137.7,452.5)" />
<use xlink:href="#f2_9" transform="matrix(11,0,0,11,146.1,452.5)" />
<use xlink:href="#f2_p" transform="matrix(11,0,0,11,668.4,480.6)" />
<use xlink:href="#f1_r" transform="matrix(13.5,0,0,13.5,676.8,480.6)" />
<use xlink:href="#f1_j" transform="matrix(13.5,0,0,13.5,688.3,480.6)" />
<use xlink:href="#f2_8" transform="matrix(11,0,0,11,697.4,480.6)" />
<use xlink:href="#f2_r" transform="matrix(11,0,0,11,702.9,480.6)" />
<use xlink:href="#f2_2" transform="matrix(11,0,0,11,716.1,480.6)" />
<use xlink:href="#f2_6" transform="matrix(11,0,0,11,723.5,480.6)" />
<use xlink:href="#f2_4" transform="matrix(11,0,0,11,473.5,480.6)" />
<use xlink:href="#f1_r" transform="matrix(13.5,0,0,13.5,481.9,480.6)" />
<use xlink:href="#f1_j" transform="matrix(13.5,0,0,13.5,493.3,480.6)" />
<use xlink:href="#f2_p" transform="matrix(11,0,0,11,502.5,480.6)" />
<use xlink:href="#f2_2" transform="matrix(11,0,0,11,510.9,480.6)" />
<use xlink:href="#f2_6" transform="matrix(11,0,0,11,518.2,480.6)" />
<use xlink:href="#f2_v" transform="matrix(11,0,0,11,246,480.6)" />
<use xlink:href="#f1_r" transform="matrix(13.5,0,0,13.5,254.4,480.6)" />
<use xlink:href="#f1_j" transform="matrix(13.5,0,0,13.5,265.8,480.6)" />
<use xlink:href="#f2_m" transform="matrix(11,0,0,11,275,480.6)" />
<use xlink:href="#f2_7" transform="matrix(11,0,0,11,279.7,480.6)" />
<use xlink:href="#f2_6" transform="matrix(11,0,0,11,287.2,480.6)" />
<use xlink:href="#f2_e" transform="matrix(11,0,0,11,137.7,477)" />
<use xlink:href="#f2_j" transform="matrix(11,0,0,11,142.4,477)" />
<use xlink:href="#f2_p" transform="matrix(11,0,0,11,668.4,505.2)" />
<use xlink:href="#f1_r" transform="matrix(13.5,0,0,13.5,676.8,505.2)" />
<use xlink:href="#f1_j" transform="matrix(13.5,0,0,13.5,688.3,505.2)" />
<use xlink:href="#f2_8" transform="matrix(11,0,0,11,697.4,505.2)" />
<use xlink:href="#f2_r" transform="matrix(11,0,0,11,702.9,505.2)" />
<use xlink:href="#f2_2" transform="matrix(11,0,0,11,716.1,505.2)" />
<use xlink:href="#f2_4" transform="matrix(11,0,0,11,473.5,505.2)" />
<use xlink:href="#f1_r" transform="matrix(13.5,0,0,13.5,481.9,505.2)" />
<use xlink:href="#f1_j" transform="matrix(13.5,0,0,13.5,493.3,505.2)" />
<use xlink:href="#f2_p" transform="matrix(11,0,0,11,502.5,505.2)" />
<use xlink:href="#f2_2" transform="matrix(11,0,0,11,510.9,505.2)" />
<use xlink:href="#f2_v" transform="matrix(11,0,0,11,246,505.2)" />
<use xlink:href="#f1_r" transform="matrix(13.5,0,0,13.5,254.4,505.2)" />
<use xlink:href="#f1_j" transform="matrix(13.5,0,0,13.5,265.8,505.2)" />
<use xlink:href="#f2_m" transform="matrix(11,0,0,11,275,505.2)" />
<use xlink:href="#f2_7" transform="matrix(11,0,0,11,279.7,505.2)" />
<use xlink:href="#f2_l" transform="matrix(11,0,0,11,137.7,501.6)" />
<use xlink:href="#f2_m" transform="matrix(11,0,0,11,145.1,501.6)" />
<use xlink:href="#f2_n" transform="matrix(11,0,0,11,149.7,501.6)" />
<use xlink:href="#f2_2" transform="matrix(11,0,0,11,154.4,501.6)" />
<use xlink:href="#f2_m" transform="matrix(11,0,0,11,161.9,501.6)" />
<use xlink:href="#f2_m" transform="matrix(11,0,0,11,166.5,501.6)" />
<use xlink:href="#f2_7" transform="matrix(11,0,0,11,171.2,501.6)" />
<use xlink:href="#f2_n" transform="matrix(11,0,0,11,178.7,501.6)" />
<use xlink:href="#f2_o" transform="matrix(11,0,0,11,183.4,501.6)" />
<use xlink:href="#f2_p" transform="matrix(11,0,0,11,195.4,501.6)" />
<use xlink:href="#f2_q" transform="matrix(11,0,0,11,203.8,501.6)" />
<use xlink:href="#f2_p" transform="matrix(11,0,0,11,668.4,526)" />
<use xlink:href="#f2_9" transform="matrix(11,0,0,11,676.8,526)" />
<use xlink:href="#f2_8" transform="matrix(11,0,0,11,685.1,526)" />
<use xlink:href="#f2_r" transform="matrix(11,0,0,11,690.7,526)" />
<use xlink:href="#f2_3" transform="matrix(11,0,0,11,703.8,526)" />
<use xlink:href="#f2_r" transform="matrix(11,0,0,11,708.4,526)" />
<use xlink:href="#f2_9" transform="matrix(11,0,0,11,721.5,526)" />
<use xlink:href="#f2_6" transform="matrix(11,0,0,11,729.9,526)" />
<use xlink:href="#f2_4" transform="matrix(11,0,0,11,473.5,526)" />
<use xlink:href="#f2_9" transform="matrix(11,0,0,11,481.9,526)" />
<use xlink:href="#f2_p" transform="matrix(11,0,0,11,490.3,526)" />
<use xlink:href="#f2_2" transform="matrix(11,0,0,11,498.7,526)" />
<use xlink:href="#f2_r" transform="matrix(11,0,0,11,506,526)" />
<use xlink:href="#f2_9" transform="matrix(11,0,0,11,519.1,526)" />
<use xlink:href="#f2_6" transform="matrix(11,0,0,11,527.5,526)" />
<use xlink:href="#f2_v" transform="matrix(11,0,0,11,246,526)" />
<use xlink:href="#f2_9" transform="matrix(11,0,0,11,254.4,526)" />
<use xlink:href="#f2_m" transform="matrix(11,0,0,11,262.8,526)" />
<use xlink:href="#f2_7" transform="matrix(11,0,0,11,267.5,526)" />
<use xlink:href="#f2_r" transform="matrix(11,0,0,11,274.8,526)" />
<use xlink:href="#f2_9" transform="matrix(11,0,0,11,288,526)" />
<use xlink:href="#f2_6" transform="matrix(11,0,0,11,296.4,526)" />
<use xlink:href="#f2_5" transform="matrix(11,0,0,11,137.7,526)" />
<use xlink:href="#f2_9" transform="matrix(11,0,0,11,146.1,526)" />
<use xlink:href="#f2_6" transform="matrix(11,0,0,11,154.5,526)" />
<use xlink:href="#f2_9" transform="matrix(11,0,0,11,161,526)" />
<use xlink:href="#f2_e" transform="matrix(11,0,0,11,169.4,526)" />
<use xlink:href="#f2_8" transform="matrix(11,0,0,11,174,526)" />
<use xlink:href="#f2_9" transform="matrix(11,0,0,11,179.6,526)" />
<use xlink:href="#f2_6" transform="matrix(11,0,0,11,188,526)" />
<use xlink:href="#f2_n" transform="matrix(11,0,0,11,194.6,526)" />
<use xlink:href="#f2_7" transform="matrix(11,0,0,11,199.3,526)" />
<use xlink:href="#f2_6" transform="matrix(11,0,0,11,206.6,526)" />
<use xlink:href="#f2_p" transform="matrix(11,0,0,11,668.4,549.8)" />
<use xlink:href="#f1_r" transform="matrix(13.5,0,0,13.5,676.8,549.8)" />
<use xlink:href="#f1_j" transform="matrix(13.5,0,0,13.5,688.3,549.8)" />
<use xlink:href="#f2_8" transform="matrix(11,0,0,11,697.4,549.8)" />
<use xlink:href="#f2_r" transform="matrix(11,0,0,11,702.9,549.8)" />
<use xlink:href="#f2_2" transform="matrix(11,0,0,11,716.1,549.8)" />
<use xlink:href="#f2_5" transform="matrix(11,0,0,11,723.5,549.8)" />
<use xlink:href="#f2_4" transform="matrix(11,0,0,11,473.5,549.8)" />
<use xlink:href="#f1_r" transform="matrix(13.5,0,0,13.5,481.9,549.8)" />
<use xlink:href="#f1_j" transform="matrix(13.5,0,0,13.5,493.3,549.8)" />
<use xlink:href="#f2_p" transform="matrix(11,0,0,11,502.5,549.8)" />
<use xlink:href="#f2_2" transform="matrix(11,0,0,11,510.9,549.8)" />
<use xlink:href="#f2_5" transform="matrix(11,0,0,11,518.4,549.8)" />
<use xlink:href="#f2_v" transform="matrix(11,0,0,11,246,549.8)" />
<use xlink:href="#f1_r" transform="matrix(13.5,0,0,13.5,254.4,549.8)" />
<use xlink:href="#f1_j" transform="matrix(13.5,0,0,13.5,265.8,549.8)" />
<use xlink:href="#f2_m" transform="matrix(11,0,0,11,275,549.8)" />
<use xlink:href="#f2_7" transform="matrix(11,0,0,11,279.7,549.8)" />
<use xlink:href="#f2_5" transform="matrix(11,0,0,11,287.2,549.8)" />
<use xlink:href="#f2_2" transform="matrix(11,0,0,11,137.7,546.2)" />
<use xlink:href="#f2_m" transform="matrix(11,0,0,11,145.1,546.2)" />
<use xlink:href="#f2_m" transform="matrix(11,0,0,11,149.7,546.2)" />
<use xlink:href="#f2_9" transform="matrix(11,0,0,11,154.4,546.2)" />
<use xlink:href="#f2_6" transform="matrix(11,0,0,11,162.8,546.2)" />
<use xlink:href="#f2_n" transform="matrix(11,0,0,11,169.4,546.2)" />
<use xlink:href="#f2_7" transform="matrix(11,0,0,11,174.1,546.2)" />
<use xlink:href="#f2_6" transform="matrix(11,0,0,11,181.4,546.2)" />
<use xlink:href="#f2_n" transform="matrix(11,0,0,11,188,546.2)" />
<use xlink:href="#f2_o" transform="matrix(11,0,0,11,192.7,546.2)" />
<use xlink:href="#f2_p" transform="matrix(11,0,0,11,204.8,546.2)" />
<use xlink:href="#f2_6" transform="matrix(11,0,0,11,213.2,546.2)" />
<use xlink:href="#f2_q" transform="matrix(11,0,0,11,219.7,546.2)" />
<use xlink:href="#f2_p" transform="matrix(11,0,0,11,668.4,570.6)" />
<use xlink:href="#f2_9" transform="matrix(11,0,0,11,676.8,570.6)" />
<use xlink:href="#f2_8" transform="matrix(11,0,0,11,685.1,570.6)" />
<use xlink:href="#f2_r" transform="matrix(11,0,0,11,690.7,570.6)" />
<use xlink:href="#f2_s" transform="matrix(11,0,0,11,703.8,570.6)" />
<use xlink:href="#f2_6" transform="matrix(11,0,0,11,708.4,570.6)" />
<use xlink:href="#f2_4" transform="matrix(11,0,0,11,473.5,570.6)" />
<use xlink:href="#f2_9" transform="matrix(11,0,0,11,481.9,570.6)" />
<use xlink:href="#f2_p" transform="matrix(11,0,0,11,490.3,570.6)" />
<use xlink:href="#f2_l" transform="matrix(11,0,0,11,498.7,570.6)" />
<use xlink:href="#f2_3" transform="matrix(11,0,0,11,506,570.6)" />
<use xlink:href="#f2_6" transform="matrix(11,0,0,11,510.7,570.6)" />
<use xlink:href="#f2_v" transform="matrix(11,0,0,11,246,570.6)" />
<use xlink:href="#f2_9" transform="matrix(11,0,0,11,254.4,570.6)" />
<use xlink:href="#f2_m" transform="matrix(11,0,0,11,262.8,570.6)" />
<use xlink:href="#f2_u" transform="matrix(11,0,0,11,267.5,570.6)" />
<use xlink:href="#f2_3" transform="matrix(11,0,0,11,274.8,570.6)" />
<use xlink:href="#f2_6" transform="matrix(11,0,0,11,279.5,570.6)" />
<use xlink:href="#f2_v" transform="matrix(11,0,0,11,137.7,570.6)" />
<use xlink:href="#f2_9" transform="matrix(11,0,0,11,146.1,570.6)" />
<use xlink:href="#f2_6" transform="matrix(11,0,0,11,154.5,570.6)" />
<use xlink:href="#f2_9" transform="matrix(11,0,0,11,161,570.6)" />
<use xlink:href="#f2_e" transform="matrix(11,0,0,11,169.4,570.6)" />
<use xlink:href="#f2_8" transform="matrix(11,0,0,11,174,570.6)" />
<use xlink:href="#f2_9" transform="matrix(11,0,0,11,179.6,570.6)" />
<use xlink:href="#f2_6" transform="matrix(11,0,0,11,188,570.6)" />
<use xlink:href="#f2_n" transform="matrix(11,0,0,11,194.6,570.6)" />
<use xlink:href="#f2_7" transform="matrix(11,0,0,11,199.3,570.6)" />
<use xlink:href="#f2_6" transform="matrix(11,0,0,11,206.6,570.6)" />
<use xlink:href="#f0_n" transform="matrix(12,0,0,12,406.5,611.4)" />
<use xlink:href="#f0_i" transform="matrix(12,0,0,12,414,611.4)" />
<use xlink:href="#f0_q" transform="matrix(12,0,0,12,418.1,611.4)" />
<use xlink:href="#f0_k" transform="matrix(12,0,0,12,428.5,611.4)" />
<use xlink:href="#f0_f" transform="matrix(12,0,0,12,440.4,611.4)" />
<use xlink:href="#f0_6" transform="matrix(12,0,0,12,456.8,611.4)" />
<use xlink:href="#f0_9" transform="matrix(12,0,0,12,461.8,611.4)" />
<use xlink:href="#f0_q" transform="matrix(12,0,0,12,469.1,611.4)" />
<use xlink:href="#f0_f" transform="matrix(12,0,0,12,479.5,611.4)" />
<use xlink:href="#f0_i" transform="matrix(12,0,0,12,490,611.4)" />
<use xlink:href="#f0_a" transform="matrix(12,0,0,12,494,611.4)" />
<use xlink:href="#f0_3" transform="matrix(12,0,0,12,510,611.4)" />
<use xlink:href="#f0_g" transform="matrix(12,0,0,12,515,611.4)" />
<use xlink:href="#f0_i" transform="matrix(12,0,0,12,527,611.4)" />
<use xlink:href="#f0_b" transform="matrix(12,0,0,12,531.1,611.4)" />
<use xlink:href="#f0_e" transform="matrix(12,0,0,12,541.5,611.4)" />
<use xlink:href="#f0_h" transform="matrix(12,0,0,12,558.7,611.4)" />
<use xlink:href="#f0_6" transform="matrix(12,0,0,12,570.8,611.4)" />
<use xlink:href="#f0_9" transform="matrix(12,0,0,12,575.8,611.4)" />
<use xlink:href="#f0_6" transform="matrix(12,0,0,12,583.1,611.4)" />
<use xlink:href="#f0_4" transform="matrix(12,0,0,12,588.2,611.4)" />
<use xlink:href="#f0_h" transform="matrix(12,0,0,12,597.8,611.4)" />
<use xlink:href="#f0_g" transform="matrix(12,0,0,12,609.8,611.4)" />
<use xlink:href="#f0_b" transform="matrix(12,0,0,12,627.5,611.4)" />
<use xlink:href="#f0_4" transform="matrix(12,0,0,12,637.9,611.4)" />
<use xlink:href="#f0_h" transform="matrix(12,0,0,12,653.5,611.4)" />
<use xlink:href="#f0_6" transform="matrix(12,0,0,12,665.4,611.4)" />
<use xlink:href="#f0_q" transform="matrix(12,0,0,12,670.4,611.4)" />
<use xlink:href="#f0_7" transform="matrix(12,0,0,12,680.8,611.4)" />
<use xlink:href="#f0_c" transform="matrix(12,0,0,12,693.2,611.4)" />
<use xlink:href="#f0_9" transform="matrix(12,0,0,12,706.2,611.4)" />
<use xlink:href="#f0_3" transform="matrix(12,0,0,12,719.5,611.4)" />
<use xlink:href="#f0_s" transform="matrix(12,0,0,12,724.5,611.4)" />
<use xlink:href="#f0_4" transform="matrix(12,0,0,12,736.7,611.4)" />
<use xlink:href="#f0_l" transform="matrix(12,0,0,12,752.1,611.4)" />
<use xlink:href="#f0_n" transform="matrix(12,0,0,12,764.4,611.4)" />
<use xlink:href="#f2_2" transform="matrix(11,0,0,11,355.5,611.4)" />
<use xlink:href="#f2_1e" transform="matrix(11,0,0,11,367.1,611.4)" />
<use xlink:href="#f2_3" transform="matrix(11,0,0,11,388.2,611.4)" />
<use xlink:href="#f2_2" transform="matrix(11,0,0,11,392.8,611.4)" />
<use xlink:href="#f0_8" transform="matrix(12,0,0,12,349.9,611.4)" />
<use xlink:href="#f3_2" transform="matrix(11,0,0,11,746.5,652.2)" />
<use xlink:href="#f0_8" transform="matrix(12,0,0,12,476.4,652.2)" />
<use xlink:href="#f0_i" transform="matrix(12,0,0,12,482.2,652.2)" />
<use xlink:href="#f0_6" transform="matrix(12,0,0,12,486.2,652.2)" />
<use xlink:href="#f0_9" transform="matrix(12,0,0,12,491.2,652.2)" />
<use xlink:href="#f0_i" transform="matrix(12,0,0,12,498.5,652.2)" />
<use xlink:href="#f0_c" transform="matrix(12,0,0,12,502.6,652.2)" />
<use xlink:href="#f0_s" transform="matrix(12,0,0,12,521.5,652.2)" />
<use xlink:href="#f0_b" transform="matrix(12,0,0,12,533.8,652.2)" />
<use xlink:href="#f0_b" transform="matrix(12,0,0,12,544.2,652.2)" />
<use xlink:href="#f0_6" transform="matrix(12,0,0,12,560.4,652.2)" />
<use xlink:href="#f0_q" transform="matrix(12,0,0,12,565.4,652.2)" />
<use xlink:href="#f0_s" transform="matrix(12,0,0,12,575.8,652.2)" />
<use xlink:href="#f0_c" transform="matrix(12,0,0,12,588,652.2)" />
<use xlink:href="#f0_9" transform="matrix(12,0,0,12,601,652.2)" />
<use xlink:href="#f0_l" transform="matrix(12,0,0,12,614.1,652.2)" />
<use xlink:href="#f0_i" transform="matrix(12,0,0,12,626.3,652.2)" />
<use xlink:href="#f0_m" transform="matrix(12,0,0,12,630.4,652.2)" />
<use xlink:href="#f0_6" transform="matrix(12,0,0,12,641.9,652.2)" />
<use xlink:href="#f0_n" transform="matrix(12,0,0,12,646.9,652.2)" />
<use xlink:href="#f0_g" transform="matrix(12,0,0,12,654.4,652.2)" />
<use xlink:href="#f0_h" transform="matrix(12,0,0,12,672.1,652.2)" />
<use xlink:href="#f0_6" transform="matrix(12,0,0,12,684.2,652.2)" />
<use xlink:href="#f0_7" transform="matrix(12,0,0,12,689,652.2)" />
<use xlink:href="#f0_6" transform="matrix(12,0,0,12,701.5,652.2)" />
<use xlink:href="#f0_i" transform="matrix(12,0,0,12,706.6,652.2)" />
<use xlink:href="#f0_o" transform="matrix(12,0,0,12,710.6,652.2)" />
<use xlink:href="#f3_2" transform="matrix(11,0,0,11,746.5,673.6)" />
<use xlink:href="#f0_l" transform="matrix(12,0,0,12,670.4,673.6)" />
<use xlink:href="#f0_i" transform="matrix(12,0,0,12,682.6,673.6)" />
<use xlink:href="#f0_m" transform="matrix(12,0,0,12,686.7,673.6)" />
<use xlink:href="#f0_6" transform="matrix(12,0,0,12,698.2,673.6)" />
<use xlink:href="#f0_n" transform="matrix(12,0,0,12,703.2,673.6)" />
<use xlink:href="#f0_g" transform="matrix(12,0,0,12,710.7,673.6)" />
<use xlink:href="#f2_5" transform="matrix(11,0,0,11,588.8,673.6)" />
<use xlink:href="#f2_9" transform="matrix(11,0,0,11,597.2,673.6)" />
<use xlink:href="#f2_6" transform="matrix(11,0,0,11,605.6,673.6)" />
<use xlink:href="#f2_9" transform="matrix(11,0,0,11,612.2,673.6)" />
<use xlink:href="#f2_e" transform="matrix(11,0,0,11,620.4,673.6)" />
<use xlink:href="#f2_8" transform="matrix(11,0,0,11,625.1,673.6)" />
<use xlink:href="#f2_9" transform="matrix(11,0,0,11,630.8,673.6)" />
<use xlink:href="#f2_6" transform="matrix(11,0,0,11,639.2,673.6)" />
<use xlink:href="#f2_n" transform="matrix(11,0,0,11,645.6,673.6)" />
<use xlink:href="#f2_7" transform="matrix(11,0,0,11,650.3,673.6)" />
<use xlink:href="#f2_6" transform="matrix(11,0,0,11,657.8,673.6)" />
<use xlink:href="#f0_6" transform="matrix(12,0,0,12,578.1,673.6)" />
<use xlink:href="#f2_v" transform="matrix(11,0,0,11,496.5,673.6)" />
<use xlink:href="#f2_9" transform="matrix(11,0,0,11,504.9,673.6)" />
<use xlink:href="#f2_6" transform="matrix(11,0,0,11,513.3,673.6)" />
<use xlink:href="#f2_9" transform="matrix(11,0,0,11,519.9,673.6)" />
<use xlink:href="#f2_e" transform="matrix(11,0,0,11,528.1,673.6)" />
<use xlink:href="#f2_8" transform="matrix(11,0,0,11,532.9,673.6)" />
<use xlink:href="#f2_9" transform="matrix(11,0,0,11,538.5,673.6)" />
<use xlink:href="#f2_6" transform="matrix(11,0,0,11,546.9,673.6)" />
<use xlink:href="#f2_n" transform="matrix(11,0,0,11,553.3,673.6)" />
<use xlink:href="#f2_7" transform="matrix(11,0,0,11,558,673.6)" />
<use xlink:href="#f2_6" transform="matrix(11,0,0,11,565.5,673.6)" />
<use xlink:href="#f0_8" transform="matrix(12,0,0,12,370.9,673.6)" />
<use xlink:href="#f0_b" transform="matrix(12,0,0,12,376.8,673.6)" />
<use xlink:href="#f0_b" transform="matrix(12,0,0,12,387.2,673.6)" />
<use xlink:href="#f0_4" transform="matrix(12,0,0,12,397.5,673.6)" />
<use xlink:href="#f0_6" transform="matrix(12,0,0,12,413,673.6)" />
<use xlink:href="#f0_9" transform="matrix(12,0,0,12,418,673.6)" />
<use xlink:href="#f0_h" transform="matrix(12,0,0,12,425.3,673.6)" />
<use xlink:href="#f0_c" transform="matrix(12,0,0,12,437.4,673.6)" />
<use xlink:href="#f0_g" transform="matrix(12,0,0,12,450.4,673.6)" />
<use xlink:href="#f0_s" transform="matrix(12,0,0,12,468.2,673.6)" />
<use xlink:href="#f0_b" transform="matrix(12,0,0,12,480.4,673.6)" />
<use xlink:href="#f3_2" transform="matrix(11,0,0,11,746.5,695)" />
<use xlink:href="#f0_h" transform="matrix(12,0,0,12,485.8,695)" />
<use xlink:href="#f0_6" transform="matrix(12,0,0,12,497.9,695)" />
<use xlink:href="#f0_s" transform="matrix(12,0,0,12,502.9,695)" />
<use xlink:href="#f0_g" transform="matrix(12,0,0,12,515.1,695)" />
<use xlink:href="#f0_g" transform="matrix(12,0,0,12,535.6,695)" />
<use xlink:href="#f0_e" transform="matrix(12,0,0,12,547.5,695)" />
<use xlink:href="#f0_i" transform="matrix(12,0,0,12,558.9,695)" />
<use xlink:href="#f0_m" transform="matrix(12,0,0,12,563,695)" />
<use xlink:href="#f0_6" transform="matrix(12,0,0,12,574.4,695)" />
<use xlink:href="#f0_7" transform="matrix(12,0,0,12,579.4,695)" />
<use xlink:href="#f0_6" transform="matrix(12,0,0,12,600.3,695)" />
<use xlink:href="#f0_f" transform="matrix(12,0,0,12,605.3,695)" />
<use xlink:href="#f0_b" transform="matrix(12,0,0,12,624.3,695)" />
<use xlink:href="#f0_e" transform="matrix(12,0,0,12,634.7,695)" />
<use xlink:href="#f0_6" transform="matrix(12,0,0,12,646.2,695)" />
<use xlink:href="#f0_m" transform="matrix(12,0,0,12,651.2,695)" />
<use xlink:href="#f0_b" transform="matrix(12,0,0,12,671.2,695)" />
<use xlink:href="#f0_4" transform="matrix(12,0,0,12,681.6,695)" />
<use xlink:href="#f0_s" transform="matrix(12,0,0,12,699.7,695)" />
<use xlink:href="#f0_b" transform="matrix(12,0,0,12,712,695)" />
<use xlink:href="#f2_9" transform="matrix(11,0,0,11,468.4,695)" />
<use xlink:href="#f0_17" transform="matrix(12,0,0,12,263.1,695)" />
<use xlink:href="#f0_h" transform="matrix(12,0,0,12,278,695)" />
<use xlink:href="#f0_6" transform="matrix(12,0,0,12,290,695)" />
<use xlink:href="#f0_9" transform="matrix(12,0,0,12,295.1,695)" />
<use xlink:href="#f0_j" transform="matrix(12,0,0,12,302.4,695)" />
<use xlink:href="#f0_b" transform="matrix(12,0,0,12,315.4,695)" />
<use xlink:href="#f0_w" transform="matrix(12,0,0,12,325.8,695)" />
<use xlink:href="#f0_n" transform="matrix(12,0,0,12,341.5,695)" />
<use xlink:href="#f0_i" transform="matrix(12,0,0,12,349,695)" />
<use xlink:href="#f0_q" transform="matrix(12,0,0,12,353.1,695)" />
<use xlink:href="#f0_k" transform="matrix(12,0,0,12,363.4,695)" />
<use xlink:href="#f0_b" transform="matrix(12,0,0,12,383.9,695)" />
<use xlink:href="#f0_e" transform="matrix(12,0,0,12,394.3,695)" />
<use xlink:href="#f0_6" transform="matrix(12,0,0,12,405.7,695)" />
<use xlink:href="#f0_m" transform="matrix(12,0,0,12,410.8,695)" />
<use xlink:href="#f0_s" transform="matrix(12,0,0,12,430.7,695)" />
<use xlink:href="#f0_6" transform="matrix(12,0,0,12,443,695)" />
<use xlink:href="#f0_g" transform="matrix(12,0,0,12,448,695)" />
<use xlink:href="#f2_y" transform="matrix(11,0,0,11,198,695)" />
<use xlink:href="#f2_9" transform="matrix(11,0,0,11,205.5,695)" />
<use xlink:href="#f2_r" transform="matrix(11,0,0,11,213.9,695)" />
<use xlink:href="#f2_4" transform="matrix(11,0,0,11,227,695)" />
<use xlink:href="#f2_8" transform="matrix(11,0,0,11,235.2,695)" />
<use xlink:href="#f2_7" transform="matrix(11,0,0,11,240.9,695)" />
<use xlink:href="#f2_8" transform="matrix(11,0,0,11,248.3,695)" />
<use xlink:href="#f0_2" transform="matrix(12,0,0,12,137.5,695)" />
<use xlink:href="#f0_b" transform="matrix(12,0,0,12,143.3,695)" />
<use xlink:href="#f0_c" transform="matrix(12,0,0,12,153.7,695)" />
<use xlink:href="#f0_7" transform="matrix(12,0,0,12,166.7,695)" />
<use xlink:href="#f0_b" transform="matrix(12,0,0,12,179.2,695)" />
<use xlink:href="#f0_8" transform="matrix(12,0,0,12,642.1,716.4)" />
<use xlink:href="#f0_v" transform="matrix(12,0,0,12,647.9,716.4)" />
<use xlink:href="#f0_b" transform="matrix(12,0,0,12,655.1,716.4)" />
<use xlink:href="#f0_i" transform="matrix(12,0,0,12,665.5,716.4)" />
<use xlink:href="#f0_n" transform="matrix(12,0,0,12,669.6,716.4)" />
<use xlink:href="#f0_q" transform="matrix(12,0,0,12,677.1,716.4)" />
<use xlink:href="#f0_n" transform="matrix(12,0,0,12,693.4,716.4)" />
<use xlink:href="#f0_g" transform="matrix(12,0,0,12,700.9,716.4)" />
<use xlink:href="#f0_9" transform="matrix(12,0,0,12,712.8,716.4)" />
<use xlink:href="#f0_h" transform="matrix(12,0,0,12,720.1,716.4)" />
<use xlink:href="#f0_7" transform="matrix(12,0,0,12,732,716.4)" />
<use xlink:href="#f0_8" transform="matrix(12,0,0,12,243.1,757)" />
<use xlink:href="#f0_b" transform="matrix(12,0,0,12,248.9,757)" />
<use xlink:href="#f0_b" transform="matrix(12,0,0,12,259.3,757)" />
<use xlink:href="#f0_4" transform="matrix(12,0,0,12,269.7,757)" />
<use xlink:href="#f0_g" transform="matrix(12,0,0,12,279.3,757)" />
<use xlink:href="#f0_i" transform="matrix(12,0,0,12,297.2,757)" />
<use xlink:href="#f0_m" transform="matrix(12,0,0,12,301.3,757)" />
<use xlink:href="#f0_b" transform="matrix(12,0,0,12,312.7,757)" />
<use xlink:href="#f0_i" transform="matrix(12,0,0,12,328.9,757)" />
<use xlink:href="#f0_6" transform="matrix(12,0,0,12,333,757)" />
<use xlink:href="#f0_9" transform="matrix(12,0,0,12,338,757)" />
<use xlink:href="#f0_i" transform="matrix(12,0,0,12,345.4,757)" />
<use xlink:href="#f0_c" transform="matrix(12,0,0,12,349.5,757)" />
<use xlink:href="#f0_g" transform="matrix(12,0,0,12,362.5,757)" />
<use xlink:href="#f0_h" transform="matrix(12,0,0,12,380.2,757)" />
<use xlink:href="#f0_s" transform="matrix(12,0,0,12,392.2,757)" />
<use xlink:href="#f0_12" transform="matrix(12,0,0,12,410.3,757)" />
<use xlink:href="#f0_i" transform="matrix(12,0,0,12,422,757)" />
<use xlink:href="#f0_o" transform="matrix(12,0,0,12,426.1,757)" />
<use xlink:href="#f0_6" transform="matrix(12,0,0,12,437.9,757)" />
<use xlink:href="#f0_g" transform="matrix(12,0,0,12,442.9,757)" />
<use xlink:href="#f0_6" transform="matrix(12,0,0,12,454.8,757)" />
<use xlink:href="#f0_2" transform="matrix(12,0,0,12,465.8,757)" />
<use xlink:href="#f0_b" transform="matrix(12,0,0,12,471.6,757)" />
<use xlink:href="#f0_i" transform="matrix(12,0,0,12,482,757)" />
<use xlink:href="#f0_n" transform="matrix(12,0,0,12,486.1,757)" />
<use xlink:href="#f0_q" transform="matrix(12,0,0,12,493.6,757)" />
<use xlink:href="#f0_4" transform="matrix(12,0,0,12,504,757)" />
<use xlink:href="#f0_6" transform="matrix(12,0,0,12,519.4,757)" />
<use xlink:href="#f0_h" transform="matrix(12,0,0,12,524.4,757)" />
<use xlink:href="#f0_6" transform="matrix(12,0,0,12,536.5,757)" />
<use xlink:href="#f0_s" transform="matrix(12,0,0,12,541.5,757)" />
<use xlink:href="#f0_g" transform="matrix(12,0,0,12,559.5,757)" />
<use xlink:href="#f0_d" transform="matrix(12,0,0,12,571.5,757)" />
<use xlink:href="#f0_g" transform="matrix(12,0,0,12,583.4,757)" />
<use xlink:href="#f0_2" transform="matrix(12,0,0,12,601.2,757)" />
<use xlink:href="#f0_n" transform="matrix(12,0,0,12,607,757)" />
<use xlink:href="#f0_i" transform="matrix(12,0,0,12,614.5,757)" />
<use xlink:href="#f0_q" transform="matrix(12,0,0,12,618.6,757)" />
<use xlink:href="#f0_k" transform="matrix(12,0,0,12,629,757)" />
<use xlink:href="#f0_b" transform="matrix(12,0,0,12,646.8,757)" />
<use xlink:href="#f0_e" transform="matrix(12,0,0,12,657.2,757)" />
<use xlink:href="#f0_6" transform="matrix(12,0,0,12,668.7,757)" />
<use xlink:href="#f0_m" transform="matrix(12,0,0,12,673.6,757)" />
<use xlink:href="#f0_h" transform="matrix(12,0,0,12,690.8,757)" />
<use xlink:href="#f0_6" transform="matrix(12,0,0,12,702.9,757)" />
<use xlink:href="#f0_d" transform="matrix(12,0,0,12,707.9,757)" />
<use xlink:href="#f0_g" transform="matrix(12,0,0,12,719.8,757)" />
<use xlink:href="#f0_b" transform="matrix(12,0,0,12,731.7,757)" />
<use xlink:href="#f0_i" transform="matrix(12,0,0,12,747.9,757)" />
<use xlink:href="#f0_a" transform="matrix(12,0,0,12,752,757)" />
<use xlink:href="#f0_4" transform="matrix(12,0,0,12,762.1,757)" />
<use xlink:href="#f4_i" transform="matrix(12,0,0,12,720.3,799.3)" />
<use xlink:href="#f4_j" transform="matrix(12,0,0,12,733.6,799.3)" />
<use xlink:href="#f4_k" transform="matrix(12,0,0,12,746.9,799.3)" />
<use xlink:href="#f4_d" transform="matrix(12,0,0,12,755,799.3)" />
<use xlink:href="#f4_l" transform="matrix(12,0,0,12,761.3,799.3)" />
<use xlink:href="#f5_2" transform="matrix(13,0,0,13,626.2,799.3)" />
<use xlink:href="#f5_3" transform="matrix(13,0,0,13,641.4,799.3)" />
<use xlink:href="#f5_4" transform="matrix(13,0,0,13,648.5,799.3)" />
<use xlink:href="#f5_5" transform="matrix(13,0,0,13,661.2,799.3)" />
<use xlink:href="#f5_6" transform="matrix(13,0,0,13,682.3,799.3)" />
<use xlink:href="#f5_7" transform="matrix(13,0,0,13,696.1,799.3)" />
<use xlink:href="#f5_8" transform="matrix(13,0,0,13,703.6,799.3)" />
<use xlink:href="#f0_13" transform="matrix(12,0,0,12,639.7,840.4)" />
<use xlink:href="#f0_12" transform="matrix(12,0,0,12,645.8,840.4)" />
<use xlink:href="#f0_e" transform="matrix(12,0,0,12,657.5,840.4)" />
<use xlink:href="#f0_i" transform="matrix(12,0,0,12,674.8,840.4)" />
<use xlink:href="#f0_9" transform="matrix(12,0,0,12,678.9,840.4)" />
<use xlink:href="#f0_s" transform="matrix(12,0,0,12,686.2,840.4)" />
<use xlink:href="#f0_q" transform="matrix(12,0,0,12,704.3,840.4)" />
<use xlink:href="#f0_7" transform="matrix(12,0,0,12,714.7,840.4)" />
<use xlink:href="#f0_6" transform="matrix(12,0,0,12,727,840.4)" />
<use xlink:href="#f0_b" transform="matrix(12,0,0,12,732.1,840.4)" />
<use xlink:href="#f0_i" transform="matrix(12,0,0,12,748.3,840.4)" />
<use xlink:href="#f0_a" transform="matrix(12,0,0,12,752.4,840.4)" />
<use xlink:href="#f0_4" transform="matrix(12,0,0,12,762.4,840.4)" />
<use xlink:href="#f0_14" transform="matrix(12,0,0,12,747.2,861.8)" />
<use xlink:href="#f0_8" transform="matrix(12,0,0,12,741.3,861.8)" />
<use xlink:href="#f0_h" transform="matrix(12,0,0,12,591.9,861.8)" />
<use xlink:href="#f0_7" transform="matrix(12,0,0,12,603.9,861.8)" />
<use xlink:href="#f0_6" transform="matrix(12,0,0,12,616.4,861.8)" />
<use xlink:href="#f0_i" transform="matrix(12,0,0,12,621.3,861.8)" />
<use xlink:href="#f0_o" transform="matrix(12,0,0,12,625.4,861.8)" />
<use xlink:href="#f0_g" transform="matrix(12,0,0,12,637.3,861.8)" />
<use xlink:href="#f0_h" transform="matrix(12,0,0,12,655.2,861.8)" />
<use xlink:href="#f0_s" transform="matrix(12,0,0,12,667.2,861.8)" />
<use xlink:href="#f0_a" transform="matrix(12,0,0,12,685.3,861.8)" />
<use xlink:href="#f0_q" transform="matrix(12,0,0,12,695.2,861.8)" />
<use xlink:href="#f0_6" transform="matrix(12,0,0,12,705.6,861.8)" />
<use xlink:href="#f0_g" transform="matrix(12,0,0,12,710.6,861.8)" />
<use xlink:href="#f2_7" transform="matrix(11,0,0,11,572.8,861.8)" />
<use xlink:href="#f2_8" transform="matrix(11,0,0,11,580.2,861.8)" />
<use xlink:href="#f0_b" transform="matrix(12,0,0,12,504.3,861.8)" />
<use xlink:href="#f0_e" transform="matrix(12,0,0,12,514.7,861.8)" />
<use xlink:href="#f0_6" transform="matrix(12,0,0,12,526.2,861.8)" />
<use xlink:href="#f0_m" transform="matrix(12,0,0,12,531.2,861.8)" />
<use xlink:href="#f0_g" transform="matrix(12,0,0,12,542.6,861.8)" />
<use xlink:href="#f0_7" transform="matrix(12,0,0,12,554.6,861.8)" />
<use xlink:href="#f2_v" transform="matrix(11,0,0,11,463.8,861.8)" />
<use xlink:href="#f2_9" transform="matrix(11,0,0,11,472.2,861.8)" />
<use xlink:href="#f2_m" transform="matrix(11,0,0,11,480.6,861.8)" />
<use xlink:href="#f2_7" transform="matrix(11,0,0,11,485.4,861.8)" />
<use xlink:href="#f2_8" transform="matrix(11,0,0,11,492.7,861.8)" />
<use xlink:href="#f0_8" transform="matrix(12,0,0,12,458.2,861.8)" />
<use xlink:href="#f0_15" transform="matrix(12,0,0,12,747.2,883.2)" />
<use xlink:href="#f0_8" transform="matrix(12,0,0,12,741.3,883.2)" />
<use xlink:href="#f0_12" transform="matrix(12,0,0,12,682.2,883.2)" />
<use xlink:href="#f0_o" transform="matrix(12,0,0,12,693.8,883.2)" />
<use xlink:href="#f0_6" transform="matrix(12,0,0,12,705.7,883.2)" />
<use xlink:href="#f0_g" transform="matrix(12,0,0,12,710.7,883.2)" />
<use xlink:href="#f2_9" transform="matrix(11,0,0,11,667.6,883.2)" />
<use xlink:href="#f0_12" transform="matrix(12,0,0,12,567.3,883.2)" />
<use xlink:href="#f0_6" transform="matrix(12,0,0,12,579,883.2)" />
<use xlink:href="#f0_n" transform="matrix(12,0,0,12,584,883.2)" />
<use xlink:href="#f0_g" transform="matrix(12,0,0,12,591.5,883.2)" />
<use xlink:href="#f0_h" transform="matrix(12,0,0,12,609.4,883.2)" />
<use xlink:href="#f0_7" transform="matrix(12,0,0,12,621.3,883.2)" />
<use xlink:href="#f0_6" transform="matrix(12,0,0,12,633.8,883.2)" />
<use xlink:href="#f0_i" transform="matrix(12,0,0,12,638.8,883.2)" />
<use xlink:href="#f0_o" transform="matrix(12,0,0,12,642.8,883.2)" />
<use xlink:href="#f0_w" transform="matrix(12,0,0,12,654.7,883.2)" />
<use xlink:href="#f2_i" transform="matrix(11,0,0,11,544.3,883.2)" />
<use xlink:href="#f2_9" transform="matrix(11,0,0,11,552.8,883.2)" />
<use xlink:href="#f0_8" transform="matrix(12,0,0,12,477.7,883.2)" />
<use xlink:href="#f0_v" transform="matrix(12,0,0,12,483.5,883.2)" />
<use xlink:href="#f0_b" transform="matrix(12,0,0,12,490.7,883.2)" />
<use xlink:href="#f0_i" transform="matrix(12,0,0,12,501.1,883.2)" />
<use xlink:href="#f0_n" transform="matrix(12,0,0,12,505.2,883.2)" />
<use xlink:href="#f0_q" transform="matrix(12,0,0,12,512.7,883.2)" />
<use xlink:href="#f0_4" transform="matrix(12,0,0,12,523.1,883.2)" />
<use xlink:href="#f0_2" transform="matrix(12,0,0,12,538.6,883.2)" />
<use xlink:href="#f0_h" transform="matrix(12,0,0,12,722,904.6)" />
<use xlink:href="#f0_b" transform="matrix(12,0,0,12,734.1,904.6)" />
<use xlink:href="#f0_f" transform="matrix(12,0,0,12,744.5,904.6)" />
<use xlink:href="#f0_i" transform="matrix(12,0,0,12,755,904.6)" />
<use xlink:href="#f0_j" transform="matrix(12,0,0,12,759.1,904.6)" />
<use xlink:href="#f2_v" transform="matrix(11,0,0,11,686.1,904.6)" />
<use xlink:href="#f2_9" transform="matrix(11,0,0,11,694.5,904.6)" />
<use xlink:href="#f2_m" transform="matrix(11,0,0,11,702.8,904.6)" />
<use xlink:href="#f2_9" transform="matrix(11,0,0,11,707.5,904.6)" />
<use xlink:href="#f0_8" transform="matrix(12,0,0,12,680.5,904.6)" />
<use xlink:href="#f0_14" transform="matrix(12,0,0,12,747.2,926)" />
<use xlink:href="#f0_8" transform="matrix(12,0,0,12,741.3,926)" />
<use xlink:href="#f0_t" transform="matrix(12,0,0,12,684.5,926)" />
<use xlink:href="#f0_6" transform="matrix(12,0,0,12,694.2,926)" />
<use xlink:href="#f0_m" transform="matrix(12,0,0,12,699.2,926)" />
<use xlink:href="#f0_g" transform="matrix(12,0,0,12,710.7,926)" />
<use xlink:href="#f2_9" transform="matrix(11,0,0,11,669.9,926)" />
<use xlink:href="#f0_b" transform="matrix(12,0,0,12,653.9,926)" />
<use xlink:href="#f2_g" transform="matrix(11,0,0,11,632,926)" />
<use xlink:href="#f2_2" transform="matrix(11,0,0,11,640.4,926)" />
<use xlink:href="#f0_h" transform="matrix(12,0,0,12,563.9,926)" />
<use xlink:href="#f0_b" transform="matrix(12,0,0,12,575.9,926)" />
<use xlink:href="#f0_f" transform="matrix(12,0,0,12,586.3,926)" />
<use xlink:href="#f0_i" transform="matrix(12,0,0,12,596.9,926)" />
<use xlink:href="#f0_j" transform="matrix(12,0,0,12,601,926)" />
<use xlink:href="#f0_17" transform="matrix(12,0,0,12,619.8,926)" />
<use xlink:href="#f2_v" transform="matrix(11,0,0,11,520.4,926)" />
<use xlink:href="#f2_g" transform="matrix(11,0,0,11,528.8,926)" />
<use xlink:href="#f2_2" transform="matrix(11,0,0,11,537.2,926)" />
<use xlink:href="#f2_m" transform="matrix(11,0,0,11,544.5,926)" />
<use xlink:href="#f2_9" transform="matrix(11,0,0,11,549.2,926)" />
<use xlink:href="#f0_8" transform="matrix(12,0,0,12,514.7,926)" />
<use xlink:href="#f1_d" transform="matrix(16,0,0,16,717.9,971.5)" />
<use xlink:href="#f1_5" transform="matrix(16,0,0,16,729.8,971.5)" />
<use xlink:href="#f1_9" transform="matrix(16,0,0,16,736.3,971.5)" />
<use xlink:href="#f1_8" transform="matrix(16,0,0,16,744.7,971.5)" />
<use xlink:href="#f1_e" transform="matrix(16,0,0,16,757.1,971.5)" />
<use xlink:href="#f1_l" transform="matrix(16,0,0,16,543.4,971.5)" />
<use xlink:href="#f1_m" transform="matrix(16,0,0,16,562.5,971.5)" />
<use xlink:href="#f1_n" transform="matrix(16,0,0,16,576.5,971.5)" />
<use xlink:href="#f1_l" transform="matrix(16,0,0,16,587.7,971.5)" />
<use xlink:href="#f1_o" transform="matrix(16,0,0,16,600.3,971.5)" />
<use xlink:href="#f1_p" transform="matrix(16,0,0,16,611.4,971.5)" />
<use xlink:href="#f1_k" transform="matrix(16,0,0,16,620,971.5)" />
<use xlink:href="#f1_o" transform="matrix(16,0,0,16,627,971.5)" />
<use xlink:href="#f1_l" transform="matrix(16,0,0,16,638.3,971.5)" />
<use xlink:href="#f1_n" transform="matrix(16,0,0,16,650.8,971.5)" />
<use xlink:href="#f4_a" transform="matrix(12,0,0,12,723.8,1012.3)" />
<use xlink:href="#f4_8" transform="matrix(12,0,0,12,735,1012.3)" />
<use xlink:href="#f4_k" transform="matrix(12,0,0,12,740.3,1012.3)" />
<use xlink:href="#f4_4" transform="matrix(12,0,0,12,748.6,1012.3)" />
<use xlink:href="#f4_h" transform="matrix(12,0,0,12,759.6,1012.3)" />
<use xlink:href="#f4_w" transform="matrix(12,0,0,12,703.2,1012.3)" />
<use xlink:href="#f0_h" transform="matrix(12,0,0,12,138.1,1012.3)" />
<use xlink:href="#f0_s" transform="matrix(12,0,0,12,150.2,1012.3)" />
<use xlink:href="#f0_3" transform="matrix(12,0,0,12,169.7,1012.3)" />
<use xlink:href="#f0_6" transform="matrix(12,0,0,12,174.6,1012.3)" />
<use xlink:href="#f0_h" transform="matrix(12,0,0,12,179.6,1012.3)" />
<use xlink:href="#f0_k" transform="matrix(12,0,0,12,191.6,1012.3)" />
<use xlink:href="#f0_h" transform="matrix(12,0,0,12,203.5,1012.3)" />
<use xlink:href="#f0_6" transform="matrix(12,0,0,12,222.8,1012.3)" />
<use xlink:href="#f0_j" transform="matrix(12,0,0,12,227.8,1012.3)" />
<use xlink:href="#f0_f" transform="matrix(12,0,0,12,240.8,1012.3)" />
<use xlink:href="#f0_3" transform="matrix(12,0,0,12,258.6,1012.3)" />
<use xlink:href="#f0_7" transform="matrix(12,0,0,12,263.5,1012.3)" />
<use xlink:href="#f0_o" transform="matrix(12,0,0,12,276,1012.3)" />
<use xlink:href="#f0_8" transform="matrix(12,0,0,12,295.2,1012.3)" />
<use xlink:href="#f0_n" transform="matrix(12,0,0,12,301,1012.3)" />
<use xlink:href="#f0_i" transform="matrix(12,0,0,12,308.5,1012.3)" />
<use xlink:href="#f0_q" transform="matrix(12,0,0,12,312.6,1012.3)" />
<use xlink:href="#f0_k" transform="matrix(12,0,0,12,323,1012.3)" />
<use xlink:href="#f0_g" transform="matrix(12,0,0,12,334.9,1012.3)" />
<use xlink:href="#f0_b" transform="matrix(12,0,0,12,354.1,1012.3)" />
<use xlink:href="#f0_b" transform="matrix(12,0,0,12,364.5,1012.3)" />
<use xlink:href="#f0_4" transform="matrix(12,0,0,12,374.9,1012.3)" />
<use xlink:href="#f0_b" transform="matrix(12,0,0,12,384.5,1012.3)" />
<use xlink:href="#f0_l" transform="matrix(12,0,0,12,402.2,1012.3)" />
<use xlink:href="#f0_s" transform="matrix(12,0,0,12,414.4,1012.3)" />
<use xlink:href="#f0_h" transform="matrix(12,0,0,12,426.6,1012.3)" />
<use xlink:href="#f0_g" transform="matrix(12,0,0,12,438.7,1012.3)" />
<use xlink:href="#f0_f" transform="matrix(12,0,0,12,450.6,1012.3)" />
<use xlink:href="#f0_h" transform="matrix(12,0,0,12,468.3,1012.3)" />
<use xlink:href="#f0_6" transform="matrix(12,0,0,12,480.3,1012.3)" />
<use xlink:href="#f0_q" transform="matrix(12,0,0,12,485.3,1012.3)" />
<use xlink:href="#f0_o" transform="matrix(12,0,0,12,495.7,1012.3)" />
<use xlink:href="#f0_k" transform="matrix(12,0,0,12,507.6,1012.3)" />
<use xlink:href="#f0_g" transform="matrix(12,0,0,12,519.5,1012.3)" />
<use xlink:href="#f0_h" transform="matrix(12,0,0,12,538.6,1012.3)" />
<use xlink:href="#f0_6" transform="matrix(12,0,0,12,550.6,1012.3)" />
<use xlink:href="#f0_i" transform="matrix(12,0,0,12,555.7,1012.3)" />
<use xlink:href="#f0_d" transform="matrix(12,0,0,12,559.8,1012.3)" />
<use xlink:href="#f0_g" transform="matrix(12,0,0,12,571.7,1012.3)" />
<use xlink:href="#f0_g" transform="matrix(12,0,0,12,583.6,1012.3)" />
<use xlink:href="#f0_h" transform="matrix(12,0,0,12,602.6,1012.3)" />
<use xlink:href="#f0_s" transform="matrix(12,0,0,12,614.7,1012.3)" />
<use xlink:href="#f0_l" transform="matrix(12,0,0,12,634.2,1012.3)" />
<use xlink:href="#f0_b" transform="matrix(12,0,0,12,646.4,1012.3)" />
<use xlink:href="#f0_c" transform="matrix(12,0,0,12,656.8,1012.3)" />
<use xlink:href="#f0_g" transform="matrix(12,0,0,12,669.8,1012.3)" />
<use xlink:href="#f0_17" transform="matrix(12,0,0,12,688.8,1012.3)" />
<use xlink:href="#f0_h" transform="matrix(12,0,0,12,709.8,1033.7)" />
<use xlink:href="#f0_6" transform="matrix(12,0,0,12,721.9,1033.7)" />
<use xlink:href="#f0_i" transform="matrix(12,0,0,12,726.8,1033.7)" />
<use xlink:href="#f0_h" transform="matrix(12,0,0,12,730.9,1033.7)" />
<use xlink:href="#f0_6" transform="matrix(12,0,0,12,742.9,1033.7)" />
<use xlink:href="#f0_s" transform="matrix(12,0,0,12,747.9,1033.7)" />
<use xlink:href="#f0_g" transform="matrix(12,0,0,12,760.2,1033.7)" />
<use xlink:href="#f2_g" transform="matrix(10.5,0,0,10.5,688.6,1033.7)" />
<use xlink:href="#f2_2" transform="matrix(10.5,0,0,10.5,696.7,1033.7)" />
<use xlink:href="#f0_8" transform="matrix(12,0,0,12,602.3,1033.7)" />
<use xlink:href="#f0_b" transform="matrix(12,0,0,12,608.1,1033.7)" />
<use xlink:href="#f0_e" transform="matrix(12,0,0,12,618.5,1033.7)" />
<use xlink:href="#f0_6" transform="matrix(12,0,0,12,629.9,1033.7)" />
<use xlink:href="#f0_m" transform="matrix(12,0,0,12,634.8,1033.7)" />
<use xlink:href="#f0_b" transform="matrix(12,0,0,12,652.3,1033.7)" />
<use xlink:href="#f0_4" transform="matrix(12,0,0,12,662.7,1033.7)" />
<use xlink:href="#f0_f" transform="matrix(12,0,0,12,672.4,1033.7)" />
</g>
</g>
<path d="M236.9,1057H837m-600.1,19.2H837m-708.4,22.2H837m-708.4,20H837m-708.4,20.2H837m-708.4,20H837M128.9,1098v61M237.3,1056.6v19.3m0,22.1v61m0,-83.1v22.9m227.3,-42.2v20m0,21.4v61m.2,-83.1v22.9m194.7,-42.2V1159M836.6,1056.6V1159" class="g1_7" />
<g clip-path="url(#c0_7)">
<g fill="#000000" >
<use xlink:href="#f2_a" transform="matrix(10.5,0,0,10.5,740.5,1072.3)" />
<use xlink:href="#f2_b" transform="matrix(10.5,0,0,10.5,745.9,1072.3)" />
<use xlink:href="#f2_c" transform="matrix(10.5,0,0,10.5,552.3,1072.3)" />
<use xlink:href="#f2_b" transform="matrix(10.5,0,0,10.5,562.1,1072.3)" />
<use xlink:href="#f2_d" transform="matrix(10.5,0,0,10.5,340.1,1072.3)" />
<use xlink:href="#f2_b" transform="matrix(10.5,0,0,10.5,351.7,1072.3)" />
<use xlink:href="#f0_3" transform="matrix(12,0,0,12,791.1,1093.6)" />
<use xlink:href="#f0_6" transform="matrix(12,0,0,12,796.1,1093.6)" />
<use xlink:href="#f0_c" transform="matrix(12,0,0,12,801,1093.6)" />
<use xlink:href="#f0_i" transform="matrix(12,0,0,12,814,1093.6)" />
<use xlink:href="#f0_b" transform="matrix(12,0,0,12,818.1,1093.6)" />
<use xlink:href="#f2_p" transform="matrix(11,0,0,11,668.4,1092.2)" />
<use xlink:href="#f2_9" transform="matrix(11,0,0,11,676.8,1092.2)" />
<use xlink:href="#f2_8" transform="matrix(11,0,0,11,685.1,1092.2)" />
<use xlink:href="#f2_r" transform="matrix(11,0,0,11,690.7,1092.2)" />
<use xlink:href="#f2_3" transform="matrix(11,0,0,11,703.8,1092.2)" />
<use xlink:href="#f2_8" transform="matrix(11,0,0,11,708.4,1092.2)" />
<use xlink:href="#f0_b" transform="matrix(12,0,0,12,572.9,1093.6)" />
<use xlink:href="#f0_6" transform="matrix(12,0,0,12,583.3,1093.6)" />
<use xlink:href="#f0_4" transform="matrix(12,0,0,12,588.3,1093.6)" />
<use xlink:href="#f0_i" transform="matrix(12,0,0,12,598,1093.6)" />
<use xlink:href="#f0_h" transform="matrix(12,0,0,12,607.9,1093.6)" />
<use xlink:href="#f0_6" transform="matrix(12,0,0,12,619.9,1093.6)" />
<use xlink:href="#f0_i" transform="matrix(12,0,0,12,624.9,1093.6)" />
<use xlink:href="#f0_g" transform="matrix(12,0,0,12,629.1,1093.6)" />
<use xlink:href="#f0_b" transform="matrix(12,0,0,12,641,1093.6)" />
<use xlink:href="#f2_4" transform="matrix(11,0,0,11,473.5,1092.2)" />
<use xlink:href="#f2_9" transform="matrix(11,0,0,11,481.9,1092.2)" />
<use xlink:href="#f2_p" transform="matrix(11,0,0,11,490.3,1092.2)" />
<use xlink:href="#f2_2" transform="matrix(11,0,0,11,498.7,1092.2)" />
<use xlink:href="#f2_8" transform="matrix(11,0,0,11,506.1,1092.2)" />
<use xlink:href="#f0_o" transform="matrix(12,0,0,12,372.5,1093.6)" />
<use xlink:href="#f0_6" transform="matrix(12,0,0,12,384.4,1093.6)" />
<use xlink:href="#f0_d" transform="matrix(12,0,0,12,389.4,1093.6)" />
<use xlink:href="#f0_b" transform="matrix(12,0,0,12,401.3,1093.6)" />
<use xlink:href="#f0_11" transform="matrix(12,0,0,12,411.7,1093.6)" />
<use xlink:href="#f0_12" transform="matrix(12,0,0,12,417.8,1093.6)" />
<use xlink:href="#f0_6" transform="matrix(12,0,0,12,429.5,1093.6)" />
<use xlink:href="#f0_e" transform="matrix(12,0,0,12,434.6,1093.6)" />
<use xlink:href="#f0_b" transform="matrix(12,0,0,12,446,1093.6)" />
<use xlink:href="#f2_v" transform="matrix(11,0,0,11,246.1,1092.2)" />
<use xlink:href="#f2_9" transform="matrix(11,0,0,11,254.5,1092.2)" />
<use xlink:href="#f2_m" transform="matrix(11,0,0,11,262.8,1092.2)" />
<use xlink:href="#f2_7" transform="matrix(11,0,0,11,267.5,1092.2)" />
<use xlink:href="#f2_8" transform="matrix(11,0,0,11,275,1092.2)" />
<use xlink:href="#f2_v" transform="matrix(11,0,0,11,246,1114.4)" />
<use xlink:href="#f2_g" transform="matrix(11,0,0,11,254.4,1114.4)" />
<use xlink:href="#f2_2" transform="matrix(11,0,0,11,262.8,1114.4)" />
</g>
</g>
<path d="M254.4,1115.9h15.9" class="g3_7" />
<g clip-path="url(#c0_7)">
<g fill="#000000" >
<use xlink:href="#f2_m" transform="matrix(11,0,0,11,270.3,1114.4)" />
<use xlink:href="#f2_9" transform="matrix(11,0,0,11,275,1114.4)" />
<use xlink:href="#f2_i" transform="matrix(11,0,0,11,137.7,1114.4)" />
<use xlink:href="#f2_9" transform="matrix(11,0,0,11,146.1,1114.4)" />
<use xlink:href="#f2_e" transform="matrix(11,0,0,11,137.7,1134.5)" />
<use xlink:href="#f2_j" transform="matrix(11,0,0,11,142.4,1134.5)" />
<use xlink:href="#f2_4" transform="matrix(11,0,0,11,473.5,1154.5)" />
<use xlink:href="#f2_g" transform="matrix(11,0,0,11,481.9,1154.5)" />
<use xlink:href="#f2_2" transform="matrix(11,0,0,11,490.3,1154.5)" />
</g>
</g>
<path d="M481.9,1156.1h15.8" class="g3_7" />
<g clip-path="url(#c0_7)">
<g fill="#000000" >
<use xlink:href="#f2_p" transform="matrix(11,0,0,11,497.8,1154.5)" />
<use xlink:href="#f2_2" transform="matrix(11,0,0,11,506.2,1154.5)" />
<use xlink:href="#f2_l" transform="matrix(11,0,0,11,137.7,1154.5)" />
<use xlink:href="#f2_m" transform="matrix(11,0,0,11,145.1,1154.5)" />
<use xlink:href="#f2_n" transform="matrix(11,0,0,11,149.7,1154.5)" />
<use xlink:href="#f2_2" transform="matrix(11,0,0,11,154.4,1154.5)" />
<use xlink:href="#f2_m" transform="matrix(11,0,0,11,161.9,1154.5)" />
<use xlink:href="#f2_m" transform="matrix(11,0,0,11,166.5,1154.5)" />
<use xlink:href="#f2_7" transform="matrix(11,0,0,11,171.2,1154.5)" />
<use xlink:href="#f2_n" transform="matrix(11,0,0,11,178.7,1154.5)" />
<use xlink:href="#f2_o" transform="matrix(11,0,0,11,183.4,1154.5)" />
<use xlink:href="#f2_p" transform="matrix(11,0,0,11,195.4,1154.5)" />
<use xlink:href="#f2_q" transform="matrix(11,0,0,11,203.8,1154.5)" />
<use xlink:href="#f0_1h" transform="matrix(11,0,0,11,137.5,1208.9)" />
</g>
</g>
<defs>
<path d="M163,0V190H321V0Z" 
id="f0_8"
transform="scale(0.001,-0.001)" />

<path d="M736,107V473c0,0,0,147,-48,202c0,0,-49,54,-187,54H278V107ZM139,0V836H499c0,0,105,0,177,-22c0,0,72,-21,116,-69c0,0,44,-49,64,-119c0,0,19,-71,19,-174V0Z" 
id="f0_l"
transform="scale(0.001,-0.001)" />

<path d="M102,312V836H241V369L102,312Z" 
id="f0_i"
transform="scale(0.001,-0.001)" />

<path d="M139,0V106H400c0,0,176,0,253,71c0,0,78,72,78,250c0,0,0,163,-80,233c0,0,-81,69,-250,69H278L277,564c0,0,-1,-54,26,-80c0,0,27,-25,82,-25c0,0,30,0,80,9V355c0,0,-61,-12,-111,-12c0,0,-100,0,-157,55c0,0,-58,55,-58,186V836H456c0,0,193,0,303,-109c0,0,110,-109,110,-309c0,0,0,-200,-110,-309C759,109,648,0,456,0Z" 
id="f0_m"
transform="scale(0.001,-0.001)" />

<path d="M139,0V836H278V0Z" 
id="f0_6"
transform="scale(0.001,-0.001)" />

<path d="M156,-317V454l139,56V-317ZM505,0L806,729H139V835H967V753L650,0Z" 
id="f0_j"
transform="scale(0.001,-0.001)" />

<path d="M180,0L66,836H203L258,443c0,0,36,1,64,6c0,0,28,6,49,18c0,0,20,12,35,26c0,0,15,13,26,36c0,0,11,24,17,44c0,0,7,20,12,55c0,0,6,34,9,60c0,0,3,26,8,71c0,0,4,45,9,77H610c0,0,-13,-194,-31,-271c0,0,-31,-127,-111,-179c0,0,-71,-45,-196,-50L304,107c0,0,73,0,130,5c0,0,56,6,111,21c0,0,54,15,94,40c0,0,40,25,77,64c0,0,37,39,63,94c0,0,25,54,46,128c0,0,21,73,34,166c0,0,13,94,20,211h138c0,0,-14,-124,-29,-218c0,0,-16,-94,-39,-179c0,0,-22,-85,-50,-146c0,0,-28,-61,-68,-112c0,0,-39,-51,-87,-84C744,97,696,65,632,42C632,42,568,19,492,10C492,10,417,0,320,0Z" 
id="f0_c"
transform="scale(0.001,-0.001)" />

<path d="M114,0l60,312c0,0,2,12,8,39c0,0,6,27,7,37c0,0,2,11,5,30c0,0,2,19,4,33c0,0,1,15,1,31c0,0,0,48,-35,146c0,0,-35,98,-98,208H228c0,0,3,-8,27,-67c0,0,25,-58,41,-117c0,0,21,53,50,90c0,0,29,37,57,57c0,0,29,21,65,32c0,0,37,11,65,14c0,0,28,3,67,3c0,0,300,0,300,-396V0H480V106H761V452c0,0,0,146,-46,215c0,0,-45,70,-118,70c0,0,-134,0,-198,-119c0,0,-36,-68,-67,-222c0,0,-2,-10,-6,-27L253,0Z" 
id="f0_7"
transform="scale(0.001,-0.001)" />

<path d="M154,0V454l138,56V0ZM722,0V454c0,0,0,161,-49,218c0,0,-48,57,-186,57H139V836H485c0,0,207,0,291,-93c0,0,83,-94,83,-318V0Z" 
id="f0_g"
transform="scale(0.001,-0.001)" />

<path d="M71,-141V-15L289,62L66,836H210L416,109c0,0,99,42,153,98c0,0,53,56,80,155c0,0,26,98,26,262V836H817V624c0,0,0,-88,-7,-154c0,0,-7,-67,-25,-132c0,0,-18,-66,-51,-116c0,0,-33,-51,-84,-98c0,0,-50,-48,-123,-87c0,0,-72,-39,-169,-74L71,-141Z" 
id="f0_e"
transform="scale(0.001,-0.001)" />

<path d="M522,-20c0,0,-196,0,-290,99c0,0,-94,100,-94,324V836H276V397c0,0,0,-86,16,-147c0,0,17,-60,50,-94c0,0,34,-34,77,-49c0,0,43,-15,103,-15c0,0,59,0,102,15c0,0,44,15,77,49c0,0,33,34,50,94c0,0,17,61,17,147c0,0,0,84,-8,143c0,0,-7,58,-25,105c0,0,-17,47,-51,69c0,0,-33,23,-83,23c0,0,-50,0,-119,-22V821c0,0,85,23,150,23c0,0,76,0,130,-30c0,0,53,-31,85,-90c0,0,31,-59,45,-138c0,0,13,-78,13,-183c0,0,0,-224,-93,-324c0,0,-94,-99,-290,-99Z" 
id="f0_d"
transform="scale(0.001,-0.001)" />

<path d="M139,0V138c0,0,0,61,8,112c0,0,7,52,19,87c0,0,11,36,30,66c0,0,19,31,35,49c0,0,17,19,41,35c0,0,25,17,41,25c0,0,17,7,40,17L141,836H303L613,388c0,0,20,10,33,18c0,0,13,8,34,28c0,0,20,20,33,44c0,0,13,25,22,66c0,0,10,41,10,92V836H882V698c0,0,0,-61,-7,-112c0,0,-6,-52,-18,-88c0,0,-12,-36,-30,-66c0,0,-19,-30,-36,-49c0,0,-17,-18,-41,-34c0,0,-24,-17,-40,-25c0,0,-17,-8,-41,-17L882,0H720L409,448c0,0,-21,-11,-34,-19c0,0,-13,-8,-34,-27c0,0,-21,-20,-34,-44c0,0,-12,-25,-22,-66c0,0,-9,-41,-9,-92V0Z" 
id="f0_s"
transform="scale(0.001,-0.001)" />

<path d="M495,0V729H66V836H781V729H634V0Z" 
id="f0_a"
transform="scale(0.001,-0.001)" />

<path d="M585,0V426c0,0,0,54,-8,98c0,0,-8,44,-27,83c0,0,-19,40,-49,66c0,0,-30,26,-77,41c0,0,-47,15,-108,15H66V836H315c0,0,94,0,166,-20c0,0,71,-20,116,-54c0,0,46,-35,75,-88c0,0,28,-52,40,-112c0,0,12,-60,12,-137V0Z" 
id="f0_q"
transform="scale(0.001,-0.001)" />

<path d="M66,0V107H554V452c0,0,0,56,-4,93c0,0,-4,37,-18,75c0,0,-14,38,-40,60c0,0,-26,22,-71,36c0,0,-45,13,-110,13H66V836H312c0,0,91,0,157,-17c0,0,66,-17,109,-49c0,0,44,-32,69,-84c0,0,26,-52,36,-114c0,0,10,-62,10,-147V107H817V0Z" 
id="f0_f"
transform="scale(0.001,-0.001)" />

<path d="M287,0L589,729H66v386H205V836l547,-1l-2,-82L433,0Z" 
id="f0_b"
transform="scale(0.001,-0.001)" />

<path d="M138,-7c0,0,-34,0,-72,10V129c0,0,25,-8,52,-8c0,0,33,0,58,5c0,0,26,5,58,24c0,0,33,20,53,54c0,0,21,34,36,97c0,0,15,64,15,151c0,0,0,113,-19,173c0,0,-19,60,-56,82c0,0,-38,22,-107,22H89V836h72c0,0,165,0,240,-91c0,0,76,-91,76,-293c0,0,0,-107,26,-227c0,0,25,-119,83,-225H437c0,0,-43,101,-62,184c0,0,-24,-60,-51,-99c0,0,-26,-38,-56,-58C268,27,239,7,209,0c0,0,-30,-7,-71,-7Z" 
id="f0_n"
transform="scale(0.001,-0.001)" />

<path d="M522,92c0,0,247,0,247,333c0,0,0,88,-17,146c0,0,-17,58,-53,91c0,0,-35,33,-82,46c0,0,-48,14,-116,14H276V419c0,0,0,-327,246,-327Zm0,-112c0,0,-193,0,-289,109c0,0,-95,110,-95,337V836H501c0,0,213,0,309,-93c0,0,96,-94,96,-317c0,0,0,-227,-95,-337C811,89,715,-20,522,-20Z" 
id="f0_o"
transform="scale(0.001,-0.001)" />

<path d="M112,-5c0,0,-39,0,-97,11V113c0,0,48,-10,77,-10c0,0,53,0,70,42c0,0,17,43,17,164V729H50V836H501c0,0,107,0,179,-25c0,0,72,-25,112,-77c0,0,40,-51,57,-118c0,0,16,-67,16,-164V0H726V454c0,0,0,55,-3,92c0,0,-4,37,-17,75c0,0,-14,38,-38,59c0,0,-24,22,-65,36c0,0,-42,13,-102,13H318V309c0,0,0,-160,-46,-237C272,72,226,-5,112,-5Z" 
id="f0_h"
transform="scale(0.001,-0.001)" />

<path d="M66,0V107H332V555c0,0,0,92,-37,133c0,0,-37,41,-116,41H85V836h94c0,0,153,0,223,-66c0,0,69,-66,69,-231V0Z" 
id="f0_9"
transform="scale(0.001,-0.001)" />

<path d="M411,-20c0,0,-70,0,-142,11c0,0,-73,11,-151,35V178c0,0,67,-37,139,-54c0,0,72,-18,152,-18c0,0,129,0,204,67c0,0,75,68,75,184c0,0,0,117,-75,184c0,0,-75,68,-204,68c0,0,-61,0,-121,-13c0,0,-60,-13,-123,-42v560H757V987H303V714c0,0,33,11,66,17c0,0,33,5,65,5c0,0,187,0,296,-102c0,0,109,-102,109,-277c0,0,0,-179,-112,-279c0,0,-112,-98,-316,-98Z" 
id="f0_1f"
transform="scale(0.001,-0.001)" />

<path d="M248,-20c0,0,-52,0,-87,34c0,0,-36,36,-36,88c0,0,0,52,36,88c0,0,35,36,87,36c0,0,52,0,88,-36c0,0,36,-36,36,-88c0,0,0,-51,-36,-87c0,0,-35,-35,-88,-35Zm0,488c0,0,-52,0,-87,36c0,0,-36,36,-36,88c0,0,0,52,35,88c0,0,35,36,88,36c0,0,53,0,89,-36c0,0,35,-37,35,-88c0,0,0,-51,-36,-87c0,0,-35,-37,-88,-37Z" 
id="f1_3"
transform="scale(0.001,-0.001)" />

<path d="M131,353c0,0,-3,0,-6,2c0,0,-3,2,-16,20c0,0,-13,17,-13,28c0,0,0,5,8,9c0,0,45,26,84,67c0,0,38,41,38,85c0,0,0,28,-7,43c0,0,-7,15,-24,21c0,0,-17,6,-61,6H124c0,0,-38,0,-62,34c0,0,-24,35,-24,107c0,0,0,52,16,87c0,0,17,34,38,34c0,0,16,0,16,-12V870c0,0,0,-25,26,-25h63c0,0,29,0,53,-4c0,0,23,-4,39,-23c0,0,17,-19,26,-59c0,0,9,-40,9,-113c0,0,0,-76,-15,-124c0,0,-15,-47,-51,-83c0,0,-35,-36,-74,-61c0,0,-39,-25,-53,-25Z" 
id="f1_a"
transform="scale(0.001,-0.001)" />

<path d="M13,0L67,212H274c0,0,15,0,19,4c0,0,5,4,5,13c0,0,0,6,-9,22c0,0,-9,16,-19,38c0,0,-11,21,-20,45c0,0,-8,24,-8,48c0,0,0,18,11,89c0,0,11,70,11,102c0,0,0,27,-16,45c0,0,-17,18,-37,18H188c0,0,-89,0,-89,117c0,0,0,52,15,99c0,0,15,47,30,47c0,0,18,0,18,-22c0,0,0,-19,10,-25c0,0,10,-7,39,-7h56c0,0,65,0,86,-15c0,0,21,-16,21,-56c0,0,0,-21,-5,-50c0,0,-38,-172,-38,-258c0,0,0,-63,11,-100c0,0,11,-37,46,-104c0,0,20,-38,20,-58c0,0,0,-16,-10,-74C398,130,388,72,369,0Z" 
id="f1_1a"
transform="scale(0.001,-0.001)" />

<path d="M216,0c0,0,-59,212,-83,350c0,0,-25,139,-25,198c0,0,0,76,23,127c0,0,-42,13,-58,43c0,0,-15,30,-15,72c0,0,0,40,20,74c0,0,20,34,37,34c0,0,10,0,10,-13c0,0,0,-42,69,-42c0,0,57,0,80,-21c0,0,22,-21,22,-62c0,0,0,-38,-7,-72c0,0,-6,-34,-12,-34c0,0,-6,0,-16,10c0,0,-10,10,-25,10c0,0,-25,0,-35,-24c0,0,-10,-24,-10,-71c0,0,0,-164,72,-374c0,0,38,80,116,231c0,0,87,168,121,238c0,0,-36,6,-52,34c0,0,-17,28,-17,66c0,0,0,41,21,82c0,0,20,42,37,42c0,0,9,0,10,-7c0,0,5,-22,13,-32c0,0,9,-11,32,-12l44,-4c0,0,87,-4,87,-94c0,0,0,-33,-7,-67c0,0,-8,-34,-16,-34l-16,10c0,0,-15,10,-30,10c0,0,-22,0,-39,-29c0,0,-18,-32,-39,-72c0,0,-21,-41,-178,-355H691l38,91c0,0,58,139,124,224c0,0,38,50,60,80c0,0,22,29,22,45c0,0,0,12,-7,19c0,0,-6,7,-27,12c0,0,-42,18,-60,41c0,0,-17,24,-17,59c0,0,0,29,11,56c0,0,12,27,27,43c0,0,16,16,26,16c0,0,9,-1,10,-6l4,-14c0,0,4,-21,27,-25l70,-13c0,0,32,-6,51,-30c0,0,20,-24,20,-61c0,0,-2,-45,-23,-87c0,0,-21,-41,-91,-127c0,0,-46,-57,-77,-116c0,0,-31,-59,-71,-161L706,0Z" 
id="f1_6"
transform="scale(0.001,-0.001)" />

<path d="M423,-13c0,0,-9,0,-14,7c0,0,-5,6,-10,23c0,0,-13,51,-37,108c0,0,-25,58,-55,101c0,0,-21,-37,-51,-115C256,111,225,34,216,0H12L55,212h99c0,0,51,0,72,12c0,0,20,12,40,58c0,0,20,46,18,98V543c0,0,0,46,-7,61c0,0,-7,15,-23,22c0,0,-17,8,-50,8H189c0,0,-76,0,-76,115c0,0,0,56,16,103c0,0,16,47,33,47c0,0,14,0,14,-15c0,0,0,-17,9,-28c0,0,10,-11,40,-11h21c0,0,60,0,85,-8c0,0,25,-9,39,-26c0,0,13,-18,13,-49c0,0,0,-20,-4,-43c0,0,-5,-23,-10,-53c0,0,-6,-31,-10,-71c0,0,-5,-41,-5,-97c0,0,0,-150,62,-269c0,0,28,-58,38,-90l9,-65c0,0,0,-27,-13,-57c0,0,-13,-30,-27,-30Z" 
id="f1_9"
transform="scale(0.001,-0.001)" />

<path d="M554,-8c0,0,-9,0,-11,6c0,0,-2,5,-2,24V548c0,0,0,38,-5,56c0,0,-4,18,-15,25c0,0,-12,7,-41,7H90c0,0,-33,0,-52,33c0,0,-19,33,-19,90c0,0,0,54,15,97c0,0,14,43,30,43c0,0,17,0,17,-13V872c0,0,0,-9,7,-18c0,0,7,-9,27,-9H512c0,0,54,0,77,-8c0,0,23,-9,33,-28c0,0,9,-20,9,-67V81c0,0,0,-31,-27,-53L583,9C583,9,563,-8,554,-8Z" 
id="f1_8"
transform="scale(0.001,-0.001)" />

<path d="M131,-18c0,0,-10,0,-10,13l3,10c0,0,13,41,13,128l-3,137l-4,151c0,0,0,60,24,108c0,0,24,47,79,105H186c0,0,-37,0,-60,35c0,0,-22,36,-22,93c0,0,0,48,16,92c0,0,17,45,31,45c0,0,7,0,13,-6c0,0,7,-6,7,-18c0,0,0,-30,32,-30H749c0,0,28,0,37,-12c0,0,8,-12,8,-40V660c0,0,0,-28,-11,-37c0,0,-39,-28,-39,-91c0,0,0,-52,24,-213c0,0,23,-161,23,-221c0,0,0,-46,-42,-81c0,0,-43,-33,-69,-33c0,0,-5,0,-9,4c0,0,-3,5,-3,12c0,0,0,7,4,24c0,0,5,16,5,48c0,0,0,80,-15,234c0,0,-16,154,-16,178c0,0,0,39,14,73c0,0,14,33,46,77H304c0,0,-41,-50,-55,-91c0,0,-14,-41,-14,-109c0,0,0,-44,9,-145c0,0,8,-103,8,-156c0,0,0,-64,-24,-93c0,0,-59,-58,-97,-58Z" 
id="f1_b"
transform="scale(0.001,-0.001)" />

<path d="M595,60c0,0,141,0,206,102c0,0,65,102,65,340c0,0,0,236,-65,335c0,0,-65,100,-206,100c0,0,-142,0,-207,-100c0,0,-66,-99,-66,-335c0,0,0,-239,66,-340c0,0,65,-102,207,-102Zm0,-74c0,0,-253,0,-387,130C208,116,75,246,75,501c0,0,0,510,520,510c0,0,256,0,387,-129c0,0,132,-130,132,-381c0,0,0,-254,-133,-385C981,116,848,-14,595,-14Z" 
id="f1_1b"
transform="scale(0.001,-0.001)" />

<path d="M235,-20c0,0,-31,0,-51,19c0,0,-21,18,-21,50c0,0,0,65,39,120c0,0,39,54,125,109c0,0,56,35,87,56c0,0,32,20,46,33c0,0,79,45,79,143c0,0,0,27,-7,65c0,0,-8,39,-27,49c0,0,-19,10,-85,10H110c0,0,-36,0,-53,21c0,0,-17,22,-25,71c0,0,-7,49,-7,134c0,0,0,62,27,122c0,0,8,15,8,34c0,0,0,23,-35,37c0,0,-21,7,-30,29c0,0,-9,22,-9,72c0,0,0,24,10,46c0,0,8,22,25,38c0,0,16,16,26,16c0,0,17,0,17,-14c0,0,0,-9,7,-17c0,0,7,-8,34,-14c0,0,65,-15,81,-26c0,0,15,-10,15,-31c0,0,0,-15,-15,-38c0,0,-15,-22,-33,-53c0,0,-19,-30,-34,-67c0,0,-15,-36,-15,-79c0,0,0,-43,14,-56c0,0,15,-14,54,-14H518c0,0,39,0,63,-17c0,0,23,-16,33,-53c0,0,10,-36,17,-89c0,0,6,-52,6,-93c0,0,0,-99,-9,-144c0,0,-9,-44,-40,-80c0,0,-31,-36,-110,-86c0,0,-112,-71,-138,-95c0,0,-26,-23,-36,-44c0,0,-9,-20,-9,-43c0,0,0,-11,5,-26c0,0,6,-15,6,-26c0,0,0,-32,-20,-50c0,0,-20,-19,-51,-19Z" 
id="f1_d"
transform="scale(0.001,-0.001)" />

<path d="M721,-14c0,0,-12,0,-12,9l4,28c0,0,17,82,17,338c0,0,0,105,-11,163c0,0,-11,58,-35,84c0,0,-25,26,-83,26H315c0,0,-43,-39,-67,-90c0,0,-25,-51,-25,-104c0,0,0,-59,17,-104c0,0,17,-45,35,-78c0,0,18,-34,18,-44c0,0,0,-26,-20,-95C273,119,252,50,231,0H26L87,214h69c0,0,23,0,23,14l-7,15c0,0,-15,27,-27,68c0,0,-11,41,-11,83c0,0,0,68,25,124c0,0,25,57,86,116H200c0,0,-45,0,-71,32c0,0,-27,33,-27,94c0,0,0,49,17,93c0,0,16,43,32,43c0,0,17,0,17,-10V869c0,0,0,-24,27,-24H637c0,0,73,0,103,-18c0,0,30,-17,46,-62c0,0,17,-46,24,-124c0,0,8,-78,8,-214V338c0,0,0,-279,-27,-311c0,0,-14,-16,-37,-28c0,0,-23,-13,-33,-13Z" 
id="f1_e"
transform="scale(0.001,-0.001)" />

<path d="M22,0L76,212H399c0,0,67,0,105,25c0,0,38,24,56,77c0,0,19,53,19,132c0,0,0,97,-40,142c0,0,-39,46,-122,46H131c0,0,-46,0,-69,32c0,0,-24,33,-24,93c0,0,0,33,7,66c0,0,8,33,20,53c0,0,11,20,21,20c0,0,16,0,16,-14V870c0,0,0,-25,34,-25H460c0,0,62,0,95,-17c0,0,32,-17,58,-66c0,0,26,-48,39,-125c0,0,14,-77,14,-158c0,0,0,-299,-116,-479Z" 
id="f1_f"
transform="scale(0.001,-0.001)" />

<path d="M46,0l55,212H483c0,0,68,0,105,25c0,0,38,25,57,78c0,0,18,52,18,131c0,0,0,97,-39,142c0,0,-40,46,-123,46H275c0,0,-25,-15,-40,-35c0,0,-15,-20,-15,-32c0,0,0,-25,37,-25l49,-1c0,0,42,0,67,-26c0,0,26,-26,26,-72c0,0,0,-68,-17,-118c0,0,-18,-50,-41,-50c0,0,-19,0,-19,18c0,0,0,34,-14,51c0,0,-13,16,-54,16c0,0,-38,0,-57,-11c0,0,-19,-11,-26,-43c0,0,-3,-22,-18,-22c0,0,-22,0,-34,37c0,0,-12,38,-12,102c0,0,0,128,78,211H163c0,0,-33,0,-52,34c0,0,-19,35,-19,91c0,0,0,50,15,94c0,0,16,45,32,45c0,0,17,0,17,-14V870c0,0,0,-25,33,-25H544c0,0,62,0,95,-17c0,0,32,-17,58,-66c0,0,26,-48,40,-125c0,0,13,-77,13,-158c0,0,0,-296,-116,-479Z" 
id="f1_g"
transform="scale(0.001,-0.001)" />

<path d="M204,-8c0,0,-9,0,-11,5c0,0,-2,5,-2,22V549c0,0,0,40,-4,56c0,0,-4,16,-15,22c0,0,-10,7,-39,7H90c0,0,-33,0,-52,33c0,0,-19,33,-19,90c0,0,0,53,15,98c0,0,16,44,35,44c0,0,12,0,12,-13V872c0,0,0,-27,31,-27h42c0,0,79,0,103,-20c0,0,23,-19,23,-83V67c0,0,0,-16,-8,-26c0,0,-9,-10,-33,-30c0,0,-25,-19,-35,-19Z" 
id="f1_5"
transform="scale(0.001,-0.001)" />

<path d="M107,-18c0,0,-17,0,-17,18l3,9c0,0,23,48,23,124l-1,177c0,0,0,55,8,77c0,0,9,22,33,46c0,0,23,23,51,40c0,0,28,17,42,17c0,0,5,0,9,-3c0,0,5,-3,5,-8c0,0,0,-3,-11,-26c0,0,-14,-49,-14,-120l4,-223c0,0,0,-38,-9,-54c0,0,-8,-17,-32,-34C201,22,178,6,150,-5c0,0,-28,-13,-43,-13Zm547,0c0,0,-17,0,-17,18l2,10c0,0,10,38,10,109c0,0,0,79,-14,208c0,0,-15,128,-15,149c0,0,0,54,16,89c0,0,15,36,53,69H154c0,0,-35,0,-57,40c0,0,-21,40,-21,103c0,0,0,33,8,61c0,0,7,28,19,44c0,0,13,17,24,17c0,0,15,0,15,-13V869c0,0,0,-13,5,-19c0,0,5,-5,22,-5H718c0,0,50,0,50,-63V652c0,0,0,-21,-15,-30c0,0,-35,-24,-35,-77c0,0,0,-57,20,-169c0,0,27,-157,27,-272c0,0,0,-29,-6,-44c0,0,-6,-15,-17,-26c0,0,-12,-16,-47,-35L681,-9l-13,-6l-14,-3Z" 
id="f1_h"
transform="scale(0.001,-0.001)" />

<path d="M566,-14c0,0,-200,0,-308,93c0,0,-107,94,-107,270V926L38,945v55H515V945L386,926V339c0,0,0,-120,61,-184c0,0,61,-64,178,-64c0,0,112,0,173,63c0,0,61,62,61,184V926L725,945v55h340V945L952,926V343c0,0,0,-173,-100,-265c0,0,-100,-92,-286,-92Z" 
id="f1_1c"
transform="scale(0.001,-0.001)" />

<path d="M26,0V54L154,74V926L26,945v55H878V746H810L786,908c0,0,-83,10,-241,10H389V551H651l23,111h67V355H674L651,468H389V82H578c0,0,193,0,252,12l43,185h68L927,0Z" 
id="f1_c"
transform="scale(0.001,-0.001)" />

<path d="M139,0V836H485c0,0,206,0,290,-90c0,0,84,-89,84,-294V0H721V473c0,0,0,147,-49,202c0,0,-48,54,-186,54H277V0Z" 
id="f0_k"
transform="scale(0.001,-0.001)" />

<path d="M66,0V106H564L66,836H228L516,413c0,0,3,2,9,6c0,0,17,13,27,21c0,0,10,8,26,27c0,0,17,20,26,40c0,0,9,21,16,54c0,0,7,34,7,75V836H764V698c0,0,0,-55,-7,-102c0,0,-7,-47,-16,-79c0,0,-10,-33,-27,-62c0,0,-18,-29,-32,-46c0,0,-14,-17,-37,-35c0,0,-22,-17,-36,-25c0,0,-13,-8,-36,-20L767,53V0Z" 
id="f0_r"
transform="scale(0.001,-0.001)" />

<path d="M66,0V106H322c0,0,75,0,127,23c0,0,53,23,82,67c0,0,29,43,42,98c0,0,13,54,13,124c0,0,0,70,-13,124c0,0,-13,55,-42,98c0,0,-29,44,-82,67c0,0,-52,23,-127,23H66V836H322c0,0,87,0,157,-24c0,0,70,-24,115,-64c0,0,45,-40,74,-94c0,0,30,-55,43,-113c0,0,13,-59,13,-123c0,0,0,-64,-13,-123c0,0,-13,-58,-43,-113c0,0,-29,-54,-74,-94C594,88,549,48,479,24C479,24,409,0,322,0Z" 
id="f0_4"
transform="scale(0.001,-0.001)" />

<path d="M117,-176L179,62V190H336V62L213,-176Z" 
id="f0_2"
transform="scale(0.001,-0.001)" />

<path d="M55,0V40L184,60V941L55,960v40H455V960L327,941V60L455,40V0Z" 
id="f2_a"
transform="scale(0.001,-0.001)" />

<path d="M448,506c0,0,134,0,190,49c0,0,57,50,57,168c0,0,0,114,-56,162c0,0,-56,48,-195,48H316V506ZM777,0L496,438H316V60L468,40V0H54V40L172,60V941L44,960v40H476c0,0,188,0,277,-63c0,0,90,-64,90,-204c0,0,0,-100,-54,-173c0,0,-55,-73,-151,-101L909,60L1017,40V0Z" 
id="f2_b"
transform="scale(0.001,-0.001)" />

<path d="M44,0V40L172,60V941L44,960v40H794V760H745L721,922c0,0,-83,11,-241,11H316V543H586l23,119h48V354H609L586,475H316V67H513c0,0,193,0,252,12l43,185h49L843,0Z" 
id="f2_c"
transform="scale(0.001,-0.001)" />

<path d="M681,416L504,902L333,416ZM669,0V40L803,60L704,348H310L210,60L344,40V0H15V40L128,60l341,949H611L965,60L1092,40V0Z" 
id="f2_d"
transform="scale(0.001,-0.001)" />

<path d="M139,-317V836H278V-317Z" 
id="f0_3"
transform="scale(0.001,-0.001)" />

<path d="M383,64c0,0,85,0,152,28V645c0,0,-67,13,-152,13c0,0,-194,0,-194,-314c0,0,0,-141,48,-211c0,0,48,-69,146,-69ZM342,-14c0,0,-287,0,-287,358c0,0,0,184,82,280c0,0,81,96,239,96c0,0,81,0,163,-18c0,0,-4,25,-4,124v182l-118,18v34H659V52L745,33V0H548l-9,52c0,0,-84,-66,-197,-66Z" 
id="f2_p"
transform="scale(0.001,-0.001)" />

<path d="M379,60c0,0,59,0,84,64c0,0,24,65,24,231c0,0,0,164,-24,227c0,0,-24,63,-84,63c0,0,-57,0,-80,-60c0,0,-22,-61,-22,-230c0,0,0,-173,23,-234c0,0,22,-61,79,-61Zm-2,-74c0,0,-161,0,-240,91c0,0,-79,91,-79,277c0,0,0,186,80,276c0,0,81,90,245,90c0,0,167,0,245,-93c0,0,78,-93,78,-273c0,0,0,-188,-81,-278c0,0,-81,-90,-248,-90Z" 
id="f1_t"
transform="scale(0.001,-0.001)" />

<path d="M31,0V33l88,19V649L31,668v33H235l7,-87c0,0,44,37,121,71c0,0,76,35,121,35h11V530H463l-43,82c0,0,-37,0,-88,-10c0,0,-52,-10,-89,-26V52L363,33V0Z" 
id="f2_8"
transform="scale(0.001,-0.001)" />

<path d="M431,0V33L535,52V499c0,0,0,62,-32,96c0,0,-32,33,-95,33c0,0,-66,0,-163,-22V52L350,33V0H32V33l89,19V649L32,668v33H237l6,-57c0,0,56,32,119,54c0,0,62,22,110,22c0,0,52,0,95,-20c0,0,44,-19,66,-62c0,0,57,32,134,57c0,0,77,25,128,25c0,0,179,0,179,-207V52l90,-19V0H846V33L950,52V499c0,0,0,129,-119,129c0,0,-19,0,-45,-3c0,0,-26,-3,-52,-7c0,0,-25,-4,-49,-8c0,0,-23,-5,-39,-8c0,0,13,-41,13,-89V52L764,33V0Z" 
id="f2_r"
transform="scale(0.001,-0.001)" />

<path d="M32,0V33L151,52V649L52,668v33H275V52L395,33V0ZM201,850c0,0,-32,0,-56,24c0,0,-24,24,-24,56c0,0,0,34,24,58c0,0,24,24,56,24c0,0,34,0,58,-24c0,0,24,-24,24,-58c0,0,0,-32,-24,-56c0,0,-24,-24,-58,-24Z" 
id="f2_3"
transform="scale(0.001,-0.001)" />

<path d="M382,45c0,0,188,0,188,314c0,0,0,143,-47,213c0,0,-46,69,-141,69c0,0,-87,0,-146,-24V58c0,0,67,-13,146,-13ZM25,-325v35l88,18V649L34,668v33H231l1,-41c0,0,31,27,84,43c0,0,53,17,107,17c0,0,134,0,208,-94c0,0,73,-93,73,-267c0,0,0,-178,-80,-276c0,0,-80,-97,-232,-97c0,0,-84,0,-160,16c0,0,4,-53,4,-84V-272l123,-18v-35Z" 
id="f2_4"
transform="scale(0.001,-0.001)" />

<path d="M495,413c0,0,0,133,-34,190c0,0,-34,57,-105,57c0,0,-78,0,-119,-63c0,0,-42,-62,-42,-184ZM374,-14c0,0,-163,0,-239,87c0,0,-75,88,-75,283c0,0,0,183,77,273c0,0,76,91,219,91c0,0,269,0,269,-306V353H194V340c0,0,0,-103,23,-160c0,0,22,-57,70,-87c0,0,47,-29,124,-29c0,0,40,0,96,6c0,0,55,7,91,15V43C598,43,562,20,500,3c0,0,-61,-17,-126,-17Z" 
id="f2_2"
transform="scale(0.001,-0.001)" />

<path d="M700,-317V454c0,0,0,155,-54,215c0,0,-54,60,-180,60H277V551c0,0,0,-55,26,-80c0,0,27,-26,82,-26c0,0,30,0,80,10V341c0,0,-61,-11,-111,-11c0,0,-100,0,-157,55c0,0,-58,55,-58,186V836H466c0,0,203,0,288,-91c0,0,85,-92,85,-293V-317Z" 
id="f0_12"
transform="scale(0.001,-0.001)" />

<path d="M360,-14L72,649L0,668v33H327V668L216,648L420,164L615,649L504,668v33H764V668L697,652L416,-14Z" 
id="f2_v"
transform="scale(0.001,-0.001)" />

<path d="M31,0V33L150,52v956L31,1026v34H274V52L394,33V0Z" 
id="f2_m"
transform="scale(0.001,-0.001)" />

<path d="M284,67c0,0,51,0,88,12c0,0,37,12,74,30V358l-98,-3c0,0,-100,-4,-135,-39c0,0,-35,-35,-35,-117c0,0,0,-132,106,-132ZM233,-14c0,0,-179,0,-179,208c0,0,0,70,27,116c0,0,27,46,87,70c0,0,60,24,173,27l105,3V519c0,0,0,72,-26,107c0,0,-27,34,-82,34c0,0,-75,0,-137,-35L176,538H134V691c0,0,121,26,213,26c0,0,115,0,169,-47c0,0,54,-47,54,-144V52L657,33V0H465L451,70c0,0,-85,-84,-218,-84Z" 
id="f2_7"
transform="scale(0.001,-0.001)" />

<path d="M287,-18c0,0,-194,0,-194,206V634L23,652v49H309V217c0,0,0,-63,26,-98c0,0,27,-35,76,-35c0,0,57,0,113,25V634l-64,18v49H740V67L809,49V0H536L526,61L475,35c0,0,-104,-53,-188,-53Z" 
id="f1_r"
transform="scale(0.001,-0.001)" />

<path d="M434,423c0,0,0,101,-7,142c0,0,-6,40,-22,60c0,0,-16,19,-45,19c0,0,-44,0,-66,-48c0,0,-22,-49,-22,-173ZM389,-14c0,0,-172,0,-254,89c0,0,-83,90,-83,279c0,0,0,184,79,274c0,0,79,91,238,91c0,0,142,0,206,-76c0,0,64,-76,64,-237V345H271V333c0,0,0,-111,18,-158c0,0,18,-47,58,-72c0,0,40,-25,110,-25c0,0,66,0,166,22V42C623,42,582,18,517,1c0,0,-66,-15,-128,-15Z" 
id="f1_j"
transform="scale(0.001,-0.001)" />

<path d="M377,45c0,0,99,0,147,73c0,0,47,73,47,237c0,0,0,161,-47,233c0,0,-47,72,-147,72c0,0,-97,0,-141,-69c0,0,-44,-69,-44,-236c0,0,0,-169,45,-240c0,0,44,-70,140,-70Zm0,-59c0,0,-158,0,-238,94c0,0,-81,95,-81,274c0,0,0,178,81,272c0,0,80,94,244,94c0,0,160,0,241,-92c0,0,82,-92,82,-274c0,0,0,-368,-329,-368Z" 
id="f2_9"
transform="scale(0.001,-0.001)" />

<path d="M148,-329c0,0,-58,0,-114,13v151H69l24,-71c0,0,23,-17,64,-17c0,0,39,0,72,22c0,0,33,23,60,67c0,0,27,44,68,157L90,649L19,668v33H344V668L233,648L423,158L606,649L497,668v33H758V668L685,652L411,-43c0,0,-48,-124,-84,-177c0,0,-36,-54,-79,-82c0,0,-44,-27,-100,-27Z" 
id="f2_i"
transform="scale(0.001,-0.001)" />

<path d="M278,-14c0,0,-52,0,-115,11c0,0,-63,10,-99,23V193H98L134,95c0,0,56,-50,146,-50c0,0,144,0,144,123c0,0,0,91,-114,130l-66,21c0,0,-75,25,-110,50c0,0,-34,26,-53,63c0,0,-18,36,-18,89c0,0,0,92,63,145c0,0,63,54,170,54c0,0,77,0,193,-23V544H454l-32,81c0,0,-39,35,-124,35c0,0,-61,0,-92,-30c0,0,-32,-30,-32,-80c0,0,0,-43,29,-72c0,0,28,-29,86,-48c0,0,110,-38,144,-55c0,0,33,-17,57,-42c0,0,23,-25,36,-57c0,0,13,-32,13,-79c0,0,0,-104,-66,-158c0,0,-66,-53,-195,-53Z" 
id="f2_6"
transform="scale(0.001,-0.001)" />

<path d="M249,-14c0,0,-71,0,-107,42c0,0,-35,42,-35,119V639H15v33l93,29l76,159h47V701H391V639H231V161c0,0,0,-48,22,-73c0,0,22,-24,57,-24c0,0,44,0,106,12V26C416,26,389,8,340,-2c0,0,-49,-12,-91,-12Z" 
id="f2_e"
transform="scale(0.001,-0.001)" />

<path d="M289,-14c0,0,-179,0,-179,205V649L20,668v33H233V200c0,0,0,-128,120,-128c0,0,92,0,173,23V649L420,668v33H649V52L738,34V0H533l-6,57C527,57,474,28,405,6c0,0,-69,-20,-116,-20Zm24,849v24l147,203H618v-27L354,835Z" 
id="f2_j"
transform="scale(0.001,-0.001)" />

<path d="M495,413c0,0,0,133,-34,190c0,0,-34,57,-105,57c0,0,-78,0,-119,-62c0,0,-42,-63,-42,-185ZM374,-14c0,0,-163,0,-239,87c0,0,-75,88,-75,283c0,0,0,183,77,274c0,0,76,90,219,90c0,0,269,0,269,-306V353H194V339c0,0,0,-103,23,-160c0,0,22,-57,70,-86c0,0,47,-30,124,-30c0,0,40,0,96,6c0,0,55,7,91,15V43C598,43,562,19,500,2c0,0,-61,-16,-126,-16ZM285,835v24l146,203H590v-27L326,835Z" 
id="f2_l"
transform="scale(0.001,-0.001)" />

<path d="M0,-14L351,1007h73L75,-14Z" 
id="f2_n"
transform="scale(0.001,-0.001)" />

<path d="M557,-14c0,0,-199,0,-298,89c0,0,-99,90,-99,255V941L32,960v40H432V960L304,941V341c0,0,0,-273,264,-273c0,0,144,0,220,68c0,0,77,68,77,202V941L730,960v40h341V960L943,941V344c0,0,0,-180,-99,-269c0,0,-99,-89,-287,-89Z" 
id="f2_o"
transform="scale(0.001,-0.001)" />

<path d="M191,-20c0,0,-39,0,-65,25c0,0,-25,27,-25,64c0,0,0,38,26,64c0,0,26,26,64,26c0,0,38,0,64,-26c0,0,26,-26,26,-64c0,0,0,-37,-25,-64c0,0,-26,-25,-65,-25Z" 
id="f2_q"
transform="scale(0.001,-0.001)" />

<path d="M439,0V33l93,19V500c0,0,0,62,-30,97c0,0,-31,36,-94,36c0,0,-67,0,-165,-22V52L338,33V0H35V33l84,19V649L35,668v33H235l7,-57c0,0,57,33,122,54c0,0,65,22,108,22c0,0,91,0,137,-53c0,0,47,-53,47,-154V52L741,33V0Z" 
id="f2_5"
transform="scale(0.001,-0.001)" />

<path d="M32,0V34L151,52V649L52,668v33H275V52L395,34V0Zm71,835v24l146,203H408v-27L144,835Z" 
id="f2_s"
transform="scale(0.001,-0.001)" />

<path d="M284,67c0,0,51,0,88,12c0,0,37,11,74,29V357l-98,-3c0,0,-100,-3,-135,-38c0,0,-35,-36,-35,-118c0,0,0,-131,106,-131ZM233,-14c0,0,-179,0,-179,208c0,0,0,70,27,116c0,0,27,46,87,70c0,0,60,24,173,27l105,3V519c0,0,0,73,-26,107c0,0,-27,34,-82,34c0,0,-75,0,-137,-35L176,538H134V691c0,0,121,26,213,26c0,0,115,0,169,-47c0,0,54,-47,54,-144V52L657,34V0H465L451,70c0,0,-85,-84,-218,-84Zm22,849v24l146,203H560v-27L296,835Z" 
id="f2_u"
transform="scale(0.001,-0.001)" />

<path d="M513,74c0,0,-95,111,-201,166v27c0,0,107,54,201,165h54c0,0,-46,-96,-89,-146h738V221H478c0,0,43,-50,89,-147Z" 
id="f2_1e"
transform="scale(0.001,-0.001)" />

<path d="M259,282c0,0,-107,0,-186,75c0,0,-77,75,-77,183c0,0,0,106,77,183c0,0,79,75,186,75c0,0,104,0,180,-76c0,0,73,-77,73,-182c0,0,0,-109,-73,-183c0,0,-73,-75,-180,-75Z" 
id="f3_2"
transform="scale(0.001,-0.001)" />

<path d="M74,357V479H476V357Z" 
id="f0_17"
transform="scale(0.001,-0.001)" />

<path d="M122,-200c0,0,99,170,148,338c0,0,49,169,49,342c0,0,0,172,-49,340c0,0,-49,168,-148,340H241c0,0,112,-176,168,-345c0,0,55,-169,55,-335c0,0,0,-167,-55,-337c0,0,-56,-168,-168,-343Z" 
id="f0_w"
transform="scale(0.001,-0.001)" />

<path d="M399,-14c0,0,-341,0,-341,370c0,0,0,175,87,269c0,0,87,95,249,95c0,0,101,0,220,-23V501H573L541,625c0,0,-62,35,-149,35c0,0,-200,0,-200,-304c0,0,0,-158,61,-225c0,0,61,-67,189,-67c0,0,109,0,189,24V43C631,43,595,16,530,1c0,0,-64,-15,-131,-15Z" 
id="f2_y"
transform="scale(0.001,-0.001)" />

<path d="M354,-200c0,0,-112,175,-167,343c0,0,-56,170,-56,337c0,0,0,166,55,335c0,0,55,169,168,345H473c0,0,-100,-172,-148,-340c0,0,-48,-168,-48,-340c0,0,0,-173,48,-342c0,0,49,-168,148,-338Z" 
id="f0_v"
transform="scale(0.001,-0.001)" />

<path d="M159,0V165c0,0,0,69,13,124c0,0,12,55,29,89c0,0,17,33,45,62c0,0,29,28,50,42c0,0,22,14,54,30L128,836H405L666,460c0,0,41,48,41,155V836H952V671c0,0,0,-50,-6,-93c0,0,-6,-42,-16,-73c0,0,-10,-30,-26,-57c0,0,-17,-27,-31,-44c0,0,-15,-17,-37,-33c0,0,-22,-16,-38,-25c0,0,-15,-9,-38,-21L984,0H706L445,376c0,0,-41,-48,-41,-155V0Z" 
id="f4_i"
transform="scale(0.001,-0.001)" />

<path d="M129,0l69,362c0,0,10,56,12,100c0,0,0,84,-27,159c0,0,-27,76,-117,215H322c0,0,9,-6,31,-79c0,0,23,-72,23,-105c0,0,23,82,100,138c0,0,77,57,160,57c0,0,332,0,332,-397V0H538V177H721V449c0,0,0,124,-20,170c0,0,-20,47,-82,47c0,0,-23,0,-43,-9c0,0,-19,-10,-34,-23c0,0,-14,-14,-27,-39c0,0,-13,-25,-22,-46c0,0,-8,-22,-17,-57c0,0,-9,-36,-15,-61c0,0,-5,-24,-13,-65L375,0Z" 
id="f4_j"
transform="scale(0.001,-0.001)" />

<path d="M154,-13c0,0,-38,0,-85,9V198c0,0,58,-15,103,-15c0,0,84,0,118,60c0,0,35,61,35,206c0,0,0,66,-7,105c0,0,-6,39,-24,63c0,0,-17,25,-44,33c0,0,-27,8,-73,8H66V836H225c0,0,198,0,275,-115c0,0,56,-84,65,-264c0,0,3,-55,3,-148c0,0,0,-177,71,-309L393,1c0,0,-53,130,-54,141c0,0,-28,-90,-65,-123c0,0,-38,-32,-120,-32Z" 
id="f4_k"
transform="scale(0.001,-0.001)" />

<path d="M139,0V836H386V0Z" 
id="f4_d"
transform="scale(0.001,-0.001)" />

<path d="M453,0V658H66V836H833V658H700V0Z" 
id="f4_l"
transform="scale(0.001,-0.001)" />

<path d="M71,0V90H214v934H71v90H1073V851H970v160H502V654H792V796H895V411H792V552H502V103H984V263h102V0Z" 
id="f5_2"
transform="scale(0.001,-0.001)" />

<path d="M87,-338c0,0,-45,0,-94,7c0,0,-51,8,-105,22v168l84,-1c0,0,1,-59,23,-86c0,0,21,-26,70,-26c0,0,55,0,77,35c0,0,21,35,21,127V703H51v90H427V-92c0,0,0,-122,-86,-184c0,0,-86,-62,-254,-62ZM277,876c0,0,-61,0,-102,41c0,0,-42,41,-42,101c0,0,0,60,41,101c0,0,42,42,103,42c0,0,58,0,100,-42c0,0,42,-42,42,-101c0,0,0,-59,-42,-101c0,0,-41,-41,-100,-41Z" 
id="f5_3"
transform="scale(0.001,-0.001)" />

<path d="M612,448c0,0,0,156,-29,219c0,0,-29,63,-99,63c0,0,-68,0,-98,-61c0,0,-29,-62,-29,-208V448ZM488,-20c0,0,-205,0,-315,107C173,87,63,195,63,397c0,0,0,197,112,307c0,0,113,110,313,110c0,0,197,0,303,-115c0,0,105,-116,111,-340H357v-6c0,0,0,-154,46,-222c0,0,46,-68,149,-68c0,0,86,0,139,45c0,0,53,46,68,133H883C883,241,851,105,755,42c0,0,-95,-62,-267,-62Z" 
id="f5_4"
transform="scale(0.001,-0.001)" />

<path d="M53,0V90H165V703H53v90H429V681c0,0,47,69,106,101c0,0,60,32,142,32c0,0,97,0,158,-37c0,0,60,-37,93,-114c0,0,55,79,119,115c0,0,64,36,150,36c0,0,137,0,204,-77c0,0,68,-77,68,-233V90h113V0H1110V90h95V464c0,0,0,149,-23,188c0,0,-23,38,-85,38c0,0,-70,0,-109,-54c0,0,-39,-54,-39,-154V90h95V0H591V90h94V464c0,0,0,149,-23,188c0,0,-23,38,-84,38c0,0,-71,0,-110,-54c0,0,-39,-54,-39,-154V90h95V0Z" 
id="f5_5"
transform="scale(0.001,-0.001)" />

<path d="M562,95c0,0,82,0,115,65c0,0,33,66,33,237c0,0,0,171,-33,236c0,0,-33,65,-115,65c0,0,-79,0,-114,-62c0,0,-35,-62,-35,-200V357c0,0,0,-138,35,-200c0,0,35,-62,114,-62ZM35,-317v90H149V703H35v90H413V692c0,0,33,62,90,92c0,0,57,30,140,30c0,0,169,0,267,-111c0,0,97,-111,97,-306c0,0,0,-195,-97,-307C910,90,812,-20,643,-20c0,0,-83,0,-140,29c0,0,-57,30,-90,92V-227H535v-90Z" 
id="f5_6"
transform="scale(0.001,-0.001)" />

<path d="M53,0V90H165v981H53v90H429V90H543V0Z" 
id="f5_7"
transform="scale(0.001,-0.001)" />

<path d="M510,63c0,0,84,0,118,71c0,0,34,72,34,263c0,0,0,191,-34,262c0,0,-33,71,-118,71c0,0,-84,0,-119,-72c0,0,-34,-72,-34,-261c0,0,0,-190,34,-262c0,0,35,-72,119,-72Zm0,-83c0,0,-209,0,-328,110C182,90,63,201,63,397c0,0,0,196,119,307c0,0,119,110,328,110c0,0,211,0,330,-110c0,0,118,-111,118,-307c0,0,0,-196,-119,-307C839,90,720,-20,510,-20Z" 
id="f5_8"
transform="scale(0.001,-0.001)" />

<path d="M179,0V190H336V0Zm0,600V790H336V600Z" 
id="f0_13"
transform="scale(0.001,-0.001)" />

<path d="M190,0V127H436V977L168,923v137l267,54H586V127H832V0Z" 
id="f0_14"
transform="scale(0.001,-0.001)" />

<path d="M111,0V127c0,0,86,89,234,238c0,0,148,150,186,193c0,0,73,81,101,138c0,0,29,56,29,110c0,0,0,89,-62,145c0,0,-62,56,-162,56c0,0,-71,0,-150,-25c0,0,-78,-24,-168,-75v153c0,0,91,37,170,55c0,0,79,19,145,19c0,0,173,0,276,-86c0,0,103,-87,103,-232c0,0,0,-68,-26,-130c0,0,-26,-61,-94,-145c0,0,-18,-22,-118,-125C575,416,475,313,293,127H818V0Z" 
id="f0_15"
transform="scale(0.001,-0.001)" />

<path d="M543,-317V369c0,0,0,85,-8,143c0,0,-8,58,-27,101c0,0,-18,44,-51,69c0,0,-33,24,-80,36c0,0,-48,11,-117,11H66V836H257c0,0,125,0,205,-23c0,0,80,-23,130,-79c0,0,50,-56,70,-143c0,0,20,-86,20,-222V-317Z" 
id="f0_t"
transform="scale(0.001,-0.001)" />

<path d="M289,-14c0,0,-179,0,-179,205V649L20,668v33H233V200c0,0,0,-128,120,-128c0,0,92,0,173,23V649L420,668v33H649V52L738,33V0H533l-6,57C527,57,474,28,405,7c0,0,-69,-21,-116,-21Z" 
id="f2_g"
transform="scale(0.001,-0.001)" />

<path d="M345,75c0,0,50,0,110,26V351l-63,-2c0,0,-72,-3,-100,-38c0,0,-28,-35,-28,-113c0,0,0,-63,22,-93c0,0,23,-30,59,-30ZM266,-14c0,0,-217,0,-217,208c0,0,0,79,32,126c0,0,32,48,93,71c0,0,60,22,190,25l91,2V521c0,0,0,126,-104,126c0,0,-62,0,-140,-39L183,521H134V691c0,0,112,17,165,21c0,0,53,5,108,5c0,0,264,0,264,-194V67L741,49V0H483L466,54C466,54,408,14,361,0c0,0,-47,-14,-95,-14Z" 
id="f1_l"
transform="scale(0.001,-0.001)" />

<path d="M438,65c0,0,131,0,131,293c0,0,0,279,-130,279c0,0,-69,0,-127,-29V80c0,0,60,-15,126,-15ZM20,-325v50l76,18V634L19,652v49H304l1,-36c0,0,80,55,194,55c0,0,146,0,218,-86c0,0,71,-86,71,-271c0,0,0,-183,-83,-280c0,0,-83,-97,-238,-97c0,0,-79,0,-160,19c0,0,5,-48,5,-109V-257l103,-18v-50Z" 
id="f1_m"
transform="scale(0.001,-0.001)" />

<path d="M41,0V49l91,18V634L41,652v49H336l8,-145c0,0,80,89,144,128c0,0,64,40,117,40h40V468H604l-45,94c0,0,-47,0,-106,-21c0,0,-60,-20,-105,-48V67L460,49V0Z" 
id="f1_n"
transform="scale(0.001,-0.001)" />

<path d="M425,-14c0,0,-187,0,-280,90c0,0,-93,90,-93,276c0,0,0,115,42,198c0,0,43,82,121,126c0,0,78,44,182,44c0,0,104,0,227,-26V486H571L539,609c0,0,-25,19,-50,26c0,0,-24,7,-65,7c0,0,-44,0,-79,-35c0,0,-36,-35,-56,-98c0,0,-20,-64,-20,-153c0,0,0,-150,47,-214c0,0,47,-64,148,-64c0,0,103,0,176,21V42C640,42,606,15,547,0c0,0,-59,-14,-122,-14Z" 
id="f1_o"
transform="scale(0.001,-0.001)" />

<path d="M327,-14c0,0,-101,0,-156,45c0,0,-55,45,-55,131V624H25v48l108,29l87,159H332V701H480V624H332V176c0,0,0,-49,20,-73c0,0,20,-25,53,-25c0,0,40,0,97,12V26c0,0,-22,-15,-76,-27c0,0,-55,-13,-99,-13Z" 
id="f1_p"
transform="scale(0.001,-0.001)" />

<path d="M34,0V49l76,18V634L38,652v49H325V67L402,49V0ZM217,831c0,0,-48,0,-81,33c0,0,-34,33,-34,82c0,0,0,48,34,81c0,0,34,33,81,33c0,0,48,0,81,-33c0,0,33,-33,33,-81c0,0,0,-47,-33,-81c0,0,-32,-34,-81,-34Z" 
id="f1_k"
transform="scale(0.001,-0.001)" />

<path d="M248,0L521,658H66v429H313V836l493,-1V716L504,0Z" 
id="f4_a"
transform="scale(0.001,-0.001)" />

<path d="M102,250V836H349V351L102,250Z" 
id="f4_8"
transform="scale(0.001,-0.001)" />

<path d="M534,0V425c0,0,0,109,-41,171c0,0,-41,62,-140,62H66V836H352c0,0,99,0,174,-20c0,0,75,-20,123,-55c0,0,48,-35,78,-87c0,0,30,-53,42,-113c0,0,12,-60,12,-136V0Z" 
id="f4_4"
transform="scale(0.001,-0.001)" />

<path d="M173,-6C173,-6,61,-6,15,9V177c0,0,73,-10,82,-10c0,0,37,0,52,30c0,0,14,29,14,116V658H18V836H516c0,0,262,0,341,-145c0,0,48,-89,48,-242V0H658V450c0,0,0,131,-37,171c0,0,-34,37,-105,37H411V313c0,0,0,-189,-67,-258C344,55,285,-6,173,-6Z" 
id="f4_h"
transform="scale(0.001,-0.001)" />

<path d="M553,159c0,0,76,0,113,49c0,0,38,49,38,147c0,0,0,98,-38,147c0,0,-37,49,-113,49c0,0,-76,0,-113,-49c0,0,-38,-49,-38,-147c0,0,0,-98,38,-147c0,0,37,-49,113,-49ZM550,-20c0,0,-217,0,-336,145C214,125,95,272,95,541c0,0,0,276,139,434c0,0,139,157,381,157c0,0,77,0,149,-11c0,0,73,-12,143,-36V879c0,0,-70,34,-133,50c0,0,-63,16,-122,16c0,0,-128,0,-200,-72c0,0,-71,-71,-83,-211c0,0,49,37,106,55c0,0,58,18,125,18c0,0,171,0,276,-100c0,0,105,-100,105,-262c0,0,0,-179,-117,-287C864,86,747,-20,550,-20Z" 
id="f4_w"
transform="scale(0.001,-0.001)" />

<path d="M0,-141L388,1114H514L127,-141Z" 
id="f0_11"
transform="scale(0.001,-0.001)" />

<path d="M280,0L660,987H125v127H841v-64L437,0Z" 
id="f0_1h"
transform="scale(0.001,-0.001)" />


</defs>
</svg>