<?xml version="1.0" encoding="UTF-8" standalone="no"?>
<!DOCTYPE svg PUBLIC "-//W3C//DTD SVG 1.1//EN"
"http://www.w3.org/Graphics/SVG/1.1/DTD/svg11.dtd">
<svg viewBox="0 0 909 1286" version="1.1" xmlns="http://www.w3.org/2000/svg" xmlns:xlink="http://www.w3.org/1999/xlink">
<defs>
<clipPath id="c0_13"><path d="M0,1286.2V0H909.4V1286.2Z" /></clipPath>
<clipPath id="c1_13"><path d="M642.4,1036.4v-21.3h.3v21.3Z" /></clipPath>
<style type="text/css"><![CDATA[
.g0_13{
fill: none;
stroke: #000000;
stroke-width: 0.7638889;
stroke-linecap: butt;
stroke-linejoin: round;
}
.g1_13{
fill: none;
stroke: #0000FF;
stroke-width: 1.0694444;
stroke-linecap: butt;
stroke-linejoin: miter;
}
]]></style>
</defs>
<g clip-path="url(#c0_13)">
<g fill="#000000" >
<use xlink:href="#f0_w" transform="matrix(16,0,0,16,620.7,151.3)" />
<use xlink:href="#f0_o" transform="matrix(16,0,0,16,633.3,151.3)" />
<use xlink:href="#f0_q" transform="matrix(16,0,0,16,644.5,151.3)" />
<use xlink:href="#f0_11" transform="matrix(16,0,0,16,657.1,151.3)" />
<use xlink:href="#f0_1n" transform="matrix(16,0,0,16,671.1,151.3)" />
<use xlink:href="#f0_p" transform="matrix(16,0,0,16,685,151.3)" />
<use xlink:href="#f0_j" transform="matrix(16,0,0,16,702.7,151.3)" />
<use xlink:href="#f0_w" transform="matrix(16,0,0,16,721.7,151.3)" />
<use xlink:href="#f0_o" transform="matrix(16,0,0,16,734.4,151.3)" />
<use xlink:href="#f0_q" transform="matrix(16,0,0,16,745.5,151.3)" />
<use xlink:href="#f0_11" transform="matrix(16,0,0,16,758.2,151.3)" />
<use xlink:href="#f1_9" transform="matrix(12,0,0,12,721.2,212.2)" />
<use xlink:href="#f1_3" transform="matrix(12,0,0,12,733.2,212.2)" />
<use xlink:href="#f1_7" transform="matrix(12,0,0,12,743.6,212.2)" />
<use xlink:href="#f1_8" transform="matrix(12,0,0,12,747.7,212.2)" />
<use xlink:href="#f1_9" transform="matrix(12,0,0,12,760.2,212.2)" />
<use xlink:href="#f2_w" transform="matrix(11,0,0,11,684.1,212.2)" />
<use xlink:href="#f2_3" transform="matrix(11,0,0,11,692.5,212.2)" />
<use xlink:href="#f2_m" transform="matrix(11,0,0,11,698.2,212.2)" />
<use xlink:href="#f2_a" transform="matrix(11,0,0,11,705.6,212.2)" />
<use xlink:href="#f1_9" transform="matrix(12,0,0,12,509.6,212.2)" />
<use xlink:href="#f1_3" transform="matrix(12,0,0,12,521.6,212.2)" />
<use xlink:href="#f1_7" transform="matrix(12,0,0,12,532,212.2)" />
<use xlink:href="#f1_8" transform="matrix(12,0,0,12,536.1,212.2)" />
<use xlink:href="#f1_9" transform="matrix(12,0,0,12,548.6,212.2)" />
<use xlink:href="#f1_3" transform="matrix(12,0,0,12,567.5,212.2)" />
<use xlink:href="#f1_4" transform="matrix(12,0,0,12,577.9,212.2)" />
<use xlink:href="#f1_9" transform="matrix(12,0,0,12,597.8,212.2)" />
<use xlink:href="#f1_7" transform="matrix(12,0,0,12,609.8,212.2)" />
<use xlink:href="#f1_7" transform="matrix(12,0,0,12,613.9,212.2)" />
<use xlink:href="#f1_w" transform="matrix(12,0,0,12,618,212.2)" />
<use xlink:href="#f1_9" transform="matrix(12,0,0,12,629.9,212.2)" />
<use xlink:href="#f1_d" transform="matrix(12,0,0,12,648.8,212.2)" />
<use xlink:href="#f1_7" transform="matrix(12,0,0,12,661,212.2)" />
<use xlink:href="#f1_9" transform="matrix(12,0,0,12,665.1,212.2)" />
<use xlink:href="#f2_w" transform="matrix(11,0,0,11,456.8,212.2)" />
<use xlink:href="#f2_3" transform="matrix(11,0,0,11,465.1,212.2)" />
<use xlink:href="#f2_m" transform="matrix(11,0,0,11,470.7,212.2)" />
<use xlink:href="#f2_a" transform="matrix(11,0,0,11,478.1,212.2)" />
<use xlink:href="#f2_e" transform="matrix(11,0,0,11,486.6,212.2)" />
<use xlink:href="#f2_2" transform="matrix(11,0,0,11,495,212.2)" />
<use xlink:href="#f1_9" transform="matrix(12,0,0,12,137.8,212.2)" />
<use xlink:href="#f1_8" transform="matrix(12,0,0,12,149.7,212.2)" />
<use xlink:href="#f1_c" transform="matrix(12,0,0,12,162.2,212.2)" />
<use xlink:href="#f1_q" transform="matrix(12,0,0,12,167.1,212.2)" />
<use xlink:href="#f1_f" transform="matrix(12,0,0,12,177.2,212.2)" />
<use xlink:href="#f1_6" transform="matrix(12,0,0,12,194.7,212.2)" />
<use xlink:href="#f1_b" transform="matrix(12,0,0,12,206.9,212.2)" />
<use xlink:href="#f1_l" transform="matrix(12,0,0,12,217.8,212.2)" />
<use xlink:href="#f1_6" transform="matrix(12,0,0,12,236.2,212.2)" />
<use xlink:href="#f1_4" transform="matrix(12,0,0,12,248.3,212.2)" />
<use xlink:href="#f1_3" transform="matrix(12,0,0,12,261.3,212.2)" />
<use xlink:href="#f1_2" transform="matrix(12,0,0,12,278.6,212.2)" />
<use xlink:href="#f1_c" transform="matrix(12,0,0,12,288.4,212.2)" />
<use xlink:href="#f1_8" transform="matrix(12,0,0,12,293.4,212.2)" />
<use xlink:href="#f1_t" transform="matrix(12,0,0,12,305.9,212.2)" />
<use xlink:href="#f1_f" transform="matrix(12,0,0,12,317.8,212.2)" />
<use xlink:href="#f1_9" transform="matrix(12,0,0,12,335.4,212.2)" />
<use xlink:href="#f1_l" transform="matrix(12,0,0,12,347.3,212.2)" />
<use xlink:href="#f1_7" transform="matrix(12,0,0,12,358.7,212.2)" />
<use xlink:href="#f1_m" transform="matrix(12,0,0,12,362.8,212.2)" />
<use xlink:href="#f1_c" transform="matrix(12,0,0,12,374.2,212.2)" />
<use xlink:href="#f1_8" transform="matrix(12,0,0,12,379.2,212.2)" />
<use xlink:href="#f1_d" transform="matrix(12,0,0,12,398.9,212.2)" />
<use xlink:href="#f1_7" transform="matrix(12,0,0,12,411.1,212.2)" />
<use xlink:href="#f1_9" transform="matrix(12,0,0,12,415.2,212.2)" />
<use xlink:href="#f1_4" transform="matrix(12,0,0,12,427.1,212.2)" />
<use xlink:href="#f1_i" transform="matrix(12,0,0,12,440.1,212.2)" />
<use xlink:href="#f1_3" transform="matrix(12,0,0,12,761.8,233.6)" />
<use xlink:href="#f2_v" transform="matrix(11,0,0,11,677.3,233.6)" />
<use xlink:href="#f2_f" transform="matrix(11,0,0,11,685.7,233.6)" />
<use xlink:href="#f2_2" transform="matrix(11,0,0,11,694.1,233.6)" />
<use xlink:href="#f2_a" transform="matrix(11,0,0,11,701.5,233.6)" />
<use xlink:href="#f2_6" transform="matrix(11,0,0,11,709.8,233.6)" />
<use xlink:href="#f2_v" transform="matrix(11,0,0,11,714.5,233.6)" />
<use xlink:href="#f2_f" transform="matrix(11,0,0,11,722.9,233.6)" />
<use xlink:href="#f2_2" transform="matrix(11,0,0,11,731.3,233.6)" />
<use xlink:href="#f2_a" transform="matrix(11,0,0,11,738.8,233.6)" />
<use xlink:href="#f2_8" transform="matrix(11,0,0,11,747.2,233.6)" />
<use xlink:href="#f1_9" transform="matrix(12,0,0,12,614.9,233.6)" />
<use xlink:href="#f1_3" transform="matrix(12,0,0,12,626.9,233.6)" />
<use xlink:href="#f1_7" transform="matrix(12,0,0,12,637.2,233.6)" />
<use xlink:href="#f1_8" transform="matrix(12,0,0,12,641.4,233.6)" />
<use xlink:href="#f1_9" transform="matrix(12,0,0,12,653.9,233.6)" />
<use xlink:href="#f1_j" transform="matrix(12,0,0,12,671.6,233.6)" />
<use xlink:href="#f2_w" transform="matrix(11,0,0,11,578.9,233.6)" />
<use xlink:href="#f2_3" transform="matrix(11,0,0,11,587.3,233.6)" />
<use xlink:href="#f2_m" transform="matrix(11,0,0,11,592.9,233.6)" />
<use xlink:href="#f2_a" transform="matrix(11,0,0,11,600.4,233.6)" />
<use xlink:href="#f1_j" transform="matrix(12,0,0,12,430.2,233.6)" />
<use xlink:href="#f1_a" transform="matrix(12,0,0,12,436,233.6)" />
<use xlink:href="#f1_i" transform="matrix(12,0,0,12,446.4,233.6)" />
<use xlink:href="#f1_o" transform="matrix(12,0,0,12,456,233.6)" />
<use xlink:href="#f1_3" transform="matrix(12,0,0,12,462.4,233.6)" />
<use xlink:href="#f1_c" transform="matrix(12,0,0,12,472.8,233.6)" />
<use xlink:href="#f1_9" transform="matrix(12,0,0,12,483.8,233.6)" />
<use xlink:href="#f1_f" transform="matrix(12,0,0,12,495.7,233.6)" />
<use xlink:href="#f1_p" transform="matrix(12,0,0,12,506.3,233.6)" />
<use xlink:href="#f1_n" transform="matrix(12,0,0,12,519.2,233.6)" />
<use xlink:href="#f1_3" transform="matrix(12,0,0,12,526.6,233.6)" />
<use xlink:href="#f1_9" transform="matrix(12,0,0,12,542.9,233.6)" />
<use xlink:href="#f1_9" transform="matrix(12,0,0,12,554.8,233.6)" />
<use xlink:href="#f1_o" transform="matrix(12,0,0,12,566.7,233.6)" />
<use xlink:href="#f1_15" transform="matrix(12,0,0,12,719.9,255)" />
<use xlink:href="#f1_3" transform="matrix(12,0,0,12,726,255)" />
<use xlink:href="#f1_4" transform="matrix(12,0,0,12,736.4,255)" />
<use xlink:href="#f1_8" transform="matrix(12,0,0,12,749.4,255)" />
<use xlink:href="#f1_3" transform="matrix(12,0,0,12,761.7,255)" />
<use xlink:href="#f2_d" transform="matrix(11,0,0,11,589.7,255)" />
<use xlink:href="#f2_l" transform="matrix(11,0,0,11,600,255)" />
<use xlink:href="#f2_l" transform="matrix(11,0,0,11,610,255)" />
<use xlink:href="#f2_4" transform="matrix(11,0,0,11,614.7,255)" />
<use xlink:href="#f2_v" transform="matrix(11,0,0,11,619.3,255)" />
<use xlink:href="#f2_3" transform="matrix(11,0,0,11,627.7,255)" />
<use xlink:href="#f2_8" transform="matrix(11,0,0,11,633.3,255)" />
<use xlink:href="#f2_2" transform="matrix(11,0,0,11,647.1,255)" />
<use xlink:href="#f2_g" transform="matrix(11,0,0,11,654.5,255)" />
<use xlink:href="#f2_w" transform="matrix(11,0,0,11,666.6,255)" />
<use xlink:href="#f2_3" transform="matrix(11,0,0,11,674.8,255)" />
<use xlink:href="#f2_m" transform="matrix(11,0,0,11,680.4,255)" />
<use xlink:href="#f2_a" transform="matrix(11,0,0,11,687.9,255)" />
<use xlink:href="#f2_e" transform="matrix(11,0,0,11,696.3,255)" />
<use xlink:href="#f2_2" transform="matrix(11,0,0,11,704.7,255)" />
<use xlink:href="#f1_3" transform="matrix(12,0,0,12,523.1,255)" />
<use xlink:href="#f1_2" transform="matrix(12,0,0,12,540.5,255)" />
<use xlink:href="#f1_c" transform="matrix(12,0,0,12,550.3,255)" />
<use xlink:href="#f1_m" transform="matrix(12,0,0,12,555.3,255)" />
<use xlink:href="#f1_9" transform="matrix(12,0,0,12,566.7,255)" />
<use xlink:href="#f1_7" transform="matrix(12,0,0,12,578.6,255)" />
<use xlink:href="#f2_d" transform="matrix(11,0,0,11,272.4,255)" />
<use xlink:href="#f2_l" transform="matrix(11,0,0,11,282.6,255)" />
<use xlink:href="#f2_w" transform="matrix(11,0,0,11,292.8,255)" />
<use xlink:href="#f2_3" transform="matrix(11,0,0,11,301.1,255)" />
<use xlink:href="#f2_m" transform="matrix(11,0,0,11,306.7,255)" />
<use xlink:href="#f2_a" transform="matrix(11,0,0,11,314.2,255)" />
<use xlink:href="#f2_l" transform="matrix(11,0,0,11,328,255)" />
<use xlink:href="#f2_4" transform="matrix(11,0,0,11,332.6,255)" />
<use xlink:href="#f2_v" transform="matrix(11,0,0,11,337.4,255)" />
<use xlink:href="#f2_3" transform="matrix(11,0,0,11,345.6,255)" />
<use xlink:href="#f2_8" transform="matrix(11,0,0,11,351.2,255)" />
<use xlink:href="#f2_o" transform="matrix(11,0,0,11,359.6,255)" />
<use xlink:href="#f2_1h" transform="matrix(11,0,0,11,369.2,255)" />
<use xlink:href="#f2_m" transform="matrix(11,0,0,11,379.5,255)" />
<use xlink:href="#f2_p" transform="matrix(11,0,0,11,392.4,255)" />
<use xlink:href="#f2_m" transform="matrix(11,0,0,11,405.4,255)" />
<use xlink:href="#f2_2" transform="matrix(11,0,0,11,412.9,255)" />
<use xlink:href="#f2_g" transform="matrix(11,0,0,11,420.3,255)" />
<use xlink:href="#f2_h" transform="matrix(11,0,0,11,426.9,255)" />
<use xlink:href="#f2_3" transform="matrix(11,0,0,11,431.5,255)" />
<use xlink:href="#f2_m" transform="matrix(11,0,0,11,437.1,255)" />
<use xlink:href="#f2_2" transform="matrix(11,0,0,11,450.1,255)" />
<use xlink:href="#f2_g" transform="matrix(11,0,0,11,457.4,255)" />
<use xlink:href="#f2_w" transform="matrix(11,0,0,11,469.4,255)" />
<use xlink:href="#f2_3" transform="matrix(11,0,0,11,477.7,255)" />
<use xlink:href="#f2_m" transform="matrix(11,0,0,11,483.3,255)" />
<use xlink:href="#f2_a" transform="matrix(11,0,0,11,490.8,255)" />
<use xlink:href="#f2_e" transform="matrix(11,0,0,11,499.2,255)" />
<use xlink:href="#f2_2" transform="matrix(11,0,0,11,507.6,255)" />
<use xlink:href="#f1_3" transform="matrix(12,0,0,12,197.7,255)" />
<use xlink:href="#f1_2" transform="matrix(12,0,0,12,215.2,255)" />
<use xlink:href="#f1_c" transform="matrix(12,0,0,12,225,255)" />
<use xlink:href="#f1_m" transform="matrix(12,0,0,12,230,255)" />
<use xlink:href="#f1_9" transform="matrix(12,0,0,12,241.4,255)" />
<use xlink:href="#f1_e" transform="matrix(12,0,0,12,253.3,255)" />
<use xlink:href="#f2_1h" transform="matrix(11,0,0,11,137.5,255)" />
<use xlink:href="#f2_m" transform="matrix(11,0,0,11,147.7,255)" />
<use xlink:href="#f2_w" transform="matrix(11,0,0,11,160.5,255)" />
<use xlink:href="#f2_3" transform="matrix(11,0,0,11,168.9,255)" />
<use xlink:href="#f2_m" transform="matrix(11,0,0,11,174.6,255)" />
<use xlink:href="#f2_a" transform="matrix(11,0,0,11,182,255)" />
<use xlink:href="#f2_p" transform="matrix(11,0,0,11,719.7,276.4)" />
<use xlink:href="#f2_m" transform="matrix(11,0,0,11,732.7,276.4)" />
<use xlink:href="#f2_2" transform="matrix(11,0,0,11,740.2,276.4)" />
<use xlink:href="#f2_g" transform="matrix(11,0,0,11,747.7,276.4)" />
<use xlink:href="#f2_h" transform="matrix(11,0,0,11,754.1,276.4)" />
<use xlink:href="#f2_3" transform="matrix(11,0,0,11,758.8,276.4)" />
<use xlink:href="#f2_m" transform="matrix(11,0,0,11,764.4,276.4)" />
<use xlink:href="#f1_j" transform="matrix(12,0,0,12,714.1,276.4)" />
<use xlink:href="#f0_17" transform="matrix(16,0,0,16,214.5,364.5)" />
<use xlink:href="#f0_11" transform="matrix(16,0,0,16,231.3,364.5)" />
<use xlink:href="#f0_p" transform="matrix(16,0,0,16,251.7,364.5)" />
<use xlink:href="#f0_13" transform="matrix(16,0,0,16,262.9,364.5)" />
<use xlink:href="#f0_o" transform="matrix(16,0,0,16,276.4,364.5)" />
<use xlink:href="#f0_p" transform="matrix(16,0,0,16,287.7,364.5)" />
<use xlink:href="#f0_1l" transform="matrix(16,0,0,16,298.8,364.5)" />
<use xlink:href="#f0_s" transform="matrix(16,0,0,16,308.7,364.5)" />
<use xlink:href="#f0_q" transform="matrix(16,0,0,16,317.1,364.5)" />
<use xlink:href="#f0_14" transform="matrix(16,0,0,16,329.8,364.5)" />
<use xlink:href="#f0_o" transform="matrix(16,0,0,16,343.7,364.5)" />
<use xlink:href="#f0_q" transform="matrix(16,0,0,16,355,364.5)" />
<use xlink:href="#f0_11" transform="matrix(16,0,0,16,367.5,364.5)" />
<use xlink:href="#f0_s" transform="matrix(16,0,0,16,381.5,364.5)" />
<use xlink:href="#f0_p" transform="matrix(16,0,0,16,389.9,364.5)" />
<use xlink:href="#f1_15" transform="matrix(12,0,0,12,589,406.2)" />
<use xlink:href="#f1_9" transform="matrix(12,0,0,12,595.1,406.2)" />
<use xlink:href="#f1_d" transform="matrix(12,0,0,12,607,406.2)" />
<use xlink:href="#f1_f" transform="matrix(12,0,0,12,619.2,406.2)" />
<use xlink:href="#f1_9" transform="matrix(12,0,0,12,629.8,406.2)" />
<use xlink:href="#f1_9" transform="matrix(12,0,0,12,647.7,406.2)" />
<use xlink:href="#f1_g" transform="matrix(12,0,0,12,659.7,406.2)" />
<use xlink:href="#f1_7" transform="matrix(12,0,0,12,671.6,406.2)" />
<use xlink:href="#f1_4" transform="matrix(12,0,0,12,675.7,406.2)" />
<use xlink:href="#f1_9" transform="matrix(12,0,0,12,688.7,406.2)" />
<use xlink:href="#f1_e" transform="matrix(12,0,0,12,706.4,406.2)" />
<use xlink:href="#f1_d" transform="matrix(12,0,0,12,718.4,406.2)" />
<use xlink:href="#f1_d" transform="matrix(12,0,0,12,736.5,406.2)" />
<use xlink:href="#f1_a" transform="matrix(12,0,0,12,748.7,406.2)" />
<use xlink:href="#f1_p" transform="matrix(12,0,0,12,759.1,406.2)" />
</g>
</g>
<path d="M128.6,410.9H780.5M128.6,433H780.5M128.6,455.2H780.5M128.9,410.5v45.1M237.4,410.5v45.1M345.9,410.5v45.1M454.5,410.5v45.1M563,410.5v45.1m94.1,-45.1v45.1m123,-45.1v45.1" class="g0_13" />
<g clip-path="url(#c0_13)">
<g fill="#000000" >
<use xlink:href="#f1_9" transform="matrix(12,0,0,12,713.6,428.4)" />
<use xlink:href="#f1_r" transform="matrix(12,0,0,12,725.5,428.4)" />
<use xlink:href="#f1_g" transform="matrix(12,0,0,12,731.6,428.4)" />
<use xlink:href="#f1_c" transform="matrix(12,0,0,12,743.6,428.4)" />
<use xlink:href="#f1_p" transform="matrix(12,0,0,12,748.6,428.4)" />
<use xlink:href="#f1_3" transform="matrix(12,0,0,12,761.6,428.4)" />
<use xlink:href="#f2_5" transform="matrix(11,0,0,11,571.8,427)" />
<use xlink:href="#f2_l" transform="matrix(11,0,0,11,579.2,427)" />
<use xlink:href="#f2_4" transform="matrix(11,0,0,11,583.9,427)" />
<use xlink:href="#f2_2" transform="matrix(11,0,0,11,588.6,427)" />
<use xlink:href="#f2_a" transform="matrix(11,0,0,11,596.1,427)" />
<use xlink:href="#f2_h" transform="matrix(11,0,0,11,604.3,427)" />
<use xlink:href="#f2_2" transform="matrix(11,0,0,11,609.1,427)" />
<use xlink:href="#f1_g" transform="matrix(12,0,0,12,513.5,428.4)" />
<use xlink:href="#f1_c" transform="matrix(12,0,0,12,525.4,428.4)" />
<use xlink:href="#f1_n" transform="matrix(12,0,0,12,530.4,428.4)" />
<use xlink:href="#f1_7" transform="matrix(12,0,0,12,537.8,428.4)" />
<use xlink:href="#f1_p" transform="matrix(12,0,0,12,541.9,428.4)" />
<use xlink:href="#f2_u" transform="matrix(11,0,0,11,354.8,427)" />
<use xlink:href="#f2_8" transform="matrix(11,0,0,11,363.2,427)" />
<use xlink:href="#f2_g" transform="matrix(11,0,0,11,371.6,427)" />
<use xlink:href="#f2_h" transform="matrix(11,0,0,11,378,427)" />
<use xlink:href="#f2_3" transform="matrix(11,0,0,11,382.7,427)" />
<use xlink:href="#f2_2" transform="matrix(11,0,0,11,388.3,427)" />
<use xlink:href="#f2_1t" transform="matrix(11,0,0,11,399.9,427)" />
<use xlink:href="#f2_p" transform="matrix(11,0,0,11,405.5,427)" />
<use xlink:href="#f2_1u" transform="matrix(11,0,0,11,418.5,427)" />
<use xlink:href="#f1_9" transform="matrix(12,0,0,12,300.8,428.4)" />
<use xlink:href="#f1_a" transform="matrix(12,0,0,12,312.7,428.4)" />
<use xlink:href="#f1_7" transform="matrix(12,0,0,12,323.1,428.4)" />
<use xlink:href="#f1_f" transform="matrix(12,0,0,12,327.2,428.4)" />
<use xlink:href="#f2_5" transform="matrix(11,0,0,11,137.7,427)" />
<use xlink:href="#f2_2" transform="matrix(11,0,0,11,145.1,427)" />
<use xlink:href="#f2_3" transform="matrix(11,0,0,11,152.6,427)" />
<use xlink:href="#f2_s" transform="matrix(11,0,0,11,158.2,427)" />
<use xlink:href="#f2_2" transform="matrix(11,0,0,11,166.5,427)" />
<use xlink:href="#f2_9" transform="matrix(11,0,0,11,173.9,427)" />
<use xlink:href="#f2_m" transform="matrix(11,0,0,11,181.4,427)" />
<use xlink:href="#f1_7" transform="matrix(12,0,0,12,673.8,450.5)" />
<use xlink:href="#f1_9" transform="matrix(12,0,0,12,677.9,450.5)" />
<use xlink:href="#f1_4" transform="matrix(12,0,0,12,689.8,450.5)" />
<use xlink:href="#f1_7" transform="matrix(12,0,0,12,702.8,450.5)" />
<use xlink:href="#f1_8" transform="matrix(12,0,0,12,706.9,450.5)" />
<use xlink:href="#f1_r" transform="matrix(12,0,0,12,719.4,450.5)" />
<use xlink:href="#f1_c" transform="matrix(12,0,0,12,725.5,450.5)" />
<use xlink:href="#f1_9" transform="matrix(12,0,0,12,730.5,450.5)" />
<use xlink:href="#f1_4" transform="matrix(12,0,0,12,742.4,450.5)" />
<use xlink:href="#f1_7" transform="matrix(12,0,0,12,755.4,450.5)" />
<use xlink:href="#f1_8" transform="matrix(12,0,0,12,759.4,450.5)" />
<use xlink:href="#f2_m" transform="matrix(11,0,0,11,571.8,449.2)" />
<use xlink:href="#f2_l" transform="matrix(11,0,0,11,579.2,449.2)" />
<use xlink:href="#f2_w" transform="matrix(11,0,0,11,583.9,449.2)" />
<use xlink:href="#f2_f" transform="matrix(11,0,0,11,592.3,449.2)" />
<use xlink:href="#f2_4" transform="matrix(11,0,0,11,600.7,449.2)" />
<use xlink:href="#f2_2" transform="matrix(11,0,0,11,605.4,449.2)" />
<use xlink:href="#f2_a" transform="matrix(11,0,0,11,612.9,449.2)" />
<use xlink:href="#f1_p" transform="matrix(12,0,0,12,512.4,450.5)" />
<use xlink:href="#f1_c" transform="matrix(12,0,0,12,525.4,450.5)" />
<use xlink:href="#f1_e" transform="matrix(12,0,0,12,530.4,450.5)" />
<use xlink:href="#f1_8" transform="matrix(12,0,0,12,542.3,450.5)" />
<use xlink:href="#f2_e" transform="matrix(11,0,0,11,354.8,449.2)" />
<use xlink:href="#f2_f" transform="matrix(11,0,0,11,363.2,449.2)" />
<use xlink:href="#f2_l" transform="matrix(11,0,0,11,371.4,449.2)" />
<use xlink:href="#f2_5" transform="matrix(11,0,0,11,376.1,449.2)" />
<use xlink:href="#f2_2" transform="matrix(11,0,0,11,383.6,449.2)" />
<use xlink:href="#f2_1t" transform="matrix(11,0,0,11,395.3,449.2)" />
<use xlink:href="#f2_p" transform="matrix(11,0,0,11,400.8,449.2)" />
<use xlink:href="#f2_1u" transform="matrix(11,0,0,11,413.9,449.2)" />
<use xlink:href="#f1_q" transform="matrix(12,0,0,12,307.2,450.5)" />
<use xlink:href="#f1_7" transform="matrix(12,0,0,12,317.2,450.5)" />
<use xlink:href="#f1_7" transform="matrix(12,0,0,12,321.3,450.5)" />
<use xlink:href="#f1_8" transform="matrix(12,0,0,12,325.3,450.5)" />
<use xlink:href="#f2_2" transform="matrix(11,0,0,11,137.7,449.2)" />
<use xlink:href="#f2_a" transform="matrix(11,0,0,11,145.1,449.2)" />
<use xlink:href="#f2_g" transform="matrix(11,0,0,11,153.5,449.2)" />
<use xlink:href="#f2_2" transform="matrix(11,0,0,11,160.1,449.2)" />
<use xlink:href="#f2_w" transform="matrix(11,0,0,11,167.5,449.2)" />
<use xlink:href="#f2_f" transform="matrix(11,0,0,11,175.9,449.2)" />
<use xlink:href="#f2_4" transform="matrix(11,0,0,11,184.2,449.2)" />
<use xlink:href="#f2_e" transform="matrix(11,0,0,11,188.9,449.2)" />
<use xlink:href="#f2_m" transform="matrix(11,0,0,11,197.3,449.2)" />
<use xlink:href="#f2_15" transform="matrix(11,0,0,11,137.7,490.6)" />
<use xlink:href="#f2_l" transform="matrix(11,0,0,11,148.8,490.6)" />
<use xlink:href="#f2_4" transform="matrix(11,0,0,11,153.5,490.6)" />
<use xlink:href="#f2_2" transform="matrix(11,0,0,11,158.3,490.6)" />
<use xlink:href="#f2_a" transform="matrix(11,0,0,11,165.7,490.6)" />
<use xlink:href="#f2_h" transform="matrix(11,0,0,11,174,490.6)" />
<use xlink:href="#f2_2" transform="matrix(11,0,0,11,178.7,490.6)" />
<use xlink:href="#f2_10" transform="matrix(11,0,0,11,186.2,490.6)" />
<use xlink:href="#f2_11" transform="matrix(11,0,0,11,221.7,490.6)" />
<use xlink:href="#f2_8" transform="matrix(11,0,0,11,233.7,490.6)" />
<use xlink:href="#f2_l" transform="matrix(11,0,0,11,242.1,490.6)" />
<use xlink:href="#f2_m" transform="matrix(11,0,0,11,246.9,490.6)" />
<use xlink:href="#f2_19" transform="matrix(11,0,0,11,254.3,490.6)" />
<use xlink:href="#f2_x" transform="matrix(11,0,0,11,262.7,490.6)" />
<use xlink:href="#f2_m" transform="matrix(11,0,0,11,271.1,490.6)" />
<use xlink:href="#f2_7" transform="matrix(11,0,0,11,278.6,490.6)" />
<use xlink:href="#f2_m" transform="matrix(11,0,0,11,291.1,490.6)" />
<use xlink:href="#f2_l" transform="matrix(11,0,0,11,298.6,490.6)" />
<use xlink:href="#f2_w" transform="matrix(11,0,0,11,303.3,490.6)" />
<use xlink:href="#f2_f" transform="matrix(11,0,0,11,311.7,490.6)" />
<use xlink:href="#f2_4" transform="matrix(11,0,0,11,319.9,490.6)" />
<use xlink:href="#f2_2" transform="matrix(11,0,0,11,324.7,490.6)" />
<use xlink:href="#f2_a" transform="matrix(11,0,0,11,332.1,490.6)" />
<use xlink:href="#f2_m" transform="matrix(11,0,0,11,344.8,490.6)" />
<use xlink:href="#f2_1g" transform="matrix(11,0,0,11,352.3,490.6)" />
<use xlink:href="#f2_f" transform="matrix(11,0,0,11,360.7,490.6)" />
<use xlink:href="#f2_q" transform="matrix(11,0,0,11,368.9,490.6)" />
<use xlink:href="#f2_17" transform="matrix(11,0,0,11,373.6,490.6)" />
<use xlink:href="#f2_1v" transform="matrix(11,0,0,11,137.7,510)" />
<use xlink:href="#f2_8" transform="matrix(11,0,0,11,152.6,510)" />
<use xlink:href="#f2_9" transform="matrix(11,0,0,11,161,510)" />
<use xlink:href="#f2_8" transform="matrix(11,0,0,11,168.5,510)" />
<use xlink:href="#f2_10" transform="matrix(11,0,0,11,176.9,510)" />
<use xlink:href="#f2_18" transform="matrix(11,0,0,11,221.7,510)" />
<use xlink:href="#f2_q" transform="matrix(11,0,0,11,231,510)" />
<use xlink:href="#f2_g" transform="matrix(11,0,0,11,240,510)" />
<use xlink:href="#f2_2" transform="matrix(11,0,0,11,246.4,510)" />
<use xlink:href="#f2_1e" transform="matrix(11,0,0,11,253.9,510)" />
<use xlink:href="#f2_8" transform="matrix(11,0,0,11,262.3,510)" />
<use xlink:href="#f2_3" transform="matrix(11,0,0,11,270.7,510)" />
<use xlink:href="#f2_19" transform="matrix(11,0,0,11,276.2,510)" />
<use xlink:href="#f2_7" transform="matrix(11,0,0,11,284.7,510)" />
<use xlink:href="#f2_8" transform="matrix(11,0,0,11,293.1,510)" />
<use xlink:href="#f2_2" transform="matrix(11,0,0,11,305.6,510)" />
<use xlink:href="#f2_g" transform="matrix(11,0,0,11,313.1,510)" />
<use xlink:href="#f2_h" transform="matrix(11,0,0,11,319.7,510)" />
<use xlink:href="#f2_8" transform="matrix(11,0,0,11,324.4,510)" />
<use xlink:href="#f2_7" transform="matrix(11,0,0,11,332.8,510)" />
<use xlink:href="#f2_m" transform="matrix(11,0,0,11,345.3,510)" />
<use xlink:href="#f2_5" transform="matrix(11,0,0,11,352.8,510)" />
<use xlink:href="#f2_16" transform="matrix(11,0,0,11,360.2,510)" />
<use xlink:href="#f2_19" transform="matrix(11,0,0,11,367.6,510)" />
<use xlink:href="#f2_1g" transform="matrix(11,0,0,11,376.1,510)" />
<use xlink:href="#f2_f" transform="matrix(11,0,0,11,384.5,510)" />
<use xlink:href="#f2_k" transform="matrix(11,0,0,11,392.7,510)" />
<use xlink:href="#f2_1g" transform="matrix(11,0,0,11,404.5,510)" />
<use xlink:href="#f2_f" transform="matrix(11,0,0,11,412.9,510)" />
<use xlink:href="#f2_4" transform="matrix(11,0,0,11,421.3,510)" />
<use xlink:href="#f2_2" transform="matrix(11,0,0,11,425.9,510)" />
<use xlink:href="#f2_3" transform="matrix(11,0,0,11,433.3,510)" />
<use xlink:href="#f2_2" transform="matrix(11,0,0,11,439,510)" />
<use xlink:href="#f2_n" transform="matrix(11,0,0,11,450.5,510)" />
<use xlink:href="#f2_e" transform="matrix(11,0,0,11,462.6,510)" />
<use xlink:href="#f2_17" transform="matrix(11,0,0,11,475.3,510)" />
<use xlink:href="#f2_15" transform="matrix(11,0,0,11,137.7,529.2)" />
<use xlink:href="#f2_l" transform="matrix(11,0,0,11,148.8,529.2)" />
<use xlink:href="#f2_4" transform="matrix(11,0,0,11,153.5,529.2)" />
<use xlink:href="#f2_2" transform="matrix(11,0,0,11,158.3,529.2)" />
<use xlink:href="#f2_a" transform="matrix(11,0,0,11,165.7,529.2)" />
<use xlink:href="#f2_h" transform="matrix(11,0,0,11,174,529.2)" />
<use xlink:href="#f2_2" transform="matrix(11,0,0,11,178.7,529.2)" />
<use xlink:href="#f2_10" transform="matrix(11,0,0,11,186.2,529.2)" />
<use xlink:href="#f2_1w" transform="matrix(11,0,0,11,221.7,529.2)" />
<use xlink:href="#f2_f" transform="matrix(11,0,0,11,233.7,529.2)" />
<use xlink:href="#f2_4" transform="matrix(11,0,0,11,242.1,529.2)" />
<use xlink:href="#f2_2" transform="matrix(11,0,0,11,246.9,529.2)" />
<use xlink:href="#f2_3" transform="matrix(11,0,0,11,254.3,529.2)" />
<use xlink:href="#f2_8" transform="matrix(11,0,0,11,260,529.2)" />
<use xlink:href="#f2_5" transform="matrix(11,0,0,11,272.5,529.2)" />
<use xlink:href="#f2_8" transform="matrix(11,0,0,11,279.9,529.2)" />
<use xlink:href="#f2_p" transform="matrix(11,0,0,11,288.3,529.2)" />
<use xlink:href="#f2_2" transform="matrix(11,0,0,11,301.5,529.2)" />
<use xlink:href="#f2_3" transform="matrix(11,0,0,11,308.8,529.2)" />
<use xlink:href="#f2_f" transform="matrix(11,0,0,11,318.7,529.2)" />
<use xlink:href="#f2_a" transform="matrix(11,0,0,11,327.1,529.2)" />
<use xlink:href="#f2_m" transform="matrix(11,0,0,11,335.5,529.2)" />
<use xlink:href="#f2_2" transform="matrix(11,0,0,11,347.1,529.2)" />
<use xlink:href="#f2_a" transform="matrix(11,0,0,11,354.5,529.2)" />
<use xlink:href="#f2_g" transform="matrix(11,0,0,11,362.9,529.2)" />
<use xlink:href="#f2_m" transform="matrix(11,0,0,11,369.5,529.2)" />
<use xlink:href="#f2_l" transform="matrix(11,0,0,11,376.8,529.2)" />
<use xlink:href="#f2_m" transform="matrix(11,0,0,11,381.6,529.2)" />
<use xlink:href="#f2_e" transform="matrix(11,0,0,11,389,529.2)" />
<use xlink:href="#f2_m" transform="matrix(11,0,0,11,397.4,529.2)" />
<use xlink:href="#f2_7" transform="matrix(11,0,0,11,409,529.2)" />
<use xlink:href="#f2_v" transform="matrix(11,0,0,11,421.7,529.2)" />
<use xlink:href="#f2_2" transform="matrix(11,0,0,11,430.1,529.2)" />
<use xlink:href="#f2_v" transform="matrix(11,0,0,11,437.5,529.2)" />
<use xlink:href="#f2_2" transform="matrix(11,0,0,11,445.8,529.2)" />
<use xlink:href="#f2_3" transform="matrix(11,0,0,11,453.2,529.2)" />
<use xlink:href="#f2_5" transform="matrix(11,0,0,11,463.1,529.2)" />
<use xlink:href="#f2_2" transform="matrix(11,0,0,11,470.5,529.2)" />
<use xlink:href="#f2_3" transform="matrix(11,0,0,11,477.9,529.2)" />
<use xlink:href="#f2_s" transform="matrix(11,0,0,11,483.6,529.2)" />
<use xlink:href="#f2_2" transform="matrix(11,0,0,11,492,529.2)" />
<use xlink:href="#f2_9" transform="matrix(11,0,0,11,499.4,529.2)" />
<use xlink:href="#f2_m" transform="matrix(11,0,0,11,506.8,529.2)" />
<use xlink:href="#f2_o" transform="matrix(11,0,0,11,514.2,529.2)" />
<use xlink:href="#f2_11" transform="matrix(11,0,0,11,522.6,529.2)" />
<use xlink:href="#f2_m" transform="matrix(11,0,0,11,534.7,529.2)" />
<use xlink:href="#f2_7" transform="matrix(11,0,0,11,542.1,529.2)" />
<use xlink:href="#f2_u" transform="matrix(11,0,0,11,554.8,529.2)" />
<use xlink:href="#f2_8" transform="matrix(11,0,0,11,563.2,529.2)" />
<use xlink:href="#f2_g" transform="matrix(11,0,0,11,571.6,529.2)" />
<use xlink:href="#f2_h" transform="matrix(11,0,0,11,578.1,529.2)" />
<use xlink:href="#f2_3" transform="matrix(11,0,0,11,582.7,529.2)" />
<use xlink:href="#f2_2" transform="matrix(11,0,0,11,588.4,529.2)" />
<use xlink:href="#f2_g" transform="matrix(11,0,0,11,595.8,529.2)" />
<use xlink:href="#f2_17" transform="matrix(11,0,0,11,602.4,529.2)" />
<use xlink:href="#f2_1g" transform="matrix(11,0,0,11,614,529.2)" />
<use xlink:href="#f2_f" transform="matrix(11,0,0,11,622.4,529.2)" />
<use xlink:href="#f2_4" transform="matrix(11,0,0,11,630.8,529.2)" />
<use xlink:href="#f2_2" transform="matrix(11,0,0,11,635.5,529.2)" />
<use xlink:href="#f2_3" transform="matrix(11,0,0,11,642.8,529.2)" />
<use xlink:href="#f2_8" transform="matrix(11,0,0,11,648.4,529.2)" />
<use xlink:href="#f2_m" transform="matrix(11,0,0,11,661.1,529.2)" />
<use xlink:href="#f2_l" transform="matrix(11,0,0,11,668.4,529.2)" />
<use xlink:href="#f2_w" transform="matrix(11,0,0,11,673.2,529.2)" />
<use xlink:href="#f2_8" transform="matrix(11,0,0,11,681.6,529.2)" />
<use xlink:href="#f2_e" transform="matrix(11,0,0,11,694.2,529.2)" />
<use xlink:href="#f2_f" transform="matrix(11,0,0,11,702.6,529.2)" />
<use xlink:href="#f2_l" transform="matrix(11,0,0,11,710.9,529.2)" />
<use xlink:href="#f2_5" transform="matrix(11,0,0,11,715.6,529.2)" />
<use xlink:href="#f2_2" transform="matrix(11,0,0,11,723.1,529.2)" />
<use xlink:href="#f2_o" transform="matrix(11,0,0,11,730.5,529.2)" />
<use xlink:href="#f2_1v" transform="matrix(11,0,0,11,137.7,548.6)" />
<use xlink:href="#f2_8" transform="matrix(11,0,0,11,152.6,548.6)" />
<use xlink:href="#f2_9" transform="matrix(11,0,0,11,161,548.6)" />
<use xlink:href="#f2_8" transform="matrix(11,0,0,11,168.5,548.6)" />
<use xlink:href="#f2_10" transform="matrix(11,0,0,11,176.9,548.6)" />
<use xlink:href="#f2_18" transform="matrix(11,0,0,11,221.7,548.6)" />
<use xlink:href="#f2_q" transform="matrix(11,0,0,11,231,548.6)" />
<use xlink:href="#f2_5" transform="matrix(11,0,0,11,240,548.6)" />
<use xlink:href="#f2_l" transform="matrix(11,0,0,11,247.3,548.6)" />
<use xlink:href="#f2_m" transform="matrix(11,0,0,11,252,548.6)" />
<use xlink:href="#f2_3" transform="matrix(11,0,0,11,259.4,548.6)" />
<use xlink:href="#f2_8" transform="matrix(11,0,0,11,265,548.6)" />
<use xlink:href="#f2_19" transform="matrix(11,0,0,11,273.4,548.6)" />
<use xlink:href="#f2_h" transform="matrix(11,0,0,11,281.8,548.6)" />
<use xlink:href="#f2_2" transform="matrix(11,0,0,11,286.5,548.6)" />
<use xlink:href="#f2_a" transform="matrix(11,0,0,11,294,548.6)" />
<use xlink:href="#f2_2" transform="matrix(11,0,0,11,302.4,548.6)" />
<use xlink:href="#f2_p" transform="matrix(11,0,0,11,309.7,548.6)" />
<use xlink:href="#f2_8" transform="matrix(11,0,0,11,322.8,548.6)" />
<use xlink:href="#f2_g" transform="matrix(11,0,0,11,331.2,548.6)" />
<use xlink:href="#f2_x" transform="matrix(11,0,0,11,342.1,548.6)" />
<use xlink:href="#f2_2" transform="matrix(11,0,0,11,350.3,548.6)" />
<use xlink:href="#f2_l" transform="matrix(11,0,0,11,357.8,548.6)" />
<use xlink:href="#f2_m" transform="matrix(11,0,0,11,362.5,548.6)" />
<use xlink:href="#f2_e" transform="matrix(11,0,0,11,370,548.6)" />
<use xlink:href="#f2_8" transform="matrix(11,0,0,11,378.4,548.6)" />
<use xlink:href="#f2_g" transform="matrix(11,0,0,11,386.8,548.6)" />
<use xlink:href="#f2_7" transform="matrix(11,0,0,11,397.4,548.6)" />
<use xlink:href="#f2_2" transform="matrix(11,0,0,11,410.1,548.6)" />
<use xlink:href="#f2_a" transform="matrix(11,0,0,11,417.6,548.6)" />
<use xlink:href="#f2_g" transform="matrix(11,0,0,11,425.8,548.6)" />
<use xlink:href="#f2_m" transform="matrix(11,0,0,11,432.4,548.6)" />
<use xlink:href="#f2_l" transform="matrix(11,0,0,11,439.8,548.6)" />
<use xlink:href="#f2_m" transform="matrix(11,0,0,11,444.6,548.6)" />
<use xlink:href="#f2_e" transform="matrix(11,0,0,11,452,548.6)" />
<use xlink:href="#f2_m" transform="matrix(11,0,0,11,460.3,548.6)" />
<use xlink:href="#f2_e" transform="matrix(11,0,0,11,472,548.6)" />
<use xlink:href="#f2_2" transform="matrix(11,0,0,11,480.4,548.6)" />
<use xlink:href="#f2_t" transform="matrix(11,0,0,11,492,548.6)" />
<use xlink:href="#f2_3" transform="matrix(11,0,0,11,497.6,548.6)" />
<use xlink:href="#f2_f" transform="matrix(11,0,0,11,503.2,548.6)" />
<use xlink:href="#f2_h" transform="matrix(11,0,0,11,511.5,548.6)" />
<use xlink:href="#f2_m" transform="matrix(11,0,0,11,516.2,548.6)" />
<use xlink:href="#f2_g" transform="matrix(11,0,0,11,523.7,548.6)" />
<use xlink:href="#f2_o" transform="matrix(11,0,0,11,530.1,548.6)" />
<use xlink:href="#f2_15" transform="matrix(11,0,0,11,137.7,567.9)" />
<use xlink:href="#f2_l" transform="matrix(11,0,0,11,148.8,567.9)" />
<use xlink:href="#f2_4" transform="matrix(11,0,0,11,153.5,567.9)" />
<use xlink:href="#f2_2" transform="matrix(11,0,0,11,158.3,567.9)" />
<use xlink:href="#f2_a" transform="matrix(11,0,0,11,165.7,567.9)" />
<use xlink:href="#f2_h" transform="matrix(11,0,0,11,174,567.9)" />
<use xlink:href="#f2_2" transform="matrix(11,0,0,11,178.7,567.9)" />
<use xlink:href="#f2_10" transform="matrix(11,0,0,11,186.2,567.9)" />
<use xlink:href="#f2_1q" transform="matrix(11,0,0,11,221.7,567.9)" />
<use xlink:href="#f2_4" transform="matrix(11,0,0,11,232.8,567.9)" />
<use xlink:href="#f2_2" transform="matrix(11,0,0,11,237.6,567.9)" />
<use xlink:href="#f2_a" transform="matrix(11,0,0,11,245,567.9)" />
<use xlink:href="#f2_19" transform="matrix(11,0,0,11,253.4,567.9)" />
<use xlink:href="#f2_2" transform="matrix(11,0,0,11,261.8,567.9)" />
<use xlink:href="#f2_a" transform="matrix(11,0,0,11,269.3,567.9)" />
<use xlink:href="#f2_g" transform="matrix(11,0,0,11,277.7,567.9)" />
<use xlink:href="#f2_m" transform="matrix(11,0,0,11,284.2,567.9)" />
<use xlink:href="#f2_l" transform="matrix(11,0,0,11,291.6,567.9)" />
<use xlink:href="#f2_m" transform="matrix(11,0,0,11,296.3,567.9)" />
<use xlink:href="#f2_e" transform="matrix(11,0,0,11,303.7,567.9)" />
<use xlink:href="#f2_m" transform="matrix(11,0,0,11,312.1,567.9)" />
<use xlink:href="#f2_e" transform="matrix(11,0,0,11,323.7,567.9)" />
<use xlink:href="#f2_2" transform="matrix(11,0,0,11,332.1,567.9)" />
<use xlink:href="#f2_t" transform="matrix(11,0,0,11,343.9,567.9)" />
<use xlink:href="#f2_3" transform="matrix(11,0,0,11,349.4,567.9)" />
<use xlink:href="#f2_f" transform="matrix(11,0,0,11,355,567.9)" />
<use xlink:href="#f2_h" transform="matrix(11,0,0,11,363.4,567.9)" />
<use xlink:href="#f2_m" transform="matrix(11,0,0,11,368,567.9)" />
<use xlink:href="#f2_g" transform="matrix(11,0,0,11,375.4,567.9)" />
<use xlink:href="#f2_o" transform="matrix(11,0,0,11,382,567.9)" />
<use xlink:href="#f2_1a" transform="matrix(11,0,0,11,390.4,567.9)" />
<use xlink:href="#f2_8" transform="matrix(11,0,0,11,402.4,567.9)" />
<use xlink:href="#f2_h" transform="matrix(11,0,0,11,415.1,567.9)" />
<use xlink:href="#f2_2" transform="matrix(11,0,0,11,419.8,567.9)" />
<use xlink:href="#f2_a" transform="matrix(11,0,0,11,427.3,567.9)" />
<use xlink:href="#f2_w" transform="matrix(11,0,0,11,435.7,567.9)" />
<use xlink:href="#f2_8" transform="matrix(11,0,0,11,444.1,567.9)" />
<use xlink:href="#f2_p" transform="matrix(11,0,0,11,456.6,567.9)" />
<use xlink:href="#f2_f" transform="matrix(11,0,0,11,469.7,567.9)" />
<use xlink:href="#f2_5" transform="matrix(11,0,0,11,478,567.9)" />
<use xlink:href="#f2_x" transform="matrix(11,0,0,11,485.4,567.9)" />
<use xlink:href="#f2_8" transform="matrix(11,0,0,11,493.8,567.9)" />
<use xlink:href="#f2_x" transform="matrix(11,0,0,11,506.5,567.9)" />
<use xlink:href="#f2_m" transform="matrix(11,0,0,11,514.9,567.9)" />
<use xlink:href="#f2_p" transform="matrix(11,0,0,11,522.2,567.9)" />
<use xlink:href="#f2_v" transform="matrix(11,0,0,11,535.4,567.9)" />
<use xlink:href="#f2_3" transform="matrix(11,0,0,11,543.8,567.9)" />
<use xlink:href="#f2_2" transform="matrix(11,0,0,11,549.4,567.9)" />
<use xlink:href="#f2_o" transform="matrix(11,0,0,11,556.7,567.9)" />
<use xlink:href="#f2_1v" transform="matrix(11,0,0,11,137.7,587.3)" />
<use xlink:href="#f2_8" transform="matrix(11,0,0,11,152.6,587.3)" />
<use xlink:href="#f2_9" transform="matrix(11,0,0,11,161,587.3)" />
<use xlink:href="#f2_8" transform="matrix(11,0,0,11,168.5,587.3)" />
<use xlink:href="#f2_10" transform="matrix(11,0,0,11,176.9,587.3)" />
<use xlink:href="#f2_1q" transform="matrix(11,0,0,11,221.7,587.3)" />
<use xlink:href="#f2_4" transform="matrix(11,0,0,11,232.8,587.3)" />
<use xlink:href="#f2_2" transform="matrix(11,0,0,11,237.6,587.3)" />
<use xlink:href="#f2_a" transform="matrix(11,0,0,11,245,587.3)" />
<use xlink:href="#f2_g" transform="matrix(11,0,0,11,257.7,587.3)" />
<use xlink:href="#f2_2" transform="matrix(11,0,0,11,264.1,587.3)" />
<use xlink:href="#f2_1e" transform="matrix(11,0,0,11,271.6,587.3)" />
<use xlink:href="#f2_8" transform="matrix(11,0,0,11,280,587.3)" />
<use xlink:href="#f2_3" transform="matrix(11,0,0,11,288.4,587.3)" />
<use xlink:href="#f2_19" transform="matrix(11,0,0,11,293.9,587.3)" />
<use xlink:href="#f2_s" transform="matrix(11,0,0,11,302.4,587.3)" />
<use xlink:href="#f2_2" transform="matrix(11,0,0,11,310.8,587.3)" />
<use xlink:href="#f2_a" transform="matrix(11,0,0,11,318.3,587.3)" />
<use xlink:href="#f2_w" transform="matrix(11,0,0,11,326.7,587.3)" />
<use xlink:href="#f2_8" transform="matrix(11,0,0,11,335.1,587.3)" />
<use xlink:href="#f2_5" transform="matrix(11,0,0,11,347.6,587.3)" />
<use xlink:href="#f2_8" transform="matrix(11,0,0,11,355.1,587.3)" />
<use xlink:href="#f2_a" transform="matrix(11,0,0,11,363.5,587.3)" />
<use xlink:href="#f2_l" transform="matrix(11,0,0,11,376.1,587.3)" />
<use xlink:href="#f2_m" transform="matrix(11,0,0,11,380.7,587.3)" />
<use xlink:href="#f2_2" transform="matrix(11,0,0,11,392.3,587.3)" />
<use xlink:href="#f2_a" transform="matrix(11,0,0,11,399.8,587.3)" />
<use xlink:href="#f2_g" transform="matrix(11,0,0,11,408.2,587.3)" />
<use xlink:href="#f2_m" transform="matrix(11,0,0,11,414.7,587.3)" />
<use xlink:href="#f2_l" transform="matrix(11,0,0,11,422.2,587.3)" />
<use xlink:href="#f2_m" transform="matrix(11,0,0,11,426.8,587.3)" />
<use xlink:href="#f2_e" transform="matrix(11,0,0,11,434.2,587.3)" />
<use xlink:href="#f2_m" transform="matrix(11,0,0,11,442.6,587.3)" />
<use xlink:href="#f2_2" transform="matrix(11,0,0,11,454.4,587.3)" />
<use xlink:href="#f2_a" transform="matrix(11,0,0,11,461.8,587.3)" />
<use xlink:href="#f2_g" transform="matrix(11,0,0,11,470.1,587.3)" />
<use xlink:href="#f2_2" transform="matrix(11,0,0,11,476.6,587.3)" />
<use xlink:href="#f2_w" transform="matrix(11,0,0,11,484.1,587.3)" />
<use xlink:href="#f2_f" transform="matrix(11,0,0,11,492.5,587.3)" />
<use xlink:href="#f2_4" transform="matrix(11,0,0,11,500.9,587.3)" />
<use xlink:href="#f2_e" transform="matrix(11,0,0,11,505.6,587.3)" />
<use xlink:href="#f2_m" transform="matrix(11,0,0,11,514,587.3)" />
<use xlink:href="#f2_o" transform="matrix(11,0,0,11,521.4,587.3)" />
<use xlink:href="#f2_15" transform="matrix(11,0,0,11,137.7,606.5)" />
<use xlink:href="#f2_l" transform="matrix(11,0,0,11,148.8,606.5)" />
<use xlink:href="#f2_4" transform="matrix(11,0,0,11,153.5,606.5)" />
<use xlink:href="#f2_2" transform="matrix(11,0,0,11,158.3,606.5)" />
<use xlink:href="#f2_a" transform="matrix(11,0,0,11,165.7,606.5)" />
<use xlink:href="#f2_h" transform="matrix(11,0,0,11,174,606.5)" />
<use xlink:href="#f2_2" transform="matrix(11,0,0,11,178.7,606.5)" />
<use xlink:href="#f2_10" transform="matrix(11,0,0,11,186.2,606.5)" />
<use xlink:href="#f2_11" transform="matrix(11,0,0,11,221.7,606.5)" />
<use xlink:href="#f2_m" transform="matrix(11,0,0,11,233.7,606.5)" />
<use xlink:href="#f2_7" transform="matrix(11,0,0,11,241.2,606.5)" />
<use xlink:href="#f2_f" transform="matrix(11,0,0,11,253.9,606.5)" />
<use xlink:href="#f2_a" transform="matrix(11,0,0,11,262.3,606.5)" />
<use xlink:href="#f2_s" transform="matrix(11,0,0,11,274.9,606.5)" />
<use xlink:href="#f2_2" transform="matrix(11,0,0,11,283.2,606.5)" />
<use xlink:href="#f2_a" transform="matrix(11,0,0,11,290.7,606.5)" />
<use xlink:href="#f2_h" transform="matrix(11,0,0,11,299.1,606.5)" />
<use xlink:href="#f2_4" transform="matrix(11,0,0,11,303.8,606.5)" />
<use xlink:href="#f2_l" transform="matrix(11,0,0,11,308.4,606.5)" />
<use xlink:href="#f2_m" transform="matrix(11,0,0,11,313.1,606.5)" />
<use xlink:href="#f2_e" transform="matrix(11,0,0,11,320.5,606.5)" />
<use xlink:href="#f2_8" transform="matrix(11,0,0,11,329,606.5)" />
<use xlink:href="#f2_3" transform="matrix(11,0,0,11,337.4,606.5)" />
<use xlink:href="#f2_17" transform="matrix(11,0,0,11,342.8,606.5)" />
<use xlink:href="#f2_1l" transform="matrix(11,0,0,11,354.6,606.5)" />
<use xlink:href="#f2_2" transform="matrix(11,0,0,11,364.8,606.5)" />
<use xlink:href="#f2_a" transform="matrix(11,0,0,11,372.3,606.5)" />
<use xlink:href="#f2_w" transform="matrix(11,0,0,11,380.7,606.5)" />
<use xlink:href="#f2_8" transform="matrix(11,0,0,11,389.1,606.5)" />
<use xlink:href="#f2_5" transform="matrix(11,0,0,11,401.6,606.5)" />
<use xlink:href="#f2_m" transform="matrix(11,0,0,11,409.1,606.5)" />
<use xlink:href="#f2_l" transform="matrix(11,0,0,11,416.5,606.5)" />
<use xlink:href="#f2_8" transform="matrix(11,0,0,11,421.2,606.5)" />
<use xlink:href="#f2_3" transform="matrix(11,0,0,11,429.5,606.5)" />
<use xlink:href="#f2_o" transform="matrix(11,0,0,11,435.1,606.5)" />
<use xlink:href="#f2_1v" transform="matrix(11,0,0,11,137.7,625.9)" />
<use xlink:href="#f2_8" transform="matrix(11,0,0,11,152.6,625.9)" />
<use xlink:href="#f2_9" transform="matrix(11,0,0,11,161,625.9)" />
<use xlink:href="#f2_8" transform="matrix(11,0,0,11,168.5,625.9)" />
<use xlink:href="#f2_10" transform="matrix(11,0,0,11,176.9,625.9)" />
<use xlink:href="#f2_18" transform="matrix(11,0,0,11,221.7,625.9)" />
<use xlink:href="#f2_q" transform="matrix(11,0,0,11,231,625.9)" />
<use xlink:href="#f2_g" transform="matrix(11,0,0,11,240,625.9)" />
<use xlink:href="#f2_2" transform="matrix(11,0,0,11,246.4,625.9)" />
<use xlink:href="#f2_1e" transform="matrix(11,0,0,11,253.9,625.9)" />
<use xlink:href="#f2_8" transform="matrix(11,0,0,11,262.3,625.9)" />
<use xlink:href="#f2_3" transform="matrix(11,0,0,11,270.7,625.9)" />
<use xlink:href="#f2_o" transform="matrix(11,0,0,11,276.2,625.9)" />
<use xlink:href="#f2_1s" transform="matrix(11,0,0,11,284.7,625.9)" />
<use xlink:href="#f2_8" transform="matrix(11,0,0,11,294,625.9)" />
<use xlink:href="#f2_a" transform="matrix(11,0,0,11,302.4,625.9)" />
<use xlink:href="#f2_w" transform="matrix(11,0,0,11,310.9,625.9)" />
<use xlink:href="#f2_8" transform="matrix(11,0,0,11,319.3,625.9)" />
<use xlink:href="#f2_2" transform="matrix(11,0,0,11,331.9,625.9)" />
<use xlink:href="#f2_l" transform="matrix(11,0,0,11,339.3,625.9)" />
<use xlink:href="#f2_s" transform="matrix(11,0,0,11,348.1,625.9)" />
<use xlink:href="#f2_2" transform="matrix(11,0,0,11,356.5,625.9)" />
<use xlink:href="#f2_a" transform="matrix(11,0,0,11,364,625.9)" />
<use xlink:href="#f2_h" transform="matrix(11,0,0,11,372.4,625.9)" />
<use xlink:href="#f2_4" transform="matrix(11,0,0,11,376.9,625.9)" />
<use xlink:href="#f2_l" transform="matrix(11,0,0,11,381.7,625.9)" />
<use xlink:href="#f2_m" transform="matrix(11,0,0,11,386.4,625.9)" />
<use xlink:href="#f2_e" transform="matrix(11,0,0,11,393.9,625.9)" />
<use xlink:href="#f2_8" transform="matrix(11,0,0,11,402.3,625.9)" />
<use xlink:href="#f2_3" transform="matrix(11,0,0,11,410.7,625.9)" />
<use xlink:href="#f2_m" transform="matrix(11,0,0,11,420.4,625.9)" />
<use xlink:href="#f2_1g" transform="matrix(11,0,0,11,427.9,625.9)" />
<use xlink:href="#f2_f" transform="matrix(11,0,0,11,436.3,625.9)" />
<use xlink:href="#f2_q" transform="matrix(11,0,0,11,444.5,625.9)" />
<use xlink:href="#f2_19" transform="matrix(11,0,0,11,449.2,625.9)" />
<use xlink:href="#f2_2" transform="matrix(11,0,0,11,457.6,625.9)" />
<use xlink:href="#f2_g" transform="matrix(11,0,0,11,465.1,625.9)" />
<use xlink:href="#f2_h" transform="matrix(11,0,0,11,471.6,625.9)" />
<use xlink:href="#f2_16" transform="matrix(11,0,0,11,476.4,625.9)" />
<use xlink:href="#f2_v" transform="matrix(11,0,0,11,487.9,625.9)" />
<use xlink:href="#f2_4" transform="matrix(11,0,0,11,496.4,625.9)" />
<use xlink:href="#f2_2" transform="matrix(11,0,0,11,500.9,625.9)" />
<use xlink:href="#f2_a" transform="matrix(11,0,0,11,508.4,625.9)" />
<use xlink:href="#f2_17" transform="matrix(11,0,0,11,516.8,625.9)" />
</g>
<g fill="#0000FF" >
<use xlink:href="#f1_6" transform="matrix(12,0,0,12,723.5,664.9)" />
<use xlink:href="#f1_c" transform="matrix(12,0,0,12,736,664.9)" />
<use xlink:href="#f1_k" transform="matrix(12,0,0,12,741.5,664.9)" />
<use xlink:href="#f1_a" transform="matrix(12,0,0,12,749.3,664.9)" />
<use xlink:href="#f1_e" transform="matrix(12,0,0,12,760,664.9)" />
</g>
</g>
<path d="M717,666.7h55.4" class="g1_13" />
<g clip-path="url(#c0_13)">
<g fill="#000000" >
<use xlink:href="#f3_n" transform="matrix(12,0,0,12,723.8,752.1)" />
<use xlink:href="#f3_d" transform="matrix(12,0,0,12,735,752.1)" />
<use xlink:href="#f3_o" transform="matrix(12,0,0,12,740.3,752.1)" />
<use xlink:href="#f3_4" transform="matrix(12,0,0,12,748.6,752.1)" />
<use xlink:href="#f3_p" transform="matrix(12,0,0,12,759.6,752.1)" />
<use xlink:href="#f3_q" transform="matrix(12,0,0,12,691.8,752.1)" />
<use xlink:href="#f3_s" transform="matrix(12,0,0,12,704.5,752.1)" />
<use xlink:href="#f1_15" transform="matrix(12,0,0,12,233.4,752.1)" />
<use xlink:href="#f1_9" transform="matrix(12,0,0,12,245.5,752.1)" />
<use xlink:href="#f1_3" transform="matrix(12,0,0,12,257.4,752.1)" />
<use xlink:href="#f1_7" transform="matrix(12,0,0,12,267.8,752.1)" />
<use xlink:href="#f1_8" transform="matrix(12,0,0,12,271.8,752.1)" />
<use xlink:href="#f1_9" transform="matrix(12,0,0,12,284.3,752.1)" />
<use xlink:href="#f1_e" transform="matrix(12,0,0,12,302.1,752.1)" />
<use xlink:href="#f1_d" transform="matrix(12,0,0,12,314.2,752.1)" />
<use xlink:href="#f1_h" transform="matrix(12,0,0,12,332.2,752.1)" />
<use xlink:href="#f1_8" transform="matrix(12,0,0,12,337.1,752.1)" />
<use xlink:href="#f1_t" transform="matrix(12,0,0,12,349.6,752.1)" />
<use xlink:href="#f1_s" transform="matrix(12,0,0,12,367.3,752.1)" />
<use xlink:href="#f1_h" transform="matrix(12,0,0,12,373.1,752.1)" />
<use xlink:href="#f1_m" transform="matrix(12,0,0,12,378.2,752.1)" />
<use xlink:href="#f1_c" transform="matrix(12,0,0,12,389.5,752.1)" />
<use xlink:href="#f1_q" transform="matrix(12,0,0,12,394.5,752.1)" />
<use xlink:href="#f1_e" transform="matrix(12,0,0,12,410.4,752.1)" />
<use xlink:href="#f1_d" transform="matrix(12,0,0,12,422.4,752.1)" />
<use xlink:href="#f1_b" transform="matrix(12,0,0,12,434.7,752.1)" />
<use xlink:href="#f1_c" transform="matrix(12,0,0,12,445.5,752.1)" />
<use xlink:href="#f1_7" transform="matrix(12,0,0,12,450.5,752.1)" />
<use xlink:href="#f1_9" transform="matrix(12,0,0,12,460.4,752.1)" />
<use xlink:href="#f1_3" transform="matrix(12,0,0,12,472.4,752.1)" />
<use xlink:href="#f1_7" transform="matrix(12,0,0,12,482.8,752.1)" />
<use xlink:href="#f1_8" transform="matrix(12,0,0,12,486.9,752.1)" />
<use xlink:href="#f1_9" transform="matrix(12,0,0,12,505.2,752.1)" />
<use xlink:href="#f1_n" transform="matrix(12,0,0,12,517.1,752.1)" />
<use xlink:href="#f1_4" transform="matrix(12,0,0,12,524.4,752.1)" />
<use xlink:href="#f1_7" transform="matrix(12,0,0,12,537.4,752.1)" />
<use xlink:href="#f1_6" transform="matrix(12,0,0,12,547.3,752.1)" />
<use xlink:href="#f1_7" transform="matrix(12,0,0,12,559.5,752.1)" />
<use xlink:href="#f1_3" transform="matrix(12,0,0,12,563.6,752.1)" />
<use xlink:href="#f1_7" transform="matrix(12,0,0,12,574,752.1)" />
<use xlink:href="#f1_8" transform="matrix(12,0,0,12,578,752.1)" />
<use xlink:href="#f1_e" transform="matrix(12,0,0,12,596.5,752.1)" />
<use xlink:href="#f1_a" transform="matrix(12,0,0,12,608.4,752.1)" />
<use xlink:href="#f1_c" transform="matrix(12,0,0,12,618.8,752.1)" />
<use xlink:href="#f1_4" transform="matrix(12,0,0,12,623.8,752.1)" />
<use xlink:href="#f1_3" transform="matrix(12,0,0,12,642.7,752.1)" />
<use xlink:href="#f1_i" transform="matrix(12,0,0,12,653.1,752.1)" />
<use xlink:href="#f1_f" transform="matrix(12,0,0,12,662.8,752.1)" />
<use xlink:href="#f1_12" transform="matrix(12,0,0,12,679.2,752.1)" />
</g>
</g>
<path d="M128.6,776.2h572m-572,20h572m-572,20.2h572m-572,20h572m-572,20.1h572m-572,20.1h572m-572,20.1h572m-572,20h572m-572,20.2h572m-572,20h572m-572,20.2h572M128.9,775.8V977.5M700.2,775.8V977.5" class="g0_13" />
<g clip-path="url(#c0_13)">
<g fill="#000000" >
<use xlink:href="#f2_s" transform="matrix(11,0,0,11,137.7,792.2)" />
<use xlink:href="#f2_4" transform="matrix(11,0,0,11,146.1,792.2)" />
<use xlink:href="#f2_8" transform="matrix(11,0,0,11,150.8,792.2)" />
<use xlink:href="#f2_l" transform="matrix(11,0,0,11,159,792.2)" />
<use xlink:href="#f2_2" transform="matrix(11,0,0,11,163.8,792.2)" />
<use xlink:href="#f2_h" transform="matrix(11,0,0,11,171.2,792.2)" />
<use xlink:href="#f2_m" transform="matrix(11,0,0,11,175.9,792.2)" />
<use xlink:href="#f2_h" transform="matrix(11,0,0,11,300.4,792.2)" />
<use xlink:href="#f2_3" transform="matrix(11,0,0,11,305.1,792.2)" />
<use xlink:href="#f2_m" transform="matrix(11,0,0,11,310.6,792.2)" />
<use xlink:href="#f2_a" transform="matrix(11,0,0,11,318,792.2)" />
<use xlink:href="#f2_g" transform="matrix(11,0,0,11,326.4,792.2)" />
<use xlink:href="#f2_u" transform="matrix(11,0,0,11,333,792.2)" />
<use xlink:href="#f2_m" transform="matrix(11,0,0,11,341.4,792.2)" />
<use xlink:href="#f2_3" transform="matrix(11,0,0,11,348.9,792.2)" />
<use xlink:href="#f2_2" transform="matrix(11,0,0,11,354.5,792.2)" />
<use xlink:href="#f2_a" transform="matrix(11,0,0,11,362,792.2)" />
<use xlink:href="#f2_h" transform="matrix(11,0,0,11,370.2,792.2)" />
<use xlink:href="#f2_2" transform="matrix(11,0,0,11,374.9,792.2)" />
<use xlink:href="#f2_t" transform="matrix(11,0,0,11,463.1,792.2)" />
<use xlink:href="#f2_l" transform="matrix(11,0,0,11,468.7,792.2)" />
<use xlink:href="#f2_8" transform="matrix(11,0,0,11,473.4,792.2)" />
<use xlink:href="#f2_3" transform="matrix(11,0,0,11,481.7,792.2)" />
<use xlink:href="#f2_2" transform="matrix(11,0,0,11,487.3,792.2)" />
<use xlink:href="#f2_5" transform="matrix(11,0,0,11,494.8,792.2)" />
<use xlink:href="#f2_2" transform="matrix(11,0,0,11,502.2,792.2)" />
<use xlink:href="#f2_3" transform="matrix(11,0,0,11,509.6,792.2)" />
<use xlink:href="#f2_v" transform="matrix(11,0,0,11,589.9,792.2)" />
<use xlink:href="#f2_l" transform="matrix(11,0,0,11,598.3,792.2)" />
<use xlink:href="#f2_m" transform="matrix(11,0,0,11,603,792.2)" />
<use xlink:href="#f2_a" transform="matrix(11,0,0,11,610.5,792.2)" />
<use xlink:href="#f2_5" transform="matrix(11,0,0,11,618.9,792.2)" />
<use xlink:href="#f2_8" transform="matrix(11,0,0,11,626.3,792.2)" />
<use xlink:href="#f2_5" transform="matrix(11,0,0,11,137.7,812.3)" />
<use xlink:href="#f2_2" transform="matrix(11,0,0,11,145.1,812.3)" />
<use xlink:href="#f2_a" transform="matrix(11,0,0,11,152.6,812.3)" />
<use xlink:href="#f2_m" transform="matrix(11,0,0,11,161,812.3)" />
<use xlink:href="#f2_3" transform="matrix(11,0,0,11,168.3,812.3)" />
<use xlink:href="#f2_m" transform="matrix(11,0,0,11,300.4,812.3)" />
<use xlink:href="#f2_l" transform="matrix(11,0,0,11,307.8,812.3)" />
<use xlink:href="#f2_p" transform="matrix(11,0,0,11,312.4,812.3)" />
<use xlink:href="#f2_8" transform="matrix(11,0,0,11,325.5,812.3)" />
<use xlink:href="#f2_3" transform="matrix(11,0,0,11,333.9,812.3)" />
<use xlink:href="#f2_9" transform="matrix(11,0,0,11,339.6,812.3)" />
<use xlink:href="#f2_m" transform="matrix(11,0,0,11,347,812.3)" />
<use xlink:href="#f2_3" transform="matrix(11,0,0,11,354.4,812.3)" />
<use xlink:href="#f2_5" transform="matrix(11,0,0,11,463.1,812.3)" />
<use xlink:href="#f2_8" transform="matrix(11,0,0,11,470.5,812.3)" />
<use xlink:href="#f2_p" transform="matrix(11,0,0,11,478.9,812.3)" />
<use xlink:href="#f2_2" transform="matrix(11,0,0,11,492.1,812.3)" />
<use xlink:href="#f2_3" transform="matrix(11,0,0,11,499.4,812.3)" />
<use xlink:href="#f2_e" transform="matrix(11,0,0,11,589.9,812.3)" />
<use xlink:href="#f2_2" transform="matrix(11,0,0,11,598.3,812.3)" />
<use xlink:href="#f2_g" transform="matrix(11,0,0,11,605.7,812.3)" />
<use xlink:href="#f2_m" transform="matrix(11,0,0,11,612.3,812.3)" />
<use xlink:href="#f2_7" transform="matrix(11,0,0,11,619.8,812.3)" />
<use xlink:href="#f2_f" transform="matrix(11,0,0,11,628.2,812.3)" />
<use xlink:href="#f2_a" transform="matrix(11,0,0,11,636.6,812.3)" />
<use xlink:href="#f2_m" transform="matrix(11,0,0,11,645,812.3)" />
<use xlink:href="#f2_3" transform="matrix(11,0,0,11,652.3,812.3)" />
<use xlink:href="#f2_m" transform="matrix(11,0,0,11,137.7,832.3)" />
<use xlink:href="#f2_a" transform="matrix(11,0,0,11,145.1,832.3)" />
<use xlink:href="#f2_m" transform="matrix(11,0,0,11,153.5,832.3)" />
<use xlink:href="#f2_3" transform="matrix(11,0,0,11,161,832.3)" />
<use xlink:href="#f2_m" transform="matrix(11,0,0,11,166.5,832.3)" />
<use xlink:href="#f2_a" transform="matrix(11,0,0,11,173.9,832.3)" />
<use xlink:href="#f2_1b" transform="matrix(11,0,0,11,182.3,832.3)" />
<use xlink:href="#f2_m" transform="matrix(11,0,0,11,187.1,832.3)" />
<use xlink:href="#f2_e" transform="matrix(11,0,0,11,194.5,832.3)" />
<use xlink:href="#f2_8" transform="matrix(11,0,0,11,202.9,832.3)" />
<use xlink:href="#f2_a" transform="matrix(11,0,0,11,300.4,832.3)" />
<use xlink:href="#f2_m" transform="matrix(11,0,0,11,308.8,832.3)" />
<use xlink:href="#f2_3" transform="matrix(11,0,0,11,316.2,832.3)" />
<use xlink:href="#f2_m" transform="matrix(11,0,0,11,321.9,832.3)" />
<use xlink:href="#f2_a" transform="matrix(11,0,0,11,329.3,832.3)" />
<use xlink:href="#f2_1b" transform="matrix(11,0,0,11,337.6,832.3)" />
<use xlink:href="#f2_m" transform="matrix(11,0,0,11,342.3,832.3)" />
<use xlink:href="#f2_u" transform="matrix(11,0,0,11,463.1,832.3)" />
<use xlink:href="#f2_l" transform="matrix(11,0,0,11,471.5,832.3)" />
<use xlink:href="#f2_m" transform="matrix(11,0,0,11,476.2,832.3)" />
<use xlink:href="#f2_h" transform="matrix(11,0,0,11,483.5,832.3)" />
<use xlink:href="#f2_2" transform="matrix(11,0,0,11,488.2,832.3)" />
<use xlink:href="#f2_m" transform="matrix(11,0,0,11,495.7,832.3)" />
<use xlink:href="#f2_e" transform="matrix(11,0,0,11,503.2,832.3)" />
<use xlink:href="#f2_8" transform="matrix(11,0,0,11,511.6,832.3)" />
<use xlink:href="#f2_e" transform="matrix(11,0,0,11,589.9,832.3)" />
<use xlink:href="#f2_8" transform="matrix(11,0,0,11,598.3,832.3)" />
<use xlink:href="#f2_3" transform="matrix(11,0,0,11,606.7,832.3)" />
<use xlink:href="#f2_m" transform="matrix(11,0,0,11,612.3,832.3)" />
<use xlink:href="#f2_e" transform="matrix(11,0,0,11,619.8,832.3)" />
<use xlink:href="#f2_8" transform="matrix(11,0,0,11,628.2,832.3)" />
<use xlink:href="#f2_8" transform="matrix(11,0,0,11,137.7,852.5)" />
<use xlink:href="#f2_5" transform="matrix(11,0,0,11,146.1,852.5)" />
<use xlink:href="#f2_k" transform="matrix(11,0,0,11,153.5,852.5)" />
<use xlink:href="#f2_m" transform="matrix(11,0,0,11,161,852.5)" />
<use xlink:href="#f2_a" transform="matrix(11,0,0,11,168.4,852.5)" />
<use xlink:href="#f2_8" transform="matrix(11,0,0,11,176.8,852.5)" />
<use xlink:href="#f2_p" transform="matrix(11,0,0,11,300.4,852.5)" />
<use xlink:href="#f2_m" transform="matrix(11,0,0,11,313.5,852.5)" />
<use xlink:href="#f2_3" transform="matrix(11,0,0,11,320.8,852.5)" />
<use xlink:href="#f2_5" transform="matrix(11,0,0,11,463.1,852.5)" />
<use xlink:href="#f2_8" transform="matrix(11,0,0,11,470.5,852.5)" />
<use xlink:href="#f2_g" transform="matrix(11,0,0,11,478.9,852.5)" />
<use xlink:href="#f2_h" transform="matrix(11,0,0,11,485.5,852.5)" />
<use xlink:href="#f2_m" transform="matrix(11,0,0,11,490.1,852.5)" />
<use xlink:href="#f2_p" transform="matrix(11,0,0,11,589.9,852.5)" />
<use xlink:href="#f2_8" transform="matrix(11,0,0,11,603,852.5)" />
<use xlink:href="#f2_e" transform="matrix(11,0,0,11,611.4,852.5)" />
<use xlink:href="#f2_m" transform="matrix(11,0,0,11,619.8,852.5)" />
<use xlink:href="#f2_2" transform="matrix(11,0,0,11,137.7,872.5)" />
<use xlink:href="#f2_l" transform="matrix(11,0,0,11,145.1,872.5)" />
<use xlink:href="#f2_2" transform="matrix(11,0,0,11,149.8,872.5)" />
<use xlink:href="#f2_w" transform="matrix(11,0,0,11,157.3,872.5)" />
<use xlink:href="#f2_m" transform="matrix(11,0,0,11,165.6,872.5)" />
<use xlink:href="#f2_a" transform="matrix(11,0,0,11,173,872.5)" />
<use xlink:href="#f2_h" transform="matrix(11,0,0,11,181.4,872.5)" />
<use xlink:href="#f2_2" transform="matrix(11,0,0,11,186.1,872.5)" />
<use xlink:href="#f2_5" transform="matrix(11,0,0,11,300.4,872.5)" />
<use xlink:href="#f2_f" transform="matrix(11,0,0,11,307.8,872.5)" />
<use xlink:href="#f2_3" transform="matrix(11,0,0,11,316.2,872.5)" />
<use xlink:href="#f2_4" transform="matrix(11,0,0,11,321.7,872.5)" />
<use xlink:href="#f2_8" transform="matrix(11,0,0,11,326.4,872.5)" />
<use xlink:href="#f2_g" transform="matrix(11,0,0,11,334.8,872.5)" />
<use xlink:href="#f2_8" transform="matrix(11,0,0,11,341.4,872.5)" />
<use xlink:href="#f2_2" transform="matrix(11,0,0,11,463.1,872.5)" />
<use xlink:href="#f2_a" transform="matrix(11,0,0,11,470.5,872.5)" />
<use xlink:href="#f2_t" transform="matrix(11,0,0,11,478.9,872.5)" />
<use xlink:href="#f2_2" transform="matrix(11,0,0,11,484.6,872.5)" />
<use xlink:href="#f2_3" transform="matrix(11,0,0,11,491.9,872.5)" />
<use xlink:href="#f2_p" transform="matrix(11,0,0,11,497.5,872.5)" />
<use xlink:href="#f2_8" transform="matrix(11,0,0,11,510.6,872.5)" />
<use xlink:href="#f2_p" transform="matrix(11,0,0,11,589.9,872.5)" />
<use xlink:href="#f2_f" transform="matrix(11,0,0,11,603,872.5)" />
<use xlink:href="#f2_g" transform="matrix(11,0,0,11,611.4,872.5)" />
<use xlink:href="#f2_2" transform="matrix(11,0,0,11,618,872.5)" />
<use xlink:href="#f2_8" transform="matrix(11,0,0,11,625.4,872.5)" />
<use xlink:href="#f2_5" transform="matrix(11,0,0,11,137.7,892.7)" />
<use xlink:href="#f2_8" transform="matrix(11,0,0,11,145.1,892.7)" />
<use xlink:href="#f2_g" transform="matrix(11,0,0,11,153.5,892.7)" />
<use xlink:href="#f2_h" transform="matrix(11,0,0,11,160.1,892.7)" />
<use xlink:href="#f2_f" transform="matrix(11,0,0,11,164.8,892.7)" />
<use xlink:href="#f2_p" transform="matrix(11,0,0,11,173,892.7)" />
<use xlink:href="#f2_v" transform="matrix(11,0,0,11,186.2,892.7)" />
<use xlink:href="#f2_3" transform="matrix(11,0,0,11,194.6,892.7)" />
<use xlink:href="#f2_2" transform="matrix(11,0,0,11,200.2,892.7)" />
<use xlink:href="#f2_e" transform="matrix(11,0,0,11,300.4,892.7)" />
<use xlink:href="#f2_2" transform="matrix(11,0,0,11,308.8,892.7)" />
<use xlink:href="#f2_g" transform="matrix(11,0,0,11,316.2,892.7)" />
<use xlink:href="#f2_4" transform="matrix(11,0,0,11,322.8,892.7)" />
<use xlink:href="#f2_2" transform="matrix(11,0,0,11,327.4,892.7)" />
<use xlink:href="#f2_3" transform="matrix(11,0,0,11,334.8,892.7)" />
<use xlink:href="#f2_h" transform="matrix(11,0,0,11,340.5,892.7)" />
<use xlink:href="#f2_8" transform="matrix(11,0,0,11,345.2,892.7)" />
<use xlink:href="#f2_5" transform="matrix(11,0,0,11,463.1,892.7)" />
<use xlink:href="#f2_m" transform="matrix(11,0,0,11,470.5,892.7)" />
<use xlink:href="#f2_l" transform="matrix(11,0,0,11,478,892.7)" />
<use xlink:href="#f2_8" transform="matrix(11,0,0,11,482.7,892.7)" />
<use xlink:href="#f2_3" transform="matrix(11,0,0,11,491,892.7)" />
<use xlink:href="#f2_g" transform="matrix(11,0,0,11,589.9,892.7)" />
<use xlink:href="#f2_2" transform="matrix(11,0,0,11,596.4,892.7)" />
<use xlink:href="#f2_e" transform="matrix(11,0,0,11,603.9,892.7)" />
<use xlink:href="#f2_8" transform="matrix(11,0,0,11,137.7,912.7)" />
<use xlink:href="#f2_g" transform="matrix(11,0,0,11,146.1,912.7)" />
<use xlink:href="#f2_5" transform="matrix(11,0,0,11,152.6,912.7)" />
<use xlink:href="#f2_f" transform="matrix(11,0,0,11,160.1,912.7)" />
<use xlink:href="#f2_3" transform="matrix(11,0,0,11,168.5,912.7)" />
<use xlink:href="#f2_8" transform="matrix(11,0,0,11,174.1,912.7)" />
<use xlink:href="#f2_5" transform="matrix(11,0,0,11,300.4,912.7)" />
<use xlink:href="#f2_l" transform="matrix(11,0,0,11,307.8,912.7)" />
<use xlink:href="#f2_m" transform="matrix(11,0,0,11,312.5,912.7)" />
<use xlink:href="#f2_3" transform="matrix(11,0,0,11,319.9,912.7)" />
<use xlink:href="#f2_8" transform="matrix(11,0,0,11,325.5,912.7)" />
<use xlink:href="#f2_e" transform="matrix(11,0,0,11,463.1,912.7)" />
<use xlink:href="#f2_8" transform="matrix(11,0,0,11,471.5,912.7)" />
<use xlink:href="#f2_3" transform="matrix(11,0,0,11,479.9,912.7)" />
<use xlink:href="#f2_p" transform="matrix(11,0,0,11,485.5,912.7)" />
<use xlink:href="#f2_4" transform="matrix(11,0,0,11,498.5,912.7)" />
<use xlink:href="#f2_e" transform="matrix(11,0,0,11,503.2,912.7)" />
<use xlink:href="#f2_8" transform="matrix(11,0,0,11,511.6,912.7)" />
<use xlink:href="#f2_5" transform="matrix(11,0,0,11,137.7,932.9)" />
<use xlink:href="#f2_8" transform="matrix(11,0,0,11,145.1,932.9)" />
<use xlink:href="#f2_p" transform="matrix(11,0,0,11,153.5,932.9)" />
<use xlink:href="#f2_u" transform="matrix(11,0,0,11,166.6,932.9)" />
<use xlink:href="#f2_3" transform="matrix(11,0,0,11,174.9,932.9)" />
<use xlink:href="#f2_m" transform="matrix(11,0,0,11,180.5,932.9)" />
<use xlink:href="#f2_8" transform="matrix(11,0,0,11,300.4,932.9)" />
<use xlink:href="#f2_t" transform="matrix(11,0,0,11,308.8,932.9)" />
<use xlink:href="#f2_2" transform="matrix(11,0,0,11,314.4,932.9)" />
<use xlink:href="#f2_3" transform="matrix(11,0,0,11,321.7,932.9)" />
<use xlink:href="#f2_h" transform="matrix(11,0,0,11,327.4,932.9)" />
<use xlink:href="#f2_m" transform="matrix(11,0,0,11,332.1,932.9)" />
<use xlink:href="#f2_5" transform="matrix(11,0,0,11,463.1,932.9)" />
<use xlink:href="#f2_2" transform="matrix(11,0,0,11,470.5,932.9)" />
<use xlink:href="#f2_l" transform="matrix(11,0,0,11,478,932.9)" />
<use xlink:href="#f2_2" transform="matrix(11,0,0,11,482.6,932.9)" />
<use xlink:href="#f2_g" transform="matrix(11,0,0,11,490,932.9)" />
<use xlink:href="#f2_h" transform="matrix(11,0,0,11,496.6,932.9)" />
<use xlink:href="#f2_2" transform="matrix(11,0,0,11,501.3,932.9)" />
<use xlink:href="#f2_2" transform="matrix(11,0,0,11,137.7,952.9)" />
<use xlink:href="#f2_l" transform="matrix(11,0,0,11,145.1,952.9)" />
<use xlink:href="#f2_2" transform="matrix(11,0,0,11,149.8,952.9)" />
<use xlink:href="#f2_w" transform="matrix(11,0,0,11,157.3,952.9)" />
<use xlink:href="#f2_4" transform="matrix(11,0,0,11,165.6,952.9)" />
<use xlink:href="#f2_3" transform="matrix(11,0,0,11,170.3,952.9)" />
<use xlink:href="#f2_2" transform="matrix(11,0,0,11,300.4,952.9)" />
<use xlink:href="#f2_g" transform="matrix(11,0,0,11,307.8,952.9)" />
<use xlink:href="#f2_5" transform="matrix(11,0,0,11,314.4,952.9)" />
<use xlink:href="#f2_8" transform="matrix(11,0,0,11,321.8,952.9)" />
<use xlink:href="#f2_w" transform="matrix(11,0,0,11,330.2,952.9)" />
<use xlink:href="#f2_2" transform="matrix(11,0,0,11,338.6,952.9)" />
<use xlink:href="#f2_3" transform="matrix(11,0,0,11,346,952.9)" />
<use xlink:href="#f2_5" transform="matrix(11,0,0,11,463.1,952.9)" />
<use xlink:href="#f2_8" transform="matrix(11,0,0,11,470.5,952.9)" />
<use xlink:href="#f2_w" transform="matrix(11,0,0,11,478.9,952.9)" />
<use xlink:href="#f2_2" transform="matrix(11,0,0,11,487.3,952.9)" />
<use xlink:href="#f2_3" transform="matrix(11,0,0,11,494.8,952.9)" />
<use xlink:href="#f2_m" transform="matrix(11,0,0,11,137.7,973)" />
<use xlink:href="#f2_l" transform="matrix(11,0,0,11,145.1,973)" />
<use xlink:href="#f2_p" transform="matrix(11,0,0,11,149.7,973)" />
<use xlink:href="#f2_8" transform="matrix(11,0,0,11,162.8,973)" />
<use xlink:href="#f2_x" transform="matrix(11,0,0,11,171.2,973)" />
<use xlink:href="#f2_m" transform="matrix(11,0,0,11,179.6,973)" />
<use xlink:href="#f2_e" transform="matrix(11,0,0,11,187.1,973)" />
<use xlink:href="#f2_m" transform="matrix(11,0,0,11,195.5,973)" />
<use xlink:href="#f2_4" transform="matrix(11,0,0,11,300.4,973)" />
<use xlink:href="#f2_a" transform="matrix(11,0,0,11,305.1,973)" />
<use xlink:href="#f2_h" transform="matrix(11,0,0,11,313.3,973)" />
<use xlink:href="#f2_2" transform="matrix(11,0,0,11,318.1,973)" />
<use xlink:href="#f2_3" transform="matrix(11,0,0,11,325.5,973)" />
<use xlink:href="#f2_k" transform="matrix(11,0,0,11,331.1,973)" />
<use xlink:href="#f2_g" transform="matrix(11,0,0,11,338.6,973)" />
<use xlink:href="#f2_w" transform="matrix(11,0,0,11,463.1,973)" />
<use xlink:href="#f2_m" transform="matrix(11,0,0,11,471.5,973)" />
<use xlink:href="#f2_a" transform="matrix(11,0,0,11,478.9,973)" />
<use xlink:href="#f2_m" transform="matrix(11,0,0,11,487.3,973)" />
</g>
<g fill="#0000FF" >
<use xlink:href="#f1_3" transform="matrix(12,0,0,12,649.3,1032.2)" />
<use xlink:href="#f1_7" transform="matrix(12,0,0,12,660,1032.2)" />
<use xlink:href="#f1_k" transform="matrix(12,0,0,12,664.5,1032.2)" />
<use xlink:href="#f1_a" transform="matrix(12,0,0,12,672.3,1032.2)" />
<use xlink:href="#f1_e" transform="matrix(12,0,0,12,683.1,1032.2)" />
<use xlink:href="#f1_3" transform="matrix(12,0,0,12,695.5,1032.2)" />
<use xlink:href="#f1_e" transform="matrix(12,0,0,12,712.4,1032.2)" />
<use xlink:href="#f1_c" transform="matrix(12,0,0,12,724.9,1032.2)" />
<use xlink:href="#f1_f" transform="matrix(12,0,0,12,730.3,1032.2)" />
<use xlink:href="#f1_c" transform="matrix(12,0,0,12,741.2,1032.2)" />
<use xlink:href="#f1_4" transform="matrix(12,0,0,12,746.6,1032.2)" />
<use xlink:href="#f1_e" transform="matrix(12,0,0,12,759.8,1032.2)" />
</g>
</g>
<path d="M642.9,1034H772.1" class="g1_13" />
<g clip-path="url(#c1_13)">
<path d="M642.4,1034h5.8" class="g1_13" />
</g>
<g clip-path="url(#c0_13)">
<g fill="#0000FF" >
<use xlink:href="#f1_13" transform="matrix(12,0,0,12,618.8,1032.2)" />
<use xlink:href="#f1_16" transform="matrix(12,0,0,12,630.6,1032.2)" />
</g>
</g>
<path d="M618.8,1034h23.6" class="g1_13" />
<image preserveAspectRatio="none" x="129" y="334" width="72" height="63" xlink:href="img/1.png" />
<defs>
<path d="M360,-256c0,0,108,0,167,35c0,0,59,35,59,98c0,0,0,70,-95,70H254c0,0,-65,-47,-65,-108c0,0,0,-47,46,-71c0,0,45,-24,125,-24Zm9,561c0,0,55,0,79,43c0,0,25,43,25,129c0,0,0,87,-24,127c0,0,-25,41,-80,41c0,0,-52,0,-75,-41c0,0,-24,-40,-24,-127c0,0,0,-86,23,-129c0,0,23,-43,76,-43Zm-9,-641c0,0,-153,0,-236,43c0,0,-84,44,-84,120c0,0,0,33,28,65c0,0,27,31,105,76c0,0,-44,17,-75,59c0,0,-31,43,-31,90L192,258c0,0,-133,56,-133,219c0,0,0,116,81,180c0,0,82,63,233,63c0,0,32,0,82,-6c0,0,51,-6,74,-13l168,83l26,-32L638,631c0,0,46,-57,46,-154c0,0,0,-119,-80,-182c0,0,-80,-64,-234,-64c0,0,-59,0,-114,9L238,183c0,0,1,-22,28,-41c0,0,26,-19,64,-19H493c0,0,256,0,256,-196c0,0,0,-81,-44,-139c0,0,-45,-59,-131,-92c0,0,-86,-32,-214,-32Z" 
id="f0_w"
transform="scale(0.001,-0.001)" />

<path d="M41,0V49l91,18V634L41,652v49H336l8,-145c0,0,80,89,144,128c0,0,64,40,117,40h40V468H604l-45,94c0,0,-47,0,-106,-21c0,0,-60,-20,-105,-48V67L460,49V0Z" 
id="f0_o"
transform="scale(0.001,-0.001)" />

<path d="M345,75c0,0,50,0,110,26V351l-63,-2c0,0,-72,-3,-100,-38c0,0,-28,-35,-28,-113c0,0,0,-63,22,-93c0,0,23,-30,59,-30ZM266,-14c0,0,-217,0,-217,208c0,0,0,79,32,126c0,0,32,48,93,71c0,0,60,22,190,25l91,2V521c0,0,0,126,-104,126c0,0,-62,0,-140,-39L183,521H134V691c0,0,112,17,165,21c0,0,53,5,108,5c0,0,264,0,264,-194V67L741,49V0H483L466,54C466,54,408,14,361,0c0,0,-47,-14,-95,-14Z" 
id="f0_q"
transform="scale(0.001,-0.001)" />

<path d="M41,0V49l69,18V634L41,652v49H313l11,-61l50,26c0,0,105,54,188,54c0,0,194,0,194,-207V67L827,49V0H478V49l63,18V484c0,0,0,63,-27,98c0,0,-26,35,-75,35c0,0,-57,0,-114,-25V67L389,49V0Z" 
id="f0_11"
transform="scale(0.001,-0.001)" />

<path d="M416,68c0,0,60,0,124,32V628c0,0,-58,15,-118,15c0,0,-67,0,-104,-73c0,0,-38,-73,-38,-216c0,0,0,-139,36,-212c0,0,35,-74,100,-74ZM369,-14c0,0,-155,0,-231,88c0,0,-76,90,-76,274c0,0,0,182,82,277c0,0,81,95,236,95c0,0,82,0,165,-20c0,0,-5,24,-5,115V992l-72,18v50H756V67L833,49V0H562L547,40C547,40,505,13,483,4c0,0,-23,-7,-51,-12c0,0,-28,-6,-63,-6Z" 
id="f0_1n"
transform="scale(0.001,-0.001)" />

<path d="M434,423c0,0,0,101,-7,142c0,0,-6,40,-22,60c0,0,-16,19,-45,19c0,0,-44,0,-66,-48c0,0,-22,-49,-22,-173ZM389,-14c0,0,-172,0,-254,89c0,0,-83,90,-83,279c0,0,0,184,79,274c0,0,79,91,238,91c0,0,142,0,206,-76c0,0,64,-76,64,-237V345H271V333c0,0,0,-111,18,-158c0,0,18,-47,58,-72c0,0,40,-25,110,-25c0,0,66,0,166,22V42C623,42,582,18,517,1c0,0,-66,-15,-128,-15Z" 
id="f0_p"
transform="scale(0.001,-0.001)" />

<path d="M159,-329c0,0,-61,0,-123,14v180H81l32,-94c0,0,21,-17,55,-17c0,0,28,0,50,13c0,0,21,14,40,39c0,0,20,25,37,62c0,0,17,37,50,110L64,634L15,652v49H374V652L290,632L455,244L602,634l-82,18v49H749V652L698,637L421,-44c0,0,-47,-121,-83,-176c0,0,-36,-55,-80,-82c0,0,-43,-27,-99,-27Z" 
id="f0_j"
transform="scale(0.001,-0.001)" />

<path d="M154,0V454l138,56V0ZM722,0V454c0,0,0,161,-49,218c0,0,-48,57,-186,57H139V836H485c0,0,207,0,291,-93c0,0,83,-94,83,-318V0Z" 
id="f1_9"
transform="scale(0.001,-0.001)" />

<path d="M287,0L589,729H66v386H205V836l547,-1l-2,-82L433,0Z" 
id="f1_3"
transform="scale(0.001,-0.001)" />

<path d="M102,312V836H241V369L102,312Z" 
id="f1_7"
transform="scale(0.001,-0.001)" />

<path d="M114,0l60,312c0,0,2,12,8,39c0,0,6,27,7,37c0,0,2,11,5,30c0,0,2,19,4,33c0,0,1,15,1,31c0,0,0,48,-35,146c0,0,-35,98,-98,208H228c0,0,3,-8,27,-67c0,0,25,-58,41,-117c0,0,21,53,50,90c0,0,29,37,57,57c0,0,29,21,65,32c0,0,37,11,65,14c0,0,28,3,67,3c0,0,300,0,300,-396V0H480V106H761V452c0,0,0,146,-46,215c0,0,-45,70,-118,70c0,0,-134,0,-198,-119c0,0,-36,-68,-67,-222c0,0,-2,-10,-6,-27L253,0Z" 
id="f1_8"
transform="scale(0.001,-0.001)" />

<path d="M359,-270c0,0,124,0,192,46c0,0,67,47,67,129c0,0,0,43,-26,67c0,0,-26,24,-79,24H242c0,0,-32,-27,-51,-69c0,0,-20,-41,-20,-77c0,0,0,-64,46,-92c0,0,46,-28,142,-28Zm11,561c0,0,81,0,115,47c0,0,34,47,34,141c0,0,0,100,-35,142c0,0,-35,42,-113,42c0,0,-78,0,-114,-43c0,0,-37,-42,-37,-141c0,0,0,-98,36,-143c0,0,36,-45,114,-45ZM359,-329c0,0,-143,0,-218,44c0,0,-75,43,-75,125c0,0,0,39,27,78c0,0,26,38,98,89c0,0,-43,14,-72,48c0,0,-29,35,-29,74L208,262c0,0,-118,55,-118,217c0,0,0,115,73,178c0,0,73,63,211,63c0,0,28,0,71,-6c0,0,44,-6,67,-13l165,83l26,-32L599,644c0,0,50,-56,50,-165c0,0,0,-120,-72,-182c0,0,-73,-62,-208,-62c0,0,-62,0,-114,11L208,148c0,0,2,-13,29,-24c0,0,27,-12,67,-12H512c0,0,113,0,168,-49c0,0,55,-49,55,-134c0,0,0,-79,-44,-137c0,0,-43,-58,-128,-90c0,0,-84,-31,-204,-31Z" 
id="f2_w"
transform="scale(0.001,-0.001)" />

<path d="M31,0V33l88,19V649L31,668v33H235l7,-87c0,0,44,37,121,71c0,0,76,35,121,35h11V530H463l-43,82c0,0,-37,0,-88,-10c0,0,-52,-10,-89,-26V52L363,33V0Z" 
id="f2_3"
transform="scale(0.001,-0.001)" />

<path d="M284,67c0,0,51,0,88,12c0,0,37,12,74,30V358l-98,-3c0,0,-100,-4,-135,-39c0,0,-35,-35,-35,-117c0,0,0,-132,106,-132ZM233,-14c0,0,-179,0,-179,208c0,0,0,70,27,116c0,0,27,46,87,70c0,0,60,24,173,27l105,3V519c0,0,0,72,-26,107c0,0,-27,34,-82,34c0,0,-75,0,-137,-35L176,538H134V691c0,0,121,26,213,26c0,0,115,0,169,-47c0,0,54,-47,54,-144V52L657,33V0H465L451,70c0,0,-85,-84,-218,-84Z" 
id="f2_m"
transform="scale(0.001,-0.001)" />

<path d="M439,0V33l93,19V500c0,0,0,62,-30,97c0,0,-31,36,-94,36c0,0,-67,0,-165,-22V52L338,33V0H35V33l84,19V649L35,668v33H235l7,-57c0,0,57,33,122,54c0,0,65,22,108,22c0,0,91,0,137,-53c0,0,47,-53,47,-154V52L741,33V0Z" 
id="f2_a"
transform="scale(0.001,-0.001)" />

<path d="M180,0L66,836H203L258,443c0,0,36,1,64,6c0,0,28,6,49,18c0,0,20,12,35,26c0,0,15,13,26,36c0,0,11,24,17,44c0,0,7,20,12,55c0,0,6,34,9,60c0,0,3,26,8,71c0,0,4,45,9,77H610c0,0,-13,-194,-31,-271c0,0,-31,-127,-111,-179c0,0,-71,-45,-196,-50L304,107c0,0,73,0,130,5c0,0,56,6,111,21c0,0,54,15,94,40c0,0,40,25,77,64c0,0,37,39,63,94c0,0,25,54,46,128c0,0,21,73,34,166c0,0,13,94,20,211h138c0,0,-14,-124,-29,-218c0,0,-16,-94,-39,-179c0,0,-22,-85,-50,-146c0,0,-28,-61,-68,-112c0,0,-39,-51,-87,-84C744,97,696,65,632,42C632,42,568,19,492,10C492,10,417,0,320,0Z" 
id="f1_4"
transform="scale(0.001,-0.001)" />

<path d="M522,-20c0,0,-196,0,-290,99c0,0,-94,100,-94,324V836H276V397c0,0,0,-86,16,-147c0,0,17,-60,50,-94c0,0,34,-34,77,-49c0,0,43,-15,103,-15c0,0,59,0,102,15c0,0,44,15,77,49c0,0,33,34,50,94c0,0,17,61,17,147c0,0,0,84,-8,143c0,0,-7,58,-25,105c0,0,-17,47,-51,69c0,0,-33,23,-83,23c0,0,-50,0,-119,-22V821c0,0,85,23,150,23c0,0,76,0,130,-30c0,0,53,-31,85,-90c0,0,31,-59,45,-138c0,0,13,-78,13,-183c0,0,0,-224,-93,-324c0,0,-94,-99,-290,-99Z" 
id="f1_w"
transform="scale(0.001,-0.001)" />

<path d="M139,0V138c0,0,0,61,8,112c0,0,7,52,19,87c0,0,11,36,30,66c0,0,19,31,35,49c0,0,17,19,41,35c0,0,25,17,41,25c0,0,17,7,40,17L141,836H303L613,388c0,0,20,10,33,18c0,0,13,8,34,28c0,0,20,20,33,44c0,0,13,25,22,66c0,0,10,41,10,92V836H882V698c0,0,0,-61,-7,-112c0,0,-6,-52,-18,-88c0,0,-12,-36,-30,-66c0,0,-19,-30,-36,-49c0,0,-17,-18,-41,-34c0,0,-24,-17,-40,-25c0,0,-17,-8,-41,-17L882,0H720L409,448c0,0,-21,-11,-34,-19c0,0,-13,-8,-34,-27c0,0,-21,-20,-34,-44c0,0,-12,-25,-22,-66c0,0,-9,-41,-9,-92V0Z" 
id="f1_d"
transform="scale(0.001,-0.001)" />

<path d="M383,64c0,0,85,0,152,28V645c0,0,-67,13,-152,13c0,0,-194,0,-194,-314c0,0,0,-141,48,-211c0,0,48,-69,146,-69ZM342,-14c0,0,-287,0,-287,358c0,0,0,184,82,280c0,0,81,96,239,96c0,0,81,0,163,-18c0,0,-4,25,-4,124v182l-118,18v34H659V52L745,33V0H548l-9,52c0,0,-84,-66,-197,-66Z" 
id="f2_e"
transform="scale(0.001,-0.001)" />

<path d="M495,413c0,0,0,133,-34,190c0,0,-34,57,-105,57c0,0,-78,0,-119,-63c0,0,-42,-62,-42,-184ZM374,-14c0,0,-163,0,-239,87c0,0,-75,88,-75,283c0,0,0,183,77,273c0,0,76,91,219,91c0,0,269,0,269,-306V353H194V340c0,0,0,-103,23,-160c0,0,22,-57,70,-87c0,0,47,-29,124,-29c0,0,40,0,96,6c0,0,55,7,91,15V43C598,43,562,20,500,3c0,0,-61,-17,-126,-17Z" 
id="f2_2"
transform="scale(0.001,-0.001)" />

<path d="M139,0V836H278V0Z" 
id="f1_c"
transform="scale(0.001,-0.001)" />

<path d="M495,0V729H66V836H781V729H634V0Z" 
id="f1_q"
transform="scale(0.001,-0.001)" />

<path d="M66,0V107H554V452c0,0,0,56,-4,93c0,0,-4,37,-18,75c0,0,-14,38,-40,60c0,0,-26,22,-71,36c0,0,-45,13,-110,13H66V836H312c0,0,91,0,157,-17c0,0,66,-17,109,-49c0,0,44,-32,69,-84c0,0,26,-52,36,-114c0,0,10,-62,10,-147V107H817V0Z" 
id="f1_f"
transform="scale(0.001,-0.001)" />

<path d="M736,107V473c0,0,0,147,-48,202c0,0,-49,54,-187,54H278V107ZM139,0V836H499c0,0,105,0,177,-22c0,0,72,-21,116,-69c0,0,44,-49,64,-119c0,0,19,-71,19,-174V0Z" 
id="f1_6"
transform="scale(0.001,-0.001)" />

<path d="M66,0V106H564L66,836H228L516,413c0,0,3,2,9,6c0,0,17,13,27,21c0,0,10,8,26,27c0,0,17,20,26,40c0,0,9,21,16,54c0,0,7,34,7,75V836H764V698c0,0,0,-55,-7,-102c0,0,-7,-47,-16,-79c0,0,-10,-33,-27,-62c0,0,-18,-29,-32,-46c0,0,-14,-17,-37,-35c0,0,-22,-17,-36,-25c0,0,-13,-8,-36,-20L767,53V0Z" 
id="f1_b"
transform="scale(0.001,-0.001)" />

<path d="M71,-141V-15L289,62L66,836H210L416,109c0,0,99,42,153,98c0,0,53,56,80,155c0,0,26,98,26,262V836H817V624c0,0,0,-88,-7,-154c0,0,-7,-67,-25,-132c0,0,-18,-66,-51,-116c0,0,-33,-51,-84,-98c0,0,-50,-48,-123,-87c0,0,-72,-39,-169,-74L71,-141Z" 
id="f1_l"
transform="scale(0.001,-0.001)" />

<path d="M543,-317V369c0,0,0,85,-8,143c0,0,-8,58,-27,101c0,0,-18,44,-51,69c0,0,-33,24,-80,36c0,0,-48,11,-117,11H66V836H257c0,0,125,0,205,-23c0,0,80,-23,130,-79c0,0,50,-56,70,-143c0,0,20,-86,20,-222V-317Z" 
id="f1_2"
transform="scale(0.001,-0.001)" />

<path d="M522,92c0,0,247,0,247,333c0,0,0,88,-17,146c0,0,-17,58,-53,91c0,0,-35,33,-82,46c0,0,-48,14,-116,14H276V419c0,0,0,-327,246,-327Zm0,-112c0,0,-193,0,-289,109c0,0,-95,110,-95,337V836H501c0,0,213,0,309,-93c0,0,96,-94,96,-317c0,0,0,-227,-95,-337C811,89,715,-20,522,-20Z" 
id="f1_t"
transform="scale(0.001,-0.001)" />

<path d="M139,0V106H400c0,0,176,0,253,71c0,0,78,72,78,250c0,0,0,163,-80,233c0,0,-81,69,-250,69H278L277,564c0,0,-1,-54,26,-80c0,0,27,-25,82,-25c0,0,30,0,80,9V355c0,0,-61,-12,-111,-12c0,0,-100,0,-157,55c0,0,-58,55,-58,186V836H456c0,0,193,0,303,-109c0,0,110,-109,110,-309c0,0,0,-200,-110,-309C759,109,648,0,456,0Z" 
id="f1_m"
transform="scale(0.001,-0.001)" />

<path d="M66,0V106H322c0,0,75,0,127,23c0,0,53,23,82,67c0,0,29,43,42,98c0,0,13,54,13,124c0,0,0,70,-13,124c0,0,-13,55,-42,98c0,0,-29,44,-82,67c0,0,-52,23,-127,23H66V836H322c0,0,87,0,157,-24c0,0,70,-24,115,-64c0,0,45,-40,74,-94c0,0,30,-55,43,-113c0,0,13,-59,13,-123c0,0,0,-64,-13,-123c0,0,-13,-58,-43,-113c0,0,-29,-54,-74,-94C594,88,549,48,479,24C479,24,409,0,322,0Z" 
id="f1_i"
transform="scale(0.001,-0.001)" />

<path d="M376,50c0,0,103,0,149,80c0,0,46,81,46,240c0,0,0,137,-47,204c0,0,-48,67,-148,67c0,0,-44,0,-87,-7c0,0,-44,-8,-63,-17V62c0,0,63,-12,150,-12Zm3,-64c0,0,-64,0,-141,14c0,0,-78,14,-136,37v971L0,1026v34H226V809c0,0,0,-40,-4,-148c0,0,74,59,188,59c0,0,143,0,219,-87c0,0,77,-87,77,-263c0,0,0,-189,-84,-287c0,0,-84,-97,-243,-97Z" 
id="f2_v"
transform="scale(0.001,-0.001)" />

<path d="M289,-14c0,0,-179,0,-179,205V649L20,668v33H233V200c0,0,0,-128,120,-128c0,0,92,0,173,23V649L420,668v33H649V52L738,33V0H533l-6,57C527,57,474,28,405,7c0,0,-69,-21,-116,-21Z" 
id="f2_f"
transform="scale(0.001,-0.001)" />

<path d="M0,-14L351,1007h73L75,-14Z" 
id="f2_6"
transform="scale(0.001,-0.001)" />

<path d="M377,45c0,0,99,0,147,73c0,0,47,73,47,237c0,0,0,161,-47,233c0,0,-47,72,-147,72c0,0,-97,0,-141,-69c0,0,-44,-69,-44,-236c0,0,0,-169,45,-240c0,0,44,-70,140,-70Zm0,-59c0,0,-158,0,-238,94c0,0,-81,95,-81,274c0,0,0,178,81,272c0,0,80,94,244,94c0,0,160,0,241,-92c0,0,82,-92,82,-274c0,0,0,-368,-329,-368Z" 
id="f2_8"
transform="scale(0.001,-0.001)" />

<path d="M163,0V190H321V0Z" 
id="f1_j"
transform="scale(0.001,-0.001)" />

<path d="M585,0V426c0,0,0,54,-8,98c0,0,-8,44,-27,83c0,0,-19,40,-49,66c0,0,-30,26,-77,41c0,0,-47,15,-108,15H66V836H315c0,0,94,0,166,-20c0,0,71,-20,116,-54c0,0,46,-35,75,-88c0,0,28,-52,40,-112c0,0,12,-60,12,-137V0Z" 
id="f1_a"
transform="scale(0.001,-0.001)" />

<path d="M152,0V473c0,0,0,94,28,161c0,0,29,66,71,95H66V836H463V729H404c0,0,-65,0,-89,-57c0,0,-25,-58,-25,-199V0Z" 
id="f1_o"
transform="scale(0.001,-0.001)" />

<path d="M156,-317V454l139,56V-317ZM505,0L806,729H139V835H967V753L650,0Z" 
id="f1_p"
transform="scale(0.001,-0.001)" />

<path d="M66,0V107H332V555c0,0,0,92,-37,133c0,0,-37,41,-116,41H85V836h94c0,0,153,0,223,-66c0,0,69,-66,69,-231V0Z" 
id="f1_n"
transform="scale(0.001,-0.001)" />

<path d="M179,0V190H336V0Zm0,600V790H336V600Z" 
id="f1_15"
transform="scale(0.001,-0.001)" />

<path d="M44,0V40L172,60V941L44,960v40H794V760H745L721,922c0,0,-83,11,-241,11H316V543H586l23,119h48V354H609L586,475H316V67H513c0,0,193,0,252,12l43,185h49L843,0Z" 
id="f2_d"
transform="scale(0.001,-0.001)" />

<path d="M31,0V33L150,52v956L31,1026v34H274V52L394,33V0Z" 
id="f2_l"
transform="scale(0.001,-0.001)" />

<path d="M32,0V33L151,52V649L52,668v33H275V52L395,33V0ZM201,850c0,0,-32,0,-56,24c0,0,-24,24,-24,56c0,0,0,34,24,58c0,0,24,24,56,24c0,0,34,0,58,-24c0,0,24,-24,24,-58c0,0,0,-32,-24,-56c0,0,-24,-24,-58,-24Z" 
id="f2_4"
transform="scale(0.001,-0.001)" />

<path d="M278,-14c0,0,-52,0,-115,11c0,0,-63,10,-99,23V193H98L134,95c0,0,56,-50,146,-50c0,0,144,0,144,123c0,0,0,91,-114,130l-66,21c0,0,-75,25,-110,50c0,0,-34,26,-53,63c0,0,-18,36,-18,89c0,0,0,92,63,145c0,0,63,54,170,54c0,0,77,0,193,-23V544H454l-32,81c0,0,-39,35,-124,35c0,0,-61,0,-92,-30c0,0,-32,-30,-32,-80c0,0,0,-43,29,-72c0,0,28,-29,86,-48c0,0,110,-38,144,-55c0,0,33,-17,57,-42c0,0,23,-25,36,-57c0,0,13,-32,13,-79c0,0,0,-104,-66,-158c0,0,-66,-53,-195,-53Z" 
id="f2_g"
transform="scale(0.001,-0.001)" />

<path d="M191,-20c0,0,-39,0,-65,25c0,0,-25,27,-25,64c0,0,0,38,26,64c0,0,26,26,64,26c0,0,38,0,64,-26c0,0,26,-26,26,-64c0,0,0,-37,-25,-64c0,0,-26,-25,-65,-25Z" 
id="f2_o"
transform="scale(0.001,-0.001)" />

<path d="M44,0V40L172,60V941L44,960v40H471V960L316,941V65H513c0,0,159,0,234,14l46,208h48L828,0Z" 
id="f2_1h"
transform="scale(0.001,-0.001)" />

<path d="M431,0V33L535,52V499c0,0,0,62,-32,96c0,0,-32,33,-95,33c0,0,-66,0,-163,-22V52L350,33V0H32V33l89,19V649L32,668v33H237l6,-57c0,0,56,32,119,54c0,0,62,22,110,22c0,0,52,0,95,-20c0,0,44,-19,66,-62c0,0,57,32,134,57c0,0,77,25,128,25c0,0,179,0,179,-207V52l90,-19V0H846V33L950,52V499c0,0,0,129,-119,129c0,0,-19,0,-45,-3c0,0,-26,-3,-52,-7c0,0,-25,-4,-49,-8c0,0,-23,-5,-39,-8c0,0,13,-41,13,-89V52L764,33V0Z" 
id="f2_p"
transform="scale(0.001,-0.001)" />

<path d="M249,-14c0,0,-71,0,-107,42c0,0,-35,42,-35,119V639H15v33l93,29l76,159h47V701H391V639H231V161c0,0,0,-48,22,-73c0,0,22,-24,57,-24c0,0,44,0,106,12V26C416,26,389,8,340,-2c0,0,-49,-12,-91,-12Z" 
id="f2_h"
transform="scale(0.001,-0.001)" />

<path d="M112,-5c0,0,-39,0,-97,11V113c0,0,48,-10,77,-10c0,0,53,0,70,42c0,0,17,43,17,164V729H50V836H501c0,0,107,0,179,-25c0,0,72,-25,112,-77c0,0,40,-51,57,-118c0,0,16,-67,16,-164V0H726V454c0,0,0,55,-3,92c0,0,-4,37,-17,75c0,0,-14,38,-38,59c0,0,-24,22,-65,36c0,0,-42,13,-102,13H318V309c0,0,0,-160,-46,-237C272,72,226,-5,112,-5Z" 
id="f1_e"
transform="scale(0.001,-0.001)" />

<path d="M26,0V54L154,74V926L26,945v55H878V746H810L786,908c0,0,-83,10,-241,10H389V551H651l23,111h67V355H674L651,468H389V82H578c0,0,193,0,252,12l43,185h68L927,0Z" 
id="f0_17"
transform="scale(0.001,-0.001)" />

<path d="M30,0V49l76,18V992l-72,18v50H322V67L398,49V0Z" 
id="f0_13"
transform="scale(0.001,-0.001)" />

<path d="M276,-14c0,0,-57,0,-125,13C151,-1,83,10,48,23V214H97l28,-98c0,0,26,-26,69,-44c0,0,42,-17,86,-17c0,0,65,0,97,28c0,0,32,28,32,71c0,0,0,41,-31,65c0,0,-30,25,-133,57c0,0,-108,34,-154,92c0,0,-45,58,-45,143c0,0,0,95,71,152c0,0,71,57,183,57c0,0,77,0,207,-22V518H457l-24,82c0,0,-21,22,-60,35c0,0,-40,14,-75,14c0,0,-53,0,-79,-22c0,0,-26,-22,-26,-59c0,0,0,-40,32,-65c0,0,32,-26,132,-55c0,0,109,-34,155,-89c0,0,45,-55,45,-137c0,0,0,-117,-72,-177c0,0,-72,-59,-209,-59Z" 
id="f0_1l"
transform="scale(0.001,-0.001)" />

<path d="M327,-14c0,0,-101,0,-156,45c0,0,-55,45,-55,131V624H25v48l108,29l87,159H332V701H480V624H332V176c0,0,0,-49,20,-73c0,0,20,-25,53,-25c0,0,40,0,97,12V26c0,0,-22,-15,-76,-27c0,0,-55,-13,-99,-13Z" 
id="f0_s"
transform="scale(0.001,-0.001)" />

<path d="M287,-18c0,0,-194,0,-194,206V634L23,652v49H309V217c0,0,0,-63,26,-98c0,0,27,-35,76,-35c0,0,57,0,113,25V634l-64,18v49H740V67L809,49V0H536L526,61L475,35c0,0,-104,-53,-188,-53Z" 
id="f0_14"
transform="scale(0.001,-0.001)" />

<path d="M139,0V836H485c0,0,206,0,290,-90c0,0,84,-89,84,-294V0H721V473c0,0,0,147,-49,202c0,0,-48,54,-186,54H277V0Z" 
id="f1_g"
transform="scale(0.001,-0.001)" />

<path d="M0,-141L388,1114H514L127,-141Z" 
id="f1_r"
transform="scale(0.001,-0.001)" />

<path d="M399,-14c0,0,-341,0,-341,370c0,0,0,175,87,269c0,0,87,95,249,95c0,0,101,0,220,-23V501H573L541,625c0,0,-62,35,-149,35c0,0,-200,0,-200,-304c0,0,0,-158,61,-225c0,0,61,-67,189,-67c0,0,109,0,189,24V43C631,43,595,16,530,1c0,0,-64,-15,-131,-15Z" 
id="f2_5"
transform="scale(0.001,-0.001)" />

<path d="M382,45c0,0,188,0,188,314c0,0,0,143,-47,213c0,0,-46,69,-141,69c0,0,-87,0,-146,-24V58c0,0,67,-13,146,-13ZM25,-325v35l88,18V649L34,668v33H231l1,-41c0,0,31,27,84,43c0,0,53,17,107,17c0,0,134,0,208,-94c0,0,73,-93,73,-267c0,0,0,-178,-80,-276c0,0,-80,-97,-232,-97c0,0,-84,0,-160,16c0,0,4,-53,4,-84V-272l123,-18v-35Z" 
id="f2_u"
transform="scale(0.001,-0.001)" />

<path d="M460,-325c0,0,-148,79,-231,172c0,0,-84,93,-123,217c0,0,-39,126,-39,304c0,0,0,178,39,303c0,0,39,125,122,217c0,0,82,93,232,172V997c0,0,-91,-52,-145,-134c0,0,-54,-81,-79,-190c0,0,-25,-109,-25,-305c0,0,0,-194,26,-309c0,0,26,-114,82,-193c0,0,56,-79,141,-128v-63Z" 
id="f2_1t"
transform="scale(0.001,-0.001)" />

<path d="M49,-325v63c0,0,85,49,140,128c0,0,56,79,83,194c0,0,26,115,26,308c0,0,0,196,-25,305c0,0,-25,109,-79,190c0,0,-54,82,-145,134v63c0,0,149,-80,232,-172c0,0,83,-92,122,-217c0,0,39,-125,39,-303c0,0,0,-177,-39,-303c0,0,-39,-125,-122,-217c0,0,-83,-93,-232,-173Z" 
id="f2_1u"
transform="scale(0.001,-0.001)" />

<path d="M360,-14L72,649L0,668v33H327V668L216,648L420,164L615,649L504,668v33H764V668L697,652L416,-14Z" 
id="f2_s"
transform="scale(0.001,-0.001)" />

<path d="M41,0V34L426,641H261c0,0,-42,0,-80,-7c0,0,-39,-7,-54,-19L104,515H69V701H586V665L201,60H407c0,0,42,0,89,10c0,0,47,10,66,25l39,147h35L617,0Z" 
id="f2_9"
transform="scale(0.001,-0.001)" />

<path d="M577,-14c0,0,-243,0,-379,132C198,118,63,250,63,488c0,0,0,258,130,391c0,0,131,132,387,132c0,0,156,0,335,-38l5,-218H871L848,884c0,0,-52,32,-121,50c0,0,-69,17,-141,17c0,0,-191,0,-279,-112c0,0,-88,-113,-88,-349c0,0,0,-217,92,-332c0,0,92,-115,268,-115c0,0,85,0,160,20c0,0,76,21,120,55l27,149h49L930,32c0,0,-164,-46,-353,-46Z" 
id="f2_15"
transform="scale(0.001,-0.001)" />

<path d="M211,-20c0,0,-39,0,-64,25c0,0,-26,27,-26,64c0,0,0,38,26,64c0,0,26,26,64,26c0,0,37,0,64,-25c0,0,26,-26,26,-65c0,0,0,-37,-26,-64c0,0,-26,-25,-64,-25Zm0,556c0,0,-38,0,-64,26c0,0,-26,26,-26,64c0,0,0,37,26,64c0,0,25,27,64,27c0,0,38,0,64,-27c0,0,26,-27,26,-64c0,0,0,-38,-26,-64c0,0,-27,-26,-64,-26Z" 
id="f2_10"
transform="scale(0.001,-0.001)" />

<path d="M44,0V40L172,60V941L44,960v40H445V960L316,941V549H787V941L659,960v40h400V960L930,941V60L1059,40V0H659V40L787,60V481H316V60L445,40V0Z" 
id="f2_11"
transform="scale(0.001,-0.001)" />

<path d="M58,-234v58c0,0,131,42,131,125c0,0,0,15,-11,27c0,0,-11,12,-38,25C140,1,89,27,89,75c0,0,0,40,25,61c0,0,26,21,65,21c0,0,48,0,77,-34c0,0,30,-34,30,-86c0,0,0,-101,-60,-170c0,0,-59,-69,-168,-101Z" 
id="f2_19"
transform="scale(0.001,-0.001)" />

<path d="M442,0V33l93,19V504c0,0,0,129,-124,129c0,0,-70,0,-168,-22V52L338,33V0H31V33l88,19v956L15,1026v34H243V756c0,0,0,-77,-5,-112c0,0,54,31,122,53c0,0,68,23,115,23c0,0,91,0,137,-53c0,0,47,-53,47,-154V52L744,33V0Z" 
id="f2_x"
transform="scale(0.001,-0.001)" />

<path d="M148,-329c0,0,-58,0,-114,13v151H69l24,-71c0,0,23,-17,64,-17c0,0,39,0,72,22c0,0,33,23,60,67c0,0,27,44,68,157L90,649L19,668v33H344V668L233,648L423,158L606,649L497,668v33H758V668L685,652L411,-43c0,0,-48,-124,-84,-177c0,0,-36,-54,-79,-82c0,0,-44,-27,-100,-27Z" 
id="f2_7"
transform="scale(0.001,-0.001)" />

<path d="M383,64c0,0,44,0,87,7c0,0,43,7,65,17V645c0,0,-67,13,-152,13c0,0,-194,0,-194,-309c0,0,0,-143,48,-214c0,0,47,-71,146,-71Zm56,-389v35l96,18V-77c0,0,0,73,7,124c0,0,-79,-61,-200,-61c0,0,-287,0,-287,362c0,0,0,180,81,276c0,0,81,96,237,96c0,0,84,0,166,-18l67,33h53V-272l77,-18v-35Z" 
id="f2_1g"
transform="scale(0.001,-0.001)" />

<path d="M32,0V34L151,52V649L52,668v33H275V52L395,34V0Zm71,835v24l146,203H408v-27L144,835Z" 
id="f2_q"
transform="scale(0.001,-0.001)" />

<path d="M306,-20c0,0,-39,0,-65,25c0,0,-25,27,-25,64c0,0,0,38,26,64c0,0,26,26,64,26c0,0,37,0,63,-25c0,0,26,-26,26,-65c0,0,0,-37,-25,-64c0,0,-26,-25,-64,-25ZM269,261L249,510l107,22c0,0,64,13,93,65c0,0,29,52,29,152c0,0,0,109,-39,154c0,0,-40,45,-140,45c0,0,-83,0,-145,-36L128,789H79V979c0,0,118,32,220,32c0,0,316,0,316,-253c0,0,0,-121,-60,-195c0,0,-60,-74,-175,-98l-42,-9L328,261Z" 
id="f2_17"
transform="scale(0.001,-0.001)" />

<path d="M617,0L251,860V60L385,40V0H44V40L172,60V941L44,960v40H347L672,239l355,761h287V960L1185,941V60L1314,40V0H908V40l134,20V859L643,0Z" 
id="f2_1v"
transform="scale(0.001,-0.001)" />

<path d="M410,-14c0,0,-80,0,-162,14c0,0,-81,14,-144,38V270h48L178,134c0,0,28,-35,95,-62c0,0,68,-27,134,-27c0,0,104,0,163,53c0,0,58,54,58,148c0,0,0,54,-23,89c0,0,-22,35,-59,59c0,0,-37,24,-84,41c0,0,-47,17,-97,34c0,0,-49,17,-96,38c0,0,-47,21,-84,53c0,0,-37,32,-60,79c0,0,-23,48,-23,117c0,0,0,119,90,187c0,0,89,68,248,68c0,0,121,0,263,-32V771H654L628,893c0,0,-76,55,-188,55c0,0,-100,0,-156,-40c0,0,-56,-41,-56,-112c0,0,0,-49,22,-81c0,0,23,-32,60,-55c0,0,37,-22,84,-39c0,0,48,-16,97,-34c0,0,50,-17,97,-39c0,0,48,-22,85,-56c0,0,36,-34,59,-83c0,0,23,-49,23,-120c0,0,0,-145,-89,-224c0,0,-89,-79,-256,-79Z" 
id="f2_18"
transform="scale(0.001,-0.001)" />

<path d="M35,0V34l84,18V649L35,668v33H235l7,-56c0,0,57,32,122,54c0,0,65,21,108,21c0,0,91,0,137,-53c0,0,47,-53,47,-154V52L741,34V0H439V34l93,18V500c0,0,0,62,-30,97c0,0,-31,36,-94,36c0,0,-67,0,-165,-22V52L338,34V0ZM481,834c0,0,-36,0,-66,16c0,0,-30,16,-57,36c0,0,-27,20,-52,36c0,0,-25,16,-49,16c0,0,-24,0,-39,-9c0,0,-14,-9,-23,-26c0,0,-8,-17,-13,-54H143c0,0,11,180,146,180c0,0,36,0,66,-16c0,0,30,-16,57,-35c0,0,27,-20,52,-36c0,0,25,-16,49,-16c0,0,32,0,50,18c0,0,18,19,25,70h39c0,0,-12,-180,-146,-180Z" 
id="f2_1e"
transform="scale(0.001,-0.001)" />

<path d="M284,67c0,0,51,0,88,12c0,0,37,11,74,29V357l-98,-3c0,0,-100,-3,-135,-38c0,0,-35,-36,-35,-118c0,0,0,-131,106,-131ZM233,-14c0,0,-179,0,-179,208c0,0,0,70,27,116c0,0,27,46,87,70c0,0,60,24,173,27l105,3V519c0,0,0,73,-26,107c0,0,-27,34,-82,34c0,0,-75,0,-137,-35L176,538H134V691c0,0,121,26,213,26c0,0,115,0,169,-47c0,0,54,-47,54,-144V52L657,34V0H465L451,70c0,0,-85,-84,-218,-84Zm22,849v24l146,203H560v-27L296,835Z" 
id="f2_16"
transform="scale(0.001,-0.001)" />

<path d="M495,413c0,0,0,133,-34,190c0,0,-34,57,-105,57c0,0,-78,0,-119,-62c0,0,-42,-63,-42,-185ZM374,-14c0,0,-163,0,-239,87c0,0,-75,88,-75,283c0,0,0,183,77,274c0,0,76,90,219,90c0,0,269,0,269,-306V353H194V339c0,0,0,-103,23,-160c0,0,22,-57,70,-86c0,0,47,-30,124,-30c0,0,40,0,96,6c0,0,55,7,91,15V43C598,43,562,19,500,2c0,0,-61,-16,-126,-16ZM285,835v24l146,203H590v-27L326,835Z" 
id="f2_k"
transform="scale(0.001,-0.001)" />

<path d="M557,-14c0,0,-199,0,-298,89c0,0,-99,90,-99,255V941L32,960v40H432V960L304,941V341c0,0,0,-273,264,-273c0,0,144,0,220,68c0,0,77,68,77,202V941L730,960v40h341V960L943,941V344c0,0,0,-180,-99,-269c0,0,-99,-89,-287,-89Z" 
id="f2_n"
transform="scale(0.001,-0.001)" />

<path d="M551,45c0,0,171,0,252,106c0,0,82,107,82,349c0,0,0,241,-82,346c0,0,-82,105,-252,105c0,0,-171,0,-252,-106c0,0,-80,-106,-80,-345c0,0,0,-241,80,-348c0,0,81,-107,252,-107ZM930,-246c0,0,-53,0,-94,17c0,0,-41,18,-83,56c0,0,-41,39,-139,162c0,0,-27,-3,-63,-3c0,0,-239,0,-364,130C187,116,63,247,63,500c0,0,0,511,488,511c0,0,240,0,365,-129c0,0,125,-130,125,-382c0,0,0,-366,-265,-475l37,-45c0,0,66,-82,112,-117c0,0,46,-35,91,-35l61,2v-49c0,0,-17,-7,-64,-17c0,0,-48,-10,-83,-10Z" 
id="f2_1w"
transform="scale(0.001,-0.001)" />

<path d="M64,0V34L168,59V639H47v36l121,29v49c0,0,0,155,61,239c0,0,62,84,173,84c0,0,58,0,107,-15V908H472l-33,92c0,0,-26,16,-62,16c0,0,-47,0,-66,-42c0,0,-19,-42,-19,-157V701H478V639H292V59L443,34V0Z" 
id="f2_t"
transform="scale(0.001,-0.001)" />

<path d="M536,63c0,0,127,0,191,54c0,0,63,54,63,168c0,0,0,105,-70,154c0,0,-70,49,-225,49H316V67c0,0,103,-4,220,-4ZM480,555c0,0,121,0,178,48c0,0,57,48,57,155c0,0,0,91,-58,133c0,0,-57,42,-186,42H316V555ZM554,-4L235,0H44V40L172,60V941L44,960v40H501c0,0,191,0,279,-56c0,0,88,-56,88,-179c0,0,0,-88,-55,-149c0,0,-54,-62,-151,-83c0,0,135,-14,209,-79c0,0,73,-65,73,-166c0,0,0,-144,-99,-219C845,69,745,-4,554,-4Z" 
id="f2_1q"
transform="scale(0.001,-0.001)" />

<path d="M868,0L251,900V60L385,40V0H44V40L172,60V941L44,960v40H347L862,259V941L727,960v40h341V960L940,941V0Z" 
id="f2_1a"
transform="scale(0.001,-0.001)" />

<path d="M235,0V40L394,60V936H356c0,0,-189,0,-258,-15L78,766H28v234H908V766H857L837,921c0,0,-22,5,-98,9c0,0,-75,4,-165,4H538V60L697,40V0Z" 
id="f2_1l"
transform="scale(0.001,-0.001)" />

<path d="M394,460c0,0,126,0,186,57c0,0,60,57,60,187c0,0,0,123,-57,176c0,0,-58,53,-194,53H316V460ZM54,0V40L172,60V941L44,960v40H421c0,0,368,0,368,-295c0,0,0,-153,-93,-233c0,0,-93,-80,-267,-80H316V60L475,40V0Z" 
id="f2_1s"
transform="scale(0.001,-0.001)" />

<path d="M138,-7c0,0,-34,0,-72,10V129c0,0,25,-8,52,-8c0,0,33,0,58,5c0,0,26,5,58,24c0,0,33,20,53,54c0,0,21,34,36,97c0,0,15,64,15,151c0,0,0,113,-19,173c0,0,-19,60,-56,82c0,0,-38,22,-107,22H89V836h72c0,0,165,0,240,-91c0,0,76,-91,76,-293c0,0,0,-107,26,-227c0,0,25,-119,83,-225H437c0,0,-43,101,-62,184c0,0,-24,-60,-51,-99c0,0,-26,-38,-56,-58C268,27,239,7,209,0c0,0,-30,-7,-71,-7Z" 
id="f1_k"
transform="scale(0.001,-0.001)" />

<path d="M248,0L521,658H66v429H313V836l493,-1V716L504,0Z" 
id="f3_n"
transform="scale(0.001,-0.001)" />

<path d="M102,250V836H349V351L102,250Z" 
id="f3_d"
transform="scale(0.001,-0.001)" />

<path d="M154,-13c0,0,-38,0,-85,9V198c0,0,58,-15,103,-15c0,0,84,0,118,60c0,0,35,61,35,206c0,0,0,66,-7,105c0,0,-6,39,-24,63c0,0,-17,25,-44,33c0,0,-27,8,-73,8H66V836H225c0,0,198,0,275,-115c0,0,56,-84,65,-264c0,0,3,-55,3,-148c0,0,0,-177,71,-309L393,1c0,0,-53,130,-54,141c0,0,-28,-90,-65,-123c0,0,-38,-32,-120,-32Z" 
id="f3_o"
transform="scale(0.001,-0.001)" />

<path d="M534,0V425c0,0,0,109,-41,171c0,0,-41,62,-140,62H66V836H352c0,0,99,0,174,-20c0,0,75,-20,123,-55c0,0,48,-35,78,-87c0,0,30,-53,42,-113c0,0,12,-60,12,-136V0Z" 
id="f3_4"
transform="scale(0.001,-0.001)" />

<path d="M173,-6C173,-6,61,-6,15,9V177c0,0,73,-10,82,-10c0,0,37,0,52,30c0,0,14,29,14,116V658H18V836H516c0,0,262,0,341,-145c0,0,48,-89,48,-242V0H658V450c0,0,0,131,-37,171c0,0,-34,37,-105,37H411V313c0,0,0,-189,-67,-258C344,55,285,-6,173,-6Z" 
id="f3_p"
transform="scale(0.001,-0.001)" />

<path d="M180,0V198H433V918L173,864v196l258,54H705V198H958V0Z" 
id="f3_q"
transform="scale(0.001,-0.001)" />

<path d="M445,-20c0,0,-86,0,-172,13c0,0,-86,13,-170,40V255c0,0,80,-40,160,-60c0,0,79,-21,156,-21c0,0,114,0,174,40c0,0,61,39,61,113c0,0,0,76,-62,115c0,0,-62,39,-184,39H293V666H414c0,0,108,0,161,34c0,0,53,34,53,103c0,0,0,65,-52,100c0,0,-51,35,-145,35c0,0,-69,0,-140,-16c0,0,-70,-15,-140,-46v210c0,0,85,24,168,36c0,0,83,12,164,12c0,0,217,0,325,-71c0,0,107,-71,107,-215c0,0,0,-98,-51,-160c0,0,-52,-62,-152,-88c0,0,112,-29,171,-101c0,0,59,-72,59,-183c0,0,0,-165,-127,-251c0,0,-127,-85,-370,-85Z" 
id="f3_s"
transform="scale(0.001,-0.001)" />

<path d="M139,-317V836H278V-317Z" 
id="f1_h"
transform="scale(0.001,-0.001)" />

<path d="M117,-176L179,62V190H336V62L213,-176Z" 
id="f1_s"
transform="scale(0.001,-0.001)" />

<path d="M74,357V479H476V357Z" 
id="f1_12"
transform="scale(0.001,-0.001)" />

<path d="M64,-325c0,0,-46,0,-107,14v148H-8l19,-81c0,0,25,-21,62,-21c0,0,44,0,67,47c0,0,22,47,22,152V649L57,668v33H286V-28c0,0,0,-146,-57,-221c0,0,-56,-76,-165,-76ZM213,850c0,0,-34,0,-58,24c0,0,-24,24,-24,56c0,0,0,34,24,58c0,0,24,24,58,24c0,0,32,0,56,-24c0,0,24,-24,24,-58c0,0,0,-32,-24,-56c0,0,-24,-24,-56,-24Z" 
id="f2_1b"
transform="scale(0.001,-0.001)" />

<path d="M190,0V127H436V977L168,923v137l267,54H586V127H832V0Z" 
id="f1_13"
transform="scale(0.001,-0.001)" />

<path d="M414,-20c0,0,-70,0,-144,13c0,0,-75,13,-154,40V179c0,0,63,-36,138,-55c0,0,74,-18,156,-18c0,0,142,0,216,55c0,0,74,56,74,163c0,0,0,98,-69,153c0,0,-69,56,-192,56H309V657H445c0,0,111,0,170,44c0,0,59,45,59,128c0,0,0,86,-61,132c0,0,-61,46,-174,46c0,0,-62,0,-133,-13c0,0,-71,-14,-156,-42v134c0,0,85,24,160,36c0,0,75,12,142,12c0,0,171,0,271,-78c0,0,100,-78,100,-211c0,0,0,-92,-53,-156c0,0,-52,-64,-150,-89c0,0,108,-23,169,-96c0,0,61,-73,61,-180c0,0,0,-165,-114,-255c0,0,-113,-89,-322,-89Z" 
id="f1_16"
transform="scale(0.001,-0.001)" />


</defs>
</svg>