<?xml version="1.0" encoding="UTF-8" standalone="no"?>
<!DOCTYPE svg PUBLIC "-//W3C//DTD SVG 1.1//EN"
"http://www.w3.org/Graphics/SVG/1.1/DTD/svg11.dtd">
<svg viewBox="0 0 909 1286" version="1.1" xmlns="http://www.w3.org/2000/svg" xmlns:xlink="http://www.w3.org/1999/xlink">
<defs>
<clipPath id="c0_7"><path d="M0,1286.2V0H909.4V1286.2Z" /></clipPath>
<style type="text/css"><![CDATA[
.g0_7{
fill: none;
stroke: #000000;
stroke-width: 0.7638889;
stroke-linecap: butt;
stroke-linejoin: round;
}
]]></style>
</defs>
<g clip-path="url(#c0_7)">
<g fill="#000000" >
<use xlink:href="#f0_z" transform="matrix(12,0,0,12,137.8,127.1)" />
<use xlink:href="#f0_4" transform="matrix(12,0,0,12,149.6,127.1)" />
<use xlink:href="#f0_h" transform="matrix(12,0,0,12,159.9,127.1)" />
<use xlink:href="#f0_n" transform="matrix(12,0,0,12,170.8,127.1)" />
<use xlink:href="#f0_k" transform="matrix(12,0,0,12,183.9,127.1)" />
<use xlink:href="#f0_2" transform="matrix(12,0,0,12,189.7,127.1)" />
<use xlink:href="#f0_3" transform="matrix(12,0,0,12,202,127.1)" />
<use xlink:href="#f0_n" transform="matrix(12,0,0,12,206.1,127.1)" />
<use xlink:href="#f0_6" transform="matrix(12,0,0,12,213.4,127.1)" />
<use xlink:href="#f0_c" transform="matrix(12,0,0,12,218.4,127.1)" />
<use xlink:href="#f0_j" transform="matrix(12,0,0,12,231.4,127.1)" />
<use xlink:href="#f0_4" transform="matrix(12,0,0,12,243.6,127.1)" />
<use xlink:href="#f0_e" transform="matrix(12,0,0,12,254,127.1)" />
<use xlink:href="#f0_2" transform="matrix(12,0,0,12,271.7,127.1)" />
<use xlink:href="#f0_3" transform="matrix(12,0,0,12,283.9,127.1)" />
<use xlink:href="#f0_r" transform="matrix(12,0,0,12,288,127.1)" />
<use xlink:href="#f0_4" transform="matrix(12,0,0,12,301,127.1)" />
<use xlink:href="#f0_f" transform="matrix(12,0,0,12,311.4,127.1)" />
<use xlink:href="#f0_o" transform="matrix(12,0,0,12,322.8,127.1)" />
<use xlink:href="#f0_i" transform="matrix(12,0,0,12,339.2,127.1)" />
<use xlink:href="#f0_g" transform="matrix(12,0,0,12,351.2,127.1)" />
<use xlink:href="#f0_b" transform="matrix(12,0,0,12,361.2,127.1)" />
<use xlink:href="#f0_a" transform="matrix(12,0,0,12,373.7,127.1)" />
<use xlink:href="#f0_4" transform="matrix(12,0,0,12,390,127.1)" />
<use xlink:href="#f0_o" transform="matrix(12,0,0,12,400.4,127.1)" />
<use xlink:href="#f0_5" transform="matrix(12,0,0,12,410.9,127.1)" />
<use xlink:href="#f0_c" transform="matrix(12,0,0,12,420.6,127.1)" />
<use xlink:href="#f0_3" transform="matrix(12,0,0,12,439.4,127.1)" />
<use xlink:href="#f0_f" transform="matrix(12,0,0,12,443.5,127.1)" />
<use xlink:href="#f0_5" transform="matrix(12,0,0,12,454.9,127.1)" />
<use xlink:href="#f0_e" transform="matrix(12,0,0,12,470.3,127.1)" />
<use xlink:href="#f0_l" transform="matrix(12,0,0,12,482.3,127.1)" />
<use xlink:href="#f0_6" transform="matrix(12,0,0,12,494.2,127.1)" />
<use xlink:href="#f0_c" transform="matrix(12,0,0,12,499.2,127.1)" />
<use xlink:href="#f0_f" transform="matrix(12,0,0,12,512.2,127.1)" />
<use xlink:href="#f0_j" transform="matrix(12,0,0,12,529.5,127.1)" />
<use xlink:href="#f0_3" transform="matrix(12,0,0,12,541.8,127.1)" />
<use xlink:href="#f0_e" transform="matrix(12,0,0,12,545.9,127.1)" />
<use xlink:href="#f0_2" transform="matrix(12,0,0,12,563.6,127.1)" />
<use xlink:href="#f0_3" transform="matrix(12,0,0,12,575.7,127.1)" />
<use xlink:href="#f0_a" transform="matrix(12,0,0,12,579.8,127.1)" />
<use xlink:href="#f0_3" transform="matrix(12,0,0,12,590.2,127.1)" />
<use xlink:href="#f0_b" transform="matrix(12,0,0,12,594.3,127.1)" />
<use xlink:href="#f0_e" transform="matrix(12,0,0,12,606.8,127.1)" />
<use xlink:href="#f0_a" transform="matrix(12,0,0,12,624.6,127.1)" />
<use xlink:href="#f0_5" transform="matrix(12,0,0,12,635,127.1)" />
<use xlink:href="#f0_i" transform="matrix(12,0,0,12,650.5,127.1)" />
<use xlink:href="#f0_3" transform="matrix(12,0,0,12,662.5,127.1)" />
<use xlink:href="#f0_3" transform="matrix(12,0,0,12,666.6,127.1)" />
<use xlink:href="#f0_s" transform="matrix(12,0,0,12,670.7,127.1)" />
<use xlink:href="#f0_e" transform="matrix(12,0,0,12,678.2,127.1)" />
<use xlink:href="#f0_3" transform="matrix(12,0,0,12,696.1,127.1)" />
<use xlink:href="#f0_5" transform="matrix(12,0,0,12,700.2,127.1)" />
<use xlink:href="#f0_o" transform="matrix(12,0,0,12,715.7,127.1)" />
<use xlink:href="#f0_a" transform="matrix(12,0,0,12,726.3,127.1)" />
<use xlink:href="#f0_2" transform="matrix(12,0,0,12,742.5,127.1)" />
<use xlink:href="#f0_3" transform="matrix(12,0,0,12,754.5,127.1)" />
<use xlink:href="#f0_c" transform="matrix(12,0,0,12,758.6,127.1)" />
<use xlink:href="#f0_u" transform="matrix(12,0,0,12,137.8,148.5)" />
<use xlink:href="#f0_3" transform="matrix(12,0,0,12,149.7,148.5)" />
<use xlink:href="#f0_l" transform="matrix(12,0,0,12,153.8,148.5)" />
<use xlink:href="#f0_o" transform="matrix(12,0,0,12,165.7,148.5)" />
<use xlink:href="#f0_i" transform="matrix(12,0,0,12,176.3,148.5)" />
<use xlink:href="#f0_2" transform="matrix(12,0,0,12,195.6,148.5)" />
<use xlink:href="#f0_3" transform="matrix(12,0,0,12,207.8,148.5)" />
<use xlink:href="#f0_a" transform="matrix(12,0,0,12,211.9,148.5)" />
<use xlink:href="#f0_a" transform="matrix(12,0,0,12,222.3,148.5)" />
<use xlink:href="#f0_5" transform="matrix(12,0,0,12,232.7,148.5)" />
<use xlink:href="#f0_e" transform="matrix(12,0,0,12,242.4,148.5)" />
<use xlink:href="#f0_3" transform="matrix(12,0,0,12,261.4,148.5)" />
<use xlink:href="#f0_f" transform="matrix(12,0,0,12,265.5,148.5)" />
<use xlink:href="#f0_a" transform="matrix(12,0,0,12,277,148.5)" />
<use xlink:href="#f0_e" transform="matrix(12,0,0,12,294.6,148.5)" />
<use xlink:href="#f0_j" transform="matrix(12,0,0,12,306.6,148.5)" />
<use xlink:href="#f0_3" transform="matrix(12,0,0,12,318.8,148.5)" />
<use xlink:href="#f0_4" transform="matrix(12,0,0,12,322.8,148.5)" />
<use xlink:href="#f0_r" transform="matrix(12,0,0,12,333.1,148.5)" />
<use xlink:href="#f0_p" transform="matrix(12,0,0,12,353.4,148.5)" />
<use xlink:href="#f0_j" transform="matrix(12,0,0,12,363.2,148.5)" />
<use xlink:href="#f0_9" transform="matrix(12,0,0,12,382.7,148.5)" />
<use xlink:href="#f0_i" transform="matrix(12,0,0,12,388.5,148.5)" />
<use xlink:href="#f0_6" transform="matrix(12,0,0,12,400.6,148.5)" />
<use xlink:href="#f0_5" transform="matrix(12,0,0,12,405.6,148.5)" />
<use xlink:href="#f0_o" transform="matrix(12,0,0,12,415.2,148.5)" />
<use xlink:href="#f0_6" transform="matrix(12,0,0,12,425.7,148.5)" />
<use xlink:href="#f0_t" transform="matrix(12,0,0,12,430.6,148.5)" />
<use xlink:href="#f0_b" transform="matrix(12,0,0,12,442.5,148.5)" />
<use xlink:href="#f0_e" transform="matrix(12,0,0,12,462.4,148.5)" />
<use xlink:href="#f0_a" transform="matrix(12,0,0,12,474.3,148.5)" />
<use xlink:href="#f0_3" transform="matrix(12,0,0,12,484.7,148.5)" />
<use xlink:href="#f0_u" transform="matrix(12,0,0,12,488.8,148.5)" />
<use xlink:href="#f0_i" transform="matrix(12,0,0,12,500.7,148.5)" />
<use xlink:href="#f0_o" transform="matrix(12,0,0,12,512.7,148.5)" />
<use xlink:href="#f0_i" transform="matrix(12,0,0,12,530.4,148.5)" />
<use xlink:href="#f0_6" transform="matrix(12,0,0,12,542.5,148.5)" />
<use xlink:href="#f0_j" transform="matrix(12,0,0,12,547.5,148.5)" />
<use xlink:href="#f0_4" transform="matrix(12,0,0,12,559.7,148.5)" />
<use xlink:href="#f0_n" transform="matrix(12,0,0,12,570.1,148.5)" />
<use xlink:href="#f0_e" transform="matrix(12,0,0,12,577.4,148.5)" />
<use xlink:href="#f0_2" transform="matrix(12,0,0,12,596.5,148.5)" />
<use xlink:href="#f0_3" transform="matrix(12,0,0,12,608.7,148.5)" />
<use xlink:href="#f0_a" transform="matrix(12,0,0,12,612.8,148.5)" />
<use xlink:href="#f0_3" transform="matrix(12,0,0,12,623.2,148.5)" />
<use xlink:href="#f0_b" transform="matrix(12,0,0,12,627.2,148.5)" />
<use xlink:href="#f0_e" transform="matrix(12,0,0,12,647,148.5)" />
<use xlink:href="#f0_b" transform="matrix(12,0,0,12,658.9,148.5)" />
<use xlink:href="#f0_5" transform="matrix(12,0,0,12,671.4,148.5)" />
<use xlink:href="#f0_a" transform="matrix(12,0,0,12,688.2,148.5)" />
<use xlink:href="#f0_c" transform="matrix(12,0,0,12,698.6,148.5)" />
<use xlink:href="#f0_r" transform="matrix(12,0,0,12,718.9,148.5)" />
<use xlink:href="#f0_3" transform="matrix(12,0,0,12,731.9,148.5)" />
<use xlink:href="#f0_i" transform="matrix(12,0,0,12,735.8,148.5)" />
<use xlink:href="#f0_m" transform="matrix(12,0,0,12,747.9,148.5)" />
<use xlink:href="#f0_i" transform="matrix(12,0,0,12,759.3,148.5)" />
<use xlink:href="#f0_k" transform="matrix(12,0,0,12,679.6,169.9)" />
<use xlink:href="#f0_e" transform="matrix(12,0,0,12,685.4,169.9)" />
<use xlink:href="#f0_n" transform="matrix(12,0,0,12,697.3,169.9)" />
<use xlink:href="#f0_6" transform="matrix(12,0,0,12,704.6,169.9)" />
<use xlink:href="#f0_5" transform="matrix(12,0,0,12,709.6,169.9)" />
<use xlink:href="#f0_n" transform="matrix(12,0,0,12,719.3,169.9)" />
<use xlink:href="#f0_e" transform="matrix(12,0,0,12,732.5,169.9)" />
<use xlink:href="#f0_3" transform="matrix(12,0,0,12,744.5,169.9)" />
<use xlink:href="#f0_3" transform="matrix(12,0,0,12,748.6,169.9)" />
<use xlink:href="#f0_s" transform="matrix(12,0,0,12,752.7,169.9)" />
<use xlink:href="#f0_e" transform="matrix(12,0,0,12,760.1,169.9)" />
</g>
</g>
<path d="M128.6,194H780.8M128.6,216.1H780.8M128.6,238.3H780.8M128.6,260.4H780.8M128.9,193.6v67.2M291.8,193.6v67.2M454.7,193.6v67.2M617.5,193.6v67.2M780.4,193.6v67.2" class="g0_7" />
<g clip-path="url(#c0_7)">
<g fill="#000000" >
<use xlink:href="#f1_3" transform="matrix(11,0,0,11,626.4,209.9)" />
<use xlink:href="#f1_2" transform="matrix(11,0,0,11,631,209.9)" />
<use xlink:href="#f1_3" transform="matrix(11,0,0,11,639.4,209.9)" />
<use xlink:href="#f1_9" transform="matrix(11,0,0,11,644.1,209.9)" />
<use xlink:href="#f1_d" transform="matrix(11,0,0,11,652.5,209.9)" />
<use xlink:href="#f1_e" transform="matrix(11,0,0,11,665.5,209.9)" />
<use xlink:href="#f0_e" transform="matrix(12,0,0,12,537.3,211.3)" />
<use xlink:href="#f0_17" transform="matrix(12,0,0,12,550.3,211.3)" />
<use xlink:href="#f0_b" transform="matrix(12,0,0,12,549.2,211.3)" />
<use xlink:href="#f0_18" transform="matrix(12,0,0,12,561.7,211.3)" />
<use xlink:href="#f0_6" transform="matrix(12,0,0,12,561.7,211.3)" />
<use xlink:href="#f0_j" transform="matrix(12,0,0,12,566.7,211.3)" />
<use xlink:href="#f0_3" transform="matrix(12,0,0,12,579,211.3)" />
<use xlink:href="#f0_1c" transform="matrix(12,0,0,12,584,211.3)" />
<use xlink:href="#f0_g" transform="matrix(12,0,0,12,583.1,211.3)" />
<use xlink:href="#f0_3" transform="matrix(12,0,0,12,593,211.3)" />
<use xlink:href="#f0_1c" transform="matrix(12,0,0,12,597.9,211.3)" />
<use xlink:href="#f0_j" transform="matrix(12,0,0,12,597.1,211.3)" />
<use xlink:href="#f1_4" transform="matrix(11,0,0,11,300.7,209.9)" />
<use xlink:href="#f1_7" transform="matrix(11,0,0,11,307.1,209.9)" />
<use xlink:href="#f1_6" transform="matrix(11,0,0,11,314.5,209.9)" />
<use xlink:href="#f1_3" transform="matrix(11,0,0,11,320.2,209.9)" />
<use xlink:href="#f1_9" transform="matrix(11,0,0,11,324.9,209.9)" />
<use xlink:href="#f0_18" transform="matrix(12,0,0,12,252.4,211.3)" />
<use xlink:href="#f0_6" transform="matrix(12,0,0,12,252.4,211.3)" />
<use xlink:href="#f0_3" transform="matrix(12,0,0,12,257.4,211.3)" />
<use xlink:href="#f0_1d" transform="matrix(12,0,0,12,260.3,211.3)" />
<use xlink:href="#f0_4" transform="matrix(12,0,0,12,261.5,211.3)" />
<use xlink:href="#f0_16" transform="matrix(12,0,0,12,273,211.3)" />
<use xlink:href="#f0_t" transform="matrix(12,0,0,12,271.7,211.3)" />
<use xlink:href="#f1_5" transform="matrix(11,0,0,11,626.4,232.1)" />
<use xlink:href="#f1_9" transform="matrix(11,0,0,11,633.9,232.1)" />
<use xlink:href="#f1_d" transform="matrix(11,0,0,11,642.1,232.1)" />
<use xlink:href="#f1_a" transform="matrix(11,0,0,11,655.2,232.1)" />
<use xlink:href="#f1_c" transform="matrix(11,0,0,11,663.6,232.1)" />
<use xlink:href="#f1_8" transform="matrix(11,0,0,11,672,232.1)" />
<use xlink:href="#f1_e" transform="matrix(11,0,0,11,676.8,232.1)" />
<use xlink:href="#f1_2" transform="matrix(11,0,0,11,684.2,232.1)" />
<use xlink:href="#f1_9" transform="matrix(11,0,0,11,692.6,232.1)" />
<use xlink:href="#f1_6" transform="matrix(11,0,0,11,700.9,232.1)" />
<use xlink:href="#f1_e" transform="matrix(11,0,0,11,706.5,232.1)" />
<use xlink:href="#f0_e" transform="matrix(12,0,0,12,513.5,233.4)" />
<use xlink:href="#f0_17" transform="matrix(12,0,0,12,524.2,233.4)" />
<use xlink:href="#f0_4" transform="matrix(12,0,0,12,525.4,233.4)" />
<use xlink:href="#f0_18" transform="matrix(12,0,0,12,535.6,233.4)" />
<use xlink:href="#f0_6" transform="matrix(12,0,0,12,535.6,233.4)" />
<use xlink:href="#f0_g" transform="matrix(12,0,0,12,540.6,233.4)" />
<use xlink:href="#f0_17" transform="matrix(12,0,0,12,551,233.4)" />
<use xlink:href="#f0_l" transform="matrix(12,0,0,12,550.6,233.4)" />
<use xlink:href="#f0_1b" transform="matrix(12,0,0,12,557,231.3)" />
<use xlink:href="#f0_6" transform="matrix(12,0,0,12,562.5,233.4)" />
<use xlink:href="#f0_1b" transform="matrix(12,0,0,12,568.6,233.4)" />
<use xlink:href="#f0_f" transform="matrix(12,0,0,12,567.6,233.4)" />
<use xlink:href="#f0_1d" transform="matrix(12,0,0,12,580.1,233.4)" />
<use xlink:href="#f0_b" transform="matrix(12,0,0,12,579,233.4)" />
<use xlink:href="#f0_18" transform="matrix(12,0,0,12,591.4,233.4)" />
<use xlink:href="#f0_6" transform="matrix(12,0,0,12,591.4,233.4)" />
<use xlink:href="#f0_r" transform="matrix(12,0,0,12,596.4,233.4)" />
<use xlink:href="#f1_5" transform="matrix(11,0,0,11,300.7,232.1)" />
<use xlink:href="#f1_9" transform="matrix(11,0,0,11,308.1,232.1)" />
<use xlink:href="#f1_i" transform="matrix(11,0,0,11,316.5,232.1)" />
<use xlink:href="#f1_8" transform="matrix(11,0,0,11,324.8,232.1)" />
<use xlink:href="#f1_3" transform="matrix(11,0,0,11,329.5,232.1)" />
<use xlink:href="#f1_i" transform="matrix(11,0,0,11,334.2,232.1)" />
<use xlink:href="#f1_c" transform="matrix(11,0,0,11,342.6,232.1)" />
<use xlink:href="#f1_e" transform="matrix(11,0,0,11,351,232.1)" />
<use xlink:href="#f1_5" transform="matrix(11,0,0,11,358.4,232.1)" />
<use xlink:href="#f1_3" transform="matrix(11,0,0,11,365.8,232.1)" />
<use xlink:href="#f1_y" transform="matrix(11,0,0,11,370.5,232.1)" />
<use xlink:href="#f1_i" transform="matrix(11,0,0,11,378.9,232.1)" />
<use xlink:href="#f0_q" transform="matrix(12,0,0,12,191.9,233.4)" />
<use xlink:href="#f0_18" transform="matrix(12,0,0,12,196.8,233.4)" />
<use xlink:href="#f0_6" transform="matrix(12,0,0,12,196.8,233.4)" />
<use xlink:href="#f0_3" transform="matrix(12,0,0,12,201.8,233.4)" />
<use xlink:href="#f0_1d" transform="matrix(12,0,0,12,207.1,233.4)" />
<use xlink:href="#f0_t" transform="matrix(12,0,0,12,205.9,233.4)" />
<use xlink:href="#f0_17" transform="matrix(12,0,0,12,218.6,233.4)" />
<use xlink:href="#f0_j" transform="matrix(12,0,0,12,217.8,233.4)" />
<use xlink:href="#f0_1b" transform="matrix(12,0,0,12,224.6,231.3)" />
<use xlink:href="#f0_6" transform="matrix(12,0,0,12,230.1,233.4)" />
<use xlink:href="#f0_n" transform="matrix(12,0,0,12,235.1,233.4)" />
<use xlink:href="#f0_3" transform="matrix(12,0,0,12,242.4,233.4)" />
<use xlink:href="#f0_1c" transform="matrix(12,0,0,12,246.9,233.4)" />
<use xlink:href="#f0_l" transform="matrix(12,0,0,12,246.4,233.4)" />
<use xlink:href="#f0_1d" transform="matrix(12,0,0,12,256.3,233.4)" />
<use xlink:href="#f0_n" transform="matrix(12,0,0,12,258.3,233.4)" />
<use xlink:href="#f0_18" transform="matrix(12,0,0,12,265.6,233.4)" />
<use xlink:href="#f0_6" transform="matrix(12,0,0,12,265.6,233.4)" />
<use xlink:href="#f0_r" transform="matrix(12,0,0,12,270.7,233.4)" />
<use xlink:href="#f1_a" transform="matrix(11,0,0,11,626.4,254.2)" />
<use xlink:href="#f1_e" transform="matrix(11,0,0,11,634.8,254.2)" />
<use xlink:href="#f1_a" transform="matrix(11,0,0,11,642.3,254.2)" />
<use xlink:href="#f1_7" transform="matrix(11,0,0,11,650.5,254.2)" />
<use xlink:href="#f1_b" transform="matrix(11,0,0,11,658,254.2)" />
<use xlink:href="#f1_n" transform="matrix(11,0,0,11,667,254.2)" />
<use xlink:href="#f1_3" transform="matrix(11,0,0,11,675.2,254.2)" />
<use xlink:href="#f1_l" transform="matrix(11,0,0,11,679.9,254.2)" />
<use xlink:href="#f1_3" transform="matrix(11,0,0,11,688.3,254.2)" />
<use xlink:href="#f1_13" transform="matrix(11,0,0,11,693.1,254.2)" />
<use xlink:href="#f1_i" transform="matrix(11,0,0,11,700.5,254.2)" />
<use xlink:href="#f1_3" transform="matrix(11,0,0,11,708.8,254.2)" />
<use xlink:href="#f1_5" transform="matrix(11,0,0,11,713.5,254.2)" />
<use xlink:href="#f1_9" transform="matrix(11,0,0,11,721,254.2)" />
<use xlink:href="#f0_18" transform="matrix(12,0,0,12,496.2,255.6)" />
<use xlink:href="#f0_6" transform="matrix(12,0,0,12,496.2,255.6)" />
<use xlink:href="#f0_r" transform="matrix(12,0,0,12,501.2,255.6)" />
<use xlink:href="#f0_3" transform="matrix(12,0,0,12,514.2,255.6)" />
<use xlink:href="#f0_1c" transform="matrix(12,0,0,12,516.4,255.6)" />
<use xlink:href="#f0_n" transform="matrix(12,0,0,12,518.3,255.6)" />
<use xlink:href="#f0_16" transform="matrix(12,0,0,12,526.4,255.6)" />
<use xlink:href="#f0_j" transform="matrix(12,0,0,12,525.6,255.6)" />
<use xlink:href="#f0_3" transform="matrix(12,0,0,12,537.9,255.6)" />
<use xlink:href="#f0_1c" transform="matrix(12,0,0,12,542.3,255.6)" />
<use xlink:href="#f0_u" transform="matrix(12,0,0,12,542,255.6)" />
<use xlink:href="#f0_3" transform="matrix(12,0,0,12,553.9,255.6)" />
<use xlink:href="#f0_1c" transform="matrix(12,0,0,12,558.8,255.6)" />
<use xlink:href="#f0_j" transform="matrix(12,0,0,12,558,255.6)" />
<use xlink:href="#f0_a" transform="matrix(12,0,0,12,576,255.6)" />
<use xlink:href="#f0_16" transform="matrix(12,0,0,12,585.8,255.6)" />
<use xlink:href="#f0_1b" transform="matrix(12,0,0,12,587.5,255.6)" />
<use xlink:href="#f0_f" transform="matrix(12,0,0,12,586.4,255.6)" />
<use xlink:href="#f0_17" transform="matrix(12,0,0,12,597.3,255.6)" />
<use xlink:href="#f0_1b" transform="matrix(12,0,0,12,598.9,255.6)" />
<use xlink:href="#f0_f" transform="matrix(12,0,0,12,597.9,255.6)" />
<use xlink:href="#f1_e" transform="matrix(11,0,0,11,300.7,254.2)" />
<use xlink:href="#f1_3" transform="matrix(11,0,0,11,308,254.2)" />
<use xlink:href="#f1_6" transform="matrix(11,0,0,11,312.7,254.2)" />
<use xlink:href="#f1_7" transform="matrix(11,0,0,11,318.3,254.2)" />
<use xlink:href="#f0_e" transform="matrix(12,0,0,12,245.1,255.6)" />
<use xlink:href="#f0_16" transform="matrix(12,0,0,12,255.7,255.6)" />
<use xlink:href="#f0_4" transform="matrix(12,0,0,12,257,255.6)" />
<use xlink:href="#f0_1j" transform="matrix(12,0,0,12,267.3,255.6)" />
<use xlink:href="#f0_17" transform="matrix(12,0,0,12,272.2,255.6)" />
<use xlink:href="#f0_j" transform="matrix(12,0,0,12,271.4,255.6)" />
<use xlink:href="#f0_e" transform="matrix(12,0,0,12,721.2,297.2)" />
<use xlink:href="#f0_a" transform="matrix(12,0,0,12,733.2,297.2)" />
<use xlink:href="#f0_3" transform="matrix(12,0,0,12,743.6,297.2)" />
<use xlink:href="#f0_b" transform="matrix(12,0,0,12,747.7,297.2)" />
<use xlink:href="#f0_e" transform="matrix(12,0,0,12,760.2,297.2)" />
<use xlink:href="#f1_a" transform="matrix(11,0,0,11,653.3,297.2)" />
<use xlink:href="#f1_7" transform="matrix(11,0,0,11,661.7,297.2)" />
<use xlink:href="#f1_6" transform="matrix(11,0,0,11,669,297.2)" />
<use xlink:href="#f1_4" transform="matrix(11,0,0,11,674.6,297.2)" />
<use xlink:href="#f1_9" transform="matrix(11,0,0,11,681.2,297.2)" />
<use xlink:href="#f1_i" transform="matrix(11,0,0,11,689.6,297.2)" />
<use xlink:href="#f1_e" transform="matrix(11,0,0,11,698,297.2)" />
<use xlink:href="#f0_w" transform="matrix(12,0,0,12,138,297.2)" />
<use xlink:href="#f0_2" transform="matrix(12,0,0,12,144.1,297.2)" />
<use xlink:href="#f0_3" transform="matrix(12,0,0,12,156.1,297.2)" />
<use xlink:href="#f0_4" transform="matrix(12,0,0,12,160.2,297.2)" />
<use xlink:href="#f0_5" transform="matrix(12,0,0,12,170.6,297.2)" />
<use xlink:href="#f0_7" transform="matrix(12,0,0,12,180.2,297.2)" />
<use xlink:href="#f0_4" transform="matrix(12,0,0,12,202.1,297.2)" />
<use xlink:href="#f0_j" transform="matrix(12,0,0,12,212.4,297.2)" />
<use xlink:href="#f0_i" transform="matrix(12,0,0,12,224.7,297.2)" />
<use xlink:href="#f0_a" transform="matrix(12,0,0,12,236.7,297.2)" />
<use xlink:href="#f0_3" transform="matrix(12,0,0,12,262.6,297.2)" />
<use xlink:href="#f0_g" transform="matrix(12,0,0,12,266.8,297.2)" />
<use xlink:href="#f0_5" transform="matrix(12,0,0,12,276.8,297.2)" />
<use xlink:href="#f0_2" transform="matrix(12,0,0,12,302,297.2)" />
<use xlink:href="#f0_s" transform="matrix(12,0,0,12,314.2,297.2)" />
<use xlink:href="#f0_e" transform="matrix(12,0,0,12,337.2,297.2)" />
<use xlink:href="#f0_o" transform="matrix(12,0,0,12,349.1,297.2)" />
<use xlink:href="#f0_2" transform="matrix(12,0,0,12,375.2,297.2)" />
<use xlink:href="#f0_3" transform="matrix(12,0,0,12,387.3,297.2)" />
<use xlink:href="#f0_c" transform="matrix(12,0,0,12,391.4,297.2)" />
<use xlink:href="#f0_b" transform="matrix(12,0,0,12,404.4,297.2)" />
<use xlink:href="#f0_i" transform="matrix(12,0,0,12,416.9,297.2)" />
<use xlink:href="#f0_c" transform="matrix(12,0,0,12,428.9,297.2)" />
<use xlink:href="#f0_b" transform="matrix(12,0,0,12,441.8,297.2)" />
<use xlink:href="#f0_p" transform="matrix(12,0,0,12,469.8,297.2)" />
<use xlink:href="#f0_j" transform="matrix(12,0,0,12,479.6,297.2)" />
<use xlink:href="#f0_9" transform="matrix(12,0,0,12,507.5,297.2)" />
<use xlink:href="#f0_e" transform="matrix(12,0,0,12,513.3,297.2)" />
<use xlink:href="#f0_o" transform="matrix(12,0,0,12,525.2,297.2)" />
<use xlink:href="#f0_r" transform="matrix(12,0,0,12,535.8,297.2)" />
<use xlink:href="#f0_n" transform="matrix(12,0,0,12,548.8,297.2)" />
<use xlink:href="#f0_e" transform="matrix(12,0,0,12,571.7,297.2)" />
<use xlink:href="#f0_i" transform="matrix(12,0,0,12,583.6,297.2)" />
<use xlink:href="#f0_4" transform="matrix(12,0,0,12,595.6,297.2)" />
<use xlink:href="#f0_6" transform="matrix(12,0,0,12,606,297.2)" />
<use xlink:href="#f0_h" transform="matrix(12,0,0,12,611,297.2)" />
<use xlink:href="#f1_u" transform="matrix(11,0,0,11,574.1,318.5)" />
<use xlink:href="#f1_e" transform="matrix(11,0,0,11,586.2,318.5)" />
<use xlink:href="#f1_v" transform="matrix(11,0,0,11,593.7,318.5)" />
<use xlink:href="#f1_3" transform="matrix(11,0,0,11,602.1,318.5)" />
<use xlink:href="#f1_2" transform="matrix(11,0,0,11,606.8,318.5)" />
<use xlink:href="#f1_7" transform="matrix(11,0,0,11,623.1,318.5)" />
<use xlink:href="#f1_4" transform="matrix(11,0,0,11,630.6,318.5)" />
<use xlink:href="#f1_c" transform="matrix(11,0,0,11,645.1,318.5)" />
<use xlink:href="#f1_i" transform="matrix(11,0,0,11,653.5,318.5)" />
<use xlink:href="#f1_e" transform="matrix(11,0,0,11,661.9,318.5)" />
<use xlink:href="#f1_a" transform="matrix(11,0,0,11,677.4,318.5)" />
<use xlink:href="#f1_7" transform="matrix(11,0,0,11,685.7,318.5)" />
<use xlink:href="#f1_6" transform="matrix(11,0,0,11,693.1,318.5)" />
<use xlink:href="#f1_4" transform="matrix(11,0,0,11,698.8,318.5)" />
<use xlink:href="#f1_9" transform="matrix(11,0,0,11,705.3,318.5)" />
<use xlink:href="#f1_i" transform="matrix(11,0,0,11,713.7,318.5)" />
<use xlink:href="#f1_e" transform="matrix(11,0,0,11,722.1,318.5)" />
<use xlink:href="#f1_e" transform="matrix(11,0,0,11,737.5,318.5)" />
<use xlink:href="#f1_b" transform="matrix(11,0,0,11,745,318.5)" />
<use xlink:href="#f1_8" transform="matrix(11,0,0,11,749.6,318.5)" />
<use xlink:href="#f1_e" transform="matrix(11,0,0,11,754.3,318.5)" />
<use xlink:href="#f0_j" transform="matrix(12,0,0,12,191,318.5)" />
<use xlink:href="#f0_6" transform="matrix(12,0,0,12,203.2,318.5)" />
<use xlink:href="#f0_e" transform="matrix(12,0,0,12,208.2,318.5)" />
<use xlink:href="#f0_g" transform="matrix(12,0,0,12,229.7,318.5)" />
<use xlink:href="#f0_6" transform="matrix(12,0,0,12,239.6,318.5)" />
<use xlink:href="#f0_g" transform="matrix(12,0,0,12,244.7,318.5)" />
<use xlink:href="#f0_w" transform="matrix(12,0,0,12,264.3,318.5)" />
<use xlink:href="#f0_i" transform="matrix(12,0,0,12,270.4,318.5)" />
<use xlink:href="#f0_3" transform="matrix(12,0,0,12,282.5,318.5)" />
<use xlink:href="#f0_4" transform="matrix(12,0,0,12,286.6,318.5)" />
<use xlink:href="#f0_o" transform="matrix(12,0,0,12,297,318.5)" />
<use xlink:href="#f0_m" transform="matrix(12,0,0,12,307.5,318.5)" />
<use xlink:href="#f0_a" transform="matrix(12,0,0,12,319,318.5)" />
<use xlink:href="#f0_e" transform="matrix(12,0,0,12,339.1,318.5)" />
<use xlink:href="#f0_b" transform="matrix(12,0,0,12,351,318.5)" />
<use xlink:href="#f0_6" transform="matrix(12,0,0,12,363.4,318.5)" />
<use xlink:href="#f0_g" transform="matrix(12,0,0,12,368.4,318.5)" />
<use xlink:href="#f0_o" transform="matrix(12,0,0,12,378.5,318.5)" />
<use xlink:href="#f0_11" transform="matrix(12,0,0,12,389,318.5)" />
<use xlink:href="#f0_k" transform="matrix(12,0,0,12,405.9,318.5)" />
<use xlink:href="#f0_e" transform="matrix(12,0,0,12,411.8,318.5)" />
<use xlink:href="#f0_6" transform="matrix(12,0,0,12,423.7,318.5)" />
<use xlink:href="#f0_o" transform="matrix(12,0,0,12,428.7,318.5)" />
<use xlink:href="#f0_s" transform="matrix(12,0,0,12,439.2,318.5)" />
<use xlink:href="#f0_2" transform="matrix(12,0,0,12,456.3,318.5)" />
<use xlink:href="#f0_g" transform="matrix(12,0,0,12,468.5,318.5)" />
<use xlink:href="#f0_j" transform="matrix(12,0,0,12,478.6,318.5)" />
<use xlink:href="#f0_j" transform="matrix(12,0,0,12,500.4,318.5)" />
<use xlink:href="#f0_6" transform="matrix(12,0,0,12,512.6,318.5)" />
<use xlink:href="#f0_e" transform="matrix(12,0,0,12,517.7,318.5)" />
<use xlink:href="#f0_g" transform="matrix(12,0,0,12,539.2,318.5)" />
<use xlink:href="#f0_6" transform="matrix(12,0,0,12,549.2,318.5)" />
<use xlink:href="#f0_g" transform="matrix(12,0,0,12,554.1,318.5)" />
<use xlink:href="#f2_k" transform="matrix(12,0,0,12,137.8,318.5)" />
<use xlink:href="#f2_d" transform="matrix(12,0,0,12,150.3,318.5)" />
<use xlink:href="#f2_c" transform="matrix(12,0,0,12,156.6,318.5)" />
<use xlink:href="#f2_b" transform="matrix(12,0,0,12,169.7,318.5)" />
<use xlink:href="#f0_k" transform="matrix(12,0,0,12,716.8,339.9)" />
<use xlink:href="#f0_i" transform="matrix(12,0,0,12,722.7,339.9)" />
<use xlink:href="#f0_4" transform="matrix(12,0,0,12,734.7,339.9)" />
<use xlink:href="#f0_5" transform="matrix(12,0,0,12,745.1,339.9)" />
<use xlink:href="#f0_6" transform="matrix(12,0,0,12,754.7,339.9)" />
<use xlink:href="#f0_b" transform="matrix(12,0,0,12,759.6,339.9)" />
<use xlink:href="#f2_k" transform="matrix(12,0,0,12,667.9,339.9)" />
<use xlink:href="#f2_d" transform="matrix(12,0,0,12,680.5,339.9)" />
<use xlink:href="#f2_c" transform="matrix(12,0,0,12,686.7,339.9)" />
<use xlink:href="#f2_b" transform="matrix(12,0,0,12,700,339.9)" />
<use xlink:href="#f0_k" transform="matrix(12,0,0,12,283.7,339.9)" />
<use xlink:href="#f0_12" transform="matrix(12,0,0,12,289.5,339.9)" />
<use xlink:href="#f0_4" transform="matrix(12,0,0,12,296.7,339.9)" />
<use xlink:href="#f0_5" transform="matrix(12,0,0,12,307.1,339.9)" />
<use xlink:href="#f0_7" transform="matrix(12,0,0,12,316.7,339.9)" />
<use xlink:href="#f0_2" transform="matrix(12,0,0,12,328.9,339.9)" />
<use xlink:href="#f0_g" transform="matrix(12,0,0,12,341,339.9)" />
<use xlink:href="#f0_j" transform="matrix(12,0,0,12,351,339.9)" />
<use xlink:href="#f0_e" transform="matrix(12,0,0,12,369.1,339.9)" />
<use xlink:href="#f0_7" transform="matrix(12,0,0,12,381,339.9)" />
<use xlink:href="#f0_e" transform="matrix(12,0,0,12,393.3,339.9)" />
<use xlink:href="#f0_4" transform="matrix(12,0,0,12,405.2,339.9)" />
<use xlink:href="#f0_r" transform="matrix(12,0,0,12,415.6,339.9)" />
<use xlink:href="#f0_b" transform="matrix(12,0,0,12,428.6,339.9)" />
<use xlink:href="#f0_o" transform="matrix(12,0,0,12,441.1,339.9)" />
<use xlink:href="#f0_i" transform="matrix(12,0,0,12,457.5,339.9)" />
<use xlink:href="#f0_4" transform="matrix(12,0,0,12,469.5,339.9)" />
<use xlink:href="#f0_j" transform="matrix(12,0,0,12,479.9,339.9)" />
<use xlink:href="#f0_i" transform="matrix(12,0,0,12,492.1,339.9)" />
<use xlink:href="#f0_b" transform="matrix(12,0,0,12,504.1,339.9)" />
<use xlink:href="#f0_e" transform="matrix(12,0,0,12,516.5,339.9)" />
<use xlink:href="#f0_e" transform="matrix(12,0,0,12,534.5,339.9)" />
<use xlink:href="#f0_o" transform="matrix(12,0,0,12,546.4,339.9)" />
<use xlink:href="#f0_r" transform="matrix(12,0,0,12,557,339.9)" />
<use xlink:href="#f0_n" transform="matrix(12,0,0,12,569.9,339.9)" />
<use xlink:href="#f0_i" transform="matrix(12,0,0,12,583.1,339.9)" />
<use xlink:href="#f0_a" transform="matrix(12,0,0,12,595.1,339.9)" />
<use xlink:href="#f0_3" transform="matrix(12,0,0,12,605.5,339.9)" />
<use xlink:href="#f0_b" transform="matrix(12,0,0,12,609.5,339.9)" />
<use xlink:href="#f0_j" transform="matrix(12,0,0,12,628,339.9)" />
<use xlink:href="#f0_3" transform="matrix(12,0,0,12,640.2,339.9)" />
<use xlink:href="#f0_e" transform="matrix(12,0,0,12,644.3,339.9)" />
<use xlink:href="#f0_9" transform="matrix(12,0,0,12,662,339.9)" />
<use xlink:href="#f0_1k" transform="matrix(12,0,0,12,137.7,1208.5)" />
</g>
</g>
<defs>
<path d="M700,-317V454c0,0,0,155,-54,215c0,0,-54,60,-180,60H277V551c0,0,0,-55,26,-80c0,0,27,-26,82,-26c0,0,30,0,80,10V341c0,0,-61,-11,-111,-11c0,0,-100,0,-157,55c0,0,-58,55,-58,186V836H466c0,0,203,0,288,-91c0,0,85,-92,85,-293V-317Z" 
id="f0_z"
transform="scale(0.001,-0.001)" />

<path d="M585,0V426c0,0,0,54,-8,98c0,0,-8,44,-27,83c0,0,-19,40,-49,66c0,0,-30,26,-77,41c0,0,-47,15,-108,15H66V836H315c0,0,94,0,166,-20c0,0,71,-20,116,-54c0,0,46,-35,75,-88c0,0,28,-52,40,-112c0,0,12,-60,12,-137V0Z" 
id="f0_4"
transform="scale(0.001,-0.001)" />

<path d="M66,0V106H564L66,836H228L516,413c0,0,3,2,9,6c0,0,17,13,27,21c0,0,10,8,26,27c0,0,17,20,26,40c0,0,9,21,16,54c0,0,7,34,7,75V836H764V698c0,0,0,-55,-7,-102c0,0,-7,-47,-16,-79c0,0,-10,-33,-27,-62c0,0,-18,-29,-32,-46c0,0,-14,-17,-37,-35c0,0,-22,-17,-36,-25c0,0,-13,-8,-36,-20L767,53V0Z" 
id="f0_h"
transform="scale(0.001,-0.001)" />

<path d="M66,0V107H332V555c0,0,0,92,-37,133c0,0,-37,41,-116,41H85V836h94c0,0,153,0,223,-66c0,0,69,-66,69,-231V0Z" 
id="f0_n"
transform="scale(0.001,-0.001)" />

<path d="M163,0V190H321V0Z" 
id="f0_k"
transform="scale(0.001,-0.001)" />

<path d="M736,107V473c0,0,0,147,-48,202c0,0,-49,54,-187,54H278V107ZM139,0V836H499c0,0,105,0,177,-22c0,0,72,-21,116,-69c0,0,44,-49,64,-119c0,0,19,-71,19,-174V0Z" 
id="f0_2"
transform="scale(0.001,-0.001)" />

<path d="M102,312V836H241V369L102,312Z" 
id="f0_3"
transform="scale(0.001,-0.001)" />

<path d="M139,0V836H278V0Z" 
id="f0_6"
transform="scale(0.001,-0.001)" />

<path d="M180,0L66,836H203L258,443c0,0,36,1,64,6c0,0,28,6,49,18c0,0,20,12,35,26c0,0,15,13,26,36c0,0,11,24,17,44c0,0,7,20,12,55c0,0,6,34,9,60c0,0,3,26,8,71c0,0,4,45,9,77H610c0,0,-13,-194,-31,-271c0,0,-31,-127,-111,-179c0,0,-71,-45,-196,-50L304,107c0,0,73,0,130,5c0,0,56,6,111,21c0,0,54,15,94,40c0,0,40,25,77,64c0,0,37,39,63,94c0,0,25,54,46,128c0,0,21,73,34,166c0,0,13,94,20,211h138c0,0,-14,-124,-29,-218c0,0,-16,-94,-39,-179c0,0,-22,-85,-50,-146c0,0,-28,-61,-68,-112c0,0,-39,-51,-87,-84C744,97,696,65,632,42C632,42,568,19,492,10C492,10,417,0,320,0Z" 
id="f0_c"
transform="scale(0.001,-0.001)" />

<path d="M139,0V138c0,0,0,61,8,112c0,0,7,52,19,87c0,0,11,36,30,66c0,0,19,31,35,49c0,0,17,19,41,35c0,0,25,17,41,25c0,0,17,7,40,17L141,836H303L613,388c0,0,20,10,33,18c0,0,13,8,34,28c0,0,20,20,33,44c0,0,13,25,22,66c0,0,10,41,10,92V836H882V698c0,0,0,-61,-7,-112c0,0,-6,-52,-18,-88c0,0,-12,-36,-30,-66c0,0,-19,-30,-36,-49c0,0,-17,-18,-41,-34c0,0,-24,-17,-40,-25c0,0,-17,-8,-41,-17L882,0H720L409,448c0,0,-21,-11,-34,-19c0,0,-13,-8,-34,-27c0,0,-21,-20,-34,-44c0,0,-12,-25,-22,-66c0,0,-9,-41,-9,-92V0Z" 
id="f0_j"
transform="scale(0.001,-0.001)" />

<path d="M154,0V454l138,56V0ZM722,0V454c0,0,0,161,-49,218c0,0,-48,57,-186,57H139V836H485c0,0,207,0,291,-93c0,0,83,-94,83,-318V0Z" 
id="f0_e"
transform="scale(0.001,-0.001)" />

<path d="M156,-317V454l139,56V-317ZM505,0L806,729H139V835H967V753L650,0Z" 
id="f0_r"
transform="scale(0.001,-0.001)" />

<path d="M139,0V106H400c0,0,176,0,253,71c0,0,78,72,78,250c0,0,0,163,-80,233c0,0,-81,69,-250,69H278L277,564c0,0,-1,-54,26,-80c0,0,27,-25,82,-25c0,0,30,0,80,9V355c0,0,-61,-12,-111,-12c0,0,-100,0,-157,55c0,0,-58,55,-58,186V836H456c0,0,193,0,303,-109c0,0,110,-109,110,-309c0,0,0,-200,-110,-309C759,109,648,0,456,0Z" 
id="f0_f"
transform="scale(0.001,-0.001)" />

<path d="M66,0V107H554V452c0,0,0,56,-4,93c0,0,-4,37,-18,75c0,0,-14,38,-40,60c0,0,-26,22,-71,36c0,0,-45,13,-110,13H66V836H312c0,0,91,0,157,-17c0,0,66,-17,109,-49c0,0,44,-32,69,-84c0,0,26,-52,36,-114c0,0,10,-62,10,-147V107H817V0Z" 
id="f0_o"
transform="scale(0.001,-0.001)" />

<path d="M112,-5c0,0,-39,0,-97,11V113c0,0,48,-10,77,-10c0,0,53,0,70,42c0,0,17,43,17,164V729H50V836H501c0,0,107,0,179,-25c0,0,72,-25,112,-77c0,0,40,-51,57,-118c0,0,16,-67,16,-164V0H726V454c0,0,0,55,-3,92c0,0,-4,37,-17,75c0,0,-14,38,-38,59c0,0,-24,22,-65,36c0,0,-42,13,-102,13H318V309c0,0,0,-160,-46,-237C272,72,226,-5,112,-5Z" 
id="f0_i"
transform="scale(0.001,-0.001)" />

<path d="M495,0V729H66V836H781V729H634V0Z" 
id="f0_g"
transform="scale(0.001,-0.001)" />

<path d="M114,0l60,312c0,0,2,12,8,39c0,0,6,27,7,37c0,0,2,11,5,30c0,0,2,19,4,33c0,0,1,15,1,31c0,0,0,48,-35,146c0,0,-35,98,-98,208H228c0,0,3,-8,27,-67c0,0,25,-58,41,-117c0,0,21,53,50,90c0,0,29,37,57,57c0,0,29,21,65,32c0,0,37,11,65,14c0,0,28,3,67,3c0,0,300,0,300,-396V0H480V106H761V452c0,0,0,146,-46,215c0,0,-45,70,-118,70c0,0,-134,0,-198,-119c0,0,-36,-68,-67,-222c0,0,-2,-10,-6,-27L253,0Z" 
id="f0_b"
transform="scale(0.001,-0.001)" />

<path d="M287,0L589,729H66v386H205V836l547,-1l-2,-82L433,0Z" 
id="f0_a"
transform="scale(0.001,-0.001)" />

<path d="M66,0V106H322c0,0,75,0,127,23c0,0,53,23,82,67c0,0,29,43,42,98c0,0,13,54,13,124c0,0,0,70,-13,124c0,0,-13,55,-42,98c0,0,-29,44,-82,67c0,0,-52,23,-127,23H66V836H322c0,0,87,0,157,-24c0,0,70,-24,115,-64c0,0,45,-40,74,-94c0,0,30,-55,43,-113c0,0,13,-59,13,-123c0,0,0,-64,-13,-123c0,0,-13,-58,-43,-113c0,0,-29,-54,-74,-94C594,88,549,48,479,24C479,24,409,0,322,0Z" 
id="f0_5"
transform="scale(0.001,-0.001)" />

<path d="M522,-20c0,0,-196,0,-290,99c0,0,-94,100,-94,324V836H276V397c0,0,0,-86,16,-147c0,0,17,-60,50,-94c0,0,34,-34,77,-49c0,0,43,-15,103,-15c0,0,59,0,102,15c0,0,44,15,77,49c0,0,33,34,50,94c0,0,17,61,17,147c0,0,0,84,-8,143c0,0,-7,58,-25,105c0,0,-17,47,-51,69c0,0,-33,23,-83,23c0,0,-50,0,-119,-22V821c0,0,85,23,150,23c0,0,76,0,130,-30c0,0,53,-31,85,-90c0,0,31,-59,45,-138c0,0,13,-78,13,-183c0,0,0,-224,-93,-324c0,0,-94,-99,-290,-99Z" 
id="f0_l"
transform="scale(0.001,-0.001)" />

<path d="M138,-7c0,0,-34,0,-72,10V129c0,0,25,-8,52,-8c0,0,33,0,58,5c0,0,26,5,58,24c0,0,33,20,53,54c0,0,21,34,36,97c0,0,15,64,15,151c0,0,0,113,-19,173c0,0,-19,60,-56,82c0,0,-38,22,-107,22H89V836h72c0,0,165,0,240,-91c0,0,76,-91,76,-293c0,0,0,-107,26,-227c0,0,25,-119,83,-225H437c0,0,-43,101,-62,184c0,0,-24,-60,-51,-99c0,0,-26,-38,-56,-58C268,27,239,7,209,0c0,0,-30,-7,-71,-7Z" 
id="f0_s"
transform="scale(0.001,-0.001)" />

<path d="M139,0V836H485c0,0,206,0,290,-90c0,0,84,-89,84,-294V0H721V473c0,0,0,147,-49,202c0,0,-48,54,-186,54H277V0Z" 
id="f0_u"
transform="scale(0.001,-0.001)" />

<path d="M543,-317V369c0,0,0,85,-8,143c0,0,-8,58,-27,101c0,0,-18,44,-51,69c0,0,-33,24,-80,36c0,0,-48,11,-117,11H66V836H257c0,0,125,0,205,-23c0,0,80,-23,130,-79c0,0,50,-56,70,-143c0,0,20,-86,20,-222V-317Z" 
id="f0_p"
transform="scale(0.001,-0.001)" />

<path d="M117,-176L179,62V190H336V62L213,-176Z" 
id="f0_9"
transform="scale(0.001,-0.001)" />

<path d="M522,92c0,0,247,0,247,333c0,0,0,88,-17,146c0,0,-17,58,-53,91c0,0,-35,33,-82,46c0,0,-48,14,-116,14H276V419c0,0,0,-327,246,-327Zm0,-112c0,0,-193,0,-289,109c0,0,-95,110,-95,337V836H501c0,0,213,0,309,-93c0,0,96,-94,96,-317c0,0,0,-227,-95,-337C811,89,715,-20,522,-20Z" 
id="f0_t"
transform="scale(0.001,-0.001)" />

<path d="M71,-141V-15L289,62L66,836H210L416,109c0,0,99,42,153,98c0,0,53,56,80,155c0,0,26,98,26,262V836H817V624c0,0,0,-88,-7,-154c0,0,-7,-67,-25,-132c0,0,-18,-66,-51,-116c0,0,-33,-51,-84,-98c0,0,-50,-48,-123,-87c0,0,-72,-39,-169,-74L71,-141Z" 
id="f0_m"
transform="scale(0.001,-0.001)" />

<path d="M32,0V33L151,52V649L52,668v33H275V52L395,33V0ZM201,850c0,0,-32,0,-56,24c0,0,-24,24,-24,56c0,0,0,34,24,58c0,0,24,24,56,24c0,0,34,0,58,-24c0,0,24,-24,24,-58c0,0,0,-32,-24,-56c0,0,-24,-24,-58,-24Z" 
id="f1_3"
transform="scale(0.001,-0.001)" />

<path d="M383,64c0,0,85,0,152,28V645c0,0,-67,13,-152,13c0,0,-194,0,-194,-314c0,0,0,-141,48,-211c0,0,48,-69,146,-69ZM342,-14c0,0,-287,0,-287,358c0,0,0,184,82,280c0,0,81,96,239,96c0,0,81,0,163,-18c0,0,-4,25,-4,124v182l-118,18v34H659V52L745,33V0H548l-9,52c0,0,-84,-66,-197,-66Z" 
id="f1_2"
transform="scale(0.001,-0.001)" />

<path d="M377,45c0,0,99,0,147,73c0,0,47,73,47,237c0,0,0,161,-47,233c0,0,-47,72,-147,72c0,0,-97,0,-141,-69c0,0,-44,-69,-44,-236c0,0,0,-169,45,-240c0,0,44,-70,140,-70Zm0,-59c0,0,-158,0,-238,94c0,0,-81,95,-81,274c0,0,0,178,81,272c0,0,80,94,244,94c0,0,160,0,241,-92c0,0,82,-92,82,-274c0,0,0,-368,-329,-368Z" 
id="f1_9"
transform="scale(0.001,-0.001)" />

<path d="M431,0V33L535,52V499c0,0,0,62,-32,96c0,0,-32,33,-95,33c0,0,-66,0,-163,-22V52L350,33V0H32V33l89,19V649L32,668v33H237l6,-57c0,0,56,32,119,54c0,0,62,22,110,22c0,0,52,0,95,-20c0,0,44,-19,66,-62c0,0,57,32,134,57c0,0,77,25,128,25c0,0,179,0,179,-207V52l90,-19V0H846V33L950,52V499c0,0,0,129,-119,129c0,0,-19,0,-45,-3c0,0,-26,-3,-52,-7c0,0,-25,-4,-49,-8c0,0,-23,-5,-39,-8c0,0,13,-41,13,-89V52L764,33V0Z" 
id="f1_d"
transform="scale(0.001,-0.001)" />

<path d="M284,67c0,0,51,0,88,12c0,0,37,12,74,30V358l-98,-3c0,0,-100,-4,-135,-39c0,0,-35,-35,-35,-117c0,0,0,-132,106,-132ZM233,-14c0,0,-179,0,-179,208c0,0,0,70,27,116c0,0,27,46,87,70c0,0,60,24,173,27l105,3V519c0,0,0,72,-26,107c0,0,-27,34,-82,34c0,0,-75,0,-137,-35L176,538H134V691c0,0,121,26,213,26c0,0,115,0,169,-47c0,0,54,-47,54,-144V52L657,33V0H465L451,70c0,0,-85,-84,-218,-84Z" 
id="f1_e"
transform="scale(0.001,-0.001)" />

<path d="M433,-292v111H265V-69H713V-181H545V-292Z" 
id="f0_17"
transform="scale(0.001,-0.001)" />

<path d="M0,955v112H111V955Z" 
id="f0_18"
transform="scale(0.001,-0.001)" />

<path d="M433,-241v111H545V-241Z" 
id="f0_1c"
transform="scale(0.001,-0.001)" />

<path d="M278,-14c0,0,-52,0,-115,11c0,0,-63,10,-99,23V193H98L134,95c0,0,56,-50,146,-50c0,0,144,0,144,123c0,0,0,91,-114,130l-66,21c0,0,-75,25,-110,50c0,0,-34,26,-53,63c0,0,-18,36,-18,89c0,0,0,92,63,145c0,0,63,54,170,54c0,0,77,0,193,-23V544H454l-32,81c0,0,-39,35,-124,35c0,0,-61,0,-92,-30c0,0,-32,-30,-32,-80c0,0,0,-43,29,-72c0,0,28,-29,86,-48c0,0,110,-38,144,-55c0,0,33,-17,57,-42c0,0,23,-25,36,-57c0,0,13,-32,13,-79c0,0,0,-104,-66,-158c0,0,-66,-53,-195,-53Z" 
id="f1_4"
transform="scale(0.001,-0.001)" />

<path d="M495,413c0,0,0,133,-34,190c0,0,-34,57,-105,57c0,0,-78,0,-119,-63c0,0,-42,-62,-42,-184ZM374,-14c0,0,-163,0,-239,87c0,0,-75,88,-75,283c0,0,0,183,77,273c0,0,76,91,219,91c0,0,269,0,269,-306V353H194V340c0,0,0,-103,23,-160c0,0,22,-57,70,-87c0,0,47,-29,124,-29c0,0,40,0,96,6c0,0,55,7,91,15V43C598,43,562,20,500,3c0,0,-61,-17,-126,-17Z" 
id="f1_7"
transform="scale(0.001,-0.001)" />

<path d="M31,0V33l88,19V649L31,668v33H235l7,-87c0,0,44,37,121,71c0,0,76,35,121,35h11V530H463l-43,82c0,0,-37,0,-88,-10c0,0,-52,-10,-89,-26V52L363,33V0Z" 
id="f1_6"
transform="scale(0.001,-0.001)" />

<path d="M433,-329v111H545V-329Zm0,185V-32H545V-144Z" 
id="f0_1d"
transform="scale(0.001,-0.001)" />

<path d="M433,-329v111H545V-329Zm-93,185V-32H452V-144Zm186,0V-32H638V-144Z" 
id="f0_16"
transform="scale(0.001,-0.001)" />

<path d="M399,-14c0,0,-341,0,-341,370c0,0,0,175,87,269c0,0,87,95,249,95c0,0,101,0,220,-23V501H573L541,625c0,0,-62,35,-149,35c0,0,-200,0,-200,-304c0,0,0,-158,61,-225c0,0,61,-67,189,-67c0,0,109,0,189,24V43C631,43,595,16,530,1c0,0,-64,-15,-131,-15Z" 
id="f1_5"
transform="scale(0.001,-0.001)" />

<path d="M382,45c0,0,188,0,188,314c0,0,0,143,-47,213c0,0,-46,69,-141,69c0,0,-87,0,-146,-24V58c0,0,67,-13,146,-13ZM25,-325v35l88,18V649L34,668v33H231l1,-41c0,0,31,27,84,43c0,0,53,17,107,17c0,0,134,0,208,-94c0,0,73,-93,73,-267c0,0,0,-178,-80,-276c0,0,-80,-97,-232,-97c0,0,-84,0,-160,16c0,0,4,-53,4,-84V-272l123,-18v-35Z" 
id="f1_a"
transform="scale(0.001,-0.001)" />

<path d="M289,-14c0,0,-179,0,-179,205V649L20,668v33H233V200c0,0,0,-128,120,-128c0,0,92,0,173,23V649L420,668v33H649V52L738,33V0H533l-6,57C527,57,474,28,405,7c0,0,-69,-21,-116,-21Z" 
id="f1_c"
transform="scale(0.001,-0.001)" />

<path d="M249,-14c0,0,-71,0,-107,42c0,0,-35,42,-35,119V639H15v33l93,29l76,159h47V701H391V639H231V161c0,0,0,-48,22,-73c0,0,22,-24,57,-24c0,0,44,0,106,12V26C416,26,389,8,340,-2c0,0,-49,-12,-91,-12Z" 
id="f1_8"
transform="scale(0.001,-0.001)" />

<path d="M441,362V473H552V362Z" 
id="f0_1b"
transform="scale(0.001,-0.001)" />

<path d="M439,0V33l93,19V500c0,0,0,62,-30,97c0,0,-31,36,-94,36c0,0,-67,0,-165,-22V52L338,33V0H35V33l84,19V649L35,668v33H235l7,-57c0,0,57,33,122,54c0,0,65,22,108,22c0,0,91,0,137,-53c0,0,47,-53,47,-154V52L741,33V0Z" 
id="f1_i"
transform="scale(0.001,-0.001)" />

<path d="M377,44c0,0,99,0,147,73c0,0,47,73,47,237c0,0,0,161,-47,234c0,0,-47,72,-147,72c0,0,-97,0,-141,-69c0,0,-44,-70,-44,-237c0,0,0,-169,45,-239c0,0,44,-71,140,-71Zm0,-58c0,0,-158,0,-238,94c0,0,-81,95,-81,274c0,0,0,178,81,272c0,0,80,94,244,94c0,0,160,0,241,-92c0,0,82,-92,82,-274c0,0,0,-368,-329,-368ZM301,835v24l147,203H606v-27L342,835Z" 
id="f1_y"
transform="scale(0.001,-0.001)" />

<path d="M139,-317V836H278V-317Z" 
id="f0_q"
transform="scale(0.001,-0.001)" />

<path d="M31,0V33L150,52v956L31,1026v34H274V52L394,33V0Z" 
id="f1_b"
transform="scale(0.001,-0.001)" />

<path d="M442,0V33l93,19V504c0,0,0,129,-124,129c0,0,-70,0,-168,-22V52L338,33V0H31V33l88,19v956L15,1026v34H243V756c0,0,0,-77,-5,-112c0,0,54,31,122,53c0,0,68,23,115,23c0,0,91,0,137,-53c0,0,47,-53,47,-154V52L744,33V0Z" 
id="f1_n"
transform="scale(0.001,-0.001)" />

<path d="M359,-270c0,0,124,0,192,46c0,0,67,47,67,129c0,0,0,43,-26,67c0,0,-26,24,-79,24H242c0,0,-32,-27,-51,-69c0,0,-20,-41,-20,-77c0,0,0,-64,46,-92c0,0,46,-28,142,-28Zm11,561c0,0,81,0,115,47c0,0,34,47,34,141c0,0,0,100,-35,142c0,0,-35,42,-113,42c0,0,-78,0,-114,-43c0,0,-37,-42,-37,-141c0,0,0,-98,36,-143c0,0,36,-45,114,-45ZM359,-329c0,0,-143,0,-218,44c0,0,-75,43,-75,125c0,0,0,39,27,78c0,0,26,38,98,89c0,0,-43,14,-72,48c0,0,-29,35,-29,74L208,262c0,0,-118,55,-118,217c0,0,0,115,73,178c0,0,73,63,211,63c0,0,28,0,71,-6c0,0,44,-6,67,-13l165,83l26,-32L599,644c0,0,50,-56,50,-165c0,0,0,-120,-72,-182c0,0,-73,-62,-208,-62c0,0,-62,0,-114,11L208,148c0,0,2,-13,29,-24c0,0,27,-12,67,-12H512c0,0,113,0,168,-49c0,0,55,-49,55,-134c0,0,0,-79,-44,-137c0,0,-43,-58,-128,-90c0,0,-84,-31,-204,-31Z" 
id="f1_l"
transform="scale(0.001,-0.001)" />

<path d="M495,413c0,0,0,133,-34,190c0,0,-34,57,-105,57c0,0,-78,0,-119,-62c0,0,-42,-63,-42,-185ZM374,-14c0,0,-163,0,-239,87c0,0,-75,88,-75,283c0,0,0,183,77,274c0,0,76,90,219,90c0,0,269,0,269,-306V353H194V339c0,0,0,-103,23,-160c0,0,22,-57,70,-86c0,0,47,-30,124,-30c0,0,40,0,96,6c0,0,55,7,91,15V43C598,43,562,19,500,2c0,0,-61,-16,-126,-16ZM285,835v24l146,203H590v-27L326,835Z" 
id="f1_13"
transform="scale(0.001,-0.001)" />

<path d="M109,68V180H221V68Zm-8,244V836H240V369L101,312Z" 
id="f0_1j"
transform="scale(0.001,-0.001)" />

<path d="M179,0V190H336V0Zm0,600V790H336V600Z" 
id="f0_w"
transform="scale(0.001,-0.001)" />

<path d="M152,0V473c0,0,0,94,28,161c0,0,29,66,71,95H66V836H463V729H404c0,0,-65,0,-89,-57c0,0,-25,-58,-25,-199V0Z" 
id="f0_7"
transform="scale(0.001,-0.001)" />

<path d="M529,65c0,0,183,0,270,108c0,0,87,108,87,334c0,0,0,210,-113,318c0,0,-113,108,-322,108H316V71c0,0,90,-6,213,-6Zm0,-67L172,0H44V40L172,60V941L44,960v40H498c0,0,277,0,411,-123c0,0,133,-124,133,-371c0,0,0,-251,-129,-380C913,126,785,-2,529,-2Z" 
id="f1_u"
transform="scale(0.001,-0.001)" />

<path d="M360,-14L72,649L0,668v33H327V668L216,648L420,164L615,649L504,668v33H764V668L697,652L416,-14Z" 
id="f1_v"
transform="scale(0.001,-0.001)" />

<path d="M122,-200c0,0,99,170,148,338c0,0,49,169,49,342c0,0,0,172,-49,340c0,0,-49,168,-148,340H241c0,0,112,-176,168,-345c0,0,55,-169,55,-335c0,0,0,-167,-55,-337c0,0,-56,-168,-168,-343Z" 
id="f0_11"
transform="scale(0.001,-0.001)" />

<path d="M173,-6C173,-6,61,-6,15,9V177c0,0,73,-10,82,-10c0,0,37,0,52,30c0,0,14,29,14,116V658H18V836H516c0,0,262,0,341,-145c0,0,48,-89,48,-242V0H658V450c0,0,0,131,-37,171c0,0,-34,37,-105,37H411V313c0,0,0,-189,-67,-258C344,55,285,-6,173,-6Z" 
id="f2_k"
transform="scale(0.001,-0.001)" />

<path d="M139,0V836H386V0Z" 
id="f2_d"
transform="scale(0.001,-0.001)" />

<path d="M129,0l69,362c0,0,10,56,12,100c0,0,0,84,-27,159c0,0,-27,76,-117,215H322c0,0,9,-6,31,-79c0,0,23,-72,23,-105c0,0,23,82,100,138c0,0,77,57,160,57c0,0,332,0,332,-397V0H538V177H721V449c0,0,0,124,-20,170c0,0,-20,47,-82,47c0,0,-23,0,-43,-9c0,0,-19,-10,-34,-23c0,0,-14,-14,-27,-39c0,0,-13,-25,-22,-46c0,0,-8,-22,-17,-57c0,0,-9,-36,-15,-61c0,0,-5,-24,-13,-65L375,0Z" 
id="f2_c"
transform="scale(0.001,-0.001)" />

<path d="M453,0V658H66V836H833V658H700V0Z" 
id="f2_b"
transform="scale(0.001,-0.001)" />

<path d="M354,-200c0,0,-112,175,-167,343c0,0,-56,170,-56,337c0,0,0,166,55,335c0,0,55,169,168,345H473c0,0,-100,-172,-148,-340c0,0,-48,-168,-48,-340c0,0,0,-173,48,-342c0,0,49,-168,148,-338Z" 
id="f0_12"
transform="scale(0.001,-0.001)" />

<path d="M280,0L660,987H125v127H841v-64L437,0Z" 
id="f0_1k"
transform="scale(0.001,-0.001)" />


</defs>
</svg>