<?xml version="1.0" encoding="UTF-8" standalone="no"?>
<!DOCTYPE svg PUBLIC "-//W3C//DTD SVG 1.1//EN"
"http://www.w3.org/Graphics/SVG/1.1/DTD/svg11.dtd">
<svg viewBox="0 0 909 1286" version="1.1" xmlns="http://www.w3.org/2000/svg" xmlns:xlink="http://www.w3.org/1999/xlink">
<defs>
<clipPath id="c0_8"><path d="M0,1286.2V0H909.4V1286.2Z" /></clipPath>
<style type="text/css"><![CDATA[
.g0_8{
fill: none;
stroke: #000000;
stroke-width: 0.7638889;
stroke-linecap: butt;
stroke-linejoin: round;
}
.g1_8{
stroke: #000000;
stroke-width: 0.15277778;
stroke-linecap: butt;
stroke-linejoin: miter;
}
]]></style>
</defs>
<g clip-path="url(#c0_8)">
<g fill="#000000" >
<use xlink:href="#f0_n" transform="matrix(12,0,0,12,137.7,127.1)" />
<use xlink:href="#f0_g" transform="matrix(12,0,0,12,150.6,127.1)" />
<use xlink:href="#f0_r" transform="matrix(12,0,0,12,163.1,127.1)" />
<use xlink:href="#f0_n" transform="matrix(12,0,0,12,175.2,127.1)" />
<use xlink:href="#f0_6" transform="matrix(12,0,0,12,188.2,127.1)" />
<use xlink:href="#f0_d" transform="matrix(12,0,0,12,202.8,127.1)" />
<use xlink:href="#f0_5" transform="matrix(12,0,0,12,207.8,127.1)" />
<use xlink:href="#f0_f" transform="matrix(12,0,0,12,217.4,127.1)" />
<use xlink:href="#f0_a" transform="matrix(12,0,0,12,227.8,127.1)" />
<use xlink:href="#f0_7" transform="matrix(12,0,0,12,240.3,127.1)" />
<use xlink:href="#f0_4" transform="matrix(12,0,0,12,246.1,127.1)" />
<use xlink:href="#f0_6" transform="matrix(12,0,0,12,250.2,127.1)" />
<use xlink:href="#f0_g" transform="matrix(12,0,0,12,257.4,127.1)" />
<use xlink:href="#f0_h" transform="matrix(12,0,0,12,269.9,127.1)" />
<use xlink:href="#f0_9" transform="matrix(12,0,0,12,283.8,127.1)" />
<use xlink:href="#f0_p" transform="matrix(12,0,0,12,294.3,127.1)" />
<use xlink:href="#f0_g" transform="matrix(12,0,0,12,305.2,127.1)" />
<use xlink:href="#f0_q" transform="matrix(12,0,0,12,325.2,127.1)" />
<use xlink:href="#f0_f" transform="matrix(12,0,0,12,337.4,127.1)" />
<use xlink:href="#f0_e" transform="matrix(12,0,0,12,355.2,127.1)" />
<use xlink:href="#f0_h" transform="matrix(12,0,0,12,367.1,127.1)" />
<use xlink:href="#f0_n" transform="matrix(12,0,0,12,373.4,127.1)" />
<use xlink:href="#f0_4" transform="matrix(12,0,0,12,393.8,127.1)" />
<use xlink:href="#f0_3" transform="matrix(12,0,0,12,397.9,127.1)" />
<use xlink:href="#f0_e" transform="matrix(12,0,0,12,408.3,127.1)" />
<use xlink:href="#f0_7" transform="matrix(12,0,0,12,427.7,127.1)" />
<use xlink:href="#f0_d" transform="matrix(12,0,0,12,433.5,127.1)" />
<use xlink:href="#f0_q" transform="matrix(12,0,0,12,438.5,127.1)" />
<use xlink:href="#f0_a" transform="matrix(12,0,0,12,450.7,127.1)" />
<use xlink:href="#f0_c" transform="matrix(12,0,0,12,455.8,127.1)" />
<use xlink:href="#f0_4" transform="matrix(12,0,0,12,475.1,127.1)" />
<use xlink:href="#f0_6" transform="matrix(12,0,0,12,479.2,127.1)" />
<use xlink:href="#f0_q" transform="matrix(12,0,0,12,486.6,127.1)" />
<use xlink:href="#f0_8" transform="matrix(12,0,0,12,506.1,127.1)" />
<use xlink:href="#f0_q" transform="matrix(12,0,0,12,518.3,127.1)" />
<use xlink:href="#f0_7" transform="matrix(12,0,0,12,538,127.1)" />
<use xlink:href="#f0_r" transform="matrix(12,0,0,12,543.8,127.1)" />
<use xlink:href="#f0_a" transform="matrix(12,0,0,12,555.8,127.1)" />
<use xlink:href="#f0_q" transform="matrix(12,0,0,12,560.8,127.1)" />
<use xlink:href="#f0_g" transform="matrix(12,0,0,12,573.1,127.1)" />
<use xlink:href="#f0_s" transform="matrix(12,0,0,12,585.6,127.1)" />
<use xlink:href="#f0_a" transform="matrix(12,0,0,12,593.1,127.1)" />
<use xlink:href="#f0_b" transform="matrix(12,0,0,12,598.1,127.1)" />
<use xlink:href="#f0_e" transform="matrix(12,0,0,12,608,127.1)" />
<use xlink:href="#f0_g" transform="matrix(12,0,0,12,619.9,127.1)" />
<use xlink:href="#f0_r" transform="matrix(12,0,0,12,639.9,127.1)" />
<use xlink:href="#f0_a" transform="matrix(12,0,0,12,651.8,127.1)" />
<use xlink:href="#f0_q" transform="matrix(12,0,0,12,656.8,127.1)" />
<use xlink:href="#f0_3" transform="matrix(12,0,0,12,669.1,127.1)" />
<use xlink:href="#f0_f" transform="matrix(12,0,0,12,679.4,127.1)" />
<use xlink:href="#f0_d" transform="matrix(12,0,0,12,697.3,127.1)" />
<use xlink:href="#f0_r" transform="matrix(12,0,0,12,702.3,127.1)" />
<use xlink:href="#f0_4" transform="matrix(12,0,0,12,714.2,127.1)" />
<use xlink:href="#f0_6" transform="matrix(12,0,0,12,718.3,127.1)" />
<use xlink:href="#f0_n" transform="matrix(12,0,0,12,725.7,127.1)" />
<use xlink:href="#f0_4" transform="matrix(12,0,0,12,746.1,127.1)" />
<use xlink:href="#f0_j" transform="matrix(12,0,0,12,750.2,127.1)" />
<use xlink:href="#f0_5" transform="matrix(12,0,0,12,761.6,127.1)" />
<use xlink:href="#f0_f" transform="matrix(12,0,0,12,723.3,148.5)" />
<use xlink:href="#f0_m" transform="matrix(12,0,0,12,733.7,148.5)" />
<use xlink:href="#f0_a" transform="matrix(12,0,0,12,745.1,148.5)" />
<use xlink:href="#f0_j" transform="matrix(12,0,0,12,750.1,148.5)" />
<use xlink:href="#f0_9" transform="matrix(12,0,0,12,761.6,148.5)" />
<use xlink:href="#f1_d" transform="matrix(11,0,0,11,697.6,148.5)" />
<use xlink:href="#f1_a" transform="matrix(11,0,0,11,704,148.5)" />
<use xlink:href="#f1_b" transform="matrix(11,0,0,11,711.5,148.5)" />
<use xlink:href="#f0_o" transform="matrix(12,0,0,12,324.8,148.5)" />
<use xlink:href="#f0_r" transform="matrix(12,0,0,12,330.6,148.5)" />
<use xlink:href="#f0_a" transform="matrix(12,0,0,12,342.7,148.5)" />
<use xlink:href="#f0_4" transform="matrix(12,0,0,12,347.7,148.5)" />
<use xlink:href="#f0_x" transform="matrix(12,0,0,12,351.8,148.5)" />
<use xlink:href="#f0_j" transform="matrix(12,0,0,12,363.6,148.5)" />
<use xlink:href="#f0_g" transform="matrix(12,0,0,12,375,148.5)" />
<use xlink:href="#f0_4" transform="matrix(12,0,0,12,387.5,148.5)" />
<use xlink:href="#f0_l" transform="matrix(12,0,0,12,391.6,148.5)" />
<use xlink:href="#f0_5" transform="matrix(12,0,0,12,403.5,148.5)" />
<use xlink:href="#f0_4" transform="matrix(12,0,0,12,418.9,148.5)" />
<use xlink:href="#f0_j" transform="matrix(12,0,0,12,423.1,148.5)" />
<use xlink:href="#f0_a" transform="matrix(12,0,0,12,434.5,148.5)" />
<use xlink:href="#f0_q" transform="matrix(12,0,0,12,439.5,148.5)" />
<use xlink:href="#f0_r" transform="matrix(12,0,0,12,457.6,148.5)" />
<use xlink:href="#f0_6" transform="matrix(12,0,0,12,469.6,148.5)" />
<use xlink:href="#f0_a" transform="matrix(12,0,0,12,476.9,148.5)" />
<use xlink:href="#f0_5" transform="matrix(12,0,0,12,482,148.5)" />
<use xlink:href="#f0_r" transform="matrix(12,0,0,12,491.6,148.5)" />
<use xlink:href="#f0_f" transform="matrix(12,0,0,12,509.4,148.5)" />
<use xlink:href="#f0_m" transform="matrix(12,0,0,12,519.8,148.5)" />
<use xlink:href="#f0_b" transform="matrix(12,0,0,12,537.1,148.5)" />
<use xlink:href="#f0_4" transform="matrix(12,0,0,12,547.2,148.5)" />
<use xlink:href="#f0_m" transform="matrix(12,0,0,12,551.3,148.5)" />
<use xlink:href="#f0_g" transform="matrix(12,0,0,12,562.6,148.5)" />
<use xlink:href="#f0_4" transform="matrix(12,0,0,12,581,148.5)" />
<use xlink:href="#f0_6" transform="matrix(12,0,0,12,585.1,148.5)" />
<use xlink:href="#f0_q" transform="matrix(12,0,0,12,592.5,148.5)" />
<use xlink:href="#f0_8" transform="matrix(12,0,0,12,610.5,148.5)" />
<use xlink:href="#f0_q" transform="matrix(12,0,0,12,622.7,148.5)" />
<use xlink:href="#f0_8" transform="matrix(12,0,0,12,640.8,148.5)" />
<use xlink:href="#f0_s" transform="matrix(12,0,0,12,653,148.5)" />
<use xlink:href="#f0_t" transform="matrix(12,0,0,12,666.4,148.5)" />
<use xlink:href="#f0_5" transform="matrix(12,0,0,12,676.2,148.5)" />
<use xlink:href="#f0_o" transform="matrix(12,0,0,12,691.6,148.5)" />
<use xlink:href="#f0_f" transform="matrix(12,0,0,12,206.7,169.9)" />
<use xlink:href="#f0_m" transform="matrix(12,0,0,12,217.1,169.9)" />
<use xlink:href="#f0_a" transform="matrix(12,0,0,12,228.5,169.9)" />
<use xlink:href="#f0_j" transform="matrix(12,0,0,12,233.6,169.9)" />
<use xlink:href="#f0_9" transform="matrix(12,0,0,12,245,169.9)" />
<use xlink:href="#f0_n" transform="matrix(12,0,0,12,261.5,169.9)" />
<use xlink:href="#f0_g" transform="matrix(12,0,0,12,274.5,169.9)" />
<use xlink:href="#f0_r" transform="matrix(12,0,0,12,287,169.9)" />
<use xlink:href="#f0_n" transform="matrix(12,0,0,12,299,169.9)" />
<use xlink:href="#f0_6" transform="matrix(12,0,0,12,312,169.9)" />
<use xlink:href="#f0_d" transform="matrix(12,0,0,12,325.3,169.9)" />
<use xlink:href="#f0_5" transform="matrix(12,0,0,12,330.3,169.9)" />
<use xlink:href="#f0_f" transform="matrix(12,0,0,12,339.9,169.9)" />
<use xlink:href="#f0_a" transform="matrix(12,0,0,12,350.3,169.9)" />
<use xlink:href="#f0_r" transform="matrix(12,0,0,12,361.3,169.9)" />
<use xlink:href="#f0_a" transform="matrix(12,0,0,12,373.3,169.9)" />
<use xlink:href="#f0_6" transform="matrix(12,0,0,12,378.3,169.9)" />
<use xlink:href="#f0_r" transform="matrix(12,0,0,12,385.7,169.9)" />
<use xlink:href="#f0_n" transform="matrix(12,0,0,12,397.7,169.9)" />
<use xlink:href="#f0_e" transform="matrix(12,0,0,12,410.7,169.9)" />
<use xlink:href="#f0_f" transform="matrix(12,0,0,12,422.6,169.9)" />
<use xlink:href="#f0_f" transform="matrix(12,0,0,12,439,169.9)" />
<use xlink:href="#f0_a" transform="matrix(12,0,0,12,449.3,169.9)" />
<use xlink:href="#f0_5" transform="matrix(12,0,0,12,454.4,169.9)" />
<use xlink:href="#f0_4" transform="matrix(12,0,0,12,464,169.9)" />
<use xlink:href="#f0_n" transform="matrix(12,0,0,12,468.1,169.9)" />
<use xlink:href="#f0_4" transform="matrix(12,0,0,12,487,169.9)" />
<use xlink:href="#f0_6" transform="matrix(12,0,0,12,491.1,169.9)" />
<use xlink:href="#f0_g" transform="matrix(12,0,0,12,498.5,169.9)" />
<use xlink:href="#f0_h" transform="matrix(12,0,0,12,510.9,169.9)" />
<use xlink:href="#f0_9" transform="matrix(12,0,0,12,523.3,169.9)" />
<use xlink:href="#f0_p" transform="matrix(12,0,0,12,533.9,169.9)" />
<use xlink:href="#f0_g" transform="matrix(12,0,0,12,544.6,169.9)" />
<use xlink:href="#f0_e" transform="matrix(12,0,0,12,563.2,169.9)" />
<use xlink:href="#f0_h" transform="matrix(12,0,0,12,575.1,169.9)" />
<use xlink:href="#f0_7" transform="matrix(12,0,0,12,587.6,169.9)" />
<use xlink:href="#f0_v" transform="matrix(12,0,0,12,593.4,169.9)" />
<use xlink:href="#f0_9" transform="matrix(12,0,0,12,601.8,169.9)" />
<use xlink:href="#f0_a" transform="matrix(12,0,0,12,612.3,169.9)" />
<use xlink:href="#f0_p" transform="matrix(12,0,0,12,617.2,169.9)" />
<use xlink:href="#f0_m" transform="matrix(12,0,0,12,628.1,169.9)" />
<use xlink:href="#f0_4" transform="matrix(12,0,0,12,645.6,169.9)" />
<use xlink:href="#f0_6" transform="matrix(12,0,0,12,649.7,169.9)" />
<use xlink:href="#f0_q" transform="matrix(12,0,0,12,657,169.9)" />
<use xlink:href="#f0_v" transform="matrix(12,0,0,12,669.3,169.9)" />
<use xlink:href="#f0_r" transform="matrix(12,0,0,12,683.6,169.9)" />
<use xlink:href="#f0_q" transform="matrix(12,0,0,12,695.7,169.9)" />
<use xlink:href="#f0_h" transform="matrix(12,0,0,12,707.9,169.9)" />
<use xlink:href="#f0_r" transform="matrix(12,0,0,12,720.2,169.9)" />
<use xlink:href="#f0_g" transform="matrix(12,0,0,12,732.3,169.9)" />
<use xlink:href="#f0_a" transform="matrix(12,0,0,12,744.7,169.9)" />
<use xlink:href="#f0_m" transform="matrix(12,0,0,12,749.7,169.9)" />
<use xlink:href="#f0_f" transform="matrix(12,0,0,12,761.1,169.9)" />
<use xlink:href="#f1_a" transform="matrix(11,0,0,11,168.7,169.9)" />
<use xlink:href="#f1_d" transform="matrix(11,0,0,11,176.1,169.9)" />
<use xlink:href="#f1_9" transform="matrix(11,0,0,11,182.7,169.9)" />
<use xlink:href="#f1_2" transform="matrix(11,0,0,11,187.3,169.9)" />
<use xlink:href="#f1_b" transform="matrix(11,0,0,11,194.7,169.9)" />
<use xlink:href="#f0_t" transform="matrix(12,0,0,12,137.5,169.9)" />
<use xlink:href="#f0_5" transform="matrix(12,0,0,12,147.3,169.9)" />
<use xlink:href="#f0_o" transform="matrix(12,0,0,12,163,169.9)" />
<use xlink:href="#f0_o" transform="matrix(12,0,0,12,562.7,191.3)" />
<use xlink:href="#f0_8" transform="matrix(12,0,0,12,568.5,191.3)" />
<use xlink:href="#f0_a" transform="matrix(12,0,0,12,580.7,191.3)" />
<use xlink:href="#f0_i" transform="matrix(12,0,0,12,585.7,191.3)" />
<use xlink:href="#f0_4" transform="matrix(12,0,0,12,598.7,191.3)" />
<use xlink:href="#f0_g" transform="matrix(12,0,0,12,602.7,191.3)" />
<use xlink:href="#f0_f" transform="matrix(12,0,0,12,621,191.3)" />
<use xlink:href="#f0_m" transform="matrix(12,0,0,12,631.4,191.3)" />
<use xlink:href="#f0_b" transform="matrix(12,0,0,12,648.8,191.3)" />
<use xlink:href="#f0_4" transform="matrix(12,0,0,12,658.7,191.3)" />
<use xlink:href="#f0_m" transform="matrix(12,0,0,12,662.8,191.3)" />
<use xlink:href="#f0_g" transform="matrix(12,0,0,12,674.3,191.3)" />
<use xlink:href="#f0_4" transform="matrix(12,0,0,12,692.6,191.3)" />
<use xlink:href="#f0_6" transform="matrix(12,0,0,12,696.7,191.3)" />
<use xlink:href="#f0_q" transform="matrix(12,0,0,12,704,191.3)" />
<use xlink:href="#f0_8" transform="matrix(12,0,0,12,722.1,191.3)" />
<use xlink:href="#f0_q" transform="matrix(12,0,0,12,734.3,191.3)" />
<use xlink:href="#f0_8" transform="matrix(12,0,0,12,752.3,191.3)" />
<use xlink:href="#f0_s" transform="matrix(12,0,0,12,764.5,191.3)" />
<use xlink:href="#f2_f" transform="matrix(16,0,0,16,667.8,236.8)" />
<use xlink:href="#f2_2" transform="matrix(16,0,0,16,686.4,236.8)" />
<use xlink:href="#f2_8" transform="matrix(16,0,0,16,702.1,236.8)" />
<use xlink:href="#f2_13" transform="matrix(16,0,0,16,708.8,236.8)" />
<use xlink:href="#f2_9" transform="matrix(16,0,0,16,726.5,236.8)" />
<use xlink:href="#f2_10" transform="matrix(16,0,0,16,733,236.8)" />
<use xlink:href="#f2_8" transform="matrix(16,0,0,16,748,236.8)" />
<use xlink:href="#f2_13" transform="matrix(16,0,0,16,754.7,236.8)" />
<use xlink:href="#f2_n" transform="matrix(16,0,0,16,628.7,236.8)" />
<use xlink:href="#f2_k" transform="matrix(16,0,0,16,638.6,236.8)" />
<use xlink:href="#f2_u" transform="matrix(16,0,0,16,649.7,236.8)" />
<use xlink:href="#f3_7" transform="matrix(12,0,0,12,523.3,278.4)" />
<use xlink:href="#f3_8" transform="matrix(12,0,0,12,535.8,278.4)" />
<use xlink:href="#f3_9" transform="matrix(12,0,0,12,542.1,278.4)" />
<use xlink:href="#f3_f" transform="matrix(12,0,0,12,547.4,278.4)" />
<use xlink:href="#f3_9" transform="matrix(12,0,0,12,559.8,278.4)" />
<use xlink:href="#f3_5" transform="matrix(12,0,0,12,565.1,278.4)" />
<use xlink:href="#f3_7" transform="matrix(12,0,0,12,583.7,278.4)" />
<use xlink:href="#f3_8" transform="matrix(12,0,0,12,596.2,278.4)" />
<use xlink:href="#f3_i" transform="matrix(12,0,0,12,602.5,278.4)" />
<use xlink:href="#f3_8" transform="matrix(12,0,0,12,610.8,278.4)" />
<use xlink:href="#f3_o" transform="matrix(12,0,0,12,617,278.4)" />
<use xlink:href="#f3_7" transform="matrix(12,0,0,12,627.4,278.4)" />
<use xlink:href="#f3_8" transform="matrix(12,0,0,12,646.3,278.4)" />
<use xlink:href="#f3_d" transform="matrix(12,0,0,12,652.6,278.4)" />
<use xlink:href="#f3_9" transform="matrix(12,0,0,12,672.4,278.4)" />
<use xlink:href="#f3_5" transform="matrix(12,0,0,12,677.8,278.4)" />
<use xlink:href="#f3_8" transform="matrix(12,0,0,12,689.8,278.4)" />
<use xlink:href="#f3_d" transform="matrix(12,0,0,12,696.1,278.4)" />
<use xlink:href="#f3_7" transform="matrix(12,0,0,12,715.8,278.4)" />
<use xlink:href="#f3_8" transform="matrix(12,0,0,12,728.3,278.4)" />
<use xlink:href="#f3_i" transform="matrix(12,0,0,12,734.6,278.4)" />
<use xlink:href="#f3_8" transform="matrix(12,0,0,12,742.8,278.4)" />
<use xlink:href="#f3_o" transform="matrix(12,0,0,12,749.1,278.4)" />
<use xlink:href="#f3_7" transform="matrix(12,0,0,12,759.5,278.4)" />
</g>
</g>
<path d="M128.6,283.2H670M128.6,305.3H670M128.6,327.5H670M128.6,349.6H670M128.9,282.8V350M399.2,282.8V350M669.6,282.8V350" class="g0_8" />
<g clip-path="url(#c0_8)">
<g fill="#000000" >
<use xlink:href="#f0_4" transform="matrix(12,0,0,12,610.3,300.5)" />
<use xlink:href="#f0_6" transform="matrix(12,0,0,12,614.5,300.5)" />
<use xlink:href="#f0_b" transform="matrix(12,0,0,12,621.6,300.5)" />
<use xlink:href="#f0_4" transform="matrix(12,0,0,12,637.7,300.5)" />
<use xlink:href="#f0_6" transform="matrix(12,0,0,12,641.8,300.5)" />
<use xlink:href="#f0_q" transform="matrix(12,0,0,12,649.1,300.5)" />
<use xlink:href="#f1_1j" transform="matrix(11,0,0,11,137.7,299.1)" />
<use xlink:href="#f1_i" transform="matrix(11,0,0,11,149.7,299.1)" />
<use xlink:href="#f2_n" transform="matrix(11,0,0,11,162.4,299.1)" />
<use xlink:href="#f2_m" transform="matrix(11,0,0,11,169,299.1)" />
<use xlink:href="#f2_j" transform="matrix(11,0,0,11,177.4,299.1)" />
<use xlink:href="#f1_n" transform="matrix(11,0,0,11,190,299.1)" />
<use xlink:href="#f1_2" transform="matrix(11,0,0,11,198.4,299.1)" />
<use xlink:href="#f1_8" transform="matrix(11,0,0,11,205.9,299.1)" />
<use xlink:href="#f1_4" transform="matrix(11,0,0,11,214.2,299.1)" />
<use xlink:href="#f0_e" transform="matrix(12,0,0,12,511.3,322.7)" />
<use xlink:href="#f0_f" transform="matrix(12,0,0,12,523.3,322.7)" />
<use xlink:href="#f0_a" transform="matrix(12,0,0,12,533.7,322.7)" />
<use xlink:href="#f0_f" transform="matrix(12,0,0,12,538.7,322.7)" />
<use xlink:href="#f0_f" transform="matrix(12,0,0,12,554.9,322.7)" />
<use xlink:href="#f0_n" transform="matrix(12,0,0,12,565.3,322.7)" />
<use xlink:href="#f0_q" transform="matrix(12,0,0,12,584.2,322.7)" />
<use xlink:href="#f0_9" transform="matrix(12,0,0,12,596.4,322.7)" />
<use xlink:href="#f0_q" transform="matrix(12,0,0,12,607,322.7)" />
<use xlink:href="#f0_e" transform="matrix(12,0,0,12,625.1,322.7)" />
<use xlink:href="#f0_r" transform="matrix(12,0,0,12,637.1,322.7)" />
<use xlink:href="#f0_q" transform="matrix(12,0,0,12,649.1,322.7)" />
<use xlink:href="#f1_1l" transform="matrix(11,0,0,11,137.7,321.3)" />
<use xlink:href="#f1_1g" transform="matrix(11,0,0,11,147.9,321.3)" />
<use xlink:href="#f2_k" transform="matrix(11,0,0,11,160.6,321.3)" />
<use xlink:href="#f2_u" transform="matrix(11,0,0,11,167.9,321.3)" />
<use xlink:href="#f2_k" transform="matrix(11,0,0,11,175.4,321.3)" />
<use xlink:href="#f2_n" transform="matrix(11,0,0,11,182.8,321.3)" />
<use xlink:href="#f1_a" transform="matrix(11,0,0,11,193.7,321.3)" />
<use xlink:href="#f1_e" transform="matrix(11,0,0,11,201,321.3)" />
<use xlink:href="#f1_t" transform="matrix(11,0,0,11,210,321.3)" />
<use xlink:href="#f1_2" transform="matrix(11,0,0,11,218.4,321.3)" />
<use xlink:href="#f1_n" transform="matrix(11,0,0,11,225.9,321.3)" />
<use xlink:href="#f1_b" transform="matrix(11,0,0,11,234.1,321.3)" />
<use xlink:href="#f1_a" transform="matrix(11,0,0,11,239.8,321.3)" />
<use xlink:href="#f1_n" transform="matrix(11,0,0,11,251.5,321.3)" />
<use xlink:href="#f1_a" transform="matrix(11,0,0,11,259.8,321.3)" />
<use xlink:href="#f1_1m" transform="matrix(11,0,0,11,275.6,321.3)" />
<use xlink:href="#f1_i" transform="matrix(11,0,0,11,285.8,321.3)" />
<use xlink:href="#f1_e" transform="matrix(11,0,0,11,294.2,321.3)" />
<use xlink:href="#f1_2" transform="matrix(11,0,0,11,299,321.3)" />
<use xlink:href="#f1_12" transform="matrix(6.4,0,0,6.4,306.6,314.7)" />
<use xlink:href="#f0_10" transform="matrix(12,0,0,12,574,344.8)" />
<use xlink:href="#f0_e" transform="matrix(12,0,0,12,587.1,344.8)" />
<use xlink:href="#f0_3" transform="matrix(12,0,0,12,599,344.8)" />
<use xlink:href="#f0_b" transform="matrix(12,0,0,12,609.4,344.8)" />
<use xlink:href="#f0_6" transform="matrix(12,0,0,12,619.5,344.8)" />
<use xlink:href="#f0_c" transform="matrix(12,0,0,12,626.8,344.8)" />
<use xlink:href="#f0_f" transform="matrix(12,0,0,12,638.7,344.8)" />
<use xlink:href="#f0_q" transform="matrix(12,0,0,12,649.1,344.8)" />
<use xlink:href="#f3_d" transform="matrix(12,0,0,12,543,344.8)" />
<use xlink:href="#f3_9" transform="matrix(12,0,0,12,556.3,344.8)" />
<use xlink:href="#f3_l" transform="matrix(12,0,0,12,561.6,344.8)" />
<use xlink:href="#f0_r" transform="matrix(12,0,0,12,458.9,344.8)" />
<use xlink:href="#f0_4" transform="matrix(12,0,0,12,471,344.8)" />
<use xlink:href="#f0_6" transform="matrix(12,0,0,12,475.1,344.8)" />
<use xlink:href="#f0_4" transform="matrix(12,0,0,12,482.4,344.8)" />
<use xlink:href="#f0_b" transform="matrix(12,0,0,12,486.4,344.8)" />
<use xlink:href="#f0_6" transform="matrix(12,0,0,12,496.5,344.8)" />
<use xlink:href="#f0_a" transform="matrix(12,0,0,12,503.8,344.8)" />
<use xlink:href="#f0_f" transform="matrix(12,0,0,12,508.8,344.8)" />
<use xlink:href="#f0_9" transform="matrix(12,0,0,12,519.2,344.8)" />
<use xlink:href="#f0_11" transform="matrix(12,0,0,12,535.6,344.8)" />
<use xlink:href="#f1_1n" transform="matrix(11,0,0,11,137.7,343.4)" />
<use xlink:href="#f1_e" transform="matrix(11,0,0,11,149.7,343.4)" />
<use xlink:href="#f1_a" transform="matrix(11,0,0,11,154.4,343.4)" />
<use xlink:href="#f1_u" transform="matrix(11,0,0,11,161.9,343.4)" />
<use xlink:href="#f1_2" transform="matrix(11,0,0,11,166.6,343.4)" />
<use xlink:href="#f1_8" transform="matrix(11,0,0,11,174.1,343.4)" />
<use xlink:href="#f1_n" transform="matrix(11,0,0,11,182.5,343.4)" />
<use xlink:href="#f1_b" transform="matrix(11,0,0,11,190.7,343.4)" />
<use xlink:href="#f1_2" transform="matrix(11,0,0,11,196.4,343.4)" />
<use xlink:href="#f2_k" transform="matrix(11,0,0,11,208.2,343.4)" />
<use xlink:href="#f2_n" transform="matrix(11,0,0,11,215.6,343.4)" />
<use xlink:href="#f1_b" transform="matrix(11,0,0,11,226.4,343.4)" />
<use xlink:href="#f1_k" transform="matrix(11,0,0,11,231.9,343.4)" />
<use xlink:href="#f1_p" transform="matrix(11,0,0,11,240.3,343.4)" />
<use xlink:href="#f1_4" transform="matrix(11,0,0,11,248.7,343.4)" />
<use xlink:href="#f1_2" transform="matrix(11,0,0,11,253.4,343.4)" />
<use xlink:href="#f3_7" transform="matrix(12,0,0,12,672.4,386.4)" />
<use xlink:href="#f3_b" transform="matrix(12,0,0,12,684.9,386.4)" />
<use xlink:href="#f3_e" transform="matrix(12,0,0,12,702.1,386.4)" />
<use xlink:href="#f3_7" transform="matrix(12,0,0,12,709.1,386.4)" />
<use xlink:href="#f3_8" transform="matrix(12,0,0,12,721.7,386.4)" />
<use xlink:href="#f3_p" transform="matrix(12,0,0,12,727.9,386.4)" />
<use xlink:href="#f3_4" transform="matrix(12,0,0,12,740.4,386.4)" />
<use xlink:href="#f3_w" transform="matrix(12,0,0,12,751.4,386.4)" />
<use xlink:href="#f3_d" transform="matrix(12,0,0,12,758.8,386.4)" />
</g>
</g>
<path d="M128.6,391H670M128.6,413.2H670M128.9,390.7v22.9M399.2,390.7v22.9M669.6,390.7v22.9" class="g0_8" />
<g clip-path="url(#c0_8)">
<g fill="#000000" >
<use xlink:href="#f0_r" transform="matrix(12,0,0,12,575.1,408.5)" />
<use xlink:href="#f0_4" transform="matrix(12,0,0,12,587.1,408.5)" />
<use xlink:href="#f0_6" transform="matrix(12,0,0,12,591.2,408.5)" />
<use xlink:href="#f0_9" transform="matrix(12,0,0,12,598.5,408.5)" />
<use xlink:href="#f0_a" transform="matrix(12,0,0,12,609.1,408.5)" />
<use xlink:href="#f0_i" transform="matrix(12,0,0,12,614.1,408.5)" />
<use xlink:href="#f0_q" transform="matrix(12,0,0,12,633,408.5)" />
<use xlink:href="#f0_4" transform="matrix(12,0,0,12,645.3,408.5)" />
<use xlink:href="#f0_e" transform="matrix(12,0,0,12,649.4,408.5)" />
<use xlink:href="#f1_1o" transform="matrix(11,0,0,11,137.7,407.2)" />
<use xlink:href="#f1_e" transform="matrix(11,0,0,11,147.9,407.2)" />
<use xlink:href="#f1_e" transform="matrix(11,0,0,11,152.6,407.2)" />
<use xlink:href="#f1_2" transform="matrix(11,0,0,11,157.2,407.2)" />
<use xlink:href="#f2_k" transform="matrix(11,0,0,11,169,407.2)" />
<use xlink:href="#f2_n" transform="matrix(11,0,0,11,176.3,407.2)" />
<use xlink:href="#f1_l" transform="matrix(11,0,0,11,187.1,407.2)" />
<use xlink:href="#f1_k" transform="matrix(11,0,0,11,194.6,407.2)" />
<use xlink:href="#f1_p" transform="matrix(11,0,0,11,203,407.2)" />
<use xlink:href="#f1_2" transform="matrix(11,0,0,11,211.3,407.2)" />
<use xlink:href="#f1_8" transform="matrix(11,0,0,11,218.7,407.2)" />
<use xlink:href="#f1_2" transform="matrix(11,0,0,11,227.1,407.2)" />
<use xlink:href="#f3_7" transform="matrix(12,0,0,12,696.2,449.9)" />
<use xlink:href="#f3_8" transform="matrix(12,0,0,12,708.7,449.9)" />
<use xlink:href="#f3_u" transform="matrix(12,0,0,12,715,449.9)" />
<use xlink:href="#f3_8" transform="matrix(12,0,0,12,727.2,449.9)" />
<use xlink:href="#f3_s" transform="matrix(12,0,0,12,733.5,449.9)" />
<use xlink:href="#f3_3" transform="matrix(12,0,0,12,745.4,449.9)" />
<use xlink:href="#f3_j" transform="matrix(12,0,0,12,758.8,449.9)" />
</g>
</g>
<path d="M128.6,454.7H670M128.6,476.9H670M128.9,454.4v22.9M399.2,454.4v22.9M669.6,454.4v22.9" class="g0_8" />
<g clip-path="url(#c0_8)">
<g fill="#000000" >
<use xlink:href="#f0_e" transform="matrix(12,0,0,12,586.5,472.1)" />
<use xlink:href="#f0_3" transform="matrix(12,0,0,12,598.4,472.1)" />
<use xlink:href="#f0_a" transform="matrix(12,0,0,12,608.8,472.1)" />
<use xlink:href="#f0_g" transform="matrix(12,0,0,12,613.7,472.1)" />
<use xlink:href="#f0_q" transform="matrix(12,0,0,12,632.1,472.1)" />
<use xlink:href="#f0_a" transform="matrix(12,0,0,12,644.4,472.1)" />
<use xlink:href="#f0_e" transform="matrix(12,0,0,12,649.4,472.1)" />
<use xlink:href="#f1_1p" transform="matrix(11,0,0,11,137.7,470.7)" />
<use xlink:href="#f1_e" transform="matrix(11,0,0,11,147.9,470.7)" />
<use xlink:href="#f2_k" transform="matrix(11,0,0,11,156.9,470.7)" />
<use xlink:href="#f2_n" transform="matrix(11,0,0,11,164.2,470.7)" />
<use xlink:href="#f1_m" transform="matrix(11,0,0,11,175.1,470.7)" />
<use xlink:href="#f1_2" transform="matrix(11,0,0,11,188.1,470.7)" />
<use xlink:href="#f1_a" transform="matrix(11,0,0,11,195.5,470.7)" />
<use xlink:href="#f1_d" transform="matrix(11,0,0,11,203,470.7)" />
<use xlink:href="#f1_9" transform="matrix(11,0,0,11,209.4,470.7)" />
<use xlink:href="#f1_b" transform="matrix(11,0,0,11,214.1,470.7)" />
<use xlink:href="#f1_i" transform="matrix(11,0,0,11,219.8,470.7)" />
<use xlink:href="#f3_a" transform="matrix(12,0,0,12,701.8,515.2)" />
<use xlink:href="#f3_q" transform="matrix(12,0,0,12,719.4,515.2)" />
<use xlink:href="#f3_8" transform="matrix(12,0,0,12,733.3,515.2)" />
<use xlink:href="#f3_j" transform="matrix(12,0,0,12,739.6,515.2)" />
<use xlink:href="#f3_9" transform="matrix(12,0,0,12,752.8,515.2)" />
<use xlink:href="#f3_q" transform="matrix(12,0,0,12,758.2,515.2)" />
<use xlink:href="#f4_4" transform="matrix(13,0,0,13,671.5,515.2)" />
<use xlink:href="#f4_9" transform="matrix(13,0,0,13,684.1,515.2)" />
<use xlink:href="#f3_7" transform="matrix(12,0,0,12,310.9,515.2)" />
<use xlink:href="#f3_9" transform="matrix(12,0,0,12,323.4,515.2)" />
<use xlink:href="#f3_4" transform="matrix(12,0,0,12,328.8,515.2)" />
<use xlink:href="#f3_a" transform="matrix(12,0,0,12,339.8,515.2)" />
<use xlink:href="#f3_u" transform="matrix(12,0,0,12,350.9,515.2)" />
<use xlink:href="#f3_a" transform="matrix(12,0,0,12,363.1,515.2)" />
<use xlink:href="#f3_x" transform="matrix(12,0,0,12,380.7,515.2)" />
<use xlink:href="#f3_l" transform="matrix(12,0,0,12,390.2,515.2)" />
<use xlink:href="#f3_w" transform="matrix(12,0,0,12,402.7,515.2)" />
<use xlink:href="#f3_x" transform="matrix(12,0,0,12,410,515.2)" />
<use xlink:href="#f3_l" transform="matrix(12,0,0,12,426,515.2)" />
<use xlink:href="#f3_c" transform="matrix(12,0,0,12,438.5,515.2)" />
<use xlink:href="#f3_9" transform="matrix(12,0,0,12,449.7,515.2)" />
<use xlink:href="#f3_j" transform="matrix(12,0,0,12,455,515.2)" />
<use xlink:href="#f3_l" transform="matrix(12,0,0,12,468.3,515.2)" />
<use xlink:href="#f3_8" transform="matrix(12,0,0,12,487.2,515.2)" />
<use xlink:href="#f3_j" transform="matrix(12,0,0,12,493.5,515.2)" />
<use xlink:href="#f3_o" transform="matrix(12,0,0,12,506.8,515.2)" />
<use xlink:href="#f3_y" transform="matrix(12,0,0,12,523.5,515.2)" />
<use xlink:href="#f3_7" transform="matrix(12,0,0,12,539.1,515.2)" />
<use xlink:href="#f3_9" transform="matrix(12,0,0,12,551.6,515.2)" />
<use xlink:href="#f3_c" transform="matrix(12,0,0,12,557,515.2)" />
<use xlink:href="#f3_c" transform="matrix(12,0,0,12,568.1,515.2)" />
<use xlink:href="#f3_o" transform="matrix(12,0,0,12,579.1,515.2)" />
<use xlink:href="#f3_l" transform="matrix(12,0,0,12,595.9,515.2)" />
<use xlink:href="#f3_q" transform="matrix(12,0,0,12,608.4,515.2)" />
<use xlink:href="#f3_k" transform="matrix(12,0,0,12,622.3,515.2)" />
<use xlink:href="#f3_b" transform="matrix(12,0,0,12,630.5,515.2)" />
<use xlink:href="#f3_l" transform="matrix(12,0,0,12,641.2,515.2)" />
<use xlink:href="#f3_c" transform="matrix(12,0,0,12,653.7,515.2)" />
</g>
</g>
<path d="M128.6,520.3H670M128.6,542.4H670M128.6,564.6H670M128.9,519.9V565M399.2,519.9V565M669.6,519.9V565" class="g0_8" />
<g clip-path="url(#c0_8)">
<g fill="#000000" >
<use xlink:href="#f3_l" transform="matrix(12,0,0,12,641.5,537.8)" />
<use xlink:href="#f3_w" transform="matrix(12,0,0,12,654,537.8)" />
<use xlink:href="#f0_9" transform="matrix(12,0,0,12,595.2,537.8)" />
<use xlink:href="#f0_a" transform="matrix(12,0,0,12,605.8,537.8)" />
<use xlink:href="#f0_n" transform="matrix(12,0,0,12,610.8,537.8)" />
<use xlink:href="#f0_c" transform="matrix(12,0,0,12,623.8,537.8)" />
<use xlink:href="#f2_15" transform="matrix(11,0,0,11,137.7,536.4)" />
<use xlink:href="#f2_n" transform="matrix(11,0,0,11,148.8,536.4)" />
<use xlink:href="#f1_4" transform="matrix(11,0,0,11,159.6,536.4)" />
<use xlink:href="#f1_m" transform="matrix(11,0,0,11,164.2,536.4)" />
<use xlink:href="#f1_t" transform="matrix(11,0,0,11,177.4,536.4)" />
<use xlink:href="#f1_i" transform="matrix(11,0,0,11,185.8,536.4)" />
<use xlink:href="#f1_b" transform="matrix(11,0,0,11,194.2,536.4)" />
<use xlink:href="#f1_9" transform="matrix(11,0,0,11,199.7,536.4)" />
<use xlink:href="#f1_2" transform="matrix(11,0,0,11,204.4,536.4)" />
<use xlink:href="#f1_8" transform="matrix(11,0,0,11,211.8,536.4)" />
<use xlink:href="#f1_9" transform="matrix(11,0,0,11,220.2,536.4)" />
<use xlink:href="#f1_a" transform="matrix(11,0,0,11,224.8,536.4)" />
<use xlink:href="#f3_l" transform="matrix(12,0,0,12,641.5,559.9)" />
<use xlink:href="#f3_w" transform="matrix(12,0,0,12,654,559.9)" />
<use xlink:href="#f0_f" transform="matrix(12,0,0,12,612.3,559.9)" />
<use xlink:href="#f0_i" transform="matrix(12,0,0,12,622.7,559.9)" />
<use xlink:href="#f2_15" transform="matrix(11,0,0,11,137.7,558.6)" />
<use xlink:href="#f2_n" transform="matrix(11,0,0,11,148.8,558.6)" />
<use xlink:href="#f1_1q" transform="matrix(11,0,0,11,159.6,558.6)" />
<use xlink:href="#f1_x" transform="matrix(11,0,0,11,165.1,558.6)" />
<use xlink:href="#f1_l" transform="matrix(11,0,0,11,172.6,558.6)" />
<use xlink:href="#f1_4" transform="matrix(11,0,0,11,180.1,558.6)" />
<use xlink:href="#f1_e" transform="matrix(11,0,0,11,184.7,558.6)" />
<use xlink:href="#f2_f" transform="matrix(16,0,0,16,667.8,625.5)" />
<use xlink:href="#f2_2" transform="matrix(16,0,0,16,686.4,625.5)" />
<use xlink:href="#f2_8" transform="matrix(16,0,0,16,702.1,625.5)" />
<use xlink:href="#f2_13" transform="matrix(16,0,0,16,708.8,625.5)" />
<use xlink:href="#f2_9" transform="matrix(16,0,0,16,726.5,625.5)" />
<use xlink:href="#f2_10" transform="matrix(16,0,0,16,733,625.5)" />
<use xlink:href="#f2_8" transform="matrix(16,0,0,16,748,625.5)" />
<use xlink:href="#f2_13" transform="matrix(16,0,0,16,754.7,625.5)" />
<use xlink:href="#f2_k" transform="matrix(16,0,0,16,607.6,625.5)" />
<use xlink:href="#f2_n" transform="matrix(16,0,0,16,618.9,625.5)" />
<use xlink:href="#f2_w" transform="matrix(16,0,0,16,628.6,625.5)" />
<use xlink:href="#f2_d" transform="matrix(16,0,0,16,637.2,625.5)" />
<use xlink:href="#f2_u" transform="matrix(16,0,0,16,649.7,625.5)" />
<use xlink:href="#f3_n" transform="matrix(12,0,0,12,545,671.2)" />
<use xlink:href="#f3_9" transform="matrix(12,0,0,12,557.8,671.2)" />
<use xlink:href="#f3_9" transform="matrix(12,0,0,12,563.1,671.2)" />
<use xlink:href="#f3_p" transform="matrix(12,0,0,12,568.5,671.2)" />
<use xlink:href="#f3_l" transform="matrix(12,0,0,12,581,671.2)" />
<use xlink:href="#f3_z" transform="matrix(12,0,0,12,600.1,671.2)" />
<use xlink:href="#f3_4" transform="matrix(12,0,0,12,610.6,671.2)" />
<use xlink:href="#f3_8" transform="matrix(12,0,0,12,621.6,671.2)" />
<use xlink:href="#f3_d" transform="matrix(12,0,0,12,627.9,671.2)" />
<use xlink:href="#f3_c" transform="matrix(12,0,0,12,641.2,671.2)" />
<use xlink:href="#f3_n" transform="matrix(12,0,0,12,658.7,671.2)" />
<use xlink:href="#f3_9" transform="matrix(12,0,0,12,671.5,671.2)" />
<use xlink:href="#f3_9" transform="matrix(12,0,0,12,676.9,671.2)" />
<use xlink:href="#f3_i" transform="matrix(12,0,0,12,682.2,671.2)" />
<use xlink:href="#f3_j" transform="matrix(12,0,0,12,690.5,671.2)" />
<use xlink:href="#f3_w" transform="matrix(12,0,0,12,703.7,671.2)" />
<use xlink:href="#f3_n" transform="matrix(12,0,0,12,717.5,671.2)" />
<use xlink:href="#f3_9" transform="matrix(12,0,0,12,730.3,671.2)" />
<use xlink:href="#f3_a" transform="matrix(12,0,0,12,735.6,671.2)" />
<use xlink:href="#f3_s" transform="matrix(12,0,0,12,746.8,671.2)" />
<use xlink:href="#f3_j" transform="matrix(12,0,0,12,758.7,671.2)" />
</g>
</g>
<path d="M128.6,676H670M128.6,698.1H670M128.6,720.3H670M128.9,675.6v45.1M399.2,675.6v45.1M669.6,675.6v45.1" class="g0_8" />
<g clip-path="url(#c0_8)">
<g fill="#000000" >
<use xlink:href="#f0_z" transform="matrix(12,0,0,12,587.9,693.3)" />
<use xlink:href="#f0_4" transform="matrix(12,0,0,12,599.5,693.3)" />
<use xlink:href="#f0_4" transform="matrix(12,0,0,12,603.6,693.3)" />
<use xlink:href="#f0_m" transform="matrix(12,0,0,12,607.7,693.3)" />
<use xlink:href="#f0_e" transform="matrix(12,0,0,12,625.1,693.3)" />
<use xlink:href="#f0_r" transform="matrix(12,0,0,12,637,693.3)" />
<use xlink:href="#f0_q" transform="matrix(12,0,0,12,649.1,693.3)" />
<use xlink:href="#f1_1l" transform="matrix(11,0,0,11,137.7,691.9)" />
<use xlink:href="#f1_1g" transform="matrix(11,0,0,11,147.9,691.9)" />
<use xlink:href="#f2_k" transform="matrix(11,0,0,11,160.6,691.9)" />
<use xlink:href="#f2_n" transform="matrix(11,0,0,11,167.9,691.9)" />
<use xlink:href="#f2_w" transform="matrix(11,0,0,11,174.5,691.9)" />
<use xlink:href="#f2_16" transform="matrix(11,0,0,11,180.1,691.9)" />
<use xlink:href="#f2_n" transform="matrix(11,0,0,11,188.5,691.9)" />
<use xlink:href="#f1_l" transform="matrix(11,0,0,11,199.2,691.9)" />
<use xlink:href="#f1_2" transform="matrix(11,0,0,11,206.7,691.9)" />
<use xlink:href="#f1_8" transform="matrix(11,0,0,11,214.1,691.9)" />
<use xlink:href="#f1_d" transform="matrix(11,0,0,11,222.5,691.9)" />
<use xlink:href="#f1_2" transform="matrix(11,0,0,11,229.1,691.9)" />
<use xlink:href="#f1_n" transform="matrix(11,0,0,11,236.6,691.9)" />
<use xlink:href="#f1_i" transform="matrix(11,0,0,11,245,691.9)" />
<use xlink:href="#f0_8" transform="matrix(12,0,0,12,590.6,715.5)" />
<use xlink:href="#f0_4" transform="matrix(12,0,0,12,602.8,715.5)" />
<use xlink:href="#f0_6" transform="matrix(12,0,0,12,607,715.5)" />
<use xlink:href="#f0_n" transform="matrix(12,0,0,12,614.3,715.5)" />
<use xlink:href="#f0_4" transform="matrix(12,0,0,12,627.1,715.5)" />
<use xlink:href="#f0_8" transform="matrix(12,0,0,12,637.2,715.5)" />
<use xlink:href="#f0_e" transform="matrix(12,0,0,12,649.4,715.5)" />
<use xlink:href="#f1_1o" transform="matrix(11,0,0,11,137.7,714.1)" />
<use xlink:href="#f1_e" transform="matrix(11,0,0,11,147.9,714.1)" />
<use xlink:href="#f1_e" transform="matrix(11,0,0,11,152.6,714.1)" />
<use xlink:href="#f1_i" transform="matrix(11,0,0,11,157.3,714.1)" />
<use xlink:href="#f1_d" transform="matrix(11,0,0,11,165.6,714.1)" />
<use xlink:href="#f2_k" transform="matrix(11,0,0,11,176.5,714.1)" />
<use xlink:href="#f2_n" transform="matrix(11,0,0,11,183.8,714.1)" />
<use xlink:href="#f2_w" transform="matrix(11,0,0,11,190.3,714.1)" />
<use xlink:href="#f2_16" transform="matrix(11,0,0,11,196,714.1)" />
<use xlink:href="#f2_b" transform="matrix(11,0,0,11,204.4,714.1)" />
<use xlink:href="#f1_n" transform="matrix(11,0,0,11,218,714.1)" />
<use xlink:href="#f1_i" transform="matrix(11,0,0,11,226.4,714.1)" />
<use xlink:href="#f1_b" transform="matrix(11,0,0,11,234.7,714.1)" />
<use xlink:href="#f1_m" transform="matrix(11,0,0,11,240.3,714.1)" />
<use xlink:href="#f1_4" transform="matrix(11,0,0,11,253.4,714.1)" />
<use xlink:href="#f1_n" transform="matrix(11,0,0,11,258.1,714.1)" />
<use xlink:href="#f1_i" transform="matrix(11,0,0,11,266.5,714.1)" />
<use xlink:href="#f1_d" transform="matrix(11,0,0,11,274.8,714.1)" />
<use xlink:href="#f3_9" transform="matrix(12,0,0,12,644.7,757)" />
<use xlink:href="#f3_5" transform="matrix(12,0,0,12,650.1,757)" />
<use xlink:href="#f3_4" transform="matrix(12,0,0,12,662.1,757)" />
<use xlink:href="#f3_k" transform="matrix(12,0,0,12,673.1,757)" />
<use xlink:href="#f3_8" transform="matrix(12,0,0,12,681.4,757)" />
<use xlink:href="#f3_d" transform="matrix(12,0,0,12,687.6,757)" />
<use xlink:href="#f3_9" transform="matrix(12,0,0,12,700.9,757)" />
<use xlink:href="#f3_k" transform="matrix(12,0,0,12,706.3,757)" />
<use xlink:href="#f3_n" transform="matrix(12,0,0,12,720.9,757)" />
<use xlink:href="#f3_8" transform="matrix(12,0,0,12,733.7,757)" />
<use xlink:href="#f3_3" transform="matrix(12,0,0,12,740,757)" />
<use xlink:href="#f3_9" transform="matrix(12,0,0,12,753.4,757)" />
<use xlink:href="#f3_j" transform="matrix(12,0,0,12,758.8,757)" />
</g>
</g>
<path d="M128.6,761.7H670M128.6,783.8H670M128.6,806H670M128.6,828.1H670M128.9,761.3v67.2M399.2,761.3v67.2M669.6,761.3v67.2" class="g0_8" />
<g clip-path="url(#c0_8)">
<g fill="#000000" >
<use xlink:href="#f0_10" transform="matrix(12,0,0,12,624.6,779.2)" />
<use xlink:href="#f0_4" transform="matrix(12,0,0,12,637.7,779.2)" />
<use xlink:href="#f0_6" transform="matrix(12,0,0,12,641.8,779.2)" />
<use xlink:href="#f0_q" transform="matrix(12,0,0,12,649.1,779.2)" />
<use xlink:href="#f3_d" transform="matrix(12,0,0,12,578,779.2)" />
<use xlink:href="#f3_s" transform="matrix(12,0,0,12,591.3,779.2)" />
<use xlink:href="#f3_j" transform="matrix(12,0,0,12,603.2,779.2)" />
<use xlink:href="#f3_i" transform="matrix(12,0,0,12,616.4,779.2)" />
<use xlink:href="#f0_d" transform="matrix(12,0,0,12,537.9,779.2)" />
<use xlink:href="#f0_q" transform="matrix(12,0,0,12,543,779.2)" />
<use xlink:href="#f0_5" transform="matrix(12,0,0,12,555.2,779.2)" />
<use xlink:href="#f0_11" transform="matrix(12,0,0,12,570.6,779.2)" />
<use xlink:href="#f1_1j" transform="matrix(11,0,0,11,137.7,777.8)" />
<use xlink:href="#f1_i" transform="matrix(11,0,0,11,149.7,777.8)" />
<use xlink:href="#f2_k" transform="matrix(11,0,0,11,162.4,777.8)" />
<use xlink:href="#f2_n" transform="matrix(11,0,0,11,169.9,777.8)" />
<use xlink:href="#f2_w" transform="matrix(11,0,0,11,176.4,777.8)" />
<use xlink:href="#f2_m" transform="matrix(11,0,0,11,182,777.8)" />
<use xlink:href="#f2_j" transform="matrix(11,0,0,11,190.5,777.8)" />
<use xlink:href="#f1_2" transform="matrix(11,0,0,11,203,777.8)" />
<use xlink:href="#f1_16" transform="matrix(11,0,0,11,210.5,777.8)" />
<use xlink:href="#f1_k" transform="matrix(11,0,0,11,218.9,777.8)" />
<use xlink:href="#f1_1r" transform="matrix(11,0,0,11,227.3,777.8)" />
<use xlink:href="#f0_10" transform="matrix(12,0,0,12,619.1,801.3)" />
<use xlink:href="#f0_q" transform="matrix(12,0,0,12,632.2,801.3)" />
<use xlink:href="#f0_a" transform="matrix(12,0,0,12,644.4,801.3)" />
<use xlink:href="#f0_e" transform="matrix(12,0,0,12,649.4,801.3)" />
<use xlink:href="#f3_d" transform="matrix(12,0,0,12,572.5,801.3)" />
<use xlink:href="#f3_s" transform="matrix(12,0,0,12,585.8,801.3)" />
<use xlink:href="#f3_j" transform="matrix(12,0,0,12,597.7,801.3)" />
<use xlink:href="#f3_i" transform="matrix(12,0,0,12,610.9,801.3)" />
<use xlink:href="#f0_a" transform="matrix(12,0,0,12,521.9,801.3)" />
<use xlink:href="#f0_3" transform="matrix(12,0,0,12,526.9,801.3)" />
<use xlink:href="#f0_j" transform="matrix(12,0,0,12,537.3,801.3)" />
<use xlink:href="#f0_9" transform="matrix(12,0,0,12,548.7,801.3)" />
<use xlink:href="#f0_11" transform="matrix(12,0,0,12,565.1,801.3)" />
<use xlink:href="#f1_1o" transform="matrix(11,0,0,11,137.7,799.9)" />
<use xlink:href="#f1_e" transform="matrix(11,0,0,11,147.9,799.9)" />
<use xlink:href="#f2_k" transform="matrix(11,0,0,11,156.9,799.9)" />
<use xlink:href="#f2_n" transform="matrix(11,0,0,11,164.2,799.9)" />
<use xlink:href="#f2_w" transform="matrix(11,0,0,11,170.8,799.9)" />
<use xlink:href="#f2_16" transform="matrix(11,0,0,11,176.4,799.9)" />
<use xlink:href="#f1_a" transform="matrix(11,0,0,11,189.1,799.9)" />
<use xlink:href="#f1_8" transform="matrix(11,0,0,11,196.6,799.9)" />
<use xlink:href="#f1_1t" transform="matrix(11,0,0,11,209.1,799.9)" />
<use xlink:href="#f1_a" transform="matrix(11,0,0,11,218.4,799.9)" />
<use xlink:href="#f1_b" transform="matrix(11,0,0,11,225.9,799.9)" />
<use xlink:href="#f1_1g" transform="matrix(11,0,0,11,231.5,799.9)" />
<use xlink:href="#f0_10" transform="matrix(12,0,0,12,609.6,823.5)" />
<use xlink:href="#f0_r" transform="matrix(12,0,0,12,622.7,823.5)" />
<use xlink:href="#f0_4" transform="matrix(12,0,0,12,634.7,823.5)" />
<use xlink:href="#f0_9" transform="matrix(12,0,0,12,638.8,823.5)" />
<use xlink:href="#f0_e" transform="matrix(12,0,0,12,649.4,823.5)" />
<use xlink:href="#f3_d" transform="matrix(12,0,0,12,563,823.5)" />
<use xlink:href="#f3_s" transform="matrix(12,0,0,12,576.3,823.5)" />
<use xlink:href="#f3_j" transform="matrix(12,0,0,12,588.2,823.5)" />
<use xlink:href="#f3_i" transform="matrix(12,0,0,12,601.5,823.5)" />
<use xlink:href="#f0_8" transform="matrix(12,0,0,12,480.2,823.5)" />
<use xlink:href="#f0_4" transform="matrix(12,0,0,12,492.4,823.5)" />
<use xlink:href="#f0_f" transform="matrix(12,0,0,12,496.5,823.5)" />
<use xlink:href="#f0_n" transform="matrix(12,0,0,12,506.9,823.5)" />
<use xlink:href="#f0_a" transform="matrix(12,0,0,12,519.9,823.5)" />
<use xlink:href="#f0_3" transform="matrix(12,0,0,12,524.8,823.5)" />
<use xlink:href="#f0_4" transform="matrix(12,0,0,12,535.1,823.5)" />
<use xlink:href="#f0_9" transform="matrix(12,0,0,12,539.3,823.5)" />
<use xlink:href="#f0_11" transform="matrix(12,0,0,12,555.6,823.5)" />
<use xlink:href="#f1_1m" transform="matrix(11,0,0,11,137.7,822.1)" />
<use xlink:href="#f1_2" transform="matrix(11,0,0,11,147.9,822.1)" />
<use xlink:href="#f1_l" transform="matrix(11,0,0,11,159.6,822.1)" />
<use xlink:href="#f1_2" transform="matrix(11,0,0,11,166.9,822.1)" />
<use xlink:href="#f1_d" transform="matrix(11,0,0,11,174.4,822.1)" />
<use xlink:href="#f1_2" transform="matrix(11,0,0,11,181,822.1)" />
<use xlink:href="#f2_k" transform="matrix(11,0,0,11,192.8,822.1)" />
<use xlink:href="#f2_n" transform="matrix(11,0,0,11,200.1,822.1)" />
<use xlink:href="#f2_w" transform="matrix(11,0,0,11,206.7,822.1)" />
<use xlink:href="#f2_16" transform="matrix(11,0,0,11,212.3,822.1)" />
<use xlink:href="#f1_a" transform="matrix(11,0,0,11,225,822.1)" />
<use xlink:href="#f1_8" transform="matrix(11,0,0,11,232.5,822.1)" />
<use xlink:href="#f1_1k" transform="matrix(11,0,0,11,245,822.1)" />
<use xlink:href="#f1_a" transform="matrix(11,0,0,11,251.6,822.1)" />
<use xlink:href="#f1_b" transform="matrix(11,0,0,11,258.9,822.1)" />
<use xlink:href="#f1_k" transform="matrix(11,0,0,11,264.5,822.1)" />
<use xlink:href="#f1_d" transform="matrix(11,0,0,11,272.9,822.1)" />
<use xlink:href="#f1_2" transform="matrix(11,0,0,11,279.5,822.1)" />
<use xlink:href="#f1_e" transform="matrix(11,0,0,11,286.9,822.1)" />
<use xlink:href="#f1_c" transform="matrix(11,0,0,11,291.7,822.1)" />
<use xlink:href="#f1_8" transform="matrix(11,0,0,11,299.1,822.1)" />
<use xlink:href="#f0_3" transform="matrix(12,0,0,12,138.1,845.6)" />
<use xlink:href="#f0_9" transform="matrix(12,0,0,12,148.5,845.6)" />
<use xlink:href="#f0_a" transform="matrix(12,0,0,12,159,845.6)" />
<use xlink:href="#f0_b" transform="matrix(12,0,0,12,163.9,845.6)" />
<use xlink:href="#f0_g" transform="matrix(12,0,0,12,174,845.6)" />
<use xlink:href="#f0_n" transform="matrix(12,0,0,12,186.4,845.6)" />
<use xlink:href="#f0_e" transform="matrix(12,0,0,12,206.6,845.6)" />
<use xlink:href="#f0_b" transform="matrix(12,0,0,12,218.6,845.6)" />
<use xlink:href="#f0_9" transform="matrix(12,0,0,12,228.6,845.6)" />
<use xlink:href="#f0_a" transform="matrix(12,0,0,12,239.2,845.6)" />
<use xlink:href="#f0_m" transform="matrix(12,0,0,12,244.2,845.6)" />
<use xlink:href="#f0_e" transform="matrix(12,0,0,12,255.6,845.6)" />
<use xlink:href="#f0_f" transform="matrix(12,0,0,12,274.9,845.6)" />
<use xlink:href="#f0_n" transform="matrix(12,0,0,12,285.3,845.6)" />
<use xlink:href="#f0_9" transform="matrix(12,0,0,12,298.2,845.6)" />
<use xlink:href="#f0_7" transform="matrix(12,0,0,12,315.9,845.6)" />
<use xlink:href="#f0_m" transform="matrix(12,0,0,12,321.7,845.6)" />
<use xlink:href="#f0_a" transform="matrix(12,0,0,12,333.2,845.6)" />
<use xlink:href="#f0_9" transform="matrix(12,0,0,12,338.2,845.6)" />
<use xlink:href="#f0_i" transform="matrix(12,0,0,12,348.7,845.6)" />
<use xlink:href="#f0_9" transform="matrix(12,0,0,12,369,845.6)" />
<use xlink:href="#f0_p" transform="matrix(12,0,0,12,379.6,845.6)" />
<use xlink:href="#f0_g" transform="matrix(12,0,0,12,390.4,845.6)" />
<use xlink:href="#f0_9" transform="matrix(12,0,0,12,402.9,845.6)" />
<use xlink:href="#f0_3" transform="matrix(12,0,0,12,420.6,845.6)" />
<use xlink:href="#f0_9" transform="matrix(12,0,0,12,431,845.6)" />
<use xlink:href="#f0_a" transform="matrix(12,0,0,12,441.5,845.6)" />
<use xlink:href="#f0_b" transform="matrix(12,0,0,12,446.6,845.6)" />
<use xlink:href="#f0_g" transform="matrix(12,0,0,12,456.5,845.6)" />
<use xlink:href="#f0_n" transform="matrix(12,0,0,12,469,845.6)" />
<use xlink:href="#f0_r" transform="matrix(12,0,0,12,489.1,845.6)" />
<use xlink:href="#f0_a" transform="matrix(12,0,0,12,501.2,845.6)" />
<use xlink:href="#f0_3" transform="matrix(12,0,0,12,506.2,845.6)" />
<use xlink:href="#f0_g" transform="matrix(12,0,0,12,516.4,845.6)" />
<use xlink:href="#f0_f" transform="matrix(12,0,0,12,528.9,845.6)" />
<use xlink:href="#f0_7" transform="matrix(12,0,0,12,546.4,845.6)" />
<use xlink:href="#f0_r" transform="matrix(12,0,0,12,552.3,845.6)" />
<use xlink:href="#f0_4" transform="matrix(12,0,0,12,564.3,845.6)" />
<use xlink:href="#f0_n" transform="matrix(12,0,0,12,568.4,845.6)" />
<use xlink:href="#f0_4" transform="matrix(12,0,0,12,581.4,845.6)" />
<use xlink:href="#f0_f" transform="matrix(12,0,0,12,585.5,845.6)" />
<use xlink:href="#f0_n" transform="matrix(12,0,0,12,595.9,845.6)" />
<use xlink:href="#f0_e" transform="matrix(12,0,0,12,608.9,845.6)" />
<use xlink:href="#f0_q" transform="matrix(12,0,0,12,628.1,845.6)" />
<use xlink:href="#f0_g" transform="matrix(12,0,0,12,640.3,845.6)" />
<use xlink:href="#f0_s" transform="matrix(12,0,0,12,652.8,845.6)" />
<use xlink:href="#f0_a" transform="matrix(12,0,0,12,660.3,845.6)" />
<use xlink:href="#f0_b" transform="matrix(12,0,0,12,665.2,845.6)" />
<use xlink:href="#f0_9" transform="matrix(12,0,0,12,675.3,845.6)" />
<use xlink:href="#f0_4" transform="matrix(12,0,0,12,693.1,845.6)" />
<use xlink:href="#f0_5" transform="matrix(12,0,0,12,697.2,845.6)" />
<use xlink:href="#f0_9" transform="matrix(12,0,0,12,714.1,845.6)" />
<use xlink:href="#f0_f" transform="matrix(12,0,0,12,724.7,845.6)" />
<use xlink:href="#f0_8" transform="matrix(12,0,0,12,742.2,845.6)" />
<use xlink:href="#f0_4" transform="matrix(12,0,0,12,754.3,845.6)" />
<use xlink:href="#f0_n" transform="matrix(12,0,0,12,758.4,845.6)" />
<use xlink:href="#f0_9" transform="matrix(12,0,0,12,628.1,867)" />
<use xlink:href="#f0_n" transform="matrix(12,0,0,12,647.7,867)" />
<use xlink:href="#f0_g" transform="matrix(12,0,0,12,660.7,867)" />
<use xlink:href="#f0_r" transform="matrix(12,0,0,12,673.2,867)" />
<use xlink:href="#f0_n" transform="matrix(12,0,0,12,685.3,867)" />
<use xlink:href="#f0_6" transform="matrix(12,0,0,12,698.2,867)" />
<use xlink:href="#f0_8" transform="matrix(12,0,0,12,714.7,867)" />
<use xlink:href="#f0_a" transform="matrix(12,0,0,12,726.9,867)" />
<use xlink:href="#f0_i" transform="matrix(12,0,0,12,731.8,867)" />
<use xlink:href="#f0_4" transform="matrix(12,0,0,12,744.8,867)" />
<use xlink:href="#f0_g" transform="matrix(12,0,0,12,748.9,867)" />
<use xlink:href="#f0_9" transform="matrix(12,0,0,12,761.4,867)" />
<use xlink:href="#f1_a" transform="matrix(11,0,0,11,586.8,867)" />
<use xlink:href="#f1_d" transform="matrix(11,0,0,11,594.1,867)" />
<use xlink:href="#f1_9" transform="matrix(11,0,0,11,600.7,867)" />
<use xlink:href="#f1_2" transform="matrix(11,0,0,11,605.4,867)" />
<use xlink:href="#f1_b" transform="matrix(11,0,0,11,612.9,867)" />
<use xlink:href="#f0_r" transform="matrix(12,0,0,12,274.2,867)" />
<use xlink:href="#f0_a" transform="matrix(12,0,0,12,286.3,867)" />
<use xlink:href="#f0_q" transform="matrix(12,0,0,12,291.3,867)" />
<use xlink:href="#f0_9" transform="matrix(12,0,0,12,303.5,867)" />
<use xlink:href="#f0_r" transform="matrix(12,0,0,12,323.2,867)" />
<use xlink:href="#f0_a" transform="matrix(12,0,0,12,335.2,867)" />
<use xlink:href="#f0_g" transform="matrix(12,0,0,12,340.3,867)" />
<use xlink:href="#f0_4" transform="matrix(12,0,0,12,352.6,867)" />
<use xlink:href="#f0_4" transform="matrix(12,0,0,12,356.7,867)" />
<use xlink:href="#f0_r" transform="matrix(12,0,0,12,360.8,867)" />
<use xlink:href="#f0_l" transform="matrix(12,0,0,12,372.9,867)" />
<use xlink:href="#f0_g" transform="matrix(12,0,0,12,384.8,867)" />
<use xlink:href="#f0_e" transform="matrix(12,0,0,12,397.3,867)" />
<use xlink:href="#f0_r" transform="matrix(12,0,0,12,418.3,867)" />
<use xlink:href="#f0_4" transform="matrix(12,0,0,12,430.4,867)" />
<use xlink:href="#f0_b" transform="matrix(12,0,0,12,434.4,867)" />
<use xlink:href="#f0_3" transform="matrix(12,0,0,12,444.4,867)" />
<use xlink:href="#f0_j" transform="matrix(12,0,0,12,454.8,867)" />
<use xlink:href="#f0_l" transform="matrix(12,0,0,12,466.2,867)" />
<use xlink:href="#f0_9" transform="matrix(12,0,0,12,478.1,867)" />
<use xlink:href="#f0_8" transform="matrix(12,0,0,12,497.8,867)" />
<use xlink:href="#f0_4" transform="matrix(12,0,0,12,510,867)" />
<use xlink:href="#f0_f" transform="matrix(12,0,0,12,514,867)" />
<use xlink:href="#f0_4" transform="matrix(12,0,0,12,524.4,867)" />
<use xlink:href="#f0_g" transform="matrix(12,0,0,12,528.5,867)" />
<use xlink:href="#f0_d" transform="matrix(12,0,0,12,550.2,867)" />
<use xlink:href="#f0_4" transform="matrix(12,0,0,12,555.2,867)" />
<use xlink:href="#f0_q" transform="matrix(12,0,0,12,559.3,867)" />
<use xlink:href="#f0_o" transform="matrix(12,0,0,12,580.6,867)" />
<use xlink:href="#f1_m" transform="matrix(11,0,0,11,251.5,867)" />
<use xlink:href="#f0_d" transform="matrix(12,0,0,12,212.3,867)" />
<use xlink:href="#f0_5" transform="matrix(12,0,0,12,217.4,867)" />
<use xlink:href="#f0_f" transform="matrix(12,0,0,12,227,867)" />
<use xlink:href="#f0_a" transform="matrix(12,0,0,12,237.4,867)" />
<use xlink:href="#f1_u" transform="matrix(11,0,0,11,137.5,867)" />
<use xlink:href="#f1_a" transform="matrix(11,0,0,11,142.2,867)" />
<use xlink:href="#f1_b" transform="matrix(11,0,0,11,149.5,867)" />
<use xlink:href="#f1_k" transform="matrix(11,0,0,11,155.2,867)" />
<use xlink:href="#f1_d" transform="matrix(11,0,0,11,163.6,867)" />
<use xlink:href="#f1_2" transform="matrix(11,0,0,11,170.1,867)" />
<use xlink:href="#f1_e" transform="matrix(11,0,0,11,177.6,867)" />
<use xlink:href="#f1_a" transform="matrix(11,0,0,11,182.2,867)" />
<use xlink:href="#f1_m" transform="matrix(11,0,0,11,189.6,867)" />
<use xlink:href="#f0_f" transform="matrix(12,0,0,12,710.9,888.4)" />
<use xlink:href="#f0_e" transform="matrix(12,0,0,12,727.2,888.4)" />
<use xlink:href="#f0_5" transform="matrix(12,0,0,12,739.1,888.4)" />
<use xlink:href="#f0_j" transform="matrix(12,0,0,12,748.8,888.4)" />
<use xlink:href="#f0_e" transform="matrix(12,0,0,12,760.2,888.4)" />
<use xlink:href="#f1_1k" transform="matrix(11,0,0,11,642.3,888.4)" />
<use xlink:href="#f1_a" transform="matrix(11,0,0,11,648.7,888.4)" />
<use xlink:href="#f1_b" transform="matrix(11,0,0,11,656.2,888.4)" />
<use xlink:href="#f1_k" transform="matrix(11,0,0,11,661.8,888.4)" />
<use xlink:href="#f1_d" transform="matrix(11,0,0,11,670.2,888.4)" />
<use xlink:href="#f1_2" transform="matrix(11,0,0,11,676.7,888.4)" />
<use xlink:href="#f1_e" transform="matrix(11,0,0,11,684.1,888.4)" />
<use xlink:href="#f1_c" transform="matrix(11,0,0,11,688.8,888.4)" />
<use xlink:href="#f1_8" transform="matrix(11,0,0,11,696.3,888.4)" />
<use xlink:href="#f0_o" transform="matrix(12,0,0,12,636.6,888.4)" />
<use xlink:href="#f2_r" transform="matrix(16,0,0,16,717.9,972.6)" />
<use xlink:href="#f2_9" transform="matrix(16,0,0,16,729.8,972.6)" />
<use xlink:href="#f2_s" transform="matrix(16,0,0,16,736.3,972.6)" />
<use xlink:href="#f2_e" transform="matrix(16,0,0,16,744.7,972.6)" />
<use xlink:href="#f2_7" transform="matrix(16,0,0,16,757.1,972.6)" />
<use xlink:href="#f2_d" transform="matrix(16,0,0,16,543.4,972.6)" />
<use xlink:href="#f2_t" transform="matrix(16,0,0,16,562.5,972.6)" />
<use xlink:href="#f2_u" transform="matrix(16,0,0,16,576.5,972.6)" />
<use xlink:href="#f2_d" transform="matrix(16,0,0,16,587.7,972.6)" />
<use xlink:href="#f2_v" transform="matrix(16,0,0,16,600.3,972.6)" />
<use xlink:href="#f2_w" transform="matrix(16,0,0,16,611.4,972.6)" />
<use xlink:href="#f2_x" transform="matrix(16,0,0,16,620,972.6)" />
<use xlink:href="#f2_v" transform="matrix(16,0,0,16,627,972.6)" />
<use xlink:href="#f2_d" transform="matrix(16,0,0,16,638.3,972.6)" />
<use xlink:href="#f2_u" transform="matrix(16,0,0,16,650.8,972.6)" />
<use xlink:href="#f3_c" transform="matrix(12,0,0,12,723.8,1014.1)" />
<use xlink:href="#f3_9" transform="matrix(12,0,0,12,735,1014.1)" />
<use xlink:href="#f3_k" transform="matrix(12,0,0,12,740.3,1014.1)" />
<use xlink:href="#f3_4" transform="matrix(12,0,0,12,748.6,1014.1)" />
<use xlink:href="#f3_7" transform="matrix(12,0,0,12,759.6,1014.1)" />
<use xlink:href="#f3_10" transform="matrix(12,0,0,12,704.6,1014.1)" />
<use xlink:href="#f0_10" transform="matrix(12,0,0,12,474.8,1014.1)" />
<use xlink:href="#f0_d" transform="matrix(12,0,0,12,487.9,1014.1)" />
<use xlink:href="#f0_a" transform="matrix(12,0,0,12,493,1014.1)" />
<use xlink:href="#f0_5" transform="matrix(12,0,0,12,498,1014.1)" />
<use xlink:href="#f0_6" transform="matrix(12,0,0,12,507.6,1014.1)" />
<use xlink:href="#f0_e" transform="matrix(12,0,0,12,514.9,1014.1)" />
<use xlink:href="#f0_3" transform="matrix(12,0,0,12,532.7,1014.1)" />
<use xlink:href="#f0_h" transform="matrix(12,0,0,12,543.1,1014.1)" />
<use xlink:href="#f0_m" transform="matrix(12,0,0,12,549.4,1014.1)" />
<use xlink:href="#f0_e" transform="matrix(12,0,0,12,560.9,1014.1)" />
<use xlink:href="#f0_f" transform="matrix(12,0,0,12,578.6,1014.1)" />
<use xlink:href="#f0_m" transform="matrix(12,0,0,12,589,1014.1)" />
<use xlink:href="#f0_a" transform="matrix(12,0,0,12,600.5,1014.1)" />
<use xlink:href="#f0_j" transform="matrix(12,0,0,12,605.5,1014.1)" />
<use xlink:href="#f0_r" transform="matrix(12,0,0,12,622.8,1014.1)" />
<use xlink:href="#f0_q" transform="matrix(12,0,0,12,634.8,1014.1)" />
<use xlink:href="#f0_3" transform="matrix(12,0,0,12,653,1014.1)" />
<use xlink:href="#f0_c" transform="matrix(12,0,0,12,663.4,1014.1)" />
<use xlink:href="#f0_9" transform="matrix(12,0,0,12,675.3,1014.1)" />
<use xlink:href="#f0_1l" transform="matrix(12,0,0,12,691.6,1014.1)" />
<use xlink:href="#f1_d" transform="matrix(11,0,0,11,455,1014.1)" />
<use xlink:href="#f1_a" transform="matrix(11,0,0,11,461.5,1014.1)" />
<use xlink:href="#f1_b" transform="matrix(11,0,0,11,469,1014.1)" />
<use xlink:href="#f0_a" transform="matrix(12,0,0,12,432.1,1014.1)" />
<use xlink:href="#f0_q" transform="matrix(12,0,0,12,437.1,1014.1)" />
<use xlink:href="#f1_a" transform="matrix(11,0,0,11,394.3,1014.1)" />
<use xlink:href="#f1_d" transform="matrix(11,0,0,11,401.6,1014.1)" />
<use xlink:href="#f1_9" transform="matrix(11,0,0,11,408.2,1014.1)" />
<use xlink:href="#f1_2" transform="matrix(11,0,0,11,412.9,1014.1)" />
<use xlink:href="#f1_b" transform="matrix(11,0,0,11,420.4,1014.1)" />
<use xlink:href="#f0_w" transform="matrix(12,0,0,12,158.4,1014.1)" />
<use xlink:href="#f0_8" transform="matrix(12,0,0,12,164.5,1014.1)" />
<use xlink:href="#f0_4" transform="matrix(12,0,0,12,176.7,1014.1)" />
<use xlink:href="#f0_q" transform="matrix(12,0,0,12,180.9,1014.1)" />
<use xlink:href="#f0_9" transform="matrix(12,0,0,12,193.1,1014.1)" />
<use xlink:href="#f0_e" transform="matrix(12,0,0,12,203.6,1014.1)" />
<use xlink:href="#f0_8" transform="matrix(12,0,0,12,221.4,1014.1)" />
<use xlink:href="#f0_4" transform="matrix(12,0,0,12,233.6,1014.1)" />
<use xlink:href="#f0_x" transform="matrix(12,0,0,12,237.7,1014.1)" />
<use xlink:href="#f0_j" transform="matrix(12,0,0,12,249.6,1014.1)" />
<use xlink:href="#f0_n" transform="matrix(12,0,0,12,261,1014.1)" />
<use xlink:href="#f0_g" transform="matrix(12,0,0,12,274,1014.1)" />
<use xlink:href="#f0_e" transform="matrix(12,0,0,12,286.4,1014.1)" />
<use xlink:href="#f0_r" transform="matrix(12,0,0,12,304.2,1014.1)" />
<use xlink:href="#f0_q" transform="matrix(12,0,0,12,316.3,1014.1)" />
<use xlink:href="#f0_8" transform="matrix(12,0,0,12,334.3,1014.1)" />
<use xlink:href="#f0_s" transform="matrix(12,0,0,12,346.5,1014.1)" />
<use xlink:href="#f0_3" transform="matrix(12,0,0,12,354,1014.1)" />
<use xlink:href="#f0_r" transform="matrix(12,0,0,12,364.4,1014.1)" />
<use xlink:href="#f0_a" transform="matrix(12,0,0,12,376.3,1014.1)" />
<use xlink:href="#f0_11" transform="matrix(12,0,0,12,387.1,1014.1)" />
</g>
</g>
<path d="M128.6,1038.2H670m-541.4,22.2H670m-541.4,22.1H670m-541.4,22.2H670m-541.4,22.1H670m-541.1,-89v89.4m270.3,-89.4v89.4m270.4,-89.4v89.4" class="g0_8" />
<g clip-path="url(#c0_8)">
<g fill="#000000" >
<use xlink:href="#f0_o" transform="matrix(12,0,0,12,585.8,1055.7)" />
<use xlink:href="#f0_e" transform="matrix(12,0,0,12,591.6,1055.7)" />
<use xlink:href="#f0_j" transform="matrix(12,0,0,12,603.5,1055.7)" />
<use xlink:href="#f0_4" transform="matrix(12,0,0,12,614.9,1055.7)" />
<use xlink:href="#f0_b" transform="matrix(12,0,0,12,624.8,1055.7)" />
<use xlink:href="#f0_f" transform="matrix(12,0,0,12,634.9,1055.7)" />
<use xlink:href="#f0_4" transform="matrix(12,0,0,12,645.3,1055.7)" />
<use xlink:href="#f0_e" transform="matrix(12,0,0,12,649.4,1055.7)" />
<use xlink:href="#f0_o" transform="matrix(12,0,0,12,551.1,1077.8)" />
<use xlink:href="#f0_e" transform="matrix(12,0,0,12,556.9,1077.8)" />
<use xlink:href="#f0_e" transform="matrix(12,0,0,12,568.8,1077.8)" />
<use xlink:href="#f0_a" transform="matrix(12,0,0,12,580.7,1077.8)" />
<use xlink:href="#f0_9" transform="matrix(12,0,0,12,585.7,1077.8)" />
<use xlink:href="#f0_s" transform="matrix(12,0,0,12,596.3,1077.8)" />
<use xlink:href="#f0_e" transform="matrix(12,0,0,12,609.6,1077.8)" />
<use xlink:href="#f0_3" transform="matrix(12,0,0,12,621.5,1077.8)" />
<use xlink:href="#f0_a" transform="matrix(12,0,0,12,631.9,1077.8)" />
<use xlink:href="#f0_g" transform="matrix(12,0,0,12,636.9,1077.8)" />
<use xlink:href="#f0_e" transform="matrix(12,0,0,12,649.4,1077.8)" />
<use xlink:href="#f0_o" transform="matrix(12,0,0,12,591.4,1100)" />
<use xlink:href="#f0_d" transform="matrix(12,0,0,12,597.2,1100)" />
<use xlink:href="#f0_n" transform="matrix(12,0,0,12,602.1,1100)" />
<use xlink:href="#f0_4" transform="matrix(12,0,0,12,615.1,1100)" />
<use xlink:href="#f0_e" transform="matrix(12,0,0,12,625.1,1100)" />
<use xlink:href="#f0_r" transform="matrix(12,0,0,12,637.1,1100)" />
<use xlink:href="#f0_q" transform="matrix(12,0,0,12,649.1,1100)" />
<use xlink:href="#f0_o" transform="matrix(12,0,0,12,554.6,1122.2)" />
<use xlink:href="#f0_4" transform="matrix(12,0,0,12,560.4,1122.2)" />
<use xlink:href="#f0_6" transform="matrix(12,0,0,12,564.5,1122.2)" />
<use xlink:href="#f0_i" transform="matrix(12,0,0,12,571.8,1122.2)" />
<use xlink:href="#f0_4" transform="matrix(12,0,0,12,584.8,1122.2)" />
<use xlink:href="#f0_l" transform="matrix(12,0,0,12,588.9,1122.2)" />
<use xlink:href="#f0_i" transform="matrix(12,0,0,12,600.8,1122.2)" />
<use xlink:href="#f0_g" transform="matrix(12,0,0,12,613.7,1122.2)" />
<use xlink:href="#f0_q" transform="matrix(12,0,0,12,632.1,1122.2)" />
<use xlink:href="#f0_a" transform="matrix(12,0,0,12,644.3,1122.2)" />
<use xlink:href="#f0_e" transform="matrix(12,0,0,12,649.3,1122.2)" />
<use xlink:href="#f0_k" transform="matrix(5.8,0,0,5.8,766.2,1166.8)" />
<use xlink:href="#f0_7" transform="matrix(10,0,0,10,712.1,1172.7)" />
<use xlink:href="#f0_9" transform="matrix(10,0,0,10,717.3,1172.7)" />
<use xlink:href="#f0_f" transform="matrix(10,0,0,10,726.4,1172.7)" />
<use xlink:href="#f0_8" transform="matrix(10,0,0,10,740.9,1172.7)" />
<use xlink:href="#f0_4" transform="matrix(10,0,0,10,751.3,1172.7)" />
<use xlink:href="#f0_n" transform="matrix(10,0,0,10,755.1,1172.7)" />
<use xlink:href="#f0_1w" transform="matrix(10,0,0,10,686.9,1172.7)" />
<use xlink:href="#f0_1d" transform="matrix(10,0,0,10,697,1172.7)" />
<use xlink:href="#f0_o" transform="matrix(10,0,0,10,509.2,1172.7)" />
<use xlink:href="#f0_v" transform="matrix(10,0,0,10,514.4,1172.7)" />
<use xlink:href="#f0_f" transform="matrix(10,0,0,10,521.7,1172.7)" />
<use xlink:href="#f0_n" transform="matrix(10,0,0,10,530.9,1172.7)" />
<use xlink:href="#f0_v" transform="matrix(10,0,0,10,542,1172.7)" />
<use xlink:href="#f0_8" transform="matrix(10,0,0,10,554.8,1172.7)" />
<use xlink:href="#f0_s" transform="matrix(10,0,0,10,565.2,1172.7)" />
<use xlink:href="#f0_a" transform="matrix(10,0,0,10,571.9,1172.7)" />
<use xlink:href="#f0_v" transform="matrix(10,0,0,10,581.5,1172.7)" />
<use xlink:href="#f0_g" transform="matrix(10,0,0,10,588.9,1172.7)" />
<use xlink:href="#f0_v" transform="matrix(10,0,0,10,599.6,1172.7)" />
<use xlink:href="#f0_8" transform="matrix(10,0,0,10,612.4,1172.7)" />
<use xlink:href="#f0_s" transform="matrix(10,0,0,10,622.8,1172.7)" />
<use xlink:href="#f0_a" transform="matrix(10,0,0,10,634.7,1172.7)" />
<use xlink:href="#f0_m" transform="matrix(10,0,0,10,639.3,1172.7)" />
<use xlink:href="#f0_g" transform="matrix(10,0,0,10,649.2,1172.7)" />
<use xlink:href="#f0_n" transform="matrix(10,0,0,10,659.8,1172.7)" />
<use xlink:href="#f0_g" transform="matrix(10,0,0,10,671,1172.7)" />
<use xlink:href="#f0_1o" transform="matrix(12,0,0,12,137.7,1208.5)" />
</g>
</g>
<path fill-rule="evenodd" d="M613.4,1141.3H772v-.7H613.4v.7Z" class="g1_8" />
<defs>
<path d="M180,0L66,836H203L258,443c0,0,36,1,64,6c0,0,28,6,49,18c0,0,20,12,35,26c0,0,15,13,26,36c0,0,11,24,17,44c0,0,7,20,12,55c0,0,6,34,9,60c0,0,3,26,8,71c0,0,4,45,9,77H610c0,0,-13,-194,-31,-271c0,0,-31,-127,-111,-179c0,0,-71,-45,-196,-50L304,107c0,0,73,0,130,5c0,0,56,6,111,21c0,0,54,15,94,40c0,0,40,25,77,64c0,0,37,39,63,94c0,0,25,54,46,128c0,0,21,73,34,166c0,0,13,94,20,211h138c0,0,-14,-124,-29,-218c0,0,-16,-94,-39,-179c0,0,-22,-85,-50,-146c0,0,-28,-61,-68,-112c0,0,-39,-51,-87,-84C744,97,696,65,632,42C632,42,568,19,492,10C492,10,417,0,320,0Z" 
id="f0_n"
transform="scale(0.001,-0.001)" />

<path d="M114,0l60,312c0,0,2,12,8,39c0,0,6,27,7,37c0,0,2,11,5,30c0,0,2,19,4,33c0,0,1,15,1,31c0,0,0,48,-35,146c0,0,-35,98,-98,208H228c0,0,3,-8,27,-67c0,0,25,-58,41,-117c0,0,21,53,50,90c0,0,29,37,57,57c0,0,29,21,65,32c0,0,37,11,65,14c0,0,28,3,67,3c0,0,300,0,300,-396V0H480V106H761V452c0,0,0,146,-46,215c0,0,-45,70,-118,70c0,0,-134,0,-198,-119c0,0,-36,-68,-67,-222c0,0,-2,-10,-6,-27L253,0Z" 
id="f0_g"
transform="scale(0.001,-0.001)" />

<path d="M112,-5c0,0,-39,0,-97,11V113c0,0,48,-10,77,-10c0,0,53,0,70,42c0,0,17,43,17,164V729H50V836H501c0,0,107,0,179,-25c0,0,72,-25,112,-77c0,0,40,-51,57,-118c0,0,16,-67,16,-164V0H726V454c0,0,0,55,-3,92c0,0,-4,37,-17,75c0,0,-14,38,-38,59c0,0,-24,22,-65,36c0,0,-42,13,-102,13H318V309c0,0,0,-160,-46,-237C272,72,226,-5,112,-5Z" 
id="f0_r"
transform="scale(0.001,-0.001)" />

<path d="M66,0V107H332V555c0,0,0,92,-37,133c0,0,-37,41,-116,41H85V836h94c0,0,153,0,223,-66c0,0,69,-66,69,-231V0Z" 
id="f0_6"
transform="scale(0.001,-0.001)" />

<path d="M139,-317V836H278V-317Z" 
id="f0_d"
transform="scale(0.001,-0.001)" />

<path d="M66,0V106H322c0,0,75,0,127,23c0,0,53,23,82,67c0,0,29,43,42,98c0,0,13,54,13,124c0,0,0,70,-13,124c0,0,-13,55,-42,98c0,0,-29,44,-82,67c0,0,-52,23,-127,23H66V836H322c0,0,87,0,157,-24c0,0,70,-24,115,-64c0,0,45,-40,74,-94c0,0,30,-55,43,-113c0,0,13,-59,13,-123c0,0,0,-64,-13,-123c0,0,-13,-58,-43,-113c0,0,-29,-54,-74,-94C594,88,549,48,479,24C479,24,409,0,322,0Z" 
id="f0_5"
transform="scale(0.001,-0.001)" />

<path d="M287,0L589,729H66v386H205V836l547,-1l-2,-82L433,0Z" 
id="f0_f"
transform="scale(0.001,-0.001)" />

<path d="M139,0V836H278V0Z" 
id="f0_a"
transform="scale(0.001,-0.001)" />

<path d="M117,-176L179,62V190H336V62L213,-176Z" 
id="f0_7"
transform="scale(0.001,-0.001)" />

<path d="M102,312V836H241V369L102,312Z" 
id="f0_4"
transform="scale(0.001,-0.001)" />

<path d="M152,0V473c0,0,0,94,28,161c0,0,29,66,71,95H66V836H463V729H404c0,0,-65,0,-89,-57c0,0,-25,-58,-25,-199V0Z" 
id="f0_h"
transform="scale(0.001,-0.001)" />

<path d="M66,0V107H554V452c0,0,0,56,-4,93c0,0,-4,37,-18,75c0,0,-14,38,-40,60c0,0,-26,22,-71,36c0,0,-45,13,-110,13H66V836H312c0,0,91,0,157,-17c0,0,66,-17,109,-49c0,0,44,-32,69,-84c0,0,26,-52,36,-114c0,0,10,-62,10,-147V107H817V0Z" 
id="f0_9"
transform="scale(0.001,-0.001)" />

<path d="M66,0V106H564L66,836H228L516,413c0,0,3,2,9,6c0,0,17,13,27,21c0,0,10,8,26,27c0,0,17,20,26,40c0,0,9,21,16,54c0,0,7,34,7,75V836H764V698c0,0,0,-55,-7,-102c0,0,-7,-47,-16,-79c0,0,-10,-33,-27,-62c0,0,-18,-29,-32,-46c0,0,-14,-17,-37,-35c0,0,-22,-17,-36,-25c0,0,-13,-8,-36,-20L767,53V0Z" 
id="f0_p"
transform="scale(0.001,-0.001)" />

<path d="M139,0V138c0,0,0,61,8,112c0,0,7,52,19,87c0,0,11,36,30,66c0,0,19,31,35,49c0,0,17,19,41,35c0,0,25,17,41,25c0,0,17,7,40,17L141,836H303L613,388c0,0,20,10,33,18c0,0,13,8,34,28c0,0,20,20,33,44c0,0,13,25,22,66c0,0,10,41,10,92V836H882V698c0,0,0,-61,-7,-112c0,0,-6,-52,-18,-88c0,0,-12,-36,-30,-66c0,0,-19,-30,-36,-49c0,0,-17,-18,-41,-34c0,0,-24,-17,-40,-25c0,0,-17,-8,-41,-17L882,0H720L409,448c0,0,-21,-11,-34,-19c0,0,-13,-8,-34,-27c0,0,-21,-20,-34,-44c0,0,-12,-25,-22,-66c0,0,-9,-41,-9,-92V0Z" 
id="f0_q"
transform="scale(0.001,-0.001)" />

<path d="M154,0V454l138,56V0ZM722,0V454c0,0,0,161,-49,218c0,0,-48,57,-186,57H139V836H485c0,0,207,0,291,-93c0,0,83,-94,83,-318V0Z" 
id="f0_e"
transform="scale(0.001,-0.001)" />

<path d="M585,0V426c0,0,0,54,-8,98c0,0,-8,44,-27,83c0,0,-19,40,-49,66c0,0,-30,26,-77,41c0,0,-47,15,-108,15H66V836H315c0,0,94,0,166,-20c0,0,71,-20,116,-54c0,0,46,-35,75,-88c0,0,28,-52,40,-112c0,0,12,-60,12,-137V0Z" 
id="f0_3"
transform="scale(0.001,-0.001)" />

<path d="M139,0V836H485c0,0,206,0,290,-90c0,0,84,-89,84,-294V0H721V473c0,0,0,147,-49,202c0,0,-48,54,-186,54H277V0Z" 
id="f0_c"
transform="scale(0.001,-0.001)" />

<path d="M736,107V473c0,0,0,147,-48,202c0,0,-49,54,-187,54H278V107ZM139,0V836H499c0,0,105,0,177,-22c0,0,72,-21,116,-69c0,0,44,-49,64,-119c0,0,19,-71,19,-174V0Z" 
id="f0_8"
transform="scale(0.001,-0.001)" />

<path d="M138,-7c0,0,-34,0,-72,10V129c0,0,25,-8,52,-8c0,0,33,0,58,5c0,0,26,5,58,24c0,0,33,20,53,54c0,0,21,34,36,97c0,0,15,64,15,151c0,0,0,113,-19,173c0,0,-19,60,-56,82c0,0,-38,22,-107,22H89V836h72c0,0,165,0,240,-91c0,0,76,-91,76,-293c0,0,0,-107,26,-227c0,0,25,-119,83,-225H437c0,0,-43,101,-62,184c0,0,-24,-60,-51,-99c0,0,-26,-38,-56,-58C268,27,239,7,209,0c0,0,-30,-7,-71,-7Z" 
id="f0_s"
transform="scale(0.001,-0.001)" />

<path d="M495,0V729H66V836H781V729H634V0Z" 
id="f0_b"
transform="scale(0.001,-0.001)" />

<path d="M139,0V106H400c0,0,176,0,253,71c0,0,78,72,78,250c0,0,0,163,-80,233c0,0,-81,69,-250,69H278L277,564c0,0,-1,-54,26,-80c0,0,27,-25,82,-25c0,0,30,0,80,9V355c0,0,-61,-12,-111,-12c0,0,-100,0,-157,55c0,0,-58,55,-58,186V836H456c0,0,193,0,303,-109c0,0,110,-109,110,-309c0,0,0,-200,-110,-309C759,109,648,0,456,0Z" 
id="f0_j"
transform="scale(0.001,-0.001)" />

<path d="M71,-141V-15L289,62L66,836H210L416,109c0,0,99,42,153,98c0,0,53,56,80,155c0,0,26,98,26,262V836H817V624c0,0,0,-88,-7,-154c0,0,-7,-67,-25,-132c0,0,-18,-66,-51,-116c0,0,-33,-51,-84,-98c0,0,-50,-48,-123,-87c0,0,-72,-39,-169,-74L71,-141Z" 
id="f0_m"
transform="scale(0.001,-0.001)" />

<path d="M278,-14c0,0,-52,0,-115,11c0,0,-63,10,-99,23V193H98L134,95c0,0,56,-50,146,-50c0,0,144,0,144,123c0,0,0,91,-114,130l-66,21c0,0,-75,25,-110,50c0,0,-34,26,-53,63c0,0,-18,36,-18,89c0,0,0,92,63,145c0,0,63,54,170,54c0,0,77,0,193,-23V544H454l-32,81c0,0,-39,35,-124,35c0,0,-61,0,-92,-30c0,0,-32,-30,-32,-80c0,0,0,-43,29,-72c0,0,28,-29,86,-48c0,0,110,-38,144,-55c0,0,33,-17,57,-42c0,0,23,-25,36,-57c0,0,13,-32,13,-79c0,0,0,-104,-66,-158c0,0,-66,-53,-195,-53Z" 
id="f1_d"
transform="scale(0.001,-0.001)" />

<path d="M495,413c0,0,0,133,-34,190c0,0,-34,57,-105,57c0,0,-78,0,-119,-63c0,0,-42,-62,-42,-184ZM374,-14c0,0,-163,0,-239,87c0,0,-75,88,-75,283c0,0,0,183,77,273c0,0,76,91,219,91c0,0,269,0,269,-306V353H194V340c0,0,0,-103,23,-160c0,0,22,-57,70,-87c0,0,47,-29,124,-29c0,0,40,0,96,6c0,0,55,7,91,15V43C598,43,562,20,500,3c0,0,-61,-17,-126,-17Z" 
id="f1_a"
transform="scale(0.001,-0.001)" />

<path d="M31,0V33l88,19V649L31,668v33H235l7,-87c0,0,44,37,121,71c0,0,76,35,121,35h11V530H463l-43,82c0,0,-37,0,-88,-10c0,0,-52,-10,-89,-26V52L363,33V0Z" 
id="f1_b"
transform="scale(0.001,-0.001)" />

<path d="M163,0V190H321V0Z" 
id="f0_o"
transform="scale(0.001,-0.001)" />

<path d="M522,-20c0,0,-196,0,-290,99c0,0,-94,100,-94,324V836H276V397c0,0,0,-86,16,-147c0,0,17,-60,50,-94c0,0,34,-34,77,-49c0,0,43,-15,103,-15c0,0,59,0,102,15c0,0,44,15,77,49c0,0,33,34,50,94c0,0,17,61,17,147c0,0,0,84,-8,143c0,0,-7,58,-25,105c0,0,-17,47,-51,69c0,0,-33,23,-83,23c0,0,-50,0,-119,-22V821c0,0,85,23,150,23c0,0,76,0,130,-30c0,0,53,-31,85,-90c0,0,31,-59,45,-138c0,0,13,-78,13,-183c0,0,0,-224,-93,-324c0,0,-94,-99,-290,-99Z" 
id="f0_x"
transform="scale(0.001,-0.001)" />

<path d="M522,92c0,0,247,0,247,333c0,0,0,88,-17,146c0,0,-17,58,-53,91c0,0,-35,33,-82,46c0,0,-48,14,-116,14H276V419c0,0,0,-327,246,-327Zm0,-112c0,0,-193,0,-289,109c0,0,-95,110,-95,337V836H501c0,0,213,0,309,-93c0,0,96,-94,96,-317c0,0,0,-227,-95,-337C811,89,715,-20,522,-20Z" 
id="f0_l"
transform="scale(0.001,-0.001)" />

<path d="M543,-317V369c0,0,0,85,-8,143c0,0,-8,58,-27,101c0,0,-18,44,-51,69c0,0,-33,24,-80,36c0,0,-48,11,-117,11H66V836H257c0,0,125,0,205,-23c0,0,80,-23,130,-79c0,0,50,-56,70,-143c0,0,20,-86,20,-222V-317Z" 
id="f0_t"
transform="scale(0.001,-0.001)" />

<path d="M147,700v414H274V700Zm282,0v414H556V700Z" 
id="f0_v"
transform="scale(0.001,-0.001)" />

<path d="M249,-14c0,0,-71,0,-107,42c0,0,-35,42,-35,119V639H15v33l93,29l76,159h47V701H391V639H231V161c0,0,0,-48,22,-73c0,0,22,-24,57,-24c0,0,44,0,106,12V26C416,26,389,8,340,-2c0,0,-49,-12,-91,-12Z" 
id="f1_9"
transform="scale(0.001,-0.001)" />

<path d="M284,67c0,0,51,0,88,12c0,0,37,12,74,30V358l-98,-3c0,0,-100,-4,-135,-39c0,0,-35,-35,-35,-117c0,0,0,-132,106,-132ZM233,-14c0,0,-179,0,-179,208c0,0,0,70,27,116c0,0,27,46,87,70c0,0,60,24,173,27l105,3V519c0,0,0,72,-26,107c0,0,-27,34,-82,34c0,0,-75,0,-137,-35L176,538H134V691c0,0,121,26,213,26c0,0,115,0,169,-47c0,0,54,-47,54,-144V52L657,33V0H465L451,70c0,0,-85,-84,-218,-84Z" 
id="f1_2"
transform="scale(0.001,-0.001)" />

<path d="M156,-317V454l139,56V-317ZM505,0L806,729H139V835H967V753L650,0Z" 
id="f0_i"
transform="scale(0.001,-0.001)" />

<path d="M20,0L75,212H492c0,0,19,51,25,97c0,0,5,46,5,105c0,0,0,63,-6,124c0,0,-6,61,-23,78c0,0,-16,18,-66,18H112c0,0,-36,0,-57,40c0,0,-21,40,-21,101c0,0,0,50,16,87c0,0,16,36,36,36c0,0,13,0,13,-14V870c0,0,0,-25,34,-25H457c0,0,63,0,92,-11c0,0,28,-10,41,-36c0,0,13,-26,18,-107c0,0,4,-80,4,-174c0,0,0,-174,-13,-224c0,0,-4,-15,-21,-41c0,0,-17,-25,-31,-40H688L640,0Z" 
id="f2_f"
transform="scale(0.001,-0.001)" />

<path d="M730,212c0,0,17,78,17,199c0,0,0,85,-13,133c0,0,-12,48,-36,69c0,0,-24,21,-87,21H312c0,0,-55,-53,-72,-91c0,0,-17,-38,-17,-96c0,0,0,-124,8,-235ZM134,0l-1,360c0,0,0,121,7,151c0,0,7,30,31,61c0,0,24,32,57,62H201c0,0,-37,0,-59,39c0,0,-23,40,-23,101c0,0,0,51,18,87c0,0,18,35,35,35c0,0,12,0,16,-2c0,0,4,-2,4,-8V869c0,0,0,-24,31,-24H645c0,0,73,0,104,-18c0,0,30,-18,49,-58c0,0,19,-39,27,-107c0,0,9,-67,9,-162c0,0,0,-166,-12,-500Z" 
id="f2_2"
transform="scale(0.001,-0.001)" />

<path d="M131,353c0,0,-3,0,-6,2c0,0,-3,2,-16,20c0,0,-13,17,-13,28c0,0,0,5,8,9c0,0,45,26,84,67c0,0,38,41,38,85c0,0,0,28,-7,43c0,0,-7,15,-24,21c0,0,-17,6,-61,6H124c0,0,-38,0,-62,34c0,0,-24,35,-24,107c0,0,0,52,16,87c0,0,17,34,38,34c0,0,16,0,16,-12V870c0,0,0,-25,26,-25h63c0,0,29,0,53,-4c0,0,23,-4,39,-23c0,0,17,-19,26,-59c0,0,9,-40,9,-113c0,0,0,-76,-15,-124c0,0,-15,-47,-51,-83c0,0,-35,-36,-74,-61c0,0,-39,-25,-53,-25Z" 
id="f2_8"
transform="scale(0.001,-0.001)" />

<path d="M216,0c0,0,-59,212,-83,350c0,0,-25,139,-25,198c0,0,0,76,23,127c0,0,-42,13,-58,43c0,0,-15,30,-15,72c0,0,0,40,20,74c0,0,20,34,37,34c0,0,10,0,10,-13c0,0,0,-42,69,-42c0,0,57,0,80,-21c0,0,22,-21,22,-62c0,0,0,-38,-7,-72c0,0,-6,-34,-12,-34c0,0,-6,0,-16,10c0,0,-10,10,-25,10c0,0,-25,0,-35,-24c0,0,-10,-24,-10,-71c0,0,0,-164,72,-374c0,0,38,80,116,231c0,0,87,168,121,238c0,0,-36,6,-52,34c0,0,-17,28,-17,66c0,0,0,41,21,82c0,0,20,42,37,42c0,0,9,0,10,-7c0,0,5,-22,13,-32c0,0,9,-11,32,-12l44,-4c0,0,87,-4,87,-94c0,0,0,-33,-7,-67c0,0,-8,-34,-16,-34l-16,10c0,0,-15,10,-30,10c0,0,-22,0,-39,-29c0,0,-18,-32,-39,-72c0,0,-21,-41,-178,-355H691l38,91c0,0,58,139,124,224c0,0,38,50,60,80c0,0,22,29,22,45c0,0,0,12,-7,19c0,0,-6,7,-27,12c0,0,-42,18,-60,41c0,0,-17,24,-17,59c0,0,0,29,11,56c0,0,12,27,27,43c0,0,16,16,26,16c0,0,9,-1,10,-6l4,-14c0,0,4,-21,27,-25l70,-13c0,0,32,-6,51,-30c0,0,20,-24,20,-61c0,0,-2,-45,-23,-87c0,0,-21,-41,-91,-127c0,0,-46,-57,-77,-116c0,0,-31,-59,-71,-161L706,0Z" 
id="f2_13"
transform="scale(0.001,-0.001)" />

<path d="M204,-8c0,0,-9,0,-11,5c0,0,-2,5,-2,22V549c0,0,0,40,-4,56c0,0,-4,16,-15,22c0,0,-10,7,-39,7H90c0,0,-33,0,-52,33c0,0,-19,33,-19,90c0,0,0,53,15,98c0,0,16,44,35,44c0,0,12,0,12,-13V872c0,0,0,-27,31,-27h42c0,0,79,0,103,-20c0,0,23,-19,23,-83V67c0,0,0,-16,-8,-26c0,0,-9,-10,-33,-30c0,0,-25,-19,-35,-19Z" 
id="f2_9"
transform="scale(0.001,-0.001)" />

<path d="M102,-3c0,0,-26,0,-26,31c0,0,0,176,35,320c0,0,34,145,102,247c0,0,3,4,3,25c0,0,0,24,-19,37c0,0,-19,13,-79,15c0,0,-40,0,-61,35c0,0,-22,35,-22,95c0,0,0,39,14,67c0,0,14,29,32,29c0,0,20,0,20,-25c0,0,0,-28,32,-28h33c0,0,54,0,85,-25c0,0,30,-25,30,-68l-3,-52c0,0,0,-22,3,-31c0,0,76,71,104,109c0,0,29,37,36,75c0,0,55,7,82,7c0,0,154,0,239,-126c0,0,85,-127,85,-352c0,0,0,-99,-15,-200C812,182,798,81,774,0H335l42,214H652c0,0,25,0,37,5c0,0,11,4,21,18c0,0,10,14,17,36c0,0,7,22,12,56c0,0,5,34,5,64c0,0,0,247,-241,247c0,0,-337,0,-337,-609c0,0,0,-20,-5,-27c0,0,-6,-7,-22,-7Z" 
id="f2_10"
transform="scale(0.001,-0.001)" />

<path d="M276,-14c0,0,-57,0,-125,13C151,-1,83,10,48,23V214H97l28,-98c0,0,26,-26,69,-44c0,0,42,-17,86,-17c0,0,65,0,97,28c0,0,32,28,32,71c0,0,0,41,-31,65c0,0,-30,25,-133,57c0,0,-108,34,-154,92c0,0,-45,58,-45,143c0,0,0,95,71,152c0,0,71,57,183,57c0,0,77,0,207,-22V518H457l-24,82c0,0,-21,22,-60,35c0,0,-40,14,-75,14c0,0,-53,0,-79,-22c0,0,-26,-22,-26,-59c0,0,0,-40,32,-65c0,0,32,-26,132,-55c0,0,109,-34,155,-89c0,0,45,-55,45,-137c0,0,0,-117,-72,-177c0,0,-72,-59,-209,-59Z" 
id="f2_n"
transform="scale(0.001,-0.001)" />

<path d="M434,423c0,0,0,101,-7,142c0,0,-6,40,-22,60c0,0,-16,19,-45,19c0,0,-44,0,-66,-48c0,0,-22,-49,-22,-173ZM389,-14c0,0,-172,0,-254,89c0,0,-83,90,-83,279c0,0,0,184,79,274c0,0,79,91,238,91c0,0,142,0,206,-76c0,0,64,-76,64,-237V345H271V333c0,0,0,-111,18,-158c0,0,18,-47,58,-72c0,0,40,-25,110,-25c0,0,66,0,166,22V42C623,42,582,18,517,1c0,0,-66,-15,-128,-15Z" 
id="f2_k"
transform="scale(0.001,-0.001)" />

<path d="M41,0V49l91,18V634L41,652v49H336l8,-145c0,0,80,89,144,128c0,0,64,40,117,40h40V468H604l-45,94c0,0,-47,0,-106,-21c0,0,-60,-20,-105,-48V67L460,49V0Z" 
id="f2_u"
transform="scale(0.001,-0.001)" />

<path d="M173,-6C173,-6,61,-6,15,9V177c0,0,73,-10,82,-10c0,0,37,0,52,30c0,0,14,29,14,116V658H18V836H516c0,0,262,0,341,-145c0,0,48,-89,48,-242V0H658V450c0,0,0,131,-37,171c0,0,-34,37,-105,37H411V313c0,0,0,-189,-67,-258C344,55,285,-6,173,-6Z" 
id="f3_7"
transform="scale(0.001,-0.001)" />

<path d="M139,0V836H386V0Z" 
id="f3_8"
transform="scale(0.001,-0.001)" />

<path d="M102,250V836H349V351L102,250Z" 
id="f3_9"
transform="scale(0.001,-0.001)" />

<path d="M545,163c0,0,162,0,162,262c0,0,0,66,-11,111c0,0,-11,45,-36,71c0,0,-24,25,-56,35c0,0,-31,10,-78,10H383V420c0,0,0,-257,162,-257Zm0,-182c0,0,-205,0,-306,109c0,0,-101,109,-101,335V836H527c0,0,223,0,325,-94c0,0,101,-93,101,-317c0,0,0,-226,-101,-335C852,90,750,-19,545,-19Z" 
id="f3_f"
transform="scale(0.001,-0.001)" />

<path d="M139,0V177H436c0,0,127,0,184,56c0,0,56,55,56,186c0,0,0,132,-58,186c0,0,-58,53,-181,53H386L385,553c0,0,0,-40,12,-54c0,0,12,-15,31,-15c0,0,19,0,38,2V343c0,0,-46,-11,-94,-11c0,0,-48,0,-87,11c0,0,-38,10,-73,34c0,0,-73,53,-73,196V836H487c0,0,203,0,319,-109c0,0,116,-109,116,-309c0,0,0,-200,-117,-309C805,109,689,0,487,0Z" 
id="f3_5"
transform="scale(0.001,-0.001)" />

<path d="M66,0V178H307V510c0,0,0,100,-31,124c0,0,-30,24,-79,24H83V836H197c0,0,215,0,286,-85c0,0,71,-85,71,-224V0Z" 
id="f3_i"
transform="scale(0.001,-0.001)" />

<path d="M66,0V177H334c0,0,99,0,150,66c0,0,51,67,51,175c0,0,0,108,-51,175c0,0,-51,66,-150,66H66V836H334c0,0,92,0,168,-24c0,0,75,-24,127,-64c0,0,51,-40,86,-94c0,0,35,-54,51,-113c0,0,15,-60,15,-123c0,0,0,-63,-15,-123c0,0,-16,-59,-51,-113c0,0,-35,-54,-86,-94C629,88,577,48,502,24C502,24,426,0,334,0Z" 
id="f3_o"
transform="scale(0.001,-0.001)" />

<path d="M159,0V165c0,0,0,69,13,124c0,0,12,55,29,89c0,0,17,33,45,62c0,0,29,28,50,42c0,0,22,14,54,30L128,836H405L666,460c0,0,41,48,41,155V836H952V671c0,0,0,-50,-6,-93c0,0,-6,-42,-16,-73c0,0,-10,-30,-26,-57c0,0,-17,-27,-31,-44c0,0,-15,-17,-37,-33c0,0,-22,-16,-38,-25c0,0,-15,-9,-38,-21L984,0H706L445,376c0,0,-41,-48,-41,-155V0Z" 
id="f3_d"
transform="scale(0.001,-0.001)" />

<path d="M322,0V40L481,60V389L130,941L17,960v40H440V960L306,941L593,480L866,941L739,960v40h326V960L955,941L625,394V60L784,40V0Z" 
id="f1_1j"
transform="scale(0.001,-0.001)" />

<path d="M377,45c0,0,99,0,147,73c0,0,47,73,47,237c0,0,0,161,-47,233c0,0,-47,72,-147,72c0,0,-97,0,-141,-69c0,0,-44,-69,-44,-236c0,0,0,-169,45,-240c0,0,44,-70,140,-70Zm0,-59c0,0,-158,0,-238,94c0,0,-81,95,-81,274c0,0,0,178,81,272c0,0,80,94,244,94c0,0,160,0,241,-92c0,0,82,-92,82,-274c0,0,0,-368,-329,-368Z" 
id="f1_i"
transform="scale(0.001,-0.001)" />

<path d="M379,60c0,0,59,0,84,64c0,0,24,65,24,231c0,0,0,164,-24,227c0,0,-24,63,-84,63c0,0,-57,0,-80,-60c0,0,-22,-61,-22,-230c0,0,0,-173,23,-234c0,0,22,-61,79,-61Zm-2,-74c0,0,-161,0,-240,91c0,0,-79,91,-79,277c0,0,0,186,80,276c0,0,81,90,245,90c0,0,167,0,245,-93c0,0,78,-93,78,-273c0,0,0,-188,-81,-278c0,0,-81,-90,-248,-90Z" 
id="f2_m"
transform="scale(0.001,-0.001)" />

<path d="M159,-329c0,0,-61,0,-123,14v180H81l32,-94c0,0,21,-17,55,-17c0,0,28,0,50,13c0,0,21,14,40,39c0,0,20,25,37,62c0,0,17,37,50,110L64,634L15,652v49H374V652L290,632L455,244L602,634l-82,18v49H749V652L698,637L421,-44c0,0,-47,-121,-83,-176c0,0,-36,-55,-80,-82c0,0,-43,-27,-99,-27Z" 
id="f2_j"
transform="scale(0.001,-0.001)" />

<path d="M383,64c0,0,85,0,152,28V645c0,0,-67,13,-152,13c0,0,-194,0,-194,-314c0,0,0,-141,48,-211c0,0,48,-69,146,-69ZM342,-14c0,0,-287,0,-287,358c0,0,0,184,82,280c0,0,81,96,239,96c0,0,81,0,163,-18c0,0,-4,25,-4,124v182l-118,18v34H659V52L745,33V0H548l-9,52c0,0,-84,-66,-197,-66Z" 
id="f1_n"
transform="scale(0.001,-0.001)" />

<path d="M439,0V33l93,19V500c0,0,0,62,-30,97c0,0,-31,36,-94,36c0,0,-67,0,-165,-22V52L338,33V0H35V33l84,19V649L35,668v33H235l7,-57c0,0,57,33,122,54c0,0,65,22,108,22c0,0,91,0,137,-53c0,0,47,-53,47,-154V52L741,33V0Z" 
id="f1_8"
transform="scale(0.001,-0.001)" />

<path d="M32,0V33L151,52V649L52,668v33H275V52L395,33V0ZM201,850c0,0,-32,0,-56,24c0,0,-24,24,-24,56c0,0,0,34,24,58c0,0,24,24,56,24c0,0,34,0,58,-24c0,0,24,-24,24,-58c0,0,0,-32,-24,-56c0,0,-24,-24,-58,-24Z" 
id="f1_4"
transform="scale(0.001,-0.001)" />

<path d="M235,0V40L394,60V936H356c0,0,-189,0,-258,-15L78,766H28v234H908V766H857L837,921c0,0,-22,5,-98,9c0,0,-75,4,-165,4H538V60L697,40V0Z" 
id="f1_1l"
transform="scale(0.001,-0.001)" />

<path d="M289,-14c0,0,-179,0,-179,205V649L20,668v33H233V200c0,0,0,-128,120,-128c0,0,92,0,173,23V649L420,668v33H649V52L738,34V0H533l-6,57C527,57,474,28,405,6c0,0,-69,-20,-116,-20Zm24,849v24l147,203H618v-27L354,835Z" 
id="f1_1g"
transform="scale(0.001,-0.001)" />

<path d="M31,0V33L150,52v956L31,1026v34H274V52L394,33V0Z" 
id="f1_e"
transform="scale(0.001,-0.001)" />

<path d="M382,45c0,0,188,0,188,314c0,0,0,143,-47,213c0,0,-46,69,-141,69c0,0,-87,0,-146,-24V58c0,0,67,-13,146,-13ZM25,-325v35l88,18V649L34,668v33H231l1,-41c0,0,31,27,84,43c0,0,53,17,107,17c0,0,134,0,208,-94c0,0,73,-93,73,-267c0,0,0,-178,-80,-276c0,0,-80,-97,-232,-97c0,0,-84,0,-160,16c0,0,4,-53,4,-84V-272l123,-18v-35Z" 
id="f1_t"
transform="scale(0.001,-0.001)" />

<path d="M44,0V40L172,60V941L44,960v40H471V960L316,941V65H513c0,0,159,0,234,14l46,208h48L828,0Z" 
id="f1_1m"
transform="scale(0.001,-0.001)" />

<path d="M67,0V109L206,235c0,0,133,118,196,190c0,0,63,72,90,149c0,0,27,77,27,177c0,0,0,97,-44,148c0,0,-44,50,-144,50c0,0,-39,0,-81,-10c0,0,-42,-11,-74,-29L150,787H101V980c0,0,135,32,230,32c0,0,164,0,247,-68c0,0,82,-69,82,-193c0,0,0,-84,-32,-158c0,0,-33,-75,-100,-148c0,0,-67,-74,-222,-206c0,0,-67,-57,-141,-125H680V0Z" 
id="f1_12"
transform="scale(0.001,-0.001)" />

<path d="M122,-200c0,0,99,170,148,338c0,0,49,169,49,342c0,0,0,172,-49,340c0,0,-49,168,-148,340H241c0,0,112,-176,168,-345c0,0,55,-169,55,-335c0,0,0,-167,-55,-337c0,0,-56,-168,-168,-343Z" 
id="f0_10"
transform="scale(0.001,-0.001)" />

<path d="M153,0V437L399,539V0ZM664,0V450c0,0,0,122,-31,165c0,0,-31,43,-121,43H138V836H511c0,0,113,0,188,-22c0,0,75,-23,123,-73c0,0,47,-51,68,-127c0,0,20,-76,20,-189V0Z" 
id="f3_l"
transform="scale(0.001,-0.001)" />

<path d="M354,-200c0,0,-112,175,-167,343c0,0,-56,170,-56,337c0,0,0,166,55,335c0,0,55,169,168,345H473c0,0,-100,-172,-148,-340c0,0,-48,-168,-48,-340c0,0,0,-173,48,-342c0,0,49,-168,148,-338Z" 
id="f0_11"
transform="scale(0.001,-0.001)" />

<path d="M681,416L504,902L333,416ZM669,0V40L803,60L704,348H310L210,60L344,40V0H15V40L128,60l341,949H611L965,60L1092,40V0Z" 
id="f1_1n"
transform="scale(0.001,-0.001)" />

<path d="M64,-325c0,0,-46,0,-107,14v148H-8l19,-81c0,0,25,-21,62,-21c0,0,44,0,67,47c0,0,22,47,22,152V649L57,668v33H286V-28c0,0,0,-146,-57,-221c0,0,-56,-76,-165,-76ZM213,850c0,0,-34,0,-58,24c0,0,-24,24,-24,56c0,0,0,34,24,58c0,0,24,24,58,24c0,0,32,0,56,-24c0,0,24,-24,24,-58c0,0,0,-32,-24,-56c0,0,-24,-24,-56,-24Z" 
id="f1_u"
transform="scale(0.001,-0.001)" />

<path d="M289,-14c0,0,-179,0,-179,205V649L20,668v33H233V200c0,0,0,-128,120,-128c0,0,92,0,173,23V649L420,668v33H649V52L738,33V0H533l-6,57C527,57,474,28,405,7c0,0,-69,-21,-116,-21Z" 
id="f1_k"
transform="scale(0.001,-0.001)" />

<path d="M376,50c0,0,103,0,149,80c0,0,46,81,46,240c0,0,0,137,-47,204c0,0,-48,67,-148,67c0,0,-44,0,-87,-7c0,0,-44,-8,-63,-17V62c0,0,63,-12,150,-12Zm3,-64c0,0,-64,0,-141,14c0,0,-78,14,-136,37v971L0,1026v34H226V809c0,0,0,-40,-4,-148c0,0,74,59,188,59c0,0,143,0,219,-87c0,0,77,-87,77,-263c0,0,0,-189,-84,-287c0,0,-84,-97,-243,-97Z" 
id="f1_p"
transform="scale(0.001,-0.001)" />

<path d="M453,0V658H66V836H833V658H700V0Z" 
id="f3_b"
transform="scale(0.001,-0.001)" />

<path d="M81,-216L155,61V288H424V61L241,-216Z" 
id="f3_e"
transform="scale(0.001,-0.001)" />

<path d="M139,0V836H512c0,0,219,0,309,-90c0,0,90,-90,90,-297V0H665V467c0,0,0,110,-31,150c0,0,-32,41,-120,41H385V0Z" 
id="f3_p"
transform="scale(0.001,-0.001)" />

<path d="M534,0V425c0,0,0,109,-41,171c0,0,-41,62,-140,62H66V836H352c0,0,99,0,174,-20c0,0,75,-20,123,-55c0,0,48,-35,78,-87c0,0,30,-53,42,-113c0,0,12,-60,12,-136V0Z" 
id="f3_4"
transform="scale(0.001,-0.001)" />

<path d="M143,0V355c0,0,0,103,26,191c0,0,26,88,79,112H66V836H546V658H484c0,0,-30,0,-50,-24c0,0,-20,-24,-29,-67c0,0,-9,-42,-12,-81c0,0,-3,-39,-3,-89V0Z" 
id="f3_w"
transform="scale(0.001,-0.001)" />

<path d="M44,0V40L172,60V941L44,960v40H794V760H745L721,922c0,0,-83,11,-241,11H316V543H586l23,119h48V354H609L586,475H316V67H513c0,0,193,0,252,12l43,185h49L843,0Z" 
id="f1_1o"
transform="scale(0.001,-0.001)" />

<path d="M399,-14c0,0,-341,0,-341,370c0,0,0,175,87,269c0,0,87,95,249,95c0,0,101,0,220,-23V501H573L541,625c0,0,-62,35,-149,35c0,0,-200,0,-200,-304c0,0,0,-158,61,-225c0,0,61,-67,189,-67c0,0,109,0,189,24V43C631,43,595,16,530,1c0,0,-64,-15,-131,-15Z" 
id="f1_l"
transform="scale(0.001,-0.001)" />

<path d="M84,-153V45l189,68L66,836H321L497,205c0,0,72,50,101,138c0,0,30,88,30,261V836H878V604c0,0,0,-84,-7,-147c0,0,-7,-63,-25,-126c0,0,-19,-62,-51,-111c0,0,-33,-48,-82,-94c0,0,-50,-45,-122,-84C591,42,519,3,423,-30L84,-153Z" 
id="f3_u"
transform="scale(0.001,-0.001)" />

<path d="M82,0V177H500L50,836H328L560,491c0,0,56,19,56,124V836H861V671c0,0,0,-116,-45,-192c0,0,-40,-68,-85,-90c0,0,-50,-26,-71,-26c0,0,-1,0,-1,0L838,96V0Z" 
id="f3_s"
transform="scale(0.001,-0.001)" />

<path d="M150,-366V437L396,539V-366ZM499,0L727,658H139V835h870V716L754,0Z" 
id="f3_3"
transform="scale(0.001,-0.001)" />

<path d="M129,0l69,362c0,0,10,56,12,100c0,0,0,84,-27,159c0,0,-27,76,-117,215H322c0,0,9,-6,31,-79c0,0,23,-72,23,-105c0,0,23,82,100,138c0,0,77,57,160,57c0,0,332,0,332,-397V0H538V177H721V449c0,0,0,124,-20,170c0,0,-20,47,-82,47c0,0,-23,0,-43,-9c0,0,-19,-10,-34,-23c0,0,-14,-14,-27,-39c0,0,-13,-25,-22,-46c0,0,-8,-22,-17,-57c0,0,-9,-36,-15,-61c0,0,-5,-24,-13,-65L375,0Z" 
id="f3_j"
transform="scale(0.001,-0.001)" />

<path d="M44,0V40L172,60V941L44,961v39H794V761H745L721,923c0,0,-83,10,-241,10H316V542H586l23,120h48V354H609L586,475H316V67H513c0,0,193,0,252,12l43,185h49L843,0ZM351,1084v25l146,202H656v-27L392,1084Z" 
id="f1_1p"
transform="scale(0.001,-0.001)" />

<path d="M431,0V33L535,52V499c0,0,0,62,-32,96c0,0,-32,33,-95,33c0,0,-66,0,-163,-22V52L350,33V0H32V33l89,19V649L32,668v33H237l6,-57c0,0,56,32,119,54c0,0,62,22,110,22c0,0,52,0,95,-20c0,0,44,-19,66,-62c0,0,57,32,134,57c0,0,77,25,128,25c0,0,179,0,179,-207V52l90,-19V0H846V33L950,52V499c0,0,0,129,-119,129c0,0,-19,0,-45,-3c0,0,-26,-3,-52,-7c0,0,-25,-4,-49,-8c0,0,-23,-5,-39,-8c0,0,13,-41,13,-89V52L764,33V0Z" 
id="f1_m"
transform="scale(0.001,-0.001)" />

<path d="M66,0V178H507V449c0,0,0,43,-2,71c0,0,-3,28,-12,56c0,0,-9,28,-26,45c0,0,-17,16,-47,27c0,0,-29,10,-72,10H66V836H349c0,0,97,0,167,-17c0,0,71,-17,117,-49c0,0,46,-32,73,-84c0,0,27,-52,38,-114c0,0,11,-62,11,-147V178H866V0Z" 
id="f3_a"
transform="scale(0.001,-0.001)" />

<path d="M137,0L30,830H277L321,522c0,0,68,3,96,27c0,0,27,23,38,58c0,0,26,74,31,228H733c0,0,-31,-218,-70,-316c0,0,-23,-59,-88,-100c0,0,-54,-34,-116,-42c0,0,-62,-8,-117,-8L362,178c0,0,27,-1,61,-1c40,0,89,1,119,6c0,0,57,8,94,25c0,0,37,18,69,47c0,0,32,30,60,79c0,0,28,48,51,117c0,0,48,143,82,384h248c0,0,-53,-404,-172,-586C974,249,879,103,745,51C745,51,613,0,318,0Z" 
id="f3_q"
transform="scale(0.001,-0.001)" />

<path d="M612,448c0,0,0,156,-29,219c0,0,-29,63,-99,63c0,0,-68,0,-98,-61c0,0,-29,-62,-29,-208V448ZM488,-20c0,0,-205,0,-315,107C173,87,63,195,63,397c0,0,0,197,112,307c0,0,113,110,313,110c0,0,197,0,303,-115c0,0,105,-116,111,-340H357v-6c0,0,0,-154,46,-222c0,0,46,-68,149,-68c0,0,86,0,139,45c0,0,53,46,68,133H883C883,241,851,105,755,42c0,0,-95,-62,-267,-62Z" 
id="f4_4"
transform="scale(0.001,-0.001)" />

<path d="M403,-20c0,0,-74,0,-156,11C247,-9,164,1,71,23V244h84c0,0,11,-88,67,-135c0,0,56,-46,152,-46c0,0,81,0,124,28c0,0,43,28,43,80c0,0,0,47,-28,74c0,0,-27,26,-105,45L299,318c0,0,-123,30,-178,87c0,0,-55,57,-55,154c0,0,0,129,89,192c0,0,89,63,276,63c0,0,70,0,149,-11c0,0,80,-12,176,-36V567H672c0,0,-7,81,-58,122c0,0,-51,41,-147,41c0,0,-80,0,-122,-25c0,0,-41,-26,-41,-75c0,0,0,-41,24,-64c0,0,24,-23,86,-38L522,500c0,0,156,-40,215,-98c0,0,60,-58,60,-162c0,0,0,-134,-96,-198c0,0,-96,-62,-298,-62Z" 
id="f4_9"
transform="scale(0.001,-0.001)" />

<path d="M146,700v414H323V700Zm328,0v414H651V700Z" 
id="f3_x"
transform="scale(0.001,-0.001)" />

<path d="M248,0L521,658H66v429H313V836l493,-1V716L504,0Z" 
id="f3_c"
transform="scale(0.001,-0.001)" />

<path d="M82,322V514H682V322Z" 
id="f3_y"
transform="scale(0.001,-0.001)" />

<path d="M154,-13c0,0,-38,0,-85,9V198c0,0,58,-15,103,-15c0,0,84,0,118,60c0,0,35,61,35,206c0,0,0,66,-7,105c0,0,-6,39,-24,63c0,0,-17,25,-44,33c0,0,-27,8,-73,8H66V836H225c0,0,198,0,275,-115c0,0,56,-84,65,-264c0,0,3,-55,3,-148c0,0,0,-177,71,-309L393,1c0,0,-53,130,-54,141c0,0,-28,-90,-65,-123c0,0,-38,-32,-120,-32Z" 
id="f3_k"
transform="scale(0.001,-0.001)" />

<path d="M26,0V54L154,74V926L26,945v55H878V746H810L786,908c0,0,-83,10,-241,10H389V551H651l23,111h67V355H674L651,468H389V82H578c0,0,193,0,252,12l43,185h68L927,0Z" 
id="f2_15"
transform="scale(0.001,-0.001)" />

<path d="M64,0V34L168,59V639H47v36l121,29v49c0,0,0,155,61,239c0,0,62,84,173,84c0,0,58,0,107,-15V908H472l-33,92c0,0,-26,16,-62,16c0,0,-47,0,-66,-42c0,0,-19,-42,-19,-157V701H478V639H292V59L443,34V0Z" 
id="f1_1q"
transform="scale(0.001,-0.001)" />

<path d="M284,67c0,0,51,0,88,12c0,0,37,11,74,29V357l-98,-3c0,0,-100,-3,-135,-38c0,0,-35,-36,-35,-118c0,0,0,-131,106,-131ZM233,-14c0,0,-179,0,-179,208c0,0,0,70,27,116c0,0,27,46,87,70c0,0,60,24,173,27l105,3V519c0,0,0,73,-26,107c0,0,-27,34,-82,34c0,0,-75,0,-137,-35L176,538H134V691c0,0,121,26,213,26c0,0,115,0,169,-47c0,0,54,-47,54,-144V52L657,34V0H465L451,70c0,0,-85,-84,-218,-84Zm22,849v24l146,203H560v-27L296,835Z" 
id="f1_x"
transform="scale(0.001,-0.001)" />

<path d="M327,-14c0,0,-101,0,-156,45c0,0,-55,45,-55,131V624H25v48l108,29l87,159H332V701H480V624H332V176c0,0,0,-49,20,-73c0,0,20,-25,53,-25c0,0,40,0,97,12V26c0,0,-22,-15,-76,-27c0,0,-55,-13,-99,-13Z" 
id="f2_w"
transform="scale(0.001,-0.001)" />

<path d="M345,75c0,0,50,0,110,26V351l-63,-2c0,0,-72,-3,-100,-38c0,0,-28,-35,-28,-113c0,0,0,-63,22,-93c0,0,23,-30,59,-30ZM266,-14c0,0,-217,0,-217,208c0,0,0,79,32,126c0,0,32,48,93,71c0,0,60,22,190,25l91,2V521c0,0,0,126,-104,126c0,0,-62,0,-140,-39L183,521H134V691c0,0,112,17,165,21c0,0,53,5,108,5c0,0,264,0,264,-194V67L741,49V0H483L466,54C466,54,408,14,361,0c0,0,-47,-14,-95,-14Z" 
id="f2_d"
transform="scale(0.001,-0.001)" />

<path d="M679,178V467c0,0,0,110,-32,150c0,0,-31,41,-120,41H385V178ZM139,0V836H525c0,0,220,0,311,-90c0,0,90,-90,90,-297V0Z" 
id="f3_n"
transform="scale(0.001,-0.001)" />

<path d="M497,-366V373c0,0,0,165,-40,225c0,0,-39,60,-155,60H66V836H300c0,0,131,0,215,-23c0,0,84,-23,135,-78c0,0,52,-56,73,-141c0,0,21,-86,21,-221V-366Z" 
id="f3_z"
transform="scale(0.001,-0.001)" />

<path d="M700,-317V454c0,0,0,155,-54,215c0,0,-54,60,-180,60H277V551c0,0,0,-55,26,-80c0,0,27,-26,82,-26c0,0,30,0,80,10V341c0,0,-61,-11,-111,-11c0,0,-100,0,-157,55c0,0,-58,55,-58,186V836H466c0,0,203,0,288,-91c0,0,85,-92,85,-293V-317Z" 
id="f0_z"
transform="scale(0.001,-0.001)" />

<path d="M345,75c0,0,50,0,110,26V352l-63,-2c0,0,-72,-3,-100,-38c0,0,-28,-35,-28,-114c0,0,0,-63,22,-93c0,0,23,-30,59,-30ZM266,-14c0,0,-217,0,-217,208c0,0,0,79,32,126c0,0,32,48,93,71c0,0,60,22,190,25l91,3V521c0,0,0,127,-104,127c0,0,-62,0,-140,-39L183,521H134V691c0,0,112,17,165,21c0,0,53,5,108,5c0,0,264,0,264,-194V67L741,49V0H483L466,54C466,54,408,14,361,0c0,0,-47,-14,-95,-14Zm5,848v25l124,203H607v-28L335,834Z" 
id="f2_16"
transform="scale(0.001,-0.001)" />

<path d="M41,0V49l69,18V634L41,652v49H313l11,-61l50,26c0,0,105,54,188,54c0,0,194,0,194,-207V67L827,49V0H478V49l63,18V484c0,0,0,63,-27,98c0,0,-26,35,-75,35c0,0,-57,0,-114,-25V67L389,49V0Z" 
id="f2_b"
transform="scale(0.001,-0.001)" />

<path d="M383,64c0,0,44,0,87,7c0,0,43,7,65,17V645c0,0,-67,13,-152,13c0,0,-194,0,-194,-309c0,0,0,-143,48,-214c0,0,47,-71,146,-71Zm56,-389v35l96,18V-77c0,0,0,73,7,124c0,0,-79,-61,-200,-61c0,0,-287,0,-287,362c0,0,0,180,81,276c0,0,81,96,237,96c0,0,84,0,166,-18l67,33h53V-272l77,-18v-35Z" 
id="f1_16"
transform="scale(0.001,-0.001)" />

<path d="M32,0V34L151,52V649L52,668v33H275V52L395,34V0Zm71,835v24l146,203H408v-27L144,835Z" 
id="f1_1r"
transform="scale(0.001,-0.001)" />

<path d="M394,460c0,0,126,0,186,57c0,0,60,57,60,187c0,0,0,123,-57,176c0,0,-58,53,-194,53H316V460ZM54,0V40L172,60V941L44,960v40H421c0,0,368,0,368,-295c0,0,0,-153,-93,-233c0,0,-93,-80,-267,-80H316V60L475,40V0Z" 
id="f1_1t"
transform="scale(0.001,-0.001)" />

<path d="M186,-14c0,0,-95,0,-154,22V190H81L104,86c0,0,14,-17,40,-26c0,0,26,-10,57,-10c0,0,105,0,105,141V941L178,960v40H562V960L449,941V322c0,0,0,-100,-30,-175c0,0,-31,-74,-93,-118c0,0,-63,-43,-140,-43Z" 
id="f1_1k"
transform="scale(0.001,-0.001)" />

<path d="M495,413c0,0,0,133,-34,190c0,0,-34,57,-105,57c0,0,-78,0,-119,-62c0,0,-42,-63,-42,-185ZM374,-14c0,0,-163,0,-239,87c0,0,-75,88,-75,283c0,0,0,183,77,274c0,0,76,90,219,90c0,0,269,0,269,-306V353H194V339c0,0,0,-103,23,-160c0,0,22,-57,70,-86c0,0,47,-30,124,-30c0,0,40,0,96,6c0,0,55,7,91,15V43C598,43,562,19,500,2c0,0,-61,-16,-126,-16ZM285,835v24l146,203H590v-27L326,835Z" 
id="f1_c"
transform="scale(0.001,-0.001)" />

<path d="M235,-20c0,0,-31,0,-51,19c0,0,-21,18,-21,50c0,0,0,65,39,120c0,0,39,54,125,109c0,0,56,35,87,56c0,0,32,20,46,33c0,0,79,45,79,143c0,0,0,27,-7,65c0,0,-8,39,-27,49c0,0,-19,10,-85,10H110c0,0,-36,0,-53,21c0,0,-17,22,-25,71c0,0,-7,49,-7,134c0,0,0,62,27,122c0,0,8,15,8,34c0,0,0,23,-35,37c0,0,-21,7,-30,29c0,0,-9,22,-9,72c0,0,0,24,10,46c0,0,8,22,25,38c0,0,16,16,26,16c0,0,17,0,17,-14c0,0,0,-9,7,-17c0,0,7,-8,34,-14c0,0,65,-15,81,-26c0,0,15,-10,15,-31c0,0,0,-15,-15,-38c0,0,-15,-22,-33,-53c0,0,-19,-30,-34,-67c0,0,-15,-36,-15,-79c0,0,0,-43,14,-56c0,0,15,-14,54,-14H518c0,0,39,0,63,-17c0,0,23,-16,33,-53c0,0,10,-36,17,-89c0,0,6,-52,6,-93c0,0,0,-99,-9,-144c0,0,-9,-44,-40,-80c0,0,-31,-36,-110,-86c0,0,-112,-71,-138,-95c0,0,-26,-23,-36,-44c0,0,-9,-20,-9,-43c0,0,0,-11,5,-26c0,0,6,-15,6,-26c0,0,0,-32,-20,-50c0,0,-20,-19,-51,-19Z" 
id="f2_r"
transform="scale(0.001,-0.001)" />

<path d="M423,-13c0,0,-9,0,-14,7c0,0,-5,6,-10,23c0,0,-13,51,-37,108c0,0,-25,58,-55,101c0,0,-21,-37,-51,-115C256,111,225,34,216,0H12L55,212h99c0,0,51,0,72,12c0,0,20,12,40,58c0,0,20,46,18,98V543c0,0,0,46,-7,61c0,0,-7,15,-23,22c0,0,-17,8,-50,8H189c0,0,-76,0,-76,115c0,0,0,56,16,103c0,0,16,47,33,47c0,0,14,0,14,-15c0,0,0,-17,9,-28c0,0,10,-11,40,-11h21c0,0,60,0,85,-8c0,0,25,-9,39,-26c0,0,13,-18,13,-49c0,0,0,-20,-4,-43c0,0,-5,-23,-10,-53c0,0,-6,-31,-10,-71c0,0,-5,-41,-5,-97c0,0,0,-150,62,-269c0,0,28,-58,38,-90l9,-65c0,0,0,-27,-13,-57c0,0,-13,-30,-27,-30Z" 
id="f2_s"
transform="scale(0.001,-0.001)" />

<path d="M554,-8c0,0,-9,0,-11,6c0,0,-2,5,-2,24V548c0,0,0,38,-5,56c0,0,-4,18,-15,25c0,0,-12,7,-41,7H90c0,0,-33,0,-52,33c0,0,-19,33,-19,90c0,0,0,54,15,97c0,0,14,43,30,43c0,0,17,0,17,-13V872c0,0,0,-9,7,-18c0,0,7,-9,27,-9H512c0,0,54,0,77,-8c0,0,23,-9,33,-28c0,0,9,-20,9,-67V81c0,0,0,-31,-27,-53L583,9C583,9,563,-8,554,-8Z" 
id="f2_e"
transform="scale(0.001,-0.001)" />

<path d="M721,-14c0,0,-12,0,-12,9l4,28c0,0,17,82,17,338c0,0,0,105,-11,163c0,0,-11,58,-35,84c0,0,-25,26,-83,26H315c0,0,-43,-39,-67,-90c0,0,-25,-51,-25,-104c0,0,0,-59,17,-104c0,0,17,-45,35,-78c0,0,18,-34,18,-44c0,0,0,-26,-20,-95C273,119,252,50,231,0H26L87,214h69c0,0,23,0,23,14l-7,15c0,0,-15,27,-27,68c0,0,-11,41,-11,83c0,0,0,68,25,124c0,0,25,57,86,116H200c0,0,-45,0,-71,32c0,0,-27,33,-27,94c0,0,0,49,17,93c0,0,16,43,32,43c0,0,17,0,17,-10V869c0,0,0,-24,27,-24H637c0,0,73,0,103,-18c0,0,30,-17,46,-62c0,0,17,-46,24,-124c0,0,8,-78,8,-214V338c0,0,0,-279,-27,-311c0,0,-14,-16,-37,-28c0,0,-23,-13,-33,-13Z" 
id="f2_7"
transform="scale(0.001,-0.001)" />

<path d="M438,65c0,0,131,0,131,293c0,0,0,279,-130,279c0,0,-69,0,-127,-29V80c0,0,60,-15,126,-15ZM20,-325v50l76,18V634L19,652v49H304l1,-36c0,0,80,55,194,55c0,0,146,0,218,-86c0,0,71,-86,71,-271c0,0,0,-183,-83,-280c0,0,-83,-97,-238,-97c0,0,-79,0,-160,19c0,0,5,-48,5,-109V-257l103,-18v-50Z" 
id="f2_t"
transform="scale(0.001,-0.001)" />

<path d="M425,-14c0,0,-187,0,-280,90c0,0,-93,90,-93,276c0,0,0,115,42,198c0,0,43,82,121,126c0,0,78,44,182,44c0,0,104,0,227,-26V486H571L539,609c0,0,-25,19,-50,26c0,0,-24,7,-65,7c0,0,-44,0,-79,-35c0,0,-36,-35,-56,-98c0,0,-20,-64,-20,-153c0,0,0,-150,47,-214c0,0,47,-64,148,-64c0,0,103,0,176,21V42C640,42,606,15,547,0c0,0,-59,-14,-122,-14Z" 
id="f2_v"
transform="scale(0.001,-0.001)" />

<path d="M34,0V49l76,18V634L38,652v49H325V67L402,49V0ZM217,831c0,0,-48,0,-81,33c0,0,-34,33,-34,82c0,0,0,48,34,81c0,0,34,33,81,33c0,0,48,0,81,-33c0,0,33,-33,33,-81c0,0,0,-47,-33,-81c0,0,-32,-34,-81,-34Z" 
id="f2_x"
transform="scale(0.001,-0.001)" />

<path d="M445,-20c0,0,-86,0,-172,13c0,0,-86,13,-170,40V255c0,0,80,-40,160,-60c0,0,79,-21,156,-21c0,0,114,0,174,40c0,0,61,39,61,113c0,0,0,76,-62,115c0,0,-62,39,-184,39H293V666H414c0,0,108,0,161,34c0,0,53,34,53,103c0,0,0,65,-52,100c0,0,-51,35,-145,35c0,0,-69,0,-140,-16c0,0,-70,-15,-140,-46v210c0,0,85,24,168,36c0,0,83,12,164,12c0,0,217,0,325,-71c0,0,107,-71,107,-215c0,0,0,-98,-51,-160c0,0,-52,-62,-152,-88c0,0,112,-29,171,-101c0,0,59,-72,59,-183c0,0,0,-165,-127,-251c0,0,-127,-85,-370,-85Z" 
id="f3_10"
transform="scale(0.001,-0.001)" />

<path d="M74,357V479H476V357Z" 
id="f0_1l"
transform="scale(0.001,-0.001)" />

<path d="M179,0V190H336V0Zm0,600V790H336V600Z" 
id="f0_w"
transform="scale(0.001,-0.001)" />

<path d="M111,0V127c0,0,86,89,234,238c0,0,148,150,186,193c0,0,73,81,101,138c0,0,29,56,29,110c0,0,0,89,-62,145c0,0,-62,56,-162,56c0,0,-71,0,-150,-25c0,0,-78,-24,-168,-75v153c0,0,91,37,170,55c0,0,79,19,145,19c0,0,173,0,276,-86c0,0,103,-87,103,-232c0,0,0,-68,-26,-130c0,0,-26,-61,-94,-145c0,0,-18,-22,-118,-125C575,416,475,313,293,127H818V0Z" 
id="f0_k"
transform="scale(0.001,-0.001)" />

<path d="M460,93c0,0,109,0,171,86c0,0,63,86,63,238c0,0,0,151,-63,237c0,0,-62,86,-171,86c0,0,-109,0,-172,-86c0,0,-62,-86,-62,-237c0,0,0,-152,62,-238c0,0,63,-86,172,-86ZM426,-20c0,0,-151,0,-247,119c0,0,-95,121,-95,318c0,0,0,197,95,318c0,0,96,121,247,121c0,0,93,0,159,-37c0,0,66,-36,109,-110v452H831V0H694V125C694,125,651,51,585,15c0,0,-66,-35,-159,-35Z" 
id="f0_1w"
transform="scale(0.001,-0.001)" />

<path d="M231,492l491,1c0,0,-2,112,-64,179c0,0,-61,67,-163,67c0,0,-115,0,-184,-65c0,0,-69,-64,-80,-182ZM517,-20c0,0,-199,0,-316,115C201,95,84,211,84,410c0,0,0,205,111,325c0,0,111,121,299,121c0,0,168,0,266,-109c0,0,98,-108,98,-295V385H227c0,0,9,-142,85,-216c0,0,77,-74,213,-74c0,0,80,0,154,19c0,0,74,19,147,58V42C826,42,752,11,675,-4c0,0,-78,-16,-158,-16Z" 
id="f0_1d"
transform="scale(0.001,-0.001)" />

<path d="M486,98c0,0,107,0,169,58c0,0,62,57,62,157c0,0,0,101,-62,159c0,0,-61,57,-169,57c0,0,-108,0,-169,-57c0,0,-62,-58,-62,-159c0,0,0,-100,62,-158c0,0,61,-57,169,-57Zm-1,549c0,0,97,0,152,49c0,0,54,48,54,135c0,0,0,87,-54,135c0,0,-55,49,-152,49c0,0,-97,0,-151,-49c0,0,-54,-48,-54,-135c0,0,0,-87,54,-135c0,0,54,-49,151,-49Zm0,-667c0,0,-184,0,-283,85c0,0,-98,86,-98,248c0,0,0,107,61,181c0,0,61,74,170,99c0,0,-97,24,-151,90c0,0,-54,67,-54,162c0,0,0,134,95,212c0,0,95,77,260,77c0,0,167,0,261,-77c0,0,95,-78,95,-212c0,0,0,-95,-54,-162c0,0,-54,-66,-151,-90c0,0,109,-25,170,-99c0,0,61,-74,61,-181c0,0,0,-162,-99,-248c0,0,-98,-85,-283,-85Z" 
id="f0_1o"
transform="scale(0.001,-0.001)" />


</defs>
</svg>