<?xml version="1.0" encoding="UTF-8" standalone="no"?>
<!DOCTYPE svg PUBLIC "-//W3C//DTD SVG 1.1//EN"
"http://www.w3.org/Graphics/SVG/1.1/DTD/svg11.dtd">
<svg viewBox="0 0 909 1286" version="1.1" xmlns="http://www.w3.org/2000/svg" xmlns:xlink="http://www.w3.org/1999/xlink">
<defs>
<clipPath id="c0_11"><path d="M0,1286.2V0H909.4V1286.2Z" /></clipPath>
<clipPath id="c1_11"><path d="M642.4,173V151.7h.3V173Z" /></clipPath>
<style type="text/css"><![CDATA[
.g0_11{
fill: none;
stroke: #0000FF;
stroke-width: 1.0694444;
stroke-linecap: butt;
stroke-linejoin: miter;
}
.g1_11{
fill: none;
stroke: #000000;
stroke-width: 0.7638889;
stroke-linecap: butt;
stroke-linejoin: round;
}
]]></style>
</defs>
<g clip-path="url(#c0_11)">
<g fill="#0000FF" >
<use xlink:href="#f0_3" transform="matrix(12,0,0,12,649.3,168.8)" />
<use xlink:href="#f0_7" transform="matrix(12,0,0,12,660,168.8)" />
<use xlink:href="#f0_k" transform="matrix(12,0,0,12,664.5,168.8)" />
<use xlink:href="#f0_a" transform="matrix(12,0,0,12,672.3,168.8)" />
<use xlink:href="#f0_e" transform="matrix(12,0,0,12,683.1,168.8)" />
<use xlink:href="#f0_3" transform="matrix(12,0,0,12,695.5,168.8)" />
<use xlink:href="#f0_e" transform="matrix(12,0,0,12,712.4,168.8)" />
<use xlink:href="#f0_c" transform="matrix(12,0,0,12,724.9,168.8)" />
<use xlink:href="#f0_f" transform="matrix(12,0,0,12,730.3,168.8)" />
<use xlink:href="#f0_c" transform="matrix(12,0,0,12,741.2,168.8)" />
<use xlink:href="#f0_4" transform="matrix(12,0,0,12,746.6,168.8)" />
<use xlink:href="#f0_e" transform="matrix(12,0,0,12,759.8,168.8)" />
</g>
</g>
<path d="M642.9,170.7H772.1" class="g0_11" />
<g clip-path="url(#c1_11)">
<path d="M642.4,170.7h5.8" class="g0_11" />
</g>
<g clip-path="url(#c0_11)">
<g fill="#0000FF" >
<use xlink:href="#f0_13" transform="matrix(12,0,0,12,618.8,168.8)" />
<use xlink:href="#f0_14" transform="matrix(12,0,0,12,630.6,168.8)" />
</g>
</g>
<path d="M618.8,170.7h23.6" class="g0_11" />
<g clip-path="url(#c0_11)">
<g fill="#000000" >
<use xlink:href="#f1_c" transform="matrix(12,0,0,12,608.7,228.9)" />
<use xlink:href="#f1_d" transform="matrix(12,0,0,12,621.5,228.9)" />
<use xlink:href="#f1_w" transform="matrix(12,0,0,12,626.8,228.9)" />
<use xlink:href="#f1_5" transform="matrix(12,0,0,12,637.2,228.9)" />
<use xlink:href="#f1_a" transform="matrix(12,0,0,12,649.3,228.9)" />
<use xlink:href="#f1_h" transform="matrix(12,0,0,12,668.2,228.9)" />
<use xlink:href="#f1_c" transform="matrix(12,0,0,12,675.2,228.9)" />
<use xlink:href="#f1_d" transform="matrix(12,0,0,12,688,228.9)" />
<use xlink:href="#f1_n" transform="matrix(12,0,0,12,693.3,228.9)" />
<use xlink:href="#f1_d" transform="matrix(12,0,0,12,704.3,228.9)" />
<use xlink:href="#f1_8" transform="matrix(12,0,0,12,709.7,228.9)" />
<use xlink:href="#f1_4" transform="matrix(12,0,0,12,729.5,228.9)" />
<use xlink:href="#f1_v" transform="matrix(12,0,0,12,740.5,228.9)" />
<use xlink:href="#f1_b" transform="matrix(12,0,0,12,752.4,228.9)" />
<use xlink:href="#f1_u" transform="matrix(12,0,0,12,758.7,228.9)" />
<use xlink:href="#f0_j" transform="matrix(12,0,0,12,298.1,250.3)" />
<use xlink:href="#f0_9" transform="matrix(12,0,0,12,303.9,250.3)" />
<use xlink:href="#f0_i" transform="matrix(12,0,0,12,315.8,250.3)" />
<use xlink:href="#f0_q" transform="matrix(12,0,0,12,331.4,250.3)" />
<use xlink:href="#f0_l" transform="matrix(12,0,0,12,341.3,250.3)" />
<use xlink:href="#f0_6" transform="matrix(12,0,0,12,358.6,250.3)" />
<use xlink:href="#f0_7" transform="matrix(12,0,0,12,370.8,250.3)" />
<use xlink:href="#f0_3" transform="matrix(12,0,0,12,374.9,250.3)" />
<use xlink:href="#f0_7" transform="matrix(12,0,0,12,385.3,250.3)" />
<use xlink:href="#f0_8" transform="matrix(12,0,0,12,389.4,250.3)" />
<use xlink:href="#f0_9" transform="matrix(12,0,0,12,401.9,250.3)" />
<use xlink:href="#f0_e" transform="matrix(12,0,0,12,419.7,250.3)" />
<use xlink:href="#f0_g" transform="matrix(12,0,0,12,431.8,250.3)" />
<use xlink:href="#f0_d" transform="matrix(12,0,0,12,443.7,250.3)" />
<use xlink:href="#f0_f" transform="matrix(12,0,0,12,455.9,250.3)" />
<use xlink:href="#f0_e" transform="matrix(12,0,0,12,472.3,250.3)" />
<use xlink:href="#f0_c" transform="matrix(12,0,0,12,484.3,250.3)" />
<use xlink:href="#f0_g" transform="matrix(12,0,0,12,489.4,250.3)" />
<use xlink:href="#f0_m" transform="matrix(12,0,0,12,501.3,250.3)" />
<use xlink:href="#f0_3" transform="matrix(12,0,0,12,512.7,250.3)" />
<use xlink:href="#f0_e" transform="matrix(12,0,0,12,528.9,250.3)" />
<use xlink:href="#f0_3" transform="matrix(12,0,0,12,541,250.3)" />
<use xlink:href="#f0_p" transform="matrix(12,0,0,12,551.4,250.3)" />
<use xlink:href="#f0_e" transform="matrix(12,0,0,12,564.3,250.3)" />
<use xlink:href="#f0_n" transform="matrix(12,0,0,12,576.4,250.3)" />
<use xlink:href="#f0_9" transform="matrix(12,0,0,12,589.8,250.3)" />
<use xlink:href="#f0_d" transform="matrix(12,0,0,12,601.7,250.3)" />
<use xlink:href="#f0_f" transform="matrix(12,0,0,12,614,250.3)" />
<use xlink:href="#f0_9" transform="matrix(12,0,0,12,624.5,250.3)" />
<use xlink:href="#f0_6" transform="matrix(12,0,0,12,642.4,250.3)" />
<use xlink:href="#f0_7" transform="matrix(12,0,0,12,654.6,250.3)" />
<use xlink:href="#f0_i" transform="matrix(12,0,0,12,658.7,250.3)" />
<use xlink:href="#f0_m" transform="matrix(12,0,0,12,668.3,250.3)" />
<use xlink:href="#f0_9" transform="matrix(12,0,0,12,679.7,250.3)" />
<use xlink:href="#f0_9" transform="matrix(12,0,0,12,691.6,250.3)" />
<use xlink:href="#f0_e" transform="matrix(12,0,0,12,709.4,250.3)" />
<use xlink:href="#f0_8" transform="matrix(12,0,0,12,721.4,250.3)" />
<use xlink:href="#f0_7" transform="matrix(12,0,0,12,733.8,250.3)" />
<use xlink:href="#f0_4" transform="matrix(12,0,0,12,737.9,250.3)" />
<use xlink:href="#f0_a" transform="matrix(12,0,0,12,750.9,250.3)" />
<use xlink:href="#f0_f" transform="matrix(12,0,0,12,761.3,250.3)" />
</g>
</g>
<path d="M128.6,274.3H480.1M128.6,296.5H480.1M128.6,318.6H480.1M128.6,340.8H480.1M128.6,362.9H480.1M128.6,385.1H480.1M128.6,428.6H480.1M128.6,450.8H480.1M128.6,472.9H480.1M128.6,495.1H480.1M128.6,517.2H480.1M128.6,539.4H480.1M128.6,561.5H480.1M128.6,583.7H480.1M128.6,605.8H480.1M128.6,628H480.1M128.6,650.1H480.1M128.6,672.3H480.1M128.9,273.9V672.7M226.4,273.9V672.7M312.9,273.9V672.7M410.5,273.9V672.7M479.7,273.9V672.7" class="g1_11" />
<g clip-path="url(#c0_11)">
<g fill="#000000" >
<use xlink:href="#f0_9" transform="matrix(12,0,0,12,430.2,291.7)" />
<use xlink:href="#f0_4" transform="matrix(12,0,0,12,442.1,291.7)" />
<use xlink:href="#f0_7" transform="matrix(12,0,0,12,455.1,291.7)" />
<use xlink:href="#f0_d" transform="matrix(12,0,0,12,459.2,291.7)" />
<use xlink:href="#f2_p" transform="matrix(11,0,0,11,321.8,290.3)" />
<use xlink:href="#f2_f" transform="matrix(11,0,0,11,334.7,290.3)" />
<use xlink:href="#f2_1b" transform="matrix(11,0,0,11,343.1,290.3)" />
<use xlink:href="#f2_2" transform="matrix(11,0,0,11,347.9,290.3)" />
<use xlink:href="#f2_3" transform="matrix(11,0,0,11,355.2,290.3)" />
<use xlink:href="#f0_a" transform="matrix(12,0,0,12,276.4,291.7)" />
<use xlink:href="#f0_f" transform="matrix(12,0,0,12,286.8,291.7)" />
<use xlink:href="#f0_k" transform="matrix(12,0,0,12,297.3,291.7)" />
<use xlink:href="#f2_x" transform="matrix(11,0,0,11,137.7,290.3)" />
<use xlink:href="#f2_8" transform="matrix(11,0,0,11,146.1,290.3)" />
<use xlink:href="#f2_p" transform="matrix(11,0,0,11,154.5,290.3)" />
<use xlink:href="#f2_v" transform="matrix(11,0,0,11,167.6,290.3)" />
<use xlink:href="#f2_3" transform="matrix(11,0,0,11,176,290.3)" />
<use xlink:href="#f2_2" transform="matrix(11,0,0,11,181.5,290.3)" />
<use xlink:href="#f0_e" transform="matrix(12,0,0,12,434.7,313.8)" />
<use xlink:href="#f0_8" transform="matrix(12,0,0,12,446.7,313.8)" />
<use xlink:href="#f0_d" transform="matrix(12,0,0,12,459.2,313.8)" />
<use xlink:href="#f2_s" transform="matrix(11,0,0,11,321.8,312.4)" />
<use xlink:href="#f2_2" transform="matrix(11,0,0,11,330.2,312.4)" />
<use xlink:href="#f2_3" transform="matrix(11,0,0,11,337.5,312.4)" />
<use xlink:href="#f2_e" transform="matrix(11,0,0,11,343.1,312.4)" />
<use xlink:href="#f2_m" transform="matrix(11,0,0,11,351.5,312.4)" />
<use xlink:href="#f2_e" transform="matrix(11,0,0,11,359,312.4)" />
<use xlink:href="#f0_a" transform="matrix(12,0,0,12,268.4,313.8)" />
<use xlink:href="#f0_p" transform="matrix(12,0,0,12,278.8,313.8)" />
<use xlink:href="#f0_4" transform="matrix(12,0,0,12,291.8,313.8)" />
<use xlink:href="#f2_p" transform="matrix(11,0,0,11,137.7,312.4)" />
<use xlink:href="#f2_2" transform="matrix(11,0,0,11,150.8,312.4)" />
<use xlink:href="#f2_a" transform="matrix(11,0,0,11,158.2,312.4)" />
<use xlink:href="#f2_h" transform="matrix(11,0,0,11,166.5,312.4)" />
<use xlink:href="#f2_4" transform="matrix(11,0,0,11,171.2,312.4)" />
<use xlink:href="#f2_3" transform="matrix(11,0,0,11,175.9,312.4)" />
<use xlink:href="#f2_m" transform="matrix(11,0,0,11,181.4,312.4)" />
<use xlink:href="#f0_9" transform="matrix(12,0,0,12,444,336)" />
<use xlink:href="#f0_m" transform="matrix(12,0,0,12,455.9,336)" />
<use xlink:href="#f0_7" transform="matrix(12,0,0,12,467.3,336)" />
<use xlink:href="#f2_v" transform="matrix(11,0,0,11,321.8,334.6)" />
<use xlink:href="#f2_8" transform="matrix(11,0,0,11,330.2,334.6)" />
<use xlink:href="#f2_a" transform="matrix(11,0,0,11,338.6,334.6)" />
<use xlink:href="#f2_4" transform="matrix(11,0,0,11,346.8,334.6)" />
<use xlink:href="#f2_h" transform="matrix(11,0,0,11,351.5,334.6)" />
<use xlink:href="#f2_8" transform="matrix(11,0,0,11,356.3,334.6)" />
<use xlink:href="#f0_a" transform="matrix(12,0,0,12,255.9,336)" />
<use xlink:href="#f0_l" transform="matrix(12,0,0,12,266.3,336)" />
<use xlink:href="#f0_c" transform="matrix(12,0,0,12,277.7,336)" />
<use xlink:href="#f0_i" transform="matrix(12,0,0,12,282.6,336)" />
<use xlink:href="#f0_8" transform="matrix(12,0,0,12,292.3,336)" />
<use xlink:href="#f2_t" transform="matrix(11,0,0,11,137.7,334.6)" />
<use xlink:href="#f2_2" transform="matrix(11,0,0,11,143.3,334.6)" />
<use xlink:href="#f2_8" transform="matrix(11,0,0,11,150.7,334.6)" />
<use xlink:href="#f0_a" transform="matrix(12,0,0,12,448.1,358.1)" />
<use xlink:href="#f0_p" transform="matrix(12,0,0,12,458.5,358.1)" />
<use xlink:href="#f2_t" transform="matrix(11,0,0,11,321.8,356.7)" />
<use xlink:href="#f2_3" transform="matrix(11,0,0,11,327.2,356.7)" />
<use xlink:href="#f2_q" transform="matrix(11,0,0,11,332.9,356.7)" />
<use xlink:href="#f2_8" transform="matrix(11,0,0,11,337.6,356.7)" />
<use xlink:href="#f0_6" transform="matrix(12,0,0,12,280.7,358.1)" />
<use xlink:href="#f0_g" transform="matrix(12,0,0,12,292.9,358.1)" />
<use xlink:href="#f2_5" transform="matrix(11,0,0,11,137.7,356.7)" />
<use xlink:href="#f2_m" transform="matrix(11,0,0,11,145.1,356.7)" />
<use xlink:href="#f2_l" transform="matrix(11,0,0,11,152.6,356.7)" />
<use xlink:href="#f2_4" transform="matrix(11,0,0,11,157.2,356.7)" />
<use xlink:href="#f2_2" transform="matrix(11,0,0,11,161.9,356.7)" />
<use xlink:href="#f2_a" transform="matrix(11,0,0,11,169.3,356.7)" />
<use xlink:href="#f2_h" transform="matrix(11,0,0,11,177.8,356.7)" />
<use xlink:href="#f2_2" transform="matrix(11,0,0,11,182.3,356.7)" />
<use xlink:href="#f0_a" transform="matrix(12,0,0,12,443.1,380.3)" />
<use xlink:href="#f0_c" transform="matrix(12,0,0,12,453.4,380.3)" />
<use xlink:href="#f0_p" transform="matrix(12,0,0,12,458.5,380.3)" />
<use xlink:href="#f2_t" transform="matrix(11,0,0,11,321.8,378.9)" />
<use xlink:href="#f2_3" transform="matrix(11,0,0,11,327.2,378.9)" />
<use xlink:href="#f2_q" transform="matrix(11,0,0,11,332.9,378.9)" />
<use xlink:href="#f2_8" transform="matrix(11,0,0,11,337.6,378.9)" />
<use xlink:href="#f0_6" transform="matrix(12,0,0,12,275.6,380.3)" />
<use xlink:href="#f0_c" transform="matrix(12,0,0,12,287.8,380.3)" />
<use xlink:href="#f0_g" transform="matrix(12,0,0,12,292.8,380.3)" />
<use xlink:href="#f2_5" transform="matrix(11,0,0,11,137.7,378.9)" />
<use xlink:href="#f2_m" transform="matrix(11,0,0,11,145.1,378.9)" />
<use xlink:href="#f2_l" transform="matrix(11,0,0,11,152.6,378.9)" />
<use xlink:href="#f2_8" transform="matrix(11,0,0,11,157.3,378.9)" />
<use xlink:href="#f2_3" transform="matrix(11,0,0,11,165.6,378.9)" />
<use xlink:href="#f0_3" transform="matrix(12,0,0,12,423.5,402.4)" />
<use xlink:href="#f0_i" transform="matrix(12,0,0,12,433.9,402.4)" />
<use xlink:href="#f0_c" transform="matrix(12,0,0,12,443.5,402.4)" />
<use xlink:href="#f0_3" transform="matrix(12,0,0,12,448.5,402.4)" />
<use xlink:href="#f0_8" transform="matrix(12,0,0,12,458.9,402.4)" />
<use xlink:href="#f0_2" transform="matrix(12,0,0,12,461.7,423.8)" />
<use xlink:href="#f2_g" transform="matrix(11,0,0,11,321.8,401)" />
<use xlink:href="#f2_f" transform="matrix(11,0,0,11,328.3,401)" />
<use xlink:href="#f2_5" transform="matrix(11,0,0,11,336.6,401)" />
<use xlink:href="#f2_4" transform="matrix(11,0,0,11,344,401)" />
<use xlink:href="#f2_8" transform="matrix(11,0,0,11,348.7,401)" />
<use xlink:href="#f0_7" transform="matrix(12,0,0,12,280.3,402.4)" />
<use xlink:href="#f0_p" transform="matrix(12,0,0,12,284.5,402.4)" />
<use xlink:href="#f0_n" transform="matrix(12,0,0,12,297.4,402.4)" />
<use xlink:href="#f2_l" transform="matrix(11,0,0,11,137.7,401)" />
<use xlink:href="#f2_4" transform="matrix(11,0,0,11,142.4,401)" />
<use xlink:href="#f2_p" transform="matrix(11,0,0,11,147,401)" />
<use xlink:href="#f2_u" transform="matrix(11,0,0,11,160.1,401)" />
<use xlink:href="#f2_4" transform="matrix(11,0,0,11,168.5,401)" />
<use xlink:href="#f2_8" transform="matrix(11,0,0,11,173.2,401)" />
<use xlink:href="#f0_6" transform="matrix(12,0,0,12,437.7,446)" />
<use xlink:href="#f0_i" transform="matrix(12,0,0,12,449.9,446)" />
<use xlink:href="#f0_g" transform="matrix(12,0,0,12,459.5,446)" />
<use xlink:href="#f2_4" transform="matrix(11,0,0,11,321.8,444.6)" />
<use xlink:href="#f2_a" transform="matrix(11,0,0,11,326.3,444.6)" />
<use xlink:href="#f2_h" transform="matrix(11,0,0,11,334.7,444.6)" />
<use xlink:href="#f2_2" transform="matrix(11,0,0,11,339.5,444.6)" />
<use xlink:href="#f2_l" transform="matrix(11,0,0,11,346.8,444.6)" />
<use xlink:href="#f2_4" transform="matrix(11,0,0,11,351.5,444.6)" />
<use xlink:href="#f2_w" transform="matrix(11,0,0,11,356.2,444.6)" />
<use xlink:href="#f2_2" transform="matrix(11,0,0,11,364.6,444.6)" />
<use xlink:href="#f2_a" transform="matrix(11,0,0,11,372.1,444.6)" />
<use xlink:href="#f2_h" transform="matrix(11,0,0,11,380.4,444.6)" />
<use xlink:href="#f2_2" transform="matrix(11,0,0,11,385.1,444.6)" />
<use xlink:href="#f0_4" transform="matrix(12,0,0,12,264.5,446)" />
<use xlink:href="#f0_m" transform="matrix(12,0,0,12,277.4,446)" />
<use xlink:href="#f0_7" transform="matrix(12,0,0,12,288.9,446)" />
<use xlink:href="#f0_w" transform="matrix(12,0,0,12,292.9,446)" />
<use xlink:href="#f2_2" transform="matrix(11,0,0,11,137.7,444.6)" />
<use xlink:href="#f2_g" transform="matrix(11,0,0,11,145.1,444.6)" />
<use xlink:href="#f2_h" transform="matrix(11,0,0,11,151.7,444.6)" />
<use xlink:href="#f2_i" transform="matrix(11,0,0,11,156.4,444.6)" />
<use xlink:href="#f2_u" transform="matrix(11,0,0,11,164.8,444.6)" />
<use xlink:href="#f2_4" transform="matrix(11,0,0,11,173,444.6)" />
<use xlink:href="#f2_e" transform="matrix(11,0,0,11,177.8,444.6)" />
<use xlink:href="#f2_8" transform="matrix(11,0,0,11,186.2,444.6)" />
<use xlink:href="#f0_3" transform="matrix(12,0,0,12,448.1,468.1)" />
<use xlink:href="#f0_p" transform="matrix(12,0,0,12,458.5,468.1)" />
<use xlink:href="#f2_t" transform="matrix(11,0,0,11,321.8,466.7)" />
<use xlink:href="#f2_16" transform="matrix(11,0,0,11,327.2,466.7)" />
<use xlink:href="#f2_5" transform="matrix(11,0,0,11,334.7,466.7)" />
<use xlink:href="#f2_4" transform="matrix(11,0,0,11,342.2,466.7)" />
<use xlink:href="#f2_l" transform="matrix(11,0,0,11,346.8,466.7)" />
<use xlink:href="#f0_9" transform="matrix(12,0,0,12,266.9,468.1)" />
<use xlink:href="#f0_4" transform="matrix(12,0,0,12,278.8,468.1)" />
<use xlink:href="#f0_p" transform="matrix(12,0,0,12,291.8,468.1)" />
<use xlink:href="#f2_e" transform="matrix(11,0,0,11,137.7,466.7)" />
<use xlink:href="#f2_4" transform="matrix(11,0,0,11,146.1,466.7)" />
<use xlink:href="#f2_t" transform="matrix(11,0,0,11,150.8,466.7)" />
<use xlink:href="#f2_q" transform="matrix(11,0,0,11,156.3,466.7)" />
<use xlink:href="#f2_5" transform="matrix(11,0,0,11,161,466.7)" />
<use xlink:href="#f2_4" transform="matrix(11,0,0,11,168.5,466.7)" />
<use xlink:href="#f2_l" transform="matrix(11,0,0,11,173,466.7)" />
<use xlink:href="#f0_9" transform="matrix(12,0,0,12,442.8,490.3)" />
<use xlink:href="#f0_o" transform="matrix(12,0,0,12,454.7,490.3)" />
<use xlink:href="#f0_a" transform="matrix(12,0,0,12,461.1,490.3)" />
<use xlink:href="#f2_e" transform="matrix(11,0,0,11,321.8,488.9)" />
<use xlink:href="#f2_2" transform="matrix(11,0,0,11,330.2,488.9)" />
<use xlink:href="#f2_l" transform="matrix(11,0,0,11,337.5,488.9)" />
<use xlink:href="#f2_w" transform="matrix(11,0,0,11,342.2,488.9)" />
<use xlink:href="#f2_m" transform="matrix(11,0,0,11,350.6,488.9)" />
<use xlink:href="#f2_e" transform="matrix(11,0,0,11,358.1,488.9)" />
<use xlink:href="#f2_8" transform="matrix(11,0,0,11,366.5,488.9)" />
<use xlink:href="#f0_h" transform="matrix(12,0,0,12,274.4,490.3)" />
<use xlink:href="#f0_8" transform="matrix(12,0,0,12,279.4,490.3)" />
<use xlink:href="#f0_4" transform="matrix(12,0,0,12,291.8,490.3)" />
<use xlink:href="#f2_w" transform="matrix(11,0,0,11,137.7,488.9)" />
<use xlink:href="#f2_8" transform="matrix(11,0,0,11,146.1,488.9)" />
<use xlink:href="#f2_3" transform="matrix(11,0,0,11,154.5,488.9)" />
<use xlink:href="#f2_e" transform="matrix(11,0,0,11,160.1,488.9)" />
<use xlink:href="#f2_8" transform="matrix(11,0,0,11,168.5,488.9)" />
<use xlink:href="#f0_9" transform="matrix(12,0,0,12,436.5,512.4)" />
<use xlink:href="#f0_c" transform="matrix(12,0,0,12,448.4,512.4)" />
<use xlink:href="#f0_f" transform="matrix(12,0,0,12,453.4,512.4)" />
<use xlink:href="#f0_k" transform="matrix(12,0,0,12,464,512.4)" />
<use xlink:href="#f2_m" transform="matrix(11,0,0,11,321.8,511)" />
<use xlink:href="#f2_l" transform="matrix(11,0,0,11,329.1,511)" />
<use xlink:href="#f2_h" transform="matrix(11,0,0,11,333.8,511)" />
<use xlink:href="#f2_8" transform="matrix(11,0,0,11,338.5,511)" />
<use xlink:href="#f0_2" transform="matrix(12,0,0,12,270.3,512.4)" />
<use xlink:href="#f0_c" transform="matrix(12,0,0,12,280,512.4)" />
<use xlink:href="#f0_8" transform="matrix(12,0,0,12,285.1,512.4)" />
<use xlink:href="#f0_n" transform="matrix(12,0,0,12,297.4,512.4)" />
<use xlink:href="#f2_v" transform="matrix(11,0,0,11,137.7,511)" />
<use xlink:href="#f2_m" transform="matrix(11,0,0,11,146.1,511)" />
<use xlink:href="#f2_1b" transform="matrix(11,0,0,11,153.5,511)" />
<use xlink:href="#f2_8" transform="matrix(11,0,0,11,158.2,511)" />
<use xlink:href="#f0_3" transform="matrix(12,0,0,12,449.6,534.6)" />
<use xlink:href="#f0_c" transform="matrix(12,0,0,12,460,534.6)" />
<use xlink:href="#f0_o" transform="matrix(12,0,0,12,465,534.6)" />
<use xlink:href="#f2_v" transform="matrix(11,0,0,11,321.8,533.2)" />
<use xlink:href="#f2_m" transform="matrix(11,0,0,11,330.2,533.2)" />
<use xlink:href="#f2_3" transform="matrix(11,0,0,11,337.5,533.2)" />
<use xlink:href="#f2_m" transform="matrix(11,0,0,11,343.1,533.2)" />
<use xlink:href="#f2_h" transform="matrix(11,0,0,11,350.6,533.2)" />
<use xlink:href="#f2_8" transform="matrix(11,0,0,11,355.3,533.2)" />
<use xlink:href="#f0_a" transform="matrix(12,0,0,12,277.3,534.6)" />
<use xlink:href="#f0_p" transform="matrix(12,0,0,12,287.7,534.6)" />
<use xlink:href="#f0_7" transform="matrix(12,0,0,12,300.6,534.6)" />
<use xlink:href="#f2_5" transform="matrix(11,0,0,11,137.7,533.2)" />
<use xlink:href="#f2_m" transform="matrix(11,0,0,11,145.1,533.2)" />
<use xlink:href="#f2_3" transform="matrix(11,0,0,11,152.6,533.2)" />
<use xlink:href="#f2_8" transform="matrix(11,0,0,11,158.2,533.2)" />
<use xlink:href="#f0_4" transform="matrix(12,0,0,12,436.5,556.7)" />
<use xlink:href="#f0_q" transform="matrix(12,0,0,12,449.5,556.7)" />
<use xlink:href="#f0_g" transform="matrix(12,0,0,12,459.5,556.7)" />
<use xlink:href="#f2_a" transform="matrix(11,0,0,11,321.8,555.3)" />
<use xlink:href="#f2_f" transform="matrix(11,0,0,11,330.2,555.3)" />
<use xlink:href="#f2_2" transform="matrix(11,0,0,11,338.6,555.3)" />
<use xlink:href="#f2_s" transform="matrix(11,0,0,11,346,555.3)" />
<use xlink:href="#f2_8" transform="matrix(11,0,0,11,354.4,555.3)" />
<use xlink:href="#f0_x" transform="matrix(12,0,0,12,238.2,556.7)" />
<use xlink:href="#f0_h" transform="matrix(12,0,0,12,245.3,556.7)" />
<use xlink:href="#f0_p" transform="matrix(12,0,0,12,250.4,556.7)" />
<use xlink:href="#f0_o" transform="matrix(12,0,0,12,263.4,556.7)" />
<use xlink:href="#f0_v" transform="matrix(12,0,0,12,269.8,556.7)" />
<use xlink:href="#f0_h" transform="matrix(12,0,0,12,282.7,556.7)" />
<use xlink:href="#f0_4" transform="matrix(12,0,0,12,287.6,556.7)" />
<use xlink:href="#f0_7" transform="matrix(12,0,0,12,300.6,556.7)" />
<use xlink:href="#f2_s" transform="matrix(11,0,0,11,137.7,555.3)" />
<use xlink:href="#f2_4" transform="matrix(11,0,0,11,146.1,555.3)" />
<use xlink:href="#f2_2" transform="matrix(11,0,0,11,150.8,555.3)" />
<use xlink:href="#f2_1b" transform="matrix(11,0,0,11,158.1,555.3)" />
<use xlink:href="#f2_8" transform="matrix(11,0,0,11,162.8,555.3)" />
<use xlink:href="#f0_d" transform="matrix(12,0,0,12,434.2,578.9)" />
<use xlink:href="#f0_7" transform="matrix(12,0,0,12,446.4,578.9)" />
<use xlink:href="#f0_a" transform="matrix(12,0,0,12,450.5,578.9)" />
<use xlink:href="#f0_f" transform="matrix(12,0,0,12,460.9,578.9)" />
<use xlink:href="#f2_g" transform="matrix(11,0,0,11,321.8,577.5)" />
<use xlink:href="#f2_m" transform="matrix(11,0,0,11,328.2,577.5)" />
<use xlink:href="#f2_a" transform="matrix(11,0,0,11,335.6,577.5)" />
<use xlink:href="#f2_8" transform="matrix(11,0,0,11,344,577.5)" />
<use xlink:href="#f0_9" transform="matrix(12,0,0,12,265.5,578.9)" />
<use xlink:href="#f0_3" transform="matrix(12,0,0,12,277.4,578.9)" />
<use xlink:href="#f0_c" transform="matrix(12,0,0,12,287.8,578.9)" />
<use xlink:href="#f0_g" transform="matrix(12,0,0,12,292.9,578.9)" />
<use xlink:href="#f2_2" transform="matrix(11,0,0,11,137.7,577.5)" />
<use xlink:href="#f2_a" transform="matrix(11,0,0,11,145.1,577.5)" />
<use xlink:href="#f2_t" transform="matrix(11,0,0,11,153.5,577.5)" />
<use xlink:href="#f2_2" transform="matrix(11,0,0,11,159.1,577.5)" />
<use xlink:href="#f2_3" transform="matrix(11,0,0,11,166.5,577.5)" />
<use xlink:href="#f2_p" transform="matrix(11,0,0,11,172.1,577.5)" />
<use xlink:href="#f2_8" transform="matrix(11,0,0,11,185.2,577.5)" />
<use xlink:href="#f0_f" transform="matrix(12,0,0,12,433.6,601)" />
<use xlink:href="#f0_c" transform="matrix(12,0,0,12,444.1,601)" />
<use xlink:href="#f0_b" transform="matrix(12,0,0,12,449.1,601)" />
<use xlink:href="#f0_l" transform="matrix(12,0,0,12,460,601)" />
<use xlink:href="#f2_h" transform="matrix(11,0,0,11,321.8,599.7)" />
<use xlink:href="#f2_3" transform="matrix(11,0,0,11,326.3,599.7)" />
<use xlink:href="#f2_4" transform="matrix(11,0,0,11,332,599.7)" />
<use xlink:href="#f2_g" transform="matrix(11,0,0,11,336.6,599.7)" />
<use xlink:href="#f2_h" transform="matrix(11,0,0,11,343.1,599.7)" />
<use xlink:href="#f2_2" transform="matrix(11,0,0,11,347.8,599.7)" />
<use xlink:href="#f0_g" transform="matrix(12,0,0,12,267.5,601)" />
<use xlink:href="#f0_8" transform="matrix(12,0,0,12,279.4,601)" />
<use xlink:href="#f0_4" transform="matrix(12,0,0,12,291.8,601)" />
<use xlink:href="#f2_5" transform="matrix(11,0,0,11,137.7,599.7)" />
<use xlink:href="#f2_8" transform="matrix(11,0,0,11,145.1,599.7)" />
<use xlink:href="#f2_a" transform="matrix(11,0,0,11,153.5,599.7)" />
<use xlink:href="#f2_h" transform="matrix(11,0,0,11,161.9,599.7)" />
<use xlink:href="#f2_2" transform="matrix(11,0,0,11,166.6,599.7)" />
<use xlink:href="#f2_a" transform="matrix(11,0,0,11,174.1,599.7)" />
<use xlink:href="#f2_h" transform="matrix(11,0,0,11,182.4,599.7)" />
<use xlink:href="#f2_8" transform="matrix(11,0,0,11,187.1,599.7)" />
<use xlink:href="#f0_3" transform="matrix(12,0,0,12,439.1,623.2)" />
<use xlink:href="#f0_7" transform="matrix(12,0,0,12,449.5,623.2)" />
<use xlink:href="#f0_k" transform="matrix(12,0,0,12,453.6,623.2)" />
<use xlink:href="#f0_a" transform="matrix(12,0,0,12,461.1,623.2)" />
<use xlink:href="#f2_3" transform="matrix(11,0,0,11,321.8,621.8)" />
<use xlink:href="#f2_2" transform="matrix(11,0,0,11,327.2,621.8)" />
<use xlink:href="#f2_w" transform="matrix(11,0,0,11,334.7,621.8)" />
<use xlink:href="#f2_f" transform="matrix(11,0,0,11,343.1,621.8)" />
<use xlink:href="#f2_l" transform="matrix(11,0,0,11,351.5,621.8)" />
<use xlink:href="#f2_m" transform="matrix(11,0,0,11,356.2,621.8)" />
<use xlink:href="#f2_3" transform="matrix(11,0,0,11,363.6,621.8)" />
<use xlink:href="#f0_q" transform="matrix(12,0,0,12,261.3,623.2)" />
<use xlink:href="#f0_g" transform="matrix(12,0,0,12,271.3,623.2)" />
<use xlink:href="#f0_c" transform="matrix(12,0,0,12,283.2,623.2)" />
<use xlink:href="#f0_7" transform="matrix(12,0,0,12,288.3,623.2)" />
<use xlink:href="#f0_8" transform="matrix(12,0,0,12,292.2,623.2)" />
<use xlink:href="#f2_2" transform="matrix(11,0,0,11,137.7,621.8)" />
<use xlink:href="#f2_g" transform="matrix(11,0,0,11,145.1,621.8)" />
<use xlink:href="#f2_u" transform="matrix(11,0,0,11,151.7,621.8)" />
<use xlink:href="#f2_2" transform="matrix(11,0,0,11,160.1,621.8)" />
<use xlink:href="#f2_5" transform="matrix(11,0,0,11,167.5,621.8)" />
<use xlink:href="#f2_4" transform="matrix(11,0,0,11,174.9,621.8)" />
<use xlink:href="#f2_m" transform="matrix(11,0,0,11,179.6,621.8)" />
<use xlink:href="#f2_l" transform="matrix(11,0,0,11,187,621.8)" />
<use xlink:href="#f0_3" transform="matrix(12,0,0,12,438.5,645.3)" />
<use xlink:href="#f0_c" transform="matrix(12,0,0,12,448.9,645.3)" />
<use xlink:href="#f0_q" transform="matrix(12,0,0,12,453.9,645.3)" />
<use xlink:href="#f0_k" transform="matrix(12,0,0,12,464,645.3)" />
<use xlink:href="#f2_w" transform="matrix(11,0,0,11,321.8,644)" />
<use xlink:href="#f2_3" transform="matrix(11,0,0,11,330,644)" />
<use xlink:href="#f2_m" transform="matrix(11,0,0,11,335.6,644)" />
<use xlink:href="#f2_a" transform="matrix(11,0,0,11,343.1,644)" />
<use xlink:href="#f2_e" transform="matrix(11,0,0,11,351.5,644)" />
<use xlink:href="#f2_2" transform="matrix(11,0,0,11,359.9,644)" />
<use xlink:href="#f0_h" transform="matrix(12,0,0,12,275,645.3)" />
<use xlink:href="#f0_w" transform="matrix(12,0,0,12,279.9,645.3)" />
<use xlink:href="#f0_p" transform="matrix(12,0,0,12,291.8,645.3)" />
<use xlink:href="#f2_u" transform="matrix(11,0,0,11,137.7,644)" />
<use xlink:href="#f2_2" transform="matrix(11,0,0,11,146.1,644)" />
<use xlink:href="#f2_1g" transform="matrix(11,0,0,11,153.5,644)" />
<use xlink:href="#f2_f" transform="matrix(11,0,0,11,161.9,644)" />
<use xlink:href="#f2_2" transform="matrix(11,0,0,11,170.3,644)" />
<use xlink:href="#f2_1e" transform="matrix(11,0,0,11,177.8,644)" />
<use xlink:href="#f2_8" transform="matrix(11,0,0,11,186.2,644)" />
<use xlink:href="#f0_w" transform="matrix(12,0,0,12,433.6,667.5)" />
<use xlink:href="#f0_p" transform="matrix(12,0,0,12,445.5,667.5)" />
<use xlink:href="#f0_4" transform="matrix(12,0,0,12,458.5,667.5)" />
<use xlink:href="#f2_g" transform="matrix(11,0,0,11,321.8,666.1)" />
<use xlink:href="#f2_4" transform="matrix(11,0,0,11,328.2,666.1)" />
<use xlink:href="#f2_l" transform="matrix(11,0,0,11,332.9,666.1)" />
<use xlink:href="#f2_2" transform="matrix(11,0,0,11,337.6,666.1)" />
<use xlink:href="#f2_a" transform="matrix(11,0,0,11,345.1,666.1)" />
<use xlink:href="#f2_5" transform="matrix(11,0,0,11,353.3,666.1)" />
<use xlink:href="#f2_4" transform="matrix(11,0,0,11,360.8,666.1)" />
<use xlink:href="#f2_8" transform="matrix(11,0,0,11,365.5,666.1)" />
<use xlink:href="#f0_4" transform="matrix(12,0,0,12,270,667.5)" />
<use xlink:href="#f0_l" transform="matrix(12,0,0,12,282.9,667.5)" />
<use xlink:href="#f0_a" transform="matrix(12,0,0,12,294.4,667.5)" />
<use xlink:href="#f2_3" transform="matrix(11,0,0,11,137.7,666.1)" />
<use xlink:href="#f2_f" transform="matrix(11,0,0,11,143.3,666.1)" />
<use xlink:href="#f2_4" transform="matrix(11,0,0,11,151.7,666.1)" />
<use xlink:href="#f2_e" transform="matrix(11,0,0,11,156.4,666.1)" />
<use xlink:href="#f2_8" transform="matrix(11,0,0,11,164.8,666.1)" />
<use xlink:href="#f3_6" transform="matrix(16,0,0,16,717.9,713.8)" />
<use xlink:href="#f3_e" transform="matrix(16,0,0,16,729.8,713.8)" />
<use xlink:href="#f3_7" transform="matrix(16,0,0,16,736.3,713.8)" />
<use xlink:href="#f3_8" transform="matrix(16,0,0,16,744.7,713.8)" />
<use xlink:href="#f3_b" transform="matrix(16,0,0,16,757.1,713.8)" />
<use xlink:href="#f3_q" transform="matrix(16,0,0,16,543.4,713.8)" />
<use xlink:href="#f3_r" transform="matrix(16,0,0,16,562.5,713.8)" />
<use xlink:href="#f3_o" transform="matrix(16,0,0,16,576.5,713.8)" />
<use xlink:href="#f3_q" transform="matrix(16,0,0,16,587.7,713.8)" />
<use xlink:href="#f3_l" transform="matrix(16,0,0,16,600.3,713.8)" />
<use xlink:href="#f3_s" transform="matrix(16,0,0,16,611.4,713.8)" />
<use xlink:href="#f3_n" transform="matrix(16,0,0,16,620,713.8)" />
<use xlink:href="#f3_l" transform="matrix(16,0,0,16,627,713.8)" />
<use xlink:href="#f3_q" transform="matrix(16,0,0,16,638.3,713.8)" />
<use xlink:href="#f3_o" transform="matrix(16,0,0,16,650.8,713.8)" />
<use xlink:href="#f0_9" transform="matrix(12,0,0,12,138.3,736.1)" />
<use xlink:href="#f0_8" transform="matrix(12,0,0,12,150.2,736.1)" />
<use xlink:href="#f0_7" transform="matrix(12,0,0,12,162.6,736.1)" />
<use xlink:href="#f0_4" transform="matrix(12,0,0,12,166.7,736.1)" />
<use xlink:href="#f0_a" transform="matrix(12,0,0,12,179.6,736.1)" />
<use xlink:href="#f0_9" transform="matrix(12,0,0,12,190,736.1)" />
<use xlink:href="#f0_3" transform="matrix(12,0,0,12,209.7,736.1)" />
<use xlink:href="#f0_c" transform="matrix(12,0,0,12,220.1,736.1)" />
<use xlink:href="#f0_8" transform="matrix(12,0,0,12,225.1,736.1)" />
<use xlink:href="#f0_2" transform="matrix(12,0,0,12,245.4,736.1)" />
<use xlink:href="#f0_7" transform="matrix(12,0,0,12,255.2,736.1)" />
<use xlink:href="#f0_e" transform="matrix(12,0,0,12,259.3,736.1)" />
<use xlink:href="#f0_c" transform="matrix(12,0,0,12,271.3,736.1)" />
<use xlink:href="#f0_f" transform="matrix(12,0,0,12,276.3,736.1)" />
<use xlink:href="#f0_c" transform="matrix(12,0,0,12,286.9,736.1)" />
<use xlink:href="#f0_4" transform="matrix(12,0,0,12,291.9,736.1)" />
<use xlink:href="#f0_e" transform="matrix(12,0,0,12,304.7,736.1)" />
<use xlink:href="#f0_p" transform="matrix(12,0,0,12,324.7,736.1)" />
<use xlink:href="#f0_c" transform="matrix(12,0,0,12,337.7,736.1)" />
<use xlink:href="#f0_q" transform="matrix(12,0,0,12,342.6,736.1)" />
<use xlink:href="#f0_f" transform="matrix(12,0,0,12,352.7,736.1)" />
<use xlink:href="#f0_j" transform="matrix(12,0,0,12,371.1,736.1)" />
<use xlink:href="#f0_h" transform="matrix(12,0,0,12,376.9,736.1)" />
<use xlink:href="#f0_q" transform="matrix(12,0,0,12,381.8,736.1)" />
<use xlink:href="#f0_7" transform="matrix(12,0,0,12,391.9,736.1)" />
<use xlink:href="#f0_b" transform="matrix(12,0,0,12,396,736.1)" />
<use xlink:href="#f0_f" transform="matrix(12,0,0,12,406.8,736.1)" />
<use xlink:href="#f0_6" transform="matrix(12,0,0,12,425.1,736.1)" />
<use xlink:href="#f0_c" transform="matrix(12,0,0,12,437.3,736.1)" />
<use xlink:href="#f0_k" transform="matrix(12,0,0,12,442.4,736.1)" />
<use xlink:href="#f0_a" transform="matrix(12,0,0,12,449.8,736.1)" />
<use xlink:href="#f0_e" transform="matrix(12,0,0,12,460.2,736.1)" />
<use xlink:href="#f0_9" transform="matrix(12,0,0,12,472.3,736.1)" />
<use xlink:href="#f0_e" transform="matrix(12,0,0,12,491.9,736.1)" />
<use xlink:href="#f0_d" transform="matrix(12,0,0,12,504,736.1)" />
<use xlink:href="#f0_6" transform="matrix(12,0,0,12,524.1,736.1)" />
<use xlink:href="#f0_c" transform="matrix(12,0,0,12,536.2,736.1)" />
<use xlink:href="#f0_4" transform="matrix(12,0,0,12,541.2,736.1)" />
<use xlink:href="#f0_a" transform="matrix(12,0,0,12,554.2,736.1)" />
<use xlink:href="#f0_c" transform="matrix(12,0,0,12,564.4,736.1)" />
<use xlink:href="#f0_s" transform="matrix(12,0,0,12,577.3,736.1)" />
<use xlink:href="#f0_6" transform="matrix(12,0,0,12,583.2,736.1)" />
<use xlink:href="#f0_7" transform="matrix(12,0,0,12,595.4,736.1)" />
<use xlink:href="#f0_d" transform="matrix(12,0,0,12,599.5,736.1)" />
<use xlink:href="#f0_f" transform="matrix(12,0,0,12,611.7,736.1)" />
<use xlink:href="#f0_9" transform="matrix(12,0,0,12,622.2,736.1)" />
<use xlink:href="#f0_6" transform="matrix(12,0,0,12,642.1,736.1)" />
<use xlink:href="#f0_7" transform="matrix(12,0,0,12,654.3,736.1)" />
<use xlink:href="#f0_i" transform="matrix(12,0,0,12,658.4,736.1)" />
<use xlink:href="#f0_m" transform="matrix(12,0,0,12,668,736.1)" />
<use xlink:href="#f0_9" transform="matrix(12,0,0,12,679.4,736.1)" />
<use xlink:href="#f0_9" transform="matrix(12,0,0,12,691.4,736.1)" />
<use xlink:href="#f0_h" transform="matrix(12,0,0,12,711,736.1)" />
<use xlink:href="#f0_7" transform="matrix(12,0,0,12,716.1,736.1)" />
<use xlink:href="#f0_f" transform="matrix(12,0,0,12,720.2,736.1)" />
<use xlink:href="#f0_2" transform="matrix(12,0,0,12,738.6,736.1)" />
<use xlink:href="#f0_q" transform="matrix(12,0,0,12,748.4,736.1)" />
<use xlink:href="#f0_4" transform="matrix(12,0,0,12,758.3,736.1)" />
<use xlink:href="#f0_j" transform="matrix(12,0,0,12,697.4,757.5)" />
<use xlink:href="#f0_e" transform="matrix(12,0,0,12,703.2,757.5)" />
<use xlink:href="#f0_7" transform="matrix(12,0,0,12,715.3,757.5)" />
<use xlink:href="#f0_a" transform="matrix(12,0,0,12,719.4,757.5)" />
<use xlink:href="#f0_c" transform="matrix(12,0,0,12,729.6,757.5)" />
<use xlink:href="#f0_p" transform="matrix(12,0,0,12,734.6,757.5)" />
<use xlink:href="#f0_8" transform="matrix(12,0,0,12,747.6,757.5)" />
<use xlink:href="#f0_9" transform="matrix(12,0,0,12,760.1,757.5)" />
<use xlink:href="#f2_s" transform="matrix(11,0,0,11,571.8,796.9)" />
<use xlink:href="#f2_2" transform="matrix(11,0,0,11,580.3,796.9)" />
<use xlink:href="#f2_3" transform="matrix(11,0,0,11,587.7,796.9)" />
<use xlink:href="#f2_e" transform="matrix(11,0,0,11,593.3,796.9)" />
<use xlink:href="#f2_m" transform="matrix(11,0,0,11,601.7,796.9)" />
<use xlink:href="#f2_e" transform="matrix(11,0,0,11,609.2,796.9)" />
<use xlink:href="#f2_v" transform="matrix(11,0,0,11,137.7,796.9)" />
<use xlink:href="#f2_m" transform="matrix(11,0,0,11,146.1,796.9)" />
<use xlink:href="#f2_1b" transform="matrix(11,0,0,11,153.5,796.9)" />
<use xlink:href="#f2_8" transform="matrix(11,0,0,11,158.2,796.9)" />
<use xlink:href="#f2_v" transform="matrix(11,0,0,11,571.8,816.1)" />
<use xlink:href="#f2_m" transform="matrix(11,0,0,11,580.3,816.1)" />
<use xlink:href="#f2_3" transform="matrix(11,0,0,11,587.7,816.1)" />
<use xlink:href="#f2_m" transform="matrix(11,0,0,11,593.3,816.1)" />
<use xlink:href="#f2_h" transform="matrix(11,0,0,11,600.7,816.1)" />
<use xlink:href="#f2_8" transform="matrix(11,0,0,11,605.4,816.1)" />
<use xlink:href="#f2_s" transform="matrix(11,0,0,11,137.7,816.1)" />
<use xlink:href="#f2_4" transform="matrix(11,0,0,11,146.1,816.1)" />
<use xlink:href="#f2_2" transform="matrix(11,0,0,11,150.8,816.1)" />
<use xlink:href="#f2_1b" transform="matrix(11,0,0,11,158.1,816.1)" />
<use xlink:href="#f2_8" transform="matrix(11,0,0,11,162.8,816.1)" />
<use xlink:href="#f2_v" transform="matrix(11,0,0,11,571.8,835.5)" />
<use xlink:href="#f2_8" transform="matrix(11,0,0,11,580.3,835.5)" />
<use xlink:href="#f2_a" transform="matrix(11,0,0,11,588.7,835.5)" />
<use xlink:href="#f2_4" transform="matrix(11,0,0,11,597.1,835.5)" />
<use xlink:href="#f2_h" transform="matrix(11,0,0,11,601.6,835.5)" />
<use xlink:href="#f2_8" transform="matrix(11,0,0,11,606.4,835.5)" />
<use xlink:href="#f2_5" transform="matrix(11,0,0,11,137.7,835.5)" />
<use xlink:href="#f2_m" transform="matrix(11,0,0,11,145.1,835.5)" />
<use xlink:href="#f2_3" transform="matrix(11,0,0,11,152.6,835.5)" />
<use xlink:href="#f2_8" transform="matrix(11,0,0,11,158.2,835.5)" />
<use xlink:href="#f2_e" transform="matrix(11,0,0,11,571.8,854.8)" />
<use xlink:href="#f2_2" transform="matrix(11,0,0,11,580.3,854.8)" />
<use xlink:href="#f2_l" transform="matrix(11,0,0,11,587.7,854.8)" />
<use xlink:href="#f2_w" transform="matrix(11,0,0,11,592.4,854.8)" />
<use xlink:href="#f2_m" transform="matrix(11,0,0,11,600.8,854.8)" />
<use xlink:href="#f2_e" transform="matrix(11,0,0,11,608.3,854.8)" />
<use xlink:href="#f2_8" transform="matrix(11,0,0,11,616.7,854.8)" />
<use xlink:href="#f2_5" transform="matrix(11,0,0,11,137.7,854.8)" />
<use xlink:href="#f2_8" transform="matrix(11,0,0,11,145.1,854.8)" />
<use xlink:href="#f2_a" transform="matrix(11,0,0,11,153.5,854.8)" />
<use xlink:href="#f2_h" transform="matrix(11,0,0,11,161.9,854.8)" />
<use xlink:href="#f2_2" transform="matrix(11,0,0,11,166.6,854.8)" />
<use xlink:href="#f2_a" transform="matrix(11,0,0,11,174.1,854.8)" />
<use xlink:href="#f2_h" transform="matrix(11,0,0,11,182.4,854.8)" />
<use xlink:href="#f2_8" transform="matrix(11,0,0,11,187.1,854.8)" />
<use xlink:href="#f2_t" transform="matrix(11,0,0,11,571.8,874.2)" />
<use xlink:href="#f2_16" transform="matrix(11,0,0,11,577.5,874.2)" />
<use xlink:href="#f2_5" transform="matrix(11,0,0,11,584.9,874.2)" />
<use xlink:href="#f2_4" transform="matrix(11,0,0,11,592.3,874.2)" />
<use xlink:href="#f2_l" transform="matrix(11,0,0,11,597,874.2)" />
<use xlink:href="#f2_e" transform="matrix(11,0,0,11,137.7,874.2)" />
<use xlink:href="#f2_4" transform="matrix(11,0,0,11,146.1,874.2)" />
<use xlink:href="#f2_t" transform="matrix(11,0,0,11,150.8,874.2)" />
<use xlink:href="#f2_q" transform="matrix(11,0,0,11,156.3,874.2)" />
<use xlink:href="#f2_5" transform="matrix(11,0,0,11,161,874.2)" />
<use xlink:href="#f2_4" transform="matrix(11,0,0,11,168.5,874.2)" />
<use xlink:href="#f2_l" transform="matrix(11,0,0,11,173,874.2)" />
<use xlink:href="#f2_m" transform="matrix(11,0,0,11,571.8,893.4)" />
<use xlink:href="#f2_l" transform="matrix(11,0,0,11,579.3,893.4)" />
<use xlink:href="#f2_h" transform="matrix(11,0,0,11,583.9,893.4)" />
<use xlink:href="#f2_8" transform="matrix(11,0,0,11,588.6,893.4)" />
<use xlink:href="#f2_2" transform="matrix(11,0,0,11,137.7,893.4)" />
<use xlink:href="#f2_a" transform="matrix(11,0,0,11,145.1,893.4)" />
<use xlink:href="#f2_t" transform="matrix(11,0,0,11,153.5,893.4)" />
<use xlink:href="#f2_2" transform="matrix(11,0,0,11,159.1,893.4)" />
<use xlink:href="#f2_3" transform="matrix(11,0,0,11,166.5,893.4)" />
<use xlink:href="#f2_p" transform="matrix(11,0,0,11,172.1,893.4)" />
<use xlink:href="#f2_8" transform="matrix(11,0,0,11,185.2,893.4)" />
<use xlink:href="#f2_w" transform="matrix(11,0,0,11,571.8,912.8)" />
<use xlink:href="#f2_3" transform="matrix(11,0,0,11,580.3,912.8)" />
<use xlink:href="#f2_m" transform="matrix(11,0,0,11,585.9,912.8)" />
<use xlink:href="#f2_a" transform="matrix(11,0,0,11,593.3,912.8)" />
<use xlink:href="#f2_e" transform="matrix(11,0,0,11,601.7,912.8)" />
<use xlink:href="#f2_2" transform="matrix(11,0,0,11,610.1,912.8)" />
<use xlink:href="#f2_2" transform="matrix(11,0,0,11,137.7,912.8)" />
<use xlink:href="#f2_g" transform="matrix(11,0,0,11,145.1,912.8)" />
<use xlink:href="#f2_u" transform="matrix(11,0,0,11,151.7,912.8)" />
<use xlink:href="#f2_2" transform="matrix(11,0,0,11,160.1,912.8)" />
<use xlink:href="#f2_5" transform="matrix(11,0,0,11,167.5,912.8)" />
<use xlink:href="#f2_4" transform="matrix(11,0,0,11,174.9,912.8)" />
<use xlink:href="#f2_m" transform="matrix(11,0,0,11,179.6,912.8)" />
<use xlink:href="#f2_l" transform="matrix(11,0,0,11,187,912.8)" />
<use xlink:href="#f2_p" transform="matrix(11,0,0,11,571.8,932.1)" />
<use xlink:href="#f2_f" transform="matrix(11,0,0,11,585,932.1)" />
<use xlink:href="#f2_1b" transform="matrix(11,0,0,11,593.2,932.1)" />
<use xlink:href="#f2_2" transform="matrix(11,0,0,11,597.9,932.1)" />
<use xlink:href="#f2_3" transform="matrix(11,0,0,11,605.4,932.1)" />
<use xlink:href="#f2_2" transform="matrix(11,0,0,11,137.7,932.1)" />
<use xlink:href="#f2_g" transform="matrix(11,0,0,11,145.1,932.1)" />
<use xlink:href="#f2_h" transform="matrix(11,0,0,11,151.7,932.1)" />
<use xlink:href="#f2_i" transform="matrix(11,0,0,11,156.4,932.1)" />
<use xlink:href="#f2_u" transform="matrix(11,0,0,11,164.8,932.1)" />
<use xlink:href="#f2_4" transform="matrix(11,0,0,11,173,932.1)" />
<use xlink:href="#f2_e" transform="matrix(11,0,0,11,177.8,932.1)" />
<use xlink:href="#f2_8" transform="matrix(11,0,0,11,186.2,932.1)" />
<use xlink:href="#f2_4" transform="matrix(11,0,0,11,571.8,951.5)" />
<use xlink:href="#f2_a" transform="matrix(11,0,0,11,576.6,951.5)" />
<use xlink:href="#f2_h" transform="matrix(11,0,0,11,584.8,951.5)" />
<use xlink:href="#f2_2" transform="matrix(11,0,0,11,589.5,951.5)" />
<use xlink:href="#f2_l" transform="matrix(11,0,0,11,597,951.5)" />
<use xlink:href="#f2_4" transform="matrix(11,0,0,11,601.6,951.5)" />
<use xlink:href="#f2_w" transform="matrix(11,0,0,11,606.3,951.5)" />
<use xlink:href="#f2_2" transform="matrix(11,0,0,11,614.7,951.5)" />
<use xlink:href="#f2_a" transform="matrix(11,0,0,11,622.2,951.5)" />
<use xlink:href="#f2_h" transform="matrix(11,0,0,11,630.6,951.5)" />
<use xlink:href="#f2_2" transform="matrix(11,0,0,11,635.3,951.5)" />
<use xlink:href="#f2_t" transform="matrix(11,0,0,11,137.7,951.5)" />
<use xlink:href="#f2_2" transform="matrix(11,0,0,11,143.3,951.5)" />
<use xlink:href="#f2_8" transform="matrix(11,0,0,11,150.7,951.5)" />
<use xlink:href="#f2_a" transform="matrix(11,0,0,11,571.8,970.8)" />
<use xlink:href="#f2_f" transform="matrix(11,0,0,11,580.3,970.8)" />
<use xlink:href="#f2_2" transform="matrix(11,0,0,11,588.7,970.8)" />
<use xlink:href="#f2_s" transform="matrix(11,0,0,11,596.1,970.8)" />
<use xlink:href="#f2_8" transform="matrix(11,0,0,11,604.5,970.8)" />
<use xlink:href="#f2_w" transform="matrix(11,0,0,11,137.7,970.8)" />
<use xlink:href="#f2_8" transform="matrix(11,0,0,11,146.1,970.8)" />
<use xlink:href="#f2_3" transform="matrix(11,0,0,11,154.5,970.8)" />
<use xlink:href="#f2_e" transform="matrix(11,0,0,11,160.1,970.8)" />
<use xlink:href="#f2_8" transform="matrix(11,0,0,11,168.5,970.8)" />
<use xlink:href="#f2_3" transform="matrix(11,0,0,11,571.8,990.2)" />
<use xlink:href="#f2_2" transform="matrix(11,0,0,11,577.5,990.2)" />
<use xlink:href="#f2_w" transform="matrix(11,0,0,11,584.9,990.2)" />
<use xlink:href="#f2_f" transform="matrix(11,0,0,11,593.3,990.2)" />
<use xlink:href="#f2_l" transform="matrix(11,0,0,11,601.6,990.2)" />
<use xlink:href="#f2_m" transform="matrix(11,0,0,11,606.3,990.2)" />
<use xlink:href="#f2_3" transform="matrix(11,0,0,11,613.8,990.2)" />
<use xlink:href="#f2_x" transform="matrix(11,0,0,11,137.7,990.2)" />
<use xlink:href="#f2_8" transform="matrix(11,0,0,11,146.1,990.2)" />
<use xlink:href="#f2_p" transform="matrix(11,0,0,11,154.5,990.2)" />
<use xlink:href="#f2_v" transform="matrix(11,0,0,11,167.6,990.2)" />
<use xlink:href="#f2_3" transform="matrix(11,0,0,11,176,990.2)" />
<use xlink:href="#f2_2" transform="matrix(11,0,0,11,181.5,990.2)" />
<use xlink:href="#f2_g" transform="matrix(11,0,0,11,571.8,1009.4)" />
<use xlink:href="#f2_m" transform="matrix(11,0,0,11,578.4,1009.4)" />
<use xlink:href="#f2_a" transform="matrix(11,0,0,11,585.9,1009.4)" />
<use xlink:href="#f2_8" transform="matrix(11,0,0,11,594.3,1009.4)" />
<use xlink:href="#f2_l" transform="matrix(11,0,0,11,137.7,1009.4)" />
<use xlink:href="#f2_4" transform="matrix(11,0,0,11,142.4,1009.4)" />
<use xlink:href="#f2_p" transform="matrix(11,0,0,11,147,1009.4)" />
<use xlink:href="#f2_u" transform="matrix(11,0,0,11,160.1,1009.4)" />
<use xlink:href="#f2_4" transform="matrix(11,0,0,11,168.5,1009.4)" />
<use xlink:href="#f2_8" transform="matrix(11,0,0,11,173.2,1009.4)" />
<use xlink:href="#f2_g" transform="matrix(11,0,0,11,571.8,1028.8)" />
<use xlink:href="#f2_4" transform="matrix(11,0,0,11,578.4,1028.8)" />
<use xlink:href="#f2_l" transform="matrix(11,0,0,11,583,1028.8)" />
<use xlink:href="#f2_2" transform="matrix(11,0,0,11,587.7,1028.8)" />
<use xlink:href="#f2_a" transform="matrix(11,0,0,11,595.2,1028.8)" />
<use xlink:href="#f2_5" transform="matrix(11,0,0,11,603.6,1028.8)" />
<use xlink:href="#f2_4" transform="matrix(11,0,0,11,611,1028.8)" />
<use xlink:href="#f2_8" transform="matrix(11,0,0,11,615.8,1028.8)" />
<use xlink:href="#f2_p" transform="matrix(11,0,0,11,137.7,1028.8)" />
<use xlink:href="#f2_2" transform="matrix(11,0,0,11,150.8,1028.8)" />
<use xlink:href="#f2_a" transform="matrix(11,0,0,11,158.2,1028.8)" />
<use xlink:href="#f2_h" transform="matrix(11,0,0,11,166.5,1028.8)" />
<use xlink:href="#f2_4" transform="matrix(11,0,0,11,171.2,1028.8)" />
<use xlink:href="#f2_3" transform="matrix(11,0,0,11,175.9,1028.8)" />
<use xlink:href="#f2_m" transform="matrix(11,0,0,11,181.4,1028.8)" />
<use xlink:href="#f2_g" transform="matrix(11,0,0,11,571.8,1048.1)" />
<use xlink:href="#f2_f" transform="matrix(11,0,0,11,578.4,1048.1)" />
<use xlink:href="#f2_5" transform="matrix(11,0,0,11,586.8,1048.1)" />
<use xlink:href="#f2_4" transform="matrix(11,0,0,11,594.3,1048.1)" />
<use xlink:href="#f2_8" transform="matrix(11,0,0,11,599,1048.1)" />
<use xlink:href="#f2_u" transform="matrix(11,0,0,11,137.7,1048.1)" />
<use xlink:href="#f2_2" transform="matrix(11,0,0,11,146.1,1048.1)" />
<use xlink:href="#f2_1g" transform="matrix(11,0,0,11,153.5,1048.1)" />
<use xlink:href="#f2_f" transform="matrix(11,0,0,11,161.9,1048.1)" />
<use xlink:href="#f2_2" transform="matrix(11,0,0,11,170.3,1048.1)" />
<use xlink:href="#f2_1e" transform="matrix(11,0,0,11,177.8,1048.1)" />
<use xlink:href="#f2_8" transform="matrix(11,0,0,11,186.2,1048.1)" />
<use xlink:href="#f2_h" transform="matrix(11,0,0,11,571.8,1067.5)" />
<use xlink:href="#f2_3" transform="matrix(11,0,0,11,576.6,1067.5)" />
<use xlink:href="#f2_4" transform="matrix(11,0,0,11,582.1,1067.5)" />
<use xlink:href="#f2_g" transform="matrix(11,0,0,11,586.8,1067.5)" />
<use xlink:href="#f2_h" transform="matrix(11,0,0,11,593.3,1067.5)" />
<use xlink:href="#f2_2" transform="matrix(11,0,0,11,597.9,1067.5)" />
<use xlink:href="#f2_3" transform="matrix(11,0,0,11,137.7,1067.5)" />
<use xlink:href="#f2_f" transform="matrix(11,0,0,11,143.3,1067.5)" />
<use xlink:href="#f2_4" transform="matrix(11,0,0,11,151.7,1067.5)" />
<use xlink:href="#f2_e" transform="matrix(11,0,0,11,156.4,1067.5)" />
<use xlink:href="#f2_8" transform="matrix(11,0,0,11,164.8,1067.5)" />
</g>
</g>
<image preserveAspectRatio="none" x="-145" y="274" width="161" height="88" xlink:href="img/1.png" />
<image preserveAspectRatio="none" x="-145" y="370" width="171" height="77" xlink:href="img/2.png" />
<image preserveAspectRatio="none" x="-153" y="491" width="197" height="72" xlink:href="img/3.png" />
<image preserveAspectRatio="none" x="-145" y="594" width="173" height="73" xlink:href="img/4.png" />
<defs>
<path d="M287,0L589,729H66v386H205V836l547,-1l-2,-82L433,0Z" 
id="f0_3"
transform="scale(0.001,-0.001)" />

<path d="M102,312V836H241V369L102,312Z" 
id="f0_7"
transform="scale(0.001,-0.001)" />

<path d="M138,-7c0,0,-34,0,-72,10V129c0,0,25,-8,52,-8c0,0,33,0,58,5c0,0,26,5,58,24c0,0,33,20,53,54c0,0,21,34,36,97c0,0,15,64,15,151c0,0,0,113,-19,173c0,0,-19,60,-56,82c0,0,-38,22,-107,22H89V836h72c0,0,165,0,240,-91c0,0,76,-91,76,-293c0,0,0,-107,26,-227c0,0,25,-119,83,-225H437c0,0,-43,101,-62,184c0,0,-24,-60,-51,-99c0,0,-26,-38,-56,-58C268,27,239,7,209,0c0,0,-30,-7,-71,-7Z" 
id="f0_k"
transform="scale(0.001,-0.001)" />

<path d="M585,0V426c0,0,0,54,-8,98c0,0,-8,44,-27,83c0,0,-19,40,-49,66c0,0,-30,26,-77,41c0,0,-47,15,-108,15H66V836H315c0,0,94,0,166,-20c0,0,71,-20,116,-54c0,0,46,-35,75,-88c0,0,28,-52,40,-112c0,0,12,-60,12,-137V0Z" 
id="f0_a"
transform="scale(0.001,-0.001)" />

<path d="M112,-5c0,0,-39,0,-97,11V113c0,0,48,-10,77,-10c0,0,53,0,70,42c0,0,17,43,17,164V729H50V836H501c0,0,107,0,179,-25c0,0,72,-25,112,-77c0,0,40,-51,57,-118c0,0,16,-67,16,-164V0H726V454c0,0,0,55,-3,92c0,0,-4,37,-17,75c0,0,-14,38,-38,59c0,0,-24,22,-65,36c0,0,-42,13,-102,13H318V309c0,0,0,-160,-46,-237C272,72,226,-5,112,-5Z" 
id="f0_e"
transform="scale(0.001,-0.001)" />

<path d="M139,0V836H278V0Z" 
id="f0_c"
transform="scale(0.001,-0.001)" />

<path d="M66,0V107H554V452c0,0,0,56,-4,93c0,0,-4,37,-18,75c0,0,-14,38,-40,60c0,0,-26,22,-71,36c0,0,-45,13,-110,13H66V836H312c0,0,91,0,157,-17c0,0,66,-17,109,-49c0,0,44,-32,69,-84c0,0,26,-52,36,-114c0,0,10,-62,10,-147V107H817V0Z" 
id="f0_f"
transform="scale(0.001,-0.001)" />

<path d="M180,0L66,836H203L258,443c0,0,36,1,64,6c0,0,28,6,49,18c0,0,20,12,35,26c0,0,15,13,26,36c0,0,11,24,17,44c0,0,7,20,12,55c0,0,6,34,9,60c0,0,3,26,8,71c0,0,4,45,9,77H610c0,0,-13,-194,-31,-271c0,0,-31,-127,-111,-179c0,0,-71,-45,-196,-50L304,107c0,0,73,0,130,5c0,0,56,6,111,21c0,0,54,15,94,40c0,0,40,25,77,64c0,0,37,39,63,94c0,0,25,54,46,128c0,0,21,73,34,166c0,0,13,94,20,211h138c0,0,-14,-124,-29,-218c0,0,-16,-94,-39,-179c0,0,-22,-85,-50,-146c0,0,-28,-61,-68,-112c0,0,-39,-51,-87,-84C744,97,696,65,632,42C632,42,568,19,492,10C492,10,417,0,320,0Z" 
id="f0_4"
transform="scale(0.001,-0.001)" />

<path d="M190,0V127H436V977L168,923v137l267,54H586V127H832V0Z" 
id="f0_13"
transform="scale(0.001,-0.001)" />

<path d="M111,0V127c0,0,86,89,234,238c0,0,148,150,186,193c0,0,73,81,101,138c0,0,29,56,29,110c0,0,0,89,-62,145c0,0,-62,56,-162,56c0,0,-71,0,-150,-25c0,0,-78,-24,-168,-75v153c0,0,91,37,170,55c0,0,79,19,145,19c0,0,173,0,276,-86c0,0,103,-87,103,-232c0,0,0,-68,-26,-130c0,0,-26,-61,-94,-145c0,0,-18,-22,-118,-125C575,416,475,313,293,127H818V0Z" 
id="f0_14"
transform="scale(0.001,-0.001)" />

<path d="M679,178V467c0,0,0,110,-32,150c0,0,-31,41,-120,41H385V178ZM139,0V836H525c0,0,220,0,311,-90c0,0,90,-90,90,-297V0Z" 
id="f1_c"
transform="scale(0.001,-0.001)" />

<path d="M102,250V836H349V351L102,250Z" 
id="f1_d"
transform="scale(0.001,-0.001)" />

<path d="M66,0V177H334c0,0,99,0,150,66c0,0,51,67,51,175c0,0,0,108,-51,175c0,0,-51,66,-150,66H66V836H334c0,0,92,0,168,-24c0,0,75,-24,127,-64c0,0,51,-40,86,-94c0,0,35,-54,51,-113c0,0,15,-60,15,-123c0,0,0,-63,-15,-123c0,0,-16,-59,-51,-113c0,0,-35,-54,-86,-94C629,88,577,48,502,24C502,24,426,0,334,0Z" 
id="f1_w"
transform="scale(0.001,-0.001)" />

<path d="M139,0V177H436c0,0,127,0,184,56c0,0,56,55,56,186c0,0,0,132,-58,186c0,0,-58,53,-181,53H386L385,553c0,0,0,-40,12,-54c0,0,12,-15,31,-15c0,0,19,0,38,2V343c0,0,-46,-11,-94,-11c0,0,-48,0,-87,11c0,0,-38,10,-73,34c0,0,-73,53,-73,196V836H487c0,0,203,0,319,-109c0,0,116,-109,116,-309c0,0,0,-200,-117,-309C805,109,689,0,487,0Z" 
id="f1_5"
transform="scale(0.001,-0.001)" />

<path d="M153,0V437L399,539V0ZM664,0V450c0,0,0,122,-31,165c0,0,-31,43,-121,43H138V836H511c0,0,113,0,188,-22c0,0,75,-23,123,-73c0,0,47,-51,68,-127c0,0,20,-76,20,-189V0Z" 
id="f1_a"
transform="scale(0.001,-0.001)" />

<path d="M81,-216L155,61V288H424V61L241,-216Z" 
id="f1_h"
transform="scale(0.001,-0.001)" />

<path d="M248,0L521,658H66v429H313V836l493,-1V716L504,0Z" 
id="f1_n"
transform="scale(0.001,-0.001)" />

<path d="M129,0l69,362c0,0,10,56,12,100c0,0,0,84,-27,159c0,0,-27,76,-117,215H322c0,0,9,-6,31,-79c0,0,23,-72,23,-105c0,0,23,82,100,138c0,0,77,57,160,57c0,0,332,0,332,-397V0H538V177H721V449c0,0,0,124,-20,170c0,0,-20,47,-82,47c0,0,-23,0,-43,-9c0,0,-19,-10,-34,-23c0,0,-14,-14,-27,-39c0,0,-13,-25,-22,-46c0,0,-8,-22,-17,-57c0,0,-9,-36,-15,-61c0,0,-5,-24,-13,-65L375,0Z" 
id="f1_8"
transform="scale(0.001,-0.001)" />

<path d="M534,0V425c0,0,0,109,-41,171c0,0,-41,62,-140,62H66V836H352c0,0,99,0,174,-20c0,0,75,-20,123,-55c0,0,48,-35,78,-87c0,0,30,-53,42,-113c0,0,12,-60,12,-136V0Z" 
id="f1_4"
transform="scale(0.001,-0.001)" />

<path d="M82,0V177H500L50,836H328L560,491c0,0,56,19,56,124V836H861V671c0,0,0,-116,-45,-192c0,0,-40,-68,-85,-90c0,0,-50,-26,-71,-26c0,0,-1,0,-1,0L838,96V0Z" 
id="f1_v"
transform="scale(0.001,-0.001)" />

<path d="M139,0V836H386V0Z" 
id="f1_b"
transform="scale(0.001,-0.001)" />

<path d="M159,0V165c0,0,0,69,13,124c0,0,12,55,29,89c0,0,17,33,45,62c0,0,29,28,50,42c0,0,22,14,54,30L128,836H405L666,460c0,0,41,48,41,155V836H952V671c0,0,0,-50,-6,-93c0,0,-6,-42,-16,-73c0,0,-10,-30,-26,-57c0,0,-17,-27,-31,-44c0,0,-15,-17,-37,-33c0,0,-22,-16,-38,-25c0,0,-15,-9,-38,-21L984,0H706L445,376c0,0,-41,-48,-41,-155V0Z" 
id="f1_u"
transform="scale(0.001,-0.001)" />

<path d="M163,0V190H321V0Z" 
id="f0_j"
transform="scale(0.001,-0.001)" />

<path d="M154,0V454l138,56V0ZM722,0V454c0,0,0,161,-49,218c0,0,-48,57,-186,57H139V836H485c0,0,207,0,291,-93c0,0,83,-94,83,-318V0Z" 
id="f0_9"
transform="scale(0.001,-0.001)" />

<path d="M66,0V106H322c0,0,75,0,127,23c0,0,53,23,82,67c0,0,29,43,42,98c0,0,13,54,13,124c0,0,0,70,-13,124c0,0,-13,55,-42,98c0,0,-29,44,-82,67c0,0,-52,23,-127,23H66V836H322c0,0,87,0,157,-24c0,0,70,-24,115,-64c0,0,45,-40,74,-94c0,0,30,-55,43,-113c0,0,13,-59,13,-123c0,0,0,-64,-13,-123c0,0,-13,-58,-43,-113c0,0,-29,-54,-74,-94C594,88,549,48,479,24C479,24,409,0,322,0Z" 
id="f0_i"
transform="scale(0.001,-0.001)" />

<path d="M495,0V729H66V836H781V729H634V0Z" 
id="f0_q"
transform="scale(0.001,-0.001)" />

<path d="M71,-141V-15L289,62L66,836H210L416,109c0,0,99,42,153,98c0,0,53,56,80,155c0,0,26,98,26,262V836H817V624c0,0,0,-88,-7,-154c0,0,-7,-67,-25,-132c0,0,-18,-66,-51,-116c0,0,-33,-51,-84,-98c0,0,-50,-48,-123,-87c0,0,-72,-39,-169,-74L71,-141Z" 
id="f0_l"
transform="scale(0.001,-0.001)" />

<path d="M736,107V473c0,0,0,147,-48,202c0,0,-49,54,-187,54H278V107ZM139,0V836H499c0,0,105,0,177,-22c0,0,72,-21,116,-69c0,0,44,-49,64,-119c0,0,19,-71,19,-174V0Z" 
id="f0_6"
transform="scale(0.001,-0.001)" />

<path d="M114,0l60,312c0,0,2,12,8,39c0,0,6,27,7,37c0,0,2,11,5,30c0,0,2,19,4,33c0,0,1,15,1,31c0,0,0,48,-35,146c0,0,-35,98,-98,208H228c0,0,3,-8,27,-67c0,0,25,-58,41,-117c0,0,21,53,50,90c0,0,29,37,57,57c0,0,29,21,65,32c0,0,37,11,65,14c0,0,28,3,67,3c0,0,300,0,300,-396V0H480V106H761V452c0,0,0,146,-46,215c0,0,-45,70,-118,70c0,0,-134,0,-198,-119c0,0,-36,-68,-67,-222c0,0,-2,-10,-6,-27L253,0Z" 
id="f0_8"
transform="scale(0.001,-0.001)" />

<path d="M139,0V836H485c0,0,206,0,290,-90c0,0,84,-89,84,-294V0H721V473c0,0,0,147,-49,202c0,0,-48,54,-186,54H277V0Z" 
id="f0_g"
transform="scale(0.001,-0.001)" />

<path d="M139,0V138c0,0,0,61,8,112c0,0,7,52,19,87c0,0,11,36,30,66c0,0,19,31,35,49c0,0,17,19,41,35c0,0,25,17,41,25c0,0,17,7,40,17L141,836H303L613,388c0,0,20,10,33,18c0,0,13,8,34,28c0,0,20,20,33,44c0,0,13,25,22,66c0,0,10,41,10,92V836H882V698c0,0,0,-61,-7,-112c0,0,-6,-52,-18,-88c0,0,-12,-36,-30,-66c0,0,-19,-30,-36,-49c0,0,-17,-18,-41,-34c0,0,-24,-17,-40,-25c0,0,-17,-8,-41,-17L882,0H720L409,448c0,0,-21,-11,-34,-19c0,0,-13,-8,-34,-27c0,0,-21,-20,-34,-44c0,0,-12,-25,-22,-66c0,0,-9,-41,-9,-92V0Z" 
id="f0_d"
transform="scale(0.001,-0.001)" />

<path d="M139,0V106H400c0,0,176,0,253,71c0,0,78,72,78,250c0,0,0,163,-80,233c0,0,-81,69,-250,69H278L277,564c0,0,-1,-54,26,-80c0,0,27,-25,82,-25c0,0,30,0,80,9V355c0,0,-61,-12,-111,-12c0,0,-100,0,-157,55c0,0,-58,55,-58,186V836H456c0,0,193,0,303,-109c0,0,110,-109,110,-309c0,0,0,-200,-110,-309C759,109,648,0,456,0Z" 
id="f0_m"
transform="scale(0.001,-0.001)" />

<path d="M156,-317V454l139,56V-317ZM505,0L806,729H139V835H967V753L650,0Z" 
id="f0_p"
transform="scale(0.001,-0.001)" />

<path d="M66,0V107H332V555c0,0,0,92,-37,133c0,0,-37,41,-116,41H85V836h94c0,0,153,0,223,-66c0,0,69,-66,69,-231V0Z" 
id="f0_n"
transform="scale(0.001,-0.001)" />

<path d="M431,0V33L535,52V499c0,0,0,62,-32,96c0,0,-32,33,-95,33c0,0,-66,0,-163,-22V52L350,33V0H32V33l89,19V649L32,668v33H237l6,-57c0,0,56,32,119,54c0,0,62,22,110,22c0,0,52,0,95,-20c0,0,44,-19,66,-62c0,0,57,32,134,57c0,0,77,25,128,25c0,0,179,0,179,-207V52l90,-19V0H846V33L950,52V499c0,0,0,129,-119,129c0,0,-19,0,-45,-3c0,0,-26,-3,-52,-7c0,0,-25,-4,-49,-8c0,0,-23,-5,-39,-8c0,0,13,-41,13,-89V52L764,33V0Z" 
id="f2_p"
transform="scale(0.001,-0.001)" />

<path d="M289,-14c0,0,-179,0,-179,205V649L20,668v33H233V200c0,0,0,-128,120,-128c0,0,92,0,173,23V649L420,668v33H649V52L738,33V0H533l-6,57C527,57,474,28,405,7c0,0,-69,-21,-116,-21Z" 
id="f2_f"
transform="scale(0.001,-0.001)" />

<path d="M64,-325c0,0,-46,0,-107,14v148H-8l19,-81c0,0,25,-21,62,-21c0,0,44,0,67,47c0,0,22,47,22,152V649L57,668v33H286V-28c0,0,0,-146,-57,-221c0,0,-56,-76,-165,-76ZM213,850c0,0,-34,0,-58,24c0,0,-24,24,-24,56c0,0,0,34,24,58c0,0,24,24,58,24c0,0,32,0,56,-24c0,0,24,-24,24,-58c0,0,0,-32,-24,-56c0,0,-24,-24,-56,-24Z" 
id="f2_1b"
transform="scale(0.001,-0.001)" />

<path d="M495,413c0,0,0,133,-34,190c0,0,-34,57,-105,57c0,0,-78,0,-119,-63c0,0,-42,-62,-42,-184ZM374,-14c0,0,-163,0,-239,87c0,0,-75,88,-75,283c0,0,0,183,77,273c0,0,76,91,219,91c0,0,269,0,269,-306V353H194V340c0,0,0,-103,23,-160c0,0,22,-57,70,-87c0,0,47,-29,124,-29c0,0,40,0,96,6c0,0,55,7,91,15V43C598,43,562,20,500,3c0,0,-61,-17,-126,-17Z" 
id="f2_2"
transform="scale(0.001,-0.001)" />

<path d="M31,0V33l88,19V649L31,668v33H235l7,-87c0,0,44,37,121,71c0,0,76,35,121,35h11V530H463l-43,82c0,0,-37,0,-88,-10c0,0,-52,-10,-89,-26V52L363,33V0Z" 
id="f2_3"
transform="scale(0.001,-0.001)" />

<path d="M442,0V33l93,19V504c0,0,0,129,-124,129c0,0,-70,0,-168,-22V52L338,33V0H31V33l88,19v956L15,1026v34H243V756c0,0,0,-77,-5,-112c0,0,54,31,122,53c0,0,68,23,115,23c0,0,91,0,137,-53c0,0,47,-53,47,-154V52L744,33V0Z" 
id="f2_x"
transform="scale(0.001,-0.001)" />

<path d="M377,45c0,0,99,0,147,73c0,0,47,73,47,237c0,0,0,161,-47,233c0,0,-47,72,-147,72c0,0,-97,0,-141,-69c0,0,-44,-69,-44,-236c0,0,0,-169,45,-240c0,0,44,-70,140,-70Zm0,-59c0,0,-158,0,-238,94c0,0,-81,95,-81,274c0,0,0,178,81,272c0,0,80,94,244,94c0,0,160,0,241,-92c0,0,82,-92,82,-274c0,0,0,-368,-329,-368Z" 
id="f2_8"
transform="scale(0.001,-0.001)" />

<path d="M376,50c0,0,103,0,149,80c0,0,46,81,46,240c0,0,0,137,-47,204c0,0,-48,67,-148,67c0,0,-44,0,-87,-7c0,0,-44,-8,-63,-17V62c0,0,63,-12,150,-12Zm3,-64c0,0,-64,0,-141,14c0,0,-78,14,-136,37v971L0,1026v34H226V809c0,0,0,-40,-4,-148c0,0,74,59,188,59c0,0,143,0,219,-87c0,0,77,-87,77,-263c0,0,0,-189,-84,-287c0,0,-84,-97,-243,-97Z" 
id="f2_v"
transform="scale(0.001,-0.001)" />

<path d="M360,-14L72,649L0,668v33H327V668L216,648L420,164L615,649L504,668v33H764V668L697,652L416,-14Z" 
id="f2_s"
transform="scale(0.001,-0.001)" />

<path d="M383,64c0,0,85,0,152,28V645c0,0,-67,13,-152,13c0,0,-194,0,-194,-314c0,0,0,-141,48,-211c0,0,48,-69,146,-69ZM342,-14c0,0,-287,0,-287,358c0,0,0,184,82,280c0,0,81,96,239,96c0,0,81,0,163,-18c0,0,-4,25,-4,124v182l-118,18v34H659V52L745,33V0H548l-9,52c0,0,-84,-66,-197,-66Z" 
id="f2_e"
transform="scale(0.001,-0.001)" />

<path d="M284,67c0,0,51,0,88,12c0,0,37,12,74,30V358l-98,-3c0,0,-100,-4,-135,-39c0,0,-35,-35,-35,-117c0,0,0,-132,106,-132ZM233,-14c0,0,-179,0,-179,208c0,0,0,70,27,116c0,0,27,46,87,70c0,0,60,24,173,27l105,3V519c0,0,0,72,-26,107c0,0,-27,34,-82,34c0,0,-75,0,-137,-35L176,538H134V691c0,0,121,26,213,26c0,0,115,0,169,-47c0,0,54,-47,54,-144V52L657,33V0H465L451,70c0,0,-85,-84,-218,-84Z" 
id="f2_m"
transform="scale(0.001,-0.001)" />

<path d="M439,0V33l93,19V500c0,0,0,62,-30,97c0,0,-31,36,-94,36c0,0,-67,0,-165,-22V52L338,33V0H35V33l84,19V649L35,668v33H235l7,-57c0,0,57,33,122,54c0,0,65,22,108,22c0,0,91,0,137,-53c0,0,47,-53,47,-154V52L741,33V0Z" 
id="f2_a"
transform="scale(0.001,-0.001)" />

<path d="M249,-14c0,0,-71,0,-107,42c0,0,-35,42,-35,119V639H15v33l93,29l76,159h47V701H391V639H231V161c0,0,0,-48,22,-73c0,0,22,-24,57,-24c0,0,44,0,106,12V26C416,26,389,8,340,-2c0,0,-49,-12,-91,-12Z" 
id="f2_h"
transform="scale(0.001,-0.001)" />

<path d="M32,0V33L151,52V649L52,668v33H275V52L395,33V0ZM201,850c0,0,-32,0,-56,24c0,0,-24,24,-24,56c0,0,0,34,24,58c0,0,24,24,56,24c0,0,34,0,58,-24c0,0,24,-24,24,-58c0,0,0,-32,-24,-56c0,0,-24,-24,-58,-24Z" 
id="f2_4"
transform="scale(0.001,-0.001)" />

<path d="M64,0V34L168,59V639H47v36l121,29v49c0,0,0,155,61,239c0,0,62,84,173,84c0,0,58,0,107,-15V908H472l-33,92c0,0,-26,16,-62,16c0,0,-47,0,-66,-42c0,0,-19,-42,-19,-157V701H478V639H292V59L443,34V0Z" 
id="f2_t"
transform="scale(0.001,-0.001)" />

<path d="M32,0V34L151,52V649L52,668v33H275V52L395,34V0Zm71,835v24l146,203H408v-27L144,835Z" 
id="f2_q"
transform="scale(0.001,-0.001)" />

<path d="M399,-14c0,0,-341,0,-341,370c0,0,0,175,87,269c0,0,87,95,249,95c0,0,101,0,220,-23V501H573L541,625c0,0,-62,35,-149,35c0,0,-200,0,-200,-304c0,0,0,-158,61,-225c0,0,61,-67,189,-67c0,0,109,0,189,24V43C631,43,595,16,530,1c0,0,-64,-15,-131,-15Z" 
id="f2_5"
transform="scale(0.001,-0.001)" />

<path d="M31,0V33L150,52v956L31,1026v34H274V52L394,33V0Z" 
id="f2_l"
transform="scale(0.001,-0.001)" />

<path d="M543,-317V369c0,0,0,85,-8,143c0,0,-8,58,-27,101c0,0,-18,44,-51,69c0,0,-33,24,-80,36c0,0,-48,11,-117,11H66V836H257c0,0,125,0,205,-23c0,0,80,-23,130,-79c0,0,50,-56,70,-143c0,0,20,-86,20,-222V-317Z" 
id="f0_2"
transform="scale(0.001,-0.001)" />

<path d="M278,-14c0,0,-52,0,-115,11c0,0,-63,10,-99,23V193H98L134,95c0,0,56,-50,146,-50c0,0,144,0,144,123c0,0,0,91,-114,130l-66,21c0,0,-75,25,-110,50c0,0,-34,26,-53,63c0,0,-18,36,-18,89c0,0,0,92,63,145c0,0,63,54,170,54c0,0,77,0,193,-23V544H454l-32,81c0,0,-39,35,-124,35c0,0,-61,0,-92,-30c0,0,-32,-30,-32,-80c0,0,0,-43,29,-72c0,0,28,-29,86,-48c0,0,110,-38,144,-55c0,0,33,-17,57,-42c0,0,23,-25,36,-57c0,0,13,-32,13,-79c0,0,0,-104,-66,-158c0,0,-66,-53,-195,-53Z" 
id="f2_g"
transform="scale(0.001,-0.001)" />

<path d="M382,45c0,0,188,0,188,314c0,0,0,143,-47,213c0,0,-46,69,-141,69c0,0,-87,0,-146,-24V58c0,0,67,-13,146,-13ZM25,-325v35l88,18V649L34,668v33H231l1,-41c0,0,31,27,84,43c0,0,53,17,107,17c0,0,134,0,208,-94c0,0,73,-93,73,-267c0,0,0,-178,-80,-276c0,0,-80,-97,-232,-97c0,0,-84,0,-160,16c0,0,4,-53,4,-84V-272l123,-18v-35Z" 
id="f2_u"
transform="scale(0.001,-0.001)" />

<path d="M359,-270c0,0,124,0,192,46c0,0,67,47,67,129c0,0,0,43,-26,67c0,0,-26,24,-79,24H242c0,0,-32,-27,-51,-69c0,0,-20,-41,-20,-77c0,0,0,-64,46,-92c0,0,46,-28,142,-28Zm11,561c0,0,81,0,115,47c0,0,34,47,34,141c0,0,0,100,-35,142c0,0,-35,42,-113,42c0,0,-78,0,-114,-43c0,0,-37,-42,-37,-141c0,0,0,-98,36,-143c0,0,36,-45,114,-45ZM359,-329c0,0,-143,0,-218,44c0,0,-75,43,-75,125c0,0,0,39,27,78c0,0,26,38,98,89c0,0,-43,14,-72,48c0,0,-29,35,-29,74L208,262c0,0,-118,55,-118,217c0,0,0,115,73,178c0,0,73,63,211,63c0,0,28,0,71,-6c0,0,44,-6,67,-13l165,83l26,-32L599,644c0,0,50,-56,50,-165c0,0,0,-120,-72,-182c0,0,-73,-62,-208,-62c0,0,-62,0,-114,11L208,148c0,0,2,-13,29,-24c0,0,27,-12,67,-12H512c0,0,113,0,168,-49c0,0,55,-49,55,-134c0,0,0,-79,-44,-137c0,0,-43,-58,-128,-90c0,0,-84,-31,-204,-31Z" 
id="f2_w"
transform="scale(0.001,-0.001)" />

<path d="M522,-20c0,0,-196,0,-290,99c0,0,-94,100,-94,324V836H276V397c0,0,0,-86,16,-147c0,0,17,-60,50,-94c0,0,34,-34,77,-49c0,0,43,-15,103,-15c0,0,59,0,102,15c0,0,44,15,77,49c0,0,33,34,50,94c0,0,17,61,17,147c0,0,0,84,-8,143c0,0,-7,58,-25,105c0,0,-17,47,-51,69c0,0,-33,23,-83,23c0,0,-50,0,-119,-22V821c0,0,85,23,150,23c0,0,76,0,130,-30c0,0,53,-31,85,-90c0,0,31,-59,45,-138c0,0,13,-78,13,-183c0,0,0,-224,-93,-324c0,0,-94,-99,-290,-99Z" 
id="f0_w"
transform="scale(0.001,-0.001)" />

<path d="M289,-14c0,0,-179,0,-179,205V649L20,668v33H233V200c0,0,0,-128,120,-128c0,0,92,0,173,23V649L420,668v33H649V52L738,34V0H533l-6,57C527,57,474,28,405,6c0,0,-69,-20,-116,-20Zm24,849v24l147,203H618v-27L354,835Z" 
id="f2_i"
transform="scale(0.001,-0.001)" />

<path d="M284,67c0,0,51,0,88,12c0,0,37,11,74,29V357l-98,-3c0,0,-100,-3,-135,-38c0,0,-35,-36,-35,-118c0,0,0,-131,106,-131ZM233,-14c0,0,-179,0,-179,208c0,0,0,70,27,116c0,0,27,46,87,70c0,0,60,24,173,27l105,3V519c0,0,0,73,-26,107c0,0,-27,34,-82,34c0,0,-75,0,-137,-35L176,538H134V691c0,0,121,26,213,26c0,0,115,0,169,-47c0,0,54,-47,54,-144V52L657,34V0H465L451,70c0,0,-85,-84,-218,-84Zm22,849v24l146,203H560v-27L296,835Z" 
id="f2_16"
transform="scale(0.001,-0.001)" />

<path d="M152,0V473c0,0,0,94,28,161c0,0,29,66,71,95H66V836H463V729H404c0,0,-65,0,-89,-57c0,0,-25,-58,-25,-199V0Z" 
id="f0_o"
transform="scale(0.001,-0.001)" />

<path d="M139,-317V836H278V-317Z" 
id="f0_h"
transform="scale(0.001,-0.001)" />

<path d="M354,-200c0,0,-112,175,-167,343c0,0,-56,170,-56,337c0,0,0,166,55,335c0,0,55,169,168,345H473c0,0,-100,-172,-148,-340c0,0,-48,-168,-48,-340c0,0,0,-173,48,-342c0,0,49,-168,148,-338Z" 
id="f0_x"
transform="scale(0.001,-0.001)" />

<path d="M122,-200c0,0,99,170,148,338c0,0,49,169,49,342c0,0,0,172,-49,340c0,0,-49,168,-148,340H241c0,0,112,-176,168,-345c0,0,55,-169,55,-335c0,0,0,-167,-55,-337c0,0,-56,-168,-168,-343Z" 
id="f0_v"
transform="scale(0.001,-0.001)" />

<path d="M66,0V106H564L66,836H228L516,413c0,0,3,2,9,6c0,0,17,13,27,21c0,0,10,8,26,27c0,0,17,20,26,40c0,0,9,21,16,54c0,0,7,34,7,75V836H764V698c0,0,0,-55,-7,-102c0,0,-7,-47,-16,-79c0,0,-10,-33,-27,-62c0,0,-18,-29,-32,-46c0,0,-14,-17,-37,-35c0,0,-22,-17,-36,-25c0,0,-13,-8,-36,-20L767,53V0Z" 
id="f0_b"
transform="scale(0.001,-0.001)" />

<path d="M383,64c0,0,44,0,87,7c0,0,43,7,65,17V645c0,0,-67,13,-152,13c0,0,-194,0,-194,-309c0,0,0,-143,48,-214c0,0,47,-71,146,-71Zm56,-389v35l96,18V-77c0,0,0,73,7,124c0,0,-79,-61,-200,-61c0,0,-287,0,-287,362c0,0,0,180,81,276c0,0,81,96,237,96c0,0,84,0,166,-18l67,33h53V-272l77,-18v-35Z" 
id="f2_1g"
transform="scale(0.001,-0.001)" />

<path d="M35,0V34l84,18V649L35,668v33H235l7,-56c0,0,57,32,122,54c0,0,65,21,108,21c0,0,91,0,137,-53c0,0,47,-53,47,-154V52L741,34V0H439V34l93,18V500c0,0,0,62,-30,97c0,0,-31,36,-94,36c0,0,-67,0,-165,-22V52L338,34V0ZM481,834c0,0,-36,0,-66,16c0,0,-30,16,-57,36c0,0,-27,20,-52,36c0,0,-25,16,-49,16c0,0,-24,0,-39,-9c0,0,-14,-9,-23,-26c0,0,-8,-17,-13,-54H143c0,0,11,180,146,180c0,0,36,0,66,-16c0,0,30,-16,57,-35c0,0,27,-20,52,-36c0,0,25,-16,49,-16c0,0,32,0,50,18c0,0,18,19,25,70h39c0,0,-12,-180,-146,-180Z" 
id="f2_1e"
transform="scale(0.001,-0.001)" />

<path d="M235,-20c0,0,-31,0,-51,19c0,0,-21,18,-21,50c0,0,0,65,39,120c0,0,39,54,125,109c0,0,56,35,87,56c0,0,32,20,46,33c0,0,79,45,79,143c0,0,0,27,-7,65c0,0,-8,39,-27,49c0,0,-19,10,-85,10H110c0,0,-36,0,-53,21c0,0,-17,22,-25,71c0,0,-7,49,-7,134c0,0,0,62,27,122c0,0,8,15,8,34c0,0,0,23,-35,37c0,0,-21,7,-30,29c0,0,-9,22,-9,72c0,0,0,24,10,46c0,0,8,22,25,38c0,0,16,16,26,16c0,0,17,0,17,-14c0,0,0,-9,7,-17c0,0,7,-8,34,-14c0,0,65,-15,81,-26c0,0,15,-10,15,-31c0,0,0,-15,-15,-38c0,0,-15,-22,-33,-53c0,0,-19,-30,-34,-67c0,0,-15,-36,-15,-79c0,0,0,-43,14,-56c0,0,15,-14,54,-14H518c0,0,39,0,63,-17c0,0,23,-16,33,-53c0,0,10,-36,17,-89c0,0,6,-52,6,-93c0,0,0,-99,-9,-144c0,0,-9,-44,-40,-80c0,0,-31,-36,-110,-86c0,0,-112,-71,-138,-95c0,0,-26,-23,-36,-44c0,0,-9,-20,-9,-43c0,0,0,-11,5,-26c0,0,6,-15,6,-26c0,0,0,-32,-20,-50c0,0,-20,-19,-51,-19Z" 
id="f3_6"
transform="scale(0.001,-0.001)" />

<path d="M204,-8c0,0,-9,0,-11,5c0,0,-2,5,-2,22V549c0,0,0,40,-4,56c0,0,-4,16,-15,22c0,0,-10,7,-39,7H90c0,0,-33,0,-52,33c0,0,-19,33,-19,90c0,0,0,53,15,98c0,0,16,44,35,44c0,0,12,0,12,-13V872c0,0,0,-27,31,-27h42c0,0,79,0,103,-20c0,0,23,-19,23,-83V67c0,0,0,-16,-8,-26c0,0,-9,-10,-33,-30c0,0,-25,-19,-35,-19Z" 
id="f3_e"
transform="scale(0.001,-0.001)" />

<path d="M423,-13c0,0,-9,0,-14,7c0,0,-5,6,-10,23c0,0,-13,51,-37,108c0,0,-25,58,-55,101c0,0,-21,-37,-51,-115C256,111,225,34,216,0H12L55,212h99c0,0,51,0,72,12c0,0,20,12,40,58c0,0,20,46,18,98V543c0,0,0,46,-7,61c0,0,-7,15,-23,22c0,0,-17,8,-50,8H189c0,0,-76,0,-76,115c0,0,0,56,16,103c0,0,16,47,33,47c0,0,14,0,14,-15c0,0,0,-17,9,-28c0,0,10,-11,40,-11h21c0,0,60,0,85,-8c0,0,25,-9,39,-26c0,0,13,-18,13,-49c0,0,0,-20,-4,-43c0,0,-5,-23,-10,-53c0,0,-6,-31,-10,-71c0,0,-5,-41,-5,-97c0,0,0,-150,62,-269c0,0,28,-58,38,-90l9,-65c0,0,0,-27,-13,-57c0,0,-13,-30,-27,-30Z" 
id="f3_7"
transform="scale(0.001,-0.001)" />

<path d="M554,-8c0,0,-9,0,-11,6c0,0,-2,5,-2,24V548c0,0,0,38,-5,56c0,0,-4,18,-15,25c0,0,-12,7,-41,7H90c0,0,-33,0,-52,33c0,0,-19,33,-19,90c0,0,0,54,15,97c0,0,14,43,30,43c0,0,17,0,17,-13V872c0,0,0,-9,7,-18c0,0,7,-9,27,-9H512c0,0,54,0,77,-8c0,0,23,-9,33,-28c0,0,9,-20,9,-67V81c0,0,0,-31,-27,-53L583,9C583,9,563,-8,554,-8Z" 
id="f3_8"
transform="scale(0.001,-0.001)" />

<path d="M721,-14c0,0,-12,0,-12,9l4,28c0,0,17,82,17,338c0,0,0,105,-11,163c0,0,-11,58,-35,84c0,0,-25,26,-83,26H315c0,0,-43,-39,-67,-90c0,0,-25,-51,-25,-104c0,0,0,-59,17,-104c0,0,17,-45,35,-78c0,0,18,-34,18,-44c0,0,0,-26,-20,-95C273,119,252,50,231,0H26L87,214h69c0,0,23,0,23,14l-7,15c0,0,-15,27,-27,68c0,0,-11,41,-11,83c0,0,0,68,25,124c0,0,25,57,86,116H200c0,0,-45,0,-71,32c0,0,-27,33,-27,94c0,0,0,49,17,93c0,0,16,43,32,43c0,0,17,0,17,-10V869c0,0,0,-24,27,-24H637c0,0,73,0,103,-18c0,0,30,-17,46,-62c0,0,17,-46,24,-124c0,0,8,-78,8,-214V338c0,0,0,-279,-27,-311c0,0,-14,-16,-37,-28c0,0,-23,-13,-33,-13Z" 
id="f3_b"
transform="scale(0.001,-0.001)" />

<path d="M345,75c0,0,50,0,110,26V351l-63,-2c0,0,-72,-3,-100,-38c0,0,-28,-35,-28,-113c0,0,0,-63,22,-93c0,0,23,-30,59,-30ZM266,-14c0,0,-217,0,-217,208c0,0,0,79,32,126c0,0,32,48,93,71c0,0,60,22,190,25l91,2V521c0,0,0,126,-104,126c0,0,-62,0,-140,-39L183,521H134V691c0,0,112,17,165,21c0,0,53,5,108,5c0,0,264,0,264,-194V67L741,49V0H483L466,54C466,54,408,14,361,0c0,0,-47,-14,-95,-14Z" 
id="f3_q"
transform="scale(0.001,-0.001)" />

<path d="M438,65c0,0,131,0,131,293c0,0,0,279,-130,279c0,0,-69,0,-127,-29V80c0,0,60,-15,126,-15ZM20,-325v50l76,18V634L19,652v49H304l1,-36c0,0,80,55,194,55c0,0,146,0,218,-86c0,0,71,-86,71,-271c0,0,0,-183,-83,-280c0,0,-83,-97,-238,-97c0,0,-79,0,-160,19c0,0,5,-48,5,-109V-257l103,-18v-50Z" 
id="f3_r"
transform="scale(0.001,-0.001)" />

<path d="M41,0V49l91,18V634L41,652v49H336l8,-145c0,0,80,89,144,128c0,0,64,40,117,40h40V468H604l-45,94c0,0,-47,0,-106,-21c0,0,-60,-20,-105,-48V67L460,49V0Z" 
id="f3_o"
transform="scale(0.001,-0.001)" />

<path d="M425,-14c0,0,-187,0,-280,90c0,0,-93,90,-93,276c0,0,0,115,42,198c0,0,43,82,121,126c0,0,78,44,182,44c0,0,104,0,227,-26V486H571L539,609c0,0,-25,19,-50,26c0,0,-24,7,-65,7c0,0,-44,0,-79,-35c0,0,-36,-35,-56,-98c0,0,-20,-64,-20,-153c0,0,0,-150,47,-214c0,0,47,-64,148,-64c0,0,103,0,176,21V42C640,42,606,15,547,0c0,0,-59,-14,-122,-14Z" 
id="f3_l"
transform="scale(0.001,-0.001)" />

<path d="M327,-14c0,0,-101,0,-156,45c0,0,-55,45,-55,131V624H25v48l108,29l87,159H332V701H480V624H332V176c0,0,0,-49,20,-73c0,0,20,-25,53,-25c0,0,40,0,97,12V26c0,0,-22,-15,-76,-27c0,0,-55,-13,-99,-13Z" 
id="f3_s"
transform="scale(0.001,-0.001)" />

<path d="M34,0V49l76,18V634L38,652v49H325V67L402,49V0ZM217,831c0,0,-48,0,-81,33c0,0,-34,33,-34,82c0,0,0,48,34,81c0,0,34,33,81,33c0,0,48,0,81,-33c0,0,33,-33,33,-81c0,0,0,-47,-33,-81c0,0,-32,-34,-81,-34Z" 
id="f3_n"
transform="scale(0.001,-0.001)" />

<path d="M117,-176L179,62V190H336V62L213,-176Z" 
id="f0_s"
transform="scale(0.001,-0.001)" />


</defs>
</svg>