<?xml version="1.0" encoding="UTF-8" standalone="no"?>
<!DOCTYPE svg PUBLIC "-//W3C//DTD SVG 1.1//EN"
"http://www.w3.org/Graphics/SVG/1.1/DTD/svg11.dtd">
<svg viewBox="0 0 909 1286" version="1.1" xmlns="http://www.w3.org/2000/svg" xmlns:xlink="http://www.w3.org/1999/xlink">
<defs>
<clipPath id="c0_20"><path d="M0,1286.2V0H909.4V1286.2Z" /></clipPath>
<style type="text/css"><![CDATA[
.g0_20{
fill: #D8D8D8;
}
.g1_20{
fill: none;
stroke: #000000;
stroke-width: 0.7638889;
stroke-linecap: butt;
stroke-linejoin: round;
}
.g2_20{
fill: none;
stroke: #0000FF;
stroke-width: 1.0694444;
stroke-linecap: butt;
stroke-linejoin: miter;
}
]]></style>
</defs>
<path fill-rule="evenodd" d="M128.9,130.1H237.2V110H128.9v20.1Z" class="g0_20" />
<path fill-rule="evenodd" d="M128.9,150.1H237.2V130.2H128.9v19.9Z" class="g0_20" />
<path fill-rule="evenodd" d="M637.8,312.5H761.2V271H637.8v41.5Z" class="g0_20" />
<path fill-rule="evenodd" d="M508,312.5H637.8V271H508v41.5Z" class="g0_20" />
<path fill-rule="evenodd" d="M356.3,312.5H507.9V271H356.3v41.5Z" class="g0_20" />
<path fill-rule="evenodd" d="M237.3,312.5H356.2V271H237.3v41.5Z" class="g0_20" />
<path fill-rule="evenodd" d="M128.9,332.5H237.2V312.6H128.9v19.9Z" class="g0_20" />
<path fill-rule="evenodd" d="M128.9,352.7H237.2V332.6H128.9v20.1Z" class="g0_20" />
<path fill-rule="evenodd" d="M128.9,372.7H237.2V352.8H128.9v19.9Z" class="g0_20" />
<path fill-rule="evenodd" d="M128.9,392.9H237.2V372.8H128.9v20.1Z" class="g0_20" />
<path fill-rule="evenodd" d="M128.9,412.9H237.2v-20H128.9v20Z" class="g0_20" />
<path fill-rule="evenodd" d="M486.3,517.2H681v-22H486.3v22Z" class="g0_20" />
<path fill-rule="evenodd" d="M367.1,517.2H486.2v-22H367.1v22Z" class="g0_20" />
<path fill-rule="evenodd" d="M248.1,517.2H367v-22H248.1v22Z" class="g0_20" />
<path fill-rule="evenodd" d="M128.9,517.2H248v-22H128.9v22Z" class="g0_20" />
<path fill-rule="evenodd" d="M713.8,773.1h69.1V710.3H713.8v62.8Z" class="g0_20" />
<path fill-rule="evenodd" d="M637.8,773.1h75.9V710.3H637.8v62.8Z" class="g0_20" />
<path fill-rule="evenodd" d="M562.1,773.1h75.7V710.3H562.1v62.8Z" class="g0_20" />
<path fill-rule="evenodd" d="M497.1,773.1H562V710.3H497.1v62.8Z" class="g0_20" />
<path fill-rule="evenodd" d="M421.4,773.1h75.7V710.3H421.4v62.8Z" class="g0_20" />
<path fill-rule="evenodd" d="M291.3,773.1h130V710.3h-130v62.8Z" class="g0_20" />
<path fill-rule="evenodd" d="M128.9,793.1H291.3V773.2H128.9v19.9Z" class="g0_20" />
<path fill-rule="evenodd" d="M128.9,813.3H291.3V793.2H128.9v20.1Z" class="g0_20" />
<path fill-rule="evenodd" d="M128.9,833.3H291.3V813.4H128.9v19.9Z" class="g0_20" />
<path fill-rule="evenodd" d="M128.9,853.5H291.3V833.4H128.9v20.1Z" class="g0_20" />
<path fill-rule="evenodd" d="M128.9,873.5H291.3V853.6H128.9v19.9Z" class="g0_20" />
<path fill-rule="evenodd" d="M128.9,130.1H237.2V110H128.9v20.1Z" class="g0_20" />
<path fill-rule="evenodd" d="M128.9,150.1H237.2V130.2H128.9v19.9Z" class="g0_20" />
<path fill-rule="evenodd" d="M637.8,312.5H761.2V271H637.8v41.5Z" class="g0_20" />
<path fill-rule="evenodd" d="M508,312.5H637.8V271H508v41.5Z" class="g0_20" />
<path fill-rule="evenodd" d="M356.3,312.5H507.9V271H356.3v41.5Z" class="g0_20" />
<path fill-rule="evenodd" d="M237.3,312.5H356.2V271H237.3v41.5Z" class="g0_20" />
<path fill-rule="evenodd" d="M128.9,332.5H237.2V312.6H128.9v19.9Z" class="g0_20" />
<path fill-rule="evenodd" d="M128.9,352.7H237.2V332.6H128.9v20.1Z" class="g0_20" />
<path fill-rule="evenodd" d="M128.9,372.7H237.2V352.8H128.9v19.9Z" class="g0_20" />
<path fill-rule="evenodd" d="M128.9,392.9H237.2V372.8H128.9v20.1Z" class="g0_20" />
<path fill-rule="evenodd" d="M128.9,412.9H237.2v-20H128.9v20Z" class="g0_20" />
<path fill-rule="evenodd" d="M486.3,517.2H681v-22H486.3v22Z" class="g0_20" />
<path fill-rule="evenodd" d="M367.1,517.2H486.2v-22H367.1v22Z" class="g0_20" />
<path fill-rule="evenodd" d="M248.1,517.2H367v-22H248.1v22Z" class="g0_20" />
<path fill-rule="evenodd" d="M128.9,517.2H248v-22H128.9v22Z" class="g0_20" />
<path fill-rule="evenodd" d="M713.8,773.1h69.1V710.3H713.8v62.8Z" class="g0_20" />
<path fill-rule="evenodd" d="M637.8,773.1h75.9V710.3H637.8v62.8Z" class="g0_20" />
<path fill-rule="evenodd" d="M562.1,773.1h75.7V710.3H562.1v62.8Z" class="g0_20" />
<path fill-rule="evenodd" d="M497.1,773.1H562V710.3H497.1v62.8Z" class="g0_20" />
<path fill-rule="evenodd" d="M421.4,773.1h75.7V710.3H421.4v62.8Z" class="g0_20" />
<path fill-rule="evenodd" d="M291.3,773.1h130V710.3h-130v62.8Z" class="g0_20" />
<path fill-rule="evenodd" d="M128.9,793.1H291.3V773.2H128.9v19.9Z" class="g0_20" />
<path fill-rule="evenodd" d="M128.9,813.3H291.3V793.2H128.9v20.1Z" class="g0_20" />
<path fill-rule="evenodd" d="M128.9,833.3H291.3V813.4H128.9v19.9Z" class="g0_20" />
<path fill-rule="evenodd" d="M128.9,853.5H291.3V833.4H128.9v20.1Z" class="g0_20" />
<path fill-rule="evenodd" d="M128.9,873.5H291.3V853.6H128.9v19.9Z" class="g0_20" />
<path d="M128.6,110.4H508.2M128.6,130.5H508.2M128.6,150.6H508.2M128.9,110v40.9M237.3,110v40.9M356.3,110v40.9M507.8,110v40.9" class="g1_20" />
<g clip-path="url(#c0_20)">
<g fill="#000000" >
<use xlink:href="#f0_5" transform="matrix(11,0,0,11,365.1,126.5)" />
<use xlink:href="#f0_8" transform="matrix(11,0,0,11,372.6,126.5)" />
<use xlink:href="#f0_a" transform="matrix(11,0,0,11,381,126.5)" />
<use xlink:href="#f0_g" transform="matrix(11,0,0,11,389.3,126.5)" />
<use xlink:href="#f0_2" transform="matrix(11,0,0,11,395.8,126.5)" />
<use xlink:href="#f0_w" transform="matrix(11,0,0,11,403.3,126.5)" />
<use xlink:href="#f0_f" transform="matrix(11,0,0,11,411.7,126.5)" />
<use xlink:href="#f0_4" transform="matrix(11,0,0,11,420.1,126.5)" />
<use xlink:href="#f0_p" transform="matrix(11,0,0,11,424.7,126.5)" />
<use xlink:href="#f0_8" transform="matrix(11,0,0,11,437.8,126.5)" />
<use xlink:href="#f0_g" transform="matrix(11,0,0,11,446.2,126.5)" />
<use xlink:href="#f0_u" transform="matrix(11,0,0,11,246,126.5)" />
<use xlink:href="#f0_2" transform="matrix(11,0,0,11,254.4,126.5)" />
<use xlink:href="#f0_3" transform="matrix(11,0,0,11,261.8,126.5)" />
<use xlink:href="#f0_g" transform="matrix(11,0,0,11,267.5,126.5)" />
<use xlink:href="#f0_2" transform="matrix(11,0,0,11,273.9,126.5)" />
<use xlink:href="#f0_w" transform="matrix(11,0,0,11,281.3,126.5)" />
<use xlink:href="#f0_f" transform="matrix(11,0,0,11,289.8,126.5)" />
<use xlink:href="#f0_4" transform="matrix(11,0,0,11,298.2,126.5)" />
<use xlink:href="#f0_p" transform="matrix(11,0,0,11,302.9,126.5)" />
<use xlink:href="#f0_8" transform="matrix(11,0,0,11,316,126.5)" />
<use xlink:href="#f0_g" transform="matrix(11,0,0,11,324.3,126.5)" />
<use xlink:href="#f0_a" transform="matrix(11,0,0,11,137.7,126.5)" />
<use xlink:href="#f0_8" transform="matrix(11,0,0,11,146.1,126.5)" />
<use xlink:href="#f0_g" transform="matrix(11,0,0,11,154.5,126.5)" />
<use xlink:href="#f0_8" transform="matrix(11,0,0,11,161,126.5)" />
<use xlink:href="#f0_h" transform="matrix(11,0,0,11,169.4,126.5)" />
<use xlink:href="#f0_3" transform="matrix(11,0,0,11,174,126.5)" />
<use xlink:href="#f0_8" transform="matrix(11,0,0,11,179.6,126.5)" />
<use xlink:href="#f0_g" transform="matrix(11,0,0,11,188,126.5)" />
<use xlink:href="#f0_6" transform="matrix(11,0,0,11,194.6,126.5)" />
<use xlink:href="#f0_m" transform="matrix(11,0,0,11,199.3,126.5)" />
<use xlink:href="#f0_g" transform="matrix(11,0,0,11,206.6,126.5)" />
<use xlink:href="#f0_5" transform="matrix(11,0,0,11,365.1,146.5)" />
<use xlink:href="#f0_8" transform="matrix(11,0,0,11,372.6,146.5)" />
<use xlink:href="#f0_a" transform="matrix(11,0,0,11,381,146.5)" />
<use xlink:href="#f0_g" transform="matrix(11,0,0,11,389.3,146.5)" />
<use xlink:href="#f0_4" transform="matrix(11,0,0,11,395.8,146.5)" />
<use xlink:href="#f0_w" transform="matrix(11,0,0,11,400.5,146.5)" />
<use xlink:href="#f0_f" transform="matrix(11,0,0,11,408.9,146.5)" />
<use xlink:href="#f0_2" transform="matrix(11,0,0,11,417.3,146.5)" />
<use xlink:href="#f0_a" transform="matrix(11,0,0,11,424.8,146.5)" />
<use xlink:href="#f0_u" transform="matrix(11,0,0,11,246,146.5)" />
<use xlink:href="#f0_2" transform="matrix(11,0,0,11,254.4,146.5)" />
<use xlink:href="#f0_3" transform="matrix(11,0,0,11,261.8,146.5)" />
<use xlink:href="#f0_g" transform="matrix(11,0,0,11,267.5,146.5)" />
<use xlink:href="#f0_4" transform="matrix(11,0,0,11,273.9,146.5)" />
<use xlink:href="#f0_w" transform="matrix(11,0,0,11,278.6,146.5)" />
<use xlink:href="#f0_f" transform="matrix(11,0,0,11,287,146.5)" />
<use xlink:href="#f0_2" transform="matrix(11,0,0,11,295.4,146.5)" />
<use xlink:href="#f0_a" transform="matrix(11,0,0,11,302.9,146.5)" />
<use xlink:href="#f0_2" transform="matrix(11,0,0,11,137.7,146.5)" />
<use xlink:href="#f0_l" transform="matrix(11,0,0,11,145.1,146.5)" />
<use xlink:href="#f0_l" transform="matrix(11,0,0,11,149.7,146.5)" />
<use xlink:href="#f0_8" transform="matrix(11,0,0,11,154.4,146.5)" />
<use xlink:href="#f0_g" transform="matrix(11,0,0,11,162.8,146.5)" />
<use xlink:href="#f0_6" transform="matrix(11,0,0,11,169.4,146.5)" />
<use xlink:href="#f0_m" transform="matrix(11,0,0,11,174.1,146.5)" />
<use xlink:href="#f0_g" transform="matrix(11,0,0,11,181.4,146.5)" />
<use xlink:href="#f0_6" transform="matrix(11,0,0,11,188,146.5)" />
<use xlink:href="#f0_n" transform="matrix(11,0,0,11,192.7,146.5)" />
<use xlink:href="#f0_e" transform="matrix(11,0,0,11,204.8,146.5)" />
<use xlink:href="#f0_g" transform="matrix(11,0,0,11,213.2,146.5)" />
<use xlink:href="#f0_o" transform="matrix(11,0,0,11,219.7,146.5)" />
</g>
<g fill="#0000FF" >
<use xlink:href="#f1_p" transform="matrix(12,0,0,12,669.9,168.1)" />
<use xlink:href="#f1_a" transform="matrix(12,0,0,12,682.9,168.1)" />
<use xlink:href="#f1_m" transform="matrix(12,0,0,12,693.1,168.1)" />
<use xlink:href="#f1_3" transform="matrix(12,0,0,12,704.6,168.1)" />
<use xlink:href="#f1_9" transform="matrix(12,0,0,12,720.9,168.1)" />
<use xlink:href="#f1_a" transform="matrix(12,0,0,12,732.8,168.1)" />
<use xlink:href="#f1_o" transform="matrix(12,0,0,12,743.2,168.1)" />
<use xlink:href="#f1_g" transform="matrix(12,0,0,12,749.6,168.1)" />
<use xlink:href="#f1_f" transform="matrix(12,0,0,12,761.5,168.1)" />
</g>
</g>
<path d="M669.8,169.9H772.1" class="g2_20" />
<g clip-path="url(#c0_20)">
<g fill="#000000" >
<use xlink:href="#f2_n" transform="matrix(12,0,0,12,723.8,266.8)" />
<use xlink:href="#f2_d" transform="matrix(12,0,0,12,735,266.8)" />
<use xlink:href="#f2_o" transform="matrix(12,0,0,12,740.3,266.8)" />
<use xlink:href="#f2_4" transform="matrix(12,0,0,12,748.6,266.8)" />
<use xlink:href="#f2_p" transform="matrix(12,0,0,12,759.6,266.8)" />
<use xlink:href="#f2_12" transform="matrix(12,0,0,12,704.6,266.8)" />
</g>
</g>
<path d="M236.9,271.4H761.7M128.6,313H761.7M128.6,333H761.7M128.6,353.1H761.7M128.6,373.2H761.7M128.6,393.3H761.7m-633.1,20H761.7M128.9,312.6V413.7M237.3,271V413.7M356.3,271V413.7M508,271V413.7M637.8,271V413.7M761.3,271V413.7" class="g1_20" />
<g clip-path="url(#c0_20)">
<g fill="#000000" >
<use xlink:href="#f1_t" transform="matrix(12,0,0,12,702.2,288.9)" />
<use xlink:href="#f1_c" transform="matrix(12,0,0,12,714.1,288.9)" />
<use xlink:href="#f1_m" transform="matrix(12,0,0,12,719.1,288.9)" />
<use xlink:href="#f1_e" transform="matrix(12,0,0,12,730.5,288.9)" />
<use xlink:href="#f1_3" transform="matrix(12,0,0,12,742.6,288.9)" />
<use xlink:href="#f0_5" transform="matrix(11,0,0,11,646.7,308.9)" />
<use xlink:href="#f0_8" transform="matrix(11,0,0,11,654.2,308.9)" />
<use xlink:href="#f0_w" transform="matrix(11,0,0,11,662.6,308.9)" />
<use xlink:href="#f0_2" transform="matrix(11,0,0,11,670.8,308.9)" />
<use xlink:href="#f0_3" transform="matrix(11,0,0,11,678.3,308.9)" />
<use xlink:href="#f1_a" transform="matrix(12,0,0,12,581.5,288.9)" />
<use xlink:href="#f1_c" transform="matrix(12,0,0,12,591.8,288.9)" />
<use xlink:href="#f1_g" transform="matrix(12,0,0,12,596.9,288.9)" />
<use xlink:href="#f1_f" transform="matrix(12,0,0,12,608.8,288.9)" />
<use xlink:href="#f1_3" transform="matrix(12,0,0,12,619.3,288.9)" />
<use xlink:href="#f0_2" transform="matrix(11,0,0,11,516.7,308.9)" />
<use xlink:href="#f0_g" transform="matrix(11,0,0,11,524.2,308.9)" />
<use xlink:href="#f0_5" transform="matrix(11,0,0,11,530.7,308.9)" />
<use xlink:href="#f0_8" transform="matrix(11,0,0,11,538.2,308.9)" />
<use xlink:href="#f0_w" transform="matrix(11,0,0,11,546.6,308.9)" />
<use xlink:href="#f0_2" transform="matrix(11,0,0,11,555,308.9)" />
<use xlink:href="#f0_3" transform="matrix(11,0,0,11,562.3,308.9)" />
<use xlink:href="#f1_z" transform="matrix(12,0,0,12,448.4,288.9)" />
<use xlink:href="#f1_c" transform="matrix(12,0,0,12,460.2,288.9)" />
<use xlink:href="#f1_t" transform="matrix(12,0,0,12,465.2,288.9)" />
<use xlink:href="#f1_d" transform="matrix(12,0,0,12,477.1,288.9)" />
<use xlink:href="#f1_3" transform="matrix(12,0,0,12,489.3,288.9)" />
<use xlink:href="#f0_3" transform="matrix(11,0,0,11,365.1,308.9)" />
<use xlink:href="#f0_2" transform="matrix(11,0,0,11,370.6,308.9)" />
<use xlink:href="#f0_5" transform="matrix(11,0,0,11,378.1,308.9)" />
<use xlink:href="#f0_8" transform="matrix(11,0,0,11,385.6,308.9)" />
<use xlink:href="#f0_w" transform="matrix(11,0,0,11,394,308.9)" />
<use xlink:href="#f0_2" transform="matrix(11,0,0,11,402.4,308.9)" />
<use xlink:href="#f0_3" transform="matrix(11,0,0,11,409.8,308.9)" />
<use xlink:href="#f1_k" transform="matrix(12,0,0,12,253.8,288.9)" />
<use xlink:href="#f1_7" transform="matrix(12,0,0,12,261.4,288.9)" />
<use xlink:href="#f1_9" transform="matrix(12,0,0,12,265.5,288.9)" />
<use xlink:href="#f1_n" transform="matrix(12,0,0,12,277.4,288.9)" />
<use xlink:href="#f1_9" transform="matrix(12,0,0,12,284.7,288.9)" />
<use xlink:href="#f1_3" transform="matrix(12,0,0,12,296.7,288.9)" />
<use xlink:href="#f1_r" transform="matrix(12,0,0,12,307.1,288.9)" />
<use xlink:href="#f1_h" transform="matrix(12,0,0,12,313.2,288.9)" />
<use xlink:href="#f1_c" transform="matrix(12,0,0,12,318.1,288.9)" />
<use xlink:href="#f1_c" transform="matrix(12,0,0,12,323.1,288.9)" />
<use xlink:href="#f1_i" transform="matrix(12,0,0,12,328.1,288.9)" />
<use xlink:href="#f1_3" transform="matrix(12,0,0,12,337.7,288.9)" />
<use xlink:href="#f0_e" transform="matrix(11,0,0,11,246.1,308.9)" />
<use xlink:href="#f0_4" transform="matrix(11,0,0,11,254.4,308.9)" />
<use xlink:href="#f0_3" transform="matrix(11,0,0,11,259.1,308.9)" />
<use xlink:href="#f0_4" transform="matrix(11,0,0,11,264.7,308.9)" />
<use xlink:href="#f0_w" transform="matrix(11,0,0,11,269.5,308.9)" />
<use xlink:href="#f0_4" transform="matrix(11,0,0,11,277.7,308.9)" />
<use xlink:href="#f0_3" transform="matrix(11,0,0,11,282.4,308.9)" />
<use xlink:href="#f0_5" transform="matrix(11,0,0,11,646.7,328.9)" />
<use xlink:href="#f0_8" transform="matrix(11,0,0,11,654.2,328.9)" />
<use xlink:href="#f0_1b" transform="matrix(11,0,0,11,662.4,328.9)" />
<use xlink:href="#f0_8" transform="matrix(11,0,0,11,667.1,328.9)" />
<use xlink:href="#f0_2" transform="matrix(11,0,0,11,516.7,328.9)" />
<use xlink:href="#f0_g" transform="matrix(11,0,0,11,524.2,328.9)" />
<use xlink:href="#f0_5" transform="matrix(11,0,0,11,530.7,328.9)" />
<use xlink:href="#f0_8" transform="matrix(11,0,0,11,538.2,328.9)" />
<use xlink:href="#f0_1b" transform="matrix(11,0,0,11,546.4,328.9)" />
<use xlink:href="#f0_8" transform="matrix(11,0,0,11,551.1,328.9)" />
<use xlink:href="#f0_3" transform="matrix(11,0,0,11,365.1,328.9)" />
<use xlink:href="#f0_2" transform="matrix(11,0,0,11,370.6,328.9)" />
<use xlink:href="#f0_5" transform="matrix(11,0,0,11,378.1,328.9)" />
<use xlink:href="#f0_8" transform="matrix(11,0,0,11,385.6,328.9)" />
<use xlink:href="#f0_1b" transform="matrix(11,0,0,11,394,328.9)" />
<use xlink:href="#f0_8" transform="matrix(11,0,0,11,398.7,328.9)" />
<use xlink:href="#f0_e" transform="matrix(11,0,0,11,246.1,328.9)" />
<use xlink:href="#f0_4" transform="matrix(11,0,0,11,254.4,328.9)" />
<use xlink:href="#f0_3" transform="matrix(11,0,0,11,259.1,328.9)" />
<use xlink:href="#f0_4" transform="matrix(11,0,0,11,264.7,328.9)" />
<use xlink:href="#f0_1b" transform="matrix(11,0,0,11,269.3,328.9)" />
<use xlink:href="#f0_8" transform="matrix(11,0,0,11,274,328.9)" />
<use xlink:href="#f0_7" transform="matrix(11,0,0,11,137.7,328.9)" />
<use xlink:href="#f0_8" transform="matrix(11,0,0,11,146.1,328.9)" />
<use xlink:href="#f0_5" transform="matrix(11,0,0,11,646.7,349.1)" />
<use xlink:href="#f0_8" transform="matrix(11,0,0,11,654.2,349.1)" />
<use xlink:href="#f0_w" transform="matrix(11,0,0,11,662.6,349.1)" />
<use xlink:href="#f0_2" transform="matrix(11,0,0,11,670.8,349.1)" />
<use xlink:href="#f0_g" transform="matrix(11,0,0,11,678.3,349.1)" />
<use xlink:href="#f0_2" transform="matrix(11,0,0,11,516.7,349.1)" />
<use xlink:href="#f0_g" transform="matrix(11,0,0,11,524.2,349.1)" />
<use xlink:href="#f0_5" transform="matrix(11,0,0,11,530.7,349.1)" />
<use xlink:href="#f0_8" transform="matrix(11,0,0,11,538.2,349.1)" />
<use xlink:href="#f0_w" transform="matrix(11,0,0,11,546.6,349.1)" />
<use xlink:href="#f0_2" transform="matrix(11,0,0,11,555,349.1)" />
<use xlink:href="#f0_g" transform="matrix(11,0,0,11,562.3,349.1)" />
<use xlink:href="#f0_3" transform="matrix(11,0,0,11,365.1,349.1)" />
<use xlink:href="#f0_2" transform="matrix(11,0,0,11,370.6,349.1)" />
<use xlink:href="#f0_5" transform="matrix(11,0,0,11,378.1,349.1)" />
<use xlink:href="#f0_8" transform="matrix(11,0,0,11,385.6,349.1)" />
<use xlink:href="#f0_w" transform="matrix(11,0,0,11,394,349.1)" />
<use xlink:href="#f0_2" transform="matrix(11,0,0,11,402.4,349.1)" />
<use xlink:href="#f0_g" transform="matrix(11,0,0,11,409.8,349.1)" />
<use xlink:href="#f0_e" transform="matrix(11,0,0,11,246.1,349.1)" />
<use xlink:href="#f0_4" transform="matrix(11,0,0,11,254.4,349.1)" />
<use xlink:href="#f0_3" transform="matrix(11,0,0,11,259.1,349.1)" />
<use xlink:href="#f0_4" transform="matrix(11,0,0,11,264.7,349.1)" />
<use xlink:href="#f0_w" transform="matrix(11,0,0,11,269.5,349.1)" />
<use xlink:href="#f0_2" transform="matrix(11,0,0,11,277.7,349.1)" />
<use xlink:href="#f0_g" transform="matrix(11,0,0,11,285.2,349.1)" />
<use xlink:href="#f0_h" transform="matrix(11,0,0,11,137.7,349.1)" />
<use xlink:href="#f0_i" transform="matrix(11,0,0,11,142.4,349.1)" />
<use xlink:href="#f0_5" transform="matrix(11,0,0,11,646.7,369.1)" />
<use xlink:href="#f0_8" transform="matrix(11,0,0,11,654.2,369.1)" />
<use xlink:href="#f0_w" transform="matrix(11,0,0,11,662.6,369.1)" />
<use xlink:href="#f0_2" transform="matrix(11,0,0,11,670.8,369.1)" />
<use xlink:href="#f0_2" transform="matrix(11,0,0,11,516.7,369.1)" />
<use xlink:href="#f0_g" transform="matrix(11,0,0,11,524.2,369.1)" />
<use xlink:href="#f0_5" transform="matrix(11,0,0,11,530.7,369.1)" />
<use xlink:href="#f0_8" transform="matrix(11,0,0,11,538.2,369.1)" />
<use xlink:href="#f0_w" transform="matrix(11,0,0,11,546.6,369.1)" />
<use xlink:href="#f0_2" transform="matrix(11,0,0,11,555,369.1)" />
<use xlink:href="#f0_3" transform="matrix(11,0,0,11,365.1,369.1)" />
<use xlink:href="#f0_2" transform="matrix(11,0,0,11,370.6,369.1)" />
<use xlink:href="#f0_5" transform="matrix(11,0,0,11,378.1,369.1)" />
<use xlink:href="#f0_8" transform="matrix(11,0,0,11,385.6,369.1)" />
<use xlink:href="#f0_w" transform="matrix(11,0,0,11,394,369.1)" />
<use xlink:href="#f0_2" transform="matrix(11,0,0,11,402.4,369.1)" />
<use xlink:href="#f0_e" transform="matrix(11,0,0,11,246.1,369.1)" />
<use xlink:href="#f0_4" transform="matrix(11,0,0,11,254.4,369.1)" />
<use xlink:href="#f0_3" transform="matrix(11,0,0,11,259.1,369.1)" />
<use xlink:href="#f0_4" transform="matrix(11,0,0,11,264.7,369.1)" />
<use xlink:href="#f0_w" transform="matrix(11,0,0,11,269.5,369.1)" />
<use xlink:href="#f0_2" transform="matrix(11,0,0,11,277.7,369.1)" />
<use xlink:href="#f0_k" transform="matrix(11,0,0,11,137.7,369.1)" />
<use xlink:href="#f0_l" transform="matrix(11,0,0,11,145.1,369.1)" />
<use xlink:href="#f0_6" transform="matrix(11,0,0,11,149.7,369.1)" />
<use xlink:href="#f0_2" transform="matrix(11,0,0,11,154.4,369.1)" />
<use xlink:href="#f0_l" transform="matrix(11,0,0,11,161.9,369.1)" />
<use xlink:href="#f0_l" transform="matrix(11,0,0,11,166.5,369.1)" />
<use xlink:href="#f0_m" transform="matrix(11,0,0,11,171.2,369.1)" />
<use xlink:href="#f0_6" transform="matrix(11,0,0,11,178.7,369.1)" />
<use xlink:href="#f0_n" transform="matrix(11,0,0,11,183.4,369.1)" />
<use xlink:href="#f0_e" transform="matrix(11,0,0,11,195.4,369.1)" />
<use xlink:href="#f0_o" transform="matrix(11,0,0,11,203.8,369.1)" />
<use xlink:href="#f0_5" transform="matrix(11,0,0,11,646.7,389.3)" />
<use xlink:href="#f0_8" transform="matrix(11,0,0,11,654.2,389.3)" />
<use xlink:href="#f0_w" transform="matrix(11,0,0,11,662.6,389.3)" />
<use xlink:href="#f0_2" transform="matrix(11,0,0,11,670.8,389.3)" />
<use xlink:href="#f0_p" transform="matrix(11,0,0,11,678.3,389.3)" />
<use xlink:href="#f0_8" transform="matrix(11,0,0,11,691.4,389.3)" />
<use xlink:href="#f0_g" transform="matrix(11,0,0,11,699.8,389.3)" />
<use xlink:href="#f0_2" transform="matrix(11,0,0,11,516.7,389.3)" />
<use xlink:href="#f0_g" transform="matrix(11,0,0,11,524.2,389.3)" />
<use xlink:href="#f0_5" transform="matrix(11,0,0,11,530.7,389.3)" />
<use xlink:href="#f0_8" transform="matrix(11,0,0,11,538.2,389.3)" />
<use xlink:href="#f0_w" transform="matrix(11,0,0,11,546.6,389.3)" />
<use xlink:href="#f0_2" transform="matrix(11,0,0,11,555,389.3)" />
<use xlink:href="#f0_p" transform="matrix(11,0,0,11,562.3,389.3)" />
<use xlink:href="#f0_8" transform="matrix(11,0,0,11,575.4,389.3)" />
<use xlink:href="#f0_g" transform="matrix(11,0,0,11,583.8,389.3)" />
<use xlink:href="#f0_3" transform="matrix(11,0,0,11,365.1,389.3)" />
<use xlink:href="#f0_2" transform="matrix(11,0,0,11,370.6,389.3)" />
<use xlink:href="#f0_5" transform="matrix(11,0,0,11,378.1,389.3)" />
<use xlink:href="#f0_8" transform="matrix(11,0,0,11,385.6,389.3)" />
<use xlink:href="#f0_w" transform="matrix(11,0,0,11,394,389.3)" />
<use xlink:href="#f0_2" transform="matrix(11,0,0,11,402.4,389.3)" />
<use xlink:href="#f0_p" transform="matrix(11,0,0,11,409.8,389.3)" />
<use xlink:href="#f0_8" transform="matrix(11,0,0,11,423,389.3)" />
<use xlink:href="#f0_g" transform="matrix(11,0,0,11,431.2,389.3)" />
<use xlink:href="#f0_e" transform="matrix(11,0,0,11,246.1,389.3)" />
<use xlink:href="#f0_4" transform="matrix(11,0,0,11,254.4,389.3)" />
<use xlink:href="#f0_3" transform="matrix(11,0,0,11,259.1,389.3)" />
<use xlink:href="#f0_4" transform="matrix(11,0,0,11,264.7,389.3)" />
<use xlink:href="#f0_w" transform="matrix(11,0,0,11,269.5,389.3)" />
<use xlink:href="#f0_4" transform="matrix(11,0,0,11,277.7,389.3)" />
<use xlink:href="#f0_p" transform="matrix(11,0,0,11,282.4,389.3)" />
<use xlink:href="#f0_8" transform="matrix(11,0,0,11,295.6,389.3)" />
<use xlink:href="#f0_g" transform="matrix(11,0,0,11,304,389.3)" />
<use xlink:href="#f0_a" transform="matrix(11,0,0,11,137.7,389.3)" />
<use xlink:href="#f0_8" transform="matrix(11,0,0,11,146.1,389.3)" />
<use xlink:href="#f0_g" transform="matrix(11,0,0,11,154.5,389.3)" />
<use xlink:href="#f0_8" transform="matrix(11,0,0,11,161,389.3)" />
<use xlink:href="#f0_h" transform="matrix(11,0,0,11,169.4,389.3)" />
<use xlink:href="#f0_3" transform="matrix(11,0,0,11,174,389.3)" />
<use xlink:href="#f0_8" transform="matrix(11,0,0,11,179.6,389.3)" />
<use xlink:href="#f0_g" transform="matrix(11,0,0,11,188,389.3)" />
<use xlink:href="#f0_6" transform="matrix(11,0,0,11,194.6,389.3)" />
<use xlink:href="#f0_m" transform="matrix(11,0,0,11,199.3,389.3)" />
<use xlink:href="#f0_g" transform="matrix(11,0,0,11,206.6,389.3)" />
<use xlink:href="#f0_5" transform="matrix(11,0,0,11,646.7,409.3)" />
<use xlink:href="#f0_8" transform="matrix(11,0,0,11,654.2,409.3)" />
<use xlink:href="#f0_w" transform="matrix(11,0,0,11,662.6,409.3)" />
<use xlink:href="#f0_2" transform="matrix(11,0,0,11,670.8,409.3)" />
<use xlink:href="#f0_a" transform="matrix(11,0,0,11,678.3,409.3)" />
<use xlink:href="#f0_2" transform="matrix(11,0,0,11,516.7,409.3)" />
<use xlink:href="#f0_g" transform="matrix(11,0,0,11,524.2,409.3)" />
<use xlink:href="#f0_5" transform="matrix(11,0,0,11,530.7,409.3)" />
<use xlink:href="#f0_8" transform="matrix(11,0,0,11,538.2,409.3)" />
<use xlink:href="#f0_w" transform="matrix(11,0,0,11,546.6,409.3)" />
<use xlink:href="#f0_2" transform="matrix(11,0,0,11,555,409.3)" />
<use xlink:href="#f0_a" transform="matrix(11,0,0,11,562.4,409.3)" />
<use xlink:href="#f0_3" transform="matrix(11,0,0,11,365.1,409.3)" />
<use xlink:href="#f0_2" transform="matrix(11,0,0,11,370.6,409.3)" />
<use xlink:href="#f0_5" transform="matrix(11,0,0,11,378.1,409.3)" />
<use xlink:href="#f0_8" transform="matrix(11,0,0,11,385.6,409.3)" />
<use xlink:href="#f0_w" transform="matrix(11,0,0,11,394,409.3)" />
<use xlink:href="#f0_2" transform="matrix(11,0,0,11,402.4,409.3)" />
<use xlink:href="#f0_a" transform="matrix(11,0,0,11,409.8,409.3)" />
<use xlink:href="#f0_e" transform="matrix(11,0,0,11,246.1,409.3)" />
<use xlink:href="#f0_4" transform="matrix(11,0,0,11,254.4,409.3)" />
<use xlink:href="#f0_3" transform="matrix(11,0,0,11,259.1,409.3)" />
<use xlink:href="#f0_4" transform="matrix(11,0,0,11,264.7,409.3)" />
<use xlink:href="#f0_w" transform="matrix(11,0,0,11,269.5,409.3)" />
<use xlink:href="#f0_2" transform="matrix(11,0,0,11,277.7,409.3)" />
<use xlink:href="#f0_a" transform="matrix(11,0,0,11,285.2,409.3)" />
<use xlink:href="#f0_2" transform="matrix(11,0,0,11,137.7,409.3)" />
<use xlink:href="#f0_l" transform="matrix(11,0,0,11,145.1,409.3)" />
<use xlink:href="#f0_l" transform="matrix(11,0,0,11,149.7,409.3)" />
<use xlink:href="#f0_8" transform="matrix(11,0,0,11,154.4,409.3)" />
<use xlink:href="#f0_g" transform="matrix(11,0,0,11,162.8,409.3)" />
<use xlink:href="#f0_6" transform="matrix(11,0,0,11,169.4,409.3)" />
<use xlink:href="#f0_m" transform="matrix(11,0,0,11,174.1,409.3)" />
<use xlink:href="#f0_g" transform="matrix(11,0,0,11,181.4,409.3)" />
<use xlink:href="#f0_6" transform="matrix(11,0,0,11,188,409.3)" />
<use xlink:href="#f0_n" transform="matrix(11,0,0,11,192.7,409.3)" />
<use xlink:href="#f0_e" transform="matrix(11,0,0,11,204.8,409.3)" />
<use xlink:href="#f0_g" transform="matrix(11,0,0,11,213.2,409.3)" />
<use xlink:href="#f0_o" transform="matrix(11,0,0,11,219.7,409.3)" />
</g>
<g fill="#0000FF" >
<use xlink:href="#f1_p" transform="matrix(12,0,0,12,669.9,430.8)" />
<use xlink:href="#f1_a" transform="matrix(12,0,0,12,682.9,430.8)" />
<use xlink:href="#f1_m" transform="matrix(12,0,0,12,693.1,430.8)" />
<use xlink:href="#f1_3" transform="matrix(12,0,0,12,704.6,430.8)" />
<use xlink:href="#f1_9" transform="matrix(12,0,0,12,720.9,430.8)" />
<use xlink:href="#f1_a" transform="matrix(12,0,0,12,732.8,430.8)" />
<use xlink:href="#f1_o" transform="matrix(12,0,0,12,743.2,430.8)" />
<use xlink:href="#f1_g" transform="matrix(12,0,0,12,749.6,430.8)" />
<use xlink:href="#f1_f" transform="matrix(12,0,0,12,761.5,430.8)" />
</g>
</g>
<path d="M669.8,432.7H772.1" class="g2_20" />
<g clip-path="url(#c0_20)">
<g fill="#000000" >
<use xlink:href="#f2_n" transform="matrix(12,0,0,12,723.8,490.9)" />
<use xlink:href="#f2_d" transform="matrix(12,0,0,12,735,490.9)" />
<use xlink:href="#f2_o" transform="matrix(12,0,0,12,740.3,490.9)" />
<use xlink:href="#f2_4" transform="matrix(12,0,0,12,748.6,490.9)" />
<use xlink:href="#f2_p" transform="matrix(12,0,0,12,759.6,490.9)" />
<use xlink:href="#f2_q" transform="matrix(12,0,0,12,691.8,490.9)" />
<use xlink:href="#f2_14" transform="matrix(12,0,0,12,704.5,490.9)" />
</g>
</g>
<path d="M128.6,495.5H681.5M128.6,517.7H681.5M128.6,539.8H681.5M128.6,562H681.5M128.6,584.1H681.5M128.6,606.3H681.5M128.6,628.5H681.5M128.9,495.2V628.8M248.1,495.2V628.8m119,-133.6V628.8M486.3,495.2V628.8M681.1,495.2V628.8" class="g1_20" />
<g clip-path="url(#c0_20)">
<g fill="#000000" >
<use xlink:href="#f1_6" transform="matrix(12,0,0,12,625.6,513)" />
<use xlink:href="#f1_c" transform="matrix(12,0,0,12,637.8,513)" />
<use xlink:href="#f1_k" transform="matrix(12,0,0,12,642.9,513)" />
<use xlink:href="#f1_a" transform="matrix(12,0,0,12,650.3,513)" />
<use xlink:href="#f1_e" transform="matrix(12,0,0,12,660.7,513)" />
<use xlink:href="#f0_2" transform="matrix(11,0,0,11,376,511.7)" />
<use xlink:href="#f0_l" transform="matrix(11,0,0,11,383.3,511.7)" />
<use xlink:href="#f0_l" transform="matrix(11,0,0,11,388,511.7)" />
<use xlink:href="#f0_8" transform="matrix(11,0,0,11,392.8,511.7)" />
<use xlink:href="#f0_g" transform="matrix(11,0,0,11,401.2,511.7)" />
<use xlink:href="#f0_a" transform="matrix(11,0,0,11,256.8,511.7)" />
<use xlink:href="#f0_8" transform="matrix(11,0,0,11,265.2,511.7)" />
<use xlink:href="#f0_g" transform="matrix(11,0,0,11,273.6,511.7)" />
<use xlink:href="#f0_8" transform="matrix(11,0,0,11,280.2,511.7)" />
<use xlink:href="#f0_h" transform="matrix(11,0,0,11,288.6,511.7)" />
<use xlink:href="#f0_3" transform="matrix(11,0,0,11,293.2,511.7)" />
<use xlink:href="#f0_8" transform="matrix(11,0,0,11,298.8,511.7)" />
<use xlink:href="#f0_g" transform="matrix(11,0,0,11,307.2,511.7)" />
<use xlink:href="#f1_3" transform="matrix(12,0,0,12,189.6,513)" />
<use xlink:href="#f1_l" transform="matrix(12,0,0,12,200,513)" />
<use xlink:href="#f1_c" transform="matrix(12,0,0,12,211.5,513)" />
<use xlink:href="#f1_m" transform="matrix(12,0,0,12,216.5,513)" />
<use xlink:href="#f1_9" transform="matrix(12,0,0,12,227.9,513)" />
<use xlink:href="#f1_e" transform="matrix(12,0,0,12,627.5,535.2)" />
<use xlink:href="#f1_c" transform="matrix(12,0,0,12,639.5,535.2)" />
<use xlink:href="#f1_n" transform="matrix(12,0,0,12,644.5,535.2)" />
<use xlink:href="#f1_f" transform="matrix(12,0,0,12,651.9,535.2)" />
<use xlink:href="#f1_3" transform="matrix(12,0,0,12,662.4,535.2)" />
<use xlink:href="#f0_5" transform="matrix(11,0,0,11,376,533.8)" />
<use xlink:href="#f0_8" transform="matrix(11,0,0,11,383.4,533.8)" />
<use xlink:href="#f0_a" transform="matrix(11,0,0,11,391.9,533.8)" />
<use xlink:href="#f0_g" transform="matrix(11,0,0,11,400.1,533.8)" />
<use xlink:href="#f0_h" transform="matrix(11,0,0,11,406.7,533.8)" />
<use xlink:href="#f0_3" transform="matrix(11,0,0,11,411.4,533.8)" />
<use xlink:href="#f0_f" transform="matrix(11,0,0,11,417,533.8)" />
<use xlink:href="#f0_7" transform="matrix(11,0,0,11,425.4,533.8)" />
<use xlink:href="#f0_2" transform="matrix(11,0,0,11,433.8,533.8)" />
<use xlink:href="#f0_a" transform="matrix(11,0,0,11,441.3,533.8)" />
<use xlink:href="#f0_5" transform="matrix(11,0,0,11,256.8,533.8)" />
<use xlink:href="#f0_8" transform="matrix(11,0,0,11,264.3,533.8)" />
<use xlink:href="#f0_a" transform="matrix(11,0,0,11,272.7,533.8)" />
<use xlink:href="#f0_g" transform="matrix(11,0,0,11,281.1,533.8)" />
<use xlink:href="#f0_h" transform="matrix(11,0,0,11,287.6,533.8)" />
<use xlink:href="#f0_3" transform="matrix(11,0,0,11,292.2,533.8)" />
<use xlink:href="#f0_f" transform="matrix(11,0,0,11,297.9,533.8)" />
<use xlink:href="#f0_4" transform="matrix(11,0,0,11,306.3,533.8)" />
<use xlink:href="#f0_p" transform="matrix(11,0,0,11,310.8,533.8)" />
<use xlink:href="#f0_8" transform="matrix(11,0,0,11,324,533.8)" />
<use xlink:href="#f0_g" transform="matrix(11,0,0,11,332.4,533.8)" />
<use xlink:href="#f0_5" transform="matrix(11,0,0,11,137.7,533.8)" />
<use xlink:href="#f0_8" transform="matrix(11,0,0,11,145.1,533.8)" />
<use xlink:href="#f0_a" transform="matrix(11,0,0,11,153.5,533.8)" />
<use xlink:href="#f0_g" transform="matrix(11,0,0,11,161.9,533.8)" />
<use xlink:href="#f0_h" transform="matrix(11,0,0,11,168.5,533.8)" />
<use xlink:href="#f0_3" transform="matrix(11,0,0,11,173.1,533.8)" />
<use xlink:href="#f0_f" transform="matrix(11,0,0,11,178.7,533.8)" />
<use xlink:href="#f0_4" transform="matrix(11,0,0,11,187.1,533.8)" />
<use xlink:href="#f0_3" transform="matrix(11,0,0,11,191.7,533.8)" />
<use xlink:href="#f1_3" transform="matrix(12,0,0,12,627,557.3)" />
<use xlink:href="#f1_c" transform="matrix(12,0,0,12,637.4,557.3)" />
<use xlink:href="#f1_3" transform="matrix(12,0,0,12,642.4,557.3)" />
<use xlink:href="#f1_i" transform="matrix(12,0,0,12,652.8,557.3)" />
<use xlink:href="#f1_3" transform="matrix(12,0,0,12,662.4,557.3)" />
<use xlink:href="#f0_4" transform="matrix(11,0,0,11,376,556)" />
<use xlink:href="#f0_a" transform="matrix(11,0,0,11,380.6,556)" />
<use xlink:href="#f0_5" transform="matrix(11,0,0,11,389,556)" />
<use xlink:href="#f0_l" transform="matrix(11,0,0,11,396.4,556)" />
<use xlink:href="#f0_f" transform="matrix(11,0,0,11,401.2,556)" />
<use xlink:href="#f0_7" transform="matrix(11,0,0,11,409.6,556)" />
<use xlink:href="#f0_2" transform="matrix(11,0,0,11,418,556)" />
<use xlink:href="#f0_a" transform="matrix(11,0,0,11,425.4,556)" />
<use xlink:href="#f0_4" transform="matrix(11,0,0,11,256.8,556)" />
<use xlink:href="#f0_a" transform="matrix(11,0,0,11,261.5,556)" />
<use xlink:href="#f0_5" transform="matrix(11,0,0,11,269.9,556)" />
<use xlink:href="#f0_l" transform="matrix(11,0,0,11,277.3,556)" />
<use xlink:href="#f0_f" transform="matrix(11,0,0,11,282,556)" />
<use xlink:href="#f0_4" transform="matrix(11,0,0,11,290.4,556)" />
<use xlink:href="#f0_p" transform="matrix(11,0,0,11,295,556)" />
<use xlink:href="#f0_8" transform="matrix(11,0,0,11,308.1,556)" />
<use xlink:href="#f0_g" transform="matrix(11,0,0,11,316.5,556)" />
<use xlink:href="#f0_4" transform="matrix(11,0,0,11,137.7,556)" />
<use xlink:href="#f0_a" transform="matrix(11,0,0,11,142.4,556)" />
<use xlink:href="#f0_5" transform="matrix(11,0,0,11,150.8,556)" />
<use xlink:href="#f0_l" transform="matrix(11,0,0,11,158.1,556)" />
<use xlink:href="#f0_f" transform="matrix(11,0,0,11,162.8,556)" />
<use xlink:href="#f0_4" transform="matrix(11,0,0,11,171.2,556)" />
<use xlink:href="#f0_3" transform="matrix(11,0,0,11,176,556)" />
<use xlink:href="#f1_g" transform="matrix(12,0,0,12,624.6,579.5)" />
<use xlink:href="#f1_c" transform="matrix(12,0,0,12,636.5,579.5)" />
<use xlink:href="#f1_a" transform="matrix(12,0,0,12,641.5,579.5)" />
<use xlink:href="#f1_f" transform="matrix(12,0,0,12,651.9,579.5)" />
<use xlink:href="#f1_3" transform="matrix(12,0,0,12,662.4,579.5)" />
<use xlink:href="#f0_x" transform="matrix(11,0,0,11,376,578.1)" />
<use xlink:href="#f0_f" transform="matrix(11,0,0,11,384.4,578.1)" />
<use xlink:href="#f0_7" transform="matrix(11,0,0,11,392.8,578.1)" />
<use xlink:href="#f0_2" transform="matrix(11,0,0,11,401.2,578.1)" />
<use xlink:href="#f0_a" transform="matrix(11,0,0,11,408.7,578.1)" />
<use xlink:href="#f0_x" transform="matrix(11,0,0,11,256.8,578.1)" />
<use xlink:href="#f0_f" transform="matrix(11,0,0,11,265.2,578.1)" />
<use xlink:href="#f0_4" transform="matrix(11,0,0,11,273.6,578.1)" />
<use xlink:href="#f0_p" transform="matrix(11,0,0,11,278.2,578.1)" />
<use xlink:href="#f0_8" transform="matrix(11,0,0,11,291.3,578.1)" />
<use xlink:href="#f0_g" transform="matrix(11,0,0,11,299.7,578.1)" />
<use xlink:href="#f0_x" transform="matrix(11,0,0,11,137.7,578.1)" />
<use xlink:href="#f0_f" transform="matrix(11,0,0,11,146.1,578.1)" />
<use xlink:href="#f0_4" transform="matrix(11,0,0,11,154.5,578.1)" />
<use xlink:href="#f0_3" transform="matrix(11,0,0,11,159.2,578.1)" />
<use xlink:href="#f1_1e" transform="matrix(12,0,0,12,625,601.6)" />
<use xlink:href="#f1_7" transform="matrix(12,0,0,12,634.9,601.6)" />
<use xlink:href="#f1_m" transform="matrix(12,0,0,12,639,601.6)" />
<use xlink:href="#f1_9" transform="matrix(12,0,0,12,650.5,601.6)" />
<use xlink:href="#f1_3" transform="matrix(12,0,0,12,662.4,601.6)" />
<use xlink:href="#f0_e" transform="matrix(11,0,0,11,376,600.3)" />
<use xlink:href="#f0_4" transform="matrix(11,0,0,11,384.2,600.3)" />
<use xlink:href="#f0_g" transform="matrix(11,0,0,11,389,600.3)" />
<use xlink:href="#f0_h" transform="matrix(11,0,0,11,395.5,600.3)" />
<use xlink:href="#f0_3" transform="matrix(11,0,0,11,400.1,600.3)" />
<use xlink:href="#f0_4" transform="matrix(11,0,0,11,405.7,600.3)" />
<use xlink:href="#f0_v" transform="matrix(11,0,0,11,410.5,600.3)" />
<use xlink:href="#f0_f" transform="matrix(11,0,0,11,418.9,600.3)" />
<use xlink:href="#f0_7" transform="matrix(11,0,0,11,427.3,600.3)" />
<use xlink:href="#f0_2" transform="matrix(11,0,0,11,435.7,600.3)" />
<use xlink:href="#f0_a" transform="matrix(11,0,0,11,443.1,600.3)" />
<use xlink:href="#f0_e" transform="matrix(11,0,0,11,256.8,600.3)" />
<use xlink:href="#f0_4" transform="matrix(11,0,0,11,265.2,600.3)" />
<use xlink:href="#f0_g" transform="matrix(11,0,0,11,269.9,600.3)" />
<use xlink:href="#f0_h" transform="matrix(11,0,0,11,276.4,600.3)" />
<use xlink:href="#f0_3" transform="matrix(11,0,0,11,281.1,600.3)" />
<use xlink:href="#f0_4" transform="matrix(11,0,0,11,286.7,600.3)" />
<use xlink:href="#f0_v" transform="matrix(11,0,0,11,291.4,600.3)" />
<use xlink:href="#f0_f" transform="matrix(11,0,0,11,299.8,600.3)" />
<use xlink:href="#f0_4" transform="matrix(11,0,0,11,308.1,600.3)" />
<use xlink:href="#f0_p" transform="matrix(11,0,0,11,312.8,600.3)" />
<use xlink:href="#f0_8" transform="matrix(11,0,0,11,325.9,600.3)" />
<use xlink:href="#f0_g" transform="matrix(11,0,0,11,334.3,600.3)" />
<use xlink:href="#f0_e" transform="matrix(11,0,0,11,137.7,600.3)" />
<use xlink:href="#f0_4" transform="matrix(11,0,0,11,146.1,600.3)" />
<use xlink:href="#f0_g" transform="matrix(11,0,0,11,150.8,600.3)" />
<use xlink:href="#f0_h" transform="matrix(11,0,0,11,157.2,600.3)" />
<use xlink:href="#f0_3" transform="matrix(11,0,0,11,161.9,600.3)" />
<use xlink:href="#f0_4" transform="matrix(11,0,0,11,167.5,600.3)" />
<use xlink:href="#f0_v" transform="matrix(11,0,0,11,172.3,600.3)" />
<use xlink:href="#f0_f" transform="matrix(11,0,0,11,180.7,600.3)" />
<use xlink:href="#f0_4" transform="matrix(11,0,0,11,188.9,600.3)" />
<use xlink:href="#f0_3" transform="matrix(11,0,0,11,193.6,600.3)" />
<use xlink:href="#f1_6" transform="matrix(12,0,0,12,622.9,623.8)" />
<use xlink:href="#f1_c" transform="matrix(12,0,0,12,634.9,623.8)" />
<use xlink:href="#f1_a" transform="matrix(12,0,0,12,640,623.8)" />
<use xlink:href="#f1_e" transform="matrix(12,0,0,12,650.3,623.8)" />
<use xlink:href="#f1_3" transform="matrix(12,0,0,12,662.4,623.8)" />
<use xlink:href="#f0_5" transform="matrix(11,0,0,11,376,622.4)" />
<use xlink:href="#f0_8" transform="matrix(11,0,0,11,383.4,622.4)" />
<use xlink:href="#f0_a" transform="matrix(11,0,0,11,391.9,622.4)" />
<use xlink:href="#f0_h" transform="matrix(11,0,0,11,400.1,622.4)" />
<use xlink:href="#f0_3" transform="matrix(11,0,0,11,404.8,622.4)" />
<use xlink:href="#f0_4" transform="matrix(11,0,0,11,410.3,622.4)" />
<use xlink:href="#f0_v" transform="matrix(11,0,0,11,415,622.4)" />
<use xlink:href="#f0_f" transform="matrix(11,0,0,11,423.4,622.4)" />
<use xlink:href="#f0_7" transform="matrix(11,0,0,11,431.8,622.4)" />
<use xlink:href="#f0_2" transform="matrix(11,0,0,11,440.3,622.4)" />
<use xlink:href="#f0_a" transform="matrix(11,0,0,11,447.7,622.4)" />
<use xlink:href="#f0_5" transform="matrix(11,0,0,11,256.8,622.4)" />
<use xlink:href="#f0_8" transform="matrix(11,0,0,11,264.3,622.4)" />
<use xlink:href="#f0_a" transform="matrix(11,0,0,11,272.7,622.4)" />
<use xlink:href="#f0_h" transform="matrix(11,0,0,11,281.1,622.4)" />
<use xlink:href="#f0_3" transform="matrix(11,0,0,11,285.7,622.4)" />
<use xlink:href="#f0_4" transform="matrix(11,0,0,11,291.3,622.4)" />
<use xlink:href="#f0_v" transform="matrix(11,0,0,11,296,622.4)" />
<use xlink:href="#f0_f" transform="matrix(11,0,0,11,304.4,622.4)" />
<use xlink:href="#f0_4" transform="matrix(11,0,0,11,312.8,622.4)" />
<use xlink:href="#f0_p" transform="matrix(11,0,0,11,317.4,622.4)" />
<use xlink:href="#f0_8" transform="matrix(11,0,0,11,330.5,622.4)" />
<use xlink:href="#f0_g" transform="matrix(11,0,0,11,338.9,622.4)" />
<use xlink:href="#f0_5" transform="matrix(11,0,0,11,137.7,622.4)" />
<use xlink:href="#f0_8" transform="matrix(11,0,0,11,145.1,622.4)" />
<use xlink:href="#f0_a" transform="matrix(11,0,0,11,153.5,622.4)" />
<use xlink:href="#f0_h" transform="matrix(11,0,0,11,161.9,622.4)" />
<use xlink:href="#f0_3" transform="matrix(11,0,0,11,166.5,622.4)" />
<use xlink:href="#f0_4" transform="matrix(11,0,0,11,172.1,622.4)" />
<use xlink:href="#f0_v" transform="matrix(11,0,0,11,176.9,622.4)" />
<use xlink:href="#f0_f" transform="matrix(11,0,0,11,185.3,622.4)" />
<use xlink:href="#f0_4" transform="matrix(11,0,0,11,193.7,622.4)" />
<use xlink:href="#f0_3" transform="matrix(11,0,0,11,198.3,622.4)" />
</g>
<g fill="#0000FF" >
<use xlink:href="#f1_p" transform="matrix(12,0,0,12,669.9,645.9)" />
<use xlink:href="#f1_a" transform="matrix(12,0,0,12,682.9,645.9)" />
<use xlink:href="#f1_m" transform="matrix(12,0,0,12,693.1,645.9)" />
<use xlink:href="#f1_3" transform="matrix(12,0,0,12,704.6,645.9)" />
<use xlink:href="#f1_9" transform="matrix(12,0,0,12,720.9,645.9)" />
<use xlink:href="#f1_a" transform="matrix(12,0,0,12,732.8,645.9)" />
<use xlink:href="#f1_o" transform="matrix(12,0,0,12,743.2,645.9)" />
<use xlink:href="#f1_g" transform="matrix(12,0,0,12,749.6,645.9)" />
<use xlink:href="#f1_f" transform="matrix(12,0,0,12,761.5,645.9)" />
</g>
</g>
<path d="M664,647.8H772.1" class="g2_20" />
<g clip-path="url(#c0_20)">
<g fill="#000000" >
<use xlink:href="#f2_n" transform="matrix(12,0,0,12,723.8,706)" />
<use xlink:href="#f2_d" transform="matrix(12,0,0,12,735,706)" />
<use xlink:href="#f2_o" transform="matrix(12,0,0,12,740.3,706)" />
<use xlink:href="#f2_4" transform="matrix(12,0,0,12,748.6,706)" />
<use xlink:href="#f2_p" transform="matrix(12,0,0,12,759.6,706)" />
<use xlink:href="#f2_q" transform="matrix(12,0,0,12,691.8,706)" />
<use xlink:href="#f2_q" transform="matrix(12,0,0,12,704.5,706)" />
</g>
</g>
<path d="M291,710.6H783.4m-654.8,63H783.4m-654.8,20H783.4M128.6,813.8H783.4m-654.8,20H783.4M128.6,854H783.4M128.6,874H783.4M128.9,773.2V874.3m162.4,-164v164m130.1,-164v164m75.7,-164v164m65,-164v164m75.7,-164v164m76,-164v164M783,710.3v164" class="g1_20" />
<g clip-path="url(#c0_20)">
<g fill="#000000" >
<use xlink:href="#f1_e" transform="matrix(12,0,0,12,724.6,728.1)" />
<use xlink:href="#f1_c" transform="matrix(12,0,0,12,736.7,728.1)" />
<use xlink:href="#f1_d" transform="matrix(12,0,0,12,741.7,728.1)" />
<use xlink:href="#f1_a" transform="matrix(12,0,0,12,753.9,728.1)" />
<use xlink:href="#f1_3" transform="matrix(12,0,0,12,764.3,728.1)" />
<use xlink:href="#f0_s" transform="matrix(11,0,0,11,722.5,748.2)" />
<use xlink:href="#f0_2" transform="matrix(11,0,0,11,730.9,748.2)" />
<use xlink:href="#f0_3" transform="matrix(11,0,0,11,738.4,748.2)" />
<use xlink:href="#f1_p" transform="matrix(12,0,0,12,657.3,728.1)" />
<use xlink:href="#f1_g" transform="matrix(12,0,0,12,670.2,728.1)" />
<use xlink:href="#f1_4" transform="matrix(12,0,0,12,682.1,728.1)" />
<use xlink:href="#f1_3" transform="matrix(12,0,0,12,695.1,728.1)" />
<use xlink:href="#f0_1b" transform="matrix(11,0,0,11,646.7,748.2)" />
<use xlink:href="#f0_f" transform="matrix(11,0,0,11,651.3,748.2)" />
<use xlink:href="#f0_w" transform="matrix(11,0,0,11,659.7,748.2)" />
<use xlink:href="#f0_m" transform="matrix(11,0,0,11,668.1,748.2)" />
<use xlink:href="#f0_3" transform="matrix(11,0,0,11,675.6,748.2)" />
<use xlink:href="#f1_e" transform="matrix(12,0,0,12,585.9,728.1)" />
<use xlink:href="#f1_l" transform="matrix(12,0,0,12,597.9,728.1)" />
<use xlink:href="#f1_q" transform="matrix(12,0,0,12,609.4,728.1)" />
<use xlink:href="#f1_3" transform="matrix(12,0,0,12,619.3,728.1)" />
<use xlink:href="#f0_g" transform="matrix(11,0,0,11,570.9,748.2)" />
<use xlink:href="#f0_m" transform="matrix(11,0,0,11,577.4,748.2)" />
<use xlink:href="#f0_v" transform="matrix(11,0,0,11,584.8,748.2)" />
<use xlink:href="#f0_2" transform="matrix(11,0,0,11,593.2,748.2)" />
<use xlink:href="#f0_3" transform="matrix(11,0,0,11,600.7,748.2)" />
<use xlink:href="#f1_e" transform="matrix(12,0,0,12,519.4,728.1)" />
<use xlink:href="#f1_e" transform="matrix(12,0,0,12,531.5,728.1)" />
<use xlink:href="#f1_3" transform="matrix(12,0,0,12,543.5,728.1)" />
<use xlink:href="#f0_e" transform="matrix(11,0,0,11,505.8,748.2)" />
<use xlink:href="#f0_m" transform="matrix(11,0,0,11,514.3,748.2)" />
<use xlink:href="#f0_3" transform="matrix(11,0,0,11,521.7,748.2)" />
<use xlink:href="#f1_e" transform="matrix(12,0,0,12,446.4,728.1)" />
<use xlink:href="#f1_i" transform="matrix(12,0,0,12,458.5,728.1)" />
<use xlink:href="#f1_3" transform="matrix(12,0,0,12,468.1,728.1)" />
<use xlink:href="#f1_3" transform="matrix(12,0,0,12,478.5,728.1)" />
<use xlink:href="#f0_4" transform="matrix(11,0,0,11,430.1,748.2)" />
<use xlink:href="#f0_3" transform="matrix(11,0,0,11,434.8,748.2)" />
<use xlink:href="#f1_3" transform="matrix(12,0,0,12,300.1,728.1)" />
<use xlink:href="#f1_l" transform="matrix(12,0,0,12,310.5,728.1)" />
<use xlink:href="#f1_f" transform="matrix(12,0,0,12,321.9,728.1)" />
<use xlink:href="#f1_e" transform="matrix(12,0,0,12,369.5,728.1)" />
<use xlink:href="#f1_c" transform="matrix(12,0,0,12,381.6,728.1)" />
<use xlink:href="#f1_7" transform="matrix(12,0,0,12,386.6,728.1)" />
<use xlink:href="#f1_9" transform="matrix(12,0,0,12,390.7,728.1)" />
<use xlink:href="#f1_3" transform="matrix(12,0,0,12,402.6,728.1)" />
<use xlink:href="#f1_a" transform="matrix(12,0,0,12,382.1,749.5)" />
<use xlink:href="#f1_f" transform="matrix(12,0,0,12,392.5,749.5)" />
<use xlink:href="#f1_q" transform="matrix(12,0,0,12,403,749.5)" />
<use xlink:href="#f0_h" transform="matrix(11,0,0,11,300.2,769.5)" />
<use xlink:href="#f0_2" transform="matrix(11,0,0,11,304.8,769.5)" />
<use xlink:href="#f0_a" transform="matrix(11,0,0,11,312.3,769.5)" />
<use xlink:href="#f0_2" transform="matrix(11,0,0,11,320.7,769.5)" />
<use xlink:href="#f0_3" transform="matrix(11,0,0,11,328.1,769.5)" />
<use xlink:href="#f0_s" transform="matrix(11,0,0,11,722.5,789.6)" />
<use xlink:href="#f0_2" transform="matrix(11,0,0,11,730.9,789.6)" />
<use xlink:href="#f0_8" transform="matrix(11,0,0,11,738.4,789.6)" />
<use xlink:href="#f0_1b" transform="matrix(11,0,0,11,646.7,789.6)" />
<use xlink:href="#f0_f" transform="matrix(11,0,0,11,651.3,789.6)" />
<use xlink:href="#f0_2" transform="matrix(11,0,0,11,659.7,789.6)" />
<use xlink:href="#f0_w" transform="matrix(11,0,0,11,667.2,789.6)" />
<use xlink:href="#f0_8" transform="matrix(11,0,0,11,675.6,789.6)" />
<use xlink:href="#f0_g" transform="matrix(11,0,0,11,570.9,789.6)" />
<use xlink:href="#f0_k" transform="matrix(11,0,0,11,577.4,789.6)" />
<use xlink:href="#f0_e" transform="matrix(11,0,0,11,505.8,789.6)" />
<use xlink:href="#f0_8" transform="matrix(11,0,0,11,514.3,789.6)" />
<use xlink:href="#f0_7" transform="matrix(11,0,0,11,522.7,789.6)" />
<use xlink:href="#f0_s" transform="matrix(11,0,0,11,430.1,789.6)" />
<use xlink:href="#f0_8" transform="matrix(11,0,0,11,438.5,789.6)" />
<use xlink:href="#f0_7" transform="matrix(11,0,0,11,446.9,789.6)" />
<use xlink:href="#f0_h" transform="matrix(11,0,0,11,300.2,789.6)" />
<use xlink:href="#f0_2" transform="matrix(11,0,0,11,304.8,789.6)" />
<use xlink:href="#f0_a" transform="matrix(11,0,0,11,312.3,789.6)" />
<use xlink:href="#f0_w" transform="matrix(11,0,0,11,320.7,789.6)" />
<use xlink:href="#f0_8" transform="matrix(11,0,0,11,329.1,789.6)" />
<use xlink:href="#f0_7" transform="matrix(11,0,0,11,137.7,789.6)" />
<use xlink:href="#f0_8" transform="matrix(11,0,0,11,146.1,789.6)" />
<use xlink:href="#f0_s" transform="matrix(11,0,0,11,722.5,809.7)" />
<use xlink:href="#f0_2" transform="matrix(11,0,0,11,730.9,809.7)" />
<use xlink:href="#f0_g" transform="matrix(11,0,0,11,738.4,809.7)" />
<use xlink:href="#f0_1b" transform="matrix(11,0,0,11,646.7,809.7)" />
<use xlink:href="#f0_f" transform="matrix(11,0,0,11,651.3,809.7)" />
<use xlink:href="#f0_2" transform="matrix(11,0,0,11,659.7,809.7)" />
<use xlink:href="#f0_w" transform="matrix(11,0,0,11,667.2,809.7)" />
<use xlink:href="#f0_m" transform="matrix(11,0,0,11,675.6,809.7)" />
<use xlink:href="#f0_g" transform="matrix(11,0,0,11,683,809.7)" />
<use xlink:href="#f0_g" transform="matrix(11,0,0,11,570.9,809.7)" />
<use xlink:href="#f0_m" transform="matrix(11,0,0,11,577.4,809.7)" />
<use xlink:href="#f0_v" transform="matrix(11,0,0,11,584.8,809.7)" />
<use xlink:href="#f0_2" transform="matrix(11,0,0,11,593.2,809.7)" />
<use xlink:href="#f0_g" transform="matrix(11,0,0,11,600.7,809.7)" />
<use xlink:href="#f0_e" transform="matrix(11,0,0,11,505.8,809.7)" />
<use xlink:href="#f0_m" transform="matrix(11,0,0,11,514.3,809.7)" />
<use xlink:href="#f0_g" transform="matrix(11,0,0,11,521.7,809.7)" />
<use xlink:href="#f0_s" transform="matrix(11,0,0,11,430.1,809.7)" />
<use xlink:href="#f0_m" transform="matrix(11,0,0,11,438.5,809.7)" />
<use xlink:href="#f0_g" transform="matrix(11,0,0,11,445.9,809.7)" />
<use xlink:href="#f0_h" transform="matrix(11,0,0,11,300.2,809.7)" />
<use xlink:href="#f0_4" transform="matrix(11,0,0,11,304.8,809.7)" />
<use xlink:href="#f0_2" transform="matrix(11,0,0,11,309.5,809.7)" />
<use xlink:href="#f0_a" transform="matrix(11,0,0,11,317,809.7)" />
<use xlink:href="#f0_2" transform="matrix(11,0,0,11,325.4,809.7)" />
<use xlink:href="#f0_g" transform="matrix(11,0,0,11,332.7,809.7)" />
<use xlink:href="#f0_h" transform="matrix(11,0,0,11,137.7,809.7)" />
<use xlink:href="#f0_i" transform="matrix(11,0,0,11,142.4,809.7)" />
<use xlink:href="#f0_s" transform="matrix(11,0,0,11,722.5,829.7)" />
<use xlink:href="#f0_2" transform="matrix(11,0,0,11,730.9,829.7)" />
<use xlink:href="#f0_1b" transform="matrix(11,0,0,11,646.7,829.7)" />
<use xlink:href="#f0_f" transform="matrix(11,0,0,11,651.3,829.7)" />
<use xlink:href="#f0_2" transform="matrix(11,0,0,11,659.7,829.7)" />
<use xlink:href="#f0_w" transform="matrix(11,0,0,11,667.2,829.7)" />
<use xlink:href="#f0_m" transform="matrix(11,0,0,11,675.6,829.7)" />
<use xlink:href="#f0_g" transform="matrix(11,0,0,11,570.9,829.7)" />
<use xlink:href="#f0_m" transform="matrix(11,0,0,11,577.4,829.7)" />
<use xlink:href="#f0_v" transform="matrix(11,0,0,11,584.8,829.7)" />
<use xlink:href="#f0_2" transform="matrix(11,0,0,11,593.2,829.7)" />
<use xlink:href="#f0_e" transform="matrix(11,0,0,11,505.8,829.7)" />
<use xlink:href="#f0_m" transform="matrix(11,0,0,11,514.3,829.7)" />
<use xlink:href="#f0_s" transform="matrix(11,0,0,11,430.1,829.7)" />
<use xlink:href="#f0_m" transform="matrix(11,0,0,11,438.5,829.7)" />
<use xlink:href="#f0_h" transform="matrix(11,0,0,11,300.2,829.7)" />
<use xlink:href="#f0_4" transform="matrix(11,0,0,11,304.8,829.7)" />
<use xlink:href="#f0_2" transform="matrix(11,0,0,11,309.5,829.7)" />
<use xlink:href="#f0_a" transform="matrix(11,0,0,11,317,829.7)" />
<use xlink:href="#f0_2" transform="matrix(11,0,0,11,325.4,829.7)" />
<use xlink:href="#f0_k" transform="matrix(11,0,0,11,137.7,829.7)" />
<use xlink:href="#f0_l" transform="matrix(11,0,0,11,145.1,829.7)" />
<use xlink:href="#f0_6" transform="matrix(11,0,0,11,149.7,829.7)" />
<use xlink:href="#f0_2" transform="matrix(11,0,0,11,154.4,829.7)" />
<use xlink:href="#f0_l" transform="matrix(11,0,0,11,161.9,829.7)" />
<use xlink:href="#f0_l" transform="matrix(11,0,0,11,166.5,829.7)" />
<use xlink:href="#f0_m" transform="matrix(11,0,0,11,171.2,829.7)" />
<use xlink:href="#f0_6" transform="matrix(11,0,0,11,178.7,829.7)" />
<use xlink:href="#f0_n" transform="matrix(11,0,0,11,183.4,829.7)" />
<use xlink:href="#f0_e" transform="matrix(11,0,0,11,195.4,829.7)" />
<use xlink:href="#f0_o" transform="matrix(11,0,0,11,203.8,829.7)" />
<use xlink:href="#f0_s" transform="matrix(11,0,0,11,722.5,849.9)" />
<use xlink:href="#f0_2" transform="matrix(11,0,0,11,730.9,849.9)" />
<use xlink:href="#f0_p" transform="matrix(11,0,0,11,738.4,849.9)" />
<use xlink:href="#f0_8" transform="matrix(11,0,0,11,751.5,849.9)" />
<use xlink:href="#f0_g" transform="matrix(11,0,0,11,759.9,849.9)" />
<use xlink:href="#f0_1b" transform="matrix(11,0,0,11,646.7,849.9)" />
<use xlink:href="#f0_f" transform="matrix(11,0,0,11,651.3,849.9)" />
<use xlink:href="#f0_w" transform="matrix(11,0,0,11,659.7,849.9)" />
<use xlink:href="#f0_m" transform="matrix(11,0,0,11,668.1,849.9)" />
<use xlink:href="#f0_p" transform="matrix(11,0,0,11,675.6,849.9)" />
<use xlink:href="#f0_8" transform="matrix(11,0,0,11,688.7,849.9)" />
<use xlink:href="#f0_g" transform="matrix(11,0,0,11,697.1,849.9)" />
<use xlink:href="#f0_g" transform="matrix(11,0,0,11,570.9,849.9)" />
<use xlink:href="#f0_m" transform="matrix(11,0,0,11,577.4,849.9)" />
<use xlink:href="#f0_v" transform="matrix(11,0,0,11,584.8,849.9)" />
<use xlink:href="#f0_2" transform="matrix(11,0,0,11,593.2,849.9)" />
<use xlink:href="#f0_p" transform="matrix(11,0,0,11,600.7,849.9)" />
<use xlink:href="#f0_8" transform="matrix(11,0,0,11,613.8,849.9)" />
<use xlink:href="#f0_g" transform="matrix(11,0,0,11,622.2,849.9)" />
<use xlink:href="#f0_e" transform="matrix(11,0,0,11,505.8,849.9)" />
<use xlink:href="#f0_m" transform="matrix(11,0,0,11,514.3,849.9)" />
<use xlink:href="#f0_p" transform="matrix(11,0,0,11,521.7,849.9)" />
<use xlink:href="#f0_8" transform="matrix(11,0,0,11,534.8,849.9)" />
<use xlink:href="#f0_g" transform="matrix(11,0,0,11,543.2,849.9)" />
<use xlink:href="#f0_s" transform="matrix(11,0,0,11,430.1,849.9)" />
<use xlink:href="#f0_m" transform="matrix(11,0,0,11,438.5,849.9)" />
<use xlink:href="#f0_p" transform="matrix(11,0,0,11,445.9,849.9)" />
<use xlink:href="#f0_8" transform="matrix(11,0,0,11,459.1,849.9)" />
<use xlink:href="#f0_g" transform="matrix(11,0,0,11,467.5,849.9)" />
<use xlink:href="#f0_h" transform="matrix(11,0,0,11,300.2,849.9)" />
<use xlink:href="#f0_2" transform="matrix(11,0,0,11,304.8,849.9)" />
<use xlink:href="#f0_a" transform="matrix(11,0,0,11,312.3,849.9)" />
<use xlink:href="#f0_2" transform="matrix(11,0,0,11,320.7,849.9)" />
<use xlink:href="#f0_p" transform="matrix(11,0,0,11,328.1,849.9)" />
<use xlink:href="#f0_8" transform="matrix(11,0,0,11,341.2,849.9)" />
<use xlink:href="#f0_g" transform="matrix(11,0,0,11,349.5,849.9)" />
<use xlink:href="#f0_a" transform="matrix(11,0,0,11,137.7,849.9)" />
<use xlink:href="#f0_8" transform="matrix(11,0,0,11,146.1,849.9)" />
<use xlink:href="#f0_g" transform="matrix(11,0,0,11,154.5,849.9)" />
<use xlink:href="#f0_8" transform="matrix(11,0,0,11,161,849.9)" />
<use xlink:href="#f0_h" transform="matrix(11,0,0,11,169.4,849.9)" />
<use xlink:href="#f0_3" transform="matrix(11,0,0,11,174,849.9)" />
<use xlink:href="#f0_8" transform="matrix(11,0,0,11,179.6,849.9)" />
<use xlink:href="#f0_g" transform="matrix(11,0,0,11,188,849.9)" />
<use xlink:href="#f0_6" transform="matrix(11,0,0,11,194.6,849.9)" />
<use xlink:href="#f0_m" transform="matrix(11,0,0,11,199.3,849.9)" />
<use xlink:href="#f0_g" transform="matrix(11,0,0,11,206.6,849.9)" />
<use xlink:href="#f0_s" transform="matrix(11,0,0,11,722.5,869.9)" />
<use xlink:href="#f0_2" transform="matrix(11,0,0,11,730.9,869.9)" />
<use xlink:href="#f0_a" transform="matrix(11,0,0,11,738.4,869.9)" />
<use xlink:href="#f0_1b" transform="matrix(11,0,0,11,646.7,869.9)" />
<use xlink:href="#f0_f" transform="matrix(11,0,0,11,651.3,869.9)" />
<use xlink:href="#f0_2" transform="matrix(11,0,0,11,659.7,869.9)" />
<use xlink:href="#f0_w" transform="matrix(11,0,0,11,667.2,869.9)" />
<use xlink:href="#f0_m" transform="matrix(11,0,0,11,675.6,869.9)" />
<use xlink:href="#f0_a" transform="matrix(11,0,0,11,683,869.9)" />
<use xlink:href="#f0_g" transform="matrix(11,0,0,11,570.9,869.9)" />
<use xlink:href="#f0_m" transform="matrix(11,0,0,11,577.4,869.9)" />
<use xlink:href="#f0_v" transform="matrix(11,0,0,11,584.8,869.9)" />
<use xlink:href="#f0_2" transform="matrix(11,0,0,11,593.2,869.9)" />
<use xlink:href="#f0_a" transform="matrix(11,0,0,11,600.7,869.9)" />
<use xlink:href="#f0_e" transform="matrix(11,0,0,11,505.8,869.9)" />
<use xlink:href="#f0_m" transform="matrix(11,0,0,11,514.3,869.9)" />
<use xlink:href="#f0_a" transform="matrix(11,0,0,11,521.7,869.9)" />
<use xlink:href="#f0_s" transform="matrix(11,0,0,11,430.1,869.9)" />
<use xlink:href="#f0_m" transform="matrix(11,0,0,11,438.5,869.9)" />
<use xlink:href="#f0_a" transform="matrix(11,0,0,11,445.9,869.9)" />
<use xlink:href="#f0_h" transform="matrix(11,0,0,11,300.2,869.9)" />
<use xlink:href="#f0_4" transform="matrix(11,0,0,11,304.8,869.9)" />
<use xlink:href="#f0_2" transform="matrix(11,0,0,11,309.5,869.9)" />
<use xlink:href="#f0_a" transform="matrix(11,0,0,11,317,869.9)" />
<use xlink:href="#f0_2" transform="matrix(11,0,0,11,325.4,869.9)" />
<use xlink:href="#f0_a" transform="matrix(11,0,0,11,332.8,869.9)" />
<use xlink:href="#f0_2" transform="matrix(11,0,0,11,137.7,869.9)" />
<use xlink:href="#f0_l" transform="matrix(11,0,0,11,145.1,869.9)" />
<use xlink:href="#f0_l" transform="matrix(11,0,0,11,149.7,869.9)" />
<use xlink:href="#f0_8" transform="matrix(11,0,0,11,154.4,869.9)" />
<use xlink:href="#f0_g" transform="matrix(11,0,0,11,162.8,869.9)" />
<use xlink:href="#f0_6" transform="matrix(11,0,0,11,169.4,869.9)" />
<use xlink:href="#f0_m" transform="matrix(11,0,0,11,174.1,869.9)" />
<use xlink:href="#f0_g" transform="matrix(11,0,0,11,181.4,869.9)" />
<use xlink:href="#f0_6" transform="matrix(11,0,0,11,188,869.9)" />
<use xlink:href="#f0_n" transform="matrix(11,0,0,11,192.7,869.9)" />
<use xlink:href="#f0_e" transform="matrix(11,0,0,11,204.8,869.9)" />
<use xlink:href="#f0_g" transform="matrix(11,0,0,11,213.2,869.9)" />
<use xlink:href="#f0_o" transform="matrix(11,0,0,11,219.7,869.9)" />
</g>
<g fill="#0000FF" >
<use xlink:href="#f1_p" transform="matrix(12,0,0,12,669.9,891.5)" />
<use xlink:href="#f1_a" transform="matrix(12,0,0,12,682.9,891.5)" />
<use xlink:href="#f1_m" transform="matrix(12,0,0,12,693.1,891.5)" />
<use xlink:href="#f1_3" transform="matrix(12,0,0,12,704.6,891.5)" />
<use xlink:href="#f1_9" transform="matrix(12,0,0,12,720.9,891.5)" />
<use xlink:href="#f1_a" transform="matrix(12,0,0,12,732.8,891.5)" />
<use xlink:href="#f1_o" transform="matrix(12,0,0,12,743.2,891.5)" />
<use xlink:href="#f1_g" transform="matrix(12,0,0,12,749.6,891.5)" />
<use xlink:href="#f1_f" transform="matrix(12,0,0,12,761.5,891.5)" />
</g>
</g>
<path d="M669.8,893.3H772.1" class="g2_20" />
<g clip-path="url(#c0_20)">
<g fill="#000000" >
<use xlink:href="#f3_1f" transform="matrix(11,0,0,11,651.1,950.1)" />
<use xlink:href="#f3_13" transform="matrix(11,0,0,11,663.2,950.1)" />
<use xlink:href="#f3_10" transform="matrix(11,0,0,11,667.9,950.1)" />
<use xlink:href="#f3_p" transform="matrix(11,0,0,11,677.3,950.1)" />
<use xlink:href="#f3_o" transform="matrix(11,0,0,11,684.7,950.1)" />
<use xlink:href="#f3_s" transform="matrix(11,0,0,11,692,950.1)" />
<use xlink:href="#f3_j" transform="matrix(11,0,0,11,701.9,950.1)" />
<use xlink:href="#f3_p" transform="matrix(11,0,0,11,714.5,950.1)" />
<use xlink:href="#f3_13" transform="matrix(11,0,0,11,721.9,950.1)" />
<use xlink:href="#f3_1g" transform="matrix(11,0,0,11,730.8,950.1)" />
<use xlink:href="#f3_p" transform="matrix(11,0,0,11,741,950.1)" />
<use xlink:href="#f3_o" transform="matrix(11,0,0,11,748.5,950.1)" />
<use xlink:href="#f3_o" transform="matrix(11,0,0,11,755.9,950.1)" />
<use xlink:href="#f3_k" transform="matrix(11,0,0,11,763.4,950.1)" />
<use xlink:href="#f1_j" transform="matrix(12,0,0,12,213.9,970.8)" />
<use xlink:href="#f1_e" transform="matrix(12,0,0,12,219.7,970.8)" />
<use xlink:href="#f1_c" transform="matrix(12,0,0,12,231.7,970.8)" />
<use xlink:href="#f1_7" transform="matrix(12,0,0,12,236.8,970.8)" />
<use xlink:href="#f1_g" transform="matrix(12,0,0,12,240.9,970.8)" />
<use xlink:href="#f1_9" transform="matrix(12,0,0,12,252.8,970.8)" />
<use xlink:href="#f1_q" transform="matrix(12,0,0,12,272.2,970.8)" />
<use xlink:href="#f1_c" transform="matrix(12,0,0,12,282.2,970.8)" />
<use xlink:href="#f1_g" transform="matrix(12,0,0,12,287.2,970.8)" />
<use xlink:href="#f1_7" transform="matrix(12,0,0,12,299.2,970.8)" />
<use xlink:href="#f1_7" transform="matrix(12,0,0,12,303.3,970.8)" />
<use xlink:href="#f1_f" transform="matrix(12,0,0,12,307.4,970.8)" />
<use xlink:href="#f1_s" transform="matrix(12,0,0,12,325.4,970.8)" />
<use xlink:href="#f1_h" transform="matrix(12,0,0,12,331.2,970.8)" />
<use xlink:href="#f1_7" transform="matrix(12,0,0,12,336.2,970.8)" />
<use xlink:href="#f1_7" transform="matrix(12,0,0,12,340.3,970.8)" />
<use xlink:href="#f1_n" transform="matrix(12,0,0,12,344.4,970.8)" />
<use xlink:href="#f1_l" transform="matrix(12,0,0,12,351.7,970.8)" />
<use xlink:href="#f1_8" transform="matrix(12,0,0,12,363,970.8)" />
<use xlink:href="#f1_3" transform="matrix(12,0,0,12,383.2,970.8)" />
<use xlink:href="#f1_i" transform="matrix(12,0,0,12,393.6,970.8)" />
<use xlink:href="#f1_9" transform="matrix(12,0,0,12,403.2,970.8)" />
<use xlink:href="#f1_4" transform="matrix(12,0,0,12,415.1,970.8)" />
<use xlink:href="#f1_f" transform="matrix(12,0,0,12,435.7,970.8)" />
<use xlink:href="#f1_4" transform="matrix(12,0,0,12,446.2,970.8)" />
<use xlink:href="#f1_c" transform="matrix(12,0,0,12,459.2,970.8)" />
<use xlink:href="#f1_g" transform="matrix(12,0,0,12,464.2,970.8)" />
<use xlink:href="#f1_w" transform="matrix(12,0,0,12,483.8,970.8)" />
<use xlink:href="#f1_a" transform="matrix(12,0,0,12,495.7,970.8)" />
<use xlink:href="#f1_f" transform="matrix(12,0,0,12,506,970.8)" />
<use xlink:href="#f1_3" transform="matrix(12,0,0,12,516.6,970.8)" />
<use xlink:href="#f1_d" transform="matrix(12,0,0,12,527,970.8)" />
<use xlink:href="#f1_j" transform="matrix(12,0,0,12,546.7,970.8)" />
<use xlink:href="#f1_h" transform="matrix(12,0,0,12,552.5,970.8)" />
<use xlink:href="#f1_a" transform="matrix(12,0,0,12,557.5,970.8)" />
<use xlink:href="#f1_p" transform="matrix(12,0,0,12,567.7,970.8)" />
<use xlink:href="#f1_t" transform="matrix(12,0,0,12,580.7,970.8)" />
<use xlink:href="#f1_q" transform="matrix(12,0,0,12,600.2,970.8)" />
<use xlink:href="#f1_c" transform="matrix(12,0,0,12,610.2,970.8)" />
<use xlink:href="#f1_d" transform="matrix(12,0,0,12,615.2,970.8)" />
<use xlink:href="#f1_8" transform="matrix(12,0,0,12,627.3,970.8)" />
<use xlink:href="#f1_q" transform="matrix(12,0,0,12,647.4,970.8)" />
<use xlink:href="#f1_3" transform="matrix(12,0,0,12,657.3,970.8)" />
<use xlink:href="#f1_7" transform="matrix(12,0,0,12,667.7,970.8)" />
<use xlink:href="#f1_d" transform="matrix(12,0,0,12,679.4,970.8)" />
<use xlink:href="#f1_c" transform="matrix(12,0,0,12,691.7,970.8)" />
<use xlink:href="#f1_9" transform="matrix(12,0,0,12,696.7,970.8)" />
<use xlink:href="#f1_w" transform="matrix(12,0,0,12,716.1,970.8)" />
<use xlink:href="#f1_a" transform="matrix(12,0,0,12,728,970.8)" />
<use xlink:href="#f1_f" transform="matrix(12,0,0,12,738.4,970.8)" />
<use xlink:href="#f1_3" transform="matrix(12,0,0,12,748.9,970.8)" />
<use xlink:href="#f1_d" transform="matrix(12,0,0,12,759.3,970.8)" />
<use xlink:href="#f1_e" transform="matrix(12,0,0,12,213.4,992.1)" />
<use xlink:href="#f1_c" transform="matrix(12,0,0,12,225.5,992.1)" />
<use xlink:href="#f1_f" transform="matrix(12,0,0,12,230.4,992.1)" />
<use xlink:href="#f1_a" transform="matrix(12,0,0,12,240.9,992.1)" />
<use xlink:href="#f1_p" transform="matrix(12,0,0,12,258.4,992.1)" />
<use xlink:href="#f1_g" transform="matrix(12,0,0,12,271.4,992.1)" />
<use xlink:href="#f1_4" transform="matrix(12,0,0,12,283.3,992.1)" />
<use xlink:href="#f1_8" transform="matrix(12,0,0,12,296.3,992.1)" />
<use xlink:href="#f1_w" transform="matrix(12,0,0,12,315.8,992.1)" />
<use xlink:href="#f1_a" transform="matrix(12,0,0,12,327.7,992.1)" />
<use xlink:href="#f1_f" transform="matrix(12,0,0,12,338.1,992.1)" />
<use xlink:href="#f1_3" transform="matrix(12,0,0,12,348.7,992.1)" />
<use xlink:href="#f1_d" transform="matrix(12,0,0,12,359.1,992.1)" />
<use xlink:href="#f1_j" transform="matrix(12,0,0,12,378.4,992.1)" />
<use xlink:href="#f1_h" transform="matrix(12,0,0,12,384.2,992.1)" />
<use xlink:href="#f1_7" transform="matrix(12,0,0,12,389.1,992.1)" />
<use xlink:href="#f1_7" transform="matrix(12,0,0,12,393.2,992.1)" />
<use xlink:href="#f1_n" transform="matrix(12,0,0,12,397.3,992.1)" />
<use xlink:href="#f1_l" transform="matrix(12,0,0,12,404.7,992.1)" />
<use xlink:href="#f1_8" transform="matrix(12,0,0,12,416.1,992.1)" />
<use xlink:href="#f1_3" transform="matrix(12,0,0,12,435.8,992.1)" />
<use xlink:href="#f1_i" transform="matrix(12,0,0,12,446.2,992.1)" />
<use xlink:href="#f1_9" transform="matrix(12,0,0,12,455.8,992.1)" />
<use xlink:href="#f1_s" transform="matrix(12,0,0,12,474.7,992.1)" />
<use xlink:href="#f1_6" transform="matrix(12,0,0,12,480.5,992.1)" />
<use xlink:href="#f1_7" transform="matrix(12,0,0,12,492.7,992.1)" />
<use xlink:href="#f1_3" transform="matrix(12,0,0,12,496.8,992.1)" />
<use xlink:href="#f1_c" transform="matrix(12,0,0,12,507.2,992.1)" />
<use xlink:href="#f1_e" transform="matrix(12,0,0,12,512.3,992.1)" />
<use xlink:href="#f1_g" transform="matrix(12,0,0,12,524.3,992.1)" />
<use xlink:href="#f1_9" transform="matrix(12,0,0,12,536.2,992.1)" />
<use xlink:href="#f1_s" transform="matrix(12,0,0,12,555.3,992.1)" />
<use xlink:href="#f1_6" transform="matrix(12,0,0,12,561.1,992.1)" />
<use xlink:href="#f1_7" transform="matrix(12,0,0,12,573.3,992.1)" />
<use xlink:href="#f1_f" transform="matrix(12,0,0,12,577.4,992.1)" />
<use xlink:href="#f1_3" transform="matrix(12,0,0,12,587.9,992.1)" />
<use xlink:href="#f1_i" transform="matrix(12,0,0,12,598.3,992.1)" />
<use xlink:href="#f1_9" transform="matrix(12,0,0,12,608,992.1)" />
<use xlink:href="#f1_s" transform="matrix(12,0,0,12,627,992.1)" />
<use xlink:href="#f1_6" transform="matrix(12,0,0,12,632.8,992.1)" />
<use xlink:href="#f1_7" transform="matrix(12,0,0,12,644.9,992.1)" />
<use xlink:href="#f1_n" transform="matrix(12,0,0,12,649,992.1)" />
<use xlink:href="#f1_7" transform="matrix(12,0,0,12,656.3,992.1)" />
<use xlink:href="#f1_7" transform="matrix(12,0,0,12,660.5,992.1)" />
<use xlink:href="#f1_n" transform="matrix(12,0,0,12,664.6,992.1)" />
<use xlink:href="#f1_l" transform="matrix(12,0,0,12,671.9,992.1)" />
<use xlink:href="#f1_8" transform="matrix(12,0,0,12,683.4,992.1)" />
<use xlink:href="#f1_6" transform="matrix(12,0,0,12,702.9,992.1)" />
<use xlink:href="#f1_7" transform="matrix(12,0,0,12,715.1,992.1)" />
<use xlink:href="#f1_f" transform="matrix(12,0,0,12,719.2,992.1)" />
<use xlink:href="#f1_n" transform="matrix(12,0,0,12,729.7,992.1)" />
<use xlink:href="#f1_a" transform="matrix(12,0,0,12,737.1,992.1)" />
<use xlink:href="#f1_d" transform="matrix(12,0,0,12,747.4,992.1)" />
<use xlink:href="#f1_9" transform="matrix(12,0,0,12,759.7,992.1)" />
<use xlink:href="#f1_e" transform="matrix(12,0,0,12,138.1,1013.5)" />
<use xlink:href="#f1_d" transform="matrix(12,0,0,12,150.2,1013.5)" />
<use xlink:href="#f1_2" transform="matrix(12,0,0,12,170.3,1013.5)" />
<use xlink:href="#f1_4" transform="matrix(12,0,0,12,180.1,1013.5)" />
<use xlink:href="#f1_c" transform="matrix(12,0,0,12,193,1013.5)" />
<use xlink:href="#f1_n" transform="matrix(12,0,0,12,198.1,1013.5)" />
<use xlink:href="#f1_d" transform="matrix(12,0,0,12,213.4,1013.5)" />
<use xlink:href="#f1_3" transform="matrix(12,0,0,12,225.7,1013.5)" />
<use xlink:href="#f1_6" transform="matrix(12,0,0,12,244,1013.5)" />
<use xlink:href="#f1_3" transform="matrix(12,0,0,12,256.2,1013.5)" />
<use xlink:href="#f1_c" transform="matrix(12,0,0,12,266.6,1013.5)" />
<use xlink:href="#f1_l" transform="matrix(12,0,0,12,271.6,1013.5)" />
<use xlink:href="#f1_3" transform="matrix(12,0,0,12,283.1,1013.5)" />
<use xlink:href="#f1_f" transform="matrix(12,0,0,12,301.5,1013.5)" />
<use xlink:href="#f1_3" transform="matrix(12,0,0,12,312,1013.5)" />
<use xlink:href="#f1_i" transform="matrix(12,0,0,12,322.4,1013.5)" />
<use xlink:href="#f1_9" transform="matrix(12,0,0,12,332.1,1013.5)" />
<use xlink:href="#f1_c" transform="matrix(12,0,0,12,344,1013.5)" />
<use xlink:href="#f1_s" transform="matrix(12,0,0,12,357.1,1013.5)" />
<use xlink:href="#f1_f" transform="matrix(12,0,0,12,363,1013.5)" />
<use xlink:href="#f1_3" transform="matrix(12,0,0,12,373.5,1013.5)" />
<use xlink:href="#f1_i" transform="matrix(12,0,0,12,383.9,1013.5)" />
<use xlink:href="#f1_9" transform="matrix(12,0,0,12,393.6,1013.5)" />
<use xlink:href="#f1_6" transform="matrix(12,0,0,12,413.4,1013.5)" />
<use xlink:href="#f1_l" transform="matrix(12,0,0,12,425.4,1013.5)" />
<use xlink:href="#f1_p" transform="matrix(12,0,0,12,445,1013.5)" />
<use xlink:href="#f1_g" transform="matrix(12,0,0,12,458,1013.5)" />
<use xlink:href="#f1_4" transform="matrix(12,0,0,12,469.9,1013.5)" />
<use xlink:href="#f1_3" transform="matrix(12,0,0,12,482.9,1013.5)" />
<use xlink:href="#f1_2" transform="matrix(12,0,0,12,501.3,1013.5)" />
<use xlink:href="#f1_7" transform="matrix(12,0,0,12,511.1,1013.5)" />
<use xlink:href="#f1_d" transform="matrix(12,0,0,12,515.2,1013.5)" />
<use xlink:href="#f1_l" transform="matrix(12,0,0,12,535.3,1013.5)" />
<use xlink:href="#f1_q" transform="matrix(12,0,0,12,546.8,1013.5)" />
<use xlink:href="#f1_c" transform="matrix(12,0,0,12,556.8,1013.5)" />
<use xlink:href="#f1_7" transform="matrix(12,0,0,12,561.7,1013.5)" />
<use xlink:href="#f1_d" transform="matrix(12,0,0,12,573.9,1013.5)" />
<use xlink:href="#f1_c" transform="matrix(12,0,0,12,586.1,1013.5)" />
<use xlink:href="#f1_9" transform="matrix(12,0,0,12,591.1,1013.5)" />
<use xlink:href="#f1_j" transform="matrix(12,0,0,12,611.1,1013.5)" />
<use xlink:href="#f1_e" transform="matrix(12,0,0,12,616.9,1013.5)" />
<use xlink:href="#f1_7" transform="matrix(12,0,0,12,629,1013.5)" />
<use xlink:href="#f1_f" transform="matrix(12,0,0,12,633.1,1013.5)" />
<use xlink:href="#f1_9" transform="matrix(12,0,0,12,643.6,1013.5)" />
<use xlink:href="#f1_3" transform="matrix(12,0,0,12,663.4,1013.5)" />
<use xlink:href="#f1_4" transform="matrix(12,0,0,12,673.8,1013.5)" />
<use xlink:href="#f1_e" transform="matrix(12,0,0,12,694.7,1013.5)" />
<use xlink:href="#f1_c" transform="matrix(12,0,0,12,706.8,1013.5)" />
<use xlink:href="#f1_7" transform="matrix(12,0,0,12,711.8,1013.5)" />
<use xlink:href="#f1_g" transform="matrix(12,0,0,12,715.9,1013.5)" />
<use xlink:href="#f1_9" transform="matrix(12,0,0,12,727.8,1013.5)" />
<use xlink:href="#f1_6" transform="matrix(12,0,0,12,747.6,1013.5)" />
<use xlink:href="#f1_l" transform="matrix(12,0,0,12,759.8,1013.5)" />
<use xlink:href="#f1_j" transform="matrix(12,0,0,12,710.9,1034.9)" />
<use xlink:href="#f1_w" transform="matrix(12,0,0,12,716.7,1034.9)" />
<use xlink:href="#f1_a" transform="matrix(12,0,0,12,728.6,1034.9)" />
<use xlink:href="#f1_f" transform="matrix(12,0,0,12,739,1034.9)" />
<use xlink:href="#f1_3" transform="matrix(12,0,0,12,749.5,1034.9)" />
<use xlink:href="#f1_d" transform="matrix(12,0,0,12,759.9,1034.9)" />
</g>
<g fill="#0000FF" >
<use xlink:href="#f1_p" transform="matrix(12,0,0,12,669.9,1075.7)" />
<use xlink:href="#f1_a" transform="matrix(12,0,0,12,682.9,1075.7)" />
<use xlink:href="#f1_m" transform="matrix(12,0,0,12,693.1,1075.7)" />
<use xlink:href="#f1_3" transform="matrix(12,0,0,12,704.6,1075.7)" />
<use xlink:href="#f1_9" transform="matrix(12,0,0,12,720.9,1075.7)" />
<use xlink:href="#f1_a" transform="matrix(12,0,0,12,732.8,1075.7)" />
<use xlink:href="#f1_o" transform="matrix(12,0,0,12,743.2,1075.7)" />
<use xlink:href="#f1_g" transform="matrix(12,0,0,12,749.6,1075.7)" />
<use xlink:href="#f1_f" transform="matrix(12,0,0,12,761.5,1075.7)" />
</g>
</g>
<path d="M669.8,1077.5H772.1" class="g2_20" />
<g clip-path="url(#c0_20)">
<g fill="#000000" >
<use xlink:href="#f2_n" transform="matrix(12,0,0,12,723.8,1135.8)" />
<use xlink:href="#f2_d" transform="matrix(12,0,0,12,735,1135.8)" />
<use xlink:href="#f2_o" transform="matrix(12,0,0,12,740.3,1135.8)" />
<use xlink:href="#f2_4" transform="matrix(12,0,0,12,748.6,1135.8)" />
<use xlink:href="#f2_p" transform="matrix(12,0,0,12,759.6,1135.8)" />
<use xlink:href="#f2_q" transform="matrix(12,0,0,12,691.8,1135.8)" />
<use xlink:href="#f2_r" transform="matrix(12,0,0,12,704.5,1135.8)" />
</g>
</g>
<path d="M128.6,1140.4H780.8m-652.2,22.2H780.8M128.9,1140v22.9M494.5,1140v22.9M780.4,1140v22.9" class="g1_20" />
<g clip-path="url(#c0_20)">
<g fill="#000000" >
<use xlink:href="#f1_j" transform="matrix(12,0,0,12,530.1,1157.9)" />
<use xlink:href="#f1_a" transform="matrix(12,0,0,12,536,1157.9)" />
<use xlink:href="#f1_c" transform="matrix(12,0,0,12,546.3,1157.9)" />
<use xlink:href="#f1_q" transform="matrix(12,0,0,12,551.2,1157.9)" />
<use xlink:href="#f1_c" transform="matrix(12,0,0,12,561.3,1157.9)" />
<use xlink:href="#f1_c" transform="matrix(12,0,0,12,566.3,1157.9)" />
<use xlink:href="#f1_p" transform="matrix(12,0,0,12,571.3,1157.9)" />
<use xlink:href="#f1_d" transform="matrix(12,0,0,12,584.3,1157.9)" />
<use xlink:href="#f1_3" transform="matrix(12,0,0,12,596.5,1157.9)" />
<use xlink:href="#f1_l" transform="matrix(12,0,0,12,612.7,1157.9)" />
<use xlink:href="#f1_t" transform="matrix(12,0,0,12,624.2,1157.9)" />
<use xlink:href="#f1_c" transform="matrix(12,0,0,12,636.1,1157.9)" />
<use xlink:href="#f1_n" transform="matrix(12,0,0,12,641.1,1157.9)" />
<use xlink:href="#f1_7" transform="matrix(12,0,0,12,654.3,1157.9)" />
<use xlink:href="#f1_n" transform="matrix(12,0,0,12,658.4,1157.9)" />
<use xlink:href="#f1_d" transform="matrix(12,0,0,12,665.7,1157.9)" />
<use xlink:href="#f1_4" transform="matrix(12,0,0,12,677.9,1157.9)" />
<use xlink:href="#f1_i" transform="matrix(12,0,0,12,690.9,1157.9)" />
<use xlink:href="#f1_a" transform="matrix(12,0,0,12,706.5,1157.9)" />
<use xlink:href="#f1_9" transform="matrix(12,0,0,12,716.9,1157.9)" />
<use xlink:href="#f1_o" transform="matrix(12,0,0,12,728.8,1157.9)" />
<use xlink:href="#f1_n" transform="matrix(12,0,0,12,735.1,1157.9)" />
<use xlink:href="#f1_7" transform="matrix(12,0,0,12,748.3,1157.9)" />
<use xlink:href="#f1_n" transform="matrix(12,0,0,12,752.4,1157.9)" />
<use xlink:href="#f1_d" transform="matrix(12,0,0,12,759.8,1157.9)" />
<use xlink:href="#f0_1l" transform="matrix(11,0,0,11,137.7,1156.5)" />
<use xlink:href="#f0_2" transform="matrix(11,0,0,11,147.9,1156.5)" />
<use xlink:href="#f0_a" transform="matrix(11,0,0,11,155.3,1156.5)" />
<use xlink:href="#f0_w" transform="matrix(11,0,0,11,163.8,1156.5)" />
<use xlink:href="#f0_8" transform="matrix(11,0,0,11,172.2,1156.5)" />
<use xlink:href="#f0_5" transform="matrix(11,0,0,11,184.8,1156.5)" />
<use xlink:href="#f0_f" transform="matrix(11,0,0,11,192.3,1156.5)" />
<use xlink:href="#f0_4" transform="matrix(11,0,0,11,200.5,1156.5)" />
<use xlink:href="#f0_e" transform="matrix(11,0,0,11,205.3,1156.5)" />
<use xlink:href="#f0_m" transform="matrix(11,0,0,11,213.7,1156.5)" />
<use xlink:href="#f0_e" transform="matrix(11,0,0,11,221.1,1156.5)" />
<use xlink:href="#f0_8" transform="matrix(11,0,0,11,229.5,1156.5)" />
<use xlink:href="#f0_5" transform="matrix(11,0,0,11,242.2,1156.5)" />
<use xlink:href="#f0_f" transform="matrix(11,0,0,11,249.5,1156.5)" />
<use xlink:href="#f0_m" transform="matrix(11,0,0,11,257.9,1156.5)" />
<use xlink:href="#f0_a" transform="matrix(11,0,0,11,265.4,1156.5)" />
<use xlink:href="#f0_e" transform="matrix(11,0,0,11,273.8,1156.5)" />
<use xlink:href="#f0_8" transform="matrix(11,0,0,11,282.2,1156.5)" />
<use xlink:href="#f0_s" transform="matrix(11,0,0,11,294.9,1156.5)" />
<use xlink:href="#f0_4" transform="matrix(11,0,0,11,303.1,1156.5)" />
<use xlink:href="#f0_m" transform="matrix(11,0,0,11,307.8,1156.5)" />
<use xlink:href="#f0_1b" transform="matrix(11,0,0,11,315.3,1156.5)" />
<use xlink:href="#f0_8" transform="matrix(11,0,0,11,320,1156.5)" />
<use xlink:href="#f0_m" transform="matrix(11,0,0,11,332.5,1156.5)" />
<use xlink:href="#f0_d" transform="matrix(11,0,0,11,344.3,1156.5)" />
<use xlink:href="#f0_5" transform="matrix(11,0,0,11,354.5,1156.5)" />
<use xlink:href="#f0_f" transform="matrix(11,0,0,11,362,1156.5)" />
<use xlink:href="#f0_m" transform="matrix(11,0,0,11,370.2,1156.5)" />
<use xlink:href="#f0_e" transform="matrix(11,0,0,11,377.7,1156.5)" />
<use xlink:href="#f0_8" transform="matrix(11,0,0,11,386.1,1156.5)" />
<use xlink:href="#f0_3" transform="matrix(11,0,0,11,394.5,1156.5)" />
<use xlink:href="#f0_o" transform="matrix(11,0,0,11,400.1,1156.5)" />
</g>
</g>
<image preserveAspectRatio="none" x="137" y="927" width="61" height="62" xlink:href="img/1.png" />
<defs>
<path d="M399,-14c0,0,-341,0,-341,370c0,0,0,175,87,269c0,0,87,95,249,95c0,0,101,0,220,-23V501H573L541,625c0,0,-62,35,-149,35c0,0,-200,0,-200,-304c0,0,0,-158,61,-225c0,0,61,-67,189,-67c0,0,109,0,189,24V43C631,43,595,16,530,1c0,0,-64,-15,-131,-15Z" 
id="f0_5"
transform="scale(0.001,-0.001)" />

<path d="M377,45c0,0,99,0,147,73c0,0,47,73,47,237c0,0,0,161,-47,233c0,0,-47,72,-147,72c0,0,-97,0,-141,-69c0,0,-44,-69,-44,-236c0,0,0,-169,45,-240c0,0,44,-70,140,-70Zm0,-59c0,0,-158,0,-238,94c0,0,-81,95,-81,274c0,0,0,178,81,272c0,0,80,94,244,94c0,0,160,0,241,-92c0,0,82,-92,82,-274c0,0,0,-368,-329,-368Z" 
id="f0_8"
transform="scale(0.001,-0.001)" />

<path d="M439,0V33l93,19V500c0,0,0,62,-30,97c0,0,-31,36,-94,36c0,0,-67,0,-165,-22V52L338,33V0H35V33l84,19V649L35,668v33H235l7,-57c0,0,57,33,122,54c0,0,65,22,108,22c0,0,91,0,137,-53c0,0,47,-53,47,-154V52L741,33V0Z" 
id="f0_a"
transform="scale(0.001,-0.001)" />

<path d="M278,-14c0,0,-52,0,-115,11c0,0,-63,10,-99,23V193H98L134,95c0,0,56,-50,146,-50c0,0,144,0,144,123c0,0,0,91,-114,130l-66,21c0,0,-75,25,-110,50c0,0,-34,26,-53,63c0,0,-18,36,-18,89c0,0,0,92,63,145c0,0,63,54,170,54c0,0,77,0,193,-23V544H454l-32,81c0,0,-39,35,-124,35c0,0,-61,0,-92,-30c0,0,-32,-30,-32,-80c0,0,0,-43,29,-72c0,0,28,-29,86,-48c0,0,110,-38,144,-55c0,0,33,-17,57,-42c0,0,23,-25,36,-57c0,0,13,-32,13,-79c0,0,0,-104,-66,-158c0,0,-66,-53,-195,-53Z" 
id="f0_g"
transform="scale(0.001,-0.001)" />

<path d="M495,413c0,0,0,133,-34,190c0,0,-34,57,-105,57c0,0,-78,0,-119,-63c0,0,-42,-62,-42,-184ZM374,-14c0,0,-163,0,-239,87c0,0,-75,88,-75,283c0,0,0,183,77,273c0,0,76,91,219,91c0,0,269,0,269,-306V353H194V340c0,0,0,-103,23,-160c0,0,22,-57,70,-87c0,0,47,-29,124,-29c0,0,40,0,96,6c0,0,55,7,91,15V43C598,43,562,20,500,3c0,0,-61,-17,-126,-17Z" 
id="f0_2"
transform="scale(0.001,-0.001)" />

<path d="M359,-270c0,0,124,0,192,46c0,0,67,47,67,129c0,0,0,43,-26,67c0,0,-26,24,-79,24H242c0,0,-32,-27,-51,-69c0,0,-20,-41,-20,-77c0,0,0,-64,46,-92c0,0,46,-28,142,-28Zm11,561c0,0,81,0,115,47c0,0,34,47,34,141c0,0,0,100,-35,142c0,0,-35,42,-113,42c0,0,-78,0,-114,-43c0,0,-37,-42,-37,-141c0,0,0,-98,36,-143c0,0,36,-45,114,-45ZM359,-329c0,0,-143,0,-218,44c0,0,-75,43,-75,125c0,0,0,39,27,78c0,0,26,38,98,89c0,0,-43,14,-72,48c0,0,-29,35,-29,74L208,262c0,0,-118,55,-118,217c0,0,0,115,73,178c0,0,73,63,211,63c0,0,28,0,71,-6c0,0,44,-6,67,-13l165,83l26,-32L599,644c0,0,50,-56,50,-165c0,0,0,-120,-72,-182c0,0,-73,-62,-208,-62c0,0,-62,0,-114,11L208,148c0,0,2,-13,29,-24c0,0,27,-12,67,-12H512c0,0,113,0,168,-49c0,0,55,-49,55,-134c0,0,0,-79,-44,-137c0,0,-43,-58,-128,-90c0,0,-84,-31,-204,-31Z" 
id="f0_w"
transform="scale(0.001,-0.001)" />

<path d="M289,-14c0,0,-179,0,-179,205V649L20,668v33H233V200c0,0,0,-128,120,-128c0,0,92,0,173,23V649L420,668v33H649V52L738,33V0H533l-6,57C527,57,474,28,405,7c0,0,-69,-21,-116,-21Z" 
id="f0_f"
transform="scale(0.001,-0.001)" />

<path d="M32,0V33L151,52V649L52,668v33H275V52L395,33V0ZM201,850c0,0,-32,0,-56,24c0,0,-24,24,-24,56c0,0,0,34,24,58c0,0,24,24,56,24c0,0,34,0,58,-24c0,0,24,-24,24,-58c0,0,0,-32,-24,-56c0,0,-24,-24,-58,-24Z" 
id="f0_4"
transform="scale(0.001,-0.001)" />

<path d="M431,0V33L535,52V499c0,0,0,62,-32,96c0,0,-32,33,-95,33c0,0,-66,0,-163,-22V52L350,33V0H32V33l89,19V649L32,668v33H237l6,-57c0,0,56,32,119,54c0,0,62,22,110,22c0,0,52,0,95,-20c0,0,44,-19,66,-62c0,0,57,32,134,57c0,0,77,25,128,25c0,0,179,0,179,-207V52l90,-19V0H846V33L950,52V499c0,0,0,129,-119,129c0,0,-19,0,-45,-3c0,0,-26,-3,-52,-7c0,0,-25,-4,-49,-8c0,0,-23,-5,-39,-8c0,0,13,-41,13,-89V52L764,33V0Z" 
id="f0_p"
transform="scale(0.001,-0.001)" />

<path d="M382,45c0,0,188,0,188,314c0,0,0,143,-47,213c0,0,-46,69,-141,69c0,0,-87,0,-146,-24V58c0,0,67,-13,146,-13ZM25,-325v35l88,18V649L34,668v33H231l1,-41c0,0,31,27,84,43c0,0,53,17,107,17c0,0,134,0,208,-94c0,0,73,-93,73,-267c0,0,0,-178,-80,-276c0,0,-80,-97,-232,-97c0,0,-84,0,-160,16c0,0,4,-53,4,-84V-272l123,-18v-35Z" 
id="f0_u"
transform="scale(0.001,-0.001)" />

<path d="M31,0V33l88,19V649L31,668v33H235l7,-87c0,0,44,37,121,71c0,0,76,35,121,35h11V530H463l-43,82c0,0,-37,0,-88,-10c0,0,-52,-10,-89,-26V52L363,33V0Z" 
id="f0_3"
transform="scale(0.001,-0.001)" />

<path d="M249,-14c0,0,-71,0,-107,42c0,0,-35,42,-35,119V639H15v33l93,29l76,159h47V701H391V639H231V161c0,0,0,-48,22,-73c0,0,22,-24,57,-24c0,0,44,0,106,12V26C416,26,389,8,340,-2c0,0,-49,-12,-91,-12Z" 
id="f0_h"
transform="scale(0.001,-0.001)" />

<path d="M0,-14L351,1007h73L75,-14Z" 
id="f0_6"
transform="scale(0.001,-0.001)" />

<path d="M284,67c0,0,51,0,88,12c0,0,37,12,74,30V358l-98,-3c0,0,-100,-4,-135,-39c0,0,-35,-35,-35,-117c0,0,0,-132,106,-132ZM233,-14c0,0,-179,0,-179,208c0,0,0,70,27,116c0,0,27,46,87,70c0,0,60,24,173,27l105,3V519c0,0,0,72,-26,107c0,0,-27,34,-82,34c0,0,-75,0,-137,-35L176,538H134V691c0,0,121,26,213,26c0,0,115,0,169,-47c0,0,54,-47,54,-144V52L657,33V0H465L451,70c0,0,-85,-84,-218,-84Z" 
id="f0_m"
transform="scale(0.001,-0.001)" />

<path d="M31,0V33L150,52v956L31,1026v34H274V52L394,33V0Z" 
id="f0_l"
transform="scale(0.001,-0.001)" />

<path d="M557,-14c0,0,-199,0,-298,89c0,0,-99,90,-99,255V941L32,960v40H432V960L304,941V341c0,0,0,-273,264,-273c0,0,144,0,220,68c0,0,77,68,77,202V941L730,960v40h341V960L943,941V344c0,0,0,-180,-99,-269c0,0,-99,-89,-287,-89Z" 
id="f0_n"
transform="scale(0.001,-0.001)" />

<path d="M383,64c0,0,85,0,152,28V645c0,0,-67,13,-152,13c0,0,-194,0,-194,-314c0,0,0,-141,48,-211c0,0,48,-69,146,-69ZM342,-14c0,0,-287,0,-287,358c0,0,0,184,82,280c0,0,81,96,239,96c0,0,81,0,163,-18c0,0,-4,25,-4,124v182l-118,18v34H659V52L745,33V0H548l-9,52c0,0,-84,-66,-197,-66Z" 
id="f0_e"
transform="scale(0.001,-0.001)" />

<path d="M191,-20c0,0,-39,0,-65,25c0,0,-25,27,-25,64c0,0,0,38,26,64c0,0,26,26,64,26c0,0,38,0,64,-26c0,0,26,-26,26,-64c0,0,0,-37,-25,-64c0,0,-26,-25,-65,-25Z" 
id="f0_o"
transform="scale(0.001,-0.001)" />

<path d="M156,-317V454l139,56V-317ZM505,0L806,729H139V835H967V753L650,0Z" 
id="f1_p"
transform="scale(0.001,-0.001)" />

<path d="M585,0V426c0,0,0,54,-8,98c0,0,-8,44,-27,83c0,0,-19,40,-49,66c0,0,-30,26,-77,41c0,0,-47,15,-108,15H66V836H315c0,0,94,0,166,-20c0,0,71,-20,116,-54c0,0,46,-35,75,-88c0,0,28,-52,40,-112c0,0,12,-60,12,-137V0Z" 
id="f1_a"
transform="scale(0.001,-0.001)" />

<path d="M139,0V106H400c0,0,176,0,253,71c0,0,78,72,78,250c0,0,0,163,-80,233c0,0,-81,69,-250,69H278L277,564c0,0,-1,-54,26,-80c0,0,27,-25,82,-25c0,0,30,0,80,9V355c0,0,-61,-12,-111,-12c0,0,-100,0,-157,55c0,0,-58,55,-58,186V836H456c0,0,193,0,303,-109c0,0,110,-109,110,-309c0,0,0,-200,-110,-309C759,109,648,0,456,0Z" 
id="f1_m"
transform="scale(0.001,-0.001)" />

<path d="M287,0L589,729H66v386H205V836l547,-1l-2,-82L433,0Z" 
id="f1_3"
transform="scale(0.001,-0.001)" />

<path d="M154,0V454l138,56V0ZM722,0V454c0,0,0,161,-49,218c0,0,-48,57,-186,57H139V836H485c0,0,207,0,291,-93c0,0,83,-94,83,-318V0Z" 
id="f1_9"
transform="scale(0.001,-0.001)" />

<path d="M152,0V473c0,0,0,94,28,161c0,0,29,66,71,95H66V836H463V729H404c0,0,-65,0,-89,-57c0,0,-25,-58,-25,-199V0Z" 
id="f1_o"
transform="scale(0.001,-0.001)" />

<path d="M139,0V836H485c0,0,206,0,290,-90c0,0,84,-89,84,-294V0H721V473c0,0,0,147,-49,202c0,0,-48,54,-186,54H277V0Z" 
id="f1_g"
transform="scale(0.001,-0.001)" />

<path d="M66,0V107H554V452c0,0,0,56,-4,93c0,0,-4,37,-18,75c0,0,-14,38,-40,60c0,0,-26,22,-71,36c0,0,-45,13,-110,13H66V836H312c0,0,91,0,157,-17c0,0,66,-17,109,-49c0,0,44,-32,69,-84c0,0,26,-52,36,-114c0,0,10,-62,10,-147V107H817V0Z" 
id="f1_f"
transform="scale(0.001,-0.001)" />

<path d="M248,0L521,658H66v429H313V836l493,-1V716L504,0Z" 
id="f2_n"
transform="scale(0.001,-0.001)" />

<path d="M102,250V836H349V351L102,250Z" 
id="f2_d"
transform="scale(0.001,-0.001)" />

<path d="M154,-13c0,0,-38,0,-85,9V198c0,0,58,-15,103,-15c0,0,84,0,118,60c0,0,35,61,35,206c0,0,0,66,-7,105c0,0,-6,39,-24,63c0,0,-17,25,-44,33c0,0,-27,8,-73,8H66V836H225c0,0,198,0,275,-115c0,0,56,-84,65,-264c0,0,3,-55,3,-148c0,0,0,-177,71,-309L393,1c0,0,-53,130,-54,141c0,0,-28,-90,-65,-123c0,0,-38,-32,-120,-32Z" 
id="f2_o"
transform="scale(0.001,-0.001)" />

<path d="M534,0V425c0,0,0,109,-41,171c0,0,-41,62,-140,62H66V836H352c0,0,99,0,174,-20c0,0,75,-20,123,-55c0,0,48,-35,78,-87c0,0,30,-53,42,-113c0,0,12,-60,12,-136V0Z" 
id="f2_4"
transform="scale(0.001,-0.001)" />

<path d="M173,-6C173,-6,61,-6,15,9V177c0,0,73,-10,82,-10c0,0,37,0,52,30c0,0,14,29,14,116V658H18V836H516c0,0,262,0,341,-145c0,0,48,-89,48,-242V0H658V450c0,0,0,131,-37,171c0,0,-34,37,-105,37H411V313c0,0,0,-189,-67,-258C344,55,285,-6,173,-6Z" 
id="f2_p"
transform="scale(0.001,-0.001)" />

<path d="M507,561c0,0,76,0,114,49c0,0,38,49,38,146c0,0,0,97,-38,146c0,0,-38,49,-114,49c0,0,-75,0,-113,-49c0,0,-38,-49,-38,-146c0,0,0,-97,38,-146c0,0,38,-49,113,-49ZM443,-20c0,0,-78,0,-149,11c0,0,-72,10,-140,33V231c0,0,68,-33,131,-49c0,0,62,-16,123,-16c0,0,129,0,200,72c0,0,72,71,84,211c0,0,-50,-37,-108,-56c0,0,-57,-18,-124,-18c0,0,-171,0,-276,99C184,474,79,574,79,736c0,0,0,180,117,288c0,0,117,108,313,108c0,0,217,0,337,-147c0,0,119,-147,119,-415c0,0,0,-276,-139,-434C826,136,686,-20,443,-20Z" 
id="f2_12"
transform="scale(0.001,-0.001)" />

<path d="M522,92c0,0,247,0,247,333c0,0,0,88,-17,146c0,0,-17,58,-53,91c0,0,-35,33,-82,46c0,0,-48,14,-116,14H276V419c0,0,0,-327,246,-327Zm0,-112c0,0,-193,0,-289,109c0,0,-95,110,-95,337V836H501c0,0,213,0,309,-93c0,0,96,-94,96,-317c0,0,0,-227,-95,-337C811,89,715,-20,522,-20Z" 
id="f1_t"
transform="scale(0.001,-0.001)" />

<path d="M139,0V836H278V0Z" 
id="f1_c"
transform="scale(0.001,-0.001)" />

<path d="M112,-5c0,0,-39,0,-97,11V113c0,0,48,-10,77,-10c0,0,53,0,70,42c0,0,17,43,17,164V729H50V836H501c0,0,107,0,179,-25c0,0,72,-25,112,-77c0,0,40,-51,57,-118c0,0,16,-67,16,-164V0H726V454c0,0,0,55,-3,92c0,0,-4,37,-17,75c0,0,-14,38,-38,59c0,0,-24,22,-65,36c0,0,-42,13,-102,13H318V309c0,0,0,-160,-46,-237C272,72,226,-5,112,-5Z" 
id="f1_e"
transform="scale(0.001,-0.001)" />

<path d="M700,-317V454c0,0,0,155,-54,215c0,0,-54,60,-180,60H277V551c0,0,0,-55,26,-80c0,0,27,-26,82,-26c0,0,30,0,80,10V341c0,0,-61,-11,-111,-11c0,0,-100,0,-157,55c0,0,-58,55,-58,186V836H466c0,0,203,0,288,-91c0,0,85,-92,85,-293V-317Z" 
id="f1_z"
transform="scale(0.001,-0.001)" />

<path d="M139,0V138c0,0,0,61,8,112c0,0,7,52,19,87c0,0,11,36,30,66c0,0,19,31,35,49c0,0,17,19,41,35c0,0,25,17,41,25c0,0,17,7,40,17L141,836H303L613,388c0,0,20,10,33,18c0,0,13,8,34,28c0,0,20,20,33,44c0,0,13,25,22,66c0,0,10,41,10,92V836H882V698c0,0,0,-61,-7,-112c0,0,-6,-52,-18,-88c0,0,-12,-36,-30,-66c0,0,-19,-30,-36,-49c0,0,-17,-18,-41,-34c0,0,-24,-17,-40,-25c0,0,-17,-8,-41,-17L882,0H720L409,448c0,0,-21,-11,-34,-19c0,0,-13,-8,-34,-27c0,0,-21,-20,-34,-44c0,0,-12,-25,-22,-66c0,0,-9,-41,-9,-92V0Z" 
id="f1_d"
transform="scale(0.001,-0.001)" />

<path d="M138,-7c0,0,-34,0,-72,10V129c0,0,25,-8,52,-8c0,0,33,0,58,5c0,0,26,5,58,24c0,0,33,20,53,54c0,0,21,34,36,97c0,0,15,64,15,151c0,0,0,113,-19,173c0,0,-19,60,-56,82c0,0,-38,22,-107,22H89V836h72c0,0,165,0,240,-91c0,0,76,-91,76,-293c0,0,0,-107,26,-227c0,0,25,-119,83,-225H437c0,0,-43,101,-62,184c0,0,-24,-60,-51,-99c0,0,-26,-38,-56,-58C268,27,239,7,209,0c0,0,-30,-7,-71,-7Z" 
id="f1_k"
transform="scale(0.001,-0.001)" />

<path d="M102,312V836H241V369L102,312Z" 
id="f1_7"
transform="scale(0.001,-0.001)" />

<path d="M66,0V107H332V555c0,0,0,92,-37,133c0,0,-37,41,-116,41H85V836h94c0,0,153,0,223,-66c0,0,69,-66,69,-231V0Z" 
id="f1_n"
transform="scale(0.001,-0.001)" />

<path d="M0,-141L388,1114H514L127,-141Z" 
id="f1_r"
transform="scale(0.001,-0.001)" />

<path d="M139,-317V836H278V-317Z" 
id="f1_h"
transform="scale(0.001,-0.001)" />

<path d="M66,0V106H322c0,0,75,0,127,23c0,0,53,23,82,67c0,0,29,43,42,98c0,0,13,54,13,124c0,0,0,70,-13,124c0,0,-13,55,-42,98c0,0,-29,44,-82,67c0,0,-52,23,-127,23H66V836H322c0,0,87,0,157,-24c0,0,70,-24,115,-64c0,0,45,-40,74,-94c0,0,30,-55,43,-113c0,0,13,-59,13,-123c0,0,0,-64,-13,-123c0,0,-13,-58,-43,-113c0,0,-29,-54,-74,-94C594,88,549,48,479,24C479,24,409,0,322,0Z" 
id="f1_i"
transform="scale(0.001,-0.001)" />

<path d="M64,-325c0,0,-46,0,-107,14v148H-8l19,-81c0,0,25,-21,62,-21c0,0,44,0,67,47c0,0,22,47,22,152V649L57,668v33H286V-28c0,0,0,-146,-57,-221c0,0,-56,-76,-165,-76ZM213,850c0,0,-34,0,-58,24c0,0,-24,24,-24,56c0,0,0,34,24,58c0,0,24,24,58,24c0,0,32,0,56,-24c0,0,24,-24,24,-58c0,0,0,-32,-24,-56c0,0,-24,-24,-56,-24Z" 
id="f0_1b"
transform="scale(0.001,-0.001)" />

<path d="M148,-329c0,0,-58,0,-114,13v151H69l24,-71c0,0,23,-17,64,-17c0,0,39,0,72,22c0,0,33,23,60,67c0,0,27,44,68,157L90,649L19,668v33H344V668L233,648L423,158L606,649L497,668v33H758V668L685,652L411,-43c0,0,-48,-124,-84,-177c0,0,-36,-54,-79,-82c0,0,-44,-27,-100,-27Z" 
id="f0_7"
transform="scale(0.001,-0.001)" />

<path d="M289,-14c0,0,-179,0,-179,205V649L20,668v33H233V200c0,0,0,-128,120,-128c0,0,92,0,173,23V649L420,668v33H649V52L738,34V0H533l-6,57C527,57,474,28,405,6c0,0,-69,-20,-116,-20Zm24,849v24l147,203H618v-27L354,835Z" 
id="f0_i"
transform="scale(0.001,-0.001)" />

<path d="M495,413c0,0,0,133,-34,190c0,0,-34,57,-105,57c0,0,-78,0,-119,-62c0,0,-42,-63,-42,-185ZM374,-14c0,0,-163,0,-239,87c0,0,-75,88,-75,283c0,0,0,183,77,274c0,0,76,90,219,90c0,0,269,0,269,-306V353H194V339c0,0,0,-103,23,-160c0,0,22,-57,70,-86c0,0,47,-30,124,-30c0,0,40,0,96,6c0,0,55,7,91,15V43C598,43,562,19,500,2c0,0,-61,-16,-126,-16ZM285,835v24l146,203H590v-27L326,835Z" 
id="f0_k"
transform="scale(0.001,-0.001)" />

<path d="M180,0V198H433V918L173,864v196l258,54H705V198H958V0Z" 
id="f2_q"
transform="scale(0.001,-0.001)" />

<path d="M532,174c0,0,92,0,132,87c0,0,39,86,39,297c0,0,0,209,-39,294c0,0,-39,86,-132,86c0,0,-92,0,-132,-86c0,0,-39,-85,-39,-294c0,0,0,-211,39,-297c0,0,40,-87,132,-87Zm0,-194c0,0,-220,0,-339,149C193,129,73,279,73,556c0,0,0,278,120,428c0,0,119,150,339,150c0,0,220,0,339,-150c0,0,119,-150,119,-428c0,0,0,-277,-119,-427C871,129,752,-20,532,-20Z" 
id="f2_14"
transform="scale(0.001,-0.001)" />

<path d="M736,107V473c0,0,0,147,-48,202c0,0,-49,54,-187,54H278V107ZM139,0V836H499c0,0,105,0,177,-22c0,0,72,-21,116,-69c0,0,44,-49,64,-119c0,0,19,-71,19,-174V0Z" 
id="f1_6"
transform="scale(0.001,-0.001)" />

<path d="M71,-141V-15L289,62L66,836H210L416,109c0,0,99,42,153,98c0,0,53,56,80,155c0,0,26,98,26,262V836H817V624c0,0,0,-88,-7,-154c0,0,-7,-67,-25,-132c0,0,-18,-66,-51,-116c0,0,-33,-51,-84,-98c0,0,-50,-48,-123,-87c0,0,-72,-39,-169,-74L71,-141Z" 
id="f1_l"
transform="scale(0.001,-0.001)" />

<path d="M442,0V33l93,19V504c0,0,0,129,-124,129c0,0,-70,0,-168,-22V52L338,33V0H31V33l88,19v956L15,1026v34H243V756c0,0,0,-77,-5,-112c0,0,54,31,122,53c0,0,68,23,115,23c0,0,91,0,137,-53c0,0,47,-53,47,-154V52L744,33V0Z" 
id="f0_x"
transform="scale(0.001,-0.001)" />

<path d="M347,-317V284c0,0,0,59,-21,123c0,0,-21,64,-44,103c0,0,-23,40,-59,94L66,838H218L336,668c0,0,76,-109,120,-223c0,0,87,34,126,107c0,0,39,73,39,186v98H758V737c0,0,0,-82,-23,-152c0,0,-23,-69,-61,-116c0,0,-39,-47,-87,-78c0,0,-47,-31,-101,-45V-317Z" 
id="f1_1e"
transform="scale(0.001,-0.001)" />

<path d="M376,50c0,0,103,0,149,80c0,0,46,81,46,240c0,0,0,137,-47,204c0,0,-48,67,-148,67c0,0,-44,0,-87,-7c0,0,-44,-8,-63,-17V62c0,0,63,-12,150,-12Zm3,-64c0,0,-64,0,-141,14c0,0,-78,14,-136,37v971L0,1026v34H226V809c0,0,0,-40,-4,-148c0,0,74,59,188,59c0,0,143,0,219,-87c0,0,77,-87,77,-263c0,0,0,-189,-84,-287c0,0,-84,-97,-243,-97Z" 
id="f0_v"
transform="scale(0.001,-0.001)" />

<path d="M360,-14L72,649L0,668v33H327V668L216,648L420,164L615,649L504,668v33H764V668L697,652L416,-14Z" 
id="f0_s"
transform="scale(0.001,-0.001)" />

<path d="M180,0L66,836H203L258,443c0,0,36,1,64,6c0,0,28,6,49,18c0,0,20,12,35,26c0,0,15,13,26,36c0,0,11,24,17,44c0,0,7,20,12,55c0,0,6,34,9,60c0,0,3,26,8,71c0,0,4,45,9,77H610c0,0,-13,-194,-31,-271c0,0,-31,-127,-111,-179c0,0,-71,-45,-196,-50L304,107c0,0,73,0,130,5c0,0,56,6,111,21c0,0,54,15,94,40c0,0,40,25,77,64c0,0,37,39,63,94c0,0,25,54,46,128c0,0,21,73,34,166c0,0,13,94,20,211h138c0,0,-14,-124,-29,-218c0,0,-16,-94,-39,-179c0,0,-22,-85,-50,-146c0,0,-28,-61,-68,-112c0,0,-39,-51,-87,-84C744,97,696,65,632,42C632,42,568,19,492,10C492,10,417,0,320,0Z" 
id="f1_4"
transform="scale(0.001,-0.001)" />

<path d="M495,0V729H66V836H781V729H634V0Z" 
id="f1_q"
transform="scale(0.001,-0.001)" />

<path d="M639,416L478,858L313,416ZM647,0V54L762,74L667,333H283L191,74L319,54V0H15V54L90,74l355,935H662L1016,74l76,-20V0Z" 
id="f3_1f"
transform="scale(0.001,-0.001)" />

<path d="M30,0V49l76,18V992l-72,18v50H322V67L398,49V0Z" 
id="f3_13"
transform="scale(0.001,-0.001)" />

<path d="M424,64c0,0,74,0,109,71c0,0,36,72,36,236c0,0,0,137,-34,201c0,0,-34,65,-111,65c0,0,-29,0,-62,-7c0,0,-34,-6,-55,-19V76c0,0,47,-12,117,-12Zm21,-78c0,0,-121,0,-354,50V994l-72,18v48H307V802c0,0,0,-69,-8,-141c0,0,30,25,86,42c0,0,57,17,110,17c0,0,153,0,223,-84c0,0,70,-83,70,-266c0,0,0,-180,-90,-283C698,87,608,-14,445,-14Z" 
id="f3_10"
transform="scale(0.001,-0.001)" />

<path d="M434,423c0,0,0,101,-7,142c0,0,-6,40,-22,60c0,0,-16,19,-45,19c0,0,-44,0,-66,-48c0,0,-22,-49,-22,-173ZM389,-14c0,0,-172,0,-254,89c0,0,-83,90,-83,279c0,0,0,184,79,274c0,0,79,91,238,91c0,0,142,0,206,-76c0,0,64,-76,64,-237V345H271V333c0,0,0,-111,18,-158c0,0,18,-47,58,-72c0,0,40,-25,110,-25c0,0,66,0,166,22V42C623,42,582,18,517,1c0,0,-66,-15,-128,-15Z" 
id="f3_p"
transform="scale(0.001,-0.001)" />

<path d="M41,0V49l91,18V634L41,652v49H336l8,-145c0,0,80,89,144,128c0,0,64,40,117,40h40V468H604l-45,94c0,0,-47,0,-106,-21c0,0,-60,-20,-105,-48V67L460,49V0Z" 
id="f3_o"
transform="scale(0.001,-0.001)" />

<path d="M327,-14c0,0,-101,0,-156,45c0,0,-55,45,-55,131V624H25v48l108,29l87,159H332V701H480V624H332V176c0,0,0,-49,20,-73c0,0,20,-25,53,-25c0,0,40,0,97,12V26c0,0,-22,-15,-76,-27c0,0,-55,-13,-99,-13Z" 
id="f3_s"
transform="scale(0.001,-0.001)" />

<path d="M159,-329c0,0,-61,0,-123,14v180H81l32,-94c0,0,21,-17,55,-17c0,0,28,0,50,13c0,0,21,14,40,39c0,0,20,25,37,62c0,0,17,37,50,110L64,634L15,652v49H374V652L290,632L455,244L602,634l-82,18v49H749V652L698,637L421,-44c0,0,-47,-121,-83,-176c0,0,-36,-55,-80,-82c0,0,-43,-27,-99,-27Z" 
id="f3_j"
transform="scale(0.001,-0.001)" />

<path d="M452,474c0,0,104,0,151,52c0,0,47,53,47,178c0,0,0,119,-45,167c0,0,-44,47,-156,47H390V474ZM36,0V54L154,74V926L26,945v55H467c0,0,213,0,318,-71c0,0,105,-71,105,-224c0,0,0,-313,-366,-313H390V74L557,54V0Z" 
id="f3_1g"
transform="scale(0.001,-0.001)" />

<path d="M379,60c0,0,59,0,84,64c0,0,24,65,24,231c0,0,0,164,-24,227c0,0,-24,63,-84,63c0,0,-57,0,-80,-60c0,0,-22,-61,-22,-230c0,0,0,-173,23,-234c0,0,22,-61,79,-61Zm-2,-74c0,0,-161,0,-240,91c0,0,-79,91,-79,277c0,0,0,186,80,276c0,0,81,90,245,90c0,0,167,0,245,-93c0,0,78,-93,78,-273c0,0,0,-188,-81,-278c0,0,-81,-90,-248,-90Z" 
id="f3_k"
transform="scale(0.001,-0.001)" />

<path d="M163,0V190H321V0Z" 
id="f1_j"
transform="scale(0.001,-0.001)" />

<path d="M117,-176L179,62V190H336V62L213,-176Z" 
id="f1_s"
transform="scale(0.001,-0.001)" />

<path d="M114,0l60,312c0,0,2,12,8,39c0,0,6,27,7,37c0,0,2,11,5,30c0,0,2,19,4,33c0,0,1,15,1,31c0,0,0,48,-35,146c0,0,-35,98,-98,208H228c0,0,3,-8,27,-67c0,0,25,-58,41,-117c0,0,21,53,50,90c0,0,29,37,57,57c0,0,29,21,65,32c0,0,37,11,65,14c0,0,28,3,67,3c0,0,300,0,300,-396V0H480V106H761V452c0,0,0,146,-46,215c0,0,-45,70,-118,70c0,0,-134,0,-198,-119c0,0,-36,-68,-67,-222c0,0,-2,-10,-6,-27L253,0Z" 
id="f1_8"
transform="scale(0.001,-0.001)" />

<path d="M522,-20c0,0,-196,0,-290,99c0,0,-94,100,-94,324V836H276V397c0,0,0,-86,16,-147c0,0,17,-60,50,-94c0,0,34,-34,77,-49c0,0,43,-15,103,-15c0,0,59,0,102,15c0,0,44,15,77,49c0,0,33,34,50,94c0,0,17,61,17,147c0,0,0,84,-8,143c0,0,-7,58,-25,105c0,0,-17,47,-51,69c0,0,-33,23,-83,23c0,0,-50,0,-119,-22V821c0,0,85,23,150,23c0,0,76,0,130,-30c0,0,53,-31,85,-90c0,0,31,-59,45,-138c0,0,13,-78,13,-183c0,0,0,-224,-93,-324c0,0,-94,-99,-290,-99Z" 
id="f1_w"
transform="scale(0.001,-0.001)" />

<path d="M543,-317V369c0,0,0,85,-8,143c0,0,-8,58,-27,101c0,0,-18,44,-51,69c0,0,-33,24,-80,36c0,0,-48,11,-117,11H66V836H257c0,0,125,0,205,-23c0,0,80,-23,130,-79c0,0,50,-56,70,-143c0,0,20,-86,20,-222V-317Z" 
id="f1_2"
transform="scale(0.001,-0.001)" />

<path d="M121,0V211L528,570c0,0,54,50,80,96c0,0,27,47,27,98c0,0,0,78,-53,126c0,0,-53,48,-140,48c0,0,-67,0,-147,-29c0,0,-80,-28,-171,-85v245c0,0,97,32,192,48c0,0,95,17,186,17c0,0,199,0,310,-88c0,0,111,-88,111,-245c0,0,0,-91,-47,-170c0,0,-47,-79,-197,-211L441,211H931V0Z" 
id="f2_r"
transform="scale(0.001,-0.001)" />

<path d="M235,0V40L394,60V936H356c0,0,-189,0,-258,-15L78,766H28v234H908V766H857L837,921c0,0,-22,5,-98,9c0,0,-75,4,-165,4H538V60L697,40V0Z" 
id="f0_1l"
transform="scale(0.001,-0.001)" />

<path d="M44,0V40L172,60V941L44,960v40H794V760H745L721,922c0,0,-83,11,-241,11H316V543H586l23,119h48V354H609L586,475H316V67H513c0,0,193,0,252,12l43,185h49L843,0Z" 
id="f0_d"
transform="scale(0.001,-0.001)" />


</defs>
</svg>