<?xml version="1.0" encoding="UTF-8" standalone="no"?>
<!DOCTYPE svg PUBLIC "-//W3C//DTD SVG 1.1//EN"
"http://www.w3.org/Graphics/SVG/1.1/DTD/svg11.dtd">
<svg viewBox="0 0 909 1286" version="1.1" xmlns="http://www.w3.org/2000/svg" xmlns:xlink="http://www.w3.org/1999/xlink">
<defs>
<clipPath id="c0_4"><path d="M0,1286.2V0H909.4V1286.2Z" /></clipPath>
<clipPath id="c1_4"><path d="M642.4,420.3V399h.3v21.3Z" /></clipPath>
<style type="text/css"><![CDATA[
.g0_4{
fill: none;
stroke: #000000;
stroke-width: 0.7638889;
stroke-linecap: butt;
stroke-linejoin: round;
}
.g1_4{
fill: none;
stroke: #0000FF;
stroke-width: 1.0694444;
stroke-linecap: butt;
stroke-linejoin: miter;
}
]]></style>
</defs>
<g clip-path="url(#c0_4)">
<g fill="#000000" >
<use xlink:href="#f0_d" transform="matrix(16,0,0,16,717.9,151.3)" />
<use xlink:href="#f0_5" transform="matrix(16,0,0,16,729.8,151.3)" />
<use xlink:href="#f0_9" transform="matrix(16,0,0,16,736.3,151.3)" />
<use xlink:href="#f0_8" transform="matrix(16,0,0,16,744.7,151.3)" />
<use xlink:href="#f0_e" transform="matrix(16,0,0,16,757.1,151.3)" />
<use xlink:href="#f0_l" transform="matrix(16,0,0,16,543.4,151.3)" />
<use xlink:href="#f0_m" transform="matrix(16,0,0,16,562.5,151.3)" />
<use xlink:href="#f0_n" transform="matrix(16,0,0,16,576.5,151.3)" />
<use xlink:href="#f0_l" transform="matrix(16,0,0,16,587.7,151.3)" />
<use xlink:href="#f0_o" transform="matrix(16,0,0,16,600.3,151.3)" />
<use xlink:href="#f0_p" transform="matrix(16,0,0,16,611.4,151.3)" />
<use xlink:href="#f0_k" transform="matrix(16,0,0,16,620,151.3)" />
<use xlink:href="#f0_o" transform="matrix(16,0,0,16,627,151.3)" />
<use xlink:href="#f0_l" transform="matrix(16,0,0,16,638.3,151.3)" />
<use xlink:href="#f0_n" transform="matrix(16,0,0,16,650.8,151.3)" />
<use xlink:href="#f1_a" transform="matrix(12,0,0,12,723.8,192)" />
<use xlink:href="#f1_8" transform="matrix(12,0,0,12,735,192)" />
<use xlink:href="#f1_k" transform="matrix(12,0,0,12,740.3,192)" />
<use xlink:href="#f1_4" transform="matrix(12,0,0,12,748.6,192)" />
<use xlink:href="#f1_h" transform="matrix(12,0,0,12,759.6,192)" />
<use xlink:href="#f1_q" transform="matrix(12,0,0,12,704.6,192)" />
<use xlink:href="#f2_13" transform="matrix(12,0,0,12,467.8,192)" />
<use xlink:href="#f2_l" transform="matrix(12,0,0,12,473.9,192)" />
<use xlink:href="#f2_i" transform="matrix(12,0,0,12,486.1,192)" />
<use xlink:href="#f2_s" transform="matrix(12,0,0,12,490.2,192)" />
<use xlink:href="#f2_f" transform="matrix(12,0,0,12,502.5,192)" />
<use xlink:href="#f2_g" transform="matrix(12,0,0,12,513,192)" />
<use xlink:href="#f2_l" transform="matrix(12,0,0,12,530.7,192)" />
<use xlink:href="#f2_i" transform="matrix(12,0,0,12,542.9,192)" />
<use xlink:href="#f2_d" transform="matrix(12,0,0,12,547,192)" />
<use xlink:href="#f2_m" transform="matrix(12,0,0,12,558.9,192)" />
<use xlink:href="#f2_c" transform="matrix(12,0,0,12,570.4,192)" />
<use xlink:href="#f2_7" transform="matrix(12,0,0,12,583.4,192)" />
<use xlink:href="#f2_g" transform="matrix(12,0,0,12,595.9,192)" />
<use xlink:href="#f2_h" transform="matrix(12,0,0,12,613.6,192)" />
<use xlink:href="#f2_s" transform="matrix(12,0,0,12,625.6,192)" />
<use xlink:href="#f2_l" transform="matrix(12,0,0,12,643.7,192)" />
<use xlink:href="#f2_n" transform="matrix(12,0,0,12,655.9,192)" />
<use xlink:href="#f2_q" transform="matrix(12,0,0,12,663.4,192)" />
<use xlink:href="#f2_h" transform="matrix(12,0,0,12,673.7,192)" />
<use xlink:href="#f2_17" transform="matrix(12,0,0,12,691.6,192)" />
</g>
</g>
<path d="M129.2,237.5h355m-355,22.1h355m-355,54.3h355M129.2,336h355m-355,22.2h355m-355,22.1h355" class="g0_4" />
<g clip-path="url(#c0_4)">
<g fill="#000000" >
<use xlink:href="#f2_8" transform="matrix(12,0,0,12,626.8,232.7)" />
<use xlink:href="#f2_a" transform="matrix(12,0,0,12,632.7,232.7)" />
<use xlink:href="#f2_s" transform="matrix(12,0,0,12,642.6,232.7)" />
<use xlink:href="#f2_7" transform="matrix(12,0,0,12,654.8,232.7)" />
<use xlink:href="#f2_i" transform="matrix(12,0,0,12,673.1,232.7)" />
<use xlink:href="#f2_d" transform="matrix(12,0,0,12,677.2,232.7)" />
<use xlink:href="#f2_m" transform="matrix(12,0,0,12,689.1,232.7)" />
<use xlink:href="#f2_7" transform="matrix(12,0,0,12,700.6,232.7)" />
<use xlink:href="#f2_i" transform="matrix(12,0,0,12,713,232.7)" />
<use xlink:href="#f2_o" transform="matrix(12,0,0,12,717.1,232.7)" />
<use xlink:href="#f2_n" transform="matrix(12,0,0,12,734.9,232.7)" />
<use xlink:href="#f2_i" transform="matrix(12,0,0,12,742.4,232.7)" />
<use xlink:href="#f2_i" transform="matrix(12,0,0,12,746.4,232.7)" />
<use xlink:href="#f2_a" transform="matrix(12,0,0,12,750.5,232.7)" />
<use xlink:href="#f2_g" transform="matrix(12,0,0,12,760.5,232.7)" />
<use xlink:href="#f2_8" transform="matrix(12,0,0,12,608.7,254.8)" />
<use xlink:href="#f2_a" transform="matrix(12,0,0,12,614.5,254.8)" />
<use xlink:href="#f2_s" transform="matrix(12,0,0,12,624.5,254.8)" />
<use xlink:href="#f2_7" transform="matrix(12,0,0,12,636.6,254.8)" />
<use xlink:href="#f2_q" transform="matrix(12,0,0,12,654.9,254.8)" />
<use xlink:href="#f2_e" transform="matrix(12,0,0,12,665.3,254.8)" />
<use xlink:href="#f2_6" transform="matrix(12,0,0,12,676.8,254.8)" />
<use xlink:href="#f2_4" transform="matrix(12,0,0,12,681.8,254.8)" />
<use xlink:href="#f2_7" transform="matrix(12,0,0,12,691.4,254.8)" />
<use xlink:href="#f2_i" transform="matrix(12,0,0,12,709.7,254.8)" />
<use xlink:href="#f2_s" transform="matrix(12,0,0,12,713.8,254.8)" />
<use xlink:href="#f2_9" transform="matrix(12,0,0,12,726.1,254.8)" />
<use xlink:href="#f2_6" transform="matrix(12,0,0,12,733.4,254.8)" />
<use xlink:href="#f2_4" transform="matrix(12,0,0,12,738.4,254.8)" />
<use xlink:href="#f2_7" transform="matrix(12,0,0,12,748,254.8)" />
<use xlink:href="#f2_g" transform="matrix(12,0,0,12,760.5,254.8)" />
<use xlink:href="#f2_l" transform="matrix(12,0,0,12,492.4,277)" />
<use xlink:href="#f2_g" transform="matrix(12,0,0,12,504.6,277)" />
<use xlink:href="#f2_l" transform="matrix(12,0,0,12,528.1,277)" />
<use xlink:href="#f2_i" transform="matrix(12,0,0,12,540.3,277)" />
<use xlink:href="#f2_k" transform="matrix(12,0,0,12,544.4,277)" />
<use xlink:href="#f2_q" transform="matrix(12,0,0,12,556.3,277)" />
<use xlink:href="#f2_m" transform="matrix(12,0,0,12,566.7,277)" />
<use xlink:href="#f2_g" transform="matrix(12,0,0,12,589.8,277)" />
<use xlink:href="#f2_f" transform="matrix(12,0,0,12,601.7,277)" />
<use xlink:href="#f2_q" transform="matrix(12,0,0,12,612.2,277)" />
<use xlink:href="#f2_g" transform="matrix(12,0,0,12,622.6,277)" />
<use xlink:href="#f2_2" transform="matrix(12,0,0,12,646.1,277)" />
<use xlink:href="#f2_l" transform="matrix(12,0,0,12,651.9,277)" />
<use xlink:href="#f2_i" transform="matrix(12,0,0,12,664.1,277)" />
<use xlink:href="#f2_k" transform="matrix(12,0,0,12,668.2,277)" />
<use xlink:href="#f2_q" transform="matrix(12,0,0,12,680.1,277)" />
<use xlink:href="#f2_m" transform="matrix(12,0,0,12,690.5,277)" />
<use xlink:href="#f2_g" transform="matrix(12,0,0,12,701.9,277)" />
<use xlink:href="#f2_h" transform="matrix(12,0,0,12,725.4,277)" />
<use xlink:href="#f2_6" transform="matrix(12,0,0,12,737.5,277)" />
<use xlink:href="#f2_9" transform="matrix(12,0,0,12,742.5,277)" />
<use xlink:href="#f2_k" transform="matrix(12,0,0,12,749.8,277)" />
<use xlink:href="#f2_f" transform="matrix(12,0,0,12,761.7,277)" />
<use xlink:href="#f2_8" transform="matrix(12,0,0,12,723.1,309.1)" />
<use xlink:href="#f2_l" transform="matrix(12,0,0,12,728.9,309.1)" />
<use xlink:href="#f2_i" transform="matrix(12,0,0,12,741.1,309.1)" />
<use xlink:href="#f2_q" transform="matrix(12,0,0,12,745.1,309.1)" />
<use xlink:href="#f2_j" transform="matrix(12,0,0,12,755.5,309.1)" />
<use xlink:href="#f2_i" transform="matrix(12,0,0,12,768.5,309.1)" />
<use xlink:href="#f2_8" transform="matrix(12,0,0,12,584.5,331.2)" />
<use xlink:href="#f2_l" transform="matrix(12,0,0,12,590.3,331.2)" />
<use xlink:href="#f2_i" transform="matrix(12,0,0,12,602.5,331.2)" />
<use xlink:href="#f2_f" transform="matrix(12,0,0,12,606.7,331.2)" />
<use xlink:href="#f2_l" transform="matrix(12,0,0,12,623,331.2)" />
<use xlink:href="#f2_i" transform="matrix(12,0,0,12,635.2,331.2)" />
<use xlink:href="#f2_s" transform="matrix(12,0,0,12,639.3,331.2)" />
<use xlink:href="#f2_r" transform="matrix(12,0,0,12,651.6,331.2)" />
<use xlink:href="#f2_7" transform="matrix(12,0,0,12,662.4,331.2)" />
<use xlink:href="#f2_9" transform="matrix(12,0,0,12,674.8,331.2)" />
<use xlink:href="#f2_l" transform="matrix(12,0,0,12,688.1,331.2)" />
<use xlink:href="#f2_i" transform="matrix(12,0,0,12,700.1,331.2)" />
<use xlink:href="#f2_n" transform="matrix(12,0,0,12,704.2,331.2)" />
<use xlink:href="#f2_a" transform="matrix(12,0,0,12,711.7,331.2)" />
<use xlink:href="#f2_g" transform="matrix(12,0,0,12,727.7,331.2)" />
<use xlink:href="#f2_f" transform="matrix(12,0,0,12,739.6,331.2)" />
<use xlink:href="#f2_q" transform="matrix(12,0,0,12,750.2,331.2)" />
<use xlink:href="#f2_g" transform="matrix(12,0,0,12,760.5,331.2)" />
<use xlink:href="#f2_8" transform="matrix(12,0,0,12,537,353.4)" />
<use xlink:href="#f2_l" transform="matrix(12,0,0,12,542.8,353.4)" />
<use xlink:href="#f2_i" transform="matrix(12,0,0,12,554.9,353.4)" />
<use xlink:href="#f2_c" transform="matrix(12,0,0,12,559,353.4)" />
<use xlink:href="#f2_9" transform="matrix(12,0,0,12,572,353.4)" />
<use xlink:href="#f2_s" transform="matrix(12,0,0,12,579.3,353.4)" />
<use xlink:href="#f2_g" transform="matrix(12,0,0,12,597.6,353.4)" />
<use xlink:href="#f2_f" transform="matrix(12,0,0,12,609.5,353.4)" />
<use xlink:href="#f2_q" transform="matrix(12,0,0,12,620.1,353.4)" />
<use xlink:href="#f2_g" transform="matrix(12,0,0,12,630.4,353.4)" />
<use xlink:href="#f2_b" transform="matrix(12,0,0,12,642.4,353.4)" />
<use xlink:href="#f2_12" transform="matrix(12,0,0,12,658.6,353.4)" />
<use xlink:href="#f2_o" transform="matrix(12,0,0,12,670.3,353.4)" />
<use xlink:href="#f2_4" transform="matrix(12,0,0,12,682.2,353.4)" />
<use xlink:href="#f2_f" transform="matrix(12,0,0,12,697.8,353.4)" />
<use xlink:href="#f2_i" transform="matrix(12,0,0,12,708.3,353.4)" />
<use xlink:href="#f2_i" transform="matrix(12,0,0,12,712.4,353.4)" />
<use xlink:href="#f2_k" transform="matrix(12,0,0,12,716.5,353.4)" />
<use xlink:href="#f2_q" transform="matrix(12,0,0,12,734.3,353.4)" />
<use xlink:href="#f2_m" transform="matrix(12,0,0,12,744.6,353.4)" />
<use xlink:href="#f2_6" transform="matrix(12,0,0,12,756,353.4)" />
<use xlink:href="#f2_e" transform="matrix(12,0,0,12,761,353.4)" />
<use xlink:href="#f2_8" transform="matrix(12,0,0,12,698.8,375.5)" />
<use xlink:href="#f2_a" transform="matrix(12,0,0,12,704.6,375.5)" />
<use xlink:href="#f2_s" transform="matrix(12,0,0,12,714.6,375.5)" />
<use xlink:href="#f2_7" transform="matrix(12,0,0,12,726.8,375.5)" />
<use xlink:href="#f2_f" transform="matrix(12,0,0,12,745.2,375.5)" />
<use xlink:href="#f2_6" transform="matrix(12,0,0,12,755.8,375.5)" />
<use xlink:href="#f2_d" transform="matrix(12,0,0,12,760.7,375.5)" />
</g>
<g fill="#0000FF" >
<use xlink:href="#f2_b" transform="matrix(12,0,0,12,649.3,416)" />
<use xlink:href="#f2_i" transform="matrix(12,0,0,12,660,416)" />
<use xlink:href="#f2_n" transform="matrix(12,0,0,12,664.5,416)" />
<use xlink:href="#f2_q" transform="matrix(12,0,0,12,672.3,416)" />
<use xlink:href="#f2_h" transform="matrix(12,0,0,12,683.1,416)" />
<use xlink:href="#f2_b" transform="matrix(12,0,0,12,695.5,416)" />
<use xlink:href="#f2_h" transform="matrix(12,0,0,12,712.4,416)" />
<use xlink:href="#f2_6" transform="matrix(12,0,0,12,724.9,416)" />
<use xlink:href="#f2_f" transform="matrix(12,0,0,12,730.3,416)" />
<use xlink:href="#f2_6" transform="matrix(12,0,0,12,741.2,416)" />
<use xlink:href="#f2_c" transform="matrix(12,0,0,12,746.6,416)" />
<use xlink:href="#f2_h" transform="matrix(12,0,0,12,759.8,416)" />
</g>
</g>
<path d="M642.9,417.8H772.1" class="g1_4" />
<g clip-path="url(#c1_4)">
<path d="M642.4,417.8h5.8" class="g1_4" />
</g>
<g clip-path="url(#c0_4)">
<g fill="#0000FF" >
<use xlink:href="#f2_1a" transform="matrix(12,0,0,12,630.7,416)" />
</g>
</g>
<path d="M630.7,417.8h11.6" class="g1_4" />
<g clip-path="url(#c0_4)">
<g fill="#000000" >
<use xlink:href="#f0_y" transform="matrix(16,0,0,16,137.3,546.9)" />
<use xlink:href="#f0_t" transform="matrix(16,0,0,16,151.4,546.9)" />
<use xlink:href="#f0_z" transform="matrix(16,0,0,16,163.9,546.9)" />
<use xlink:href="#f0_n" transform="matrix(16,0,0,16,177.9,546.9)" />
<use xlink:href="#f0_j" transform="matrix(16,0,0,16,189,546.9)" />
<use xlink:href="#f0_10" transform="matrix(16,0,0,16,206.7,546.9)" />
<use xlink:href="#f0_l" transform="matrix(16,0,0,16,224.8,546.9)" />
<use xlink:href="#f0_n" transform="matrix(16,0,0,16,237.4,546.9)" />
<use xlink:href="#f0_11" transform="matrix(16,0,0,16,248.5,546.9)" />
<use xlink:href="#f0_t" transform="matrix(16,0,0,16,255.7,546.9)" />
<use xlink:href="#f0_x" transform="matrix(16,0,0,16,268.2,546.9)" />
<use xlink:href="#f0_j" transform="matrix(16,0,0,16,284.7,546.9)" />
<use xlink:href="#f0_11" transform="matrix(16,0,0,16,296,546.9)" />
<use xlink:href="#f0_12" transform="matrix(16,0,0,16,309.6,546.9)" />
<use xlink:href="#f0_j" transform="matrix(16,0,0,16,322.1,546.9)" />
<use xlink:href="#f0_13" transform="matrix(16,0,0,16,333.4,546.9)" />
<use xlink:href="#f0_j" transform="matrix(16,0,0,16,347.3,546.9)" />
<use xlink:href="#f0_n" transform="matrix(16,0,0,16,358.5,546.9)" />
<use xlink:href="#f0_t" transform="matrix(16,0,0,16,369.7,546.9)" />
<use xlink:href="#f0_x" transform="matrix(16,0,0,16,382.3,546.9)" />
<use xlink:href="#f0_t" transform="matrix(16,0,0,16,392.1,546.9)" />
<use xlink:href="#f2_8" transform="matrix(12,0,0,12,536.9,569.3)" />
<use xlink:href="#f2_s" transform="matrix(12,0,0,12,542.7,569.3)" />
<use xlink:href="#f2_f" transform="matrix(12,0,0,12,554.9,569.3)" />
<use xlink:href="#f2_g" transform="matrix(12,0,0,12,565.4,569.3)" />
<use xlink:href="#f2_q" transform="matrix(12,0,0,12,583.2,569.3)" />
<use xlink:href="#f2_6" transform="matrix(12,0,0,12,593.5,569.3)" />
<use xlink:href="#f2_m" transform="matrix(12,0,0,12,598.6,569.3)" />
<use xlink:href="#f2_i" transform="matrix(12,0,0,12,610,569.3)" />
<use xlink:href="#f2_o" transform="matrix(12,0,0,12,614.1,569.3)" />
<use xlink:href="#f2_g" transform="matrix(12,0,0,12,626,569.3)" />
<use xlink:href="#f2_h" transform="matrix(12,0,0,12,643.7,569.3)" />
<use xlink:href="#f2_s" transform="matrix(12,0,0,12,655.8,569.3)" />
<use xlink:href="#f2_s" transform="matrix(12,0,0,12,673.8,569.3)" />
<use xlink:href="#f2_q" transform="matrix(12,0,0,12,686.1,569.3)" />
<use xlink:href="#f2_j" transform="matrix(12,0,0,12,696.4,569.3)" />
</g>
</g>
<path d="M128.6,574.1H780.5M128.6,596.2H780.5M128.9,573.7v22.9M237.4,573.7v22.9M345.9,573.7v22.9M454.5,573.7v22.9M563,573.7v22.9M671.6,573.7v22.9M780.1,573.7v22.9" class="g0_4" />
<g clip-path="url(#c0_4)">
<g fill="#000000" >
<use xlink:href="#f2_g" transform="matrix(12,0,0,12,684.6,591.4)" />
<use xlink:href="#f2_m" transform="matrix(12,0,0,12,696.5,591.4)" />
<use xlink:href="#f2_d" transform="matrix(12,0,0,12,708,591.4)" />
<use xlink:href="#f2_e" transform="matrix(12,0,0,12,719.9,591.4)" />
<use xlink:href="#f2_7" transform="matrix(12,0,0,12,731.3,591.4)" />
<use xlink:href="#f2_11" transform="matrix(12,0,0,12,743.8,591.4)" />
<use xlink:href="#f2_b" transform="matrix(12,0,0,12,749.9,591.4)" />
<use xlink:href="#f2_e" transform="matrix(12,0,0,12,760.3,591.4)" />
<use xlink:href="#f3_6" transform="matrix(11,0,0,11,571.8,590)" />
<use xlink:href="#f3_9" transform="matrix(11,0,0,11,578.4,590)" />
<use xlink:href="#f3_w" transform="matrix(11,0,0,11,586.8,590)" />
<use xlink:href="#f3_8" transform="matrix(11,0,0,11,595.1,590)" />
<use xlink:href="#f3_2" transform="matrix(11,0,0,11,600.7,590)" />
<use xlink:href="#f3_14" transform="matrix(10.5,0,0,10.5,612.5,590)" />
<use xlink:href="#f3_r" transform="matrix(10.5,0,0,10.5,617.7,590)" />
<use xlink:href="#f3_15" transform="matrix(10.5,0,0,10.5,630.2,590)" />
<use xlink:href="#f2_g" transform="matrix(12,0,0,12,513.9,591.4)" />
<use xlink:href="#f2_11" transform="matrix(12,0,0,12,525.9,591.4)" />
<use xlink:href="#f2_i" transform="matrix(12,0,0,12,532,591.4)" />
<use xlink:href="#f2_9" transform="matrix(12,0,0,12,536.1,591.4)" />
<use xlink:href="#f2_e" transform="matrix(12,0,0,12,543.4,591.4)" />
<use xlink:href="#f3_4" transform="matrix(11,0,0,11,354.8,590)" />
<use xlink:href="#f3_9" transform="matrix(11,0,0,11,363.2,590)" />
<use xlink:href="#f3_w" transform="matrix(11,0,0,11,371.6,590)" />
<use xlink:href="#f3_8" transform="matrix(11,0,0,11,379.8,590)" />
<use xlink:href="#f3_2" transform="matrix(11,0,0,11,385.4,590)" />
<use xlink:href="#f2_g" transform="matrix(12,0,0,12,303,591.4)" />
<use xlink:href="#f2_6" transform="matrix(12,0,0,12,314.9,591.4)" />
<use xlink:href="#f2_6" transform="matrix(12,0,0,12,319.9,591.4)" />
<use xlink:href="#f2_c" transform="matrix(12,0,0,12,324.8,591.4)" />
<use xlink:href="#f3_3" transform="matrix(11,0,0,11,137.7,590)" />
<use xlink:href="#f3_z" transform="matrix(11,0,0,11,142.4,590)" />
<use xlink:href="#f3_g" transform="matrix(11,0,0,11,150.8,590)" />
<use xlink:href="#f3_7" transform="matrix(11,0,0,11,159.2,590)" />
<use xlink:href="#f3_m" transform="matrix(11,0,0,11,166.5,590)" />
<use xlink:href="#f3_14" transform="matrix(11,0,0,11,175.5,590)" />
<use xlink:href="#f3_5" transform="matrix(11,0,0,11,181,590)" />
<use xlink:href="#f3_15" transform="matrix(11,0,0,11,189.4,590)" />
<use xlink:href="#f3_16" transform="matrix(11,0,0,11,137.7,631.6)" />
<use xlink:href="#f3_8" transform="matrix(11,0,0,11,148.8,631.6)" />
<use xlink:href="#f3_2" transform="matrix(11,0,0,11,154.4,631.6)" />
<use xlink:href="#f3_9" transform="matrix(11,0,0,11,161.9,631.6)" />
<use xlink:href="#f3_f" transform="matrix(11,0,0,11,174.6,631.6)" />
<use xlink:href="#f3_g" transform="matrix(11,0,0,11,183,631.6)" />
<use xlink:href="#f3_2" transform="matrix(11,0,0,11,191.2,631.6)" />
<use xlink:href="#f3_2" transform="matrix(11,0,0,11,203,631.6)" />
<use xlink:href="#f3_m" transform="matrix(11,0,0,11,210.3,631.6)" />
<use xlink:href="#f3_6" transform="matrix(11,0,0,11,219.3,631.6)" />
<use xlink:href="#f3_9" transform="matrix(11,0,0,11,225.8,631.6)" />
<use xlink:href="#f3_w" transform="matrix(11,0,0,11,234.2,631.6)" />
<use xlink:href="#f3_8" transform="matrix(11,0,0,11,242.5,631.6)" />
<use xlink:href="#f3_2" transform="matrix(11,0,0,11,248.1,631.6)" />
<use xlink:href="#f3_i" transform="matrix(11,0,0,11,259.8,631.6)" />
<use xlink:href="#f3_2" transform="matrix(11,0,0,11,272.4,631.6)" />
<use xlink:href="#f3_m" transform="matrix(11,0,0,11,279.8,631.6)" />
<use xlink:href="#f3_p" transform="matrix(11,0,0,11,288.7,631.6)" />
<use xlink:href="#f3_3" transform="matrix(11,0,0,11,297.1,631.6)" />
<use xlink:href="#f3_5" transform="matrix(11,0,0,11,301.8,631.6)" />
<use xlink:href="#f3_2" transform="matrix(11,0,0,11,310.2,631.6)" />
<use xlink:href="#f3_8" transform="matrix(11,0,0,11,317.5,631.6)" />
<use xlink:href="#f3_9" transform="matrix(11,0,0,11,323.2,631.6)" />
<use xlink:href="#f3_f" transform="matrix(11,0,0,11,335.8,631.6)" />
<use xlink:href="#f3_g" transform="matrix(11,0,0,11,344.2,631.6)" />
<use xlink:href="#f3_2" transform="matrix(11,0,0,11,352.6,631.6)" />
<use xlink:href="#f3_8" transform="matrix(11,0,0,11,364.2,631.6)" />
<use xlink:href="#f3_2" transform="matrix(11,0,0,11,369.8,631.6)" />
<use xlink:href="#f3_y" transform="matrix(11,0,0,11,377.2,631.6)" />
<use xlink:href="#f3_3" transform="matrix(11,0,0,11,384.6,631.6)" />
<use xlink:href="#f3_w" transform="matrix(11,0,0,11,389.3,631.6)" />
<use xlink:href="#f3_3" transform="matrix(11,0,0,11,397.8,631.6)" />
<use xlink:href="#f3_r" transform="matrix(11,0,0,11,402.3,631.6)" />
<use xlink:href="#f3_9" transform="matrix(11,0,0,11,415.5,631.6)" />
<use xlink:href="#f3_6" transform="matrix(11,0,0,11,423.9,631.6)" />
<use xlink:href="#f3_2" transform="matrix(11,0,0,11,434.5,631.6)" />
<use xlink:href="#f3_6" transform="matrix(11,0,0,11,442,631.6)" />
<use xlink:href="#f3_p" transform="matrix(11,0,0,11,452.8,631.6)" />
<use xlink:href="#f3_2" transform="matrix(11,0,0,11,461.1,631.6)" />
<use xlink:href="#f3_16" transform="matrix(11,0,0,11,472.8,631.6)" />
<use xlink:href="#f3_7" transform="matrix(11,0,0,11,484,631.6)" />
<use xlink:href="#f3_8" transform="matrix(11,0,0,11,491.4,631.6)" />
<use xlink:href="#f3_m" transform="matrix(11,0,0,11,496.9,631.6)" />
<use xlink:href="#f3_9" transform="matrix(11,0,0,11,501.6,631.6)" />
<use xlink:href="#f3_6" transform="matrix(11,0,0,11,510,631.6)" />
<use xlink:href="#f3_q" transform="matrix(11,0,0,11,516.6,631.6)" />
<use xlink:href="#f3_16" transform="matrix(11,0,0,11,525,631.6)" />
<use xlink:href="#f3_7" transform="matrix(11,0,0,11,536.1,631.6)" />
<use xlink:href="#f3_8" transform="matrix(11,0,0,11,543.6,631.6)" />
<use xlink:href="#f3_m" transform="matrix(11,0,0,11,549.2,631.6)" />
<use xlink:href="#f3_9" transform="matrix(11,0,0,11,554,631.6)" />
<use xlink:href="#f3_6" transform="matrix(11,0,0,11,562.2,631.6)" />
<use xlink:href="#f3_2" transform="matrix(11,0,0,11,573,631.6)" />
<use xlink:href="#f3_6" transform="matrix(11,0,0,11,580.5,631.6)" />
<use xlink:href="#f3_2" transform="matrix(11,0,0,11,591.2,631.6)" />
<use xlink:href="#f3_m" transform="matrix(11,0,0,11,598.6,631.6)" />
<use xlink:href="#f3_11" transform="matrix(11,0,0,11,607.5,631.6)" />
<use xlink:href="#f3_2" transform="matrix(11,0,0,11,615.9,631.6)" />
<use xlink:href="#f3_8" transform="matrix(11,0,0,11,623.3,631.6)" />
<use xlink:href="#f3_r" transform="matrix(11,0,0,11,628.8,631.6)" />
<use xlink:href="#f3_7" transform="matrix(11,0,0,11,642,631.6)" />
<use xlink:href="#f3_5" transform="matrix(11,0,0,11,649.4,631.6)" />
<use xlink:href="#f3_9" transform="matrix(11,0,0,11,657.8,631.6)" />
<use xlink:href="#f3_p" transform="matrix(11,0,0,11,670.3,631.6)" />
<use xlink:href="#f3_2" transform="matrix(11,0,0,11,678.7,631.6)" />
<use xlink:href="#f3_17" transform="matrix(11,0,0,11,690.5,631.6)" />
<use xlink:href="#f3_g" transform="matrix(11,0,0,11,697,631.6)" />
<use xlink:href="#f3_7" transform="matrix(11,0,0,11,705.3,631.6)" />
<use xlink:href="#f3_5" transform="matrix(11,0,0,11,712.7,631.6)" />
<use xlink:href="#f3_q" transform="matrix(11,0,0,11,721.1,631.6)" />
<use xlink:href="#f3_16" transform="matrix(11,0,0,11,137.7,650.8)" />
<use xlink:href="#f3_7" transform="matrix(11,0,0,11,148.8,650.8)" />
<use xlink:href="#f3_8" transform="matrix(11,0,0,11,156.3,650.8)" />
<use xlink:href="#f3_m" transform="matrix(11,0,0,11,161.9,650.8)" />
<use xlink:href="#f3_9" transform="matrix(11,0,0,11,166.6,650.8)" />
<use xlink:href="#f3_6" transform="matrix(11,0,0,11,175,650.8)" />
<use xlink:href="#f3_2" transform="matrix(11,0,0,11,185.7,650.8)" />
<use xlink:href="#f3_6" transform="matrix(11,0,0,11,193.2,650.8)" />
<use xlink:href="#f3_g" transform="matrix(11,0,0,11,203.8,650.8)" />
<use xlink:href="#f3_5" transform="matrix(11,0,0,11,212.2,650.8)" />
<use xlink:href="#f3_7" transform="matrix(11,0,0,11,220.6,650.8)" />
<use xlink:href="#f3_4" transform="matrix(11,0,0,11,232.4,650.8)" />
<use xlink:href="#f3_2" transform="matrix(11,0,0,11,240.6,650.8)" />
<use xlink:href="#f3_8" transform="matrix(11,0,0,11,248.1,650.8)" />
<use xlink:href="#f3_6" transform="matrix(11,0,0,11,253.7,650.8)" />
<use xlink:href="#f3_9" transform="matrix(11,0,0,11,260.3,650.8)" />
<use xlink:href="#f3_5" transform="matrix(11,0,0,11,268.7,650.8)" />
<use xlink:href="#f3_7" transform="matrix(11,0,0,11,277.1,650.8)" />
<use xlink:href="#f3_r" transform="matrix(11,0,0,11,288.7,650.8)" />
<use xlink:href="#f3_g" transform="matrix(11,0,0,11,301.8,650.8)" />
<use xlink:href="#f3_i" transform="matrix(11,0,0,11,310.2,650.8)" />
<use xlink:href="#f3_z" transform="matrix(11,0,0,11,322.7,650.8)" />
<use xlink:href="#f3_2" transform="matrix(11,0,0,11,331.1,650.8)" />
<use xlink:href="#f3_5" transform="matrix(11,0,0,11,338.6,650.8)" />
<use xlink:href="#f3_2" transform="matrix(11,0,0,11,347,650.8)" />
<use xlink:href="#f3_8" transform="matrix(11,0,0,11,354.4,650.8)" />
<use xlink:href="#f3_9" transform="matrix(11,0,0,11,360.1,650.8)" />
<use xlink:href="#f3_6" transform="matrix(11,0,0,11,368.3,650.8)" />
<use xlink:href="#f3_7" transform="matrix(11,0,0,11,374.9,650.8)" />
<use xlink:href="#f3_q" transform="matrix(11,0,0,11,382.3,650.8)" />
<use xlink:href="#f3_18" transform="matrix(11,0,0,11,390.7,650.8)" />
<use xlink:href="#f3_m" transform="matrix(11,0,0,11,400.9,650.8)" />
<use xlink:href="#f3_4" transform="matrix(11,0,0,11,409.9,650.8)" />
<use xlink:href="#f3_3" transform="matrix(11,0,0,11,418.2,650.8)" />
<use xlink:href="#f3_2" transform="matrix(11,0,0,11,422.9,650.8)" />
<use xlink:href="#f3_5" transform="matrix(11,0,0,11,430.4,650.8)" />
<use xlink:href="#f3_6" transform="matrix(11,0,0,11,438.8,650.8)" />
<use xlink:href="#f3_7" transform="matrix(11,0,0,11,445.3,650.8)" />
<use xlink:href="#f3_r" transform="matrix(11,0,0,11,456.9,650.8)" />
<use xlink:href="#f3_g" transform="matrix(11,0,0,11,470,650.8)" />
<use xlink:href="#f3_y" transform="matrix(11,0,0,11,478.4,650.8)" />
<use xlink:href="#f3_11" transform="matrix(11,0,0,11,485.9,650.8)" />
<use xlink:href="#f3_9" transform="matrix(11,0,0,11,494.3,650.8)" />
<use xlink:href="#f3_6" transform="matrix(11,0,0,11,506.8,650.8)" />
<use xlink:href="#f3_9" transform="matrix(11,0,0,11,513.4,650.8)" />
<use xlink:href="#f3_w" transform="matrix(11,0,0,11,521.8,650.8)" />
<use xlink:href="#f3_8" transform="matrix(11,0,0,11,530.2,650.8)" />
<use xlink:href="#f3_2" transform="matrix(11,0,0,11,535.7,650.8)" />
<use xlink:href="#f3_y" transform="matrix(11,0,0,11,547.4,650.8)" />
<use xlink:href="#f3_9" transform="matrix(11,0,0,11,554.9,650.8)" />
<use xlink:href="#f3_r" transform="matrix(11,0,0,11,563.1,650.8)" />
<use xlink:href="#f3_9" transform="matrix(11,0,0,11,576.2,650.8)" />
<use xlink:href="#f3_7" transform="matrix(11,0,0,11,588.9,650.8)" />
<use xlink:href="#f3_i" transform="matrix(11,0,0,11,596.4,650.8)" />
<use xlink:href="#f3_g" transform="matrix(11,0,0,11,604.8,650.8)" />
<use xlink:href="#f3_p" transform="matrix(11,0,0,11,613.2,650.8)" />
<use xlink:href="#f3_7" transform="matrix(11,0,0,11,621.4,650.8)" />
<use xlink:href="#f3_8" transform="matrix(11,0,0,11,628.9,650.8)" />
<use xlink:href="#f3_7" transform="matrix(11,0,0,11,638.8,650.8)" />
<use xlink:href="#f3_m" transform="matrix(11,0,0,11,650.4,650.8)" />
<use xlink:href="#f3_7" transform="matrix(11,0,0,11,655,650.8)" />
<use xlink:href="#f3_6" transform="matrix(11,0,0,11,662.4,650.8)" />
<use xlink:href="#f3_4" transform="matrix(11,0,0,11,673.3,650.8)" />
<use xlink:href="#f3_2" transform="matrix(11,0,0,11,681.7,650.8)" />
<use xlink:href="#f3_8" transform="matrix(11,0,0,11,689,650.8)" />
<use xlink:href="#f3_6" transform="matrix(11,0,0,11,694.6,650.8)" />
<use xlink:href="#f3_9" transform="matrix(11,0,0,11,701.2,650.8)" />
<use xlink:href="#f3_5" transform="matrix(11,0,0,11,709.6,650.8)" />
<use xlink:href="#f3_7" transform="matrix(11,0,0,11,718,650.8)" />
<use xlink:href="#f3_6" transform="matrix(11,0,0,11,725.4,650.8)" />
<use xlink:href="#f3_q" transform="matrix(11,0,0,11,731.9,650.8)" />
<use xlink:href="#f3_16" transform="matrix(11,0,0,11,137.7,670.2)" />
<use xlink:href="#f3_7" transform="matrix(11,0,0,11,148.8,670.2)" />
<use xlink:href="#f3_8" transform="matrix(11,0,0,11,156.3,670.2)" />
<use xlink:href="#f3_m" transform="matrix(11,0,0,11,161.9,670.2)" />
<use xlink:href="#f3_9" transform="matrix(11,0,0,11,166.6,670.2)" />
<use xlink:href="#f3_6" transform="matrix(11,0,0,11,175,670.2)" />
<use xlink:href="#f3_2" transform="matrix(11,0,0,11,187.1,670.2)" />
<use xlink:href="#f3_6" transform="matrix(11,0,0,11,194.4,670.2)" />
<use xlink:href="#f3_g" transform="matrix(11,0,0,11,206.4,670.2)" />
<use xlink:href="#f3_5" transform="matrix(11,0,0,11,214.8,670.2)" />
<use xlink:href="#f3_r" transform="matrix(11,0,0,11,228.7,670.2)" />
<use xlink:href="#f3_9" transform="matrix(11,0,0,11,241.8,670.2)" />
<use xlink:href="#f3_p" transform="matrix(11,0,0,11,250.2,670.2)" />
<use xlink:href="#f3_2" transform="matrix(11,0,0,11,258.6,670.2)" />
<use xlink:href="#f3_m" transform="matrix(11,0,0,11,265.9,670.2)" />
<use xlink:href="#f3_9" transform="matrix(11,0,0,11,270.7,670.2)" />
<use xlink:href="#f3_p" transform="matrix(11,0,0,11,284.5,670.2)" />
<use xlink:href="#f3_2" transform="matrix(11,0,0,11,292.9,670.2)" />
<use xlink:href="#f3_y" transform="matrix(11,0,0,11,305.9,670.2)" />
<use xlink:href="#f3_9" transform="matrix(11,0,0,11,313.4,670.2)" />
<use xlink:href="#f3_r" transform="matrix(11,0,0,11,321.6,670.2)" />
<use xlink:href="#f3_9" transform="matrix(11,0,0,11,334.7,670.2)" />
<use xlink:href="#f3_p" transform="matrix(11,0,0,11,348.6,670.2)" />
<use xlink:href="#f3_2" transform="matrix(11,0,0,11,357,670.2)" />
<use xlink:href="#f3_x" transform="matrix(11,0,0,11,364.5,670.2)" />
<use xlink:href="#f3_2" transform="matrix(11,0,0,11,370.1,670.2)" />
<use xlink:href="#f3_5" transform="matrix(11,0,0,11,377.6,670.2)" />
<use xlink:href="#f3_p" transform="matrix(11,0,0,11,386,670.2)" />
<use xlink:href="#f3_2" transform="matrix(11,0,0,11,394.4,670.2)" />
<use xlink:href="#f3_8" transform="matrix(11,0,0,11,401.7,670.2)" />
<use xlink:href="#f3_7" transform="matrix(11,0,0,11,412.8,670.2)" />
<use xlink:href="#f3_m" transform="matrix(11,0,0,11,425.8,670.2)" />
<use xlink:href="#f3_9" transform="matrix(11,0,0,11,430.5,670.2)" />
<use xlink:href="#f3_6" transform="matrix(11,0,0,11,438.9,670.2)" />
<use xlink:href="#f3_4" transform="matrix(11,0,0,11,450.9,670.2)" />
<use xlink:href="#f3_9" transform="matrix(11,0,0,11,459.3,670.2)" />
<use xlink:href="#f3_w" transform="matrix(11,0,0,11,467.7,670.2)" />
<use xlink:href="#f3_8" transform="matrix(11,0,0,11,476,670.2)" />
<use xlink:href="#f3_2" transform="matrix(11,0,0,11,481.6,670.2)" />
<use xlink:href="#f3_6" transform="matrix(11,0,0,11,489.1,670.2)" />
<use xlink:href="#f3_q" transform="matrix(11,0,0,11,495.5,670.2)" />
<use xlink:href="#f3_18" transform="matrix(11,0,0,11,505.2,670.2)" />
<use xlink:href="#f3_m" transform="matrix(11,0,0,11,515.5,670.2)" />
<use xlink:href="#f3_5" transform="matrix(11,0,0,11,525.7,670.2)" />
<use xlink:href="#f3_9" transform="matrix(11,0,0,11,534.1,670.2)" />
<use xlink:href="#f3_y" transform="matrix(11,0,0,11,547.9,670.2)" />
<use xlink:href="#f3_8" transform="matrix(11,0,0,11,555.4,670.2)" />
<use xlink:href="#f3_2" transform="matrix(11,0,0,11,560.9,670.2)" />
<use xlink:href="#f3_2" transform="matrix(11,0,0,11,568.4,670.2)" />
<use xlink:href="#f3_f" transform="matrix(11,0,0,11,581.3,670.2)" />
<use xlink:href="#f3_g" transform="matrix(11,0,0,11,589.7,670.2)" />
<use xlink:href="#f3_2" transform="matrix(11,0,0,11,598.1,670.2)" />
<use xlink:href="#f3_m" transform="matrix(11,0,0,11,611.1,670.2)" />
<use xlink:href="#f3_9" transform="matrix(11,0,0,11,615.8,670.2)" />
<use xlink:href="#f3_6" transform="matrix(11,0,0,11,624.2,670.2)" />
<use xlink:href="#f3_4" transform="matrix(11,0,0,11,636.2,670.2)" />
<use xlink:href="#f3_9" transform="matrix(11,0,0,11,644.6,670.2)" />
<use xlink:href="#f3_w" transform="matrix(11,0,0,11,653,670.2)" />
<use xlink:href="#f3_8" transform="matrix(11,0,0,11,661.3,670.2)" />
<use xlink:href="#f3_2" transform="matrix(11,0,0,11,666.9,670.2)" />
<use xlink:href="#f3_6" transform="matrix(11,0,0,11,674.4,670.2)" />
<use xlink:href="#f3_6" transform="matrix(11,0,0,11,686.4,670.2)" />
<use xlink:href="#f3_9" transform="matrix(11,0,0,11,693,670.2)" />
<use xlink:href="#f3_5" transform="matrix(11,0,0,11,701.4,670.2)" />
<use xlink:href="#f3_6" transform="matrix(11,0,0,11,715.2,670.2)" />
<use xlink:href="#f3_g" transform="matrix(11,0,0,11,721.8,670.2)" />
<use xlink:href="#f3_y" transform="matrix(11,0,0,11,730,670.2)" />
<use xlink:href="#f3_3" transform="matrix(11,0,0,11,737.5,670.2)" />
<use xlink:href="#f3_9" transform="matrix(11,0,0,11,742.2,670.2)" />
<use xlink:href="#f3_6" transform="matrix(11,0,0,11,750.6,670.2)" />
<use xlink:href="#f3_9" transform="matrix(11,0,0,11,762.7,670.2)" />
<use xlink:href="#f3_r" transform="matrix(11,0,0,11,137.7,689.5)" />
<use xlink:href="#f3_7" transform="matrix(11,0,0,11,150.8,689.5)" />
<use xlink:href="#f3_m" transform="matrix(11,0,0,11,158.1,689.5)" />
<use xlink:href="#f3_v" transform="matrix(11,0,0,11,162.8,689.5)" />
<use xlink:href="#f3_7" transform="matrix(11,0,0,11,171.2,689.5)" />
<use xlink:href="#f3_p" transform="matrix(11,0,0,11,178.7,689.5)" />
<use xlink:href="#f3_9" transform="matrix(11,0,0,11,187.1,689.5)" />
<use xlink:href="#f3_6" transform="matrix(11,0,0,11,195.5,689.5)" />
<use xlink:href="#f3_q" transform="matrix(11,0,0,11,201.9,689.5)" />
<use xlink:href="#f3_18" transform="matrix(11,0,0,11,210.5,689.5)" />
<use xlink:href="#f3_m" transform="matrix(11,0,0,11,220.7,689.5)" />
<use xlink:href="#f3_y" transform="matrix(11,0,0,11,229.5,689.5)" />
<use xlink:href="#f3_8" transform="matrix(11,0,0,11,237,689.5)" />
<use xlink:href="#f3_2" transform="matrix(11,0,0,11,242.6,689.5)" />
<use xlink:href="#f3_2" transform="matrix(11,0,0,11,249.9,689.5)" />
<use xlink:href="#f3_f" transform="matrix(11,0,0,11,261.7,689.5)" />
<use xlink:href="#f3_g" transform="matrix(11,0,0,11,270.1,689.5)" />
<use xlink:href="#f3_2" transform="matrix(11,0,0,11,278.5,689.5)" />
<use xlink:href="#f3_m" transform="matrix(11,0,0,11,290.1,689.5)" />
<use xlink:href="#f3_9" transform="matrix(11,0,0,11,294.8,689.5)" />
<use xlink:href="#f3_6" transform="matrix(11,0,0,11,303.2,689.5)" />
<use xlink:href="#f3_4" transform="matrix(11,0,0,11,313.9,689.5)" />
<use xlink:href="#f3_9" transform="matrix(11,0,0,11,322.3,689.5)" />
<use xlink:href="#f3_w" transform="matrix(11,0,0,11,330.7,689.5)" />
<use xlink:href="#f3_8" transform="matrix(11,0,0,11,339.1,689.5)" />
<use xlink:href="#f3_2" transform="matrix(11,0,0,11,344.7,689.5)" />
<use xlink:href="#f3_6" transform="matrix(11,0,0,11,352,689.5)" />
<use xlink:href="#f3_6" transform="matrix(11,0,0,11,362.8,689.5)" />
<use xlink:href="#f3_9" transform="matrix(11,0,0,11,369.4,689.5)" />
<use xlink:href="#f3_5" transform="matrix(11,0,0,11,377.8,689.5)" />
<use xlink:href="#f3_4" transform="matrix(11,0,0,11,390.3,689.5)" />
<use xlink:href="#f3_2" transform="matrix(11,0,0,11,398.7,689.5)" />
<use xlink:href="#f3_8" transform="matrix(11,0,0,11,406.2,689.5)" />
<use xlink:href="#f3_6" transform="matrix(11,0,0,11,411.8,689.5)" />
<use xlink:href="#f3_9" transform="matrix(11,0,0,11,418.4,689.5)" />
<use xlink:href="#f3_5" transform="matrix(11,0,0,11,426.8,689.5)" />
<use xlink:href="#f3_7" transform="matrix(11,0,0,11,435,689.5)" />
<use xlink:href="#f3_6" transform="matrix(11,0,0,11,442.5,689.5)" />
<use xlink:href="#f3_3" transform="matrix(11,0,0,11,453.3,689.5)" />
<use xlink:href="#f3_z" transform="matrix(11,0,0,11,457.9,689.5)" />
<use xlink:href="#f3_g" transform="matrix(11,0,0,11,466.3,689.5)" />
<use xlink:href="#f3_7" transform="matrix(11,0,0,11,474.7,689.5)" />
<use xlink:href="#f3_m" transform="matrix(11,0,0,11,482.2,689.5)" />
<use xlink:href="#f3_2" transform="matrix(11,0,0,11,486.9,689.5)" />
<use xlink:href="#f3_6" transform="matrix(11,0,0,11,494.2,689.5)" />
<use xlink:href="#f3_7" transform="matrix(11,0,0,11,505,689.5)" />
<use xlink:href="#f3_l" transform="matrix(11,0,0,11,516.6,689.5)" />
<use xlink:href="#f3_m" transform="matrix(11,0,0,11,524.1,689.5)" />
<use xlink:href="#f3_q" transform="matrix(11,0,0,11,528.7,689.5)" />
</g>
<g fill="#0000FF" >
<use xlink:href="#f2_l" transform="matrix(12,0,0,12,723.6,728.6)" />
<use xlink:href="#f2_6" transform="matrix(12,0,0,12,736.1,728.6)" />
<use xlink:href="#f2_n" transform="matrix(12,0,0,12,741.5,728.6)" />
<use xlink:href="#f2_q" transform="matrix(12,0,0,12,749.3,728.6)" />
<use xlink:href="#f2_h" transform="matrix(12,0,0,12,760,728.6)" />
</g>
</g>
<path d="M723.1,730.4h49.3" class="g1_4" />
<g clip-path="url(#c0_4)">
<g fill="#000000" >
<use xlink:href="#f2_1a" transform="matrix(11,0,0,11,137.5,1208.9)" />
</g>
</g>
<image preserveAspectRatio="none" x="723" y="514" width="61" height="63" xlink:href="img/1.png" />
<defs>
<path d="M235,-20c0,0,-31,0,-51,19c0,0,-21,18,-21,50c0,0,0,65,39,120c0,0,39,54,125,109c0,0,56,35,87,56c0,0,32,20,46,33c0,0,79,45,79,143c0,0,0,27,-7,65c0,0,-8,39,-27,49c0,0,-19,10,-85,10H110c0,0,-36,0,-53,21c0,0,-17,22,-25,71c0,0,-7,49,-7,134c0,0,0,62,27,122c0,0,8,15,8,34c0,0,0,23,-35,37c0,0,-21,7,-30,29c0,0,-9,22,-9,72c0,0,0,24,10,46c0,0,8,22,25,38c0,0,16,16,26,16c0,0,17,0,17,-14c0,0,0,-9,7,-17c0,0,7,-8,34,-14c0,0,65,-15,81,-26c0,0,15,-10,15,-31c0,0,0,-15,-15,-38c0,0,-15,-22,-33,-53c0,0,-19,-30,-34,-67c0,0,-15,-36,-15,-79c0,0,0,-43,14,-56c0,0,15,-14,54,-14H518c0,0,39,0,63,-17c0,0,23,-16,33,-53c0,0,10,-36,17,-89c0,0,6,-52,6,-93c0,0,0,-99,-9,-144c0,0,-9,-44,-40,-80c0,0,-31,-36,-110,-86c0,0,-112,-71,-138,-95c0,0,-26,-23,-36,-44c0,0,-9,-20,-9,-43c0,0,0,-11,5,-26c0,0,6,-15,6,-26c0,0,0,-32,-20,-50c0,0,-20,-19,-51,-19Z" 
id="f0_d"
transform="scale(0.001,-0.001)" />

<path d="M204,-8c0,0,-9,0,-11,5c0,0,-2,5,-2,22V549c0,0,0,40,-4,56c0,0,-4,16,-15,22c0,0,-10,7,-39,7H90c0,0,-33,0,-52,33c0,0,-19,33,-19,90c0,0,0,53,15,98c0,0,16,44,35,44c0,0,12,0,12,-13V872c0,0,0,-27,31,-27h42c0,0,79,0,103,-20c0,0,23,-19,23,-83V67c0,0,0,-16,-8,-26c0,0,-9,-10,-33,-30c0,0,-25,-19,-35,-19Z" 
id="f0_5"
transform="scale(0.001,-0.001)" />

<path d="M423,-13c0,0,-9,0,-14,7c0,0,-5,6,-10,23c0,0,-13,51,-37,108c0,0,-25,58,-55,101c0,0,-21,-37,-51,-115C256,111,225,34,216,0H12L55,212h99c0,0,51,0,72,12c0,0,20,12,40,58c0,0,20,46,18,98V543c0,0,0,46,-7,61c0,0,-7,15,-23,22c0,0,-17,8,-50,8H189c0,0,-76,0,-76,115c0,0,0,56,16,103c0,0,16,47,33,47c0,0,14,0,14,-15c0,0,0,-17,9,-28c0,0,10,-11,40,-11h21c0,0,60,0,85,-8c0,0,25,-9,39,-26c0,0,13,-18,13,-49c0,0,0,-20,-4,-43c0,0,-5,-23,-10,-53c0,0,-6,-31,-10,-71c0,0,-5,-41,-5,-97c0,0,0,-150,62,-269c0,0,28,-58,38,-90l9,-65c0,0,0,-27,-13,-57c0,0,-13,-30,-27,-30Z" 
id="f0_9"
transform="scale(0.001,-0.001)" />

<path d="M554,-8c0,0,-9,0,-11,6c0,0,-2,5,-2,24V548c0,0,0,38,-5,56c0,0,-4,18,-15,25c0,0,-12,7,-41,7H90c0,0,-33,0,-52,33c0,0,-19,33,-19,90c0,0,0,54,15,97c0,0,14,43,30,43c0,0,17,0,17,-13V872c0,0,0,-9,7,-18c0,0,7,-9,27,-9H512c0,0,54,0,77,-8c0,0,23,-9,33,-28c0,0,9,-20,9,-67V81c0,0,0,-31,-27,-53L583,9C583,9,563,-8,554,-8Z" 
id="f0_8"
transform="scale(0.001,-0.001)" />

<path d="M721,-14c0,0,-12,0,-12,9l4,28c0,0,17,82,17,338c0,0,0,105,-11,163c0,0,-11,58,-35,84c0,0,-25,26,-83,26H315c0,0,-43,-39,-67,-90c0,0,-25,-51,-25,-104c0,0,0,-59,17,-104c0,0,17,-45,35,-78c0,0,18,-34,18,-44c0,0,0,-26,-20,-95C273,119,252,50,231,0H26L87,214h69c0,0,23,0,23,14l-7,15c0,0,-15,27,-27,68c0,0,-11,41,-11,83c0,0,0,68,25,124c0,0,25,57,86,116H200c0,0,-45,0,-71,32c0,0,-27,33,-27,94c0,0,0,49,17,93c0,0,16,43,32,43c0,0,17,0,17,-10V869c0,0,0,-24,27,-24H637c0,0,73,0,103,-18c0,0,30,-17,46,-62c0,0,17,-46,24,-124c0,0,8,-78,8,-214V338c0,0,0,-279,-27,-311c0,0,-14,-16,-37,-28c0,0,-23,-13,-33,-13Z" 
id="f0_e"
transform="scale(0.001,-0.001)" />

<path d="M345,75c0,0,50,0,110,26V351l-63,-2c0,0,-72,-3,-100,-38c0,0,-28,-35,-28,-113c0,0,0,-63,22,-93c0,0,23,-30,59,-30ZM266,-14c0,0,-217,0,-217,208c0,0,0,79,32,126c0,0,32,48,93,71c0,0,60,22,190,25l91,2V521c0,0,0,126,-104,126c0,0,-62,0,-140,-39L183,521H134V691c0,0,112,17,165,21c0,0,53,5,108,5c0,0,264,0,264,-194V67L741,49V0H483L466,54C466,54,408,14,361,0c0,0,-47,-14,-95,-14Z" 
id="f0_l"
transform="scale(0.001,-0.001)" />

<path d="M438,65c0,0,131,0,131,293c0,0,0,279,-130,279c0,0,-69,0,-127,-29V80c0,0,60,-15,126,-15ZM20,-325v50l76,18V634L19,652v49H304l1,-36c0,0,80,55,194,55c0,0,146,0,218,-86c0,0,71,-86,71,-271c0,0,0,-183,-83,-280c0,0,-83,-97,-238,-97c0,0,-79,0,-160,19c0,0,5,-48,5,-109V-257l103,-18v-50Z" 
id="f0_m"
transform="scale(0.001,-0.001)" />

<path d="M41,0V49l91,18V634L41,652v49H336l8,-145c0,0,80,89,144,128c0,0,64,40,117,40h40V468H604l-45,94c0,0,-47,0,-106,-21c0,0,-60,-20,-105,-48V67L460,49V0Z" 
id="f0_n"
transform="scale(0.001,-0.001)" />

<path d="M425,-14c0,0,-187,0,-280,90c0,0,-93,90,-93,276c0,0,0,115,42,198c0,0,43,82,121,126c0,0,78,44,182,44c0,0,104,0,227,-26V486H571L539,609c0,0,-25,19,-50,26c0,0,-24,7,-65,7c0,0,-44,0,-79,-35c0,0,-36,-35,-56,-98c0,0,-20,-64,-20,-153c0,0,0,-150,47,-214c0,0,47,-64,148,-64c0,0,103,0,176,21V42C640,42,606,15,547,0c0,0,-59,-14,-122,-14Z" 
id="f0_o"
transform="scale(0.001,-0.001)" />

<path d="M327,-14c0,0,-101,0,-156,45c0,0,-55,45,-55,131V624H25v48l108,29l87,159H332V701H480V624H332V176c0,0,0,-49,20,-73c0,0,20,-25,53,-25c0,0,40,0,97,12V26c0,0,-22,-15,-76,-27c0,0,-55,-13,-99,-13Z" 
id="f0_p"
transform="scale(0.001,-0.001)" />

<path d="M34,0V49l76,18V634L38,652v49H325V67L402,49V0ZM217,831c0,0,-48,0,-81,33c0,0,-34,33,-34,82c0,0,0,48,34,81c0,0,34,33,81,33c0,0,48,0,81,-33c0,0,33,-33,33,-81c0,0,0,-47,-33,-81c0,0,-32,-34,-81,-34Z" 
id="f0_k"
transform="scale(0.001,-0.001)" />

<path d="M248,0L521,658H66v429H313V836l493,-1V716L504,0Z" 
id="f1_a"
transform="scale(0.001,-0.001)" />

<path d="M102,250V836H349V351L102,250Z" 
id="f1_8"
transform="scale(0.001,-0.001)" />

<path d="M154,-13c0,0,-38,0,-85,9V198c0,0,58,-15,103,-15c0,0,84,0,118,60c0,0,35,61,35,206c0,0,0,66,-7,105c0,0,-6,39,-24,63c0,0,-17,25,-44,33c0,0,-27,8,-73,8H66V836H225c0,0,198,0,275,-115c0,0,56,-84,65,-264c0,0,3,-55,3,-148c0,0,0,-177,71,-309L393,1c0,0,-53,130,-54,141c0,0,-28,-90,-65,-123c0,0,-38,-32,-120,-32Z" 
id="f1_k"
transform="scale(0.001,-0.001)" />

<path d="M534,0V425c0,0,0,109,-41,171c0,0,-41,62,-140,62H66V836H352c0,0,99,0,174,-20c0,0,75,-20,123,-55c0,0,48,-35,78,-87c0,0,30,-53,42,-113c0,0,12,-60,12,-136V0Z" 
id="f1_4"
transform="scale(0.001,-0.001)" />

<path d="M173,-6C173,-6,61,-6,15,9V177c0,0,73,-10,82,-10c0,0,37,0,52,30c0,0,14,29,14,116V658H18V836H516c0,0,262,0,341,-145c0,0,48,-89,48,-242V0H658V450c0,0,0,131,-37,171c0,0,-34,37,-105,37H411V313c0,0,0,-189,-67,-258C344,55,285,-6,173,-6Z" 
id="f1_h"
transform="scale(0.001,-0.001)" />

<path d="M562,411V877L247,411ZM562,0V202H68V449l447,665H834V411H993V202H834V0Z" 
id="f1_q"
transform="scale(0.001,-0.001)" />

<path d="M179,0V190H336V0Zm0,600V790H336V600Z" 
id="f2_13"
transform="scale(0.001,-0.001)" />

<path d="M736,107V473c0,0,0,147,-48,202c0,0,-49,54,-187,54H278V107ZM139,0V836H499c0,0,105,0,177,-22c0,0,72,-21,116,-69c0,0,44,-49,64,-119c0,0,19,-71,19,-174V0Z" 
id="f2_l"
transform="scale(0.001,-0.001)" />

<path d="M102,312V836H241V369L102,312Z" 
id="f2_i"
transform="scale(0.001,-0.001)" />

<path d="M139,0V138c0,0,0,61,8,112c0,0,7,52,19,87c0,0,11,36,30,66c0,0,19,31,35,49c0,0,17,19,41,35c0,0,25,17,41,25c0,0,17,7,40,17L141,836H303L613,388c0,0,20,10,33,18c0,0,13,8,34,28c0,0,20,20,33,44c0,0,13,25,22,66c0,0,10,41,10,92V836H882V698c0,0,0,-61,-7,-112c0,0,-6,-52,-18,-88c0,0,-12,-36,-30,-66c0,0,-19,-30,-36,-49c0,0,-17,-18,-41,-34c0,0,-24,-17,-40,-25c0,0,-17,-8,-41,-17L882,0H720L409,448c0,0,-21,-11,-34,-19c0,0,-13,-8,-34,-27c0,0,-21,-20,-34,-44c0,0,-12,-25,-22,-66c0,0,-9,-41,-9,-92V0Z" 
id="f2_s"
transform="scale(0.001,-0.001)" />

<path d="M66,0V107H554V452c0,0,0,56,-4,93c0,0,-4,37,-18,75c0,0,-14,38,-40,60c0,0,-26,22,-71,36c0,0,-45,13,-110,13H66V836H312c0,0,91,0,157,-17c0,0,66,-17,109,-49c0,0,44,-32,69,-84c0,0,26,-52,36,-114c0,0,10,-62,10,-147V107H817V0Z" 
id="f2_f"
transform="scale(0.001,-0.001)" />

<path d="M154,0V454l138,56V0ZM722,0V454c0,0,0,161,-49,218c0,0,-48,57,-186,57H139V836H485c0,0,207,0,291,-93c0,0,83,-94,83,-318V0Z" 
id="f2_g"
transform="scale(0.001,-0.001)" />

<path d="M522,-20c0,0,-196,0,-290,99c0,0,-94,100,-94,324V836H276V397c0,0,0,-86,16,-147c0,0,17,-60,50,-94c0,0,34,-34,77,-49c0,0,43,-15,103,-15c0,0,59,0,102,15c0,0,44,15,77,49c0,0,33,34,50,94c0,0,17,61,17,147c0,0,0,84,-8,143c0,0,-7,58,-25,105c0,0,-17,47,-51,69c0,0,-33,23,-83,23c0,0,-50,0,-119,-22V821c0,0,85,23,150,23c0,0,76,0,130,-30c0,0,53,-31,85,-90c0,0,31,-59,45,-138c0,0,13,-78,13,-183c0,0,0,-224,-93,-324c0,0,-94,-99,-290,-99Z" 
id="f2_d"
transform="scale(0.001,-0.001)" />

<path d="M139,0V106H400c0,0,176,0,253,71c0,0,78,72,78,250c0,0,0,163,-80,233c0,0,-81,69,-250,69H278L277,564c0,0,-1,-54,26,-80c0,0,27,-25,82,-25c0,0,30,0,80,9V355c0,0,-61,-12,-111,-12c0,0,-100,0,-157,55c0,0,-58,55,-58,186V836H456c0,0,193,0,303,-109c0,0,110,-109,110,-309c0,0,0,-200,-110,-309C759,109,648,0,456,0Z" 
id="f2_m"
transform="scale(0.001,-0.001)" />

<path d="M180,0L66,836H203L258,443c0,0,36,1,64,6c0,0,28,6,49,18c0,0,20,12,35,26c0,0,15,13,26,36c0,0,11,24,17,44c0,0,7,20,12,55c0,0,6,34,9,60c0,0,3,26,8,71c0,0,4,45,9,77H610c0,0,-13,-194,-31,-271c0,0,-31,-127,-111,-179c0,0,-71,-45,-196,-50L304,107c0,0,73,0,130,5c0,0,56,6,111,21c0,0,54,15,94,40c0,0,40,25,77,64c0,0,37,39,63,94c0,0,25,54,46,128c0,0,21,73,34,166c0,0,13,94,20,211h138c0,0,-14,-124,-29,-218c0,0,-16,-94,-39,-179c0,0,-22,-85,-50,-146c0,0,-28,-61,-68,-112c0,0,-39,-51,-87,-84C744,97,696,65,632,42C632,42,568,19,492,10C492,10,417,0,320,0Z" 
id="f2_c"
transform="scale(0.001,-0.001)" />

<path d="M114,0l60,312c0,0,2,12,8,39c0,0,6,27,7,37c0,0,2,11,5,30c0,0,2,19,4,33c0,0,1,15,1,31c0,0,0,48,-35,146c0,0,-35,98,-98,208H228c0,0,3,-8,27,-67c0,0,25,-58,41,-117c0,0,21,53,50,90c0,0,29,37,57,57c0,0,29,21,65,32c0,0,37,11,65,14c0,0,28,3,67,3c0,0,300,0,300,-396V0H480V106H761V452c0,0,0,146,-46,215c0,0,-45,70,-118,70c0,0,-134,0,-198,-119c0,0,-36,-68,-67,-222c0,0,-2,-10,-6,-27L253,0Z" 
id="f2_7"
transform="scale(0.001,-0.001)" />

<path d="M112,-5c0,0,-39,0,-97,11V113c0,0,48,-10,77,-10c0,0,53,0,70,42c0,0,17,43,17,164V729H50V836H501c0,0,107,0,179,-25c0,0,72,-25,112,-77c0,0,40,-51,57,-118c0,0,16,-67,16,-164V0H726V454c0,0,0,55,-3,92c0,0,-4,37,-17,75c0,0,-14,38,-38,59c0,0,-24,22,-65,36c0,0,-42,13,-102,13H318V309c0,0,0,-160,-46,-237C272,72,226,-5,112,-5Z" 
id="f2_h"
transform="scale(0.001,-0.001)" />

<path d="M138,-7c0,0,-34,0,-72,10V129c0,0,25,-8,52,-8c0,0,33,0,58,5c0,0,26,5,58,24c0,0,33,20,53,54c0,0,21,34,36,97c0,0,15,64,15,151c0,0,0,113,-19,173c0,0,-19,60,-56,82c0,0,-38,22,-107,22H89V836h72c0,0,165,0,240,-91c0,0,76,-91,76,-293c0,0,0,-107,26,-227c0,0,25,-119,83,-225H437c0,0,-43,101,-62,184c0,0,-24,-60,-51,-99c0,0,-26,-38,-56,-58C268,27,239,7,209,0c0,0,-30,-7,-71,-7Z" 
id="f2_n"
transform="scale(0.001,-0.001)" />

<path d="M585,0V426c0,0,0,54,-8,98c0,0,-8,44,-27,83c0,0,-19,40,-49,66c0,0,-30,26,-77,41c0,0,-47,15,-108,15H66V836H315c0,0,94,0,166,-20c0,0,71,-20,116,-54c0,0,46,-35,75,-88c0,0,28,-52,40,-112c0,0,12,-60,12,-137V0Z" 
id="f2_q"
transform="scale(0.001,-0.001)" />

<path d="M74,357V479H476V357Z" 
id="f2_17"
transform="scale(0.001,-0.001)" />

<path d="M163,0V190H321V0Z" 
id="f2_8"
transform="scale(0.001,-0.001)" />

<path d="M495,0V729H66V836H781V729H634V0Z" 
id="f2_a"
transform="scale(0.001,-0.001)" />

<path d="M522,92c0,0,247,0,247,333c0,0,0,88,-17,146c0,0,-17,58,-53,91c0,0,-35,33,-82,46c0,0,-48,14,-116,14H276V419c0,0,0,-327,246,-327Zm0,-112c0,0,-193,0,-289,109c0,0,-95,110,-95,337V836H501c0,0,213,0,309,-93c0,0,96,-94,96,-317c0,0,0,-227,-95,-337C811,89,715,-20,522,-20Z" 
id="f2_o"
transform="scale(0.001,-0.001)" />

<path d="M71,-141V-15L289,62L66,836H210L416,109c0,0,99,42,153,98c0,0,53,56,80,155c0,0,26,98,26,262V836H817V624c0,0,0,-88,-7,-154c0,0,-7,-67,-25,-132c0,0,-18,-66,-51,-116c0,0,-33,-51,-84,-98c0,0,-50,-48,-123,-87c0,0,-72,-39,-169,-74L71,-141Z" 
id="f2_e"
transform="scale(0.001,-0.001)" />

<path d="M139,0V836H278V0Z" 
id="f2_6"
transform="scale(0.001,-0.001)" />

<path d="M66,0V106H322c0,0,75,0,127,23c0,0,53,23,82,67c0,0,29,43,42,98c0,0,13,54,13,124c0,0,0,70,-13,124c0,0,-13,55,-42,98c0,0,-29,44,-82,67c0,0,-52,23,-127,23H66V836H322c0,0,87,0,157,-24c0,0,70,-24,115,-64c0,0,45,-40,74,-94c0,0,30,-55,43,-113c0,0,13,-59,13,-123c0,0,0,-64,-13,-123c0,0,-13,-58,-43,-113c0,0,-29,-54,-74,-94C594,88,549,48,479,24C479,24,409,0,322,0Z" 
id="f2_4"
transform="scale(0.001,-0.001)" />

<path d="M66,0V107H332V555c0,0,0,92,-37,133c0,0,-37,41,-116,41H85V836h94c0,0,153,0,223,-66c0,0,69,-66,69,-231V0Z" 
id="f2_9"
transform="scale(0.001,-0.001)" />

<path d="M139,0V836H485c0,0,206,0,290,-90c0,0,84,-89,84,-294V0H721V473c0,0,0,147,-49,202c0,0,-48,54,-186,54H277V0Z" 
id="f2_k"
transform="scale(0.001,-0.001)" />

<path d="M117,-176L179,62V190H336V62L213,-176Z" 
id="f2_2"
transform="scale(0.001,-0.001)" />

<path d="M156,-317V454l139,56V-317ZM505,0L806,729H139V835H967V753L650,0Z" 
id="f2_j"
transform="scale(0.001,-0.001)" />

<path d="M66,0V106H564L66,836H228L516,413c0,0,3,2,9,6c0,0,17,13,27,21c0,0,10,8,26,27c0,0,17,20,26,40c0,0,9,21,16,54c0,0,7,34,7,75V836H764V698c0,0,0,-55,-7,-102c0,0,-7,-47,-16,-79c0,0,-10,-33,-27,-62c0,0,-18,-29,-32,-46c0,0,-14,-17,-37,-35c0,0,-22,-17,-36,-25c0,0,-13,-8,-36,-20L767,53V0Z" 
id="f2_r"
transform="scale(0.001,-0.001)" />

<path d="M287,0L589,729H66v386H205V836l547,-1l-2,-82L433,0Z" 
id="f2_b"
transform="scale(0.001,-0.001)" />

<path d="M700,-317V454c0,0,0,155,-54,215c0,0,-54,60,-180,60H277V551c0,0,0,-55,26,-80c0,0,27,-26,82,-26c0,0,30,0,80,10V341c0,0,-61,-11,-111,-11c0,0,-100,0,-157,55c0,0,-58,55,-58,186V836H466c0,0,203,0,288,-91c0,0,85,-92,85,-293V-317Z" 
id="f2_12"
transform="scale(0.001,-0.001)" />

<path d="M578,388V982L197,388ZM578,0V263H74V408l464,706H727V388H887V263H727V0Z" 
id="f2_1a"
transform="scale(0.001,-0.001)" />

<path d="M410,-14c0,0,-86,0,-175,14C235,0,145,14,81,38V307h66L181,146c0,0,31,-37,94,-62c0,0,64,-24,132,-24c0,0,214,0,214,177c0,0,0,55,-41,93c0,0,-41,38,-128,68c0,0,-128,42,-185,68c0,0,-56,27,-95,63c0,0,-38,36,-62,87c0,0,-23,51,-23,125c0,0,0,132,90,201c0,0,90,69,263,69c0,0,125,0,278,-32V741H651L618,878c0,0,-76,56,-178,56c0,0,-92,0,-141,-34c0,0,-49,-34,-49,-104c0,0,0,-50,41,-86c0,0,41,-35,128,-63c0,0,171,-56,235,-97c0,0,64,-41,97,-103c0,0,34,-61,34,-143c0,0,0,-318,-375,-318Z" 
id="f0_y"
transform="scale(0.001,-0.001)" />

<path d="M379,60c0,0,59,0,84,64c0,0,24,65,24,231c0,0,0,164,-24,227c0,0,-24,63,-84,63c0,0,-57,0,-80,-60c0,0,-22,-61,-22,-230c0,0,0,-173,23,-234c0,0,22,-61,79,-61Zm-2,-74c0,0,-161,0,-240,91c0,0,-79,91,-79,277c0,0,0,186,80,276c0,0,81,90,245,90c0,0,167,0,245,-93c0,0,78,-93,78,-273c0,0,0,-188,-81,-278c0,0,-81,-90,-248,-90Z" 
id="f0_t"
transform="scale(0.001,-0.001)" />

<path d="M424,64c0,0,74,0,109,71c0,0,36,72,36,236c0,0,0,137,-34,201c0,0,-34,65,-111,65c0,0,-29,0,-62,-7c0,0,-34,-6,-55,-19V76c0,0,47,-12,117,-12Zm21,-78c0,0,-121,0,-354,50V994l-72,18v48H307V802c0,0,0,-69,-8,-141c0,0,30,25,86,42c0,0,57,17,110,17c0,0,153,0,223,-84c0,0,70,-83,70,-266c0,0,0,-180,-90,-283C698,87,608,-14,445,-14Z" 
id="f0_z"
transform="scale(0.001,-0.001)" />

<path d="M434,423c0,0,0,101,-7,142c0,0,-6,40,-22,60c0,0,-16,19,-45,19c0,0,-44,0,-66,-48c0,0,-22,-49,-22,-173ZM389,-14c0,0,-172,0,-254,89c0,0,-83,90,-83,279c0,0,0,184,79,274c0,0,79,91,238,91c0,0,142,0,206,-76c0,0,64,-76,64,-237V345H271V333c0,0,0,-111,18,-158c0,0,18,-47,58,-72c0,0,40,-25,110,-25c0,0,66,0,166,22V42C623,42,582,18,517,1c0,0,-66,-15,-128,-15Z" 
id="f0_j"
transform="scale(0.001,-0.001)" />

<path d="M608,-14c0,0,-251,0,-392,133C216,119,75,252,75,488c0,0,0,257,134,390c0,0,135,133,398,133c0,0,174,0,361,-50l4,-240H905L884,866c0,0,-98,67,-229,67c0,0,-173,0,-253,-108c0,0,-80,-108,-80,-334c0,0,0,-209,84,-319c0,0,83,-109,243,-109c0,0,84,0,147,22c0,0,63,22,99,53l24,164h68L982,48C982,48,915,22,808,4C808,4,700,-14,608,-14Z" 
id="f0_10"
transform="scale(0.001,-0.001)" />

<path d="M30,0V49l76,18V992l-72,18v50H322V67L398,49V0Z" 
id="f0_11"
transform="scale(0.001,-0.001)" />

<path d="M276,-14c0,0,-57,0,-125,13C151,-1,83,10,48,23V214H97l28,-98c0,0,26,-26,69,-44c0,0,42,-17,86,-17c0,0,65,0,97,28c0,0,32,28,32,71c0,0,0,41,-31,65c0,0,-30,25,-133,57c0,0,-108,34,-154,92c0,0,-45,58,-45,143c0,0,0,95,71,152c0,0,71,57,183,57c0,0,77,0,207,-22V518H457l-24,82c0,0,-21,22,-60,35c0,0,-40,14,-75,14c0,0,-53,0,-79,-22c0,0,-26,-22,-26,-59c0,0,0,-40,32,-65c0,0,32,-26,132,-55c0,0,109,-34,155,-89c0,0,45,-55,45,-137c0,0,0,-117,-72,-177c0,0,-72,-59,-209,-59Z" 
id="f0_x"
transform="scale(0.001,-0.001)" />

<path d="M360,-256c0,0,108,0,167,35c0,0,59,35,59,98c0,0,0,70,-95,70H254c0,0,-65,-47,-65,-108c0,0,0,-47,46,-71c0,0,45,-24,125,-24Zm9,561c0,0,55,0,79,43c0,0,25,43,25,129c0,0,0,87,-24,127c0,0,-25,41,-80,41c0,0,-52,0,-75,-41c0,0,-24,-40,-24,-127c0,0,0,-86,23,-129c0,0,23,-43,76,-43Zm-9,-641c0,0,-153,0,-236,43c0,0,-84,44,-84,120c0,0,0,33,28,65c0,0,27,31,105,76c0,0,-44,17,-75,59c0,0,-31,43,-31,90L192,258c0,0,-133,56,-133,219c0,0,0,116,81,180c0,0,82,63,233,63c0,0,32,0,82,-6c0,0,51,-6,74,-13l168,83l26,-32L638,631c0,0,46,-57,46,-154c0,0,0,-119,-80,-182c0,0,-80,-64,-234,-64c0,0,-59,0,-114,9L238,183c0,0,1,-22,28,-41c0,0,26,-19,64,-19H493c0,0,256,0,256,-196c0,0,0,-81,-44,-139c0,0,-45,-59,-131,-92c0,0,-86,-32,-214,-32Z" 
id="f0_12"
transform="scale(0.001,-0.001)" />

<path d="M41,0V49l69,18V634L41,652v49H313l11,-61l50,26c0,0,105,54,188,54c0,0,194,0,194,-207V67L827,49V0H478V49l63,18V484c0,0,0,63,-27,98c0,0,-26,35,-75,35c0,0,-57,0,-114,-25V67L389,49V0Z" 
id="f0_13"
transform="scale(0.001,-0.001)" />

<path d="M0,-141L388,1114H514L127,-141Z" 
id="f2_11"
transform="scale(0.001,-0.001)" />

<path d="M278,-14c0,0,-52,0,-115,11c0,0,-63,10,-99,23V193H98L134,95c0,0,56,-50,146,-50c0,0,144,0,144,123c0,0,0,91,-114,130l-66,21c0,0,-75,25,-110,50c0,0,-34,26,-53,63c0,0,-18,36,-18,89c0,0,0,92,63,145c0,0,63,54,170,54c0,0,77,0,193,-23V544H454l-32,81c0,0,-39,35,-124,35c0,0,-61,0,-92,-30c0,0,-32,-30,-32,-80c0,0,0,-43,29,-72c0,0,28,-29,86,-48c0,0,110,-38,144,-55c0,0,33,-17,57,-42c0,0,23,-25,36,-57c0,0,13,-32,13,-79c0,0,0,-104,-66,-158c0,0,-66,-53,-195,-53Z" 
id="f3_6"
transform="scale(0.001,-0.001)" />

<path d="M377,45c0,0,99,0,147,73c0,0,47,73,47,237c0,0,0,161,-47,233c0,0,-47,72,-147,72c0,0,-97,0,-141,-69c0,0,-44,-69,-44,-236c0,0,0,-169,45,-240c0,0,44,-70,140,-70Zm0,-59c0,0,-158,0,-238,94c0,0,-81,95,-81,274c0,0,0,178,81,272c0,0,80,94,244,94c0,0,160,0,241,-92c0,0,82,-92,82,-274c0,0,0,-368,-329,-368Z" 
id="f3_9"
transform="scale(0.001,-0.001)" />

<path d="M376,50c0,0,103,0,149,80c0,0,46,81,46,240c0,0,0,137,-47,204c0,0,-48,67,-148,67c0,0,-44,0,-87,-7c0,0,-44,-8,-63,-17V62c0,0,63,-12,150,-12Zm3,-64c0,0,-64,0,-141,14c0,0,-78,14,-136,37v971L0,1026v34H226V809c0,0,0,-40,-4,-148c0,0,74,59,188,59c0,0,143,0,219,-87c0,0,77,-87,77,-263c0,0,0,-189,-84,-287c0,0,-84,-97,-243,-97Z" 
id="f3_w"
transform="scale(0.001,-0.001)" />

<path d="M31,0V33l88,19V649L31,668v33H235l7,-87c0,0,44,37,121,71c0,0,76,35,121,35h11V530H463l-43,82c0,0,-37,0,-88,-10c0,0,-52,-10,-89,-26V52L363,33V0Z" 
id="f3_8"
transform="scale(0.001,-0.001)" />

<path d="M495,413c0,0,0,133,-34,190c0,0,-34,57,-105,57c0,0,-78,0,-119,-63c0,0,-42,-62,-42,-184ZM374,-14c0,0,-163,0,-239,87c0,0,-75,88,-75,283c0,0,0,183,77,273c0,0,76,91,219,91c0,0,269,0,269,-306V353H194V340c0,0,0,-103,23,-160c0,0,22,-57,70,-87c0,0,47,-29,124,-29c0,0,40,0,96,6c0,0,55,7,91,15V43C598,43,562,20,500,3c0,0,-61,-17,-126,-17Z" 
id="f3_2"
transform="scale(0.001,-0.001)" />

<path d="M460,-325c0,0,-148,79,-231,172c0,0,-84,93,-123,217c0,0,-39,126,-39,304c0,0,0,178,39,303c0,0,39,125,122,217c0,0,82,93,232,172V997c0,0,-91,-52,-145,-134c0,0,-54,-81,-79,-190c0,0,-25,-109,-25,-305c0,0,0,-194,26,-309c0,0,26,-114,82,-193c0,0,56,-79,141,-128v-63Z" 
id="f3_14"
transform="scale(0.001,-0.001)" />

<path d="M431,0V33L535,52V499c0,0,0,62,-32,96c0,0,-32,33,-95,33c0,0,-66,0,-163,-22V52L350,33V0H32V33l89,19V649L32,668v33H237l6,-57c0,0,56,32,119,54c0,0,62,22,110,22c0,0,52,0,95,-20c0,0,44,-19,66,-62c0,0,57,32,134,57c0,0,77,25,128,25c0,0,179,0,179,-207V52l90,-19V0H846V33L950,52V499c0,0,0,129,-119,129c0,0,-19,0,-45,-3c0,0,-26,-3,-52,-7c0,0,-25,-4,-49,-8c0,0,-23,-5,-39,-8c0,0,13,-41,13,-89V52L764,33V0Z" 
id="f3_r"
transform="scale(0.001,-0.001)" />

<path d="M49,-325v63c0,0,85,49,140,128c0,0,56,79,83,194c0,0,26,115,26,308c0,0,0,196,-25,305c0,0,-25,109,-79,190c0,0,-54,82,-145,134v63c0,0,149,-80,232,-172c0,0,83,-92,122,-217c0,0,39,-125,39,-303c0,0,0,-177,-39,-303c0,0,-39,-125,-122,-217c0,0,-83,-93,-232,-173Z" 
id="f3_15"
transform="scale(0.001,-0.001)" />

<path d="M382,45c0,0,188,0,188,314c0,0,0,143,-47,213c0,0,-46,69,-141,69c0,0,-87,0,-146,-24V58c0,0,67,-13,146,-13ZM25,-325v35l88,18V649L34,668v33H231l1,-41c0,0,31,27,84,43c0,0,53,17,107,17c0,0,134,0,208,-94c0,0,73,-93,73,-267c0,0,0,-178,-80,-276c0,0,-80,-97,-232,-97c0,0,-84,0,-160,16c0,0,4,-53,4,-84V-272l123,-18v-35Z" 
id="f3_4"
transform="scale(0.001,-0.001)" />

<path d="M32,0V33L151,52V649L52,668v33H275V52L395,33V0ZM201,850c0,0,-32,0,-56,24c0,0,-24,24,-24,56c0,0,0,34,24,58c0,0,24,24,56,24c0,0,34,0,58,-24c0,0,24,-24,24,-58c0,0,0,-32,-24,-56c0,0,-24,-24,-58,-24Z" 
id="f3_3"
transform="scale(0.001,-0.001)" />

<path d="M359,-270c0,0,124,0,192,46c0,0,67,47,67,129c0,0,0,43,-26,67c0,0,-26,24,-79,24H242c0,0,-32,-27,-51,-69c0,0,-20,-41,-20,-77c0,0,0,-64,46,-92c0,0,46,-28,142,-28Zm11,561c0,0,81,0,115,47c0,0,34,47,34,141c0,0,0,100,-35,142c0,0,-35,42,-113,42c0,0,-78,0,-114,-43c0,0,-37,-42,-37,-141c0,0,0,-98,36,-143c0,0,36,-45,114,-45ZM359,-329c0,0,-143,0,-218,44c0,0,-75,43,-75,125c0,0,0,39,27,78c0,0,26,38,98,89c0,0,-43,14,-72,48c0,0,-29,35,-29,74L208,262c0,0,-118,55,-118,217c0,0,0,115,73,178c0,0,73,63,211,63c0,0,28,0,71,-6c0,0,44,-6,67,-13l165,83l26,-32L599,644c0,0,50,-56,50,-165c0,0,0,-120,-72,-182c0,0,-73,-62,-208,-62c0,0,-62,0,-114,11L208,148c0,0,2,-13,29,-24c0,0,27,-12,67,-12H512c0,0,113,0,168,-49c0,0,55,-49,55,-134c0,0,0,-79,-44,-137c0,0,-43,-58,-128,-90c0,0,-84,-31,-204,-31Z" 
id="f3_z"
transform="scale(0.001,-0.001)" />

<path d="M289,-14c0,0,-179,0,-179,205V649L20,668v33H233V200c0,0,0,-128,120,-128c0,0,92,0,173,23V649L420,668v33H649V52L738,33V0H533l-6,57C527,57,474,28,405,7c0,0,-69,-21,-116,-21Z" 
id="f3_g"
transform="scale(0.001,-0.001)" />

<path d="M284,67c0,0,51,0,88,12c0,0,37,12,74,30V358l-98,-3c0,0,-100,-4,-135,-39c0,0,-35,-35,-35,-117c0,0,0,-132,106,-132ZM233,-14c0,0,-179,0,-179,208c0,0,0,70,27,116c0,0,27,46,87,70c0,0,60,24,173,27l105,3V519c0,0,0,72,-26,107c0,0,-27,34,-82,34c0,0,-75,0,-137,-35L176,538H134V691c0,0,121,26,213,26c0,0,115,0,169,-47c0,0,54,-47,54,-144V52L657,33V0H465L451,70c0,0,-85,-84,-218,-84Z" 
id="f3_7"
transform="scale(0.001,-0.001)" />

<path d="M31,0V33L150,52v956L31,1026v34H274V52L394,33V0Z" 
id="f3_m"
transform="scale(0.001,-0.001)" />

<path d="M439,0V33l93,19V500c0,0,0,62,-30,97c0,0,-31,36,-94,36c0,0,-67,0,-165,-22V52L338,33V0H35V33l84,19V649L35,668v33H235l7,-57c0,0,57,33,122,54c0,0,65,22,108,22c0,0,91,0,137,-53c0,0,47,-53,47,-154V52L741,33V0Z" 
id="f3_5"
transform="scale(0.001,-0.001)" />

<path d="M577,-14c0,0,-243,0,-379,132C198,118,63,250,63,488c0,0,0,258,130,391c0,0,131,132,387,132c0,0,156,0,335,-38l5,-218H871L848,884c0,0,-52,32,-121,50c0,0,-69,17,-141,17c0,0,-191,0,-279,-112c0,0,-88,-113,-88,-349c0,0,0,-217,92,-332c0,0,92,-115,268,-115c0,0,85,0,160,20c0,0,76,21,120,55l27,149h49L930,32c0,0,-164,-46,-353,-46Z" 
id="f3_16"
transform="scale(0.001,-0.001)" />

<path d="M383,64c0,0,44,0,87,7c0,0,43,7,65,17V645c0,0,-67,13,-152,13c0,0,-194,0,-194,-309c0,0,0,-143,48,-214c0,0,47,-71,146,-71Zm56,-389v35l96,18V-77c0,0,0,73,7,124c0,0,-79,-61,-200,-61c0,0,-287,0,-287,362c0,0,0,180,81,276c0,0,81,96,237,96c0,0,84,0,166,-18l67,33h53V-272l77,-18v-35Z" 
id="f3_f"
transform="scale(0.001,-0.001)" />

<path d="M148,-329c0,0,-58,0,-114,13v151H69l24,-71c0,0,23,-17,64,-17c0,0,39,0,72,22c0,0,33,23,60,67c0,0,27,44,68,157L90,649L19,668v33H344V668L233,648L423,158L606,649L497,668v33H758V668L685,652L411,-43c0,0,-48,-124,-84,-177c0,0,-36,-54,-79,-82c0,0,-44,-27,-100,-27Z" 
id="f3_i"
transform="scale(0.001,-0.001)" />

<path d="M383,64c0,0,85,0,152,28V645c0,0,-67,13,-152,13c0,0,-194,0,-194,-314c0,0,0,-141,48,-211c0,0,48,-69,146,-69ZM342,-14c0,0,-287,0,-287,358c0,0,0,184,82,280c0,0,81,96,239,96c0,0,81,0,163,-18c0,0,-4,25,-4,124v182l-118,18v34H659V52L745,33V0H548l-9,52c0,0,-84,-66,-197,-66Z" 
id="f3_p"
transform="scale(0.001,-0.001)" />

<path d="M399,-14c0,0,-341,0,-341,370c0,0,0,175,87,269c0,0,87,95,249,95c0,0,101,0,220,-23V501H573L541,625c0,0,-62,35,-149,35c0,0,-200,0,-200,-304c0,0,0,-158,61,-225c0,0,61,-67,189,-67c0,0,109,0,189,24V43C631,43,595,16,530,1c0,0,-64,-15,-131,-15Z" 
id="f3_y"
transform="scale(0.001,-0.001)" />

<path d="M191,-20c0,0,-39,0,-65,25c0,0,-25,27,-25,64c0,0,0,38,26,64c0,0,26,26,64,26c0,0,38,0,64,-26c0,0,26,-26,26,-64c0,0,0,-37,-25,-64c0,0,-26,-25,-65,-25Z" 
id="f3_q"
transform="scale(0.001,-0.001)" />

<path d="M442,0V33l93,19V504c0,0,0,129,-124,129c0,0,-70,0,-168,-22V52L338,33V0H31V33l88,19v956L15,1026v34H243V756c0,0,0,-77,-5,-112c0,0,54,31,122,53c0,0,68,23,115,23c0,0,91,0,137,-53c0,0,47,-53,47,-154V52L744,33V0Z" 
id="f3_11"
transform="scale(0.001,-0.001)" />

<path d="M186,-14c0,0,-95,0,-154,22V190H81L104,86c0,0,14,-17,40,-26c0,0,26,-10,57,-10c0,0,105,0,105,141V941L178,960v40H562V960L449,941V322c0,0,0,-100,-30,-175c0,0,-31,-74,-93,-118c0,0,-63,-43,-140,-43Z" 
id="f3_17"
transform="scale(0.001,-0.001)" />

<path d="M44,0V40L172,60V941L44,961v39H794V761H745L721,923c0,0,-83,10,-241,10H316V542H586l23,120h48V354H609L586,475H316V67H513c0,0,193,0,252,12l43,185h49L843,0ZM351,1084v25l146,202H656v-27L392,1084Z" 
id="f3_18"
transform="scale(0.001,-0.001)" />

<path d="M64,0V34L168,59V639H47v36l121,29v49c0,0,0,155,61,239c0,0,62,84,173,84c0,0,58,0,107,-15V908H472l-33,92c0,0,-26,16,-62,16c0,0,-47,0,-66,-42c0,0,-19,-42,-19,-157V701H478V639H292V59L443,34V0Z" 
id="f3_x"
transform="scale(0.001,-0.001)" />

<path d="M360,-14L72,649L0,668v33H327V668L216,648L420,164L615,649L504,668v33H764V668L697,652L416,-14Z" 
id="f3_v"
transform="scale(0.001,-0.001)" />

<path d="M495,413c0,0,0,133,-34,190c0,0,-34,57,-105,57c0,0,-78,0,-119,-62c0,0,-42,-63,-42,-185ZM374,-14c0,0,-163,0,-239,87c0,0,-75,88,-75,283c0,0,0,183,77,274c0,0,76,90,219,90c0,0,269,0,269,-306V353H194V339c0,0,0,-103,23,-160c0,0,22,-57,70,-86c0,0,47,-30,124,-30c0,0,40,0,96,6c0,0,55,7,91,15V43C598,43,562,19,500,2c0,0,-61,-16,-126,-16ZM285,835v24l146,203H590v-27L326,835Z" 
id="f3_l"
transform="scale(0.001,-0.001)" />


</defs>
</svg>