<?xml version="1.0" encoding="UTF-8" standalone="no"?>
<!DOCTYPE svg PUBLIC "-//W3C//DTD SVG 1.1//EN"
"http://www.w3.org/Graphics/SVG/1.1/DTD/svg11.dtd">
<svg viewBox="0 0 909 1286" version="1.1" xmlns="http://www.w3.org/2000/svg" xmlns:xlink="http://www.w3.org/1999/xlink">
<defs>
<clipPath id="c0_14"><path d="M0,1286.2V0H909.4V1286.2Z" /></clipPath>
<style type="text/css"><![CDATA[
.g0_14{
fill: none;
stroke: #0000FF;
stroke-width: 1.0694444;
stroke-linecap: butt;
stroke-linejoin: miter;
}
]]></style>
</defs>
<g clip-path="url(#c0_14)">
<g fill="#000000" >
<use xlink:href="#f0_l" transform="matrix(12,0,0,12,138.4,127.1)" />
<use xlink:href="#f0_a" transform="matrix(12,0,0,12,142.5,127.1)" />
<use xlink:href="#f0_j" transform="matrix(12,0,0,12,154.6,127.1)" />
<use xlink:href="#f0_p" transform="matrix(12,0,0,12,166.9,127.1)" />
<use xlink:href="#f0_r" transform="matrix(12,0,0,12,188.3,127.1)" />
<use xlink:href="#f0_w" transform="matrix(12,0,0,12,194.1,127.1)" />
<use xlink:href="#f0_a" transform="matrix(12,0,0,12,201.3,127.1)" />
<use xlink:href="#f0_8" transform="matrix(12,0,0,12,213.3,127.1)" />
<use xlink:href="#f0_5" transform="matrix(12,0,0,12,225.5,127.1)" />
<use xlink:href="#f0_b" transform="matrix(12,0,0,12,236.4,127.1)" />
<use xlink:href="#f0_b" transform="matrix(12,0,0,12,254.8,127.1)" />
<use xlink:href="#f0_p" transform="matrix(12,0,0,12,265.2,127.1)" />
<use xlink:href="#f0_x" transform="matrix(12,0,0,12,286.4,127.1)" />
<use xlink:href="#f0_a" transform="matrix(12,0,0,12,292.5,127.1)" />
<use xlink:href="#f0_l" transform="matrix(12,0,0,12,304.6,127.1)" />
<use xlink:href="#f0_b" transform="matrix(12,0,0,12,308.7,127.1)" />
<use xlink:href="#f0_4" transform="matrix(12,0,0,12,319.1,127.1)" />
<use xlink:href="#f0_b" transform="matrix(12,0,0,12,324.1,127.1)" />
<use xlink:href="#f0_l" transform="matrix(12,0,0,12,334.5,127.1)" />
<use xlink:href="#f0_j" transform="matrix(12,0,0,12,338.6,127.1)" />
<use xlink:href="#f0_u" transform="matrix(12,0,0,12,351,127.1)" />
<use xlink:href="#f0_l" transform="matrix(12,0,0,12,366.4,127.1)" />
<use xlink:href="#f0_a" transform="matrix(12,0,0,12,370.5,127.1)" />
<use xlink:href="#f0_8" transform="matrix(12,0,0,12,382.5,127.1)" />
<use xlink:href="#f0_5" transform="matrix(12,0,0,12,394.7,127.1)" />
<use xlink:href="#f0_l" transform="matrix(12,0,0,12,405.6,127.1)" />
<use xlink:href="#f0_p" transform="matrix(12,0,0,12,409.7,127.1)" />
<use xlink:href="#f0_l" transform="matrix(12,0,0,12,430.9,127.1)" />
<use xlink:href="#f0_n" transform="matrix(12,0,0,12,435,127.1)" />
<use xlink:href="#f0_e" transform="matrix(12,0,0,12,442.3,127.1)" />
<use xlink:href="#f0_b" transform="matrix(12,0,0,12,453.8,127.1)" />
<use xlink:href="#f0_l" transform="matrix(12,0,0,12,472.2,127.1)" />
<use xlink:href="#f0_b" transform="matrix(12,0,0,12,476.3,127.1)" />
<use xlink:href="#f0_4" transform="matrix(12,0,0,12,486.7,127.1)" />
<use xlink:href="#f0_8" transform="matrix(12,0,0,12,491.7,127.1)" />
<use xlink:href="#f0_g" transform="matrix(12,0,0,12,512.2,127.1)" />
<use xlink:href="#f0_f" transform="matrix(12,0,0,12,518,127.1)" />
<use xlink:href="#f0_l" transform="matrix(12,0,0,12,530.2,127.1)" />
<use xlink:href="#f0_n" transform="matrix(12,0,0,12,534.3,127.1)" />
<use xlink:href="#f0_e" transform="matrix(12,0,0,12,541.6,127.1)" />
<use xlink:href="#f0_6" transform="matrix(12,0,0,12,553.1,127.1)" />
<use xlink:href="#f0_8" transform="matrix(12,0,0,12,571.8,127.1)" />
<use xlink:href="#f0_b" transform="matrix(12,0,0,12,584,127.1)" />
<use xlink:href="#f0_f" transform="matrix(12,0,0,12,602.6,127.1)" />
<use xlink:href="#f0_2" transform="matrix(12,0,0,12,614.8,127.1)" />
<use xlink:href="#f0_r" transform="matrix(12,0,0,12,635,127.1)" />
<use xlink:href="#f0_8" transform="matrix(12,0,0,12,640.8,127.1)" />
<use xlink:href="#f0_b" transform="matrix(12,0,0,12,653,127.1)" />
<use xlink:href="#f0_14" transform="matrix(12,0,0,12,671.6,127.1)" />
<use xlink:href="#f0_a" transform="matrix(12,0,0,12,681.2,127.1)" />
<use xlink:href="#f0_b" transform="matrix(12,0,0,12,693.3,127.1)" />
<use xlink:href="#f0_m" transform="matrix(12,0,0,12,703.7,127.1)" />
<use xlink:href="#f0_2" transform="matrix(12,0,0,12,713.7,127.1)" />
<use xlink:href="#f0_s" transform="matrix(12,0,0,12,733.9,127.1)" />
<use xlink:href="#f0_4" transform="matrix(12,0,0,12,743.6,127.1)" />
<use xlink:href="#f0_a" transform="matrix(12,0,0,12,748.7,127.1)" />
<use xlink:href="#f0_6" transform="matrix(12,0,0,12,760.7,127.1)" />
<use xlink:href="#f0_1e" transform="matrix(12,0,0,12,370.6,148.5)" />
<use xlink:href="#f0_p" transform="matrix(12,0,0,12,389,148.5)" />
<use xlink:href="#f0_e" transform="matrix(12,0,0,12,402,148.5)" />
<use xlink:href="#f0_l" transform="matrix(12,0,0,12,413.4,148.5)" />
<use xlink:href="#f0_9" transform="matrix(12,0,0,12,417.5,148.5)" />
<use xlink:href="#f0_s" transform="matrix(12,0,0,12,435.3,148.5)" />
<use xlink:href="#f0_c" transform="matrix(12,0,0,12,445.1,148.5)" />
<use xlink:href="#f0_b" transform="matrix(12,0,0,12,460.5,148.5)" />
<use xlink:href="#f0_c" transform="matrix(12,0,0,12,470.9,148.5)" />
<use xlink:href="#f0_l" transform="matrix(12,0,0,12,486.5,148.5)" />
<use xlink:href="#f0_n" transform="matrix(12,0,0,12,490.6,148.5)" />
<use xlink:href="#f0_8" transform="matrix(12,0,0,12,497.9,148.5)" />
<use xlink:href="#f0_f" transform="matrix(12,0,0,12,516,148.5)" />
<use xlink:href="#f0_l" transform="matrix(12,0,0,12,528,148.5)" />
<use xlink:href="#f0_j" transform="matrix(12,0,0,12,532.2,148.5)" />
<use xlink:href="#f0_h" transform="matrix(12,0,0,12,544.7,148.5)" />
<use xlink:href="#f0_e" transform="matrix(12,0,0,12,556.1,148.5)" />
<use xlink:href="#f0_b" transform="matrix(12,0,0,12,567.6,148.5)" />
<use xlink:href="#f0_g" transform="matrix(12,0,0,12,583.9,148.5)" />
<use xlink:href="#f0_i" transform="matrix(12,0,0,12,589.7,148.5)" />
<use xlink:href="#f0_8" transform="matrix(12,0,0,12,594.7,148.5)" />
<use xlink:href="#f0_c" transform="matrix(12,0,0,12,607,148.5)" />
<use xlink:href="#f0_f" transform="matrix(12,0,0,12,622.4,148.5)" />
<use xlink:href="#f0_2" transform="matrix(12,0,0,12,634.6,148.5)" />
<use xlink:href="#f0_r" transform="matrix(12,0,0,12,652.3,148.5)" />
<use xlink:href="#f0_i" transform="matrix(12,0,0,12,658.1,148.5)" />
<use xlink:href="#f0_c" transform="matrix(12,0,0,12,663.2,148.5)" />
<use xlink:href="#f0_14" transform="matrix(12,0,0,12,678.7,148.5)" />
<use xlink:href="#f0_t" transform="matrix(12,0,0,12,688.5,148.5)" />
<use xlink:href="#f0_l" transform="matrix(12,0,0,12,700.4,148.5)" />
<use xlink:href="#f0_c" transform="matrix(12,0,0,12,704.5,148.5)" />
<use xlink:href="#f0_6" transform="matrix(12,0,0,12,714.1,148.5)" />
<use xlink:href="#f0_f" transform="matrix(12,0,0,12,730.5,148.5)" />
<use xlink:href="#f0_a" transform="matrix(12,0,0,12,742.5,148.5)" />
<use xlink:href="#f0_4" transform="matrix(12,0,0,12,754.6,148.5)" />
<use xlink:href="#f0_8" transform="matrix(12,0,0,12,759.6,148.5)" />
</g>
<g fill="#0000FF" >
<use xlink:href="#f0_d" transform="matrix(12,0,0,12,669.9,189.1)" />
<use xlink:href="#f0_3" transform="matrix(12,0,0,12,682.9,189.1)" />
<use xlink:href="#f0_e" transform="matrix(12,0,0,12,693.1,189.1)" />
<use xlink:href="#f0_b" transform="matrix(12,0,0,12,704.6,189.1)" />
<use xlink:href="#f0_2" transform="matrix(12,0,0,12,720.9,189.1)" />
<use xlink:href="#f0_3" transform="matrix(12,0,0,12,732.8,189.1)" />
<use xlink:href="#f0_k" transform="matrix(12,0,0,12,743.2,189.1)" />
<use xlink:href="#f0_q" transform="matrix(12,0,0,12,749.6,189.1)" />
<use xlink:href="#f0_6" transform="matrix(12,0,0,12,761.5,189.1)" />
</g>
</g>
<path d="M664,191H772.1" class="g0_14" />
<g clip-path="url(#c0_14)">
<g fill="#000000" >
<use xlink:href="#f1_1i" transform="matrix(13,0,0,13,196.5,269)" />
<use xlink:href="#f1_h" transform="matrix(13,0,0,13,210.2,269)" />
<use xlink:href="#f1_p" transform="matrix(13,0,0,13,216,269)" />
<use xlink:href="#f1_d" transform="matrix(13,0,0,13,227.4,269)" />
<use xlink:href="#f1_b" transform="matrix(13,0,0,13,236.6,269)" />
<use xlink:href="#f1_b" transform="matrix(13,0,0,13,252.3,269)" />
<use xlink:href="#f1_f" transform="matrix(13,0,0,13,262.5,269)" />
<use xlink:href="#f1_c" transform="matrix(13,0,0,13,271.6,269)" />
<use xlink:href="#f1_d" transform="matrix(13,0,0,13,280.8,269)" />
<use xlink:href="#f1_b" transform="matrix(13,0,0,13,290.1,269)" />
<use xlink:href="#f1_1q" transform="matrix(13,0,0,13,305.6,269)" />
<use xlink:href="#f1_o" transform="matrix(13,0,0,13,320.4,269)" />
<use xlink:href="#f1_r" transform="matrix(13,0,0,13,330.6,269)" />
<use xlink:href="#f1_b" transform="matrix(13,0,0,13,342.1,269)" />
<use xlink:href="#f0_4" transform="matrix(12,0,0,12,137.8,290.4)" />
<use xlink:href="#f0_n" transform="matrix(12,0,0,12,142.8,290.4)" />
<use xlink:href="#f0_2" transform="matrix(12,0,0,12,150.2,290.4)" />
<use xlink:href="#f0_a" transform="matrix(12,0,0,12,162.1,290.4)" />
<use xlink:href="#f0_4" transform="matrix(12,0,0,12,174,290.4)" />
<use xlink:href="#f0_f" transform="matrix(12,0,0,12,192.4,290.4)" />
<use xlink:href="#f0_c" transform="matrix(12,0,0,12,204.6,290.4)" />
<use xlink:href="#f0_j" transform="matrix(12,0,0,12,214.3,290.4)" />
<use xlink:href="#f0_4" transform="matrix(12,0,0,12,226.8,290.4)" />
<use xlink:href="#f0_d" transform="matrix(12,0,0,12,231.8,290.4)" />
<use xlink:href="#f0_j" transform="matrix(12,0,0,12,244.8,290.4)" />
<use xlink:href="#f0_6" transform="matrix(12,0,0,12,257.3,290.4)" />
<use xlink:href="#f0_4" transform="matrix(12,0,0,12,281.2,290.4)" />
<use xlink:href="#f0_6" transform="matrix(12,0,0,12,286.3,290.4)" />
<use xlink:href="#f0_p" transform="matrix(12,0,0,12,296.8,290.4)" />
<use xlink:href="#f0_g" transform="matrix(12,0,0,12,323.3,290.4)" />
<use xlink:href="#f0_2" transform="matrix(12,0,0,12,329.2,290.4)" />
<use xlink:href="#f0_e" transform="matrix(12,0,0,12,341.1,290.4)" />
<use xlink:href="#f0_4" transform="matrix(12,0,0,12,352.5,290.4)" />
<use xlink:href="#f0_d" transform="matrix(12,0,0,12,357.4,290.4)" />
<use xlink:href="#f0_2" transform="matrix(12,0,0,12,383.9,290.4)" />
<use xlink:href="#f0_t" transform="matrix(12,0,0,12,395.9,290.4)" />
<use xlink:href="#f0_l" transform="matrix(12,0,0,12,407.8,290.4)" />
<use xlink:href="#f0_9" transform="matrix(12,0,0,12,411.9,290.4)" />
<use xlink:href="#f0_2" transform="matrix(12,0,0,12,423.8,290.4)" />
<use xlink:href="#f0_a" transform="matrix(12,0,0,12,449.2,290.4)" />
<use xlink:href="#f0_3" transform="matrix(12,0,0,12,461.3,290.4)" />
<use xlink:href="#f0_6" transform="matrix(12,0,0,12,471.7,290.4)" />
<use xlink:href="#f0_q" transform="matrix(12,0,0,12,482.2,290.4)" />
<use xlink:href="#f0_6" transform="matrix(12,0,0,12,494.1,290.4)" />
<use xlink:href="#f0_4" transform="matrix(12,0,0,12,518.1,290.4)" />
<use xlink:href="#f0_n" transform="matrix(12,0,0,12,523.1,290.4)" />
<use xlink:href="#f0_a" transform="matrix(12,0,0,12,530.4,290.4)" />
<use xlink:href="#f0_t" transform="matrix(12,0,0,12,542.5,290.4)" />
<use xlink:href="#f0_l" transform="matrix(12,0,0,12,554.4,290.4)" />
<use xlink:href="#f0_9" transform="matrix(12,0,0,12,558.3,290.4)" />
<use xlink:href="#f0_b" transform="matrix(12,0,0,12,570.2,290.4)" />
<use xlink:href="#f0_f" transform="matrix(12,0,0,12,594.2,290.4)" />
<use xlink:href="#f0_l" transform="matrix(12,0,0,12,606.4,290.4)" />
<use xlink:href="#f0_8" transform="matrix(12,0,0,12,610.5,290.4)" />
<use xlink:href="#f0_6" transform="matrix(12,0,0,12,622.7,290.4)" />
<use xlink:href="#f0_2" transform="matrix(12,0,0,12,633.3,290.4)" />
<use xlink:href="#f0_f" transform="matrix(12,0,0,12,658.6,290.4)" />
<use xlink:href="#f0_l" transform="matrix(12,0,0,12,670.8,290.4)" />
<use xlink:href="#f0_c" transform="matrix(12,0,0,12,674.9,290.4)" />
<use xlink:href="#f0_4" transform="matrix(12,0,0,12,684.5,290.4)" />
<use xlink:href="#f0_3" transform="matrix(12,0,0,12,689.5,290.4)" />
<use xlink:href="#f0_6" transform="matrix(12,0,0,12,699.9,290.4)" />
<use xlink:href="#f0_x" transform="matrix(12,0,0,12,724,290.4)" />
<use xlink:href="#f0_i" transform="matrix(12,0,0,12,730.1,290.4)" />
<use xlink:href="#f0_9" transform="matrix(12,0,0,12,735,290.4)" />
<use xlink:href="#f0_e" transform="matrix(12,0,0,12,746.9,290.4)" />
<use xlink:href="#f0_d" transform="matrix(12,0,0,12,758.4,290.4)" />
<use xlink:href="#f0_o" transform="matrix(12,0,0,12,471.3,311.8)" />
<use xlink:href="#f0_n" transform="matrix(12,0,0,12,478.8,311.8)" />
<use xlink:href="#f0_l" transform="matrix(12,0,0,12,486.1,311.8)" />
<use xlink:href="#f0_8" transform="matrix(12,0,0,12,490.2,311.8)" />
<use xlink:href="#f0_4" transform="matrix(12,0,0,12,502.5,311.8)" />
<use xlink:href="#f0_6" transform="matrix(12,0,0,12,507.5,311.8)" />
<use xlink:href="#f0_t" transform="matrix(12,0,0,12,524,311.8)" />
<use xlink:href="#f0_4" transform="matrix(12,0,0,12,535.9,311.8)" />
<use xlink:href="#f0_9" transform="matrix(12,0,0,12,540.9,311.8)" />
<use xlink:href="#f0_j" transform="matrix(12,0,0,12,552.8,311.8)" />
<use xlink:href="#f0_6" transform="matrix(12,0,0,12,565.3,311.8)" />
<use xlink:href="#f0_f" transform="matrix(12,0,0,12,581.8,311.8)" />
<use xlink:href="#f0_l" transform="matrix(12,0,0,12,594,311.8)" />
<use xlink:href="#f0_t" transform="matrix(12,0,0,12,598.1,311.8)" />
<use xlink:href="#f0_9" transform="matrix(12,0,0,12,609.9,311.8)" />
<use xlink:href="#f0_4" transform="matrix(12,0,0,12,627.9,311.8)" />
<use xlink:href="#f0_n" transform="matrix(12,0,0,12,632.9,311.8)" />
<use xlink:href="#f0_8" transform="matrix(12,0,0,12,640.2,311.8)" />
<use xlink:href="#f0_1f" transform="matrix(12,0,0,12,658.5,311.8)" />
<use xlink:href="#f0_4" transform="matrix(12,0,0,12,665.9,311.8)" />
<use xlink:href="#f0_n" transform="matrix(12,0,0,12,670.9,311.8)" />
<use xlink:href="#f0_b" transform="matrix(12,0,0,12,678.2,311.8)" />
<use xlink:href="#f0_p" transform="matrix(12,0,0,12,688.6,311.8)" />
<use xlink:href="#f0_2" transform="matrix(12,0,0,12,707.7,311.8)" />
<use xlink:href="#f0_t" transform="matrix(12,0,0,12,719.6,311.8)" />
<use xlink:href="#f0_l" transform="matrix(12,0,0,12,731.5,311.8)" />
<use xlink:href="#f0_9" transform="matrix(12,0,0,12,735.5,311.8)" />
<use xlink:href="#f0_2" transform="matrix(12,0,0,12,747.4,311.8)" />
<use xlink:href="#f0_j" transform="matrix(12,0,0,12,759.3,311.8)" />
<use xlink:href="#f0_1a" transform="matrix(12,0,0,12,429.6,311.8)" />
<use xlink:href="#f0_1d" transform="matrix(12,0,0,12,441.2,311.8)" />
<use xlink:href="#f0_1a" transform="matrix(12,0,0,12,452.8,311.8)" />
<use xlink:href="#f0_8" transform="matrix(12,0,0,12,278.5,311.8)" />
<use xlink:href="#f0_4" transform="matrix(12,0,0,12,290.7,311.8)" />
<use xlink:href="#f0_2" transform="matrix(12,0,0,12,295.7,311.8)" />
<use xlink:href="#f0_2" transform="matrix(12,0,0,12,313.7,311.8)" />
<use xlink:href="#f0_t" transform="matrix(12,0,0,12,325.6,311.8)" />
<use xlink:href="#f0_l" transform="matrix(12,0,0,12,337.5,311.8)" />
<use xlink:href="#f0_9" transform="matrix(12,0,0,12,341.6,311.8)" />
<use xlink:href="#f0_2" transform="matrix(12,0,0,12,353.5,311.8)" />
<use xlink:href="#f0_3" transform="matrix(12,0,0,12,371.5,311.8)" />
<use xlink:href="#f0_e" transform="matrix(12,0,0,12,381.9,311.8)" />
<use xlink:href="#f0_t" transform="matrix(12,0,0,12,393.2,311.8)" />
<use xlink:href="#f0_j" transform="matrix(12,0,0,12,405.1,311.8)" />
<use xlink:href="#f0_g" transform="matrix(12,0,0,12,423.7,311.8)" />
<use xlink:href="#f2_2" transform="matrix(11,0,0,11,214.3,311.8)" />
<use xlink:href="#f2_14" transform="matrix(11,0,0,11,226.4,311.8)" />
<use xlink:href="#f2_1z" transform="matrix(11,0,0,11,238.5,311.8)" />
<use xlink:href="#f2_1w" transform="matrix(11,0,0,11,246.9,311.8)" />
<use xlink:href="#f2_20" transform="matrix(11,0,0,11,255.3,311.8)" />
<use xlink:href="#f2_1x" transform="matrix(11,0,0,11,263.7,311.8)" />
<use xlink:href="#f0_8" transform="matrix(12,0,0,12,137.8,311.8)" />
<use xlink:href="#f0_4" transform="matrix(12,0,0,12,150,311.8)" />
<use xlink:href="#f0_2" transform="matrix(12,0,0,12,155.1,311.8)" />
<use xlink:href="#f0_l" transform="matrix(12,0,0,12,173.1,311.8)" />
<use xlink:href="#f0_j" transform="matrix(12,0,0,12,177.2,311.8)" />
<use xlink:href="#f0_p" transform="matrix(12,0,0,12,189.6,311.8)" />
<use xlink:href="#f0_g" transform="matrix(12,0,0,12,208.6,311.8)" />
<use xlink:href="#f0_g" transform="matrix(12,0,0,12,137.8,333.2)" />
<use xlink:href="#f0_f" transform="matrix(12,0,0,12,143.6,333.2)" />
<use xlink:href="#f0_c" transform="matrix(12,0,0,12,155.8,333.2)" />
<use xlink:href="#f0_b" transform="matrix(12,0,0,12,165.5,333.2)" />
<use xlink:href="#f0_p" transform="matrix(12,0,0,12,175.8,333.2)" />
<use xlink:href="#f0_m" transform="matrix(12,0,0,12,196.1,333.2)" />
<use xlink:href="#f0_4" transform="matrix(12,0,0,12,206.2,333.2)" />
<use xlink:href="#f0_l" transform="matrix(12,0,0,12,211.2,333.2)" />
<use xlink:href="#f0_5" transform="matrix(12,0,0,12,215.3,333.2)" />
<use xlink:href="#f0_2" transform="matrix(12,0,0,12,226.2,333.2)" />
<use xlink:href="#f0_f" transform="matrix(12,0,0,12,245.4,333.2)" />
<use xlink:href="#f0_h" transform="matrix(12,0,0,12,257.6,333.2)" />
<use xlink:href="#f0_a" transform="matrix(12,0,0,12,276.4,333.2)" />
<use xlink:href="#f0_4" transform="matrix(12,0,0,12,288.4,333.2)" />
<use xlink:href="#f0_3" transform="matrix(12,0,0,12,293.3,333.2)" />
<use xlink:href="#f0_l" transform="matrix(12,0,0,12,303.7,333.2)" />
<use xlink:href="#f0_2" transform="matrix(12,0,0,12,307.8,333.2)" />
<use xlink:href="#f0_k" transform="matrix(12,0,0,12,319.7,333.2)" />
<use xlink:href="#f0_2" transform="matrix(12,0,0,12,333.6,333.2)" />
<use xlink:href="#f0_p" transform="matrix(12,0,0,12,345.5,333.2)" />
<use xlink:href="#f0_d" transform="matrix(12,0,0,12,358.5,333.2)" />
<use xlink:href="#f0_6" transform="matrix(12,0,0,12,371.4,333.2)" />
<use xlink:href="#f0_6" transform="matrix(12,0,0,12,382,333.2)" />
<use xlink:href="#f0_g" transform="matrix(12,0,0,12,400,333.2)" />
<use xlink:href="#f0_4" transform="matrix(12,0,0,12,405.8,333.2)" />
<use xlink:href="#f0_k" transform="matrix(12,0,0,12,410.7,333.2)" />
<use xlink:href="#f0_2" transform="matrix(12,0,0,12,424.6,333.2)" />
<use xlink:href="#f0_t" transform="matrix(12,0,0,12,436.5,333.2)" />
<use xlink:href="#f0_l" transform="matrix(12,0,0,12,448.4,333.2)" />
<use xlink:href="#f0_9" transform="matrix(12,0,0,12,452.5,333.2)" />
<use xlink:href="#f0_6" transform="matrix(12,0,0,12,464.4,333.2)" />
<use xlink:href="#f0_f" transform="matrix(12,0,0,12,482.2,333.2)" />
<use xlink:href="#f0_c" transform="matrix(12,0,0,12,494.4,333.2)" />
<use xlink:href="#f0_b" transform="matrix(12,0,0,12,504.1,333.2)" />
<use xlink:href="#f0_p" transform="matrix(12,0,0,12,514.4,333.2)" />
<use xlink:href="#f0_t" transform="matrix(12,0,0,12,534.7,333.2)" />
<use xlink:href="#f0_l" transform="matrix(12,0,0,12,546.6,333.2)" />
<use xlink:href="#f0_l" transform="matrix(12,0,0,12,550.7,333.2)" />
<use xlink:href="#f0_9" transform="matrix(12,0,0,12,554.8,333.2)" />
<use xlink:href="#f0_2" transform="matrix(12,0,0,12,566.7,333.2)" />
<use xlink:href="#f0_l" transform="matrix(12,0,0,12,585.9,333.2)" />
<use xlink:href="#f0_n" transform="matrix(12,0,0,12,590.1,333.2)" />
<use xlink:href="#f0_8" transform="matrix(12,0,0,12,597.4,333.2)" />
<use xlink:href="#f0_4" transform="matrix(12,0,0,12,609.6,333.2)" />
<use xlink:href="#f0_t" transform="matrix(12,0,0,12,622,333.2)" />
<use xlink:href="#f0_d" transform="matrix(12,0,0,12,633.9,333.2)" />
<use xlink:href="#f0_4" transform="matrix(12,0,0,12,646.8,333.2)" />
<use xlink:href="#f0_e" transform="matrix(12,0,0,12,651.9,333.2)" />
<use xlink:href="#f0_2" transform="matrix(12,0,0,12,670.6,333.2)" />
<use xlink:href="#f0_9" transform="matrix(12,0,0,12,682.5,333.2)" />
<use xlink:href="#f0_n" transform="matrix(12,0,0,12,694.4,333.2)" />
<use xlink:href="#f0_t" transform="matrix(12,0,0,12,701.8,333.2)" />
<use xlink:href="#f0_l" transform="matrix(12,0,0,12,713.7,333.2)" />
<use xlink:href="#f0_4" transform="matrix(12,0,0,12,717.6,333.2)" />
<use xlink:href="#f0_i" transform="matrix(12,0,0,12,730.1,333.2)" />
<use xlink:href="#f0_9" transform="matrix(12,0,0,12,735,333.2)" />
<use xlink:href="#f0_e" transform="matrix(12,0,0,12,746.9,333.2)" />
<use xlink:href="#f0_d" transform="matrix(12,0,0,12,758.4,333.2)" />
<use xlink:href="#f0_f" transform="matrix(12,0,0,12,138,354.6)" />
<use xlink:href="#f0_l" transform="matrix(12,0,0,12,150.2,354.6)" />
<use xlink:href="#f0_t" transform="matrix(12,0,0,12,154.3,354.6)" />
<use xlink:href="#f0_l" transform="matrix(12,0,0,12,166.2,354.6)" />
<use xlink:href="#f0_9" transform="matrix(12,0,0,12,170.3,354.6)" />
<use xlink:href="#f0_3" transform="matrix(12,0,0,12,182.2,354.6)" />
<use xlink:href="#f0_c" transform="matrix(12,0,0,12,192.6,354.6)" />
<use xlink:href="#f0_2" transform="matrix(12,0,0,12,202.2,354.6)" />
<use xlink:href="#f0_a" transform="matrix(12,0,0,12,221.1,354.6)" />
<use xlink:href="#f0_8" transform="matrix(12,0,0,12,233.1,354.6)" />
<use xlink:href="#f0_4" transform="matrix(12,0,0,12,252.5,354.6)" />
<use xlink:href="#f0_o" transform="matrix(12,0,0,12,257.5,354.6)" />
<use xlink:href="#f0_l" transform="matrix(12,0,0,12,265,354.6)" />
<use xlink:href="#f0_5" transform="matrix(12,0,0,12,269.1,354.6)" />
<use xlink:href="#f0_2" transform="matrix(12,0,0,12,280,354.6)" />
<use xlink:href="#f0_2" transform="matrix(12,0,0,12,299,354.6)" />
<use xlink:href="#f0_p" transform="matrix(12,0,0,12,310.9,354.6)" />
<use xlink:href="#f0_d" transform="matrix(12,0,0,12,323.9,354.6)" />
<use xlink:href="#f0_6" transform="matrix(12,0,0,12,336.9,354.6)" />
<use xlink:href="#f0_6" transform="matrix(12,0,0,12,347.4,354.6)" />
<use xlink:href="#f0_4" transform="matrix(12,0,0,12,358,354.6)" />
<use xlink:href="#f0_g" transform="matrix(12,0,0,12,370.1,354.6)" />
<use xlink:href="#f0_f" transform="matrix(12,0,0,12,375.9,354.6)" />
<use xlink:href="#f0_l" transform="matrix(12,0,0,12,388,354.6)" />
<use xlink:href="#f0_h" transform="matrix(12,0,0,12,392.1,354.6)" />
<use xlink:href="#f0_t" transform="matrix(12,0,0,12,403.6,354.6)" />
<use xlink:href="#f0_4" transform="matrix(12,0,0,12,415.5,354.6)" />
<use xlink:href="#f0_n" transform="matrix(12,0,0,12,420.5,354.6)" />
<use xlink:href="#f0_2" transform="matrix(12,0,0,12,427.8,354.6)" />
<use xlink:href="#f0_a" transform="matrix(12,0,0,12,446.7,354.6)" />
<use xlink:href="#f0_4" transform="matrix(12,0,0,12,458.8,354.6)" />
<use xlink:href="#f0_q" transform="matrix(12,0,0,12,463.8,354.6)" />
<use xlink:href="#f0_l" transform="matrix(12,0,0,12,475.7,354.6)" />
<use xlink:href="#f0_9" transform="matrix(12,0,0,12,479.8,354.6)" />
<use xlink:href="#f0_6" transform="matrix(12,0,0,12,491.7,354.6)" />
<use xlink:href="#f0_i" transform="matrix(12,0,0,12,509.2,354.6)" />
<use xlink:href="#f0_h" transform="matrix(12,0,0,12,514.3,354.6)" />
<use xlink:href="#f0_j" transform="matrix(12,0,0,12,525.7,354.6)" />
<use xlink:href="#f0_b" transform="matrix(12,0,0,12,538.2,354.6)" />
<use xlink:href="#f0_f" transform="matrix(12,0,0,12,555.6,354.6)" />
<use xlink:href="#f0_c" transform="matrix(12,0,0,12,567.8,354.6)" />
<use xlink:href="#f0_l" transform="matrix(12,0,0,12,577.4,354.6)" />
<use xlink:href="#f0_6" transform="matrix(12,0,0,12,581.6,354.6)" />
<use xlink:href="#f0_p" transform="matrix(12,0,0,12,592.1,354.6)" />
<use xlink:href="#f0_4" transform="matrix(12,0,0,12,605.1,354.6)" />
<use xlink:href="#f0_j" transform="matrix(12,0,0,12,610.1,354.6)" />
<use xlink:href="#f0_b" transform="matrix(12,0,0,12,622.6,354.6)" />
<use xlink:href="#f0_a" transform="matrix(12,0,0,12,640,354.6)" />
<use xlink:href="#f0_q" transform="matrix(12,0,0,12,652,354.6)" />
<use xlink:href="#f0_a" transform="matrix(12,0,0,12,663.9,354.6)" />
<use xlink:href="#f0_j" transform="matrix(12,0,0,12,675.9,354.6)" />
<use xlink:href="#f0_4" transform="matrix(12,0,0,12,695.5,354.6)" />
<use xlink:href="#f0_a" transform="matrix(12,0,0,12,700.4,354.6)" />
<use xlink:href="#f0_4" transform="matrix(12,0,0,12,712.5,354.6)" />
<use xlink:href="#f0_8" transform="matrix(12,0,0,12,717.5,354.6)" />
<use xlink:href="#f0_4" transform="matrix(12,0,0,12,736.7,354.6)" />
<use xlink:href="#f0_j" transform="matrix(12,0,0,12,741.7,354.6)" />
<use xlink:href="#f0_l" transform="matrix(12,0,0,12,754.1,354.6)" />
<use xlink:href="#f0_p" transform="matrix(12,0,0,12,758.2,354.6)" />
<use xlink:href="#f0_g" transform="matrix(12,0,0,12,468.6,376)" />
<use xlink:href="#f0_f" transform="matrix(12,0,0,12,474.4,376)" />
<use xlink:href="#f0_c" transform="matrix(12,0,0,12,486.4,376)" />
<use xlink:href="#f0_j" transform="matrix(12,0,0,12,496.1,376)" />
<use xlink:href="#f0_j" transform="matrix(12,0,0,12,508.6,376)" />
<use xlink:href="#f0_f" transform="matrix(12,0,0,12,526.9,376)" />
<use xlink:href="#f0_a" transform="matrix(12,0,0,12,539.1,376)" />
<use xlink:href="#f0_4" transform="matrix(12,0,0,12,551,376)" />
<use xlink:href="#f0_8" transform="matrix(12,0,0,12,556,376)" />
<use xlink:href="#f0_f" transform="matrix(12,0,0,12,574.1,376)" />
<use xlink:href="#f0_l" transform="matrix(12,0,0,12,586.3,376)" />
<use xlink:href="#f0_p" transform="matrix(12,0,0,12,590.4,376)" />
<use xlink:href="#f0_d" transform="matrix(12,0,0,12,603.4,376)" />
<use xlink:href="#f0_6" transform="matrix(12,0,0,12,616.4,376)" />
<use xlink:href="#f0_j" transform="matrix(12,0,0,12,626.9,376)" />
<use xlink:href="#f0_4" transform="matrix(12,0,0,12,645.2,376)" />
<use xlink:href="#f0_n" transform="matrix(12,0,0,12,650.2,376)" />
<use xlink:href="#f0_8" transform="matrix(12,0,0,12,657.6,376)" />
<use xlink:href="#f0_3" transform="matrix(12,0,0,12,675.7,376)" />
<use xlink:href="#f0_p" transform="matrix(12,0,0,12,686.1,376)" />
<use xlink:href="#f0_8" transform="matrix(12,0,0,12,699.1,376)" />
<use xlink:href="#f0_c" transform="matrix(12,0,0,12,711.3,376)" />
<use xlink:href="#f0_f" transform="matrix(12,0,0,12,726.8,376)" />
<use xlink:href="#f0_c" transform="matrix(12,0,0,12,739,376)" />
<use xlink:href="#f0_b" transform="matrix(12,0,0,12,748.6,376)" />
<use xlink:href="#f0_p" transform="matrix(12,0,0,12,759,376)" />
<use xlink:href="#f0_f" transform="matrix(12,0,0,12,370.6,397.4)" />
<use xlink:href="#f0_l" transform="matrix(12,0,0,12,382.8,397.4)" />
<use xlink:href="#f0_6" transform="matrix(12,0,0,12,386.9,397.4)" />
<use xlink:href="#f0_p" transform="matrix(12,0,0,12,397.5,397.4)" />
<use xlink:href="#f0_4" transform="matrix(12,0,0,12,410.3,397.4)" />
<use xlink:href="#f0_j" transform="matrix(12,0,0,12,415.3,397.4)" />
<use xlink:href="#f0_m" transform="matrix(12,0,0,12,434.4,397.4)" />
<use xlink:href="#f0_5" transform="matrix(12,0,0,12,444.4,397.4)" />
<use xlink:href="#f0_b" transform="matrix(12,0,0,12,455.3,397.4)" />
<use xlink:href="#f0_r" transform="matrix(12,0,0,12,472.4,397.4)" />
<use xlink:href="#f0_b" transform="matrix(12,0,0,12,478.2,397.4)" />
<use xlink:href="#f0_8" transform="matrix(12,0,0,12,488.6,397.4)" />
<use xlink:href="#f0_j" transform="matrix(12,0,0,12,500.8,397.4)" />
<use xlink:href="#f0_p" transform="matrix(12,0,0,12,513.2,397.4)" />
<use xlink:href="#f0_j" transform="matrix(12,0,0,12,526.2,397.4)" />
<use xlink:href="#f0_4" transform="matrix(12,0,0,12,538.5,397.4)" />
<use xlink:href="#f0_i" transform="matrix(12,0,0,12,550.3,397.4)" />
<use xlink:href="#f0_l" transform="matrix(12,0,0,12,555.2,397.4)" />
<use xlink:href="#f0_j" transform="matrix(12,0,0,12,559.3,397.4)" />
<use xlink:href="#f0_l" transform="matrix(12,0,0,12,571.7,397.4)" />
<use xlink:href="#f0_j" transform="matrix(12,0,0,12,575.8,397.4)" />
<use xlink:href="#f0_a" transform="matrix(12,0,0,12,594.8,397.4)" />
<use xlink:href="#f0_4" transform="matrix(12,0,0,12,606.9,397.4)" />
<use xlink:href="#f0_8" transform="matrix(12,0,0,12,611.9,397.4)" />
<use xlink:href="#f0_5" transform="matrix(12,0,0,12,624.1,397.4)" />
<use xlink:href="#f0_j" transform="matrix(12,0,0,12,635,397.4)" />
<use xlink:href="#f0_n" transform="matrix(12,0,0,12,647.5,397.4)" />
<use xlink:href="#f0_f" transform="matrix(12,0,0,12,661.3,397.4)" />
<use xlink:href="#f0_4" transform="matrix(12,0,0,12,673.4,397.4)" />
<use xlink:href="#f0_3" transform="matrix(12,0,0,12,678.4,397.4)" />
<use xlink:href="#f0_l" transform="matrix(12,0,0,12,688.8,397.4)" />
<use xlink:href="#f0_q" transform="matrix(12,0,0,12,692.9,397.4)" />
<use xlink:href="#f0_2" transform="matrix(12,0,0,12,704.8,397.4)" />
<use xlink:href="#f0_a" transform="matrix(12,0,0,12,723.4,397.4)" />
<use xlink:href="#f0_4" transform="matrix(12,0,0,12,735.4,397.4)" />
<use xlink:href="#f0_8" transform="matrix(12,0,0,12,740.4,397.4)" />
<use xlink:href="#f0_l" transform="matrix(12,0,0,12,752.6,397.4)" />
<use xlink:href="#f0_5" transform="matrix(12,0,0,12,756.7,397.4)" />
<use xlink:href="#f0_l" transform="matrix(12,0,0,12,767.6,397.4)" />
<use xlink:href="#f0_10" transform="matrix(12,0,0,12,340.5,397.4)" />
<use xlink:href="#f0_1d" transform="matrix(12,0,0,12,352.1,397.4)" />
<use xlink:href="#f0_4" transform="matrix(12,0,0,12,329.1,397.4)" />
<use xlink:href="#f0_16" transform="matrix(12,0,0,12,299,397.4)" />
<use xlink:href="#f0_1d" transform="matrix(12,0,0,12,310.6,397.4)" />
<use xlink:href="#f0_r" transform="matrix(12,0,0,12,137.5,397.4)" />
<use xlink:href="#f0_i" transform="matrix(12,0,0,12,143.3,397.4)" />
<use xlink:href="#f0_4" transform="matrix(12,0,0,12,148.3,397.4)" />
<use xlink:href="#f0_d" transform="matrix(12,0,0,12,153.4,397.4)" />
<use xlink:href="#f0_n" transform="matrix(12,0,0,12,166.3,397.4)" />
<use xlink:href="#f0_d" transform="matrix(12,0,0,12,173.7,397.4)" />
<use xlink:href="#f0_b" transform="matrix(12,0,0,12,186.7,397.4)" />
<use xlink:href="#f0_f" transform="matrix(12,0,0,12,203.6,397.4)" />
<use xlink:href="#f0_l" transform="matrix(12,0,0,12,215.8,397.4)" />
<use xlink:href="#f0_h" transform="matrix(12,0,0,12,219.8,397.4)" />
<use xlink:href="#f0_l" transform="matrix(12,0,0,12,231.2,397.4)" />
<use xlink:href="#f0_o" transform="matrix(12,0,0,12,235.3,397.4)" />
<use xlink:href="#f0_j" transform="matrix(12,0,0,12,242.8,397.4)" />
<use xlink:href="#f0_4" transform="matrix(12,0,0,12,261.9,397.4)" />
<use xlink:href="#f0_n" transform="matrix(12,0,0,12,266.9,397.4)" />
<use xlink:href="#f0_8" transform="matrix(12,0,0,12,274.2,397.4)" />
<use xlink:href="#f0_g" transform="matrix(12,0,0,12,293.1,397.4)" />
<use xlink:href="#f0_f" transform="matrix(12,0,0,12,138,418.8)" />
<use xlink:href="#f0_l" transform="matrix(12,0,0,12,150.2,418.8)" />
<use xlink:href="#f0_n" transform="matrix(12,0,0,12,154.3,418.8)" />
<use xlink:href="#f0_4" transform="matrix(12,0,0,12,161.6,418.8)" />
<use xlink:href="#f0_c" transform="matrix(12,0,0,12,166.6,418.8)" />
<use xlink:href="#f0_3" transform="matrix(12,0,0,12,176.3,418.8)" />
<use xlink:href="#f0_m" transform="matrix(12,0,0,12,186.5,418.8)" />
<use xlink:href="#f0_2" transform="matrix(12,0,0,12,196.6,418.8)" />
<use xlink:href="#f0_a" transform="matrix(12,0,0,12,218.7,418.8)" />
<use xlink:href="#f0_8" transform="matrix(12,0,0,12,230.7,418.8)" />
<use xlink:href="#f0_i" transform="matrix(12,0,0,12,253.1,418.8)" />
<use xlink:href="#f0_l" transform="matrix(12,0,0,12,258.2,418.8)" />
<use xlink:href="#f0_c" transform="matrix(12,0,0,12,262.3,418.8)" />
<use xlink:href="#f0_2" transform="matrix(12,0,0,12,271.9,418.8)" />
<use xlink:href="#f0_b" transform="matrix(12,0,0,12,283.8,418.8)" />
<use xlink:href="#f0_2" transform="matrix(12,0,0,12,304.6,418.8)" />
<use xlink:href="#f0_p" transform="matrix(12,0,0,12,316.5,418.8)" />
<use xlink:href="#f0_d" transform="matrix(12,0,0,12,329.5,418.8)" />
<use xlink:href="#f0_6" transform="matrix(12,0,0,12,342.4,418.8)" />
<use xlink:href="#f0_6" transform="matrix(12,0,0,12,353,418.8)" />
<use xlink:href="#f0_r" transform="matrix(12,0,0,12,373.7,418.8)" />
<use xlink:href="#f0_i" transform="matrix(12,0,0,12,379.5,418.8)" />
<use xlink:href="#f0_4" transform="matrix(12,0,0,12,384.5,418.8)" />
<use xlink:href="#f0_d" transform="matrix(12,0,0,12,389.6,418.8)" />
<use xlink:href="#f0_n" transform="matrix(12,0,0,12,402.5,418.8)" />
<use xlink:href="#f0_d" transform="matrix(12,0,0,12,409.9,418.8)" />
<use xlink:href="#f0_b" transform="matrix(12,0,0,12,422.9,418.8)" />
<use xlink:href="#f0_f" transform="matrix(12,0,0,12,443.4,418.8)" />
<use xlink:href="#f0_l" transform="matrix(12,0,0,12,455.5,418.8)" />
<use xlink:href="#f0_h" transform="matrix(12,0,0,12,459.6,418.8)" />
<use xlink:href="#f0_l" transform="matrix(12,0,0,12,471.1,418.8)" />
<use xlink:href="#f0_o" transform="matrix(12,0,0,12,475.2,418.8)" />
<use xlink:href="#f0_j" transform="matrix(12,0,0,12,482.7,418.8)" />
<use xlink:href="#f0_4" transform="matrix(12,0,0,12,505.4,418.8)" />
<use xlink:href="#f0_n" transform="matrix(12,0,0,12,510.4,418.8)" />
<use xlink:href="#f0_8" transform="matrix(12,0,0,12,517.7,418.8)" />
<use xlink:href="#f0_p" transform="matrix(12,0,0,12,530,418.8)" />
<use xlink:href="#f0_c" transform="matrix(12,0,0,12,542.9,418.8)" />
<use xlink:href="#f0_g" transform="matrix(12,0,0,12,562.8,418.8)" />
<use xlink:href="#f0_a" transform="matrix(12,0,0,12,568.6,418.8)" />
<use xlink:href="#f0_4" transform="matrix(12,0,0,12,580.6,418.8)" />
<use xlink:href="#f0_h" transform="matrix(12,0,0,12,585.6,418.8)" />
<use xlink:href="#f0_p" transform="matrix(12,0,0,12,597.1,418.8)" />
<use xlink:href="#f0_h" transform="matrix(12,0,0,12,620.3,418.8)" />
<use xlink:href="#f0_6" transform="matrix(12,0,0,12,631.7,418.8)" />
<use xlink:href="#f0_3" transform="matrix(12,0,0,12,642.3,418.8)" />
<use xlink:href="#f0_8" transform="matrix(12,0,0,12,652.7,418.8)" />
<use xlink:href="#f0_s" transform="matrix(12,0,0,12,675.1,418.8)" />
<use xlink:href="#f0_4" transform="matrix(12,0,0,12,684.9,418.8)" />
<use xlink:href="#f0_a" transform="matrix(12,0,0,12,689.8,418.8)" />
<use xlink:href="#f0_4" transform="matrix(12,0,0,12,712,418.8)" />
<use xlink:href="#f0_d" transform="matrix(12,0,0,12,717,418.8)" />
<use xlink:href="#f0_l" transform="matrix(12,0,0,12,730,418.8)" />
<use xlink:href="#f0_t" transform="matrix(12,0,0,12,734.1,418.8)" />
<use xlink:href="#f0_d" transform="matrix(12,0,0,12,746,418.8)" />
<use xlink:href="#f0_j" transform="matrix(12,0,0,12,758.9,418.8)" />
<use xlink:href="#f0_g" transform="matrix(12,0,0,12,462.3,440.2)" />
<use xlink:href="#f0_3" transform="matrix(12,0,0,12,468.1,440.2)" />
<use xlink:href="#f0_a" transform="matrix(12,0,0,12,478.3,440.2)" />
<use xlink:href="#f0_4" transform="matrix(12,0,0,12,490.4,440.2)" />
<use xlink:href="#f0_l" transform="matrix(12,0,0,12,495.4,440.2)" />
<use xlink:href="#f0_2" transform="matrix(12,0,0,12,505.5,440.2)" />
<use xlink:href="#f0_b" transform="matrix(12,0,0,12,517.4,440.2)" />
<use xlink:href="#f0_d" transform="matrix(12,0,0,12,527.8,440.2)" />
<use xlink:href="#f0_2" transform="matrix(12,0,0,12,546.7,440.2)" />
<use xlink:href="#f0_t" transform="matrix(12,0,0,12,558.6,440.2)" />
<use xlink:href="#f0_l" transform="matrix(12,0,0,12,570.5,440.2)" />
<use xlink:href="#f0_n" transform="matrix(12,0,0,12,574.6,440.2)" />
<use xlink:href="#f0_c" transform="matrix(12,0,0,12,581.9,440.2)" />
<use xlink:href="#f0_2" transform="matrix(12,0,0,12,591.6,440.2)" />
<use xlink:href="#f0_a" transform="matrix(12,0,0,12,609.3,440.2)" />
<use xlink:href="#f0_8" transform="matrix(12,0,0,12,621.3,440.2)" />
<use xlink:href="#f0_a" transform="matrix(12,0,0,12,639.4,440.2)" />
<use xlink:href="#f0_4" transform="matrix(12,0,0,12,651.4,440.2)" />
<use xlink:href="#f0_p" transform="matrix(12,0,0,12,656.5,440.2)" />
<use xlink:href="#f0_h" transform="matrix(12,0,0,12,669.4,440.2)" />
<use xlink:href="#f0_b" transform="matrix(12,0,0,12,680.9,440.2)" />
<use xlink:href="#f0_l" transform="matrix(12,0,0,12,697.1,440.2)" />
<use xlink:href="#f0_m" transform="matrix(12,0,0,12,701.2,440.2)" />
<use xlink:href="#f0_c" transform="matrix(12,0,0,12,711.3,440.2)" />
<use xlink:href="#f0_f" transform="matrix(12,0,0,12,726.7,440.2)" />
<use xlink:href="#f0_c" transform="matrix(12,0,0,12,738.9,440.2)" />
<use xlink:href="#f0_b" transform="matrix(12,0,0,12,748.5,440.2)" />
<use xlink:href="#f0_p" transform="matrix(12,0,0,12,758.9,440.2)" />
</g>
<g fill="#0000FF" >
<use xlink:href="#f0_d" transform="matrix(12,0,0,12,669.9,480.8)" />
<use xlink:href="#f0_3" transform="matrix(12,0,0,12,682.9,480.8)" />
<use xlink:href="#f0_e" transform="matrix(12,0,0,12,693.1,480.8)" />
<use xlink:href="#f0_b" transform="matrix(12,0,0,12,704.6,480.8)" />
<use xlink:href="#f0_2" transform="matrix(12,0,0,12,720.9,480.8)" />
<use xlink:href="#f0_3" transform="matrix(12,0,0,12,732.8,480.8)" />
<use xlink:href="#f0_k" transform="matrix(12,0,0,12,743.2,480.8)" />
<use xlink:href="#f0_q" transform="matrix(12,0,0,12,749.6,480.8)" />
<use xlink:href="#f0_6" transform="matrix(12,0,0,12,761.5,480.8)" />
</g>
</g>
<path d="M664,482.6H772.1" class="g0_14" />
<g clip-path="url(#c0_14)">
<g fill="#000000" >
<use xlink:href="#f0_z" transform="matrix(11,0,0,11,137.5,1208.9)" />
<use xlink:href="#f0_16" transform="matrix(11,0,0,11,148.2,1208.9)" />
</g>
</g>
<image preserveAspectRatio="none" x="716" y="208" width="61" height="63" xlink:href="img/1.png" />
<defs>
<path d="M102,312V836H241V369L102,312Z" 
id="f0_l"
transform="scale(0.001,-0.001)" />

<path d="M112,-5c0,0,-39,0,-97,11V113c0,0,48,-10,77,-10c0,0,53,0,70,42c0,0,17,43,17,164V729H50V836H501c0,0,107,0,179,-25c0,0,72,-25,112,-77c0,0,40,-51,57,-118c0,0,16,-67,16,-164V0H726V454c0,0,0,55,-3,92c0,0,-4,37,-17,75c0,0,-14,38,-38,59c0,0,-24,22,-65,36c0,0,-42,13,-102,13H318V309c0,0,0,-160,-46,-237C272,72,226,-5,112,-5Z" 
id="f0_a"
transform="scale(0.001,-0.001)" />

<path d="M114,0l60,312c0,0,2,12,8,39c0,0,6,27,7,37c0,0,2,11,5,30c0,0,2,19,4,33c0,0,1,15,1,31c0,0,0,48,-35,146c0,0,-35,98,-98,208H228c0,0,3,-8,27,-67c0,0,25,-58,41,-117c0,0,21,53,50,90c0,0,29,37,57,57c0,0,29,21,65,32c0,0,37,11,65,14c0,0,28,3,67,3c0,0,300,0,300,-396V0H480V106H761V452c0,0,0,146,-46,215c0,0,-45,70,-118,70c0,0,-134,0,-198,-119c0,0,-36,-68,-67,-222c0,0,-2,-10,-6,-27L253,0Z" 
id="f0_j"
transform="scale(0.001,-0.001)" />

<path d="M180,0L66,836H203L258,443c0,0,36,1,64,6c0,0,28,6,49,18c0,0,20,12,35,26c0,0,15,13,26,36c0,0,11,24,17,44c0,0,7,20,12,55c0,0,6,34,9,60c0,0,3,26,8,71c0,0,4,45,9,77H610c0,0,-13,-194,-31,-271c0,0,-31,-127,-111,-179c0,0,-71,-45,-196,-50L304,107c0,0,73,0,130,5c0,0,56,6,111,21c0,0,54,15,94,40c0,0,40,25,77,64c0,0,37,39,63,94c0,0,25,54,46,128c0,0,21,73,34,166c0,0,13,94,20,211h138c0,0,-14,-124,-29,-218c0,0,-16,-94,-39,-179c0,0,-22,-85,-50,-146c0,0,-28,-61,-68,-112c0,0,-39,-51,-87,-84C744,97,696,65,632,42C632,42,568,19,492,10C492,10,417,0,320,0Z" 
id="f0_p"
transform="scale(0.001,-0.001)" />

<path d="M117,-176L179,62V190H336V62L213,-176Z" 
id="f0_r"
transform="scale(0.001,-0.001)" />

<path d="M354,-200c0,0,-112,175,-167,343c0,0,-56,170,-56,337c0,0,0,166,55,335c0,0,55,169,168,345H473c0,0,-100,-172,-148,-340c0,0,-48,-168,-48,-340c0,0,0,-173,48,-342c0,0,49,-168,148,-338Z" 
id="f0_w"
transform="scale(0.001,-0.001)" />

<path d="M139,0V138c0,0,0,61,8,112c0,0,7,52,19,87c0,0,11,36,30,66c0,0,19,31,35,49c0,0,17,19,41,35c0,0,25,17,41,25c0,0,17,7,40,17L141,836H303L613,388c0,0,20,10,33,18c0,0,13,8,34,28c0,0,20,20,33,44c0,0,13,25,22,66c0,0,10,41,10,92V836H882V698c0,0,0,-61,-7,-112c0,0,-6,-52,-18,-88c0,0,-12,-36,-30,-66c0,0,-19,-30,-36,-49c0,0,-17,-18,-41,-34c0,0,-24,-17,-40,-25c0,0,-17,-8,-41,-17L882,0H720L409,448c0,0,-21,-11,-34,-19c0,0,-13,-8,-34,-27c0,0,-21,-20,-34,-44c0,0,-12,-25,-22,-66c0,0,-9,-41,-9,-92V0Z" 
id="f0_8"
transform="scale(0.001,-0.001)" />

<path d="M66,0V106H564L66,836H228L516,413c0,0,3,2,9,6c0,0,17,13,27,21c0,0,10,8,26,27c0,0,17,20,26,40c0,0,9,21,16,54c0,0,7,34,7,75V836H764V698c0,0,0,-55,-7,-102c0,0,-7,-47,-16,-79c0,0,-10,-33,-27,-62c0,0,-18,-29,-32,-46c0,0,-14,-17,-37,-35c0,0,-22,-17,-36,-25c0,0,-13,-8,-36,-20L767,53V0Z" 
id="f0_5"
transform="scale(0.001,-0.001)" />

<path d="M287,0L589,729H66v386H205V836l547,-1l-2,-82L433,0Z" 
id="f0_b"
transform="scale(0.001,-0.001)" />

<path d="M179,0V190H336V0Zm0,600V790H336V600Z" 
id="f0_x"
transform="scale(0.001,-0.001)" />

<path d="M139,0V836H278V0Z" 
id="f0_4"
transform="scale(0.001,-0.001)" />

<path d="M122,-200c0,0,99,170,148,338c0,0,49,169,49,342c0,0,0,172,-49,340c0,0,-49,168,-148,340H241c0,0,112,-176,168,-345c0,0,55,-169,55,-335c0,0,0,-167,-55,-337c0,0,-56,-168,-168,-343Z" 
id="f0_u"
transform="scale(0.001,-0.001)" />

<path d="M66,0V107H332V555c0,0,0,92,-37,133c0,0,-37,41,-116,41H85V836h94c0,0,153,0,223,-66c0,0,69,-66,69,-231V0Z" 
id="f0_n"
transform="scale(0.001,-0.001)" />

<path d="M139,0V106H400c0,0,176,0,253,71c0,0,78,72,78,250c0,0,0,163,-80,233c0,0,-81,69,-250,69H278L277,564c0,0,-1,-54,26,-80c0,0,27,-25,82,-25c0,0,30,0,80,9V355c0,0,-61,-12,-111,-12c0,0,-100,0,-157,55c0,0,-58,55,-58,186V836H456c0,0,193,0,303,-109c0,0,110,-109,110,-309c0,0,0,-200,-110,-309C759,109,648,0,456,0Z" 
id="f0_e"
transform="scale(0.001,-0.001)" />

<path d="M163,0V190H321V0Z" 
id="f0_g"
transform="scale(0.001,-0.001)" />

<path d="M736,107V473c0,0,0,147,-48,202c0,0,-49,54,-187,54H278V107ZM139,0V836H499c0,0,105,0,177,-22c0,0,72,-21,116,-69c0,0,44,-49,64,-119c0,0,19,-71,19,-174V0Z" 
id="f0_f"
transform="scale(0.001,-0.001)" />

<path d="M66,0V107H554V452c0,0,0,56,-4,93c0,0,-4,37,-18,75c0,0,-14,38,-40,60c0,0,-26,22,-71,36c0,0,-45,13,-110,13H66V836H312c0,0,91,0,157,-17c0,0,66,-17,109,-49c0,0,44,-32,69,-84c0,0,26,-52,36,-114c0,0,10,-62,10,-147V107H817V0Z" 
id="f0_6"
transform="scale(0.001,-0.001)" />

<path d="M154,0V454l138,56V0ZM722,0V454c0,0,0,161,-49,218c0,0,-48,57,-186,57H139V836H485c0,0,207,0,291,-93c0,0,83,-94,83,-318V0Z" 
id="f0_2"
transform="scale(0.001,-0.001)" />

<path d="M291,0V190H443V0Zm5,299V414c0,0,0,75,21,124c0,0,21,48,88,113l67,66c0,0,42,40,61,75c0,0,19,35,19,71c0,0,0,67,-48,108c0,0,-49,41,-130,41c0,0,-59,0,-125,-26c0,0,-67,-26,-139,-77v140c0,0,70,43,142,64c0,0,72,21,148,21c0,0,138,0,221,-72c0,0,83,-73,83,-191c0,0,0,-57,-27,-108c0,0,-27,-51,-94,-115L517,583c0,0,-34,-35,-49,-54c0,0,-14,-20,-20,-39c0,0,-5,-16,-7,-38c0,0,-2,-22,-2,-61V299Z" 
id="f0_14"
transform="scale(0.001,-0.001)" />

<path d="M495,0V729H66V836H781V729H634V0Z" 
id="f0_m"
transform="scale(0.001,-0.001)" />

<path d="M543,-317V369c0,0,0,85,-8,143c0,0,-8,58,-27,101c0,0,-18,44,-51,69c0,0,-33,24,-80,36c0,0,-48,11,-117,11H66V836H257c0,0,125,0,205,-23c0,0,80,-23,130,-79c0,0,50,-56,70,-143c0,0,20,-86,20,-222V-317Z" 
id="f0_s"
transform="scale(0.001,-0.001)" />

<path d="M176,0V190H335V0ZM685,0V190H844V0Zm508,0V190h159V0Z" 
id="f0_1e"
transform="scale(0.001,-0.001)" />

<path d="M522,-20c0,0,-196,0,-290,99c0,0,-94,100,-94,324V836H276V397c0,0,0,-86,16,-147c0,0,17,-60,50,-94c0,0,34,-34,77,-49c0,0,43,-15,103,-15c0,0,59,0,102,15c0,0,44,15,77,49c0,0,33,34,50,94c0,0,17,61,17,147c0,0,0,84,-8,143c0,0,-7,58,-25,105c0,0,-17,47,-51,69c0,0,-33,23,-83,23c0,0,-50,0,-119,-22V821c0,0,85,23,150,23c0,0,76,0,130,-30c0,0,53,-31,85,-90c0,0,31,-59,45,-138c0,0,13,-78,13,-183c0,0,0,-224,-93,-324c0,0,-94,-99,-290,-99Z" 
id="f0_9"
transform="scale(0.001,-0.001)" />

<path d="M66,0V106H322c0,0,75,0,127,23c0,0,53,23,82,67c0,0,29,43,42,98c0,0,13,54,13,124c0,0,0,70,-13,124c0,0,-13,55,-42,98c0,0,-29,44,-82,67c0,0,-52,23,-127,23H66V836H322c0,0,87,0,157,-24c0,0,70,-24,115,-64c0,0,45,-40,74,-94c0,0,30,-55,43,-113c0,0,13,-59,13,-123c0,0,0,-64,-13,-123c0,0,-13,-58,-43,-113c0,0,-29,-54,-74,-94C594,88,549,48,479,24C479,24,409,0,322,0Z" 
id="f0_c"
transform="scale(0.001,-0.001)" />

<path d="M71,-141V-15L289,62L66,836H210L416,109c0,0,99,42,153,98c0,0,53,56,80,155c0,0,26,98,26,262V836H817V624c0,0,0,-88,-7,-154c0,0,-7,-67,-25,-132c0,0,-18,-66,-51,-116c0,0,-33,-51,-84,-98c0,0,-50,-48,-123,-87c0,0,-72,-39,-169,-74L71,-141Z" 
id="f0_h"
transform="scale(0.001,-0.001)" />

<path d="M139,-317V836H278V-317Z" 
id="f0_i"
transform="scale(0.001,-0.001)" />

<path d="M522,92c0,0,247,0,247,333c0,0,0,88,-17,146c0,0,-17,58,-53,91c0,0,-35,33,-82,46c0,0,-48,14,-116,14H276V419c0,0,0,-327,246,-327Zm0,-112c0,0,-193,0,-289,109c0,0,-95,110,-95,337V836H501c0,0,213,0,309,-93c0,0,96,-94,96,-317c0,0,0,-227,-95,-337C811,89,715,-20,522,-20Z" 
id="f0_t"
transform="scale(0.001,-0.001)" />

<path d="M156,-317V454l139,56V-317ZM505,0L806,729H139V835H967V753L650,0Z" 
id="f0_d"
transform="scale(0.001,-0.001)" />

<path d="M585,0V426c0,0,0,54,-8,98c0,0,-8,44,-27,83c0,0,-19,40,-49,66c0,0,-30,26,-77,41c0,0,-47,15,-108,15H66V836H315c0,0,94,0,166,-20c0,0,71,-20,116,-54c0,0,46,-35,75,-88c0,0,28,-52,40,-112c0,0,12,-60,12,-137V0Z" 
id="f0_3"
transform="scale(0.001,-0.001)" />

<path d="M152,0V473c0,0,0,94,28,161c0,0,29,66,71,95H66V836H463V729H404c0,0,-65,0,-89,-57c0,0,-25,-58,-25,-199V0Z" 
id="f0_k"
transform="scale(0.001,-0.001)" />

<path d="M139,0V836H485c0,0,206,0,290,-90c0,0,84,-89,84,-294V0H721V473c0,0,0,147,-49,202c0,0,-48,54,-186,54H277V0Z" 
id="f0_q"
transform="scale(0.001,-0.001)" />

<path d="M26,0V54L154,74V926L27,945v55H544V945L389,926V79H593c0,0,159,0,234,15l61,208h67L927,0Z" 
id="f1_1i"
transform="scale(0.001,-0.001)" />

<path d="M34,0V49l76,18V634L38,652v49H325V67L402,49V0Zm73,834v25l124,203H443v-28L171,834Z" 
id="f1_h"
transform="scale(0.001,-0.001)" />

<path d="M41,0V49l69,18V634L41,652v49H313l11,-61l50,26c0,0,105,54,188,54c0,0,194,0,194,-207V67L827,49V0H478V49l63,18V484c0,0,0,63,-27,98c0,0,-26,35,-75,35c0,0,-57,0,-114,-25V67L389,49V0Z" 
id="f1_p"
transform="scale(0.001,-0.001)" />

<path d="M434,423c0,0,0,101,-7,142c0,0,-6,40,-22,60c0,0,-16,19,-45,19c0,0,-44,0,-66,-48c0,0,-22,-49,-22,-173ZM389,-14c0,0,-172,0,-254,89c0,0,-83,90,-83,279c0,0,0,184,79,274c0,0,79,91,238,91c0,0,142,0,206,-76c0,0,64,-76,64,-237V345H271V333c0,0,0,-111,18,-158c0,0,18,-47,58,-72c0,0,40,-25,110,-25c0,0,66,0,166,22V42C623,42,582,18,517,1c0,0,-66,-15,-128,-15Z" 
id="f1_d"
transform="scale(0.001,-0.001)" />

<path d="M345,75c0,0,50,0,110,26V351l-63,-2c0,0,-72,-3,-100,-38c0,0,-28,-35,-28,-113c0,0,0,-63,22,-93c0,0,23,-30,59,-30ZM266,-14c0,0,-217,0,-217,208c0,0,0,79,32,126c0,0,32,48,93,71c0,0,60,22,190,25l91,2V521c0,0,0,126,-104,126c0,0,-62,0,-140,-39L183,521H134V691c0,0,112,17,165,21c0,0,53,5,108,5c0,0,264,0,264,-194V67L741,49V0H483L466,54C466,54,408,14,361,0c0,0,-47,-14,-95,-14Z" 
id="f1_b"
transform="scale(0.001,-0.001)" />

<path d="M434,423c0,0,0,100,-7,141c0,0,-6,40,-22,60c0,0,-16,19,-45,19c0,0,-44,0,-66,-48c0,0,-22,-49,-22,-172ZM389,-13c0,0,-172,0,-254,89c0,0,-83,90,-83,278c0,0,0,184,79,274c0,0,79,90,238,90c0,0,142,0,206,-76c0,0,64,-76,64,-236V345H271V333c0,0,0,-111,18,-158c0,0,18,-47,58,-72c0,0,40,-25,110,-25c0,0,66,0,166,22V43C623,43,582,18,517,2c0,0,-66,-15,-128,-15ZM267,834v25l124,203H604v-28L331,834Z" 
id="f1_f"
transform="scale(0.001,-0.001)" />

<path d="M41,0V49l91,18V634L41,652v49H336l8,-145c0,0,80,89,144,128c0,0,64,40,117,40h40V468H604l-45,94c0,0,-47,0,-106,-21c0,0,-60,-20,-105,-48V67L460,49V0Z" 
id="f1_c"
transform="scale(0.001,-0.001)" />

<path d="M608,-14c0,0,-251,0,-392,133C216,119,75,252,75,488c0,0,0,257,134,390c0,0,135,133,398,133c0,0,174,0,361,-50l4,-240H905L884,866c0,0,-98,67,-229,67c0,0,-173,0,-253,-108c0,0,-80,-108,-80,-334c0,0,0,-209,84,-319c0,0,83,-109,243,-109c0,0,84,0,147,22c0,0,63,22,99,53l24,164h68L982,48C982,48,915,22,808,4C808,4,700,-14,608,-14Z" 
id="f1_1q"
transform="scale(0.001,-0.001)" />

<path d="M379,60c0,0,59,0,84,64c0,0,24,65,24,231c0,0,0,164,-24,227c0,0,-24,63,-84,63c0,0,-57,0,-80,-60c0,0,-22,-61,-22,-230c0,0,0,-173,23,-234c0,0,22,-61,79,-61Zm-2,-74c0,0,-161,0,-240,91c0,0,-79,91,-79,277c0,0,0,186,80,276c0,0,81,90,245,90c0,0,167,0,245,-93c0,0,78,-93,78,-273c0,0,0,-188,-81,-278c0,0,-81,-90,-248,-90Z" 
id="f1_o"
transform="scale(0.001,-0.001)" />

<path d="M438,65c0,0,131,0,131,293c0,0,0,279,-130,279c0,0,-69,0,-127,-29V80c0,0,60,-15,126,-15ZM20,-325v50l76,18V634L19,652v49H304l1,-36c0,0,80,55,194,55c0,0,146,0,218,-86c0,0,71,-86,71,-271c0,0,0,-183,-83,-280c0,0,-83,-97,-238,-97c0,0,-79,0,-160,19c0,0,5,-48,5,-109V-257l103,-18v-50Z" 
id="f1_r"
transform="scale(0.001,-0.001)" />

<path d="M138,-7c0,0,-34,0,-72,10V129c0,0,25,-8,52,-8c0,0,33,0,58,5c0,0,26,5,58,24c0,0,33,20,53,54c0,0,21,34,36,97c0,0,15,64,15,151c0,0,0,113,-19,173c0,0,-19,60,-56,82c0,0,-38,22,-107,22H89V836h72c0,0,165,0,240,-91c0,0,76,-91,76,-293c0,0,0,-107,26,-227c0,0,25,-119,83,-225H437c0,0,-43,101,-62,184c0,0,-24,-60,-51,-99c0,0,-26,-38,-56,-58C268,27,239,7,209,0c0,0,-30,-7,-71,-7Z" 
id="f0_o"
transform="scale(0.001,-0.001)" />

<path d="M231,0V190H382V0Zm15,359L231,625v489H382V625L367,359Z" 
id="f0_1f"
transform="scale(0.001,-0.001)" />

<path d="M280,0L660,987H125v127H841v-64L437,0Z" 
id="f0_1a"
transform="scale(0.001,-0.001)" />

<path d="M486,98c0,0,117,0,175,114c0,0,59,115,59,344c0,0,0,230,-59,344c0,0,-58,115,-175,115c0,0,-117,0,-175,-115c0,0,-59,-114,-59,-344c0,0,0,-229,59,-344c0,0,58,-114,175,-114ZM485,-20c0,0,-187,0,-285,147c0,0,-99,148,-99,429c0,0,0,282,98,430c0,0,99,148,286,148c0,0,188,0,286,-148c0,0,99,-148,99,-430c0,0,0,-281,-99,-429c0,0,-98,-147,-286,-147Z" 
id="f0_1d"
transform="scale(0.001,-0.001)" />

<path d="M681,416L504,902L333,416ZM669,0V40L803,60L704,348H310L210,60L344,40V0H15V40L128,60l341,949H611L965,60L1092,40V0Z" 
id="f2_2"
transform="scale(0.001,-0.001)" />

<path d="M44,0V40L172,60V941L44,960v40H445V960L316,941V549H787V941L659,960v40h400V960L930,941V60L1059,40V0H659V40L787,60V481H316V60L445,40V0Z" 
id="f2_14"
transform="scale(0.001,-0.001)" />

<path d="M134,0V40L339,60V876L137,804v39l292,166h39V60L672,40V0Z" 
id="f2_1z"
transform="scale(0.001,-0.001)" />

<path d="M178,0L615,886H176L150,764H101v236H720V943L274,0Z" 
id="f2_1w"
transform="scale(0.001,-0.001)" />

<path d="M67,0V109L206,235c0,0,133,118,196,190c0,0,63,72,90,149c0,0,27,77,27,177c0,0,0,97,-44,148c0,0,-44,50,-144,50c0,0,-39,0,-81,-10c0,0,-42,-11,-74,-29L150,787H101V980c0,0,135,32,230,32c0,0,164,0,247,-68c0,0,82,-69,82,-193c0,0,0,-84,-32,-158c0,0,-33,-75,-100,-148c0,0,-67,-74,-222,-206c0,0,-67,-57,-141,-125H680V0Z" 
id="f2_20"
transform="scale(0.001,-0.001)" />

<path d="M377,45c0,0,99,0,145,108c0,0,46,109,46,352c0,0,0,240,-45,345c0,0,-46,106,-146,106c0,0,-97,0,-139,-100c0,0,-43,-99,-43,-351c0,0,0,-254,44,-357c0,0,43,-103,138,-103Zm0,-59c0,0,-158,0,-238,132c0,0,-81,133,-81,386c0,0,0,249,81,380c0,0,80,132,244,132c0,0,159,0,241,-130c0,0,82,-130,82,-382c0,0,0,-518,-329,-518Z" 
id="f2_1x"
transform="scale(0.001,-0.001)" />

<path d="M111,0V127c0,0,86,89,234,238c0,0,148,150,186,193c0,0,73,81,101,138c0,0,29,56,29,110c0,0,0,89,-62,145c0,0,-62,56,-162,56c0,0,-71,0,-150,-25c0,0,-78,-24,-168,-75v153c0,0,91,37,170,55c0,0,79,19,145,19c0,0,173,0,276,-86c0,0,103,-87,103,-232c0,0,0,-68,-26,-130c0,0,-26,-61,-94,-145c0,0,-18,-22,-118,-125C575,416,475,313,293,127H818V0Z" 
id="f0_10"
transform="scale(0.001,-0.001)" />

<path d="M578,388V982L197,388ZM578,0V263H74V408l464,706H727V388H887V263H727V0Z" 
id="f0_16"
transform="scale(0.001,-0.001)" />

<path d="M190,0V127H436V977L168,923v137l267,54H586V127H832V0Z" 
id="f0_z"
transform="scale(0.001,-0.001)" />


</defs>
</svg>