<?xml version="1.0" encoding="UTF-8" standalone="no"?>
<!DOCTYPE svg PUBLIC "-//W3C//DTD SVG 1.1//EN"
"http://www.w3.org/Graphics/SVG/1.1/DTD/svg11.dtd">
<svg viewBox="0 0 909 1286" version="1.1" xmlns="http://www.w3.org/2000/svg" xmlns:xlink="http://www.w3.org/1999/xlink">
<defs>
<clipPath id="c0_15"><path d="M0,1286.2V0H909.4V1286.2Z" /></clipPath>
<style type="text/css"><![CDATA[
.g0_15{
fill: #D8D8D8;
}
.g1_15{
fill: none;
stroke: #000000;
stroke-width: 0.7638889;
stroke-linecap: butt;
stroke-linejoin: round;
}
.g2_15{
fill: none;
stroke: #0000FF;
stroke-width: 1.0694444;
stroke-linecap: butt;
stroke-linejoin: miter;
}
.g3_15{
fill: none;
stroke: #000000;
stroke-width: 1.1458334;
stroke-linecap: butt;
stroke-linejoin: round;
}
]]></style>
</defs>
<path fill-rule="evenodd" d="M555,130.1H663.4V110H555v20.1Z" class="g0_15" />
<path fill-rule="evenodd" d="M446.6,130.1H555V110H446.6v20.1Z" class="g0_15" />
<path fill-rule="evenodd" d="M338.1,130.1H446.5V110H338.1v20.1Z" class="g0_15" />
<path fill-rule="evenodd" d="M229.5,130.1H338V110H229.5v20.1Z" class="g0_15" />
<path fill-rule="evenodd" d="M121.2,130.1H229.4V110H121.2v20.1Z" class="g0_15" />
<path fill-rule="evenodd" d="M663.5,150.1H771.9V130.2H663.5v19.9Z" class="g0_15" />
<path fill-rule="evenodd" d="M663.5,170.3H771.9V150.2H663.5v20.1Z" class="g0_15" />
<path fill-rule="evenodd" d="M663.5,190.3H771.9v-20H663.5v20Z" class="g0_15" />
<path fill-rule="evenodd" d="M663.5,210.5H771.9V190.4H663.5v20.1Z" class="g0_15" />
<path fill-rule="evenodd" d="M663.5,230.5H771.9v-20H663.5v20Z" class="g0_15" />
<path fill-rule="evenodd" d="M555,130.1H663.4V110H555v20.1Z" class="g0_15" />
<path fill-rule="evenodd" d="M446.6,130.1H555V110H446.6v20.1Z" class="g0_15" />
<path fill-rule="evenodd" d="M338.1,130.1H446.5V110H338.1v20.1Z" class="g0_15" />
<path fill-rule="evenodd" d="M229.5,130.1H338V110H229.5v20.1Z" class="g0_15" />
<path fill-rule="evenodd" d="M121.2,130.1H229.4V110H121.2v20.1Z" class="g0_15" />
<path fill-rule="evenodd" d="M663.5,150.1H771.9V130.2H663.5v19.9Z" class="g0_15" />
<path fill-rule="evenodd" d="M663.5,170.3H771.9V150.2H663.5v20.1Z" class="g0_15" />
<path fill-rule="evenodd" d="M663.5,190.3H771.9v-20H663.5v20Z" class="g0_15" />
<path fill-rule="evenodd" d="M663.5,210.5H771.9V190.4H663.5v20.1Z" class="g0_15" />
<path fill-rule="evenodd" d="M663.5,230.5H771.9v-20H663.5v20Z" class="g0_15" />
<path d="M120.8,110.4H663.9M120.8,130.5H772.4M120.8,150.6H772.4M120.8,170.7H772.4m-651.6,20H772.4M120.8,210.9H772.4m-651.6,20H772.4M121.2,110V231.3M229.5,110V231.3M338.1,110V231.3M446.6,110V231.3M555,110V231.3M663.5,110V231.3M772,130.2V231.3" class="g1_15" />
<g clip-path="url(#c0_15)">
<g fill="#000000" >
<use xlink:href="#f0_e" transform="matrix(11,0,0,11,563.9,126.5)" />
<use xlink:href="#f0_c" transform="matrix(11,0,0,11,568.5,126.5)" />
<use xlink:href="#f0_1w" transform="matrix(11,0,0,11,578.4,126.5)" />
<use xlink:href="#f0_4" transform="matrix(11,0,0,11,588.2,126.5)" />
<use xlink:href="#f0_6" transform="matrix(11,0,0,11,594.6,126.5)" />
<use xlink:href="#f0_c" transform="matrix(11,0,0,11,602,126.5)" />
<use xlink:href="#f0_5" transform="matrix(11,0,0,11,455.3,126.5)" />
<use xlink:href="#f0_9" transform="matrix(11,0,0,11,460,126.5)" />
<use xlink:href="#f0_f" transform="matrix(11,0,0,11,468.4,126.5)" />
<use xlink:href="#f0_3" transform="matrix(11,0,0,11,475.9,126.5)" />
<use xlink:href="#f0_c" transform="matrix(11,0,0,11,483.2,126.5)" />
<use xlink:href="#f0_d" transform="matrix(11,0,0,11,346.8,126.5)" />
<use xlink:href="#f0_c" transform="matrix(11,0,0,11,355.2,126.5)" />
<use xlink:href="#f0_9" transform="matrix(11,0,0,11,360.8,126.5)" />
<use xlink:href="#f0_k" transform="matrix(11,0,0,11,369.2,126.5)" />
<use xlink:href="#f0_m" transform="matrix(11,0,0,11,377.6,126.5)" />
<use xlink:href="#f0_f" transform="matrix(11,0,0,11,386,126.5)" />
<use xlink:href="#f0_e" transform="matrix(11,0,0,11,393.4,126.5)" />
<use xlink:href="#f0_c" transform="matrix(11,0,0,11,398.1,126.5)" />
<use xlink:href="#f0_5" transform="matrix(11,0,0,11,238.3,126.5)" />
<use xlink:href="#f0_6" transform="matrix(11,0,0,11,242.9,126.5)" />
<use xlink:href="#f0_8" transform="matrix(11,0,0,11,250.4,126.5)" />
<use xlink:href="#f0_6" transform="matrix(11,0,0,11,258.8,126.5)" />
<use xlink:href="#f0_c" transform="matrix(11,0,0,11,266.2,126.5)" />
<use xlink:href="#f0_d" transform="matrix(11,0,0,11,129.9,126.5)" />
<use xlink:href="#f0_9" transform="matrix(11,0,0,11,138.3,126.5)" />
<use xlink:href="#f0_8" transform="matrix(11,0,0,11,146.7,126.5)" />
<use xlink:href="#f0_6" transform="matrix(11,0,0,11,155.1,126.5)" />
<use xlink:href="#f0_c" transform="matrix(11,0,0,11,162.5,126.5)" />
<use xlink:href="#f0_10" transform="matrix(10.5,0,0,10.5,672.4,145.9)" />
<use xlink:href="#f0_9" transform="matrix(10.5,0,0,10.5,680.3,145.9)" />
<use xlink:href="#f0_s" transform="matrix(11,0,0,11,563.9,146.5)" />
<use xlink:href="#f0_m" transform="matrix(11,0,0,11,569.4,146.5)" />
<use xlink:href="#f0_e" transform="matrix(11,0,0,11,577.8,146.5)" />
<use xlink:href="#f0_5" transform="matrix(11,0,0,11,455.3,146.5)" />
<use xlink:href="#f0_9" transform="matrix(11,0,0,11,460,146.5)" />
<use xlink:href="#f0_l" transform="matrix(11,0,0,11,468.4,146.5)" />
<use xlink:href="#f0_m" transform="matrix(11,0,0,11,476.8,146.5)" />
<use xlink:href="#f0_j" transform="matrix(11,0,0,11,485.2,146.5)" />
<use xlink:href="#f0_d" transform="matrix(11,0,0,11,346.8,146.5)" />
<use xlink:href="#f0_c" transform="matrix(11,0,0,11,355.2,146.5)" />
<use xlink:href="#f0_9" transform="matrix(11,0,0,11,360.8,146.5)" />
<use xlink:href="#f0_k" transform="matrix(11,0,0,11,369.2,146.5)" />
<use xlink:href="#f0_m" transform="matrix(11,0,0,11,377.6,146.5)" />
<use xlink:href="#f0_u" transform="matrix(11,0,0,11,386,146.5)" />
<use xlink:href="#f0_6" transform="matrix(11,0,0,11,390.6,146.5)" />
<use xlink:href="#f0_5" transform="matrix(11,0,0,11,238.3,146.5)" />
<use xlink:href="#f0_m" transform="matrix(11,0,0,11,242.9,146.5)" />
<use xlink:href="#f0_r" transform="matrix(11,0,0,11,251.3,146.5)" />
<use xlink:href="#f0_6" transform="matrix(11,0,0,11,259.7,146.5)" />
<use xlink:href="#f0_d" transform="matrix(11,0,0,11,129.9,146.5)" />
<use xlink:href="#f0_m" transform="matrix(11,0,0,11,138.3,146.5)" />
<use xlink:href="#f0_4" transform="matrix(11,0,0,11,146.7,146.5)" />
<use xlink:href="#f0_6" transform="matrix(11,0,0,11,153.2,146.5)" />
<use xlink:href="#f0_5" transform="matrix(10.5,0,0,10.5,672.4,165.9)" />
<use xlink:href="#f0_x" transform="matrix(10.5,0,0,10.5,676.7,165.9)" />
<use xlink:href="#f0_s" transform="matrix(11,0,0,11,563.9,166.7)" />
<use xlink:href="#f0_m" transform="matrix(11,0,0,11,569.4,166.7)" />
<use xlink:href="#f0_e" transform="matrix(11,0,0,11,577.8,166.7)" />
<use xlink:href="#f0_4" transform="matrix(11,0,0,11,582.5,166.7)" />
<use xlink:href="#f0_5" transform="matrix(11,0,0,11,588.9,166.7)" />
<use xlink:href="#f0_6" transform="matrix(11,0,0,11,593.7,166.7)" />
<use xlink:href="#f0_5" transform="matrix(11,0,0,11,455.3,166.7)" />
<use xlink:href="#f0_9" transform="matrix(11,0,0,11,460,166.7)" />
<use xlink:href="#f0_f" transform="matrix(11,0,0,11,468.4,166.7)" />
<use xlink:href="#f0_3" transform="matrix(11,0,0,11,475.9,166.7)" />
<use xlink:href="#f0_4" transform="matrix(11,0,0,11,483.2,166.7)" />
<use xlink:href="#f0_5" transform="matrix(11,0,0,11,489.7,166.7)" />
<use xlink:href="#f0_6" transform="matrix(11,0,0,11,494.5,166.7)" />
<use xlink:href="#f0_d" transform="matrix(11,0,0,11,346.8,166.7)" />
<use xlink:href="#f0_c" transform="matrix(11,0,0,11,355.2,166.7)" />
<use xlink:href="#f0_9" transform="matrix(11,0,0,11,360.8,166.7)" />
<use xlink:href="#f0_k" transform="matrix(11,0,0,11,369.2,166.7)" />
<use xlink:href="#f0_m" transform="matrix(11,0,0,11,377.6,166.7)" />
<use xlink:href="#f0_u" transform="matrix(11,0,0,11,386,166.7)" />
<use xlink:href="#f0_e" transform="matrix(11,0,0,11,390.6,166.7)" />
<use xlink:href="#f0_4" transform="matrix(11,0,0,11,395.4,166.7)" />
<use xlink:href="#f0_5" transform="matrix(11,0,0,11,401.9,166.7)" />
<use xlink:href="#f0_6" transform="matrix(11,0,0,11,406.5,166.7)" />
<use xlink:href="#f0_5" transform="matrix(11,0,0,11,238.3,166.7)" />
<use xlink:href="#f0_m" transform="matrix(11,0,0,11,242.9,166.7)" />
<use xlink:href="#f0_r" transform="matrix(11,0,0,11,251.3,166.7)" />
<use xlink:href="#f0_e" transform="matrix(11,0,0,11,259.7,166.7)" />
<use xlink:href="#f0_4" transform="matrix(11,0,0,11,264.4,166.7)" />
<use xlink:href="#f0_5" transform="matrix(11,0,0,11,270.9,166.7)" />
<use xlink:href="#f0_6" transform="matrix(11,0,0,11,275.6,166.7)" />
<use xlink:href="#f0_d" transform="matrix(11,0,0,11,129.9,166.7)" />
<use xlink:href="#f0_m" transform="matrix(11,0,0,11,138.3,166.7)" />
<use xlink:href="#f0_4" transform="matrix(11,0,0,11,146.7,166.7)" />
<use xlink:href="#f0_e" transform="matrix(11,0,0,11,153.2,166.7)" />
<use xlink:href="#f0_4" transform="matrix(11,0,0,11,157.9,166.7)" />
<use xlink:href="#f0_5" transform="matrix(11,0,0,11,164.4,166.7)" />
<use xlink:href="#f0_6" transform="matrix(11,0,0,11,169.1,166.7)" />
<use xlink:href="#f0_j" transform="matrix(10.5,0,0,10.5,672.4,186.1)" />
<use xlink:href="#f0_7" transform="matrix(10.5,0,0,10.5,679.5,186.1)" />
<use xlink:href="#f0_11" transform="matrix(10.5,0,0,10.5,684,186.1)" />
<use xlink:href="#f0_6" transform="matrix(10.5,0,0,10.5,688.3,186.1)" />
<use xlink:href="#f0_7" transform="matrix(10.5,0,0,10.5,695.4,186.1)" />
<use xlink:href="#f0_7" transform="matrix(10.5,0,0,10.5,699.9,186.1)" />
<use xlink:href="#f0_3" transform="matrix(10.5,0,0,10.5,704.3,186.1)" />
<use xlink:href="#f0_11" transform="matrix(10.5,0,0,10.5,711.5,186.1)" />
<use xlink:href="#f0_12" transform="matrix(10.5,0,0,10.5,715.9,186.1)" />
<use xlink:href="#f0_k" transform="matrix(10.5,0,0,10.5,727.5,186.1)" />
<use xlink:href="#f0_13" transform="matrix(10.5,0,0,10.5,735.6,186.1)" />
<use xlink:href="#f0_s" transform="matrix(11,0,0,11,563.9,186.7)" />
<use xlink:href="#f0_m" transform="matrix(11,0,0,11,569.4,186.7)" />
<use xlink:href="#f0_6" transform="matrix(11,0,0,11,577.8,186.7)" />
<use xlink:href="#f0_5" transform="matrix(11,0,0,11,455.3,186.7)" />
<use xlink:href="#f0_9" transform="matrix(11,0,0,11,460,186.7)" />
<use xlink:href="#f0_f" transform="matrix(11,0,0,11,468.4,186.7)" />
<use xlink:href="#f0_g" transform="matrix(11,0,0,11,475.9,186.7)" />
<use xlink:href="#f0_d" transform="matrix(11,0,0,11,346.8,186.7)" />
<use xlink:href="#f0_c" transform="matrix(11,0,0,11,355.2,186.7)" />
<use xlink:href="#f0_9" transform="matrix(11,0,0,11,360.8,186.7)" />
<use xlink:href="#f0_k" transform="matrix(11,0,0,11,369.2,186.7)" />
<use xlink:href="#f0_m" transform="matrix(11,0,0,11,377.6,186.7)" />
<use xlink:href="#f0_u" transform="matrix(11,0,0,11,386,186.7)" />
<use xlink:href="#f0_9" transform="matrix(11,0,0,11,390.8,186.7)" />
<use xlink:href="#f0_5" transform="matrix(11,0,0,11,238.3,186.7)" />
<use xlink:href="#f0_m" transform="matrix(11,0,0,11,242.9,186.7)" />
<use xlink:href="#f0_r" transform="matrix(11,0,0,11,251.3,186.7)" />
<use xlink:href="#f0_9" transform="matrix(11,0,0,11,259.7,186.7)" />
<use xlink:href="#f0_d" transform="matrix(11,0,0,11,129.9,186.7)" />
<use xlink:href="#f0_m" transform="matrix(11,0,0,11,138.3,186.7)" />
<use xlink:href="#f0_4" transform="matrix(11,0,0,11,146.7,186.7)" />
<use xlink:href="#f0_9" transform="matrix(11,0,0,11,153.2,186.7)" />
<use xlink:href="#f0_8" transform="matrix(10.5,0,0,10.5,672.4,206.1)" />
<use xlink:href="#f0_9" transform="matrix(10.5,0,0,10.5,680.3,206.1)" />
<use xlink:href="#f0_4" transform="matrix(10.5,0,0,10.5,688.4,206.1)" />
<use xlink:href="#f0_9" transform="matrix(10.5,0,0,10.5,694.5,206.1)" />
<use xlink:href="#f0_5" transform="matrix(10.5,0,0,10.5,702.6,206.1)" />
<use xlink:href="#f0_c" transform="matrix(10.5,0,0,10.5,707,206.1)" />
<use xlink:href="#f0_9" transform="matrix(10.5,0,0,10.5,712.4,206.1)" />
<use xlink:href="#f0_4" transform="matrix(10.5,0,0,10.5,720.5,206.1)" />
<use xlink:href="#f0_11" transform="matrix(10.5,0,0,10.5,726.7,206.1)" />
<use xlink:href="#f0_3" transform="matrix(10.5,0,0,10.5,731,206.1)" />
<use xlink:href="#f0_4" transform="matrix(10.5,0,0,10.5,738.1,206.1)" />
<use xlink:href="#f0_s" transform="matrix(11,0,0,11,563.9,206.9)" />
<use xlink:href="#f0_m" transform="matrix(11,0,0,11,569.4,206.9)" />
<use xlink:href="#f0_e" transform="matrix(11,0,0,11,577.8,206.9)" />
<use xlink:href="#f0_i" transform="matrix(11,0,0,11,582.5,206.9)" />
<use xlink:href="#f0_9" transform="matrix(11,0,0,11,595.6,206.9)" />
<use xlink:href="#f0_4" transform="matrix(11,0,0,11,603.9,206.9)" />
<use xlink:href="#f0_5" transform="matrix(11,0,0,11,455.3,206.9)" />
<use xlink:href="#f0_9" transform="matrix(11,0,0,11,460,206.9)" />
<use xlink:href="#f0_f" transform="matrix(11,0,0,11,468.4,206.9)" />
<use xlink:href="#f0_3" transform="matrix(11,0,0,11,475.9,206.9)" />
<use xlink:href="#f0_i" transform="matrix(11,0,0,11,483.2,206.9)" />
<use xlink:href="#f0_9" transform="matrix(11,0,0,11,496.3,206.9)" />
<use xlink:href="#f0_4" transform="matrix(11,0,0,11,504.7,206.9)" />
<use xlink:href="#f0_d" transform="matrix(11,0,0,11,346.8,206.9)" />
<use xlink:href="#f0_c" transform="matrix(11,0,0,11,355.2,206.9)" />
<use xlink:href="#f0_9" transform="matrix(11,0,0,11,360.8,206.9)" />
<use xlink:href="#f0_k" transform="matrix(11,0,0,11,369.2,206.9)" />
<use xlink:href="#f0_m" transform="matrix(11,0,0,11,377.6,206.9)" />
<use xlink:href="#f0_u" transform="matrix(11,0,0,11,386,206.9)" />
<use xlink:href="#f0_e" transform="matrix(11,0,0,11,390.6,206.9)" />
<use xlink:href="#f0_i" transform="matrix(11,0,0,11,395.4,206.9)" />
<use xlink:href="#f0_9" transform="matrix(11,0,0,11,408.5,206.9)" />
<use xlink:href="#f0_4" transform="matrix(11,0,0,11,416.9,206.9)" />
<use xlink:href="#f0_5" transform="matrix(11,0,0,11,238.3,206.9)" />
<use xlink:href="#f0_m" transform="matrix(11,0,0,11,242.9,206.9)" />
<use xlink:href="#f0_r" transform="matrix(11,0,0,11,251.3,206.9)" />
<use xlink:href="#f0_e" transform="matrix(11,0,0,11,259.7,206.9)" />
<use xlink:href="#f0_i" transform="matrix(11,0,0,11,264.4,206.9)" />
<use xlink:href="#f0_9" transform="matrix(11,0,0,11,277.6,206.9)" />
<use xlink:href="#f0_4" transform="matrix(11,0,0,11,285.8,206.9)" />
<use xlink:href="#f0_d" transform="matrix(11,0,0,11,129.9,206.9)" />
<use xlink:href="#f0_m" transform="matrix(11,0,0,11,138.3,206.9)" />
<use xlink:href="#f0_4" transform="matrix(11,0,0,11,146.7,206.9)" />
<use xlink:href="#f0_e" transform="matrix(11,0,0,11,153.2,206.9)" />
<use xlink:href="#f0_i" transform="matrix(11,0,0,11,157.8,206.9)" />
<use xlink:href="#f0_9" transform="matrix(11,0,0,11,170.9,206.9)" />
<use xlink:href="#f0_4" transform="matrix(11,0,0,11,179.3,206.9)" />
<use xlink:href="#f0_6" transform="matrix(10.5,0,0,10.5,672.4,226.3)" />
<use xlink:href="#f0_7" transform="matrix(10.5,0,0,10.5,679.5,226.3)" />
<use xlink:href="#f0_7" transform="matrix(10.5,0,0,10.5,684,226.3)" />
<use xlink:href="#f0_9" transform="matrix(10.5,0,0,10.5,688.3,226.3)" />
<use xlink:href="#f0_4" transform="matrix(10.5,0,0,10.5,696.3,226.3)" />
<use xlink:href="#f0_11" transform="matrix(10.5,0,0,10.5,702.6,226.3)" />
<use xlink:href="#f0_3" transform="matrix(10.5,0,0,10.5,707,226.3)" />
<use xlink:href="#f0_4" transform="matrix(10.5,0,0,10.5,714.2,226.3)" />
<use xlink:href="#f0_11" transform="matrix(10.5,0,0,10.5,720.4,226.3)" />
<use xlink:href="#f0_12" transform="matrix(10.5,0,0,10.5,724.8,226.3)" />
<use xlink:href="#f0_k" transform="matrix(10.5,0,0,10.5,736.3,226.3)" />
<use xlink:href="#f0_4" transform="matrix(10.5,0,0,10.5,744.4,226.3)" />
<use xlink:href="#f0_13" transform="matrix(10.5,0,0,10.5,750.6,226.3)" />
<use xlink:href="#f0_s" transform="matrix(11,0,0,11,563.9,226.9)" />
<use xlink:href="#f0_m" transform="matrix(11,0,0,11,569.4,226.9)" />
<use xlink:href="#f0_6" transform="matrix(11,0,0,11,577.8,226.9)" />
<use xlink:href="#f0_c" transform="matrix(11,0,0,11,585.3,226.9)" />
<use xlink:href="#f0_9" transform="matrix(11,0,0,11,590.9,226.9)" />
<use xlink:href="#f0_8" transform="matrix(11,0,0,11,599.3,226.9)" />
<use xlink:href="#f0_5" transform="matrix(11,0,0,11,455.3,226.9)" />
<use xlink:href="#f0_9" transform="matrix(11,0,0,11,460,226.9)" />
<use xlink:href="#f0_f" transform="matrix(11,0,0,11,468.4,226.9)" />
<use xlink:href="#f0_3" transform="matrix(11,0,0,11,475.9,226.9)" />
<use xlink:href="#f0_c" transform="matrix(11,0,0,11,483.2,226.9)" />
<use xlink:href="#f0_9" transform="matrix(11,0,0,11,488.8,226.9)" />
<use xlink:href="#f0_8" transform="matrix(11,0,0,11,497.2,226.9)" />
<use xlink:href="#f0_d" transform="matrix(11,0,0,11,346.8,226.9)" />
<use xlink:href="#f0_c" transform="matrix(11,0,0,11,355.2,226.9)" />
<use xlink:href="#f0_9" transform="matrix(11,0,0,11,360.8,226.9)" />
<use xlink:href="#f0_k" transform="matrix(11,0,0,11,369.2,226.9)" />
<use xlink:href="#f0_m" transform="matrix(11,0,0,11,377.6,226.9)" />
<use xlink:href="#f0_u" transform="matrix(11,0,0,11,386,226.9)" />
<use xlink:href="#f0_6" transform="matrix(11,0,0,11,390.6,226.9)" />
<use xlink:href="#f0_c" transform="matrix(11,0,0,11,398.1,226.9)" />
<use xlink:href="#f0_9" transform="matrix(11,0,0,11,403.7,226.9)" />
<use xlink:href="#f0_8" transform="matrix(11,0,0,11,412.1,226.9)" />
<use xlink:href="#f0_5" transform="matrix(11,0,0,11,238.3,226.9)" />
<use xlink:href="#f0_m" transform="matrix(11,0,0,11,242.9,226.9)" />
<use xlink:href="#f0_r" transform="matrix(11,0,0,11,251.3,226.9)" />
<use xlink:href="#f0_e" transform="matrix(11,0,0,11,259.7,226.9)" />
<use xlink:href="#f0_6" transform="matrix(11,0,0,11,264.4,226.9)" />
<use xlink:href="#f0_c" transform="matrix(11,0,0,11,271.8,226.9)" />
<use xlink:href="#f0_9" transform="matrix(11,0,0,11,277.4,226.9)" />
<use xlink:href="#f0_8" transform="matrix(11,0,0,11,285.8,226.9)" />
<use xlink:href="#f0_d" transform="matrix(11,0,0,11,129.9,226.9)" />
<use xlink:href="#f0_m" transform="matrix(11,0,0,11,138.3,226.9)" />
<use xlink:href="#f0_4" transform="matrix(11,0,0,11,146.7,226.9)" />
<use xlink:href="#f0_e" transform="matrix(11,0,0,11,153.2,226.9)" />
<use xlink:href="#f0_6" transform="matrix(11,0,0,11,157.9,226.9)" />
<use xlink:href="#f0_c" transform="matrix(11,0,0,11,165.3,226.9)" />
<use xlink:href="#f0_9" transform="matrix(11,0,0,11,170.9,226.9)" />
<use xlink:href="#f0_8" transform="matrix(11,0,0,11,179.3,226.9)" />
</g>
<g fill="#0000FF" >
<use xlink:href="#f1_6" transform="matrix(11,0,0,11,678.5,266.3)" />
<use xlink:href="#f1_7" transform="matrix(11,0,0,11,690.4,266.3)" />
<use xlink:href="#f1_8" transform="matrix(11,0,0,11,699.7,266.3)" />
<use xlink:href="#f1_e" transform="matrix(11,0,0,11,710.2,266.3)" />
<use xlink:href="#f1_3" transform="matrix(11,0,0,11,725.2,266.3)" />
<use xlink:href="#f1_7" transform="matrix(11,0,0,11,736.2,266.3)" />
<use xlink:href="#f1_4" transform="matrix(11,0,0,11,745.7,266.3)" />
<use xlink:href="#f1_h" transform="matrix(11,0,0,11,751.5,266.3)" />
<use xlink:href="#f1_f" transform="matrix(11,0,0,11,762.3,266.3)" />
</g>
</g>
<path d="M678.3,268H772" class="g2_15" />
<g clip-path="url(#c0_15)">
<g fill="#000000" >
<use xlink:href="#f2_2" transform="matrix(13,0,0,13,137.7,308.2)" />
<use xlink:href="#f2_3" transform="matrix(13,0,0,13,152.8,308.2)" />
<use xlink:href="#f2_4" transform="matrix(13,0,0,13,160,308.2)" />
<use xlink:href="#f2_5" transform="matrix(13,0,0,13,172.6,308.2)" />
<use xlink:href="#f2_6" transform="matrix(13,0,0,13,183,308.2)" />
<use xlink:href="#f2_7" transform="matrix(13,0,0,13,195.1,308.2)" />
<use xlink:href="#f2_6" transform="matrix(13,0,0,13,202.6,308.2)" />
<use xlink:href="#f2_7" transform="matrix(13,0,0,13,214.6,308.2)" />
<use xlink:href="#f2_8" transform="matrix(13,0,0,13,222.1,308.2)" />
<use xlink:href="#f2_a" transform="matrix(13,0,0,13,242.6,308.2)" />
<use xlink:href="#f2_k" transform="matrix(13,0,0,13,256.3,308.2)" />
<use xlink:href="#f2_l" transform="matrix(13,0,0,13,277.1,308.2)" />
</g>
</g>
<path d="M560.8,332.9H772.6M560.8,353.4H772.6M560.8,373.8H772.6M560.8,394.3H772.6M560.8,414.8H772.6M560.8,435.3H772.6M560.8,455.7H772.6M560.8,476.2H772.6M560.8,496.7H772.6M560.8,517.2H772.6M560.8,537.6H772.6M560.8,558.1H772.6M560.8,578.6H772.6M560.8,599H772.6M560.8,619.5H772.6M560.8,640H772.6M560.8,660.5H772.6M560.8,680.9H772.6M560.8,701.4H772.6M561.3,332.3V701.9M666.6,332.3V701.9M772,332.3V701.9" class="g3_15" />
<g clip-path="url(#c0_15)">
<g fill="#000000" >
<use xlink:href="#f0_y" transform="matrix(11,0,0,11,570.3,349.1)" />
<use xlink:href="#f0_c" transform="matrix(11,0,0,11,577.6,349.1)" />
<use xlink:href="#f0_6" transform="matrix(11,0,0,11,583.3,349.1)" />
<use xlink:href="#f0_3" transform="matrix(11,0,0,11,590.7,349.1)" />
<use xlink:href="#f0_t" transform="matrix(11,0,0,11,675.6,349.1)" />
<use xlink:href="#f0_9" transform="matrix(11,0,0,11,683,349.1)" />
<use xlink:href="#f0_8" transform="matrix(11,0,0,11,691.4,349.1)" />
<use xlink:href="#f0_3" transform="matrix(11,0,0,11,699.7,349.1)" />
<use xlink:href="#f0_f" transform="matrix(11,0,0,11,570.3,369.6)" />
<use xlink:href="#f0_3" transform="matrix(11,0,0,11,577.6,369.6)" />
<use xlink:href="#f0_7" transform="matrix(11,0,0,11,585.1,369.6)" />
<use xlink:href="#f0_i" transform="matrix(11,0,0,11,589.8,369.6)" />
<use xlink:href="#f0_3" transform="matrix(11,0,0,11,602.8,369.6)" />
<use xlink:href="#f0_5" transform="matrix(11,0,0,11,675.6,369.6)" />
<use xlink:href="#f0_c" transform="matrix(11,0,0,11,680.2,369.6)" />
<use xlink:href="#f0_3" transform="matrix(11,0,0,11,685.8,369.6)" />
<use xlink:href="#f0_8" transform="matrix(11,0,0,11,693.3,369.6)" />
<use xlink:href="#f0_l" transform="matrix(11,0,0,11,701.7,369.6)" />
<use xlink:href="#f0_m" transform="matrix(11,0,0,11,710.1,369.6)" />
<use xlink:href="#f0_e" transform="matrix(11,0,0,11,718.3,369.6)" />
<use xlink:href="#f0_7" transform="matrix(11,0,0,11,723,369.6)" />
<use xlink:href="#f0_9" transform="matrix(11,0,0,11,727.8,369.6)" />
<use xlink:href="#f0_f" transform="matrix(11,0,0,11,570.3,390)" />
<use xlink:href="#f0_3" transform="matrix(11,0,0,11,577.6,390)" />
<use xlink:href="#f0_c" transform="matrix(11,0,0,11,585.1,390)" />
<use xlink:href="#f0_c" transform="matrix(11,0,0,11,590.7,390)" />
<use xlink:href="#f0_9" transform="matrix(11,0,0,11,596.4,390)" />
<use xlink:href="#f0_f" transform="matrix(11,0,0,11,675.6,390)" />
<use xlink:href="#f0_9" transform="matrix(11,0,0,11,683,390)" />
<use xlink:href="#f0_f" transform="matrix(11,0,0,11,691.3,390)" />
<use xlink:href="#f0_o" transform="matrix(11,0,0,11,698.8,390)" />
<use xlink:href="#f0_6" transform="matrix(11,0,0,11,707.2,390)" />
<use xlink:href="#f0_f" transform="matrix(11,0,0,11,570.3,410.5)" />
<use xlink:href="#f0_e" transform="matrix(11,0,0,11,577.6,410.5)" />
<use xlink:href="#f0_6" transform="matrix(11,0,0,11,582.4,410.5)" />
<use xlink:href="#f0_c" transform="matrix(11,0,0,11,589.8,410.5)" />
<use xlink:href="#f0_5" transform="matrix(11,0,0,11,595.3,410.5)" />
<use xlink:href="#f0_9" transform="matrix(11,0,0,11,600,410.5)" />
<use xlink:href="#f0_r" transform="matrix(11,0,0,11,675.6,410.5)" />
<use xlink:href="#f0_6" transform="matrix(11,0,0,11,684,410.5)" />
<use xlink:href="#f0_c" transform="matrix(11,0,0,11,691.3,410.5)" />
<use xlink:href="#f0_k" transform="matrix(11,0,0,11,696.9,410.5)" />
<use xlink:href="#f0_3" transform="matrix(11,0,0,11,705.3,410.5)" />
<use xlink:href="#f0_k" transform="matrix(11,0,0,11,712.8,410.5)" />
<use xlink:href="#f0_f" transform="matrix(11,0,0,11,570.3,431)" />
<use xlink:href="#f0_9" transform="matrix(11,0,0,11,577.8,431)" />
<use xlink:href="#f0_i" transform="matrix(11,0,0,11,586,431)" />
<use xlink:href="#f0_d" transform="matrix(11,0,0,11,599.2,431)" />
<use xlink:href="#f0_c" transform="matrix(11,0,0,11,607.6,431)" />
<use xlink:href="#f0_6" transform="matrix(11,0,0,11,613.2,431)" />
<use xlink:href="#f0_8" transform="matrix(11,0,0,11,620.7,431)" />
<use xlink:href="#f0_k" transform="matrix(11,0,0,11,629.1,431)" />
<use xlink:href="#f0_6" transform="matrix(11,0,0,11,637.5,431)" />
<use xlink:href="#f0_c" transform="matrix(11,0,0,11,644.8,431)" />
<use xlink:href="#f0_6" transform="matrix(11,0,0,11,675.6,431)" />
<use xlink:href="#f0_8" transform="matrix(11,0,0,11,683,431)" />
<use xlink:href="#f0_5" transform="matrix(11,0,0,11,691.3,431)" />
<use xlink:href="#f0_6" transform="matrix(11,0,0,11,696,431)" />
<use xlink:href="#f0_8" transform="matrix(11,0,0,11,703.5,431)" />
<use xlink:href="#f0_k" transform="matrix(11,0,0,11,711.9,431)" />
<use xlink:href="#f0_6" transform="matrix(11,0,0,11,720.3,431)" />
<use xlink:href="#f0_c" transform="matrix(11,0,0,11,727.7,431)" />
<use xlink:href="#f0_k" transform="matrix(11,0,0,11,570.3,451.5)" />
<use xlink:href="#f0_6" transform="matrix(11,0,0,11,578.7,451.5)" />
<use xlink:href="#f0_4" transform="matrix(11,0,0,11,586,451.5)" />
<use xlink:href="#f0_8" transform="matrix(11,0,0,11,592.6,451.5)" />
<use xlink:href="#f0_m" transform="matrix(11,0,0,11,601,451.5)" />
<use xlink:href="#f0_k" transform="matrix(11,0,0,11,609.4,451.5)" />
<use xlink:href="#f0_3" transform="matrix(11,0,0,11,617.8,451.5)" />
<use xlink:href="#f0_c" transform="matrix(11,0,0,11,625.3,451.5)" />
<use xlink:href="#f0_k" transform="matrix(11,0,0,11,675.6,451.5)" />
<use xlink:href="#f0_6" transform="matrix(11,0,0,11,684,451.5)" />
<use xlink:href="#f0_4" transform="matrix(11,0,0,11,691.3,451.5)" />
<use xlink:href="#f0_r" transform="matrix(11,0,0,11,697.9,451.5)" />
<use xlink:href="#f0_6" transform="matrix(11,0,0,11,706.3,451.5)" />
<use xlink:href="#f0_4" transform="matrix(11,0,0,11,713.7,451.5)" />
<use xlink:href="#f0_5" transform="matrix(11,0,0,11,720.3,451.5)" />
<use xlink:href="#f0_e" transform="matrix(11,0,0,11,724.9,451.5)" />
<use xlink:href="#f0_c" transform="matrix(11,0,0,11,729.6,451.5)" />
<use xlink:href="#f0_6" transform="matrix(11,0,0,11,570.3,471.9)" />
<use xlink:href="#f0_4" transform="matrix(11,0,0,11,577.6,471.9)" />
<use xlink:href="#f0_f" transform="matrix(11,0,0,11,584.2,471.9)" />
<use xlink:href="#f0_3" transform="matrix(11,0,0,11,591.7,471.9)" />
<use xlink:href="#f0_d" transform="matrix(11,0,0,11,599.1,471.9)" />
<use xlink:href="#f0_3" transform="matrix(11,0,0,11,607.5,471.9)" />
<use xlink:href="#f0_c" transform="matrix(11,0,0,11,615,471.9)" />
<use xlink:href="#f0_o" transform="matrix(11,0,0,11,675.6,471.9)" />
<use xlink:href="#f0_m" transform="matrix(11,0,0,11,684,471.9)" />
<use xlink:href="#f0_e" transform="matrix(11,0,0,11,692.2,471.9)" />
<use xlink:href="#f0_c" transform="matrix(11,0,0,11,697,471.9)" />
<use xlink:href="#f0_6" transform="matrix(11,0,0,11,570.3,492.4)" />
<use xlink:href="#f0_4" transform="matrix(11,0,0,11,577.6,492.4)" />
<use xlink:href="#f0_f" transform="matrix(11,0,0,11,584.2,492.4)" />
<use xlink:href="#f0_9" transform="matrix(11,0,0,11,591.7,492.4)" />
<use xlink:href="#f0_n" transform="matrix(11,0,0,11,600.1,492.4)" />
<use xlink:href="#f0_6" transform="matrix(11,0,0,11,608.5,492.4)" />
<use xlink:href="#f0_c" transform="matrix(11,0,0,11,615.9,492.4)" />
<use xlink:href="#f0_6" transform="matrix(11,0,0,11,675.6,492.4)" />
<use xlink:href="#f0_7" transform="matrix(11,0,0,11,682.9,492.4)" />
<use xlink:href="#f0_6" transform="matrix(11,0,0,11,687.6,492.4)" />
<use xlink:href="#f0_n" transform="matrix(11,0,0,11,695.1,492.4)" />
<use xlink:href="#f0_e" transform="matrix(11,0,0,11,703.5,492.4)" />
<use xlink:href="#f0_c" transform="matrix(11,0,0,11,708.1,492.4)" />
<use xlink:href="#f0_6" transform="matrix(11,0,0,11,570.3,512.9)" />
<use xlink:href="#f0_4" transform="matrix(11,0,0,11,577.6,512.9)" />
<use xlink:href="#f0_5" transform="matrix(11,0,0,11,584.2,512.9)" />
<use xlink:href="#f0_m" transform="matrix(11,0,0,11,588.9,512.9)" />
<use xlink:href="#f0_d" transform="matrix(11,0,0,11,597.3,512.9)" />
<use xlink:href="#f0_6" transform="matrix(11,0,0,11,605.7,512.9)" />
<use xlink:href="#f0_8" transform="matrix(11,0,0,11,613.2,512.9)" />
<use xlink:href="#f0_k" transform="matrix(11,0,0,11,621.6,512.9)" />
<use xlink:href="#f0_9" transform="matrix(11,0,0,11,630,512.9)" />
<use xlink:href="#f0_6" transform="matrix(11,0,0,11,675.6,512.9)" />
<use xlink:href="#f0_4" transform="matrix(11,0,0,11,682.9,512.9)" />
<use xlink:href="#f0_d" transform="matrix(11,0,0,11,689.5,512.9)" />
<use xlink:href="#f0_7" transform="matrix(11,0,0,11,697.9,512.9)" />
<use xlink:href="#f0_j" transform="matrix(11,0,0,11,702.6,512.9)" />
<use xlink:href="#f0_8" transform="matrix(11,0,0,11,710.1,512.9)" />
<use xlink:href="#f0_k" transform="matrix(11,0,0,11,718.5,512.9)" />
<use xlink:href="#f0_e" transform="matrix(11,0,0,11,726.7,512.9)" />
<use xlink:href="#f0_k" transform="matrix(11,0,0,11,731.4,512.9)" />
<use xlink:href="#f0_9" transform="matrix(11,0,0,11,739.8,512.9)" />
<use xlink:href="#f0_s" transform="matrix(11,0,0,11,570.3,533.3)" />
<use xlink:href="#f0_6" transform="matrix(11,0,0,11,575.8,533.3)" />
<use xlink:href="#f0_7" transform="matrix(11,0,0,11,583.3,533.3)" />
<use xlink:href="#f0_e" transform="matrix(11,0,0,11,587.9,533.3)" />
<use xlink:href="#f0_t" transform="matrix(11,0,0,11,592.6,533.3)" />
<use xlink:href="#f0_f" transform="matrix(11,0,0,11,675.6,533.3)" />
<use xlink:href="#f0_9" transform="matrix(11,0,0,11,683,533.3)" />
<use xlink:href="#f0_8" transform="matrix(11,0,0,11,691.4,533.3)" />
<use xlink:href="#f0_5" transform="matrix(11,0,0,11,699.7,533.3)" />
<use xlink:href="#f0_6" transform="matrix(11,0,0,11,704.4,533.3)" />
<use xlink:href="#f0_8" transform="matrix(11,0,0,11,711.9,533.3)" />
<use xlink:href="#f0_5" transform="matrix(11,0,0,11,720.3,533.3)" />
<use xlink:href="#f0_9" transform="matrix(11,0,0,11,725,533.3)" />
<use xlink:href="#f0_s" transform="matrix(11,0,0,11,570.3,553.8)" />
<use xlink:href="#f0_7" transform="matrix(11,0,0,11,575.8,553.8)" />
<use xlink:href="#f0_3" transform="matrix(11,0,0,11,580.5,553.8)" />
<use xlink:href="#f0_f" transform="matrix(11,0,0,11,588,553.8)" />
<use xlink:href="#f0_9" transform="matrix(11,0,0,11,595.5,553.8)" />
<use xlink:href="#f0_k" transform="matrix(11,0,0,11,675.6,553.8)" />
<use xlink:href="#f0_6" transform="matrix(11,0,0,11,684,553.8)" />
<use xlink:href="#f0_7" transform="matrix(11,0,0,11,691.3,553.8)" />
<use xlink:href="#f0_n" transform="matrix(11,0,0,11,696,553.8)" />
<use xlink:href="#f0_3" transform="matrix(11,0,0,11,704.4,553.8)" />
<use xlink:href="#f0_k" transform="matrix(11,0,0,11,711.9,553.8)" />
<use xlink:href="#f0_9" transform="matrix(11,0,0,11,720.3,553.8)" />
<use xlink:href="#f0_7" transform="matrix(11,0,0,11,570.3,574.3)" />
<use xlink:href="#f0_e" transform="matrix(11,0,0,11,574.9,574.3)" />
<use xlink:href="#f0_8" transform="matrix(11,0,0,11,579.6,574.3)" />
<use xlink:href="#f0_k" transform="matrix(11,0,0,11,588,574.3)" />
<use xlink:href="#f0_9" transform="matrix(11,0,0,11,596.4,574.3)" />
<use xlink:href="#f0_o" transform="matrix(11,0,0,11,675.6,574.3)" />
<use xlink:href="#f0_6" transform="matrix(11,0,0,11,684,574.3)" />
<use xlink:href="#f0_c" transform="matrix(11,0,0,11,691.3,574.3)" />
<use xlink:href="#f0_i" transform="matrix(11,0,0,11,696.9,574.3)" />
<use xlink:href="#f0_9" transform="matrix(11,0,0,11,710.1,574.3)" />
<use xlink:href="#f0_4" transform="matrix(11,0,0,11,718.5,574.3)" />
<use xlink:href="#f0_9" transform="matrix(11,0,0,11,725,574.3)" />
<use xlink:href="#f0_i" transform="matrix(11,0,0,11,570.3,594.8)" />
<use xlink:href="#f0_3" transform="matrix(11,0,0,11,583.3,594.8)" />
<use xlink:href="#f0_8" transform="matrix(11,0,0,11,590.8,594.8)" />
<use xlink:href="#f0_6" transform="matrix(11,0,0,11,599.2,594.8)" />
<use xlink:href="#f0_u" transform="matrix(11,0,0,11,606.6,594.8)" />
<use xlink:href="#f0_3" transform="matrix(11,0,0,11,611.2,594.8)" />
<use xlink:href="#f0_c" transform="matrix(11,0,0,11,618.7,594.8)" />
<use xlink:href="#f0_f" transform="matrix(11,0,0,11,675.6,594.8)" />
<use xlink:href="#f0_9" transform="matrix(11,0,0,11,683,594.8)" />
<use xlink:href="#f0_8" transform="matrix(11,0,0,11,691.4,594.8)" />
<use xlink:href="#f0_k" transform="matrix(11,0,0,11,699.9,594.8)" />
<use xlink:href="#f0_m" transform="matrix(11,0,0,11,708.3,594.8)" />
<use xlink:href="#f0_f" transform="matrix(11,0,0,11,716.5,594.8)" />
<use xlink:href="#f0_e" transform="matrix(11,0,0,11,724,594.8)" />
<use xlink:href="#f0_c" transform="matrix(11,0,0,11,728.7,594.8)" />
<use xlink:href="#f0_c" transform="matrix(11,0,0,11,570.3,615.2)" />
<use xlink:href="#f0_6" transform="matrix(11,0,0,11,575.8,615.2)" />
<use xlink:href="#f0_n" transform="matrix(11,0,0,11,583.3,615.2)" />
<use xlink:href="#f0_c" transform="matrix(11,0,0,11,591.7,615.2)" />
<use xlink:href="#f0_6" transform="matrix(11,0,0,11,597.3,615.2)" />
<use xlink:href="#f0_4" transform="matrix(11,0,0,11,604.8,615.2)" />
<use xlink:href="#f0_3" transform="matrix(11,0,0,11,611.2,615.2)" />
<use xlink:href="#f0_c" transform="matrix(11,0,0,11,618.7,615.2)" />
<use xlink:href="#f0_c" transform="matrix(11,0,0,11,675.6,615.2)" />
<use xlink:href="#f0_6" transform="matrix(11,0,0,11,681.1,615.2)" />
<use xlink:href="#f0_5" transform="matrix(11,0,0,11,688.5,615.2)" />
<use xlink:href="#f0_9" transform="matrix(11,0,0,11,693.3,615.2)" />
<use xlink:href="#f0_c" transform="matrix(11,0,0,11,701.7,615.2)" />
<use xlink:href="#f0_8" transform="matrix(11,0,0,11,707.3,615.2)" />
<use xlink:href="#f0_3" transform="matrix(11,0,0,11,715.5,615.2)" />
<use xlink:href="#f0_c" transform="matrix(11,0,0,11,723,615.2)" />
<use xlink:href="#f0_4" transform="matrix(11,0,0,11,570.3,635.7)" />
<use xlink:href="#f0_3" transform="matrix(11,0,0,11,576.7,635.7)" />
<use xlink:href="#f0_b" transform="matrix(11,0,0,11,584.2,635.7)" />
<use xlink:href="#f0_e" transform="matrix(11,0,0,11,592.6,635.7)" />
<use xlink:href="#f0_9" transform="matrix(11,0,0,11,597.3,635.7)" />
<use xlink:href="#f0_e" transform="matrix(11,0,0,11,675.6,635.7)" />
<use xlink:href="#f0_8" transform="matrix(11,0,0,11,680.2,635.7)" />
<use xlink:href="#f0_5" transform="matrix(11,0,0,11,688.6,635.7)" />
<use xlink:href="#f0_6" transform="matrix(11,0,0,11,693.3,635.7)" />
<use xlink:href="#f0_7" transform="matrix(11,0,0,11,700.6,635.7)" />
<use xlink:href="#f0_e" transform="matrix(11,0,0,11,705.3,635.7)" />
<use xlink:href="#f0_n" transform="matrix(11,0,0,11,710.1,635.7)" />
<use xlink:href="#f0_6" transform="matrix(11,0,0,11,718.5,635.7)" />
<use xlink:href="#f0_8" transform="matrix(11,0,0,11,725.9,635.7)" />
<use xlink:href="#f0_5" transform="matrix(11,0,0,11,734.2,635.7)" />
<use xlink:href="#f0_6" transform="matrix(11,0,0,11,738.9,635.7)" />
<use xlink:href="#f0_5" transform="matrix(11,0,0,11,570.3,656.2)" />
<use xlink:href="#f0_6" transform="matrix(11,0,0,11,574.9,656.2)" />
<use xlink:href="#f0_i" transform="matrix(11,0,0,11,582.4,656.2)" />
<use xlink:href="#f0_6" transform="matrix(11,0,0,11,595.5,656.2)" />
<use xlink:href="#f0_c" transform="matrix(11,0,0,11,602.8,656.2)" />
<use xlink:href="#f0_5" transform="matrix(11,0,0,11,675.6,656.2)" />
<use xlink:href="#f0_6" transform="matrix(11,0,0,11,680.2,656.2)" />
<use xlink:href="#f0_8" transform="matrix(11,0,0,11,687.6,656.2)" />
<use xlink:href="#f0_6" transform="matrix(11,0,0,11,696,656.2)" />
<use xlink:href="#f0_c" transform="matrix(11,0,0,11,703.5,656.2)" />
<use xlink:href="#f0_i" transform="matrix(11,0,0,11,713.2,656.2)" />
<use xlink:href="#f0_e" transform="matrix(11,0,0,11,726.4,656.2)" />
<use xlink:href="#f0_6" transform="matrix(11,0,0,11,731,656.2)" />
<use xlink:href="#f0_k" transform="matrix(11,0,0,11,738.4,656.2)" />
<use xlink:href="#f0_9" transform="matrix(11,0,0,11,746.8,656.2)" />
<use xlink:href="#f0_5" transform="matrix(11,0,0,11,570.3,676.7)" />
<use xlink:href="#f0_c" transform="matrix(11,0,0,11,574.9,676.7)" />
<use xlink:href="#f0_3" transform="matrix(11,0,0,11,580.5,676.7)" />
<use xlink:href="#f0_5" transform="matrix(11,0,0,11,587.9,676.7)" />
<use xlink:href="#f0_3" transform="matrix(11,0,0,11,592.6,676.7)" />
<use xlink:href="#f0_c" transform="matrix(11,0,0,11,600,676.7)" />
<use xlink:href="#f0_d" transform="matrix(11,0,0,11,675.6,676.7)" />
<use xlink:href="#f0_c" transform="matrix(11,0,0,11,683.8,676.7)" />
<use xlink:href="#f0_9" transform="matrix(11,0,0,11,689.5,676.7)" />
<use xlink:href="#f0_b" transform="matrix(11,0,0,11,697.9,676.7)" />
<use xlink:href="#f0_3" transform="matrix(11,0,0,11,706.3,676.7)" />
<use xlink:href="#f0_c" transform="matrix(11,0,0,11,713.7,676.7)" />
<use xlink:href="#f0_x" transform="matrix(11,0,0,11,570.3,697.1)" />
<use xlink:href="#f0_8" transform="matrix(11,0,0,11,578.7,697.1)" />
<use xlink:href="#f0_e" transform="matrix(11,0,0,11,587,697.1)" />
<use xlink:href="#f0_f" transform="matrix(11,0,0,11,591.7,697.1)" />
<use xlink:href="#f0_9" transform="matrix(11,0,0,11,599.2,697.1)" />
<use xlink:href="#f0_6" transform="matrix(11,0,0,11,675.6,697.1)" />
<use xlink:href="#f0_4" transform="matrix(11,0,0,11,682.9,697.1)" />
<use xlink:href="#f0_d" transform="matrix(11,0,0,11,689.5,697.1)" />
<use xlink:href="#f0_6" transform="matrix(11,0,0,11,697.9,697.1)" />
<use xlink:href="#f0_f" transform="matrix(11,0,0,11,705.3,697.1)" />
<use xlink:href="#f0_e" transform="matrix(11,0,0,11,712.8,697.1)" />
<use xlink:href="#f0_3" transform="matrix(11,0,0,11,717.5,697.1)" />
<use xlink:href="#f0_7" transform="matrix(11,0,0,11,724.8,697.1)" />
</g>
<g fill="#0000FF" >
<use xlink:href="#f1_6" transform="matrix(11,0,0,11,678.5,736.8)" />
<use xlink:href="#f1_7" transform="matrix(11,0,0,11,690.4,736.8)" />
<use xlink:href="#f1_8" transform="matrix(11,0,0,11,699.7,736.8)" />
<use xlink:href="#f1_e" transform="matrix(11,0,0,11,710.2,736.8)" />
<use xlink:href="#f1_3" transform="matrix(11,0,0,11,725.2,736.8)" />
<use xlink:href="#f1_7" transform="matrix(11,0,0,11,736.2,736.8)" />
<use xlink:href="#f1_4" transform="matrix(11,0,0,11,745.7,736.8)" />
<use xlink:href="#f1_h" transform="matrix(11,0,0,11,751.5,736.8)" />
<use xlink:href="#f1_f" transform="matrix(11,0,0,11,762.3,736.8)" />
</g>
</g>
<path d="M678.3,738.5H772" class="g2_15" />
<defs>
<path d="M32,0V33L151,52V649L52,668v33H275V52L395,33V0ZM201,850c0,0,-32,0,-56,24c0,0,-24,24,-24,56c0,0,0,34,24,58c0,0,24,24,56,24c0,0,34,0,58,-24c0,0,24,-24,24,-58c0,0,0,-32,-24,-56c0,0,-24,-24,-58,-24Z" 
id="f0_e"
transform="scale(0.001,-0.001)" />

<path d="M31,0V33l88,19V649L31,668v33H235l7,-87c0,0,44,37,121,71c0,0,76,35,121,35h11V530H463l-43,82c0,0,-37,0,-88,-10c0,0,-52,-10,-89,-26V52L363,33V0Z" 
id="f0_c"
transform="scale(0.001,-0.001)" />

<path d="M57,302V417H454V302Z" 
id="f0_1w"
transform="scale(0.001,-0.001)" />

<path d="M278,-14c0,0,-52,0,-115,11c0,0,-63,10,-99,23V193H98L134,95c0,0,56,-50,146,-50c0,0,144,0,144,123c0,0,0,91,-114,130l-66,21c0,0,-75,25,-110,50c0,0,-34,26,-53,63c0,0,-18,36,-18,89c0,0,0,92,63,145c0,0,63,54,170,54c0,0,77,0,193,-23V544H454l-32,81c0,0,-39,35,-124,35c0,0,-61,0,-92,-30c0,0,-32,-30,-32,-80c0,0,0,-43,29,-72c0,0,28,-29,86,-48c0,0,110,-38,144,-55c0,0,33,-17,57,-42c0,0,23,-25,36,-57c0,0,13,-32,13,-79c0,0,0,-104,-66,-158c0,0,-66,-53,-195,-53Z" 
id="f0_4"
transform="scale(0.001,-0.001)" />

<path d="M495,413c0,0,0,133,-34,190c0,0,-34,57,-105,57c0,0,-78,0,-119,-63c0,0,-42,-62,-42,-184ZM374,-14c0,0,-163,0,-239,87c0,0,-75,88,-75,283c0,0,0,183,77,273c0,0,76,91,219,91c0,0,269,0,269,-306V353H194V340c0,0,0,-103,23,-160c0,0,22,-57,70,-87c0,0,47,-29,124,-29c0,0,40,0,96,6c0,0,55,7,91,15V43C598,43,562,20,500,3c0,0,-61,-17,-126,-17Z" 
id="f0_6"
transform="scale(0.001,-0.001)" />

<path d="M249,-14c0,0,-71,0,-107,42c0,0,-35,42,-35,119V639H15v33l93,29l76,159h47V701H391V639H231V161c0,0,0,-48,22,-73c0,0,22,-24,57,-24c0,0,44,0,106,12V26C416,26,389,8,340,-2c0,0,-49,-12,-91,-12Z" 
id="f0_5"
transform="scale(0.001,-0.001)" />

<path d="M377,45c0,0,99,0,147,73c0,0,47,73,47,237c0,0,0,161,-47,233c0,0,-47,72,-147,72c0,0,-97,0,-141,-69c0,0,-44,-69,-44,-236c0,0,0,-169,45,-240c0,0,44,-70,140,-70Zm0,-59c0,0,-158,0,-238,94c0,0,-81,95,-81,274c0,0,0,178,81,272c0,0,80,94,244,94c0,0,160,0,241,-92c0,0,82,-92,82,-274c0,0,0,-368,-329,-368Z" 
id="f0_9"
transform="scale(0.001,-0.001)" />

<path d="M399,-14c0,0,-341,0,-341,370c0,0,0,175,87,269c0,0,87,95,249,95c0,0,101,0,220,-23V501H573L541,625c0,0,-62,35,-149,35c0,0,-200,0,-200,-304c0,0,0,-158,61,-225c0,0,61,-67,189,-67c0,0,109,0,189,24V43C631,43,595,16,530,1c0,0,-64,-15,-131,-15Z" 
id="f0_f"
transform="scale(0.001,-0.001)" />

<path d="M284,67c0,0,51,0,88,12c0,0,37,12,74,30V358l-98,-3c0,0,-100,-4,-135,-39c0,0,-35,-35,-35,-117c0,0,0,-132,106,-132ZM233,-14c0,0,-179,0,-179,208c0,0,0,70,27,116c0,0,27,46,87,70c0,0,60,24,173,27l105,3V519c0,0,0,72,-26,107c0,0,-27,34,-82,34c0,0,-75,0,-137,-35L176,538H134V691c0,0,121,26,213,26c0,0,115,0,169,-47c0,0,54,-47,54,-144V52L657,33V0H465L451,70c0,0,-85,-84,-218,-84Z" 
id="f0_3"
transform="scale(0.001,-0.001)" />

<path d="M382,45c0,0,188,0,188,314c0,0,0,143,-47,213c0,0,-46,69,-141,69c0,0,-87,0,-146,-24V58c0,0,67,-13,146,-13ZM25,-325v35l88,18V649L34,668v33H231l1,-41c0,0,31,27,84,43c0,0,53,17,107,17c0,0,134,0,208,-94c0,0,73,-93,73,-267c0,0,0,-178,-80,-276c0,0,-80,-97,-232,-97c0,0,-84,0,-160,16c0,0,4,-53,4,-84V-272l123,-18v-35Z" 
id="f0_d"
transform="scale(0.001,-0.001)" />

<path d="M383,64c0,0,85,0,152,28V645c0,0,-67,13,-152,13c0,0,-194,0,-194,-314c0,0,0,-141,48,-211c0,0,48,-69,146,-69ZM342,-14c0,0,-287,0,-287,358c0,0,0,184,82,280c0,0,81,96,239,96c0,0,81,0,163,-18c0,0,-4,25,-4,124v182l-118,18v34H659V52L745,33V0H548l-9,52c0,0,-84,-66,-197,-66Z" 
id="f0_k"
transform="scale(0.001,-0.001)" />

<path d="M289,-14c0,0,-179,0,-179,205V649L20,668v33H233V200c0,0,0,-128,120,-128c0,0,92,0,173,23V649L420,668v33H649V52L738,33V0H533l-6,57C527,57,474,28,405,7c0,0,-69,-21,-116,-21Z" 
id="f0_m"
transform="scale(0.001,-0.001)" />

<path d="M439,0V33l93,19V500c0,0,0,62,-30,97c0,0,-31,36,-94,36c0,0,-67,0,-165,-22V52L338,33V0H35V33l84,19V649L35,668v33H235l7,-57c0,0,57,33,122,54c0,0,65,22,108,22c0,0,91,0,137,-53c0,0,47,-53,47,-154V52L741,33V0Z" 
id="f0_8"
transform="scale(0.001,-0.001)" />

<path d="M148,-329c0,0,-58,0,-114,13v151H69l24,-71c0,0,23,-17,64,-17c0,0,39,0,72,22c0,0,33,23,60,67c0,0,27,44,68,157L90,649L19,668v33H344V668L233,648L423,158L606,649L497,668v33H758V668L685,652L411,-43c0,0,-48,-124,-84,-177c0,0,-36,-54,-79,-82c0,0,-44,-27,-100,-27Z" 
id="f0_10"
transform="scale(0.001,-0.001)" />

<path d="M64,0V34L168,59V639H47v36l121,29v49c0,0,0,155,61,239c0,0,62,84,173,84c0,0,58,0,107,-15V908H472l-33,92c0,0,-26,16,-62,16c0,0,-47,0,-66,-42c0,0,-19,-42,-19,-157V701H478V639H292V59L443,34V0Z" 
id="f0_s"
transform="scale(0.001,-0.001)" />

<path d="M383,64c0,0,44,0,87,7c0,0,43,7,65,17V645c0,0,-67,13,-152,13c0,0,-194,0,-194,-309c0,0,0,-143,48,-214c0,0,47,-71,146,-71Zm56,-389v35l96,18V-77c0,0,0,73,7,124c0,0,-79,-61,-200,-61c0,0,-287,0,-287,362c0,0,0,180,81,276c0,0,81,96,237,96c0,0,84,0,166,-18l67,33h53V-272l77,-18v-35Z" 
id="f0_l"
transform="scale(0.001,-0.001)" />

<path d="M495,413c0,0,0,133,-34,190c0,0,-34,57,-105,57c0,0,-78,0,-119,-62c0,0,-42,-63,-42,-185ZM374,-14c0,0,-163,0,-239,87c0,0,-75,88,-75,283c0,0,0,183,77,274c0,0,76,90,219,90c0,0,269,0,269,-306V353H194V339c0,0,0,-103,23,-160c0,0,22,-57,70,-86c0,0,47,-30,124,-30c0,0,40,0,96,6c0,0,55,7,91,15V43C598,43,562,19,500,2c0,0,-61,-16,-126,-16ZM285,835v24l146,203H590v-27L326,835Z" 
id="f0_j"
transform="scale(0.001,-0.001)" />

<path d="M64,-325c0,0,-46,0,-107,14v148H-8l19,-81c0,0,25,-21,62,-21c0,0,44,0,67,47c0,0,22,47,22,152V649L57,668v33H286V-28c0,0,0,-146,-57,-221c0,0,-56,-76,-165,-76ZM213,850c0,0,-34,0,-58,24c0,0,-24,24,-24,56c0,0,0,34,24,58c0,0,24,24,58,24c0,0,32,0,56,-24c0,0,24,-24,24,-58c0,0,0,-32,-24,-56c0,0,-24,-24,-56,-24Z" 
id="f0_u"
transform="scale(0.001,-0.001)" />

<path d="M360,-14L72,649L0,668v33H327V668L216,648L420,164L615,649L504,668v33H764V668L697,652L416,-14Z" 
id="f0_r"
transform="scale(0.001,-0.001)" />

<path d="M289,-14c0,0,-179,0,-179,205V649L20,668v33H233V200c0,0,0,-128,120,-128c0,0,92,0,173,23V649L420,668v33H649V52L738,34V0H533l-6,57C527,57,474,28,405,6c0,0,-69,-20,-116,-20Zm24,849v24l147,203H618v-27L354,835Z" 
id="f0_x"
transform="scale(0.001,-0.001)" />

<path d="M31,0V33L150,52v956L31,1026v34H274V52L394,33V0Z" 
id="f0_7"
transform="scale(0.001,-0.001)" />

<path d="M0,-14L351,1007h73L75,-14Z" 
id="f0_11"
transform="scale(0.001,-0.001)" />

<path d="M557,-14c0,0,-199,0,-298,89c0,0,-99,90,-99,255V941L32,960v40H432V960L304,941V341c0,0,0,-273,264,-273c0,0,144,0,220,68c0,0,77,68,77,202V941L730,960v40h341V960L943,941V344c0,0,0,-180,-99,-269c0,0,-99,-89,-287,-89Z" 
id="f0_12"
transform="scale(0.001,-0.001)" />

<path d="M191,-20c0,0,-39,0,-65,25c0,0,-25,27,-25,64c0,0,0,38,26,64c0,0,26,26,64,26c0,0,38,0,64,-26c0,0,26,-26,26,-64c0,0,0,-37,-25,-64c0,0,-26,-25,-65,-25Z" 
id="f0_13"
transform="scale(0.001,-0.001)" />

<path d="M377,44c0,0,99,0,147,73c0,0,47,73,47,237c0,0,0,161,-47,234c0,0,-47,72,-147,72c0,0,-97,0,-141,-69c0,0,-44,-70,-44,-237c0,0,0,-169,45,-239c0,0,44,-71,140,-71Zm0,-58c0,0,-158,0,-238,94c0,0,-81,95,-81,274c0,0,0,178,81,272c0,0,80,94,244,94c0,0,160,0,241,-92c0,0,82,-92,82,-274c0,0,0,-368,-329,-368ZM301,835v24l147,203H606v-27L342,835Z" 
id="f0_g"
transform="scale(0.001,-0.001)" />

<path d="M431,0V33L535,52V499c0,0,0,62,-32,96c0,0,-32,33,-95,33c0,0,-66,0,-163,-22V52L350,33V0H32V33l89,19V649L32,668v33H237l6,-57c0,0,56,32,119,54c0,0,62,22,110,22c0,0,52,0,95,-20c0,0,44,-19,66,-62c0,0,57,32,134,57c0,0,77,25,128,25c0,0,179,0,179,-207V52l90,-19V0H846V33L950,52V499c0,0,0,129,-119,129c0,0,-19,0,-45,-3c0,0,-26,-3,-52,-7c0,0,-25,-4,-49,-8c0,0,-23,-5,-39,-8c0,0,13,-41,13,-89V52L764,33V0Z" 
id="f0_i"
transform="scale(0.001,-0.001)" />

<path d="M156,-317V454l139,56V-317ZM505,0L806,729H139V835H967V753L650,0Z" 
id="f1_6"
transform="scale(0.001,-0.001)" />

<path d="M585,0V426c0,0,0,54,-8,98c0,0,-8,44,-27,83c0,0,-19,40,-49,66c0,0,-30,26,-77,41c0,0,-47,15,-108,15H66V836H315c0,0,94,0,166,-20c0,0,71,-20,116,-54c0,0,46,-35,75,-88c0,0,28,-52,40,-112c0,0,12,-60,12,-137V0Z" 
id="f1_7"
transform="scale(0.001,-0.001)" />

<path d="M139,0V106H400c0,0,176,0,253,71c0,0,78,72,78,250c0,0,0,163,-80,233c0,0,-81,69,-250,69H278L277,564c0,0,-1,-54,26,-80c0,0,27,-25,82,-25c0,0,30,0,80,9V355c0,0,-61,-12,-111,-12c0,0,-100,0,-157,55c0,0,-58,55,-58,186V836H456c0,0,193,0,303,-109c0,0,110,-109,110,-309c0,0,0,-200,-110,-309C759,109,648,0,456,0Z" 
id="f1_8"
transform="scale(0.001,-0.001)" />

<path d="M287,0L589,729H66v386H205V836l547,-1l-2,-82L433,0Z" 
id="f1_e"
transform="scale(0.001,-0.001)" />

<path d="M154,0V454l138,56V0ZM722,0V454c0,0,0,161,-49,218c0,0,-48,57,-186,57H139V836H485c0,0,207,0,291,-93c0,0,83,-94,83,-318V0Z" 
id="f1_3"
transform="scale(0.001,-0.001)" />

<path d="M152,0V473c0,0,0,94,28,161c0,0,29,66,71,95H66V836H463V729H404c0,0,-65,0,-89,-57c0,0,-25,-58,-25,-199V0Z" 
id="f1_4"
transform="scale(0.001,-0.001)" />

<path d="M139,0V836H485c0,0,206,0,290,-90c0,0,84,-89,84,-294V0H721V473c0,0,0,147,-49,202c0,0,-48,54,-186,54H277V0Z" 
id="f1_h"
transform="scale(0.001,-0.001)" />

<path d="M66,0V107H554V452c0,0,0,56,-4,93c0,0,-4,37,-18,75c0,0,-14,38,-40,60c0,0,-26,22,-71,36c0,0,-45,13,-110,13H66V836H312c0,0,91,0,157,-17c0,0,66,-17,109,-49c0,0,44,-32,69,-84c0,0,26,-52,36,-114c0,0,10,-62,10,-147V107H817V0Z" 
id="f1_f"
transform="scale(0.001,-0.001)" />

<path d="M71,0V90H214v934H71v90H1073V851H970v160H502V654H792V796H895V411H792V552H502V103H984V263h102V0Z" 
id="f2_2"
transform="scale(0.001,-0.001)" />

<path d="M87,-338c0,0,-45,0,-94,7c0,0,-51,8,-105,22v168l84,-1c0,0,1,-59,23,-86c0,0,21,-26,70,-26c0,0,55,0,77,35c0,0,21,35,21,127V703H51v90H427V-92c0,0,0,-122,-86,-184c0,0,-86,-62,-254,-62ZM277,876c0,0,-61,0,-102,41c0,0,-42,41,-42,101c0,0,0,60,41,101c0,0,42,42,103,42c0,0,58,0,100,-42c0,0,42,-42,42,-101c0,0,0,-59,-42,-101c0,0,-41,-41,-100,-41Z" 
id="f2_3"
transform="scale(0.001,-0.001)" />

<path d="M612,448c0,0,0,156,-29,219c0,0,-29,63,-99,63c0,0,-68,0,-98,-61c0,0,-29,-62,-29,-208V448ZM488,-20c0,0,-205,0,-315,107C173,87,63,195,63,397c0,0,0,197,112,307c0,0,113,110,313,110c0,0,197,0,303,-115c0,0,105,-116,111,-340H357v-6c0,0,0,-154,46,-222c0,0,46,-68,149,-68c0,0,86,0,139,45c0,0,53,46,68,133H883C883,241,851,105,755,42c0,0,-95,-62,-267,-62Z" 
id="f2_4"
transform="scale(0.001,-0.001)" />

<path d="M53,0V90H165V703H44v90H429V652c0,0,39,83,103,123c0,0,64,39,156,39c0,0,24,0,57,-3c0,0,33,-3,76,-9V565H737c0,0,-4,63,-34,94c0,0,-30,31,-87,31c0,0,-87,0,-137,-76c0,0,-50,-76,-50,-211V90H573V0Z" 
id="f2_5"
transform="scale(0.001,-0.001)" />

<path d="M507,-20c0,0,-212,0,-328,108C179,88,63,198,63,397c0,0,0,197,114,307c0,0,115,110,320,110c0,0,82,0,167,-15c0,0,84,-16,171,-47V532H752c0,0,-12,101,-59,150c0,0,-47,48,-132,48c0,0,-111,0,-157,-74c0,0,-47,-75,-47,-259c0,0,0,-180,45,-257c0,0,46,-77,149,-77c0,0,80,0,128,47c0,0,48,48,58,137H861C861,247,833,112,745,45c0,0,-87,-65,-238,-65Z" 
id="f2_6"
transform="scale(0.001,-0.001)" />

<path d="M53,0V90H165V703H53v90H429V90H543V0ZM285,876c0,0,-61,0,-102,41c0,0,-42,41,-42,101c0,0,0,60,42,101c0,0,41,42,102,42c0,0,59,0,100,-42c0,0,41,-41,41,-101c0,0,0,-59,-41,-101c0,0,-41,-41,-100,-41Z" 
id="f2_7"
transform="scale(0.001,-0.001)" />

<path d="M510,63c0,0,84,0,118,71c0,0,34,72,34,263c0,0,0,191,-34,262c0,0,-33,71,-118,71c0,0,-84,0,-119,-72c0,0,-34,-72,-34,-261c0,0,0,-190,34,-262c0,0,35,-72,119,-72Zm0,-83c0,0,-209,0,-328,110C182,90,63,201,63,397c0,0,0,196,119,307c0,0,119,110,328,110c0,0,211,0,330,-110c0,0,118,-111,118,-307c0,0,0,-196,-119,-307C839,90,720,-20,510,-20Z" 
id="f2_8"
transform="scale(0.001,-0.001)" />

<path d="M209,0V90H418V992L187,854V966l279,168H701V90H910V0Z" 
id="f2_a"
transform="scale(0.001,-0.001)" />

<path d="M530,66c0,0,85,0,119,52c0,0,35,53,35,191c0,0,0,137,-34,188c0,0,-35,52,-120,52c0,0,-85,0,-119,-52c0,0,-35,-51,-35,-188c0,0,0,-138,35,-191c0,0,35,-52,119,-52Zm0,570c0,0,70,0,98,43c0,0,28,44,28,161c0,0,0,118,-28,163c0,0,-29,44,-98,44c0,0,-69,0,-97,-44c0,0,-28,-45,-28,-163c0,0,0,-117,28,-161c0,0,28,-43,97,-43Zm0,-656c0,0,-218,0,-334,81C196,61,79,143,79,296c0,0,0,123,70,199c0,0,69,77,201,98c0,0,-117,27,-175,90c0,0,-59,63,-59,160c0,0,0,142,106,217c0,0,106,74,308,74c0,0,202,0,308,-74c0,0,107,-75,107,-217c0,0,0,-97,-59,-160c0,0,-59,-63,-176,-90c0,0,133,-21,202,-98c0,0,69,-76,69,-199c0,0,0,-153,-116,-235c0,0,-116,-81,-335,-81Z" 
id="f2_k"
transform="scale(0.001,-0.001)" />

<path d="M83,309V510H551V309Z" 
id="f2_l"
transform="scale(0.001,-0.001)" />

<path d="M284,67c0,0,51,0,88,12c0,0,37,11,74,29V357l-98,-3c0,0,-100,-3,-135,-38c0,0,-35,-36,-35,-118c0,0,0,-131,106,-131ZM233,-14c0,0,-179,0,-179,208c0,0,0,70,27,116c0,0,27,46,87,70c0,0,60,24,173,27l105,3V519c0,0,0,73,-26,107c0,0,-27,34,-82,34c0,0,-75,0,-137,-35L176,538H134V691c0,0,121,26,213,26c0,0,115,0,169,-47c0,0,54,-47,54,-144V52L657,34V0H465L451,70c0,0,-85,-84,-218,-84Zm22,849v24l146,203H560v-27L296,835Z" 
id="f0_y"
transform="scale(0.001,-0.001)" />

<path d="M41,0V34L426,641H261c0,0,-42,0,-80,-7c0,0,-39,-7,-54,-19L104,515H69V701H586V665L201,60H407c0,0,42,0,89,10c0,0,47,10,66,25l39,147h35L617,0Z" 
id="f0_t"
transform="scale(0.001,-0.001)" />

<path d="M442,0V33l93,19V504c0,0,0,129,-124,129c0,0,-70,0,-168,-22V52L338,33V0H31V33l88,19v956L15,1026v34H243V756c0,0,0,-77,-5,-112c0,0,54,31,122,53c0,0,68,23,115,23c0,0,91,0,137,-53c0,0,47,-53,47,-154V52L744,33V0Z" 
id="f0_o"
transform="scale(0.001,-0.001)" />

<path d="M359,-270c0,0,124,0,192,46c0,0,67,47,67,129c0,0,0,43,-26,67c0,0,-26,24,-79,24H242c0,0,-32,-27,-51,-69c0,0,-20,-41,-20,-77c0,0,0,-64,46,-92c0,0,46,-28,142,-28Zm11,561c0,0,81,0,115,47c0,0,34,47,34,141c0,0,0,100,-35,142c0,0,-35,42,-113,42c0,0,-78,0,-114,-43c0,0,-37,-42,-37,-141c0,0,0,-98,36,-143c0,0,36,-45,114,-45ZM359,-329c0,0,-143,0,-218,44c0,0,-75,43,-75,125c0,0,0,39,27,78c0,0,26,38,98,89c0,0,-43,14,-72,48c0,0,-29,35,-29,74L208,262c0,0,-118,55,-118,217c0,0,0,115,73,178c0,0,73,63,211,63c0,0,28,0,71,-6c0,0,44,-6,67,-13l165,83l26,-32L599,644c0,0,50,-56,50,-165c0,0,0,-120,-72,-182c0,0,-73,-62,-208,-62c0,0,-62,0,-114,11L208,148c0,0,2,-13,29,-24c0,0,27,-12,67,-12H512c0,0,113,0,168,-49c0,0,55,-49,55,-134c0,0,0,-79,-44,-137c0,0,-43,-58,-128,-90c0,0,-84,-31,-204,-31Z" 
id="f0_n"
transform="scale(0.001,-0.001)" />

<path d="M376,50c0,0,103,0,149,80c0,0,46,81,46,240c0,0,0,137,-47,204c0,0,-48,67,-148,67c0,0,-44,0,-87,-7c0,0,-44,-8,-63,-17V62c0,0,63,-12,150,-12Zm3,-64c0,0,-64,0,-141,14c0,0,-78,14,-136,37v971L0,1026v34H226V809c0,0,0,-40,-4,-148c0,0,74,59,188,59c0,0,143,0,219,-87c0,0,77,-87,77,-263c0,0,0,-189,-84,-287c0,0,-84,-97,-243,-97Z" 
id="f0_b"
transform="scale(0.001,-0.001)" />


</defs>
</svg>