<?xml version="1.0" encoding="UTF-8" standalone="no"?>
<!DOCTYPE svg PUBLIC "-//W3C//DTD SVG 1.1//EN"
"http://www.w3.org/Graphics/SVG/1.1/DTD/svg11.dtd">
<svg viewBox="0 0 909 1286" version="1.1" xmlns="http://www.w3.org/2000/svg" xmlns:xlink="http://www.w3.org/1999/xlink">
<defs>
<clipPath id="c0_1"><path d="M0,1286.2V0H909.4V1286.2Z" /></clipPath>
<style type="text/css"><![CDATA[
.g0_1{
fill: #A5A5A5;
}
.g1_1{
fill: none;
stroke: #000000;
stroke-width: 0.7638889;
stroke-linecap: butt;
stroke-linejoin: round;
}
]]></style>
</defs>
<path fill-rule="evenodd" d="M677.6,197.9H780.3V175.8H677.6v22.1Z" class="g0_1" />
<path fill-rule="evenodd" d="M585.1,197.9h92.4V175.8H585.1v22.1Z" class="g0_1" />
<path fill-rule="evenodd" d="M444.4,197.9H585.1V175.8H444.4v22.1Z" class="g0_1" />
<path fill-rule="evenodd" d="M128.9,197.9H444.4V175.8H128.9v22.1Z" class="g0_1" />
<path fill-rule="evenodd" d="M677.6,197.9H780.3V175.8H677.6v22.1Z" class="g0_1" />
<path fill-rule="evenodd" d="M585.1,197.9h92.4V175.8H585.1v22.1Z" class="g0_1" />
<path fill-rule="evenodd" d="M444.4,197.9H585.1V175.8H444.4v22.1Z" class="g0_1" />
<path fill-rule="evenodd" d="M128.9,197.9H444.4V175.8H128.9v22.1Z" class="g0_1" />
<g clip-path="url(#c0_1)">
<g fill="#000000" >
<use xlink:href="#f0_2" transform="matrix(16,0,0,16,449.2,151.3)" />
<use xlink:href="#f0_3" transform="matrix(16,0,0,16,455.9,151.3)" />
<use xlink:href="#f0_4" transform="matrix(16,0,0,16,471.1,151.3)" />
<use xlink:href="#f0_4" transform="matrix(16,0,0,16,477.8,151.3)" />
<use xlink:href="#f0_5" transform="matrix(16,0,0,16,484.7,151.3)" />
<use xlink:href="#f0_6" transform="matrix(16,0,0,16,493,151.3)" />
<use xlink:href="#f0_2" transform="matrix(16,0,0,16,507.4,151.3)" />
<use xlink:href="#f0_4" transform="matrix(16,0,0,16,520.5,151.3)" />
<use xlink:href="#f0_8" transform="matrix(16,0,0,16,527.3,151.3)" />
<use xlink:href="#f0_9" transform="matrix(16,0,0,16,539.4,151.3)" />
<use xlink:href="#f0_a" transform="matrix(16,0,0,16,551.7,151.3)" />
<use xlink:href="#f0_b" transform="matrix(16,0,0,16,565.5,151.3)" />
<use xlink:href="#f0_6" transform="matrix(16,0,0,16,579.7,151.3)" />
<use xlink:href="#f0_3" transform="matrix(16,0,0,16,600.6,151.3)" />
<use xlink:href="#f0_4" transform="matrix(16,0,0,16,615.8,151.3)" />
<use xlink:href="#f0_c" transform="matrix(16,0,0,16,622.6,151.3)" />
<use xlink:href="#f0_d" transform="matrix(16,0,0,16,634.8,151.3)" />
<use xlink:href="#f0_e" transform="matrix(16,0,0,16,643.2,151.3)" />
<use xlink:href="#f0_f" transform="matrix(16,0,0,16,656.2,151.3)" />
<use xlink:href="#f0_g" transform="matrix(16,0,0,16,668.1,151.3)" />
<use xlink:href="#f0_6" transform="matrix(16,0,0,16,684.1,151.3)" />
<use xlink:href="#f0_3" transform="matrix(16,0,0,16,705,151.3)" />
<use xlink:href="#f0_h" transform="matrix(16,0,0,16,720.3,151.3)" />
<use xlink:href="#f0_4" transform="matrix(16,0,0,16,735,151.3)" />
<use xlink:href="#f0_i" transform="matrix(16,0,0,16,741.9,151.3)" />
<use xlink:href="#f0_9" transform="matrix(16,0,0,16,759.4,151.3)" />
</g>
</g>
<path d="M128.6,176.2H780.8M128.6,198.4H780.8M128.6,222.2H780.8M128.6,269.3H780.8m-652.2,47H780.8M128.6,363.4H780.8m-652.2,24H780.8M128.6,411.2H780.8m-652.2,24H780.8M128.6,459H780.8M128.6,506.1H780.8m-652.2,24H780.8M128.6,553.9H780.8m-652.2,24H780.8M128.6,601.7H780.8M128.6,672H780.8M128.6,695.8H780.8m-652.2,24H780.8M128.6,743.6H780.8m-652.2,24H780.8M128.6,791.5H780.8m-652.2,24H780.8M128.6,839.3H780.8m-652.2,24H780.8M128.6,887.1H780.8m-652.2,24H780.8M128.6,934.9H780.8M128.6,982H780.8m-652.2,47H780.8m-652.2,24H780.8m-652.2,23.9H780.8m-652.2,23.9H780.8M128.9,175.8v925.4M444.4,175.8v925.4M585.1,175.8v925.4M677.6,175.8v925.4M780.4,175.8v925.4" class="g1_1" />
<g clip-path="url(#c0_1)">
<g fill="#000000" >
<use xlink:href="#f1_2" transform="matrix(12,0,0,12,687,193.6)" />
<use xlink:href="#f1_3" transform="matrix(12,0,0,12,699.1,193.6)" />
<use xlink:href="#f1_4" transform="matrix(12,0,0,12,703.2,193.6)" />
<use xlink:href="#f1_3" transform="matrix(12,0,0,12,710.5,193.6)" />
<use xlink:href="#f1_5" transform="matrix(12,0,0,12,714.6,193.6)" />
<use xlink:href="#f1_6" transform="matrix(12,0,0,12,726.5,193.6)" />
<use xlink:href="#f1_2" transform="matrix(12,0,0,12,742.7,193.6)" />
<use xlink:href="#f1_8" transform="matrix(12,0,0,12,754.8,193.6)" />
<use xlink:href="#f1_9" transform="matrix(12,0,0,12,759.8,193.6)" />
<use xlink:href="#f1_2" transform="matrix(12,0,0,12,597.2,193.6)" />
<use xlink:href="#f1_8" transform="matrix(12,0,0,12,609.3,193.6)" />
<use xlink:href="#f1_9" transform="matrix(12,0,0,12,614.3,193.6)" />
<use xlink:href="#f1_a" transform="matrix(12,0,0,12,626.5,193.6)" />
<use xlink:href="#f1_b" transform="matrix(12,0,0,12,644.4,193.6)" />
<use xlink:href="#f1_c" transform="matrix(12,0,0,12,656.4,193.6)" />
<use xlink:href="#f1_a" transform="matrix(12,0,0,12,537.5,193.6)" />
<use xlink:href="#f1_3" transform="matrix(12,0,0,12,549.4,193.6)" />
<use xlink:href="#f1_3" transform="matrix(12,0,0,12,553.5,193.6)" />
<use xlink:href="#f1_d" transform="matrix(12,0,0,12,557.6,193.6)" />
<use xlink:href="#f1_a" transform="matrix(12,0,0,12,565.1,193.6)" />
<use xlink:href="#f1_2" transform="matrix(12,0,0,12,385.3,193.6)" />
<use xlink:href="#f1_8" transform="matrix(12,0,0,12,397.4,193.6)" />
<use xlink:href="#f1_e" transform="matrix(12,0,0,12,402.4,193.6)" />
<use xlink:href="#f1_f" transform="matrix(12,0,0,12,412.8,193.6)" />
<use xlink:href="#f1_a" transform="matrix(12,0,0,12,424.2,193.6)" />
<use xlink:href="#f2_2" transform="matrix(11,0,0,11,744,214.3)" />
<use xlink:href="#f2_3" transform="matrix(11,0,0,11,756.1,214.3)" />
<use xlink:href="#f2_5" transform="matrix(11,0,0,11,764.5,214.3)" />
<use xlink:href="#f1_g" transform="matrix(13,0,0,13,656.9,217.1)" />
<use xlink:href="#f1_9" transform="matrix(13,0,0,13,656.2,217.1)" />
<use xlink:href="#f1_9" transform="matrix(13,0,0,13,563.8,217.1)" />
<use xlink:href="#f2_6" transform="matrix(11,0,0,11,744,238.3)" />
<use xlink:href="#f2_3" transform="matrix(11,0,0,11,755.2,238.3)" />
<use xlink:href="#f2_7" transform="matrix(11,0,0,11,763.6,238.3)" />
<use xlink:href="#f1_a" transform="matrix(13,0,0,13,645,241.1)" />
<use xlink:href="#f1_h" transform="matrix(13,0,0,13,657.4,241.1)" />
<use xlink:href="#f1_i" transform="matrix(13,0,0,13,656,241.1)" />
<use xlink:href="#f1_j" transform="matrix(13,0,0,13,658,241.1)" />
<use xlink:href="#f1_i" transform="matrix(13,0,0,13,526.9,241.1)" />
<use xlink:href="#f1_j" transform="matrix(13,0,0,13,528.9,241.1)" />
<use xlink:href="#f1_8" transform="matrix(13,0,0,13,546.6,241.1)" />
<use xlink:href="#f1_9" transform="matrix(13,0,0,13,552,241.1)" />
<use xlink:href="#f1_8" transform="matrix(13,0,0,13,571.6,241.1)" />
<use xlink:href="#f1_b" transform="matrix(13,0,0,13,137.8,241.1)" />
<use xlink:href="#f1_3" transform="matrix(13,0,0,13,151,241.1)" />
<use xlink:href="#f1_9" transform="matrix(13,0,0,13,155.4,241.1)" />
<use xlink:href="#f1_5" transform="matrix(13,0,0,13,168.6,241.1)" />
<use xlink:href="#f1_j" transform="matrix(13,0,0,13,181.5,241.1)" />
<use xlink:href="#f1_k" transform="matrix(13,0,0,13,192.9,241.1)" />
<use xlink:href="#f1_j" transform="matrix(13,0,0,13,206.4,241.1)" />
<use xlink:href="#f1_2" transform="matrix(13,0,0,13,240.6,241.1)" />
<use xlink:href="#f1_e" transform="matrix(13,0,0,13,253.6,241.1)" />
<use xlink:href="#f1_l" transform="matrix(13,0,0,13,264.7,241.1)" />
<use xlink:href="#f1_9" transform="matrix(13,0,0,13,277.7,241.1)" />
<use xlink:href="#f1_5" transform="matrix(13,0,0,13,313.7,241.1)" />
<use xlink:href="#f1_f" transform="matrix(13,0,0,13,326.5,241.1)" />
<use xlink:href="#f1_k" transform="matrix(13,0,0,13,338.9,241.1)" />
<use xlink:href="#f1_2" transform="matrix(13,0,0,13,375.2,241.1)" />
<use xlink:href="#f1_f" transform="matrix(13,0,0,13,388.2,241.1)" />
<use xlink:href="#f1_k" transform="matrix(13,0,0,13,400.6,241.1)" />
<use xlink:href="#f1_c" transform="matrix(13,0,0,13,414,241.1)" />
<use xlink:href="#f1_4" transform="matrix(13,0,0,13,428.1,241.1)" />
<use xlink:href="#f1_m" transform="matrix(13,0,0,13,385,264.2)" />
<use xlink:href="#f1_b" transform="matrix(13,0,0,13,391.3,264.2)" />
<use xlink:href="#f1_3" transform="matrix(13,0,0,13,404.4,264.2)" />
<use xlink:href="#f1_4" transform="matrix(13,0,0,13,408.8,264.2)" />
<use xlink:href="#f1_8" transform="matrix(13,0,0,13,416.8,264.2)" />
<use xlink:href="#f1_c" transform="matrix(13,0,0,13,422.1,264.2)" />
<use xlink:href="#f2_8" transform="matrix(11,0,0,11,744.9,285.4)" />
<use xlink:href="#f2_3" transform="matrix(11,0,0,11,756.1,285.4)" />
<use xlink:href="#f2_9" transform="matrix(11,0,0,11,764.6,285.4)" />
<use xlink:href="#f1_a" transform="matrix(13,0,0,13,643.7,288.1)" />
<use xlink:href="#f1_h" transform="matrix(13,0,0,13,657.8,288.1)" />
<use xlink:href="#f1_n" transform="matrix(13,0,0,13,656.6,288.1)" />
<use xlink:href="#f1_o" transform="matrix(13,0,0,13,518.8,288.1)" />
<use xlink:href="#f1_8" transform="matrix(13,0,0,13,539.3,288.1)" />
<use xlink:href="#f1_9" transform="matrix(13,0,0,13,544.6,288.1)" />
<use xlink:href="#f1_n" transform="matrix(13,0,0,13,564.2,288.1)" />
<use xlink:href="#f1_3" transform="matrix(13,0,0,13,400.1,288.1)" />
<use xlink:href="#f1_4" transform="matrix(13,0,0,13,404.5,288.1)" />
<use xlink:href="#f1_p" transform="matrix(13,0,0,13,412.5,288.1)" />
<use xlink:href="#f1_6" transform="matrix(13,0,0,13,424.9,288.1)" />
<use xlink:href="#f2_a" transform="matrix(11,0,0,11,379.3,288.1)" />
<use xlink:href="#f1_8" transform="matrix(13,0,0,13,363.7,288.1)" />
<use xlink:href="#f2_b" transform="matrix(11,0,0,11,347.6,288.1)" />
<use xlink:href="#f1_2" transform="matrix(13,0,0,13,138,288.1)" />
<use xlink:href="#f1_3" transform="matrix(13,0,0,13,150.9,288.1)" />
<use xlink:href="#f1_d" transform="matrix(13,0,0,13,155.4,288.1)" />
<use xlink:href="#f1_a" transform="matrix(13,0,0,13,163.5,288.1)" />
<use xlink:href="#f1_4" transform="matrix(13,0,0,13,176.4,288.1)" />
<use xlink:href="#f1_2" transform="matrix(13,0,0,13,194.9,288.1)" />
<use xlink:href="#f1_e" transform="matrix(13,0,0,13,207.9,288.1)" />
<use xlink:href="#f1_l" transform="matrix(13,0,0,13,219.1,288.1)" />
<use xlink:href="#f1_9" transform="matrix(13,0,0,13,232,288.1)" />
<use xlink:href="#f1_q" transform="matrix(13,0,0,13,255.7,288.1)" />
<use xlink:href="#f1_r" transform="matrix(13,0,0,13,261.9,288.1)" />
<use xlink:href="#f1_n" transform="matrix(13,0,0,13,267.4,288.1)" />
<use xlink:href="#f1_2" transform="matrix(13,0,0,13,290.6,288.1)" />
<use xlink:href="#f1_3" transform="matrix(13,0,0,13,303.6,288.1)" />
<use xlink:href="#f1_d" transform="matrix(13,0,0,13,308,288.1)" />
<use xlink:href="#f1_a" transform="matrix(13,0,0,13,316.2,288.1)" />
<use xlink:href="#f1_4" transform="matrix(13,0,0,13,329.2,288.1)" />
<use xlink:href="#f1_m" transform="matrix(13,0,0,13,410.4,311.2)" />
<use xlink:href="#f1_r" transform="matrix(13,0,0,13,416.6,311.2)" />
<use xlink:href="#f1_o" transform="matrix(13,0,0,13,422.1,311.2)" />
<use xlink:href="#f2_8" transform="matrix(11,0,0,11,724.5,332.4)" />
<use xlink:href="#f2_c" transform="matrix(11,0,0,11,735.6,332.4)" />
<use xlink:href="#f2_3" transform="matrix(11,0,0,11,747.7,332.4)" />
<use xlink:href="#f2_9" transform="matrix(11,0,0,11,756.2,332.4)" />
<use xlink:href="#f2_d" transform="matrix(11,0,0,11,763.6,332.4)" />
<use xlink:href="#f1_a" transform="matrix(13,0,0,13,639.2,335.2)" />
<use xlink:href="#f1_r" transform="matrix(13,0,0,13,652.2,335.2)" />
<use xlink:href="#f1_h" transform="matrix(13,0,0,13,656.6,335.2)" />
<use xlink:href="#f1_s" transform="matrix(13,0,0,13,657.7,335.2)" />
<use xlink:href="#f1_r" transform="matrix(13,0,0,13,559.8,335.2)" />
<use xlink:href="#f1_s" transform="matrix(13,0,0,13,565.3,335.2)" />
<use xlink:href="#f1_t" transform="matrix(13,0,0,13,382.2,335.2)" />
<use xlink:href="#f1_8" transform="matrix(13,0,0,13,394.9,335.2)" />
<use xlink:href="#f1_e" transform="matrix(13,0,0,13,400.2,335.2)" />
<use xlink:href="#f1_s" transform="matrix(13,0,0,13,411.4,335.2)" />
<use xlink:href="#f1_a" transform="matrix(13,0,0,13,423.2,335.2)" />
<use xlink:href="#f2_8" transform="matrix(11,0,0,11,340.8,335.2)" />
<use xlink:href="#f2_c" transform="matrix(11,0,0,11,352,335.2)" />
<use xlink:href="#f1_9" transform="matrix(13,0,0,13,137.5,335.2)" />
<use xlink:href="#f1_6" transform="matrix(13,0,0,13,150.8,335.2)" />
<use xlink:href="#f1_8" transform="matrix(13,0,0,13,162,335.2)" />
<use xlink:href="#f1_2" transform="matrix(13,0,0,13,185.1,335.2)" />
<use xlink:href="#f1_l" transform="matrix(13,0,0,13,198.1,335.2)" />
<use xlink:href="#f1_9" transform="matrix(13,0,0,13,211,335.2)" />
<use xlink:href="#f1_2" transform="matrix(13,0,0,13,242.2,335.2)" />
<use xlink:href="#f1_8" transform="matrix(13,0,0,13,255.2,335.2)" />
<use xlink:href="#f1_9" transform="matrix(13,0,0,13,260.5,335.2)" />
<use xlink:href="#f1_9" transform="matrix(13,0,0,13,291.5,335.2)" />
<use xlink:href="#f1_8" transform="matrix(13,0,0,13,304.8,335.2)" />
<use xlink:href="#f1_a" transform="matrix(13,0,0,13,310.1,335.2)" />
<use xlink:href="#f1_m" transform="matrix(13,0,0,13,380.9,358.3)" />
<use xlink:href="#f1_b" transform="matrix(13,0,0,13,387.1,358.3)" />
<use xlink:href="#f1_3" transform="matrix(13,0,0,13,400.3,358.3)" />
<use xlink:href="#f1_3" transform="matrix(13,0,0,13,404.7,358.3)" />
<use xlink:href="#f1_2" transform="matrix(13,0,0,13,409.1,358.3)" />
<use xlink:href="#f1_c" transform="matrix(13,0,0,13,422.1,358.3)" />
<use xlink:href="#f2_e" transform="matrix(11,0,0,11,743.1,379.5)" />
<use xlink:href="#f2_3" transform="matrix(11,0,0,11,755.2,379.5)" />
<use xlink:href="#f2_f" transform="matrix(11,0,0,11,763.6,379.5)" />
<use xlink:href="#f1_a" transform="matrix(13,0,0,13,645.6,382.3)" />
<use xlink:href="#f1_h" transform="matrix(13,0,0,13,659.7,382.3)" />
<use xlink:href="#f1_u" transform="matrix(13,0,0,13,658.6,382.3)" />
<use xlink:href="#f1_u" transform="matrix(13,0,0,13,566.2,382.3)" />
<use xlink:href="#f2_a" transform="matrix(11,0,0,11,745.9,403.3)" />
<use xlink:href="#f2_3" transform="matrix(11,0,0,11,756.1,403.3)" />
<use xlink:href="#f2_g" transform="matrix(11,0,0,11,764.5,403.3)" />
<use xlink:href="#f1_h" transform="matrix(13,0,0,13,656.9,406.1)" />
<use xlink:href="#f1_9" transform="matrix(13,0,0,13,656.2,406.1)" />
<use xlink:href="#f1_9" transform="matrix(13,0,0,13,563.8,406.1)" />
<use xlink:href="#f2_h" transform="matrix(11,0,0,11,748.6,427.3)" />
<use xlink:href="#f2_3" transform="matrix(11,0,0,11,757.9,427.3)" />
<use xlink:href="#f2_i" transform="matrix(11,0,0,11,766.3,427.3)" />
<use xlink:href="#f1_a" transform="matrix(13,0,0,13,630.8,430.1)" />
<use xlink:href="#f1_h" transform="matrix(13,0,0,13,643.2,430.1)" />
<use xlink:href="#f1_p" transform="matrix(13,0,0,13,643.8,430.1)" />
<use xlink:href="#f1_h" transform="matrix(13,0,0,13,656.9,430.1)" />
<use xlink:href="#f1_9" transform="matrix(13,0,0,13,656.2,430.1)" />
<use xlink:href="#f1_p" transform="matrix(13,0,0,13,564.7,430.1)" />
<use xlink:href="#f2_j" transform="matrix(11,0,0,11,743.1,451.2)" />
<use xlink:href="#f2_3" transform="matrix(11,0,0,11,755.2,451.2)" />
<use xlink:href="#f2_k" transform="matrix(11,0,0,11,763.6,451.2)" />
<use xlink:href="#f1_a" transform="matrix(13,0,0,13,609.7,453.9)" />
<use xlink:href="#f1_h" transform="matrix(13,0,0,13,623,453.9)" />
<use xlink:href="#f1_l" transform="matrix(13,0,0,13,622.7,453.9)" />
<use xlink:href="#f1_q" transform="matrix(13,0,0,13,642.1,453.9)" />
<use xlink:href="#f1_a" transform="matrix(13,0,0,13,648.3,453.9)" />
<use xlink:href="#f1_h" transform="matrix(13,0,0,13,659.6,453.9)" />
<use xlink:href="#f1_d" transform="matrix(13,0,0,13,661.1,453.9)" />
<use xlink:href="#f1_l" transform="matrix(13,0,0,13,524.6,453.9)" />
<use xlink:href="#f1_8" transform="matrix(13,0,0,13,543.9,453.9)" />
<use xlink:href="#f1_9" transform="matrix(13,0,0,13,549.2,453.9)" />
<use xlink:href="#f1_d" transform="matrix(13,0,0,13,568.8,453.9)" />
<use xlink:href="#f1_3" transform="matrix(13,0,0,13,400.1,453.9)" />
<use xlink:href="#f1_4" transform="matrix(13,0,0,13,404.5,453.9)" />
<use xlink:href="#f1_p" transform="matrix(13,0,0,13,412.5,453.9)" />
<use xlink:href="#f1_6" transform="matrix(13,0,0,13,424.9,453.9)" />
<use xlink:href="#f2_a" transform="matrix(11,0,0,11,383.5,453.9)" />
<use xlink:href="#f1_8" transform="matrix(13,0,0,13,372,453.9)" />
<use xlink:href="#f2_b" transform="matrix(11,0,0,11,359.8,453.9)" />
<use xlink:href="#f1_d" transform="matrix(13,0,0,13,205.3,453.9)" />
<use xlink:href="#f1_2" transform="matrix(13,0,0,13,220,453.9)" />
<use xlink:href="#f1_e" transform="matrix(13,0,0,13,233,453.9)" />
<use xlink:href="#f1_l" transform="matrix(13,0,0,13,244.1,453.9)" />
<use xlink:href="#f1_9" transform="matrix(13,0,0,13,257.1,453.9)" />
<use xlink:href="#f1_r" transform="matrix(13,0,0,13,276.8,453.9)" />
<use xlink:href="#f1_l" transform="matrix(13,0,0,13,282.1,453.9)" />
<use xlink:href="#f1_r" transform="matrix(13,0,0,13,295.1,453.9)" />
<use xlink:href="#f1_2" transform="matrix(13,0,0,13,307,453.9)" />
<use xlink:href="#f1_3" transform="matrix(13,0,0,13,320,453.9)" />
<use xlink:href="#f1_d" transform="matrix(13,0,0,13,324.4,453.9)" />
<use xlink:href="#f1_a" transform="matrix(13,0,0,13,332.5,453.9)" />
<use xlink:href="#f1_4" transform="matrix(13,0,0,13,345.5,453.9)" />
<use xlink:href="#f2_c" transform="matrix(11,0,0,11,743.1,475.1)" />
<use xlink:href="#f2_3" transform="matrix(11,0,0,11,755.2,475.1)" />
<use xlink:href="#f2_d" transform="matrix(11,0,0,11,763.6,475.1)" />
<use xlink:href="#f1_a" transform="matrix(13,0,0,13,626.1,477.9)" />
<use xlink:href="#f1_r" transform="matrix(13,0,0,13,638.9,477.9)" />
<use xlink:href="#f1_h" transform="matrix(13,0,0,13,643.3,477.9)" />
<use xlink:href="#f1_s" transform="matrix(13,0,0,13,644.4,477.9)" />
<use xlink:href="#f1_g" transform="matrix(13,0,0,13,656.9,477.9)" />
<use xlink:href="#f1_9" transform="matrix(13,0,0,13,656.2,477.9)" />
<use xlink:href="#f1_2" transform="matrix(13,0,0,13,471.3,477.9)" />
<use xlink:href="#f1_f" transform="matrix(13,0,0,13,484.3,477.9)" />
<use xlink:href="#f1_k" transform="matrix(13,0,0,13,496.7,477.9)" />
<use xlink:href="#f1_c" transform="matrix(13,0,0,13,510.1,477.9)" />
<use xlink:href="#f1_4" transform="matrix(13,0,0,13,524.2,477.9)" />
<use xlink:href="#f1_a" transform="matrix(13,0,0,13,538.4,477.9)" />
<use xlink:href="#f1_4" transform="matrix(13,0,0,13,551.4,477.9)" />
<use xlink:href="#f1_3" transform="matrix(13,0,0,13,559.3,477.9)" />
<use xlink:href="#f1_9" transform="matrix(13,0,0,13,563.7,477.9)" />
<use xlink:href="#f1_a" transform="matrix(13,0,0,13,137.8,477.9)" />
<use xlink:href="#f1_k" transform="matrix(13,0,0,13,150.8,477.9)" />
<use xlink:href="#f1_8" transform="matrix(13,0,0,13,164.2,477.9)" />
<use xlink:href="#f1_c" transform="matrix(13,0,0,13,169.6,477.9)" />
<use xlink:href="#f1_e" transform="matrix(13,0,0,13,183.6,477.9)" />
<use xlink:href="#f1_a" transform="matrix(13,0,0,13,201.3,477.9)" />
<use xlink:href="#f1_2" transform="matrix(13,0,0,13,214.3,477.9)" />
<use xlink:href="#f1_3" transform="matrix(13,0,0,13,227.3,477.9)" />
<use xlink:href="#f1_3" transform="matrix(13,0,0,13,231.7,477.9)" />
<use xlink:href="#f1_a" transform="matrix(13,0,0,13,236.1,477.9)" />
<use xlink:href="#f1_9" transform="matrix(13,0,0,13,255.5,477.9)" />
<use xlink:href="#f1_6" transform="matrix(13,0,0,13,268.8,477.9)" />
<use xlink:href="#f1_8" transform="matrix(13,0,0,13,286.6,477.9)" />
<use xlink:href="#f1_6" transform="matrix(13,0,0,13,291.9,477.9)" />
<use xlink:href="#f1_3" transform="matrix(13,0,0,13,303.2,477.9)" />
<use xlink:href="#f1_9" transform="matrix(13,0,0,13,307.7,477.9)" />
<use xlink:href="#f1_v" transform="matrix(13,0,0,13,320.9,477.9)" />
<use xlink:href="#f1_q" transform="matrix(13,0,0,13,338,477.9)" />
<use xlink:href="#f1_2" transform="matrix(13,0,0,13,344.3,477.9)" />
<use xlink:href="#f1_3" transform="matrix(13,0,0,13,357.3,477.9)" />
<use xlink:href="#f1_d" transform="matrix(13,0,0,13,361.7,477.9)" />
<use xlink:href="#f1_a" transform="matrix(13,0,0,13,369.8,477.9)" />
<use xlink:href="#f1_4" transform="matrix(13,0,0,13,382.8,477.9)" />
<use xlink:href="#f1_a" transform="matrix(13,0,0,13,397.2,477.9)" />
<use xlink:href="#f1_4" transform="matrix(13,0,0,13,410.2,477.9)" />
<use xlink:href="#f1_3" transform="matrix(13,0,0,13,418.1,477.9)" />
<use xlink:href="#f1_9" transform="matrix(13,0,0,13,422.6,477.9)" />
<use xlink:href="#f1_6" transform="matrix(13,0,0,13,403,501)" />
<use xlink:href="#f1_6" transform="matrix(13,0,0,13,414.3,501)" />
<use xlink:href="#f1_v" transform="matrix(13,0,0,13,425.6,501)" />
<use xlink:href="#f2_b" transform="matrix(11,0,0,11,752.4,522.2)" />
<use xlink:href="#f2_3" transform="matrix(11,0,0,11,757.9,522.2)" />
<use xlink:href="#f2_b" transform="matrix(11,0,0,11,766.3,522.2)" />
<use xlink:href="#f1_3" transform="matrix(13,0,0,13,651.8,524.9)" />
<use xlink:href="#f1_w" transform="matrix(13,0,0,13,656.9,524.9)" />
<use xlink:href="#f1_9" transform="matrix(13,0,0,13,656.2,524.9)" />
<use xlink:href="#f1_3" transform="matrix(13,0,0,13,559.3,524.9)" />
<use xlink:href="#f1_w" transform="matrix(13,0,0,13,564.5,524.9)" />
<use xlink:href="#f1_9" transform="matrix(13,0,0,13,563.7,524.9)" />
<use xlink:href="#f2_l" transform="matrix(11,0,0,11,752.4,546)" />
<use xlink:href="#f2_3" transform="matrix(11,0,0,11,758.9,546)" />
<use xlink:href="#f2_m" transform="matrix(11,0,0,11,767.4,546)" />
<use xlink:href="#f1_a" transform="matrix(13,0,0,13,625.3,548.8)" />
<use xlink:href="#f1_g" transform="matrix(13,0,0,13,638.7,548.8)" />
<use xlink:href="#f1_5" transform="matrix(13,0,0,13,638.3,548.8)" />
<use xlink:href="#f1_x" transform="matrix(13,0,0,13,651.1,548.8)" />
<use xlink:href="#f1_8" transform="matrix(13,0,0,13,651.1,548.8)" />
<use xlink:href="#f1_l" transform="matrix(13,0,0,13,656.5,548.8)" />
<use xlink:href="#f1_l" transform="matrix(13,0,0,13,564.1,548.8)" />
<use xlink:href="#f2_n" transform="matrix(11,0,0,11,743.1,571.8)" />
<use xlink:href="#f2_3" transform="matrix(11,0,0,11,755.2,571.8)" />
<use xlink:href="#f2_o" transform="matrix(11,0,0,11,763.6,571.8)" />
<use xlink:href="#f1_a" transform="matrix(13,0,0,13,642.4,572.8)" />
<use xlink:href="#f1_g" transform="matrix(13,0,0,13,655.9,572.8)" />
<use xlink:href="#f1_o" transform="matrix(13,0,0,13,655.4,572.8)" />
<use xlink:href="#f1_o" transform="matrix(13,0,0,13,563,572.8)" />
<use xlink:href="#f1_m" transform="matrix(13,0,0,13,195.7,572.8)" />
<use xlink:href="#f1_2" transform="matrix(13,0,0,13,202.1,572.8)" />
<use xlink:href="#f1_3" transform="matrix(13,0,0,13,215.1,572.8)" />
<use xlink:href="#f1_u" transform="matrix(13,0,0,13,219.5,572.8)" />
<use xlink:href="#f1_e" transform="matrix(13,0,0,13,230.3,572.8)" />
<use xlink:href="#f1_p" transform="matrix(13,0,0,13,241.5,572.8)" />
<use xlink:href="#f1_n" transform="matrix(13,0,0,13,253.9,572.8)" />
<use xlink:href="#f1_j" transform="matrix(13,0,0,13,266.7,572.8)" />
<use xlink:href="#f1_a" transform="matrix(13,0,0,13,284.6,572.8)" />
<use xlink:href="#f1_e" transform="matrix(13,0,0,13,297.5,572.8)" />
<use xlink:href="#f1_3" transform="matrix(13,0,0,13,308.7,572.8)" />
<use xlink:href="#f1_u" transform="matrix(13,0,0,13,313.1,572.8)" />
<use xlink:href="#f1_4" transform="matrix(13,0,0,13,324,572.8)" />
<use xlink:href="#f1_q" transform="matrix(13,0,0,13,338.5,572.8)" />
<use xlink:href="#f1_2" transform="matrix(13,0,0,13,344.7,572.8)" />
<use xlink:href="#f1_3" transform="matrix(13,0,0,13,357.7,572.8)" />
<use xlink:href="#f1_y" transform="matrix(13,0,0,13,362.1,572.8)" />
<use xlink:href="#f1_f" transform="matrix(13,0,0,13,369,572.8)" />
<use xlink:href="#f1_8" transform="matrix(13,0,0,13,381.4,572.8)" />
<use xlink:href="#f1_6" transform="matrix(13,0,0,13,386.7,572.8)" />
<use xlink:href="#f1_2" transform="matrix(13,0,0,13,404.4,572.8)" />
<use xlink:href="#f1_8" transform="matrix(13,0,0,13,417.4,572.8)" />
<use xlink:href="#f1_9" transform="matrix(13,0,0,13,422.7,572.8)" />
<use xlink:href="#f2_p" transform="matrix(11,0,0,11,748.6,593.8)" />
<use xlink:href="#f2_3" transform="matrix(11,0,0,11,758.8,593.8)" />
<use xlink:href="#f2_q" transform="matrix(11,0,0,11,767.2,593.8)" />
<use xlink:href="#f1_a" transform="matrix(13,0,0,13,631.9,596.6)" />
<use xlink:href="#f1_h" transform="matrix(13,0,0,13,643.3,596.6)" />
<use xlink:href="#f1_6" transform="matrix(13,0,0,13,644.9,596.6)" />
<use xlink:href="#f1_h" transform="matrix(13,0,0,13,656.9,596.6)" />
<use xlink:href="#f1_9" transform="matrix(13,0,0,13,656.2,596.6)" />
<use xlink:href="#f1_6" transform="matrix(13,0,0,13,565.7,596.6)" />
<use xlink:href="#f2_p" transform="matrix(11,0,0,11,733.8,617.8)" />
<use xlink:href="#f2_p" transform="matrix(11,0,0,11,744,617.8)" />
<use xlink:href="#f2_3" transform="matrix(11,0,0,11,754.3,617.8)" />
<use xlink:href="#f2_q" transform="matrix(11,0,0,11,762.6,617.8)" />
<use xlink:href="#f2_q" transform="matrix(11,0,0,11,767.4,617.8)" />
<use xlink:href="#f1_a" transform="matrix(13,0,0,13,627.5,620.6)" />
<use xlink:href="#f1_h" transform="matrix(13,0,0,13,636.3,620.6)" />
<use xlink:href="#f1_3" transform="matrix(13,0,0,13,640.4,620.6)" />
<use xlink:href="#f1_w" transform="matrix(13,0,0,13,643.3,620.6)" />
<use xlink:href="#f1_6" transform="matrix(13,0,0,13,644.8,620.6)" />
<use xlink:href="#f1_h" transform="matrix(13,0,0,13,656.9,620.6)" />
<use xlink:href="#f1_9" transform="matrix(13,0,0,13,656.1,620.6)" />
<use xlink:href="#f1_2" transform="matrix(13,0,0,13,496.8,620.6)" />
<use xlink:href="#f1_8" transform="matrix(13,0,0,13,509.8,620.6)" />
<use xlink:href="#f1_9" transform="matrix(13,0,0,13,515.1,620.6)" />
<use xlink:href="#f1_a" transform="matrix(13,0,0,13,528.3,620.6)" />
<use xlink:href="#f1_8" transform="matrix(13,0,0,13,547.7,620.6)" />
<use xlink:href="#f1_k" transform="matrix(13,0,0,13,553,620.6)" />
<use xlink:href="#f1_v" transform="matrix(13,0,0,13,566.5,620.6)" />
<use xlink:href="#f2_r" transform="matrix(11,0,0,11,477.9,620.6)" />
<use xlink:href="#f1_t" transform="matrix(13,0,0,13,382.2,620.6)" />
<use xlink:href="#f1_8" transform="matrix(13,0,0,13,394.9,620.6)" />
<use xlink:href="#f1_e" transform="matrix(13,0,0,13,400.2,620.6)" />
<use xlink:href="#f1_s" transform="matrix(13,0,0,13,411.4,620.6)" />
<use xlink:href="#f1_a" transform="matrix(13,0,0,13,423.2,620.6)" />
<use xlink:href="#f2_p" transform="matrix(11,0,0,11,343.1,620.6)" />
<use xlink:href="#f2_p" transform="matrix(11,0,0,11,353.4,620.6)" />
<use xlink:href="#f1_9" transform="matrix(13,0,0,13,137.7,620.6)" />
<use xlink:href="#f1_6" transform="matrix(13,0,0,13,150.9,620.6)" />
<use xlink:href="#f1_8" transform="matrix(13,0,0,13,162.2,620.6)" />
<use xlink:href="#f1_2" transform="matrix(13,0,0,13,185.8,620.6)" />
<use xlink:href="#f1_l" transform="matrix(13,0,0,13,198.8,620.6)" />
<use xlink:href="#f1_9" transform="matrix(13,0,0,13,211.8,620.6)" />
<use xlink:href="#f1_2" transform="matrix(13,0,0,13,243.4,620.6)" />
<use xlink:href="#f1_8" transform="matrix(13,0,0,13,256.4,620.6)" />
<use xlink:href="#f1_9" transform="matrix(13,0,0,13,261.7,620.6)" />
<use xlink:href="#f1_9" transform="matrix(13,0,0,13,293.1,620.6)" />
<use xlink:href="#f1_8" transform="matrix(13,0,0,13,306.4,620.6)" />
<use xlink:href="#f1_a" transform="matrix(13,0,0,13,311.7,620.6)" />
<use xlink:href="#f1_m" transform="matrix(13,0,0,13,380.9,643.7)" />
<use xlink:href="#f1_b" transform="matrix(13,0,0,13,387.1,643.7)" />
<use xlink:href="#f1_3" transform="matrix(13,0,0,13,400.3,643.7)" />
<use xlink:href="#f1_3" transform="matrix(13,0,0,13,404.7,643.7)" />
<use xlink:href="#f1_2" transform="matrix(13,0,0,13,409.1,643.7)" />
<use xlink:href="#f1_c" transform="matrix(13,0,0,13,422.1,643.7)" />
<use xlink:href="#f1_m" transform="matrix(13,0,0,13,166.2,666.9)" />
<use xlink:href="#f1_2" transform="matrix(13,0,0,13,172.5,666.9)" />
<use xlink:href="#f1_8" transform="matrix(13,0,0,13,185.5,666.9)" />
<use xlink:href="#f1_4" transform="matrix(13,0,0,13,190.8,666.9)" />
<use xlink:href="#f1_8" transform="matrix(13,0,0,13,198.8,666.9)" />
<use xlink:href="#f1_c" transform="matrix(13,0,0,13,204.1,666.9)" />
<use xlink:href="#f1_2" transform="matrix(13,0,0,13,224.7,666.9)" />
<use xlink:href="#f1_8" transform="matrix(13,0,0,13,237.7,666.9)" />
<use xlink:href="#f1_4" transform="matrix(13,0,0,13,243,666.9)" />
<use xlink:href="#f1_3" transform="matrix(13,0,0,13,251,666.9)" />
<use xlink:href="#f1_u" transform="matrix(13,0,0,13,255.4,666.9)" />
<use xlink:href="#f1_k" transform="matrix(13,0,0,13,266.2,666.9)" />
<use xlink:href="#f1_j" transform="matrix(13,0,0,13,279.7,666.9)" />
<use xlink:href="#f1_r" transform="matrix(13,0,0,13,297.4,666.9)" />
<use xlink:href="#f1_c" transform="matrix(13,0,0,13,302.9,666.9)" />
<use xlink:href="#f1_8" transform="matrix(13,0,0,13,323.3,666.9)" />
<use xlink:href="#f1_9" transform="matrix(13,0,0,13,328.7,666.9)" />
<use xlink:href="#f1_r" transform="matrix(13,0,0,13,348.2,666.9)" />
<use xlink:href="#f1_y" transform="matrix(13,0,0,13,353.7,666.9)" />
<use xlink:href="#f1_q" transform="matrix(13,0,0,13,366.8,666.9)" />
<use xlink:href="#f1_r" transform="matrix(13,0,0,13,373.1,666.9)" />
<use xlink:href="#f1_3" transform="matrix(13,0,0,13,378.6,666.9)" />
<use xlink:href="#f1_2" transform="matrix(13,0,0,13,389.4,666.9)" />
<use xlink:href="#f1_3" transform="matrix(13,0,0,13,402.4,666.9)" />
<use xlink:href="#f1_d" transform="matrix(13,0,0,13,406.8,666.9)" />
<use xlink:href="#f1_a" transform="matrix(13,0,0,13,415,666.9)" />
<use xlink:href="#f1_4" transform="matrix(13,0,0,13,428,666.9)" />
<use xlink:href="#f2_s" transform="matrix(11,0,0,11,735.6,688)" />
<use xlink:href="#f2_3" transform="matrix(11,0,0,11,750.4,688)" />
<use xlink:href="#f2_t" transform="matrix(11,0,0,11,759,688)" />
<use xlink:href="#f1_a" transform="matrix(13,0,0,13,629.8,690.7)" />
<use xlink:href="#f1_h" transform="matrix(13,0,0,13,643.8,690.7)" />
<use xlink:href="#f1_k" transform="matrix(13,0,0,13,642.7,690.7)" />
<use xlink:href="#f1_h" transform="matrix(13,0,0,13,656.9,690.7)" />
<use xlink:href="#f1_9" transform="matrix(13,0,0,13,656.1,690.7)" />
<use xlink:href="#f1_k" transform="matrix(13,0,0,13,563.6,690.7)" />
<use xlink:href="#f2_u" transform="matrix(11,0,0,11,743.1,711.9)" />
<use xlink:href="#f2_3" transform="matrix(11,0,0,11,755.2,711.9)" />
<use xlink:href="#f2_v" transform="matrix(11,0,0,11,763.6,711.9)" />
<use xlink:href="#f1_a" transform="matrix(13,0,0,13,635.3,714.7)" />
<use xlink:href="#f1_h" transform="matrix(13,0,0,13,645.9,714.7)" />
<use xlink:href="#f1_4" transform="matrix(13,0,0,13,648.2,714.7)" />
<use xlink:href="#f1_h" transform="matrix(13,0,0,13,656.9,714.7)" />
<use xlink:href="#f1_9" transform="matrix(13,0,0,13,656.1,714.7)" />
<use xlink:href="#f1_4" transform="matrix(13,0,0,13,569.1,714.7)" />
<use xlink:href="#f2_w" transform="matrix(11,0,0,11,743.1,735.8)" />
<use xlink:href="#f2_3" transform="matrix(11,0,0,11,755.2,735.8)" />
<use xlink:href="#f2_y" transform="matrix(11,0,0,11,763.6,735.8)" />
<use xlink:href="#f1_a" transform="matrix(13,0,0,13,630.8,738.5)" />
<use xlink:href="#f1_h" transform="matrix(13,0,0,13,639.7,738.5)" />
<use xlink:href="#f1_3" transform="matrix(13,0,0,13,643.8,738.5)" />
<use xlink:href="#f1_w" transform="matrix(13,0,0,13,645.9,738.5)" />
<use xlink:href="#f1_4" transform="matrix(13,0,0,13,648.2,738.5)" />
<use xlink:href="#f1_h" transform="matrix(13,0,0,13,656.9,738.5)" />
<use xlink:href="#f1_9" transform="matrix(13,0,0,13,656.1,738.5)" />
<use xlink:href="#f1_a" transform="matrix(13,0,0,13,551.7,738.5)" />
<use xlink:href="#f1_h" transform="matrix(13,0,0,13,560.5,738.5)" />
<use xlink:href="#f1_3" transform="matrix(13,0,0,13,564.6,738.5)" />
<use xlink:href="#f1_w" transform="matrix(13,0,0,13,566.8,738.5)" />
<use xlink:href="#f1_4" transform="matrix(13,0,0,13,569.1,738.5)" />
<use xlink:href="#f1_m" transform="matrix(13,0,0,13,298.7,738.5)" />
<use xlink:href="#f1_a" transform="matrix(13,0,0,13,304.9,738.5)" />
<use xlink:href="#f1_k" transform="matrix(13,0,0,13,317.9,738.5)" />
<use xlink:href="#f1_s" transform="matrix(13,0,0,13,331.4,738.5)" />
<use xlink:href="#f1_f" transform="matrix(13,0,0,13,343.1,738.5)" />
<use xlink:href="#f1_3" transform="matrix(13,0,0,13,361.9,738.5)" />
<use xlink:href="#f1_4" transform="matrix(13,0,0,13,366.3,738.5)" />
<use xlink:href="#f1_p" transform="matrix(13,0,0,13,374.3,738.5)" />
<use xlink:href="#f1_j" transform="matrix(13,0,0,13,386.6,738.5)" />
<use xlink:href="#f1_2" transform="matrix(13,0,0,13,404.5,738.5)" />
<use xlink:href="#f1_8" transform="matrix(13,0,0,13,417.5,738.5)" />
<use xlink:href="#f1_9" transform="matrix(13,0,0,13,422.8,738.5)" />
<use xlink:href="#f2_z" transform="matrix(11,0,0,11,743.1,759.8)" />
<use xlink:href="#f2_3" transform="matrix(11,0,0,11,755.2,759.8)" />
<use xlink:href="#f2_10" transform="matrix(11,0,0,11,763.6,759.8)" />
<use xlink:href="#f1_x" transform="matrix(13,0,0,13,650.8,762.5)" />
<use xlink:href="#f1_8" transform="matrix(13,0,0,13,650.8,762.5)" />
<use xlink:href="#f1_9" transform="matrix(13,0,0,13,656.2,762.5)" />
<use xlink:href="#f1_x" transform="matrix(13,0,0,13,558.4,762.5)" />
<use xlink:href="#f1_8" transform="matrix(13,0,0,13,558.4,762.5)" />
<use xlink:href="#f1_9" transform="matrix(13,0,0,13,563.7,762.5)" />
<use xlink:href="#f2_11" transform="matrix(11,0,0,11,745.9,783.6)" />
<use xlink:href="#f2_3" transform="matrix(11,0,0,11,755.2,783.6)" />
<use xlink:href="#f2_12" transform="matrix(11,0,0,11,763.6,783.6)" />
<use xlink:href="#f1_a" transform="matrix(13,0,0,13,644.1,786.3)" />
<use xlink:href="#f1_h" transform="matrix(13,0,0,13,656.5,786.3)" />
<use xlink:href="#f1_i" transform="matrix(13,0,0,13,658.3,786.3)" />
<use xlink:href="#f1_p" transform="matrix(13,0,0,13,657.1,786.3)" />
<use xlink:href="#f1_z" transform="matrix(13,0,0,13,491.3,786.3)" />
<use xlink:href="#f1_a" transform="matrix(13,0,0,13,499.1,786.3)" />
<use xlink:href="#f1_c" transform="matrix(13,0,0,13,512.1,786.3)" />
<use xlink:href="#f1_8" transform="matrix(13,0,0,13,526.1,786.3)" />
<use xlink:href="#f1_d" transform="matrix(13,0,0,13,531.5,786.3)" />
<use xlink:href="#f1_u" transform="matrix(13,0,0,13,539.7,786.3)" />
<use xlink:href="#f1_10" transform="matrix(13,0,0,13,550.5,786.3)" />
<use xlink:href="#f1_i" transform="matrix(13,0,0,13,565.8,786.3)" />
<use xlink:href="#f1_p" transform="matrix(13,0,0,13,564.5,786.3)" />
<use xlink:href="#f2_13" transform="matrix(11,0,0,11,743.1,807.6)" />
<use xlink:href="#f2_3" transform="matrix(11,0,0,11,755.2,807.6)" />
<use xlink:href="#f2_14" transform="matrix(11,0,0,11,763.6,807.6)" />
<use xlink:href="#f1_i" transform="matrix(13,0,0,13,644.1,808)" />
<use xlink:href="#f1_8" transform="matrix(13,0,0,13,650.1,810.3)" />
<use xlink:href="#f1_o" transform="matrix(13,0,0,13,655.4,810.3)" />
<use xlink:href="#f1_o" transform="matrix(13,0,0,13,563,810.3)" />
<use xlink:href="#f2_15" transform="matrix(11,0,0,11,746.8,831.4)" />
<use xlink:href="#f2_3" transform="matrix(11,0,0,11,757.9,831.4)" />
<use xlink:href="#f2_16" transform="matrix(11,0,0,11,766.5,831.4)" />
<use xlink:href="#f1_a" transform="matrix(13,0,0,13,632,834.2)" />
<use xlink:href="#f1_h" transform="matrix(13,0,0,13,643.7,834.2)" />
<use xlink:href="#f1_e" transform="matrix(13,0,0,13,645,834.2)" />
<use xlink:href="#f1_h" transform="matrix(13,0,0,13,656.9,834.2)" />
<use xlink:href="#f1_9" transform="matrix(13,0,0,13,656.2,834.2)" />
<use xlink:href="#f1_e" transform="matrix(13,0,0,13,565.9,834.2)" />
<use xlink:href="#f1_m" transform="matrix(13,0,0,13,153.4,834.2)" />
<use xlink:href="#f1_2" transform="matrix(13,0,0,13,159.6,834.2)" />
<use xlink:href="#f1_6" transform="matrix(13,0,0,13,172.6,834.2)" />
<use xlink:href="#f1_d" transform="matrix(13,0,0,13,183.9,834.2)" />
<use xlink:href="#f1_6" transform="matrix(13,0,0,13,192.1,834.2)" />
<use xlink:href="#f1_d" transform="matrix(13,0,0,13,203.4,834.2)" />
<use xlink:href="#f1_2" transform="matrix(13,0,0,13,211.6,834.2)" />
<use xlink:href="#f1_k" transform="matrix(13,0,0,13,224.6,834.2)" />
<use xlink:href="#f1_r" transform="matrix(13,0,0,13,244.3,834.2)" />
<use xlink:href="#f1_e" transform="matrix(13,0,0,13,249.8,834.2)" />
<use xlink:href="#f1_e" transform="matrix(13,0,0,13,261,834.2)" />
<use xlink:href="#f1_v" transform="matrix(13,0,0,13,272.1,834.2)" />
<use xlink:href="#f1_a" transform="matrix(13,0,0,13,289.1,834.2)" />
<use xlink:href="#f1_d" transform="matrix(13,0,0,13,302,834.2)" />
<use xlink:href="#f1_a" transform="matrix(13,0,0,13,310.1,834.2)" />
<use xlink:href="#f1_4" transform="matrix(13,0,0,13,323.1,834.2)" />
<use xlink:href="#f1_a" transform="matrix(13,0,0,13,337.4,834.2)" />
<use xlink:href="#f1_6" transform="matrix(13,0,0,13,350.4,834.2)" />
<use xlink:href="#f1_3" transform="matrix(13,0,0,13,361.7,834.2)" />
<use xlink:href="#f1_k" transform="matrix(13,0,0,13,366.1,834.2)" />
<use xlink:href="#f1_c" transform="matrix(13,0,0,13,386,834.2)" />
<use xlink:href="#f1_9" transform="matrix(13,0,0,13,400,834.2)" />
<use xlink:href="#f1_e" transform="matrix(13,0,0,13,413.3,834.2)" />
<use xlink:href="#f1_j" transform="matrix(13,0,0,13,424.5,834.2)" />
<use xlink:href="#f2_15" transform="matrix(11,0,0,11,730,855.4)" />
<use xlink:href="#f2_15" transform="matrix(11,0,0,11,741.1,855.4)" />
<use xlink:href="#f2_3" transform="matrix(11,0,0,11,752.3,855.4)" />
<use xlink:href="#f2_16" transform="matrix(11,0,0,11,760.8,855.4)" />
<use xlink:href="#f2_16" transform="matrix(11,0,0,11,766.3,855.4)" />
<use xlink:href="#f1_a" transform="matrix(13,0,0,13,620.9,858.2)" />
<use xlink:href="#f1_h" transform="matrix(13,0,0,13,632.5,858.2)" />
<use xlink:href="#f1_e" transform="matrix(13,0,0,13,633.9,858.2)" />
<use xlink:href="#f1_11" transform="matrix(13,0,0,13,643.6,858.2)" />
<use xlink:href="#f1_e" transform="matrix(13,0,0,13,645,858.2)" />
<use xlink:href="#f1_h" transform="matrix(13,0,0,13,656.9,858.2)" />
<use xlink:href="#f1_9" transform="matrix(13,0,0,13,656.1,858.2)" />
<use xlink:href="#f1_e" transform="matrix(13,0,0,13,554.7,858.2)" />
<use xlink:href="#f1_e" transform="matrix(13,0,0,13,565.9,858.2)" />
<use xlink:href="#f1_m" transform="matrix(13,0,0,13,210.1,858.2)" />
<use xlink:href="#f1_2" transform="matrix(13,0,0,13,216.3,858.2)" />
<use xlink:href="#f1_6" transform="matrix(13,0,0,13,229.3,858.2)" />
<use xlink:href="#f1_d" transform="matrix(13,0,0,13,240.6,858.2)" />
<use xlink:href="#f1_6" transform="matrix(13,0,0,13,248.8,858.2)" />
<use xlink:href="#f1_d" transform="matrix(13,0,0,13,260.1,858.2)" />
<use xlink:href="#f1_2" transform="matrix(13,0,0,13,268.3,858.2)" />
<use xlink:href="#f1_k" transform="matrix(13,0,0,13,281.3,858.2)" />
<use xlink:href="#f1_r" transform="matrix(13,0,0,13,301.2,858.2)" />
<use xlink:href="#f1_e" transform="matrix(13,0,0,13,306.6,858.2)" />
<use xlink:href="#f1_e" transform="matrix(13,0,0,13,317.8,858.2)" />
<use xlink:href="#f1_v" transform="matrix(13,0,0,13,329,858.2)" />
<use xlink:href="#f1_u" transform="matrix(13,0,0,13,345.9,858.2)" />
<use xlink:href="#f1_3" transform="matrix(13,0,0,13,356.7,858.2)" />
<use xlink:href="#f1_k" transform="matrix(13,0,0,13,361.1,858.2)" />
<use xlink:href="#f1_2" transform="matrix(13,0,0,13,374.6,858.2)" />
<use xlink:href="#f1_a" transform="matrix(13,0,0,13,393.8,858.2)" />
<use xlink:href="#f1_d" transform="matrix(13,0,0,13,406.8,858.2)" />
<use xlink:href="#f1_a" transform="matrix(13,0,0,13,415,858.2)" />
<use xlink:href="#f1_4" transform="matrix(13,0,0,13,428,858.2)" />
<use xlink:href="#f2_17" transform="matrix(11,0,0,11,747.7,879.2)" />
<use xlink:href="#f2_3" transform="matrix(11,0,0,11,757,879.2)" />
<use xlink:href="#f2_18" transform="matrix(11,0,0,11,765.4,879.2)" />
<use xlink:href="#f1_a" transform="matrix(13,0,0,13,630.4,882)" />
<use xlink:href="#f1_h" transform="matrix(13,0,0,13,644.5,882)" />
<use xlink:href="#f1_n" transform="matrix(13,0,0,13,643.3,882)" />
<use xlink:href="#f1_h" transform="matrix(13,0,0,13,656.9,882)" />
<use xlink:href="#f1_9" transform="matrix(13,0,0,13,656.1,882)" />
<use xlink:href="#f1_n" transform="matrix(13,0,0,13,564.2,882)" />
<use xlink:href="#f2_19" transform="matrix(11,0,0,11,748.6,903.2)" />
<use xlink:href="#f2_3" transform="matrix(11,0,0,11,758.8,903.2)" />
<use xlink:href="#f2_1a" transform="matrix(11,0,0,11,767.2,903.2)" />
<use xlink:href="#f1_a" transform="matrix(13,0,0,13,643.7,906)" />
<use xlink:href="#f1_h" transform="matrix(13,0,0,13,657.1,906)" />
<use xlink:href="#f1_5" transform="matrix(13,0,0,13,656.6,906)" />
<use xlink:href="#f1_2" transform="matrix(13,0,0,13,564.1,906)" />
<use xlink:href="#f2_1b" transform="matrix(11,0,0,11,743.1,929)" />
<use xlink:href="#f2_3" transform="matrix(11,0,0,11,755.2,929)" />
<use xlink:href="#f2_1c" transform="matrix(11,0,0,11,763.6,929)" />
<use xlink:href="#f1_i" transform="matrix(13,0,0,13,644.9,927.5)" />
<use xlink:href="#f1_8" transform="matrix(13,0,0,13,650.8,929.8)" />
<use xlink:href="#f1_9" transform="matrix(13,0,0,13,656.2,929.8)" />
<use xlink:href="#f1_i" transform="matrix(13,0,0,13,552.4,927.5)" />
<use xlink:href="#f1_8" transform="matrix(13,0,0,13,558.4,929.8)" />
<use xlink:href="#f1_9" transform="matrix(13,0,0,13,563.7,929.8)" />
<use xlink:href="#f2_1d" transform="matrix(11,0,0,11,743.1,951)" />
<use xlink:href="#f2_3" transform="matrix(11,0,0,11,755.2,951)" />
<use xlink:href="#f2_1e" transform="matrix(11,0,0,11,763.6,951)" />
<use xlink:href="#f1_a" transform="matrix(13,0,0,13,614,953.8)" />
<use xlink:href="#f1_h" transform="matrix(13,0,0,13,626.4,953.8)" />
<use xlink:href="#f1_i" transform="matrix(13,0,0,13,625,953.8)" />
<use xlink:href="#f1_j" transform="matrix(13,0,0,13,627,953.8)" />
<use xlink:href="#f1_q" transform="matrix(13,0,0,13,644.8,953.8)" />
<use xlink:href="#f1_a" transform="matrix(13,0,0,13,651.1,953.8)" />
<use xlink:href="#f1_h" transform="matrix(13,0,0,13,660.4,953.8)" />
<use xlink:href="#f1_8" transform="matrix(13,0,0,13,664.1,953.8)" />
<use xlink:href="#f1_i" transform="matrix(13,0,0,13,526.9,953.8)" />
<use xlink:href="#f1_j" transform="matrix(13,0,0,13,528.9,953.8)" />
<use xlink:href="#f1_8" transform="matrix(13,0,0,13,546.6,953.8)" />
<use xlink:href="#f1_9" transform="matrix(13,0,0,13,552,953.8)" />
<use xlink:href="#f1_8" transform="matrix(13,0,0,13,571.6,953.8)" />
<use xlink:href="#f1_b" transform="matrix(13,0,0,13,137.8,953.8)" />
<use xlink:href="#f1_3" transform="matrix(13,0,0,13,151,953.8)" />
<use xlink:href="#f1_9" transform="matrix(13,0,0,13,155.4,953.8)" />
<use xlink:href="#f1_5" transform="matrix(13,0,0,13,168.6,953.8)" />
<use xlink:href="#f1_j" transform="matrix(13,0,0,13,181.5,953.8)" />
<use xlink:href="#f1_k" transform="matrix(13,0,0,13,192.9,953.8)" />
<use xlink:href="#f1_j" transform="matrix(13,0,0,13,206.4,953.8)" />
<use xlink:href="#f1_2" transform="matrix(13,0,0,13,240.6,953.8)" />
<use xlink:href="#f1_e" transform="matrix(13,0,0,13,253.6,953.8)" />
<use xlink:href="#f1_l" transform="matrix(13,0,0,13,264.7,953.8)" />
<use xlink:href="#f1_9" transform="matrix(13,0,0,13,277.7,953.8)" />
<use xlink:href="#f1_5" transform="matrix(13,0,0,13,313.7,953.8)" />
<use xlink:href="#f1_f" transform="matrix(13,0,0,13,326.5,953.8)" />
<use xlink:href="#f1_k" transform="matrix(13,0,0,13,338.9,953.8)" />
<use xlink:href="#f1_2" transform="matrix(13,0,0,13,375.2,953.8)" />
<use xlink:href="#f1_f" transform="matrix(13,0,0,13,388.2,953.8)" />
<use xlink:href="#f1_k" transform="matrix(13,0,0,13,400.6,953.8)" />
<use xlink:href="#f1_c" transform="matrix(13,0,0,13,414,953.8)" />
<use xlink:href="#f1_4" transform="matrix(13,0,0,13,428.1,953.8)" />
<use xlink:href="#f1_m" transform="matrix(13,0,0,13,385,976.9)" />
<use xlink:href="#f1_b" transform="matrix(13,0,0,13,391.3,976.9)" />
<use xlink:href="#f1_3" transform="matrix(13,0,0,13,404.4,976.9)" />
<use xlink:href="#f1_4" transform="matrix(13,0,0,13,408.8,976.9)" />
<use xlink:href="#f1_8" transform="matrix(13,0,0,13,416.8,976.9)" />
<use xlink:href="#f1_c" transform="matrix(13,0,0,13,422.1,976.9)" />
<use xlink:href="#f2_1f" transform="matrix(11,0,0,11,735.6,998.1)" />
<use xlink:href="#f2_3" transform="matrix(11,0,0,11,751.4,998.1)" />
<use xlink:href="#f2_1g" transform="matrix(11,0,0,11,759.9,998.1)" />
<use xlink:href="#f1_a" transform="matrix(13,0,0,13,617.5,1000.8)" />
<use xlink:href="#f1_h" transform="matrix(13,0,0,13,629,1000.8)" />
<use xlink:href="#f1_6" transform="matrix(13,0,0,13,630.5,1000.8)" />
<use xlink:href="#f1_11" transform="matrix(13,0,0,13,641.2,1000.8)" />
<use xlink:href="#f1_j" transform="matrix(13,0,0,13,641.8,1000.8)" />
<use xlink:href="#f1_x" transform="matrix(13,0,0,13,653.2,1000.8)" />
<use xlink:href="#f1_8" transform="matrix(13,0,0,13,653.2,1000.8)" />
<use xlink:href="#f1_u" transform="matrix(13,0,0,13,658.6,1000.8)" />
<use xlink:href="#f1_a" transform="matrix(13,0,0,13,651.1,1023.9)" />
<use xlink:href="#f1_h" transform="matrix(13,0,0,13,660.5,1023.9)" />
<use xlink:href="#f1_8" transform="matrix(13,0,0,13,664.1,1023.9)" />
<use xlink:href="#f1_8" transform="matrix(13,0,0,13,566.3,1000.8)" />
<use xlink:href="#f1_8" transform="matrix(13,0,0,13,571.7,1000.8)" />
<use xlink:href="#f2_1h" transform="matrix(11,0,0,11,743.1,1047)" />
<use xlink:href="#f2_3" transform="matrix(11,0,0,11,755.2,1047)" />
<use xlink:href="#f2_1i" transform="matrix(11,0,0,11,763.6,1047)" />
<use xlink:href="#f1_n" transform="matrix(13,0,0,13,624.9,1047.9)" />
<use xlink:href="#f1_3" transform="matrix(13,0,0,13,637.7,1047.9)" />
<use xlink:href="#f1_w" transform="matrix(13,0,0,13,642.6,1047.9)" />
<use xlink:href="#f1_o" transform="matrix(13,0,0,13,642.1,1047.9)" />
<use xlink:href="#f1_h" transform="matrix(13,0,0,13,656.9,1047.9)" />
<use xlink:href="#f1_9" transform="matrix(13,0,0,13,656.1,1047.9)" />
<use xlink:href="#f1_l" transform="matrix(13,0,0,13,505.8,1047.9)" />
<use xlink:href="#f1_8" transform="matrix(13,0,0,13,525.1,1047.9)" />
<use xlink:href="#f1_9" transform="matrix(13,0,0,13,530.4,1047.9)" />
<use xlink:href="#f1_n" transform="matrix(13,0,0,13,550.1,1047.9)" />
<use xlink:href="#f1_11" transform="matrix(13,0,0,13,563.4,1047.9)" />
<use xlink:href="#f1_o" transform="matrix(13,0,0,13,562.9,1047.9)" />
<use xlink:href="#f2_r" transform="matrix(11,0,0,11,743.1,1071)" />
<use xlink:href="#f2_3" transform="matrix(11,0,0,11,755.2,1071)" />
<use xlink:href="#f2_1j" transform="matrix(11,0,0,11,763.6,1071)" />
<use xlink:href="#f1_a" transform="matrix(13,0,0,13,604.8,1071.7)" />
<use xlink:href="#f1_g" transform="matrix(13,0,0,13,616.1,1071.7)" />
<use xlink:href="#f1_d" transform="matrix(13,0,0,13,617.8,1071.7)" />
<use xlink:href="#f1_h" transform="matrix(13,0,0,13,624.7,1071.7)" />
<use xlink:href="#f1_e" transform="matrix(13,0,0,13,626,1071.7)" />
<use xlink:href="#f1_11" transform="matrix(13,0,0,13,635.5,1071.7)" />
<use xlink:href="#f1_d" transform="matrix(13,0,0,13,637.2,1071.7)" />
<use xlink:href="#f1_3" transform="matrix(13,0,0,13,651.7,1071.7)" />
<use xlink:href="#f1_w" transform="matrix(13,0,0,13,656.8,1071.7)" />
<use xlink:href="#f1_9" transform="matrix(13,0,0,13,656.1,1071.7)" />
<use xlink:href="#f1_12" transform="matrix(13,0,0,13,572.6,1071.7)" />
<use xlink:href="#f1_m" transform="matrix(13,0,0,13,166.2,1071.7)" />
<use xlink:href="#f1_2" transform="matrix(13,0,0,13,172.5,1071.7)" />
<use xlink:href="#f1_8" transform="matrix(13,0,0,13,185.5,1071.7)" />
<use xlink:href="#f1_4" transform="matrix(13,0,0,13,190.8,1071.7)" />
<use xlink:href="#f1_8" transform="matrix(13,0,0,13,198.8,1071.7)" />
<use xlink:href="#f1_c" transform="matrix(13,0,0,13,204.1,1071.7)" />
<use xlink:href="#f1_2" transform="matrix(13,0,0,13,224.7,1071.7)" />
<use xlink:href="#f1_8" transform="matrix(13,0,0,13,237.7,1071.7)" />
<use xlink:href="#f1_4" transform="matrix(13,0,0,13,243,1071.7)" />
<use xlink:href="#f1_3" transform="matrix(13,0,0,13,251,1071.7)" />
<use xlink:href="#f1_u" transform="matrix(13,0,0,13,255.4,1071.7)" />
<use xlink:href="#f1_k" transform="matrix(13,0,0,13,266.2,1071.7)" />
<use xlink:href="#f1_j" transform="matrix(13,0,0,13,279.7,1071.7)" />
<use xlink:href="#f1_r" transform="matrix(13,0,0,13,297.4,1071.7)" />
<use xlink:href="#f1_c" transform="matrix(13,0,0,13,302.9,1071.7)" />
<use xlink:href="#f1_8" transform="matrix(13,0,0,13,323.3,1071.7)" />
<use xlink:href="#f1_9" transform="matrix(13,0,0,13,328.7,1071.7)" />
<use xlink:href="#f1_r" transform="matrix(13,0,0,13,348.2,1071.7)" />
<use xlink:href="#f1_y" transform="matrix(13,0,0,13,353.7,1071.7)" />
<use xlink:href="#f1_q" transform="matrix(13,0,0,13,366.8,1071.7)" />
<use xlink:href="#f1_r" transform="matrix(13,0,0,13,373.1,1071.7)" />
<use xlink:href="#f1_3" transform="matrix(13,0,0,13,378.6,1071.7)" />
<use xlink:href="#f1_2" transform="matrix(13,0,0,13,389.4,1071.7)" />
<use xlink:href="#f1_3" transform="matrix(13,0,0,13,402.4,1071.7)" />
<use xlink:href="#f1_d" transform="matrix(13,0,0,13,406.8,1071.7)" />
<use xlink:href="#f1_a" transform="matrix(13,0,0,13,415,1071.7)" />
<use xlink:href="#f1_4" transform="matrix(13,0,0,13,428,1071.7)" />
<use xlink:href="#f2_1k" transform="matrix(11,0,0,11,745.9,1094.8)" />
<use xlink:href="#f2_3" transform="matrix(11,0,0,11,756.1,1094.8)" />
<use xlink:href="#f2_1l" transform="matrix(11,0,0,11,764.5,1094.8)" />
<use xlink:href="#f1_a" transform="matrix(13,0,0,13,630.8,1095.7)" />
<use xlink:href="#f1_g" transform="matrix(13,0,0,13,644.2,1095.7)" />
<use xlink:href="#f1_5" transform="matrix(13,0,0,13,643.8,1095.7)" />
<use xlink:href="#f1_h" transform="matrix(13,0,0,13,657.8,1095.7)" />
<use xlink:href="#f1_n" transform="matrix(13,0,0,13,656.6,1095.7)" />
<use xlink:href="#f1_n" transform="matrix(13,0,0,13,564.2,1095.7)" />
<use xlink:href="#f1_m" transform="matrix(13,0,0,13,266,1095.7)" />
<use xlink:href="#f1_2" transform="matrix(13,0,0,13,272.2,1095.7)" />
<use xlink:href="#f1_3" transform="matrix(13,0,0,13,285.2,1095.7)" />
<use xlink:href="#f1_u" transform="matrix(13,0,0,13,289.7,1095.7)" />
<use xlink:href="#f1_e" transform="matrix(13,0,0,13,300.5,1095.7)" />
<use xlink:href="#f1_p" transform="matrix(13,0,0,13,311.6,1095.7)" />
<use xlink:href="#f1_n" transform="matrix(13,0,0,13,324,1095.7)" />
<use xlink:href="#f1_j" transform="matrix(13,0,0,13,336.9,1095.7)" />
<use xlink:href="#f1_y" transform="matrix(13,0,0,13,354.7,1095.7)" />
<use xlink:href="#f1_6" transform="matrix(13,0,0,13,367.8,1095.7)" />
<use xlink:href="#f1_3" transform="matrix(13,0,0,13,379.1,1095.7)" />
<use xlink:href="#f1_6" transform="matrix(13,0,0,13,383.5,1095.7)" />
<use xlink:href="#f1_s" transform="matrix(13,0,0,13,394.8,1095.7)" />
<use xlink:href="#f1_13" transform="matrix(13,0,0,13,413,1095.7)" />
<use xlink:href="#f1_3" transform="matrix(13,0,0,13,418.3,1095.7)" />
<use xlink:href="#f1_9" transform="matrix(13,0,0,13,422.7,1095.7)" />
<use xlink:href="#f1_10" transform="matrix(12,0,0,12,598.6,1137.6)" />
<use xlink:href="#f1_b" transform="matrix(12,0,0,12,611.6,1137.6)" />
<use xlink:href="#f1_f" transform="matrix(12,0,0,12,623.8,1137.6)" />
<use xlink:href="#f1_5" transform="matrix(12,0,0,12,635.2,1137.6)" />
<use xlink:href="#f1_13" transform="matrix(12,0,0,12,652.9,1137.6)" />
<use xlink:href="#f1_k" transform="matrix(12,0,0,12,658,1137.6)" />
<use xlink:href="#f1_3" transform="matrix(12,0,0,12,670.3,1137.6)" />
<use xlink:href="#f1_n" transform="matrix(12,0,0,12,674.4,1137.6)" />
<use xlink:href="#f1_b" transform="matrix(12,0,0,12,692.2,1137.6)" />
<use xlink:href="#f1_f" transform="matrix(12,0,0,12,704.4,1137.6)" />
<use xlink:href="#f1_2" transform="matrix(12,0,0,12,721.6,1137.6)" />
<use xlink:href="#f1_8" transform="matrix(12,0,0,12,733.7,1137.6)" />
<use xlink:href="#f1_3" transform="matrix(12,0,0,12,738.7,1137.6)" />
<use xlink:href="#f1_2" transform="matrix(12,0,0,12,742.7,1137.6)" />
<use xlink:href="#f1_8" transform="matrix(12,0,0,12,754.7,1137.6)" />
<use xlink:href="#f1_9" transform="matrix(12,0,0,12,759.8,1137.6)" />
<use xlink:href="#f2_1m" transform="matrix(11,0,0,11,561.9,1137.6)" />
<use xlink:href="#f2_3" transform="matrix(11,0,0,11,569.4,1137.6)" />
<use xlink:href="#f2_1o" transform="matrix(11,0,0,11,577.8,1137.6)" />
<use xlink:href="#f2_3" transform="matrix(11,0,0,11,582.5,1137.6)" />
<use xlink:href="#f2_1q" transform="matrix(11,0,0,11,590.9,1137.6)" />
<use xlink:href="#f1_m" transform="matrix(12,0,0,12,209.2,1137.6)" />
<use xlink:href="#f1_b" transform="matrix(12,0,0,12,215,1137.6)" />
<use xlink:href="#f1_f" transform="matrix(12,0,0,12,227,1137.6)" />
<use xlink:href="#f1_5" transform="matrix(12,0,0,12,238.5,1137.6)" />
<use xlink:href="#f1_13" transform="matrix(12,0,0,12,256.2,1137.6)" />
<use xlink:href="#f1_k" transform="matrix(12,0,0,12,261.2,1137.6)" />
<use xlink:href="#f1_3" transform="matrix(12,0,0,12,273.7,1137.6)" />
<use xlink:href="#f1_n" transform="matrix(12,0,0,12,277.7,1137.6)" />
<use xlink:href="#f1_13" transform="matrix(12,0,0,12,295.5,1137.6)" />
<use xlink:href="#f1_a" transform="matrix(12,0,0,12,300.6,1137.6)" />
<use xlink:href="#f1_6" transform="matrix(12,0,0,12,312.5,1137.6)" />
<use xlink:href="#f1_a" transform="matrix(12,0,0,12,328.8,1137.6)" />
<use xlink:href="#f1_3" transform="matrix(12,0,0,12,340.7,1137.6)" />
<use xlink:href="#f1_a" transform="matrix(12,0,0,12,344.8,1137.6)" />
<use xlink:href="#f1_9" transform="matrix(12,0,0,12,362.6,1137.6)" />
<use xlink:href="#f1_6" transform="matrix(12,0,0,12,374.8,1137.6)" />
<use xlink:href="#f1_8" transform="matrix(12,0,0,12,391.1,1137.6)" />
<use xlink:href="#f1_6" transform="matrix(12,0,0,12,396.2,1137.6)" />
<use xlink:href="#f1_3" transform="matrix(12,0,0,12,406.5,1137.6)" />
<use xlink:href="#f1_9" transform="matrix(12,0,0,12,410.7,1137.6)" />
<use xlink:href="#f1_v" transform="matrix(12,0,0,12,422.9,1137.6)" />
<use xlink:href="#f1_a" transform="matrix(12,0,0,12,438.3,1137.6)" />
<use xlink:href="#f1_a" transform="matrix(12,0,0,12,450.2,1137.6)" />
<use xlink:href="#f1_y" transform="matrix(12,0,0,12,462.2,1137.6)" />
<use xlink:href="#f1_2" transform="matrix(12,0,0,12,474.5,1137.6)" />
<use xlink:href="#f1_8" transform="matrix(12,0,0,12,486.5,1137.6)" />
<use xlink:href="#f1_d" transform="matrix(12,0,0,12,491.6,1137.6)" />
<use xlink:href="#f1_a" transform="matrix(12,0,0,12,499,1137.6)" />
<use xlink:href="#f1_4" transform="matrix(12,0,0,12,511,1137.6)" />
<use xlink:href="#f1_z" transform="matrix(12,0,0,12,524.1,1137.6)" />
<use xlink:href="#f1_r" transform="matrix(12,0,0,12,531.3,1137.6)" />
<use xlink:href="#f1_8" transform="matrix(12,0,0,12,536.3,1137.6)" />
<use xlink:href="#f1_v" transform="matrix(12,0,0,12,541.3,1137.6)" />
<use xlink:href="#f1_8" transform="matrix(12,0,0,12,550.9,1137.6)" />
</g>
</g>
<defs>
<path d="M204,-8c0,0,-9,0,-11,5c0,0,-2,5,-2,22V549c0,0,0,40,-4,56c0,0,-4,16,-15,22c0,0,-10,7,-39,7H90c0,0,-33,0,-52,33c0,0,-19,33,-19,90c0,0,0,53,15,98c0,0,16,44,35,44c0,0,12,0,12,-13V872c0,0,0,-27,31,-27h42c0,0,79,0,103,-20c0,0,23,-19,23,-83V67c0,0,0,-16,-8,-26c0,0,-9,-10,-33,-30c0,0,-25,-19,-35,-19Z" 
id="f0_2"
transform="scale(0.001,-0.001)" />

<path d="M721,-14c0,0,-12,0,-12,9l4,28c0,0,17,82,17,338c0,0,0,105,-11,163c0,0,-11,58,-35,84c0,0,-25,26,-83,26H315c0,0,-43,-39,-67,-90c0,0,-25,-51,-25,-104c0,0,0,-59,17,-104c0,0,17,-45,35,-78c0,0,18,-34,18,-44c0,0,0,-26,-20,-95C273,119,252,50,231,0H26L87,214h69c0,0,23,0,23,14l-7,15c0,0,-15,27,-27,68c0,0,-11,41,-11,83c0,0,0,68,25,124c0,0,25,57,86,116H200c0,0,-45,0,-71,32c0,0,-27,33,-27,94c0,0,0,49,17,93c0,0,16,43,32,43c0,0,17,0,17,-10V869c0,0,0,-24,27,-24H637c0,0,73,0,103,-18c0,0,30,-17,46,-62c0,0,17,-46,24,-124c0,0,8,-78,8,-214V338c0,0,0,-279,-27,-311c0,0,-14,-16,-37,-28c0,0,-23,-13,-33,-13Z" 
id="f0_3"
transform="scale(0.001,-0.001)" />

<path d="M131,353c0,0,-3,0,-6,2c0,0,-3,2,-16,20c0,0,-13,17,-13,28c0,0,0,5,8,9c0,0,45,26,84,67c0,0,38,41,38,85c0,0,0,28,-7,43c0,0,-7,15,-24,21c0,0,-17,6,-61,6H124c0,0,-38,0,-62,34c0,0,-24,35,-24,107c0,0,0,52,16,87c0,0,17,34,38,34c0,0,16,0,16,-12V870c0,0,0,-25,26,-25h63c0,0,29,0,53,-4c0,0,23,-4,39,-23c0,0,17,-19,26,-59c0,0,9,-40,9,-113c0,0,0,-76,-15,-124c0,0,-15,-47,-51,-83c0,0,-35,-36,-74,-61c0,0,-39,-25,-53,-25Z" 
id="f0_4"
transform="scale(0.001,-0.001)" />

<path d="M423,-13c0,0,-9,0,-14,7c0,0,-5,6,-10,23c0,0,-13,51,-37,108c0,0,-25,58,-55,101c0,0,-21,-37,-51,-115C256,111,225,34,216,0H12L55,212h99c0,0,51,0,72,12c0,0,20,12,40,58c0,0,20,46,18,98V543c0,0,0,46,-7,61c0,0,-7,15,-23,22c0,0,-17,8,-50,8H189c0,0,-76,0,-76,115c0,0,0,56,16,103c0,0,16,47,33,47c0,0,14,0,14,-15c0,0,0,-17,9,-28c0,0,10,-11,40,-11h21c0,0,60,0,85,-8c0,0,25,-9,39,-26c0,0,13,-18,13,-49c0,0,0,-20,-4,-43c0,0,-5,-23,-10,-53c0,0,-6,-31,-10,-71c0,0,-5,-41,-5,-97c0,0,0,-150,62,-269c0,0,28,-58,38,-90l9,-65c0,0,0,-27,-13,-57c0,0,-13,-30,-27,-30Z" 
id="f0_5"
transform="scale(0.001,-0.001)" />

<path d="M107,-18c0,0,-17,0,-17,18l3,9c0,0,23,48,23,124l-1,177c0,0,0,55,8,77c0,0,9,22,33,46c0,0,23,23,51,40c0,0,28,17,42,17c0,0,5,0,9,-3c0,0,5,-3,5,-8c0,0,0,-3,-11,-26c0,0,-14,-49,-14,-120l4,-223c0,0,0,-38,-9,-54c0,0,-8,-17,-32,-34C201,22,178,6,150,-5c0,0,-28,-13,-43,-13Zm547,0c0,0,-17,0,-17,18l2,10c0,0,10,38,10,109c0,0,0,79,-14,208c0,0,-15,128,-15,149c0,0,0,54,16,89c0,0,15,36,53,69H154c0,0,-35,0,-57,40c0,0,-21,40,-21,103c0,0,0,33,8,61c0,0,7,28,19,44c0,0,13,17,24,17c0,0,15,0,15,-13V869c0,0,0,-13,5,-19c0,0,5,-5,22,-5H718c0,0,50,0,50,-63V652c0,0,0,-21,-15,-30c0,0,-35,-24,-35,-77c0,0,0,-57,20,-169c0,0,27,-157,27,-272c0,0,0,-29,-6,-44c0,0,-6,-15,-17,-26c0,0,-12,-16,-47,-35L681,-9l-13,-6l-14,-3Z" 
id="f0_6"
transform="scale(0.001,-0.001)" />

<path d="M469,-18c0,0,-14,0,-14,15l2,7c0,0,20,43,20,158l-3,156l-2,119c0,0,0,65,19,109c0,0,19,44,60,88H110c0,0,-47,0,-69,34c0,0,-22,35,-22,109c0,0,0,50,16,85c0,0,16,36,35,36c0,0,14,0,14,-12L83,869c0,0,0,-13,7,-19c0,0,6,-5,23,-5H608c0,0,25,0,40,-14c0,0,15,-15,15,-38V686c0,0,0,-26,-4,-35c0,0,-3,-9,-11,-11c0,0,-42,-9,-56,-40c0,0,-15,-30,-15,-93c0,0,0,-56,12,-184c0,0,10,-129,10,-224c0,0,0,-24,-6,-37c0,0,-7,-13,-17,-25c0,0,-7,-6,-18,-12c0,0,-11,-7,-23,-13C535,12,523,5,512,0c0,0,-10,-5,-15,-8c0,0,-22,-10,-28,-10Z" 
id="f0_8"
transform="scale(0.001,-0.001)" />

<path d="M554,-8c0,0,-9,0,-11,6c0,0,-2,5,-2,24V548c0,0,0,38,-5,56c0,0,-4,18,-15,25c0,0,-12,7,-41,7H90c0,0,-33,0,-52,33c0,0,-19,33,-19,90c0,0,0,54,15,97c0,0,14,43,30,43c0,0,17,0,17,-13V872c0,0,0,-9,7,-18c0,0,7,-9,27,-9H512c0,0,54,0,77,-8c0,0,23,-9,33,-28c0,0,9,-20,9,-67V81c0,0,0,-31,-27,-53L583,9C583,9,563,-8,554,-8Z" 
id="f0_9"
transform="scale(0.001,-0.001)" />

<path d="M46,0l55,212H483c0,0,68,0,105,25c0,0,38,25,57,78c0,0,18,52,18,131c0,0,0,97,-39,142c0,0,-40,46,-123,46H275c0,0,-25,-15,-40,-35c0,0,-15,-20,-15,-32c0,0,0,-25,37,-25l49,-1c0,0,42,0,67,-26c0,0,26,-26,26,-72c0,0,0,-68,-17,-118c0,0,-18,-50,-41,-50c0,0,-19,0,-19,18c0,0,0,34,-14,51c0,0,-13,16,-54,16c0,0,-38,0,-57,-11c0,0,-19,-11,-26,-43c0,0,-3,-22,-18,-22c0,0,-22,0,-34,37c0,0,-12,38,-12,102c0,0,0,128,78,211H163c0,0,-33,0,-52,34c0,0,-19,35,-19,91c0,0,0,50,15,94c0,0,16,45,32,45c0,0,17,0,17,-14V870c0,0,0,-25,33,-25H544c0,0,62,0,95,-17c0,0,32,-17,58,-66c0,0,26,-48,40,-125c0,0,13,-77,13,-158c0,0,0,-296,-116,-479Z" 
id="f0_a"
transform="scale(0.001,-0.001)" />

<path d="M436,206c0,0,131,0,201,62c0,0,70,63,70,175c0,0,0,47,-9,82c0,0,-9,34,-28,61c0,0,-19,27,-44,37c0,0,-26,11,-82,11H296c0,0,-51,-42,-79,-96c0,0,-29,-53,-29,-112c0,0,0,-110,63,-165c0,0,64,-55,185,-55ZM434,-13c0,0,-169,0,-256,94c0,0,-88,94,-88,274c0,0,0,92,29,159c0,0,28,66,76,120H150c0,0,-37,0,-57,32c0,0,-20,33,-20,108c0,0,0,33,8,60c0,0,8,27,21,45c0,0,14,17,25,17c0,0,20,0,20,-10V869c0,0,0,-24,31,-24H588c0,0,56,0,87,-20c0,0,31,-20,61,-81c0,0,30,-60,46,-129c0,0,15,-69,15,-151c0,0,0,-147,-43,-258C754,206,710,94,628,40c0,0,-81,-53,-194,-53Z" 
id="f0_b"
transform="scale(0.001,-0.001)" />

<path d="M20,0L75,212H492c0,0,19,51,25,97c0,0,5,46,5,105c0,0,0,63,-6,124c0,0,-6,61,-23,78c0,0,-16,18,-66,18H112c0,0,-36,0,-57,40c0,0,-21,40,-21,101c0,0,0,50,16,87c0,0,16,36,36,36c0,0,13,0,13,-14V870c0,0,0,-25,34,-25H457c0,0,63,0,92,-11c0,0,28,-10,41,-36c0,0,13,-26,18,-107c0,0,4,-80,4,-174c0,0,0,-174,-13,-224c0,0,-4,-15,-21,-41c0,0,-17,-25,-31,-40H688L640,0Z" 
id="f0_c"
transform="scale(0.001,-0.001)" />

<path d="M56,294V424H453V294Z" 
id="f0_d"
transform="scale(0.001,-0.001)" />

<path d="M596,-296c0,0,-10,0,-12,6c0,0,-2,6,-2,24V548c0,0,0,38,-5,56c0,0,-4,18,-15,25c0,0,-11,7,-41,7H255c0,0,-36,-21,-63,-55c0,0,-26,-34,-26,-59c0,0,0,-24,37,-24l49,-2c0,0,42,0,68,-26c0,0,25,-25,25,-71c0,0,0,-69,-17,-119c0,0,-17,-50,-41,-50c0,0,-18,0,-18,19c0,0,0,34,-14,50c0,0,-14,17,-55,17c0,0,-37,0,-58,-12c0,0,-20,-12,-24,-43c0,0,-4,-21,-19,-21c0,0,-21,0,-33,36c0,0,-12,36,-12,103c0,0,0,77,28,142c0,0,28,66,81,115H131c0,0,-33,0,-52,33c0,0,-19,33,-19,90c0,0,0,51,15,96c0,0,15,44,30,44c0,0,17,0,17,-13V872c0,0,0,-9,7,-18c0,0,8,-9,27,-9H527c0,0,88,0,116,-28c0,0,29,-28,29,-113V-207c0,0,0,-12,-4,-25c0,0,-5,-13,-23,-28l-21,-18c0,0,-20,-18,-28,-18Z" 
id="f0_e"
transform="scale(0.001,-0.001)" />

<path d="M235,-20c0,0,-31,0,-51,19c0,0,-21,18,-21,50c0,0,0,65,39,120c0,0,39,54,125,109c0,0,56,35,87,56c0,0,32,20,46,33c0,0,79,45,79,143c0,0,0,27,-7,65c0,0,-8,39,-27,49c0,0,-19,10,-85,10H110c0,0,-36,0,-53,21c0,0,-17,22,-25,71c0,0,-7,49,-7,134c0,0,0,62,27,122c0,0,8,15,8,34c0,0,0,23,-35,37c0,0,-21,7,-30,29c0,0,-9,22,-9,72c0,0,0,24,10,46c0,0,8,22,25,38c0,0,16,16,26,16c0,0,17,0,17,-14c0,0,0,-9,7,-17c0,0,7,-8,34,-14c0,0,65,-15,81,-26c0,0,15,-10,15,-31c0,0,0,-15,-15,-38c0,0,-15,-22,-33,-53c0,0,-19,-30,-34,-67c0,0,-15,-36,-15,-79c0,0,0,-43,14,-56c0,0,15,-14,54,-14H518c0,0,39,0,63,-17c0,0,23,-16,33,-53c0,0,10,-36,17,-89c0,0,6,-52,6,-93c0,0,0,-99,-9,-144c0,0,-9,-44,-40,-80c0,0,-31,-36,-110,-86c0,0,-112,-71,-138,-95c0,0,-26,-23,-36,-44c0,0,-9,-20,-9,-43c0,0,0,-11,5,-26c0,0,6,-15,6,-26c0,0,0,-32,-20,-50c0,0,-20,-19,-51,-19Z" 
id="f0_f"
transform="scale(0.001,-0.001)" />

<path d="M787,-20c0,0,-16,0,-25,16c0,0,-7,18,-31,51c0,0,-23,32,-53,62L293,522c0,0,-42,-34,-60,-62c0,0,-17,-28,-17,-68c0,0,0,-38,20,-77c0,0,21,-38,68,-90c0,0,48,-52,68,-88c0,0,20,-36,20,-68c0,0,0,-38,-22,-69H70V63h80c0,0,31,0,31,35c0,0,0,18,-14,41c0,0,-14,24,-31,53c0,0,-17,30,-30,68c0,0,-14,38,-14,87c0,0,0,59,33,109c0,0,34,50,103,98l21,16l-96,96c0,0,-24,24,-36,42c0,0,-12,19,-12,41c0,0,0,26,21,61c0,0,22,36,53,65c0,0,31,29,46,29c0,0,13,0,24,-15c0,0,21,-34,56,-78c0,0,34,-44,65,-77L570,517c0,0,72,100,180,158c0,0,-38,0,-60,33c0,0,-21,33,-21,95c0,0,0,38,18,66c0,0,19,29,40,29c0,0,5,0,6,-4c0,0,0,-4,0,-17c0,0,0,-34,46,-34l69,2c0,0,40,0,63,-26c0,0,22,-25,22,-67c0,0,0,-27,-5,-60c0,0,-6,-34,-14,-45c0,0,-15,15,-24,20c0,0,-9,5,-19,5c0,0,-35,0,-118,-65c0,0,-82,-64,-122,-158L833,259c0,0,49,-47,63,-71c0,0,13,-24,13,-50c0,0,0,-21,-24,-62C885,76,860,35,832,7c0,0,-29,-27,-45,-27Z" 
id="f0_g"
transform="scale(0.001,-0.001)" />

<path d="M102,-3c0,0,-26,0,-26,31c0,0,0,176,35,320c0,0,34,145,102,247c0,0,3,4,3,25c0,0,0,24,-19,37c0,0,-19,13,-79,15c0,0,-40,0,-61,35c0,0,-22,35,-22,95c0,0,0,39,14,67c0,0,14,29,32,29c0,0,20,0,20,-25c0,0,0,-28,32,-28h33c0,0,54,0,85,-25c0,0,30,-25,30,-68l-3,-52c0,0,0,-22,3,-31c0,0,76,71,104,109c0,0,29,37,36,75c0,0,55,7,82,7c0,0,154,0,239,-126c0,0,85,-127,85,-352c0,0,0,-99,-15,-200C812,182,798,81,774,0H335l42,214H652c0,0,25,0,37,5c0,0,11,4,21,18c0,0,10,14,17,36c0,0,7,22,12,56c0,0,5,34,5,64c0,0,0,247,-241,247c0,0,-337,0,-337,-609c0,0,0,-20,-5,-27c0,0,-6,-7,-22,-7Z" 
id="f0_h"
transform="scale(0.001,-0.001)" />

<path d="M216,0c0,0,-59,212,-83,350c0,0,-25,139,-25,198c0,0,0,76,23,127c0,0,-42,13,-58,43c0,0,-15,30,-15,72c0,0,0,40,20,74c0,0,20,34,37,34c0,0,10,0,10,-13c0,0,0,-42,69,-42c0,0,57,0,80,-21c0,0,22,-21,22,-62c0,0,0,-38,-7,-72c0,0,-6,-34,-12,-34c0,0,-6,0,-16,10c0,0,-10,10,-25,10c0,0,-25,0,-35,-24c0,0,-10,-24,-10,-71c0,0,0,-164,72,-374c0,0,38,80,116,231c0,0,87,168,121,238c0,0,-36,6,-52,34c0,0,-17,28,-17,66c0,0,0,41,21,82c0,0,20,42,37,42c0,0,9,0,10,-7c0,0,5,-22,13,-32c0,0,9,-11,32,-12l44,-4c0,0,87,-4,87,-94c0,0,0,-33,-7,-67c0,0,-8,-34,-16,-34l-16,10c0,0,-15,10,-30,10c0,0,-22,0,-39,-29c0,0,-18,-32,-39,-72c0,0,-21,-41,-178,-355H691l38,91c0,0,58,139,124,224c0,0,38,50,60,80c0,0,22,29,22,45c0,0,0,12,-7,19c0,0,-6,7,-27,12c0,0,-42,18,-60,41c0,0,-17,24,-17,59c0,0,0,29,11,56c0,0,12,27,27,43c0,0,16,16,26,16c0,0,9,-1,10,-6l4,-14c0,0,4,-21,27,-25l70,-13c0,0,32,-6,51,-30c0,0,20,-24,20,-61c0,0,-2,-45,-23,-87c0,0,-21,-41,-91,-127c0,0,-46,-57,-77,-116c0,0,-31,-59,-71,-161L706,0Z" 
id="f0_i"
transform="scale(0.001,-0.001)" />

<path d="M112,-5c0,0,-39,0,-97,11V113c0,0,48,-10,77,-10c0,0,53,0,70,42c0,0,17,43,17,164V729H50V836H501c0,0,107,0,179,-25c0,0,72,-25,112,-77c0,0,40,-51,57,-118c0,0,16,-67,16,-164V0H726V454c0,0,0,55,-3,92c0,0,-4,37,-17,75c0,0,-14,38,-38,59c0,0,-24,22,-65,36c0,0,-42,13,-102,13H318V309c0,0,0,-160,-46,-237C272,72,226,-5,112,-5Z" 
id="f1_2"
transform="scale(0.001,-0.001)" />

<path d="M102,312V836H241V369L102,312Z" 
id="f1_3"
transform="scale(0.001,-0.001)" />

<path d="M66,0V107H332V555c0,0,0,92,-37,133c0,0,-37,41,-116,41H85V836h94c0,0,153,0,223,-66c0,0,69,-66,69,-231V0Z" 
id="f1_4"
transform="scale(0.001,-0.001)" />

<path d="M522,-20c0,0,-196,0,-290,99c0,0,-94,100,-94,324V836H276V397c0,0,0,-86,16,-147c0,0,17,-60,50,-94c0,0,34,-34,77,-49c0,0,43,-15,103,-15c0,0,59,0,102,15c0,0,44,15,77,49c0,0,33,34,50,94c0,0,17,61,17,147c0,0,0,84,-8,143c0,0,-7,58,-25,105c0,0,-17,47,-51,69c0,0,-33,23,-83,23c0,0,-50,0,-119,-22V821c0,0,85,23,150,23c0,0,76,0,130,-30c0,0,53,-31,85,-90c0,0,31,-59,45,-138c0,0,13,-78,13,-183c0,0,0,-224,-93,-324c0,0,-94,-99,-290,-99Z" 
id="f1_5"
transform="scale(0.001,-0.001)" />

<path d="M287,0L589,729H66v386H205V836l547,-1l-2,-82L433,0Z" 
id="f1_6"
transform="scale(0.001,-0.001)" />

<path d="M139,0V836H278V0Z" 
id="f1_8"
transform="scale(0.001,-0.001)" />

<path d="M139,0V138c0,0,0,61,8,112c0,0,7,52,19,87c0,0,11,36,30,66c0,0,19,31,35,49c0,0,17,19,41,35c0,0,25,17,41,25c0,0,17,7,40,17L141,836H303L613,388c0,0,20,10,33,18c0,0,13,8,34,28c0,0,20,20,33,44c0,0,13,25,22,66c0,0,10,41,10,92V836H882V698c0,0,0,-61,-7,-112c0,0,-6,-52,-18,-88c0,0,-12,-36,-30,-66c0,0,-19,-30,-36,-49c0,0,-17,-18,-41,-34c0,0,-24,-17,-40,-25c0,0,-17,-8,-41,-17L882,0H720L409,448c0,0,-21,-11,-34,-19c0,0,-13,-8,-34,-27c0,0,-21,-20,-34,-44c0,0,-12,-25,-22,-66c0,0,-9,-41,-9,-92V0Z" 
id="f1_9"
transform="scale(0.001,-0.001)" />

<path d="M154,0V454l138,56V0ZM722,0V454c0,0,0,161,-49,218c0,0,-48,57,-186,57H139V836H485c0,0,207,0,291,-93c0,0,83,-94,83,-318V0Z" 
id="f1_a"
transform="scale(0.001,-0.001)" />

<path d="M736,107V473c0,0,0,147,-48,202c0,0,-49,54,-187,54H278V107ZM139,0V836H499c0,0,105,0,177,-22c0,0,72,-21,116,-69c0,0,44,-49,64,-119c0,0,19,-71,19,-174V0Z" 
id="f1_b"
transform="scale(0.001,-0.001)" />

<path d="M180,0L66,836H203L258,443c0,0,36,1,64,6c0,0,28,6,49,18c0,0,20,12,35,26c0,0,15,13,26,36c0,0,11,24,17,44c0,0,7,20,12,55c0,0,6,34,9,60c0,0,3,26,8,71c0,0,4,45,9,77H610c0,0,-13,-194,-31,-271c0,0,-31,-127,-111,-179c0,0,-71,-45,-196,-50L304,107c0,0,73,0,130,5c0,0,56,6,111,21c0,0,54,15,94,40c0,0,40,25,77,64c0,0,37,39,63,94c0,0,25,54,46,128c0,0,21,73,34,166c0,0,13,94,20,211h138c0,0,-14,-124,-29,-218c0,0,-16,-94,-39,-179c0,0,-22,-85,-50,-146c0,0,-28,-61,-68,-112c0,0,-39,-51,-87,-84C744,97,696,65,632,42C632,42,568,19,492,10C492,10,417,0,320,0Z" 
id="f1_c"
transform="scale(0.001,-0.001)" />

<path d="M138,-7c0,0,-34,0,-72,10V129c0,0,25,-8,52,-8c0,0,33,0,58,5c0,0,26,5,58,24c0,0,33,20,53,54c0,0,21,34,36,97c0,0,15,64,15,151c0,0,0,113,-19,173c0,0,-19,60,-56,82c0,0,-38,22,-107,22H89V836h72c0,0,165,0,240,-91c0,0,76,-91,76,-293c0,0,0,-107,26,-227c0,0,25,-119,83,-225H437c0,0,-43,101,-62,184c0,0,-24,-60,-51,-99c0,0,-26,-38,-56,-58C268,27,239,7,209,0c0,0,-30,-7,-71,-7Z" 
id="f1_d"
transform="scale(0.001,-0.001)" />

<path d="M585,0V426c0,0,0,54,-8,98c0,0,-8,44,-27,83c0,0,-19,40,-49,66c0,0,-30,26,-77,41c0,0,-47,15,-108,15H66V836H315c0,0,94,0,166,-20c0,0,71,-20,116,-54c0,0,46,-35,75,-88c0,0,28,-52,40,-112c0,0,12,-60,12,-137V0Z" 
id="f1_e"
transform="scale(0.001,-0.001)" />

<path d="M71,-141V-15L289,62L66,836H210L416,109c0,0,99,42,153,98c0,0,53,56,80,155c0,0,26,98,26,262V836H817V624c0,0,0,-88,-7,-154c0,0,-7,-67,-25,-132c0,0,-18,-66,-51,-116c0,0,-33,-51,-84,-98c0,0,-50,-48,-123,-87c0,0,-72,-39,-169,-74L71,-141Z" 
id="f1_f"
transform="scale(0.001,-0.001)" />

<path d="M681,416L504,902L333,416ZM669,0V40L803,60L704,348H310L210,60L344,40V0H15V40L128,60l341,949H611L965,60L1092,40V0Z" 
id="f2_2"
transform="scale(0.001,-0.001)" />

<path d="M58,-234v58c0,0,131,42,131,125c0,0,0,15,-11,27c0,0,-11,12,-38,25C140,1,89,27,89,75c0,0,0,40,25,61c0,0,26,21,65,21c0,0,48,0,77,-34c0,0,30,-34,30,-86c0,0,0,-101,-60,-170c0,0,-59,-69,-168,-101Z" 
id="f2_3"
transform="scale(0.001,-0.001)" />

<path d="M284,67c0,0,51,0,88,12c0,0,37,12,74,30V358l-98,-3c0,0,-100,-4,-135,-39c0,0,-35,-35,-35,-117c0,0,0,-132,106,-132ZM233,-14c0,0,-179,0,-179,208c0,0,0,70,27,116c0,0,27,46,87,70c0,0,60,24,173,27l105,3V519c0,0,0,72,-26,107c0,0,-27,34,-82,34c0,0,-75,0,-137,-35L176,538H134V691c0,0,121,26,213,26c0,0,115,0,169,-47c0,0,54,-47,54,-144V52L657,33V0H465L451,70c0,0,-85,-84,-218,-84Z" 
id="f2_5"
transform="scale(0.001,-0.001)" />

<path d="M433,-292v111H265V-69H713V-181H545V-292Z" 
id="f1_g"
transform="scale(0.001,-0.001)" />

<path d="M536,63c0,0,127,0,191,54c0,0,63,54,63,168c0,0,0,105,-70,154c0,0,-70,49,-225,49H316V67c0,0,103,-4,220,-4ZM480,555c0,0,121,0,178,48c0,0,57,48,57,155c0,0,0,91,-58,133c0,0,-57,42,-186,42H316V555ZM554,-4L235,0H44V40L172,60V941L44,960v40H501c0,0,191,0,279,-56c0,0,88,-56,88,-179c0,0,0,-88,-55,-149c0,0,-54,-62,-151,-83c0,0,135,-14,209,-79c0,0,73,-65,73,-166c0,0,0,-144,-99,-219C845,69,745,-4,554,-4Z" 
id="f2_6"
transform="scale(0.001,-0.001)" />

<path d="M376,50c0,0,103,0,149,80c0,0,46,81,46,240c0,0,0,137,-47,204c0,0,-48,67,-148,67c0,0,-44,0,-87,-7c0,0,-44,-8,-63,-17V62c0,0,63,-12,150,-12Zm3,-64c0,0,-64,0,-141,14c0,0,-78,14,-136,37v971L0,1026v34H226V809c0,0,0,-40,-4,-148c0,0,74,59,188,59c0,0,143,0,219,-87c0,0,77,-87,77,-263c0,0,0,-189,-84,-287c0,0,-84,-97,-243,-97Z" 
id="f2_7"
transform="scale(0.001,-0.001)" />

<path d="M433,-329v111H545V-329Zm-93,185V-32H452V-144Zm186,0V-32H638V-144Z" 
id="f1_h"
transform="scale(0.001,-0.001)" />

<path d="M441,362V473H552V362Z" 
id="f1_i"
transform="scale(0.001,-0.001)" />

<path d="M66,0V107H554V452c0,0,0,56,-4,93c0,0,-4,37,-18,75c0,0,-14,38,-40,60c0,0,-26,22,-71,36c0,0,-45,13,-110,13H66V836H312c0,0,91,0,157,-17c0,0,66,-17,109,-49c0,0,44,-32,69,-84c0,0,26,-52,36,-114c0,0,10,-62,10,-147V107H817V0Z" 
id="f1_j"
transform="scale(0.001,-0.001)" />

<path d="M114,0l60,312c0,0,2,12,8,39c0,0,6,27,7,37c0,0,2,11,5,30c0,0,2,19,4,33c0,0,1,15,1,31c0,0,0,48,-35,146c0,0,-35,98,-98,208H228c0,0,3,-8,27,-67c0,0,25,-58,41,-117c0,0,21,53,50,90c0,0,29,37,57,57c0,0,29,21,65,32c0,0,37,11,65,14c0,0,28,3,67,3c0,0,300,0,300,-396V0H480V106H761V452c0,0,0,146,-46,215c0,0,-45,70,-118,70c0,0,-134,0,-198,-119c0,0,-36,-68,-67,-222c0,0,-2,-10,-6,-27L253,0Z" 
id="f1_k"
transform="scale(0.001,-0.001)" />

<path d="M139,0V836H485c0,0,206,0,290,-90c0,0,84,-89,84,-294V0H721V473c0,0,0,147,-49,202c0,0,-48,54,-186,54H277V0Z" 
id="f1_l"
transform="scale(0.001,-0.001)" />

<path d="M163,0V190H321V0Z" 
id="f1_m"
transform="scale(0.001,-0.001)" />

<path d="M577,-14c0,0,-243,0,-379,132C198,118,63,250,63,488c0,0,0,258,130,391c0,0,131,132,387,132c0,0,156,0,335,-38l5,-218H871L848,884c0,0,-52,32,-121,50c0,0,-69,17,-141,17c0,0,-191,0,-279,-112c0,0,-88,-113,-88,-349c0,0,0,-217,92,-332c0,0,92,-115,268,-115c0,0,85,0,160,20c0,0,76,21,120,55l27,149h49L930,32c0,0,-164,-46,-353,-46Z" 
id="f2_8"
transform="scale(0.001,-0.001)" />

<path d="M399,-14c0,0,-341,0,-341,370c0,0,0,175,87,269c0,0,87,95,249,95c0,0,101,0,220,-23V501H573L541,625c0,0,-62,35,-149,35c0,0,-200,0,-200,-304c0,0,0,-158,61,-225c0,0,61,-67,189,-67c0,0,109,0,189,24V43C631,43,595,16,530,1c0,0,-64,-15,-131,-15Z" 
id="f2_9"
transform="scale(0.001,-0.001)" />

<path d="M522,92c0,0,247,0,247,333c0,0,0,88,-17,146c0,0,-17,58,-53,91c0,0,-35,33,-82,46c0,0,-48,14,-116,14H276V419c0,0,0,-327,246,-327Zm0,-112c0,0,-193,0,-289,109c0,0,-95,110,-95,337V836H501c0,0,213,0,309,-93c0,0,96,-94,96,-317c0,0,0,-227,-95,-337C811,89,715,-20,522,-20Z" 
id="f1_n"
transform="scale(0.001,-0.001)" />

<path d="M156,-317V454l139,56V-317ZM505,0L806,729H139V835H967V753L650,0Z" 
id="f1_o"
transform="scale(0.001,-0.001)" />

<path d="M139,0V106H400c0,0,176,0,253,71c0,0,78,72,78,250c0,0,0,163,-80,233c0,0,-81,69,-250,69H278L277,564c0,0,-1,-54,26,-80c0,0,27,-25,82,-25c0,0,30,0,80,9V355c0,0,-61,-12,-111,-12c0,0,-100,0,-157,55c0,0,-58,55,-58,186V836H456c0,0,193,0,303,-109c0,0,110,-109,110,-309c0,0,0,-200,-110,-309C759,109,648,0,456,0Z" 
id="f1_p"
transform="scale(0.001,-0.001)" />

<path d="M44,0V40L172,60V941L44,960v40H794V760H745L721,922c0,0,-83,11,-241,11H316V543H586l23,119h48V354H609L586,475H316V67H513c0,0,193,0,252,12l43,185h49L843,0Z" 
id="f2_a"
transform="scale(0.001,-0.001)" />

<path d="M55,0V40L184,60V941L55,960v40H455V960L327,941V60L455,40V0Z" 
id="f2_b"
transform="scale(0.001,-0.001)" />

<path d="M117,-176L179,62V190H336V62L213,-176Z" 
id="f1_q"
transform="scale(0.001,-0.001)" />

<path d="M147,700v414H274V700Z" 
id="f1_r"
transform="scale(0.001,-0.001)" />

<path d="M44,0V40L172,60V941L44,960v40H445V960L316,941V549H787V941L659,960v40h400V960L930,941V60L1059,40V0H659V40L787,60V481H316V60L445,40V0Z" 
id="f2_c"
transform="scale(0.001,-0.001)" />

<path d="M442,0V33l93,19V504c0,0,0,129,-124,129c0,0,-70,0,-168,-22V52L338,33V0H31V33l88,19v956L15,1026v34H243V756c0,0,0,-77,-5,-112c0,0,54,31,122,53c0,0,68,23,115,23c0,0,91,0,137,-53c0,0,47,-53,47,-154V52L744,33V0Z" 
id="f2_d"
transform="scale(0.001,-0.001)" />

<path d="M66,0V106H564L66,836H228L516,413c0,0,3,2,9,6c0,0,17,13,27,21c0,0,10,8,26,27c0,0,17,20,26,40c0,0,9,21,16,54c0,0,7,34,7,75V836H764V698c0,0,0,-55,-7,-102c0,0,-7,-47,-16,-79c0,0,-10,-33,-27,-62c0,0,-18,-29,-32,-46c0,0,-14,-17,-37,-35c0,0,-22,-17,-36,-25c0,0,-13,-8,-36,-20L767,53V0Z" 
id="f1_s"
transform="scale(0.001,-0.001)" />

<path d="M700,-317V454c0,0,0,155,-54,215c0,0,-54,60,-180,60H277V551c0,0,0,-55,26,-80c0,0,27,-26,82,-26c0,0,30,0,80,10V341c0,0,-61,-11,-111,-11c0,0,-100,0,-157,55c0,0,-58,55,-58,186V836H466c0,0,203,0,288,-91c0,0,85,-92,85,-293V-317Z" 
id="f1_t"
transform="scale(0.001,-0.001)" />

<path d="M529,65c0,0,183,0,270,108c0,0,87,108,87,334c0,0,0,210,-113,318c0,0,-113,108,-322,108H316V71c0,0,90,-6,213,-6Zm0,-67L172,0H44V40L172,60V941L44,960v40H498c0,0,277,0,411,-123c0,0,133,-124,133,-371c0,0,0,-251,-129,-380C913,126,785,-2,529,-2Z" 
id="f2_e"
transform="scale(0.001,-0.001)" />

<path d="M383,64c0,0,85,0,152,28V645c0,0,-67,13,-152,13c0,0,-194,0,-194,-314c0,0,0,-141,48,-211c0,0,48,-69,146,-69ZM342,-14c0,0,-287,0,-287,358c0,0,0,184,82,280c0,0,81,96,239,96c0,0,81,0,163,-18c0,0,-4,25,-4,124v182l-118,18v34H659V52L745,33V0H548l-9,52c0,0,-84,-66,-197,-66Z" 
id="f2_f"
transform="scale(0.001,-0.001)" />

<path d="M495,0V729H66V836H781V729H634V0Z" 
id="f1_u"
transform="scale(0.001,-0.001)" />

<path d="M495,413c0,0,0,133,-34,190c0,0,-34,57,-105,57c0,0,-78,0,-119,-63c0,0,-42,-62,-42,-184ZM374,-14c0,0,-163,0,-239,87c0,0,-75,88,-75,283c0,0,0,183,77,273c0,0,76,91,219,91c0,0,269,0,269,-306V353H194V340c0,0,0,-103,23,-160c0,0,22,-57,70,-87c0,0,47,-29,124,-29c0,0,40,0,96,6c0,0,55,7,91,15V43C598,43,562,20,500,3c0,0,-61,-17,-126,-17Z" 
id="f2_g"
transform="scale(0.001,-0.001)" />

<path d="M54,0V40L172,60V941L44,960v40H794V760H745L721,922c0,0,-83,11,-241,11H316V516H611l23,120h46V328H634L611,449H316V60L483,40V0Z" 
id="f2_h"
transform="scale(0.001,-0.001)" />

<path d="M64,0V34L168,59V639H47v36l121,29v49c0,0,0,155,61,239c0,0,62,84,173,84c0,0,58,0,107,-15V908H472l-33,92c0,0,-26,16,-62,16c0,0,-47,0,-66,-42c0,0,-19,-42,-19,-157V701H478V639H292V59L443,34V0Z" 
id="f2_i"
transform="scale(0.001,-0.001)" />

<path d="M577,-14c0,0,-243,0,-379,131C198,117,63,248,63,488c0,0,0,263,131,393c0,0,132,130,386,130c0,0,182,0,352,-45V751H882L862,875c0,0,-52,37,-124,57c0,0,-72,19,-152,19c0,0,-191,0,-279,-113c0,0,-88,-114,-88,-348c0,0,0,-220,91,-333c0,0,91,-114,269,-114c0,0,63,0,131,15c0,0,69,15,105,36V377L686,397v40h370V397L958,377V52C958,52,871,24,778,5c0,0,-93,-19,-201,-19Z" 
id="f2_j"
transform="scale(0.001,-0.001)" />

<path d="M359,-270c0,0,124,0,192,46c0,0,67,47,67,129c0,0,0,43,-26,67c0,0,-26,24,-79,24H242c0,0,-32,-27,-51,-69c0,0,-20,-41,-20,-77c0,0,0,-64,46,-92c0,0,46,-28,142,-28Zm11,561c0,0,81,0,115,47c0,0,34,47,34,141c0,0,0,100,-35,142c0,0,-35,42,-113,42c0,0,-78,0,-114,-43c0,0,-37,-42,-37,-141c0,0,0,-98,36,-143c0,0,36,-45,114,-45ZM359,-329c0,0,-143,0,-218,44c0,0,-75,43,-75,125c0,0,0,39,27,78c0,0,26,38,98,89c0,0,-43,14,-72,48c0,0,-29,35,-29,74L208,262c0,0,-118,55,-118,217c0,0,0,115,73,178c0,0,73,63,211,63c0,0,28,0,71,-6c0,0,44,-6,67,-13l165,83l26,-32L599,644c0,0,50,-56,50,-165c0,0,0,-120,-72,-182c0,0,-73,-62,-208,-62c0,0,-62,0,-114,11L208,148c0,0,2,-13,29,-24c0,0,27,-12,67,-12H512c0,0,113,0,168,-49c0,0,55,-49,55,-134c0,0,0,-79,-44,-137c0,0,-43,-58,-128,-90c0,0,-84,-31,-204,-31Z" 
id="f2_k"
transform="scale(0.001,-0.001)" />

<path d="M66,0V106H322c0,0,75,0,127,23c0,0,53,23,82,67c0,0,29,43,42,98c0,0,13,54,13,124c0,0,0,70,-13,124c0,0,-13,55,-42,98c0,0,-29,44,-82,67c0,0,-52,23,-127,23H66V836H322c0,0,87,0,157,-24c0,0,70,-24,115,-64c0,0,45,-40,74,-94c0,0,30,-55,43,-113c0,0,13,-59,13,-123c0,0,0,-64,-13,-123c0,0,-13,-58,-43,-113c0,0,-29,-54,-74,-94C594,88,549,48,479,24C479,24,409,0,322,0Z" 
id="f1_v"
transform="scale(0.001,-0.001)" />

<path d="M433,-241v111H545V-241Z" 
id="f1_w"
transform="scale(0.001,-0.001)" />

<path d="M186,-14c0,0,-95,0,-154,22V190H81L104,86c0,0,14,-17,40,-26c0,0,26,-10,57,-10c0,0,105,0,105,141V941L178,960v40H562V960L449,941V322c0,0,0,-100,-30,-175c0,0,-31,-74,-93,-118c0,0,-63,-43,-140,-43Z" 
id="f2_l"
transform="scale(0.001,-0.001)" />

<path d="M64,-325c0,0,-46,0,-107,14v148H-8l19,-81c0,0,25,-21,62,-21c0,0,44,0,67,47c0,0,22,47,22,152V649L57,668v33H286V-28c0,0,0,-146,-57,-221c0,0,-56,-76,-165,-76ZM213,850c0,0,-34,0,-58,24c0,0,-24,24,-24,56c0,0,0,34,24,58c0,0,24,24,58,24c0,0,32,0,56,-24c0,0,24,-24,24,-58c0,0,0,-32,-24,-56c0,0,-24,-24,-56,-24Z" 
id="f2_m"
transform="scale(0.001,-0.001)" />

<path d="M0,955v112H111V955Z" 
id="f1_x"
transform="scale(0.001,-0.001)" />

<path d="M843,0L451,506L316,398V60L460,40V0H44V40L172,60V941L44,960v40H445V960L316,941V470L795,941l-99,19v40h313V960L894,941L552,607L979,60L1088,40V0Z" 
id="f2_n"
transform="scale(0.001,-0.001)" />

<path d="M477,0V33l64,19L348,354L257,254V52L331,33V0H44V33l89,19v956L29,1026v34H257V338L544,647l-73,20v34H718V667L631,650L431,446L688,50L764,33V0Z" 
id="f2_o"
transform="scale(0.001,-0.001)" />

<path d="M152,0V473c0,0,0,94,28,161c0,0,29,66,71,95H66V836H463V729H404c0,0,-65,0,-89,-57c0,0,-25,-58,-25,-199V0Z" 
id="f1_y"
transform="scale(0.001,-0.001)" />

<path d="M44,0V40L172,60V941L44,960v40H471V960L316,941V65H513c0,0,159,0,234,14l46,208h48L828,0Z" 
id="f2_p"
transform="scale(0.001,-0.001)" />

<path d="M31,0V33L150,52v956L31,1026v34H274V52L394,33V0Z" 
id="f2_q"
transform="scale(0.001,-0.001)" />

<path d="M322,0V40L481,60V389L130,941L17,960v40H440V960L306,941L593,480L866,941L739,960v40h326V960L955,941L625,394V60L784,40V0Z" 
id="f2_r"
transform="scale(0.001,-0.001)" />

<path d="M617,0L251,860V60L385,40V0H44V40L172,60V941L44,960v40H347L672,239l355,761h287V960L1185,941V60L1314,40V0H908V40l134,20V859L643,0Z" 
id="f2_s"
transform="scale(0.001,-0.001)" />

<path d="M431,0V33L535,52V499c0,0,0,62,-32,96c0,0,-32,33,-95,33c0,0,-66,0,-163,-22V52L350,33V0H32V33l89,19V649L32,668v33H237l6,-57c0,0,56,32,119,54c0,0,62,22,110,22c0,0,52,0,95,-20c0,0,44,-19,66,-62c0,0,57,32,134,57c0,0,77,25,128,25c0,0,179,0,179,-207V52l90,-19V0H846V33L950,52V499c0,0,0,129,-119,129c0,0,-19,0,-45,-3c0,0,-26,-3,-52,-7c0,0,-25,-4,-49,-8c0,0,-23,-5,-39,-8c0,0,13,-41,13,-89V52L764,33V0Z" 
id="f2_t"
transform="scale(0.001,-0.001)" />

<path d="M868,0L251,900V60L385,40V0H44V40L172,60V941L44,960v40H347L862,259V941L727,960v40h341V960L940,941V0Z" 
id="f2_u"
transform="scale(0.001,-0.001)" />

<path d="M439,0V33l93,19V500c0,0,0,62,-30,97c0,0,-31,36,-94,36c0,0,-67,0,-165,-22V52L338,33V0H35V33l84,19V649L35,668v33H235l7,-57c0,0,57,33,122,54c0,0,65,22,108,22c0,0,91,0,137,-53c0,0,47,-53,47,-154V52L741,33V0Z" 
id="f2_v"
transform="scale(0.001,-0.001)" />

<path d="M44,0V40L172,60V941L44,961v39H347L862,260V941L727,961v39h341V961L940,941V0H868L251,900V60L385,40V0ZM656,1083c0,0,-36,0,-66,16c0,0,-31,16,-57,36c0,0,-27,20,-52,36c0,0,-25,16,-50,16c0,0,-24,0,-38,-9c0,0,-15,-9,-23,-26c0,0,-8,-17,-13,-54H318c0,0,11,181,145,181c0,0,36,0,66,-16c0,0,30,-16,58,-36c0,0,27,-20,52,-36c0,0,25,-16,49,-16c0,0,32,0,50,19c0,0,18,18,24,69h39c0,0,-11,-180,-145,-180Z" 
id="f2_w"
transform="scale(0.001,-0.001)" />

<path d="M35,0V34l84,18V649L35,668v33H235l7,-56c0,0,57,32,122,54c0,0,65,21,108,21c0,0,91,0,137,-53c0,0,47,-53,47,-154V52L741,34V0H439V34l93,18V500c0,0,0,62,-30,97c0,0,-31,36,-94,36c0,0,-67,0,-165,-22V52L338,34V0ZM481,834c0,0,-36,0,-66,16c0,0,-30,16,-57,36c0,0,-27,20,-52,36c0,0,-25,16,-49,16c0,0,-24,0,-39,-9c0,0,-14,-9,-23,-26c0,0,-8,-17,-13,-54H143c0,0,11,180,146,180c0,0,36,0,66,-16c0,0,30,-16,57,-35c0,0,27,-20,52,-36c0,0,25,-16,49,-16c0,0,32,0,50,18c0,0,18,19,25,70h39c0,0,-12,-180,-146,-180Z" 
id="f2_y"
transform="scale(0.001,-0.001)" />

<path d="M551,45c0,0,171,0,252,108c0,0,82,108,82,349c0,0,0,239,-81,344c0,0,-81,105,-253,105c0,0,-172,0,-252,-105c0,0,-80,-105,-80,-344c0,0,0,-241,80,-349c0,0,81,-108,252,-108Zm0,-59c0,0,-238,0,-363,129C188,115,63,245,63,501c0,0,0,510,488,510c0,0,242,0,366,-129c0,0,124,-130,124,-381c0,0,0,-255,-126,-385C915,116,790,-14,551,-14Z" 
id="f2_z"
transform="scale(0.001,-0.001)" />

<path d="M377,45c0,0,99,0,147,73c0,0,47,73,47,237c0,0,0,161,-47,233c0,0,-47,72,-147,72c0,0,-97,0,-141,-69c0,0,-44,-69,-44,-236c0,0,0,-169,45,-240c0,0,44,-70,140,-70Zm0,-59c0,0,-158,0,-238,94c0,0,-81,95,-81,274c0,0,0,178,81,272c0,0,80,94,244,94c0,0,160,0,241,-92c0,0,82,-92,82,-274c0,0,0,-368,-329,-368Z" 
id="f2_10"
transform="scale(0.001,-0.001)" />

<path d="M394,460c0,0,126,0,186,57c0,0,60,57,60,187c0,0,0,123,-57,176c0,0,-58,53,-194,53H316V460ZM54,0V40L172,60V941L44,960v40H421c0,0,368,0,368,-295c0,0,0,-153,-93,-233c0,0,-93,-80,-267,-80H316V60L475,40V0Z" 
id="f2_11"
transform="scale(0.001,-0.001)" />

<path d="M382,45c0,0,188,0,188,314c0,0,0,143,-47,213c0,0,-46,69,-141,69c0,0,-87,0,-146,-24V58c0,0,67,-13,146,-13ZM25,-325v35l88,18V649L34,668v33H231l1,-41c0,0,31,27,84,43c0,0,53,17,107,17c0,0,134,0,208,-94c0,0,73,-93,73,-267c0,0,0,-178,-80,-276c0,0,-80,-97,-232,-97c0,0,-84,0,-160,16c0,0,4,-53,4,-84V-272l123,-18v-35Z" 
id="f2_12"
transform="scale(0.001,-0.001)" />

<path d="M354,-200c0,0,-112,175,-167,343c0,0,-56,170,-56,337c0,0,0,166,55,335c0,0,55,169,168,345H473c0,0,-100,-172,-148,-340c0,0,-48,-168,-48,-340c0,0,0,-173,48,-342c0,0,49,-168,148,-338Z" 
id="f1_z"
transform="scale(0.001,-0.001)" />

<path d="M122,-200c0,0,99,170,148,338c0,0,49,169,49,342c0,0,0,172,-49,340c0,0,-49,168,-148,340H241c0,0,112,-176,168,-345c0,0,55,-169,55,-335c0,0,0,-167,-55,-337c0,0,-56,-168,-168,-343Z" 
id="f1_10"
transform="scale(0.001,-0.001)" />

<path d="M551,45c0,0,171,0,252,106c0,0,82,107,82,349c0,0,0,241,-82,346c0,0,-82,105,-252,105c0,0,-171,0,-252,-106c0,0,-80,-106,-80,-345c0,0,0,-241,80,-348c0,0,81,-107,252,-107ZM930,-246c0,0,-53,0,-94,17c0,0,-41,18,-83,56c0,0,-41,39,-139,162c0,0,-27,-3,-63,-3c0,0,-239,0,-364,130C187,116,63,247,63,500c0,0,0,511,488,511c0,0,240,0,365,-129c0,0,125,-130,125,-382c0,0,0,-366,-265,-475l37,-45c0,0,66,-82,112,-117c0,0,46,-35,91,-35l61,2v-49c0,0,-17,-7,-64,-17c0,0,-48,-10,-83,-10Z" 
id="f2_13"
transform="scale(0.001,-0.001)" />

<path d="M383,64c0,0,44,0,87,7c0,0,43,7,65,17V645c0,0,-67,13,-152,13c0,0,-194,0,-194,-309c0,0,0,-143,48,-214c0,0,47,-71,146,-71Zm56,-389v35l96,18V-77c0,0,0,73,7,124c0,0,-79,-61,-200,-61c0,0,-287,0,-287,362c0,0,0,180,81,276c0,0,81,96,237,96c0,0,84,0,166,-18l67,33h53V-272l77,-18v-35Z" 
id="f2_14"
transform="scale(0.001,-0.001)" />

<path d="M448,506c0,0,134,0,190,49c0,0,57,50,57,168c0,0,0,114,-56,162c0,0,-56,48,-195,48H316V506ZM777,0L496,438H316V60L468,40V0H54V40L172,60V941L44,960v40H476c0,0,188,0,277,-63c0,0,90,-64,90,-204c0,0,0,-100,-54,-173c0,0,-55,-73,-151,-101L909,60L1017,40V0Z" 
id="f2_15"
transform="scale(0.001,-0.001)" />

<path d="M31,0V33l88,19V649L31,668v33H235l7,-87c0,0,44,37,121,71c0,0,76,35,121,35h11V530H463l-43,82c0,0,-37,0,-88,-10c0,0,-52,-10,-89,-26V52L363,33V0Z" 
id="f2_16"
transform="scale(0.001,-0.001)" />

<path d="M433,-329v111H545V-329Zm0,185V-32H545V-144Z" 
id="f1_11"
transform="scale(0.001,-0.001)" />

<path d="M410,-14c0,0,-80,0,-162,14c0,0,-81,14,-144,38V270h48L178,134c0,0,28,-35,95,-62c0,0,68,-27,134,-27c0,0,104,0,163,53c0,0,58,54,58,148c0,0,0,54,-23,89c0,0,-22,35,-59,59c0,0,-37,24,-84,41c0,0,-47,17,-97,34c0,0,-49,17,-96,38c0,0,-47,21,-84,53c0,0,-37,32,-60,79c0,0,-23,48,-23,117c0,0,0,119,90,187c0,0,89,68,248,68c0,0,121,0,263,-32V771H654L628,893c0,0,-76,55,-188,55c0,0,-100,0,-156,-40c0,0,-56,-41,-56,-112c0,0,0,-49,22,-81c0,0,23,-32,60,-55c0,0,37,-22,84,-39c0,0,48,-16,97,-34c0,0,50,-17,97,-39c0,0,48,-22,85,-56c0,0,36,-34,59,-83c0,0,23,-49,23,-120c0,0,0,-145,-89,-224c0,0,-89,-79,-256,-79Z" 
id="f2_17"
transform="scale(0.001,-0.001)" />

<path d="M278,-14c0,0,-52,0,-115,11c0,0,-63,10,-99,23V193H98L134,95c0,0,56,-50,146,-50c0,0,144,0,144,123c0,0,0,91,-114,130l-66,21c0,0,-75,25,-110,50c0,0,-34,26,-53,63c0,0,-18,36,-18,89c0,0,0,92,63,145c0,0,63,54,170,54c0,0,77,0,193,-23V544H454l-32,81c0,0,-39,35,-124,35c0,0,-61,0,-92,-30c0,0,-32,-30,-32,-80c0,0,0,-43,29,-72c0,0,28,-29,86,-48c0,0,110,-38,144,-55c0,0,33,-17,57,-42c0,0,23,-25,36,-57c0,0,13,-32,13,-79c0,0,0,-104,-66,-158c0,0,-66,-53,-195,-53Z" 
id="f2_18"
transform="scale(0.001,-0.001)" />

<path d="M235,0V40L394,60V936H356c0,0,-189,0,-258,-15L78,766H28v234H908V766H857L837,921c0,0,-22,5,-98,9c0,0,-75,4,-165,4H538V60L697,40V0Z" 
id="f2_19"
transform="scale(0.001,-0.001)" />

<path d="M249,-14c0,0,-71,0,-107,42c0,0,-35,42,-35,119V639H15v33l93,29l76,159h47V701H391V639H231V161c0,0,0,-48,22,-73c0,0,22,-24,57,-24c0,0,44,0,106,12V26C416,26,389,8,340,-2c0,0,-49,-12,-91,-12Z" 
id="f2_1a"
transform="scale(0.001,-0.001)" />

<path d="M557,-14c0,0,-199,0,-298,89c0,0,-99,90,-99,255V941L32,960v40H432V960L304,941V341c0,0,0,-273,264,-273c0,0,144,0,220,68c0,0,77,68,77,202V941L730,960v40h341V960L943,941V344c0,0,0,-180,-99,-269c0,0,-99,-89,-287,-89Z" 
id="f2_1b"
transform="scale(0.001,-0.001)" />

<path d="M289,-14c0,0,-179,0,-179,205V649L20,668v33H233V200c0,0,0,-128,120,-128c0,0,92,0,173,23V649L420,668v33H649V52L738,33V0H533l-6,57C527,57,474,28,405,7c0,0,-69,-21,-116,-21Z" 
id="f2_1c"
transform="scale(0.001,-0.001)" />

<path d="M536,-22L130,941L17,960v40H421V960L287,941L590,205L892,941L761,960v40h325V960L976,941L574,-22Z" 
id="f2_1d"
transform="scale(0.001,-0.001)" />

<path d="M360,-14L72,649L0,668v33H327V668L216,648L420,164L615,649L504,668v33H764V668L697,652L416,-14Z" 
id="f2_1e"
transform="scale(0.001,-0.001)" />

<path d="M420,-22L89,941L1,960v40H383V960L236,941L474,236L744,930h33L1037,236l227,705l-156,19v40h331V960l-87,-19L1025,-22H985L726,666L460,-22Z" 
id="f2_1f"
transform="scale(0.001,-0.001)" />

<path d="M327,-14L84,649L1,668v33H335V668L219,648L385,174L554,632h63L786,171L944,649L830,668v33h267V668l-78,-16L784,-14H726L553,448L382,-14Z" 
id="f2_1g"
transform="scale(0.001,-0.001)" />

<path d="M663,0V40L790,60L527,448L236,60L360,40V0H34V40L144,60L484,512L194,941L81,960v40H494V960L367,941L574,633L806,941L683,960v40h327V960L900,941L618,567L962,60L1076,40V0Z" 
id="f2_1h"
transform="scale(0.001,-0.001)" />

<path d="M13,0V34L95,46L325,350L122,649L40,668v33H357V668L264,648L399,446L554,649l-96,19v33H710V668L630,652L433,397L663,50L745,34V0H427V34l94,17L359,299L169,50L266,34V0Z" 
id="f2_1i"
transform="scale(0.001,-0.001)" />

<path d="M148,-329c0,0,-58,0,-114,13v151H69l24,-71c0,0,23,-17,64,-17c0,0,39,0,72,22c0,0,33,23,60,67c0,0,27,44,68,157L90,649L19,668v33H344V668L233,648L423,158L606,649L497,668v33H758V668L685,652L411,-43c0,0,-48,-124,-84,-177c0,0,-36,-54,-79,-82c0,0,-44,-27,-100,-27Z" 
id="f2_1j"
transform="scale(0.001,-0.001)" />

<path d="M109,68V180H221V68Zm-8,244V836H240V369L101,312Z" 
id="f1_12"
transform="scale(0.001,-0.001)" />

<path d="M73,0V70L634,936H448c0,0,-185,0,-254,-15L171,764H119v236H800V936L236,63H452c0,0,87,0,176,8c0,0,89,8,125,16l44,191h53L830,0Z" 
id="f2_1k"
transform="scale(0.001,-0.001)" />

<path d="M41,0V34L426,641H261c0,0,-42,0,-80,-7c0,0,-39,-7,-54,-19L104,515H69V701H586V665L201,60H407c0,0,42,0,89,10c0,0,47,10,66,25l39,147h35L617,0Z" 
id="f2_1l"
transform="scale(0.001,-0.001)" />

<path d="M139,-317V836H278V-317Z" 
id="f1_13"
transform="scale(0.001,-0.001)" />

<path d="M284,67c0,0,51,0,88,12c0,0,37,11,74,29V357l-98,-3c0,0,-100,-3,-135,-38c0,0,-35,-36,-35,-118c0,0,0,-131,106,-131ZM233,-14c0,0,-179,0,-179,208c0,0,0,70,27,116c0,0,27,46,87,70c0,0,60,24,173,27l105,3V519c0,0,0,73,-26,107c0,0,-27,34,-82,34c0,0,-75,0,-137,-35L176,538H134V691c0,0,121,26,213,26c0,0,115,0,169,-47c0,0,54,-47,54,-144V52L657,34V0H465L451,70c0,0,-85,-84,-218,-84Zm22,849v24l146,203H560v-27L296,835Z" 
id="f2_1m"
transform="scale(0.001,-0.001)" />

<path d="M32,0V34L151,52V649L52,668v33H275V52L395,34V0Zm71,835v24l146,203H408v-27L144,835Z" 
id="f2_1o"
transform="scale(0.001,-0.001)" />

<path d="M495,413c0,0,0,133,-34,190c0,0,-34,57,-105,57c0,0,-78,0,-119,-62c0,0,-42,-63,-42,-185ZM374,-14c0,0,-163,0,-239,87c0,0,-75,88,-75,283c0,0,0,183,77,274c0,0,76,90,219,90c0,0,269,0,269,-306V353H194V339c0,0,0,-103,23,-160c0,0,22,-57,70,-86c0,0,47,-30,124,-30c0,0,40,0,96,6c0,0,55,7,91,15V43C598,43,562,19,500,2c0,0,-61,-16,-126,-16ZM285,835v24l146,203H590v-27L326,835Z" 
id="f2_1q"
transform="scale(0.001,-0.001)" />


</defs>
</svg>