<?xml version="1.0" encoding="UTF-8" standalone="no"?>
<!DOCTYPE svg PUBLIC "-//W3C//DTD SVG 1.1//EN"
"http://www.w3.org/Graphics/SVG/1.1/DTD/svg11.dtd">
<svg viewBox="0 0 909 1286" version="1.1" xmlns="http://www.w3.org/2000/svg" xmlns:xlink="http://www.w3.org/1999/xlink">
<defs>
<clipPath id="c0_7"><path d="M0,1286.2V0H909.4V1286.2Z" /></clipPath>
<clipPath id="c1_7"><path d="M642.4,382.6V361.2h.3v21.4Z" /></clipPath>
<clipPath id="c2_7"><path d="M642.4,1015.6V994.3h.3v21.3Z" /></clipPath>
<style type="text/css"><![CDATA[
.g0_7{
fill: #D8D8D8;
}
.g1_7{
fill: none;
stroke: #000000;
stroke-width: 0.7638889;
stroke-linecap: butt;
stroke-linejoin: round;
}
.g2_7{
fill: none;
stroke: #0000FF;
stroke-width: 1.0694444;
stroke-linecap: butt;
stroke-linejoin: miter;
}
]]></style>
</defs>
<path fill-rule="evenodd" d="M637.8,241.6H761.2V200.3H637.8v41.3Z" class="g0_7" />
<path fill-rule="evenodd" d="M508,241.6H637.8V200.3H508v41.3Z" class="g0_7" />
<path fill-rule="evenodd" d="M356.3,241.6H507.9V200.3H356.3v41.3Z" class="g0_7" />
<path fill-rule="evenodd" d="M237.3,241.6H356.2V200.3H237.3v41.3Z" class="g0_7" />
<path fill-rule="evenodd" d="M128.9,261.8H237.2V241.7H128.9v20.1Z" class="g0_7" />
<path fill-rule="evenodd" d="M128.9,281.8H237.2V261.9H128.9v19.9Z" class="g0_7" />
<path fill-rule="evenodd" d="M128.9,302H237.2V281.9H128.9V302Z" class="g0_7" />
<path fill-rule="evenodd" d="M128.9,322H237.2V302H128.9v20Z" class="g0_7" />
<path fill-rule="evenodd" d="M128.9,342.1H237.2v-20H128.9v20Z" class="g0_7" />
<path fill-rule="evenodd" d="M323.9,618.4h90.2V593.1H323.9v25.3Z" class="g0_7" />
<path fill-rule="evenodd" d="M237.3,618.4h86.5V593.1H237.3v25.3Z" class="g0_7" />
<path fill-rule="evenodd" d="M128.9,643.7H237.2V618.4H128.9v25.3Z" class="g0_7" />
<path fill-rule="evenodd" d="M128.9,669.1H237.2V643.8H128.9v25.3Z" class="g0_7" />
<path fill-rule="evenodd" d="M128.9,694.5H237.2V669.2H128.9v25.3Z" class="g0_7" />
<path fill-rule="evenodd" d="M128.9,714.6H237.2V694.5H128.9v20.1Z" class="g0_7" />
<path fill-rule="evenodd" d="M128.9,740H237.2V714.7H128.9V740Z" class="g0_7" />
<path fill-rule="evenodd" d="M128.9,760H237.2V740.1H128.9V760Z" class="g0_7" />
<path fill-rule="evenodd" d="M486.3,864.3H681v-22H486.3v22Z" class="g0_7" />
<path fill-rule="evenodd" d="M367.1,864.3H486.2v-22H367.1v22Z" class="g0_7" />
<path fill-rule="evenodd" d="M248.1,864.3H367v-22H248.1v22Z" class="g0_7" />
<path fill-rule="evenodd" d="M128.9,864.3H248v-22H128.9v22Z" class="g0_7" />
<path fill-rule="evenodd" d="M637.8,241.6H761.2V200.3H637.8v41.3Z" class="g0_7" />
<path fill-rule="evenodd" d="M508,241.6H637.8V200.3H508v41.3Z" class="g0_7" />
<path fill-rule="evenodd" d="M356.3,241.6H507.9V200.3H356.3v41.3Z" class="g0_7" />
<path fill-rule="evenodd" d="M237.3,241.6H356.2V200.3H237.3v41.3Z" class="g0_7" />
<path fill-rule="evenodd" d="M128.9,261.8H237.2V241.7H128.9v20.1Z" class="g0_7" />
<path fill-rule="evenodd" d="M128.9,281.8H237.2V261.9H128.9v19.9Z" class="g0_7" />
<path fill-rule="evenodd" d="M128.9,302H237.2V281.9H128.9V302Z" class="g0_7" />
<path fill-rule="evenodd" d="M128.9,322H237.2V302H128.9v20Z" class="g0_7" />
<path fill-rule="evenodd" d="M128.9,342.1H237.2v-20H128.9v20Z" class="g0_7" />
<path fill-rule="evenodd" d="M323.9,618.4h90.2V593.1H323.9v25.3Z" class="g0_7" />
<path fill-rule="evenodd" d="M237.3,618.4h86.5V593.1H237.3v25.3Z" class="g0_7" />
<path fill-rule="evenodd" d="M128.9,643.7H237.2V618.4H128.9v25.3Z" class="g0_7" />
<path fill-rule="evenodd" d="M128.9,669.1H237.2V643.8H128.9v25.3Z" class="g0_7" />
<path fill-rule="evenodd" d="M128.9,694.5H237.2V669.2H128.9v25.3Z" class="g0_7" />
<path fill-rule="evenodd" d="M128.9,714.6H237.2V694.5H128.9v20.1Z" class="g0_7" />
<path fill-rule="evenodd" d="M128.9,740H237.2V714.7H128.9V740Z" class="g0_7" />
<path fill-rule="evenodd" d="M128.9,760H237.2V740.1H128.9V760Z" class="g0_7" />
<path fill-rule="evenodd" d="M486.3,864.3H681v-22H486.3v22Z" class="g0_7" />
<path fill-rule="evenodd" d="M367.1,864.3H486.2v-22H367.1v22Z" class="g0_7" />
<path fill-rule="evenodd" d="M248.1,864.3H367v-22H248.1v22Z" class="g0_7" />
<path fill-rule="evenodd" d="M128.9,864.3H248v-22H128.9v22Z" class="g0_7" />
<g clip-path="url(#c0_7)">
<g fill="#000000" >
<use xlink:href="#f0_6" transform="matrix(16,0,0,16,717.9,132.9)" />
<use xlink:href="#f0_e" transform="matrix(16,0,0,16,729.8,132.9)" />
<use xlink:href="#f0_7" transform="matrix(16,0,0,16,736.3,132.9)" />
<use xlink:href="#f0_8" transform="matrix(16,0,0,16,744.7,132.9)" />
<use xlink:href="#f0_b" transform="matrix(16,0,0,16,757.1,132.9)" />
<use xlink:href="#f0_q" transform="matrix(16,0,0,16,543.4,132.9)" />
<use xlink:href="#f0_r" transform="matrix(16,0,0,16,562.5,132.9)" />
<use xlink:href="#f0_o" transform="matrix(16,0,0,16,576.5,132.9)" />
<use xlink:href="#f0_q" transform="matrix(16,0,0,16,587.7,132.9)" />
<use xlink:href="#f0_l" transform="matrix(16,0,0,16,600.3,132.9)" />
<use xlink:href="#f0_s" transform="matrix(16,0,0,16,611.4,132.9)" />
<use xlink:href="#f0_n" transform="matrix(16,0,0,16,620,132.9)" />
<use xlink:href="#f0_l" transform="matrix(16,0,0,16,627,132.9)" />
<use xlink:href="#f0_q" transform="matrix(16,0,0,16,638.3,132.9)" />
<use xlink:href="#f0_o" transform="matrix(16,0,0,16,650.8,132.9)" />
<use xlink:href="#f1_n" transform="matrix(12,0,0,12,723.8,155.2)" />
<use xlink:href="#f1_d" transform="matrix(12,0,0,12,735,155.2)" />
<use xlink:href="#f1_o" transform="matrix(12,0,0,12,740.3,155.2)" />
<use xlink:href="#f1_4" transform="matrix(12,0,0,12,748.6,155.2)" />
<use xlink:href="#f1_p" transform="matrix(12,0,0,12,759.6,155.2)" />
<use xlink:href="#f1_12" transform="matrix(12,0,0,12,702.3,155.2)" />
<use xlink:href="#f2_7" transform="matrix(12,0,0,12,205.4,155.2)" />
<use xlink:href="#f2_i" transform="matrix(12,0,0,12,209.6,155.2)" />
<use xlink:href="#f2_f" transform="matrix(12,0,0,12,227.2,155.2)" />
<use xlink:href="#f2_3" transform="matrix(12,0,0,12,237.8,155.2)" />
<use xlink:href="#f2_6" transform="matrix(12,0,0,12,256.2,155.2)" />
<use xlink:href="#f2_7" transform="matrix(12,0,0,12,268.3,155.2)" />
<use xlink:href="#f2_4" transform="matrix(12,0,0,12,272.4,155.2)" />
<use xlink:href="#f2_j" transform="matrix(12,0,0,12,293.6,155.2)" />
<use xlink:href="#f2_3" transform="matrix(12,0,0,12,299.4,155.2)" />
<use xlink:href="#f2_7" transform="matrix(12,0,0,12,309.8,155.2)" />
<use xlink:href="#f2_3" transform="matrix(12,0,0,12,313.9,155.2)" />
<use xlink:href="#f2_b" transform="matrix(12,0,0,12,324.3,155.2)" />
<use xlink:href="#f2_9" transform="matrix(12,0,0,12,335.1,155.2)" />
<use xlink:href="#f2_3" transform="matrix(12,0,0,12,355.1,155.2)" />
<use xlink:href="#f2_l" transform="matrix(12,0,0,12,365.5,155.2)" />
<use xlink:href="#f2_9" transform="matrix(12,0,0,12,385,155.2)" />
<use xlink:href="#f2_a" transform="matrix(12,0,0,12,396.9,155.2)" />
<use xlink:href="#f2_7" transform="matrix(12,0,0,12,407.1,155.2)" />
<use xlink:href="#f2_8" transform="matrix(12,0,0,12,411.3,155.2)" />
<use xlink:href="#f2_4" transform="matrix(12,0,0,12,423.8,155.2)" />
<use xlink:href="#f2_2" transform="matrix(12,0,0,12,444.8,155.2)" />
<use xlink:href="#f2_c" transform="matrix(12,0,0,12,454.6,155.2)" />
<use xlink:href="#f2_e" transform="matrix(12,0,0,12,459.5,155.2)" />
<use xlink:href="#f2_9" transform="matrix(12,0,0,12,479.7,155.2)" />
<use xlink:href="#f2_d" transform="matrix(12,0,0,12,491.7,155.2)" />
<use xlink:href="#f2_f" transform="matrix(12,0,0,12,503.9,155.2)" />
<use xlink:href="#f2_9" transform="matrix(12,0,0,12,514.4,155.2)" />
<use xlink:href="#f2_9" transform="matrix(12,0,0,12,534.6,155.2)" />
<use xlink:href="#f2_3" transform="matrix(12,0,0,12,546.5,155.2)" />
<use xlink:href="#f2_f" transform="matrix(12,0,0,12,556.9,155.2)" />
<use xlink:href="#f2_w" transform="matrix(12,0,0,12,567.4,155.2)" />
<use xlink:href="#f2_9" transform="matrix(12,0,0,12,579.3,155.2)" />
<use xlink:href="#f2_e" transform="matrix(12,0,0,12,599.3,155.2)" />
<use xlink:href="#f2_d" transform="matrix(12,0,0,12,611.3,155.2)" />
<use xlink:href="#f2_6" transform="matrix(12,0,0,12,631.6,155.2)" />
<use xlink:href="#f2_3" transform="matrix(12,0,0,12,643.8,155.2)" />
<use xlink:href="#f2_4" transform="matrix(12,0,0,12,654.2,155.2)" />
<use xlink:href="#f2_9" transform="matrix(12,0,0,12,667.2,155.2)" />
<use xlink:href="#f2_12" transform="matrix(12,0,0,12,687.2,155.2)" />
<use xlink:href="#f3_2" transform="matrix(11,0,0,11,137.5,155.2)" />
<use xlink:href="#f3_g" transform="matrix(11,0,0,11,144.8,155.2)" />
<use xlink:href="#f3_5" transform="matrix(11,0,0,11,151.4,155.2)" />
<use xlink:href="#f3_8" transform="matrix(11,0,0,11,158.8,155.2)" />
<use xlink:href="#f3_w" transform="matrix(11,0,0,11,167.2,155.2)" />
<use xlink:href="#f3_2" transform="matrix(11,0,0,11,175.6,155.2)" />
<use xlink:href="#f3_3" transform="matrix(11,0,0,11,183.1,155.2)" />
<use xlink:href="#f2_3" transform="matrix(12,0,0,12,625.8,176.6)" />
<use xlink:href="#f2_e" transform="matrix(12,0,0,12,642,176.6)" />
<use xlink:href="#f2_m" transform="matrix(12,0,0,12,654,176.6)" />
<use xlink:href="#f2_q" transform="matrix(12,0,0,12,665.5,176.6)" />
<use xlink:href="#f2_a" transform="matrix(12,0,0,12,675.5,176.6)" />
<use xlink:href="#f2_n" transform="matrix(12,0,0,12,685.8,176.6)" />
<use xlink:href="#f2_9" transform="matrix(12,0,0,12,699,176.6)" />
<use xlink:href="#f2_3" transform="matrix(12,0,0,12,711,176.6)" />
<use xlink:href="#f2_7" transform="matrix(12,0,0,12,721.4,176.6)" />
<use xlink:href="#f2_8" transform="matrix(12,0,0,12,725.5,176.6)" />
<use xlink:href="#f2_d" transform="matrix(12,0,0,12,743.8,176.6)" />
<use xlink:href="#f2_7" transform="matrix(12,0,0,12,756,176.6)" />
<use xlink:href="#f2_9" transform="matrix(12,0,0,12,760.1,176.6)" />
<use xlink:href="#f3_2" transform="matrix(11,0,0,11,581.5,176.6)" />
<use xlink:href="#f3_l" transform="matrix(11,0,0,11,588.8,176.6)" />
<use xlink:href="#f3_2" transform="matrix(11,0,0,11,593.5,176.6)" />
<use xlink:href="#f3_w" transform="matrix(11,0,0,11,601,176.6)" />
<use xlink:href="#f3_4" transform="matrix(11,0,0,11,609.4,176.6)" />
<use xlink:href="#f3_3" transform="matrix(11,0,0,11,614,176.6)" />
</g>
</g>
<path d="M236.9,200.7H761.7M128.6,242.1H761.7M128.6,262.2H761.7M128.6,282.3H761.7M128.6,302.4H761.7m-633.1,20H761.7M128.6,342.6H761.7M128.9,241.7V343M237.3,200.3V343m119,-142.7V343M508,200.3V343M637.8,200.3V343M761.3,200.3V343" class="g1_7" />
<g clip-path="url(#c0_7)">
<g fill="#000000" >
<use xlink:href="#f2_t" transform="matrix(12,0,0,12,702.2,218)" />
<use xlink:href="#f2_c" transform="matrix(12,0,0,12,714.1,218)" />
<use xlink:href="#f2_m" transform="matrix(12,0,0,12,719.1,218)" />
<use xlink:href="#f2_e" transform="matrix(12,0,0,12,730.5,218)" />
<use xlink:href="#f2_3" transform="matrix(12,0,0,12,742.6,218)" />
<use xlink:href="#f3_5" transform="matrix(11,0,0,11,646.7,238)" />
<use xlink:href="#f3_8" transform="matrix(11,0,0,11,654.2,238)" />
<use xlink:href="#f3_w" transform="matrix(11,0,0,11,662.6,238)" />
<use xlink:href="#f3_2" transform="matrix(11,0,0,11,670.8,238)" />
<use xlink:href="#f3_3" transform="matrix(11,0,0,11,678.3,238)" />
<use xlink:href="#f2_a" transform="matrix(12,0,0,12,581.5,218)" />
<use xlink:href="#f2_c" transform="matrix(12,0,0,12,591.8,218)" />
<use xlink:href="#f2_g" transform="matrix(12,0,0,12,596.9,218)" />
<use xlink:href="#f2_f" transform="matrix(12,0,0,12,608.8,218)" />
<use xlink:href="#f2_3" transform="matrix(12,0,0,12,619.3,218)" />
<use xlink:href="#f3_2" transform="matrix(11,0,0,11,516.7,238)" />
<use xlink:href="#f3_g" transform="matrix(11,0,0,11,524.2,238)" />
<use xlink:href="#f3_5" transform="matrix(11,0,0,11,530.7,238)" />
<use xlink:href="#f3_8" transform="matrix(11,0,0,11,538.2,238)" />
<use xlink:href="#f3_w" transform="matrix(11,0,0,11,546.6,238)" />
<use xlink:href="#f3_2" transform="matrix(11,0,0,11,555,238)" />
<use xlink:href="#f3_3" transform="matrix(11,0,0,11,562.3,238)" />
<use xlink:href="#f2_z" transform="matrix(12,0,0,12,448.4,218)" />
<use xlink:href="#f2_c" transform="matrix(12,0,0,12,460.2,218)" />
<use xlink:href="#f2_t" transform="matrix(12,0,0,12,465.2,218)" />
<use xlink:href="#f2_d" transform="matrix(12,0,0,12,477.1,218)" />
<use xlink:href="#f2_3" transform="matrix(12,0,0,12,489.3,218)" />
<use xlink:href="#f3_3" transform="matrix(11,0,0,11,365.1,238)" />
<use xlink:href="#f3_2" transform="matrix(11,0,0,11,370.6,238)" />
<use xlink:href="#f3_5" transform="matrix(11,0,0,11,378.1,238)" />
<use xlink:href="#f3_8" transform="matrix(11,0,0,11,385.6,238)" />
<use xlink:href="#f3_w" transform="matrix(11,0,0,11,394,238)" />
<use xlink:href="#f3_2" transform="matrix(11,0,0,11,402.4,238)" />
<use xlink:href="#f3_3" transform="matrix(11,0,0,11,409.8,238)" />
<use xlink:href="#f2_k" transform="matrix(12,0,0,12,253.8,218)" />
<use xlink:href="#f2_7" transform="matrix(12,0,0,12,261.4,218)" />
<use xlink:href="#f2_9" transform="matrix(12,0,0,12,265.5,218)" />
<use xlink:href="#f2_n" transform="matrix(12,0,0,12,277.4,218)" />
<use xlink:href="#f2_9" transform="matrix(12,0,0,12,284.7,218)" />
<use xlink:href="#f2_3" transform="matrix(12,0,0,12,296.7,218)" />
<use xlink:href="#f2_r" transform="matrix(12,0,0,12,307.1,218)" />
<use xlink:href="#f2_h" transform="matrix(12,0,0,12,313.2,218)" />
<use xlink:href="#f2_c" transform="matrix(12,0,0,12,318.1,218)" />
<use xlink:href="#f2_c" transform="matrix(12,0,0,12,323.1,218)" />
<use xlink:href="#f2_i" transform="matrix(12,0,0,12,328.1,218)" />
<use xlink:href="#f2_3" transform="matrix(12,0,0,12,337.7,218)" />
<use xlink:href="#f3_e" transform="matrix(11,0,0,11,246.1,238)" />
<use xlink:href="#f3_4" transform="matrix(11,0,0,11,254.4,238)" />
<use xlink:href="#f3_3" transform="matrix(11,0,0,11,259.1,238)" />
<use xlink:href="#f3_4" transform="matrix(11,0,0,11,264.7,238)" />
<use xlink:href="#f3_w" transform="matrix(11,0,0,11,269.5,238)" />
<use xlink:href="#f3_4" transform="matrix(11,0,0,11,277.7,238)" />
<use xlink:href="#f3_3" transform="matrix(11,0,0,11,282.4,238)" />
<use xlink:href="#f3_5" transform="matrix(11,0,0,11,646.7,258.2)" />
<use xlink:href="#f3_8" transform="matrix(11,0,0,11,654.2,258.2)" />
<use xlink:href="#f3_1b" transform="matrix(11,0,0,11,662.4,258.2)" />
<use xlink:href="#f3_8" transform="matrix(11,0,0,11,667.1,258.2)" />
<use xlink:href="#f3_7" transform="matrix(11,0,0,11,137.7,258.2)" />
<use xlink:href="#f3_8" transform="matrix(11,0,0,11,146.1,258.2)" />
<use xlink:href="#f3_2" transform="matrix(11,0,0,11,516.7,278.2)" />
<use xlink:href="#f3_g" transform="matrix(11,0,0,11,524.2,278.2)" />
<use xlink:href="#f3_5" transform="matrix(11,0,0,11,530.7,278.2)" />
<use xlink:href="#f3_8" transform="matrix(11,0,0,11,538.2,278.2)" />
<use xlink:href="#f3_w" transform="matrix(11,0,0,11,546.6,278.2)" />
<use xlink:href="#f3_2" transform="matrix(11,0,0,11,555,278.2)" />
<use xlink:href="#f3_g" transform="matrix(11,0,0,11,562.3,278.2)" />
<use xlink:href="#f3_h" transform="matrix(11,0,0,11,137.7,278.2)" />
<use xlink:href="#f3_i" transform="matrix(11,0,0,11,142.4,278.2)" />
<use xlink:href="#f3_k" transform="matrix(11,0,0,11,137.7,298.4)" />
<use xlink:href="#f3_l" transform="matrix(11,0,0,11,145.1,298.4)" />
<use xlink:href="#f3_6" transform="matrix(11,0,0,11,149.7,298.4)" />
<use xlink:href="#f3_2" transform="matrix(11,0,0,11,154.4,298.4)" />
<use xlink:href="#f3_l" transform="matrix(11,0,0,11,161.9,298.4)" />
<use xlink:href="#f3_l" transform="matrix(11,0,0,11,166.5,298.4)" />
<use xlink:href="#f3_m" transform="matrix(11,0,0,11,171.2,298.4)" />
<use xlink:href="#f3_6" transform="matrix(11,0,0,11,178.7,298.4)" />
<use xlink:href="#f3_n" transform="matrix(11,0,0,11,183.4,298.4)" />
<use xlink:href="#f3_e" transform="matrix(11,0,0,11,195.4,298.4)" />
<use xlink:href="#f3_o" transform="matrix(11,0,0,11,203.8,298.4)" />
<use xlink:href="#f3_a" transform="matrix(11,0,0,11,137.7,318.4)" />
<use xlink:href="#f3_8" transform="matrix(11,0,0,11,146.1,318.4)" />
<use xlink:href="#f3_g" transform="matrix(11,0,0,11,154.5,318.4)" />
<use xlink:href="#f3_8" transform="matrix(11,0,0,11,161,318.4)" />
<use xlink:href="#f3_h" transform="matrix(11,0,0,11,169.4,318.4)" />
<use xlink:href="#f3_3" transform="matrix(11,0,0,11,174,318.4)" />
<use xlink:href="#f3_8" transform="matrix(11,0,0,11,179.6,318.4)" />
<use xlink:href="#f3_g" transform="matrix(11,0,0,11,188,318.4)" />
<use xlink:href="#f3_6" transform="matrix(11,0,0,11,194.6,318.4)" />
<use xlink:href="#f3_m" transform="matrix(11,0,0,11,199.3,318.4)" />
<use xlink:href="#f3_g" transform="matrix(11,0,0,11,206.6,318.4)" />
<use xlink:href="#f3_2" transform="matrix(11,0,0,11,137.7,338.6)" />
<use xlink:href="#f3_l" transform="matrix(11,0,0,11,145.1,338.6)" />
<use xlink:href="#f3_l" transform="matrix(11,0,0,11,149.7,338.6)" />
<use xlink:href="#f3_8" transform="matrix(11,0,0,11,154.4,338.6)" />
<use xlink:href="#f3_g" transform="matrix(11,0,0,11,162.8,338.6)" />
<use xlink:href="#f3_6" transform="matrix(11,0,0,11,169.4,338.6)" />
<use xlink:href="#f3_m" transform="matrix(11,0,0,11,174.1,338.6)" />
<use xlink:href="#f3_g" transform="matrix(11,0,0,11,181.4,338.6)" />
<use xlink:href="#f3_6" transform="matrix(11,0,0,11,188,338.6)" />
<use xlink:href="#f3_n" transform="matrix(11,0,0,11,192.7,338.6)" />
<use xlink:href="#f3_e" transform="matrix(11,0,0,11,204.8,338.6)" />
<use xlink:href="#f3_g" transform="matrix(11,0,0,11,213.2,338.6)" />
<use xlink:href="#f3_o" transform="matrix(11,0,0,11,219.7,338.6)" />
</g>
<g fill="#0000FF" >
<use xlink:href="#f2_3" transform="matrix(12,0,0,12,649.3,378.3)" />
<use xlink:href="#f2_7" transform="matrix(12,0,0,12,660,378.3)" />
<use xlink:href="#f2_k" transform="matrix(12,0,0,12,664.5,378.3)" />
<use xlink:href="#f2_a" transform="matrix(12,0,0,12,672.3,378.3)" />
<use xlink:href="#f2_e" transform="matrix(12,0,0,12,683.1,378.3)" />
<use xlink:href="#f2_3" transform="matrix(12,0,0,12,695.5,378.3)" />
<use xlink:href="#f2_e" transform="matrix(12,0,0,12,712.4,378.3)" />
<use xlink:href="#f2_c" transform="matrix(12,0,0,12,724.9,378.3)" />
<use xlink:href="#f2_f" transform="matrix(12,0,0,12,730.3,378.3)" />
<use xlink:href="#f2_c" transform="matrix(12,0,0,12,741.2,378.3)" />
<use xlink:href="#f2_4" transform="matrix(12,0,0,12,746.6,378.3)" />
<use xlink:href="#f2_e" transform="matrix(12,0,0,12,759.8,378.3)" />
</g>
</g>
<path d="M642.9,380.1H772.1" class="g2_7" />
<g clip-path="url(#c1_7)">
<path d="M642.4,380.1h5.8" class="g2_7" />
</g>
<g clip-path="url(#c0_7)">
<g fill="#0000FF" >
<use xlink:href="#f2_1d" transform="matrix(12,0,0,12,630.7,378.3)" />
</g>
</g>
<path d="M630.7,380.1h11.6" class="g2_7" />
<g clip-path="url(#c0_7)">
<g fill="#000000" >
<use xlink:href="#f1_m" transform="matrix(12,0,0,12,457.3,419.1)" />
<use xlink:href="#f1_b" transform="matrix(12,0,0,12,469.8,419.1)" />
<use xlink:href="#f1_j" transform="matrix(12,0,0,12,476,419.1)" />
<use xlink:href="#f1_b" transform="matrix(12,0,0,12,487.2,419.1)" />
<use xlink:href="#f1_13" transform="matrix(12,0,0,12,493.5,419.1)" />
<use xlink:href="#f1_b" transform="matrix(12,0,0,12,506,419.1)" />
<use xlink:href="#f1_u" transform="matrix(12,0,0,12,512.2,419.1)" />
<use xlink:href="#f1_m" transform="matrix(12,0,0,12,531.9,419.1)" />
<use xlink:href="#f1_b" transform="matrix(12,0,0,12,544.4,419.1)" />
<use xlink:href="#f1_5" transform="matrix(12,0,0,12,550.7,419.1)" />
<use xlink:href="#f1_p" transform="matrix(12,0,0,12,562.7,419.1)" />
<use xlink:href="#f1_n" transform="matrix(12,0,0,12,575.1,419.1)" />
<use xlink:href="#f1_u" transform="matrix(12,0,0,12,592.6,419.1)" />
<use xlink:href="#f1_n" transform="matrix(12,0,0,12,605.9,419.1)" />
<use xlink:href="#f1_a" transform="matrix(12,0,0,12,623.5,419.1)" />
<use xlink:href="#f1_8" transform="matrix(12,0,0,12,636,419.1)" />
<use xlink:href="#f1_n" transform="matrix(12,0,0,12,649.1,419.1)" />
<use xlink:href="#f1_k" transform="matrix(12,0,0,12,666.8,419.1)" />
<use xlink:href="#f1_p" transform="matrix(12,0,0,12,674.1,419.1)" />
<use xlink:href="#f1_b" transform="matrix(12,0,0,12,686.6,419.1)" />
<use xlink:href="#f1_j" transform="matrix(12,0,0,12,692.9,419.1)" />
<use xlink:href="#f1_4" transform="matrix(12,0,0,12,704,419.1)" />
<use xlink:href="#f1_p" transform="matrix(12,0,0,12,715,419.1)" />
<use xlink:href="#f1_p" transform="matrix(12,0,0,12,734,419.1)" />
<use xlink:href="#f1_v" transform="matrix(12,0,0,12,746.5,419.1)" />
<use xlink:href="#f1_3" transform="matrix(12,0,0,12,758.4,419.1)" />
<use xlink:href="#f2_3" transform="matrix(12,0,0,12,721.9,440.5)" />
<use xlink:href="#f2_l" transform="matrix(12,0,0,12,732.2,440.5)" />
<use xlink:href="#f2_c" transform="matrix(12,0,0,12,743.7,440.5)" />
<use xlink:href="#f2_m" transform="matrix(12,0,0,12,748.7,440.5)" />
<use xlink:href="#f2_9" transform="matrix(12,0,0,12,760.2,440.5)" />
<use xlink:href="#f3_5" transform="matrix(11,0,0,11,676.3,440.5)" />
<use xlink:href="#f3_8" transform="matrix(11,0,0,11,683.8,440.5)" />
<use xlink:href="#f3_w" transform="matrix(11,0,0,11,692.2,440.5)" />
<use xlink:href="#f3_2" transform="matrix(11,0,0,11,700.5,440.5)" />
<use xlink:href="#f3_3" transform="matrix(11,0,0,11,707.9,440.5)" />
<use xlink:href="#f2_g" transform="matrix(12,0,0,12,214.3,440.5)" />
<use xlink:href="#f2_e" transform="matrix(12,0,0,12,226.3,440.5)" />
<use xlink:href="#f2_m" transform="matrix(12,0,0,12,238.3,440.5)" />
<use xlink:href="#f2_e" transform="matrix(12,0,0,12,249.7,440.5)" />
<use xlink:href="#f2_9" transform="matrix(12,0,0,12,261.8,440.5)" />
<use xlink:href="#f2_4" transform="matrix(12,0,0,12,273.7,440.5)" />
<use xlink:href="#f2_k" transform="matrix(12,0,0,12,294.8,440.5)" />
<use xlink:href="#f2_n" transform="matrix(12,0,0,12,302.2,440.5)" />
<use xlink:href="#f2_3" transform="matrix(12,0,0,12,309.6,440.5)" />
<use xlink:href="#f2_t" transform="matrix(12,0,0,12,320,440.5)" />
<use xlink:href="#f2_f" transform="matrix(12,0,0,12,331.9,440.5)" />
<use xlink:href="#f2_2" transform="matrix(12,0,0,12,350.5,440.5)" />
<use xlink:href="#f2_d" transform="matrix(12,0,0,12,360.2,440.5)" />
<use xlink:href="#f2_j" transform="matrix(12,0,0,12,380.4,440.5)" />
<use xlink:href="#f2_e" transform="matrix(12,0,0,12,386.2,440.5)" />
<use xlink:href="#f2_c" transform="matrix(12,0,0,12,398.2,440.5)" />
<use xlink:href="#f2_f" transform="matrix(12,0,0,12,403.2,440.5)" />
<use xlink:href="#f2_a" transform="matrix(12,0,0,12,413.8,440.5)" />
<use xlink:href="#f2_e" transform="matrix(12,0,0,12,432.1,440.5)" />
<use xlink:href="#f2_c" transform="matrix(12,0,0,12,444.1,440.5)" />
<use xlink:href="#f2_n" transform="matrix(12,0,0,12,449,440.5)" />
<use xlink:href="#f2_7" transform="matrix(12,0,0,12,456.3,440.5)" />
<use xlink:href="#f2_q" transform="matrix(12,0,0,12,460.5,440.5)" />
<use xlink:href="#f2_8" transform="matrix(12,0,0,12,470.5,440.5)" />
<use xlink:href="#f2_f" transform="matrix(12,0,0,12,483,440.5)" />
<use xlink:href="#f2_e" transform="matrix(12,0,0,12,501.6,440.5)" />
<use xlink:href="#f2_g" transform="matrix(12,0,0,12,513.7,440.5)" />
<use xlink:href="#f2_p" transform="matrix(12,0,0,12,525.6,440.5)" />
<use xlink:href="#f2_3" transform="matrix(12,0,0,12,538.6,440.5)" />
<use xlink:href="#f2_r" transform="matrix(12,0,0,12,548.9,440.5)" />
<use xlink:href="#f2_t" transform="matrix(12,0,0,12,555.1,440.5)" />
<use xlink:href="#f2_c" transform="matrix(12,0,0,12,567,440.5)" />
<use xlink:href="#f2_m" transform="matrix(12,0,0,12,571.8,440.5)" />
<use xlink:href="#f2_e" transform="matrix(12,0,0,12,583.3,440.5)" />
<use xlink:href="#f2_3" transform="matrix(12,0,0,12,595.3,440.5)" />
<use xlink:href="#f2_c" transform="matrix(12,0,0,12,613.6,440.5)" />
<use xlink:href="#f2_l" transform="matrix(12,0,0,12,618.7,440.5)" />
<use xlink:href="#f2_8" transform="matrix(12,0,0,12,630.1,440.5)" />
<use xlink:href="#f2_4" transform="matrix(12,0,0,12,642.6,440.5)" />
<use xlink:href="#f2_8" transform="matrix(12,0,0,12,655.4,440.5)" />
<use xlink:href="#f2_4" transform="matrix(12,0,0,12,214,461.8)" />
<use xlink:href="#f2_7" transform="matrix(12,0,0,12,227,461.8)" />
<use xlink:href="#f2_h" transform="matrix(12,0,0,12,240.6,461.8)" />
<use xlink:href="#f2_i" transform="matrix(12,0,0,12,245.6,461.8)" />
<use xlink:href="#f2_3" transform="matrix(12,0,0,12,255.2,461.8)" />
<use xlink:href="#f2_j" transform="matrix(12,0,0,12,275.2,461.8)" />
<use xlink:href="#f2_u" transform="matrix(12,0,0,12,281,461.8)" />
<use xlink:href="#f2_h" transform="matrix(12,0,0,12,289.4,461.8)" />
<use xlink:href="#f2_7" transform="matrix(12,0,0,12,294.3,461.8)" />
<use xlink:href="#f2_8" transform="matrix(12,0,0,12,298.4,461.8)" />
<use xlink:href="#f2_7" transform="matrix(12,0,0,12,320.4,461.8)" />
<use xlink:href="#f2_t" transform="matrix(12,0,0,12,324.5,461.8)" />
<use xlink:href="#f2_g" transform="matrix(12,0,0,12,336.4,461.8)" />
<use xlink:href="#f2_7" transform="matrix(12,0,0,12,348.3,461.8)" />
<use xlink:href="#f2_6" transform="matrix(12,0,0,12,361.9,461.8)" />
<use xlink:href="#f2_7" transform="matrix(12,0,0,12,374.1,461.8)" />
<use xlink:href="#f2_7" transform="matrix(12,0,0,12,378.2,461.8)" />
<use xlink:href="#f2_p" transform="matrix(12,0,0,12,382.3,461.8)" />
<use xlink:href="#f2_3" transform="matrix(12,0,0,12,395.3,461.8)" />
<use xlink:href="#f2_u" transform="matrix(12,0,0,12,405.7,461.8)" />
<use xlink:href="#f2_6" transform="matrix(12,0,0,12,423.5,461.8)" />
<use xlink:href="#f2_k" transform="matrix(12,0,0,12,435.7,461.8)" />
<use xlink:href="#f2_3" transform="matrix(12,0,0,12,452.7,461.8)" />
<use xlink:href="#f2_l" transform="matrix(12,0,0,12,463,461.8)" />
<use xlink:href="#f2_c" transform="matrix(12,0,0,12,474.5,461.8)" />
<use xlink:href="#f2_m" transform="matrix(12,0,0,12,479.5,461.8)" />
<use xlink:href="#f2_9" transform="matrix(12,0,0,12,491,461.8)" />
<use xlink:href="#f2_e" transform="matrix(12,0,0,12,512.5,461.8)" />
<use xlink:href="#f2_c" transform="matrix(12,0,0,12,524.4,461.8)" />
<use xlink:href="#f2_l" transform="matrix(12,0,0,12,529.4,461.8)" />
<use xlink:href="#f2_8" transform="matrix(12,0,0,12,540.9,461.8)" />
<use xlink:href="#f2_4" transform="matrix(12,0,0,12,553.4,461.8)" />
<use xlink:href="#f2_8" transform="matrix(12,0,0,12,566.2,461.8)" />
<use xlink:href="#f2_s" transform="matrix(12,0,0,12,588.3,461.8)" />
<use xlink:href="#f2_6" transform="matrix(12,0,0,12,594.1,461.8)" />
<use xlink:href="#f2_7" transform="matrix(12,0,0,12,606.2,461.8)" />
<use xlink:href="#f2_a" transform="matrix(12,0,0,12,610.3,461.8)" />
<use xlink:href="#f2_g" transform="matrix(12,0,0,12,620.7,461.8)" />
<use xlink:href="#f2_d" transform="matrix(12,0,0,12,632.6,461.8)" />
<use xlink:href="#f2_6" transform="matrix(12,0,0,12,654.4,461.8)" />
<use xlink:href="#f2_7" transform="matrix(12,0,0,12,666.5,461.8)" />
<use xlink:href="#f2_f" transform="matrix(12,0,0,12,670.6,461.8)" />
<use xlink:href="#f2_a" transform="matrix(12,0,0,12,681.1,461.8)" />
<use xlink:href="#f2_e" transform="matrix(12,0,0,12,701,461.8)" />
<use xlink:href="#f2_c" transform="matrix(12,0,0,12,713,461.8)" />
<use xlink:href="#f2_8" transform="matrix(12,0,0,12,718,461.8)" />
<use xlink:href="#f2_c" transform="matrix(12,0,0,12,730.4,461.8)" />
<use xlink:href="#f2_p" transform="matrix(12,0,0,12,735.4,461.8)" />
<use xlink:href="#f2_8" transform="matrix(12,0,0,12,748.4,461.8)" />
<use xlink:href="#f2_f" transform="matrix(12,0,0,12,760.9,461.8)" />
<use xlink:href="#f2_u" transform="matrix(12,0,0,12,446.9,483.2)" />
<use xlink:href="#f2_t" transform="matrix(12,0,0,12,455.2,483.2)" />
<use xlink:href="#f2_c" transform="matrix(12,0,0,12,467.1,483.2)" />
<use xlink:href="#f2_f" transform="matrix(12,0,0,12,472.2,483.2)" />
<use xlink:href="#f2_c" transform="matrix(12,0,0,12,482.7,483.2)" />
<use xlink:href="#f2_w" transform="matrix(12,0,0,12,487.7,483.2)" />
<use xlink:href="#f2_c" transform="matrix(12,0,0,12,499.5,483.2)" />
<use xlink:href="#f2_d" transform="matrix(12,0,0,12,504.5,483.2)" />
<use xlink:href="#f2_t" transform="matrix(12,0,0,12,524.4,483.2)" />
<use xlink:href="#f2_c" transform="matrix(12,0,0,12,536.1,483.2)" />
<use xlink:href="#f2_m" transform="matrix(12,0,0,12,541.2,483.2)" />
<use xlink:href="#f2_e" transform="matrix(12,0,0,12,552.6,483.2)" />
<use xlink:href="#f2_3" transform="matrix(12,0,0,12,564.6,483.2)" />
<use xlink:href="#f2_u" transform="matrix(12,0,0,12,575,483.2)" />
<use xlink:href="#f2_7" transform="matrix(12,0,0,12,590.9,483.2)" />
<use xlink:href="#f2_c" transform="matrix(12,0,0,12,595,483.2)" />
<use xlink:href="#f2_w" transform="matrix(12,0,0,12,600,483.2)" />
<use xlink:href="#f2_7" transform="matrix(12,0,0,12,611.9,483.2)" />
<use xlink:href="#f2_f" transform="matrix(12,0,0,12,616,483.2)" />
<use xlink:href="#f2_9" transform="matrix(12,0,0,12,626.6,483.2)" />
<use xlink:href="#f2_g" transform="matrix(12,0,0,12,646.1,483.2)" />
<use xlink:href="#f2_c" transform="matrix(12,0,0,12,658,483.2)" />
<use xlink:href="#f2_c" transform="matrix(12,0,0,12,662.9,483.2)" />
<use xlink:href="#f2_a" transform="matrix(12,0,0,12,667.9,483.2)" />
<use xlink:href="#f2_h" transform="matrix(12,0,0,12,685.9,483.2)" />
<use xlink:href="#f2_9" transform="matrix(12,0,0,12,690.9,483.2)" />
<use xlink:href="#f2_f" transform="matrix(12,0,0,12,702.9,483.2)" />
<use xlink:href="#f2_e" transform="matrix(12,0,0,12,720.9,483.2)" />
<use xlink:href="#f2_c" transform="matrix(12,0,0,12,732.9,483.2)" />
<use xlink:href="#f2_n" transform="matrix(12,0,0,12,737.8,483.2)" />
<use xlink:href="#f2_7" transform="matrix(12,0,0,12,745.1,483.2)" />
<use xlink:href="#f2_q" transform="matrix(12,0,0,12,749.2,483.2)" />
<use xlink:href="#f2_8" transform="matrix(12,0,0,12,759.2,483.2)" />
<use xlink:href="#f3_5" transform="matrix(11,0,0,11,349.7,483.2)" />
<use xlink:href="#f3_8" transform="matrix(11,0,0,11,357.2,483.2)" />
<use xlink:href="#f3_w" transform="matrix(11,0,0,11,365.6,483.2)" />
<use xlink:href="#f3_2" transform="matrix(11,0,0,11,374,483.2)" />
<use xlink:href="#f3_3" transform="matrix(11,0,0,11,381.4,483.2)" />
<use xlink:href="#f3_f" transform="matrix(11,0,0,11,392.9,483.2)" />
<use xlink:href="#f3_a" transform="matrix(11,0,0,11,401.3,483.2)" />
<use xlink:href="#f3_v" transform="matrix(11,0,0,11,415.6,483.2)" />
<use xlink:href="#f3_f" transform="matrix(11,0,0,11,424,483.2)" />
<use xlink:href="#f3_g" transform="matrix(11,0,0,11,432.3,483.2)" />
<use xlink:href="#f2_6" transform="matrix(12,0,0,12,137.8,483.2)" />
<use xlink:href="#f2_i" transform="matrix(12,0,0,12,150,483.2)" />
<use xlink:href="#f2_f" transform="matrix(12,0,0,12,159.6,483.2)" />
<use xlink:href="#f2_c" transform="matrix(12,0,0,12,177.6,483.2)" />
<use xlink:href="#f2_w" transform="matrix(12,0,0,12,182.7,483.2)" />
<use xlink:href="#f2_7" transform="matrix(12,0,0,12,194.4,483.2)" />
<use xlink:href="#f2_f" transform="matrix(12,0,0,12,198.5,483.2)" />
<use xlink:href="#f2_7" transform="matrix(12,0,0,12,209.1,483.2)" />
<use xlink:href="#f2_h" transform="matrix(12,0,0,12,220.8,483.2)" />
<use xlink:href="#f2_9" transform="matrix(12,0,0,12,225.8,483.2)" />
<use xlink:href="#f2_f" transform="matrix(12,0,0,12,237.8,483.2)" />
<use xlink:href="#f2_e" transform="matrix(12,0,0,12,255.7,483.2)" />
<use xlink:href="#f2_c" transform="matrix(12,0,0,12,267.8,483.2)" />
<use xlink:href="#f2_n" transform="matrix(12,0,0,12,272.8,483.2)" />
<use xlink:href="#f2_7" transform="matrix(12,0,0,12,280.1,483.2)" />
<use xlink:href="#f2_q" transform="matrix(12,0,0,12,284.1,483.2)" />
<use xlink:href="#f2_8" transform="matrix(12,0,0,12,294.2,483.2)" />
<use xlink:href="#f2_4" transform="matrix(12,0,0,12,314.2,483.2)" />
<use xlink:href="#f2_7" transform="matrix(12,0,0,12,327.2,483.2)" />
<use xlink:href="#f2_c" transform="matrix(12,0,0,12,331.1,483.2)" />
<use xlink:href="#f2_s" transform="matrix(12,0,0,12,343.8,483.2)" />
<use xlink:href="#f2_j" transform="matrix(12,0,0,12,345.4,504.6)" />
<use xlink:href="#f2_9" transform="matrix(12,0,0,12,351.2,504.6)" />
<use xlink:href="#f2_a" transform="matrix(12,0,0,12,363.2,504.6)" />
<use xlink:href="#f2_7" transform="matrix(12,0,0,12,373.5,504.6)" />
<use xlink:href="#f2_l" transform="matrix(12,0,0,12,377.6,504.6)" />
<use xlink:href="#f2_9" transform="matrix(12,0,0,12,389.1,504.6)" />
<use xlink:href="#f2_t" transform="matrix(12,0,0,12,406.8,504.6)" />
<use xlink:href="#f2_c" transform="matrix(12,0,0,12,418.7,504.6)" />
<use xlink:href="#f2_f" transform="matrix(12,0,0,12,423.8,504.6)" />
<use xlink:href="#f2_c" transform="matrix(12,0,0,12,434.3,504.6)" />
<use xlink:href="#f2_w" transform="matrix(12,0,0,12,439.2,504.6)" />
<use xlink:href="#f2_c" transform="matrix(12,0,0,12,451.1,504.6)" />
<use xlink:href="#f2_d" transform="matrix(12,0,0,12,456.1,504.6)" />
<use xlink:href="#f2_3" transform="matrix(12,0,0,12,474.1,504.6)" />
<use xlink:href="#f2_c" transform="matrix(12,0,0,12,484.5,504.6)" />
<use xlink:href="#f2_8" transform="matrix(12,0,0,12,489.6,504.6)" />
<use xlink:href="#f2_e" transform="matrix(12,0,0,12,502.1,504.6)" />
<use xlink:href="#f2_d" transform="matrix(12,0,0,12,514.1,504.6)" />
<use xlink:href="#f2_6" transform="matrix(12,0,0,12,532.2,504.6)" />
<use xlink:href="#f2_e" transform="matrix(12,0,0,12,544.2,504.6)" />
<use xlink:href="#f2_t" transform="matrix(12,0,0,12,556.3,504.6)" />
<use xlink:href="#f2_m" transform="matrix(12,0,0,12,568.2,504.6)" />
<use xlink:href="#f2_e" transform="matrix(12,0,0,12,579.6,504.6)" />
<use xlink:href="#f2_4" transform="matrix(12,0,0,12,591.6,504.6)" />
<use xlink:href="#f2_c" transform="matrix(12,0,0,12,610.4,504.6)" />
<use xlink:href="#f2_a" transform="matrix(12,0,0,12,615.5,504.6)" />
<use xlink:href="#f2_m" transform="matrix(12,0,0,12,625.7,504.6)" />
<use xlink:href="#f2_t" transform="matrix(12,0,0,12,637.1,504.6)" />
<use xlink:href="#f2_e" transform="matrix(12,0,0,12,649,504.6)" />
<use xlink:href="#f2_6" transform="matrix(12,0,0,12,666.9,504.6)" />
<use xlink:href="#f2_d" transform="matrix(12,0,0,12,679.1,504.6)" />
<use xlink:href="#f2_q" transform="matrix(12,0,0,12,697.1,504.6)" />
<use xlink:href="#f2_d" transform="matrix(12,0,0,12,707.2,504.6)" />
<use xlink:href="#f2_8" transform="matrix(12,0,0,12,719.4,504.6)" />
<use xlink:href="#f2_a" transform="matrix(12,0,0,12,737.7,504.6)" />
<use xlink:href="#f2_o" transform="matrix(12,0,0,12,748,504.6)" />
<use xlink:href="#f2_c" transform="matrix(12,0,0,12,754.4,504.6)" />
<use xlink:href="#f2_8" transform="matrix(12,0,0,12,759.3,504.6)" />
<use xlink:href="#f0_b" transform="matrix(15.5,0,0,15.5,600.6,568.6)" />
<use xlink:href="#f0_d" transform="matrix(15.5,0,0,15.5,615.5,568.6)" />
<use xlink:href="#f0_t" transform="matrix(15.5,0,0,15.5,628.6,568.6)" />
<use xlink:href="#f0_e" transform="matrix(15.5,0,0,15.5,642.5,568.6)" />
<use xlink:href="#f0_f" transform="matrix(15.5,0,0,15.5,648.9,568.6)" />
<use xlink:href="#f0_3" transform="matrix(15.5,0,0,15.5,669.2,568.6)" />
<use xlink:href="#f0_4" transform="matrix(15.5,0,0,15.5,677.4,568.6)" />
<use xlink:href="#f0_5" transform="matrix(15.5,0,0,15.5,683.9,568.6)" />
<use xlink:href="#f0_4" transform="matrix(15.5,0,0,15.5,701,568.6)" />
<use xlink:href="#f0_5" transform="matrix(15.5,0,0,15.5,707.5,568.6)" />
<use xlink:href="#f0_7" transform="matrix(15.5,0,0,15.5,731,568.6)" />
<use xlink:href="#f0_4" transform="matrix(15.5,0,0,15.5,739.3,568.6)" />
<use xlink:href="#f0_8" transform="matrix(15.5,0,0,15.5,745.8,568.6)" />
<use xlink:href="#f0_9" transform="matrix(15.5,0,0,15.5,757.7,568.6)" />
<use xlink:href="#f0_1a" transform="matrix(15.5,0,0,15.5,576.6,568.6)" />
<use xlink:href="#f0_i" transform="matrix(15.5,0,0,15.5,368.2,568.6)" />
<use xlink:href="#f0_1b" transform="matrix(15.5,0,0,15.5,386.3,568.6)" />
<use xlink:href="#f0_4" transform="matrix(15.5,0,0,15.5,401.4,568.6)" />
<use xlink:href="#f0_16" transform="matrix(15.5,0,0,15.5,408,568.6)" />
<use xlink:href="#f0_4" transform="matrix(15.5,0,0,15.5,422.5,568.6)" />
<use xlink:href="#f0_4" transform="matrix(15.5,0,0,15.5,429,568.6)" />
<use xlink:href="#f0_b" transform="matrix(15.5,0,0,15.5,435.5,568.6)" />
<use xlink:href="#f0_t" transform="matrix(15.5,0,0,15.5,450.3,568.6)" />
<use xlink:href="#f0_16" transform="matrix(15.5,0,0,15.5,464.2,568.6)" />
<use xlink:href="#f0_f" transform="matrix(15.5,0,0,15.5,478.5,568.6)" />
<use xlink:href="#f0_1b" transform="matrix(15.5,0,0,15.5,498.8,568.6)" />
<use xlink:href="#f0_4" transform="matrix(15.5,0,0,15.5,513.9,568.6)" />
<use xlink:href="#f0_6" transform="matrix(15.5,0,0,15.5,520.4,568.6)" />
<use xlink:href="#f0_u" transform="matrix(15.5,0,0,15.5,531.9,568.6)" />
<use xlink:href="#f0_d" transform="matrix(15.5,0,0,15.5,545.8,568.6)" />
<use xlink:href="#f0_6" transform="matrix(15.5,0,0,15.5,558.9,568.6)" />
<use xlink:href="#f0_1c" transform="matrix(15.5,0,0,15.5,317.2,568.6)" />
<use xlink:href="#f0_18" transform="matrix(15.5,0,0,15.5,334.7,568.6)" />
<use xlink:href="#f0_1d" transform="matrix(15.5,0,0,15.5,344.2,568.6)" />
</g>
</g>
<path d="M236.9,593.5H414.6m-286,25.3h286m-286,25.4h286m-286,25.3h286m-286,25.4h286m-286,20.2h286m-286,25.3h286m-286,20.1h286M128.9,618.4V760.8M237.3,593.1V760.8M414.2,593.1V760.8" class="g1_7" />
<g clip-path="url(#c0_7)">
<g fill="#000000" >
<use xlink:href="#f2_t" transform="matrix(12,0,0,12,356.4,611)" />
<use xlink:href="#f2_c" transform="matrix(12,0,0,12,368.3,611)" />
<use xlink:href="#f2_a" transform="matrix(12,0,0,12,373.4,611)" />
<use xlink:href="#f2_9" transform="matrix(12,0,0,12,383.7,611)" />
<use xlink:href="#f2_3" transform="matrix(12,0,0,12,395.6,611)" />
<use xlink:href="#f3_e" transform="matrix(11,0,0,11,246,613.9)" />
<use xlink:href="#f3_2" transform="matrix(11,0,0,11,254.4,613.9)" />
<use xlink:href="#f3_g" transform="matrix(11,0,0,11,261.8,613.9)" />
<use xlink:href="#f3_h" transform="matrix(11,0,0,11,268.4,613.9)" />
<use xlink:href="#f3_3" transform="matrix(11,0,0,11,273,613.9)" />
<use xlink:href="#f0_14" transform="matrix(14,0,0,14,278.7,613.9)" />
<use xlink:href="#f0_n" transform="matrix(14,0,0,14,290.6,613.9)" />
<use xlink:href="#f0_o" transform="matrix(14,0,0,14,296.5,613.9)" />
<use xlink:href="#f3_e" transform="matrix(11,0,0,11,246,639.2)" />
<use xlink:href="#f3_2" transform="matrix(11,0,0,11,254.4,639.2)" />
<use xlink:href="#f3_g" transform="matrix(11,0,0,11,261.8,639.2)" />
<use xlink:href="#f3_h" transform="matrix(11,0,0,11,268.4,639.2)" />
<use xlink:href="#f3_3" transform="matrix(11,0,0,11,273,639.2)" />
<use xlink:href="#f3_f" transform="matrix(11,0,0,11,278.6,639.2)" />
<use xlink:href="#f0_j" transform="matrix(14,0,0,14,287.1,639.2)" />
<use xlink:href="#f3_8" transform="matrix(11,0,0,11,297.8,639.2)" />
<use xlink:href="#f3_7" transform="matrix(11,0,0,11,137.7,634.9)" />
<use xlink:href="#f3_8" transform="matrix(11,0,0,11,146.1,634.9)" />
<use xlink:href="#f3_e" transform="matrix(11,0,0,11,246,664.6)" />
<use xlink:href="#f3_2" transform="matrix(11,0,0,11,254.4,664.6)" />
<use xlink:href="#f3_g" transform="matrix(11,0,0,11,261.8,664.6)" />
<use xlink:href="#f3_h" transform="matrix(11,0,0,11,268.4,664.6)" />
<use xlink:href="#f3_3" transform="matrix(11,0,0,11,273,664.6)" />
<use xlink:href="#f3_f" transform="matrix(11,0,0,11,278.6,664.6)" />
<use xlink:href="#f0_j" transform="matrix(14,0,0,14,287.1,664.6)" />
<use xlink:href="#f3_2" transform="matrix(11,0,0,11,297.8,664.6)" />
<use xlink:href="#f3_g" transform="matrix(11,0,0,11,305.2,664.6)" />
<use xlink:href="#f3_h" transform="matrix(11,0,0,11,137.7,660.3)" />
<use xlink:href="#f3_i" transform="matrix(11,0,0,11,142.4,660.3)" />
<use xlink:href="#f3_e" transform="matrix(11,0,0,11,246,689.9)" />
<use xlink:href="#f3_2" transform="matrix(11,0,0,11,254.4,689.9)" />
<use xlink:href="#f3_g" transform="matrix(11,0,0,11,261.8,689.9)" />
<use xlink:href="#f3_h" transform="matrix(11,0,0,11,268.4,689.9)" />
<use xlink:href="#f3_3" transform="matrix(11,0,0,11,273,689.9)" />
<use xlink:href="#f3_f" transform="matrix(11,0,0,11,278.6,689.9)" />
<use xlink:href="#f0_j" transform="matrix(14,0,0,14,287.1,689.9)" />
<use xlink:href="#f3_2" transform="matrix(11,0,0,11,297.8,689.9)" />
<use xlink:href="#f3_k" transform="matrix(11,0,0,11,137.7,685.7)" />
<use xlink:href="#f3_l" transform="matrix(11,0,0,11,145.1,685.7)" />
<use xlink:href="#f3_6" transform="matrix(11,0,0,11,149.7,685.7)" />
<use xlink:href="#f3_2" transform="matrix(11,0,0,11,154.4,685.7)" />
<use xlink:href="#f3_l" transform="matrix(11,0,0,11,161.9,685.7)" />
<use xlink:href="#f3_l" transform="matrix(11,0,0,11,166.5,685.7)" />
<use xlink:href="#f3_m" transform="matrix(11,0,0,11,171.2,685.7)" />
<use xlink:href="#f3_6" transform="matrix(11,0,0,11,178.7,685.7)" />
<use xlink:href="#f3_n" transform="matrix(11,0,0,11,183.4,685.7)" />
<use xlink:href="#f3_e" transform="matrix(11,0,0,11,195.4,685.7)" />
<use xlink:href="#f3_o" transform="matrix(11,0,0,11,203.8,685.7)" />
<use xlink:href="#f3_e" transform="matrix(11,0,0,11,246,711)" />
<use xlink:href="#f3_2" transform="matrix(11,0,0,11,254.4,711)" />
<use xlink:href="#f3_g" transform="matrix(11,0,0,11,261.8,711)" />
<use xlink:href="#f3_h" transform="matrix(11,0,0,11,268.4,711)" />
<use xlink:href="#f3_3" transform="matrix(11,0,0,11,273,711)" />
<use xlink:href="#f3_f" transform="matrix(11,0,0,11,278.6,711)" />
<use xlink:href="#f3_4" transform="matrix(11,0,0,11,287,711)" />
<use xlink:href="#f3_p" transform="matrix(11,0,0,11,291.6,711)" />
<use xlink:href="#f3_8" transform="matrix(11,0,0,11,304.7,711)" />
<use xlink:href="#f3_g" transform="matrix(11,0,0,11,313.1,711)" />
<use xlink:href="#f3_a" transform="matrix(11,0,0,11,137.7,711)" />
<use xlink:href="#f3_8" transform="matrix(11,0,0,11,146.1,711)" />
<use xlink:href="#f3_g" transform="matrix(11,0,0,11,154.5,711)" />
<use xlink:href="#f3_8" transform="matrix(11,0,0,11,161,711)" />
<use xlink:href="#f3_h" transform="matrix(11,0,0,11,169.4,711)" />
<use xlink:href="#f3_3" transform="matrix(11,0,0,11,174,711)" />
<use xlink:href="#f3_8" transform="matrix(11,0,0,11,179.6,711)" />
<use xlink:href="#f3_g" transform="matrix(11,0,0,11,188,711)" />
<use xlink:href="#f3_6" transform="matrix(11,0,0,11,194.6,711)" />
<use xlink:href="#f3_m" transform="matrix(11,0,0,11,199.3,711)" />
<use xlink:href="#f3_g" transform="matrix(11,0,0,11,206.6,711)" />
<use xlink:href="#f3_e" transform="matrix(11,0,0,11,246,735.5)" />
<use xlink:href="#f3_2" transform="matrix(11,0,0,11,254.4,735.5)" />
<use xlink:href="#f3_g" transform="matrix(11,0,0,11,261.8,735.5)" />
<use xlink:href="#f3_h" transform="matrix(11,0,0,11,268.4,735.5)" />
<use xlink:href="#f3_3" transform="matrix(11,0,0,11,273,735.5)" />
<use xlink:href="#f3_f" transform="matrix(11,0,0,11,278.6,735.5)" />
<use xlink:href="#f0_j" transform="matrix(14,0,0,14,287.1,735.5)" />
<use xlink:href="#f3_2" transform="matrix(11,0,0,11,297.8,735.5)" />
<use xlink:href="#f3_a" transform="matrix(11,0,0,11,305.2,735.5)" />
<use xlink:href="#f3_2" transform="matrix(11,0,0,11,137.7,731)" />
<use xlink:href="#f3_l" transform="matrix(11,0,0,11,145.1,731)" />
<use xlink:href="#f3_l" transform="matrix(11,0,0,11,149.7,731)" />
<use xlink:href="#f3_8" transform="matrix(11,0,0,11,154.4,731)" />
<use xlink:href="#f3_g" transform="matrix(11,0,0,11,162.8,731)" />
<use xlink:href="#f3_6" transform="matrix(11,0,0,11,169.4,731)" />
<use xlink:href="#f3_m" transform="matrix(11,0,0,11,174.1,731)" />
<use xlink:href="#f3_g" transform="matrix(11,0,0,11,181.4,731)" />
<use xlink:href="#f3_6" transform="matrix(11,0,0,11,188,731)" />
<use xlink:href="#f3_n" transform="matrix(11,0,0,11,192.7,731)" />
<use xlink:href="#f3_e" transform="matrix(11,0,0,11,204.8,731)" />
<use xlink:href="#f3_g" transform="matrix(11,0,0,11,213.2,731)" />
<use xlink:href="#f3_o" transform="matrix(11,0,0,11,219.7,731)" />
<use xlink:href="#f3_e" transform="matrix(11,0,0,11,246,756.4)" />
<use xlink:href="#f3_2" transform="matrix(11,0,0,11,254.4,756.4)" />
<use xlink:href="#f3_g" transform="matrix(11,0,0,11,261.8,756.4)" />
<use xlink:href="#f3_h" transform="matrix(11,0,0,11,268.4,756.4)" />
<use xlink:href="#f3_3" transform="matrix(11,0,0,11,273,756.4)" />
<use xlink:href="#f3_f" transform="matrix(11,0,0,11,278.6,756.4)" />
<use xlink:href="#f3_q" transform="matrix(11,0,0,11,287,756.4)" />
<use xlink:href="#f3_g" transform="matrix(11,0,0,11,291.7,756.4)" />
<use xlink:href="#f3_s" transform="matrix(11,0,0,11,137.7,756.4)" />
<use xlink:href="#f3_8" transform="matrix(11,0,0,11,146.1,756.4)" />
<use xlink:href="#f3_g" transform="matrix(11,0,0,11,154.5,756.4)" />
<use xlink:href="#f3_8" transform="matrix(11,0,0,11,161,756.4)" />
<use xlink:href="#f3_h" transform="matrix(11,0,0,11,169.4,756.4)" />
<use xlink:href="#f3_3" transform="matrix(11,0,0,11,174,756.4)" />
<use xlink:href="#f3_8" transform="matrix(11,0,0,11,179.6,756.4)" />
<use xlink:href="#f3_g" transform="matrix(11,0,0,11,188,756.4)" />
<use xlink:href="#f3_6" transform="matrix(11,0,0,11,194.6,756.4)" />
<use xlink:href="#f3_m" transform="matrix(11,0,0,11,199.3,756.4)" />
<use xlink:href="#f3_g" transform="matrix(11,0,0,11,206.6,756.4)" />
<use xlink:href="#f1_n" transform="matrix(12,0,0,12,723.8,797.2)" />
<use xlink:href="#f1_d" transform="matrix(12,0,0,12,735,797.2)" />
<use xlink:href="#f1_o" transform="matrix(12,0,0,12,740.3,797.2)" />
<use xlink:href="#f1_4" transform="matrix(12,0,0,12,748.6,797.2)" />
<use xlink:href="#f1_p" transform="matrix(12,0,0,12,759.6,797.2)" />
<use xlink:href="#f1_q" transform="matrix(12,0,0,12,687.7,797.2)" />
<use xlink:href="#f1_14" transform="matrix(12,0,0,12,700.3,797.2)" />
<use xlink:href="#f2_7" transform="matrix(12,0,0,12,137.8,797.2)" />
<use xlink:href="#f2_n" transform="matrix(12,0,0,12,141.9,797.2)" />
<use xlink:href="#f2_4" transform="matrix(12,0,0,12,149.2,797.2)" />
<use xlink:href="#f2_e" transform="matrix(12,0,0,12,172.3,797.2)" />
<use xlink:href="#f2_d" transform="matrix(12,0,0,12,184.3,797.2)" />
<use xlink:href="#f2_p" transform="matrix(12,0,0,12,206.4,797.2)" />
<use xlink:href="#f2_a" transform="matrix(12,0,0,12,219.4,797.2)" />
<use xlink:href="#f2_9" transform="matrix(12,0,0,12,239.7,797.2)" />
<use xlink:href="#f2_w" transform="matrix(12,0,0,12,251.6,797.2)" />
<use xlink:href="#f2_9" transform="matrix(12,0,0,12,263.5,797.2)" />
<use xlink:href="#f2_s" transform="matrix(12,0,0,12,285.5,797.2)" />
<use xlink:href="#f2_9" transform="matrix(12,0,0,12,291.3,797.2)" />
<use xlink:href="#f2_o" transform="matrix(12,0,0,12,303.2,797.2)" />
<use xlink:href="#f2_k" transform="matrix(12,0,0,12,319.5,797.2)" />
<use xlink:href="#f2_7" transform="matrix(12,0,0,12,327,797.2)" />
<use xlink:href="#f2_a" transform="matrix(12,0,0,12,331.1,797.2)" />
<use xlink:href="#f2_g" transform="matrix(12,0,0,12,341.5,797.2)" />
<use xlink:href="#f2_6" transform="matrix(12,0,0,12,363.4,797.2)" />
<use xlink:href="#f2_7" transform="matrix(12,0,0,12,375.5,797.2)" />
<use xlink:href="#f2_8" transform="matrix(12,0,0,12,379.6,797.2)" />
<use xlink:href="#f2_7" transform="matrix(12,0,0,12,392.1,797.2)" />
<use xlink:href="#f2_7" transform="matrix(12,0,0,12,396.1,797.2)" />
<use xlink:href="#f2_p" transform="matrix(12,0,0,12,400.2,797.2)" />
<use xlink:href="#f2_8" transform="matrix(12,0,0,12,413.2,797.2)" />
<use xlink:href="#f2_9" transform="matrix(12,0,0,12,425.7,797.2)" />
<use xlink:href="#f2_6" transform="matrix(12,0,0,12,447.5,797.2)" />
<use xlink:href="#f2_7" transform="matrix(12,0,0,12,459.7,797.2)" />
<use xlink:href="#f2_m" transform="matrix(12,0,0,12,463.8,797.2)" />
<use xlink:href="#f2_t" transform="matrix(12,0,0,12,475.2,797.2)" />
<use xlink:href="#f2_c" transform="matrix(12,0,0,12,487.1,797.2)" />
<use xlink:href="#f2_n" transform="matrix(12,0,0,12,492,797.2)" />
<use xlink:href="#f2_6" transform="matrix(12,0,0,12,509.4,797.2)" />
<use xlink:href="#f2_7" transform="matrix(12,0,0,12,521.5,797.2)" />
<use xlink:href="#f2_3" transform="matrix(12,0,0,12,525.6,797.2)" />
<use xlink:href="#f2_l" transform="matrix(12,0,0,12,536,797.2)" />
<use xlink:href="#f2_m" transform="matrix(12,0,0,12,547.4,797.2)" />
<use xlink:href="#f2_e" transform="matrix(12,0,0,12,568.8,797.2)" />
<use xlink:href="#f2_8" transform="matrix(12,0,0,12,580.8,797.2)" />
<use xlink:href="#f2_7" transform="matrix(12,0,0,12,593.3,797.2)" />
<use xlink:href="#f2_4" transform="matrix(12,0,0,12,597.4,797.2)" />
<use xlink:href="#f2_a" transform="matrix(12,0,0,12,610.3,797.2)" />
<use xlink:href="#f2_k" transform="matrix(12,0,0,12,630.7,797.2)" />
<use xlink:href="#f2_7" transform="matrix(12,0,0,12,638.2,797.2)" />
<use xlink:href="#f2_b" transform="matrix(12,0,0,12,642.3,797.2)" />
<use xlink:href="#f2_n" transform="matrix(12,0,0,12,653.1,797.2)" />
<use xlink:href="#f2_12" transform="matrix(12,0,0,12,670.5,797.2)" />
<use xlink:href="#f2_j" transform="matrix(12,0,0,12,636.2,818.6)" />
<use xlink:href="#f2_6" transform="matrix(12,0,0,12,642,818.6)" />
<use xlink:href="#f2_7" transform="matrix(12,0,0,12,654.2,818.6)" />
<use xlink:href="#f2_n" transform="matrix(12,0,0,12,658.3,818.6)" />
<use xlink:href="#f2_7" transform="matrix(12,0,0,12,665.6,818.6)" />
<use xlink:href="#f2_7" transform="matrix(12,0,0,12,669.7,818.6)" />
<use xlink:href="#f2_c" transform="matrix(12,0,0,12,673.7,818.6)" />
<use xlink:href="#f2_b" transform="matrix(12,0,0,12,678.7,818.6)" />
<use xlink:href="#f2_8" transform="matrix(12,0,0,12,689.6,818.6)" />
<use xlink:href="#f2_9" transform="matrix(12,0,0,12,702.1,818.6)" />
<use xlink:href="#f2_6" transform="matrix(12,0,0,12,719.8,818.6)" />
<use xlink:href="#f2_7" transform="matrix(12,0,0,12,732,818.6)" />
<use xlink:href="#f2_m" transform="matrix(12,0,0,12,736.1,818.6)" />
<use xlink:href="#f2_c" transform="matrix(12,0,0,12,747.6,818.6)" />
<use xlink:href="#f2_k" transform="matrix(12,0,0,12,752.6,818.6)" />
<use xlink:href="#f2_9" transform="matrix(12,0,0,12,760.1,818.6)" />
</g>
</g>
<path d="M128.6,842.6H681.5M128.6,864.8H681.5M128.6,887H681.5M128.6,909.1H681.5M128.6,931.3H681.5M128.6,953.4H681.5M128.6,975.6H681.5M128.9,842.3V975.9M248.1,842.3V975.9m119,-133.6V975.9M486.3,842.3V975.9M681.1,842.3V975.9" class="g1_7" />
<g clip-path="url(#c0_7)">
<g fill="#000000" >
<use xlink:href="#f2_6" transform="matrix(12,0,0,12,625.6,860.1)" />
<use xlink:href="#f2_c" transform="matrix(12,0,0,12,637.8,860.1)" />
<use xlink:href="#f2_k" transform="matrix(12,0,0,12,642.9,860.1)" />
<use xlink:href="#f2_a" transform="matrix(12,0,0,12,650.3,860.1)" />
<use xlink:href="#f2_e" transform="matrix(12,0,0,12,660.7,860.1)" />
<use xlink:href="#f3_2" transform="matrix(11,0,0,11,376,858.8)" />
<use xlink:href="#f3_l" transform="matrix(11,0,0,11,383.3,858.8)" />
<use xlink:href="#f3_l" transform="matrix(11,0,0,11,388,858.8)" />
<use xlink:href="#f3_8" transform="matrix(11,0,0,11,392.8,858.8)" />
<use xlink:href="#f3_g" transform="matrix(11,0,0,11,401.2,858.8)" />
<use xlink:href="#f3_a" transform="matrix(11,0,0,11,256.8,858.8)" />
<use xlink:href="#f3_8" transform="matrix(11,0,0,11,265.2,858.8)" />
<use xlink:href="#f3_g" transform="matrix(11,0,0,11,273.6,858.8)" />
<use xlink:href="#f3_8" transform="matrix(11,0,0,11,280.2,858.8)" />
<use xlink:href="#f3_h" transform="matrix(11,0,0,11,288.6,858.8)" />
<use xlink:href="#f3_3" transform="matrix(11,0,0,11,293.2,858.8)" />
<use xlink:href="#f3_8" transform="matrix(11,0,0,11,298.8,858.8)" />
<use xlink:href="#f3_g" transform="matrix(11,0,0,11,307.2,858.8)" />
<use xlink:href="#f2_3" transform="matrix(12,0,0,12,189.6,860.1)" />
<use xlink:href="#f2_l" transform="matrix(12,0,0,12,200,860.1)" />
<use xlink:href="#f2_c" transform="matrix(12,0,0,12,211.5,860.1)" />
<use xlink:href="#f2_m" transform="matrix(12,0,0,12,216.5,860.1)" />
<use xlink:href="#f2_9" transform="matrix(12,0,0,12,227.9,860.1)" />
<use xlink:href="#f2_e" transform="matrix(12,0,0,12,627.5,882.3)" />
<use xlink:href="#f2_c" transform="matrix(12,0,0,12,639.5,882.3)" />
<use xlink:href="#f2_n" transform="matrix(12,0,0,12,644.5,882.3)" />
<use xlink:href="#f2_f" transform="matrix(12,0,0,12,651.9,882.3)" />
<use xlink:href="#f2_3" transform="matrix(12,0,0,12,662.4,882.3)" />
<use xlink:href="#f3_5" transform="matrix(11,0,0,11,137.7,880.9)" />
<use xlink:href="#f3_8" transform="matrix(11,0,0,11,145.1,880.9)" />
<use xlink:href="#f3_a" transform="matrix(11,0,0,11,153.5,880.9)" />
<use xlink:href="#f3_g" transform="matrix(11,0,0,11,161.9,880.9)" />
<use xlink:href="#f3_h" transform="matrix(11,0,0,11,168.5,880.9)" />
<use xlink:href="#f3_3" transform="matrix(11,0,0,11,173.1,880.9)" />
<use xlink:href="#f3_f" transform="matrix(11,0,0,11,178.7,880.9)" />
<use xlink:href="#f3_4" transform="matrix(11,0,0,11,187.1,880.9)" />
<use xlink:href="#f3_3" transform="matrix(11,0,0,11,191.7,880.9)" />
<use xlink:href="#f2_3" transform="matrix(12,0,0,12,627,904.4)" />
<use xlink:href="#f2_c" transform="matrix(12,0,0,12,637.4,904.4)" />
<use xlink:href="#f2_3" transform="matrix(12,0,0,12,642.4,904.4)" />
<use xlink:href="#f2_i" transform="matrix(12,0,0,12,652.8,904.4)" />
<use xlink:href="#f2_3" transform="matrix(12,0,0,12,662.4,904.4)" />
<use xlink:href="#f3_4" transform="matrix(11,0,0,11,137.7,903.1)" />
<use xlink:href="#f3_a" transform="matrix(11,0,0,11,142.4,903.1)" />
<use xlink:href="#f3_5" transform="matrix(11,0,0,11,150.8,903.1)" />
<use xlink:href="#f3_l" transform="matrix(11,0,0,11,158.1,903.1)" />
<use xlink:href="#f3_f" transform="matrix(11,0,0,11,162.8,903.1)" />
<use xlink:href="#f3_4" transform="matrix(11,0,0,11,171.2,903.1)" />
<use xlink:href="#f3_3" transform="matrix(11,0,0,11,176,903.1)" />
<use xlink:href="#f2_g" transform="matrix(12,0,0,12,624.6,926.6)" />
<use xlink:href="#f2_c" transform="matrix(12,0,0,12,636.5,926.6)" />
<use xlink:href="#f2_a" transform="matrix(12,0,0,12,641.5,926.6)" />
<use xlink:href="#f2_f" transform="matrix(12,0,0,12,651.9,926.6)" />
<use xlink:href="#f2_3" transform="matrix(12,0,0,12,662.4,926.6)" />
<use xlink:href="#f3_x" transform="matrix(11,0,0,11,137.7,925.2)" />
<use xlink:href="#f3_f" transform="matrix(11,0,0,11,146.1,925.2)" />
<use xlink:href="#f3_4" transform="matrix(11,0,0,11,154.5,925.2)" />
<use xlink:href="#f3_3" transform="matrix(11,0,0,11,159.2,925.2)" />
<use xlink:href="#f2_1e" transform="matrix(12,0,0,12,625,948.8)" />
<use xlink:href="#f2_7" transform="matrix(12,0,0,12,634.9,948.8)" />
<use xlink:href="#f2_m" transform="matrix(12,0,0,12,639,948.8)" />
<use xlink:href="#f2_9" transform="matrix(12,0,0,12,650.5,948.8)" />
<use xlink:href="#f2_3" transform="matrix(12,0,0,12,662.4,948.8)" />
<use xlink:href="#f3_e" transform="matrix(11,0,0,11,137.7,947.4)" />
<use xlink:href="#f3_4" transform="matrix(11,0,0,11,146.1,947.4)" />
<use xlink:href="#f3_g" transform="matrix(11,0,0,11,150.8,947.4)" />
<use xlink:href="#f3_h" transform="matrix(11,0,0,11,157.2,947.4)" />
<use xlink:href="#f3_3" transform="matrix(11,0,0,11,161.9,947.4)" />
<use xlink:href="#f3_4" transform="matrix(11,0,0,11,167.5,947.4)" />
<use xlink:href="#f3_v" transform="matrix(11,0,0,11,172.3,947.4)" />
<use xlink:href="#f3_f" transform="matrix(11,0,0,11,180.7,947.4)" />
<use xlink:href="#f3_4" transform="matrix(11,0,0,11,188.9,947.4)" />
<use xlink:href="#f3_3" transform="matrix(11,0,0,11,193.6,947.4)" />
<use xlink:href="#f2_6" transform="matrix(12,0,0,12,622.9,970.9)" />
<use xlink:href="#f2_c" transform="matrix(12,0,0,12,634.9,970.9)" />
<use xlink:href="#f2_a" transform="matrix(12,0,0,12,640,970.9)" />
<use xlink:href="#f2_e" transform="matrix(12,0,0,12,650.3,970.9)" />
<use xlink:href="#f2_3" transform="matrix(12,0,0,12,662.4,970.9)" />
<use xlink:href="#f3_5" transform="matrix(11,0,0,11,137.7,969.5)" />
<use xlink:href="#f3_8" transform="matrix(11,0,0,11,145.1,969.5)" />
<use xlink:href="#f3_a" transform="matrix(11,0,0,11,153.5,969.5)" />
<use xlink:href="#f3_h" transform="matrix(11,0,0,11,161.9,969.5)" />
<use xlink:href="#f3_3" transform="matrix(11,0,0,11,166.5,969.5)" />
<use xlink:href="#f3_4" transform="matrix(11,0,0,11,172.1,969.5)" />
<use xlink:href="#f3_v" transform="matrix(11,0,0,11,176.9,969.5)" />
<use xlink:href="#f3_f" transform="matrix(11,0,0,11,185.3,969.5)" />
<use xlink:href="#f3_4" transform="matrix(11,0,0,11,193.7,969.5)" />
<use xlink:href="#f3_3" transform="matrix(11,0,0,11,198.3,969.5)" />
</g>
<g fill="#0000FF" >
<use xlink:href="#f2_3" transform="matrix(12,0,0,12,649.3,1011.4)" />
<use xlink:href="#f2_7" transform="matrix(12,0,0,12,660,1011.4)" />
<use xlink:href="#f2_k" transform="matrix(12,0,0,12,664.5,1011.4)" />
<use xlink:href="#f2_a" transform="matrix(12,0,0,12,672.3,1011.4)" />
<use xlink:href="#f2_e" transform="matrix(12,0,0,12,683.1,1011.4)" />
<use xlink:href="#f2_3" transform="matrix(12,0,0,12,695.5,1011.4)" />
<use xlink:href="#f2_e" transform="matrix(12,0,0,12,712.4,1011.4)" />
<use xlink:href="#f2_c" transform="matrix(12,0,0,12,724.9,1011.4)" />
<use xlink:href="#f2_f" transform="matrix(12,0,0,12,730.3,1011.4)" />
<use xlink:href="#f2_c" transform="matrix(12,0,0,12,741.2,1011.4)" />
<use xlink:href="#f2_4" transform="matrix(12,0,0,12,746.6,1011.4)" />
<use xlink:href="#f2_e" transform="matrix(12,0,0,12,759.8,1011.4)" />
</g>
</g>
<path d="M642.9,1013.2H772.1" class="g2_7" />
<g clip-path="url(#c2_7)">
<path d="M642.4,1013.2h5.8" class="g2_7" />
</g>
<g clip-path="url(#c0_7)">
<g fill="#0000FF" >
<use xlink:href="#f2_13" transform="matrix(12,0,0,12,618.8,1011.4)" />
<use xlink:href="#f2_1f" transform="matrix(12,0,0,12,630.6,1011.4)" />
</g>
</g>
<path d="M618.8,1013.2h23.6" class="g2_7" />
<g clip-path="url(#c0_7)">
<g fill="#000000" >
<use xlink:href="#f0_1b" transform="matrix(16,0,0,16,635.9,1103.4)" />
<use xlink:href="#f0_4" transform="matrix(16,0,0,16,651.4,1103.4)" />
<use xlink:href="#f0_d" transform="matrix(16,0,0,16,658.3,1103.4)" />
<use xlink:href="#f0_t" transform="matrix(16,0,0,16,671.8,1103.4)" />
<use xlink:href="#f0_e" transform="matrix(16,0,0,16,686.2,1103.4)" />
<use xlink:href="#f0_1e" transform="matrix(16,0,0,16,692.7,1103.4)" />
<use xlink:href="#f0_1b" transform="matrix(16,0,0,16,707.5,1103.4)" />
<use xlink:href="#f0_4" transform="matrix(16,0,0,16,723.1,1103.4)" />
<use xlink:href="#f0_7" transform="matrix(16,0,0,16,729.9,1103.4)" />
<use xlink:href="#f0_4" transform="matrix(16,0,0,16,738.3,1103.4)" />
<use xlink:href="#f0_8" transform="matrix(16,0,0,16,745,1103.4)" />
<use xlink:href="#f0_9" transform="matrix(16,0,0,16,757.4,1103.4)" />
<use xlink:href="#f2_d" transform="matrix(12,0,0,12,138.3,1125.7)" />
<use xlink:href="#f2_3" transform="matrix(12,0,0,12,150.5,1125.7)" />
<use xlink:href="#f2_3" transform="matrix(12,0,0,12,160.9,1125.7)" />
<use xlink:href="#f2_6" transform="matrix(12,0,0,12,179.2,1125.7)" />
<use xlink:href="#f2_7" transform="matrix(12,0,0,12,191.4,1125.7)" />
<use xlink:href="#f2_m" transform="matrix(12,0,0,12,195.5,1125.7)" />
<use xlink:href="#f2_c" transform="matrix(12,0,0,12,206.9,1125.7)" />
<use xlink:href="#f2_k" transform="matrix(12,0,0,12,212,1125.7)" />
<use xlink:href="#f2_9" transform="matrix(12,0,0,12,219.4,1125.7)" />
<use xlink:href="#f2_e" transform="matrix(12,0,0,12,239.1,1125.7)" />
<use xlink:href="#f2_7" transform="matrix(12,0,0,12,251.2,1125.7)" />
<use xlink:href="#f2_7" transform="matrix(12,0,0,12,255.1,1125.7)" />
<use xlink:href="#f2_w" transform="matrix(12,0,0,12,259.2,1125.7)" />
<use xlink:href="#f2_9" transform="matrix(12,0,0,12,271.1,1125.7)" />
<use xlink:href="#f2_e" transform="matrix(12,0,0,12,291,1125.7)" />
<use xlink:href="#f2_d" transform="matrix(12,0,0,12,303,1125.7)" />
<use xlink:href="#f2_a" transform="matrix(12,0,0,12,323,1125.7)" />
<use xlink:href="#f2_c" transform="matrix(12,0,0,12,333.4,1125.7)" />
<use xlink:href="#f2_i" transform="matrix(12,0,0,12,338.4,1125.7)" />
<use xlink:href="#f2_o" transform="matrix(12,0,0,12,348,1125.7)" />
<use xlink:href="#f2_3" transform="matrix(12,0,0,12,354.3,1125.7)" />
<use xlink:href="#f2_4" transform="matrix(12,0,0,12,372.6,1125.7)" />
<use xlink:href="#f2_7" transform="matrix(12,0,0,12,385.6,1125.7)" />
<use xlink:href="#f2_c" transform="matrix(12,0,0,12,389.5,1125.7)" />
<use xlink:href="#f2_e" transform="matrix(12,0,0,12,402.3,1125.7)" />
<use xlink:href="#f2_q" transform="matrix(12,0,0,12,414.4,1125.7)" />
<use xlink:href="#f2_g" transform="matrix(12,0,0,12,424.4,1125.7)" />
<use xlink:href="#f2_c" transform="matrix(12,0,0,12,436.4,1125.7)" />
<use xlink:href="#f2_7" transform="matrix(12,0,0,12,441.4,1125.7)" />
<use xlink:href="#f2_8" transform="matrix(12,0,0,12,445.4,1125.7)" />
<use xlink:href="#f2_6" transform="matrix(12,0,0,12,465.8,1125.7)" />
<use xlink:href="#f2_e" transform="matrix(12,0,0,12,478,1125.7)" />
<use xlink:href="#f2_c" transform="matrix(12,0,0,12,490.1,1125.7)" />
<use xlink:href="#f2_k" transform="matrix(12,0,0,12,495.1,1125.7)" />
<use xlink:href="#f2_9" transform="matrix(12,0,0,12,502.6,1125.7)" />
<use xlink:href="#f2_n" transform="matrix(12,0,0,12,514.5,1125.7)" />
<use xlink:href="#f2_e" transform="matrix(12,0,0,12,521.8,1125.7)" />
<use xlink:href="#f2_9" transform="matrix(12,0,0,12,533.9,1125.7)" />
<use xlink:href="#f2_4" transform="matrix(12,0,0,12,545.8,1125.7)" />
<use xlink:href="#f2_6" transform="matrix(12,0,0,12,566.5,1125.7)" />
<use xlink:href="#f2_7" transform="matrix(12,0,0,12,578.7,1125.7)" />
<use xlink:href="#f2_k" transform="matrix(12,0,0,12,582.8,1125.7)" />
<use xlink:href="#f2_7" transform="matrix(12,0,0,12,590.3,1125.7)" />
<use xlink:href="#f2_a" transform="matrix(12,0,0,12,594.4,1125.7)" />
<use xlink:href="#f2_g" transform="matrix(12,0,0,12,604.8,1125.7)" />
<use xlink:href="#f2_6" transform="matrix(12,0,0,12,624.5,1125.7)" />
<use xlink:href="#f2_7" transform="matrix(12,0,0,12,636.5,1125.7)" />
<use xlink:href="#f2_3" transform="matrix(12,0,0,12,640.6,1125.7)" />
<use xlink:href="#f2_l" transform="matrix(12,0,0,12,651,1125.7)" />
<use xlink:href="#f2_m" transform="matrix(12,0,0,12,662.5,1125.7)" />
<use xlink:href="#f2_e" transform="matrix(12,0,0,12,681.8,1125.7)" />
<use xlink:href="#f2_8" transform="matrix(12,0,0,12,693.8,1125.7)" />
<use xlink:href="#f2_7" transform="matrix(12,0,0,12,706.3,1125.7)" />
<use xlink:href="#f2_4" transform="matrix(12,0,0,12,710.4,1125.7)" />
<use xlink:href="#f2_a" transform="matrix(12,0,0,12,723.4,1125.7)" />
<use xlink:href="#f2_k" transform="matrix(12,0,0,12,741.5,1125.7)" />
<use xlink:href="#f2_7" transform="matrix(12,0,0,12,749,1125.7)" />
<use xlink:href="#f2_b" transform="matrix(12,0,0,12,753.1,1125.7)" />
<use xlink:href="#f2_n" transform="matrix(12,0,0,12,763.9,1125.7)" />
<use xlink:href="#f2_j" transform="matrix(12,0,0,12,620.4,1147.1)" />
<use xlink:href="#f2_6" transform="matrix(12,0,0,12,626.2,1147.1)" />
<use xlink:href="#f2_7" transform="matrix(12,0,0,12,638.5,1147.1)" />
<use xlink:href="#f2_c" transform="matrix(12,0,0,12,642.6,1147.1)" />
<use xlink:href="#f2_t" transform="matrix(12,0,0,12,647.5,1147.1)" />
<use xlink:href="#f2_8" transform="matrix(12,0,0,12,659.4,1147.1)" />
<use xlink:href="#f2_3" transform="matrix(12,0,0,12,677.8,1147.1)" />
<use xlink:href="#f2_3" transform="matrix(12,0,0,12,688.2,1147.1)" />
<use xlink:href="#f2_i" transform="matrix(12,0,0,12,698.6,1147.1)" />
<use xlink:href="#f2_f" transform="matrix(12,0,0,12,708.2,1147.1)" />
<use xlink:href="#f2_4" transform="matrix(12,0,0,12,724.6,1147.1)" />
<use xlink:href="#f2_c" transform="matrix(12,0,0,12,737.5,1147.1)" />
<use xlink:href="#f2_8" transform="matrix(12,0,0,12,742.6,1147.1)" />
<use xlink:href="#f2_7" transform="matrix(12,0,0,12,754.9,1147.1)" />
<use xlink:href="#f2_4" transform="matrix(12,0,0,12,759,1147.1)" />
</g>
</g>
<image preserveAspectRatio="none" x="138" y="402" width="61" height="62" xlink:href="img/1.png" />
<defs>
<path d="M235,-20c0,0,-31,0,-51,19c0,0,-21,18,-21,50c0,0,0,65,39,120c0,0,39,54,125,109c0,0,56,35,87,56c0,0,32,20,46,33c0,0,79,45,79,143c0,0,0,27,-7,65c0,0,-8,39,-27,49c0,0,-19,10,-85,10H110c0,0,-36,0,-53,21c0,0,-17,22,-25,71c0,0,-7,49,-7,134c0,0,0,62,27,122c0,0,8,15,8,34c0,0,0,23,-35,37c0,0,-21,7,-30,29c0,0,-9,22,-9,72c0,0,0,24,10,46c0,0,8,22,25,38c0,0,16,16,26,16c0,0,17,0,17,-14c0,0,0,-9,7,-17c0,0,7,-8,34,-14c0,0,65,-15,81,-26c0,0,15,-10,15,-31c0,0,0,-15,-15,-38c0,0,-15,-22,-33,-53c0,0,-19,-30,-34,-67c0,0,-15,-36,-15,-79c0,0,0,-43,14,-56c0,0,15,-14,54,-14H518c0,0,39,0,63,-17c0,0,23,-16,33,-53c0,0,10,-36,17,-89c0,0,6,-52,6,-93c0,0,0,-99,-9,-144c0,0,-9,-44,-40,-80c0,0,-31,-36,-110,-86c0,0,-112,-71,-138,-95c0,0,-26,-23,-36,-44c0,0,-9,-20,-9,-43c0,0,0,-11,5,-26c0,0,6,-15,6,-26c0,0,0,-32,-20,-50c0,0,-20,-19,-51,-19Z" 
id="f0_6"
transform="scale(0.001,-0.001)" />

<path d="M204,-8c0,0,-9,0,-11,5c0,0,-2,5,-2,22V549c0,0,0,40,-4,56c0,0,-4,16,-15,22c0,0,-10,7,-39,7H90c0,0,-33,0,-52,33c0,0,-19,33,-19,90c0,0,0,53,15,98c0,0,16,44,35,44c0,0,12,0,12,-13V872c0,0,0,-27,31,-27h42c0,0,79,0,103,-20c0,0,23,-19,23,-83V67c0,0,0,-16,-8,-26c0,0,-9,-10,-33,-30c0,0,-25,-19,-35,-19Z" 
id="f0_e"
transform="scale(0.001,-0.001)" />

<path d="M423,-13c0,0,-9,0,-14,7c0,0,-5,6,-10,23c0,0,-13,51,-37,108c0,0,-25,58,-55,101c0,0,-21,-37,-51,-115C256,111,225,34,216,0H12L55,212h99c0,0,51,0,72,12c0,0,20,12,40,58c0,0,20,46,18,98V543c0,0,0,46,-7,61c0,0,-7,15,-23,22c0,0,-17,8,-50,8H189c0,0,-76,0,-76,115c0,0,0,56,16,103c0,0,16,47,33,47c0,0,14,0,14,-15c0,0,0,-17,9,-28c0,0,10,-11,40,-11h21c0,0,60,0,85,-8c0,0,25,-9,39,-26c0,0,13,-18,13,-49c0,0,0,-20,-4,-43c0,0,-5,-23,-10,-53c0,0,-6,-31,-10,-71c0,0,-5,-41,-5,-97c0,0,0,-150,62,-269c0,0,28,-58,38,-90l9,-65c0,0,0,-27,-13,-57c0,0,-13,-30,-27,-30Z" 
id="f0_7"
transform="scale(0.001,-0.001)" />

<path d="M554,-8c0,0,-9,0,-11,6c0,0,-2,5,-2,24V548c0,0,0,38,-5,56c0,0,-4,18,-15,25c0,0,-12,7,-41,7H90c0,0,-33,0,-52,33c0,0,-19,33,-19,90c0,0,0,54,15,97c0,0,14,43,30,43c0,0,17,0,17,-13V872c0,0,0,-9,7,-18c0,0,7,-9,27,-9H512c0,0,54,0,77,-8c0,0,23,-9,33,-28c0,0,9,-20,9,-67V81c0,0,0,-31,-27,-53L583,9C583,9,563,-8,554,-8Z" 
id="f0_8"
transform="scale(0.001,-0.001)" />

<path d="M721,-14c0,0,-12,0,-12,9l4,28c0,0,17,82,17,338c0,0,0,105,-11,163c0,0,-11,58,-35,84c0,0,-25,26,-83,26H315c0,0,-43,-39,-67,-90c0,0,-25,-51,-25,-104c0,0,0,-59,17,-104c0,0,17,-45,35,-78c0,0,18,-34,18,-44c0,0,0,-26,-20,-95C273,119,252,50,231,0H26L87,214h69c0,0,23,0,23,14l-7,15c0,0,-15,27,-27,68c0,0,-11,41,-11,83c0,0,0,68,25,124c0,0,25,57,86,116H200c0,0,-45,0,-71,32c0,0,-27,33,-27,94c0,0,0,49,17,93c0,0,16,43,32,43c0,0,17,0,17,-10V869c0,0,0,-24,27,-24H637c0,0,73,0,103,-18c0,0,30,-17,46,-62c0,0,17,-46,24,-124c0,0,8,-78,8,-214V338c0,0,0,-279,-27,-311c0,0,-14,-16,-37,-28c0,0,-23,-13,-33,-13Z" 
id="f0_b"
transform="scale(0.001,-0.001)" />

<path d="M345,75c0,0,50,0,110,26V351l-63,-2c0,0,-72,-3,-100,-38c0,0,-28,-35,-28,-113c0,0,0,-63,22,-93c0,0,23,-30,59,-30ZM266,-14c0,0,-217,0,-217,208c0,0,0,79,32,126c0,0,32,48,93,71c0,0,60,22,190,25l91,2V521c0,0,0,126,-104,126c0,0,-62,0,-140,-39L183,521H134V691c0,0,112,17,165,21c0,0,53,5,108,5c0,0,264,0,264,-194V67L741,49V0H483L466,54C466,54,408,14,361,0c0,0,-47,-14,-95,-14Z" 
id="f0_q"
transform="scale(0.001,-0.001)" />

<path d="M438,65c0,0,131,0,131,293c0,0,0,279,-130,279c0,0,-69,0,-127,-29V80c0,0,60,-15,126,-15ZM20,-325v50l76,18V634L19,652v49H304l1,-36c0,0,80,55,194,55c0,0,146,0,218,-86c0,0,71,-86,71,-271c0,0,0,-183,-83,-280c0,0,-83,-97,-238,-97c0,0,-79,0,-160,19c0,0,5,-48,5,-109V-257l103,-18v-50Z" 
id="f0_r"
transform="scale(0.001,-0.001)" />

<path d="M41,0V49l91,18V634L41,652v49H336l8,-145c0,0,80,89,144,128c0,0,64,40,117,40h40V468H604l-45,94c0,0,-47,0,-106,-21c0,0,-60,-20,-105,-48V67L460,49V0Z" 
id="f0_o"
transform="scale(0.001,-0.001)" />

<path d="M425,-14c0,0,-187,0,-280,90c0,0,-93,90,-93,276c0,0,0,115,42,198c0,0,43,82,121,126c0,0,78,44,182,44c0,0,104,0,227,-26V486H571L539,609c0,0,-25,19,-50,26c0,0,-24,7,-65,7c0,0,-44,0,-79,-35c0,0,-36,-35,-56,-98c0,0,-20,-64,-20,-153c0,0,0,-150,47,-214c0,0,47,-64,148,-64c0,0,103,0,176,21V42C640,42,606,15,547,0c0,0,-59,-14,-122,-14Z" 
id="f0_l"
transform="scale(0.001,-0.001)" />

<path d="M327,-14c0,0,-101,0,-156,45c0,0,-55,45,-55,131V624H25v48l108,29l87,159H332V701H480V624H332V176c0,0,0,-49,20,-73c0,0,20,-25,53,-25c0,0,40,0,97,12V26c0,0,-22,-15,-76,-27c0,0,-55,-13,-99,-13Z" 
id="f0_s"
transform="scale(0.001,-0.001)" />

<path d="M34,0V49l76,18V634L38,652v49H325V67L402,49V0ZM217,831c0,0,-48,0,-81,33c0,0,-34,33,-34,82c0,0,0,48,34,81c0,0,34,33,81,33c0,0,48,0,81,-33c0,0,33,-33,33,-81c0,0,0,-47,-33,-81c0,0,-32,-34,-81,-34Z" 
id="f0_n"
transform="scale(0.001,-0.001)" />

<path d="M248,0L521,658H66v429H313V836l493,-1V716L504,0Z" 
id="f1_n"
transform="scale(0.001,-0.001)" />

<path d="M102,250V836H349V351L102,250Z" 
id="f1_d"
transform="scale(0.001,-0.001)" />

<path d="M154,-13c0,0,-38,0,-85,9V198c0,0,58,-15,103,-15c0,0,84,0,118,60c0,0,35,61,35,206c0,0,0,66,-7,105c0,0,-6,39,-24,63c0,0,-17,25,-44,33c0,0,-27,8,-73,8H66V836H225c0,0,198,0,275,-115c0,0,56,-84,65,-264c0,0,3,-55,3,-148c0,0,0,-177,71,-309L393,1c0,0,-53,130,-54,141c0,0,-28,-90,-65,-123c0,0,-38,-32,-120,-32Z" 
id="f1_o"
transform="scale(0.001,-0.001)" />

<path d="M534,0V425c0,0,0,109,-41,171c0,0,-41,62,-140,62H66V836H352c0,0,99,0,174,-20c0,0,75,-20,123,-55c0,0,48,-35,78,-87c0,0,30,-53,42,-113c0,0,12,-60,12,-136V0Z" 
id="f1_4"
transform="scale(0.001,-0.001)" />

<path d="M173,-6C173,-6,61,-6,15,9V177c0,0,73,-10,82,-10c0,0,37,0,52,30c0,0,14,29,14,116V658H18V836H516c0,0,262,0,341,-145c0,0,48,-89,48,-242V0H658V450c0,0,0,131,-37,171c0,0,-34,37,-105,37H411V313c0,0,0,-189,-67,-258C344,55,285,-6,173,-6Z" 
id="f1_p"
transform="scale(0.001,-0.001)" />

<path d="M507,561c0,0,76,0,114,49c0,0,38,49,38,146c0,0,0,97,-38,146c0,0,-38,49,-114,49c0,0,-75,0,-113,-49c0,0,-38,-49,-38,-146c0,0,0,-97,38,-146c0,0,38,-49,113,-49ZM443,-20c0,0,-78,0,-149,11c0,0,-72,10,-140,33V231c0,0,68,-33,131,-49c0,0,62,-16,123,-16c0,0,129,0,200,72c0,0,72,71,84,211c0,0,-50,-37,-108,-56c0,0,-57,-18,-124,-18c0,0,-171,0,-276,99C184,474,79,574,79,736c0,0,0,180,117,288c0,0,117,108,313,108c0,0,217,0,337,-147c0,0,119,-147,119,-415c0,0,0,-276,-139,-434C826,136,686,-20,443,-20Z" 
id="f1_12"
transform="scale(0.001,-0.001)" />

<path d="M102,312V836H241V369L102,312Z" 
id="f2_7"
transform="scale(0.001,-0.001)" />

<path d="M66,0V106H322c0,0,75,0,127,23c0,0,53,23,82,67c0,0,29,43,42,98c0,0,13,54,13,124c0,0,0,70,-13,124c0,0,-13,55,-42,98c0,0,-29,44,-82,67c0,0,-52,23,-127,23H66V836H322c0,0,87,0,157,-24c0,0,70,-24,115,-64c0,0,45,-40,74,-94c0,0,30,-55,43,-113c0,0,13,-59,13,-123c0,0,0,-64,-13,-123c0,0,-13,-58,-43,-113c0,0,-29,-54,-74,-94C594,88,549,48,479,24C479,24,409,0,322,0Z" 
id="f2_i"
transform="scale(0.001,-0.001)" />

<path d="M66,0V107H554V452c0,0,0,56,-4,93c0,0,-4,37,-18,75c0,0,-14,38,-40,60c0,0,-26,22,-71,36c0,0,-45,13,-110,13H66V836H312c0,0,91,0,157,-17c0,0,66,-17,109,-49c0,0,44,-32,69,-84c0,0,26,-52,36,-114c0,0,10,-62,10,-147V107H817V0Z" 
id="f2_f"
transform="scale(0.001,-0.001)" />

<path d="M287,0L589,729H66v386H205V836l547,-1l-2,-82L433,0Z" 
id="f2_3"
transform="scale(0.001,-0.001)" />

<path d="M736,107V473c0,0,0,147,-48,202c0,0,-49,54,-187,54H278V107ZM139,0V836H499c0,0,105,0,177,-22c0,0,72,-21,116,-69c0,0,44,-49,64,-119c0,0,19,-71,19,-174V0Z" 
id="f2_6"
transform="scale(0.001,-0.001)" />

<path d="M180,0L66,836H203L258,443c0,0,36,1,64,6c0,0,28,6,49,18c0,0,20,12,35,26c0,0,15,13,26,36c0,0,11,24,17,44c0,0,7,20,12,55c0,0,6,34,9,60c0,0,3,26,8,71c0,0,4,45,9,77H610c0,0,-13,-194,-31,-271c0,0,-31,-127,-111,-179c0,0,-71,-45,-196,-50L304,107c0,0,73,0,130,5c0,0,56,6,111,21c0,0,54,15,94,40c0,0,40,25,77,64c0,0,37,39,63,94c0,0,25,54,46,128c0,0,21,73,34,166c0,0,13,94,20,211h138c0,0,-14,-124,-29,-218c0,0,-16,-94,-39,-179c0,0,-22,-85,-50,-146c0,0,-28,-61,-68,-112c0,0,-39,-51,-87,-84C744,97,696,65,632,42C632,42,568,19,492,10C492,10,417,0,320,0Z" 
id="f2_4"
transform="scale(0.001,-0.001)" />

<path d="M163,0V190H321V0Z" 
id="f2_j"
transform="scale(0.001,-0.001)" />

<path d="M66,0V106H564L66,836H228L516,413c0,0,3,2,9,6c0,0,17,13,27,21c0,0,10,8,26,27c0,0,17,20,26,40c0,0,9,21,16,54c0,0,7,34,7,75V836H764V698c0,0,0,-55,-7,-102c0,0,-7,-47,-16,-79c0,0,-10,-33,-27,-62c0,0,-18,-29,-32,-46c0,0,-14,-17,-37,-35c0,0,-22,-17,-36,-25c0,0,-13,-8,-36,-20L767,53V0Z" 
id="f2_b"
transform="scale(0.001,-0.001)" />

<path d="M154,0V454l138,56V0ZM722,0V454c0,0,0,161,-49,218c0,0,-48,57,-186,57H139V836H485c0,0,207,0,291,-93c0,0,83,-94,83,-318V0Z" 
id="f2_9"
transform="scale(0.001,-0.001)" />

<path d="M71,-141V-15L289,62L66,836H210L416,109c0,0,99,42,153,98c0,0,53,56,80,155c0,0,26,98,26,262V836H817V624c0,0,0,-88,-7,-154c0,0,-7,-67,-25,-132c0,0,-18,-66,-51,-116c0,0,-33,-51,-84,-98c0,0,-50,-48,-123,-87c0,0,-72,-39,-169,-74L71,-141Z" 
id="f2_l"
transform="scale(0.001,-0.001)" />

<path d="M585,0V426c0,0,0,54,-8,98c0,0,-8,44,-27,83c0,0,-19,40,-49,66c0,0,-30,26,-77,41c0,0,-47,15,-108,15H66V836H315c0,0,94,0,166,-20c0,0,71,-20,116,-54c0,0,46,-35,75,-88c0,0,28,-52,40,-112c0,0,12,-60,12,-137V0Z" 
id="f2_a"
transform="scale(0.001,-0.001)" />

<path d="M114,0l60,312c0,0,2,12,8,39c0,0,6,27,7,37c0,0,2,11,5,30c0,0,2,19,4,33c0,0,1,15,1,31c0,0,0,48,-35,146c0,0,-35,98,-98,208H228c0,0,3,-8,27,-67c0,0,25,-58,41,-117c0,0,21,53,50,90c0,0,29,37,57,57c0,0,29,21,65,32c0,0,37,11,65,14c0,0,28,3,67,3c0,0,300,0,300,-396V0H480V106H761V452c0,0,0,146,-46,215c0,0,-45,70,-118,70c0,0,-134,0,-198,-119c0,0,-36,-68,-67,-222c0,0,-2,-10,-6,-27L253,0Z" 
id="f2_8"
transform="scale(0.001,-0.001)" />

<path d="M543,-317V369c0,0,0,85,-8,143c0,0,-8,58,-27,101c0,0,-18,44,-51,69c0,0,-33,24,-80,36c0,0,-48,11,-117,11H66V836H257c0,0,125,0,205,-23c0,0,80,-23,130,-79c0,0,50,-56,70,-143c0,0,20,-86,20,-222V-317Z" 
id="f2_2"
transform="scale(0.001,-0.001)" />

<path d="M139,0V836H278V0Z" 
id="f2_c"
transform="scale(0.001,-0.001)" />

<path d="M112,-5c0,0,-39,0,-97,11V113c0,0,48,-10,77,-10c0,0,53,0,70,42c0,0,17,43,17,164V729H50V836H501c0,0,107,0,179,-25c0,0,72,-25,112,-77c0,0,40,-51,57,-118c0,0,16,-67,16,-164V0H726V454c0,0,0,55,-3,92c0,0,-4,37,-17,75c0,0,-14,38,-38,59c0,0,-24,22,-65,36c0,0,-42,13,-102,13H318V309c0,0,0,-160,-46,-237C272,72,226,-5,112,-5Z" 
id="f2_e"
transform="scale(0.001,-0.001)" />

<path d="M139,0V138c0,0,0,61,8,112c0,0,7,52,19,87c0,0,11,36,30,66c0,0,19,31,35,49c0,0,17,19,41,35c0,0,25,17,41,25c0,0,17,7,40,17L141,836H303L613,388c0,0,20,10,33,18c0,0,13,8,34,28c0,0,20,20,33,44c0,0,13,25,22,66c0,0,10,41,10,92V836H882V698c0,0,0,-61,-7,-112c0,0,-6,-52,-18,-88c0,0,-12,-36,-30,-66c0,0,-19,-30,-36,-49c0,0,-17,-18,-41,-34c0,0,-24,-17,-40,-25c0,0,-17,-8,-41,-17L882,0H720L409,448c0,0,-21,-11,-34,-19c0,0,-13,-8,-34,-27c0,0,-21,-20,-34,-44c0,0,-12,-25,-22,-66c0,0,-9,-41,-9,-92V0Z" 
id="f2_d"
transform="scale(0.001,-0.001)" />

<path d="M522,-20c0,0,-196,0,-290,99c0,0,-94,100,-94,324V836H276V397c0,0,0,-86,16,-147c0,0,17,-60,50,-94c0,0,34,-34,77,-49c0,0,43,-15,103,-15c0,0,59,0,102,15c0,0,44,15,77,49c0,0,33,34,50,94c0,0,17,61,17,147c0,0,0,84,-8,143c0,0,-7,58,-25,105c0,0,-17,47,-51,69c0,0,-33,23,-83,23c0,0,-50,0,-119,-22V821c0,0,85,23,150,23c0,0,76,0,130,-30c0,0,53,-31,85,-90c0,0,31,-59,45,-138c0,0,13,-78,13,-183c0,0,0,-224,-93,-324c0,0,-94,-99,-290,-99Z" 
id="f2_w"
transform="scale(0.001,-0.001)" />

<path d="M74,357V479H476V357Z" 
id="f2_12"
transform="scale(0.001,-0.001)" />

<path d="M495,413c0,0,0,133,-34,190c0,0,-34,57,-105,57c0,0,-78,0,-119,-63c0,0,-42,-62,-42,-184ZM374,-14c0,0,-163,0,-239,87c0,0,-75,88,-75,283c0,0,0,183,77,273c0,0,76,91,219,91c0,0,269,0,269,-306V353H194V340c0,0,0,-103,23,-160c0,0,22,-57,70,-87c0,0,47,-29,124,-29c0,0,40,0,96,6c0,0,55,7,91,15V43C598,43,562,20,500,3c0,0,-61,-17,-126,-17Z" 
id="f3_2"
transform="scale(0.001,-0.001)" />

<path d="M278,-14c0,0,-52,0,-115,11c0,0,-63,10,-99,23V193H98L134,95c0,0,56,-50,146,-50c0,0,144,0,144,123c0,0,0,91,-114,130l-66,21c0,0,-75,25,-110,50c0,0,-34,26,-53,63c0,0,-18,36,-18,89c0,0,0,92,63,145c0,0,63,54,170,54c0,0,77,0,193,-23V544H454l-32,81c0,0,-39,35,-124,35c0,0,-61,0,-92,-30c0,0,-32,-30,-32,-80c0,0,0,-43,29,-72c0,0,28,-29,86,-48c0,0,110,-38,144,-55c0,0,33,-17,57,-42c0,0,23,-25,36,-57c0,0,13,-32,13,-79c0,0,0,-104,-66,-158c0,0,-66,-53,-195,-53Z" 
id="f3_g"
transform="scale(0.001,-0.001)" />

<path d="M399,-14c0,0,-341,0,-341,370c0,0,0,175,87,269c0,0,87,95,249,95c0,0,101,0,220,-23V501H573L541,625c0,0,-62,35,-149,35c0,0,-200,0,-200,-304c0,0,0,-158,61,-225c0,0,61,-67,189,-67c0,0,109,0,189,24V43C631,43,595,16,530,1c0,0,-64,-15,-131,-15Z" 
id="f3_5"
transform="scale(0.001,-0.001)" />

<path d="M377,45c0,0,99,0,147,73c0,0,47,73,47,237c0,0,0,161,-47,233c0,0,-47,72,-147,72c0,0,-97,0,-141,-69c0,0,-44,-69,-44,-236c0,0,0,-169,45,-240c0,0,44,-70,140,-70Zm0,-59c0,0,-158,0,-238,94c0,0,-81,95,-81,274c0,0,0,178,81,272c0,0,80,94,244,94c0,0,160,0,241,-92c0,0,82,-92,82,-274c0,0,0,-368,-329,-368Z" 
id="f3_8"
transform="scale(0.001,-0.001)" />

<path d="M359,-270c0,0,124,0,192,46c0,0,67,47,67,129c0,0,0,43,-26,67c0,0,-26,24,-79,24H242c0,0,-32,-27,-51,-69c0,0,-20,-41,-20,-77c0,0,0,-64,46,-92c0,0,46,-28,142,-28Zm11,561c0,0,81,0,115,47c0,0,34,47,34,141c0,0,0,100,-35,142c0,0,-35,42,-113,42c0,0,-78,0,-114,-43c0,0,-37,-42,-37,-141c0,0,0,-98,36,-143c0,0,36,-45,114,-45ZM359,-329c0,0,-143,0,-218,44c0,0,-75,43,-75,125c0,0,0,39,27,78c0,0,26,38,98,89c0,0,-43,14,-72,48c0,0,-29,35,-29,74L208,262c0,0,-118,55,-118,217c0,0,0,115,73,178c0,0,73,63,211,63c0,0,28,0,71,-6c0,0,44,-6,67,-13l165,83l26,-32L599,644c0,0,50,-56,50,-165c0,0,0,-120,-72,-182c0,0,-73,-62,-208,-62c0,0,-62,0,-114,11L208,148c0,0,2,-13,29,-24c0,0,27,-12,67,-12H512c0,0,113,0,168,-49c0,0,55,-49,55,-134c0,0,0,-79,-44,-137c0,0,-43,-58,-128,-90c0,0,-84,-31,-204,-31Z" 
id="f3_w"
transform="scale(0.001,-0.001)" />

<path d="M31,0V33l88,19V649L31,668v33H235l7,-87c0,0,44,37,121,71c0,0,76,35,121,35h11V530H463l-43,82c0,0,-37,0,-88,-10c0,0,-52,-10,-89,-26V52L363,33V0Z" 
id="f3_3"
transform="scale(0.001,-0.001)" />

<path d="M139,0V106H400c0,0,176,0,253,71c0,0,78,72,78,250c0,0,0,163,-80,233c0,0,-81,69,-250,69H278L277,564c0,0,-1,-54,26,-80c0,0,27,-25,82,-25c0,0,30,0,80,9V355c0,0,-61,-12,-111,-12c0,0,-100,0,-157,55c0,0,-58,55,-58,186V836H456c0,0,193,0,303,-109c0,0,110,-109,110,-309c0,0,0,-200,-110,-309C759,109,648,0,456,0Z" 
id="f2_m"
transform="scale(0.001,-0.001)" />

<path d="M495,0V729H66V836H781V729H634V0Z" 
id="f2_q"
transform="scale(0.001,-0.001)" />

<path d="M66,0V107H332V555c0,0,0,92,-37,133c0,0,-37,41,-116,41H85V836h94c0,0,153,0,223,-66c0,0,69,-66,69,-231V0Z" 
id="f2_n"
transform="scale(0.001,-0.001)" />

<path d="M31,0V33L150,52v956L31,1026v34H274V52L394,33V0Z" 
id="f3_l"
transform="scale(0.001,-0.001)" />

<path d="M32,0V33L151,52V649L52,668v33H275V52L395,33V0ZM201,850c0,0,-32,0,-56,24c0,0,-24,24,-24,56c0,0,0,34,24,58c0,0,24,24,56,24c0,0,34,0,58,-24c0,0,24,-24,24,-58c0,0,0,-32,-24,-56c0,0,-24,-24,-58,-24Z" 
id="f3_4"
transform="scale(0.001,-0.001)" />

<path d="M522,92c0,0,247,0,247,333c0,0,0,88,-17,146c0,0,-17,58,-53,91c0,0,-35,33,-82,46c0,0,-48,14,-116,14H276V419c0,0,0,-327,246,-327Zm0,-112c0,0,-193,0,-289,109c0,0,-95,110,-95,337V836H501c0,0,213,0,309,-93c0,0,96,-94,96,-317c0,0,0,-227,-95,-337C811,89,715,-20,522,-20Z" 
id="f2_t"
transform="scale(0.001,-0.001)" />

<path d="M139,0V836H485c0,0,206,0,290,-90c0,0,84,-89,84,-294V0H721V473c0,0,0,147,-49,202c0,0,-48,54,-186,54H277V0Z" 
id="f2_g"
transform="scale(0.001,-0.001)" />

<path d="M700,-317V454c0,0,0,155,-54,215c0,0,-54,60,-180,60H277V551c0,0,0,-55,26,-80c0,0,27,-26,82,-26c0,0,30,0,80,10V341c0,0,-61,-11,-111,-11c0,0,-100,0,-157,55c0,0,-58,55,-58,186V836H466c0,0,203,0,288,-91c0,0,85,-92,85,-293V-317Z" 
id="f2_z"
transform="scale(0.001,-0.001)" />

<path d="M138,-7c0,0,-34,0,-72,10V129c0,0,25,-8,52,-8c0,0,33,0,58,5c0,0,26,5,58,24c0,0,33,20,53,54c0,0,21,34,36,97c0,0,15,64,15,151c0,0,0,113,-19,173c0,0,-19,60,-56,82c0,0,-38,22,-107,22H89V836h72c0,0,165,0,240,-91c0,0,76,-91,76,-293c0,0,0,-107,26,-227c0,0,25,-119,83,-225H437c0,0,-43,101,-62,184c0,0,-24,-60,-51,-99c0,0,-26,-38,-56,-58C268,27,239,7,209,0c0,0,-30,-7,-71,-7Z" 
id="f2_k"
transform="scale(0.001,-0.001)" />

<path d="M0,-141L388,1114H514L127,-141Z" 
id="f2_r"
transform="scale(0.001,-0.001)" />

<path d="M139,-317V836H278V-317Z" 
id="f2_h"
transform="scale(0.001,-0.001)" />

<path d="M383,64c0,0,85,0,152,28V645c0,0,-67,13,-152,13c0,0,-194,0,-194,-314c0,0,0,-141,48,-211c0,0,48,-69,146,-69ZM342,-14c0,0,-287,0,-287,358c0,0,0,184,82,280c0,0,81,96,239,96c0,0,81,0,163,-18c0,0,-4,25,-4,124v182l-118,18v34H659V52L745,33V0H548l-9,52c0,0,-84,-66,-197,-66Z" 
id="f3_e"
transform="scale(0.001,-0.001)" />

<path d="M64,-325c0,0,-46,0,-107,14v148H-8l19,-81c0,0,25,-21,62,-21c0,0,44,0,67,47c0,0,22,47,22,152V649L57,668v33H286V-28c0,0,0,-146,-57,-221c0,0,-56,-76,-165,-76ZM213,850c0,0,-34,0,-58,24c0,0,-24,24,-24,56c0,0,0,34,24,58c0,0,24,24,58,24c0,0,32,0,56,-24c0,0,24,-24,24,-58c0,0,0,-32,-24,-56c0,0,-24,-24,-56,-24Z" 
id="f3_1b"
transform="scale(0.001,-0.001)" />

<path d="M148,-329c0,0,-58,0,-114,13v151H69l24,-71c0,0,23,-17,64,-17c0,0,39,0,72,22c0,0,33,23,60,67c0,0,27,44,68,157L90,649L19,668v33H344V668L233,648L423,158L606,649L497,668v33H758V668L685,652L411,-43c0,0,-48,-124,-84,-177c0,0,-36,-54,-79,-82c0,0,-44,-27,-100,-27Z" 
id="f3_7"
transform="scale(0.001,-0.001)" />

<path d="M249,-14c0,0,-71,0,-107,42c0,0,-35,42,-35,119V639H15v33l93,29l76,159h47V701H391V639H231V161c0,0,0,-48,22,-73c0,0,22,-24,57,-24c0,0,44,0,106,12V26C416,26,389,8,340,-2c0,0,-49,-12,-91,-12Z" 
id="f3_h"
transform="scale(0.001,-0.001)" />

<path d="M289,-14c0,0,-179,0,-179,205V649L20,668v33H233V200c0,0,0,-128,120,-128c0,0,92,0,173,23V649L420,668v33H649V52L738,34V0H533l-6,57C527,57,474,28,405,6c0,0,-69,-20,-116,-20Zm24,849v24l147,203H618v-27L354,835Z" 
id="f3_i"
transform="scale(0.001,-0.001)" />

<path d="M495,413c0,0,0,133,-34,190c0,0,-34,57,-105,57c0,0,-78,0,-119,-62c0,0,-42,-63,-42,-185ZM374,-14c0,0,-163,0,-239,87c0,0,-75,88,-75,283c0,0,0,183,77,274c0,0,76,90,219,90c0,0,269,0,269,-306V353H194V339c0,0,0,-103,23,-160c0,0,22,-57,70,-86c0,0,47,-30,124,-30c0,0,40,0,96,6c0,0,55,7,91,15V43C598,43,562,19,500,2c0,0,-61,-16,-126,-16ZM285,835v24l146,203H590v-27L326,835Z" 
id="f3_k"
transform="scale(0.001,-0.001)" />

<path d="M0,-14L351,1007h73L75,-14Z" 
id="f3_6"
transform="scale(0.001,-0.001)" />

<path d="M284,67c0,0,51,0,88,12c0,0,37,12,74,30V358l-98,-3c0,0,-100,-4,-135,-39c0,0,-35,-35,-35,-117c0,0,0,-132,106,-132ZM233,-14c0,0,-179,0,-179,208c0,0,0,70,27,116c0,0,27,46,87,70c0,0,60,24,173,27l105,3V519c0,0,0,72,-26,107c0,0,-27,34,-82,34c0,0,-75,0,-137,-35L176,538H134V691c0,0,121,26,213,26c0,0,115,0,169,-47c0,0,54,-47,54,-144V52L657,33V0H465L451,70c0,0,-85,-84,-218,-84Z" 
id="f3_m"
transform="scale(0.001,-0.001)" />

<path d="M557,-14c0,0,-199,0,-298,89c0,0,-99,90,-99,255V941L32,960v40H432V960L304,941V341c0,0,0,-273,264,-273c0,0,144,0,220,68c0,0,77,68,77,202V941L730,960v40h341V960L943,941V344c0,0,0,-180,-99,-269c0,0,-99,-89,-287,-89Z" 
id="f3_n"
transform="scale(0.001,-0.001)" />

<path d="M191,-20c0,0,-39,0,-65,25c0,0,-25,27,-25,64c0,0,0,38,26,64c0,0,26,26,64,26c0,0,38,0,64,-26c0,0,26,-26,26,-64c0,0,0,-37,-25,-64c0,0,-26,-25,-65,-25Z" 
id="f3_o"
transform="scale(0.001,-0.001)" />

<path d="M439,0V33l93,19V500c0,0,0,62,-30,97c0,0,-31,36,-94,36c0,0,-67,0,-165,-22V52L338,33V0H35V33l84,19V649L35,668v33H235l7,-57c0,0,57,33,122,54c0,0,65,22,108,22c0,0,91,0,137,-53c0,0,47,-53,47,-154V52L741,33V0Z" 
id="f3_a"
transform="scale(0.001,-0.001)" />

<path d="M467,496c0,0,102,0,161,69c0,0,59,70,59,190c0,0,0,120,-59,190c0,0,-59,70,-161,70c0,0,-101,0,-160,-70c0,0,-60,-70,-60,-190c0,0,0,-120,60,-190c0,0,59,-69,160,-69ZM403,-20c0,0,-57,0,-115,11c0,0,-58,10,-121,32V160c0,0,57,-26,115,-40c0,0,58,-14,115,-14c0,0,149,0,228,100c0,0,79,100,90,305c0,0,-44,-65,-110,-99c0,0,-66,-35,-147,-35c0,0,-167,0,-265,102c0,0,-97,101,-97,276c0,0,0,172,101,275c0,0,102,104,270,104c0,0,194,0,295,-148c0,0,102,-148,102,-430c0,0,0,-263,-125,-420C739,136,614,-20,403,-20Z" 
id="f2_1d"
transform="scale(0.001,-0.001)" />

<path d="M545,163c0,0,162,0,162,262c0,0,0,66,-11,111c0,0,-11,45,-36,71c0,0,-24,25,-56,35c0,0,-31,10,-78,10H383V420c0,0,0,-257,162,-257Zm0,-182c0,0,-205,0,-306,109c0,0,-101,109,-101,335V836H527c0,0,223,0,325,-94c0,0,101,-93,101,-317c0,0,0,-226,-101,-335C852,90,750,-19,545,-19Z" 
id="f1_m"
transform="scale(0.001,-0.001)" />

<path d="M139,0V836H386V0Z" 
id="f1_b"
transform="scale(0.001,-0.001)" />

<path d="M66,0V178H507V449c0,0,0,43,-2,71c0,0,-3,28,-12,56c0,0,-9,28,-26,45c0,0,-17,16,-47,27c0,0,-29,10,-72,10H66V836H349c0,0,97,0,167,-17c0,0,71,-17,117,-49c0,0,46,-32,73,-84c0,0,27,-52,38,-114c0,0,11,-62,11,-147V178H866V0Z" 
id="f1_j"
transform="scale(0.001,-0.001)" />

<path d="M545,-19c0,0,-208,0,-308,99c0,0,-99,101,-99,324V836H383V399c0,0,0,-130,41,-183c0,0,41,-53,121,-53c0,0,80,0,121,53c0,0,41,53,41,183c0,0,0,142,-27,203c0,0,-28,61,-90,61c0,0,-36,0,-92,-20V825c0,0,80,21,142,21c0,0,153,0,233,-113c0,0,80,-113,80,-328c0,0,0,-224,-100,-325c0,0,-100,-99,-308,-99Z" 
id="f1_13"
transform="scale(0.001,-0.001)" />

<path d="M159,0V165c0,0,0,69,13,124c0,0,12,55,29,89c0,0,17,33,45,62c0,0,29,28,50,42c0,0,22,14,54,30L128,836H405L666,460c0,0,41,48,41,155V836H952V671c0,0,0,-50,-6,-93c0,0,-6,-42,-16,-73c0,0,-10,-30,-26,-57c0,0,-17,-27,-31,-44c0,0,-15,-17,-37,-33c0,0,-22,-16,-38,-25c0,0,-15,-9,-38,-21L984,0H706L445,376c0,0,-41,-48,-41,-155V0Z" 
id="f1_u"
transform="scale(0.001,-0.001)" />

<path d="M139,0V177H436c0,0,127,0,184,56c0,0,56,55,56,186c0,0,0,132,-58,186c0,0,-58,53,-181,53H386L385,553c0,0,0,-40,12,-54c0,0,12,-15,31,-15c0,0,19,0,38,2V343c0,0,-46,-11,-94,-11c0,0,-48,0,-87,11c0,0,-38,10,-73,34c0,0,-73,53,-73,196V836H487c0,0,203,0,319,-109c0,0,116,-109,116,-309c0,0,0,-200,-117,-309C805,109,689,0,487,0Z" 
id="f1_5"
transform="scale(0.001,-0.001)" />

<path d="M153,0V437L399,539V0ZM664,0V450c0,0,0,122,-31,165c0,0,-31,43,-121,43H138V836H511c0,0,113,0,188,-22c0,0,75,-23,123,-73c0,0,47,-51,68,-127c0,0,20,-76,20,-189V0Z" 
id="f1_a"
transform="scale(0.001,-0.001)" />

<path d="M129,0l69,362c0,0,10,56,12,100c0,0,0,84,-27,159c0,0,-27,76,-117,215H322c0,0,9,-6,31,-79c0,0,23,-72,23,-105c0,0,23,82,100,138c0,0,77,57,160,57c0,0,332,0,332,-397V0H538V177H721V449c0,0,0,124,-20,170c0,0,-20,47,-82,47c0,0,-23,0,-43,-9c0,0,-19,-10,-34,-23c0,0,-14,-14,-27,-39c0,0,-13,-25,-22,-46c0,0,-8,-22,-17,-57c0,0,-9,-36,-15,-61c0,0,-5,-24,-13,-65L375,0Z" 
id="f1_8"
transform="scale(0.001,-0.001)" />

<path d="M171,0V288H440V0Zm0,548V836H440V548Z" 
id="f1_k"
transform="scale(0.001,-0.001)" />

<path d="M82,0V177H500L50,836H328L560,491c0,0,56,19,56,124V836H861V671c0,0,0,-116,-45,-192c0,0,-40,-68,-85,-90c0,0,-50,-26,-71,-26c0,0,-1,0,-1,0L838,96V0Z" 
id="f1_v"
transform="scale(0.001,-0.001)" />

<path d="M150,-366V437L396,539V-366ZM499,0L727,658H139V835h870V716L754,0Z" 
id="f1_3"
transform="scale(0.001,-0.001)" />

<path d="M156,-317V454l139,56V-317ZM505,0L806,729H139V835H967V753L650,0Z" 
id="f2_p"
transform="scale(0.001,-0.001)" />

<path d="M147,700v414H274V700Zm282,0v414H556V700Z" 
id="f2_u"
transform="scale(0.001,-0.001)" />

<path d="M117,-176L179,62V190H336V62L213,-176Z" 
id="f2_s"
transform="scale(0.001,-0.001)" />

<path d="M289,-14c0,0,-179,0,-179,205V649L20,668v33H233V200c0,0,0,-128,120,-128c0,0,92,0,173,23V649L420,668v33H649V52L738,33V0H533l-6,57C527,57,474,28,405,7c0,0,-69,-21,-116,-21Z" 
id="f3_f"
transform="scale(0.001,-0.001)" />

<path d="M376,50c0,0,103,0,149,80c0,0,46,81,46,240c0,0,0,137,-47,204c0,0,-48,67,-148,67c0,0,-44,0,-87,-7c0,0,-44,-8,-63,-17V62c0,0,63,-12,150,-12Zm3,-64c0,0,-64,0,-141,14c0,0,-78,14,-136,37v971L0,1026v34H226V809c0,0,0,-40,-4,-148c0,0,74,59,188,59c0,0,143,0,219,-87c0,0,77,-87,77,-263c0,0,0,-189,-84,-287c0,0,-84,-97,-243,-97Z" 
id="f3_v"
transform="scale(0.001,-0.001)" />

<path d="M152,0V473c0,0,0,94,28,161c0,0,29,66,71,95H66V836H463V729H404c0,0,-65,0,-89,-57c0,0,-25,-58,-25,-199V0Z" 
id="f2_o"
transform="scale(0.001,-0.001)" />

<path d="M46,0l55,212H483c0,0,68,0,105,25c0,0,38,25,57,78c0,0,18,52,18,131c0,0,0,97,-39,142c0,0,-40,46,-123,46H275c0,0,-25,-15,-40,-35c0,0,-15,-20,-15,-32c0,0,0,-25,37,-25l49,-1c0,0,42,0,67,-26c0,0,26,-26,26,-72c0,0,0,-68,-17,-118c0,0,-18,-50,-41,-50c0,0,-19,0,-19,18c0,0,0,34,-14,51c0,0,-13,16,-54,16c0,0,-38,0,-57,-11c0,0,-19,-11,-26,-43c0,0,-3,-22,-18,-22c0,0,-22,0,-34,37c0,0,-12,38,-12,102c0,0,0,128,78,211H163c0,0,-33,0,-52,34c0,0,-19,35,-19,91c0,0,0,50,15,94c0,0,16,45,32,45c0,0,17,0,17,-14V870c0,0,0,-25,33,-25H544c0,0,62,0,95,-17c0,0,32,-17,58,-66c0,0,26,-48,40,-125c0,0,13,-77,13,-158c0,0,0,-296,-116,-479Z" 
id="f0_d"
transform="scale(0.001,-0.001)" />

<path d="M436,206c0,0,131,0,201,62c0,0,70,63,70,175c0,0,0,47,-9,82c0,0,-9,34,-28,61c0,0,-19,27,-44,37c0,0,-26,11,-82,11H296c0,0,-51,-42,-79,-96c0,0,-29,-53,-29,-112c0,0,0,-110,63,-165c0,0,64,-55,185,-55ZM434,-13c0,0,-169,0,-256,94c0,0,-88,94,-88,274c0,0,0,92,29,159c0,0,28,66,76,120H150c0,0,-37,0,-57,32c0,0,-20,33,-20,108c0,0,0,33,8,60c0,0,8,27,21,45c0,0,14,17,25,17c0,0,20,0,20,-10V869c0,0,0,-24,31,-24H588c0,0,56,0,87,-20c0,0,31,-20,61,-81c0,0,30,-60,46,-129c0,0,15,-69,15,-151c0,0,0,-147,-43,-258C754,206,710,94,628,40c0,0,-81,-53,-194,-53Z" 
id="f0_t"
transform="scale(0.001,-0.001)" />

<path d="M107,-18c0,0,-17,0,-17,18l3,9c0,0,23,48,23,124l-1,177c0,0,0,55,8,77c0,0,9,22,33,46c0,0,23,23,51,40c0,0,28,17,42,17c0,0,5,0,9,-3c0,0,5,-3,5,-8c0,0,0,-3,-11,-26c0,0,-14,-49,-14,-120l4,-223c0,0,0,-38,-9,-54c0,0,-8,-17,-32,-34C201,22,178,6,150,-5c0,0,-28,-13,-43,-13Zm547,0c0,0,-17,0,-17,18l2,10c0,0,10,38,10,109c0,0,0,79,-14,208c0,0,-15,128,-15,149c0,0,0,54,16,89c0,0,15,36,53,69H154c0,0,-35,0,-57,40c0,0,-21,40,-21,103c0,0,0,33,8,61c0,0,7,28,19,44c0,0,13,17,24,17c0,0,15,0,15,-13V869c0,0,0,-13,5,-19c0,0,5,-5,22,-5H718c0,0,50,0,50,-63V652c0,0,0,-21,-15,-30c0,0,-35,-24,-35,-77c0,0,0,-57,20,-169c0,0,27,-157,27,-272c0,0,0,-29,-6,-44c0,0,-6,-15,-17,-26c0,0,-12,-16,-47,-35L681,-9l-13,-6l-14,-3Z" 
id="f0_f"
transform="scale(0.001,-0.001)" />

<path d="M248,-20c0,0,-52,0,-87,34c0,0,-36,36,-36,88c0,0,0,52,36,88c0,0,35,36,87,36c0,0,52,0,88,-36c0,0,36,-36,36,-88c0,0,0,-51,-36,-87c0,0,-35,-35,-88,-35Zm0,488c0,0,-52,0,-87,36c0,0,-36,36,-36,88c0,0,0,52,35,88c0,0,35,36,88,36c0,0,53,0,89,-36c0,0,35,-37,35,-88c0,0,0,-51,-36,-87c0,0,-35,-37,-88,-37Z" 
id="f0_3"
transform="scale(0.001,-0.001)" />

<path d="M131,353c0,0,-3,0,-6,2c0,0,-3,2,-16,20c0,0,-13,17,-13,28c0,0,0,5,8,9c0,0,45,26,84,67c0,0,38,41,38,85c0,0,0,28,-7,43c0,0,-7,15,-24,21c0,0,-17,6,-61,6H124c0,0,-38,0,-62,34c0,0,-24,35,-24,107c0,0,0,52,16,87c0,0,17,34,38,34c0,0,16,0,16,-12V870c0,0,0,-25,26,-25h63c0,0,29,0,53,-4c0,0,23,-4,39,-23c0,0,17,-19,26,-59c0,0,9,-40,9,-113c0,0,0,-76,-15,-124c0,0,-15,-47,-51,-83c0,0,-35,-36,-74,-61c0,0,-39,-25,-53,-25Z" 
id="f0_4"
transform="scale(0.001,-0.001)" />

<path d="M216,0c0,0,-59,212,-83,350c0,0,-25,139,-25,198c0,0,0,76,23,127c0,0,-42,13,-58,43c0,0,-15,30,-15,72c0,0,0,40,20,74c0,0,20,34,37,34c0,0,10,0,10,-13c0,0,0,-42,69,-42c0,0,57,0,80,-21c0,0,22,-21,22,-62c0,0,0,-38,-7,-72c0,0,-6,-34,-12,-34c0,0,-6,0,-16,10c0,0,-10,10,-25,10c0,0,-25,0,-35,-24c0,0,-10,-24,-10,-71c0,0,0,-164,72,-374c0,0,38,80,116,231c0,0,87,168,121,238c0,0,-36,6,-52,34c0,0,-17,28,-17,66c0,0,0,41,21,82c0,0,20,42,37,42c0,0,9,0,10,-7c0,0,5,-22,13,-32c0,0,9,-11,32,-12l44,-4c0,0,87,-4,87,-94c0,0,0,-33,-7,-67c0,0,-8,-34,-16,-34l-16,10c0,0,-15,10,-30,10c0,0,-22,0,-39,-29c0,0,-18,-32,-39,-72c0,0,-21,-41,-178,-355H691l38,91c0,0,58,139,124,224c0,0,38,50,60,80c0,0,22,29,22,45c0,0,0,12,-7,19c0,0,-6,7,-27,12c0,0,-42,18,-60,41c0,0,-17,24,-17,59c0,0,0,29,11,56c0,0,12,27,27,43c0,0,16,16,26,16c0,0,9,-1,10,-6l4,-14c0,0,4,-21,27,-25l70,-13c0,0,32,-6,51,-30c0,0,20,-24,20,-61c0,0,-2,-45,-23,-87c0,0,-21,-41,-91,-127c0,0,-46,-57,-77,-116c0,0,-31,-59,-71,-161L706,0Z" 
id="f0_5"
transform="scale(0.001,-0.001)" />

<path d="M131,-18c0,0,-10,0,-10,13l3,10c0,0,13,41,13,128l-3,137l-4,151c0,0,0,60,24,108c0,0,24,47,79,105H186c0,0,-37,0,-60,35c0,0,-22,36,-22,93c0,0,0,48,16,92c0,0,17,45,31,45c0,0,7,0,13,-6c0,0,7,-6,7,-18c0,0,0,-30,32,-30H749c0,0,28,0,37,-12c0,0,8,-12,8,-40V660c0,0,0,-28,-11,-37c0,0,-39,-28,-39,-91c0,0,0,-52,24,-213c0,0,23,-161,23,-221c0,0,0,-46,-42,-81c0,0,-43,-33,-69,-33c0,0,-5,0,-9,4c0,0,-3,5,-3,12c0,0,0,7,4,24c0,0,5,16,5,48c0,0,0,80,-15,234c0,0,-16,154,-16,178c0,0,0,39,14,73c0,0,14,33,46,77H304c0,0,-41,-50,-55,-91c0,0,-14,-41,-14,-109c0,0,0,-44,9,-145c0,0,8,-103,8,-156c0,0,0,-64,-24,-93c0,0,-59,-58,-97,-58Z" 
id="f0_9"
transform="scale(0.001,-0.001)" />

<path d="M285,0V54L444,74V389L140,926L27,945v55H542V945L407,926L636,507L856,926L734,945v55h340V945L968,926L680,394V74L838,54V0Z" 
id="f0_1a"
transform="scale(0.001,-0.001)" />

<path d="M20,0L75,212H492c0,0,19,51,25,97c0,0,5,46,5,105c0,0,0,63,-6,124c0,0,-6,61,-23,78c0,0,-16,18,-66,18H112c0,0,-36,0,-57,40c0,0,-21,40,-21,101c0,0,0,50,16,87c0,0,16,36,36,36c0,0,13,0,13,-14V870c0,0,0,-25,34,-25H457c0,0,63,0,92,-11c0,0,28,-10,41,-36c0,0,13,-26,18,-107c0,0,4,-80,4,-174c0,0,0,-174,-13,-224c0,0,-4,-15,-21,-41c0,0,-17,-25,-31,-40H688L640,0Z" 
id="f0_i"
transform="scale(0.001,-0.001)" />

<path d="M730,212c0,0,17,78,17,199c0,0,0,85,-13,133c0,0,-12,48,-36,69c0,0,-24,21,-87,21H312c0,0,-55,-53,-72,-91c0,0,-17,-38,-17,-96c0,0,0,-124,8,-235ZM134,0l-1,360c0,0,0,121,7,151c0,0,7,30,31,61c0,0,24,32,57,62H201c0,0,-37,0,-59,39c0,0,-23,40,-23,101c0,0,0,51,18,87c0,0,18,35,35,35c0,0,12,0,16,-2c0,0,4,-2,4,-8V869c0,0,0,-24,31,-24H645c0,0,73,0,104,-18c0,0,30,-18,49,-58c0,0,19,-39,27,-107c0,0,9,-67,9,-162c0,0,0,-166,-12,-500Z" 
id="f0_1b"
transform="scale(0.001,-0.001)" />

<path d="M102,-3c0,0,-26,0,-26,31c0,0,0,176,35,320c0,0,34,145,102,247c0,0,3,4,3,25c0,0,0,24,-19,37c0,0,-19,13,-79,15c0,0,-40,0,-61,35c0,0,-22,35,-22,95c0,0,0,39,14,67c0,0,14,29,32,29c0,0,20,0,20,-25c0,0,0,-28,32,-28h33c0,0,54,0,85,-25c0,0,30,-25,30,-68l-3,-52c0,0,0,-22,3,-31c0,0,76,71,104,109c0,0,29,37,36,75c0,0,55,7,82,7c0,0,154,0,239,-126c0,0,85,-127,85,-352c0,0,0,-99,-15,-200C812,182,798,81,774,0H335l42,214H652c0,0,25,0,37,5c0,0,11,4,21,18c0,0,10,14,17,36c0,0,7,22,12,56c0,0,5,34,5,64c0,0,0,247,-241,247c0,0,-337,0,-337,-609c0,0,0,-20,-5,-27c0,0,-6,-7,-22,-7Z" 
id="f0_16"
transform="scale(0.001,-0.001)" />

<path d="M38,0L93,212H220c0,0,4,8,7,28c0,0,4,20,4,39c0,0,0,29,-13,61c0,0,-13,31,-29,65c0,0,-15,34,-28,72c0,0,-13,38,-13,81c0,0,0,29,10,54c0,0,9,25,30,60c0,0,-48,0,-68,11c0,0,-19,11,-30,36c0,0,-11,25,-11,71c0,0,0,30,9,54c0,0,8,25,22,40c0,0,14,15,24,15c0,0,17,0,17,-12V875c0,0,0,-30,41,-30h53c0,0,44,0,61,-10c0,0,17,-10,26,-34c0,0,9,-23,9,-67c0,0,0,-38,-6,-57c0,0,-6,-20,-13,-20c0,0,-6,0,-13,4c0,0,-3,4,-17,7c0,0,-14,2,-26,2c0,0,-34,0,-34,-45c0,0,0,-12,9,-34c0,0,8,-22,55,-116c0,0,46,-86,46,-143c0,0,0,-15,-8,-35c0,0,-9,-20,-50,-85H598c0,0,17,0,17,12c0,0,0,19,-6,53c0,0,-5,34,-5,74c0,0,0,80,58,228c0,0,18,46,18,56c0,0,0,15,-12,26c0,0,-12,11,-38,11H602c0,0,-43,0,-62,25c0,0,-19,25,-19,78c0,0,0,47,14,86c0,0,15,38,33,38c0,0,15,0,15,-15V867c0,0,0,-22,31,-22h55c0,0,51,0,78,-20c0,0,27,-20,27,-57c0,0,0,-46,-28,-147c0,0,-40,-145,-40,-253c0,0,0,-33,6,-63c0,0,6,-30,14,-54c0,0,8,-24,14,-42c0,0,7,-19,7,-30c0,0,0,-39,-14,-88C733,91,720,42,701,0Z" 
id="f0_u"
transform="scale(0.001,-0.001)" />

<path d="M566,-14c0,0,-200,0,-308,93c0,0,-107,94,-107,270V926L38,945v55H515V945L386,926V339c0,0,0,-120,61,-184c0,0,61,-64,178,-64c0,0,112,0,173,63c0,0,61,62,61,184V926L725,945v55h340V945L952,926V343c0,0,0,-173,-100,-265c0,0,-100,-92,-286,-92Z" 
id="f0_1c"
transform="scale(0.001,-0.001)" />

<path d="M51,0V55L180,74V926L51,946v54H543V946L415,926V74L543,55V0Z" 
id="f0_18"
transform="scale(0.001,-0.001)" />

<path d="M498,506c0,0,115,0,164,47c0,0,48,48,48,166c0,0,0,112,-46,156c0,0,-46,43,-169,43H390V506ZM793,0L514,423H390V74L518,54V0H36V54L154,74V926L26,945v55H504c0,0,221,0,330,-68c0,0,109,-68,109,-212c0,0,0,-215,-201,-276L1009,74L1117,54V0Z" 
id="f0_1d"
transform="scale(0.001,-0.001)" />

<path d="M287,-18c0,0,-194,0,-194,206V634L23,652v49H309V217c0,0,0,-63,26,-98c0,0,27,-35,76,-35c0,0,57,0,113,25V634l-64,18v49H740V67L809,49V0H536L526,61L475,35c0,0,-104,-53,-188,-53Z" 
id="f0_14"
transform="scale(0.001,-0.001)" />

<path d="M159,-329c0,0,-61,0,-123,14v180H81l32,-94c0,0,21,-17,55,-17c0,0,28,0,50,13c0,0,21,14,40,39c0,0,20,25,37,62c0,0,17,37,50,110L64,634L15,652v49H374V652L290,632L455,244L602,634l-82,18v49H749V652L698,637L421,-44c0,0,-47,-121,-83,-176c0,0,-36,-55,-80,-82c0,0,-43,-27,-99,-27Z" 
id="f0_j"
transform="scale(0.001,-0.001)" />

<path d="M431,0V33L535,52V499c0,0,0,62,-32,96c0,0,-32,33,-95,33c0,0,-66,0,-163,-22V52L350,33V0H32V33l89,19V649L32,668v33H237l6,-57c0,0,56,32,119,54c0,0,62,22,110,22c0,0,52,0,95,-20c0,0,44,-19,66,-62c0,0,57,32,134,57c0,0,77,25,128,25c0,0,179,0,179,-207V52l90,-19V0H846V33L950,52V499c0,0,0,129,-119,129c0,0,-19,0,-45,-3c0,0,-26,-3,-52,-7c0,0,-25,-4,-49,-8c0,0,-23,-5,-39,-8c0,0,13,-41,13,-89V52L764,33V0Z" 
id="f3_p"
transform="scale(0.001,-0.001)" />

<path d="M32,0V34L151,52V649L52,668v33H275V52L395,34V0Zm71,835v24l146,203H408v-27L144,835Z" 
id="f3_q"
transform="scale(0.001,-0.001)" />

<path d="M360,-14L72,649L0,668v33H327V668L216,648L420,164L615,649L504,668v33H764V668L697,652L416,-14Z" 
id="f3_s"
transform="scale(0.001,-0.001)" />

<path d="M180,0V198H433V918L173,864v196l258,54H705V198H958V0Z" 
id="f1_q"
transform="scale(0.001,-0.001)" />

<path d="M532,174c0,0,92,0,132,87c0,0,39,86,39,297c0,0,0,209,-39,294c0,0,-39,86,-132,86c0,0,-92,0,-132,-86c0,0,-39,-85,-39,-294c0,0,0,-211,39,-297c0,0,40,-87,132,-87Zm0,-194c0,0,-220,0,-339,149C193,129,73,279,73,556c0,0,0,278,120,428c0,0,119,150,339,150c0,0,220,0,339,-150c0,0,119,-150,119,-428c0,0,0,-277,-119,-427C871,129,752,-20,532,-20Z" 
id="f1_14"
transform="scale(0.001,-0.001)" />

<path d="M442,0V33l93,19V504c0,0,0,129,-124,129c0,0,-70,0,-168,-22V52L338,33V0H31V33l88,19v956L15,1026v34H243V756c0,0,0,-77,-5,-112c0,0,54,31,122,53c0,0,68,23,115,23c0,0,91,0,137,-53c0,0,47,-53,47,-154V52L744,33V0Z" 
id="f3_x"
transform="scale(0.001,-0.001)" />

<path d="M347,-317V284c0,0,0,59,-21,123c0,0,-21,64,-44,103c0,0,-23,40,-59,94L66,838H218L336,668c0,0,76,-109,120,-223c0,0,87,34,126,107c0,0,39,73,39,186v98H758V737c0,0,0,-82,-23,-152c0,0,-23,-69,-61,-116c0,0,-39,-47,-87,-78c0,0,-47,-31,-101,-45V-317Z" 
id="f2_1e"
transform="scale(0.001,-0.001)" />

<path d="M190,0V127H436V977L168,923v137l267,54H586V127H832V0Z" 
id="f2_13"
transform="scale(0.001,-0.001)" />

<path d="M486,98c0,0,117,0,175,114c0,0,59,115,59,344c0,0,0,230,-59,344c0,0,-58,115,-175,115c0,0,-117,0,-175,-115c0,0,-59,-114,-59,-344c0,0,0,-229,59,-344c0,0,58,-114,175,-114ZM485,-20c0,0,-187,0,-285,147c0,0,-99,148,-99,429c0,0,0,282,98,430c0,0,99,148,286,148c0,0,188,0,286,-148c0,0,99,-148,99,-430c0,0,0,-281,-99,-429c0,0,-98,-147,-286,-147Z" 
id="f2_1f"
transform="scale(0.001,-0.001)" />

<path d="M13,0L67,212H274c0,0,15,0,19,4c0,0,5,4,5,13c0,0,0,6,-9,22c0,0,-9,16,-19,38c0,0,-11,21,-20,45c0,0,-8,24,-8,48c0,0,0,18,11,89c0,0,11,70,11,102c0,0,0,27,-16,45c0,0,-17,18,-37,18H188c0,0,-89,0,-89,117c0,0,0,52,15,99c0,0,15,47,30,47c0,0,18,0,18,-22c0,0,0,-19,10,-25c0,0,10,-7,39,-7h56c0,0,65,0,86,-15c0,0,21,-16,21,-56c0,0,0,-21,-5,-50c0,0,-38,-172,-38,-258c0,0,0,-63,11,-100c0,0,11,-37,46,-104c0,0,20,-38,20,-58c0,0,0,-16,-10,-74C398,130,388,72,369,0Z" 
id="f0_1e"
transform="scale(0.001,-0.001)" />


</defs>
</svg>