<?xml version="1.0" encoding="UTF-8" standalone="no"?>
<!DOCTYPE svg PUBLIC "-//W3C//DTD SVG 1.1//EN"
"http://www.w3.org/Graphics/SVG/1.1/DTD/svg11.dtd">
<svg viewBox="0 0 909 1286" version="1.1" xmlns="http://www.w3.org/2000/svg" xmlns:xlink="http://www.w3.org/1999/xlink">
<defs>
<clipPath id="c0_10"><path d="M0,1286.2V0H909.4V1286.2Z" /></clipPath>
<style type="text/css"><![CDATA[
.g0_10{
fill: none;
stroke: #000000;
stroke-width: 0.7638889;
stroke-linecap: butt;
stroke-linejoin: round;
}
]]></style>
</defs>
<path d="M128.6,110.4H780M128.6,308.7H780M128.6,588H780M128.9,110V588.3M345.9,110V588.3M562.8,110V588.3M779.6,110V588.3" class="g0_10" />
<g clip-path="url(#c0_10)">
<g fill="#000000" >
<use xlink:href="#f0_4" transform="matrix(12,0,0,12,729.8,127.9)" />
<use xlink:href="#f0_6" transform="matrix(12,0,0,12,740.2,127.9)" />
<use xlink:href="#f0_f" transform="matrix(12,0,0,12,745.1,127.9)" />
<use xlink:href="#f0_3" transform="matrix(12,0,0,12,756.5,127.9)" />
<use xlink:href="#f0_h" transform="matrix(12,0,0,12,760.6,127.9)" />
<use xlink:href="#f0_r" transform="matrix(12,0,0,12,513,127.9)" />
<use xlink:href="#f0_6" transform="matrix(12,0,0,12,526,127.9)" />
<use xlink:href="#f0_n" transform="matrix(12,0,0,12,531,127.9)" />
<use xlink:href="#f0_3" transform="matrix(12,0,0,12,538.4,127.9)" />
<use xlink:href="#f0_i" transform="matrix(12,0,0,12,542.5,127.9)" />
<use xlink:href="#f0_4" transform="matrix(12,0,0,12,303.9,127.9)" />
<use xlink:href="#f0_f" transform="matrix(12,0,0,12,314.3,127.9)" />
<use xlink:href="#f0_t" transform="matrix(12,0,0,12,325.7,127.9)" />
<use xlink:href="#f0_i" transform="matrix(12,0,0,12,711.8,326.2)" />
<use xlink:href="#f0_u" transform="matrix(12,0,0,12,723.8,326.2)" />
<use xlink:href="#f0_a" transform="matrix(12,0,0,12,735.8,326.2)" />
<use xlink:href="#f0_r" transform="matrix(12,0,0,12,746.1,326.2)" />
<use xlink:href="#f0_b" transform="matrix(12,0,0,12,759,326.2)" />
<use xlink:href="#f0_i" transform="matrix(12,0,0,12,503.9,326.2)" />
<use xlink:href="#f0_3" transform="matrix(12,0,0,12,515.9,326.2)" />
<use xlink:href="#f0_n" transform="matrix(12,0,0,12,520,326.2)" />
<use xlink:href="#f0_6" transform="matrix(12,0,0,12,527.4,326.2)" />
<use xlink:href="#f0_5" transform="matrix(12,0,0,12,532.4,326.2)" />
<use xlink:href="#f0_b" transform="matrix(12,0,0,12,542,326.2)" />
<use xlink:href="#f0_t" transform="matrix(12,0,0,12,311.1,326.2)" />
<use xlink:href="#f0_6" transform="matrix(12,0,0,12,323,326.2)" />
<use xlink:href="#f0_5" transform="matrix(12,0,0,12,328,326.2)" />
<use xlink:href="#f0_x" transform="matrix(12,0,0,12,137.7,1208.5)" />
<use xlink:href="#f0_14" transform="matrix(12,0,0,12,149.3,1208.5)" />
</g>
</g>
<image preserveAspectRatio="none" x="607" y="159" width="117" height="138" xlink:href="img/1.png" />
<image preserveAspectRatio="none" x="390" y="137" width="113" height="166" xlink:href="img/2.png" />
<image preserveAspectRatio="none" x="191" y="142" width="93" height="141" xlink:href="img/3.png" />
<image preserveAspectRatio="none" x="588" y="346" width="148" height="163" xlink:href="img/4.png" />
<image preserveAspectRatio="none" x="356" y="359" width="190" height="171" xlink:href="img/5.png" />
<image preserveAspectRatio="none" x="192" y="358" width="92" height="148" xlink:href="img/6.png" />
<defs>
<path d="M585,0V426c0,0,0,54,-8,98c0,0,-8,44,-27,83c0,0,-19,40,-49,66c0,0,-30,26,-77,41c0,0,-47,15,-108,15H66V836H315c0,0,94,0,166,-20c0,0,71,-20,116,-54c0,0,46,-35,75,-88c0,0,28,-52,40,-112c0,0,12,-60,12,-137V0Z" 
id="f0_4"
transform="scale(0.001,-0.001)" />

<path d="M139,0V836H278V0Z" 
id="f0_6"
transform="scale(0.001,-0.001)" />

<path d="M139,0V106H400c0,0,176,0,253,71c0,0,78,72,78,250c0,0,0,163,-80,233c0,0,-81,69,-250,69H278L277,564c0,0,-1,-54,26,-80c0,0,27,-25,82,-25c0,0,30,0,80,9V355c0,0,-61,-12,-111,-12c0,0,-100,0,-157,55c0,0,-58,55,-58,186V836H456c0,0,193,0,303,-109c0,0,110,-109,110,-309c0,0,0,-200,-110,-309C759,109,648,0,456,0Z" 
id="f0_f"
transform="scale(0.001,-0.001)" />

<path d="M102,312V836H241V369L102,312Z" 
id="f0_3"
transform="scale(0.001,-0.001)" />

<path d="M66,0V106H564L66,836H228L516,413c0,0,3,2,9,6c0,0,17,13,27,21c0,0,10,8,26,27c0,0,17,20,26,40c0,0,9,21,16,54c0,0,7,34,7,75V836H764V698c0,0,0,-55,-7,-102c0,0,-7,-47,-16,-79c0,0,-10,-33,-27,-62c0,0,-18,-29,-32,-46c0,0,-14,-17,-37,-35c0,0,-22,-17,-36,-25c0,0,-13,-8,-36,-20L767,53V0Z" 
id="f0_h"
transform="scale(0.001,-0.001)" />

<path d="M156,-317V454l139,56V-317ZM505,0L806,729H139V835H967V753L650,0Z" 
id="f0_r"
transform="scale(0.001,-0.001)" />

<path d="M66,0V107H332V555c0,0,0,92,-37,133c0,0,-37,41,-116,41H85V836h94c0,0,153,0,223,-66c0,0,69,-66,69,-231V0Z" 
id="f0_n"
transform="scale(0.001,-0.001)" />

<path d="M112,-5c0,0,-39,0,-97,11V113c0,0,48,-10,77,-10c0,0,53,0,70,42c0,0,17,43,17,164V729H50V836H501c0,0,107,0,179,-25c0,0,72,-25,112,-77c0,0,40,-51,57,-118c0,0,16,-67,16,-164V0H726V454c0,0,0,55,-3,92c0,0,-4,37,-17,75c0,0,-14,38,-38,59c0,0,-24,22,-65,36c0,0,-42,13,-102,13H318V309c0,0,0,-160,-46,-237C272,72,226,-5,112,-5Z" 
id="f0_i"
transform="scale(0.001,-0.001)" />

<path d="M522,92c0,0,247,0,247,333c0,0,0,88,-17,146c0,0,-17,58,-53,91c0,0,-35,33,-82,46c0,0,-48,14,-116,14H276V419c0,0,0,-327,246,-327Zm0,-112c0,0,-193,0,-289,109c0,0,-95,110,-95,337V836H501c0,0,213,0,309,-93c0,0,96,-94,96,-317c0,0,0,-227,-95,-337C811,89,715,-20,522,-20Z" 
id="f0_t"
transform="scale(0.001,-0.001)" />

<path d="M139,0V836H485c0,0,206,0,290,-90c0,0,84,-89,84,-294V0H721V473c0,0,0,147,-49,202c0,0,-48,54,-186,54H277V0Z" 
id="f0_u"
transform="scale(0.001,-0.001)" />

<path d="M287,0L589,729H66v386H205V836l547,-1l-2,-82L433,0Z" 
id="f0_a"
transform="scale(0.001,-0.001)" />

<path d="M114,0l60,312c0,0,2,12,8,39c0,0,6,27,7,37c0,0,2,11,5,30c0,0,2,19,4,33c0,0,1,15,1,31c0,0,0,48,-35,146c0,0,-35,98,-98,208H228c0,0,3,-8,27,-67c0,0,25,-58,41,-117c0,0,21,53,50,90c0,0,29,37,57,57c0,0,29,21,65,32c0,0,37,11,65,14c0,0,28,3,67,3c0,0,300,0,300,-396V0H480V106H761V452c0,0,0,146,-46,215c0,0,-45,70,-118,70c0,0,-134,0,-198,-119c0,0,-36,-68,-67,-222c0,0,-2,-10,-6,-27L253,0Z" 
id="f0_b"
transform="scale(0.001,-0.001)" />

<path d="M66,0V106H322c0,0,75,0,127,23c0,0,53,23,82,67c0,0,29,43,42,98c0,0,13,54,13,124c0,0,0,70,-13,124c0,0,-13,55,-42,98c0,0,-29,44,-82,67c0,0,-52,23,-127,23H66V836H322c0,0,87,0,157,-24c0,0,70,-24,115,-64c0,0,45,-40,74,-94c0,0,30,-55,43,-113c0,0,13,-59,13,-123c0,0,0,-64,-13,-123c0,0,-13,-58,-43,-113c0,0,-29,-54,-74,-94C594,88,549,48,479,24C479,24,409,0,322,0Z" 
id="f0_5"
transform="scale(0.001,-0.001)" />

<path d="M190,0V127H436V977L168,923v137l267,54H586V127H832V0Z" 
id="f0_x"
transform="scale(0.001,-0.001)" />

<path d="M486,98c0,0,117,0,175,114c0,0,59,115,59,344c0,0,0,230,-59,344c0,0,-58,115,-175,115c0,0,-117,0,-175,-115c0,0,-59,-114,-59,-344c0,0,0,-229,59,-344c0,0,58,-114,175,-114ZM485,-20c0,0,-187,0,-285,147c0,0,-99,148,-99,429c0,0,0,282,98,430c0,0,99,148,286,148c0,0,188,0,286,-148c0,0,99,-148,99,-430c0,0,0,-281,-99,-429c0,0,-98,-147,-286,-147Z" 
id="f0_14"
transform="scale(0.001,-0.001)" />


</defs>
</svg>