<?xml version="1.0" encoding="UTF-8" standalone="no"?>
<!DOCTYPE svg PUBLIC "-//W3C//DTD SVG 1.1//EN"
"http://www.w3.org/Graphics/SVG/1.1/DTD/svg11.dtd">
<svg viewBox="0 0 909 1286" version="1.1" xmlns="http://www.w3.org/2000/svg" xmlns:xlink="http://www.w3.org/1999/xlink">
<defs>
<clipPath id="c0_23"><path d="M0,1286.2V0H909.4V1286.2Z" /></clipPath>
<style type="text/css"><![CDATA[
.g0_23{
fill: none;
stroke: #000000;
stroke-width: 0.7638889;
stroke-linecap: butt;
stroke-linejoin: round;
}
.g1_23{
fill: none;
stroke: #0000FF;
stroke-width: 1.0694444;
stroke-linecap: butt;
stroke-linejoin: miter;
}
]]></style>
</defs>
<path d="M648.6,110.4H816.1M648.6,132.5H816.1M649,110v22.9M779,110v22.9M815.7,110v22.9" class="g0_23" />
<g clip-path="url(#c0_23)">
<g fill="#000000" >
<use xlink:href="#f0_13" transform="matrix(12,0,0,12,795.7,127.9)" />
</g>
<g fill="#0000FF" >
<use xlink:href="#f0_p" transform="matrix(12,0,0,12,669.9,169.3)" />
<use xlink:href="#f0_a" transform="matrix(12,0,0,12,682.9,169.3)" />
<use xlink:href="#f0_m" transform="matrix(12,0,0,12,693.1,169.3)" />
<use xlink:href="#f0_3" transform="matrix(12,0,0,12,704.6,169.3)" />
<use xlink:href="#f0_9" transform="matrix(12,0,0,12,720.9,169.3)" />
<use xlink:href="#f0_a" transform="matrix(12,0,0,12,732.8,169.3)" />
<use xlink:href="#f0_o" transform="matrix(12,0,0,12,743.2,169.3)" />
<use xlink:href="#f0_g" transform="matrix(12,0,0,12,749.6,169.3)" />
<use xlink:href="#f0_f" transform="matrix(12,0,0,12,761.5,169.3)" />
</g>
</g>
<path d="M669.8,171.1H772.1" class="g1_23" />
<image preserveAspectRatio="none" x="353" y="162" width="222" height="314" xlink:href="img/1.png" />
<defs>
<path d="M190,0V127H436V977L168,923v137l267,54H586V127H832V0Z" 
id="f0_13"
transform="scale(0.001,-0.001)" />

<path d="M156,-317V454l139,56V-317ZM505,0L806,729H139V835H967V753L650,0Z" 
id="f0_p"
transform="scale(0.001,-0.001)" />

<path d="M585,0V426c0,0,0,54,-8,98c0,0,-8,44,-27,83c0,0,-19,40,-49,66c0,0,-30,26,-77,41c0,0,-47,15,-108,15H66V836H315c0,0,94,0,166,-20c0,0,71,-20,116,-54c0,0,46,-35,75,-88c0,0,28,-52,40,-112c0,0,12,-60,12,-137V0Z" 
id="f0_a"
transform="scale(0.001,-0.001)" />

<path d="M139,0V106H400c0,0,176,0,253,71c0,0,78,72,78,250c0,0,0,163,-80,233c0,0,-81,69,-250,69H278L277,564c0,0,-1,-54,26,-80c0,0,27,-25,82,-25c0,0,30,0,80,9V355c0,0,-61,-12,-111,-12c0,0,-100,0,-157,55c0,0,-58,55,-58,186V836H456c0,0,193,0,303,-109c0,0,110,-109,110,-309c0,0,0,-200,-110,-309C759,109,648,0,456,0Z" 
id="f0_m"
transform="scale(0.001,-0.001)" />

<path d="M287,0L589,729H66v386H205V836l547,-1l-2,-82L433,0Z" 
id="f0_3"
transform="scale(0.001,-0.001)" />

<path d="M154,0V454l138,56V0ZM722,0V454c0,0,0,161,-49,218c0,0,-48,57,-186,57H139V836H485c0,0,207,0,291,-93c0,0,83,-94,83,-318V0Z" 
id="f0_9"
transform="scale(0.001,-0.001)" />

<path d="M152,0V473c0,0,0,94,28,161c0,0,29,66,71,95H66V836H463V729H404c0,0,-65,0,-89,-57c0,0,-25,-58,-25,-199V0Z" 
id="f0_o"
transform="scale(0.001,-0.001)" />

<path d="M139,0V836H485c0,0,206,0,290,-90c0,0,84,-89,84,-294V0H721V473c0,0,0,147,-49,202c0,0,-48,54,-186,54H277V0Z" 
id="f0_g"
transform="scale(0.001,-0.001)" />

<path d="M66,0V107H554V452c0,0,0,56,-4,93c0,0,-4,37,-18,75c0,0,-14,38,-40,60c0,0,-26,22,-71,36c0,0,-45,13,-110,13H66V836H312c0,0,91,0,157,-17c0,0,66,-17,109,-49c0,0,44,-32,69,-84c0,0,26,-52,36,-114c0,0,10,-62,10,-147V107H817V0Z" 
id="f0_f"
transform="scale(0.001,-0.001)" />


</defs>
</svg>