<?xml version="1.0" encoding="UTF-8" standalone="no"?>
<!DOCTYPE svg PUBLIC "-//W3C//DTD SVG 1.1//EN"
"http://www.w3.org/Graphics/SVG/1.1/DTD/svg11.dtd">
<svg viewBox="0 0 909 1286" version="1.1" xmlns="http://www.w3.org/2000/svg" xmlns:xlink="http://www.w3.org/1999/xlink">
<defs>
<clipPath id="c0_10"><path d="M0,1286.2V0H909.4V1286.2Z" /></clipPath>
<style type="text/css"><![CDATA[
.g0_10{
fill: #D8D8D8;
}
.g1_10{
fill: none;
stroke: #000000;
stroke-width: 0.7638889;
stroke-linecap: butt;
stroke-linejoin: round;
}
.g2_10{
fill: none;
stroke: #0000FF;
stroke-width: 1.0694444;
stroke-linecap: butt;
stroke-linejoin: miter;
}
]]></style>
</defs>
<path fill-rule="evenodd" d="M121.2,172.7H283.8V152.8H121.2v19.9Z" class="g0_10" />
<path fill-rule="evenodd" d="M283.9,172.7H446.5V152.8H283.9v19.9Z" class="g0_10" />
<path fill-rule="evenodd" d="M446.6,172.7H609.2V152.8H446.6v19.9Z" class="g0_10" />
<path fill-rule="evenodd" d="M609.3,172.7H771.9V152.8H609.3v19.9Z" class="g0_10" />
<path fill-rule="evenodd" d="M555.2,844.3H771.9V824.1H555.2v20.2Z" class="g0_10" />
<path fill-rule="evenodd" d="M338.2,844.3H555.1V824.1H338.2v20.2Z" class="g0_10" />
<path fill-rule="evenodd" d="M121.3,844.3H338.2V824.1H121.3v20.2Z" class="g0_10" />
<path fill-rule="evenodd" d="M121.2,172.7H283.8V152.8H121.2v19.9Z" class="g0_10" />
<path fill-rule="evenodd" d="M283.9,172.7H446.5V152.8H283.9v19.9Z" class="g0_10" />
<path fill-rule="evenodd" d="M446.6,172.7H609.2V152.8H446.6v19.9Z" class="g0_10" />
<path fill-rule="evenodd" d="M609.3,172.7H771.9V152.8H609.3v19.9Z" class="g0_10" />
<path fill-rule="evenodd" d="M555.2,844.3H771.9V824.1H555.2v20.2Z" class="g0_10" />
<path fill-rule="evenodd" d="M338.2,844.3H555.1V824.1H338.2v20.2Z" class="g0_10" />
<path fill-rule="evenodd" d="M121.3,844.3H338.2V824.1H121.3v20.2Z" class="g0_10" />
<g clip-path="url(#c0_10)">
<g fill="#000000" >
<use xlink:href="#f0_2" transform="matrix(13,0,0,13,137.7,128.6)" />
<use xlink:href="#f0_3" transform="matrix(13,0,0,13,152.8,128.6)" />
<use xlink:href="#f0_4" transform="matrix(13,0,0,13,160,128.6)" />
<use xlink:href="#f0_5" transform="matrix(13,0,0,13,172.6,128.6)" />
<use xlink:href="#f0_6" transform="matrix(13,0,0,13,183,128.6)" />
<use xlink:href="#f0_7" transform="matrix(13,0,0,13,195.1,128.6)" />
<use xlink:href="#f0_6" transform="matrix(13,0,0,13,202.6,128.6)" />
<use xlink:href="#f0_7" transform="matrix(13,0,0,13,214.6,128.6)" />
<use xlink:href="#f0_8" transform="matrix(13,0,0,13,222.1,128.6)" />
<use xlink:href="#f0_a" transform="matrix(13,0,0,13,242.6,128.6)" />
<use xlink:href="#f0_l" transform="matrix(13,0,0,13,263.2,128.6)" />
</g>
</g>
<path d="M120.8,153.2H772.4m-651.6,20H772.4M120.8,195.3H772.4M120.8,217.5H772.4M120.8,239.6H772.4M120.8,261.8H772.4M120.8,283.9H772.4M120.8,306.1H772.4M120.8,328.2H772.4M120.8,350.4H772.4M120.8,372.5H772.4M120.8,394.7H772.4M120.8,416.9H772.4M120.8,439H772.4M120.8,461.2H772.4M121.2,152.8V461.5M283.9,152.8V461.5M446.6,152.8V461.5M609.3,152.8V461.5M772,152.8V461.5" class="g1_10" />
<g clip-path="url(#c0_10)">
<g fill="#000000" >
<use xlink:href="#f1_2" transform="matrix(11,0,0,11,130,169.1)" />
<use xlink:href="#f1_3" transform="matrix(11,0,0,11,141.2,169.1)" />
<use xlink:href="#f1_4" transform="matrix(11,0,0,11,148.6,169.1)" />
<use xlink:href="#f1_5" transform="matrix(11,0,0,11,155.1,169.1)" />
<use xlink:href="#f1_6" transform="matrix(11,0,0,11,159.8,169.1)" />
<use xlink:href="#f1_7" transform="matrix(11,0,0,11,167.2,169.1)" />
<use xlink:href="#f1_7" transform="matrix(11,0,0,11,171.8,169.1)" />
<use xlink:href="#f1_3" transform="matrix(11,0,0,11,176.5,169.1)" />
<use xlink:href="#f1_8" transform="matrix(11,0,0,11,184,169.1)" />
<use xlink:href="#f1_9" transform="matrix(11,0,0,11,192.4,169.1)" />
<use xlink:href="#f1_a" transform="matrix(11,0,0,11,388.8,169.1)" />
<use xlink:href="#f1_6" transform="matrix(11,0,0,11,400.9,169.1)" />
<use xlink:href="#f1_b" transform="matrix(11,0,0,11,408.3,169.1)" />
<use xlink:href="#f1_c" transform="matrix(11,0,0,11,416.8,169.1)" />
<use xlink:href="#f1_6" transform="matrix(11,0,0,11,422.4,169.1)" />
<use xlink:href="#f1_9" transform="matrix(11,0,0,11,429.8,169.1)" />
<use xlink:href="#f1_2" transform="matrix(11,0,0,11,455.4,169.1)" />
<use xlink:href="#f1_3" transform="matrix(11,0,0,11,466.6,169.1)" />
<use xlink:href="#f1_4" transform="matrix(11,0,0,11,474.1,169.1)" />
<use xlink:href="#f1_5" transform="matrix(11,0,0,11,480.5,169.1)" />
<use xlink:href="#f1_6" transform="matrix(11,0,0,11,485.2,169.1)" />
<use xlink:href="#f1_7" transform="matrix(11,0,0,11,492.7,169.1)" />
<use xlink:href="#f1_7" transform="matrix(11,0,0,11,497.2,169.1)" />
<use xlink:href="#f1_3" transform="matrix(11,0,0,11,502,169.1)" />
<use xlink:href="#f1_8" transform="matrix(11,0,0,11,509.4,169.1)" />
<use xlink:href="#f1_9" transform="matrix(11,0,0,11,517.8,169.1)" />
<use xlink:href="#f1_a" transform="matrix(11,0,0,11,714.2,169.1)" />
<use xlink:href="#f1_6" transform="matrix(11,0,0,11,726.3,169.1)" />
<use xlink:href="#f1_b" transform="matrix(11,0,0,11,733.8,169.1)" />
<use xlink:href="#f1_c" transform="matrix(11,0,0,11,742.2,169.1)" />
<use xlink:href="#f1_6" transform="matrix(11,0,0,11,747.8,169.1)" />
<use xlink:href="#f1_9" transform="matrix(11,0,0,11,755.3,169.1)" />
<use xlink:href="#f1_c" transform="matrix(11,0,0,11,130,189.3)" />
<use xlink:href="#f1_6" transform="matrix(11,0,0,11,135.5,189.3)" />
<use xlink:href="#f1_4" transform="matrix(11,0,0,11,143,189.3)" />
<use xlink:href="#f1_d" transform="matrix(11,0,0,11,149.5,189.3)" />
<use xlink:href="#f1_e" transform="matrix(11,0,0,11,157.9,189.3)" />
<use xlink:href="#f1_c" transform="matrix(11,0,0,11,162.5,189.3)" />
<use xlink:href="#f1_3" transform="matrix(11,0,0,11,168.1,189.3)" />
<use xlink:href="#f1_f" transform="matrix(11,0,0,11,175.6,189.3)" />
<use xlink:href="#f1_e" transform="matrix(11,0,0,11,183.1,189.3)" />
<use xlink:href="#f1_g" transform="matrix(11,0,0,11,187.8,189.3)" />
<use xlink:href="#f1_8" transform="matrix(11,0,0,11,196.2,189.3)" />
<use xlink:href="#f1_1s" transform="matrix(11,0,0,11,208.7,189.3)" />
<use xlink:href="#f1_s" transform="matrix(11,0,0,11,214.3,189.3)" />
<use xlink:href="#f1_1u" transform="matrix(11,0,0,11,219.8,189.3)" />
<use xlink:href="#f2_3" transform="matrix(12,0,0,12,389.7,190.7)" />
<use xlink:href="#f2_l" transform="matrix(12,0,0,12,401.7,190.7)" />
<use xlink:href="#f2_q" transform="matrix(12,0,0,12,414,190.7)" />
<use xlink:href="#f2_o" transform="matrix(12,0,0,12,418.1,190.7)" />
<use xlink:href="#f2_d" transform="matrix(12,0,0,12,431.1,190.7)" />
<use xlink:href="#f3_2" transform="matrix(11,0,0,11,455.4,189.3)" />
<use xlink:href="#f3_3" transform="matrix(11,0,0,11,462,189.3)" />
<use xlink:href="#f3_4" transform="matrix(11,0,0,11,470.4,189.3)" />
<use xlink:href="#f3_5" transform="matrix(11,0,0,11,478.8,189.3)" />
<use xlink:href="#f3_7" transform="matrix(11,0,0,11,491.3,189.3)" />
<use xlink:href="#f3_8" transform="matrix(11,0,0,11,496.9,189.3)" />
<use xlink:href="#f3_9" transform="matrix(11,0,0,11,509,189.3)" />
<use xlink:href="#f4_2" transform="matrix(12,0,0,12,726.6,190.7)" />
<use xlink:href="#f4_3" transform="matrix(12,0,0,12,738.8,190.7)" />
<use xlink:href="#f4_4" transform="matrix(12,0,0,12,742.9,190.7)" />
<use xlink:href="#f4_5" transform="matrix(12,0,0,12,753.3,190.7)" />
<use xlink:href="#f1_f" transform="matrix(11,0,0,11,130,211.4)" />
<use xlink:href="#f1_3" transform="matrix(11,0,0,11,137.3,211.4)" />
<use xlink:href="#f1_7" transform="matrix(11,0,0,11,144.8,211.4)" />
<use xlink:href="#f1_9" transform="matrix(11,0,0,11,149.5,211.4)" />
<use xlink:href="#f1_c" transform="matrix(11,0,0,11,157.9,211.4)" />
<use xlink:href="#f1_1s" transform="matrix(11,0,0,11,167.7,211.4)" />
<use xlink:href="#f1_i" transform="matrix(11,0,0,11,173.3,211.4)" />
<use xlink:href="#f1_1u" transform="matrix(11,0,0,11,186.3,211.4)" />
<use xlink:href="#f2_i" transform="matrix(12,0,0,12,409.3,212.8)" />
<use xlink:href="#f2_17" transform="matrix(12,0,0,12,421.5,212.8)" />
<use xlink:href="#f2_c" transform="matrix(12,0,0,12,421.5,212.8)" />
<use xlink:href="#f2_h" transform="matrix(12,0,0,12,426.5,212.8)" />
<use xlink:href="#f3_a" transform="matrix(11,0,0,11,455.4,211.4)" />
<use xlink:href="#f3_2" transform="matrix(11,0,0,11,460,211.4)" />
<use xlink:href="#f3_b" transform="matrix(11,0,0,11,466.6,211.4)" />
<use xlink:href="#f3_3" transform="matrix(11,0,0,11,471.3,211.4)" />
<use xlink:href="#f3_7" transform="matrix(11,0,0,11,483.8,211.4)" />
<use xlink:href="#f3_c" transform="matrix(11,0,0,11,489.4,211.4)" />
<use xlink:href="#f3_9" transform="matrix(11,0,0,11,494,211.4)" />
<use xlink:href="#f4_3" transform="matrix(12,0,0,12,747.5,212.8)" />
<use xlink:href="#f4_2" transform="matrix(12,0,0,12,751.6,212.8)" />
<use xlink:href="#f1_i" transform="matrix(11,0,0,11,130,233.6)" />
<use xlink:href="#f1_j" transform="matrix(11,0,0,11,143,233.6)" />
<use xlink:href="#f1_k" transform="matrix(11,0,0,11,150.5,233.6)" />
<use xlink:href="#f1_e" transform="matrix(11,0,0,11,158.9,233.6)" />
<use xlink:href="#f1_f" transform="matrix(11,0,0,11,163.6,233.6)" />
<use xlink:href="#f1_9" transform="matrix(11,0,0,11,171.1,233.6)" />
<use xlink:href="#f1_1s" transform="matrix(11,0,0,11,183.6,233.6)" />
<use xlink:href="#f1_i" transform="matrix(11,0,0,11,189.2,233.6)" />
<use xlink:href="#f1_1u" transform="matrix(11,0,0,11,202.2,233.6)" />
<use xlink:href="#f2_9" transform="matrix(12,0,0,12,399.5,235)" />
<use xlink:href="#f2_8" transform="matrix(12,0,0,12,411.7,235)" />
<use xlink:href="#f2_c" transform="matrix(12,0,0,12,423.2,235)" />
<use xlink:href="#f2_7" transform="matrix(12,0,0,12,428.1,235)" />
<use xlink:href="#f3_d" transform="matrix(11,0,0,11,455.4,233.6)" />
<use xlink:href="#f3_e" transform="matrix(11,0,0,11,460,233.6)" />
<use xlink:href="#f3_f" transform="matrix(11,0,0,11,467.5,233.6)" />
<use xlink:href="#f3_f" transform="matrix(11,0,0,11,474,233.6)" />
<use xlink:href="#f3_a" transform="matrix(11,0,0,11,480.5,233.6)" />
<use xlink:href="#f3_g" transform="matrix(11,0,0,11,485.2,233.6)" />
<use xlink:href="#f3_b" transform="matrix(11,0,0,11,493.6,233.6)" />
<use xlink:href="#f3_e" transform="matrix(11,0,0,11,498.3,233.6)" />
<use xlink:href="#f3_7" transform="matrix(11,0,0,11,509.9,233.6)" />
<use xlink:href="#f3_4" transform="matrix(11,0,0,11,515.5,233.6)" />
<use xlink:href="#f3_9" transform="matrix(11,0,0,11,523.9,233.6)" />
<use xlink:href="#f4_6" transform="matrix(12,0,0,12,730.4,235)" />
<use xlink:href="#f4_7" transform="matrix(12,0,0,12,742.5,235)" />
<use xlink:href="#f4_3" transform="matrix(12,0,0,12,747.5,235)" />
<use xlink:href="#f4_2" transform="matrix(12,0,0,12,751.6,235)" />
<use xlink:href="#f1_3" transform="matrix(11,0,0,11,130,255.8)" />
<use xlink:href="#f1_i" transform="matrix(11,0,0,11,137.3,255.8)" />
<use xlink:href="#f1_3" transform="matrix(11,0,0,11,150.5,255.8)" />
<use xlink:href="#f1_8" transform="matrix(11,0,0,11,157.9,255.8)" />
<use xlink:href="#f1_5" transform="matrix(11,0,0,11,166.3,255.8)" />
<use xlink:href="#f1_6" transform="matrix(11,0,0,11,170.9,255.8)" />
<use xlink:href="#f1_1s" transform="matrix(11,0,0,11,182.6,255.8)" />
<use xlink:href="#f1_8" transform="matrix(11,0,0,11,188.3,255.8)" />
<use xlink:href="#f1_1u" transform="matrix(11,0,0,11,196.5,255.8)" />
<use xlink:href="#f2_b" transform="matrix(12,0,0,12,373.1,257.1)" />
<use xlink:href="#f2_w" transform="matrix(12,0,0,12,385.1,257.1)" />
<use xlink:href="#f2_f" transform="matrix(12,0,0,12,391.2,257.1)" />
<use xlink:href="#f2_3" transform="matrix(12,0,0,12,401.8,257.1)" />
<use xlink:href="#f2_9" transform="matrix(12,0,0,12,413.7,257.1)" />
<use xlink:href="#f2_l" transform="matrix(12,0,0,12,425.9,257.1)" />
<use xlink:href="#f1_6" transform="matrix(11,0,0,11,455.4,255.8)" />
<use xlink:href="#f1_4" transform="matrix(11,0,0,11,462.8,255.8)" />
<use xlink:href="#f1_l" transform="matrix(11,0,0,11,469.3,255.8)" />
<use xlink:href="#f1_m" transform="matrix(11,0,0,11,477.7,255.8)" />
<use xlink:href="#f1_e" transform="matrix(11,0,0,11,486.1,255.8)" />
<use xlink:href="#f1_8" transform="matrix(11,0,0,11,490.8,255.8)" />
<use xlink:href="#f1_3" transform="matrix(11,0,0,11,499.2,255.8)" />
<use xlink:href="#f1_1s" transform="matrix(11,0,0,11,510.8,255.8)" />
<use xlink:href="#f1_s" transform="matrix(11,0,0,11,516.5,255.8)" />
<use xlink:href="#f1_1u" transform="matrix(11,0,0,11,521.9,255.8)" />
<use xlink:href="#f2_3" transform="matrix(12,0,0,12,729.1,257.1)" />
<use xlink:href="#f2_d" transform="matrix(12,0,0,12,741,257.1)" />
<use xlink:href="#f2_q" transform="matrix(12,0,0,12,748.3,257.1)" />
<use xlink:href="#f2_8" transform="matrix(12,0,0,12,752.4,257.1)" />
<use xlink:href="#f1_7" transform="matrix(11,0,0,11,130,277.9)" />
<use xlink:href="#f1_e" transform="matrix(11,0,0,11,134.6,277.9)" />
<use xlink:href="#f1_b" transform="matrix(11,0,0,11,139.3,277.9)" />
<use xlink:href="#f1_6" transform="matrix(11,0,0,11,147.7,277.9)" />
<use xlink:href="#f1_c" transform="matrix(11,0,0,11,155.1,277.9)" />
<use xlink:href="#f1_5" transform="matrix(11,0,0,11,160.7,277.9)" />
<use xlink:href="#f1_3" transform="matrix(11,0,0,11,165.4,277.9)" />
<use xlink:href="#f1_k" transform="matrix(11,0,0,11,172.9,277.9)" />
<use xlink:href="#f1_1s" transform="matrix(11,0,0,11,185.4,277.9)" />
<use xlink:href="#f1_s" transform="matrix(11,0,0,11,191,277.9)" />
<use xlink:href="#f1_1u" transform="matrix(11,0,0,11,196.5,277.9)" />
<use xlink:href="#f2_o" transform="matrix(12,0,0,12,397.1,279.3)" />
<use xlink:href="#f2_8" transform="matrix(12,0,0,12,410,279.3)" />
<use xlink:href="#f2_c" transform="matrix(12,0,0,12,421.5,279.3)" />
<use xlink:href="#f2_h" transform="matrix(12,0,0,12,426.5,279.3)" />
<use xlink:href="#f1_e" transform="matrix(11,0,0,11,455.4,277.9)" />
<use xlink:href="#f1_8" transform="matrix(11,0,0,11,460,277.9)" />
<use xlink:href="#f1_5" transform="matrix(11,0,0,11,468.4,277.9)" />
<use xlink:href="#f1_6" transform="matrix(11,0,0,11,473.1,277.9)" />
<use xlink:href="#f1_7" transform="matrix(11,0,0,11,480.5,277.9)" />
<use xlink:href="#f1_e" transform="matrix(11,0,0,11,485.2,277.9)" />
<use xlink:href="#f1_n" transform="matrix(11,0,0,11,489.9,277.9)" />
<use xlink:href="#f1_6" transform="matrix(11,0,0,11,498.3,277.9)" />
<use xlink:href="#f1_8" transform="matrix(11,0,0,11,505.8,277.9)" />
<use xlink:href="#f1_5" transform="matrix(11,0,0,11,514,277.9)" />
<use xlink:href="#f1_6" transform="matrix(11,0,0,11,518.8,277.9)" />
<use xlink:href="#f1_1s" transform="matrix(11,0,0,11,530.5,277.9)" />
<use xlink:href="#f1_8" transform="matrix(11,0,0,11,536,277.9)" />
<use xlink:href="#f1_1u" transform="matrix(11,0,0,11,544.4,277.9)" />
<use xlink:href="#f2_q" transform="matrix(12,0,0,12,678.8,279.3)" />
<use xlink:href="#f2_k" transform="matrix(12,0,0,12,682.9,279.3)" />
<use xlink:href="#f2_d" transform="matrix(12,0,0,12,694.8,279.3)" />
<use xlink:href="#f2_j" transform="matrix(12,0,0,12,702.1,279.3)" />
<use xlink:href="#f2_q" transform="matrix(12,0,0,12,709.6,279.3)" />
<use xlink:href="#f2_e" transform="matrix(12,0,0,12,713.7,279.3)" />
<use xlink:href="#f2_q" transform="matrix(12,0,0,12,724.1,279.3)" />
<use xlink:href="#f2_k" transform="matrix(12,0,0,12,728.2,279.3)" />
<use xlink:href="#f2_d" transform="matrix(12,0,0,12,740.1,279.3)" />
<use xlink:href="#f2_q" transform="matrix(12,0,0,12,747.4,279.3)" />
<use xlink:href="#f2_9" transform="matrix(12,0,0,12,751.6,279.3)" />
<use xlink:href="#f1_d" transform="matrix(11,0,0,11,130,300.1)" />
<use xlink:href="#f1_6" transform="matrix(11,0,0,11,138.4,300.1)" />
<use xlink:href="#f1_f" transform="matrix(11,0,0,11,145.7,300.1)" />
<use xlink:href="#f1_o" transform="matrix(11,0,0,11,153.2,300.1)" />
<use xlink:href="#f1_9" transform="matrix(11,0,0,11,161.6,300.1)" />
<use xlink:href="#f1_1s" transform="matrix(11,0,0,11,174.3,300.1)" />
<use xlink:href="#f1_i" transform="matrix(11,0,0,11,179.8,300.1)" />
<use xlink:href="#f1_1u" transform="matrix(11,0,0,11,192.9,300.1)" />
<use xlink:href="#f2_3" transform="matrix(12,0,0,12,408.2,301.4)" />
<use xlink:href="#f2_4" transform="matrix(12,0,0,12,420.1,301.4)" />
<use xlink:href="#f2_h" transform="matrix(12,0,0,12,426.5,301.4)" />
<use xlink:href="#f1_d" transform="matrix(11,0,0,11,455.4,300.1)" />
<use xlink:href="#f1_3" transform="matrix(11,0,0,11,463.8,300.1)" />
<use xlink:href="#f1_p" transform="matrix(11,0,0,11,471.2,300.1)" />
<use xlink:href="#f1_4" transform="matrix(11,0,0,11,475.9,300.1)" />
<use xlink:href="#f1_1s" transform="matrix(11,0,0,11,486.7,300.1)" />
<use xlink:href="#f1_i" transform="matrix(11,0,0,11,492.2,300.1)" />
<use xlink:href="#f1_1u" transform="matrix(11,0,0,11,505.3,300.1)" />
<use xlink:href="#f2_18" transform="matrix(12,0,0,12,731.3,301.4)" />
<use xlink:href="#f2_7" transform="matrix(12,0,0,12,741.3,301.4)" />
<use xlink:href="#f2_9" transform="matrix(12,0,0,12,751.6,301.4)" />
<use xlink:href="#f1_e" transform="matrix(11,0,0,11,130,322.2)" />
<use xlink:href="#f1_8" transform="matrix(11,0,0,11,134.6,322.2)" />
<use xlink:href="#f1_5" transform="matrix(11,0,0,11,143,322.2)" />
<use xlink:href="#f1_6" transform="matrix(11,0,0,11,147.7,322.2)" />
<use xlink:href="#f1_8" transform="matrix(11,0,0,11,155.2,322.2)" />
<use xlink:href="#f1_f" transform="matrix(11,0,0,11,163.6,322.2)" />
<use xlink:href="#f1_e" transform="matrix(11,0,0,11,170.9,322.2)" />
<use xlink:href="#f1_g" transform="matrix(11,0,0,11,175.6,322.2)" />
<use xlink:href="#f1_8" transform="matrix(11,0,0,11,184,322.2)" />
<use xlink:href="#f1_1s" transform="matrix(11,0,0,11,196.7,322.2)" />
<use xlink:href="#f1_s" transform="matrix(11,0,0,11,202.2,322.2)" />
<use xlink:href="#f1_1u" transform="matrix(11,0,0,11,207.8,322.2)" />
<use xlink:href="#f2_3" transform="matrix(12,0,0,12,399.5,323.6)" />
<use xlink:href="#f2_d" transform="matrix(12,0,0,12,411.4,323.6)" />
<use xlink:href="#f2_c" transform="matrix(12,0,0,12,418.8,323.6)" />
<use xlink:href="#f2_c" transform="matrix(12,0,0,12,423.8,323.6)" />
<use xlink:href="#f2_n" transform="matrix(12,0,0,12,428.8,323.6)" />
<use xlink:href="#f1_f" transform="matrix(11,0,0,11,455.4,322.2)" />
<use xlink:href="#f1_9" transform="matrix(11,0,0,11,462.9,322.2)" />
<use xlink:href="#f1_8" transform="matrix(11,0,0,11,471.3,322.2)" />
<use xlink:href="#f1_r" transform="matrix(11,0,0,11,479.7,322.2)" />
<use xlink:href="#f1_6" transform="matrix(11,0,0,11,487.9,322.2)" />
<use xlink:href="#f1_c" transform="matrix(11,0,0,11,495.4,322.2)" />
<use xlink:href="#f1_4" transform="matrix(11,0,0,11,501,322.2)" />
<use xlink:href="#f1_3" transform="matrix(11,0,0,11,507.6,322.2)" />
<use xlink:href="#f1_f" transform="matrix(11,0,0,11,515.1,322.2)" />
<use xlink:href="#f1_e" transform="matrix(11,0,0,11,522.4,322.2)" />
<use xlink:href="#f1_g" transform="matrix(11,0,0,11,527.1,322.2)" />
<use xlink:href="#f1_8" transform="matrix(11,0,0,11,535.5,322.2)" />
<use xlink:href="#f1_1s" transform="matrix(11,0,0,11,548.2,322.2)" />
<use xlink:href="#f1_s" transform="matrix(11,0,0,11,553.7,322.2)" />
<use xlink:href="#f1_1u" transform="matrix(11,0,0,11,559.3,322.2)" />
<use xlink:href="#f2_3" transform="matrix(12,0,0,12,722.9,323.6)" />
<use xlink:href="#f2_h" transform="matrix(12,0,0,12,734.9,323.6)" />
<use xlink:href="#f2_q" transform="matrix(12,0,0,12,746.8,323.6)" />
<use xlink:href="#f2_o" transform="matrix(12,0,0,12,750.9,323.6)" />
<use xlink:href="#f1_i" transform="matrix(11,0,0,11,130,344.4)" />
<use xlink:href="#f1_e" transform="matrix(11,0,0,11,143,344.4)" />
<use xlink:href="#f1_5" transform="matrix(11,0,0,11,147.7,344.4)" />
<use xlink:href="#f1_3" transform="matrix(11,0,0,11,152.3,344.4)" />
<use xlink:href="#f1_k" transform="matrix(11,0,0,11,159.8,344.4)" />
<use xlink:href="#f1_1s" transform="matrix(11,0,0,11,172.4,344.4)" />
<use xlink:href="#f1_s" transform="matrix(11,0,0,11,177.9,344.4)" />
<use xlink:href="#f1_1u" transform="matrix(11,0,0,11,183.6,344.4)" />
<use xlink:href="#f2_b" transform="matrix(12,0,0,12,387,345.7)" />
<use xlink:href="#f2_q" transform="matrix(12,0,0,12,399,345.7)" />
<use xlink:href="#f2_s" transform="matrix(12,0,0,12,403.1,345.7)" />
<use xlink:href="#f2_h" transform="matrix(12,0,0,12,414,345.7)" />
<use xlink:href="#f2_l" transform="matrix(12,0,0,12,425.9,345.7)" />
<use xlink:href="#f1_s" transform="matrix(11,0,0,11,455.4,344.4)" />
<use xlink:href="#f1_e" transform="matrix(11,0,0,11,460.9,344.4)" />
<use xlink:href="#f1_8" transform="matrix(11,0,0,11,465.6,344.4)" />
<use xlink:href="#f1_1s" transform="matrix(11,0,0,11,478.3,344.4)" />
<use xlink:href="#f1_i" transform="matrix(11,0,0,11,483.8,344.4)" />
<use xlink:href="#f1_1u" transform="matrix(11,0,0,11,496.9,344.4)" />
<use xlink:href="#f2_10" transform="matrix(12,0,0,12,735.3,345.7)" />
<use xlink:href="#f2_c" transform="matrix(12,0,0,12,747.1,345.7)" />
<use xlink:href="#f2_g" transform="matrix(12,0,0,12,752,345.7)" />
<use xlink:href="#f1_i" transform="matrix(11,0,0,11,130,366.5)" />
<use xlink:href="#f1_e" transform="matrix(11,0,0,11,143,366.5)" />
<use xlink:href="#f1_8" transform="matrix(11,0,0,11,147.7,366.5)" />
<use xlink:href="#f1_6" transform="matrix(11,0,0,11,156.1,366.5)" />
<use xlink:href="#f1_c" transform="matrix(11,0,0,11,163.5,366.5)" />
<use xlink:href="#f1_3" transform="matrix(11,0,0,11,169.1,366.5)" />
<use xlink:href="#f1_7" transform="matrix(11,0,0,11,176.5,366.5)" />
<use xlink:href="#f1_1s" transform="matrix(11,0,0,11,185.4,366.5)" />
<use xlink:href="#f1_i" transform="matrix(11,0,0,11,191,366.5)" />
<use xlink:href="#f1_1u" transform="matrix(11,0,0,11,204,366.5)" />
<use xlink:href="#f2_e" transform="matrix(12,0,0,12,393.9,367.9)" />
<use xlink:href="#f2_7" transform="matrix(12,0,0,12,404.3,367.9)" />
<use xlink:href="#f2_d" transform="matrix(12,0,0,12,414.6,367.9)" />
<use xlink:href="#f2_q" transform="matrix(12,0,0,12,422,367.9)" />
<use xlink:href="#f2_l" transform="matrix(12,0,0,12,425.9,367.9)" />
<use xlink:href="#f1_o" transform="matrix(11,0,0,11,455.4,366.5)" />
<use xlink:href="#f1_9" transform="matrix(11,0,0,11,463.8,366.5)" />
<use xlink:href="#f1_c" transform="matrix(11,0,0,11,472.1,366.5)" />
<use xlink:href="#f1_8" transform="matrix(11,0,0,11,477.7,366.5)" />
<use xlink:href="#f1_9" transform="matrix(11,0,0,11,486.1,366.5)" />
<use xlink:href="#f1_1s" transform="matrix(11,0,0,11,498.8,366.5)" />
<use xlink:href="#f1_i" transform="matrix(11,0,0,11,504.3,366.5)" />
<use xlink:href="#f1_1u" transform="matrix(11,0,0,11,517.4,366.5)" />
<use xlink:href="#f2_7" transform="matrix(12,0,0,12,729.2,367.9)" />
<use xlink:href="#f2_c" transform="matrix(12,0,0,12,739.6,367.9)" />
<use xlink:href="#f2_d" transform="matrix(12,0,0,12,744.5,367.9)" />
<use xlink:href="#f2_b" transform="matrix(12,0,0,12,751.8,367.9)" />
<use xlink:href="#f1_7" transform="matrix(11,0,0,11,130,388.7)" />
<use xlink:href="#f1_6" transform="matrix(11,0,0,11,134.6,388.7)" />
<use xlink:href="#f1_f" transform="matrix(11,0,0,11,142.1,388.7)" />
<use xlink:href="#f1_o" transform="matrix(11,0,0,11,149.5,388.7)" />
<use xlink:href="#f1_6" transform="matrix(11,0,0,11,157.9,388.7)" />
<use xlink:href="#f1_1s" transform="matrix(11,0,0,11,169.5,388.7)" />
<use xlink:href="#f1_s" transform="matrix(11,0,0,11,175.1,388.7)" />
<use xlink:href="#f1_1u" transform="matrix(11,0,0,11,180.6,388.7)" />
<use xlink:href="#f2_f" transform="matrix(12,0,0,12,405.6,390)" />
<use xlink:href="#f2_e" transform="matrix(12,0,0,12,416.2,390)" />
<use xlink:href="#f2_h" transform="matrix(12,0,0,12,426.6,390)" />
<use xlink:href="#f1_3" transform="matrix(11,0,0,11,455.4,388.7)" />
<use xlink:href="#f1_c" transform="matrix(11,0,0,11,462.8,388.7)" />
<use xlink:href="#f1_5" transform="matrix(11,0,0,11,468.4,388.7)" />
<use xlink:href="#f1_e" transform="matrix(11,0,0,11,473,388.7)" />
<use xlink:href="#f1_4" transform="matrix(11,0,0,11,477.7,388.7)" />
<use xlink:href="#f1_5" transform="matrix(11,0,0,11,484.3,388.7)" />
<use xlink:href="#f1_3" transform="matrix(11,0,0,11,489,388.7)" />
<use xlink:href="#f1_1s" transform="matrix(11,0,0,11,500.6,388.7)" />
<use xlink:href="#f1_8" transform="matrix(11,0,0,11,506.2,388.7)" />
<use xlink:href="#f1_1u" transform="matrix(11,0,0,11,514.6,388.7)" />
<use xlink:href="#f2_t" transform="matrix(12,0,0,12,729.2,390)" />
<use xlink:href="#f2_l" transform="matrix(12,0,0,12,734.2,390)" />
<use xlink:href="#f2_c" transform="matrix(12,0,0,12,746.6,390)" />
<use xlink:href="#f2_9" transform="matrix(12,0,0,12,751.6,390)" />
<use xlink:href="#f1_e" transform="matrix(11,0,0,11,130,410.8)" />
<use xlink:href="#f1_k" transform="matrix(11,0,0,11,134.6,410.8)" />
<use xlink:href="#f1_e" transform="matrix(11,0,0,11,143,410.8)" />
<use xlink:href="#f1_9" transform="matrix(11,0,0,11,147.7,410.8)" />
<use xlink:href="#f1_i" transform="matrix(11,0,0,11,156.1,410.8)" />
<use xlink:href="#f1_3" transform="matrix(11,0,0,11,169.1,410.8)" />
<use xlink:href="#f1_1s" transform="matrix(11,0,0,11,180.9,410.8)" />
<use xlink:href="#f1_i" transform="matrix(11,0,0,11,186.3,410.8)" />
<use xlink:href="#f1_1u" transform="matrix(11,0,0,11,199.5,410.8)" />
<use xlink:href="#f2_x" transform="matrix(12,0,0,12,348,412.2)" />
<use xlink:href="#f2_j" transform="matrix(12,0,0,12,355.2,412.2)" />
<use xlink:href="#f2_q" transform="matrix(12,0,0,12,362.7,412.2)" />
<use xlink:href="#f2_7" transform="matrix(12,0,0,12,366.8,412.2)" />
<use xlink:href="#f2_h" transform="matrix(12,0,0,12,377.2,412.2)" />
<use xlink:href="#f2_y" transform="matrix(12,0,0,12,389.1,412.2)" />
<use xlink:href="#f2_3" transform="matrix(12,0,0,12,402.1,412.2)" />
<use xlink:href="#f2_8" transform="matrix(12,0,0,12,414,412.2)" />
<use xlink:href="#f2_o" transform="matrix(12,0,0,12,425.4,412.2)" />
<use xlink:href="#f1_7" transform="matrix(11,0,0,11,455.4,410.8)" />
<use xlink:href="#f1_m" transform="matrix(11,0,0,11,460,410.8)" />
<use xlink:href="#f1_t" transform="matrix(11,0,0,11,468.4,410.8)" />
<use xlink:href="#f1_1s" transform="matrix(11,0,0,11,480.2,410.8)" />
<use xlink:href="#f1_s" transform="matrix(11,0,0,11,485.6,410.8)" />
<use xlink:href="#f1_1u" transform="matrix(11,0,0,11,491.3,410.8)" />
<use xlink:href="#f2_7" transform="matrix(12,0,0,12,736.4,412.2)" />
<use xlink:href="#f2_c" transform="matrix(12,0,0,12,746.6,412.2)" />
<use xlink:href="#f2_9" transform="matrix(12,0,0,12,751.6,412.2)" />
<use xlink:href="#f1_c" transform="matrix(11,0,0,11,130,433)" />
<use xlink:href="#f1_3" transform="matrix(11,0,0,11,135.5,433)" />
<use xlink:href="#f1_k" transform="matrix(11,0,0,11,143,433)" />
<use xlink:href="#f1_e" transform="matrix(11,0,0,11,151.4,433)" />
<use xlink:href="#f1_9" transform="matrix(11,0,0,11,156.1,433)" />
<use xlink:href="#f1_1s" transform="matrix(11,0,0,11,168.6,433)" />
<use xlink:href="#f1_s" transform="matrix(11,0,0,11,174.2,433)" />
<use xlink:href="#f1_1u" transform="matrix(11,0,0,11,179.7,433)" />
<use xlink:href="#f2_x" transform="matrix(12,0,0,12,354.9,434.3)" />
<use xlink:href="#f2_j" transform="matrix(12,0,0,12,362.1,434.3)" />
<use xlink:href="#f2_q" transform="matrix(12,0,0,12,369.6,434.3)" />
<use xlink:href="#f2_7" transform="matrix(12,0,0,12,373.7,434.3)" />
<use xlink:href="#f2_h" transform="matrix(12,0,0,12,384,434.3)" />
<use xlink:href="#f2_y" transform="matrix(12,0,0,12,396,434.3)" />
<use xlink:href="#f2_c" transform="matrix(12,0,0,12,408.9,434.3)" />
<use xlink:href="#f2_q" transform="matrix(12,0,0,12,414,434.3)" />
<use xlink:href="#f2_r" transform="matrix(12,0,0,12,418.1,434.3)" />
<use xlink:href="#f2_7" transform="matrix(12,0,0,12,428,434.3)" />
<use xlink:href="#f1_l" transform="matrix(11,0,0,11,455.4,433)" />
<use xlink:href="#f1_m" transform="matrix(11,0,0,11,463.8,433)" />
<use xlink:href="#f1_6" transform="matrix(11,0,0,11,472.2,433)" />
<use xlink:href="#f1_i" transform="matrix(11,0,0,11,479.6,433)" />
<use xlink:href="#f1_3" transform="matrix(11,0,0,11,492.7,433)" />
<use xlink:href="#f1_k" transform="matrix(11,0,0,11,500.2,433)" />
<use xlink:href="#f1_9" transform="matrix(11,0,0,11,508.6,433)" />
<use xlink:href="#f1_1s" transform="matrix(11,0,0,11,521.3,433)" />
<use xlink:href="#f1_i" transform="matrix(11,0,0,11,526.8,433)" />
<use xlink:href="#f1_1u" transform="matrix(11,0,0,11,539.9,433)" />
<use xlink:href="#f2_10" transform="matrix(12,0,0,12,723.9,434.3)" />
<use xlink:href="#f2_c" transform="matrix(12,0,0,12,735.6,434.3)" />
<use xlink:href="#f2_7" transform="matrix(12,0,0,12,740.5,434.3)" />
<use xlink:href="#f2_o" transform="matrix(12,0,0,12,750.9,434.3)" />
<use xlink:href="#f1_8" transform="matrix(11,0,0,11,130,455.1)" />
<use xlink:href="#f1_9" transform="matrix(11,0,0,11,138.4,455.1)" />
<use xlink:href="#f1_f" transform="matrix(11,0,0,11,146.8,455.1)" />
<use xlink:href="#f1_o" transform="matrix(11,0,0,11,154.3,455.1)" />
<use xlink:href="#f1_6" transform="matrix(11,0,0,11,162.5,455.1)" />
<use xlink:href="#f1_1s" transform="matrix(11,0,0,11,174.3,455.1)" />
<use xlink:href="#f1_s" transform="matrix(11,0,0,11,179.8,455.1)" />
<use xlink:href="#f1_1u" transform="matrix(11,0,0,11,185.4,455.1)" />
<use xlink:href="#f2_x" transform="matrix(12,0,0,12,347.6,456.5)" />
<use xlink:href="#f2_j" transform="matrix(12,0,0,12,354.7,456.5)" />
<use xlink:href="#f2_q" transform="matrix(12,0,0,12,362.2,456.5)" />
<use xlink:href="#f2_7" transform="matrix(12,0,0,12,366.2,456.5)" />
<use xlink:href="#f2_h" transform="matrix(12,0,0,12,376.6,456.5)" />
<use xlink:href="#f2_y" transform="matrix(12,0,0,12,388.5,456.5)" />
<use xlink:href="#f2_3" transform="matrix(12,0,0,12,401.6,456.5)" />
<use xlink:href="#f2_e" transform="matrix(12,0,0,12,413.5,456.5)" />
<use xlink:href="#f2_q" transform="matrix(12,0,0,12,423.9,456.5)" />
<use xlink:href="#f2_e" transform="matrix(12,0,0,12,428,456.5)" />
<use xlink:href="#f1_f" transform="matrix(11,0,0,11,455.4,455.1)" />
<use xlink:href="#f1_9" transform="matrix(11,0,0,11,462.9,455.1)" />
<use xlink:href="#f1_8" transform="matrix(11,0,0,11,471.3,455.1)" />
<use xlink:href="#f1_6" transform="matrix(11,0,0,11,479.5,455.1)" />
<use xlink:href="#f1_u" transform="matrix(11,0,0,11,487,455.1)" />
<use xlink:href="#f1_9" transform="matrix(11,0,0,11,491.7,455.1)" />
<use xlink:href="#f1_1s" transform="matrix(11,0,0,11,504.4,455.1)" />
<use xlink:href="#f1_i" transform="matrix(11,0,0,11,509.9,455.1)" />
<use xlink:href="#f1_1u" transform="matrix(11,0,0,11,523,455.1)" />
<use xlink:href="#f2_f" transform="matrix(12,0,0,12,723.4,456.5)" />
<use xlink:href="#f2_d" transform="matrix(12,0,0,12,733.9,456.5)" />
<use xlink:href="#f2_7" transform="matrix(12,0,0,12,741.3,456.5)" />
<use xlink:href="#f2_9" transform="matrix(12,0,0,12,751.7,456.5)" />
</g>
<g fill="#0000FF" >
<use xlink:href="#f2_6" transform="matrix(11,0,0,11,678.5,496.5)" />
<use xlink:href="#f2_7" transform="matrix(11,0,0,11,690.4,496.5)" />
<use xlink:href="#f2_8" transform="matrix(11,0,0,11,699.7,496.5)" />
<use xlink:href="#f2_e" transform="matrix(11,0,0,11,710.2,496.5)" />
<use xlink:href="#f2_3" transform="matrix(11,0,0,11,725.2,496.5)" />
<use xlink:href="#f2_7" transform="matrix(11,0,0,11,736.2,496.5)" />
<use xlink:href="#f2_4" transform="matrix(11,0,0,11,745.7,496.5)" />
<use xlink:href="#f2_h" transform="matrix(11,0,0,11,751.5,496.5)" />
<use xlink:href="#f2_f" transform="matrix(11,0,0,11,762.3,496.5)" />
</g>
</g>
<path d="M678.3,498.2H772" class="g2_10" />
<g clip-path="url(#c0_10)">
<g fill="#000000" >
<use xlink:href="#f0_2" transform="matrix(13,0,0,13,137.7,557.8)" />
<use xlink:href="#f0_3" transform="matrix(13,0,0,13,152.8,557.8)" />
<use xlink:href="#f0_4" transform="matrix(13,0,0,13,160,557.8)" />
<use xlink:href="#f0_5" transform="matrix(13,0,0,13,172.6,557.8)" />
<use xlink:href="#f0_6" transform="matrix(13,0,0,13,183,557.8)" />
<use xlink:href="#f0_7" transform="matrix(13,0,0,13,195.1,557.8)" />
<use xlink:href="#f0_6" transform="matrix(13,0,0,13,202.6,557.8)" />
<use xlink:href="#f0_7" transform="matrix(13,0,0,13,214.6,557.8)" />
<use xlink:href="#f0_8" transform="matrix(13,0,0,13,222.1,557.8)" />
<use xlink:href="#f0_b" transform="matrix(13,0,0,13,242.6,557.8)" />
<use xlink:href="#f0_l" transform="matrix(13,0,0,13,263.2,557.8)" />
</g>
</g>
<path d="M128.6,582.2h572m-572,20.1h572m-572,20h572m-572,20.2h572m-572,20h572m-572,20.2h572m-572,20h572m-572,20.2h572M128.9,581.8V723.3M700.2,581.8V723.3" class="g1_10" />
<g clip-path="url(#c0_10)">
<g fill="#000000" >
<use xlink:href="#f5_e" transform="matrix(11,0,0,11,137.7,598.3)" />
<use xlink:href="#f5_g" transform="matrix(11,0,0,11,144.2,598.3)" />
<use xlink:href="#f5_j" transform="matrix(11,0,0,11,151.7,598.3)" />
<use xlink:href="#f5_n" transform="matrix(11,0,0,11,160.1,598.3)" />
<use xlink:href="#f5_2" transform="matrix(11,0,0,11,169.4,598.3)" />
<use xlink:href="#f1_k" transform="matrix(11,0,0,11,300.4,598.3)" />
<use xlink:href="#f1_6" transform="matrix(11,0,0,11,308.8,598.3)" />
<use xlink:href="#f1_b" transform="matrix(11,0,0,11,316.2,598.3)" />
<use xlink:href="#f1_3" transform="matrix(11,0,0,11,324.6,598.3)" />
<use xlink:href="#f1_u" transform="matrix(11,0,0,11,332.1,598.3)" />
<use xlink:href="#f1_9" transform="matrix(11,0,0,11,336.8,598.3)" />
<use xlink:href="#f1_k" transform="matrix(11,0,0,11,463.1,598.3)" />
<use xlink:href="#f1_6" transform="matrix(11,0,0,11,471.5,598.3)" />
<use xlink:href="#f1_5" transform="matrix(11,0,0,11,478.9,598.3)" />
<use xlink:href="#f1_c" transform="matrix(11,0,0,11,483.5,598.3)" />
<use xlink:href="#f1_y" transform="matrix(11,0,0,11,489.2,598.3)" />
<use xlink:href="#f1_4" transform="matrix(11,0,0,11,496.6,598.3)" />
<use xlink:href="#f1_k" transform="matrix(11,0,0,11,589.9,598.3)" />
<use xlink:href="#f1_6" transform="matrix(11,0,0,11,598.3,598.3)" />
<use xlink:href="#f1_7" transform="matrix(11,0,0,11,605.7,598.3)" />
<use xlink:href="#f1_3" transform="matrix(11,0,0,11,610.5,598.3)" />
<use xlink:href="#f1_8" transform="matrix(11,0,0,11,617.9,598.3)" />
<use xlink:href="#f1_5" transform="matrix(11,0,0,11,626.2,598.3)" />
<use xlink:href="#f1_6" transform="matrix(11,0,0,11,630.9,598.3)" />
<use xlink:href="#f1_d" transform="matrix(11,0,0,11,137.7,618.3)" />
<use xlink:href="#f1_m" transform="matrix(11,0,0,11,146.1,618.3)" />
<use xlink:href="#f1_6" transform="matrix(11,0,0,11,154.5,618.3)" />
<use xlink:href="#f1_c" transform="matrix(11,0,0,11,161.9,618.3)" />
<use xlink:href="#f1_5" transform="matrix(11,0,0,11,167.4,618.3)" />
<use xlink:href="#f1_3" transform="matrix(11,0,0,11,172.1,618.3)" />
<use xlink:href="#f1_7" transform="matrix(11,0,0,11,300.4,618.3)" />
<use xlink:href="#f1_7" transform="matrix(11,0,0,11,305.1,618.3)" />
<use xlink:href="#f1_3" transform="matrix(11,0,0,11,309.7,618.3)" />
<use xlink:href="#f1_r" transform="matrix(11,0,0,11,317.1,618.3)" />
<use xlink:href="#f1_6" transform="matrix(11,0,0,11,325.5,618.3)" />
<use xlink:href="#f1_6" transform="matrix(11,0,0,11,463.1,618.3)" />
<use xlink:href="#f1_8" transform="matrix(11,0,0,11,470.5,618.3)" />
<use xlink:href="#f1_5" transform="matrix(11,0,0,11,478.9,618.3)" />
<use xlink:href="#f1_c" transform="matrix(11,0,0,11,483.5,618.3)" />
<use xlink:href="#f1_3" transform="matrix(11,0,0,11,489.2,618.3)" />
<use xlink:href="#f1_k" transform="matrix(11,0,0,11,496.6,618.3)" />
<use xlink:href="#f1_3" transform="matrix(11,0,0,11,505,618.3)" />
<use xlink:href="#f5_2" transform="matrix(11,0,0,11,589.9,618.3)" />
<use xlink:href="#f5_7" transform="matrix(11,0,0,11,599.2,618.3)" />
<use xlink:href="#f5_a" transform="matrix(11,0,0,11,607.6,618.3)" />
<use xlink:href="#f5_b" transform="matrix(11,0,0,11,615.1,618.3)" />
<use xlink:href="#f5_4" transform="matrix(11,0,0,11,619.8,618.3)" />
<use xlink:href="#f5_2" transform="matrix(11,0,0,11,628.2,618.3)" />
<use xlink:href="#f5_7" transform="matrix(11,0,0,11,637.5,618.3)" />
<use xlink:href="#f5_8" transform="matrix(11,0,0,11,645.9,618.3)" />
<use xlink:href="#f1_i" transform="matrix(11,0,0,11,137.7,638.5)" />
<use xlink:href="#f1_m" transform="matrix(11,0,0,11,150.8,638.5)" />
<use xlink:href="#f1_u" transform="matrix(11,0,0,11,159,638.5)" />
<use xlink:href="#f1_6" transform="matrix(11,0,0,11,163.8,638.5)" />
<use xlink:href="#f1_c" transform="matrix(11,0,0,11,171.2,638.5)" />
<use xlink:href="#f5_6" transform="matrix(11,0,0,11,300.4,638.5)" />
<use xlink:href="#f5_7" transform="matrix(11,0,0,11,314.4,638.5)" />
<use xlink:href="#f5_a" transform="matrix(11,0,0,11,322.8,638.5)" />
<use xlink:href="#f5_z" transform="matrix(11,0,0,11,330.3,638.5)" />
<use xlink:href="#f5_4" transform="matrix(11,0,0,11,339.6,638.5)" />
<use xlink:href="#f1_6" transform="matrix(11,0,0,11,463.1,638.5)" />
<use xlink:href="#f1_4" transform="matrix(11,0,0,11,470.5,638.5)" />
<use xlink:href="#f1_d" transform="matrix(11,0,0,11,477.1,638.5)" />
<use xlink:href="#f1_9" transform="matrix(11,0,0,11,485.5,638.5)" />
<use xlink:href="#f1_4" transform="matrix(11,0,0,11,493.9,638.5)" />
<use xlink:href="#f1_3" transform="matrix(11,0,0,11,500.4,638.5)" />
<use xlink:href="#f1_3" transform="matrix(11,0,0,11,589.9,638.5)" />
<use xlink:href="#f1_i" transform="matrix(11,0,0,11,597.3,638.5)" />
<use xlink:href="#f1_3" transform="matrix(11,0,0,11,610.5,638.5)" />
<use xlink:href="#f1_8" transform="matrix(11,0,0,11,617.9,638.5)" />
<use xlink:href="#f1_5" transform="matrix(11,0,0,11,626.2,638.5)" />
<use xlink:href="#f1_6" transform="matrix(11,0,0,11,630.9,638.5)" />
<use xlink:href="#f1_3" transform="matrix(11,0,0,11,137.7,658.5)" />
<use xlink:href="#f1_4" transform="matrix(11,0,0,11,145.1,658.5)" />
<use xlink:href="#f1_e" transform="matrix(11,0,0,11,151.7,658.5)" />
<use xlink:href="#f1_6" transform="matrix(11,0,0,11,156.3,658.5)" />
<use xlink:href="#f1_8" transform="matrix(11,0,0,11,163.7,658.5)" />
<use xlink:href="#f1_5" transform="matrix(11,0,0,11,172.1,658.5)" />
<use xlink:href="#f1_9" transform="matrix(11,0,0,11,176.8,658.5)" />
<use xlink:href="#f1_4" transform="matrix(11,0,0,11,300.4,658.5)" />
<use xlink:href="#f1_e" transform="matrix(11,0,0,11,306.9,658.5)" />
<use xlink:href="#f1_7" transform="matrix(11,0,0,11,311.5,658.5)" />
<use xlink:href="#f1_7" transform="matrix(11,0,0,11,316.2,658.5)" />
<use xlink:href="#f1_3" transform="matrix(11,0,0,11,320.9,658.5)" />
<use xlink:href="#f5_10" transform="matrix(11,0,0,11,463.1,658.5)" />
<use xlink:href="#f5_4" transform="matrix(11,0,0,11,472.4,658.5)" />
<use xlink:href="#f5_8" transform="matrix(11,0,0,11,480.8,658.5)" />
<use xlink:href="#f5_e" transform="matrix(11,0,0,11,485.5,658.5)" />
<use xlink:href="#f5_b" transform="matrix(11,0,0,11,491.9,658.5)" />
<use xlink:href="#f5_8" transform="matrix(11,0,0,11,496.7,658.5)" />
<use xlink:href="#f5_8" transform="matrix(11,0,0,11,501.4,658.5)" />
<use xlink:href="#f5_4" transform="matrix(11,0,0,11,506.1,658.5)" />
<use xlink:href="#f1_d" transform="matrix(11,0,0,11,137.7,678.6)" />
<use xlink:href="#f1_e" transform="matrix(11,0,0,11,146.1,678.6)" />
<use xlink:href="#f1_7" transform="matrix(11,0,0,11,150.6,678.6)" />
<use xlink:href="#f1_9" transform="matrix(11,0,0,11,155.4,678.6)" />
<use xlink:href="#f1_5" transform="matrix(11,0,0,11,163.8,678.6)" />
<use xlink:href="#f1_9" transform="matrix(11,0,0,11,168.5,678.6)" />
<use xlink:href="#f1_d" transform="matrix(11,0,0,11,300.4,678.6)" />
<use xlink:href="#f1_3" transform="matrix(11,0,0,11,308.8,678.6)" />
<use xlink:href="#f1_4" transform="matrix(11,0,0,11,316.2,678.6)" />
<use xlink:href="#f1_3" transform="matrix(11,0,0,11,322.8,678.6)" />
<use xlink:href="#f1_u" transform="matrix(11,0,0,11,330.1,678.6)" />
<use xlink:href="#f1_6" transform="matrix(11,0,0,11,334.8,678.6)" />
<use xlink:href="#f1_c" transform="matrix(11,0,0,11,342.3,678.6)" />
<use xlink:href="#f1_9" transform="matrix(11,0,0,11,347.9,678.6)" />
<use xlink:href="#f5_g" transform="matrix(11,0,0,11,463.1,678.6)" />
<use xlink:href="#f5_11" transform="matrix(11,0,0,11,470.5,678.6)" />
<use xlink:href="#f5_i" transform="matrix(11,0,0,11,479.9,678.6)" />
<use xlink:href="#f5_b" transform="matrix(11,0,0,11,489.2,678.6)" />
<use xlink:href="#f5_y" transform="matrix(11,0,0,11,493.9,678.6)" />
<use xlink:href="#f5_7" transform="matrix(11,0,0,11,503.2,678.6)" />
<use xlink:href="#f5_12" transform="matrix(11,0,0,11,511.6,678.6)" />
<use xlink:href="#f5_g" transform="matrix(11,0,0,11,517.3,678.6)" />
<use xlink:href="#f1_f" transform="matrix(11,0,0,11,137.7,698.7)" />
<use xlink:href="#f1_3" transform="matrix(11,0,0,11,145.1,698.7)" />
<use xlink:href="#f1_7" transform="matrix(11,0,0,11,152.6,698.7)" />
<use xlink:href="#f1_i" transform="matrix(11,0,0,11,157.2,698.7)" />
<use xlink:href="#f1_3" transform="matrix(11,0,0,11,170.3,698.7)" />
<use xlink:href="#f5_13" transform="matrix(11,0,0,11,300.4,698.7)" />
<use xlink:href="#f5_8" transform="matrix(11,0,0,11,306,698.7)" />
<use xlink:href="#f5_7" transform="matrix(11,0,0,11,310.7,698.7)" />
<use xlink:href="#f5_a" transform="matrix(11,0,0,11,319,698.7)" />
<use xlink:href="#f5_4" transform="matrix(11,0,0,11,326.4,698.7)" />
<use xlink:href="#f1_5" transform="matrix(11,0,0,11,463.1,698.7)" />
<use xlink:href="#f1_c" transform="matrix(11,0,0,11,467.8,698.7)" />
<use xlink:href="#f1_3" transform="matrix(11,0,0,11,473.3,698.7)" />
<use xlink:href="#f1_8" transform="matrix(11,0,0,11,480.7,698.7)" />
<use xlink:href="#f1_l" transform="matrix(11,0,0,11,489.2,698.7)" />
<use xlink:href="#f1_m" transform="matrix(11,0,0,11,497.6,698.7)" />
<use xlink:href="#f1_e" transform="matrix(11,0,0,11,506,698.7)" />
<use xlink:href="#f1_7" transform="matrix(11,0,0,11,510.7,698.7)" />
<use xlink:href="#f1_9" transform="matrix(11,0,0,11,515.4,698.7)" />
<use xlink:href="#f1_6" transform="matrix(11,0,0,11,137.7,718.8)" />
<use xlink:href="#f1_4" transform="matrix(11,0,0,11,145.1,718.8)" />
<use xlink:href="#f1_d" transform="matrix(11,0,0,11,151.7,718.8)" />
<use xlink:href="#f1_3" transform="matrix(11,0,0,11,160.1,718.8)" />
<use xlink:href="#f1_f" transform="matrix(11,0,0,11,167.5,718.8)" />
<use xlink:href="#f1_e" transform="matrix(11,0,0,11,174.9,718.8)" />
<use xlink:href="#f1_9" transform="matrix(11,0,0,11,179.6,718.8)" />
<use xlink:href="#f1_d" transform="matrix(11,0,0,11,300.4,718.8)" />
<use xlink:href="#f1_m" transform="matrix(11,0,0,11,308.8,718.8)" />
<use xlink:href="#f1_6" transform="matrix(11,0,0,11,317.2,718.8)" />
<use xlink:href="#f1_b" transform="matrix(11,0,0,11,324.6,718.8)" />
<use xlink:href="#f1_7" transform="matrix(11,0,0,11,333,718.8)" />
<use xlink:href="#f1_9" transform="matrix(11,0,0,11,337.8,718.8)" />
<use xlink:href="#f1_d" transform="matrix(11,0,0,11,463.1,718.8)" />
<use xlink:href="#f1_3" transform="matrix(11,0,0,11,471.5,718.8)" />
<use xlink:href="#f1_p" transform="matrix(11,0,0,11,478.9,718.8)" />
<use xlink:href="#f1_4" transform="matrix(11,0,0,11,483.7,718.8)" />
<use xlink:href="#f1_f" transform="matrix(11,0,0,11,589.9,718.8)" />
<use xlink:href="#f1_e" transform="matrix(11,0,0,11,597.3,718.8)" />
<use xlink:href="#f1_m" transform="matrix(11,0,0,11,602.1,718.8)" />
<use xlink:href="#f1_k" transform="matrix(11,0,0,11,610.5,718.8)" />
<use xlink:href="#f1_3" transform="matrix(11,0,0,11,618.9,718.8)" />
<use xlink:href="#f1_k" transform="matrix(11,0,0,11,626.3,718.8)" />
</g>
<g fill="#0000FF" >
<use xlink:href="#f2_6" transform="matrix(11,0,0,11,678.5,758.1)" />
<use xlink:href="#f2_7" transform="matrix(11,0,0,11,690.4,758.1)" />
<use xlink:href="#f2_8" transform="matrix(11,0,0,11,699.7,758.1)" />
<use xlink:href="#f2_e" transform="matrix(11,0,0,11,710.2,758.1)" />
<use xlink:href="#f2_3" transform="matrix(11,0,0,11,725.2,758.1)" />
<use xlink:href="#f2_7" transform="matrix(11,0,0,11,736.2,758.1)" />
<use xlink:href="#f2_4" transform="matrix(11,0,0,11,745.7,758.1)" />
<use xlink:href="#f2_h" transform="matrix(11,0,0,11,751.5,758.1)" />
<use xlink:href="#f2_f" transform="matrix(11,0,0,11,762.3,758.1)" />
</g>
</g>
<path d="M678.3,759.8H772" class="g2_10" />
<g clip-path="url(#c0_10)">
<g fill="#000000" >
<use xlink:href="#f0_2" transform="matrix(13,0,0,13,137.7,800.1)" />
<use xlink:href="#f0_3" transform="matrix(13,0,0,13,152.8,800.1)" />
<use xlink:href="#f0_4" transform="matrix(13,0,0,13,160,800.1)" />
<use xlink:href="#f0_5" transform="matrix(13,0,0,13,172.6,800.1)" />
<use xlink:href="#f0_6" transform="matrix(13,0,0,13,183,800.1)" />
<use xlink:href="#f0_7" transform="matrix(13,0,0,13,195.1,800.1)" />
<use xlink:href="#f0_6" transform="matrix(13,0,0,13,202.6,800.1)" />
<use xlink:href="#f0_7" transform="matrix(13,0,0,13,214.6,800.1)" />
<use xlink:href="#f0_8" transform="matrix(13,0,0,13,222.1,800.1)" />
<use xlink:href="#f0_c" transform="matrix(13,0,0,13,242.6,800.1)" />
<use xlink:href="#f0_l" transform="matrix(13,0,0,13,263.2,800.1)" />
</g>
</g>
<path d="M120.9,824.5H772.4M120.9,844.8H772.4M120.9,866.9H772.4M120.9,889.1H772.4M120.9,911.2H772.4M120.9,933.4H772.4M120.9,955.5H772.4M120.9,977.7H772.4M120.9,999.9H772.4M120.9,1022H772.4m-651.5,22.2H772.4m-651.5,22.1H772.4m-651.5,22.2H772.4M121.3,824.1v264.7M338.2,824.1v264.7m217,-264.7v264.7M772,824.1v264.7" class="g1_10" />
<g clip-path="url(#c0_10)">
<g fill="#000000" >
<use xlink:href="#f2_i" transform="matrix(11,0,0,11,729.8,840.4)" />
<use xlink:href="#f2_q" transform="matrix(11,0,0,11,741,840.4)" />
<use xlink:href="#f2_f" transform="matrix(11,0,0,11,744.8,840.4)" />
<use xlink:href="#f2_7" transform="matrix(11,0,0,11,754.4,840.4)" />
<use xlink:href="#f2_r" transform="matrix(11,0,0,11,519.3,840.4)" />
<use xlink:href="#f2_q" transform="matrix(11,0,0,11,528.5,840.4)" />
<use xlink:href="#f2_h" transform="matrix(11,0,0,11,532.1,840.4)" />
<use xlink:href="#f2_q" transform="matrix(11,0,0,11,543.1,840.4)" />
<use xlink:href="#f1_a" transform="matrix(11,0,0,11,280.3,840.6)" />
<use xlink:href="#f1_6" transform="matrix(11,0,0,11,292.4,840.6)" />
<use xlink:href="#f1_b" transform="matrix(11,0,0,11,299.9,840.6)" />
<use xlink:href="#f1_c" transform="matrix(11,0,0,11,308.3,840.6)" />
<use xlink:href="#f1_6" transform="matrix(11,0,0,11,313.9,840.6)" />
<use xlink:href="#f1_9" transform="matrix(11,0,0,11,321.4,840.6)" />
<use xlink:href="#f3_b" transform="matrix(11,0,0,11,563.9,860.9)" />
<use xlink:href="#f3_5" transform="matrix(11,0,0,11,568.6,860.9)" />
<use xlink:href="#f3_2" transform="matrix(11,0,0,11,577,860.9)" />
<use xlink:href="#f3_g" transform="matrix(11,0,0,11,587.7,860.9)" />
<use xlink:href="#f3_5" transform="matrix(11,0,0,11,596.1,860.9)" />
<use xlink:href="#f3_b" transform="matrix(11,0,0,11,604.5,860.9)" />
<use xlink:href="#f3_2" transform="matrix(11,0,0,11,609.2,860.9)" />
<use xlink:href="#f3_a" transform="matrix(11,0,0,11,615.6,860.9)" />
<use xlink:href="#f3_b" transform="matrix(11,0,0,11,620.4,860.9)" />
<use xlink:href="#f3_b" transform="matrix(11,0,0,11,625,860.9)" />
<use xlink:href="#f3_5" transform="matrix(11,0,0,11,629.7,860.9)" />
<use xlink:href="#f3_2" transform="matrix(11,0,0,11,638.1,860.9)" />
<use xlink:href="#f3_e" transform="matrix(11,0,0,11,347,860.9)" />
<use xlink:href="#f3_b" transform="matrix(11,0,0,11,354.4,860.9)" />
<use xlink:href="#f3_g" transform="matrix(11,0,0,11,363.3,860.9)" />
<use xlink:href="#f3_5" transform="matrix(11,0,0,11,371.7,860.9)" />
<use xlink:href="#f3_b" transform="matrix(11,0,0,11,380.1,860.9)" />
<use xlink:href="#f3_2" transform="matrix(11,0,0,11,384.8,860.9)" />
<use xlink:href="#f3_a" transform="matrix(11,0,0,11,391.2,860.9)" />
<use xlink:href="#f3_b" transform="matrix(11,0,0,11,395.9,860.9)" />
<use xlink:href="#f3_b" transform="matrix(11,0,0,11,400.5,860.9)" />
<use xlink:href="#f3_5" transform="matrix(11,0,0,11,405.2,860.9)" />
<use xlink:href="#f4_8" transform="matrix(12,0,0,12,304.3,862.3)" />
<use xlink:href="#f4_3" transform="matrix(12,0,0,12,316.2,862.3)" />
<use xlink:href="#f4_9" transform="matrix(12,0,0,12,320.3,862.3)" />
<use xlink:href="#f3_b" transform="matrix(11,0,0,11,563.9,883.1)" />
<use xlink:href="#f3_3" transform="matrix(11,0,0,11,568.6,883.1)" />
<use xlink:href="#f3_2" transform="matrix(11,0,0,11,577,883.1)" />
<use xlink:href="#f3_h" transform="matrix(11,0,0,11,587.7,883.1)" />
<use xlink:href="#f3_i" transform="matrix(11,0,0,11,596.1,883.1)" />
<use xlink:href="#f3_e" transform="matrix(11,0,0,11,604.5,883.1)" />
<use xlink:href="#f3_f" transform="matrix(11,0,0,11,612,883.1)" />
<use xlink:href="#f3_d" transform="matrix(11,0,0,11,618.4,883.1)" />
<use xlink:href="#f3_3" transform="matrix(11,0,0,11,623.1,883.1)" />
<use xlink:href="#f3_2" transform="matrix(11,0,0,11,631.5,883.1)" />
<use xlink:href="#f3_b" transform="matrix(11,0,0,11,347,883.1)" />
<use xlink:href="#f3_3" transform="matrix(11,0,0,11,351.7,883.1)" />
<use xlink:href="#f3_h" transform="matrix(11,0,0,11,364.2,883.1)" />
<use xlink:href="#f3_i" transform="matrix(11,0,0,11,372.6,883.1)" />
<use xlink:href="#f3_e" transform="matrix(11,0,0,11,381,883.1)" />
<use xlink:href="#f3_f" transform="matrix(11,0,0,11,388.5,883.1)" />
<use xlink:href="#f3_d" transform="matrix(11,0,0,11,395,883.1)" />
<use xlink:href="#f3_3" transform="matrix(11,0,0,11,399.7,883.1)" />
<use xlink:href="#f4_a" transform="matrix(12,0,0,12,297.5,884.4)" />
<use xlink:href="#f4_b" transform="matrix(12,0,0,12,309.5,884.4)" />
<use xlink:href="#f4_c" transform="matrix(12,0,0,12,319.9,884.4)" />
<use xlink:href="#f1_7" transform="matrix(11,0,0,11,563.9,905.2)" />
<use xlink:href="#f1_9" transform="matrix(11,0,0,11,568.6,905.2)" />
<use xlink:href="#f1_4" transform="matrix(11,0,0,11,577,905.2)" />
<use xlink:href="#f1_7" transform="matrix(11,0,0,11,587.7,905.2)" />
<use xlink:href="#f1_3" transform="matrix(11,0,0,11,592.4,905.2)" />
<use xlink:href="#f1_k" transform="matrix(11,0,0,11,599.9,905.2)" />
<use xlink:href="#f1_9" transform="matrix(11,0,0,11,608.3,905.2)" />
<use xlink:href="#f1_4" transform="matrix(11,0,0,11,616.5,905.2)" />
<use xlink:href="#f1_6" transform="matrix(11,0,0,11,347,905.2)" />
<use xlink:href="#f1_7" transform="matrix(11,0,0,11,354.4,905.2)" />
<use xlink:href="#f1_7" transform="matrix(11,0,0,11,363.3,905.2)" />
<use xlink:href="#f1_3" transform="matrix(11,0,0,11,368,905.2)" />
<use xlink:href="#f1_k" transform="matrix(11,0,0,11,375.4,905.2)" />
<use xlink:href="#f1_9" transform="matrix(11,0,0,11,383.8,905.2)" />
<use xlink:href="#f2_r" transform="matrix(12,0,0,12,309.1,906.6)" />
<use xlink:href="#f2_s" transform="matrix(12,0,0,12,319.1,906.6)" />
<use xlink:href="#f1_7" transform="matrix(11,0,0,11,563.9,927.4)" />
<use xlink:href="#f1_9" transform="matrix(11,0,0,11,568.6,927.4)" />
<use xlink:href="#f1_4" transform="matrix(11,0,0,11,577,927.4)" />
<use xlink:href="#f1_k" transform="matrix(11,0,0,11,587.7,927.4)" />
<use xlink:href="#f1_6" transform="matrix(11,0,0,11,596.1,927.4)" />
<use xlink:href="#f1_4" transform="matrix(11,0,0,11,603.6,927.4)" />
<use xlink:href="#f1_e" transform="matrix(11,0,0,11,610,927.4)" />
<use xlink:href="#f1_6" transform="matrix(11,0,0,11,614.7,927.4)" />
<use xlink:href="#f1_c" transform="matrix(11,0,0,11,622.2,927.4)" />
<use xlink:href="#f1_5" transform="matrix(11,0,0,11,627.8,927.4)" />
<use xlink:href="#f1_9" transform="matrix(11,0,0,11,632.5,927.4)" />
<use xlink:href="#f1_4" transform="matrix(11,0,0,11,640.8,927.4)" />
<use xlink:href="#f1_6" transform="matrix(11,0,0,11,347,927.4)" />
<use xlink:href="#f1_7" transform="matrix(11,0,0,11,354.4,927.4)" />
<use xlink:href="#f1_k" transform="matrix(11,0,0,11,363.3,927.4)" />
<use xlink:href="#f1_6" transform="matrix(11,0,0,11,371.7,927.4)" />
<use xlink:href="#f1_4" transform="matrix(11,0,0,11,379.1,927.4)" />
<use xlink:href="#f1_e" transform="matrix(11,0,0,11,385.5,927.4)" />
<use xlink:href="#f1_6" transform="matrix(11,0,0,11,390.3,927.4)" />
<use xlink:href="#f1_c" transform="matrix(11,0,0,11,397.7,927.4)" />
<use xlink:href="#f1_5" transform="matrix(11,0,0,11,403.4,927.4)" />
<use xlink:href="#f1_9" transform="matrix(11,0,0,11,408.1,927.4)" />
<use xlink:href="#f2_7" transform="matrix(12,0,0,12,286.6,928.7)" />
<use xlink:href="#f2_f" transform="matrix(12,0,0,12,296.8,928.7)" />
<use xlink:href="#f2_r" transform="matrix(12,0,0,12,307.4,928.7)" />
<use xlink:href="#f2_l" transform="matrix(12,0,0,12,317.4,928.7)" />
<use xlink:href="#f1_7" transform="matrix(11,0,0,11,563.9,949.5)" />
<use xlink:href="#f1_3" transform="matrix(11,0,0,11,568.6,949.5)" />
<use xlink:href="#f1_4" transform="matrix(11,0,0,11,576.1,949.5)" />
<use xlink:href="#f1_5" transform="matrix(11,0,0,11,586.8,949.5)" />
<use xlink:href="#f1_3" transform="matrix(11,0,0,11,591.5,949.5)" />
<use xlink:href="#f1_b" transform="matrix(11,0,0,11,598.8,949.5)" />
<use xlink:href="#f1_7" transform="matrix(11,0,0,11,607.2,949.5)" />
<use xlink:href="#f1_3" transform="matrix(11,0,0,11,611.9,949.5)" />
<use xlink:href="#f1_4" transform="matrix(11,0,0,11,619.4,949.5)" />
<use xlink:href="#f1_7" transform="matrix(11,0,0,11,347,949.5)" />
<use xlink:href="#f1_3" transform="matrix(11,0,0,11,351.7,949.5)" />
<use xlink:href="#f1_5" transform="matrix(11,0,0,11,363.3,949.5)" />
<use xlink:href="#f1_3" transform="matrix(11,0,0,11,368,949.5)" />
<use xlink:href="#f1_b" transform="matrix(11,0,0,11,375.4,949.5)" />
<use xlink:href="#f1_7" transform="matrix(11,0,0,11,383.7,949.5)" />
<use xlink:href="#f1_3" transform="matrix(11,0,0,11,388.4,949.5)" />
<use xlink:href="#f2_3" transform="matrix(12,0,0,12,285.2,950.9)" />
<use xlink:href="#f2_e" transform="matrix(12,0,0,12,297.2,950.9)" />
<use xlink:href="#f2_f" transform="matrix(12,0,0,12,307.5,950.9)" />
<use xlink:href="#f2_k" transform="matrix(12,0,0,12,318.1,950.9)" />
<use xlink:href="#f1_7" transform="matrix(11,0,0,11,563.9,971.7)" />
<use xlink:href="#f1_3" transform="matrix(11,0,0,11,568.6,971.7)" />
<use xlink:href="#f1_4" transform="matrix(11,0,0,11,576.1,971.7)" />
<use xlink:href="#f1_5" transform="matrix(11,0,0,11,586.8,971.7)" />
<use xlink:href="#f1_c" transform="matrix(11,0,0,11,591.5,971.7)" />
<use xlink:href="#f1_3" transform="matrix(11,0,0,11,597,971.7)" />
<use xlink:href="#f1_k" transform="matrix(11,0,0,11,604.4,971.7)" />
<use xlink:href="#f1_m" transform="matrix(11,0,0,11,612.8,971.7)" />
<use xlink:href="#f1_f" transform="matrix(11,0,0,11,621.2,971.7)" />
<use xlink:href="#f1_f" transform="matrix(11,0,0,11,628.7,971.7)" />
<use xlink:href="#f1_e" transform="matrix(11,0,0,11,636,971.7)" />
<use xlink:href="#f1_9" transform="matrix(11,0,0,11,640.8,971.7)" />
<use xlink:href="#f1_8" transform="matrix(11,0,0,11,649.2,971.7)" />
<use xlink:href="#f1_6" transform="matrix(11,0,0,11,657.6,971.7)" />
<use xlink:href="#f1_4" transform="matrix(11,0,0,11,665,971.7)" />
<use xlink:href="#f1_7" transform="matrix(11,0,0,11,347,971.7)" />
<use xlink:href="#f1_3" transform="matrix(11,0,0,11,351.7,971.7)" />
<use xlink:href="#f1_5" transform="matrix(11,0,0,11,363.3,971.7)" />
<use xlink:href="#f1_c" transform="matrix(11,0,0,11,368,971.7)" />
<use xlink:href="#f1_3" transform="matrix(11,0,0,11,373.5,971.7)" />
<use xlink:href="#f1_k" transform="matrix(11,0,0,11,380.9,971.7)" />
<use xlink:href="#f1_m" transform="matrix(11,0,0,11,389.3,971.7)" />
<use xlink:href="#f1_f" transform="matrix(11,0,0,11,397.7,971.7)" />
<use xlink:href="#f1_f" transform="matrix(11,0,0,11,405.2,971.7)" />
<use xlink:href="#f1_e" transform="matrix(11,0,0,11,412.7,971.7)" />
<use xlink:href="#f1_g" transform="matrix(11,0,0,11,417.4,971.7)" />
<use xlink:href="#f1_8" transform="matrix(11,0,0,11,425.8,971.7)" />
<use xlink:href="#f2_i" transform="matrix(12,0,0,12,282.8,973)" />
<use xlink:href="#f2_c" transform="matrix(12,0,0,12,295,973)" />
<use xlink:href="#f2_j" transform="matrix(12,0,0,12,300,973)" />
<use xlink:href="#f2_7" transform="matrix(12,0,0,12,307.5,973)" />
<use xlink:href="#f2_b" transform="matrix(12,0,0,12,317.9,973)" />
<use xlink:href="#f1_7" transform="matrix(11,0,0,11,563.9,993.8)" />
<use xlink:href="#f1_9" transform="matrix(11,0,0,11,568.6,993.8)" />
<use xlink:href="#f1_4" transform="matrix(11,0,0,11,577,993.8)" />
<use xlink:href="#f1_5" transform="matrix(11,0,0,11,587.7,993.8)" />
<use xlink:href="#f1_6" transform="matrix(11,0,0,11,592.4,993.8)" />
<use xlink:href="#f1_3" transform="matrix(11,0,0,11,599.7,993.8)" />
<use xlink:href="#f1_5" transform="matrix(11,0,0,11,607.2,993.8)" />
<use xlink:href="#f1_c" transform="matrix(11,0,0,11,611.9,993.8)" />
<use xlink:href="#f1_9" transform="matrix(11,0,0,11,617.6,993.8)" />
<use xlink:href="#f1_4" transform="matrix(11,0,0,11,626,993.8)" />
<use xlink:href="#f1_6" transform="matrix(11,0,0,11,347,993.8)" />
<use xlink:href="#f1_7" transform="matrix(11,0,0,11,354.4,993.8)" />
<use xlink:href="#f1_5" transform="matrix(11,0,0,11,363.3,993.8)" />
<use xlink:href="#f1_6" transform="matrix(11,0,0,11,368,993.8)" />
<use xlink:href="#f1_3" transform="matrix(11,0,0,11,375.3,993.8)" />
<use xlink:href="#f1_5" transform="matrix(11,0,0,11,382.8,993.8)" />
<use xlink:href="#f1_c" transform="matrix(11,0,0,11,387.5,993.8)" />
<use xlink:href="#f1_9" transform="matrix(11,0,0,11,393.1,993.8)" />
<use xlink:href="#f2_t" transform="matrix(12,0,0,12,269.3,995.2)" />
<use xlink:href="#f2_c" transform="matrix(12,0,0,12,274.4,995.2)" />
<use xlink:href="#f2_7" transform="matrix(12,0,0,12,279.3,995.2)" />
<use xlink:href="#f2_k" transform="matrix(12,0,0,12,289.6,995.2)" />
<use xlink:href="#f2_9" transform="matrix(12,0,0,12,301.5,995.2)" />
<use xlink:href="#f2_q" transform="matrix(12,0,0,12,313.8,995.2)" />
<use xlink:href="#f2_b" transform="matrix(12,0,0,12,317.9,995.2)" />
<use xlink:href="#f1_7" transform="matrix(11,0,0,11,563.9,1016)" />
<use xlink:href="#f1_3" transform="matrix(11,0,0,11,568.6,1016)" />
<use xlink:href="#f1_4" transform="matrix(11,0,0,11,576.1,1016)" />
<use xlink:href="#f1_k" transform="matrix(11,0,0,11,586.8,1016)" />
<use xlink:href="#f1_3" transform="matrix(11,0,0,11,595.2,1016)" />
<use xlink:href="#f1_8" transform="matrix(11,0,0,11,602.6,1016)" />
<use xlink:href="#f1_t" transform="matrix(11,0,0,11,611,1016)" />
<use xlink:href="#f1_3" transform="matrix(11,0,0,11,618.5,1016)" />
<use xlink:href="#f1_4" transform="matrix(11,0,0,11,625.8,1016)" />
<use xlink:href="#f1_7" transform="matrix(11,0,0,11,347,1016)" />
<use xlink:href="#f1_3" transform="matrix(11,0,0,11,351.7,1016)" />
<use xlink:href="#f1_k" transform="matrix(11,0,0,11,363.3,1016)" />
<use xlink:href="#f1_3" transform="matrix(11,0,0,11,371.7,1016)" />
<use xlink:href="#f1_8" transform="matrix(11,0,0,11,379.1,1016)" />
<use xlink:href="#f1_t" transform="matrix(11,0,0,11,387.5,1016)" />
<use xlink:href="#f1_3" transform="matrix(11,0,0,11,395,1016)" />
<use xlink:href="#f2_r" transform="matrix(12,0,0,12,287.5,1017.3)" />
<use xlink:href="#f2_c" transform="matrix(12,0,0,12,297.5,1017.3)" />
<use xlink:href="#f2_6" transform="matrix(12,0,0,12,302.5,1017.3)" />
<use xlink:href="#f2_q" transform="matrix(12,0,0,12,315.5,1017.3)" />
<use xlink:href="#f2_7" transform="matrix(12,0,0,12,319.6,1017.3)" />
<use xlink:href="#f1_7" transform="matrix(11,0,0,11,563.9,1038.1)" />
<use xlink:href="#f1_3" transform="matrix(11,0,0,11,568.6,1038.1)" />
<use xlink:href="#f1_4" transform="matrix(11,0,0,11,576.1,1038.1)" />
<use xlink:href="#f1_c" transform="matrix(11,0,0,11,586.8,1038.1)" />
<use xlink:href="#f1_3" transform="matrix(11,0,0,11,592.4,1038.1)" />
<use xlink:href="#f1_k" transform="matrix(11,0,0,11,599.8,1038.1)" />
<use xlink:href="#f1_e" transform="matrix(11,0,0,11,608.1,1038.1)" />
<use xlink:href="#f1_9" transform="matrix(11,0,0,11,612.8,1038.1)" />
<use xlink:href="#f1_4" transform="matrix(11,0,0,11,621.2,1038.1)" />
<use xlink:href="#f1_7" transform="matrix(11,0,0,11,347,1038.1)" />
<use xlink:href="#f1_3" transform="matrix(11,0,0,11,351.7,1038.1)" />
<use xlink:href="#f1_c" transform="matrix(11,0,0,11,363.3,1038.1)" />
<use xlink:href="#f1_3" transform="matrix(11,0,0,11,368.9,1038.1)" />
<use xlink:href="#f1_k" transform="matrix(11,0,0,11,376.4,1038.1)" />
<use xlink:href="#f1_e" transform="matrix(11,0,0,11,384.6,1038.1)" />
<use xlink:href="#f1_9" transform="matrix(11,0,0,11,389.3,1038.1)" />
<use xlink:href="#f2_c" transform="matrix(12,0,0,12,300.5,1039.5)" />
<use xlink:href="#f2_q" transform="matrix(12,0,0,12,305.5,1039.5)" />
<use xlink:href="#f2_r" transform="matrix(12,0,0,12,309.5,1039.5)" />
<use xlink:href="#f2_7" transform="matrix(12,0,0,12,319.6,1039.5)" />
<use xlink:href="#f1_7" transform="matrix(11,0,0,11,563.9,1060.3)" />
<use xlink:href="#f1_3" transform="matrix(11,0,0,11,568.6,1060.3)" />
<use xlink:href="#f1_4" transform="matrix(11,0,0,11,576.1,1060.3)" />
<use xlink:href="#f1_r" transform="matrix(11,0,0,11,586.8,1060.3)" />
<use xlink:href="#f1_6" transform="matrix(11,0,0,11,595.2,1060.3)" />
<use xlink:href="#f1_f" transform="matrix(11,0,0,11,602.6,1060.3)" />
<use xlink:href="#f1_6" transform="matrix(11,0,0,11,610.1,1060.3)" />
<use xlink:href="#f1_4" transform="matrix(11,0,0,11,617.4,1060.3)" />
<use xlink:href="#f1_7" transform="matrix(11,0,0,11,347,1060.3)" />
<use xlink:href="#f1_3" transform="matrix(11,0,0,11,351.7,1060.3)" />
<use xlink:href="#f1_r" transform="matrix(11,0,0,11,363.3,1060.3)" />
<use xlink:href="#f1_6" transform="matrix(11,0,0,11,371.7,1060.3)" />
<use xlink:href="#f1_t" transform="matrix(11,0,0,11,379.1,1060.3)" />
<use xlink:href="#f2_i" transform="matrix(12,0,0,12,294.9,1061.7)" />
<use xlink:href="#f2_p" transform="matrix(12,0,0,12,307.1,1061.7)" />
<use xlink:href="#f2_8" transform="matrix(12,0,0,12,318.5,1061.7)" />
<use xlink:href="#f1_7" transform="matrix(11,0,0,11,563.9,1082.4)" />
<use xlink:href="#f1_9" transform="matrix(11,0,0,11,568.6,1082.4)" />
<use xlink:href="#f1_4" transform="matrix(11,0,0,11,577,1082.4)" />
<use xlink:href="#f1_e" transform="matrix(11,0,0,11,587.7,1082.4)" />
<use xlink:href="#f1_k" transform="matrix(11,0,0,11,592.4,1082.4)" />
<use xlink:href="#f1_e" transform="matrix(11,0,0,11,600.7,1082.4)" />
<use xlink:href="#f1_9" transform="matrix(11,0,0,11,605.4,1082.4)" />
<use xlink:href="#f1_i" transform="matrix(11,0,0,11,613.8,1082.4)" />
<use xlink:href="#f1_3" transform="matrix(11,0,0,11,626.9,1082.4)" />
<use xlink:href="#f1_4" transform="matrix(11,0,0,11,634.4,1082.4)" />
<use xlink:href="#f1_6" transform="matrix(11,0,0,11,347,1082.4)" />
<use xlink:href="#f1_7" transform="matrix(11,0,0,11,354.4,1082.4)" />
<use xlink:href="#f1_e" transform="matrix(11,0,0,11,363.3,1082.4)" />
<use xlink:href="#f1_k" transform="matrix(11,0,0,11,368,1082.4)" />
<use xlink:href="#f1_e" transform="matrix(11,0,0,11,376.2,1082.4)" />
<use xlink:href="#f1_9" transform="matrix(11,0,0,11,381,1082.4)" />
<use xlink:href="#f1_i" transform="matrix(11,0,0,11,389.4,1082.4)" />
<use xlink:href="#f1_3" transform="matrix(11,0,0,11,402.5,1082.4)" />
<use xlink:href="#f2_3" transform="matrix(12,0,0,12,293.6,1083.8)" />
<use xlink:href="#f2_8" transform="matrix(12,0,0,12,305.6,1083.8)" />
<use xlink:href="#f2_o" transform="matrix(12,0,0,12,317,1083.8)" />
</g>
<g fill="#0000FF" >
<use xlink:href="#f2_6" transform="matrix(11,0,0,11,678.5,1104.4)" />
<use xlink:href="#f2_7" transform="matrix(11,0,0,11,690.4,1104.4)" />
<use xlink:href="#f2_8" transform="matrix(11,0,0,11,699.7,1104.4)" />
<use xlink:href="#f2_e" transform="matrix(11,0,0,11,710.2,1104.4)" />
<use xlink:href="#f2_3" transform="matrix(11,0,0,11,725.2,1104.4)" />
<use xlink:href="#f2_7" transform="matrix(11,0,0,11,736.2,1104.4)" />
<use xlink:href="#f2_4" transform="matrix(11,0,0,11,745.7,1104.4)" />
<use xlink:href="#f2_h" transform="matrix(11,0,0,11,751.5,1104.4)" />
<use xlink:href="#f2_f" transform="matrix(11,0,0,11,762.3,1104.4)" />
</g>
</g>
<path d="M678.3,1106.1H772" class="g2_10" />
<defs>
<path d="M71,0V90H214v934H71v90H1073V851H970v160H502V654H792V796H895V411H792V552H502V103H984V263h102V0Z" 
id="f0_2"
transform="scale(0.001,-0.001)" />

<path d="M87,-338c0,0,-45,0,-94,7c0,0,-51,8,-105,22v168l84,-1c0,0,1,-59,23,-86c0,0,21,-26,70,-26c0,0,55,0,77,35c0,0,21,35,21,127V703H51v90H427V-92c0,0,0,-122,-86,-184c0,0,-86,-62,-254,-62ZM277,876c0,0,-61,0,-102,41c0,0,-42,41,-42,101c0,0,0,60,41,101c0,0,42,42,103,42c0,0,58,0,100,-42c0,0,42,-42,42,-101c0,0,0,-59,-42,-101c0,0,-41,-41,-100,-41Z" 
id="f0_3"
transform="scale(0.001,-0.001)" />

<path d="M612,448c0,0,0,156,-29,219c0,0,-29,63,-99,63c0,0,-68,0,-98,-61c0,0,-29,-62,-29,-208V448ZM488,-20c0,0,-205,0,-315,107C173,87,63,195,63,397c0,0,0,197,112,307c0,0,113,110,313,110c0,0,197,0,303,-115c0,0,105,-116,111,-340H357v-6c0,0,0,-154,46,-222c0,0,46,-68,149,-68c0,0,86,0,139,45c0,0,53,46,68,133H883C883,241,851,105,755,42c0,0,-95,-62,-267,-62Z" 
id="f0_4"
transform="scale(0.001,-0.001)" />

<path d="M53,0V90H165V703H44v90H429V652c0,0,39,83,103,123c0,0,64,39,156,39c0,0,24,0,57,-3c0,0,33,-3,76,-9V565H737c0,0,-4,63,-34,94c0,0,-30,31,-87,31c0,0,-87,0,-137,-76c0,0,-50,-76,-50,-211V90H573V0Z" 
id="f0_5"
transform="scale(0.001,-0.001)" />

<path d="M507,-20c0,0,-212,0,-328,108C179,88,63,198,63,397c0,0,0,197,114,307c0,0,115,110,320,110c0,0,82,0,167,-15c0,0,84,-16,171,-47V532H752c0,0,-12,101,-59,150c0,0,-47,48,-132,48c0,0,-111,0,-157,-74c0,0,-47,-75,-47,-259c0,0,0,-180,45,-257c0,0,46,-77,149,-77c0,0,80,0,128,47c0,0,48,48,58,137H861C861,247,833,112,745,45c0,0,-87,-65,-238,-65Z" 
id="f0_6"
transform="scale(0.001,-0.001)" />

<path d="M53,0V90H165V703H53v90H429V90H543V0ZM285,876c0,0,-61,0,-102,41c0,0,-42,41,-42,101c0,0,0,60,42,101c0,0,41,42,102,42c0,0,59,0,100,-42c0,0,41,-41,41,-101c0,0,0,-59,-41,-101c0,0,-41,-41,-100,-41Z" 
id="f0_7"
transform="scale(0.001,-0.001)" />

<path d="M510,63c0,0,84,0,118,71c0,0,34,72,34,263c0,0,0,191,-34,262c0,0,-33,71,-118,71c0,0,-84,0,-119,-72c0,0,-34,-72,-34,-261c0,0,0,-190,34,-262c0,0,35,-72,119,-72Zm0,-83c0,0,-209,0,-328,110C182,90,63,201,63,397c0,0,0,196,119,307c0,0,119,110,328,110c0,0,211,0,330,-110c0,0,118,-111,118,-307c0,0,0,-196,-119,-307C839,90,720,-20,510,-20Z" 
id="f0_8"
transform="scale(0.001,-0.001)" />

<path d="M209,0V90H418V992L187,854V966l279,168H701V90H910V0Z" 
id="f0_a"
transform="scale(0.001,-0.001)" />

<path d="M83,309V510H551V309Z" 
id="f0_l"
transform="scale(0.001,-0.001)" />

<path d="M577,-14c0,0,-243,0,-379,132C198,118,63,250,63,488c0,0,0,258,130,391c0,0,131,132,387,132c0,0,156,0,335,-38l5,-218H871L848,884c0,0,-52,32,-121,50c0,0,-69,17,-141,17c0,0,-191,0,-279,-112c0,0,-88,-113,-88,-349c0,0,0,-217,92,-332c0,0,92,-115,268,-115c0,0,85,0,160,20c0,0,76,21,120,55l27,149h49L930,32c0,0,-164,-46,-353,-46Z" 
id="f1_2"
transform="scale(0.001,-0.001)" />

<path d="M284,67c0,0,51,0,88,12c0,0,37,12,74,30V358l-98,-3c0,0,-100,-4,-135,-39c0,0,-35,-35,-35,-117c0,0,0,-132,106,-132ZM233,-14c0,0,-179,0,-179,208c0,0,0,70,27,116c0,0,27,46,87,70c0,0,60,24,173,27l105,3V519c0,0,0,72,-26,107c0,0,-27,34,-82,34c0,0,-75,0,-137,-35L176,538H134V691c0,0,121,26,213,26c0,0,115,0,169,-47c0,0,54,-47,54,-144V52L657,33V0H465L451,70c0,0,-85,-84,-218,-84Z" 
id="f1_3"
transform="scale(0.001,-0.001)" />

<path d="M278,-14c0,0,-52,0,-115,11c0,0,-63,10,-99,23V193H98L134,95c0,0,56,-50,146,-50c0,0,144,0,144,123c0,0,0,91,-114,130l-66,21c0,0,-75,25,-110,50c0,0,-34,26,-53,63c0,0,-18,36,-18,89c0,0,0,92,63,145c0,0,63,54,170,54c0,0,77,0,193,-23V544H454l-32,81c0,0,-39,35,-124,35c0,0,-61,0,-92,-30c0,0,-32,-30,-32,-80c0,0,0,-43,29,-72c0,0,28,-29,86,-48c0,0,110,-38,144,-55c0,0,33,-17,57,-42c0,0,23,-25,36,-57c0,0,13,-32,13,-79c0,0,0,-104,-66,-158c0,0,-66,-53,-195,-53Z" 
id="f1_4"
transform="scale(0.001,-0.001)" />

<path d="M249,-14c0,0,-71,0,-107,42c0,0,-35,42,-35,119V639H15v33l93,29l76,159h47V701H391V639H231V161c0,0,0,-48,22,-73c0,0,22,-24,57,-24c0,0,44,0,106,12V26C416,26,389,8,340,-2c0,0,-49,-12,-91,-12Z" 
id="f1_5"
transform="scale(0.001,-0.001)" />

<path d="M495,413c0,0,0,133,-34,190c0,0,-34,57,-105,57c0,0,-78,0,-119,-63c0,0,-42,-62,-42,-184ZM374,-14c0,0,-163,0,-239,87c0,0,-75,88,-75,283c0,0,0,183,77,273c0,0,76,91,219,91c0,0,269,0,269,-306V353H194V340c0,0,0,-103,23,-160c0,0,22,-57,70,-87c0,0,47,-29,124,-29c0,0,40,0,96,6c0,0,55,7,91,15V43C598,43,562,20,500,3c0,0,-61,-17,-126,-17Z" 
id="f1_6"
transform="scale(0.001,-0.001)" />

<path d="M31,0V33L150,52v956L31,1026v34H274V52L394,33V0Z" 
id="f1_7"
transform="scale(0.001,-0.001)" />

<path d="M439,0V33l93,19V500c0,0,0,62,-30,97c0,0,-31,36,-94,36c0,0,-67,0,-165,-22V52L338,33V0H35V33l84,19V649L35,668v33H235l7,-57c0,0,57,33,122,54c0,0,65,22,108,22c0,0,91,0,137,-53c0,0,47,-53,47,-154V52L741,33V0Z" 
id="f1_8"
transform="scale(0.001,-0.001)" />

<path d="M377,45c0,0,99,0,147,73c0,0,47,73,47,237c0,0,0,161,-47,233c0,0,-47,72,-147,72c0,0,-97,0,-141,-69c0,0,-44,-69,-44,-236c0,0,0,-169,45,-240c0,0,44,-70,140,-70Zm0,-59c0,0,-158,0,-238,94c0,0,-81,95,-81,274c0,0,0,178,81,272c0,0,80,94,244,94c0,0,160,0,241,-92c0,0,82,-92,82,-274c0,0,0,-368,-329,-368Z" 
id="f1_9"
transform="scale(0.001,-0.001)" />

<path d="M44,0V40L172,60V941L44,960v40H445V960L316,941V549H787V941L659,960v40h400V960L930,941V60L1059,40V0H659V40L787,60V481H316V60L445,40V0Z" 
id="f1_a"
transform="scale(0.001,-0.001)" />

<path d="M376,50c0,0,103,0,149,80c0,0,46,81,46,240c0,0,0,137,-47,204c0,0,-48,67,-148,67c0,0,-44,0,-87,-7c0,0,-44,-8,-63,-17V62c0,0,63,-12,150,-12Zm3,-64c0,0,-64,0,-141,14c0,0,-78,14,-136,37v971L0,1026v34H226V809c0,0,0,-40,-4,-148c0,0,74,59,188,59c0,0,143,0,219,-87c0,0,77,-87,77,-263c0,0,0,-189,-84,-287c0,0,-84,-97,-243,-97Z" 
id="f1_b"
transform="scale(0.001,-0.001)" />

<path d="M31,0V33l88,19V649L31,668v33H235l7,-87c0,0,44,37,121,71c0,0,76,35,121,35h11V530H463l-43,82c0,0,-37,0,-88,-10c0,0,-52,-10,-89,-26V52L363,33V0Z" 
id="f1_c"
transform="scale(0.001,-0.001)" />

<path d="M382,45c0,0,188,0,188,314c0,0,0,143,-47,213c0,0,-46,69,-141,69c0,0,-87,0,-146,-24V58c0,0,67,-13,146,-13ZM25,-325v35l88,18V649L34,668v33H231l1,-41c0,0,31,27,84,43c0,0,53,17,107,17c0,0,134,0,208,-94c0,0,73,-93,73,-267c0,0,0,-178,-80,-276c0,0,-80,-97,-232,-97c0,0,-84,0,-160,16c0,0,4,-53,4,-84V-272l123,-18v-35Z" 
id="f1_d"
transform="scale(0.001,-0.001)" />

<path d="M32,0V33L151,52V649L52,668v33H275V52L395,33V0ZM201,850c0,0,-32,0,-56,24c0,0,-24,24,-24,56c0,0,0,34,24,58c0,0,24,24,56,24c0,0,34,0,58,-24c0,0,24,-24,24,-58c0,0,0,-32,-24,-56c0,0,-24,-24,-58,-24Z" 
id="f1_e"
transform="scale(0.001,-0.001)" />

<path d="M399,-14c0,0,-341,0,-341,370c0,0,0,175,87,269c0,0,87,95,249,95c0,0,101,0,220,-23V501H573L541,625c0,0,-62,35,-149,35c0,0,-200,0,-200,-304c0,0,0,-158,61,-225c0,0,61,-67,189,-67c0,0,109,0,189,24V43C631,43,595,16,530,1c0,0,-64,-15,-131,-15Z" 
id="f1_f"
transform="scale(0.001,-0.001)" />

<path d="M377,44c0,0,99,0,147,73c0,0,47,73,47,237c0,0,0,161,-47,234c0,0,-47,72,-147,72c0,0,-97,0,-141,-69c0,0,-44,-70,-44,-237c0,0,0,-169,45,-239c0,0,44,-71,140,-71Zm0,-58c0,0,-158,0,-238,94c0,0,-81,95,-81,274c0,0,0,178,81,272c0,0,80,94,244,94c0,0,160,0,241,-92c0,0,82,-92,82,-274c0,0,0,-368,-329,-368ZM301,835v24l147,203H606v-27L342,835Z" 
id="f1_g"
transform="scale(0.001,-0.001)" />

<path d="M460,-325c0,0,-148,79,-231,172c0,0,-84,93,-123,217c0,0,-39,126,-39,304c0,0,0,178,39,303c0,0,39,125,122,217c0,0,82,93,232,172V997c0,0,-91,-52,-145,-134c0,0,-54,-81,-79,-190c0,0,-25,-109,-25,-305c0,0,0,-194,26,-309c0,0,26,-114,82,-193c0,0,56,-79,141,-128v-63Z" 
id="f1_1s"
transform="scale(0.001,-0.001)" />

<path d="M64,0V34L168,59V639H47v36l121,29v49c0,0,0,155,61,239c0,0,62,84,173,84c0,0,58,0,107,-15V908H472l-33,92c0,0,-26,16,-62,16c0,0,-47,0,-66,-42c0,0,-19,-42,-19,-157V701H478V639H292V59L443,34V0Z" 
id="f1_s"
transform="scale(0.001,-0.001)" />

<path d="M49,-325v63c0,0,85,49,140,128c0,0,56,79,83,194c0,0,26,115,26,308c0,0,0,196,-25,305c0,0,-25,109,-79,190c0,0,-54,82,-145,134v63c0,0,149,-80,232,-172c0,0,83,-92,122,-217c0,0,39,-125,39,-303c0,0,0,-177,-39,-303c0,0,-39,-125,-122,-217c0,0,-83,-93,-232,-173Z" 
id="f1_1u"
transform="scale(0.001,-0.001)" />

<path d="M154,0V454l138,56V0ZM722,0V454c0,0,0,161,-49,218c0,0,-48,57,-186,57H139V836H485c0,0,207,0,291,-93c0,0,83,-94,83,-318V0Z" 
id="f2_3"
transform="scale(0.001,-0.001)" />

<path d="M114,0l60,312c0,0,2,12,8,39c0,0,6,27,7,37c0,0,2,11,5,30c0,0,2,19,4,33c0,0,1,15,1,31c0,0,0,48,-35,146c0,0,-35,98,-98,208H228c0,0,3,-8,27,-67c0,0,25,-58,41,-117c0,0,21,53,50,90c0,0,29,37,57,57c0,0,29,21,65,32c0,0,37,11,65,14c0,0,28,3,67,3c0,0,300,0,300,-396V0H480V106H761V452c0,0,0,146,-46,215c0,0,-45,70,-118,70c0,0,-134,0,-198,-119c0,0,-36,-68,-67,-222c0,0,-2,-10,-6,-27L253,0Z" 
id="f2_l"
transform="scale(0.001,-0.001)" />

<path d="M102,312V836H241V369L102,312Z" 
id="f2_q"
transform="scale(0.001,-0.001)" />

<path d="M180,0L66,836H203L258,443c0,0,36,1,64,6c0,0,28,6,49,18c0,0,20,12,35,26c0,0,15,13,26,36c0,0,11,24,17,44c0,0,7,20,12,55c0,0,6,34,9,60c0,0,3,26,8,71c0,0,4,45,9,77H610c0,0,-13,-194,-31,-271c0,0,-31,-127,-111,-179c0,0,-71,-45,-196,-50L304,107c0,0,73,0,130,5c0,0,56,6,111,21c0,0,54,15,94,40c0,0,40,25,77,64c0,0,37,39,63,94c0,0,25,54,46,128c0,0,21,73,34,166c0,0,13,94,20,211h138c0,0,-14,-124,-29,-218c0,0,-16,-94,-39,-179c0,0,-22,-85,-50,-146c0,0,-28,-61,-68,-112c0,0,-39,-51,-87,-84C744,97,696,65,632,42C632,42,568,19,492,10C492,10,417,0,320,0Z" 
id="f2_o"
transform="scale(0.001,-0.001)" />

<path d="M66,0V107H332V555c0,0,0,92,-37,133c0,0,-37,41,-116,41H85V836h94c0,0,153,0,223,-66c0,0,69,-66,69,-231V0Z" 
id="f2_d"
transform="scale(0.001,-0.001)" />

<path d="M228,-14c0,0,-103,0,-209,46L49,200H83L95,99c0,0,20,-21,55,-38c0,0,36,-16,81,-16c0,0,163,0,163,133c0,0,0,44,-35,78c0,0,-34,34,-113,72c0,0,-75,37,-112,81c0,0,-36,45,-36,104c0,0,0,99,66,153c0,0,67,54,184,54c0,0,85,0,200,-26L521,538H486l-11,80c0,0,-47,42,-124,42c0,0,-61,0,-97,-28c0,0,-37,-28,-37,-87c0,0,0,-40,31,-71c0,0,32,-30,119,-75c0,0,78,-40,113,-86c0,0,36,-47,36,-107c0,0,0,-113,-71,-167c0,0,-72,-53,-217,-53Z" 
id="f3_2"
transform="scale(0.001,-0.001)" />

<path d="M301,78c0,0,85,0,185,104l81,442c0,0,-29,20,-55,28c0,0,-25,8,-62,8c0,0,-75,0,-137,-56c0,0,-62,-56,-98,-152c0,0,-36,-95,-36,-199c0,0,0,-79,33,-127c0,0,33,-48,89,-48ZM245,-14c0,0,-90,0,-145,66c0,0,-54,66,-54,182c0,0,0,131,57,244c0,0,57,114,152,178c0,0,96,64,208,64c0,0,90,0,170,-33l33,26h40L589,52L673,33L667,0H454l22,117C476,117,350,-14,245,-14Z" 
id="f3_3"
transform="scale(0.001,-0.001)" />

<path d="M54,0L169,649L81,668l6,33H294L274,558c0,0,62,81,130,121c0,0,67,41,132,41c0,0,75,0,113,-41c0,0,38,-41,38,-117c0,0,0,-10,-3,-32c0,0,-3,-21,-81,-478L700,34L695,0H470l76,434c0,0,17,94,17,123c0,0,0,34,-18,55c0,0,-18,21,-56,21c0,0,-56,0,-121,-47c0,0,-65,-47,-108,-117L178,0Z" 
id="f3_4"
transform="scale(0.001,-0.001)" />

<path d="M325,47c0,0,68,0,130,54c0,0,61,55,97,149c0,0,36,94,36,202c0,0,0,103,-39,156c0,0,-39,53,-113,53c0,0,-67,0,-128,-54c0,0,-61,-55,-96,-149c0,0,-35,-94,-35,-204c0,0,0,-101,39,-154c0,0,39,-53,109,-53Zm-6,-61c0,0,-124,0,-199,79c0,0,-74,79,-74,214c0,0,0,120,51,222c0,0,51,102,143,160c0,0,91,59,205,59c0,0,124,0,199,-80c0,0,74,-79,74,-214c0,0,0,-120,-51,-222C667,204,615,102,524,43c0,0,-91,-57,-205,-57Z" 
id="f3_5"
transform="scale(0.001,-0.001)" />

<path d="M343,-325c0,0,-154,91,-222,206c0,0,-67,114,-67,278c0,0,0,131,34,283c0,0,34,152,95,263c0,0,62,112,156,196c0,0,95,84,248,159L576,997c0,0,-99,-52,-166,-131c0,0,-68,-80,-112,-187c0,0,-44,-106,-77,-290c0,0,-34,-183,-34,-292c0,0,0,-252,167,-359l-11,-63Z" 
id="f3_7"
transform="scale(0.001,-0.001)" />

<path d="M55,0L169,649L81,668l6,33H295L274,557c0,0,52,73,117,118c0,0,65,45,122,45c0,0,66,0,102,-42c0,0,36,-41,36,-121c0,0,51,72,115,117c0,0,64,46,123,46c0,0,63,0,99,-40c0,0,36,-40,36,-116c0,0,0,-16,-3,-42c0,0,-3,-27,-80,-470l98,-19L1032,0H808l77,434c0,0,17,90,17,124c0,0,0,34,-16,54c0,0,-15,21,-49,21c0,0,-33,0,-78,-32c0,0,-46,-31,-83,-80c0,0,-37,-49,-44,-91L558,0H434l76,434c0,0,19,98,19,124c0,0,0,34,-17,54c0,0,-16,21,-51,21c0,0,-33,0,-81,-34c0,0,-47,-33,-84,-80c0,0,-36,-48,-43,-89L179,0Z" 
id="f3_8"
transform="scale(0.001,-0.001)" />

<path d="M-71,-325l11,63c0,0,97,51,163,130c0,0,66,78,109,179c0,0,43,103,79,285c0,0,36,183,36,305c0,0,0,130,-42,218c0,0,-41,89,-125,142l11,63c0,0,158,-94,224,-208c0,0,67,-113,67,-276c0,0,0,-125,-34,-278c0,0,-34,-153,-96,-267c0,0,-62,-112,-157,-197c0,0,-96,-85,-246,-159Z" 
id="f3_9"
transform="scale(0.001,-0.001)" />

<path d="M139,0l27,138c0,0,12,60,29,112c0,0,18,51,36,87c0,0,18,36,43,66c0,0,24,30,45,49c0,0,20,19,48,35c0,0,27,17,45,24c0,0,18,8,43,18L303,836H465L688,388c0,0,22,10,37,17c0,0,14,8,39,28c0,0,25,21,42,45c0,0,18,24,35,65c0,0,18,41,28,93l39,200h137L1018,697c0,0,-12,-61,-29,-112c0,0,-18,-51,-36,-87c0,0,-19,-36,-43,-66c0,0,-25,-31,-45,-49c0,0,-21,-18,-49,-35c0,0,-27,-16,-45,-24c0,0,-18,-8,-43,-17L881,0H719L496,448c0,0,-23,-11,-38,-19c0,0,-14,-8,-39,-27c0,0,-24,-20,-42,-44c0,0,-17,-25,-34,-66c0,0,-18,-41,-28,-92L276,0Z" 
id="f4_2"
transform="scale(0.001,-0.001)" />

<path d="M162,312L264,836H403L312,369L162,312Z" 
id="f4_3"
transform="scale(0.001,-0.001)" />

<path d="M585,0l83,425c0,0,10,55,11,99c0,0,1,44,-11,83c0,0,-12,39,-36,65c0,0,-25,26,-69,42c0,0,-44,15,-105,15H207l21,107H478c0,0,94,0,161,-20c0,0,67,-20,106,-55c0,0,39,-34,58,-87c0,0,18,-53,18,-113c0,0,0,-60,-15,-136L724,0Z" 
id="f4_4"
transform="scale(0.001,-0.001)" />

<path d="M66,0L87,107H576l67,345c0,0,10,56,14,93c0,0,3,37,-4,75c0,0,-7,38,-28,60c0,0,-21,21,-64,35c0,0,-43,14,-107,14H207l21,107H474c0,0,92,0,155,-18c0,0,63,-17,99,-49c0,0,37,-31,53,-83c0,0,16,-52,14,-114c0,0,-2,-62,-18,-147L715,107H838L818,0Z" 
id="f4_5"
transform="scale(0.001,-0.001)" />

<path d="M431,0V33L535,52V499c0,0,0,62,-32,96c0,0,-32,33,-95,33c0,0,-66,0,-163,-22V52L350,33V0H32V33l89,19V649L32,668v33H237l6,-57c0,0,56,32,119,54c0,0,62,22,110,22c0,0,52,0,95,-20c0,0,44,-19,66,-62c0,0,57,32,134,57c0,0,77,25,128,25c0,0,179,0,179,-207V52l90,-19V0H846V33L950,52V499c0,0,0,129,-119,129c0,0,-19,0,-45,-3c0,0,-26,-3,-52,-7c0,0,-25,-4,-49,-8c0,0,-23,-5,-39,-8c0,0,13,-41,13,-89V52L764,33V0Z" 
id="f1_i"
transform="scale(0.001,-0.001)" />

<path d="M736,107V473c0,0,0,147,-48,202c0,0,-49,54,-187,54H278V107ZM139,0V836H499c0,0,105,0,177,-22c0,0,72,-21,116,-69c0,0,44,-49,64,-119c0,0,19,-71,19,-174V0Z" 
id="f2_i"
transform="scale(0.001,-0.001)" />

<path d="M0,955v112H111V955Z" 
id="f2_17"
transform="scale(0.001,-0.001)" />

<path d="M139,0V836H278V0Z" 
id="f2_c"
transform="scale(0.001,-0.001)" />

<path d="M139,0V836H485c0,0,206,0,290,-90c0,0,84,-89,84,-294V0H721V473c0,0,0,147,-49,202c0,0,-48,54,-186,54H277V0Z" 
id="f2_h"
transform="scale(0.001,-0.001)" />

<path d="M85,0L199,649l-96,19l6,33H332L218,52L335,33L329,0ZM297,849c0,0,-33,0,-57,24c0,0,-24,24,-24,57c0,0,0,33,24,57c0,0,24,24,57,24c0,0,33,0,57,-24c0,0,24,-24,24,-57c0,0,0,-33,-24,-57c0,0,-24,-24,-57,-24Z" 
id="f3_a"
transform="scale(0.001,-0.001)" />

<path d="M81,0L258,1008l-96,18l6,34H391L214,52L331,33L325,0Z" 
id="f3_b"
transform="scale(0.001,-0.001)" />

<path d="M17,-325L185,639H64l6,36l127,29l9,49c0,0,30,167,100,245c0,0,71,78,191,78c0,0,57,0,104,-15L574,915H538l-14,85c0,0,-22,16,-63,16c0,0,-45,0,-72,-39c0,0,-26,-39,-48,-160L319,701H475L465,639H309L141,-325Z" 
id="f3_c"
transform="scale(0.001,-0.001)" />

<path d="M495,413c0,0,0,133,-34,190c0,0,-34,57,-105,57c0,0,-78,0,-119,-62c0,0,-42,-63,-42,-185ZM374,-14c0,0,-163,0,-239,87c0,0,-75,88,-75,283c0,0,0,183,77,274c0,0,76,90,219,90c0,0,269,0,269,-306V353H194V339c0,0,0,-103,23,-160c0,0,22,-57,70,-86c0,0,47,-30,124,-30c0,0,40,0,96,6c0,0,55,7,91,15V43C598,43,562,19,500,2c0,0,-61,-16,-126,-16ZM285,835v24l146,203H590v-27L326,835Z" 
id="f1_j"
transform="scale(0.001,-0.001)" />

<path d="M383,64c0,0,85,0,152,28V645c0,0,-67,13,-152,13c0,0,-194,0,-194,-314c0,0,0,-141,48,-211c0,0,48,-69,146,-69ZM342,-14c0,0,-287,0,-287,358c0,0,0,184,82,280c0,0,81,96,239,96c0,0,81,0,163,-18c0,0,-4,25,-4,124v182l-118,18v34H659V52L745,33V0H548l-9,52c0,0,-84,-66,-197,-66Z" 
id="f1_k"
transform="scale(0.001,-0.001)" />

<path d="M139,0V138c0,0,0,61,8,112c0,0,7,52,19,87c0,0,11,36,30,66c0,0,19,31,35,49c0,0,17,19,41,35c0,0,25,17,41,25c0,0,17,7,40,17L141,836H303L613,388c0,0,20,10,33,18c0,0,13,8,34,28c0,0,20,20,33,44c0,0,13,25,22,66c0,0,10,41,10,92V836H882V698c0,0,0,-61,-7,-112c0,0,-6,-52,-18,-88c0,0,-12,-36,-30,-66c0,0,-19,-30,-36,-49c0,0,-17,-18,-41,-34c0,0,-24,-17,-40,-25c0,0,-17,-8,-41,-17L882,0H720L409,448c0,0,-21,-11,-34,-19c0,0,-13,-8,-34,-27c0,0,-21,-20,-34,-44c0,0,-12,-25,-22,-66c0,0,-9,-41,-9,-92V0Z" 
id="f2_9"
transform="scale(0.001,-0.001)" />

<path d="M139,0V106H400c0,0,176,0,253,71c0,0,78,72,78,250c0,0,0,163,-80,233c0,0,-81,69,-250,69H278L277,564c0,0,-1,-54,26,-80c0,0,27,-25,82,-25c0,0,30,0,80,9V355c0,0,-61,-12,-111,-12c0,0,-100,0,-157,55c0,0,-58,55,-58,186V836H456c0,0,193,0,303,-109c0,0,110,-109,110,-309c0,0,0,-200,-110,-309C759,109,648,0,456,0Z" 
id="f2_8"
transform="scale(0.001,-0.001)" />

<path d="M585,0V426c0,0,0,54,-8,98c0,0,-8,44,-27,83c0,0,-19,40,-49,66c0,0,-30,26,-77,41c0,0,-47,15,-108,15H66V836H315c0,0,94,0,166,-20c0,0,71,-20,116,-54c0,0,46,-35,75,-88c0,0,28,-52,40,-112c0,0,12,-60,12,-137V0Z" 
id="f2_7"
transform="scale(0.001,-0.001)" />

<path d="M200,-14c0,0,-59,0,-93,35c0,0,-34,36,-34,100c0,0,0,22,4,51c0,0,4,30,82,467H67l6,33l99,29L275,860h47L295,701H455L443,639H283L210,230c0,0,-13,-69,-13,-99c0,0,0,-34,17,-51c0,0,17,-16,43,-16c0,0,54,0,113,21L386,50c0,0,-92,-64,-186,-64Z" 
id="f3_d"
transform="scale(0.001,-0.001)" />

<path d="M188,355c0,0,148,11,236,69c0,0,89,58,89,143c0,0,0,41,-23,68c0,0,-22,27,-66,27c0,0,-52,0,-101,-43c0,0,-49,-42,-85,-114c0,0,-36,-71,-50,-150ZM298,-14c0,0,-120,0,-186,67c0,0,-65,67,-65,193c0,0,0,125,53,232c0,0,52,108,145,175c0,0,94,67,196,67c0,0,92,0,147,-42c0,0,56,-43,56,-111c0,0,0,-102,-126,-173c0,0,-125,-72,-336,-86l-3,-54c0,0,0,-95,40,-143c0,0,40,-47,118,-47c0,0,67,0,124,22c0,0,57,23,106,52l22,-32c0,0,-69,-58,-146,-89c0,0,-76,-31,-145,-31Z" 
id="f3_e"
transform="scale(0.001,-0.001)" />

<path d="M62,0L176,649L88,668l6,33H301L278,543c0,0,55,84,124,130c0,0,69,47,138,47c0,0,37,0,59,-6L566,530H534l-28,95c0,0,-60,0,-124,-46c0,0,-63,-45,-116,-120L186,0Z" 
id="f3_f"
transform="scale(0.001,-0.001)" />

<path d="M305,45c0,0,76,0,141,56c0,0,64,56,101,151c0,0,37,95,37,200c0,0,0,83,-35,129c0,0,-34,46,-92,46c0,0,-44,0,-96,-29c0,0,-51,-29,-97,-75L185,81c0,0,43,-36,120,-36ZM295,-14c0,0,-65,0,-128,16C167,2,104,19,57,48l171,960l-100,18l6,34H358L303,731c0,0,-13,-85,-29,-144c0,0,59,61,122,97c0,0,64,36,116,36c0,0,94,0,150,-67c0,0,56,-67,56,-182c0,0,0,-129,-56,-242C662,229,606,115,509,50c0,0,-98,-64,-214,-64Z" 
id="f3_g"
transform="scale(0.001,-0.001)" />

<path d="M757,107l71,365c0,0,29,148,-9,202c0,0,-38,55,-176,55H419L298,107ZM139,0L301,836H662c0,0,105,0,172,-22c0,0,67,-22,102,-70c0,0,35,-48,41,-118c0,0,6,-71,-14,-174L875,0Z" 
id="f4_6"
transform="scale(0.001,-0.001)" />

<path d="M139,0L301,836H440L278,0Z" 
id="f4_7"
transform="scale(0.001,-0.001)" />

<path d="M112,-5c0,0,-39,0,-97,11V113c0,0,48,-10,77,-10c0,0,53,0,70,42c0,0,17,43,17,164V729H50V836H501c0,0,107,0,179,-25c0,0,72,-25,112,-77c0,0,40,-51,57,-118c0,0,16,-67,16,-164V0H726V454c0,0,0,55,-3,92c0,0,-4,37,-17,75c0,0,-14,38,-38,59c0,0,-24,22,-65,36c0,0,-42,13,-102,13H318V309c0,0,0,-160,-46,-237C272,72,226,-5,112,-5Z" 
id="f2_b"
transform="scale(0.001,-0.001)" />

<path d="M0,-141L388,1114H514L127,-141Z" 
id="f2_w"
transform="scale(0.001,-0.001)" />

<path d="M66,0V107H554V452c0,0,0,56,-4,93c0,0,-4,37,-18,75c0,0,-14,38,-40,60c0,0,-26,22,-71,36c0,0,-45,13,-110,13H66V836H312c0,0,91,0,157,-17c0,0,66,-17,109,-49c0,0,44,-32,69,-84c0,0,26,-52,36,-114c0,0,10,-62,10,-147V107H817V0Z" 
id="f2_f"
transform="scale(0.001,-0.001)" />

<path d="M383,64c0,0,44,0,87,7c0,0,43,7,65,17V645c0,0,-67,13,-152,13c0,0,-194,0,-194,-309c0,0,0,-143,48,-214c0,0,47,-71,146,-71Zm56,-389v35l96,18V-77c0,0,0,73,7,124c0,0,-79,-61,-200,-61c0,0,-287,0,-287,362c0,0,0,180,81,276c0,0,81,96,237,96c0,0,84,0,166,-18l67,33h53V-272l77,-18v-35Z" 
id="f1_l"
transform="scale(0.001,-0.001)" />

<path d="M289,-14c0,0,-179,0,-179,205V649L20,668v33H233V200c0,0,0,-128,120,-128c0,0,92,0,173,23V649L420,668v33H649V52L738,33V0H533l-6,57C527,57,474,28,405,7c0,0,-69,-21,-116,-21Z" 
id="f1_m"
transform="scale(0.001,-0.001)" />

<path d="M359,-270c0,0,124,0,192,46c0,0,67,47,67,129c0,0,0,43,-26,67c0,0,-26,24,-79,24H242c0,0,-32,-27,-51,-69c0,0,-20,-41,-20,-77c0,0,0,-64,46,-92c0,0,46,-28,142,-28Zm11,561c0,0,81,0,115,47c0,0,34,47,34,141c0,0,0,100,-35,142c0,0,-35,42,-113,42c0,0,-78,0,-114,-43c0,0,-37,-42,-37,-141c0,0,0,-98,36,-143c0,0,36,-45,114,-45ZM359,-329c0,0,-143,0,-218,44c0,0,-75,43,-75,125c0,0,0,39,27,78c0,0,26,38,98,89c0,0,-43,14,-72,48c0,0,-29,35,-29,74L208,262c0,0,-118,55,-118,217c0,0,0,115,73,178c0,0,73,63,211,63c0,0,28,0,71,-6c0,0,44,-6,67,-13l165,83l26,-32L599,644c0,0,50,-56,50,-165c0,0,0,-120,-72,-182c0,0,-73,-62,-208,-62c0,0,-62,0,-114,11L208,148c0,0,2,-13,29,-24c0,0,27,-12,67,-12H512c0,0,113,0,168,-49c0,0,55,-49,55,-134c0,0,0,-79,-44,-137c0,0,-43,-58,-128,-90c0,0,-84,-31,-204,-31Z" 
id="f1_n"
transform="scale(0.001,-0.001)" />

<path d="M522,-20c0,0,-196,0,-290,99c0,0,-94,100,-94,324V836H276V397c0,0,0,-86,16,-147c0,0,17,-60,50,-94c0,0,34,-34,77,-49c0,0,43,-15,103,-15c0,0,59,0,102,15c0,0,44,15,77,49c0,0,33,34,50,94c0,0,17,61,17,147c0,0,0,84,-8,143c0,0,-7,58,-25,105c0,0,-17,47,-51,69c0,0,-33,23,-83,23c0,0,-50,0,-119,-22V821c0,0,85,23,150,23c0,0,76,0,130,-30c0,0,53,-31,85,-90c0,0,31,-59,45,-138c0,0,13,-78,13,-183c0,0,0,-224,-93,-324c0,0,-94,-99,-290,-99Z" 
id="f2_k"
transform="scale(0.001,-0.001)" />

<path d="M138,-7c0,0,-34,0,-72,10V129c0,0,25,-8,52,-8c0,0,33,0,58,5c0,0,26,5,58,24c0,0,33,20,53,54c0,0,21,34,36,97c0,0,15,64,15,151c0,0,0,113,-19,173c0,0,-19,60,-56,82c0,0,-38,22,-107,22H89V836h72c0,0,165,0,240,-91c0,0,76,-91,76,-293c0,0,0,-107,26,-227c0,0,25,-119,83,-225H437c0,0,-43,101,-62,184c0,0,-24,-60,-51,-99c0,0,-26,-38,-56,-58C268,27,239,7,209,0c0,0,-30,-7,-71,-7Z" 
id="f2_j"
transform="scale(0.001,-0.001)" />

<path d="M287,0L589,729H66v386H205V836l547,-1l-2,-82L433,0Z" 
id="f2_e"
transform="scale(0.001,-0.001)" />

<path d="M442,0V33l93,19V504c0,0,0,129,-124,129c0,0,-70,0,-168,-22V52L338,33V0H31V33l88,19v956L15,1026v34H243V756c0,0,0,-77,-5,-112c0,0,54,31,122,53c0,0,68,23,115,23c0,0,91,0,137,-53c0,0,47,-53,47,-154V52L744,33V0Z" 
id="f1_o"
transform="scale(0.001,-0.001)" />

<path d="M152,0V473c0,0,0,94,28,161c0,0,29,66,71,95H66V836H463V729H404c0,0,-65,0,-89,-57c0,0,-25,-58,-25,-199V0Z" 
id="f2_4"
transform="scale(0.001,-0.001)" />

<path d="M32,0V34L151,52V649L52,668v33H275V52L395,34V0Zm71,835v24l146,203H408v-27L144,835Z" 
id="f1_p"
transform="scale(0.001,-0.001)" />

<path d="M347,-317V284c0,0,0,59,-21,123c0,0,-21,64,-44,103c0,0,-23,40,-59,94L66,838H218L336,668c0,0,76,-109,120,-223c0,0,87,34,126,107c0,0,39,73,39,186v98H758V737c0,0,0,-82,-23,-152c0,0,-23,-69,-61,-116c0,0,-39,-47,-87,-78c0,0,-47,-31,-101,-45V-317Z" 
id="f2_18"
transform="scale(0.001,-0.001)" />

<path d="M66,0V106H322c0,0,75,0,127,23c0,0,53,23,82,67c0,0,29,43,42,98c0,0,13,54,13,124c0,0,0,70,-13,124c0,0,-13,55,-42,98c0,0,-29,44,-82,67c0,0,-52,23,-127,23H66V836H322c0,0,87,0,157,-24c0,0,70,-24,115,-64c0,0,45,-40,74,-94c0,0,30,-55,43,-113c0,0,13,-59,13,-123c0,0,0,-64,-13,-123c0,0,-13,-58,-43,-113c0,0,-29,-54,-74,-94C594,88,549,48,479,24C479,24,409,0,322,0Z" 
id="f2_n"
transform="scale(0.001,-0.001)" />

<path d="M360,-14L72,649L0,668v33H327V668L216,648L420,164L615,649L504,668v33H764V668L697,652L416,-14Z" 
id="f1_r"
transform="scale(0.001,-0.001)" />

<path d="M66,0V106H564L66,836H228L516,413c0,0,3,2,9,6c0,0,17,13,27,21c0,0,10,8,26,27c0,0,17,20,26,40c0,0,9,21,16,54c0,0,7,34,7,75V836H764V698c0,0,0,-55,-7,-102c0,0,-7,-47,-16,-79c0,0,-10,-33,-27,-62c0,0,-18,-29,-32,-46c0,0,-14,-17,-37,-35c0,0,-22,-17,-36,-25c0,0,-13,-8,-36,-20L767,53V0Z" 
id="f2_s"
transform="scale(0.001,-0.001)" />

<path d="M700,-317V454c0,0,0,155,-54,215c0,0,-54,60,-180,60H277V551c0,0,0,-55,26,-80c0,0,27,-26,82,-26c0,0,30,0,80,10V341c0,0,-61,-11,-111,-11c0,0,-100,0,-157,55c0,0,-58,55,-58,186V836H466c0,0,203,0,288,-91c0,0,85,-92,85,-293V-317Z" 
id="f2_10"
transform="scale(0.001,-0.001)" />

<path d="M522,92c0,0,247,0,247,333c0,0,0,88,-17,146c0,0,-17,58,-53,91c0,0,-35,33,-82,46c0,0,-48,14,-116,14H276V419c0,0,0,-327,246,-327Zm0,-112c0,0,-193,0,-289,109c0,0,-95,110,-95,337V836H501c0,0,213,0,309,-93c0,0,96,-94,96,-317c0,0,0,-227,-95,-337C811,89,715,-20,522,-20Z" 
id="f2_g"
transform="scale(0.001,-0.001)" />

<path d="M139,-317V836H278V-317Z" 
id="f2_t"
transform="scale(0.001,-0.001)" />

<path d="M354,-200c0,0,-112,175,-167,343c0,0,-56,170,-56,337c0,0,0,166,55,335c0,0,55,169,168,345H473c0,0,-100,-172,-148,-340c0,0,-48,-168,-48,-340c0,0,0,-173,48,-342c0,0,49,-168,148,-338Z" 
id="f2_x"
transform="scale(0.001,-0.001)" />

<path d="M122,-200c0,0,99,170,148,338c0,0,49,169,49,342c0,0,0,172,-49,340c0,0,-49,168,-148,340H241c0,0,112,-176,168,-345c0,0,55,-169,55,-335c0,0,0,-167,-55,-337c0,0,-56,-168,-168,-343Z" 
id="f2_y"
transform="scale(0.001,-0.001)" />

<path d="M41,0V34L426,641H261c0,0,-42,0,-80,-7c0,0,-39,-7,-54,-19L104,515H69V701H586V665L201,60H407c0,0,42,0,89,10c0,0,47,10,66,25l39,147h35L617,0Z" 
id="f1_t"
transform="scale(0.001,-0.001)" />

<path d="M495,0V729H66V836H781V729H634V0Z" 
id="f2_r"
transform="scale(0.001,-0.001)" />

<path d="M64,-325c0,0,-46,0,-107,14v148H-8l19,-81c0,0,25,-21,62,-21c0,0,44,0,67,47c0,0,22,47,22,152V649L57,668v33H286V-28c0,0,0,-146,-57,-221c0,0,-56,-76,-165,-76ZM213,850c0,0,-34,0,-58,24c0,0,-24,24,-24,56c0,0,0,34,24,58c0,0,24,24,58,24c0,0,32,0,56,-24c0,0,24,-24,24,-58c0,0,0,-32,-24,-56c0,0,-24,-24,-56,-24Z" 
id="f1_u"
transform="scale(0.001,-0.001)" />

<path d="M156,-317V454l139,56V-317ZM505,0L806,729H139V835H967V753L650,0Z" 
id="f2_6"
transform="scale(0.001,-0.001)" />

<path d="M102,0V182L267,296c0,0,211,146,281,248c0,0,70,102,70,239c0,0,0,129,-53,197c0,0,-54,67,-156,67c0,0,-88,0,-141,-53c0,0,-52,-54,-67,-155H111v240c0,0,91,28,181,42c0,0,89,13,180,13c0,0,212,0,331,-87c0,0,119,-87,119,-242c0,0,0,-110,-66,-198c0,0,-65,-88,-250,-208L296,196H822V327H925V0Z" 
id="f0_b"
transform="scale(0.001,-0.001)" />

<path d="M276,-14c0,0,-57,0,-125,13C151,-1,83,10,48,23V214H97l28,-98c0,0,26,-26,69,-44c0,0,42,-17,86,-17c0,0,65,0,97,28c0,0,32,28,32,71c0,0,0,41,-31,65c0,0,-30,25,-133,57c0,0,-108,34,-154,92c0,0,-45,58,-45,143c0,0,0,95,71,152c0,0,71,57,183,57c0,0,77,0,207,-22V518H457l-24,82c0,0,-21,22,-60,35c0,0,-40,14,-75,14c0,0,-53,0,-79,-22c0,0,-26,-22,-26,-59c0,0,0,-40,32,-65c0,0,32,-26,132,-55c0,0,109,-34,155,-89c0,0,45,-55,45,-137c0,0,0,-117,-72,-177c0,0,-72,-59,-209,-59Z" 
id="f5_e"
transform="scale(0.001,-0.001)" />

<path d="M434,423c0,0,0,101,-7,142c0,0,-6,40,-22,60c0,0,-16,19,-45,19c0,0,-44,0,-66,-48c0,0,-22,-49,-22,-173ZM389,-14c0,0,-172,0,-254,89c0,0,-83,90,-83,279c0,0,0,184,79,274c0,0,79,91,238,91c0,0,142,0,206,-76c0,0,64,-76,64,-237V345H271V333c0,0,0,-111,18,-158c0,0,18,-47,58,-72c0,0,40,-25,110,-25c0,0,66,0,166,22V42C623,42,582,18,517,1c0,0,-66,-15,-128,-15Z" 
id="f5_g"
transform="scale(0.001,-0.001)" />

<path d="M360,-256c0,0,108,0,167,35c0,0,59,35,59,98c0,0,0,70,-95,70H254c0,0,-65,-47,-65,-108c0,0,0,-47,46,-71c0,0,45,-24,125,-24Zm9,561c0,0,55,0,79,43c0,0,25,43,25,129c0,0,0,87,-24,127c0,0,-25,41,-80,41c0,0,-52,0,-75,-41c0,0,-24,-40,-24,-127c0,0,0,-86,23,-129c0,0,23,-43,76,-43Zm-9,-641c0,0,-153,0,-236,43c0,0,-84,44,-84,120c0,0,0,33,28,65c0,0,27,31,105,76c0,0,-44,17,-75,59c0,0,-31,43,-31,90L192,258c0,0,-133,56,-133,219c0,0,0,116,81,180c0,0,82,63,233,63c0,0,32,0,82,-6c0,0,51,-6,74,-13l168,83l26,-32L638,631c0,0,46,-57,46,-154c0,0,0,-119,-80,-182c0,0,-80,-64,-234,-64c0,0,-59,0,-114,9L238,183c0,0,1,-22,28,-41c0,0,26,-19,64,-19H493c0,0,256,0,256,-196c0,0,0,-81,-44,-139c0,0,-45,-59,-131,-92c0,0,-86,-32,-214,-32Z" 
id="f5_j"
transform="scale(0.001,-0.001)" />

<path d="M287,-18c0,0,-194,0,-194,206V634L23,652v49H309V217c0,0,0,-63,26,-98c0,0,27,-35,76,-35c0,0,57,0,113,26V634l-64,18v49H740V67L809,49V0H536L526,61L475,35c0,0,-104,-53,-188,-53Zm23,852v25l124,203H647v-28L374,834Z" 
id="f5_n"
transform="scale(0.001,-0.001)" />

<path d="M41,0V49l69,18V634L41,652v49H313l11,-61l50,26c0,0,105,54,188,54c0,0,194,0,194,-207V67L827,49V0H478V49l63,18V484c0,0,0,63,-27,98c0,0,-26,35,-75,35c0,0,-57,0,-114,-25V67L389,49V0Z" 
id="f5_2"
transform="scale(0.001,-0.001)" />

<path d="M284,67c0,0,51,0,88,12c0,0,37,11,74,29V357l-98,-3c0,0,-100,-3,-135,-38c0,0,-35,-36,-35,-118c0,0,0,-131,106,-131ZM233,-14c0,0,-179,0,-179,208c0,0,0,70,27,116c0,0,27,46,87,70c0,0,60,24,173,27l105,3V519c0,0,0,73,-26,107c0,0,-27,34,-82,34c0,0,-75,0,-137,-35L176,538H134V691c0,0,121,26,213,26c0,0,115,0,169,-47c0,0,54,-47,54,-144V52L657,34V0H465L451,70c0,0,-85,-84,-218,-84Zm22,849v24l146,203H560v-27L296,835Z" 
id="f1_y"
transform="scale(0.001,-0.001)" />

<path d="M345,75c0,0,50,0,110,26V351l-63,-2c0,0,-72,-3,-100,-38c0,0,-28,-35,-28,-113c0,0,0,-63,22,-93c0,0,23,-30,59,-30ZM266,-14c0,0,-217,0,-217,208c0,0,0,79,32,126c0,0,32,48,93,71c0,0,60,22,190,25l91,2V521c0,0,0,126,-104,126c0,0,-62,0,-140,-39L183,521H134V691c0,0,112,17,165,21c0,0,53,5,108,5c0,0,264,0,264,-194V67L741,49V0H483L466,54C466,54,408,14,361,0c0,0,-47,-14,-95,-14Z" 
id="f5_7"
transform="scale(0.001,-0.001)" />

<path d="M425,-14c0,0,-187,0,-280,90c0,0,-93,90,-93,276c0,0,0,115,42,198c0,0,43,82,121,126c0,0,78,44,182,44c0,0,104,0,227,-26V486H571L539,609c0,0,-25,19,-50,26c0,0,-24,7,-65,7c0,0,-44,0,-79,-35c0,0,-36,-35,-56,-98c0,0,-20,-64,-20,-153c0,0,0,-150,47,-214c0,0,47,-64,148,-64c0,0,103,0,176,21V42C640,42,606,15,547,0c0,0,-59,-14,-122,-14Z" 
id="f5_a"
transform="scale(0.001,-0.001)" />

<path d="M34,0V49l76,18V634L38,652v49H325V67L402,49V0ZM217,831c0,0,-48,0,-81,33c0,0,-34,33,-34,82c0,0,0,48,34,81c0,0,34,33,81,33c0,0,48,0,81,-33c0,0,33,-33,33,-81c0,0,0,-47,-33,-81c0,0,-32,-34,-81,-34Z" 
id="f5_b"
transform="scale(0.001,-0.001)" />

<path d="M379,60c0,0,59,0,84,64c0,0,24,65,24,231c0,0,0,164,-24,227c0,0,-24,63,-84,63c0,0,-57,0,-80,-60c0,0,-22,-61,-22,-230c0,0,0,-173,23,-234c0,0,22,-61,79,-61Zm-2,-74c0,0,-161,0,-240,91c0,0,-79,91,-79,277c0,0,0,186,80,276c0,0,81,90,245,90c0,0,167,0,245,-93c0,0,78,-93,78,-273c0,0,0,-188,-81,-278c0,0,-81,-90,-248,-90Z" 
id="f5_4"
transform="scale(0.001,-0.001)" />

<path d="M30,0V49l76,18V992l-72,18v50H322V67L398,49V0Z" 
id="f5_8"
transform="scale(0.001,-0.001)" />

<path d="M41,0V49l69,18V634L41,652v49H313l11,-61l50,26c0,0,105,54,188,54c0,0,125,0,167,-91c0,0,153,91,258,91c0,0,189,0,189,-207V67l71,-17V0H898V50l63,17V484c0,0,0,63,-24,98c0,0,-25,35,-74,35c0,0,-55,0,-119,-31c0,0,7,-32,7,-73V67L821,50V0H473V50l63,17V484c0,0,0,63,-25,98c0,0,-24,35,-73,35c0,0,-49,0,-113,-29V67L389,49V0Z" 
id="f5_6"
transform="scale(0.001,-0.001)" />

<path d="M41,0V49l69,18V992l-72,18v50H325V756c0,0,0,-49,-4,-116l51,26c0,0,106,54,190,54c0,0,194,0,194,-207V67L827,49V0H478V49l63,18V484c0,0,0,63,-27,98c0,0,-26,35,-75,35c0,0,-57,0,-114,-25V67L389,49V0Z" 
id="f5_z"
transform="scale(0.001,-0.001)" />

<path d="M424,64c0,0,74,0,109,71c0,0,36,72,36,236c0,0,0,137,-34,201c0,0,-34,65,-111,65c0,0,-29,0,-62,-7c0,0,-34,-6,-55,-19V76c0,0,47,-12,117,-12Zm21,-78c0,0,-121,0,-354,50V994l-72,18v48H307V802c0,0,0,-69,-8,-141c0,0,30,25,86,42c0,0,57,17,110,17c0,0,153,0,223,-84c0,0,70,-83,70,-266c0,0,0,-180,-90,-283C698,87,608,-14,445,-14Z" 
id="f5_10"
transform="scale(0.001,-0.001)" />

<path d="M430,68c0,0,29,0,60,8c0,0,32,8,54,21V630c0,0,-51,12,-114,12c0,0,-76,0,-112,-75c0,0,-37,-75,-37,-233c0,0,0,-134,35,-200c0,0,35,-66,114,-66Zm11,-393v50l103,18V-97c0,0,0,70,7,141c0,0,-73,-58,-182,-58c0,0,-156,0,-231,91c0,0,-75,92,-75,277c0,0,0,179,84,272c0,0,84,94,248,94c0,0,53,0,208,-18l89,33h67V-257l77,-18v-50Z" 
id="f5_11"
transform="scale(0.001,-0.001)" />

<path d="M287,-18c0,0,-194,0,-194,206V634L23,652v49H309V217c0,0,0,-63,26,-98c0,0,27,-35,76,-35c0,0,57,0,113,25V634l-64,18v49H740V67L809,49V0H536L526,61L475,35c0,0,-104,-53,-188,-53Z" 
id="f5_i"
transform="scale(0.001,-0.001)" />

<path d="M438,65c0,0,131,0,131,293c0,0,0,279,-130,279c0,0,-69,0,-127,-29V80c0,0,60,-15,126,-15ZM20,-325v50l76,18V634L19,652v49H304l1,-36c0,0,80,55,194,55c0,0,146,0,218,-86c0,0,71,-86,71,-271c0,0,0,-183,-83,-280c0,0,-83,-97,-238,-97c0,0,-79,0,-160,19c0,0,5,-48,5,-109V-257l103,-18v-50Z" 
id="f5_y"
transform="scale(0.001,-0.001)" />

<path d="M116,-325c0,0,-67,0,-128,14v168H35l32,-84c0,0,18,-14,37,-14c0,0,40,0,63,49c0,0,24,50,24,141V627L67,652v49H407V-28c0,0,0,-141,-76,-219c0,0,-76,-78,-215,-78ZM298,831c0,0,-47,0,-81,33c0,0,-33,33,-33,82c0,0,0,47,33,80c0,0,33,34,81,34c0,0,47,0,81,-33c0,0,34,-33,34,-81c0,0,0,-48,-34,-81c0,0,-33,-34,-81,-34Z" 
id="f5_12"
transform="scale(0.001,-0.001)" />

<path d="M41,0V49l76,18V624H11v51l106,29v75c0,0,0,144,73,220c0,0,73,77,210,77c0,0,74,0,124,-15V894H476l-22,81c0,0,-18,17,-47,17c0,0,-74,0,-74,-189V701H475V624H333V67L447,49V0Z" 
id="f5_13"
transform="scale(0.001,-0.001)" />

<path d="M484,-20c0,0,-88,0,-182,14c0,0,-93,14,-195,44V283h90c0,0,8,-106,66,-162c0,0,58,-55,161,-55c0,0,113,0,175,63c0,0,62,63,62,178c0,0,0,121,-65,187c0,0,-64,65,-183,65H364v90h39c0,0,109,0,165,51c0,0,55,51,55,152c0,0,0,94,-52,145c0,0,-52,50,-149,50c0,0,-88,0,-139,-48c0,0,-52,-48,-62,-140H131v223c0,0,98,26,191,39c0,0,92,13,180,13c0,0,202,0,309,-72c0,0,108,-72,108,-206c0,0,0,-101,-62,-164c0,0,-62,-62,-181,-84c0,0,146,-23,217,-99c0,0,72,-76,72,-208c0,0,0,-156,-123,-239c0,0,-124,-82,-358,-82Z" 
id="f0_c"
transform="scale(0.001,-0.001)" />

<path d="M540,92c0,0,246,0,311,333c0,0,17,87,12,146c0,0,-6,58,-35,91c0,0,-29,33,-74,46c0,0,-45,13,-112,13H416L357,419C357,419,294,92,540,92ZM518,-21c0,0,-193,0,-267,109c0,0,-74,110,-30,337l80,411H664c0,0,213,0,290,-94c0,0,78,-93,35,-317C989,425,945,198,828,88C828,88,711,-21,518,-21Z" 
id="f4_8"
transform="scale(0.001,-0.001)" />

<path d="M66,0L87,106H343c0,0,75,0,132,23c0,0,57,23,94,67c0,0,37,43,61,98c0,0,23,54,37,124c0,0,13,70,11,124c0,0,-2,54,-23,98c0,0,-20,43,-68,66c0,0,-48,24,-123,24H207l21,106H485c0,0,87,0,152,-24c0,0,65,-24,102,-64c0,0,37,-40,56,-95c0,0,20,-54,21,-113c0,0,2,-58,-11,-122c0,0,-13,-64,-37,-123c0,0,-24,-59,-64,-113c0,0,-41,-54,-93,-94C611,88,558,48,484,24C484,24,410,0,322,0Z" 
id="f4_9"
transform="scale(0.001,-0.001)" />

<path d="M317,45c0,0,74,0,134,54c0,0,60,55,97,153c0,0,36,98,36,200c0,0,0,82,-33,129c0,0,-33,46,-89,46c0,0,-40,0,-93,-29c0,0,-54,-29,-96,-75L192,81c0,0,46,-36,125,-36ZM-88,-325l5,35l90,17L170,649L93,668l6,33H297L283,588c0,0,130,132,235,132c0,0,90,0,145,-67c0,0,55,-66,55,-182c0,0,0,-132,-56,-244C662,227,606,114,510,49c0,0,-97,-63,-209,-63c0,0,-35,0,-72,5c0,0,-37,5,-55,11l-8,-67L130,-273l119,-17l-6,-35Z" 
id="f3_h"
transform="scale(0.001,-0.001)" />

<path d="M228,-17c0,0,-76,0,-114,40c0,0,-38,41,-38,117c0,0,0,11,4,39c0,0,4,29,80,470L78,667l6,34H293L217,268c0,0,-17,-94,-17,-124c0,0,0,-34,18,-55c0,0,18,-21,57,-21c0,0,55,0,120,47c0,0,65,47,107,115l83,471H709L595,52L683,33L677,0H469l20,144C489,144,427,64,360,23c0,0,-67,-40,-132,-40Z" 
id="f3_i"
transform="scale(0.001,-0.001)" />

<path d="M111,-5c0,0,-39,0,-95,11L37,113c0,0,47,-11,75,-11c0,0,53,0,78,43c0,0,26,42,49,164l82,420H192l21,107H664c0,0,107,0,174,-25c0,0,67,-25,97,-77c0,0,30,-51,34,-119c0,0,3,-67,-16,-163L865,0H727l88,454c0,0,11,55,14,92c0,0,4,37,-3,74c0,0,-6,38,-26,60c0,0,-19,21,-58,35c0,0,-39,14,-99,14H460L377,309c0,0,-30,-160,-91,-237C286,72,225,-5,111,-5Z" 
id="f4_a"
transform="scale(0.001,-0.001)" />

<path d="M287,0L730,729H207l75,385H421L368,836l547,-1L896,753L433,0Z" 
id="f4_b"
transform="scale(0.001,-0.001)" />

<path d="M495,0L636,729H207l21,107H944L923,729H775L633,0Z" 
id="f4_c"
transform="scale(0.001,-0.001)" />

<path d="M71,-141V-15L289,62L66,836H210L416,109c0,0,99,42,153,98c0,0,53,56,80,155c0,0,26,98,26,262V836H817V624c0,0,0,-88,-7,-154c0,0,-7,-67,-25,-132c0,0,-18,-66,-51,-116c0,0,-33,-51,-84,-98c0,0,-50,-48,-123,-87c0,0,-72,-39,-169,-74L71,-141Z" 
id="f2_p"
transform="scale(0.001,-0.001)" />


</defs>
</svg>