<?xml version="1.0" encoding="UTF-8" standalone="no"?>
<!DOCTYPE svg PUBLIC "-//W3C//DTD SVG 1.1//EN"
"http://www.w3.org/Graphics/SVG/1.1/DTD/svg11.dtd">
<svg viewBox="0 0 909 1286" version="1.1" xmlns="http://www.w3.org/2000/svg" xmlns:xlink="http://www.w3.org/1999/xlink">
<defs>
<clipPath id="c0_9"><path d="M0,1286.2V0H909.4V1286.2Z" /></clipPath>
<clipPath id="c1_9"><path d="M642.4,205.4V184.1h.3v21.3Z" /></clipPath>
<clipPath id="c2_9"><path d="M642.4,882.8V861.5h.3v21.3Z" /></clipPath>
<style type="text/css"><![CDATA[
.g0_9{
fill: none;
stroke: #000000;
stroke-width: 0.7638889;
stroke-linecap: butt;
stroke-linejoin: round;
}
.g1_9{
fill: none;
stroke: #0000FF;
stroke-width: 1.0694444;
stroke-linecap: butt;
stroke-linejoin: miter;
}
]]></style>
</defs>
<path d="M128.6,110.4H780.8M128.6,137.9H780.8M128.6,165.4H780.8M128.9,110v55.8M454.7,110v55.8M780.4,110v55.8" class="g0_9" />
<g clip-path="url(#c0_9)">
<g fill="#000000" >
<use xlink:href="#f0_u" transform="matrix(11,0,0,11,137.7,133.8)" />
<use xlink:href="#f0_o" transform="matrix(11,0,0,11,152.6,133.8)" />
<use xlink:href="#f0_c" transform="matrix(11,0,0,11,161,133.8)" />
<use xlink:href="#f0_9" transform="matrix(11,0,0,11,168.5,133.8)" />
<use xlink:href="#f0_2" transform="matrix(11,0,0,11,174.9,133.8)" />
<use xlink:href="#f0_h" transform="matrix(11,0,0,11,179.6,133.8)" />
<use xlink:href="#f0_b" transform="matrix(11,0,0,11,185.2,133.8)" />
<use xlink:href="#f0_1b" transform="matrix(11,0,0,11,196.8,133.8)" />
<use xlink:href="#f0_1l" transform="matrix(11,0,0,11,202.5,133.8)" />
<use xlink:href="#f0_3" transform="matrix(11,0,0,11,212.7,133.8)" />
<use xlink:href="#f0_1c" transform="matrix(11,0,0,11,221.1,133.8)" />
<use xlink:href="#f0_d" transform="matrix(11,0,0,11,230.8,133.8)" />
<use xlink:href="#f0_b" transform="matrix(11,0,0,11,235.6,133.8)" />
<use xlink:href="#f0_9" transform="matrix(11,0,0,11,247.1,133.8)" />
<use xlink:href="#f0_j" transform="matrix(11,0,0,11,253.7,133.8)" />
<use xlink:href="#f0_d" transform="matrix(11,0,0,11,258.3,133.8)" />
<use xlink:href="#f0_d" transform="matrix(11,0,0,11,263,133.8)" />
<use xlink:href="#f0_b" transform="matrix(11,0,0,11,267.7,133.8)" />
<use xlink:href="#f0_b" transform="matrix(11,0,0,11,279.3,133.8)" />
<use xlink:href="#f0_c" transform="matrix(11,0,0,11,291,133.8)" />
<use xlink:href="#f0_d" transform="matrix(11,0,0,11,298.4,133.8)" />
<use xlink:href="#f0_d" transform="matrix(11,0,0,11,303.1,133.8)" />
<use xlink:href="#f0_f" transform="matrix(11,0,0,11,307.8,133.8)" />
<use xlink:href="#f0_9" transform="matrix(11,0,0,11,316.1,133.8)" />
<use xlink:href="#f0_x" transform="matrix(11,0,0,11,322.6,133.8)" />
<use xlink:href="#f0_r" transform="matrix(11,0,0,11,137.7,161.3)" />
<use xlink:href="#f0_f" transform="matrix(11,0,0,11,149.7,161.3)" />
<use xlink:href="#f0_8" transform="matrix(11,0,0,11,162.4,161.3)" />
<use xlink:href="#f0_f" transform="matrix(11,0,0,11,170.8,161.3)" />
<use xlink:href="#f0_11" transform="matrix(11,0,0,11,179.2,161.3)" />
<use xlink:href="#f0_i" transform="matrix(11,0,0,11,191.9,161.3)" />
<use xlink:href="#f0_12" transform="matrix(11,0,0,11,199.3,161.3)" />
<use xlink:href="#f0_f" transform="matrix(11,0,0,11,207.7,161.3)" />
<use xlink:href="#f0_i" transform="matrix(11,0,0,11,216,161.3)" />
<use xlink:href="#f0_f" transform="matrix(11,0,0,11,223.4,161.3)" />
<use xlink:href="#f0_d" transform="matrix(11,0,0,11,231.8,161.3)" />
<use xlink:href="#f0_b" transform="matrix(11,0,0,11,236.6,161.3)" />
<use xlink:href="#f0_2" transform="matrix(11,0,0,11,243.9,161.3)" />
<use xlink:href="#f0_c" transform="matrix(11,0,0,11,248.6,161.3)" />
<use xlink:href="#f0_b" transform="matrix(11,0,0,11,260.3,161.3)" />
<use xlink:href="#f0_d" transform="matrix(11,0,0,11,271.9,161.3)" />
<use xlink:href="#f0_f" transform="matrix(11,0,0,11,276.6,161.3)" />
<use xlink:href="#f0_9" transform="matrix(11,0,0,11,284.9,161.3)" />
<use xlink:href="#f0_e" transform="matrix(11,0,0,11,295.7,161.3)" />
<use xlink:href="#f0_j" transform="matrix(11,0,0,11,304.1,161.3)" />
<use xlink:href="#f0_1i" transform="matrix(11,0,0,11,308.8,161.3)" />
<use xlink:href="#f0_f" transform="matrix(11,0,0,11,317.2,161.3)" />
<use xlink:href="#f0_9" transform="matrix(11,0,0,11,325.5,161.3)" />
</g>
<g fill="#0000FF" >
<use xlink:href="#f1_2" transform="matrix(12,0,0,12,649.3,201.2)" />
<use xlink:href="#f1_5" transform="matrix(12,0,0,12,660,201.2)" />
<use xlink:href="#f1_s" transform="matrix(12,0,0,12,664.5,201.2)" />
<use xlink:href="#f1_9" transform="matrix(12,0,0,12,672.3,201.2)" />
<use xlink:href="#f1_4" transform="matrix(12,0,0,12,683.1,201.2)" />
<use xlink:href="#f1_2" transform="matrix(12,0,0,12,695.5,201.2)" />
<use xlink:href="#f1_4" transform="matrix(12,0,0,12,712.4,201.2)" />
<use xlink:href="#f1_7" transform="matrix(12,0,0,12,724.9,201.2)" />
<use xlink:href="#f1_8" transform="matrix(12,0,0,12,730.3,201.2)" />
<use xlink:href="#f1_7" transform="matrix(12,0,0,12,741.2,201.2)" />
<use xlink:href="#f1_b" transform="matrix(12,0,0,12,746.6,201.2)" />
<use xlink:href="#f1_4" transform="matrix(12,0,0,12,759.8,201.2)" />
</g>
</g>
<path d="M642.9,203H772.1" class="g1_9" />
<g clip-path="url(#c1_9)">
<path d="M642.4,203h5.8" class="g1_9" />
</g>
<g clip-path="url(#c0_9)">
<g fill="#0000FF" >
<use xlink:href="#f1_1e" transform="matrix(12,0,0,12,630.7,201.2)" />
</g>
</g>
<path d="M630.7,203h11.6" class="g1_9" />
<g clip-path="url(#c0_9)">
<g fill="#000000" >
<use xlink:href="#f2_1f" transform="matrix(16,0,0,16,648.2,312.7)" />
<use xlink:href="#f2_v" transform="matrix(16,0,0,16,672.8,312.7)" />
<use xlink:href="#f2_w" transform="matrix(16,0,0,16,686.7,312.7)" />
<use xlink:href="#f2_e" transform="matrix(16,0,0,16,698,312.7)" />
<use xlink:href="#f2_x" transform="matrix(16,0,0,16,710.5,312.7)" />
<use xlink:href="#f2_6" transform="matrix(16,0,0,16,721.8,312.7)" />
<use xlink:href="#f2_y" transform="matrix(16,0,0,16,730.2,312.7)" />
<use xlink:href="#f2_x" transform="matrix(16,0,0,16,737.3,312.7)" />
<use xlink:href="#f2_e" transform="matrix(16,0,0,16,748.5,312.7)" />
<use xlink:href="#f2_w" transform="matrix(16,0,0,16,761.1,312.7)" />
<use xlink:href="#f3_2" transform="matrix(13,0,0,13,137.7,336.7)" />
<use xlink:href="#f3_3" transform="matrix(13,0,0,13,152.8,336.7)" />
<use xlink:href="#f3_4" transform="matrix(13,0,0,13,160,336.7)" />
<use xlink:href="#f3_f" transform="matrix(13,0,0,13,172.6,336.7)" />
<use xlink:href="#f3_g" transform="matrix(13,0,0,13,183,336.7)" />
<use xlink:href="#f3_h" transform="matrix(13,0,0,13,195.1,336.7)" />
<use xlink:href="#f3_g" transform="matrix(13,0,0,13,202.6,336.7)" />
<use xlink:href="#f3_h" transform="matrix(13,0,0,13,214.6,336.7)" />
<use xlink:href="#f3_8" transform="matrix(13,0,0,13,222.1,336.7)" />
<use xlink:href="#f3_j" transform="matrix(13,0,0,13,242.6,336.7)" />
<use xlink:href="#f3_k" transform="matrix(13,0,0,13,263.2,336.7)" />
<use xlink:href="#f0_1l" transform="matrix(11,0,0,11,278.5,336.7)" />
<use xlink:href="#f0_h" transform="matrix(11,0,0,11,288.7,336.7)" />
<use xlink:href="#f0_b" transform="matrix(11,0,0,11,294.2,336.7)" />
<use xlink:href="#f0_8" transform="matrix(11,0,0,11,301.7,336.7)" />
<use xlink:href="#f0_o" transform="matrix(11,0,0,11,310.1,336.7)" />
<use xlink:href="#f0_i" transform="matrix(11,0,0,11,318.5,336.7)" />
<use xlink:href="#f0_c" transform="matrix(11,0,0,11,326,336.7)" />
<use xlink:href="#f0_d" transform="matrix(11,0,0,11,337.7,336.7)" />
<use xlink:href="#f0_b" transform="matrix(11,0,0,11,342.3,336.7)" />
<use xlink:href="#f0_9" transform="matrix(11,0,0,11,349.8,336.7)" />
<use xlink:href="#f0_9" transform="matrix(11,0,0,11,360.4,336.7)" />
<use xlink:href="#f0_j" transform="matrix(11,0,0,11,367,336.7)" />
<use xlink:href="#f0_l" transform="matrix(11,0,0,11,371.7,336.7)" />
<use xlink:href="#f0_o" transform="matrix(11,0,0,11,380.1,336.7)" />
<use xlink:href="#f0_j" transform="matrix(11,0,0,11,388.4,336.7)" />
<use xlink:href="#f0_c" transform="matrix(11,0,0,11,393.1,336.7)" />
<use xlink:href="#f0_e" transform="matrix(11,0,0,11,400.5,336.7)" />
<use xlink:href="#f0_2" transform="matrix(11,0,0,11,408.9,336.7)" />
<use xlink:href="#f0_c" transform="matrix(11,0,0,11,413.7,336.7)" />
<use xlink:href="#f0_9" transform="matrix(11,0,0,11,421,336.7)" />
<use xlink:href="#f0_18" transform="matrix(11,0,0,11,431.8,336.7)" />
<use xlink:href="#f0_h" transform="matrix(11,0,0,11,437.3,336.7)" />
<use xlink:href="#f0_b" transform="matrix(11,0,0,11,442.9,336.7)" />
<use xlink:href="#f0_9" transform="matrix(11,0,0,11,450.4,336.7)" />
<use xlink:href="#f0_c" transform="matrix(11,0,0,11,457,336.7)" />
<use xlink:href="#f0_9" transform="matrix(11,0,0,11,464.4,336.7)" />
<use xlink:href="#f1_v" transform="matrix(12,0,0,12,143.6,358.4)" />
<use xlink:href="#f1_x" transform="matrix(12,0,0,12,149.7,358.4)" />
<use xlink:href="#f1_p" transform="matrix(12,0,0,12,156.9,358.4)" />
<use xlink:href="#f1_h" transform="matrix(12,0,0,12,161.9,358.4)" />
<use xlink:href="#f1_2" transform="matrix(12,0,0,12,171.5,358.4)" />
<use xlink:href="#f1_e" transform="matrix(12,0,0,12,187.7,358.4)" />
<use xlink:href="#f1_l" transform="matrix(12,0,0,12,199.9,358.4)" />
<use xlink:href="#f1_7" transform="matrix(12,0,0,12,209.9,358.4)" />
<use xlink:href="#f1_3" transform="matrix(12,0,0,12,214.9,358.4)" />
<use xlink:href="#f1_7" transform="matrix(12,0,0,12,233.7,358.4)" />
<use xlink:href="#f1_n" transform="matrix(12,0,0,12,238.7,358.4)" />
<use xlink:href="#f1_5" transform="matrix(12,0,0,12,250.2,358.4)" />
<use xlink:href="#f1_j" transform="matrix(12,0,0,12,254.3,358.4)" />
<use xlink:href="#f1_7" transform="matrix(12,0,0,12,265.7,358.4)" />
<use xlink:href="#f1_a" transform="matrix(12,0,0,12,270.8,358.4)" />
<use xlink:href="#f1_b" transform="matrix(12,0,0,12,282.7,358.4)" />
<use xlink:href="#f1_m" transform="matrix(12,0,0,12,301.5,358.4)" />
<use xlink:href="#f1_4" transform="matrix(12,0,0,12,307.3,358.4)" />
<use xlink:href="#f1_7" transform="matrix(12,0,0,12,319.3,358.4)" />
<use xlink:href="#f1_s" transform="matrix(12,0,0,12,324.3,358.4)" />
<use xlink:href="#f1_g" transform="matrix(12,0,0,12,331.8,358.4)" />
<use xlink:href="#f1_5" transform="matrix(12,0,0,12,342.7,358.4)" />
<use xlink:href="#f1_5" transform="matrix(12,0,0,12,346.8,358.4)" />
<use xlink:href="#f1_f" transform="matrix(12,0,0,12,350.9,358.4)" />
<use xlink:href="#f1_a" transform="matrix(12,0,0,12,363.4,358.4)" />
<use xlink:href="#f1_4" transform="matrix(12,0,0,12,381.1,358.4)" />
<use xlink:href="#f1_7" transform="matrix(12,0,0,12,393.2,358.4)" />
<use xlink:href="#f1_c" transform="matrix(12,0,0,12,398.2,358.4)" />
<use xlink:href="#f1_f" transform="matrix(12,0,0,12,410.4,358.4)" />
<use xlink:href="#f1_s" transform="matrix(12,0,0,12,422.9,358.4)" />
<use xlink:href="#f1_7" transform="matrix(12,0,0,12,430.4,358.4)" />
<use xlink:href="#f1_l" transform="matrix(12,0,0,12,435.3,358.4)" />
<use xlink:href="#f1_a" transform="matrix(12,0,0,12,445.4,358.4)" />
<use xlink:href="#f1_4" transform="matrix(12,0,0,12,463.1,358.4)" />
<use xlink:href="#f1_c" transform="matrix(12,0,0,12,475.1,358.4)" />
<use xlink:href="#f1_7" transform="matrix(12,0,0,12,493.3,358.4)" />
<use xlink:href="#f1_c" transform="matrix(12,0,0,12,498.2,358.4)" />
<use xlink:href="#f1_y" transform="matrix(12,0,0,12,510.4,358.4)" />
<use xlink:href="#f1_c" transform="matrix(12,0,0,12,523.6,358.4)" />
<use xlink:href="#f1_b" transform="matrix(12,0,0,12,535.8,358.4)" />
<use xlink:href="#f1_7" transform="matrix(12,0,0,12,548.8,358.4)" />
<use xlink:href="#f1_f" transform="matrix(12,0,0,12,553.7,358.4)" />
<use xlink:href="#f1_a" transform="matrix(12,0,0,12,566.2,358.4)" />
<use xlink:href="#f1_4" transform="matrix(12,0,0,12,584.1,358.4)" />
<use xlink:href="#f1_8" transform="matrix(12,0,0,12,596.2,358.4)" />
<use xlink:href="#f1_g" transform="matrix(12,0,0,12,606.7,358.4)" />
<use xlink:href="#f1_a" transform="matrix(12,0,0,12,617.6,358.4)" />
<use xlink:href="#f1_2" transform="matrix(12,0,0,12,629.5,358.4)" />
<use xlink:href="#f1_e" transform="matrix(12,0,0,12,645.7,358.4)" />
<use xlink:href="#f1_5" transform="matrix(12,0,0,12,657.9,358.4)" />
<use xlink:href="#f1_2" transform="matrix(12,0,0,12,662,358.4)" />
<use xlink:href="#f1_2" transform="matrix(12,0,0,12,672.4,358.4)" />
<use xlink:href="#f1_h" transform="matrix(12,0,0,12,682.8,358.4)" />
<use xlink:href="#f1_a" transform="matrix(12,0,0,12,692.4,358.4)" />
<use xlink:href="#f1_4" transform="matrix(12,0,0,12,710.3,358.4)" />
<use xlink:href="#f1_c" transform="matrix(12,0,0,12,722.3,358.4)" />
<use xlink:href="#f1_9" transform="matrix(12,0,0,12,740.4,358.4)" />
<use xlink:href="#f1_7" transform="matrix(12,0,0,12,750.8,358.4)" />
<use xlink:href="#f1_h" transform="matrix(12,0,0,12,755.7,358.4)" />
<use xlink:href="#f1_i" transform="matrix(12,0,0,12,765.3,358.4)" />
<use xlink:href="#f4_u" transform="matrix(12,0,0,12,253,379.8)" />
<use xlink:href="#f4_a" transform="matrix(12,0,0,12,260,379.8)" />
<use xlink:href="#f4_f" transform="matrix(12,0,0,12,272.5,379.8)" />
<use xlink:href="#f4_8" transform="matrix(12,0,0,12,285,379.8)" />
<use xlink:href="#f4_d" transform="matrix(12,0,0,12,291.3,379.8)" />
<use xlink:href="#f4_9" transform="matrix(12,0,0,12,310.8,379.8)" />
<use xlink:href="#f4_m" transform="matrix(12,0,0,12,324.1,379.8)" />
<use xlink:href="#f4_m" transform="matrix(12,0,0,12,341.7,379.8)" />
<use xlink:href="#f4_12" transform="matrix(12,0,0,12,352.8,379.8)" />
<use xlink:href="#f4_8" transform="matrix(12,0,0,12,365,379.8)" />
<use xlink:href="#f4_5" transform="matrix(12,0,0,12,371.3,379.8)" />
<use xlink:href="#f4_j" transform="matrix(12,0,0,12,383.3,379.8)" />
<use xlink:href="#f4_8" transform="matrix(12,0,0,12,394.5,379.8)" />
<use xlink:href="#f4_7" transform="matrix(12,0,0,12,413.7,379.8)" />
<use xlink:href="#f4_j" transform="matrix(12,0,0,12,419.1,379.8)" />
<use xlink:href="#f4_8" transform="matrix(12,0,0,12,430.2,379.8)" />
<use xlink:href="#f4_7" transform="matrix(12,0,0,12,436.5,379.8)" />
<use xlink:href="#f4_w" transform="matrix(12,0,0,12,441.8,379.8)" />
<use xlink:href="#f4_7" transform="matrix(12,0,0,12,460.9,379.8)" />
<use xlink:href="#f4_8" transform="matrix(12,0,0,12,466.3,379.8)" />
<use xlink:href="#f4_8" transform="matrix(12,0,0,12,472.5,379.8)" />
<use xlink:href="#f4_7" transform="matrix(12,0,0,12,478.8,379.8)" />
<use xlink:href="#f4_h" transform="matrix(12,0,0,12,484.1,379.8)" />
<use xlink:href="#f4_j" transform="matrix(12,0,0,12,496.1,379.8)" />
<use xlink:href="#f4_e" transform="matrix(12,0,0,12,513.6,379.8)" />
<use xlink:href="#f4_m" transform="matrix(12,0,0,12,520.9,379.8)" />
<use xlink:href="#f4_12" transform="matrix(12,0,0,12,532.1,379.8)" />
<use xlink:href="#f4_8" transform="matrix(12,0,0,12,544.3,379.8)" />
<use xlink:href="#f4_5" transform="matrix(12,0,0,12,550.5,379.8)" />
<use xlink:href="#f4_a" transform="matrix(12,0,0,12,562.6,379.8)" />
<use xlink:href="#f4_7" transform="matrix(12,0,0,12,581.6,379.8)" />
<use xlink:href="#f4_4" transform="matrix(12,0,0,12,587,379.8)" />
<use xlink:href="#f4_w" transform="matrix(12,0,0,12,598,379.8)" />
<use xlink:href="#f4_9" transform="matrix(12,0,0,12,610.5,379.8)" />
<use xlink:href="#f4_9" transform="matrix(12,0,0,12,630.2,379.8)" />
<use xlink:href="#f4_k" transform="matrix(12,0,0,12,643.5,379.8)" />
<use xlink:href="#f4_8" transform="matrix(12,0,0,12,657.4,379.8)" />
<use xlink:href="#f4_d" transform="matrix(12,0,0,12,663.7,379.8)" />
<use xlink:href="#f4_a" transform="matrix(12,0,0,12,676.9,379.8)" />
<use xlink:href="#f4_l" transform="matrix(12,0,0,12,695.9,379.8)" />
<use xlink:href="#f4_9" transform="matrix(12,0,0,12,708.4,379.8)" />
<use xlink:href="#f4_v" transform="matrix(12,0,0,12,728.2,379.8)" />
<use xlink:href="#f4_4" transform="matrix(12,0,0,12,740.6,379.8)" />
<use xlink:href="#f4_h" transform="matrix(12,0,0,12,751.6,379.8)" />
<use xlink:href="#f4_10" transform="matrix(12,0,0,12,763.5,379.8)" />
<use xlink:href="#f4_u" transform="matrix(12,0,0,12,269.2,401.2)" />
<use xlink:href="#f4_m" transform="matrix(12,0,0,12,276.1,401.2)" />
<use xlink:href="#f4_7" transform="matrix(12,0,0,12,287.2,401.2)" />
<use xlink:href="#f4_b" transform="matrix(12,0,0,12,292.6,401.2)" />
<use xlink:href="#f4_4" transform="matrix(12,0,0,12,300.8,401.2)" />
<use xlink:href="#f4_a" transform="matrix(12,0,0,12,318.3,401.2)" />
<use xlink:href="#f4_8" transform="matrix(12,0,0,12,330.8,401.2)" />
<use xlink:href="#f4_8" transform="matrix(12,0,0,12,337.1,401.2)" />
<use xlink:href="#f4_a" transform="matrix(12,0,0,12,343.4,401.2)" />
<use xlink:href="#f4_i" transform="matrix(12,0,0,12,362.3,401.2)" />
<use xlink:href="#f4_d" transform="matrix(12,0,0,12,368.6,401.2)" />
<use xlink:href="#f4_c" transform="matrix(12,0,0,12,381.9,401.2)" />
<use xlink:href="#f4_j" transform="matrix(12,0,0,12,389.2,401.2)" />
<use xlink:href="#f4_8" transform="matrix(12,0,0,12,400.3,401.2)" />
<use xlink:href="#f4_7" transform="matrix(12,0,0,12,413,401.2)" />
<use xlink:href="#f4_m" transform="matrix(12,0,0,12,418.4,401.2)" />
<use xlink:href="#f4_7" transform="matrix(12,0,0,12,429.5,401.2)" />
<use xlink:href="#f4_m" transform="matrix(12,0,0,12,434.8,401.2)" />
<use xlink:href="#f4_k" transform="matrix(12,0,0,12,446,401.2)" />
<use xlink:href="#f4_7" transform="matrix(12,0,0,12,466.4,401.2)" />
<use xlink:href="#f4_8" transform="matrix(12,0,0,12,471.8,401.2)" />
<use xlink:href="#f4_8" transform="matrix(12,0,0,12,478,401.2)" />
<use xlink:href="#f4_7" transform="matrix(12,0,0,12,484.3,401.2)" />
<use xlink:href="#f4_h" transform="matrix(12,0,0,12,489.7,401.2)" />
<use xlink:href="#f4_j" transform="matrix(12,0,0,12,501.6,401.2)" />
<use xlink:href="#f4_e" transform="matrix(12,0,0,12,519.1,401.2)" />
<use xlink:href="#f4_m" transform="matrix(12,0,0,12,526.4,401.2)" />
<use xlink:href="#f4_12" transform="matrix(12,0,0,12,537.6,401.2)" />
<use xlink:href="#f4_8" transform="matrix(12,0,0,12,549.8,401.2)" />
<use xlink:href="#f4_5" transform="matrix(12,0,0,12,556,401.2)" />
<use xlink:href="#f4_a" transform="matrix(12,0,0,12,568.1,401.2)" />
<use xlink:href="#f4_7" transform="matrix(12,0,0,12,587,401.2)" />
<use xlink:href="#f4_10" transform="matrix(12,0,0,12,592.4,401.2)" />
<use xlink:href="#f4_5" transform="matrix(12,0,0,12,600.6,401.2)" />
<use xlink:href="#f4_m" transform="matrix(12,0,0,12,612.7,401.2)" />
<use xlink:href="#f4_9" transform="matrix(12,0,0,12,630.2,401.2)" />
<use xlink:href="#f4_k" transform="matrix(12,0,0,12,643.5,401.2)" />
<use xlink:href="#f4_8" transform="matrix(12,0,0,12,657.4,401.2)" />
<use xlink:href="#f4_d" transform="matrix(12,0,0,12,663.6,401.2)" />
<use xlink:href="#f4_a" transform="matrix(12,0,0,12,676.9,401.2)" />
<use xlink:href="#f4_l" transform="matrix(12,0,0,12,695.8,401.2)" />
<use xlink:href="#f4_9" transform="matrix(12,0,0,12,708.4,401.2)" />
<use xlink:href="#f4_v" transform="matrix(12,0,0,12,728.2,401.2)" />
<use xlink:href="#f4_4" transform="matrix(12,0,0,12,740.5,401.2)" />
<use xlink:href="#f4_h" transform="matrix(12,0,0,12,751.5,401.2)" />
<use xlink:href="#f4_10" transform="matrix(12,0,0,12,763.5,401.2)" />
</g>
</g>
<path d="M128.6,425.3H780.5M128.6,468.8H780.5M128.9,424.9v44.3M237.4,424.9v44.3M364.8,424.9v44.3m89.7,-44.3v44.3M563,424.9v44.3M671.6,424.9v44.3M780.1,424.9v44.3" class="g0_9" />
<g clip-path="url(#c0_9)">
<g fill="#000000" >
<use xlink:href="#f1_9" transform="matrix(12,0,0,12,730.7,442.8)" />
<use xlink:href="#f1_8" transform="matrix(12,0,0,12,741.1,442.8)" />
<use xlink:href="#f1_l" transform="matrix(12,0,0,12,751.7,442.8)" />
<use xlink:href="#f1_2" transform="matrix(12,0,0,12,761.6,442.8)" />
<use xlink:href="#f0_12" transform="matrix(11,0,0,11,571.8,441.4)" />
<use xlink:href="#f0_b" transform="matrix(11,0,0,11,580.3,441.4)" />
<use xlink:href="#f0_v" transform="matrix(11,0,0,11,587.7,441.4)" />
<use xlink:href="#f0_d" transform="matrix(11,0,0,11,596,441.4)" />
<use xlink:href="#f0_b" transform="matrix(11,0,0,11,600.7,441.4)" />
<use xlink:href="#f0_h" transform="matrix(11,0,0,11,608.1,441.4)" />
<use xlink:href="#f1_8" transform="matrix(12,0,0,12,491.9,442.8)" />
<use xlink:href="#f1_5" transform="matrix(12,0,0,12,502.5,442.8)" />
<use xlink:href="#f1_b" transform="matrix(12,0,0,12,506.6,442.8)" />
<use xlink:href="#f1_3" transform="matrix(12,0,0,12,519.6,442.8)" />
<use xlink:href="#f1_a" transform="matrix(12,0,0,12,532.6,442.8)" />
<use xlink:href="#f1_2" transform="matrix(12,0,0,12,544.5,442.8)" />
<use xlink:href="#f0_c" transform="matrix(11,0,0,11,373.5,441.4)" />
<use xlink:href="#f0_9" transform="matrix(11,0,0,11,381,441.4)" />
<use xlink:href="#f0_i" transform="matrix(11,0,0,11,387.6,441.4)" />
<use xlink:href="#f0_o" transform="matrix(11,0,0,11,395,441.4)" />
<use xlink:href="#f0_i" transform="matrix(11,0,0,11,403.4,441.4)" />
<use xlink:href="#f0_12" transform="matrix(11,0,0,11,410.9,441.4)" />
<use xlink:href="#f0_b" transform="matrix(11,0,0,11,419.1,441.4)" />
<use xlink:href="#f0_h" transform="matrix(11,0,0,11,426.6,441.4)" />
<use xlink:href="#f1_1c" transform="matrix(12,0,0,12,307.1,442.8)" />
<use xlink:href="#f1_l" transform="matrix(12,0,0,12,313.2,442.8)" />
<use xlink:href="#f1_f" transform="matrix(12,0,0,12,323.3,442.8)" />
<use xlink:href="#f1_2" transform="matrix(12,0,0,12,335.8,442.8)" />
<use xlink:href="#f1_2" transform="matrix(12,0,0,12,346.2,442.8)" />
<use xlink:href="#f1_4" transform="matrix(12,0,0,12,294.6,464.1)" />
<use xlink:href="#f1_7" transform="matrix(12,0,0,12,306.6,464.1)" />
<use xlink:href="#f1_c" transform="matrix(12,0,0,12,311.6,464.1)" />
<use xlink:href="#f1_9" transform="matrix(12,0,0,12,323.9,464.1)" />
<use xlink:href="#f1_a" transform="matrix(12,0,0,12,334.2,464.1)" />
<use xlink:href="#f1_2" transform="matrix(12,0,0,12,346.1,464.1)" />
<use xlink:href="#f0_c" transform="matrix(11,0,0,11,137.7,441.4)" />
<use xlink:href="#f0_e" transform="matrix(11,0,0,11,145.1,441.4)" />
<use xlink:href="#f0_9" transform="matrix(11,0,0,11,153.5,441.4)" />
<use xlink:href="#f0_c" transform="matrix(11,0,0,11,160.1,441.4)" />
<use xlink:href="#f0_1i" transform="matrix(11,0,0,11,167.5,441.4)" />
<use xlink:href="#f0_b" transform="matrix(11,0,0,11,175.9,441.4)" />
<use xlink:href="#f0_h" transform="matrix(11,0,0,11,183.3,441.4)" />
</g>
</g>
<path d="M128.6,489H780.8M128.6,511.1H780.8m-652.2,20H780.8M128.6,551.3H780.8m-652.2,20H780.8M128.6,591.5H780.8M128.6,613.6H780.8m-652.2,20H780.8M128.6,653.8H780.8M128.6,676H780.8M128.6,696H780.8M128.6,716.1H780.8M128.6,738.3H780.8m-652.2,20H780.8M128.6,780.5H780.8M128.6,802.6H780.8M128.6,822.8H780.8m-652.2,20H780.8M128.9,488.6V843.2M451.2,488.6V843.2M780.4,488.6V843.2" class="g0_9" />
<g clip-path="url(#c0_9)">
<g fill="#000000" >
<use xlink:href="#f1_w" transform="matrix(12,0,0,12,654.3,506.3)" />
<use xlink:href="#f1_5" transform="matrix(12,0,0,12,661.7,506.3)" />
<use xlink:href="#f1_j" transform="matrix(12,0,0,12,665.8,506.3)" />
<use xlink:href="#f1_o" transform="matrix(12,0,0,12,677.2,506.3)" />
<use xlink:href="#f1_h" transform="matrix(12,0,0,12,689.1,506.3)" />
<use xlink:href="#f1_4" transform="matrix(12,0,0,12,704.6,506.3)" />
<use xlink:href="#f1_c" transform="matrix(12,0,0,12,716.6,506.3)" />
<use xlink:href="#f1_5" transform="matrix(12,0,0,12,734.6,506.3)" />
<use xlink:href="#f1_2" transform="matrix(12,0,0,12,738.8,506.3)" />
<use xlink:href="#f1_p" transform="matrix(12,0,0,12,755,506.3)" />
<use xlink:href="#f1_4" transform="matrix(12,0,0,12,760,506.3)" />
<use xlink:href="#f2_1g" transform="matrix(11,0,0,11,137.7,527.1)" />
<use xlink:href="#f2_a" transform="matrix(11,0,0,11,149.7,527.1)" />
<use xlink:href="#f2_n" transform="matrix(11,0,0,11,157.2,527.1)" />
<use xlink:href="#f2_e" transform="matrix(11,0,0,11,162.8,527.1)" />
<use xlink:href="#f0_k" transform="matrix(11,0,0,11,171.3,527.1)" />
<use xlink:href="#f0_c" transform="matrix(11,0,0,11,184.4,527.1)" />
<use xlink:href="#f0_2" transform="matrix(11,0,0,11,196,527.1)" />
<use xlink:href="#f0_h" transform="matrix(11,0,0,11,200.7,527.1)" />
<use xlink:href="#f0_b" transform="matrix(11,0,0,11,206.2,527.1)" />
<use xlink:href="#f0_v" transform="matrix(11,0,0,11,213.6,527.1)" />
<use xlink:href="#f0_b" transform="matrix(11,0,0,11,222.1,527.1)" />
<use xlink:href="#f0_m" transform="matrix(11,0,0,11,229.5,527.1)" />
<use xlink:href="#f0_b" transform="matrix(11,0,0,11,234.2,527.1)" />
<use xlink:href="#f0_h" transform="matrix(11,0,0,11,241.6,527.1)" />
<use xlink:href="#f0_x" transform="matrix(11,0,0,11,247.2,527.1)" />
<use xlink:href="#f2_1h" transform="matrix(11,0,0,11,137.7,547.3)" />
<use xlink:href="#f2_w" transform="matrix(11,0,0,11,148.8,547.3)" />
<use xlink:href="#f2_1i" transform="matrix(11,0,0,11,156.3,547.3)" />
<use xlink:href="#f2_f" transform="matrix(11,0,0,11,164.7,547.3)" />
<use xlink:href="#f2_6" transform="matrix(11,0,0,11,172.1,547.3)" />
<use xlink:href="#f2_f" transform="matrix(11,0,0,11,177.8,547.3)" />
<use xlink:href="#f0_o" transform="matrix(11,0,0,11,189.4,547.3)" />
<use xlink:href="#f0_e" transform="matrix(11,0,0,11,197.8,547.3)" />
<use xlink:href="#f0_g" transform="matrix(11,0,0,11,210.5,547.3)" />
<use xlink:href="#f0_c" transform="matrix(11,0,0,11,218.9,547.3)" />
<use xlink:href="#f0_h" transform="matrix(11,0,0,11,226.2,547.3)" />
<use xlink:href="#f0_h" transform="matrix(11,0,0,11,231.9,547.3)" />
<use xlink:href="#f0_f" transform="matrix(11,0,0,11,237.5,547.3)" />
<use xlink:href="#f0_e" transform="matrix(11,0,0,11,250,547.3)" />
<use xlink:href="#f0_o" transform="matrix(11,0,0,11,258.4,547.3)" />
<use xlink:href="#f0_c" transform="matrix(11,0,0,11,266.8,547.3)" />
<use xlink:href="#f0_z" transform="matrix(11,0,0,11,274.3,547.3)" />
<use xlink:href="#f0_f" transform="matrix(11,0,0,11,282.7,547.3)" />
<use xlink:href="#f0_x" transform="matrix(11,0,0,11,291.1,547.3)" />
<use xlink:href="#f2_1j" transform="matrix(11,0,0,11,137.7,567.3)" />
<use xlink:href="#f2_d" transform="matrix(11,0,0,11,148.8,567.3)" />
<use xlink:href="#f2_x" transform="matrix(11,0,0,11,155.4,567.3)" />
<use xlink:href="#f2_7" transform="matrix(11,0,0,11,162.8,567.3)" />
<use xlink:href="#f2_x" transform="matrix(11,0,0,11,172.2,567.3)" />
<use xlink:href="#f2_1k" transform="matrix(11,0,0,11,179.6,567.3)" />
<use xlink:href="#f2_e" transform="matrix(11,0,0,11,188.9,567.3)" />
<use xlink:href="#f0_d" transform="matrix(11,0,0,11,197.4,567.3)" />
<use xlink:href="#f0_c" transform="matrix(11,0,0,11,202.1,567.3)" />
<use xlink:href="#f0_i" transform="matrix(11,0,0,11,213.7,567.3)" />
<use xlink:href="#f0_o" transform="matrix(11,0,0,11,221.2,567.3)" />
<use xlink:href="#f0_b" transform="matrix(11,0,0,11,229.6,567.3)" />
<use xlink:href="#f0_e" transform="matrix(11,0,0,11,237,567.3)" />
<use xlink:href="#f0_8" transform="matrix(11,0,0,11,245.4,567.3)" />
<use xlink:href="#f0_f" transform="matrix(11,0,0,11,253.8,567.3)" />
<use xlink:href="#f0_y" transform="matrix(11,0,0,11,266.3,567.3)" />
<use xlink:href="#f0_d" transform="matrix(11,0,0,11,273.8,567.3)" />
<use xlink:href="#f0_c" transform="matrix(11,0,0,11,282.6,567.3)" />
<use xlink:href="#f0_e" transform="matrix(11,0,0,11,290.1,567.3)" />
<use xlink:href="#f0_9" transform="matrix(11,0,0,11,298.5,567.3)" />
<use xlink:href="#f0_c" transform="matrix(11,0,0,11,305.1,567.3)" />
<use xlink:href="#f0_1i" transform="matrix(11,0,0,11,312.5,567.3)" />
<use xlink:href="#f0_b" transform="matrix(11,0,0,11,320.9,567.3)" />
<use xlink:href="#f0_x" transform="matrix(11,0,0,11,328.3,567.3)" />
<use xlink:href="#f2_1j" transform="matrix(11,0,0,11,137.7,587.4)" />
<use xlink:href="#f2_d" transform="matrix(11,0,0,11,148.8,587.4)" />
<use xlink:href="#f2_x" transform="matrix(11,0,0,11,155.4,587.4)" />
<use xlink:href="#f2_7" transform="matrix(11,0,0,11,162.8,587.4)" />
<use xlink:href="#f2_x" transform="matrix(11,0,0,11,172.2,587.4)" />
<use xlink:href="#f2_1k" transform="matrix(11,0,0,11,179.6,587.4)" />
<use xlink:href="#f2_e" transform="matrix(11,0,0,11,188.9,587.4)" />
<use xlink:href="#f0_d" transform="matrix(11,0,0,11,197.4,587.4)" />
<use xlink:href="#f0_c" transform="matrix(11,0,0,11,202.1,587.4)" />
<use xlink:href="#f0_9" transform="matrix(11,0,0,11,209.6,587.4)" />
<use xlink:href="#f0_i" transform="matrix(11,0,0,11,220.2,587.4)" />
<use xlink:href="#f0_o" transform="matrix(11,0,0,11,227.7,587.4)" />
<use xlink:href="#f0_b" transform="matrix(11,0,0,11,236.1,587.4)" />
<use xlink:href="#f0_e" transform="matrix(11,0,0,11,243.6,587.4)" />
<use xlink:href="#f0_8" transform="matrix(11,0,0,11,252,587.4)" />
<use xlink:href="#f0_f" transform="matrix(11,0,0,11,260.4,587.4)" />
<use xlink:href="#f0_c" transform="matrix(11,0,0,11,272.9,587.4)" />
<use xlink:href="#f0_d" transform="matrix(11,0,0,11,280.4,587.4)" />
<use xlink:href="#f0_d" transform="matrix(11,0,0,11,284.9,587.4)" />
<use xlink:href="#f0_f" transform="matrix(11,0,0,11,289.7,587.4)" />
<use xlink:href="#f0_9" transform="matrix(11,0,0,11,298.1,587.4)" />
<use xlink:href="#f0_12" transform="matrix(11,0,0,11,308.9,587.4)" />
<use xlink:href="#f0_b" transform="matrix(11,0,0,11,317.1,587.4)" />
<use xlink:href="#f0_v" transform="matrix(11,0,0,11,324.6,587.4)" />
<use xlink:href="#f0_d" transform="matrix(11,0,0,11,333,587.4)" />
<use xlink:href="#f0_b" transform="matrix(11,0,0,11,337.7,587.4)" />
<use xlink:href="#f0_e" transform="matrix(11,0,0,11,345.2,587.4)" />
<use xlink:href="#f0_x" transform="matrix(11,0,0,11,353.4,587.4)" />
<use xlink:href="#f1_w" transform="matrix(12,0,0,12,562.1,608.8)" />
<use xlink:href="#f1_4" transform="matrix(12,0,0,12,569.4,608.8)" />
<use xlink:href="#f1_7" transform="matrix(12,0,0,12,581.4,608.8)" />
<use xlink:href="#f1_9" transform="matrix(12,0,0,12,586.5,608.8)" />
<use xlink:href="#f1_8" transform="matrix(12,0,0,12,596.8,608.8)" />
<use xlink:href="#f1_l" transform="matrix(12,0,0,12,607.2,608.8)" />
<use xlink:href="#f1_f" transform="matrix(12,0,0,12,617.3,608.8)" />
<use xlink:href="#f1_p" transform="matrix(12,0,0,12,635.8,608.8)" />
<use xlink:href="#f1_a" transform="matrix(12,0,0,12,640.8,608.8)" />
<use xlink:href="#f1_b" transform="matrix(12,0,0,12,652.7,608.8)" />
<use xlink:href="#f1_h" transform="matrix(12,0,0,12,665.7,608.8)" />
<use xlink:href="#f1_p" transform="matrix(12,0,0,12,681.1,608.8)" />
<use xlink:href="#f1_a" transform="matrix(12,0,0,12,686.1,608.8)" />
<use xlink:href="#f1_2" transform="matrix(12,0,0,12,698,608.8)" />
<use xlink:href="#f1_7" transform="matrix(12,0,0,12,714.4,608.8)" />
<use xlink:href="#f1_8" transform="matrix(12,0,0,12,719.4,608.8)" />
<use xlink:href="#f1_5" transform="matrix(12,0,0,12,729.9,608.8)" />
<use xlink:href="#f1_b" transform="matrix(12,0,0,12,734.1,608.8)" />
<use xlink:href="#f1_3" transform="matrix(12,0,0,12,747,608.8)" />
<use xlink:href="#f1_a" transform="matrix(12,0,0,12,760,608.8)" />
<use xlink:href="#f2_1j" transform="matrix(11,0,0,11,137.7,629.6)" />
<use xlink:href="#f2_d" transform="matrix(11,0,0,11,148.8,629.6)" />
<use xlink:href="#f2_x" transform="matrix(11,0,0,11,155.4,629.6)" />
<use xlink:href="#f2_7" transform="matrix(11,0,0,11,162.8,629.6)" />
<use xlink:href="#f2_x" transform="matrix(11,0,0,11,172.2,629.6)" />
<use xlink:href="#f2_1k" transform="matrix(11,0,0,11,179.6,629.6)" />
<use xlink:href="#f2_f" transform="matrix(11,0,0,11,188.9,629.6)" />
<use xlink:href="#f0_e" transform="matrix(11,0,0,11,196.5,629.6)" />
<use xlink:href="#f0_f" transform="matrix(11,0,0,11,204.9,629.6)" />
<use xlink:href="#f0_9" transform="matrix(11,0,0,11,213.3,629.6)" />
<use xlink:href="#f0_x" transform="matrix(11,0,0,11,219.8,629.6)" />
<use xlink:href="#f0_1e" transform="matrix(11,0,0,11,229.6,629.6)" />
<use xlink:href="#f0_b" transform="matrix(11,0,0,11,241.6,629.6)" />
<use xlink:href="#f0_v" transform="matrix(11,0,0,11,249.1,629.6)" />
<use xlink:href="#f0_d" transform="matrix(11,0,0,11,257.5,629.6)" />
<use xlink:href="#f0_b" transform="matrix(11,0,0,11,262.2,629.6)" />
<use xlink:href="#f0_k" transform="matrix(11,0,0,11,269.7,629.6)" />
<use xlink:href="#f0_f" transform="matrix(11,0,0,11,282.8,629.6)" />
<use xlink:href="#f0_9" transform="matrix(11,0,0,11,291.1,629.6)" />
<use xlink:href="#f0_c" transform="matrix(11,0,0,11,301.9,629.6)" />
<use xlink:href="#f0_e" transform="matrix(11,0,0,11,309.4,629.6)" />
<use xlink:href="#f0_9" transform="matrix(11,0,0,11,321.9,629.6)" />
<use xlink:href="#f0_c" transform="matrix(11,0,0,11,328.4,629.6)" />
<use xlink:href="#f0_h" transform="matrix(11,0,0,11,335.9,629.6)" />
<use xlink:href="#f0_j" transform="matrix(11,0,0,11,341.4,629.6)" />
<use xlink:href="#f0_f" transform="matrix(11,0,0,11,346.1,629.6)" />
<use xlink:href="#f2_1j" transform="matrix(11,0,0,11,137.7,649.8)" />
<use xlink:href="#f2_d" transform="matrix(11,0,0,11,148.8,649.8)" />
<use xlink:href="#f2_x" transform="matrix(11,0,0,11,155.4,649.8)" />
<use xlink:href="#f2_w" transform="matrix(11,0,0,11,162.8,649.8)" />
<use xlink:href="#f2_y" transform="matrix(11,0,0,11,170.3,649.8)" />
<use xlink:href="#f2_1l" transform="matrix(11,0,0,11,175,649.8)" />
<use xlink:href="#f2_a" transform="matrix(11,0,0,11,184.3,649.8)" />
<use xlink:href="#f2_c" transform="matrix(11,0,0,11,191.7,649.8)" />
<use xlink:href="#f2_f" transform="matrix(11,0,0,11,196.4,649.8)" />
<use xlink:href="#f0_o" transform="matrix(11,0,0,11,208.2,649.8)" />
<use xlink:href="#f0_e" transform="matrix(11,0,0,11,216.6,649.8)" />
<use xlink:href="#f0_b" transform="matrix(11,0,0,11,225,649.8)" />
<use xlink:href="#f0_i" transform="matrix(11,0,0,11,236.6,649.8)" />
<use xlink:href="#f0_b" transform="matrix(11,0,0,11,244.1,649.8)" />
<use xlink:href="#f0_h" transform="matrix(11,0,0,11,251.4,649.8)" />
<use xlink:href="#f0_2" transform="matrix(11,0,0,11,257,649.8)" />
<use xlink:href="#f0_b" transform="matrix(11,0,0,11,261.8,649.8)" />
<use xlink:href="#f0_b" transform="matrix(11,0,0,11,273.3,649.8)" />
<use xlink:href="#f0_1h" transform="matrix(11,0,0,11,285.1,649.8)" />
<use xlink:href="#f0_o" transform="matrix(11,0,0,11,291.6,649.8)" />
<use xlink:href="#f0_b" transform="matrix(11,0,0,11,299.9,649.8)" />
<use xlink:href="#f0_e" transform="matrix(11,0,0,11,307.3,649.8)" />
<use xlink:href="#f0_x" transform="matrix(11,0,0,11,315.7,649.8)" />
<use xlink:href="#f1_w" transform="matrix(12,0,0,12,566.7,671.2)" />
<use xlink:href="#f1_4" transform="matrix(12,0,0,12,574,671.2)" />
<use xlink:href="#f1_7" transform="matrix(12,0,0,12,586,671.2)" />
<use xlink:href="#f1_r" transform="matrix(12,0,0,12,591.1,671.2)" />
<use xlink:href="#f1_7" transform="matrix(12,0,0,12,603,671.2)" />
<use xlink:href="#f1_3" transform="matrix(12,0,0,12,608,671.2)" />
<use xlink:href="#f1_2" transform="matrix(12,0,0,12,621,671.2)" />
<use xlink:href="#f1_2" transform="matrix(12,0,0,12,631.4,671.2)" />
<use xlink:href="#f1_a" transform="matrix(12,0,0,12,647.7,671.2)" />
<use xlink:href="#f1_r" transform="matrix(12,0,0,12,659.6,671.2)" />
<use xlink:href="#f1_7" transform="matrix(12,0,0,12,671.5,671.2)" />
<use xlink:href="#f1_9" transform="matrix(12,0,0,12,676.6,671.2)" />
<use xlink:href="#f1_c" transform="matrix(12,0,0,12,686.9,671.2)" />
<use xlink:href="#f1_e" transform="matrix(12,0,0,12,705,671.2)" />
<use xlink:href="#f1_a" transform="matrix(12,0,0,12,717.2,671.2)" />
<use xlink:href="#f1_2" transform="matrix(12,0,0,12,729.1,671.2)" />
<use xlink:href="#f1_p" transform="matrix(12,0,0,12,745.4,671.2)" />
<use xlink:href="#f1_h" transform="matrix(12,0,0,12,750.5,671.2)" />
<use xlink:href="#f1_a" transform="matrix(12,0,0,12,760.1,671.2)" />
<use xlink:href="#f2_1e" transform="matrix(11,0,0,11,137.7,691.9)" />
<use xlink:href="#f2_r" transform="matrix(11,0,0,11,149.7,691.9)" />
<use xlink:href="#f0_k" transform="matrix(11,0,0,11,162.4,691.9)" />
<use xlink:href="#f0_c" transform="matrix(11,0,0,11,175.5,691.9)" />
<use xlink:href="#f2_f" transform="matrix(11,0,0,11,187.2,691.9)" />
<use xlink:href="#f2_o" transform="matrix(11,0,0,11,194.6,691.9)" />
<use xlink:href="#f2_d" transform="matrix(11,0,0,11,203.9,691.9)" />
<use xlink:href="#f2_f" transform="matrix(11,0,0,11,210.5,691.9)" />
<use xlink:href="#f2_1m" transform="matrix(11,0,0,11,218,691.9)" />
<use xlink:href="#f2_f" transform="matrix(11,0,0,11,227.3,691.9)" />
<use xlink:href="#f2_d" transform="matrix(11,0,0,11,234.7,691.9)" />
<use xlink:href="#f0_i" transform="matrix(11,0,0,11,245.5,691.9)" />
<use xlink:href="#f0_f" transform="matrix(11,0,0,11,253,691.9)" />
<use xlink:href="#f0_k" transform="matrix(11,0,0,11,261.4,691.9)" />
<use xlink:href="#f0_f" transform="matrix(11,0,0,11,274.5,691.9)" />
<use xlink:href="#f0_c" transform="matrix(11,0,0,11,287,691.9)" />
<use xlink:href="#f0_e" transform="matrix(11,0,0,11,294.5,691.9)" />
<use xlink:href="#f0_9" transform="matrix(11,0,0,11,302.9,691.9)" />
<use xlink:href="#f0_c" transform="matrix(11,0,0,11,309.4,691.9)" />
<use xlink:href="#f0_1i" transform="matrix(11,0,0,11,316.9,691.9)" />
<use xlink:href="#f0_b" transform="matrix(11,0,0,11,325.3,691.9)" />
<use xlink:href="#f0_h" transform="matrix(11,0,0,11,332.6,691.9)" />
<use xlink:href="#f0_x" transform="matrix(11,0,0,11,338.3,691.9)" />
<use xlink:href="#f2_1e" transform="matrix(11,0,0,11,137.7,712.1)" />
<use xlink:href="#f2_r" transform="matrix(11,0,0,11,149.7,712.1)" />
<use xlink:href="#f0_d" transform="matrix(11,0,0,11,162.4,712.1)" />
<use xlink:href="#f0_c" transform="matrix(11,0,0,11,167.1,712.1)" />
<use xlink:href="#f0_9" transform="matrix(11,0,0,11,174.6,712.1)" />
<use xlink:href="#f2_r" transform="matrix(11,0,0,11,185.3,712.1)" />
<use xlink:href="#f2_y" transform="matrix(11,0,0,11,193.7,712.1)" />
<use xlink:href="#f2_m" transform="matrix(11,0,0,11,198.4,712.1)" />
<use xlink:href="#f2_e" transform="matrix(11,0,0,11,206.8,712.1)" />
<use xlink:href="#f2_d" transform="matrix(11,0,0,11,215.3,712.1)" />
<use xlink:href="#f0_x" transform="matrix(11,0,0,11,221.8,712.1)" />
<use xlink:href="#f1_w" transform="matrix(12,0,0,12,621,733.5)" />
<use xlink:href="#f1_e" transform="matrix(12,0,0,12,628.4,733.5)" />
<use xlink:href="#f1_7" transform="matrix(12,0,0,12,640.6,733.5)" />
<use xlink:href="#f1_2" transform="matrix(12,0,0,12,645.6,733.5)" />
<use xlink:href="#f1_h" transform="matrix(12,0,0,12,656,733.5)" />
<use xlink:href="#f1_7" transform="matrix(12,0,0,12,671.4,733.5)" />
<use xlink:href="#f1_d" transform="matrix(12,0,0,12,676.5,733.5)" />
<use xlink:href="#f1_2" transform="matrix(12,0,0,12,683.8,733.5)" />
<use xlink:href="#f1_7" transform="matrix(12,0,0,12,700.1,733.5)" />
<use xlink:href="#f1_n" transform="matrix(12,0,0,12,705,733.5)" />
<use xlink:href="#f1_5" transform="matrix(12,0,0,12,716.5,733.5)" />
<use xlink:href="#f1_g" transform="matrix(12,0,0,12,720.6,733.5)" />
<use xlink:href="#f1_4" transform="matrix(12,0,0,12,731.4,733.5)" />
<use xlink:href="#f1_2" transform="matrix(12,0,0,12,749.4,733.5)" />
<use xlink:href="#f1_c" transform="matrix(12,0,0,12,759.8,733.5)" />
<use xlink:href="#f0_1k" transform="matrix(11,0,0,11,137.7,754.3)" />
<use xlink:href="#f0_o" transform="matrix(11,0,0,11,149.7,754.3)" />
<use xlink:href="#f0_j" transform="matrix(11,0,0,11,158.1,754.3)" />
<use xlink:href="#f0_c" transform="matrix(11,0,0,11,162.8,754.3)" />
<use xlink:href="#f0_h" transform="matrix(11,0,0,11,170.3,754.3)" />
<use xlink:href="#f0_f" transform="matrix(11,0,0,11,175.9,754.3)" />
<use xlink:href="#f2_1c" transform="matrix(11,0,0,11,188.5,754.3)" />
<use xlink:href="#f2_f" transform="matrix(11,0,0,11,197.9,754.3)" />
<use xlink:href="#f2_d" transform="matrix(11,0,0,11,205.3,754.3)" />
<use xlink:href="#f2_f" transform="matrix(11,0,0,11,211.9,754.3)" />
<use xlink:href="#f2_e" transform="matrix(11,0,0,11,219.3,754.3)" />
<use xlink:href="#f2_w" transform="matrix(11,0,0,11,227.7,754.3)" />
<use xlink:href="#f0_d" transform="matrix(11,0,0,11,235.3,754.3)" />
<use xlink:href="#f0_c" transform="matrix(11,0,0,11,239.9,754.3)" />
<use xlink:href="#f0_9" transform="matrix(11,0,0,11,247.3,754.3)" />
<use xlink:href="#f0_b" transform="matrix(11,0,0,11,258.2,754.3)" />
<use xlink:href="#f0_7" transform="matrix(11,0,0,11,269.7,754.3)" />
<use xlink:href="#f0_8" transform="matrix(11,0,0,11,281.8,754.3)" />
<use xlink:href="#f0_9" transform="matrix(11,0,0,11,290.2,754.3)" />
<use xlink:href="#f0_13" transform="matrix(11,0,0,11,296.8,754.3)" />
<use xlink:href="#f0_v" transform="matrix(11,0,0,11,305.2,754.3)" />
<use xlink:href="#f0_o" transform="matrix(11,0,0,11,313.6,754.3)" />
<use xlink:href="#f0_c" transform="matrix(11,0,0,11,322,754.3)" />
<use xlink:href="#f0_e" transform="matrix(11,0,0,11,329.4,754.3)" />
<use xlink:href="#f0_b" transform="matrix(11,0,0,11,337.8,754.3)" />
<use xlink:href="#f0_9" transform="matrix(11,0,0,11,349.4,754.3)" />
<use xlink:href="#f0_o" transform="matrix(11,0,0,11,356,754.3)" />
<use xlink:href="#f0_c" transform="matrix(11,0,0,11,364.4,754.3)" />
<use xlink:href="#f0_h" transform="matrix(11,0,0,11,371.8,754.3)" />
<use xlink:href="#f0_2" transform="matrix(11,0,0,11,377.3,754.3)" />
<use xlink:href="#f0_c" transform="matrix(11,0,0,11,382,754.3)" />
<use xlink:href="#f0_13" transform="matrix(11,0,0,11,389.5,754.3)" />
<use xlink:href="#f1_q" transform="matrix(12,0,0,12,568,775.8)" />
<use xlink:href="#f1_a" transform="matrix(12,0,0,12,573.8,775.8)" />
<use xlink:href="#f1_8" transform="matrix(12,0,0,12,585.8,775.8)" />
<use xlink:href="#f1_9" transform="matrix(12,0,0,12,596.3,775.8)" />
<use xlink:href="#f1_a" transform="matrix(12,0,0,12,606.7,775.8)" />
<use xlink:href="#f1_4" transform="matrix(12,0,0,12,624.4,775.8)" />
<use xlink:href="#f1_n" transform="matrix(12,0,0,12,636.4,775.8)" />
<use xlink:href="#f1_l" transform="matrix(12,0,0,12,647.9,775.8)" />
<use xlink:href="#f1_2" transform="matrix(12,0,0,12,658,775.8)" />
<use xlink:href="#f1_7" transform="matrix(12,0,0,12,674.2,775.8)" />
<use xlink:href="#f1_2" transform="matrix(12,0,0,12,679.2,775.8)" />
<use xlink:href="#f1_2" transform="matrix(12,0,0,12,695.5,775.8)" />
<use xlink:href="#f1_r" transform="matrix(12,0,0,12,705.9,775.8)" />
<use xlink:href="#f1_c" transform="matrix(12,0,0,12,717.8,775.8)" />
<use xlink:href="#f1_f" transform="matrix(12,0,0,12,729.9,775.8)" />
<use xlink:href="#f1_5" transform="matrix(12,0,0,12,748.4,775.8)" />
<use xlink:href="#f1_d" transform="matrix(12,0,0,12,752.5,775.8)" />
<use xlink:href="#f1_c" transform="matrix(12,0,0,12,759.8,775.8)" />
<use xlink:href="#f1_q" transform="matrix(12,0,0,12,544.2,798)" />
<use xlink:href="#f1_i" transform="matrix(12,0,0,12,550,798)" />
<use xlink:href="#f1_7" transform="matrix(12,0,0,12,556.4,798)" />
<use xlink:href="#f1_i" transform="matrix(12,0,0,12,561.4,798)" />
<use xlink:href="#f1_s" transform="matrix(12,0,0,12,567.8,798)" />
<use xlink:href="#f1_9" transform="matrix(12,0,0,12,581.1,798)" />
<use xlink:href="#f1_4" transform="matrix(12,0,0,12,591.5,798)" />
<use xlink:href="#f1_7" transform="matrix(12,0,0,12,603.4,798)" />
<use xlink:href="#f1_5" transform="matrix(12,0,0,12,608.4,798)" />
<use xlink:href="#f1_e" transform="matrix(12,0,0,12,618.4,798)" />
<use xlink:href="#f1_a" transform="matrix(12,0,0,12,630.6,798)" />
<use xlink:href="#f1_2" transform="matrix(12,0,0,12,642.5,798)" />
<use xlink:href="#f1_4" transform="matrix(12,0,0,12,658.8,798)" />
<use xlink:href="#f1_4" transform="matrix(12,0,0,12,670.7,798)" />
<use xlink:href="#f1_2" transform="matrix(12,0,0,12,682.8,798)" />
<use xlink:href="#f1_8" transform="matrix(12,0,0,12,699.1,798)" />
<use xlink:href="#f1_5" transform="matrix(12,0,0,12,709.7,798)" />
<use xlink:href="#f1_5" transform="matrix(12,0,0,12,713.8,798)" />
<use xlink:href="#f1_r" transform="matrix(12,0,0,12,717.9,798)" />
<use xlink:href="#f1_a" transform="matrix(12,0,0,12,735.7,798)" />
<use xlink:href="#f1_4" transform="matrix(12,0,0,12,747.6,798)" />
<use xlink:href="#f1_c" transform="matrix(12,0,0,12,759.7,798)" />
<use xlink:href="#f0_r" transform="matrix(11,0,0,11,137.7,818.7)" />
<use xlink:href="#f0_f" transform="matrix(11,0,0,11,149.7,818.7)" />
<use xlink:href="#f0_9" transform="matrix(11,0,0,11,158.1,818.7)" />
<use xlink:href="#f0_2" transform="matrix(11,0,0,11,168.9,818.7)" />
<use xlink:href="#f0_h" transform="matrix(11,0,0,11,173.7,818.7)" />
<use xlink:href="#f0_b" transform="matrix(11,0,0,11,179.2,818.7)" />
<use xlink:href="#f0_8" transform="matrix(11,0,0,11,186.6,818.7)" />
<use xlink:href="#f0_o" transform="matrix(11,0,0,11,195,818.7)" />
<use xlink:href="#f0_i" transform="matrix(11,0,0,11,203.4,818.7)" />
<use xlink:href="#f0_c" transform="matrix(11,0,0,11,210.9,818.7)" />
<use xlink:href="#f0_e" transform="matrix(11,0,0,11,218.4,818.7)" />
<use xlink:href="#f0_2" transform="matrix(11,0,0,11,230.9,818.7)" />
<use xlink:href="#f0_f" transform="matrix(11,0,0,11,235.6,818.7)" />
<use xlink:href="#f0_8" transform="matrix(11,0,0,11,244,818.7)" />
<use xlink:href="#f0_f" transform="matrix(11,0,0,11,252.4,818.7)" />
<use xlink:href="#f0_10" transform="matrix(11,0,0,11,260.7,818.7)" />
<use xlink:href="#f0_9" transform="matrix(11,0,0,11,269.2,818.7)" />
<use xlink:href="#f0_j" transform="matrix(11,0,0,11,275.6,818.7)" />
<use xlink:href="#f0_e" transform="matrix(11,0,0,11,280.3,818.7)" />
<use xlink:href="#f0_9" transform="matrix(11,0,0,11,293,818.7)" />
<use xlink:href="#f0_b" transform="matrix(11,0,0,11,299.4,818.7)" />
<use xlink:href="#f0_v" transform="matrix(11,0,0,11,306.9,818.7)" />
<use xlink:href="#f0_c" transform="matrix(11,0,0,11,315.3,818.7)" />
<use xlink:href="#f0_h" transform="matrix(11,0,0,11,322.7,818.7)" />
<use xlink:href="#f0_e" transform="matrix(11,0,0,11,332.5,818.7)" />
<use xlink:href="#f0_b" transform="matrix(11,0,0,11,340.9,818.7)" />
<use xlink:href="#f0_8" transform="matrix(11,0,0,11,348.4,818.7)" />
<use xlink:href="#f0_b" transform="matrix(11,0,0,11,356.8,818.7)" />
<use xlink:href="#f0_13" transform="matrix(11,0,0,11,364.2,818.7)" />
<use xlink:href="#f2_1h" transform="matrix(11,0,0,11,137.7,838.8)" />
<use xlink:href="#f2_w" transform="matrix(11,0,0,11,148.8,838.8)" />
<use xlink:href="#f2_e" transform="matrix(11,0,0,11,156.3,838.8)" />
<use xlink:href="#f2_1c" transform="matrix(11,0,0,11,164.7,838.8)" />
<use xlink:href="#f2_14" transform="matrix(11,0,0,11,174,838.8)" />
<use xlink:href="#f2_17" transform="matrix(11,0,0,11,183.3,838.8)" />
<use xlink:href="#f2_x" transform="matrix(11,0,0,11,190.8,838.8)" />
<use xlink:href="#f2_e" transform="matrix(11,0,0,11,198.3,838.8)" />
<use xlink:href="#f0_e" transform="matrix(11,0,0,11,206.7,838.8)" />
<use xlink:href="#f0_f" transform="matrix(11,0,0,11,215.1,838.8)" />
<use xlink:href="#f0_9" transform="matrix(11,0,0,11,223.5,838.8)" />
<use xlink:href="#f0_c" transform="matrix(11,0,0,11,234.3,838.8)" />
<use xlink:href="#f0_d" transform="matrix(11,0,0,11,241.7,838.8)" />
<use xlink:href="#f0_d" transform="matrix(11,0,0,11,250.7,838.8)" />
<use xlink:href="#f0_j" transform="matrix(11,0,0,11,255.2,838.8)" />
<use xlink:href="#f0_v" transform="matrix(11,0,0,11,260,838.8)" />
<use xlink:href="#f0_h" transform="matrix(11,0,0,11,268.2,838.8)" />
<use xlink:href="#f0_f" transform="matrix(11,0,0,11,273.8,838.8)" />
<use xlink:href="#f0_x" transform="matrix(11,0,0,11,282.2,838.8)" />
</g>
<g fill="#0000FF" >
<use xlink:href="#f1_2" transform="matrix(12,0,0,12,649.3,878.6)" />
<use xlink:href="#f1_5" transform="matrix(12,0,0,12,660,878.6)" />
<use xlink:href="#f1_s" transform="matrix(12,0,0,12,664.5,878.6)" />
<use xlink:href="#f1_9" transform="matrix(12,0,0,12,672.3,878.6)" />
<use xlink:href="#f1_4" transform="matrix(12,0,0,12,683.1,878.6)" />
<use xlink:href="#f1_2" transform="matrix(12,0,0,12,695.5,878.6)" />
<use xlink:href="#f1_4" transform="matrix(12,0,0,12,712.4,878.6)" />
<use xlink:href="#f1_7" transform="matrix(12,0,0,12,724.9,878.6)" />
<use xlink:href="#f1_8" transform="matrix(12,0,0,12,730.3,878.6)" />
<use xlink:href="#f1_7" transform="matrix(12,0,0,12,741.2,878.6)" />
<use xlink:href="#f1_b" transform="matrix(12,0,0,12,746.6,878.6)" />
<use xlink:href="#f1_4" transform="matrix(12,0,0,12,759.8,878.6)" />
</g>
</g>
<path d="M642.9,880.5H772.1" class="g1_9" />
<g clip-path="url(#c2_9)">
<path d="M642.4,880.5h5.8" class="g1_9" />
</g>
<g clip-path="url(#c0_9)">
<g fill="#0000FF" >
<use xlink:href="#f1_1f" transform="matrix(12,0,0,12,630.7,878.6)" />
</g>
</g>
<path d="M630.7,880.5h11.6" class="g1_9" />
<g clip-path="url(#c0_9)">
<g fill="#000000" >
<use xlink:href="#f1_1f" transform="matrix(11,0,0,11,137.5,1208.9)" />
</g>
</g>
<defs>
<path d="M617,0L251,860V60L385,40V0H44V40L172,60V941L44,960v40H347L672,239l355,761h287V960L1185,941V60L1314,40V0H908V40l134,20V859L643,0Z" 
id="f0_u"
transform="scale(0.001,-0.001)" />

<path d="M289,-14c0,0,-179,0,-179,205V649L20,668v33H233V200c0,0,0,-128,120,-128c0,0,92,0,173,23V649L420,668v33H649V52L738,33V0H533l-6,57C527,57,474,28,405,7c0,0,-69,-21,-116,-21Z" 
id="f0_o"
transform="scale(0.001,-0.001)" />

<path d="M495,413c0,0,0,133,-34,190c0,0,-34,57,-105,57c0,0,-78,0,-119,-63c0,0,-42,-62,-42,-184ZM374,-14c0,0,-163,0,-239,87c0,0,-75,88,-75,283c0,0,0,183,77,273c0,0,76,91,219,91c0,0,269,0,269,-306V353H194V340c0,0,0,-103,23,-160c0,0,22,-57,70,-87c0,0,47,-29,124,-29c0,0,40,0,96,6c0,0,55,7,91,15V43C598,43,562,20,500,3c0,0,-61,-17,-126,-17Z" 
id="f0_c"
transform="scale(0.001,-0.001)" />

<path d="M278,-14c0,0,-52,0,-115,11c0,0,-63,10,-99,23V193H98L134,95c0,0,56,-50,146,-50c0,0,144,0,144,123c0,0,0,91,-114,130l-66,21c0,0,-75,25,-110,50c0,0,-34,26,-53,63c0,0,-18,36,-18,89c0,0,0,92,63,145c0,0,63,54,170,54c0,0,77,0,193,-23V544H454l-32,81c0,0,-39,35,-124,35c0,0,-61,0,-92,-30c0,0,-32,-30,-32,-80c0,0,0,-43,29,-72c0,0,28,-29,86,-48c0,0,110,-38,144,-55c0,0,33,-17,57,-42c0,0,23,-25,36,-57c0,0,13,-32,13,-79c0,0,0,-104,-66,-158c0,0,-66,-53,-195,-53Z" 
id="f0_9"
transform="scale(0.001,-0.001)" />

<path d="M249,-14c0,0,-71,0,-107,42c0,0,-35,42,-35,119V639H15v33l93,29l76,159h47V701H391V639H231V161c0,0,0,-48,22,-73c0,0,22,-24,57,-24c0,0,44,0,106,12V26C416,26,389,8,340,-2c0,0,-49,-12,-91,-12Z" 
id="f0_2"
transform="scale(0.001,-0.001)" />

<path d="M31,0V33l88,19V649L31,668v33H235l7,-87c0,0,44,37,121,71c0,0,76,35,121,35h11V530H463l-43,82c0,0,-37,0,-88,-10c0,0,-52,-10,-89,-26V52L363,33V0Z" 
id="f0_h"
transform="scale(0.001,-0.001)" />

<path d="M284,67c0,0,51,0,88,12c0,0,37,12,74,30V358l-98,-3c0,0,-100,-4,-135,-39c0,0,-35,-35,-35,-117c0,0,0,-132,106,-132ZM233,-14c0,0,-179,0,-179,208c0,0,0,70,27,116c0,0,27,46,87,70c0,0,60,24,173,27l105,3V519c0,0,0,72,-26,107c0,0,-27,34,-82,34c0,0,-75,0,-137,-35L176,538H134V691c0,0,121,26,213,26c0,0,115,0,169,-47c0,0,54,-47,54,-144V52L657,33V0H465L451,70c0,0,-85,-84,-218,-84Z" 
id="f0_b"
transform="scale(0.001,-0.001)" />

<path d="M460,-325c0,0,-148,79,-231,172c0,0,-84,93,-123,217c0,0,-39,126,-39,304c0,0,0,178,39,303c0,0,39,125,122,217c0,0,82,93,232,172V997c0,0,-91,-52,-145,-134c0,0,-54,-81,-79,-190c0,0,-25,-109,-25,-305c0,0,0,-194,26,-309c0,0,26,-114,82,-193c0,0,56,-79,141,-128v-63Z" 
id="f0_1b"
transform="scale(0.001,-0.001)" />

<path d="M235,0V40L394,60V936H356c0,0,-189,0,-258,-15L78,766H28v234H908V766H857L837,921c0,0,-22,5,-98,9c0,0,-75,4,-165,4H538V60L697,40V0Z" 
id="f0_1l"
transform="scale(0.001,-0.001)" />

<path d="M289,-14c0,0,-179,0,-179,205V649L20,668v33H233V200c0,0,0,-128,120,-128c0,0,92,0,173,23V649L420,668v33H649V52L738,34V0H533l-6,57C527,57,474,28,405,6c0,0,-69,-20,-116,-20Zm24,849v24l147,203H618v-27L354,835Z" 
id="f0_3"
transform="scale(0.001,-0.001)" />

<path d="M49,-325v63c0,0,85,49,140,128c0,0,56,79,83,194c0,0,26,115,26,308c0,0,0,196,-25,305c0,0,-25,109,-79,190c0,0,-54,82,-145,134v63c0,0,149,-80,232,-172c0,0,83,-92,122,-217c0,0,39,-125,39,-303c0,0,0,-177,-39,-303c0,0,-39,-125,-122,-217c0,0,-83,-93,-232,-173Z" 
id="f0_1c"
transform="scale(0.001,-0.001)" />

<path d="M31,0V33L150,52v956L31,1026v34H274V52L394,33V0Z" 
id="f0_d"
transform="scale(0.001,-0.001)" />

<path d="M32,0V33L151,52V649L52,668v33H275V52L395,33V0ZM201,850c0,0,-32,0,-56,24c0,0,-24,24,-24,56c0,0,0,34,24,58c0,0,24,24,56,24c0,0,34,0,58,-24c0,0,24,-24,24,-58c0,0,0,-32,-24,-56c0,0,-24,-24,-58,-24Z" 
id="f0_j"
transform="scale(0.001,-0.001)" />

<path d="M377,45c0,0,99,0,147,73c0,0,47,73,47,237c0,0,0,161,-47,233c0,0,-47,72,-147,72c0,0,-97,0,-141,-69c0,0,-44,-69,-44,-236c0,0,0,-169,45,-240c0,0,44,-70,140,-70Zm0,-59c0,0,-158,0,-238,94c0,0,-81,95,-81,274c0,0,0,178,81,272c0,0,80,94,244,94c0,0,160,0,241,-92c0,0,82,-92,82,-274c0,0,0,-368,-329,-368Z" 
id="f0_f"
transform="scale(0.001,-0.001)" />

<path d="M254,-20c0,0,-39,0,-65,25c0,0,-26,27,-26,64c0,0,0,38,26,64c0,0,27,26,65,26c0,0,38,0,64,-26c0,0,26,-26,26,-64c0,0,0,-37,-26,-64c0,0,-26,-25,-64,-25ZM219,290l-47,710H335L289,290Z" 
id="f0_x"
transform="scale(0.001,-0.001)" />

<path d="M868,0L251,900V60L385,40V0H44V40L172,60V941L44,960v40H347L862,259V941L727,960v40h341V960L940,941V0Z" 
id="f0_r"
transform="scale(0.001,-0.001)" />

<path d="M383,64c0,0,85,0,152,28V645c0,0,-67,13,-152,13c0,0,-194,0,-194,-314c0,0,0,-141,48,-211c0,0,48,-69,146,-69ZM342,-14c0,0,-287,0,-287,358c0,0,0,184,82,280c0,0,81,96,239,96c0,0,81,0,163,-18c0,0,-4,25,-4,124v182l-118,18v34H659V52L745,33V0H548l-9,52c0,0,-84,-66,-197,-66Z" 
id="f0_8"
transform="scale(0.001,-0.001)" />

<path d="M148,-329c0,0,-58,0,-114,13v151H69l24,-71c0,0,23,-17,64,-17c0,0,39,0,72,22c0,0,33,23,60,67c0,0,27,44,68,157L90,649L19,668v33H344V668L233,648L423,158L606,649L497,668v33H758V668L685,652L411,-43c0,0,-48,-124,-84,-177c0,0,-36,-54,-79,-82c0,0,-44,-27,-100,-27Z" 
id="f0_11"
transform="scale(0.001,-0.001)" />

<path d="M399,-14c0,0,-341,0,-341,370c0,0,0,175,87,269c0,0,87,95,249,95c0,0,101,0,220,-23V501H573L541,625c0,0,-62,35,-149,35c0,0,-200,0,-200,-304c0,0,0,-158,61,-225c0,0,61,-67,189,-67c0,0,109,0,189,24V43C631,43,595,16,530,1c0,0,-64,-15,-131,-15Z" 
id="f0_i"
transform="scale(0.001,-0.001)" />

<path d="M442,0V33l93,19V504c0,0,0,129,-124,129c0,0,-70,0,-168,-22V52L338,33V0H31V33l88,19v956L15,1026v34H243V756c0,0,0,-77,-5,-112c0,0,54,31,122,53c0,0,68,23,115,23c0,0,91,0,137,-53c0,0,47,-53,47,-154V52L744,33V0Z" 
id="f0_12"
transform="scale(0.001,-0.001)" />

<path d="M439,0V33l93,19V500c0,0,0,62,-30,97c0,0,-31,36,-94,36c0,0,-67,0,-165,-22V52L338,33V0H35V33l84,19V649L35,668v33H235l7,-57c0,0,57,33,122,54c0,0,65,22,108,22c0,0,91,0,137,-53c0,0,47,-53,47,-154V52L741,33V0Z" 
id="f0_e"
transform="scale(0.001,-0.001)" />

<path d="M35,0V34l84,18V649L35,668v33H235l7,-56c0,0,57,32,122,54c0,0,65,21,108,21c0,0,91,0,137,-53c0,0,47,-53,47,-154V52L741,34V0H439V34l93,18V500c0,0,0,62,-30,97c0,0,-31,36,-94,36c0,0,-67,0,-165,-22V52L338,34V0ZM481,834c0,0,-36,0,-66,16c0,0,-30,16,-57,36c0,0,-27,20,-52,36c0,0,-25,16,-49,16c0,0,-24,0,-39,-9c0,0,-14,-9,-23,-26c0,0,-8,-17,-13,-54H143c0,0,11,180,146,180c0,0,36,0,66,-16c0,0,30,-16,57,-35c0,0,27,-20,52,-36c0,0,25,-16,49,-16c0,0,32,0,50,18c0,0,18,19,25,70h39c0,0,-12,-180,-146,-180Z" 
id="f0_1i"
transform="scale(0.001,-0.001)" />

<path d="M287,0L589,729H66v386H205V836l547,-1l-2,-82L433,0Z" 
id="f1_2"
transform="scale(0.001,-0.001)" />

<path d="M102,312V836H241V369L102,312Z" 
id="f1_5"
transform="scale(0.001,-0.001)" />

<path d="M138,-7c0,0,-34,0,-72,10V129c0,0,25,-8,52,-8c0,0,33,0,58,5c0,0,26,5,58,24c0,0,33,20,53,54c0,0,21,34,36,97c0,0,15,64,15,151c0,0,0,113,-19,173c0,0,-19,60,-56,82c0,0,-38,22,-107,22H89V836h72c0,0,165,0,240,-91c0,0,76,-91,76,-293c0,0,0,-107,26,-227c0,0,25,-119,83,-225H437c0,0,-43,101,-62,184c0,0,-24,-60,-51,-99c0,0,-26,-38,-56,-58C268,27,239,7,209,0c0,0,-30,-7,-71,-7Z" 
id="f1_s"
transform="scale(0.001,-0.001)" />

<path d="M585,0V426c0,0,0,54,-8,98c0,0,-8,44,-27,83c0,0,-19,40,-49,66c0,0,-30,26,-77,41c0,0,-47,15,-108,15H66V836H315c0,0,94,0,166,-20c0,0,71,-20,116,-54c0,0,46,-35,75,-88c0,0,28,-52,40,-112c0,0,12,-60,12,-137V0Z" 
id="f1_9"
transform="scale(0.001,-0.001)" />

<path d="M112,-5c0,0,-39,0,-97,11V113c0,0,48,-10,77,-10c0,0,53,0,70,42c0,0,17,43,17,164V729H50V836H501c0,0,107,0,179,-25c0,0,72,-25,112,-77c0,0,40,-51,57,-118c0,0,16,-67,16,-164V0H726V454c0,0,0,55,-3,92c0,0,-4,37,-17,75c0,0,-14,38,-38,59c0,0,-24,22,-65,36c0,0,-42,13,-102,13H318V309c0,0,0,-160,-46,-237C272,72,226,-5,112,-5Z" 
id="f1_4"
transform="scale(0.001,-0.001)" />

<path d="M139,0V836H278V0Z" 
id="f1_7"
transform="scale(0.001,-0.001)" />

<path d="M66,0V107H554V452c0,0,0,56,-4,93c0,0,-4,37,-18,75c0,0,-14,38,-40,60c0,0,-26,22,-71,36c0,0,-45,13,-110,13H66V836H312c0,0,91,0,157,-17c0,0,66,-17,109,-49c0,0,44,-32,69,-84c0,0,26,-52,36,-114c0,0,10,-62,10,-147V107H817V0Z" 
id="f1_8"
transform="scale(0.001,-0.001)" />

<path d="M180,0L66,836H203L258,443c0,0,36,1,64,6c0,0,28,6,49,18c0,0,20,12,35,26c0,0,15,13,26,36c0,0,11,24,17,44c0,0,7,20,12,55c0,0,6,34,9,60c0,0,3,26,8,71c0,0,4,45,9,77H610c0,0,-13,-194,-31,-271c0,0,-31,-127,-111,-179c0,0,-71,-45,-196,-50L304,107c0,0,73,0,130,5c0,0,56,6,111,21c0,0,54,15,94,40c0,0,40,25,77,64c0,0,37,39,63,94c0,0,25,54,46,128c0,0,21,73,34,166c0,0,13,94,20,211h138c0,0,-14,-124,-29,-218c0,0,-16,-94,-39,-179c0,0,-22,-85,-50,-146c0,0,-28,-61,-68,-112c0,0,-39,-51,-87,-84C744,97,696,65,632,42C632,42,568,19,492,10C492,10,417,0,320,0Z" 
id="f1_b"
transform="scale(0.001,-0.001)" />

<path d="M486,98c0,0,107,0,169,58c0,0,62,57,62,157c0,0,0,101,-62,159c0,0,-61,57,-169,57c0,0,-108,0,-169,-57c0,0,-62,-58,-62,-159c0,0,0,-100,62,-158c0,0,61,-57,169,-57Zm-1,549c0,0,97,0,152,49c0,0,54,48,54,135c0,0,0,87,-54,135c0,0,-55,49,-152,49c0,0,-97,0,-151,-49c0,0,-54,-48,-54,-135c0,0,0,-87,54,-135c0,0,54,-49,151,-49Zm0,-667c0,0,-184,0,-283,85c0,0,-98,86,-98,248c0,0,0,107,61,181c0,0,61,74,170,99c0,0,-97,24,-151,90c0,0,-54,67,-54,162c0,0,0,134,95,212c0,0,95,77,260,77c0,0,167,0,261,-77c0,0,95,-78,95,-212c0,0,0,-95,-54,-162c0,0,-54,-66,-151,-90c0,0,109,-25,170,-99c0,0,61,-74,61,-181c0,0,0,-162,-99,-248c0,0,-98,-85,-283,-85Z" 
id="f1_1e"
transform="scale(0.001,-0.001)" />

<path d="M639,416L478,858L313,416ZM647,0V54L762,74L667,333H283L191,74L319,54V0H15V54L90,74l355,935H662L1016,74l76,-20V0Z" 
id="f2_1f"
transform="scale(0.001,-0.001)" />

<path d="M438,65c0,0,131,0,131,293c0,0,0,279,-130,279c0,0,-69,0,-127,-29V80c0,0,60,-15,126,-15ZM20,-325v50l76,18V634L19,652v49H304l1,-36c0,0,80,55,194,55c0,0,146,0,218,-86c0,0,71,-86,71,-271c0,0,0,-183,-83,-280c0,0,-83,-97,-238,-97c0,0,-79,0,-160,19c0,0,5,-48,5,-109V-257l103,-18v-50Z" 
id="f2_v"
transform="scale(0.001,-0.001)" />

<path d="M41,0V49l91,18V634L41,652v49H336l8,-145c0,0,80,89,144,128c0,0,64,40,117,40h40V468H604l-45,94c0,0,-47,0,-106,-21c0,0,-60,-20,-105,-48V67L460,49V0Z" 
id="f2_w"
transform="scale(0.001,-0.001)" />

<path d="M345,75c0,0,50,0,110,26V351l-63,-2c0,0,-72,-3,-100,-38c0,0,-28,-35,-28,-113c0,0,0,-63,22,-93c0,0,23,-30,59,-30ZM266,-14c0,0,-217,0,-217,208c0,0,0,79,32,126c0,0,32,48,93,71c0,0,60,22,190,25l91,2V521c0,0,0,126,-104,126c0,0,-62,0,-140,-39L183,521H134V691c0,0,112,17,165,21c0,0,53,5,108,5c0,0,264,0,264,-194V67L741,49V0H483L466,54C466,54,408,14,361,0c0,0,-47,-14,-95,-14Z" 
id="f2_e"
transform="scale(0.001,-0.001)" />

<path d="M425,-14c0,0,-187,0,-280,90c0,0,-93,90,-93,276c0,0,0,115,42,198c0,0,43,82,121,126c0,0,78,44,182,44c0,0,104,0,227,-26V486H571L539,609c0,0,-25,19,-50,26c0,0,-24,7,-65,7c0,0,-44,0,-79,-35c0,0,-36,-35,-56,-98c0,0,-20,-64,-20,-153c0,0,0,-150,47,-214c0,0,47,-64,148,-64c0,0,103,0,176,21V42C640,42,606,15,547,0c0,0,-59,-14,-122,-14Z" 
id="f2_x"
transform="scale(0.001,-0.001)" />

<path d="M327,-14c0,0,-101,0,-156,45c0,0,-55,45,-55,131V624H25v48l108,29l87,159H332V701H480V624H332V176c0,0,0,-49,20,-73c0,0,20,-25,53,-25c0,0,40,0,97,12V26c0,0,-22,-15,-76,-27c0,0,-55,-13,-99,-13Z" 
id="f2_6"
transform="scale(0.001,-0.001)" />

<path d="M34,0V49l76,18V634L38,652v49H325V67L402,49V0ZM217,831c0,0,-48,0,-81,33c0,0,-34,33,-34,82c0,0,0,48,34,81c0,0,34,33,81,33c0,0,48,0,81,-33c0,0,33,-33,33,-81c0,0,0,-47,-33,-81c0,0,-32,-34,-81,-34Z" 
id="f2_y"
transform="scale(0.001,-0.001)" />

<path d="M71,0V90H214v934H71v90H1073V851H970v160H502V654H792V796H895V411H792V552H502V103H984V263h102V0Z" 
id="f3_2"
transform="scale(0.001,-0.001)" />

<path d="M87,-338c0,0,-45,0,-94,7c0,0,-51,8,-105,22v168l84,-1c0,0,1,-59,23,-86c0,0,21,-26,70,-26c0,0,55,0,77,35c0,0,21,35,21,127V703H51v90H427V-92c0,0,0,-122,-86,-184c0,0,-86,-62,-254,-62ZM277,876c0,0,-61,0,-102,41c0,0,-42,41,-42,101c0,0,0,60,41,101c0,0,42,42,103,42c0,0,58,0,100,-42c0,0,42,-42,42,-101c0,0,0,-59,-42,-101c0,0,-41,-41,-100,-41Z" 
id="f3_3"
transform="scale(0.001,-0.001)" />

<path d="M612,448c0,0,0,156,-29,219c0,0,-29,63,-99,63c0,0,-68,0,-98,-61c0,0,-29,-62,-29,-208V448ZM488,-20c0,0,-205,0,-315,107C173,87,63,195,63,397c0,0,0,197,112,307c0,0,113,110,313,110c0,0,197,0,303,-115c0,0,105,-116,111,-340H357v-6c0,0,0,-154,46,-222c0,0,46,-68,149,-68c0,0,86,0,139,45c0,0,53,46,68,133H883C883,241,851,105,755,42c0,0,-95,-62,-267,-62Z" 
id="f3_4"
transform="scale(0.001,-0.001)" />

<path d="M53,0V90H165V703H44v90H429V652c0,0,39,83,103,123c0,0,64,39,156,39c0,0,24,0,57,-3c0,0,33,-3,76,-9V565H737c0,0,-4,63,-34,94c0,0,-30,31,-87,31c0,0,-87,0,-137,-76c0,0,-50,-76,-50,-211V90H573V0Z" 
id="f3_f"
transform="scale(0.001,-0.001)" />

<path d="M507,-20c0,0,-212,0,-328,108C179,88,63,198,63,397c0,0,0,197,114,307c0,0,115,110,320,110c0,0,82,0,167,-15c0,0,84,-16,171,-47V532H752c0,0,-12,101,-59,150c0,0,-47,48,-132,48c0,0,-111,0,-157,-74c0,0,-47,-75,-47,-259c0,0,0,-180,45,-257c0,0,46,-77,149,-77c0,0,80,0,128,47c0,0,48,48,58,137H861C861,247,833,112,745,45c0,0,-87,-65,-238,-65Z" 
id="f3_g"
transform="scale(0.001,-0.001)" />

<path d="M53,0V90H165V703H53v90H429V90H543V0ZM285,876c0,0,-61,0,-102,41c0,0,-42,41,-42,101c0,0,0,60,42,101c0,0,41,42,102,42c0,0,59,0,100,-42c0,0,41,-41,41,-101c0,0,0,-59,-41,-101c0,0,-41,-41,-100,-41Z" 
id="f3_h"
transform="scale(0.001,-0.001)" />

<path d="M510,63c0,0,84,0,118,71c0,0,34,72,34,263c0,0,0,191,-34,262c0,0,-33,71,-118,71c0,0,-84,0,-119,-72c0,0,-34,-72,-34,-261c0,0,0,-190,34,-262c0,0,35,-72,119,-72Zm0,-83c0,0,-209,0,-328,110C182,90,63,201,63,397c0,0,0,196,119,307c0,0,119,110,328,110c0,0,211,0,330,-110c0,0,118,-111,118,-307c0,0,0,-196,-119,-307C839,90,720,-20,510,-20Z" 
id="f3_8"
transform="scale(0.001,-0.001)" />

<path d="M521,463c0,0,76,0,109,66c0,0,33,65,33,226c0,0,0,162,-33,227c0,0,-33,65,-109,65c0,0,-77,0,-109,-65c0,0,-33,-65,-33,-227c0,0,0,-161,33,-226c0,0,32,-66,109,-66ZM450,-20c0,0,-68,0,-144,11c0,0,-77,10,-165,32V220h90c0,0,18,-76,70,-115c0,0,52,-39,135,-39c0,0,131,0,191,91c0,0,60,91,60,297c0,0,-49,-40,-109,-60c0,0,-60,-19,-130,-19c0,0,-170,0,-268,99c0,0,-97,100,-97,275c0,0,0,185,109,285c0,0,109,100,311,100c0,0,228,0,346,-138c0,0,118,-138,118,-404c0,0,0,-304,-130,-459C837,133,706,-20,450,-20Z" 
id="f3_j"
transform="scale(0.001,-0.001)" />

<path d="M83,309V510H551V309Z" 
id="f3_k"
transform="scale(0.001,-0.001)" />

<path d="M359,-270c0,0,124,0,192,46c0,0,67,47,67,129c0,0,0,43,-26,67c0,0,-26,24,-79,24H242c0,0,-32,-27,-51,-69c0,0,-20,-41,-20,-77c0,0,0,-64,46,-92c0,0,46,-28,142,-28Zm11,561c0,0,81,0,115,47c0,0,34,47,34,141c0,0,0,100,-35,142c0,0,-35,42,-113,42c0,0,-78,0,-114,-43c0,0,-37,-42,-37,-141c0,0,0,-98,36,-143c0,0,36,-45,114,-45ZM359,-329c0,0,-143,0,-218,44c0,0,-75,43,-75,125c0,0,0,39,27,78c0,0,26,38,98,89c0,0,-43,14,-72,48c0,0,-29,35,-29,74L208,262c0,0,-118,55,-118,217c0,0,0,115,73,178c0,0,73,63,211,63c0,0,28,0,71,-6c0,0,44,-6,67,-13l165,83l26,-32L599,644c0,0,50,-56,50,-165c0,0,0,-120,-72,-182c0,0,-73,-62,-208,-62c0,0,-62,0,-114,11L208,148c0,0,2,-13,29,-24c0,0,27,-12,67,-12H512c0,0,113,0,168,-49c0,0,55,-49,55,-134c0,0,0,-79,-44,-137c0,0,-43,-58,-128,-90c0,0,-84,-31,-204,-31Z" 
id="f0_l"
transform="scale(0.001,-0.001)" />

<path d="M64,0V34L168,59V639H47v36l121,29v49c0,0,0,155,61,239c0,0,62,84,173,84c0,0,58,0,107,-15V908H472l-33,92c0,0,-26,16,-62,16c0,0,-47,0,-66,-42c0,0,-19,-42,-19,-157V701H478V639H292V59L443,34V0Z" 
id="f0_18"
transform="scale(0.001,-0.001)" />

<path d="M179,0V190H336V0Zm0,600V790H336V600Z" 
id="f1_v"
transform="scale(0.001,-0.001)" />

<path d="M354,-200c0,0,-112,175,-167,343c0,0,-56,170,-56,337c0,0,0,166,55,335c0,0,55,169,168,345H473c0,0,-100,-172,-148,-340c0,0,-48,-168,-48,-340c0,0,0,-173,48,-342c0,0,49,-168,148,-338Z" 
id="f1_x"
transform="scale(0.001,-0.001)" />

<path d="M139,-317V836H278V-317Z" 
id="f1_p"
transform="scale(0.001,-0.001)" />

<path d="M66,0V106H322c0,0,75,0,127,23c0,0,53,23,82,67c0,0,29,43,42,98c0,0,13,54,13,124c0,0,0,70,-13,124c0,0,-13,55,-42,98c0,0,-29,44,-82,67c0,0,-52,23,-127,23H66V836H322c0,0,87,0,157,-24c0,0,70,-24,115,-64c0,0,45,-40,74,-94c0,0,30,-55,43,-113c0,0,13,-59,13,-123c0,0,0,-64,-13,-123c0,0,-13,-58,-43,-113c0,0,-29,-54,-74,-94C594,88,549,48,479,24C479,24,409,0,322,0Z" 
id="f1_h"
transform="scale(0.001,-0.001)" />

<path d="M736,107V473c0,0,0,147,-48,202c0,0,-49,54,-187,54H278V107ZM139,0V836H499c0,0,105,0,177,-22c0,0,72,-21,116,-69c0,0,44,-49,64,-119c0,0,19,-71,19,-174V0Z" 
id="f1_e"
transform="scale(0.001,-0.001)" />

<path d="M495,0V729H66V836H781V729H634V0Z" 
id="f1_l"
transform="scale(0.001,-0.001)" />

<path d="M156,-317V454l139,56V-317ZM505,0L806,729H139V835H967V753L650,0Z" 
id="f1_3"
transform="scale(0.001,-0.001)" />

<path d="M71,-141V-15L289,62L66,836H210L416,109c0,0,99,42,153,98c0,0,53,56,80,155c0,0,26,98,26,262V836H817V624c0,0,0,-88,-7,-154c0,0,-7,-67,-25,-132c0,0,-18,-66,-51,-116c0,0,-33,-51,-84,-98c0,0,-50,-48,-123,-87c0,0,-72,-39,-169,-74L71,-141Z" 
id="f1_n"
transform="scale(0.001,-0.001)" />

<path d="M139,0V106H400c0,0,176,0,253,71c0,0,78,72,78,250c0,0,0,163,-80,233c0,0,-81,69,-250,69H278L277,564c0,0,-1,-54,26,-80c0,0,27,-25,82,-25c0,0,30,0,80,9V355c0,0,-61,-12,-111,-12c0,0,-100,0,-157,55c0,0,-58,55,-58,186V836H456c0,0,193,0,303,-109c0,0,110,-109,110,-309c0,0,0,-200,-110,-309C759,109,648,0,456,0Z" 
id="f1_j"
transform="scale(0.001,-0.001)" />

<path d="M154,0V454l138,56V0ZM722,0V454c0,0,0,161,-49,218c0,0,-48,57,-186,57H139V836H485c0,0,207,0,291,-93c0,0,83,-94,83,-318V0Z" 
id="f1_a"
transform="scale(0.001,-0.001)" />

<path d="M117,-176L179,62V190H336V62L213,-176Z" 
id="f1_m"
transform="scale(0.001,-0.001)" />

<path d="M66,0V106H564L66,836H228L516,413c0,0,3,2,9,6c0,0,17,13,27,21c0,0,10,8,26,27c0,0,17,20,26,40c0,0,9,21,16,54c0,0,7,34,7,75V836H764V698c0,0,0,-55,-7,-102c0,0,-7,-47,-16,-79c0,0,-10,-33,-27,-62c0,0,-18,-29,-32,-46c0,0,-14,-17,-37,-35c0,0,-22,-17,-36,-25c0,0,-13,-8,-36,-20L767,53V0Z" 
id="f1_g"
transform="scale(0.001,-0.001)" />

<path d="M114,0l60,312c0,0,2,12,8,39c0,0,6,27,7,37c0,0,2,11,5,30c0,0,2,19,4,33c0,0,1,15,1,31c0,0,0,48,-35,146c0,0,-35,98,-98,208H228c0,0,3,-8,27,-67c0,0,25,-58,41,-117c0,0,21,53,50,90c0,0,29,37,57,57c0,0,29,21,65,32c0,0,37,11,65,14c0,0,28,3,67,3c0,0,300,0,300,-396V0H480V106H761V452c0,0,0,146,-46,215c0,0,-45,70,-118,70c0,0,-134,0,-198,-119c0,0,-36,-68,-67,-222c0,0,-2,-10,-6,-27L253,0Z" 
id="f1_f"
transform="scale(0.001,-0.001)" />

<path d="M139,0V138c0,0,0,61,8,112c0,0,7,52,19,87c0,0,11,36,30,66c0,0,19,31,35,49c0,0,17,19,41,35c0,0,25,17,41,25c0,0,17,7,40,17L141,836H303L613,388c0,0,20,10,33,18c0,0,13,8,34,28c0,0,20,20,33,44c0,0,13,25,22,66c0,0,10,41,10,92V836H882V698c0,0,0,-61,-7,-112c0,0,-6,-52,-18,-88c0,0,-12,-36,-30,-66c0,0,-19,-30,-36,-49c0,0,-17,-18,-41,-34c0,0,-24,-17,-40,-25c0,0,-17,-8,-41,-17L882,0H720L409,448c0,0,-21,-11,-34,-19c0,0,-13,-8,-34,-27c0,0,-21,-20,-34,-44c0,0,-12,-25,-22,-66c0,0,-9,-41,-9,-92V0Z" 
id="f1_c"
transform="scale(0.001,-0.001)" />

<path d="M122,-200c0,0,99,170,148,338c0,0,49,169,49,342c0,0,0,172,-49,340c0,0,-49,168,-148,340H241c0,0,112,-176,168,-345c0,0,55,-169,55,-335c0,0,0,-167,-55,-337c0,0,-56,-168,-168,-343Z" 
id="f1_y"
transform="scale(0.001,-0.001)" />

<path d="M152,0V473c0,0,0,94,28,161c0,0,29,66,71,95H66V836H463V729H404c0,0,-65,0,-89,-57c0,0,-25,-58,-25,-199V0Z" 
id="f1_i"
transform="scale(0.001,-0.001)" />

<path d="M155,0V288H424V0Z" 
id="f4_u"
transform="scale(0.001,-0.001)" />

<path d="M153,0V437L399,539V0ZM664,0V450c0,0,0,122,-31,165c0,0,-31,43,-121,43H138V836H511c0,0,113,0,188,-22c0,0,75,-23,123,-73c0,0,47,-51,68,-127c0,0,20,-76,20,-189V0Z" 
id="f4_a"
transform="scale(0.001,-0.001)" />

<path d="M545,-19c0,0,-208,0,-308,99c0,0,-99,101,-99,324V836H383V399c0,0,0,-130,41,-183c0,0,41,-53,121,-53c0,0,80,0,121,53c0,0,41,53,41,183c0,0,0,142,-27,203c0,0,-28,61,-90,61c0,0,-36,0,-92,-20V825c0,0,80,21,142,21c0,0,153,0,233,-113c0,0,80,-113,80,-328c0,0,0,-224,-100,-325c0,0,-100,-99,-308,-99Z" 
id="f4_f"
transform="scale(0.001,-0.001)" />

<path d="M139,0V836H386V0Z" 
id="f4_8"
transform="scale(0.001,-0.001)" />

<path d="M129,0l69,362c0,0,10,56,12,100c0,0,0,84,-27,159c0,0,-27,76,-117,215H322c0,0,9,-6,31,-79c0,0,23,-72,23,-105c0,0,23,82,100,138c0,0,77,57,160,57c0,0,332,0,332,-397V0H538V177H721V449c0,0,0,124,-20,170c0,0,-20,47,-82,47c0,0,-23,0,-43,-9c0,0,-19,-10,-34,-23c0,0,-14,-14,-27,-39c0,0,-13,-25,-22,-46c0,0,-8,-22,-17,-57c0,0,-9,-36,-15,-61c0,0,-5,-24,-13,-65L375,0Z" 
id="f4_d"
transform="scale(0.001,-0.001)" />

<path d="M159,0V165c0,0,0,69,13,124c0,0,12,55,29,89c0,0,17,33,45,62c0,0,29,28,50,42c0,0,22,14,54,30L128,836H405L666,460c0,0,41,48,41,155V836H952V671c0,0,0,-50,-6,-93c0,0,-6,-42,-16,-73c0,0,-10,-30,-26,-57c0,0,-17,-27,-31,-44c0,0,-15,-17,-37,-33c0,0,-22,-16,-38,-25c0,0,-15,-9,-38,-21L984,0H706L445,376c0,0,-41,-48,-41,-155V0Z" 
id="f4_9"
transform="scale(0.001,-0.001)" />

<path d="M248,0L521,658H66v429H313V836l493,-1V716L504,0Z" 
id="f4_m"
transform="scale(0.001,-0.001)" />

<path d="M84,-153V45l189,68L66,836H321L497,205c0,0,72,50,101,138c0,0,30,88,30,261V836H878V604c0,0,0,-84,-7,-147c0,0,-7,-63,-25,-126c0,0,-19,-62,-51,-111c0,0,-33,-48,-82,-94c0,0,-50,-45,-122,-84C591,42,519,3,423,-30L84,-153Z" 
id="f4_12"
transform="scale(0.001,-0.001)" />

<path d="M139,0V177H436c0,0,127,0,184,56c0,0,56,55,56,186c0,0,0,132,-58,186c0,0,-58,53,-181,53H386L385,553c0,0,0,-40,12,-54c0,0,12,-15,31,-15c0,0,19,0,38,2V343c0,0,-46,-11,-94,-11c0,0,-48,0,-87,11c0,0,-38,10,-73,34c0,0,-73,53,-73,196V836H487c0,0,203,0,319,-109c0,0,116,-109,116,-309c0,0,0,-200,-117,-309C805,109,689,0,487,0Z" 
id="f4_5"
transform="scale(0.001,-0.001)" />

<path d="M66,0V178H507V449c0,0,0,43,-2,71c0,0,-3,28,-12,56c0,0,-9,28,-26,45c0,0,-17,16,-47,27c0,0,-29,10,-72,10H66V836H349c0,0,97,0,167,-17c0,0,71,-17,117,-49c0,0,46,-32,73,-84c0,0,27,-52,38,-114c0,0,11,-62,11,-147V178H866V0Z" 
id="f4_j"
transform="scale(0.001,-0.001)" />

<path d="M102,250V836H349V351L102,250Z" 
id="f4_7"
transform="scale(0.001,-0.001)" />

<path d="M139,0V836H512c0,0,219,0,309,-90c0,0,90,-90,90,-297V0H665V467c0,0,0,110,-31,150c0,0,-32,41,-120,41H385V0Z" 
id="f4_w"
transform="scale(0.001,-0.001)" />

<path d="M82,0V177H500L50,836H328L560,491c0,0,56,19,56,124V836H861V671c0,0,0,-116,-45,-192c0,0,-40,-68,-85,-90c0,0,-50,-26,-71,-26c0,0,-1,0,-1,0L838,96V0Z" 
id="f4_h"
transform="scale(0.001,-0.001)" />

<path d="M171,0V288H440V0Zm0,548V836H440V548Z" 
id="f4_e"
transform="scale(0.001,-0.001)" />

<path d="M534,0V425c0,0,0,109,-41,171c0,0,-41,62,-140,62H66V836H352c0,0,99,0,174,-20c0,0,75,-20,123,-55c0,0,48,-35,78,-87c0,0,30,-53,42,-113c0,0,12,-60,12,-136V0Z" 
id="f4_4"
transform="scale(0.001,-0.001)" />

<path d="M137,0L30,830H277L321,522c0,0,68,3,96,27c0,0,27,23,38,58c0,0,26,74,31,228H733c0,0,-31,-218,-70,-316c0,0,-23,-59,-88,-100c0,0,-54,-34,-116,-42c0,0,-62,-8,-117,-8L362,178c0,0,27,-1,61,-1c40,0,89,1,119,6c0,0,57,8,94,25c0,0,37,18,69,47c0,0,32,30,60,79c0,0,28,48,51,117c0,0,48,143,82,384h248c0,0,-53,-404,-172,-586C974,249,879,103,745,51C745,51,613,0,318,0Z" 
id="f4_k"
transform="scale(0.001,-0.001)" />

<path d="M173,-6C173,-6,61,-6,15,9V177c0,0,73,-10,82,-10c0,0,37,0,52,30c0,0,14,29,14,116V658H18V836H516c0,0,262,0,341,-145c0,0,48,-89,48,-242V0H658V450c0,0,0,131,-37,171c0,0,-34,37,-105,37H411V313c0,0,0,-189,-67,-258C344,55,285,-6,173,-6Z" 
id="f4_l"
transform="scale(0.001,-0.001)" />

<path d="M646,-366V450c0,0,0,117,-35,163c0,0,-35,45,-116,45H385V513c0,0,0,-72,60,-72c0,0,9,0,20,2V299c0,0,-64,-9,-110,-9c0,0,-46,0,-84,12c0,0,-37,11,-68,37c0,0,-64,54,-64,192V836H495c0,0,218,0,308,-93c0,0,90,-94,90,-293V-366Z" 
id="f4_v"
transform="scale(0.001,-0.001)" />

<path d="M66,0V178H307V510c0,0,0,100,-31,124c0,0,-30,24,-79,24H83V836H197c0,0,215,0,286,-85c0,0,71,-85,71,-224V0Z" 
id="f4_10"
transform="scale(0.001,-0.001)" />

<path d="M154,-13c0,0,-38,0,-85,9V198c0,0,58,-15,103,-15c0,0,84,0,118,60c0,0,35,61,35,206c0,0,0,66,-7,105c0,0,-6,39,-24,63c0,0,-17,25,-44,33c0,0,-27,8,-73,8H66V836H225c0,0,198,0,275,-115c0,0,56,-84,65,-264c0,0,3,-55,3,-148c0,0,0,-177,71,-309L393,1c0,0,-53,130,-54,141c0,0,-28,-90,-65,-123c0,0,-38,-32,-120,-32Z" 
id="f4_b"
transform="scale(0.001,-0.001)" />

<path d="M139,-366V836H386V-366Z" 
id="f4_i"
transform="scale(0.001,-0.001)" />

<path d="M143,0V355c0,0,0,103,26,191c0,0,26,88,79,112H66V836H546V658H484c0,0,-30,0,-50,-24c0,0,-20,-24,-29,-67c0,0,-9,-42,-12,-81c0,0,-3,-39,-3,-89V0Z" 
id="f4_c"
transform="scale(0.001,-0.001)" />

<path d="M376,50c0,0,103,0,149,80c0,0,46,81,46,240c0,0,0,137,-47,204c0,0,-48,67,-148,67c0,0,-44,0,-87,-7c0,0,-44,-8,-63,-17V62c0,0,63,-12,150,-12Zm3,-64c0,0,-64,0,-141,14c0,0,-78,14,-136,37v971L0,1026v34H226V809c0,0,0,-40,-4,-148c0,0,74,59,188,59c0,0,143,0,219,-87c0,0,77,-87,77,-263c0,0,0,-189,-84,-287c0,0,-84,-97,-243,-97Z" 
id="f0_v"
transform="scale(0.001,-0.001)" />

<path d="M0,-141L388,1114H514L127,-141Z" 
id="f1_1c"
transform="scale(0.001,-0.001)" />

<path d="M231,0V190H382V0Zm15,359L231,625v489H382V625L367,359Z" 
id="f1_w"
transform="scale(0.001,-0.001)" />

<path d="M522,92c0,0,247,0,247,333c0,0,0,88,-17,146c0,0,-17,58,-53,91c0,0,-35,33,-82,46c0,0,-48,14,-116,14H276V419c0,0,0,-327,246,-327Zm0,-112c0,0,-193,0,-289,109c0,0,-95,110,-95,337V836H501c0,0,213,0,309,-93c0,0,96,-94,96,-317c0,0,0,-227,-95,-337C811,89,715,-20,522,-20Z" 
id="f1_o"
transform="scale(0.001,-0.001)" />

<path d="M519,79c0,0,97,0,153,42c0,0,57,42,83,131c0,0,26,89,26,248c0,0,0,216,-79,317c0,0,-79,101,-257,101H389V85c0,0,72,-6,130,-6ZM533,-2L198,0H27V54L155,74V926L27,945v55H502c0,0,269,0,398,-122c0,0,129,-122,129,-372c0,0,0,-258,-123,-383C906,123,783,-2,533,-2Z" 
id="f2_1g"
transform="scale(0.001,-0.001)" />

<path d="M434,423c0,0,0,100,-7,141c0,0,-6,40,-22,60c0,0,-16,19,-45,19c0,0,-44,0,-66,-48c0,0,-22,-49,-22,-172ZM389,-13c0,0,-172,0,-254,89c0,0,-83,90,-83,278c0,0,0,184,79,274c0,0,79,90,238,90c0,0,142,0,206,-76c0,0,64,-76,64,-236V345H271V333c0,0,0,-111,18,-158c0,0,18,-47,58,-72c0,0,40,-25,110,-25c0,0,66,0,166,22V43C623,43,582,18,517,2c0,0,-66,-15,-128,-15ZM267,834v25l124,203H604v-28L331,834Z" 
id="f2_a"
transform="scale(0.001,-0.001)" />

<path d="M116,-325c0,0,-67,0,-128,14v168H35l32,-84c0,0,18,-14,37,-14c0,0,40,0,63,49c0,0,24,50,24,141V627L67,652v49H407V-28c0,0,0,-141,-76,-219c0,0,-76,-78,-215,-78ZM298,831c0,0,-47,0,-81,33c0,0,-33,33,-33,82c0,0,0,47,33,80c0,0,33,34,81,34c0,0,47,0,81,-33c0,0,34,-33,34,-81c0,0,0,-48,-34,-81c0,0,-33,-34,-81,-34Z" 
id="f2_n"
transform="scale(0.001,-0.001)" />

<path d="M431,0V33L535,52V499c0,0,0,62,-32,96c0,0,-32,33,-95,33c0,0,-66,0,-163,-22V52L350,33V0H32V33l89,19V649L32,668v33H237l6,-57c0,0,56,32,119,54c0,0,62,22,110,22c0,0,52,0,95,-20c0,0,44,-19,66,-62c0,0,57,32,134,57c0,0,77,25,128,25c0,0,179,0,179,-207V52l90,-19V0H846V33L950,52V499c0,0,0,129,-119,129c0,0,-19,0,-45,-3c0,0,-26,-3,-52,-7c0,0,-25,-4,-49,-8c0,0,-23,-5,-39,-8c0,0,13,-41,13,-89V52L764,33V0Z" 
id="f0_k"
transform="scale(0.001,-0.001)" />

<path d="M64,-325c0,0,-46,0,-107,14v148H-8l19,-81c0,0,25,-21,62,-21c0,0,44,0,67,47c0,0,22,47,22,152V649L57,668v33H286V-28c0,0,0,-146,-57,-221c0,0,-56,-76,-165,-76ZM213,850c0,0,-34,0,-58,24c0,0,-24,24,-24,56c0,0,0,34,24,58c0,0,24,24,58,24c0,0,32,0,56,-24c0,0,24,-24,24,-58c0,0,0,-32,-24,-56c0,0,-24,-24,-56,-24Z" 
id="f0_m"
transform="scale(0.001,-0.001)" />

<path d="M231,0V54L390,74V921H352c0,0,-171,0,-240,-15L92,721H24v279H996V721H927L907,906c0,0,-62,14,-245,14H626V74L785,54V0Z" 
id="f2_1h"
transform="scale(0.001,-0.001)" />

<path d="M345,75c0,0,50,0,110,26V352l-63,-2c0,0,-72,-3,-100,-38c0,0,-28,-35,-28,-114c0,0,0,-63,22,-93c0,0,23,-30,59,-30ZM266,-14c0,0,-217,0,-217,208c0,0,0,79,32,126c0,0,32,48,93,71c0,0,60,22,190,25l91,3V521c0,0,0,127,-104,127c0,0,-62,0,-140,-39L183,521H134V691c0,0,112,17,165,21c0,0,53,5,108,5c0,0,264,0,264,-194V67L741,49V0H483L466,54C466,54,408,14,361,0c0,0,-47,-14,-95,-14Zm5,848v25l124,203H607v-28L335,834Z" 
id="f2_1i"
transform="scale(0.001,-0.001)" />

<path d="M434,423c0,0,0,101,-7,142c0,0,-6,40,-22,60c0,0,-16,19,-45,19c0,0,-44,0,-66,-48c0,0,-22,-49,-22,-173ZM389,-14c0,0,-172,0,-254,89c0,0,-83,90,-83,279c0,0,0,184,79,274c0,0,79,91,238,91c0,0,142,0,206,-76c0,0,64,-76,64,-237V345H271V333c0,0,0,-111,18,-158c0,0,18,-47,58,-72c0,0,40,-25,110,-25c0,0,66,0,166,22V42C623,42,582,18,517,1c0,0,-66,-15,-128,-15Z" 
id="f2_f"
transform="scale(0.001,-0.001)" />

<path d="M382,45c0,0,188,0,188,314c0,0,0,143,-47,213c0,0,-46,69,-141,69c0,0,-87,0,-146,-24V58c0,0,67,-13,146,-13ZM25,-325v35l88,18V649L34,668v33H231l1,-41c0,0,31,27,84,43c0,0,53,17,107,17c0,0,134,0,208,-94c0,0,73,-93,73,-267c0,0,0,-178,-80,-276c0,0,-80,-97,-232,-97c0,0,-84,0,-160,16c0,0,4,-53,4,-84V-272l123,-18v-35Z" 
id="f0_g"
transform="scale(0.001,-0.001)" />

<path d="M360,-14L72,649L0,668v33H327V668L216,648L420,164L615,649L504,668v33H764V668L697,652L416,-14Z" 
id="f0_z"
transform="scale(0.001,-0.001)" />

<path d="M26,0V54L154,74V926L26,945v55H878V746H810L786,908c0,0,-83,10,-241,10H389V551H651l23,111h67V355H674L651,468H389V82H578c0,0,193,0,252,12l43,185h68L927,0Z" 
id="f2_1j"
transform="scale(0.001,-0.001)" />

<path d="M276,-14c0,0,-57,0,-125,13C151,-1,83,10,48,23V214H97l28,-98c0,0,26,-26,69,-44c0,0,42,-17,86,-17c0,0,65,0,97,28c0,0,32,28,32,71c0,0,0,41,-31,65c0,0,-30,25,-133,57c0,0,-108,34,-154,92c0,0,-45,58,-45,143c0,0,0,95,71,152c0,0,71,57,183,57c0,0,77,0,207,-22V518H457l-24,82c0,0,-21,22,-60,35c0,0,-40,14,-75,14c0,0,-53,0,-79,-22c0,0,-26,-22,-26,-59c0,0,0,-40,32,-65c0,0,32,-26,132,-55c0,0,109,-34,155,-89c0,0,45,-55,45,-137c0,0,0,-117,-72,-177c0,0,-72,-59,-209,-59Z" 
id="f2_d"
transform="scale(0.001,-0.001)" />

<path d="M287,-18c0,0,-194,0,-194,206V634L23,652v49H309V217c0,0,0,-63,26,-98c0,0,27,-35,76,-35c0,0,57,0,113,26V634l-64,18v49H740V67L809,49V0H536L526,61L475,35c0,0,-104,-53,-188,-53Zm23,852v25l124,203H647v-28L374,834Z" 
id="f2_7"
transform="scale(0.001,-0.001)" />

<path d="M41,0V49l69,18V992l-72,18v50H325V756c0,0,0,-49,-4,-116l51,26c0,0,106,54,190,54c0,0,194,0,194,-207V67L827,49V0H478V49l63,18V484c0,0,0,63,-27,98c0,0,-26,35,-75,35c0,0,-57,0,-114,-25V67L389,49V0Z" 
id="f2_1k"
transform="scale(0.001,-0.001)" />

<path d="M495,413c0,0,0,133,-34,190c0,0,-34,57,-105,57c0,0,-78,0,-119,-62c0,0,-42,-63,-42,-185ZM374,-14c0,0,-163,0,-239,87c0,0,-75,88,-75,283c0,0,0,183,77,274c0,0,76,90,219,90c0,0,269,0,269,-306V353H194V339c0,0,0,-103,23,-160c0,0,22,-57,70,-86c0,0,47,-30,124,-30c0,0,40,0,96,6c0,0,55,7,91,15V43C598,43,562,19,500,2c0,0,-61,-16,-126,-16ZM285,835v24l146,203H590v-27L326,835Z" 
id="f0_y"
transform="scale(0.001,-0.001)" />

<path d="M44,0V40L172,60V941L44,960v40H445V960L316,941V549H787V941L659,960v40h400V960L930,941V60L1059,40V0H659V40L787,60V481H316V60L445,40V0Z" 
id="f0_1e"
transform="scale(0.001,-0.001)" />

<path d="M424,64c0,0,74,0,109,71c0,0,36,72,36,236c0,0,0,137,-34,201c0,0,-34,65,-111,65c0,0,-29,0,-62,-7c0,0,-34,-6,-55,-19V76c0,0,47,-12,117,-12Zm21,-78c0,0,-121,0,-354,50V994l-72,18v48H307V802c0,0,0,-69,-8,-141c0,0,30,25,86,42c0,0,57,17,110,17c0,0,153,0,223,-84c0,0,70,-83,70,-266c0,0,0,-180,-90,-283C698,87,608,-14,445,-14Z" 
id="f2_1l"
transform="scale(0.001,-0.001)" />

<path d="M30,0V49l76,18V992l-72,18v50H322V67L398,49V0Z" 
id="f2_c"
transform="scale(0.001,-0.001)" />

<path d="M186,-14c0,0,-95,0,-154,22V190H81L104,86c0,0,14,-17,40,-26c0,0,26,-10,57,-10c0,0,105,0,105,141V941L178,960v40H562V960L449,941V322c0,0,0,-100,-30,-175c0,0,-31,-74,-93,-118c0,0,-63,-43,-140,-43Z" 
id="f0_1h"
transform="scale(0.001,-0.001)" />

<path d="M139,0V836H485c0,0,206,0,290,-90c0,0,84,-89,84,-294V0H721V473c0,0,0,147,-49,202c0,0,-48,54,-186,54H277V0Z" 
id="f1_r"
transform="scale(0.001,-0.001)" />

<path d="M868,0L251,804V74L385,54V0H29V54L157,74V926L29,945v55H371L862,361V926L727,945v55h356V945L955,926V0Z" 
id="f2_1e"
transform="scale(0.001,-0.001)" />

<path d="M379,60c0,0,59,0,84,64c0,0,24,65,24,231c0,0,0,164,-24,227c0,0,-24,63,-84,63c0,0,-57,0,-80,-60c0,0,-22,-61,-22,-230c0,0,0,-173,23,-234c0,0,22,-61,79,-61Zm-2,-74c0,0,-161,0,-240,91c0,0,-79,91,-79,277c0,0,0,186,80,276c0,0,81,90,245,90c0,0,167,0,245,-93c0,0,78,-93,78,-273c0,0,0,-188,-81,-278c0,0,-81,-90,-248,-90Z" 
id="f2_r"
transform="scale(0.001,-0.001)" />

<path d="M41,0V49l69,18V634L41,652v49H313l11,-61l50,26c0,0,105,54,188,54c0,0,194,0,194,-207V67L827,49V0H478V49l63,18V484c0,0,0,63,-27,98c0,0,-26,35,-75,35c0,0,-57,0,-114,-25V67L389,49V0Z" 
id="f2_o"
transform="scale(0.001,-0.001)" />

<path d="M41,0V49l69,18V634L41,652v49H313l11,-61l50,26c0,0,105,54,188,54c0,0,194,0,194,-207V67L827,49V0H478V49l63,18V484c0,0,0,63,-27,98c0,0,-26,35,-75,35c0,0,-57,0,-114,-25V67L389,49V0ZM527,837c0,0,-63,0,-147,66c0,0,-42,33,-67,33c0,0,-25,0,-35,-17c0,0,-9,-16,-16,-69H184c0,0,8,115,48,165c0,0,40,50,112,50c0,0,36,0,66,-14c0,0,29,-13,82,-51c0,0,45,-33,66,-33c0,0,14,0,23,5c0,0,8,4,14,16c0,0,6,11,14,62h79c0,0,-8,-113,-48,-163c0,0,-39,-50,-113,-50Z" 
id="f2_1m"
transform="scale(0.001,-0.001)" />

<path d="M360,-256c0,0,108,0,167,35c0,0,59,35,59,98c0,0,0,70,-95,70H254c0,0,-65,-47,-65,-108c0,0,0,-47,46,-71c0,0,45,-24,125,-24Zm9,561c0,0,55,0,79,43c0,0,25,43,25,129c0,0,0,87,-24,127c0,0,-25,41,-80,41c0,0,-52,0,-75,-41c0,0,-24,-40,-24,-127c0,0,0,-86,23,-129c0,0,23,-43,76,-43Zm-9,-641c0,0,-153,0,-236,43c0,0,-84,44,-84,120c0,0,0,33,28,65c0,0,27,31,105,76c0,0,-44,17,-75,59c0,0,-31,43,-31,90L192,258c0,0,-133,56,-133,219c0,0,0,116,81,180c0,0,82,63,233,63c0,0,32,0,82,-6c0,0,51,-6,74,-13l168,83l26,-32L638,631c0,0,46,-57,46,-154c0,0,0,-119,-80,-182c0,0,-80,-64,-234,-64c0,0,-59,0,-114,9L238,183c0,0,1,-22,28,-41c0,0,26,-19,64,-19H493c0,0,256,0,256,-196c0,0,0,-81,-44,-139c0,0,-45,-59,-131,-92c0,0,-86,-32,-214,-32Z" 
id="f2_m"
transform="scale(0.001,-0.001)" />

<path d="M66,0V107H332V555c0,0,0,92,-37,133c0,0,-37,41,-116,41H85V836h94c0,0,153,0,223,-66c0,0,69,-66,69,-231V0Z" 
id="f1_d"
transform="scale(0.001,-0.001)" />

<path d="M551,45c0,0,171,0,252,106c0,0,82,107,82,349c0,0,0,241,-82,346c0,0,-82,105,-252,105c0,0,-171,0,-252,-106c0,0,-80,-106,-80,-345c0,0,0,-241,80,-348c0,0,81,-107,252,-107ZM930,-246c0,0,-53,0,-94,17c0,0,-41,18,-83,56c0,0,-41,39,-139,162c0,0,-27,-3,-63,-3c0,0,-239,0,-364,130C187,116,63,247,63,500c0,0,0,511,488,511c0,0,240,0,365,-129c0,0,125,-130,125,-382c0,0,0,-366,-265,-475l37,-45c0,0,66,-82,112,-117c0,0,46,-35,91,-35l61,2v-49c0,0,-17,-7,-64,-17c0,0,-48,-10,-83,-10Z" 
id="f0_1k"
transform="scale(0.001,-0.001)" />

<path d="M416,68c0,0,60,0,124,32V628c0,0,-58,15,-118,15c0,0,-67,0,-104,-73c0,0,-38,-73,-38,-216c0,0,0,-139,36,-212c0,0,35,-74,100,-74ZM369,-14c0,0,-155,0,-231,88c0,0,-76,90,-76,274c0,0,0,182,82,277c0,0,81,95,236,95c0,0,82,0,165,-20c0,0,-5,24,-5,115V992l-72,18v50H756V67L833,49V0H562L547,40C547,40,505,13,483,4c0,0,-23,-7,-51,-12c0,0,-28,-6,-63,-6Z" 
id="f2_1c"
transform="scale(0.001,-0.001)" />

<path d="M557,-14c0,0,-199,0,-298,89c0,0,-99,90,-99,255V941L32,960v40H432V960L304,941V341c0,0,0,-273,264,-273c0,0,144,0,220,68c0,0,77,68,77,202V941L730,960v40h341V960L943,941V344c0,0,0,-180,-99,-269c0,0,-99,-89,-287,-89Z" 
id="f0_7"
transform="scale(0.001,-0.001)" />

<path d="M191,-20c0,0,-39,0,-65,25c0,0,-25,27,-25,64c0,0,0,38,26,64c0,0,26,26,64,26c0,0,38,0,64,-26c0,0,26,-26,26,-64c0,0,0,-37,-25,-64c0,0,-26,-25,-65,-25Z" 
id="f0_13"
transform="scale(0.001,-0.001)" />

<path d="M163,0V190H321V0Z" 
id="f1_q"
transform="scale(0.001,-0.001)" />

<path d="M58,-234v58c0,0,131,42,131,125c0,0,0,15,-11,27c0,0,-11,12,-38,25C140,1,89,27,89,75c0,0,0,40,25,61c0,0,26,21,65,21c0,0,48,0,77,-34c0,0,30,-34,30,-86c0,0,0,-101,-60,-170c0,0,-59,-69,-168,-101Z" 
id="f0_10"
transform="scale(0.001,-0.001)" />

<path d="M287,-18c0,0,-194,0,-194,206V634L23,652v49H309V217c0,0,0,-63,26,-98c0,0,27,-35,76,-35c0,0,57,0,113,25V634l-64,18v49H740V67L809,49V0H536L526,61L475,35c0,0,-104,-53,-188,-53Z" 
id="f2_14"
transform="scale(0.001,-0.001)" />

<path d="M30,0V34L352,634H272c0,0,-41,0,-80,-7c0,0,-39,-8,-54,-19L115,492H61V701H606V664L283,67H395c0,0,43,0,90,11c0,0,47,10,66,24l40,162h54L624,0Z" 
id="f2_17"
transform="scale(0.001,-0.001)" />

<path d="M467,496c0,0,102,0,161,69c0,0,59,70,59,190c0,0,0,120,-59,190c0,0,-59,70,-161,70c0,0,-101,0,-160,-70c0,0,-60,-70,-60,-190c0,0,0,-120,60,-190c0,0,59,-69,160,-69ZM403,-20c0,0,-57,0,-115,11c0,0,-58,10,-121,32V160c0,0,57,-26,115,-40c0,0,58,-14,115,-14c0,0,149,0,228,100c0,0,79,100,90,305c0,0,-44,-65,-110,-99c0,0,-66,-35,-147,-35c0,0,-167,0,-265,102c0,0,-97,101,-97,276c0,0,0,172,101,275c0,0,102,104,270,104c0,0,194,0,295,-148c0,0,102,-148,102,-430c0,0,0,-263,-125,-420C739,136,614,-20,403,-20Z" 
id="f1_1f"
transform="scale(0.001,-0.001)" />


</defs>
</svg>