<?xml version="1.0" encoding="UTF-8" standalone="no"?>
<!DOCTYPE svg PUBLIC "-//W3C//DTD SVG 1.1//EN"
"http://www.w3.org/Graphics/SVG/1.1/DTD/svg11.dtd">
<svg viewBox="0 0 909 1286" version="1.1" xmlns="http://www.w3.org/2000/svg" xmlns:xlink="http://www.w3.org/1999/xlink">
<defs>
<clipPath id="c0_23"><path d="M0,1286.2V0H909.4V1286.2Z" /></clipPath>
<style type="text/css"><![CDATA[
.g0_23{
fill: #D8D8D8;
}
.g1_23{
fill: none;
stroke: #000000;
stroke-width: 0.7638889;
stroke-linecap: butt;
stroke-linejoin: round;
}
.g2_23{
fill: none;
stroke: #0000FF;
stroke-width: 1.0694444;
stroke-linecap: butt;
stroke-linejoin: miter;
}
]]></style>
</defs>
<path fill-rule="evenodd" d="M689.8,347.8h90.4V293.6H689.8v54.2Z" class="g0_23" />
<path fill-rule="evenodd" d="M603.2,347.8h86.5V293.6H603.2v54.2Z" class="g0_23" />
<path fill-rule="evenodd" d="M516.5,347.8h86.6V293.6H516.5v54.2Z" class="g0_23" />
<path fill-rule="evenodd" d="M429.9,347.8h86.6V293.6H429.9v54.2Z" class="g0_23" />
<path fill-rule="evenodd" d="M343.3,347.8h86.5V293.6H343.3v54.2Z" class="g0_23" />
<path fill-rule="evenodd" d="M235,347.8H343.2V293.6H235v54.2Z" class="g0_23" />
<path fill-rule="evenodd" d="M128.9,347.8h106V293.6h-106v54.2Z" class="g0_23" />
<path fill-rule="evenodd" d="M128.9,367.8h106V347.9h-106v19.9Z" class="g0_23" />
<path fill-rule="evenodd" d="M128.9,388h106V367.9h-106V388Z" class="g0_23" />
<path fill-rule="evenodd" d="M128.9,408h106V388.1h-106V408Z" class="g0_23" />
<path fill-rule="evenodd" d="M128.9,428.2h106V408.1h-106v20.1Z" class="g0_23" />
<path fill-rule="evenodd" d="M128.9,448.2h106v-20h-106v20Z" class="g0_23" />
<path fill-rule="evenodd" d="M689.8,347.8h90.4V293.6H689.8v54.2Z" class="g0_23" />
<path fill-rule="evenodd" d="M603.2,347.8h86.5V293.6H603.2v54.2Z" class="g0_23" />
<path fill-rule="evenodd" d="M516.5,347.8h86.6V293.6H516.5v54.2Z" class="g0_23" />
<path fill-rule="evenodd" d="M429.9,347.8h86.6V293.6H429.9v54.2Z" class="g0_23" />
<path fill-rule="evenodd" d="M343.3,347.8h86.5V293.6H343.3v54.2Z" class="g0_23" />
<path fill-rule="evenodd" d="M235,347.8H343.2V293.6H235v54.2Z" class="g0_23" />
<path fill-rule="evenodd" d="M128.9,347.8h106V293.6h-106v54.2Z" class="g0_23" />
<path fill-rule="evenodd" d="M128.9,367.8h106V347.9h-106v19.9Z" class="g0_23" />
<path fill-rule="evenodd" d="M128.9,388h106V367.9h-106V388Z" class="g0_23" />
<path fill-rule="evenodd" d="M128.9,408h106V388.1h-106V408Z" class="g0_23" />
<path fill-rule="evenodd" d="M128.9,428.2h106V408.1h-106v20.1Z" class="g0_23" />
<path fill-rule="evenodd" d="M128.9,448.2h106v-20h-106v20Z" class="g0_23" />
<path d="M128.6,110.4H780.3M128.6,130.5H780.3M128.6,150.6H780.3M128.9,110v40.9M440.3,110v40.9M779.9,110v40.9" class="g1_23" />
<g clip-path="url(#c0_23)">
<g fill="#000000" >
<use xlink:href="#f0_1b" transform="matrix(10.5,0,0,10.5,449.2,125.7)" />
<use xlink:href="#f0_s" transform="matrix(10.5,0,0,10.5,458,125.7)" />
<use xlink:href="#f0_l" transform="matrix(10.5,0,0,10.5,466.6,125.7)" />
<use xlink:href="#f0_j" transform="matrix(10.5,0,0,10.5,473.6,125.7)" />
<use xlink:href="#f0_15" transform="matrix(10.5,0,0,10.5,482.1,125.7)" />
<use xlink:href="#f0_l" transform="matrix(10.5,0,0,10.5,490.1,125.7)" />
<use xlink:href="#f0_q" transform="matrix(10.5,0,0,10.5,497.2,125.7)" />
<use xlink:href="#f0_8" transform="matrix(10.5,0,0,10.5,503.3,125.7)" />
<use xlink:href="#f0_b" transform="matrix(10.5,0,0,10.5,510.5,125.7)" />
<use xlink:href="#f0_n" transform="matrix(10.5,0,0,10.5,517.5,125.7)" />
<use xlink:href="#f0_9" transform="matrix(10.5,0,0,10.5,525.6,125.7)" />
<use xlink:href="#f0_r" transform="matrix(10.5,0,0,10.5,533.7,125.7)" />
<use xlink:href="#f0_b" transform="matrix(10.5,0,0,10.5,543,125.7)" />
<use xlink:href="#f0_a" transform="matrix(10.5,0,0,10.5,550.1,125.7)" />
<use xlink:href="#f0_b" transform="matrix(10.5,0,0,10.5,562.6,125.7)" />
<use xlink:href="#f0_b" transform="matrix(10.5,0,0,10.5,573.7,125.7)" />
<use xlink:href="#f0_j" transform="matrix(10.5,0,0,10.5,584.9,125.7)" />
<use xlink:href="#f0_9" transform="matrix(10.5,0,0,10.5,589.3,125.7)" />
<use xlink:href="#f0_q" transform="matrix(10.5,0,0,10.5,597.2,125.7)" />
<use xlink:href="#f0_15" transform="matrix(10.5,0,0,10.5,607.6,125.7)" />
<use xlink:href="#f0_l" transform="matrix(10.5,0,0,10.5,615.5,125.7)" />
<use xlink:href="#f0_8" transform="matrix(10.5,0,0,10.5,622.7,125.7)" />
<use xlink:href="#f0_l" transform="matrix(10.5,0,0,10.5,629.7,125.7)" />
<use xlink:href="#f0_q" transform="matrix(10.5,0,0,10.5,636.9,125.7)" />
<use xlink:href="#f0_o" transform="matrix(10.5,0,0,10.5,643.1,125.7)" />
<use xlink:href="#f0_1e" transform="matrix(11,0,0,11,137.7,126.5)" />
<use xlink:href="#f0_5" transform="matrix(11,0,0,11,145.1,126.5)" />
<use xlink:href="#f0_a" transform="matrix(11,0,0,11,157.2,126.5)" />
<use xlink:href="#f0_b" transform="matrix(11,0,0,11,170.3,126.5)" />
<use xlink:href="#f0_l" transform="matrix(11,0,0,11,181.9,126.5)" />
<use xlink:href="#f0_j" transform="matrix(11,0,0,11,189.3,126.5)" />
<use xlink:href="#f0_15" transform="matrix(11,0,0,11,198.2,126.5)" />
<use xlink:href="#f0_l" transform="matrix(11,0,0,11,206.6,126.5)" />
<use xlink:href="#f0_q" transform="matrix(11,0,0,11,214.1,126.5)" />
<use xlink:href="#f0_8" transform="matrix(11,0,0,11,220.6,126.5)" />
<use xlink:href="#f0_b" transform="matrix(11,0,0,11,228.1,126.5)" />
<use xlink:href="#f0_n" transform="matrix(11,0,0,11,235.5,126.5)" />
<use xlink:href="#f0_9" transform="matrix(11,0,0,11,243.9,126.5)" />
<use xlink:href="#f0_r" transform="matrix(11,0,0,11,252.2,126.5)" />
<use xlink:href="#f0_b" transform="matrix(11,0,0,11,262.1,126.5)" />
<use xlink:href="#f0_j" transform="matrix(11,0,0,11,273.7,126.5)" />
<use xlink:href="#f0_9" transform="matrix(11,0,0,11,278.4,126.5)" />
<use xlink:href="#f0_q" transform="matrix(11,0,0,11,286.8,126.5)" />
<use xlink:href="#f0_15" transform="matrix(11,0,0,11,297.5,126.5)" />
<use xlink:href="#f0_l" transform="matrix(11,0,0,11,305.9,126.5)" />
<use xlink:href="#f0_8" transform="matrix(11,0,0,11,313.3,126.5)" />
<use xlink:href="#f0_l" transform="matrix(11,0,0,11,320.8,126.5)" />
<use xlink:href="#f0_q" transform="matrix(11,0,0,11,328.1,126.5)" />
<use xlink:href="#f0_1f" transform="matrix(11,0,0,11,334.7,126.5)" />
<use xlink:href="#f0_5" transform="matrix(10.5,0,0,10.5,449.2,145.9)" />
<use xlink:href="#f0_x" transform="matrix(10.5,0,0,10.5,460.6,145.9)" />
<use xlink:href="#f0_y" transform="matrix(10.5,0,0,10.5,468.7,145.9)" />
<use xlink:href="#f0_s" transform="matrix(10.5,0,0,10.5,476.8,145.9)" />
<use xlink:href="#f0_l" transform="matrix(10.5,0,0,10.5,485.2,145.9)" />
<use xlink:href="#f0_q" transform="matrix(10.5,0,0,10.5,492.4,145.9)" />
<use xlink:href="#f0_d" transform="matrix(10.5,0,0,10.5,498.6,145.9)" />
<use xlink:href="#f0_u" transform="matrix(10.5,0,0,10.5,502.9,145.9)" />
<use xlink:href="#f0_l" transform="matrix(10.5,0,0,10.5,514,145.9)" />
<use xlink:href="#f0_j" transform="matrix(10.5,0,0,10.5,521.2,145.9)" />
<use xlink:href="#f0_10" transform="matrix(10.5,0,0,10.5,529.6,145.9)" />
<use xlink:href="#f0_b" transform="matrix(10.5,0,0,10.5,537.7,145.9)" />
<use xlink:href="#f0_16" transform="matrix(10.5,0,0,10.5,544.7,145.9)" />
<use xlink:href="#f0_9" transform="matrix(10.5,0,0,10.5,552.8,145.9)" />
<use xlink:href="#f0_o" transform="matrix(10.5,0,0,10.5,560.9,145.9)" />
<use xlink:href="#f0_1e" transform="matrix(11,0,0,11,137.7,146.5)" />
<use xlink:href="#f0_1i" transform="matrix(11,0,0,11,145.1,146.5)" />
<use xlink:href="#f0_1o" transform="matrix(11,0,0,11,157.2,146.5)" />
<use xlink:href="#f0_p" transform="matrix(11,0,0,11,165.6,146.5)" />
<use xlink:href="#f0_n" transform="matrix(11,0,0,11,174,146.5)" />
<use xlink:href="#f0_l" transform="matrix(11,0,0,11,182.4,146.5)" />
<use xlink:href="#f0_l" transform="matrix(11,0,0,11,194.1,146.5)" />
<use xlink:href="#f0_q" transform="matrix(11,0,0,11,201.6,146.5)" />
<use xlink:href="#f0_d" transform="matrix(11,0,0,11,208,146.5)" />
<use xlink:href="#f0_u" transform="matrix(11,0,0,11,212.7,146.5)" />
<use xlink:href="#f0_l" transform="matrix(11,0,0,11,224.3,146.5)" />
<use xlink:href="#f0_j" transform="matrix(11,0,0,11,231.8,146.5)" />
<use xlink:href="#f0_10" transform="matrix(11,0,0,11,240.6,146.5)" />
<use xlink:href="#f0_b" transform="matrix(11,0,0,11,249,146.5)" />
<use xlink:href="#f0_16" transform="matrix(11,0,0,11,256.5,146.5)" />
<use xlink:href="#f0_9" transform="matrix(11,0,0,11,264.9,146.5)" />
<use xlink:href="#f0_1f" transform="matrix(11,0,0,11,273.3,146.5)" />
</g>
<g fill="#0000FF" >
<use xlink:href="#f1_c" transform="matrix(12,0,0,12,669.9,187.3)" />
<use xlink:href="#f1_5" transform="matrix(12,0,0,12,682.9,187.3)" />
<use xlink:href="#f1_d" transform="matrix(12,0,0,12,693.1,187.3)" />
<use xlink:href="#f1_7" transform="matrix(12,0,0,12,704.6,187.3)" />
<use xlink:href="#f1_6" transform="matrix(12,0,0,12,720.9,187.3)" />
<use xlink:href="#f1_5" transform="matrix(12,0,0,12,732.8,187.3)" />
<use xlink:href="#f1_b" transform="matrix(12,0,0,12,743.2,187.3)" />
<use xlink:href="#f1_f" transform="matrix(12,0,0,12,749.6,187.3)" />
<use xlink:href="#f1_2" transform="matrix(12,0,0,12,761.5,187.3)" />
</g>
</g>
<path d="M669.8,189.1H772.1" class="g2_23" />
<g clip-path="url(#c0_23)">
<g fill="#000000" >
<use xlink:href="#f2_b" transform="matrix(12,0,0,12,444.9,270.7)" />
<use xlink:href="#f2_h" transform="matrix(12,0,0,12,456,270.7)" />
<use xlink:href="#f2_f" transform="matrix(12,0,0,12,461.4,270.7)" />
<use xlink:href="#f2_4" transform="matrix(12,0,0,12,469.6,270.7)" />
<use xlink:href="#f2_7" transform="matrix(12,0,0,12,480.6,270.7)" />
<use xlink:href="#f2_m" transform="matrix(12,0,0,12,412.8,270.7)" />
<use xlink:href="#f2_p" transform="matrix(12,0,0,12,425.5,270.7)" />
</g>
</g>
<path d="M128.6,294h652m-652,54.3h652m-652,20h652m-652,20.1h652m-652,20.1h652m-652,20.1h652m-652,20h652M128.9,293.6V449M235,293.6V449M343.3,293.6V449M429.9,293.6V449M516.5,293.6V449M603.2,293.6V449M689.8,293.6V449M780.2,293.6V449" class="g1_23" />
<g clip-path="url(#c0_23)">
<g fill="#000000" >
<use xlink:href="#f1_5" transform="matrix(12,0,0,12,728.3,311.4)" />
<use xlink:href="#f1_9" transform="matrix(12,0,0,12,738.7,311.4)" />
<use xlink:href="#f1_b" transform="matrix(12,0,0,12,743.7,311.4)" />
<use xlink:href="#f1_k" transform="matrix(12,0,0,12,750.1,311.4)" />
<use xlink:href="#f1_7" transform="matrix(12,0,0,12,761.5,311.4)" />
<use xlink:href="#f0_b" transform="matrix(11,0,0,11,698.5,342.1)" />
<use xlink:href="#f0_c" transform="matrix(11,0,0,11,706,342.1)" />
<use xlink:href="#f0_y" transform="matrix(11,0,0,11,714.4,342.1)" />
<use xlink:href="#f0_n" transform="matrix(11,0,0,11,722.8,342.1)" />
<use xlink:href="#f0_b" transform="matrix(11,0,0,11,731.2,342.1)" />
<use xlink:href="#f0_r" transform="matrix(11,0,0,11,738.6,342.1)" />
<use xlink:href="#f1_k" transform="matrix(12,0,0,12,635.4,311.4)" />
<use xlink:href="#f1_9" transform="matrix(12,0,0,12,646.9,311.4)" />
<use xlink:href="#f1_i" transform="matrix(12,0,0,12,651.9,311.4)" />
<use xlink:href="#f1_l" transform="matrix(12,0,0,12,663.8,311.4)" />
<use xlink:href="#f1_7" transform="matrix(12,0,0,12,671.1,311.4)" />
<use xlink:href="#f0_6" transform="matrix(11,0,0,11,611.9,342.1)" />
<use xlink:href="#f0_7" transform="matrix(11,0,0,11,620.3,342.1)" />
<use xlink:href="#f0_b" transform="matrix(11,0,0,11,625,342.1)" />
<use xlink:href="#f0_19" transform="matrix(11,0,0,11,632.3,342.1)" />
<use xlink:href="#f0_b" transform="matrix(11,0,0,11,637,342.1)" />
<use xlink:href="#f0_r" transform="matrix(11,0,0,11,644.5,342.1)" />
<use xlink:href="#f1_t" transform="matrix(12,0,0,12,553.1,311.4)" />
<use xlink:href="#f1_3" transform="matrix(12,0,0,12,564.8,311.4)" />
<use xlink:href="#f1_3" transform="matrix(12,0,0,12,568.9,311.4)" />
<use xlink:href="#f1_k" transform="matrix(12,0,0,12,573,311.4)" />
<use xlink:href="#f1_7" transform="matrix(12,0,0,12,584.5,311.4)" />
<use xlink:href="#f0_8" transform="matrix(11,0,0,11,525.3,342.1)" />
<use xlink:href="#f0_b" transform="matrix(11,0,0,11,532.7,342.1)" />
<use xlink:href="#f0_p" transform="matrix(11,0,0,11,540.2,342.1)" />
<use xlink:href="#f0_q" transform="matrix(11,0,0,11,548.6,342.1)" />
<use xlink:href="#f0_b" transform="matrix(11,0,0,11,555.1,342.1)" />
<use xlink:href="#f0_r" transform="matrix(11,0,0,11,562.5,342.1)" />
<use xlink:href="#f1_19" transform="matrix(12,0,0,12,472.5,311.4)" />
<use xlink:href="#f1_9" transform="matrix(12,0,0,12,482.5,311.4)" />
<use xlink:href="#f1_5" transform="matrix(12,0,0,12,487.5,311.4)" />
<use xlink:href="#f1_7" transform="matrix(12,0,0,12,497.9,311.4)" />
<use xlink:href="#f0_8" transform="matrix(11,0,0,11,438.6,342.1)" />
<use xlink:href="#f0_9" transform="matrix(11,0,0,11,446.1,342.1)" />
<use xlink:href="#f0_r" transform="matrix(11,0,0,11,454.5,342.1)" />
<use xlink:href="#f0_r" transform="matrix(11,0,0,11,460,342.1)" />
<use xlink:href="#f0_l" transform="matrix(11,0,0,11,465.6,342.1)" />
<use xlink:href="#f0_r" transform="matrix(11,0,0,11,473.1,342.1)" />
<use xlink:href="#f1_a" transform="matrix(12,0,0,12,372.6,311.4)" />
<use xlink:href="#f1_9" transform="matrix(12,0,0,12,384.7,311.4)" />
<use xlink:href="#f1_i" transform="matrix(12,0,0,12,389.7,311.4)" />
<use xlink:href="#f1_4" transform="matrix(12,0,0,12,401.6,311.4)" />
<use xlink:href="#f1_7" transform="matrix(12,0,0,12,411.2,311.4)" />
<use xlink:href="#f0_8" transform="matrix(11,0,0,11,352,342.1)" />
<use xlink:href="#f0_y" transform="matrix(11,0,0,11,359.5,342.1)" />
<use xlink:href="#f0_10" transform="matrix(11,0,0,11,367.9,342.1)" />
<use xlink:href="#f0_r" transform="matrix(11,0,0,11,376.3,342.1)" />
<use xlink:href="#f0_7" transform="matrix(11,0,0,11,381.8,342.1)" />
<use xlink:href="#f0_r" transform="matrix(11,0,0,11,386.5,342.1)" />
<use xlink:href="#f1_12" transform="matrix(12,0,0,12,244,311.4)" />
<use xlink:href="#f1_a" transform="matrix(12,0,0,12,250.1,311.4)" />
<use xlink:href="#f1_9" transform="matrix(12,0,0,12,262.1,311.4)" />
<use xlink:href="#f1_q" transform="matrix(12,0,0,12,267.2,311.4)" />
<use xlink:href="#f1_f" transform="matrix(12,0,0,12,278,311.4)" />
<use xlink:href="#f1_7" transform="matrix(12,0,0,12,289.9,311.4)" />
<use xlink:href="#f1_2" transform="matrix(12,0,0,12,244.1,343.4)" />
<use xlink:href="#f1_9" transform="matrix(12,0,0,12,254.7,343.4)" />
<use xlink:href="#f1_b" transform="matrix(12,0,0,12,259.6,343.4)" />
<use xlink:href="#f1_k" transform="matrix(12,0,0,12,266,343.4)" />
<use xlink:href="#f1_7" transform="matrix(12,0,0,12,277.4,343.4)" />
<use xlink:href="#f0_15" transform="matrix(11,0,0,11,293.5,343.4)" />
<use xlink:href="#f0_b" transform="matrix(11,0,0,11,301.9,343.4)" />
<use xlink:href="#f0_r" transform="matrix(11,0,0,11,309.2,343.4)" />
<use xlink:href="#f0_d" transform="matrix(11,0,0,11,314.8,343.4)" />
<use xlink:href="#f0_7" transform="matrix(11,0,0,11,319.4,343.4)" />
<use xlink:href="#f0_r" transform="matrix(11,0,0,11,324.2,343.4)" />
<use xlink:href="#f1_j" transform="matrix(12,0,0,12,174.6,311.4)" />
<use xlink:href="#f1_3" transform="matrix(12,0,0,12,186.8,311.4)" />
<use xlink:href="#f1_d" transform="matrix(12,0,0,12,190.9,311.4)" />
<use xlink:href="#f1_9" transform="matrix(12,0,0,12,202.4,311.4)" />
<use xlink:href="#f1_u" transform="matrix(12,0,0,12,207.4,311.4)" />
<use xlink:href="#f1_6" transform="matrix(12,0,0,12,214.9,311.4)" />
<use xlink:href="#f0_b" transform="matrix(11,0,0,11,698.5,364.2)" />
<use xlink:href="#f0_c" transform="matrix(11,0,0,11,706,364.2)" />
<use xlink:href="#f0_y" transform="matrix(11,0,0,11,714.4,364.2)" />
<use xlink:href="#f0_n" transform="matrix(11,0,0,11,722.8,364.2)" />
<use xlink:href="#f0_9" transform="matrix(11,0,0,11,731.2,364.2)" />
<use xlink:href="#f0_6" transform="matrix(11,0,0,11,611.9,364.2)" />
<use xlink:href="#f0_7" transform="matrix(11,0,0,11,620.3,364.2)" />
<use xlink:href="#f0_b" transform="matrix(11,0,0,11,625,364.2)" />
<use xlink:href="#f0_19" transform="matrix(11,0,0,11,632.3,364.2)" />
<use xlink:href="#f0_9" transform="matrix(11,0,0,11,637,364.2)" />
<use xlink:href="#f0_8" transform="matrix(11,0,0,11,525.3,364.2)" />
<use xlink:href="#f0_b" transform="matrix(11,0,0,11,532.7,364.2)" />
<use xlink:href="#f0_p" transform="matrix(11,0,0,11,540.2,364.2)" />
<use xlink:href="#f0_q" transform="matrix(11,0,0,11,548.6,364.2)" />
<use xlink:href="#f0_9" transform="matrix(11,0,0,11,555.1,364.2)" />
<use xlink:href="#f0_8" transform="matrix(11,0,0,11,438.6,364.2)" />
<use xlink:href="#f0_9" transform="matrix(11,0,0,11,446.1,364.2)" />
<use xlink:href="#f0_r" transform="matrix(11,0,0,11,454.5,364.2)" />
<use xlink:href="#f0_r" transform="matrix(11,0,0,11,460,364.2)" />
<use xlink:href="#f0_9" transform="matrix(11,0,0,11,465.6,364.2)" />
<use xlink:href="#f0_8" transform="matrix(11,0,0,11,352,364.2)" />
<use xlink:href="#f0_y" transform="matrix(11,0,0,11,359.5,364.2)" />
<use xlink:href="#f0_10" transform="matrix(11,0,0,11,367.9,364.2)" />
<use xlink:href="#f0_r" transform="matrix(11,0,0,11,376.3,364.2)" />
<use xlink:href="#f0_9" transform="matrix(11,0,0,11,381.9,364.2)" />
<use xlink:href="#f0_15" transform="matrix(11,0,0,11,243.8,364.2)" />
<use xlink:href="#f0_b" transform="matrix(11,0,0,11,252.2,364.2)" />
<use xlink:href="#f0_r" transform="matrix(11,0,0,11,259.6,364.2)" />
<use xlink:href="#f0_d" transform="matrix(11,0,0,11,265.2,364.2)" />
<use xlink:href="#f0_9" transform="matrix(11,0,0,11,269.9,364.2)" />
<use xlink:href="#f0_c" transform="matrix(11,0,0,11,137.7,364.2)" />
<use xlink:href="#f0_9" transform="matrix(11,0,0,11,146.1,364.2)" />
<use xlink:href="#f0_b" transform="matrix(11,0,0,11,698.5,384.4)" />
<use xlink:href="#f0_c" transform="matrix(11,0,0,11,706,384.4)" />
<use xlink:href="#f0_y" transform="matrix(11,0,0,11,714.4,384.4)" />
<use xlink:href="#f0_n" transform="matrix(11,0,0,11,722.8,384.4)" />
<use xlink:href="#f0_b" transform="matrix(11,0,0,11,731.2,384.4)" />
<use xlink:href="#f0_q" transform="matrix(11,0,0,11,738.6,384.4)" />
<use xlink:href="#f0_6" transform="matrix(11,0,0,11,611.9,384.4)" />
<use xlink:href="#f0_7" transform="matrix(11,0,0,11,620.3,384.4)" />
<use xlink:href="#f0_b" transform="matrix(11,0,0,11,625,384.4)" />
<use xlink:href="#f0_19" transform="matrix(11,0,0,11,632.3,384.4)" />
<use xlink:href="#f0_b" transform="matrix(11,0,0,11,637,384.4)" />
<use xlink:href="#f0_q" transform="matrix(11,0,0,11,644.5,384.4)" />
<use xlink:href="#f0_8" transform="matrix(11,0,0,11,525.3,384.4)" />
<use xlink:href="#f0_b" transform="matrix(11,0,0,11,532.7,384.4)" />
<use xlink:href="#f0_p" transform="matrix(11,0,0,11,540.2,384.4)" />
<use xlink:href="#f0_q" transform="matrix(11,0,0,11,548.6,384.4)" />
<use xlink:href="#f0_b" transform="matrix(11,0,0,11,555.1,384.4)" />
<use xlink:href="#f0_q" transform="matrix(11,0,0,11,562.5,384.4)" />
<use xlink:href="#f0_8" transform="matrix(11,0,0,11,438.6,384.4)" />
<use xlink:href="#f0_9" transform="matrix(11,0,0,11,446.1,384.4)" />
<use xlink:href="#f0_r" transform="matrix(11,0,0,11,454.5,384.4)" />
<use xlink:href="#f0_r" transform="matrix(11,0,0,11,460,384.4)" />
<use xlink:href="#f0_l" transform="matrix(11,0,0,11,465.6,384.4)" />
<use xlink:href="#f0_q" transform="matrix(11,0,0,11,473.1,384.4)" />
<use xlink:href="#f0_8" transform="matrix(11,0,0,11,352,384.4)" />
<use xlink:href="#f0_y" transform="matrix(11,0,0,11,359.5,384.4)" />
<use xlink:href="#f0_10" transform="matrix(11,0,0,11,367.9,384.4)" />
<use xlink:href="#f0_r" transform="matrix(11,0,0,11,376.3,384.4)" />
<use xlink:href="#f0_l" transform="matrix(11,0,0,11,381.9,384.4)" />
<use xlink:href="#f0_q" transform="matrix(11,0,0,11,389.2,384.4)" />
<use xlink:href="#f0_15" transform="matrix(11,0,0,11,243.8,384.4)" />
<use xlink:href="#f0_b" transform="matrix(11,0,0,11,252.2,384.4)" />
<use xlink:href="#f0_r" transform="matrix(11,0,0,11,259.6,384.4)" />
<use xlink:href="#f0_d" transform="matrix(11,0,0,11,265.2,384.4)" />
<use xlink:href="#f0_l" transform="matrix(11,0,0,11,269.9,384.4)" />
<use xlink:href="#f0_q" transform="matrix(11,0,0,11,277.4,384.4)" />
<use xlink:href="#f0_d" transform="matrix(11,0,0,11,137.7,384.4)" />
<use xlink:href="#f0_e" transform="matrix(11,0,0,11,142.4,384.4)" />
<use xlink:href="#f0_b" transform="matrix(11,0,0,11,698.5,404.4)" />
<use xlink:href="#f0_c" transform="matrix(11,0,0,11,706,404.4)" />
<use xlink:href="#f0_y" transform="matrix(11,0,0,11,714.4,404.4)" />
<use xlink:href="#f0_n" transform="matrix(11,0,0,11,722.8,404.4)" />
<use xlink:href="#f0_b" transform="matrix(11,0,0,11,731.2,404.4)" />
<use xlink:href="#f0_6" transform="matrix(11,0,0,11,611.9,404.4)" />
<use xlink:href="#f0_7" transform="matrix(11,0,0,11,620.3,404.4)" />
<use xlink:href="#f0_b" transform="matrix(11,0,0,11,625,404.4)" />
<use xlink:href="#f0_19" transform="matrix(11,0,0,11,632.3,404.4)" />
<use xlink:href="#f0_b" transform="matrix(11,0,0,11,637,404.4)" />
<use xlink:href="#f0_8" transform="matrix(11,0,0,11,525.3,404.4)" />
<use xlink:href="#f0_b" transform="matrix(11,0,0,11,532.7,404.4)" />
<use xlink:href="#f0_p" transform="matrix(11,0,0,11,540.2,404.4)" />
<use xlink:href="#f0_q" transform="matrix(11,0,0,11,548.6,404.4)" />
<use xlink:href="#f0_b" transform="matrix(11,0,0,11,555.1,404.4)" />
<use xlink:href="#f0_8" transform="matrix(11,0,0,11,438.6,404.4)" />
<use xlink:href="#f0_9" transform="matrix(11,0,0,11,446.1,404.4)" />
<use xlink:href="#f0_r" transform="matrix(11,0,0,11,454.5,404.4)" />
<use xlink:href="#f0_r" transform="matrix(11,0,0,11,460,404.4)" />
<use xlink:href="#f0_l" transform="matrix(11,0,0,11,465.6,404.4)" />
<use xlink:href="#f0_8" transform="matrix(11,0,0,11,352,404.4)" />
<use xlink:href="#f0_y" transform="matrix(11,0,0,11,359.5,404.4)" />
<use xlink:href="#f0_10" transform="matrix(11,0,0,11,367.9,404.4)" />
<use xlink:href="#f0_r" transform="matrix(11,0,0,11,376.3,404.4)" />
<use xlink:href="#f0_l" transform="matrix(11,0,0,11,381.9,404.4)" />
<use xlink:href="#f0_15" transform="matrix(11,0,0,11,243.8,404.4)" />
<use xlink:href="#f0_b" transform="matrix(11,0,0,11,252.2,404.4)" />
<use xlink:href="#f0_r" transform="matrix(11,0,0,11,259.6,404.4)" />
<use xlink:href="#f0_d" transform="matrix(11,0,0,11,265.2,404.4)" />
<use xlink:href="#f0_l" transform="matrix(11,0,0,11,269.9,404.4)" />
<use xlink:href="#f0_h" transform="matrix(11,0,0,11,137.7,404.4)" />
<use xlink:href="#f0_j" transform="matrix(11,0,0,11,145.1,404.4)" />
<use xlink:href="#f0_k" transform="matrix(11,0,0,11,149.7,404.4)" />
<use xlink:href="#f0_l" transform="matrix(11,0,0,11,154.4,404.4)" />
<use xlink:href="#f0_j" transform="matrix(11,0,0,11,161.9,404.4)" />
<use xlink:href="#f0_j" transform="matrix(11,0,0,11,166.5,404.4)" />
<use xlink:href="#f0_b" transform="matrix(11,0,0,11,171.2,404.4)" />
<use xlink:href="#f0_k" transform="matrix(11,0,0,11,178.7,404.4)" />
<use xlink:href="#f0_m" transform="matrix(11,0,0,11,183.4,404.4)" />
<use xlink:href="#f0_n" transform="matrix(11,0,0,11,195.4,404.4)" />
<use xlink:href="#f0_o" transform="matrix(11,0,0,11,203.8,404.4)" />
<use xlink:href="#f0_b" transform="matrix(11,0,0,11,698.5,424.6)" />
<use xlink:href="#f0_c" transform="matrix(11,0,0,11,706,424.6)" />
<use xlink:href="#f0_y" transform="matrix(11,0,0,11,714.4,424.6)" />
<use xlink:href="#f0_n" transform="matrix(11,0,0,11,722.8,424.6)" />
<use xlink:href="#f0_b" transform="matrix(11,0,0,11,731.2,424.6)" />
<use xlink:href="#f0_a" transform="matrix(11,0,0,11,738.6,424.6)" />
<use xlink:href="#f0_9" transform="matrix(11,0,0,11,751.8,424.6)" />
<use xlink:href="#f0_q" transform="matrix(11,0,0,11,760,424.6)" />
<use xlink:href="#f0_6" transform="matrix(11,0,0,11,611.9,424.6)" />
<use xlink:href="#f0_7" transform="matrix(11,0,0,11,620.3,424.6)" />
<use xlink:href="#f0_b" transform="matrix(11,0,0,11,625,424.6)" />
<use xlink:href="#f0_19" transform="matrix(11,0,0,11,632.3,424.6)" />
<use xlink:href="#f0_b" transform="matrix(11,0,0,11,637,424.6)" />
<use xlink:href="#f0_a" transform="matrix(11,0,0,11,644.5,424.6)" />
<use xlink:href="#f0_9" transform="matrix(11,0,0,11,657.6,424.6)" />
<use xlink:href="#f0_q" transform="matrix(11,0,0,11,666,424.6)" />
<use xlink:href="#f0_8" transform="matrix(11,0,0,11,525.3,424.6)" />
<use xlink:href="#f0_b" transform="matrix(11,0,0,11,532.7,424.6)" />
<use xlink:href="#f0_p" transform="matrix(11,0,0,11,540.2,424.6)" />
<use xlink:href="#f0_q" transform="matrix(11,0,0,11,548.6,424.6)" />
<use xlink:href="#f0_b" transform="matrix(11,0,0,11,555.1,424.6)" />
<use xlink:href="#f0_a" transform="matrix(11,0,0,11,562.5,424.6)" />
<use xlink:href="#f0_9" transform="matrix(11,0,0,11,575.6,424.6)" />
<use xlink:href="#f0_q" transform="matrix(11,0,0,11,584,424.6)" />
<use xlink:href="#f0_8" transform="matrix(11,0,0,11,438.6,424.6)" />
<use xlink:href="#f0_9" transform="matrix(11,0,0,11,446.1,424.6)" />
<use xlink:href="#f0_r" transform="matrix(11,0,0,11,454.5,424.6)" />
<use xlink:href="#f0_r" transform="matrix(11,0,0,11,460,424.6)" />
<use xlink:href="#f0_l" transform="matrix(11,0,0,11,465.6,424.6)" />
<use xlink:href="#f0_a" transform="matrix(11,0,0,11,473.1,424.6)" />
<use xlink:href="#f0_9" transform="matrix(11,0,0,11,486.2,424.6)" />
<use xlink:href="#f0_q" transform="matrix(11,0,0,11,494.6,424.6)" />
<use xlink:href="#f0_8" transform="matrix(11,0,0,11,352,424.6)" />
<use xlink:href="#f0_y" transform="matrix(11,0,0,11,359.5,424.6)" />
<use xlink:href="#f0_10" transform="matrix(11,0,0,11,367.9,424.6)" />
<use xlink:href="#f0_r" transform="matrix(11,0,0,11,376.3,424.6)" />
<use xlink:href="#f0_7" transform="matrix(11,0,0,11,381.8,424.6)" />
<use xlink:href="#f0_a" transform="matrix(11,0,0,11,386.5,424.6)" />
<use xlink:href="#f0_9" transform="matrix(11,0,0,11,399.6,424.6)" />
<use xlink:href="#f0_q" transform="matrix(11,0,0,11,408,424.6)" />
<use xlink:href="#f0_15" transform="matrix(11,0,0,11,243.8,424.6)" />
<use xlink:href="#f0_b" transform="matrix(11,0,0,11,252.2,424.6)" />
<use xlink:href="#f0_r" transform="matrix(11,0,0,11,259.6,424.6)" />
<use xlink:href="#f0_d" transform="matrix(11,0,0,11,265.2,424.6)" />
<use xlink:href="#f0_7" transform="matrix(11,0,0,11,269.8,424.6)" />
<use xlink:href="#f0_a" transform="matrix(11,0,0,11,274.5,424.6)" />
<use xlink:href="#f0_9" transform="matrix(11,0,0,11,287.6,424.6)" />
<use xlink:href="#f0_q" transform="matrix(11,0,0,11,296,424.6)" />
<use xlink:href="#f0_p" transform="matrix(11,0,0,11,137.7,424.6)" />
<use xlink:href="#f0_9" transform="matrix(11,0,0,11,146.1,424.6)" />
<use xlink:href="#f0_q" transform="matrix(11,0,0,11,154.5,424.6)" />
<use xlink:href="#f0_9" transform="matrix(11,0,0,11,161,424.6)" />
<use xlink:href="#f0_d" transform="matrix(11,0,0,11,169.4,424.6)" />
<use xlink:href="#f0_r" transform="matrix(11,0,0,11,174,424.6)" />
<use xlink:href="#f0_9" transform="matrix(11,0,0,11,179.6,424.6)" />
<use xlink:href="#f0_q" transform="matrix(11,0,0,11,188,424.6)" />
<use xlink:href="#f0_k" transform="matrix(11,0,0,11,194.6,424.6)" />
<use xlink:href="#f0_b" transform="matrix(11,0,0,11,199.3,424.6)" />
<use xlink:href="#f0_q" transform="matrix(11,0,0,11,206.6,424.6)" />
<use xlink:href="#f0_b" transform="matrix(11,0,0,11,698.5,444.6)" />
<use xlink:href="#f0_c" transform="matrix(11,0,0,11,706,444.6)" />
<use xlink:href="#f0_y" transform="matrix(11,0,0,11,714.4,444.6)" />
<use xlink:href="#f0_n" transform="matrix(11,0,0,11,722.8,444.6)" />
<use xlink:href="#f0_b" transform="matrix(11,0,0,11,731.2,444.6)" />
<use xlink:href="#f0_p" transform="matrix(11,0,0,11,738.6,444.6)" />
<use xlink:href="#f0_6" transform="matrix(11,0,0,11,611.9,444.6)" />
<use xlink:href="#f0_7" transform="matrix(11,0,0,11,620.3,444.6)" />
<use xlink:href="#f0_b" transform="matrix(11,0,0,11,625,444.6)" />
<use xlink:href="#f0_19" transform="matrix(11,0,0,11,632.3,444.6)" />
<use xlink:href="#f0_b" transform="matrix(11,0,0,11,637,444.6)" />
<use xlink:href="#f0_p" transform="matrix(11,0,0,11,644.5,444.6)" />
<use xlink:href="#f0_8" transform="matrix(11,0,0,11,525.3,444.6)" />
<use xlink:href="#f0_b" transform="matrix(11,0,0,11,532.7,444.6)" />
<use xlink:href="#f0_p" transform="matrix(11,0,0,11,540.2,444.6)" />
<use xlink:href="#f0_q" transform="matrix(11,0,0,11,548.6,444.6)" />
<use xlink:href="#f0_b" transform="matrix(11,0,0,11,555.1,444.6)" />
<use xlink:href="#f0_p" transform="matrix(11,0,0,11,562.6,444.6)" />
<use xlink:href="#f0_8" transform="matrix(11,0,0,11,438.6,444.6)" />
<use xlink:href="#f0_9" transform="matrix(11,0,0,11,446.1,444.6)" />
<use xlink:href="#f0_r" transform="matrix(11,0,0,11,454.5,444.6)" />
<use xlink:href="#f0_r" transform="matrix(11,0,0,11,460,444.6)" />
<use xlink:href="#f0_l" transform="matrix(11,0,0,11,465.6,444.6)" />
<use xlink:href="#f0_p" transform="matrix(11,0,0,11,473.1,444.6)" />
<use xlink:href="#f0_8" transform="matrix(11,0,0,11,352,444.6)" />
<use xlink:href="#f0_y" transform="matrix(11,0,0,11,359.5,444.6)" />
<use xlink:href="#f0_10" transform="matrix(11,0,0,11,367.9,444.6)" />
<use xlink:href="#f0_r" transform="matrix(11,0,0,11,376.3,444.6)" />
<use xlink:href="#f0_l" transform="matrix(11,0,0,11,381.9,444.6)" />
<use xlink:href="#f0_p" transform="matrix(11,0,0,11,389.4,444.6)" />
<use xlink:href="#f0_15" transform="matrix(11,0,0,11,243.8,444.6)" />
<use xlink:href="#f0_b" transform="matrix(11,0,0,11,252.2,444.6)" />
<use xlink:href="#f0_r" transform="matrix(11,0,0,11,259.6,444.6)" />
<use xlink:href="#f0_d" transform="matrix(11,0,0,11,265.2,444.6)" />
<use xlink:href="#f0_l" transform="matrix(11,0,0,11,269.9,444.6)" />
<use xlink:href="#f0_p" transform="matrix(11,0,0,11,277.4,444.6)" />
<use xlink:href="#f0_l" transform="matrix(11,0,0,11,137.7,444.6)" />
<use xlink:href="#f0_j" transform="matrix(11,0,0,11,145.1,444.6)" />
<use xlink:href="#f0_j" transform="matrix(11,0,0,11,149.7,444.6)" />
<use xlink:href="#f0_9" transform="matrix(11,0,0,11,154.4,444.6)" />
<use xlink:href="#f0_q" transform="matrix(11,0,0,11,162.8,444.6)" />
<use xlink:href="#f0_k" transform="matrix(11,0,0,11,169.4,444.6)" />
<use xlink:href="#f0_b" transform="matrix(11,0,0,11,174.1,444.6)" />
<use xlink:href="#f0_q" transform="matrix(11,0,0,11,181.4,444.6)" />
<use xlink:href="#f0_k" transform="matrix(11,0,0,11,188,444.6)" />
<use xlink:href="#f0_m" transform="matrix(11,0,0,11,192.7,444.6)" />
<use xlink:href="#f0_n" transform="matrix(11,0,0,11,204.8,444.6)" />
<use xlink:href="#f0_q" transform="matrix(11,0,0,11,213.2,444.6)" />
<use xlink:href="#f0_o" transform="matrix(11,0,0,11,219.7,444.6)" />
</g>
<g fill="#0000FF" >
<use xlink:href="#f1_c" transform="matrix(12,0,0,12,669.9,466.1)" />
<use xlink:href="#f1_5" transform="matrix(12,0,0,12,682.9,466.1)" />
<use xlink:href="#f1_d" transform="matrix(12,0,0,12,693.1,466.1)" />
<use xlink:href="#f1_7" transform="matrix(12,0,0,12,704.6,466.1)" />
<use xlink:href="#f1_6" transform="matrix(12,0,0,12,720.9,466.1)" />
<use xlink:href="#f1_5" transform="matrix(12,0,0,12,732.8,466.1)" />
<use xlink:href="#f1_b" transform="matrix(12,0,0,12,743.2,466.1)" />
<use xlink:href="#f1_f" transform="matrix(12,0,0,12,749.6,466.1)" />
<use xlink:href="#f1_2" transform="matrix(12,0,0,12,761.5,466.1)" />
</g>
</g>
<path d="M669.8,468H772.1" class="g2_23" />
<g clip-path="url(#c0_23)">
<g fill="#000000" >
<use xlink:href="#f2_b" transform="matrix(12,0,0,12,723.8,529.4)" />
<use xlink:href="#f2_h" transform="matrix(12,0,0,12,735,529.4)" />
<use xlink:href="#f2_f" transform="matrix(12,0,0,12,740.3,529.4)" />
<use xlink:href="#f2_4" transform="matrix(12,0,0,12,748.6,529.4)" />
<use xlink:href="#f2_7" transform="matrix(12,0,0,12,759.6,529.4)" />
<use xlink:href="#f2_m" transform="matrix(12,0,0,12,691.8,529.4)" />
<use xlink:href="#f2_t" transform="matrix(12,0,0,12,704.5,529.4)" />
</g>
</g>
<path d="M128.6,534H490.5M128.6,555.3H490.5M128.6,576.5H490.5M128.6,597.7H490.5M128.6,619H490.5M128.6,640.2H490.5M128.6,661.5H490.5M128.6,699.2H490.5M128.6,720.4H490.5M128.6,741.7H490.5M128.6,762.9H490.5M128.6,784.1H490.5M128.6,805.4H490.5M128.6,826.6H490.5M128.6,847.8H490.5M128.6,869.1H490.5M128.6,890.3H490.5M128.6,911.5H490.5M128.6,932.8H490.5M128.6,954H490.5M128.6,975.3H490.5M128.9,533.7V975.6M248,533.7V975.6M378,533.7V975.6M490.1,533.7V975.6" class="g1_23" />
<g clip-path="url(#c0_23)">
<g fill="#000000" >
<use xlink:href="#f3_y" transform="matrix(10.5,0,0,10.5,386.7,549.4)" />
<use xlink:href="#f3_5" transform="matrix(10.5,0,0,10.5,391.1,549.4)" />
<use xlink:href="#f3_8" transform="matrix(10.5,0,0,10.5,397.3,549.4)" />
<use xlink:href="#f3_4" transform="matrix(10.5,0,0,10.5,405.4,549.4)" />
<use xlink:href="#f3_6" transform="matrix(10.5,0,0,10.5,409.7,549.4)" />
<use xlink:href="#f3_7" transform="matrix(10.5,0,0,10.5,417.8,549.4)" />
<use xlink:href="#f3_y" transform="matrix(10.5,0,0,10.5,256.8,549.4)" />
<use xlink:href="#f3_5" transform="matrix(10.5,0,0,10.5,261.2,549.4)" />
<use xlink:href="#f3_8" transform="matrix(10.5,0,0,10.5,267.4,549.4)" />
<use xlink:href="#f3_4" transform="matrix(10.5,0,0,10.5,275.4,549.4)" />
<use xlink:href="#f3_6" transform="matrix(10.5,0,0,10.5,279.9,549.4)" />
<use xlink:href="#f4_5" transform="matrix(11.5,0,0,11.5,215.1,550.8)" />
<use xlink:href="#f4_g" transform="matrix(11.5,0,0,11.5,218.9,550.8)" />
<use xlink:href="#f4_h" transform="matrix(11.5,0,0,11.5,228.8,550.8)" />
<use xlink:href="#f0_j" transform="matrix(10.5,0,0,10.5,386.7,570.6)" />
<use xlink:href="#f0_j" transform="matrix(10.5,0,0,10.5,391.1,570.6)" />
<use xlink:href="#f0_b" transform="matrix(10.5,0,0,10.5,395.5,570.6)" />
<use xlink:href="#f0_a" transform="matrix(10.5,0,0,10.5,402.7,570.6)" />
<use xlink:href="#f0_b" transform="matrix(10.5,0,0,10.5,415.1,570.6)" />
<use xlink:href="#f0_n" transform="matrix(10.5,0,0,10.5,422.2,570.6)" />
<use xlink:href="#f0_b" transform="matrix(10.5,0,0,10.5,430.3,570.6)" />
<use xlink:href="#f0_q" transform="matrix(10.5,0,0,10.5,437.4,570.6)" />
<use xlink:href="#f0_j" transform="matrix(10.5,0,0,10.5,256.8,570.6)" />
<use xlink:href="#f0_j" transform="matrix(10.5,0,0,10.5,261.2,570.6)" />
<use xlink:href="#f0_b" transform="matrix(10.5,0,0,10.5,265.7,570.6)" />
<use xlink:href="#f0_a" transform="matrix(10.5,0,0,10.5,272.7,570.6)" />
<use xlink:href="#f0_b" transform="matrix(10.5,0,0,10.5,285.2,570.6)" />
<use xlink:href="#f0_n" transform="matrix(10.5,0,0,10.5,292.2,570.6)" />
<use xlink:href="#f0_b" transform="matrix(10.5,0,0,10.5,300.3,570.6)" />
<use xlink:href="#f1_6" transform="matrix(11.5,0,0,11.5,200.6,572)" />
<use xlink:href="#f1_f" transform="matrix(11.5,0,0,11.5,212.1,572)" />
<use xlink:href="#f1_3" transform="matrix(11.5,0,0,11.5,223.5,572)" />
<use xlink:href="#f1_n" transform="matrix(11.5,0,0,11.5,227.5,572)" />
<use xlink:href="#f0_l" transform="matrix(10.5,0,0,10.5,386.7,591.9)" />
<use xlink:href="#f0_q" transform="matrix(10.5,0,0,10.5,393.9,591.9)" />
<use xlink:href="#f0_8" transform="matrix(10.5,0,0,10.5,400,591.9)" />
<use xlink:href="#f0_y" transform="matrix(10.5,0,0,10.5,407.1,591.9)" />
<use xlink:href="#f0_l" transform="matrix(10.5,0,0,10.5,415.1,591.9)" />
<use xlink:href="#f0_j" transform="matrix(10.5,0,0,10.5,422.2,591.9)" />
<use xlink:href="#f0_b" transform="matrix(10.5,0,0,10.5,426.7,591.9)" />
<use xlink:href="#f0_l" transform="matrix(10.5,0,0,10.5,256.8,591.9)" />
<use xlink:href="#f0_q" transform="matrix(10.5,0,0,10.5,263.8,591.9)" />
<use xlink:href="#f0_8" transform="matrix(10.5,0,0,10.5,270.1,591.9)" />
<use xlink:href="#f0_y" transform="matrix(10.5,0,0,10.5,277.1,591.9)" />
<use xlink:href="#f0_l" transform="matrix(10.5,0,0,10.5,285.2,591.9)" />
<use xlink:href="#f0_j" transform="matrix(10.5,0,0,10.5,292.4,591.9)" />
<use xlink:href="#f0_b" transform="matrix(10.5,0,0,10.5,296.8,591.9)" />
<use xlink:href="#f0_q" transform="matrix(10.5,0,0,10.5,303.8,591.9)" />
<use xlink:href="#f1_5" transform="matrix(11.5,0,0,11.5,176.3,593.2)" />
<use xlink:href="#f1_d" transform="matrix(11.5,0,0,11.5,186.2,593.2)" />
<use xlink:href="#f1_i" transform="matrix(11.5,0,0,11.5,197.2,593.2)" />
<use xlink:href="#f1_a" transform="matrix(11.5,0,0,11.5,214.1,593.2)" />
<use xlink:href="#f1_3" transform="matrix(11.5,0,0,11.5,225.7,593.2)" />
<use xlink:href="#f1_2" transform="matrix(11.5,0,0,11.5,229.7,593.2)" />
<use xlink:href="#f0_6" transform="matrix(10.5,0,0,10.5,386.7,613.1)" />
<use xlink:href="#f0_l" transform="matrix(10.5,0,0,10.5,394.8,613.1)" />
<use xlink:href="#f0_8" transform="matrix(10.5,0,0,10.5,401.8,613.1)" />
<use xlink:href="#f0_l" transform="matrix(10.5,0,0,10.5,409,613.1)" />
<use xlink:href="#f0_q" transform="matrix(10.5,0,0,10.5,416,613.1)" />
<use xlink:href="#f0_6" transform="matrix(10.5,0,0,10.5,256.8,613.1)" />
<use xlink:href="#f0_l" transform="matrix(10.5,0,0,10.5,264.8,613.1)" />
<use xlink:href="#f0_1r" transform="matrix(10.5,0,0,10.5,271.9,613.1)" />
<use xlink:href="#f1_j" transform="matrix(11.5,0,0,11.5,206.3,614.5)" />
<use xlink:href="#f1_k" transform="matrix(11.5,0,0,11.5,217.9,614.5)" />
<use xlink:href="#f1_d" transform="matrix(11.5,0,0,11.5,228.8,614.5)" />
<use xlink:href="#f0_j" transform="matrix(10.5,0,0,10.5,386.7,634.3)" />
<use xlink:href="#f0_y" transform="matrix(10.5,0,0,10.5,391.1,634.3)" />
<use xlink:href="#f0_1r" transform="matrix(10.5,0,0,10.5,399.2,634.3)" />
<use xlink:href="#f0_j" transform="matrix(10.5,0,0,10.5,256.8,634.3)" />
<use xlink:href="#f0_y" transform="matrix(10.5,0,0,10.5,261.1,634.3)" />
<use xlink:href="#f0_8" transform="matrix(10.5,0,0,10.5,269.2,634.3)" />
<use xlink:href="#f0_l" transform="matrix(10.5,0,0,10.5,276.4,634.3)" />
<use xlink:href="#f0_q" transform="matrix(10.5,0,0,10.5,283.4,634.3)" />
<use xlink:href="#f1_5" transform="matrix(11.5,0,0,11.5,213.4,635.7)" />
<use xlink:href="#f1_9" transform="matrix(11.5,0,0,11.5,223.3,635.7)" />
<use xlink:href="#f1_e" transform="matrix(11.5,0,0,11.5,228.1,635.7)" />
<use xlink:href="#f0_15" transform="matrix(10.5,0,0,10.5,386.7,655.6)" />
<use xlink:href="#f0_b" transform="matrix(10.5,0,0,10.5,394.8,655.6)" />
<use xlink:href="#f0_15" transform="matrix(10.5,0,0,10.5,401.8,655.6)" />
<use xlink:href="#f0_l" transform="matrix(10.5,0,0,10.5,409.9,655.6)" />
<use xlink:href="#f0_j" transform="matrix(10.5,0,0,10.5,417,655.6)" />
<use xlink:href="#f0_15" transform="matrix(10.5,0,0,10.5,256.8,655.6)" />
<use xlink:href="#f0_b" transform="matrix(10.5,0,0,10.5,264.8,655.6)" />
<use xlink:href="#f0_15" transform="matrix(10.5,0,0,10.5,271.9,655.6)" />
<use xlink:href="#f0_l" transform="matrix(10.5,0,0,10.5,279.9,655.6)" />
<use xlink:href="#f0_j" transform="matrix(10.5,0,0,10.5,287,655.6)" />
<use xlink:href="#f0_l" transform="matrix(10.5,0,0,10.5,291.5,655.6)" />
<use xlink:href="#f0_q" transform="matrix(10.5,0,0,10.5,298.6,655.6)" />
<use xlink:href="#f1_5" transform="matrix(11.5,0,0,11.5,215.1,656.9)" />
<use xlink:href="#f1_3" transform="matrix(11.5,0,0,11.5,225,656.9)" />
<use xlink:href="#f1_3" transform="matrix(11.5,0,0,11.5,228.8,656.9)" />
<use xlink:href="#f1_l" transform="matrix(11.5,0,0,11.5,232.8,656.9)" />
<use xlink:href="#f0_15" transform="matrix(10.5,0,0,10.5,386.7,676.8)" />
<use xlink:href="#f0_b" transform="matrix(10.5,0,0,10.5,394.8,676.8)" />
<use xlink:href="#f0_15" transform="matrix(10.5,0,0,10.5,401.8,676.8)" />
<use xlink:href="#f0_l" transform="matrix(10.5,0,0,10.5,409.9,676.8)" />
<use xlink:href="#f0_j" transform="matrix(10.5,0,0,10.5,417,676.8)" />
<use xlink:href="#f0_14" transform="matrix(10.5,0,0,10.5,386.7,695.3)" />
<use xlink:href="#f0_7" transform="matrix(10.5,0,0,10.5,394.8,695.3)" />
<use xlink:href="#f0_1k" transform="matrix(10.5,0,0,10.5,399,695.3)" />
<use xlink:href="#f0_7" transform="matrix(10.5,0,0,10.5,407.1,695.3)" />
<use xlink:href="#f0_h" transform="matrix(10.5,0,0,10.5,411.6,695.3)" />
<use xlink:href="#f0_p" transform="matrix(10.5,0,0,10.5,418.7,695.3)" />
<use xlink:href="#f0_7" transform="matrix(10.5,0,0,10.5,426.8,695.3)" />
<use xlink:href="#f0_8" transform="matrix(10.5,0,0,10.5,431.1,695.3)" />
<use xlink:href="#f0_9" transform="matrix(10.5,0,0,10.5,438.3,695.3)" />
<use xlink:href="#f0_15" transform="matrix(10.5,0,0,10.5,256.8,676.8)" />
<use xlink:href="#f0_b" transform="matrix(10.5,0,0,10.5,264.8,676.8)" />
<use xlink:href="#f0_15" transform="matrix(10.5,0,0,10.5,271.9,676.8)" />
<use xlink:href="#f0_l" transform="matrix(10.5,0,0,10.5,279.9,676.8)" />
<use xlink:href="#f0_j" transform="matrix(10.5,0,0,10.5,287,676.8)" />
<use xlink:href="#f0_l" transform="matrix(10.5,0,0,10.5,291.5,676.8)" />
<use xlink:href="#f0_q" transform="matrix(10.5,0,0,10.5,298.6,676.8)" />
<use xlink:href="#f0_14" transform="matrix(10.5,0,0,10.5,256.8,695.3)" />
<use xlink:href="#f0_7" transform="matrix(10.5,0,0,10.5,264.8,695.3)" />
<use xlink:href="#f0_1k" transform="matrix(10.5,0,0,10.5,269.2,695.3)" />
<use xlink:href="#f0_7" transform="matrix(10.5,0,0,10.5,277.3,695.3)" />
<use xlink:href="#f0_h" transform="matrix(10.5,0,0,10.5,281.7,695.3)" />
<use xlink:href="#f0_p" transform="matrix(10.5,0,0,10.5,288.7,695.3)" />
<use xlink:href="#f0_7" transform="matrix(10.5,0,0,10.5,296.8,695.3)" />
<use xlink:href="#f0_8" transform="matrix(10.5,0,0,10.5,301.2,695.3)" />
<use xlink:href="#f0_9" transform="matrix(10.5,0,0,10.5,308.3,695.3)" />
<use xlink:href="#f0_q" transform="matrix(10.5,0,0,10.5,316.4,695.3)" />
<use xlink:href="#f1_p" transform="matrix(11.5,0,0,11.5,160.1,678.2)" />
<use xlink:href="#f1_7" transform="matrix(11.5,0,0,11.5,171.5,678.2)" />
<use xlink:href="#f1_e" transform="matrix(11.5,0,0,11.5,181.5,678.2)" />
<use xlink:href="#f1_9" transform="matrix(11.5,0,0,11.5,193.2,678.2)" />
<use xlink:href="#f1_p" transform="matrix(11.5,0,0,11.5,198,678.2)" />
<use xlink:href="#f1_5" transform="matrix(11.5,0,0,11.5,215.1,678.2)" />
<use xlink:href="#f1_3" transform="matrix(11.5,0,0,11.5,225,678.2)" />
<use xlink:href="#f1_3" transform="matrix(11.5,0,0,11.5,228.8,678.2)" />
<use xlink:href="#f1_l" transform="matrix(11.5,0,0,11.5,232.7,678.2)" />
<use xlink:href="#f0_15" transform="matrix(10.5,0,0,10.5,386.7,714.5)" />
<use xlink:href="#f0_u" transform="matrix(10.5,0,0,10.5,394.8,714.5)" />
<use xlink:href="#f0_19" transform="matrix(10.5,0,0,10.5,401.9,714.5)" />
<use xlink:href="#f0_b" transform="matrix(10.5,0,0,10.5,406.2,714.5)" />
<use xlink:href="#f0_r" transform="matrix(10.5,0,0,10.5,413.4,714.5)" />
<use xlink:href="#f0_9" transform="matrix(10.5,0,0,10.5,418.7,714.5)" />
<use xlink:href="#f0_15" transform="matrix(10.5,0,0,10.5,256.8,714.5)" />
<use xlink:href="#f0_u" transform="matrix(10.5,0,0,10.5,264.8,714.5)" />
<use xlink:href="#f0_19" transform="matrix(10.5,0,0,10.5,271.9,714.5)" />
<use xlink:href="#f0_b" transform="matrix(10.5,0,0,10.5,276.4,714.5)" />
<use xlink:href="#f0_r" transform="matrix(10.5,0,0,10.5,283.5,714.5)" />
<use xlink:href="#f0_9" transform="matrix(10.5,0,0,10.5,288.7,714.5)" />
<use xlink:href="#f0_q" transform="matrix(10.5,0,0,10.5,296.8,714.5)" />
<use xlink:href="#f1_5" transform="matrix(11.5,0,0,11.5,199.8,715.9)" />
<use xlink:href="#f1_9" transform="matrix(11.5,0,0,11.5,209.7,715.9)" />
<use xlink:href="#f1_d" transform="matrix(11.5,0,0,11.5,214.5,715.9)" />
<use xlink:href="#f1_3" transform="matrix(11.5,0,0,11.5,225.5,715.9)" />
<use xlink:href="#f1_q" transform="matrix(11.5,0,0,11.5,229.4,715.9)" />
<use xlink:href="#f0_u" transform="matrix(10.5,0,0,10.5,386.7,735.8)" />
<use xlink:href="#f0_r" transform="matrix(10.5,0,0,10.5,393.9,735.8)" />
<use xlink:href="#f0_10" transform="matrix(10.5,0,0,10.5,399,735.8)" />
<use xlink:href="#f0_9" transform="matrix(10.5,0,0,10.5,407.1,735.8)" />
<use xlink:href="#f0_j" transform="matrix(10.5,0,0,10.5,415.2,735.8)" />
<use xlink:href="#f0_b" transform="matrix(10.5,0,0,10.5,256.8,735.8)" />
<use xlink:href="#f0_r" transform="matrix(10.5,0,0,10.5,263.8,735.8)" />
<use xlink:href="#f0_10" transform="matrix(10.5,0,0,10.5,269.2,735.8)" />
<use xlink:href="#f0_9" transform="matrix(10.5,0,0,10.5,277.1,735.8)" />
<use xlink:href="#f0_j" transform="matrix(10.5,0,0,10.5,285.2,735.8)" />
<use xlink:href="#f0_l" transform="matrix(10.5,0,0,10.5,289.6,735.8)" />
<use xlink:href="#f0_q" transform="matrix(10.5,0,0,10.5,296.8,735.8)" />
<use xlink:href="#f1_19" transform="matrix(11.5,0,0,11.5,219.4,737.2)" />
<use xlink:href="#f1_k" transform="matrix(11.5,0,0,11.5,228.9,737.2)" />
<use xlink:href="#f0_13" transform="matrix(10.5,0,0,10.5,386.7,757)" />
<use xlink:href="#f0_j" transform="matrix(10.5,0,0,10.5,392,757)" />
<use xlink:href="#f0_9" transform="matrix(10.5,0,0,10.5,396.4,757)" />
<use xlink:href="#f0_r" transform="matrix(10.5,0,0,10.5,404.5,757)" />
<use xlink:href="#f0_13" transform="matrix(10.5,0,0,10.5,256.8,757)" />
<use xlink:href="#f0_j" transform="matrix(10.5,0,0,10.5,262.2,757)" />
<use xlink:href="#f0_9" transform="matrix(10.5,0,0,10.5,266.4,757)" />
<use xlink:href="#f0_r" transform="matrix(10.5,0,0,10.5,274.5,757)" />
<use xlink:href="#f0_l" transform="matrix(10.5,0,0,10.5,279.9,757)" />
<use xlink:href="#f0_q" transform="matrix(10.5,0,0,10.5,287,757)" />
<use xlink:href="#f1_f" transform="matrix(11.5,0,0,11.5,207.5,758.4)" />
<use xlink:href="#f1_5" transform="matrix(11.5,0,0,11.5,218.9,758.4)" />
<use xlink:href="#f1_d" transform="matrix(11.5,0,0,11.5,228.8,758.4)" />
<use xlink:href="#f0_8" transform="matrix(10.5,0,0,10.5,386.7,778.3)" />
<use xlink:href="#f0_9" transform="matrix(10.5,0,0,10.5,393.9,778.3)" />
<use xlink:href="#f0_8" transform="matrix(10.5,0,0,10.5,401.8,778.3)" />
<use xlink:href="#f0_7" transform="matrix(10.5,0,0,10.5,409,778.3)" />
<use xlink:href="#f0_p" transform="matrix(10.5,0,0,10.5,413.4,778.3)" />
<use xlink:href="#f0_b" transform="matrix(10.5,0,0,10.5,421.3,778.3)" />
<use xlink:href="#f0_8" transform="matrix(10.5,0,0,10.5,256.8,778.3)" />
<use xlink:href="#f0_9" transform="matrix(10.5,0,0,10.5,263.8,778.3)" />
<use xlink:href="#f0_8" transform="matrix(10.5,0,0,10.5,271.9,778.3)" />
<use xlink:href="#f0_7" transform="matrix(10.5,0,0,10.5,279.1,778.3)" />
<use xlink:href="#f0_p" transform="matrix(10.5,0,0,10.5,283.4,778.3)" />
<use xlink:href="#f0_b" transform="matrix(10.5,0,0,10.5,291.5,778.3)" />
<use xlink:href="#f0_q" transform="matrix(10.5,0,0,10.5,298.6,778.3)" />
<use xlink:href="#f1_f" transform="matrix(11.5,0,0,11.5,195.1,779.6)" />
<use xlink:href="#f1_2" transform="matrix(11.5,0,0,11.5,206.6,779.6)" />
<use xlink:href="#f1_p" transform="matrix(11.5,0,0,11.5,216.6,779.6)" />
<use xlink:href="#f1_m" transform="matrix(11.5,0,0,11.5,227.9,779.6)" />
<use xlink:href="#f0_14" transform="matrix(10.5,0,0,10.5,386.7,799.5)" />
<use xlink:href="#f0_l" transform="matrix(10.5,0,0,10.5,394.8,799.5)" />
<use xlink:href="#f0_j" transform="matrix(10.5,0,0,10.5,401.9,799.5)" />
<use xlink:href="#f0_b" transform="matrix(10.5,0,0,10.5,406.2,799.5)" />
<use xlink:href="#f0_n" transform="matrix(10.5,0,0,10.5,413.4,799.5)" />
<use xlink:href="#f0_l" transform="matrix(10.5,0,0,10.5,421.3,799.5)" />
<use xlink:href="#f0_r" transform="matrix(10.5,0,0,10.5,428.5,799.5)" />
<use xlink:href="#f0_s" transform="matrix(10.5,0,0,10.5,433.8,799.5)" />
<use xlink:href="#f0_b" transform="matrix(10.5,0,0,10.5,438.3,799.5)" />
<use xlink:href="#f0_14" transform="matrix(10.5,0,0,10.5,256.8,799.5)" />
<use xlink:href="#f0_l" transform="matrix(10.5,0,0,10.5,264.8,799.5)" />
<use xlink:href="#f0_j" transform="matrix(10.5,0,0,10.5,271.9,799.5)" />
<use xlink:href="#f0_b" transform="matrix(10.5,0,0,10.5,276.4,799.5)" />
<use xlink:href="#f0_n" transform="matrix(10.5,0,0,10.5,283.4,799.5)" />
<use xlink:href="#f0_l" transform="matrix(10.5,0,0,10.5,291.5,799.5)" />
<use xlink:href="#f0_r" transform="matrix(10.5,0,0,10.5,298.6,799.5)" />
<use xlink:href="#f0_s" transform="matrix(10.5,0,0,10.5,304,799.5)" />
<use xlink:href="#f0_b" transform="matrix(10.5,0,0,10.5,308.3,799.5)" />
<use xlink:href="#f0_q" transform="matrix(10.5,0,0,10.5,315.4,799.5)" />
<use xlink:href="#f1_6" transform="matrix(11.5,0,0,11.5,183.8,800.9)" />
<use xlink:href="#f1_3" transform="matrix(11.5,0,0,11.5,195.2,800.9)" />
<use xlink:href="#f1_5" transform="matrix(11.5,0,0,11.5,199.2,800.9)" />
<use xlink:href="#f1_h" transform="matrix(11.5,0,0,11.5,209.1,800.9)" />
<use xlink:href="#f1_3" transform="matrix(11.5,0,0,11.5,218.7,800.9)" />
<use xlink:href="#f1_7" transform="matrix(11.5,0,0,11.5,222.7,800.9)" />
<use xlink:href="#f1_u" transform="matrix(11.5,0,0,11.5,232.6,800.9)" />
<use xlink:href="#f0_n" transform="matrix(10.5,0,0,10.5,386.7,820.7)" />
<use xlink:href="#f0_7" transform="matrix(10.5,0,0,10.5,394.8,820.7)" />
<use xlink:href="#f0_l" transform="matrix(10.5,0,0,10.5,399.2,820.7)" />
<use xlink:href="#f0_p" transform="matrix(10.5,0,0,10.5,406.2,820.7)" />
<use xlink:href="#f0_d" transform="matrix(10.5,0,0,10.5,414.3,820.7)" />
<use xlink:href="#f0_l" transform="matrix(10.5,0,0,10.5,418.7,820.7)" />
<use xlink:href="#f0_q" transform="matrix(10.5,0,0,10.5,425.9,820.7)" />
<use xlink:href="#f0_n" transform="matrix(10.5,0,0,10.5,256.8,820.7)" />
<use xlink:href="#f0_7" transform="matrix(10.5,0,0,10.5,264.8,820.7)" />
<use xlink:href="#f0_l" transform="matrix(10.5,0,0,10.5,269.2,820.7)" />
<use xlink:href="#f0_p" transform="matrix(10.5,0,0,10.5,276.4,820.7)" />
<use xlink:href="#f0_d" transform="matrix(10.5,0,0,10.5,284.4,820.7)" />
<use xlink:href="#f0_l" transform="matrix(10.5,0,0,10.5,288.7,820.7)" />
<use xlink:href="#f1_r" transform="matrix(11.5,0,0,11.5,222.8,822.1)" />
<use xlink:href="#f1_n" transform="matrix(11.5,0,0,11.5,227.5,822.1)" />
<use xlink:href="#f0_a" transform="matrix(10.5,0,0,10.5,386.7,842)" />
<use xlink:href="#f0_b" transform="matrix(10.5,0,0,10.5,399.2,842)" />
<use xlink:href="#f0_r" transform="matrix(10.5,0,0,10.5,406.4,842)" />
<use xlink:href="#f0_7" transform="matrix(10.5,0,0,10.5,411.7,842)" />
<use xlink:href="#f0_p" transform="matrix(10.5,0,0,10.5,416,842)" />
<use xlink:href="#f0_l" transform="matrix(10.5,0,0,10.5,424.1,842)" />
<use xlink:href="#f0_r" transform="matrix(10.5,0,0,10.5,431.2,842)" />
<use xlink:href="#f0_9" transform="matrix(10.5,0,0,10.5,436.4,842)" />
<use xlink:href="#f0_q" transform="matrix(10.5,0,0,10.5,444.5,842)" />
<use xlink:href="#f0_a" transform="matrix(10.5,0,0,10.5,256.8,842)" />
<use xlink:href="#f0_b" transform="matrix(10.5,0,0,10.5,269.2,842)" />
<use xlink:href="#f0_r" transform="matrix(10.5,0,0,10.5,276.4,842)" />
<use xlink:href="#f0_7" transform="matrix(10.5,0,0,10.5,281.7,842)" />
<use xlink:href="#f0_p" transform="matrix(10.5,0,0,10.5,286.1,842)" />
<use xlink:href="#f0_l" transform="matrix(10.5,0,0,10.5,294.1,842)" />
<use xlink:href="#f0_r" transform="matrix(10.5,0,0,10.5,301.2,842)" />
<use xlink:href="#f0_9" transform="matrix(10.5,0,0,10.5,306.6,842)" />
<use xlink:href="#f1_3" transform="matrix(11.5,0,0,11.5,208.4,843.3)" />
<use xlink:href="#f1_e" transform="matrix(11.5,0,0,11.5,212.3,843.3)" />
<use xlink:href="#f1_m" transform="matrix(11.5,0,0,11.5,224,843.3)" />
<use xlink:href="#f1_3" transform="matrix(11.5,0,0,11.5,235.9,843.3)" />
<use xlink:href="#f0_8" transform="matrix(10.5,0,0,10.5,386.7,863.2)" />
<use xlink:href="#f0_b" transform="matrix(10.5,0,0,10.5,393.9,863.2)" />
<use xlink:href="#f0_r" transform="matrix(10.5,0,0,10.5,400.9,863.2)" />
<use xlink:href="#f0_p" transform="matrix(10.5,0,0,10.5,406.2,863.2)" />
<use xlink:href="#f0_l" transform="matrix(10.5,0,0,10.5,414.3,863.2)" />
<use xlink:href="#f0_8" transform="matrix(10.5,0,0,10.5,256.8,863.2)" />
<use xlink:href="#f0_b" transform="matrix(10.5,0,0,10.5,263.8,863.2)" />
<use xlink:href="#f0_r" transform="matrix(10.5,0,0,10.5,271,863.2)" />
<use xlink:href="#f0_p" transform="matrix(10.5,0,0,10.5,276.2,863.2)" />
<use xlink:href="#f0_l" transform="matrix(10.5,0,0,10.5,284.3,863.2)" />
<use xlink:href="#f0_q" transform="matrix(10.5,0,0,10.5,291.5,863.2)" />
<use xlink:href="#f1_5" transform="matrix(11.5,0,0,11.5,207.5,864.6)" />
<use xlink:href="#f1_n" transform="matrix(11.5,0,0,11.5,217.4,864.6)" />
<use xlink:href="#f1_2" transform="matrix(11.5,0,0,11.5,229.8,864.6)" />
<use xlink:href="#f0_r" transform="matrix(10.5,0,0,10.5,386.7,884.4)" />
<use xlink:href="#f0_7" transform="matrix(10.5,0,0,10.5,392,884.4)" />
<use xlink:href="#f0_p" transform="matrix(10.5,0,0,10.5,396.4,884.4)" />
<use xlink:href="#f0_8" transform="matrix(10.5,0,0,10.5,404.5,884.4)" />
<use xlink:href="#f0_1o" transform="matrix(10.5,0,0,10.5,411.6,884.4)" />
<use xlink:href="#f0_p" transform="matrix(10.5,0,0,10.5,419.6,884.4)" />
<use xlink:href="#f0_r" transform="matrix(10.5,0,0,10.5,256.8,884.4)" />
<use xlink:href="#f0_7" transform="matrix(10.5,0,0,10.5,262.2,884.4)" />
<use xlink:href="#f0_p" transform="matrix(10.5,0,0,10.5,266.4,884.4)" />
<use xlink:href="#f0_8" transform="matrix(10.5,0,0,10.5,274.5,884.4)" />
<use xlink:href="#f0_9" transform="matrix(10.5,0,0,10.5,281.7,884.4)" />
<use xlink:href="#f0_p" transform="matrix(10.5,0,0,10.5,289.6,884.4)" />
<use xlink:href="#f0_l" transform="matrix(10.5,0,0,10.5,297.7,884.4)" />
<use xlink:href="#f0_q" transform="matrix(10.5,0,0,10.5,304.8,884.4)" />
<use xlink:href="#f1_6" transform="matrix(11.5,0,0,11.5,206.6,885.8)" />
<use xlink:href="#f1_l" transform="matrix(11.5,0,0,11.5,218,885.8)" />
<use xlink:href="#f1_3" transform="matrix(11.5,0,0,11.5,225,885.8)" />
<use xlink:href="#f1_d" transform="matrix(11.5,0,0,11.5,228.9,885.8)" />
<use xlink:href="#f0_8" transform="matrix(10.5,0,0,10.5,386.7,905.7)" />
<use xlink:href="#f0_14" transform="matrix(10.5,0,0,10.5,393.9,905.7)" />
<use xlink:href="#f0_b" transform="matrix(10.5,0,0,10.5,401.8,905.7)" />
<use xlink:href="#f0_p" transform="matrix(10.5,0,0,10.5,409,905.7)" />
<use xlink:href="#f0_8" transform="matrix(10.5,0,0,10.5,416.9,905.7)" />
<use xlink:href="#f0_l" transform="matrix(10.5,0,0,10.5,424.1,905.7)" />
<use xlink:href="#f0_q" transform="matrix(10.5,0,0,10.5,431.1,905.7)" />
<use xlink:href="#f0_8" transform="matrix(10.5,0,0,10.5,256.8,905.7)" />
<use xlink:href="#f0_14" transform="matrix(10.5,0,0,10.5,263.8,905.7)" />
<use xlink:href="#f0_b" transform="matrix(10.5,0,0,10.5,271.9,905.7)" />
<use xlink:href="#f0_p" transform="matrix(10.5,0,0,10.5,279,905.7)" />
<use xlink:href="#f0_8" transform="matrix(10.5,0,0,10.5,287,905.7)" />
<use xlink:href="#f0_l" transform="matrix(10.5,0,0,10.5,294.1,905.7)" />
<use xlink:href="#f1_3" transform="matrix(11.5,0,0,11.5,206.6,907)" />
<use xlink:href="#f1_9" transform="matrix(11.5,0,0,11.5,210.5,907)" />
<use xlink:href="#f1_4" transform="matrix(11.5,0,0,11.5,215.3,907)" />
<use xlink:href="#f1_3" transform="matrix(11.5,0,0,11.5,224.5,907)" />
<use xlink:href="#f1_i" transform="matrix(11.5,0,0,11.5,228.4,907)" />
<use xlink:href="#f0_q" transform="matrix(10.5,0,0,10.5,386.7,926.9)" />
<use xlink:href="#f0_y" transform="matrix(10.5,0,0,10.5,392.9,926.9)" />
<use xlink:href="#f0_l" transform="matrix(10.5,0,0,10.5,400.9,926.9)" />
<use xlink:href="#f0_16" transform="matrix(10.5,0,0,10.5,408,926.9)" />
<use xlink:href="#f0_9" transform="matrix(10.5,0,0,10.5,416,926.9)" />
<use xlink:href="#f0_q" transform="matrix(10.5,0,0,10.5,256.8,926.9)" />
<use xlink:href="#f0_y" transform="matrix(10.5,0,0,10.5,262.9,926.9)" />
<use xlink:href="#f0_l" transform="matrix(10.5,0,0,10.5,271,926.9)" />
<use xlink:href="#f0_16" transform="matrix(10.5,0,0,10.5,278,926.9)" />
<use xlink:href="#f0_9" transform="matrix(10.5,0,0,10.5,286.1,926.9)" />
<use xlink:href="#f0_q" transform="matrix(10.5,0,0,10.5,294.2,926.9)" />
<use xlink:href="#f1_j" transform="matrix(11.5,0,0,11.5,202.1,928.3)" />
<use xlink:href="#f1_9" transform="matrix(11.5,0,0,11.5,213.7,928.3)" />
<use xlink:href="#f1_7" transform="matrix(11.5,0,0,11.5,218.5,928.3)" />
<use xlink:href="#f1_f" transform="matrix(11.5,0,0,11.5,228.4,928.3)" />
<use xlink:href="#f0_7" transform="matrix(10.5,0,0,10.5,386.7,948.1)" />
<use xlink:href="#f0_a" transform="matrix(10.5,0,0,10.5,391.1,948.1)" />
<use xlink:href="#f0_15" transform="matrix(10.5,0,0,10.5,403.6,948.1)" />
<use xlink:href="#f0_r" transform="matrix(10.5,0,0,10.5,411.7,948.1)" />
<use xlink:href="#f0_l" transform="matrix(10.5,0,0,10.5,416.9,948.1)" />
<use xlink:href="#f0_q" transform="matrix(10.5,0,0,10.5,424.1,948.1)" />
<use xlink:href="#f0_7" transform="matrix(10.5,0,0,10.5,430.3,948.1)" />
<use xlink:href="#f0_1o" transform="matrix(10.5,0,0,10.5,434.7,948.1)" />
<use xlink:href="#f0_p" transform="matrix(10.5,0,0,10.5,442.7,948.1)" />
<use xlink:href="#f0_7" transform="matrix(10.5,0,0,10.5,256.8,948.1)" />
<use xlink:href="#f0_a" transform="matrix(10.5,0,0,10.5,261.2,948.1)" />
<use xlink:href="#f0_15" transform="matrix(10.5,0,0,10.5,273.6,948.1)" />
<use xlink:href="#f0_r" transform="matrix(10.5,0,0,10.5,281.7,948.1)" />
<use xlink:href="#f0_l" transform="matrix(10.5,0,0,10.5,287,948.1)" />
<use xlink:href="#f0_q" transform="matrix(10.5,0,0,10.5,294.2,948.1)" />
<use xlink:href="#f0_7" transform="matrix(10.5,0,0,10.5,300.5,948.1)" />
<use xlink:href="#f0_9" transform="matrix(10.5,0,0,10.5,304.7,948.1)" />
<use xlink:href="#f0_p" transform="matrix(10.5,0,0,10.5,312.8,948.1)" />
<use xlink:href="#f0_l" transform="matrix(10.5,0,0,10.5,320.8,948.1)" />
<use xlink:href="#f0_q" transform="matrix(10.5,0,0,10.5,327.9,948.1)" />
<use xlink:href="#f1_j" transform="matrix(11.5,0,0,11.5,201.2,949.5)" />
<use xlink:href="#f1_n" transform="matrix(11.5,0,0,11.5,212.8,949.5)" />
<use xlink:href="#f1_9" transform="matrix(11.5,0,0,11.5,225.2,949.5)" />
<use xlink:href="#f1_5" transform="matrix(11.5,0,0,11.5,229.9,949.5)" />
<use xlink:href="#f0_r" transform="matrix(10.5,0,0,10.5,386.7,969.4)" />
<use xlink:href="#f0_b" transform="matrix(10.5,0,0,10.5,392,969.4)" />
<use xlink:href="#f0_1r" transform="matrix(10.5,0,0,10.5,399,969.4)" />
<use xlink:href="#f0_1o" transform="matrix(10.5,0,0,10.5,406.2,969.4)" />
<use xlink:href="#f0_p" transform="matrix(10.5,0,0,10.5,414.2,969.4)" />
<use xlink:href="#f0_r" transform="matrix(10.5,0,0,10.5,256.8,969.4)" />
<use xlink:href="#f0_b" transform="matrix(10.5,0,0,10.5,262,969.4)" />
<use xlink:href="#f0_1r" transform="matrix(10.5,0,0,10.5,269.2,969.4)" />
<use xlink:href="#f0_9" transform="matrix(10.5,0,0,10.5,276.2,969.4)" />
<use xlink:href="#f0_p" transform="matrix(10.5,0,0,10.5,284.3,969.4)" />
<use xlink:href="#f0_l" transform="matrix(10.5,0,0,10.5,292.4,969.4)" />
<use xlink:href="#f0_q" transform="matrix(10.5,0,0,10.5,299.4,969.4)" />
<use xlink:href="#f1_r" transform="matrix(11.5,0,0,11.5,207.8,970.8)" />
<use xlink:href="#f1_9" transform="matrix(11.5,0,0,11.5,212.5,970.8)" />
<use xlink:href="#f1_3" transform="matrix(11.5,0,0,11.5,217.3,970.8)" />
<use xlink:href="#f1_u" transform="matrix(11.5,0,0,11.5,221.2,970.8)" />
<use xlink:href="#f1_6" transform="matrix(11.5,0,0,11.5,228.4,970.8)" />
</g>
<g fill="#0000FF" >
<use xlink:href="#f1_c" transform="matrix(12,0,0,12,669.9,992.8)" />
<use xlink:href="#f1_5" transform="matrix(12,0,0,12,682.9,992.8)" />
<use xlink:href="#f1_d" transform="matrix(12,0,0,12,693.1,992.8)" />
<use xlink:href="#f1_7" transform="matrix(12,0,0,12,704.6,992.8)" />
<use xlink:href="#f1_6" transform="matrix(12,0,0,12,720.9,992.8)" />
<use xlink:href="#f1_5" transform="matrix(12,0,0,12,732.8,992.8)" />
<use xlink:href="#f1_b" transform="matrix(12,0,0,12,743.2,992.8)" />
<use xlink:href="#f1_f" transform="matrix(12,0,0,12,749.6,992.8)" />
<use xlink:href="#f1_2" transform="matrix(12,0,0,12,761.5,992.8)" />
</g>
</g>
<path d="M669.8,994.6H772.1" class="g2_23" />
<g clip-path="url(#c0_23)">
<g fill="#000000" >
<use xlink:href="#f2_b" transform="matrix(12,0,0,12,723.8,1091.4)" />
<use xlink:href="#f2_h" transform="matrix(12,0,0,12,735,1091.4)" />
<use xlink:href="#f2_f" transform="matrix(12,0,0,12,740.3,1091.4)" />
<use xlink:href="#f2_4" transform="matrix(12,0,0,12,748.6,1091.4)" />
<use xlink:href="#f2_7" transform="matrix(12,0,0,12,759.6,1091.4)" />
<use xlink:href="#f2_m" transform="matrix(12,0,0,12,691.8,1091.4)" />
<use xlink:href="#f2_v" transform="matrix(12,0,0,12,704.5,1091.4)" />
</g>
</g>
<path d="M128.6,1096.1H577m-448.4,21.2H577m-448.4,21.3H577m-448.4,21.2H577M128.9,1095.7v64.5m205.7,-64.5v64.5m130,-64.5v64.5m112,-64.5v64.5" class="g1_23" />
<g clip-path="url(#c0_23)">
<g fill="#000000" >
<use xlink:href="#f3_5" transform="matrix(10.5,0,0,10.5,473.3,1111.5)" />
<use xlink:href="#f3_c" transform="matrix(10.5,0,0,10.5,479.5,1111.5)" />
<use xlink:href="#f3_4" transform="matrix(10.5,0,0,10.5,487.6,1111.5)" />
<use xlink:href="#f3_6" transform="matrix(10.5,0,0,10.5,491.9,1111.5)" />
<use xlink:href="#f3_5" transform="matrix(10.5,0,0,10.5,343.4,1111.5)" />
<use xlink:href="#f3_c" transform="matrix(10.5,0,0,10.5,349.6,1111.5)" />
<use xlink:href="#f3_4" transform="matrix(10.5,0,0,10.5,357.6,1111.5)" />
<use xlink:href="#f3_c" transform="matrix(10.5,0,0,10.5,362.1,1111.5)" />
<use xlink:href="#f3_7" transform="matrix(10.5,0,0,10.5,370.2,1111.5)" />
<use xlink:href="#f4_g" transform="matrix(11.5,0,0,11.5,289.4,1112.8)" />
<use xlink:href="#f4_9" transform="matrix(11.5,0,0,11.5,299.3,1112.8)" />
<use xlink:href="#f4_i" transform="matrix(11.5,0,0,11.5,304,1112.8)" />
<use xlink:href="#f4_j" transform="matrix(11.5,0,0,11.5,314.1,1112.8)" />
<use xlink:href="#f0_q" transform="matrix(10.5,0,0,10.5,473.3,1132.7)" />
<use xlink:href="#f0_l" transform="matrix(10.5,0,0,10.5,479.5,1132.7)" />
<use xlink:href="#f0_8" transform="matrix(10.5,0,0,10.5,486.6,1132.7)" />
<use xlink:href="#f0_r" transform="matrix(10.5,0,0,10.5,493.7,1132.7)" />
<use xlink:href="#f0_l" transform="matrix(10.5,0,0,10.5,499.1,1132.7)" />
<use xlink:href="#f0_d" transform="matrix(10.5,0,0,10.5,506.3,1132.7)" />
<use xlink:href="#f0_b" transform="matrix(10.5,0,0,10.5,510.7,1132.7)" />
<use xlink:href="#f0_r" transform="matrix(10.5,0,0,10.5,517.9,1132.7)" />
<use xlink:href="#f0_7" transform="matrix(10.5,0,0,10.5,523.2,1132.7)" />
<use xlink:href="#f0_9" transform="matrix(10.5,0,0,10.5,527.5,1132.7)" />
<use xlink:href="#f0_q" transform="matrix(10.5,0,0,10.5,343.4,1132.7)" />
<use xlink:href="#f0_l" transform="matrix(10.5,0,0,10.5,349.6,1132.7)" />
<use xlink:href="#f0_8" transform="matrix(10.5,0,0,10.5,356.7,1132.7)" />
<use xlink:href="#f0_r" transform="matrix(10.5,0,0,10.5,363.9,1132.7)" />
<use xlink:href="#f0_l" transform="matrix(10.5,0,0,10.5,369.1,1132.7)" />
<use xlink:href="#f0_d" transform="matrix(10.5,0,0,10.5,376.3,1132.7)" />
<use xlink:href="#f0_b" transform="matrix(10.5,0,0,10.5,380.7,1132.7)" />
<use xlink:href="#f0_r" transform="matrix(10.5,0,0,10.5,387.9,1132.7)" />
<use xlink:href="#f0_7" transform="matrix(10.5,0,0,10.5,393.2,1132.7)" />
<use xlink:href="#f0_b" transform="matrix(10.5,0,0,10.5,397.6,1132.7)" />
<use xlink:href="#f0_q" transform="matrix(10.5,0,0,10.5,404.8,1132.7)" />
<use xlink:href="#f1_5" transform="matrix(11.5,0,0,11.5,285.4,1134.1)" />
<use xlink:href="#f1_3" transform="matrix(11.5,0,0,11.5,295.3,1134.1)" />
<use xlink:href="#f1_4" transform="matrix(11.5,0,0,11.5,299.1,1134.1)" />
<use xlink:href="#f1_b" transform="matrix(11.5,0,0,11.5,308.4,1134.1)" />
<use xlink:href="#f1_m" transform="matrix(11.5,0,0,11.5,314.5,1134.1)" />
<use xlink:href="#f0_a" transform="matrix(10.5,0,0,10.5,473.3,1153.9)" />
<use xlink:href="#f0_l" transform="matrix(10.5,0,0,10.5,485.8,1153.9)" />
<use xlink:href="#f0_8" transform="matrix(10.5,0,0,10.5,492.8,1153.9)" />
<use xlink:href="#f0_u" transform="matrix(10.5,0,0,10.5,500,1153.9)" />
<use xlink:href="#f0_p" transform="matrix(10.5,0,0,10.5,507,1153.9)" />
<use xlink:href="#f0_7" transform="matrix(10.5,0,0,10.5,515.1,1153.9)" />
<use xlink:href="#f0_8" transform="matrix(10.5,0,0,10.5,519.6,1153.9)" />
<use xlink:href="#f0_9" transform="matrix(10.5,0,0,10.5,526.6,1153.9)" />
<use xlink:href="#f0_a" transform="matrix(10.5,0,0,10.5,343.4,1153.9)" />
<use xlink:href="#f0_l" transform="matrix(10.5,0,0,10.5,355.8,1153.9)" />
<use xlink:href="#f0_8" transform="matrix(10.5,0,0,10.5,363,1153.9)" />
<use xlink:href="#f0_u" transform="matrix(10.5,0,0,10.5,370,1153.9)" />
<use xlink:href="#f0_p" transform="matrix(10.5,0,0,10.5,377.2,1153.9)" />
<use xlink:href="#f0_7" transform="matrix(10.5,0,0,10.5,385.3,1153.9)" />
<use xlink:href="#f0_8" transform="matrix(10.5,0,0,10.5,389.5,1153.9)" />
<use xlink:href="#f0_b" transform="matrix(10.5,0,0,10.5,396.7,1153.9)" />
<use xlink:href="#f0_q" transform="matrix(10.5,0,0,10.5,403.9,1153.9)" />
<use xlink:href="#f1_3" transform="matrix(11.5,0,0,11.5,277.8,1155.3)" />
<use xlink:href="#f1_e" transform="matrix(11.5,0,0,11.5,281.7,1155.3)" />
<use xlink:href="#f1_l" transform="matrix(11.5,0,0,11.5,293.5,1155.3)" />
<use xlink:href="#f1_9" transform="matrix(11.5,0,0,11.5,300.5,1155.3)" />
<use xlink:href="#f1_4" transform="matrix(11.5,0,0,11.5,305.2,1155.3)" />
<use xlink:href="#f1_m" transform="matrix(11.5,0,0,11.5,314.5,1155.3)" />
<use xlink:href="#f1_10" transform="matrix(11,0,0,11,137.5,1208.9)" />
<use xlink:href="#f1_11" transform="matrix(11,0,0,11,148.2,1208.9)" />
</g>
</g>
<defs>
<path d="M410,-14c0,0,-80,0,-162,14c0,0,-81,14,-144,38V270h48L178,134c0,0,28,-35,95,-62c0,0,68,-27,134,-27c0,0,104,0,163,53c0,0,58,54,58,148c0,0,0,54,-23,89c0,0,-22,35,-59,59c0,0,-37,24,-84,41c0,0,-47,17,-97,34c0,0,-49,17,-96,38c0,0,-47,21,-84,53c0,0,-37,32,-60,79c0,0,-23,48,-23,117c0,0,0,119,90,187c0,0,89,68,248,68c0,0,121,0,263,-32V771H654L628,893c0,0,-76,55,-188,55c0,0,-100,0,-156,-40c0,0,-56,-41,-56,-112c0,0,0,-49,22,-81c0,0,23,-32,60,-55c0,0,37,-22,84,-39c0,0,48,-16,97,-34c0,0,50,-17,97,-39c0,0,48,-22,85,-56c0,0,36,-34,59,-83c0,0,23,-49,23,-120c0,0,0,-145,-89,-224c0,0,-89,-79,-256,-79Z" 
id="f0_1b"
transform="scale(0.001,-0.001)" />

<path d="M32,0V34L151,52V649L52,668v33H275V52L395,34V0Zm71,835v24l146,203H408v-27L144,835Z" 
id="f0_s"
transform="scale(0.001,-0.001)" />

<path d="M495,413c0,0,0,133,-34,190c0,0,-34,57,-105,57c0,0,-78,0,-119,-63c0,0,-42,-62,-42,-184ZM374,-14c0,0,-163,0,-239,87c0,0,-75,88,-75,283c0,0,0,183,77,273c0,0,76,91,219,91c0,0,269,0,269,-306V353H194V340c0,0,0,-103,23,-160c0,0,22,-57,70,-87c0,0,47,-29,124,-29c0,0,40,0,96,6c0,0,55,7,91,15V43C598,43,562,20,500,3c0,0,-61,-17,-126,-17Z" 
id="f0_l"
transform="scale(0.001,-0.001)" />

<path d="M31,0V33L150,52v956L31,1026v34H274V52L394,33V0Z" 
id="f0_j"
transform="scale(0.001,-0.001)" />

<path d="M382,45c0,0,188,0,188,314c0,0,0,143,-47,213c0,0,-46,69,-141,69c0,0,-87,0,-146,-24V58c0,0,67,-13,146,-13ZM25,-325v35l88,18V649L34,668v33H231l1,-41c0,0,31,27,84,43c0,0,53,17,107,17c0,0,134,0,208,-94c0,0,73,-93,73,-267c0,0,0,-178,-80,-276c0,0,-80,-97,-232,-97c0,0,-84,0,-160,16c0,0,4,-53,4,-84V-272l123,-18v-35Z" 
id="f0_15"
transform="scale(0.001,-0.001)" />

<path d="M278,-14c0,0,-52,0,-115,11c0,0,-63,10,-99,23V193H98L134,95c0,0,56,-50,146,-50c0,0,144,0,144,123c0,0,0,91,-114,130l-66,21c0,0,-75,25,-110,50c0,0,-34,26,-53,63c0,0,-18,36,-18,89c0,0,0,92,63,145c0,0,63,54,170,54c0,0,77,0,193,-23V544H454l-32,81c0,0,-39,35,-124,35c0,0,-61,0,-92,-30c0,0,-32,-30,-32,-80c0,0,0,-43,29,-72c0,0,28,-29,86,-48c0,0,110,-38,144,-55c0,0,33,-17,57,-42c0,0,23,-25,36,-57c0,0,13,-32,13,-79c0,0,0,-104,-66,-158c0,0,-66,-53,-195,-53Z" 
id="f0_q"
transform="scale(0.001,-0.001)" />

<path d="M399,-14c0,0,-341,0,-341,370c0,0,0,175,87,269c0,0,87,95,249,95c0,0,101,0,220,-23V501H573L541,625c0,0,-62,35,-149,35c0,0,-200,0,-200,-304c0,0,0,-158,61,-225c0,0,61,-67,189,-67c0,0,109,0,189,24V43C631,43,595,16,530,1c0,0,-64,-15,-131,-15Z" 
id="f0_8"
transform="scale(0.001,-0.001)" />

<path d="M284,67c0,0,51,0,88,12c0,0,37,12,74,30V358l-98,-3c0,0,-100,-4,-135,-39c0,0,-35,-35,-35,-117c0,0,0,-132,106,-132ZM233,-14c0,0,-179,0,-179,208c0,0,0,70,27,116c0,0,27,46,87,70c0,0,60,24,173,27l105,3V519c0,0,0,72,-26,107c0,0,-27,34,-82,34c0,0,-75,0,-137,-35L176,538H134V691c0,0,121,26,213,26c0,0,115,0,169,-47c0,0,54,-47,54,-144V52L657,33V0H465L451,70c0,0,-85,-84,-218,-84Z" 
id="f0_b"
transform="scale(0.001,-0.001)" />

<path d="M383,64c0,0,85,0,152,28V645c0,0,-67,13,-152,13c0,0,-194,0,-194,-314c0,0,0,-141,48,-211c0,0,48,-69,146,-69ZM342,-14c0,0,-287,0,-287,358c0,0,0,184,82,280c0,0,81,96,239,96c0,0,81,0,163,-18c0,0,-4,25,-4,124v182l-118,18v34H659V52L745,33V0H548l-9,52c0,0,-84,-66,-197,-66Z" 
id="f0_n"
transform="scale(0.001,-0.001)" />

<path d="M377,45c0,0,99,0,147,73c0,0,47,73,47,237c0,0,0,161,-47,233c0,0,-47,72,-147,72c0,0,-97,0,-141,-69c0,0,-44,-69,-44,-236c0,0,0,-169,45,-240c0,0,44,-70,140,-70Zm0,-59c0,0,-158,0,-238,94c0,0,-81,95,-81,274c0,0,0,178,81,272c0,0,80,94,244,94c0,0,160,0,241,-92c0,0,82,-92,82,-274c0,0,0,-368,-329,-368Z" 
id="f0_9"
transform="scale(0.001,-0.001)" />

<path d="M31,0V33l88,19V649L31,668v33H235l7,-87c0,0,44,37,121,71c0,0,76,35,121,35h11V530H463l-43,82c0,0,-37,0,-88,-10c0,0,-52,-10,-89,-26V52L363,33V0Z" 
id="f0_r"
transform="scale(0.001,-0.001)" />

<path d="M431,0V33L535,52V499c0,0,0,62,-32,96c0,0,-32,33,-95,33c0,0,-66,0,-163,-22V52L350,33V0H32V33l89,19V649L32,668v33H237l6,-57c0,0,56,32,119,54c0,0,62,22,110,22c0,0,52,0,95,-20c0,0,44,-19,66,-62c0,0,57,32,134,57c0,0,77,25,128,25c0,0,179,0,179,-207V52l90,-19V0H846V33L950,52V499c0,0,0,129,-119,129c0,0,-19,0,-45,-3c0,0,-26,-3,-52,-7c0,0,-25,-4,-49,-8c0,0,-23,-5,-39,-8c0,0,13,-41,13,-89V52L764,33V0Z" 
id="f0_a"
transform="scale(0.001,-0.001)" />

<path d="M191,-20c0,0,-39,0,-65,25c0,0,-25,27,-25,64c0,0,0,38,26,64c0,0,26,26,64,26c0,0,38,0,64,-26c0,0,26,-26,26,-64c0,0,0,-37,-25,-64c0,0,-26,-25,-65,-25Z" 
id="f0_o"
transform="scale(0.001,-0.001)" />

<path d="M379,-315c0,0,-316,0,-316,253c0,0,0,119,60,194c0,0,60,74,175,98l43,10l9,193h60L429,185L322,163c0,0,-64,-12,-93,-65c0,0,-29,-52,-29,-151c0,0,0,-110,40,-155c0,0,40,-44,139,-44c0,0,84,0,145,36l26,123h49V-283c0,0,-110,-32,-220,-32Zm-6,851c0,0,-38,0,-64,26c0,0,-26,26,-26,64c0,0,0,37,25,64c0,0,26,27,65,27c0,0,37,0,64,-27c0,0,26,-26,26,-64c0,0,0,-39,-27,-64c0,0,-26,-26,-63,-26Z" 
id="f0_1e"
transform="scale(0.001,-0.001)" />

<path d="M681,416L504,902L333,416ZM669,0V40L803,60L704,348H310L210,60L344,40V0H15V40L128,60l341,949H611L965,60L1092,40V0Z" 
id="f0_5"
transform="scale(0.001,-0.001)" />

<path d="M306,-20c0,0,-39,0,-65,25c0,0,-25,27,-25,64c0,0,0,38,26,64c0,0,26,26,64,26c0,0,37,0,63,-25c0,0,26,-26,26,-65c0,0,0,-37,-25,-64c0,0,-26,-25,-64,-25ZM269,261L249,510l107,22c0,0,64,13,93,65c0,0,29,52,29,152c0,0,0,109,-39,154c0,0,-40,45,-140,45c0,0,-83,0,-145,-36L128,789H79V979c0,0,118,32,220,32c0,0,316,0,316,-253c0,0,0,-121,-60,-195c0,0,-60,-74,-175,-98l-42,-9L328,261Z" 
id="f0_1f"
transform="scale(0.001,-0.001)" />

<path d="M383,64c0,0,44,0,87,7c0,0,43,7,65,17V645c0,0,-67,13,-152,13c0,0,-194,0,-194,-309c0,0,0,-143,48,-214c0,0,47,-71,146,-71Zm56,-389v35l96,18V-77c0,0,0,73,7,124c0,0,-79,-61,-200,-61c0,0,-287,0,-287,362c0,0,0,180,81,276c0,0,81,96,237,96c0,0,84,0,166,-18l67,33h53V-272l77,-18v-35Z" 
id="f0_x"
transform="scale(0.001,-0.001)" />

<path d="M289,-14c0,0,-179,0,-179,205V649L20,668v33H233V200c0,0,0,-128,120,-128c0,0,92,0,173,23V649L420,668v33H649V52L738,33V0H533l-6,57C527,57,474,28,405,7c0,0,-69,-21,-116,-21Z" 
id="f0_y"
transform="scale(0.001,-0.001)" />

<path d="M249,-14c0,0,-71,0,-107,42c0,0,-35,42,-35,119V639H15v33l93,29l76,159h47V701H391V639H231V161c0,0,0,-48,22,-73c0,0,22,-24,57,-24c0,0,44,0,106,12V26C416,26,389,8,340,-2c0,0,-49,-12,-91,-12Z" 
id="f0_d"
transform="scale(0.001,-0.001)" />

<path d="M284,67c0,0,51,0,88,12c0,0,37,11,74,29V357l-98,-3c0,0,-100,-3,-135,-38c0,0,-35,-36,-35,-118c0,0,0,-131,106,-131ZM233,-14c0,0,-179,0,-179,208c0,0,0,70,27,116c0,0,27,46,87,70c0,0,60,24,173,27l105,3V519c0,0,0,73,-26,107c0,0,-27,34,-82,34c0,0,-75,0,-137,-35L176,538H134V691c0,0,121,26,213,26c0,0,115,0,169,-47c0,0,54,-47,54,-144V52L657,34V0H465L451,70c0,0,-85,-84,-218,-84Zm22,849v24l146,203H560v-27L296,835Z" 
id="f0_u"
transform="scale(0.001,-0.001)" />

<path d="M376,50c0,0,103,0,149,80c0,0,46,81,46,240c0,0,0,137,-47,204c0,0,-48,67,-148,67c0,0,-44,0,-87,-7c0,0,-44,-8,-63,-17V62c0,0,63,-12,150,-12Zm3,-64c0,0,-64,0,-141,14c0,0,-78,14,-136,37v971L0,1026v34H226V809c0,0,0,-40,-4,-148c0,0,74,59,188,59c0,0,143,0,219,-87c0,0,77,-87,77,-263c0,0,0,-189,-84,-287c0,0,-84,-97,-243,-97Z" 
id="f0_10"
transform="scale(0.001,-0.001)" />

<path d="M35,0V34l84,18V649L35,668v33H235l7,-56c0,0,57,32,122,54c0,0,65,21,108,21c0,0,91,0,137,-53c0,0,47,-53,47,-154V52L741,34V0H439V34l93,18V500c0,0,0,62,-30,97c0,0,-31,36,-94,36c0,0,-67,0,-165,-22V52L338,34V0ZM481,834c0,0,-36,0,-66,16c0,0,-30,16,-57,36c0,0,-27,20,-52,36c0,0,-25,16,-49,16c0,0,-24,0,-39,-9c0,0,-14,-9,-23,-26c0,0,-8,-17,-13,-54H143c0,0,11,180,146,180c0,0,36,0,66,-16c0,0,30,-16,57,-35c0,0,27,-20,52,-36c0,0,25,-16,49,-16c0,0,32,0,50,18c0,0,18,19,25,70h39c0,0,-12,-180,-146,-180Z" 
id="f0_16"
transform="scale(0.001,-0.001)" />

<path d="M529,65c0,0,183,0,270,108c0,0,87,108,87,334c0,0,0,210,-113,318c0,0,-113,108,-322,108H316V71c0,0,90,-6,213,-6Zm0,-67L172,0H44V40L172,60V941L44,960v40H498c0,0,277,0,411,-123c0,0,133,-124,133,-371c0,0,0,-251,-129,-380C913,126,785,-2,529,-2Z" 
id="f0_1i"
transform="scale(0.001,-0.001)" />

<path d="M377,44c0,0,99,0,147,73c0,0,47,73,47,237c0,0,0,161,-47,234c0,0,-47,72,-147,72c0,0,-97,0,-141,-69c0,0,-44,-70,-44,-237c0,0,0,-169,45,-239c0,0,44,-71,140,-71Zm0,-58c0,0,-158,0,-238,94c0,0,-81,95,-81,274c0,0,0,178,81,272c0,0,80,94,244,94c0,0,160,0,241,-92c0,0,82,-92,82,-274c0,0,0,-368,-329,-368ZM301,835v24l147,203H606v-27L342,835Z" 
id="f0_1o"
transform="scale(0.001,-0.001)" />

<path d="M439,0V33l93,19V500c0,0,0,62,-30,97c0,0,-31,36,-94,36c0,0,-67,0,-165,-22V52L338,33V0H35V33l84,19V649L35,668v33H235l7,-57c0,0,57,33,122,54c0,0,65,22,108,22c0,0,91,0,137,-53c0,0,47,-53,47,-154V52L741,33V0Z" 
id="f0_p"
transform="scale(0.001,-0.001)" />

<path d="M156,-317V454l139,56V-317ZM505,0L806,729H139V835H967V753L650,0Z" 
id="f1_c"
transform="scale(0.001,-0.001)" />

<path d="M585,0V426c0,0,0,54,-8,98c0,0,-8,44,-27,83c0,0,-19,40,-49,66c0,0,-30,26,-77,41c0,0,-47,15,-108,15H66V836H315c0,0,94,0,166,-20c0,0,71,-20,116,-54c0,0,46,-35,75,-88c0,0,28,-52,40,-112c0,0,12,-60,12,-137V0Z" 
id="f1_5"
transform="scale(0.001,-0.001)" />

<path d="M139,0V106H400c0,0,176,0,253,71c0,0,78,72,78,250c0,0,0,163,-80,233c0,0,-81,69,-250,69H278L277,564c0,0,-1,-54,26,-80c0,0,27,-25,82,-25c0,0,30,0,80,9V355c0,0,-61,-12,-111,-12c0,0,-100,0,-157,55c0,0,-58,55,-58,186V836H456c0,0,193,0,303,-109c0,0,110,-109,110,-309c0,0,0,-200,-110,-309C759,109,648,0,456,0Z" 
id="f1_d"
transform="scale(0.001,-0.001)" />

<path d="M287,0L589,729H66v386H205V836l547,-1l-2,-82L433,0Z" 
id="f1_7"
transform="scale(0.001,-0.001)" />

<path d="M154,0V454l138,56V0ZM722,0V454c0,0,0,161,-49,218c0,0,-48,57,-186,57H139V836H485c0,0,207,0,291,-93c0,0,83,-94,83,-318V0Z" 
id="f1_6"
transform="scale(0.001,-0.001)" />

<path d="M152,0V473c0,0,0,94,28,161c0,0,29,66,71,95H66V836H463V729H404c0,0,-65,0,-89,-57c0,0,-25,-58,-25,-199V0Z" 
id="f1_b"
transform="scale(0.001,-0.001)" />

<path d="M139,0V836H485c0,0,206,0,290,-90c0,0,84,-89,84,-294V0H721V473c0,0,0,147,-49,202c0,0,-48,54,-186,54H277V0Z" 
id="f1_f"
transform="scale(0.001,-0.001)" />

<path d="M66,0V107H554V452c0,0,0,56,-4,93c0,0,-4,37,-18,75c0,0,-14,38,-40,60c0,0,-26,22,-71,36c0,0,-45,13,-110,13H66V836H312c0,0,91,0,157,-17c0,0,66,-17,109,-49c0,0,44,-32,69,-84c0,0,26,-52,36,-114c0,0,10,-62,10,-147V107H817V0Z" 
id="f1_2"
transform="scale(0.001,-0.001)" />

<path d="M248,0L521,658H66v429H313V836l493,-1V716L504,0Z" 
id="f2_b"
transform="scale(0.001,-0.001)" />

<path d="M102,250V836H349V351L102,250Z" 
id="f2_h"
transform="scale(0.001,-0.001)" />

<path d="M154,-13c0,0,-38,0,-85,9V198c0,0,58,-15,103,-15c0,0,84,0,118,60c0,0,35,61,35,206c0,0,0,66,-7,105c0,0,-6,39,-24,63c0,0,-17,25,-44,33c0,0,-27,8,-73,8H66V836H225c0,0,198,0,275,-115c0,0,56,-84,65,-264c0,0,3,-55,3,-148c0,0,0,-177,71,-309L393,1c0,0,-53,130,-54,141c0,0,-28,-90,-65,-123c0,0,-38,-32,-120,-32Z" 
id="f2_f"
transform="scale(0.001,-0.001)" />

<path d="M534,0V425c0,0,0,109,-41,171c0,0,-41,62,-140,62H66V836H352c0,0,99,0,174,-20c0,0,75,-20,123,-55c0,0,48,-35,78,-87c0,0,30,-53,42,-113c0,0,12,-60,12,-136V0Z" 
id="f2_4"
transform="scale(0.001,-0.001)" />

<path d="M173,-6C173,-6,61,-6,15,9V177c0,0,73,-10,82,-10c0,0,37,0,52,30c0,0,14,29,14,116V658H18V836H516c0,0,262,0,341,-145c0,0,48,-89,48,-242V0H658V450c0,0,0,131,-37,171c0,0,-34,37,-105,37H411V313c0,0,0,-189,-67,-258C344,55,285,-6,173,-6Z" 
id="f2_7"
transform="scale(0.001,-0.001)" />

<path d="M180,0V198H433V918L173,864v196l258,54H705V198H958V0Z" 
id="f2_m"
transform="scale(0.001,-0.001)" />

<path d="M491,-20c0,0,-95,0,-188,18c0,0,-93,17,-185,55V279c0,0,91,-53,173,-79c0,0,82,-26,154,-26c0,0,105,0,165,51c0,0,60,51,60,138c0,0,0,88,-60,139c0,0,-60,50,-165,50c0,0,-62,0,-132,-16c0,0,-70,-16,-151,-49v627H877V903H391V730c0,0,33,9,66,14c0,0,33,5,69,5c0,0,204,0,318,-102c0,0,113,-102,113,-284c0,0,0,-180,-123,-282C834,81,710,-20,491,-20Z" 
id="f2_p"
transform="scale(0.001,-0.001)" />

<path d="M139,0V836H278V0Z" 
id="f1_9"
transform="scale(0.001,-0.001)" />

<path d="M71,-141V-15L289,62L66,836H210L416,109c0,0,99,42,153,98c0,0,53,56,80,155c0,0,26,98,26,262V836H817V624c0,0,0,-88,-7,-154c0,0,-7,-67,-25,-132c0,0,-18,-66,-51,-116c0,0,-33,-51,-84,-98c0,0,-50,-48,-123,-87c0,0,-72,-39,-169,-74L71,-141Z" 
id="f1_k"
transform="scale(0.001,-0.001)" />

<path d="M148,-329c0,0,-58,0,-114,13v151H69l24,-71c0,0,23,-17,64,-17c0,0,39,0,72,22c0,0,33,23,60,67c0,0,27,44,68,157L90,649L19,668v33H344V668L233,648L423,158L606,649L497,668v33H758V668L685,652L411,-43c0,0,-48,-124,-84,-177c0,0,-36,-54,-79,-82c0,0,-44,-27,-100,-27Z" 
id="f0_c"
transform="scale(0.001,-0.001)" />

<path d="M522,92c0,0,247,0,247,333c0,0,0,88,-17,146c0,0,-17,58,-53,91c0,0,-35,33,-82,46c0,0,-48,14,-116,14H276V419c0,0,0,-327,246,-327Zm0,-112c0,0,-193,0,-289,109c0,0,-95,110,-95,337V836H501c0,0,213,0,309,-93c0,0,96,-94,96,-317c0,0,0,-227,-95,-337C811,89,715,-20,522,-20Z" 
id="f1_i"
transform="scale(0.001,-0.001)" />

<path d="M66,0V107H332V555c0,0,0,92,-37,133c0,0,-37,41,-116,41H85V836h94c0,0,153,0,223,-66c0,0,69,-66,69,-231V0Z" 
id="f1_l"
transform="scale(0.001,-0.001)" />

<path d="M360,-14L72,649L0,668v33H327V668L216,648L420,164L615,649L504,668v33H764V668L697,652L416,-14Z" 
id="f0_6"
transform="scale(0.001,-0.001)" />

<path d="M32,0V33L151,52V649L52,668v33H275V52L395,33V0ZM201,850c0,0,-32,0,-56,24c0,0,-24,24,-24,56c0,0,0,34,24,58c0,0,24,24,56,24c0,0,34,0,58,-24c0,0,24,-24,24,-58c0,0,0,-32,-24,-56c0,0,-24,-24,-58,-24Z" 
id="f0_7"
transform="scale(0.001,-0.001)" />

<path d="M64,-325c0,0,-46,0,-107,14v148H-8l19,-81c0,0,25,-21,62,-21c0,0,44,0,67,47c0,0,22,47,22,152V649L57,668v33H286V-28c0,0,0,-146,-57,-221c0,0,-56,-76,-165,-76ZM213,850c0,0,-34,0,-58,24c0,0,-24,24,-24,56c0,0,0,34,24,58c0,0,24,24,58,24c0,0,32,0,56,-24c0,0,24,-24,24,-58c0,0,0,-32,-24,-56c0,0,-24,-24,-56,-24Z" 
id="f0_19"
transform="scale(0.001,-0.001)" />

<path d="M700,-317V454c0,0,0,155,-54,215c0,0,-54,60,-180,60H277V551c0,0,0,-55,26,-80c0,0,27,-26,82,-26c0,0,30,0,80,10V341c0,0,-61,-11,-111,-11c0,0,-100,0,-157,55c0,0,-58,55,-58,186V836H466c0,0,203,0,288,-91c0,0,85,-92,85,-293V-317Z" 
id="f1_t"
transform="scale(0.001,-0.001)" />

<path d="M102,312V836H241V369L102,312Z" 
id="f1_3"
transform="scale(0.001,-0.001)" />

<path d="M347,-317V284c0,0,0,59,-21,123c0,0,-21,64,-44,103c0,0,-23,40,-59,94L66,838H218L336,668c0,0,76,-109,120,-223c0,0,87,34,126,107c0,0,39,73,39,186v98H758V737c0,0,0,-82,-23,-152c0,0,-23,-69,-61,-116c0,0,-39,-47,-87,-78c0,0,-47,-31,-101,-45V-317Z" 
id="f1_19"
transform="scale(0.001,-0.001)" />

<path d="M112,-5c0,0,-39,0,-97,11V113c0,0,48,-10,77,-10c0,0,53,0,70,42c0,0,17,43,17,164V729H50V836H501c0,0,107,0,179,-25c0,0,72,-25,112,-77c0,0,40,-51,57,-118c0,0,16,-67,16,-164V0H726V454c0,0,0,55,-3,92c0,0,-4,37,-17,75c0,0,-14,38,-38,59c0,0,-24,22,-65,36c0,0,-42,13,-102,13H318V309c0,0,0,-160,-46,-237C272,72,226,-5,112,-5Z" 
id="f1_a"
transform="scale(0.001,-0.001)" />

<path d="M66,0V106H322c0,0,75,0,127,23c0,0,53,23,82,67c0,0,29,43,42,98c0,0,13,54,13,124c0,0,0,70,-13,124c0,0,-13,55,-42,98c0,0,-29,44,-82,67c0,0,-52,23,-127,23H66V836H322c0,0,87,0,157,-24c0,0,70,-24,115,-64c0,0,45,-40,74,-94c0,0,30,-55,43,-113c0,0,13,-59,13,-123c0,0,0,-64,-13,-123c0,0,-13,-58,-43,-113c0,0,-29,-54,-74,-94C594,88,549,48,479,24C479,24,409,0,322,0Z" 
id="f1_4"
transform="scale(0.001,-0.001)" />

<path d="M0,-141L388,1114H514L127,-141Z" 
id="f1_12"
transform="scale(0.001,-0.001)" />

<path d="M66,0V106H564L66,836H228L516,413c0,0,3,2,9,6c0,0,17,13,27,21c0,0,10,8,26,27c0,0,17,20,26,40c0,0,9,21,16,54c0,0,7,34,7,75V836H764V698c0,0,0,-55,-7,-102c0,0,-7,-47,-16,-79c0,0,-10,-33,-27,-62c0,0,-18,-29,-32,-46c0,0,-14,-17,-37,-35c0,0,-22,-17,-36,-25c0,0,-13,-8,-36,-20L767,53V0Z" 
id="f1_q"
transform="scale(0.001,-0.001)" />

<path d="M736,107V473c0,0,0,147,-48,202c0,0,-49,54,-187,54H278V107ZM139,0V836H499c0,0,105,0,177,-22c0,0,72,-21,116,-69c0,0,44,-49,64,-119c0,0,19,-71,19,-174V0Z" 
id="f1_j"
transform="scale(0.001,-0.001)" />

<path d="M138,-7c0,0,-34,0,-72,10V129c0,0,25,-8,52,-8c0,0,33,0,58,5c0,0,26,5,58,24c0,0,33,20,53,54c0,0,21,34,36,97c0,0,15,64,15,151c0,0,0,113,-19,173c0,0,-19,60,-56,82c0,0,-38,22,-107,22H89V836h72c0,0,165,0,240,-91c0,0,76,-91,76,-293c0,0,0,-107,26,-227c0,0,25,-119,83,-225H437c0,0,-43,101,-62,184c0,0,-24,-60,-51,-99c0,0,-26,-38,-56,-58C268,27,239,7,209,0c0,0,-30,-7,-71,-7Z" 
id="f1_u"
transform="scale(0.001,-0.001)" />

<path d="M289,-14c0,0,-179,0,-179,205V649L20,668v33H233V200c0,0,0,-128,120,-128c0,0,92,0,173,23V649L420,668v33H649V52L738,34V0H533l-6,57C527,57,474,28,405,6c0,0,-69,-20,-116,-20Zm24,849v24l147,203H618v-27L354,835Z" 
id="f0_e"
transform="scale(0.001,-0.001)" />

<path d="M495,413c0,0,0,133,-34,190c0,0,-34,57,-105,57c0,0,-78,0,-119,-62c0,0,-42,-63,-42,-185ZM374,-14c0,0,-163,0,-239,87c0,0,-75,88,-75,283c0,0,0,183,77,274c0,0,76,90,219,90c0,0,269,0,269,-306V353H194V339c0,0,0,-103,23,-160c0,0,22,-57,70,-86c0,0,47,-30,124,-30c0,0,40,0,96,6c0,0,55,7,91,15V43C598,43,562,19,500,2c0,0,-61,-16,-126,-16ZM285,835v24l146,203H590v-27L326,835Z" 
id="f0_h"
transform="scale(0.001,-0.001)" />

<path d="M0,-14L351,1007h73L75,-14Z" 
id="f0_k"
transform="scale(0.001,-0.001)" />

<path d="M557,-14c0,0,-199,0,-298,89c0,0,-99,90,-99,255V941L32,960v40H432V960L304,941V341c0,0,0,-273,264,-273c0,0,144,0,220,68c0,0,77,68,77,202V941L730,960v40h341V960L943,941V344c0,0,0,-180,-99,-269c0,0,-99,-89,-287,-89Z" 
id="f0_m"
transform="scale(0.001,-0.001)" />

<path d="M553,159c0,0,76,0,113,49c0,0,38,49,38,147c0,0,0,98,-38,147c0,0,-37,49,-113,49c0,0,-76,0,-113,-49c0,0,-38,-49,-38,-147c0,0,0,-98,38,-147c0,0,37,-49,113,-49ZM550,-20c0,0,-217,0,-336,145C214,125,95,272,95,541c0,0,0,276,139,434c0,0,139,157,381,157c0,0,77,0,149,-11c0,0,73,-12,143,-36V879c0,0,-70,34,-133,50c0,0,-63,16,-122,16c0,0,-128,0,-200,-72c0,0,-71,-71,-83,-211c0,0,49,37,106,55c0,0,58,18,125,18c0,0,171,0,276,-100c0,0,105,-100,105,-262c0,0,0,-179,-117,-287C864,86,747,-20,550,-20Z" 
id="f2_t"
transform="scale(0.001,-0.001)" />

<path d="M17,-325L185,639H64l6,36l127,29l9,49c0,0,30,167,100,245c0,0,71,78,191,78c0,0,57,0,104,-15L574,915H538l-14,85c0,0,-22,16,-63,16c0,0,-45,0,-72,-39c0,0,-26,-39,-48,-160L319,701H475L465,639H309L141,-325Z" 
id="f3_y"
transform="scale(0.001,-0.001)" />

<path d="M62,0L176,649L88,668l6,33H301L278,543c0,0,55,84,124,130c0,0,69,47,138,47c0,0,37,0,59,-6L566,530H534l-28,95c0,0,-60,0,-124,-46c0,0,-63,-45,-116,-120L186,0Z" 
id="f3_5"
transform="scale(0.001,-0.001)" />

<path d="M228,-17c0,0,-76,0,-114,40c0,0,-38,41,-38,117c0,0,0,11,4,39c0,0,4,29,80,470L78,667l6,34H293L217,268c0,0,-17,-94,-17,-124c0,0,0,-34,18,-55c0,0,18,-21,57,-21c0,0,55,0,120,47c0,0,65,47,107,115l83,471H709L595,52L683,33L677,0H469l20,144C489,144,427,64,360,23c0,0,-67,-40,-132,-40Z" 
id="f3_8"
transform="scale(0.001,-0.001)" />

<path d="M200,-14c0,0,-59,0,-93,35c0,0,-34,36,-34,100c0,0,0,22,4,51c0,0,4,30,82,467H67l6,33l99,29L275,860h47L295,701H455L443,639H283L210,230c0,0,-13,-69,-13,-99c0,0,0,-34,17,-51c0,0,17,-16,43,-16c0,0,54,0,113,21L386,50c0,0,-92,-64,-186,-64Z" 
id="f3_4"
transform="scale(0.001,-0.001)" />

<path d="M301,78c0,0,85,0,185,104l81,442c0,0,-29,20,-55,28c0,0,-25,8,-62,8c0,0,-75,0,-137,-56c0,0,-62,-56,-98,-152c0,0,-36,-95,-36,-199c0,0,0,-79,33,-127c0,0,33,-48,89,-48ZM245,-14c0,0,-90,0,-145,66c0,0,-54,66,-54,182c0,0,0,131,57,244c0,0,57,114,152,178c0,0,96,64,208,64c0,0,90,0,170,-33l33,26h40L589,52L673,33L667,0H454l22,117C476,117,350,-14,245,-14Z" 
id="f3_6"
transform="scale(0.001,-0.001)" />

<path d="M228,-14c0,0,-103,0,-209,46L49,200H83L95,99c0,0,20,-21,55,-38c0,0,36,-16,81,-16c0,0,163,0,163,133c0,0,0,44,-35,78c0,0,-34,34,-113,72c0,0,-75,37,-112,81c0,0,-36,45,-36,104c0,0,0,99,66,153c0,0,67,54,184,54c0,0,85,0,200,-26L521,538H486l-11,80c0,0,-47,42,-124,42c0,0,-61,0,-97,-28c0,0,-37,-28,-37,-87c0,0,0,-40,31,-71c0,0,32,-30,119,-75c0,0,78,-40,113,-86c0,0,36,-47,36,-107c0,0,0,-113,-71,-167c0,0,-72,-53,-217,-53Z" 
id="f3_7"
transform="scale(0.001,-0.001)" />

<path d="M162,312L264,836H403L312,369L162,312Z" 
id="f4_5"
transform="scale(0.001,-0.001)" />

<path d="M585,0l83,425c0,0,10,55,11,99c0,0,1,44,-11,83c0,0,-12,39,-36,65c0,0,-25,26,-69,42c0,0,-44,15,-105,15H207l21,107H478c0,0,94,0,161,-20c0,0,67,-20,106,-55c0,0,39,-34,58,-87c0,0,18,-53,18,-113c0,0,0,-60,-15,-136L724,0Z" 
id="f4_g"
transform="scale(0.001,-0.001)" />

<path d="M139,0l21,106H421c0,0,176,0,268,72c0,0,91,71,126,249c0,0,32,163,-35,232c0,0,-68,70,-238,70H419L386,563c0,0,-11,-54,11,-80c0,0,22,-26,77,-26c0,0,30,0,83,10L534,354c0,0,-63,-12,-113,-12c0,0,-100,0,-147,55c0,0,-47,55,-22,186l49,253H619c0,0,193,0,282,-109c0,0,89,-109,50,-309c0,0,-39,-200,-171,-309C780,109,648,0,457,0Z" 
id="f4_h"
transform="scale(0.001,-0.001)" />

<path d="M180,0L66,836H203L258,443c0,0,36,1,64,6c0,0,28,6,49,18c0,0,20,12,35,26c0,0,15,13,26,36c0,0,11,24,17,44c0,0,7,20,12,55c0,0,6,34,9,60c0,0,3,26,8,71c0,0,4,45,9,77H610c0,0,-13,-194,-31,-271c0,0,-31,-127,-111,-179c0,0,-71,-45,-196,-50L304,107c0,0,73,0,130,5c0,0,56,6,111,21c0,0,54,15,94,40c0,0,40,25,77,64c0,0,37,39,63,94c0,0,25,54,46,128c0,0,21,73,34,166c0,0,13,94,20,211h138c0,0,-14,-124,-29,-218c0,0,-16,-94,-39,-179c0,0,-22,-85,-50,-146c0,0,-28,-61,-68,-112c0,0,-39,-51,-87,-84C744,97,696,65,632,42C632,42,568,19,492,10C492,10,417,0,320,0Z" 
id="f1_n"
transform="scale(0.001,-0.001)" />

<path d="M41,0V34L426,641H261c0,0,-42,0,-80,-7c0,0,-39,-7,-54,-19L104,515H69V701H586V665L201,60H407c0,0,42,0,89,10c0,0,47,10,66,25l39,147h35L617,0Z" 
id="f0_1r"
transform="scale(0.001,-0.001)" />

<path d="M139,0V138c0,0,0,61,8,112c0,0,7,52,19,87c0,0,11,36,30,66c0,0,19,31,35,49c0,0,17,19,41,35c0,0,25,17,41,25c0,0,17,7,40,17L141,836H303L613,388c0,0,20,10,33,18c0,0,13,8,34,28c0,0,20,20,33,44c0,0,13,25,22,66c0,0,10,41,10,92V836H882V698c0,0,0,-61,-7,-112c0,0,-6,-52,-18,-88c0,0,-12,-36,-30,-66c0,0,-19,-30,-36,-49c0,0,-17,-18,-41,-34c0,0,-24,-17,-40,-25c0,0,-17,-8,-41,-17L882,0H720L409,448c0,0,-21,-11,-34,-19c0,0,-13,-8,-34,-27c0,0,-21,-20,-34,-44c0,0,-12,-25,-22,-66c0,0,-9,-41,-9,-92V0Z" 
id="f1_e"
transform="scale(0.001,-0.001)" />

<path d="M442,0V33l93,19V504c0,0,0,129,-124,129c0,0,-70,0,-168,-22V52L338,33V0H31V33l88,19v956L15,1026v34H243V756c0,0,0,-77,-5,-112c0,0,54,31,122,53c0,0,68,23,115,23c0,0,91,0,137,-53c0,0,47,-53,47,-154V52L744,33V0Z" 
id="f0_14"
transform="scale(0.001,-0.001)" />

<path d="M359,-270c0,0,124,0,192,46c0,0,67,47,67,129c0,0,0,43,-26,67c0,0,-26,24,-79,24H242c0,0,-32,-27,-51,-69c0,0,-20,-41,-20,-77c0,0,0,-64,46,-92c0,0,46,-28,142,-28Zm11,561c0,0,81,0,115,47c0,0,34,47,34,141c0,0,0,100,-35,142c0,0,-35,42,-113,42c0,0,-78,0,-114,-43c0,0,-37,-42,-37,-141c0,0,0,-98,36,-143c0,0,36,-45,114,-45ZM359,-329c0,0,-143,0,-218,44c0,0,-75,43,-75,125c0,0,0,39,27,78c0,0,26,38,98,89c0,0,-43,14,-72,48c0,0,-29,35,-29,74L208,262c0,0,-118,55,-118,217c0,0,0,115,73,178c0,0,73,63,211,63c0,0,28,0,71,-6c0,0,44,-6,67,-13l165,83l26,-32L599,644c0,0,50,-56,50,-165c0,0,0,-120,-72,-182c0,0,-73,-62,-208,-62c0,0,-62,0,-114,11L208,148c0,0,2,-13,29,-24c0,0,27,-12,67,-12H512c0,0,113,0,168,-49c0,0,55,-49,55,-134c0,0,0,-79,-44,-137c0,0,-43,-58,-128,-90c0,0,-84,-31,-204,-31Z" 
id="f0_1k"
transform="scale(0.001,-0.001)" />

<path d="M522,-20c0,0,-196,0,-290,99c0,0,-94,100,-94,324V836H276V397c0,0,0,-86,16,-147c0,0,17,-60,50,-94c0,0,34,-34,77,-49c0,0,43,-15,103,-15c0,0,59,0,102,15c0,0,44,15,77,49c0,0,33,34,50,94c0,0,17,61,17,147c0,0,0,84,-8,143c0,0,-7,58,-25,105c0,0,-17,47,-51,69c0,0,-33,23,-83,23c0,0,-50,0,-119,-22V821c0,0,85,23,150,23c0,0,76,0,130,-30c0,0,53,-31,85,-90c0,0,31,-59,45,-138c0,0,13,-78,13,-183c0,0,0,-224,-93,-324c0,0,-94,-99,-290,-99Z" 
id="f1_p"
transform="scale(0.001,-0.001)" />

<path d="M64,0V34L168,59V639H47v36l121,29v49c0,0,0,155,61,239c0,0,62,84,173,84c0,0,58,0,107,-15V908H472l-33,92c0,0,-26,16,-62,16c0,0,-47,0,-66,-42c0,0,-19,-42,-19,-157V701H478V639H292V59L443,34V0Z" 
id="f0_13"
transform="scale(0.001,-0.001)" />

<path d="M114,0l60,312c0,0,2,12,8,39c0,0,6,27,7,37c0,0,2,11,5,30c0,0,2,19,4,33c0,0,1,15,1,31c0,0,0,48,-35,146c0,0,-35,98,-98,208H228c0,0,3,-8,27,-67c0,0,25,-58,41,-117c0,0,21,53,50,90c0,0,29,37,57,57c0,0,29,21,65,32c0,0,37,11,65,14c0,0,28,3,67,3c0,0,300,0,300,-396V0H480V106H761V452c0,0,0,146,-46,215c0,0,-45,70,-118,70c0,0,-134,0,-198,-119c0,0,-36,-68,-67,-222c0,0,-2,-10,-6,-27L253,0Z" 
id="f1_m"
transform="scale(0.001,-0.001)" />

<path d="M495,0V729H66V836H781V729H634V0Z" 
id="f1_h"
transform="scale(0.001,-0.001)" />

<path d="M139,-317V836H278V-317Z" 
id="f1_r"
transform="scale(0.001,-0.001)" />

<path d="M228,0L639,903H103v211H942V952L508,0Z" 
id="f2_v"
transform="scale(0.001,-0.001)" />

<path d="M325,47c0,0,68,0,130,54c0,0,61,55,97,149c0,0,36,94,36,202c0,0,0,103,-39,156c0,0,-39,53,-113,53c0,0,-67,0,-128,-54c0,0,-61,-55,-96,-149c0,0,-35,-94,-35,-204c0,0,0,-101,39,-154c0,0,39,-53,109,-53Zm-6,-61c0,0,-124,0,-199,79c0,0,-74,79,-74,214c0,0,0,120,51,222c0,0,51,102,143,160c0,0,91,59,205,59c0,0,124,0,199,-80c0,0,74,-79,74,-214c0,0,0,-120,-51,-222C667,204,615,102,524,43c0,0,-91,-57,-205,-57Z" 
id="f3_c"
transform="scale(0.001,-0.001)" />

<path d="M139,0L301,836H440L278,0Z" 
id="f4_9"
transform="scale(0.001,-0.001)" />

<path d="M66,0L87,107H576l67,345c0,0,10,56,14,93c0,0,3,37,-4,75c0,0,-7,38,-28,60c0,0,-21,21,-64,35c0,0,-43,14,-107,14H207l21,107H474c0,0,92,0,155,-18c0,0,63,-17,99,-49c0,0,37,-31,53,-83c0,0,16,-52,14,-114c0,0,-2,-62,-18,-147L715,107H838L818,0Z" 
id="f4_i"
transform="scale(0.001,-0.001)" />

<path d="M181,0l47,836H366L344,442c0,0,36,1,65,7c0,0,29,5,52,18c0,0,24,12,41,25c0,0,18,13,33,37c0,0,16,24,26,44c0,0,10,19,22,54c0,0,12,35,21,60c0,0,8,26,21,71c0,0,14,45,25,78H773c0,0,-52,-194,-84,-271c0,0,-56,-128,-147,-179c0,0,-79,-46,-205,-50L325,107c0,0,73,0,131,5c0,0,57,6,114,21c0,0,57,15,102,40c0,0,46,25,90,64c0,0,44,39,81,93c0,0,36,55,71,128c0,0,36,74,66,167c0,0,31,93,61,211h138c0,0,-38,-124,-72,-218c0,0,-34,-94,-73,-179c0,0,-39,-85,-79,-146c0,0,-40,-61,-89,-112c0,0,-48,-51,-103,-84C763,97,709,65,640,42C640,42,572,19,495,10C495,10,417,0,321,0Z" 
id="f4_j"
transform="scale(0.001,-0.001)" />

<path d="M111,0V127c0,0,86,89,234,238c0,0,148,150,186,193c0,0,73,81,101,138c0,0,29,56,29,110c0,0,0,89,-62,145c0,0,-62,56,-162,56c0,0,-71,0,-150,-25c0,0,-78,-24,-168,-75v153c0,0,91,37,170,55c0,0,79,19,145,19c0,0,173,0,276,-86c0,0,103,-87,103,-232c0,0,0,-68,-26,-130c0,0,-26,-61,-94,-145c0,0,-18,-22,-118,-125C575,416,475,313,293,127H818V0Z" 
id="f1_10"
transform="scale(0.001,-0.001)" />

<path d="M414,-20c0,0,-70,0,-144,13c0,0,-75,13,-154,40V179c0,0,63,-36,138,-55c0,0,74,-18,156,-18c0,0,142,0,216,55c0,0,74,56,74,163c0,0,0,98,-69,153c0,0,-69,56,-192,56H309V657H445c0,0,111,0,170,44c0,0,59,45,59,128c0,0,0,86,-61,132c0,0,-61,46,-174,46c0,0,-62,0,-133,-13c0,0,-71,-14,-156,-42v134c0,0,85,24,160,36c0,0,75,12,142,12c0,0,171,0,271,-78c0,0,100,-78,100,-211c0,0,0,-92,-53,-156c0,0,-52,-64,-150,-89c0,0,108,-23,169,-96c0,0,61,-73,61,-180c0,0,0,-165,-114,-255c0,0,-113,-89,-322,-89Z" 
id="f1_11"
transform="scale(0.001,-0.001)" />


</defs>
</svg>