<?xml version="1.0" encoding="UTF-8" standalone="no"?>
<!DOCTYPE svg PUBLIC "-//W3C//DTD SVG 1.1//EN"
"http://www.w3.org/Graphics/SVG/1.1/DTD/svg11.dtd">
<svg viewBox="0 0 909 1286" version="1.1" xmlns="http://www.w3.org/2000/svg" xmlns:xlink="http://www.w3.org/1999/xlink">
<defs>
<clipPath id="c0_12"><path d="M0,1286.2V0H909.4V1286.2Z" /></clipPath>
<style type="text/css"><![CDATA[
.g0_12{
fill: none;
stroke: #000000;
stroke-width: 0.7638889;
stroke-linecap: butt;
stroke-linejoin: round;
}
.g1_12{
fill: none;
stroke: #0000FF;
stroke-width: 1.0694444;
stroke-linecap: butt;
stroke-linejoin: miter;
}
]]></style>
</defs>
<g clip-path="url(#c0_12)">
<g fill="#000000" >
<use xlink:href="#f0_9" transform="matrix(16,0,0,16,698.8,151.3)" />
<use xlink:href="#f0_4" transform="matrix(16,0,0,16,714,151.3)" />
<use xlink:href="#f0_c" transform="matrix(16,0,0,16,720.7,151.3)" />
<use xlink:href="#f0_4" transform="matrix(16,0,0,16,732.8,151.3)" />
<use xlink:href="#f0_3" transform="matrix(16,0,0,16,739.5,151.3)" />
<use xlink:href="#f0_9" transform="matrix(16,0,0,16,757,151.3)" />
<use xlink:href="#f1_e" transform="matrix(12,0,0,12,723.8,192)" />
<use xlink:href="#f1_a" transform="matrix(12,0,0,12,735,192)" />
<use xlink:href="#f1_n" transform="matrix(12,0,0,12,740.3,192)" />
<use xlink:href="#f1_4" transform="matrix(12,0,0,12,748.6,192)" />
<use xlink:href="#f1_k" transform="matrix(12,0,0,12,759.6,192)" />
<use xlink:href="#f1_r" transform="matrix(12,0,0,12,704.6,192)" />
</g>
</g>
<path d="M128.6,196.7H780.2M128.6,218.9H780.2M128.6,241H780.2M128.6,263.2H780.2M128.9,196.3v67.2M291.7,196.3v67.2M454.4,196.3v67.2M617.1,196.3v67.2M779.8,196.3v67.2" class="g0_12" />
<g clip-path="url(#c0_12)">
<g fill="#000000" >
<use xlink:href="#f2_e" transform="matrix(12,0,0,12,734.4,214.2)" />
<use xlink:href="#f2_n" transform="matrix(12,0,0,12,746.3,214.2)" />
<use xlink:href="#f2_n" transform="matrix(12,0,0,12,753.7,214.2)" />
<use xlink:href="#f2_o" transform="matrix(12,0,0,12,761,214.2)" />
<use xlink:href="#f2_e" transform="matrix(12,0,0,12,572.9,214.2)" />
<use xlink:href="#f2_f" transform="matrix(12,0,0,12,584.8,214.2)" />
<use xlink:href="#f2_b" transform="matrix(12,0,0,12,596.3,214.2)" />
<use xlink:href="#f2_q" transform="matrix(12,0,0,12,413.3,214.2)" />
<use xlink:href="#f2_6" transform="matrix(12,0,0,12,418.2,214.2)" />
<use xlink:href="#f2_a" transform="matrix(12,0,0,12,423.2,214.2)" />
<use xlink:href="#f2_b" transform="matrix(12,0,0,12,433.6,214.2)" />
<use xlink:href="#f2_3" transform="matrix(12,0,0,12,245.4,214.2)" />
<use xlink:href="#f2_m" transform="matrix(12,0,0,12,249.5,214.2)" />
<use xlink:href="#f2_o" transform="matrix(12,0,0,12,260.9,214.2)" />
<use xlink:href="#f2_l" transform="matrix(12,0,0,12,271.5,214.2)" />
<use xlink:href="#f2_e" transform="matrix(12,0,0,12,713.8,236.3)" />
<use xlink:href="#f2_g" transform="matrix(12,0,0,12,725.7,236.3)" />
<use xlink:href="#f2_m" transform="matrix(12,0,0,12,735.6,236.3)" />
<use xlink:href="#f2_t" transform="matrix(12,0,0,12,747.1,236.3)" />
<use xlink:href="#f2_b" transform="matrix(12,0,0,12,759,236.3)" />
<use xlink:href="#f2_g" transform="matrix(12,0,0,12,552.4,236.3)" />
<use xlink:href="#f2_a" transform="matrix(12,0,0,12,562.4,236.3)" />
<use xlink:href="#f2_6" transform="matrix(12,0,0,12,572.8,236.3)" />
<use xlink:href="#f2_r" transform="matrix(12,0,0,12,577.8,236.3)" />
<use xlink:href="#f2_6" transform="matrix(12,0,0,12,590.8,236.3)" />
<use xlink:href="#f2_c" transform="matrix(12,0,0,12,595.8,236.3)" />
<use xlink:href="#f2_6" transform="matrix(12,0,0,12,416.6,236.3)" />
<use xlink:href="#f2_3" transform="matrix(12,0,0,12,421.6,236.3)" />
<use xlink:href="#f2_g" transform="matrix(12,0,0,12,425.6,236.3)" />
<use xlink:href="#f2_4" transform="matrix(12,0,0,12,435.7,236.3)" />
<use xlink:href="#f2_a" transform="matrix(12,0,0,12,251,236.3)" />
<use xlink:href="#f2_3" transform="matrix(12,0,0,12,261.4,236.3)" />
<use xlink:href="#f2_s" transform="matrix(12,0,0,12,265.5,236.3)" />
<use xlink:href="#f2_4" transform="matrix(12,0,0,12,273,236.3)" />
<use xlink:href="#f2_s" transform="matrix(12,0,0,12,728.1,258.5)" />
<use xlink:href="#f2_3" transform="matrix(12,0,0,12,735.6,258.5)" />
<use xlink:href="#f2_e" transform="matrix(12,0,0,12,739.7,258.5)" />
<use xlink:href="#f2_n" transform="matrix(12,0,0,12,751.6,258.5)" />
<use xlink:href="#f2_b" transform="matrix(12,0,0,12,759,258.5)" />
<use xlink:href="#f2_i" transform="matrix(12,0,0,12,567.9,258.5)" />
<use xlink:href="#f2_3" transform="matrix(12,0,0,12,579.9,258.5)" />
<use xlink:href="#f2_n" transform="matrix(12,0,0,12,583.9,258.5)" />
<use xlink:href="#f2_6" transform="matrix(12,0,0,12,591.2,258.5)" />
<use xlink:href="#f2_b" transform="matrix(12,0,0,12,596.3,258.5)" />
<use xlink:href="#f2_3" transform="matrix(12,0,0,12,388.4,258.5)" />
<use xlink:href="#f2_4" transform="matrix(12,0,0,12,392.5,258.5)" />
<use xlink:href="#f2_a" transform="matrix(12,0,0,12,402.8,258.5)" />
<use xlink:href="#f2_6" transform="matrix(12,0,0,12,413.2,258.5)" />
<use xlink:href="#f2_f" transform="matrix(12,0,0,12,418.1,258.5)" />
<use xlink:href="#f2_6" transform="matrix(12,0,0,12,429.6,258.5)" />
<use xlink:href="#f2_f" transform="matrix(12,0,0,12,434.6,258.5)" />
<use xlink:href="#f2_m" transform="matrix(12,0,0,12,250.6,258.5)" />
<use xlink:href="#f2_o" transform="matrix(12,0,0,12,262,258.5)" />
<use xlink:href="#f2_h" transform="matrix(12,0,0,12,272.6,258.5)" />
</g>
<g fill="#0000FF" >
<use xlink:href="#f2_r" transform="matrix(12,0,0,12,669.9,280.7)" />
<use xlink:href="#f2_4" transform="matrix(12,0,0,12,682.9,280.7)" />
<use xlink:href="#f2_f" transform="matrix(12,0,0,12,693.1,280.7)" />
<use xlink:href="#f2_a" transform="matrix(12,0,0,12,704.6,280.7)" />
<use xlink:href="#f2_e" transform="matrix(12,0,0,12,720.9,280.7)" />
<use xlink:href="#f2_4" transform="matrix(12,0,0,12,732.8,280.7)" />
<use xlink:href="#f2_7" transform="matrix(12,0,0,12,743.2,280.7)" />
<use xlink:href="#f2_u" transform="matrix(12,0,0,12,749.6,280.7)" />
<use xlink:href="#f2_o" transform="matrix(12,0,0,12,761.5,280.7)" />
</g>
</g>
<path d="M664,282.5H772.1" class="g1_12" />
<g clip-path="url(#c0_12)">
<g fill="#000000" >
<use xlink:href="#f1_e" transform="matrix(12,0,0,12,723.8,340.7)" />
<use xlink:href="#f1_a" transform="matrix(12,0,0,12,735,340.7)" />
<use xlink:href="#f1_n" transform="matrix(12,0,0,12,740.3,340.7)" />
<use xlink:href="#f1_4" transform="matrix(12,0,0,12,748.6,340.7)" />
<use xlink:href="#f1_k" transform="matrix(12,0,0,12,759.6,340.7)" />
<use xlink:href="#f1_s" transform="matrix(12,0,0,12,704.6,340.7)" />
</g>
</g>
<path d="M128.6,345.4H780.2M128.6,367.5H780.2M128.6,389.7H780.2M128.9,345v45M259.1,345v45M418.6,345v45M519.4,345v45M649.6,345v45M779.8,345v45" class="g0_12" />
<g clip-path="url(#c0_12)">
<g fill="#000000" >
<use xlink:href="#f2_l" transform="matrix(12,0,0,12,733.6,362.8)" />
<use xlink:href="#f2_r" transform="matrix(12,0,0,12,745.5,362.8)" />
<use xlink:href="#f2_c" transform="matrix(12,0,0,12,758.5,362.8)" />
<use xlink:href="#f2_4" transform="matrix(12,0,0,12,615.4,362.8)" />
<use xlink:href="#f2_3" transform="matrix(12,0,0,12,625.8,362.8)" />
<use xlink:href="#f2_3" transform="matrix(12,0,0,12,629.9,362.8)" />
<use xlink:href="#f2_n" transform="matrix(12,0,0,12,634,362.8)" />
<use xlink:href="#f2_r" transform="matrix(12,0,0,12,480.3,362.8)" />
<use xlink:href="#f2_n" transform="matrix(12,0,0,12,493.3,362.8)" />
<use xlink:href="#f2_o" transform="matrix(12,0,0,12,500.6,362.8)" />
<use xlink:href="#f2_12" transform="matrix(12,0,0,12,274.8,362.8)" />
<use xlink:href="#f2_v" transform="matrix(12,0,0,12,282,362.8)" />
<use xlink:href="#f2_q" transform="matrix(12,0,0,12,290.4,362.8)" />
<use xlink:href="#f2_6" transform="matrix(12,0,0,12,295.4,362.8)" />
<use xlink:href="#f2_f" transform="matrix(12,0,0,12,300.5,362.8)" />
<use xlink:href="#f2_u" transform="matrix(12,0,0,12,311.9,362.8)" />
<use xlink:href="#f2_v" transform="matrix(12,0,0,12,323.8,362.8)" />
<use xlink:href="#f2_e" transform="matrix(12,0,0,12,338.3,362.8)" />
<use xlink:href="#f2_s" transform="matrix(12,0,0,12,350.2,362.8)" />
<use xlink:href="#f2_e" transform="matrix(12,0,0,12,357.7,362.8)" />
<use xlink:href="#f2_n" transform="matrix(12,0,0,12,369.6,362.8)" />
<use xlink:href="#f2_11" transform="matrix(12,0,0,12,376.9,362.8)" />
<use xlink:href="#f2_q" transform="matrix(12,0,0,12,389.9,362.8)" />
<use xlink:href="#f2_f" transform="matrix(12,0,0,12,394.8,362.8)" />
<use xlink:href="#f2_3" transform="matrix(12,0,0,12,406.3,362.8)" />
<use xlink:href="#f2_e" transform="matrix(12,0,0,12,200.6,362.8)" />
<use xlink:href="#f2_l" transform="matrix(12,0,0,12,212.5,362.8)" />
<use xlink:href="#f2_j" transform="matrix(12,0,0,12,224.4,362.8)" />
<use xlink:href="#f2_3" transform="matrix(12,0,0,12,236.6,362.8)" />
<use xlink:href="#f2_g" transform="matrix(12,0,0,12,240.7,362.8)" />
<use xlink:href="#f2_3" transform="matrix(12,0,0,12,664.9,385)" />
<use xlink:href="#f2_j" transform="matrix(12,0,0,12,669,385)" />
<use xlink:href="#f2_r" transform="matrix(12,0,0,12,681.2,385)" />
<use xlink:href="#f2_3" transform="matrix(12,0,0,12,694.2,385)" />
<use xlink:href="#f2_4" transform="matrix(12,0,0,12,698.3,385)" />
<use xlink:href="#f2_b" transform="matrix(12,0,0,12,708.5,385)" />
<use xlink:href="#f2_j" transform="matrix(12,0,0,12,721,385)" />
<use xlink:href="#f2_q" transform="matrix(12,0,0,12,739.1,385)" />
<use xlink:href="#f2_6" transform="matrix(12,0,0,12,744.1,385)" />
<use xlink:href="#f2_f" transform="matrix(12,0,0,12,749.1,385)" />
<use xlink:href="#f2_h" transform="matrix(12,0,0,12,760.6,385)" />
<use xlink:href="#f2_g" transform="matrix(12,0,0,12,598.9,385)" />
<use xlink:href="#f2_6" transform="matrix(12,0,0,12,608.8,385)" />
<use xlink:href="#f2_r" transform="matrix(12,0,0,12,613.8,385)" />
<use xlink:href="#f2_3" transform="matrix(12,0,0,12,626.8,385)" />
<use xlink:href="#f2_4" transform="matrix(12,0,0,12,630.9,385)" />
<use xlink:href="#f2_q" transform="matrix(12,0,0,12,462.3,385)" />
<use xlink:href="#f2_6" transform="matrix(12,0,0,12,467.2,385)" />
<use xlink:href="#f2_g" transform="matrix(12,0,0,12,472.2,385)" />
<use xlink:href="#f2_m" transform="matrix(12,0,0,12,482.2,385)" />
<use xlink:href="#f2_6" transform="matrix(12,0,0,12,493.6,385)" />
<use xlink:href="#f2_b" transform="matrix(12,0,0,12,498.6,385)" />
<use xlink:href="#f2_e" transform="matrix(12,0,0,12,352.2,385)" />
<use xlink:href="#f2_r" transform="matrix(12,0,0,12,364.1,385)" />
<use xlink:href="#f2_3" transform="matrix(12,0,0,12,377,385)" />
<use xlink:href="#f2_t" transform="matrix(12,0,0,12,381.2,385)" />
<use xlink:href="#f2_6" transform="matrix(12,0,0,12,393.1,385)" />
<use xlink:href="#f2_b" transform="matrix(12,0,0,12,397.9,385)" />
<use xlink:href="#f2_7" transform="matrix(12,0,0,12,211.9,385)" />
<use xlink:href="#f2_5" transform="matrix(12,0,0,12,218.3,385)" />
<use xlink:href="#f2_4" transform="matrix(12,0,0,12,227.9,385)" />
<use xlink:href="#f2_b" transform="matrix(12,0,0,12,238.3,385)" />
</g>
<g fill="#0000FF" >
<use xlink:href="#f2_r" transform="matrix(12,0,0,12,669.9,426.4)" />
<use xlink:href="#f2_4" transform="matrix(12,0,0,12,682.9,426.4)" />
<use xlink:href="#f2_f" transform="matrix(12,0,0,12,693.1,426.4)" />
<use xlink:href="#f2_a" transform="matrix(12,0,0,12,704.6,426.4)" />
<use xlink:href="#f2_e" transform="matrix(12,0,0,12,720.9,426.4)" />
<use xlink:href="#f2_4" transform="matrix(12,0,0,12,732.8,426.4)" />
<use xlink:href="#f2_7" transform="matrix(12,0,0,12,743.2,426.4)" />
<use xlink:href="#f2_u" transform="matrix(12,0,0,12,749.6,426.4)" />
<use xlink:href="#f2_o" transform="matrix(12,0,0,12,761.5,426.4)" />
</g>
</g>
<path d="M669.8,428.2H772.1" class="g1_12" />
<g clip-path="url(#c0_12)">
<g fill="#000000" >
<use xlink:href="#f1_e" transform="matrix(12,0,0,12,723.8,486.4)" />
<use xlink:href="#f1_a" transform="matrix(12,0,0,12,735,486.4)" />
<use xlink:href="#f1_n" transform="matrix(12,0,0,12,740.3,486.4)" />
<use xlink:href="#f1_4" transform="matrix(12,0,0,12,748.6,486.4)" />
<use xlink:href="#f1_k" transform="matrix(12,0,0,12,759.6,486.4)" />
<use xlink:href="#f1_6" transform="matrix(12,0,0,12,704.6,486.4)" />
</g>
</g>
<path d="M128.6,491.3H458M128.6,513.4H458M128.6,535.6H458M128.6,579.1H458M128.6,601.3H458M128.6,623.4H458M128.6,645.6H458M128.6,667.7H458M128.9,490.9V668.1M280.5,490.9V668.1M457.6,490.9V668.1" class="g0_12" />
<g clip-path="url(#c0_12)">
<g fill="#000000" >
<use xlink:href="#f2_3" transform="matrix(12,0,0,12,355.4,508.6)" />
<use xlink:href="#f2_4" transform="matrix(12,0,0,12,359.5,508.6)" />
<use xlink:href="#f2_c" transform="matrix(12,0,0,12,369.8,508.6)" />
<use xlink:href="#f2_f" transform="matrix(12,0,0,12,382.8,508.6)" />
<use xlink:href="#f2_j" transform="matrix(12,0,0,12,394.3,508.6)" />
<use xlink:href="#f2_3" transform="matrix(12,0,0,12,412.3,508.6)" />
<use xlink:href="#f2_i" transform="matrix(12,0,0,12,416.4,508.6)" />
<use xlink:href="#f2_a" transform="matrix(12,0,0,12,428.5,508.6)" />
<use xlink:href="#f2_o" transform="matrix(12,0,0,12,438.9,508.6)" />
<use xlink:href="#f3_3" transform="matrix(11,0,0,11,137.7,507.2)" />
<use xlink:href="#f3_d" transform="matrix(11,0,0,11,142.4,507.2)" />
<use xlink:href="#f3_a" transform="matrix(11,0,0,11,155.4,507.2)" />
<use xlink:href="#f3_9" transform="matrix(11,0,0,11,163.8,507.2)" />
<use xlink:href="#f3_4" transform="matrix(11,0,0,11,172.2,507.2)" />
<use xlink:href="#f3_3" transform="matrix(11,0,0,11,178.7,507.2)" />
<use xlink:href="#f3_h" transform="matrix(11,0,0,11,183.4,507.2)" />
<use xlink:href="#f3_b" transform="matrix(11,0,0,11,191.7,507.2)" />
<use xlink:href="#f3_7" transform="matrix(11,0,0,11,196.4,507.2)" />
<use xlink:href="#f2_3" transform="matrix(12,0,0,12,396,530.8)" />
<use xlink:href="#f2_l" transform="matrix(12,0,0,12,400.1,530.8)" />
<use xlink:href="#f2_n" transform="matrix(12,0,0,12,412,530.8)" />
<use xlink:href="#f2_s" transform="matrix(12,0,0,12,419.3,530.8)" />
<use xlink:href="#f2_a" transform="matrix(12,0,0,12,426.8,530.8)" />
<use xlink:href="#f2_j" transform="matrix(12,0,0,12,437.2,530.8)" />
<use xlink:href="#f3_7" transform="matrix(11,0,0,11,137.7,529.4)" />
<use xlink:href="#f3_b" transform="matrix(11,0,0,11,145.1,529.4)" />
<use xlink:href="#f3_7" transform="matrix(11,0,0,11,149.8,529.4)" />
<use xlink:href="#f3_l" transform="matrix(11,0,0,11,157.3,529.4)" />
<use xlink:href="#f3_e" transform="matrix(11,0,0,11,165.6,529.4)" />
<use xlink:href="#f3_i" transform="matrix(11,0,0,11,173,529.4)" />
<use xlink:href="#f3_8" transform="matrix(11,0,0,11,181.4,529.4)" />
<use xlink:href="#f3_7" transform="matrix(11,0,0,11,186.1,529.4)" />
<use xlink:href="#f2_3" transform="matrix(12,0,0,12,417.8,552.9)" />
<use xlink:href="#f2_6" transform="matrix(12,0,0,12,422,552.9)" />
<use xlink:href="#f2_j" transform="matrix(12,0,0,12,426.8,552.9)" />
<use xlink:href="#f2_4" transform="matrix(12,0,0,12,439.1,552.9)" />
<use xlink:href="#f2_e" transform="matrix(12,0,0,12,310.6,574.3)" />
<use xlink:href="#f2_h" transform="matrix(12,0,0,12,322.5,574.3)" />
<use xlink:href="#f2_4" transform="matrix(12,0,0,12,333.4,574.3)" />
<use xlink:href="#f2_m" transform="matrix(12,0,0,12,343.7,574.3)" />
<use xlink:href="#f2_e" transform="matrix(12,0,0,12,355.2,574.3)" />
<use xlink:href="#f2_a" transform="matrix(12,0,0,12,367.2,574.3)" />
<use xlink:href="#f2_1f" transform="matrix(12,0,0,12,377.6,574.3)" />
<use xlink:href="#f2_e" transform="matrix(12,0,0,12,383.7,574.3)" />
<use xlink:href="#f2_5" transform="matrix(12,0,0,12,395.7,574.3)" />
<use xlink:href="#f2_4" transform="matrix(12,0,0,12,405.3,574.3)" />
<use xlink:href="#f2_m" transform="matrix(12,0,0,12,415.7,574.3)" />
<use xlink:href="#f2_e" transform="matrix(12,0,0,12,427.1,574.3)" />
<use xlink:href="#f2_a" transform="matrix(12,0,0,12,439,574.3)" />
<use xlink:href="#f3_e" transform="matrix(11,0,0,11,137.7,551.5)" />
<use xlink:href="#f3_2" transform="matrix(11,0,0,11,145.1,551.5)" />
<use xlink:href="#f3_d" transform="matrix(11,0,0,11,153.5,551.5)" />
<use xlink:href="#f3_3" transform="matrix(11,0,0,11,166.5,551.5)" />
<use xlink:href="#f3_6" transform="matrix(11,0,0,11,171.2,551.5)" />
<use xlink:href="#f3_e" transform="matrix(11,0,0,11,176.9,551.5)" />
<use xlink:href="#f3_h" transform="matrix(11,0,0,11,184.3,551.5)" />
<use xlink:href="#f3_b" transform="matrix(11,0,0,11,192.6,551.5)" />
<use xlink:href="#f3_7" transform="matrix(11,0,0,11,197.3,551.5)" />
<use xlink:href="#f2_i" transform="matrix(12,0,0,12,389.7,596.4)" />
<use xlink:href="#f2_3" transform="matrix(12,0,0,12,401.7,596.4)" />
<use xlink:href="#f2_g" transform="matrix(12,0,0,12,405.8,596.4)" />
<use xlink:href="#f2_4" transform="matrix(12,0,0,12,415.8,596.4)" />
<use xlink:href="#f2_f" transform="matrix(12,0,0,12,426.1,596.4)" />
<use xlink:href="#f2_t" transform="matrix(12,0,0,12,437.5,596.4)" />
<use xlink:href="#f3_p" transform="matrix(11,0,0,11,137.7,595.1)" />
<use xlink:href="#f3_4" transform="matrix(11,0,0,11,147.9,595.1)" />
<use xlink:href="#f3_a" transform="matrix(11,0,0,11,154.4,595.1)" />
<use xlink:href="#f3_e" transform="matrix(11,0,0,11,162.8,595.1)" />
<use xlink:href="#f3_s" transform="matrix(11,0,0,11,170.3,595.1)" />
<use xlink:href="#f3_9" transform="matrix(11,0,0,11,178.7,595.1)" />
<use xlink:href="#f3_b" transform="matrix(11,0,0,11,187.1,595.1)" />
<use xlink:href="#f2_e" transform="matrix(12,0,0,12,400.9,618.6)" />
<use xlink:href="#f2_n" transform="matrix(12,0,0,12,412.8,618.6)" />
<use xlink:href="#f2_6" transform="matrix(12,0,0,12,420.1,618.6)" />
<use xlink:href="#f2_j" transform="matrix(12,0,0,12,425.2,618.6)" />
<use xlink:href="#f2_i" transform="matrix(12,0,0,12,437.4,618.6)" />
<use xlink:href="#f3_e" transform="matrix(11,0,0,11,137.7,617.2)" />
<use xlink:href="#f3_5" transform="matrix(11,0,0,11,145.1,617.2)" />
<use xlink:href="#f3_5" transform="matrix(11,0,0,11,152.6,617.2)" />
<use xlink:href="#f3_3" transform="matrix(11,0,0,11,159.9,617.2)" />
<use xlink:href="#f3_2" transform="matrix(11,0,0,11,164.6,617.2)" />
<use xlink:href="#f3_7" transform="matrix(11,0,0,11,173,617.2)" />
<use xlink:href="#f3_i" transform="matrix(11,0,0,11,180.5,617.2)" />
<use xlink:href="#f3_8" transform="matrix(11,0,0,11,188.9,617.2)" />
<use xlink:href="#f3_7" transform="matrix(11,0,0,11,193.6,617.2)" />
<use xlink:href="#f2_3" transform="matrix(12,0,0,12,406.5,640.8)" />
<use xlink:href="#f2_n" transform="matrix(12,0,0,12,410.6,640.8)" />
<use xlink:href="#f2_6" transform="matrix(12,0,0,12,418,640.8)" />
<use xlink:href="#f2_3" transform="matrix(12,0,0,12,422.9,640.8)" />
<use xlink:href="#f2_b" transform="matrix(12,0,0,12,427,640.8)" />
<use xlink:href="#f2_g" transform="matrix(12,0,0,12,439.4,640.8)" />
<use xlink:href="#f3_3" transform="matrix(11,0,0,11,137.7,639.4)" />
<use xlink:href="#f3_d" transform="matrix(11,0,0,11,142.4,639.4)" />
<use xlink:href="#f3_e" transform="matrix(11,0,0,11,155.4,639.4)" />
<use xlink:href="#f3_l" transform="matrix(11,0,0,11,162.8,639.4)" />
<use xlink:href="#f3_3" transform="matrix(11,0,0,11,171.2,639.4)" />
<use xlink:href="#f3_i" transform="matrix(11,0,0,11,176,639.4)" />
<use xlink:href="#f3_e" transform="matrix(11,0,0,11,184.4,639.4)" />
<use xlink:href="#f3_h" transform="matrix(11,0,0,11,191.8,639.4)" />
<use xlink:href="#f3_b" transform="matrix(11,0,0,11,200.1,639.4)" />
<use xlink:href="#f3_7" transform="matrix(11,0,0,11,204.8,639.4)" />
<use xlink:href="#f2_3" transform="matrix(12,0,0,12,398.8,662.9)" />
<use xlink:href="#f2_j" transform="matrix(12,0,0,12,402.9,662.9)" />
<use xlink:href="#f2_n" transform="matrix(12,0,0,12,415.1,662.9)" />
<use xlink:href="#f2_6" transform="matrix(12,0,0,12,422.4,662.9)" />
<use xlink:href="#f2_5" transform="matrix(12,0,0,12,427.3,662.9)" />
<use xlink:href="#f2_b" transform="matrix(12,0,0,12,436.9,662.9)" />
<use xlink:href="#f3_d" transform="matrix(11,0,0,11,137.7,661.5)" />
<use xlink:href="#f3_7" transform="matrix(11,0,0,11,150.8,661.5)" />
<use xlink:href="#f3_5" transform="matrix(11,0,0,11,158.2,661.5)" />
<use xlink:href="#f3_f" transform="matrix(11,0,0,11,165.6,661.5)" />
<use xlink:href="#f3_i" transform="matrix(11,0,0,11,173,661.5)" />
<use xlink:href="#f3_3" transform="matrix(11,0,0,11,181.4,661.5)" />
<use xlink:href="#f3_5" transform="matrix(11,0,0,11,186.2,661.5)" />
<use xlink:href="#f3_9" transform="matrix(11,0,0,11,193.6,661.5)" />
</g>
<g fill="#0000FF" >
<use xlink:href="#f2_r" transform="matrix(12,0,0,12,669.9,685.1)" />
<use xlink:href="#f2_4" transform="matrix(12,0,0,12,682.9,685.1)" />
<use xlink:href="#f2_f" transform="matrix(12,0,0,12,693.1,685.1)" />
<use xlink:href="#f2_a" transform="matrix(12,0,0,12,704.6,685.1)" />
<use xlink:href="#f2_e" transform="matrix(12,0,0,12,720.9,685.1)" />
<use xlink:href="#f2_4" transform="matrix(12,0,0,12,732.8,685.1)" />
<use xlink:href="#f2_7" transform="matrix(12,0,0,12,743.2,685.1)" />
<use xlink:href="#f2_u" transform="matrix(12,0,0,12,749.6,685.1)" />
<use xlink:href="#f2_o" transform="matrix(12,0,0,12,761.5,685.1)" />
</g>
</g>
<path d="M669.8,686.9H772.1" class="g1_12" />
<g clip-path="url(#c0_12)">
<g fill="#000000" >
<use xlink:href="#f1_4" transform="matrix(12,0,0,12,466.4,749.2)" />
<use xlink:href="#f1_5" transform="matrix(12,0,0,12,477.4,749.2)" />
<use xlink:href="#f1_t" transform="matrix(12,0,0,12,489.5,749.2)" />
<use xlink:href="#f1_q" transform="matrix(12,0,0,12,501.9,749.2)" />
<use xlink:href="#f1_9" transform="matrix(12,0,0,12,519.4,749.2)" />
<use xlink:href="#f1_a" transform="matrix(12,0,0,12,532.2,749.2)" />
<use xlink:href="#f1_l" transform="matrix(12,0,0,12,537.6,749.2)" />
<use xlink:href="#f1_o" transform="matrix(12,0,0,12,549.8,749.2)" />
<use xlink:href="#f1_3" transform="matrix(12,0,0,12,562.3,749.2)" />
<use xlink:href="#f1_7" transform="matrix(12,0,0,12,575.7,749.2)" />
<use xlink:href="#f1_9" transform="matrix(12,0,0,12,594.6,749.2)" />
<use xlink:href="#f1_d" transform="matrix(12,0,0,12,607.5,749.2)" />
<use xlink:href="#f1_n" transform="matrix(12,0,0,12,613.7,749.2)" />
<use xlink:href="#f1_4" transform="matrix(12,0,0,12,622,749.2)" />
<use xlink:href="#f1_k" transform="matrix(12,0,0,12,633,749.2)" />
<use xlink:href="#f1_e" transform="matrix(12,0,0,12,651.7,749.2)" />
<use xlink:href="#f1_l" transform="matrix(12,0,0,12,662.9,749.2)" />
<use xlink:href="#f1_9" transform="matrix(12,0,0,12,681.5,749.2)" />
<use xlink:href="#f1_a" transform="matrix(12,0,0,12,694.1,749.2)" />
<use xlink:href="#f1_e" transform="matrix(12,0,0,12,699.5,749.2)" />
<use xlink:href="#f1_a" transform="matrix(12,0,0,12,710.6,749.2)" />
<use xlink:href="#f1_c" transform="matrix(12,0,0,12,716,749.2)" />
<use xlink:href="#f1_7" transform="matrix(12,0,0,12,735.7,749.2)" />
<use xlink:href="#f1_c" transform="matrix(12,0,0,12,748.2,749.2)" />
<use xlink:href="#f1_g" transform="matrix(12,0,0,12,761.5,749.2)" />
<use xlink:href="#f1_h" transform="matrix(12,0,0,12,458.9,749.2)" />
<use xlink:href="#f2_z" transform="matrix(12,0,0,12,718.2,770.6)" />
<use xlink:href="#f2_6" transform="matrix(12,0,0,12,729.8,770.6)" />
<use xlink:href="#f2_4" transform="matrix(12,0,0,12,734.8,770.6)" />
<use xlink:href="#f2_3" transform="matrix(12,0,0,12,745.2,770.6)" />
<use xlink:href="#f2_h" transform="matrix(12,0,0,12,749.3,770.6)" />
<use xlink:href="#f2_e" transform="matrix(12,0,0,12,760.2,770.6)" />
<use xlink:href="#f3_d" transform="matrix(11,0,0,11,620.7,770.6)" />
<use xlink:href="#f3_c" transform="matrix(11,0,0,11,633.9,770.6)" />
<use xlink:href="#f3_5" transform="matrix(11,0,0,11,642.3,770.6)" />
<use xlink:href="#f3_n" transform="matrix(11,0,0,11,649.7,770.6)" />
<use xlink:href="#f3_9" transform="matrix(11,0,0,11,658.1,770.6)" />
<use xlink:href="#f3_l" transform="matrix(11,0,0,11,673.1,770.6)" />
<use xlink:href="#f3_c" transform="matrix(11,0,0,11,681.5,770.6)" />
<use xlink:href="#f3_4" transform="matrix(11,0,0,11,689.9,770.6)" />
<use xlink:href="#f3_8" transform="matrix(11,0,0,11,696.4,770.6)" />
<use xlink:href="#f3_9" transform="matrix(11,0,0,11,701.2,770.6)" />
<use xlink:href="#f2_15" transform="matrix(12,0,0,12,138.1,770.6)" />
<use xlink:href="#f2_6" transform="matrix(12,0,0,12,148,770.6)" />
<use xlink:href="#f2_f" transform="matrix(12,0,0,12,152.9,770.6)" />
<use xlink:href="#f2_n" transform="matrix(12,0,0,12,164.4,770.6)" />
<use xlink:href="#f2_6" transform="matrix(12,0,0,12,171.7,770.6)" />
<use xlink:href="#f2_9" transform="matrix(12,0,0,12,185.1,770.6)" />
<use xlink:href="#f2_q" transform="matrix(12,0,0,12,190.9,770.6)" />
<use xlink:href="#f2_j" transform="matrix(12,0,0,12,196,770.6)" />
<use xlink:href="#f2_5" transform="matrix(12,0,0,12,208.2,770.6)" />
<use xlink:href="#f2_2" transform="matrix(12,0,0,12,226,770.6)" />
<use xlink:href="#f2_s" transform="matrix(12,0,0,12,238.2,770.6)" />
<use xlink:href="#f2_4" transform="matrix(12,0,0,12,245.7,770.6)" />
<use xlink:href="#f2_6" transform="matrix(12,0,0,12,256.1,770.6)" />
<use xlink:href="#f2_i" transform="matrix(12,0,0,12,261,770.6)" />
<use xlink:href="#f2_b" transform="matrix(12,0,0,12,273,770.6)" />
<use xlink:href="#f2_c" transform="matrix(12,0,0,12,285.5,770.6)" />
<use xlink:href="#f2_3" transform="matrix(12,0,0,12,306.7,770.6)" />
<use xlink:href="#f2_f" transform="matrix(12,0,0,12,310.8,770.6)" />
<use xlink:href="#f2_5" transform="matrix(12,0,0,12,322.3,770.6)" />
<use xlink:href="#f2_v" transform="matrix(12,0,0,12,340.3,770.6)" />
<use xlink:href="#f2_o" transform="matrix(12,0,0,12,348.7,770.6)" />
<use xlink:href="#f2_4" transform="matrix(12,0,0,12,359.2,770.6)" />
<use xlink:href="#f2_s" transform="matrix(12,0,0,12,377.8,770.6)" />
<use xlink:href="#f2_n" transform="matrix(12,0,0,12,385.3,770.6)" />
<use xlink:href="#f2_6" transform="matrix(12,0,0,12,392.6,770.6)" />
<use xlink:href="#f2_m" transform="matrix(12,0,0,12,397.6,770.6)" />
<use xlink:href="#f2_a" transform="matrix(12,0,0,12,409.1,770.6)" />
<use xlink:href="#f2_v" transform="matrix(12,0,0,12,419.5,770.6)" />
<use xlink:href="#f2_j" transform="matrix(12,0,0,12,436.3,770.6)" />
<use xlink:href="#f2_a" transform="matrix(12,0,0,12,448.5,770.6)" />
<use xlink:href="#f2_6" transform="matrix(12,0,0,12,458.9,770.6)" />
<use xlink:href="#f2_v" transform="matrix(12,0,0,12,472.1,770.6)" />
<use xlink:href="#f2_o" transform="matrix(12,0,0,12,480.5,770.6)" />
<use xlink:href="#f2_4" transform="matrix(12,0,0,12,491.1,770.6)" />
<use xlink:href="#f2_s" transform="matrix(12,0,0,12,509.8,770.6)" />
<use xlink:href="#f2_n" transform="matrix(12,0,0,12,517.3,770.6)" />
<use xlink:href="#f2_6" transform="matrix(12,0,0,12,524.7,770.6)" />
<use xlink:href="#f2_m" transform="matrix(12,0,0,12,529.7,770.6)" />
<use xlink:href="#f2_v" transform="matrix(12,0,0,12,541.1,770.6)" />
<use xlink:href="#f2_6" transform="matrix(12,0,0,12,557.7,770.6)" />
<use xlink:href="#f2_m" transform="matrix(12,0,0,12,562.8,770.6)" />
<use xlink:href="#f2_b" transform="matrix(12,0,0,12,574.2,770.6)" />
<use xlink:href="#f2_c" transform="matrix(12,0,0,12,586.6,770.6)" />
<use xlink:href="#f2_b" transform="matrix(12,0,0,12,599.6,770.6)" />
<use xlink:href="#f2_i" transform="matrix(12,0,0,12,138,792)" />
<use xlink:href="#f2_j" transform="matrix(12,0,0,12,150,792)" />
<use xlink:href="#f2_2" transform="matrix(12,0,0,12,169.2,792)" />
<use xlink:href="#f2_s" transform="matrix(12,0,0,12,181.4,792)" />
<use xlink:href="#f2_2" transform="matrix(12,0,0,12,196.1,792)" />
<use xlink:href="#f2_3" transform="matrix(12,0,0,12,208.1,792)" />
<use xlink:href="#f2_3" transform="matrix(12,0,0,12,212.2,792)" />
<use xlink:href="#f2_4" transform="matrix(12,0,0,12,216.3,792)" />
<use xlink:href="#f2_s" transform="matrix(12,0,0,12,226.7,792)" />
<use xlink:href="#f2_6" transform="matrix(12,0,0,12,234.2,792)" />
<use xlink:href="#f2_t" transform="matrix(12,0,0,12,239.2,792)" />
<use xlink:href="#f2_o" transform="matrix(12,0,0,12,251.1,792)" />
<use xlink:href="#f2_2" transform="matrix(12,0,0,12,268.6,792)" />
<use xlink:href="#f2_3" transform="matrix(12,0,0,12,280.8,792)" />
<use xlink:href="#f2_b" transform="matrix(12,0,0,12,285,792)" />
<use xlink:href="#f2_c" transform="matrix(12,0,0,12,297.3,792)" />
<use xlink:href="#f2_6" transform="matrix(12,0,0,12,310.3,792)" />
<use xlink:href="#f2_4" transform="matrix(12,0,0,12,315.3,792)" />
<use xlink:href="#f2_6" transform="matrix(12,0,0,12,325.6,792)" />
<use xlink:href="#f2_2" transform="matrix(12,0,0,12,337.6,792)" />
<use xlink:href="#f2_3" transform="matrix(12,0,0,12,349.8,792)" />
<use xlink:href="#f2_3" transform="matrix(12,0,0,12,353.9,792)" />
<use xlink:href="#f2_6" transform="matrix(12,0,0,12,358,792)" />
<use xlink:href="#f2_l" transform="matrix(12,0,0,12,363,792)" />
<use xlink:href="#f2_3" transform="matrix(12,0,0,12,374.9,792)" />
<use xlink:href="#f2_o" transform="matrix(12,0,0,12,379,792)" />
<use xlink:href="#f2_e" transform="matrix(12,0,0,12,389.6,792)" />
<use xlink:href="#f2_i" transform="matrix(12,0,0,12,408.5,792)" />
<use xlink:href="#f2_6" transform="matrix(12,0,0,12,420.5,792)" />
<use xlink:href="#f2_m" transform="matrix(12,0,0,12,425.6,792)" />
<use xlink:href="#f2_b" transform="matrix(12,0,0,12,437,792)" />
<use xlink:href="#f2_c" transform="matrix(12,0,0,12,449.4,792)" />
<use xlink:href="#f2_b" transform="matrix(12,0,0,12,462.4,792)" />
<use xlink:href="#f2_i" transform="matrix(12,0,0,12,481.9,792)" />
<use xlink:href="#f2_j" transform="matrix(12,0,0,12,493.9,792)" />
<use xlink:href="#f2_2" transform="matrix(12,0,0,12,513.2,792)" />
<use xlink:href="#f2_3" transform="matrix(12,0,0,12,525.4,792)" />
<use xlink:href="#f2_b" transform="matrix(12,0,0,12,529.5,792)" />
<use xlink:href="#f2_s" transform="matrix(12,0,0,12,542,792)" />
<use xlink:href="#f2_4" transform="matrix(12,0,0,12,549.4,792)" />
<use xlink:href="#f2_i" transform="matrix(12,0,0,12,559.7,792)" />
<use xlink:href="#f2_b" transform="matrix(12,0,0,12,571.7,792)" />
<use xlink:href="#f2_6" transform="matrix(12,0,0,12,591.3,792)" />
<use xlink:href="#f2_n" transform="matrix(12,0,0,12,596.3,792)" />
<use xlink:href="#f2_j" transform="matrix(12,0,0,12,603.6,792)" />
<use xlink:href="#f2_e" transform="matrix(12,0,0,12,622.8,792)" />
<use xlink:href="#f2_i" transform="matrix(12,0,0,12,634.7,792)" />
<use xlink:href="#f2_m" transform="matrix(12,0,0,12,646.8,792)" />
<use xlink:href="#f2_i" transform="matrix(12,0,0,12,665.4,792)" />
<use xlink:href="#f2_m" transform="matrix(12,0,0,12,677.4,792)" />
<use xlink:href="#f2_a" transform="matrix(12,0,0,12,688.9,792)" />
<use xlink:href="#f2_k" transform="matrix(12,0,0,12,706.3,792)" />
<use xlink:href="#f2_i" transform="matrix(12,0,0,12,712.1,792)" />
<use xlink:href="#f2_3" transform="matrix(12,0,0,12,724.1,792)" />
<use xlink:href="#f2_4" transform="matrix(12,0,0,12,728.2,792)" />
<use xlink:href="#f2_o" transform="matrix(12,0,0,12,738.6,792)" />
<use xlink:href="#f2_m" transform="matrix(12,0,0,12,749.1,792)" />
<use xlink:href="#f2_o" transform="matrix(12,0,0,12,760.6,792)" />
<use xlink:href="#f2_e" transform="matrix(12,0,0,12,138.4,813.4)" />
<use xlink:href="#f2_7" transform="matrix(12,0,0,12,150.3,813.4)" />
<use xlink:href="#f2_2" transform="matrix(12,0,0,12,163.1,813.4)" />
<use xlink:href="#f2_3" transform="matrix(12,0,0,12,175.3,813.4)" />
<use xlink:href="#f2_i" transform="matrix(12,0,0,12,179.4,813.4)" />
<use xlink:href="#f2_3" transform="matrix(12,0,0,12,191.5,813.4)" />
<use xlink:href="#f2_m" transform="matrix(12,0,0,12,195.6,813.4)" />
<use xlink:href="#f2_a" transform="matrix(12,0,0,12,207.1,813.4)" />
<use xlink:href="#f2_2" transform="matrix(12,0,0,12,223.8,813.4)" />
<use xlink:href="#f2_j" transform="matrix(12,0,0,12,236,813.4)" />
<use xlink:href="#f2_2" transform="matrix(12,0,0,12,254.8,813.4)" />
<use xlink:href="#f2_s" transform="matrix(12,0,0,12,267,813.4)" />
<use xlink:href="#f2_2" transform="matrix(12,0,0,12,281,813.4)" />
<use xlink:href="#f2_3" transform="matrix(12,0,0,12,293.1,813.4)" />
<use xlink:href="#f2_a" transform="matrix(12,0,0,12,297.2,813.4)" />
<use xlink:href="#f2_3" transform="matrix(12,0,0,12,307.6,813.4)" />
<use xlink:href="#f2_b" transform="matrix(12,0,0,12,311.7,813.4)" />
<use xlink:href="#f2_e" transform="matrix(12,0,0,12,324.2,813.4)" />
<use xlink:href="#f2_a" transform="matrix(12,0,0,12,342.6,813.4)" />
<use xlink:href="#f2_c" transform="matrix(12,0,0,12,353,813.4)" />
<use xlink:href="#f2_r" transform="matrix(12,0,0,12,372.5,813.4)" />
<use xlink:href="#f2_3" transform="matrix(12,0,0,12,385.5,813.4)" />
<use xlink:href="#f2_6" transform="matrix(12,0,0,12,389.5,813.4)" />
<use xlink:href="#f2_g" transform="matrix(12,0,0,12,394.5,813.4)" />
<use xlink:href="#f2_b" transform="matrix(12,0,0,12,404.4,813.4)" />
<use xlink:href="#f2_2" transform="matrix(12,0,0,12,423.5,813.4)" />
<use xlink:href="#f2_6" transform="matrix(12,0,0,12,435.7,813.4)" />
<use xlink:href="#f2_s" transform="matrix(12,0,0,12,440.7,813.4)" />
<use xlink:href="#f2_4" transform="matrix(12,0,0,12,448.2,813.4)" />
<use xlink:href="#f2_i" transform="matrix(12,0,0,12,458.4,813.4)" />
<use xlink:href="#f2_i" transform="matrix(12,0,0,12,477,813.4)" />
<use xlink:href="#f2_i" transform="matrix(12,0,0,12,489.1,813.4)" />
<use xlink:href="#f2_a" transform="matrix(12,0,0,12,501.1,813.4)" />
<use xlink:href="#f2_a" transform="matrix(12,0,0,12,518,813.4)" />
<use xlink:href="#f2_g" transform="matrix(12,0,0,12,528.4,813.4)" />
<use xlink:href="#f2_i" transform="matrix(12,0,0,12,538.4,813.4)" />
<use xlink:href="#f2_c" transform="matrix(12,0,0,12,550.4,813.4)" />
<use xlink:href="#f2_n" transform="matrix(12,0,0,12,563.4,813.4)" />
<use xlink:href="#f2_p" transform="matrix(12,0,0,12,577.2,813.4)" />
<use xlink:href="#f2_c" transform="matrix(12,0,0,12,587,813.4)" />
<use xlink:href="#f2_b" transform="matrix(12,0,0,12,600,813.4)" />
<use xlink:href="#f2_e" transform="matrix(12,0,0,12,612.5,813.4)" />
<use xlink:href="#f2_o" transform="matrix(12,0,0,12,624.4,813.4)" />
<use xlink:href="#f2_k" transform="matrix(12,0,0,12,641.5,813.4)" />
<use xlink:href="#f2_3" transform="matrix(12,0,0,12,647.3,813.4)" />
<use xlink:href="#f2_a" transform="matrix(12,0,0,12,651.4,813.4)" />
<use xlink:href="#f2_6" transform="matrix(12,0,0,12,661.8,813.4)" />
<use xlink:href="#f2_a" transform="matrix(12,0,0,12,666.8,813.4)" />
<use xlink:href="#f2_3" transform="matrix(12,0,0,12,677.2,813.4)" />
<use xlink:href="#f2_b" transform="matrix(12,0,0,12,681.3,813.4)" />
<use xlink:href="#f2_e" transform="matrix(12,0,0,12,693.8,813.4)" />
<use xlink:href="#f2_2" transform="matrix(12,0,0,12,712.1,813.4)" />
<use xlink:href="#f2_6" transform="matrix(12,0,0,12,724.3,813.4)" />
<use xlink:href="#f2_s" transform="matrix(12,0,0,12,729.4,813.4)" />
<use xlink:href="#f2_4" transform="matrix(12,0,0,12,736.8,813.4)" />
<use xlink:href="#f2_i" transform="matrix(12,0,0,12,747.2,813.4)" />
<use xlink:href="#f2_e" transform="matrix(12,0,0,12,759.3,813.4)" />
<use xlink:href="#f2_2" transform="matrix(12,0,0,12,138.1,834.8)" />
<use xlink:href="#f2_j" transform="matrix(12,0,0,12,150.3,834.8)" />
<use xlink:href="#f2_9" transform="matrix(12,0,0,12,173.1,834.8)" />
<use xlink:href="#f2_i" transform="matrix(12,0,0,12,178.9,834.8)" />
<use xlink:href="#f2_6" transform="matrix(12,0,0,12,190.8,834.8)" />
<use xlink:href="#f2_m" transform="matrix(12,0,0,12,195.8,834.8)" />
<use xlink:href="#f2_b" transform="matrix(12,0,0,12,207.3,834.8)" />
<use xlink:href="#f2_c" transform="matrix(12,0,0,12,219.8,834.8)" />
<use xlink:href="#f2_b" transform="matrix(12,0,0,12,232.7,834.8)" />
<use xlink:href="#f2_e" transform="matrix(12,0,0,12,245.3,834.8)" />
<use xlink:href="#f2_a" transform="matrix(12,0,0,12,267.5,834.8)" />
<use xlink:href="#f2_c" transform="matrix(12,0,0,12,277.9,834.8)" />
<use xlink:href="#f2_2" transform="matrix(12,0,0,12,301.3,834.8)" />
<use xlink:href="#f2_6" transform="matrix(12,0,0,12,313.5,834.8)" />
<use xlink:href="#f2_s" transform="matrix(12,0,0,12,318.5,834.8)" />
<use xlink:href="#f2_4" transform="matrix(12,0,0,12,326,834.8)" />
<use xlink:href="#f2_i" transform="matrix(12,0,0,12,336.2,834.8)" />
<use xlink:href="#f2_z" transform="matrix(12,0,0,12,358.8,834.8)" />
<use xlink:href="#f2_3" transform="matrix(12,0,0,12,370.4,834.8)" />
<use xlink:href="#f2_t" transform="matrix(12,0,0,12,374.5,834.8)" />
<use xlink:href="#f2_6" transform="matrix(12,0,0,12,386.4,834.8)" />
<use xlink:href="#f2_n" transform="matrix(12,0,0,12,391.4,834.8)" />
<use xlink:href="#f2_2" transform="matrix(12,0,0,12,409.1,834.8)" />
<use xlink:href="#f2_3" transform="matrix(12,0,0,12,421.3,834.8)" />
<use xlink:href="#f2_o" transform="matrix(12,0,0,12,425.4,834.8)" />
<use xlink:href="#f2_6" transform="matrix(12,0,0,12,436,834.8)" />
<use xlink:href="#f2_c" transform="matrix(12,0,0,12,441,834.8)" />
<use xlink:href="#f2_u" transform="matrix(12,0,0,12,454,834.8)" />
<use xlink:href="#f2_2" transform="matrix(12,0,0,12,476.3,834.8)" />
<use xlink:href="#f2_3" transform="matrix(12,0,0,12,488.5,834.8)" />
<use xlink:href="#f2_4" transform="matrix(12,0,0,12,492.6,834.8)" />
<use xlink:href="#f2_r" transform="matrix(12,0,0,12,502.8,834.8)" />
<use xlink:href="#f2_b" transform="matrix(12,0,0,12,515.8,834.8)" />
<use xlink:href="#f2_o" transform="matrix(12,0,0,12,528.3,834.8)" />
<use xlink:href="#f2_k" transform="matrix(12,0,0,12,549.3,834.8)" />
<use xlink:href="#f2_i" transform="matrix(12,0,0,12,555.1,834.8)" />
<use xlink:href="#f2_3" transform="matrix(12,0,0,12,567.2,834.8)" />
<use xlink:href="#f2_4" transform="matrix(12,0,0,12,571.3,834.8)" />
<use xlink:href="#f2_o" transform="matrix(12,0,0,12,581.7,834.8)" />
<use xlink:href="#f2_m" transform="matrix(12,0,0,12,592.2,834.8)" />
<use xlink:href="#f2_e" transform="matrix(12,0,0,12,603.7,834.8)" />
<use xlink:href="#f2_4" transform="matrix(12,0,0,12,625.9,834.8)" />
<use xlink:href="#f2_o" transform="matrix(12,0,0,12,636.3,834.8)" />
<use xlink:href="#f2_6" transform="matrix(12,0,0,12,646.9,834.8)" />
<use xlink:href="#f2_g" transform="matrix(12,0,0,12,651.9,834.8)" />
<use xlink:href="#f2_a" transform="matrix(12,0,0,12,661.9,834.8)" />
<use xlink:href="#f2_4" transform="matrix(12,0,0,12,682.7,834.8)" />
<use xlink:href="#f2_7" transform="matrix(12,0,0,12,692.9,834.8)" />
<use xlink:href="#f2_6" transform="matrix(12,0,0,12,699.3,834.8)" />
<use xlink:href="#f2_b" transform="matrix(12,0,0,12,704.2,834.8)" />
<use xlink:href="#f2_m" transform="matrix(12,0,0,12,727.3,834.8)" />
<use xlink:href="#f2_b" transform="matrix(12,0,0,12,738.7,834.8)" />
<use xlink:href="#f2_c" transform="matrix(12,0,0,12,751.1,834.8)" />
<use xlink:href="#f2_n" transform="matrix(12,0,0,12,764.1,834.8)" />
<use xlink:href="#f2_a" transform="matrix(12,0,0,12,346.3,856.2)" />
<use xlink:href="#f2_c" transform="matrix(12,0,0,12,356.7,856.2)" />
<use xlink:href="#f2_j" transform="matrix(12,0,0,12,376.8,856.2)" />
<use xlink:href="#f2_b" transform="matrix(12,0,0,12,389.1,856.2)" />
<use xlink:href="#f2_s" transform="matrix(12,0,0,12,401.6,856.2)" />
<use xlink:href="#f2_6" transform="matrix(12,0,0,12,409.1,856.2)" />
<use xlink:href="#f2_g" transform="matrix(12,0,0,12,414.1,856.2)" />
<use xlink:href="#f2_o" transform="matrix(12,0,0,12,424.1,856.2)" />
<use xlink:href="#f2_k" transform="matrix(12,0,0,12,441.8,856.2)" />
<use xlink:href="#f2_3" transform="matrix(12,0,0,12,447.7,856.2)" />
<use xlink:href="#f2_a" transform="matrix(12,0,0,12,451.8,856.2)" />
<use xlink:href="#f2_6" transform="matrix(12,0,0,12,462.2,856.2)" />
<use xlink:href="#f2_a" transform="matrix(12,0,0,12,467.2,856.2)" />
<use xlink:href="#f2_3" transform="matrix(12,0,0,12,477.6,856.2)" />
<use xlink:href="#f2_b" transform="matrix(12,0,0,12,481.5,856.2)" />
<use xlink:href="#f2_e" transform="matrix(12,0,0,12,494.1,856.2)" />
<use xlink:href="#f2_2" transform="matrix(12,0,0,12,513.1,856.2)" />
<use xlink:href="#f2_6" transform="matrix(12,0,0,12,525.3,856.2)" />
<use xlink:href="#f2_s" transform="matrix(12,0,0,12,530.4,856.2)" />
<use xlink:href="#f2_4" transform="matrix(12,0,0,12,537.8,856.2)" />
<use xlink:href="#f2_i" transform="matrix(12,0,0,12,548.1,856.2)" />
<use xlink:href="#f2_e" transform="matrix(12,0,0,12,560.1,856.2)" />
<use xlink:href="#f2_b" transform="matrix(12,0,0,12,572,856.2)" />
<use xlink:href="#f2_4" transform="matrix(12,0,0,12,591.7,856.2)" />
<use xlink:href="#f2_6" transform="matrix(12,0,0,12,602.1,856.2)" />
<use xlink:href="#f2_4" transform="matrix(12,0,0,12,607,856.2)" />
<use xlink:href="#f2_o" transform="matrix(12,0,0,12,617.3,856.2)" />
<use xlink:href="#f2_6" transform="matrix(12,0,0,12,635,856.2)" />
<use xlink:href="#f2_n" transform="matrix(12,0,0,12,640.1,856.2)" />
<use xlink:href="#f2_3" transform="matrix(12,0,0,12,647.4,856.2)" />
<use xlink:href="#f2_j" transform="matrix(12,0,0,12,651.5,856.2)" />
<use xlink:href="#f2_j" transform="matrix(12,0,0,12,670.9,856.2)" />
<use xlink:href="#f2_6" transform="matrix(12,0,0,12,683.1,856.2)" />
<use xlink:href="#f2_e" transform="matrix(12,0,0,12,688.1,856.2)" />
<use xlink:href="#f2_3" transform="matrix(12,0,0,12,707.2,856.2)" />
<use xlink:href="#f2_5" transform="matrix(12,0,0,12,711.3,856.2)" />
<use xlink:href="#f2_6" transform="matrix(12,0,0,12,728.1,856.2)" />
<use xlink:href="#f2_n" transform="matrix(12,0,0,12,733.1,856.2)" />
<use xlink:href="#f2_u" transform="matrix(12,0,0,12,740.4,856.2)" />
<use xlink:href="#f2_n" transform="matrix(12,0,0,12,752.3,856.2)" />
<use xlink:href="#f2_e" transform="matrix(12,0,0,12,759.7,856.2)" />
<use xlink:href="#f3_d" transform="matrix(11,0,0,11,251.2,856.2)" />
<use xlink:href="#f3_c" transform="matrix(11,0,0,11,264.3,856.2)" />
<use xlink:href="#f3_5" transform="matrix(11,0,0,11,272.7,856.2)" />
<use xlink:href="#f3_n" transform="matrix(11,0,0,11,280.2,856.2)" />
<use xlink:href="#f3_9" transform="matrix(11,0,0,11,288.6,856.2)" />
<use xlink:href="#f3_l" transform="matrix(11,0,0,11,302.4,856.2)" />
<use xlink:href="#f3_c" transform="matrix(11,0,0,11,310.8,856.2)" />
<use xlink:href="#f3_4" transform="matrix(11,0,0,11,319.2,856.2)" />
<use xlink:href="#f3_8" transform="matrix(11,0,0,11,325.6,856.2)" />
<use xlink:href="#f3_9" transform="matrix(11,0,0,11,330.4,856.2)" />
<use xlink:href="#f2_3" transform="matrix(12,0,0,12,137.7,856.2)" />
<use xlink:href="#f2_5" transform="matrix(12,0,0,12,141.8,856.2)" />
<use xlink:href="#f2_i" transform="matrix(12,0,0,12,158.4,856.2)" />
<use xlink:href="#f2_6" transform="matrix(12,0,0,12,170.4,856.2)" />
<use xlink:href="#f2_j" transform="matrix(12,0,0,12,175.4,856.2)" />
<use xlink:href="#f2_4" transform="matrix(12,0,0,12,187.7,856.2)" />
<use xlink:href="#f2_a" transform="matrix(12,0,0,12,198,856.2)" />
<use xlink:href="#f2_q" transform="matrix(12,0,0,12,215.6,856.2)" />
<use xlink:href="#f2_i" transform="matrix(12,0,0,12,220.5,856.2)" />
<use xlink:href="#f2_3" transform="matrix(12,0,0,12,232.5,856.2)" />
<use xlink:href="#f2_n" transform="matrix(12,0,0,12,236.6,856.2)" />
<use xlink:href="#f2_i" transform="matrix(12,0,0,12,138,877.6)" />
<use xlink:href="#f2_6" transform="matrix(12,0,0,12,150,877.6)" />
<use xlink:href="#f2_m" transform="matrix(12,0,0,12,155,877.6)" />
<use xlink:href="#f2_b" transform="matrix(12,0,0,12,166.5,877.6)" />
<use xlink:href="#f2_c" transform="matrix(12,0,0,12,178.9,877.6)" />
<use xlink:href="#f2_b" transform="matrix(12,0,0,12,191.8,877.6)" />
<use xlink:href="#f2_e" transform="matrix(12,0,0,12,204.3,877.6)" />
<use xlink:href="#f2_6" transform="matrix(12,0,0,12,216.3,877.6)" />
<use xlink:href="#f2_2" transform="matrix(12,0,0,12,231.8,877.6)" />
<use xlink:href="#f2_6" transform="matrix(12,0,0,12,244,877.6)" />
<use xlink:href="#f2_s" transform="matrix(12,0,0,12,249,877.6)" />
<use xlink:href="#f2_4" transform="matrix(12,0,0,12,256.5,877.6)" />
<use xlink:href="#f2_i" transform="matrix(12,0,0,12,266.9,877.6)" />
<use xlink:href="#f2_e" transform="matrix(12,0,0,12,278.9,877.6)" />
<use xlink:href="#f2_i" transform="matrix(12,0,0,12,301.5,877.6)" />
<use xlink:href="#f2_n" transform="matrix(12,0,0,12,313.6,877.6)" />
<use xlink:href="#f2_o" transform="matrix(12,0,0,12,320.9,877.6)" />
<use xlink:href="#f2_e" transform="matrix(12,0,0,12,331.4,877.6)" />
<use xlink:href="#f2_2" transform="matrix(12,0,0,12,354,877.6)" />
<use xlink:href="#f2_e" transform="matrix(12,0,0,12,366.2,877.6)" />
<use xlink:href="#f2_o" transform="matrix(12,0,0,12,378.1,877.6)" />
<use xlink:href="#f2_2" transform="matrix(12,0,0,12,399.2,877.6)" />
<use xlink:href="#f2_3" transform="matrix(12,0,0,12,411.2,877.6)" />
<use xlink:href="#f2_4" transform="matrix(12,0,0,12,415.3,877.6)" />
<use xlink:href="#f2_r" transform="matrix(12,0,0,12,425.7,877.6)" />
<use xlink:href="#f2_b" transform="matrix(12,0,0,12,438.7,877.6)" />
<use xlink:href="#f2_o" transform="matrix(12,0,0,12,451.2,877.6)" />
<use xlink:href="#f2_2" transform="matrix(12,0,0,12,472.2,877.6)" />
<use xlink:href="#f2_3" transform="matrix(12,0,0,12,484.5,877.6)" />
<use xlink:href="#f2_i" transform="matrix(12,0,0,12,488.6,877.6)" />
<use xlink:href="#f2_6" transform="matrix(12,0,0,12,500.6,877.6)" />
<use xlink:href="#f2_m" transform="matrix(12,0,0,12,505.5,877.6)" />
<use xlink:href="#f2_b" transform="matrix(12,0,0,12,517,877.6)" />
<use xlink:href="#f2_c" transform="matrix(12,0,0,12,529.5,877.6)" />
<use xlink:href="#f2_b" transform="matrix(12,0,0,12,542.3,877.6)" />
<use xlink:href="#f2_j" transform="matrix(12,0,0,12,565.5,877.6)" />
<use xlink:href="#f2_a" transform="matrix(12,0,0,12,577.7,877.6)" />
<use xlink:href="#f2_6" transform="matrix(12,0,0,12,588.1,877.6)" />
<use xlink:href="#f2_2" transform="matrix(12,0,0,12,603.7,877.6)" />
<use xlink:href="#f2_3" transform="matrix(12,0,0,12,615.9,877.6)" />
<use xlink:href="#f2_a" transform="matrix(12,0,0,12,620,877.6)" />
<use xlink:href="#f2_r" transform="matrix(12,0,0,12,630.4,877.6)" />
<use xlink:href="#f2_2" transform="matrix(12,0,0,12,653.9,877.6)" />
<use xlink:href="#f2_3" transform="matrix(12,0,0,12,665.9,877.6)" />
<use xlink:href="#f2_n" transform="matrix(12,0,0,12,670,877.6)" />
<use xlink:href="#f2_6" transform="matrix(12,0,0,12,677.4,877.6)" />
<use xlink:href="#f2_r" transform="matrix(12,0,0,12,682.4,877.6)" />
<use xlink:href="#f2_3" transform="matrix(12,0,0,12,695.4,877.6)" />
<use xlink:href="#f2_i" transform="matrix(12,0,0,12,699.5,877.6)" />
<use xlink:href="#f2_6" transform="matrix(12,0,0,12,722,877.6)" />
<use xlink:href="#f2_n" transform="matrix(12,0,0,12,727.1,877.6)" />
<use xlink:href="#f2_m" transform="matrix(12,0,0,12,734.4,877.6)" />
<use xlink:href="#f2_h" transform="matrix(12,0,0,12,745.9,877.6)" />
<use xlink:href="#f2_3" transform="matrix(12,0,0,12,756.7,877.6)" />
<use xlink:href="#f2_o" transform="matrix(12,0,0,12,760.8,877.6)" />
<use xlink:href="#f2_k" transform="matrix(12,0,0,12,659.4,898.9)" />
<use xlink:href="#f2_2" transform="matrix(12,0,0,12,665.2,898.9)" />
<use xlink:href="#f2_e" transform="matrix(12,0,0,12,677.4,898.9)" />
<use xlink:href="#f2_3" transform="matrix(12,0,0,12,689.3,898.9)" />
<use xlink:href="#f2_n" transform="matrix(12,0,0,12,693.4,898.9)" />
<use xlink:href="#f2_c" transform="matrix(12,0,0,12,700.8,898.9)" />
<use xlink:href="#f2_2" transform="matrix(12,0,0,12,719.6,898.9)" />
<use xlink:href="#f2_3" transform="matrix(12,0,0,12,731.8,898.9)" />
<use xlink:href="#f2_4" transform="matrix(12,0,0,12,735.9,898.9)" />
<use xlink:href="#f2_6" transform="matrix(12,0,0,12,746.1,898.9)" />
<use xlink:href="#f2_4" transform="matrix(12,0,0,12,751.1,898.9)" />
<use xlink:href="#f2_o" transform="matrix(12,0,0,12,761.5,898.9)" />
<use xlink:href="#f0_19" transform="matrix(16,0,0,16,764,964.8)" />
<use xlink:href="#f0_1a" transform="matrix(16,0,0,16,713.5,964.8)" />
<use xlink:href="#f0_x" transform="matrix(16,0,0,16,732.4,964.8)" />
<use xlink:href="#f0_r" transform="matrix(16,0,0,16,744.6,964.8)" />
<use xlink:href="#f0_13" transform="matrix(16,0,0,16,751.4,964.8)" />
<use xlink:href="#f0_1b" transform="matrix(16,0,0,16,705.5,964.8)" />
<use xlink:href="#f2_w" transform="matrix(12,0,0,12,732.3,1006.3)" />
<use xlink:href="#f2_q" transform="matrix(12,0,0,12,738.4,1006.3)" />
<use xlink:href="#f2_j" transform="matrix(12,0,0,12,743.4,1006.3)" />
<use xlink:href="#f2_6" transform="matrix(12,0,0,12,755.6,1006.3)" />
<use xlink:href="#f2_u" transform="matrix(12,0,0,12,760.6,1006.3)" />
<use xlink:href="#f2_k" transform="matrix(12,0,0,12,478,1006.3)" />
<use xlink:href="#f2_q" transform="matrix(12,0,0,12,483.9,1006.3)" />
<use xlink:href="#f2_j" transform="matrix(12,0,0,12,488.9,1006.3)" />
<use xlink:href="#f2_6" transform="matrix(12,0,0,12,501.1,1006.3)" />
<use xlink:href="#f2_u" transform="matrix(12,0,0,12,506.1,1006.3)" />
<use xlink:href="#f2_j" transform="matrix(12,0,0,12,523.9,1006.3)" />
<use xlink:href="#f2_6" transform="matrix(12,0,0,12,536.1,1006.3)" />
<use xlink:href="#f2_e" transform="matrix(12,0,0,12,541.1,1006.3)" />
<use xlink:href="#f2_3" transform="matrix(12,0,0,12,559,1006.3)" />
<use xlink:href="#f2_a" transform="matrix(12,0,0,12,563.1,1006.3)" />
<use xlink:href="#f2_c" transform="matrix(12,0,0,12,573.5,1006.3)" />
<use xlink:href="#f2_2" transform="matrix(12,0,0,12,592.3,1006.3)" />
<use xlink:href="#f2_c" transform="matrix(12,0,0,12,604.5,1006.3)" />
<use xlink:href="#f2_e" transform="matrix(12,0,0,12,617.4,1006.3)" />
<use xlink:href="#f2_k" transform="matrix(12,0,0,12,635.2,1006.3)" />
<use xlink:href="#f2_2" transform="matrix(12,0,0,12,641,1006.3)" />
<use xlink:href="#f2_6" transform="matrix(12,0,0,12,653.2,1006.3)" />
<use xlink:href="#f2_a" transform="matrix(12,0,0,12,658.2,1006.3)" />
<use xlink:href="#f2_c" transform="matrix(12,0,0,12,668.6,1006.3)" />
<use xlink:href="#f2_w" transform="matrix(12,0,0,12,728.1,1027.7)" />
<use xlink:href="#f2_e" transform="matrix(12,0,0,12,734.2,1027.7)" />
<use xlink:href="#f2_a" transform="matrix(12,0,0,12,746.2,1027.7)" />
<use xlink:href="#f2_3" transform="matrix(12,0,0,12,756.6,1027.7)" />
<use xlink:href="#f2_e" transform="matrix(12,0,0,12,760.7,1027.7)" />
<use xlink:href="#f2_k" transform="matrix(12,0,0,12,381.6,1027.7)" />
<use xlink:href="#f2_e" transform="matrix(12,0,0,12,387.5,1027.7)" />
<use xlink:href="#f2_a" transform="matrix(12,0,0,12,399.4,1027.7)" />
<use xlink:href="#f2_3" transform="matrix(12,0,0,12,409.8,1027.7)" />
<use xlink:href="#f2_e" transform="matrix(12,0,0,12,413.9,1027.7)" />
<use xlink:href="#f2_j" transform="matrix(12,0,0,12,431.6,1027.7)" />
<use xlink:href="#f2_6" transform="matrix(12,0,0,12,443.8,1027.7)" />
<use xlink:href="#f2_e" transform="matrix(12,0,0,12,448.8,1027.7)" />
<use xlink:href="#f2_3" transform="matrix(12,0,0,12,466.7,1027.7)" />
<use xlink:href="#f2_a" transform="matrix(12,0,0,12,470.8,1027.7)" />
<use xlink:href="#f2_c" transform="matrix(12,0,0,12,481.2,1027.7)" />
<use xlink:href="#f2_2" transform="matrix(12,0,0,12,500,1027.7)" />
<use xlink:href="#f2_c" transform="matrix(12,0,0,12,512.2,1027.7)" />
<use xlink:href="#f2_e" transform="matrix(12,0,0,12,525.2,1027.7)" />
<use xlink:href="#f2_k" transform="matrix(12,0,0,12,542.9,1027.7)" />
<use xlink:href="#f2_g" transform="matrix(12,0,0,12,548.7,1027.7)" />
<use xlink:href="#f2_6" transform="matrix(12,0,0,12,558.8,1027.7)" />
<use xlink:href="#f2_j" transform="matrix(12,0,0,12,563.7,1027.7)" />
<use xlink:href="#f2_b" transform="matrix(12,0,0,12,575.9,1027.7)" />
<use xlink:href="#f2_2" transform="matrix(12,0,0,12,594.2,1027.7)" />
<use xlink:href="#f2_3" transform="matrix(12,0,0,12,606.4,1027.7)" />
<use xlink:href="#f2_m" transform="matrix(12,0,0,12,610.5,1027.7)" />
<use xlink:href="#f2_n" transform="matrix(12,0,0,12,622,1027.7)" />
<use xlink:href="#f2_9" transform="matrix(12,0,0,12,635.2,1027.7)" />
<use xlink:href="#f2_2" transform="matrix(12,0,0,12,641,1027.7)" />
<use xlink:href="#f2_6" transform="matrix(12,0,0,12,653.2,1027.7)" />
<use xlink:href="#f2_a" transform="matrix(12,0,0,12,658.2,1027.7)" />
<use xlink:href="#f2_c" transform="matrix(12,0,0,12,668.6,1027.7)" />
<use xlink:href="#f2_w" transform="matrix(12,0,0,12,732.3,1049.1)" />
<use xlink:href="#f2_q" transform="matrix(12,0,0,12,738.4,1049.1)" />
<use xlink:href="#f2_j" transform="matrix(12,0,0,12,743.4,1049.1)" />
<use xlink:href="#f2_6" transform="matrix(12,0,0,12,755.6,1049.1)" />
<use xlink:href="#f2_u" transform="matrix(12,0,0,12,760.6,1049.1)" />
<use xlink:href="#f2_d" transform="matrix(12,0,0,12,506.8,1049.1)" />
<use xlink:href="#f2_q" transform="matrix(12,0,0,12,516.5,1049.1)" />
<use xlink:href="#f2_6" transform="matrix(12,0,0,12,521.5,1049.1)" />
<use xlink:href="#f2_5" transform="matrix(12,0,0,12,526.6,1049.1)" />
<use xlink:href="#f2_n" transform="matrix(12,0,0,12,536.2,1049.1)" />
<use xlink:href="#f2_i" transform="matrix(12,0,0,12,549.3,1049.1)" />
<use xlink:href="#f2_3" transform="matrix(12,0,0,12,561.4,1049.1)" />
<use xlink:href="#f2_a" transform="matrix(12,0,0,12,565.5,1049.1)" />
<use xlink:href="#f2_j" transform="matrix(12,0,0,12,575.9,1049.1)" />
<use xlink:href="#f2_4" transform="matrix(12,0,0,12,588.1,1049.1)" />
<use xlink:href="#f2_c" transform="matrix(12,0,0,12,598.5,1049.1)" />
<use xlink:href="#f2_3" transform="matrix(12,0,0,12,611.3,1049.1)" />
<use xlink:href="#f2_i" transform="matrix(12,0,0,12,621.4,1049.1)" />
<use xlink:href="#f2_j" transform="matrix(12,0,0,12,633.4,1049.1)" />
<use xlink:href="#f2_9" transform="matrix(12,0,0,12,651.6,1049.1)" />
<use xlink:href="#f2_e" transform="matrix(12,0,0,12,657.4,1049.1)" />
<use xlink:href="#f2_j" transform="matrix(12,0,0,12,669.3,1049.1)" />
<use xlink:href="#f2_w" transform="matrix(12,0,0,12,728.1,1070.5)" />
<use xlink:href="#f2_e" transform="matrix(12,0,0,12,734.2,1070.5)" />
<use xlink:href="#f2_a" transform="matrix(12,0,0,12,746.2,1070.5)" />
<use xlink:href="#f2_3" transform="matrix(12,0,0,12,756.6,1070.5)" />
<use xlink:href="#f2_e" transform="matrix(12,0,0,12,760.7,1070.5)" />
<use xlink:href="#f2_d" transform="matrix(12,0,0,12,409.4,1070.5)" />
<use xlink:href="#f2_e" transform="matrix(12,0,0,12,419.2,1070.5)" />
<use xlink:href="#f2_i" transform="matrix(12,0,0,12,431.1,1070.5)" />
<use xlink:href="#f2_j" transform="matrix(12,0,0,12,443.2,1070.5)" />
<use xlink:href="#f2_q" transform="matrix(12,0,0,12,461.2,1070.5)" />
<use xlink:href="#f2_5" transform="matrix(12,0,0,12,466.2,1070.5)" />
<use xlink:href="#f2_3" transform="matrix(12,0,0,12,475.8,1070.5)" />
<use xlink:href="#f2_e" transform="matrix(12,0,0,12,480,1070.5)" />
<use xlink:href="#f2_b" transform="matrix(12,0,0,12,491.9,1070.5)" />
<use xlink:href="#f2_e" transform="matrix(12,0,0,12,510.2,1070.5)" />
<use xlink:href="#f2_i" transform="matrix(12,0,0,12,522.1,1070.5)" />
<use xlink:href="#f2_j" transform="matrix(12,0,0,12,534.1,1070.5)" />
<use xlink:href="#f2_6" transform="matrix(12,0,0,12,546.4,1070.5)" />
<use xlink:href="#f2_k" transform="matrix(12,0,0,12,557.3,1070.5)" />
<use xlink:href="#f2_a" transform="matrix(12,0,0,12,563.2,1070.5)" />
<use xlink:href="#f2_j" transform="matrix(12,0,0,12,573.5,1070.5)" />
<use xlink:href="#f2_4" transform="matrix(12,0,0,12,585.8,1070.5)" />
<use xlink:href="#f2_c" transform="matrix(12,0,0,12,596.2,1070.5)" />
<use xlink:href="#f2_3" transform="matrix(12,0,0,12,609,1070.5)" />
<use xlink:href="#f2_b" transform="matrix(12,0,0,12,613.1,1070.5)" />
<use xlink:href="#f2_3" transform="matrix(12,0,0,12,631.4,1070.5)" />
<use xlink:href="#f2_n" transform="matrix(12,0,0,12,635.5,1070.5)" />
<use xlink:href="#f2_j" transform="matrix(12,0,0,12,642.8,1070.5)" />
<use xlink:href="#f2_9" transform="matrix(12,0,0,12,661,1070.5)" />
<use xlink:href="#f2_q" transform="matrix(12,0,0,12,666.8,1070.5)" />
<use xlink:href="#f2_5" transform="matrix(12,0,0,12,671.8,1070.5)" />
<use xlink:href="#f2_w" transform="matrix(12,0,0,12,732.3,1091.9)" />
<use xlink:href="#f2_q" transform="matrix(12,0,0,12,738.4,1091.9)" />
<use xlink:href="#f2_j" transform="matrix(12,0,0,12,743.4,1091.9)" />
<use xlink:href="#f2_6" transform="matrix(12,0,0,12,755.6,1091.9)" />
<use xlink:href="#f2_u" transform="matrix(12,0,0,12,760.6,1091.9)" />
<use xlink:href="#f2_k" transform="matrix(12,0,0,12,510.4,1091.9)" />
<use xlink:href="#f2_e" transform="matrix(12,0,0,12,516.2,1091.9)" />
<use xlink:href="#f2_3" transform="matrix(12,0,0,12,528.2,1091.9)" />
<use xlink:href="#f2_o" transform="matrix(12,0,0,12,532.3,1091.9)" />
<use xlink:href="#f2_b" transform="matrix(12,0,0,12,542.8,1091.9)" />
<use xlink:href="#f2_6" transform="matrix(12,0,0,12,555.2,1091.9)" />
<use xlink:href="#f2_a" transform="matrix(12,0,0,12,560.2,1091.9)" />
<use xlink:href="#f2_6" transform="matrix(12,0,0,12,570.6,1091.9)" />
<use xlink:href="#f2_r" transform="matrix(12,0,0,12,575.6,1091.9)" />
<use xlink:href="#f2_b" transform="matrix(12,0,0,12,588.5,1091.9)" />
<use xlink:href="#f2_9" transform="matrix(12,0,0,12,606.9,1091.9)" />
<use xlink:href="#f2_q" transform="matrix(12,0,0,12,612.7,1091.9)" />
<use xlink:href="#f2_j" transform="matrix(12,0,0,12,617.6,1091.9)" />
<use xlink:href="#f2_5" transform="matrix(12,0,0,12,629.8,1091.9)" />
<use xlink:href="#f2_b" transform="matrix(12,0,0,12,639.5,1091.9)" />
<use xlink:href="#f2_3" transform="matrix(12,0,0,12,657.9,1091.9)" />
<use xlink:href="#f2_n" transform="matrix(12,0,0,12,662,1091.9)" />
<use xlink:href="#f2_j" transform="matrix(12,0,0,12,669.4,1091.9)" />
<use xlink:href="#f2_w" transform="matrix(12,0,0,12,722.5,1113.3)" />
<use xlink:href="#f2_4" transform="matrix(12,0,0,12,728.6,1113.3)" />
<use xlink:href="#f2_h" transform="matrix(12,0,0,12,739,1113.3)" />
<use xlink:href="#f2_a" transform="matrix(12,0,0,12,749.8,1113.3)" />
<use xlink:href="#f2_b" transform="matrix(12,0,0,12,760.1,1113.3)" />
<use xlink:href="#f2_k" transform="matrix(12,0,0,12,384.8,1113.3)" />
<use xlink:href="#f2_12" transform="matrix(12,0,0,12,390.7,1113.3)" />
<use xlink:href="#f2_p" transform="matrix(12,0,0,12,397.8,1113.3)" />
<use xlink:href="#f2_5" transform="matrix(12,0,0,12,407.6,1113.3)" />
<use xlink:href="#f2_4" transform="matrix(12,0,0,12,423,1113.3)" />
<use xlink:href="#f2_u" transform="matrix(12,0,0,12,433.4,1113.3)" />
<use xlink:href="#f2_j" transform="matrix(12,0,0,12,445.3,1113.3)" />
<use xlink:href="#f2_g" transform="matrix(12,0,0,12,463.4,1113.3)" />
<use xlink:href="#f2_m" transform="matrix(12,0,0,12,473.4,1113.3)" />
<use xlink:href="#f2_w" transform="matrix(12,0,0,12,490.8,1113.3)" />
<use xlink:href="#f2_i" transform="matrix(12,0,0,12,496.9,1113.3)" />
<use xlink:href="#f2_3" transform="matrix(12,0,0,12,508.9,1113.3)" />
<use xlink:href="#f2_a" transform="matrix(12,0,0,12,513,1113.3)" />
<use xlink:href="#f2_6" transform="matrix(12,0,0,12,523.4,1113.3)" />
<use xlink:href="#f2_a" transform="matrix(12,0,0,12,528.4,1113.3)" />
<use xlink:href="#f2_3" transform="matrix(12,0,0,12,538.8,1113.3)" />
<use xlink:href="#f2_b" transform="matrix(12,0,0,12,542.9,1113.3)" />
<use xlink:href="#f2_11" transform="matrix(12,0,0,12,555.3,1113.3)" />
<use xlink:href="#f2_i" transform="matrix(12,0,0,12,568.4,1113.3)" />
<use xlink:href="#f2_6" transform="matrix(12,0,0,12,580.3,1113.3)" />
<use xlink:href="#f2_j" transform="matrix(12,0,0,12,585.3,1113.3)" />
<use xlink:href="#f2_4" transform="matrix(12,0,0,12,597.6,1113.3)" />
<use xlink:href="#f2_i" transform="matrix(12,0,0,12,607.9,1113.3)" />
<use xlink:href="#f2_e" transform="matrix(12,0,0,12,620,1113.3)" />
<use xlink:href="#f2_a" transform="matrix(12,0,0,12,631.9,1113.3)" />
<use xlink:href="#f2_9" transform="matrix(12,0,0,12,648.2,1113.3)" />
<use xlink:href="#f2_o" transform="matrix(12,0,0,12,654,1113.3)" />
<use xlink:href="#f2_6" transform="matrix(12,0,0,12,664.6,1113.3)" />
<use xlink:href="#f2_l" transform="matrix(12,0,0,12,669.6,1113.3)" />
<use xlink:href="#f2_w" transform="matrix(12,0,0,12,732.3,1134.7)" />
<use xlink:href="#f2_q" transform="matrix(12,0,0,12,738.4,1134.7)" />
<use xlink:href="#f2_j" transform="matrix(12,0,0,12,743.4,1134.7)" />
<use xlink:href="#f2_6" transform="matrix(12,0,0,12,755.6,1134.7)" />
<use xlink:href="#f2_u" transform="matrix(12,0,0,12,760.6,1134.7)" />
<use xlink:href="#f2_k" transform="matrix(12,0,0,12,601.8,1134.7)" />
<use xlink:href="#f2_i" transform="matrix(12,0,0,12,607.6,1134.7)" />
<use xlink:href="#f2_6" transform="matrix(12,0,0,12,619.6,1134.7)" />
<use xlink:href="#f2_j" transform="matrix(12,0,0,12,624.7,1134.7)" />
<use xlink:href="#f2_4" transform="matrix(12,0,0,12,636.9,1134.7)" />
<use xlink:href="#f2_i" transform="matrix(12,0,0,12,647.3,1134.7)" />
<use xlink:href="#f2_e" transform="matrix(12,0,0,12,659.3,1134.7)" />
<use xlink:href="#f2_a" transform="matrix(12,0,0,12,671.2,1134.7)" />
<use xlink:href="#f2_x" transform="matrix(12,0,0,12,137.7,1208.5)" />
<use xlink:href="#f2_y" transform="matrix(12,0,0,12,149.3,1208.5)" />
</g>
</g>
<image preserveAspectRatio="none" x="139" y="913" width="49" height="43" xlink:href="img/1.png" />
<defs>
<path d="M721,-14c0,0,-12,0,-12,9l4,28c0,0,17,82,17,338c0,0,0,105,-11,163c0,0,-11,58,-35,84c0,0,-25,26,-83,26H315c0,0,-43,-39,-67,-90c0,0,-25,-51,-25,-104c0,0,0,-59,17,-104c0,0,17,-45,35,-78c0,0,18,-34,18,-44c0,0,0,-26,-20,-95C273,119,252,50,231,0H26L87,214h69c0,0,23,0,23,14l-7,15c0,0,-15,27,-27,68c0,0,-11,41,-11,83c0,0,0,68,25,124c0,0,25,57,86,116H200c0,0,-45,0,-71,32c0,0,-27,33,-27,94c0,0,0,49,17,93c0,0,16,43,32,43c0,0,17,0,17,-10V869c0,0,0,-24,27,-24H637c0,0,73,0,103,-18c0,0,30,-17,46,-62c0,0,17,-46,24,-124c0,0,8,-78,8,-214V338c0,0,0,-279,-27,-311c0,0,-14,-16,-37,-28c0,0,-23,-13,-33,-13Z" 
id="f0_9"
transform="scale(0.001,-0.001)" />

<path d="M204,-8c0,0,-9,0,-11,5c0,0,-2,5,-2,22V549c0,0,0,40,-4,56c0,0,-4,16,-15,22c0,0,-10,7,-39,7H90c0,0,-33,0,-52,33c0,0,-19,33,-19,90c0,0,0,53,15,98c0,0,16,44,35,44c0,0,12,0,12,-13V872c0,0,0,-27,31,-27h42c0,0,79,0,103,-20c0,0,23,-19,23,-83V67c0,0,0,-16,-8,-26c0,0,-9,-10,-33,-30c0,0,-25,-19,-35,-19Z" 
id="f0_4"
transform="scale(0.001,-0.001)" />

<path d="M20,0L75,212H492c0,0,19,51,25,97c0,0,5,46,5,105c0,0,0,63,-6,124c0,0,-6,61,-23,78c0,0,-16,18,-66,18H112c0,0,-36,0,-57,40c0,0,-21,40,-21,101c0,0,0,50,16,87c0,0,16,36,36,36c0,0,13,0,13,-14V870c0,0,0,-25,34,-25H457c0,0,63,0,92,-11c0,0,28,-10,41,-36c0,0,13,-26,18,-107c0,0,4,-80,4,-174c0,0,0,-174,-13,-224c0,0,-4,-15,-21,-41c0,0,-17,-25,-31,-40H688L640,0Z" 
id="f0_c"
transform="scale(0.001,-0.001)" />

<path d="M216,0c0,0,-59,212,-83,350c0,0,-25,139,-25,198c0,0,0,76,23,127c0,0,-42,13,-58,43c0,0,-15,30,-15,72c0,0,0,40,20,74c0,0,20,34,37,34c0,0,10,0,10,-13c0,0,0,-42,69,-42c0,0,57,0,80,-21c0,0,22,-21,22,-62c0,0,0,-38,-7,-72c0,0,-6,-34,-12,-34c0,0,-6,0,-16,10c0,0,-10,10,-25,10c0,0,-25,0,-35,-24c0,0,-10,-24,-10,-71c0,0,0,-164,72,-374c0,0,38,80,116,231c0,0,87,168,121,238c0,0,-36,6,-52,34c0,0,-17,28,-17,66c0,0,0,41,21,82c0,0,20,42,37,42c0,0,9,0,10,-7c0,0,5,-22,13,-32c0,0,9,-11,32,-12l44,-4c0,0,87,-4,87,-94c0,0,0,-33,-7,-67c0,0,-8,-34,-16,-34l-16,10c0,0,-15,10,-30,10c0,0,-22,0,-39,-29c0,0,-18,-32,-39,-72c0,0,-21,-41,-178,-355H691l38,91c0,0,58,139,124,224c0,0,38,50,60,80c0,0,22,29,22,45c0,0,0,12,-7,19c0,0,-6,7,-27,12c0,0,-42,18,-60,41c0,0,-17,24,-17,59c0,0,0,29,11,56c0,0,12,27,27,43c0,0,16,16,26,16c0,0,9,-1,10,-6l4,-14c0,0,4,-21,27,-25l70,-13c0,0,32,-6,51,-30c0,0,20,-24,20,-61c0,0,-2,-45,-23,-87c0,0,-21,-41,-91,-127c0,0,-46,-57,-77,-116c0,0,-31,-59,-71,-161L706,0Z" 
id="f0_3"
transform="scale(0.001,-0.001)" />

<path d="M248,0L521,658H66v429H313V836l493,-1V716L504,0Z" 
id="f1_e"
transform="scale(0.001,-0.001)" />

<path d="M102,250V836H349V351L102,250Z" 
id="f1_a"
transform="scale(0.001,-0.001)" />

<path d="M154,-13c0,0,-38,0,-85,9V198c0,0,58,-15,103,-15c0,0,84,0,118,60c0,0,35,61,35,206c0,0,0,66,-7,105c0,0,-6,39,-24,63c0,0,-17,25,-44,33c0,0,-27,8,-73,8H66V836H225c0,0,198,0,275,-115c0,0,56,-84,65,-264c0,0,3,-55,3,-148c0,0,0,-177,71,-309L393,1c0,0,-53,130,-54,141c0,0,-28,-90,-65,-123c0,0,-38,-32,-120,-32Z" 
id="f1_n"
transform="scale(0.001,-0.001)" />

<path d="M534,0V425c0,0,0,109,-41,171c0,0,-41,62,-140,62H66V836H352c0,0,99,0,174,-20c0,0,75,-20,123,-55c0,0,48,-35,78,-87c0,0,30,-53,42,-113c0,0,12,-60,12,-136V0Z" 
id="f1_4"
transform="scale(0.001,-0.001)" />

<path d="M173,-6C173,-6,61,-6,15,9V177c0,0,73,-10,82,-10c0,0,37,0,52,30c0,0,14,29,14,116V658H18V836H516c0,0,262,0,341,-145c0,0,48,-89,48,-242V0H658V450c0,0,0,131,-37,171c0,0,-34,37,-105,37H411V313c0,0,0,-189,-67,-258C344,55,285,-6,173,-6Z" 
id="f1_k"
transform="scale(0.001,-0.001)" />

<path d="M180,0V198H433V918L173,864v196l258,54H705V198H958V0Z" 
id="f1_r"
transform="scale(0.001,-0.001)" />

<path d="M154,0V454l138,56V0ZM722,0V454c0,0,0,161,-49,218c0,0,-48,57,-186,57H139V836H485c0,0,207,0,291,-93c0,0,83,-94,83,-318V0Z" 
id="f2_e"
transform="scale(0.001,-0.001)" />

<path d="M66,0V107H332V555c0,0,0,92,-37,133c0,0,-37,41,-116,41H85V836h94c0,0,153,0,223,-66c0,0,69,-66,69,-231V0Z" 
id="f2_n"
transform="scale(0.001,-0.001)" />

<path d="M66,0V107H554V452c0,0,0,56,-4,93c0,0,-4,37,-18,75c0,0,-14,38,-40,60c0,0,-26,22,-71,36c0,0,-45,13,-110,13H66V836H312c0,0,91,0,157,-17c0,0,66,-17,109,-49c0,0,44,-32,69,-84c0,0,26,-52,36,-114c0,0,10,-62,10,-147V107H817V0Z" 
id="f2_o"
transform="scale(0.001,-0.001)" />

<path d="M139,0V106H400c0,0,176,0,253,71c0,0,78,72,78,250c0,0,0,163,-80,233c0,0,-81,69,-250,69H278L277,564c0,0,-1,-54,26,-80c0,0,27,-25,82,-25c0,0,30,0,80,9V355c0,0,-61,-12,-111,-12c0,0,-100,0,-157,55c0,0,-58,55,-58,186V836H456c0,0,193,0,303,-109c0,0,110,-109,110,-309c0,0,0,-200,-110,-309C759,109,648,0,456,0Z" 
id="f2_f"
transform="scale(0.001,-0.001)" />

<path d="M114,0l60,312c0,0,2,12,8,39c0,0,6,27,7,37c0,0,2,11,5,30c0,0,2,19,4,33c0,0,1,15,1,31c0,0,0,48,-35,146c0,0,-35,98,-98,208H228c0,0,3,-8,27,-67c0,0,25,-58,41,-117c0,0,21,53,50,90c0,0,29,37,57,57c0,0,29,21,65,32c0,0,37,11,65,14c0,0,28,3,67,3c0,0,300,0,300,-396V0H480V106H761V452c0,0,0,146,-46,215c0,0,-45,70,-118,70c0,0,-134,0,-198,-119c0,0,-36,-68,-67,-222c0,0,-2,-10,-6,-27L253,0Z" 
id="f2_b"
transform="scale(0.001,-0.001)" />

<path d="M139,-317V836H278V-317Z" 
id="f2_q"
transform="scale(0.001,-0.001)" />

<path d="M139,0V836H278V0Z" 
id="f2_6"
transform="scale(0.001,-0.001)" />

<path d="M287,0L589,729H66v386H205V836l547,-1l-2,-82L433,0Z" 
id="f2_a"
transform="scale(0.001,-0.001)" />

<path d="M102,312V836H241V369L102,312Z" 
id="f2_3"
transform="scale(0.001,-0.001)" />

<path d="M71,-141V-15L289,62L66,836H210L416,109c0,0,99,42,153,98c0,0,53,56,80,155c0,0,26,98,26,262V836H817V624c0,0,0,-88,-7,-154c0,0,-7,-67,-25,-132c0,0,-18,-66,-51,-116c0,0,-33,-51,-84,-98c0,0,-50,-48,-123,-87c0,0,-72,-39,-169,-74L71,-141Z" 
id="f2_m"
transform="scale(0.001,-0.001)" />

<path d="M522,-20c0,0,-196,0,-290,99c0,0,-94,100,-94,324V836H276V397c0,0,0,-86,16,-147c0,0,17,-60,50,-94c0,0,34,-34,77,-49c0,0,43,-15,103,-15c0,0,59,0,102,15c0,0,44,15,77,49c0,0,33,34,50,94c0,0,17,61,17,147c0,0,0,84,-8,143c0,0,-7,58,-25,105c0,0,-17,47,-51,69c0,0,-33,23,-83,23c0,0,-50,0,-119,-22V821c0,0,85,23,150,23c0,0,76,0,130,-30c0,0,53,-31,85,-90c0,0,31,-59,45,-138c0,0,13,-78,13,-183c0,0,0,-224,-93,-324c0,0,-94,-99,-290,-99Z" 
id="f2_l"
transform="scale(0.001,-0.001)" />

<path d="M495,0V729H66V836H781V729H634V0Z" 
id="f2_g"
transform="scale(0.001,-0.001)" />

<path d="M522,92c0,0,247,0,247,333c0,0,0,88,-17,146c0,0,-17,58,-53,91c0,0,-35,33,-82,46c0,0,-48,14,-116,14H276V419c0,0,0,-327,246,-327Zm0,-112c0,0,-193,0,-289,109c0,0,-95,110,-95,337V836H501c0,0,213,0,309,-93c0,0,96,-94,96,-317c0,0,0,-227,-95,-337C811,89,715,-20,522,-20Z" 
id="f2_t"
transform="scale(0.001,-0.001)" />

<path d="M156,-317V454l139,56V-317ZM505,0L806,729H139V835H967V753L650,0Z" 
id="f2_r"
transform="scale(0.001,-0.001)" />

<path d="M180,0L66,836H203L258,443c0,0,36,1,64,6c0,0,28,6,49,18c0,0,20,12,35,26c0,0,15,13,26,36c0,0,11,24,17,44c0,0,7,20,12,55c0,0,6,34,9,60c0,0,3,26,8,71c0,0,4,45,9,77H610c0,0,-13,-194,-31,-271c0,0,-31,-127,-111,-179c0,0,-71,-45,-196,-50L304,107c0,0,73,0,130,5c0,0,56,6,111,21c0,0,54,15,94,40c0,0,40,25,77,64c0,0,37,39,63,94c0,0,25,54,46,128c0,0,21,73,34,166c0,0,13,94,20,211h138c0,0,-14,-124,-29,-218c0,0,-16,-94,-39,-179c0,0,-22,-85,-50,-146c0,0,-28,-61,-68,-112c0,0,-39,-51,-87,-84C744,97,696,65,632,42C632,42,568,19,492,10C492,10,417,0,320,0Z" 
id="f2_c"
transform="scale(0.001,-0.001)" />

<path d="M585,0V426c0,0,0,54,-8,98c0,0,-8,44,-27,83c0,0,-19,40,-49,66c0,0,-30,26,-77,41c0,0,-47,15,-108,15H66V836H315c0,0,94,0,166,-20c0,0,71,-20,116,-54c0,0,46,-35,75,-88c0,0,28,-52,40,-112c0,0,12,-60,12,-137V0Z" 
id="f2_4"
transform="scale(0.001,-0.001)" />

<path d="M138,-7c0,0,-34,0,-72,10V129c0,0,25,-8,52,-8c0,0,33,0,58,5c0,0,26,5,58,24c0,0,33,20,53,54c0,0,21,34,36,97c0,0,15,64,15,151c0,0,0,113,-19,173c0,0,-19,60,-56,82c0,0,-38,22,-107,22H89V836h72c0,0,165,0,240,-91c0,0,76,-91,76,-293c0,0,0,-107,26,-227c0,0,25,-119,83,-225H437c0,0,-43,101,-62,184c0,0,-24,-60,-51,-99c0,0,-26,-38,-56,-58C268,27,239,7,209,0c0,0,-30,-7,-71,-7Z" 
id="f2_s"
transform="scale(0.001,-0.001)" />

<path d="M112,-5c0,0,-39,0,-97,11V113c0,0,48,-10,77,-10c0,0,53,0,70,42c0,0,17,43,17,164V729H50V836H501c0,0,107,0,179,-25c0,0,72,-25,112,-77c0,0,40,-51,57,-118c0,0,16,-67,16,-164V0H726V454c0,0,0,55,-3,92c0,0,-4,37,-17,75c0,0,-14,38,-38,59c0,0,-24,22,-65,36c0,0,-42,13,-102,13H318V309c0,0,0,-160,-46,-237C272,72,226,-5,112,-5Z" 
id="f2_i"
transform="scale(0.001,-0.001)" />

<path d="M66,0V106H564L66,836H228L516,413c0,0,3,2,9,6c0,0,17,13,27,21c0,0,10,8,26,27c0,0,17,20,26,40c0,0,9,21,16,54c0,0,7,34,7,75V836H764V698c0,0,0,-55,-7,-102c0,0,-7,-47,-16,-79c0,0,-10,-33,-27,-62c0,0,-18,-29,-32,-46c0,0,-14,-17,-37,-35c0,0,-22,-17,-36,-25c0,0,-13,-8,-36,-20L767,53V0Z" 
id="f2_h"
transform="scale(0.001,-0.001)" />

<path d="M152,0V473c0,0,0,94,28,161c0,0,29,66,71,95H66V836H463V729H404c0,0,-65,0,-89,-57c0,0,-25,-58,-25,-199V0Z" 
id="f2_7"
transform="scale(0.001,-0.001)" />

<path d="M139,0V836H485c0,0,206,0,290,-90c0,0,84,-89,84,-294V0H721V473c0,0,0,147,-49,202c0,0,-48,54,-186,54H277V0Z" 
id="f2_u"
transform="scale(0.001,-0.001)" />

<path d="M121,0V211L528,570c0,0,54,50,80,96c0,0,27,47,27,98c0,0,0,78,-53,126c0,0,-53,48,-140,48c0,0,-67,0,-147,-29c0,0,-80,-28,-171,-85v245c0,0,97,32,192,48c0,0,95,17,186,17c0,0,199,0,310,-88c0,0,111,-88,111,-245c0,0,0,-91,-47,-170c0,0,-47,-79,-197,-211L441,211H931V0Z" 
id="f1_s"
transform="scale(0.001,-0.001)" />

<path d="M354,-200c0,0,-112,175,-167,343c0,0,-56,170,-56,337c0,0,0,166,55,335c0,0,55,169,168,345H473c0,0,-100,-172,-148,-340c0,0,-48,-168,-48,-340c0,0,0,-173,48,-342c0,0,49,-168,148,-338Z" 
id="f2_12"
transform="scale(0.001,-0.001)" />

<path d="M147,700v414H274V700Zm282,0v414H556V700Z" 
id="f2_v"
transform="scale(0.001,-0.001)" />

<path d="M122,-200c0,0,99,170,148,338c0,0,49,169,49,342c0,0,0,172,-49,340c0,0,-49,168,-148,340H241c0,0,112,-176,168,-345c0,0,55,-169,55,-335c0,0,0,-167,-55,-337c0,0,-56,-168,-168,-343Z" 
id="f2_11"
transform="scale(0.001,-0.001)" />

<path d="M139,0V138c0,0,0,61,8,112c0,0,7,52,19,87c0,0,11,36,30,66c0,0,19,31,35,49c0,0,17,19,41,35c0,0,25,17,41,25c0,0,17,7,40,17L141,836H303L613,388c0,0,20,10,33,18c0,0,13,8,34,28c0,0,20,20,33,44c0,0,13,25,22,66c0,0,10,41,10,92V836H882V698c0,0,0,-61,-7,-112c0,0,-6,-52,-18,-88c0,0,-12,-36,-30,-66c0,0,-19,-30,-36,-49c0,0,-17,-18,-41,-34c0,0,-24,-17,-40,-25c0,0,-17,-8,-41,-17L882,0H720L409,448c0,0,-21,-11,-34,-19c0,0,-13,-8,-34,-27c0,0,-21,-20,-34,-44c0,0,-12,-25,-22,-66c0,0,-9,-41,-9,-92V0Z" 
id="f2_j"
transform="scale(0.001,-0.001)" />

<path d="M66,0V106H322c0,0,75,0,127,23c0,0,53,23,82,67c0,0,29,43,42,98c0,0,13,54,13,124c0,0,0,70,-13,124c0,0,-13,55,-42,98c0,0,-29,44,-82,67c0,0,-52,23,-127,23H66V836H322c0,0,87,0,157,-24c0,0,70,-24,115,-64c0,0,45,-40,74,-94c0,0,30,-55,43,-113c0,0,13,-59,13,-123c0,0,0,-64,-13,-123c0,0,-13,-58,-43,-113c0,0,-29,-54,-74,-94C594,88,549,48,479,24C479,24,409,0,322,0Z" 
id="f2_5"
transform="scale(0.001,-0.001)" />

<path d="M445,-20c0,0,-86,0,-172,13c0,0,-86,13,-170,40V255c0,0,80,-40,160,-60c0,0,79,-21,156,-21c0,0,114,0,174,40c0,0,61,39,61,113c0,0,0,76,-62,115c0,0,-62,39,-184,39H293V666H414c0,0,108,0,161,34c0,0,53,34,53,103c0,0,0,65,-52,100c0,0,-51,35,-145,35c0,0,-69,0,-140,-16c0,0,-70,-15,-140,-46v210c0,0,85,24,168,36c0,0,83,12,164,12c0,0,217,0,325,-71c0,0,107,-71,107,-215c0,0,0,-98,-51,-160c0,0,-52,-62,-152,-88c0,0,112,-29,171,-101c0,0,59,-72,59,-183c0,0,0,-165,-127,-251c0,0,-127,-85,-370,-85Z" 
id="f1_6"
transform="scale(0.001,-0.001)" />

<path d="M32,0V33L151,52V649L52,668v33H275V52L395,33V0ZM201,850c0,0,-32,0,-56,24c0,0,-24,24,-24,56c0,0,0,34,24,58c0,0,24,24,56,24c0,0,34,0,58,-24c0,0,24,-24,24,-58c0,0,0,-32,-24,-56c0,0,-24,-24,-58,-24Z" 
id="f3_3"
transform="scale(0.001,-0.001)" />

<path d="M431,0V33L535,52V499c0,0,0,62,-32,96c0,0,-32,33,-95,33c0,0,-66,0,-163,-22V52L350,33V0H32V33l89,19V649L32,668v33H237l6,-57c0,0,56,32,119,54c0,0,62,22,110,22c0,0,52,0,95,-20c0,0,44,-19,66,-62c0,0,57,32,134,57c0,0,77,25,128,25c0,0,179,0,179,-207V52l90,-19V0H846V33L950,52V499c0,0,0,129,-119,129c0,0,-19,0,-45,-3c0,0,-26,-3,-52,-7c0,0,-25,-4,-49,-8c0,0,-23,-5,-39,-8c0,0,13,-41,13,-89V52L764,33V0Z" 
id="f3_d"
transform="scale(0.001,-0.001)" />

<path d="M382,45c0,0,188,0,188,314c0,0,0,143,-47,213c0,0,-46,69,-141,69c0,0,-87,0,-146,-24V58c0,0,67,-13,146,-13ZM25,-325v35l88,18V649L34,668v33H231l1,-41c0,0,31,27,84,43c0,0,53,17,107,17c0,0,134,0,208,-94c0,0,73,-93,73,-267c0,0,0,-178,-80,-276c0,0,-80,-97,-232,-97c0,0,-84,0,-160,16c0,0,4,-53,4,-84V-272l123,-18v-35Z" 
id="f3_a"
transform="scale(0.001,-0.001)" />

<path d="M377,45c0,0,99,0,147,73c0,0,47,73,47,237c0,0,0,161,-47,233c0,0,-47,72,-147,72c0,0,-97,0,-141,-69c0,0,-44,-69,-44,-236c0,0,0,-169,45,-240c0,0,44,-70,140,-70Zm0,-59c0,0,-158,0,-238,94c0,0,-81,95,-81,274c0,0,0,178,81,272c0,0,80,94,244,94c0,0,160,0,241,-92c0,0,82,-92,82,-274c0,0,0,-368,-329,-368Z" 
id="f3_9"
transform="scale(0.001,-0.001)" />

<path d="M278,-14c0,0,-52,0,-115,11c0,0,-63,10,-99,23V193H98L134,95c0,0,56,-50,146,-50c0,0,144,0,144,123c0,0,0,91,-114,130l-66,21c0,0,-75,25,-110,50c0,0,-34,26,-53,63c0,0,-18,36,-18,89c0,0,0,92,63,145c0,0,63,54,170,54c0,0,77,0,193,-23V544H454l-32,81c0,0,-39,35,-124,35c0,0,-61,0,-92,-30c0,0,-32,-30,-32,-80c0,0,0,-43,29,-72c0,0,28,-29,86,-48c0,0,110,-38,144,-55c0,0,33,-17,57,-42c0,0,23,-25,36,-57c0,0,13,-32,13,-79c0,0,0,-104,-66,-158c0,0,-66,-53,-195,-53Z" 
id="f3_4"
transform="scale(0.001,-0.001)" />

<path d="M376,50c0,0,103,0,149,80c0,0,46,81,46,240c0,0,0,137,-47,204c0,0,-48,67,-148,67c0,0,-44,0,-87,-7c0,0,-44,-8,-63,-17V62c0,0,63,-12,150,-12Zm3,-64c0,0,-64,0,-141,14c0,0,-78,14,-136,37v971L0,1026v34H226V809c0,0,0,-40,-4,-148c0,0,74,59,188,59c0,0,143,0,219,-87c0,0,77,-87,77,-263c0,0,0,-189,-84,-287c0,0,-84,-97,-243,-97Z" 
id="f3_h"
transform="scale(0.001,-0.001)" />

<path d="M31,0V33L150,52v956L31,1026v34H274V52L394,33V0Z" 
id="f3_b"
transform="scale(0.001,-0.001)" />

<path d="M495,413c0,0,0,133,-34,190c0,0,-34,57,-105,57c0,0,-78,0,-119,-63c0,0,-42,-62,-42,-184ZM374,-14c0,0,-163,0,-239,87c0,0,-75,88,-75,283c0,0,0,183,77,273c0,0,76,91,219,91c0,0,269,0,269,-306V353H194V340c0,0,0,-103,23,-160c0,0,22,-57,70,-87c0,0,47,-29,124,-29c0,0,40,0,96,6c0,0,55,7,91,15V43C598,43,562,20,500,3c0,0,-61,-17,-126,-17Z" 
id="f3_7"
transform="scale(0.001,-0.001)" />

<path d="M359,-270c0,0,124,0,192,46c0,0,67,47,67,129c0,0,0,43,-26,67c0,0,-26,24,-79,24H242c0,0,-32,-27,-51,-69c0,0,-20,-41,-20,-77c0,0,0,-64,46,-92c0,0,46,-28,142,-28Zm11,561c0,0,81,0,115,47c0,0,34,47,34,141c0,0,0,100,-35,142c0,0,-35,42,-113,42c0,0,-78,0,-114,-43c0,0,-37,-42,-37,-141c0,0,0,-98,36,-143c0,0,36,-45,114,-45ZM359,-329c0,0,-143,0,-218,44c0,0,-75,43,-75,125c0,0,0,39,27,78c0,0,26,38,98,89c0,0,-43,14,-72,48c0,0,-29,35,-29,74L208,262c0,0,-118,55,-118,217c0,0,0,115,73,178c0,0,73,63,211,63c0,0,28,0,71,-6c0,0,44,-6,67,-13l165,83l26,-32L599,644c0,0,50,-56,50,-165c0,0,0,-120,-72,-182c0,0,-73,-62,-208,-62c0,0,-62,0,-114,11L208,148c0,0,2,-13,29,-24c0,0,27,-12,67,-12H512c0,0,113,0,168,-49c0,0,55,-49,55,-134c0,0,0,-79,-44,-137c0,0,-43,-58,-128,-90c0,0,-84,-31,-204,-31Z" 
id="f3_l"
transform="scale(0.001,-0.001)" />

<path d="M284,67c0,0,51,0,88,12c0,0,37,12,74,30V358l-98,-3c0,0,-100,-4,-135,-39c0,0,-35,-35,-35,-117c0,0,0,-132,106,-132ZM233,-14c0,0,-179,0,-179,208c0,0,0,70,27,116c0,0,27,46,87,70c0,0,60,24,173,27l105,3V519c0,0,0,72,-26,107c0,0,-27,34,-82,34c0,0,-75,0,-137,-35L176,538H134V691c0,0,121,26,213,26c0,0,115,0,169,-47c0,0,54,-47,54,-144V52L657,33V0H465L451,70c0,0,-85,-84,-218,-84Z" 
id="f3_e"
transform="scale(0.001,-0.001)" />

<path d="M439,0V33l93,19V500c0,0,0,62,-30,97c0,0,-31,36,-94,36c0,0,-67,0,-165,-22V52L338,33V0H35V33l84,19V649L35,668v33H235l7,-57c0,0,57,33,122,54c0,0,65,22,108,22c0,0,91,0,137,-53c0,0,47,-53,47,-154V52L741,33V0Z" 
id="f3_i"
transform="scale(0.001,-0.001)" />

<path d="M249,-14c0,0,-71,0,-107,42c0,0,-35,42,-35,119V639H15v33l93,29l76,159h47V701H391V639H231V161c0,0,0,-48,22,-73c0,0,22,-24,57,-24c0,0,44,0,106,12V26C416,26,389,8,340,-2c0,0,-49,-12,-91,-12Z" 
id="f3_8"
transform="scale(0.001,-0.001)" />

<path d="M0,-141L388,1114H514L127,-141Z" 
id="f2_1f"
transform="scale(0.001,-0.001)" />

<path d="M383,64c0,0,85,0,152,28V645c0,0,-67,13,-152,13c0,0,-194,0,-194,-314c0,0,0,-141,48,-211c0,0,48,-69,146,-69ZM342,-14c0,0,-287,0,-287,358c0,0,0,184,82,280c0,0,81,96,239,96c0,0,81,0,163,-18c0,0,-4,25,-4,124v182l-118,18v34H659V52L745,33V0H548l-9,52c0,0,-84,-66,-197,-66Z" 
id="f3_2"
transform="scale(0.001,-0.001)" />

<path d="M31,0V33l88,19V649L31,668v33H235l7,-87c0,0,44,37,121,71c0,0,76,35,121,35h11V530H463l-43,82c0,0,-37,0,-88,-10c0,0,-52,-10,-89,-26V52L363,33V0Z" 
id="f3_6"
transform="scale(0.001,-0.001)" />

<path d="M44,0V40L172,60V941L44,960v40H794V760H745L721,922c0,0,-83,11,-241,11H316V543H586l23,119h48V354H609L586,475H316V67H513c0,0,193,0,252,12l43,185h49L843,0Z" 
id="f3_p"
transform="scale(0.001,-0.001)" />

<path d="M35,0V34l84,18V649L35,668v33H235l7,-56c0,0,57,32,122,54c0,0,65,21,108,21c0,0,91,0,137,-53c0,0,47,-53,47,-154V52L741,34V0H439V34l93,18V500c0,0,0,62,-30,97c0,0,-31,36,-94,36c0,0,-67,0,-165,-22V52L338,34V0ZM481,834c0,0,-36,0,-66,16c0,0,-30,16,-57,36c0,0,-27,20,-52,36c0,0,-25,16,-49,16c0,0,-24,0,-39,-9c0,0,-14,-9,-23,-26c0,0,-8,-17,-13,-54H143c0,0,11,180,146,180c0,0,36,0,66,-16c0,0,30,-16,57,-35c0,0,27,-20,52,-36c0,0,25,-16,49,-16c0,0,32,0,50,18c0,0,18,19,25,70h39c0,0,-12,-180,-146,-180Z" 
id="f3_s"
transform="scale(0.001,-0.001)" />

<path d="M399,-14c0,0,-341,0,-341,370c0,0,0,175,87,269c0,0,87,95,249,95c0,0,101,0,220,-23V501H573L541,625c0,0,-62,35,-149,35c0,0,-200,0,-200,-304c0,0,0,-158,61,-225c0,0,61,-67,189,-67c0,0,109,0,189,24V43C631,43,595,16,530,1c0,0,-64,-15,-131,-15Z" 
id="f3_5"
transform="scale(0.001,-0.001)" />

<path d="M284,67c0,0,51,0,88,12c0,0,37,11,74,29V357l-98,-3c0,0,-100,-3,-135,-38c0,0,-35,-36,-35,-118c0,0,0,-131,106,-131ZM233,-14c0,0,-179,0,-179,208c0,0,0,70,27,116c0,0,27,46,87,70c0,0,60,24,173,27l105,3V519c0,0,0,73,-26,107c0,0,-27,34,-82,34c0,0,-75,0,-137,-35L176,538H134V691c0,0,121,26,213,26c0,0,115,0,169,-47c0,0,54,-47,54,-144V52L657,34V0H465L451,70c0,0,-85,-84,-218,-84Zm22,849v24l146,203H560v-27L296,835Z" 
id="f3_f"
transform="scale(0.001,-0.001)" />

<path d="M139,0V177H436c0,0,127,0,184,56c0,0,56,55,56,186c0,0,0,132,-58,186c0,0,-58,53,-181,53H386L385,553c0,0,0,-40,12,-54c0,0,12,-15,31,-15c0,0,19,0,38,2V343c0,0,-46,-11,-94,-11c0,0,-48,0,-87,11c0,0,-38,10,-73,34c0,0,-73,53,-73,196V836H487c0,0,203,0,319,-109c0,0,116,-109,116,-309c0,0,0,-200,-117,-309C805,109,689,0,487,0Z" 
id="f1_5"
transform="scale(0.001,-0.001)" />

<path d="M545,163c0,0,162,0,162,262c0,0,0,66,-11,111c0,0,-11,45,-36,71c0,0,-24,25,-56,35c0,0,-31,10,-78,10H383V420c0,0,0,-257,162,-257Zm0,-182c0,0,-205,0,-306,109c0,0,-101,109,-101,335V836H527c0,0,223,0,325,-94c0,0,101,-93,101,-317c0,0,0,-226,-101,-335C852,90,750,-19,545,-19Z" 
id="f1_t"
transform="scale(0.001,-0.001)" />

<path d="M66,0V178H507V449c0,0,0,43,-2,71c0,0,-3,28,-12,56c0,0,-9,28,-26,45c0,0,-17,16,-47,27c0,0,-29,10,-72,10H66V836H349c0,0,97,0,167,-17c0,0,71,-17,117,-49c0,0,46,-32,73,-84c0,0,27,-52,38,-114c0,0,11,-62,11,-147V178H866V0Z" 
id="f1_q"
transform="scale(0.001,-0.001)" />

<path d="M679,178V467c0,0,0,110,-32,150c0,0,-31,41,-120,41H385V178ZM139,0V836H525c0,0,220,0,311,-90c0,0,90,-90,90,-297V0Z" 
id="f1_9"
transform="scale(0.001,-0.001)" />

<path d="M84,-153V45l189,68L66,836H321L497,205c0,0,72,50,101,138c0,0,30,88,30,261V836H878V604c0,0,0,-84,-7,-147c0,0,-7,-63,-25,-126c0,0,-19,-62,-51,-111c0,0,-33,-48,-82,-94c0,0,-50,-45,-122,-84C591,42,519,3,423,-30L84,-153Z" 
id="f1_l"
transform="scale(0.001,-0.001)" />

<path d="M545,-19c0,0,-208,0,-308,99c0,0,-99,101,-99,324V836H383V399c0,0,0,-130,41,-183c0,0,41,-53,121,-53c0,0,80,0,121,53c0,0,41,53,41,183c0,0,0,142,-27,203c0,0,-28,61,-90,61c0,0,-36,0,-92,-20V825c0,0,80,21,142,21c0,0,153,0,233,-113c0,0,80,-113,80,-328c0,0,0,-224,-100,-325c0,0,-100,-99,-308,-99Z" 
id="f1_o"
transform="scale(0.001,-0.001)" />

<path d="M150,-366V437L396,539V-366ZM499,0L727,658H139V835h870V716L754,0Z" 
id="f1_3"
transform="scale(0.001,-0.001)" />

<path d="M153,0V437L399,539V0ZM664,0V450c0,0,0,122,-31,165c0,0,-31,43,-121,43H138V836H511c0,0,113,0,188,-22c0,0,75,-23,123,-73c0,0,47,-51,68,-127c0,0,20,-76,20,-189V0Z" 
id="f1_7"
transform="scale(0.001,-0.001)" />

<path d="M139,0V836H386V0Z" 
id="f1_d"
transform="scale(0.001,-0.001)" />

<path d="M129,0l69,362c0,0,10,56,12,100c0,0,0,84,-27,159c0,0,-27,76,-117,215H322c0,0,9,-6,31,-79c0,0,23,-72,23,-105c0,0,23,82,100,138c0,0,77,57,160,57c0,0,332,0,332,-397V0H538V177H721V449c0,0,0,124,-20,170c0,0,-20,47,-82,47c0,0,-23,0,-43,-9c0,0,-19,-10,-34,-23c0,0,-14,-14,-27,-39c0,0,-13,-25,-22,-46c0,0,-8,-22,-17,-57c0,0,-9,-36,-15,-61c0,0,-5,-24,-13,-65L375,0Z" 
id="f1_c"
transform="scale(0.001,-0.001)" />

<path d="M66,0V177H334c0,0,99,0,150,66c0,0,51,67,51,175c0,0,0,108,-51,175c0,0,-51,66,-150,66H66V836H334c0,0,92,0,168,-24c0,0,75,-24,127,-64c0,0,51,-40,86,-94c0,0,35,-54,51,-113c0,0,15,-60,15,-123c0,0,0,-63,-15,-123c0,0,-16,-59,-51,-113c0,0,-35,-54,-86,-94C629,88,577,48,502,24C502,24,426,0,334,0Z" 
id="f1_g"
transform="scale(0.001,-0.001)" />

<path d="M171,0V288H440V0Zm0,548V836H440V548Z" 
id="f1_h"
transform="scale(0.001,-0.001)" />

<path d="M700,-317V454c0,0,0,155,-54,215c0,0,-54,60,-180,60H277V551c0,0,0,-55,26,-80c0,0,27,-26,82,-26c0,0,30,0,80,10V341c0,0,-61,-11,-111,-11c0,0,-100,0,-157,55c0,0,-58,55,-58,186V836H466c0,0,203,0,288,-91c0,0,85,-92,85,-293V-317Z" 
id="f2_z"
transform="scale(0.001,-0.001)" />

<path d="M289,-14c0,0,-179,0,-179,205V649L20,668v33H233V200c0,0,0,-128,120,-128c0,0,92,0,173,23V649L420,668v33H649V52L738,33V0H533l-6,57C527,57,474,28,405,7c0,0,-69,-21,-116,-21Z" 
id="f3_c"
transform="scale(0.001,-0.001)" />

<path d="M442,0V33l93,19V504c0,0,0,129,-124,129c0,0,-70,0,-168,-22V52L338,33V0H31V33l88,19v956L15,1026v34H243V756c0,0,0,-77,-5,-112c0,0,54,31,122,53c0,0,68,23,115,23c0,0,91,0,137,-53c0,0,47,-53,47,-154V52L744,33V0Z" 
id="f3_n"
transform="scale(0.001,-0.001)" />

<path d="M347,-317V284c0,0,0,59,-21,123c0,0,-21,64,-44,103c0,0,-23,40,-59,94L66,838H218L336,668c0,0,76,-109,120,-223c0,0,87,34,126,107c0,0,39,73,39,186v98H758V737c0,0,0,-82,-23,-152c0,0,-23,-69,-61,-116c0,0,-39,-47,-87,-78c0,0,-47,-31,-101,-45V-317Z" 
id="f2_15"
transform="scale(0.001,-0.001)" />

<path d="M117,-176L179,62V190H336V62L213,-176Z" 
id="f2_9"
transform="scale(0.001,-0.001)" />

<path d="M736,107V473c0,0,0,147,-48,202c0,0,-49,54,-187,54H278V107ZM139,0V836H499c0,0,105,0,177,-22c0,0,72,-21,116,-69c0,0,44,-49,64,-119c0,0,19,-71,19,-174V0Z" 
id="f2_2"
transform="scale(0.001,-0.001)" />

<path d="M163,0V190H321V0Z" 
id="f2_k"
transform="scale(0.001,-0.001)" />

<path d="M543,-317V369c0,0,0,85,-8,143c0,0,-8,58,-27,101c0,0,-18,44,-51,69c0,0,-33,24,-80,36c0,0,-48,11,-117,11H66V836H257c0,0,125,0,205,-23c0,0,80,-23,130,-79c0,0,50,-56,70,-143c0,0,20,-86,20,-222V-317Z" 
id="f2_p"
transform="scale(0.001,-0.001)" />

<path d="M142,-304l69,686h86l69,-686ZM254,469c0,0,-52,0,-88,36c0,0,-36,36,-36,88c0,0,0,51,36,88c0,0,35,36,88,36c0,0,51,0,87,-36c0,0,36,-36,36,-88c0,0,0,-51,-35,-88c0,0,-36,-36,-88,-36Z" 
id="f0_19"
transform="scale(0.001,-0.001)" />

<path d="M26,0V55L154,74V926L26,946v54H518V946L389,926V555H798V926L670,946v54h493V946L1034,926V74L1163,55V0H670V55L798,74V473H389V74L518,55V0Z" 
id="f0_1a"
transform="scale(0.001,-0.001)" />

<path d="M379,60c0,0,59,0,84,64c0,0,24,65,24,231c0,0,0,164,-24,227c0,0,-24,63,-84,63c0,0,-57,0,-80,-60c0,0,-22,-61,-22,-230c0,0,0,-173,23,-234c0,0,22,-61,79,-61Zm-2,-74c0,0,-161,0,-240,91c0,0,-79,91,-79,277c0,0,0,186,80,276c0,0,81,90,245,90c0,0,167,0,245,-93c0,0,78,-93,78,-273c0,0,0,-188,-81,-278c0,0,-81,-90,-248,-90Z" 
id="f0_x"
transform="scale(0.001,-0.001)" />

<path d="M30,0V49l76,18V992l-72,18v50H322V67L398,49V0Z" 
id="f0_r"
transform="scale(0.001,-0.001)" />

<path d="M345,75c0,0,50,0,110,26V351l-63,-2c0,0,-72,-3,-100,-38c0,0,-28,-35,-28,-113c0,0,0,-63,22,-93c0,0,23,-30,59,-30ZM266,-14c0,0,-217,0,-217,208c0,0,0,79,32,126c0,0,32,48,93,71c0,0,60,22,190,25l91,2V521c0,0,0,126,-104,126c0,0,-62,0,-140,-39L183,521H134V691c0,0,112,17,165,21c0,0,53,5,108,5c0,0,264,0,264,-194V67L741,49V0H483L466,54C466,54,408,14,361,0c0,0,-47,-14,-95,-14Z" 
id="f0_13"
transform="scale(0.001,-0.001)" />

<path d="M254,-20c0,0,-52,0,-88,34c0,0,-36,36,-36,88c0,0,0,52,36,88c0,0,35,36,88,36c0,0,51,0,87,-36c0,0,36,-36,36,-88c0,0,0,-51,-35,-87c0,0,-36,-35,-88,-35ZM210,313l-68,687H365L296,313Z" 
id="f0_1b"
transform="scale(0.001,-0.001)" />

<path d="M179,0V190H336V0Zm0,600V790H336V600Z" 
id="f2_w"
transform="scale(0.001,-0.001)" />

<path d="M291,0V190H443V0Zm5,299V414c0,0,0,75,21,124c0,0,21,48,88,113l67,66c0,0,42,40,61,75c0,0,19,35,19,71c0,0,0,67,-48,108c0,0,-49,41,-130,41c0,0,-59,0,-125,-26c0,0,-67,-26,-139,-77v140c0,0,70,43,142,64c0,0,72,21,148,21c0,0,138,0,221,-72c0,0,83,-73,83,-191c0,0,0,-57,-27,-108c0,0,-27,-51,-94,-115L517,583c0,0,-34,-35,-49,-54c0,0,-14,-20,-20,-39c0,0,-5,-16,-7,-38c0,0,-2,-22,-2,-61V299Z" 
id="f2_d"
transform="scale(0.001,-0.001)" />

<path d="M190,0V127H436V977L168,923v137l267,54H586V127H832V0Z" 
id="f2_x"
transform="scale(0.001,-0.001)" />

<path d="M111,0V127c0,0,86,89,234,238c0,0,148,150,186,193c0,0,73,81,101,138c0,0,29,56,29,110c0,0,0,89,-62,145c0,0,-62,56,-162,56c0,0,-71,0,-150,-25c0,0,-78,-24,-168,-75v153c0,0,91,37,170,55c0,0,79,19,145,19c0,0,173,0,276,-86c0,0,103,-87,103,-232c0,0,0,-68,-26,-130c0,0,-26,-61,-94,-145c0,0,-18,-22,-118,-125C575,416,475,313,293,127H818V0Z" 
id="f2_y"
transform="scale(0.001,-0.001)" />


</defs>
</svg>