<?xml version="1.0" encoding="UTF-8" standalone="no"?>
<!DOCTYPE svg PUBLIC "-//W3C//DTD SVG 1.1//EN"
"http://www.w3.org/Graphics/SVG/1.1/DTD/svg11.dtd">
<svg viewBox="0 0 909 1286" version="1.1" xmlns="http://www.w3.org/2000/svg" xmlns:xlink="http://www.w3.org/1999/xlink">
<defs>
<clipPath id="c0_11"><path d="M0,1286.2V0H909.4V1286.2Z" /></clipPath>
</defs>
<g clip-path="url(#c0_11)">
<g fill="#000000" >
<use xlink:href="#f0_1c" transform="matrix(16,0,0,16,670.4,151.3)" />
<use xlink:href="#f0_4" transform="matrix(16,0,0,16,682.9,151.3)" />
<use xlink:href="#f0_n" transform="matrix(16,0,0,16,689.6,151.3)" />
<use xlink:href="#f0_o" transform="matrix(16,0,0,16,697.8,151.3)" />
<use xlink:href="#f0_f" transform="matrix(16,0,0,16,710,151.3)" />
<use xlink:href="#f0_5" transform="matrix(16,0,0,16,724.8,151.3)" />
<use xlink:href="#f0_6" transform="matrix(16,0,0,16,743.1,151.3)" />
<use xlink:href="#f0_f" transform="matrix(16,0,0,16,757.5,151.3)" />
<use xlink:href="#f1_q" transform="matrix(12,0,0,12,138.4,192.8)" />
<use xlink:href="#f1_3" transform="matrix(12,0,0,12,143.4,192.8)" />
<use xlink:href="#f1_5" transform="matrix(12,0,0,12,147.5,192.8)" />
<use xlink:href="#f1_e" transform="matrix(12,0,0,12,157.2,192.8)" />
<use xlink:href="#f1_a" transform="matrix(12,0,0,12,169.1,192.8)" />
<use xlink:href="#f1_v" transform="matrix(12,0,0,12,179.5,192.8)" />
<use xlink:href="#f1_i" transform="matrix(12,0,0,12,196.1,192.8)" />
<use xlink:href="#f1_u" transform="matrix(12,0,0,12,208.1,192.8)" />
<use xlink:href="#f1_4" transform="matrix(12,0,0,12,220.1,192.8)" />
<use xlink:href="#f1_5" transform="matrix(12,0,0,12,230.4,192.8)" />
<use xlink:href="#f1_6" transform="matrix(12,0,0,12,240.1,192.8)" />
<use xlink:href="#f1_e" transform="matrix(12,0,0,12,245.1,192.8)" />
<use xlink:href="#f1_j" transform="matrix(12,0,0,12,265.2,192.8)" />
<use xlink:href="#f1_a" transform="matrix(12,0,0,12,277.4,192.8)" />
<use xlink:href="#f1_z" transform="matrix(12,0,0,12,295.9,192.8)" />
<use xlink:href="#f1_j" transform="matrix(12,0,0,12,307.6,192.8)" />
<use xlink:href="#f1_6" transform="matrix(12,0,0,12,319.7,192.8)" />
<use xlink:href="#f1_9" transform="matrix(12,0,0,12,333,192.8)" />
<use xlink:href="#f1_o" transform="matrix(12,0,0,12,338.8,192.8)" />
<use xlink:href="#f1_6" transform="matrix(12,0,0,12,349.3,192.8)" />
<use xlink:href="#f1_c" transform="matrix(12,0,0,12,354.3,192.8)" />
<use xlink:href="#f1_6" transform="matrix(12,0,0,12,367.3,192.8)" />
<use xlink:href="#f1_o" transform="matrix(12,0,0,12,380.4,192.8)" />
<use xlink:href="#f1_6" transform="matrix(12,0,0,12,390.9,192.8)" />
<use xlink:href="#f1_c" transform="matrix(12,0,0,12,396,192.8)" />
<use xlink:href="#f1_2" transform="matrix(12,0,0,12,417,192.8)" />
<use xlink:href="#f1_3" transform="matrix(12,0,0,12,429.2,192.8)" />
<use xlink:href="#f1_a" transform="matrix(12,0,0,12,433.2,192.8)" />
<use xlink:href="#f1_3" transform="matrix(12,0,0,12,443.6,192.8)" />
<use xlink:href="#f1_b" transform="matrix(12,0,0,12,447.7,192.8)" />
<use xlink:href="#f1_i" transform="matrix(12,0,0,12,468.3,192.8)" />
<use xlink:href="#f1_n" transform="matrix(12,0,0,12,480.3,192.8)" />
<use xlink:href="#f1_n" transform="matrix(12,0,0,12,487.7,192.8)" />
<use xlink:href="#f1_3" transform="matrix(12,0,0,12,495,192.8)" />
<use xlink:href="#f1_c" transform="matrix(12,0,0,12,499.1,192.8)" />
<use xlink:href="#f1_j" transform="matrix(12,0,0,12,520.3,192.8)" />
<use xlink:href="#f1_a" transform="matrix(12,0,0,12,532.5,192.8)" />
<use xlink:href="#f1_9" transform="matrix(12,0,0,12,551,192.8)" />
<use xlink:href="#f1_r" transform="matrix(12,0,0,12,556.8,192.8)" />
<use xlink:href="#f1_6" transform="matrix(12,0,0,12,569.8,192.8)" />
<use xlink:href="#f1_g" transform="matrix(12,0,0,12,574.8,192.8)" />
<use xlink:href="#f1_r" transform="matrix(12,0,0,12,584.7,192.8)" />
<use xlink:href="#f1_g" transform="matrix(12,0,0,12,597.7,192.8)" />
<use xlink:href="#f1_i" transform="matrix(12,0,0,12,615.9,192.8)" />
<use xlink:href="#f1_g" transform="matrix(12,0,0,12,627.9,192.8)" />
<use xlink:href="#f1_b" transform="matrix(12,0,0,12,637.8,192.8)" />
<use xlink:href="#f1_a" transform="matrix(12,0,0,12,650.3,192.8)" />
<use xlink:href="#f1_j" transform="matrix(12,0,0,12,668.9,192.8)" />
<use xlink:href="#f1_a" transform="matrix(12,0,0,12,681.2,192.8)" />
<use xlink:href="#f1_e" transform="matrix(12,0,0,12,699.6,192.8)" />
<use xlink:href="#f1_7" transform="matrix(12,0,0,12,711.5,192.8)" />
<use xlink:href="#f1_r" transform="matrix(12,0,0,12,726,192.8)" />
<use xlink:href="#f1_4" transform="matrix(12,0,0,12,739,192.8)" />
<use xlink:href="#f1_f" transform="matrix(12,0,0,12,749.3,192.8)" />
<use xlink:href="#f1_o" transform="matrix(12,0,0,12,760.8,192.8)" />
<use xlink:href="#f1_k" transform="matrix(12,0,0,12,137.7,214.2)" />
<use xlink:href="#f1_v" transform="matrix(12,0,0,12,143.5,214.2)" />
<use xlink:href="#f1_i" transform="matrix(12,0,0,12,151.9,214.2)" />
<use xlink:href="#f1_3" transform="matrix(12,0,0,12,163.9,214.2)" />
<use xlink:href="#f1_o" transform="matrix(12,0,0,12,168,214.2)" />
<use xlink:href="#f1_3" transform="matrix(12,0,0,12,724.1,214.2)" />
<use xlink:href="#f1_4" transform="matrix(12,0,0,12,728.2,214.2)" />
<use xlink:href="#f1_6" transform="matrix(12,0,0,12,738.6,214.2)" />
<use xlink:href="#f1_m" transform="matrix(12,0,0,12,743.5,214.2)" />
<use xlink:href="#f1_3" transform="matrix(12,0,0,12,754.9,214.2)" />
<use xlink:href="#f1_c" transform="matrix(12,0,0,12,759,214.2)" />
<use xlink:href="#f1_d" transform="matrix(12,0,0,12,329.8,235.6)" />
<use xlink:href="#f1_i" transform="matrix(12,0,0,12,339.5,235.6)" />
<use xlink:href="#f1_6" transform="matrix(12,0,0,12,351.5,235.6)" />
<use xlink:href="#f1_c" transform="matrix(12,0,0,12,356.5,235.6)" />
<use xlink:href="#f1_g" transform="matrix(12,0,0,12,369.5,235.6)" />
<use xlink:href="#f1_u" transform="matrix(12,0,0,12,379.6,235.6)" />
<use xlink:href="#f1_2" transform="matrix(12,0,0,12,397.3,235.6)" />
<use xlink:href="#f1_3" transform="matrix(12,0,0,12,409.4,235.6)" />
<use xlink:href="#f1_a" transform="matrix(12,0,0,12,413.5,235.6)" />
<use xlink:href="#f1_3" transform="matrix(12,0,0,12,423.9,235.6)" />
<use xlink:href="#f1_b" transform="matrix(12,0,0,12,428,235.6)" />
<use xlink:href="#f1_e" transform="matrix(12,0,0,12,446.4,235.6)" />
<use xlink:href="#f1_o" transform="matrix(12,0,0,12,458.3,235.6)" />
<use xlink:href="#f1_4" transform="matrix(12,0,0,12,468.9,235.6)" />
<use xlink:href="#f1_e" transform="matrix(12,0,0,12,479.3,235.6)" />
<use xlink:href="#f1_p" transform="matrix(12,0,0,12,497.1,235.6)" />
<use xlink:href="#f1_5" transform="matrix(12,0,0,12,506.9,235.6)" />
<use xlink:href="#f1_a" transform="matrix(12,0,0,12,522.5,235.6)" />
<use xlink:href="#f1_5" transform="matrix(12,0,0,12,532.9,235.6)" />
<use xlink:href="#f1_4" transform="matrix(12,0,0,12,548.3,235.6)" />
<use xlink:href="#f1_3" transform="matrix(12,0,0,12,558.7,235.6)" />
<use xlink:href="#f1_5" transform="matrix(12,0,0,12,562.6,235.6)" />
<use xlink:href="#f1_b" transform="matrix(12,0,0,12,572.3,235.6)" />
<use xlink:href="#f1_e" transform="matrix(12,0,0,12,590.7,235.6)" />
<use xlink:href="#f1_i" transform="matrix(12,0,0,12,602.7,235.6)" />
<use xlink:href="#f1_j" transform="matrix(12,0,0,12,614.7,235.6)" />
<use xlink:href="#f1_c" transform="matrix(12,0,0,12,626.9,235.6)" />
<use xlink:href="#f1_q" transform="matrix(12,0,0,12,645.7,235.6)" />
<use xlink:href="#f1_5" transform="matrix(12,0,0,12,650.8,235.6)" />
<use xlink:href="#f1_2" transform="matrix(12,0,0,12,666.2,235.6)" />
<use xlink:href="#f1_j" transform="matrix(12,0,0,12,678.4,235.6)" />
<use xlink:href="#f1_q" transform="matrix(12,0,0,12,696.6,235.6)" />
<use xlink:href="#f1_5" transform="matrix(12,0,0,12,701.6,235.6)" />
<use xlink:href="#f1_i" transform="matrix(12,0,0,12,711.2,235.6)" />
<use xlink:href="#f1_3" transform="matrix(12,0,0,12,723.1,235.6)" />
<use xlink:href="#f1_3" transform="matrix(12,0,0,12,727.2,235.6)" />
<use xlink:href="#f1_g" transform="matrix(12,0,0,12,737.2,235.6)" />
<use xlink:href="#f1_h" transform="matrix(12,0,0,12,747.2,235.6)" />
<use xlink:href="#f1_3" transform="matrix(12,0,0,12,758.1,235.6)" />
<use xlink:href="#f1_5" transform="matrix(12,0,0,12,762.2,235.6)" />
<use xlink:href="#f1_i" transform="matrix(12,0,0,12,138.1,257)" />
<use xlink:href="#f1_6" transform="matrix(12,0,0,12,150.2,257)" />
<use xlink:href="#f1_u" transform="matrix(12,0,0,12,155.2,257)" />
<use xlink:href="#f1_a" transform="matrix(12,0,0,12,167.1,257)" />
<use xlink:href="#f1_h" transform="matrix(12,0,0,12,177.5,257)" />
<use xlink:href="#f1_6" transform="matrix(12,0,0,12,188.3,257)" />
<use xlink:href="#f1_b" transform="matrix(12,0,0,12,193.2,257)" />
<use xlink:href="#f1_g" transform="matrix(12,0,0,12,212.1,257)" />
<use xlink:href="#f1_6" transform="matrix(12,0,0,12,222.2,257)" />
<use xlink:href="#f1_b" transform="matrix(12,0,0,12,227.2,257)" />
<use xlink:href="#f1_3" transform="matrix(12,0,0,12,239.6,257)" />
<use xlink:href="#f1_a" transform="matrix(12,0,0,12,243.7,257)" />
<use xlink:href="#f1_i" transform="matrix(12,0,0,12,260.5,257)" />
<use xlink:href="#f1_6" transform="matrix(12,0,0,12,272.5,257)" />
<use xlink:href="#f1_l" transform="matrix(12,0,0,12,277.5,257)" />
<use xlink:href="#f1_3" transform="matrix(12,0,0,12,289.4,257)" />
<use xlink:href="#f1_c" transform="matrix(12,0,0,12,293.4,257)" />
<use xlink:href="#f1_i" transform="matrix(12,0,0,12,312.9,257)" />
<use xlink:href="#f1_o" transform="matrix(12,0,0,12,325,257)" />
<use xlink:href="#f1_6" transform="matrix(12,0,0,12,335.5,257)" />
<use xlink:href="#f1_l" transform="matrix(12,0,0,12,340.4,257)" />
<use xlink:href="#f1_a" transform="matrix(12,0,0,12,352.3,257)" />
<use xlink:href="#f1_2" transform="matrix(12,0,0,12,369.2,257)" />
<use xlink:href="#f1_3" transform="matrix(12,0,0,12,381.4,257)" />
<use xlink:href="#f1_n" transform="matrix(12,0,0,12,385.5,257)" />
<use xlink:href="#f1_c" transform="matrix(12,0,0,12,392.9,257)" />
<use xlink:href="#f1_e" transform="matrix(12,0,0,12,405.9,257)" />
<use xlink:href="#f1_2" transform="matrix(12,0,0,12,424.1,257)" />
<use xlink:href="#f1_m" transform="matrix(12,0,0,12,436.4,257)" />
<use xlink:href="#f1_6" transform="matrix(12,0,0,12,454.2,257)" />
<use xlink:href="#f1_r" transform="matrix(12,0,0,12,459.2,257)" />
<use xlink:href="#f1_u" transform="matrix(12,0,0,12,472.2,257)" />
<use xlink:href="#f1_g" transform="matrix(12,0,0,12,484.1,257)" />
<use xlink:href="#f1_n" transform="matrix(12,0,0,12,494.2,257)" />
<use xlink:href="#f1_4" transform="matrix(12,0,0,12,507.9,257)" />
<use xlink:href="#f1_o" transform="matrix(12,0,0,12,518.3,257)" />
<use xlink:href="#f1_m" transform="matrix(12,0,0,12,528.8,257)" />
<use xlink:href="#f1_o" transform="matrix(12,0,0,12,540.3,257)" />
<use xlink:href="#f1_6" transform="matrix(12,0,0,12,557.3,257)" />
<use xlink:href="#f1_c" transform="matrix(12,0,0,12,562.2,257)" />
<use xlink:href="#f1_b" transform="matrix(12,0,0,12,575.2,257)" />
<use xlink:href="#f1_i" transform="matrix(12,0,0,12,587.7,257)" />
<use xlink:href="#f1_c" transform="matrix(12,0,0,12,599.8,257)" />
<use xlink:href="#f1_e" transform="matrix(12,0,0,12,612.7,257)" />
<use xlink:href="#f1_q" transform="matrix(12,0,0,12,631.2,257)" />
<use xlink:href="#f1_e" transform="matrix(12,0,0,12,636.2,257)" />
<use xlink:href="#f1_o" transform="matrix(12,0,0,12,648.1,257)" />
<use xlink:href="#f1_g" transform="matrix(12,0,0,12,665.1,257)" />
<use xlink:href="#f1_6" transform="matrix(12,0,0,12,675,257)" />
<use xlink:href="#f1_b" transform="matrix(12,0,0,12,680,257)" />
<use xlink:href="#f1_3" transform="matrix(12,0,0,12,692.5,257)" />
<use xlink:href="#f1_a" transform="matrix(12,0,0,12,696.6,257)" />
<use xlink:href="#f1_e" transform="matrix(12,0,0,12,707,257)" />
<use xlink:href="#f1_i" transform="matrix(12,0,0,12,725.3,257)" />
<use xlink:href="#f1_6" transform="matrix(12,0,0,12,737.4,257)" />
<use xlink:href="#f1_l" transform="matrix(12,0,0,12,742.4,257)" />
<use xlink:href="#f1_3" transform="matrix(12,0,0,12,754.2,257)" />
<use xlink:href="#f1_c" transform="matrix(12,0,0,12,758.3,257)" />
<use xlink:href="#f1_k" transform="matrix(12,0,0,12,612,278.4)" />
<use xlink:href="#f1_i" transform="matrix(12,0,0,12,617.8,278.4)" />
<use xlink:href="#f1_3" transform="matrix(12,0,0,12,629.9,278.4)" />
<use xlink:href="#f1_m" transform="matrix(12,0,0,12,634,278.4)" />
<use xlink:href="#f1_g" transform="matrix(12,0,0,12,645.3,278.4)" />
<use xlink:href="#f1_b" transform="matrix(12,0,0,12,655.4,278.4)" />
<use xlink:href="#f1_i" transform="matrix(12,0,0,12,673.7,278.4)" />
<use xlink:href="#f1_6" transform="matrix(12,0,0,12,685.7,278.4)" />
<use xlink:href="#f1_u" transform="matrix(12,0,0,12,690.8,278.4)" />
<use xlink:href="#f1_5" transform="matrix(12,0,0,12,702.7,278.4)" />
<use xlink:href="#f1_6" transform="matrix(12,0,0,12,712.3,278.4)" />
<use xlink:href="#f1_b" transform="matrix(12,0,0,12,717.2,278.4)" />
<use xlink:href="#f1_6" transform="matrix(12,0,0,12,729.7,278.4)" />
<use xlink:href="#f1_4" transform="matrix(12,0,0,12,740.5,278.4)" />
<use xlink:href="#f1_i" transform="matrix(12,0,0,12,750.9,278.4)" />
<use xlink:href="#f1_6" transform="matrix(12,0,0,12,762.9,278.4)" />
<use xlink:href="#f1_3" transform="matrix(12,0,0,12,767.8,278.4)" />
<use xlink:href="#f1_2" transform="matrix(12,0,0,12,138.1,299.8)" />
<use xlink:href="#f1_3" transform="matrix(12,0,0,12,150.3,299.8)" />
<use xlink:href="#f1_a" transform="matrix(12,0,0,12,154.4,299.8)" />
<use xlink:href="#f1_5" transform="matrix(12,0,0,12,164.8,299.8)" />
<use xlink:href="#f1_e" transform="matrix(12,0,0,12,174.4,299.8)" />
<use xlink:href="#f1_i" transform="matrix(12,0,0,12,195.8,299.8)" />
<use xlink:href="#f1_j" transform="matrix(12,0,0,12,207.9,299.8)" />
<use xlink:href="#f1_a" transform="matrix(12,0,0,12,229.8,299.8)" />
<use xlink:href="#f1_h" transform="matrix(12,0,0,12,240.2,299.8)" />
<use xlink:href="#f1_n" transform="matrix(12,0,0,12,251.1,299.8)" />
<use xlink:href="#f1_a" transform="matrix(12,0,0,12,258.4,299.8)" />
<use xlink:href="#f1_i" transform="matrix(12,0,0,12,278.4,299.8)" />
<use xlink:href="#f1_m" transform="matrix(12,0,0,12,290.4,299.8)" />
<use xlink:href="#f1_5" transform="matrix(12,0,0,12,301.9,299.8)" />
<use xlink:href="#f1_p" transform="matrix(12,0,0,12,321.1,299.8)" />
<use xlink:href="#f1_3" transform="matrix(12,0,0,12,330.9,299.8)" />
<use xlink:href="#f1_a" transform="matrix(12,0,0,12,335,299.8)" />
<use xlink:href="#f1_m" transform="matrix(12,0,0,12,345.4,299.8)" />
<use xlink:href="#f1_k" transform="matrix(12,0,0,12,366.4,299.8)" />
<use xlink:href="#f1_e" transform="matrix(12,0,0,12,372.2,299.8)" />
<use xlink:href="#f1_g" transform="matrix(12,0,0,12,384.1,299.8)" />
<use xlink:href="#f1_3" transform="matrix(12,0,0,12,394.1,299.8)" />
<use xlink:href="#f1_b" transform="matrix(12,0,0,12,398.2,299.8)" />
<use xlink:href="#f1_a" transform="matrix(12,0,0,12,410.7,299.8)" />
<use xlink:href="#f1_a" transform="matrix(12,0,0,12,421.1,299.8)" />
<use xlink:href="#f1_2" transform="matrix(12,0,0,12,441.1,299.8)" />
<use xlink:href="#f1_3" transform="matrix(12,0,0,12,453.1,299.8)" />
<use xlink:href="#f1_b" transform="matrix(12,0,0,12,457.2,299.8)" />
<use xlink:href="#f1_g" transform="matrix(12,0,0,12,469.7,299.8)" />
<use xlink:href="#f1_r" transform="matrix(12,0,0,12,479.7,299.8)" />
<use xlink:href="#f1_i" transform="matrix(12,0,0,12,492.7,299.8)" />
<use xlink:href="#f1_b" transform="matrix(12,0,0,12,504.7,299.8)" />
<use xlink:href="#f1_2" transform="matrix(12,0,0,12,526.8,299.8)" />
<use xlink:href="#f1_3" transform="matrix(12,0,0,12,539,299.8)" />
<use xlink:href="#f1_a" transform="matrix(12,0,0,12,543.1,299.8)" />
<use xlink:href="#f1_5" transform="matrix(12,0,0,12,553.5,299.8)" />
<use xlink:href="#f1_o" transform="matrix(12,0,0,12,563.2,299.8)" />
<use xlink:href="#f1_c" transform="matrix(12,0,0,12,583.3,299.8)" />
<use xlink:href="#f1_6" transform="matrix(12,0,0,12,596.3,299.8)" />
<use xlink:href="#f1_b" transform="matrix(12,0,0,12,601.2,299.8)" />
<use xlink:href="#f1_3" transform="matrix(12,0,0,12,613.7,299.8)" />
<use xlink:href="#f1_c" transform="matrix(12,0,0,12,617.8,299.8)" />
<use xlink:href="#f1_p" transform="matrix(12,0,0,12,640.3,299.8)" />
<use xlink:href="#f1_6" transform="matrix(12,0,0,12,650.1,299.8)" />
<use xlink:href="#f1_i" transform="matrix(12,0,0,12,655,299.8)" />
<use xlink:href="#f1_o" transform="matrix(12,0,0,12,676.8,299.8)" />
<use xlink:href="#f1_i" transform="matrix(12,0,0,12,687.4,299.8)" />
<use xlink:href="#f1_5" transform="matrix(12,0,0,12,699.4,299.8)" />
<use xlink:href="#f1_n" transform="matrix(12,0,0,12,709,299.8)" />
<use xlink:href="#f1_4" transform="matrix(12,0,0,12,725.8,299.8)" />
<use xlink:href="#f1_f" transform="matrix(12,0,0,12,736.2,299.8)" />
<use xlink:href="#f1_t" transform="matrix(12,0,0,12,747.6,299.8)" />
<use xlink:href="#f1_e" transform="matrix(12,0,0,12,759.5,299.8)" />
<use xlink:href="#f1_k" transform="matrix(12,0,0,12,137.7,321.1)" />
<use xlink:href="#f1_2" transform="matrix(12,0,0,12,143.5,321.1)" />
<use xlink:href="#f1_a" transform="matrix(12,0,0,12,155.7,321.1)" />
<use xlink:href="#f1_3" transform="matrix(12,0,0,12,166.1,321.1)" />
<use xlink:href="#f1_m" transform="matrix(12,0,0,12,170.2,321.1)" />
<use xlink:href="#f1_f" transform="matrix(12,0,0,12,181.6,321.1)" />
<use xlink:href="#f1_e" transform="matrix(12,0,0,12,193.1,321.1)" />
<use xlink:href="#f1_a" transform="matrix(12,0,0,12,205,321.1)" />
<use xlink:href="#f1_6" transform="matrix(12,0,0,12,215.4,321.1)" />
<use xlink:href="#f1_i" transform="matrix(12,0,0,12,714.2,321.1)" />
<use xlink:href="#f1_g" transform="matrix(12,0,0,12,726.2,321.1)" />
<use xlink:href="#f1_b" transform="matrix(12,0,0,12,736.3,321.1)" />
<use xlink:href="#f1_a" transform="matrix(12,0,0,12,748.6,321.1)" />
<use xlink:href="#f1_c" transform="matrix(12,0,0,12,759,321.1)" />
<use xlink:href="#f1_p" transform="matrix(12,0,0,12,138,342.5)" />
<use xlink:href="#f1_a" transform="matrix(12,0,0,12,147.7,342.5)" />
<use xlink:href="#f1_4" transform="matrix(12,0,0,12,166.3,342.5)" />
<use xlink:href="#f1_c" transform="matrix(12,0,0,12,176.7,342.5)" />
<use xlink:href="#f1_f" transform="matrix(12,0,0,12,189.7,342.5)" />
<use xlink:href="#f1_j" transform="matrix(12,0,0,12,201.1,342.5)" />
<use xlink:href="#f1_3" transform="matrix(12,0,0,12,213.4,342.5)" />
<use xlink:href="#f1_i" transform="matrix(12,0,0,12,225.7,342.5)" />
<use xlink:href="#f1_c" transform="matrix(12,0,0,12,237.7,342.5)" />
<use xlink:href="#f1_5" transform="matrix(12,0,0,12,250.7,342.5)" />
<use xlink:href="#f1_4" transform="matrix(12,0,0,12,260.4,342.5)" />
<use xlink:href="#f1_c" transform="matrix(12,0,0,12,270.7,342.5)" />
<use xlink:href="#f1_m" transform="matrix(12,0,0,12,291.8,342.5)" />
<use xlink:href="#f1_g" transform="matrix(12,0,0,12,303.2,342.5)" />
<use xlink:href="#f1_3" transform="matrix(12,0,0,12,313.3,342.5)" />
<use xlink:href="#f1_e" transform="matrix(12,0,0,12,317.4,342.5)" />
<use xlink:href="#f1_p" transform="matrix(12,0,0,12,337.5,342.5)" />
<use xlink:href="#f1_j" transform="matrix(12,0,0,12,347.3,342.5)" />
<use xlink:href="#f1_9" transform="matrix(12,0,0,12,367.9,342.5)" />
<use xlink:href="#f1_e" transform="matrix(12,0,0,12,373.7,342.5)" />
<use xlink:href="#f1_a" transform="matrix(12,0,0,12,385.6,342.5)" />
<use xlink:href="#f1_3" transform="matrix(12,0,0,12,396,342.5)" />
<use xlink:href="#f1_b" transform="matrix(12,0,0,12,400,342.5)" />
<use xlink:href="#f1_a" transform="matrix(12,0,0,12,420.7,342.5)" />
<use xlink:href="#f1_5" transform="matrix(12,0,0,12,431.1,342.5)" />
<use xlink:href="#f1_4" transform="matrix(12,0,0,12,449,342.5)" />
<use xlink:href="#f1_6" transform="matrix(12,0,0,12,459.3,342.5)" />
<use xlink:href="#f1_5" transform="matrix(12,0,0,12,464.4,342.5)" />
<use xlink:href="#f1_7" transform="matrix(12,0,0,12,474,342.5)" />
<use xlink:href="#f1_a" transform="matrix(12,0,0,12,480.3,342.5)" />
<use xlink:href="#f1_6" transform="matrix(12,0,0,12,490.7,342.5)" />
<use xlink:href="#f1_2" transform="matrix(12,0,0,12,503.9,342.5)" />
<use xlink:href="#f1_3" transform="matrix(12,0,0,12,516.1,342.5)" />
<use xlink:href="#f1_4" transform="matrix(12,0,0,12,520.2,342.5)" />
<use xlink:href="#f1_c" transform="matrix(12,0,0,12,530.6,342.5)" />
<use xlink:href="#f1_r" transform="matrix(12,0,0,12,543.6,342.5)" />
<use xlink:href="#f1_e" transform="matrix(12,0,0,12,556.6,342.5)" />
<use xlink:href="#f1_i" transform="matrix(12,0,0,12,576.7,342.5)" />
<use xlink:href="#f1_6" transform="matrix(12,0,0,12,588.7,342.5)" />
<use xlink:href="#f1_n" transform="matrix(12,0,0,12,593.8,342.5)" />
<use xlink:href="#f1_o" transform="matrix(12,0,0,12,601.1,342.5)" />
<use xlink:href="#f1_a" transform="matrix(12,0,0,12,611.6,342.5)" />
<use xlink:href="#f1_a" transform="matrix(12,0,0,12,630.2,342.5)" />
<use xlink:href="#f1_r" transform="matrix(12,0,0,12,640.6,342.5)" />
<use xlink:href="#f1_e" transform="matrix(12,0,0,12,661.8,342.5)" />
<use xlink:href="#f1_3" transform="matrix(12,0,0,12,673.7,342.5)" />
<use xlink:href="#f1_e" transform="matrix(12,0,0,12,677.8,342.5)" />
<use xlink:href="#f1_3" transform="matrix(12,0,0,12,689.8,342.5)" />
<use xlink:href="#f1_g" transform="matrix(12,0,0,12,701.9,342.5)" />
<use xlink:href="#f1_3" transform="matrix(12,0,0,12,712,342.5)" />
<use xlink:href="#f1_b" transform="matrix(12,0,0,12,716.1,342.5)" />
<use xlink:href="#f1_i" transform="matrix(12,0,0,12,728.5,342.5)" />
<use xlink:href="#f1_j" transform="matrix(12,0,0,12,748.8,342.5)" />
<use xlink:href="#f1_a" transform="matrix(12,0,0,12,761,342.5)" />
<use xlink:href="#f1_k" transform="matrix(12,0,0,12,492.4,363.9)" />
<use xlink:href="#f1_6" transform="matrix(12,0,0,12,498.2,363.9)" />
<use xlink:href="#f1_o" transform="matrix(12,0,0,12,503.2,363.9)" />
<use xlink:href="#f1_c" transform="matrix(12,0,0,12,519.6,363.9)" />
<use xlink:href="#f1_b" transform="matrix(12,0,0,12,532.6,363.9)" />
<use xlink:href="#f1_i" transform="matrix(12,0,0,12,545.1,363.9)" />
<use xlink:href="#f1_c" transform="matrix(12,0,0,12,557.1,363.9)" />
<use xlink:href="#f1_i" transform="matrix(12,0,0,12,570,363.9)" />
<use xlink:href="#f1_r" transform="matrix(12,0,0,12,588,363.9)" />
<use xlink:href="#f1_4" transform="matrix(12,0,0,12,600.8,363.9)" />
<use xlink:href="#f1_2" transform="matrix(12,0,0,12,617.1,363.9)" />
<use xlink:href="#f1_j" transform="matrix(12,0,0,12,629.4,363.9)" />
<use xlink:href="#f1_9" transform="matrix(12,0,0,12,647.4,363.9)" />
<use xlink:href="#f1_4" transform="matrix(12,0,0,12,653.2,363.9)" />
<use xlink:href="#f1_i" transform="matrix(12,0,0,12,663.6,363.9)" />
<use xlink:href="#f1_6" transform="matrix(12,0,0,12,675.5,363.9)" />
<use xlink:href="#f1_3" transform="matrix(12,0,0,12,680.5,363.9)" />
<use xlink:href="#f1_o" transform="matrix(12,0,0,12,690.6,363.9)" />
<use xlink:href="#f1_6" transform="matrix(12,0,0,12,701.1,363.9)" />
<use xlink:href="#f1_l" transform="matrix(12,0,0,12,706,363.9)" />
<use xlink:href="#f1_g" transform="matrix(12,0,0,12,723.7,363.9)" />
<use xlink:href="#f1_6" transform="matrix(12,0,0,12,733.8,363.9)" />
<use xlink:href="#f1_b" transform="matrix(12,0,0,12,738.7,363.9)" />
<use xlink:href="#f1_a" transform="matrix(12,0,0,12,751.2,363.9)" />
<use xlink:href="#f1_a" transform="matrix(12,0,0,12,761.6,363.9)" />
<use xlink:href="#f1_5" transform="matrix(12,0,0,12,279.9,385.3)" />
<use xlink:href="#f1_a" transform="matrix(12,0,0,12,299.1,385.3)" />
<use xlink:href="#f1_m" transform="matrix(12,0,0,12,309.5,385.3)" />
<use xlink:href="#f1_g" transform="matrix(12,0,0,12,330.5,385.3)" />
<use xlink:href="#f1_b" transform="matrix(12,0,0,12,340.6,385.3)" />
<use xlink:href="#f1_6" transform="matrix(12,0,0,12,353,385.3)" />
<use xlink:href="#f1_m" transform="matrix(12,0,0,12,358,385.3)" />
<use xlink:href="#f1_j" transform="matrix(12,0,0,12,379.1,385.3)" />
<use xlink:href="#f1_6" transform="matrix(12,0,0,12,391.3,385.3)" />
<use xlink:href="#f1_e" transform="matrix(12,0,0,12,396.2,385.3)" />
<use xlink:href="#f1_6" transform="matrix(12,0,0,12,408.1,385.3)" />
<use xlink:href="#f1_4" transform="matrix(12,0,0,12,422.7,385.3)" />
<use xlink:href="#f1_3" transform="matrix(12,0,0,12,433.1,385.3)" />
<use xlink:href="#f1_5" transform="matrix(12,0,0,12,437.2,385.3)" />
<use xlink:href="#f1_b" transform="matrix(12,0,0,12,446.8,385.3)" />
<use xlink:href="#f1_e" transform="matrix(12,0,0,12,468.9,385.3)" />
<use xlink:href="#f1_i" transform="matrix(12,0,0,12,480.9,385.3)" />
<use xlink:href="#f1_j" transform="matrix(12,0,0,12,492.9,385.3)" />
<use xlink:href="#f1_c" transform="matrix(12,0,0,12,505.1,385.3)" />
<use xlink:href="#f1_2" transform="matrix(12,0,0,12,527.6,385.3)" />
<use xlink:href="#f1_3" transform="matrix(12,0,0,12,539.8,385.3)" />
<use xlink:href="#f1_a" transform="matrix(12,0,0,12,543.9,385.3)" />
<use xlink:href="#f1_3" transform="matrix(12,0,0,12,554.3,385.3)" />
<use xlink:href="#f1_b" transform="matrix(12,0,0,12,558.4,385.3)" />
<use xlink:href="#f1_e" transform="matrix(12,0,0,12,570.9,385.3)" />
<use xlink:href="#f1_4" transform="matrix(12,0,0,12,592.4,385.3)" />
<use xlink:href="#f1_h" transform="matrix(12,0,0,12,602.6,385.3)" />
<use xlink:href="#f1_6" transform="matrix(12,0,0,12,613.5,385.3)" />
<use xlink:href="#f1_j" transform="matrix(12,0,0,12,618.5,385.3)" />
<use xlink:href="#f1_a" transform="matrix(12,0,0,12,640.5,385.3)" />
<use xlink:href="#f1_f" transform="matrix(12,0,0,12,650.8,385.3)" />
<use xlink:href="#f1_5" transform="matrix(12,0,0,12,662.3,385.3)" />
<use xlink:href="#f1_6" transform="matrix(12,0,0,12,671.9,385.3)" />
<use xlink:href="#f1_e" transform="matrix(12,0,0,12,676.9,385.3)" />
<use xlink:href="#f1_e" transform="matrix(12,0,0,12,698.3,385.3)" />
<use xlink:href="#f1_7" transform="matrix(12,0,0,12,710.2,385.3)" />
<use xlink:href="#f1_r" transform="matrix(12,0,0,12,726.2,385.3)" />
<use xlink:href="#f1_4" transform="matrix(12,0,0,12,739.2,385.3)" />
<use xlink:href="#f1_f" transform="matrix(12,0,0,12,749.6,385.3)" />
<use xlink:href="#f1_o" transform="matrix(12,0,0,12,761,385.3)" />
<use xlink:href="#f1_y" transform="matrix(12,0,0,12,244.8,385.3)" />
<use xlink:href="#f1_14" transform="matrix(12,0,0,12,256.4,385.3)" />
<use xlink:href="#f1_14" transform="matrix(12,0,0,12,268,385.3)" />
<use xlink:href="#f1_11" transform="matrix(12,0,0,12,221.5,385.3)" />
<use xlink:href="#f1_13" transform="matrix(12,0,0,12,238.3,385.3)" />
<use xlink:href="#f2_2" transform="matrix(11,0,0,11,150.3,385.3)" />
<use xlink:href="#f2_9" transform="matrix(11,0,0,11,158.7,385.3)" />
<use xlink:href="#f2_4" transform="matrix(11,0,0,11,167.1,385.3)" />
<use xlink:href="#f2_5" transform="matrix(11,0,0,11,173.7,385.3)" />
<use xlink:href="#f2_3" transform="matrix(11,0,0,11,181.2,385.3)" />
<use xlink:href="#f2_7" transform="matrix(11,0,0,11,185.7,385.3)" />
<use xlink:href="#f2_i" transform="matrix(11,0,0,11,193.2,385.3)" />
<use xlink:href="#f2_8" transform="matrix(11,0,0,11,201.6,385.3)" />
<use xlink:href="#f2_9" transform="matrix(11,0,0,11,206.3,385.3)" />
<use xlink:href="#f2_4" transform="matrix(11,0,0,11,214.7,385.3)" />
<use xlink:href="#f1_k" transform="matrix(12,0,0,12,137.5,385.3)" />
<use xlink:href="#f1_12" transform="matrix(12,0,0,12,143.3,385.3)" />
<use xlink:href="#f1_k" transform="matrix(12,0,0,12,207.6,406.7)" />
<use xlink:href="#f1_i" transform="matrix(12,0,0,12,213.4,406.7)" />
<use xlink:href="#f1_m" transform="matrix(12,0,0,12,225.5,406.7)" />
<use xlink:href="#f1_5" transform="matrix(12,0,0,12,236.9,406.7)" />
<use xlink:href="#f1_q" transform="matrix(12,0,0,12,252.5,406.7)" />
<use xlink:href="#f1_i" transform="matrix(12,0,0,12,257.4,406.7)" />
<use xlink:href="#f1_6" transform="matrix(12,0,0,12,269.4,406.7)" />
<use xlink:href="#f1_j" transform="matrix(12,0,0,12,274.5,406.7)" />
<use xlink:href="#f1_4" transform="matrix(12,0,0,12,292.5,406.7)" />
<use xlink:href="#f1_3" transform="matrix(12,0,0,12,302.9,406.7)" />
<use xlink:href="#f1_5" transform="matrix(12,0,0,12,307,406.7)" />
<use xlink:href="#f1_b" transform="matrix(12,0,0,12,316.6,406.7)" />
<use xlink:href="#f1_3" transform="matrix(12,0,0,12,334.9,406.7)" />
<use xlink:href="#f1_j" transform="matrix(12,0,0,12,339,406.7)" />
<use xlink:href="#f1_g" transform="matrix(12,0,0,12,351.3,406.7)" />
<use xlink:href="#f1_6" transform="matrix(12,0,0,12,361.2,406.7)" />
<use xlink:href="#f1_6" transform="matrix(12,0,0,12,366.2,406.7)" />
<use xlink:href="#f1_o" transform="matrix(12,0,0,12,371.2,406.7)" />
<use xlink:href="#f1_e" transform="matrix(12,0,0,12,387.7,406.7)" />
<use xlink:href="#f1_i" transform="matrix(12,0,0,12,399.6,406.7)" />
<use xlink:href="#f1_j" transform="matrix(12,0,0,12,411.7,406.7)" />
<use xlink:href="#f1_6" transform="matrix(12,0,0,12,423.9,406.7)" />
<use xlink:href="#f1_2" transform="matrix(12,0,0,12,434.8,406.7)" />
<use xlink:href="#f1_3" transform="matrix(12,0,0,12,446.8,406.7)" />
<use xlink:href="#f1_b" transform="matrix(12,0,0,12,450.9,406.7)" />
<use xlink:href="#f1_m" transform="matrix(12,0,0,12,463.4,406.7)" />
<use xlink:href="#f1_f" transform="matrix(12,0,0,12,474.9,406.7)" />
<use xlink:href="#f1_c" transform="matrix(12,0,0,12,492.1,406.7)" />
<use xlink:href="#f1_6" transform="matrix(12,0,0,12,505.1,406.7)" />
<use xlink:href="#f1_a" transform="matrix(12,0,0,12,510.1,406.7)" />
<use xlink:href="#f1_c" transform="matrix(12,0,0,12,520.5,406.7)" />
<use xlink:href="#f1_4" transform="matrix(12,0,0,12,539.3,406.7)" />
<use xlink:href="#f1_o" transform="matrix(12,0,0,12,549.7,406.7)" />
<use xlink:href="#f1_5" transform="matrix(12,0,0,12,560.2,406.7)" />
<use xlink:href="#f1_i" transform="matrix(12,0,0,12,575.8,406.7)" />
<use xlink:href="#f1_a" transform="matrix(12,0,0,12,587.9,406.7)" />
<use xlink:href="#f1_r" transform="matrix(12,0,0,12,598.3,406.7)" />
<use xlink:href="#f1_i" transform="matrix(12,0,0,12,611.2,406.7)" />
<use xlink:href="#f1_n" transform="matrix(12,0,0,12,623.3,406.7)" />
<use xlink:href="#f1_2" transform="matrix(12,0,0,12,636.4,406.7)" />
<use xlink:href="#f1_3" transform="matrix(12,0,0,12,648.6,406.7)" />
<use xlink:href="#f1_a" transform="matrix(12,0,0,12,652.7,406.7)" />
<use xlink:href="#f1_3" transform="matrix(12,0,0,12,663.1,406.7)" />
<use xlink:href="#f1_b" transform="matrix(12,0,0,12,667.1,406.7)" />
<use xlink:href="#f1_e" transform="matrix(12,0,0,12,679.6,406.7)" />
<use xlink:href="#f1_q" transform="matrix(12,0,0,12,697.3,406.7)" />
<use xlink:href="#f1_b" transform="matrix(12,0,0,12,702.4,406.7)" />
<use xlink:href="#f1_c" transform="matrix(12,0,0,12,720.7,406.7)" />
<use xlink:href="#f1_3" transform="matrix(12,0,0,12,733.7,406.7)" />
<use xlink:href="#f1_a" transform="matrix(12,0,0,12,737.8,406.7)" />
<use xlink:href="#f1_c" transform="matrix(12,0,0,12,748.2,406.7)" />
<use xlink:href="#f1_o" transform="matrix(12,0,0,12,761.1,406.7)" />
<use xlink:href="#f1_i" transform="matrix(12,0,0,12,138.3,447.5)" />
<use xlink:href="#f1_j" transform="matrix(12,0,0,12,150.3,447.5)" />
<use xlink:href="#f1_q" transform="matrix(12,0,0,12,171.4,447.5)" />
<use xlink:href="#f1_3" transform="matrix(12,0,0,12,176.4,447.5)" />
<use xlink:href="#f1_o" transform="matrix(12,0,0,12,180.5,447.5)" />
<use xlink:href="#f1_e" transform="matrix(12,0,0,12,191,447.5)" />
<use xlink:href="#f1_a" transform="matrix(12,0,0,12,202.9,447.5)" />
<use xlink:href="#f1_6" transform="matrix(12,0,0,12,213.3,447.5)" />
<use xlink:href="#f1_i" transform="matrix(12,0,0,12,227.2,447.5)" />
<use xlink:href="#f1_6" transform="matrix(12,0,0,12,239.2,447.5)" />
<use xlink:href="#f1_a" transform="matrix(12,0,0,12,244.3,447.5)" />
<use xlink:href="#f1_j" transform="matrix(12,0,0,12,254.7,447.5)" />
<use xlink:href="#f1_c" transform="matrix(12,0,0,12,266.9,447.5)" />
<use xlink:href="#f1_a" transform="matrix(12,0,0,12,288.6,447.5)" />
<use xlink:href="#f1_6" transform="matrix(12,0,0,12,299,447.5)" />
<use xlink:href="#f1_j" transform="matrix(12,0,0,12,304,447.5)" />
<use xlink:href="#f1_c" transform="matrix(12,0,0,12,316.2,447.5)" />
<use xlink:href="#f1_a" transform="matrix(12,0,0,12,329.2,447.5)" />
<use xlink:href="#f1_g" transform="matrix(12,0,0,12,348.4,447.5)" />
<use xlink:href="#f1_b" transform="matrix(12,0,0,12,358.5,447.5)" />
<use xlink:href="#f1_a" transform="matrix(12,0,0,12,370.8,447.5)" />
<use xlink:href="#f1_n" transform="matrix(12,0,0,12,381.2,447.5)" />
<use xlink:href="#f1_6" transform="matrix(12,0,0,12,388.6,447.5)" />
<use xlink:href="#f1_i" transform="matrix(12,0,0,12,402.4,447.5)" />
<use xlink:href="#f1_3" transform="matrix(12,0,0,12,414.5,447.5)" />
<use xlink:href="#f1_g" transform="matrix(12,0,0,12,418.5,447.5)" />
<use xlink:href="#f1_4" transform="matrix(12,0,0,12,428.5,447.5)" />
<use xlink:href="#f1_f" transform="matrix(12,0,0,12,438.9,447.5)" />
<use xlink:href="#f1_t" transform="matrix(12,0,0,12,450.3,447.5)" />
<use xlink:href="#f1_o" transform="matrix(12,0,0,12,462.2,447.5)" />
<use xlink:href="#f1_2" transform="matrix(12,0,0,12,481.6,447.5)" />
<use xlink:href="#f1_3" transform="matrix(12,0,0,12,493.8,447.5)" />
<use xlink:href="#f1_a" transform="matrix(12,0,0,12,497.9,447.5)" />
<use xlink:href="#f1_m" transform="matrix(12,0,0,12,508.3,447.5)" />
<use xlink:href="#f1_f" transform="matrix(12,0,0,12,519.8,447.5)" />
<use xlink:href="#f1_e" transform="matrix(12,0,0,12,531.2,447.5)" />
<use xlink:href="#f1_i" transform="matrix(12,0,0,12,551.8,447.5)" />
<use xlink:href="#f1_j" transform="matrix(12,0,0,12,563.8,447.5)" />
<use xlink:href="#f1_g" transform="matrix(12,0,0,12,584.9,447.5)" />
<use xlink:href="#f1_b" transform="matrix(12,0,0,12,594.8,447.5)" />
<use xlink:href="#f1_a" transform="matrix(12,0,0,12,607.3,447.5)" />
<use xlink:href="#f1_n" transform="matrix(12,0,0,12,617.7,447.5)" />
<use xlink:href="#f1_2" transform="matrix(12,0,0,12,633.9,447.5)" />
<use xlink:href="#f1_3" transform="matrix(12,0,0,12,646.1,447.5)" />
<use xlink:href="#f1_o" transform="matrix(12,0,0,12,650.2,447.5)" />
<use xlink:href="#f1_6" transform="matrix(12,0,0,12,660.7,447.5)" />
<use xlink:href="#f1_4" transform="matrix(12,0,0,12,665.8,447.5)" />
<use xlink:href="#f1_r" transform="matrix(12,0,0,12,676.1,447.5)" />
<use xlink:href="#f1_e" transform="matrix(12,0,0,12,689.1,447.5)" />
<use xlink:href="#f1_2" transform="matrix(12,0,0,12,709.7,447.5)" />
<use xlink:href="#f1_3" transform="matrix(12,0,0,12,721.9,447.5)" />
<use xlink:href="#f1_r" transform="matrix(12,0,0,12,726,447.5)" />
<use xlink:href="#f1_4" transform="matrix(12,0,0,12,739,447.5)" />
<use xlink:href="#f1_f" transform="matrix(12,0,0,12,749.4,447.5)" />
<use xlink:href="#f1_o" transform="matrix(12,0,0,12,760.8,447.5)" />
<use xlink:href="#f1_2" transform="matrix(12,0,0,12,137.7,468.9)" />
<use xlink:href="#f1_3" transform="matrix(12,0,0,12,149.9,468.9)" />
<use xlink:href="#f1_r" transform="matrix(12,0,0,12,154,468.9)" />
<use xlink:href="#f1_4" transform="matrix(12,0,0,12,166.9,468.9)" />
<use xlink:href="#f1_f" transform="matrix(12,0,0,12,177.3,468.9)" />
<use xlink:href="#f1_o" transform="matrix(12,0,0,12,188.8,468.9)" />
<use xlink:href="#f1_k" transform="matrix(12,0,0,12,206.1,468.9)" />
<use xlink:href="#f1_i" transform="matrix(12,0,0,12,212,468.9)" />
<use xlink:href="#f1_3" transform="matrix(12,0,0,12,224,468.9)" />
<use xlink:href="#f1_t" transform="matrix(12,0,0,12,228.1,468.9)" />
<use xlink:href="#f1_3" transform="matrix(12,0,0,12,240,468.9)" />
<use xlink:href="#f1_t" transform="matrix(12,0,0,12,244.1,468.9)" />
<use xlink:href="#f1_o" transform="matrix(12,0,0,12,256,468.9)" />
<use xlink:href="#f1_e" transform="matrix(12,0,0,12,273.5,468.9)" />
<use xlink:href="#f1_f" transform="matrix(12,0,0,12,285.5,468.9)" />
<use xlink:href="#f1_c" transform="matrix(12,0,0,12,296.9,468.9)" />
<use xlink:href="#f1_o" transform="matrix(12,0,0,12,309.9,468.9)" />
<use xlink:href="#f1_e" transform="matrix(12,0,0,12,327.4,468.9)" />
<use xlink:href="#f1_u" transform="matrix(12,0,0,12,339.3,468.9)" />
<use xlink:href="#f1_6" transform="matrix(12,0,0,12,351.2,468.9)" />
<use xlink:href="#f1_n" transform="matrix(12,0,0,12,356.3,468.9)" />
<use xlink:href="#f1_e" transform="matrix(12,0,0,12,370.4,468.9)" />
<use xlink:href="#f1_4" transform="matrix(12,0,0,12,382.3,468.9)" />
<use xlink:href="#f1_6" transform="matrix(12,0,0,12,392.7,468.9)" />
<use xlink:href="#f1_h" transform="matrix(12,0,0,12,397.7,468.9)" />
<use xlink:href="#f1_o" transform="matrix(12,0,0,12,408.6,468.9)" />
<use xlink:href="#f1_j" transform="matrix(12,0,0,12,426.1,468.9)" />
<use xlink:href="#f1_l" transform="matrix(12,0,0,12,438.4,468.9)" />
<use xlink:href="#f1_o" transform="matrix(12,0,0,12,450.3,468.9)" />
<use xlink:href="#f1_i" transform="matrix(12,0,0,12,460.8,468.9)" />
<use xlink:href="#f1_e" transform="matrix(12,0,0,12,472.8,468.9)" />
<use xlink:href="#f1_a" transform="matrix(12,0,0,12,484.8,468.9)" />
<use xlink:href="#f1_a" transform="matrix(12,0,0,12,502.1,468.9)" />
<use xlink:href="#f1_5" transform="matrix(12,0,0,12,512.5,468.9)" />
<use xlink:href="#f1_6" transform="matrix(12,0,0,12,522.2,468.9)" />
<use xlink:href="#f1_i" transform="matrix(12,0,0,12,527.2,468.9)" />
<use xlink:href="#f1_4" transform="matrix(12,0,0,12,546.1,468.9)" />
<use xlink:href="#f1_h" transform="matrix(12,0,0,12,556.5,468.9)" />
<use xlink:href="#f1_r" transform="matrix(12,0,0,12,567.3,468.9)" />
<use xlink:href="#f1_q" transform="matrix(12,0,0,12,587.1,468.9)" />
<use xlink:href="#f1_b" transform="matrix(12,0,0,12,592,468.9)" />
<use xlink:href="#f1_7" transform="matrix(12,0,0,12,604.5,468.9)" />
<use xlink:href="#f1_g" transform="matrix(12,0,0,12,617.8,468.9)" />
<use xlink:href="#f1_6" transform="matrix(12,0,0,12,627.9,468.9)" />
<use xlink:href="#f1_m" transform="matrix(12,0,0,12,632.9,468.9)" />
<use xlink:href="#f1_o" transform="matrix(12,0,0,12,644.3,468.9)" />
<use xlink:href="#f1_k" transform="matrix(12,0,0,12,661.7,468.9)" />
<use xlink:href="#f1_q" transform="matrix(12,0,0,12,667.5,468.9)" />
<use xlink:href="#f1_e" transform="matrix(12,0,0,12,672.6,468.9)" />
<use xlink:href="#f1_a" transform="matrix(12,0,0,12,684.5,468.9)" />
<use xlink:href="#f1_i" transform="matrix(12,0,0,12,701.7,468.9)" />
<use xlink:href="#f1_6" transform="matrix(12,0,0,12,713.8,468.9)" />
<use xlink:href="#f1_o" transform="matrix(12,0,0,12,718.8,468.9)" />
<use xlink:href="#f1_6" transform="matrix(12,0,0,12,729.3,468.9)" />
<use xlink:href="#f1_c" transform="matrix(12,0,0,12,734.3,468.9)" />
<use xlink:href="#f1_i" transform="matrix(12,0,0,12,747.3,468.9)" />
<use xlink:href="#f1_e" transform="matrix(12,0,0,12,759.4,468.9)" />
<use xlink:href="#f1_k" transform="matrix(12,0,0,12,354.6,490.3)" />
<use xlink:href="#f1_a" transform="matrix(12,0,0,12,360.4,490.3)" />
<use xlink:href="#f1_g" transform="matrix(12,0,0,12,370.8,490.3)" />
<use xlink:href="#f1_s" transform="matrix(12,0,0,12,380.9,490.3)" />
<use xlink:href="#f1_3" transform="matrix(12,0,0,12,388.3,490.3)" />
<use xlink:href="#f1_6" transform="matrix(12,0,0,12,392.5,490.3)" />
<use xlink:href="#f1_p" transform="matrix(12,0,0,12,403.3,490.3)" />
<use xlink:href="#f1_a" transform="matrix(12,0,0,12,413.1,490.3)" />
<use xlink:href="#f1_3" transform="matrix(12,0,0,12,423.5,490.3)" />
<use xlink:href="#f1_p" transform="matrix(12,0,0,12,433.5,490.3)" />
<use xlink:href="#f1_a" transform="matrix(12,0,0,12,443.3,490.3)" />
<use xlink:href="#f1_c" transform="matrix(12,0,0,12,453.7,490.3)" />
<use xlink:href="#f1_2" transform="matrix(12,0,0,12,472.5,490.3)" />
<use xlink:href="#f1_3" transform="matrix(12,0,0,12,484.7,490.3)" />
<use xlink:href="#f1_a" transform="matrix(12,0,0,12,488.8,490.3)" />
<use xlink:href="#f1_3" transform="matrix(12,0,0,12,499.2,490.3)" />
<use xlink:href="#f1_b" transform="matrix(12,0,0,12,503.3,490.3)" />
<use xlink:href="#f1_e" transform="matrix(12,0,0,12,515.8,490.3)" />
<use xlink:href="#f1_4" transform="matrix(12,0,0,12,533.5,490.3)" />
<use xlink:href="#f1_h" transform="matrix(12,0,0,12,543.9,490.3)" />
<use xlink:href="#f1_6" transform="matrix(12,0,0,12,554.8,490.3)" />
<use xlink:href="#f1_j" transform="matrix(12,0,0,12,559.7,490.3)" />
<use xlink:href="#f1_6" transform="matrix(12,0,0,12,571.9,490.3)" />
<use xlink:href="#f1_e" transform="matrix(12,0,0,12,582.9,490.3)" />
<use xlink:href="#f1_j" transform="matrix(12,0,0,12,594.8,490.3)" />
<use xlink:href="#f1_3" transform="matrix(12,0,0,12,607,490.3)" />
<use xlink:href="#f1_4" transform="matrix(12,0,0,12,611.1,490.3)" />
<use xlink:href="#f1_r" transform="matrix(12,0,0,12,621.5,490.3)" />
<use xlink:href="#f1_3" transform="matrix(12,0,0,12,640.3,490.3)" />
<use xlink:href="#f1_m" transform="matrix(12,0,0,12,644.4,490.3)" />
<use xlink:href="#f1_l" transform="matrix(12,0,0,12,655.9,490.3)" />
<use xlink:href="#f1_r" transform="matrix(12,0,0,12,667.7,490.3)" />
<use xlink:href="#f1_4" transform="matrix(12,0,0,12,686.5,490.3)" />
<use xlink:href="#f1_i" transform="matrix(12,0,0,12,696.9,490.3)" />
<use xlink:href="#f1_6" transform="matrix(12,0,0,12,709,490.3)" />
<use xlink:href="#f1_3" transform="matrix(12,0,0,12,713.9,490.3)" />
<use xlink:href="#f1_6" transform="matrix(12,0,0,12,723.9,490.3)" />
<use xlink:href="#f1_o" transform="matrix(12,0,0,12,728.9,490.3)" />
<use xlink:href="#f1_a" transform="matrix(12,0,0,12,739.5,490.3)" />
<use xlink:href="#f1_6" transform="matrix(12,0,0,12,749.9,490.3)" />
<use xlink:href="#f1_c" transform="matrix(12,0,0,12,754.8,490.3)" />
<use xlink:href="#f1_3" transform="matrix(12,0,0,12,767.7,490.3)" />
<use xlink:href="#f1_x" transform="matrix(12,0,0,12,137.7,1208.5)" />
<use xlink:href="#f1_x" transform="matrix(12,0,0,12,149.3,1208.5)" />
</g>
</g>
<defs>
<path d="M332,-20c0,0,-52,0,-88,34c0,0,-35,36,-35,88c0,0,0,52,35,88c0,0,36,36,88,36c0,0,51,0,88,-36c0,0,36,-36,36,-88c0,0,0,-51,-36,-87c0,0,-36,-35,-88,-35ZM289,290L247,524l71,19c0,0,77,20,108,68c0,0,31,48,31,130c0,0,0,102,-36,148c0,0,-35,46,-119,46c0,0,-63,0,-111,-32L159,759H93V979c0,0,123,32,241,32c0,0,339,0,339,-265c0,0,0,-108,-58,-183c0,0,-58,-74,-164,-104L386,441L366,290Z" 
id="f0_1c"
transform="scale(0.001,-0.001)" />

<path d="M204,-8c0,0,-9,0,-11,5c0,0,-2,5,-2,22V549c0,0,0,40,-4,56c0,0,-4,16,-15,22c0,0,-10,7,-39,7H90c0,0,-33,0,-52,33c0,0,-19,33,-19,90c0,0,0,53,15,98c0,0,16,44,35,44c0,0,12,0,12,-13V872c0,0,0,-27,31,-27h42c0,0,79,0,103,-20c0,0,23,-19,23,-83V67c0,0,0,-16,-8,-26c0,0,-9,-10,-33,-30c0,0,-25,-19,-35,-19Z" 
id="f0_4"
transform="scale(0.001,-0.001)" />

<path d="M13,0L67,212H274c0,0,15,0,19,4c0,0,5,4,5,13c0,0,0,6,-9,22c0,0,-9,16,-19,38c0,0,-11,21,-20,45c0,0,-8,24,-8,48c0,0,0,18,11,89c0,0,11,70,11,102c0,0,0,27,-16,45c0,0,-17,18,-37,18H188c0,0,-89,0,-89,117c0,0,0,52,15,99c0,0,15,47,30,47c0,0,18,0,18,-22c0,0,0,-19,10,-25c0,0,10,-7,39,-7h56c0,0,65,0,86,-15c0,0,21,-16,21,-56c0,0,0,-21,-5,-50c0,0,-38,-172,-38,-258c0,0,0,-63,11,-100c0,0,11,-37,46,-104c0,0,20,-38,20,-58c0,0,0,-16,-10,-74C398,130,388,72,369,0Z" 
id="f0_n"
transform="scale(0.001,-0.001)" />

<path d="M469,-18c0,0,-14,0,-14,15l2,7c0,0,20,43,20,158l-3,156l-2,119c0,0,0,65,19,109c0,0,19,44,60,88H110c0,0,-47,0,-69,34c0,0,-22,35,-22,109c0,0,0,50,16,85c0,0,16,36,35,36c0,0,14,0,14,-12L83,869c0,0,0,-13,7,-19c0,0,6,-5,23,-5H608c0,0,25,0,40,-14c0,0,15,-15,15,-38V686c0,0,0,-26,-4,-35c0,0,-3,-9,-11,-11c0,0,-42,-9,-56,-40c0,0,-15,-30,-15,-93c0,0,0,-56,12,-184c0,0,10,-129,10,-224c0,0,0,-24,-6,-37c0,0,-7,-13,-17,-25c0,0,-7,-6,-18,-12c0,0,-11,-7,-23,-13C535,12,523,5,512,0c0,0,-10,-5,-15,-8c0,0,-22,-10,-28,-10Z" 
id="f0_o"
transform="scale(0.001,-0.001)" />

<path d="M102,-3c0,0,-26,0,-26,31c0,0,0,176,35,320c0,0,34,145,102,247c0,0,3,4,3,25c0,0,0,24,-19,37c0,0,-19,13,-79,15c0,0,-40,0,-61,35c0,0,-22,35,-22,95c0,0,0,39,14,67c0,0,14,29,32,29c0,0,20,0,20,-25c0,0,0,-28,32,-28h33c0,0,54,0,85,-25c0,0,30,-25,30,-68l-3,-52c0,0,0,-22,3,-31c0,0,76,71,104,109c0,0,29,37,36,75c0,0,55,7,82,7c0,0,154,0,239,-126c0,0,85,-127,85,-352c0,0,0,-99,-15,-200C812,182,798,81,774,0H335l42,214H652c0,0,25,0,37,5c0,0,11,4,21,18c0,0,10,14,17,36c0,0,7,22,12,56c0,0,5,34,5,64c0,0,0,247,-241,247c0,0,-337,0,-337,-609c0,0,0,-20,-5,-27c0,0,-6,-7,-22,-7Z" 
id="f0_f"
transform="scale(0.001,-0.001)" />

<path d="M235,-20c0,0,-31,0,-51,19c0,0,-21,18,-21,50c0,0,0,65,39,120c0,0,39,54,125,109c0,0,56,35,87,56c0,0,32,20,46,33c0,0,79,45,79,143c0,0,0,27,-7,65c0,0,-8,39,-27,49c0,0,-19,10,-85,10H110c0,0,-36,0,-53,21c0,0,-17,22,-25,71c0,0,-7,49,-7,134c0,0,0,62,27,122c0,0,8,15,8,34c0,0,0,23,-35,37c0,0,-21,7,-30,29c0,0,-9,22,-9,72c0,0,0,24,10,46c0,0,8,22,25,38c0,0,16,16,26,16c0,0,17,0,17,-14c0,0,0,-9,7,-17c0,0,7,-8,34,-14c0,0,65,-15,81,-26c0,0,15,-10,15,-31c0,0,0,-15,-15,-38c0,0,-15,-22,-33,-53c0,0,-19,-30,-34,-67c0,0,-15,-36,-15,-79c0,0,0,-43,14,-56c0,0,15,-14,54,-14H518c0,0,39,0,63,-17c0,0,23,-16,33,-53c0,0,10,-36,17,-89c0,0,6,-52,6,-93c0,0,0,-99,-9,-144c0,0,-9,-44,-40,-80c0,0,-31,-36,-110,-86c0,0,-112,-71,-138,-95c0,0,-26,-23,-36,-44c0,0,-9,-20,-9,-43c0,0,0,-11,5,-26c0,0,6,-15,6,-26c0,0,0,-32,-20,-50c0,0,-20,-19,-51,-19Z" 
id="f0_5"
transform="scale(0.001,-0.001)" />

<path d="M107,-18c0,0,-17,0,-17,18l3,9c0,0,23,48,23,124l-1,177c0,0,0,55,8,77c0,0,9,22,33,46c0,0,23,23,51,40c0,0,28,17,42,17c0,0,5,0,9,-3c0,0,5,-3,5,-8c0,0,0,-3,-11,-26c0,0,-14,-49,-14,-120l4,-223c0,0,0,-38,-9,-54c0,0,-8,-17,-32,-34C201,22,178,6,150,-5c0,0,-28,-13,-43,-13Zm547,0c0,0,-17,0,-17,18l2,10c0,0,10,38,10,109c0,0,0,79,-14,208c0,0,-15,128,-15,149c0,0,0,54,16,89c0,0,15,36,53,69H154c0,0,-35,0,-57,40c0,0,-21,40,-21,103c0,0,0,33,8,61c0,0,7,28,19,44c0,0,13,17,24,17c0,0,15,0,15,-13V869c0,0,0,-13,5,-19c0,0,5,-5,22,-5H718c0,0,50,0,50,-63V652c0,0,0,-21,-15,-30c0,0,-35,-24,-35,-77c0,0,0,-57,20,-169c0,0,27,-157,27,-272c0,0,0,-29,-6,-44c0,0,-6,-15,-17,-26c0,0,-12,-16,-47,-35L681,-9l-13,-6l-14,-3Z" 
id="f0_6"
transform="scale(0.001,-0.001)" />

<path d="M139,-317V836H278V-317Z" 
id="f1_q"
transform="scale(0.001,-0.001)" />

<path d="M102,312V836H241V369L102,312Z" 
id="f1_3"
transform="scale(0.001,-0.001)" />

<path d="M66,0V106H322c0,0,75,0,127,23c0,0,53,23,82,67c0,0,29,43,42,98c0,0,13,54,13,124c0,0,0,70,-13,124c0,0,-13,55,-42,98c0,0,-29,44,-82,67c0,0,-52,23,-127,23H66V836H322c0,0,87,0,157,-24c0,0,70,-24,115,-64c0,0,45,-40,74,-94c0,0,30,-55,43,-113c0,0,13,-59,13,-123c0,0,0,-64,-13,-123c0,0,-13,-58,-43,-113c0,0,-29,-54,-74,-94C594,88,549,48,479,24C479,24,409,0,322,0Z" 
id="f1_5"
transform="scale(0.001,-0.001)" />

<path d="M154,0V454l138,56V0ZM722,0V454c0,0,0,161,-49,218c0,0,-48,57,-186,57H139V836H485c0,0,207,0,291,-93c0,0,83,-94,83,-318V0Z" 
id="f1_e"
transform="scale(0.001,-0.001)" />

<path d="M287,0L589,729H66v386H205V836l547,-1l-2,-82L433,0Z" 
id="f1_a"
transform="scale(0.001,-0.001)" />

<path d="M147,700v414H274V700Zm282,0v414H556V700Z" 
id="f1_v"
transform="scale(0.001,-0.001)" />

<path d="M112,-5c0,0,-39,0,-97,11V113c0,0,48,-10,77,-10c0,0,53,0,70,42c0,0,17,43,17,164V729H50V836H501c0,0,107,0,179,-25c0,0,72,-25,112,-77c0,0,40,-51,57,-118c0,0,16,-67,16,-164V0H726V454c0,0,0,55,-3,92c0,0,-4,37,-17,75c0,0,-14,38,-38,59c0,0,-24,22,-65,36c0,0,-42,13,-102,13H318V309c0,0,0,-160,-46,-237C272,72,226,-5,112,-5Z" 
id="f1_i"
transform="scale(0.001,-0.001)" />

<path d="M139,0V836H485c0,0,206,0,290,-90c0,0,84,-89,84,-294V0H721V473c0,0,0,147,-49,202c0,0,-48,54,-186,54H277V0Z" 
id="f1_u"
transform="scale(0.001,-0.001)" />

<path d="M585,0V426c0,0,0,54,-8,98c0,0,-8,44,-27,83c0,0,-19,40,-49,66c0,0,-30,26,-77,41c0,0,-47,15,-108,15H66V836H315c0,0,94,0,166,-20c0,0,71,-20,116,-54c0,0,46,-35,75,-88c0,0,28,-52,40,-112c0,0,12,-60,12,-137V0Z" 
id="f1_4"
transform="scale(0.001,-0.001)" />

<path d="M139,0V836H278V0Z" 
id="f1_6"
transform="scale(0.001,-0.001)" />

<path d="M139,0V138c0,0,0,61,8,112c0,0,7,52,19,87c0,0,11,36,30,66c0,0,19,31,35,49c0,0,17,19,41,35c0,0,25,17,41,25c0,0,17,7,40,17L141,836H303L613,388c0,0,20,10,33,18c0,0,13,8,34,28c0,0,20,20,33,44c0,0,13,25,22,66c0,0,10,41,10,92V836H882V698c0,0,0,-61,-7,-112c0,0,-6,-52,-18,-88c0,0,-12,-36,-30,-66c0,0,-19,-30,-36,-49c0,0,-17,-18,-41,-34c0,0,-24,-17,-40,-25c0,0,-17,-8,-41,-17L882,0H720L409,448c0,0,-21,-11,-34,-19c0,0,-13,-8,-34,-27c0,0,-21,-20,-34,-44c0,0,-12,-25,-22,-66c0,0,-9,-41,-9,-92V0Z" 
id="f1_j"
transform="scale(0.001,-0.001)" />

<path d="M700,-317V454c0,0,0,155,-54,215c0,0,-54,60,-180,60H277V551c0,0,0,-55,26,-80c0,0,27,-26,82,-26c0,0,30,0,80,10V341c0,0,-61,-11,-111,-11c0,0,-100,0,-157,55c0,0,-58,55,-58,186V836H466c0,0,203,0,288,-91c0,0,85,-92,85,-293V-317Z" 
id="f1_z"
transform="scale(0.001,-0.001)" />

<path d="M117,-176L179,62V190H336V62L213,-176Z" 
id="f1_9"
transform="scale(0.001,-0.001)" />

<path d="M66,0V107H554V452c0,0,0,56,-4,93c0,0,-4,37,-18,75c0,0,-14,38,-40,60c0,0,-26,22,-71,36c0,0,-45,13,-110,13H66V836H312c0,0,91,0,157,-17c0,0,66,-17,109,-49c0,0,44,-32,69,-84c0,0,26,-52,36,-114c0,0,10,-62,10,-147V107H817V0Z" 
id="f1_o"
transform="scale(0.001,-0.001)" />

<path d="M180,0L66,836H203L258,443c0,0,36,1,64,6c0,0,28,6,49,18c0,0,20,12,35,26c0,0,15,13,26,36c0,0,11,24,17,44c0,0,7,20,12,55c0,0,6,34,9,60c0,0,3,26,8,71c0,0,4,45,9,77H610c0,0,-13,-194,-31,-271c0,0,-31,-127,-111,-179c0,0,-71,-45,-196,-50L304,107c0,0,73,0,130,5c0,0,56,6,111,21c0,0,54,15,94,40c0,0,40,25,77,64c0,0,37,39,63,94c0,0,25,54,46,128c0,0,21,73,34,166c0,0,13,94,20,211h138c0,0,-14,-124,-29,-218c0,0,-16,-94,-39,-179c0,0,-22,-85,-50,-146c0,0,-28,-61,-68,-112c0,0,-39,-51,-87,-84C744,97,696,65,632,42C632,42,568,19,492,10C492,10,417,0,320,0Z" 
id="f1_c"
transform="scale(0.001,-0.001)" />

<path d="M736,107V473c0,0,0,147,-48,202c0,0,-49,54,-187,54H278V107ZM139,0V836H499c0,0,105,0,177,-22c0,0,72,-21,116,-69c0,0,44,-49,64,-119c0,0,19,-71,19,-174V0Z" 
id="f1_2"
transform="scale(0.001,-0.001)" />

<path d="M114,0l60,312c0,0,2,12,8,39c0,0,6,27,7,37c0,0,2,11,5,30c0,0,2,19,4,33c0,0,1,15,1,31c0,0,0,48,-35,146c0,0,-35,98,-98,208H228c0,0,3,-8,27,-67c0,0,25,-58,41,-117c0,0,21,53,50,90c0,0,29,37,57,57c0,0,29,21,65,32c0,0,37,11,65,14c0,0,28,3,67,3c0,0,300,0,300,-396V0H480V106H761V452c0,0,0,146,-46,215c0,0,-45,70,-118,70c0,0,-134,0,-198,-119c0,0,-36,-68,-67,-222c0,0,-2,-10,-6,-27L253,0Z" 
id="f1_b"
transform="scale(0.001,-0.001)" />

<path d="M66,0V107H332V555c0,0,0,92,-37,133c0,0,-37,41,-116,41H85V836h94c0,0,153,0,223,-66c0,0,69,-66,69,-231V0Z" 
id="f1_n"
transform="scale(0.001,-0.001)" />

<path d="M156,-317V454l139,56V-317ZM505,0L806,729H139V835H967V753L650,0Z" 
id="f1_r"
transform="scale(0.001,-0.001)" />

<path d="M495,0V729H66V836H781V729H634V0Z" 
id="f1_g"
transform="scale(0.001,-0.001)" />

<path d="M152,0V473c0,0,0,94,28,161c0,0,29,66,71,95H66V836H463V729H404c0,0,-65,0,-89,-57c0,0,-25,-58,-25,-199V0Z" 
id="f1_7"
transform="scale(0.001,-0.001)" />

<path d="M139,0V106H400c0,0,176,0,253,71c0,0,78,72,78,250c0,0,0,163,-80,233c0,0,-81,69,-250,69H278L277,564c0,0,-1,-54,26,-80c0,0,27,-25,82,-25c0,0,30,0,80,9V355c0,0,-61,-12,-111,-12c0,0,-100,0,-157,55c0,0,-58,55,-58,186V836H456c0,0,193,0,303,-109c0,0,110,-109,110,-309c0,0,0,-200,-110,-309C759,109,648,0,456,0Z" 
id="f1_f"
transform="scale(0.001,-0.001)" />

<path d="M163,0V190H321V0Z" 
id="f1_k"
transform="scale(0.001,-0.001)" />

<path d="M71,-141V-15L289,62L66,836H210L416,109c0,0,99,42,153,98c0,0,53,56,80,155c0,0,26,98,26,262V836H817V624c0,0,0,-88,-7,-154c0,0,-7,-67,-25,-132c0,0,-18,-66,-51,-116c0,0,-33,-51,-84,-98c0,0,-50,-48,-123,-87c0,0,-72,-39,-169,-74L71,-141Z" 
id="f1_m"
transform="scale(0.001,-0.001)" />

<path d="M291,0V190H443V0Zm5,299V414c0,0,0,75,21,124c0,0,21,48,88,113l67,66c0,0,42,40,61,75c0,0,19,35,19,71c0,0,0,67,-48,108c0,0,-49,41,-130,41c0,0,-59,0,-125,-26c0,0,-67,-26,-139,-77v140c0,0,70,43,142,64c0,0,72,21,148,21c0,0,138,0,221,-72c0,0,83,-73,83,-191c0,0,0,-57,-27,-108c0,0,-27,-51,-94,-115L517,583c0,0,-34,-35,-49,-54c0,0,-14,-20,-20,-39c0,0,-5,-16,-7,-38c0,0,-2,-22,-2,-61V299Z" 
id="f1_d"
transform="scale(0.001,-0.001)" />

<path d="M543,-317V369c0,0,0,85,-8,143c0,0,-8,58,-27,101c0,0,-18,44,-51,69c0,0,-33,24,-80,36c0,0,-48,11,-117,11H66V836H257c0,0,125,0,205,-23c0,0,80,-23,130,-79c0,0,50,-56,70,-143c0,0,20,-86,20,-222V-317Z" 
id="f1_p"
transform="scale(0.001,-0.001)" />

<path d="M66,0V106H564L66,836H228L516,413c0,0,3,2,9,6c0,0,17,13,27,21c0,0,10,8,26,27c0,0,17,20,26,40c0,0,9,21,16,54c0,0,7,34,7,75V836H764V698c0,0,0,-55,-7,-102c0,0,-7,-47,-16,-79c0,0,-10,-33,-27,-62c0,0,-18,-29,-32,-46c0,0,-14,-17,-37,-35c0,0,-22,-17,-36,-25c0,0,-13,-8,-36,-20L767,53V0Z" 
id="f1_h"
transform="scale(0.001,-0.001)" />

<path d="M522,-20c0,0,-196,0,-290,99c0,0,-94,100,-94,324V836H276V397c0,0,0,-86,16,-147c0,0,17,-60,50,-94c0,0,34,-34,77,-49c0,0,43,-15,103,-15c0,0,59,0,102,15c0,0,44,15,77,49c0,0,33,34,50,94c0,0,17,61,17,147c0,0,0,84,-8,143c0,0,-7,58,-25,105c0,0,-17,47,-51,69c0,0,-33,23,-83,23c0,0,-50,0,-119,-22V821c0,0,85,23,150,23c0,0,76,0,130,-30c0,0,53,-31,85,-90c0,0,31,-59,45,-138c0,0,13,-78,13,-183c0,0,0,-224,-93,-324c0,0,-94,-99,-290,-99Z" 
id="f1_l"
transform="scale(0.001,-0.001)" />

<path d="M522,92c0,0,247,0,247,333c0,0,0,88,-17,146c0,0,-17,58,-53,91c0,0,-35,33,-82,46c0,0,-48,14,-116,14H276V419c0,0,0,-327,246,-327Zm0,-112c0,0,-193,0,-289,109c0,0,-95,110,-95,337V836H501c0,0,213,0,309,-93c0,0,96,-94,96,-317c0,0,0,-227,-95,-337C811,89,715,-20,522,-20Z" 
id="f1_t"
transform="scale(0.001,-0.001)" />

<path d="M111,0V127c0,0,86,89,234,238c0,0,148,150,186,193c0,0,73,81,101,138c0,0,29,56,29,110c0,0,0,89,-62,145c0,0,-62,56,-162,56c0,0,-71,0,-150,-25c0,0,-78,-24,-168,-75v153c0,0,91,37,170,55c0,0,79,19,145,19c0,0,173,0,276,-86c0,0,103,-87,103,-232c0,0,0,-68,-26,-130c0,0,-26,-61,-94,-145c0,0,-18,-22,-118,-125C575,416,475,313,293,127H818V0Z" 
id="f1_y"
transform="scale(0.001,-0.001)" />

<path d="M486,98c0,0,117,0,175,114c0,0,59,115,59,344c0,0,0,230,-59,344c0,0,-58,115,-175,115c0,0,-117,0,-175,-115c0,0,-59,-114,-59,-344c0,0,0,-229,59,-344c0,0,58,-114,175,-114ZM485,-20c0,0,-187,0,-285,147c0,0,-99,148,-99,429c0,0,0,282,98,430c0,0,99,148,286,148c0,0,188,0,286,-148c0,0,99,-148,99,-430c0,0,0,-281,-99,-429c0,0,-98,-147,-286,-147Z" 
id="f1_14"
transform="scale(0.001,-0.001)" />

<path d="M122,-200c0,0,99,170,148,338c0,0,49,169,49,342c0,0,0,172,-49,340c0,0,-49,168,-148,340H241c0,0,112,-176,168,-345c0,0,55,-169,55,-335c0,0,0,-167,-55,-337c0,0,-56,-168,-168,-343Z" 
id="f1_11"
transform="scale(0.001,-0.001)" />

<path d="M74,357V479H476V357Z" 
id="f1_13"
transform="scale(0.001,-0.001)" />

<path d="M383,64c0,0,85,0,152,28V645c0,0,-67,13,-152,13c0,0,-194,0,-194,-314c0,0,0,-141,48,-211c0,0,48,-69,146,-69ZM342,-14c0,0,-287,0,-287,358c0,0,0,184,82,280c0,0,81,96,239,96c0,0,81,0,163,-18c0,0,-4,25,-4,124v182l-118,18v34H659V52L745,33V0H548l-9,52c0,0,-84,-66,-197,-66Z" 
id="f2_2"
transform="scale(0.001,-0.001)" />

<path d="M377,45c0,0,99,0,147,73c0,0,47,73,47,237c0,0,0,161,-47,233c0,0,-47,72,-147,72c0,0,-97,0,-141,-69c0,0,-44,-69,-44,-236c0,0,0,-169,45,-240c0,0,44,-70,140,-70Zm0,-59c0,0,-158,0,-238,94c0,0,-81,95,-81,274c0,0,0,178,81,272c0,0,80,94,244,94c0,0,160,0,241,-92c0,0,82,-92,82,-274c0,0,0,-368,-329,-368Z" 
id="f2_9"
transform="scale(0.001,-0.001)" />

<path d="M278,-14c0,0,-52,0,-115,11c0,0,-63,10,-99,23V193H98L134,95c0,0,56,-50,146,-50c0,0,144,0,144,123c0,0,0,91,-114,130l-66,21c0,0,-75,25,-110,50c0,0,-34,26,-53,63c0,0,-18,36,-18,89c0,0,0,92,63,145c0,0,63,54,170,54c0,0,77,0,193,-23V544H454l-32,81c0,0,-39,35,-124,35c0,0,-61,0,-92,-30c0,0,-32,-30,-32,-80c0,0,0,-43,29,-72c0,0,28,-29,86,-48c0,0,110,-38,144,-55c0,0,33,-17,57,-42c0,0,23,-25,36,-57c0,0,13,-32,13,-79c0,0,0,-104,-66,-158c0,0,-66,-53,-195,-53Z" 
id="f2_4"
transform="scale(0.001,-0.001)" />

<path d="M399,-14c0,0,-341,0,-341,370c0,0,0,175,87,269c0,0,87,95,249,95c0,0,101,0,220,-23V501H573L541,625c0,0,-62,35,-149,35c0,0,-200,0,-200,-304c0,0,0,-158,61,-225c0,0,61,-67,189,-67c0,0,109,0,189,24V43C631,43,595,16,530,1c0,0,-64,-15,-131,-15Z" 
id="f2_5"
transform="scale(0.001,-0.001)" />

<path d="M32,0V33L151,52V649L52,668v33H275V52L395,33V0ZM201,850c0,0,-32,0,-56,24c0,0,-24,24,-24,56c0,0,0,34,24,58c0,0,24,24,56,24c0,0,34,0,58,-24c0,0,24,-24,24,-58c0,0,0,-32,-24,-56c0,0,-24,-24,-58,-24Z" 
id="f2_3"
transform="scale(0.001,-0.001)" />

<path d="M495,413c0,0,0,133,-34,190c0,0,-34,57,-105,57c0,0,-78,0,-119,-63c0,0,-42,-62,-42,-184ZM374,-14c0,0,-163,0,-239,87c0,0,-75,88,-75,283c0,0,0,183,77,273c0,0,76,91,219,91c0,0,269,0,269,-306V353H194V340c0,0,0,-103,23,-160c0,0,22,-57,70,-87c0,0,47,-29,124,-29c0,0,40,0,96,6c0,0,55,7,91,15V43C598,43,562,20,500,3c0,0,-61,-17,-126,-17Z" 
id="f2_7"
transform="scale(0.001,-0.001)" />

<path d="M439,0V33l93,19V500c0,0,0,62,-30,97c0,0,-31,36,-94,36c0,0,-67,0,-165,-22V52L338,33V0H35V33l84,19V649L35,668v33H235l7,-57c0,0,57,33,122,54c0,0,65,22,108,22c0,0,91,0,137,-53c0,0,47,-53,47,-154V52L741,33V0Z" 
id="f2_i"
transform="scale(0.001,-0.001)" />

<path d="M249,-14c0,0,-71,0,-107,42c0,0,-35,42,-35,119V639H15v33l93,29l76,159h47V701H391V639H231V161c0,0,0,-48,22,-73c0,0,22,-24,57,-24c0,0,44,0,106,12V26C416,26,389,8,340,-2c0,0,-49,-12,-91,-12Z" 
id="f2_8"
transform="scale(0.001,-0.001)" />

<path d="M354,-200c0,0,-112,175,-167,343c0,0,-56,170,-56,337c0,0,0,166,55,335c0,0,55,169,168,345H473c0,0,-100,-172,-148,-340c0,0,-48,-168,-48,-340c0,0,0,-173,48,-342c0,0,49,-168,148,-338Z" 
id="f1_12"
transform="scale(0.001,-0.001)" />

<path d="M138,-7c0,0,-34,0,-72,10V129c0,0,25,-8,52,-8c0,0,33,0,58,5c0,0,26,5,58,24c0,0,33,20,53,54c0,0,21,34,36,97c0,0,15,64,15,151c0,0,0,113,-19,173c0,0,-19,60,-56,82c0,0,-38,22,-107,22H89V836h72c0,0,165,0,240,-91c0,0,76,-91,76,-293c0,0,0,-107,26,-227c0,0,25,-119,83,-225H437c0,0,-43,101,-62,184c0,0,-24,-60,-51,-99c0,0,-26,-38,-56,-58C268,27,239,7,209,0c0,0,-30,-7,-71,-7Z" 
id="f1_s"
transform="scale(0.001,-0.001)" />

<path d="M190,0V127H436V977L168,923v137l267,54H586V127H832V0Z" 
id="f1_x"
transform="scale(0.001,-0.001)" />


</defs>
</svg>