<?xml version="1.0" encoding="UTF-8" standalone="no"?>
<!DOCTYPE svg PUBLIC "-//W3C//DTD SVG 1.1//EN"
"http://www.w3.org/Graphics/SVG/1.1/DTD/svg11.dtd">
<svg viewBox="0 0 909 1286" version="1.1" xmlns="http://www.w3.org/2000/svg" xmlns:xlink="http://www.w3.org/1999/xlink">
<defs>
<clipPath id="c0_9"><path d="M0,1286.2V0H909.4V1286.2Z" /></clipPath>
<style type="text/css"><![CDATA[
.g0_9{
fill: none;
stroke: #000000;
stroke-width: 0.7638889;
stroke-linecap: butt;
stroke-linejoin: round;
}
]]></style>
</defs>
<g clip-path="url(#c0_9)">
<g fill="#000000" >
<use xlink:href="#f0_a" transform="matrix(12,0,0,12,138.1,127.1)" />
<use xlink:href="#f0_3" transform="matrix(12,0,0,12,150.2,127.1)" />
<use xlink:href="#f0_7" transform="matrix(12,0,0,12,154.3,127.1)" />
<use xlink:href="#f0_u" transform="matrix(12,0,0,12,164.7,127.1)" />
<use xlink:href="#f0_l" transform="matrix(12,0,0,12,172.1,127.1)" />
<use xlink:href="#f0_e" transform="matrix(12,0,0,12,179.5,127.1)" />
<use xlink:href="#f0_7" transform="matrix(12,0,0,12,191.7,127.1)" />
<use xlink:href="#f0_h" transform="matrix(12,0,0,12,208.5,127.1)" />
<use xlink:href="#f0_e" transform="matrix(12,0,0,12,218.5,127.1)" />
<use xlink:href="#f0_m" transform="matrix(12,0,0,12,230.7,127.1)" />
<use xlink:href="#f0_a" transform="matrix(12,0,0,12,249.7,127.1)" />
<use xlink:href="#f0_9" transform="matrix(12,0,0,12,261.6,127.1)" />
<use xlink:href="#f0_m" transform="matrix(12,0,0,12,266.6,127.1)" />
<use xlink:href="#f0_9" transform="matrix(12,0,0,12,279,127.1)" />
<use xlink:href="#f0_h" transform="matrix(12,0,0,12,284,127.1)" />
<use xlink:href="#f0_r" transform="matrix(12,0,0,12,300.5,127.1)" />
<use xlink:href="#f0_6" transform="matrix(12,0,0,12,305.5,127.1)" />
<use xlink:href="#f0_g" transform="matrix(12,0,0,12,323.9,127.1)" />
<use xlink:href="#f0_k" transform="matrix(12,0,0,12,329.7,127.1)" />
<use xlink:href="#f0_p" transform="matrix(12,0,0,12,341.2,127.1)" />
<use xlink:href="#f0_c" transform="matrix(12,0,0,12,353.1,127.1)" />
<use xlink:href="#f0_2" transform="matrix(12,0,0,12,366.1,127.1)" />
<use xlink:href="#f0_a" transform="matrix(12,0,0,12,383,127.1)" />
<use xlink:href="#f0_9" transform="matrix(12,0,0,12,395.1,127.1)" />
<use xlink:href="#f0_5" transform="matrix(12,0,0,12,400.1,127.1)" />
<use xlink:href="#f0_4" transform="matrix(12,0,0,12,410.3,127.1)" />
<use xlink:href="#f0_9" transform="matrix(12,0,0,12,419.9,127.1)" />
<use xlink:href="#f0_m" transform="matrix(12,0,0,12,425,127.1)" />
<use xlink:href="#f0_e" transform="matrix(12,0,0,12,444,127.1)" />
<use xlink:href="#f0_7" transform="matrix(12,0,0,12,456.2,127.1)" />
<use xlink:href="#f0_6" transform="matrix(12,0,0,12,466.6,127.1)" />
<use xlink:href="#f0_j" transform="matrix(12,0,0,12,484.9,127.1)" />
<use xlink:href="#f0_3" transform="matrix(12,0,0,12,497.2,127.1)" />
<use xlink:href="#f0_7" transform="matrix(12,0,0,12,501.3,127.1)" />
<use xlink:href="#f0_3" transform="matrix(12,0,0,12,511.7,127.1)" />
<use xlink:href="#f0_m" transform="matrix(12,0,0,12,515.8,127.1)" />
<use xlink:href="#f0_6" transform="matrix(12,0,0,12,528.3,127.1)" />
<use xlink:href="#f0_r" transform="matrix(12,0,0,12,546.4,127.1)" />
<use xlink:href="#f0_m" transform="matrix(12,0,0,12,551.4,127.1)" />
<use xlink:href="#f0_c" transform="matrix(12,0,0,12,570.5,127.1)" />
<use xlink:href="#f0_7" transform="matrix(12,0,0,12,583.5,127.1)" />
<use xlink:href="#f0_f" transform="matrix(12,0,0,12,593.9,127.1)" />
<use xlink:href="#f0_5" transform="matrix(12,0,0,12,612.2,127.1)" />
<use xlink:href="#f0_n" transform="matrix(12,0,0,12,622.6,127.1)" />
<use xlink:href="#f0_c" transform="matrix(12,0,0,12,635.5,127.1)" />
<use xlink:href="#f0_6" transform="matrix(12,0,0,12,648.5,127.1)" />
<use xlink:href="#f0_6" transform="matrix(12,0,0,12,660.4,127.1)" />
<use xlink:href="#f0_m" transform="matrix(12,0,0,12,672.3,127.1)" />
<use xlink:href="#f0_a" transform="matrix(12,0,0,12,691.4,127.1)" />
<use xlink:href="#f0_l" transform="matrix(12,0,0,12,703.5,127.1)" />
<use xlink:href="#f0_2" transform="matrix(12,0,0,12,710.8,127.1)" />
<use xlink:href="#f0_6" transform="matrix(12,0,0,12,721.3,127.1)" />
<use xlink:href="#f0_3" transform="matrix(12,0,0,12,739.6,127.1)" />
<use xlink:href="#f0_7" transform="matrix(12,0,0,12,743.7,127.1)" />
<use xlink:href="#f0_9" transform="matrix(12,0,0,12,754.1,127.1)" />
<use xlink:href="#f0_e" transform="matrix(12,0,0,12,759.2,127.1)" />
<use xlink:href="#f0_r" transform="matrix(12,0,0,12,551.7,148.5)" />
<use xlink:href="#f0_6" transform="matrix(12,0,0,12,556.6,148.5)" />
<use xlink:href="#f0_m" transform="matrix(12,0,0,12,568.5,148.5)" />
<use xlink:href="#f0_c" transform="matrix(12,0,0,12,586.9,148.5)" />
<use xlink:href="#f0_7" transform="matrix(12,0,0,12,599.9,148.5)" />
<use xlink:href="#f0_f" transform="matrix(12,0,0,12,610.3,148.5)" />
<use xlink:href="#f0_5" transform="matrix(12,0,0,12,628,148.5)" />
<use xlink:href="#f0_3" transform="matrix(12,0,0,12,638.4,148.5)" />
<use xlink:href="#f0_4" transform="matrix(12,0,0,12,642.5,148.5)" />
<use xlink:href="#f0_m" transform="matrix(12,0,0,12,652.1,148.5)" />
<use xlink:href="#f0_6" transform="matrix(12,0,0,12,670.5,148.5)" />
<use xlink:href="#f0_a" transform="matrix(12,0,0,12,682.4,148.5)" />
<use xlink:href="#f0_e" transform="matrix(12,0,0,12,694.4,148.5)" />
<use xlink:href="#f0_3" transform="matrix(12,0,0,12,712.6,148.5)" />
<use xlink:href="#f0_4" transform="matrix(12,0,0,12,716.7,148.5)" />
<use xlink:href="#f0_r" transform="matrix(12,0,0,12,732.1,148.5)" />
<use xlink:href="#f0_4" transform="matrix(12,0,0,12,737.2,148.5)" />
<use xlink:href="#f0_a" transform="matrix(12,0,0,12,746.8,148.5)" />
<use xlink:href="#f0_3" transform="matrix(12,0,0,12,758.8,148.5)" />
<use xlink:href="#f0_3" transform="matrix(12,0,0,12,762.9,148.5)" />
<use xlink:href="#f0_9" transform="matrix(12,0,0,12,766.9,148.5)" />
</g>
</g>
<path d="M128.6,172.6H533.7M128.6,216.1H533.7M128.6,238.3H533.7M128.9,172.2v66.4M226,172.2v66.4m97.4,-66.4v66.4M442.6,172.2v66.4m90.7,-66.4v66.4" class="g0_9" />
<g clip-path="url(#c0_9)">
<g fill="#000000" >
<use xlink:href="#f0_3" transform="matrix(12,0,0,12,473.6,189.9)" />
<use xlink:href="#f0_l" transform="matrix(12,0,0,12,477.7,189.9)" />
<use xlink:href="#f0_9" transform="matrix(12,0,0,12,485.1,189.9)" />
<use xlink:href="#f0_f" transform="matrix(12,0,0,12,490.1,189.9)" />
<use xlink:href="#f0_m" transform="matrix(12,0,0,12,502,189.9)" />
<use xlink:href="#f0_q" transform="matrix(12,0,0,12,514.4,189.9)" />
<use xlink:href="#f1_6" transform="matrix(11,0,0,11,332.1,188.5)" />
<use xlink:href="#f1_l" transform="matrix(11,0,0,11,340.5,188.5)" />
<use xlink:href="#f1_1k" transform="matrix(11,0,0,11,348,188.5)" />
<use xlink:href="#f1_l" transform="matrix(11,0,0,11,356.4,188.5)" />
<use xlink:href="#f1_d" transform="matrix(11,0,0,11,363.9,188.5)" />
<use xlink:href="#f1_b" transform="matrix(11,0,0,11,368.5,188.5)" />
<use xlink:href="#f1_r" transform="matrix(11,0,0,11,375.9,188.5)" />
<use xlink:href="#f1_7" transform="matrix(11,0,0,11,381.5,188.5)" />
<use xlink:href="#f1_b" transform="matrix(11,0,0,11,386.1,188.5)" />
<use xlink:href="#f1_p" transform="matrix(11,0,0,11,393.6,188.5)" />
<use xlink:href="#f1_9" transform="matrix(11,0,0,11,402,188.5)" />
<use xlink:href="#f0_12" transform="matrix(12,0,0,12,241.7,189.9)" />
<use xlink:href="#f0_3" transform="matrix(12,0,0,12,247.8,189.9)" />
<use xlink:href="#f0_p" transform="matrix(12,0,0,12,251.9,189.9)" />
<use xlink:href="#f0_i" transform="matrix(12,0,0,12,263.8,189.9)" />
<use xlink:href="#f0_3" transform="matrix(12,0,0,12,275.7,189.9)" />
<use xlink:href="#f0_l" transform="matrix(12,0,0,12,279.7,189.9)" />
<use xlink:href="#f0_3" transform="matrix(12,0,0,12,287,189.9)" />
<use xlink:href="#f0_m" transform="matrix(12,0,0,12,291.1,189.9)" />
<use xlink:href="#f0_d" transform="matrix(12,0,0,12,303.6,189.9)" />
<use xlink:href="#f0_a" transform="matrix(12,0,0,12,303.1,211.3)" />
<use xlink:href="#f1_13" transform="matrix(11,0,0,11,137.7,188.5)" />
<use xlink:href="#f1_l" transform="matrix(11,0,0,11,143.3,188.5)" />
<use xlink:href="#f1_a" transform="matrix(11,0,0,11,150.6,188.5)" />
<use xlink:href="#f1_7" transform="matrix(11,0,0,11,163.7,188.5)" />
<use xlink:href="#f1_p" transform="matrix(11,0,0,11,168.5,188.5)" />
<use xlink:href="#f1_7" transform="matrix(11,0,0,11,176.9,188.5)" />
<use xlink:href="#f1_q" transform="matrix(11,0,0,11,181.4,188.5)" />
<use xlink:href="#f1_d" transform="matrix(11,0,0,11,188,188.5)" />
<use xlink:href="#f1_b" transform="matrix(11,0,0,11,192.7,188.5)" />
<use xlink:href="#f0_5" transform="matrix(12,0,0,12,458.9,233.4)" />
<use xlink:href="#f0_d" transform="matrix(12,0,0,12,469.3,233.4)" />
<use xlink:href="#f0_i" transform="matrix(12,0,0,12,480.8,233.4)" />
<use xlink:href="#f0_a" transform="matrix(12,0,0,12,498.5,233.4)" />
<use xlink:href="#f0_3" transform="matrix(12,0,0,12,510.5,233.4)" />
<use xlink:href="#f0_2" transform="matrix(12,0,0,12,514.6,233.4)" />
<use xlink:href="#f1_l" transform="matrix(11,0,0,11,332.1,232.1)" />
<use xlink:href="#f1_q" transform="matrix(11,0,0,11,339.6,232.1)" />
<use xlink:href="#f1_8" transform="matrix(11,0,0,11,346.2,232.1)" />
<use xlink:href="#f1_y" transform="matrix(11,0,0,11,353.6,232.1)" />
<use xlink:href="#f1_l" transform="matrix(11,0,0,11,362,232.1)" />
<use xlink:href="#f1_j" transform="matrix(11,0,0,11,369.3,232.1)" />
<use xlink:href="#f1_b" transform="matrix(11,0,0,11,374.1,232.1)" />
<use xlink:href="#f0_6" transform="matrix(12,0,0,12,260.3,233.4)" />
<use xlink:href="#f0_5" transform="matrix(12,0,0,12,272.3,233.4)" />
<use xlink:href="#f0_3" transform="matrix(12,0,0,12,282.5,233.4)" />
<use xlink:href="#f0_4" transform="matrix(12,0,0,12,286.6,233.4)" />
<use xlink:href="#f0_b" transform="matrix(12,0,0,12,296.2,233.4)" />
<use xlink:href="#f0_m" transform="matrix(12,0,0,12,302.6,233.4)" />
<use xlink:href="#f1_q" transform="matrix(11,0,0,11,137.7,232.1)" />
<use xlink:href="#f1_l" transform="matrix(11,0,0,11,144.2,232.1)" />
<use xlink:href="#f1_8" transform="matrix(11,0,0,11,151.7,232.1)" />
<use xlink:href="#f1_r" transform="matrix(11,0,0,11,159,232.1)" />
<use xlink:href="#f1_l" transform="matrix(11,0,0,11,164.6,232.1)" />
<use xlink:href="#f1_d" transform="matrix(11,0,0,11,172.1,232.1)" />
<use xlink:href="#f1_b" transform="matrix(11,0,0,11,176.8,232.1)" />
<use xlink:href="#f1_r" transform="matrix(11,0,0,11,184.1,232.1)" />
<use xlink:href="#f1_7" transform="matrix(11,0,0,11,189.8,232.1)" />
<use xlink:href="#f1_b" transform="matrix(11,0,0,11,194.5,232.1)" />
<use xlink:href="#f2_s" transform="matrix(12.5,0,0,12.5,662.8,294.1)" />
<use xlink:href="#f2_n" transform="matrix(12.5,0,0,12.5,675,294.1)" />
<use xlink:href="#f2_i" transform="matrix(12.5,0,0,12.5,680.4,294.1)" />
<use xlink:href="#f2_3" transform="matrix(12.5,0,0,12.5,690,294.1)" />
<use xlink:href="#f2_1b" transform="matrix(12.5,0,0,12.5,695.4,294.1)" />
<use xlink:href="#f2_n" transform="matrix(12.5,0,0,12.5,707.9,294.1)" />
<use xlink:href="#f2_j" transform="matrix(12.5,0,0,12.5,713.4,294.1)" />
<use xlink:href="#f2_6" transform="matrix(12.5,0,0,12.5,725.3,294.1)" />
<use xlink:href="#f2_i" transform="matrix(12.5,0,0,12.5,741.9,294.1)" />
<use xlink:href="#f2_q" transform="matrix(12.5,0,0,12.5,751.6,294.1)" />
<use xlink:href="#f2_r" transform="matrix(12.5,0,0,12.5,761.1,294.1)" />
<use xlink:href="#f0_6" transform="matrix(12,0,0,12,174.6,315.3)" />
<use xlink:href="#f0_6" transform="matrix(12,0,0,12,186.5,315.3)" />
<use xlink:href="#f0_b" transform="matrix(12,0,0,12,198.4,315.3)" />
<use xlink:href="#f0_5" transform="matrix(12,0,0,12,212,315.3)" />
<use xlink:href="#f0_h" transform="matrix(12,0,0,12,222.4,315.3)" />
<use xlink:href="#f0_i" transform="matrix(12,0,0,12,232.3,315.3)" />
<use xlink:href="#f0_6" transform="matrix(12,0,0,12,244.2,315.3)" />
<use xlink:href="#f0_a" transform="matrix(12,0,0,12,263.3,315.3)" />
<use xlink:href="#f0_3" transform="matrix(12,0,0,12,275.3,315.3)" />
<use xlink:href="#f0_h" transform="matrix(12,0,0,12,279.4,315.3)" />
<use xlink:href="#f0_5" transform="matrix(12,0,0,12,289.4,315.3)" />
<use xlink:href="#f0_d" transform="matrix(12,0,0,12,299.8,315.3)" />
<use xlink:href="#f0_i" transform="matrix(12,0,0,12,311.2,315.3)" />
<use xlink:href="#f0_2" transform="matrix(12,0,0,12,323.1,315.3)" />
<use xlink:href="#f0_g" transform="matrix(12,0,0,12,340.8,315.3)" />
<use xlink:href="#f0_y" transform="matrix(12,0,0,12,346.6,315.3)" />
<use xlink:href="#f0_r" transform="matrix(12,0,0,12,355,315.3)" />
<use xlink:href="#f0_m" transform="matrix(12,0,0,12,360,315.3)" />
<use xlink:href="#f0_n" transform="matrix(12,0,0,12,372.4,315.3)" />
<use xlink:href="#f0_h" transform="matrix(12,0,0,12,392.5,315.3)" />
<use xlink:href="#f0_7" transform="matrix(12,0,0,12,402.6,315.3)" />
<use xlink:href="#f0_3" transform="matrix(12,0,0,12,413,315.3)" />
<use xlink:href="#f0_y" transform="matrix(12,0,0,12,417.1,315.3)" />
<use xlink:href="#f0_j" transform="matrix(12,0,0,12,432.5,315.3)" />
<use xlink:href="#f0_3" transform="matrix(12,0,0,12,444.7,315.3)" />
<use xlink:href="#f0_5" transform="matrix(12,0,0,12,448.8,315.3)" />
<use xlink:href="#f0_m" transform="matrix(12,0,0,12,459,315.3)" />
<use xlink:href="#f0_9" transform="matrix(12,0,0,12,471.5,315.3)" />
<use xlink:href="#f0_e" transform="matrix(12,0,0,12,476.6,315.3)" />
<use xlink:href="#f0_o" transform="matrix(12,0,0,12,502.9,315.3)" />
<use xlink:href="#f0_r" transform="matrix(12,0,0,12,508.7,315.3)" />
<use xlink:href="#f0_m" transform="matrix(12,0,0,12,513.8,315.3)" />
<use xlink:href="#f0_n" transform="matrix(12,0,0,12,526.3,315.3)" />
<use xlink:href="#f0_h" transform="matrix(12,0,0,12,546.2,315.3)" />
<use xlink:href="#f0_7" transform="matrix(12,0,0,12,556.3,315.3)" />
<use xlink:href="#f0_3" transform="matrix(12,0,0,12,566.7,315.3)" />
<use xlink:href="#f0_4" transform="matrix(12,0,0,12,570.8,315.3)" />
<use xlink:href="#f0_h" transform="matrix(12,0,0,12,587.6,315.3)" />
<use xlink:href="#f0_7" transform="matrix(12,0,0,12,597.5,315.3)" />
<use xlink:href="#f0_3" transform="matrix(12,0,0,12,607.9,315.3)" />
<use xlink:href="#f0_j" transform="matrix(12,0,0,12,619.2,315.3)" />
<use xlink:href="#f0_3" transform="matrix(12,0,0,12,631.4,315.3)" />
<use xlink:href="#f0_5" transform="matrix(12,0,0,12,635.4,315.3)" />
<use xlink:href="#f0_e" transform="matrix(12,0,0,12,645.8,315.3)" />
<use xlink:href="#f0_a" transform="matrix(12,0,0,12,658,315.3)" />
<use xlink:href="#f0_m" transform="matrix(12,0,0,12,670,315.3)" />
<use xlink:href="#f0_n" transform="matrix(12,0,0,12,682.5,315.3)" />
<use xlink:href="#f0_4" transform="matrix(12,0,0,12,695.5,315.3)" />
<use xlink:href="#f0_a" transform="matrix(12,0,0,12,712.3,315.3)" />
<use xlink:href="#f0_3" transform="matrix(12,0,0,12,724.3,315.3)" />
<use xlink:href="#f0_5" transform="matrix(12,0,0,12,728.4,315.3)" />
<use xlink:href="#f0_2" transform="matrix(12,0,0,12,738.8,315.3)" />
<use xlink:href="#f0_k" transform="matrix(12,0,0,12,749.4,315.3)" />
<use xlink:href="#f0_2" transform="matrix(12,0,0,12,760.8,315.3)" />
<use xlink:href="#f1_p" transform="matrix(11,0,0,11,137.3,315.3)" />
<use xlink:href="#f1_7" transform="matrix(11,0,0,11,145.8,315.3)" />
<use xlink:href="#f1_16" transform="matrix(11,0,0,11,150.5,315.3)" />
<use xlink:href="#f1_9" transform="matrix(11,0,0,11,158.9,315.3)" />
<use xlink:href="#f1_1k" transform="matrix(11,0,0,11,732.7,336.7)" />
<use xlink:href="#f1_9" transform="matrix(11,0,0,11,741.1,336.7)" />
<use xlink:href="#f1_r" transform="matrix(11,0,0,11,749.5,336.7)" />
<use xlink:href="#f1_n" transform="matrix(11,0,0,11,755.2,336.7)" />
<use xlink:href="#f1_9" transform="matrix(11,0,0,11,763.6,336.7)" />
<use xlink:href="#f0_j" transform="matrix(12,0,0,12,258,336.7)" />
<use xlink:href="#f0_u" transform="matrix(12,0,0,12,270.2,336.7)" />
<use xlink:href="#f0_5" transform="matrix(12,0,0,12,283.8,336.7)" />
<use xlink:href="#f0_m" transform="matrix(12,0,0,12,294.2,336.7)" />
<use xlink:href="#f0_9" transform="matrix(12,0,0,12,306.5,336.7)" />
<use xlink:href="#f0_7" transform="matrix(12,0,0,12,311.6,336.7)" />
<use xlink:href="#f0_r" transform="matrix(12,0,0,12,328,336.7)" />
<use xlink:href="#f0_a" transform="matrix(12,0,0,12,333.1,336.7)" />
<use xlink:href="#f0_3" transform="matrix(12,0,0,12,345.1,336.7)" />
<use xlink:href="#f0_l" transform="matrix(12,0,0,12,349.2,336.7)" />
<use xlink:href="#f0_o" transform="matrix(12,0,0,12,362.6,336.7)" />
<use xlink:href="#f0_y" transform="matrix(12,0,0,12,368.4,336.7)" />
<use xlink:href="#f0_h" transform="matrix(12,0,0,12,376.8,336.7)" />
<use xlink:href="#f0_7" transform="matrix(12,0,0,12,386.9,336.7)" />
<use xlink:href="#f0_3" transform="matrix(12,0,0,12,397.3,336.7)" />
<use xlink:href="#f0_y" transform="matrix(12,0,0,12,401.4,336.7)" />
<use xlink:href="#f0_a" transform="matrix(12,0,0,12,415.9,336.7)" />
<use xlink:href="#f0_e" transform="matrix(12,0,0,12,427.9,336.7)" />
<use xlink:href="#f0_e" transform="matrix(12,0,0,12,446.4,336.7)" />
<use xlink:href="#f0_7" transform="matrix(12,0,0,12,458.6,336.7)" />
<use xlink:href="#f0_9" transform="matrix(12,0,0,12,468.8,336.7)" />
<use xlink:href="#f0_y" transform="matrix(12,0,0,12,480.1,336.7)" />
<use xlink:href="#f0_r" transform="matrix(12,0,0,12,488.5,336.7)" />
<use xlink:href="#f0_m" transform="matrix(12,0,0,12,493.4,336.7)" />
<use xlink:href="#f0_n" transform="matrix(12,0,0,12,505.9,336.7)" />
<use xlink:href="#f0_y" transform="matrix(12,0,0,12,518.9,336.7)" />
<use xlink:href="#f0_a" transform="matrix(12,0,0,12,533.3,336.7)" />
<use xlink:href="#f0_e" transform="matrix(12,0,0,12,545.4,336.7)" />
<use xlink:href="#f0_n" transform="matrix(12,0,0,12,563.8,336.7)" />
<use xlink:href="#f0_3" transform="matrix(12,0,0,12,576.8,336.7)" />
<use xlink:href="#f0_u" transform="matrix(12,0,0,12,580.9,336.7)" />
<use xlink:href="#f0_h" transform="matrix(12,0,0,12,588.4,336.7)" />
<use xlink:href="#f0_6" transform="matrix(12,0,0,12,598.5,336.7)" />
<use xlink:href="#f0_7" transform="matrix(12,0,0,12,610.4,336.7)" />
<use xlink:href="#f0_j" transform="matrix(12,0,0,12,626.8,336.7)" />
<use xlink:href="#f0_3" transform="matrix(12,0,0,12,639.1,336.7)" />
<use xlink:href="#f0_q" transform="matrix(12,0,0,12,643.2,336.7)" />
<use xlink:href="#f0_9" transform="matrix(12,0,0,12,654,336.7)" />
<use xlink:href="#f0_5" transform="matrix(12,0,0,12,659,336.7)" />
<use xlink:href="#f0_n" transform="matrix(12,0,0,12,669.4,336.7)" />
<use xlink:href="#f0_4" transform="matrix(12,0,0,12,682.4,336.7)" />
<use xlink:href="#f0_s" transform="matrix(12,0,0,12,698.1,336.7)" />
<use xlink:href="#f0_e" transform="matrix(12,0,0,12,707.9,336.7)" />
<use xlink:href="#f0_g" transform="matrix(12,0,0,12,726.3,336.7)" />
<use xlink:href="#f1_1k" transform="matrix(11,0,0,11,177.8,336.7)" />
<use xlink:href="#f1_9" transform="matrix(11,0,0,11,186.2,336.7)" />
<use xlink:href="#f1_r" transform="matrix(11,0,0,11,194.6,336.7)" />
<use xlink:href="#f1_n" transform="matrix(11,0,0,11,200.3,336.7)" />
<use xlink:href="#f1_9" transform="matrix(11,0,0,11,208.7,336.7)" />
<use xlink:href="#f1_p" transform="matrix(11,0,0,11,221.5,336.7)" />
<use xlink:href="#f1_7" transform="matrix(11,0,0,11,229.9,336.7)" />
<use xlink:href="#f1_16" transform="matrix(11,0,0,11,234.6,336.7)" />
<use xlink:href="#f1_9" transform="matrix(11,0,0,11,243,336.7)" />
<use xlink:href="#f0_9" transform="matrix(12,0,0,12,137.5,336.7)" />
<use xlink:href="#f0_m" transform="matrix(12,0,0,12,142.5,336.7)" />
<use xlink:href="#f0_4" transform="matrix(12,0,0,12,155,336.7)" />
<use xlink:href="#f0_w" transform="matrix(12,0,0,12,164.7,336.7)" />
<use xlink:href="#f0_a" transform="matrix(12,0,0,12,708,358.1)" />
<use xlink:href="#f0_3" transform="matrix(12,0,0,12,720,358.1)" />
<use xlink:href="#f0_7" transform="matrix(12,0,0,12,724.1,358.1)" />
<use xlink:href="#f0_u" transform="matrix(12,0,0,12,734.5,358.1)" />
<use xlink:href="#f0_l" transform="matrix(12,0,0,12,742,358.1)" />
<use xlink:href="#f0_e" transform="matrix(12,0,0,12,749.3,358.1)" />
<use xlink:href="#f0_2" transform="matrix(12,0,0,12,761.5,358.1)" />
<use xlink:href="#f1_13" transform="matrix(11,0,0,11,658.5,358.1)" />
<use xlink:href="#f1_b" transform="matrix(11,0,0,11,664,358.1)" />
<use xlink:href="#f1_d" transform="matrix(11,0,0,11,671.4,358.1)" />
<use xlink:href="#f1_1q" transform="matrix(11,0,0,11,680.3,358.1)" />
<use xlink:href="#f1_7" transform="matrix(11,0,0,11,688.7,358.1)" />
<use xlink:href="#f1_n" transform="matrix(11,0,0,11,693.4,358.1)" />
<use xlink:href="#f0_g" transform="matrix(12,0,0,12,645.6,358.1)" />
<use xlink:href="#f0_x" transform="matrix(12,0,0,12,651.5,358.1)" />
<use xlink:href="#f0_h" transform="matrix(12,0,0,12,138,379.5)" />
<use xlink:href="#f0_7" transform="matrix(12,0,0,12,148,379.5)" />
<use xlink:href="#f0_3" transform="matrix(12,0,0,12,158.4,379.5)" />
<use xlink:href="#f0_6" transform="matrix(12,0,0,12,162.5,379.5)" />
<use xlink:href="#f0_v" transform="matrix(12,0,0,12,180.4,379.5)" />
<use xlink:href="#f0_9" transform="matrix(12,0,0,12,186.5,379.5)" />
<use xlink:href="#f0_b" transform="matrix(12,0,0,12,191.4,379.5)" />
<use xlink:href="#f0_6" transform="matrix(12,0,0,12,203.7,379.5)" />
<use xlink:href="#f0_5" transform="matrix(12,0,0,12,215.6,379.5)" />
<use xlink:href="#f0_9" transform="matrix(12,0,0,12,226,379.5)" />
<use xlink:href="#f0_q" transform="matrix(12,0,0,12,231,379.5)" />
<use xlink:href="#f0_2" transform="matrix(12,0,0,12,241.9,379.5)" />
<use xlink:href="#f0_n" transform="matrix(12,0,0,12,258.2,379.5)" />
<use xlink:href="#f0_m" transform="matrix(12,0,0,12,271.2,379.5)" />
<use xlink:href="#f0_a" transform="matrix(12,0,0,12,283.7,379.5)" />
<use xlink:href="#f0_n" transform="matrix(12,0,0,12,295.8,379.5)" />
<use xlink:href="#f0_6" transform="matrix(12,0,0,12,308.8,379.5)" />
<use xlink:href="#f0_7" transform="matrix(12,0,0,12,320.7,379.5)" />
<use xlink:href="#f0_7" transform="matrix(12,0,0,12,337,379.5)" />
<use xlink:href="#f0_2" transform="matrix(12,0,0,12,347.4,379.5)" />
<use xlink:href="#f0_9" transform="matrix(12,0,0,12,357.9,379.5)" />
<use xlink:href="#f0_c" transform="matrix(12,0,0,12,362.8,379.5)" />
<use xlink:href="#f0_m" transform="matrix(12,0,0,12,375.8,379.5)" />
<use xlink:href="#f0_o" transform="matrix(12,0,0,12,394.1,379.5)" />
<use xlink:href="#f0_5" transform="matrix(12,0,0,12,399.9,379.5)" />
<use xlink:href="#f0_a" transform="matrix(12,0,0,12,410.3,379.5)" />
<use xlink:href="#f0_9" transform="matrix(12,0,0,12,422.4,379.5)" />
<use xlink:href="#f0_3" transform="matrix(12,0,0,12,427.3,379.5)" />
<use xlink:href="#f0_2" transform="matrix(12,0,0,12,437.3,379.5)" />
<use xlink:href="#f0_4" transform="matrix(12,0,0,12,447.9,379.5)" />
<use xlink:href="#f0_5" transform="matrix(12,0,0,12,457.5,379.5)" />
<use xlink:href="#f0_9" transform="matrix(12,0,0,12,467.9,379.5)" />
<use xlink:href="#f0_m" transform="matrix(12,0,0,12,472.8,379.5)" />
<use xlink:href="#f0_s" transform="matrix(12,0,0,12,491.2,379.5)" />
<use xlink:href="#f0_d" transform="matrix(12,0,0,12,501,379.5)" />
<use xlink:href="#f0_9" transform="matrix(12,0,0,12,512.4,379.5)" />
<use xlink:href="#f0_6" transform="matrix(12,0,0,12,517.4,379.5)" />
<use xlink:href="#f0_p" transform="matrix(12,0,0,12,535.2,379.5)" />
<use xlink:href="#f0_d" transform="matrix(12,0,0,12,547.1,379.5)" />
<use xlink:href="#f0_n" transform="matrix(12,0,0,12,558.5,379.5)" />
<use xlink:href="#f0_m" transform="matrix(12,0,0,12,571.5,379.5)" />
<use xlink:href="#f0_6" transform="matrix(12,0,0,12,583.9,379.5)" />
<use xlink:href="#f0_9" transform="matrix(12,0,0,12,595.8,379.5)" />
<use xlink:href="#f0_6" transform="matrix(12,0,0,12,606.8,379.5)" />
<use xlink:href="#f0_7" transform="matrix(12,0,0,12,618.7,379.5)" />
<use xlink:href="#f0_3" transform="matrix(12,0,0,12,629.1,379.5)" />
<use xlink:href="#f0_7" transform="matrix(12,0,0,12,633.2,379.5)" />
<use xlink:href="#f0_n" transform="matrix(12,0,0,12,643.6,379.5)" />
<use xlink:href="#f0_j" transform="matrix(12,0,0,12,662.4,379.5)" />
<use xlink:href="#f0_3" transform="matrix(12,0,0,12,674.6,379.5)" />
<use xlink:href="#f0_d" transform="matrix(12,0,0,12,678.7,379.5)" />
<use xlink:href="#f0_3" transform="matrix(12,0,0,12,690.1,379.5)" />
<use xlink:href="#f0_i" transform="matrix(12,0,0,12,694.2,379.5)" />
<use xlink:href="#f0_9" transform="matrix(12,0,0,12,706,379.5)" />
<use xlink:href="#f0_m" transform="matrix(12,0,0,12,711,379.5)" />
<use xlink:href="#f0_n" transform="matrix(12,0,0,12,723.5,379.5)" />
<use xlink:href="#f0_4" transform="matrix(12,0,0,12,736.5,379.5)" />
<use xlink:href="#f0_j" transform="matrix(12,0,0,12,751.9,379.5)" />
<use xlink:href="#f0_u" transform="matrix(12,0,0,12,764.2,379.5)" />
<use xlink:href="#f0_16" transform="matrix(12,0,0,12,642.7,400.9)" />
<use xlink:href="#f0_r" transform="matrix(12,0,0,12,655.1,400.9)" />
<use xlink:href="#f0_e" transform="matrix(12,0,0,12,660.1,400.9)" />
<use xlink:href="#f0_9" transform="matrix(12,0,0,12,672.4,400.9)" />
<use xlink:href="#f0_f" transform="matrix(12,0,0,12,677.4,400.9)" />
<use xlink:href="#f0_9" transform="matrix(12,0,0,12,695.2,400.9)" />
<use xlink:href="#f0_l" transform="matrix(12,0,0,12,700.1,400.9)" />
<use xlink:href="#f0_3" transform="matrix(12,0,0,12,707.5,400.9)" />
<use xlink:href="#f0_e" transform="matrix(12,0,0,12,711.6,400.9)" />
<use xlink:href="#f0_r" transform="matrix(12,0,0,12,729.8,400.9)" />
<use xlink:href="#f0_m" transform="matrix(12,0,0,12,734.6,400.9)" />
<use xlink:href="#f0_n" transform="matrix(12,0,0,12,747.2,400.9)" />
<use xlink:href="#f0_6" transform="matrix(12,0,0,12,760.1,400.9)" />
<use xlink:href="#f1_4" transform="matrix(11,0,0,11,469.9,400.9)" />
<use xlink:href="#f1_j" transform="matrix(11,0,0,11,480.2,400.9)" />
<use xlink:href="#f1_p" transform="matrix(11,0,0,11,489.2,400.9)" />
<use xlink:href="#f1_7" transform="matrix(11,0,0,11,497.4,400.9)" />
<use xlink:href="#f1_16" transform="matrix(11,0,0,11,502.1,400.9)" />
<use xlink:href="#f1_9" transform="matrix(11,0,0,11,510.5,400.9)" />
<use xlink:href="#f1_1k" transform="matrix(11,0,0,11,523.2,400.9)" />
<use xlink:href="#f1_9" transform="matrix(11,0,0,11,531.6,400.9)" />
<use xlink:href="#f1_r" transform="matrix(11,0,0,11,539.9,400.9)" />
<use xlink:href="#f1_n" transform="matrix(11,0,0,11,545.5,400.9)" />
<use xlink:href="#f1_9" transform="matrix(11,0,0,11,553.9,400.9)" />
<use xlink:href="#f1_p" transform="matrix(11,0,0,11,566.6,400.9)" />
<use xlink:href="#f1_9" transform="matrix(11,0,0,11,575,400.9)" />
<use xlink:href="#f1_l" transform="matrix(11,0,0,11,587.5,400.9)" />
<use xlink:href="#f1_q" transform="matrix(11,0,0,11,595,400.9)" />
<use xlink:href="#f1_1j" transform="matrix(11,0,0,11,605.6,400.9)" />
<use xlink:href="#f1_y" transform="matrix(11,0,0,11,612.2,400.9)" />
<use xlink:href="#f1_b" transform="matrix(11,0,0,11,620.6,400.9)" />
<use xlink:href="#f1_p" transform="matrix(11,0,0,11,628.1,400.9)" />
<use xlink:href="#f0_j" transform="matrix(12,0,0,12,363.8,400.9)" />
<use xlink:href="#f0_u" transform="matrix(12,0,0,12,376,400.9)" />
<use xlink:href="#f0_5" transform="matrix(12,0,0,12,389.3,400.9)" />
<use xlink:href="#f0_n" transform="matrix(12,0,0,12,399.6,400.9)" />
<use xlink:href="#f0_d" transform="matrix(12,0,0,12,412.6,400.9)" />
<use xlink:href="#f0_e" transform="matrix(12,0,0,12,424.1,400.9)" />
<use xlink:href="#f0_s" transform="matrix(12,0,0,12,442.2,400.9)" />
<use xlink:href="#f0_e" transform="matrix(12,0,0,12,452,400.9)" />
<use xlink:href="#f1_4" transform="matrix(11,0,0,11,191.1,400.9)" />
<use xlink:href="#f1_j" transform="matrix(11,0,0,11,201.4,400.9)" />
<use xlink:href="#f1_1k" transform="matrix(11,0,0,11,210.2,400.9)" />
<use xlink:href="#f1_9" transform="matrix(11,0,0,11,218.6,400.9)" />
<use xlink:href="#f1_r" transform="matrix(11,0,0,11,227,400.9)" />
<use xlink:href="#f1_n" transform="matrix(11,0,0,11,232.6,400.9)" />
<use xlink:href="#f1_9" transform="matrix(11,0,0,11,241,400.9)" />
<use xlink:href="#f1_p" transform="matrix(11,0,0,11,253.6,400.9)" />
<use xlink:href="#f1_7" transform="matrix(11,0,0,11,262,400.9)" />
<use xlink:href="#f1_16" transform="matrix(11,0,0,11,266.7,400.9)" />
<use xlink:href="#f1_9" transform="matrix(11,0,0,11,275.1,400.9)" />
<use xlink:href="#f1_p" transform="matrix(11,0,0,11,287.6,400.9)" />
<use xlink:href="#f1_9" transform="matrix(11,0,0,11,296,400.9)" />
<use xlink:href="#f1_l" transform="matrix(11,0,0,11,308.7,400.9)" />
<use xlink:href="#f1_q" transform="matrix(11,0,0,11,316,400.9)" />
<use xlink:href="#f1_1j" transform="matrix(11,0,0,11,326.8,400.9)" />
<use xlink:href="#f1_y" transform="matrix(11,0,0,11,333.4,400.9)" />
<use xlink:href="#f1_b" transform="matrix(11,0,0,11,341.8,400.9)" />
<use xlink:href="#f1_p" transform="matrix(11,0,0,11,349.2,400.9)" />
<use xlink:href="#f0_g" transform="matrix(12,0,0,12,185.5,400.9)" />
<use xlink:href="#f0_1f" transform="matrix(11,0,0,11,137.5,1208.9)" />
</g>
</g>
<defs>
<path d="M112,-5c0,0,-39,0,-97,11V113c0,0,48,-10,77,-10c0,0,53,0,70,42c0,0,17,43,17,164V729H50V836H501c0,0,107,0,179,-25c0,0,72,-25,112,-77c0,0,40,-51,57,-118c0,0,16,-67,16,-164V0H726V454c0,0,0,55,-3,92c0,0,-4,37,-17,75c0,0,-14,38,-38,59c0,0,-24,22,-65,36c0,0,-42,13,-102,13H318V309c0,0,0,-160,-46,-237C272,72,226,-5,112,-5Z" 
id="f0_a"
transform="scale(0.001,-0.001)" />

<path d="M102,312V836H241V369L102,312Z" 
id="f0_3"
transform="scale(0.001,-0.001)" />

<path d="M287,0L589,729H66v386H205V836l547,-1l-2,-82L433,0Z" 
id="f0_7"
transform="scale(0.001,-0.001)" />

<path d="M138,-7c0,0,-34,0,-72,10V129c0,0,25,-8,52,-8c0,0,33,0,58,5c0,0,26,5,58,24c0,0,33,20,53,54c0,0,21,34,36,97c0,0,15,64,15,151c0,0,0,113,-19,173c0,0,-19,60,-56,82c0,0,-38,22,-107,22H89V836h72c0,0,165,0,240,-91c0,0,76,-91,76,-293c0,0,0,-107,26,-227c0,0,25,-119,83,-225H437c0,0,-43,101,-62,184c0,0,-24,-60,-51,-99c0,0,-26,-38,-56,-58C268,27,239,7,209,0c0,0,-30,-7,-71,-7Z" 
id="f0_u"
transform="scale(0.001,-0.001)" />

<path d="M66,0V107H332V555c0,0,0,92,-37,133c0,0,-37,41,-116,41H85V836h94c0,0,153,0,223,-66c0,0,69,-66,69,-231V0Z" 
id="f0_l"
transform="scale(0.001,-0.001)" />

<path d="M139,0V138c0,0,0,61,8,112c0,0,7,52,19,87c0,0,11,36,30,66c0,0,19,31,35,49c0,0,17,19,41,35c0,0,25,17,41,25c0,0,17,7,40,17L141,836H303L613,388c0,0,20,10,33,18c0,0,13,8,34,28c0,0,20,20,33,44c0,0,13,25,22,66c0,0,10,41,10,92V836H882V698c0,0,0,-61,-7,-112c0,0,-6,-52,-18,-88c0,0,-12,-36,-30,-66c0,0,-19,-30,-36,-49c0,0,-17,-18,-41,-34c0,0,-24,-17,-40,-25c0,0,-17,-8,-41,-17L882,0H720L409,448c0,0,-21,-11,-34,-19c0,0,-13,-8,-34,-27c0,0,-21,-20,-34,-44c0,0,-12,-25,-22,-66c0,0,-9,-41,-9,-92V0Z" 
id="f0_e"
transform="scale(0.001,-0.001)" />

<path d="M495,0V729H66V836H781V729H634V0Z" 
id="f0_h"
transform="scale(0.001,-0.001)" />

<path d="M114,0l60,312c0,0,2,12,8,39c0,0,6,27,7,37c0,0,2,11,5,30c0,0,2,19,4,33c0,0,1,15,1,31c0,0,0,48,-35,146c0,0,-35,98,-98,208H228c0,0,3,-8,27,-67c0,0,25,-58,41,-117c0,0,21,53,50,90c0,0,29,37,57,57c0,0,29,21,65,32c0,0,37,11,65,14c0,0,28,3,67,3c0,0,300,0,300,-396V0H480V106H761V452c0,0,0,146,-46,215c0,0,-45,70,-118,70c0,0,-134,0,-198,-119c0,0,-36,-68,-67,-222c0,0,-2,-10,-6,-27L253,0Z" 
id="f0_m"
transform="scale(0.001,-0.001)" />

<path d="M139,0V836H278V0Z" 
id="f0_9"
transform="scale(0.001,-0.001)" />

<path d="M139,-317V836H278V-317Z" 
id="f0_r"
transform="scale(0.001,-0.001)" />

<path d="M154,0V454l138,56V0ZM722,0V454c0,0,0,161,-49,218c0,0,-48,57,-186,57H139V836H485c0,0,207,0,291,-93c0,0,83,-94,83,-318V0Z" 
id="f0_6"
transform="scale(0.001,-0.001)" />

<path d="M163,0V190H321V0Z" 
id="f0_g"
transform="scale(0.001,-0.001)" />

<path d="M71,-141V-15L289,62L66,836H210L416,109c0,0,99,42,153,98c0,0,53,56,80,155c0,0,26,98,26,262V836H817V624c0,0,0,-88,-7,-154c0,0,-7,-67,-25,-132c0,0,-18,-66,-51,-116c0,0,-33,-51,-84,-98c0,0,-50,-48,-123,-87c0,0,-72,-39,-169,-74L71,-141Z" 
id="f0_k"
transform="scale(0.001,-0.001)" />

<path d="M522,-20c0,0,-196,0,-290,99c0,0,-94,100,-94,324V836H276V397c0,0,0,-86,16,-147c0,0,17,-60,50,-94c0,0,34,-34,77,-49c0,0,43,-15,103,-15c0,0,59,0,102,15c0,0,44,15,77,49c0,0,33,34,50,94c0,0,17,61,17,147c0,0,0,84,-8,143c0,0,-7,58,-25,105c0,0,-17,47,-51,69c0,0,-33,23,-83,23c0,0,-50,0,-119,-22V821c0,0,85,23,150,23c0,0,76,0,130,-30c0,0,53,-31,85,-90c0,0,31,-59,45,-138c0,0,13,-78,13,-183c0,0,0,-224,-93,-324c0,0,-94,-99,-290,-99Z" 
id="f0_p"
transform="scale(0.001,-0.001)" />

<path d="M156,-317V454l139,56V-317ZM505,0L806,729H139V835H967V753L650,0Z" 
id="f0_c"
transform="scale(0.001,-0.001)" />

<path d="M66,0V107H554V452c0,0,0,56,-4,93c0,0,-4,37,-18,75c0,0,-14,38,-40,60c0,0,-26,22,-71,36c0,0,-45,13,-110,13H66V836H312c0,0,91,0,157,-17c0,0,66,-17,109,-49c0,0,44,-32,69,-84c0,0,26,-52,36,-114c0,0,10,-62,10,-147V107H817V0Z" 
id="f0_2"
transform="scale(0.001,-0.001)" />

<path d="M585,0V426c0,0,0,54,-8,98c0,0,-8,44,-27,83c0,0,-19,40,-49,66c0,0,-30,26,-77,41c0,0,-47,15,-108,15H66V836H315c0,0,94,0,166,-20c0,0,71,-20,116,-54c0,0,46,-35,75,-88c0,0,28,-52,40,-112c0,0,12,-60,12,-137V0Z" 
id="f0_5"
transform="scale(0.001,-0.001)" />

<path d="M66,0V106H322c0,0,75,0,127,23c0,0,53,23,82,67c0,0,29,43,42,98c0,0,13,54,13,124c0,0,0,70,-13,124c0,0,-13,55,-42,98c0,0,-29,44,-82,67c0,0,-52,23,-127,23H66V836H322c0,0,87,0,157,-24c0,0,70,-24,115,-64c0,0,45,-40,74,-94c0,0,30,-55,43,-113c0,0,13,-59,13,-123c0,0,0,-64,-13,-123c0,0,-13,-58,-43,-113c0,0,-29,-54,-74,-94C594,88,549,48,479,24C479,24,409,0,322,0Z" 
id="f0_4"
transform="scale(0.001,-0.001)" />

<path d="M736,107V473c0,0,0,147,-48,202c0,0,-49,54,-187,54H278V107ZM139,0V836H499c0,0,105,0,177,-22c0,0,72,-21,116,-69c0,0,44,-49,64,-119c0,0,19,-71,19,-174V0Z" 
id="f0_j"
transform="scale(0.001,-0.001)" />

<path d="M139,0V836H485c0,0,206,0,290,-90c0,0,84,-89,84,-294V0H721V473c0,0,0,147,-49,202c0,0,-48,54,-186,54H277V0Z" 
id="f0_f"
transform="scale(0.001,-0.001)" />

<path d="M180,0L66,836H203L258,443c0,0,36,1,64,6c0,0,28,6,49,18c0,0,20,12,35,26c0,0,15,13,26,36c0,0,11,24,17,44c0,0,7,20,12,55c0,0,6,34,9,60c0,0,3,26,8,71c0,0,4,45,9,77H610c0,0,-13,-194,-31,-271c0,0,-31,-127,-111,-179c0,0,-71,-45,-196,-50L304,107c0,0,73,0,130,5c0,0,56,6,111,21c0,0,54,15,94,40c0,0,40,25,77,64c0,0,37,39,63,94c0,0,25,54,46,128c0,0,21,73,34,166c0,0,13,94,20,211h138c0,0,-14,-124,-29,-218c0,0,-16,-94,-39,-179c0,0,-22,-85,-50,-146c0,0,-28,-61,-68,-112c0,0,-39,-51,-87,-84C744,97,696,65,632,42C632,42,568,19,492,10C492,10,417,0,320,0Z" 
id="f0_n"
transform="scale(0.001,-0.001)" />

<path d="M66,0V106H564L66,836H228L516,413c0,0,3,2,9,6c0,0,17,13,27,21c0,0,10,8,26,27c0,0,17,20,26,40c0,0,9,21,16,54c0,0,7,34,7,75V836H764V698c0,0,0,-55,-7,-102c0,0,-7,-47,-16,-79c0,0,-10,-33,-27,-62c0,0,-18,-29,-32,-46c0,0,-14,-17,-37,-35c0,0,-22,-17,-36,-25c0,0,-13,-8,-36,-20L767,53V0Z" 
id="f0_q"
transform="scale(0.001,-0.001)" />

<path d="M360,-14L72,649L0,668v33H327V668L216,648L420,164L615,649L504,668v33H764V668L697,652L416,-14Z" 
id="f1_6"
transform="scale(0.001,-0.001)" />

<path d="M495,413c0,0,0,133,-34,190c0,0,-34,57,-105,57c0,0,-78,0,-119,-63c0,0,-42,-62,-42,-184ZM374,-14c0,0,-163,0,-239,87c0,0,-75,88,-75,283c0,0,0,183,77,273c0,0,76,91,219,91c0,0,269,0,269,-306V353H194V340c0,0,0,-103,23,-160c0,0,22,-57,70,-87c0,0,47,-29,124,-29c0,0,40,0,96,6c0,0,55,7,91,15V43C598,43,562,20,500,3c0,0,-61,-17,-126,-17Z" 
id="f1_l"
transform="scale(0.001,-0.001)" />

<path d="M359,-270c0,0,124,0,192,46c0,0,67,47,67,129c0,0,0,43,-26,67c0,0,-26,24,-79,24H242c0,0,-32,-27,-51,-69c0,0,-20,-41,-20,-77c0,0,0,-64,46,-92c0,0,46,-28,142,-28Zm11,561c0,0,81,0,115,47c0,0,34,47,34,141c0,0,0,100,-35,142c0,0,-35,42,-113,42c0,0,-78,0,-114,-43c0,0,-37,-42,-37,-141c0,0,0,-98,36,-143c0,0,36,-45,114,-45ZM359,-329c0,0,-143,0,-218,44c0,0,-75,43,-75,125c0,0,0,39,27,78c0,0,26,38,98,89c0,0,-43,14,-72,48c0,0,-29,35,-29,74L208,262c0,0,-118,55,-118,217c0,0,0,115,73,178c0,0,73,63,211,63c0,0,28,0,71,-6c0,0,44,-6,67,-13l165,83l26,-32L599,644c0,0,50,-56,50,-165c0,0,0,-120,-72,-182c0,0,-73,-62,-208,-62c0,0,-62,0,-114,11L208,148c0,0,2,-13,29,-24c0,0,27,-12,67,-12H512c0,0,113,0,168,-49c0,0,55,-49,55,-134c0,0,0,-79,-44,-137c0,0,-43,-58,-128,-90c0,0,-84,-31,-204,-31Z" 
id="f1_1k"
transform="scale(0.001,-0.001)" />

<path d="M249,-14c0,0,-71,0,-107,42c0,0,-35,42,-35,119V639H15v33l93,29l76,159h47V701H391V639H231V161c0,0,0,-48,22,-73c0,0,22,-24,57,-24c0,0,44,0,106,12V26C416,26,389,8,340,-2c0,0,-49,-12,-91,-12Z" 
id="f1_d"
transform="scale(0.001,-0.001)" />

<path d="M284,67c0,0,51,0,88,12c0,0,37,12,74,30V358l-98,-3c0,0,-100,-4,-135,-39c0,0,-35,-35,-35,-117c0,0,0,-132,106,-132ZM233,-14c0,0,-179,0,-179,208c0,0,0,70,27,116c0,0,27,46,87,70c0,0,60,24,173,27l105,3V519c0,0,0,72,-26,107c0,0,-27,34,-82,34c0,0,-75,0,-137,-35L176,538H134V691c0,0,121,26,213,26c0,0,115,0,169,-47c0,0,54,-47,54,-144V52L657,33V0H465L451,70c0,0,-85,-84,-218,-84Z" 
id="f1_b"
transform="scale(0.001,-0.001)" />

<path d="M31,0V33l88,19V649L31,668v33H235l7,-87c0,0,44,37,121,71c0,0,76,35,121,35h11V530H463l-43,82c0,0,-37,0,-88,-10c0,0,-52,-10,-89,-26V52L363,33V0Z" 
id="f1_r"
transform="scale(0.001,-0.001)" />

<path d="M32,0V33L151,52V649L52,668v33H275V52L395,33V0ZM201,850c0,0,-32,0,-56,24c0,0,-24,24,-24,56c0,0,0,34,24,58c0,0,24,24,56,24c0,0,34,0,58,-24c0,0,24,-24,24,-58c0,0,0,-32,-24,-56c0,0,-24,-24,-58,-24Z" 
id="f1_7"
transform="scale(0.001,-0.001)" />

<path d="M439,0V33l93,19V500c0,0,0,62,-30,97c0,0,-31,36,-94,36c0,0,-67,0,-165,-22V52L338,33V0H35V33l84,19V649L35,668v33H235l7,-57c0,0,57,33,122,54c0,0,65,22,108,22c0,0,91,0,137,-53c0,0,47,-53,47,-154V52L741,33V0Z" 
id="f1_p"
transform="scale(0.001,-0.001)" />

<path d="M377,45c0,0,99,0,147,73c0,0,47,73,47,237c0,0,0,161,-47,233c0,0,-47,72,-147,72c0,0,-97,0,-141,-69c0,0,-44,-69,-44,-236c0,0,0,-169,45,-240c0,0,44,-70,140,-70Zm0,-59c0,0,-158,0,-238,94c0,0,-81,95,-81,274c0,0,0,178,81,272c0,0,80,94,244,94c0,0,160,0,241,-92c0,0,82,-92,82,-274c0,0,0,-368,-329,-368Z" 
id="f1_9"
transform="scale(0.001,-0.001)" />

<path d="M0,-141L388,1114H514L127,-141Z" 
id="f0_12"
transform="scale(0.001,-0.001)" />

<path d="M522,92c0,0,247,0,247,333c0,0,0,88,-17,146c0,0,-17,58,-53,91c0,0,-35,33,-82,46c0,0,-48,14,-116,14H276V419c0,0,0,-327,246,-327Zm0,-112c0,0,-193,0,-289,109c0,0,-95,110,-95,337V836H501c0,0,213,0,309,-93c0,0,96,-94,96,-317c0,0,0,-227,-95,-337C811,89,715,-20,522,-20Z" 
id="f0_i"
transform="scale(0.001,-0.001)" />

<path d="M139,0V106H400c0,0,176,0,253,71c0,0,78,72,78,250c0,0,0,163,-80,233c0,0,-81,69,-250,69H278L277,564c0,0,-1,-54,26,-80c0,0,27,-25,82,-25c0,0,30,0,80,9V355c0,0,-61,-12,-111,-12c0,0,-100,0,-157,55c0,0,-58,55,-58,186V836H456c0,0,193,0,303,-109c0,0,110,-109,110,-309c0,0,0,-200,-110,-309C759,109,648,0,456,0Z" 
id="f0_d"
transform="scale(0.001,-0.001)" />

<path d="M64,0V34L168,59V639H47v36l121,29v49c0,0,0,155,61,239c0,0,62,84,173,84c0,0,58,0,107,-15V908H472l-33,92c0,0,-26,16,-62,16c0,0,-47,0,-66,-42c0,0,-19,-42,-19,-157V701H478V639H292V59L443,34V0Z" 
id="f1_13"
transform="scale(0.001,-0.001)" />

<path d="M431,0V33L535,52V499c0,0,0,62,-32,96c0,0,-32,33,-95,33c0,0,-66,0,-163,-22V52L350,33V0H32V33l89,19V649L32,668v33H237l6,-57c0,0,56,32,119,54c0,0,62,22,110,22c0,0,52,0,95,-20c0,0,44,-19,66,-62c0,0,57,32,134,57c0,0,77,25,128,25c0,0,179,0,179,-207V52l90,-19V0H846V33L950,52V499c0,0,0,129,-119,129c0,0,-19,0,-45,-3c0,0,-26,-3,-52,-7c0,0,-25,-4,-49,-8c0,0,-23,-5,-39,-8c0,0,13,-41,13,-89V52L764,33V0Z" 
id="f1_a"
transform="scale(0.001,-0.001)" />

<path d="M278,-14c0,0,-52,0,-115,11c0,0,-63,10,-99,23V193H98L134,95c0,0,56,-50,146,-50c0,0,144,0,144,123c0,0,0,91,-114,130l-66,21c0,0,-75,25,-110,50c0,0,-34,26,-53,63c0,0,-18,36,-18,89c0,0,0,92,63,145c0,0,63,54,170,54c0,0,77,0,193,-23V544H454l-32,81c0,0,-39,35,-124,35c0,0,-61,0,-92,-30c0,0,-32,-30,-32,-80c0,0,0,-43,29,-72c0,0,28,-29,86,-48c0,0,110,-38,144,-55c0,0,33,-17,57,-42c0,0,23,-25,36,-57c0,0,13,-32,13,-79c0,0,0,-104,-66,-158c0,0,-66,-53,-195,-53Z" 
id="f1_q"
transform="scale(0.001,-0.001)" />

<path d="M399,-14c0,0,-341,0,-341,370c0,0,0,175,87,269c0,0,87,95,249,95c0,0,101,0,220,-23V501H573L541,625c0,0,-62,35,-149,35c0,0,-200,0,-200,-304c0,0,0,-158,61,-225c0,0,61,-67,189,-67c0,0,109,0,189,24V43C631,43,595,16,530,1c0,0,-64,-15,-131,-15Z" 
id="f1_8"
transform="scale(0.001,-0.001)" />

<path d="M289,-14c0,0,-179,0,-179,205V649L20,668v33H233V200c0,0,0,-128,120,-128c0,0,92,0,173,23V649L420,668v33H649V52L738,33V0H533l-6,57C527,57,474,28,405,7c0,0,-69,-21,-116,-21Z" 
id="f1_y"
transform="scale(0.001,-0.001)" />

<path d="M31,0V33L150,52v956L31,1026v34H274V52L394,33V0Z" 
id="f1_j"
transform="scale(0.001,-0.001)" />

<path d="M152,0V473c0,0,0,94,28,161c0,0,29,66,71,95H66V836H463V729H404c0,0,-65,0,-89,-57c0,0,-25,-58,-25,-199V0Z" 
id="f0_b"
transform="scale(0.001,-0.001)" />

<path d="M730,212c0,0,17,78,17,199c0,0,0,85,-13,133c0,0,-12,48,-36,69c0,0,-24,21,-87,21H312c0,0,-55,-53,-72,-91c0,0,-17,-38,-17,-96c0,0,0,-124,8,-235ZM134,0l-1,360c0,0,0,121,7,151c0,0,7,30,31,61c0,0,24,32,57,62H201c0,0,-37,0,-59,39c0,0,-23,40,-23,101c0,0,0,51,18,87c0,0,18,35,35,35c0,0,12,0,16,-2c0,0,4,-2,4,-8V869c0,0,0,-24,31,-24H645c0,0,73,0,104,-18c0,0,30,-18,49,-58c0,0,19,-39,27,-107c0,0,9,-67,9,-162c0,0,0,-166,-12,-500Z" 
id="f2_s"
transform="scale(0.001,-0.001)" />

<path d="M131,353c0,0,-3,0,-6,2c0,0,-3,2,-16,20c0,0,-13,17,-13,28c0,0,0,5,8,9c0,0,45,26,84,67c0,0,38,41,38,85c0,0,0,28,-7,43c0,0,-7,15,-24,21c0,0,-17,6,-61,6H124c0,0,-38,0,-62,34c0,0,-24,35,-24,107c0,0,0,52,16,87c0,0,17,34,38,34c0,0,16,0,16,-12V870c0,0,0,-25,26,-25h63c0,0,29,0,53,-4c0,0,23,-4,39,-23c0,0,17,-19,26,-59c0,0,9,-40,9,-113c0,0,0,-76,-15,-124c0,0,-15,-47,-51,-83c0,0,-35,-36,-74,-61c0,0,-39,-25,-53,-25Z" 
id="f2_n"
transform="scale(0.001,-0.001)" />

<path d="M554,-8c0,0,-9,0,-11,6c0,0,-2,5,-2,24V548c0,0,0,38,-5,56c0,0,-4,18,-15,25c0,0,-12,7,-41,7H90c0,0,-33,0,-52,33c0,0,-19,33,-19,90c0,0,0,54,15,97c0,0,14,43,30,43c0,0,17,0,17,-13V872c0,0,0,-9,7,-18c0,0,7,-9,27,-9H512c0,0,54,0,77,-8c0,0,23,-9,33,-28c0,0,9,-20,9,-67V81c0,0,0,-31,-27,-53L583,9C583,9,563,-8,554,-8Z" 
id="f2_i"
transform="scale(0.001,-0.001)" />

<path d="M204,-8c0,0,-9,0,-11,5c0,0,-2,5,-2,22V549c0,0,0,40,-4,56c0,0,-4,16,-15,22c0,0,-10,7,-39,7H90c0,0,-33,0,-52,33c0,0,-19,33,-19,90c0,0,0,53,15,98c0,0,16,44,35,44c0,0,12,0,12,-13V872c0,0,0,-27,31,-27h42c0,0,79,0,103,-20c0,0,23,-19,23,-83V67c0,0,0,-16,-8,-26c0,0,-9,-10,-33,-30c0,0,-25,-19,-35,-19Z" 
id="f2_3"
transform="scale(0.001,-0.001)" />

<path d="M787,-20c0,0,-16,0,-25,16c0,0,-7,18,-31,51c0,0,-23,32,-53,62L293,522c0,0,-42,-34,-60,-62c0,0,-17,-28,-17,-68c0,0,0,-38,20,-77c0,0,21,-38,68,-90c0,0,48,-52,68,-88c0,0,20,-36,20,-68c0,0,0,-38,-22,-69H70V63h80c0,0,31,0,31,35c0,0,0,18,-14,41c0,0,-14,24,-31,53c0,0,-17,30,-30,68c0,0,-14,38,-14,87c0,0,0,59,33,109c0,0,34,50,103,98l21,16l-96,96c0,0,-24,24,-36,42c0,0,-12,19,-12,41c0,0,0,26,21,61c0,0,22,36,53,65c0,0,31,29,46,29c0,0,13,0,24,-15c0,0,21,-34,56,-78c0,0,34,-44,65,-77L570,517c0,0,72,100,180,158c0,0,-38,0,-60,33c0,0,-21,33,-21,95c0,0,0,38,18,66c0,0,19,29,40,29c0,0,5,0,6,-4c0,0,0,-4,0,-17c0,0,0,-34,46,-34l69,2c0,0,40,0,63,-26c0,0,22,-25,22,-67c0,0,0,-27,-5,-60c0,0,-6,-34,-14,-45c0,0,-15,15,-24,20c0,0,-9,5,-19,5c0,0,-35,0,-118,-65c0,0,-82,-64,-122,-158L833,259c0,0,49,-47,63,-71c0,0,13,-24,13,-50c0,0,0,-21,-24,-62C885,76,860,35,832,7c0,0,-29,-27,-45,-27Z" 
id="f2_1b"
transform="scale(0.001,-0.001)" />

<path d="M721,-14c0,0,-12,0,-12,9l4,28c0,0,17,82,17,338c0,0,0,105,-11,163c0,0,-11,58,-35,84c0,0,-25,26,-83,26H315c0,0,-43,-39,-67,-90c0,0,-25,-51,-25,-104c0,0,0,-59,17,-104c0,0,17,-45,35,-78c0,0,18,-34,18,-44c0,0,0,-26,-20,-95C273,119,252,50,231,0H26L87,214h69c0,0,23,0,23,14l-7,15c0,0,-15,27,-27,68c0,0,-11,41,-11,83c0,0,0,68,25,124c0,0,25,57,86,116H200c0,0,-45,0,-71,32c0,0,-27,33,-27,94c0,0,0,49,17,93c0,0,16,43,32,43c0,0,17,0,17,-10V869c0,0,0,-24,27,-24H637c0,0,73,0,103,-18c0,0,30,-17,46,-62c0,0,17,-46,24,-124c0,0,8,-78,8,-214V338c0,0,0,-279,-27,-311c0,0,-14,-16,-37,-28c0,0,-23,-13,-33,-13Z" 
id="f2_j"
transform="scale(0.001,-0.001)" />

<path d="M107,-18c0,0,-17,0,-17,18l3,9c0,0,23,48,23,124l-1,177c0,0,0,55,8,77c0,0,9,22,33,46c0,0,23,23,51,40c0,0,28,17,42,17c0,0,5,0,9,-3c0,0,5,-3,5,-8c0,0,0,-3,-11,-26c0,0,-14,-49,-14,-120l4,-223c0,0,0,-38,-9,-54c0,0,-8,-17,-32,-34C201,22,178,6,150,-5c0,0,-28,-13,-43,-13Zm547,0c0,0,-17,0,-17,18l2,10c0,0,10,38,10,109c0,0,0,79,-14,208c0,0,-15,128,-15,149c0,0,0,54,16,89c0,0,15,36,53,69H154c0,0,-35,0,-57,40c0,0,-21,40,-21,103c0,0,0,33,8,61c0,0,7,28,19,44c0,0,13,17,24,17c0,0,15,0,15,-13V869c0,0,0,-13,5,-19c0,0,5,-5,22,-5H718c0,0,50,0,50,-63V652c0,0,0,-21,-15,-30c0,0,-35,-24,-35,-77c0,0,0,-57,20,-169c0,0,27,-157,27,-272c0,0,0,-29,-6,-44c0,0,-6,-15,-17,-26c0,0,-12,-16,-47,-35L681,-9l-13,-6l-14,-3Z" 
id="f2_6"
transform="scale(0.001,-0.001)" />

<path d="M469,-18c0,0,-14,0,-14,15l2,7c0,0,20,43,20,158l-3,156l-2,119c0,0,0,65,19,109c0,0,19,44,60,88H110c0,0,-47,0,-69,34c0,0,-22,35,-22,109c0,0,0,50,16,85c0,0,16,36,35,36c0,0,14,0,14,-12L83,869c0,0,0,-13,7,-19c0,0,6,-5,23,-5H608c0,0,25,0,40,-14c0,0,15,-15,15,-38V686c0,0,0,-26,-4,-35c0,0,-3,-9,-11,-11c0,0,-42,-9,-56,-40c0,0,-15,-30,-15,-93c0,0,0,-56,12,-184c0,0,10,-129,10,-224c0,0,0,-24,-6,-37c0,0,-7,-13,-17,-25c0,0,-7,-6,-18,-12c0,0,-11,-7,-23,-13C535,12,523,5,512,0c0,0,-10,-5,-15,-8c0,0,-22,-10,-28,-10Z" 
id="f2_q"
transform="scale(0.001,-0.001)" />

<path d="M436,206c0,0,131,0,201,62c0,0,70,63,70,175c0,0,0,47,-9,82c0,0,-9,34,-28,61c0,0,-19,27,-44,37c0,0,-26,11,-82,11H296c0,0,-51,-42,-79,-96c0,0,-29,-53,-29,-112c0,0,0,-110,63,-165c0,0,64,-55,185,-55ZM434,-13c0,0,-169,0,-256,94c0,0,-88,94,-88,274c0,0,0,92,29,159c0,0,28,66,76,120H150c0,0,-37,0,-57,32c0,0,-20,33,-20,108c0,0,0,33,8,60c0,0,8,27,21,45c0,0,14,17,25,17c0,0,20,0,20,-10V869c0,0,0,-24,31,-24H588c0,0,56,0,87,-20c0,0,31,-20,61,-81c0,0,30,-60,46,-129c0,0,15,-69,15,-151c0,0,0,-147,-43,-258C754,206,710,94,628,40c0,0,-81,-53,-194,-53Z" 
id="f2_r"
transform="scale(0.001,-0.001)" />

<path d="M147,700v414H274V700Zm282,0v414H556V700Z" 
id="f0_y"
transform="scale(0.001,-0.001)" />

<path d="M117,-176L179,62V190H336V62L213,-176Z" 
id="f0_o"
transform="scale(0.001,-0.001)" />

<path d="M35,0V34l84,18V649L35,668v33H235l7,-56c0,0,57,32,122,54c0,0,65,21,108,21c0,0,91,0,137,-53c0,0,47,-53,47,-154V52L741,34V0H439V34l93,18V500c0,0,0,62,-30,97c0,0,-31,36,-94,36c0,0,-67,0,-165,-22V52L338,34V0ZM481,834c0,0,-36,0,-66,16c0,0,-30,16,-57,36c0,0,-27,20,-52,36c0,0,-25,16,-49,16c0,0,-24,0,-39,-9c0,0,-14,-9,-23,-26c0,0,-8,-17,-13,-54H143c0,0,11,180,146,180c0,0,36,0,66,-16c0,0,30,-16,57,-35c0,0,27,-20,52,-36c0,0,25,-16,49,-16c0,0,32,0,50,18c0,0,18,19,25,70h39c0,0,-12,-180,-146,-180Z" 
id="f1_16"
transform="scale(0.001,-0.001)" />

<path d="M383,64c0,0,85,0,152,28V645c0,0,-67,13,-152,13c0,0,-194,0,-194,-314c0,0,0,-141,48,-211c0,0,48,-69,146,-69ZM342,-14c0,0,-287,0,-287,358c0,0,0,184,82,280c0,0,81,96,239,96c0,0,81,0,163,-18c0,0,-4,25,-4,124v182l-118,18v34H659V52L745,33V0H548l-9,52c0,0,-84,-66,-197,-66Z" 
id="f1_n"
transform="scale(0.001,-0.001)" />

<path d="M543,-317V369c0,0,0,85,-8,143c0,0,-8,58,-27,101c0,0,-18,44,-51,69c0,0,-33,24,-80,36c0,0,-48,11,-117,11H66V836H257c0,0,125,0,205,-23c0,0,80,-23,130,-79c0,0,50,-56,70,-143c0,0,20,-86,20,-222V-317Z" 
id="f0_s"
transform="scale(0.001,-0.001)" />

<path d="M122,-200c0,0,99,170,148,338c0,0,49,169,49,342c0,0,0,172,-49,340c0,0,-49,168,-148,340H241c0,0,112,-176,168,-345c0,0,55,-169,55,-335c0,0,0,-167,-55,-337c0,0,-56,-168,-168,-343Z" 
id="f0_w"
transform="scale(0.001,-0.001)" />

<path d="M477,0V33l64,19L348,354L257,254V52L331,33V0H44V33l89,19v956L29,1026v34H257V338L544,647l-73,20v34H718V667L631,650L431,446L688,50L764,33V0Z" 
id="f1_1q"
transform="scale(0.001,-0.001)" />

<path d="M354,-200c0,0,-112,175,-167,343c0,0,-56,170,-56,337c0,0,0,166,55,335c0,0,55,169,168,345H473c0,0,-100,-172,-148,-340c0,0,-48,-168,-48,-340c0,0,0,-173,48,-342c0,0,49,-168,148,-338Z" 
id="f0_x"
transform="scale(0.001,-0.001)" />

<path d="M179,0V190H336V0Zm0,600V790H336V600Z" 
id="f0_v"
transform="scale(0.001,-0.001)" />

<path d="M74,357V479H476V357Z" 
id="f0_16"
transform="scale(0.001,-0.001)" />

<path d="M44,0V40L172,60V941L44,960v40H794V760H745L721,922c0,0,-83,11,-241,11H316V543H586l23,119h48V354H609L586,475H316V67H513c0,0,193,0,252,12l43,185h49L843,0Z" 
id="f1_4"
transform="scale(0.001,-0.001)" />

<path d="M186,-14c0,0,-95,0,-154,22V190H81L104,86c0,0,14,-17,40,-26c0,0,26,-10,57,-10c0,0,105,0,105,141V941L178,960v40H562V960L449,941V322c0,0,0,-100,-30,-175c0,0,-31,-74,-93,-118c0,0,-63,-43,-140,-43Z" 
id="f1_1j"
transform="scale(0.001,-0.001)" />

<path d="M467,496c0,0,102,0,161,69c0,0,59,70,59,190c0,0,0,120,-59,190c0,0,-59,70,-161,70c0,0,-101,0,-160,-70c0,0,-60,-70,-60,-190c0,0,0,-120,60,-190c0,0,59,-69,160,-69ZM403,-20c0,0,-57,0,-115,11c0,0,-58,10,-121,32V160c0,0,57,-26,115,-40c0,0,58,-14,115,-14c0,0,149,0,228,100c0,0,79,100,90,305c0,0,-44,-65,-110,-99c0,0,-66,-35,-147,-35c0,0,-167,0,-265,102c0,0,-97,101,-97,276c0,0,0,172,101,275c0,0,102,104,270,104c0,0,194,0,295,-148c0,0,102,-148,102,-430c0,0,0,-263,-125,-420C739,136,614,-20,403,-20Z" 
id="f0_1f"
transform="scale(0.001,-0.001)" />


</defs>
</svg>