<?xml version="1.0" encoding="UTF-8" standalone="no"?>
<!DOCTYPE svg PUBLIC "-//W3C//DTD SVG 1.1//EN"
"http://www.w3.org/Graphics/SVG/1.1/DTD/svg11.dtd">
<svg viewBox="0 0 909 1286" version="1.1" xmlns="http://www.w3.org/2000/svg" xmlns:xlink="http://www.w3.org/1999/xlink">
<defs>
<clipPath id="c0_3"><path d="M0,1286.2V0H909.4V1286.2Z" /></clipPath>
<style type="text/css"><![CDATA[
.g0_3{
fill: none;
stroke: #000000;
stroke-width: 0.7638889;
stroke-linecap: butt;
stroke-linejoin: round;
}
]]></style>
</defs>
<path d="M128.6,110.4H780.8M128.6,153.9H780.8M128.6,176.1H780.8M128.6,198.2H780.8M128.9,110v88.6M291.8,110v88.6M454.7,110v88.6M617.5,110v88.6M780.4,110v88.6" class="g0_3" />
<g clip-path="url(#c0_3)">
<g fill="#000000" >
<use xlink:href="#f0_p" transform="matrix(12,0,0,12,725.1,127.9)" />
<use xlink:href="#f0_c" transform="matrix(12,0,0,12,737.6,127.9)" />
<use xlink:href="#f0_4" transform="matrix(12,0,0,12,748.8,127.9)" />
<use xlink:href="#f0_p" transform="matrix(12,0,0,12,759.8,127.9)" />
<use xlink:href="#f1_v" transform="matrix(12,0,0,12,639.1,127.9)" />
<use xlink:href="#f1_q" transform="matrix(12,0,0,12,646.2,127.9)" />
<use xlink:href="#f1_4" transform="matrix(12,0,0,12,656.6,127.9)" />
<use xlink:href="#f1_p" transform="matrix(12,0,0,12,666.2,127.9)" />
<use xlink:href="#f1_w" transform="matrix(12,0,0,12,672.5,127.9)" />
<use xlink:href="#f1_12" transform="matrix(12,0,0,12,685.6,127.9)" />
<use xlink:href="#f1_o" transform="matrix(12,0,0,12,697.4,127.9)" />
<use xlink:href="#f1_4" transform="matrix(12,0,0,12,709.3,127.9)" />
<use xlink:href="#f2_q" transform="matrix(11,0,0,11,463.5,126.5)" />
<use xlink:href="#f2_r" transform="matrix(11,0,0,11,477.6,126.5)" />
<use xlink:href="#f2_o" transform="matrix(11,0,0,11,486.7,126.5)" />
<use xlink:href="#f2_s" transform="matrix(11,0,0,11,494.2,126.5)" />
<use xlink:href="#f2_t" transform="matrix(11,0,0,11,503.5,126.5)" />
<use xlink:href="#f3_p" transform="matrix(11,0,0,11,516.2,126.5)" />
<use xlink:href="#f3_3" transform="matrix(11,0,0,11,524.6,126.5)" />
<use xlink:href="#f3_5" transform="matrix(11,0,0,11,529.4,126.5)" />
<use xlink:href="#f3_2" transform="matrix(11,0,0,11,537.8,126.5)" />
<use xlink:href="#f3_8" transform="matrix(11,0,0,11,545.1,126.5)" />
<use xlink:href="#f3_9" transform="matrix(11,0,0,11,550.7,126.5)" />
<use xlink:href="#f0_p" transform="matrix(12,0,0,12,399.4,127.9)" />
<use xlink:href="#f0_c" transform="matrix(12,0,0,12,411.9,127.9)" />
<use xlink:href="#f0_4" transform="matrix(12,0,0,12,423,127.9)" />
<use xlink:href="#f0_p" transform="matrix(12,0,0,12,434,127.9)" />
<use xlink:href="#f1_12" transform="matrix(12,0,0,12,300.4,127.9)" />
<use xlink:href="#f1_o" transform="matrix(12,0,0,12,312.1,127.9)" />
<use xlink:href="#f1_4" transform="matrix(12,0,0,12,324,127.9)" />
<use xlink:href="#f1_v" transform="matrix(12,0,0,12,389.4,149.3)" />
<use xlink:href="#f1_g" transform="matrix(12,0,0,12,396.6,149.3)" />
<use xlink:href="#f1_f" transform="matrix(12,0,0,12,408.5,149.3)" />
<use xlink:href="#f1_j" transform="matrix(12,0,0,12,419.1,149.3)" />
<use xlink:href="#f1_9" transform="matrix(12,0,0,12,432,149.3)" />
<use xlink:href="#f1_w" transform="matrix(12,0,0,12,439.4,149.3)" />
<use xlink:href="#f2_q" transform="matrix(11,0,0,11,137.7,126.5)" />
<use xlink:href="#f2_r" transform="matrix(11,0,0,11,151.7,126.5)" />
<use xlink:href="#f2_o" transform="matrix(11,0,0,11,161,126.5)" />
<use xlink:href="#f2_s" transform="matrix(11,0,0,11,168.5,126.5)" />
<use xlink:href="#f2_l" transform="matrix(11,0,0,11,177.8,126.5)" />
<use xlink:href="#f3_4" transform="matrix(11,0,0,11,190.5,126.5)" />
<use xlink:href="#f3_m" transform="matrix(11,0,0,11,198.8,126.5)" />
<use xlink:href="#f3_7" transform="matrix(11,0,0,11,203.5,126.5)" />
<use xlink:href="#f3_e" transform="matrix(11,0,0,11,210.9,126.5)" />
<use xlink:href="#f3_7" transform="matrix(11,0,0,11,215.7,126.5)" />
<use xlink:href="#f0_p" transform="matrix(12,0,0,12,725.1,171.4)" />
<use xlink:href="#f0_c" transform="matrix(12,0,0,12,737.6,171.4)" />
<use xlink:href="#f0_4" transform="matrix(12,0,0,12,748.8,171.4)" />
<use xlink:href="#f0_p" transform="matrix(12,0,0,12,759.8,171.4)" />
<use xlink:href="#f1_3" transform="matrix(12,0,0,12,653.4,171.4)" />
<use xlink:href="#f1_i" transform="matrix(12,0,0,12,658.3,171.4)" />
<use xlink:href="#f1_a" transform="matrix(12,0,0,12,662.4,171.4)" />
<use xlink:href="#f1_i" transform="matrix(12,0,0,12,678.3,171.4)" />
<use xlink:href="#f1_4" transform="matrix(12,0,0,12,682.4,171.4)" />
<use xlink:href="#f1_q" transform="matrix(12,0,0,12,692,171.4)" />
<use xlink:href="#f1_6" transform="matrix(12,0,0,12,702.4,171.4)" />
<use xlink:href="#f1_e" transform="matrix(12,0,0,12,707.4,171.4)" />
<use xlink:href="#f2_q" transform="matrix(11,0,0,11,463.5,170)" />
<use xlink:href="#f2_r" transform="matrix(11,0,0,11,477.6,170)" />
<use xlink:href="#f2_o" transform="matrix(11,0,0,11,486.7,170)" />
<use xlink:href="#f2_s" transform="matrix(11,0,0,11,494.2,170)" />
<use xlink:href="#f2_t" transform="matrix(11,0,0,11,503.5,170)" />
<use xlink:href="#f2_x" transform="matrix(11,0,0,11,511.9,170)" />
<use xlink:href="#f3_7" transform="matrix(11,0,0,11,522.8,170)" />
<use xlink:href="#f3_w" transform="matrix(11,0,0,11,530.3,170)" />
<use xlink:href="#f3_9" transform="matrix(11,0,0,11,538.7,170)" />
<use xlink:href="#f3_z" transform="matrix(11,0,0,11,547.1,170)" />
<use xlink:href="#f3_7" transform="matrix(11,0,0,11,555.3,170)" />
<use xlink:href="#f3_p" transform="matrix(11,0,0,11,562.8,170)" />
<use xlink:href="#f3_9" transform="matrix(11,0,0,11,571.2,170)" />
<use xlink:href="#f3_6" transform="matrix(11,0,0,11,579.6,170)" />
<use xlink:href="#f0_p" transform="matrix(12,0,0,12,399.4,171.4)" />
<use xlink:href="#f0_c" transform="matrix(12,0,0,12,411.9,171.4)" />
<use xlink:href="#f0_4" transform="matrix(12,0,0,12,423,171.4)" />
<use xlink:href="#f0_p" transform="matrix(12,0,0,12,434,171.4)" />
<use xlink:href="#f1_3" transform="matrix(12,0,0,12,314.7,171.4)" />
<use xlink:href="#f1_i" transform="matrix(12,0,0,12,319.6,171.4)" />
<use xlink:href="#f1_a" transform="matrix(12,0,0,12,323.7,171.4)" />
<use xlink:href="#f1_h" transform="matrix(12,0,0,12,339.6,171.4)" />
<use xlink:href="#f1_6" transform="matrix(12,0,0,12,351.6,171.4)" />
<use xlink:href="#f1_4" transform="matrix(12,0,0,12,356.7,171.4)" />
<use xlink:href="#f1_q" transform="matrix(12,0,0,12,366.3,171.4)" />
<use xlink:href="#f1_6" transform="matrix(12,0,0,12,376.7,171.4)" />
<use xlink:href="#f1_e" transform="matrix(12,0,0,12,381.7,171.4)" />
<use xlink:href="#f2_q" transform="matrix(11,0,0,11,137.7,170)" />
<use xlink:href="#f2_r" transform="matrix(11,0,0,11,151.7,170)" />
<use xlink:href="#f2_o" transform="matrix(11,0,0,11,161,170)" />
<use xlink:href="#f2_s" transform="matrix(11,0,0,11,168.5,170)" />
<use xlink:href="#f2_l" transform="matrix(11,0,0,11,177.8,170)" />
<use xlink:href="#f2_x" transform="matrix(11,0,0,11,186.2,170)" />
<use xlink:href="#f3_7" transform="matrix(11,0,0,11,196.9,170)" />
<use xlink:href="#f3_w" transform="matrix(11,0,0,11,204.4,170)" />
<use xlink:href="#f3_9" transform="matrix(11,0,0,11,212.8,170)" />
<use xlink:href="#f3_z" transform="matrix(11,0,0,11,221.2,170)" />
<use xlink:href="#f3_7" transform="matrix(11,0,0,11,229.6,170)" />
<use xlink:href="#f3_p" transform="matrix(11,0,0,11,237.1,170)" />
<use xlink:href="#f3_7" transform="matrix(11,0,0,11,245.5,170)" />
<use xlink:href="#f3_6" transform="matrix(11,0,0,11,252.9,170)" />
<use xlink:href="#f1_f" transform="matrix(12,0,0,12,744.9,193.6)" />
<use xlink:href="#f1_6" transform="matrix(12,0,0,12,755.5,193.6)" />
<use xlink:href="#f1_d" transform="matrix(12,0,0,12,760.4,193.6)" />
<use xlink:href="#f0_l" transform="matrix(12,0,0,12,695.3,193.6)" />
<use xlink:href="#f0_d" transform="matrix(12,0,0,12,706.1,193.6)" />
<use xlink:href="#f0_i" transform="matrix(12,0,0,12,712.4,193.6)" />
<use xlink:href="#f0_j" transform="matrix(12,0,0,12,725.7,193.6)" />
<use xlink:href="#f2_q" transform="matrix(11,0,0,11,463.5,192.2)" />
<use xlink:href="#f2_r" transform="matrix(11,0,0,11,477.6,192.2)" />
<use xlink:href="#f2_w" transform="matrix(11,0,0,11,486.9,192.2)" />
<use xlink:href="#f3_w" transform="matrix(11,0,0,11,499.4,192.2)" />
<use xlink:href="#f3_3" transform="matrix(11,0,0,11,507.8,192.2)" />
<use xlink:href="#f3_2" transform="matrix(11,0,0,11,512.5,192.2)" />
<use xlink:href="#f3_5" transform="matrix(11,0,0,11,520,192.2)" />
<use xlink:href="#f1_3" transform="matrix(12,0,0,12,429.6,193.6)" />
<use xlink:href="#f1_g" transform="matrix(12,0,0,12,434.6,193.6)" />
<use xlink:href="#f0_l" transform="matrix(12,0,0,12,380,193.6)" />
<use xlink:href="#f0_d" transform="matrix(12,0,0,12,390.8,193.6)" />
<use xlink:href="#f0_i" transform="matrix(12,0,0,12,397.1,193.6)" />
<use xlink:href="#f0_j" transform="matrix(12,0,0,12,410.4,193.6)" />
<use xlink:href="#f1_h" transform="matrix(12,0,0,12,322.5,193.6)" />
<use xlink:href="#f1_6" transform="matrix(12,0,0,12,334.6,193.6)" />
<use xlink:href="#f1_4" transform="matrix(12,0,0,12,339.6,193.6)" />
<use xlink:href="#f1_6" transform="matrix(12,0,0,12,349.2,193.6)" />
<use xlink:href="#f1_7" transform="matrix(12,0,0,12,354.2,193.6)" />
<use xlink:href="#f1_9" transform="matrix(12,0,0,12,366.7,193.6)" />
<use xlink:href="#f3_c" transform="matrix(11,0,0,11,137.7,192.2)" />
<use xlink:href="#f3_m" transform="matrix(11,0,0,11,147.9,192.2)" />
<use xlink:href="#f3_m" transform="matrix(11,0,0,11,152.6,192.2)" />
<use xlink:href="#f3_7" transform="matrix(11,0,0,11,157.2,192.2)" />
<use xlink:href="#f3_6" transform="matrix(11,0,0,11,164.7,192.2)" />
<use xlink:href="#f3_6" transform="matrix(11,0,0,11,175.5,192.2)" />
<use xlink:href="#f3_9" transform="matrix(11,0,0,11,182,192.2)" />
<use xlink:href="#f3_5" transform="matrix(11,0,0,11,190.4,192.2)" />
<use xlink:href="#f2_q" transform="matrix(11,0,0,11,203,192.2)" />
<use xlink:href="#f2_r" transform="matrix(11,0,0,11,217.1,192.2)" />
<use xlink:href="#f2_w" transform="matrix(11,0,0,11,226.4,192.2)" />
<use xlink:href="#f3_w" transform="matrix(11,0,0,11,239.1,192.2)" />
<use xlink:href="#f3_7" transform="matrix(11,0,0,11,247.5,192.2)" />
<use xlink:href="#f3_13" transform="matrix(11,0,0,11,254.8,192.2)" />
<use xlink:href="#f3_7" transform="matrix(11,0,0,11,259.5,192.2)" />
<use xlink:href="#f3_6" transform="matrix(11,0,0,11,267,192.2)" />
<use xlink:href="#f1_16" transform="matrix(11,0,0,11,137.5,1208.9)" />
</g>
</g>
<defs>
<path d="M153,0V437L399,539V0ZM664,0V450c0,0,0,122,-31,165c0,0,-31,43,-121,43H138V836H511c0,0,113,0,188,-22c0,0,75,-23,123,-73c0,0,47,-51,68,-127c0,0,20,-76,20,-189V0Z" 
id="f0_p"
transform="scale(0.001,-0.001)" />

<path d="M66,0V178H507V449c0,0,0,43,-2,71c0,0,-3,28,-12,56c0,0,-9,28,-26,45c0,0,-17,16,-47,27c0,0,-29,10,-72,10H66V836H349c0,0,97,0,167,-17c0,0,71,-17,117,-49c0,0,46,-32,73,-84c0,0,27,-52,38,-114c0,0,11,-62,11,-147V178H866V0Z" 
id="f0_c"
transform="scale(0.001,-0.001)" />

<path d="M534,0V425c0,0,0,109,-41,171c0,0,-41,62,-140,62H66V836H352c0,0,99,0,174,-20c0,0,75,-20,123,-55c0,0,48,-35,78,-87c0,0,30,-53,42,-113c0,0,12,-60,12,-136V0Z" 
id="f0_4"
transform="scale(0.001,-0.001)" />

<path d="M354,-200c0,0,-112,175,-167,343c0,0,-56,170,-56,337c0,0,0,166,55,335c0,0,55,169,168,345H473c0,0,-100,-172,-148,-340c0,0,-48,-168,-48,-340c0,0,0,-173,48,-342c0,0,49,-168,148,-338Z" 
id="f1_v"
transform="scale(0.001,-0.001)" />

<path d="M585,0V426c0,0,0,54,-8,98c0,0,-8,44,-27,83c0,0,-19,40,-49,66c0,0,-30,26,-77,41c0,0,-47,15,-108,15H66V836H315c0,0,94,0,166,-20c0,0,71,-20,116,-54c0,0,46,-35,75,-88c0,0,28,-52,40,-112c0,0,12,-60,12,-137V0Z" 
id="f1_q"
transform="scale(0.001,-0.001)" />

<path d="M66,0V106H322c0,0,75,0,127,23c0,0,53,23,82,67c0,0,29,43,42,98c0,0,13,54,13,124c0,0,0,70,-13,124c0,0,-13,55,-42,98c0,0,-29,44,-82,67c0,0,-52,23,-127,23H66V836H322c0,0,87,0,157,-24c0,0,70,-24,115,-64c0,0,45,-40,74,-94c0,0,30,-55,43,-113c0,0,13,-59,13,-123c0,0,0,-64,-13,-123c0,0,-13,-58,-43,-113c0,0,-29,-54,-74,-94C594,88,549,48,479,24C479,24,409,0,322,0Z" 
id="f1_4"
transform="scale(0.001,-0.001)" />

<path d="M152,0V473c0,0,0,94,28,161c0,0,29,66,71,95H66V836H463V729H404c0,0,-65,0,-89,-57c0,0,-25,-58,-25,-199V0Z" 
id="f1_p"
transform="scale(0.001,-0.001)" />

<path d="M122,-200c0,0,99,170,148,338c0,0,49,169,49,342c0,0,0,172,-49,340c0,0,-49,168,-148,340H241c0,0,112,-176,168,-345c0,0,55,-169,55,-335c0,0,0,-167,-55,-337c0,0,-56,-168,-168,-343Z" 
id="f1_w"
transform="scale(0.001,-0.001)" />

<path d="M700,-317V454c0,0,0,155,-54,215c0,0,-54,60,-180,60H277V551c0,0,0,-55,26,-80c0,0,27,-26,82,-26c0,0,30,0,80,10V341c0,0,-61,-11,-111,-11c0,0,-100,0,-157,55c0,0,-58,55,-58,186V836H466c0,0,203,0,288,-91c0,0,85,-92,85,-293V-317Z" 
id="f1_12"
transform="scale(0.001,-0.001)" />

<path d="M522,92c0,0,247,0,247,333c0,0,0,88,-17,146c0,0,-17,58,-53,91c0,0,-35,33,-82,46c0,0,-48,14,-116,14H276V419c0,0,0,-327,246,-327Zm0,-112c0,0,-193,0,-289,109c0,0,-95,110,-95,337V836H501c0,0,213,0,309,-93c0,0,96,-94,96,-317c0,0,0,-227,-95,-337C811,89,715,-20,522,-20Z" 
id="f1_o"
transform="scale(0.001,-0.001)" />

<path d="M41,0V49l69,18V634L41,652v49H313l11,-61l50,26c0,0,105,54,188,54c0,0,125,0,167,-91c0,0,153,91,258,91c0,0,189,0,189,-207V67l71,-17V0H898V50l63,17V484c0,0,0,63,-24,98c0,0,-25,35,-74,35c0,0,-55,0,-119,-31c0,0,7,-32,7,-73V67L821,50V0H473V50l63,17V484c0,0,0,63,-25,98c0,0,-24,35,-73,35c0,0,-49,0,-113,-29V67L389,49V0Z" 
id="f2_q"
transform="scale(0.001,-0.001)" />

<path d="M287,-18c0,0,-194,0,-194,206V634L23,652v49H309V217c0,0,0,-63,26,-98c0,0,27,-35,76,-35c0,0,57,0,113,25V634l-64,18v49H740V67L809,49V0H536L526,61L475,35c0,0,-104,-53,-188,-53Z" 
id="f2_r"
transform="scale(0.001,-0.001)" />

<path d="M425,-14c0,0,-187,0,-280,90c0,0,-93,90,-93,276c0,0,0,115,42,198c0,0,43,82,121,126c0,0,78,44,182,44c0,0,104,0,227,-26V486H571L539,609c0,0,-25,19,-50,26c0,0,-24,7,-65,7c0,0,-44,0,-79,-35c0,0,-36,-35,-56,-98c0,0,-20,-64,-20,-153c0,0,0,-150,47,-214c0,0,47,-64,148,-64c0,0,103,0,176,21V42C640,42,606,15,547,0c0,0,-59,-14,-122,-14Z" 
id="f2_o"
transform="scale(0.001,-0.001)" />

<path d="M41,0V49l69,18V992l-72,18v50H325V756c0,0,0,-49,-4,-116l51,26c0,0,106,54,190,54c0,0,194,0,194,-207V67L827,49V0H478V49l63,18V484c0,0,0,63,-27,98c0,0,-26,35,-75,35c0,0,-57,0,-114,-25V67L389,49V0Z" 
id="f2_s"
transform="scale(0.001,-0.001)" />

<path d="M379,60c0,0,59,0,84,64c0,0,24,65,24,231c0,0,0,164,-24,227c0,0,-24,63,-84,63c0,0,-57,0,-80,-60c0,0,-22,-61,-22,-230c0,0,0,-173,23,-234c0,0,22,-61,79,-61Zm-2,-74c0,0,-161,0,-240,91c0,0,-79,91,-79,277c0,0,0,186,80,276c0,0,81,90,245,90c0,0,167,0,245,-93c0,0,78,-93,78,-273c0,0,0,-188,-81,-278c0,0,-81,-90,-248,-90Z" 
id="f2_t"
transform="scale(0.001,-0.001)" />

<path d="M383,64c0,0,85,0,152,28V645c0,0,-67,13,-152,13c0,0,-194,0,-194,-314c0,0,0,-141,48,-211c0,0,48,-69,146,-69ZM342,-14c0,0,-287,0,-287,358c0,0,0,184,82,280c0,0,81,96,239,96c0,0,81,0,163,-18c0,0,-4,25,-4,124v182l-118,18v34H659V52L745,33V0H548l-9,52c0,0,-84,-66,-197,-66Z" 
id="f3_p"
transform="scale(0.001,-0.001)" />

<path d="M32,0V33L151,52V649L52,668v33H275V52L395,33V0ZM201,850c0,0,-32,0,-56,24c0,0,-24,24,-24,56c0,0,0,34,24,58c0,0,24,24,56,24c0,0,34,0,58,-24c0,0,24,-24,24,-58c0,0,0,-32,-24,-56c0,0,-24,-24,-58,-24Z" 
id="f3_3"
transform="scale(0.001,-0.001)" />

<path d="M439,0V33l93,19V500c0,0,0,62,-30,97c0,0,-31,36,-94,36c0,0,-67,0,-165,-22V52L338,33V0H35V33l84,19V649L35,668v33H235l7,-57c0,0,57,33,122,54c0,0,65,22,108,22c0,0,91,0,137,-53c0,0,47,-53,47,-154V52L741,33V0Z" 
id="f3_5"
transform="scale(0.001,-0.001)" />

<path d="M495,413c0,0,0,133,-34,190c0,0,-34,57,-105,57c0,0,-78,0,-119,-63c0,0,-42,-62,-42,-184ZM374,-14c0,0,-163,0,-239,87c0,0,-75,88,-75,283c0,0,0,183,77,273c0,0,76,91,219,91c0,0,269,0,269,-306V353H194V340c0,0,0,-103,23,-160c0,0,22,-57,70,-87c0,0,47,-29,124,-29c0,0,40,0,96,6c0,0,55,7,91,15V43C598,43,562,20,500,3c0,0,-61,-17,-126,-17Z" 
id="f3_2"
transform="scale(0.001,-0.001)" />

<path d="M31,0V33l88,19V649L31,668v33H235l7,-87c0,0,44,37,121,71c0,0,76,35,121,35h11V530H463l-43,82c0,0,-37,0,-88,-10c0,0,-52,-10,-89,-26V52L363,33V0Z" 
id="f3_8"
transform="scale(0.001,-0.001)" />

<path d="M377,45c0,0,99,0,147,73c0,0,47,73,47,237c0,0,0,161,-47,233c0,0,-47,72,-147,72c0,0,-97,0,-141,-69c0,0,-44,-69,-44,-236c0,0,0,-169,45,-240c0,0,44,-70,140,-70Zm0,-59c0,0,-158,0,-238,94c0,0,-81,95,-81,274c0,0,0,178,81,272c0,0,80,94,244,94c0,0,160,0,241,-92c0,0,82,-92,82,-274c0,0,0,-368,-329,-368Z" 
id="f3_9"
transform="scale(0.001,-0.001)" />

<path d="M154,0V454l138,56V0ZM722,0V454c0,0,0,161,-49,218c0,0,-48,57,-186,57H139V836H485c0,0,207,0,291,-93c0,0,83,-94,83,-318V0Z" 
id="f1_g"
transform="scale(0.001,-0.001)" />

<path d="M66,0V107H554V452c0,0,0,56,-4,93c0,0,-4,37,-18,75c0,0,-14,38,-40,60c0,0,-26,22,-71,36c0,0,-45,13,-110,13H66V836H312c0,0,91,0,157,-17c0,0,66,-17,109,-49c0,0,44,-32,69,-84c0,0,26,-52,36,-114c0,0,10,-62,10,-147V107H817V0Z" 
id="f1_f"
transform="scale(0.001,-0.001)" />

<path d="M156,-317V454l139,56V-317ZM505,0L806,729H139V835H967V753L650,0Z" 
id="f1_j"
transform="scale(0.001,-0.001)" />

<path d="M66,0V107H332V555c0,0,0,92,-37,133c0,0,-37,41,-116,41H85V836h94c0,0,153,0,223,-66c0,0,69,-66,69,-231V0Z" 
id="f1_9"
transform="scale(0.001,-0.001)" />

<path d="M345,75c0,0,50,0,110,26V351l-63,-2c0,0,-72,-3,-100,-38c0,0,-28,-35,-28,-113c0,0,0,-63,22,-93c0,0,23,-30,59,-30ZM266,-14c0,0,-217,0,-217,208c0,0,0,79,32,126c0,0,32,48,93,71c0,0,60,22,190,25l91,2V521c0,0,0,126,-104,126c0,0,-62,0,-140,-39L183,521H134V691c0,0,112,17,165,21c0,0,53,5,108,5c0,0,264,0,264,-194V67L741,49V0H483L466,54C466,54,408,14,361,0c0,0,-47,-14,-95,-14Z" 
id="f2_l"
transform="scale(0.001,-0.001)" />

<path d="M382,45c0,0,188,0,188,314c0,0,0,143,-47,213c0,0,-46,69,-141,69c0,0,-87,0,-146,-24V58c0,0,67,-13,146,-13ZM25,-325v35l88,18V649L34,668v33H231l1,-41c0,0,31,27,84,43c0,0,53,17,107,17c0,0,134,0,208,-94c0,0,73,-93,73,-267c0,0,0,-178,-80,-276c0,0,-80,-97,-232,-97c0,0,-84,0,-160,16c0,0,4,-53,4,-84V-272l123,-18v-35Z" 
id="f3_4"
transform="scale(0.001,-0.001)" />

<path d="M31,0V33L150,52v956L31,1026v34H274V52L394,33V0Z" 
id="f3_m"
transform="scale(0.001,-0.001)" />

<path d="M284,67c0,0,51,0,88,12c0,0,37,12,74,30V358l-98,-3c0,0,-100,-4,-135,-39c0,0,-35,-35,-35,-117c0,0,0,-132,106,-132ZM233,-14c0,0,-179,0,-179,208c0,0,0,70,27,116c0,0,27,46,87,70c0,0,60,24,173,27l105,3V519c0,0,0,72,-26,107c0,0,-27,34,-82,34c0,0,-75,0,-137,-35L176,538H134V691c0,0,121,26,213,26c0,0,115,0,169,-47c0,0,54,-47,54,-144V52L657,33V0H465L451,70c0,0,-85,-84,-218,-84Z" 
id="f3_7"
transform="scale(0.001,-0.001)" />

<path d="M249,-14c0,0,-71,0,-107,42c0,0,-35,42,-35,119V639H15v33l93,29l76,159h47V701H391V639H231V161c0,0,0,-48,22,-73c0,0,22,-24,57,-24c0,0,44,0,106,12V26C416,26,389,8,340,-2c0,0,-49,-12,-91,-12Z" 
id="f3_e"
transform="scale(0.001,-0.001)" />

<path d="M139,-317V836H278V-317Z" 
id="f1_3"
transform="scale(0.001,-0.001)" />

<path d="M102,312V836H241V369L102,312Z" 
id="f1_i"
transform="scale(0.001,-0.001)" />

<path d="M495,0V729H66V836H781V729H634V0Z" 
id="f1_a"
transform="scale(0.001,-0.001)" />

<path d="M139,0V836H278V0Z" 
id="f1_6"
transform="scale(0.001,-0.001)" />

<path d="M71,-141V-15L289,62L66,836H210L416,109c0,0,99,42,153,98c0,0,53,56,80,155c0,0,26,98,26,262V836H817V624c0,0,0,-88,-7,-154c0,0,-7,-67,-25,-132c0,0,-18,-66,-51,-116c0,0,-33,-51,-84,-98c0,0,-50,-48,-123,-87c0,0,-72,-39,-169,-74L71,-141Z" 
id="f1_e"
transform="scale(0.001,-0.001)" />

<path d="M276,-14c0,0,-57,0,-125,13C151,-1,83,10,48,23V214H97l28,-98c0,0,26,-26,69,-44c0,0,42,-17,86,-17c0,0,65,0,97,28c0,0,32,28,32,71c0,0,0,41,-31,65c0,0,-30,25,-133,57c0,0,-108,34,-154,92c0,0,-45,58,-45,143c0,0,0,95,71,152c0,0,71,57,183,57c0,0,77,0,207,-22V518H457l-24,82c0,0,-21,22,-60,35c0,0,-40,14,-75,14c0,0,-53,0,-79,-22c0,0,-26,-22,-26,-59c0,0,0,-40,32,-65c0,0,32,-26,132,-55c0,0,109,-34,155,-89c0,0,45,-55,45,-137c0,0,0,-117,-72,-177c0,0,-72,-59,-209,-59Z" 
id="f2_x"
transform="scale(0.001,-0.001)" />

<path d="M376,50c0,0,103,0,149,80c0,0,46,81,46,240c0,0,0,137,-47,204c0,0,-48,67,-148,67c0,0,-44,0,-87,-7c0,0,-44,-8,-63,-17V62c0,0,63,-12,150,-12Zm3,-64c0,0,-64,0,-141,14c0,0,-78,14,-136,37v971L0,1026v34H226V809c0,0,0,-40,-4,-148c0,0,74,59,188,59c0,0,143,0,219,-87c0,0,77,-87,77,-263c0,0,0,-189,-84,-287c0,0,-84,-97,-243,-97Z" 
id="f3_w"
transform="scale(0.001,-0.001)" />

<path d="M359,-270c0,0,124,0,192,46c0,0,67,47,67,129c0,0,0,43,-26,67c0,0,-26,24,-79,24H242c0,0,-32,-27,-51,-69c0,0,-20,-41,-20,-77c0,0,0,-64,46,-92c0,0,46,-28,142,-28Zm11,561c0,0,81,0,115,47c0,0,34,47,34,141c0,0,0,100,-35,142c0,0,-35,42,-113,42c0,0,-78,0,-114,-43c0,0,-37,-42,-37,-141c0,0,0,-98,36,-143c0,0,36,-45,114,-45ZM359,-329c0,0,-143,0,-218,44c0,0,-75,43,-75,125c0,0,0,39,27,78c0,0,26,38,98,89c0,0,-43,14,-72,48c0,0,-29,35,-29,74L208,262c0,0,-118,55,-118,217c0,0,0,115,73,178c0,0,73,63,211,63c0,0,28,0,71,-6c0,0,44,-6,67,-13l165,83l26,-32L599,644c0,0,50,-56,50,-165c0,0,0,-120,-72,-182c0,0,-73,-62,-208,-62c0,0,-62,0,-114,11L208,148c0,0,2,-13,29,-24c0,0,27,-12,67,-12H512c0,0,113,0,168,-49c0,0,55,-49,55,-134c0,0,0,-79,-44,-137c0,0,-43,-58,-128,-90c0,0,-84,-31,-204,-31Z" 
id="f3_z"
transform="scale(0.001,-0.001)" />

<path d="M278,-14c0,0,-52,0,-115,11c0,0,-63,10,-99,23V193H98L134,95c0,0,56,-50,146,-50c0,0,144,0,144,123c0,0,0,91,-114,130l-66,21c0,0,-75,25,-110,50c0,0,-34,26,-53,63c0,0,-18,36,-18,89c0,0,0,92,63,145c0,0,63,54,170,54c0,0,77,0,193,-23V544H454l-32,81c0,0,-39,35,-124,35c0,0,-61,0,-92,-30c0,0,-32,-30,-32,-80c0,0,0,-43,29,-72c0,0,28,-29,86,-48c0,0,110,-38,144,-55c0,0,33,-17,57,-42c0,0,23,-25,36,-57c0,0,13,-32,13,-79c0,0,0,-104,-66,-158c0,0,-66,-53,-195,-53Z" 
id="f3_6"
transform="scale(0.001,-0.001)" />

<path d="M112,-5c0,0,-39,0,-97,11V113c0,0,48,-10,77,-10c0,0,53,0,70,42c0,0,17,43,17,164V729H50V836H501c0,0,107,0,179,-25c0,0,72,-25,112,-77c0,0,40,-51,57,-118c0,0,16,-67,16,-164V0H726V454c0,0,0,55,-3,92c0,0,-4,37,-17,75c0,0,-14,38,-38,59c0,0,-24,22,-65,36c0,0,-42,13,-102,13H318V309c0,0,0,-160,-46,-237C272,72,226,-5,112,-5Z" 
id="f1_h"
transform="scale(0.001,-0.001)" />

<path d="M522,-20c0,0,-196,0,-290,99c0,0,-94,100,-94,324V836H276V397c0,0,0,-86,16,-147c0,0,17,-60,50,-94c0,0,34,-34,77,-49c0,0,43,-15,103,-15c0,0,59,0,102,15c0,0,44,15,77,49c0,0,33,34,50,94c0,0,17,61,17,147c0,0,0,84,-8,143c0,0,-7,58,-25,105c0,0,-17,47,-51,69c0,0,-33,23,-83,23c0,0,-50,0,-119,-22V821c0,0,85,23,150,23c0,0,76,0,130,-30c0,0,53,-31,85,-90c0,0,31,-59,45,-138c0,0,13,-78,13,-183c0,0,0,-224,-93,-324c0,0,-94,-99,-290,-99Z" 
id="f1_d"
transform="scale(0.001,-0.001)" />

<path d="M453,0V658H66V836H833V658H700V0Z" 
id="f0_l"
transform="scale(0.001,-0.001)" />

<path d="M139,0V836H386V0Z" 
id="f0_d"
transform="scale(0.001,-0.001)" />

<path d="M159,0V165c0,0,0,69,13,124c0,0,12,55,29,89c0,0,17,33,45,62c0,0,29,28,50,42c0,0,22,14,54,30L128,836H405L666,460c0,0,41,48,41,155V836H952V671c0,0,0,-50,-6,-93c0,0,-6,-42,-16,-73c0,0,-10,-30,-26,-57c0,0,-17,-27,-31,-44c0,0,-15,-17,-37,-33c0,0,-22,-16,-38,-25c0,0,-15,-9,-38,-21L984,0H706L445,376c0,0,-41,-48,-41,-155V0Z" 
id="f0_i"
transform="scale(0.001,-0.001)" />

<path d="M129,0l69,362c0,0,10,56,12,100c0,0,0,84,-27,159c0,0,-27,76,-117,215H322c0,0,9,-6,31,-79c0,0,23,-72,23,-105c0,0,23,82,100,138c0,0,77,57,160,57c0,0,332,0,332,-397V0H538V177H721V449c0,0,0,124,-20,170c0,0,-20,47,-82,47c0,0,-23,0,-43,-9c0,0,-19,-10,-34,-23c0,0,-14,-14,-27,-39c0,0,-13,-25,-22,-46c0,0,-8,-22,-17,-57c0,0,-9,-36,-15,-61c0,0,-5,-24,-13,-65L375,0Z" 
id="f0_j"
transform="scale(0.001,-0.001)" />

<path d="M159,-329c0,0,-61,0,-123,14v180H81l32,-94c0,0,21,-17,55,-17c0,0,28,0,50,13c0,0,21,14,40,39c0,0,20,25,37,62c0,0,17,37,50,110L64,634L15,652v49H374V652L290,632L455,244L602,634l-82,18v49H749V652L698,637L421,-44c0,0,-47,-121,-83,-176c0,0,-36,-55,-80,-82c0,0,-43,-27,-99,-27Z" 
id="f2_w"
transform="scale(0.001,-0.001)" />

<path d="M114,0l60,312c0,0,2,12,8,39c0,0,6,27,7,37c0,0,2,11,5,30c0,0,2,19,4,33c0,0,1,15,1,31c0,0,0,48,-35,146c0,0,-35,98,-98,208H228c0,0,3,-8,27,-67c0,0,25,-58,41,-117c0,0,21,53,50,90c0,0,29,37,57,57c0,0,29,21,65,32c0,0,37,11,65,14c0,0,28,3,67,3c0,0,300,0,300,-396V0H480V106H761V452c0,0,0,146,-46,215c0,0,-45,70,-118,70c0,0,-134,0,-198,-119c0,0,-36,-68,-67,-222c0,0,-2,-10,-6,-27L253,0Z" 
id="f1_7"
transform="scale(0.001,-0.001)" />

<path d="M44,0V40L172,60V941L44,960v40H794V760H745L721,922c0,0,-83,11,-241,11H316V543H586l23,119h48V354H609L586,475H316V67H513c0,0,193,0,252,12l43,185h49L843,0Z" 
id="f3_c"
transform="scale(0.001,-0.001)" />

<path d="M64,-325c0,0,-46,0,-107,14v148H-8l19,-81c0,0,25,-21,62,-21c0,0,44,0,67,47c0,0,22,47,22,152V649L57,668v33H286V-28c0,0,0,-146,-57,-221c0,0,-56,-76,-165,-76ZM213,850c0,0,-34,0,-58,24c0,0,-24,24,-24,56c0,0,0,34,24,58c0,0,24,24,58,24c0,0,32,0,56,-24c0,0,24,-24,24,-58c0,0,0,-32,-24,-56c0,0,-24,-24,-56,-24Z" 
id="f3_13"
transform="scale(0.001,-0.001)" />

<path d="M414,-20c0,0,-70,0,-144,13c0,0,-75,13,-154,40V179c0,0,63,-36,138,-55c0,0,74,-18,156,-18c0,0,142,0,216,55c0,0,74,56,74,163c0,0,0,98,-69,153c0,0,-69,56,-192,56H309V657H445c0,0,111,0,170,44c0,0,59,45,59,128c0,0,0,86,-61,132c0,0,-61,46,-174,46c0,0,-62,0,-133,-13c0,0,-71,-14,-156,-42v134c0,0,85,24,160,36c0,0,75,12,142,12c0,0,171,0,271,-78c0,0,100,-78,100,-211c0,0,0,-92,-53,-156c0,0,-52,-64,-150,-89c0,0,108,-23,169,-96c0,0,61,-73,61,-180c0,0,0,-165,-114,-255c0,0,-113,-89,-322,-89Z" 
id="f1_16"
transform="scale(0.001,-0.001)" />


</defs>
</svg>