<?xml version="1.0" encoding="UTF-8" standalone="no"?>
<!DOCTYPE svg PUBLIC "-//W3C//DTD SVG 1.1//EN"
"http://www.w3.org/Graphics/SVG/1.1/DTD/svg11.dtd">
<svg viewBox="0 0 909 1286" version="1.1" xmlns="http://www.w3.org/2000/svg" xmlns:xlink="http://www.w3.org/1999/xlink">
<defs>
<clipPath id="c0_12"><path d="M0,1286.2V0H909.4V1286.2Z" /></clipPath>
<clipPath id="c1_12"><path d="M722.9,495.8V474.5h.3v21.3Z" /></clipPath>
<style type="text/css"><![CDATA[
.g0_12{
fill: none;
stroke: #000000;
stroke-width: 0.7638889;
stroke-linecap: butt;
stroke-linejoin: round;
}
.g1_12{
fill: none;
stroke: #0000FF;
stroke-width: 1.0694444;
stroke-linecap: butt;
stroke-linejoin: miter;
}
]]></style>
</defs>
<g clip-path="url(#c0_12)">
<g fill="#000000" >
<use xlink:href="#f0_15" transform="matrix(12,0,0,12,605.6,127.1)" />
<use xlink:href="#f0_d" transform="matrix(12,0,0,12,611.7,127.1)" />
<use xlink:href="#f0_f" transform="matrix(12,0,0,12,623.9,127.1)" />
<use xlink:href="#f0_9" transform="matrix(12,0,0,12,634.5,127.1)" />
<use xlink:href="#f0_l" transform="matrix(12,0,0,12,652.3,127.1)" />
<use xlink:href="#f0_w" transform="matrix(12,0,0,12,663.8,127.1)" />
<use xlink:href="#f0_p" transform="matrix(12,0,0,12,675.7,127.1)" />
<use xlink:href="#f0_9" transform="matrix(12,0,0,12,688.7,127.1)" />
<use xlink:href="#f0_e" transform="matrix(12,0,0,12,706.4,127.1)" />
<use xlink:href="#f0_d" transform="matrix(12,0,0,12,718.5,127.1)" />
<use xlink:href="#f0_d" transform="matrix(12,0,0,12,736.5,127.1)" />
<use xlink:href="#f0_a" transform="matrix(12,0,0,12,748.7,127.1)" />
<use xlink:href="#f0_p" transform="matrix(12,0,0,12,759.1,127.1)" />
<use xlink:href="#f0_9" transform="matrix(12,0,0,12,721.2,148.5)" />
<use xlink:href="#f0_3" transform="matrix(12,0,0,12,733.1,148.5)" />
<use xlink:href="#f0_7" transform="matrix(12,0,0,12,743.5,148.5)" />
<use xlink:href="#f0_8" transform="matrix(12,0,0,12,747.6,148.5)" />
<use xlink:href="#f0_9" transform="matrix(12,0,0,12,760.1,148.5)" />
<use xlink:href="#f1_f" transform="matrix(11,0,0,11,678.2,148.5)" />
<use xlink:href="#f1_a" transform="matrix(11,0,0,11,686.6,148.5)" />
<use xlink:href="#f1_8" transform="matrix(11,0,0,11,695,148.5)" />
<use xlink:href="#f0_15" transform="matrix(12,0,0,12,361.3,148.5)" />
<use xlink:href="#f0_3" transform="matrix(12,0,0,12,367.4,148.5)" />
<use xlink:href="#f0_4" transform="matrix(12,0,0,12,377.8,148.5)" />
<use xlink:href="#f0_8" transform="matrix(12,0,0,12,390.8,148.5)" />
<use xlink:href="#f0_3" transform="matrix(12,0,0,12,403.3,148.5)" />
<use xlink:href="#f0_2" transform="matrix(12,0,0,12,422.5,148.5)" />
<use xlink:href="#f0_i" transform="matrix(12,0,0,12,432.3,148.5)" />
<use xlink:href="#f0_j" transform="matrix(12,0,0,12,450.9,148.5)" />
<use xlink:href="#f0_7" transform="matrix(12,0,0,12,456.7,148.5)" />
<use xlink:href="#f0_3" transform="matrix(12,0,0,12,460.8,148.5)" />
<use xlink:href="#f0_3" transform="matrix(12,0,0,12,471.2,148.5)" />
<use xlink:href="#f0_i" transform="matrix(12,0,0,12,481.6,148.5)" />
<use xlink:href="#f0_h" transform="matrix(12,0,0,12,499.9,148.5)" />
<use xlink:href="#f0_c" transform="matrix(12,0,0,12,504.9,148.5)" />
<use xlink:href="#f0_7" transform="matrix(12,0,0,12,509.9,148.5)" />
<use xlink:href="#f0_b" transform="matrix(12,0,0,12,514,148.5)" />
<use xlink:href="#f0_i" transform="matrix(12,0,0,12,524.9,148.5)" />
<use xlink:href="#f0_6" transform="matrix(12,0,0,12,543.3,148.5)" />
<use xlink:href="#f0_7" transform="matrix(12,0,0,12,555.4,148.5)" />
<use xlink:href="#f0_e" transform="matrix(12,0,0,12,559.5,148.5)" />
<use xlink:href="#f0_7" transform="matrix(12,0,0,12,571.5,148.5)" />
<use xlink:href="#f0_l" transform="matrix(12,0,0,12,575.6,148.5)" />
<use xlink:href="#f0_3" transform="matrix(12,0,0,12,587.1,148.5)" />
<use xlink:href="#f0_e" transform="matrix(12,0,0,12,606.3,148.5)" />
<use xlink:href="#f0_4" transform="matrix(12,0,0,12,618.3,148.5)" />
<use xlink:href="#f0_8" transform="matrix(12,0,0,12,631.3,148.5)" />
<use xlink:href="#f0_4" transform="matrix(12,0,0,12,643.7,148.5)" />
<use xlink:href="#f0_8" transform="matrix(12,0,0,12,656.7,148.5)" />
<use xlink:href="#f1_n" transform="matrix(11,0,0,11,178.9,148.5)" />
<use xlink:href="#f1_a" transform="matrix(11,0,0,11,191,148.5)" />
<use xlink:href="#f1_8" transform="matrix(11,0,0,11,199.4,148.5)" />
<use xlink:href="#f1_h" transform="matrix(11,0,0,11,215.1,148.5)" />
<use xlink:href="#f1_4" transform="matrix(11,0,0,11,219.7,148.5)" />
<use xlink:href="#f1_2" transform="matrix(11,0,0,11,224.4,148.5)" />
<use xlink:href="#f1_a" transform="matrix(11,0,0,11,231.8,148.5)" />
<use xlink:href="#f1_2" transform="matrix(11,0,0,11,240.2,148.5)" />
<use xlink:href="#f1_1g" transform="matrix(11,0,0,11,254.9,148.5)" />
<use xlink:href="#f1_f" transform="matrix(11,0,0,11,263.3,148.5)" />
<use xlink:href="#f1_2" transform="matrix(11,0,0,11,271.5,148.5)" />
<use xlink:href="#f1_e" transform="matrix(11,0,0,11,286.1,148.5)" />
<use xlink:href="#f1_2" transform="matrix(11,0,0,11,294.5,148.5)" />
<use xlink:href="#f1_g" transform="matrix(11,0,0,11,302,148.5)" />
<use xlink:href="#f1_5" transform="matrix(11,0,0,11,308.6,148.5)" />
<use xlink:href="#f1_m" transform="matrix(11,0,0,11,316,148.5)" />
<use xlink:href="#f1_a" transform="matrix(11,0,0,11,323.5,148.5)" />
<use xlink:href="#f1_g" transform="matrix(11,0,0,11,331.9,148.5)" />
<use xlink:href="#f1_m" transform="matrix(11,0,0,11,338.3,148.5)" />
<use xlink:href="#f1_3" transform="matrix(11,0,0,11,345.8,148.5)" />
<use xlink:href="#f0_4" transform="matrix(12,0,0,12,137.7,148.5)" />
<use xlink:href="#f0_7" transform="matrix(12,0,0,12,150.6,148.5)" />
<use xlink:href="#f0_12" transform="matrix(12,0,0,12,163.6,148.5)" />
<use xlink:href="#f0_9" transform="matrix(12,0,0,12,675,169.9)" />
<use xlink:href="#f0_3" transform="matrix(12,0,0,12,686.9,169.9)" />
<use xlink:href="#f0_7" transform="matrix(12,0,0,12,697.3,169.9)" />
<use xlink:href="#f0_8" transform="matrix(12,0,0,12,701.4,169.9)" />
<use xlink:href="#f0_9" transform="matrix(12,0,0,12,713.9,169.9)" />
<use xlink:href="#f0_j" transform="matrix(12,0,0,12,731.6,169.9)" />
<use xlink:href="#f0_g" transform="matrix(12,0,0,12,737.4,169.9)" />
<use xlink:href="#f0_c" transform="matrix(12,0,0,12,749.3,169.9)" />
<use xlink:href="#f0_n" transform="matrix(12,0,0,12,754.4,169.9)" />
<use xlink:href="#f0_3" transform="matrix(12,0,0,12,761.7,169.9)" />
<use xlink:href="#f2_1i" transform="matrix(11,0,0,11,638,169.9)" />
<use xlink:href="#f2_n" transform="matrix(11,0,0,11,646.3,169.9)" />
<use xlink:href="#f2_1n" transform="matrix(11,0,0,11,651,169.9)" />
<use xlink:href="#f2_q" transform="matrix(11,0,0,11,660.3,169.9)" />
<use xlink:href="#f0_9" transform="matrix(12,0,0,12,571.1,169.9)" />
<use xlink:href="#f0_l" transform="matrix(12,0,0,12,583,169.9)" />
<use xlink:href="#f0_8" transform="matrix(12,0,0,12,594.5,169.9)" />
<use xlink:href="#f0_4" transform="matrix(12,0,0,12,607,169.9)" />
<use xlink:href="#f0_8" transform="matrix(12,0,0,12,619.8,169.9)" />
<use xlink:href="#f3_c" transform="matrix(12,0,0,12,529.1,169.9)" />
<use xlink:href="#f3_d" transform="matrix(12,0,0,12,541.9,169.9)" />
<use xlink:href="#f3_d" transform="matrix(12,0,0,12,547.2,169.9)" />
<use xlink:href="#f3_g" transform="matrix(12,0,0,12,552.6,169.9)" />
<use xlink:href="#f0_d" transform="matrix(12,0,0,12,488.3,169.9)" />
<use xlink:href="#f0_3" transform="matrix(12,0,0,12,500.5,169.9)" />
<use xlink:href="#f0_c" transform="matrix(12,0,0,12,510.9,169.9)" />
<use xlink:href="#f0_v" transform="matrix(12,0,0,12,515.9,169.9)" />
<use xlink:href="#f1_s" transform="matrix(11,0,0,11,453.3,169.9)" />
<use xlink:href="#f1_4" transform="matrix(11,0,0,11,461.7,169.9)" />
<use xlink:href="#f1_s" transform="matrix(11,0,0,11,466.4,169.9)" />
<use xlink:href="#f1_m" transform="matrix(11,0,0,11,474.8,169.9)" />
<use xlink:href="#f0_j" transform="matrix(12,0,0,12,229,169.9)" />
<use xlink:href="#f0_x" transform="matrix(12,0,0,12,234.8,169.9)" />
<use xlink:href="#f0_f" transform="matrix(12,0,0,12,242,169.9)" />
<use xlink:href="#f0_c" transform="matrix(12,0,0,12,252.5,169.9)" />
<use xlink:href="#f0_4" transform="matrix(12,0,0,12,257.6,169.9)" />
<use xlink:href="#f0_g" transform="matrix(12,0,0,12,270.5,169.9)" />
<use xlink:href="#f0_3" transform="matrix(12,0,0,12,282.5,169.9)" />
<use xlink:href="#f0_6" transform="matrix(12,0,0,12,298.8,169.9)" />
<use xlink:href="#f0_7" transform="matrix(12,0,0,12,310.9,169.9)" />
<use xlink:href="#f0_e" transform="matrix(12,0,0,12,315,169.9)" />
<use xlink:href="#f0_7" transform="matrix(12,0,0,12,327,169.9)" />
<use xlink:href="#f0_l" transform="matrix(12,0,0,12,331.1,169.9)" />
<use xlink:href="#f0_3" transform="matrix(12,0,0,12,342.6,169.9)" />
<use xlink:href="#f0_6" transform="matrix(12,0,0,12,358.8,169.9)" />
<use xlink:href="#f0_7" transform="matrix(12,0,0,12,371,169.9)" />
<use xlink:href="#f0_l" transform="matrix(12,0,0,12,375.1,169.9)" />
<use xlink:href="#f0_c" transform="matrix(12,0,0,12,386.6,169.9)" />
<use xlink:href="#f0_w" transform="matrix(12,0,0,12,391.4,169.9)" />
<use xlink:href="#f0_4" transform="matrix(12,0,0,12,403.3,169.9)" />
<use xlink:href="#f0_7" transform="matrix(12,0,0,12,422.3,169.9)" />
<use xlink:href="#f0_m" transform="matrix(12,0,0,12,426.4,169.9)" />
<use xlink:href="#f0_i" transform="matrix(12,0,0,12,437.8,169.9)" />
<use xlink:href="#f2_17" transform="matrix(16,0,0,16,137.7,234.7)" />
<use xlink:href="#f2_12" transform="matrix(16,0,0,16,154.4,234.7)" />
<use xlink:href="#f2_r" transform="matrix(16,0,0,16,175.1,234.7)" />
<use xlink:href="#f2_o" transform="matrix(16,0,0,16,189.1,234.7)" />
<use xlink:href="#f2_p" transform="matrix(16,0,0,16,200.2,234.7)" />
<use xlink:href="#f2_1l" transform="matrix(16,0,0,16,211.5,234.7)" />
<use xlink:href="#f2_q" transform="matrix(16,0,0,16,221.3,234.7)" />
<use xlink:href="#f2_1n" transform="matrix(16,0,0,16,240.5,234.7)" />
<use xlink:href="#f2_p" transform="matrix(16,0,0,16,254.4,234.7)" />
<use xlink:href="#f2_l" transform="matrix(16,0,0,16,272,234.7)" />
<use xlink:href="#f2_k" transform="matrix(16,0,0,16,283.3,234.7)" />
<use xlink:href="#f2_11" transform="matrix(16,0,0,16,295.9,234.7)" />
<use xlink:href="#f2_1l" transform="matrix(16,0,0,16,309.9,234.7)" />
<use xlink:href="#f2_s" transform="matrix(16,0,0,16,319.6,234.7)" />
<use xlink:href="#f2_o" transform="matrix(16,0,0,16,328.2,234.7)" />
<use xlink:href="#f2_14" transform="matrix(16,0,0,16,339.3,234.7)" />
<use xlink:href="#f2_l" transform="matrix(16,0,0,16,353.3,234.7)" />
<use xlink:href="#f2_l" transform="matrix(16,0,0,16,364.4,234.7)" />
<use xlink:href="#f2_n" transform="matrix(16,0,0,16,375.7,234.7)" />
<use xlink:href="#f2_1u" transform="matrix(16,0,0,16,382.8,234.7)" />
<use xlink:href="#f2_11" transform="matrix(16,0,0,16,395.4,234.7)" />
</g>
</g>
<path d="M128.6,240.4H780.8M128.6,262.5H780.8M128.9,240v22.9M210.4,240v22.9M291.8,240v22.9M373.2,240v22.9M454.7,240v22.9M536.1,240v22.9M617.5,240v22.9M699,240v22.9M780.4,240v22.9" class="g0_12" />
<g clip-path="url(#c0_12)">
<g fill="#000000" >
<use xlink:href="#f0_9" transform="matrix(12,0,0,12,727.4,257.7)" />
<use xlink:href="#f0_1g" transform="matrix(12,0,0,12,738.1,257.7)" />
<use xlink:href="#f0_a" transform="matrix(12,0,0,12,739.3,257.7)" />
<use xlink:href="#f0_f" transform="matrix(12,0,0,12,749.7,257.7)" />
<use xlink:href="#f0_1j" transform="matrix(12,0,0,12,760.5,257.7)" />
<use xlink:href="#f0_g" transform="matrix(12,0,0,12,760.2,257.7)" />
<use xlink:href="#f1_2" transform="matrix(11,0,0,11,626.2,256.4)" />
<use xlink:href="#f1_p" transform="matrix(11,0,0,11,633.7,256.4)" />
<use xlink:href="#f1_u" transform="matrix(11,0,0,11,646.8,256.4)" />
<use xlink:href="#f1_3" transform="matrix(11,0,0,11,655.1,256.4)" />
<use xlink:href="#f1_2" transform="matrix(11,0,0,11,660.7,256.4)" />
<use xlink:href="#f1_g" transform="matrix(11,0,0,11,668.2,256.4)" />
<use xlink:href="#f1_m" transform="matrix(11,0,0,11,674.7,256.4)" />
<use xlink:href="#f0_h" transform="matrix(12,0,0,12,568.9,257.7)" />
<use xlink:href="#f0_i" transform="matrix(12,0,0,12,574,257.7)" />
<use xlink:href="#f0_6" transform="matrix(12,0,0,12,589.5,257.7)" />
<use xlink:href="#f0_k" transform="matrix(12,0,0,12,601.7,257.7)" />
<use xlink:href="#f1_h" transform="matrix(11,0,0,11,463.4,256.4)" />
<use xlink:href="#f1_m" transform="matrix(11,0,0,11,468.1,256.4)" />
<use xlink:href="#f1_p" transform="matrix(11,0,0,11,475.4,256.4)" />
<use xlink:href="#f1_v" transform="matrix(11,0,0,11,488.5,256.4)" />
<use xlink:href="#f1_4" transform="matrix(11,0,0,11,497,256.4)" />
<use xlink:href="#f1_k" transform="matrix(11,0,0,11,501.7,256.4)" />
<use xlink:href="#f1_a" transform="matrix(11,0,0,11,509.1,256.4)" />
<use xlink:href="#f0_e" transform="matrix(12,0,0,12,396.3,257.7)" />
<use xlink:href="#f0_c" transform="matrix(12,0,0,12,408.4,257.7)" />
<use xlink:href="#f0_f" transform="matrix(12,0,0,12,413.4,257.7)" />
<use xlink:href="#f0_a" transform="matrix(12,0,0,12,423.9,257.7)" />
<use xlink:href="#f0_e" transform="matrix(12,0,0,12,434.3,257.7)" />
<use xlink:href="#f1_5" transform="matrix(11,0,0,11,300.5,256.4)" />
<use xlink:href="#f1_f" transform="matrix(11,0,0,11,308,256.4)" />
<use xlink:href="#f1_l" transform="matrix(11,0,0,11,316.4,256.4)" />
<use xlink:href="#f1_h" transform="matrix(11,0,0,11,321,256.4)" />
<use xlink:href="#f1_f" transform="matrix(11,0,0,11,325.7,256.4)" />
<use xlink:href="#f1_3" transform="matrix(11,0,0,11,334.1,256.4)" />
<use xlink:href="#f1_m" transform="matrix(11,0,0,11,339.7,256.4)" />
<use xlink:href="#f0_q" transform="matrix(12,0,0,12,244.9,257.7)" />
<use xlink:href="#f0_7" transform="matrix(12,0,0,12,255,257.7)" />
<use xlink:href="#f0_8" transform="matrix(12,0,0,12,258.9,257.7)" />
<use xlink:href="#f0_e" transform="matrix(12,0,0,12,271.4,257.7)" />
<use xlink:href="#f1_g" transform="matrix(11,0,0,11,137.7,256.4)" />
<use xlink:href="#f1_4" transform="matrix(11,0,0,11,144.2,256.4)" />
<use xlink:href="#f1_2" transform="matrix(11,0,0,11,148.9,256.4)" />
<use xlink:href="#f1_p" transform="matrix(11,0,0,11,156.3,256.4)" />
<use xlink:href="#f1_u" transform="matrix(11,0,0,11,169.4,256.4)" />
<use xlink:href="#f1_3" transform="matrix(11,0,0,11,177.8,256.4)" />
<use xlink:href="#f1_2" transform="matrix(11,0,0,11,183.4,256.4)" />
<use xlink:href="#f1_18" transform="matrix(11,0,0,11,137.7,297.9)" />
<use xlink:href="#f1_8" transform="matrix(11,0,0,11,147,297.9)" />
<use xlink:href="#f1_l" transform="matrix(11,0,0,11,155.4,297.9)" />
<use xlink:href="#f1_2" transform="matrix(11,0,0,11,160.1,297.9)" />
<use xlink:href="#f1_l" transform="matrix(11,0,0,11,167.4,297.9)" />
<use xlink:href="#f1_1q" transform="matrix(11,0,0,11,179.9,297.9)" />
<use xlink:href="#f1_8" transform="matrix(11,0,0,11,191.1,297.9)" />
<use xlink:href="#f1_a" transform="matrix(11,0,0,11,199.5,297.9)" />
<use xlink:href="#f1_2" transform="matrix(11,0,0,11,207.9,297.9)" />
<use xlink:href="#f1_2" transform="matrix(11,0,0,11,223.3,297.9)" />
<use xlink:href="#f1_g" transform="matrix(11,0,0,11,230.6,297.9)" />
<use xlink:href="#f1_f" transform="matrix(11,0,0,11,245,297.9)" />
<use xlink:href="#f1_a" transform="matrix(11,0,0,11,253.4,297.9)" />
<use xlink:href="#f1_m" transform="matrix(11,0,0,11,261.8,297.9)" />
<use xlink:href="#f1_v" transform="matrix(11,0,0,11,277,297.9)" />
<use xlink:href="#f1_f" transform="matrix(11,0,0,11,285.4,297.9)" />
<use xlink:href="#f1_2" transform="matrix(11,0,0,11,293.8,297.9)" />
<use xlink:href="#f1_a" transform="matrix(11,0,0,11,301.3,297.9)" />
<use xlink:href="#f1_m" transform="matrix(11,0,0,11,309.7,297.9)" />
<use xlink:href="#f1_2" transform="matrix(11,0,0,11,325,297.9)" />
<use xlink:href="#f1_p" transform="matrix(11,0,0,11,332.3,297.9)" />
<use xlink:href="#f1_u" transform="matrix(11,0,0,11,345.4,297.9)" />
<use xlink:href="#f1_3" transform="matrix(11,0,0,11,353.8,297.9)" />
<use xlink:href="#f1_2" transform="matrix(11,0,0,11,359.4,297.9)" />
<use xlink:href="#f1_g" transform="matrix(11,0,0,11,366.9,297.9)" />
<use xlink:href="#f1_m" transform="matrix(11,0,0,11,373.3,297.9)" />
<use xlink:href="#f1_1g" transform="matrix(11,0,0,11,388.6,297.9)" />
<use xlink:href="#f1_f" transform="matrix(11,0,0,11,397,297.9)" />
<use xlink:href="#f1_2" transform="matrix(11,0,0,11,405.4,297.9)" />
<use xlink:href="#f1_5" transform="matrix(11,0,0,11,420.6,297.9)" />
<use xlink:href="#f1_8" transform="matrix(11,0,0,11,428.1,297.9)" />
<use xlink:href="#f1_a" transform="matrix(11,0,0,11,436.5,297.9)" />
<use xlink:href="#f1_g" transform="matrix(11,0,0,11,444.9,297.9)" />
<use xlink:href="#f1_h" transform="matrix(11,0,0,11,451.3,297.9)" />
<use xlink:href="#f1_3" transform="matrix(11,0,0,11,456.1,297.9)" />
<use xlink:href="#f1_f" transform="matrix(11,0,0,11,461.7,297.9)" />
<use xlink:href="#f1_7" transform="matrix(11,0,0,11,470.1,297.9)" />
<use xlink:href="#f1_2" transform="matrix(11,0,0,11,478.5,297.9)" />
<use xlink:href="#f1_p" transform="matrix(11,0,0,11,493.7,297.9)" />
<use xlink:href="#f1_f" transform="matrix(11,0,0,11,506.9,297.9)" />
<use xlink:href="#f1_5" transform="matrix(11,0,0,11,515.1,297.9)" />
<use xlink:href="#f1_x" transform="matrix(11,0,0,11,522.6,297.9)" />
<use xlink:href="#f1_m" transform="matrix(11,0,0,11,531,297.9)" />
<use xlink:href="#f1_g" transform="matrix(11,0,0,11,538.4,297.9)" />
<use xlink:href="#f1_5" transform="matrix(11,0,0,11,552.8,297.9)" />
<use xlink:href="#f1_m" transform="matrix(11,0,0,11,560.2,297.9)" />
<use xlink:href="#f1_g" transform="matrix(11,0,0,11,567.7,297.9)" />
<use xlink:href="#f1_m" transform="matrix(11,0,0,11,574.1,297.9)" />
<use xlink:href="#f1_g" transform="matrix(11,0,0,11,581.6,297.9)" />
<use xlink:href="#f1_2" transform="matrix(11,0,0,11,595.9,297.9)" />
<use xlink:href="#f1_a" transform="matrix(11,0,0,11,603.4,297.9)" />
<use xlink:href="#f1_b" transform="matrix(11,0,0,11,619.5,297.9)" />
<use xlink:href="#f1_g" transform="matrix(11,0,0,11,625.2,297.9)" />
<use xlink:href="#f1_3" transform="matrix(11,0,0,11,631.6,297.9)" />
<use xlink:href="#f1_m" transform="matrix(11,0,0,11,637.2,297.9)" />
<use xlink:href="#f1_2" transform="matrix(11,0,0,11,644.7,297.9)" />
<use xlink:href="#f1_l" transform="matrix(11,0,0,11,652,297.9)" />
<use xlink:href="#f1_o" transform="matrix(11,0,0,11,656.7,297.9)" />
<use xlink:href="#f1_18" transform="matrix(11,0,0,11,668.8,297.9)" />
<use xlink:href="#f1_8" transform="matrix(11,0,0,11,678.1,297.9)" />
<use xlink:href="#f1_l" transform="matrix(11,0,0,11,686.5,297.9)" />
<use xlink:href="#f1_2" transform="matrix(11,0,0,11,691.2,297.9)" />
<use xlink:href="#f1_l" transform="matrix(11,0,0,11,698.6,297.9)" />
<use xlink:href="#f1_1q" transform="matrix(11,0,0,11,711.1,297.9)" />
<use xlink:href="#f1_8" transform="matrix(11,0,0,11,722.2,297.9)" />
<use xlink:href="#f1_a" transform="matrix(11,0,0,11,730.6,297.9)" />
<use xlink:href="#f1_2" transform="matrix(11,0,0,11,739,297.9)" />
<use xlink:href="#f1_a" transform="matrix(11,0,0,11,754.3,297.9)" />
<use xlink:href="#f1_8" transform="matrix(11,0,0,11,762.7,297.9)" />
<use xlink:href="#f1_5" transform="matrix(11,0,0,11,137.7,317.2)" />
<use xlink:href="#f1_8" transform="matrix(11,0,0,11,145.1,317.2)" />
<use xlink:href="#f1_a" transform="matrix(11,0,0,11,153.5,317.2)" />
<use xlink:href="#f1_g" transform="matrix(11,0,0,11,161.9,317.2)" />
<use xlink:href="#f1_h" transform="matrix(11,0,0,11,168.5,317.2)" />
<use xlink:href="#f1_3" transform="matrix(11,0,0,11,173.1,317.2)" />
<use xlink:href="#f1_f" transform="matrix(11,0,0,11,178.7,317.2)" />
<use xlink:href="#f1_7" transform="matrix(11,0,0,11,187.1,317.2)" />
<use xlink:href="#f1_2" transform="matrix(11,0,0,11,195.5,317.2)" />
<use xlink:href="#f1_g" transform="matrix(11,0,0,11,207.7,317.2)" />
<use xlink:href="#f1_1i" transform="matrix(11,0,0,11,214.3,317.2)" />
<use xlink:href="#f1_l" transform="matrix(11,0,0,11,222.5,317.2)" />
<use xlink:href="#f1_8" transform="matrix(11,0,0,11,227.2,317.2)" />
<use xlink:href="#f1_2" transform="matrix(11,0,0,11,240.3,317.2)" />
<use xlink:href="#f1_a" transform="matrix(11,0,0,11,247.8,317.2)" />
<use xlink:href="#f1_b" transform="matrix(11,0,0,11,260.9,317.2)" />
<use xlink:href="#f1_g" transform="matrix(11,0,0,11,266.5,317.2)" />
<use xlink:href="#f1_3" transform="matrix(11,0,0,11,273,317.2)" />
<use xlink:href="#f1_m" transform="matrix(11,0,0,11,278.6,317.2)" />
<use xlink:href="#f1_2" transform="matrix(11,0,0,11,286,317.2)" />
<use xlink:href="#f1_l" transform="matrix(11,0,0,11,293.5,317.2)" />
<use xlink:href="#f1_o" transform="matrix(11,0,0,11,298.1,317.2)" />
<use xlink:href="#f1_15" transform="matrix(11,0,0,11,307.1,317.2)" />
<use xlink:href="#f1_8" transform="matrix(11,0,0,11,318.2,317.2)" />
<use xlink:href="#f1_a" transform="matrix(11,0,0,11,326.6,317.2)" />
<use xlink:href="#f1_g" transform="matrix(11,0,0,11,335.1,317.2)" />
<use xlink:href="#f1_h" transform="matrix(11,0,0,11,341.6,317.2)" />
<use xlink:href="#f1_3" transform="matrix(11,0,0,11,346.3,317.2)" />
<use xlink:href="#f1_f" transform="matrix(11,0,0,11,352,317.2)" />
<use xlink:href="#f1_7" transform="matrix(11,0,0,11,360.4,317.2)" />
<use xlink:href="#f1_2" transform="matrix(11,0,0,11,368.6,317.2)" />
<use xlink:href="#f1_h" transform="matrix(11,0,0,11,380.8,317.2)" />
<use xlink:href="#f1_m" transform="matrix(11,0,0,11,385.5,317.2)" />
<use xlink:href="#f1_p" transform="matrix(11,0,0,11,392.9,317.2)" />
<use xlink:href="#f1_v" transform="matrix(11,0,0,11,406,317.2)" />
<use xlink:href="#f1_4" transform="matrix(11,0,0,11,414.4,317.2)" />
<use xlink:href="#f1_k" transform="matrix(11,0,0,11,419.1,317.2)" />
<use xlink:href="#f1_a" transform="matrix(11,0,0,11,426.6,317.2)" />
<use xlink:href="#f1_2" transform="matrix(11,0,0,11,439.7,317.2)" />
<use xlink:href="#f1_a" transform="matrix(11,0,0,11,447.1,317.2)" />
<use xlink:href="#f1_1h" transform="matrix(11,0,0,11,460.3,317.2)" />
<use xlink:href="#f1_m" transform="matrix(11,0,0,11,470.5,317.2)" />
<use xlink:href="#f1_h" transform="matrix(11,0,0,11,477.8,317.2)" />
<use xlink:href="#f1_4" transform="matrix(11,0,0,11,482.5,317.2)" />
<use xlink:href="#f1_a" transform="matrix(11,0,0,11,487.3,317.2)" />
<use xlink:href="#f1_8" transform="matrix(11,0,0,11,495.7,317.2)" />
<use xlink:href="#f1_m" transform="matrix(11,0,0,11,504.1,317.2)" />
<use xlink:href="#f1_p" transform="matrix(11,0,0,11,511.4,317.2)" />
<use xlink:href="#f1_k" transform="matrix(11,0,0,11,524.5,317.2)" />
<use xlink:href="#f1_3" transform="matrix(11,0,0,11,532,317.2)" />
<use xlink:href="#f1_4" transform="matrix(11,0,0,11,537.5,317.2)" />
<use xlink:href="#f1_5" transform="matrix(11,0,0,11,542.2,317.2)" />
<use xlink:href="#f1_m" transform="matrix(11,0,0,11,549.7,317.2)" />
<use xlink:href="#f1_o" transform="matrix(11,0,0,11,557.1,317.2)" />
<use xlink:href="#f1_1s" transform="matrix(11,0,0,11,566.1,317.2)" />
<use xlink:href="#f1_4" transform="matrix(11,0,0,11,575.3,317.2)" />
<use xlink:href="#f1_2" transform="matrix(11,0,0,11,580,317.2)" />
<use xlink:href="#f1_a" transform="matrix(11,0,0,11,587.5,317.2)" />
<use xlink:href="#f1_g" transform="matrix(11,0,0,11,595.9,317.2)" />
<use xlink:href="#f1_8" transform="matrix(11,0,0,11,602.4,317.2)" />
<use xlink:href="#f1_1g" transform="matrix(11,0,0,11,615.5,317.2)" />
<use xlink:href="#f1_f" transform="matrix(11,0,0,11,623.9,317.2)" />
<use xlink:href="#f1_2" transform="matrix(11,0,0,11,632.3,317.2)" />
<use xlink:href="#f1_a" transform="matrix(11,0,0,11,644.5,317.2)" />
<use xlink:href="#f1_8" transform="matrix(11,0,0,11,652.9,317.2)" />
<use xlink:href="#f1_2" transform="matrix(11,0,0,11,666,317.2)" />
<use xlink:href="#f1_g" transform="matrix(11,0,0,11,673.4,317.2)" />
<use xlink:href="#f1_t" transform="matrix(11,0,0,11,684.6,317.2)" />
<use xlink:href="#f1_16" transform="matrix(11,0,0,11,690.3,317.2)" />
<use xlink:href="#f1_5" transform="matrix(11,0,0,11,697.7,317.2)" />
<use xlink:href="#f1_4" transform="matrix(11,0,0,11,705.1,317.2)" />
<use xlink:href="#f1_l" transform="matrix(11,0,0,11,709.8,317.2)" />
<use xlink:href="#f1_h" transform="matrix(11,0,0,11,719.2,317.2)" />
<use xlink:href="#f1_3" transform="matrix(11,0,0,11,723.8,317.2)" />
<use xlink:href="#f1_m" transform="matrix(11,0,0,11,729.4,317.2)" />
<use xlink:href="#f1_v" transform="matrix(11,0,0,11,736.9,317.2)" />
<use xlink:href="#f1_m" transform="matrix(11,0,0,11,745.3,317.2)" />
<use xlink:href="#f1_1b" transform="matrix(11,0,0,11,752.6,317.2)" />
<use xlink:href="#f1_m" transform="matrix(11,0,0,11,757.4,317.2)" />
<use xlink:href="#f1_3" transform="matrix(11,0,0,11,764.8,317.2)" />
<use xlink:href="#f1_2" transform="matrix(11,0,0,11,137.7,336.6)" />
<use xlink:href="#f1_a" transform="matrix(11,0,0,11,145.1,336.6)" />
<use xlink:href="#f1_1h" transform="matrix(11,0,0,11,158.2,336.6)" />
<use xlink:href="#f1_m" transform="matrix(11,0,0,11,168.5,336.6)" />
<use xlink:href="#f1_h" transform="matrix(11,0,0,11,175.9,336.6)" />
<use xlink:href="#f1_4" transform="matrix(11,0,0,11,180.5,336.6)" />
<use xlink:href="#f1_a" transform="matrix(11,0,0,11,185.2,336.6)" />
<use xlink:href="#f1_8" transform="matrix(11,0,0,11,193.6,336.6)" />
<use xlink:href="#f1_m" transform="matrix(11,0,0,11,202,336.6)" />
<use xlink:href="#f1_p" transform="matrix(11,0,0,11,209.5,336.6)" />
<use xlink:href="#f1_k" transform="matrix(11,0,0,11,222.6,336.6)" />
<use xlink:href="#f1_3" transform="matrix(11,0,0,11,229.9,336.6)" />
<use xlink:href="#f1_4" transform="matrix(11,0,0,11,235.6,336.6)" />
<use xlink:href="#f1_5" transform="matrix(11,0,0,11,240.3,336.6)" />
<use xlink:href="#f1_m" transform="matrix(11,0,0,11,247.6,336.6)" />
<use xlink:href="#f1_o" transform="matrix(11,0,0,11,255.1,336.6)" />
<use xlink:href="#f1_n" transform="matrix(11,0,0,11,264.1,336.6)" />
<use xlink:href="#f1_a" transform="matrix(11,0,0,11,276.1,336.6)" />
<use xlink:href="#f1_8" transform="matrix(11,0,0,11,284.6,336.6)" />
<use xlink:href="#f1_h" transform="matrix(11,0,0,11,297.7,336.6)" />
<use xlink:href="#f1_4" transform="matrix(11,0,0,11,302.4,336.6)" />
<use xlink:href="#f1_2" transform="matrix(11,0,0,11,307,336.6)" />
<use xlink:href="#f1_a" transform="matrix(11,0,0,11,314.4,336.6)" />
<use xlink:href="#f1_2" transform="matrix(11,0,0,11,322.8,336.6)" />
<use xlink:href="#f1_1g" transform="matrix(11,0,0,11,335,336.6)" />
<use xlink:href="#f1_f" transform="matrix(11,0,0,11,343.4,336.6)" />
<use xlink:href="#f1_2" transform="matrix(11,0,0,11,351.8,336.6)" />
<use xlink:href="#f1_5" transform="matrix(11,0,0,11,364,336.6)" />
<use xlink:href="#f1_8" transform="matrix(11,0,0,11,371.5,336.6)" />
<use xlink:href="#f1_a" transform="matrix(11,0,0,11,379.9,336.6)" />
<use xlink:href="#f1_8" transform="matrix(11,0,0,11,388.3,336.6)" />
<use xlink:href="#f1_5" transform="matrix(11,0,0,11,396.7,336.6)" />
<use xlink:href="#f1_2" transform="matrix(11,0,0,11,404.2,336.6)" />
<use xlink:href="#f1_3" transform="matrix(11,0,0,11,411.5,336.6)" />
<use xlink:href="#f1_l" transform="matrix(11,0,0,11,421.9,336.6)" />
<use xlink:href="#f1_m" transform="matrix(11,0,0,11,426.6,336.6)" />
<use xlink:href="#f1_5" transform="matrix(11,0,0,11,438.8,336.6)" />
<use xlink:href="#f1_f" transform="matrix(11,0,0,11,446.1,336.6)" />
<use xlink:href="#f1_l" transform="matrix(11,0,0,11,454.5,336.6)" />
<use xlink:href="#f1_h" transform="matrix(11,0,0,11,459.2,336.6)" />
<use xlink:href="#f1_f" transform="matrix(11,0,0,11,464,336.6)" />
<use xlink:href="#f1_3" transform="matrix(11,0,0,11,472.2,336.6)" />
<use xlink:href="#f1_m" transform="matrix(11,0,0,11,477.8,336.6)" />
<use xlink:href="#f1_e" transform="matrix(11,0,0,11,490,336.6)" />
<use xlink:href="#f1_2" transform="matrix(11,0,0,11,498.5,336.6)" />
<use xlink:href="#f1_l" transform="matrix(11,0,0,11,510.7,336.6)" />
<use xlink:href="#f1_m" transform="matrix(11,0,0,11,515.2,336.6)" />
<use xlink:href="#f1_w" transform="matrix(11,0,0,11,527.4,336.6)" />
<use xlink:href="#f1_2" transform="matrix(11,0,0,11,535.8,336.6)" />
<use xlink:href="#f1_a" transform="matrix(11,0,0,11,543.3,336.6)" />
<use xlink:href="#f1_h" transform="matrix(11,0,0,11,551.7,336.6)" />
<use xlink:href="#f1_2" transform="matrix(11,0,0,11,556.4,336.6)" />
<use xlink:href="#f1_7" transform="matrix(11,0,0,11,568.6,336.6)" />
<use xlink:href="#f1_g" transform="matrix(11,0,0,11,581.7,336.6)" />
<use xlink:href="#f1_m" transform="matrix(11,0,0,11,588.2,336.6)" />
<use xlink:href="#f1_v" transform="matrix(11,0,0,11,595.6,336.6)" />
<use xlink:href="#f1_2" transform="matrix(11,0,0,11,604,336.6)" />
<use xlink:href="#f1_3" transform="matrix(11,0,0,11,611.5,336.6)" />
<use xlink:href="#f1_1g" transform="matrix(11,0,0,11,621.8,336.6)" />
<use xlink:href="#f1_f" transform="matrix(11,0,0,11,630.2,336.6)" />
<use xlink:href="#f1_k" transform="matrix(11,0,0,11,638.6,336.6)" />
<use xlink:href="#f1_4" transform="matrix(11,0,0,11,650.8,336.6)" />
<use xlink:href="#f1_e" transform="matrix(11,0,0,11,655.4,336.6)" />
<use xlink:href="#f1_4" transform="matrix(11,0,0,11,663.8,336.6)" />
<use xlink:href="#f1_8" transform="matrix(11,0,0,11,668.6,336.6)" />
<use xlink:href="#f1_p" transform="matrix(11,0,0,11,676.8,336.6)" />
<use xlink:href="#f1_m" transform="matrix(11,0,0,11,689.9,336.6)" />
<use xlink:href="#f1_x" transform="matrix(11,0,0,11,702.1,336.6)" />
<use xlink:href="#f1_m" transform="matrix(11,0,0,11,710.5,336.6)" />
<use xlink:href="#f1_v" transform="matrix(11,0,0,11,718,336.6)" />
<use xlink:href="#f1_l" transform="matrix(11,0,0,11,726.4,336.6)" />
<use xlink:href="#f1_m" transform="matrix(11,0,0,11,731,336.6)" />
<use xlink:href="#f1_a" transform="matrix(11,0,0,11,738.5,336.6)" />
<use xlink:href="#f1_l" transform="matrix(11,0,0,11,751.6,336.6)" />
<use xlink:href="#f1_m" transform="matrix(11,0,0,11,756.3,336.6)" />
<use xlink:href="#f1_g" transform="matrix(11,0,0,11,763.7,336.6)" />
<use xlink:href="#f1_u" transform="matrix(11,0,0,11,137.7,355.8)" />
<use xlink:href="#f1_2" transform="matrix(11,0,0,11,146.1,355.8)" />
<use xlink:href="#f1_3" transform="matrix(11,0,0,11,153.5,355.8)" />
<use xlink:href="#f1_g" transform="matrix(11,0,0,11,159.1,355.8)" />
<use xlink:href="#f1_8" transform="matrix(11,0,0,11,165.7,355.8)" />
<use xlink:href="#f1_a" transform="matrix(11,0,0,11,174.1,355.8)" />
<use xlink:href="#f1_m" transform="matrix(11,0,0,11,182.4,355.8)" />
<use xlink:href="#f1_g" transform="matrix(11,0,0,11,189.8,355.8)" />
<use xlink:href="#f1_o" transform="matrix(11,0,0,11,196.4,355.8)" />
<use xlink:href="#f1_15" transform="matrix(11,0,0,11,137.7,375.2)" />
<use xlink:href="#f1_8" transform="matrix(11,0,0,11,148.8,375.2)" />
<use xlink:href="#f1_a" transform="matrix(11,0,0,11,157.2,375.2)" />
<use xlink:href="#f1_8" transform="matrix(11,0,0,11,165.6,375.2)" />
<use xlink:href="#f1_9" transform="matrix(11,0,0,11,174,375.2)" />
<use xlink:href="#f1_5" transform="matrix(11,0,0,11,181.5,375.2)" />
<use xlink:href="#f1_8" transform="matrix(11,0,0,11,188.9,375.2)" />
<use xlink:href="#f1_f" transform="matrix(11,0,0,11,202.7,375.2)" />
<use xlink:href="#f1_a" transform="matrix(11,0,0,11,211.1,375.2)" />
<use xlink:href="#f1_v" transform="matrix(11,0,0,11,224.6,375.2)" />
<use xlink:href="#f1_f" transform="matrix(11,0,0,11,233,375.2)" />
<use xlink:href="#f1_2" transform="matrix(11,0,0,11,241.4,375.2)" />
<use xlink:href="#f1_a" transform="matrix(11,0,0,11,248.9,375.2)" />
<use xlink:href="#f1_x" transform="matrix(11,0,0,11,262.6,375.2)" />
<use xlink:href="#f1_8" transform="matrix(11,0,0,11,271,375.2)" />
<use xlink:href="#f1_p" transform="matrix(11,0,0,11,279.3,375.2)" />
<use xlink:href="#f1_v" transform="matrix(11,0,0,11,292.4,375.2)" />
<use xlink:href="#f1_3" transform="matrix(11,0,0,11,300.8,375.2)" />
<use xlink:href="#f1_2" transform="matrix(11,0,0,11,306.4,375.2)" />
<use xlink:href="#f1_1g" transform="matrix(11,0,0,11,319.1,375.2)" />
<use xlink:href="#f1_f" transform="matrix(11,0,0,11,327.5,375.2)" />
<use xlink:href="#f1_2" transform="matrix(11,0,0,11,335.9,375.2)" />
<use xlink:href="#f1_h" transform="matrix(11,0,0,11,348.7,375.2)" />
<use xlink:href="#f1_3" transform="matrix(11,0,0,11,353.3,375.2)" />
<use xlink:href="#f1_m" transform="matrix(11,0,0,11,358.9,375.2)" />
<use xlink:href="#f1_v" transform="matrix(11,0,0,11,366.4,375.2)" />
<use xlink:href="#f1_m" transform="matrix(11,0,0,11,374.6,375.2)" />
<use xlink:href="#f1_1b" transform="matrix(11,0,0,11,382.1,375.2)" />
<use xlink:href="#f1_m" transform="matrix(11,0,0,11,386.8,375.2)" />
<use xlink:href="#f1_2" transform="matrix(11,0,0,11,399.4,375.2)" />
<use xlink:href="#f1_a" transform="matrix(11,0,0,11,406.9,375.2)" />
<use xlink:href="#f1_1s" transform="matrix(11,0,0,11,420.6,375.2)" />
<use xlink:href="#f1_2" transform="matrix(11,0,0,11,430,375.2)" />
<use xlink:href="#f1_3" transform="matrix(11,0,0,11,437.3,375.2)" />
<use xlink:href="#f1_i" transform="matrix(11,0,0,11,442.9,375.2)" />
<use xlink:href="#f1_u" transform="matrix(11,0,0,11,456.6,375.2)" />
<use xlink:href="#f1_m" transform="matrix(11,0,0,11,465,375.2)" />
<use xlink:href="#f1_3" transform="matrix(11,0,0,11,472.4,375.2)" />
<use xlink:href="#f1_m" transform="matrix(11,0,0,11,478,375.2)" />
<use xlink:href="#f1_f" transform="matrix(11,0,0,11,490.8,375.2)" />
<use xlink:href="#f1_a" transform="matrix(11,0,0,11,499.2,375.2)" />
<use xlink:href="#f1_m" transform="matrix(11,0,0,11,507.6,375.2)" />
<use xlink:href="#f1_2" transform="matrix(11,0,0,11,520.2,375.2)" />
<use xlink:href="#f1_p" transform="matrix(11,0,0,11,527.7,375.2)" />
<use xlink:href="#f1_u" transform="matrix(11,0,0,11,540.7,375.2)" />
<use xlink:href="#f1_3" transform="matrix(11,0,0,11,549.1,375.2)" />
<use xlink:href="#f1_2" transform="matrix(11,0,0,11,554.7,375.2)" />
<use xlink:href="#f1_g" transform="matrix(11,0,0,11,562.2,375.2)" />
<use xlink:href="#f1_m" transform="matrix(11,0,0,11,568.7,375.2)" />
<use xlink:href="#f1_e" transform="matrix(11,0,0,11,581.4,375.2)" />
<use xlink:href="#f1_2" transform="matrix(11,0,0,11,589.8,375.2)" />
<use xlink:href="#f1_5" transform="matrix(11,0,0,11,602.5,375.2)" />
<use xlink:href="#f1_8" transform="matrix(11,0,0,11,609.9,375.2)" />
<use xlink:href="#f1_a" transform="matrix(11,0,0,11,618.3,375.2)" />
<use xlink:href="#f1_g" transform="matrix(11,0,0,11,626.7,375.2)" />
<use xlink:href="#f1_h" transform="matrix(11,0,0,11,633.3,375.2)" />
<use xlink:href="#f1_3" transform="matrix(11,0,0,11,637.9,375.2)" />
<use xlink:href="#f1_f" transform="matrix(11,0,0,11,643.5,375.2)" />
<use xlink:href="#f1_5" transform="matrix(11,0,0,11,651.9,375.2)" />
<use xlink:href="#f1_5" transform="matrix(11,0,0,11,659.4,375.2)" />
<use xlink:href="#f1_4" transform="matrix(11,0,0,11,666.8,375.2)" />
<use xlink:href="#f1_1i" transform="matrix(11,0,0,11,671.5,375.2)" />
<use xlink:href="#f1_a" transform="matrix(11,0,0,11,680,375.2)" />
<use xlink:href="#f1_o" transform="matrix(11,0,0,11,688.2,375.2)" />
<use xlink:href="#f1_1m" transform="matrix(11,0,0,11,697.8,375.2)" />
<use xlink:href="#f1_l" transform="matrix(11,0,0,11,707.9,375.2)" />
<use xlink:href="#f1_g" transform="matrix(11,0,0,11,717.9,375.2)" />
<use xlink:href="#f1_4" transform="matrix(11,0,0,11,724.4,375.2)" />
<use xlink:href="#f1_2" transform="matrix(11,0,0,11,729.1,375.2)" />
<use xlink:href="#f1_p" transform="matrix(11,0,0,11,736.5,375.2)" />
<use xlink:href="#f1_u" transform="matrix(11,0,0,11,749.7,375.2)" />
<use xlink:href="#f1_3" transform="matrix(11,0,0,11,757.9,375.2)" />
<use xlink:href="#f1_2" transform="matrix(11,0,0,11,763.5,375.2)" />
<use xlink:href="#f1_h" transform="matrix(11,0,0,11,137.7,394.5)" />
<use xlink:href="#f1_4" transform="matrix(11,0,0,11,142.4,394.5)" />
<use xlink:href="#f1_2" transform="matrix(11,0,0,11,147,394.5)" />
<use xlink:href="#f1_a" transform="matrix(11,0,0,11,154.4,394.5)" />
<use xlink:href="#f1_2" transform="matrix(11,0,0,11,162.8,394.5)" />
<use xlink:href="#f1_u" transform="matrix(11,0,0,11,176.1,394.5)" />
<use xlink:href="#f1_3" transform="matrix(11,0,0,11,184.3,394.5)" />
<use xlink:href="#f1_4" transform="matrix(11,0,0,11,190,394.5)" />
<use xlink:href="#f1_g" transform="matrix(11,0,0,11,194.7,394.5)" />
<use xlink:href="#f1_m" transform="matrix(11,0,0,11,201.2,394.5)" />
<use xlink:href="#f1_7" transform="matrix(11,0,0,11,214.4,394.5)" />
<use xlink:href="#f1_h" transform="matrix(11,0,0,11,228.5,394.5)" />
<use xlink:href="#f1_4" transform="matrix(11,0,0,11,233.1,394.5)" />
<use xlink:href="#f1_2" transform="matrix(11,0,0,11,237.8,394.5)" />
<use xlink:href="#f1_a" transform="matrix(11,0,0,11,245.3,394.5)" />
<use xlink:href="#f1_2" transform="matrix(11,0,0,11,253.5,394.5)" />
<use xlink:href="#f1_1g" transform="matrix(11,0,0,11,266.8,394.5)" />
<use xlink:href="#f1_f" transform="matrix(11,0,0,11,275.2,394.5)" />
<use xlink:href="#f1_2" transform="matrix(11,0,0,11,283.6,394.5)" />
<use xlink:href="#f1_5" transform="matrix(11,0,0,11,296.7,394.5)" />
<use xlink:href="#f1_8" transform="matrix(11,0,0,11,304.2,394.5)" />
<use xlink:href="#f1_a" transform="matrix(11,0,0,11,312.6,394.5)" />
<use xlink:href="#f1_e" transform="matrix(11,0,0,11,321,394.5)" />
<use xlink:href="#f1_f" transform="matrix(11,0,0,11,329.4,394.5)" />
<use xlink:href="#f1_5" transform="matrix(11,0,0,11,337.8,394.5)" />
<use xlink:href="#f1_4" transform="matrix(11,0,0,11,345.1,394.5)" />
<use xlink:href="#f1_3" transform="matrix(11,0,0,11,349.8,394.5)" />
<use xlink:href="#f1_m" transform="matrix(11,0,0,11,361.3,394.5)" />
<use xlink:href="#f1_e" transform="matrix(11,0,0,11,374.4,394.5)" />
<use xlink:href="#f1_4" transform="matrix(11,0,0,11,382.8,394.5)" />
<use xlink:href="#f1_t" transform="matrix(11,0,0,11,387.4,394.5)" />
<use xlink:href="#f1_2" transform="matrix(11,0,0,11,393,394.5)" />
<use xlink:href="#f1_3" transform="matrix(11,0,0,11,400.5,394.5)" />
<use xlink:href="#f1_2" transform="matrix(11,0,0,11,406.1,394.5)" />
<use xlink:href="#f1_a" transform="matrix(11,0,0,11,413.5,394.5)" />
<use xlink:href="#f1_h" transform="matrix(11,0,0,11,421.8,394.5)" />
<use xlink:href="#f1_2" transform="matrix(11,0,0,11,426.5,394.5)" />
<use xlink:href="#f1_g" transform="matrix(11,0,0,11,434,394.5)" />
<use xlink:href="#f1_5" transform="matrix(11,0,0,11,446.2,394.5)" />
<use xlink:href="#f1_4" transform="matrix(11,0,0,11,453.6,394.5)" />
<use xlink:href="#f1_f" transform="matrix(11,0,0,11,458.4,394.5)" />
<use xlink:href="#f1_e" transform="matrix(11,0,0,11,466.8,394.5)" />
<use xlink:href="#f1_m" transform="matrix(11,0,0,11,475.2,394.5)" />
<use xlink:href="#f1_e" transform="matrix(11,0,0,11,482.6,394.5)" />
<use xlink:href="#f1_2" transform="matrix(11,0,0,11,490.9,394.5)" />
<use xlink:href="#f1_g" transform="matrix(11,0,0,11,498.3,394.5)" />
<use xlink:href="#f1_o" transform="matrix(11,0,0,11,504.9,394.5)" />
<use xlink:href="#f1_1m" transform="matrix(11,0,0,11,514.8,394.5)" />
<use xlink:href="#f1_l" transform="matrix(11,0,0,11,525,394.5)" />
<use xlink:href="#f1_e" transform="matrix(11,0,0,11,535.4,394.5)" />
<use xlink:href="#f1_4" transform="matrix(11,0,0,11,543.8,394.5)" />
<use xlink:href="#f1_5" transform="matrix(11,0,0,11,548.5,394.5)" />
<use xlink:href="#f1_2" transform="matrix(11,0,0,11,556,394.5)" />
<use xlink:href="#f1_1g" transform="matrix(11,0,0,11,569.1,394.5)" />
<use xlink:href="#f1_f" transform="matrix(11,0,0,11,577.5,394.5)" />
<use xlink:href="#f1_2" transform="matrix(11,0,0,11,585.9,394.5)" />
<use xlink:href="#f1_h" transform="matrix(11,0,0,11,599.1,394.5)" />
<use xlink:href="#f1_3" transform="matrix(11,0,0,11,603.7,394.5)" />
<use xlink:href="#f1_m" transform="matrix(11,0,0,11,609.4,394.5)" />
<use xlink:href="#f1_v" transform="matrix(11,0,0,11,616.8,394.5)" />
<use xlink:href="#f1_m" transform="matrix(11,0,0,11,625.1,394.5)" />
<use xlink:href="#f1_1b" transform="matrix(11,0,0,11,632.5,394.5)" />
<use xlink:href="#f1_m" transform="matrix(11,0,0,11,637.2,394.5)" />
<use xlink:href="#f1_3" transform="matrix(11,0,0,11,644.7,394.5)" />
<use xlink:href="#f1_2" transform="matrix(11,0,0,11,656,394.5)" />
<use xlink:href="#f1_a" transform="matrix(11,0,0,11,663.4,394.5)" />
<use xlink:href="#f1_1s" transform="matrix(11,0,0,11,677.5,394.5)" />
<use xlink:href="#f1_2" transform="matrix(11,0,0,11,686.8,394.5)" />
<use xlink:href="#f1_3" transform="matrix(11,0,0,11,694.3,394.5)" />
<use xlink:href="#f1_i" transform="matrix(11,0,0,11,699.9,394.5)" />
<use xlink:href="#f1_2" transform="matrix(11,0,0,11,714.1,394.5)" />
<use xlink:href="#f1_g" transform="matrix(11,0,0,11,721.4,394.5)" />
<use xlink:href="#f1_5" transform="matrix(11,0,0,11,733.7,394.5)" />
<use xlink:href="#f1_8" transform="matrix(11,0,0,11,741.2,394.5)" />
<use xlink:href="#f1_p" transform="matrix(11,0,0,11,749.4,394.5)" />
<use xlink:href="#f1_8" transform="matrix(11,0,0,11,762.6,394.5)" />
<use xlink:href="#f1_3" transform="matrix(11,0,0,11,137.7,413.9)" />
<use xlink:href="#f1_2" transform="matrix(11,0,0,11,143.3,413.9)" />
<use xlink:href="#f1_a" transform="matrix(11,0,0,11,150.7,413.9)" />
<use xlink:href="#f1_m" transform="matrix(11,0,0,11,159.1,413.9)" />
<use xlink:href="#f1_5" transform="matrix(11,0,0,11,166.5,413.9)" />
<use xlink:href="#f1_2" transform="matrix(11,0,0,11,173.9,413.9)" />
<use xlink:href="#f1_3" transform="matrix(11,0,0,11,181.4,413.9)" />
<use xlink:href="#f1_7" transform="matrix(11,0,0,11,193.6,413.9)" />
<use xlink:href="#f1_t" transform="matrix(11,0,0,11,208.5,413.9)" />
<use xlink:href="#f1_l" transform="matrix(11,0,0,11,214,413.9)" />
<use xlink:href="#f1_8" transform="matrix(11,0,0,11,218.7,413.9)" />
<use xlink:href="#f1_3" transform="matrix(11,0,0,11,227.1,413.9)" />
<use xlink:href="#f1_2" transform="matrix(11,0,0,11,232.8,413.9)" />
<use xlink:href="#f1_5" transform="matrix(11,0,0,11,240.2,413.9)" />
<use xlink:href="#f1_2" transform="matrix(11,0,0,11,247.6,413.9)" />
<use xlink:href="#f1_3" transform="matrix(11,0,0,11,255,413.9)" />
<use xlink:href="#f1_e" transform="matrix(11,0,0,11,267.2,413.9)" />
<use xlink:href="#f1_2" transform="matrix(11,0,0,11,275.6,413.9)" />
<use xlink:href="#f1_a" transform="matrix(11,0,0,11,289.6,413.9)" />
<use xlink:href="#f1_f" transform="matrix(11,0,0,11,298,413.9)" />
<use xlink:href="#f1_2" transform="matrix(11,0,0,11,306.4,413.9)" />
<use xlink:href="#f1_s" transform="matrix(11,0,0,11,313.9,413.9)" />
<use xlink:href="#f1_8" transform="matrix(11,0,0,11,322.3,413.9)" />
<use xlink:href="#f1_o" transform="matrix(11,0,0,11,330.5,413.9)" />
<use xlink:href="#f1_1m" transform="matrix(11,0,0,11,341.4,413.9)" />
<use xlink:href="#f1_l" transform="matrix(11,0,0,11,351.6,413.9)" />
<use xlink:href="#f1_2" transform="matrix(11,0,0,11,362.8,413.9)" />
<use xlink:href="#f1_g" transform="matrix(11,0,0,11,370.3,413.9)" />
<use xlink:href="#f1_h" transform="matrix(11,0,0,11,376.7,413.9)" />
<use xlink:href="#f1_m" transform="matrix(11,0,0,11,381.5,413.9)" />
<use xlink:href="#f1_v" transform="matrix(11,0,0,11,388.9,413.9)" />
<use xlink:href="#f1_l" transform="matrix(11,0,0,11,397.3,413.9)" />
<use xlink:href="#f1_2" transform="matrix(11,0,0,11,401.9,413.9)" />
<use xlink:href="#f1_5" transform="matrix(11,0,0,11,409.4,413.9)" />
<use xlink:href="#f1_2" transform="matrix(11,0,0,11,416.8,413.9)" />
<use xlink:href="#f1_f" transform="matrix(11,0,0,11,430.8,413.9)" />
<use xlink:href="#f1_a" transform="matrix(11,0,0,11,439.2,413.9)" />
<use xlink:href="#f1_m" transform="matrix(11,0,0,11,447.6,413.9)" />
<use xlink:href="#f1_s" transform="matrix(11,0,0,11,461.7,413.9)" />
<use xlink:href="#f1_4" transform="matrix(11,0,0,11,470.1,413.9)" />
<use xlink:href="#f1_e" transform="matrix(11,0,0,11,474.8,413.9)" />
<use xlink:href="#f1_m" transform="matrix(11,0,0,11,483,413.9)" />
<use xlink:href="#f1_a" transform="matrix(11,0,0,11,497.1,413.9)" />
<use xlink:href="#f1_f" transform="matrix(11,0,0,11,505.5,413.9)" />
<use xlink:href="#f1_2" transform="matrix(11,0,0,11,513.9,413.9)" />
<use xlink:href="#f1_s" transform="matrix(11,0,0,11,521.3,413.9)" />
<use xlink:href="#f1_m" transform="matrix(11,0,0,11,529.7,413.9)" />
<use xlink:href="#f1_2" transform="matrix(11,0,0,11,543.7,413.9)" />
<use xlink:href="#f1_a" transform="matrix(11,0,0,11,551.2,413.9)" />
<use xlink:href="#f1_1h" transform="matrix(11,0,0,11,566.1,413.9)" />
<use xlink:href="#f1_m" transform="matrix(11,0,0,11,576.4,413.9)" />
<use xlink:href="#f1_h" transform="matrix(11,0,0,11,583.7,413.9)" />
<use xlink:href="#f1_4" transform="matrix(11,0,0,11,588.4,413.9)" />
<use xlink:href="#f1_a" transform="matrix(11,0,0,11,593.2,413.9)" />
<use xlink:href="#f1_8" transform="matrix(11,0,0,11,601.6,413.9)" />
<use xlink:href="#f1_m" transform="matrix(11,0,0,11,610,413.9)" />
<use xlink:href="#f1_p" transform="matrix(11,0,0,11,617.3,413.9)" />
<use xlink:href="#f1_k" transform="matrix(11,0,0,11,630.4,413.9)" />
<use xlink:href="#f1_3" transform="matrix(11,0,0,11,637.9,413.9)" />
<use xlink:href="#f1_4" transform="matrix(11,0,0,11,643.5,413.9)" />
<use xlink:href="#f1_5" transform="matrix(11,0,0,11,648.1,413.9)" />
<use xlink:href="#f1_m" transform="matrix(11,0,0,11,655.5,413.9)" />
<use xlink:href="#f1_2" transform="matrix(11,0,0,11,669.6,413.9)" />
<use xlink:href="#f1_a" transform="matrix(11,0,0,11,677,413.9)" />
<use xlink:href="#f1_l" transform="matrix(11,0,0,11,692,413.9)" />
<use xlink:href="#f1_m" transform="matrix(11,0,0,11,696.7,413.9)" />
<use xlink:href="#f1_5" transform="matrix(11,0,0,11,710.6,413.9)" />
<use xlink:href="#f1_m" transform="matrix(11,0,0,11,718,413.9)" />
<use xlink:href="#f1_g" transform="matrix(11,0,0,11,725.5,413.9)" />
<use xlink:href="#f1_m" transform="matrix(11,0,0,11,732,413.9)" />
<use xlink:href="#f1_1g" transform="matrix(11,0,0,11,746,413.9)" />
<use xlink:href="#f1_f" transform="matrix(11,0,0,11,754.5,413.9)" />
<use xlink:href="#f1_2" transform="matrix(11,0,0,11,762.9,413.9)" />
<use xlink:href="#f1_2" transform="matrix(11,0,0,11,137.7,433.1)" />
<use xlink:href="#f1_l" transform="matrix(11,0,0,11,145.1,433.1)" />
<use xlink:href="#f1_4" transform="matrix(11,0,0,11,149.7,433.1)" />
<use xlink:href="#f1_w" transform="matrix(11,0,0,11,154.4,433.1)" />
<use xlink:href="#f1_2" transform="matrix(11,0,0,11,162.8,433.1)" />
<use xlink:href="#f1_o" transform="matrix(11,0,0,11,170.3,433.1)" />
</g>
<g fill="#0000FF" >
<use xlink:href="#f0_6" transform="matrix(12,0,0,12,723.6,491.5)" />
<use xlink:href="#f0_c" transform="matrix(12,0,0,12,736.1,491.5)" />
<use xlink:href="#f0_k" transform="matrix(12,0,0,12,741.5,491.5)" />
<use xlink:href="#f0_a" transform="matrix(12,0,0,12,749.3,491.5)" />
<use xlink:href="#f0_e" transform="matrix(12,0,0,12,760,491.5)" />
</g>
</g>
<path d="M723.1,493.3h49.3" class="g1_12" />
<g clip-path="url(#c1_12)">
<path d="M722.9,493.3h5.9" class="g1_12" />
</g>
<image preserveAspectRatio="none" x="720" y="182" width="61" height="62" xlink:href="img/1.png" />
<defs>
<path d="M179,0V190H336V0Zm0,600V790H336V600Z" 
id="f0_15"
transform="scale(0.001,-0.001)" />

<path d="M139,0V138c0,0,0,61,8,112c0,0,7,52,19,87c0,0,11,36,30,66c0,0,19,31,35,49c0,0,17,19,41,35c0,0,25,17,41,25c0,0,17,7,40,17L141,836H303L613,388c0,0,20,10,33,18c0,0,13,8,34,28c0,0,20,20,33,44c0,0,13,25,22,66c0,0,10,41,10,92V836H882V698c0,0,0,-61,-7,-112c0,0,-6,-52,-18,-88c0,0,-12,-36,-30,-66c0,0,-19,-30,-36,-49c0,0,-17,-18,-41,-34c0,0,-24,-17,-40,-25c0,0,-17,-8,-41,-17L882,0H720L409,448c0,0,-21,-11,-34,-19c0,0,-13,-8,-34,-27c0,0,-21,-20,-34,-44c0,0,-12,-25,-22,-66c0,0,-9,-41,-9,-92V0Z" 
id="f0_d"
transform="scale(0.001,-0.001)" />

<path d="M66,0V107H554V452c0,0,0,56,-4,93c0,0,-4,37,-18,75c0,0,-14,38,-40,60c0,0,-26,22,-71,36c0,0,-45,13,-110,13H66V836H312c0,0,91,0,157,-17c0,0,66,-17,109,-49c0,0,44,-32,69,-84c0,0,26,-52,36,-114c0,0,10,-62,10,-147V107H817V0Z" 
id="f0_f"
transform="scale(0.001,-0.001)" />

<path d="M154,0V454l138,56V0ZM722,0V454c0,0,0,161,-49,218c0,0,-48,57,-186,57H139V836H485c0,0,207,0,291,-93c0,0,83,-94,83,-318V0Z" 
id="f0_9"
transform="scale(0.001,-0.001)" />

<path d="M71,-141V-15L289,62L66,836H210L416,109c0,0,99,42,153,98c0,0,53,56,80,155c0,0,26,98,26,262V836H817V624c0,0,0,-88,-7,-154c0,0,-7,-67,-25,-132c0,0,-18,-66,-51,-116c0,0,-33,-51,-84,-98c0,0,-50,-48,-123,-87c0,0,-72,-39,-169,-74L71,-141Z" 
id="f0_l"
transform="scale(0.001,-0.001)" />

<path d="M522,-20c0,0,-196,0,-290,99c0,0,-94,100,-94,324V836H276V397c0,0,0,-86,16,-147c0,0,17,-60,50,-94c0,0,34,-34,77,-49c0,0,43,-15,103,-15c0,0,59,0,102,15c0,0,44,15,77,49c0,0,33,34,50,94c0,0,17,61,17,147c0,0,0,84,-8,143c0,0,-7,58,-25,105c0,0,-17,47,-51,69c0,0,-33,23,-83,23c0,0,-50,0,-119,-22V821c0,0,85,23,150,23c0,0,76,0,130,-30c0,0,53,-31,85,-90c0,0,31,-59,45,-138c0,0,13,-78,13,-183c0,0,0,-224,-93,-324c0,0,-94,-99,-290,-99Z" 
id="f0_w"
transform="scale(0.001,-0.001)" />

<path d="M156,-317V454l139,56V-317ZM505,0L806,729H139V835H967V753L650,0Z" 
id="f0_p"
transform="scale(0.001,-0.001)" />

<path d="M112,-5c0,0,-39,0,-97,11V113c0,0,48,-10,77,-10c0,0,53,0,70,42c0,0,17,43,17,164V729H50V836H501c0,0,107,0,179,-25c0,0,72,-25,112,-77c0,0,40,-51,57,-118c0,0,16,-67,16,-164V0H726V454c0,0,0,55,-3,92c0,0,-4,37,-17,75c0,0,-14,38,-38,59c0,0,-24,22,-65,36c0,0,-42,13,-102,13H318V309c0,0,0,-160,-46,-237C272,72,226,-5,112,-5Z" 
id="f0_e"
transform="scale(0.001,-0.001)" />

<path d="M585,0V426c0,0,0,54,-8,98c0,0,-8,44,-27,83c0,0,-19,40,-49,66c0,0,-30,26,-77,41c0,0,-47,15,-108,15H66V836H315c0,0,94,0,166,-20c0,0,71,-20,116,-54c0,0,46,-35,75,-88c0,0,28,-52,40,-112c0,0,12,-60,12,-137V0Z" 
id="f0_a"
transform="scale(0.001,-0.001)" />

<path d="M287,0L589,729H66v386H205V836l547,-1l-2,-82L433,0Z" 
id="f0_3"
transform="scale(0.001,-0.001)" />

<path d="M102,312V836H241V369L102,312Z" 
id="f0_7"
transform="scale(0.001,-0.001)" />

<path d="M114,0l60,312c0,0,2,12,8,39c0,0,6,27,7,37c0,0,2,11,5,30c0,0,2,19,4,33c0,0,1,15,1,31c0,0,0,48,-35,146c0,0,-35,98,-98,208H228c0,0,3,-8,27,-67c0,0,25,-58,41,-117c0,0,21,53,50,90c0,0,29,37,57,57c0,0,29,21,65,32c0,0,37,11,65,14c0,0,28,3,67,3c0,0,300,0,300,-396V0H480V106H761V452c0,0,0,146,-46,215c0,0,-45,70,-118,70c0,0,-134,0,-198,-119c0,0,-36,-68,-67,-222c0,0,-2,-10,-6,-27L253,0Z" 
id="f0_8"
transform="scale(0.001,-0.001)" />

<path d="M289,-14c0,0,-179,0,-179,205V649L20,668v33H233V200c0,0,0,-128,120,-128c0,0,92,0,173,23V649L420,668v33H649V52L738,33V0H533l-6,57C527,57,474,28,405,7c0,0,-69,-21,-116,-21Z" 
id="f1_f"
transform="scale(0.001,-0.001)" />

<path d="M439,0V33l93,19V500c0,0,0,62,-30,97c0,0,-31,36,-94,36c0,0,-67,0,-165,-22V52L338,33V0H35V33l84,19V649L35,668v33H235l7,-57c0,0,57,33,122,54c0,0,65,22,108,22c0,0,91,0,137,-53c0,0,47,-53,47,-154V52L741,33V0Z" 
id="f1_a"
transform="scale(0.001,-0.001)" />

<path d="M377,45c0,0,99,0,147,73c0,0,47,73,47,237c0,0,0,161,-47,233c0,0,-47,72,-147,72c0,0,-97,0,-141,-69c0,0,-44,-69,-44,-236c0,0,0,-169,45,-240c0,0,44,-70,140,-70Zm0,-59c0,0,-158,0,-238,94c0,0,-81,95,-81,274c0,0,0,178,81,272c0,0,80,94,244,94c0,0,160,0,241,-92c0,0,82,-92,82,-274c0,0,0,-368,-329,-368Z" 
id="f1_8"
transform="scale(0.001,-0.001)" />

<path d="M180,0L66,836H203L258,443c0,0,36,1,64,6c0,0,28,6,49,18c0,0,20,12,35,26c0,0,15,13,26,36c0,0,11,24,17,44c0,0,7,20,12,55c0,0,6,34,9,60c0,0,3,26,8,71c0,0,4,45,9,77H610c0,0,-13,-194,-31,-271c0,0,-31,-127,-111,-179c0,0,-71,-45,-196,-50L304,107c0,0,73,0,130,5c0,0,56,6,111,21c0,0,54,15,94,40c0,0,40,25,77,64c0,0,37,39,63,94c0,0,25,54,46,128c0,0,21,73,34,166c0,0,13,94,20,211h138c0,0,-14,-124,-29,-218c0,0,-16,-94,-39,-179c0,0,-22,-85,-50,-146c0,0,-28,-61,-68,-112c0,0,-39,-51,-87,-84C744,97,696,65,632,42C632,42,568,19,492,10C492,10,417,0,320,0Z" 
id="f0_4"
transform="scale(0.001,-0.001)" />

<path d="M543,-317V369c0,0,0,85,-8,143c0,0,-8,58,-27,101c0,0,-18,44,-51,69c0,0,-33,24,-80,36c0,0,-48,11,-117,11H66V836H257c0,0,125,0,205,-23c0,0,80,-23,130,-79c0,0,50,-56,70,-143c0,0,20,-86,20,-222V-317Z" 
id="f0_2"
transform="scale(0.001,-0.001)" />

<path d="M66,0V106H322c0,0,75,0,127,23c0,0,53,23,82,67c0,0,29,43,42,98c0,0,13,54,13,124c0,0,0,70,-13,124c0,0,-13,55,-42,98c0,0,-29,44,-82,67c0,0,-52,23,-127,23H66V836H322c0,0,87,0,157,-24c0,0,70,-24,115,-64c0,0,45,-40,74,-94c0,0,30,-55,43,-113c0,0,13,-59,13,-123c0,0,0,-64,-13,-123c0,0,-13,-58,-43,-113c0,0,-29,-54,-74,-94C594,88,549,48,479,24C479,24,409,0,322,0Z" 
id="f0_i"
transform="scale(0.001,-0.001)" />

<path d="M163,0V190H321V0Z" 
id="f0_j"
transform="scale(0.001,-0.001)" />

<path d="M139,-317V836H278V-317Z" 
id="f0_h"
transform="scale(0.001,-0.001)" />

<path d="M139,0V836H278V0Z" 
id="f0_c"
transform="scale(0.001,-0.001)" />

<path d="M66,0V106H564L66,836H228L516,413c0,0,3,2,9,6c0,0,17,13,27,21c0,0,10,8,26,27c0,0,17,20,26,40c0,0,9,21,16,54c0,0,7,34,7,75V836H764V698c0,0,0,-55,-7,-102c0,0,-7,-47,-16,-79c0,0,-10,-33,-27,-62c0,0,-18,-29,-32,-46c0,0,-14,-17,-37,-35c0,0,-22,-17,-36,-25c0,0,-13,-8,-36,-20L767,53V0Z" 
id="f0_b"
transform="scale(0.001,-0.001)" />

<path d="M736,107V473c0,0,0,147,-48,202c0,0,-49,54,-187,54H278V107ZM139,0V836H499c0,0,105,0,177,-22c0,0,72,-21,116,-69c0,0,44,-49,64,-119c0,0,19,-71,19,-174V0Z" 
id="f0_6"
transform="scale(0.001,-0.001)" />

<path d="M557,-14c0,0,-199,0,-298,89c0,0,-99,90,-99,255V941L32,960v40H432V960L304,941V341c0,0,0,-273,264,-273c0,0,144,0,220,68c0,0,77,68,77,202V941L730,960v40h341V960L943,941V344c0,0,0,-180,-99,-269c0,0,-99,-89,-287,-89Z" 
id="f1_n"
transform="scale(0.001,-0.001)" />

<path d="M249,-14c0,0,-71,0,-107,42c0,0,-35,42,-35,119V639H15v33l93,29l76,159h47V701H391V639H231V161c0,0,0,-48,22,-73c0,0,22,-24,57,-24c0,0,44,0,106,12V26C416,26,389,8,340,-2c0,0,-49,-12,-91,-12Z" 
id="f1_h"
transform="scale(0.001,-0.001)" />

<path d="M32,0V33L151,52V649L52,668v33H275V52L395,33V0ZM201,850c0,0,-32,0,-56,24c0,0,-24,24,-24,56c0,0,0,34,24,58c0,0,24,24,56,24c0,0,34,0,58,-24c0,0,24,-24,24,-58c0,0,0,-32,-24,-56c0,0,-24,-24,-58,-24Z" 
id="f1_4"
transform="scale(0.001,-0.001)" />

<path d="M495,413c0,0,0,133,-34,190c0,0,-34,57,-105,57c0,0,-78,0,-119,-63c0,0,-42,-62,-42,-184ZM374,-14c0,0,-163,0,-239,87c0,0,-75,88,-75,283c0,0,0,183,77,273c0,0,76,91,219,91c0,0,269,0,269,-306V353H194V340c0,0,0,-103,23,-160c0,0,22,-57,70,-87c0,0,47,-29,124,-29c0,0,40,0,96,6c0,0,55,7,91,15V43C598,43,562,20,500,3c0,0,-61,-17,-126,-17Z" 
id="f1_2"
transform="scale(0.001,-0.001)" />

<path d="M383,64c0,0,44,0,87,7c0,0,43,7,65,17V645c0,0,-67,13,-152,13c0,0,-194,0,-194,-309c0,0,0,-143,48,-214c0,0,47,-71,146,-71Zm56,-389v35l96,18V-77c0,0,0,73,7,124c0,0,-79,-61,-200,-61c0,0,-287,0,-287,362c0,0,0,180,81,276c0,0,81,96,237,96c0,0,84,0,166,-18l67,33h53V-272l77,-18v-35Z" 
id="f1_1g"
transform="scale(0.001,-0.001)" />

<path d="M383,64c0,0,85,0,152,28V645c0,0,-67,13,-152,13c0,0,-194,0,-194,-314c0,0,0,-141,48,-211c0,0,48,-69,146,-69ZM342,-14c0,0,-287,0,-287,358c0,0,0,184,82,280c0,0,81,96,239,96c0,0,81,0,163,-18c0,0,-4,25,-4,124v182l-118,18v34H659V52L745,33V0H548l-9,52c0,0,-84,-66,-197,-66Z" 
id="f1_e"
transform="scale(0.001,-0.001)" />

<path d="M278,-14c0,0,-52,0,-115,11c0,0,-63,10,-99,23V193H98L134,95c0,0,56,-50,146,-50c0,0,144,0,144,123c0,0,0,91,-114,130l-66,21c0,0,-75,25,-110,50c0,0,-34,26,-53,63c0,0,-18,36,-18,89c0,0,0,92,63,145c0,0,63,54,170,54c0,0,77,0,193,-23V544H454l-32,81c0,0,-39,35,-124,35c0,0,-61,0,-92,-30c0,0,-32,-30,-32,-80c0,0,0,-43,29,-72c0,0,28,-29,86,-48c0,0,110,-38,144,-55c0,0,33,-17,57,-42c0,0,23,-25,36,-57c0,0,13,-32,13,-79c0,0,0,-104,-66,-158c0,0,-66,-53,-195,-53Z" 
id="f1_g"
transform="scale(0.001,-0.001)" />

<path d="M399,-14c0,0,-341,0,-341,370c0,0,0,175,87,269c0,0,87,95,249,95c0,0,101,0,220,-23V501H573L541,625c0,0,-62,35,-149,35c0,0,-200,0,-200,-304c0,0,0,-158,61,-225c0,0,61,-67,189,-67c0,0,109,0,189,24V43C631,43,595,16,530,1c0,0,-64,-15,-131,-15Z" 
id="f1_5"
transform="scale(0.001,-0.001)" />

<path d="M284,67c0,0,51,0,88,12c0,0,37,12,74,30V358l-98,-3c0,0,-100,-4,-135,-39c0,0,-35,-35,-35,-117c0,0,0,-132,106,-132ZM233,-14c0,0,-179,0,-179,208c0,0,0,70,27,116c0,0,27,46,87,70c0,0,60,24,173,27l105,3V519c0,0,0,72,-26,107c0,0,-27,34,-82,34c0,0,-75,0,-137,-35L176,538H134V691c0,0,121,26,213,26c0,0,115,0,169,-47c0,0,54,-47,54,-144V52L657,33V0H465L451,70c0,0,-85,-84,-218,-84Z" 
id="f1_m"
transform="scale(0.001,-0.001)" />

<path d="M31,0V33l88,19V649L31,668v33H235l7,-87c0,0,44,37,121,71c0,0,76,35,121,35h11V530H463l-43,82c0,0,-37,0,-88,-10c0,0,-52,-10,-89,-26V52L363,33V0Z" 
id="f1_3"
transform="scale(0.001,-0.001)" />

<path d="M74,357V479H476V357Z" 
id="f0_12"
transform="scale(0.001,-0.001)" />

<path d="M139,0V836H485c0,0,206,0,290,-90c0,0,84,-89,84,-294V0H721V473c0,0,0,147,-49,202c0,0,-48,54,-186,54H277V0Z" 
id="f0_g"
transform="scale(0.001,-0.001)" />

<path d="M66,0V107H332V555c0,0,0,92,-37,133c0,0,-37,41,-116,41H85V836h94c0,0,153,0,223,-66c0,0,69,-66,69,-231V0Z" 
id="f0_n"
transform="scale(0.001,-0.001)" />

<path d="M342,-14L49,634L0,652v49H359V652L275,632L455,233L617,634l-82,18v49H764V652L713,637L433,-14Z" 
id="f2_1i"
transform="scale(0.001,-0.001)" />

<path d="M34,0V49l76,18V634L38,652v49H325V67L402,49V0ZM217,831c0,0,-48,0,-81,33c0,0,-34,33,-34,82c0,0,0,48,34,81c0,0,34,33,81,33c0,0,48,0,81,-33c0,0,33,-33,33,-81c0,0,0,-47,-33,-81c0,0,-32,-34,-81,-34Z" 
id="f2_n"
transform="scale(0.001,-0.001)" />

<path d="M416,68c0,0,60,0,124,32V628c0,0,-58,15,-118,15c0,0,-67,0,-104,-73c0,0,-38,-73,-38,-216c0,0,0,-139,36,-212c0,0,35,-74,100,-74ZM369,-14c0,0,-155,0,-231,88c0,0,-76,90,-76,274c0,0,0,182,82,277c0,0,81,95,236,95c0,0,82,0,165,-20c0,0,-5,24,-5,115V992l-72,18v50H756V67L833,49V0H562L547,40C547,40,505,13,483,4c0,0,-23,-7,-51,-12c0,0,-28,-6,-63,-6Z" 
id="f2_1n"
transform="scale(0.001,-0.001)" />

<path d="M345,75c0,0,50,0,110,26V351l-63,-2c0,0,-72,-3,-100,-38c0,0,-28,-35,-28,-113c0,0,0,-63,22,-93c0,0,23,-30,59,-30ZM266,-14c0,0,-217,0,-217,208c0,0,0,79,32,126c0,0,32,48,93,71c0,0,60,22,190,25l91,2V521c0,0,0,126,-104,126c0,0,-62,0,-140,-39L183,521H134V691c0,0,112,17,165,21c0,0,53,5,108,5c0,0,264,0,264,-194V67L741,49V0H483L466,54C466,54,408,14,361,0c0,0,-47,-14,-95,-14Z" 
id="f2_q"
transform="scale(0.001,-0.001)" />

<path d="M679,178V467c0,0,0,110,-32,150c0,0,-31,41,-120,41H385V178ZM139,0V836H525c0,0,220,0,311,-90c0,0,90,-90,90,-297V0Z" 
id="f3_c"
transform="scale(0.001,-0.001)" />

<path d="M102,250V836H349V351L102,250Z" 
id="f3_d"
transform="scale(0.001,-0.001)" />

<path d="M139,0V836H512c0,0,219,0,309,-90c0,0,90,-90,90,-297V0H665V467c0,0,0,110,-31,150c0,0,-32,41,-120,41H385V0Z" 
id="f3_g"
transform="scale(0.001,-0.001)" />

<path d="M122,-200c0,0,99,170,148,338c0,0,49,169,49,342c0,0,0,172,-49,340c0,0,-49,168,-148,340H241c0,0,112,-176,168,-345c0,0,55,-169,55,-335c0,0,0,-167,-55,-337c0,0,-56,-168,-168,-343Z" 
id="f0_v"
transform="scale(0.001,-0.001)" />

<path d="M360,-14L72,649L0,668v33H327V668L216,648L420,164L615,649L504,668v33H764V668L697,652L416,-14Z" 
id="f1_s"
transform="scale(0.001,-0.001)" />

<path d="M354,-200c0,0,-112,175,-167,343c0,0,-56,170,-56,337c0,0,0,166,55,335c0,0,55,169,168,345H473c0,0,-100,-172,-148,-340c0,0,-48,-168,-48,-340c0,0,0,-173,48,-342c0,0,49,-168,148,-338Z" 
id="f0_x"
transform="scale(0.001,-0.001)" />

<path d="M139,0V106H400c0,0,176,0,253,71c0,0,78,72,78,250c0,0,0,163,-80,233c0,0,-81,69,-250,69H278L277,564c0,0,-1,-54,26,-80c0,0,27,-25,82,-25c0,0,30,0,80,9V355c0,0,-61,-12,-111,-12c0,0,-100,0,-157,55c0,0,-58,55,-58,186V836H456c0,0,193,0,303,-109c0,0,110,-109,110,-309c0,0,0,-200,-110,-309C759,109,648,0,456,0Z" 
id="f0_m"
transform="scale(0.001,-0.001)" />

<path d="M26,0V54L154,74V926L26,945v55H878V746H810L786,908c0,0,-83,10,-241,10H389V551H651l23,111h67V355H674L651,468H389V82H578c0,0,193,0,252,12l43,185h68L927,0Z" 
id="f2_17"
transform="scale(0.001,-0.001)" />

<path d="M41,0V49l69,18V634L41,652v49H313l11,-61l50,26c0,0,105,54,188,54c0,0,125,0,167,-91c0,0,153,91,258,91c0,0,189,0,189,-207V67l71,-17V0H898V50l63,17V484c0,0,0,63,-24,98c0,0,-25,35,-74,35c0,0,-55,0,-119,-31c0,0,7,-32,7,-73V67L821,50V0H473V50l63,17V484c0,0,0,63,-25,98c0,0,-24,35,-73,35c0,0,-49,0,-113,-29V67L389,49V0Z" 
id="f2_12"
transform="scale(0.001,-0.001)" />

<path d="M438,65c0,0,131,0,131,293c0,0,0,279,-130,279c0,0,-69,0,-127,-29V80c0,0,60,-15,126,-15ZM20,-325v50l76,18V634L19,652v49H304l1,-36c0,0,80,55,194,55c0,0,146,0,218,-86c0,0,71,-86,71,-271c0,0,0,-183,-83,-280c0,0,-83,-97,-238,-97c0,0,-79,0,-160,19c0,0,5,-48,5,-109V-257l103,-18v-50Z" 
id="f2_r"
transform="scale(0.001,-0.001)" />

<path d="M41,0V49l91,18V634L41,652v49H336l8,-145c0,0,80,89,144,128c0,0,64,40,117,40h40V468H604l-45,94c0,0,-47,0,-106,-21c0,0,-60,-20,-105,-48V67L460,49V0Z" 
id="f2_o"
transform="scale(0.001,-0.001)" />

<path d="M434,423c0,0,0,101,-7,142c0,0,-6,40,-22,60c0,0,-16,19,-45,19c0,0,-44,0,-66,-48c0,0,-22,-49,-22,-173ZM389,-14c0,0,-172,0,-254,89c0,0,-83,90,-83,279c0,0,0,184,79,274c0,0,79,91,238,91c0,0,142,0,206,-76c0,0,64,-76,64,-237V345H271V333c0,0,0,-111,18,-158c0,0,18,-47,58,-72c0,0,40,-25,110,-25c0,0,66,0,166,22V42C623,42,582,18,517,1c0,0,-66,-15,-128,-15Z" 
id="f2_p"
transform="scale(0.001,-0.001)" />

<path d="M276,-14c0,0,-57,0,-125,13C151,-1,83,10,48,23V214H97l28,-98c0,0,26,-26,69,-44c0,0,42,-17,86,-17c0,0,65,0,97,28c0,0,32,28,32,71c0,0,0,41,-31,65c0,0,-30,25,-133,57c0,0,-108,34,-154,92c0,0,-45,58,-45,143c0,0,0,95,71,152c0,0,71,57,183,57c0,0,77,0,207,-22V518H457l-24,82c0,0,-21,22,-60,35c0,0,-40,14,-75,14c0,0,-53,0,-79,-22c0,0,-26,-22,-26,-59c0,0,0,-40,32,-65c0,0,32,-26,132,-55c0,0,109,-34,155,-89c0,0,45,-55,45,-137c0,0,0,-117,-72,-177c0,0,-72,-59,-209,-59Z" 
id="f2_1l"
transform="scale(0.001,-0.001)" />

<path d="M425,-14c0,0,-187,0,-280,90c0,0,-93,90,-93,276c0,0,0,115,42,198c0,0,43,82,121,126c0,0,78,44,182,44c0,0,104,0,227,-26V486H571L539,609c0,0,-25,19,-50,26c0,0,-24,7,-65,7c0,0,-44,0,-79,-35c0,0,-36,-35,-56,-98c0,0,-20,-64,-20,-153c0,0,0,-150,47,-214c0,0,47,-64,148,-64c0,0,103,0,176,21V42C640,42,606,15,547,0c0,0,-59,-14,-122,-14Z" 
id="f2_l"
transform="scale(0.001,-0.001)" />

<path d="M379,60c0,0,59,0,84,64c0,0,24,65,24,231c0,0,0,164,-24,227c0,0,-24,63,-84,63c0,0,-57,0,-80,-60c0,0,-22,-61,-22,-230c0,0,0,-173,23,-234c0,0,22,-61,79,-61Zm-2,-74c0,0,-161,0,-240,91c0,0,-79,91,-79,277c0,0,0,186,80,276c0,0,81,90,245,90c0,0,167,0,245,-93c0,0,78,-93,78,-273c0,0,0,-188,-81,-278c0,0,-81,-90,-248,-90Z" 
id="f2_k"
transform="scale(0.001,-0.001)" />

<path d="M41,0V49l69,18V634L41,652v49H313l11,-61l50,26c0,0,105,54,188,54c0,0,194,0,194,-207V67L827,49V0H478V49l63,18V484c0,0,0,63,-27,98c0,0,-26,35,-75,35c0,0,-57,0,-114,-25V67L389,49V0Z" 
id="f2_11"
transform="scale(0.001,-0.001)" />

<path d="M327,-14c0,0,-101,0,-156,45c0,0,-55,45,-55,131V624H25v48l108,29l87,159H332V701H480V624H332V176c0,0,0,-49,20,-73c0,0,20,-25,53,-25c0,0,40,0,97,12V26c0,0,-22,-15,-76,-27c0,0,-55,-13,-99,-13Z" 
id="f2_s"
transform="scale(0.001,-0.001)" />

<path d="M287,-18c0,0,-194,0,-194,206V634L23,652v49H309V217c0,0,0,-63,26,-98c0,0,27,-35,76,-35c0,0,57,0,113,25V634l-64,18v49H740V67L809,49V0H536L526,61L475,35c0,0,-104,-53,-188,-53Z" 
id="f2_14"
transform="scale(0.001,-0.001)" />

<path d="M379,60c0,0,59,0,84,64c0,0,24,65,24,230c0,0,0,164,-24,228c0,0,-24,63,-84,63c0,0,-57,0,-80,-61c0,0,-22,-60,-22,-230c0,0,0,-172,23,-233c0,0,22,-61,79,-61Zm-2,-74c0,0,-161,0,-240,90c0,0,-79,92,-79,278c0,0,0,186,80,276c0,0,81,90,245,90c0,0,167,0,245,-93c0,0,78,-93,78,-273c0,0,0,-188,-81,-279c0,0,-81,-89,-248,-89ZM280,834v25l124,203H616v-28L344,834Z" 
id="f2_1u"
transform="scale(0.001,-0.001)" />

<path d="M433,-292v111H265V-69H713V-181H545V-292Z" 
id="f0_1g"
transform="scale(0.001,-0.001)" />

<path d="M433,-329v111H545V-329Zm-93,185V-32H452V-144Zm186,0V-32H638V-144Z" 
id="f0_1j"
transform="scale(0.001,-0.001)" />

<path d="M431,0V33L535,52V499c0,0,0,62,-32,96c0,0,-32,33,-95,33c0,0,-66,0,-163,-22V52L350,33V0H32V33l89,19V649L32,668v33H237l6,-57c0,0,56,32,119,54c0,0,62,22,110,22c0,0,52,0,95,-20c0,0,44,-19,66,-62c0,0,57,32,134,57c0,0,77,25,128,25c0,0,179,0,179,-207V52l90,-19V0H846V33L950,52V499c0,0,0,129,-119,129c0,0,-19,0,-45,-3c0,0,-26,-3,-52,-7c0,0,-25,-4,-49,-8c0,0,-23,-5,-39,-8c0,0,13,-41,13,-89V52L764,33V0Z" 
id="f1_p"
transform="scale(0.001,-0.001)" />

<path d="M382,45c0,0,188,0,188,314c0,0,0,143,-47,213c0,0,-46,69,-141,69c0,0,-87,0,-146,-24V58c0,0,67,-13,146,-13ZM25,-325v35l88,18V649L34,668v33H231l1,-41c0,0,31,27,84,43c0,0,53,17,107,17c0,0,134,0,208,-94c0,0,73,-93,73,-267c0,0,0,-178,-80,-276c0,0,-80,-97,-232,-97c0,0,-84,0,-160,16c0,0,4,-53,4,-84V-272l123,-18v-35Z" 
id="f1_u"
transform="scale(0.001,-0.001)" />

<path d="M138,-7c0,0,-34,0,-72,10V129c0,0,25,-8,52,-8c0,0,33,0,58,5c0,0,26,5,58,24c0,0,33,20,53,54c0,0,21,34,36,97c0,0,15,64,15,151c0,0,0,113,-19,173c0,0,-19,60,-56,82c0,0,-38,22,-107,22H89V836h72c0,0,165,0,240,-91c0,0,76,-91,76,-293c0,0,0,-107,26,-227c0,0,25,-119,83,-225H437c0,0,-43,101,-62,184c0,0,-24,-60,-51,-99c0,0,-26,-38,-56,-58C268,27,239,7,209,0c0,0,-30,-7,-71,-7Z" 
id="f0_k"
transform="scale(0.001,-0.001)" />

<path d="M376,50c0,0,103,0,149,80c0,0,46,81,46,240c0,0,0,137,-47,204c0,0,-48,67,-148,67c0,0,-44,0,-87,-7c0,0,-44,-8,-63,-17V62c0,0,63,-12,150,-12Zm3,-64c0,0,-64,0,-141,14c0,0,-78,14,-136,37v971L0,1026v34H226V809c0,0,0,-40,-4,-148c0,0,74,59,188,59c0,0,143,0,219,-87c0,0,77,-87,77,-263c0,0,0,-189,-84,-287c0,0,-84,-97,-243,-97Z" 
id="f1_v"
transform="scale(0.001,-0.001)" />

<path d="M495,413c0,0,0,133,-34,190c0,0,-34,57,-105,57c0,0,-78,0,-119,-62c0,0,-42,-63,-42,-185ZM374,-14c0,0,-163,0,-239,87c0,0,-75,88,-75,283c0,0,0,183,77,274c0,0,76,90,219,90c0,0,269,0,269,-306V353H194V339c0,0,0,-103,23,-160c0,0,22,-57,70,-86c0,0,47,-30,124,-30c0,0,40,0,96,6c0,0,55,7,91,15V43C598,43,562,19,500,2c0,0,-61,-16,-126,-16ZM285,835v24l146,203H590v-27L326,835Z" 
id="f1_k"
transform="scale(0.001,-0.001)" />

<path d="M31,0V33L150,52v956L31,1026v34H274V52L394,33V0Z" 
id="f1_l"
transform="scale(0.001,-0.001)" />

<path d="M495,0V729H66V836H781V729H634V0Z" 
id="f0_q"
transform="scale(0.001,-0.001)" />

<path d="M410,-14c0,0,-80,0,-162,14c0,0,-81,14,-144,38V270h48L178,134c0,0,28,-35,95,-62c0,0,68,-27,134,-27c0,0,104,0,163,53c0,0,58,54,58,148c0,0,0,54,-23,89c0,0,-22,35,-59,59c0,0,-37,24,-84,41c0,0,-47,17,-97,34c0,0,-49,17,-96,38c0,0,-47,21,-84,53c0,0,-37,32,-60,79c0,0,-23,48,-23,117c0,0,0,119,90,187c0,0,89,68,248,68c0,0,121,0,263,-32V771H654L628,893c0,0,-76,55,-188,55c0,0,-100,0,-156,-40c0,0,-56,-41,-56,-112c0,0,0,-49,22,-81c0,0,23,-32,60,-55c0,0,37,-22,84,-39c0,0,48,-16,97,-34c0,0,50,-17,97,-39c0,0,48,-22,85,-56c0,0,36,-34,59,-83c0,0,23,-49,23,-120c0,0,0,-145,-89,-224c0,0,-89,-79,-256,-79Z" 
id="f1_18"
transform="scale(0.001,-0.001)" />

<path d="M536,63c0,0,127,0,191,54c0,0,63,54,63,168c0,0,0,105,-70,154c0,0,-70,49,-225,49H316V67c0,0,103,-4,220,-4ZM480,555c0,0,121,0,178,48c0,0,57,48,57,155c0,0,0,91,-58,133c0,0,-57,42,-186,42H316V555ZM554,-4L235,0H44V40L172,60V941L44,960v40H501c0,0,191,0,279,-56c0,0,88,-56,88,-179c0,0,0,-88,-55,-149c0,0,-54,-62,-151,-83c0,0,135,-14,209,-79c0,0,73,-65,73,-166c0,0,0,-144,-99,-219C845,69,745,-4,554,-4Z" 
id="f1_1q"
transform="scale(0.001,-0.001)" />

<path d="M148,-329c0,0,-58,0,-114,13v151H69l24,-71c0,0,23,-17,64,-17c0,0,39,0,72,22c0,0,33,23,60,67c0,0,27,44,68,157L90,649L19,668v33H344V668L233,648L423,158L606,649L497,668v33H758V668L685,652L411,-43c0,0,-48,-124,-84,-177c0,0,-36,-54,-79,-82c0,0,-44,-27,-100,-27Z" 
id="f1_7"
transform="scale(0.001,-0.001)" />

<path d="M442,0V33l93,19V504c0,0,0,129,-124,129c0,0,-70,0,-168,-22V52L338,33V0H31V33l88,19v956L15,1026v34H243V756c0,0,0,-77,-5,-112c0,0,54,31,122,53c0,0,68,23,115,23c0,0,91,0,137,-53c0,0,47,-53,47,-154V52L744,33V0Z" 
id="f1_x"
transform="scale(0.001,-0.001)" />

<path d="M55,0V40L184,60V941L55,960v40H455V960L327,941V60L455,40V0Z" 
id="f1_b"
transform="scale(0.001,-0.001)" />

<path d="M191,-20c0,0,-39,0,-65,25c0,0,-25,27,-25,64c0,0,0,38,26,64c0,0,26,26,64,26c0,0,38,0,64,-26c0,0,26,-26,26,-64c0,0,0,-37,-25,-64c0,0,-26,-25,-65,-25Z" 
id="f1_o"
transform="scale(0.001,-0.001)" />

<path d="M377,44c0,0,99,0,147,73c0,0,47,73,47,237c0,0,0,161,-47,234c0,0,-47,72,-147,72c0,0,-97,0,-141,-69c0,0,-44,-70,-44,-237c0,0,0,-169,45,-239c0,0,44,-71,140,-71Zm0,-58c0,0,-158,0,-238,94c0,0,-81,95,-81,274c0,0,0,178,81,272c0,0,80,94,244,94c0,0,160,0,241,-92c0,0,82,-92,82,-274c0,0,0,-368,-329,-368ZM301,835v24l147,203H606v-27L342,835Z" 
id="f1_1i"
transform="scale(0.001,-0.001)" />

<path d="M577,-14c0,0,-243,0,-379,132C198,118,63,250,63,488c0,0,0,258,130,391c0,0,131,132,387,132c0,0,156,0,335,-38l5,-218H871L848,884c0,0,-52,32,-121,50c0,0,-69,17,-141,17c0,0,-191,0,-279,-112c0,0,-88,-113,-88,-349c0,0,0,-217,92,-332c0,0,92,-115,268,-115c0,0,85,0,160,20c0,0,76,21,120,55l27,149h49L930,32c0,0,-164,-46,-353,-46Z" 
id="f1_15"
transform="scale(0.001,-0.001)" />

<path d="M44,0V40L172,60V941L44,960v40H471V960L316,941V65H513c0,0,159,0,234,14l46,208h48L828,0Z" 
id="f1_1h"
transform="scale(0.001,-0.001)" />

<path d="M394,460c0,0,126,0,186,57c0,0,60,57,60,187c0,0,0,123,-57,176c0,0,-58,53,-194,53H316V460ZM54,0V40L172,60V941L44,960v40H421c0,0,368,0,368,-295c0,0,0,-153,-93,-233c0,0,-93,-80,-267,-80H316V60L475,40V0Z" 
id="f1_1s"
transform="scale(0.001,-0.001)" />

<path d="M64,0V34L168,59V639H47v36l121,29v49c0,0,0,155,61,239c0,0,62,84,173,84c0,0,58,0,107,-15V908H472l-33,92c0,0,-26,16,-62,16c0,0,-47,0,-66,-42c0,0,-19,-42,-19,-157V701H478V639H292V59L443,34V0Z" 
id="f1_t"
transform="scale(0.001,-0.001)" />

<path d="M284,67c0,0,51,0,88,12c0,0,37,11,74,29V357l-98,-3c0,0,-100,-3,-135,-38c0,0,-35,-36,-35,-118c0,0,0,-131,106,-131ZM233,-14c0,0,-179,0,-179,208c0,0,0,70,27,116c0,0,27,46,87,70c0,0,60,24,173,27l105,3V519c0,0,0,73,-26,107c0,0,-27,34,-82,34c0,0,-75,0,-137,-35L176,538H134V691c0,0,121,26,213,26c0,0,115,0,169,-47c0,0,54,-47,54,-144V52L657,34V0H465L451,70c0,0,-85,-84,-218,-84Zm22,849v24l146,203H560v-27L296,835Z" 
id="f1_16"
transform="scale(0.001,-0.001)" />

<path d="M64,-325c0,0,-46,0,-107,14v148H-8l19,-81c0,0,25,-21,62,-21c0,0,44,0,67,47c0,0,22,47,22,152V649L57,668v33H286V-28c0,0,0,-146,-57,-221c0,0,-56,-76,-165,-76ZM213,850c0,0,-34,0,-58,24c0,0,-24,24,-24,56c0,0,0,34,24,58c0,0,24,24,58,24c0,0,32,0,56,-24c0,0,24,-24,24,-58c0,0,0,-32,-24,-56c0,0,-24,-24,-56,-24Z" 
id="f1_1b"
transform="scale(0.001,-0.001)" />

<path d="M359,-270c0,0,124,0,192,46c0,0,67,47,67,129c0,0,0,43,-26,67c0,0,-26,24,-79,24H242c0,0,-32,-27,-51,-69c0,0,-20,-41,-20,-77c0,0,0,-64,46,-92c0,0,46,-28,142,-28Zm11,561c0,0,81,0,115,47c0,0,34,47,34,141c0,0,0,100,-35,142c0,0,-35,42,-113,42c0,0,-78,0,-114,-43c0,0,-37,-42,-37,-141c0,0,0,-98,36,-143c0,0,36,-45,114,-45ZM359,-329c0,0,-143,0,-218,44c0,0,-75,43,-75,125c0,0,0,39,27,78c0,0,26,38,98,89c0,0,-43,14,-72,48c0,0,-29,35,-29,74L208,262c0,0,-118,55,-118,217c0,0,0,115,73,178c0,0,73,63,211,63c0,0,28,0,71,-6c0,0,44,-6,67,-13l165,83l26,-32L599,644c0,0,50,-56,50,-165c0,0,0,-120,-72,-182c0,0,-73,-62,-208,-62c0,0,-62,0,-114,11L208,148c0,0,2,-13,29,-24c0,0,27,-12,67,-12H512c0,0,113,0,168,-49c0,0,55,-49,55,-134c0,0,0,-79,-44,-137c0,0,-43,-58,-128,-90c0,0,-84,-31,-204,-31Z" 
id="f1_w"
transform="scale(0.001,-0.001)" />

<path d="M41,0V34L426,641H261c0,0,-42,0,-80,-7c0,0,-39,-7,-54,-19L104,515H69V701H586V665L201,60H407c0,0,42,0,89,10c0,0,47,10,66,25l39,147h35L617,0Z" 
id="f1_9"
transform="scale(0.001,-0.001)" />

<path d="M289,-14c0,0,-179,0,-179,205V649L20,668v33H233V200c0,0,0,-128,120,-128c0,0,92,0,173,23V649L420,668v33H649V52L738,34V0H533l-6,57C527,57,474,28,405,6c0,0,-69,-20,-116,-20Zm24,849v24l147,203H618v-27L354,835Z" 
id="f1_i"
transform="scale(0.001,-0.001)" />

<path d="M44,0V40L172,60V941L44,961v39H794V761H745L721,923c0,0,-83,10,-241,10H316V542H586l23,120h48V354H609L586,475H316V67H513c0,0,193,0,252,12l43,185h49L843,0ZM351,1084v25l146,202H656v-27L392,1084Z" 
id="f1_1m"
transform="scale(0.001,-0.001)" />


</defs>
</svg>