<?xml version="1.0" encoding="UTF-8" standalone="no"?>
<!DOCTYPE svg PUBLIC "-//W3C//DTD SVG 1.1//EN"
"http://www.w3.org/Graphics/SVG/1.1/DTD/svg11.dtd">
<svg viewBox="0 0 909 1286" version="1.1" xmlns="http://www.w3.org/2000/svg" xmlns:xlink="http://www.w3.org/1999/xlink">
<defs>
<clipPath id="c0_3"><path d="M0,1286.2V0H909.4V1286.2Z" /></clipPath>
<style type="text/css"><![CDATA[
.g0_3{
fill: #D8D8D8;
}
.g1_3{
fill: none;
stroke: #000000;
stroke-width: 0.7638889;
stroke-linecap: butt;
stroke-linejoin: round;
}
]]></style>
</defs>
<path fill-rule="evenodd" d="M226.7,664.5H421.6V642.4H226.7v22.1Z" class="g0_3" />
<path fill-rule="evenodd" d="M421.7,664.5H616.4V642.4H421.7v22.1Z" class="g0_3" />
<path fill-rule="evenodd" d="M616.5,664.5H771.9V642.4H616.5v22.1Z" class="g0_3" />
<path fill-rule="evenodd" d="M118.4,684.7H226.6V664.6H118.4v20.1Z" class="g0_3" />
<path fill-rule="evenodd" d="M118.4,704.7H226.6V684.8H118.4v19.9Z" class="g0_3" />
<path fill-rule="evenodd" d="M118.4,724.9H226.6V704.8H118.4v20.1Z" class="g0_3" />
<path fill-rule="evenodd" d="M118.4,744.9H226.6v-20H118.4v20Z" class="g0_3" />
<path fill-rule="evenodd" d="M118.4,765H226.6V744.9H118.4V765Z" class="g0_3" />
<path fill-rule="evenodd" d="M229.6,1024.9H338V983.6H229.6v41.3Z" class="g0_3" />
<path fill-rule="evenodd" d="M338.1,1024.9H446.5V983.6H338.1v41.3Z" class="g0_3" />
<path fill-rule="evenodd" d="M446.6,1024.9H555V983.6H446.6v41.3Z" class="g0_3" />
<path fill-rule="evenodd" d="M555,1024.9H663.6V983.6H555v41.3Z" class="g0_3" />
<path fill-rule="evenodd" d="M663.7,1024.9H771.9V983.6H663.7v41.3Z" class="g0_3" />
<path fill-rule="evenodd" d="M121.2,1045.1H229.5V1025H121.2v20.1Z" class="g0_3" />
<path fill-rule="evenodd" d="M121.2,1065.1H229.5v-19.9H121.2v19.9Z" class="g0_3" />
<path fill-rule="evenodd" d="M121.2,1085.3H229.5v-20.1H121.2v20.1Z" class="g0_3" />
<path fill-rule="evenodd" d="M121.2,1105.3H229.5v-20H121.2v20Z" class="g0_3" />
<path fill-rule="evenodd" d="M121.2,1125.4H229.5v-20.1H121.2v20.1Z" class="g0_3" />
<path fill-rule="evenodd" d="M226.7,664.5H421.6V642.4H226.7v22.1Z" class="g0_3" />
<path fill-rule="evenodd" d="M421.7,664.5H616.4V642.4H421.7v22.1Z" class="g0_3" />
<path fill-rule="evenodd" d="M616.5,664.5H771.9V642.4H616.5v22.1Z" class="g0_3" />
<path fill-rule="evenodd" d="M118.4,684.7H226.6V664.6H118.4v20.1Z" class="g0_3" />
<path fill-rule="evenodd" d="M118.4,704.7H226.6V684.8H118.4v19.9Z" class="g0_3" />
<path fill-rule="evenodd" d="M118.4,724.9H226.6V704.8H118.4v20.1Z" class="g0_3" />
<path fill-rule="evenodd" d="M118.4,744.9H226.6v-20H118.4v20Z" class="g0_3" />
<path fill-rule="evenodd" d="M118.4,765H226.6V744.9H118.4V765Z" class="g0_3" />
<path fill-rule="evenodd" d="M229.6,1024.9H338V983.6H229.6v41.3Z" class="g0_3" />
<path fill-rule="evenodd" d="M338.1,1024.9H446.5V983.6H338.1v41.3Z" class="g0_3" />
<path fill-rule="evenodd" d="M446.6,1024.9H555V983.6H446.6v41.3Z" class="g0_3" />
<path fill-rule="evenodd" d="M555,1024.9H663.6V983.6H555v41.3Z" class="g0_3" />
<path fill-rule="evenodd" d="M663.7,1024.9H771.9V983.6H663.7v41.3Z" class="g0_3" />
<path fill-rule="evenodd" d="M121.2,1045.1H229.5V1025H121.2v20.1Z" class="g0_3" />
<path fill-rule="evenodd" d="M121.2,1065.1H229.5v-19.9H121.2v19.9Z" class="g0_3" />
<path fill-rule="evenodd" d="M121.2,1085.3H229.5v-20.1H121.2v20.1Z" class="g0_3" />
<path fill-rule="evenodd" d="M121.2,1105.3H229.5v-20H121.2v20Z" class="g0_3" />
<path fill-rule="evenodd" d="M121.2,1125.4H229.5v-20.1H121.2v20.1Z" class="g0_3" />
<g clip-path="url(#c0_3)">
<g fill="#000000" >
<use xlink:href="#f0_18" transform="matrix(11,0,0,11,202.7,125.7)" />
<use xlink:href="#f0_m" transform="matrix(11,0,0,11,209.3,125.7)" />
<use xlink:href="#f0_3" transform="matrix(11,0,0,11,217.5,125.7)" />
<use xlink:href="#f0_8" transform="matrix(11,0,0,11,225,125.7)" />
<use xlink:href="#f0_19" transform="matrix(11,0,0,11,237.7,125.7)" />
<use xlink:href="#f0_7" transform="matrix(11,0,0,11,249.7,125.7)" />
<use xlink:href="#f0_3" transform="matrix(11,0,0,11,254.5,125.7)" />
<use xlink:href="#f0_n" transform="matrix(11,0,0,11,261.9,125.7)" />
<use xlink:href="#f0_15" transform="matrix(11,0,0,11,274.4,125.7)" />
<use xlink:href="#f0_15" transform="matrix(11,0,0,11,282.8,125.7)" />
<use xlink:href="#f0_15" transform="matrix(11,0,0,11,291.3,125.7)" />
<use xlink:href="#f0_15" transform="matrix(11,0,0,11,299.7,125.7)" />
<use xlink:href="#f0_15" transform="matrix(11,0,0,11,308.1,125.7)" />
<use xlink:href="#f0_15" transform="matrix(11,0,0,11,316.5,125.7)" />
<use xlink:href="#f0_15" transform="matrix(11,0,0,11,324.9,125.7)" />
<use xlink:href="#f0_15" transform="matrix(11,0,0,11,333.3,125.7)" />
<use xlink:href="#f0_15" transform="matrix(11,0,0,11,341.7,125.7)" />
<use xlink:href="#f0_i" transform="matrix(11,0,0,11,354.3,125.7)" />
<use xlink:href="#f0_3" transform="matrix(11,0,0,11,367.3,125.7)" />
<use xlink:href="#f0_c" transform="matrix(11,0,0,11,374.8,125.7)" />
<use xlink:href="#f0_e" transform="matrix(11,0,0,11,380.3,125.7)" />
<use xlink:href="#f0_8" transform="matrix(11,0,0,11,385,125.7)" />
<use xlink:href="#f0_6" transform="matrix(11,0,0,11,393.4,125.7)" />
<use xlink:href="#f0_c" transform="matrix(11,0,0,11,400.9,125.7)" />
<use xlink:href="#f0_9" transform="matrix(11,0,0,11,406.5,125.7)" />
<use xlink:href="#f0_13" transform="matrix(11,0,0,11,414.8,125.7)" />
<use xlink:href="#f1_m" transform="matrix(12,0,0,12,606.5,127.1)" />
<use xlink:href="#f1_q" transform="matrix(12,0,0,12,612.3,127.1)" />
<use xlink:href="#f1_9" transform="matrix(12,0,0,12,616.4,127.1)" />
<use xlink:href="#f1_l" transform="matrix(12,0,0,12,628.7,127.1)" />
<use xlink:href="#f1_q" transform="matrix(12,0,0,12,641,127.1)" />
<use xlink:href="#f1_9" transform="matrix(12,0,0,12,651.1,127.1)" />
<use xlink:href="#f1_c" transform="matrix(12,0,0,12,663.3,127.1)" />
<use xlink:href="#f1_3" transform="matrix(12,0,0,12,668.3,127.1)" />
<use xlink:href="#f1_j" transform="matrix(12,0,0,12,686.2,127.1)" />
<use xlink:href="#f1_9" transform="matrix(12,0,0,12,693.7,127.1)" />
<use xlink:href="#f1_e" transform="matrix(12,0,0,12,705.9,127.1)" />
<use xlink:href="#f1_j" transform="matrix(12,0,0,12,716.3,127.1)" />
<use xlink:href="#f1_t" transform="matrix(12,0,0,12,729.6,127.1)" />
<use xlink:href="#f1_9" transform="matrix(12,0,0,12,734.6,127.1)" />
<use xlink:href="#f1_c" transform="matrix(12,0,0,12,746.9,127.1)" />
<use xlink:href="#f1_h" transform="matrix(12,0,0,12,751.9,127.1)" />
<use xlink:href="#f0_15" transform="matrix(11,0,0,11,202.7,147.1)" />
<use xlink:href="#f0_15" transform="matrix(11,0,0,11,211.1,147.1)" />
<use xlink:href="#f0_15" transform="matrix(11,0,0,11,219.5,147.1)" />
<use xlink:href="#f0_15" transform="matrix(11,0,0,11,227.9,147.1)" />
<use xlink:href="#f0_15" transform="matrix(11,0,0,11,236.3,147.1)" />
<use xlink:href="#f0_15" transform="matrix(11,0,0,11,244.8,147.1)" />
<use xlink:href="#f0_15" transform="matrix(11,0,0,11,253.2,147.1)" />
<use xlink:href="#f0_15" transform="matrix(11,0,0,11,261.6,147.1)" />
<use xlink:href="#f0_15" transform="matrix(11,0,0,11,270,147.1)" />
<use xlink:href="#f0_i" transform="matrix(11,0,0,11,282.5,147.1)" />
<use xlink:href="#f0_m" transform="matrix(11,0,0,11,295.6,147.1)" />
<use xlink:href="#f0_10" transform="matrix(11,0,0,11,304,147.1)" />
<use xlink:href="#f0_4" transform="matrix(11,0,0,11,316.5,147.1)" />
<use xlink:href="#f0_3" transform="matrix(11,0,0,11,323.1,147.1)" />
<use xlink:href="#f0_8" transform="matrix(11,0,0,11,330.5,147.1)" />
<use xlink:href="#f0_9" transform="matrix(11,0,0,11,338.9,147.1)" />
<use xlink:href="#f0_13" transform="matrix(11,0,0,11,347.3,147.1)" />
<use xlink:href="#f1_m" transform="matrix(12,0,0,12,651.1,148.5)" />
<use xlink:href="#f1_9" transform="matrix(12,0,0,12,657,148.5)" />
<use xlink:href="#f1_q" transform="matrix(12,0,0,12,669.2,148.5)" />
<use xlink:href="#f1_7" transform="matrix(12,0,0,12,673.3,148.5)" />
<use xlink:href="#f1_f" transform="matrix(12,0,0,12,683.7,148.5)" />
<use xlink:href="#f1_r" transform="matrix(12,0,0,12,700,148.5)" />
<use xlink:href="#f1_c" transform="matrix(12,0,0,12,710.1,148.5)" />
<use xlink:href="#f1_9" transform="matrix(12,0,0,12,715,148.5)" />
<use xlink:href="#f1_l" transform="matrix(12,0,0,12,727.2,148.5)" />
<use xlink:href="#f1_3" transform="matrix(12,0,0,12,745.5,148.5)" />
<use xlink:href="#f1_4" transform="matrix(12,0,0,12,757.4,148.5)" />
<use xlink:href="#f0_12" transform="matrix(11,0,0,11,202.7,168.5)" />
<use xlink:href="#f0_k" transform="matrix(11,0,0,11,214.8,168.5)" />
<use xlink:href="#f0_4" transform="matrix(11,0,0,11,223.2,168.5)" />
<use xlink:href="#f0_13" transform="matrix(11,0,0,11,229.8,168.5)" />
<use xlink:href="#f0_15" transform="matrix(11,0,0,11,234,168.5)" />
<use xlink:href="#f0_15" transform="matrix(11,0,0,11,242.4,168.5)" />
<use xlink:href="#f0_15" transform="matrix(11,0,0,11,250.8,168.5)" />
<use xlink:href="#f0_15" transform="matrix(11,0,0,11,259.2,168.5)" />
<use xlink:href="#f0_15" transform="matrix(11,0,0,11,267.6,168.5)" />
<use xlink:href="#f0_15" transform="matrix(11,0,0,11,276,168.5)" />
<use xlink:href="#f0_15" transform="matrix(11,0,0,11,284.4,168.5)" />
<use xlink:href="#f0_15" transform="matrix(11,0,0,11,292.8,168.5)" />
<use xlink:href="#f0_15" transform="matrix(11,0,0,11,301.3,168.5)" />
<use xlink:href="#f0_3" transform="matrix(11,0,0,11,313.8,168.5)" />
<use xlink:href="#f0_l" transform="matrix(11,0,0,11,321.2,168.5)" />
<use xlink:href="#f0_m" transform="matrix(11,0,0,11,329.6,168.5)" />
<use xlink:href="#f0_p" transform="matrix(11,0,0,11,337.9,168.5)" />
<use xlink:href="#f0_3" transform="matrix(11,0,0,11,346.9,168.5)" />
<use xlink:href="#f0_7" transform="matrix(11,0,0,11,354.2,168.5)" />
<use xlink:href="#f0_7" transform="matrix(11,0,0,11,363.2,168.5)" />
<use xlink:href="#f0_3" transform="matrix(11,0,0,11,367.8,168.5)" />
<use xlink:href="#f0_k" transform="matrix(11,0,0,11,375.2,168.5)" />
<use xlink:href="#f0_9" transform="matrix(11,0,0,11,383.6,168.5)" />
<use xlink:href="#f0_k" transform="matrix(11,0,0,11,396.3,168.5)" />
<use xlink:href="#f0_6" transform="matrix(11,0,0,11,404.7,168.5)" />
<use xlink:href="#f0_1a" transform="matrix(11,0,0,11,416.3,168.5)" />
<use xlink:href="#f0_6" transform="matrix(11,0,0,11,425.6,168.5)" />
<use xlink:href="#f0_1b" transform="matrix(11,0,0,11,433.1,168.5)" />
<use xlink:href="#f0_9" transform="matrix(11,0,0,11,441.5,168.5)" />
<use xlink:href="#f0_c" transform="matrix(11,0,0,11,449.9,168.5)" />
<use xlink:href="#f0_1d" transform="matrix(11,0,0,11,459.6,168.5)" />
<use xlink:href="#f0_3" transform="matrix(11,0,0,11,469,168.5)" />
<use xlink:href="#f0_c" transform="matrix(11,0,0,11,476.4,168.5)" />
<use xlink:href="#f0_b" transform="matrix(11,0,0,11,482.1,168.5)" />
<use xlink:href="#f0_6" transform="matrix(11,0,0,11,490.5,168.5)" />
<use xlink:href="#f0_c" transform="matrix(11,0,0,11,497.8,168.5)" />
<use xlink:href="#f0_13" transform="matrix(11,0,0,11,503.4,168.5)" />
<use xlink:href="#f1_m" transform="matrix(12,0,0,12,571.8,169.9)" />
<use xlink:href="#f1_7" transform="matrix(12,0,0,12,577.7,169.9)" />
<use xlink:href="#f1_f" transform="matrix(12,0,0,12,588,169.9)" />
<use xlink:href="#f1_7" transform="matrix(12,0,0,12,598.6,169.9)" />
<use xlink:href="#f1_8" transform="matrix(12,0,0,12,609,169.9)" />
<use xlink:href="#f1_t" transform="matrix(12,0,0,12,626.2,169.9)" />
<use xlink:href="#f1_c" transform="matrix(12,0,0,12,631.2,169.9)" />
<use xlink:href="#f1_r" transform="matrix(12,0,0,12,636.1,169.9)" />
<use xlink:href="#f1_9" transform="matrix(12,0,0,12,646.2,169.9)" />
<use xlink:href="#f1_r" transform="matrix(12,0,0,12,664.2,169.9)" />
<use xlink:href="#f1_q" transform="matrix(12,0,0,12,674.3,169.9)" />
<use xlink:href="#f1_e" transform="matrix(12,0,0,12,678.4,169.9)" />
<use xlink:href="#f1_t" transform="matrix(12,0,0,12,694.6,169.9)" />
<use xlink:href="#f1_9" transform="matrix(12,0,0,12,699.6,169.9)" />
<use xlink:href="#f1_n" transform="matrix(12,0,0,12,711.9,169.9)" />
<use xlink:href="#f1_i" transform="matrix(12,0,0,12,727.3,169.9)" />
<use xlink:href="#f1_b" transform="matrix(12,0,0,12,739.5,169.9)" />
<use xlink:href="#f1_9" transform="matrix(12,0,0,12,751.6,169.9)" />
<use xlink:href="#f0_1e" transform="matrix(11,0,0,11,202.7,189.9)" />
<use xlink:href="#f0_7" transform="matrix(11,0,0,11,213,189.9)" />
<use xlink:href="#f0_o" transform="matrix(11,0,0,11,221.8,189.9)" />
<use xlink:href="#f0_9" transform="matrix(11,0,0,11,230.2,189.9)" />
<use xlink:href="#f0_5" transform="matrix(11,0,0,11,238.6,189.9)" />
<use xlink:href="#f0_6" transform="matrix(11,0,0,11,243.2,189.9)" />
<use xlink:href="#f0_7" transform="matrix(11,0,0,11,250.7,189.9)" />
<use xlink:href="#f0_2" transform="matrix(11,0,0,11,259.7,189.9)" />
<use xlink:href="#f0_9" transform="matrix(11,0,0,11,270.8,189.9)" />
<use xlink:href="#f0_7" transform="matrix(11,0,0,11,279.1,189.9)" />
<use xlink:href="#f0_g" transform="matrix(11,0,0,11,283.8,189.9)" />
<use xlink:href="#f0_8" transform="matrix(11,0,0,11,292.2,189.9)" />
<use xlink:href="#f0_15" transform="matrix(11,0,0,11,304.9,189.9)" />
<use xlink:href="#f0_15" transform="matrix(11,0,0,11,313.3,189.9)" />
<use xlink:href="#f0_15" transform="matrix(11,0,0,11,321.7,189.9)" />
<use xlink:href="#f0_15" transform="matrix(11,0,0,11,330.1,189.9)" />
<use xlink:href="#f0_15" transform="matrix(11,0,0,11,338.5,189.9)" />
<use xlink:href="#f0_15" transform="matrix(11,0,0,11,346.9,189.9)" />
<use xlink:href="#f0_15" transform="matrix(11,0,0,11,355.3,189.9)" />
<use xlink:href="#f0_15" transform="matrix(11,0,0,11,363.7,189.9)" />
<use xlink:href="#f0_15" transform="matrix(11,0,0,11,372.1,189.9)" />
<use xlink:href="#f0_6" transform="matrix(11,0,0,11,384.6,189.9)" />
<use xlink:href="#f0_8" transform="matrix(11,0,0,11,392.1,189.9)" />
<use xlink:href="#f0_2" transform="matrix(11,0,0,11,404.7,189.9)" />
<use xlink:href="#f0_m" transform="matrix(11,0,0,11,415.9,189.9)" />
<use xlink:href="#f0_4" transform="matrix(11,0,0,11,424.3,189.9)" />
<use xlink:href="#f0_f" transform="matrix(11,0,0,11,430.9,189.9)" />
<use xlink:href="#f0_9" transform="matrix(11,0,0,11,438.3,189.9)" />
<use xlink:href="#f0_13" transform="matrix(11,0,0,11,446.6,189.9)" />
<use xlink:href="#f1_m" transform="matrix(12,0,0,12,533,191.3)" />
<use xlink:href="#f1_c" transform="matrix(12,0,0,12,538.9,191.3)" />
<use xlink:href="#f1_6" transform="matrix(12,0,0,12,543.9,191.3)" />
<use xlink:href="#f1_g" transform="matrix(12,0,0,12,556.9,191.3)" />
<use xlink:href="#f1_c" transform="matrix(12,0,0,12,568.8,191.3)" />
<use xlink:href="#f1_6" transform="matrix(12,0,0,12,573.8,191.3)" />
<use xlink:href="#f1_f" transform="matrix(12,0,0,12,586.8,191.3)" />
<use xlink:href="#f1_9" transform="matrix(12,0,0,12,603.1,191.3)" />
<use xlink:href="#f1_s" transform="matrix(12,0,0,12,615.3,191.3)" />
<use xlink:href="#f1_l" transform="matrix(12,0,0,12,626.2,191.3)" />
<use xlink:href="#f1_d" transform="matrix(12,0,0,12,638.7,191.3)" />
<use xlink:href="#f1_g" transform="matrix(12,0,0,12,651.8,191.3)" />
<use xlink:href="#f1_c" transform="matrix(12,0,0,12,663.7,191.3)" />
<use xlink:href="#f1_f" transform="matrix(12,0,0,12,668.8,191.3)" />
<use xlink:href="#f1_l" transform="matrix(12,0,0,12,679.3,191.3)" />
<use xlink:href="#f1_c" transform="matrix(12,0,0,12,691.7,191.3)" />
<use xlink:href="#f1_e" transform="matrix(12,0,0,12,696.7,191.3)" />
<use xlink:href="#f1_c" transform="matrix(12,0,0,12,707.1,191.3)" />
<use xlink:href="#f1_6" transform="matrix(12,0,0,12,712.1,191.3)" />
<use xlink:href="#f1_t" transform="matrix(12,0,0,12,730.9,191.3)" />
<use xlink:href="#f1_c" transform="matrix(12,0,0,12,735.9,191.3)" />
<use xlink:href="#f1_e" transform="matrix(12,0,0,12,741,191.3)" />
<use xlink:href="#f1_l" transform="matrix(12,0,0,12,751.2,191.3)" />
<use xlink:href="#f0_15" transform="matrix(11,0,0,11,202.7,211.3)" />
<use xlink:href="#f0_15" transform="matrix(11,0,0,11,211.1,211.3)" />
<use xlink:href="#f0_15" transform="matrix(11,0,0,11,219.5,211.3)" />
<use xlink:href="#f0_15" transform="matrix(11,0,0,11,227.9,211.3)" />
<use xlink:href="#f0_15" transform="matrix(11,0,0,11,236.3,211.3)" />
<use xlink:href="#f0_15" transform="matrix(11,0,0,11,244.8,211.3)" />
<use xlink:href="#f0_15" transform="matrix(11,0,0,11,253.2,211.3)" />
<use xlink:href="#f0_15" transform="matrix(11,0,0,11,261.6,211.3)" />
<use xlink:href="#f0_k" transform="matrix(11,0,0,11,274.1,211.3)" />
<use xlink:href="#f0_9" transform="matrix(11,0,0,11,282.5,211.3)" />
<use xlink:href="#f0_c" transform="matrix(11,0,0,11,290.9,211.3)" />
<use xlink:href="#f0_i" transform="matrix(11,0,0,11,296.5,211.3)" />
<use xlink:href="#f0_e" transform="matrix(11,0,0,11,309.5,211.3)" />
<use xlink:href="#f0_k" transform="matrix(11,0,0,11,314.2,211.3)" />
<use xlink:href="#f0_9" transform="matrix(11,0,0,11,322.6,211.3)" />
<use xlink:href="#f0_1f" transform="matrix(11,0,0,11,331,211.3)" />
<use xlink:href="#f1_14" transform="matrix(12,0,0,12,689.9,212.7)" />
<use xlink:href="#f1_t" transform="matrix(12,0,0,12,699.7,212.7)" />
<use xlink:href="#f1_o" transform="matrix(12,0,0,12,704.7,212.7)" />
<use xlink:href="#f1_q" transform="matrix(12,0,0,12,717.7,212.7)" />
<use xlink:href="#f1_3" transform="matrix(12,0,0,12,727.6,212.7)" />
<use xlink:href="#f1_b" transform="matrix(12,0,0,12,739.5,212.7)" />
<use xlink:href="#f1_9" transform="matrix(12,0,0,12,751.6,212.7)" />
</g>
<g fill="#0000FF" >
<use xlink:href="#f0_v" transform="matrix(12,0,0,12,687,272.1)" />
<use xlink:href="#f0_6" transform="matrix(12,0,0,12,699.7,272.1)" />
<use xlink:href="#f0_4" transform="matrix(12,0,0,12,708.1,272.1)" />
<use xlink:href="#f0_d" transform="matrix(12,0,0,12,715.7,272.1)" />
<use xlink:href="#f0_m" transform="matrix(12,0,0,12,725.2,272.1)" />
<use xlink:href="#f0_6" transform="matrix(12,0,0,12,734.8,272.1)" />
<use xlink:href="#f0_4" transform="matrix(12,0,0,12,743.2,272.1)" />
<use xlink:href="#f0_5" transform="matrix(12,0,0,12,750.8,272.1)" />
<use xlink:href="#f0_3" transform="matrix(12,0,0,12,756.1,272.1)" />
<use xlink:href="#f0_4" transform="matrix(12,0,0,12,764.7,272.1)" />
</g>
<g fill="#000000" >
<use xlink:href="#f2_f" transform="matrix(12,0,0,12,515.2,363.2)" />
<use xlink:href="#f2_g" transform="matrix(12,0,0,12,528,363.2)" />
<use xlink:href="#f2_h" transform="matrix(12,0,0,12,533.3,363.2)" />
<use xlink:href="#f2_h" transform="matrix(12,0,0,12,544.5,363.2)" />
<use xlink:href="#f2_i" transform="matrix(12,0,0,12,555.5,363.2)" />
<use xlink:href="#f2_h" transform="matrix(12,0,0,12,565.8,363.2)" />
<use xlink:href="#f2_j" transform="matrix(12,0,0,12,583.4,363.2)" />
<use xlink:href="#f2_4" transform="matrix(12,0,0,12,595.9,363.2)" />
<use xlink:href="#f2_b" transform="matrix(12,0,0,12,606.9,363.2)" />
<use xlink:href="#f2_i" transform="matrix(12,0,0,12,613.2,363.2)" />
<use xlink:href="#f2_c" transform="matrix(12,0,0,12,623.5,363.2)" />
<use xlink:href="#f2_j" transform="matrix(12,0,0,12,630.9,363.2)" />
<use xlink:href="#f2_k" transform="matrix(12,0,0,12,649.8,363.2)" />
<use xlink:href="#f2_f" transform="matrix(12,0,0,12,663.8,363.2)" />
<use xlink:href="#f2_g" transform="matrix(12,0,0,12,676.5,363.2)" />
<use xlink:href="#f2_h" transform="matrix(12,0,0,12,681.9,363.2)" />
<use xlink:href="#f2_8" transform="matrix(12,0,0,12,693,363.2)" />
<use xlink:href="#f2_5" transform="matrix(12,0,0,12,705.2,363.2)" />
<use xlink:href="#f2_j" transform="matrix(12,0,0,12,723.6,363.2)" />
<use xlink:href="#f2_g" transform="matrix(12,0,0,12,736.2,363.2)" />
<use xlink:href="#f2_g" transform="matrix(12,0,0,12,741.5,363.2)" />
<use xlink:href="#f2_a" transform="matrix(12,0,0,12,746.9,363.2)" />
<use xlink:href="#f2_7" transform="matrix(12,0,0,12,759.4,363.2)" />
<use xlink:href="#f1_v" transform="matrix(12,0,0,12,680.6,406.8)" />
<use xlink:href="#f1_t" transform="matrix(12,0,0,12,686.7,406.8)" />
<use xlink:href="#f1_c" transform="matrix(12,0,0,12,691.8,406.8)" />
<use xlink:href="#f1_o" transform="matrix(12,0,0,12,696.8,406.8)" />
<use xlink:href="#f1_9" transform="matrix(12,0,0,12,709.8,406.8)" />
<use xlink:href="#f1_7" transform="matrix(12,0,0,12,722,406.8)" />
<use xlink:href="#f1_j" transform="matrix(12,0,0,12,738.2,406.8)" />
<use xlink:href="#f1_q" transform="matrix(12,0,0,12,745.7,406.8)" />
<use xlink:href="#f1_7" transform="matrix(12,0,0,12,749.8,406.8)" />
<use xlink:href="#f1_h" transform="matrix(12,0,0,12,760.1,406.8)" />
<use xlink:href="#f0_1e" transform="matrix(11,0,0,11,664.3,406.8)" />
<use xlink:href="#f1_e" transform="matrix(12,0,0,12,586.4,406.8)" />
<use xlink:href="#f1_b" transform="matrix(12,0,0,12,602.6,406.8)" />
<use xlink:href="#f1_n" transform="matrix(12,0,0,12,614.6,406.8)" />
<use xlink:href="#f1_8" transform="matrix(12,0,0,12,624.2,406.8)" />
<use xlink:href="#f1_c" transform="matrix(12,0,0,12,635.7,406.8)" />
<use xlink:href="#f1_3" transform="matrix(12,0,0,12,640.7,406.8)" />
<use xlink:href="#f0_1g" transform="matrix(11,0,0,11,564.5,406.8)" />
<use xlink:href="#f0_1e" transform="matrix(11,0,0,11,570.1,406.8)" />
<use xlink:href="#f1_y" transform="matrix(12,0,0,12,551.7,406.8)" />
<use xlink:href="#f0_d" transform="matrix(11,0,0,11,510.3,406.8)" />
<use xlink:href="#f3_g" transform="matrix(14,0,0,14,518.7,406.8)" />
<use xlink:href="#f0_8" transform="matrix(11,0,0,11,528.2,406.8)" />
<use xlink:href="#f0_4" transform="matrix(11,0,0,11,536.6,406.8)" />
<use xlink:href="#f0_9" transform="matrix(11,0,0,11,543.1,406.8)" />
<use xlink:href="#f1_e" transform="matrix(12,0,0,12,450.1,406.8)" />
<use xlink:href="#f1_u" transform="matrix(12,0,0,12,466.4,406.8)" />
<use xlink:href="#f1_8" transform="matrix(12,0,0,12,476.2,406.8)" />
<use xlink:href="#f1_c" transform="matrix(12,0,0,12,487.6,406.8)" />
<use xlink:href="#f1_3" transform="matrix(12,0,0,12,492.7,406.8)" />
<use xlink:href="#f0_d" transform="matrix(11,0,0,11,396.9,406.8)" />
<use xlink:href="#f3_b" transform="matrix(14,0,0,14,405.3,406.8)" />
<use xlink:href="#f3_g" transform="matrix(14,0,0,14,411.3,406.8)" />
<use xlink:href="#f0_8" transform="matrix(11,0,0,11,420.8,406.8)" />
<use xlink:href="#f0_4" transform="matrix(11,0,0,11,429.2,406.8)" />
<use xlink:href="#f0_9" transform="matrix(11,0,0,11,435.7,406.8)" />
<use xlink:href="#f1_e" transform="matrix(12,0,0,12,342.4,406.8)" />
<use xlink:href="#f1_p" transform="matrix(12,0,0,12,352.8,406.8)" />
<use xlink:href="#f1_c" transform="matrix(12,0,0,12,364.2,406.8)" />
<use xlink:href="#f1_8" transform="matrix(12,0,0,12,369.2,406.8)" />
<use xlink:href="#f1_f" transform="matrix(12,0,0,12,380.7,406.8)" />
<use xlink:href="#f0_d" transform="matrix(11,0,0,11,292.6,406.8)" />
<use xlink:href="#f0_6" transform="matrix(11,0,0,11,301,406.8)" />
<use xlink:href="#f0_8" transform="matrix(11,0,0,11,308.4,406.8)" />
<use xlink:href="#f0_4" transform="matrix(11,0,0,11,316.7,406.8)" />
<use xlink:href="#f0_3" transform="matrix(11,0,0,11,323.2,406.8)" />
<use xlink:href="#f0_c" transform="matrix(11,0,0,11,330.7,406.8)" />
<use xlink:href="#f1_m" transform="matrix(12,0,0,12,279.7,406.8)" />
<use xlink:href="#f1_x" transform="matrix(12,0,0,12,285.5,406.8)" />
<use xlink:href="#f1_v" transform="matrix(12,0,0,12,701.8,431.4)" />
<use xlink:href="#f1_q" transform="matrix(12,0,0,12,707.9,431.4)" />
<use xlink:href="#f1_d" transform="matrix(12,0,0,12,712.1,431.4)" />
<use xlink:href="#f1_o" transform="matrix(12,0,0,12,719.4,431.4)" />
<use xlink:href="#f1_j" transform="matrix(12,0,0,12,738.2,431.4)" />
<use xlink:href="#f1_q" transform="matrix(12,0,0,12,745.7,431.4)" />
<use xlink:href="#f1_7" transform="matrix(12,0,0,12,749.8,431.4)" />
<use xlink:href="#f1_h" transform="matrix(12,0,0,12,760.1,431.4)" />
<use xlink:href="#f0_1h" transform="matrix(11,0,0,11,683.5,431.4)" />
<use xlink:href="#f1_e" transform="matrix(12,0,0,12,605.6,431.4)" />
<use xlink:href="#f1_b" transform="matrix(12,0,0,12,621.8,431.4)" />
<use xlink:href="#f1_n" transform="matrix(12,0,0,12,633.9,431.4)" />
<use xlink:href="#f1_8" transform="matrix(12,0,0,12,643.5,431.4)" />
<use xlink:href="#f1_c" transform="matrix(12,0,0,12,654.9,431.4)" />
<use xlink:href="#f1_3" transform="matrix(12,0,0,12,660,431.4)" />
<use xlink:href="#f0_12" transform="matrix(11,0,0,11,577.3,431.4)" />
<use xlink:href="#f0_1e" transform="matrix(11,0,0,11,589.4,431.4)" />
<use xlink:href="#f1_y" transform="matrix(12,0,0,12,564.5,431.4)" />
<use xlink:href="#f0_r" transform="matrix(11,0,0,11,532.1,431.4)" />
<use xlink:href="#f3_4" transform="matrix(14,0,0,14,540.5,431.4)" />
<use xlink:href="#f0_7" transform="matrix(11,0,0,11,551.2,431.4)" />
<use xlink:href="#f0_9" transform="matrix(11,0,0,11,555.9,431.4)" />
<use xlink:href="#f1_e" transform="matrix(12,0,0,12,471.9,431.4)" />
<use xlink:href="#f1_u" transform="matrix(12,0,0,12,488.3,431.4)" />
<use xlink:href="#f1_8" transform="matrix(12,0,0,12,498,431.4)" />
<use xlink:href="#f1_c" transform="matrix(12,0,0,12,509.5,431.4)" />
<use xlink:href="#f1_3" transform="matrix(12,0,0,12,514.5,431.4)" />
<use xlink:href="#f0_r" transform="matrix(11,0,0,11,423.2,431.4)" />
<use xlink:href="#f3_i" transform="matrix(14,0,0,14,431.6,431.4)" />
<use xlink:href="#f3_g" transform="matrix(14,0,0,14,443.5,431.4)" />
<use xlink:href="#f0_7" transform="matrix(11,0,0,11,453,431.4)" />
<use xlink:href="#f0_9" transform="matrix(11,0,0,11,457.6,431.4)" />
<use xlink:href="#f1_e" transform="matrix(12,0,0,12,368.7,431.4)" />
<use xlink:href="#f1_p" transform="matrix(12,0,0,12,379.1,431.4)" />
<use xlink:href="#f1_c" transform="matrix(12,0,0,12,390.5,431.4)" />
<use xlink:href="#f1_8" transform="matrix(12,0,0,12,395.5,431.4)" />
<use xlink:href="#f1_f" transform="matrix(12,0,0,12,407,431.4)" />
<use xlink:href="#f0_r" transform="matrix(11,0,0,11,328,431.4)" />
<use xlink:href="#f0_9" transform="matrix(11,0,0,11,336.4,431.4)" />
<use xlink:href="#f0_7" transform="matrix(11,0,0,11,344.8,431.4)" />
<use xlink:href="#f0_3" transform="matrix(11,0,0,11,349.5,431.4)" />
<use xlink:href="#f0_c" transform="matrix(11,0,0,11,356.9,431.4)" />
<use xlink:href="#f1_m" transform="matrix(12,0,0,12,315.2,431.4)" />
<use xlink:href="#f1_x" transform="matrix(12,0,0,12,321,431.4)" />
<use xlink:href="#f1_v" transform="matrix(12,0,0,12,681.7,456)" />
<use xlink:href="#f1_q" transform="matrix(12,0,0,12,687.8,456)" />
<use xlink:href="#f1_o" transform="matrix(12,0,0,12,691.9,456)" />
<use xlink:href="#f1_q" transform="matrix(12,0,0,12,704.9,456)" />
<use xlink:href="#f1_e" transform="matrix(12,0,0,12,709,456)" />
<use xlink:href="#f1_o" transform="matrix(12,0,0,12,719.4,456)" />
<use xlink:href="#f1_j" transform="matrix(12,0,0,12,738.2,456)" />
<use xlink:href="#f1_q" transform="matrix(12,0,0,12,745.6,456)" />
<use xlink:href="#f1_7" transform="matrix(12,0,0,12,749.7,456)" />
<use xlink:href="#f1_h" transform="matrix(12,0,0,12,760.1,456)" />
<use xlink:href="#f0_2" transform="matrix(11,0,0,11,664.3,456)" />
<use xlink:href="#f1_e" transform="matrix(12,0,0,12,592.2,456)" />
<use xlink:href="#f1_b" transform="matrix(12,0,0,12,608.5,456)" />
<use xlink:href="#f1_n" transform="matrix(12,0,0,12,620.6,456)" />
<use xlink:href="#f1_8" transform="matrix(12,0,0,12,630.2,456)" />
<use xlink:href="#f1_c" transform="matrix(12,0,0,12,641.6,456)" />
<use xlink:href="#f1_3" transform="matrix(12,0,0,12,646.6,456)" />
<use xlink:href="#f0_1i" transform="matrix(11,0,0,11,564.8,456)" />
<use xlink:href="#f0_2" transform="matrix(11,0,0,11,575.1,456)" />
<use xlink:href="#f1_10" transform="matrix(12,0,0,12,524.3,456)" />
<use xlink:href="#f1_c" transform="matrix(12,0,0,12,536.1,456)" />
<use xlink:href="#f1_j" transform="matrix(12,0,0,12,541.1,456)" />
<use xlink:href="#f1_f" transform="matrix(12,0,0,12,548.6,456)" />
<use xlink:href="#f0_10" transform="matrix(11,0,0,11,501.4,456)" />
<use xlink:href="#f0_9" transform="matrix(11,0,0,11,509.8,456)" />
<use xlink:href="#f1_y" transform="matrix(12,0,0,12,488.6,456)" />
<use xlink:href="#f0_f" transform="matrix(11,0,0,11,423.7,456)" />
<use xlink:href="#f0_m" transform="matrix(11,0,0,11,431.1,456)" />
<use xlink:href="#f0_8" transform="matrix(11,0,0,11,439.5,456)" />
<use xlink:href="#f0_k" transform="matrix(11,0,0,11,447.9,456)" />
<use xlink:href="#f0_m" transform="matrix(11,0,0,11,456.3,456)" />
<use xlink:href="#f3_a" transform="matrix(14,0,0,14,464.8,456)" />
<use xlink:href="#f0_9" transform="matrix(11,0,0,11,474.2,456)" />
<use xlink:href="#f1_e" transform="matrix(12,0,0,12,369.3,456)" />
<use xlink:href="#f1_u" transform="matrix(12,0,0,12,385.6,456)" />
<use xlink:href="#f1_8" transform="matrix(12,0,0,12,395.4,456)" />
<use xlink:href="#f1_c" transform="matrix(12,0,0,12,406.8,456)" />
<use xlink:href="#f1_3" transform="matrix(12,0,0,12,411.8,456)" />
<use xlink:href="#f0_f" transform="matrix(11,0,0,11,294.9,456)" />
<use xlink:href="#f0_9" transform="matrix(11,0,0,11,302.3,456)" />
<use xlink:href="#f0_8" transform="matrix(11,0,0,11,310.7,456)" />
<use xlink:href="#f0_k" transform="matrix(11,0,0,11,319.1,456)" />
<use xlink:href="#f0_m" transform="matrix(11,0,0,11,327.5,456)" />
<use xlink:href="#f3_f" transform="matrix(14,0,0,14,336,456)" />
<use xlink:href="#f3_a" transform="matrix(14,0,0,14,345.4,456)" />
<use xlink:href="#f0_9" transform="matrix(11,0,0,11,354.9,456)" />
<use xlink:href="#f1_e" transform="matrix(12,0,0,12,240.3,456)" />
<use xlink:href="#f1_p" transform="matrix(12,0,0,12,250.7,456)" />
<use xlink:href="#f1_c" transform="matrix(12,0,0,12,262.2,456)" />
<use xlink:href="#f1_8" transform="matrix(12,0,0,12,267.2,456)" />
<use xlink:href="#f1_f" transform="matrix(12,0,0,12,278.6,456)" />
<use xlink:href="#f0_f" transform="matrix(11,0,0,11,175.4,456)" />
<use xlink:href="#f0_9" transform="matrix(11,0,0,11,182.9,456)" />
<use xlink:href="#f0_8" transform="matrix(11,0,0,11,191.3,456)" />
<use xlink:href="#f0_k" transform="matrix(11,0,0,11,199.7,456)" />
<use xlink:href="#f0_m" transform="matrix(11,0,0,11,208.1,456)" />
<use xlink:href="#f0_f" transform="matrix(11,0,0,11,216.5,456)" />
<use xlink:href="#f0_e" transform="matrix(11,0,0,11,223.9,456)" />
<use xlink:href="#f0_c" transform="matrix(11,0,0,11,228.5,456)" />
<use xlink:href="#f1_m" transform="matrix(12,0,0,12,162.6,456)" />
<use xlink:href="#f1_x" transform="matrix(12,0,0,12,168.4,456)" />
<use xlink:href="#f1_b" transform="matrix(12,0,0,12,627.3,480.6)" />
<use xlink:href="#f1_8" transform="matrix(12,0,0,12,639.4,480.6)" />
<use xlink:href="#f1_g" transform="matrix(12,0,0,12,650.8,480.6)" />
<use xlink:href="#f1_c" transform="matrix(12,0,0,12,662.7,480.6)" />
<use xlink:href="#f1_3" transform="matrix(12,0,0,12,667.7,480.6)" />
<use xlink:href="#f1_v" transform="matrix(12,0,0,12,685.6,480.6)" />
<use xlink:href="#f1_q" transform="matrix(12,0,0,12,691.7,480.6)" />
<use xlink:href="#f1_p" transform="matrix(12,0,0,12,695.8,480.6)" />
<use xlink:href="#f1_q" transform="matrix(12,0,0,12,707.2,480.6)" />
<use xlink:href="#f1_f" transform="matrix(12,0,0,12,711.4,480.6)" />
<use xlink:href="#f1_7" transform="matrix(12,0,0,12,721.9,480.6)" />
<use xlink:href="#f1_j" transform="matrix(12,0,0,12,738.1,480.6)" />
<use xlink:href="#f1_q" transform="matrix(12,0,0,12,745.6,480.6)" />
<use xlink:href="#f1_7" transform="matrix(12,0,0,12,749.7,480.6)" />
<use xlink:href="#f1_h" transform="matrix(12,0,0,12,760,480.6)" />
<use xlink:href="#f0_19" transform="matrix(11,0,0,11,609.1,480.6)" />
<use xlink:href="#f1_10" transform="matrix(12,0,0,12,568.6,480.6)" />
<use xlink:href="#f1_c" transform="matrix(12,0,0,12,580.4,480.6)" />
<use xlink:href="#f1_j" transform="matrix(12,0,0,12,585.4,480.6)" />
<use xlink:href="#f1_f" transform="matrix(12,0,0,12,592.9,480.6)" />
<use xlink:href="#f0_10" transform="matrix(11,0,0,11,545.9,480.6)" />
<use xlink:href="#f0_9" transform="matrix(11,0,0,11,554.3,480.6)" />
<use xlink:href="#f1_y" transform="matrix(12,0,0,12,533,480.6)" />
<use xlink:href="#f0_r" transform="matrix(11,0,0,11,500.2,480.6)" />
<use xlink:href="#f0_6" transform="matrix(11,0,0,11,508.6,480.6)" />
<use xlink:href="#f0_8" transform="matrix(11,0,0,11,516.1,480.6)" />
<use xlink:href="#f0_9" transform="matrix(11,0,0,11,524.5,480.6)" />
<use xlink:href="#f1_e" transform="matrix(12,0,0,12,440,480.6)" />
<use xlink:href="#f1_u" transform="matrix(12,0,0,12,456.3,480.6)" />
<use xlink:href="#f1_8" transform="matrix(12,0,0,12,466.1,480.6)" />
<use xlink:href="#f1_c" transform="matrix(12,0,0,12,477.6,480.6)" />
<use xlink:href="#f1_3" transform="matrix(12,0,0,12,482.6,480.6)" />
<use xlink:href="#f0_r" transform="matrix(11,0,0,11,390.7,480.6)" />
<use xlink:href="#f0_6" transform="matrix(11,0,0,11,399.1,480.6)" />
<use xlink:href="#f0_8" transform="matrix(11,0,0,11,406.5,480.6)" />
<use xlink:href="#f3_j" transform="matrix(14,0,0,14,414.9,480.6)" />
<use xlink:href="#f0_9" transform="matrix(11,0,0,11,425.6,480.6)" />
<use xlink:href="#f1_e" transform="matrix(12,0,0,12,336.1,480.6)" />
<use xlink:href="#f1_p" transform="matrix(12,0,0,12,346.5,480.6)" />
<use xlink:href="#f1_c" transform="matrix(12,0,0,12,358,480.6)" />
<use xlink:href="#f1_8" transform="matrix(12,0,0,12,363,480.6)" />
<use xlink:href="#f1_f" transform="matrix(12,0,0,12,374.4,480.6)" />
<use xlink:href="#f0_r" transform="matrix(11,0,0,11,295.5,480.6)" />
<use xlink:href="#f0_6" transform="matrix(11,0,0,11,303.9,480.6)" />
<use xlink:href="#f0_8" transform="matrix(11,0,0,11,311.3,480.6)" />
<use xlink:href="#f0_e" transform="matrix(11,0,0,11,319.7,480.6)" />
<use xlink:href="#f0_c" transform="matrix(11,0,0,11,324.3,480.6)" />
<use xlink:href="#f1_m" transform="matrix(12,0,0,12,282.6,480.6)" />
<use xlink:href="#f1_x" transform="matrix(12,0,0,12,288.5,480.6)" />
<use xlink:href="#f1_v" transform="matrix(12,0,0,12,680.6,505.2)" />
<use xlink:href="#f1_q" transform="matrix(12,0,0,12,686.7,505.2)" />
<use xlink:href="#f1_o" transform="matrix(12,0,0,12,690.8,505.2)" />
<use xlink:href="#f1_q" transform="matrix(12,0,0,12,703.8,505.2)" />
<use xlink:href="#f1_l" transform="matrix(12,0,0,12,707.9,505.2)" />
<use xlink:href="#f1_h" transform="matrix(12,0,0,12,720.4,505.2)" />
<use xlink:href="#f1_j" transform="matrix(12,0,0,12,738.2,505.2)" />
<use xlink:href="#f1_q" transform="matrix(12,0,0,12,745.6,505.2)" />
<use xlink:href="#f1_7" transform="matrix(12,0,0,12,749.7,505.2)" />
<use xlink:href="#f1_h" transform="matrix(12,0,0,12,760.1,505.2)" />
<use xlink:href="#f0_1e" transform="matrix(11,0,0,11,664.3,505.2)" />
<use xlink:href="#f1_e" transform="matrix(12,0,0,12,592.3,505.2)" />
<use xlink:href="#f1_b" transform="matrix(12,0,0,12,608.5,505.2)" />
<use xlink:href="#f1_n" transform="matrix(12,0,0,12,620.6,505.2)" />
<use xlink:href="#f1_8" transform="matrix(12,0,0,12,630.2,505.2)" />
<use xlink:href="#f1_c" transform="matrix(12,0,0,12,641.6,505.2)" />
<use xlink:href="#f1_3" transform="matrix(12,0,0,12,646.6,505.2)" />
<use xlink:href="#f0_1g" transform="matrix(11,0,0,11,580.6,505.2)" />
<use xlink:href="#f1_y" transform="matrix(12,0,0,12,567.7,505.2)" />
<use xlink:href="#f0_d" transform="matrix(11,0,0,11,532.9,505.2)" />
<use xlink:href="#f3_g" transform="matrix(14,0,0,14,541.3,505.2)" />
<use xlink:href="#f0_k" transform="matrix(11,0,0,11,550.8,505.2)" />
<use xlink:href="#f0_9" transform="matrix(11,0,0,11,559.2,505.2)" />
<use xlink:href="#f1_e" transform="matrix(12,0,0,12,472.7,505.2)" />
<use xlink:href="#f1_u" transform="matrix(12,0,0,12,489,505.2)" />
<use xlink:href="#f1_8" transform="matrix(12,0,0,12,498.8,505.2)" />
<use xlink:href="#f1_c" transform="matrix(12,0,0,12,510.2,505.2)" />
<use xlink:href="#f1_3" transform="matrix(12,0,0,12,515.3,505.2)" />
<use xlink:href="#f0_d" transform="matrix(11,0,0,11,435.6,505.2)" />
<use xlink:href="#f3_b" transform="matrix(14,0,0,14,444,505.2)" />
<use xlink:href="#f0_k" transform="matrix(11,0,0,11,449.9,505.2)" />
<use xlink:href="#f0_9" transform="matrix(11,0,0,11,458.3,505.2)" />
<use xlink:href="#f1_e" transform="matrix(12,0,0,12,381,505.2)" />
<use xlink:href="#f1_p" transform="matrix(12,0,0,12,391.4,505.2)" />
<use xlink:href="#f1_c" transform="matrix(12,0,0,12,402.9,505.2)" />
<use xlink:href="#f1_8" transform="matrix(12,0,0,12,407.9,505.2)" />
<use xlink:href="#f1_f" transform="matrix(12,0,0,12,419.3,505.2)" />
<use xlink:href="#f0_d" transform="matrix(11,0,0,11,340.5,505.2)" />
<use xlink:href="#f0_6" transform="matrix(11,0,0,11,348.9,505.2)" />
<use xlink:href="#f0_k" transform="matrix(11,0,0,11,356.4,505.2)" />
<use xlink:href="#f0_e" transform="matrix(11,0,0,11,364.7,505.2)" />
<use xlink:href="#f0_c" transform="matrix(11,0,0,11,369.4,505.2)" />
<use xlink:href="#f1_m" transform="matrix(12,0,0,12,327.7,505.2)" />
<use xlink:href="#f1_x" transform="matrix(12,0,0,12,333.5,505.2)" />
<use xlink:href="#f1_q" transform="matrix(12,0,0,12,715,529.8)" />
<use xlink:href="#f1_e" transform="matrix(12,0,0,12,719.1,529.8)" />
<use xlink:href="#f1_p" transform="matrix(12,0,0,12,729.5,529.8)" />
<use xlink:href="#f1_8" transform="matrix(12,0,0,12,741,529.8)" />
<use xlink:href="#f1_f" transform="matrix(12,0,0,12,752.4,529.8)" />
<use xlink:href="#f1_15" transform="matrix(12,0,0,12,762.9,529.8)" />
<use xlink:href="#f0_n" transform="matrix(11,0,0,11,681.8,529.8)" />
<use xlink:href="#f0_m" transform="matrix(11,0,0,11,690.3,529.8)" />
<use xlink:href="#f0_e" transform="matrix(11,0,0,11,698.5,529.8)" />
<use xlink:href="#f0_c" transform="matrix(11,0,0,11,703.2,529.8)" />
<use xlink:href="#f1_b" transform="matrix(12,0,0,12,549.2,529.8)" />
<use xlink:href="#f1_c" transform="matrix(12,0,0,12,561.3,529.8)" />
<use xlink:href="#f1_9" transform="matrix(12,0,0,12,566.3,529.8)" />
<use xlink:href="#f1_3" transform="matrix(12,0,0,12,578.5,529.8)" />
<use xlink:href="#f1_i" transform="matrix(12,0,0,12,596.3,529.8)" />
<use xlink:href="#f1_j" transform="matrix(12,0,0,12,608.5,529.8)" />
<use xlink:href="#f1_k" transform="matrix(12,0,0,12,621.8,529.8)" />
<use xlink:href="#f1_l" transform="matrix(12,0,0,12,633.7,529.8)" />
<use xlink:href="#f1_o" transform="matrix(12,0,0,12,646.2,529.8)" />
<use xlink:href="#f1_c" transform="matrix(12,0,0,12,659.2,529.8)" />
<use xlink:href="#f1_b" transform="matrix(12,0,0,12,664,529.8)" />
<use xlink:href="#f0_m" transform="matrix(11,0,0,11,534.7,529.8)" />
<use xlink:href="#f1_10" transform="matrix(12,0,0,12,494.2,529.8)" />
<use xlink:href="#f1_c" transform="matrix(12,0,0,12,506,529.8)" />
<use xlink:href="#f1_j" transform="matrix(12,0,0,12,511,529.8)" />
<use xlink:href="#f1_f" transform="matrix(12,0,0,12,518.5,529.8)" />
<use xlink:href="#f0_10" transform="matrix(11,0,0,11,471.3,529.8)" />
<use xlink:href="#f0_9" transform="matrix(11,0,0,11,479.7,529.8)" />
<use xlink:href="#f1_y" transform="matrix(12,0,0,12,458.5,529.8)" />
<use xlink:href="#f0_4" transform="matrix(11,0,0,11,414.8,529.8)" />
<use xlink:href="#f3_b" transform="matrix(14,0,0,14,421.4,529.8)" />
<use xlink:href="#f3_j" transform="matrix(14,0,0,14,427.3,529.8)" />
<use xlink:href="#f3_i" transform="matrix(14,0,0,14,438,529.8)" />
<use xlink:href="#f0_9" transform="matrix(11,0,0,11,449.9,529.8)" />
<use xlink:href="#f1_e" transform="matrix(12,0,0,12,354.6,529.8)" />
<use xlink:href="#f1_u" transform="matrix(12,0,0,12,370.9,529.8)" />
<use xlink:href="#f1_8" transform="matrix(12,0,0,12,380.7,529.8)" />
<use xlink:href="#f1_c" transform="matrix(12,0,0,12,392.2,529.8)" />
<use xlink:href="#f1_3" transform="matrix(12,0,0,12,397.2,529.8)" />
<use xlink:href="#f0_4" transform="matrix(11,0,0,11,319.3,529.8)" />
<use xlink:href="#f3_b" transform="matrix(14,0,0,14,325.9,529.8)" />
<use xlink:href="#f0_n" transform="matrix(11,0,0,11,331.8,529.8)" />
<use xlink:href="#f0_9" transform="matrix(11,0,0,11,340.2,529.8)" />
<use xlink:href="#f1_e" transform="matrix(12,0,0,12,264.7,529.8)" />
<use xlink:href="#f1_p" transform="matrix(12,0,0,12,275.1,529.8)" />
<use xlink:href="#f1_c" transform="matrix(12,0,0,12,286.6,529.8)" />
<use xlink:href="#f1_8" transform="matrix(12,0,0,12,291.6,529.8)" />
<use xlink:href="#f1_f" transform="matrix(12,0,0,12,303.1,529.8)" />
<use xlink:href="#f0_4" transform="matrix(11,0,0,11,217.7,529.8)" />
<use xlink:href="#f0_6" transform="matrix(11,0,0,11,224.1,529.8)" />
<use xlink:href="#f0_n" transform="matrix(11,0,0,11,231.6,529.8)" />
<use xlink:href="#f0_m" transform="matrix(11,0,0,11,240,529.8)" />
<use xlink:href="#f0_e" transform="matrix(11,0,0,11,248.4,529.8)" />
<use xlink:href="#f0_c" transform="matrix(11,0,0,11,253.1,529.8)" />
<use xlink:href="#f1_m" transform="matrix(12,0,0,12,204.9,529.8)" />
<use xlink:href="#f1_x" transform="matrix(12,0,0,12,210.7,529.8)" />
<use xlink:href="#f1_b" transform="matrix(12,0,0,12,633.9,554.4)" />
<use xlink:href="#f1_8" transform="matrix(12,0,0,12,645.9,554.4)" />
<use xlink:href="#f1_g" transform="matrix(12,0,0,12,657.2,554.4)" />
<use xlink:href="#f1_c" transform="matrix(12,0,0,12,669.1,554.4)" />
<use xlink:href="#f1_3" transform="matrix(12,0,0,12,674.2,554.4)" />
<use xlink:href="#f1_v" transform="matrix(12,0,0,12,692,554.4)" />
<use xlink:href="#f1_q" transform="matrix(12,0,0,12,698.1,554.4)" />
<use xlink:href="#f1_o" transform="matrix(12,0,0,12,702.2,554.4)" />
<use xlink:href="#f1_q" transform="matrix(12,0,0,12,715.2,554.4)" />
<use xlink:href="#f1_o" transform="matrix(12,0,0,12,719.3,554.4)" />
<use xlink:href="#f1_j" transform="matrix(12,0,0,12,738.1,554.4)" />
<use xlink:href="#f1_q" transform="matrix(12,0,0,12,745.6,554.4)" />
<use xlink:href="#f1_7" transform="matrix(12,0,0,12,749.7,554.4)" />
<use xlink:href="#f1_h" transform="matrix(12,0,0,12,760.1,554.4)" />
<use xlink:href="#f0_10" transform="matrix(11,0,0,11,619.4,554.4)" />
<use xlink:href="#f1_f" transform="matrix(12,0,0,12,446.1,554.4)" />
<use xlink:href="#f1_i" transform="matrix(12,0,0,12,462.5,554.4)" />
<use xlink:href="#f1_q" transform="matrix(12,0,0,12,474.7,554.4)" />
<use xlink:href="#f1_l" transform="matrix(12,0,0,12,478.8,554.4)" />
<use xlink:href="#f1_q" transform="matrix(12,0,0,12,491.2,554.4)" />
<use xlink:href="#f1_q" transform="matrix(12,0,0,12,495.3,554.4)" />
<use xlink:href="#f1_b" transform="matrix(12,0,0,12,499.4,554.4)" />
<use xlink:href="#f1_g" transform="matrix(12,0,0,12,511.4,554.4)" />
<use xlink:href="#f1_l" transform="matrix(12,0,0,12,523.3,554.4)" />
<use xlink:href="#f1_3" transform="matrix(12,0,0,12,535.8,554.4)" />
<use xlink:href="#f1_i" transform="matrix(12,0,0,12,553.6,554.4)" />
<use xlink:href="#f1_q" transform="matrix(12,0,0,12,565.8,554.4)" />
<use xlink:href="#f1_e" transform="matrix(12,0,0,12,569.9,554.4)" />
<use xlink:href="#f1_p" transform="matrix(12,0,0,12,580.3,554.4)" />
<use xlink:href="#f1_8" transform="matrix(12,0,0,12,591.7,554.4)" />
<use xlink:href="#f1_e" transform="matrix(12,0,0,12,603.2,554.4)" />
<use xlink:href="#f0_m" transform="matrix(11,0,0,11,421.5,554.4)" />
<use xlink:href="#f0_e" transform="matrix(11,0,0,11,429.8,554.4)" />
<use xlink:href="#f0_c" transform="matrix(11,0,0,11,434.5,554.4)" />
<use xlink:href="#f1_y" transform="matrix(12,0,0,12,408.7,554.4)" />
<use xlink:href="#f0_o" transform="matrix(11,0,0,11,383.3,554.4)" />
<use xlink:href="#f0_m" transform="matrix(11,0,0,11,391.7,554.4)" />
<use xlink:href="#f0_9" transform="matrix(11,0,0,11,400.1,554.4)" />
<use xlink:href="#f1_e" transform="matrix(12,0,0,12,319.1,554.4)" />
<use xlink:href="#f1_u" transform="matrix(12,0,0,12,335.3,554.4)" />
<use xlink:href="#f1_c" transform="matrix(12,0,0,12,345.1,554.4)" />
<use xlink:href="#f1_8" transform="matrix(12,0,0,12,350.1,554.4)" />
<use xlink:href="#f1_3" transform="matrix(12,0,0,12,361.6,554.4)" />
<use xlink:href="#f1_q" transform="matrix(12,0,0,12,373.5,554.4)" />
<use xlink:href="#f0_o" transform="matrix(11,0,0,11,277.1,554.4)" />
<use xlink:href="#f0_m" transform="matrix(11,0,0,11,285.5,554.4)" />
<use xlink:href="#f3_k" transform="matrix(14,0,0,14,293.9,554.4)" />
<use xlink:href="#f0_9" transform="matrix(11,0,0,11,304.6,554.4)" />
<use xlink:href="#f1_e" transform="matrix(12,0,0,12,222.6,554.4)" />
<use xlink:href="#f1_p" transform="matrix(12,0,0,12,233,554.4)" />
<use xlink:href="#f1_c" transform="matrix(12,0,0,12,244.5,554.4)" />
<use xlink:href="#f1_8" transform="matrix(12,0,0,12,249.5,554.4)" />
<use xlink:href="#f1_f" transform="matrix(12,0,0,12,260.9,554.4)" />
<use xlink:href="#f0_o" transform="matrix(11,0,0,11,189.4,554.4)" />
<use xlink:href="#f0_m" transform="matrix(11,0,0,11,197.8,554.4)" />
<use xlink:href="#f0_e" transform="matrix(11,0,0,11,206.1,554.4)" />
<use xlink:href="#f0_c" transform="matrix(11,0,0,11,210.8,554.4)" />
<use xlink:href="#f1_m" transform="matrix(12,0,0,12,176.6,554.4)" />
<use xlink:href="#f1_x" transform="matrix(12,0,0,12,182.4,554.4)" />
<use xlink:href="#f1_v" transform="matrix(12,0,0,12,650.2,576.1)" />
<use xlink:href="#f1_i" transform="matrix(12,0,0,12,656.3,576.1)" />
<use xlink:href="#f1_q" transform="matrix(12,0,0,12,668.4,576.1)" />
<use xlink:href="#f1_r" transform="matrix(12,0,0,12,672.5,576.1)" />
<use xlink:href="#f1_h" transform="matrix(12,0,0,12,682.6,576.1)" />
<use xlink:href="#f1_c" transform="matrix(12,0,0,12,694.5,576.1)" />
<use xlink:href="#f1_q" transform="matrix(12,0,0,12,699.5,576.1)" />
<use xlink:href="#f1_l" transform="matrix(12,0,0,12,703.5,576.1)" />
<use xlink:href="#f1_i" transform="matrix(12,0,0,12,721.8,576.1)" />
<use xlink:href="#f1_q" transform="matrix(12,0,0,12,734,576.1)" />
<use xlink:href="#f1_j" transform="matrix(12,0,0,12,738.1,576.1)" />
<use xlink:href="#f1_q" transform="matrix(12,0,0,12,745.6,576.1)" />
<use xlink:href="#f1_7" transform="matrix(12,0,0,12,749.7,576.1)" />
<use xlink:href="#f1_h" transform="matrix(12,0,0,12,760.1,576.1)" />
<use xlink:href="#f0_r" transform="matrix(11,0,0,11,451,576.1)" />
<use xlink:href="#f0_6" transform="matrix(11,0,0,11,459.4,576.1)" />
<use xlink:href="#f0_c" transform="matrix(11,0,0,11,466.9,576.1)" />
<use xlink:href="#f0_z" transform="matrix(11,0,0,11,472.4,576.1)" />
<use xlink:href="#f0_u" transform="matrix(11,0,0,11,480.9,576.1)" />
<use xlink:href="#f0_m" transform="matrix(11,0,0,11,485.5,576.1)" />
<use xlink:href="#f0_n" transform="matrix(11,0,0,11,493.9,576.1)" />
<use xlink:href="#f0_3" transform="matrix(11,0,0,11,502.3,576.1)" />
<use xlink:href="#f0_c" transform="matrix(11,0,0,11,509.8,576.1)" />
<use xlink:href="#f0_z" transform="matrix(11,0,0,11,515.2,576.1)" />
<use xlink:href="#f0_4" transform="matrix(11,0,0,11,523.8,576.1)" />
<use xlink:href="#f0_3" transform="matrix(11,0,0,11,530.3,576.1)" />
<use xlink:href="#f0_b" transform="matrix(11,0,0,11,537.8,576.1)" />
<use xlink:href="#f0_6" transform="matrix(11,0,0,11,546.1,576.1)" />
<use xlink:href="#f0_c" transform="matrix(11,0,0,11,553.5,576.1)" />
<use xlink:href="#f0_z" transform="matrix(11,0,0,11,559.1,576.1)" />
<use xlink:href="#f0_k" transform="matrix(11,0,0,11,567.5,576.1)" />
<use xlink:href="#f0_3" transform="matrix(11,0,0,11,575.9,576.1)" />
<use xlink:href="#f0_c" transform="matrix(11,0,0,11,583.4,576.1)" />
<use xlink:href="#f0_z" transform="matrix(11,0,0,11,588.9,576.1)" />
<use xlink:href="#f0_e" transform="matrix(11,0,0,11,597.4,576.1)" />
<use xlink:href="#f0_c" transform="matrix(11,0,0,11,602,576.1)" />
<use xlink:href="#f0_z" transform="matrix(11,0,0,11,607.6,576.1)" />
<use xlink:href="#f0_5" transform="matrix(11,0,0,11,616,576.1)" />
<use xlink:href="#f0_6" transform="matrix(11,0,0,11,620.6,576.1)" />
<use xlink:href="#f0_8" transform="matrix(11,0,0,11,628.1,576.1)" />
<use xlink:href="#f0_6" transform="matrix(11,0,0,11,636.5,576.1)" />
<use xlink:href="#f0_c" transform="matrix(11,0,0,11,643.9,576.1)" />
<use xlink:href="#f1_m" transform="matrix(12,0,0,12,445.3,576.1)" />
<use xlink:href="#f1_v" transform="matrix(12,0,0,12,458.9,637.7)" />
<use xlink:href="#f1_3" transform="matrix(12,0,0,12,465,637.7)" />
<use xlink:href="#f1_c" transform="matrix(12,0,0,12,477,637.7)" />
<use xlink:href="#f1_c" transform="matrix(12,0,0,12,482,637.7)" />
<use xlink:href="#f1_3" transform="matrix(12,0,0,12,487,637.7)" />
<use xlink:href="#f1_f" transform="matrix(12,0,0,12,498.9,637.7)" />
<use xlink:href="#f1_i" transform="matrix(12,0,0,12,515.4,637.7)" />
<use xlink:href="#f1_q" transform="matrix(12,0,0,12,527.6,637.7)" />
<use xlink:href="#f1_9" transform="matrix(12,0,0,12,531.7,637.7)" />
<use xlink:href="#f1_f" transform="matrix(12,0,0,12,543.9,637.7)" />
<use xlink:href="#f1_3" transform="matrix(12,0,0,12,554.5,637.7)" />
<use xlink:href="#f1_i" transform="matrix(12,0,0,12,572.2,637.7)" />
<use xlink:href="#f1_q" transform="matrix(12,0,0,12,584.4,637.7)" />
<use xlink:href="#f1_e" transform="matrix(12,0,0,12,588.5,637.7)" />
<use xlink:href="#f1_q" transform="matrix(12,0,0,12,598.9,637.7)" />
<use xlink:href="#f1_j" transform="matrix(12,0,0,12,603,637.7)" />
<use xlink:href="#f1_7" transform="matrix(12,0,0,12,610.5,637.7)" />
<use xlink:href="#f1_3" transform="matrix(12,0,0,12,620.9,637.7)" />
<use xlink:href="#f1_i" transform="matrix(12,0,0,12,638.6,637.7)" />
<use xlink:href="#f1_q" transform="matrix(12,0,0,12,650.8,637.7)" />
<use xlink:href="#f1_e" transform="matrix(12,0,0,12,654.9,637.7)" />
<use xlink:href="#f1_p" transform="matrix(12,0,0,12,665.3,637.7)" />
<use xlink:href="#f1_8" transform="matrix(12,0,0,12,676.8,637.7)" />
<use xlink:href="#f1_3" transform="matrix(12,0,0,12,688.2,637.7)" />
<use xlink:href="#f1_b" transform="matrix(12,0,0,12,706,637.7)" />
<use xlink:href="#f1_9" transform="matrix(12,0,0,12,718,637.7)" />
<use xlink:href="#f1_3" transform="matrix(12,0,0,12,736.2,637.7)" />
<use xlink:href="#f1_k" transform="matrix(12,0,0,12,748.1,637.7)" />
<use xlink:href="#f1_3" transform="matrix(12,0,0,12,760,637.7)" />
<use xlink:href="#f4_2" transform="matrix(13,0,0,13,275.8,637.7)" />
<use xlink:href="#f4_3" transform="matrix(13,0,0,13,290.9,637.7)" />
<use xlink:href="#f4_4" transform="matrix(13,0,0,13,298.1,637.7)" />
<use xlink:href="#f4_5" transform="matrix(13,0,0,13,310.7,637.7)" />
<use xlink:href="#f4_6" transform="matrix(13,0,0,13,321.1,637.7)" />
<use xlink:href="#f4_7" transform="matrix(13,0,0,13,333.2,637.7)" />
<use xlink:href="#f4_6" transform="matrix(13,0,0,13,340.7,637.7)" />
<use xlink:href="#f4_7" transform="matrix(13,0,0,13,352.7,637.7)" />
<use xlink:href="#f4_8" transform="matrix(13,0,0,13,360.2,637.7)" />
<use xlink:href="#f4_i" transform="matrix(13,0,0,13,380.5,637.7)" />
<use xlink:href="#f2_k" transform="matrix(12,0,0,12,261.9,637.7)" />
</g>
</g>
<path d="M226.3,642.8H772.4M118,665H772.4M118,685.1H772.4M118,705.1H772.4M118,725.3H772.4M118,745.3H772.4M118,765.5H772.4M118.4,664.6V765.9M226.7,642.4V765.9m195,-123.5V765.9M616.5,642.4V765.9M772,642.4V765.9" class="g1_3" />
<g clip-path="url(#c0_3)">
<g fill="#000000" >
<use xlink:href="#f1_9" transform="matrix(12,0,0,12,333.4,660.3)" />
<use xlink:href="#f1_k" transform="matrix(12,0,0,12,345.6,660.3)" />
<use xlink:href="#f1_f" transform="matrix(12,0,0,12,357.5,660.3)" />
<use xlink:href="#f1_e" transform="matrix(12,0,0,12,368,660.3)" />
<use xlink:href="#f0_6" transform="matrix(11,0,0,11,270.3,660.3)" />
<use xlink:href="#f0_1j" transform="matrix(11,0,0,11,277.7,660.3)" />
<use xlink:href="#f0_d" transform="matrix(11,0,0,11,286.1,660.3)" />
<use xlink:href="#f0_c" transform="matrix(11,0,0,11,294.5,660.3)" />
<use xlink:href="#f0_6" transform="matrix(11,0,0,11,300.2,660.3)" />
<use xlink:href="#f0_4" transform="matrix(11,0,0,11,307.5,660.3)" />
<use xlink:href="#f0_3" transform="matrix(11,0,0,11,314,660.3)" />
<use xlink:href="#f0_c" transform="matrix(11,0,0,11,321.5,660.3)" />
<use xlink:href="#f1_f" transform="matrix(12,0,0,12,501,660.3)" />
<use xlink:href="#f1_q" transform="matrix(12,0,0,12,511.5,660.3)" />
<use xlink:href="#f1_q" transform="matrix(12,0,0,12,515.6,660.3)" />
<use xlink:href="#f1_h" transform="matrix(12,0,0,12,519.7,660.3)" />
<use xlink:href="#f1_b" transform="matrix(12,0,0,12,537.4,660.3)" />
<use xlink:href="#f1_c" transform="matrix(12,0,0,12,549.5,660.3)" />
<use xlink:href="#f1_q" transform="matrix(12,0,0,12,554.5,660.3)" />
<use xlink:href="#f1_3" transform="matrix(12,0,0,12,558.6,660.3)" />
<use xlink:href="#f1_e" transform="matrix(12,0,0,12,570.5,660.3)" />
<use xlink:href="#f0_k" transform="matrix(11,0,0,11,457.4,660.3)" />
<use xlink:href="#f0_6" transform="matrix(11,0,0,11,465.8,660.3)" />
<use xlink:href="#f0_b" transform="matrix(11,0,0,11,473.3,660.3)" />
<use xlink:href="#f0_6" transform="matrix(11,0,0,11,481.7,660.3)" />
<use xlink:href="#f0_c" transform="matrix(11,0,0,11,489.1,660.3)" />
<use xlink:href="#f1_10" transform="matrix(12,0,0,12,691,660.3)" />
<use xlink:href="#f1_q" transform="matrix(12,0,0,12,702.6,660.3)" />
<use xlink:href="#f1_g" transform="matrix(12,0,0,12,706.7,660.3)" />
<use xlink:href="#f1_c" transform="matrix(12,0,0,12,718.6,660.3)" />
<use xlink:href="#f1_3" transform="matrix(12,0,0,12,723.7,660.3)" />
<use xlink:href="#f1_e" transform="matrix(12,0,0,12,735.6,660.3)" />
<use xlink:href="#f0_3" transform="matrix(11,0,0,11,642.9,660.3)" />
<use xlink:href="#f0_1b" transform="matrix(11,0,0,11,650.4,660.3)" />
<use xlink:href="#f0_3" transform="matrix(11,0,0,11,658.6,660.3)" />
<use xlink:href="#f0_k" transform="matrix(11,0,0,11,666.1,660.3)" />
<use xlink:href="#f0_e" transform="matrix(11,0,0,11,674.5,660.3)" />
<use xlink:href="#f0_c" transform="matrix(11,0,0,11,679.2,660.3)" />
<use xlink:href="#f0_10" transform="matrix(11,0,0,11,127.3,681.1)" />
<use xlink:href="#f0_9" transform="matrix(11,0,0,11,135.7,681.1)" />
<use xlink:href="#f0_5" transform="matrix(11,0,0,11,127.3,701.1)" />
<use xlink:href="#f0_x" transform="matrix(11,0,0,11,131.9,701.1)" />
<use xlink:href="#f0_j" transform="matrix(11,0,0,11,127.3,721.3)" />
<use xlink:href="#f0_7" transform="matrix(11,0,0,11,134.6,721.3)" />
<use xlink:href="#f0_11" transform="matrix(11,0,0,11,139.3,721.3)" />
<use xlink:href="#f0_6" transform="matrix(11,0,0,11,144,721.3)" />
<use xlink:href="#f0_7" transform="matrix(11,0,0,11,151.4,721.3)" />
<use xlink:href="#f0_7" transform="matrix(11,0,0,11,156.1,721.3)" />
<use xlink:href="#f0_3" transform="matrix(11,0,0,11,160.8,721.3)" />
<use xlink:href="#f0_11" transform="matrix(11,0,0,11,168.1,721.3)" />
<use xlink:href="#f0_12" transform="matrix(11,0,0,11,172.9,721.3)" />
<use xlink:href="#f0_k" transform="matrix(11,0,0,11,184.9,721.3)" />
<use xlink:href="#f0_13" transform="matrix(11,0,0,11,193.3,721.3)" />
<use xlink:href="#f0_8" transform="matrix(11,0,0,11,127.3,741.3)" />
<use xlink:href="#f0_9" transform="matrix(11,0,0,11,135.7,741.3)" />
<use xlink:href="#f0_4" transform="matrix(11,0,0,11,144.1,741.3)" />
<use xlink:href="#f0_9" transform="matrix(11,0,0,11,150.6,741.3)" />
<use xlink:href="#f0_5" transform="matrix(11,0,0,11,158.9,741.3)" />
<use xlink:href="#f0_c" transform="matrix(11,0,0,11,163.6,741.3)" />
<use xlink:href="#f0_9" transform="matrix(11,0,0,11,169.2,741.3)" />
<use xlink:href="#f0_4" transform="matrix(11,0,0,11,177.6,741.3)" />
<use xlink:href="#f0_11" transform="matrix(11,0,0,11,184,741.3)" />
<use xlink:href="#f0_3" transform="matrix(11,0,0,11,188.8,741.3)" />
<use xlink:href="#f0_4" transform="matrix(11,0,0,11,196.2,741.3)" />
<use xlink:href="#f0_6" transform="matrix(11,0,0,11,127.3,761.4)" />
<use xlink:href="#f0_7" transform="matrix(11,0,0,11,134.6,761.4)" />
<use xlink:href="#f0_7" transform="matrix(11,0,0,11,139.3,761.4)" />
<use xlink:href="#f0_9" transform="matrix(11,0,0,11,144,761.4)" />
<use xlink:href="#f0_4" transform="matrix(11,0,0,11,152.4,761.4)" />
<use xlink:href="#f0_11" transform="matrix(11,0,0,11,158.9,761.4)" />
<use xlink:href="#f0_3" transform="matrix(11,0,0,11,163.6,761.4)" />
<use xlink:href="#f0_4" transform="matrix(11,0,0,11,171,761.4)" />
<use xlink:href="#f0_11" transform="matrix(11,0,0,11,177.5,761.4)" />
<use xlink:href="#f0_12" transform="matrix(11,0,0,11,182.2,761.4)" />
<use xlink:href="#f0_k" transform="matrix(11,0,0,11,194.3,761.4)" />
<use xlink:href="#f0_4" transform="matrix(11,0,0,11,202.7,761.4)" />
<use xlink:href="#f0_13" transform="matrix(11,0,0,11,209.2,761.4)" />
</g>
<g fill="#0000FF" >
<use xlink:href="#f0_v" transform="matrix(12,0,0,12,687,801.6)" />
<use xlink:href="#f0_6" transform="matrix(12,0,0,12,699.7,801.6)" />
<use xlink:href="#f0_4" transform="matrix(12,0,0,12,708.1,801.6)" />
<use xlink:href="#f0_d" transform="matrix(12,0,0,12,715.7,801.6)" />
<use xlink:href="#f0_m" transform="matrix(12,0,0,12,725.2,801.6)" />
<use xlink:href="#f0_6" transform="matrix(12,0,0,12,734.8,801.6)" />
<use xlink:href="#f0_4" transform="matrix(12,0,0,12,743.2,801.6)" />
<use xlink:href="#f0_5" transform="matrix(12,0,0,12,750.8,801.6)" />
<use xlink:href="#f0_3" transform="matrix(12,0,0,12,756.1,801.6)" />
<use xlink:href="#f0_4" transform="matrix(12,0,0,12,764.7,801.6)" />
</g>
<g fill="#000000" >
<use xlink:href="#f1_v" transform="matrix(12,0,0,12,457.4,978.8)" />
<use xlink:href="#f1_3" transform="matrix(12,0,0,12,463.5,978.8)" />
<use xlink:href="#f1_c" transform="matrix(12,0,0,12,475.4,978.8)" />
<use xlink:href="#f1_c" transform="matrix(12,0,0,12,480.4,978.8)" />
<use xlink:href="#f1_3" transform="matrix(12,0,0,12,485.4,978.8)" />
<use xlink:href="#f1_f" transform="matrix(12,0,0,12,497.4,978.8)" />
<use xlink:href="#f1_i" transform="matrix(12,0,0,12,513.7,978.8)" />
<use xlink:href="#f1_q" transform="matrix(12,0,0,12,525.9,978.8)" />
<use xlink:href="#f1_9" transform="matrix(12,0,0,12,530,978.8)" />
<use xlink:href="#f1_f" transform="matrix(12,0,0,12,542.3,978.8)" />
<use xlink:href="#f1_3" transform="matrix(12,0,0,12,552.8,978.8)" />
<use xlink:href="#f1_i" transform="matrix(12,0,0,12,570.7,978.8)" />
<use xlink:href="#f1_q" transform="matrix(12,0,0,12,582.9,978.8)" />
<use xlink:href="#f1_j" transform="matrix(12,0,0,12,587,978.8)" />
<use xlink:href="#f1_q" transform="matrix(12,0,0,12,594.5,978.8)" />
<use xlink:href="#f1_7" transform="matrix(12,0,0,12,598.6,978.8)" />
<use xlink:href="#f1_h" transform="matrix(12,0,0,12,608.9,978.8)" />
<use xlink:href="#f1_3" transform="matrix(12,0,0,12,620.9,978.8)" />
<use xlink:href="#f1_i" transform="matrix(12,0,0,12,638.6,978.8)" />
<use xlink:href="#f1_q" transform="matrix(12,0,0,12,650.8,978.8)" />
<use xlink:href="#f1_e" transform="matrix(12,0,0,12,654.9,978.8)" />
<use xlink:href="#f1_p" transform="matrix(12,0,0,12,665.3,978.8)" />
<use xlink:href="#f1_8" transform="matrix(12,0,0,12,676.8,978.8)" />
<use xlink:href="#f1_3" transform="matrix(12,0,0,12,688.2,978.8)" />
<use xlink:href="#f1_b" transform="matrix(12,0,0,12,705.9,978.8)" />
<use xlink:href="#f1_9" transform="matrix(12,0,0,12,718,978.8)" />
<use xlink:href="#f1_3" transform="matrix(12,0,0,12,736.1,978.8)" />
<use xlink:href="#f1_k" transform="matrix(12,0,0,12,748.1,978.8)" />
<use xlink:href="#f1_3" transform="matrix(12,0,0,12,760,978.8)" />
<use xlink:href="#f4_2" transform="matrix(13,0,0,13,326.6,978.8)" />
<use xlink:href="#f4_3" transform="matrix(13,0,0,13,341.8,978.8)" />
<use xlink:href="#f4_4" transform="matrix(13,0,0,13,348.9,978.8)" />
<use xlink:href="#f4_5" transform="matrix(13,0,0,13,361.6,978.8)" />
<use xlink:href="#f4_6" transform="matrix(13,0,0,13,372,978.8)" />
<use xlink:href="#f4_7" transform="matrix(13,0,0,13,384.1,978.8)" />
<use xlink:href="#f4_6" transform="matrix(13,0,0,13,391.5,978.8)" />
<use xlink:href="#f4_7" transform="matrix(13,0,0,13,403.6,978.8)" />
<use xlink:href="#f4_8" transform="matrix(13,0,0,13,411.1,978.8)" />
<use xlink:href="#f4_j" transform="matrix(13,0,0,13,431.4,978.8)" />
<use xlink:href="#f2_k" transform="matrix(12,0,0,12,312.7,978.8)" />
</g>
</g>
<path d="M229.2,984H772.4m-651.6,41.4H772.4m-651.6,20.1H772.4m-651.6,20H772.4m-651.6,20.2H772.4m-651.6,20H772.4m-651.6,20.2H772.4M121.2,1025v101.3M229.6,983.6v142.7M338.1,983.6v142.7M446.6,983.6v142.7M555,983.6v142.7M663.7,983.6v142.7M772,983.6v142.7" class="g1_3" />
<g clip-path="url(#c0_3)">
<g fill="#000000" >
<use xlink:href="#f1_6" transform="matrix(12,0,0,12,270,1001.3)" />
<use xlink:href="#f1_q" transform="matrix(12,0,0,12,282.9,1001.3)" />
<use xlink:href="#f1_e" transform="matrix(12,0,0,12,287,1001.3)" />
<use xlink:href="#f1_r" transform="matrix(12,0,0,12,297.4,1001.3)" />
<use xlink:href="#f1_3" transform="matrix(12,0,0,12,307.5,1001.3)" />
<use xlink:href="#f1_e" transform="matrix(12,0,0,12,319.4,1001.3)" />
<use xlink:href="#f0_6" transform="matrix(11,0,0,11,269,1021.3)" />
<use xlink:href="#f0_8" transform="matrix(11,0,0,11,276.5,1021.3)" />
<use xlink:href="#f0_f" transform="matrix(11,0,0,11,284.9,1021.3)" />
<use xlink:href="#f0_6" transform="matrix(11,0,0,11,292.4,1021.3)" />
<use xlink:href="#f0_8" transform="matrix(11,0,0,11,299.8,1021.3)" />
<use xlink:href="#f0_k" transform="matrix(11,0,0,11,308.2,1021.3)" />
<use xlink:href="#f0_6" transform="matrix(11,0,0,11,316.6,1021.3)" />
<use xlink:href="#f0_c" transform="matrix(11,0,0,11,324,1021.3)" />
<use xlink:href="#f1_b" transform="matrix(12,0,0,12,391.9,1001.3)" />
<use xlink:href="#f1_c" transform="matrix(12,0,0,12,403.8,1001.3)" />
<use xlink:href="#f1_g" transform="matrix(12,0,0,12,408.8,1001.3)" />
<use xlink:href="#f1_d" transform="matrix(12,0,0,12,420.7,1001.3)" />
<use xlink:href="#f1_e" transform="matrix(12,0,0,12,428.1,1001.3)" />
<use xlink:href="#f0_d" transform="matrix(11,0,0,11,394.5,1021.3)" />
<use xlink:href="#f0_c" transform="matrix(11,0,0,11,402.7,1021.3)" />
<use xlink:href="#f0_9" transform="matrix(11,0,0,11,408.4,1021.3)" />
<use xlink:href="#f0_b" transform="matrix(11,0,0,11,416.8,1021.3)" />
<use xlink:href="#f0_3" transform="matrix(11,0,0,11,425.2,1021.3)" />
<use xlink:href="#f0_c" transform="matrix(11,0,0,11,432.6,1021.3)" />
<use xlink:href="#f1_r" transform="matrix(12,0,0,12,490.1,1001.3)" />
<use xlink:href="#f1_e" transform="matrix(12,0,0,12,500,1001.3)" />
<use xlink:href="#f1_c" transform="matrix(12,0,0,12,510.4,1001.3)" />
<use xlink:href="#f1_c" transform="matrix(12,0,0,12,515.5,1001.3)" />
<use xlink:href="#f1_q" transform="matrix(12,0,0,12,520.5,1001.3)" />
<use xlink:href="#f1_3" transform="matrix(12,0,0,12,524.6,1001.3)" />
<use xlink:href="#f1_e" transform="matrix(12,0,0,12,536.5,1001.3)" />
<use xlink:href="#f0_8" transform="matrix(11,0,0,11,510.4,1021.3)" />
<use xlink:href="#f0_3" transform="matrix(11,0,0,11,518.8,1021.3)" />
<use xlink:href="#f0_f" transform="matrix(11,0,0,11,526.2,1021.3)" />
<use xlink:href="#f0_6" transform="matrix(11,0,0,11,533.6,1021.3)" />
<use xlink:href="#f0_c" transform="matrix(11,0,0,11,541.1,1021.3)" />
<use xlink:href="#f1_7" transform="matrix(12,0,0,12,607.1,1001.3)" />
<use xlink:href="#f1_c" transform="matrix(12,0,0,12,617.5,1001.3)" />
<use xlink:href="#f1_h" transform="matrix(12,0,0,12,622.5,1001.3)" />
<use xlink:href="#f1_f" transform="matrix(12,0,0,12,634.5,1001.3)" />
<use xlink:href="#f1_e" transform="matrix(12,0,0,12,645,1001.3)" />
<use xlink:href="#f0_6" transform="matrix(11,0,0,11,617.1,1021.3)" />
<use xlink:href="#f0_7" transform="matrix(11,0,0,11,624.4,1021.3)" />
<use xlink:href="#f0_6" transform="matrix(11,0,0,11,629.1,1021.3)" />
<use xlink:href="#f0_n" transform="matrix(11,0,0,11,636.6,1021.3)" />
<use xlink:href="#f0_e" transform="matrix(11,0,0,11,645,1021.3)" />
<use xlink:href="#f0_c" transform="matrix(11,0,0,11,649.6,1021.3)" />
<use xlink:href="#f1_b" transform="matrix(12,0,0,12,714.5,1001.3)" />
<use xlink:href="#f1_c" transform="matrix(12,0,0,12,726.6,1001.3)" />
<use xlink:href="#f1_e" transform="matrix(12,0,0,12,731.6,1001.3)" />
<use xlink:href="#f1_p" transform="matrix(12,0,0,12,742,1001.3)" />
<use xlink:href="#f1_e" transform="matrix(12,0,0,12,753.5,1001.3)" />
<use xlink:href="#f0_r" transform="matrix(11,0,0,11,730.1,1021.3)" />
<use xlink:href="#f0_3" transform="matrix(11,0,0,11,738.5,1021.3)" />
<use xlink:href="#f0_7" transform="matrix(11,0,0,11,745.9,1021.3)" />
<use xlink:href="#f0_6" transform="matrix(11,0,0,11,750.6,1021.3)" />
<use xlink:href="#f0_c" transform="matrix(11,0,0,11,758,1021.3)" />
<use xlink:href="#f0_10" transform="matrix(10.5,0,0,10.5,129.9,1040.7)" />
<use xlink:href="#f0_9" transform="matrix(10.5,0,0,10.5,137.9,1040.7)" />
<use xlink:href="#f0_5" transform="matrix(10.5,0,0,10.5,129.9,1060.9)" />
<use xlink:href="#f0_x" transform="matrix(10.5,0,0,10.5,134.3,1060.9)" />
<use xlink:href="#f0_j" transform="matrix(10.5,0,0,10.5,129.9,1080.9)" />
<use xlink:href="#f0_7" transform="matrix(10.5,0,0,10.5,137,1080.9)" />
<use xlink:href="#f0_11" transform="matrix(10.5,0,0,10.5,141.5,1080.9)" />
<use xlink:href="#f0_6" transform="matrix(10.5,0,0,10.5,145.9,1080.9)" />
<use xlink:href="#f0_7" transform="matrix(10.5,0,0,10.5,153.1,1080.9)" />
<use xlink:href="#f0_7" transform="matrix(10.5,0,0,10.5,157.5,1080.9)" />
<use xlink:href="#f0_3" transform="matrix(10.5,0,0,10.5,161.9,1080.9)" />
<use xlink:href="#f0_11" transform="matrix(10.5,0,0,10.5,169.1,1080.9)" />
<use xlink:href="#f0_12" transform="matrix(10.5,0,0,10.5,173.5,1080.9)" />
<use xlink:href="#f0_k" transform="matrix(10.5,0,0,10.5,185,1080.9)" />
<use xlink:href="#f0_13" transform="matrix(10.5,0,0,10.5,193,1080.9)" />
<use xlink:href="#f0_8" transform="matrix(10.5,0,0,10.5,129.9,1101.1)" />
<use xlink:href="#f0_9" transform="matrix(10.5,0,0,10.5,137.9,1101.1)" />
<use xlink:href="#f0_4" transform="matrix(10.5,0,0,10.5,145.9,1101.1)" />
<use xlink:href="#f0_9" transform="matrix(10.5,0,0,10.5,152.1,1101.1)" />
<use xlink:href="#f0_5" transform="matrix(10.5,0,0,10.5,160.2,1101.1)" />
<use xlink:href="#f0_c" transform="matrix(10.5,0,0,10.5,164.6,1101.1)" />
<use xlink:href="#f0_9" transform="matrix(10.5,0,0,10.5,169.8,1101.1)" />
<use xlink:href="#f0_4" transform="matrix(10.5,0,0,10.5,177.9,1101.1)" />
<use xlink:href="#f0_11" transform="matrix(10.5,0,0,10.5,184.2,1101.1)" />
<use xlink:href="#f0_3" transform="matrix(10.5,0,0,10.5,188.6,1101.1)" />
<use xlink:href="#f0_4" transform="matrix(10.5,0,0,10.5,195.8,1101.1)" />
<use xlink:href="#f0_6" transform="matrix(10.5,0,0,10.5,129.9,1121.1)" />
<use xlink:href="#f0_7" transform="matrix(10.5,0,0,10.5,137,1121.1)" />
<use xlink:href="#f0_7" transform="matrix(10.5,0,0,10.5,141.5,1121.1)" />
<use xlink:href="#f0_9" transform="matrix(10.5,0,0,10.5,145.9,1121.1)" />
<use xlink:href="#f0_4" transform="matrix(10.5,0,0,10.5,154,1121.1)" />
<use xlink:href="#f0_11" transform="matrix(10.5,0,0,10.5,160.2,1121.1)" />
<use xlink:href="#f0_3" transform="matrix(10.5,0,0,10.5,164.5,1121.1)" />
<use xlink:href="#f0_4" transform="matrix(10.5,0,0,10.5,171.7,1121.1)" />
<use xlink:href="#f0_11" transform="matrix(10.5,0,0,10.5,177.9,1121.1)" />
<use xlink:href="#f0_12" transform="matrix(10.5,0,0,10.5,182.3,1121.1)" />
<use xlink:href="#f0_k" transform="matrix(10.5,0,0,10.5,193.9,1121.1)" />
<use xlink:href="#f0_4" transform="matrix(10.5,0,0,10.5,201.9,1121.1)" />
<use xlink:href="#f0_13" transform="matrix(10.5,0,0,10.5,208.1,1121.1)" />
</g>
</g>
<defs>
<path d="M186,-14c0,0,-95,0,-154,22V190H81L104,86c0,0,14,-17,40,-26c0,0,26,-10,57,-10c0,0,105,0,105,141V941L178,960v40H562V960L449,941V322c0,0,0,-100,-30,-175c0,0,-31,-74,-93,-118c0,0,-63,-43,-140,-43Z" 
id="f0_18"
transform="scale(0.001,-0.001)" />

<path d="M289,-14c0,0,-179,0,-179,205V649L20,668v33H233V200c0,0,0,-128,120,-128c0,0,92,0,173,23V649L420,668v33H649V52L738,33V0H533l-6,57C527,57,474,28,405,7c0,0,-69,-21,-116,-21Z" 
id="f0_m"
transform="scale(0.001,-0.001)" />

<path d="M284,67c0,0,51,0,88,12c0,0,37,12,74,30V358l-98,-3c0,0,-100,-4,-135,-39c0,0,-35,-35,-35,-117c0,0,0,-132,106,-132ZM233,-14c0,0,-179,0,-179,208c0,0,0,70,27,116c0,0,27,46,87,70c0,0,60,24,173,27l105,3V519c0,0,0,72,-26,107c0,0,-27,34,-82,34c0,0,-75,0,-137,-35L176,538H134V691c0,0,121,26,213,26c0,0,115,0,169,-47c0,0,54,-47,54,-144V52L657,33V0H465L451,70c0,0,-85,-84,-218,-84Z" 
id="f0_3"
transform="scale(0.001,-0.001)" />

<path d="M439,0V33l93,19V500c0,0,0,62,-30,97c0,0,-31,36,-94,36c0,0,-67,0,-165,-22V52L338,33V0H35V33l84,19V649L35,668v33H235l7,-57c0,0,57,33,122,54c0,0,65,22,108,22c0,0,91,0,137,-53c0,0,47,-53,47,-154V52L741,33V0Z" 
id="f0_8"
transform="scale(0.001,-0.001)" />

<path d="M577,-14c0,0,-243,0,-379,131C198,117,63,248,63,488c0,0,0,263,131,393c0,0,132,130,386,130c0,0,182,0,352,-45V751H882L862,875c0,0,-52,37,-124,57c0,0,-72,19,-152,19c0,0,-191,0,-279,-113c0,0,-88,-114,-88,-348c0,0,0,-220,91,-333c0,0,91,-114,269,-114c0,0,63,0,131,15c0,0,69,15,105,36V377L686,397v40h370V397L958,377V52C958,52,871,24,778,5c0,0,-93,-19,-201,-19Z" 
id="f0_19"
transform="scale(0.001,-0.001)" />

<path d="M31,0V33L150,52v956L31,1026v34H274V52L394,33V0Z" 
id="f0_7"
transform="scale(0.001,-0.001)" />

<path d="M359,-270c0,0,124,0,192,46c0,0,67,47,67,129c0,0,0,43,-26,67c0,0,-26,24,-79,24H242c0,0,-32,-27,-51,-69c0,0,-20,-41,-20,-77c0,0,0,-64,46,-92c0,0,46,-28,142,-28Zm11,561c0,0,81,0,115,47c0,0,34,47,34,141c0,0,0,100,-35,142c0,0,-35,42,-113,42c0,0,-78,0,-114,-43c0,0,-37,-42,-37,-141c0,0,0,-98,36,-143c0,0,36,-45,114,-45ZM359,-329c0,0,-143,0,-218,44c0,0,-75,43,-75,125c0,0,0,39,27,78c0,0,26,38,98,89c0,0,-43,14,-72,48c0,0,-29,35,-29,74L208,262c0,0,-118,55,-118,217c0,0,0,115,73,178c0,0,73,63,211,63c0,0,28,0,71,-6c0,0,44,-6,67,-13l165,83l26,-32L599,644c0,0,50,-56,50,-165c0,0,0,-120,-72,-182c0,0,-73,-62,-208,-62c0,0,-62,0,-114,11L208,148c0,0,2,-13,29,-24c0,0,27,-12,67,-12H512c0,0,113,0,168,-49c0,0,55,-49,55,-134c0,0,0,-79,-44,-137c0,0,-43,-58,-128,-90c0,0,-84,-31,-204,-31Z" 
id="f0_n"
transform="scale(0.001,-0.001)" />

<path d="M-11,-196v76H776v-76Z" 
id="f0_15"
transform="scale(0.001,-0.001)" />

<path d="M431,0V33L535,52V499c0,0,0,62,-32,96c0,0,-32,33,-95,33c0,0,-66,0,-163,-22V52L350,33V0H32V33l89,19V649L32,668v33H237l6,-57c0,0,56,32,119,54c0,0,62,22,110,22c0,0,52,0,95,-20c0,0,44,-19,66,-62c0,0,57,32,134,57c0,0,77,25,128,25c0,0,179,0,179,-207V52l90,-19V0H846V33L950,52V499c0,0,0,129,-119,129c0,0,-19,0,-45,-3c0,0,-26,-3,-52,-7c0,0,-25,-4,-49,-8c0,0,-23,-5,-39,-8c0,0,13,-41,13,-89V52L764,33V0Z" 
id="f0_i"
transform="scale(0.001,-0.001)" />

<path d="M31,0V33l88,19V649L31,668v33H235l7,-87c0,0,44,37,121,71c0,0,76,35,121,35h11V530H463l-43,82c0,0,-37,0,-88,-10c0,0,-52,-10,-89,-26V52L363,33V0Z" 
id="f0_c"
transform="scale(0.001,-0.001)" />

<path d="M32,0V33L151,52V649L52,668v33H275V52L395,33V0ZM201,850c0,0,-32,0,-56,24c0,0,-24,24,-24,56c0,0,0,34,24,58c0,0,24,24,56,24c0,0,34,0,58,-24c0,0,24,-24,24,-58c0,0,0,-32,-24,-56c0,0,-24,-24,-58,-24Z" 
id="f0_e"
transform="scale(0.001,-0.001)" />

<path d="M495,413c0,0,0,133,-34,190c0,0,-34,57,-105,57c0,0,-78,0,-119,-63c0,0,-42,-62,-42,-184ZM374,-14c0,0,-163,0,-239,87c0,0,-75,88,-75,283c0,0,0,183,77,273c0,0,76,91,219,91c0,0,269,0,269,-306V353H194V340c0,0,0,-103,23,-160c0,0,22,-57,70,-87c0,0,47,-29,124,-29c0,0,40,0,96,6c0,0,55,7,91,15V43C598,43,562,20,500,3c0,0,-61,-17,-126,-17Z" 
id="f0_6"
transform="scale(0.001,-0.001)" />

<path d="M377,45c0,0,99,0,147,73c0,0,47,73,47,237c0,0,0,161,-47,233c0,0,-47,72,-147,72c0,0,-97,0,-141,-69c0,0,-44,-69,-44,-236c0,0,0,-169,45,-240c0,0,44,-70,140,-70Zm0,-59c0,0,-158,0,-238,94c0,0,-81,95,-81,274c0,0,0,178,81,272c0,0,80,94,244,94c0,0,160,0,241,-92c0,0,82,-92,82,-274c0,0,0,-368,-329,-368Z" 
id="f0_9"
transform="scale(0.001,-0.001)" />

<path d="M191,-20c0,0,-39,0,-65,25c0,0,-25,27,-25,64c0,0,0,38,26,64c0,0,26,26,64,26c0,0,38,0,64,-26c0,0,26,-26,26,-64c0,0,0,-37,-25,-64c0,0,-26,-25,-65,-25Z" 
id="f0_13"
transform="scale(0.001,-0.001)" />

<path d="M163,0V190H321V0Z" 
id="f1_m"
transform="scale(0.001,-0.001)" />

<path d="M102,312V836H241V369L102,312Z" 
id="f1_q"
transform="scale(0.001,-0.001)" />

<path d="M139,0V138c0,0,0,61,8,112c0,0,7,52,19,87c0,0,11,36,30,66c0,0,19,31,35,49c0,0,17,19,41,35c0,0,25,17,41,25c0,0,17,7,40,17L141,836H303L613,388c0,0,20,10,33,18c0,0,13,8,34,28c0,0,20,20,33,44c0,0,13,25,22,66c0,0,10,41,10,92V836H882V698c0,0,0,-61,-7,-112c0,0,-6,-52,-18,-88c0,0,-12,-36,-30,-66c0,0,-19,-30,-36,-49c0,0,-17,-18,-41,-34c0,0,-24,-17,-40,-25c0,0,-17,-8,-41,-17L882,0H720L409,448c0,0,-21,-11,-34,-19c0,0,-13,-8,-34,-27c0,0,-21,-20,-34,-44c0,0,-12,-25,-22,-66c0,0,-9,-41,-9,-92V0Z" 
id="f1_9"
transform="scale(0.001,-0.001)" />

<path d="M114,0l60,312c0,0,2,12,8,39c0,0,6,27,7,37c0,0,2,11,5,30c0,0,2,19,4,33c0,0,1,15,1,31c0,0,0,48,-35,146c0,0,-35,98,-98,208H228c0,0,3,-8,27,-67c0,0,25,-58,41,-117c0,0,21,53,50,90c0,0,29,37,57,57c0,0,29,21,65,32c0,0,37,11,65,14c0,0,28,3,67,3c0,0,300,0,300,-396V0H480V106H761V452c0,0,0,146,-46,215c0,0,-45,70,-118,70c0,0,-134,0,-198,-119c0,0,-36,-68,-67,-222c0,0,-2,-10,-6,-27L253,0Z" 
id="f1_l"
transform="scale(0.001,-0.001)" />

<path d="M139,0V836H278V0Z" 
id="f1_c"
transform="scale(0.001,-0.001)" />

<path d="M154,0V454l138,56V0ZM722,0V454c0,0,0,161,-49,218c0,0,-48,57,-186,57H139V836H485c0,0,207,0,291,-93c0,0,83,-94,83,-318V0Z" 
id="f1_3"
transform="scale(0.001,-0.001)" />

<path d="M138,-7c0,0,-34,0,-72,10V129c0,0,25,-8,52,-8c0,0,33,0,58,5c0,0,26,5,58,24c0,0,33,20,53,54c0,0,21,34,36,97c0,0,15,64,15,151c0,0,0,113,-19,173c0,0,-19,60,-56,82c0,0,-38,22,-107,22H89V836h72c0,0,165,0,240,-91c0,0,76,-91,76,-293c0,0,0,-107,26,-227c0,0,25,-119,83,-225H437c0,0,-43,101,-62,184c0,0,-24,-60,-51,-99c0,0,-26,-38,-56,-58C268,27,239,7,209,0c0,0,-30,-7,-71,-7Z" 
id="f1_j"
transform="scale(0.001,-0.001)" />

<path d="M287,0L589,729H66v386H205V836l547,-1l-2,-82L433,0Z" 
id="f1_e"
transform="scale(0.001,-0.001)" />

<path d="M139,-317V836H278V-317Z" 
id="f1_t"
transform="scale(0.001,-0.001)" />

<path d="M139,0V836H485c0,0,206,0,290,-90c0,0,84,-89,84,-294V0H721V473c0,0,0,147,-49,202c0,0,-48,54,-186,54H277V0Z" 
id="f1_h"
transform="scale(0.001,-0.001)" />

<path d="M148,-329c0,0,-58,0,-114,13v151H69l24,-71c0,0,23,-17,64,-17c0,0,39,0,72,22c0,0,33,23,60,67c0,0,27,44,68,157L90,649L19,668v33H344V668L233,648L423,158L606,649L497,668v33H758V668L685,652L411,-43c0,0,-48,-124,-84,-177c0,0,-36,-54,-79,-82c0,0,-44,-27,-100,-27Z" 
id="f0_10"
transform="scale(0.001,-0.001)" />

<path d="M278,-14c0,0,-52,0,-115,11c0,0,-63,10,-99,23V193H98L134,95c0,0,56,-50,146,-50c0,0,144,0,144,123c0,0,0,91,-114,130l-66,21c0,0,-75,25,-110,50c0,0,-34,26,-53,63c0,0,-18,36,-18,89c0,0,0,92,63,145c0,0,63,54,170,54c0,0,77,0,193,-23V544H454l-32,81c0,0,-39,35,-124,35c0,0,-61,0,-92,-30c0,0,-32,-30,-32,-80c0,0,0,-43,29,-72c0,0,28,-29,86,-48c0,0,110,-38,144,-55c0,0,33,-17,57,-42c0,0,23,-25,36,-57c0,0,13,-32,13,-79c0,0,0,-104,-66,-158c0,0,-66,-53,-195,-53Z" 
id="f0_4"
transform="scale(0.001,-0.001)" />

<path d="M585,0V426c0,0,0,54,-8,98c0,0,-8,44,-27,83c0,0,-19,40,-49,66c0,0,-30,26,-77,41c0,0,-47,15,-108,15H66V836H315c0,0,94,0,166,-20c0,0,71,-20,116,-54c0,0,46,-35,75,-88c0,0,28,-52,40,-112c0,0,12,-60,12,-137V0Z" 
id="f1_7"
transform="scale(0.001,-0.001)" />

<path d="M66,0V107H554V452c0,0,0,56,-4,93c0,0,-4,37,-18,75c0,0,-14,38,-40,60c0,0,-26,22,-71,36c0,0,-45,13,-110,13H66V836H312c0,0,91,0,157,-17c0,0,66,-17,109,-49c0,0,44,-32,69,-84c0,0,26,-52,36,-114c0,0,10,-62,10,-147V107H817V0Z" 
id="f1_f"
transform="scale(0.001,-0.001)" />

<path d="M495,0V729H66V836H781V729H634V0Z" 
id="f1_r"
transform="scale(0.001,-0.001)" />

<path d="M152,0V473c0,0,0,94,28,161c0,0,29,66,71,95H66V836H463V729H404c0,0,-65,0,-89,-57c0,0,-25,-58,-25,-199V0Z" 
id="f1_4"
transform="scale(0.001,-0.001)" />

<path d="M557,-14c0,0,-199,0,-298,89c0,0,-99,90,-99,255V941L32,960v40H432V960L304,941V341c0,0,0,-273,264,-273c0,0,144,0,220,68c0,0,77,68,77,202V941L730,960v40h341V960L943,941V344c0,0,0,-180,-99,-269c0,0,-99,-89,-287,-89Z" 
id="f0_12"
transform="scale(0.001,-0.001)" />

<path d="M383,64c0,0,85,0,152,28V645c0,0,-67,13,-152,13c0,0,-194,0,-194,-314c0,0,0,-141,48,-211c0,0,48,-69,146,-69ZM342,-14c0,0,-287,0,-287,358c0,0,0,184,82,280c0,0,81,96,239,96c0,0,81,0,163,-18c0,0,-4,25,-4,124v182l-118,18v34H659V52L745,33V0H548l-9,52c0,0,-84,-66,-197,-66Z" 
id="f0_k"
transform="scale(0.001,-0.001)" />

<path d="M383,64c0,0,44,0,87,7c0,0,43,7,65,17V645c0,0,-67,13,-152,13c0,0,-194,0,-194,-309c0,0,0,-143,48,-214c0,0,47,-71,146,-71Zm56,-389v35l96,18V-77c0,0,0,73,7,124c0,0,-79,-61,-200,-61c0,0,-287,0,-287,362c0,0,0,180,81,276c0,0,81,96,237,96c0,0,84,0,166,-18l67,33h53V-272l77,-18v-35Z" 
id="f0_l"
transform="scale(0.001,-0.001)" />

<path d="M32,0V34L151,52V649L52,668v33H275V52L395,34V0Zm71,835v24l146,203H408v-27L144,835Z" 
id="f0_p"
transform="scale(0.001,-0.001)" />

<path d="M410,-14c0,0,-80,0,-162,14c0,0,-81,14,-144,38V270h48L178,134c0,0,28,-35,95,-62c0,0,68,-27,134,-27c0,0,104,0,163,53c0,0,58,54,58,148c0,0,0,54,-23,89c0,0,-22,35,-59,59c0,0,-37,24,-84,41c0,0,-47,17,-97,34c0,0,-49,17,-96,38c0,0,-47,21,-84,53c0,0,-37,32,-60,79c0,0,-23,48,-23,117c0,0,0,119,90,187c0,0,89,68,248,68c0,0,121,0,263,-32V771H654L628,893c0,0,-76,55,-188,55c0,0,-100,0,-156,-40c0,0,-56,-41,-56,-112c0,0,0,-49,22,-81c0,0,23,-32,60,-55c0,0,37,-22,84,-39c0,0,48,-16,97,-34c0,0,50,-17,97,-39c0,0,48,-22,85,-56c0,0,36,-34,59,-83c0,0,23,-49,23,-120c0,0,0,-145,-89,-224c0,0,-89,-79,-256,-79Z" 
id="f0_1a"
transform="scale(0.001,-0.001)" />

<path d="M35,0V34l84,18V649L35,668v33H235l7,-56c0,0,57,32,122,54c0,0,65,21,108,21c0,0,91,0,137,-53c0,0,47,-53,47,-154V52L741,34V0H439V34l93,18V500c0,0,0,62,-30,97c0,0,-31,36,-94,36c0,0,-67,0,-165,-22V52L338,34V0ZM481,834c0,0,-36,0,-66,16c0,0,-30,16,-57,36c0,0,-27,20,-52,36c0,0,-25,16,-49,16c0,0,-24,0,-39,-9c0,0,-14,-9,-23,-26c0,0,-8,-17,-13,-54H143c0,0,11,180,146,180c0,0,36,0,66,-16c0,0,30,-16,57,-35c0,0,27,-20,52,-36c0,0,25,-16,49,-16c0,0,32,0,50,18c0,0,18,19,25,70h39c0,0,-12,-180,-146,-180Z" 
id="f0_1b"
transform="scale(0.001,-0.001)" />

<path d="M54,0V40L172,60V941L44,960v40H794V760H745L721,922c0,0,-83,11,-241,11H316V516H611l23,120h46V328H634L611,449H316V60L483,40V0Z" 
id="f0_1d"
transform="scale(0.001,-0.001)" />

<path d="M376,50c0,0,103,0,149,80c0,0,46,81,46,240c0,0,0,137,-47,204c0,0,-48,67,-148,67c0,0,-44,0,-87,-7c0,0,-44,-8,-63,-17V62c0,0,63,-12,150,-12Zm3,-64c0,0,-64,0,-141,14c0,0,-78,14,-136,37v971L0,1026v34H226V809c0,0,0,-40,-4,-148c0,0,74,59,188,59c0,0,143,0,219,-87c0,0,77,-87,77,-263c0,0,0,-189,-84,-287c0,0,-84,-97,-243,-97Z" 
id="f0_b"
transform="scale(0.001,-0.001)" />

<path d="M139,0V106H400c0,0,176,0,253,71c0,0,78,72,78,250c0,0,0,163,-80,233c0,0,-81,69,-250,69H278L277,564c0,0,-1,-54,26,-80c0,0,27,-25,82,-25c0,0,30,0,80,9V355c0,0,-61,-12,-111,-12c0,0,-100,0,-157,55c0,0,-58,55,-58,186V836H456c0,0,193,0,303,-109c0,0,110,-109,110,-309c0,0,0,-200,-110,-309C759,109,648,0,456,0Z" 
id="f1_8"
transform="scale(0.001,-0.001)" />

<path d="M66,0V106H322c0,0,75,0,127,23c0,0,53,23,82,67c0,0,29,43,42,98c0,0,13,54,13,124c0,0,0,70,-13,124c0,0,-13,55,-42,98c0,0,-29,44,-82,67c0,0,-52,23,-127,23H66V836H322c0,0,87,0,157,-24c0,0,70,-24,115,-64c0,0,45,-40,74,-94c0,0,30,-55,43,-113c0,0,13,-59,13,-123c0,0,0,-64,-13,-123c0,0,-13,-58,-43,-113c0,0,-29,-54,-74,-94C594,88,549,48,479,24C479,24,409,0,322,0Z" 
id="f1_n"
transform="scale(0.001,-0.001)" />

<path d="M736,107V473c0,0,0,147,-48,202c0,0,-49,54,-187,54H278V107ZM139,0V836H499c0,0,105,0,177,-22c0,0,72,-21,116,-69c0,0,44,-49,64,-119c0,0,19,-71,19,-174V0Z" 
id="f1_i"
transform="scale(0.001,-0.001)" />

<path d="M112,-5c0,0,-39,0,-97,11V113c0,0,48,-10,77,-10c0,0,53,0,70,42c0,0,17,43,17,164V729H50V836H501c0,0,107,0,179,-25c0,0,72,-25,112,-77c0,0,40,-51,57,-118c0,0,16,-67,16,-164V0H726V454c0,0,0,55,-3,92c0,0,-4,37,-17,75c0,0,-14,38,-38,59c0,0,-24,22,-65,36c0,0,-42,13,-102,13H318V309c0,0,0,-160,-46,-237C272,72,226,-5,112,-5Z" 
id="f1_b"
transform="scale(0.001,-0.001)" />

<path d="M44,0V40L172,60V941L44,960v40H794V760H745L721,922c0,0,-83,11,-241,11H316V543H586l23,119h48V354H609L586,475H316V67H513c0,0,193,0,252,12l43,185h49L843,0Z" 
id="f0_1e"
transform="scale(0.001,-0.001)" />

<path d="M442,0V33l93,19V504c0,0,0,129,-124,129c0,0,-70,0,-168,-22V52L338,33V0H31V33l88,19v956L15,1026v34H243V756c0,0,0,-77,-5,-112c0,0,54,31,122,53c0,0,68,23,115,23c0,0,91,0,137,-53c0,0,47,-53,47,-154V52L744,33V0Z" 
id="f0_o"
transform="scale(0.001,-0.001)" />

<path d="M249,-14c0,0,-71,0,-107,42c0,0,-35,42,-35,119V639H15v33l93,29l76,159h47V701H391V639H231V161c0,0,0,-48,22,-73c0,0,22,-24,57,-24c0,0,44,0,106,12V26C416,26,389,8,340,-2c0,0,-49,-12,-91,-12Z" 
id="f0_5"
transform="scale(0.001,-0.001)" />

<path d="M577,-14c0,0,-243,0,-379,132C198,118,63,250,63,488c0,0,0,258,130,391c0,0,131,132,387,132c0,0,156,0,335,-38l5,-218H871L848,884c0,0,-52,32,-121,50c0,0,-69,17,-141,17c0,0,-191,0,-279,-112c0,0,-88,-113,-88,-349c0,0,0,-217,92,-332c0,0,92,-115,268,-115c0,0,85,0,160,20c0,0,76,21,120,55l27,149h49L930,32c0,0,-164,-46,-353,-46Z" 
id="f0_2"
transform="scale(0.001,-0.001)" />

<path d="M377,44c0,0,99,0,147,73c0,0,47,73,47,237c0,0,0,161,-47,234c0,0,-47,72,-147,72c0,0,-97,0,-141,-69c0,0,-44,-70,-44,-237c0,0,0,-169,45,-239c0,0,44,-71,140,-71Zm0,-58c0,0,-158,0,-238,94c0,0,-81,95,-81,274c0,0,0,178,81,272c0,0,80,94,244,94c0,0,160,0,241,-92c0,0,82,-92,82,-274c0,0,0,-368,-329,-368ZM301,835v24l147,203H606v-27L342,835Z" 
id="f0_g"
transform="scale(0.001,-0.001)" />

<path d="M399,-14c0,0,-341,0,-341,370c0,0,0,175,87,269c0,0,87,95,249,95c0,0,101,0,220,-23V501H573L541,625c0,0,-62,35,-149,35c0,0,-200,0,-200,-304c0,0,0,-158,61,-225c0,0,61,-67,189,-67c0,0,109,0,189,24V43C631,43,595,16,530,1c0,0,-64,-15,-131,-15Z" 
id="f0_f"
transform="scale(0.001,-0.001)" />

<path d="M156,-317V454l139,56V-317ZM505,0L806,729H139V835H967V753L650,0Z" 
id="f1_6"
transform="scale(0.001,-0.001)" />

<path d="M522,92c0,0,247,0,247,333c0,0,0,88,-17,146c0,0,-17,58,-53,91c0,0,-35,33,-82,46c0,0,-48,14,-116,14H276V419c0,0,0,-327,246,-327Zm0,-112c0,0,-193,0,-289,109c0,0,-95,110,-95,337V836H501c0,0,213,0,309,-93c0,0,96,-94,96,-317c0,0,0,-227,-95,-337C811,89,715,-20,522,-20Z" 
id="f1_g"
transform="scale(0.001,-0.001)" />

<path d="M66,0V106H564L66,836H228L516,413c0,0,3,2,9,6c0,0,17,13,27,21c0,0,10,8,26,27c0,0,17,20,26,40c0,0,9,21,16,54c0,0,7,34,7,75V836H764V698c0,0,0,-55,-7,-102c0,0,-7,-47,-16,-79c0,0,-10,-33,-27,-62c0,0,-18,-29,-32,-46c0,0,-14,-17,-37,-35c0,0,-22,-17,-36,-25c0,0,-13,-8,-36,-20L767,53V0Z" 
id="f1_s"
transform="scale(0.001,-0.001)" />

<path d="M66,0V107H332V555c0,0,0,92,-37,133c0,0,-37,41,-116,41H85V836h94c0,0,153,0,223,-66c0,0,69,-66,69,-231V0Z" 
id="f1_d"
transform="scale(0.001,-0.001)" />

<path d="M306,-20c0,0,-39,0,-65,25c0,0,-25,27,-25,64c0,0,0,38,26,64c0,0,26,26,64,26c0,0,37,0,63,-25c0,0,26,-26,26,-65c0,0,0,-37,-25,-64c0,0,-26,-25,-64,-25ZM269,261L249,510l107,22c0,0,64,13,93,65c0,0,29,52,29,152c0,0,0,109,-39,154c0,0,-40,45,-140,45c0,0,-83,0,-145,-36L128,789H79V979c0,0,118,32,220,32c0,0,316,0,316,-253c0,0,0,-121,-60,-195c0,0,-60,-74,-175,-98l-42,-9L328,261Z" 
id="f0_1f"
transform="scale(0.001,-0.001)" />

<path d="M291,0V190H443V0Zm5,299V414c0,0,0,75,21,124c0,0,21,48,88,113l67,66c0,0,42,40,61,75c0,0,19,35,19,71c0,0,0,67,-48,108c0,0,-49,41,-130,41c0,0,-59,0,-125,-26c0,0,-67,-26,-139,-77v140c0,0,70,43,142,64c0,0,72,21,148,21c0,0,138,0,221,-72c0,0,83,-73,83,-191c0,0,0,-57,-27,-108c0,0,-27,-51,-94,-115L517,583c0,0,-34,-35,-49,-54c0,0,-14,-20,-20,-39c0,0,-5,-16,-7,-38c0,0,-2,-22,-2,-61V299Z" 
id="f1_14"
transform="scale(0.001,-0.001)" />

<path d="M180,0L66,836H203L258,443c0,0,36,1,64,6c0,0,28,6,49,18c0,0,20,12,35,26c0,0,15,13,26,36c0,0,11,24,17,44c0,0,7,20,12,55c0,0,6,34,9,60c0,0,3,26,8,71c0,0,4,45,9,77H610c0,0,-13,-194,-31,-271c0,0,-31,-127,-111,-179c0,0,-71,-45,-196,-50L304,107c0,0,73,0,130,5c0,0,56,6,111,21c0,0,54,15,94,40c0,0,40,25,77,64c0,0,37,39,63,94c0,0,25,54,46,128c0,0,21,73,34,166c0,0,13,94,20,211h138c0,0,-14,-124,-29,-218c0,0,-16,-94,-39,-179c0,0,-22,-85,-50,-146c0,0,-28,-61,-68,-112c0,0,-39,-51,-87,-84C744,97,696,65,632,42C632,42,568,19,492,10C492,10,417,0,320,0Z" 
id="f1_o"
transform="scale(0.001,-0.001)" />

<path d="M448,506c0,0,134,0,190,49c0,0,57,50,57,168c0,0,0,114,-56,162c0,0,-56,48,-195,48H316V506ZM777,0L496,438H316V60L468,40V0H54V40L172,60V941L44,960v40H476c0,0,188,0,277,-63c0,0,90,-64,90,-204c0,0,0,-100,-54,-173c0,0,-55,-73,-151,-101L909,60L1017,40V0Z" 
id="f0_v"
transform="scale(0.001,-0.001)" />

<path d="M382,45c0,0,188,0,188,314c0,0,0,143,-47,213c0,0,-46,69,-141,69c0,0,-87,0,-146,-24V58c0,0,67,-13,146,-13ZM25,-325v35l88,18V649L34,668v33H231l1,-41c0,0,31,27,84,43c0,0,53,17,107,17c0,0,134,0,208,-94c0,0,73,-93,73,-267c0,0,0,-178,-80,-276c0,0,-80,-97,-232,-97c0,0,-84,0,-160,16c0,0,4,-53,4,-84V-272l123,-18v-35Z" 
id="f0_d"
transform="scale(0.001,-0.001)" />

<path d="M679,178V467c0,0,0,110,-32,150c0,0,-31,41,-120,41H385V178ZM139,0V836H525c0,0,220,0,311,-90c0,0,90,-90,90,-297V0Z" 
id="f2_f"
transform="scale(0.001,-0.001)" />

<path d="M102,250V836H349V351L102,250Z" 
id="f2_g"
transform="scale(0.001,-0.001)" />

<path d="M248,0L521,658H66v429H313V836l493,-1V716L504,0Z" 
id="f2_h"
transform="scale(0.001,-0.001)" />

<path d="M66,0V177H334c0,0,99,0,150,66c0,0,51,67,51,175c0,0,0,108,-51,175c0,0,-51,66,-150,66H66V836H334c0,0,92,0,168,-24c0,0,75,-24,127,-64c0,0,51,-40,86,-94c0,0,35,-54,51,-113c0,0,15,-60,15,-123c0,0,0,-63,-15,-123c0,0,-16,-59,-51,-113c0,0,-35,-54,-86,-94C629,88,577,48,502,24C502,24,426,0,334,0Z" 
id="f2_i"
transform="scale(0.001,-0.001)" />

<path d="M173,-6C173,-6,61,-6,15,9V177c0,0,73,-10,82,-10c0,0,37,0,52,30c0,0,14,29,14,116V658H18V836H516c0,0,262,0,341,-145c0,0,48,-89,48,-242V0H658V450c0,0,0,131,-37,171c0,0,-34,37,-105,37H411V313c0,0,0,-189,-67,-258C344,55,285,-6,173,-6Z" 
id="f2_j"
transform="scale(0.001,-0.001)" />

<path d="M534,0V425c0,0,0,109,-41,171c0,0,-41,62,-140,62H66V836H352c0,0,99,0,174,-20c0,0,75,-20,123,-55c0,0,48,-35,78,-87c0,0,30,-53,42,-113c0,0,12,-60,12,-136V0Z" 
id="f2_4"
transform="scale(0.001,-0.001)" />

<path d="M139,0V836H386V0Z" 
id="f2_b"
transform="scale(0.001,-0.001)" />

<path d="M143,0V355c0,0,0,103,26,191c0,0,26,88,79,112H66V836H546V658H484c0,0,-30,0,-50,-24c0,0,-20,-24,-29,-67c0,0,-9,-42,-12,-81c0,0,-3,-39,-3,-89V0Z" 
id="f2_c"
transform="scale(0.001,-0.001)" />

<path d="M83,331V549H551V331Z" 
id="f2_k"
transform="scale(0.001,-0.001)" />

<path d="M84,-153V45l189,68L66,836H321L497,205c0,0,72,50,101,138c0,0,30,88,30,261V836H878V604c0,0,0,-84,-7,-147c0,0,-7,-63,-25,-126c0,0,-19,-62,-51,-111c0,0,-33,-48,-82,-94c0,0,-50,-45,-122,-84C591,42,519,3,423,-30L84,-153Z" 
id="f2_8"
transform="scale(0.001,-0.001)" />

<path d="M139,0V177H436c0,0,127,0,184,56c0,0,56,55,56,186c0,0,0,132,-58,186c0,0,-58,53,-181,53H386L385,553c0,0,0,-40,12,-54c0,0,12,-15,31,-15c0,0,19,0,38,2V343c0,0,-46,-11,-94,-11c0,0,-48,0,-87,11c0,0,-38,10,-73,34c0,0,-73,53,-73,196V836H487c0,0,203,0,319,-109c0,0,116,-109,116,-309c0,0,0,-200,-117,-309C805,109,689,0,487,0Z" 
id="f2_5"
transform="scale(0.001,-0.001)" />

<path d="M545,-19c0,0,-208,0,-308,99c0,0,-99,101,-99,324V836H383V399c0,0,0,-130,41,-183c0,0,41,-53,121,-53c0,0,80,0,121,53c0,0,41,53,41,183c0,0,0,142,-27,203c0,0,-28,61,-90,61c0,0,-36,0,-92,-20V825c0,0,80,21,142,21c0,0,153,0,233,-113c0,0,80,-113,80,-328c0,0,0,-224,-100,-325c0,0,-100,-99,-308,-99Z" 
id="f2_a"
transform="scale(0.001,-0.001)" />

<path d="M153,0V437L399,539V0ZM664,0V450c0,0,0,122,-31,165c0,0,-31,43,-121,43H138V836H511c0,0,113,0,188,-22c0,0,75,-23,123,-73c0,0,47,-51,68,-127c0,0,20,-76,20,-189V0Z" 
id="f2_7"
transform="scale(0.001,-0.001)" />

<path d="M179,0V190H336V0Zm0,600V790H336V600Z" 
id="f1_v"
transform="scale(0.001,-0.001)" />

<path d="M55,0V40L184,60V941L55,960v40H455V960L327,941V60L455,40V0Z" 
id="f0_1g"
transform="scale(0.001,-0.001)" />

<path d="M122,-200c0,0,99,170,148,338c0,0,49,169,49,342c0,0,0,172,-49,340c0,0,-49,168,-148,340H241c0,0,112,-176,168,-345c0,0,55,-169,55,-335c0,0,0,-167,-55,-337c0,0,-56,-168,-168,-343Z" 
id="f1_y"
transform="scale(0.001,-0.001)" />

<path d="M434,423c0,0,0,101,-7,142c0,0,-6,40,-22,60c0,0,-16,19,-45,19c0,0,-44,0,-66,-48c0,0,-22,-49,-22,-173ZM389,-14c0,0,-172,0,-254,89c0,0,-83,90,-83,279c0,0,0,184,79,274c0,0,79,91,238,91c0,0,142,0,206,-76c0,0,64,-76,64,-237V345H271V333c0,0,0,-111,18,-158c0,0,18,-47,58,-72c0,0,40,-25,110,-25c0,0,66,0,166,22V42C623,42,582,18,517,1c0,0,-66,-15,-128,-15Z" 
id="f3_g"
transform="scale(0.001,-0.001)" />

<path d="M543,-317V369c0,0,0,85,-8,143c0,0,-8,58,-27,101c0,0,-18,44,-51,69c0,0,-33,24,-80,36c0,0,-48,11,-117,11H66V836H257c0,0,125,0,205,-23c0,0,80,-23,130,-79c0,0,50,-56,70,-143c0,0,20,-86,20,-222V-317Z" 
id="f1_u"
transform="scale(0.001,-0.001)" />

<path d="M34,0V49l76,18V634L38,652v49H325V67L402,49V0ZM217,831c0,0,-48,0,-81,33c0,0,-34,33,-34,82c0,0,0,48,34,81c0,0,34,33,81,33c0,0,48,0,81,-33c0,0,33,-33,33,-81c0,0,0,-47,-33,-81c0,0,-32,-34,-81,-34Z" 
id="f3_b"
transform="scale(0.001,-0.001)" />

<path d="M71,-141V-15L289,62L66,836H210L416,109c0,0,99,42,153,98c0,0,53,56,80,155c0,0,26,98,26,262V836H817V624c0,0,0,-88,-7,-154c0,0,-7,-67,-25,-132c0,0,-18,-66,-51,-116c0,0,-33,-51,-84,-98c0,0,-50,-48,-123,-87c0,0,-72,-39,-169,-74L71,-141Z" 
id="f1_p"
transform="scale(0.001,-0.001)" />

<path d="M354,-200c0,0,-112,175,-167,343c0,0,-56,170,-56,337c0,0,0,166,55,335c0,0,55,169,168,345H473c0,0,-100,-172,-148,-340c0,0,-48,-168,-48,-340c0,0,0,-173,48,-342c0,0,49,-168,148,-338Z" 
id="f1_x"
transform="scale(0.001,-0.001)" />

<path d="M551,45c0,0,171,0,252,108c0,0,82,108,82,349c0,0,0,239,-81,344c0,0,-81,105,-253,105c0,0,-172,0,-252,-105c0,0,-80,-105,-80,-344c0,0,0,-241,80,-349c0,0,81,-108,252,-108Zm0,-59c0,0,-238,0,-363,129C188,115,63,245,63,501c0,0,0,510,488,510c0,0,242,0,366,-129c0,0,124,-130,124,-381c0,0,0,-255,-126,-385C915,116,790,-14,551,-14Z" 
id="f0_1h"
transform="scale(0.001,-0.001)" />

<path d="M360,-14L72,649L0,668v33H327V668L216,648L420,164L615,649L504,668v33H764V668L697,652L416,-14Z" 
id="f0_r"
transform="scale(0.001,-0.001)" />

<path d="M379,60c0,0,59,0,84,64c0,0,24,65,24,231c0,0,0,164,-24,227c0,0,-24,63,-84,63c0,0,-57,0,-80,-60c0,0,-22,-61,-22,-230c0,0,0,-173,23,-234c0,0,22,-61,79,-61Zm-2,-74c0,0,-161,0,-240,91c0,0,-79,91,-79,277c0,0,0,186,80,276c0,0,81,90,245,90c0,0,167,0,245,-93c0,0,78,-93,78,-273c0,0,0,-188,-81,-278c0,0,-81,-90,-248,-90Z" 
id="f3_4"
transform="scale(0.001,-0.001)" />

<path d="M287,-18c0,0,-194,0,-194,206V634L23,652v49H309V217c0,0,0,-63,26,-98c0,0,27,-35,76,-35c0,0,57,0,113,25V634l-64,18v49H740V67L809,49V0H536L526,61L475,35c0,0,-104,-53,-188,-53Z" 
id="f3_i"
transform="scale(0.001,-0.001)" />

<path d="M73,0V70L634,936H448c0,0,-185,0,-254,-15L171,764H119v236H800V936L236,63H452c0,0,87,0,176,8c0,0,89,8,125,16l44,191h53L830,0Z" 
id="f0_1i"
transform="scale(0.001,-0.001)" />

<path d="M700,-317V454c0,0,0,155,-54,215c0,0,-54,60,-180,60H277V551c0,0,0,-55,26,-80c0,0,27,-26,82,-26c0,0,30,0,80,10V341c0,0,-61,-11,-111,-11c0,0,-100,0,-157,55c0,0,-58,55,-58,186V836H466c0,0,203,0,288,-91c0,0,85,-92,85,-293V-317Z" 
id="f1_10"
transform="scale(0.001,-0.001)" />

<path d="M425,-14c0,0,-187,0,-280,90c0,0,-93,90,-93,276c0,0,0,115,42,198c0,0,43,82,121,126c0,0,78,44,182,44c0,0,104,0,227,-26V486H571L539,609c0,0,-25,19,-50,26c0,0,-24,7,-65,7c0,0,-44,0,-79,-35c0,0,-36,-35,-56,-98c0,0,-20,-64,-20,-153c0,0,0,-150,47,-214c0,0,47,-64,148,-64c0,0,103,0,176,21V42C640,42,606,15,547,0c0,0,-59,-14,-122,-14Z" 
id="f3_a"
transform="scale(0.001,-0.001)" />

<path d="M30,0V34L352,634H272c0,0,-41,0,-80,-7c0,0,-39,-8,-54,-19L115,492H61V701H606V664L283,67H395c0,0,43,0,90,11c0,0,47,10,66,24l40,162h54L624,0Z" 
id="f3_f"
transform="scale(0.001,-0.001)" />

<path d="M360,-256c0,0,108,0,167,35c0,0,59,35,59,98c0,0,0,70,-95,70H254c0,0,-65,-47,-65,-108c0,0,0,-47,46,-71c0,0,45,-24,125,-24Zm9,561c0,0,55,0,79,43c0,0,25,43,25,129c0,0,0,87,-24,127c0,0,-25,41,-80,41c0,0,-52,0,-75,-41c0,0,-24,-40,-24,-127c0,0,0,-86,23,-129c0,0,23,-43,76,-43Zm-9,-641c0,0,-153,0,-236,43c0,0,-84,44,-84,120c0,0,0,33,28,65c0,0,27,31,105,76c0,0,-44,17,-75,59c0,0,-31,43,-31,90L192,258c0,0,-133,56,-133,219c0,0,0,116,81,180c0,0,82,63,233,63c0,0,32,0,82,-6c0,0,51,-6,74,-13l168,83l26,-32L638,631c0,0,46,-57,46,-154c0,0,0,-119,-80,-182c0,0,-80,-64,-234,-64c0,0,-59,0,-114,9L238,183c0,0,1,-22,28,-41c0,0,26,-19,64,-19H493c0,0,256,0,256,-196c0,0,0,-81,-44,-139c0,0,-45,-59,-131,-92c0,0,-86,-32,-214,-32Z" 
id="f3_j"
transform="scale(0.001,-0.001)" />

<path d="M339,438V719L88,567L45,640L313,786L45,931l43,74L339,853v281h85V853l251,152l44,-74L450,786L719,640L675,567L424,719V438Z" 
id="f1_15"
transform="scale(0.001,-0.001)" />

<path d="M522,-20c0,0,-196,0,-290,99c0,0,-94,100,-94,324V836H276V397c0,0,0,-86,16,-147c0,0,17,-60,50,-94c0,0,34,-34,77,-49c0,0,43,-15,103,-15c0,0,59,0,102,15c0,0,44,15,77,49c0,0,33,34,50,94c0,0,17,61,17,147c0,0,0,84,-8,143c0,0,-7,58,-25,105c0,0,-17,47,-51,69c0,0,-33,23,-83,23c0,0,-50,0,-119,-22V821c0,0,85,23,150,23c0,0,76,0,130,-30c0,0,53,-31,85,-90c0,0,31,-59,45,-138c0,0,13,-78,13,-183c0,0,0,-224,-93,-324c0,0,-94,-99,-290,-99Z" 
id="f1_k"
transform="scale(0.001,-0.001)" />

<path d="M159,-329c0,0,-61,0,-123,14v180H81l32,-94c0,0,21,-17,55,-17c0,0,28,0,50,13c0,0,21,14,40,39c0,0,20,25,37,62c0,0,17,37,50,110L64,634L15,652v49H374V652L290,632L455,244L602,634l-82,18v49H749V652L698,637L421,-44c0,0,-47,-121,-83,-176c0,0,-36,-55,-80,-82c0,0,-43,-27,-99,-27Z" 
id="f3_k"
transform="scale(0.001,-0.001)" />

<path d="M58,-234v58c0,0,131,42,131,125c0,0,0,15,-11,27c0,0,-11,12,-38,25C140,1,89,27,89,75c0,0,0,40,25,61c0,0,26,21,65,21c0,0,48,0,77,-34c0,0,30,-34,30,-86c0,0,0,-101,-60,-170c0,0,-59,-69,-168,-101Z" 
id="f0_z"
transform="scale(0.001,-0.001)" />

<path d="M64,-325c0,0,-46,0,-107,14v148H-8l19,-81c0,0,25,-21,62,-21c0,0,44,0,67,47c0,0,22,47,22,152V649L57,668v33H286V-28c0,0,0,-146,-57,-221c0,0,-56,-76,-165,-76ZM213,850c0,0,-34,0,-58,24c0,0,-24,24,-24,56c0,0,0,34,24,58c0,0,24,24,58,24c0,0,32,0,56,-24c0,0,24,-24,24,-58c0,0,0,-32,-24,-56c0,0,-24,-24,-56,-24Z" 
id="f0_u"
transform="scale(0.001,-0.001)" />

<path d="M71,0V90H214v934H71v90H1073V851H970v160H502V654H792V796H895V411H792V552H502V103H984V263h102V0Z" 
id="f4_2"
transform="scale(0.001,-0.001)" />

<path d="M87,-338c0,0,-45,0,-94,7c0,0,-51,8,-105,22v168l84,-1c0,0,1,-59,23,-86c0,0,21,-26,70,-26c0,0,55,0,77,35c0,0,21,35,21,127V703H51v90H427V-92c0,0,0,-122,-86,-184c0,0,-86,-62,-254,-62ZM277,876c0,0,-61,0,-102,41c0,0,-42,41,-42,101c0,0,0,60,41,101c0,0,42,42,103,42c0,0,58,0,100,-42c0,0,42,-42,42,-101c0,0,0,-59,-42,-101c0,0,-41,-41,-100,-41Z" 
id="f4_3"
transform="scale(0.001,-0.001)" />

<path d="M612,448c0,0,0,156,-29,219c0,0,-29,63,-99,63c0,0,-68,0,-98,-61c0,0,-29,-62,-29,-208V448ZM488,-20c0,0,-205,0,-315,107C173,87,63,195,63,397c0,0,0,197,112,307c0,0,113,110,313,110c0,0,197,0,303,-115c0,0,105,-116,111,-340H357v-6c0,0,0,-154,46,-222c0,0,46,-68,149,-68c0,0,86,0,139,45c0,0,53,46,68,133H883C883,241,851,105,755,42c0,0,-95,-62,-267,-62Z" 
id="f4_4"
transform="scale(0.001,-0.001)" />

<path d="M53,0V90H165V703H44v90H429V652c0,0,39,83,103,123c0,0,64,39,156,39c0,0,24,0,57,-3c0,0,33,-3,76,-9V565H737c0,0,-4,63,-34,94c0,0,-30,31,-87,31c0,0,-87,0,-137,-76c0,0,-50,-76,-50,-211V90H573V0Z" 
id="f4_5"
transform="scale(0.001,-0.001)" />

<path d="M507,-20c0,0,-212,0,-328,108C179,88,63,198,63,397c0,0,0,197,114,307c0,0,115,110,320,110c0,0,82,0,167,-15c0,0,84,-16,171,-47V532H752c0,0,-12,101,-59,150c0,0,-47,48,-132,48c0,0,-111,0,-157,-74c0,0,-47,-75,-47,-259c0,0,0,-180,45,-257c0,0,46,-77,149,-77c0,0,80,0,128,47c0,0,48,48,58,137H861C861,247,833,112,745,45c0,0,-87,-65,-238,-65Z" 
id="f4_6"
transform="scale(0.001,-0.001)" />

<path d="M53,0V90H165V703H53v90H429V90H543V0ZM285,876c0,0,-61,0,-102,41c0,0,-42,41,-42,101c0,0,0,60,42,101c0,0,41,42,102,42c0,0,59,0,100,-42c0,0,41,-41,41,-101c0,0,0,-59,-41,-101c0,0,-41,-41,-100,-41Z" 
id="f4_7"
transform="scale(0.001,-0.001)" />

<path d="M510,63c0,0,84,0,118,71c0,0,34,72,34,263c0,0,0,191,-34,262c0,0,-33,71,-118,71c0,0,-84,0,-119,-72c0,0,-34,-72,-34,-261c0,0,0,-190,34,-262c0,0,35,-72,119,-72Zm0,-83c0,0,-209,0,-328,110C182,90,63,201,63,397c0,0,0,196,119,307c0,0,119,110,328,110c0,0,211,0,330,-110c0,0,118,-111,118,-307c0,0,0,-196,-119,-307C839,90,720,-20,510,-20Z" 
id="f4_8"
transform="scale(0.001,-0.001)" />

<path d="M542,66c0,0,77,0,110,65c0,0,32,65,32,226c0,0,0,162,-32,227c0,0,-33,65,-110,65c0,0,-77,0,-110,-65c0,0,-32,-65,-32,-227c0,0,0,-161,32,-226c0,0,33,-65,110,-65Zm17,-86c0,0,-228,0,-346,136C213,116,96,254,96,521c0,0,0,304,130,458c0,0,131,155,387,155c0,0,67,0,144,-11c0,0,77,-11,165,-34V893H832c0,0,-19,76,-70,115c0,0,-52,39,-134,39c0,0,-133,0,-192,-91c0,0,-60,-91,-61,-295c0,0,49,38,109,58c0,0,60,19,131,19c0,0,171,0,268,-100c0,0,98,-100,98,-274c0,0,0,-185,-110,-285c0,0,-110,-99,-312,-99Z" 
id="f4_i"
transform="scale(0.001,-0.001)" />

<path d="M13,0V34L95,46L325,350L122,649L40,668v33H357V668L264,648L399,446L554,649l-96,19v33H710V668L630,652L433,397L663,50L745,34V0H427V34l94,17L359,299L169,50L266,34V0Z" 
id="f0_1j"
transform="scale(0.001,-0.001)" />

<path d="M289,-14c0,0,-179,0,-179,205V649L20,668v33H233V200c0,0,0,-128,120,-128c0,0,92,0,173,23V649L420,668v33H649V52L738,34V0H533l-6,57C527,57,474,28,405,6c0,0,-69,-20,-116,-20Zm24,849v24l147,203H618v-27L354,835Z" 
id="f0_x"
transform="scale(0.001,-0.001)" />

<path d="M495,413c0,0,0,133,-34,190c0,0,-34,57,-105,57c0,0,-78,0,-119,-62c0,0,-42,-63,-42,-185ZM374,-14c0,0,-163,0,-239,87c0,0,-75,88,-75,283c0,0,0,183,77,274c0,0,76,90,219,90c0,0,269,0,269,-306V353H194V339c0,0,0,-103,23,-160c0,0,22,-57,70,-86c0,0,47,-30,124,-30c0,0,40,0,96,6c0,0,55,7,91,15V43C598,43,562,19,500,2c0,0,-61,-16,-126,-16ZM285,835v24l146,203H590v-27L326,835Z" 
id="f0_j"
transform="scale(0.001,-0.001)" />

<path d="M0,-14L351,1007h73L75,-14Z" 
id="f0_11"
transform="scale(0.001,-0.001)" />

<path d="M326,0L773,903H224V752H121v362H937V924L477,0Z" 
id="f4_j"
transform="scale(0.001,-0.001)" />


</defs>
</svg>