<?xml version="1.0" encoding="UTF-8" standalone="no"?>
<!DOCTYPE svg PUBLIC "-//W3C//DTD SVG 1.1//EN"
"http://www.w3.org/Graphics/SVG/1.1/DTD/svg11.dtd">
<svg viewBox="0 0 909 1286" version="1.1" xmlns="http://www.w3.org/2000/svg" xmlns:xlink="http://www.w3.org/1999/xlink">
<defs>
<clipPath id="c0_17"><path d="M0,1286.2V0H909.4V1286.2Z" /></clipPath>
<clipPath id="c1_17"><path d="M642.4,635.7V614.4h.3v21.3Z" /></clipPath>
<style type="text/css"><![CDATA[
.g0_17{
fill: none;
stroke: #000000;
stroke-width: 0.7638889;
stroke-linecap: butt;
stroke-linejoin: round;
}
.g1_17{
fill: none;
stroke: #0000FF;
stroke-width: 1.0694444;
stroke-linecap: butt;
stroke-linejoin: miter;
}
]]></style>
</defs>
<g clip-path="url(#c0_17)">
<g fill="#000000" >
<use xlink:href="#f0_7" transform="matrix(12,0,0,12,701.6,152)" />
<use xlink:href="#f0_8" transform="matrix(12,0,0,12,714.1,152)" />
<use xlink:href="#f0_f" transform="matrix(12,0,0,12,720.3,152)" />
<use xlink:href="#f0_c" transform="matrix(12,0,0,12,733.6,152)" />
<use xlink:href="#f0_q" transform="matrix(12,0,0,12,746.9,152)" />
<use xlink:href="#f0_8" transform="matrix(12,0,0,12,755,152)" />
<use xlink:href="#f0_9" transform="matrix(12,0,0,12,761.3,152)" />
<use xlink:href="#f1_2" transform="matrix(13,0,0,13,560.1,152)" />
<use xlink:href="#f1_3" transform="matrix(13,0,0,13,575.2,152)" />
<use xlink:href="#f1_4" transform="matrix(13,0,0,13,582.4,152)" />
<use xlink:href="#f1_5" transform="matrix(13,0,0,13,595,152)" />
<use xlink:href="#f1_6" transform="matrix(13,0,0,13,616.1,152)" />
<use xlink:href="#f1_7" transform="matrix(13,0,0,13,630,152)" />
<use xlink:href="#f1_8" transform="matrix(13,0,0,13,637.5,152)" />
<use xlink:href="#f1_9" transform="matrix(13,0,0,13,650.7,152)" />
<use xlink:href="#f2_c" transform="matrix(12,0,0,12,628.1,173.9)" />
<use xlink:href="#f2_4" transform="matrix(12,0,0,12,640,173.9)" />
<use xlink:href="#f2_3" transform="matrix(12,0,0,12,650.4,173.9)" />
<use xlink:href="#f2_e" transform="matrix(12,0,0,12,654.5,173.9)" />
<use xlink:href="#f2_d" transform="matrix(12,0,0,12,667,173.9)" />
<use xlink:href="#f2_a" transform="matrix(12,0,0,12,685.1,173.9)" />
<use xlink:href="#f2_4" transform="matrix(12,0,0,12,697.2,173.9)" />
<use xlink:href="#f2_8" transform="matrix(12,0,0,12,707.6,173.9)" />
<use xlink:href="#f2_a" transform="matrix(12,0,0,12,720.5,173.9)" />
<use xlink:href="#f2_q" transform="matrix(12,0,0,12,732.6,173.9)" />
<use xlink:href="#f2_o" transform="matrix(12,0,0,12,747.5,173.9)" />
<use xlink:href="#f2_j" transform="matrix(12,0,0,12,759.7,173.9)" />
<use xlink:href="#f3_i" transform="matrix(11,0,0,11,571.5,173.9)" />
<use xlink:href="#f3_g" transform="matrix(11,0,0,11,579,173.9)" />
<use xlink:href="#f3_9" transform="matrix(11,0,0,11,587.3,173.9)" />
<use xlink:href="#f3_h" transform="matrix(11,0,0,11,594.7,173.9)" />
<use xlink:href="#f3_a" transform="matrix(11,0,0,11,601.3,173.9)" />
<use xlink:href="#f3_d" transform="matrix(11,0,0,11,606,173.9)" />
<use xlink:href="#f3_h" transform="matrix(11,0,0,11,613.5,173.9)" />
<use xlink:href="#f2_a" transform="matrix(12,0,0,12,390.5,173.9)" />
<use xlink:href="#f2_3" transform="matrix(12,0,0,12,402.5,173.9)" />
<use xlink:href="#f2_3" transform="matrix(12,0,0,12,406.6,173.9)" />
<use xlink:href="#f2_k" transform="matrix(12,0,0,12,410.7,173.9)" />
<use xlink:href="#f2_c" transform="matrix(12,0,0,12,422.6,173.9)" />
<use xlink:href="#f2_d" transform="matrix(12,0,0,12,434.6,173.9)" />
<use xlink:href="#f2_b" transform="matrix(12,0,0,12,452.7,173.9)" />
<use xlink:href="#f2_d" transform="matrix(12,0,0,12,463.1,173.9)" />
<use xlink:href="#f2_7" transform="matrix(12,0,0,12,473.6,173.9)" />
<use xlink:href="#f2_i" transform="matrix(12,0,0,12,478.7,173.9)" />
<use xlink:href="#f2_e" transform="matrix(12,0,0,12,488.7,173.9)" />
<use xlink:href="#f2_9" transform="matrix(12,0,0,12,501.1,173.9)" />
<use xlink:href="#f2_b" transform="matrix(12,0,0,12,521.7,173.9)" />
<use xlink:href="#f2_7" transform="matrix(12,0,0,12,532.1,173.9)" />
<use xlink:href="#f2_b" transform="matrix(12,0,0,12,537.1,173.9)" />
<use xlink:href="#f2_d" transform="matrix(12,0,0,12,547.5,173.9)" />
<use xlink:href="#f2_t" transform="matrix(12,0,0,12,565.6,173.9)" />
<use xlink:href="#f3_a" transform="matrix(11,0,0,11,369.6,173.9)" />
<use xlink:href="#f3_p" transform="matrix(11,0,0,11,374.2,173.9)" />
<use xlink:href="#f2_j" transform="matrix(12,0,0,12,137.7,173.9)" />
<use xlink:href="#f2_7" transform="matrix(12,0,0,12,149.9,173.9)" />
<use xlink:href="#f2_c" transform="matrix(12,0,0,12,154.9,173.9)" />
<use xlink:href="#f2_4" transform="matrix(12,0,0,12,174.6,173.9)" />
<use xlink:href="#f2_5" transform="matrix(12,0,0,12,185,173.9)" />
<use xlink:href="#f2_7" transform="matrix(12,0,0,12,196.4,173.9)" />
<use xlink:href="#f2_m" transform="matrix(12,0,0,12,201.5,173.9)" />
<use xlink:href="#f2_c" transform="matrix(12,0,0,12,212.9,173.9)" />
<use xlink:href="#f2_3" transform="matrix(12,0,0,12,232.4,173.9)" />
<use xlink:href="#f2_f" transform="matrix(12,0,0,12,236.5,173.9)" />
<use xlink:href="#f2_p" transform="matrix(12,0,0,12,253.9,173.9)" />
<use xlink:href="#f2_f" transform="matrix(12,0,0,12,258.9,173.9)" />
<use xlink:href="#f2_a" transform="matrix(12,0,0,12,268.6,173.9)" />
<use xlink:href="#f2_3" transform="matrix(12,0,0,12,280.5,173.9)" />
<use xlink:href="#f2_3" transform="matrix(12,0,0,12,284.6,173.9)" />
<use xlink:href="#f2_c" transform="matrix(12,0,0,12,296.5,173.9)" />
<use xlink:href="#f2_b" transform="matrix(12,0,0,12,308.4,173.9)" />
<use xlink:href="#f2_7" transform="matrix(12,0,0,12,318.7,173.9)" />
<use xlink:href="#f2_j" transform="matrix(12,0,0,12,323.8,173.9)" />
<use xlink:href="#f2_f" transform="matrix(12,0,0,12,336,173.9)" />
<use xlink:href="#f2_4" transform="matrix(12,0,0,12,345.6,173.9)" />
<use xlink:href="#f2_n" transform="matrix(12,0,0,12,363.6,173.9)" />
<use xlink:href="#f3_i" transform="matrix(11,0,0,11,731.8,195.3)" />
<use xlink:href="#f3_g" transform="matrix(11,0,0,11,739.3,195.3)" />
<use xlink:href="#f3_h" transform="matrix(11,0,0,11,747.5,195.3)" />
<use xlink:href="#f3_a" transform="matrix(11,0,0,11,754.1,195.3)" />
<use xlink:href="#f3_d" transform="matrix(11,0,0,11,758.8,195.3)" />
<use xlink:href="#f3_f" transform="matrix(11,0,0,11,766.3,195.3)" />
<use xlink:href="#f2_j" transform="matrix(12,0,0,12,258.8,195.3)" />
<use xlink:href="#f2_7" transform="matrix(12,0,0,12,271,195.3)" />
<use xlink:href="#f2_c" transform="matrix(12,0,0,12,276,195.3)" />
<use xlink:href="#f2_4" transform="matrix(12,0,0,12,297.7,195.3)" />
<use xlink:href="#f2_5" transform="matrix(12,0,0,12,308.1,195.3)" />
<use xlink:href="#f2_7" transform="matrix(12,0,0,12,319.5,195.3)" />
<use xlink:href="#f2_m" transform="matrix(12,0,0,12,324.6,195.3)" />
<use xlink:href="#f2_c" transform="matrix(12,0,0,12,336,195.3)" />
<use xlink:href="#f2_3" transform="matrix(12,0,0,12,357.7,195.3)" />
<use xlink:href="#f2_f" transform="matrix(12,0,0,12,361.8,195.3)" />
<use xlink:href="#f2_8" transform="matrix(12,0,0,12,381.1,195.3)" />
<use xlink:href="#f2_h" transform="matrix(12,0,0,12,394.1,195.3)" />
<use xlink:href="#f2_c" transform="matrix(12,0,0,12,406,195.3)" />
<use xlink:href="#f2_t" transform="matrix(12,0,0,12,427.6,195.3)" />
<use xlink:href="#f2_p" transform="matrix(12,0,0,12,433.5,195.3)" />
<use xlink:href="#f2_7" transform="matrix(12,0,0,12,438.4,195.3)" />
<use xlink:href="#f2_4" transform="matrix(12,0,0,12,443.4,195.3)" />
<use xlink:href="#f2_3" transform="matrix(12,0,0,12,453.8,195.3)" />
<use xlink:href="#f2_e" transform="matrix(12,0,0,12,457.9,195.3)" />
<use xlink:href="#f2_d" transform="matrix(12,0,0,12,470.4,195.3)" />
<use xlink:href="#f2_7" transform="matrix(12,0,0,12,490.7,195.3)" />
<use xlink:href="#f2_l" transform="matrix(12,0,0,12,495.6,195.3)" />
<use xlink:href="#f2_f" transform="matrix(12,0,0,12,502,195.3)" />
<use xlink:href="#f2_c" transform="matrix(12,0,0,12,521.3,195.3)" />
<use xlink:href="#f2_4" transform="matrix(12,0,0,12,533.2,195.3)" />
<use xlink:href="#f2_3" transform="matrix(12,0,0,12,543.6,195.3)" />
<use xlink:href="#f2_e" transform="matrix(12,0,0,12,547.8,195.3)" />
<use xlink:href="#f2_a" transform="matrix(12,0,0,12,570,195.3)" />
<use xlink:href="#f2_j" transform="matrix(12,0,0,12,582.1,195.3)" />
<use xlink:href="#f2_s" transform="matrix(12,0,0,12,594.3,195.3)" />
<use xlink:href="#f2_e" transform="matrix(12,0,0,12,605,195.3)" />
<use xlink:href="#f2_j" transform="matrix(12,0,0,12,627.3,195.3)" />
<use xlink:href="#f2_4" transform="matrix(12,0,0,12,639.5,195.3)" />
<use xlink:href="#f2_o" transform="matrix(12,0,0,12,659.6,195.3)" />
<use xlink:href="#f2_j" transform="matrix(12,0,0,12,671.8,195.3)" />
<use xlink:href="#f2_2" transform="matrix(12,0,0,12,693.8,195.3)" />
<use xlink:href="#f2_j" transform="matrix(12,0,0,12,703.6,195.3)" />
<use xlink:href="#f2_t" transform="matrix(12,0,0,12,725.5,195.3)" />
<use xlink:href="#f3_i" transform="matrix(11,0,0,11,208.4,195.3)" />
<use xlink:href="#f3_b" transform="matrix(11,0,0,11,215.9,195.3)" />
<use xlink:href="#f3_h" transform="matrix(11,0,0,11,224.1,195.3)" />
<use xlink:href="#f3_a" transform="matrix(11,0,0,11,230.7,195.3)" />
<use xlink:href="#f3_d" transform="matrix(11,0,0,11,235.4,195.3)" />
<use xlink:href="#f3_f" transform="matrix(11,0,0,11,242.8,195.3)" />
<use xlink:href="#f2_t" transform="matrix(12,0,0,12,202.7,195.3)" />
<use xlink:href="#f2_4" transform="matrix(12,0,0,12,137.8,195.3)" />
<use xlink:href="#f2_5" transform="matrix(12,0,0,12,148.2,195.3)" />
<use xlink:href="#f2_m" transform="matrix(12,0,0,12,159.7,195.3)" />
<use xlink:href="#f2_7" transform="matrix(12,0,0,12,171,195.3)" />
<use xlink:href="#f2_c" transform="matrix(12,0,0,12,176,195.3)" />
<use xlink:href="#f2_7" transform="matrix(12,0,0,12,187.9,195.3)" />
<use xlink:href="#f2_a" transform="matrix(12,0,0,12,630.7,216.6)" />
<use xlink:href="#f2_7" transform="matrix(12,0,0,12,642.7,216.6)" />
<use xlink:href="#f2_j" transform="matrix(12,0,0,12,647.7,216.6)" />
<use xlink:href="#f2_c" transform="matrix(12,0,0,12,660,216.6)" />
<use xlink:href="#f2_12" transform="matrix(12,0,0,12,677.8,216.6)" />
<use xlink:href="#f2_3" transform="matrix(12,0,0,12,683.9,216.6)" />
<use xlink:href="#f2_q" transform="matrix(12,0,0,12,688,216.6)" />
<use xlink:href="#f2_9" transform="matrix(12,0,0,12,695.4,216.6)" />
<use xlink:href="#f2_c" transform="matrix(12,0,0,12,708.4,216.6)" />
<use xlink:href="#f2_u" transform="matrix(12,0,0,12,726.2,216.6)" />
<use xlink:href="#f2_3" transform="matrix(12,0,0,12,733.7,216.6)" />
<use xlink:href="#f2_b" transform="matrix(12,0,0,12,737.8,216.6)" />
<use xlink:href="#f2_r" transform="matrix(12,0,0,12,748.2,216.6)" />
<use xlink:href="#f2_c" transform="matrix(12,0,0,12,760.1,216.6)" />
<use xlink:href="#f3_b" transform="matrix(11,0,0,11,616.2,216.6)" />
<use xlink:href="#f2_4" transform="matrix(12,0,0,12,544,216.6)" />
<use xlink:href="#f2_a" transform="matrix(12,0,0,12,560.4,216.6)" />
<use xlink:href="#f2_f" transform="matrix(12,0,0,12,572.4,216.6)" />
<use xlink:href="#f2_m" transform="matrix(12,0,0,12,582.1,216.6)" />
<use xlink:href="#f2_7" transform="matrix(12,0,0,12,593.5,216.6)" />
<use xlink:href="#f2_c" transform="matrix(12,0,0,12,598.5,216.6)" />
<use xlink:href="#f3_g" transform="matrix(11,0,0,11,522.2,216.6)" />
<use xlink:href="#f3_9" transform="matrix(11,0,0,11,530.6,216.6)" />
<use xlink:href="#f2_n" transform="matrix(12,0,0,12,516.5,216.6)" />
<use xlink:href="#f4_18" transform="matrix(16,0,0,16,717.9,262.2)" />
<use xlink:href="#f4_17" transform="matrix(16,0,0,16,729.8,262.2)" />
<use xlink:href="#f4_19" transform="matrix(16,0,0,16,736.3,262.2)" />
<use xlink:href="#f4_1a" transform="matrix(16,0,0,16,744.7,262.2)" />
<use xlink:href="#f4_1b" transform="matrix(16,0,0,16,757.1,262.2)" />
<use xlink:href="#f4_3" transform="matrix(16,0,0,16,543.4,262.2)" />
<use xlink:href="#f4_b" transform="matrix(16,0,0,16,562.5,262.2)" />
<use xlink:href="#f4_u" transform="matrix(16,0,0,16,576.5,262.2)" />
<use xlink:href="#f4_3" transform="matrix(16,0,0,16,587.7,262.2)" />
<use xlink:href="#f4_5" transform="matrix(16,0,0,16,600.3,262.2)" />
<use xlink:href="#f4_s" transform="matrix(16,0,0,16,611.4,262.2)" />
<use xlink:href="#f4_7" transform="matrix(16,0,0,16,620,262.2)" />
<use xlink:href="#f4_5" transform="matrix(16,0,0,16,627,262.2)" />
<use xlink:href="#f4_3" transform="matrix(16,0,0,16,638.3,262.2)" />
<use xlink:href="#f4_u" transform="matrix(16,0,0,16,650.8,262.2)" />
<use xlink:href="#f0_d" transform="matrix(12,0,0,12,723.8,284.5)" />
<use xlink:href="#f0_i" transform="matrix(12,0,0,12,735,284.5)" />
<use xlink:href="#f0_q" transform="matrix(12,0,0,12,740.3,284.5)" />
<use xlink:href="#f0_4" transform="matrix(12,0,0,12,748.6,284.5)" />
<use xlink:href="#f0_7" transform="matrix(12,0,0,12,759.6,284.5)" />
<use xlink:href="#f0_1g" transform="matrix(12,0,0,12,703.2,284.5)" />
<use xlink:href="#f2_2" transform="matrix(12,0,0,12,137.7,284.5)" />
<use xlink:href="#f2_q" transform="matrix(12,0,0,12,147.4,284.5)" />
<use xlink:href="#f2_3" transform="matrix(12,0,0,12,154.8,284.5)" />
<use xlink:href="#f2_j" transform="matrix(12,0,0,12,158.9,284.5)" />
<use xlink:href="#f2_o" transform="matrix(12,0,0,12,178.2,284.5)" />
<use xlink:href="#f2_3" transform="matrix(12,0,0,12,190.4,284.5)" />
<use xlink:href="#f2_4" transform="matrix(12,0,0,12,194.5,284.5)" />
<use xlink:href="#f2_5" transform="matrix(12,0,0,12,204.9,284.5)" />
<use xlink:href="#f2_m" transform="matrix(12,0,0,12,216.4,284.5)" />
<use xlink:href="#f2_c" transform="matrix(12,0,0,12,227.8,284.5)" />
<use xlink:href="#f2_p" transform="matrix(12,0,0,12,246.7,284.5)" />
<use xlink:href="#f2_e" transform="matrix(12,0,0,12,251.6,284.5)" />
<use xlink:href="#f2_8" transform="matrix(12,0,0,12,271.4,284.5)" />
<use xlink:href="#f2_4" transform="matrix(12,0,0,12,284.4,284.5)" />
<use xlink:href="#f2_r" transform="matrix(12,0,0,12,294.8,284.5)" />
<use xlink:href="#f2_n" transform="matrix(12,0,0,12,313.9,284.5)" />
<use xlink:href="#f2_a" transform="matrix(12,0,0,12,319.7,284.5)" />
<use xlink:href="#f2_7" transform="matrix(12,0,0,12,331.7,284.5)" />
<use xlink:href="#f2_j" transform="matrix(12,0,0,12,336.8,284.5)" />
<use xlink:href="#f2_d" transform="matrix(12,0,0,12,349,284.5)" />
<use xlink:href="#f2_c" transform="matrix(12,0,0,12,359.5,284.5)" />
<use xlink:href="#f2_a" transform="matrix(12,0,0,12,378.6,284.5)" />
<use xlink:href="#f2_7" transform="matrix(12,0,0,12,390.6,284.5)" />
<use xlink:href="#f2_3" transform="matrix(12,0,0,12,395.7,284.5)" />
<use xlink:href="#f2_k" transform="matrix(12,0,0,12,399.8,284.5)" />
<use xlink:href="#f2_c" transform="matrix(12,0,0,12,411.7,284.5)" />
<use xlink:href="#f2_4" transform="matrix(12,0,0,12,423.6,284.5)" />
<use xlink:href="#f2_o" transform="matrix(12,0,0,12,441,284.5)" />
<use xlink:href="#f2_7" transform="matrix(12,0,0,12,453.2,284.5)" />
<use xlink:href="#f2_u" transform="matrix(12,0,0,12,458.2,284.5)" />
<use xlink:href="#f2_b" transform="matrix(12,0,0,12,465.7,284.5)" />
<use xlink:href="#f2_a" transform="matrix(12,0,0,12,476,284.5)" />
<use xlink:href="#f2_c" transform="matrix(12,0,0,12,488.1,284.5)" />
<use xlink:href="#f2_7" transform="matrix(12,0,0,12,500,284.5)" />
<use xlink:href="#f2_4" transform="matrix(12,0,0,12,512.2,284.5)" />
<use xlink:href="#f2_5" transform="matrix(12,0,0,12,522.6,284.5)" />
<use xlink:href="#f2_7" transform="matrix(12,0,0,12,534,284.5)" />
<use xlink:href="#f2_m" transform="matrix(12,0,0,12,539.1,284.5)" />
<use xlink:href="#f2_c" transform="matrix(12,0,0,12,550.5,284.5)" />
<use xlink:href="#f2_a" transform="matrix(12,0,0,12,569.4,284.5)" />
<use xlink:href="#f2_b" transform="matrix(12,0,0,12,581.4,284.5)" />
<use xlink:href="#f2_7" transform="matrix(12,0,0,12,591.8,284.5)" />
<use xlink:href="#f2_s" transform="matrix(12,0,0,12,596.8,284.5)" />
<use xlink:href="#f2_a" transform="matrix(12,0,0,12,614.7,284.5)" />
<use xlink:href="#f2_j" transform="matrix(12,0,0,12,626.7,284.5)" />
<use xlink:href="#f2_j" transform="matrix(12,0,0,12,646.1,284.5)" />
<use xlink:href="#f2_s" transform="matrix(12,0,0,12,658.3,284.5)" />
<use xlink:href="#f2_e" transform="matrix(12,0,0,12,669.2,284.5)" />
<use xlink:href="#f2_y" transform="matrix(12,0,0,12,688.8,284.5)" />
<use xlink:href="#f2_n" transform="matrix(12,0,0,12,198,305.9)" />
<use xlink:href="#f2_p" transform="matrix(12,0,0,12,203.8,305.9)" />
<use xlink:href="#f2_7" transform="matrix(12,0,0,12,208.7,305.9)" />
<use xlink:href="#f2_4" transform="matrix(12,0,0,12,213.7,305.9)" />
<use xlink:href="#f2_3" transform="matrix(12,0,0,12,224.1,305.9)" />
<use xlink:href="#f2_e" transform="matrix(12,0,0,12,228.2,305.9)" />
<use xlink:href="#f2_d" transform="matrix(12,0,0,12,240.7,305.9)" />
<use xlink:href="#f2_o" transform="matrix(12,0,0,12,257.1,305.9)" />
<use xlink:href="#f2_a" transform="matrix(12,0,0,12,269.3,305.9)" />
<use xlink:href="#f2_7" transform="matrix(12,0,0,12,281.3,305.9)" />
<use xlink:href="#f2_j" transform="matrix(12,0,0,12,286.4,305.9)" />
<use xlink:href="#f2_b" transform="matrix(12,0,0,12,304.4,305.9)" />
<use xlink:href="#f2_a" transform="matrix(12,0,0,12,314.8,305.9)" />
<use xlink:href="#f2_j" transform="matrix(12,0,0,12,326.8,305.9)" />
<use xlink:href="#f2_t" transform="matrix(12,0,0,12,344.9,305.9)" />
<use xlink:href="#f2_2" transform="matrix(12,0,0,12,350.7,305.9)" />
<use xlink:href="#f2_3" transform="matrix(12,0,0,12,360.5,305.9)" />
<use xlink:href="#f2_b" transform="matrix(12,0,0,12,364.6,305.9)" />
<use xlink:href="#f2_s" transform="matrix(12,0,0,12,374.9,305.9)" />
<use xlink:href="#f2_o" transform="matrix(12,0,0,12,391.6,305.9)" />
<use xlink:href="#f2_j" transform="matrix(12,0,0,12,403.8,305.9)" />
<use xlink:href="#f2_7" transform="matrix(12,0,0,12,416,305.9)" />
<use xlink:href="#f2_n" transform="matrix(12,0,0,12,426.9,305.9)" />
<use xlink:href="#f2_p" transform="matrix(12,0,0,12,432.7,305.9)" />
<use xlink:href="#f2_7" transform="matrix(12,0,0,12,437.7,305.9)" />
<use xlink:href="#f2_4" transform="matrix(12,0,0,12,442.7,305.9)" />
<use xlink:href="#f2_3" transform="matrix(12,0,0,12,453.1,305.9)" />
<use xlink:href="#f2_e" transform="matrix(12,0,0,12,457.2,305.9)" />
<use xlink:href="#f2_d" transform="matrix(12,0,0,12,469.6,305.9)" />
<use xlink:href="#f2_7" transform="matrix(12,0,0,12,486.1,305.9)" />
<use xlink:href="#f2_5" transform="matrix(12,0,0,12,491,305.9)" />
<use xlink:href="#f2_3" transform="matrix(12,0,0,12,502.4,305.9)" />
<use xlink:href="#f2_m" transform="matrix(12,0,0,12,506.5,305.9)" />
<use xlink:href="#f2_7" transform="matrix(12,0,0,12,518,305.9)" />
<use xlink:href="#f2_3" transform="matrix(12,0,0,12,523,305.9)" />
<use xlink:href="#f2_o" transform="matrix(12,0,0,12,532.9,305.9)" />
<use xlink:href="#f2_c" transform="matrix(12,0,0,12,545.1,305.9)" />
<use xlink:href="#f2_i" transform="matrix(12,0,0,12,562.9,305.9)" />
<use xlink:href="#f2_s" transform="matrix(12,0,0,12,572.9,305.9)" />
<use xlink:href="#f2_3" transform="matrix(12,0,0,12,583.8,305.9)" />
<use xlink:href="#f2_f" transform="matrix(12,0,0,12,587.9,305.9)" />
<use xlink:href="#f2_9" transform="matrix(12,0,0,12,603.5,305.9)" />
<use xlink:href="#f2_r" transform="matrix(12,0,0,12,616.4,305.9)" />
<use xlink:href="#f2_q" transform="matrix(12,0,0,12,628.4,305.9)" />
<use xlink:href="#f2_4" transform="matrix(12,0,0,12,635.7,305.9)" />
<use xlink:href="#f2_c" transform="matrix(12,0,0,12,651.9,305.9)" />
<use xlink:href="#f2_h" transform="matrix(12,0,0,12,663.8,305.9)" />
<use xlink:href="#f2_q" transform="matrix(12,0,0,12,675.7,305.9)" />
<use xlink:href="#f2_t" transform="matrix(12,0,0,12,689,305.9)" />
<use xlink:href="#f2_p" transform="matrix(12,0,0,12,694.8,305.9)" />
<use xlink:href="#f2_3" transform="matrix(12,0,0,12,699.7,305.9)" />
<use xlink:href="#f2_3" transform="matrix(12,0,0,12,703.8,305.9)" />
<use xlink:href="#f2_i" transform="matrix(12,0,0,12,707.9,305.9)" />
<use xlink:href="#f2_5" transform="matrix(12,0,0,12,718,305.9)" />
<use xlink:href="#f2_b" transform="matrix(12,0,0,12,735.2,305.9)" />
<use xlink:href="#f2_3" transform="matrix(12,0,0,12,745.5,305.9)" />
<use xlink:href="#f2_f" transform="matrix(12,0,0,12,749.6,305.9)" />
<use xlink:href="#f2_e" transform="matrix(12,0,0,12,759.2,305.9)" />
</g>
</g>
<path d="M128.6,329.9H780.5m-651.9,20H780.5M128.6,370.1H780.5m-651.9,20H780.5M128.9,329.5v61m130.2,-61v61m130.3,-61v61m130.2,-61v61m130.3,-61v61m130.2,-61v61" class="g0_17" />
<g clip-path="url(#c0_17)">
<g fill="#000000" >
<use xlink:href="#f3_8" transform="matrix(11,0,0,11,658.6,345.9)" />
<use xlink:href="#f3_9" transform="matrix(11,0,0,11,667,345.9)" />
<use xlink:href="#f3_8" transform="matrix(11,0,0,11,674.5,345.9)" />
<use xlink:href="#f3_n" transform="matrix(11,0,0,11,682.9,345.9)" />
<use xlink:href="#f3_i" transform="matrix(11,0,0,11,687.6,345.9)" />
<use xlink:href="#f3_d" transform="matrix(11,0,0,11,694.9,345.9)" />
<use xlink:href="#f3_c" transform="matrix(11,0,0,11,702.4,345.9)" />
<use xlink:href="#f3_b" transform="matrix(11,0,0,11,715.5,345.9)" />
<use xlink:href="#f3_h" transform="matrix(11,0,0,11,723.9,345.9)" />
<use xlink:href="#f3_i" transform="matrix(11,0,0,11,528.5,345.9)" />
<use xlink:href="#f3_f" transform="matrix(11,0,0,11,535.8,345.9)" />
<use xlink:href="#f3_9" transform="matrix(11,0,0,11,541.4,345.9)" />
<use xlink:href="#f3_b" transform="matrix(11,0,0,11,548.9,345.9)" />
<use xlink:href="#f3_i" transform="matrix(11,0,0,11,398.1,345.9)" />
<use xlink:href="#f3_g" transform="matrix(11,0,0,11,405.6,345.9)" />
<use xlink:href="#f3_j" transform="matrix(11,0,0,11,414,345.9)" />
<use xlink:href="#f3_f" transform="matrix(11,0,0,11,422.4,345.9)" />
<use xlink:href="#f3_9" transform="matrix(11,0,0,11,428,345.9)" />
<use xlink:href="#f3_d" transform="matrix(11,0,0,11,268,345.9)" />
<use xlink:href="#f3_j" transform="matrix(11,0,0,11,275.4,345.9)" />
<use xlink:href="#f3_f" transform="matrix(11,0,0,11,283.7,345.9)" />
<use xlink:href="#f3_9" transform="matrix(11,0,0,11,289.3,345.9)" />
<use xlink:href="#f3_o" transform="matrix(11,0,0,11,296.8,345.9)" />
<use xlink:href="#f3_m" transform="matrix(11,0,0,11,137.7,345.9)" />
<use xlink:href="#f3_d" transform="matrix(11,0,0,11,146.1,345.9)" />
<use xlink:href="#f3_f" transform="matrix(11,0,0,11,153.5,345.9)" />
<use xlink:href="#f3_a" transform="matrix(11,0,0,11,159,345.9)" />
<use xlink:href="#f3_9" transform="matrix(11,0,0,11,163.7,345.9)" />
<use xlink:href="#f3_h" transform="matrix(11,0,0,11,171.2,345.9)" />
<use xlink:href="#f3_f" transform="matrix(11,0,0,11,658.6,366.1)" />
<use xlink:href="#f3_9" transform="matrix(11,0,0,11,664.3,366.1)" />
<use xlink:href="#f3_i" transform="matrix(11,0,0,11,671.7,366.1)" />
<use xlink:href="#f3_b" transform="matrix(11,0,0,11,679.2,366.1)" />
<use xlink:href="#f3_o" transform="matrix(11,0,0,11,687.6,366.1)" />
<use xlink:href="#f3_b" transform="matrix(11,0,0,11,696,366.1)" />
<use xlink:href="#f3_13" transform="matrix(11,0,0,11,704.2,366.1)" />
<use xlink:href="#f3_i" transform="matrix(11,0,0,11,711.7,366.1)" />
<use xlink:href="#f3_b" transform="matrix(11,0,0,11,719.2,366.1)" />
<use xlink:href="#f3_o" transform="matrix(11,0,0,11,528.5,366.1)" />
<use xlink:href="#f3_n" transform="matrix(11,0,0,11,536.7,366.1)" />
<use xlink:href="#f3_9" transform="matrix(11,0,0,11,541.4,366.1)" />
<use xlink:href="#f3_u" transform="matrix(11,0,0,11,548.9,366.1)" />
<use xlink:href="#f3_d" transform="matrix(11,0,0,11,557.3,366.1)" />
<use xlink:href="#f3_h" transform="matrix(11,0,0,11,564.8,366.1)" />
<use xlink:href="#f3_9" transform="matrix(11,0,0,11,398.1,366.1)" />
<use xlink:href="#f3_o" transform="matrix(11,0,0,11,405.6,366.1)" />
<use xlink:href="#f3_i" transform="matrix(11,0,0,11,414,366.1)" />
<use xlink:href="#f3_n" transform="matrix(11,0,0,11,421.5,366.1)" />
<use xlink:href="#f3_9" transform="matrix(11,0,0,11,426.1,366.1)" />
<use xlink:href="#f3_o" transform="matrix(11,0,0,11,433.5,366.1)" />
<use xlink:href="#f3_8" transform="matrix(11,0,0,11,441.9,366.1)" />
<use xlink:href="#f3_b" transform="matrix(11,0,0,11,450.3,366.1)" />
<use xlink:href="#f3_c" transform="matrix(11,0,0,11,268,366.1)" />
<use xlink:href="#f3_g" transform="matrix(11,0,0,11,281,366.1)" />
<use xlink:href="#f3_9" transform="matrix(11,0,0,11,289.4,366.1)" />
<use xlink:href="#f3_e" transform="matrix(11,0,0,11,296.8,366.1)" />
<use xlink:href="#f3_9" transform="matrix(11,0,0,11,305.2,366.1)" />
<use xlink:href="#f3_h" transform="matrix(11,0,0,11,312.7,366.1)" />
<use xlink:href="#f3_t" transform="matrix(11,0,0,11,137.7,366.1)" />
<use xlink:href="#f3_g" transform="matrix(11,0,0,11,146.1,366.1)" />
<use xlink:href="#f3_9" transform="matrix(11,0,0,11,154.5,366.1)" />
<use xlink:href="#f3_k" transform="matrix(11,0,0,11,161.9,366.1)" />
<use xlink:href="#f3_9" transform="matrix(11,0,0,11,166.6,366.1)" />
<use xlink:href="#f3_9" transform="matrix(11,0,0,11,658.6,386.1)" />
<use xlink:href="#f3_17" transform="matrix(11,0,0,11,666.1,386.1)" />
<use xlink:href="#f3_m" transform="matrix(11,0,0,11,674.5,386.1)" />
<use xlink:href="#f3_f" transform="matrix(11,0,0,11,682.9,386.1)" />
<use xlink:href="#f3_9" transform="matrix(11,0,0,11,688.5,386.1)" />
<use xlink:href="#f3_h" transform="matrix(11,0,0,11,695.8,386.1)" />
<use xlink:href="#f3_b" transform="matrix(11,0,0,11,702.4,386.1)" />
<use xlink:href="#f3_c" transform="matrix(11,0,0,11,528.5,386.1)" />
<use xlink:href="#f3_n" transform="matrix(11,0,0,11,541.4,386.1)" />
<use xlink:href="#f3_f" transform="matrix(11,0,0,11,546.2,386.1)" />
<use xlink:href="#f3_d" transform="matrix(11,0,0,11,551.7,386.1)" />
<use xlink:href="#f3_c" transform="matrix(11,0,0,11,559.1,386.1)" />
<use xlink:href="#f3_b" transform="matrix(11,0,0,11,572.3,386.1)" />
<use xlink:href="#f3_h" transform="matrix(11,0,0,11,580.7,386.1)" />
<use xlink:href="#f3_u" transform="matrix(11,0,0,11,398.1,386.1)" />
<use xlink:href="#f3_g" transform="matrix(11,0,0,11,406.5,386.1)" />
<use xlink:href="#f3_1a" transform="matrix(11,0,0,11,414.9,386.1)" />
<use xlink:href="#f3_d" transform="matrix(11,0,0,11,419.7,386.1)" />
<use xlink:href="#f3_h" transform="matrix(11,0,0,11,427.1,386.1)" />
<use xlink:href="#f3_i" transform="matrix(11,0,0,11,268,386.1)" />
<use xlink:href="#f3_d" transform="matrix(11,0,0,11,275.3,386.1)" />
<use xlink:href="#f3_n" transform="matrix(11,0,0,11,282.8,386.1)" />
<use xlink:href="#f3_u" transform="matrix(11,0,0,11,287.5,386.1)" />
<use xlink:href="#f3_b" transform="matrix(11,0,0,11,295.9,386.1)" />
<use xlink:href="#f3_t" transform="matrix(11,0,0,11,137.7,386.1)" />
<use xlink:href="#f3_g" transform="matrix(11,0,0,11,146.1,386.1)" />
<use xlink:href="#f3_l" transform="matrix(11,0,0,11,154.5,386.1)" />
<use xlink:href="#f3_9" transform="matrix(11,0,0,11,162.9,386.1)" />
<use xlink:href="#f0_d" transform="matrix(12,0,0,12,669.8,426.9)" />
<use xlink:href="#f0_a" transform="matrix(12,0,0,12,680.9,426.9)" />
<use xlink:href="#f0_8" transform="matrix(12,0,0,12,693.1,426.9)" />
<use xlink:href="#f0_5" transform="matrix(12,0,0,12,699.4,426.9)" />
<use xlink:href="#f0_j" transform="matrix(12,0,0,12,711.4,426.9)" />
<use xlink:href="#f0_7" transform="matrix(12,0,0,12,730.4,426.9)" />
<use xlink:href="#f0_4" transform="matrix(12,0,0,12,742.9,426.9)" />
<use xlink:href="#f0_8" transform="matrix(12,0,0,12,753.9,426.9)" />
<use xlink:href="#f0_h" transform="matrix(12,0,0,12,760.1,426.9)" />
</g>
</g>
<path d="M128.6,431.7H780.5m-651.9,20H780.5M128.6,471.9H780.5m-651.9,20H780.5M128.9,431.3v61m130.2,-61v61m130.3,-61v61m130.2,-61v61m130.3,-61v61m130.2,-61v61" class="g0_17" />
<g clip-path="url(#c0_17)">
<g fill="#000000" >
<use xlink:href="#f5_2" transform="matrix(11,0,0,11,658.6,447.6)" />
<use xlink:href="#f5_3" transform="matrix(11,0,0,11,667,447.6)" />
<use xlink:href="#f5_2" transform="matrix(11,0,0,11,674.5,447.6)" />
<use xlink:href="#f5_4" transform="matrix(11,0,0,11,682.9,447.6)" />
<use xlink:href="#f5_5" transform="matrix(11,0,0,11,687.6,447.6)" />
<use xlink:href="#f5_6" transform="matrix(11,0,0,11,695.1,447.6)" />
<use xlink:href="#f5_7" transform="matrix(11,0,0,11,703.3,447.6)" />
<use xlink:href="#f0_p" transform="matrix(12,0,0,12,721.4,528.6)" />
<use xlink:href="#f0_8" transform="matrix(12,0,0,12,734.1,528.6)" />
<use xlink:href="#f0_q" transform="matrix(12,0,0,12,740.4,528.6)" />
<use xlink:href="#f0_4" transform="matrix(12,0,0,12,748.6,528.6)" />
<use xlink:href="#f0_7" transform="matrix(12,0,0,12,759.6,528.6)" />
</g>
</g>
<path d="M128.6,533.4H780.5M128.6,555.6H780.5m-651.9,20H780.5M128.6,595.8H780.5M128.9,533v63.1M259.1,533v63.1M389.4,533v63.1M519.6,533v63.1M649.9,533v63.1M780.1,533v63.1" class="g0_17" />
<g clip-path="url(#c0_17)">
<g fill="#000000" >
<use xlink:href="#f6_2" transform="matrix(12,0,0,12,709.3,550.8)" />
<use xlink:href="#f6_3" transform="matrix(12,0,0,12,722.3,550.8)" />
<use xlink:href="#f6_4" transform="matrix(12,0,0,12,726.4,550.8)" />
<use xlink:href="#f6_5" transform="matrix(12,0,0,12,736.5,550.8)" />
<use xlink:href="#f6_6" transform="matrix(12,0,0,12,749.5,550.8)" />
<use xlink:href="#f6_7" transform="matrix(12,0,0,12,761.4,550.8)" />
</g>
<g fill="#0000FF" >
<use xlink:href="#f2_4" transform="matrix(12,0,0,12,649.3,631.4)" />
<use xlink:href="#f2_3" transform="matrix(12,0,0,12,660,631.4)" />
<use xlink:href="#f2_u" transform="matrix(12,0,0,12,664.5,631.4)" />
<use xlink:href="#f2_b" transform="matrix(12,0,0,12,672.3,631.4)" />
<use xlink:href="#f2_a" transform="matrix(12,0,0,12,683.1,631.4)" />
<use xlink:href="#f2_4" transform="matrix(12,0,0,12,695.5,631.4)" />
<use xlink:href="#f2_a" transform="matrix(12,0,0,12,712.4,631.4)" />
<use xlink:href="#f2_7" transform="matrix(12,0,0,12,724.9,631.4)" />
<use xlink:href="#f2_d" transform="matrix(12,0,0,12,730.3,631.4)" />
<use xlink:href="#f2_7" transform="matrix(12,0,0,12,741.2,631.4)" />
<use xlink:href="#f2_9" transform="matrix(12,0,0,12,746.6,631.4)" />
<use xlink:href="#f2_a" transform="matrix(12,0,0,12,759.8,631.4)" />
</g>
</g>
<path d="M642.9,633.3H772.1" class="g1_17" />
<g clip-path="url(#c1_17)">
<path d="M642.4,633.3h5.8" class="g1_17" />
</g>
<g clip-path="url(#c0_17)">
<g fill="#0000FF" >
<use xlink:href="#f2_1g" transform="matrix(12,0,0,12,630.7,631.4)" />
</g>
</g>
<path d="M630.7,633.3h11.6" class="g1_17" />
<g clip-path="url(#c0_17)">
<g fill="#000000" >
<use xlink:href="#f4_20" transform="matrix(16,0,0,16,670.4,735)" />
<use xlink:href="#f4_17" transform="matrix(16,0,0,16,682.9,735)" />
<use xlink:href="#f4_1g" transform="matrix(16,0,0,16,689.6,735)" />
<use xlink:href="#f4_1z" transform="matrix(16,0,0,16,697.8,735)" />
<use xlink:href="#f4_1r" transform="matrix(16,0,0,16,710,735)" />
<use xlink:href="#f4_18" transform="matrix(16,0,0,16,724.8,735)" />
<use xlink:href="#f4_1x" transform="matrix(16,0,0,16,743.1,735)" />
<use xlink:href="#f4_1r" transform="matrix(16,0,0,16,757.4,735)" />
<use xlink:href="#f2_p" transform="matrix(12,0,0,12,138,757.3)" />
<use xlink:href="#f2_3" transform="matrix(12,0,0,12,143,757.3)" />
<use xlink:href="#f2_f" transform="matrix(12,0,0,12,147.1,757.3)" />
<use xlink:href="#f2_c" transform="matrix(12,0,0,12,156.7,757.3)" />
<use xlink:href="#f2_4" transform="matrix(12,0,0,12,168.6,757.3)" />
<use xlink:href="#f2_a" transform="matrix(12,0,0,12,188,757.3)" />
<use xlink:href="#f2_i" transform="matrix(12,0,0,12,200,757.3)" />
<use xlink:href="#f2_e" transform="matrix(12,0,0,12,210.1,757.3)" />
<use xlink:href="#f2_4" transform="matrix(12,0,0,12,222.5,757.3)" />
<use xlink:href="#f2_g" transform="matrix(12,0,0,12,241.8,757.3)" />
<use xlink:href="#f2_j" transform="matrix(12,0,0,12,253.6,757.3)" />
<use xlink:href="#f2_7" transform="matrix(12,0,0,12,265.8,757.3)" />
<use xlink:href="#f2_t" transform="matrix(12,0,0,12,280,757.3)" />
<use xlink:href="#f2_o" transform="matrix(12,0,0,12,285.8,757.3)" />
<use xlink:href="#f2_3" transform="matrix(12,0,0,12,298,757.3)" />
<use xlink:href="#f2_4" transform="matrix(12,0,0,12,302.1,757.3)" />
<use xlink:href="#f2_f" transform="matrix(12,0,0,12,312.5,757.3)" />
<use xlink:href="#f2_j" transform="matrix(12,0,0,12,322.1,757.3)" />
<use xlink:href="#f2_e" transform="matrix(12,0,0,12,334.4,757.3)" />
<use xlink:href="#f2_d" transform="matrix(12,0,0,12,346.7,757.3)" />
<use xlink:href="#f2_7" transform="matrix(12,0,0,12,357.3,757.3)" />
<use xlink:href="#f2_a" transform="matrix(12,0,0,12,371.5,757.3)" />
<use xlink:href="#f2_7" transform="matrix(12,0,0,12,383.4,757.3)" />
<use xlink:href="#f2_i" transform="matrix(12,0,0,12,388.4,757.3)" />
<use xlink:href="#f2_5" transform="matrix(12,0,0,12,398.5,757.3)" />
<use xlink:href="#f2_h" transform="matrix(12,0,0,12,409.9,757.3)" />
<use xlink:href="#f2_e" transform="matrix(12,0,0,12,421.7,757.3)" />
<use xlink:href="#f2_d" transform="matrix(12,0,0,12,434.2,757.3)" />
<use xlink:href="#f2_b" transform="matrix(12,0,0,12,453.9,757.3)" />
<use xlink:href="#f2_7" transform="matrix(12,0,0,12,464.2,757.3)" />
<use xlink:href="#f2_9" transform="matrix(12,0,0,12,469.3,757.3)" />
<use xlink:href="#f2_8" transform="matrix(12,0,0,12,482.2,757.3)" />
<use xlink:href="#f2_c" transform="matrix(12,0,0,12,495.2,757.3)" />
<use xlink:href="#f2_d" transform="matrix(12,0,0,12,516.1,757.3)" />
<use xlink:href="#f2_b" transform="matrix(12,0,0,12,526.6,757.3)" />
<use xlink:href="#f2_o" transform="matrix(12,0,0,12,546,757.3)" />
<use xlink:href="#f2_3" transform="matrix(12,0,0,12,558.2,757.3)" />
<use xlink:href="#f2_4" transform="matrix(12,0,0,12,562.3,757.3)" />
<use xlink:href="#f2_3" transform="matrix(12,0,0,12,572.7,757.3)" />
<use xlink:href="#f2_e" transform="matrix(12,0,0,12,576.7,757.3)" />
<use xlink:href="#f2_b" transform="matrix(12,0,0,12,598.2,757.3)" />
<use xlink:href="#f2_s" transform="matrix(12,0,0,12,608.6,757.3)" />
<use xlink:href="#f2_7" transform="matrix(12,0,0,12,619.4,757.3)" />
<use xlink:href="#f2_j" transform="matrix(12,0,0,12,624.5,757.3)" />
<use xlink:href="#f2_a" transform="matrix(12,0,0,12,645.8,757.3)" />
<use xlink:href="#f2_b" transform="matrix(12,0,0,12,657.8,757.3)" />
<use xlink:href="#f2_f" transform="matrix(12,0,0,12,668.2,757.3)" />
<use xlink:href="#f2_c" transform="matrix(12,0,0,12,677.8,757.3)" />
<use xlink:href="#f2_c" transform="matrix(12,0,0,12,698.7,757.3)" />
<use xlink:href="#f2_l" transform="matrix(12,0,0,12,710.6,757.3)" />
<use xlink:href="#f2_8" transform="matrix(12,0,0,12,726,757.3)" />
<use xlink:href="#f2_b" transform="matrix(12,0,0,12,739,757.3)" />
<use xlink:href="#f2_m" transform="matrix(12,0,0,12,749.4,757.3)" />
<use xlink:href="#f2_d" transform="matrix(12,0,0,12,760.8,757.3)" />
<use xlink:href="#f2_1b" transform="matrix(12,0,0,12,609,778.7)" />
<use xlink:href="#f2_r" transform="matrix(12,0,0,12,627.3,778.7)" />
<use xlink:href="#f2_d" transform="matrix(12,0,0,12,639.2,778.7)" />
<use xlink:href="#f2_7" transform="matrix(12,0,0,12,649.8,778.7)" />
<use xlink:href="#f2_9" transform="matrix(12,0,0,12,654.8,778.7)" />
<use xlink:href="#f2_e" transform="matrix(12,0,0,12,667.6,778.7)" />
<use xlink:href="#f2_a" transform="matrix(12,0,0,12,685.9,778.7)" />
<use xlink:href="#f2_7" transform="matrix(12,0,0,12,698,778.7)" />
<use xlink:href="#f2_8" transform="matrix(12,0,0,12,703,778.7)" />
<use xlink:href="#f2_b" transform="matrix(12,0,0,12,716,778.7)" />
<use xlink:href="#f2_3" transform="matrix(12,0,0,12,726.4,778.7)" />
<use xlink:href="#f2_8" transform="matrix(12,0,0,12,736.3,778.7)" />
<use xlink:href="#f2_b" transform="matrix(12,0,0,12,749.3,778.7)" />
<use xlink:href="#f2_e" transform="matrix(12,0,0,12,759.5,778.7)" />
<use xlink:href="#f2_f" transform="matrix(12,0,0,12,482.3,800.1)" />
<use xlink:href="#f2_b" transform="matrix(12,0,0,12,497.9,800.1)" />
<use xlink:href="#f2_d" transform="matrix(12,0,0,12,508.3,800.1)" />
<use xlink:href="#f2_f" transform="matrix(12,0,0,12,518.8,800.1)" />
<use xlink:href="#f2_5" transform="matrix(12,0,0,12,534.2,800.1)" />
<use xlink:href="#f2_i" transform="matrix(12,0,0,12,545.7,800.1)" />
<use xlink:href="#f2_7" transform="matrix(12,0,0,12,555.8,800.1)" />
<use xlink:href="#f2_3" transform="matrix(12,0,0,12,560.7,800.1)" />
<use xlink:href="#f2_c" transform="matrix(12,0,0,12,570.7,800.1)" />
<use xlink:href="#f2_a" transform="matrix(12,0,0,12,582.6,800.1)" />
<use xlink:href="#f2_j" transform="matrix(12,0,0,12,594.7,800.1)" />
<use xlink:href="#f2_t" transform="matrix(12,0,0,12,612.9,800.1)" />
<use xlink:href="#f2_3" transform="matrix(12,0,0,12,618.7,800.1)" />
<use xlink:href="#f2_5" transform="matrix(12,0,0,12,622.8,800.1)" />
<use xlink:href="#f2_3" transform="matrix(12,0,0,12,634.2,800.1)" />
<use xlink:href="#f2_d" transform="matrix(12,0,0,12,638.3,800.1)" />
<use xlink:href="#f2_9" transform="matrix(12,0,0,12,648.9,800.1)" />
<use xlink:href="#f2_c" transform="matrix(12,0,0,12,661.9,800.1)" />
<use xlink:href="#f2_8" transform="matrix(12,0,0,12,679.6,800.1)" />
<use xlink:href="#f2_b" transform="matrix(12,0,0,12,692.6,800.1)" />
<use xlink:href="#f2_m" transform="matrix(12,0,0,12,702.9,800.1)" />
<use xlink:href="#f2_c" transform="matrix(12,0,0,12,714.4,800.1)" />
<use xlink:href="#f2_o" transform="matrix(12,0,0,12,732.2,800.1)" />
<use xlink:href="#f2_7" transform="matrix(12,0,0,12,744.3,800.1)" />
<use xlink:href="#f2_a" transform="matrix(12,0,0,12,749.3,800.1)" />
<use xlink:href="#f2_d" transform="matrix(12,0,0,12,761.4,800.1)" />
<use xlink:href="#f2_1d" transform="matrix(12,0,0,12,447,800.1)" />
<use xlink:href="#f2_1h" transform="matrix(12,0,0,12,458.6,800.1)" />
<use xlink:href="#f2_1h" transform="matrix(12,0,0,12,470.2,800.1)" />
<use xlink:href="#f2_v" transform="matrix(12,0,0,12,378.6,800.1)" />
<use xlink:href="#f2_o" transform="matrix(12,0,0,12,391.6,800.1)" />
<use xlink:href="#f2_3" transform="matrix(12,0,0,12,403.6,800.1)" />
<use xlink:href="#f2_4" transform="matrix(12,0,0,12,407.7,800.1)" />
<use xlink:href="#f2_3" transform="matrix(12,0,0,12,418.1,800.1)" />
<use xlink:href="#f2_e" transform="matrix(12,0,0,12,422.2,800.1)" />
<use xlink:href="#f2_y" transform="matrix(12,0,0,12,440.5,800.1)" />
<use xlink:href="#f3_1f" transform="matrix(11,0,0,11,180.7,800.1)" />
<use xlink:href="#f3_p" transform="matrix(11,0,0,11,191,800.1)" />
<use xlink:href="#f3_h" transform="matrix(11,0,0,11,203.6,800.1)" />
<use xlink:href="#f3_d" transform="matrix(11,0,0,11,210.2,800.1)" />
<use xlink:href="#f3_j" transform="matrix(11,0,0,11,217.7,800.1)" />
<use xlink:href="#f3_9" transform="matrix(11,0,0,11,225.9,800.1)" />
<use xlink:href="#f3_h" transform="matrix(11,0,0,11,233.4,800.1)" />
<use xlink:href="#f3_h" transform="matrix(11,0,0,11,244.2,800.1)" />
<use xlink:href="#f3_9" transform="matrix(11,0,0,11,250.6,800.1)" />
<use xlink:href="#f3_a" transform="matrix(11,0,0,11,258.1,800.1)" />
<use xlink:href="#f3_9" transform="matrix(11,0,0,11,262.8,800.1)" />
<use xlink:href="#f3_i" transform="matrix(11,0,0,11,270.3,800.1)" />
<use xlink:href="#f3_n" transform="matrix(11,0,0,11,277.6,800.1)" />
<use xlink:href="#f3_9" transform="matrix(11,0,0,11,282.3,800.1)" />
<use xlink:href="#f3_o" transform="matrix(11,0,0,11,289.8,800.1)" />
<use xlink:href="#f3_a" transform="matrix(11,0,0,11,298.2,800.1)" />
<use xlink:href="#f3_b" transform="matrix(11,0,0,11,302.9,800.1)" />
<use xlink:href="#f3_h" transform="matrix(11,0,0,11,311.3,800.1)" />
<use xlink:href="#f3_m" transform="matrix(11,0,0,11,322,800.1)" />
<use xlink:href="#f3_d" transform="matrix(11,0,0,11,330.4,800.1)" />
<use xlink:href="#f3_k" transform="matrix(11,0,0,11,337.7,800.1)" />
<use xlink:href="#f3_d" transform="matrix(11,0,0,11,342.4,800.1)" />
<use xlink:href="#f3_j" transform="matrix(11,0,0,11,349.9,800.1)" />
<use xlink:href="#f3_f" transform="matrix(11,0,0,11,358.3,800.1)" />
<use xlink:href="#f3_d" transform="matrix(11,0,0,11,363.9,800.1)" />
<use xlink:href="#f3_h" transform="matrix(11,0,0,11,371.4,800.1)" />
<use xlink:href="#f2_o" transform="matrix(12,0,0,12,137.7,800.1)" />
<use xlink:href="#f2_j" transform="matrix(12,0,0,12,149.9,800.1)" />
<use xlink:href="#f2_n" transform="matrix(12,0,0,12,167.9,800.1)" />
<use xlink:href="#f2_x" transform="matrix(12,0,0,12,173.7,800.1)" />
<use xlink:href="#f2_a" transform="matrix(12,0,0,12,317,821.5)" />
<use xlink:href="#f2_j" transform="matrix(12,0,0,12,329,821.5)" />
<use xlink:href="#f2_a" transform="matrix(12,0,0,12,347.6,821.5)" />
<use xlink:href="#f2_7" transform="matrix(12,0,0,12,359.6,821.5)" />
<use xlink:href="#f2_k" transform="matrix(12,0,0,12,364.6,821.5)" />
<use xlink:href="#f2_c" transform="matrix(12,0,0,12,376.5,821.5)" />
<use xlink:href="#f2_4" transform="matrix(12,0,0,12,388.4,821.5)" />
<use xlink:href="#f2_5" transform="matrix(12,0,0,12,405.1,821.5)" />
<use xlink:href="#f2_i" transform="matrix(12,0,0,12,416.6,821.5)" />
<use xlink:href="#f2_7" transform="matrix(12,0,0,12,426.5,821.5)" />
<use xlink:href="#f2_3" transform="matrix(12,0,0,12,431.6,821.5)" />
<use xlink:href="#f2_c" transform="matrix(12,0,0,12,441.9,821.5)" />
<use xlink:href="#f2_a" transform="matrix(12,0,0,12,453.8,821.5)" />
<use xlink:href="#f2_j" transform="matrix(12,0,0,12,465.9,821.5)" />
<use xlink:href="#f2_9" transform="matrix(12,0,0,12,478.1,821.5)" />
<use xlink:href="#f2_3" transform="matrix(12,0,0,12,497.5,821.5)" />
<use xlink:href="#f2_b" transform="matrix(12,0,0,12,501.6,821.5)" />
<use xlink:href="#f2_c" transform="matrix(12,0,0,12,511.9,821.5)" />
<use xlink:href="#f2_t" transform="matrix(12,0,0,12,530.1,821.5)" />
<use xlink:href="#f2_o" transform="matrix(12,0,0,12,535.9,821.5)" />
<use xlink:href="#f2_3" transform="matrix(12,0,0,12,548.1,821.5)" />
<use xlink:href="#f2_4" transform="matrix(12,0,0,12,552.2,821.5)" />
<use xlink:href="#f2_5" transform="matrix(12,0,0,12,562.6,821.5)" />
<use xlink:href="#f2_m" transform="matrix(12,0,0,12,574.1,821.5)" />
<use xlink:href="#f2_c" transform="matrix(12,0,0,12,585.5,821.5)" />
<use xlink:href="#f2_a" transform="matrix(12,0,0,12,603.6,821.5)" />
<use xlink:href="#f2_7" transform="matrix(12,0,0,12,615.7,821.5)" />
<use xlink:href="#f2_3" transform="matrix(12,0,0,12,620.7,821.5)" />
<use xlink:href="#f2_k" transform="matrix(12,0,0,12,624.8,821.5)" />
<use xlink:href="#f2_c" transform="matrix(12,0,0,12,636.7,821.5)" />
<use xlink:href="#f2_a" transform="matrix(12,0,0,12,654.8,821.5)" />
<use xlink:href="#f2_j" transform="matrix(12,0,0,12,666.9,821.5)" />
<use xlink:href="#f2_d" transform="matrix(12,0,0,12,685.5,821.5)" />
<use xlink:href="#f2_7" transform="matrix(12,0,0,12,696,821.5)" />
<use xlink:href="#f2_k" transform="matrix(12,0,0,12,700.9,821.5)" />
<use xlink:href="#f2_a" transform="matrix(12,0,0,12,719.2,821.5)" />
<use xlink:href="#f2_4" transform="matrix(12,0,0,12,731.3,821.5)" />
<use xlink:href="#f2_u" transform="matrix(12,0,0,12,741.7,821.5)" />
<use xlink:href="#f2_b" transform="matrix(12,0,0,12,749.1,821.5)" />
<use xlink:href="#f2_a" transform="matrix(12,0,0,12,759.4,821.5)" />
<use xlink:href="#f2_13" transform="matrix(12,0,0,12,275.3,821.5)" />
<use xlink:href="#f2_14" transform="matrix(12,0,0,12,286.9,821.5)" />
<use xlink:href="#f2_1h" transform="matrix(12,0,0,12,298.5,821.5)" />
<use xlink:href="#f2_t" transform="matrix(12,0,0,12,137.5,821.5)" />
<use xlink:href="#f2_a" transform="matrix(12,0,0,12,143.3,821.5)" />
<use xlink:href="#f2_i" transform="matrix(12,0,0,12,155.4,821.5)" />
<use xlink:href="#f2_e" transform="matrix(12,0,0,12,165.4,821.5)" />
<use xlink:href="#f2_4" transform="matrix(12,0,0,12,177.8,821.5)" />
<use xlink:href="#f2_9" transform="matrix(12,0,0,12,188.2,821.5)" />
<use xlink:href="#f2_o" transform="matrix(12,0,0,12,207.6,821.5)" />
<use xlink:href="#f2_3" transform="matrix(12,0,0,12,219.8,821.5)" />
<use xlink:href="#f2_4" transform="matrix(12,0,0,12,223.9,821.5)" />
<use xlink:href="#f2_5" transform="matrix(12,0,0,12,234.3,821.5)" />
<use xlink:href="#f2_m" transform="matrix(12,0,0,12,245.7,821.5)" />
<use xlink:href="#f2_c" transform="matrix(12,0,0,12,257.2,821.5)" />
<use xlink:href="#f2_4" transform="matrix(12,0,0,12,501.7,842.9)" />
<use xlink:href="#f2_10" transform="matrix(12,0,0,12,520.2,842.9)" />
<use xlink:href="#f2_m" transform="matrix(12,0,0,12,530.1,842.9)" />
<use xlink:href="#f2_7" transform="matrix(12,0,0,12,541.5,842.9)" />
<use xlink:href="#f2_8" transform="matrix(12,0,0,12,546.5,842.9)" />
<use xlink:href="#f2_p" transform="matrix(12,0,0,12,567.6,842.9)" />
<use xlink:href="#f2_3" transform="matrix(12,0,0,12,572.6,842.9)" />
<use xlink:href="#f2_d" transform="matrix(12,0,0,12,576.6,842.9)" />
<use xlink:href="#f2_e" transform="matrix(12,0,0,12,587.1,842.9)" />
<use xlink:href="#f2_c" transform="matrix(12,0,0,12,607.9,842.9)" />
<use xlink:href="#f2_a" transform="matrix(12,0,0,12,619.8,842.9)" />
<use xlink:href="#f2_j" transform="matrix(12,0,0,12,631.8,842.9)" />
<use xlink:href="#f2_9" transform="matrix(12,0,0,12,644.1,842.9)" />
<use xlink:href="#f2_o" transform="matrix(12,0,0,12,665.1,842.9)" />
<use xlink:href="#f2_3" transform="matrix(12,0,0,12,677.3,842.9)" />
<use xlink:href="#f2_4" transform="matrix(12,0,0,12,681.4,842.9)" />
<use xlink:href="#f2_3" transform="matrix(12,0,0,12,691.8,842.9)" />
<use xlink:href="#f2_e" transform="matrix(12,0,0,12,695.9,842.9)" />
<use xlink:href="#f2_c" transform="matrix(12,0,0,12,708.4,842.9)" />
<use xlink:href="#f2_b" transform="matrix(12,0,0,12,728.4,842.9)" />
<use xlink:href="#f2_s" transform="matrix(12,0,0,12,738.8,842.9)" />
<use xlink:href="#f2_7" transform="matrix(12,0,0,12,749.6,842.9)" />
<use xlink:href="#f2_j" transform="matrix(12,0,0,12,754.5,842.9)" />
<use xlink:href="#f2_7" transform="matrix(12,0,0,12,766.7,842.9)" />
<use xlink:href="#f2_13" transform="matrix(12,0,0,12,446.6,842.9)" />
<use xlink:href="#f2_17" transform="matrix(12,0,0,12,458.2,842.9)" />
<use xlink:href="#f2_14" transform="matrix(12,0,0,12,469.8,842.9)" />
<use xlink:href="#f2_1h" transform="matrix(12,0,0,12,481.4,842.9)" />
<use xlink:href="#f2_b" transform="matrix(12,0,0,12,137.8,842.9)" />
<use xlink:href="#f2_7" transform="matrix(12,0,0,12,148.2,842.9)" />
<use xlink:href="#f2_b" transform="matrix(12,0,0,12,153.2,842.9)" />
<use xlink:href="#f2_d" transform="matrix(12,0,0,12,163.6,842.9)" />
<use xlink:href="#f2_n" transform="matrix(12,0,0,12,182.2,842.9)" />
<use xlink:href="#f2_j" transform="matrix(12,0,0,12,188,842.9)" />
<use xlink:href="#f2_4" transform="matrix(12,0,0,12,200.2,842.9)" />
<use xlink:href="#f2_m" transform="matrix(12,0,0,12,210.6,842.9)" />
<use xlink:href="#f2_a" transform="matrix(12,0,0,12,222,842.9)" />
<use xlink:href="#f2_a" transform="matrix(12,0,0,12,234.1,842.9)" />
<use xlink:href="#f2_4" transform="matrix(12,0,0,12,254.4,842.9)" />
<use xlink:href="#f2_j" transform="matrix(12,0,0,12,264.8,842.9)" />
<use xlink:href="#f2_1e" transform="matrix(12,0,0,12,285,842.9)" />
<use xlink:href="#f2_b" transform="matrix(12,0,0,12,294.7,842.9)" />
<use xlink:href="#f2_l" transform="matrix(12,0,0,12,305,842.9)" />
<use xlink:href="#f2_7" transform="matrix(12,0,0,12,311.3,842.9)" />
<use xlink:href="#f2_e" transform="matrix(12,0,0,12,316.3,842.9)" />
<use xlink:href="#f2_5" transform="matrix(12,0,0,12,336.9,842.9)" />
<use xlink:href="#f2_e" transform="matrix(12,0,0,12,348.4,842.9)" />
<use xlink:href="#f2_9" transform="matrix(12,0,0,12,360.9,842.9)" />
<use xlink:href="#f2_q" transform="matrix(12,0,0,12,373.9,842.9)" />
<use xlink:href="#f2_n" transform="matrix(12,0,0,12,389.2,842.9)" />
<use xlink:href="#f2_o" transform="matrix(12,0,0,12,395.1,842.9)" />
<use xlink:href="#f2_3" transform="matrix(12,0,0,12,407.3,842.9)" />
<use xlink:href="#f2_4" transform="matrix(12,0,0,12,411.4,842.9)" />
<use xlink:href="#f2_3" transform="matrix(12,0,0,12,421.8,842.9)" />
<use xlink:href="#f2_e" transform="matrix(12,0,0,12,425.7,842.9)" />
<use xlink:href="#f2_2" transform="matrix(12,0,0,12,138.1,864.3)" />
<use xlink:href="#f2_4" transform="matrix(12,0,0,12,147.9,864.3)" />
<use xlink:href="#f2_b" transform="matrix(12,0,0,12,165.9,864.3)" />
<use xlink:href="#f2_7" transform="matrix(12,0,0,12,176.3,864.3)" />
<use xlink:href="#f2_l" transform="matrix(12,0,0,12,181.2,864.3)" />
<use xlink:href="#f2_5" transform="matrix(12,0,0,12,187.6,864.3)" />
<use xlink:href="#f2_4" transform="matrix(12,0,0,12,199,864.3)" />
<use xlink:href="#f2_3" transform="matrix(12,0,0,12,217,864.3)" />
<use xlink:href="#f2_i" transform="matrix(12,0,0,12,221.1,864.3)" />
<use xlink:href="#f2_f" transform="matrix(12,0,0,12,231.2,864.3)" />
<use xlink:href="#f2_o" transform="matrix(12,0,0,12,248.3,864.3)" />
<use xlink:href="#f2_3" transform="matrix(12,0,0,12,260.5,864.3)" />
<use xlink:href="#f2_d" transform="matrix(12,0,0,12,264.6,864.3)" />
<use xlink:href="#f2_7" transform="matrix(12,0,0,12,275.1,864.3)" />
<use xlink:href="#f2_b" transform="matrix(12,0,0,12,280.1,864.3)" />
<use xlink:href="#f2_8" transform="matrix(12,0,0,12,290.5,864.3)" />
<use xlink:href="#f2_c" transform="matrix(12,0,0,12,303.5,864.3)" />
<use xlink:href="#f2_o" transform="matrix(12,0,0,12,323,864.3)" />
<use xlink:href="#f2_3" transform="matrix(12,0,0,12,335.2,864.3)" />
<use xlink:href="#f2_4" transform="matrix(12,0,0,12,339.3,864.3)" />
<use xlink:href="#f2_7" transform="matrix(12,0,0,12,349.7,864.3)" />
<use xlink:href="#f2_u" transform="matrix(12,0,0,12,354.8,864.3)" />
<use xlink:href="#f2_b" transform="matrix(12,0,0,12,362.2,864.3)" />
<use xlink:href="#f2_a" transform="matrix(12,0,0,12,372.6,864.3)" />
<use xlink:href="#f2_d" transform="matrix(12,0,0,12,384.7,864.3)" />
<use xlink:href="#f2_d" transform="matrix(12,0,0,12,402.8,864.3)" />
<use xlink:href="#f2_7" transform="matrix(12,0,0,12,413.3,864.3)" />
<use xlink:href="#f2_9" transform="matrix(12,0,0,12,418.2,864.3)" />
<use xlink:href="#f2_7" transform="matrix(12,0,0,12,438.8,864.3)" />
<use xlink:href="#f2_5" transform="matrix(12,0,0,12,443.9,864.3)" />
<use xlink:href="#f2_3" transform="matrix(12,0,0,12,455.3,864.3)" />
<use xlink:href="#f2_m" transform="matrix(12,0,0,12,459.4,864.3)" />
<use xlink:href="#f2_7" transform="matrix(12,0,0,12,470.9,864.3)" />
<use xlink:href="#f2_3" transform="matrix(12,0,0,12,475.8,864.3)" />
<use xlink:href="#f2_p" transform="matrix(12,0,0,12,487.5,864.3)" />
<use xlink:href="#f2_c" transform="matrix(12,0,0,12,492.5,864.3)" />
<use xlink:href="#f2_2" transform="matrix(12,0,0,12,512,864.3)" />
<use xlink:href="#f2_j" transform="matrix(12,0,0,12,521.8,864.3)" />
<use xlink:href="#f2_t" transform="matrix(12,0,0,12,541.6,864.3)" />
<use xlink:href="#f2_a" transform="matrix(12,0,0,12,547.5,864.3)" />
<use xlink:href="#f2_7" transform="matrix(12,0,0,12,559.5,864.3)" />
<use xlink:href="#f2_d" transform="matrix(12,0,0,12,564.5,864.3)" />
<use xlink:href="#f2_b" transform="matrix(12,0,0,12,575.1,864.3)" />
<use xlink:href="#f2_o" transform="matrix(12,0,0,12,592.9,864.3)" />
<use xlink:href="#f2_3" transform="matrix(12,0,0,12,605.1,864.3)" />
<use xlink:href="#f2_4" transform="matrix(12,0,0,12,609.2,864.3)" />
<use xlink:href="#f2_3" transform="matrix(12,0,0,12,619.6,864.3)" />
<use xlink:href="#f2_e" transform="matrix(12,0,0,12,623.6,864.3)" />
<use xlink:href="#f2_b" transform="matrix(12,0,0,12,643.7,864.3)" />
<use xlink:href="#f2_f" transform="matrix(12,0,0,12,654.1,864.3)" />
<use xlink:href="#f2_7" transform="matrix(12,0,0,12,663.7,864.3)" />
<use xlink:href="#f2_l" transform="matrix(12,0,0,12,668.6,864.3)" />
<use xlink:href="#f2_2" transform="matrix(12,0,0,12,682.8,864.3)" />
<use xlink:href="#f2_q" transform="matrix(12,0,0,12,692.6,864.3)" />
<use xlink:href="#f2_3" transform="matrix(12,0,0,12,699.9,864.3)" />
<use xlink:href="#f2_j" transform="matrix(12,0,0,12,704,864.3)" />
<use xlink:href="#f2_p" transform="matrix(12,0,0,12,723.7,864.3)" />
<use xlink:href="#f2_3" transform="matrix(12,0,0,12,728.7,864.3)" />
<use xlink:href="#f2_3" transform="matrix(12,0,0,12,732.8,864.3)" />
<use xlink:href="#f2_i" transform="matrix(12,0,0,12,736.9,864.3)" />
<use xlink:href="#f2_5" transform="matrix(12,0,0,12,746.9,864.3)" />
<use xlink:href="#f2_9" transform="matrix(12,0,0,12,758.3,864.3)" />
<use xlink:href="#f2_n" transform="matrix(12,0,0,12,712.4,885.7)" />
<use xlink:href="#f2_o" transform="matrix(12,0,0,12,718.2,885.7)" />
<use xlink:href="#f2_b" transform="matrix(12,0,0,12,730.4,885.7)" />
<use xlink:href="#f2_f" transform="matrix(12,0,0,12,740.8,885.7)" />
<use xlink:href="#f2_7" transform="matrix(12,0,0,12,750.4,885.7)" />
<use xlink:href="#f2_l" transform="matrix(12,0,0,12,755.3,885.7)" />
<use xlink:href="#f2_4" transform="matrix(12,0,0,12,761.7,885.7)" />
<use xlink:href="#f2_t" transform="matrix(12,0,0,12,138.4,926.3)" />
<use xlink:href="#f2_3" transform="matrix(12,0,0,12,144.2,926.3)" />
<use xlink:href="#f2_a" transform="matrix(12,0,0,12,148.3,926.3)" />
<use xlink:href="#f2_7" transform="matrix(12,0,0,12,160.4,926.3)" />
<use xlink:href="#f2_j" transform="matrix(12,0,0,12,165.4,926.3)" />
<use xlink:href="#f2_3" transform="matrix(12,0,0,12,184.8,926.3)" />
<use xlink:href="#f2_8" transform="matrix(12,0,0,12,188.9,926.3)" />
<use xlink:href="#f2_9" transform="matrix(12,0,0,12,201.9,926.3)" />
<use xlink:href="#f2_q" transform="matrix(12,0,0,12,214.8,926.3)" />
<use xlink:href="#f2_t" transform="matrix(12,0,0,12,229.3,926.3)" />
<use xlink:href="#f2_3" transform="matrix(12,0,0,12,235.1,926.3)" />
<use xlink:href="#f2_4" transform="matrix(12,0,0,12,239.2,926.3)" />
<use xlink:href="#f2_7" transform="matrix(12,0,0,12,249.6,926.3)" />
<use xlink:href="#f2_j" transform="matrix(12,0,0,12,254.6,926.3)" />
<use xlink:href="#f2_7" transform="matrix(12,0,0,12,274,926.3)" />
<use xlink:href="#f2_j" transform="matrix(12,0,0,12,279,926.3)" />
<use xlink:href="#f2_3" transform="matrix(12,0,0,12,298.4,926.3)" />
<use xlink:href="#f2_4" transform="matrix(12,0,0,12,302.5,926.3)" />
<use xlink:href="#f2_r" transform="matrix(12,0,0,12,320.2,926.3)" />
<use xlink:href="#f2_3" transform="matrix(12,0,0,12,332.1,926.3)" />
<use xlink:href="#f2_q" transform="matrix(12,0,0,12,336.2,926.3)" />
<use xlink:href="#f2_a" transform="matrix(12,0,0,12,343.5,926.3)" />
<use xlink:href="#f2_t" transform="matrix(12,0,0,12,362.7,926.3)" />
<use xlink:href="#f2_k" transform="matrix(12,0,0,12,368.5,926.3)" />
<use xlink:href="#f2_8" transform="matrix(12,0,0,12,380.4,926.3)" />
<use xlink:href="#f2_9" transform="matrix(12,0,0,12,393.4,926.3)" />
<use xlink:href="#f2_d" transform="matrix(12,0,0,12,406.4,926.3)" />
<use xlink:href="#f2_3" transform="matrix(12,0,0,12,424.2,926.3)" />
<use xlink:href="#f2_a" transform="matrix(12,0,0,12,428.2,926.3)" />
<use xlink:href="#f2_7" transform="matrix(12,0,0,12,440.3,926.3)" />
<use xlink:href="#f2_j" transform="matrix(12,0,0,12,445.3,926.3)" />
<use xlink:href="#f2_d" transform="matrix(12,0,0,12,464.8,926.3)" />
<use xlink:href="#f2_7" transform="matrix(12,0,0,12,475.3,926.3)" />
<use xlink:href="#f2_l" transform="matrix(12,0,0,12,480.2,926.3)" />
<use xlink:href="#f2_5" transform="matrix(12,0,0,12,486.6,926.3)" />
<use xlink:href="#f2_a" transform="matrix(12,0,0,12,498.1,926.3)" />
<use xlink:href="#f2_12" transform="matrix(12,0,0,12,517.3,926.3)" />
<use xlink:href="#f2_a" transform="matrix(12,0,0,12,523.4,926.3)" />
<use xlink:href="#f2_7" transform="matrix(12,0,0,12,535.4,926.3)" />
<use xlink:href="#f2_7" transform="matrix(12,0,0,12,540.5,926.3)" />
<use xlink:href="#f2_s" transform="matrix(12,0,0,12,545.5,926.3)" />
<use xlink:href="#f2_4" transform="matrix(12,0,0,12,556.3,926.3)" />
<use xlink:href="#f2_i" transform="matrix(12,0,0,12,573.9,926.3)" />
<use xlink:href="#f2_s" transform="matrix(12,0,0,12,583.9,926.3)" />
<use xlink:href="#f2_3" transform="matrix(12,0,0,12,594.8,926.3)" />
<use xlink:href="#f2_f" transform="matrix(12,0,0,12,598.9,926.3)" />
<use xlink:href="#f2_i" transform="matrix(12,0,0,12,615.7,926.3)" />
<use xlink:href="#f2_e" transform="matrix(12,0,0,12,625.7,926.3)" />
<use xlink:href="#f2_4" transform="matrix(12,0,0,12,638.1,926.3)" />
<use xlink:href="#f2_a" transform="matrix(12,0,0,12,648.5,926.3)" />
<use xlink:href="#f2_d" transform="matrix(12,0,0,12,667.9,926.3)" />
<use xlink:href="#f2_7" transform="matrix(12,0,0,12,678.4,926.3)" />
<use xlink:href="#f2_b" transform="matrix(12,0,0,12,683.4,926.3)" />
<use xlink:href="#f2_8" transform="matrix(12,0,0,12,693.8,926.3)" />
<use xlink:href="#f2_c" transform="matrix(12,0,0,12,706.8,926.3)" />
<use xlink:href="#f2_8" transform="matrix(12,0,0,12,725.8,926.3)" />
<use xlink:href="#f2_b" transform="matrix(12,0,0,12,738.8,926.3)" />
<use xlink:href="#f2_m" transform="matrix(12,0,0,12,749.2,926.3)" />
<use xlink:href="#f2_d" transform="matrix(12,0,0,12,760.6,926.3)" />
<use xlink:href="#f2_n" transform="matrix(12,0,0,12,681.8,947.7)" />
<use xlink:href="#f2_3" transform="matrix(12,0,0,12,687.7,947.7)" />
<use xlink:href="#f2_q" transform="matrix(12,0,0,12,691.8,947.7)" />
<use xlink:href="#f2_3" transform="matrix(12,0,0,12,699.1,947.7)" />
<use xlink:href="#f2_d" transform="matrix(12,0,0,12,703.2,947.7)" />
<use xlink:href="#f2_l" transform="matrix(12,0,0,12,713.7,947.7)" />
<use xlink:href="#f2_5" transform="matrix(12,0,0,12,720.1,947.7)" />
<use xlink:href="#f2_a" transform="matrix(12,0,0,12,731.6,947.7)" />
<use xlink:href="#f2_4" transform="matrix(12,0,0,12,749.5,947.7)" />
<use xlink:href="#f2_j" transform="matrix(12,0,0,12,759.9,947.7)" />
<use xlink:href="#f2_w" transform="matrix(12,0,0,12,137.8,969.1)" />
<use xlink:href="#f2_8" transform="matrix(12,0,0,12,146.2,969.1)" />
<use xlink:href="#f2_7" transform="matrix(12,0,0,12,159.2,969.1)" />
<use xlink:href="#f2_k" transform="matrix(12,0,0,12,164.2,969.1)" />
<use xlink:href="#f2_4" transform="matrix(12,0,0,12,184.5,969.1)" />
<use xlink:href="#f2_7" transform="matrix(12,0,0,12,194.9,969.1)" />
<use xlink:href="#f2_e" transform="matrix(12,0,0,12,199.8,969.1)" />
<use xlink:href="#f2_h" transform="matrix(12,0,0,12,212.3,969.1)" />
<use xlink:href="#f2_w" transform="matrix(12,0,0,12,224.2,969.1)" />
<use xlink:href="#f2_a" transform="matrix(12,0,0,12,240.9,969.1)" />
<use xlink:href="#f2_7" transform="matrix(12,0,0,12,253,969.1)" />
<use xlink:href="#f2_r" transform="matrix(12,0,0,12,258,969.1)" />
<use xlink:href="#f2_3" transform="matrix(12,0,0,12,269.9,969.1)" />
<use xlink:href="#f2_9" transform="matrix(12,0,0,12,273.9,969.1)" />
<use xlink:href="#f2_b" transform="matrix(12,0,0,12,295.2,969.1)" />
<use xlink:href="#f2_7" transform="matrix(12,0,0,12,305.6,969.1)" />
<use xlink:href="#f2_s" transform="matrix(12,0,0,12,310.6,969.1)" />
<use xlink:href="#f2_3" transform="matrix(12,0,0,12,321.5,969.1)" />
<use xlink:href="#f2_4" transform="matrix(12,0,0,12,325.6,969.1)" />
<use xlink:href="#f2_2" transform="matrix(12,0,0,12,344.3,969.1)" />
<use xlink:href="#f2_4" transform="matrix(12,0,0,12,354.1,969.1)" />
<use xlink:href="#f2_b" transform="matrix(12,0,0,12,372.9,969.1)" />
<use xlink:href="#f2_7" transform="matrix(12,0,0,12,383.1,969.1)" />
<use xlink:href="#f2_l" transform="matrix(12,0,0,12,388.1,969.1)" />
<use xlink:href="#f2_5" transform="matrix(12,0,0,12,394.5,969.1)" />
<use xlink:href="#f2_3" transform="matrix(12,0,0,12,406,969.1)" />
<use xlink:href="#f2_9" transform="matrix(12,0,0,12,410,969.1)" />
<use xlink:href="#f2_b" transform="matrix(12,0,0,12,431.3,969.1)" />
<use xlink:href="#f2_3" transform="matrix(12,0,0,12,441.7,969.1)" />
<use xlink:href="#f2_7" transform="matrix(12,0,0,12,445.8,969.1)" />
<use xlink:href="#f2_7" transform="matrix(12,0,0,12,450.8,969.1)" />
<use xlink:href="#f2_j" transform="matrix(12,0,0,12,455.8,969.1)" />
<use xlink:href="#f2_c" transform="matrix(12,0,0,12,468.1,969.1)" />
<use xlink:href="#f2_u" transform="matrix(12,0,0,12,488.4,969.1)" />
<use xlink:href="#f2_l" transform="matrix(12,0,0,12,495.8,969.1)" />
<use xlink:href="#f2_e" transform="matrix(12,0,0,12,502.1,969.1)" />
<use xlink:href="#f2_d" transform="matrix(12,0,0,12,514.6,969.1)" />
<use xlink:href="#f2_b" transform="matrix(12,0,0,12,533.5,969.1)" />
<use xlink:href="#f2_7" transform="matrix(12,0,0,12,543.9,969.1)" />
<use xlink:href="#f2_9" transform="matrix(12,0,0,12,548.9,969.1)" />
<use xlink:href="#f2_8" transform="matrix(12,0,0,12,561.9,969.1)" />
<use xlink:href="#f2_c" transform="matrix(12,0,0,12,574.9,969.1)" />
<use xlink:href="#f2_o" transform="matrix(12,0,0,12,595.1,969.1)" />
<use xlink:href="#f2_3" transform="matrix(12,0,0,12,607.2,969.1)" />
<use xlink:href="#f2_4" transform="matrix(12,0,0,12,611.3,969.1)" />
<use xlink:href="#f2_3" transform="matrix(12,0,0,12,621.7,969.1)" />
<use xlink:href="#f2_e" transform="matrix(12,0,0,12,625.8,969.1)" />
<use xlink:href="#f2_b" transform="matrix(12,0,0,12,646.6,969.1)" />
<use xlink:href="#f2_s" transform="matrix(12,0,0,12,656.9,969.1)" />
<use xlink:href="#f2_7" transform="matrix(12,0,0,12,667.8,969.1)" />
<use xlink:href="#f2_j" transform="matrix(12,0,0,12,672.8,969.1)" />
<use xlink:href="#f2_i" transform="matrix(12,0,0,12,693.4,969.1)" />
<use xlink:href="#f2_e" transform="matrix(12,0,0,12,703.3,969.1)" />
<use xlink:href="#f2_4" transform="matrix(12,0,0,12,715.8,969.1)" />
<use xlink:href="#f2_a" transform="matrix(12,0,0,12,726.2,969.1)" />
<use xlink:href="#f2_o" transform="matrix(12,0,0,12,746.5,969.1)" />
<use xlink:href="#f2_u" transform="matrix(12,0,0,12,758.7,969.1)" />
<use xlink:href="#f2_7" transform="matrix(12,0,0,12,766.2,969.1)" />
<use xlink:href="#f2_n" transform="matrix(12,0,0,12,353.1,990.5)" />
<use xlink:href="#f2_c" transform="matrix(12,0,0,12,358.9,990.5)" />
<use xlink:href="#f2_d" transform="matrix(12,0,0,12,370.8,990.5)" />
<use xlink:href="#f2_7" transform="matrix(12,0,0,12,381.3,990.5)" />
<use xlink:href="#f2_b" transform="matrix(12,0,0,12,386.4,990.5)" />
<use xlink:href="#f2_8" transform="matrix(12,0,0,12,396.7,990.5)" />
<use xlink:href="#f2_p" transform="matrix(12,0,0,12,415.5,990.5)" />
<use xlink:href="#f2_8" transform="matrix(12,0,0,12,420.6,990.5)" />
<use xlink:href="#f2_3" transform="matrix(12,0,0,12,433.5,990.5)" />
<use xlink:href="#f2_b" transform="matrix(12,0,0,12,437.5,990.5)" />
<use xlink:href="#f2_7" transform="matrix(12,0,0,12,447.9,990.5)" />
<use xlink:href="#f2_c" transform="matrix(12,0,0,12,452.9,990.5)" />
<use xlink:href="#f2_a" transform="matrix(12,0,0,12,470.6,990.5)" />
<use xlink:href="#f2_m" transform="matrix(12,0,0,12,482.7,990.5)" />
<use xlink:href="#f2_7" transform="matrix(12,0,0,12,494.1,990.5)" />
<use xlink:href="#f2_h" transform="matrix(12,0,0,12,499.1,990.5)" />
<use xlink:href="#f2_3" transform="matrix(12,0,0,12,516.9,990.5)" />
<use xlink:href="#f2_q" transform="matrix(12,0,0,12,521,990.5)" />
<use xlink:href="#f2_m" transform="matrix(12,0,0,12,528.3,990.5)" />
<use xlink:href="#f2_e" transform="matrix(12,0,0,12,539.6,990.5)" />
<use xlink:href="#f2_b" transform="matrix(12,0,0,12,557.9,990.5)" />
<use xlink:href="#f2_c" transform="matrix(12,0,0,12,568.3,990.5)" />
<use xlink:href="#f2_l" transform="matrix(12,0,0,12,580.2,990.5)" />
<use xlink:href="#f2_3" transform="matrix(12,0,0,12,586.6,990.5)" />
<use xlink:href="#f2_c" transform="matrix(12,0,0,12,590.7,990.5)" />
<use xlink:href="#f2_4" transform="matrix(12,0,0,12,602.6,990.5)" />
<use xlink:href="#f2_7" transform="matrix(12,0,0,12,619,990.5)" />
<use xlink:href="#f2_j" transform="matrix(12,0,0,12,624,990.5)" />
<use xlink:href="#f2_4" transform="matrix(12,0,0,12,642,990.5)" />
<use xlink:href="#f2_3" transform="matrix(12,0,0,12,652.4,990.5)" />
<use xlink:href="#f2_k" transform="matrix(12,0,0,12,656.5,990.5)" />
<use xlink:href="#f2_8" transform="matrix(12,0,0,12,668.4,990.5)" />
<use xlink:href="#f2_7" transform="matrix(12,0,0,12,681.4,990.5)" />
<use xlink:href="#f2_8" transform="matrix(12,0,0,12,686.4,990.5)" />
<use xlink:href="#f2_a" transform="matrix(12,0,0,12,705.2,990.5)" />
<use xlink:href="#f2_7" transform="matrix(12,0,0,12,717.3,990.5)" />
<use xlink:href="#f2_d" transform="matrix(12,0,0,12,722.3,990.5)" />
<use xlink:href="#f2_3" transform="matrix(12,0,0,12,732.8,990.5)" />
<use xlink:href="#f2_h" transform="matrix(12,0,0,12,736.8,990.5)" />
<use xlink:href="#f2_e" transform="matrix(12,0,0,12,748.7,990.5)" />
<use xlink:href="#f2_d" transform="matrix(12,0,0,12,761.2,990.5)" />
<use xlink:href="#f2_13" transform="matrix(11,0,0,11,137.5,1208.9)" />
<use xlink:href="#f2_1d" transform="matrix(11,0,0,11,148.2,1208.9)" />
</g>
</g>
<defs>
<path d="M173,-6C173,-6,61,-6,15,9V177c0,0,73,-10,82,-10c0,0,37,0,52,30c0,0,14,29,14,116V658H18V836H516c0,0,262,0,341,-145c0,0,48,-89,48,-242V0H658V450c0,0,0,131,-37,171c0,0,-34,37,-105,37H411V313c0,0,0,-189,-67,-258C344,55,285,-6,173,-6Z" 
id="f0_7"
transform="scale(0.001,-0.001)" />

<path d="M139,0V836H386V0Z" 
id="f0_8"
transform="scale(0.001,-0.001)" />

<path d="M159,0V165c0,0,0,69,13,124c0,0,12,55,29,89c0,0,17,33,45,62c0,0,29,28,50,42c0,0,22,14,54,30L128,836H405L666,460c0,0,41,48,41,155V836H952V671c0,0,0,-50,-6,-93c0,0,-6,-42,-16,-73c0,0,-10,-30,-26,-57c0,0,-17,-27,-31,-44c0,0,-15,-17,-37,-33c0,0,-22,-16,-38,-25c0,0,-15,-9,-38,-21L984,0H706L445,376c0,0,-41,-48,-41,-155V0Z" 
id="f0_f"
transform="scale(0.001,-0.001)" />

<path d="M129,0l69,362c0,0,10,56,12,100c0,0,0,84,-27,159c0,0,-27,76,-117,215H322c0,0,9,-6,31,-79c0,0,23,-72,23,-105c0,0,23,82,100,138c0,0,77,57,160,57c0,0,332,0,332,-397V0H538V177H721V449c0,0,0,124,-20,170c0,0,-20,47,-82,47c0,0,-23,0,-43,-9c0,0,-19,-10,-34,-23c0,0,-14,-14,-27,-39c0,0,-13,-25,-22,-46c0,0,-8,-22,-17,-57c0,0,-9,-36,-15,-61c0,0,-5,-24,-13,-65L375,0Z" 
id="f0_c"
transform="scale(0.001,-0.001)" />

<path d="M154,-13c0,0,-38,0,-85,9V198c0,0,58,-15,103,-15c0,0,84,0,118,60c0,0,35,61,35,206c0,0,0,66,-7,105c0,0,-6,39,-24,63c0,0,-17,25,-44,33c0,0,-27,8,-73,8H66V836H225c0,0,198,0,275,-115c0,0,56,-84,65,-264c0,0,3,-55,3,-148c0,0,0,-177,71,-309L393,1c0,0,-53,130,-54,141c0,0,-28,-90,-65,-123c0,0,-38,-32,-120,-32Z" 
id="f0_q"
transform="scale(0.001,-0.001)" />

<path d="M453,0V658H66V836H833V658H700V0Z" 
id="f0_9"
transform="scale(0.001,-0.001)" />

<path d="M71,0V90H214v934H71v90H1073V851H970v160H502V654H792V796H895V411H792V552H502V103H984V263h102V0Z" 
id="f1_2"
transform="scale(0.001,-0.001)" />

<path d="M87,-338c0,0,-45,0,-94,7c0,0,-51,8,-105,22v168l84,-1c0,0,1,-59,23,-86c0,0,21,-26,70,-26c0,0,55,0,77,35c0,0,21,35,21,127V703H51v90H427V-92c0,0,0,-122,-86,-184c0,0,-86,-62,-254,-62ZM277,876c0,0,-61,0,-102,41c0,0,-42,41,-42,101c0,0,0,60,41,101c0,0,42,42,103,42c0,0,58,0,100,-42c0,0,42,-42,42,-101c0,0,0,-59,-42,-101c0,0,-41,-41,-100,-41Z" 
id="f1_3"
transform="scale(0.001,-0.001)" />

<path d="M612,448c0,0,0,156,-29,219c0,0,-29,63,-99,63c0,0,-68,0,-98,-61c0,0,-29,-62,-29,-208V448ZM488,-20c0,0,-205,0,-315,107C173,87,63,195,63,397c0,0,0,197,112,307c0,0,113,110,313,110c0,0,197,0,303,-115c0,0,105,-116,111,-340H357v-6c0,0,0,-154,46,-222c0,0,46,-68,149,-68c0,0,86,0,139,45c0,0,53,46,68,133H883C883,241,851,105,755,42c0,0,-95,-62,-267,-62Z" 
id="f1_4"
transform="scale(0.001,-0.001)" />

<path d="M53,0V90H165V703H53v90H429V681c0,0,47,69,106,101c0,0,60,32,142,32c0,0,97,0,158,-37c0,0,60,-37,93,-114c0,0,55,79,119,115c0,0,64,36,150,36c0,0,137,0,204,-77c0,0,68,-77,68,-233V90h113V0H1110V90h95V464c0,0,0,149,-23,188c0,0,-23,38,-85,38c0,0,-70,0,-109,-54c0,0,-39,-54,-39,-154V90h95V0H591V90h94V464c0,0,0,149,-23,188c0,0,-23,38,-84,38c0,0,-71,0,-110,-54c0,0,-39,-54,-39,-154V90h95V0Z" 
id="f1_5"
transform="scale(0.001,-0.001)" />

<path d="M562,95c0,0,82,0,115,65c0,0,33,66,33,237c0,0,0,171,-33,236c0,0,-33,65,-115,65c0,0,-79,0,-114,-62c0,0,-35,-62,-35,-200V357c0,0,0,-138,35,-200c0,0,35,-62,114,-62ZM35,-317v90H149V703H35v90H413V692c0,0,33,62,90,92c0,0,57,30,140,30c0,0,169,0,267,-111c0,0,97,-111,97,-306c0,0,0,-195,-97,-307C910,90,812,-20,643,-20c0,0,-83,0,-140,29c0,0,-57,30,-90,92V-227H535v-90Z" 
id="f1_6"
transform="scale(0.001,-0.001)" />

<path d="M53,0V90H165v981H53v90H429V90H543V0Z" 
id="f1_7"
transform="scale(0.001,-0.001)" />

<path d="M510,63c0,0,84,0,118,71c0,0,34,72,34,263c0,0,0,191,-34,262c0,0,-33,71,-118,71c0,0,-84,0,-119,-72c0,0,-34,-72,-34,-261c0,0,0,-190,34,-262c0,0,35,-72,119,-72Zm0,-83c0,0,-209,0,-328,110C182,90,63,201,63,397c0,0,0,196,119,307c0,0,119,110,328,110c0,0,211,0,330,-110c0,0,118,-111,118,-307c0,0,0,-196,-119,-307C839,90,720,-20,510,-20Z" 
id="f1_8"
transform="scale(0.001,-0.001)" />

<path d="M403,-20c0,0,-74,0,-156,11C247,-9,164,1,71,23V244h84c0,0,11,-88,67,-135c0,0,56,-46,152,-46c0,0,81,0,124,28c0,0,43,28,43,80c0,0,0,47,-28,74c0,0,-27,26,-105,45L299,318c0,0,-123,30,-178,87c0,0,-55,57,-55,154c0,0,0,129,89,192c0,0,89,63,276,63c0,0,70,0,149,-11c0,0,80,-12,176,-36V567H672c0,0,-7,81,-58,122c0,0,-51,41,-147,41c0,0,-80,0,-122,-25c0,0,-41,-26,-41,-75c0,0,0,-41,24,-64c0,0,24,-23,86,-38L522,500c0,0,156,-40,215,-98c0,0,60,-58,60,-162c0,0,0,-134,-96,-198c0,0,-96,-62,-298,-62Z" 
id="f1_9"
transform="scale(0.001,-0.001)" />

<path d="M154,0V454l138,56V0ZM722,0V454c0,0,0,161,-49,218c0,0,-48,57,-186,57H139V836H485c0,0,207,0,291,-93c0,0,83,-94,83,-318V0Z" 
id="f2_c"
transform="scale(0.001,-0.001)" />

<path d="M287,0L589,729H66v386H205V836l547,-1l-2,-82L433,0Z" 
id="f2_4"
transform="scale(0.001,-0.001)" />

<path d="M102,312V836H241V369L102,312Z" 
id="f2_3"
transform="scale(0.001,-0.001)" />

<path d="M114,0l60,312c0,0,2,12,8,39c0,0,6,27,7,37c0,0,2,11,5,30c0,0,2,19,4,33c0,0,1,15,1,31c0,0,0,48,-35,146c0,0,-35,98,-98,208H228c0,0,3,-8,27,-67c0,0,25,-58,41,-117c0,0,21,53,50,90c0,0,29,37,57,57c0,0,29,21,65,32c0,0,37,11,65,14c0,0,28,3,67,3c0,0,300,0,300,-396V0H480V106H761V452c0,0,0,146,-46,215c0,0,-45,70,-118,70c0,0,-134,0,-198,-119c0,0,-36,-68,-67,-222c0,0,-2,-10,-6,-27L253,0Z" 
id="f2_e"
transform="scale(0.001,-0.001)" />

<path d="M66,0V107H554V452c0,0,0,56,-4,93c0,0,-4,37,-18,75c0,0,-14,38,-40,60c0,0,-26,22,-71,36c0,0,-45,13,-110,13H66V836H312c0,0,91,0,157,-17c0,0,66,-17,109,-49c0,0,44,-32,69,-84c0,0,26,-52,36,-114c0,0,10,-62,10,-147V107H817V0Z" 
id="f2_d"
transform="scale(0.001,-0.001)" />

<path d="M112,-5c0,0,-39,0,-97,11V113c0,0,48,-10,77,-10c0,0,53,0,70,42c0,0,17,43,17,164V729H50V836H501c0,0,107,0,179,-25c0,0,72,-25,112,-77c0,0,40,-51,57,-118c0,0,16,-67,16,-164V0H726V454c0,0,0,55,-3,92c0,0,-4,37,-17,75c0,0,-14,38,-38,59c0,0,-24,22,-65,36c0,0,-42,13,-102,13H318V309c0,0,0,-160,-46,-237C272,72,226,-5,112,-5Z" 
id="f2_a"
transform="scale(0.001,-0.001)" />

<path d="M156,-317V454l139,56V-317ZM505,0L806,729H139V835H967V753L650,0Z" 
id="f2_8"
transform="scale(0.001,-0.001)" />

<path d="M66,0V107H332V555c0,0,0,92,-37,133c0,0,-37,41,-116,41H85V836h94c0,0,153,0,223,-66c0,0,69,-66,69,-231V0Z" 
id="f2_q"
transform="scale(0.001,-0.001)" />

<path d="M736,107V473c0,0,0,147,-48,202c0,0,-49,54,-187,54H278V107ZM139,0V836H499c0,0,105,0,177,-22c0,0,72,-21,116,-69c0,0,44,-49,64,-119c0,0,19,-71,19,-174V0Z" 
id="f2_o"
transform="scale(0.001,-0.001)" />

<path d="M139,0V138c0,0,0,61,8,112c0,0,7,52,19,87c0,0,11,36,30,66c0,0,19,31,35,49c0,0,17,19,41,35c0,0,25,17,41,25c0,0,17,7,40,17L141,836H303L613,388c0,0,20,10,33,18c0,0,13,8,34,28c0,0,20,20,33,44c0,0,13,25,22,66c0,0,10,41,10,92V836H882V698c0,0,0,-61,-7,-112c0,0,-6,-52,-18,-88c0,0,-12,-36,-30,-66c0,0,-19,-30,-36,-49c0,0,-17,-18,-41,-34c0,0,-24,-17,-40,-25c0,0,-17,-8,-41,-17L882,0H720L409,448c0,0,-21,-11,-34,-19c0,0,-13,-8,-34,-27c0,0,-21,-20,-34,-44c0,0,-12,-25,-22,-66c0,0,-9,-41,-9,-92V0Z" 
id="f2_j"
transform="scale(0.001,-0.001)" />

<path d="M399,-14c0,0,-341,0,-341,370c0,0,0,175,87,269c0,0,87,95,249,95c0,0,101,0,220,-23V501H573L541,625c0,0,-62,35,-149,35c0,0,-200,0,-200,-304c0,0,0,-158,61,-225c0,0,61,-67,189,-67c0,0,109,0,189,24V43C631,43,595,16,530,1c0,0,-64,-15,-131,-15Z" 
id="f3_i"
transform="scale(0.001,-0.001)" />

<path d="M289,-14c0,0,-179,0,-179,205V649L20,668v33H233V200c0,0,0,-128,120,-128c0,0,92,0,173,23V649L420,668v33H649V52L738,33V0H533l-6,57C527,57,474,28,405,7c0,0,-69,-21,-116,-21Z" 
id="f3_g"
transform="scale(0.001,-0.001)" />

<path d="M495,413c0,0,0,133,-34,190c0,0,-34,57,-105,57c0,0,-78,0,-119,-63c0,0,-42,-62,-42,-184ZM374,-14c0,0,-163,0,-239,87c0,0,-75,88,-75,283c0,0,0,183,77,273c0,0,76,91,219,91c0,0,269,0,269,-306V353H194V340c0,0,0,-103,23,-160c0,0,22,-57,70,-87c0,0,47,-29,124,-29c0,0,40,0,96,6c0,0,55,7,91,15V43C598,43,562,20,500,3c0,0,-61,-17,-126,-17Z" 
id="f3_9"
transform="scale(0.001,-0.001)" />

<path d="M278,-14c0,0,-52,0,-115,11c0,0,-63,10,-99,23V193H98L134,95c0,0,56,-50,146,-50c0,0,144,0,144,123c0,0,0,91,-114,130l-66,21c0,0,-75,25,-110,50c0,0,-34,26,-53,63c0,0,-18,36,-18,89c0,0,0,92,63,145c0,0,63,54,170,54c0,0,77,0,193,-23V544H454l-32,81c0,0,-39,35,-124,35c0,0,-61,0,-92,-30c0,0,-32,-30,-32,-80c0,0,0,-43,29,-72c0,0,28,-29,86,-48c0,0,110,-38,144,-55c0,0,33,-17,57,-42c0,0,23,-25,36,-57c0,0,13,-32,13,-79c0,0,0,-104,-66,-158c0,0,-66,-53,-195,-53Z" 
id="f3_h"
transform="scale(0.001,-0.001)" />

<path d="M249,-14c0,0,-71,0,-107,42c0,0,-35,42,-35,119V639H15v33l93,29l76,159h47V701H391V639H231V161c0,0,0,-48,22,-73c0,0,22,-24,57,-24c0,0,44,0,106,12V26C416,26,389,8,340,-2c0,0,-49,-12,-91,-12Z" 
id="f3_a"
transform="scale(0.001,-0.001)" />

<path d="M284,67c0,0,51,0,88,12c0,0,37,12,74,30V358l-98,-3c0,0,-100,-4,-135,-39c0,0,-35,-35,-35,-117c0,0,0,-132,106,-132ZM233,-14c0,0,-179,0,-179,208c0,0,0,70,27,116c0,0,27,46,87,70c0,0,60,24,173,27l105,3V519c0,0,0,72,-26,107c0,0,-27,34,-82,34c0,0,-75,0,-137,-35L176,538H134V691c0,0,121,26,213,26c0,0,115,0,169,-47c0,0,54,-47,54,-144V52L657,33V0H465L451,70c0,0,-85,-84,-218,-84Z" 
id="f3_d"
transform="scale(0.001,-0.001)" />

<path d="M522,-20c0,0,-196,0,-290,99c0,0,-94,100,-94,324V836H276V397c0,0,0,-86,16,-147c0,0,17,-60,50,-94c0,0,34,-34,77,-49c0,0,43,-15,103,-15c0,0,59,0,102,15c0,0,44,15,77,49c0,0,33,34,50,94c0,0,17,61,17,147c0,0,0,84,-8,143c0,0,-7,58,-25,105c0,0,-17,47,-51,69c0,0,-33,23,-83,23c0,0,-50,0,-119,-22V821c0,0,85,23,150,23c0,0,76,0,130,-30c0,0,53,-31,85,-90c0,0,31,-59,45,-138c0,0,13,-78,13,-183c0,0,0,-224,-93,-324c0,0,-94,-99,-290,-99Z" 
id="f2_k"
transform="scale(0.001,-0.001)" />

<path d="M585,0V426c0,0,0,54,-8,98c0,0,-8,44,-27,83c0,0,-19,40,-49,66c0,0,-30,26,-77,41c0,0,-47,15,-108,15H66V836H315c0,0,94,0,166,-20c0,0,71,-20,116,-54c0,0,46,-35,75,-88c0,0,28,-52,40,-112c0,0,12,-60,12,-137V0Z" 
id="f2_b"
transform="scale(0.001,-0.001)" />

<path d="M139,0V836H278V0Z" 
id="f2_7"
transform="scale(0.001,-0.001)" />

<path d="M495,0V729H66V836H781V729H634V0Z" 
id="f2_i"
transform="scale(0.001,-0.001)" />

<path d="M180,0L66,836H203L258,443c0,0,36,1,64,6c0,0,28,6,49,18c0,0,20,12,35,26c0,0,15,13,26,36c0,0,11,24,17,44c0,0,7,20,12,55c0,0,6,34,9,60c0,0,3,26,8,71c0,0,4,45,9,77H610c0,0,-13,-194,-31,-271c0,0,-31,-127,-111,-179c0,0,-71,-45,-196,-50L304,107c0,0,73,0,130,5c0,0,56,6,111,21c0,0,54,15,94,40c0,0,40,25,77,64c0,0,37,39,63,94c0,0,25,54,46,128c0,0,21,73,34,166c0,0,13,94,20,211h138c0,0,-14,-124,-29,-218c0,0,-16,-94,-39,-179c0,0,-22,-85,-50,-146c0,0,-28,-61,-68,-112c0,0,-39,-51,-87,-84C744,97,696,65,632,42C632,42,568,19,492,10C492,10,417,0,320,0Z" 
id="f2_9"
transform="scale(0.001,-0.001)" />

<path d="M117,-176L179,62V190H336V62L213,-176Z" 
id="f2_t"
transform="scale(0.001,-0.001)" />

<path d="M289,-14c0,0,-179,0,-179,205V649L20,668v33H233V200c0,0,0,-128,120,-128c0,0,92,0,173,23V649L420,668v33H649V52L738,34V0H533l-6,57C527,57,474,28,405,6c0,0,-69,-20,-116,-20Zm24,849v24l147,203H618v-27L354,835Z" 
id="f3_p"
transform="scale(0.001,-0.001)" />

<path d="M71,-141V-15L289,62L66,836H210L416,109c0,0,99,42,153,98c0,0,53,56,80,155c0,0,26,98,26,262V836H817V624c0,0,0,-88,-7,-154c0,0,-7,-67,-25,-132c0,0,-18,-66,-51,-116c0,0,-33,-51,-84,-98c0,0,-50,-48,-123,-87c0,0,-72,-39,-169,-74L71,-141Z" 
id="f2_5"
transform="scale(0.001,-0.001)" />

<path d="M139,0V106H400c0,0,176,0,253,71c0,0,78,72,78,250c0,0,0,163,-80,233c0,0,-81,69,-250,69H278L277,564c0,0,-1,-54,26,-80c0,0,27,-25,82,-25c0,0,30,0,80,9V355c0,0,-61,-12,-111,-12c0,0,-100,0,-157,55c0,0,-58,55,-58,186V836H456c0,0,193,0,303,-109c0,0,110,-109,110,-309c0,0,0,-200,-110,-309C759,109,648,0,456,0Z" 
id="f2_m"
transform="scale(0.001,-0.001)" />

<path d="M66,0V106H322c0,0,75,0,127,23c0,0,53,23,82,67c0,0,29,43,42,98c0,0,13,54,13,124c0,0,0,70,-13,124c0,0,-13,55,-42,98c0,0,-29,44,-82,67c0,0,-52,23,-127,23H66V836H322c0,0,87,0,157,-24c0,0,70,-24,115,-64c0,0,45,-40,74,-94c0,0,30,-55,43,-113c0,0,13,-59,13,-123c0,0,0,-64,-13,-123c0,0,-13,-58,-43,-113c0,0,-29,-54,-74,-94C594,88,549,48,479,24C479,24,409,0,322,0Z" 
id="f2_f"
transform="scale(0.001,-0.001)" />

<path d="M139,-317V836H278V-317Z" 
id="f2_p"
transform="scale(0.001,-0.001)" />

<path d="M163,0V190H321V0Z" 
id="f2_n"
transform="scale(0.001,-0.001)" />

<path d="M31,0V33l88,19V649L31,668v33H235l7,-87c0,0,44,37,121,71c0,0,76,35,121,35h11V530H463l-43,82c0,0,-37,0,-88,-10c0,0,-52,-10,-89,-26V52L363,33V0Z" 
id="f3_f"
transform="scale(0.001,-0.001)" />

<path d="M522,92c0,0,247,0,247,333c0,0,0,88,-17,146c0,0,-17,58,-53,91c0,0,-35,33,-82,46c0,0,-48,14,-116,14H276V419c0,0,0,-327,246,-327Zm0,-112c0,0,-193,0,-289,109c0,0,-95,110,-95,337V836H501c0,0,213,0,309,-93c0,0,96,-94,96,-317c0,0,0,-227,-95,-337C811,89,715,-20,522,-20Z" 
id="f2_h"
transform="scale(0.001,-0.001)" />

<path d="M152,0V473c0,0,0,94,28,161c0,0,29,66,71,95H66V836H463V729H404c0,0,-65,0,-89,-57c0,0,-25,-58,-25,-199V0Z" 
id="f2_l"
transform="scale(0.001,-0.001)" />

<path d="M66,0V106H564L66,836H228L516,413c0,0,3,2,9,6c0,0,17,13,27,21c0,0,10,8,26,27c0,0,17,20,26,40c0,0,9,21,16,54c0,0,7,34,7,75V836H764V698c0,0,0,-55,-7,-102c0,0,-7,-47,-16,-79c0,0,-10,-33,-27,-62c0,0,-18,-29,-32,-46c0,0,-14,-17,-37,-35c0,0,-22,-17,-36,-25c0,0,-13,-8,-36,-20L767,53V0Z" 
id="f2_s"
transform="scale(0.001,-0.001)" />

<path d="M543,-317V369c0,0,0,85,-8,143c0,0,-8,58,-27,101c0,0,-18,44,-51,69c0,0,-33,24,-80,36c0,0,-48,11,-117,11H66V836H257c0,0,125,0,205,-23c0,0,80,-23,130,-79c0,0,50,-56,70,-143c0,0,20,-86,20,-222V-317Z" 
id="f2_2"
transform="scale(0.001,-0.001)" />

<path d="M377,45c0,0,99,0,147,73c0,0,47,73,47,237c0,0,0,161,-47,233c0,0,-47,72,-147,72c0,0,-97,0,-141,-69c0,0,-44,-69,-44,-236c0,0,0,-169,45,-240c0,0,44,-70,140,-70Zm0,-59c0,0,-158,0,-238,94c0,0,-81,95,-81,274c0,0,0,178,81,272c0,0,80,94,244,94c0,0,160,0,241,-92c0,0,82,-92,82,-274c0,0,0,-368,-329,-368Z" 
id="f3_b"
transform="scale(0.001,-0.001)" />

<path d="M179,0V190H336V0Zm0,600V790H336V600Z" 
id="f2_12"
transform="scale(0.001,-0.001)" />

<path d="M138,-7c0,0,-34,0,-72,10V129c0,0,25,-8,52,-8c0,0,33,0,58,5c0,0,26,5,58,24c0,0,33,20,53,54c0,0,21,34,36,97c0,0,15,64,15,151c0,0,0,113,-19,173c0,0,-19,60,-56,82c0,0,-38,22,-107,22H89V836h72c0,0,165,0,240,-91c0,0,76,-91,76,-293c0,0,0,-107,26,-227c0,0,25,-119,83,-225H437c0,0,-43,101,-62,184c0,0,-24,-60,-51,-99c0,0,-26,-38,-56,-58C268,27,239,7,209,0c0,0,-30,-7,-71,-7Z" 
id="f2_u"
transform="scale(0.001,-0.001)" />

<path d="M139,0V836H485c0,0,206,0,290,-90c0,0,84,-89,84,-294V0H721V473c0,0,0,147,-49,202c0,0,-48,54,-186,54H277V0Z" 
id="f2_r"
transform="scale(0.001,-0.001)" />

<path d="M235,-20c0,0,-31,0,-51,19c0,0,-21,18,-21,50c0,0,0,65,39,120c0,0,39,54,125,109c0,0,56,35,87,56c0,0,32,20,46,33c0,0,79,45,79,143c0,0,0,27,-7,65c0,0,-8,39,-27,49c0,0,-19,10,-85,10H110c0,0,-36,0,-53,21c0,0,-17,22,-25,71c0,0,-7,49,-7,134c0,0,0,62,27,122c0,0,8,15,8,34c0,0,0,23,-35,37c0,0,-21,7,-30,29c0,0,-9,22,-9,72c0,0,0,24,10,46c0,0,8,22,25,38c0,0,16,16,26,16c0,0,17,0,17,-14c0,0,0,-9,7,-17c0,0,7,-8,34,-14c0,0,65,-15,81,-26c0,0,15,-10,15,-31c0,0,0,-15,-15,-38c0,0,-15,-22,-33,-53c0,0,-19,-30,-34,-67c0,0,-15,-36,-15,-79c0,0,0,-43,14,-56c0,0,15,-14,54,-14H518c0,0,39,0,63,-17c0,0,23,-16,33,-53c0,0,10,-36,17,-89c0,0,6,-52,6,-93c0,0,0,-99,-9,-144c0,0,-9,-44,-40,-80c0,0,-31,-36,-110,-86c0,0,-112,-71,-138,-95c0,0,-26,-23,-36,-44c0,0,-9,-20,-9,-43c0,0,0,-11,5,-26c0,0,6,-15,6,-26c0,0,0,-32,-20,-50c0,0,-20,-19,-51,-19Z" 
id="f4_18"
transform="scale(0.001,-0.001)" />

<path d="M204,-8c0,0,-9,0,-11,5c0,0,-2,5,-2,22V549c0,0,0,40,-4,56c0,0,-4,16,-15,22c0,0,-10,7,-39,7H90c0,0,-33,0,-52,33c0,0,-19,33,-19,90c0,0,0,53,15,98c0,0,16,44,35,44c0,0,12,0,12,-13V872c0,0,0,-27,31,-27h42c0,0,79,0,103,-20c0,0,23,-19,23,-83V67c0,0,0,-16,-8,-26c0,0,-9,-10,-33,-30c0,0,-25,-19,-35,-19Z" 
id="f4_17"
transform="scale(0.001,-0.001)" />

<path d="M423,-13c0,0,-9,0,-14,7c0,0,-5,6,-10,23c0,0,-13,51,-37,108c0,0,-25,58,-55,101c0,0,-21,-37,-51,-115C256,111,225,34,216,0H12L55,212h99c0,0,51,0,72,12c0,0,20,12,40,58c0,0,20,46,18,98V543c0,0,0,46,-7,61c0,0,-7,15,-23,22c0,0,-17,8,-50,8H189c0,0,-76,0,-76,115c0,0,0,56,16,103c0,0,16,47,33,47c0,0,14,0,14,-15c0,0,0,-17,9,-28c0,0,10,-11,40,-11h21c0,0,60,0,85,-8c0,0,25,-9,39,-26c0,0,13,-18,13,-49c0,0,0,-20,-4,-43c0,0,-5,-23,-10,-53c0,0,-6,-31,-10,-71c0,0,-5,-41,-5,-97c0,0,0,-150,62,-269c0,0,28,-58,38,-90l9,-65c0,0,0,-27,-13,-57c0,0,-13,-30,-27,-30Z" 
id="f4_19"
transform="scale(0.001,-0.001)" />

<path d="M554,-8c0,0,-9,0,-11,6c0,0,-2,5,-2,24V548c0,0,0,38,-5,56c0,0,-4,18,-15,25c0,0,-12,7,-41,7H90c0,0,-33,0,-52,33c0,0,-19,33,-19,90c0,0,0,54,15,97c0,0,14,43,30,43c0,0,17,0,17,-13V872c0,0,0,-9,7,-18c0,0,7,-9,27,-9H512c0,0,54,0,77,-8c0,0,23,-9,33,-28c0,0,9,-20,9,-67V81c0,0,0,-31,-27,-53L583,9C583,9,563,-8,554,-8Z" 
id="f4_1a"
transform="scale(0.001,-0.001)" />

<path d="M721,-14c0,0,-12,0,-12,9l4,28c0,0,17,82,17,338c0,0,0,105,-11,163c0,0,-11,58,-35,84c0,0,-25,26,-83,26H315c0,0,-43,-39,-67,-90c0,0,-25,-51,-25,-104c0,0,0,-59,17,-104c0,0,17,-45,35,-78c0,0,18,-34,18,-44c0,0,0,-26,-20,-95C273,119,252,50,231,0H26L87,214h69c0,0,23,0,23,14l-7,15c0,0,-15,27,-27,68c0,0,-11,41,-11,83c0,0,0,68,25,124c0,0,25,57,86,116H200c0,0,-45,0,-71,32c0,0,-27,33,-27,94c0,0,0,49,17,93c0,0,16,43,32,43c0,0,17,0,17,-10V869c0,0,0,-24,27,-24H637c0,0,73,0,103,-18c0,0,30,-17,46,-62c0,0,17,-46,24,-124c0,0,8,-78,8,-214V338c0,0,0,-279,-27,-311c0,0,-14,-16,-37,-28c0,0,-23,-13,-33,-13Z" 
id="f4_1b"
transform="scale(0.001,-0.001)" />

<path d="M345,75c0,0,50,0,110,26V351l-63,-2c0,0,-72,-3,-100,-38c0,0,-28,-35,-28,-113c0,0,0,-63,22,-93c0,0,23,-30,59,-30ZM266,-14c0,0,-217,0,-217,208c0,0,0,79,32,126c0,0,32,48,93,71c0,0,60,22,190,25l91,2V521c0,0,0,126,-104,126c0,0,-62,0,-140,-39L183,521H134V691c0,0,112,17,165,21c0,0,53,5,108,5c0,0,264,0,264,-194V67L741,49V0H483L466,54C466,54,408,14,361,0c0,0,-47,-14,-95,-14Z" 
id="f4_3"
transform="scale(0.001,-0.001)" />

<path d="M438,65c0,0,131,0,131,293c0,0,0,279,-130,279c0,0,-69,0,-127,-29V80c0,0,60,-15,126,-15ZM20,-325v50l76,18V634L19,652v49H304l1,-36c0,0,80,55,194,55c0,0,146,0,218,-86c0,0,71,-86,71,-271c0,0,0,-183,-83,-280c0,0,-83,-97,-238,-97c0,0,-79,0,-160,19c0,0,5,-48,5,-109V-257l103,-18v-50Z" 
id="f4_b"
transform="scale(0.001,-0.001)" />

<path d="M41,0V49l91,18V634L41,652v49H336l8,-145c0,0,80,89,144,128c0,0,64,40,117,40h40V468H604l-45,94c0,0,-47,0,-106,-21c0,0,-60,-20,-105,-48V67L460,49V0Z" 
id="f4_u"
transform="scale(0.001,-0.001)" />

<path d="M425,-14c0,0,-187,0,-280,90c0,0,-93,90,-93,276c0,0,0,115,42,198c0,0,43,82,121,126c0,0,78,44,182,44c0,0,104,0,227,-26V486H571L539,609c0,0,-25,19,-50,26c0,0,-24,7,-65,7c0,0,-44,0,-79,-35c0,0,-36,-35,-56,-98c0,0,-20,-64,-20,-153c0,0,0,-150,47,-214c0,0,47,-64,148,-64c0,0,103,0,176,21V42C640,42,606,15,547,0c0,0,-59,-14,-122,-14Z" 
id="f4_5"
transform="scale(0.001,-0.001)" />

<path d="M327,-14c0,0,-101,0,-156,45c0,0,-55,45,-55,131V624H25v48l108,29l87,159H332V701H480V624H332V176c0,0,0,-49,20,-73c0,0,20,-25,53,-25c0,0,40,0,97,12V26c0,0,-22,-15,-76,-27c0,0,-55,-13,-99,-13Z" 
id="f4_s"
transform="scale(0.001,-0.001)" />

<path d="M34,0V49l76,18V634L38,652v49H325V67L402,49V0ZM217,831c0,0,-48,0,-81,33c0,0,-34,33,-34,82c0,0,0,48,34,81c0,0,34,33,81,33c0,0,48,0,81,-33c0,0,33,-33,33,-81c0,0,0,-47,-33,-81c0,0,-32,-34,-81,-34Z" 
id="f4_7"
transform="scale(0.001,-0.001)" />

<path d="M248,0L521,658H66v429H313V836l493,-1V716L504,0Z" 
id="f0_d"
transform="scale(0.001,-0.001)" />

<path d="M102,250V836H349V351L102,250Z" 
id="f0_i"
transform="scale(0.001,-0.001)" />

<path d="M534,0V425c0,0,0,109,-41,171c0,0,-41,62,-140,62H66V836H352c0,0,99,0,174,-20c0,0,75,-20,123,-55c0,0,48,-35,78,-87c0,0,30,-53,42,-113c0,0,12,-60,12,-136V0Z" 
id="f0_4"
transform="scale(0.001,-0.001)" />

<path d="M507,561c0,0,76,0,114,49c0,0,38,49,38,146c0,0,0,97,-38,146c0,0,-38,49,-114,49c0,0,-75,0,-113,-49c0,0,-38,-49,-38,-146c0,0,0,-97,38,-146c0,0,38,-49,113,-49ZM443,-20c0,0,-78,0,-149,11c0,0,-72,10,-140,33V231c0,0,68,-33,131,-49c0,0,62,-16,123,-16c0,0,129,0,200,72c0,0,72,71,84,211c0,0,-50,-37,-108,-56c0,0,-57,-18,-124,-18c0,0,-171,0,-276,99C184,474,79,574,79,736c0,0,0,180,117,288c0,0,117,108,313,108c0,0,217,0,337,-147c0,0,119,-147,119,-415c0,0,0,-276,-139,-434C826,136,686,-20,443,-20Z" 
id="f0_1g"
transform="scale(0.001,-0.001)" />

<path d="M74,357V479H476V357Z" 
id="f2_y"
transform="scale(0.001,-0.001)" />

<path d="M383,64c0,0,85,0,152,28V645c0,0,-67,13,-152,13c0,0,-194,0,-194,-314c0,0,0,-141,48,-211c0,0,48,-69,146,-69ZM342,-14c0,0,-287,0,-287,358c0,0,0,184,82,280c0,0,81,96,239,96c0,0,81,0,163,-18c0,0,-4,25,-4,124v182l-118,18v34H659V52L745,33V0H548l-9,52c0,0,-84,-66,-197,-66Z" 
id="f3_8"
transform="scale(0.001,-0.001)" />

<path d="M32,0V33L151,52V649L52,668v33H275V52L395,33V0ZM201,850c0,0,-32,0,-56,24c0,0,-24,24,-24,56c0,0,0,34,24,58c0,0,24,24,56,24c0,0,34,0,58,-24c0,0,24,-24,24,-58c0,0,0,-32,-24,-56c0,0,-24,-24,-58,-24Z" 
id="f3_n"
transform="scale(0.001,-0.001)" />

<path d="M431,0V33L535,52V499c0,0,0,62,-32,96c0,0,-32,33,-95,33c0,0,-66,0,-163,-22V52L350,33V0H32V33l89,19V649L32,668v33H237l6,-57c0,0,56,32,119,54c0,0,62,22,110,22c0,0,52,0,95,-20c0,0,44,-19,66,-62c0,0,57,32,134,57c0,0,77,25,128,25c0,0,179,0,179,-207V52l90,-19V0H846V33L950,52V499c0,0,0,129,-119,129c0,0,-19,0,-45,-3c0,0,-26,-3,-52,-7c0,0,-25,-4,-49,-8c0,0,-23,-5,-39,-8c0,0,13,-41,13,-89V52L764,33V0Z" 
id="f3_c"
transform="scale(0.001,-0.001)" />

<path d="M376,50c0,0,103,0,149,80c0,0,46,81,46,240c0,0,0,137,-47,204c0,0,-48,67,-148,67c0,0,-44,0,-87,-7c0,0,-44,-8,-63,-17V62c0,0,63,-12,150,-12Zm3,-64c0,0,-64,0,-141,14c0,0,-78,14,-136,37v971L0,1026v34H226V809c0,0,0,-40,-4,-148c0,0,74,59,188,59c0,0,143,0,219,-87c0,0,77,-87,77,-263c0,0,0,-189,-84,-287c0,0,-84,-97,-243,-97Z" 
id="f3_j"
transform="scale(0.001,-0.001)" />

<path d="M439,0V33l93,19V500c0,0,0,62,-30,97c0,0,-31,36,-94,36c0,0,-67,0,-165,-22V52L338,33V0H35V33l84,19V649L35,668v33H235l7,-57c0,0,57,33,122,54c0,0,65,22,108,22c0,0,91,0,137,-53c0,0,47,-53,47,-154V52L741,33V0Z" 
id="f3_o"
transform="scale(0.001,-0.001)" />

<path d="M382,45c0,0,188,0,188,314c0,0,0,143,-47,213c0,0,-46,69,-141,69c0,0,-87,0,-146,-24V58c0,0,67,-13,146,-13ZM25,-325v35l88,18V649L34,668v33H231l1,-41c0,0,31,27,84,43c0,0,53,17,107,17c0,0,134,0,208,-94c0,0,73,-93,73,-267c0,0,0,-178,-80,-276c0,0,-80,-97,-232,-97c0,0,-84,0,-160,16c0,0,4,-53,4,-84V-272l123,-18v-35Z" 
id="f3_m"
transform="scale(0.001,-0.001)" />

<path d="M41,0V34L426,641H261c0,0,-42,0,-80,-7c0,0,-39,-7,-54,-19L104,515H69V701H586V665L201,60H407c0,0,42,0,89,10c0,0,47,10,66,25l39,147h35L617,0Z" 
id="f3_13"
transform="scale(0.001,-0.001)" />

<path d="M359,-270c0,0,124,0,192,46c0,0,67,47,67,129c0,0,0,43,-26,67c0,0,-26,24,-79,24H242c0,0,-32,-27,-51,-69c0,0,-20,-41,-20,-77c0,0,0,-64,46,-92c0,0,46,-28,142,-28Zm11,561c0,0,81,0,115,47c0,0,34,47,34,141c0,0,0,100,-35,142c0,0,-35,42,-113,42c0,0,-78,0,-114,-43c0,0,-37,-42,-37,-141c0,0,0,-98,36,-143c0,0,36,-45,114,-45ZM359,-329c0,0,-143,0,-218,44c0,0,-75,43,-75,125c0,0,0,39,27,78c0,0,26,38,98,89c0,0,-43,14,-72,48c0,0,-29,35,-29,74L208,262c0,0,-118,55,-118,217c0,0,0,115,73,178c0,0,73,63,211,63c0,0,28,0,71,-6c0,0,44,-6,67,-13l165,83l26,-32L599,644c0,0,50,-56,50,-165c0,0,0,-120,-72,-182c0,0,-73,-62,-208,-62c0,0,-62,0,-114,11L208,148c0,0,2,-13,29,-24c0,0,27,-12,67,-12H512c0,0,113,0,168,-49c0,0,55,-49,55,-134c0,0,0,-79,-44,-137c0,0,-43,-58,-128,-90c0,0,-84,-31,-204,-31Z" 
id="f3_u"
transform="scale(0.001,-0.001)" />

<path d="M360,-14L72,649L0,668v33H327V668L216,648L420,164L615,649L504,668v33H764V668L697,652L416,-14Z" 
id="f3_e"
transform="scale(0.001,-0.001)" />

<path d="M442,0V33l93,19V504c0,0,0,129,-124,129c0,0,-70,0,-168,-22V52L338,33V0H31V33l88,19v956L15,1026v34H243V756c0,0,0,-77,-5,-112c0,0,54,31,122,53c0,0,68,23,115,23c0,0,91,0,137,-53c0,0,47,-53,47,-154V52L744,33V0Z" 
id="f3_t"
transform="scale(0.001,-0.001)" />

<path d="M31,0V33L150,52v956L31,1026v34H274V52L394,33V0Z" 
id="f3_k"
transform="scale(0.001,-0.001)" />

<path d="M13,0V34L95,46L325,350L122,649L40,668v33H357V668L264,648L399,446L554,649l-96,19v33H710V668L630,652L433,397L663,50L745,34V0H427V34l94,17L359,299L169,50L266,34V0Z" 
id="f3_17"
transform="scale(0.001,-0.001)" />

<path d="M32,0V34L151,52V649L52,668v33H275V52L395,34V0Zm71,835v24l146,203H408v-27L144,835Z" 
id="f3_1a"
transform="scale(0.001,-0.001)" />

<path d="M148,-329c0,0,-58,0,-114,13v151H69l24,-71c0,0,23,-17,64,-17c0,0,39,0,72,22c0,0,33,23,60,67c0,0,27,44,68,157L90,649L19,668v33H344V668L233,648L423,158L606,649L497,668v33H758V668L685,652L411,-43c0,0,-48,-124,-84,-177c0,0,-36,-54,-79,-82c0,0,-44,-27,-100,-27Z" 
id="f3_l"
transform="scale(0.001,-0.001)" />

<path d="M84,-153V45l189,68L66,836H321L497,205c0,0,72,50,101,138c0,0,30,88,30,261V836H878V604c0,0,0,-84,-7,-147c0,0,-7,-63,-25,-126c0,0,-19,-62,-51,-111c0,0,-33,-48,-82,-94c0,0,-50,-45,-122,-84C591,42,519,3,423,-30L84,-153Z" 
id="f0_a"
transform="scale(0.001,-0.001)" />

<path d="M139,0V177H436c0,0,127,0,184,56c0,0,56,55,56,186c0,0,0,132,-58,186c0,0,-58,53,-181,53H386L385,553c0,0,0,-40,12,-54c0,0,12,-15,31,-15c0,0,19,0,38,2V343c0,0,-46,-11,-94,-11c0,0,-48,0,-87,11c0,0,-38,10,-73,34c0,0,-73,53,-73,196V836H487c0,0,203,0,319,-109c0,0,116,-109,116,-309c0,0,0,-200,-117,-309C805,109,689,0,487,0Z" 
id="f0_5"
transform="scale(0.001,-0.001)" />

<path d="M153,0V437L399,539V0ZM664,0V450c0,0,0,122,-31,165c0,0,-31,43,-121,43H138V836H511c0,0,113,0,188,-22c0,0,75,-23,123,-73c0,0,47,-51,68,-127c0,0,20,-76,20,-189V0Z" 
id="f0_j"
transform="scale(0.001,-0.001)" />

<path d="M82,0V177H500L50,836H328L560,491c0,0,56,19,56,124V836H861V671c0,0,0,-116,-45,-192c0,0,-40,-68,-85,-90c0,0,-50,-26,-71,-26c0,0,-1,0,-1,0L838,96V0Z" 
id="f0_h"
transform="scale(0.001,-0.001)" />

<path d="M301,78c0,0,41,0,90,27c0,0,49,28,95,77l81,442c0,0,-26,18,-54,27c0,0,-27,10,-67,10c0,0,-70,0,-131,-55c0,0,-61,-55,-99,-152c0,0,-37,-97,-37,-201c0,0,0,-79,33,-127c0,0,33,-48,89,-48ZM245,-14c0,0,-91,0,-145,68c0,0,-54,69,-54,183c0,0,0,128,55,240c0,0,55,112,150,177c0,0,96,66,210,66c0,0,70,0,123,-18c0,0,3,36,51,306l-115,18l6,34H768L589,52L673,33L667,0H454l22,117C476,117,350,-14,245,-14Z" 
id="f5_2"
transform="scale(0.001,-0.001)" />

<path d="M188,355c0,0,148,11,236,69c0,0,89,58,89,143c0,0,0,41,-23,68c0,0,-22,27,-66,27c0,0,-52,0,-101,-43c0,0,-49,-42,-85,-114c0,0,-36,-71,-50,-150ZM298,-14c0,0,-120,0,-186,67c0,0,-65,67,-65,193c0,0,0,125,53,232c0,0,52,108,145,175c0,0,94,67,196,67c0,0,92,0,147,-42c0,0,56,-43,56,-111c0,0,0,-102,-126,-173c0,0,-125,-72,-336,-86l-3,-54c0,0,0,-95,40,-143c0,0,40,-47,118,-47c0,0,67,0,124,22c0,0,57,23,106,52l22,-32c0,0,-69,-58,-146,-89c0,0,-76,-31,-145,-31Z" 
id="f5_3"
transform="scale(0.001,-0.001)" />

<path d="M85,0L199,649l-96,19l6,33H332L218,52L335,33L329,0ZM297,849c0,0,-33,0,-57,24c0,0,-24,24,-24,57c0,0,0,33,24,57c0,0,24,24,57,24c0,0,33,0,57,-24c0,0,24,-24,24,-57c0,0,0,-33,-24,-57c0,0,-24,-24,-57,-24Z" 
id="f5_4"
transform="scale(0.001,-0.001)" />

<path d="M298,-14c0,0,-120,0,-185,69c0,0,-66,69,-66,191c0,0,0,130,52,237c0,0,52,107,149,172c0,0,97,65,203,65c0,0,53,0,112,-12c0,0,60,-11,99,-27L628,485H587L575,615c0,0,-47,47,-125,47c0,0,-72,0,-134,-53c0,0,-62,-53,-100,-147c0,0,-37,-95,-37,-208c0,0,0,-190,154,-190c0,0,106,0,222,74l22,-32c0,0,-60,-56,-135,-88c0,0,-76,-32,-144,-32Z" 
id="f5_5"
transform="scale(0.001,-0.001)" />

<path d="M301,78c0,0,85,0,185,104l81,442c0,0,-29,20,-55,28c0,0,-25,8,-62,8c0,0,-75,0,-137,-56c0,0,-62,-56,-98,-152c0,0,-36,-95,-36,-199c0,0,0,-79,33,-127c0,0,33,-48,89,-48ZM245,-14c0,0,-90,0,-145,66c0,0,-54,66,-54,182c0,0,0,131,57,244c0,0,57,114,152,178c0,0,96,64,208,64c0,0,90,0,170,-33l33,26h40L589,52L673,33L667,0H454l22,117C476,117,350,-14,245,-14Z" 
id="f5_6"
transform="scale(0.001,-0.001)" />

<path d="M62,0L176,649L88,668l6,33H301L278,543c0,0,55,84,124,130c0,0,69,47,138,47c0,0,37,0,59,-6L566,530H534l-28,95c0,0,-60,0,-124,-46c0,0,-63,-45,-116,-120L186,0Z" 
id="f5_7"
transform="scale(0.001,-0.001)" />

<path d="M679,178V467c0,0,0,110,-32,150c0,0,-31,41,-120,41H385V178ZM139,0V836H525c0,0,220,0,311,-90c0,0,90,-90,90,-297V0Z" 
id="f0_p"
transform="scale(0.001,-0.001)" />

<path d="M181,0l47,836H366L344,442c0,0,36,1,65,7c0,0,29,5,52,18c0,0,24,12,41,25c0,0,18,13,33,37c0,0,16,24,26,44c0,0,10,19,22,54c0,0,12,35,21,60c0,0,8,26,21,71c0,0,14,45,25,78H773c0,0,-52,-194,-84,-271c0,0,-56,-128,-147,-179c0,0,-79,-46,-205,-50L325,107c0,0,73,0,131,5c0,0,57,6,114,21c0,0,57,15,102,40c0,0,46,25,90,64c0,0,44,39,81,93c0,0,36,55,71,128c0,0,36,74,66,167c0,0,31,93,61,211h138c0,0,-38,-124,-72,-218c0,0,-34,-94,-73,-179c0,0,-39,-85,-79,-146c0,0,-40,-61,-89,-112c0,0,-48,-51,-103,-84C763,97,709,65,640,42C640,42,572,19,495,10C495,10,417,0,321,0Z" 
id="f6_2"
transform="scale(0.001,-0.001)" />

<path d="M162,312L264,836H403L312,369L162,312Z" 
id="f6_3"
transform="scale(0.001,-0.001)" />

<path d="M495,0L636,729H207l21,107H944L923,729H775L633,0Z" 
id="f6_4"
transform="scale(0.001,-0.001)" />

<path d="M95,-317L245,454l150,56L233,-317ZM505,0L948,729H280l21,106h829l-16,-82L650,0Z" 
id="f6_5"
transform="scale(0.001,-0.001)" />

<path d="M154,0l88,454l150,56L292,0ZM721,0l88,454c0,0,32,161,-5,218c0,0,-37,57,-176,57H280l21,107H648c0,0,206,0,272,-94c0,0,65,-93,22,-317L859,0Z" 
id="f6_6"
transform="scale(0.001,-0.001)" />

<path d="M287,0L730,729H207l75,385H421L368,836l547,-1L896,753L433,0Z" 
id="f6_7"
transform="scale(0.001,-0.001)" />

<path d="M467,496c0,0,102,0,161,69c0,0,59,70,59,190c0,0,0,120,-59,190c0,0,-59,70,-161,70c0,0,-101,0,-160,-70c0,0,-60,-70,-60,-190c0,0,0,-120,60,-190c0,0,59,-69,160,-69ZM403,-20c0,0,-57,0,-115,11c0,0,-58,10,-121,32V160c0,0,57,-26,115,-40c0,0,58,-14,115,-14c0,0,149,0,228,100c0,0,79,100,90,305c0,0,-44,-65,-110,-99c0,0,-66,-35,-147,-35c0,0,-167,0,-265,102c0,0,-97,101,-97,276c0,0,0,172,101,275c0,0,102,104,270,104c0,0,194,0,295,-148c0,0,102,-148,102,-430c0,0,0,-263,-125,-420C739,136,614,-20,403,-20Z" 
id="f2_1g"
transform="scale(0.001,-0.001)" />

<path d="M332,-20c0,0,-52,0,-88,34c0,0,-35,36,-35,88c0,0,0,52,35,88c0,0,36,36,88,36c0,0,51,0,88,-36c0,0,36,-36,36,-88c0,0,0,-51,-36,-87c0,0,-36,-35,-88,-35ZM289,290L247,524l71,19c0,0,77,20,108,68c0,0,31,48,31,130c0,0,0,102,-36,148c0,0,-35,46,-119,46c0,0,-63,0,-111,-32L159,759H93V979c0,0,123,32,241,32c0,0,339,0,339,-265c0,0,0,-108,-58,-183c0,0,-58,-74,-164,-104L386,441L366,290Z" 
id="f4_20"
transform="scale(0.001,-0.001)" />

<path d="M13,0L67,212H274c0,0,15,0,19,4c0,0,5,4,5,13c0,0,0,6,-9,22c0,0,-9,16,-19,38c0,0,-11,21,-20,45c0,0,-8,24,-8,48c0,0,0,18,11,89c0,0,11,70,11,102c0,0,0,27,-16,45c0,0,-17,18,-37,18H188c0,0,-89,0,-89,117c0,0,0,52,15,99c0,0,15,47,30,47c0,0,18,0,18,-22c0,0,0,-19,10,-25c0,0,10,-7,39,-7h56c0,0,65,0,86,-15c0,0,21,-16,21,-56c0,0,0,-21,-5,-50c0,0,-38,-172,-38,-258c0,0,0,-63,11,-100c0,0,11,-37,46,-104c0,0,20,-38,20,-58c0,0,0,-16,-10,-74C398,130,388,72,369,0Z" 
id="f4_1g"
transform="scale(0.001,-0.001)" />

<path d="M469,-18c0,0,-14,0,-14,15l2,7c0,0,20,43,20,158l-3,156l-2,119c0,0,0,65,19,109c0,0,19,44,60,88H110c0,0,-47,0,-69,34c0,0,-22,35,-22,109c0,0,0,50,16,85c0,0,16,36,35,36c0,0,14,0,14,-12L83,869c0,0,0,-13,7,-19c0,0,6,-5,23,-5H608c0,0,25,0,40,-14c0,0,15,-15,15,-38V686c0,0,0,-26,-4,-35c0,0,-3,-9,-11,-11c0,0,-42,-9,-56,-40c0,0,-15,-30,-15,-93c0,0,0,-56,12,-184c0,0,10,-129,10,-224c0,0,0,-24,-6,-37c0,0,-7,-13,-17,-25c0,0,-7,-6,-18,-12c0,0,-11,-7,-23,-13C535,12,523,5,512,0c0,0,-10,-5,-15,-8c0,0,-22,-10,-28,-10Z" 
id="f4_1z"
transform="scale(0.001,-0.001)" />

<path d="M102,-3c0,0,-26,0,-26,31c0,0,0,176,35,320c0,0,34,145,102,247c0,0,3,4,3,25c0,0,0,24,-19,37c0,0,-19,13,-79,15c0,0,-40,0,-61,35c0,0,-22,35,-22,95c0,0,0,39,14,67c0,0,14,29,32,29c0,0,20,0,20,-25c0,0,0,-28,32,-28h33c0,0,54,0,85,-25c0,0,30,-25,30,-68l-3,-52c0,0,0,-22,3,-31c0,0,76,71,104,109c0,0,29,37,36,75c0,0,55,7,82,7c0,0,154,0,239,-126c0,0,85,-127,85,-352c0,0,0,-99,-15,-200C812,182,798,81,774,0H335l42,214H652c0,0,25,0,37,5c0,0,11,4,21,18c0,0,10,14,17,36c0,0,7,22,12,56c0,0,5,34,5,64c0,0,0,247,-241,247c0,0,-337,0,-337,-609c0,0,0,-20,-5,-27c0,0,-6,-7,-22,-7Z" 
id="f4_1r"
transform="scale(0.001,-0.001)" />

<path d="M107,-18c0,0,-17,0,-17,18l3,9c0,0,23,48,23,124l-1,177c0,0,0,55,8,77c0,0,9,22,33,46c0,0,23,23,51,40c0,0,28,17,42,17c0,0,5,0,9,-3c0,0,5,-3,5,-8c0,0,0,-3,-11,-26c0,0,-14,-49,-14,-120l4,-223c0,0,0,-38,-9,-54c0,0,-8,-17,-32,-34C201,22,178,6,150,-5c0,0,-28,-13,-43,-13Zm547,0c0,0,-17,0,-17,18l2,10c0,0,10,38,10,109c0,0,0,79,-14,208c0,0,-15,128,-15,149c0,0,0,54,16,89c0,0,15,36,53,69H154c0,0,-35,0,-57,40c0,0,-21,40,-21,103c0,0,0,33,8,61c0,0,7,28,19,44c0,0,13,17,24,17c0,0,15,0,15,-13V869c0,0,0,-13,5,-19c0,0,5,-5,22,-5H718c0,0,50,0,50,-63V652c0,0,0,-21,-15,-30c0,0,-35,-24,-35,-77c0,0,0,-57,20,-169c0,0,27,-157,27,-272c0,0,0,-29,-6,-44c0,0,-6,-15,-17,-26c0,0,-12,-16,-47,-35L681,-9l-13,-6l-14,-3Z" 
id="f4_1x"
transform="scale(0.001,-0.001)" />

<path d="M700,-317V454c0,0,0,155,-54,215c0,0,-54,60,-180,60H277V551c0,0,0,-55,26,-80c0,0,27,-26,82,-26c0,0,30,0,80,10V341c0,0,-61,-11,-111,-11c0,0,-100,0,-157,55c0,0,-58,55,-58,186V836H466c0,0,203,0,288,-91c0,0,85,-92,85,-293V-317Z" 
id="f2_g"
transform="scale(0.001,-0.001)" />

<path d="M176,0V190H335V0ZM685,0V190H844V0Zm508,0V190h159V0Z" 
id="f2_1b"
transform="scale(0.001,-0.001)" />

<path d="M280,0L660,987H125v127H841v-64L437,0Z" 
id="f2_1d"
transform="scale(0.001,-0.001)" />

<path d="M486,98c0,0,117,0,175,114c0,0,59,115,59,344c0,0,0,230,-59,344c0,0,-58,115,-175,115c0,0,-117,0,-175,-115c0,0,-59,-114,-59,-344c0,0,0,-229,59,-344c0,0,58,-114,175,-114ZM485,-20c0,0,-187,0,-285,147c0,0,-99,148,-99,429c0,0,0,282,98,430c0,0,99,148,286,148c0,0,188,0,286,-148c0,0,99,-148,99,-430c0,0,0,-281,-99,-429c0,0,-98,-147,-286,-147Z" 
id="f2_1h"
transform="scale(0.001,-0.001)" />

<path d="M122,-200c0,0,99,170,148,338c0,0,49,169,49,342c0,0,0,172,-49,340c0,0,-49,168,-148,340H241c0,0,112,-176,168,-345c0,0,55,-169,55,-335c0,0,0,-167,-55,-337c0,0,-56,-168,-168,-343Z" 
id="f2_v"
transform="scale(0.001,-0.001)" />

<path d="M235,0V40L394,60V936H356c0,0,-189,0,-258,-15L78,766H28v234H908V766H857L837,921c0,0,-22,5,-98,9c0,0,-75,4,-165,4H538V60L697,40V0Z" 
id="f3_1f"
transform="scale(0.001,-0.001)" />

<path d="M354,-200c0,0,-112,175,-167,343c0,0,-56,170,-56,337c0,0,0,166,55,335c0,0,55,169,168,345H473c0,0,-100,-172,-148,-340c0,0,-48,-168,-48,-340c0,0,0,-173,48,-342c0,0,49,-168,148,-338Z" 
id="f2_x"
transform="scale(0.001,-0.001)" />

<path d="M190,0V127H436V977L168,923v137l267,54H586V127H832V0Z" 
id="f2_13"
transform="scale(0.001,-0.001)" />

<path d="M411,-20c0,0,-70,0,-142,11c0,0,-73,11,-151,35V178c0,0,67,-37,139,-54c0,0,72,-18,152,-18c0,0,129,0,204,67c0,0,75,68,75,184c0,0,0,117,-75,184c0,0,-75,68,-204,68c0,0,-61,0,-121,-13c0,0,-60,-13,-123,-42v560H757V987H303V714c0,0,33,11,66,17c0,0,33,5,65,5c0,0,187,0,296,-102c0,0,109,-102,109,-277c0,0,0,-179,-112,-279c0,0,-112,-98,-316,-98Z" 
id="f2_14"
transform="scale(0.001,-0.001)" />

<path d="M347,-317V284c0,0,0,59,-21,123c0,0,-21,64,-44,103c0,0,-23,40,-59,94L66,838H218L336,668c0,0,76,-109,120,-223c0,0,87,34,126,107c0,0,39,73,39,186v98H758V737c0,0,0,-82,-23,-152c0,0,-23,-69,-61,-116c0,0,-39,-47,-87,-78c0,0,-47,-31,-101,-45V-317Z" 
id="f2_10"
transform="scale(0.001,-0.001)" />

<path d="M414,-20c0,0,-70,0,-144,13c0,0,-75,13,-154,40V179c0,0,63,-36,138,-55c0,0,74,-18,156,-18c0,0,142,0,216,55c0,0,74,56,74,163c0,0,0,98,-69,153c0,0,-69,56,-192,56H309V657H445c0,0,111,0,170,44c0,0,59,45,59,128c0,0,0,86,-61,132c0,0,-61,46,-174,46c0,0,-62,0,-133,-13c0,0,-71,-14,-156,-42v134c0,0,85,24,160,36c0,0,75,12,142,12c0,0,171,0,271,-78c0,0,100,-78,100,-211c0,0,0,-92,-53,-156c0,0,-52,-64,-150,-89c0,0,108,-23,169,-96c0,0,61,-73,61,-180c0,0,0,-165,-114,-255c0,0,-113,-89,-322,-89Z" 
id="f2_17"
transform="scale(0.001,-0.001)" />

<path d="M291,0V190H443V0Zm5,299V414c0,0,0,75,21,124c0,0,21,48,88,113l67,66c0,0,42,40,61,75c0,0,19,35,19,71c0,0,0,67,-48,108c0,0,-49,41,-130,41c0,0,-59,0,-125,-26c0,0,-67,-26,-139,-77v140c0,0,70,43,142,64c0,0,72,21,148,21c0,0,138,0,221,-72c0,0,83,-73,83,-191c0,0,0,-57,-27,-108c0,0,-27,-51,-94,-115L517,583c0,0,-34,-35,-49,-54c0,0,-14,-20,-20,-39c0,0,-5,-16,-7,-38c0,0,-2,-22,-2,-61V299Z" 
id="f2_1e"
transform="scale(0.001,-0.001)" />

<path d="M147,700v414H274V700Zm282,0v414H556V700Z" 
id="f2_w"
transform="scale(0.001,-0.001)" />


</defs>
</svg>