<?xml version="1.0" encoding="UTF-8" standalone="no"?>
<!DOCTYPE svg PUBLIC "-//W3C//DTD SVG 1.1//EN"
"http://www.w3.org/Graphics/SVG/1.1/DTD/svg11.dtd">
<svg viewBox="0 0 909 1286" version="1.1" xmlns="http://www.w3.org/2000/svg" xmlns:xlink="http://www.w3.org/1999/xlink">
<defs>
<style type="text/css"><![CDATA[
.g0_11{
fill: #D8D8D8;
}
.g1_11{
fill: none;
stroke: #0000FF;
stroke-width: 1.0694444;
stroke-linecap: butt;
stroke-linejoin: miter;
}
.g2_11{
fill: none;
stroke: #000000;
stroke-width: 0.7638889;
stroke-linecap: butt;
stroke-linejoin: round;
}
]]></style>
</defs>
<path fill-rule="evenodd" d="M281,425.3H389V381.8H281v43.5Z" class="g0_11" />
<path fill-rule="evenodd" d="M389.1,425.3h65V381.8h-65v43.5Z" class="g0_11" />
<path fill-rule="evenodd" d="M454.2,425.3H562.3V381.8H454.2v43.5Z" class="g0_11" />
<path fill-rule="evenodd" d="M562.4,425.3h75.8V381.8H562.4v43.5Z" class="g0_11" />
<path fill-rule="evenodd" d="M638.3,425.3h64.9V381.8H638.3v43.5Z" class="g0_11" />
<path fill-rule="evenodd" d="M703.2,425.3h68.7V381.8H703.2v43.5Z" class="g0_11" />
<path fill-rule="evenodd" d="M118.4,445.4H280.9V425.3H118.4v20.1Z" class="g0_11" />
<path fill-rule="evenodd" d="M118.4,465.4H280.9V445.5H118.4v19.9Z" class="g0_11" />
<path fill-rule="evenodd" d="M118.4,485.6H280.9V465.5H118.4v20.1Z" class="g0_11" />
<path fill-rule="evenodd" d="M118.4,505.6H280.9V485.7H118.4v19.9Z" class="g0_11" />
<path fill-rule="evenodd" d="M118.4,525.8H280.9V505.7H118.4v20.1Z" class="g0_11" />
<path fill-rule="evenodd" d="M567.7,649.4h95.9V629.3H567.7v20.1Z" class="g0_11" />
<path fill-rule="evenodd" d="M491.8,649.4h75.8V629.3H491.8v20.1Z" class="g0_11" />
<path fill-rule="evenodd" d="M396.6,649.4h95.1V629.3H396.6v20.1Z" class="g0_11" />
<path fill-rule="evenodd" d="M307.4,649.4h89.1V629.3H307.4v20.1Z" class="g0_11" />
<path fill-rule="evenodd" d="M218.3,649.4h89V629.3h-89v20.1Z" class="g0_11" />
<path fill-rule="evenodd" d="M130.6,649.4h87.6V629.3H130.6v20.1Z" class="g0_11" />
<path fill-rule="evenodd" d="M663.7,669.4H771.9V649.5H663.7v19.9Z" class="g0_11" />
<path fill-rule="evenodd" d="M663.7,689.6H771.9V669.5H663.7v20.1Z" class="g0_11" />
<path fill-rule="evenodd" d="M663.7,709.6H771.9v-20H663.7v20Z" class="g0_11" />
<path fill-rule="evenodd" d="M663.7,729.7H771.9v-20H663.7v20Z" class="g0_11" />
<path fill-rule="evenodd" d="M663.7,749.8H771.9v-20H663.7v20Z" class="g0_11" />
<path fill-rule="evenodd" d="M281,425.3H389V381.8H281v43.5Z" class="g0_11" />
<path fill-rule="evenodd" d="M389.1,425.3h65V381.8h-65v43.5Z" class="g0_11" />
<path fill-rule="evenodd" d="M454.2,425.3H562.3V381.8H454.2v43.5Z" class="g0_11" />
<path fill-rule="evenodd" d="M562.4,425.3h75.8V381.8H562.4v43.5Z" class="g0_11" />
<path fill-rule="evenodd" d="M638.3,425.3h64.9V381.8H638.3v43.5Z" class="g0_11" />
<path fill-rule="evenodd" d="M703.2,425.3h68.7V381.8H703.2v43.5Z" class="g0_11" />
<path fill-rule="evenodd" d="M118.4,445.4H280.9V425.3H118.4v20.1Z" class="g0_11" />
<path fill-rule="evenodd" d="M118.4,465.4H280.9V445.5H118.4v19.9Z" class="g0_11" />
<path fill-rule="evenodd" d="M118.4,485.6H280.9V465.5H118.4v20.1Z" class="g0_11" />
<path fill-rule="evenodd" d="M118.4,505.6H280.9V485.7H118.4v19.9Z" class="g0_11" />
<path fill-rule="evenodd" d="M118.4,525.8H280.9V505.7H118.4v20.1Z" class="g0_11" />
<path fill-rule="evenodd" d="M567.7,649.4h95.9V629.3H567.7v20.1Z" class="g0_11" />
<path fill-rule="evenodd" d="M491.8,649.4h75.8V629.3H491.8v20.1Z" class="g0_11" />
<path fill-rule="evenodd" d="M396.6,649.4h95.1V629.3H396.6v20.1Z" class="g0_11" />
<path fill-rule="evenodd" d="M307.4,649.4h89.1V629.3H307.4v20.1Z" class="g0_11" />
<path fill-rule="evenodd" d="M218.3,649.4h89V629.3h-89v20.1Z" class="g0_11" />
<path fill-rule="evenodd" d="M130.6,649.4h87.6V629.3H130.6v20.1Z" class="g0_11" />
<path fill-rule="evenodd" d="M663.7,669.4H771.9V649.5H663.7v19.9Z" class="g0_11" />
<path fill-rule="evenodd" d="M663.7,689.6H771.9V669.5H663.7v20.1Z" class="g0_11" />
<path fill-rule="evenodd" d="M663.7,709.6H771.9v-20H663.7v20Z" class="g0_11" />
<path fill-rule="evenodd" d="M663.7,729.7H771.9v-20H663.7v20Z" class="g0_11" />
<path fill-rule="evenodd" d="M663.7,749.8H771.9v-20H663.7v20Z" class="g0_11" />
<path d="M168.1,276.5h51.3m-45.2,21.4h45.2" class="g1_11" />
<path d="M280.6,382.2H772.4M118,425.7H772.4M118,445.9H772.4M118,465.9H772.4M118,486.1H772.4M118,506.1H772.4M118,526.2H772.4M118.4,425.3V526.6M281,381.8V526.6M454.2,381.8V526.6M638.3,381.8V526.6M772,381.8V526.6" class="g2_11" />
<path d="M669.8,564.8H772.1" class="g1_11" />
<path d="M130.2,629.7H664M130.2,649.8H772.4M130.2,669.9H772.4M130.2,690H772.4M130.2,710H772.4M130.2,730.2H772.4m-642.2,20H772.4M130.6,629.3V750.6M218.3,629.3V750.6M307.4,629.3V750.6M396.6,629.3V750.6M491.8,629.3V750.6M567.7,629.3V750.6m96,-121.3V750.6M772,649.5V750.6" class="g2_11" />
<path d="M664,788.8H772.1" class="g1_11" />
<path d="M120.6,853.8H772.4M120.6,876H772.4M120.6,898.1H772.4M120.6,920.3H772.4M120.6,963.8H772.4m-651.8,43.5H772.4m-651.8,22.2H772.4m-651.8,22.1H772.4m-651.8,43.6H772.4m-651.8,22.1H772.4m-651.8,22.2H772.4m-651.8,22.1H772.4M121,853.4V1162M446.6,853.4V1162M772,853.4V1162" class="g2_11" />
</svg>