<?xml version="1.0" encoding="UTF-8" standalone="no"?>
<!DOCTYPE svg PUBLIC "-//W3C//DTD SVG 1.1//EN"
"http://www.w3.org/Graphics/SVG/1.1/DTD/svg11.dtd">
<svg viewBox="0 0 909 1286" version="1.1" xmlns="http://www.w3.org/2000/svg" xmlns:xlink="http://www.w3.org/1999/xlink">
<defs>
<clipPath id="c0_8"><path d="M0,1286.2V0H909.4V1286.2Z" /></clipPath>
<style type="text/css"><![CDATA[
.g0_8{
fill: none;
stroke: #000000;
stroke-width: 0.7638889;
stroke-linecap: butt;
stroke-linejoin: round;
}
]]></style>
</defs>
<g clip-path="url(#c0_8)">
<g fill="#000000" >
<use xlink:href="#f0_a" transform="matrix(12,0,0,12,619.5,127.1)" />
<use xlink:href="#f0_k" transform="matrix(12,0,0,12,624.9,127.1)" />
<use xlink:href="#f0_d" transform="matrix(12,0,0,12,637.4,127.1)" />
<use xlink:href="#f0_13" transform="matrix(12,0,0,12,643.7,127.1)" />
<use xlink:href="#f0_y" transform="matrix(12,0,0,12,651,127.1)" />
<use xlink:href="#f0_14" transform="matrix(12,0,0,12,670.1,127.1)" />
<use xlink:href="#f0_d" transform="matrix(12,0,0,12,676.3,127.1)" />
<use xlink:href="#f0_4" transform="matrix(12,0,0,12,682.6,127.1)" />
<use xlink:href="#f0_g" transform="matrix(12,0,0,12,693.6,127.1)" />
<use xlink:href="#f0_a" transform="matrix(12,0,0,12,704,127.1)" />
<use xlink:href="#f0_13" transform="matrix(12,0,0,12,709.3,127.1)" />
<use xlink:href="#f0_e" transform="matrix(12,0,0,12,723.1,127.1)" />
<use xlink:href="#f0_d" transform="matrix(12,0,0,12,734.1,127.1)" />
<use xlink:href="#f0_n" transform="matrix(12,0,0,12,740.3,127.1)" />
<use xlink:href="#f0_4" transform="matrix(12,0,0,12,748.6,127.1)" />
<use xlink:href="#f0_k" transform="matrix(12,0,0,12,759.6,127.1)" />
<use xlink:href="#f1_2" transform="matrix(12,0,0,12,493.8,148.5)" />
<use xlink:href="#f1_3" transform="matrix(12,0,0,12,506,148.5)" />
<use xlink:href="#f1_a" transform="matrix(12,0,0,12,510.1,148.5)" />
<use xlink:href="#f1_3" transform="matrix(12,0,0,12,520.5,148.5)" />
<use xlink:href="#f1_b" transform="matrix(12,0,0,12,524.6,148.5)" />
<use xlink:href="#f1_e" transform="matrix(12,0,0,12,537.1,148.5)" />
<use xlink:href="#f1_i" transform="matrix(12,0,0,12,554.8,148.5)" />
<use xlink:href="#f1_j" transform="matrix(12,0,0,12,566.9,148.5)" />
<use xlink:href="#f1_4" transform="matrix(12,0,0,12,584.9,148.5)" />
<use xlink:href="#f1_6" transform="matrix(12,0,0,12,595.3,148.5)" />
<use xlink:href="#f1_5" transform="matrix(12,0,0,12,600.3,148.5)" />
<use xlink:href="#f1_7" transform="matrix(12,0,0,12,609.9,148.5)" />
<use xlink:href="#f1_a" transform="matrix(12,0,0,12,616.3,148.5)" />
<use xlink:href="#f1_e" transform="matrix(12,0,0,12,632.5,148.5)" />
<use xlink:href="#f1_t" transform="matrix(12,0,0,12,644.5,148.5)" />
<use xlink:href="#f1_n" transform="matrix(12,0,0,12,656.4,148.5)" />
<use xlink:href="#f1_6" transform="matrix(12,0,0,12,663.7,148.5)" />
<use xlink:href="#f1_2" transform="matrix(12,0,0,12,674.5,148.5)" />
<use xlink:href="#f1_3" transform="matrix(12,0,0,12,686.7,148.5)" />
<use xlink:href="#f1_4" transform="matrix(12,0,0,12,690.8,148.5)" />
<use xlink:href="#f1_6" transform="matrix(12,0,0,12,701.1,148.5)" />
<use xlink:href="#f1_3" transform="matrix(12,0,0,12,706.1,148.5)" />
<use xlink:href="#f1_h" transform="matrix(12,0,0,12,710.2,148.5)" />
<use xlink:href="#f1_o" transform="matrix(12,0,0,12,721.1,148.5)" />
<use xlink:href="#f1_l" transform="matrix(12,0,0,12,737.5,148.5)" />
<use xlink:href="#f1_o" transform="matrix(12,0,0,12,749.4,148.5)" />
<use xlink:href="#f1_e" transform="matrix(12,0,0,12,760,148.5)" />
</g>
</g>
<path d="M128.6,172.6H780M128.6,391.8H780M128.6,631.7H780m-651.4,188H780M128.9,172.2V820.1m217,-647.9V820.1M562.8,172.2V820.1M779.6,172.2V820.1" class="g0_8" />
<g clip-path="url(#c0_8)">
<g fill="#000000" >
<use xlink:href="#f1_4" transform="matrix(12,0,0,12,729.8,189.9)" />
<use xlink:href="#f1_6" transform="matrix(12,0,0,12,740.2,189.9)" />
<use xlink:href="#f1_f" transform="matrix(12,0,0,12,745.1,189.9)" />
<use xlink:href="#f1_3" transform="matrix(12,0,0,12,756.5,189.9)" />
<use xlink:href="#f1_h" transform="matrix(12,0,0,12,760.6,189.9)" />
<use xlink:href="#f2_a" transform="matrix(11,0,0,11,681.7,189.9)" />
<use xlink:href="#f2_f" transform="matrix(11,0,0,11,690.1,189.9)" />
<use xlink:href="#f2_x" transform="matrix(11,0,0,11,697.6,189.9)" />
<use xlink:href="#f2_e" transform="matrix(11,0,0,11,702.3,189.9)" />
<use xlink:href="#f2_6" transform="matrix(11,0,0,11,709.6,189.9)" />
<use xlink:href="#f2_9" transform="matrix(11,0,0,11,715.2,189.9)" />
<use xlink:href="#f1_r" transform="matrix(12,0,0,12,513,189.9)" />
<use xlink:href="#f1_6" transform="matrix(12,0,0,12,526,189.9)" />
<use xlink:href="#f1_n" transform="matrix(12,0,0,12,531,189.9)" />
<use xlink:href="#f1_3" transform="matrix(12,0,0,12,538.4,189.9)" />
<use xlink:href="#f1_i" transform="matrix(12,0,0,12,542.5,189.9)" />
<use xlink:href="#f2_h" transform="matrix(11,0,0,11,475.4,189.9)" />
<use xlink:href="#f2_7" transform="matrix(11,0,0,11,483.8,189.9)" />
<use xlink:href="#f2_h" transform="matrix(11,0,0,11,491.3,189.9)" />
<use xlink:href="#f2_13" transform="matrix(11,0,0,11,499.6,189.9)" />
<use xlink:href="#f1_4" transform="matrix(12,0,0,12,303.9,189.9)" />
<use xlink:href="#f1_f" transform="matrix(12,0,0,12,314.3,189.9)" />
<use xlink:href="#f1_t" transform="matrix(12,0,0,12,325.7,189.9)" />
<use xlink:href="#f2_b" transform="matrix(11,0,0,11,266.3,189.9)" />
<use xlink:href="#f2_3" transform="matrix(11,0,0,11,270.9,189.9)" />
<use xlink:href="#f2_h" transform="matrix(11,0,0,11,275.6,189.9)" />
<use xlink:href="#f2_6" transform="matrix(11,0,0,11,284,189.9)" />
<use xlink:href="#f2_9" transform="matrix(11,0,0,11,289.6,189.9)" />
<use xlink:href="#f1_i" transform="matrix(12,0,0,12,711.8,409.3)" />
<use xlink:href="#f1_u" transform="matrix(12,0,0,12,723.8,409.3)" />
<use xlink:href="#f1_a" transform="matrix(12,0,0,12,735.7,409.3)" />
<use xlink:href="#f1_r" transform="matrix(12,0,0,12,746.1,409.3)" />
<use xlink:href="#f1_b" transform="matrix(12,0,0,12,759,409.3)" />
<use xlink:href="#f2_2" transform="matrix(11,0,0,11,665.5,409.3)" />
<use xlink:href="#f2_c" transform="matrix(11,0,0,11,673.9,409.3)" />
<use xlink:href="#f2_5" transform="matrix(11,0,0,11,682.3,409.3)" />
<use xlink:href="#f2_n" transform="matrix(11,0,0,11,689.8,409.3)" />
<use xlink:href="#f2_e" transform="matrix(11,0,0,11,698,409.3)" />
<use xlink:href="#f1_i" transform="matrix(12,0,0,12,503.9,409.3)" />
<use xlink:href="#f1_3" transform="matrix(12,0,0,12,515.9,409.3)" />
<use xlink:href="#f1_n" transform="matrix(12,0,0,12,520,409.3)" />
<use xlink:href="#f1_6" transform="matrix(12,0,0,12,527.4,409.3)" />
<use xlink:href="#f1_5" transform="matrix(12,0,0,12,532.4,409.3)" />
<use xlink:href="#f1_b" transform="matrix(12,0,0,12,542,409.3)" />
<use xlink:href="#f2_5" transform="matrix(11,0,0,11,458.8,409.3)" />
<use xlink:href="#f2_9" transform="matrix(11,0,0,11,466.3,409.3)" />
<use xlink:href="#f2_5" transform="matrix(11,0,0,11,474.7,409.3)" />
<use xlink:href="#f2_n" transform="matrix(11,0,0,11,482.1,409.3)" />
<use xlink:href="#f2_7" transform="matrix(11,0,0,11,490.5,409.3)" />
<use xlink:href="#f1_t" transform="matrix(12,0,0,12,311.1,409.3)" />
<use xlink:href="#f1_6" transform="matrix(12,0,0,12,323,409.3)" />
<use xlink:href="#f1_5" transform="matrix(12,0,0,12,328,409.3)" />
<use xlink:href="#f2_v" transform="matrix(11,0,0,11,274.4,409.3)" />
<use xlink:href="#f2_e" transform="matrix(11,0,0,11,282.8,409.3)" />
<use xlink:href="#f2_4" transform="matrix(11,0,0,11,290.1,409.3)" />
<use xlink:href="#f2_9" transform="matrix(11,0,0,11,296.7,409.3)" />
<use xlink:href="#f1_q" transform="matrix(12,0,0,12,737.2,791.4)" />
<use xlink:href="#f1_6" transform="matrix(12,0,0,12,742.1,791.4)" />
<use xlink:href="#f1_m" transform="matrix(12,0,0,12,747.1,791.4)" />
<use xlink:href="#f1_c" transform="matrix(12,0,0,12,758.5,791.4)" />
<use xlink:href="#f2_6" transform="matrix(11,0,0,11,700.3,791.4)" />
<use xlink:href="#f2_7" transform="matrix(11,0,0,11,705.8,791.4)" />
<use xlink:href="#f2_b" transform="matrix(11,0,0,11,713.3,791.4)" />
<use xlink:href="#f2_9" transform="matrix(11,0,0,11,718,791.4)" />
<use xlink:href="#f2_x" transform="matrix(11,0,0,11,726.3,791.4)" />
<use xlink:href="#f1_q" transform="matrix(12,0,0,12,530.8,649.2)" />
<use xlink:href="#f1_n" transform="matrix(12,0,0,12,535.8,649.2)" />
<use xlink:href="#f1_m" transform="matrix(12,0,0,12,543.1,649.2)" />
<use xlink:href="#f2_i" transform="matrix(11,0,0,11,492.1,649.2)" />
<use xlink:href="#f2_c" transform="matrix(11,0,0,11,500.5,649.2)" />
<use xlink:href="#f2_h" transform="matrix(11,0,0,11,508.9,649.2)" />
<use xlink:href="#f2_7" transform="matrix(11,0,0,11,517.3,649.2)" />
<use xlink:href="#f1_c" transform="matrix(12,0,0,12,299.1,649.2)" />
<use xlink:href="#f1_b" transform="matrix(12,0,0,12,312.1,649.2)" />
<use xlink:href="#f1_c" transform="matrix(12,0,0,12,324.6,649.2)" />
<use xlink:href="#f2_4" transform="matrix(11,0,0,11,273.6,649.2)" />
<use xlink:href="#f2_9" transform="matrix(11,0,0,11,280.2,649.2)" />
<use xlink:href="#f2_b" transform="matrix(11,0,0,11,288.6,649.2)" />
<use xlink:href="#f0_4" transform="matrix(12,0,0,12,601.5,903.2)" />
<use xlink:href="#f0_8" transform="matrix(12,0,0,12,612.5,903.2)" />
<use xlink:href="#f0_3" transform="matrix(12,0,0,12,626.4,903.2)" />
<use xlink:href="#f0_7" transform="matrix(12,0,0,12,639.8,903.2)" />
<use xlink:href="#f0_c" transform="matrix(12,0,0,12,652.3,903.2)" />
<use xlink:href="#f0_7" transform="matrix(12,0,0,12,672.2,903.2)" />
<use xlink:href="#f0_p" transform="matrix(12,0,0,12,684.7,903.2)" />
<use xlink:href="#f0_q" transform="matrix(12,0,0,12,693,903.2)" />
<use xlink:href="#f0_7" transform="matrix(12,0,0,12,704.1,903.2)" />
<use xlink:href="#f0_e" transform="matrix(12,0,0,12,723,903.2)" />
<use xlink:href="#f0_d" transform="matrix(12,0,0,12,734,903.2)" />
<use xlink:href="#f0_n" transform="matrix(12,0,0,12,740.3,903.2)" />
<use xlink:href="#f0_4" transform="matrix(12,0,0,12,748.5,903.2)" />
<use xlink:href="#f0_k" transform="matrix(12,0,0,12,759.5,903.2)" />
<use xlink:href="#f1_p" transform="matrix(12,0,0,12,191.4,948)" />
<use xlink:href="#f1_i" transform="matrix(12,0,0,12,201.2,948)" />
<use xlink:href="#f1_a" transform="matrix(12,0,0,12,213.2,948)" />
<use xlink:href="#f1_6" transform="matrix(12,0,0,12,223.6,948)" />
<use xlink:href="#f1_5" transform="matrix(12,0,0,12,228.7,948)" />
<use xlink:href="#f1_3" transform="matrix(12,0,0,12,238.3,948)" />
<use xlink:href="#f1_o" transform="matrix(12,0,0,12,248.3,948)" />
<use xlink:href="#f1_l" transform="matrix(12,0,0,12,258.9,948)" />
<use xlink:href="#f1_3" transform="matrix(12,0,0,12,270.8,948)" />
<use xlink:href="#f1_b" transform="matrix(12,0,0,12,274.8,948)" />
<use xlink:href="#f1_5" transform="matrix(12,0,0,12,287.3,948)" />
<use xlink:href="#f1_4" transform="matrix(12,0,0,12,302.8,948)" />
<use xlink:href="#f1_c" transform="matrix(12,0,0,12,313.2,948)" />
<use xlink:href="#f1_r" transform="matrix(12,0,0,12,326.2,948)" />
<use xlink:href="#f1_e" transform="matrix(12,0,0,12,339.2,948)" />
<use xlink:href="#f1_e" transform="matrix(12,0,0,12,351.1,948)" />
<use xlink:href="#f1_b" transform="matrix(12,0,0,12,363,948)" />
<use xlink:href="#f1_2" transform="matrix(12,0,0,12,381.3,948)" />
<use xlink:href="#f1_i" transform="matrix(12,0,0,12,393.5,948)" />
<use xlink:href="#f1_6" transform="matrix(12,0,0,12,405.4,948)" />
<use xlink:href="#f1_j" transform="matrix(12,0,0,12,410.5,948)" />
<use xlink:href="#f1_q" transform="matrix(12,0,0,12,428.6,948)" />
<use xlink:href="#f1_3" transform="matrix(12,0,0,12,433.7,948)" />
<use xlink:href="#f1_o" transform="matrix(12,0,0,12,437.8,948)" />
<use xlink:href="#f1_e" transform="matrix(12,0,0,12,448.3,948)" />
<use xlink:href="#f1_a" transform="matrix(12,0,0,12,460.2,948)" />
<use xlink:href="#f1_e" transform="matrix(12,0,0,12,476.6,948)" />
<use xlink:href="#f1_t" transform="matrix(12,0,0,12,488.5,948)" />
<use xlink:href="#f1_n" transform="matrix(12,0,0,12,500.4,948)" />
<use xlink:href="#f1_9" transform="matrix(12,0,0,12,513.5,948)" />
<use xlink:href="#f1_2" transform="matrix(12,0,0,12,519.3,948)" />
<use xlink:href="#f1_3" transform="matrix(12,0,0,12,531.5,948)" />
<use xlink:href="#f1_j" transform="matrix(12,0,0,12,535.6,948)" />
<use xlink:href="#f1_o" transform="matrix(12,0,0,12,547.9,948)" />
<use xlink:href="#f1_e" transform="matrix(12,0,0,12,558.4,948)" />
<use xlink:href="#f1_2" transform="matrix(12,0,0,12,576.3,948)" />
<use xlink:href="#f1_3" transform="matrix(12,0,0,12,588.5,948)" />
<use xlink:href="#f1_m" transform="matrix(12,0,0,12,592.6,948)" />
<use xlink:href="#f1_l" transform="matrix(12,0,0,12,604,948)" />
<use xlink:href="#f1_r" transform="matrix(12,0,0,12,615.9,948)" />
<use xlink:href="#f1_e" transform="matrix(12,0,0,12,628.9,948)" />
<use xlink:href="#f1_i" transform="matrix(12,0,0,12,646.6,948)" />
<use xlink:href="#f1_j" transform="matrix(12,0,0,12,658.7,948)" />
<use xlink:href="#f1_j" transform="matrix(12,0,0,12,676.7,948)" />
<use xlink:href="#f1_4" transform="matrix(12,0,0,12,689,948)" />
<use xlink:href="#f1_r" transform="matrix(12,0,0,12,699.3,948)" />
<use xlink:href="#f1_k" transform="matrix(12,0,0,12,499.6,969.4)" />
<use xlink:href="#f1_12" transform="matrix(12,0,0,12,505.4,969.4)" />
<use xlink:href="#f1_2" transform="matrix(12,0,0,12,512.6,969.4)" />
<use xlink:href="#f1_3" transform="matrix(12,0,0,12,524.6,969.4)" />
<use xlink:href="#f1_a" transform="matrix(12,0,0,12,528.7,969.4)" />
<use xlink:href="#f1_3" transform="matrix(12,0,0,12,539.1,969.4)" />
<use xlink:href="#f1_b" transform="matrix(12,0,0,12,543.2,969.4)" />
<use xlink:href="#f1_e" transform="matrix(12,0,0,12,555.7,969.4)" />
<use xlink:href="#f1_a" transform="matrix(12,0,0,12,573.6,969.4)" />
<use xlink:href="#f1_5" transform="matrix(12,0,0,12,584,969.4)" />
<use xlink:href="#f1_i" transform="matrix(12,0,0,12,599.4,969.4)" />
<use xlink:href="#f1_j" transform="matrix(12,0,0,12,611.5,969.4)" />
<use xlink:href="#f1_4" transform="matrix(12,0,0,12,629.5,969.4)" />
<use xlink:href="#f1_3" transform="matrix(12,0,0,12,639.9,969.4)" />
<use xlink:href="#f1_5" transform="matrix(12,0,0,12,644,969.4)" />
<use xlink:href="#f1_b" transform="matrix(12,0,0,12,653.6,969.4)" />
<use xlink:href="#f1_p" transform="matrix(12,0,0,12,671.9,969.4)" />
<use xlink:href="#f1_n" transform="matrix(12,0,0,12,681.7,969.4)" />
<use xlink:href="#f1_3" transform="matrix(12,0,0,12,689,969.4)" />
<use xlink:href="#f1_j" transform="matrix(12,0,0,12,693.2,969.4)" />
<use xlink:href="#f1_11" transform="matrix(12,0,0,12,705.4,969.4)" />
<use xlink:href="#f3_19" transform="matrix(16,0,0,16,214,996.6)" />
<use xlink:href="#f3_1a" transform="matrix(16,0,0,16,163.5,996.6)" />
<use xlink:href="#f3_x" transform="matrix(16,0,0,16,182.4,996.6)" />
<use xlink:href="#f3_r" transform="matrix(16,0,0,16,194.6,996.6)" />
<use xlink:href="#f3_13" transform="matrix(16,0,0,16,201.4,996.6)" />
<use xlink:href="#f3_1b" transform="matrix(16,0,0,16,155.5,996.6)" />
<use xlink:href="#f2_18" transform="matrix(11,0,0,11,137.7,1036.8)" />
<use xlink:href="#f2_c" transform="matrix(11,0,0,11,144.2,1036.8)" />
<use xlink:href="#f2_e" transform="matrix(11,0,0,11,152.6,1036.8)" />
<use xlink:href="#f2_i" transform="matrix(11,0,0,11,160.1,1036.8)" />
<use xlink:href="#f2_19" transform="matrix(11,0,0,11,168.5,1036.8)" />
<use xlink:href="#f2_1a" transform="matrix(11,0,0,11,211,1036.8)" />
<use xlink:href="#f2_1b" transform="matrix(11,0,0,11,216.6,1036.8)" />
<use xlink:href="#f2_9" transform="matrix(11,0,0,11,228.7,1036.8)" />
<use xlink:href="#f2_b" transform="matrix(11,0,0,11,236.9,1036.8)" />
<use xlink:href="#f2_e" transform="matrix(11,0,0,11,241.7,1036.8)" />
<use xlink:href="#f2_1c" transform="matrix(11,0,0,11,249.1,1036.8)" />
<use xlink:href="#f2_1d" transform="matrix(11,0,0,11,258.9,1036.8)" />
<use xlink:href="#f2_3" transform="matrix(11,0,0,11,273.8,1036.8)" />
<use xlink:href="#f2_i" transform="matrix(11,0,0,11,282.7,1036.8)" />
<use xlink:href="#f2_9" transform="matrix(11,0,0,11,291.1,1036.8)" />
<use xlink:href="#f2_d" transform="matrix(11,0,0,11,299.5,1036.8)" />
<use xlink:href="#f2_h" transform="matrix(11,0,0,11,312.6,1036.8)" />
<use xlink:href="#f2_6" transform="matrix(11,0,0,11,321,1036.8)" />
<use xlink:href="#f2_7" transform="matrix(11,0,0,11,326.5,1036.8)" />
<use xlink:href="#f2_7" transform="matrix(11,0,0,11,338.2,1036.8)" />
<use xlink:href="#f2_4" transform="matrix(11,0,0,11,345.7,1036.8)" />
<use xlink:href="#f2_18" transform="matrix(11,0,0,11,356.4,1036.8)" />
<use xlink:href="#f2_c" transform="matrix(11,0,0,11,362.9,1036.8)" />
<use xlink:href="#f2_e" transform="matrix(11,0,0,11,371.3,1036.8)" />
<use xlink:href="#f2_i" transform="matrix(11,0,0,11,378.8,1036.8)" />
<use xlink:href="#f2_1e" transform="matrix(11,0,0,11,387,1036.8)" />
<use xlink:href="#f2_1b" transform="matrix(11,0,0,11,137.7,1056.2)" />
<use xlink:href="#f2_3" transform="matrix(11,0,0,11,149.7,1056.2)" />
<use xlink:href="#f2_b" transform="matrix(11,0,0,11,154.4,1056.2)" />
<use xlink:href="#f2_e" transform="matrix(11,0,0,11,159.2,1056.2)" />
<use xlink:href="#f2_19" transform="matrix(11,0,0,11,166.5,1056.2)" />
<use xlink:href="#f2_1a" transform="matrix(11,0,0,11,211,1056.2)" />
<use xlink:href="#f2_1b" transform="matrix(11,0,0,11,216.6,1056.2)" />
<use xlink:href="#f2_9" transform="matrix(11,0,0,11,228.7,1056.2)" />
<use xlink:href="#f2_b" transform="matrix(11,0,0,11,236.9,1056.2)" />
<use xlink:href="#f2_e" transform="matrix(11,0,0,11,241.7,1056.2)" />
<use xlink:href="#f2_1c" transform="matrix(11,0,0,11,249.1,1056.2)" />
<use xlink:href="#f2_1d" transform="matrix(11,0,0,11,258.9,1056.2)" />
<use xlink:href="#f2_c" transform="matrix(11,0,0,11,273.8,1056.2)" />
<use xlink:href="#f2_5" transform="matrix(11,0,0,11,282.2,1056.2)" />
<use xlink:href="#f2_n" transform="matrix(11,0,0,11,289.7,1056.2)" />
<use xlink:href="#f2_9" transform="matrix(11,0,0,11,298.1,1056.2)" />
<use xlink:href="#f2_l" transform="matrix(11,0,0,11,310.8,1056.2)" />
<use xlink:href="#f2_c" transform="matrix(11,0,0,11,319.2,1056.2)" />
<use xlink:href="#f2_4" transform="matrix(11,0,0,11,327.4,1056.2)" />
<use xlink:href="#f2_8" transform="matrix(11,0,0,11,334,1056.2)" />
<use xlink:href="#f2_9" transform="matrix(11,0,0,11,338.7,1056.2)" />
<use xlink:href="#f2_1e" transform="matrix(11,0,0,11,347.1,1056.2)" />
<use xlink:href="#f2_1d" transform="matrix(11,0,0,11,355.5,1056.2)" />
<use xlink:href="#f2_3" transform="matrix(11,0,0,11,370.4,1056.2)" />
<use xlink:href="#f2_i" transform="matrix(11,0,0,11,379.3,1056.2)" />
<use xlink:href="#f2_9" transform="matrix(11,0,0,11,387.7,1056.2)" />
<use xlink:href="#f2_d" transform="matrix(11,0,0,11,396.1,1056.2)" />
<use xlink:href="#f2_h" transform="matrix(11,0,0,11,409.2,1056.2)" />
<use xlink:href="#f2_6" transform="matrix(11,0,0,11,417.5,1056.2)" />
<use xlink:href="#f2_7" transform="matrix(11,0,0,11,423.1,1056.2)" />
<use xlink:href="#f2_7" transform="matrix(11,0,0,11,434.8,1056.2)" />
<use xlink:href="#f2_4" transform="matrix(11,0,0,11,442.2,1056.2)" />
<use xlink:href="#f2_1b" transform="matrix(11,0,0,11,453,1056.2)" />
<use xlink:href="#f2_3" transform="matrix(11,0,0,11,465.1,1056.2)" />
<use xlink:href="#f2_b" transform="matrix(11,0,0,11,469.6,1056.2)" />
<use xlink:href="#f2_e" transform="matrix(11,0,0,11,474.4,1056.2)" />
<use xlink:href="#f2_1e" transform="matrix(11,0,0,11,481.8,1056.2)" />
<use xlink:href="#f2_18" transform="matrix(11,0,0,11,137.7,1075.4)" />
<use xlink:href="#f2_c" transform="matrix(11,0,0,11,144.2,1075.4)" />
<use xlink:href="#f2_e" transform="matrix(11,0,0,11,152.6,1075.4)" />
<use xlink:href="#f2_i" transform="matrix(11,0,0,11,160.1,1075.4)" />
<use xlink:href="#f2_19" transform="matrix(11,0,0,11,168.5,1075.4)" />
<use xlink:href="#f2_1f" transform="matrix(11,0,0,11,211,1075.4)" />
<use xlink:href="#f2_n" transform="matrix(11,0,0,11,223.1,1075.4)" />
<use xlink:href="#f2_1g" transform="matrix(11,0,0,11,231.5,1075.4)" />
<use xlink:href="#f2_1h" transform="matrix(11,0,0,11,239.8,1075.4)" />
<use xlink:href="#f2_1i" transform="matrix(11,0,0,11,247.3,1075.4)" />
<use xlink:href="#f2_z" transform="matrix(11,0,0,11,257.5,1075.4)" />
<use xlink:href="#f2_7" transform="matrix(11,0,0,11,270.2,1075.4)" />
<use xlink:href="#f2_6" transform="matrix(11,0,0,11,277.5,1075.4)" />
<use xlink:href="#f2_7" transform="matrix(11,0,0,11,283.2,1075.4)" />
<use xlink:href="#f2_4" transform="matrix(11,0,0,11,290.6,1075.4)" />
<use xlink:href="#f2_10" transform="matrix(11,0,0,11,301.3,1075.4)" />
<use xlink:href="#f2_4" transform="matrix(11,0,0,11,306.9,1075.4)" />
<use xlink:href="#f2_6" transform="matrix(11,0,0,11,313.5,1075.4)" />
<use xlink:href="#f2_e" transform="matrix(11,0,0,11,319,1075.4)" />
<use xlink:href="#f2_7" transform="matrix(11,0,0,11,326.4,1075.4)" />
<use xlink:href="#f2_b" transform="matrix(11,0,0,11,333.9,1075.4)" />
<use xlink:href="#f2_j" transform="matrix(11,0,0,11,338.5,1075.4)" />
<use xlink:href="#f2_v" transform="matrix(11,0,0,11,347.5,1075.4)" />
<use xlink:href="#f2_7" transform="matrix(11,0,0,11,355.9,1075.4)" />
<use xlink:href="#f2_6" transform="matrix(11,0,0,11,363.2,1075.4)" />
<use xlink:href="#f2_2" transform="matrix(11,0,0,11,368.8,1075.4)" />
<use xlink:href="#f2_e" transform="matrix(11,0,0,11,377.2,1075.4)" />
<use xlink:href="#f2_2" transform="matrix(11,0,0,11,384.7,1075.4)" />
<use xlink:href="#f2_1j" transform="matrix(11,0,0,11,393.1,1075.4)" />
<use xlink:href="#f2_1b" transform="matrix(11,0,0,11,137.7,1094.8)" />
<use xlink:href="#f2_3" transform="matrix(11,0,0,11,149.7,1094.8)" />
<use xlink:href="#f2_b" transform="matrix(11,0,0,11,154.4,1094.8)" />
<use xlink:href="#f2_e" transform="matrix(11,0,0,11,159.2,1094.8)" />
<use xlink:href="#f2_19" transform="matrix(11,0,0,11,166.5,1094.8)" />
<use xlink:href="#f2_1k" transform="matrix(11,0,0,11,211,1094.8)" />
<use xlink:href="#f2_j" transform="matrix(11,0,0,11,220.3,1094.8)" />
<use xlink:href="#f2_1g" transform="matrix(11,0,0,11,224.9,1094.8)" />
<use xlink:href="#f2_1l" transform="matrix(11,0,0,11,233.4,1094.8)" />
<use xlink:href="#f2_9" transform="matrix(11,0,0,11,245.5,1094.8)" />
<use xlink:href="#f2_4" transform="matrix(11,0,0,11,258,1094.8)" />
<use xlink:href="#f2_9" transform="matrix(11,0,0,11,264.6,1094.8)" />
<use xlink:href="#f2_1m" transform="matrix(11,0,0,11,273,1094.8)" />
<use xlink:href="#f2_2" transform="matrix(11,0,0,11,285.7,1094.8)" />
<use xlink:href="#f2_7" transform="matrix(11,0,0,11,294.1,1094.8)" />
<use xlink:href="#f2_10" transform="matrix(11,0,0,11,305.6,1094.8)" />
<use xlink:href="#f2_4" transform="matrix(11,0,0,11,311.3,1094.8)" />
<use xlink:href="#f2_6" transform="matrix(11,0,0,11,317.7,1094.8)" />
<use xlink:href="#f2_e" transform="matrix(11,0,0,11,323.3,1094.8)" />
<use xlink:href="#f2_7" transform="matrix(11,0,0,11,330.8,1094.8)" />
<use xlink:href="#f2_b" transform="matrix(11,0,0,11,338.2,1094.8)" />
<use xlink:href="#f2_1e" transform="matrix(11,0,0,11,342.8,1094.8)" />
<use xlink:href="#f2_1h" transform="matrix(11,0,0,11,351.4,1094.8)" />
<use xlink:href="#f2_1l" transform="matrix(11,0,0,11,358.8,1094.8)" />
<use xlink:href="#f2_8" transform="matrix(11,0,0,11,375,1094.8)" />
<use xlink:href="#f2_z" transform="matrix(11,0,0,11,379.7,1094.8)" />
<use xlink:href="#f2_2" transform="matrix(11,0,0,11,392.3,1094.8)" />
<use xlink:href="#f2_7" transform="matrix(11,0,0,11,400.7,1094.8)" />
<use xlink:href="#f2_2" transform="matrix(11,0,0,11,412.4,1094.8)" />
<use xlink:href="#f2_y" transform="matrix(11,0,0,11,420.8,1094.8)" />
<use xlink:href="#f2_i" transform="matrix(11,0,0,11,429.2,1094.8)" />
<use xlink:href="#f2_2" transform="matrix(11,0,0,11,437.6,1094.8)" />
<use xlink:href="#f2_7" transform="matrix(11,0,0,11,446,1094.8)" />
<use xlink:href="#f2_7" transform="matrix(11,0,0,11,457.6,1094.8)" />
<use xlink:href="#f2_6" transform="matrix(11,0,0,11,465,1094.8)" />
<use xlink:href="#f2_7" transform="matrix(11,0,0,11,470.5,1094.8)" />
<use xlink:href="#f2_4" transform="matrix(11,0,0,11,478,1094.8)" />
<use xlink:href="#f2_1j" transform="matrix(11,0,0,11,484.5,1094.8)" />
<use xlink:href="#f2_18" transform="matrix(11,0,0,11,137.7,1114.1)" />
<use xlink:href="#f2_c" transform="matrix(11,0,0,11,144.2,1114.1)" />
<use xlink:href="#f2_e" transform="matrix(11,0,0,11,152.6,1114.1)" />
<use xlink:href="#f2_i" transform="matrix(11,0,0,11,160.1,1114.1)" />
<use xlink:href="#f2_19" transform="matrix(11,0,0,11,168.5,1114.1)" />
<use xlink:href="#f2_1l" transform="matrix(11,0,0,11,211,1114.1)" />
<use xlink:href="#f2_9" transform="matrix(11,0,0,11,223.1,1114.1)" />
<use xlink:href="#f2_4" transform="matrix(11,0,0,11,235.7,1114.1)" />
<use xlink:href="#f2_9" transform="matrix(11,0,0,11,242.3,1114.1)" />
<use xlink:href="#f2_1m" transform="matrix(11,0,0,11,250.7,1114.1)" />
<use xlink:href="#f2_2" transform="matrix(11,0,0,11,263.2,1114.1)" />
<use xlink:href="#f2_7" transform="matrix(11,0,0,11,271.6,1114.1)" />
<use xlink:href="#f2_e" transform="matrix(11,0,0,11,283.2,1114.1)" />
<use xlink:href="#f2_17" transform="matrix(11,0,0,11,290.6,1114.1)" />
<use xlink:href="#f2_c" transform="matrix(11,0,0,11,299,1114.1)" />
<use xlink:href="#f2_j" transform="matrix(11,0,0,11,307.5,1114.1)" />
<use xlink:href="#f2_1g" transform="matrix(11,0,0,11,312,1114.1)" />
<use xlink:href="#f2_2" transform="matrix(11,0,0,11,320.6,1114.1)" />
<use xlink:href="#f2_7" transform="matrix(11,0,0,11,329,1114.1)" />
<use xlink:href="#f2_1n" transform="matrix(11,0,0,11,340.6,1114.1)" />
<use xlink:href="#f2_9" transform="matrix(11,0,0,11,351.7,1114.1)" />
<use xlink:href="#f2_b" transform="matrix(11,0,0,11,360.1,1114.1)" />
<use xlink:href="#f2_9" transform="matrix(11,0,0,11,364.8,1114.1)" />
<use xlink:href="#f2_d" transform="matrix(11,0,0,11,373.2,1114.1)" />
<use xlink:href="#f2_h" transform="matrix(11,0,0,11,386.4,1114.1)" />
<use xlink:href="#f2_3" transform="matrix(11,0,0,11,394.6,1114.1)" />
<use xlink:href="#f2_e" transform="matrix(11,0,0,11,399.3,1114.1)" />
<use xlink:href="#f2_1e" transform="matrix(11,0,0,11,406.8,1114.1)" />
<use xlink:href="#f2_1b" transform="matrix(11,0,0,11,137.7,1133.5)" />
<use xlink:href="#f2_3" transform="matrix(11,0,0,11,149.7,1133.5)" />
<use xlink:href="#f2_b" transform="matrix(11,0,0,11,154.4,1133.5)" />
<use xlink:href="#f2_e" transform="matrix(11,0,0,11,159.2,1133.5)" />
<use xlink:href="#f2_19" transform="matrix(11,0,0,11,166.5,1133.5)" />
<use xlink:href="#f2_1o" transform="matrix(11,0,0,11,211,1133.5)" />
<use xlink:href="#f2_3" transform="matrix(11,0,0,11,222.1,1133.5)" />
<use xlink:href="#f2_7" transform="matrix(11,0,0,11,226.9,1133.5)" />
<use xlink:href="#f2_i" transform="matrix(11,0,0,11,234.3,1133.5)" />
<use xlink:href="#f2_1g" transform="matrix(11,0,0,11,242.6,1133.5)" />
<use xlink:href="#f2_n" transform="matrix(11,0,0,11,251.1,1133.5)" />
<use xlink:href="#f2_e" transform="matrix(11,0,0,11,259.4,1133.5)" />
<use xlink:href="#f2_4" transform="matrix(11,0,0,11,266.8,1133.5)" />
<use xlink:href="#f2_8" transform="matrix(11,0,0,11,273.4,1133.5)" />
<use xlink:href="#f2_e" transform="matrix(11,0,0,11,278.1,1133.5)" />
<use xlink:href="#f2_b" transform="matrix(11,0,0,11,289.7,1133.5)" />
<use xlink:href="#f2_c" transform="matrix(11,0,0,11,294.4,1133.5)" />
<use xlink:href="#f2_7" transform="matrix(11,0,0,11,302.8,1133.5)" />
<use xlink:href="#f2_l" transform="matrix(11,0,0,11,310.3,1133.5)" />
<use xlink:href="#f2_9" transform="matrix(11,0,0,11,318.7,1133.5)" />
<use xlink:href="#f2_1e" transform="matrix(11,0,0,11,326.9,1133.5)" />
<use xlink:href="#f2_18" transform="matrix(11,0,0,11,137.7,1152.7)" />
<use xlink:href="#f2_c" transform="matrix(11,0,0,11,144.2,1152.7)" />
<use xlink:href="#f2_e" transform="matrix(11,0,0,11,152.6,1152.7)" />
<use xlink:href="#f2_i" transform="matrix(11,0,0,11,160.1,1152.7)" />
<use xlink:href="#f2_19" transform="matrix(11,0,0,11,168.5,1152.7)" />
<use xlink:href="#f2_1b" transform="matrix(11,0,0,11,211,1152.7)" />
<use xlink:href="#f2_e" transform="matrix(11,0,0,11,223.1,1152.7)" />
<use xlink:href="#f2_4" transform="matrix(11,0,0,11,230.5,1152.7)" />
<use xlink:href="#f2_8" transform="matrix(11,0,0,11,236.9,1152.7)" />
<use xlink:href="#f2_e" transform="matrix(11,0,0,11,241.7,1152.7)" />
<use xlink:href="#f2_b" transform="matrix(11,0,0,11,253.4,1152.7)" />
<use xlink:href="#f2_c" transform="matrix(11,0,0,11,258,1152.7)" />
<use xlink:href="#f2_7" transform="matrix(11,0,0,11,266.4,1152.7)" />
<use xlink:href="#f2_l" transform="matrix(11,0,0,11,273.8,1152.7)" />
<use xlink:href="#f2_9" transform="matrix(11,0,0,11,282.2,1152.7)" />
<use xlink:href="#f2_1e" transform="matrix(11,0,0,11,290.6,1152.7)" />
<use xlink:href="#f1_1l" transform="matrix(12,0,0,12,137.7,1208.5)" />
</g>
</g>
<image preserveAspectRatio="none" x="726" y="946" width="49" height="43" xlink:href="img/1.png" />
<image preserveAspectRatio="none" x="614" y="218" width="117" height="139" xlink:href="img/2.png" />
<image preserveAspectRatio="none" x="402" y="200" width="112" height="166" xlink:href="img/3.png" />
<image preserveAspectRatio="none" x="593" y="426" width="148" height="163" xlink:href="img/4.png" />
<image preserveAspectRatio="none" x="361" y="422" width="190" height="171" xlink:href="img/5.png" />
<image preserveAspectRatio="none" x="199" y="432" width="93" height="148" xlink:href="img/6.png" />
<image preserveAspectRatio="none" x="620" y="623" width="107" height="151" xlink:href="img/7.png" />
<image preserveAspectRatio="none" x="180" y="657" width="123" height="127" xlink:href="img/8.png" />
<image preserveAspectRatio="none" x="361" y="671" width="184" height="106" xlink:href="img/9.png" />
<image preserveAspectRatio="none" x="195" y="210" width="93" height="141" xlink:href="img/10.png" />
<defs>
<path d="M102,250V836H349V351L102,250Z" 
id="f0_a"
transform="scale(0.001,-0.001)" />

<path d="M173,-6C173,-6,61,-6,15,9V177c0,0,73,-10,82,-10c0,0,37,0,52,30c0,0,14,29,14,116V658H18V836H516c0,0,262,0,341,-145c0,0,48,-89,48,-242V0H658V450c0,0,0,131,-37,171c0,0,-34,37,-105,37H411V313c0,0,0,-189,-67,-258C344,55,285,-6,173,-6Z" 
id="f0_k"
transform="scale(0.001,-0.001)" />

<path d="M139,0V836H386V0Z" 
id="f0_d"
transform="scale(0.001,-0.001)" />

<path d="M143,0V355c0,0,0,103,26,191c0,0,26,88,79,112H66V836H546V658H484c0,0,-30,0,-50,-24c0,0,-20,-24,-29,-67c0,0,-9,-42,-12,-81c0,0,-3,-39,-3,-89V0Z" 
id="f0_13"
transform="scale(0.001,-0.001)" />

<path d="M139,0V836H512c0,0,219,0,309,-90c0,0,90,-90,90,-297V0H665V467c0,0,0,110,-31,150c0,0,-32,41,-120,41H385V0Z" 
id="f0_y"
transform="scale(0.001,-0.001)" />

<path d="M139,-366V836H386V-366Z" 
id="f0_14"
transform="scale(0.001,-0.001)" />

<path d="M534,0V425c0,0,0,109,-41,171c0,0,-41,62,-140,62H66V836H352c0,0,99,0,174,-20c0,0,75,-20,123,-55c0,0,48,-35,78,-87c0,0,30,-53,42,-113c0,0,12,-60,12,-136V0Z" 
id="f0_4"
transform="scale(0.001,-0.001)" />

<path d="M66,0V177H334c0,0,99,0,150,66c0,0,51,67,51,175c0,0,0,108,-51,175c0,0,-51,66,-150,66H66V836H334c0,0,92,0,168,-24c0,0,75,-24,127,-64c0,0,51,-40,86,-94c0,0,35,-54,51,-113c0,0,15,-60,15,-123c0,0,0,-63,-15,-123c0,0,-16,-59,-51,-113c0,0,-35,-54,-86,-94C629,88,577,48,502,24C502,24,426,0,334,0Z" 
id="f0_g"
transform="scale(0.001,-0.001)" />

<path d="M248,0L521,658H66v429H313V836l493,-1V716L504,0Z" 
id="f0_e"
transform="scale(0.001,-0.001)" />

<path d="M154,-13c0,0,-38,0,-85,9V198c0,0,58,-15,103,-15c0,0,84,0,118,60c0,0,35,61,35,206c0,0,0,66,-7,105c0,0,-6,39,-24,63c0,0,-17,25,-44,33c0,0,-27,8,-73,8H66V836H225c0,0,198,0,275,-115c0,0,56,-84,65,-264c0,0,3,-55,3,-148c0,0,0,-177,71,-309L393,1c0,0,-53,130,-54,141c0,0,-28,-90,-65,-123c0,0,-38,-32,-120,-32Z" 
id="f0_n"
transform="scale(0.001,-0.001)" />

<path d="M736,107V473c0,0,0,147,-48,202c0,0,-49,54,-187,54H278V107ZM139,0V836H499c0,0,105,0,177,-22c0,0,72,-21,116,-69c0,0,44,-49,64,-119c0,0,19,-71,19,-174V0Z" 
id="f1_2"
transform="scale(0.001,-0.001)" />

<path d="M102,312V836H241V369L102,312Z" 
id="f1_3"
transform="scale(0.001,-0.001)" />

<path d="M287,0L589,729H66v386H205V836l547,-1l-2,-82L433,0Z" 
id="f1_a"
transform="scale(0.001,-0.001)" />

<path d="M114,0l60,312c0,0,2,12,8,39c0,0,6,27,7,37c0,0,2,11,5,30c0,0,2,19,4,33c0,0,1,15,1,31c0,0,0,48,-35,146c0,0,-35,98,-98,208H228c0,0,3,-8,27,-67c0,0,25,-58,41,-117c0,0,21,53,50,90c0,0,29,37,57,57c0,0,29,21,65,32c0,0,37,11,65,14c0,0,28,3,67,3c0,0,300,0,300,-396V0H480V106H761V452c0,0,0,146,-46,215c0,0,-45,70,-118,70c0,0,-134,0,-198,-119c0,0,-36,-68,-67,-222c0,0,-2,-10,-6,-27L253,0Z" 
id="f1_b"
transform="scale(0.001,-0.001)" />

<path d="M154,0V454l138,56V0ZM722,0V454c0,0,0,161,-49,218c0,0,-48,57,-186,57H139V836H485c0,0,207,0,291,-93c0,0,83,-94,83,-318V0Z" 
id="f1_e"
transform="scale(0.001,-0.001)" />

<path d="M112,-5c0,0,-39,0,-97,11V113c0,0,48,-10,77,-10c0,0,53,0,70,42c0,0,17,43,17,164V729H50V836H501c0,0,107,0,179,-25c0,0,72,-25,112,-77c0,0,40,-51,57,-118c0,0,16,-67,16,-164V0H726V454c0,0,0,55,-3,92c0,0,-4,37,-17,75c0,0,-14,38,-38,59c0,0,-24,22,-65,36c0,0,-42,13,-102,13H318V309c0,0,0,-160,-46,-237C272,72,226,-5,112,-5Z" 
id="f1_i"
transform="scale(0.001,-0.001)" />

<path d="M139,0V138c0,0,0,61,8,112c0,0,7,52,19,87c0,0,11,36,30,66c0,0,19,31,35,49c0,0,17,19,41,35c0,0,25,17,41,25c0,0,17,7,40,17L141,836H303L613,388c0,0,20,10,33,18c0,0,13,8,34,28c0,0,20,20,33,44c0,0,13,25,22,66c0,0,10,41,10,92V836H882V698c0,0,0,-61,-7,-112c0,0,-6,-52,-18,-88c0,0,-12,-36,-30,-66c0,0,-19,-30,-36,-49c0,0,-17,-18,-41,-34c0,0,-24,-17,-40,-25c0,0,-17,-8,-41,-17L882,0H720L409,448c0,0,-21,-11,-34,-19c0,0,-13,-8,-34,-27c0,0,-21,-20,-34,-44c0,0,-12,-25,-22,-66c0,0,-9,-41,-9,-92V0Z" 
id="f1_j"
transform="scale(0.001,-0.001)" />

<path d="M585,0V426c0,0,0,54,-8,98c0,0,-8,44,-27,83c0,0,-19,40,-49,66c0,0,-30,26,-77,41c0,0,-47,15,-108,15H66V836H315c0,0,94,0,166,-20c0,0,71,-20,116,-54c0,0,46,-35,75,-88c0,0,28,-52,40,-112c0,0,12,-60,12,-137V0Z" 
id="f1_4"
transform="scale(0.001,-0.001)" />

<path d="M139,0V836H278V0Z" 
id="f1_6"
transform="scale(0.001,-0.001)" />

<path d="M66,0V106H322c0,0,75,0,127,23c0,0,53,23,82,67c0,0,29,43,42,98c0,0,13,54,13,124c0,0,0,70,-13,124c0,0,-13,55,-42,98c0,0,-29,44,-82,67c0,0,-52,23,-127,23H66V836H322c0,0,87,0,157,-24c0,0,70,-24,115,-64c0,0,45,-40,74,-94c0,0,30,-55,43,-113c0,0,13,-59,13,-123c0,0,0,-64,-13,-123c0,0,-13,-58,-43,-113c0,0,-29,-54,-74,-94C594,88,549,48,479,24C479,24,409,0,322,0Z" 
id="f1_5"
transform="scale(0.001,-0.001)" />

<path d="M152,0V473c0,0,0,94,28,161c0,0,29,66,71,95H66V836H463V729H404c0,0,-65,0,-89,-57c0,0,-25,-58,-25,-199V0Z" 
id="f1_7"
transform="scale(0.001,-0.001)" />

<path d="M522,92c0,0,247,0,247,333c0,0,0,88,-17,146c0,0,-17,58,-53,91c0,0,-35,33,-82,46c0,0,-48,14,-116,14H276V419c0,0,0,-327,246,-327Zm0,-112c0,0,-193,0,-289,109c0,0,-95,110,-95,337V836H501c0,0,213,0,309,-93c0,0,96,-94,96,-317c0,0,0,-227,-95,-337C811,89,715,-20,522,-20Z" 
id="f1_t"
transform="scale(0.001,-0.001)" />

<path d="M66,0V107H332V555c0,0,0,92,-37,133c0,0,-37,41,-116,41H85V836h94c0,0,153,0,223,-66c0,0,69,-66,69,-231V0Z" 
id="f1_n"
transform="scale(0.001,-0.001)" />

<path d="M66,0V106H564L66,836H228L516,413c0,0,3,2,9,6c0,0,17,13,27,21c0,0,10,8,26,27c0,0,17,20,26,40c0,0,9,21,16,54c0,0,7,34,7,75V836H764V698c0,0,0,-55,-7,-102c0,0,-7,-47,-16,-79c0,0,-10,-33,-27,-62c0,0,-18,-29,-32,-46c0,0,-14,-17,-37,-35c0,0,-22,-17,-36,-25c0,0,-13,-8,-36,-20L767,53V0Z" 
id="f1_h"
transform="scale(0.001,-0.001)" />

<path d="M66,0V107H554V452c0,0,0,56,-4,93c0,0,-4,37,-18,75c0,0,-14,38,-40,60c0,0,-26,22,-71,36c0,0,-45,13,-110,13H66V836H312c0,0,91,0,157,-17c0,0,66,-17,109,-49c0,0,44,-32,69,-84c0,0,26,-52,36,-114c0,0,10,-62,10,-147V107H817V0Z" 
id="f1_o"
transform="scale(0.001,-0.001)" />

<path d="M522,-20c0,0,-196,0,-290,99c0,0,-94,100,-94,324V836H276V397c0,0,0,-86,16,-147c0,0,17,-60,50,-94c0,0,34,-34,77,-49c0,0,43,-15,103,-15c0,0,59,0,102,15c0,0,44,15,77,49c0,0,33,34,50,94c0,0,17,61,17,147c0,0,0,84,-8,143c0,0,-7,58,-25,105c0,0,-17,47,-51,69c0,0,-33,23,-83,23c0,0,-50,0,-119,-22V821c0,0,85,23,150,23c0,0,76,0,130,-30c0,0,53,-31,85,-90c0,0,31,-59,45,-138c0,0,13,-78,13,-183c0,0,0,-224,-93,-324c0,0,-94,-99,-290,-99Z" 
id="f1_l"
transform="scale(0.001,-0.001)" />

<path d="M139,0V106H400c0,0,176,0,253,71c0,0,78,72,78,250c0,0,0,163,-80,233c0,0,-81,69,-250,69H278L277,564c0,0,-1,-54,26,-80c0,0,27,-25,82,-25c0,0,30,0,80,9V355c0,0,-61,-12,-111,-12c0,0,-100,0,-157,55c0,0,-58,55,-58,186V836H456c0,0,193,0,303,-109c0,0,110,-109,110,-309c0,0,0,-200,-110,-309C759,109,648,0,456,0Z" 
id="f1_f"
transform="scale(0.001,-0.001)" />

<path d="M382,45c0,0,188,0,188,314c0,0,0,143,-47,213c0,0,-46,69,-141,69c0,0,-87,0,-146,-24V58c0,0,67,-13,146,-13ZM25,-325v35l88,18V649L34,668v33H231l1,-41c0,0,31,27,84,43c0,0,53,17,107,17c0,0,134,0,208,-94c0,0,73,-93,73,-267c0,0,0,-178,-80,-276c0,0,-80,-97,-232,-97c0,0,-84,0,-160,16c0,0,4,-53,4,-84V-272l123,-18v-35Z" 
id="f2_a"
transform="scale(0.001,-0.001)" />

<path d="M284,67c0,0,51,0,88,12c0,0,37,11,74,29V357l-98,-3c0,0,-100,-3,-135,-38c0,0,-35,-36,-35,-118c0,0,0,-131,106,-131ZM233,-14c0,0,-179,0,-179,208c0,0,0,70,27,116c0,0,27,46,87,70c0,0,60,24,173,27l105,3V519c0,0,0,73,-26,107c0,0,-27,34,-82,34c0,0,-75,0,-137,-35L176,538H134V691c0,0,121,26,213,26c0,0,115,0,169,-47c0,0,54,-47,54,-144V52L657,34V0H465L451,70c0,0,-85,-84,-218,-84Zm22,849v24l146,203H560v-27L296,835Z" 
id="f2_f"
transform="scale(0.001,-0.001)" />

<path d="M64,-325c0,0,-46,0,-107,14v148H-8l19,-81c0,0,25,-21,62,-21c0,0,44,0,67,47c0,0,22,47,22,152V649L57,668v33H286V-28c0,0,0,-146,-57,-221c0,0,-56,-76,-165,-76ZM213,850c0,0,-34,0,-58,24c0,0,-24,24,-24,56c0,0,0,34,24,58c0,0,24,24,58,24c0,0,32,0,56,-24c0,0,24,-24,24,-58c0,0,0,-32,-24,-56c0,0,-24,-24,-56,-24Z" 
id="f2_x"
transform="scale(0.001,-0.001)" />

<path d="M284,67c0,0,51,0,88,12c0,0,37,12,74,30V358l-98,-3c0,0,-100,-4,-135,-39c0,0,-35,-35,-35,-117c0,0,0,-132,106,-132ZM233,-14c0,0,-179,0,-179,208c0,0,0,70,27,116c0,0,27,46,87,70c0,0,60,24,173,27l105,3V519c0,0,0,72,-26,107c0,0,-27,34,-82,34c0,0,-75,0,-137,-35L176,538H134V691c0,0,121,26,213,26c0,0,115,0,169,-47c0,0,54,-47,54,-144V52L657,33V0H465L451,70c0,0,-85,-84,-218,-84Z" 
id="f2_e"
transform="scale(0.001,-0.001)" />

<path d="M31,0V33l88,19V649L31,668v33H235l7,-87c0,0,44,37,121,71c0,0,76,35,121,35h11V530H463l-43,82c0,0,-37,0,-88,-10c0,0,-52,-10,-89,-26V52L363,33V0Z" 
id="f2_6"
transform="scale(0.001,-0.001)" />

<path d="M377,45c0,0,99,0,147,73c0,0,47,73,47,237c0,0,0,161,-47,233c0,0,-47,72,-147,72c0,0,-97,0,-141,-69c0,0,-44,-69,-44,-236c0,0,0,-169,45,-240c0,0,44,-70,140,-70Zm0,-59c0,0,-158,0,-238,94c0,0,-81,95,-81,274c0,0,0,178,81,272c0,0,80,94,244,94c0,0,160,0,241,-92c0,0,82,-92,82,-274c0,0,0,-368,-329,-368Z" 
id="f2_9"
transform="scale(0.001,-0.001)" />

<path d="M156,-317V454l139,56V-317ZM505,0L806,729H139V835H967V753L650,0Z" 
id="f1_r"
transform="scale(0.001,-0.001)" />

<path d="M376,50c0,0,103,0,149,80c0,0,46,81,46,240c0,0,0,137,-47,204c0,0,-48,67,-148,67c0,0,-44,0,-87,-7c0,0,-44,-8,-63,-17V62c0,0,63,-12,150,-12Zm3,-64c0,0,-64,0,-141,14c0,0,-78,14,-136,37v971L0,1026v34H226V809c0,0,0,-40,-4,-148c0,0,74,59,188,59c0,0,143,0,219,-87c0,0,77,-87,77,-263c0,0,0,-189,-84,-287c0,0,-84,-97,-243,-97Z" 
id="f2_h"
transform="scale(0.001,-0.001)" />

<path d="M495,413c0,0,0,133,-34,190c0,0,-34,57,-105,57c0,0,-78,0,-119,-63c0,0,-42,-62,-42,-184ZM374,-14c0,0,-163,0,-239,87c0,0,-75,88,-75,283c0,0,0,183,77,273c0,0,76,91,219,91c0,0,269,0,269,-306V353H194V340c0,0,0,-103,23,-160c0,0,22,-57,70,-87c0,0,47,-29,124,-29c0,0,40,0,96,6c0,0,55,7,91,15V43C598,43,562,20,500,3c0,0,-61,-17,-126,-17Z" 
id="f2_7"
transform="scale(0.001,-0.001)" />

<path d="M495,413c0,0,0,133,-34,190c0,0,-34,57,-105,57c0,0,-78,0,-119,-62c0,0,-42,-63,-42,-185ZM374,-14c0,0,-163,0,-239,87c0,0,-75,88,-75,283c0,0,0,183,77,274c0,0,76,90,219,90c0,0,269,0,269,-306V353H194V339c0,0,0,-103,23,-160c0,0,22,-57,70,-86c0,0,47,-30,124,-30c0,0,40,0,96,6c0,0,55,7,91,15V43C598,43,562,19,500,2c0,0,-61,-16,-126,-16ZM285,835v24l146,203H590v-27L326,835Z" 
id="f2_13"
transform="scale(0.001,-0.001)" />

<path d="M31,0V33L150,52v956L31,1026v34H274V52L394,33V0Z" 
id="f2_b"
transform="scale(0.001,-0.001)" />

<path d="M32,0V33L151,52V649L52,668v33H275V52L395,33V0ZM201,850c0,0,-32,0,-56,24c0,0,-24,24,-24,56c0,0,0,34,24,58c0,0,24,24,56,24c0,0,34,0,58,-24c0,0,24,-24,24,-58c0,0,0,-32,-24,-56c0,0,-24,-24,-58,-24Z" 
id="f2_3"
transform="scale(0.001,-0.001)" />

<path d="M139,0V836H485c0,0,206,0,290,-90c0,0,84,-89,84,-294V0H721V473c0,0,0,147,-49,202c0,0,-48,54,-186,54H277V0Z" 
id="f1_u"
transform="scale(0.001,-0.001)" />

<path d="M383,64c0,0,85,0,152,28V645c0,0,-67,13,-152,13c0,0,-194,0,-194,-314c0,0,0,-141,48,-211c0,0,48,-69,146,-69ZM342,-14c0,0,-287,0,-287,358c0,0,0,184,82,280c0,0,81,96,239,96c0,0,81,0,163,-18c0,0,-4,25,-4,124v182l-118,18v34H659V52L745,33V0H548l-9,52c0,0,-84,-66,-197,-66Z" 
id="f2_2"
transform="scale(0.001,-0.001)" />

<path d="M289,-14c0,0,-179,0,-179,205V649L20,668v33H233V200c0,0,0,-128,120,-128c0,0,92,0,173,23V649L420,668v33H649V52L738,33V0H533l-6,57C527,57,474,28,405,7c0,0,-69,-21,-116,-21Z" 
id="f2_c"
transform="scale(0.001,-0.001)" />

<path d="M399,-14c0,0,-341,0,-341,370c0,0,0,175,87,269c0,0,87,95,249,95c0,0,101,0,220,-23V501H573L541,625c0,0,-62,35,-149,35c0,0,-200,0,-200,-304c0,0,0,-158,61,-225c0,0,61,-67,189,-67c0,0,109,0,189,24V43C631,43,595,16,530,1c0,0,-64,-15,-131,-15Z" 
id="f2_5"
transform="scale(0.001,-0.001)" />

<path d="M442,0V33l93,19V504c0,0,0,129,-124,129c0,0,-70,0,-168,-22V52L338,33V0H31V33l88,19v956L15,1026v34H243V756c0,0,0,-77,-5,-112c0,0,54,31,122,53c0,0,68,23,115,23c0,0,91,0,137,-53c0,0,47,-53,47,-154V52L744,33V0Z" 
id="f2_n"
transform="scale(0.001,-0.001)" />

<path d="M360,-14L72,649L0,668v33H327V668L216,648L420,164L615,649L504,668v33H764V668L697,652L416,-14Z" 
id="f2_v"
transform="scale(0.001,-0.001)" />

<path d="M278,-14c0,0,-52,0,-115,11c0,0,-63,10,-99,23V193H98L134,95c0,0,56,-50,146,-50c0,0,144,0,144,123c0,0,0,91,-114,130l-66,21c0,0,-75,25,-110,50c0,0,-34,26,-53,63c0,0,-18,36,-18,89c0,0,0,92,63,145c0,0,63,54,170,54c0,0,77,0,193,-23V544H454l-32,81c0,0,-39,35,-124,35c0,0,-61,0,-92,-30c0,0,-32,-30,-32,-80c0,0,0,-43,29,-72c0,0,28,-29,86,-48c0,0,110,-38,144,-55c0,0,33,-17,57,-42c0,0,23,-25,36,-57c0,0,13,-32,13,-79c0,0,0,-104,-66,-158c0,0,-66,-53,-195,-53Z" 
id="f2_4"
transform="scale(0.001,-0.001)" />

<path d="M139,-317V836H278V-317Z" 
id="f1_q"
transform="scale(0.001,-0.001)" />

<path d="M71,-141V-15L289,62L66,836H210L416,109c0,0,99,42,153,98c0,0,53,56,80,155c0,0,26,98,26,262V836H817V624c0,0,0,-88,-7,-154c0,0,-7,-67,-25,-132c0,0,-18,-66,-51,-116c0,0,-33,-51,-84,-98c0,0,-50,-48,-123,-87c0,0,-72,-39,-169,-74L71,-141Z" 
id="f1_m"
transform="scale(0.001,-0.001)" />

<path d="M180,0L66,836H203L258,443c0,0,36,1,64,6c0,0,28,6,49,18c0,0,20,12,35,26c0,0,15,13,26,36c0,0,11,24,17,44c0,0,7,20,12,55c0,0,6,34,9,60c0,0,3,26,8,71c0,0,4,45,9,77H610c0,0,-13,-194,-31,-271c0,0,-31,-127,-111,-179c0,0,-71,-45,-196,-50L304,107c0,0,73,0,130,5c0,0,56,6,111,21c0,0,54,15,94,40c0,0,40,25,77,64c0,0,37,39,63,94c0,0,25,54,46,128c0,0,21,73,34,166c0,0,13,94,20,211h138c0,0,-14,-124,-29,-218c0,0,-16,-94,-39,-179c0,0,-22,-85,-50,-146c0,0,-28,-61,-68,-112c0,0,-39,-51,-87,-84C744,97,696,65,632,42C632,42,568,19,492,10C492,10,417,0,320,0Z" 
id="f1_c"
transform="scale(0.001,-0.001)" />

<path d="M439,0V33l93,19V500c0,0,0,62,-30,97c0,0,-31,36,-94,36c0,0,-67,0,-165,-22V52L338,33V0H35V33l84,19V649L35,668v33H235l7,-57c0,0,57,33,122,54c0,0,65,22,108,22c0,0,91,0,137,-53c0,0,47,-53,47,-154V52L741,33V0Z" 
id="f2_i"
transform="scale(0.001,-0.001)" />

<path d="M137,0L30,830H277L321,522c0,0,68,3,96,27c0,0,27,23,38,58c0,0,26,74,31,228H733c0,0,-31,-218,-70,-316c0,0,-23,-59,-88,-100c0,0,-54,-34,-116,-42c0,0,-62,-8,-117,-8L362,178c0,0,27,-1,61,-1c40,0,89,1,119,6c0,0,57,8,94,25c0,0,37,18,69,47c0,0,32,30,60,79c0,0,28,48,51,117c0,0,48,143,82,384h248c0,0,-53,-404,-172,-586C974,249,879,103,745,51C745,51,613,0,318,0Z" 
id="f0_8"
transform="scale(0.001,-0.001)" />

<path d="M150,-366V437L396,539V-366ZM499,0L727,658H139V835h870V716L754,0Z" 
id="f0_3"
transform="scale(0.001,-0.001)" />

<path d="M153,0V437L399,539V0ZM664,0V450c0,0,0,122,-31,165c0,0,-31,43,-121,43H138V836H511c0,0,113,0,188,-22c0,0,75,-23,123,-73c0,0,47,-51,68,-127c0,0,20,-76,20,-189V0Z" 
id="f0_7"
transform="scale(0.001,-0.001)" />

<path d="M129,0l69,362c0,0,10,56,12,100c0,0,0,84,-27,159c0,0,-27,76,-117,215H322c0,0,9,-6,31,-79c0,0,23,-72,23,-105c0,0,23,82,100,138c0,0,77,57,160,57c0,0,332,0,332,-397V0H538V177H721V449c0,0,0,124,-20,170c0,0,-20,47,-82,47c0,0,-23,0,-43,-9c0,0,-19,-10,-34,-23c0,0,-14,-14,-27,-39c0,0,-13,-25,-22,-46c0,0,-8,-22,-17,-57c0,0,-9,-36,-15,-61c0,0,-5,-24,-13,-65L375,0Z" 
id="f0_c"
transform="scale(0.001,-0.001)" />

<path d="M66,0V178H307V510c0,0,0,100,-31,124c0,0,-30,24,-79,24H83V836H197c0,0,215,0,286,-85c0,0,71,-85,71,-224V0Z" 
id="f0_p"
transform="scale(0.001,-0.001)" />

<path d="M66,0V178H507V449c0,0,0,43,-2,71c0,0,-3,28,-12,56c0,0,-9,28,-26,45c0,0,-17,16,-47,27c0,0,-29,10,-72,10H66V836H349c0,0,97,0,167,-17c0,0,71,-17,117,-49c0,0,46,-32,73,-84c0,0,27,-52,38,-114c0,0,11,-62,11,-147V178H866V0Z" 
id="f0_q"
transform="scale(0.001,-0.001)" />

<path d="M543,-317V369c0,0,0,85,-8,143c0,0,-8,58,-27,101c0,0,-18,44,-51,69c0,0,-33,24,-80,36c0,0,-48,11,-117,11H66V836H257c0,0,125,0,205,-23c0,0,80,-23,130,-79c0,0,50,-56,70,-143c0,0,20,-86,20,-222V-317Z" 
id="f1_p"
transform="scale(0.001,-0.001)" />

<path d="M117,-176L179,62V190H336V62L213,-176Z" 
id="f1_9"
transform="scale(0.001,-0.001)" />

<path d="M163,0V190H321V0Z" 
id="f1_k"
transform="scale(0.001,-0.001)" />

<path d="M354,-200c0,0,-112,175,-167,343c0,0,-56,170,-56,337c0,0,0,166,55,335c0,0,55,169,168,345H473c0,0,-100,-172,-148,-340c0,0,-48,-168,-48,-340c0,0,0,-173,48,-342c0,0,49,-168,148,-338Z" 
id="f1_12"
transform="scale(0.001,-0.001)" />

<path d="M122,-200c0,0,99,170,148,338c0,0,49,169,49,342c0,0,0,172,-49,340c0,0,-49,168,-148,340H241c0,0,112,-176,168,-345c0,0,55,-169,55,-335c0,0,0,-167,-55,-337c0,0,-56,-168,-168,-343Z" 
id="f1_11"
transform="scale(0.001,-0.001)" />

<path d="M142,-304l69,686h86l69,-686ZM254,469c0,0,-52,0,-88,36c0,0,-36,36,-36,88c0,0,0,51,36,88c0,0,35,36,88,36c0,0,51,0,87,-36c0,0,36,-36,36,-88c0,0,0,-51,-35,-88c0,0,-36,-36,-88,-36Z" 
id="f3_19"
transform="scale(0.001,-0.001)" />

<path d="M26,0V55L154,74V926L26,946v54H518V946L389,926V555H798V926L670,946v54h493V946L1034,926V74L1163,55V0H670V55L798,74V473H389V74L518,55V0Z" 
id="f3_1a"
transform="scale(0.001,-0.001)" />

<path d="M379,60c0,0,59,0,84,64c0,0,24,65,24,231c0,0,0,164,-24,227c0,0,-24,63,-84,63c0,0,-57,0,-80,-60c0,0,-22,-61,-22,-230c0,0,0,-173,23,-234c0,0,22,-61,79,-61Zm-2,-74c0,0,-161,0,-240,91c0,0,-79,91,-79,277c0,0,0,186,80,276c0,0,81,90,245,90c0,0,167,0,245,-93c0,0,78,-93,78,-273c0,0,0,-188,-81,-278c0,0,-81,-90,-248,-90Z" 
id="f3_x"
transform="scale(0.001,-0.001)" />

<path d="M30,0V49l76,18V992l-72,18v50H322V67L398,49V0Z" 
id="f3_r"
transform="scale(0.001,-0.001)" />

<path d="M345,75c0,0,50,0,110,26V351l-63,-2c0,0,-72,-3,-100,-38c0,0,-28,-35,-28,-113c0,0,0,-63,22,-93c0,0,23,-30,59,-30ZM266,-14c0,0,-217,0,-217,208c0,0,0,79,32,126c0,0,32,48,93,71c0,0,60,22,190,25l91,2V521c0,0,0,126,-104,126c0,0,-62,0,-140,-39L183,521H134V691c0,0,112,17,165,21c0,0,53,5,108,5c0,0,264,0,264,-194V67L741,49V0H483L466,54C466,54,408,14,361,0c0,0,-47,-14,-95,-14Z" 
id="f3_13"
transform="scale(0.001,-0.001)" />

<path d="M254,-20c0,0,-52,0,-88,34c0,0,-36,36,-36,88c0,0,0,52,36,88c0,0,35,36,88,36c0,0,51,0,87,-36c0,0,36,-36,36,-88c0,0,0,-51,-35,-87c0,0,-36,-35,-88,-35ZM210,313l-68,687H365L296,313Z" 
id="f3_1b"
transform="scale(0.001,-0.001)" />

<path d="M186,-14c0,0,-95,0,-154,22V190H81L104,86c0,0,14,-17,40,-26c0,0,26,-10,57,-10c0,0,105,0,105,141V941L178,960v40H562V960L449,941V322c0,0,0,-100,-30,-175c0,0,-31,-74,-93,-118c0,0,-63,-43,-140,-43Z" 
id="f2_18"
transform="scale(0.001,-0.001)" />

<path d="M211,-20c0,0,-39,0,-64,25c0,0,-26,27,-26,64c0,0,0,38,26,64c0,0,26,26,64,26c0,0,37,0,64,-25c0,0,26,-26,26,-65c0,0,0,-37,-26,-64c0,0,-26,-25,-64,-25Zm0,556c0,0,-38,0,-64,26c0,0,-26,26,-26,64c0,0,0,37,26,64c0,0,25,27,64,27c0,0,38,0,64,-27c0,0,26,-27,26,-64c0,0,0,-38,-26,-64c0,0,-27,-26,-64,-26Z" 
id="f2_19"
transform="scale(0.001,-0.001)" />

<path d="M172,-305l47,710h70l46,-710Zm82,841c0,0,-38,0,-65,26c0,0,-26,26,-26,64c0,0,0,37,26,64c0,0,26,27,65,27c0,0,38,0,64,-27c0,0,26,-27,26,-64c0,0,0,-38,-26,-64c0,0,-26,-26,-64,-26Z" 
id="f2_1a"
transform="scale(0.001,-0.001)" />

<path d="M44,0V40L172,60V941L44,960v40H445V960L316,941V549H787V941L659,960v40h400V960L930,941V60L1059,40V0H659V40L787,60V481H316V60L445,40V0Z" 
id="f2_1b"
transform="scale(0.001,-0.001)" />

<path d="M254,-20c0,0,-39,0,-65,25c0,0,-26,27,-26,64c0,0,0,38,26,64c0,0,27,26,65,26c0,0,38,0,64,-26c0,0,26,-26,26,-64c0,0,0,-37,-26,-64c0,0,-26,-25,-64,-25ZM219,290l-47,710H335L289,290Z" 
id="f2_1c"
transform="scale(0.001,-0.001)" />

<path d="M617,0L251,860V60L385,40V0H44V40L172,60V941L44,960v40H347L672,239l355,761h287V960L1185,941V60L1314,40V0H908V40l134,20V859L643,0Z" 
id="f2_1d"
transform="scale(0.001,-0.001)" />

<path d="M431,0V33L535,52V499c0,0,0,62,-32,96c0,0,-32,33,-95,33c0,0,-66,0,-163,-22V52L350,33V0H32V33l89,19V649L32,668v33H237l6,-57c0,0,56,32,119,54c0,0,62,22,110,22c0,0,52,0,95,-20c0,0,44,-19,66,-62c0,0,57,32,134,57c0,0,77,25,128,25c0,0,179,0,179,-207V52l90,-19V0H846V33L950,52V499c0,0,0,129,-119,129c0,0,-19,0,-45,-3c0,0,-26,-3,-52,-7c0,0,-25,-4,-49,-8c0,0,-23,-5,-39,-8c0,0,13,-41,13,-89V52L764,33V0Z" 
id="f2_d"
transform="scale(0.001,-0.001)" />

<path d="M191,-20c0,0,-39,0,-65,25c0,0,-25,27,-25,64c0,0,0,38,26,64c0,0,26,26,64,26c0,0,38,0,64,-26c0,0,26,-26,26,-64c0,0,0,-37,-25,-64c0,0,-26,-25,-65,-25Z" 
id="f2_1e"
transform="scale(0.001,-0.001)" />

<path d="M359,-270c0,0,124,0,192,46c0,0,67,47,67,129c0,0,0,43,-26,67c0,0,-26,24,-79,24H242c0,0,-32,-27,-51,-69c0,0,-20,-41,-20,-77c0,0,0,-64,46,-92c0,0,46,-28,142,-28Zm11,561c0,0,81,0,115,47c0,0,34,47,34,141c0,0,0,100,-35,142c0,0,-35,42,-113,42c0,0,-78,0,-114,-43c0,0,-37,-42,-37,-141c0,0,0,-98,36,-143c0,0,36,-45,114,-45ZM359,-329c0,0,-143,0,-218,44c0,0,-75,43,-75,125c0,0,0,39,27,78c0,0,26,38,98,89c0,0,-43,14,-72,48c0,0,-29,35,-29,74L208,262c0,0,-118,55,-118,217c0,0,0,115,73,178c0,0,73,63,211,63c0,0,28,0,71,-6c0,0,44,-6,67,-13l165,83l26,-32L599,644c0,0,50,-56,50,-165c0,0,0,-120,-72,-182c0,0,-73,-62,-208,-62c0,0,-62,0,-114,11L208,148c0,0,2,-13,29,-24c0,0,27,-12,67,-12H512c0,0,113,0,168,-49c0,0,55,-49,55,-134c0,0,0,-79,-44,-137c0,0,-43,-58,-128,-90c0,0,-84,-31,-204,-31Z" 
id="f2_l"
transform="scale(0.001,-0.001)" />

<path d="M249,-14c0,0,-71,0,-107,42c0,0,-35,42,-35,119V639H15v33l93,29l76,159h47V701H391V639H231V161c0,0,0,-48,22,-73c0,0,22,-24,57,-24c0,0,44,0,106,12V26C416,26,389,8,340,-2c0,0,-49,-12,-91,-12Z" 
id="f2_8"
transform="scale(0.001,-0.001)" />

<path d="M681,416L504,902L333,416ZM669,0V40L803,60L704,348H310L210,60L344,40V0H15V40L128,60l341,949H611L965,60L1092,40V0Z" 
id="f2_1f"
transform="scale(0.001,-0.001)" />

<path d="M58,-234v58c0,0,131,42,131,125c0,0,0,15,-11,27c0,0,-11,12,-38,25C140,1,89,27,89,75c0,0,0,40,25,61c0,0,26,21,65,21c0,0,48,0,77,-34c0,0,30,-34,30,-86c0,0,0,-101,-60,-170c0,0,-59,-69,-168,-101Z" 
id="f2_1g"
transform="scale(0.001,-0.001)" />

<path d="M379,-315c0,0,-316,0,-316,253c0,0,0,119,60,194c0,0,60,74,175,98l43,10l9,193h60L429,185L322,163c0,0,-64,-12,-93,-65c0,0,-29,-52,-29,-151c0,0,0,-110,40,-155c0,0,40,-44,139,-44c0,0,84,0,145,36l26,123h49V-283c0,0,-110,-32,-220,-32Zm-6,851c0,0,-38,0,-64,26c0,0,-26,26,-26,64c0,0,0,37,25,64c0,0,26,27,65,27c0,0,37,0,64,-27c0,0,26,-26,26,-64c0,0,0,-39,-27,-64c0,0,-26,-26,-63,-26Z" 
id="f2_1h"
transform="scale(0.001,-0.001)" />

<path d="M235,0V40L394,60V936H356c0,0,-189,0,-258,-15L78,766H28v234H908V766H857L837,921c0,0,-22,5,-98,9c0,0,-75,4,-165,4H538V60L697,40V0Z" 
id="f2_1i"
transform="scale(0.001,-0.001)" />

<path d="M289,-14c0,0,-179,0,-179,205V649L20,668v33H233V200c0,0,0,-128,120,-128c0,0,92,0,173,23V649L420,668v33H649V52L738,34V0H533l-6,57C527,57,474,28,405,6c0,0,-69,-20,-116,-20Zm24,849v24l147,203H618v-27L354,835Z" 
id="f2_z"
transform="scale(0.001,-0.001)" />

<path d="M55,0V40L184,60V941L55,960v40H455V960L327,941V60L455,40V0Z" 
id="f2_10"
transform="scale(0.001,-0.001)" />

<path d="M32,0V34L151,52V649L52,668v33H275V52L395,34V0Zm71,835v24l146,203H408v-27L144,835Z" 
id="f2_j"
transform="scale(0.001,-0.001)" />

<path d="M306,-20c0,0,-39,0,-65,25c0,0,-25,27,-25,64c0,0,0,38,26,64c0,0,26,26,64,26c0,0,37,0,63,-25c0,0,26,-26,26,-65c0,0,0,-37,-25,-64c0,0,-26,-25,-64,-25ZM269,261L249,510l107,22c0,0,64,13,93,65c0,0,29,52,29,152c0,0,0,109,-39,154c0,0,-40,45,-140,45c0,0,-83,0,-145,-36L128,789H79V979c0,0,118,32,220,32c0,0,316,0,316,-253c0,0,0,-121,-60,-195c0,0,-60,-74,-175,-98l-42,-9L328,261Z" 
id="f2_1j"
transform="scale(0.001,-0.001)" />

<path d="M410,-14c0,0,-80,0,-162,14c0,0,-81,14,-144,38V270h48L178,134c0,0,28,-35,95,-62c0,0,68,-27,134,-27c0,0,104,0,163,53c0,0,58,54,58,148c0,0,0,54,-23,89c0,0,-22,35,-59,59c0,0,-37,24,-84,41c0,0,-47,17,-97,34c0,0,-49,17,-96,38c0,0,-47,21,-84,53c0,0,-37,32,-60,79c0,0,-23,48,-23,117c0,0,0,119,90,187c0,0,89,68,248,68c0,0,121,0,263,-32V771H654L628,893c0,0,-76,55,-188,55c0,0,-100,0,-156,-40c0,0,-56,-41,-56,-112c0,0,0,-49,22,-81c0,0,23,-32,60,-55c0,0,37,-22,84,-39c0,0,48,-16,97,-34c0,0,50,-17,97,-39c0,0,48,-22,85,-56c0,0,36,-34,59,-83c0,0,23,-49,23,-120c0,0,0,-145,-89,-224c0,0,-89,-79,-256,-79Z" 
id="f2_1k"
transform="scale(0.001,-0.001)" />

<path d="M322,0V40L481,60V389L130,941L17,960v40H440V960L306,941L593,480L866,941L739,960v40h326V960L955,941L625,394V60L784,40V0Z" 
id="f2_1l"
transform="scale(0.001,-0.001)" />

<path d="M148,-329c0,0,-58,0,-114,13v151H69l24,-71c0,0,23,-17,64,-17c0,0,39,0,72,22c0,0,33,23,60,67c0,0,27,44,68,157L90,649L19,668v33H344V668L233,648L423,158L606,649L497,668v33H758V668L685,652L411,-43c0,0,-48,-124,-84,-177c0,0,-36,-54,-79,-82c0,0,-44,-27,-100,-27Z" 
id="f2_1m"
transform="scale(0.001,-0.001)" />

<path d="M377,44c0,0,99,0,147,73c0,0,47,73,47,237c0,0,0,161,-47,234c0,0,-47,72,-147,72c0,0,-97,0,-141,-69c0,0,-44,-70,-44,-237c0,0,0,-169,45,-239c0,0,44,-71,140,-71Zm0,-58c0,0,-158,0,-238,94c0,0,-81,95,-81,274c0,0,0,178,81,272c0,0,80,94,244,94c0,0,160,0,241,-92c0,0,82,-92,82,-274c0,0,0,-368,-329,-368ZM301,835v24l147,203H606v-27L342,835Z" 
id="f2_y"
transform="scale(0.001,-0.001)" />

<path d="M383,64c0,0,44,0,87,7c0,0,43,7,65,17V645c0,0,-67,13,-152,13c0,0,-194,0,-194,-309c0,0,0,-143,48,-214c0,0,47,-71,146,-71Zm56,-389v35l96,18V-77c0,0,0,73,7,124c0,0,-79,-61,-200,-61c0,0,-287,0,-287,362c0,0,0,180,81,276c0,0,81,96,237,96c0,0,84,0,166,-18l67,33h53V-272l77,-18v-35Z" 
id="f2_17"
transform="scale(0.001,-0.001)" />

<path d="M577,-14c0,0,-243,0,-379,132C198,118,63,250,63,488c0,0,0,258,130,391c0,0,131,132,387,132c0,0,156,0,335,-38l5,-218H871L848,884c0,0,-52,32,-121,50c0,0,-69,17,-141,17c0,0,-191,0,-279,-112c0,0,-88,-113,-88,-349c0,0,0,-217,92,-332c0,0,92,-115,268,-115c0,0,85,0,160,20c0,0,76,21,120,55l27,149h49L930,32c0,0,-164,-46,-353,-46Z" 
id="f2_1n"
transform="scale(0.001,-0.001)" />

<path d="M536,63c0,0,127,0,191,54c0,0,63,54,63,168c0,0,0,105,-70,154c0,0,-70,49,-225,49H316V67c0,0,103,-4,220,-4ZM480,555c0,0,121,0,178,48c0,0,57,48,57,155c0,0,0,91,-58,133c0,0,-57,42,-186,42H316V555ZM554,-4L235,0H44V40L172,60V941L44,960v40H501c0,0,191,0,279,-56c0,0,88,-56,88,-179c0,0,0,-88,-55,-149c0,0,-54,-62,-151,-83c0,0,135,-14,209,-79c0,0,73,-65,73,-166c0,0,0,-144,-99,-219C845,69,745,-4,554,-4Z" 
id="f2_1o"
transform="scale(0.001,-0.001)" />

<path d="M486,98c0,0,107,0,169,58c0,0,62,57,62,157c0,0,0,101,-62,159c0,0,-61,57,-169,57c0,0,-108,0,-169,-57c0,0,-62,-58,-62,-159c0,0,0,-100,62,-158c0,0,61,-57,169,-57Zm-1,549c0,0,97,0,152,49c0,0,54,48,54,135c0,0,0,87,-54,135c0,0,-55,49,-152,49c0,0,-97,0,-151,-49c0,0,-54,-48,-54,-135c0,0,0,-87,54,-135c0,0,54,-49,151,-49Zm0,-667c0,0,-184,0,-283,85c0,0,-98,86,-98,248c0,0,0,107,61,181c0,0,61,74,170,99c0,0,-97,24,-151,90c0,0,-54,67,-54,162c0,0,0,134,95,212c0,0,95,77,260,77c0,0,167,0,261,-77c0,0,95,-78,95,-212c0,0,0,-95,-54,-162c0,0,-54,-66,-151,-90c0,0,109,-25,170,-99c0,0,61,-74,61,-181c0,0,0,-162,-99,-248c0,0,-98,-85,-283,-85Z" 
id="f1_1l"
transform="scale(0.001,-0.001)" />


</defs>
</svg>