<?xml version="1.0" encoding="UTF-8" standalone="no"?>
<!DOCTYPE svg PUBLIC "-//W3C//DTD SVG 1.1//EN"
"http://www.w3.org/Graphics/SVG/1.1/DTD/svg11.dtd">
<svg viewBox="0 0 909 1286" version="1.1" xmlns="http://www.w3.org/2000/svg" xmlns:xlink="http://www.w3.org/1999/xlink">
<defs>
<style type="text/css"><![CDATA[
.g0_12{
fill: none;
stroke: #000000;
stroke-width: 0.7638889;
stroke-linecap: butt;
stroke-linejoin: round;
}
.g1_12{
fill: none;
stroke: #0000FF;
stroke-width: 1.0694444;
stroke-linecap: butt;
stroke-linejoin: miter;
}
]]></style>
</defs>
<path d="M120.6,110.4H772.4M120.6,132.5H772.4M120.6,154.7H772.4M120.6,176.8H772.4M120.6,199H772.4M120.6,221.1H772.4M121,110V221.5M446.6,110V221.5M772,110V221.5" class="g0_12" />
<path d="M669.8,259.7H772.1" class="g1_12" />
<path d="M540.5,344H772.4M540.5,366.1H772.4M540.5,388.3H772.4M540.5,410.4H772.4M540.5,432.6H772.4M540.5,454.7H772.4M540.5,476.9H772.4M540.5,499H772.4M540.5,521.2H772.4M540.5,543.4H772.4M540.5,565.5H772.4M540.5,587.7H772.4M540.5,609.8H772.4M540.5,632H772.4M540.5,654.1H772.4M540.5,676.3H772.4M540.5,698.4H772.4M540.8,343.6V698.8M649,343.6V698.8M772,343.6V698.8" class="g0_12" />
<path d="M669.8,737H772.1" class="g1_12" />
<path d="M128.6,821.3h572m-572,20.1h572m-572,20h572m-572,20.2h572m-572,20h572m-572,20.2h572m-572,20h572M128.6,962h572m-572,20h572M128.9,820.9V982.4M700.2,820.9V982.4" class="g0_12" />
<path d="M669.8,1020.6H772.1" class="g1_12" />
<image preserveAspectRatio="none" x="738" y="1068" width="62" height="54" xlink:href="img/1.png" />
</svg>