<?xml version="1.0" encoding="UTF-8" standalone="no"?>
<!DOCTYPE svg PUBLIC "-//W3C//DTD SVG 1.1//EN"
"http://www.w3.org/Graphics/SVG/1.1/DTD/svg11.dtd">
<svg viewBox="0 0 909 1286" version="1.1" xmlns="http://www.w3.org/2000/svg" xmlns:xlink="http://www.w3.org/1999/xlink">
<defs>
<clipPath id="c0_6"><path d="M0,1286.2V0H909.4V1286.2Z" /></clipPath>
<style type="text/css"><![CDATA[
.g0_6{
fill: #D8D8D8;
}
.g1_6{
fill: none;
stroke: #000000;
stroke-width: 0.7638889;
stroke-linecap: butt;
stroke-linejoin: round;
}
]]></style>
</defs>
<path fill-rule="evenodd" d="M120.7,130.1h93V110h-93v20.1Z" class="g0_6" />
<path fill-rule="evenodd" d="M120.7,150.1h93V130.2h-93v19.9Z" class="g0_6" />
<path fill-rule="evenodd" d="M120.7,170.3h93V150.2h-93v20.1Z" class="g0_6" />
<path fill-rule="evenodd" d="M688.1,333.6h83.8V272.9H688.1v60.7Z" class="g0_6" />
<path fill-rule="evenodd" d="M557.8,333.6H688V272.9H557.8v60.7Z" class="g0_6" />
<path fill-rule="evenodd" d="M427.8,333.6H557.7V272.9H427.8v60.7Z" class="g0_6" />
<path fill-rule="evenodd" d="M319.6,333.6H427.7V272.9H319.6v60.7Z" class="g0_6" />
<path fill-rule="evenodd" d="M211.3,333.6H319.5V272.9H211.3v60.7Z" class="g0_6" />
<path fill-rule="evenodd" d="M120.8,333.6h90.4V272.9H120.8v60.7Z" class="g0_6" />
<path fill-rule="evenodd" d="M688.1,355.7h83.8v-22H688.1v22Z" class="g0_6" />
<path fill-rule="evenodd" d="M688.1,377.9h83.8V355.8H688.1v22.1Z" class="g0_6" />
<path fill-rule="evenodd" d="M688.1,397.9h83.8V378H688.1v19.9Z" class="g0_6" />
<path fill-rule="evenodd" d="M688.1,418.1h83.8V398H688.1v20.1Z" class="g0_6" />
<path fill-rule="evenodd" d="M620.4,589.5H771.9V546H620.4v43.5Z" class="g0_6" />
<path fill-rule="evenodd" d="M479.7,589.5H620.4V546H479.7v43.5Z" class="g0_6" />
<path fill-rule="evenodd" d="M367.6,589.5h112V546h-112v43.5Z" class="g0_6" />
<path fill-rule="evenodd" d="M620.4,609.7H771.9V589.6H620.4v20.1Z" class="g0_6" />
<path fill-rule="evenodd" d="M620.4,629.7H771.9v-20H620.4v20Z" class="g0_6" />
<path fill-rule="evenodd" d="M620.4,649.8H771.9v-20H620.4v20Z" class="g0_6" />
<path fill-rule="evenodd" d="M620.4,669.9H771.9v-20H620.4v20Z" class="g0_6" />
<path fill-rule="evenodd" d="M620.4,690H771.9V669.9H620.4V690Z" class="g0_6" />
<path fill-rule="evenodd" d="M620.4,710H771.9V690.1H620.4V710Z" class="g0_6" />
<path fill-rule="evenodd" d="M620.4,730.2H771.9V710.1H620.4v20.1Z" class="g0_6" />
<path fill-rule="evenodd" d="M120.7,130.1h93V110h-93v20.1Z" class="g0_6" />
<path fill-rule="evenodd" d="M120.7,150.1h93V130.2h-93v19.9Z" class="g0_6" />
<path fill-rule="evenodd" d="M120.7,170.3h93V150.2h-93v20.1Z" class="g0_6" />
<path fill-rule="evenodd" d="M688.1,333.6h83.8V272.9H688.1v60.7Z" class="g0_6" />
<path fill-rule="evenodd" d="M557.8,333.6H688V272.9H557.8v60.7Z" class="g0_6" />
<path fill-rule="evenodd" d="M427.8,333.6H557.7V272.9H427.8v60.7Z" class="g0_6" />
<path fill-rule="evenodd" d="M319.6,333.6H427.7V272.9H319.6v60.7Z" class="g0_6" />
<path fill-rule="evenodd" d="M211.3,333.6H319.5V272.9H211.3v60.7Z" class="g0_6" />
<path fill-rule="evenodd" d="M120.8,333.6h90.4V272.9H120.8v60.7Z" class="g0_6" />
<path fill-rule="evenodd" d="M688.1,355.7h83.8v-22H688.1v22Z" class="g0_6" />
<path fill-rule="evenodd" d="M688.1,377.9h83.8V355.8H688.1v22.1Z" class="g0_6" />
<path fill-rule="evenodd" d="M688.1,397.9h83.8V378H688.1v19.9Z" class="g0_6" />
<path fill-rule="evenodd" d="M688.1,418.1h83.8V398H688.1v20.1Z" class="g0_6" />
<path fill-rule="evenodd" d="M620.4,589.5H771.9V546H620.4v43.5Z" class="g0_6" />
<path fill-rule="evenodd" d="M479.7,589.5H620.4V546H479.7v43.5Z" class="g0_6" />
<path fill-rule="evenodd" d="M367.6,589.5h112V546h-112v43.5Z" class="g0_6" />
<path fill-rule="evenodd" d="M620.4,609.7H771.9V589.6H620.4v20.1Z" class="g0_6" />
<path fill-rule="evenodd" d="M620.4,629.7H771.9v-20H620.4v20Z" class="g0_6" />
<path fill-rule="evenodd" d="M620.4,649.8H771.9v-20H620.4v20Z" class="g0_6" />
<path fill-rule="evenodd" d="M620.4,669.9H771.9v-20H620.4v20Z" class="g0_6" />
<path fill-rule="evenodd" d="M620.4,690H771.9V669.9H620.4V690Z" class="g0_6" />
<path fill-rule="evenodd" d="M620.4,710H771.9V690.1H620.4V710Z" class="g0_6" />
<path fill-rule="evenodd" d="M620.4,730.2H771.9V710.1H620.4v20.1Z" class="g0_6" />
<path d="M120.3,110.4H772.4M120.3,130.5H772.4M120.3,150.6H772.4M120.3,170.7H772.4M120.7,110v61.1m93,-61.1v61.1M306.8,110v61.1M400,110v61.1M493,110v61.1M586.1,110v61.1m93,-61.1v61.1M772,110v61.1" class="g1_6" />
<g clip-path="url(#c0_6)">
<g fill="#000000" >
<use xlink:href="#f0_5" transform="matrix(11,0,0,11,129.6,126.5)" />
<use xlink:href="#f0_x" transform="matrix(11,0,0,11,134.1,126.5)" />
<use xlink:href="#f0_m" transform="matrix(11,0,0,11,129.6,146.5)" />
<use xlink:href="#f0_4" transform="matrix(11,0,0,11,138,146.5)" />
<use xlink:href="#f0_5" transform="matrix(11,0,0,11,144.4,146.5)" />
<use xlink:href="#f0_6" transform="matrix(11,0,0,11,149.1,146.5)" />
<use xlink:href="#f0_k" transform="matrix(11,0,0,11,156.6,146.5)" />
<use xlink:href="#f0_m" transform="matrix(11,0,0,11,129.6,166.7)" />
<use xlink:href="#f0_4" transform="matrix(11,0,0,11,138,166.7)" />
<use xlink:href="#f0_5" transform="matrix(11,0,0,11,144.4,166.7)" />
<use xlink:href="#f0_6" transform="matrix(11,0,0,11,149.1,166.7)" />
<use xlink:href="#f0_k" transform="matrix(11,0,0,11,156.6,166.7)" />
<use xlink:href="#f0_6" transform="matrix(11,0,0,11,165,166.7)" />
<use xlink:href="#f0_4" transform="matrix(11,0,0,11,172.4,166.7)" />
</g>
<g fill="#0000FF" >
<use xlink:href="#f0_v" transform="matrix(12,0,0,12,687,206.9)" />
<use xlink:href="#f0_6" transform="matrix(12,0,0,12,699.7,206.9)" />
<use xlink:href="#f0_4" transform="matrix(12,0,0,12,708.1,206.9)" />
<use xlink:href="#f0_d" transform="matrix(12,0,0,12,715.7,206.9)" />
<use xlink:href="#f0_m" transform="matrix(12,0,0,12,725.2,206.9)" />
<use xlink:href="#f0_6" transform="matrix(12,0,0,12,734.8,206.9)" />
<use xlink:href="#f0_4" transform="matrix(12,0,0,12,743.2,206.9)" />
<use xlink:href="#f0_5" transform="matrix(12,0,0,12,750.8,206.9)" />
<use xlink:href="#f0_3" transform="matrix(12,0,0,12,756.1,206.9)" />
<use xlink:href="#f0_4" transform="matrix(12,0,0,12,764.7,206.9)" />
</g>
<g fill="#000000" >
<use xlink:href="#f1_v" transform="matrix(12,0,0,12,401,268.1)" />
<use xlink:href="#f1_q" transform="matrix(12,0,0,12,407.1,268.1)" />
<use xlink:href="#f1_e" transform="matrix(12,0,0,12,411.2,268.1)" />
<use xlink:href="#f1_q" transform="matrix(12,0,0,12,421.6,268.1)" />
<use xlink:href="#f1_e" transform="matrix(12,0,0,12,425.7,268.1)" />
<use xlink:href="#f1_o" transform="matrix(12,0,0,12,436.1,268.1)" />
<use xlink:href="#f1_c" transform="matrix(12,0,0,12,449.1,268.1)" />
<use xlink:href="#f1_q" transform="matrix(12,0,0,12,460,268.1)" />
<use xlink:href="#f1_f" transform="matrix(12,0,0,12,464.1,268.1)" />
<use xlink:href="#f1_c" transform="matrix(12,0,0,12,474.6,268.1)" />
<use xlink:href="#f1_q" transform="matrix(12,0,0,12,479.6,268.1)" />
<use xlink:href="#f1_h" transform="matrix(12,0,0,12,483.7,268.1)" />
<use xlink:href="#f1_q" transform="matrix(12,0,0,12,501.5,268.1)" />
<use xlink:href="#f1_c" transform="matrix(12,0,0,12,505.6,268.1)" />
<use xlink:href="#f1_c" transform="matrix(12,0,0,12,510.6,268.1)" />
<use xlink:href="#f1_q" transform="matrix(12,0,0,12,515.6,268.1)" />
<use xlink:href="#f1_s" transform="matrix(12,0,0,12,519.7,268.1)" />
<use xlink:href="#f1_f" transform="matrix(12,0,0,12,530.6,268.1)" />
<use xlink:href="#f1_a" transform="matrix(12,0,0,12,546.9,268.1)" />
<use xlink:href="#f1_q" transform="matrix(12,0,0,12,552.7,268.1)" />
<use xlink:href="#f1_c" transform="matrix(12,0,0,12,556.8,268.1)" />
<use xlink:href="#f1_c" transform="matrix(12,0,0,12,561.9,268.1)" />
<use xlink:href="#f1_q" transform="matrix(12,0,0,12,566.9,268.1)" />
<use xlink:href="#f1_s" transform="matrix(12,0,0,12,571,268.1)" />
<use xlink:href="#f1_3" transform="matrix(12,0,0,12,581.9,268.1)" />
<use xlink:href="#f1_q" transform="matrix(12,0,0,12,599.6,268.1)" />
<use xlink:href="#f1_j" transform="matrix(12,0,0,12,603.7,268.1)" />
<use xlink:href="#f1_q" transform="matrix(12,0,0,12,611.2,268.1)" />
<use xlink:href="#f1_7" transform="matrix(12,0,0,12,615.3,268.1)" />
<use xlink:href="#f1_h" transform="matrix(12,0,0,12,625.6,268.1)" />
<use xlink:href="#f1_b" transform="matrix(12,0,0,12,643.5,268.1)" />
<use xlink:href="#f1_e" transform="matrix(12,0,0,12,655.6,268.1)" />
<use xlink:href="#f1_f" transform="matrix(12,0,0,12,665.9,268.1)" />
<use xlink:href="#f1_k" transform="matrix(12,0,0,12,676.5,268.1)" />
<use xlink:href="#f1_b" transform="matrix(12,0,0,12,694.2,268.1)" />
<use xlink:href="#f1_9" transform="matrix(12,0,0,12,706.2,268.1)" />
<use xlink:href="#f1_i" transform="matrix(12,0,0,12,724.3,268.1)" />
<use xlink:href="#f1_e" transform="matrix(12,0,0,12,736.5,268.1)" />
<use xlink:href="#f1_o" transform="matrix(12,0,0,12,746.9,268.1)" />
<use xlink:href="#f1_3" transform="matrix(12,0,0,12,759.9,268.1)" />
<use xlink:href="#f2_2" transform="matrix(13,0,0,13,256.5,268.1)" />
<use xlink:href="#f2_3" transform="matrix(13,0,0,13,271.6,268.1)" />
<use xlink:href="#f2_4" transform="matrix(13,0,0,13,278.8,268.1)" />
<use xlink:href="#f2_5" transform="matrix(13,0,0,13,291.5,268.1)" />
<use xlink:href="#f2_6" transform="matrix(13,0,0,13,301.9,268.1)" />
<use xlink:href="#f2_7" transform="matrix(13,0,0,13,313.9,268.1)" />
<use xlink:href="#f2_6" transform="matrix(13,0,0,13,321.4,268.1)" />
<use xlink:href="#f2_7" transform="matrix(13,0,0,13,333.5,268.1)" />
<use xlink:href="#f2_8" transform="matrix(13,0,0,13,341,268.1)" />
<use xlink:href="#f2_a" transform="matrix(13,0,0,13,361.4,268.1)" />
<use xlink:href="#f2_c" transform="matrix(13,0,0,13,375.2,268.1)" />
<use xlink:href="#f3_k" transform="matrix(12,0,0,12,242.6,268.1)" />
</g>
</g>
<path d="M120.5,273.2H772.4M120.5,334H772.4M120.5,356.2H772.4M120.5,378.4H772.4m-651.9,20H772.4M120.5,418.5H772.4M120.8,272.9v146m90.5,-146v146m108.3,-146v146m108.2,-146v146m130,-146v146m130.3,-146v146M772,272.9v146" class="g1_6" />
<g clip-path="url(#c0_6)">
<g fill="#000000" >
<use xlink:href="#f1_i" transform="matrix(12,0,0,12,596.9,290.6)" />
<use xlink:href="#f1_j" transform="matrix(12,0,0,12,609.1,290.6)" />
<use xlink:href="#f1_7" transform="matrix(12,0,0,12,616.6,290.6)" />
<use xlink:href="#f1_b" transform="matrix(12,0,0,12,627,290.6)" />
<use xlink:href="#f1_e" transform="matrix(12,0,0,12,639,290.6)" />
<use xlink:href="#f1_7" transform="matrix(12,0,0,12,473.9,290.6)" />
<use xlink:href="#f1_l" transform="matrix(12,0,0,12,484.1,290.6)" />
<use xlink:href="#f1_c" transform="matrix(12,0,0,12,496.7,290.6)" />
<use xlink:href="#f1_e" transform="matrix(12,0,0,12,501.7,290.6)" />
<use xlink:href="#f1_i" transform="matrix(12,0,0,12,354,290.6)" />
<use xlink:href="#f1_q" transform="matrix(12,0,0,12,366.2,290.6)" />
<use xlink:href="#f1_o" transform="matrix(12,0,0,12,370.3,290.6)" />
<use xlink:href="#f1_e" transform="matrix(12,0,0,12,383.3,290.6)" />
<use xlink:href="#f1_9" transform="matrix(12,0,0,12,246.6,290.6)" />
<use xlink:href="#f1_c" transform="matrix(12,0,0,12,258.8,290.6)" />
<use xlink:href="#f1_f" transform="matrix(12,0,0,12,263.8,290.6)" />
<use xlink:href="#f1_e" transform="matrix(12,0,0,12,274.4,290.6)" />
<use xlink:href="#f1_b" transform="matrix(12,0,0,12,145.1,290.6)" />
<use xlink:href="#f1_n" transform="matrix(12,0,0,12,157.2,290.6)" />
<use xlink:href="#f1_e" transform="matrix(12,0,0,12,166.8,290.6)" />
<use xlink:href="#f1_e" transform="matrix(12,0,0,12,177.2,290.6)" />
<use xlink:href="#f0_5" transform="matrix(11,0,0,11,697,351.4)" />
<use xlink:href="#f0_x" transform="matrix(11,0,0,11,701.6,351.4)" />
<use xlink:href="#f1_q" transform="matrix(12,0,0,12,718.5,351.4)" />
<use xlink:href="#f1_f" transform="matrix(12,0,0,12,722.6,351.4)" />
<use xlink:href="#f1_c" transform="matrix(12,0,0,12,733.2,351.4)" />
<use xlink:href="#f1_q" transform="matrix(12,0,0,12,738.2,351.4)" />
<use xlink:href="#f1_h" transform="matrix(12,0,0,12,742.3,351.4)" />
<use xlink:href="#f0_5" transform="matrix(11,0,0,11,697,373.5)" />
<use xlink:href="#f0_x" transform="matrix(11,0,0,11,701.6,373.5)" />
<use xlink:href="#f1_q" transform="matrix(12,0,0,12,718.5,373.5)" />
<use xlink:href="#f1_e" transform="matrix(12,0,0,12,722.6,373.5)" />
<use xlink:href="#f1_q" transform="matrix(12,0,0,12,733,373.5)" />
<use xlink:href="#f1_e" transform="matrix(12,0,0,12,737.1,373.5)" />
<use xlink:href="#f1_o" transform="matrix(12,0,0,12,747.5,373.5)" />
<use xlink:href="#f0_12" transform="matrix(11,0,0,11,697,394.3)" />
<use xlink:href="#f0_k" transform="matrix(11,0,0,11,709,394.3)" />
<use xlink:href="#f0_13" transform="matrix(11,0,0,11,717.4,394.3)" />
<use xlink:href="#f0_12" transform="matrix(11,0,0,11,697,414.5)" />
<use xlink:href="#f0_k" transform="matrix(11,0,0,11,709,414.5)" />
<use xlink:href="#f0_4" transform="matrix(11,0,0,11,717.4,414.5)" />
<use xlink:href="#f0_13" transform="matrix(11,0,0,11,724,414.5)" />
</g>
<g fill="#0000FF" >
<use xlink:href="#f0_v" transform="matrix(12,0,0,12,687,473.9)" />
<use xlink:href="#f0_6" transform="matrix(12,0,0,12,699.7,473.9)" />
<use xlink:href="#f0_4" transform="matrix(12,0,0,12,708.1,473.9)" />
<use xlink:href="#f0_d" transform="matrix(12,0,0,12,715.7,473.9)" />
<use xlink:href="#f0_m" transform="matrix(12,0,0,12,725.2,473.9)" />
<use xlink:href="#f0_6" transform="matrix(12,0,0,12,734.8,473.9)" />
<use xlink:href="#f0_4" transform="matrix(12,0,0,12,743.2,473.9)" />
<use xlink:href="#f0_5" transform="matrix(12,0,0,12,750.8,473.9)" />
<use xlink:href="#f0_3" transform="matrix(12,0,0,12,756.1,473.9)" />
<use xlink:href="#f0_4" transform="matrix(12,0,0,12,764.7,473.9)" />
</g>
<g fill="#000000" >
<use xlink:href="#f3_f" transform="matrix(12,0,0,12,545.9,541.8)" />
<use xlink:href="#f3_g" transform="matrix(12,0,0,12,558.7,541.8)" />
<use xlink:href="#f3_h" transform="matrix(12,0,0,12,564,541.8)" />
<use xlink:href="#f3_h" transform="matrix(12,0,0,12,575.2,541.8)" />
<use xlink:href="#f3_i" transform="matrix(12,0,0,12,586.2,541.8)" />
<use xlink:href="#f3_h" transform="matrix(12,0,0,12,596.5,541.8)" />
<use xlink:href="#f3_j" transform="matrix(12,0,0,12,614.1,541.8)" />
<use xlink:href="#f3_4" transform="matrix(12,0,0,12,626.6,541.8)" />
<use xlink:href="#f3_b" transform="matrix(12,0,0,12,637.6,541.8)" />
<use xlink:href="#f3_i" transform="matrix(12,0,0,12,643.9,541.8)" />
<use xlink:href="#f3_c" transform="matrix(12,0,0,12,654.2,541.8)" />
<use xlink:href="#f3_j" transform="matrix(12,0,0,12,661.6,541.8)" />
<use xlink:href="#f3_k" transform="matrix(12,0,0,12,680.5,541.8)" />
<use xlink:href="#f3_f" transform="matrix(12,0,0,12,694.5,541.8)" />
<use xlink:href="#f3_g" transform="matrix(12,0,0,12,707.3,541.8)" />
<use xlink:href="#f3_s" transform="matrix(12,0,0,12,712.7,541.8)" />
<use xlink:href="#f3_q" transform="matrix(12,0,0,12,726,541.8)" />
<use xlink:href="#f3_b" transform="matrix(12,0,0,12,739.9,541.8)" />
<use xlink:href="#f3_9" transform="matrix(12,0,0,12,746.1,541.8)" />
<use xlink:href="#f3_7" transform="matrix(12,0,0,12,759.4,541.8)" />
</g>
</g>
<path d="M367.2,546.4H772.4M367.2,590H772.4M367.2,610.1H772.4m-405.2,20H772.4M367.2,650.3H772.4m-405.2,20H772.4M367.2,690.5H772.4m-405.2,20H772.4M367.2,730.7H772.4M367.6,546V731M479.7,546V731M620.4,546V731M772,546V731" class="g1_6" />
<g clip-path="url(#c0_6)">
<g fill="#000000" >
<use xlink:href="#f1_a" transform="matrix(12,0,0,12,488.6,563.9)" />
<use xlink:href="#f1_u" transform="matrix(12,0,0,12,494.4,563.9)" />
<use xlink:href="#f1_b" transform="matrix(12,0,0,12,504.2,563.9)" />
<use xlink:href="#f1_c" transform="matrix(12,0,0,12,516.1,563.9)" />
<use xlink:href="#f1_9" transform="matrix(12,0,0,12,521.1,563.9)" />
<use xlink:href="#f1_a" transform="matrix(12,0,0,12,573.2,563.9)" />
<use xlink:href="#f1_q" transform="matrix(12,0,0,12,579,563.9)" />
<use xlink:href="#f1_b" transform="matrix(12,0,0,12,583,563.9)" />
<use xlink:href="#f1_c" transform="matrix(12,0,0,12,595,563.9)" />
<use xlink:href="#f1_9" transform="matrix(12,0,0,12,600,563.9)" />
<use xlink:href="#f1_c" transform="matrix(12,0,0,12,578.1,585.3)" />
<use xlink:href="#f1_b" transform="matrix(12,0,0,12,583,585.3)" />
<use xlink:href="#f1_c" transform="matrix(12,0,0,12,595.1,585.3)" />
<use xlink:href="#f1_9" transform="matrix(12,0,0,12,600.1,585.3)" />
<use xlink:href="#f1_c" transform="matrix(12,0,0,12,395.8,563.9)" />
<use xlink:href="#f1_e" transform="matrix(12,0,0,12,400.7,563.9)" />
<use xlink:href="#f1_a" transform="matrix(12,0,0,12,417.1,563.9)" />
<use xlink:href="#f1_3" transform="matrix(12,0,0,12,422.9,563.9)" />
<use xlink:href="#f1_e" transform="matrix(12,0,0,12,434.8,563.9)" />
<use xlink:href="#f1_a" transform="matrix(12,0,0,12,451.1,563.9)" />
<use xlink:href="#f1_q" transform="matrix(12,0,0,12,457,563.9)" />
<use xlink:href="#f1_e" transform="matrix(12,0,0,12,461.1,563.9)" />
<use xlink:href="#f4_k" transform="matrix(11,0,0,11,629.3,606.1)" />
<use xlink:href="#f4_4" transform="matrix(11,0,0,11,637.7,606.1)" />
<use xlink:href="#f4_6" transform="matrix(11,0,0,11,488.4,606.1)" />
<use xlink:href="#f4_g" transform="matrix(11,0,0,11,502.5,606.1)" />
<use xlink:href="#f4_6" transform="matrix(11,0,0,11,376.3,606.1)" />
<use xlink:href="#f4_g" transform="matrix(11,0,0,11,390.3,606.1)" />
<use xlink:href="#f4_h" transform="matrix(11,0,0,11,629.3,626.1)" />
<use xlink:href="#f4_n" transform="matrix(11,0,0,11,634.9,626.1)" />
<use xlink:href="#f4_h" transform="matrix(11,0,0,11,488.4,626.1)" />
<use xlink:href="#f4_g" transform="matrix(11,0,0,11,494.1,626.1)" />
<use xlink:href="#f4_h" transform="matrix(11,0,0,11,376.3,626.1)" />
<use xlink:href="#f4_g" transform="matrix(11,0,0,11,381.9,626.1)" />
<use xlink:href="#f0_j" transform="matrix(11,0,0,11,629.3,646.3)" />
<use xlink:href="#f0_7" transform="matrix(11,0,0,11,636.6,646.3)" />
<use xlink:href="#f0_11" transform="matrix(11,0,0,11,641.3,646.3)" />
<use xlink:href="#f0_12" transform="matrix(11,0,0,11,646.1,646.3)" />
<use xlink:href="#f0_k" transform="matrix(11,0,0,11,658.1,646.3)" />
<use xlink:href="#f0_13" transform="matrix(11,0,0,11,666.5,646.3)" />
<use xlink:href="#f0_7" transform="matrix(11,0,0,11,488.4,646.3)" />
<use xlink:href="#f0_9" transform="matrix(11,0,0,11,493.2,646.3)" />
<use xlink:href="#f0_1u" transform="matrix(11,0,0,11,505.7,646.3)" />
<use xlink:href="#f0_7" transform="matrix(11,0,0,11,511.3,646.3)" />
<use xlink:href="#f0_6" transform="matrix(11,0,0,11,515.9,646.3)" />
<use xlink:href="#f0_1s" transform="matrix(11,0,0,11,523.4,646.3)" />
<use xlink:href="#f0_7" transform="matrix(11,0,0,11,376.3,646.3)" />
<use xlink:href="#f0_6" transform="matrix(11,0,0,11,381,646.3)" />
<use xlink:href="#f0_1s" transform="matrix(11,0,0,11,392.6,646.3)" />
<use xlink:href="#f0_4" transform="matrix(11,0,0,11,398.2,646.3)" />
<use xlink:href="#f0_6" transform="matrix(11,0,0,11,404.8,646.3)" />
<use xlink:href="#f0_1u" transform="matrix(11,0,0,11,412.1,646.3)" />
<use xlink:href="#f0_6" transform="matrix(11,0,0,11,629.3,666.3)" />
<use xlink:href="#f0_7" transform="matrix(11,0,0,11,636.6,666.3)" />
<use xlink:href="#f0_7" transform="matrix(11,0,0,11,641.3,666.3)" />
<use xlink:href="#f0_3" transform="matrix(11,0,0,11,646.1,666.3)" />
<use xlink:href="#f0_11" transform="matrix(11,0,0,11,653.4,666.3)" />
<use xlink:href="#f0_12" transform="matrix(11,0,0,11,658.1,666.3)" />
<use xlink:href="#f0_k" transform="matrix(11,0,0,11,670.2,666.3)" />
<use xlink:href="#f0_13" transform="matrix(11,0,0,11,678.6,666.3)" />
<use xlink:href="#f0_7" transform="matrix(11,0,0,11,488.4,666.3)" />
<use xlink:href="#f0_3" transform="matrix(11,0,0,11,493.2,666.3)" />
<use xlink:href="#f0_7" transform="matrix(11,0,0,11,376.3,666.3)" />
<use xlink:href="#f0_6" transform="matrix(11,0,0,11,381,666.3)" />
<use xlink:href="#f0_1s" transform="matrix(11,0,0,11,392.6,666.3)" />
<use xlink:href="#f0_4" transform="matrix(11,0,0,11,398.2,666.3)" />
<use xlink:href="#f0_6" transform="matrix(11,0,0,11,404.8,666.3)" />
<use xlink:href="#f0_1u" transform="matrix(11,0,0,11,412.1,666.3)" />
<use xlink:href="#f4_2" transform="matrix(11,0,0,11,629.3,686.4)" />
<use xlink:href="#f4_4" transform="matrix(11,0,0,11,638.6,686.4)" />
<use xlink:href="#f4_e" transform="matrix(11,0,0,11,647,686.4)" />
<use xlink:href="#f4_4" transform="matrix(11,0,0,11,653.6,686.4)" />
<use xlink:href="#f4_h" transform="matrix(11,0,0,11,661.8,686.4)" />
<use xlink:href="#f4_5" transform="matrix(11,0,0,11,667.5,686.4)" />
<use xlink:href="#f4_4" transform="matrix(11,0,0,11,674.9,686.4)" />
<use xlink:href="#f4_e" transform="matrix(11,0,0,11,683.3,686.4)" />
<use xlink:href="#f4_o" transform="matrix(11,0,0,11,689.9,686.4)" />
<use xlink:href="#f4_7" transform="matrix(11,0,0,11,694.6,686.4)" />
<use xlink:href="#f4_e" transform="matrix(11,0,0,11,703,686.4)" />
<use xlink:href="#f4_2" transform="matrix(11,0,0,11,488.4,686.4)" />
<use xlink:href="#f4_4" transform="matrix(11,0,0,11,497.8,686.4)" />
<use xlink:href="#f4_e" transform="matrix(11,0,0,11,506.2,686.4)" />
<use xlink:href="#f4_2" transform="matrix(11,0,0,11,376.3,686.4)" />
<use xlink:href="#f4_4" transform="matrix(11,0,0,11,385.6,686.4)" />
<use xlink:href="#f4_e" transform="matrix(11,0,0,11,394,686.4)" />
<use xlink:href="#f0_6" transform="matrix(11,0,0,11,629.3,706.4)" />
<use xlink:href="#f0_7" transform="matrix(11,0,0,11,636.6,706.4)" />
<use xlink:href="#f0_7" transform="matrix(11,0,0,11,641.3,706.4)" />
<use xlink:href="#f0_9" transform="matrix(11,0,0,11,646.1,706.4)" />
<use xlink:href="#f0_4" transform="matrix(11,0,0,11,654.5,706.4)" />
<use xlink:href="#f0_11" transform="matrix(11,0,0,11,660.9,706.4)" />
<use xlink:href="#f0_12" transform="matrix(11,0,0,11,665.6,706.4)" />
<use xlink:href="#f0_k" transform="matrix(11,0,0,11,677.7,706.4)" />
<use xlink:href="#f0_4" transform="matrix(11,0,0,11,686.1,706.4)" />
<use xlink:href="#f0_13" transform="matrix(11,0,0,11,692.6,706.4)" />
<use xlink:href="#f0_7" transform="matrix(11,0,0,11,488.4,706.4)" />
<use xlink:href="#f0_9" transform="matrix(11,0,0,11,493.2,706.4)" />
<use xlink:href="#f0_4" transform="matrix(11,0,0,11,501.6,706.4)" />
<use xlink:href="#f0_1s" transform="matrix(11,0,0,11,512.2,706.4)" />
<use xlink:href="#f0_7" transform="matrix(11,0,0,11,517.9,706.4)" />
<use xlink:href="#f0_6" transform="matrix(11,0,0,11,522.4,706.4)" />
<use xlink:href="#f0_4" transform="matrix(11,0,0,11,529.9,706.4)" />
<use xlink:href="#f0_1u" transform="matrix(11,0,0,11,536.5,706.4)" />
<use xlink:href="#f0_7" transform="matrix(11,0,0,11,376.3,706.4)" />
<use xlink:href="#f0_6" transform="matrix(11,0,0,11,381,706.4)" />
<use xlink:href="#f0_4" transform="matrix(11,0,0,11,388.5,706.4)" />
<use xlink:href="#f0_1s" transform="matrix(11,0,0,11,399.1,706.4)" />
<use xlink:href="#f0_4" transform="matrix(11,0,0,11,404.8,706.4)" />
<use xlink:href="#f0_6" transform="matrix(11,0,0,11,411.2,706.4)" />
<use xlink:href="#f0_1u" transform="matrix(11,0,0,11,418.7,706.4)" />
<use xlink:href="#f0_6" transform="matrix(11,0,0,11,629.3,726.6)" />
<use xlink:href="#f0_7" transform="matrix(11,0,0,11,636.6,726.6)" />
<use xlink:href="#f0_7" transform="matrix(11,0,0,11,641.3,726.6)" />
<use xlink:href="#f0_3" transform="matrix(11,0,0,11,646.1,726.6)" />
<use xlink:href="#f0_4" transform="matrix(11,0,0,11,653.4,726.6)" />
<use xlink:href="#f0_11" transform="matrix(11,0,0,11,659.9,726.6)" />
<use xlink:href="#f0_12" transform="matrix(11,0,0,11,664.7,726.6)" />
<use xlink:href="#f0_k" transform="matrix(11,0,0,11,676.7,726.6)" />
<use xlink:href="#f0_4" transform="matrix(11,0,0,11,685.1,726.6)" />
<use xlink:href="#f0_13" transform="matrix(11,0,0,11,691.7,726.6)" />
<use xlink:href="#f0_7" transform="matrix(11,0,0,11,488.4,726.6)" />
<use xlink:href="#f0_3" transform="matrix(11,0,0,11,493.2,726.6)" />
<use xlink:href="#f0_4" transform="matrix(11,0,0,11,500.6,726.6)" />
<use xlink:href="#f0_7" transform="matrix(11,0,0,11,376.3,726.6)" />
<use xlink:href="#f0_6" transform="matrix(11,0,0,11,381,726.6)" />
<use xlink:href="#f0_4" transform="matrix(11,0,0,11,388.5,726.6)" />
<use xlink:href="#f0_1s" transform="matrix(11,0,0,11,399.1,726.6)" />
<use xlink:href="#f0_4" transform="matrix(11,0,0,11,404.8,726.6)" />
<use xlink:href="#f0_6" transform="matrix(11,0,0,11,411.2,726.6)" />
<use xlink:href="#f0_1u" transform="matrix(11,0,0,11,418.7,726.6)" />
<use xlink:href="#f1_y" transform="matrix(12,0,0,12,220,748)" />
<use xlink:href="#f1_3" transform="matrix(12,0,0,12,239.7,748)" />
<use xlink:href="#f1_k" transform="matrix(12,0,0,12,251.6,748)" />
<use xlink:href="#f1_c" transform="matrix(12,0,0,12,263.4,748)" />
<use xlink:href="#f1_l" transform="matrix(12,0,0,12,268.4,748)" />
<use xlink:href="#f1_9" transform="matrix(12,0,0,12,293.4,748)" />
<use xlink:href="#f1_e" transform="matrix(12,0,0,12,305.6,748)" />
<use xlink:href="#f1_e" transform="matrix(12,0,0,12,328.5,748)" />
<use xlink:href="#f1_p" transform="matrix(12,0,0,12,338.9,748)" />
<use xlink:href="#f1_c" transform="matrix(12,0,0,12,350.4,748)" />
<use xlink:href="#f1_8" transform="matrix(12,0,0,12,355.4,748)" />
<use xlink:href="#f1_f" transform="matrix(12,0,0,12,366.8,748)" />
<use xlink:href="#f1_c" transform="matrix(12,0,0,12,377.4,748)" />
<use xlink:href="#f1_q" transform="matrix(12,0,0,12,407.3,748)" />
<use xlink:href="#f1_f" transform="matrix(12,0,0,12,411.4,748)" />
<use xlink:href="#f1_c" transform="matrix(12,0,0,12,421.9,748)" />
<use xlink:href="#f1_q" transform="matrix(12,0,0,12,426.9,748)" />
<use xlink:href="#f1_h" transform="matrix(12,0,0,12,431,748)" />
<use xlink:href="#f1_q" transform="matrix(12,0,0,12,455.4,748)" />
<use xlink:href="#f1_c" transform="matrix(12,0,0,12,459.5,748)" />
<use xlink:href="#f1_c" transform="matrix(12,0,0,12,464.4,748)" />
<use xlink:href="#f1_q" transform="matrix(12,0,0,12,469.5,748)" />
<use xlink:href="#f1_s" transform="matrix(12,0,0,12,473.6,748)" />
<use xlink:href="#f1_f" transform="matrix(12,0,0,12,484.4,748)" />
<use xlink:href="#f1_v" transform="matrix(12,0,0,12,507.6,748)" />
<use xlink:href="#f1_e" transform="matrix(12,0,0,12,513.7,748)" />
<use xlink:href="#f1_p" transform="matrix(12,0,0,12,524.1,748)" />
<use xlink:href="#f1_c" transform="matrix(12,0,0,12,535.6,748)" />
<use xlink:href="#f1_8" transform="matrix(12,0,0,12,540.6,748)" />
<use xlink:href="#f1_3" transform="matrix(12,0,0,12,552,748)" />
<use xlink:href="#f1_q" transform="matrix(12,0,0,12,576.4,748)" />
<use xlink:href="#f1_7" transform="matrix(12,0,0,12,580.5,748)" />
<use xlink:href="#f1_h" transform="matrix(12,0,0,12,590.9,748)" />
<use xlink:href="#f1_9" transform="matrix(12,0,0,12,602.8,748)" />
<use xlink:href="#f1_9" transform="matrix(12,0,0,12,627.4,748)" />
<use xlink:href="#f1_o" transform="matrix(12,0,0,12,639.6,748)" />
<use xlink:href="#f1_c" transform="matrix(12,0,0,12,652.6,748)" />
<use xlink:href="#f1_l" transform="matrix(12,0,0,12,657.6,748)" />
<use xlink:href="#f1_3" transform="matrix(12,0,0,12,670.1,748)" />
<use xlink:href="#f1_b" transform="matrix(12,0,0,12,694.5,748)" />
<use xlink:href="#f1_9" transform="matrix(12,0,0,12,706.6,748)" />
<use xlink:href="#f1_10" transform="matrix(12,0,0,12,731.1,748)" />
<use xlink:href="#f1_7" transform="matrix(12,0,0,12,742.9,748)" />
<use xlink:href="#f1_s" transform="matrix(12,0,0,12,753.3,748)" />
<use xlink:href="#f1_d" transform="matrix(12,0,0,12,764.1,748)" />
<use xlink:href="#f0_f" transform="matrix(11,0,0,11,137.5,748)" />
<use xlink:href="#f0_g" transform="matrix(11,0,0,11,145,748)" />
<use xlink:href="#f0_i" transform="matrix(11,0,0,11,153.2,748)" />
<use xlink:href="#f0_d" transform="matrix(11,0,0,11,166.3,748)" />
<use xlink:href="#f0_c" transform="matrix(11,0,0,11,174.7,748)" />
<use xlink:href="#f0_3" transform="matrix(11,0,0,11,180.4,748)" />
<use xlink:href="#f4_6" transform="matrix(11,0,0,11,187.9,748)" />
<use xlink:href="#f4_g" transform="matrix(11,0,0,11,201.8,748)" />
<use xlink:href="#f0_1v" transform="matrix(11,0,0,11,209.3,748)" />
<use xlink:href="#f0_z" transform="matrix(11,0,0,11,214.9,748)" />
<use xlink:href="#f0_f" transform="matrix(11,0,0,11,694.5,769.4)" />
<use xlink:href="#f0_9" transform="matrix(11,0,0,11,702,769.4)" />
<use xlink:href="#f0_i" transform="matrix(11,0,0,11,710.2,769.4)" />
<use xlink:href="#f0_d" transform="matrix(11,0,0,11,723.4,769.4)" />
<use xlink:href="#f0_c" transform="matrix(11,0,0,11,731.8,769.4)" />
<use xlink:href="#f0_3" transform="matrix(11,0,0,11,737.4,769.4)" />
<use xlink:href="#f0_c" transform="matrix(11,0,0,11,744.7,769.4)" />
<use xlink:href="#f4_6" transform="matrix(11,0,0,11,750.4,769.4)" />
<use xlink:href="#f4_g" transform="matrix(11,0,0,11,764.5,769.4)" />
<use xlink:href="#f1_m" transform="matrix(12,0,0,12,681.7,769.4)" />
<use xlink:href="#f1_x" transform="matrix(12,0,0,12,687.5,769.4)" />
<use xlink:href="#f1_e" transform="matrix(12,0,0,12,303.6,790.8)" />
<use xlink:href="#f1_q" transform="matrix(12,0,0,12,314,790.8)" />
<use xlink:href="#f1_j" transform="matrix(12,0,0,12,318.1,790.8)" />
<use xlink:href="#f1_7" transform="matrix(12,0,0,12,325.6,790.8)" />
<use xlink:href="#f1_3" transform="matrix(12,0,0,12,341.7,790.8)" />
<use xlink:href="#f1_c" transform="matrix(12,0,0,12,353.7,790.8)" />
<use xlink:href="#f1_c" transform="matrix(12,0,0,12,358.7,790.8)" />
<use xlink:href="#f1_3" transform="matrix(12,0,0,12,363.7,790.8)" />
<use xlink:href="#f1_t" transform="matrix(12,0,0,12,381.4,790.8)" />
<use xlink:href="#f1_l" transform="matrix(12,0,0,12,386.5,790.8)" />
<use xlink:href="#f1_4" transform="matrix(12,0,0,12,398.8,790.8)" />
<use xlink:href="#f1_f" transform="matrix(12,0,0,12,405.2,790.8)" />
<use xlink:href="#f1_c" transform="matrix(12,0,0,12,415.8,790.8)" />
<use xlink:href="#f1_q" transform="matrix(12,0,0,12,426.6,790.8)" />
<use xlink:href="#f1_e" transform="matrix(12,0,0,12,430.7,790.8)" />
<use xlink:href="#f1_q" transform="matrix(12,0,0,12,441.1,790.8)" />
<use xlink:href="#f1_e" transform="matrix(12,0,0,12,445.2,790.8)" />
<use xlink:href="#f1_o" transform="matrix(12,0,0,12,455.6,790.8)" />
<use xlink:href="#f1_k" transform="matrix(12,0,0,12,474.4,790.8)" />
<use xlink:href="#f1_8" transform="matrix(12,0,0,12,486.3,790.8)" />
<use xlink:href="#f1_o" transform="matrix(12,0,0,12,497.7,790.8)" />
<use xlink:href="#f1_l" transform="matrix(12,0,0,12,510.7,790.8)" />
<use xlink:href="#f1_f" transform="matrix(12,0,0,12,523.2,790.8)" />
<use xlink:href="#f1_v" transform="matrix(12,0,0,12,539.7,790.8)" />
<use xlink:href="#f1_e" transform="matrix(12,0,0,12,545.8,790.8)" />
<use xlink:href="#f1_p" transform="matrix(12,0,0,12,556.2,790.8)" />
<use xlink:href="#f1_c" transform="matrix(12,0,0,12,567.7,790.8)" />
<use xlink:href="#f1_8" transform="matrix(12,0,0,12,572.7,790.8)" />
<use xlink:href="#f1_3" transform="matrix(12,0,0,12,584.1,790.8)" />
<use xlink:href="#f1_q" transform="matrix(12,0,0,12,601.9,790.8)" />
<use xlink:href="#f1_d" transform="matrix(12,0,0,12,606,790.8)" />
<use xlink:href="#f1_8" transform="matrix(12,0,0,12,613.3,790.8)" />
<use xlink:href="#f1_e" transform="matrix(12,0,0,12,624.7,790.8)" />
<use xlink:href="#f1_9" transform="matrix(12,0,0,12,640.9,790.8)" />
<use xlink:href="#f1_o" transform="matrix(12,0,0,12,653.2,790.8)" />
<use xlink:href="#f1_c" transform="matrix(12,0,0,12,666.1,790.8)" />
<use xlink:href="#f1_l" transform="matrix(12,0,0,12,671.2,790.8)" />
<use xlink:href="#f1_3" transform="matrix(12,0,0,12,683.7,790.8)" />
<use xlink:href="#f1_b" transform="matrix(12,0,0,12,701.4,790.8)" />
<use xlink:href="#f1_9" transform="matrix(12,0,0,12,713.4,790.8)" />
<use xlink:href="#f1_10" transform="matrix(12,0,0,12,731.5,790.8)" />
<use xlink:href="#f1_7" transform="matrix(12,0,0,12,743.2,790.8)" />
<use xlink:href="#f1_s" transform="matrix(12,0,0,12,753.6,790.8)" />
<use xlink:href="#f1_d" transform="matrix(12,0,0,12,764.5,790.8)" />
<use xlink:href="#f1_y" transform="matrix(12,0,0,12,765,812.2)" />
<use xlink:href="#f0_8" transform="matrix(11,0,0,11,455.3,812.2)" />
<use xlink:href="#f0_9" transform="matrix(11,0,0,11,463.7,812.2)" />
<use xlink:href="#f0_i" transform="matrix(11,0,0,11,476.4,812.2)" />
<use xlink:href="#f0_6" transform="matrix(11,0,0,11,489.3,812.2)" />
<use xlink:href="#f0_f" transform="matrix(11,0,0,11,501.1,812.2)" />
<use xlink:href="#f0_9" transform="matrix(11,0,0,11,508.5,812.2)" />
<use xlink:href="#f0_i" transform="matrix(11,0,0,11,516.8,812.2)" />
<use xlink:href="#f0_d" transform="matrix(11,0,0,11,529.9,812.2)" />
<use xlink:href="#f0_c" transform="matrix(11,0,0,11,538.3,812.2)" />
<use xlink:href="#f0_6" transform="matrix(11,0,0,11,543.9,812.2)" />
<use xlink:href="#f0_4" transform="matrix(11,0,0,11,551.3,812.2)" />
<use xlink:href="#f0_1v" transform="matrix(11,0,0,11,557.8,812.2)" />
<use xlink:href="#f0_z" transform="matrix(11,0,0,11,563.5,812.2)" />
<use xlink:href="#f0_8" transform="matrix(11,0,0,11,571.8,812.2)" />
<use xlink:href="#f0_9" transform="matrix(11,0,0,11,580.2,812.2)" />
<use xlink:href="#f0_i" transform="matrix(11,0,0,11,592.9,812.2)" />
<use xlink:href="#f0_6" transform="matrix(11,0,0,11,605.9,812.2)" />
<use xlink:href="#f0_f" transform="matrix(11,0,0,11,617.6,812.2)" />
<use xlink:href="#f0_9" transform="matrix(11,0,0,11,625,812.2)" />
<use xlink:href="#f0_i" transform="matrix(11,0,0,11,633.4,812.2)" />
<use xlink:href="#f0_d" transform="matrix(11,0,0,11,646.5,812.2)" />
<use xlink:href="#f0_c" transform="matrix(11,0,0,11,654.9,812.2)" />
<use xlink:href="#f0_3" transform="matrix(11,0,0,11,660.4,812.2)" />
<use xlink:href="#f0_4" transform="matrix(11,0,0,11,667.9,812.2)" />
<use xlink:href="#f0_z" transform="matrix(11,0,0,11,674.4,812.2)" />
<use xlink:href="#f0_i" transform="matrix(11,0,0,11,682.8,812.2)" />
<use xlink:href="#f0_6" transform="matrix(11,0,0,11,695.9,812.2)" />
<use xlink:href="#f0_f" transform="matrix(11,0,0,11,707.5,812.2)" />
<use xlink:href="#f0_9" transform="matrix(11,0,0,11,715,812.2)" />
<use xlink:href="#f0_i" transform="matrix(11,0,0,11,723.4,812.2)" />
<use xlink:href="#f0_d" transform="matrix(11,0,0,11,736.5,812.2)" />
<use xlink:href="#f0_c" transform="matrix(11,0,0,11,744.7,812.2)" />
<use xlink:href="#f0_3" transform="matrix(11,0,0,11,750.4,812.2)" />
<use xlink:href="#f0_4" transform="matrix(11,0,0,11,757.8,812.2)" />
<use xlink:href="#f1_m" transform="matrix(12,0,0,12,442.4,812.2)" />
<use xlink:href="#f1_x" transform="matrix(12,0,0,12,448.3,812.2)" />
<use xlink:href="#f1_v" transform="matrix(12,0,0,12,554.1,854.5)" />
<use xlink:href="#f1_i" transform="matrix(12,0,0,12,560.2,854.5)" />
<use xlink:href="#f1_q" transform="matrix(12,0,0,12,572.4,854.5)" />
<use xlink:href="#f1_9" transform="matrix(12,0,0,12,576.5,854.5)" />
<use xlink:href="#f1_f" transform="matrix(12,0,0,12,588.8,854.5)" />
<use xlink:href="#f1_3" transform="matrix(12,0,0,12,599.3,854.5)" />
<use xlink:href="#f1_i" transform="matrix(12,0,0,12,617,854.5)" />
<use xlink:href="#f1_q" transform="matrix(12,0,0,12,629.2,854.5)" />
<use xlink:href="#f1_k" transform="matrix(12,0,0,12,633.2,854.5)" />
<use xlink:href="#f1_8" transform="matrix(12,0,0,12,645.1,854.5)" />
<use xlink:href="#f1_o" transform="matrix(12,0,0,12,656.6,854.5)" />
<use xlink:href="#f1_l" transform="matrix(12,0,0,12,669.5,854.5)" />
<use xlink:href="#f1_3" transform="matrix(12,0,0,12,682,854.5)" />
<use xlink:href="#f1_b" transform="matrix(12,0,0,12,699.8,854.5)" />
<use xlink:href="#f1_9" transform="matrix(12,0,0,12,711.8,854.5)" />
<use xlink:href="#f1_i" transform="matrix(12,0,0,12,730,854.5)" />
<use xlink:href="#f1_j" transform="matrix(12,0,0,12,742.2,854.5)" />
<use xlink:href="#f1_7" transform="matrix(12,0,0,12,749.7,854.5)" />
<use xlink:href="#f1_b" transform="matrix(12,0,0,12,759.9,854.5)" />
<use xlink:href="#f2_2" transform="matrix(13,0,0,13,409.4,854.5)" />
<use xlink:href="#f2_3" transform="matrix(13,0,0,13,424.6,854.5)" />
<use xlink:href="#f2_4" transform="matrix(13,0,0,13,431.7,854.5)" />
<use xlink:href="#f2_5" transform="matrix(13,0,0,13,444.4,854.5)" />
<use xlink:href="#f2_6" transform="matrix(13,0,0,13,454.8,854.5)" />
<use xlink:href="#f2_7" transform="matrix(13,0,0,13,466.9,854.5)" />
<use xlink:href="#f2_6" transform="matrix(13,0,0,13,474.4,854.5)" />
<use xlink:href="#f2_7" transform="matrix(13,0,0,13,486.4,854.5)" />
<use xlink:href="#f2_8" transform="matrix(13,0,0,13,493.9,854.5)" />
<use xlink:href="#f2_a" transform="matrix(13,0,0,13,514.4,854.5)" />
<use xlink:href="#f2_g" transform="matrix(13,0,0,13,528.1,854.5)" />
<use xlink:href="#f3_k" transform="matrix(12,0,0,12,395.5,854.5)" />
</g>
</g>
<path d="M400,898.3H772M400,918.4H772m-372,20H772M400,958.6H772m-372,20H772M400,998.8H772m-372,20H772M400,1039H772m-372,20H772m-372,20.1H772" class="g1_6" />
<g clip-path="url(#c0_6)">
<g fill="#000000" >
<use xlink:href="#f0_16" transform="matrix(11,0,0,11,129.4,894.2)" />
<use xlink:href="#f0_3" transform="matrix(11,0,0,11,141.5,894.2)" />
<use xlink:href="#f0_i" transform="matrix(11,0,0,11,148.9,894.2)" />
<use xlink:href="#f0_6" transform="matrix(11,0,0,11,161.9,894.2)" />
<use xlink:href="#f0_i" transform="matrix(11,0,0,11,173.7,894.2)" />
<use xlink:href="#f0_e" transform="matrix(11,0,0,11,186.6,894.2)" />
<use xlink:href="#f0_u" transform="matrix(11,0,0,11,195.6,894.2)" />
<use xlink:href="#f0_m" transform="matrix(11,0,0,11,200.2,894.2)" />
<use xlink:href="#f0_n" transform="matrix(11,0,0,11,208.6,894.2)" />
<use xlink:href="#f0_9" transform="matrix(11,0,0,11,217,894.2)" />
<use xlink:href="#f0_1v" transform="matrix(11,0,0,11,225.4,894.2)" />
<use xlink:href="#f0_1k" transform="matrix(11,0,0,11,129.4,914.4)" />
<use xlink:href="#f0_c" transform="matrix(11,0,0,11,139.6,914.4)" />
<use xlink:href="#f0_y" transform="matrix(11,0,0,11,145.1,914.4)" />
<use xlink:href="#f0_e" transform="matrix(11,0,0,11,152.6,914.4)" />
<use xlink:href="#f0_n" transform="matrix(11,0,0,11,157.3,914.4)" />
<use xlink:href="#f0_3" transform="matrix(11,0,0,11,165.7,914.4)" />
<use xlink:href="#f0_7" transform="matrix(11,0,0,11,173,914.4)" />
<use xlink:href="#f0_6" transform="matrix(11,0,0,11,177.8,914.4)" />
<use xlink:href="#f0_4" transform="matrix(11,0,0,11,189.5,914.4)" />
<use xlink:href="#f0_m" transform="matrix(11,0,0,11,196.1,914.4)" />
<use xlink:href="#f0_c" transform="matrix(11,0,0,11,208.6,914.4)" />
<use xlink:href="#f0_6" transform="matrix(11,0,0,11,214.2,914.4)" />
<use xlink:href="#f0_7" transform="matrix(11,0,0,11,221.5,914.4)" />
<use xlink:href="#f0_9" transform="matrix(11,0,0,11,226.3,914.4)" />
<use xlink:href="#f0_u" transform="matrix(11,0,0,11,234.7,914.4)" />
<use xlink:href="#f0_1v" transform="matrix(11,0,0,11,239.2,914.4)" />
<use xlink:href="#f0_1r" transform="matrix(11,0,0,11,129.4,934.4)" />
<use xlink:href="#f0_6" transform="matrix(11,0,0,11,144.2,934.4)" />
<use xlink:href="#f0_n" transform="matrix(11,0,0,11,156,934.4)" />
<use xlink:href="#f0_m" transform="matrix(11,0,0,11,164.4,934.4)" />
<use xlink:href="#f0_4" transform="matrix(11,0,0,11,172.8,934.4)" />
<use xlink:href="#f0_5" transform="matrix(11,0,0,11,179.2,934.4)" />
<use xlink:href="#f0_3" transform="matrix(11,0,0,11,183.9,934.4)" />
<use xlink:href="#f0_f" transform="matrix(11,0,0,11,195.6,934.4)" />
<use xlink:href="#f0_m" transform="matrix(11,0,0,11,203.1,934.4)" />
<use xlink:href="#f0_3" transform="matrix(11,0,0,11,211.3,934.4)" />
<use xlink:href="#f0_8" transform="matrix(11,0,0,11,218.8,934.4)" />
<use xlink:href="#f0_k" transform="matrix(11,0,0,11,227.2,934.4)" />
<use xlink:href="#f0_9" transform="matrix(11,0,0,11,235.6,934.4)" />
<use xlink:href="#f0_i" transform="matrix(11,0,0,11,248.3,934.4)" />
<use xlink:href="#f0_6" transform="matrix(11,0,0,11,261.3,934.4)" />
<use xlink:href="#f0_3" transform="matrix(11,0,0,11,273,934.4)" />
<use xlink:href="#f0_10" transform="matrix(11,0,0,11,280.5,934.4)" />
<use xlink:href="#f0_m" transform="matrix(11,0,0,11,288.9,934.4)" />
<use xlink:href="#f0_k" transform="matrix(11,0,0,11,297.3,934.4)" />
<use xlink:href="#f0_3" transform="matrix(11,0,0,11,305.5,934.4)" />
<use xlink:href="#f0_4" transform="matrix(11,0,0,11,313,934.4)" />
<use xlink:href="#f0_13" transform="matrix(11,0,0,11,319.5,934.4)" />
<use xlink:href="#f0_14" transform="matrix(11,0,0,11,129.4,954.6)" />
<use xlink:href="#f0_9" transform="matrix(11,0,0,11,141.5,954.6)" />
<use xlink:href="#f0_7" transform="matrix(11,0,0,11,154.1,954.6)" />
<use xlink:href="#f0_9" transform="matrix(11,0,0,11,158.7,954.6)" />
<use xlink:href="#f0_4" transform="matrix(11,0,0,11,171.4,954.6)" />
<use xlink:href="#f0_j" transform="matrix(11,0,0,11,177.8,954.6)" />
<use xlink:href="#f0_13" transform="matrix(11,0,0,11,185.3,954.6)" />
<use xlink:href="#f0_1l" transform="matrix(11,0,0,11,129.4,974.6)" />
<use xlink:href="#f0_6" transform="matrix(11,0,0,11,139.6,974.6)" />
<use xlink:href="#f0_4" transform="matrix(11,0,0,11,147.1,974.6)" />
<use xlink:href="#f0_f" transform="matrix(11,0,0,11,157.8,974.6)" />
<use xlink:href="#f0_9" transform="matrix(11,0,0,11,165.2,974.6)" />
<use xlink:href="#f0_8" transform="matrix(11,0,0,11,173.6,974.6)" />
<use xlink:href="#f0_5" transform="matrix(11,0,0,11,182,974.6)" />
<use xlink:href="#f0_3" transform="matrix(11,0,0,11,186.6,974.6)" />
<use xlink:href="#f0_i" transform="matrix(11,0,0,11,194.1,974.6)" />
<use xlink:href="#f0_9" transform="matrix(11,0,0,11,207.2,974.6)" />
<use xlink:href="#f0_4" transform="matrix(11,0,0,11,215.6,974.6)" />
<use xlink:href="#f0_f" transform="matrix(11,0,0,11,226.3,974.6)" />
<use xlink:href="#f0_m" transform="matrix(11,0,0,11,233.7,974.6)" />
<use xlink:href="#f0_3" transform="matrix(11,0,0,11,242.2,974.6)" />
<use xlink:href="#f0_8" transform="matrix(11,0,0,11,249.6,974.6)" />
<use xlink:href="#f0_k" transform="matrix(11,0,0,11,258,974.6)" />
<use xlink:href="#f0_9" transform="matrix(11,0,0,11,266.4,974.6)" />
<use xlink:href="#f0_7" transform="matrix(11,0,0,11,278.9,974.6)" />
<use xlink:href="#f0_9" transform="matrix(11,0,0,11,283.7,974.6)" />
<use xlink:href="#f0_4" transform="matrix(11,0,0,11,292.1,974.6)" />
<use xlink:href="#f0_r" transform="matrix(11,0,0,11,302.7,974.6)" />
<use xlink:href="#f0_6" transform="matrix(11,0,0,11,311.1,974.6)" />
<use xlink:href="#f0_i" transform="matrix(11,0,0,11,318.6,974.6)" />
<use xlink:href="#f0_9" transform="matrix(11,0,0,11,331.7,974.6)" />
<use xlink:href="#f0_4" transform="matrix(11,0,0,11,340.1,974.6)" />
<use xlink:href="#f0_13" transform="matrix(11,0,0,11,346.5,974.6)" />
<use xlink:href="#f0_1e" transform="matrix(11,0,0,11,129.4,994.7)" />
<use xlink:href="#f0_7" transform="matrix(11,0,0,11,139.6,994.7)" />
<use xlink:href="#f0_7" transform="matrix(11,0,0,11,144.2,994.7)" />
<use xlink:href="#f0_9" transform="matrix(11,0,0,11,148.9,994.7)" />
<use xlink:href="#f0_4" transform="matrix(11,0,0,11,157.4,994.7)" />
<use xlink:href="#f0_7" transform="matrix(11,0,0,11,168,994.7)" />
<use xlink:href="#f0_3" transform="matrix(11,0,0,11,172.7,994.7)" />
<use xlink:href="#f0_4" transform="matrix(11,0,0,11,180.2,994.7)" />
<use xlink:href="#f0_d" transform="matrix(11,0,0,11,190.9,994.7)" />
<use xlink:href="#f0_6" transform="matrix(11,0,0,11,199.3,994.7)" />
<use xlink:href="#f0_c" transform="matrix(11,0,0,11,206.7,994.7)" />
<use xlink:href="#f0_k" transform="matrix(11,0,0,11,212.4,994.7)" />
<use xlink:href="#f0_e" transform="matrix(11,0,0,11,220.6,994.7)" />
<use xlink:href="#f0_6" transform="matrix(11,0,0,11,225.3,994.7)" />
<use xlink:href="#f0_c" transform="matrix(11,0,0,11,232.8,994.7)" />
<use xlink:href="#f0_9" transform="matrix(11,0,0,11,238.4,994.7)" />
<use xlink:href="#f0_8" transform="matrix(11,0,0,11,246.8,994.7)" />
<use xlink:href="#f0_13" transform="matrix(11,0,0,11,255.1,994.7)" />
<use xlink:href="#f0_1e" transform="matrix(11,0,0,11,129.4,1014.8)" />
<use xlink:href="#f0_8" transform="matrix(11,0,0,11,139.6,1014.8)" />
<use xlink:href="#f0_6" transform="matrix(11,0,0,11,152.2,1014.8)" />
<use xlink:href="#f0_4" transform="matrix(11,0,0,11,159.6,1014.8)" />
<use xlink:href="#f0_5" transform="matrix(11,0,0,11,166.2,1014.8)" />
<use xlink:href="#f0_3" transform="matrix(11,0,0,11,170.9,1014.8)" />
<use xlink:href="#f0_f" transform="matrix(11,0,0,11,182.5,1014.8)" />
<use xlink:href="#f0_e" transform="matrix(11,0,0,11,189.9,1014.8)" />
<use xlink:href="#f0_m" transform="matrix(11,0,0,11,194.5,1014.8)" />
<use xlink:href="#f0_k" transform="matrix(11,0,0,11,202.9,1014.8)" />
<use xlink:href="#f0_3" transform="matrix(11,0,0,11,211.3,1014.8)" />
<use xlink:href="#f0_k" transform="matrix(11,0,0,11,218.8,1014.8)" />
<use xlink:href="#f0_6" transform="matrix(11,0,0,11,231.5,1014.8)" />
<use xlink:href="#f0_4" transform="matrix(11,0,0,11,238.8,1014.8)" />
<use xlink:href="#f0_s" transform="matrix(11,0,0,11,249.6,1014.8)" />
<use xlink:href="#f0_y" transform="matrix(11,0,0,11,255.1,1014.8)" />
<use xlink:href="#f0_f" transform="matrix(11,0,0,11,262.6,1014.8)" />
<use xlink:href="#f0_e" transform="matrix(11,0,0,11,270,1014.8)" />
<use xlink:href="#f0_7" transform="matrix(11,0,0,11,274.6,1014.8)" />
<use xlink:href="#f0_6" transform="matrix(11,0,0,11,283.6,1014.8)" />
<use xlink:href="#f0_8" transform="matrix(11,0,0,11,291.1,1014.8)" />
<use xlink:href="#f0_f" transform="matrix(11,0,0,11,299.5,1014.8)" />
<use xlink:href="#f0_9" transform="matrix(11,0,0,11,306.9,1014.8)" />
<use xlink:href="#f0_8" transform="matrix(11,0,0,11,315.3,1014.8)" />
<use xlink:href="#f0_5" transform="matrix(11,0,0,11,323.6,1014.8)" />
<use xlink:href="#f0_c" transform="matrix(11,0,0,11,328.3,1014.8)" />
<use xlink:href="#f0_3" transform="matrix(11,0,0,11,333.9,1014.8)" />
<use xlink:href="#f0_c" transform="matrix(11,0,0,11,341.3,1014.8)" />
<use xlink:href="#f0_7" transform="matrix(11,0,0,11,346.9,1014.8)" />
<use xlink:href="#f0_9" transform="matrix(11,0,0,11,351.6,1014.8)" />
<use xlink:href="#f0_13" transform="matrix(11,0,0,11,359.9,1014.8)" />
<use xlink:href="#f0_14" transform="matrix(11,0,0,11,129.4,1034.9)" />
<use xlink:href="#f0_9" transform="matrix(11,0,0,11,141.5,1034.9)" />
<use xlink:href="#f0_7" transform="matrix(11,0,0,11,154.1,1034.9)" />
<use xlink:href="#f0_6" transform="matrix(11,0,0,11,158.7,1034.9)" />
<use xlink:href="#f0_k" transform="matrix(11,0,0,11,170.5,1034.9)" />
<use xlink:href="#f0_6" transform="matrix(11,0,0,11,178.7,1034.9)" />
<use xlink:href="#f0_4" transform="matrix(11,0,0,11,186.2,1034.9)" />
<use xlink:href="#f0_5" transform="matrix(11,0,0,11,197,1034.9)" />
<use xlink:href="#f0_m" transform="matrix(11,0,0,11,201.6,1034.9)" />
<use xlink:href="#f0_k" transform="matrix(11,0,0,11,214.3,1034.9)" />
<use xlink:href="#f0_e" transform="matrix(11,0,0,11,222.5,1034.9)" />
<use xlink:href="#f0_8" transform="matrix(11,0,0,11,227.2,1034.9)" />
<use xlink:href="#f0_6" transform="matrix(11,0,0,11,235.6,1034.9)" />
<use xlink:href="#f0_c" transform="matrix(11,0,0,11,243.1,1034.9)" />
<use xlink:href="#f0_9" transform="matrix(11,0,0,11,248.7,1034.9)" />
<use xlink:href="#f0_1v" transform="matrix(11,0,0,11,257.1,1034.9)" />
<use xlink:href="#f0_14" transform="matrix(11,0,0,11,129.4,1054.9)" />
<use xlink:href="#f0_9" transform="matrix(11,0,0,11,141.5,1054.9)" />
<use xlink:href="#f0_7" transform="matrix(11,0,0,11,154.1,1054.9)" />
<use xlink:href="#f0_9" transform="matrix(11,0,0,11,158.7,1054.9)" />
<use xlink:href="#f0_k" transform="matrix(11,0,0,11,171.4,1054.9)" />
<use xlink:href="#f0_6" transform="matrix(11,0,0,11,179.8,1054.9)" />
<use xlink:href="#f0_4" transform="matrix(11,0,0,11,187.1,1054.9)" />
<use xlink:href="#f0_1v" transform="matrix(11,0,0,11,193.7,1054.9)" />
<use xlink:href="#f0_14" transform="matrix(11,0,0,11,129.4,1075.1)" />
<use xlink:href="#f0_9" transform="matrix(11,0,0,11,141.5,1075.1)" />
<use xlink:href="#f0_4" transform="matrix(11,0,0,11,154.1,1075.1)" />
<use xlink:href="#f0_6" transform="matrix(11,0,0,11,160.6,1075.1)" />
<use xlink:href="#f0_7" transform="matrix(11,0,0,11,172.3,1075.1)" />
<use xlink:href="#f0_9" transform="matrix(11,0,0,11,176.9,1075.1)" />
<use xlink:href="#f0_k" transform="matrix(11,0,0,11,189.5,1075.1)" />
<use xlink:href="#f0_6" transform="matrix(11,0,0,11,198,1075.1)" />
<use xlink:href="#f0_4" transform="matrix(11,0,0,11,205.4,1075.1)" />
<use xlink:href="#f0_1v" transform="matrix(11,0,0,11,211.8,1075.1)" />
</g>
<g fill="#0000FF" >
<use xlink:href="#f0_v" transform="matrix(12,0,0,12,687,1115.3)" />
<use xlink:href="#f0_6" transform="matrix(12,0,0,12,699.7,1115.3)" />
<use xlink:href="#f0_4" transform="matrix(12,0,0,12,708.1,1115.3)" />
<use xlink:href="#f0_d" transform="matrix(12,0,0,12,715.7,1115.3)" />
<use xlink:href="#f0_m" transform="matrix(12,0,0,12,725.2,1115.3)" />
<use xlink:href="#f0_6" transform="matrix(12,0,0,12,734.8,1115.3)" />
<use xlink:href="#f0_4" transform="matrix(12,0,0,12,743.2,1115.3)" />
<use xlink:href="#f0_5" transform="matrix(12,0,0,12,750.8,1115.3)" />
<use xlink:href="#f0_3" transform="matrix(12,0,0,12,756.1,1115.3)" />
<use xlink:href="#f0_4" transform="matrix(12,0,0,12,764.7,1115.3)" />
</g>
<g fill="#000000" >
<use xlink:href="#f3_f" transform="matrix(12,0,0,12,509.1,1136.2)" />
<use xlink:href="#f3_g" transform="matrix(12,0,0,12,521.9,1136.2)" />
<use xlink:href="#f3_h" transform="matrix(12,0,0,12,527.2,1136.2)" />
<use xlink:href="#f3_h" transform="matrix(12,0,0,12,538.2,1136.2)" />
<use xlink:href="#f3_i" transform="matrix(12,0,0,12,549.4,1136.2)" />
<use xlink:href="#f3_h" transform="matrix(12,0,0,12,559.6,1136.2)" />
<use xlink:href="#f3_j" transform="matrix(12,0,0,12,577.3,1136.2)" />
<use xlink:href="#f3_4" transform="matrix(12,0,0,12,589.8,1136.2)" />
<use xlink:href="#f3_b" transform="matrix(12,0,0,12,600.8,1136.2)" />
<use xlink:href="#f3_i" transform="matrix(12,0,0,12,607,1136.2)" />
<use xlink:href="#f3_c" transform="matrix(12,0,0,12,617.4,1136.2)" />
<use xlink:href="#f3_j" transform="matrix(12,0,0,12,624.8,1136.2)" />
<use xlink:href="#f3_k" transform="matrix(12,0,0,12,643.5,1136.2)" />
<use xlink:href="#f3_l" transform="matrix(12,0,0,12,657.7,1136.2)" />
<use xlink:href="#f3_b" transform="matrix(12,0,0,12,668.8,1136.2)" />
<use xlink:href="#f3_4" transform="matrix(12,0,0,12,675.1,1136.2)" />
<use xlink:href="#f3_3" transform="matrix(12,0,0,12,686.1,1136.2)" />
<use xlink:href="#f3_7" transform="matrix(12,0,0,12,699.6,1136.2)" />
<use xlink:href="#f3_n" transform="matrix(12,0,0,12,718.5,1136.2)" />
<use xlink:href="#f3_g" transform="matrix(12,0,0,12,729.3,1136.2)" />
<use xlink:href="#f3_j" transform="matrix(12,0,0,12,734.7,1136.2)" />
<use xlink:href="#f3_8" transform="matrix(12,0,0,12,747.2,1136.2)" />
<use xlink:href="#f3_7" transform="matrix(12,0,0,12,759.4,1136.2)" />
<use xlink:href="#f1_12" transform="matrix(12,0,0,12,763.7,1157.6)" />
<use xlink:href="#f0_e" transform="matrix(11,0,0,11,753.2,1157.6)" />
<use xlink:href="#f0_c" transform="matrix(11,0,0,11,757.9,1157.6)" />
<use xlink:href="#f1_y" transform="matrix(12,0,0,12,623.5,1157.6)" />
<use xlink:href="#f1_e" transform="matrix(12,0,0,12,636.6,1157.6)" />
<use xlink:href="#f1_p" transform="matrix(12,0,0,12,647,1157.6)" />
<use xlink:href="#f1_c" transform="matrix(12,0,0,12,658.5,1157.6)" />
<use xlink:href="#f1_8" transform="matrix(12,0,0,12,663.5,1157.6)" />
<use xlink:href="#f1_3" transform="matrix(12,0,0,12,674.9,1157.6)" />
<use xlink:href="#f1_i" transform="matrix(12,0,0,12,692.7,1157.6)" />
<use xlink:href="#f1_o" transform="matrix(12,0,0,12,704.9,1157.6)" />
<use xlink:href="#f1_16" transform="matrix(12,0,0,12,723.5,1157.6)" />
<use xlink:href="#f1_12" transform="matrix(12,0,0,12,744.9,1157.6)" />
<use xlink:href="#f0_r" transform="matrix(11,0,0,11,419.1,1157.6)" />
<use xlink:href="#f0_9" transform="matrix(11,0,0,11,427.5,1157.6)" />
<use xlink:href="#f0_10" transform="matrix(11,0,0,11,435.9,1157.6)" />
<use xlink:href="#f0_3" transform="matrix(11,0,0,11,448.5,1157.6)" />
<use xlink:href="#f0_6" transform="matrix(11,0,0,11,460.1,1157.6)" />
<use xlink:href="#f0_4" transform="matrix(11,0,0,11,467.6,1157.6)" />
<use xlink:href="#f0_f" transform="matrix(11,0,0,11,474.1,1157.6)" />
<use xlink:href="#f0_3" transform="matrix(11,0,0,11,481.5,1157.6)" />
<use xlink:href="#f0_d" transform="matrix(11,0,0,11,488.9,1157.6)" />
<use xlink:href="#f0_3" transform="matrix(11,0,0,11,497.3,1157.6)" />
<use xlink:href="#f0_c" transform="matrix(11,0,0,11,504.8,1157.6)" />
<use xlink:href="#f0_z" transform="matrix(11,0,0,11,510.3,1157.6)" />
<use xlink:href="#f0_r" transform="matrix(11,0,0,11,518.8,1157.6)" />
<use xlink:href="#f0_3" transform="matrix(11,0,0,11,527.2,1157.6)" />
<use xlink:href="#f0_4" transform="matrix(11,0,0,11,534.7,1157.6)" />
<use xlink:href="#f0_3" transform="matrix(11,0,0,11,545.4,1157.6)" />
<use xlink:href="#f0_3" transform="matrix(11,0,0,11,556.9,1157.6)" />
<use xlink:href="#f0_10" transform="matrix(11,0,0,11,564.4,1157.6)" />
<use xlink:href="#f0_m" transform="matrix(11,0,0,11,572.8,1157.6)" />
<use xlink:href="#f0_k" transform="matrix(11,0,0,11,581.2,1157.6)" />
<use xlink:href="#f0_3" transform="matrix(11,0,0,11,589.6,1157.6)" />
<use xlink:href="#f0_c" transform="matrix(11,0,0,11,597.1,1157.6)" />
<use xlink:href="#f0_i" transform="matrix(11,0,0,11,602.6,1157.6)" />
<use xlink:href="#f0_6" transform="matrix(11,0,0,11,615.7,1157.6)" />
<use xlink:href="#f1_m" transform="matrix(12,0,0,12,406.2,1157.6)" />
<use xlink:href="#f1_x" transform="matrix(12,0,0,12,412,1157.6)" />
</g>
</g>
<defs>
<path d="M249,-14c0,0,-71,0,-107,42c0,0,-35,42,-35,119V639H15v33l93,29l76,159h47V701H391V639H231V161c0,0,0,-48,22,-73c0,0,22,-24,57,-24c0,0,44,0,106,12V26C416,26,389,8,340,-2c0,0,-49,-12,-91,-12Z" 
id="f0_5"
transform="scale(0.001,-0.001)" />

<path d="M289,-14c0,0,-179,0,-179,205V649L20,668v33H233V200c0,0,0,-128,120,-128c0,0,92,0,173,23V649L420,668v33H649V52L738,34V0H533l-6,57C527,57,474,28,405,6c0,0,-69,-20,-116,-20Zm24,849v24l147,203H618v-27L354,835Z" 
id="f0_x"
transform="scale(0.001,-0.001)" />

<path d="M289,-14c0,0,-179,0,-179,205V649L20,668v33H233V200c0,0,0,-128,120,-128c0,0,92,0,173,23V649L420,668v33H649V52L738,33V0H533l-6,57C527,57,474,28,405,7c0,0,-69,-21,-116,-21Z" 
id="f0_m"
transform="scale(0.001,-0.001)" />

<path d="M278,-14c0,0,-52,0,-115,11c0,0,-63,10,-99,23V193H98L134,95c0,0,56,-50,146,-50c0,0,144,0,144,123c0,0,0,91,-114,130l-66,21c0,0,-75,25,-110,50c0,0,-34,26,-53,63c0,0,-18,36,-18,89c0,0,0,92,63,145c0,0,63,54,170,54c0,0,77,0,193,-23V544H454l-32,81c0,0,-39,35,-124,35c0,0,-61,0,-92,-30c0,0,-32,-30,-32,-80c0,0,0,-43,29,-72c0,0,28,-29,86,-48c0,0,110,-38,144,-55c0,0,33,-17,57,-42c0,0,23,-25,36,-57c0,0,13,-32,13,-79c0,0,0,-104,-66,-158c0,0,-66,-53,-195,-53Z" 
id="f0_4"
transform="scale(0.001,-0.001)" />

<path d="M495,413c0,0,0,133,-34,190c0,0,-34,57,-105,57c0,0,-78,0,-119,-63c0,0,-42,-62,-42,-184ZM374,-14c0,0,-163,0,-239,87c0,0,-75,88,-75,283c0,0,0,183,77,273c0,0,76,91,219,91c0,0,269,0,269,-306V353H194V340c0,0,0,-103,23,-160c0,0,22,-57,70,-87c0,0,47,-29,124,-29c0,0,40,0,96,6c0,0,55,7,91,15V43C598,43,562,20,500,3c0,0,-61,-17,-126,-17Z" 
id="f0_6"
transform="scale(0.001,-0.001)" />

<path d="M383,64c0,0,85,0,152,28V645c0,0,-67,13,-152,13c0,0,-194,0,-194,-314c0,0,0,-141,48,-211c0,0,48,-69,146,-69ZM342,-14c0,0,-287,0,-287,358c0,0,0,184,82,280c0,0,81,96,239,96c0,0,81,0,163,-18c0,0,-4,25,-4,124v182l-118,18v34H659V52L745,33V0H548l-9,52c0,0,-84,-66,-197,-66Z" 
id="f0_k"
transform="scale(0.001,-0.001)" />

<path d="M448,506c0,0,134,0,190,49c0,0,57,50,57,168c0,0,0,114,-56,162c0,0,-56,48,-195,48H316V506ZM777,0L496,438H316V60L468,40V0H54V40L172,60V941L44,960v40H476c0,0,188,0,277,-63c0,0,90,-64,90,-204c0,0,0,-100,-54,-173c0,0,-55,-73,-151,-101L909,60L1017,40V0Z" 
id="f0_v"
transform="scale(0.001,-0.001)" />

<path d="M382,45c0,0,188,0,188,314c0,0,0,143,-47,213c0,0,-46,69,-141,69c0,0,-87,0,-146,-24V58c0,0,67,-13,146,-13ZM25,-325v35l88,18V649L34,668v33H231l1,-41c0,0,31,27,84,43c0,0,53,17,107,17c0,0,134,0,208,-94c0,0,73,-93,73,-267c0,0,0,-178,-80,-276c0,0,-80,-97,-232,-97c0,0,-84,0,-160,16c0,0,4,-53,4,-84V-272l123,-18v-35Z" 
id="f0_d"
transform="scale(0.001,-0.001)" />

<path d="M284,67c0,0,51,0,88,12c0,0,37,12,74,30V358l-98,-3c0,0,-100,-4,-135,-39c0,0,-35,-35,-35,-117c0,0,0,-132,106,-132ZM233,-14c0,0,-179,0,-179,208c0,0,0,70,27,116c0,0,27,46,87,70c0,0,60,24,173,27l105,3V519c0,0,0,72,-26,107c0,0,-27,34,-82,34c0,0,-75,0,-137,-35L176,538H134V691c0,0,121,26,213,26c0,0,115,0,169,-47c0,0,54,-47,54,-144V52L657,33V0H465L451,70c0,0,-85,-84,-218,-84Z" 
id="f0_3"
transform="scale(0.001,-0.001)" />

<path d="M179,0V190H336V0Zm0,600V790H336V600Z" 
id="f1_v"
transform="scale(0.001,-0.001)" />

<path d="M102,312V836H241V369L102,312Z" 
id="f1_q"
transform="scale(0.001,-0.001)" />

<path d="M287,0L589,729H66v386H205V836l547,-1l-2,-82L433,0Z" 
id="f1_e"
transform="scale(0.001,-0.001)" />

<path d="M180,0L66,836H203L258,443c0,0,36,1,64,6c0,0,28,6,49,18c0,0,20,12,35,26c0,0,15,13,26,36c0,0,11,24,17,44c0,0,7,20,12,55c0,0,6,34,9,60c0,0,3,26,8,71c0,0,4,45,9,77H610c0,0,-13,-194,-31,-271c0,0,-31,-127,-111,-179c0,0,-71,-45,-196,-50L304,107c0,0,73,0,130,5c0,0,56,6,111,21c0,0,54,15,94,40c0,0,40,25,77,64c0,0,37,39,63,94c0,0,25,54,46,128c0,0,21,73,34,166c0,0,13,94,20,211h138c0,0,-14,-124,-29,-218c0,0,-16,-94,-39,-179c0,0,-22,-85,-50,-146c0,0,-28,-61,-68,-112c0,0,-39,-51,-87,-84C744,97,696,65,632,42C632,42,568,19,492,10C492,10,417,0,320,0Z" 
id="f1_o"
transform="scale(0.001,-0.001)" />

<path d="M139,0V836H278V0Z" 
id="f1_c"
transform="scale(0.001,-0.001)" />

<path d="M66,0V107H554V452c0,0,0,56,-4,93c0,0,-4,37,-18,75c0,0,-14,38,-40,60c0,0,-26,22,-71,36c0,0,-45,13,-110,13H66V836H312c0,0,91,0,157,-17c0,0,66,-17,109,-49c0,0,44,-32,69,-84c0,0,26,-52,36,-114c0,0,10,-62,10,-147V107H817V0Z" 
id="f1_f"
transform="scale(0.001,-0.001)" />

<path d="M139,0V836H485c0,0,206,0,290,-90c0,0,84,-89,84,-294V0H721V473c0,0,0,147,-49,202c0,0,-48,54,-186,54H277V0Z" 
id="f1_h"
transform="scale(0.001,-0.001)" />

<path d="M66,0V106H564L66,836H228L516,413c0,0,3,2,9,6c0,0,17,13,27,21c0,0,10,8,26,27c0,0,17,20,26,40c0,0,9,21,16,54c0,0,7,34,7,75V836H764V698c0,0,0,-55,-7,-102c0,0,-7,-47,-16,-79c0,0,-10,-33,-27,-62c0,0,-18,-29,-32,-46c0,0,-14,-17,-37,-35c0,0,-22,-17,-36,-25c0,0,-13,-8,-36,-20L767,53V0Z" 
id="f1_s"
transform="scale(0.001,-0.001)" />

<path d="M117,-176L179,62V190H336V62L213,-176Z" 
id="f1_a"
transform="scale(0.001,-0.001)" />

<path d="M154,0V454l138,56V0ZM722,0V454c0,0,0,161,-49,218c0,0,-48,57,-186,57H139V836H485c0,0,207,0,291,-93c0,0,83,-94,83,-318V0Z" 
id="f1_3"
transform="scale(0.001,-0.001)" />

<path d="M138,-7c0,0,-34,0,-72,10V129c0,0,25,-8,52,-8c0,0,33,0,58,5c0,0,26,5,58,24c0,0,33,20,53,54c0,0,21,34,36,97c0,0,15,64,15,151c0,0,0,113,-19,173c0,0,-19,60,-56,82c0,0,-38,22,-107,22H89V836h72c0,0,165,0,240,-91c0,0,76,-91,76,-293c0,0,0,-107,26,-227c0,0,25,-119,83,-225H437c0,0,-43,101,-62,184c0,0,-24,-60,-51,-99c0,0,-26,-38,-56,-58C268,27,239,7,209,0c0,0,-30,-7,-71,-7Z" 
id="f1_j"
transform="scale(0.001,-0.001)" />

<path d="M585,0V426c0,0,0,54,-8,98c0,0,-8,44,-27,83c0,0,-19,40,-49,66c0,0,-30,26,-77,41c0,0,-47,15,-108,15H66V836H315c0,0,94,0,166,-20c0,0,71,-20,116,-54c0,0,46,-35,75,-88c0,0,28,-52,40,-112c0,0,12,-60,12,-137V0Z" 
id="f1_7"
transform="scale(0.001,-0.001)" />

<path d="M112,-5c0,0,-39,0,-97,11V113c0,0,48,-10,77,-10c0,0,53,0,70,42c0,0,17,43,17,164V729H50V836H501c0,0,107,0,179,-25c0,0,72,-25,112,-77c0,0,40,-51,57,-118c0,0,16,-67,16,-164V0H726V454c0,0,0,55,-3,92c0,0,-4,37,-17,75c0,0,-14,38,-38,59c0,0,-24,22,-65,36c0,0,-42,13,-102,13H318V309c0,0,0,-160,-46,-237C272,72,226,-5,112,-5Z" 
id="f1_b"
transform="scale(0.001,-0.001)" />

<path d="M522,-20c0,0,-196,0,-290,99c0,0,-94,100,-94,324V836H276V397c0,0,0,-86,16,-147c0,0,17,-60,50,-94c0,0,34,-34,77,-49c0,0,43,-15,103,-15c0,0,59,0,102,15c0,0,44,15,77,49c0,0,33,34,50,94c0,0,17,61,17,147c0,0,0,84,-8,143c0,0,-7,58,-25,105c0,0,-17,47,-51,69c0,0,-33,23,-83,23c0,0,-50,0,-119,-22V821c0,0,85,23,150,23c0,0,76,0,130,-30c0,0,53,-31,85,-90c0,0,31,-59,45,-138c0,0,13,-78,13,-183c0,0,0,-224,-93,-324c0,0,-94,-99,-290,-99Z" 
id="f1_k"
transform="scale(0.001,-0.001)" />

<path d="M139,0V138c0,0,0,61,8,112c0,0,7,52,19,87c0,0,11,36,30,66c0,0,19,31,35,49c0,0,17,19,41,35c0,0,25,17,41,25c0,0,17,7,40,17L141,836H303L613,388c0,0,20,10,33,18c0,0,13,8,34,28c0,0,20,20,33,44c0,0,13,25,22,66c0,0,10,41,10,92V836H882V698c0,0,0,-61,-7,-112c0,0,-6,-52,-18,-88c0,0,-12,-36,-30,-66c0,0,-19,-30,-36,-49c0,0,-17,-18,-41,-34c0,0,-24,-17,-40,-25c0,0,-17,-8,-41,-17L882,0H720L409,448c0,0,-21,-11,-34,-19c0,0,-13,-8,-34,-27c0,0,-21,-20,-34,-44c0,0,-12,-25,-22,-66c0,0,-9,-41,-9,-92V0Z" 
id="f1_9"
transform="scale(0.001,-0.001)" />

<path d="M736,107V473c0,0,0,147,-48,202c0,0,-49,54,-187,54H278V107ZM139,0V836H499c0,0,105,0,177,-22c0,0,72,-21,116,-69c0,0,44,-49,64,-119c0,0,19,-71,19,-174V0Z" 
id="f1_i"
transform="scale(0.001,-0.001)" />

<path d="M71,0V90H214v934H71v90H1073V851H970v160H502V654H792V796H895V411H792V552H502V103H984V263h102V0Z" 
id="f2_2"
transform="scale(0.001,-0.001)" />

<path d="M87,-338c0,0,-45,0,-94,7c0,0,-51,8,-105,22v168l84,-1c0,0,1,-59,23,-86c0,0,21,-26,70,-26c0,0,55,0,77,35c0,0,21,35,21,127V703H51v90H427V-92c0,0,0,-122,-86,-184c0,0,-86,-62,-254,-62ZM277,876c0,0,-61,0,-102,41c0,0,-42,41,-42,101c0,0,0,60,41,101c0,0,42,42,103,42c0,0,58,0,100,-42c0,0,42,-42,42,-101c0,0,0,-59,-42,-101c0,0,-41,-41,-100,-41Z" 
id="f2_3"
transform="scale(0.001,-0.001)" />

<path d="M612,448c0,0,0,156,-29,219c0,0,-29,63,-99,63c0,0,-68,0,-98,-61c0,0,-29,-62,-29,-208V448ZM488,-20c0,0,-205,0,-315,107C173,87,63,195,63,397c0,0,0,197,112,307c0,0,113,110,313,110c0,0,197,0,303,-115c0,0,105,-116,111,-340H357v-6c0,0,0,-154,46,-222c0,0,46,-68,149,-68c0,0,86,0,139,45c0,0,53,46,68,133H883C883,241,851,105,755,42c0,0,-95,-62,-267,-62Z" 
id="f2_4"
transform="scale(0.001,-0.001)" />

<path d="M53,0V90H165V703H44v90H429V652c0,0,39,83,103,123c0,0,64,39,156,39c0,0,24,0,57,-3c0,0,33,-3,76,-9V565H737c0,0,-4,63,-34,94c0,0,-30,31,-87,31c0,0,-87,0,-137,-76c0,0,-50,-76,-50,-211V90H573V0Z" 
id="f2_5"
transform="scale(0.001,-0.001)" />

<path d="M507,-20c0,0,-212,0,-328,108C179,88,63,198,63,397c0,0,0,197,114,307c0,0,115,110,320,110c0,0,82,0,167,-15c0,0,84,-16,171,-47V532H752c0,0,-12,101,-59,150c0,0,-47,48,-132,48c0,0,-111,0,-157,-74c0,0,-47,-75,-47,-259c0,0,0,-180,45,-257c0,0,46,-77,149,-77c0,0,80,0,128,47c0,0,48,48,58,137H861C861,247,833,112,745,45c0,0,-87,-65,-238,-65Z" 
id="f2_6"
transform="scale(0.001,-0.001)" />

<path d="M53,0V90H165V703H53v90H429V90H543V0ZM285,876c0,0,-61,0,-102,41c0,0,-42,41,-42,101c0,0,0,60,42,101c0,0,41,42,102,42c0,0,59,0,100,-42c0,0,41,-41,41,-101c0,0,0,-59,-41,-101c0,0,-41,-41,-100,-41Z" 
id="f2_7"
transform="scale(0.001,-0.001)" />

<path d="M510,63c0,0,84,0,118,71c0,0,34,72,34,263c0,0,0,191,-34,262c0,0,-33,71,-118,71c0,0,-84,0,-119,-72c0,0,-34,-72,-34,-261c0,0,0,-190,34,-262c0,0,35,-72,119,-72Zm0,-83c0,0,-209,0,-328,110C182,90,63,201,63,397c0,0,0,196,119,307c0,0,119,110,328,110c0,0,211,0,330,-110c0,0,118,-111,118,-307c0,0,0,-196,-119,-307C839,90,720,-20,510,-20Z" 
id="f2_8"
transform="scale(0.001,-0.001)" />

<path d="M209,0V90H418V992L187,854V966l279,168H701V90H910V0Z" 
id="f2_a"
transform="scale(0.001,-0.001)" />

<path d="M484,-20c0,0,-88,0,-182,14c0,0,-93,14,-195,44V283h90c0,0,8,-106,66,-162c0,0,58,-55,161,-55c0,0,113,0,175,63c0,0,62,63,62,178c0,0,0,121,-65,187c0,0,-64,65,-183,65H364v90h39c0,0,109,0,165,51c0,0,55,51,55,152c0,0,0,94,-52,145c0,0,-52,50,-149,50c0,0,-88,0,-139,-48c0,0,-52,-48,-62,-140H131v223c0,0,98,26,191,39c0,0,92,13,180,13c0,0,202,0,309,-72c0,0,108,-72,108,-206c0,0,0,-101,-62,-164c0,0,-62,-62,-181,-84c0,0,146,-23,217,-99c0,0,72,-76,72,-208c0,0,0,-156,-123,-239c0,0,-124,-82,-358,-82Z" 
id="f2_c"
transform="scale(0.001,-0.001)" />

<path d="M83,331V549H551V331Z" 
id="f3_k"
transform="scale(0.001,-0.001)" />

<path d="M114,0l60,312c0,0,2,12,8,39c0,0,6,27,7,37c0,0,2,11,5,30c0,0,2,19,4,33c0,0,1,15,1,31c0,0,0,48,-35,146c0,0,-35,98,-98,208H228c0,0,3,-8,27,-67c0,0,25,-58,41,-117c0,0,21,53,50,90c0,0,29,37,57,57c0,0,29,21,65,32c0,0,37,11,65,14c0,0,28,3,67,3c0,0,300,0,300,-396V0H480V106H761V452c0,0,0,146,-46,215c0,0,-45,70,-118,70c0,0,-134,0,-198,-119c0,0,-36,-68,-67,-222c0,0,-2,-10,-6,-27L253,0Z" 
id="f1_l"
transform="scale(0.001,-0.001)" />

<path d="M66,0V106H322c0,0,75,0,127,23c0,0,53,23,82,67c0,0,29,43,42,98c0,0,13,54,13,124c0,0,0,70,-13,124c0,0,-13,55,-42,98c0,0,-29,44,-82,67c0,0,-52,23,-127,23H66V836H322c0,0,87,0,157,-24c0,0,70,-24,115,-64c0,0,45,-40,74,-94c0,0,30,-55,43,-113c0,0,13,-59,13,-123c0,0,0,-64,-13,-123c0,0,-13,-58,-43,-113c0,0,-29,-54,-74,-94C594,88,549,48,479,24C479,24,409,0,322,0Z" 
id="f1_n"
transform="scale(0.001,-0.001)" />

<path d="M557,-14c0,0,-199,0,-298,89c0,0,-99,90,-99,255V941L32,960v40H432V960L304,941V341c0,0,0,-273,264,-273c0,0,144,0,220,68c0,0,77,68,77,202V941L730,960v40h341V960L943,941V344c0,0,0,-180,-99,-269c0,0,-99,-89,-287,-89Z" 
id="f0_12"
transform="scale(0.001,-0.001)" />

<path d="M191,-20c0,0,-39,0,-65,25c0,0,-25,27,-25,64c0,0,0,38,26,64c0,0,26,26,64,26c0,0,38,0,64,-26c0,0,26,-26,26,-64c0,0,0,-37,-25,-64c0,0,-26,-25,-65,-25Z" 
id="f0_13"
transform="scale(0.001,-0.001)" />

<path d="M679,178V467c0,0,0,110,-32,150c0,0,-31,41,-120,41H385V178ZM139,0V836H525c0,0,220,0,311,-90c0,0,90,-90,90,-297V0Z" 
id="f3_f"
transform="scale(0.001,-0.001)" />

<path d="M102,250V836H349V351L102,250Z" 
id="f3_g"
transform="scale(0.001,-0.001)" />

<path d="M248,0L521,658H66v429H313V836l493,-1V716L504,0Z" 
id="f3_h"
transform="scale(0.001,-0.001)" />

<path d="M66,0V177H334c0,0,99,0,150,66c0,0,51,67,51,175c0,0,0,108,-51,175c0,0,-51,66,-150,66H66V836H334c0,0,92,0,168,-24c0,0,75,-24,127,-64c0,0,51,-40,86,-94c0,0,35,-54,51,-113c0,0,15,-60,15,-123c0,0,0,-63,-15,-123c0,0,-16,-59,-51,-113c0,0,-35,-54,-86,-94C629,88,577,48,502,24C502,24,426,0,334,0Z" 
id="f3_i"
transform="scale(0.001,-0.001)" />

<path d="M173,-6C173,-6,61,-6,15,9V177c0,0,73,-10,82,-10c0,0,37,0,52,30c0,0,14,29,14,116V658H18V836H516c0,0,262,0,341,-145c0,0,48,-89,48,-242V0H658V450c0,0,0,131,-37,171c0,0,-34,37,-105,37H411V313c0,0,0,-189,-67,-258C344,55,285,-6,173,-6Z" 
id="f3_j"
transform="scale(0.001,-0.001)" />

<path d="M534,0V425c0,0,0,109,-41,171c0,0,-41,62,-140,62H66V836H352c0,0,99,0,174,-20c0,0,75,-20,123,-55c0,0,48,-35,78,-87c0,0,30,-53,42,-113c0,0,12,-60,12,-136V0Z" 
id="f3_4"
transform="scale(0.001,-0.001)" />

<path d="M139,0V836H386V0Z" 
id="f3_b"
transform="scale(0.001,-0.001)" />

<path d="M143,0V355c0,0,0,103,26,191c0,0,26,88,79,112H66V836H546V658H484c0,0,-30,0,-50,-24c0,0,-20,-24,-29,-67c0,0,-9,-42,-12,-81c0,0,-3,-39,-3,-89V0Z" 
id="f3_c"
transform="scale(0.001,-0.001)" />

<path d="M159,0V165c0,0,0,69,13,124c0,0,12,55,29,89c0,0,17,33,45,62c0,0,29,28,50,42c0,0,22,14,54,30L128,836H405L666,460c0,0,41,48,41,155V836H952V671c0,0,0,-50,-6,-93c0,0,-6,-42,-16,-73c0,0,-10,-30,-26,-57c0,0,-17,-27,-31,-44c0,0,-15,-17,-37,-33c0,0,-22,-16,-38,-25c0,0,-15,-9,-38,-21L984,0H706L445,376c0,0,-41,-48,-41,-155V0Z" 
id="f3_s"
transform="scale(0.001,-0.001)" />

<path d="M137,0L30,830H277L321,522c0,0,68,3,96,27c0,0,27,23,38,58c0,0,26,74,31,228H733c0,0,-31,-218,-70,-316c0,0,-23,-59,-88,-100c0,0,-54,-34,-116,-42c0,0,-62,-8,-117,-8L362,178c0,0,27,-1,61,-1c40,0,89,1,119,6c0,0,57,8,94,25c0,0,37,18,69,47c0,0,32,30,60,79c0,0,28,48,51,117c0,0,48,143,82,384h248c0,0,-53,-404,-172,-586C974,249,879,103,745,51C745,51,613,0,318,0Z" 
id="f3_q"
transform="scale(0.001,-0.001)" />

<path d="M129,0l69,362c0,0,10,56,12,100c0,0,0,84,-27,159c0,0,-27,76,-117,215H322c0,0,9,-6,31,-79c0,0,23,-72,23,-105c0,0,23,82,100,138c0,0,77,57,160,57c0,0,332,0,332,-397V0H538V177H721V449c0,0,0,124,-20,170c0,0,-20,47,-82,47c0,0,-23,0,-43,-9c0,0,-19,-10,-34,-23c0,0,-14,-14,-27,-39c0,0,-13,-25,-22,-46c0,0,-8,-22,-17,-57c0,0,-9,-36,-15,-61c0,0,-5,-24,-13,-65L375,0Z" 
id="f3_9"
transform="scale(0.001,-0.001)" />

<path d="M153,0V437L399,539V0ZM664,0V450c0,0,0,122,-31,165c0,0,-31,43,-121,43H138V836H511c0,0,113,0,188,-22c0,0,75,-23,123,-73c0,0,47,-51,68,-127c0,0,20,-76,20,-189V0Z" 
id="f3_7"
transform="scale(0.001,-0.001)" />

<path d="M543,-317V369c0,0,0,85,-8,143c0,0,-8,58,-27,101c0,0,-18,44,-51,69c0,0,-33,24,-80,36c0,0,-48,11,-117,11H66V836H257c0,0,125,0,205,-23c0,0,80,-23,130,-79c0,0,50,-56,70,-143c0,0,20,-86,20,-222V-317Z" 
id="f1_u"
transform="scale(0.001,-0.001)" />

<path d="M159,-329c0,0,-61,0,-123,14v180H81l32,-94c0,0,21,-17,55,-17c0,0,28,0,50,13c0,0,21,14,40,39c0,0,20,25,37,62c0,0,17,37,50,110L64,634L15,652v49H374V652L290,632L455,244L602,634l-82,18v49H749V652L698,637L421,-44c0,0,-47,-121,-83,-176c0,0,-36,-55,-80,-82c0,0,-43,-27,-99,-27Z" 
id="f4_k"
transform="scale(0.001,-0.001)" />

<path d="M379,60c0,0,59,0,84,64c0,0,24,65,24,231c0,0,0,164,-24,227c0,0,-24,63,-84,63c0,0,-57,0,-80,-60c0,0,-22,-61,-22,-230c0,0,0,-173,23,-234c0,0,22,-61,79,-61Zm-2,-74c0,0,-161,0,-240,91c0,0,-79,91,-79,277c0,0,0,186,80,276c0,0,81,90,245,90c0,0,167,0,245,-93c0,0,78,-93,78,-273c0,0,0,-188,-81,-278c0,0,-81,-90,-248,-90Z" 
id="f4_4"
transform="scale(0.001,-0.001)" />

<path d="M41,0V49l69,18V634L41,652v49H313l11,-61l50,26c0,0,105,54,188,54c0,0,125,0,167,-91c0,0,153,91,258,91c0,0,189,0,189,-207V67l71,-17V0H898V50l63,17V484c0,0,0,63,-24,98c0,0,-25,35,-74,35c0,0,-55,0,-119,-31c0,0,7,-32,7,-73V67L821,50V0H473V50l63,17V484c0,0,0,63,-25,98c0,0,-24,35,-73,35c0,0,-49,0,-113,-29V67L389,49V0Z" 
id="f4_6"
transform="scale(0.001,-0.001)" />

<path d="M434,423c0,0,0,101,-7,142c0,0,-6,40,-22,60c0,0,-16,19,-45,19c0,0,-44,0,-66,-48c0,0,-22,-49,-22,-173ZM389,-14c0,0,-172,0,-254,89c0,0,-83,90,-83,279c0,0,0,184,79,274c0,0,79,91,238,91c0,0,142,0,206,-76c0,0,64,-76,64,-237V345H271V333c0,0,0,-111,18,-158c0,0,18,-47,58,-72c0,0,40,-25,110,-25c0,0,66,0,166,22V42C623,42,582,18,517,1c0,0,-66,-15,-128,-15Z" 
id="f4_g"
transform="scale(0.001,-0.001)" />

<path d="M327,-14c0,0,-101,0,-156,45c0,0,-55,45,-55,131V624H25v48l108,29l87,159H332V701H480V624H332V176c0,0,0,-49,20,-73c0,0,20,-25,53,-25c0,0,40,0,97,12V26c0,0,-22,-15,-76,-27c0,0,-55,-13,-99,-13Z" 
id="f4_h"
transform="scale(0.001,-0.001)" />

<path d="M287,-18c0,0,-194,0,-194,206V634L23,652v49H309V217c0,0,0,-63,26,-98c0,0,27,-35,76,-35c0,0,57,0,113,26V634l-64,18v49H740V67L809,49V0H536L526,61L475,35c0,0,-104,-53,-188,-53Zm23,852v25l124,203H647v-28L374,834Z" 
id="f4_n"
transform="scale(0.001,-0.001)" />

<path d="M495,413c0,0,0,133,-34,190c0,0,-34,57,-105,57c0,0,-78,0,-119,-62c0,0,-42,-63,-42,-185ZM374,-14c0,0,-163,0,-239,87c0,0,-75,88,-75,283c0,0,0,183,77,274c0,0,76,90,219,90c0,0,269,0,269,-306V353H194V339c0,0,0,-103,23,-160c0,0,22,-57,70,-86c0,0,47,-30,124,-30c0,0,40,0,96,6c0,0,55,7,91,15V43C598,43,562,19,500,2c0,0,-61,-16,-126,-16ZM285,835v24l146,203H590v-27L326,835Z" 
id="f0_j"
transform="scale(0.001,-0.001)" />

<path d="M31,0V33L150,52v956L31,1026v34H274V52L394,33V0Z" 
id="f0_7"
transform="scale(0.001,-0.001)" />

<path d="M0,-14L351,1007h73L75,-14Z" 
id="f0_11"
transform="scale(0.001,-0.001)" />

<path d="M377,45c0,0,99,0,147,73c0,0,47,73,47,237c0,0,0,161,-47,233c0,0,-47,72,-147,72c0,0,-97,0,-141,-69c0,0,-44,-69,-44,-236c0,0,0,-169,45,-240c0,0,44,-70,140,-70Zm0,-59c0,0,-158,0,-238,94c0,0,-81,95,-81,274c0,0,0,178,81,272c0,0,80,94,244,94c0,0,160,0,241,-92c0,0,82,-92,82,-274c0,0,0,-368,-329,-368Z" 
id="f0_9"
transform="scale(0.001,-0.001)" />

<path d="M49,-325v63c0,0,85,49,140,128c0,0,56,79,83,194c0,0,26,115,26,308c0,0,0,196,-25,305c0,0,-25,109,-79,190c0,0,-54,82,-145,134v63c0,0,149,-80,232,-172c0,0,83,-92,122,-217c0,0,39,-125,39,-303c0,0,0,-177,-39,-303c0,0,-39,-125,-122,-217c0,0,-83,-93,-232,-173Z" 
id="f0_1u"
transform="scale(0.001,-0.001)" />

<path d="M460,-325c0,0,-148,79,-231,172c0,0,-84,93,-123,217c0,0,-39,126,-39,304c0,0,0,178,39,303c0,0,39,125,122,217c0,0,82,93,232,172V997c0,0,-91,-52,-145,-134c0,0,-54,-81,-79,-190c0,0,-25,-109,-25,-305c0,0,0,-194,26,-309c0,0,26,-114,82,-193c0,0,56,-79,141,-128v-63Z" 
id="f0_1s"
transform="scale(0.001,-0.001)" />

<path d="M41,0V49l69,18V634L41,652v49H313l11,-61l50,26c0,0,105,54,188,54c0,0,194,0,194,-207V67L827,49V0H478V49l63,18V484c0,0,0,63,-27,98c0,0,-26,35,-75,35c0,0,-57,0,-114,-25V67L389,49V0Z" 
id="f4_2"
transform="scale(0.001,-0.001)" />

<path d="M276,-14c0,0,-57,0,-125,13C151,-1,83,10,48,23V214H97l28,-98c0,0,26,-26,69,-44c0,0,42,-17,86,-17c0,0,65,0,97,28c0,0,32,28,32,71c0,0,0,41,-31,65c0,0,-30,25,-133,57c0,0,-108,34,-154,92c0,0,-45,58,-45,143c0,0,0,95,71,152c0,0,71,57,183,57c0,0,77,0,207,-22V518H457l-24,82c0,0,-21,22,-60,35c0,0,-40,14,-75,14c0,0,-53,0,-79,-22c0,0,-26,-22,-26,-59c0,0,0,-40,32,-65c0,0,32,-26,132,-55c0,0,109,-34,155,-89c0,0,45,-55,45,-137c0,0,0,-117,-72,-177c0,0,-72,-59,-209,-59Z" 
id="f4_e"
transform="scale(0.001,-0.001)" />

<path d="M41,0V49l91,18V634L41,652v49H336l8,-145c0,0,80,89,144,128c0,0,64,40,117,40h40V468H604l-45,94c0,0,-47,0,-106,-21c0,0,-60,-20,-105,-48V67L460,49V0Z" 
id="f4_5"
transform="scale(0.001,-0.001)" />

<path d="M-14,-14L336,1006H440L90,-14Z" 
id="f4_o"
transform="scale(0.001,-0.001)" />

<path d="M345,75c0,0,50,0,110,26V351l-63,-2c0,0,-72,-3,-100,-38c0,0,-28,-35,-28,-113c0,0,0,-63,22,-93c0,0,23,-30,59,-30ZM266,-14c0,0,-217,0,-217,208c0,0,0,79,32,126c0,0,32,48,93,71c0,0,60,22,190,25l91,2V521c0,0,0,126,-104,126c0,0,-62,0,-140,-39L183,521H134V691c0,0,112,17,165,21c0,0,53,5,108,5c0,0,264,0,264,-194V67L741,49V0H483L466,54C466,54,408,14,361,0c0,0,-47,-14,-95,-14Z" 
id="f4_7"
transform="scale(0.001,-0.001)" />

<path d="M122,-200c0,0,99,170,148,338c0,0,49,169,49,342c0,0,0,172,-49,340c0,0,-49,168,-148,340H241c0,0,112,-176,168,-345c0,0,55,-169,55,-335c0,0,0,-167,-55,-337c0,0,-56,-168,-168,-343Z" 
id="f1_y"
transform="scale(0.001,-0.001)" />

<path d="M71,-141V-15L289,62L66,836H210L416,109c0,0,99,42,153,98c0,0,53,56,80,155c0,0,26,98,26,262V836H817V624c0,0,0,-88,-7,-154c0,0,-7,-67,-25,-132c0,0,-18,-66,-51,-116c0,0,-33,-51,-84,-98c0,0,-50,-48,-123,-87c0,0,-72,-39,-169,-74L71,-141Z" 
id="f1_p"
transform="scale(0.001,-0.001)" />

<path d="M139,0V106H400c0,0,176,0,253,71c0,0,78,72,78,250c0,0,0,163,-80,233c0,0,-81,69,-250,69H278L277,564c0,0,-1,-54,26,-80c0,0,27,-25,82,-25c0,0,30,0,80,9V355c0,0,-61,-12,-111,-12c0,0,-100,0,-157,55c0,0,-58,55,-58,186V836H456c0,0,193,0,303,-109c0,0,110,-109,110,-309c0,0,0,-200,-110,-309C759,109,648,0,456,0Z" 
id="f1_8"
transform="scale(0.001,-0.001)" />

<path d="M700,-317V454c0,0,0,155,-54,215c0,0,-54,60,-180,60H277V551c0,0,0,-55,26,-80c0,0,27,-26,82,-26c0,0,30,0,80,10V341c0,0,-61,-11,-111,-11c0,0,-100,0,-157,55c0,0,-58,55,-58,186V836H466c0,0,203,0,288,-91c0,0,85,-92,85,-293V-317Z" 
id="f1_10"
transform="scale(0.001,-0.001)" />

<path d="M66,0V107H332V555c0,0,0,92,-37,133c0,0,-37,41,-116,41H85V836h94c0,0,153,0,223,-66c0,0,69,-66,69,-231V0Z" 
id="f1_d"
transform="scale(0.001,-0.001)" />

<path d="M399,-14c0,0,-341,0,-341,370c0,0,0,175,87,269c0,0,87,95,249,95c0,0,101,0,220,-23V501H573L541,625c0,0,-62,35,-149,35c0,0,-200,0,-200,-304c0,0,0,-158,61,-225c0,0,61,-67,189,-67c0,0,109,0,189,24V43C631,43,595,16,530,1c0,0,-64,-15,-131,-15Z" 
id="f0_f"
transform="scale(0.001,-0.001)" />

<path d="M377,44c0,0,99,0,147,73c0,0,47,73,47,237c0,0,0,161,-47,234c0,0,-47,72,-147,72c0,0,-97,0,-141,-69c0,0,-44,-70,-44,-237c0,0,0,-169,45,-239c0,0,44,-71,140,-71Zm0,-58c0,0,-158,0,-238,94c0,0,-81,95,-81,274c0,0,0,178,81,272c0,0,80,94,244,94c0,0,160,0,241,-92c0,0,82,-92,82,-274c0,0,0,-368,-329,-368ZM301,835v24l147,203H606v-27L342,835Z" 
id="f0_g"
transform="scale(0.001,-0.001)" />

<path d="M431,0V33L535,52V499c0,0,0,62,-32,96c0,0,-32,33,-95,33c0,0,-66,0,-163,-22V52L350,33V0H32V33l89,19V649L32,668v33H237l6,-57c0,0,56,32,119,54c0,0,62,22,110,22c0,0,52,0,95,-20c0,0,44,-19,66,-62c0,0,57,32,134,57c0,0,77,25,128,25c0,0,179,0,179,-207V52l90,-19V0H846V33L950,52V499c0,0,0,129,-119,129c0,0,-19,0,-45,-3c0,0,-26,-3,-52,-7c0,0,-25,-4,-49,-8c0,0,-23,-5,-39,-8c0,0,13,-41,13,-89V52L764,33V0Z" 
id="f0_i"
transform="scale(0.001,-0.001)" />

<path d="M31,0V33l88,19V649L31,668v33H235l7,-87c0,0,44,37,121,71c0,0,76,35,121,35h11V530H463l-43,82c0,0,-37,0,-88,-10c0,0,-52,-10,-89,-26V52L363,33V0Z" 
id="f0_c"
transform="scale(0.001,-0.001)" />

<path d="M254,-20c0,0,-39,0,-65,25c0,0,-26,27,-26,64c0,0,0,38,26,64c0,0,27,26,65,26c0,0,38,0,64,-26c0,0,26,-26,26,-64c0,0,0,-37,-26,-64c0,0,-26,-25,-64,-25ZM219,290l-47,710H335L289,290Z" 
id="f0_1v"
transform="scale(0.001,-0.001)" />

<path d="M58,-234v58c0,0,131,42,131,125c0,0,0,15,-11,27c0,0,-11,12,-38,25C140,1,89,27,89,75c0,0,0,40,25,61c0,0,26,21,65,21c0,0,48,0,77,-34c0,0,30,-34,30,-86c0,0,0,-101,-60,-170c0,0,-59,-69,-168,-101Z" 
id="f0_z"
transform="scale(0.001,-0.001)" />

<path d="M163,0V190H321V0Z" 
id="f1_m"
transform="scale(0.001,-0.001)" />

<path d="M354,-200c0,0,-112,175,-167,343c0,0,-56,170,-56,337c0,0,0,166,55,335c0,0,55,169,168,345H473c0,0,-100,-172,-148,-340c0,0,-48,-168,-48,-340c0,0,0,-173,48,-342c0,0,49,-168,148,-338Z" 
id="f1_x"
transform="scale(0.001,-0.001)" />

<path d="M139,-317V836H278V-317Z" 
id="f1_t"
transform="scale(0.001,-0.001)" />

<path d="M152,0V473c0,0,0,94,28,161c0,0,29,66,71,95H66V836H463V729H404c0,0,-65,0,-89,-57c0,0,-25,-58,-25,-199V0Z" 
id="f1_4"
transform="scale(0.001,-0.001)" />

<path d="M439,0V33l93,19V500c0,0,0,62,-30,97c0,0,-31,36,-94,36c0,0,-67,0,-165,-22V52L338,33V0H35V33l84,19V649L35,668v33H235l7,-57c0,0,57,33,122,54c0,0,65,22,108,22c0,0,91,0,137,-53c0,0,47,-53,47,-154V52L741,33V0Z" 
id="f0_8"
transform="scale(0.001,-0.001)" />

<path d="M528,389V930L196,389ZM363,0V90H528V293H63v86l466,755H810V389h190V293H810V90H975V0Z" 
id="f2_g"
transform="scale(0.001,-0.001)" />

<path d="M529,65c0,0,183,0,270,108c0,0,87,108,87,334c0,0,0,210,-113,318c0,0,-113,108,-322,108H316V71c0,0,90,-6,213,-6Zm0,-67L172,0H44V40L172,60V941L44,960v40H498c0,0,277,0,411,-123c0,0,133,-124,133,-371c0,0,0,-251,-129,-380C913,126,785,-2,529,-2Z" 
id="f0_16"
transform="scale(0.001,-0.001)" />

<path d="M32,0V33L151,52V649L52,668v33H275V52L395,33V0ZM201,850c0,0,-32,0,-56,24c0,0,-24,24,-24,56c0,0,0,34,24,58c0,0,24,24,56,24c0,0,34,0,58,-24c0,0,24,-24,24,-58c0,0,0,-32,-24,-56c0,0,-24,-24,-58,-24Z" 
id="f0_e"
transform="scale(0.001,-0.001)" />

<path d="M64,-325c0,0,-46,0,-107,14v148H-8l19,-81c0,0,25,-21,62,-21c0,0,44,0,67,47c0,0,22,47,22,152V649L57,668v33H286V-28c0,0,0,-146,-57,-221c0,0,-56,-76,-165,-76ZM213,850c0,0,-34,0,-58,24c0,0,-24,24,-24,56c0,0,0,34,24,58c0,0,24,24,58,24c0,0,32,0,56,-24c0,0,24,-24,24,-58c0,0,0,-32,-24,-56c0,0,-24,-24,-56,-24Z" 
id="f0_u"
transform="scale(0.001,-0.001)" />

<path d="M359,-270c0,0,124,0,192,46c0,0,67,47,67,129c0,0,0,43,-26,67c0,0,-26,24,-79,24H242c0,0,-32,-27,-51,-69c0,0,-20,-41,-20,-77c0,0,0,-64,46,-92c0,0,46,-28,142,-28Zm11,561c0,0,81,0,115,47c0,0,34,47,34,141c0,0,0,100,-35,142c0,0,-35,42,-113,42c0,0,-78,0,-114,-43c0,0,-37,-42,-37,-141c0,0,0,-98,36,-143c0,0,36,-45,114,-45ZM359,-329c0,0,-143,0,-218,44c0,0,-75,43,-75,125c0,0,0,39,27,78c0,0,26,38,98,89c0,0,-43,14,-72,48c0,0,-29,35,-29,74L208,262c0,0,-118,55,-118,217c0,0,0,115,73,178c0,0,73,63,211,63c0,0,28,0,71,-6c0,0,44,-6,67,-13l165,83l26,-32L599,644c0,0,50,-56,50,-165c0,0,0,-120,-72,-182c0,0,-73,-62,-208,-62c0,0,-62,0,-114,11L208,148c0,0,2,-13,29,-24c0,0,27,-12,67,-12H512c0,0,113,0,168,-49c0,0,55,-49,55,-134c0,0,0,-79,-44,-137c0,0,-43,-58,-128,-90c0,0,-84,-31,-204,-31Z" 
id="f0_n"
transform="scale(0.001,-0.001)" />

<path d="M235,0V40L394,60V936H356c0,0,-189,0,-258,-15L78,766H28v234H908V766H857L837,921c0,0,-22,5,-98,9c0,0,-75,4,-165,4H538V60L697,40V0Z" 
id="f0_1k"
transform="scale(0.001,-0.001)" />

<path d="M284,67c0,0,51,0,88,12c0,0,37,11,74,29V357l-98,-3c0,0,-100,-3,-135,-38c0,0,-35,-36,-35,-118c0,0,0,-131,106,-131ZM233,-14c0,0,-179,0,-179,208c0,0,0,70,27,116c0,0,27,46,87,70c0,0,60,24,173,27l105,3V519c0,0,0,73,-26,107c0,0,-27,34,-82,34c0,0,-75,0,-137,-35L176,538H134V691c0,0,121,26,213,26c0,0,115,0,169,-47c0,0,54,-47,54,-144V52L657,34V0H465L451,70c0,0,-85,-84,-218,-84Zm22,849v24l146,203H560v-27L296,835Z" 
id="f0_y"
transform="scale(0.001,-0.001)" />

<path d="M617,0L251,860V60L385,40V0H44V40L172,60V941L44,960v40H347L672,239l355,761h287V960L1185,941V60L1314,40V0H908V40l134,20V859L643,0Z" 
id="f0_1r"
transform="scale(0.001,-0.001)" />

<path d="M148,-329c0,0,-58,0,-114,13v151H69l24,-71c0,0,23,-17,64,-17c0,0,39,0,72,22c0,0,33,23,60,67c0,0,27,44,68,157L90,649L19,668v33H344V668L233,648L423,158L606,649L497,668v33H758V668L685,652L411,-43c0,0,-48,-124,-84,-177c0,0,-36,-54,-79,-82c0,0,-44,-27,-100,-27Z" 
id="f0_10"
transform="scale(0.001,-0.001)" />

<path d="M868,0L251,900V60L385,40V0H44V40L172,60V941L44,960v40H347L862,259V941L727,960v40h341V960L940,941V0Z" 
id="f0_14"
transform="scale(0.001,-0.001)" />

<path d="M44,0V40L172,60V941L44,960v40H471V960L316,941V65H513c0,0,159,0,234,14l46,208h48L828,0Z" 
id="f0_1l"
transform="scale(0.001,-0.001)" />

<path d="M360,-14L72,649L0,668v33H327V668L216,648L420,164L615,649L504,668v33H764V668L697,652L416,-14Z" 
id="f0_r"
transform="scale(0.001,-0.001)" />

<path d="M44,0V40L172,60V941L44,960v40H794V760H745L721,922c0,0,-83,11,-241,11H316V543H586l23,119h48V354H609L586,475H316V67H513c0,0,193,0,252,12l43,185h49L843,0Z" 
id="f0_1e"
transform="scale(0.001,-0.001)" />

<path d="M64,0V34L168,59V639H47v36l121,29v49c0,0,0,155,61,239c0,0,62,84,173,84c0,0,58,0,107,-15V908H472l-33,92c0,0,-26,16,-62,16c0,0,-47,0,-66,-42c0,0,-19,-42,-19,-157V701H478V639H292V59L443,34V0Z" 
id="f0_s"
transform="scale(0.001,-0.001)" />

<path d="M66,0V178H507V449c0,0,0,43,-2,71c0,0,-3,28,-12,56c0,0,-9,28,-26,45c0,0,-17,16,-47,27c0,0,-29,10,-72,10H66V836H349c0,0,97,0,167,-17c0,0,71,-17,117,-49c0,0,46,-32,73,-84c0,0,27,-52,38,-114c0,0,11,-62,11,-147V178H866V0Z" 
id="f3_l"
transform="scale(0.001,-0.001)" />

<path d="M150,-366V437L396,539V-366ZM499,0L727,658H139V835h870V716L754,0Z" 
id="f3_3"
transform="scale(0.001,-0.001)" />

<path d="M453,0V658H66V836H833V658H700V0Z" 
id="f3_n"
transform="scale(0.001,-0.001)" />

<path d="M84,-153V45l189,68L66,836H321L497,205c0,0,72,50,101,138c0,0,30,88,30,261V836H878V604c0,0,0,-84,-7,-147c0,0,-7,-63,-25,-126c0,0,-19,-62,-51,-111c0,0,-33,-48,-82,-94c0,0,-50,-45,-122,-84C591,42,519,3,423,-30L84,-153Z" 
id="f3_8"
transform="scale(0.001,-0.001)" />

<path d="M147,700v414H274V700Zm282,0v414H556V700Z" 
id="f1_12"
transform="scale(0.001,-0.001)" />

<path d="M578,0V416H162V543H578V958H703V543h416V416H703V0Z" 
id="f1_16"
transform="scale(0.001,-0.001)" />


</defs>
</svg>