<?xml version="1.0" encoding="UTF-8" standalone="no"?>
<!DOCTYPE svg PUBLIC "-//W3C//DTD SVG 1.1//EN"
"http://www.w3.org/Graphics/SVG/1.1/DTD/svg11.dtd">
<svg viewBox="0 0 909 1286" version="1.1" xmlns="http://www.w3.org/2000/svg" xmlns:xlink="http://www.w3.org/1999/xlink">
<defs>
<clipPath id="c0_4"><path d="M0,1286.2V0H909.4V1286.2Z" /></clipPath>
<style type="text/css"><![CDATA[
.g0_4{
fill: none;
stroke: #000000;
stroke-width: 1.1458334;
stroke-linecap: butt;
stroke-linejoin: round;
}
.g1_4{
fill: none;
stroke: #000000;
stroke-width: 1.0694444;
stroke-linecap: butt;
stroke-linejoin: miter;
}
.g2_4{
fill: none;
stroke: #000000;
stroke-width: 0.7638889;
stroke-linecap: butt;
stroke-linejoin: round;
}
]]></style>
</defs>
<path d="M132.1,110.6h640m-640,50.9h640m-640,50.9h640M132.6,110V212.9M316.7,110V212.9M446.6,110V212.9M609.1,110V212.9M771.5,110V212.9" class="g0_4" />
<g clip-path="url(#c0_4)">
<g fill="#000000" >
<use xlink:href="#f0_9" transform="matrix(12,0,0,12,617.8,128.2)" />
<use xlink:href="#f0_q" transform="matrix(12,0,0,12,628.2,128.2)" />
<use xlink:href="#f0_1b" transform="matrix(12,0,0,12,667.5,128.2)" />
<use xlink:href="#f0_8" transform="matrix(12,0,0,12,701,128.2)" />
<use xlink:href="#f0_d" transform="matrix(12,0,0,12,713.1,128.2)" />
<use xlink:href="#f0_b" transform="matrix(12,0,0,12,717.2,128.2)" />
<use xlink:href="#f0_k" transform="matrix(12,0,0,12,724.5,128.2)" />
<use xlink:href="#f0_e" transform="matrix(12,0,0,12,734.2,128.2)" />
<use xlink:href="#f0_8" transform="matrix(12,0,0,12,739.2,128.2)" />
<use xlink:href="#f0_3" transform="matrix(12,0,0,12,751.2,128.2)" />
<use xlink:href="#f0_3" transform="matrix(12,0,0,12,694.2,149.6)" />
<use xlink:href="#f0_w" transform="matrix(12,0,0,12,707.2,149.6)" />
<use xlink:href="#f0_7" transform="matrix(12,0,0,12,706.1,149.6)" />
<use xlink:href="#f0_w" transform="matrix(12,0,0,12,717.3,149.6)" />
<use xlink:href="#f0_j" transform="matrix(12,0,0,12,718.5,149.6)" />
<use xlink:href="#f0_10" transform="matrix(12,0,0,12,727.2,149.6)" />
<use xlink:href="#f0_r" transform="matrix(12,0,0,12,728.9,149.6)" />
<use xlink:href="#f0_x" transform="matrix(12,0,0,12,736.3,149.6)" />
<use xlink:href="#f0_e" transform="matrix(12,0,0,12,736.3,149.6)" />
<use xlink:href="#f0_j" transform="matrix(12,0,0,12,741.4,149.6)" />
<use xlink:href="#f0_10" transform="matrix(12,0,0,12,751.1,149.6)" />
<use xlink:href="#f0_12" transform="matrix(12,0,0,12,752.8,149.6)" />
<use xlink:href="#f0_g" transform="matrix(12,0,0,12,751.7,149.6)" />
<use xlink:href="#f1_x" transform="matrix(11,0,0,11,455.6,126.8)" />
<use xlink:href="#f1_j" transform="matrix(11,0,0,11,469.5,126.8)" />
<use xlink:href="#f2_1c" transform="matrix(11,0,0,11,477.9,126.8)" />
<use xlink:href="#f2_e" transform="matrix(11,0,0,11,503.5,126.8)" />
<use xlink:href="#f2_5" transform="matrix(11,0,0,11,511,126.8)" />
<use xlink:href="#f2_x" transform="matrix(11,0,0,11,519.8,126.8)" />
<use xlink:href="#f2_u" transform="matrix(11,0,0,11,528.2,126.8)" />
<use xlink:href="#f2_4" transform="matrix(11,0,0,11,533.8,126.8)" />
<use xlink:href="#f2_y" transform="matrix(11,0,0,11,542.2,126.8)" />
<use xlink:href="#f2_u" transform="matrix(11,0,0,11,550.6,126.8)" />
<use xlink:href="#f2_6" transform="matrix(11,0,0,11,556.1,126.8)" />
<use xlink:href="#f1_x" transform="matrix(11,0,0,11,563.8,126.8)" />
<use xlink:href="#f1_j" transform="matrix(11,0,0,11,577.8,126.8)" />
<use xlink:href="#f0_3" transform="matrix(12,0,0,12,325.7,128.2)" />
<use xlink:href="#f0_9" transform="matrix(12,0,0,12,337.6,128.2)" />
<use xlink:href="#f0_1b" transform="matrix(12,0,0,12,357,128.2)" />
<use xlink:href="#f0_3" transform="matrix(12,0,0,12,372.7,128.2)" />
<use xlink:href="#f0_d" transform="matrix(12,0,0,12,384.6,128.2)" />
<use xlink:href="#f0_l" transform="matrix(12,0,0,12,388.7,128.2)" />
<use xlink:href="#f0_d" transform="matrix(12,0,0,12,395,128.2)" />
<use xlink:href="#f0_e" transform="matrix(12,0,0,12,399.1,128.2)" />
<use xlink:href="#f0_9" transform="matrix(12,0,0,12,404.1,128.2)" />
<use xlink:href="#f0_z" transform="matrix(12,0,0,12,414.5,128.2)" />
<use xlink:href="#f0_3" transform="matrix(12,0,0,12,426.4,128.2)" />
<use xlink:href="#f0_m" transform="matrix(12,0,0,12,381.2,149.6)" />
<use xlink:href="#f0_x" transform="matrix(12,0,0,12,386.1,149.6)" />
<use xlink:href="#f0_e" transform="matrix(12,0,0,12,386.1,149.6)" />
<use xlink:href="#f0_d" transform="matrix(12,0,0,12,391.1,149.6)" />
<use xlink:href="#f0_10" transform="matrix(12,0,0,12,396.4,149.6)" />
<use xlink:href="#f0_f" transform="matrix(12,0,0,12,395.2,149.6)" />
<use xlink:href="#f0_d" transform="matrix(12,0,0,12,407.1,149.6)" />
<use xlink:href="#f0_13" transform="matrix(12,0,0,12,407.7,149.6)" />
<use xlink:href="#f0_e" transform="matrix(12,0,0,12,411.2,149.6)" />
<use xlink:href="#f0_11" transform="matrix(12,0,0,12,414.6,149.6)" />
<use xlink:href="#f0_9" transform="matrix(12,0,0,12,416.1,149.6)" />
<use xlink:href="#f0_11" transform="matrix(12,0,0,12,426.9,149.6)" />
<use xlink:href="#f0_z" transform="matrix(12,0,0,12,426.4,149.6)" />
<use xlink:href="#f1_11" transform="matrix(11,0,0,11,141.5,126.8)" />
<use xlink:href="#f1_r" transform="matrix(11,0,0,11,148,126.8)" />
<use xlink:href="#f1_z" transform="matrix(11,0,0,11,152.7,126.8)" />
<use xlink:href="#f1_v" transform="matrix(11,0,0,11,161.2,126.8)" />
<use xlink:href="#f2_1c" transform="matrix(11,0,0,11,170.5,126.8)" />
<use xlink:href="#f2_5" transform="matrix(11,0,0,11,196.1,126.8)" />
<use xlink:href="#f2_6" transform="matrix(11,0,0,11,200.7,126.8)" />
<use xlink:href="#f2_g" transform="matrix(11,0,0,11,212.4,126.8)" />
<use xlink:href="#f2_e" transform="matrix(11,0,0,11,217,126.8)" />
<use xlink:href="#f2_5" transform="matrix(11,0,0,11,224.5,126.8)" />
<use xlink:href="#f2_e" transform="matrix(11,0,0,11,229.2,126.8)" />
<use xlink:href="#f2_v" transform="matrix(11,0,0,11,236.7,126.8)" />
<use xlink:href="#f2_s" transform="matrix(11,0,0,11,244.9,126.8)" />
<use xlink:href="#f1_11" transform="matrix(11,0,0,11,249.8,126.8)" />
<use xlink:href="#f1_r" transform="matrix(11,0,0,11,256.3,126.8)" />
<use xlink:href="#f1_z" transform="matrix(11,0,0,11,261.1,126.8)" />
<use xlink:href="#f1_v" transform="matrix(11,0,0,11,269.5,126.8)" />
<use xlink:href="#f0_9" transform="matrix(12,0,0,12,634.5,179.1)" />
<use xlink:href="#f0_x" transform="matrix(12,0,0,12,644.9,179.1)" />
<use xlink:href="#f0_e" transform="matrix(12,0,0,12,644.9,179.1)" />
<use xlink:href="#f0_12" transform="matrix(12,0,0,12,648.1,179.1)" />
<use xlink:href="#f0_4" transform="matrix(12,0,0,12,649.9,179.1)" />
<use xlink:href="#f0_10" transform="matrix(12,0,0,12,659.2,179.1)" />
<use xlink:href="#f0_j" transform="matrix(12,0,0,12,660.4,179.1)" />
<use xlink:href="#f0_w" transform="matrix(12,0,0,12,671.6,179.1)" />
<use xlink:href="#f0_q" transform="matrix(12,0,0,12,670.8,179.1)" />
<use xlink:href="#f0_9" transform="matrix(12,0,0,12,689,179.1)" />
<use xlink:href="#f0_q" transform="matrix(12,0,0,12,699.3,179.1)" />
<use xlink:href="#f0_1b" transform="matrix(12,0,0,12,717.4,179.1)" />
<use xlink:href="#f0_u" transform="matrix(12,0,0,12,729.9,179.1)" />
<use xlink:href="#f0_h" transform="matrix(12,0,0,12,739.8,179.1)" />
<use xlink:href="#f0_3" transform="matrix(12,0,0,12,751.3,179.1)" />
<use xlink:href="#f1_h" transform="matrix(11,0,0,11,455.6,177.7)" />
<use xlink:href="#f2_1c" transform="matrix(11,0,0,11,460.2,177.7)" />
<use xlink:href="#f2_e" transform="matrix(11,0,0,11,494.2,177.7)" />
<use xlink:href="#f2_5" transform="matrix(11,0,0,11,501.6,177.7)" />
<use xlink:href="#f2_h" transform="matrix(11,0,0,11,510.5,177.7)" />
<use xlink:href="#f2_u" transform="matrix(11,0,0,11,517.9,177.7)" />
<use xlink:href="#f2_r" transform="matrix(11,0,0,11,523.6,177.7)" />
<use xlink:href="#f2_4" transform="matrix(11,0,0,11,532,177.7)" />
<use xlink:href="#f2_5" transform="matrix(11,0,0,11,540.2,177.7)" />
<use xlink:href="#f0_3" transform="matrix(12,0,0,12,325.7,179.1)" />
<use xlink:href="#f0_9" transform="matrix(12,0,0,12,337.6,179.1)" />
<use xlink:href="#f0_1b" transform="matrix(12,0,0,12,370.1,179.1)" />
<use xlink:href="#f0_j" transform="matrix(12,0,0,12,398.8,179.1)" />
<use xlink:href="#f0_e" transform="matrix(12,0,0,12,409.2,179.1)" />
<use xlink:href="#f0_q" transform="matrix(12,0,0,12,414.2,179.1)" />
<use xlink:href="#f0_3" transform="matrix(12,0,0,12,426.4,179.1)" />
<use xlink:href="#f0_f" transform="matrix(12,0,0,12,411.3,200.4)" />
<use xlink:href="#f0_12" transform="matrix(12,0,0,12,417.5,198.3)" />
<use xlink:href="#f0_e" transform="matrix(12,0,0,12,423,200.4)" />
<use xlink:href="#f0_9" transform="matrix(12,0,0,12,428.1,200.4)" />
<use xlink:href="#f1_12" transform="matrix(11,0,0,11,141.5,177.7)" />
<use xlink:href="#f2_1c" transform="matrix(11,0,0,11,149,177.7)" />
<use xlink:href="#f2_5" transform="matrix(11,0,0,11,195.6,177.7)" />
<use xlink:href="#f2_6" transform="matrix(11,0,0,11,200.2,177.7)" />
<use xlink:href="#f2_5" transform="matrix(11,0,0,11,211.9,177.7)" />
<use xlink:href="#f2_l" transform="matrix(11,0,0,11,216.5,177.7)" />
<use xlink:href="#f1_12" transform="matrix(11,0,0,11,225,177.7)" />
<use xlink:href="#f0_t" transform="matrix(12,0,0,12,300,229.9)" />
<use xlink:href="#f0_s" transform="matrix(12,0,0,12,306.1,229.9)" />
<use xlink:href="#f0_k" transform="matrix(12,0,0,12,315.9,229.9)" />
<use xlink:href="#f0_8" transform="matrix(12,0,0,12,332.4,229.9)" />
<use xlink:href="#f0_q" transform="matrix(12,0,0,12,344.4,229.9)" />
<use xlink:href="#f0_l" transform="matrix(12,0,0,12,356.7,229.9)" />
<use xlink:href="#f0_j" transform="matrix(12,0,0,12,369.8,229.9)" />
<use xlink:href="#f0_e" transform="matrix(12,0,0,12,380.1,229.9)" />
<use xlink:href="#f0_k" transform="matrix(12,0,0,12,385.2,229.9)" />
<use xlink:href="#f0_l" transform="matrix(12,0,0,12,394.8,229.9)" />
<use xlink:href="#f0_c" transform="matrix(12,0,0,12,408,229.9)" />
<use xlink:href="#f0_m" transform="matrix(12,0,0,12,413.9,229.9)" />
<use xlink:href="#f0_g" transform="matrix(12,0,0,12,418.7,229.9)" />
<use xlink:href="#f0_e" transform="matrix(12,0,0,12,430.2,229.9)" />
<use xlink:href="#f0_a" transform="matrix(12,0,0,12,435.1,229.9)" />
<use xlink:href="#f0_d" transform="matrix(12,0,0,12,452,229.9)" />
<use xlink:href="#f0_q" transform="matrix(12,0,0,12,456.1,229.9)" />
<use xlink:href="#f0_p" transform="matrix(12,0,0,12,468.3,229.9)" />
<use xlink:href="#f0_e" transform="matrix(12,0,0,12,479.2,229.9)" />
<use xlink:href="#f0_d" transform="matrix(12,0,0,12,484.2,229.9)" />
<use xlink:href="#f0_6" transform="matrix(12,0,0,12,495,229.9)" />
<use xlink:href="#f0_d" transform="matrix(12,0,0,12,508,229.9)" />
<use xlink:href="#f0_s" transform="matrix(12,0,0,12,519.1,229.9)" />
<use xlink:href="#f0_q" transform="matrix(12,0,0,12,528.9,229.9)" />
<use xlink:href="#f0_o" transform="matrix(12,0,0,12,547.8,229.9)" />
<use xlink:href="#f0_d" transform="matrix(12,0,0,12,560,229.9)" />
<use xlink:href="#f0_j" transform="matrix(12,0,0,12,564.1,229.9)" />
<use xlink:href="#f0_i" transform="matrix(12,0,0,12,574.5,229.9)" />
<use xlink:href="#f0_7" transform="matrix(12,0,0,12,587.5,229.9)" />
<use xlink:href="#f0_3" transform="matrix(12,0,0,12,600,229.9)" />
<use xlink:href="#f0_8" transform="matrix(12,0,0,12,618.6,229.9)" />
<use xlink:href="#f0_d" transform="matrix(12,0,0,12,630.6,229.9)" />
<use xlink:href="#f0_4" transform="matrix(12,0,0,12,634.7,229.9)" />
<use xlink:href="#f0_j" transform="matrix(12,0,0,12,645.3,229.9)" />
<use xlink:href="#f0_7" transform="matrix(12,0,0,12,655.7,229.9)" />
<use xlink:href="#f0_4" transform="matrix(12,0,0,12,668.2,229.9)" />
<use xlink:href="#f0_14" transform="matrix(12,0,0,12,685.6,229.9)" />
<use xlink:href="#f0_i" transform="matrix(12,0,0,12,697.2,229.9)" />
<use xlink:href="#f0_8" transform="matrix(12,0,0,12,710.1,229.9)" />
<use xlink:href="#f0_9" transform="matrix(12,0,0,12,729.2,229.9)" />
<use xlink:href="#f0_9" transform="matrix(12,0,0,12,739.6,229.9)" />
<use xlink:href="#f0_k" transform="matrix(12,0,0,12,750,229.9)" />
<use xlink:href="#f0_3" transform="matrix(12,0,0,12,759.6,229.9)" />
<use xlink:href="#f3_g" transform="matrix(12,0,0,12,260,229.9)" />
<use xlink:href="#f3_g" transform="matrix(12,0,0,12,271.1,229.9)" />
<use xlink:href="#f3_h" transform="matrix(12,0,0,12,282.1,229.9)" />
<use xlink:href="#f1_v" transform="matrix(11,0,0,11,200.1,229.9)" />
<use xlink:href="#f1_k" transform="matrix(11,0,0,11,209.5,229.9)" />
<use xlink:href="#f1_o" transform="matrix(11,0,0,11,217.9,229.9)" />
<use xlink:href="#f1_x" transform="matrix(11,0,0,11,225.2,229.9)" />
<use xlink:href="#f1_j" transform="matrix(11,0,0,11,239.2,229.9)" />
<use xlink:href="#f1_h" transform="matrix(11,0,0,11,247.6,229.9)" />
<use xlink:href="#f0_3" transform="matrix(12,0,0,12,137.8,229.9)" />
<use xlink:href="#f0_9" transform="matrix(12,0,0,12,149.7,229.9)" />
<use xlink:href="#f0_d" transform="matrix(12,0,0,12,160.1,229.9)" />
<use xlink:href="#f0_7" transform="matrix(12,0,0,12,164.2,229.9)" />
<use xlink:href="#f0_4" transform="matrix(12,0,0,12,176.7,229.9)" />
<use xlink:href="#f0_t" transform="matrix(12,0,0,12,194.1,229.9)" />
<use xlink:href="#f1_v" transform="matrix(11,0,0,11,702.8,251.3)" />
<use xlink:href="#f1_k" transform="matrix(11,0,0,11,716.4,251.3)" />
<use xlink:href="#f1_o" transform="matrix(11,0,0,11,728.9,251.3)" />
<use xlink:href="#f1_x" transform="matrix(11,0,0,11,740.6,251.3)" />
<use xlink:href="#f1_j" transform="matrix(11,0,0,11,754.5,251.3)" />
<use xlink:href="#f1_h" transform="matrix(11,0,0,11,767.2,251.3)" />
<use xlink:href="#f0_c" transform="matrix(12,0,0,12,409.8,251.3)" />
<use xlink:href="#f0_j" transform="matrix(12,0,0,12,415.6,251.3)" />
<use xlink:href="#f0_k" transform="matrix(12,0,0,12,425.9,251.3)" />
<use xlink:href="#f0_l" transform="matrix(12,0,0,12,435.6,251.3)" />
<use xlink:href="#f0_9" transform="matrix(12,0,0,12,442,251.3)" />
<use xlink:href="#f0_8" transform="matrix(12,0,0,12,458.2,251.3)" />
<use xlink:href="#f0_e" transform="matrix(12,0,0,12,470.2,251.3)" />
<use xlink:href="#f0_d" transform="matrix(12,0,0,12,475.1,251.3)" />
<use xlink:href="#f0_b" transform="matrix(12,0,0,12,479.2,251.3)" />
<use xlink:href="#f0_d" transform="matrix(12,0,0,12,486.5,251.3)" />
<use xlink:href="#f0_d" transform="matrix(12,0,0,12,490.7,251.3)" />
<use xlink:href="#f0_g" transform="matrix(12,0,0,12,494.8,251.3)" />
<use xlink:href="#f0_e" transform="matrix(12,0,0,12,506.2,251.3)" />
<use xlink:href="#f0_q" transform="matrix(12,0,0,12,511.2,251.3)" />
<use xlink:href="#f0_3" transform="matrix(12,0,0,12,523.5,251.3)" />
<use xlink:href="#f0_8" transform="matrix(12,0,0,12,541.2,251.3)" />
<use xlink:href="#f0_e" transform="matrix(12,0,0,12,553.2,251.3)" />
<use xlink:href="#f0_7" transform="matrix(12,0,0,12,558.2,251.3)" />
<use xlink:href="#f0_e" transform="matrix(12,0,0,12,570.6,251.3)" />
<use xlink:href="#f0_d" transform="matrix(12,0,0,12,575.6,251.3)" />
<use xlink:href="#f0_f" transform="matrix(12,0,0,12,579.8,251.3)" />
<use xlink:href="#f0_3" transform="matrix(12,0,0,12,591.7,251.3)" />
<use xlink:href="#f0_9" transform="matrix(12,0,0,12,609.5,251.3)" />
<use xlink:href="#f0_k" transform="matrix(12,0,0,12,619.9,251.3)" />
<use xlink:href="#f0_8" transform="matrix(12,0,0,12,635.3,251.3)" />
<use xlink:href="#f0_e" transform="matrix(12,0,0,12,647.4,251.3)" />
<use xlink:href="#f0_h" transform="matrix(12,0,0,12,652.4,251.3)" />
<use xlink:href="#f0_d" transform="matrix(12,0,0,12,663.9,251.3)" />
<use xlink:href="#f0_g" transform="matrix(12,0,0,12,667.8,251.3)" />
<use xlink:href="#f0_e" transform="matrix(12,0,0,12,679.3,251.3)" />
<use xlink:href="#f0_7" transform="matrix(12,0,0,12,684.3,251.3)" />
<use xlink:href="#f3_g" transform="matrix(12,0,0,12,739.6,350)" />
<use xlink:href="#f3_g" transform="matrix(12,0,0,12,750.7,350)" />
<use xlink:href="#f3_h" transform="matrix(12,0,0,12,761.7,350)" />
</g>
</g>
<path d="M733.2,351.8h38.9" class="g1_4" />
<g clip-path="url(#c0_4)">
<g fill="#000000" >
<use xlink:href="#f3_n" transform="matrix(12,0,0,12,720.2,350)" />
</g>
</g>
<path d="M720.2,351.8h12.7" class="g1_4" />
<g clip-path="url(#c0_4)">
<g fill="#000000" >
<use xlink:href="#f0_3" transform="matrix(12,0,0,12,359.9,371.4)" />
<use xlink:href="#f0_h" transform="matrix(12,0,0,12,371.9,371.4)" />
<use xlink:href="#f0_e" transform="matrix(12,0,0,12,383.3,371.4)" />
<use xlink:href="#f0_a" transform="matrix(12,0,0,12,388.2,371.4)" />
<use xlink:href="#f0_d" transform="matrix(12,0,0,12,398.3,371.4)" />
<use xlink:href="#f0_q" transform="matrix(12,0,0,12,408.2,371.4)" />
<use xlink:href="#f0_9" transform="matrix(12,0,0,12,420.4,371.4)" />
<use xlink:href="#f0_m" transform="matrix(12,0,0,12,436.6,371.4)" />
<use xlink:href="#f0_8" transform="matrix(12,0,0,12,441.7,371.4)" />
<use xlink:href="#f0_e" transform="matrix(12,0,0,12,453.7,371.4)" />
<use xlink:href="#f0_3" transform="matrix(12,0,0,12,458.7,371.4)" />
<use xlink:href="#f0_l" transform="matrix(12,0,0,12,470.6,371.4)" />
<use xlink:href="#f0_6" transform="matrix(12,0,0,12,476.9,371.4)" />
<use xlink:href="#f0_o" transform="matrix(12,0,0,12,495.8,371.4)" />
<use xlink:href="#f0_d" transform="matrix(12,0,0,12,507.9,371.4)" />
<use xlink:href="#f0_9" transform="matrix(12,0,0,12,512,371.4)" />
<use xlink:href="#f0_d" transform="matrix(12,0,0,12,522.4,371.4)" />
<use xlink:href="#f0_7" transform="matrix(12,0,0,12,526.5,371.4)" />
<use xlink:href="#f0_e" transform="matrix(12,0,0,12,538.9,371.4)" />
<use xlink:href="#f0_15" transform="matrix(12,0,0,12,550,371.4)" />
<use xlink:href="#f0_3" transform="matrix(12,0,0,12,555.8,371.4)" />
<use xlink:href="#f0_4" transform="matrix(12,0,0,12,567.7,371.4)" />
<use xlink:href="#f0_i" transform="matrix(12,0,0,12,578.3,371.4)" />
<use xlink:href="#f0_b" transform="matrix(12,0,0,12,591.3,371.4)" />
<use xlink:href="#f0_e" transform="matrix(12,0,0,12,598.4,371.4)" />
<use xlink:href="#f0_j" transform="matrix(12,0,0,12,609.4,371.4)" />
<use xlink:href="#f0_k" transform="matrix(12,0,0,12,619.8,371.4)" />
<use xlink:href="#f0_l" transform="matrix(12,0,0,12,629.4,371.4)" />
<use xlink:href="#f0_9" transform="matrix(12,0,0,12,635.7,371.4)" />
<use xlink:href="#f0_8" transform="matrix(12,0,0,12,652,371.4)" />
<use xlink:href="#f0_e" transform="matrix(12,0,0,12,663.9,371.4)" />
<use xlink:href="#f0_g" transform="matrix(12,0,0,12,669,371.4)" />
<use xlink:href="#f0_8" transform="matrix(12,0,0,12,680.4,371.4)" />
<use xlink:href="#f0_e" transform="matrix(12,0,0,12,692.5,371.4)" />
<use xlink:href="#f0_6" transform="matrix(12,0,0,12,697.5,371.4)" />
<use xlink:href="#f0_7" transform="matrix(12,0,0,12,710.3,371.4)" />
<use xlink:href="#f0_o" transform="matrix(12,0,0,12,728.6,371.4)" />
<use xlink:href="#f0_d" transform="matrix(12,0,0,12,740.8,371.4)" />
<use xlink:href="#f0_9" transform="matrix(12,0,0,12,744.9,371.4)" />
<use xlink:href="#f0_d" transform="matrix(12,0,0,12,755.3,371.4)" />
<use xlink:href="#f0_7" transform="matrix(12,0,0,12,759.3,371.4)" />
</g>
</g>
<path d="M359.8,373.2H772" class="g1_4" />
<g clip-path="url(#c0_4)">
<g fill="#000000" >
<use xlink:href="#f0_d" transform="matrix(12,0,0,12,137.8,392.8)" />
<use xlink:href="#f0_j" transform="matrix(12,0,0,12,141.9,392.8)" />
<use xlink:href="#f0_e" transform="matrix(12,0,0,12,152.1,392.8)" />
<use xlink:href="#f0_q" transform="matrix(12,0,0,12,157.2,392.8)" />
<use xlink:href="#f0_d" transform="matrix(12,0,0,12,169.4,392.8)" />
<use xlink:href="#f0_8" transform="matrix(12,0,0,12,173.5,392.8)" />
<use xlink:href="#f0_4" transform="matrix(12,0,0,12,191.5,392.8)" />
<use xlink:href="#f0_j" transform="matrix(12,0,0,12,202,392.8)" />
<use xlink:href="#f0_9" transform="matrix(12,0,0,12,212.4,392.8)" />
<use xlink:href="#f0_o" transform="matrix(12,0,0,12,228.6,392.8)" />
<use xlink:href="#f0_3" transform="matrix(12,0,0,12,240.8,392.8)" />
<use xlink:href="#f0_3" transform="matrix(12,0,0,12,258.7,392.8)" />
<use xlink:href="#f0_9" transform="matrix(12,0,0,12,270.6,392.8)" />
<use xlink:href="#f0_q" transform="matrix(12,0,0,12,281,392.8)" />
<use xlink:href="#f0_c" transform="matrix(12,0,0,12,299.2,392.8)" />
<use xlink:href="#f0_3" transform="matrix(12,0,0,12,305,392.8)" />
<use xlink:href="#f0_3" transform="matrix(12,0,0,12,316.9,392.8)" />
<use xlink:href="#f0_l" transform="matrix(12,0,0,12,328.8,392.8)" />
<use xlink:href="#f0_m" transform="matrix(12,0,0,12,341,392.8)" />
<use xlink:href="#f0_g" transform="matrix(12,0,0,12,346,392.8)" />
<use xlink:href="#f0_e" transform="matrix(12,0,0,12,357.5,392.8)" />
<use xlink:href="#f0_q" transform="matrix(12,0,0,12,362.5,392.8)" />
<use xlink:href="#f0_4" transform="matrix(12,0,0,12,374.7,392.8)" />
<use xlink:href="#f0_8" transform="matrix(12,0,0,12,391.1,392.8)" />
<use xlink:href="#f0_e" transform="matrix(12,0,0,12,403.1,392.8)" />
<use xlink:href="#f0_r" transform="matrix(12,0,0,12,408.1,392.8)" />
<use xlink:href="#f0_3" transform="matrix(12,0,0,12,415.6,392.8)" />
<use xlink:href="#f0_b" transform="matrix(12,0,0,12,427.5,392.8)" />
<use xlink:href="#f0_e" transform="matrix(12,0,0,12,434.9,392.8)" />
<use xlink:href="#f0_8" transform="matrix(12,0,0,12,445.8,392.8)" />
<use xlink:href="#f0_e" transform="matrix(12,0,0,12,457.9,392.8)" />
<use xlink:href="#f0_4" transform="matrix(12,0,0,12,462.9,392.8)" />
<use xlink:href="#f0_8" transform="matrix(12,0,0,12,473.5,392.8)" />
<use xlink:href="#f0_k" transform="matrix(12,0,0,12,485.5,392.8)" />
<use xlink:href="#f0_b" transform="matrix(12,0,0,12,495.1,392.8)" />
<use xlink:href="#f0_3" transform="matrix(12,0,0,12,502.5,392.8)" />
<use xlink:href="#f0_3" transform="matrix(12,0,0,12,520.3,392.8)" />
<use xlink:href="#f0_4" transform="matrix(12,0,0,12,532.2,392.8)" />
<use xlink:href="#f0_i" transform="matrix(12,0,0,12,542.8,392.8)" />
<use xlink:href="#f0_b" transform="matrix(12,0,0,12,555.8,392.8)" />
<use xlink:href="#f0_e" transform="matrix(12,0,0,12,563.1,392.8)" />
<use xlink:href="#f0_j" transform="matrix(12,0,0,12,573.9,392.8)" />
<use xlink:href="#f0_k" transform="matrix(12,0,0,12,584.3,392.8)" />
<use xlink:href="#f0_l" transform="matrix(12,0,0,12,593.9,392.8)" />
<use xlink:href="#f0_9" transform="matrix(12,0,0,12,600.3,392.8)" />
<use xlink:href="#f0_8" transform="matrix(12,0,0,12,616.5,392.8)" />
<use xlink:href="#f0_e" transform="matrix(12,0,0,12,628.6,392.8)" />
<use xlink:href="#f0_g" transform="matrix(12,0,0,12,633.5,392.8)" />
<use xlink:href="#f0_8" transform="matrix(12,0,0,12,644.9,392.8)" />
<use xlink:href="#f0_e" transform="matrix(12,0,0,12,657,392.8)" />
<use xlink:href="#f0_6" transform="matrix(12,0,0,12,662,392.8)" />
<use xlink:href="#f0_7" transform="matrix(12,0,0,12,674.8,392.8)" />
<use xlink:href="#f0_o" transform="matrix(12,0,0,12,693.1,392.8)" />
<use xlink:href="#f0_d" transform="matrix(12,0,0,12,705.3,392.8)" />
<use xlink:href="#f0_9" transform="matrix(12,0,0,12,709.4,392.8)" />
<use xlink:href="#f0_d" transform="matrix(12,0,0,12,719.8,392.8)" />
<use xlink:href="#f0_7" transform="matrix(12,0,0,12,723.8,392.8)" />
<use xlink:href="#f0_m" transform="matrix(12,0,0,12,742.3,392.8)" />
<use xlink:href="#f0_b" transform="matrix(12,0,0,12,747.2,392.8)" />
<use xlink:href="#f0_6" transform="matrix(12,0,0,12,754.5,392.8)" />
<use xlink:href="#f0_d" transform="matrix(12,0,0,12,767.5,392.8)" />
<use xlink:href="#f0_18" transform="matrix(12,0,0,12,325.6,414.2)" />
<use xlink:href="#f0_3" transform="matrix(12,0,0,12,344.5,414.2)" />
<use xlink:href="#f0_h" transform="matrix(12,0,0,12,356.4,414.2)" />
<use xlink:href="#f0_d" transform="matrix(12,0,0,12,367.9,414.2)" />
<use xlink:href="#f0_a" transform="matrix(12,0,0,12,372,414.2)" />
<use xlink:href="#f0_d" transform="matrix(12,0,0,12,382,414.2)" />
<use xlink:href="#f0_3" transform="matrix(12,0,0,12,386.1,414.2)" />
<use xlink:href="#f0_2" transform="matrix(12,0,0,12,403.9,414.2)" />
<use xlink:href="#f0_3" transform="matrix(12,0,0,12,408.9,414.2)" />
<use xlink:href="#f0_d" transform="matrix(12,0,0,12,426.6,414.2)" />
<use xlink:href="#f0_g" transform="matrix(12,0,0,12,430.7,414.2)" />
<use xlink:href="#f0_9" transform="matrix(12,0,0,12,448,414.2)" />
<use xlink:href="#f0_h" transform="matrix(12,0,0,12,458.4,414.2)" />
<use xlink:href="#f0_8" transform="matrix(12,0,0,12,475.8,414.2)" />
<use xlink:href="#f0_e" transform="matrix(12,0,0,12,487.8,414.2)" />
<use xlink:href="#f0_6" transform="matrix(12,0,0,12,492.8,414.2)" />
<use xlink:href="#f0_h" transform="matrix(12,0,0,12,505.8,414.2)" />
<use xlink:href="#f0_d" transform="matrix(12,0,0,12,517.3,414.2)" />
<use xlink:href="#f0_3" transform="matrix(12,0,0,12,521.4,414.2)" />
<use xlink:href="#f0_9" transform="matrix(12,0,0,12,533.3,414.2)" />
<use xlink:href="#f0_9" transform="matrix(12,0,0,12,549.5,414.2)" />
<use xlink:href="#f0_e" transform="matrix(12,0,0,12,559.9,414.2)" />
<use xlink:href="#f0_k" transform="matrix(12,0,0,12,564.9,414.2)" />
<use xlink:href="#f0_d" transform="matrix(12,0,0,12,574.6,414.2)" />
<use xlink:href="#f0_d" transform="matrix(12,0,0,12,584.5,414.2)" />
<use xlink:href="#f0_e" transform="matrix(12,0,0,12,588.6,414.2)" />
<use xlink:href="#f0_3" transform="matrix(12,0,0,12,593.6,414.2)" />
<use xlink:href="#f0_d" transform="matrix(12,0,0,12,605.5,414.2)" />
<use xlink:href="#f0_l" transform="matrix(12,0,0,12,609.6,414.2)" />
<use xlink:href="#f0_3" transform="matrix(12,0,0,12,616,414.2)" />
<use xlink:href="#f0_c" transform="matrix(12,0,0,12,633.8,414.2)" />
<use xlink:href="#f0_a" transform="matrix(12,0,0,12,639.6,414.2)" />
<use xlink:href="#f0_d" transform="matrix(12,0,0,12,649.6,414.2)" />
<use xlink:href="#f0_i" transform="matrix(12,0,0,12,653.7,414.2)" />
<use xlink:href="#f0_g" transform="matrix(12,0,0,12,666.7,414.2)" />
<use xlink:href="#f0_8" transform="matrix(12,0,0,12,678,414.2)" />
<use xlink:href="#f0_e" transform="matrix(12,0,0,12,696,414.2)" />
<use xlink:href="#f0_q" transform="matrix(12,0,0,12,700.9,414.2)" />
<use xlink:href="#f0_h" transform="matrix(12,0,0,12,719.1,414.2)" />
<use xlink:href="#f0_e" transform="matrix(12,0,0,12,730.6,414.2)" />
<use xlink:href="#f0_p" transform="matrix(12,0,0,12,735.6,414.2)" />
<use xlink:href="#f0_i" transform="matrix(12,0,0,12,746.4,414.2)" />
<use xlink:href="#f0_7" transform="matrix(12,0,0,12,759.3,414.2)" />
<use xlink:href="#f2_z" transform="matrix(11,0,0,11,310.4,414.2)" />
<use xlink:href="#f2_5" transform="matrix(11,0,0,11,320.7,414.2)" />
<use xlink:href="#f0_e" transform="matrix(12,0,0,12,287.5,414.2)" />
<use xlink:href="#f0_q" transform="matrix(12,0,0,12,292.6,414.2)" />
<use xlink:href="#f2_12" transform="matrix(11,0,0,11,263.7,414.2)" />
<use xlink:href="#f2_6" transform="matrix(11,0,0,11,273.9,414.2)" />
<use xlink:href="#f0_c" transform="matrix(12,0,0,12,161.8,414.2)" />
<use xlink:href="#f0_j" transform="matrix(12,0,0,12,167.6,414.2)" />
<use xlink:href="#f0_6" transform="matrix(12,0,0,12,178,414.2)" />
<use xlink:href="#f0_i" transform="matrix(12,0,0,12,191,414.2)" />
<use xlink:href="#f0_3" transform="matrix(12,0,0,12,203.9,414.2)" />
<use xlink:href="#f0_3" transform="matrix(12,0,0,12,215.9,414.2)" />
<use xlink:href="#f0_e" transform="matrix(12,0,0,12,233.6,414.2)" />
<use xlink:href="#f0_q" transform="matrix(12,0,0,12,238.6,414.2)" />
<use xlink:href="#f0_17" transform="matrix(12,0,0,12,256.6,414.2)" />
<use xlink:href="#f0_t" transform="matrix(12,0,0,12,618.9,435.6)" />
<use xlink:href="#f0_8" transform="matrix(12,0,0,12,625,435.6)" />
<use xlink:href="#f0_e" transform="matrix(12,0,0,12,636.9,435.6)" />
<use xlink:href="#f0_q" transform="matrix(12,0,0,12,641.9,435.6)" />
<use xlink:href="#f0_7" transform="matrix(12,0,0,12,654.2,435.6)" />
<use xlink:href="#f0_r" transform="matrix(12,0,0,12,666.7,435.6)" />
<use xlink:href="#f0_e" transform="matrix(12,0,0,12,674.2,435.6)" />
<use xlink:href="#f0_a" transform="matrix(12,0,0,12,679.1,435.6)" />
<use xlink:href="#f0_3" transform="matrix(12,0,0,12,695.1,435.6)" />
<use xlink:href="#f0_7" transform="matrix(12,0,0,12,707,435.6)" />
<use xlink:href="#f0_k" transform="matrix(12,0,0,12,719.5,435.6)" />
<use xlink:href="#f0_3" transform="matrix(12,0,0,12,735.1,435.6)" />
<use xlink:href="#f0_b" transform="matrix(12,0,0,12,747,435.6)" />
<use xlink:href="#f0_3" transform="matrix(12,0,0,12,754.3,435.6)" />
<use xlink:href="#f0_3" transform="matrix(12,0,0,12,392,476.4)" />
<use xlink:href="#f0_1m" transform="matrix(12,0,0,12,403.9,476.4)" />
<use xlink:href="#f0_a" transform="matrix(12,0,0,12,410,476.4)" />
<use xlink:href="#f0_d" transform="matrix(12,0,0,12,420.1,476.4)" />
<use xlink:href="#f0_7" transform="matrix(12,0,0,12,424.2,476.4)" />
<use xlink:href="#f0_9" transform="matrix(12,0,0,12,436.6,476.4)" />
<use xlink:href="#f0_8" transform="matrix(12,0,0,12,447,476.4)" />
<use xlink:href="#f0_8" transform="matrix(12,0,0,12,464.8,476.4)" />
<use xlink:href="#f0_d" transform="matrix(12,0,0,12,476.9,476.4)" />
<use xlink:href="#f0_1m" transform="matrix(12,0,0,12,481,476.4)" />
<use xlink:href="#f0_z" transform="matrix(12,0,0,12,487.1,476.4)" />
<use xlink:href="#f0_b" transform="matrix(12,0,0,12,499,476.4)" />
<use xlink:href="#f0_a" transform="matrix(12,0,0,12,506.3,476.4)" />
<use xlink:href="#f0_e" transform="matrix(12,0,0,12,516.4,476.4)" />
<use xlink:href="#f0_z" transform="matrix(12,0,0,12,521.4,476.4)" />
<use xlink:href="#f0_f" transform="matrix(12,0,0,12,533.2,476.4)" />
<use xlink:href="#f0_3" transform="matrix(12,0,0,12,271,476.4)" />
<use xlink:href="#f0_11" transform="matrix(12,0,0,12,283.4,476.4)" />
<use xlink:href="#f0_z" transform="matrix(12,0,0,12,282.9,476.4)" />
<use xlink:href="#f0_10" transform="matrix(12,0,0,12,292.9,476.4)" />
<use xlink:href="#f0_b" transform="matrix(12,0,0,12,294.8,476.4)" />
<use xlink:href="#f0_w" transform="matrix(12,0,0,12,302.9,476.4)" />
<use xlink:href="#f0_q" transform="matrix(12,0,0,12,302.1,476.4)" />
<use xlink:href="#f0_d" transform="matrix(12,0,0,12,314.4,476.4)" />
<use xlink:href="#f0_13" transform="matrix(12,0,0,12,319.4,476.4)" />
<use xlink:href="#f0_a" transform="matrix(12,0,0,12,318.5,476.4)" />
<use xlink:href="#f0_e" transform="matrix(12,0,0,12,328.5,476.4)" />
<use xlink:href="#f0_z" transform="matrix(12,0,0,12,333.4,476.4)" />
<use xlink:href="#f0_10" transform="matrix(12,0,0,12,346.6,476.4)" />
<use xlink:href="#f0_f" transform="matrix(12,0,0,12,345.3,476.4)" />
<use xlink:href="#f0_11" transform="matrix(12,0,0,12,358,476.4)" />
<use xlink:href="#f0_q" transform="matrix(12,0,0,12,357.2,476.4)" />
<use xlink:href="#f2_e" transform="matrix(11,0,0,11,184.6,475)" />
<use xlink:href="#f2_f" transform="matrix(11,0,0,11,192,475)" />
<use xlink:href="#f2_g" transform="matrix(11,0,0,11,198.6,475)" />
<use xlink:href="#f2_l" transform="matrix(11,0,0,11,203.3,475)" />
<use xlink:href="#f2_q" transform="matrix(11,0,0,11,211.7,475)" />
<use xlink:href="#f2_s" transform="matrix(11,0,0,11,219.9,475)" />
<use xlink:href="#f2_6" transform="matrix(11,0,0,11,224.7,475)" />
<use xlink:href="#f2_m" transform="matrix(11,0,0,11,232.1,475)" />
<use xlink:href="#f2_g" transform="matrix(11,0,0,11,240.5,475)" />
<use xlink:href="#f2_e" transform="matrix(11,0,0,11,245.1,475)" />
<use xlink:href="#f0_8" transform="matrix(12,0,0,12,496.5,497.8)" />
<use xlink:href="#f0_1m" transform="matrix(12,0,0,12,508.6,497.8)" />
<use xlink:href="#f0_j" transform="matrix(12,0,0,12,514.7,497.8)" />
<use xlink:href="#f0_d" transform="matrix(12,0,0,12,525.1,497.8)" />
<use xlink:href="#f0_d" transform="matrix(12,0,0,12,529.2,497.8)" />
<use xlink:href="#f0_8" transform="matrix(12,0,0,12,533.1,497.8)" />
<use xlink:href="#f0_3" transform="matrix(12,0,0,12,302.5,497.8)" />
<use xlink:href="#f0_w" transform="matrix(12,0,0,12,314.9,497.8)" />
<use xlink:href="#f0_z" transform="matrix(12,0,0,12,314.4,497.8)" />
<use xlink:href="#f0_10" transform="matrix(12,0,0,12,327.5,497.8)" />
<use xlink:href="#f0_f" transform="matrix(12,0,0,12,326.3,497.8)" />
<use xlink:href="#f0_d" transform="matrix(12,0,0,12,338.2,497.8)" />
<use xlink:href="#f0_13" transform="matrix(12,0,0,12,341.1,497.8)" />
<use xlink:href="#f0_j" transform="matrix(12,0,0,12,342.3,497.8)" />
<use xlink:href="#f0_12" transform="matrix(12,0,0,12,347.3,495.6)" />
<use xlink:href="#f0_e" transform="matrix(12,0,0,12,352.8,497.8)" />
<use xlink:href="#f0_z" transform="matrix(12,0,0,12,357.7,497.8)" />
<use xlink:href="#f2_g" transform="matrix(11,0,0,11,210.7,496.4)" />
<use xlink:href="#f2_l" transform="matrix(11,0,0,11,215.4,496.4)" />
<use xlink:href="#f2_u" transform="matrix(11,0,0,11,223.8,496.4)" />
<use xlink:href="#f2_s" transform="matrix(11,0,0,11,229.3,496.4)" />
<use xlink:href="#f2_f" transform="matrix(11,0,0,11,234,496.4)" />
<use xlink:href="#f2_g" transform="matrix(11,0,0,11,240.6,496.4)" />
<use xlink:href="#f2_6" transform="matrix(11,0,0,11,245.2,496.4)" />
<use xlink:href="#f0_8" transform="matrix(12,0,0,12,480.6,519.1)" />
<use xlink:href="#f0_d" transform="matrix(12,0,0,12,492.7,519.1)" />
<use xlink:href="#f0_1m" transform="matrix(12,0,0,12,496.8,519.1)" />
<use xlink:href="#f0_b" transform="matrix(12,0,0,12,502.9,519.1)" />
<use xlink:href="#f0_7" transform="matrix(12,0,0,12,510.2,519.1)" />
<use xlink:href="#f0_r" transform="matrix(12,0,0,12,522.7,519.1)" />
<use xlink:href="#f0_e" transform="matrix(12,0,0,12,530.2,519.1)" />
<use xlink:href="#f0_a" transform="matrix(12,0,0,12,535.1,519.1)" />
<use xlink:href="#f0_x" transform="matrix(12,0,0,12,326.8,519.1)" />
<use xlink:href="#f0_e" transform="matrix(12,0,0,12,326.8,519.1)" />
<use xlink:href="#f0_9" transform="matrix(12,0,0,12,331.8,519.1)" />
<use xlink:href="#f0_11" transform="matrix(12,0,0,12,343.1,519.1)" />
<use xlink:href="#f0_a" transform="matrix(12,0,0,12,342.2,519.1)" />
<use xlink:href="#f0_x" transform="matrix(12,0,0,12,352.1,519.1)" />
<use xlink:href="#f0_e" transform="matrix(12,0,0,12,352.1,519.1)" />
<use xlink:href="#f0_7" transform="matrix(12,0,0,12,357,519.1)" />
<use xlink:href="#f2_c" transform="matrix(11,0,0,11,202.3,517.8)" />
<use xlink:href="#f2_4" transform="matrix(11,0,0,11,215.4,517.8)" />
<use xlink:href="#f2_q" transform="matrix(11,0,0,11,223.8,517.8)" />
<use xlink:href="#f2_e" transform="matrix(11,0,0,11,232.2,517.8)" />
<use xlink:href="#f2_5" transform="matrix(11,0,0,11,239.5,517.8)" />
<use xlink:href="#f2_4" transform="matrix(11,0,0,11,244.3,517.8)" />
<use xlink:href="#f0_o" transform="matrix(12,0,0,12,138.4,540.5)" />
<use xlink:href="#f0_k" transform="matrix(12,0,0,12,150.6,540.5)" />
<use xlink:href="#f0_8" transform="matrix(12,0,0,12,160.3,540.5)" />
<use xlink:href="#f0_q" transform="matrix(12,0,0,12,172.3,540.5)" />
<use xlink:href="#f0_d" transform="matrix(12,0,0,12,184.5,540.5)" />
<use xlink:href="#f0_j" transform="matrix(12,0,0,12,188.6,540.5)" />
<use xlink:href="#f0_i" transform="matrix(12,0,0,12,199,540.5)" />
<use xlink:href="#f0_s" transform="matrix(12,0,0,12,219.3,540.5)" />
<use xlink:href="#f0_6" transform="matrix(12,0,0,12,229.1,540.5)" />
<use xlink:href="#f0_7" transform="matrix(12,0,0,12,242.1,540.5)" />
<use xlink:href="#f0_3" transform="matrix(12,0,0,12,254.6,540.5)" />
<use xlink:href="#f0_4" transform="matrix(12,0,0,12,266.5,540.5)" />
<use xlink:href="#f0_6" transform="matrix(12,0,0,12,284.1,540.5)" />
<use xlink:href="#f0_k" transform="matrix(12,0,0,12,297.1,540.5)" />
<use xlink:href="#f0_j" transform="matrix(12,0,0,12,306.8,540.5)" />
<use xlink:href="#f0_d" transform="matrix(12,0,0,12,317.1,540.5)" />
<use xlink:href="#f0_d" transform="matrix(12,0,0,12,321.2,540.5)" />
<use xlink:href="#f0_6" transform="matrix(12,0,0,12,325.3,540.5)" />
<use xlink:href="#f0_18" transform="matrix(12,0,0,12,338.2,540.5)" />
<use xlink:href="#f0_o" transform="matrix(12,0,0,12,352.6,540.5)" />
<use xlink:href="#f0_a" transform="matrix(12,0,0,12,364.7,540.5)" />
<use xlink:href="#f0_e" transform="matrix(12,0,0,12,374.8,540.5)" />
<use xlink:href="#f0_i" transform="matrix(12,0,0,12,379.8,540.5)" />
<use xlink:href="#f0_m" transform="matrix(12,0,0,12,399.9,540.5)" />
<use xlink:href="#f0_e" transform="matrix(12,0,0,12,404.8,540.5)" />
<use xlink:href="#f0_d" transform="matrix(12,0,0,12,409.8,540.5)" />
<use xlink:href="#f0_f" transform="matrix(12,0,0,12,413.9,540.5)" />
<use xlink:href="#f0_b" transform="matrix(12,0,0,12,425.8,540.5)" />
<use xlink:href="#f0_q" transform="matrix(12,0,0,12,440.5,540.5)" />
<use xlink:href="#f0_9" transform="matrix(12,0,0,12,452.7,540.5)" />
<use xlink:href="#f0_9" transform="matrix(12,0,0,12,463.1,540.5)" />
<use xlink:href="#f0_3" transform="matrix(12,0,0,12,480.6,540.5)" />
<use xlink:href="#f0_9" transform="matrix(12,0,0,12,492.5,540.5)" />
<use xlink:href="#f0_d" transform="matrix(12,0,0,12,502.9,540.5)" />
<use xlink:href="#f0_7" transform="matrix(12,0,0,12,507,540.5)" />
<use xlink:href="#f0_3" transform="matrix(12,0,0,12,519.5,540.5)" />
<use xlink:href="#f0_m" transform="matrix(12,0,0,12,538.6,540.5)" />
<use xlink:href="#f0_d" transform="matrix(12,0,0,12,543.6,540.5)" />
<use xlink:href="#f0_7" transform="matrix(12,0,0,12,547.6,540.5)" />
<use xlink:href="#f0_8" transform="matrix(12,0,0,12,567.4,540.5)" />
<use xlink:href="#f0_q" transform="matrix(12,0,0,12,579.5,540.5)" />
<use xlink:href="#f0_8" transform="matrix(12,0,0,12,598.8,540.5)" />
<use xlink:href="#f0_e" transform="matrix(12,0,0,12,610.9,540.5)" />
<use xlink:href="#f0_3" transform="matrix(12,0,0,12,615.9,540.5)" />
<use xlink:href="#f0_l" transform="matrix(12,0,0,12,627.8,540.5)" />
<use xlink:href="#f0_9" transform="matrix(12,0,0,12,634.1,540.5)" />
<use xlink:href="#f0_9" transform="matrix(12,0,0,12,651.8,540.5)" />
<use xlink:href="#f0_k" transform="matrix(12,0,0,12,662.2,540.5)" />
<use xlink:href="#f0_e" transform="matrix(12,0,0,12,671.8,540.5)" />
<use xlink:href="#f0_b" transform="matrix(12,0,0,12,676.8,540.5)" />
<use xlink:href="#f0_q" transform="matrix(12,0,0,12,691.3,540.5)" />
<use xlink:href="#f0_9" transform="matrix(12,0,0,12,703.5,540.5)" />
<use xlink:href="#f0_o" transform="matrix(12,0,0,12,721.2,540.5)" />
<use xlink:href="#f0_d" transform="matrix(12,0,0,12,733.3,540.5)" />
<use xlink:href="#f0_8" transform="matrix(12,0,0,12,737.4,540.5)" />
<use xlink:href="#f0_h" transform="matrix(12,0,0,12,749.4,540.5)" />
<use xlink:href="#f0_9" transform="matrix(12,0,0,12,760.9,540.5)" />
<use xlink:href="#f0_c" transform="matrix(12,0,0,12,714.9,561.9)" />
<use xlink:href="#f0_17" transform="matrix(12,0,0,12,720.7,561.9)" />
<use xlink:href="#f0_j" transform="matrix(12,0,0,12,727.8,561.9)" />
<use xlink:href="#f0_g" transform="matrix(12,0,0,12,738.2,561.9)" />
<use xlink:href="#f0_f" transform="matrix(12,0,0,12,749.6,561.9)" />
<use xlink:href="#f0_4" transform="matrix(12,0,0,12,761.5,561.9)" />
<use xlink:href="#f0_1b" transform="matrix(12,0,0,12,272.8,583.3)" />
<use xlink:href="#f0_h" transform="matrix(12,0,0,12,286.9,583.3)" />
<use xlink:href="#f0_e" transform="matrix(12,0,0,12,298.3,583.3)" />
<use xlink:href="#f0_b" transform="matrix(12,0,0,12,303.3,583.3)" />
<use xlink:href="#f0_9" transform="matrix(12,0,0,12,310.7,583.3)" />
<use xlink:href="#f0_e" transform="matrix(12,0,0,12,321.1,583.3)" />
<use xlink:href="#f0_i" transform="matrix(12,0,0,12,326.1,583.3)" />
<use xlink:href="#f0_t" transform="matrix(12,0,0,12,339.1,583.3)" />
<use xlink:href="#f0_17" transform="matrix(12,0,0,12,345.2,583.3)" />
<use xlink:href="#f0_j" transform="matrix(12,0,0,12,352.3,583.3)" />
<use xlink:href="#f0_k" transform="matrix(12,0,0,12,362.7,583.3)" />
<use xlink:href="#f0_l" transform="matrix(12,0,0,12,372.3,583.3)" />
<use xlink:href="#f0_18" transform="matrix(12,0,0,12,378.6,583.3)" />
<use xlink:href="#f0_m" transform="matrix(12,0,0,12,393.3,583.3)" />
<use xlink:href="#f0_b" transform="matrix(12,0,0,12,398.1,583.3)" />
<use xlink:href="#f0_d" transform="matrix(12,0,0,12,405.5,583.3)" />
<use xlink:href="#f0_7" transform="matrix(12,0,0,12,409.6,583.3)" />
<use xlink:href="#f0_8" transform="matrix(12,0,0,12,429.6,583.3)" />
<use xlink:href="#f0_q" transform="matrix(12,0,0,12,441.6,583.3)" />
<use xlink:href="#f0_6" transform="matrix(12,0,0,12,461.1,583.3)" />
<use xlink:href="#f0_q" transform="matrix(12,0,0,12,474.1,583.3)" />
<use xlink:href="#f0_j" transform="matrix(12,0,0,12,486.3,583.3)" />
<use xlink:href="#f0_7" transform="matrix(12,0,0,12,496.7,583.3)" />
<use xlink:href="#f0_8" transform="matrix(12,0,0,12,516.5,583.3)" />
<use xlink:href="#f0_h" transform="matrix(12,0,0,12,528.6,583.3)" />
<use xlink:href="#f0_a" transform="matrix(12,0,0,12,540,583.3)" />
<use xlink:href="#f0_9" transform="matrix(12,0,0,12,550.1,583.3)" />
<use xlink:href="#f0_m" transform="matrix(12,0,0,12,567.9,583.3)" />
<use xlink:href="#f0_8" transform="matrix(12,0,0,12,572.8,583.3)" />
<use xlink:href="#f0_d" transform="matrix(12,0,0,12,584.9,583.3)" />
<use xlink:href="#f0_b" transform="matrix(12,0,0,12,589,583.3)" />
<use xlink:href="#f0_q" transform="matrix(12,0,0,12,603.8,583.3)" />
<use xlink:href="#f0_9" transform="matrix(12,0,0,12,616,583.3)" />
<use xlink:href="#f0_15" transform="matrix(12,0,0,12,633.8,583.3)" />
<use xlink:href="#f0_9" transform="matrix(12,0,0,12,639.6,583.3)" />
<use xlink:href="#f0_6" transform="matrix(12,0,0,12,650,583.3)" />
<use xlink:href="#f0_7" transform="matrix(12,0,0,12,663,583.3)" />
<use xlink:href="#f0_9" transform="matrix(12,0,0,12,675.5,583.3)" />
<use xlink:href="#f0_e" transform="matrix(12,0,0,12,693.3,583.3)" />
<use xlink:href="#f0_9" transform="matrix(12,0,0,12,698.4,583.3)" />
<use xlink:href="#f0_q" transform="matrix(12,0,0,12,708.8,583.3)" />
<use xlink:href="#f0_o" transform="matrix(12,0,0,12,728.3,583.3)" />
<use xlink:href="#f0_d" transform="matrix(12,0,0,12,740.5,583.3)" />
<use xlink:href="#f0_9" transform="matrix(12,0,0,12,744.6,583.3)" />
<use xlink:href="#f0_d" transform="matrix(12,0,0,12,755,583.3)" />
<use xlink:href="#f0_7" transform="matrix(12,0,0,12,759,583.3)" />
<use xlink:href="#f2_16" transform="matrix(11,0,0,11,236.7,583.3)" />
<use xlink:href="#f2_s" transform="matrix(11,0,0,11,244.1,583.3)" />
<use xlink:href="#f2_m" transform="matrix(11,0,0,11,248.8,583.3)" />
<use xlink:href="#f2_e" transform="matrix(11,0,0,11,257.2,583.3)" />
<use xlink:href="#f0_1b" transform="matrix(12,0,0,12,178.9,583.3)" />
<use xlink:href="#f0_3" transform="matrix(12,0,0,12,192.9,583.3)" />
<use xlink:href="#f0_g" transform="matrix(12,0,0,12,204.8,583.3)" />
<use xlink:href="#f0_i" transform="matrix(12,0,0,12,216.2,583.3)" />
<use xlink:href="#f2_16" transform="matrix(11,0,0,11,143.3,583.3)" />
<use xlink:href="#f2_6" transform="matrix(11,0,0,11,150.6,583.3)" />
<use xlink:href="#f2_15" transform="matrix(11,0,0,11,158.1,583.3)" />
<use xlink:href="#f2_1d" transform="matrix(11,0,0,11,163.7,583.3)" />
<use xlink:href="#f0_c" transform="matrix(12,0,0,12,137.7,583.3)" />
<use xlink:href="#f0_1b" transform="matrix(12,0,0,12,659.8,604.7)" />
<use xlink:href="#f0_3" transform="matrix(12,0,0,12,672.2,604.7)" />
<use xlink:href="#f0_9" transform="matrix(12,0,0,12,684.1,604.7)" />
<use xlink:href="#f0_d" transform="matrix(12,0,0,12,694.5,604.7)" />
<use xlink:href="#f0_9" transform="matrix(12,0,0,12,698.6,604.7)" />
<use xlink:href="#f0_17" transform="matrix(12,0,0,12,715,604.7)" />
<use xlink:href="#f0_3" transform="matrix(12,0,0,12,722.1,604.7)" />
<use xlink:href="#f0_4" transform="matrix(12,0,0,12,734,604.7)" />
<use xlink:href="#f0_i" transform="matrix(12,0,0,12,744.6,604.7)" />
<use xlink:href="#f0_b" transform="matrix(12,0,0,12,757.6,604.7)" />
<use xlink:href="#f0_18" transform="matrix(12,0,0,12,764.9,604.7)" />
<use xlink:href="#f2_m" transform="matrix(11,0,0,11,613.6,604.7)" />
<use xlink:href="#f2_4" transform="matrix(11,0,0,11,622,604.7)" />
<use xlink:href="#f2_16" transform="matrix(11,0,0,11,630.4,604.7)" />
<use xlink:href="#f2_13" transform="matrix(11,0,0,11,637.8,604.7)" />
<use xlink:href="#f2_e" transform="matrix(11,0,0,11,646.2,604.7)" />
<use xlink:href="#f0_c" transform="matrix(12,0,0,12,607.9,604.7)" />
<use xlink:href="#f0_8" transform="matrix(12,0,0,12,165.6,626.1)" />
<use xlink:href="#f0_d" transform="matrix(12,0,0,12,177.6,626.1)" />
<use xlink:href="#f0_a" transform="matrix(12,0,0,12,181.7,626.1)" />
<use xlink:href="#f0_j" transform="matrix(12,0,0,12,191.8,626.1)" />
<use xlink:href="#f0_g" transform="matrix(12,0,0,12,202,626.1)" />
<use xlink:href="#f0_f" transform="matrix(12,0,0,12,213.5,626.1)" />
<use xlink:href="#f0_4" transform="matrix(12,0,0,12,225.4,626.1)" />
<use xlink:href="#f0_e" transform="matrix(12,0,0,12,235.9,626.1)" />
<use xlink:href="#f0_j" transform="matrix(12,0,0,12,247.5,626.1)" />
<use xlink:href="#f0_k" transform="matrix(12,0,0,12,257.9,626.1)" />
<use xlink:href="#f0_l" transform="matrix(12,0,0,12,267.5,626.1)" />
<use xlink:href="#f0_1b" transform="matrix(12,0,0,12,280.6,626.1)" />
<use xlink:href="#f0_8" transform="matrix(12,0,0,12,293.7,626.1)" />
<use xlink:href="#f0_d" transform="matrix(12,0,0,12,305.7,626.1)" />
<use xlink:href="#f0_j" transform="matrix(12,0,0,12,309.9,626.1)" />
<use xlink:href="#f0_4" transform="matrix(12,0,0,12,320.2,626.1)" />
<use xlink:href="#f0_h" transform="matrix(12,0,0,12,330.8,626.1)" />
<use xlink:href="#f0_4" transform="matrix(12,0,0,12,342.2,626.1)" />
<use xlink:href="#f0_19" transform="matrix(12,0,0,12,359.3,626.1)" />
<use xlink:href="#f0_j" transform="matrix(12,0,0,12,367.7,626.1)" />
<use xlink:href="#f0_e" transform="matrix(12,0,0,12,378.1,626.1)" />
<use xlink:href="#f0_q" transform="matrix(12,0,0,12,383.1,626.1)" />
<use xlink:href="#f0_19" transform="matrix(12,0,0,12,395.3,626.1)" />
<use xlink:href="#f0_9" transform="matrix(12,0,0,12,410.4,626.1)" />
<use xlink:href="#f0_6" transform="matrix(12,0,0,12,420.8,626.1)" />
<use xlink:href="#f0_7" transform="matrix(12,0,0,12,433.8,626.1)" />
<use xlink:href="#f0_9" transform="matrix(12,0,0,12,446.2,626.1)" />
<use xlink:href="#f0_s" transform="matrix(12,0,0,12,463.2,626.1)" />
<use xlink:href="#f0_k" transform="matrix(12,0,0,12,473,626.1)" />
<use xlink:href="#f0_15" transform="matrix(12,0,0,12,489.3,626.1)" />
<use xlink:href="#f0_8" transform="matrix(12,0,0,12,495.1,626.1)" />
<use xlink:href="#f0_d" transform="matrix(12,0,0,12,507.2,626.1)" />
<use xlink:href="#f0_j" transform="matrix(12,0,0,12,511.3,626.1)" />
<use xlink:href="#f0_4" transform="matrix(12,0,0,12,521.7,626.1)" />
<use xlink:href="#f0_h" transform="matrix(12,0,0,12,532.2,626.1)" />
<use xlink:href="#f0_9" transform="matrix(12,0,0,12,543.7,626.1)" />
<use xlink:href="#f0_8" transform="matrix(12,0,0,12,560.6,626.1)" />
<use xlink:href="#f0_d" transform="matrix(12,0,0,12,572.6,626.1)" />
<use xlink:href="#f0_a" transform="matrix(12,0,0,12,576.7,626.1)" />
<use xlink:href="#f0_j" transform="matrix(12,0,0,12,586.7,626.1)" />
<use xlink:href="#f0_g" transform="matrix(12,0,0,12,597.1,626.1)" />
<use xlink:href="#f0_f" transform="matrix(12,0,0,12,608.5,626.1)" />
<use xlink:href="#f0_m" transform="matrix(12,0,0,12,627,626.1)" />
<use xlink:href="#f0_d" transform="matrix(12,0,0,12,632,626.1)" />
<use xlink:href="#f0_4" transform="matrix(12,0,0,12,636.1,626.1)" />
<use xlink:href="#f0_8" transform="matrix(12,0,0,12,653.2,626.1)" />
<use xlink:href="#f0_e" transform="matrix(12,0,0,12,665.2,626.1)" />
<use xlink:href="#f0_3" transform="matrix(12,0,0,12,670.1,626.1)" />
<use xlink:href="#f0_l" transform="matrix(12,0,0,12,682,626.1)" />
<use xlink:href="#f0_m" transform="matrix(12,0,0,12,695,626.1)" />
<use xlink:href="#f0_d" transform="matrix(12,0,0,12,700,626.1)" />
<use xlink:href="#f0_q" transform="matrix(12,0,0,12,704.1,626.1)" />
<use xlink:href="#f0_m" transform="matrix(12,0,0,12,722.9,626.1)" />
<use xlink:href="#f0_k" transform="matrix(12,0,0,12,727.9,626.1)" />
<use xlink:href="#f0_e" transform="matrix(12,0,0,12,744.2,626.1)" />
<use xlink:href="#f0_7" transform="matrix(12,0,0,12,749.1,626.1)" />
<use xlink:href="#f0_k" transform="matrix(12,0,0,12,761.6,626.1)" />
<use xlink:href="#f2_5" transform="matrix(11,0,0,11,137.5,626.1)" />
<use xlink:href="#f2_l" transform="matrix(11,0,0,11,142.1,626.1)" />
<use xlink:href="#f2_w" transform="matrix(11,0,0,11,150.5,626.1)" />
<use xlink:href="#f0_c" transform="matrix(12,0,0,12,723.6,647.5)" />
<use xlink:href="#f0_3" transform="matrix(12,0,0,12,729.4,647.5)" />
<use xlink:href="#f0_4" transform="matrix(12,0,0,12,741.3,647.5)" />
<use xlink:href="#f0_i" transform="matrix(12,0,0,12,751.8,647.5)" />
<use xlink:href="#f0_b" transform="matrix(12,0,0,12,764.8,647.5)" />
<use xlink:href="#f3_7" transform="matrix(12,0,0,12,701.6,670.4)" />
<use xlink:href="#f3_c" transform="matrix(12,0,0,12,714.1,670.4)" />
<use xlink:href="#f3_b" transform="matrix(12,0,0,12,720.3,670.4)" />
<use xlink:href="#f3_l" transform="matrix(12,0,0,12,733.6,670.4)" />
<use xlink:href="#f3_i" transform="matrix(12,0,0,12,746.9,670.4)" />
<use xlink:href="#f3_c" transform="matrix(12,0,0,12,755,670.4)" />
<use xlink:href="#f3_9" transform="matrix(12,0,0,12,761.3,670.4)" />
<use xlink:href="#f4_2" transform="matrix(13,0,0,13,560.1,670.4)" />
<use xlink:href="#f4_3" transform="matrix(13,0,0,13,575.2,670.4)" />
<use xlink:href="#f4_4" transform="matrix(13,0,0,13,582.4,670.4)" />
<use xlink:href="#f4_5" transform="matrix(13,0,0,13,595,670.4)" />
<use xlink:href="#f4_6" transform="matrix(13,0,0,13,616.1,670.4)" />
<use xlink:href="#f4_7" transform="matrix(13,0,0,13,630,670.4)" />
<use xlink:href="#f4_8" transform="matrix(13,0,0,13,637.5,670.4)" />
<use xlink:href="#f4_9" transform="matrix(13,0,0,13,650.7,670.4)" />
</g>
</g>
<path d="M128.6,694.9H690.2M128.6,829.4H690.2M128.6,870.9H690.2M128.6,1011H690.2m-561.6,41.4H690.2M128.9,694.5v358.3M311.5,694.5v358.3M503.1,694.5v358.3M689.8,694.5v358.3" class="g2_4" />
<g clip-path="url(#c0_4)">
<g fill="#000000" >
<use xlink:href="#f2_z" transform="matrix(11,0,0,11,580.3,845.5)" />
<use xlink:href="#f2_5" transform="matrix(11,0,0,11,590.5,845.5)" />
<use xlink:href="#f2_h" transform="matrix(11,0,0,11,599.3,845.5)" />
<use xlink:href="#f2_u" transform="matrix(11,0,0,11,606.8,845.5)" />
<use xlink:href="#f2_r" transform="matrix(11,0,0,11,612.4,845.5)" />
<use xlink:href="#f2_4" transform="matrix(11,0,0,11,620.8,845.5)" />
<use xlink:href="#f2_5" transform="matrix(11,0,0,11,629.1,845.5)" />
<use xlink:href="#f2_e" transform="matrix(11,0,0,11,638.1,845.5)" />
<use xlink:href="#f2_f" transform="matrix(11,0,0,11,645.4,845.5)" />
<use xlink:href="#f2_6" transform="matrix(11,0,0,11,656.2,845.5)" />
<use xlink:href="#f2_5" transform="matrix(11,0,0,11,663.5,845.5)" />
<use xlink:href="#f2_g" transform="matrix(11,0,0,11,668.3,845.5)" />
<use xlink:href="#f2_4" transform="matrix(11,0,0,11,673,845.5)" />
<use xlink:href="#f0_3" transform="matrix(12,0,0,12,572.5,866.1)" />
<use xlink:href="#f0_e" transform="matrix(12,0,0,12,584.4,866.1)" />
<use xlink:href="#f0_4" transform="matrix(12,0,0,12,589.4,866.1)" />
<use xlink:href="#f0_r" transform="matrix(12,0,0,12,599.9,866.1)" />
<use xlink:href="#f0_q" transform="matrix(12,0,0,12,613.4,866.1)" />
<use xlink:href="#f0_e" transform="matrix(12,0,0,12,625.6,866.1)" />
<use xlink:href="#f0_3" transform="matrix(12,0,0,12,630.6,866.1)" />
<use xlink:href="#f0_u" transform="matrix(12,0,0,12,648.3,866.1)" />
<use xlink:href="#f0_h" transform="matrix(12,0,0,12,658.3,866.1)" />
<use xlink:href="#f0_3" transform="matrix(12,0,0,12,669.7,866.1)" />
<use xlink:href="#f2_z" transform="matrix(11,0,0,11,383.2,845.5)" />
<use xlink:href="#f2_5" transform="matrix(11,0,0,11,393.4,845.5)" />
<use xlink:href="#f2_16" transform="matrix(11,0,0,11,402.4,845.5)" />
<use xlink:href="#f2_6" transform="matrix(11,0,0,11,409.7,845.5)" />
<use xlink:href="#f2_15" transform="matrix(11,0,0,11,417.2,845.5)" />
<use xlink:href="#f2_1d" transform="matrix(11,0,0,11,422.8,845.5)" />
<use xlink:href="#f2_e" transform="matrix(11,0,0,11,434.4,845.5)" />
<use xlink:href="#f2_f" transform="matrix(11,0,0,11,441.9,845.5)" />
<use xlink:href="#f2_r" transform="matrix(11,0,0,11,452.5,845.5)" />
<use xlink:href="#f2_6" transform="matrix(11,0,0,11,460.9,845.5)" />
<use xlink:href="#f2_u" transform="matrix(11,0,0,11,468.4,845.5)" />
<use xlink:href="#f2_6" transform="matrix(11,0,0,11,474,845.5)" />
<use xlink:href="#f2_g" transform="matrix(11,0,0,11,481.3,845.5)" />
<use xlink:href="#f2_4" transform="matrix(11,0,0,11,486.1,845.5)" />
<use xlink:href="#f0_9" transform="matrix(12,0,0,12,383.8,866.1)" />
<use xlink:href="#f0_e" transform="matrix(12,0,0,12,394.2,866.1)" />
<use xlink:href="#f0_l" transform="matrix(12,0,0,12,399.1,866.1)" />
<use xlink:href="#f0_q" transform="matrix(12,0,0,12,411.4,866.1)" />
<use xlink:href="#f0_e" transform="matrix(12,0,0,12,423.6,866.1)" />
<use xlink:href="#f0_3" transform="matrix(12,0,0,12,428.7,866.1)" />
<use xlink:href="#f0_3" transform="matrix(12,0,0,12,446.5,866.1)" />
<use xlink:href="#f0_g" transform="matrix(12,0,0,12,458.4,866.1)" />
<use xlink:href="#f0_i" transform="matrix(12,0,0,12,469.9,866.1)" />
<use xlink:href="#f0_3" transform="matrix(12,0,0,12,482.9,866.1)" />
<use xlink:href="#f2_12" transform="matrix(11,0,0,11,172,845.5)" />
<use xlink:href="#f2_6" transform="matrix(11,0,0,11,182.3,845.5)" />
<use xlink:href="#f2_16" transform="matrix(11,0,0,11,194,845.5)" />
<use xlink:href="#f2_s" transform="matrix(11,0,0,11,201.3,845.5)" />
<use xlink:href="#f2_l" transform="matrix(11,0,0,11,206,845.5)" />
<use xlink:href="#f2_q" transform="matrix(11,0,0,11,214.4,845.5)" />
<use xlink:href="#f2_6" transform="matrix(11,0,0,11,222.8,845.5)" />
<use xlink:href="#f2_q" transform="matrix(11,0,0,11,230.3,845.5)" />
<use xlink:href="#f2_e" transform="matrix(11,0,0,11,243,845.5)" />
<use xlink:href="#f2_f" transform="matrix(11,0,0,11,250.3,845.5)" />
<use xlink:href="#f2_r" transform="matrix(11,0,0,11,261.1,845.5)" />
<use xlink:href="#f2_4" transform="matrix(11,0,0,11,269.5,845.5)" />
<use xlink:href="#f2_m" transform="matrix(11,0,0,11,277.9,845.5)" />
<use xlink:href="#f2_s" transform="matrix(11,0,0,11,286.2,845.5)" />
<use xlink:href="#f2_g" transform="matrix(11,0,0,11,290.9,845.5)" />
<use xlink:href="#f2_6" transform="matrix(11,0,0,11,295.6,845.5)" />
<use xlink:href="#f0_3" transform="matrix(12,0,0,12,198.2,866.1)" />
<use xlink:href="#f0_g" transform="matrix(12,0,0,12,210.1,866.1)" />
<use xlink:href="#f0_d" transform="matrix(12,0,0,12,221.4,866.1)" />
<use xlink:href="#f0_q" transform="matrix(12,0,0,12,231.4,866.1)" />
<use xlink:href="#f0_d" transform="matrix(12,0,0,12,243.7,866.1)" />
<use xlink:href="#f0_3" transform="matrix(12,0,0,12,247.8,866.1)" />
<use xlink:href="#f0_j" transform="matrix(12,0,0,12,265.5,866.1)" />
<use xlink:href="#f0_d" transform="matrix(12,0,0,12,275.9,866.1)" />
<use xlink:href="#f0_h" transform="matrix(12,0,0,12,280,866.1)" />
<use xlink:href="#f0_3" transform="matrix(12,0,0,12,291.4,866.1)" />
<use xlink:href="#f2_z" transform="matrix(11,0,0,11,518.5,1027)" />
<use xlink:href="#f2_5" transform="matrix(11,0,0,11,528.8,1027)" />
<use xlink:href="#f2_e" transform="matrix(11,0,0,11,537.8,1027)" />
<use xlink:href="#f2_f" transform="matrix(11,0,0,11,545.1,1027)" />
<use xlink:href="#f2_g" transform="matrix(11,0,0,11,551.6,1027)" />
<use xlink:href="#f2_l" transform="matrix(11,0,0,11,556.4,1027)" />
<use xlink:href="#f2_q" transform="matrix(11,0,0,11,564.8,1027)" />
<use xlink:href="#f2_s" transform="matrix(11,0,0,11,573,1027)" />
<use xlink:href="#f2_6" transform="matrix(11,0,0,11,577.7,1027)" />
<use xlink:href="#f2_m" transform="matrix(11,0,0,11,585.2,1027)" />
<use xlink:href="#f2_g" transform="matrix(11,0,0,11,593.6,1027)" />
<use xlink:href="#f2_e" transform="matrix(11,0,0,11,598.3,1027)" />
<use xlink:href="#f2_e" transform="matrix(11,0,0,11,609.9,1027)" />
<use xlink:href="#f2_f" transform="matrix(11,0,0,11,617.4,1027)" />
<use xlink:href="#f2_q" transform="matrix(11,0,0,11,628,1027)" />
<use xlink:href="#f2_e" transform="matrix(11,0,0,11,636.4,1027)" />
<use xlink:href="#f2_5" transform="matrix(11,0,0,11,643.9,1027)" />
<use xlink:href="#f2_y" transform="matrix(11,0,0,11,648.6,1027)" />
<use xlink:href="#f2_6" transform="matrix(11,0,0,11,657,1027)" />
<use xlink:href="#f2_q" transform="matrix(11,0,0,11,664.5,1027)" />
<use xlink:href="#f2_4" transform="matrix(11,0,0,11,672.9,1027)" />
<use xlink:href="#f0_3" transform="matrix(12,0,0,12,542.2,1047.8)" />
<use xlink:href="#f0_l" transform="matrix(12,0,0,12,554.1,1047.8)" />
<use xlink:href="#f0_j" transform="matrix(12,0,0,12,560.4,1047.8)" />
<use xlink:href="#f0_q" transform="matrix(12,0,0,12,576.7,1047.8)" />
<use xlink:href="#f0_e" transform="matrix(12,0,0,12,589,1047.8)" />
<use xlink:href="#f0_3" transform="matrix(12,0,0,12,594,1047.8)" />
<use xlink:href="#f0_z" transform="matrix(12,0,0,12,611.7,1047.8)" />
<use xlink:href="#f0_b" transform="matrix(12,0,0,12,623.6,1047.8)" />
<use xlink:href="#f0_a" transform="matrix(12,0,0,12,630.9,1047.8)" />
<use xlink:href="#f0_e" transform="matrix(12,0,0,12,640.9,1047.8)" />
<use xlink:href="#f0_z" transform="matrix(12,0,0,12,645.9,1047.8)" />
<use xlink:href="#f0_f" transform="matrix(12,0,0,12,657.8,1047.8)" />
<use xlink:href="#f0_3" transform="matrix(12,0,0,12,669.7,1047.8)" />
<use xlink:href="#f2_12" transform="matrix(11,0,0,11,330,1027)" />
<use xlink:href="#f2_6" transform="matrix(11,0,0,11,340.2,1027)" />
<use xlink:href="#f2_e" transform="matrix(11,0,0,11,351.8,1027)" />
<use xlink:href="#f2_f" transform="matrix(11,0,0,11,359.3,1027)" />
<use xlink:href="#f2_g" transform="matrix(11,0,0,11,365.8,1027)" />
<use xlink:href="#f2_l" transform="matrix(11,0,0,11,370.6,1027)" />
<use xlink:href="#f2_q" transform="matrix(11,0,0,11,379,1027)" />
<use xlink:href="#f2_s" transform="matrix(11,0,0,11,387.2,1027)" />
<use xlink:href="#f2_6" transform="matrix(11,0,0,11,391.9,1027)" />
<use xlink:href="#f2_m" transform="matrix(11,0,0,11,399.4,1027)" />
<use xlink:href="#f2_g" transform="matrix(11,0,0,11,407.8,1027)" />
<use xlink:href="#f2_e" transform="matrix(11,0,0,11,412.4,1027)" />
<use xlink:href="#f2_e" transform="matrix(11,0,0,11,424.1,1027)" />
<use xlink:href="#f2_f" transform="matrix(11,0,0,11,431.6,1027)" />
<use xlink:href="#f2_q" transform="matrix(11,0,0,11,442.2,1027)" />
<use xlink:href="#f2_e" transform="matrix(11,0,0,11,450.6,1027)" />
<use xlink:href="#f2_5" transform="matrix(11,0,0,11,458,1027)" />
<use xlink:href="#f2_y" transform="matrix(11,0,0,11,462.7,1027)" />
<use xlink:href="#f2_6" transform="matrix(11,0,0,11,471.1,1027)" />
<use xlink:href="#f2_q" transform="matrix(11,0,0,11,478.6,1027)" />
<use xlink:href="#f2_6" transform="matrix(11,0,0,11,487,1027)" />
<use xlink:href="#f0_3" transform="matrix(12,0,0,12,340.1,1047.8)" />
<use xlink:href="#f0_l" transform="matrix(12,0,0,12,352,1047.8)" />
<use xlink:href="#f0_j" transform="matrix(12,0,0,12,358.3,1047.8)" />
<use xlink:href="#f0_q" transform="matrix(12,0,0,12,374.6,1047.8)" />
<use xlink:href="#f0_d" transform="matrix(12,0,0,12,386.8,1047.8)" />
<use xlink:href="#f0_3" transform="matrix(12,0,0,12,390.9,1047.8)" />
<use xlink:href="#f0_8" transform="matrix(12,0,0,12,408.7,1047.8)" />
<use xlink:href="#f0_d" transform="matrix(12,0,0,12,420.7,1047.8)" />
<use xlink:href="#f0_z" transform="matrix(12,0,0,12,424.8,1047.8)" />
<use xlink:href="#f0_b" transform="matrix(12,0,0,12,436.6,1047.8)" />
<use xlink:href="#f0_a" transform="matrix(12,0,0,12,443.9,1047.8)" />
<use xlink:href="#f0_e" transform="matrix(12,0,0,12,454,1047.8)" />
<use xlink:href="#f0_z" transform="matrix(12,0,0,12,459,1047.8)" />
<use xlink:href="#f0_f" transform="matrix(12,0,0,12,470.9,1047.8)" />
<use xlink:href="#f0_3" transform="matrix(12,0,0,12,482.8,1047.8)" />
<use xlink:href="#f2_z" transform="matrix(11,0,0,11,154.3,1027)" />
<use xlink:href="#f2_5" transform="matrix(11,0,0,11,164.5,1027)" />
<use xlink:href="#f2_g" transform="matrix(11,0,0,11,173.4,1027)" />
<use xlink:href="#f2_l" transform="matrix(11,0,0,11,178.1,1027)" />
<use xlink:href="#f2_u" transform="matrix(11,0,0,11,186.4,1027)" />
<use xlink:href="#f2_s" transform="matrix(11,0,0,11,192,1027)" />
<use xlink:href="#f2_f" transform="matrix(11,0,0,11,196.7,1027)" />
<use xlink:href="#f2_g" transform="matrix(11,0,0,11,203.1,1027)" />
<use xlink:href="#f2_6" transform="matrix(11,0,0,11,207.8,1027)" />
<use xlink:href="#f2_e" transform="matrix(11,0,0,11,219.6,1027)" />
<use xlink:href="#f2_f" transform="matrix(11,0,0,11,226.9,1027)" />
<use xlink:href="#f2_f" transform="matrix(11,0,0,11,237.7,1027)" />
<use xlink:href="#f2_s" transform="matrix(11,0,0,11,244.1,1027)" />
<use xlink:href="#f2_c" transform="matrix(11,0,0,11,248.9,1027)" />
<use xlink:href="#f2_x" transform="matrix(11,0,0,11,262,1027)" />
<use xlink:href="#f2_h" transform="matrix(11,0,0,11,270.4,1027)" />
<use xlink:href="#f2_g" transform="matrix(11,0,0,11,277.7,1027)" />
<use xlink:href="#f2_s" transform="matrix(11,0,0,11,282.4,1027)" />
<use xlink:href="#f2_16" transform="matrix(11,0,0,11,287.2,1027)" />
<use xlink:href="#f2_4" transform="matrix(11,0,0,11,294.6,1027)" />
<use xlink:href="#f0_d" transform="matrix(12,0,0,12,164.1,1047.8)" />
<use xlink:href="#f0_z" transform="matrix(12,0,0,12,168.2,1047.8)" />
<use xlink:href="#f0_g" transform="matrix(12,0,0,12,180.1,1047.8)" />
<use xlink:href="#f0_7" transform="matrix(12,0,0,12,191.5,1047.8)" />
<use xlink:href="#f0_d" transform="matrix(12,0,0,12,203.9,1047.8)" />
<use xlink:href="#f0_f" transform="matrix(12,0,0,12,208,1047.8)" />
<use xlink:href="#f0_q" transform="matrix(12,0,0,12,225.7,1047.8)" />
<use xlink:href="#f0_e" transform="matrix(12,0,0,12,237.9,1047.8)" />
<use xlink:href="#f0_3" transform="matrix(12,0,0,12,243,1047.8)" />
<use xlink:href="#f0_j" transform="matrix(12,0,0,12,260.8,1047.8)" />
<use xlink:href="#f0_d" transform="matrix(12,0,0,12,271.1,1047.8)" />
<use xlink:href="#f0_d" transform="matrix(12,0,0,12,275.2,1047.8)" />
<use xlink:href="#f0_8" transform="matrix(12,0,0,12,279.3,1047.8)" />
<use xlink:href="#f0_3" transform="matrix(12,0,0,12,291.3,1047.8)" />
<use xlink:href="#f0_1e" transform="matrix(12,0,0,12,137.7,1208.5)" />
</g>
</g>
<image preserveAspectRatio="none" x="516" y="721" width="143" height="108" xlink:href="img/1.png" />
<image preserveAspectRatio="none" x="339" y="719" width="133" height="105" xlink:href="img/2.png" />
<image preserveAspectRatio="none" x="152" y="720" width="136" height="104" xlink:href="img/3.png" />
<image preserveAspectRatio="none" x="534" y="897" width="115" height="109" xlink:href="img/4.png" />
<image preserveAspectRatio="none" x="352" y="897" width="106" height="113" xlink:href="img/5.png" />
<image preserveAspectRatio="none" x="161" y="901" width="103" height="104" xlink:href="img/6.png" />
<defs>
<path d="M287,0L589,729H66v386H205V836l547,-1l-2,-82L433,0Z" 
id="f0_9"
transform="scale(0.001,-0.001)" />

<path d="M139,0V138c0,0,0,61,8,112c0,0,7,52,19,87c0,0,11,36,30,66c0,0,19,31,35,49c0,0,17,19,41,35c0,0,25,17,41,25c0,0,17,7,40,17L141,836H303L613,388c0,0,20,10,33,18c0,0,13,8,34,28c0,0,20,20,33,44c0,0,13,25,22,66c0,0,10,41,10,92V836H882V698c0,0,0,-61,-7,-112c0,0,-6,-52,-18,-88c0,0,-12,-36,-30,-66c0,0,-19,-30,-36,-49c0,0,-17,-18,-41,-34c0,0,-24,-17,-40,-25c0,0,-17,-8,-41,-17L882,0H720L409,448c0,0,-21,-11,-34,-19c0,0,-13,-8,-34,-27c0,0,-21,-20,-34,-44c0,0,-12,-25,-22,-66c0,0,-9,-41,-9,-92V0Z" 
id="f0_q"
transform="scale(0.001,-0.001)" />

<path d="M74,357V479H476V357Z" 
id="f0_1b"
transform="scale(0.001,-0.001)" />

<path d="M112,-5c0,0,-39,0,-97,11V113c0,0,48,-10,77,-10c0,0,53,0,70,42c0,0,17,43,17,164V729H50V836H501c0,0,107,0,179,-25c0,0,72,-25,112,-77c0,0,40,-51,57,-118c0,0,16,-67,16,-164V0H726V454c0,0,0,55,-3,92c0,0,-4,37,-17,75c0,0,-14,38,-38,59c0,0,-24,22,-65,36c0,0,-42,13,-102,13H318V309c0,0,0,-160,-46,-237C272,72,226,-5,112,-5Z" 
id="f0_8"
transform="scale(0.001,-0.001)" />

<path d="M102,312V836H241V369L102,312Z" 
id="f0_d"
transform="scale(0.001,-0.001)" />

<path d="M66,0V107H332V555c0,0,0,92,-37,133c0,0,-37,41,-116,41H85V836h94c0,0,153,0,223,-66c0,0,69,-66,69,-231V0Z" 
id="f0_b"
transform="scale(0.001,-0.001)" />

<path d="M66,0V106H322c0,0,75,0,127,23c0,0,53,23,82,67c0,0,29,43,42,98c0,0,13,54,13,124c0,0,0,70,-13,124c0,0,-13,55,-42,98c0,0,-29,44,-82,67c0,0,-52,23,-127,23H66V836H322c0,0,87,0,157,-24c0,0,70,-24,115,-64c0,0,45,-40,74,-94c0,0,30,-55,43,-113c0,0,13,-59,13,-123c0,0,0,-64,-13,-123c0,0,-13,-58,-43,-113c0,0,-29,-54,-74,-94C594,88,549,48,479,24C479,24,409,0,322,0Z" 
id="f0_k"
transform="scale(0.001,-0.001)" />

<path d="M139,0V836H278V0Z" 
id="f0_e"
transform="scale(0.001,-0.001)" />

<path d="M154,0V454l138,56V0ZM722,0V454c0,0,0,161,-49,218c0,0,-48,57,-186,57H139V836H485c0,0,207,0,291,-93c0,0,83,-94,83,-318V0Z" 
id="f0_3"
transform="scale(0.001,-0.001)" />

<path d="M433,-292v111H265V-69H713V-181H545V-292Z" 
id="f0_w"
transform="scale(0.001,-0.001)" />

<path d="M114,0l60,312c0,0,2,12,8,39c0,0,6,27,7,37c0,0,2,11,5,30c0,0,2,19,4,33c0,0,1,15,1,31c0,0,0,48,-35,146c0,0,-35,98,-98,208H228c0,0,3,-8,27,-67c0,0,25,-58,41,-117c0,0,21,53,50,90c0,0,29,37,57,57c0,0,29,21,65,32c0,0,37,11,65,14c0,0,28,3,67,3c0,0,300,0,300,-396V0H480V106H761V452c0,0,0,146,-46,215c0,0,-45,70,-118,70c0,0,-134,0,-198,-119c0,0,-36,-68,-67,-222c0,0,-2,-10,-6,-27L253,0Z" 
id="f0_7"
transform="scale(0.001,-0.001)" />

<path d="M585,0V426c0,0,0,54,-8,98c0,0,-8,44,-27,83c0,0,-19,40,-49,66c0,0,-30,26,-77,41c0,0,-47,15,-108,15H66V836H315c0,0,94,0,166,-20c0,0,71,-20,116,-54c0,0,46,-35,75,-88c0,0,28,-52,40,-112c0,0,12,-60,12,-137V0Z" 
id="f0_j"
transform="scale(0.001,-0.001)" />

<path d="M433,-329v111H545V-329Zm0,185V-32H545V-144Z" 
id="f0_10"
transform="scale(0.001,-0.001)" />

<path d="M138,-7c0,0,-34,0,-72,10V129c0,0,25,-8,52,-8c0,0,33,0,58,5c0,0,26,5,58,24c0,0,33,20,53,54c0,0,21,34,36,97c0,0,15,64,15,151c0,0,0,113,-19,173c0,0,-19,60,-56,82c0,0,-38,22,-107,22H89V836h72c0,0,165,0,240,-91c0,0,76,-91,76,-293c0,0,0,-107,26,-227c0,0,25,-119,83,-225H437c0,0,-43,101,-62,184c0,0,-24,-60,-51,-99c0,0,-26,-38,-56,-58C268,27,239,7,209,0c0,0,-30,-7,-71,-7Z" 
id="f0_r"
transform="scale(0.001,-0.001)" />

<path d="M0,955v112H111V955Z" 
id="f0_x"
transform="scale(0.001,-0.001)" />

<path d="M441,362V473H552V362Z" 
id="f0_12"
transform="scale(0.001,-0.001)" />

<path d="M139,0V106H400c0,0,176,0,253,71c0,0,78,72,78,250c0,0,0,163,-80,233c0,0,-81,69,-250,69H278L277,564c0,0,-1,-54,26,-80c0,0,27,-25,82,-25c0,0,30,0,80,9V355c0,0,-61,-12,-111,-12c0,0,-100,0,-157,55c0,0,-58,55,-58,186V836H456c0,0,193,0,303,-109c0,0,110,-109,110,-309c0,0,0,-200,-110,-309C759,109,648,0,456,0Z" 
id="f0_g"
transform="scale(0.001,-0.001)" />

<path d="M41,0V49l69,18V634L41,652v49H313l11,-61l50,26c0,0,105,54,188,54c0,0,125,0,167,-91c0,0,153,91,258,91c0,0,189,0,189,-207V67l71,-17V0H898V50l63,17V484c0,0,0,63,-24,98c0,0,-25,35,-74,35c0,0,-55,0,-119,-31c0,0,7,-32,7,-73V67L821,50V0H473V50l63,17V484c0,0,0,63,-25,98c0,0,-24,35,-73,35c0,0,-49,0,-113,-29V67L389,49V0Z" 
id="f1_x"
transform="scale(0.001,-0.001)" />

<path d="M345,75c0,0,50,0,110,26V351l-63,-2c0,0,-72,-3,-100,-38c0,0,-28,-35,-28,-113c0,0,0,-63,22,-93c0,0,23,-30,59,-30ZM266,-14c0,0,-217,0,-217,208c0,0,0,79,32,126c0,0,32,48,93,71c0,0,60,22,190,25l91,2V521c0,0,0,126,-104,126c0,0,-62,0,-140,-39L183,521H134V691c0,0,112,17,165,21c0,0,53,5,108,5c0,0,264,0,264,-194V67L741,49V0H483L466,54C466,54,408,14,361,0c0,0,-47,-14,-95,-14Z" 
id="f1_j"
transform="scale(0.001,-0.001)" />

<path d="M211,-20c0,0,-39,0,-64,25c0,0,-26,27,-26,64c0,0,0,38,26,64c0,0,26,26,64,26c0,0,37,0,64,-25c0,0,26,-26,26,-65c0,0,0,-37,-26,-64c0,0,-26,-25,-64,-25Zm0,556c0,0,-38,0,-64,26c0,0,-26,26,-26,64c0,0,0,37,26,64c0,0,25,27,64,27c0,0,38,0,64,-27c0,0,26,-27,26,-64c0,0,0,-38,-26,-64c0,0,-27,-26,-64,-26Z" 
id="f2_1c"
transform="scale(0.001,-0.001)" />

<path d="M495,413c0,0,0,133,-34,190c0,0,-34,57,-105,57c0,0,-78,0,-119,-63c0,0,-42,-62,-42,-184ZM374,-14c0,0,-163,0,-239,87c0,0,-75,88,-75,283c0,0,0,183,77,273c0,0,76,91,219,91c0,0,269,0,269,-306V353H194V340c0,0,0,-103,23,-160c0,0,22,-57,70,-87c0,0,47,-29,124,-29c0,0,40,0,96,6c0,0,55,7,91,15V43C598,43,562,20,500,3c0,0,-61,-17,-126,-17Z" 
id="f2_e"
transform="scale(0.001,-0.001)" />

<path d="M31,0V33L150,52v956L31,1026v34H274V52L394,33V0Z" 
id="f2_5"
transform="scale(0.001,-0.001)" />

<path d="M382,45c0,0,188,0,188,314c0,0,0,143,-47,213c0,0,-46,69,-141,69c0,0,-87,0,-146,-24V58c0,0,67,-13,146,-13ZM25,-325v35l88,18V649L34,668v33H231l1,-41c0,0,31,27,84,43c0,0,53,17,107,17c0,0,134,0,208,-94c0,0,73,-93,73,-267c0,0,0,-178,-80,-276c0,0,-80,-97,-232,-97c0,0,-84,0,-160,16c0,0,4,-53,4,-84V-272l123,-18v-35Z" 
id="f2_x"
transform="scale(0.001,-0.001)" />

<path d="M31,0V33l88,19V649L31,668v33H235l7,-87c0,0,44,37,121,71c0,0,76,35,121,35h11V530H463l-43,82c0,0,-37,0,-88,-10c0,0,-52,-10,-89,-26V52L363,33V0Z" 
id="f2_u"
transform="scale(0.001,-0.001)" />

<path d="M377,45c0,0,99,0,147,73c0,0,47,73,47,237c0,0,0,161,-47,233c0,0,-47,72,-147,72c0,0,-97,0,-141,-69c0,0,-44,-69,-44,-236c0,0,0,-169,45,-240c0,0,44,-70,140,-70Zm0,-59c0,0,-158,0,-238,94c0,0,-81,95,-81,274c0,0,0,178,81,272c0,0,80,94,244,94c0,0,160,0,241,-92c0,0,82,-92,82,-274c0,0,0,-368,-329,-368Z" 
id="f2_4"
transform="scale(0.001,-0.001)" />

<path d="M359,-270c0,0,124,0,192,46c0,0,67,47,67,129c0,0,0,43,-26,67c0,0,-26,24,-79,24H242c0,0,-32,-27,-51,-69c0,0,-20,-41,-20,-77c0,0,0,-64,46,-92c0,0,46,-28,142,-28Zm11,561c0,0,81,0,115,47c0,0,34,47,34,141c0,0,0,100,-35,142c0,0,-35,42,-113,42c0,0,-78,0,-114,-43c0,0,-37,-42,-37,-141c0,0,0,-98,36,-143c0,0,36,-45,114,-45ZM359,-329c0,0,-143,0,-218,44c0,0,-75,43,-75,125c0,0,0,39,27,78c0,0,26,38,98,89c0,0,-43,14,-72,48c0,0,-29,35,-29,74L208,262c0,0,-118,55,-118,217c0,0,0,115,73,178c0,0,73,63,211,63c0,0,28,0,71,-6c0,0,44,-6,67,-13l165,83l26,-32L599,644c0,0,50,-56,50,-165c0,0,0,-120,-72,-182c0,0,-73,-62,-208,-62c0,0,-62,0,-114,11L208,148c0,0,2,-13,29,-24c0,0,27,-12,67,-12H512c0,0,113,0,168,-49c0,0,55,-49,55,-134c0,0,0,-79,-44,-137c0,0,-43,-58,-128,-90c0,0,-84,-31,-204,-31Z" 
id="f2_y"
transform="scale(0.001,-0.001)" />

<path d="M284,67c0,0,51,0,88,12c0,0,37,12,74,30V358l-98,-3c0,0,-100,-4,-135,-39c0,0,-35,-35,-35,-117c0,0,0,-132,106,-132ZM233,-14c0,0,-179,0,-179,208c0,0,0,70,27,116c0,0,27,46,87,70c0,0,60,24,173,27l105,3V519c0,0,0,72,-26,107c0,0,-27,34,-82,34c0,0,-75,0,-137,-35L176,538H134V691c0,0,121,26,213,26c0,0,115,0,169,-47c0,0,54,-47,54,-144V52L657,33V0H465L451,70c0,0,-85,-84,-218,-84Z" 
id="f2_6"
transform="scale(0.001,-0.001)" />

<path d="M152,0V473c0,0,0,94,28,161c0,0,29,66,71,95H66V836H463V729H404c0,0,-65,0,-89,-57c0,0,-25,-58,-25,-199V0Z" 
id="f0_l"
transform="scale(0.001,-0.001)" />

<path d="M522,-20c0,0,-196,0,-290,99c0,0,-94,100,-94,324V836H276V397c0,0,0,-86,16,-147c0,0,17,-60,50,-94c0,0,34,-34,77,-49c0,0,43,-15,103,-15c0,0,59,0,102,15c0,0,44,15,77,49c0,0,33,34,50,94c0,0,17,61,17,147c0,0,0,84,-8,143c0,0,-7,58,-25,105c0,0,-17,47,-51,69c0,0,-33,23,-83,23c0,0,-50,0,-119,-22V821c0,0,85,23,150,23c0,0,76,0,130,-30c0,0,53,-31,85,-90c0,0,31,-59,45,-138c0,0,13,-78,13,-183c0,0,0,-224,-93,-324c0,0,-94,-99,-290,-99Z" 
id="f0_z"
transform="scale(0.001,-0.001)" />

<path d="M139,-317V836H278V-317Z" 
id="f0_m"
transform="scale(0.001,-0.001)" />

<path d="M522,92c0,0,247,0,247,333c0,0,0,88,-17,146c0,0,-17,58,-53,91c0,0,-35,33,-82,46c0,0,-48,14,-116,14H276V419c0,0,0,-327,246,-327Zm0,-112c0,0,-193,0,-289,109c0,0,-95,110,-95,337V836H501c0,0,213,0,309,-93c0,0,96,-94,96,-317c0,0,0,-227,-95,-337C811,89,715,-20,522,-20Z" 
id="f0_f"
transform="scale(0.001,-0.001)" />

<path d="M433,-241v111H545V-241Z" 
id="f0_13"
transform="scale(0.001,-0.001)" />

<path d="M433,-329v111H545V-329Zm-93,185V-32H452V-144Zm186,0V-32H638V-144Z" 
id="f0_11"
transform="scale(0.001,-0.001)" />

<path d="M276,-14c0,0,-57,0,-125,13C151,-1,83,10,48,23V214H97l28,-98c0,0,26,-26,69,-44c0,0,42,-17,86,-17c0,0,65,0,97,28c0,0,32,28,32,71c0,0,0,41,-31,65c0,0,-30,25,-133,57c0,0,-108,34,-154,92c0,0,-45,58,-45,143c0,0,0,95,71,152c0,0,71,57,183,57c0,0,77,0,207,-22V518H457l-24,82c0,0,-21,22,-60,35c0,0,-40,14,-75,14c0,0,-53,0,-79,-22c0,0,-26,-22,-26,-59c0,0,0,-40,32,-65c0,0,32,-26,132,-55c0,0,109,-34,155,-89c0,0,45,-55,45,-137c0,0,0,-117,-72,-177c0,0,-72,-59,-209,-59Z" 
id="f1_11"
transform="scale(0.001,-0.001)" />

<path d="M34,0V49l76,18V634L38,652v49H325V67L402,49V0ZM217,831c0,0,-48,0,-81,33c0,0,-34,33,-34,82c0,0,0,48,34,81c0,0,34,33,81,33c0,0,48,0,81,-33c0,0,33,-33,33,-81c0,0,0,-47,-33,-81c0,0,-32,-34,-81,-34Z" 
id="f1_r"
transform="scale(0.001,-0.001)" />

<path d="M379,60c0,0,59,0,84,64c0,0,24,65,24,230c0,0,0,164,-24,228c0,0,-24,63,-84,63c0,0,-57,0,-80,-61c0,0,-22,-60,-22,-230c0,0,0,-172,23,-233c0,0,22,-61,79,-61Zm-2,-74c0,0,-161,0,-240,90c0,0,-79,92,-79,278c0,0,0,186,80,276c0,0,81,90,245,90c0,0,167,0,245,-93c0,0,78,-93,78,-273c0,0,0,-188,-81,-279c0,0,-81,-89,-248,-89ZM280,834v25l124,203H616v-28L344,834Z" 
id="f1_z"
transform="scale(0.001,-0.001)" />

<path d="M41,0V49l69,18V634L41,652v49H313l11,-61l50,26c0,0,105,54,188,54c0,0,194,0,194,-207V67L827,49V0H478V49l63,18V484c0,0,0,63,-27,98c0,0,-26,35,-75,35c0,0,-57,0,-114,-25V67L389,49V0Z" 
id="f1_v"
transform="scale(0.001,-0.001)" />

<path d="M249,-14c0,0,-71,0,-107,42c0,0,-35,42,-35,119V639H15v33l93,29l76,159h47V701H391V639H231V161c0,0,0,-48,22,-73c0,0,22,-24,57,-24c0,0,44,0,106,12V26C416,26,389,8,340,-2c0,0,-49,-12,-91,-12Z" 
id="f2_g"
transform="scale(0.001,-0.001)" />

<path d="M360,-14L72,649L0,668v33H327V668L216,648L420,164L615,649L504,668v33H764V668L697,652L416,-14Z" 
id="f2_v"
transform="scale(0.001,-0.001)" />

<path d="M32,0V33L151,52V649L52,668v33H275V52L395,33V0ZM201,850c0,0,-32,0,-56,24c0,0,-24,24,-24,56c0,0,0,34,24,58c0,0,24,24,56,24c0,0,34,0,58,-24c0,0,24,-24,24,-58c0,0,0,-32,-24,-56c0,0,-24,-24,-58,-24Z" 
id="f2_s"
transform="scale(0.001,-0.001)" />

<path d="M66,0V107H554V452c0,0,0,56,-4,93c0,0,-4,37,-18,75c0,0,-14,38,-40,60c0,0,-26,22,-71,36c0,0,-45,13,-110,13H66V836H312c0,0,91,0,157,-17c0,0,66,-17,109,-49c0,0,44,-32,69,-84c0,0,26,-52,36,-114c0,0,10,-62,10,-147V107H817V0Z" 
id="f0_4"
transform="scale(0.001,-0.001)" />

<path d="M347,-317V284c0,0,0,59,-21,123c0,0,-21,64,-44,103c0,0,-23,40,-59,94L66,838H218L336,668c0,0,76,-109,120,-223c0,0,87,34,126,107c0,0,39,73,39,186v98H758V737c0,0,0,-82,-23,-152c0,0,-23,-69,-61,-116c0,0,-39,-47,-87,-78c0,0,-47,-31,-101,-45V-317Z" 
id="f0_u"
transform="scale(0.001,-0.001)" />

<path d="M71,-141V-15L289,62L66,836H210L416,109c0,0,99,42,153,98c0,0,53,56,80,155c0,0,26,98,26,262V836H817V624c0,0,0,-88,-7,-154c0,0,-7,-67,-25,-132c0,0,-18,-66,-51,-116c0,0,-33,-51,-84,-98c0,0,-50,-48,-123,-87c0,0,-72,-39,-169,-74L71,-141Z" 
id="f0_h"
transform="scale(0.001,-0.001)" />

<path d="M30,0V49l76,18V992l-72,18v50H322V67L398,49V0Z" 
id="f1_h"
transform="scale(0.001,-0.001)" />

<path d="M284,67c0,0,51,0,88,12c0,0,37,11,74,29V357l-98,-3c0,0,-100,-3,-135,-38c0,0,-35,-36,-35,-118c0,0,0,-131,106,-131ZM233,-14c0,0,-179,0,-179,208c0,0,0,70,27,116c0,0,27,46,87,70c0,0,60,24,173,27l105,3V519c0,0,0,73,-26,107c0,0,-27,34,-82,34c0,0,-75,0,-137,-35L176,538H134V691c0,0,121,26,213,26c0,0,115,0,169,-47c0,0,54,-47,54,-144V52L657,34V0H465L451,70c0,0,-85,-84,-218,-84Zm22,849v24l146,203H560v-27L296,835Z" 
id="f2_h"
transform="scale(0.001,-0.001)" />

<path d="M376,50c0,0,103,0,149,80c0,0,46,81,46,240c0,0,0,137,-47,204c0,0,-48,67,-148,67c0,0,-44,0,-87,-7c0,0,-44,-8,-63,-17V62c0,0,63,-12,150,-12Zm3,-64c0,0,-64,0,-141,14c0,0,-78,14,-136,37v971L0,1026v34H226V809c0,0,0,-40,-4,-148c0,0,74,59,188,59c0,0,143,0,219,-87c0,0,77,-87,77,-263c0,0,0,-189,-84,-287c0,0,-84,-97,-243,-97Z" 
id="f2_r"
transform="scale(0.001,-0.001)" />

<path d="M30,0V34L352,634H272c0,0,-41,0,-80,-7c0,0,-39,-8,-54,-19L115,492H61V701H606V664L283,67H395c0,0,43,0,90,11c0,0,47,10,66,24l40,162h54L624,0Z" 
id="f1_12"
transform="scale(0.001,-0.001)" />

<path d="M289,-14c0,0,-179,0,-179,205V649L20,668v33H233V200c0,0,0,-128,120,-128c0,0,92,0,173,23V649L420,668v33H649V52L738,33V0H533l-6,57C527,57,474,28,405,7c0,0,-69,-21,-116,-21Z" 
id="f2_l"
transform="scale(0.001,-0.001)" />

<path d="M179,0V190H336V0Zm0,600V790H336V600Z" 
id="f0_t"
transform="scale(0.001,-0.001)" />

<path d="M543,-317V369c0,0,0,85,-8,143c0,0,-8,58,-27,101c0,0,-18,44,-51,69c0,0,-33,24,-80,36c0,0,-48,11,-117,11H66V836H257c0,0,125,0,205,-23c0,0,80,-23,130,-79c0,0,50,-56,70,-143c0,0,20,-86,20,-222V-317Z" 
id="f0_s"
transform="scale(0.001,-0.001)" />

<path d="M163,0V190H321V0Z" 
id="f0_c"
transform="scale(0.001,-0.001)" />

<path d="M495,0V729H66V836H781V729H634V0Z" 
id="f0_a"
transform="scale(0.001,-0.001)" />

<path d="M66,0V106H564L66,836H228L516,413c0,0,3,2,9,6c0,0,17,13,27,21c0,0,10,8,26,27c0,0,17,20,26,40c0,0,9,21,16,54c0,0,7,34,7,75V836H764V698c0,0,0,-55,-7,-102c0,0,-7,-47,-16,-79c0,0,-10,-33,-27,-62c0,0,-18,-29,-32,-46c0,0,-14,-17,-37,-35c0,0,-22,-17,-36,-25c0,0,-13,-8,-36,-20L767,53V0Z" 
id="f0_p"
transform="scale(0.001,-0.001)" />

<path d="M180,0L66,836H203L258,443c0,0,36,1,64,6c0,0,28,6,49,18c0,0,20,12,35,26c0,0,15,13,26,36c0,0,11,24,17,44c0,0,7,20,12,55c0,0,6,34,9,60c0,0,3,26,8,71c0,0,4,45,9,77H610c0,0,-13,-194,-31,-271c0,0,-31,-127,-111,-179c0,0,-71,-45,-196,-50L304,107c0,0,73,0,130,5c0,0,56,6,111,21c0,0,54,15,94,40c0,0,40,25,77,64c0,0,37,39,63,94c0,0,25,54,46,128c0,0,21,73,34,166c0,0,13,94,20,211h138c0,0,-14,-124,-29,-218c0,0,-16,-94,-39,-179c0,0,-22,-85,-50,-146c0,0,-28,-61,-68,-112c0,0,-39,-51,-87,-84C744,97,696,65,632,42C632,42,568,19,492,10C492,10,417,0,320,0Z" 
id="f0_6"
transform="scale(0.001,-0.001)" />

<path d="M736,107V473c0,0,0,147,-48,202c0,0,-49,54,-187,54H278V107ZM139,0V836H499c0,0,105,0,177,-22c0,0,72,-21,116,-69c0,0,44,-49,64,-119c0,0,19,-71,19,-174V0Z" 
id="f0_o"
transform="scale(0.001,-0.001)" />

<path d="M156,-317V454l139,56V-317ZM505,0L806,729H139V835H967V753L650,0Z" 
id="f0_i"
transform="scale(0.001,-0.001)" />

<path d="M700,-317V454c0,0,0,155,-54,215c0,0,-54,60,-180,60H277V551c0,0,0,-55,26,-80c0,0,27,-26,82,-26c0,0,30,0,80,10V341c0,0,-61,-11,-111,-11c0,0,-100,0,-157,55c0,0,-58,55,-58,186V836H466c0,0,203,0,288,-91c0,0,85,-92,85,-293V-317Z" 
id="f0_14"
transform="scale(0.001,-0.001)" />

<path d="M248,0L521,658H66v429H313V836l493,-1V716L504,0Z" 
id="f3_g"
transform="scale(0.001,-0.001)" />

<path d="M66,0V177H334c0,0,99,0,150,66c0,0,51,67,51,175c0,0,0,108,-51,175c0,0,-51,66,-150,66H66V836H334c0,0,92,0,168,-24c0,0,75,-24,127,-64c0,0,51,-40,86,-94c0,0,35,-54,51,-113c0,0,15,-60,15,-123c0,0,0,-63,-15,-123c0,0,-16,-59,-51,-113c0,0,-35,-54,-86,-94C629,88,577,48,502,24C502,24,426,0,334,0Z" 
id="f3_h"
transform="scale(0.001,-0.001)" />

<path d="M379,60c0,0,59,0,84,64c0,0,24,65,24,231c0,0,0,164,-24,227c0,0,-24,63,-84,63c0,0,-57,0,-80,-60c0,0,-22,-61,-22,-230c0,0,0,-173,23,-234c0,0,22,-61,79,-61Zm-2,-74c0,0,-161,0,-240,91c0,0,-79,91,-79,277c0,0,0,186,80,276c0,0,81,90,245,90c0,0,167,0,245,-93c0,0,78,-93,78,-273c0,0,0,-188,-81,-278c0,0,-81,-90,-248,-90Z" 
id="f1_k"
transform="scale(0.001,-0.001)" />

<path d="M41,0V49l91,18V634L41,652v49H336l8,-145c0,0,80,89,144,128c0,0,64,40,117,40h40V468H604l-45,94c0,0,-47,0,-106,-21c0,0,-60,-20,-105,-48V67L460,49V0Z" 
id="f1_o"
transform="scale(0.001,-0.001)" />

<path d="M445,-20c0,0,-86,0,-172,13c0,0,-86,13,-170,40V255c0,0,80,-40,160,-60c0,0,79,-21,156,-21c0,0,114,0,174,40c0,0,61,39,61,113c0,0,0,76,-62,115c0,0,-62,39,-184,39H293V666H414c0,0,108,0,161,34c0,0,53,34,53,103c0,0,0,65,-52,100c0,0,-51,35,-145,35c0,0,-69,0,-140,-16c0,0,-70,-15,-140,-46v210c0,0,85,24,168,36c0,0,83,12,164,12c0,0,217,0,325,-71c0,0,107,-71,107,-215c0,0,0,-98,-51,-160c0,0,-52,-62,-152,-88c0,0,112,-29,171,-101c0,0,59,-72,59,-183c0,0,0,-165,-127,-251c0,0,-127,-85,-370,-85Z" 
id="f3_n"
transform="scale(0.001,-0.001)" />

<path d="M117,-176L179,62V190H336V62L213,-176Z" 
id="f0_15"
transform="scale(0.001,-0.001)" />

<path d="M122,-200c0,0,99,170,148,338c0,0,49,169,49,342c0,0,0,172,-49,340c0,0,-49,168,-148,340H241c0,0,112,-176,168,-345c0,0,55,-169,55,-335c0,0,0,-167,-55,-337c0,0,-56,-168,-168,-343Z" 
id="f0_18"
transform="scale(0.001,-0.001)" />

<path d="M147,700v414H274V700Z" 
id="f0_2"
transform="scale(0.001,-0.001)" />

<path d="M44,0V40L172,60V941L44,960v40H794V760H745L721,922c0,0,-83,11,-241,11H316V543H586l23,119h48V354H609L586,475H316V67H513c0,0,193,0,252,12l43,185h49L843,0Z" 
id="f2_z"
transform="scale(0.001,-0.001)" />

<path d="M44,0V40L172,60V941L44,960v40H471V960L316,941V65H513c0,0,159,0,234,14l46,208h48L828,0Z" 
id="f2_12"
transform="scale(0.001,-0.001)" />

<path d="M354,-200c0,0,-112,175,-167,343c0,0,-56,170,-56,337c0,0,0,166,55,335c0,0,55,169,168,345H473c0,0,-100,-172,-148,-340c0,0,-48,-168,-48,-340c0,0,0,-173,48,-342c0,0,49,-168,148,-338Z" 
id="f0_17"
transform="scale(0.001,-0.001)" />

<path d="M0,-141L388,1114H514L127,-141Z" 
id="f0_1m"
transform="scale(0.001,-0.001)" />

<path d="M278,-14c0,0,-52,0,-115,11c0,0,-63,10,-99,23V193H98L134,95c0,0,56,-50,146,-50c0,0,144,0,144,123c0,0,0,91,-114,130l-66,21c0,0,-75,25,-110,50c0,0,-34,26,-53,63c0,0,-18,36,-18,89c0,0,0,92,63,145c0,0,63,54,170,54c0,0,77,0,193,-23V544H454l-32,81c0,0,-39,35,-124,35c0,0,-61,0,-92,-30c0,0,-32,-30,-32,-80c0,0,0,-43,29,-72c0,0,28,-29,86,-48c0,0,110,-38,144,-55c0,0,33,-17,57,-42c0,0,23,-25,36,-57c0,0,13,-32,13,-79c0,0,0,-104,-66,-158c0,0,-66,-53,-195,-53Z" 
id="f2_f"
transform="scale(0.001,-0.001)" />

<path d="M383,64c0,0,85,0,152,28V645c0,0,-67,13,-152,13c0,0,-194,0,-194,-314c0,0,0,-141,48,-211c0,0,48,-69,146,-69ZM342,-14c0,0,-287,0,-287,358c0,0,0,184,82,280c0,0,81,96,239,96c0,0,81,0,163,-18c0,0,-4,25,-4,124v182l-118,18v34H659V52L745,33V0H548l-9,52c0,0,-84,-66,-197,-66Z" 
id="f2_q"
transform="scale(0.001,-0.001)" />

<path d="M439,0V33l93,19V500c0,0,0,62,-30,97c0,0,-31,36,-94,36c0,0,-67,0,-165,-22V52L338,33V0H35V33l84,19V649L35,668v33H235l7,-57c0,0,57,33,122,54c0,0,65,22,108,22c0,0,91,0,137,-53c0,0,47,-53,47,-154V52L741,33V0Z" 
id="f2_m"
transform="scale(0.001,-0.001)" />

<path d="M431,0V33L535,52V499c0,0,0,62,-32,96c0,0,-32,33,-95,33c0,0,-66,0,-163,-22V52L350,33V0H32V33l89,19V649L32,668v33H237l6,-57c0,0,56,32,119,54c0,0,62,22,110,22c0,0,52,0,95,-20c0,0,44,-19,66,-62c0,0,57,32,134,57c0,0,77,25,128,25c0,0,179,0,179,-207V52l90,-19V0H846V33L950,52V499c0,0,0,129,-119,129c0,0,-19,0,-45,-3c0,0,-26,-3,-52,-7c0,0,-25,-4,-49,-8c0,0,-23,-5,-39,-8c0,0,13,-41,13,-89V52L764,33V0Z" 
id="f2_c"
transform="scale(0.001,-0.001)" />

<path d="M399,-14c0,0,-341,0,-341,370c0,0,0,175,87,269c0,0,87,95,249,95c0,0,101,0,220,-23V501H573L541,625c0,0,-62,35,-149,35c0,0,-200,0,-200,-304c0,0,0,-158,61,-225c0,0,61,-67,189,-67c0,0,109,0,189,24V43C631,43,595,16,530,1c0,0,-64,-15,-131,-15Z" 
id="f2_16"
transform="scale(0.001,-0.001)" />

<path d="M64,0V34L168,59V639H47v36l121,29v49c0,0,0,155,61,239c0,0,62,84,173,84c0,0,58,0,107,-15V908H472l-33,92c0,0,-26,16,-62,16c0,0,-47,0,-66,-42c0,0,-19,-42,-19,-157V701H478V639H292V59L443,34V0Z" 
id="f2_15"
transform="scale(0.001,-0.001)" />

<path d="M495,413c0,0,0,133,-34,190c0,0,-34,57,-105,57c0,0,-78,0,-119,-62c0,0,-42,-63,-42,-185ZM374,-14c0,0,-163,0,-239,87c0,0,-75,88,-75,283c0,0,0,183,77,274c0,0,76,90,219,90c0,0,269,0,269,-306V353H194V339c0,0,0,-103,23,-160c0,0,22,-57,70,-86c0,0,47,-30,124,-30c0,0,40,0,96,6c0,0,55,7,91,15V43C598,43,562,19,500,2c0,0,-61,-16,-126,-16ZM285,835v24l146,203H590v-27L326,835Z" 
id="f2_1d"
transform="scale(0.001,-0.001)" />

<path d="M442,0V33l93,19V504c0,0,0,129,-124,129c0,0,-70,0,-168,-22V52L338,33V0H31V33l88,19v956L15,1026v34H243V756c0,0,0,-77,-5,-112c0,0,54,31,122,53c0,0,68,23,115,23c0,0,91,0,137,-53c0,0,47,-53,47,-154V52L744,33V0Z" 
id="f2_13"
transform="scale(0.001,-0.001)" />

<path d="M147,700v414H274V700Zm282,0v414H556V700Z" 
id="f0_19"
transform="scale(0.001,-0.001)" />

<path d="M41,0V34L426,641H261c0,0,-42,0,-80,-7c0,0,-39,-7,-54,-19L104,515H69V701H586V665L201,60H407c0,0,42,0,89,10c0,0,47,10,66,25l39,147h35L617,0Z" 
id="f2_w"
transform="scale(0.001,-0.001)" />

<path d="M173,-6C173,-6,61,-6,15,9V177c0,0,73,-10,82,-10c0,0,37,0,52,30c0,0,14,29,14,116V658H18V836H516c0,0,262,0,341,-145c0,0,48,-89,48,-242V0H658V450c0,0,0,131,-37,171c0,0,-34,37,-105,37H411V313c0,0,0,-189,-67,-258C344,55,285,-6,173,-6Z" 
id="f3_7"
transform="scale(0.001,-0.001)" />

<path d="M139,0V836H386V0Z" 
id="f3_c"
transform="scale(0.001,-0.001)" />

<path d="M159,0V165c0,0,0,69,13,124c0,0,12,55,29,89c0,0,17,33,45,62c0,0,29,28,50,42c0,0,22,14,54,30L128,836H405L666,460c0,0,41,48,41,155V836H952V671c0,0,0,-50,-6,-93c0,0,-6,-42,-16,-73c0,0,-10,-30,-26,-57c0,0,-17,-27,-31,-44c0,0,-15,-17,-37,-33c0,0,-22,-16,-38,-25c0,0,-15,-9,-38,-21L984,0H706L445,376c0,0,-41,-48,-41,-155V0Z" 
id="f3_b"
transform="scale(0.001,-0.001)" />

<path d="M129,0l69,362c0,0,10,56,12,100c0,0,0,84,-27,159c0,0,-27,76,-117,215H322c0,0,9,-6,31,-79c0,0,23,-72,23,-105c0,0,23,82,100,138c0,0,77,57,160,57c0,0,332,0,332,-397V0H538V177H721V449c0,0,0,124,-20,170c0,0,-20,47,-82,47c0,0,-23,0,-43,-9c0,0,-19,-10,-34,-23c0,0,-14,-14,-27,-39c0,0,-13,-25,-22,-46c0,0,-8,-22,-17,-57c0,0,-9,-36,-15,-61c0,0,-5,-24,-13,-65L375,0Z" 
id="f3_l"
transform="scale(0.001,-0.001)" />

<path d="M154,-13c0,0,-38,0,-85,9V198c0,0,58,-15,103,-15c0,0,84,0,118,60c0,0,35,61,35,206c0,0,0,66,-7,105c0,0,-6,39,-24,63c0,0,-17,25,-44,33c0,0,-27,8,-73,8H66V836H225c0,0,198,0,275,-115c0,0,56,-84,65,-264c0,0,3,-55,3,-148c0,0,0,-177,71,-309L393,1c0,0,-53,130,-54,141c0,0,-28,-90,-65,-123c0,0,-38,-32,-120,-32Z" 
id="f3_i"
transform="scale(0.001,-0.001)" />

<path d="M453,0V658H66V836H833V658H700V0Z" 
id="f3_9"
transform="scale(0.001,-0.001)" />

<path d="M71,0V90H214v934H71v90H1073V851H970v160H502V654H792V796H895V411H792V552H502V103H984V263h102V0Z" 
id="f4_2"
transform="scale(0.001,-0.001)" />

<path d="M87,-338c0,0,-45,0,-94,7c0,0,-51,8,-105,22v168l84,-1c0,0,1,-59,23,-86c0,0,21,-26,70,-26c0,0,55,0,77,35c0,0,21,35,21,127V703H51v90H427V-92c0,0,0,-122,-86,-184c0,0,-86,-62,-254,-62ZM277,876c0,0,-61,0,-102,41c0,0,-42,41,-42,101c0,0,0,60,41,101c0,0,42,42,103,42c0,0,58,0,100,-42c0,0,42,-42,42,-101c0,0,0,-59,-42,-101c0,0,-41,-41,-100,-41Z" 
id="f4_3"
transform="scale(0.001,-0.001)" />

<path d="M612,448c0,0,0,156,-29,219c0,0,-29,63,-99,63c0,0,-68,0,-98,-61c0,0,-29,-62,-29,-208V448ZM488,-20c0,0,-205,0,-315,107C173,87,63,195,63,397c0,0,0,197,112,307c0,0,113,110,313,110c0,0,197,0,303,-115c0,0,105,-116,111,-340H357v-6c0,0,0,-154,46,-222c0,0,46,-68,149,-68c0,0,86,0,139,45c0,0,53,46,68,133H883C883,241,851,105,755,42c0,0,-95,-62,-267,-62Z" 
id="f4_4"
transform="scale(0.001,-0.001)" />

<path d="M53,0V90H165V703H53v90H429V681c0,0,47,69,106,101c0,0,60,32,142,32c0,0,97,0,158,-37c0,0,60,-37,93,-114c0,0,55,79,119,115c0,0,64,36,150,36c0,0,137,0,204,-77c0,0,68,-77,68,-233V90h113V0H1110V90h95V464c0,0,0,149,-23,188c0,0,-23,38,-85,38c0,0,-70,0,-109,-54c0,0,-39,-54,-39,-154V90h95V0H591V90h94V464c0,0,0,149,-23,188c0,0,-23,38,-84,38c0,0,-71,0,-110,-54c0,0,-39,-54,-39,-154V90h95V0Z" 
id="f4_5"
transform="scale(0.001,-0.001)" />

<path d="M562,95c0,0,82,0,115,65c0,0,33,66,33,237c0,0,0,171,-33,236c0,0,-33,65,-115,65c0,0,-79,0,-114,-62c0,0,-35,-62,-35,-200V357c0,0,0,-138,35,-200c0,0,35,-62,114,-62ZM35,-317v90H149V703H35v90H413V692c0,0,33,62,90,92c0,0,57,30,140,30c0,0,169,0,267,-111c0,0,97,-111,97,-306c0,0,0,-195,-97,-307C910,90,812,-20,643,-20c0,0,-83,0,-140,29c0,0,-57,30,-90,92V-227H535v-90Z" 
id="f4_6"
transform="scale(0.001,-0.001)" />

<path d="M53,0V90H165v981H53v90H429V90H543V0Z" 
id="f4_7"
transform="scale(0.001,-0.001)" />

<path d="M510,63c0,0,84,0,118,71c0,0,34,72,34,263c0,0,0,191,-34,262c0,0,-33,71,-118,71c0,0,-84,0,-119,-72c0,0,-34,-72,-34,-261c0,0,0,-190,34,-262c0,0,35,-72,119,-72Zm0,-83c0,0,-209,0,-328,110C182,90,63,201,63,397c0,0,0,196,119,307c0,0,119,110,328,110c0,0,211,0,330,-110c0,0,118,-111,118,-307c0,0,0,-196,-119,-307C839,90,720,-20,510,-20Z" 
id="f4_8"
transform="scale(0.001,-0.001)" />

<path d="M403,-20c0,0,-74,0,-156,11C247,-9,164,1,71,23V244h84c0,0,11,-88,67,-135c0,0,56,-46,152,-46c0,0,81,0,124,28c0,0,43,28,43,80c0,0,0,47,-28,74c0,0,-27,26,-105,45L299,318c0,0,-123,30,-178,87c0,0,-55,57,-55,154c0,0,0,129,89,192c0,0,89,63,276,63c0,0,70,0,149,-11c0,0,80,-12,176,-36V567H672c0,0,-7,81,-58,122c0,0,-51,41,-147,41c0,0,-80,0,-122,-25c0,0,-41,-26,-41,-75c0,0,0,-41,24,-64c0,0,24,-23,86,-38L522,500c0,0,156,-40,215,-98c0,0,60,-58,60,-162c0,0,0,-134,-96,-198c0,0,-96,-62,-298,-62Z" 
id="f4_9"
transform="scale(0.001,-0.001)" />

<path d="M578,388V982L197,388ZM578,0V263H74V408l464,706H727V388H887V263H727V0Z" 
id="f0_1e"
transform="scale(0.001,-0.001)" />


</defs>
</svg>