<?xml version="1.0" encoding="UTF-8" standalone="no"?>
<!DOCTYPE svg PUBLIC "-//W3C//DTD SVG 1.1//EN"
"http://www.w3.org/Graphics/SVG/1.1/DTD/svg11.dtd">
<svg viewBox="0 0 909 1286" version="1.1" xmlns="http://www.w3.org/2000/svg" xmlns:xlink="http://www.w3.org/1999/xlink">
<defs>
<clipPath id="c0_7"><path d="M0,1286.2V0H909.4V1286.2Z" /></clipPath>
<style type="text/css"><![CDATA[
.g0_7{
fill: none;
stroke: #000000;
stroke-width: 0.7638889;
stroke-linecap: butt;
stroke-linejoin: round;
}
]]></style>
</defs>
<g clip-path="url(#c0_7)">
<g fill="#000000" >
<use xlink:href="#f0_v" transform="matrix(12,0,0,12,554.1,148)" />
<use xlink:href="#f0_i" transform="matrix(12,0,0,12,560.2,148)" />
<use xlink:href="#f0_q" transform="matrix(12,0,0,12,572.4,148)" />
<use xlink:href="#f0_9" transform="matrix(12,0,0,12,576.5,148)" />
<use xlink:href="#f0_f" transform="matrix(12,0,0,12,588.8,148)" />
<use xlink:href="#f0_3" transform="matrix(12,0,0,12,599.3,148)" />
<use xlink:href="#f0_i" transform="matrix(12,0,0,12,617,148)" />
<use xlink:href="#f0_q" transform="matrix(12,0,0,12,629.2,148)" />
<use xlink:href="#f0_k" transform="matrix(12,0,0,12,633.2,148)" />
<use xlink:href="#f0_8" transform="matrix(12,0,0,12,645.1,148)" />
<use xlink:href="#f0_o" transform="matrix(12,0,0,12,656.6,148)" />
<use xlink:href="#f0_l" transform="matrix(12,0,0,12,669.5,148)" />
<use xlink:href="#f0_3" transform="matrix(12,0,0,12,682,148)" />
<use xlink:href="#f0_b" transform="matrix(12,0,0,12,699.8,148)" />
<use xlink:href="#f0_9" transform="matrix(12,0,0,12,711.8,148)" />
<use xlink:href="#f0_i" transform="matrix(12,0,0,12,730,148)" />
<use xlink:href="#f0_j" transform="matrix(12,0,0,12,742.2,148)" />
<use xlink:href="#f0_7" transform="matrix(12,0,0,12,749.7,148)" />
<use xlink:href="#f0_b" transform="matrix(12,0,0,12,759.9,148)" />
<use xlink:href="#f1_2" transform="matrix(13,0,0,13,415.4,148)" />
<use xlink:href="#f1_3" transform="matrix(13,0,0,13,430.5,148)" />
<use xlink:href="#f1_4" transform="matrix(13,0,0,13,437.7,148)" />
<use xlink:href="#f1_5" transform="matrix(13,0,0,13,450.4,148)" />
<use xlink:href="#f1_6" transform="matrix(13,0,0,13,460.7,148)" />
<use xlink:href="#f1_7" transform="matrix(13,0,0,13,472.8,148)" />
<use xlink:href="#f1_6" transform="matrix(13,0,0,13,480.3,148)" />
<use xlink:href="#f1_7" transform="matrix(13,0,0,13,492.4,148)" />
<use xlink:href="#f1_8" transform="matrix(13,0,0,13,499.9,148)" />
<use xlink:href="#f1_a" transform="matrix(13,0,0,13,520.2,148)" />
<use xlink:href="#f1_h" transform="matrix(13,0,0,13,533.9,148)" />
<use xlink:href="#f2_k" transform="matrix(12,0,0,12,401.5,148)" />
</g>
</g>
<path d="M406.1,193.8H772M406.1,248H772M406.1,270.2H772M406.1,292.3H772M406.1,346.6H772M406.1,400.8H772M406.1,455H772M406.1,509.3H772" class="g0_7" />
<g clip-path="url(#c0_7)">
<g fill="#000000" >
<use xlink:href="#f0_m" transform="matrix(12,0,0,12,150.3,189.1)" />
<use xlink:href="#f0_i" transform="matrix(12,0,0,12,156.1,189.1)" />
<use xlink:href="#f0_q" transform="matrix(12,0,0,12,168.2,189.1)" />
<use xlink:href="#f0_r" transform="matrix(12,0,0,12,172.3,189.1)" />
<use xlink:href="#f0_q" transform="matrix(12,0,0,12,182.4,189.1)" />
<use xlink:href="#f0_l" transform="matrix(12,0,0,12,186.5,189.1)" />
<use xlink:href="#f0_e" transform="matrix(12,0,0,12,198.9,189.1)" />
<use xlink:href="#f0_b" transform="matrix(12,0,0,12,209.3,189.1)" />
<use xlink:href="#f0_3" transform="matrix(12,0,0,12,221.3,189.1)" />
<use xlink:href="#f0_b" transform="matrix(12,0,0,12,239.2,189.1)" />
<use xlink:href="#f0_9" transform="matrix(12,0,0,12,251.2,189.1)" />
<use xlink:href="#f0_r" transform="matrix(12,0,0,12,269.2,189.1)" />
<use xlink:href="#f0_l" transform="matrix(12,0,0,12,279.2,189.1)" />
<use xlink:href="#f0_e" transform="matrix(12,0,0,12,291.7,189.1)" />
<use xlink:href="#f0_e" transform="matrix(12,0,0,12,302.1,189.1)" />
<use xlink:href="#f0_u" transform="matrix(12,0,0,12,318.4,189.1)" />
<use xlink:href="#f0_e" transform="matrix(12,0,0,12,328.2,189.1)" />
<use xlink:href="#f0_c" transform="matrix(12,0,0,12,338.6,189.1)" />
<use xlink:href="#f0_3" transform="matrix(12,0,0,12,343.6,189.1)" />
<use xlink:href="#f0_3" transform="matrix(12,0,0,12,361.5,189.1)" />
<use xlink:href="#f0_b" transform="matrix(12,0,0,12,373.4,189.1)" />
<use xlink:href="#f0_9" transform="matrix(12,0,0,12,385.4,189.1)" />
<use xlink:href="#f0_7" transform="matrix(12,0,0,12,129.4,211.3)" />
<use xlink:href="#f0_6" transform="matrix(12,0,0,12,139.8,211.3)" />
<use xlink:href="#f0_c" transform="matrix(12,0,0,12,152.8,211.3)" />
<use xlink:href="#f0_f" transform="matrix(12,0,0,12,157.8,211.3)" />
<use xlink:href="#f0_b" transform="matrix(12,0,0,12,176.5,211.3)" />
<use xlink:href="#f0_h" transform="matrix(12,0,0,12,188.6,211.3)" />
<use xlink:href="#f0_c" transform="matrix(12,0,0,12,200.5,211.3)" />
<use xlink:href="#f0_7" transform="matrix(12,0,0,12,205.4,211.3)" />
<use xlink:href="#f0_9" transform="matrix(12,0,0,12,215.8,211.3)" />
<use xlink:href="#f0_e" transform="matrix(12,0,0,12,236.4,211.3)" />
<use xlink:href="#f0_c" transform="matrix(12,0,0,12,246.8,211.3)" />
<use xlink:href="#f0_n" transform="matrix(12,0,0,12,251.8,211.3)" />
<use xlink:href="#f0_9" transform="matrix(12,0,0,12,261.4,211.3)" />
<use xlink:href="#f0_e" transform="matrix(12,0,0,12,273.6,211.3)" />
<use xlink:href="#f0_i" transform="matrix(12,0,0,12,292.2,211.3)" />
<use xlink:href="#f0_q" transform="matrix(12,0,0,12,304.4,211.3)" />
<use xlink:href="#f0_n" transform="matrix(12,0,0,12,308.5,211.3)" />
<use xlink:href="#f0_e" transform="matrix(12,0,0,12,318.2,211.3)" />
<use xlink:href="#f0_c" transform="matrix(12,0,0,12,328.6,211.3)" />
<use xlink:href="#f0_3" transform="matrix(12,0,0,12,333.6,211.3)" />
<use xlink:href="#f0_c" transform="matrix(12,0,0,12,353.7,211.3)" />
<use xlink:href="#f0_d" transform="matrix(12,0,0,12,358.7,211.3)" />
<use xlink:href="#f0_h" transform="matrix(12,0,0,12,366.1,211.3)" />
<use xlink:href="#f0_d" transform="matrix(12,0,0,12,378,211.3)" />
<use xlink:href="#f0_9" transform="matrix(12,0,0,12,385.3,211.3)" />
<use xlink:href="#f0_m" transform="matrix(12,0,0,12,357.2,243.4)" />
<use xlink:href="#f0_7" transform="matrix(12,0,0,12,363,243.4)" />
<use xlink:href="#f0_h" transform="matrix(12,0,0,12,373.4,243.4)" />
<use xlink:href="#f0_l" transform="matrix(12,0,0,12,385.3,243.4)" />
<use xlink:href="#f0_m" transform="matrix(12,0,0,12,209.2,265.5)" />
<use xlink:href="#f0_3" transform="matrix(12,0,0,12,215,265.5)" />
<use xlink:href="#f0_e" transform="matrix(12,0,0,12,226.9,265.5)" />
<use xlink:href="#f0_q" transform="matrix(12,0,0,12,237.3,265.5)" />
<use xlink:href="#f0_11" transform="matrix(12,0,0,12,241.4,265.5)" />
<use xlink:href="#f0_s" transform="matrix(12,0,0,12,246.4,265.5)" />
<use xlink:href="#f0_e" transform="matrix(12,0,0,12,257.3,265.5)" />
<use xlink:href="#f0_p" transform="matrix(12,0,0,12,273.6,265.5)" />
<use xlink:href="#f0_c" transform="matrix(12,0,0,12,285.1,265.5)" />
<use xlink:href="#f0_g" transform="matrix(12,0,0,12,289.9,265.5)" />
<use xlink:href="#f0_d" transform="matrix(12,0,0,12,301.8,265.5)" />
<use xlink:href="#f0_e" transform="matrix(12,0,0,12,309.2,265.5)" />
<use xlink:href="#f0_u" transform="matrix(12,0,0,12,325.5,265.5)" />
<use xlink:href="#f0_e" transform="matrix(12,0,0,12,335.3,265.5)" />
<use xlink:href="#f0_c" transform="matrix(12,0,0,12,345.7,265.5)" />
<use xlink:href="#f0_3" transform="matrix(12,0,0,12,350.7,265.5)" />
<use xlink:href="#f0_9" transform="matrix(12,0,0,12,368.6,265.5)" />
<use xlink:href="#f0_c" transform="matrix(12,0,0,12,380.8,265.5)" />
<use xlink:href="#f0_3" transform="matrix(12,0,0,12,385.8,265.5)" />
<use xlink:href="#f0_m" transform="matrix(12,0,0,12,153.7,287.7)" />
<use xlink:href="#f0_e" transform="matrix(12,0,0,12,159.5,287.7)" />
<use xlink:href="#f0_c" transform="matrix(12,0,0,12,169.9,287.7)" />
<use xlink:href="#f0_n" transform="matrix(12,0,0,12,174.9,287.7)" />
<use xlink:href="#f0_3" transform="matrix(12,0,0,12,184.5,287.7)" />
<use xlink:href="#f0_c" transform="matrix(12,0,0,12,202.3,287.7)" />
<use xlink:href="#f0_e" transform="matrix(12,0,0,12,207.3,287.7)" />
<use xlink:href="#f0_r" transform="matrix(12,0,0,12,223.5,287.7)" />
<use xlink:href="#f0_q" transform="matrix(12,0,0,12,233.6,287.7)" />
<use xlink:href="#f0_j" transform="matrix(12,0,0,12,237.7,287.7)" />
<use xlink:href="#f0_3" transform="matrix(12,0,0,12,245.2,287.7)" />
<use xlink:href="#f0_e" transform="matrix(12,0,0,12,257.1,287.7)" />
<use xlink:href="#f0_i" transform="matrix(12,0,0,12,273.4,287.7)" />
<use xlink:href="#f0_q" transform="matrix(12,0,0,12,285.6,287.7)" />
<use xlink:href="#f0_n" transform="matrix(12,0,0,12,289.7,287.7)" />
<use xlink:href="#f0_e" transform="matrix(12,0,0,12,299.4,287.7)" />
<use xlink:href="#f0_c" transform="matrix(12,0,0,12,309.7,287.7)" />
<use xlink:href="#f0_3" transform="matrix(12,0,0,12,314.8,287.7)" />
<use xlink:href="#f0_c" transform="matrix(12,0,0,12,332.5,287.7)" />
<use xlink:href="#f0_d" transform="matrix(12,0,0,12,337.5,287.7)" />
<use xlink:href="#f0_9" transform="matrix(12,0,0,12,344.9,287.7)" />
<use xlink:href="#f0_7" transform="matrix(12,0,0,12,362.9,287.7)" />
<use xlink:href="#f0_h" transform="matrix(12,0,0,12,373.3,287.7)" />
<use xlink:href="#f0_l" transform="matrix(12,0,0,12,385.2,287.7)" />
<use xlink:href="#f0_b" transform="matrix(12,0,0,12,129.1,309.8)" />
<use xlink:href="#f0_9" transform="matrix(12,0,0,12,141.1,309.8)" />
<use xlink:href="#f0_9" transform="matrix(12,0,0,12,179.5,309.8)" />
<use xlink:href="#f0_q" transform="matrix(12,0,0,12,191.7,309.8)" />
<use xlink:href="#f0_f" transform="matrix(12,0,0,12,195.8,309.8)" />
<use xlink:href="#f0_3" transform="matrix(12,0,0,12,206.3,309.8)" />
<use xlink:href="#f0_e" transform="matrix(12,0,0,12,218.3,309.8)" />
<use xlink:href="#f0_u" transform="matrix(12,0,0,12,254.6,309.8)" />
<use xlink:href="#f0_e" transform="matrix(12,0,0,12,264.3,309.8)" />
<use xlink:href="#f0_c" transform="matrix(12,0,0,12,274.7,309.8)" />
<use xlink:href="#f0_3" transform="matrix(12,0,0,12,279.8,309.8)" />
<use xlink:href="#f0_q" transform="matrix(12,0,0,12,317.5,309.8)" />
<use xlink:href="#f0_d" transform="matrix(12,0,0,12,321.6,309.8)" />
<use xlink:href="#f0_9" transform="matrix(12,0,0,12,328.9,309.8)" />
<use xlink:href="#f0_r" transform="matrix(12,0,0,12,366.9,309.8)" />
<use xlink:href="#f0_q" transform="matrix(12,0,0,12,377,309.8)" />
<use xlink:href="#f0_q" transform="matrix(12,0,0,12,381,309.8)" />
<use xlink:href="#f0_l" transform="matrix(12,0,0,12,385.1,309.8)" />
<use xlink:href="#f0_m" transform="matrix(12,0,0,12,314,341.9)" />
<use xlink:href="#f0_i" transform="matrix(12,0,0,12,319.8,341.9)" />
<use xlink:href="#f0_q" transform="matrix(12,0,0,12,331.8,341.9)" />
<use xlink:href="#f0_k" transform="matrix(12,0,0,12,335.9,341.9)" />
<use xlink:href="#f0_q" transform="matrix(12,0,0,12,347.8,341.9)" />
<use xlink:href="#f0_7" transform="matrix(12,0,0,12,351.9,341.9)" />
<use xlink:href="#f0_8" transform="matrix(12,0,0,12,362.3,341.9)" />
<use xlink:href="#f0_b" transform="matrix(12,0,0,12,373.8,341.9)" />
<use xlink:href="#f0_3" transform="matrix(12,0,0,12,385.8,341.9)" />
<use xlink:href="#f0_o" transform="matrix(12,0,0,12,129.6,364.1)" />
<use xlink:href="#f0_q" transform="matrix(12,0,0,12,142.5,364.1)" />
<use xlink:href="#f0_j" transform="matrix(12,0,0,12,146.6,364.1)" />
<use xlink:href="#f0_7" transform="matrix(12,0,0,12,154.1,364.1)" />
<use xlink:href="#f0_3" transform="matrix(12,0,0,12,164.5,364.1)" />
<use xlink:href="#f0_e" transform="matrix(12,0,0,12,176.4,364.1)" />
<use xlink:href="#f0_i" transform="matrix(12,0,0,12,198.8,364.1)" />
<use xlink:href="#f0_q" transform="matrix(12,0,0,12,211,364.1)" />
<use xlink:href="#f0_n" transform="matrix(12,0,0,12,215.2,364.1)" />
<use xlink:href="#f0_e" transform="matrix(12,0,0,12,224.8,364.1)" />
<use xlink:href="#f0_c" transform="matrix(12,0,0,12,235.2,364.1)" />
<use xlink:href="#f0_3" transform="matrix(12,0,0,12,240.2,364.1)" />
<use xlink:href="#f0_i" transform="matrix(12,0,0,12,264.3,364.1)" />
<use xlink:href="#f0_b" transform="matrix(12,0,0,12,276.5,364.1)" />
<use xlink:href="#f0_9" transform="matrix(12,0,0,12,288.5,364.1)" />
<use xlink:href="#f0_c" transform="matrix(12,0,0,12,300.6,364.1)" />
<use xlink:href="#f0_t" transform="matrix(12,0,0,12,317.8,364.1)" />
<use xlink:href="#f0_9" transform="matrix(12,0,0,12,322.8,364.1)" />
<use xlink:href="#f0_n" transform="matrix(12,0,0,12,335.1,364.1)" />
<use xlink:href="#f0_l" transform="matrix(12,0,0,12,344.7,364.1)" />
<use xlink:href="#f0_c" transform="matrix(12,0,0,12,369.4,364.1)" />
<use xlink:href="#f0_9" transform="matrix(12,0,0,12,374.4,364.1)" />
<use xlink:href="#f0_s" transform="matrix(12,0,0,12,386.7,364.1)" />
<use xlink:href="#f0_2" transform="matrix(12,0,0,12,279.1,396.2)" />
<use xlink:href="#f0_q" transform="matrix(12,0,0,12,286.5,396.2)" />
<use xlink:href="#f0_e" transform="matrix(12,0,0,12,290.6,396.2)" />
<use xlink:href="#f0_b" transform="matrix(12,0,0,12,306.8,396.2)" />
<use xlink:href="#f0_8" transform="matrix(12,0,0,12,318.8,396.2)" />
<use xlink:href="#f0_n" transform="matrix(12,0,0,12,330.3,396.2)" />
<use xlink:href="#f0_q" transform="matrix(12,0,0,12,339.9,396.2)" />
<use xlink:href="#f0_9" transform="matrix(12,0,0,12,344,396.2)" />
<use xlink:href="#f0_9" transform="matrix(12,0,0,12,362.2,396.2)" />
<use xlink:href="#f0_e" transform="matrix(12,0,0,12,374.4,396.2)" />
<use xlink:href="#f0_o" transform="matrix(12,0,0,12,384.8,396.2)" />
<use xlink:href="#f0_i" transform="matrix(12,0,0,12,129.3,418.3)" />
<use xlink:href="#f0_q" transform="matrix(12,0,0,12,141.5,418.3)" />
<use xlink:href="#f0_d" transform="matrix(12,0,0,12,145.4,418.3)" />
<use xlink:href="#f0_q" transform="matrix(12,0,0,12,152.8,418.3)" />
<use xlink:href="#f0_n" transform="matrix(12,0,0,12,156.9,418.3)" />
<use xlink:href="#f0_l" transform="matrix(12,0,0,12,166.5,418.3)" />
<use xlink:href="#f0_u" transform="matrix(12,0,0,12,191.7,418.3)" />
<use xlink:href="#f0_q" transform="matrix(12,0,0,12,201.4,418.3)" />
<use xlink:href="#f0_9" transform="matrix(12,0,0,12,205.6,418.3)" />
<use xlink:href="#f0_12" transform="matrix(12,0,0,12,217.8,418.3)" />
<use xlink:href="#f0_i" transform="matrix(12,0,0,12,238.5,418.3)" />
<use xlink:href="#f0_q" transform="matrix(12,0,0,12,250.7,418.3)" />
<use xlink:href="#f0_j" transform="matrix(12,0,0,12,254.9,418.3)" />
<use xlink:href="#f0_r" transform="matrix(12,0,0,12,262.3,418.3)" />
<use xlink:href="#f0_3" transform="matrix(12,0,0,12,272.4,418.3)" />
<use xlink:href="#f0_e" transform="matrix(12,0,0,12,284.3,418.3)" />
<use xlink:href="#f0_i" transform="matrix(12,0,0,12,307.2,418.3)" />
<use xlink:href="#f0_q" transform="matrix(12,0,0,12,319.4,418.3)" />
<use xlink:href="#f0_n" transform="matrix(12,0,0,12,323.5,418.3)" />
<use xlink:href="#f0_e" transform="matrix(12,0,0,12,333.1,418.3)" />
<use xlink:href="#f0_c" transform="matrix(12,0,0,12,343.5,418.3)" />
<use xlink:href="#f0_3" transform="matrix(12,0,0,12,348.6,418.3)" />
<use xlink:href="#f0_c" transform="matrix(12,0,0,12,373,418.3)" />
<use xlink:href="#f0_d" transform="matrix(12,0,0,12,378,418.3)" />
<use xlink:href="#f0_9" transform="matrix(12,0,0,12,385.3,418.3)" />
<use xlink:href="#f0_m" transform="matrix(12,0,0,12,347.7,450.4)" />
<use xlink:href="#f0_12" transform="matrix(12,0,0,12,353.5,450.4)" />
<use xlink:href="#f0_6" transform="matrix(12,0,0,12,361.9,450.4)" />
<use xlink:href="#f0_7" transform="matrix(12,0,0,12,374.9,450.4)" />
<use xlink:href="#f0_l" transform="matrix(12,0,0,12,385.3,450.4)" />
<use xlink:href="#f0_u" transform="matrix(12,0,0,12,129.4,472.5)" />
<use xlink:href="#f0_l" transform="matrix(12,0,0,12,139.2,472.5)" />
<use xlink:href="#f0_s" transform="matrix(12,0,0,12,151.5,472.5)" />
<use xlink:href="#f0_p" transform="matrix(12,0,0,12,162.4,472.5)" />
<use xlink:href="#f0_o" transform="matrix(12,0,0,12,203.2,472.5)" />
<use xlink:href="#f0_q" transform="matrix(12,0,0,12,216.1,472.5)" />
<use xlink:href="#f0_r" transform="matrix(12,0,0,12,220.2,472.5)" />
<use xlink:href="#f0_6" transform="matrix(12,0,0,12,230.3,472.5)" />
<use xlink:href="#f0_3" transform="matrix(12,0,0,12,243.3,472.5)" />
<use xlink:href="#f0_e" transform="matrix(12,0,0,12,255.2,472.5)" />
<use xlink:href="#f0_u" transform="matrix(12,0,0,12,295,472.5)" />
<use xlink:href="#f0_e" transform="matrix(12,0,0,12,304.8,472.5)" />
<use xlink:href="#f0_c" transform="matrix(12,0,0,12,315.2,472.5)" />
<use xlink:href="#f0_3" transform="matrix(12,0,0,12,320.2,472.5)" />
<use xlink:href="#f0_3" transform="matrix(12,0,0,12,361.4,472.5)" />
<use xlink:href="#f0_b" transform="matrix(12,0,0,12,373.4,472.5)" />
<use xlink:href="#f0_9" transform="matrix(12,0,0,12,385.4,472.5)" />
<use xlink:href="#f0_14" transform="matrix(12,0,0,12,321.8,504.6)" />
<use xlink:href="#f0_u" transform="matrix(12,0,0,12,331.5,504.6)" />
<use xlink:href="#f0_q" transform="matrix(12,0,0,12,341.3,504.6)" />
<use xlink:href="#f0_r" transform="matrix(12,0,0,12,345.4,504.6)" />
<use xlink:href="#f0_c" transform="matrix(12,0,0,12,355.3,504.6)" />
<use xlink:href="#f0_l" transform="matrix(12,0,0,12,360.3,504.6)" />
<use xlink:href="#f0_q" transform="matrix(12,0,0,12,372.8,504.6)" />
<use xlink:href="#f0_e" transform="matrix(12,0,0,12,377,504.6)" />
<use xlink:href="#f0_e" transform="matrix(12,0,0,12,387.3,504.6)" />
</g>
<g fill="#0000FF" >
<use xlink:href="#f3_v" transform="matrix(12,0,0,12,687,564.8)" />
<use xlink:href="#f3_6" transform="matrix(12,0,0,12,699.7,564.8)" />
<use xlink:href="#f3_4" transform="matrix(12,0,0,12,708.1,564.8)" />
<use xlink:href="#f3_d" transform="matrix(12,0,0,12,715.7,564.8)" />
<use xlink:href="#f3_m" transform="matrix(12,0,0,12,725.2,564.8)" />
<use xlink:href="#f3_6" transform="matrix(12,0,0,12,734.8,564.8)" />
<use xlink:href="#f3_4" transform="matrix(12,0,0,12,743.2,564.8)" />
<use xlink:href="#f3_5" transform="matrix(12,0,0,12,750.8,564.8)" />
<use xlink:href="#f3_3" transform="matrix(12,0,0,12,756.1,564.8)" />
<use xlink:href="#f3_4" transform="matrix(12,0,0,12,764.7,564.8)" />
</g>
</g>
<defs>
<path d="M179,0V190H336V0Zm0,600V790H336V600Z" 
id="f0_v"
transform="scale(0.001,-0.001)" />

<path d="M736,107V473c0,0,0,147,-48,202c0,0,-49,54,-187,54H278V107ZM139,0V836H499c0,0,105,0,177,-22c0,0,72,-21,116,-69c0,0,44,-49,64,-119c0,0,19,-71,19,-174V0Z" 
id="f0_i"
transform="scale(0.001,-0.001)" />

<path d="M102,312V836H241V369L102,312Z" 
id="f0_q"
transform="scale(0.001,-0.001)" />

<path d="M139,0V138c0,0,0,61,8,112c0,0,7,52,19,87c0,0,11,36,30,66c0,0,19,31,35,49c0,0,17,19,41,35c0,0,25,17,41,25c0,0,17,7,40,17L141,836H303L613,388c0,0,20,10,33,18c0,0,13,8,34,28c0,0,20,20,33,44c0,0,13,25,22,66c0,0,10,41,10,92V836H882V698c0,0,0,-61,-7,-112c0,0,-6,-52,-18,-88c0,0,-12,-36,-30,-66c0,0,-19,-30,-36,-49c0,0,-17,-18,-41,-34c0,0,-24,-17,-40,-25c0,0,-17,-8,-41,-17L882,0H720L409,448c0,0,-21,-11,-34,-19c0,0,-13,-8,-34,-27c0,0,-21,-20,-34,-44c0,0,-12,-25,-22,-66c0,0,-9,-41,-9,-92V0Z" 
id="f0_9"
transform="scale(0.001,-0.001)" />

<path d="M66,0V107H554V452c0,0,0,56,-4,93c0,0,-4,37,-18,75c0,0,-14,38,-40,60c0,0,-26,22,-71,36c0,0,-45,13,-110,13H66V836H312c0,0,91,0,157,-17c0,0,66,-17,109,-49c0,0,44,-32,69,-84c0,0,26,-52,36,-114c0,0,10,-62,10,-147V107H817V0Z" 
id="f0_f"
transform="scale(0.001,-0.001)" />

<path d="M154,0V454l138,56V0ZM722,0V454c0,0,0,161,-49,218c0,0,-48,57,-186,57H139V836H485c0,0,207,0,291,-93c0,0,83,-94,83,-318V0Z" 
id="f0_3"
transform="scale(0.001,-0.001)" />

<path d="M522,-20c0,0,-196,0,-290,99c0,0,-94,100,-94,324V836H276V397c0,0,0,-86,16,-147c0,0,17,-60,50,-94c0,0,34,-34,77,-49c0,0,43,-15,103,-15c0,0,59,0,102,15c0,0,44,15,77,49c0,0,33,34,50,94c0,0,17,61,17,147c0,0,0,84,-8,143c0,0,-7,58,-25,105c0,0,-17,47,-51,69c0,0,-33,23,-83,23c0,0,-50,0,-119,-22V821c0,0,85,23,150,23c0,0,76,0,130,-30c0,0,53,-31,85,-90c0,0,31,-59,45,-138c0,0,13,-78,13,-183c0,0,0,-224,-93,-324c0,0,-94,-99,-290,-99Z" 
id="f0_k"
transform="scale(0.001,-0.001)" />

<path d="M139,0V106H400c0,0,176,0,253,71c0,0,78,72,78,250c0,0,0,163,-80,233c0,0,-81,69,-250,69H278L277,564c0,0,-1,-54,26,-80c0,0,27,-25,82,-25c0,0,30,0,80,9V355c0,0,-61,-12,-111,-12c0,0,-100,0,-157,55c0,0,-58,55,-58,186V836H456c0,0,193,0,303,-109c0,0,110,-109,110,-309c0,0,0,-200,-110,-309C759,109,648,0,456,0Z" 
id="f0_8"
transform="scale(0.001,-0.001)" />

<path d="M180,0L66,836H203L258,443c0,0,36,1,64,6c0,0,28,6,49,18c0,0,20,12,35,26c0,0,15,13,26,36c0,0,11,24,17,44c0,0,7,20,12,55c0,0,6,34,9,60c0,0,3,26,8,71c0,0,4,45,9,77H610c0,0,-13,-194,-31,-271c0,0,-31,-127,-111,-179c0,0,-71,-45,-196,-50L304,107c0,0,73,0,130,5c0,0,56,6,111,21c0,0,54,15,94,40c0,0,40,25,77,64c0,0,37,39,63,94c0,0,25,54,46,128c0,0,21,73,34,166c0,0,13,94,20,211h138c0,0,-14,-124,-29,-218c0,0,-16,-94,-39,-179c0,0,-22,-85,-50,-146c0,0,-28,-61,-68,-112c0,0,-39,-51,-87,-84C744,97,696,65,632,42C632,42,568,19,492,10C492,10,417,0,320,0Z" 
id="f0_o"
transform="scale(0.001,-0.001)" />

<path d="M114,0l60,312c0,0,2,12,8,39c0,0,6,27,7,37c0,0,2,11,5,30c0,0,2,19,4,33c0,0,1,15,1,31c0,0,0,48,-35,146c0,0,-35,98,-98,208H228c0,0,3,-8,27,-67c0,0,25,-58,41,-117c0,0,21,53,50,90c0,0,29,37,57,57c0,0,29,21,65,32c0,0,37,11,65,14c0,0,28,3,67,3c0,0,300,0,300,-396V0H480V106H761V452c0,0,0,146,-46,215c0,0,-45,70,-118,70c0,0,-134,0,-198,-119c0,0,-36,-68,-67,-222c0,0,-2,-10,-6,-27L253,0Z" 
id="f0_l"
transform="scale(0.001,-0.001)" />

<path d="M112,-5c0,0,-39,0,-97,11V113c0,0,48,-10,77,-10c0,0,53,0,70,42c0,0,17,43,17,164V729H50V836H501c0,0,107,0,179,-25c0,0,72,-25,112,-77c0,0,40,-51,57,-118c0,0,16,-67,16,-164V0H726V454c0,0,0,55,-3,92c0,0,-4,37,-17,75c0,0,-14,38,-38,59c0,0,-24,22,-65,36c0,0,-42,13,-102,13H318V309c0,0,0,-160,-46,-237C272,72,226,-5,112,-5Z" 
id="f0_b"
transform="scale(0.001,-0.001)" />

<path d="M138,-7c0,0,-34,0,-72,10V129c0,0,25,-8,52,-8c0,0,33,0,58,5c0,0,26,5,58,24c0,0,33,20,53,54c0,0,21,34,36,97c0,0,15,64,15,151c0,0,0,113,-19,173c0,0,-19,60,-56,82c0,0,-38,22,-107,22H89V836h72c0,0,165,0,240,-91c0,0,76,-91,76,-293c0,0,0,-107,26,-227c0,0,25,-119,83,-225H437c0,0,-43,101,-62,184c0,0,-24,-60,-51,-99c0,0,-26,-38,-56,-58C268,27,239,7,209,0c0,0,-30,-7,-71,-7Z" 
id="f0_j"
transform="scale(0.001,-0.001)" />

<path d="M585,0V426c0,0,0,54,-8,98c0,0,-8,44,-27,83c0,0,-19,40,-49,66c0,0,-30,26,-77,41c0,0,-47,15,-108,15H66V836H315c0,0,94,0,166,-20c0,0,71,-20,116,-54c0,0,46,-35,75,-88c0,0,28,-52,40,-112c0,0,12,-60,12,-137V0Z" 
id="f0_7"
transform="scale(0.001,-0.001)" />

<path d="M71,0V90H214v934H71v90H1073V851H970v160H502V654H792V796H895V411H792V552H502V103H984V263h102V0Z" 
id="f1_2"
transform="scale(0.001,-0.001)" />

<path d="M87,-338c0,0,-45,0,-94,7c0,0,-51,8,-105,22v168l84,-1c0,0,1,-59,23,-86c0,0,21,-26,70,-26c0,0,55,0,77,35c0,0,21,35,21,127V703H51v90H427V-92c0,0,0,-122,-86,-184c0,0,-86,-62,-254,-62ZM277,876c0,0,-61,0,-102,41c0,0,-42,41,-42,101c0,0,0,60,41,101c0,0,42,42,103,42c0,0,58,0,100,-42c0,0,42,-42,42,-101c0,0,0,-59,-42,-101c0,0,-41,-41,-100,-41Z" 
id="f1_3"
transform="scale(0.001,-0.001)" />

<path d="M612,448c0,0,0,156,-29,219c0,0,-29,63,-99,63c0,0,-68,0,-98,-61c0,0,-29,-62,-29,-208V448ZM488,-20c0,0,-205,0,-315,107C173,87,63,195,63,397c0,0,0,197,112,307c0,0,113,110,313,110c0,0,197,0,303,-115c0,0,105,-116,111,-340H357v-6c0,0,0,-154,46,-222c0,0,46,-68,149,-68c0,0,86,0,139,45c0,0,53,46,68,133H883C883,241,851,105,755,42c0,0,-95,-62,-267,-62Z" 
id="f1_4"
transform="scale(0.001,-0.001)" />

<path d="M53,0V90H165V703H44v90H429V652c0,0,39,83,103,123c0,0,64,39,156,39c0,0,24,0,57,-3c0,0,33,-3,76,-9V565H737c0,0,-4,63,-34,94c0,0,-30,31,-87,31c0,0,-87,0,-137,-76c0,0,-50,-76,-50,-211V90H573V0Z" 
id="f1_5"
transform="scale(0.001,-0.001)" />

<path d="M507,-20c0,0,-212,0,-328,108C179,88,63,198,63,397c0,0,0,197,114,307c0,0,115,110,320,110c0,0,82,0,167,-15c0,0,84,-16,171,-47V532H752c0,0,-12,101,-59,150c0,0,-47,48,-132,48c0,0,-111,0,-157,-74c0,0,-47,-75,-47,-259c0,0,0,-180,45,-257c0,0,46,-77,149,-77c0,0,80,0,128,47c0,0,48,48,58,137H861C861,247,833,112,745,45c0,0,-87,-65,-238,-65Z" 
id="f1_6"
transform="scale(0.001,-0.001)" />

<path d="M53,0V90H165V703H53v90H429V90H543V0ZM285,876c0,0,-61,0,-102,41c0,0,-42,41,-42,101c0,0,0,60,42,101c0,0,41,42,102,42c0,0,59,0,100,-42c0,0,41,-41,41,-101c0,0,0,-59,-41,-101c0,0,-41,-41,-100,-41Z" 
id="f1_7"
transform="scale(0.001,-0.001)" />

<path d="M510,63c0,0,84,0,118,71c0,0,34,72,34,263c0,0,0,191,-34,262c0,0,-33,71,-118,71c0,0,-84,0,-119,-72c0,0,-34,-72,-34,-261c0,0,0,-190,34,-262c0,0,35,-72,119,-72Zm0,-83c0,0,-209,0,-328,110C182,90,63,201,63,397c0,0,0,196,119,307c0,0,119,110,328,110c0,0,211,0,330,-110c0,0,118,-111,118,-307c0,0,0,-196,-119,-307C839,90,720,-20,510,-20Z" 
id="f1_8"
transform="scale(0.001,-0.001)" />

<path d="M209,0V90H418V992L187,854V966l279,168H701V90H910V0Z" 
id="f1_a"
transform="scale(0.001,-0.001)" />

<path d="M494,-20c0,0,-91,0,-181,15c0,0,-90,14,-188,45V283h90c0,0,5,-110,57,-164c0,0,53,-53,156,-53c0,0,109,0,162,73c0,0,53,73,53,224c0,0,0,148,-51,222c0,0,-52,73,-157,73c0,0,-57,0,-102,-23c0,0,-44,-24,-82,-73H176v552H861V918H266V673c0,0,49,38,110,58c0,0,60,19,127,19c0,0,206,0,325,-104c0,0,119,-104,119,-283c0,0,0,-182,-119,-283C828,80,709,-20,494,-20Z" 
id="f1_h"
transform="scale(0.001,-0.001)" />

<path d="M83,331V549H551V331Z" 
id="f2_k"
transform="scale(0.001,-0.001)" />

<path d="M163,0V190H321V0Z" 
id="f0_m"
transform="scale(0.001,-0.001)" />

<path d="M495,0V729H66V836H781V729H634V0Z" 
id="f0_r"
transform="scale(0.001,-0.001)" />

<path d="M287,0L589,729H66v386H205V836l547,-1l-2,-82L433,0Z" 
id="f0_e"
transform="scale(0.001,-0.001)" />

<path d="M543,-317V369c0,0,0,85,-8,143c0,0,-8,58,-27,101c0,0,-18,44,-51,69c0,0,-33,24,-80,36c0,0,-48,11,-117,11H66V836H257c0,0,125,0,205,-23c0,0,80,-23,130,-79c0,0,50,-56,70,-143c0,0,20,-86,20,-222V-317Z" 
id="f0_u"
transform="scale(0.001,-0.001)" />

<path d="M139,0V836H278V0Z" 
id="f0_c"
transform="scale(0.001,-0.001)" />

<path d="M156,-317V454l139,56V-317ZM505,0L806,729H139V835H967V753L650,0Z" 
id="f0_6"
transform="scale(0.001,-0.001)" />

<path d="M139,0V836H485c0,0,206,0,290,-90c0,0,84,-89,84,-294V0H721V473c0,0,0,147,-49,202c0,0,-48,54,-186,54H277V0Z" 
id="f0_h"
transform="scale(0.001,-0.001)" />

<path d="M66,0V106H322c0,0,75,0,127,23c0,0,53,23,82,67c0,0,29,43,42,98c0,0,13,54,13,124c0,0,0,70,-13,124c0,0,-13,55,-42,98c0,0,-29,44,-82,67c0,0,-52,23,-127,23H66V836H322c0,0,87,0,157,-24c0,0,70,-24,115,-64c0,0,45,-40,74,-94c0,0,30,-55,43,-113c0,0,13,-59,13,-123c0,0,0,-64,-13,-123c0,0,-13,-58,-43,-113c0,0,-29,-54,-74,-94C594,88,549,48,479,24C479,24,409,0,322,0Z" 
id="f0_n"
transform="scale(0.001,-0.001)" />

<path d="M66,0V107H332V555c0,0,0,92,-37,133c0,0,-37,41,-116,41H85V836h94c0,0,153,0,223,-66c0,0,69,-66,69,-231V0Z" 
id="f0_d"
transform="scale(0.001,-0.001)" />

<path d="M147,700v414H274V700Z" 
id="f0_11"
transform="scale(0.001,-0.001)" />

<path d="M66,0V106H564L66,836H228L516,413c0,0,3,2,9,6c0,0,17,13,27,21c0,0,10,8,26,27c0,0,17,20,26,40c0,0,9,21,16,54c0,0,7,34,7,75V836H764V698c0,0,0,-55,-7,-102c0,0,-7,-47,-16,-79c0,0,-10,-33,-27,-62c0,0,-18,-29,-32,-46c0,0,-14,-17,-37,-35c0,0,-22,-17,-36,-25c0,0,-13,-8,-36,-20L767,53V0Z" 
id="f0_s"
transform="scale(0.001,-0.001)" />

<path d="M71,-141V-15L289,62L66,836H210L416,109c0,0,99,42,153,98c0,0,53,56,80,155c0,0,26,98,26,262V836H817V624c0,0,0,-88,-7,-154c0,0,-7,-67,-25,-132c0,0,-18,-66,-51,-116c0,0,-33,-51,-84,-98c0,0,-50,-48,-123,-87c0,0,-72,-39,-169,-74L71,-141Z" 
id="f0_p"
transform="scale(0.001,-0.001)" />

<path d="M522,92c0,0,247,0,247,333c0,0,0,88,-17,146c0,0,-17,58,-53,91c0,0,-35,33,-82,46c0,0,-48,14,-116,14H276V419c0,0,0,-327,246,-327Zm0,-112c0,0,-193,0,-289,109c0,0,-95,110,-95,337V836H501c0,0,213,0,309,-93c0,0,96,-94,96,-317c0,0,0,-227,-95,-337C811,89,715,-20,522,-20Z" 
id="f0_g"
transform="scale(0.001,-0.001)" />

<path d="M139,-317V836H278V-317Z" 
id="f0_t"
transform="scale(0.001,-0.001)" />

<path d="M231,0V190H382V0Zm15,359L231,625v489H382V625L367,359Z" 
id="f0_2"
transform="scale(0.001,-0.001)" />

<path d="M147,700v414H274V700Zm282,0v414H556V700Z" 
id="f0_12"
transform="scale(0.001,-0.001)" />

<path d="M291,0V190H443V0Zm5,299V414c0,0,0,75,21,124c0,0,21,48,88,113l67,66c0,0,42,40,61,75c0,0,19,35,19,71c0,0,0,67,-48,108c0,0,-49,41,-130,41c0,0,-59,0,-125,-26c0,0,-67,-26,-139,-77v140c0,0,70,43,142,64c0,0,72,21,148,21c0,0,138,0,221,-72c0,0,83,-73,83,-191c0,0,0,-57,-27,-108c0,0,-27,-51,-94,-115L517,583c0,0,-34,-35,-49,-54c0,0,-14,-20,-20,-39c0,0,-5,-16,-7,-38c0,0,-2,-22,-2,-61V299Z" 
id="f0_14"
transform="scale(0.001,-0.001)" />

<path d="M448,506c0,0,134,0,190,49c0,0,57,50,57,168c0,0,0,114,-56,162c0,0,-56,48,-195,48H316V506ZM777,0L496,438H316V60L468,40V0H54V40L172,60V941L44,960v40H476c0,0,188,0,277,-63c0,0,90,-64,90,-204c0,0,0,-100,-54,-173c0,0,-55,-73,-151,-101L909,60L1017,40V0Z" 
id="f3_v"
transform="scale(0.001,-0.001)" />

<path d="M495,413c0,0,0,133,-34,190c0,0,-34,57,-105,57c0,0,-78,0,-119,-63c0,0,-42,-62,-42,-184ZM374,-14c0,0,-163,0,-239,87c0,0,-75,88,-75,283c0,0,0,183,77,273c0,0,76,91,219,91c0,0,269,0,269,-306V353H194V340c0,0,0,-103,23,-160c0,0,22,-57,70,-87c0,0,47,-29,124,-29c0,0,40,0,96,6c0,0,55,7,91,15V43C598,43,562,20,500,3c0,0,-61,-17,-126,-17Z" 
id="f3_6"
transform="scale(0.001,-0.001)" />

<path d="M278,-14c0,0,-52,0,-115,11c0,0,-63,10,-99,23V193H98L134,95c0,0,56,-50,146,-50c0,0,144,0,144,123c0,0,0,91,-114,130l-66,21c0,0,-75,25,-110,50c0,0,-34,26,-53,63c0,0,-18,36,-18,89c0,0,0,92,63,145c0,0,63,54,170,54c0,0,77,0,193,-23V544H454l-32,81c0,0,-39,35,-124,35c0,0,-61,0,-92,-30c0,0,-32,-30,-32,-80c0,0,0,-43,29,-72c0,0,28,-29,86,-48c0,0,110,-38,144,-55c0,0,33,-17,57,-42c0,0,23,-25,36,-57c0,0,13,-32,13,-79c0,0,0,-104,-66,-158c0,0,-66,-53,-195,-53Z" 
id="f3_4"
transform="scale(0.001,-0.001)" />

<path d="M382,45c0,0,188,0,188,314c0,0,0,143,-47,213c0,0,-46,69,-141,69c0,0,-87,0,-146,-24V58c0,0,67,-13,146,-13ZM25,-325v35l88,18V649L34,668v33H231l1,-41c0,0,31,27,84,43c0,0,53,17,107,17c0,0,134,0,208,-94c0,0,73,-93,73,-267c0,0,0,-178,-80,-276c0,0,-80,-97,-232,-97c0,0,-84,0,-160,16c0,0,4,-53,4,-84V-272l123,-18v-35Z" 
id="f3_d"
transform="scale(0.001,-0.001)" />

<path d="M289,-14c0,0,-179,0,-179,205V649L20,668v33H233V200c0,0,0,-128,120,-128c0,0,92,0,173,23V649L420,668v33H649V52L738,33V0H533l-6,57C527,57,474,28,405,7c0,0,-69,-21,-116,-21Z" 
id="f3_m"
transform="scale(0.001,-0.001)" />

<path d="M249,-14c0,0,-71,0,-107,42c0,0,-35,42,-35,119V639H15v33l93,29l76,159h47V701H391V639H231V161c0,0,0,-48,22,-73c0,0,22,-24,57,-24c0,0,44,0,106,12V26C416,26,389,8,340,-2c0,0,-49,-12,-91,-12Z" 
id="f3_5"
transform="scale(0.001,-0.001)" />

<path d="M284,67c0,0,51,0,88,12c0,0,37,12,74,30V358l-98,-3c0,0,-100,-4,-135,-39c0,0,-35,-35,-35,-117c0,0,0,-132,106,-132ZM233,-14c0,0,-179,0,-179,208c0,0,0,70,27,116c0,0,27,46,87,70c0,0,60,24,173,27l105,3V519c0,0,0,72,-26,107c0,0,-27,34,-82,34c0,0,-75,0,-137,-35L176,538H134V691c0,0,121,26,213,26c0,0,115,0,169,-47c0,0,54,-47,54,-144V52L657,33V0H465L451,70c0,0,-85,-84,-218,-84Z" 
id="f3_3"
transform="scale(0.001,-0.001)" />


</defs>
</svg>