<?xml version="1.0" encoding="UTF-8" standalone="no"?>
<!DOCTYPE svg PUBLIC "-//W3C//DTD SVG 1.1//EN"
"http://www.w3.org/Graphics/SVG/1.1/DTD/svg11.dtd">
<svg viewBox="0 0 909 1286" version="1.1" xmlns="http://www.w3.org/2000/svg" xmlns:xlink="http://www.w3.org/1999/xlink">
<defs>
<clipPath id="c0_18"><path d="M0,1286.2V0H909.4V1286.2Z" /></clipPath>
<style type="text/css"><![CDATA[
.g0_18{
fill: #D8D8D8;
}
.g1_18{
fill: none;
stroke: #000000;
stroke-width: 0.7638889;
stroke-linecap: butt;
stroke-linejoin: round;
}
.g2_18{
fill: none;
stroke: #0000FF;
stroke-width: 1.0694444;
stroke-linecap: butt;
stroke-linejoin: miter;
}
]]></style>
</defs>
<path fill-rule="evenodd" d="M128.9,130.1H237.2V110H128.9v20.1Z" class="g0_18" />
<path fill-rule="evenodd" d="M128.9,150.1H237.2V130.2H128.9v19.9Z" class="g0_18" />
<path fill-rule="evenodd" d="M128.9,170.3H237.2V150.2H128.9v20.1Z" class="g0_18" />
<path fill-rule="evenodd" d="M128.9,130.1H237.2V110H128.9v20.1Z" class="g0_18" />
<path fill-rule="evenodd" d="M128.9,150.1H237.2V130.2H128.9v19.9Z" class="g0_18" />
<path fill-rule="evenodd" d="M128.9,170.3H237.2V150.2H128.9v20.1Z" class="g0_18" />
<path d="M128.6,110.4H837M128.6,130.5H837M128.6,150.6H837M128.6,170.7H837M128.9,110v61.1M237.3,110v61.1M464.6,110v61.1M659.5,110v61.1M836.6,110v61.1" class="g1_18" />
<g clip-path="url(#c0_18)">
<g fill="#000000" >
<use xlink:href="#f0_6" transform="matrix(11,0,0,11,668.4,126.5)" />
<use xlink:href="#f0_7" transform="matrix(11,0,0,11,676.7,126.5)" />
<use xlink:href="#f0_6" transform="matrix(11,0,0,11,681.4,126.5)" />
<use xlink:href="#f0_l" transform="matrix(11,0,0,11,689.8,126.5)" />
<use xlink:href="#f0_8" transform="matrix(11,0,0,11,473.5,126.5)" />
<use xlink:href="#f0_9" transform="matrix(11,0,0,11,480.9,126.5)" />
<use xlink:href="#f0_a" transform="matrix(11,0,0,11,489.2,126.5)" />
<use xlink:href="#f0_l" transform="matrix(11,0,0,11,502.3,126.5)" />
<use xlink:href="#f0_b" transform="matrix(11,0,0,11,246,126.5)" />
<use xlink:href="#f0_a" transform="matrix(11,0,0,11,253.4,126.5)" />
<use xlink:href="#f0_b" transform="matrix(11,0,0,11,266.6,126.5)" />
<use xlink:href="#f0_h" transform="matrix(11,0,0,11,137.7,126.5)" />
<use xlink:href="#f0_j" transform="matrix(11,0,0,11,145.1,126.5)" />
<use xlink:href="#f0_k" transform="matrix(11,0,0,11,149.7,126.5)" />
<use xlink:href="#f0_l" transform="matrix(11,0,0,11,154.4,126.5)" />
<use xlink:href="#f0_j" transform="matrix(11,0,0,11,161.9,126.5)" />
<use xlink:href="#f0_j" transform="matrix(11,0,0,11,166.5,126.5)" />
<use xlink:href="#f0_b" transform="matrix(11,0,0,11,171.2,126.5)" />
<use xlink:href="#f0_k" transform="matrix(11,0,0,11,178.7,126.5)" />
<use xlink:href="#f0_m" transform="matrix(11,0,0,11,183.4,126.5)" />
<use xlink:href="#f0_n" transform="matrix(11,0,0,11,195.4,126.5)" />
<use xlink:href="#f0_o" transform="matrix(11,0,0,11,203.8,126.5)" />
<use xlink:href="#f0_6" transform="matrix(11,0,0,11,668.4,146.5)" />
<use xlink:href="#f0_7" transform="matrix(11,0,0,11,676.7,146.5)" />
<use xlink:href="#f0_6" transform="matrix(11,0,0,11,681.4,146.5)" />
<use xlink:href="#f0_7" transform="matrix(11,0,0,11,689.8,146.5)" />
<use xlink:href="#f0_a" transform="matrix(11,0,0,11,694.5,146.5)" />
<use xlink:href="#f0_9" transform="matrix(11,0,0,11,707.6,146.5)" />
<use xlink:href="#f0_q" transform="matrix(11,0,0,11,715.9,146.5)" />
<use xlink:href="#f0_8" transform="matrix(11,0,0,11,473.5,146.5)" />
<use xlink:href="#f0_9" transform="matrix(11,0,0,11,480.9,146.5)" />
<use xlink:href="#f0_a" transform="matrix(11,0,0,11,489.2,146.5)" />
<use xlink:href="#f0_l" transform="matrix(11,0,0,11,502.3,146.5)" />
<use xlink:href="#f0_a" transform="matrix(11,0,0,11,509.8,146.5)" />
<use xlink:href="#f0_9" transform="matrix(11,0,0,11,522.9,146.5)" />
<use xlink:href="#f0_q" transform="matrix(11,0,0,11,531.1,146.5)" />
<use xlink:href="#f0_b" transform="matrix(11,0,0,11,246,146.5)" />
<use xlink:href="#f0_a" transform="matrix(11,0,0,11,253.4,146.5)" />
<use xlink:href="#f0_b" transform="matrix(11,0,0,11,266.6,146.5)" />
<use xlink:href="#f0_a" transform="matrix(11,0,0,11,273.9,146.5)" />
<use xlink:href="#f0_9" transform="matrix(11,0,0,11,287,146.5)" />
<use xlink:href="#f0_q" transform="matrix(11,0,0,11,295.4,146.5)" />
<use xlink:href="#f0_p" transform="matrix(11,0,0,11,137.7,146.5)" />
<use xlink:href="#f0_9" transform="matrix(11,0,0,11,146.1,146.5)" />
<use xlink:href="#f0_q" transform="matrix(11,0,0,11,154.5,146.5)" />
<use xlink:href="#f0_9" transform="matrix(11,0,0,11,161,146.5)" />
<use xlink:href="#f0_d" transform="matrix(11,0,0,11,169.4,146.5)" />
<use xlink:href="#f0_r" transform="matrix(11,0,0,11,174,146.5)" />
<use xlink:href="#f0_9" transform="matrix(11,0,0,11,179.6,146.5)" />
<use xlink:href="#f0_q" transform="matrix(11,0,0,11,188,146.5)" />
<use xlink:href="#f0_k" transform="matrix(11,0,0,11,194.6,146.5)" />
<use xlink:href="#f0_b" transform="matrix(11,0,0,11,199.3,146.5)" />
<use xlink:href="#f0_q" transform="matrix(11,0,0,11,206.6,146.5)" />
<use xlink:href="#f0_6" transform="matrix(11,0,0,11,668.4,166.7)" />
<use xlink:href="#f0_7" transform="matrix(11,0,0,11,676.7,166.7)" />
<use xlink:href="#f0_6" transform="matrix(11,0,0,11,681.4,166.7)" />
<use xlink:href="#f0_l" transform="matrix(11,0,0,11,689.8,166.7)" />
<use xlink:href="#f0_p" transform="matrix(11,0,0,11,697.2,166.7)" />
<use xlink:href="#f0_8" transform="matrix(11,0,0,11,473.5,166.7)" />
<use xlink:href="#f0_9" transform="matrix(11,0,0,11,480.9,166.7)" />
<use xlink:href="#f0_a" transform="matrix(11,0,0,11,489.2,166.7)" />
<use xlink:href="#f0_l" transform="matrix(11,0,0,11,502.3,166.7)" />
<use xlink:href="#f0_p" transform="matrix(11,0,0,11,509.8,166.7)" />
<use xlink:href="#f0_b" transform="matrix(11,0,0,11,246,166.7)" />
<use xlink:href="#f0_a" transform="matrix(11,0,0,11,253.4,166.7)" />
<use xlink:href="#f0_b" transform="matrix(11,0,0,11,266.6,166.7)" />
<use xlink:href="#f0_p" transform="matrix(11,0,0,11,274,166.7)" />
<use xlink:href="#f0_l" transform="matrix(11,0,0,11,137.7,166.7)" />
<use xlink:href="#f0_j" transform="matrix(11,0,0,11,145.1,166.7)" />
<use xlink:href="#f0_j" transform="matrix(11,0,0,11,149.7,166.7)" />
<use xlink:href="#f0_9" transform="matrix(11,0,0,11,154.4,166.7)" />
<use xlink:href="#f0_q" transform="matrix(11,0,0,11,162.8,166.7)" />
<use xlink:href="#f0_k" transform="matrix(11,0,0,11,169.4,166.7)" />
<use xlink:href="#f0_b" transform="matrix(11,0,0,11,174.1,166.7)" />
<use xlink:href="#f0_q" transform="matrix(11,0,0,11,181.4,166.7)" />
<use xlink:href="#f0_k" transform="matrix(11,0,0,11,188,166.7)" />
<use xlink:href="#f0_m" transform="matrix(11,0,0,11,192.7,166.7)" />
<use xlink:href="#f0_n" transform="matrix(11,0,0,11,204.8,166.7)" />
<use xlink:href="#f0_q" transform="matrix(11,0,0,11,213.2,166.7)" />
<use xlink:href="#f0_o" transform="matrix(11,0,0,11,219.7,166.7)" />
</g>
<g fill="#0000FF" >
<use xlink:href="#f1_c" transform="matrix(11.5,0,0,11.5,674.1,187.5)" />
<use xlink:href="#f1_5" transform="matrix(11.5,0,0,11.5,686.6,187.5)" />
<use xlink:href="#f1_d" transform="matrix(11.5,0,0,11.5,696.5,187.5)" />
<use xlink:href="#f1_7" transform="matrix(11.5,0,0,11.5,707.5,187.5)" />
<use xlink:href="#f1_6" transform="matrix(11.5,0,0,11.5,723,187.5)" />
<use xlink:href="#f1_5" transform="matrix(11.5,0,0,11.5,734.5,187.5)" />
<use xlink:href="#f1_b" transform="matrix(11.5,0,0,11.5,744.4,187.5)" />
<use xlink:href="#f1_f" transform="matrix(11.5,0,0,11.5,750.5,187.5)" />
<use xlink:href="#f1_2" transform="matrix(11.5,0,0,11.5,761.9,187.5)" />
</g>
</g>
<path d="M674.1,189.1h98" class="g2_18" />
<g clip-path="url(#c0_18)">
<g fill="#000000" >
<use xlink:href="#f2_b" transform="matrix(12,0,0,12,723.8,245.5)" />
<use xlink:href="#f2_h" transform="matrix(12,0,0,12,735,245.5)" />
<use xlink:href="#f2_f" transform="matrix(12,0,0,12,740.3,245.5)" />
<use xlink:href="#f2_4" transform="matrix(12,0,0,12,748.6,245.5)" />
<use xlink:href="#f2_7" transform="matrix(12,0,0,12,759.6,245.5)" />
<use xlink:href="#f2_n" transform="matrix(12,0,0,12,704.6,245.5)" />
</g>
</g>
<path d="M128.6,250.3H533.7M128.6,272.5H533.7M128.6,294.6H533.7M128.6,316.8H533.7M128.6,338.9H533.7M128.6,361.1H533.7M128.6,383.2H533.7M128.6,405.4H533.7M128.6,427.5H533.7M128.6,471.1H533.7M128.6,493.2H533.7M128.9,249.9V493.6m195,-243.7V493.6M533.3,249.9V493.6" class="g1_18" />
<g clip-path="url(#c0_18)">
<g fill="#000000" >
<use xlink:href="#f1_i" transform="matrix(12,0,0,12,469.9,267.7)" />
<use xlink:href="#f1_l" transform="matrix(12,0,0,12,481.8,267.7)" />
<use xlink:href="#f1_4" transform="matrix(12,0,0,12,489.2,267.7)" />
<use xlink:href="#f1_3" transform="matrix(12,0,0,12,498.8,267.7)" />
<use xlink:href="#f1_6" transform="matrix(12,0,0,12,502.9,267.7)" />
<use xlink:href="#f1_7" transform="matrix(12,0,0,12,514.8,267.7)" />
<use xlink:href="#f0_l" transform="matrix(11,0,0,11,137.7,266.3)" />
<use xlink:href="#f0_p" transform="matrix(11,0,0,11,145.1,266.3)" />
<use xlink:href="#f0_d" transform="matrix(11,0,0,11,153.5,266.3)" />
<use xlink:href="#f0_r" transform="matrix(11,0,0,11,158.1,266.3)" />
<use xlink:href="#f0_b" transform="matrix(11,0,0,11,163.7,266.3)" />
<use xlink:href="#f0_r" transform="matrix(11,0,0,11,171.2,266.3)" />
<use xlink:href="#f1_i" transform="matrix(12,0,0,12,459.6,289.8)" />
<use xlink:href="#f1_l" transform="matrix(12,0,0,12,471.5,289.8)" />
<use xlink:href="#f1_4" transform="matrix(12,0,0,12,478.8,289.8)" />
<use xlink:href="#f1_l" transform="matrix(12,0,0,12,488.4,289.8)" />
<use xlink:href="#f1_3" transform="matrix(12,0,0,12,501.6,289.8)" />
<use xlink:href="#f1_l" transform="matrix(12,0,0,12,505.7,289.8)" />
<use xlink:href="#f1_e" transform="matrix(12,0,0,12,513,289.8)" />
<use xlink:href="#f0_z" transform="matrix(11,0,0,11,137.7,288.4)" />
<use xlink:href="#f0_9" transform="matrix(11,0,0,11,149.7,288.4)" />
<use xlink:href="#f0_l" transform="matrix(11,0,0,11,162.4,288.4)" />
<use xlink:href="#f0_p" transform="matrix(11,0,0,11,169.8,288.4)" />
<use xlink:href="#f0_d" transform="matrix(11,0,0,11,178.2,288.4)" />
<use xlink:href="#f0_r" transform="matrix(11,0,0,11,182.8,288.4)" />
<use xlink:href="#f0_9" transform="matrix(11,0,0,11,188.5,288.4)" />
<use xlink:href="#f1_i" transform="matrix(12,0,0,12,447,312)" />
<use xlink:href="#f1_l" transform="matrix(12,0,0,12,458.9,312)" />
<use xlink:href="#f1_4" transform="matrix(12,0,0,12,466.3,312)" />
<use xlink:href="#f1_l" transform="matrix(12,0,0,12,475.9,312)" />
<use xlink:href="#f1_6" transform="matrix(12,0,0,12,489,312)" />
<use xlink:href="#f1_a" transform="matrix(12,0,0,12,500.9,312)" />
<use xlink:href="#f1_e" transform="matrix(12,0,0,12,513,312)" />
<use xlink:href="#f0_18" transform="matrix(11,0,0,11,137.7,310.6)" />
<use xlink:href="#f0_e" transform="matrix(11,0,0,11,147.9,310.6)" />
<use xlink:href="#f0_l" transform="matrix(11,0,0,11,160.6,310.6)" />
<use xlink:href="#f0_p" transform="matrix(11,0,0,11,168,310.6)" />
<use xlink:href="#f0_d" transform="matrix(11,0,0,11,176.3,310.6)" />
<use xlink:href="#f0_r" transform="matrix(11,0,0,11,181,310.6)" />
<use xlink:href="#f0_b" transform="matrix(11,0,0,11,186.6,310.6)" />
<use xlink:href="#f0_q" transform="matrix(11,0,0,11,194.1,310.6)" />
<use xlink:href="#f1_i" transform="matrix(12,0,0,12,454.1,334.1)" />
<use xlink:href="#f1_l" transform="matrix(12,0,0,12,466,334.1)" />
<use xlink:href="#f1_4" transform="matrix(12,0,0,12,473.3,334.1)" />
<use xlink:href="#f1_l" transform="matrix(12,0,0,12,482.9,334.1)" />
<use xlink:href="#f1_e" transform="matrix(12,0,0,12,496.1,334.1)" />
<use xlink:href="#f1_9" transform="matrix(12,0,0,12,508.3,334.1)" />
<use xlink:href="#f1_6" transform="matrix(12,0,0,12,513.3,334.1)" />
<use xlink:href="#f0_1p" transform="matrix(11,0,0,11,137.7,332.8)" />
<use xlink:href="#f0_j" transform="matrix(11,0,0,11,147.9,332.8)" />
<use xlink:href="#f0_l" transform="matrix(11,0,0,11,156.9,332.8)" />
<use xlink:href="#f0_p" transform="matrix(11,0,0,11,164.2,332.8)" />
<use xlink:href="#f0_d" transform="matrix(11,0,0,11,172.6,332.8)" />
<use xlink:href="#f0_r" transform="matrix(11,0,0,11,177.3,332.8)" />
<use xlink:href="#f0_b" transform="matrix(11,0,0,11,182.8,332.8)" />
<use xlink:href="#f1_a" transform="matrix(12,0,0,12,442.9,356.3)" />
<use xlink:href="#f1_i" transform="matrix(12,0,0,12,454.9,356.3)" />
<use xlink:href="#f1_l" transform="matrix(12,0,0,12,466.8,356.3)" />
<use xlink:href="#f1_4" transform="matrix(12,0,0,12,474.2,356.3)" />
<use xlink:href="#f1_l" transform="matrix(12,0,0,12,483.8,356.3)" />
<use xlink:href="#f1_e" transform="matrix(12,0,0,12,496.9,356.3)" />
<use xlink:href="#f1_3" transform="matrix(12,0,0,12,509.2,356.3)" />
<use xlink:href="#f1_6" transform="matrix(12,0,0,12,513.3,356.3)" />
<use xlink:href="#f0_4" transform="matrix(11,0,0,11,137.7,354.9)" />
<use xlink:href="#f0_j" transform="matrix(11,0,0,11,147.9,354.9)" />
<use xlink:href="#f0_j" transform="matrix(11,0,0,11,152.6,354.9)" />
<use xlink:href="#f0_b" transform="matrix(11,0,0,11,157.2,354.9)" />
<use xlink:href="#f0_l" transform="matrix(11,0,0,11,168.9,354.9)" />
<use xlink:href="#f0_p" transform="matrix(11,0,0,11,176.4,354.9)" />
<use xlink:href="#f0_d" transform="matrix(11,0,0,11,184.6,354.9)" />
<use xlink:href="#f0_r" transform="matrix(11,0,0,11,189.4,354.9)" />
<use xlink:href="#f0_b" transform="matrix(11,0,0,11,195,354.9)" />
<use xlink:href="#f1_j" transform="matrix(12,0,0,12,423,378.4)" />
<use xlink:href="#f1_3" transform="matrix(12,0,0,12,435.3,378.4)" />
<use xlink:href="#f1_i" transform="matrix(12,0,0,12,439.4,378.4)" />
<use xlink:href="#f1_l" transform="matrix(12,0,0,12,451.3,378.4)" />
<use xlink:href="#f1_4" transform="matrix(12,0,0,12,458.6,378.4)" />
<use xlink:href="#f1_l" transform="matrix(12,0,0,12,468.2,378.4)" />
<use xlink:href="#f1_9" transform="matrix(12,0,0,12,481.4,378.4)" />
<use xlink:href="#f1_l" transform="matrix(12,0,0,12,486.4,378.4)" />
<use xlink:href="#f1_f" transform="matrix(12,0,0,12,493.7,378.4)" />
<use xlink:href="#f1_l" transform="matrix(12,0,0,12,505.6,378.4)" />
<use xlink:href="#f1_e" transform="matrix(12,0,0,12,513,378.4)" />
<use xlink:href="#f0_p" transform="matrix(11,0,0,11,137.7,377.1)" />
<use xlink:href="#f0_9" transform="matrix(11,0,0,11,146.1,377.1)" />
<use xlink:href="#f0_q" transform="matrix(11,0,0,11,154.5,377.1)" />
<use xlink:href="#f0_9" transform="matrix(11,0,0,11,161,377.1)" />
<use xlink:href="#f0_d" transform="matrix(11,0,0,11,169.4,377.1)" />
<use xlink:href="#f0_r" transform="matrix(11,0,0,11,174,377.1)" />
<use xlink:href="#f0_9" transform="matrix(11,0,0,11,179.6,377.1)" />
<use xlink:href="#f0_q" transform="matrix(11,0,0,11,188,377.1)" />
<use xlink:href="#f0_l" transform="matrix(11,0,0,11,198.9,377.1)" />
<use xlink:href="#f0_p" transform="matrix(11,0,0,11,206.3,377.1)" />
<use xlink:href="#f0_d" transform="matrix(11,0,0,11,214.6,377.1)" />
<use xlink:href="#f0_r" transform="matrix(11,0,0,11,219.3,377.1)" />
<use xlink:href="#f0_b" transform="matrix(11,0,0,11,224.9,377.1)" />
<use xlink:href="#f0_a" transform="matrix(11,0,0,11,232.3,377.1)" />
<use xlink:href="#f0_9" transform="matrix(11,0,0,11,245.4,377.1)" />
<use xlink:href="#f0_q" transform="matrix(11,0,0,11,253.8,377.1)" />
<use xlink:href="#f1_i" transform="matrix(12,0,0,12,442.9,400.6)" />
<use xlink:href="#f1_l" transform="matrix(12,0,0,12,454.8,400.6)" />
<use xlink:href="#f1_4" transform="matrix(12,0,0,12,462.1,400.6)" />
<use xlink:href="#f1_l" transform="matrix(12,0,0,12,471.8,400.6)" />
<use xlink:href="#f1_9" transform="matrix(12,0,0,12,485,400.6)" />
<use xlink:href="#f1_h" transform="matrix(12,0,0,12,489.9,400.6)" />
<use xlink:href="#f1_9" transform="matrix(12,0,0,12,500,400.6)" />
<use xlink:href="#f1_2" transform="matrix(12,0,0,12,505,400.6)" />
<use xlink:href="#f1_4" transform="matrix(12,0,0,12,515.6,400.6)" />
<use xlink:href="#f0_m" transform="matrix(11,0,0,11,137.7,399.2)" />
<use xlink:href="#f0_q" transform="matrix(11,0,0,11,149.7,399.2)" />
<use xlink:href="#f0_d" transform="matrix(11,0,0,11,156.3,399.2)" />
<use xlink:href="#f0_l" transform="matrix(11,0,0,11,161,399.2)" />
<use xlink:href="#f0_n" transform="matrix(11,0,0,11,168.5,399.2)" />
<use xlink:href="#f0_l" transform="matrix(11,0,0,11,181,399.2)" />
<use xlink:href="#f0_p" transform="matrix(11,0,0,11,188.4,399.2)" />
<use xlink:href="#f0_d" transform="matrix(11,0,0,11,196.8,399.2)" />
<use xlink:href="#f0_r" transform="matrix(11,0,0,11,201.6,399.2)" />
<use xlink:href="#f0_b" transform="matrix(11,0,0,11,207.1,399.2)" />
<use xlink:href="#f1_j" transform="matrix(12,0,0,12,442.8,422.7)" />
<use xlink:href="#f1_3" transform="matrix(12,0,0,12,455,422.7)" />
<use xlink:href="#f1_i" transform="matrix(12,0,0,12,459.1,422.7)" />
<use xlink:href="#f1_l" transform="matrix(12,0,0,12,471,422.7)" />
<use xlink:href="#f1_4" transform="matrix(12,0,0,12,478.3,422.7)" />
<use xlink:href="#f1_l" transform="matrix(12,0,0,12,487.9,422.7)" />
<use xlink:href="#f1_j" transform="matrix(12,0,0,12,501.1,422.7)" />
<use xlink:href="#f1_6" transform="matrix(12,0,0,12,513.3,422.7)" />
<use xlink:href="#f0_4" transform="matrix(11,0,0,11,137.7,421.4)" />
<use xlink:href="#f0_j" transform="matrix(11,0,0,11,147.9,421.4)" />
<use xlink:href="#f0_j" transform="matrix(11,0,0,11,152.6,421.4)" />
<use xlink:href="#f0_9" transform="matrix(11,0,0,11,157.3,421.4)" />
<use xlink:href="#f0_q" transform="matrix(11,0,0,11,165.6,421.4)" />
<use xlink:href="#f0_l" transform="matrix(11,0,0,11,176.4,421.4)" />
<use xlink:href="#f0_p" transform="matrix(11,0,0,11,183.9,421.4)" />
<use xlink:href="#f0_d" transform="matrix(11,0,0,11,192.1,421.4)" />
<use xlink:href="#f0_r" transform="matrix(11,0,0,11,196.8,421.4)" />
<use xlink:href="#f0_b" transform="matrix(11,0,0,11,202.5,421.4)" />
<use xlink:href="#f0_p" transform="matrix(11,0,0,11,209.9,421.4)" />
<use xlink:href="#f1_3" transform="matrix(12,0,0,12,332.6,444.9)" />
<use xlink:href="#f1_d" transform="matrix(12,0,0,12,336.7,444.9)" />
<use xlink:href="#f1_7" transform="matrix(12,0,0,12,348.1,444.9)" />
<use xlink:href="#f1_w" transform="matrix(12,0,0,12,358.5,444.9)" />
<use xlink:href="#f1_j" transform="matrix(12,0,0,12,401,444.9)" />
<use xlink:href="#f1_3" transform="matrix(12,0,0,12,413.2,444.9)" />
<use xlink:href="#f1_i" transform="matrix(12,0,0,12,417.3,444.9)" />
<use xlink:href="#f1_l" transform="matrix(12,0,0,12,429.2,444.9)" />
<use xlink:href="#f1_4" transform="matrix(12,0,0,12,436.5,444.9)" />
<use xlink:href="#f1_l" transform="matrix(12,0,0,12,446.2,444.9)" />
<use xlink:href="#f1_j" transform="matrix(12,0,0,12,488.6,444.9)" />
<use xlink:href="#f1_a" transform="matrix(12,0,0,12,500.8,444.9)" />
<use xlink:href="#f1_e" transform="matrix(12,0,0,12,512.9,444.9)" />
<use xlink:href="#f1_x" transform="matrix(12,0,0,12,470.7,466.3)" />
<use xlink:href="#f1_j" transform="matrix(12,0,0,12,477.9,466.3)" />
<use xlink:href="#f1_h" transform="matrix(12,0,0,12,489.9,466.3)" />
<use xlink:href="#f1_9" transform="matrix(12,0,0,12,500,466.3)" />
<use xlink:href="#f1_2" transform="matrix(12,0,0,12,505,466.3)" />
<use xlink:href="#f1_4" transform="matrix(12,0,0,12,515.6,466.3)" />
<use xlink:href="#f0_m" transform="matrix(11,0,0,11,137.7,443.5)" />
<use xlink:href="#f0_q" transform="matrix(11,0,0,11,149.7,443.5)" />
<use xlink:href="#f0_d" transform="matrix(11,0,0,11,156.3,443.5)" />
<use xlink:href="#f0_l" transform="matrix(11,0,0,11,161,443.5)" />
<use xlink:href="#f0_n" transform="matrix(11,0,0,11,168.5,443.5)" />
<use xlink:href="#f0_l" transform="matrix(11,0,0,11,176.9,443.5)" />
<use xlink:href="#f0_q" transform="matrix(11,0,0,11,184.3,443.5)" />
<use xlink:href="#f0_l" transform="matrix(11,0,0,11,195,443.5)" />
<use xlink:href="#f0_p" transform="matrix(11,0,0,11,202.5,443.5)" />
<use xlink:href="#f0_d" transform="matrix(11,0,0,11,210.9,443.5)" />
<use xlink:href="#f0_r" transform="matrix(11,0,0,11,215.4,443.5)" />
<use xlink:href="#f0_b" transform="matrix(11,0,0,11,221.1,443.5)" />
<use xlink:href="#f0_p" transform="matrix(11,0,0,11,228.5,443.5)" />
<use xlink:href="#f1_a" transform="matrix(12,0,0,12,446.9,488.4)" />
<use xlink:href="#f1_i" transform="matrix(12,0,0,12,458.9,488.4)" />
<use xlink:href="#f1_l" transform="matrix(12,0,0,12,470.8,488.4)" />
<use xlink:href="#f1_4" transform="matrix(12,0,0,12,478.2,488.4)" />
<use xlink:href="#f1_l" transform="matrix(12,0,0,12,487.8,488.4)" />
<use xlink:href="#f1_a" transform="matrix(12,0,0,12,500.9,488.4)" />
<use xlink:href="#f1_e" transform="matrix(12,0,0,12,513,488.4)" />
<use xlink:href="#f0_18" transform="matrix(11,0,0,11,137.7,487.1)" />
<use xlink:href="#f0_e" transform="matrix(11,0,0,11,147.9,487.1)" />
<use xlink:href="#f0_l" transform="matrix(11,0,0,11,160.6,487.1)" />
<use xlink:href="#f0_p" transform="matrix(11,0,0,11,168,487.1)" />
<use xlink:href="#f0_d" transform="matrix(11,0,0,11,176.3,487.1)" />
<use xlink:href="#f0_r" transform="matrix(11,0,0,11,181,487.1)" />
<use xlink:href="#f0_b" transform="matrix(11,0,0,11,186.6,487.1)" />
<use xlink:href="#f0_q" transform="matrix(11,0,0,11,194.1,487.1)" />
</g>
<g fill="#0000FF" >
<use xlink:href="#f1_c" transform="matrix(11.5,0,0,11.5,674.1,510)" />
<use xlink:href="#f1_5" transform="matrix(11.5,0,0,11.5,686.6,510)" />
<use xlink:href="#f1_d" transform="matrix(11.5,0,0,11.5,696.5,510)" />
<use xlink:href="#f1_7" transform="matrix(11.5,0,0,11.5,707.5,510)" />
<use xlink:href="#f1_6" transform="matrix(11.5,0,0,11.5,723,510)" />
<use xlink:href="#f1_5" transform="matrix(11.5,0,0,11.5,734.5,510)" />
<use xlink:href="#f1_b" transform="matrix(11.5,0,0,11.5,744.4,510)" />
<use xlink:href="#f1_f" transform="matrix(11.5,0,0,11.5,750.5,510)" />
<use xlink:href="#f1_2" transform="matrix(11.5,0,0,11.5,761.9,510)" />
</g>
</g>
<path d="M674.1,511.7h98" class="g2_18" />
<g clip-path="url(#c0_18)">
<g fill="#000000" >
<use xlink:href="#f2_b" transform="matrix(12,0,0,12,723.8,569.7)" />
<use xlink:href="#f2_h" transform="matrix(12,0,0,12,735,569.7)" />
<use xlink:href="#f2_f" transform="matrix(12,0,0,12,740.3,569.7)" />
<use xlink:href="#f2_4" transform="matrix(12,0,0,12,748.6,569.7)" />
<use xlink:href="#f2_7" transform="matrix(12,0,0,12,759.6,569.7)" />
<use xlink:href="#f2_o" transform="matrix(12,0,0,12,704.6,569.7)" />
</g>
</g>
<path d="M128.6,574.5H533.7M128.6,596.7H533.7M128.6,618.8H533.7M128.6,641H533.7M128.6,663.1H533.7M128.6,685.3H533.7M128.6,707.4H533.7M128.6,729.6H533.7M128.6,751.7H533.7M128.6,773.9H533.7M128.6,796H533.7M128.6,818.2H533.7M128.6,840.4H533.7M128.6,862.5H533.7M128.6,884.7H533.7M128.6,906.8H533.7M128.6,929H533.7M128.6,951.1H533.7M128.9,574.1V951.5m195,-377.4V951.5M533.3,574.1V951.5" class="g1_18" />
<g clip-path="url(#c0_18)">
<g fill="#000000" >
<use xlink:href="#f1_g" transform="matrix(12,0,0,12,440,591.9)" />
<use xlink:href="#f1_h" transform="matrix(12,0,0,12,445.8,591.9)" />
<use xlink:href="#f1_k" transform="matrix(12,0,0,12,455.9,591.9)" />
<use xlink:href="#f1_9" transform="matrix(12,0,0,12,467.3,591.9)" />
<use xlink:href="#f1_q" transform="matrix(12,0,0,12,472.4,591.9)" />
<use xlink:href="#f1_6" transform="matrix(12,0,0,12,489,591.9)" />
<use xlink:href="#f1_a" transform="matrix(12,0,0,12,500.9,591.9)" />
<use xlink:href="#f1_e" transform="matrix(12,0,0,12,513,591.9)" />
<use xlink:href="#f0_18" transform="matrix(11,0,0,11,137.7,590.5)" />
<use xlink:href="#f0_e" transform="matrix(11,0,0,11,147.9,590.5)" />
<use xlink:href="#f0_8" transform="matrix(11,0,0,11,160.6,590.5)" />
<use xlink:href="#f0_b" transform="matrix(11,0,0,11,168,590.5)" />
<use xlink:href="#f0_a" transform="matrix(11,0,0,11,175.3,590.5)" />
<use xlink:href="#f0_7" transform="matrix(11,0,0,11,188.5,590.5)" />
<use xlink:href="#f0_p" transform="matrix(11,0,0,11,193.2,590.5)" />
<use xlink:href="#f0_b" transform="matrix(11,0,0,11,201.6,590.5)" />
<use xlink:href="#f0_q" transform="matrix(11,0,0,11,208.9,590.5)" />
<use xlink:href="#f0_o" transform="matrix(11,0,0,11,215.5,590.5)" />
<use xlink:href="#f1_g" transform="matrix(12,0,0,12,447.9,614)" />
<use xlink:href="#f1_6" transform="matrix(12,0,0,12,453.8,614)" />
<use xlink:href="#f1_a" transform="matrix(12,0,0,12,465.7,614)" />
<use xlink:href="#f1_9" transform="matrix(12,0,0,12,477.7,614)" />
<use xlink:href="#f1_n" transform="matrix(12,0,0,12,482.7,614)" />
<use xlink:href="#f1_3" transform="matrix(12,0,0,12,501.5,614)" />
<use xlink:href="#f1_l" transform="matrix(12,0,0,12,505.6,614)" />
<use xlink:href="#f1_e" transform="matrix(12,0,0,12,513,614)" />
<use xlink:href="#f0_z" transform="matrix(11,0,0,11,137.7,612.6)" />
<use xlink:href="#f0_9" transform="matrix(11,0,0,11,149.7,612.6)" />
<use xlink:href="#f0_10" transform="matrix(11,0,0,11,162.4,612.6)" />
<use xlink:href="#f0_l" transform="matrix(11,0,0,11,170.8,612.6)" />
<use xlink:href="#f0_10" transform="matrix(11,0,0,11,178.2,612.6)" />
<use xlink:href="#f0_9" transform="matrix(11,0,0,11,186.6,612.6)" />
<use xlink:href="#f0_o" transform="matrix(11,0,0,11,195,612.6)" />
<use xlink:href="#f1_g" transform="matrix(12,0,0,12,442.4,636.2)" />
<use xlink:href="#f1_6" transform="matrix(12,0,0,12,448.3,636.2)" />
<use xlink:href="#f1_a" transform="matrix(12,0,0,12,460.2,636.2)" />
<use xlink:href="#f1_9" transform="matrix(12,0,0,12,472.2,636.2)" />
<use xlink:href="#f1_n" transform="matrix(12,0,0,12,477.2,636.2)" />
<use xlink:href="#f1_e" transform="matrix(12,0,0,12,496,636.2)" />
<use xlink:href="#f1_9" transform="matrix(12,0,0,12,508.3,636.2)" />
<use xlink:href="#f1_6" transform="matrix(12,0,0,12,513.3,636.2)" />
<use xlink:href="#f0_4" transform="matrix(11,0,0,11,137.7,634.8)" />
<use xlink:href="#f0_j" transform="matrix(11,0,0,11,147.9,634.8)" />
<use xlink:href="#f0_10" transform="matrix(11,0,0,11,156.9,634.8)" />
<use xlink:href="#f0_l" transform="matrix(11,0,0,11,165.1,634.8)" />
<use xlink:href="#f0_10" transform="matrix(11,0,0,11,172.6,634.8)" />
<use xlink:href="#f0_l" transform="matrix(11,0,0,11,181,634.8)" />
<use xlink:href="#f0_o" transform="matrix(11,0,0,11,188.5,634.8)" />
<use xlink:href="#f1_g" transform="matrix(12,0,0,12,426.6,658.3)" />
<use xlink:href="#f1_j" transform="matrix(12,0,0,12,432.4,658.3)" />
<use xlink:href="#f1_3" transform="matrix(12,0,0,12,444.6,658.3)" />
<use xlink:href="#f1_7" transform="matrix(12,0,0,12,448.7,658.3)" />
<use xlink:href="#f1_9" transform="matrix(12,0,0,12,459.1,658.3)" />
<use xlink:href="#f1_k" transform="matrix(12,0,0,12,464.1,658.3)" />
<use xlink:href="#f1_9" transform="matrix(12,0,0,12,481.4,658.3)" />
<use xlink:href="#f1_l" transform="matrix(12,0,0,12,486.4,658.3)" />
<use xlink:href="#f1_f" transform="matrix(12,0,0,12,493.7,658.3)" />
<use xlink:href="#f1_l" transform="matrix(12,0,0,12,505.6,658.3)" />
<use xlink:href="#f1_e" transform="matrix(12,0,0,12,513,658.3)" />
<use xlink:href="#f0_11" transform="matrix(11,0,0,11,137.7,656.9)" />
<use xlink:href="#f0_9" transform="matrix(11,0,0,11,149.7,656.9)" />
<use xlink:href="#f0_q" transform="matrix(11,0,0,11,158.1,656.9)" />
<use xlink:href="#f0_9" transform="matrix(11,0,0,11,164.7,656.9)" />
<use xlink:href="#f0_d" transform="matrix(11,0,0,11,173.1,656.9)" />
<use xlink:href="#f0_r" transform="matrix(11,0,0,11,177.8,656.9)" />
<use xlink:href="#f0_9" transform="matrix(11,0,0,11,183.4,656.9)" />
<use xlink:href="#f0_q" transform="matrix(11,0,0,11,191.8,656.9)" />
<use xlink:href="#f0_q" transform="matrix(11,0,0,11,202.5,656.9)" />
<use xlink:href="#f0_y" transform="matrix(11,0,0,11,209.1,656.9)" />
<use xlink:href="#f0_10" transform="matrix(11,0,0,11,217.5,656.9)" />
<use xlink:href="#f0_7" transform="matrix(11,0,0,11,225.9,656.9)" />
<use xlink:href="#f0_a" transform="matrix(11,0,0,11,230.5,656.9)" />
<use xlink:href="#f0_9" transform="matrix(11,0,0,11,243.6,656.9)" />
<use xlink:href="#f0_q" transform="matrix(11,0,0,11,252,656.9)" />
<use xlink:href="#f0_o" transform="matrix(11,0,0,11,258.4,656.9)" />
<use xlink:href="#f1_g" transform="matrix(12,0,0,12,443.4,680.5)" />
<use xlink:href="#f1_6" transform="matrix(12,0,0,12,449.2,680.5)" />
<use xlink:href="#f1_a" transform="matrix(12,0,0,12,461.1,680.5)" />
<use xlink:href="#f1_9" transform="matrix(12,0,0,12,473.1,680.5)" />
<use xlink:href="#f1_n" transform="matrix(12,0,0,12,478.2,680.5)" />
<use xlink:href="#f1_e" transform="matrix(12,0,0,12,496.9,680.5)" />
<use xlink:href="#f1_3" transform="matrix(12,0,0,12,509.2,680.5)" />
<use xlink:href="#f1_6" transform="matrix(12,0,0,12,513.3,680.5)" />
<use xlink:href="#f0_4" transform="matrix(11,0,0,11,137.7,679.1)" />
<use xlink:href="#f0_j" transform="matrix(11,0,0,11,147.9,679.1)" />
<use xlink:href="#f0_j" transform="matrix(11,0,0,11,152.6,679.1)" />
<use xlink:href="#f0_b" transform="matrix(11,0,0,11,157.2,679.1)" />
<use xlink:href="#f0_10" transform="matrix(11,0,0,11,168.9,679.1)" />
<use xlink:href="#f0_l" transform="matrix(11,0,0,11,177.3,679.1)" />
<use xlink:href="#f0_10" transform="matrix(11,0,0,11,184.8,679.1)" />
<use xlink:href="#f0_l" transform="matrix(11,0,0,11,193.2,679.1)" />
<use xlink:href="#f0_o" transform="matrix(11,0,0,11,200.5,679.1)" />
<use xlink:href="#f1_g" transform="matrix(12,0,0,12,442.3,702.6)" />
<use xlink:href="#f1_a" transform="matrix(12,0,0,12,448.1,702.6)" />
<use xlink:href="#f1_9" transform="matrix(12,0,0,12,460.1,702.6)" />
<use xlink:href="#f1_h" transform="matrix(12,0,0,12,465.2,702.6)" />
<use xlink:href="#f1_k" transform="matrix(12,0,0,12,475.1,702.6)" />
<use xlink:href="#f1_9" transform="matrix(12,0,0,12,486.6,702.6)" />
<use xlink:href="#f1_q" transform="matrix(12,0,0,12,491.6,702.6)" />
<use xlink:href="#f1_r" transform="matrix(12,0,0,12,508.3,702.6)" />
<use xlink:href="#f1_6" transform="matrix(12,0,0,12,513.3,702.6)" />
<use xlink:href="#f0_4" transform="matrix(11,0,0,11,137.7,701.3)" />
<use xlink:href="#f0_j" transform="matrix(11,0,0,11,147.9,701.3)" />
<use xlink:href="#f0_j" transform="matrix(11,0,0,11,152.6,701.3)" />
<use xlink:href="#f0_b" transform="matrix(11,0,0,11,157.2,701.3)" />
<use xlink:href="#f0_q" transform="matrix(11,0,0,11,164.7,701.3)" />
<use xlink:href="#f0_8" transform="matrix(11,0,0,11,175.5,701.3)" />
<use xlink:href="#f0_b" transform="matrix(11,0,0,11,182.8,701.3)" />
<use xlink:href="#f0_a" transform="matrix(11,0,0,11,190.3,701.3)" />
<use xlink:href="#f0_7" transform="matrix(11,0,0,11,203.4,701.3)" />
<use xlink:href="#f0_p" transform="matrix(11,0,0,11,208.1,701.3)" />
<use xlink:href="#f0_b" transform="matrix(11,0,0,11,216.4,701.3)" />
<use xlink:href="#f0_p" transform="matrix(11,0,0,11,223.8,701.3)" />
<use xlink:href="#f0_o" transform="matrix(11,0,0,11,232.2,701.3)" />
<use xlink:href="#f1_g" transform="matrix(12,0,0,12,426.6,724.8)" />
<use xlink:href="#f1_j" transform="matrix(12,0,0,12,432.4,724.8)" />
<use xlink:href="#f1_3" transform="matrix(12,0,0,12,444.6,724.8)" />
<use xlink:href="#f1_7" transform="matrix(12,0,0,12,448.7,724.8)" />
<use xlink:href="#f1_9" transform="matrix(12,0,0,12,459.1,724.8)" />
<use xlink:href="#f1_k" transform="matrix(12,0,0,12,464.1,724.8)" />
<use xlink:href="#f1_9" transform="matrix(12,0,0,12,481.4,724.8)" />
<use xlink:href="#f1_l" transform="matrix(12,0,0,12,486.4,724.8)" />
<use xlink:href="#f1_f" transform="matrix(12,0,0,12,493.7,724.8)" />
<use xlink:href="#f1_l" transform="matrix(12,0,0,12,505.6,724.8)" />
<use xlink:href="#f1_e" transform="matrix(12,0,0,12,513,724.8)" />
<use xlink:href="#f0_11" transform="matrix(11,0,0,11,137.7,723.4)" />
<use xlink:href="#f0_9" transform="matrix(11,0,0,11,149.7,723.4)" />
<use xlink:href="#f0_q" transform="matrix(11,0,0,11,158.1,723.4)" />
<use xlink:href="#f0_9" transform="matrix(11,0,0,11,164.7,723.4)" />
<use xlink:href="#f0_d" transform="matrix(11,0,0,11,173.1,723.4)" />
<use xlink:href="#f0_r" transform="matrix(11,0,0,11,177.8,723.4)" />
<use xlink:href="#f0_9" transform="matrix(11,0,0,11,183.4,723.4)" />
<use xlink:href="#f0_q" transform="matrix(11,0,0,11,191.8,723.4)" />
<use xlink:href="#f0_q" transform="matrix(11,0,0,11,202.5,723.4)" />
<use xlink:href="#f0_y" transform="matrix(11,0,0,11,209.1,723.4)" />
<use xlink:href="#f0_10" transform="matrix(11,0,0,11,217.5,723.4)" />
<use xlink:href="#f0_7" transform="matrix(11,0,0,11,225.9,723.4)" />
<use xlink:href="#f0_a" transform="matrix(11,0,0,11,230.5,723.4)" />
<use xlink:href="#f0_9" transform="matrix(11,0,0,11,243.6,723.4)" />
<use xlink:href="#f0_q" transform="matrix(11,0,0,11,252,723.4)" />
<use xlink:href="#f0_o" transform="matrix(11,0,0,11,258.4,723.4)" />
<use xlink:href="#f1_g" transform="matrix(12,0,0,12,429.9,746.9)" />
<use xlink:href="#f1_a" transform="matrix(12,0,0,12,435.7,746.9)" />
<use xlink:href="#f1_9" transform="matrix(12,0,0,12,447.8,746.9)" />
<use xlink:href="#f1_h" transform="matrix(12,0,0,12,452.8,746.9)" />
<use xlink:href="#f1_k" transform="matrix(12,0,0,12,462.7,746.9)" />
<use xlink:href="#f1_9" transform="matrix(12,0,0,12,474.2,746.9)" />
<use xlink:href="#f1_q" transform="matrix(12,0,0,12,479.2,746.9)" />
<use xlink:href="#f1_r" transform="matrix(12,0,0,12,495.9,746.9)" />
<use xlink:href="#f1_a" transform="matrix(12,0,0,12,500.9,746.9)" />
<use xlink:href="#f1_e" transform="matrix(12,0,0,12,512.9,746.9)" />
<use xlink:href="#f0_m" transform="matrix(11,0,0,11,137.7,745.6)" />
<use xlink:href="#f0_q" transform="matrix(11,0,0,11,149.7,745.6)" />
<use xlink:href="#f0_d" transform="matrix(11,0,0,11,156.3,745.6)" />
<use xlink:href="#f0_l" transform="matrix(11,0,0,11,161,745.6)" />
<use xlink:href="#f0_n" transform="matrix(11,0,0,11,168.5,745.6)" />
<use xlink:href="#f0_l" transform="matrix(11,0,0,11,176.9,745.6)" />
<use xlink:href="#f0_q" transform="matrix(11,0,0,11,184.3,745.6)" />
<use xlink:href="#f0_8" transform="matrix(11,0,0,11,195,745.6)" />
<use xlink:href="#f0_b" transform="matrix(11,0,0,11,202.5,745.6)" />
<use xlink:href="#f0_a" transform="matrix(11,0,0,11,209.8,745.6)" />
<use xlink:href="#f0_7" transform="matrix(11,0,0,11,222.9,745.6)" />
<use xlink:href="#f0_p" transform="matrix(11,0,0,11,227.6,745.6)" />
<use xlink:href="#f0_b" transform="matrix(11,0,0,11,236,745.6)" />
<use xlink:href="#f0_p" transform="matrix(11,0,0,11,243.5,745.6)" />
<use xlink:href="#f0_o" transform="matrix(11,0,0,11,251.7,745.6)" />
<use xlink:href="#f1_g" transform="matrix(12,0,0,12,434,769.1)" />
<use xlink:href="#f1_j" transform="matrix(12,0,0,12,439.9,769.1)" />
<use xlink:href="#f1_3" transform="matrix(12,0,0,12,452.1,769.1)" />
<use xlink:href="#f1_7" transform="matrix(12,0,0,12,456.2,769.1)" />
<use xlink:href="#f1_9" transform="matrix(12,0,0,12,466.6,769.1)" />
<use xlink:href="#f1_k" transform="matrix(12,0,0,12,471.5,769.1)" />
<use xlink:href="#f1_j" transform="matrix(12,0,0,12,488.7,769.1)" />
<use xlink:href="#f1_a" transform="matrix(12,0,0,12,500.9,769.1)" />
<use xlink:href="#f1_e" transform="matrix(12,0,0,12,513,769.1)" />
<use xlink:href="#f0_m" transform="matrix(11,0,0,11,137.7,767.7)" />
<use xlink:href="#f0_q" transform="matrix(11,0,0,11,149.7,767.7)" />
<use xlink:href="#f0_d" transform="matrix(11,0,0,11,156.3,767.7)" />
<use xlink:href="#f0_l" transform="matrix(11,0,0,11,161,767.7)" />
<use xlink:href="#f0_n" transform="matrix(11,0,0,11,168.5,767.7)" />
<use xlink:href="#f0_l" transform="matrix(11,0,0,11,176.9,767.7)" />
<use xlink:href="#f0_q" transform="matrix(11,0,0,11,184.3,767.7)" />
<use xlink:href="#f0_q" transform="matrix(11,0,0,11,195,767.7)" />
<use xlink:href="#f0_y" transform="matrix(11,0,0,11,201.5,767.7)" />
<use xlink:href="#f0_10" transform="matrix(11,0,0,11,210,767.7)" />
<use xlink:href="#f0_l" transform="matrix(11,0,0,11,218.4,767.7)" />
<use xlink:href="#f0_p" transform="matrix(11,0,0,11,225.8,767.7)" />
<use xlink:href="#f0_o" transform="matrix(11,0,0,11,234.1,767.7)" />
<use xlink:href="#f1_g" transform="matrix(12,0,0,12,430.8,791.2)" />
<use xlink:href="#f1_j" transform="matrix(12,0,0,12,436.6,791.2)" />
<use xlink:href="#f1_3" transform="matrix(12,0,0,12,448.9,791.2)" />
<use xlink:href="#f1_a" transform="matrix(12,0,0,12,453,791.2)" />
<use xlink:href="#f1_9" transform="matrix(12,0,0,12,465,791.2)" />
<use xlink:href="#f1_n" transform="matrix(12,0,0,12,469.9,791.2)" />
<use xlink:href="#f1_j" transform="matrix(12,0,0,12,488.7,791.2)" />
<use xlink:href="#f1_a" transform="matrix(12,0,0,12,500.9,791.2)" />
<use xlink:href="#f1_e" transform="matrix(12,0,0,12,512.9,791.2)" />
<use xlink:href="#f0_m" transform="matrix(11,0,0,11,137.7,789.9)" />
<use xlink:href="#f0_q" transform="matrix(11,0,0,11,149.7,789.9)" />
<use xlink:href="#f0_d" transform="matrix(11,0,0,11,156.3,789.9)" />
<use xlink:href="#f0_l" transform="matrix(11,0,0,11,161,789.9)" />
<use xlink:href="#f0_n" transform="matrix(11,0,0,11,168.5,789.9)" />
<use xlink:href="#f0_l" transform="matrix(11,0,0,11,176.9,789.9)" />
<use xlink:href="#f0_q" transform="matrix(11,0,0,11,184.3,789.9)" />
<use xlink:href="#f0_10" transform="matrix(11,0,0,11,195,789.9)" />
<use xlink:href="#f0_l" transform="matrix(11,0,0,11,203.4,789.9)" />
<use xlink:href="#f0_10" transform="matrix(11,0,0,11,210.9,789.9)" />
<use xlink:href="#f0_l" transform="matrix(11,0,0,11,219.3,789.9)" />
<use xlink:href="#f0_p" transform="matrix(11,0,0,11,226.7,789.9)" />
<use xlink:href="#f0_o" transform="matrix(11,0,0,11,235,789.9)" />
<use xlink:href="#f1_g" transform="matrix(12,0,0,12,436,813.4)" />
<use xlink:href="#f1_h" transform="matrix(12,0,0,12,441.8,813.4)" />
<use xlink:href="#f1_k" transform="matrix(12,0,0,12,451.9,813.4)" />
<use xlink:href="#f1_9" transform="matrix(12,0,0,12,463.4,813.4)" />
<use xlink:href="#f1_q" transform="matrix(12,0,0,12,468.3,813.4)" />
<use xlink:href="#f1_9" transform="matrix(12,0,0,12,485.1,813.4)" />
<use xlink:href="#f1_h" transform="matrix(12,0,0,12,489.9,813.4)" />
<use xlink:href="#f1_9" transform="matrix(12,0,0,12,500,813.4)" />
<use xlink:href="#f1_2" transform="matrix(12,0,0,12,505,813.4)" />
<use xlink:href="#f1_4" transform="matrix(12,0,0,12,515.6,813.4)" />
<use xlink:href="#f0_m" transform="matrix(11,0,0,11,137.7,812)" />
<use xlink:href="#f0_q" transform="matrix(11,0,0,11,149.7,812)" />
<use xlink:href="#f0_d" transform="matrix(11,0,0,11,156.3,812)" />
<use xlink:href="#f0_l" transform="matrix(11,0,0,11,161,812)" />
<use xlink:href="#f0_n" transform="matrix(11,0,0,11,168.5,812)" />
<use xlink:href="#f0_8" transform="matrix(11,0,0,11,181,812)" />
<use xlink:href="#f0_b" transform="matrix(11,0,0,11,188.4,812)" />
<use xlink:href="#f0_a" transform="matrix(11,0,0,11,195.9,812)" />
<use xlink:href="#f0_7" transform="matrix(11,0,0,11,208.9,812)" />
<use xlink:href="#f0_p" transform="matrix(11,0,0,11,213.6,812)" />
<use xlink:href="#f0_b" transform="matrix(11,0,0,11,222,812)" />
<use xlink:href="#f0_o" transform="matrix(11,0,0,11,229.5,812)" />
<use xlink:href="#f1_g" transform="matrix(12,0,0,12,432.4,835.5)" />
<use xlink:href="#f1_6" transform="matrix(12,0,0,12,438.2,835.5)" />
<use xlink:href="#f1_7" transform="matrix(12,0,0,12,450.1,835.5)" />
<use xlink:href="#f1_9" transform="matrix(12,0,0,12,460.5,835.5)" />
<use xlink:href="#f1_k" transform="matrix(12,0,0,12,465.5,835.5)" />
<use xlink:href="#f1_6" transform="matrix(12,0,0,12,482.9,835.5)" />
<use xlink:href="#f1_12" transform="matrix(12,0,0,12,494.8,835.5)" />
<use xlink:href="#f1_a" transform="matrix(12,0,0,12,500.9,835.5)" />
<use xlink:href="#f1_e" transform="matrix(12,0,0,12,513,835.5)" />
<use xlink:href="#f0_18" transform="matrix(11,0,0,11,137.7,834.2)" />
<use xlink:href="#f0_e" transform="matrix(11,0,0,11,147.9,834.2)" />
<use xlink:href="#f0_q" transform="matrix(11,0,0,11,160.6,834.2)" />
<use xlink:href="#f0_y" transform="matrix(11,0,0,11,167.1,834.2)" />
<use xlink:href="#f0_10" transform="matrix(11,0,0,11,175.5,834.2)" />
<use xlink:href="#f0_l" transform="matrix(11,0,0,11,183.9,834.2)" />
<use xlink:href="#f0_q" transform="matrix(11,0,0,11,191.2,834.2)" />
<use xlink:href="#f0_o" transform="matrix(11,0,0,11,197.8,834.2)" />
<use xlink:href="#f1_g" transform="matrix(12,0,0,12,435.9,857.7)" />
<use xlink:href="#f1_j" transform="matrix(12,0,0,12,441.7,857.7)" />
<use xlink:href="#f1_3" transform="matrix(12,0,0,12,453.9,857.7)" />
<use xlink:href="#f1_h" transform="matrix(12,0,0,12,458,857.7)" />
<use xlink:href="#f1_k" transform="matrix(12,0,0,12,467.9,857.7)" />
<use xlink:href="#f1_9" transform="matrix(12,0,0,12,479.4,857.7)" />
<use xlink:href="#f1_q" transform="matrix(12,0,0,12,484.4,857.7)" />
<use xlink:href="#f1_j" transform="matrix(12,0,0,12,501.1,857.7)" />
<use xlink:href="#f1_6" transform="matrix(12,0,0,12,513.3,857.7)" />
<use xlink:href="#f0_4" transform="matrix(11,0,0,11,137.7,856.3)" />
<use xlink:href="#f0_j" transform="matrix(11,0,0,11,147.9,856.3)" />
<use xlink:href="#f0_j" transform="matrix(11,0,0,11,152.6,856.3)" />
<use xlink:href="#f0_9" transform="matrix(11,0,0,11,157.3,856.3)" />
<use xlink:href="#f0_q" transform="matrix(11,0,0,11,165.6,856.3)" />
<use xlink:href="#f0_8" transform="matrix(11,0,0,11,176.4,856.3)" />
<use xlink:href="#f0_b" transform="matrix(11,0,0,11,183.9,856.3)" />
<use xlink:href="#f0_a" transform="matrix(11,0,0,11,191.2,856.3)" />
<use xlink:href="#f0_7" transform="matrix(11,0,0,11,204.3,856.3)" />
<use xlink:href="#f0_p" transform="matrix(11,0,0,11,209,856.3)" />
<use xlink:href="#f0_b" transform="matrix(11,0,0,11,217.4,856.3)" />
<use xlink:href="#f0_p" transform="matrix(11,0,0,11,224.9,856.3)" />
<use xlink:href="#f0_o" transform="matrix(11,0,0,11,233.2,856.3)" />
<use xlink:href="#f1_g" transform="matrix(12,0,0,12,451.2,879.8)" />
<use xlink:href="#f1_6" transform="matrix(12,0,0,12,457,879.8)" />
<use xlink:href="#f1_7" transform="matrix(12,0,0,12,468.9,879.8)" />
<use xlink:href="#f1_9" transform="matrix(12,0,0,12,479.3,879.8)" />
<use xlink:href="#f1_k" transform="matrix(12,0,0,12,484.3,879.8)" />
<use xlink:href="#f1_3" transform="matrix(12,0,0,12,501.6,879.8)" />
<use xlink:href="#f1_l" transform="matrix(12,0,0,12,505.7,879.8)" />
<use xlink:href="#f1_e" transform="matrix(12,0,0,12,513,879.8)" />
<use xlink:href="#f0_z" transform="matrix(11,0,0,11,137.7,878.5)" />
<use xlink:href="#f0_9" transform="matrix(11,0,0,11,149.7,878.5)" />
<use xlink:href="#f0_q" transform="matrix(11,0,0,11,162.4,878.5)" />
<use xlink:href="#f0_y" transform="matrix(11,0,0,11,168.9,878.5)" />
<use xlink:href="#f0_10" transform="matrix(11,0,0,11,177.3,878.5)" />
<use xlink:href="#f0_9" transform="matrix(11,0,0,11,185.7,878.5)" />
<use xlink:href="#f0_o" transform="matrix(11,0,0,11,194.1,878.5)" />
<use xlink:href="#f1_g" transform="matrix(12,0,0,12,422.7,902)" />
<use xlink:href="#f1_a" transform="matrix(12,0,0,12,428.5,902)" />
<use xlink:href="#f1_9" transform="matrix(12,0,0,12,440.5,902)" />
<use xlink:href="#f1_a" transform="matrix(12,0,0,12,445.5,902)" />
<use xlink:href="#f1_9" transform="matrix(12,0,0,12,457.5,902)" />
<use xlink:href="#f1_n" transform="matrix(12,0,0,12,462.6,902)" />
<use xlink:href="#f1_9" transform="matrix(12,0,0,12,481.3,902)" />
<use xlink:href="#f1_l" transform="matrix(12,0,0,12,486.4,902)" />
<use xlink:href="#f1_f" transform="matrix(12,0,0,12,493.7,902)" />
<use xlink:href="#f1_l" transform="matrix(12,0,0,12,505.6,902)" />
<use xlink:href="#f1_e" transform="matrix(12,0,0,12,513,902)" />
<use xlink:href="#f0_11" transform="matrix(11,0,0,11,137.7,900.6)" />
<use xlink:href="#f0_9" transform="matrix(11,0,0,11,149.7,900.6)" />
<use xlink:href="#f0_q" transform="matrix(11,0,0,11,158.1,900.6)" />
<use xlink:href="#f0_9" transform="matrix(11,0,0,11,164.7,900.6)" />
<use xlink:href="#f0_d" transform="matrix(11,0,0,11,173.1,900.6)" />
<use xlink:href="#f0_r" transform="matrix(11,0,0,11,177.8,900.6)" />
<use xlink:href="#f0_b" transform="matrix(11,0,0,11,183.4,900.6)" />
<use xlink:href="#f0_q" transform="matrix(11,0,0,11,190.8,900.6)" />
<use xlink:href="#f0_10" transform="matrix(11,0,0,11,201.6,900.6)" />
<use xlink:href="#f0_l" transform="matrix(11,0,0,11,210,900.6)" />
<use xlink:href="#f0_10" transform="matrix(11,0,0,11,217.4,900.6)" />
<use xlink:href="#f0_l" transform="matrix(11,0,0,11,225.8,900.6)" />
<use xlink:href="#f0_a" transform="matrix(11,0,0,11,233.2,900.6)" />
<use xlink:href="#f0_9" transform="matrix(11,0,0,11,246.3,900.6)" />
<use xlink:href="#f0_q" transform="matrix(11,0,0,11,254.7,900.6)" />
<use xlink:href="#f0_o" transform="matrix(11,0,0,11,261.3,900.6)" />
<use xlink:href="#f1_g" transform="matrix(12,0,0,12,423.5,924.2)" />
<use xlink:href="#f1_j" transform="matrix(12,0,0,12,429.3,924.2)" />
<use xlink:href="#f1_3" transform="matrix(12,0,0,12,441.4,924.2)" />
<use xlink:href="#f1_a" transform="matrix(12,0,0,12,445.5,924.2)" />
<use xlink:href="#f1_9" transform="matrix(12,0,0,12,457.5,924.2)" />
<use xlink:href="#f1_n" transform="matrix(12,0,0,12,462.5,924.2)" />
<use xlink:href="#f1_9" transform="matrix(12,0,0,12,481.3,924.2)" />
<use xlink:href="#f1_l" transform="matrix(12,0,0,12,486.4,924.2)" />
<use xlink:href="#f1_f" transform="matrix(12,0,0,12,493.7,924.2)" />
<use xlink:href="#f1_l" transform="matrix(12,0,0,12,505.6,924.2)" />
<use xlink:href="#f1_e" transform="matrix(12,0,0,12,512.9,924.2)" />
<use xlink:href="#f0_11" transform="matrix(11,0,0,11,137.7,922.8)" />
<use xlink:href="#f0_9" transform="matrix(11,0,0,11,149.7,922.8)" />
<use xlink:href="#f0_q" transform="matrix(11,0,0,11,158.1,922.8)" />
<use xlink:href="#f0_9" transform="matrix(11,0,0,11,164.7,922.8)" />
<use xlink:href="#f0_d" transform="matrix(11,0,0,11,173.1,922.8)" />
<use xlink:href="#f0_r" transform="matrix(11,0,0,11,177.8,922.8)" />
<use xlink:href="#f0_9" transform="matrix(11,0,0,11,183.4,922.8)" />
<use xlink:href="#f0_q" transform="matrix(11,0,0,11,191.8,922.8)" />
<use xlink:href="#f0_10" transform="matrix(11,0,0,11,202.5,922.8)" />
<use xlink:href="#f0_l" transform="matrix(11,0,0,11,210.9,922.8)" />
<use xlink:href="#f0_10" transform="matrix(11,0,0,11,218.4,922.8)" />
<use xlink:href="#f0_l" transform="matrix(11,0,0,11,226.8,922.8)" />
<use xlink:href="#f0_a" transform="matrix(11,0,0,11,234.1,922.8)" />
<use xlink:href="#f0_9" transform="matrix(11,0,0,11,247.2,922.8)" />
<use xlink:href="#f0_q" transform="matrix(11,0,0,11,255.6,922.8)" />
<use xlink:href="#f0_o" transform="matrix(11,0,0,11,262.2,922.8)" />
<use xlink:href="#f1_g" transform="matrix(12,0,0,12,452.5,946.3)" />
<use xlink:href="#f1_h" transform="matrix(12,0,0,12,458.3,946.3)" />
<use xlink:href="#f1_k" transform="matrix(12,0,0,12,468.4,946.3)" />
<use xlink:href="#f1_9" transform="matrix(12,0,0,12,479.9,946.3)" />
<use xlink:href="#f1_q" transform="matrix(12,0,0,12,484.9,946.3)" />
<use xlink:href="#f1_3" transform="matrix(12,0,0,12,501.6,946.3)" />
<use xlink:href="#f1_l" transform="matrix(12,0,0,12,505.7,946.3)" />
<use xlink:href="#f1_e" transform="matrix(12,0,0,12,513,946.3)" />
<use xlink:href="#f0_z" transform="matrix(11,0,0,11,137.7,944.9)" />
<use xlink:href="#f0_9" transform="matrix(11,0,0,11,149.7,944.9)" />
<use xlink:href="#f0_8" transform="matrix(11,0,0,11,162.4,944.9)" />
<use xlink:href="#f0_b" transform="matrix(11,0,0,11,169.8,944.9)" />
<use xlink:href="#f0_a" transform="matrix(11,0,0,11,177.2,944.9)" />
<use xlink:href="#f0_7" transform="matrix(11,0,0,11,190.3,944.9)" />
<use xlink:href="#f0_p" transform="matrix(11,0,0,11,195,944.9)" />
<use xlink:href="#f0_9" transform="matrix(11,0,0,11,203.4,944.9)" />
<use xlink:href="#f0_o" transform="matrix(11,0,0,11,211.8,944.9)" />
</g>
<g fill="#0000FF" >
<use xlink:href="#f1_c" transform="matrix(11.5,0,0,11.5,674.1,967.8)" />
<use xlink:href="#f1_5" transform="matrix(11.5,0,0,11.5,686.6,967.8)" />
<use xlink:href="#f1_d" transform="matrix(11.5,0,0,11.5,696.5,967.8)" />
<use xlink:href="#f1_7" transform="matrix(11.5,0,0,11.5,707.5,967.8)" />
<use xlink:href="#f1_6" transform="matrix(11.5,0,0,11.5,723,967.8)" />
<use xlink:href="#f1_5" transform="matrix(11.5,0,0,11.5,734.5,967.8)" />
<use xlink:href="#f1_b" transform="matrix(11.5,0,0,11.5,744.4,967.8)" />
<use xlink:href="#f1_f" transform="matrix(11.5,0,0,11.5,750.5,967.8)" />
<use xlink:href="#f1_2" transform="matrix(11.5,0,0,11.5,761.9,967.8)" />
</g>
</g>
<path d="M674.1,969.5h98" class="g2_18" />
<g clip-path="url(#c0_18)">
<g fill="#000000" >
<use xlink:href="#f2_b" transform="matrix(12,0,0,12,723.8,1097.7)" />
<use xlink:href="#f2_h" transform="matrix(12,0,0,12,735,1097.7)" />
<use xlink:href="#f2_f" transform="matrix(12,0,0,12,740.3,1097.7)" />
<use xlink:href="#f2_4" transform="matrix(12,0,0,12,748.6,1097.7)" />
<use xlink:href="#f2_7" transform="matrix(12,0,0,12,759.6,1097.7)" />
<use xlink:href="#f2_6" transform="matrix(12,0,0,12,704.6,1097.7)" />
</g>
</g>
<path d="M128.6,1102.5H780.3m-651.7,22.2H780.3m-651.7,22.1H780.3M128.6,1169H780.3M128.9,1102.1v67.3m325.5,-67.3v67.3m325.5,-67.3v67.3" class="g1_18" />
<g clip-path="url(#c0_18)">
<g fill="#000000" >
<use xlink:href="#f1_g" transform="matrix(12,0,0,12,661.1,1119.9)" />
<use xlink:href="#f1_6" transform="matrix(12,0,0,12,666.9,1119.9)" />
<use xlink:href="#f1_5" transform="matrix(12,0,0,12,678.8,1119.9)" />
<use xlink:href="#f1_9" transform="matrix(12,0,0,12,689,1119.9)" />
<use xlink:href="#f1_m" transform="matrix(12,0,0,12,694.1,1119.9)" />
<use xlink:href="#f1_3" transform="matrix(12,0,0,12,712.4,1119.9)" />
<use xlink:href="#f1_f" transform="matrix(12,0,0,12,716.5,1119.9)" />
<use xlink:href="#f1_a" transform="matrix(12,0,0,12,734.3,1119.9)" />
<use xlink:href="#f1_3" transform="matrix(12,0,0,12,746.4,1119.9)" />
<use xlink:href="#f1_2" transform="matrix(12,0,0,12,750.5,1119.9)" />
<use xlink:href="#f1_2" transform="matrix(12,0,0,12,761,1119.9)" />
<use xlink:href="#f0_4" transform="matrix(11,0,0,11,137.7,1118.5)" />
<use xlink:href="#f0_p" transform="matrix(11,0,0,11,147.9,1118.5)" />
<use xlink:href="#f0_j" transform="matrix(11,0,0,11,160.6,1118.5)" />
<use xlink:href="#f0_b" transform="matrix(11,0,0,11,165.1,1118.5)" />
<use xlink:href="#f0_8" transform="matrix(11,0,0,11,176.9,1118.5)" />
<use xlink:href="#f0_b" transform="matrix(11,0,0,11,184.3,1118.5)" />
<use xlink:href="#f0_q" transform="matrix(11,0,0,11,191.7,1118.5)" />
<use xlink:href="#f0_b" transform="matrix(11,0,0,11,198.2,1118.5)" />
<use xlink:href="#f0_6" transform="matrix(11,0,0,11,210,1118.5)" />
<use xlink:href="#f0_7" transform="matrix(11,0,0,11,218.2,1118.5)" />
<use xlink:href="#f0_6" transform="matrix(11,0,0,11,222.9,1118.5)" />
<use xlink:href="#f0_l" transform="matrix(11,0,0,11,231.3,1118.5)" />
<use xlink:href="#f0_y" transform="matrix(11,0,0,11,243.1,1118.5)" />
<use xlink:href="#f0_p" transform="matrix(11,0,0,11,251.5,1118.5)" />
<use xlink:href="#f0_a" transform="matrix(11,0,0,11,264,1118.5)" />
<use xlink:href="#f0_b" transform="matrix(11,0,0,11,277.1,1118.5)" />
<use xlink:href="#f0_l" transform="matrix(11,0,0,11,284.4,1118.5)" />
<use xlink:href="#f0_q" transform="matrix(11,0,0,11,291.9,1118.5)" />
<use xlink:href="#f0_d" transform="matrix(11,0,0,11,298.4,1118.5)" />
<use xlink:href="#f0_r" transform="matrix(11,0,0,11,303,1118.5)" />
<use xlink:href="#f0_9" transform="matrix(11,0,0,11,308.7,1118.5)" />
<use xlink:href="#f0_o" transform="matrix(11,0,0,11,317.1,1118.5)" />
<use xlink:href="#f1_g" transform="matrix(12,0,0,12,607.8,1142)" />
<use xlink:href="#f1_r" transform="matrix(12,0,0,12,613.6,1142)" />
<use xlink:href="#f1_9" transform="matrix(12,0,0,12,618.6,1142)" />
<use xlink:href="#f1_7" transform="matrix(12,0,0,12,623.6,1142)" />
<use xlink:href="#f1_m" transform="matrix(12,0,0,12,634,1142)" />
<use xlink:href="#f1_2" transform="matrix(12,0,0,12,646.5,1142)" />
<use xlink:href="#f1_p" transform="matrix(12,0,0,12,662.9,1142)" />
<use xlink:href="#f1_c" transform="matrix(12,0,0,12,674.8,1142)" />
<use xlink:href="#f1_n" transform="matrix(12,0,0,12,687.7,1142)" />
<use xlink:href="#f1_o" transform="matrix(12,0,0,12,706.8,1142)" />
<use xlink:href="#f1_6" transform="matrix(12,0,0,12,712.6,1142)" />
<use xlink:href="#f1_n" transform="matrix(12,0,0,12,724.5,1142)" />
<use xlink:href="#f1_c" transform="matrix(12,0,0,12,737.5,1142)" />
<use xlink:href="#f1_2" transform="matrix(12,0,0,12,750.5,1142)" />
<use xlink:href="#f1_2" transform="matrix(12,0,0,12,761,1142)" />
<use xlink:href="#f0_12" transform="matrix(11,0,0,11,137.7,1140.6)" />
<use xlink:href="#f0_9" transform="matrix(11,0,0,11,147,1140.6)" />
<use xlink:href="#f0_r" transform="matrix(11,0,0,11,155.4,1140.6)" />
<use xlink:href="#f0_13" transform="matrix(11,0,0,11,165.3,1140.6)" />
<use xlink:href="#f0_b" transform="matrix(11,0,0,11,170.8,1140.6)" />
<use xlink:href="#f0_6" transform="matrix(11,0,0,11,178.2,1140.6)" />
<use xlink:href="#f0_9" transform="matrix(11,0,0,11,186.6,1140.6)" />
<use xlink:href="#f0_r" transform="matrix(11,0,0,11,195,1140.6)" />
<use xlink:href="#f0_v" transform="matrix(11,0,0,11,200.5,1140.6)" />
<use xlink:href="#f0_q" transform="matrix(11,0,0,11,209.1,1140.6)" />
<use xlink:href="#f0_7" transform="matrix(11,0,0,11,215.5,1140.6)" />
<use xlink:href="#f0_j" transform="matrix(11,0,0,11,220.2,1140.6)" />
<use xlink:href="#f0_l" transform="matrix(11,0,0,11,224.9,1140.6)" />
<use xlink:href="#f0_p" transform="matrix(11,0,0,11,232.4,1140.6)" />
<use xlink:href="#f0_8" transform="matrix(11,0,0,11,240.7,1140.6)" />
<use xlink:href="#f0_7" transform="matrix(11,0,0,11,248.1,1140.6)" />
<use xlink:href="#f0_9" transform="matrix(11,0,0,11,252.8,1140.6)" />
<use xlink:href="#f0_l" transform="matrix(11,0,0,11,265.5,1140.6)" />
<use xlink:href="#f0_p" transform="matrix(11,0,0,11,272.8,1140.6)" />
<use xlink:href="#f0_l" transform="matrix(11,0,0,11,285.5,1140.6)" />
<use xlink:href="#f0_j" transform="matrix(11,0,0,11,292.8,1140.6)" />
<use xlink:href="#f0_14" transform="matrix(11,0,0,11,301.8,1140.6)" />
<use xlink:href="#f0_9" transform="matrix(11,0,0,11,310.2,1140.6)" />
<use xlink:href="#f0_d" transform="matrix(11,0,0,11,318.5,1140.6)" />
<use xlink:href="#f0_l" transform="matrix(11,0,0,11,323.2,1140.6)" />
<use xlink:href="#f0_j" transform="matrix(11,0,0,11,330.7,1140.6)" />
<use xlink:href="#f0_o" transform="matrix(11,0,0,11,335.3,1140.6)" />
<use xlink:href="#f1_g" transform="matrix(12,0,0,12,678,1164.2)" />
<use xlink:href="#f1_j" transform="matrix(12,0,0,12,683.8,1164.2)" />
<use xlink:href="#f1_9" transform="matrix(12,0,0,12,696,1164.2)" />
<use xlink:href="#f1_3" transform="matrix(12,0,0,12,701.1,1164.2)" />
<use xlink:href="#f1_e" transform="matrix(12,0,0,12,705.2,1164.2)" />
<use xlink:href="#f1_6" transform="matrix(12,0,0,12,723.3,1164.2)" />
<use xlink:href="#f1_d" transform="matrix(12,0,0,12,735.3,1164.2)" />
<use xlink:href="#f1_c" transform="matrix(12,0,0,12,746.7,1164.2)" />
<use xlink:href="#f1_6" transform="matrix(12,0,0,12,759.7,1164.2)" />
<use xlink:href="#f0_4" transform="matrix(11,0,0,11,137.7,1162.8)" />
<use xlink:href="#f0_j" transform="matrix(11,0,0,11,147.9,1162.8)" />
<use xlink:href="#f0_8" transform="matrix(11,0,0,11,156.9,1162.8)" />
<use xlink:href="#f0_b" transform="matrix(11,0,0,11,164.2,1162.8)" />
<use xlink:href="#f0_13" transform="matrix(11,0,0,11,171.7,1162.8)" />
<use xlink:href="#f0_h" transform="matrix(11,0,0,11,177.3,1162.8)" />
<use xlink:href="#f0_l" transform="matrix(11,0,0,11,188.9,1162.8)" />
<use xlink:href="#f0_q" transform="matrix(11,0,0,11,196.3,1162.8)" />
<use xlink:href="#f0_14" transform="matrix(11,0,0,11,207,1162.8)" />
<use xlink:href="#f0_9" transform="matrix(11,0,0,11,215.4,1162.8)" />
<use xlink:href="#f0_r" transform="matrix(11,0,0,11,223.8,1162.8)" />
<use xlink:href="#f0_r" transform="matrix(11,0,0,11,229.4,1162.8)" />
<use xlink:href="#f0_7" transform="matrix(11,0,0,11,234.9,1162.8)" />
<use xlink:href="#f0_10" transform="matrix(11,0,0,11,239.7,1162.8)" />
<use xlink:href="#f0_j" transform="matrix(11,0,0,11,248.1,1162.8)" />
<use xlink:href="#f0_l" transform="matrix(11,0,0,11,252.8,1162.8)" />
<use xlink:href="#f0_o" transform="matrix(11,0,0,11,260.1,1162.8)" />
<use xlink:href="#f1_z" transform="matrix(11,0,0,11,137.5,1208.9)" />
<use xlink:href="#f1_1e" transform="matrix(11,0,0,11,148.2,1208.9)" />
</g>
</g>
<image preserveAspectRatio="none" x="0" y="660" width="109" height="85" xlink:href="img/1.png" />
<defs>
<path d="M360,-14L72,649L0,668v33H327V668L216,648L420,164L615,649L504,668v33H764V668L697,652L416,-14Z" 
id="f0_6"
transform="scale(0.001,-0.001)" />

<path d="M32,0V33L151,52V649L52,668v33H275V52L395,33V0ZM201,850c0,0,-32,0,-56,24c0,0,-24,24,-24,56c0,0,0,34,24,58c0,0,24,24,56,24c0,0,34,0,58,-24c0,0,24,-24,24,-58c0,0,0,-32,-24,-56c0,0,-24,-24,-58,-24Z" 
id="f0_7"
transform="scale(0.001,-0.001)" />

<path d="M495,413c0,0,0,133,-34,190c0,0,-34,57,-105,57c0,0,-78,0,-119,-63c0,0,-42,-62,-42,-184ZM374,-14c0,0,-163,0,-239,87c0,0,-75,88,-75,283c0,0,0,183,77,273c0,0,76,91,219,91c0,0,269,0,269,-306V353H194V340c0,0,0,-103,23,-160c0,0,22,-57,70,-87c0,0,47,-29,124,-29c0,0,40,0,96,6c0,0,55,7,91,15V43C598,43,562,20,500,3c0,0,-61,-17,-126,-17Z" 
id="f0_l"
transform="scale(0.001,-0.001)" />

<path d="M399,-14c0,0,-341,0,-341,370c0,0,0,175,87,269c0,0,87,95,249,95c0,0,101,0,220,-23V501H573L541,625c0,0,-62,35,-149,35c0,0,-200,0,-200,-304c0,0,0,-158,61,-225c0,0,61,-67,189,-67c0,0,109,0,189,24V43C631,43,595,16,530,1c0,0,-64,-15,-131,-15Z" 
id="f0_8"
transform="scale(0.001,-0.001)" />

<path d="M377,45c0,0,99,0,147,73c0,0,47,73,47,237c0,0,0,161,-47,233c0,0,-47,72,-147,72c0,0,-97,0,-141,-69c0,0,-44,-69,-44,-236c0,0,0,-169,45,-240c0,0,44,-70,140,-70Zm0,-59c0,0,-158,0,-238,94c0,0,-81,95,-81,274c0,0,0,178,81,272c0,0,80,94,244,94c0,0,160,0,241,-92c0,0,82,-92,82,-274c0,0,0,-368,-329,-368Z" 
id="f0_9"
transform="scale(0.001,-0.001)" />

<path d="M431,0V33L535,52V499c0,0,0,62,-32,96c0,0,-32,33,-95,33c0,0,-66,0,-163,-22V52L350,33V0H32V33l89,19V649L32,668v33H237l6,-57c0,0,56,32,119,54c0,0,62,22,110,22c0,0,52,0,95,-20c0,0,44,-19,66,-62c0,0,57,32,134,57c0,0,77,25,128,25c0,0,179,0,179,-207V52l90,-19V0H846V33L950,52V499c0,0,0,129,-119,129c0,0,-19,0,-45,-3c0,0,-26,-3,-52,-7c0,0,-25,-4,-49,-8c0,0,-23,-5,-39,-8c0,0,13,-41,13,-89V52L764,33V0Z" 
id="f0_a"
transform="scale(0.001,-0.001)" />

<path d="M284,67c0,0,51,0,88,12c0,0,37,12,74,30V358l-98,-3c0,0,-100,-4,-135,-39c0,0,-35,-35,-35,-117c0,0,0,-132,106,-132ZM233,-14c0,0,-179,0,-179,208c0,0,0,70,27,116c0,0,27,46,87,70c0,0,60,24,173,27l105,3V519c0,0,0,72,-26,107c0,0,-27,34,-82,34c0,0,-75,0,-137,-35L176,538H134V691c0,0,121,26,213,26c0,0,115,0,169,-47c0,0,54,-47,54,-144V52L657,33V0H465L451,70c0,0,-85,-84,-218,-84Z" 
id="f0_b"
transform="scale(0.001,-0.001)" />

<path d="M495,413c0,0,0,133,-34,190c0,0,-34,57,-105,57c0,0,-78,0,-119,-62c0,0,-42,-63,-42,-185ZM374,-14c0,0,-163,0,-239,87c0,0,-75,88,-75,283c0,0,0,183,77,274c0,0,76,90,219,90c0,0,269,0,269,-306V353H194V339c0,0,0,-103,23,-160c0,0,22,-57,70,-86c0,0,47,-30,124,-30c0,0,40,0,96,6c0,0,55,7,91,15V43C598,43,562,19,500,2c0,0,-61,-16,-126,-16ZM285,835v24l146,203H590v-27L326,835Z" 
id="f0_h"
transform="scale(0.001,-0.001)" />

<path d="M31,0V33L150,52v956L31,1026v34H274V52L394,33V0Z" 
id="f0_j"
transform="scale(0.001,-0.001)" />

<path d="M0,-14L351,1007h73L75,-14Z" 
id="f0_k"
transform="scale(0.001,-0.001)" />

<path d="M557,-14c0,0,-199,0,-298,89c0,0,-99,90,-99,255V941L32,960v40H432V960L304,941V341c0,0,0,-273,264,-273c0,0,144,0,220,68c0,0,77,68,77,202V941L730,960v40h341V960L943,941V344c0,0,0,-180,-99,-269c0,0,-99,-89,-287,-89Z" 
id="f0_m"
transform="scale(0.001,-0.001)" />

<path d="M383,64c0,0,85,0,152,28V645c0,0,-67,13,-152,13c0,0,-194,0,-194,-314c0,0,0,-141,48,-211c0,0,48,-69,146,-69ZM342,-14c0,0,-287,0,-287,358c0,0,0,184,82,280c0,0,81,96,239,96c0,0,81,0,163,-18c0,0,-4,25,-4,124v182l-118,18v34H659V52L745,33V0H548l-9,52c0,0,-84,-66,-197,-66Z" 
id="f0_n"
transform="scale(0.001,-0.001)" />

<path d="M191,-20c0,0,-39,0,-65,25c0,0,-25,27,-25,64c0,0,0,38,26,64c0,0,26,26,64,26c0,0,38,0,64,-26c0,0,26,-26,26,-64c0,0,0,-37,-25,-64c0,0,-26,-25,-65,-25Z" 
id="f0_o"
transform="scale(0.001,-0.001)" />

<path d="M278,-14c0,0,-52,0,-115,11c0,0,-63,10,-99,23V193H98L134,95c0,0,56,-50,146,-50c0,0,144,0,144,123c0,0,0,91,-114,130l-66,21c0,0,-75,25,-110,50c0,0,-34,26,-53,63c0,0,-18,36,-18,89c0,0,0,92,63,145c0,0,63,54,170,54c0,0,77,0,193,-23V544H454l-32,81c0,0,-39,35,-124,35c0,0,-61,0,-92,-30c0,0,-32,-30,-32,-80c0,0,0,-43,29,-72c0,0,28,-29,86,-48c0,0,110,-38,144,-55c0,0,33,-17,57,-42c0,0,23,-25,36,-57c0,0,13,-32,13,-79c0,0,0,-104,-66,-158c0,0,-66,-53,-195,-53Z" 
id="f0_q"
transform="scale(0.001,-0.001)" />

<path d="M439,0V33l93,19V500c0,0,0,62,-30,97c0,0,-31,36,-94,36c0,0,-67,0,-165,-22V52L338,33V0H35V33l84,19V649L35,668v33H235l7,-57c0,0,57,33,122,54c0,0,65,22,108,22c0,0,91,0,137,-53c0,0,47,-53,47,-154V52L741,33V0Z" 
id="f0_p"
transform="scale(0.001,-0.001)" />

<path d="M249,-14c0,0,-71,0,-107,42c0,0,-35,42,-35,119V639H15v33l93,29l76,159h47V701H391V639H231V161c0,0,0,-48,22,-73c0,0,22,-24,57,-24c0,0,44,0,106,12V26C416,26,389,8,340,-2c0,0,-49,-12,-91,-12Z" 
id="f0_d"
transform="scale(0.001,-0.001)" />

<path d="M31,0V33l88,19V649L31,668v33H235l7,-87c0,0,44,37,121,71c0,0,76,35,121,35h11V530H463l-43,82c0,0,-37,0,-88,-10c0,0,-52,-10,-89,-26V52L363,33V0Z" 
id="f0_r"
transform="scale(0.001,-0.001)" />

<path d="M156,-317V454l139,56V-317ZM505,0L806,729H139V835H967V753L650,0Z" 
id="f1_c"
transform="scale(0.001,-0.001)" />

<path d="M585,0V426c0,0,0,54,-8,98c0,0,-8,44,-27,83c0,0,-19,40,-49,66c0,0,-30,26,-77,41c0,0,-47,15,-108,15H66V836H315c0,0,94,0,166,-20c0,0,71,-20,116,-54c0,0,46,-35,75,-88c0,0,28,-52,40,-112c0,0,12,-60,12,-137V0Z" 
id="f1_5"
transform="scale(0.001,-0.001)" />

<path d="M139,0V106H400c0,0,176,0,253,71c0,0,78,72,78,250c0,0,0,163,-80,233c0,0,-81,69,-250,69H278L277,564c0,0,-1,-54,26,-80c0,0,27,-25,82,-25c0,0,30,0,80,9V355c0,0,-61,-12,-111,-12c0,0,-100,0,-157,55c0,0,-58,55,-58,186V836H456c0,0,193,0,303,-109c0,0,110,-109,110,-309c0,0,0,-200,-110,-309C759,109,648,0,456,0Z" 
id="f1_d"
transform="scale(0.001,-0.001)" />

<path d="M287,0L589,729H66v386H205V836l547,-1l-2,-82L433,0Z" 
id="f1_7"
transform="scale(0.001,-0.001)" />

<path d="M154,0V454l138,56V0ZM722,0V454c0,0,0,161,-49,218c0,0,-48,57,-186,57H139V836H485c0,0,207,0,291,-93c0,0,83,-94,83,-318V0Z" 
id="f1_6"
transform="scale(0.001,-0.001)" />

<path d="M152,0V473c0,0,0,94,28,161c0,0,29,66,71,95H66V836H463V729H404c0,0,-65,0,-89,-57c0,0,-25,-58,-25,-199V0Z" 
id="f1_b"
transform="scale(0.001,-0.001)" />

<path d="M139,0V836H485c0,0,206,0,290,-90c0,0,84,-89,84,-294V0H721V473c0,0,0,147,-49,202c0,0,-48,54,-186,54H277V0Z" 
id="f1_f"
transform="scale(0.001,-0.001)" />

<path d="M66,0V107H554V452c0,0,0,56,-4,93c0,0,-4,37,-18,75c0,0,-14,38,-40,60c0,0,-26,22,-71,36c0,0,-45,13,-110,13H66V836H312c0,0,91,0,157,-17c0,0,66,-17,109,-49c0,0,44,-32,69,-84c0,0,26,-52,36,-114c0,0,10,-62,10,-147V107H817V0Z" 
id="f1_2"
transform="scale(0.001,-0.001)" />

<path d="M248,0L521,658H66v429H313V836l493,-1V716L504,0Z" 
id="f2_b"
transform="scale(0.001,-0.001)" />

<path d="M102,250V836H349V351L102,250Z" 
id="f2_h"
transform="scale(0.001,-0.001)" />

<path d="M154,-13c0,0,-38,0,-85,9V198c0,0,58,-15,103,-15c0,0,84,0,118,60c0,0,35,61,35,206c0,0,0,66,-7,105c0,0,-6,39,-24,63c0,0,-17,25,-44,33c0,0,-27,8,-73,8H66V836H225c0,0,198,0,275,-115c0,0,56,-84,65,-264c0,0,3,-55,3,-148c0,0,0,-177,71,-309L393,1c0,0,-53,130,-54,141c0,0,-28,-90,-65,-123c0,0,-38,-32,-120,-32Z" 
id="f2_f"
transform="scale(0.001,-0.001)" />

<path d="M534,0V425c0,0,0,109,-41,171c0,0,-41,62,-140,62H66V836H352c0,0,99,0,174,-20c0,0,75,-20,123,-55c0,0,48,-35,78,-87c0,0,30,-53,42,-113c0,0,12,-60,12,-136V0Z" 
id="f2_4"
transform="scale(0.001,-0.001)" />

<path d="M173,-6C173,-6,61,-6,15,9V177c0,0,73,-10,82,-10c0,0,37,0,52,30c0,0,14,29,14,116V658H18V836H516c0,0,262,0,341,-145c0,0,48,-89,48,-242V0H658V450c0,0,0,131,-37,171c0,0,-34,37,-105,37H411V313c0,0,0,-189,-67,-258C344,55,285,-6,173,-6Z" 
id="f2_7"
transform="scale(0.001,-0.001)" />

<path d="M121,0V211L528,570c0,0,54,50,80,96c0,0,27,47,27,98c0,0,0,78,-53,126c0,0,-53,48,-140,48c0,0,-67,0,-147,-29c0,0,-80,-28,-171,-85v245c0,0,97,32,192,48c0,0,95,17,186,17c0,0,199,0,310,-88c0,0,111,-88,111,-245c0,0,0,-91,-47,-170c0,0,-47,-79,-197,-211L441,211H931V0Z" 
id="f2_n"
transform="scale(0.001,-0.001)" />

<path d="M522,92c0,0,247,0,247,333c0,0,0,88,-17,146c0,0,-17,58,-53,91c0,0,-35,33,-82,46c0,0,-48,14,-116,14H276V419c0,0,0,-327,246,-327Zm0,-112c0,0,-193,0,-289,109c0,0,-95,110,-95,337V836H501c0,0,213,0,309,-93c0,0,96,-94,96,-317c0,0,0,-227,-95,-337C811,89,715,-20,522,-20Z" 
id="f1_i"
transform="scale(0.001,-0.001)" />

<path d="M66,0V107H332V555c0,0,0,92,-37,133c0,0,-37,41,-116,41H85V836h94c0,0,153,0,223,-66c0,0,69,-66,69,-231V0Z" 
id="f1_l"
transform="scale(0.001,-0.001)" />

<path d="M66,0V106H322c0,0,75,0,127,23c0,0,53,23,82,67c0,0,29,43,42,98c0,0,13,54,13,124c0,0,0,70,-13,124c0,0,-13,55,-42,98c0,0,-29,44,-82,67c0,0,-52,23,-127,23H66V836H322c0,0,87,0,157,-24c0,0,70,-24,115,-64c0,0,45,-40,74,-94c0,0,30,-55,43,-113c0,0,13,-59,13,-123c0,0,0,-64,-13,-123c0,0,-13,-58,-43,-113c0,0,-29,-54,-74,-94C594,88,549,48,479,24C479,24,409,0,322,0Z" 
id="f1_4"
transform="scale(0.001,-0.001)" />

<path d="M102,312V836H241V369L102,312Z" 
id="f1_3"
transform="scale(0.001,-0.001)" />

<path d="M139,0V138c0,0,0,61,8,112c0,0,7,52,19,87c0,0,11,36,30,66c0,0,19,31,35,49c0,0,17,19,41,35c0,0,25,17,41,25c0,0,17,7,40,17L141,836H303L613,388c0,0,20,10,33,18c0,0,13,8,34,28c0,0,20,20,33,44c0,0,13,25,22,66c0,0,10,41,10,92V836H882V698c0,0,0,-61,-7,-112c0,0,-6,-52,-18,-88c0,0,-12,-36,-30,-66c0,0,-19,-30,-36,-49c0,0,-17,-18,-41,-34c0,0,-24,-17,-40,-25c0,0,-17,-8,-41,-17L882,0H720L409,448c0,0,-21,-11,-34,-19c0,0,-13,-8,-34,-27c0,0,-21,-20,-34,-44c0,0,-12,-25,-22,-66c0,0,-9,-41,-9,-92V0Z" 
id="f1_e"
transform="scale(0.001,-0.001)" />

<path d="M322,0V40L481,60V389L130,941L17,960v40H440V960L306,941L593,480L866,941L739,960v40h326V960L955,941L625,394V60L784,40V0Z" 
id="f0_z"
transform="scale(0.001,-0.001)" />

<path d="M112,-5c0,0,-39,0,-97,11V113c0,0,48,-10,77,-10c0,0,53,0,70,42c0,0,17,43,17,164V729H50V836H501c0,0,107,0,179,-25c0,0,72,-25,112,-77c0,0,40,-51,57,-118c0,0,16,-67,16,-164V0H726V454c0,0,0,55,-3,92c0,0,-4,37,-17,75c0,0,-14,38,-38,59c0,0,-24,22,-65,36c0,0,-42,13,-102,13H318V309c0,0,0,-160,-46,-237C272,72,226,-5,112,-5Z" 
id="f1_a"
transform="scale(0.001,-0.001)" />

<path d="M235,0V40L394,60V936H356c0,0,-189,0,-258,-15L78,766H28v234H908V766H857L837,921c0,0,-22,5,-98,9c0,0,-75,4,-165,4H538V60L697,40V0Z" 
id="f0_18"
transform="scale(0.001,-0.001)" />

<path d="M289,-14c0,0,-179,0,-179,205V649L20,668v33H233V200c0,0,0,-128,120,-128c0,0,92,0,173,23V649L420,668v33H649V52L738,34V0H533l-6,57C527,57,474,28,405,6c0,0,-69,-20,-116,-20Zm24,849v24l147,203H618v-27L354,835Z" 
id="f0_e"
transform="scale(0.001,-0.001)" />

<path d="M139,0V836H278V0Z" 
id="f1_9"
transform="scale(0.001,-0.001)" />

<path d="M44,0V40L172,60V941L44,961v39H794V761H745L721,923c0,0,-83,10,-241,10H316V542H586l23,120h48V354H609L586,475H316V67H513c0,0,193,0,252,12l43,185h49L843,0ZM351,1084v25l146,202H656v-27L392,1084Z" 
id="f0_1p"
transform="scale(0.001,-0.001)" />

<path d="M44,0V40L172,60V941L44,960v40H794V760H745L721,922c0,0,-83,11,-241,11H316V543H586l23,119h48V354H609L586,475H316V67H513c0,0,193,0,252,12l43,185h49L843,0Z" 
id="f0_4"
transform="scale(0.001,-0.001)" />

<path d="M736,107V473c0,0,0,147,-48,202c0,0,-49,54,-187,54H278V107ZM139,0V836H499c0,0,105,0,177,-22c0,0,72,-21,116,-69c0,0,44,-49,64,-119c0,0,19,-71,19,-174V0Z" 
id="f1_j"
transform="scale(0.001,-0.001)" />

<path d="M495,0V729H66V836H781V729H634V0Z" 
id="f1_h"
transform="scale(0.001,-0.001)" />

<path d="M122,-200c0,0,99,170,148,338c0,0,49,169,49,342c0,0,0,172,-49,340c0,0,-49,168,-148,340H241c0,0,112,-176,168,-345c0,0,55,-169,55,-335c0,0,0,-167,-55,-337c0,0,-56,-168,-168,-343Z" 
id="f1_w"
transform="scale(0.001,-0.001)" />

<path d="M354,-200c0,0,-112,175,-167,343c0,0,-56,170,-56,337c0,0,0,166,55,335c0,0,55,169,168,345H473c0,0,-100,-172,-148,-340c0,0,-48,-168,-48,-340c0,0,0,-173,48,-342c0,0,49,-168,148,-338Z" 
id="f1_x"
transform="scale(0.001,-0.001)" />

<path d="M445,-20c0,0,-86,0,-172,13c0,0,-86,13,-170,40V255c0,0,80,-40,160,-60c0,0,79,-21,156,-21c0,0,114,0,174,40c0,0,61,39,61,113c0,0,0,76,-62,115c0,0,-62,39,-184,39H293V666H414c0,0,108,0,161,34c0,0,53,34,53,103c0,0,0,65,-52,100c0,0,-51,35,-145,35c0,0,-69,0,-140,-16c0,0,-70,-15,-140,-46v210c0,0,85,24,168,36c0,0,83,12,164,12c0,0,217,0,325,-71c0,0,107,-71,107,-215c0,0,0,-98,-51,-160c0,0,-52,-62,-152,-88c0,0,112,-29,171,-101c0,0,59,-72,59,-183c0,0,0,-165,-127,-251c0,0,-127,-85,-370,-85Z" 
id="f2_o"
transform="scale(0.001,-0.001)" />

<path d="M163,0V190H321V0Z" 
id="f1_g"
transform="scale(0.001,-0.001)" />

<path d="M71,-141V-15L289,62L66,836H210L416,109c0,0,99,42,153,98c0,0,53,56,80,155c0,0,26,98,26,262V836H817V624c0,0,0,-88,-7,-154c0,0,-7,-67,-25,-132c0,0,-18,-66,-51,-116c0,0,-33,-51,-84,-98c0,0,-50,-48,-123,-87c0,0,-72,-39,-169,-74L71,-141Z" 
id="f1_k"
transform="scale(0.001,-0.001)" />

<path d="M66,0V106H564L66,836H228L516,413c0,0,3,2,9,6c0,0,17,13,27,21c0,0,10,8,26,27c0,0,17,20,26,40c0,0,9,21,16,54c0,0,7,34,7,75V836H764V698c0,0,0,-55,-7,-102c0,0,-7,-47,-16,-79c0,0,-10,-33,-27,-62c0,0,-18,-29,-32,-46c0,0,-14,-17,-37,-35c0,0,-22,-17,-36,-25c0,0,-13,-8,-36,-20L767,53V0Z" 
id="f1_q"
transform="scale(0.001,-0.001)" />

<path d="M180,0L66,836H203L258,443c0,0,36,1,64,6c0,0,28,6,49,18c0,0,20,12,35,26c0,0,15,13,26,36c0,0,11,24,17,44c0,0,7,20,12,55c0,0,6,34,9,60c0,0,3,26,8,71c0,0,4,45,9,77H610c0,0,-13,-194,-31,-271c0,0,-31,-127,-111,-179c0,0,-71,-45,-196,-50L304,107c0,0,73,0,130,5c0,0,56,6,111,21c0,0,54,15,94,40c0,0,40,25,77,64c0,0,37,39,63,94c0,0,25,54,46,128c0,0,21,73,34,166c0,0,13,94,20,211h138c0,0,-14,-124,-29,-218c0,0,-16,-94,-39,-179c0,0,-22,-85,-50,-146c0,0,-28,-61,-68,-112c0,0,-39,-51,-87,-84C744,97,696,65,632,42C632,42,568,19,492,10C492,10,417,0,320,0Z" 
id="f1_n"
transform="scale(0.001,-0.001)" />

<path d="M376,50c0,0,103,0,149,80c0,0,46,81,46,240c0,0,0,137,-47,204c0,0,-48,67,-148,67c0,0,-44,0,-87,-7c0,0,-44,-8,-63,-17V62c0,0,63,-12,150,-12Zm3,-64c0,0,-64,0,-141,14c0,0,-78,14,-136,37v971L0,1026v34H226V809c0,0,0,-40,-4,-148c0,0,74,59,188,59c0,0,143,0,219,-87c0,0,77,-87,77,-263c0,0,0,-189,-84,-287c0,0,-84,-97,-243,-97Z" 
id="f0_10"
transform="scale(0.001,-0.001)" />

<path d="M868,0L251,900V60L385,40V0H44V40L172,60V941L44,960v40H347L862,259V941L727,960v40h341V960L940,941V0Z" 
id="f0_11"
transform="scale(0.001,-0.001)" />

<path d="M289,-14c0,0,-179,0,-179,205V649L20,668v33H233V200c0,0,0,-128,120,-128c0,0,92,0,173,23V649L420,668v33H649V52L738,33V0H533l-6,57C527,57,474,28,405,7c0,0,-69,-21,-116,-21Z" 
id="f0_y"
transform="scale(0.001,-0.001)" />

<path d="M139,-317V836H278V-317Z" 
id="f1_r"
transform="scale(0.001,-0.001)" />

<path d="M0,-141L388,1114H514L127,-141Z" 
id="f1_12"
transform="scale(0.001,-0.001)" />

<path d="M562,411V877L247,411ZM562,0V202H68V449l447,665H834V411H993V202H834V0Z" 
id="f2_6"
transform="scale(0.001,-0.001)" />

<path d="M114,0l60,312c0,0,2,12,8,39c0,0,6,27,7,37c0,0,2,11,5,30c0,0,2,19,4,33c0,0,1,15,1,31c0,0,0,48,-35,146c0,0,-35,98,-98,208H228c0,0,3,-8,27,-67c0,0,25,-58,41,-117c0,0,21,53,50,90c0,0,29,37,57,57c0,0,29,21,65,32c0,0,37,11,65,14c0,0,28,3,67,3c0,0,300,0,300,-396V0H480V106H761V452c0,0,0,146,-46,215c0,0,-45,70,-118,70c0,0,-134,0,-198,-119c0,0,-36,-68,-67,-222c0,0,-2,-10,-6,-27L253,0Z" 
id="f1_m"
transform="scale(0.001,-0.001)" />

<path d="M522,-20c0,0,-196,0,-290,99c0,0,-94,100,-94,324V836H276V397c0,0,0,-86,16,-147c0,0,17,-60,50,-94c0,0,34,-34,77,-49c0,0,43,-15,103,-15c0,0,59,0,102,15c0,0,44,15,77,49c0,0,33,34,50,94c0,0,17,61,17,147c0,0,0,84,-8,143c0,0,-7,58,-25,105c0,0,-17,47,-51,69c0,0,-33,23,-83,23c0,0,-50,0,-119,-22V821c0,0,85,23,150,23c0,0,76,0,130,-30c0,0,53,-31,85,-90c0,0,31,-59,45,-138c0,0,13,-78,13,-183c0,0,0,-224,-93,-324c0,0,-94,-99,-290,-99Z" 
id="f1_p"
transform="scale(0.001,-0.001)" />

<path d="M117,-176L179,62V190H336V62L213,-176Z" 
id="f1_o"
transform="scale(0.001,-0.001)" />

<path d="M394,460c0,0,126,0,186,57c0,0,60,57,60,187c0,0,0,123,-57,176c0,0,-58,53,-194,53H316V460ZM54,0V40L172,60V941L44,960v40H421c0,0,368,0,368,-295c0,0,0,-153,-93,-233c0,0,-93,-80,-267,-80H316V60L475,40V0Z" 
id="f0_12"
transform="scale(0.001,-0.001)" />

<path d="M64,0V34L168,59V639H47v36l121,29v49c0,0,0,155,61,239c0,0,62,84,173,84c0,0,58,0,107,-15V908H472l-33,92c0,0,-26,16,-62,16c0,0,-47,0,-66,-42c0,0,-19,-42,-19,-157V701H478V639H292V59L443,34V0Z" 
id="f0_13"
transform="scale(0.001,-0.001)" />

<path d="M58,-234v58c0,0,131,42,131,125c0,0,0,15,-11,27c0,0,-11,12,-38,25C140,1,89,27,89,75c0,0,0,40,25,61c0,0,26,21,65,21c0,0,48,0,77,-34c0,0,30,-34,30,-86c0,0,0,-101,-60,-170c0,0,-59,-69,-168,-101Z" 
id="f0_v"
transform="scale(0.001,-0.001)" />

<path d="M442,0V33l93,19V504c0,0,0,129,-124,129c0,0,-70,0,-168,-22V52L338,33V0H31V33l88,19v956L15,1026v34H243V756c0,0,0,-77,-5,-112c0,0,54,31,122,53c0,0,68,23,115,23c0,0,91,0,137,-53c0,0,47,-53,47,-154V52L744,33V0Z" 
id="f0_14"
transform="scale(0.001,-0.001)" />

<path d="M190,0V127H436V977L168,923v137l267,54H586V127H832V0Z" 
id="f1_z"
transform="scale(0.001,-0.001)" />

<path d="M486,98c0,0,107,0,169,58c0,0,62,57,62,157c0,0,0,101,-62,159c0,0,-61,57,-169,57c0,0,-108,0,-169,-57c0,0,-62,-58,-62,-159c0,0,0,-100,62,-158c0,0,61,-57,169,-57Zm-1,549c0,0,97,0,152,49c0,0,54,48,54,135c0,0,0,87,-54,135c0,0,-55,49,-152,49c0,0,-97,0,-151,-49c0,0,-54,-48,-54,-135c0,0,0,-87,54,-135c0,0,54,-49,151,-49Zm0,-667c0,0,-184,0,-283,85c0,0,-98,86,-98,248c0,0,0,107,61,181c0,0,61,74,170,99c0,0,-97,24,-151,90c0,0,-54,67,-54,162c0,0,0,134,95,212c0,0,95,77,260,77c0,0,167,0,261,-77c0,0,95,-78,95,-212c0,0,0,-95,-54,-162c0,0,-54,-66,-151,-90c0,0,109,-25,170,-99c0,0,61,-74,61,-181c0,0,0,-162,-99,-248c0,0,-98,-85,-283,-85Z" 
id="f1_1e"
transform="scale(0.001,-0.001)" />


</defs>
</svg>