<?xml version="1.0" encoding="UTF-8" standalone="no"?>
<!DOCTYPE svg PUBLIC "-//W3C//DTD SVG 1.1//EN"
"http://www.w3.org/Graphics/SVG/1.1/DTD/svg11.dtd">
<svg viewBox="0 0 909 1286" version="1.1" xmlns="http://www.w3.org/2000/svg" xmlns:xlink="http://www.w3.org/1999/xlink">
<defs>
<clipPath id="c0_4"><path d="M0,1286.2V0H909.4V1286.2Z" /></clipPath>
<clipPath id="c1_4"><path d="M642.4,574.7V553.4h.3v21.3Z" /></clipPath>
<clipPath id="c2_4"><path d="M642.4,755.6V734.3h.3v21.3Z" /></clipPath>
<clipPath id="c3_4"><path d="M642.4,989V967.7h.3V989Z" /></clipPath>
<style type="text/css"><![CDATA[
.g0_4{
fill: none;
stroke: #000000;
stroke-width: 0.7638889;
stroke-linecap: butt;
stroke-linejoin: round;
}
.g1_4{
fill: none;
stroke: #0000FF;
stroke-width: 1.0694444;
stroke-linecap: butt;
stroke-linejoin: miter;
}
]]></style>
</defs>
<g clip-path="url(#c0_4)">
<g fill="#000000" >
<use xlink:href="#f0_b" transform="matrix(12,0,0,12,723.8,127.1)" />
<use xlink:href="#f0_h" transform="matrix(12,0,0,12,735,127.1)" />
<use xlink:href="#f0_f" transform="matrix(12,0,0,12,740.3,127.1)" />
<use xlink:href="#f0_4" transform="matrix(12,0,0,12,748.6,127.1)" />
<use xlink:href="#f0_7" transform="matrix(12,0,0,12,759.6,127.1)" />
<use xlink:href="#f0_o" transform="matrix(12,0,0,12,704.6,127.1)" />
<use xlink:href="#f1_6" transform="matrix(12,0,0,12,327.4,127.1)" />
<use xlink:href="#f1_7" transform="matrix(12,0,0,12,339.3,127.1)" />
<use xlink:href="#f1_2" transform="matrix(12,0,0,12,349.7,127.1)" />
<use xlink:href="#f1_p" transform="matrix(12,0,0,12,360.3,127.1)" />
<use xlink:href="#f1_6" transform="matrix(12,0,0,12,372.2,127.1)" />
<use xlink:href="#f1_a" transform="matrix(12,0,0,12,389.9,127.1)" />
<use xlink:href="#f1_e" transform="matrix(12,0,0,12,401.9,127.1)" />
<use xlink:href="#f1_e" transform="matrix(12,0,0,12,420.1,127.1)" />
<use xlink:href="#f1_7" transform="matrix(12,0,0,12,432.3,127.1)" />
<use xlink:href="#f1_m" transform="matrix(12,0,0,12,442.7,127.1)" />
<use xlink:href="#f1_7" transform="matrix(12,0,0,12,455.2,127.1)" />
<use xlink:href="#f1_3" transform="matrix(12,0,0,12,471.4,127.1)" />
<use xlink:href="#f1_h" transform="matrix(12,0,0,12,475.5,127.1)" />
<use xlink:href="#f1_4" transform="matrix(12,0,0,12,485.6,127.1)" />
<use xlink:href="#f1_j" transform="matrix(12,0,0,12,501,127.1)" />
<use xlink:href="#f1_3" transform="matrix(12,0,0,12,513.2,127.1)" />
<use xlink:href="#f1_e" transform="matrix(12,0,0,12,517.4,127.1)" />
<use xlink:href="#f1_2" transform="matrix(12,0,0,12,529.6,127.1)" />
<use xlink:href="#f1_6" transform="matrix(12,0,0,12,540.1,127.1)" />
<use xlink:href="#f1_j" transform="matrix(12,0,0,12,558,127.1)" />
<use xlink:href="#f1_3" transform="matrix(12,0,0,12,570.2,127.1)" />
<use xlink:href="#f1_7" transform="matrix(12,0,0,12,574.3,127.1)" />
<use xlink:href="#f1_k" transform="matrix(12,0,0,12,584.7,127.1)" />
<use xlink:href="#f1_d" transform="matrix(12,0,0,12,596.2,127.1)" />
<use xlink:href="#f1_2" transform="matrix(12,0,0,12,607.6,127.1)" />
<use xlink:href="#f1_n" transform="matrix(12,0,0,12,623.9,127.1)" />
<use xlink:href="#f1_m" transform="matrix(12,0,0,12,636.9,127.1)" />
<use xlink:href="#f1_a" transform="matrix(12,0,0,12,649.4,127.1)" />
<use xlink:href="#f1_n" transform="matrix(12,0,0,12,661.5,127.1)" />
<use xlink:href="#f1_6" transform="matrix(12,0,0,12,674.5,127.1)" />
<use xlink:href="#f1_16" transform="matrix(12,0,0,12,692.2,127.1)" />
<use xlink:href="#f2_8" transform="matrix(11,0,0,11,717.8,148.5)" />
<use xlink:href="#f2_b" transform="matrix(11,0,0,11,725.2,148.5)" />
<use xlink:href="#f2_a" transform="matrix(11,0,0,11,732.7,148.5)" />
<use xlink:href="#f2_7" transform="matrix(11,0,0,11,745.7,148.5)" />
<use xlink:href="#f2_p" transform="matrix(11,0,0,11,750.4,148.5)" />
<use xlink:href="#f2_b" transform="matrix(11,0,0,11,758.8,148.5)" />
<use xlink:href="#f2_r" transform="matrix(11,0,0,11,766.3,148.5)" />
<use xlink:href="#f1_o" transform="matrix(12,0,0,12,643.5,148.5)" />
<use xlink:href="#f1_h" transform="matrix(12,0,0,12,649.3,148.5)" />
<use xlink:href="#f1_9" transform="matrix(12,0,0,12,659.3,148.5)" />
<use xlink:href="#f1_k" transform="matrix(12,0,0,12,664.3,148.5)" />
<use xlink:href="#f1_q" transform="matrix(12,0,0,12,675.7,148.5)" />
<use xlink:href="#f1_7" transform="matrix(12,0,0,12,686.6,148.5)" />
<use xlink:href="#f1_17" transform="matrix(12,0,0,12,702.9,148.5)" />
<use xlink:href="#f2_10" transform="matrix(11,0,0,11,600.1,148.5)" />
<use xlink:href="#f2_l" transform="matrix(11,0,0,11,608.5,148.5)" />
<use xlink:href="#f2_10" transform="matrix(11,0,0,11,616,148.5)" />
<use xlink:href="#f2_l" transform="matrix(11,0,0,11,624.4,148.5)" />
<use xlink:href="#f2_r" transform="matrix(11,0,0,11,631.8,148.5)" />
<use xlink:href="#f1_o" transform="matrix(12,0,0,12,521.1,148.5)" />
<use xlink:href="#f1_a" transform="matrix(12,0,0,12,526.9,148.5)" />
<use xlink:href="#f1_9" transform="matrix(12,0,0,12,539,148.5)" />
<use xlink:href="#f1_a" transform="matrix(12,0,0,12,543.9,148.5)" />
<use xlink:href="#f1_n" transform="matrix(12,0,0,12,555.9,148.5)" />
<use xlink:href="#f1_7" transform="matrix(12,0,0,12,568.9,148.5)" />
<use xlink:href="#f1_17" transform="matrix(12,0,0,12,585.2,148.5)" />
<use xlink:href="#f2_q" transform="matrix(11,0,0,11,481.6,148.5)" />
<use xlink:href="#f2_y" transform="matrix(11,0,0,11,488.1,148.5)" />
<use xlink:href="#f2_10" transform="matrix(11,0,0,11,496.5,148.5)" />
<use xlink:href="#f2_7" transform="matrix(11,0,0,11,504.9,148.5)" />
<use xlink:href="#f2_r" transform="matrix(11,0,0,11,509.5,148.5)" />
<use xlink:href="#f1_a" transform="matrix(12,0,0,12,411.4,148.5)" />
<use xlink:href="#f1_9" transform="matrix(12,0,0,12,423.5,148.5)" />
<use xlink:href="#f1_7" transform="matrix(12,0,0,12,428.5,148.5)" />
<use xlink:href="#f1_k" transform="matrix(12,0,0,12,438.9,148.5)" />
<use xlink:href="#f1_7" transform="matrix(12,0,0,12,450.4,148.5)" />
<use xlink:href="#f1_17" transform="matrix(12,0,0,12,466.7,148.5)" />
</g>
</g>
<path d="M128.6,172.6H780.3M128.6,194.7H780.3m-651.7,20H780.3M128.6,236.9H780.3M128.6,257H780.3M128.6,279.2H780.3m-651.7,20H780.3M128.6,321.4H780.3M128.6,343.5H780.3M128.6,363.7H780.3M128.6,385.8H780.3M128.6,405.9H780.3M128.6,428H780.3M128.6,448.2H780.3m-651.7,20H780.3M128.6,490.3H780.3M128.6,512.5H780.3M128.6,534.6H780.3M128.9,172.2V535M454.4,172.2V535M779.9,172.2V535" class="g0_4" />
<g clip-path="url(#c0_4)">
<g fill="#000000" >
<use xlink:href="#f1_g" transform="matrix(12,0,0,12,686.4,189.9)" />
<use xlink:href="#f1_h" transform="matrix(12,0,0,12,692.2,189.9)" />
<use xlink:href="#f1_k" transform="matrix(12,0,0,12,702.2,189.9)" />
<use xlink:href="#f1_9" transform="matrix(12,0,0,12,713.6,189.9)" />
<use xlink:href="#f1_q" transform="matrix(12,0,0,12,718.7,189.9)" />
<use xlink:href="#f1_6" transform="matrix(12,0,0,12,735.5,189.9)" />
<use xlink:href="#f1_a" transform="matrix(12,0,0,12,747.4,189.9)" />
<use xlink:href="#f1_e" transform="matrix(12,0,0,12,759.4,189.9)" />
<use xlink:href="#f2_z" transform="matrix(11,0,0,11,137.7,210.7)" />
<use xlink:href="#f2_9" transform="matrix(11,0,0,11,149.7,210.7)" />
<use xlink:href="#f2_10" transform="matrix(11,0,0,11,162.4,210.7)" />
<use xlink:href="#f2_l" transform="matrix(11,0,0,11,170.8,210.7)" />
<use xlink:href="#f2_10" transform="matrix(11,0,0,11,178.2,210.7)" />
<use xlink:href="#f2_9" transform="matrix(11,0,0,11,186.6,210.7)" />
<use xlink:href="#f2_o" transform="matrix(11,0,0,11,195,210.7)" />
<use xlink:href="#f1_g" transform="matrix(12,0,0,12,688.9,232.2)" />
<use xlink:href="#f1_6" transform="matrix(12,0,0,12,694.7,232.2)" />
<use xlink:href="#f1_a" transform="matrix(12,0,0,12,706.6,232.2)" />
<use xlink:href="#f1_9" transform="matrix(12,0,0,12,718.6,232.2)" />
<use xlink:href="#f1_n" transform="matrix(12,0,0,12,723.5,232.2)" />
<use xlink:href="#f1_e" transform="matrix(12,0,0,12,742.5,232.2)" />
<use xlink:href="#f1_9" transform="matrix(12,0,0,12,754.7,232.2)" />
<use xlink:href="#f1_6" transform="matrix(12,0,0,12,759.7,232.2)" />
<use xlink:href="#f2_11" transform="matrix(11,0,0,11,137.7,253)" />
<use xlink:href="#f2_9" transform="matrix(11,0,0,11,149.7,253)" />
<use xlink:href="#f2_q" transform="matrix(11,0,0,11,158.1,253)" />
<use xlink:href="#f2_9" transform="matrix(11,0,0,11,164.7,253)" />
<use xlink:href="#f2_d" transform="matrix(11,0,0,11,173.1,253)" />
<use xlink:href="#f2_r" transform="matrix(11,0,0,11,177.8,253)" />
<use xlink:href="#f2_9" transform="matrix(11,0,0,11,183.4,253)" />
<use xlink:href="#f2_q" transform="matrix(11,0,0,11,191.8,253)" />
<use xlink:href="#f2_q" transform="matrix(11,0,0,11,202.5,253)" />
<use xlink:href="#f2_y" transform="matrix(11,0,0,11,209.1,253)" />
<use xlink:href="#f2_10" transform="matrix(11,0,0,11,217.5,253)" />
<use xlink:href="#f2_7" transform="matrix(11,0,0,11,225.9,253)" />
<use xlink:href="#f2_a" transform="matrix(11,0,0,11,230.5,253)" />
<use xlink:href="#f2_9" transform="matrix(11,0,0,11,243.6,253)" />
<use xlink:href="#f2_q" transform="matrix(11,0,0,11,252,253)" />
<use xlink:href="#f2_o" transform="matrix(11,0,0,11,258.4,253)" />
<use xlink:href="#f1_g" transform="matrix(12,0,0,12,689.8,274.4)" />
<use xlink:href="#f1_6" transform="matrix(12,0,0,12,695.6,274.4)" />
<use xlink:href="#f1_a" transform="matrix(12,0,0,12,707.5,274.4)" />
<use xlink:href="#f1_9" transform="matrix(12,0,0,12,719.4,274.4)" />
<use xlink:href="#f1_n" transform="matrix(12,0,0,12,724.5,274.4)" />
<use xlink:href="#f1_e" transform="matrix(12,0,0,12,743.4,274.4)" />
<use xlink:href="#f1_3" transform="matrix(12,0,0,12,755.6,274.4)" />
<use xlink:href="#f1_6" transform="matrix(12,0,0,12,759.7,274.4)" />
<use xlink:href="#f2_4" transform="matrix(11,0,0,11,137.7,295.2)" />
<use xlink:href="#f2_j" transform="matrix(11,0,0,11,147.9,295.2)" />
<use xlink:href="#f2_j" transform="matrix(11,0,0,11,152.6,295.2)" />
<use xlink:href="#f2_b" transform="matrix(11,0,0,11,157.2,295.2)" />
<use xlink:href="#f2_q" transform="matrix(11,0,0,11,164.7,295.2)" />
<use xlink:href="#f2_8" transform="matrix(11,0,0,11,175.5,295.2)" />
<use xlink:href="#f2_b" transform="matrix(11,0,0,11,182.8,295.2)" />
<use xlink:href="#f2_a" transform="matrix(11,0,0,11,190.3,295.2)" />
<use xlink:href="#f2_7" transform="matrix(11,0,0,11,203.4,295.2)" />
<use xlink:href="#f2_p" transform="matrix(11,0,0,11,208.1,295.2)" />
<use xlink:href="#f2_b" transform="matrix(11,0,0,11,216.4,295.2)" />
<use xlink:href="#f2_p" transform="matrix(11,0,0,11,223.8,295.2)" />
<use xlink:href="#f2_o" transform="matrix(11,0,0,11,232.2,295.2)" />
<use xlink:href="#f1_g" transform="matrix(12,0,0,12,673,316.7)" />
<use xlink:href="#f1_j" transform="matrix(12,0,0,12,678.8,316.7)" />
<use xlink:href="#f1_3" transform="matrix(12,0,0,12,690.9,316.7)" />
<use xlink:href="#f1_7" transform="matrix(12,0,0,12,695,316.7)" />
<use xlink:href="#f1_9" transform="matrix(12,0,0,12,705.4,316.7)" />
<use xlink:href="#f1_k" transform="matrix(12,0,0,12,710.4,316.7)" />
<use xlink:href="#f1_9" transform="matrix(12,0,0,12,727.8,316.7)" />
<use xlink:href="#f1_l" transform="matrix(12,0,0,12,732.8,316.7)" />
<use xlink:href="#f1_f" transform="matrix(12,0,0,12,740.1,316.7)" />
<use xlink:href="#f1_l" transform="matrix(12,0,0,12,752.1,316.7)" />
<use xlink:href="#f1_e" transform="matrix(12,0,0,12,759.4,316.7)" />
<use xlink:href="#f1_g" transform="matrix(12,0,0,12,676.3,338.9)" />
<use xlink:href="#f1_a" transform="matrix(12,0,0,12,682.2,338.9)" />
<use xlink:href="#f1_9" transform="matrix(12,0,0,12,694.2,338.9)" />
<use xlink:href="#f1_h" transform="matrix(12,0,0,12,699.1,338.9)" />
<use xlink:href="#f1_k" transform="matrix(12,0,0,12,709.2,338.9)" />
<use xlink:href="#f1_9" transform="matrix(12,0,0,12,720.6,338.9)" />
<use xlink:href="#f1_q" transform="matrix(12,0,0,12,725.6,338.9)" />
<use xlink:href="#f1_r" transform="matrix(12,0,0,12,742.3,338.9)" />
<use xlink:href="#f1_a" transform="matrix(12,0,0,12,747.3,338.9)" />
<use xlink:href="#f1_e" transform="matrix(12,0,0,12,759.4,338.9)" />
<use xlink:href="#f2_m" transform="matrix(11,0,0,11,137.7,359.6)" />
<use xlink:href="#f2_q" transform="matrix(11,0,0,11,149.7,359.6)" />
<use xlink:href="#f2_d" transform="matrix(11,0,0,11,156.3,359.6)" />
<use xlink:href="#f2_l" transform="matrix(11,0,0,11,161,359.6)" />
<use xlink:href="#f2_n" transform="matrix(11,0,0,11,168.5,359.6)" />
<use xlink:href="#f2_l" transform="matrix(11,0,0,11,176.9,359.6)" />
<use xlink:href="#f2_q" transform="matrix(11,0,0,11,184.3,359.6)" />
<use xlink:href="#f2_q" transform="matrix(11,0,0,11,195,359.6)" />
<use xlink:href="#f2_y" transform="matrix(11,0,0,11,201.5,359.6)" />
<use xlink:href="#f2_10" transform="matrix(11,0,0,11,210,359.6)" />
<use xlink:href="#f2_l" transform="matrix(11,0,0,11,218.4,359.6)" />
<use xlink:href="#f2_p" transform="matrix(11,0,0,11,225.8,359.6)" />
<use xlink:href="#f2_o" transform="matrix(11,0,0,11,234.1,359.6)" />
<use xlink:href="#f1_g" transform="matrix(12,0,0,12,677.3,381)" />
<use xlink:href="#f1_j" transform="matrix(12,0,0,12,683.1,381)" />
<use xlink:href="#f1_3" transform="matrix(12,0,0,12,695.1,381)" />
<use xlink:href="#f1_a" transform="matrix(12,0,0,12,699.2,381)" />
<use xlink:href="#f1_9" transform="matrix(12,0,0,12,711.3,381)" />
<use xlink:href="#f1_n" transform="matrix(12,0,0,12,716.3,381)" />
<use xlink:href="#f1_j" transform="matrix(12,0,0,12,735.1,381)" />
<use xlink:href="#f1_a" transform="matrix(12,0,0,12,747.3,381)" />
<use xlink:href="#f1_e" transform="matrix(12,0,0,12,759.4,381)" />
<use xlink:href="#f2_m" transform="matrix(11,0,0,11,137.7,401.8)" />
<use xlink:href="#f2_q" transform="matrix(11,0,0,11,149.7,401.8)" />
<use xlink:href="#f2_d" transform="matrix(11,0,0,11,156.3,401.8)" />
<use xlink:href="#f2_l" transform="matrix(11,0,0,11,161,401.8)" />
<use xlink:href="#f2_n" transform="matrix(11,0,0,11,168.5,401.8)" />
<use xlink:href="#f2_8" transform="matrix(11,0,0,11,181,401.8)" />
<use xlink:href="#f2_b" transform="matrix(11,0,0,11,188.4,401.8)" />
<use xlink:href="#f2_a" transform="matrix(11,0,0,11,195.9,401.8)" />
<use xlink:href="#f2_7" transform="matrix(11,0,0,11,208.9,401.8)" />
<use xlink:href="#f2_p" transform="matrix(11,0,0,11,213.6,401.8)" />
<use xlink:href="#f2_b" transform="matrix(11,0,0,11,222,401.8)" />
<use xlink:href="#f2_o" transform="matrix(11,0,0,11,229.5,401.8)" />
<use xlink:href="#f1_g" transform="matrix(12,0,0,12,697,423.3)" />
<use xlink:href="#f1_6" transform="matrix(12,0,0,12,702.8,423.3)" />
<use xlink:href="#f1_7" transform="matrix(12,0,0,12,714.7,423.3)" />
<use xlink:href="#f1_9" transform="matrix(12,0,0,12,725.1,423.3)" />
<use xlink:href="#f1_k" transform="matrix(12,0,0,12,730,423.3)" />
<use xlink:href="#f1_a" transform="matrix(12,0,0,12,747.4,423.3)" />
<use xlink:href="#f1_e" transform="matrix(12,0,0,12,759.4,423.3)" />
<use xlink:href="#f2_4" transform="matrix(11,0,0,11,137.7,444.1)" />
<use xlink:href="#f2_j" transform="matrix(11,0,0,11,147.9,444.1)" />
<use xlink:href="#f2_j" transform="matrix(11,0,0,11,152.6,444.1)" />
<use xlink:href="#f2_9" transform="matrix(11,0,0,11,157.3,444.1)" />
<use xlink:href="#f2_q" transform="matrix(11,0,0,11,165.6,444.1)" />
<use xlink:href="#f2_8" transform="matrix(11,0,0,11,176.4,444.1)" />
<use xlink:href="#f2_b" transform="matrix(11,0,0,11,183.9,444.1)" />
<use xlink:href="#f2_a" transform="matrix(11,0,0,11,191.2,444.1)" />
<use xlink:href="#f2_7" transform="matrix(11,0,0,11,204.3,444.1)" />
<use xlink:href="#f2_p" transform="matrix(11,0,0,11,209,444.1)" />
<use xlink:href="#f2_b" transform="matrix(11,0,0,11,217.4,444.1)" />
<use xlink:href="#f2_p" transform="matrix(11,0,0,11,224.9,444.1)" />
<use xlink:href="#f2_o" transform="matrix(11,0,0,11,233.2,444.1)" />
<use xlink:href="#f2_z" transform="matrix(11,0,0,11,137.7,464.1)" />
<use xlink:href="#f2_9" transform="matrix(11,0,0,11,149.7,464.1)" />
<use xlink:href="#f2_q" transform="matrix(11,0,0,11,162.4,464.1)" />
<use xlink:href="#f2_y" transform="matrix(11,0,0,11,168.9,464.1)" />
<use xlink:href="#f2_10" transform="matrix(11,0,0,11,177.3,464.1)" />
<use xlink:href="#f2_9" transform="matrix(11,0,0,11,185.7,464.1)" />
<use xlink:href="#f2_o" transform="matrix(11,0,0,11,194.1,464.1)" />
<use xlink:href="#f1_g" transform="matrix(12,0,0,12,669,485.7)" />
<use xlink:href="#f1_a" transform="matrix(12,0,0,12,674.8,485.7)" />
<use xlink:href="#f1_9" transform="matrix(12,0,0,12,686.9,485.7)" />
<use xlink:href="#f1_a" transform="matrix(12,0,0,12,691.9,485.7)" />
<use xlink:href="#f1_9" transform="matrix(12,0,0,12,703.8,485.7)" />
<use xlink:href="#f1_n" transform="matrix(12,0,0,12,708.8,485.7)" />
<use xlink:href="#f1_9" transform="matrix(12,0,0,12,727.8,485.7)" />
<use xlink:href="#f1_l" transform="matrix(12,0,0,12,732.8,485.7)" />
<use xlink:href="#f1_f" transform="matrix(12,0,0,12,740.1,485.7)" />
<use xlink:href="#f1_l" transform="matrix(12,0,0,12,752,485.7)" />
<use xlink:href="#f1_e" transform="matrix(12,0,0,12,759.4,485.7)" />
<use xlink:href="#f1_g" transform="matrix(12,0,0,12,669.8,507.8)" />
<use xlink:href="#f1_j" transform="matrix(12,0,0,12,675.6,507.8)" />
<use xlink:href="#f1_3" transform="matrix(12,0,0,12,687.8,507.8)" />
<use xlink:href="#f1_a" transform="matrix(12,0,0,12,691.9,507.8)" />
<use xlink:href="#f1_9" transform="matrix(12,0,0,12,703.8,507.8)" />
<use xlink:href="#f1_n" transform="matrix(12,0,0,12,708.8,507.8)" />
<use xlink:href="#f1_9" transform="matrix(12,0,0,12,727.8,507.8)" />
<use xlink:href="#f1_l" transform="matrix(12,0,0,12,732.8,507.8)" />
<use xlink:href="#f1_f" transform="matrix(12,0,0,12,740.1,507.8)" />
<use xlink:href="#f1_l" transform="matrix(12,0,0,12,752,507.8)" />
<use xlink:href="#f1_e" transform="matrix(12,0,0,12,759.4,507.8)" />
<use xlink:href="#f1_g" transform="matrix(12,0,0,12,699,530)" />
<use xlink:href="#f1_h" transform="matrix(12,0,0,12,704.8,530)" />
<use xlink:href="#f1_k" transform="matrix(12,0,0,12,714.8,530)" />
<use xlink:href="#f1_9" transform="matrix(12,0,0,12,726.3,530)" />
<use xlink:href="#f1_q" transform="matrix(12,0,0,12,731.2,530)" />
<use xlink:href="#f1_3" transform="matrix(12,0,0,12,748,530)" />
<use xlink:href="#f1_l" transform="matrix(12,0,0,12,752.1,530)" />
<use xlink:href="#f1_e" transform="matrix(12,0,0,12,759.4,530)" />
</g>
<g fill="#0000FF" >
<use xlink:href="#f1_7" transform="matrix(12,0,0,12,649.3,570.5)" />
<use xlink:href="#f1_3" transform="matrix(12,0,0,12,660,570.5)" />
<use xlink:href="#f1_u" transform="matrix(12,0,0,12,664.5,570.5)" />
<use xlink:href="#f1_5" transform="matrix(12,0,0,12,672.3,570.5)" />
<use xlink:href="#f1_a" transform="matrix(12,0,0,12,683.1,570.5)" />
<use xlink:href="#f1_7" transform="matrix(12,0,0,12,695.5,570.5)" />
<use xlink:href="#f1_a" transform="matrix(12,0,0,12,712.4,570.5)" />
<use xlink:href="#f1_9" transform="matrix(12,0,0,12,724.9,570.5)" />
<use xlink:href="#f1_2" transform="matrix(12,0,0,12,730.3,570.5)" />
<use xlink:href="#f1_9" transform="matrix(12,0,0,12,741.2,570.5)" />
<use xlink:href="#f1_n" transform="matrix(12,0,0,12,746.6,570.5)" />
<use xlink:href="#f1_a" transform="matrix(12,0,0,12,759.8,570.5)" />
</g>
</g>
<path d="M642.9,572.3H772.1" class="g1_4" />
<g clip-path="url(#c1_4)">
<path d="M642.4,572.3h5.8" class="g1_4" />
</g>
<g clip-path="url(#c0_4)">
<g fill="#0000FF" >
<use xlink:href="#f1_11" transform="matrix(12,0,0,12,630.7,570.5)" />
</g>
</g>
<path d="M630.7,572.3h11.6" class="g1_4" />
<g clip-path="url(#c0_4)">
<g fill="#000000" >
<use xlink:href="#f0_b" transform="matrix(12,0,0,12,723.8,611.1)" />
<use xlink:href="#f0_h" transform="matrix(12,0,0,12,735,611.1)" />
<use xlink:href="#f0_f" transform="matrix(12,0,0,12,740.3,611.1)" />
<use xlink:href="#f0_4" transform="matrix(12,0,0,12,748.6,611.1)" />
<use xlink:href="#f0_7" transform="matrix(12,0,0,12,759.6,611.1)" />
<use xlink:href="#f0_6" transform="matrix(12,0,0,12,704.6,611.1)" />
<use xlink:href="#f1_a" transform="matrix(12,0,0,12,330.9,611.1)" />
<use xlink:href="#f1_3" transform="matrix(12,0,0,12,343,611.1)" />
<use xlink:href="#f1_5" transform="matrix(12,0,0,12,347.1,611.1)" />
<use xlink:href="#f1_2" transform="matrix(12,0,0,12,357.4,611.1)" />
<use xlink:href="#f1_k" transform="matrix(12,0,0,12,368,611.1)" />
<use xlink:href="#f1_7" transform="matrix(12,0,0,12,379.4,611.1)" />
<use xlink:href="#f1_a" transform="matrix(12,0,0,12,395.7,611.1)" />
<use xlink:href="#f1_3" transform="matrix(12,0,0,12,407.7,611.1)" />
<use xlink:href="#f1_h" transform="matrix(12,0,0,12,411.8,611.1)" />
<use xlink:href="#f1_5" transform="matrix(12,0,0,12,421.9,611.1)" />
<use xlink:href="#f1_d" transform="matrix(12,0,0,12,432.1,611.1)" />
<use xlink:href="#f1_i" transform="matrix(12,0,0,12,443.5,611.1)" />
<use xlink:href="#f1_m" transform="matrix(12,0,0,12,455.4,611.1)" />
<use xlink:href="#f1_j" transform="matrix(12,0,0,12,473.8,611.1)" />
<use xlink:href="#f1_3" transform="matrix(12,0,0,12,486,611.1)" />
<use xlink:href="#f1_e" transform="matrix(12,0,0,12,490.1,611.1)" />
<use xlink:href="#f1_2" transform="matrix(12,0,0,12,502.3,611.1)" />
<use xlink:href="#f1_6" transform="matrix(12,0,0,12,512.8,611.1)" />
<use xlink:href="#f1_j" transform="matrix(12,0,0,12,530.6,611.1)" />
<use xlink:href="#f1_3" transform="matrix(12,0,0,12,542.8,611.1)" />
<use xlink:href="#f1_p" transform="matrix(12,0,0,12,546.9,611.1)" />
<use xlink:href="#f1_d" transform="matrix(12,0,0,12,558.8,611.1)" />
<use xlink:href="#f1_n" transform="matrix(12,0,0,12,570.2,611.1)" />
<use xlink:href="#f1_m" transform="matrix(12,0,0,12,583.2,611.1)" />
<use xlink:href="#f1_6" transform="matrix(12,0,0,12,595.7,611.1)" />
<use xlink:href="#f1_a" transform="matrix(12,0,0,12,613.4,611.1)" />
<use xlink:href="#f1_e" transform="matrix(12,0,0,12,625.5,611.1)" />
<use xlink:href="#f1_j" transform="matrix(12,0,0,12,643.5,611.1)" />
<use xlink:href="#f1_u" transform="matrix(12,0,0,12,655.7,611.1)" />
<use xlink:href="#f1_5" transform="matrix(12,0,0,12,663.2,611.1)" />
<use xlink:href="#f1_a" transform="matrix(12,0,0,12,673.6,611.1)" />
<use xlink:href="#f1_16" transform="matrix(12,0,0,12,691.4,611.1)" />
</g>
</g>
<path d="M128.6,635.2H780.3M128.6,655.3H780.3M128.6,675.4H780.3M128.6,695.5H780.3m-651.7,20H780.3M128.9,634.8v81.1M454.4,634.8v81.1M779.9,634.8v81.1" class="g0_4" />
<g clip-path="url(#c0_4)">
<g fill="#000000" >
<use xlink:href="#f2_4" transform="matrix(11,0,0,11,137.7,651.3)" />
<use xlink:href="#f2_p" transform="matrix(11,0,0,11,147.9,651.3)" />
<use xlink:href="#f2_j" transform="matrix(11,0,0,11,160.6,651.3)" />
<use xlink:href="#f2_b" transform="matrix(11,0,0,11,165.1,651.3)" />
<use xlink:href="#f2_8" transform="matrix(11,0,0,11,176.9,651.3)" />
<use xlink:href="#f2_b" transform="matrix(11,0,0,11,184.3,651.3)" />
<use xlink:href="#f2_q" transform="matrix(11,0,0,11,191.7,651.3)" />
<use xlink:href="#f2_b" transform="matrix(11,0,0,11,198.2,651.3)" />
<use xlink:href="#f2_6" transform="matrix(11,0,0,11,210,651.3)" />
<use xlink:href="#f2_7" transform="matrix(11,0,0,11,218.2,651.3)" />
<use xlink:href="#f2_6" transform="matrix(11,0,0,11,222.9,651.3)" />
<use xlink:href="#f2_l" transform="matrix(11,0,0,11,231.3,651.3)" />
<use xlink:href="#f2_y" transform="matrix(11,0,0,11,243.1,651.3)" />
<use xlink:href="#f2_p" transform="matrix(11,0,0,11,251.5,651.3)" />
<use xlink:href="#f2_a" transform="matrix(11,0,0,11,264,651.3)" />
<use xlink:href="#f2_b" transform="matrix(11,0,0,11,277.1,651.3)" />
<use xlink:href="#f2_l" transform="matrix(11,0,0,11,284.4,651.3)" />
<use xlink:href="#f2_q" transform="matrix(11,0,0,11,291.9,651.3)" />
<use xlink:href="#f2_d" transform="matrix(11,0,0,11,298.4,651.3)" />
<use xlink:href="#f2_r" transform="matrix(11,0,0,11,303,651.3)" />
<use xlink:href="#f2_9" transform="matrix(11,0,0,11,308.7,651.3)" />
<use xlink:href="#f2_o" transform="matrix(11,0,0,11,317.1,651.3)" />
<use xlink:href="#f2_12" transform="matrix(11,0,0,11,137.7,671.3)" />
<use xlink:href="#f2_9" transform="matrix(11,0,0,11,147,671.3)" />
<use xlink:href="#f2_r" transform="matrix(11,0,0,11,155.4,671.3)" />
<use xlink:href="#f2_13" transform="matrix(11,0,0,11,165.3,671.3)" />
<use xlink:href="#f2_b" transform="matrix(11,0,0,11,170.8,671.3)" />
<use xlink:href="#f2_6" transform="matrix(11,0,0,11,178.2,671.3)" />
<use xlink:href="#f2_9" transform="matrix(11,0,0,11,186.6,671.3)" />
<use xlink:href="#f2_r" transform="matrix(11,0,0,11,195,671.3)" />
<use xlink:href="#f2_v" transform="matrix(11,0,0,11,200.5,671.3)" />
<use xlink:href="#f2_q" transform="matrix(11,0,0,11,209.1,671.3)" />
<use xlink:href="#f2_7" transform="matrix(11,0,0,11,215.5,671.3)" />
<use xlink:href="#f2_j" transform="matrix(11,0,0,11,220.2,671.3)" />
<use xlink:href="#f2_l" transform="matrix(11,0,0,11,224.9,671.3)" />
<use xlink:href="#f2_p" transform="matrix(11,0,0,11,232.4,671.3)" />
<use xlink:href="#f2_8" transform="matrix(11,0,0,11,240.7,671.3)" />
<use xlink:href="#f2_7" transform="matrix(11,0,0,11,248.1,671.3)" />
<use xlink:href="#f2_9" transform="matrix(11,0,0,11,252.8,671.3)" />
<use xlink:href="#f2_l" transform="matrix(11,0,0,11,265.5,671.3)" />
<use xlink:href="#f2_p" transform="matrix(11,0,0,11,272.8,671.3)" />
<use xlink:href="#f2_l" transform="matrix(11,0,0,11,285.5,671.3)" />
<use xlink:href="#f2_j" transform="matrix(11,0,0,11,292.8,671.3)" />
<use xlink:href="#f2_14" transform="matrix(11,0,0,11,301.8,671.3)" />
<use xlink:href="#f2_9" transform="matrix(11,0,0,11,310.2,671.3)" />
<use xlink:href="#f2_d" transform="matrix(11,0,0,11,318.5,671.3)" />
<use xlink:href="#f2_l" transform="matrix(11,0,0,11,323.2,671.3)" />
<use xlink:href="#f2_j" transform="matrix(11,0,0,11,330.7,671.3)" />
<use xlink:href="#f2_o" transform="matrix(11,0,0,11,335.3,671.3)" />
<use xlink:href="#f2_4" transform="matrix(11,0,0,11,137.7,691.5)" />
<use xlink:href="#f2_j" transform="matrix(11,0,0,11,147.9,691.5)" />
<use xlink:href="#f2_8" transform="matrix(11,0,0,11,156.9,691.5)" />
<use xlink:href="#f2_b" transform="matrix(11,0,0,11,164.2,691.5)" />
<use xlink:href="#f2_13" transform="matrix(11,0,0,11,171.7,691.5)" />
<use xlink:href="#f2_h" transform="matrix(11,0,0,11,177.3,691.5)" />
<use xlink:href="#f2_l" transform="matrix(11,0,0,11,188.9,691.5)" />
<use xlink:href="#f2_q" transform="matrix(11,0,0,11,196.3,691.5)" />
<use xlink:href="#f2_14" transform="matrix(11,0,0,11,207,691.5)" />
<use xlink:href="#f2_9" transform="matrix(11,0,0,11,215.4,691.5)" />
<use xlink:href="#f2_r" transform="matrix(11,0,0,11,223.8,691.5)" />
<use xlink:href="#f2_r" transform="matrix(11,0,0,11,229.4,691.5)" />
<use xlink:href="#f2_7" transform="matrix(11,0,0,11,234.9,691.5)" />
<use xlink:href="#f2_10" transform="matrix(11,0,0,11,239.7,691.5)" />
<use xlink:href="#f2_j" transform="matrix(11,0,0,11,248.1,691.5)" />
<use xlink:href="#f2_l" transform="matrix(11,0,0,11,252.8,691.5)" />
<use xlink:href="#f2_o" transform="matrix(11,0,0,11,260.1,691.5)" />
<use xlink:href="#f2_4" transform="matrix(11,0,0,11,137.7,711.5)" />
<use xlink:href="#f2_j" transform="matrix(11,0,0,11,147.9,711.5)" />
<use xlink:href="#f2_j" transform="matrix(11,0,0,11,152.6,711.5)" />
<use xlink:href="#f2_9" transform="matrix(11,0,0,11,157.3,711.5)" />
<use xlink:href="#f2_q" transform="matrix(11,0,0,11,165.6,711.5)" />
<use xlink:href="#f2_6" transform="matrix(11,0,0,11,176.4,711.5)" />
<use xlink:href="#f2_7" transform="matrix(11,0,0,11,184.8,711.5)" />
<use xlink:href="#f2_6" transform="matrix(11,0,0,11,189.5,711.5)" />
<use xlink:href="#f2_l" transform="matrix(11,0,0,11,197.8,711.5)" />
<use xlink:href="#f2_p" transform="matrix(11,0,0,11,205.2,711.5)" />
<use xlink:href="#f2_l" transform="matrix(11,0,0,11,217.9,711.5)" />
<use xlink:href="#f2_j" transform="matrix(11,0,0,11,225.2,711.5)" />
<use xlink:href="#f2_7" transform="matrix(11,0,0,11,234.2,711.5)" />
<use xlink:href="#f2_n" transform="matrix(11,0,0,11,238.8,711.5)" />
<use xlink:href="#f2_7" transform="matrix(11,0,0,11,247.2,711.5)" />
<use xlink:href="#f2_9" transform="matrix(11,0,0,11,251.9,711.5)" />
<use xlink:href="#f2_a" transform="matrix(11,0,0,11,260.4,711.5)" />
<use xlink:href="#f2_b" transform="matrix(11,0,0,11,273.3,711.5)" />
<use xlink:href="#f2_l" transform="matrix(11,0,0,11,285.1,711.5)" />
<use xlink:href="#f2_q" transform="matrix(11,0,0,11,292.5,711.5)" />
<use xlink:href="#f2_15" transform="matrix(11,0,0,11,299.1,711.5)" />
<use xlink:href="#f2_b" transform="matrix(11,0,0,11,307.3,711.5)" />
<use xlink:href="#f2_16" transform="matrix(11,0,0,11,314.8,711.5)" />
<use xlink:href="#f2_9" transform="matrix(11,0,0,11,323.2,711.5)" />
<use xlink:href="#f2_j" transform="matrix(11,0,0,11,331.6,711.5)" />
<use xlink:href="#f2_o" transform="matrix(11,0,0,11,336.2,711.5)" />
</g>
<g fill="#0000FF" >
<use xlink:href="#f1_7" transform="matrix(12,0,0,12,649.3,751.4)" />
<use xlink:href="#f1_3" transform="matrix(12,0,0,12,660,751.4)" />
<use xlink:href="#f1_u" transform="matrix(12,0,0,12,664.5,751.4)" />
<use xlink:href="#f1_5" transform="matrix(12,0,0,12,672.3,751.4)" />
<use xlink:href="#f1_a" transform="matrix(12,0,0,12,683.1,751.4)" />
<use xlink:href="#f1_7" transform="matrix(12,0,0,12,695.5,751.4)" />
<use xlink:href="#f1_a" transform="matrix(12,0,0,12,712.4,751.4)" />
<use xlink:href="#f1_9" transform="matrix(12,0,0,12,724.9,751.4)" />
<use xlink:href="#f1_2" transform="matrix(12,0,0,12,730.3,751.4)" />
<use xlink:href="#f1_9" transform="matrix(12,0,0,12,741.2,751.4)" />
<use xlink:href="#f1_n" transform="matrix(12,0,0,12,746.6,751.4)" />
<use xlink:href="#f1_a" transform="matrix(12,0,0,12,759.8,751.4)" />
</g>
</g>
<path d="M642.9,753.2H772.1" class="g1_4" />
<g clip-path="url(#c2_4)">
<path d="M642.4,753.2h5.8" class="g1_4" />
</g>
<g clip-path="url(#c0_4)">
<g fill="#0000FF" >
<use xlink:href="#f1_13" transform="matrix(12,0,0,12,630.7,751.4)" />
</g>
</g>
<path d="M630.7,753.2h11.6" class="g1_4" />
<g clip-path="url(#c0_4)">
<g fill="#000000" >
<use xlink:href="#f0_b" transform="matrix(12,0,0,12,723.8,792)" />
<use xlink:href="#f0_h" transform="matrix(12,0,0,12,735,792)" />
<use xlink:href="#f0_f" transform="matrix(12,0,0,12,740.3,792)" />
<use xlink:href="#f0_4" transform="matrix(12,0,0,12,748.6,792)" />
<use xlink:href="#f0_7" transform="matrix(12,0,0,12,759.6,792)" />
<use xlink:href="#f0_p" transform="matrix(12,0,0,12,704.6,792)" />
<use xlink:href="#f1_a" transform="matrix(12,0,0,12,331.5,792)" />
<use xlink:href="#f1_3" transform="matrix(12,0,0,12,343.6,792)" />
<use xlink:href="#f1_h" transform="matrix(12,0,0,12,347.7,792)" />
<use xlink:href="#f1_5" transform="matrix(12,0,0,12,357.6,792)" />
<use xlink:href="#f1_d" transform="matrix(12,0,0,12,368,792)" />
<use xlink:href="#f1_i" transform="matrix(12,0,0,12,379.4,792)" />
<use xlink:href="#f1_7" transform="matrix(12,0,0,12,391.3,792)" />
<use xlink:href="#f1_a" transform="matrix(12,0,0,12,407.5,792)" />
<use xlink:href="#f1_3" transform="matrix(12,0,0,12,419.6,792)" />
<use xlink:href="#f1_5" transform="matrix(12,0,0,12,423.7,792)" />
<use xlink:href="#f1_2" transform="matrix(12,0,0,12,434.1,792)" />
<use xlink:href="#f1_k" transform="matrix(12,0,0,12,444.6,792)" />
<use xlink:href="#f1_m" transform="matrix(12,0,0,12,455.9,792)" />
<use xlink:href="#f1_j" transform="matrix(12,0,0,12,474.4,792)" />
<use xlink:href="#f1_3" transform="matrix(12,0,0,12,486.6,792)" />
<use xlink:href="#f1_e" transform="matrix(12,0,0,12,490.7,792)" />
<use xlink:href="#f1_2" transform="matrix(12,0,0,12,502.9,792)" />
<use xlink:href="#f1_6" transform="matrix(12,0,0,12,513.5,792)" />
<use xlink:href="#f1_j" transform="matrix(12,0,0,12,531.2,792)" />
<use xlink:href="#f1_3" transform="matrix(12,0,0,12,543.4,792)" />
<use xlink:href="#f1_p" transform="matrix(12,0,0,12,547.5,792)" />
<use xlink:href="#f1_d" transform="matrix(12,0,0,12,559.4,792)" />
<use xlink:href="#f1_n" transform="matrix(12,0,0,12,570.9,792)" />
<use xlink:href="#f1_m" transform="matrix(12,0,0,12,583.8,792)" />
<use xlink:href="#f1_6" transform="matrix(12,0,0,12,596.2,792)" />
<use xlink:href="#f1_a" transform="matrix(12,0,0,12,614.1,792)" />
<use xlink:href="#f1_e" transform="matrix(12,0,0,12,626.1,792)" />
<use xlink:href="#f1_j" transform="matrix(12,0,0,12,644.2,792)" />
<use xlink:href="#f1_u" transform="matrix(12,0,0,12,656.4,792)" />
<use xlink:href="#f1_5" transform="matrix(12,0,0,12,663.9,792)" />
<use xlink:href="#f1_a" transform="matrix(12,0,0,12,674.2,792)" />
<use xlink:href="#f1_16" transform="matrix(12,0,0,12,692.1,792)" />
</g>
</g>
<path d="M128.6,816.1H780.3M128.6,838.2H780.3M128.6,860.4H780.3M128.6,882.5H780.3M128.6,904.7H780.3M128.6,926.8H780.3M128.6,949H780.3M128.9,815.7V949.4M454.4,815.7V949.4M779.9,815.7V949.4" class="g0_4" />
<g clip-path="url(#c0_4)">
<g fill="#000000" >
<use xlink:href="#f1_g" transform="matrix(12,0,0,12,625.8,833.6)" />
<use xlink:href="#f1_e" transform="matrix(12,0,0,12,631.6,833.6)" />
<use xlink:href="#f1_3" transform="matrix(12,0,0,12,643.8,833.6)" />
<use xlink:href="#f1_5" transform="matrix(12,0,0,12,647.9,833.6)" />
<use xlink:href="#f1_2" transform="matrix(12,0,0,12,658.3,833.6)" />
<use xlink:href="#f1_6" transform="matrix(12,0,0,12,674.8,833.6)" />
<use xlink:href="#f1_b" transform="matrix(12,0,0,12,686.7,833.6)" />
<use xlink:href="#f1_o" transform="matrix(12,0,0,12,698.9,833.6)" />
<use xlink:href="#f1_h" transform="matrix(12,0,0,12,704.7,833.6)" />
<use xlink:href="#f1_k" transform="matrix(12,0,0,12,714.8,833.6)" />
<use xlink:href="#f1_9" transform="matrix(12,0,0,12,726.2,833.6)" />
<use xlink:href="#f1_q" transform="matrix(12,0,0,12,731.1,833.6)" />
<use xlink:href="#f1_3" transform="matrix(12,0,0,12,747.9,833.6)" />
<use xlink:href="#f1_l" transform="matrix(12,0,0,12,752,833.6)" />
<use xlink:href="#f1_e" transform="matrix(12,0,0,12,759.4,833.6)" />
<use xlink:href="#f1_g" transform="matrix(12,0,0,12,569.9,855.7)" />
<use xlink:href="#f1_6" transform="matrix(12,0,0,12,575.7,855.7)" />
<use xlink:href="#f1_m" transform="matrix(12,0,0,12,587.6,855.7)" />
<use xlink:href="#f1_3" transform="matrix(12,0,0,12,600,855.7)" />
<use xlink:href="#f1_k" transform="matrix(12,0,0,12,604.1,855.7)" />
<use xlink:href="#f1_p" transform="matrix(12,0,0,12,615.5,855.7)" />
<use xlink:href="#f1_6" transform="matrix(12,0,0,12,633.4,855.7)" />
<use xlink:href="#f1_3" transform="matrix(12,0,0,12,645.3,855.7)" />
<use xlink:href="#f1_l" transform="matrix(12,0,0,12,649.4,855.7)" />
<use xlink:href="#f1_2" transform="matrix(12,0,0,12,656.7,855.7)" />
<use xlink:href="#f1_u" transform="matrix(12,0,0,12,667.3,855.7)" />
<use xlink:href="#f1_k" transform="matrix(12,0,0,12,674.7,855.7)" />
<use xlink:href="#f1_7" transform="matrix(12,0,0,12,692.1,855.7)" />
<use xlink:href="#f1_4" transform="matrix(12,0,0,12,702.5,855.7)" />
<use xlink:href="#f1_9" transform="matrix(12,0,0,12,712.2,855.7)" />
<use xlink:href="#f1_e" transform="matrix(12,0,0,12,717.2,855.7)" />
<use xlink:href="#f1_6" transform="matrix(12,0,0,12,735.4,855.7)" />
<use xlink:href="#f1_a" transform="matrix(12,0,0,12,747.3,855.7)" />
<use xlink:href="#f1_e" transform="matrix(12,0,0,12,759.3,855.7)" />
<use xlink:href="#f1_g" transform="matrix(12,0,0,12,621.8,877.9)" />
<use xlink:href="#f1_6" transform="matrix(12,0,0,12,627.6,877.9)" />
<use xlink:href="#f1_h" transform="matrix(12,0,0,12,639.5,877.9)" />
<use xlink:href="#f1_k" transform="matrix(12,0,0,12,649.6,877.9)" />
<use xlink:href="#f1_i" transform="matrix(12,0,0,12,661.1,877.9)" />
<use xlink:href="#f1_m" transform="matrix(12,0,0,12,672.8,877.9)" />
<use xlink:href="#f1_2" transform="matrix(12,0,0,12,685.3,877.9)" />
<use xlink:href="#f1_a" transform="matrix(12,0,0,12,701.7,877.9)" />
<use xlink:href="#f1_9" transform="matrix(12,0,0,12,713.7,877.9)" />
<use xlink:href="#f1_a" transform="matrix(12,0,0,12,718.8,877.9)" />
<use xlink:href="#f1_9" transform="matrix(12,0,0,12,730.8,877.9)" />
<use xlink:href="#f1_n" transform="matrix(12,0,0,12,735.7,877.9)" />
<use xlink:href="#f1_r" transform="matrix(12,0,0,12,754.6,877.9)" />
<use xlink:href="#f1_6" transform="matrix(12,0,0,12,759.7,877.9)" />
<use xlink:href="#f1_g" transform="matrix(12,0,0,12,539,900)" />
<use xlink:href="#f1_6" transform="matrix(12,0,0,12,544.8,900)" />
<use xlink:href="#f1_7" transform="matrix(12,0,0,12,556.7,900)" />
<use xlink:href="#f1_9" transform="matrix(12,0,0,12,567.1,900)" />
<use xlink:href="#f1_a" transform="matrix(12,0,0,12,572.1,900)" />
<use xlink:href="#f1_f" transform="matrix(12,0,0,12,584.1,900)" />
<use xlink:href="#f1_9" transform="matrix(12,0,0,12,596,900)" />
<use xlink:href="#f1_j" transform="matrix(12,0,0,12,607,900)" />
<use xlink:href="#f1_3" transform="matrix(12,0,0,12,619.2,900)" />
<use xlink:href="#f1_2" transform="matrix(12,0,0,12,623.3,900)" />
<use xlink:href="#f1_7" transform="matrix(12,0,0,12,633.8,900)" />
<use xlink:href="#f1_4" transform="matrix(12,0,0,12,644.2,900)" />
<use xlink:href="#f1_3" transform="matrix(12,0,0,12,659.7,900)" />
<use xlink:href="#f1_l" transform="matrix(12,0,0,12,663.8,900)" />
<use xlink:href="#f1_n" transform="matrix(12,0,0,12,671.1,900)" />
<use xlink:href="#f1_j" transform="matrix(12,0,0,12,689.9,900)" />
<use xlink:href="#f1_3" transform="matrix(12,0,0,12,702.1,900)" />
<use xlink:href="#f1_3" transform="matrix(12,0,0,12,706.2,900)" />
<use xlink:href="#f1_f" transform="matrix(12,0,0,12,710.3,900)" />
<use xlink:href="#f1_r" transform="matrix(12,0,0,12,728,900)" />
<use xlink:href="#f1_9" transform="matrix(12,0,0,12,733.1,900)" />
<use xlink:href="#f1_7" transform="matrix(12,0,0,12,738.1,900)" />
<use xlink:href="#f1_m" transform="matrix(12,0,0,12,748.5,900)" />
<use xlink:href="#f1_2" transform="matrix(12,0,0,12,761,900)" />
<use xlink:href="#f1_16" transform="matrix(12,0,0,12,535.6,922.2)" />
<use xlink:href="#f1_j" transform="matrix(12,0,0,12,548,922.2)" />
<use xlink:href="#f1_k" transform="matrix(12,0,0,12,560.2,922.2)" />
<use xlink:href="#f1_w" transform="matrix(12,0,0,12,571.7,922.2)" />
<use xlink:href="#f1_g" transform="matrix(12,0,0,12,584.9,922.2)" />
<use xlink:href="#f1_2" transform="matrix(12,0,0,12,590.8,922.2)" />
<use xlink:href="#f1_7" transform="matrix(12,0,0,12,601.3,922.2)" />
<use xlink:href="#f1_4" transform="matrix(12,0,0,12,611.7,922.2)" />
<use xlink:href="#f1_6" transform="matrix(12,0,0,12,621.3,922.2)" />
<use xlink:href="#f1_j" transform="matrix(12,0,0,12,644.9,922.2)" />
<use xlink:href="#f1_k" transform="matrix(12,0,0,12,657.1,922.2)" />
<use xlink:href="#f1_6" transform="matrix(12,0,0,12,674.5,922.2)" />
<use xlink:href="#f1_3" transform="matrix(12,0,0,12,686.4,922.2)" />
<use xlink:href="#f1_f" transform="matrix(12,0,0,12,690.5,922.2)" />
<use xlink:href="#f1_6" transform="matrix(12,0,0,12,708.3,922.2)" />
<use xlink:href="#f1_7" transform="matrix(12,0,0,12,720.3,922.2)" />
<use xlink:href="#f1_9" transform="matrix(12,0,0,12,730.7,922.2)" />
<use xlink:href="#f1_a" transform="matrix(12,0,0,12,735.7,922.2)" />
<use xlink:href="#f1_f" transform="matrix(12,0,0,12,747.7,922.2)" />
<use xlink:href="#f1_6" transform="matrix(12,0,0,12,759.6,922.2)" />
<use xlink:href="#f2_8" transform="matrix(11,0,0,11,505.4,922.2)" />
<use xlink:href="#f2_9" transform="matrix(11,0,0,11,512.9,922.2)" />
<use xlink:href="#f2_p" transform="matrix(11,0,0,11,521.3,922.2)" />
<use xlink:href="#f1_x" transform="matrix(12,0,0,12,498.4,922.2)" />
<use xlink:href="#f1_g" transform="matrix(12,0,0,12,708.1,944.3)" />
<use xlink:href="#f1_j" transform="matrix(12,0,0,12,713.9,944.3)" />
<use xlink:href="#f1_9" transform="matrix(12,0,0,12,726.1,944.3)" />
<use xlink:href="#f1_3" transform="matrix(12,0,0,12,731.2,944.3)" />
<use xlink:href="#f1_e" transform="matrix(12,0,0,12,735.3,944.3)" />
<use xlink:href="#f1_6" transform="matrix(12,0,0,12,753.3,944.3)" />
<use xlink:href="#f1_b" transform="matrix(12,0,0,12,765.2,944.3)" />
</g>
<g fill="#0000FF" >
<use xlink:href="#f1_7" transform="matrix(12,0,0,12,649.3,984.8)" />
<use xlink:href="#f1_3" transform="matrix(12,0,0,12,660,984.8)" />
<use xlink:href="#f1_u" transform="matrix(12,0,0,12,664.5,984.8)" />
<use xlink:href="#f1_5" transform="matrix(12,0,0,12,672.3,984.8)" />
<use xlink:href="#f1_a" transform="matrix(12,0,0,12,683.1,984.8)" />
<use xlink:href="#f1_7" transform="matrix(12,0,0,12,695.5,984.8)" />
<use xlink:href="#f1_a" transform="matrix(12,0,0,12,712.4,984.8)" />
<use xlink:href="#f1_9" transform="matrix(12,0,0,12,724.9,984.8)" />
<use xlink:href="#f1_2" transform="matrix(12,0,0,12,730.3,984.8)" />
<use xlink:href="#f1_9" transform="matrix(12,0,0,12,741.2,984.8)" />
<use xlink:href="#f1_n" transform="matrix(12,0,0,12,746.6,984.8)" />
<use xlink:href="#f1_a" transform="matrix(12,0,0,12,759.8,984.8)" />
</g>
</g>
<path d="M642.9,986.6H772.1" class="g1_4" />
<g clip-path="url(#c3_4)">
<path d="M642.4,986.6h5.8" class="g1_4" />
</g>
<g clip-path="url(#c0_4)">
<g fill="#0000FF" >
<use xlink:href="#f1_14" transform="matrix(12,0,0,12,630.7,984.8)" />
</g>
</g>
<path d="M630.7,986.6h11.6" class="g1_4" />
<g clip-path="url(#c0_4)">
<g fill="#000000" >
<use xlink:href="#f3_j" transform="matrix(15.5,0,0,15.5,416.2,1052.9)" />
<use xlink:href="#f3_n" transform="matrix(15.5,0,0,15.5,431,1052.9)" />
<use xlink:href="#f3_i" transform="matrix(15.5,0,0,15.5,437.5,1052.9)" />
<use xlink:href="#f3_o" transform="matrix(15.5,0,0,15.5,449.6,1052.9)" />
<use xlink:href="#f3_p" transform="matrix(15.5,0,0,15.5,461.3,1052.9)" />
<use xlink:href="#f3_o" transform="matrix(15.5,0,0,15.5,475,1052.9)" />
<use xlink:href="#f3_3" transform="matrix(15.5,0,0,15.5,486.8,1052.9)" />
<use xlink:href="#f3_j" transform="matrix(15.5,0,0,15.5,499.6,1052.9)" />
<use xlink:href="#f3_n" transform="matrix(15.5,0,0,15.5,514.4,1052.9)" />
<use xlink:href="#f3_q" transform="matrix(15.5,0,0,15.5,520.9,1052.9)" />
<use xlink:href="#f3_i" transform="matrix(15.5,0,0,15.5,532.7,1052.9)" />
<use xlink:href="#f3_5" transform="matrix(15.5,0,0,15.5,544.7,1052.9)" />
<use xlink:href="#f3_r" transform="matrix(15.5,0,0,15.5,557.8,1052.9)" />
<use xlink:href="#f3_o" transform="matrix(15.5,0,0,15.5,571.7,1052.9)" />
<use xlink:href="#f3_s" transform="matrix(15.5,0,0,15.5,589.7,1052.9)" />
<use xlink:href="#f3_n" transform="matrix(15.5,0,0,15.5,604.9,1052.9)" />
<use xlink:href="#f3_g" transform="matrix(15.5,0,0,15.5,611.5,1052.9)" />
<use xlink:href="#f3_p" transform="matrix(15.5,0,0,15.5,622.9,1052.9)" />
<use xlink:href="#f3_5" transform="matrix(15.5,0,0,15.5,636.7,1052.9)" />
<use xlink:href="#f3_t" transform="matrix(15.5,0,0,15.5,656.2,1052.9)" />
<use xlink:href="#f3_n" transform="matrix(15.5,0,0,15.5,662.6,1052.9)" />
<use xlink:href="#f3_o" transform="matrix(15.5,0,0,15.5,669.1,1052.9)" />
<use xlink:href="#f3_s" transform="matrix(15.5,0,0,15.5,687.2,1052.9)" />
<use xlink:href="#f3_n" transform="matrix(15.5,0,0,15.5,702.3,1052.9)" />
<use xlink:href="#f3_g" transform="matrix(15.5,0,0,15.5,708.9,1052.9)" />
<use xlink:href="#f3_q" transform="matrix(15.5,0,0,15.5,720.3,1052.9)" />
<use xlink:href="#f3_o" transform="matrix(15.5,0,0,15.5,732.1,1052.9)" />
<use xlink:href="#f3_6" transform="matrix(15.5,0,0,15.5,744,1052.9)" />
<use xlink:href="#f3_6" transform="matrix(15.5,0,0,15.5,757.8,1052.9)" />
<use xlink:href="#f0_k" transform="matrix(12,0,0,12,685.4,1098.5)" />
<use xlink:href="#f0_9" transform="matrix(12,0,0,12,697.9,1098.5)" />
<use xlink:href="#f0_3" transform="matrix(12,0,0,12,709,1098.5)" />
<use xlink:href="#f0_i" transform="matrix(12,0,0,12,722.5,1098.5)" />
<use xlink:href="#f0_8" transform="matrix(12,0,0,12,730.7,1098.5)" />
<use xlink:href="#f0_4" transform="matrix(12,0,0,12,743.4,1098.5)" />
<use xlink:href="#f0_q" transform="matrix(12,0,0,12,754.4,1098.5)" />
<use xlink:href="#f0_r" transform="matrix(12,0,0,12,764.8,1098.5)" />
<use xlink:href="#f1_j" transform="matrix(12,0,0,12,138.3,1119.9)" />
<use xlink:href="#f1_n" transform="matrix(12,0,0,12,150.5,1119.9)" />
<use xlink:href="#f1_3" transform="matrix(12,0,0,12,170.1,1119.9)" />
<use xlink:href="#f1_d" transform="matrix(12,0,0,12,174.3,1119.9)" />
<use xlink:href="#f1_7" transform="matrix(12,0,0,12,185.7,1119.9)" />
<use xlink:href="#f1_k" transform="matrix(12,0,0,12,202.6,1119.9)" />
<use xlink:href="#f1_h" transform="matrix(12,0,0,12,214.1,1119.9)" />
<use xlink:href="#f1_l" transform="matrix(12,0,0,12,224.1,1119.9)" />
<use xlink:href="#f1_j" transform="matrix(12,0,0,12,238.2,1119.9)" />
<use xlink:href="#f1_3" transform="matrix(12,0,0,12,250.2,1119.9)" />
<use xlink:href="#f1_5" transform="matrix(12,0,0,12,254.3,1119.9)" />
<use xlink:href="#f1_c" transform="matrix(12,0,0,12,264.7,1119.9)" />
<use xlink:href="#f1_m" transform="matrix(12,0,0,12,277.7,1119.9)" />
<use xlink:href="#f1_6" transform="matrix(12,0,0,12,290.2,1119.9)" />
<use xlink:href="#f1_r" transform="matrix(12,0,0,12,308.6,1119.9)" />
<use xlink:href="#f1_m" transform="matrix(12,0,0,12,313.7,1119.9)" />
<use xlink:href="#f1_c" transform="matrix(12,0,0,12,333,1119.9)" />
<use xlink:href="#f1_7" transform="matrix(12,0,0,12,346,1119.9)" />
<use xlink:href="#f1_f" transform="matrix(12,0,0,12,356.4,1119.9)" />
<use xlink:href="#f1_2" transform="matrix(12,0,0,12,368.3,1119.9)" />
<use xlink:href="#f1_g" transform="matrix(12,0,0,12,385.5,1119.9)" />
<use xlink:href="#f1_7" transform="matrix(12,0,0,12,391.4,1119.9)" />
<use xlink:href="#f1_k" transform="matrix(12,0,0,12,401.8,1119.9)" />
<use xlink:href="#f1_9" transform="matrix(12,0,0,12,413.2,1119.9)" />
<use xlink:href="#f1_d" transform="matrix(12,0,0,12,418.2,1119.9)" />
<use xlink:href="#f1_6" transform="matrix(12,0,0,12,429.7,1119.9)" />
<use xlink:href="#f1_a" transform="matrix(12,0,0,12,448.1,1119.9)" />
<use xlink:href="#f1_3" transform="matrix(12,0,0,12,460.2,1119.9)" />
<use xlink:href="#f1_3" transform="matrix(12,0,0,12,464.3,1119.9)" />
<use xlink:href="#f1_p" transform="matrix(12,0,0,12,468.4,1119.9)" />
<use xlink:href="#f1_6" transform="matrix(12,0,0,12,480.3,1119.9)" />
<use xlink:href="#f1_2" transform="matrix(12,0,0,12,492.2,1119.9)" />
<use xlink:href="#f1_6" transform="matrix(12,0,0,12,509.6,1119.9)" />
<use xlink:href="#f1_2" transform="matrix(12,0,0,12,521.5,1119.9)" />
<use xlink:href="#f1_c" transform="matrix(12,0,0,12,532,1119.9)" />
<use xlink:href="#f1_l" transform="matrix(12,0,0,12,545,1119.9)" />
<use xlink:href="#f1_9" transform="matrix(12,0,0,12,552.3,1119.9)" />
<use xlink:href="#f1_5" transform="matrix(12,0,0,12,564.1,1119.9)" />
<use xlink:href="#f1_4" transform="matrix(12,0,0,12,574.3,1119.9)" />
<use xlink:href="#f1_b" transform="matrix(12,0,0,12,583.9,1119.9)" />
<use xlink:href="#f1_r" transform="matrix(12,0,0,12,597,1119.9)" />
<use xlink:href="#f1_3" transform="matrix(12,0,0,12,602.1,1119.9)" />
<use xlink:href="#f1_2" transform="matrix(12,0,0,12,606.2,1119.9)" />
<use xlink:href="#f1_7" transform="matrix(12,0,0,12,623.4,1119.9)" />
<use xlink:href="#f1_h" transform="matrix(12,0,0,12,633.8,1119.9)" />
<use xlink:href="#f1_2" transform="matrix(12,0,0,12,643.9,1119.9)" />
<use xlink:href="#f1_6" transform="matrix(12,0,0,12,654.4,1119.9)" />
<use xlink:href="#f1_r" transform="matrix(12,0,0,12,673,1119.9)" />
<use xlink:href="#f1_3" transform="matrix(12,0,0,12,677.9,1119.9)" />
<use xlink:href="#f1_e" transform="matrix(12,0,0,12,682,1119.9)" />
<use xlink:href="#f1_a" transform="matrix(12,0,0,12,700.9,1119.9)" />
<use xlink:href="#f1_3" transform="matrix(12,0,0,12,713,1119.9)" />
<use xlink:href="#f1_h" transform="matrix(12,0,0,12,717.1,1119.9)" />
<use xlink:href="#f1_5" transform="matrix(12,0,0,12,727,1119.9)" />
<use xlink:href="#f1_d" transform="matrix(12,0,0,12,737.4,1119.9)" />
<use xlink:href="#f1_i" transform="matrix(12,0,0,12,748.8,1119.9)" />
<use xlink:href="#f1_2" transform="matrix(12,0,0,12,760.7,1119.9)" />
<use xlink:href="#f1_g" transform="matrix(12,0,0,12,531.1,1141.3)" />
<use xlink:href="#f1_6" transform="matrix(12,0,0,12,536.9,1141.3)" />
<use xlink:href="#f1_2" transform="matrix(12,0,0,12,548.8,1141.3)" />
<use xlink:href="#f1_c" transform="matrix(12,0,0,12,559.3,1141.3)" />
<use xlink:href="#f1_l" transform="matrix(12,0,0,12,572.3,1141.3)" />
<use xlink:href="#f1_9" transform="matrix(12,0,0,12,585.5,1141.3)" />
<use xlink:href="#f1_e" transform="matrix(12,0,0,12,590.5,1141.3)" />
<use xlink:href="#f1_5" transform="matrix(12,0,0,12,608.6,1141.3)" />
<use xlink:href="#f1_4" transform="matrix(12,0,0,12,619,1141.3)" />
<use xlink:href="#f1_b" transform="matrix(12,0,0,12,628.6,1141.3)" />
<use xlink:href="#f1_2" transform="matrix(12,0,0,12,635,1141.3)" />
<use xlink:href="#f1_5" transform="matrix(12,0,0,12,651.4,1141.3)" />
<use xlink:href="#f1_2" transform="matrix(12,0,0,12,661.8,1141.3)" />
<use xlink:href="#f1_9" transform="matrix(12,0,0,12,672.3,1141.3)" />
<use xlink:href="#f1_h" transform="matrix(12,0,0,12,677.2,1141.3)" />
<use xlink:href="#f1_m" transform="matrix(12,0,0,12,687.3,1141.3)" />
<use xlink:href="#f1_j" transform="matrix(12,0,0,12,705.6,1141.3)" />
<use xlink:href="#f1_e" transform="matrix(12,0,0,12,717.8,1141.3)" />
<use xlink:href="#f1_t" transform="matrix(12,0,0,12,735.8,1141.3)" />
<use xlink:href="#f1_9" transform="matrix(12,0,0,12,747.6,1141.3)" />
<use xlink:href="#f1_u" transform="matrix(12,0,0,12,752.6,1141.3)" />
<use xlink:href="#f1_6" transform="matrix(12,0,0,12,760.1,1141.3)" />
<use xlink:href="#f1_13" transform="matrix(11,0,0,11,137.5,1208.9)" />
</g>
</g>
<defs>
<path d="M248,0L521,658H66v429H313V836l493,-1V716L504,0Z" 
id="f0_b"
transform="scale(0.001,-0.001)" />

<path d="M102,250V836H349V351L102,250Z" 
id="f0_h"
transform="scale(0.001,-0.001)" />

<path d="M154,-13c0,0,-38,0,-85,9V198c0,0,58,-15,103,-15c0,0,84,0,118,60c0,0,35,61,35,206c0,0,0,66,-7,105c0,0,-6,39,-24,63c0,0,-17,25,-44,33c0,0,-27,8,-73,8H66V836H225c0,0,198,0,275,-115c0,0,56,-84,65,-264c0,0,3,-55,3,-148c0,0,0,-177,71,-309L393,1c0,0,-53,130,-54,141c0,0,-28,-90,-65,-123c0,0,-38,-32,-120,-32Z" 
id="f0_f"
transform="scale(0.001,-0.001)" />

<path d="M534,0V425c0,0,0,109,-41,171c0,0,-41,62,-140,62H66V836H352c0,0,99,0,174,-20c0,0,75,-20,123,-55c0,0,48,-35,78,-87c0,0,30,-53,42,-113c0,0,12,-60,12,-136V0Z" 
id="f0_4"
transform="scale(0.001,-0.001)" />

<path d="M173,-6C173,-6,61,-6,15,9V177c0,0,73,-10,82,-10c0,0,37,0,52,30c0,0,14,29,14,116V658H18V836H516c0,0,262,0,341,-145c0,0,48,-89,48,-242V0H658V450c0,0,0,131,-37,171c0,0,-34,37,-105,37H411V313c0,0,0,-189,-67,-258C344,55,285,-6,173,-6Z" 
id="f0_7"
transform="scale(0.001,-0.001)" />

<path d="M445,-20c0,0,-86,0,-172,13c0,0,-86,13,-170,40V255c0,0,80,-40,160,-60c0,0,79,-21,156,-21c0,0,114,0,174,40c0,0,61,39,61,113c0,0,0,76,-62,115c0,0,-62,39,-184,39H293V666H414c0,0,108,0,161,34c0,0,53,34,53,103c0,0,0,65,-52,100c0,0,-51,35,-145,35c0,0,-69,0,-140,-16c0,0,-70,-15,-140,-46v210c0,0,85,24,168,36c0,0,83,12,164,12c0,0,217,0,325,-71c0,0,107,-71,107,-215c0,0,0,-98,-51,-160c0,0,-52,-62,-152,-88c0,0,112,-29,171,-101c0,0,59,-72,59,-183c0,0,0,-165,-127,-251c0,0,-127,-85,-370,-85Z" 
id="f0_o"
transform="scale(0.001,-0.001)" />

<path d="M154,0V454l138,56V0ZM722,0V454c0,0,0,161,-49,218c0,0,-48,57,-186,57H139V836H485c0,0,207,0,291,-93c0,0,83,-94,83,-318V0Z" 
id="f1_6"
transform="scale(0.001,-0.001)" />

<path d="M287,0L589,729H66v386H205V836l547,-1l-2,-82L433,0Z" 
id="f1_7"
transform="scale(0.001,-0.001)" />

<path d="M66,0V107H554V452c0,0,0,56,-4,93c0,0,-4,37,-18,75c0,0,-14,38,-40,60c0,0,-26,22,-71,36c0,0,-45,13,-110,13H66V836H312c0,0,91,0,157,-17c0,0,66,-17,109,-49c0,0,44,-32,69,-84c0,0,26,-52,36,-114c0,0,10,-62,10,-147V107H817V0Z" 
id="f1_2"
transform="scale(0.001,-0.001)" />

<path d="M522,-20c0,0,-196,0,-290,99c0,0,-94,100,-94,324V836H276V397c0,0,0,-86,16,-147c0,0,17,-60,50,-94c0,0,34,-34,77,-49c0,0,43,-15,103,-15c0,0,59,0,102,15c0,0,44,15,77,49c0,0,33,34,50,94c0,0,17,61,17,147c0,0,0,84,-8,143c0,0,-7,58,-25,105c0,0,-17,47,-51,69c0,0,-33,23,-83,23c0,0,-50,0,-119,-22V821c0,0,85,23,150,23c0,0,76,0,130,-30c0,0,53,-31,85,-90c0,0,31,-59,45,-138c0,0,13,-78,13,-183c0,0,0,-224,-93,-324c0,0,-94,-99,-290,-99Z" 
id="f1_p"
transform="scale(0.001,-0.001)" />

<path d="M112,-5c0,0,-39,0,-97,11V113c0,0,48,-10,77,-10c0,0,53,0,70,42c0,0,17,43,17,164V729H50V836H501c0,0,107,0,179,-25c0,0,72,-25,112,-77c0,0,40,-51,57,-118c0,0,16,-67,16,-164V0H726V454c0,0,0,55,-3,92c0,0,-4,37,-17,75c0,0,-14,38,-38,59c0,0,-24,22,-65,36c0,0,-42,13,-102,13H318V309c0,0,0,-160,-46,-237C272,72,226,-5,112,-5Z" 
id="f1_a"
transform="scale(0.001,-0.001)" />

<path d="M139,0V138c0,0,0,61,8,112c0,0,7,52,19,87c0,0,11,36,30,66c0,0,19,31,35,49c0,0,17,19,41,35c0,0,25,17,41,25c0,0,17,7,40,17L141,836H303L613,388c0,0,20,10,33,18c0,0,13,8,34,28c0,0,20,20,33,44c0,0,13,25,22,66c0,0,10,41,10,92V836H882V698c0,0,0,-61,-7,-112c0,0,-6,-52,-18,-88c0,0,-12,-36,-30,-66c0,0,-19,-30,-36,-49c0,0,-17,-18,-41,-34c0,0,-24,-17,-40,-25c0,0,-17,-8,-41,-17L882,0H720L409,448c0,0,-21,-11,-34,-19c0,0,-13,-8,-34,-27c0,0,-21,-20,-34,-44c0,0,-12,-25,-22,-66c0,0,-9,-41,-9,-92V0Z" 
id="f1_e"
transform="scale(0.001,-0.001)" />

<path d="M114,0l60,312c0,0,2,12,8,39c0,0,6,27,7,37c0,0,2,11,5,30c0,0,2,19,4,33c0,0,1,15,1,31c0,0,0,48,-35,146c0,0,-35,98,-98,208H228c0,0,3,-8,27,-67c0,0,25,-58,41,-117c0,0,21,53,50,90c0,0,29,37,57,57c0,0,29,21,65,32c0,0,37,11,65,14c0,0,28,3,67,3c0,0,300,0,300,-396V0H480V106H761V452c0,0,0,146,-46,215c0,0,-45,70,-118,70c0,0,-134,0,-198,-119c0,0,-36,-68,-67,-222c0,0,-2,-10,-6,-27L253,0Z" 
id="f1_m"
transform="scale(0.001,-0.001)" />

<path d="M102,312V836H241V369L102,312Z" 
id="f1_3"
transform="scale(0.001,-0.001)" />

<path d="M495,0V729H66V836H781V729H634V0Z" 
id="f1_h"
transform="scale(0.001,-0.001)" />

<path d="M66,0V106H322c0,0,75,0,127,23c0,0,53,23,82,67c0,0,29,43,42,98c0,0,13,54,13,124c0,0,0,70,-13,124c0,0,-13,55,-42,98c0,0,-29,44,-82,67c0,0,-52,23,-127,23H66V836H322c0,0,87,0,157,-24c0,0,70,-24,115,-64c0,0,45,-40,74,-94c0,0,30,-55,43,-113c0,0,13,-59,13,-123c0,0,0,-64,-13,-123c0,0,-13,-58,-43,-113c0,0,-29,-54,-74,-94C594,88,549,48,479,24C479,24,409,0,322,0Z" 
id="f1_4"
transform="scale(0.001,-0.001)" />

<path d="M736,107V473c0,0,0,147,-48,202c0,0,-49,54,-187,54H278V107ZM139,0V836H499c0,0,105,0,177,-22c0,0,72,-21,116,-69c0,0,44,-49,64,-119c0,0,19,-71,19,-174V0Z" 
id="f1_j"
transform="scale(0.001,-0.001)" />

<path d="M71,-141V-15L289,62L66,836H210L416,109c0,0,99,42,153,98c0,0,53,56,80,155c0,0,26,98,26,262V836H817V624c0,0,0,-88,-7,-154c0,0,-7,-67,-25,-132c0,0,-18,-66,-51,-116c0,0,-33,-51,-84,-98c0,0,-50,-48,-123,-87c0,0,-72,-39,-169,-74L71,-141Z" 
id="f1_k"
transform="scale(0.001,-0.001)" />

<path d="M139,0V106H400c0,0,176,0,253,71c0,0,78,72,78,250c0,0,0,163,-80,233c0,0,-81,69,-250,69H278L277,564c0,0,-1,-54,26,-80c0,0,27,-25,82,-25c0,0,30,0,80,9V355c0,0,-61,-12,-111,-12c0,0,-100,0,-157,55c0,0,-58,55,-58,186V836H456c0,0,193,0,303,-109c0,0,110,-109,110,-309c0,0,0,-200,-110,-309C759,109,648,0,456,0Z" 
id="f1_d"
transform="scale(0.001,-0.001)" />

<path d="M180,0L66,836H203L258,443c0,0,36,1,64,6c0,0,28,6,49,18c0,0,20,12,35,26c0,0,15,13,26,36c0,0,11,24,17,44c0,0,7,20,12,55c0,0,6,34,9,60c0,0,3,26,8,71c0,0,4,45,9,77H610c0,0,-13,-194,-31,-271c0,0,-31,-127,-111,-179c0,0,-71,-45,-196,-50L304,107c0,0,73,0,130,5c0,0,56,6,111,21c0,0,54,15,94,40c0,0,40,25,77,64c0,0,37,39,63,94c0,0,25,54,46,128c0,0,21,73,34,166c0,0,13,94,20,211h138c0,0,-14,-124,-29,-218c0,0,-16,-94,-39,-179c0,0,-22,-85,-50,-146c0,0,-28,-61,-68,-112c0,0,-39,-51,-87,-84C744,97,696,65,632,42C632,42,568,19,492,10C492,10,417,0,320,0Z" 
id="f1_n"
transform="scale(0.001,-0.001)" />

<path d="M74,357V479H476V357Z" 
id="f1_16"
transform="scale(0.001,-0.001)" />

<path d="M399,-14c0,0,-341,0,-341,370c0,0,0,175,87,269c0,0,87,95,249,95c0,0,101,0,220,-23V501H573L541,625c0,0,-62,35,-149,35c0,0,-200,0,-200,-304c0,0,0,-158,61,-225c0,0,61,-67,189,-67c0,0,109,0,189,24V43C631,43,595,16,530,1c0,0,-64,-15,-131,-15Z" 
id="f2_8"
transform="scale(0.001,-0.001)" />

<path d="M284,67c0,0,51,0,88,12c0,0,37,12,74,30V358l-98,-3c0,0,-100,-4,-135,-39c0,0,-35,-35,-35,-117c0,0,0,-132,106,-132ZM233,-14c0,0,-179,0,-179,208c0,0,0,70,27,116c0,0,27,46,87,70c0,0,60,24,173,27l105,3V519c0,0,0,72,-26,107c0,0,-27,34,-82,34c0,0,-75,0,-137,-35L176,538H134V691c0,0,121,26,213,26c0,0,115,0,169,-47c0,0,54,-47,54,-144V52L657,33V0H465L451,70c0,0,-85,-84,-218,-84Z" 
id="f2_b"
transform="scale(0.001,-0.001)" />

<path d="M431,0V33L535,52V499c0,0,0,62,-32,96c0,0,-32,33,-95,33c0,0,-66,0,-163,-22V52L350,33V0H32V33l89,19V649L32,668v33H237l6,-57c0,0,56,32,119,54c0,0,62,22,110,22c0,0,52,0,95,-20c0,0,44,-19,66,-62c0,0,57,32,134,57c0,0,77,25,128,25c0,0,179,0,179,-207V52l90,-19V0H846V33L950,52V499c0,0,0,129,-119,129c0,0,-19,0,-45,-3c0,0,-26,-3,-52,-7c0,0,-25,-4,-49,-8c0,0,-23,-5,-39,-8c0,0,13,-41,13,-89V52L764,33V0Z" 
id="f2_a"
transform="scale(0.001,-0.001)" />

<path d="M32,0V33L151,52V649L52,668v33H275V52L395,33V0ZM201,850c0,0,-32,0,-56,24c0,0,-24,24,-24,56c0,0,0,34,24,58c0,0,24,24,56,24c0,0,34,0,58,-24c0,0,24,-24,24,-58c0,0,0,-32,-24,-56c0,0,-24,-24,-58,-24Z" 
id="f2_7"
transform="scale(0.001,-0.001)" />

<path d="M439,0V33l93,19V500c0,0,0,62,-30,97c0,0,-31,36,-94,36c0,0,-67,0,-165,-22V52L338,33V0H35V33l84,19V649L35,668v33H235l7,-57c0,0,57,33,122,54c0,0,65,22,108,22c0,0,91,0,137,-53c0,0,47,-53,47,-154V52L741,33V0Z" 
id="f2_p"
transform="scale(0.001,-0.001)" />

<path d="M31,0V33l88,19V649L31,668v33H235l7,-87c0,0,44,37,121,71c0,0,76,35,121,35h11V530H463l-43,82c0,0,-37,0,-88,-10c0,0,-52,-10,-89,-26V52L363,33V0Z" 
id="f2_r"
transform="scale(0.001,-0.001)" />

<path d="M117,-176L179,62V190H336V62L213,-176Z" 
id="f1_o"
transform="scale(0.001,-0.001)" />

<path d="M139,0V836H278V0Z" 
id="f1_9"
transform="scale(0.001,-0.001)" />

<path d="M66,0V106H564L66,836H228L516,413c0,0,3,2,9,6c0,0,17,13,27,21c0,0,10,8,26,27c0,0,17,20,26,40c0,0,9,21,16,54c0,0,7,34,7,75V836H764V698c0,0,0,-55,-7,-102c0,0,-7,-47,-16,-79c0,0,-10,-33,-27,-62c0,0,-18,-29,-32,-46c0,0,-14,-17,-37,-35c0,0,-22,-17,-36,-25c0,0,-13,-8,-36,-20L767,53V0Z" 
id="f1_q"
transform="scale(0.001,-0.001)" />

<path d="M74,365V472H689V365Z" 
id="f1_17"
transform="scale(0.001,-0.001)" />

<path d="M376,50c0,0,103,0,149,80c0,0,46,81,46,240c0,0,0,137,-47,204c0,0,-48,67,-148,67c0,0,-44,0,-87,-7c0,0,-44,-8,-63,-17V62c0,0,63,-12,150,-12Zm3,-64c0,0,-64,0,-141,14c0,0,-78,14,-136,37v971L0,1026v34H226V809c0,0,0,-40,-4,-148c0,0,74,59,188,59c0,0,143,0,219,-87c0,0,77,-87,77,-263c0,0,0,-189,-84,-287c0,0,-84,-97,-243,-97Z" 
id="f2_10"
transform="scale(0.001,-0.001)" />

<path d="M495,413c0,0,0,133,-34,190c0,0,-34,57,-105,57c0,0,-78,0,-119,-63c0,0,-42,-62,-42,-184ZM374,-14c0,0,-163,0,-239,87c0,0,-75,88,-75,283c0,0,0,183,77,273c0,0,76,91,219,91c0,0,269,0,269,-306V353H194V340c0,0,0,-103,23,-160c0,0,22,-57,70,-87c0,0,47,-29,124,-29c0,0,40,0,96,6c0,0,55,7,91,15V43C598,43,562,20,500,3c0,0,-61,-17,-126,-17Z" 
id="f2_l"
transform="scale(0.001,-0.001)" />

<path d="M278,-14c0,0,-52,0,-115,11c0,0,-63,10,-99,23V193H98L134,95c0,0,56,-50,146,-50c0,0,144,0,144,123c0,0,0,91,-114,130l-66,21c0,0,-75,25,-110,50c0,0,-34,26,-53,63c0,0,-18,36,-18,89c0,0,0,92,63,145c0,0,63,54,170,54c0,0,77,0,193,-23V544H454l-32,81c0,0,-39,35,-124,35c0,0,-61,0,-92,-30c0,0,-32,-30,-32,-80c0,0,0,-43,29,-72c0,0,28,-29,86,-48c0,0,110,-38,144,-55c0,0,33,-17,57,-42c0,0,23,-25,36,-57c0,0,13,-32,13,-79c0,0,0,-104,-66,-158c0,0,-66,-53,-195,-53Z" 
id="f2_q"
transform="scale(0.001,-0.001)" />

<path d="M289,-14c0,0,-179,0,-179,205V649L20,668v33H233V200c0,0,0,-128,120,-128c0,0,92,0,173,23V649L420,668v33H649V52L738,33V0H533l-6,57C527,57,474,28,405,7c0,0,-69,-21,-116,-21Z" 
id="f2_y"
transform="scale(0.001,-0.001)" />

<path d="M163,0V190H321V0Z" 
id="f1_g"
transform="scale(0.001,-0.001)" />

<path d="M322,0V40L481,60V389L130,941L17,960v40H440V960L306,941L593,480L866,941L739,960v40h326V960L955,941L625,394V60L784,40V0Z" 
id="f2_z"
transform="scale(0.001,-0.001)" />

<path d="M377,45c0,0,99,0,147,73c0,0,47,73,47,237c0,0,0,161,-47,233c0,0,-47,72,-147,72c0,0,-97,0,-141,-69c0,0,-44,-69,-44,-236c0,0,0,-169,45,-240c0,0,44,-70,140,-70Zm0,-59c0,0,-158,0,-238,94c0,0,-81,95,-81,274c0,0,0,178,81,272c0,0,80,94,244,94c0,0,160,0,241,-92c0,0,82,-92,82,-274c0,0,0,-368,-329,-368Z" 
id="f2_9"
transform="scale(0.001,-0.001)" />

<path d="M191,-20c0,0,-39,0,-65,25c0,0,-25,27,-25,64c0,0,0,38,26,64c0,0,26,26,64,26c0,0,38,0,64,-26c0,0,26,-26,26,-64c0,0,0,-37,-25,-64c0,0,-26,-25,-65,-25Z" 
id="f2_o"
transform="scale(0.001,-0.001)" />

<path d="M868,0L251,900V60L385,40V0H44V40L172,60V941L44,960v40H347L862,259V941L727,960v40h341V960L940,941V0Z" 
id="f2_11"
transform="scale(0.001,-0.001)" />

<path d="M249,-14c0,0,-71,0,-107,42c0,0,-35,42,-35,119V639H15v33l93,29l76,159h47V701H391V639H231V161c0,0,0,-48,22,-73c0,0,22,-24,57,-24c0,0,44,0,106,12V26C416,26,389,8,340,-2c0,0,-49,-12,-91,-12Z" 
id="f2_d"
transform="scale(0.001,-0.001)" />

<path d="M44,0V40L172,60V941L44,960v40H794V760H745L721,922c0,0,-83,11,-241,11H316V543H586l23,119h48V354H609L586,475H316V67H513c0,0,193,0,252,12l43,185h49L843,0Z" 
id="f2_4"
transform="scale(0.001,-0.001)" />

<path d="M31,0V33L150,52v956L31,1026v34H274V52L394,33V0Z" 
id="f2_j"
transform="scale(0.001,-0.001)" />

<path d="M66,0V107H332V555c0,0,0,92,-37,133c0,0,-37,41,-116,41H85V836h94c0,0,153,0,223,-66c0,0,69,-66,69,-231V0Z" 
id="f1_l"
transform="scale(0.001,-0.001)" />

<path d="M139,0V836H485c0,0,206,0,290,-90c0,0,84,-89,84,-294V0H721V473c0,0,0,147,-49,202c0,0,-48,54,-186,54H277V0Z" 
id="f1_f"
transform="scale(0.001,-0.001)" />

<path d="M139,-317V836H278V-317Z" 
id="f1_r"
transform="scale(0.001,-0.001)" />

<path d="M557,-14c0,0,-199,0,-298,89c0,0,-99,90,-99,255V941L32,960v40H432V960L304,941V341c0,0,0,-273,264,-273c0,0,144,0,220,68c0,0,77,68,77,202V941L730,960v40h341V960L943,941V344c0,0,0,-180,-99,-269c0,0,-99,-89,-287,-89Z" 
id="f2_m"
transform="scale(0.001,-0.001)" />

<path d="M383,64c0,0,85,0,152,28V645c0,0,-67,13,-152,13c0,0,-194,0,-194,-314c0,0,0,-141,48,-211c0,0,48,-69,146,-69ZM342,-14c0,0,-287,0,-287,358c0,0,0,184,82,280c0,0,81,96,239,96c0,0,81,0,163,-18c0,0,-4,25,-4,124v182l-118,18v34H659V52L745,33V0H548l-9,52c0,0,-84,-66,-197,-66Z" 
id="f2_n"
transform="scale(0.001,-0.001)" />

<path d="M138,-7c0,0,-34,0,-72,10V129c0,0,25,-8,52,-8c0,0,33,0,58,5c0,0,26,5,58,24c0,0,33,20,53,54c0,0,21,34,36,97c0,0,15,64,15,151c0,0,0,113,-19,173c0,0,-19,60,-56,82c0,0,-38,22,-107,22H89V836h72c0,0,165,0,240,-91c0,0,76,-91,76,-293c0,0,0,-107,26,-227c0,0,25,-119,83,-225H437c0,0,-43,101,-62,184c0,0,-24,-60,-51,-99c0,0,-26,-38,-56,-58C268,27,239,7,209,0c0,0,-30,-7,-71,-7Z" 
id="f1_u"
transform="scale(0.001,-0.001)" />

<path d="M585,0V426c0,0,0,54,-8,98c0,0,-8,44,-27,83c0,0,-19,40,-49,66c0,0,-30,26,-77,41c0,0,-47,15,-108,15H66V836H315c0,0,94,0,166,-20c0,0,71,-20,116,-54c0,0,46,-35,75,-88c0,0,28,-52,40,-112c0,0,12,-60,12,-137V0Z" 
id="f1_5"
transform="scale(0.001,-0.001)" />

<path d="M414,-20c0,0,-70,0,-144,13c0,0,-75,13,-154,40V179c0,0,63,-36,138,-55c0,0,74,-18,156,-18c0,0,142,0,216,55c0,0,74,56,74,163c0,0,0,98,-69,153c0,0,-69,56,-192,56H309V657H445c0,0,111,0,170,44c0,0,59,45,59,128c0,0,0,86,-61,132c0,0,-61,46,-174,46c0,0,-62,0,-133,-13c0,0,-71,-14,-156,-42v134c0,0,85,24,160,36c0,0,75,12,142,12c0,0,171,0,271,-78c0,0,100,-78,100,-211c0,0,0,-92,-53,-156c0,0,-52,-64,-150,-89c0,0,108,-23,169,-96c0,0,61,-73,61,-180c0,0,0,-165,-114,-255c0,0,-113,-89,-322,-89Z" 
id="f1_11"
transform="scale(0.001,-0.001)" />

<path d="M562,411V877L247,411ZM562,0V202H68V449l447,665H834V411H993V202H834V0Z" 
id="f0_6"
transform="scale(0.001,-0.001)" />

<path d="M522,92c0,0,247,0,247,333c0,0,0,88,-17,146c0,0,-17,58,-53,91c0,0,-35,33,-82,46c0,0,-48,14,-116,14H276V419c0,0,0,-327,246,-327Zm0,-112c0,0,-193,0,-289,109c0,0,-95,110,-95,337V836H501c0,0,213,0,309,-93c0,0,96,-94,96,-317c0,0,0,-227,-95,-337C811,89,715,-20,522,-20Z" 
id="f1_i"
transform="scale(0.001,-0.001)" />

<path d="M360,-14L72,649L0,668v33H327V668L216,648L420,164L615,649L504,668v33H764V668L697,652L416,-14Z" 
id="f2_6"
transform="scale(0.001,-0.001)" />

<path d="M394,460c0,0,126,0,186,57c0,0,60,57,60,187c0,0,0,123,-57,176c0,0,-58,53,-194,53H316V460ZM54,0V40L172,60V941L44,960v40H421c0,0,368,0,368,-295c0,0,0,-153,-93,-233c0,0,-93,-80,-267,-80H316V60L475,40V0Z" 
id="f2_12"
transform="scale(0.001,-0.001)" />

<path d="M64,0V34L168,59V639H47v36l121,29v49c0,0,0,155,61,239c0,0,62,84,173,84c0,0,58,0,107,-15V908H472l-33,92c0,0,-26,16,-62,16c0,0,-47,0,-66,-42c0,0,-19,-42,-19,-157V701H478V639H292V59L443,34V0Z" 
id="f2_13"
transform="scale(0.001,-0.001)" />

<path d="M58,-234v58c0,0,131,42,131,125c0,0,0,15,-11,27c0,0,-11,12,-38,25C140,1,89,27,89,75c0,0,0,40,25,61c0,0,26,21,65,21c0,0,48,0,77,-34c0,0,30,-34,30,-86c0,0,0,-101,-60,-170c0,0,-59,-69,-168,-101Z" 
id="f2_v"
transform="scale(0.001,-0.001)" />

<path d="M442,0V33l93,19V504c0,0,0,129,-124,129c0,0,-70,0,-168,-22V52L338,33V0H31V33l88,19v956L15,1026v34H243V756c0,0,0,-77,-5,-112c0,0,54,31,122,53c0,0,68,23,115,23c0,0,91,0,137,-53c0,0,47,-53,47,-154V52L744,33V0Z" 
id="f2_14"
transform="scale(0.001,-0.001)" />

<path d="M495,413c0,0,0,133,-34,190c0,0,-34,57,-105,57c0,0,-78,0,-119,-62c0,0,-42,-63,-42,-185ZM374,-14c0,0,-163,0,-239,87c0,0,-75,88,-75,283c0,0,0,183,77,274c0,0,76,90,219,90c0,0,269,0,269,-306V353H194V339c0,0,0,-103,23,-160c0,0,22,-57,70,-86c0,0,47,-30,124,-30c0,0,40,0,96,6c0,0,55,7,91,15V43C598,43,562,19,500,2c0,0,-61,-16,-126,-16ZM285,835v24l146,203H590v-27L326,835Z" 
id="f2_h"
transform="scale(0.001,-0.001)" />

<path d="M382,45c0,0,188,0,188,314c0,0,0,143,-47,213c0,0,-46,69,-141,69c0,0,-87,0,-146,-24V58c0,0,67,-13,146,-13ZM25,-325v35l88,18V649L34,668v33H231l1,-41c0,0,31,27,84,43c0,0,53,17,107,17c0,0,134,0,208,-94c0,0,73,-93,73,-267c0,0,0,-178,-80,-276c0,0,-80,-97,-232,-97c0,0,-84,0,-160,16c0,0,4,-53,4,-84V-272l123,-18v-35Z" 
id="f2_15"
transform="scale(0.001,-0.001)" />

<path d="M35,0V34l84,18V649L35,668v33H235l7,-56c0,0,57,32,122,54c0,0,65,21,108,21c0,0,91,0,137,-53c0,0,47,-53,47,-154V52L741,34V0H439V34l93,18V500c0,0,0,62,-30,97c0,0,-31,36,-94,36c0,0,-67,0,-165,-22V52L338,34V0ZM481,834c0,0,-36,0,-66,16c0,0,-30,16,-57,36c0,0,-27,20,-52,36c0,0,-25,16,-49,16c0,0,-24,0,-39,-9c0,0,-14,-9,-23,-26c0,0,-8,-17,-13,-54H143c0,0,11,180,146,180c0,0,36,0,66,-16c0,0,30,-16,57,-35c0,0,27,-20,52,-36c0,0,25,-16,49,-16c0,0,32,0,50,18c0,0,18,19,25,70h39c0,0,-12,-180,-146,-180Z" 
id="f2_16"
transform="scale(0.001,-0.001)" />

<path d="M578,388V982L197,388ZM578,0V263H74V408l464,706H727V388H887V263H727V0Z" 
id="f1_13"
transform="scale(0.001,-0.001)" />

<path d="M491,-20c0,0,-95,0,-188,18c0,0,-93,17,-185,55V279c0,0,91,-53,173,-79c0,0,82,-26,154,-26c0,0,105,0,165,51c0,0,60,51,60,138c0,0,0,88,-60,139c0,0,-60,50,-165,50c0,0,-62,0,-132,-16c0,0,-70,-16,-151,-49v627H877V903H391V730c0,0,33,9,66,14c0,0,33,5,69,5c0,0,204,0,318,-102c0,0,113,-102,113,-284c0,0,0,-180,-123,-282C834,81,710,-20,491,-20Z" 
id="f0_p"
transform="scale(0.001,-0.001)" />

<path d="M152,0V473c0,0,0,94,28,161c0,0,29,66,71,95H66V836H463V729H404c0,0,-65,0,-89,-57c0,0,-25,-58,-25,-199V0Z" 
id="f1_b"
transform="scale(0.001,-0.001)" />

<path d="M122,-200c0,0,99,170,148,338c0,0,49,169,49,342c0,0,0,172,-49,340c0,0,-49,168,-148,340H241c0,0,112,-176,168,-345c0,0,55,-169,55,-335c0,0,0,-167,-55,-337c0,0,-56,-168,-168,-343Z" 
id="f1_w"
transform="scale(0.001,-0.001)" />

<path d="M354,-200c0,0,-112,175,-167,343c0,0,-56,170,-56,337c0,0,0,166,55,335c0,0,55,169,168,345H473c0,0,-100,-172,-148,-340c0,0,-48,-168,-48,-340c0,0,0,-173,48,-342c0,0,49,-168,148,-338Z" 
id="f1_x"
transform="scale(0.001,-0.001)" />

<path d="M411,-20c0,0,-70,0,-142,11c0,0,-73,11,-151,35V178c0,0,67,-37,139,-54c0,0,72,-18,152,-18c0,0,129,0,204,67c0,0,75,68,75,184c0,0,0,117,-75,184c0,0,-75,68,-204,68c0,0,-61,0,-121,-13c0,0,-60,-13,-123,-42v560H757V987H303V714c0,0,33,11,66,17c0,0,33,5,65,5c0,0,187,0,296,-102c0,0,109,-102,109,-277c0,0,0,-179,-112,-279c0,0,-112,-98,-316,-98Z" 
id="f1_14"
transform="scale(0.001,-0.001)" />

<path d="M721,-14c0,0,-12,0,-12,9l4,28c0,0,17,82,17,338c0,0,0,105,-11,163c0,0,-11,58,-35,84c0,0,-25,26,-83,26H315c0,0,-43,-39,-67,-90c0,0,-25,-51,-25,-104c0,0,0,-59,17,-104c0,0,17,-45,35,-78c0,0,18,-34,18,-44c0,0,0,-26,-20,-95C273,119,252,50,231,0H26L87,214h69c0,0,23,0,23,14l-7,15c0,0,-15,27,-27,68c0,0,-11,41,-11,83c0,0,0,68,25,124c0,0,25,57,86,116H200c0,0,-45,0,-71,32c0,0,-27,33,-27,94c0,0,0,49,17,93c0,0,16,43,32,43c0,0,17,0,17,-10V869c0,0,0,-24,27,-24H637c0,0,73,0,103,-18c0,0,30,-17,46,-62c0,0,17,-46,24,-124c0,0,8,-78,8,-214V338c0,0,0,-279,-27,-311c0,0,-14,-16,-37,-28c0,0,-23,-13,-33,-13Z" 
id="f3_j"
transform="scale(0.001,-0.001)" />

<path d="M131,353c0,0,-3,0,-6,2c0,0,-3,2,-16,20c0,0,-13,17,-13,28c0,0,0,5,8,9c0,0,45,26,84,67c0,0,38,41,38,85c0,0,0,28,-7,43c0,0,-7,15,-24,21c0,0,-17,6,-61,6H124c0,0,-38,0,-62,34c0,0,-24,35,-24,107c0,0,0,52,16,87c0,0,17,34,38,34c0,0,16,0,16,-12V870c0,0,0,-25,26,-25h63c0,0,29,0,53,-4c0,0,23,-4,39,-23c0,0,17,-19,26,-59c0,0,9,-40,9,-113c0,0,0,-76,-15,-124c0,0,-15,-47,-51,-83c0,0,-35,-36,-74,-61c0,0,-39,-25,-53,-25Z" 
id="f3_n"
transform="scale(0.001,-0.001)" />

<path d="M554,-8c0,0,-9,0,-11,6c0,0,-2,5,-2,24V548c0,0,0,38,-5,56c0,0,-4,18,-15,25c0,0,-12,7,-41,7H90c0,0,-33,0,-52,33c0,0,-19,33,-19,90c0,0,0,54,15,97c0,0,14,43,30,43c0,0,17,0,17,-13V872c0,0,0,-9,7,-18c0,0,7,-9,27,-9H512c0,0,54,0,77,-8c0,0,23,-9,33,-28c0,0,9,-20,9,-67V81c0,0,0,-31,-27,-53L583,9C583,9,563,-8,554,-8Z" 
id="f3_i"
transform="scale(0.001,-0.001)" />

<path d="M20,0L75,212H492c0,0,19,51,25,97c0,0,5,46,5,105c0,0,0,63,-6,124c0,0,-6,61,-23,78c0,0,-16,18,-66,18H112c0,0,-36,0,-57,40c0,0,-21,40,-21,101c0,0,0,50,16,87c0,0,16,36,36,36c0,0,13,0,13,-14V870c0,0,0,-25,34,-25H457c0,0,63,0,92,-11c0,0,28,-10,41,-36c0,0,13,-26,18,-107c0,0,4,-80,4,-174c0,0,0,-174,-13,-224c0,0,-4,-15,-21,-41c0,0,-17,-25,-31,-40H688L640,0Z" 
id="f3_o"
transform="scale(0.001,-0.001)" />

<path d="M38,0L93,212H220c0,0,4,8,7,28c0,0,4,20,4,39c0,0,0,29,-13,61c0,0,-13,31,-29,65c0,0,-15,34,-28,72c0,0,-13,38,-13,81c0,0,0,29,10,54c0,0,9,25,30,60c0,0,-48,0,-68,11c0,0,-19,11,-30,36c0,0,-11,25,-11,71c0,0,0,30,9,54c0,0,8,25,22,40c0,0,14,15,24,15c0,0,17,0,17,-12V875c0,0,0,-30,41,-30h53c0,0,44,0,61,-10c0,0,17,-10,26,-34c0,0,9,-23,9,-67c0,0,0,-38,-6,-57c0,0,-6,-20,-13,-20c0,0,-6,0,-13,4c0,0,-3,4,-17,7c0,0,-14,2,-26,2c0,0,-34,0,-34,-45c0,0,0,-12,9,-34c0,0,8,-22,55,-116c0,0,46,-86,46,-143c0,0,0,-15,-8,-35c0,0,-9,-20,-50,-85H598c0,0,17,0,17,12c0,0,0,19,-6,53c0,0,-5,34,-5,74c0,0,0,80,58,228c0,0,18,46,18,56c0,0,0,15,-12,26c0,0,-12,11,-38,11H602c0,0,-43,0,-62,25c0,0,-19,25,-19,78c0,0,0,47,14,86c0,0,15,38,33,38c0,0,15,0,15,-15V867c0,0,0,-22,31,-22h55c0,0,51,0,78,-20c0,0,27,-20,27,-57c0,0,0,-46,-28,-147c0,0,-40,-145,-40,-253c0,0,0,-33,6,-63c0,0,6,-30,14,-54c0,0,8,-24,14,-42c0,0,7,-19,7,-30c0,0,0,-39,-14,-88C733,91,720,42,701,0Z" 
id="f3_p"
transform="scale(0.001,-0.001)" />

<path d="M204,-8c0,0,-9,0,-11,5c0,0,-2,5,-2,22V549c0,0,0,40,-4,56c0,0,-4,16,-15,22c0,0,-10,7,-39,7H90c0,0,-33,0,-52,33c0,0,-19,33,-19,90c0,0,0,53,15,98c0,0,16,44,35,44c0,0,12,0,12,-13V872c0,0,0,-27,31,-27h42c0,0,79,0,103,-20c0,0,23,-19,23,-83V67c0,0,0,-16,-8,-26c0,0,-9,-10,-33,-30c0,0,-25,-19,-35,-19Z" 
id="f3_3"
transform="scale(0.001,-0.001)" />

<path d="M469,-18c0,0,-14,0,-14,15l2,7c0,0,20,43,20,158l-3,156l-2,119c0,0,0,65,19,109c0,0,19,44,60,88H110c0,0,-47,0,-69,34c0,0,-22,35,-22,109c0,0,0,50,16,85c0,0,16,36,35,36c0,0,14,0,14,-12L83,869c0,0,0,-13,7,-19c0,0,6,-5,23,-5H608c0,0,25,0,40,-14c0,0,15,-15,15,-38V686c0,0,0,-26,-4,-35c0,0,-3,-9,-11,-11c0,0,-42,-9,-56,-40c0,0,-15,-30,-15,-93c0,0,0,-56,12,-184c0,0,10,-129,10,-224c0,0,0,-24,-6,-37c0,0,-7,-13,-17,-25c0,0,-7,-6,-18,-12c0,0,-11,-7,-23,-13C535,12,523,5,512,0c0,0,-10,-5,-15,-8c0,0,-22,-10,-28,-10Z" 
id="f3_q"
transform="scale(0.001,-0.001)" />

<path d="M46,0l55,212H483c0,0,68,0,105,25c0,0,38,25,57,78c0,0,18,52,18,131c0,0,0,97,-39,142c0,0,-40,46,-123,46H275c0,0,-25,-15,-40,-35c0,0,-15,-20,-15,-32c0,0,0,-25,37,-25l49,-1c0,0,42,0,67,-26c0,0,26,-26,26,-72c0,0,0,-68,-17,-118c0,0,-18,-50,-41,-50c0,0,-19,0,-19,18c0,0,0,34,-14,51c0,0,-13,16,-54,16c0,0,-38,0,-57,-11c0,0,-19,-11,-26,-43c0,0,-3,-22,-18,-22c0,0,-22,0,-34,37c0,0,-12,38,-12,102c0,0,0,128,78,211H163c0,0,-33,0,-52,34c0,0,-19,35,-19,91c0,0,0,50,15,94c0,0,16,45,32,45c0,0,17,0,17,-14V870c0,0,0,-25,33,-25H544c0,0,62,0,95,-17c0,0,32,-17,58,-66c0,0,26,-48,40,-125c0,0,13,-77,13,-158c0,0,0,-296,-116,-479Z" 
id="f3_5"
transform="scale(0.001,-0.001)" />

<path d="M436,206c0,0,131,0,201,62c0,0,70,63,70,175c0,0,0,47,-9,82c0,0,-9,34,-28,61c0,0,-19,27,-44,37c0,0,-26,11,-82,11H296c0,0,-51,-42,-79,-96c0,0,-29,-53,-29,-112c0,0,0,-110,63,-165c0,0,64,-55,185,-55ZM434,-13c0,0,-169,0,-256,94c0,0,-88,94,-88,274c0,0,0,92,29,159c0,0,28,66,76,120H150c0,0,-37,0,-57,32c0,0,-20,33,-20,108c0,0,0,33,8,60c0,0,8,27,21,45c0,0,14,17,25,17c0,0,20,0,20,-10V869c0,0,0,-24,31,-24H588c0,0,56,0,87,-20c0,0,31,-20,61,-81c0,0,30,-60,46,-129c0,0,15,-69,15,-151c0,0,0,-147,-43,-258C754,206,710,94,628,40c0,0,-81,-53,-194,-53Z" 
id="f3_r"
transform="scale(0.001,-0.001)" />

<path d="M730,212c0,0,17,78,17,199c0,0,0,85,-13,133c0,0,-12,48,-36,69c0,0,-24,21,-87,21H312c0,0,-55,-53,-72,-91c0,0,-17,-38,-17,-96c0,0,0,-124,8,-235ZM134,0l-1,360c0,0,0,121,7,151c0,0,7,30,31,61c0,0,24,32,57,62H201c0,0,-37,0,-59,39c0,0,-23,40,-23,101c0,0,0,51,18,87c0,0,18,35,35,35c0,0,12,0,16,-2c0,0,4,-2,4,-8V869c0,0,0,-24,31,-24H645c0,0,73,0,104,-18c0,0,30,-18,49,-58c0,0,19,-39,27,-107c0,0,9,-67,9,-162c0,0,0,-166,-12,-500Z" 
id="f3_s"
transform="scale(0.001,-0.001)" />

<path d="M235,-20c0,0,-31,0,-51,19c0,0,-21,18,-21,50c0,0,0,65,39,120c0,0,39,54,125,109c0,0,56,35,87,56c0,0,32,20,46,33c0,0,79,45,79,143c0,0,0,27,-7,65c0,0,-8,39,-27,49c0,0,-19,10,-85,10H110c0,0,-36,0,-53,21c0,0,-17,22,-25,71c0,0,-7,49,-7,134c0,0,0,62,27,122c0,0,8,15,8,34c0,0,0,23,-35,37c0,0,-21,7,-30,29c0,0,-9,22,-9,72c0,0,0,24,10,46c0,0,8,22,25,38c0,0,16,16,26,16c0,0,17,0,17,-14c0,0,0,-9,7,-17c0,0,7,-8,34,-14c0,0,65,-15,81,-26c0,0,15,-10,15,-31c0,0,0,-15,-15,-38c0,0,-15,-22,-33,-53c0,0,-19,-30,-34,-67c0,0,-15,-36,-15,-79c0,0,0,-43,14,-56c0,0,15,-14,54,-14H518c0,0,39,0,63,-17c0,0,23,-16,33,-53c0,0,10,-36,17,-89c0,0,6,-52,6,-93c0,0,0,-99,-9,-144c0,0,-9,-44,-40,-80c0,0,-31,-36,-110,-86c0,0,-112,-71,-138,-95c0,0,-26,-23,-36,-44c0,0,-9,-20,-9,-43c0,0,0,-11,5,-26c0,0,6,-15,6,-26c0,0,0,-32,-20,-50c0,0,-20,-19,-51,-19Z" 
id="f3_g"
transform="scale(0.001,-0.001)" />

<path d="M150,-306c0,0,-6,0,-6,8l3,26c0,0,6,61,7,104c0,0,0,42,0,114V16l2,261v93c0,0,0,97,4,123c0,0,3,25,16,44c0,0,11,22,20,40c0,0,8,17,8,32c0,0,0,25,-42,25H130c0,0,-41,0,-66,39c0,0,-24,39,-24,101c0,0,0,43,16,83c0,0,16,41,33,41c0,0,15,0,15,-14l-2,-15c0,0,0,-24,29,-24H232c0,0,48,0,65,-17c0,0,16,-16,16,-54V713c0,0,0,-32,-17,-76L269,580c0,0,-21,-43,-21,-124l15,-667c0,0,0,-14,-9,-25c0,0,-9,-12,-43,-33l-35,-23c0,0,-19,-14,-26,-14Z" 
id="f3_t"
transform="scale(0.001,-0.001)" />

<path d="M107,-18c0,0,-17,0,-17,18l3,9c0,0,23,48,23,124l-1,177c0,0,0,55,8,77c0,0,9,22,33,46c0,0,23,23,51,40c0,0,28,17,42,17c0,0,5,0,9,-3c0,0,5,-3,5,-8c0,0,0,-3,-11,-26c0,0,-14,-49,-14,-120l4,-223c0,0,0,-38,-9,-54c0,0,-8,-17,-32,-34C201,22,178,6,150,-5c0,0,-28,-13,-43,-13Zm547,0c0,0,-17,0,-17,18l2,10c0,0,10,38,10,109c0,0,0,79,-14,208c0,0,-15,128,-15,149c0,0,0,54,16,89c0,0,15,36,53,69H154c0,0,-35,0,-57,40c0,0,-21,40,-21,103c0,0,0,33,8,61c0,0,7,28,19,44c0,0,13,17,24,17c0,0,15,0,15,-13V869c0,0,0,-13,5,-19c0,0,5,-5,22,-5H718c0,0,50,0,50,-63V652c0,0,0,-21,-15,-30c0,0,-35,-24,-35,-77c0,0,0,-57,20,-169c0,0,27,-157,27,-272c0,0,0,-29,-6,-44c0,0,-6,-15,-17,-26c0,0,-12,-16,-47,-35L681,-9l-13,-6l-14,-3Z" 
id="f3_6"
transform="scale(0.001,-0.001)" />

<path d="M153,0V437L399,539V0ZM664,0V450c0,0,0,122,-31,165c0,0,-31,43,-121,43H138V836H511c0,0,113,0,188,-22c0,0,75,-23,123,-73c0,0,47,-51,68,-127c0,0,20,-76,20,-189V0Z" 
id="f0_k"
transform="scale(0.001,-0.001)" />

<path d="M66,0V178H507V449c0,0,0,43,-2,71c0,0,-3,28,-12,56c0,0,-9,28,-26,45c0,0,-17,16,-47,27c0,0,-29,10,-72,10H66V836H349c0,0,97,0,167,-17c0,0,71,-17,117,-49c0,0,46,-32,73,-84c0,0,27,-52,38,-114c0,0,11,-62,11,-147V178H866V0Z" 
id="f0_9"
transform="scale(0.001,-0.001)" />

<path d="M150,-366V437L396,539V-366ZM499,0L727,658H139V835h870V716L754,0Z" 
id="f0_3"
transform="scale(0.001,-0.001)" />

<path d="M66,0V178H307V510c0,0,0,100,-31,124c0,0,-30,24,-79,24H83V836H197c0,0,215,0,286,-85c0,0,71,-85,71,-224V0Z" 
id="f0_i"
transform="scale(0.001,-0.001)" />

<path d="M139,0V836H386V0Z" 
id="f0_8"
transform="scale(0.001,-0.001)" />

<path d="M66,0V177H334c0,0,99,0,150,66c0,0,51,67,51,175c0,0,0,108,-51,175c0,0,-51,66,-150,66H66V836H334c0,0,92,0,168,-24c0,0,75,-24,127,-64c0,0,51,-40,86,-94c0,0,35,-54,51,-113c0,0,15,-60,15,-123c0,0,0,-63,-15,-123c0,0,-16,-59,-51,-113c0,0,-35,-54,-86,-94C629,88,577,48,502,24C502,24,426,0,334,0Z" 
id="f0_q"
transform="scale(0.001,-0.001)" />

<path d="M143,0V355c0,0,0,103,26,191c0,0,26,88,79,112H66V836H546V658H484c0,0,-30,0,-50,-24c0,0,-20,-24,-29,-67c0,0,-9,-42,-12,-81c0,0,-3,-39,-3,-89V0Z" 
id="f0_r"
transform="scale(0.001,-0.001)" />

<path d="M156,-317V454l139,56V-317ZM505,0L806,729H139V835H967V753L650,0Z" 
id="f1_c"
transform="scale(0.001,-0.001)" />

<path d="M700,-317V454c0,0,0,155,-54,215c0,0,-54,60,-180,60H277V551c0,0,0,-55,26,-80c0,0,27,-26,82,-26c0,0,30,0,80,10V341c0,0,-61,-11,-111,-11c0,0,-100,0,-157,55c0,0,-58,55,-58,186V836H466c0,0,203,0,288,-91c0,0,85,-92,85,-293V-317Z" 
id="f1_t"
transform="scale(0.001,-0.001)" />


</defs>
</svg>