<?xml version="1.0" encoding="UTF-8" standalone="no"?>
<!DOCTYPE svg PUBLIC "-//W3C//DTD SVG 1.1//EN"
"http://www.w3.org/Graphics/SVG/1.1/DTD/svg11.dtd">
<svg viewBox="0 0 909 1286" version="1.1" xmlns="http://www.w3.org/2000/svg" xmlns:xlink="http://www.w3.org/1999/xlink">
<defs>
<clipPath id="c0_3"><path d="M0,1286.2V0H909.4V1286.2Z" /></clipPath>
<style type="text/css"><![CDATA[
.g0_3{
fill: #D8D8D8;
}
.g1_3{
fill: none;
stroke: #000000;
stroke-width: 0.7638889;
stroke-linecap: butt;
stroke-linejoin: round;
}
.g2_3{
fill: none;
stroke: #000000;
stroke-width: 0.9166667;
stroke-linecap: butt;
stroke-linejoin: miter;
}
.g3_3{
fill: none;
stroke: #0000FF;
stroke-width: 1.0694444;
stroke-linecap: butt;
stroke-linejoin: miter;
}
]]></style>
</defs>
<path fill-rule="evenodd" d="M391.1,324.1H652.9V302H391.1v22.1Z" class="g0_3" />
<path fill-rule="evenodd" d="M129.2,324.1H391V302H129.2v22.1Z" class="g0_3" />
<path fill-rule="evenodd" d="M653,348.7H771.9V324.2H653v24.5Z" class="g0_3" />
<path fill-rule="evenodd" d="M653,373.2H771.9V348.8H653v24.4Z" class="g0_3" />
<path fill-rule="evenodd" d="M653,397.8H771.9V373.2H653v24.6Z" class="g0_3" />
<path fill-rule="evenodd" d="M653,422.2H771.9V397.8H653v24.4Z" class="g0_3" />
<path fill-rule="evenodd" d="M653,446.8H771.9V422.3H653v24.5Z" class="g0_3" />
<path fill-rule="evenodd" d="M478.3,642.4H652.9V622.3H478.3v20.1Z" class="g0_3" />
<path fill-rule="evenodd" d="M303.9,642.4H478.3V622.3H303.9v20.1Z" class="g0_3" />
<path fill-rule="evenodd" d="M129.4,642.4H303.8V622.3H129.4v20.1Z" class="g0_3" />
<path fill-rule="evenodd" d="M565.6,664.5h87.3V642.4H565.6v22.1Z" class="g0_3" />
<path fill-rule="evenodd" d="M478.5,664.5h87V642.4h-87v22.1Z" class="g0_3" />
<path fill-rule="evenodd" d="M391.3,664.5h87.1V642.4H391.3v22.1Z" class="g0_3" />
<path fill-rule="evenodd" d="M303.9,664.5h87.3V642.4H303.9v22.1Z" class="g0_3" />
<path fill-rule="evenodd" d="M216.8,664.5h87V642.4h-87v22.1Z" class="g0_3" />
<path fill-rule="evenodd" d="M129.4,664.5h87.3V642.4H129.4v22.1Z" class="g0_3" />
<path fill-rule="evenodd" d="M653,684.5H771.9V664.6H653v19.9Z" class="g0_3" />
<path fill-rule="evenodd" d="M653,704.7H771.9V684.6H653v20.1Z" class="g0_3" />
<path fill-rule="evenodd" d="M653,724.7H771.9V704.8H653v19.9Z" class="g0_3" />
<path fill-rule="evenodd" d="M653,744.9H771.9V724.8H653v20.1Z" class="g0_3" />
<path fill-rule="evenodd" d="M653,764.9H771.9v-20H653v20Z" class="g0_3" />
<path fill-rule="evenodd" d="M391.1,324.1H652.9V302H391.1v22.1Z" class="g0_3" />
<path fill-rule="evenodd" d="M129.2,324.1H391V302H129.2v22.1Z" class="g0_3" />
<path fill-rule="evenodd" d="M653,348.7H771.9V324.2H653v24.5Z" class="g0_3" />
<path fill-rule="evenodd" d="M653,373.2H771.9V348.8H653v24.4Z" class="g0_3" />
<path fill-rule="evenodd" d="M653,397.8H771.9V373.2H653v24.6Z" class="g0_3" />
<path fill-rule="evenodd" d="M653,422.2H771.9V397.8H653v24.4Z" class="g0_3" />
<path fill-rule="evenodd" d="M653,446.8H771.9V422.3H653v24.5Z" class="g0_3" />
<path fill-rule="evenodd" d="M478.3,642.4H652.9V622.3H478.3v20.1Z" class="g0_3" />
<path fill-rule="evenodd" d="M303.9,642.4H478.3V622.3H303.9v20.1Z" class="g0_3" />
<path fill-rule="evenodd" d="M129.4,642.4H303.8V622.3H129.4v20.1Z" class="g0_3" />
<path fill-rule="evenodd" d="M565.6,664.5h87.3V642.4H565.6v22.1Z" class="g0_3" />
<path fill-rule="evenodd" d="M478.5,664.5h87V642.4h-87v22.1Z" class="g0_3" />
<path fill-rule="evenodd" d="M391.3,664.5h87.1V642.4H391.3v22.1Z" class="g0_3" />
<path fill-rule="evenodd" d="M303.9,664.5h87.3V642.4H303.9v22.1Z" class="g0_3" />
<path fill-rule="evenodd" d="M216.8,664.5h87V642.4h-87v22.1Z" class="g0_3" />
<path fill-rule="evenodd" d="M129.4,664.5h87.3V642.4H129.4v22.1Z" class="g0_3" />
<path fill-rule="evenodd" d="M653,684.5H771.9V664.6H653v19.9Z" class="g0_3" />
<path fill-rule="evenodd" d="M653,704.7H771.9V684.6H653v20.1Z" class="g0_3" />
<path fill-rule="evenodd" d="M653,724.7H771.9V704.8H653v19.9Z" class="g0_3" />
<path fill-rule="evenodd" d="M653,744.9H771.9V724.8H653v20.1Z" class="g0_3" />
<path fill-rule="evenodd" d="M653,764.9H771.9v-20H653v20Z" class="g0_3" />
<g clip-path="url(#c0_3)">
<g fill="#000000" >
<use xlink:href="#f0_x" transform="matrix(16,0,0,16,565.1,151.3)" />
<use xlink:href="#f0_11" transform="matrix(16,0,0,16,580.4,151.3)" />
<use xlink:href="#f0_3" transform="matrix(16,0,0,16,595.3,151.3)" />
<use xlink:href="#f0_v" transform="matrix(16,0,0,16,601.9,151.3)" />
<use xlink:href="#f0_12" transform="matrix(16,0,0,16,608.7,151.3)" />
<use xlink:href="#f0_v" transform="matrix(16,0,0,16,629.5,151.3)" />
<use xlink:href="#f0_y" transform="matrix(16,0,0,16,636.1,151.3)" />
<use xlink:href="#f0_a" transform="matrix(16,0,0,16,647.9,151.3)" />
<use xlink:href="#f0_5" transform="matrix(16,0,0,16,662.1,151.3)" />
<use xlink:href="#f0_13" transform="matrix(16,0,0,16,682.2,151.3)" />
<use xlink:href="#f0_v" transform="matrix(16,0,0,16,688.9,151.3)" />
<use xlink:href="#f0_9" transform="matrix(16,0,0,16,695.6,151.3)" />
<use xlink:href="#f0_8" transform="matrix(16,0,0,16,714.2,151.3)" />
<use xlink:href="#f0_4" transform="matrix(16,0,0,16,726.7,151.3)" />
<use xlink:href="#f0_14" transform="matrix(16,0,0,16,744.3,151.3)" />
<use xlink:href="#f0_6" transform="matrix(16,0,0,16,757.7,151.3)" />
<use xlink:href="#f0_d" transform="matrix(16,0,0,16,535.9,151.3)" />
<use xlink:href="#f0_c" transform="matrix(16,0,0,16,547.2,151.3)" />
<use xlink:href="#f0_x" transform="matrix(16,0,0,16,412.5,151.3)" />
<use xlink:href="#f0_11" transform="matrix(16,0,0,16,427.7,151.3)" />
<use xlink:href="#f0_3" transform="matrix(16,0,0,16,442.5,151.3)" />
<use xlink:href="#f0_v" transform="matrix(16,0,0,16,449.2,151.3)" />
<use xlink:href="#f0_12" transform="matrix(16,0,0,16,455.9,151.3)" />
<use xlink:href="#f0_v" transform="matrix(16,0,0,16,476.6,151.3)" />
<use xlink:href="#f0_y" transform="matrix(16,0,0,16,483.3,151.3)" />
<use xlink:href="#f0_a" transform="matrix(16,0,0,16,495.3,151.3)" />
<use xlink:href="#f0_5" transform="matrix(16,0,0,16,509.4,151.3)" />
<use xlink:href="#f0_3" transform="matrix(16,0,0,16,523,151.3)" />
<use xlink:href="#f0_e" transform="matrix(16,0,0,16,387.4,151.3)" />
<use xlink:href="#f0_c" transform="matrix(16,0,0,16,394.6,151.3)" />
<use xlink:href="#f0_8" transform="matrix(16,0,0,16,330.5,151.3)" />
<use xlink:href="#f0_9" transform="matrix(16,0,0,16,343,151.3)" />
<use xlink:href="#f0_a" transform="matrix(16,0,0,16,355,151.3)" />
<use xlink:href="#f0_9" transform="matrix(16,0,0,16,369.2,151.3)" />
<use xlink:href="#f1_f" transform="matrix(12,0,0,12,504,192.8)" />
<use xlink:href="#f1_l" transform="matrix(12,0,0,12,516.2,192.8)" />
<use xlink:href="#f1_b" transform="matrix(12,0,0,12,520.3,192.8)" />
<use xlink:href="#f1_h" transform="matrix(12,0,0,12,530.7,192.8)" />
<use xlink:href="#f1_e" transform="matrix(12,0,0,12,542.2,192.8)" />
<use xlink:href="#f1_2" transform="matrix(12,0,0,12,553.6,192.8)" />
<use xlink:href="#f1_i" transform="matrix(12,0,0,12,571.4,192.8)" />
<use xlink:href="#f1_l" transform="matrix(12,0,0,12,576.4,192.8)" />
<use xlink:href="#f1_6" transform="matrix(12,0,0,12,580.5,192.8)" />
<use xlink:href="#f1_3" transform="matrix(12,0,0,12,596.8,192.8)" />
<use xlink:href="#f1_p" transform="matrix(12,0,0,12,607.2,192.8)" />
<use xlink:href="#f1_d" transform="matrix(12,0,0,12,620.2,192.8)" />
<use xlink:href="#f1_p" transform="matrix(12,0,0,12,639,192.8)" />
<use xlink:href="#f1_l" transform="matrix(12,0,0,12,652,192.8)" />
<use xlink:href="#f1_3" transform="matrix(12,0,0,12,662,192.8)" />
<use xlink:href="#f1_6" transform="matrix(12,0,0,12,672.4,192.8)" />
<use xlink:href="#f1_h" transform="matrix(12,0,0,12,682.9,192.8)" />
<use xlink:href="#f1_2" transform="matrix(12,0,0,12,694.4,192.8)" />
<use xlink:href="#f1_i" transform="matrix(12,0,0,12,712.1,192.8)" />
<use xlink:href="#f1_j" transform="matrix(12,0,0,12,717,192.8)" />
<use xlink:href="#f1_k" transform="matrix(12,0,0,12,729.5,192.8)" />
<use xlink:href="#f1_6" transform="matrix(12,0,0,12,735.9,192.8)" />
<use xlink:href="#f1_f" transform="matrix(12,0,0,12,752.3,192.8)" />
<use xlink:href="#f1_o" transform="matrix(12,0,0,12,764.5,192.8)" />
<use xlink:href="#f2_m" transform="matrix(11,0,0,11,484.8,192.8)" />
<use xlink:href="#f2_a" transform="matrix(11,0,0,11,492.2,192.8)" />
<use xlink:href="#f1_4" transform="matrix(12,0,0,12,474.1,192.8)" />
<use xlink:href="#f2_t" transform="matrix(11,0,0,11,457.9,192.8)" />
<use xlink:href="#f2_a" transform="matrix(11,0,0,11,462.5,192.8)" />
<use xlink:href="#f1_l" transform="matrix(12,0,0,12,357.7,192.8)" />
<use xlink:href="#f1_b" transform="matrix(12,0,0,12,361.8,192.8)" />
<use xlink:href="#f1_h" transform="matrix(12,0,0,12,372.2,192.8)" />
<use xlink:href="#f1_e" transform="matrix(12,0,0,12,383.6,192.8)" />
<use xlink:href="#f1_a" transform="matrix(12,0,0,12,400.9,192.8)" />
<use xlink:href="#f1_j" transform="matrix(12,0,0,12,412.9,192.8)" />
<use xlink:href="#f1_4" transform="matrix(12,0,0,12,425.3,192.8)" />
<use xlink:href="#f1_h" transform="matrix(12,0,0,12,430.3,192.8)" />
<use xlink:href="#f1_b" transform="matrix(12,0,0,12,441.8,192.8)" />
<use xlink:href="#f2_n" transform="matrix(11,0,0,11,338.4,192.8)" />
<use xlink:href="#f2_a" transform="matrix(11,0,0,11,345.9,192.8)" />
<use xlink:href="#f1_g" transform="matrix(12,0,0,12,162.6,192.8)" />
<use xlink:href="#f1_2" transform="matrix(12,0,0,12,168.4,192.8)" />
<use xlink:href="#f1_n" transform="matrix(12,0,0,12,180.3,192.8)" />
<use xlink:href="#f1_4" transform="matrix(12,0,0,12,187.6,192.8)" />
<use xlink:href="#f1_p" transform="matrix(12,0,0,12,192.6,192.8)" />
<use xlink:href="#f1_9" transform="matrix(12,0,0,12,211.4,192.8)" />
<use xlink:href="#f1_h" transform="matrix(12,0,0,12,223.3,192.8)" />
<use xlink:href="#f1_j" transform="matrix(12,0,0,12,234.6,192.8)" />
<use xlink:href="#f1_f" transform="matrix(12,0,0,12,253.1,192.8)" />
<use xlink:href="#f1_l" transform="matrix(12,0,0,12,265.3,192.8)" />
<use xlink:href="#f1_o" transform="matrix(12,0,0,12,269.4,192.8)" />
<use xlink:href="#f1_2" transform="matrix(12,0,0,12,276.9,192.8)" />
<use xlink:href="#f1_n" transform="matrix(12,0,0,12,288.8,192.8)" />
<use xlink:href="#f1_a" transform="matrix(12,0,0,12,296.1,192.8)" />
<use xlink:href="#f1_j" transform="matrix(12,0,0,12,308.2,192.8)" />
<use xlink:href="#f1_2" transform="matrix(12,0,0,12,320.7,192.8)" />
<use xlink:href="#f1_a" transform="matrix(12,0,0,12,526.8,214.2)" />
<use xlink:href="#f1_4" transform="matrix(12,0,0,12,538.8,214.2)" />
<use xlink:href="#f1_8" transform="matrix(12,0,0,12,543.8,214.2)" />
<use xlink:href="#f1_2" transform="matrix(12,0,0,12,556.1,214.2)" />
<use xlink:href="#f1_r" transform="matrix(12,0,0,12,577.4,214.2)" />
<use xlink:href="#f1_2" transform="matrix(12,0,0,12,583.2,214.2)" />
<use xlink:href="#f1_4" transform="matrix(12,0,0,12,595.1,214.2)" />
<use xlink:href="#f1_4" transform="matrix(12,0,0,12,600.2,214.2)" />
<use xlink:href="#f1_2" transform="matrix(12,0,0,12,605.2,214.2)" />
<use xlink:href="#f1_2" transform="matrix(12,0,0,12,617.1,214.2)" />
<use xlink:href="#f1_a" transform="matrix(12,0,0,12,638.6,214.2)" />
<use xlink:href="#f1_3" transform="matrix(12,0,0,12,650.5,214.2)" />
<use xlink:href="#f1_4" transform="matrix(12,0,0,12,660.9,214.2)" />
<use xlink:href="#f1_5" transform="matrix(12,0,0,12,665.9,214.2)" />
<use xlink:href="#f1_6" transform="matrix(12,0,0,12,676.8,214.2)" />
<use xlink:href="#f1_r" transform="matrix(12,0,0,12,706.5,214.2)" />
<use xlink:href="#f1_6" transform="matrix(12,0,0,12,712.3,214.2)" />
<use xlink:href="#f1_b" transform="matrix(12,0,0,12,722.9,214.2)" />
<use xlink:href="#f1_f" transform="matrix(12,0,0,12,742.7,214.2)" />
<use xlink:href="#f1_l" transform="matrix(12,0,0,12,754.8,214.2)" />
<use xlink:href="#f1_p" transform="matrix(12,0,0,12,758.9,214.2)" />
<use xlink:href="#f0_d" transform="matrix(11,0,0,11,509.5,214.2)" />
<use xlink:href="#f1_a" transform="matrix(12,0,0,12,321.7,214.2)" />
<use xlink:href="#f1_4" transform="matrix(12,0,0,12,333.8,214.2)" />
<use xlink:href="#f1_8" transform="matrix(12,0,0,12,338.8,214.2)" />
<use xlink:href="#f1_2" transform="matrix(12,0,0,12,351,214.2)" />
<use xlink:href="#f1_j" transform="matrix(12,0,0,12,362.8,214.2)" />
<use xlink:href="#f1_3" transform="matrix(12,0,0,12,384.9,214.2)" />
<use xlink:href="#f1_a" transform="matrix(12,0,0,12,395.2,214.2)" />
<use xlink:href="#f1_4" transform="matrix(12,0,0,12,407.2,214.2)" />
<use xlink:href="#f1_l" transform="matrix(12,0,0,12,412.2,214.2)" />
<use xlink:href="#f1_a" transform="matrix(12,0,0,12,425.8,214.2)" />
<use xlink:href="#f1_l" transform="matrix(12,0,0,12,437.8,214.2)" />
<use xlink:href="#f1_9" transform="matrix(12,0,0,12,441.9,214.2)" />
<use xlink:href="#f1_n" transform="matrix(12,0,0,12,453.8,214.2)" />
<use xlink:href="#f1_n" transform="matrix(12,0,0,12,461.2,214.2)" />
<use xlink:href="#f1_l" transform="matrix(12,0,0,12,468.5,214.2)" />
<use xlink:href="#f1_j" transform="matrix(12,0,0,12,472.5,214.2)" />
<use xlink:href="#f1_4" transform="matrix(12,0,0,12,485,214.2)" />
<use xlink:href="#f1_m" transform="matrix(12,0,0,12,489.9,214.2)" />
<use xlink:href="#f0_e" transform="matrix(11,0,0,11,307.4,214.2)" />
<use xlink:href="#f1_6" transform="matrix(12,0,0,12,137.8,214.2)" />
<use xlink:href="#f1_4" transform="matrix(12,0,0,12,148.3,214.2)" />
<use xlink:href="#f1_3" transform="matrix(12,0,0,12,153.4,214.2)" />
<use xlink:href="#f1_6" transform="matrix(12,0,0,12,163.7,214.2)" />
<use xlink:href="#f1_f" transform="matrix(12,0,0,12,183.7,214.2)" />
<use xlink:href="#f1_l" transform="matrix(12,0,0,12,195.9,214.2)" />
<use xlink:href="#f1_9" transform="matrix(12,0,0,12,199.9,214.2)" />
<use xlink:href="#f1_j" transform="matrix(12,0,0,12,211.8,214.2)" />
<use xlink:href="#f1_4" transform="matrix(12,0,0,12,233.8,214.2)" />
<use xlink:href="#f1_n" transform="matrix(12,0,0,12,238.8,214.2)" />
<use xlink:href="#f1_8" transform="matrix(12,0,0,12,246.1,214.2)" />
<use xlink:href="#f1_i" transform="matrix(12,0,0,12,267.8,214.2)" />
<use xlink:href="#f1_c" transform="matrix(12,0,0,12,272.8,214.2)" />
<use xlink:href="#f1_b" transform="matrix(12,0,0,12,282.5,214.2)" />
<use xlink:href="#f1_4" transform="matrix(12,0,0,12,292.9,214.2)" />
<use xlink:href="#f1_l" transform="matrix(12,0,0,12,675.3,235.6)" />
<use xlink:href="#f1_b" transform="matrix(12,0,0,12,679.4,235.6)" />
<use xlink:href="#f1_h" transform="matrix(12,0,0,12,689.8,235.6)" />
<use xlink:href="#f1_e" transform="matrix(12,0,0,12,701.2,235.6)" />
<use xlink:href="#f1_f" transform="matrix(12,0,0,12,719.8,235.6)" />
<use xlink:href="#f1_l" transform="matrix(12,0,0,12,732,235.6)" />
<use xlink:href="#f1_e" transform="matrix(12,0,0,12,736.2,235.6)" />
<use xlink:href="#f1_4" transform="matrix(12,0,0,12,747.6,235.6)" />
<use xlink:href="#f1_o" transform="matrix(12,0,0,12,752.6,235.6)" />
<use xlink:href="#f1_2" transform="matrix(12,0,0,12,760.1,235.6)" />
<use xlink:href="#f2_t" transform="matrix(11,0,0,11,657.6,235.6)" />
<use xlink:href="#f2_a" transform="matrix(11,0,0,11,662.1,235.6)" />
<use xlink:href="#f1_l" transform="matrix(12,0,0,12,578.7,235.6)" />
<use xlink:href="#f1_b" transform="matrix(12,0,0,12,582.8,235.6)" />
<use xlink:href="#f1_h" transform="matrix(12,0,0,12,593.2,235.6)" />
<use xlink:href="#f1_e" transform="matrix(12,0,0,12,604.7,235.6)" />
<use xlink:href="#f1_4" transform="matrix(12,0,0,12,623.3,235.6)" />
<use xlink:href="#f1_j" transform="matrix(12,0,0,12,628.3,235.6)" />
<use xlink:href="#f1_c" transform="matrix(12,0,0,12,640.8,235.6)" />
<use xlink:href="#f2_m" transform="matrix(11,0,0,11,558.3,235.6)" />
<use xlink:href="#f2_a" transform="matrix(11,0,0,11,565.7,235.6)" />
<use xlink:href="#f1_a" transform="matrix(12,0,0,12,390.5,235.6)" />
<use xlink:href="#f1_4" transform="matrix(12,0,0,12,402.5,235.6)" />
<use xlink:href="#f1_8" transform="matrix(12,0,0,12,407.6,235.6)" />
<use xlink:href="#f1_2" transform="matrix(12,0,0,12,419.8,235.6)" />
<use xlink:href="#f1_r" transform="matrix(12,0,0,12,439,235.6)" />
<use xlink:href="#f1_3" transform="matrix(12,0,0,12,444.8,235.6)" />
<use xlink:href="#f1_6" transform="matrix(12,0,0,12,455.2,235.6)" />
<use xlink:href="#f1_h" transform="matrix(12,0,0,12,465.7,235.6)" />
<use xlink:href="#f1_2" transform="matrix(12,0,0,12,477.2,235.6)" />
<use xlink:href="#f1_a" transform="matrix(12,0,0,12,496.4,235.6)" />
<use xlink:href="#f1_3" transform="matrix(12,0,0,12,508.3,235.6)" />
<use xlink:href="#f1_4" transform="matrix(12,0,0,12,518.7,235.6)" />
<use xlink:href="#f1_5" transform="matrix(12,0,0,12,523.7,235.6)" />
<use xlink:href="#f1_6" transform="matrix(12,0,0,12,534.6,235.6)" />
<use xlink:href="#f1_g" transform="matrix(12,0,0,12,552.4,235.6)" />
<use xlink:href="#f0_e" transform="matrix(11,0,0,11,370.8,235.6)" />
<use xlink:href="#f1_a" transform="matrix(12,0,0,12,189.9,235.6)" />
<use xlink:href="#f1_4" transform="matrix(12,0,0,12,201.9,235.6)" />
<use xlink:href="#f1_8" transform="matrix(12,0,0,12,207,235.6)" />
<use xlink:href="#f1_2" transform="matrix(12,0,0,12,219.2,235.6)" />
<use xlink:href="#f1_j" transform="matrix(12,0,0,12,231,235.6)" />
<use xlink:href="#f1_3" transform="matrix(12,0,0,12,250.8,235.6)" />
<use xlink:href="#f1_a" transform="matrix(12,0,0,12,261,235.6)" />
<use xlink:href="#f1_4" transform="matrix(12,0,0,12,273.1,235.6)" />
<use xlink:href="#f1_l" transform="matrix(12,0,0,12,278.1,235.6)" />
<use xlink:href="#f1_a" transform="matrix(12,0,0,12,289.3,235.6)" />
<use xlink:href="#f1_l" transform="matrix(12,0,0,12,301.4,235.6)" />
<use xlink:href="#f1_9" transform="matrix(12,0,0,12,305.5,235.6)" />
<use xlink:href="#f1_n" transform="matrix(12,0,0,12,317.4,235.6)" />
<use xlink:href="#f1_n" transform="matrix(12,0,0,12,324.7,235.6)" />
<use xlink:href="#f1_l" transform="matrix(12,0,0,12,332,235.6)" />
<use xlink:href="#f1_j" transform="matrix(12,0,0,12,336,235.6)" />
<use xlink:href="#f1_4" transform="matrix(12,0,0,12,348.5,235.6)" />
<use xlink:href="#f1_m" transform="matrix(12,0,0,12,353.4,235.6)" />
<use xlink:href="#f0_d" transform="matrix(11,0,0,11,174.9,235.6)" />
<use xlink:href="#f1_i" transform="matrix(12,0,0,12,137.8,235.6)" />
<use xlink:href="#f1_c" transform="matrix(12,0,0,12,142.8,235.6)" />
<use xlink:href="#f1_b" transform="matrix(12,0,0,12,152.5,235.6)" />
<use xlink:href="#f1_4" transform="matrix(12,0,0,12,162.8,235.6)" />
<use xlink:href="#f1_l" transform="matrix(12,0,0,12,657.9,257)" />
<use xlink:href="#f1_b" transform="matrix(12,0,0,12,662,257)" />
<use xlink:href="#f1_h" transform="matrix(12,0,0,12,672.4,257)" />
<use xlink:href="#f1_e" transform="matrix(12,0,0,12,683.8,257)" />
<use xlink:href="#f1_f" transform="matrix(12,0,0,12,701.1,257)" />
<use xlink:href="#f1_l" transform="matrix(12,0,0,12,713.3,257)" />
<use xlink:href="#f1_9" transform="matrix(12,0,0,12,717.4,257)" />
<use xlink:href="#f1_j" transform="matrix(12,0,0,12,729.2,257)" />
<use xlink:href="#f1_4" transform="matrix(12,0,0,12,747.5,257)" />
<use xlink:href="#f1_n" transform="matrix(12,0,0,12,752.5,257)" />
<use xlink:href="#f1_8" transform="matrix(12,0,0,12,759.8,257)" />
<use xlink:href="#f2_m" transform="matrix(11,0,0,11,638.8,257)" />
<use xlink:href="#f2_a" transform="matrix(11,0,0,11,646.1,257)" />
<use xlink:href="#f1_l" transform="matrix(12,0,0,12,562.7,257)" />
<use xlink:href="#f1_b" transform="matrix(12,0,0,12,566.8,257)" />
<use xlink:href="#f1_h" transform="matrix(12,0,0,12,577.2,257)" />
<use xlink:href="#f1_e" transform="matrix(12,0,0,12,588.6,257)" />
<use xlink:href="#f1_4" transform="matrix(12,0,0,12,605.9,257)" />
<use xlink:href="#f1_j" transform="matrix(12,0,0,12,610.9,257)" />
<use xlink:href="#f1_c" transform="matrix(12,0,0,12,623.4,257)" />
<use xlink:href="#f2_t" transform="matrix(11,0,0,11,546.3,257)" />
<use xlink:href="#f2_a" transform="matrix(11,0,0,11,551.1,257)" />
<use xlink:href="#f1_g" transform="matrix(12,0,0,12,540.7,257)" />
<use xlink:href="#f1_f" transform="matrix(12,0,0,12,426.3,278.4)" />
<use xlink:href="#f1_l" transform="matrix(12,0,0,12,438.5,278.4)" />
<use xlink:href="#f1_b" transform="matrix(12,0,0,12,442.6,278.4)" />
<use xlink:href="#f1_h" transform="matrix(12,0,0,12,453,278.4)" />
<use xlink:href="#f1_e" transform="matrix(12,0,0,12,464.4,278.4)" />
<use xlink:href="#f1_2" transform="matrix(12,0,0,12,475.9,278.4)" />
<use xlink:href="#f1_4" transform="matrix(12,0,0,12,487.8,278.4)" />
<use xlink:href="#f1_2" transform="matrix(12,0,0,12,498.7,278.4)" />
<use xlink:href="#f1_8" transform="matrix(12,0,0,12,510.7,278.4)" />
<use xlink:href="#f1_6" transform="matrix(12,0,0,12,522.9,278.4)" />
<use xlink:href="#f1_2" transform="matrix(12,0,0,12,533.4,278.4)" />
<use xlink:href="#f1_2" transform="matrix(12,0,0,12,551.4,278.4)" />
<use xlink:href="#f1_b" transform="matrix(12,0,0,12,563.4,278.4)" />
<use xlink:href="#f1_6" transform="matrix(12,0,0,12,573.7,278.4)" />
<use xlink:href="#f1_9" transform="matrix(12,0,0,12,584.3,278.4)" />
<use xlink:href="#f1_2" transform="matrix(12,0,0,12,596.2,278.4)" />
<use xlink:href="#f1_a" transform="matrix(12,0,0,12,613.9,278.4)" />
<use xlink:href="#f1_4" transform="matrix(12,0,0,12,626,278.4)" />
<use xlink:href="#f1_h" transform="matrix(12,0,0,12,631,278.4)" />
<use xlink:href="#f1_5" transform="matrix(12,0,0,12,642.4,278.4)" />
<use xlink:href="#f1_j" transform="matrix(12,0,0,12,653.3,278.4)" />
<use xlink:href="#f1_8" transform="matrix(12,0,0,12,665.8,278.4)" />
<use xlink:href="#f1_6" transform="matrix(12,0,0,12,678,278.4)" />
<use xlink:href="#f1_a" transform="matrix(12,0,0,12,694.4,278.4)" />
<use xlink:href="#f1_8" transform="matrix(12,0,0,12,706.4,278.4)" />
<use xlink:href="#f1_k" transform="matrix(12,0,0,12,718.7,278.4)" />
<use xlink:href="#f1_f" transform="matrix(12,0,0,12,730.9,278.4)" />
<use xlink:href="#f1_l" transform="matrix(12,0,0,12,743.1,278.4)" />
<use xlink:href="#f1_o" transform="matrix(12,0,0,12,747.2,278.4)" />
<use xlink:href="#f1_m" transform="matrix(12,0,0,12,754.7,278.4)" />
<use xlink:href="#f1_n" transform="matrix(12,0,0,12,764.6,278.4)" />
<use xlink:href="#f2_6" transform="matrix(11,0,0,11,378.1,278.4)" />
<use xlink:href="#f2_7" transform="matrix(11,0,0,11,385.6,278.4)" />
<use xlink:href="#f2_8" transform="matrix(11,0,0,11,394,278.4)" />
<use xlink:href="#f2_m" transform="matrix(11,0,0,11,407.1,278.4)" />
<use xlink:href="#f2_a" transform="matrix(11,0,0,11,414.4,278.4)" />
<use xlink:href="#f1_4" transform="matrix(12,0,0,12,367.4,278.4)" />
<use xlink:href="#f2_s" transform="matrix(11,0,0,11,329.7,278.4)" />
<use xlink:href="#f2_t" transform="matrix(11,0,0,11,338.1,278.4)" />
<use xlink:href="#f2_s" transform="matrix(11,0,0,11,342.8,278.4)" />
<use xlink:href="#f2_t" transform="matrix(11,0,0,11,351.1,278.4)" />
<use xlink:href="#f2_a" transform="matrix(11,0,0,11,355.8,278.4)" />
<use xlink:href="#f1_g" transform="matrix(12,0,0,12,324,278.4)" />
</g>
</g>
<path d="M128.9,302.4H653.4M128.9,324.6H772.4M128.9,349.2H772.4M128.9,373.6H772.4M128.9,398.2H772.4M128.9,422.7H772.4M128.9,447.3H772.4M129.2,302V447.6M391.1,302V447.6M653,302V447.6M772,324.2V447.6" class="g1_3" />
<g clip-path="url(#c0_3)">
<g fill="#000000" >
<use xlink:href="#f1_3" transform="matrix(12,0,0,12,612.3,319.9)" />
<use xlink:href="#f1_6" transform="matrix(12,0,0,12,622.7,319.9)" />
<use xlink:href="#f1_h" transform="matrix(12,0,0,12,633.3,319.9)" />
<use xlink:href="#f1_2" transform="matrix(10.5,0,0,10.5,353.4,317.8)" />
<use xlink:href="#f1_4" transform="matrix(10.5,0,0,10.5,363.8,317.8)" />
<use xlink:href="#f1_4" transform="matrix(10.5,0,0,10.5,368.2,317.8)" />
<use xlink:href="#f1_2" transform="matrix(10.5,0,0,10.5,372.5,317.8)" />
<use xlink:href="#f2_e" transform="matrix(11,0,0,11,661.7,340.7)" />
<use xlink:href="#f2_7" transform="matrix(11,0,0,11,670.1,340.7)" />
<use xlink:href="#f2_6" transform="matrix(11,0,0,11,530.8,344.4)" />
<use xlink:href="#f2_7" transform="matrix(11,0,0,11,538.2,344.4)" />
<use xlink:href="#f2_8" transform="matrix(11,0,0,11,546.6,344.4)" />
<use xlink:href="#f0_h" transform="matrix(13.5,0,0,13.5,559.8,344.4)" />
<use xlink:href="#f2_s" transform="matrix(11,0,0,11,400,344.4)" />
<use xlink:href="#f2_t" transform="matrix(11,0,0,11,408.2,344.4)" />
<use xlink:href="#f2_s" transform="matrix(11,0,0,11,412.9,344.4)" />
<use xlink:href="#f0_h" transform="matrix(13.5,0,0,13.5,421.4,344.4)" />
<use xlink:href="#f2_6" transform="matrix(11,0,0,11,269,340.7)" />
<use xlink:href="#f2_7" transform="matrix(11,0,0,11,276.5,340.7)" />
<use xlink:href="#f2_8" transform="matrix(11,0,0,11,284.8,340.7)" />
<use xlink:href="#f2_7" transform="matrix(11,0,0,11,297.9,340.7)" />
<use xlink:href="#f2_s" transform="matrix(11,0,0,11,138.1,340.7)" />
<use xlink:href="#f2_t" transform="matrix(11,0,0,11,146.4,340.7)" />
<use xlink:href="#f2_s" transform="matrix(11,0,0,11,151.1,340.7)" />
<use xlink:href="#f2_7" transform="matrix(11,0,0,11,159.5,340.7)" />
<use xlink:href="#f2_f" transform="matrix(11,0,0,11,661.7,365.1)" />
<use xlink:href="#f2_g" transform="matrix(11,0,0,11,666.4,365.1)" />
<use xlink:href="#f2_6" transform="matrix(11,0,0,11,530.8,368.8)" />
<use xlink:href="#f2_7" transform="matrix(11,0,0,11,538.2,368.8)" />
<use xlink:href="#f2_8" transform="matrix(11,0,0,11,546.6,368.8)" />
<use xlink:href="#f0_e" transform="matrix(13.5,0,0,13.5,559.8,368.8)" />
<use xlink:href="#f2_b" transform="matrix(10.5,0,0,10.5,565.4,368.8)" />
<use xlink:href="#f2_f" transform="matrix(10.5,0,0,10.5,571.7,368.8)" />
<use xlink:href="#f2_m" transform="matrix(10.5,0,0,10.5,576.1,368.8)" />
<use xlink:href="#f2_s" transform="matrix(11,0,0,11,400,368.8)" />
<use xlink:href="#f2_t" transform="matrix(11,0,0,11,408.2,368.8)" />
<use xlink:href="#f2_s" transform="matrix(11,0,0,11,412.9,368.8)" />
<use xlink:href="#f0_e" transform="matrix(13.5,0,0,13.5,421.4,368.8)" />
<use xlink:href="#f2_b" transform="matrix(10.5,0,0,10.5,427.2,368.8)" />
<use xlink:href="#f2_f" transform="matrix(10.5,0,0,10.5,433.4,368.8)" />
<use xlink:href="#f2_m" transform="matrix(10.5,0,0,10.5,437.7,368.8)" />
<use xlink:href="#f2_6" transform="matrix(11,0,0,11,269,368.8)" />
<use xlink:href="#f2_7" transform="matrix(11,0,0,11,276.5,368.8)" />
<use xlink:href="#f2_8" transform="matrix(11,0,0,11,284.8,368.8)" />
<use xlink:href="#f0_d" transform="matrix(13.5,0,0,13.5,297.9,368.8)" />
<use xlink:href="#f2_b" transform="matrix(11,0,0,11,307.1,368.8)" />
<use xlink:href="#f2_s" transform="matrix(11,0,0,11,138.1,368.8)" />
<use xlink:href="#f2_t" transform="matrix(11,0,0,11,146.4,368.8)" />
<use xlink:href="#f2_s" transform="matrix(11,0,0,11,151.1,368.8)" />
<use xlink:href="#f0_d" transform="matrix(13.5,0,0,13.5,159.5,368.8)" />
<use xlink:href="#f2_b" transform="matrix(11,0,0,11,168.7,368.8)" />
<use xlink:href="#f2_i" transform="matrix(11,0,0,11,661.7,389.7)" />
<use xlink:href="#f2_k" transform="matrix(11,0,0,11,669.1,389.7)" />
<use xlink:href="#f2_l" transform="matrix(11,0,0,11,673.7,389.7)" />
<use xlink:href="#f2_m" transform="matrix(11,0,0,11,678.5,389.7)" />
<use xlink:href="#f2_k" transform="matrix(11,0,0,11,685.9,389.7)" />
<use xlink:href="#f2_k" transform="matrix(11,0,0,11,690.5,389.7)" />
<use xlink:href="#f2_n" transform="matrix(11,0,0,11,695.2,389.7)" />
<use xlink:href="#f2_l" transform="matrix(11,0,0,11,702.7,389.7)" />
<use xlink:href="#f2_o" transform="matrix(11,0,0,11,707.4,389.7)" />
<use xlink:href="#f2_p" transform="matrix(11,0,0,11,719.5,389.7)" />
<use xlink:href="#f2_q" transform="matrix(11,0,0,11,727.9,389.7)" />
<use xlink:href="#f2_6" transform="matrix(11,0,0,11,530.8,393.4)" />
<use xlink:href="#f2_7" transform="matrix(11,0,0,11,538.2,393.4)" />
<use xlink:href="#f2_8" transform="matrix(11,0,0,11,546.6,393.4)" />
<use xlink:href="#f0_e" transform="matrix(13.5,0,0,13.5,559.8,393.4)" />
<use xlink:href="#f2_w" transform="matrix(11,0,0,11,565.4,393.4)" />
<use xlink:href="#f2_s" transform="matrix(11,0,0,11,400,393.4)" />
<use xlink:href="#f2_t" transform="matrix(11,0,0,11,408.2,393.4)" />
<use xlink:href="#f2_s" transform="matrix(11,0,0,11,412.9,393.4)" />
<use xlink:href="#f0_e" transform="matrix(13.5,0,0,13.5,421.4,393.4)" />
<use xlink:href="#f2_w" transform="matrix(10.5,0,0,10.5,427.2,393.4)" />
<use xlink:href="#f2_6" transform="matrix(11,0,0,11,269,393.4)" />
<use xlink:href="#f2_7" transform="matrix(11,0,0,11,276.5,393.4)" />
<use xlink:href="#f2_8" transform="matrix(11,0,0,11,284.8,393.4)" />
<use xlink:href="#f0_d" transform="matrix(13.5,0,0,13.5,297.9,393.4)" />
<use xlink:href="#f2_s" transform="matrix(11,0,0,11,138.1,393.4)" />
<use xlink:href="#f2_t" transform="matrix(11,0,0,11,146.4,393.4)" />
<use xlink:href="#f2_s" transform="matrix(11,0,0,11,151.1,393.4)" />
<use xlink:href="#f0_d" transform="matrix(13.5,0,0,13.5,159.5,393.4)" />
<use xlink:href="#f2_r" transform="matrix(11,0,0,11,661.7,414.2)" />
<use xlink:href="#f2_7" transform="matrix(11,0,0,11,670.1,414.2)" />
<use xlink:href="#f2_b" transform="matrix(11,0,0,11,678.5,414.2)" />
<use xlink:href="#f2_7" transform="matrix(11,0,0,11,685,414.2)" />
<use xlink:href="#f2_f" transform="matrix(11,0,0,11,693.4,414.2)" />
<use xlink:href="#f2_a" transform="matrix(11,0,0,11,698,414.2)" />
<use xlink:href="#f2_7" transform="matrix(11,0,0,11,703.7,414.2)" />
<use xlink:href="#f2_b" transform="matrix(11,0,0,11,712.1,414.2)" />
<use xlink:href="#f2_l" transform="matrix(11,0,0,11,718.6,414.2)" />
<use xlink:href="#f2_n" transform="matrix(11,0,0,11,723.3,414.2)" />
<use xlink:href="#f2_b" transform="matrix(11,0,0,11,730.7,414.2)" />
<use xlink:href="#f2_6" transform="matrix(11,0,0,11,530.8,417.8)" />
<use xlink:href="#f2_7" transform="matrix(11,0,0,11,538.2,417.8)" />
<use xlink:href="#f2_8" transform="matrix(11,0,0,11,546.6,417.8)" />
<use xlink:href="#f0_e" transform="matrix(13.5,0,0,13.5,559.8,417.8)" />
<use xlink:href="#f2_8" transform="matrix(11,0,0,11,565.4,417.8)" />
<use xlink:href="#f2_7" transform="matrix(11,0,0,11,578.6,417.8)" />
<use xlink:href="#f2_b" transform="matrix(11,0,0,11,587,417.8)" />
<use xlink:href="#f2_s" transform="matrix(11,0,0,11,400,417.8)" />
<use xlink:href="#f2_t" transform="matrix(11,0,0,11,408.2,417.8)" />
<use xlink:href="#f2_s" transform="matrix(11,0,0,11,412.9,417.8)" />
<use xlink:href="#f0_e" transform="matrix(13.5,0,0,13.5,421.4,417.8)" />
<use xlink:href="#f2_8" transform="matrix(10.5,0,0,10.5,427.2,417.8)" />
<use xlink:href="#f2_7" transform="matrix(10.5,0,0,10.5,439.5,417.8)" />
<use xlink:href="#f2_b" transform="matrix(10.5,0,0,10.5,447.6,417.8)" />
<use xlink:href="#f2_6" transform="matrix(11,0,0,11,269,414.2)" />
<use xlink:href="#f2_7" transform="matrix(11,0,0,11,276.5,414.2)" />
<use xlink:href="#f2_8" transform="matrix(11,0,0,11,284.8,414.2)" />
<use xlink:href="#f2_m" transform="matrix(11,0,0,11,297.9,414.2)" />
<use xlink:href="#f2_8" transform="matrix(11,0,0,11,305.3,414.2)" />
<use xlink:href="#f2_7" transform="matrix(11,0,0,11,318.5,414.2)" />
<use xlink:href="#f2_b" transform="matrix(11,0,0,11,326.7,414.2)" />
<use xlink:href="#f2_s" transform="matrix(11,0,0,11,138.1,414.2)" />
<use xlink:href="#f2_t" transform="matrix(11,0,0,11,146.4,414.2)" />
<use xlink:href="#f2_s" transform="matrix(11,0,0,11,151.1,414.2)" />
<use xlink:href="#f2_t" transform="matrix(11,0,0,11,159.5,414.2)" />
<use xlink:href="#f2_8" transform="matrix(11,0,0,11,164.2,414.2)" />
<use xlink:href="#f2_7" transform="matrix(11,0,0,11,177.3,414.2)" />
<use xlink:href="#f2_b" transform="matrix(11,0,0,11,185.6,414.2)" />
<use xlink:href="#f2_m" transform="matrix(11,0,0,11,661.7,438.8)" />
<use xlink:href="#f2_k" transform="matrix(11,0,0,11,669.1,438.8)" />
<use xlink:href="#f2_k" transform="matrix(11,0,0,11,673.7,438.8)" />
<use xlink:href="#f2_7" transform="matrix(11,0,0,11,678.5,438.8)" />
<use xlink:href="#f2_b" transform="matrix(11,0,0,11,686.9,438.8)" />
<use xlink:href="#f2_l" transform="matrix(11,0,0,11,693.4,438.8)" />
<use xlink:href="#f2_n" transform="matrix(11,0,0,11,698.1,438.8)" />
<use xlink:href="#f2_b" transform="matrix(11,0,0,11,705.5,438.8)" />
<use xlink:href="#f2_l" transform="matrix(11,0,0,11,712,438.8)" />
<use xlink:href="#f2_o" transform="matrix(11,0,0,11,716.7,438.8)" />
<use xlink:href="#f2_p" transform="matrix(11,0,0,11,728.8,438.8)" />
<use xlink:href="#f2_b" transform="matrix(11,0,0,11,737.2,438.8)" />
<use xlink:href="#f2_q" transform="matrix(11,0,0,11,743.8,438.8)" />
<use xlink:href="#f2_6" transform="matrix(11,0,0,11,530.8,442.4)" />
<use xlink:href="#f2_7" transform="matrix(11,0,0,11,538.2,442.4)" />
<use xlink:href="#f2_8" transform="matrix(11,0,0,11,546.6,442.4)" />
<use xlink:href="#f0_e" transform="matrix(13.5,0,0,13.5,559.8,442.4)" />
<use xlink:href="#f2_m" transform="matrix(11,0,0,11,565.4,442.4)" />
<use xlink:href="#f2_a" transform="matrix(11,0,0,11,572.9,442.4)" />
<use xlink:href="#f2_7" transform="matrix(11,0,0,11,578.5,442.4)" />
<use xlink:href="#f2_r" transform="matrix(11,0,0,11,586.9,442.4)" />
<use xlink:href="#f2_s" transform="matrix(11,0,0,11,400,442.4)" />
<use xlink:href="#f2_t" transform="matrix(11,0,0,11,408.2,442.4)" />
<use xlink:href="#f2_s" transform="matrix(11,0,0,11,412.9,442.4)" />
<use xlink:href="#f0_e" transform="matrix(13.5,0,0,13.5,421.4,442.4)" />
<use xlink:href="#f2_m" transform="matrix(10.5,0,0,10.5,427.2,442.4)" />
<use xlink:href="#f2_a" transform="matrix(10.5,0,0,10.5,434.2,442.4)" />
<use xlink:href="#f2_7" transform="matrix(10.5,0,0,10.5,439.5,442.4)" />
<use xlink:href="#f2_r" transform="matrix(10.5,0,0,10.5,447.5,442.4)" />
<use xlink:href="#f2_6" transform="matrix(11,0,0,11,269,442.4)" />
<use xlink:href="#f2_7" transform="matrix(11,0,0,11,276.5,442.4)" />
<use xlink:href="#f2_8" transform="matrix(11,0,0,11,284.8,442.4)" />
<use xlink:href="#f0_d" transform="matrix(13.5,0,0,13.5,297.9,442.4)" />
<use xlink:href="#f2_r" transform="matrix(11,0,0,11,307.1,442.4)" />
<use xlink:href="#f2_s" transform="matrix(11,0,0,11,138.1,442.4)" />
<use xlink:href="#f2_t" transform="matrix(11,0,0,11,146.4,442.4)" />
<use xlink:href="#f2_s" transform="matrix(11,0,0,11,151.1,442.4)" />
<use xlink:href="#f0_d" transform="matrix(13.5,0,0,13.5,159.5,442.4)" />
<use xlink:href="#f2_r" transform="matrix(11,0,0,11,168.7,442.4)" />
<use xlink:href="#f1_a" transform="matrix(12,0,0,12,501.5,464.6)" />
<use xlink:href="#f1_4" transform="matrix(12,0,0,12,513.6,464.6)" />
<use xlink:href="#f1_8" transform="matrix(12,0,0,12,518.6,464.6)" />
<use xlink:href="#f1_2" transform="matrix(12,0,0,12,530.8,464.6)" />
<use xlink:href="#f1_r" transform="matrix(12,0,0,12,552.3,464.6)" />
<use xlink:href="#f1_2" transform="matrix(12,0,0,12,558.2,464.6)" />
<use xlink:href="#f1_b" transform="matrix(12,0,0,12,570.1,464.6)" />
<use xlink:href="#f1_6" transform="matrix(12,0,0,12,580.5,464.6)" />
<use xlink:href="#f1_9" transform="matrix(12,0,0,12,591,464.6)" />
<use xlink:href="#f1_2" transform="matrix(12,0,0,12,602.9,464.6)" />
<use xlink:href="#f1_j" transform="matrix(12,0,0,12,614.7,464.6)" />
<use xlink:href="#f1_a" transform="matrix(12,0,0,12,636.6,464.6)" />
<use xlink:href="#f1_4" transform="matrix(12,0,0,12,648.6,464.6)" />
<use xlink:href="#f1_8" transform="matrix(12,0,0,12,653.6,464.6)" />
<use xlink:href="#f1_3" transform="matrix(12,0,0,12,665.8,464.6)" />
<use xlink:href="#f1_b" transform="matrix(12,0,0,12,676.2,464.6)" />
<use xlink:href="#f1_i" transform="matrix(12,0,0,12,695.9,464.6)" />
<use xlink:href="#f1_a" transform="matrix(12,0,0,12,700.9,464.6)" />
<use xlink:href="#f1_l" transform="matrix(12,0,0,12,712.9,464.6)" />
<use xlink:href="#f1_n" transform="matrix(12,0,0,12,717,464.6)" />
<use xlink:href="#f1_p" transform="matrix(12,0,0,12,724.4,464.6)" />
<use xlink:href="#f1_l" transform="matrix(12,0,0,12,746.6,464.6)" />
<use xlink:href="#f1_e" transform="matrix(12,0,0,12,750.7,464.6)" />
<use xlink:href="#f1_c" transform="matrix(12,0,0,12,762.2,464.6)" />
<use xlink:href="#f2_t" transform="matrix(11,0,0,11,487.1,464.6)" />
<use xlink:href="#f1_a" transform="matrix(12,0,0,12,198.4,464.6)" />
<use xlink:href="#f1_4" transform="matrix(12,0,0,12,210.5,464.6)" />
<use xlink:href="#f1_8" transform="matrix(12,0,0,12,215.5,464.6)" />
<use xlink:href="#f1_2" transform="matrix(12,0,0,12,227.7,464.6)" />
<use xlink:href="#f1_a" transform="matrix(12,0,0,12,249.1,464.6)" />
<use xlink:href="#f1_8" transform="matrix(12,0,0,12,261.1,464.6)" />
<use xlink:href="#f1_2" transform="matrix(12,0,0,12,282.6,464.6)" />
<use xlink:href="#f1_e" transform="matrix(12,0,0,12,294.6,464.6)" />
<use xlink:href="#f1_l" transform="matrix(12,0,0,12,306,464.6)" />
<use xlink:href="#f1_b" transform="matrix(12,0,0,12,310.1,464.6)" />
<use xlink:href="#f1_q" transform="matrix(12,0,0,12,320.5,464.6)" />
<use xlink:href="#f1_j" transform="matrix(12,0,0,12,332.4,464.6)" />
<use xlink:href="#f1_4" transform="matrix(12,0,0,12,344.9,464.6)" />
<use xlink:href="#f1_a" transform="matrix(12,0,0,12,359.3,464.6)" />
<use xlink:href="#f1_l" transform="matrix(12,0,0,12,371.3,464.6)" />
<use xlink:href="#f1_9" transform="matrix(12,0,0,12,375.4,464.6)" />
<use xlink:href="#f1_n" transform="matrix(12,0,0,12,387.3,464.6)" />
<use xlink:href="#f1_n" transform="matrix(12,0,0,12,394.6,464.6)" />
<use xlink:href="#f1_l" transform="matrix(12,0,0,12,402,464.6)" />
<use xlink:href="#f1_j" transform="matrix(12,0,0,12,405.9,464.6)" />
<use xlink:href="#f1_4" transform="matrix(12,0,0,12,418.5,464.6)" />
<use xlink:href="#f1_m" transform="matrix(12,0,0,12,423.3,464.6)" />
<use xlink:href="#f1_m" transform="matrix(12,0,0,12,442.7,464.6)" />
<use xlink:href="#f1_8" transform="matrix(12,0,0,12,452.8,464.6)" />
<use xlink:href="#f1_j" transform="matrix(12,0,0,12,465,464.6)" />
<use xlink:href="#f2_m" transform="matrix(11,0,0,11,181.3,464.6)" />
<use xlink:href="#f1_i" transform="matrix(12,0,0,12,137.8,464.6)" />
<use xlink:href="#f1_j" transform="matrix(12,0,0,12,142.8,464.6)" />
<use xlink:href="#f1_k" transform="matrix(12,0,0,12,155.2,464.6)" />
<use xlink:href="#f1_6" transform="matrix(12,0,0,12,161.6,464.6)" />
<use xlink:href="#f1_b" transform="matrix(12,0,0,12,358.9,486)" />
<use xlink:href="#f1_h" transform="matrix(12,0,0,12,369.3,486)" />
<use xlink:href="#f1_4" transform="matrix(12,0,0,12,380.7,486)" />
<use xlink:href="#f1_e" transform="matrix(12,0,0,12,385.6,486)" />
<use xlink:href="#f1_3" transform="matrix(12,0,0,12,402.9,486)" />
<use xlink:href="#f1_4" transform="matrix(12,0,0,12,413.2,486)" />
<use xlink:href="#f1_d" transform="matrix(12,0,0,12,418.3,486)" />
<use xlink:href="#f1_j" transform="matrix(12,0,0,12,431.2,486)" />
<use xlink:href="#f1_6" transform="matrix(12,0,0,12,443.7,486)" />
<use xlink:href="#f1_8" transform="matrix(12,0,0,12,460.1,486)" />
<use xlink:href="#f1_4" transform="matrix(12,0,0,12,472.3,486)" />
<use xlink:href="#f1_2" transform="matrix(12,0,0,12,477.3,486)" />
<use xlink:href="#f1_b" transform="matrix(12,0,0,12,495.2,486)" />
<use xlink:href="#f1_h" transform="matrix(12,0,0,12,505.6,486)" />
<use xlink:href="#f1_4" transform="matrix(12,0,0,12,517.1,486)" />
<use xlink:href="#f1_e" transform="matrix(12,0,0,12,522.1,486)" />
<use xlink:href="#f1_2" transform="matrix(12,0,0,12,533.5,486)" />
<use xlink:href="#f1_l" transform="matrix(12,0,0,12,551.2,486)" />
<use xlink:href="#f1_c" transform="matrix(12,0,0,12,555.4,486)" />
<use xlink:href="#f1_a" transform="matrix(12,0,0,12,570.8,486)" />
<use xlink:href="#f1_h" transform="matrix(12,0,0,12,582.8,486)" />
<use xlink:href="#f1_m" transform="matrix(12,0,0,12,594.3,486)" />
<use xlink:href="#f1_b" transform="matrix(12,0,0,12,604.4,486)" />
<use xlink:href="#f1_i" transform="matrix(12,0,0,12,620.6,486)" />
<use xlink:href="#f1_a" transform="matrix(12,0,0,12,625.6,486)" />
<use xlink:href="#f1_l" transform="matrix(12,0,0,12,637.6,486)" />
<use xlink:href="#f1_n" transform="matrix(12,0,0,12,641.7,486)" />
<use xlink:href="#f1_8" transform="matrix(12,0,0,12,654.9,486)" />
<use xlink:href="#f1_b" transform="matrix(12,0,0,12,667.1,486)" />
<use xlink:href="#f1_p" transform="matrix(12,0,0,12,677.5,486)" />
<use xlink:href="#f1_s" transform="matrix(12,0,0,12,696.4,486)" />
<use xlink:href="#f1_c" transform="matrix(12,0,0,12,706.2,486)" />
<use xlink:href="#f1_r" transform="matrix(12,0,0,12,721.8,486)" />
<use xlink:href="#f1_3" transform="matrix(12,0,0,12,727.6,486)" />
<use xlink:href="#f1_6" transform="matrix(12,0,0,12,738,486)" />
<use xlink:href="#f1_h" transform="matrix(12,0,0,12,748.5,486)" />
<use xlink:href="#f1_2" transform="matrix(12,0,0,12,760,486)" />
<use xlink:href="#f2_m" transform="matrix(11,0,0,11,339,486)" />
<use xlink:href="#f2_a" transform="matrix(11,0,0,11,346.3,486)" />
<use xlink:href="#f1_b" transform="matrix(12,0,0,12,138,486)" />
<use xlink:href="#f1_h" transform="matrix(12,0,0,12,148.4,486)" />
<use xlink:href="#f1_4" transform="matrix(12,0,0,12,159.8,486)" />
<use xlink:href="#f1_e" transform="matrix(12,0,0,12,164.8,486)" />
<use xlink:href="#f1_2" transform="matrix(12,0,0,12,176.3,486)" />
<use xlink:href="#f1_p" transform="matrix(12,0,0,12,188.2,486)" />
<use xlink:href="#f1_6" transform="matrix(12,0,0,12,207.1,486)" />
<use xlink:href="#f1_4" transform="matrix(12,0,0,12,217.7,486)" />
<use xlink:href="#f1_p" transform="matrix(12,0,0,12,222.7,486)" />
<use xlink:href="#f1_q" transform="matrix(12,0,0,12,235.7,486)" />
<use xlink:href="#f1_b" transform="matrix(12,0,0,12,247.6,486)" />
<use xlink:href="#f1_2" transform="matrix(12,0,0,12,263.9,486)" />
<use xlink:href="#f1_l" transform="matrix(12,0,0,12,275.8,486)" />
<use xlink:href="#f1_2" transform="matrix(12,0,0,12,279.9,486)" />
<use xlink:href="#f1_i" transform="matrix(12,0,0,12,297.7,486)" />
<use xlink:href="#f1_a" transform="matrix(12,0,0,12,302.6,486)" />
<use xlink:href="#f1_l" transform="matrix(12,0,0,12,314.6,486)" />
<use xlink:href="#f1_n" transform="matrix(12,0,0,12,318.7,486)" />
<use xlink:href="#f1_u" transform="matrix(12,0,0,12,326,486)" />
<use xlink:href="#f1_8" transform="matrix(12,0,0,12,743,507.4)" />
<use xlink:href="#f1_4" transform="matrix(12,0,0,12,755.2,507.4)" />
<use xlink:href="#f1_2" transform="matrix(12,0,0,12,760.2,507.4)" />
<use xlink:href="#f2_6" transform="matrix(11,0,0,11,697.7,507.4)" />
<use xlink:href="#f2_7" transform="matrix(11,0,0,11,705.2,507.4)" />
<use xlink:href="#f2_8" transform="matrix(11,0,0,11,713.4,507.4)" />
<use xlink:href="#f2_t" transform="matrix(11,0,0,11,726.6,507.4)" />
<use xlink:href="#f2_a" transform="matrix(11,0,0,11,731.2,507.4)" />
</g>
</g>
<path d="M697.7,502.6h39.1" class="g2_3" />
<g clip-path="url(#c0_3)">
<g fill="#000000" >
<use xlink:href="#f1_8" transform="matrix(12,0,0,12,664.4,507.4)" />
<use xlink:href="#f1_b" transform="matrix(12,0,0,12,676.7,507.4)" />
<use xlink:href="#f1_4" transform="matrix(12,0,0,12,687.1,507.4)" />
<use xlink:href="#f2_6" transform="matrix(11,0,0,11,616.3,507.4)" />
<use xlink:href="#f2_7" transform="matrix(11,0,0,11,623.8,507.4)" />
<use xlink:href="#f2_8" transform="matrix(11,0,0,11,632.2,507.4)" />
<use xlink:href="#f2_m" transform="matrix(11,0,0,11,645.3,507.4)" />
<use xlink:href="#f2_a" transform="matrix(11,0,0,11,652.6,507.4)" />
<use xlink:href="#f1_g" transform="matrix(12,0,0,12,603.5,507.4)" />
<use xlink:href="#f1_w" transform="matrix(12,0,0,12,609.3,507.4)" />
<use xlink:href="#f0_15" transform="matrix(16,0,0,16,647.9,552.9)" />
<use xlink:href="#f0_r" transform="matrix(16,0,0,16,672.5,552.9)" />
<use xlink:href="#f0_c" transform="matrix(16,0,0,16,686.4,552.9)" />
<use xlink:href="#f0_b" transform="matrix(16,0,0,16,697.7,552.9)" />
<use xlink:href="#f0_q" transform="matrix(16,0,0,16,710.2,552.9)" />
<use xlink:href="#f0_k" transform="matrix(16,0,0,16,721.5,552.9)" />
<use xlink:href="#f0_e" transform="matrix(16,0,0,16,729.9,552.9)" />
<use xlink:href="#f0_q" transform="matrix(16,0,0,16,737,552.9)" />
<use xlink:href="#f0_b" transform="matrix(16,0,0,16,748.2,552.9)" />
<use xlink:href="#f0_c" transform="matrix(16,0,0,16,760.8,552.9)" />
<use xlink:href="#f1_4" transform="matrix(12,0,0,12,484,594.6)" />
<use xlink:href="#f1_k" transform="matrix(12,0,0,12,489,594.6)" />
<use xlink:href="#f1_2" transform="matrix(12,0,0,12,501.4,594.6)" />
<use xlink:href="#f1_b" transform="matrix(12,0,0,12,513.3,594.6)" />
<use xlink:href="#f1_6" transform="matrix(12,0,0,12,523.7,594.6)" />
<use xlink:href="#f1_9" transform="matrix(12,0,0,12,534.2,594.6)" />
<use xlink:href="#f1_6" transform="matrix(12,0,0,12,546.1,594.6)" />
<use xlink:href="#f1_a" transform="matrix(12,0,0,12,562.5,594.6)" />
<use xlink:href="#f1_4" transform="matrix(12,0,0,12,574.5,594.6)" />
<use xlink:href="#f1_3" transform="matrix(12,0,0,12,579.5,594.6)" />
<use xlink:href="#f1_t" transform="matrix(12,0,0,12,589.9,594.6)" />
<use xlink:href="#f1_q" transform="matrix(12,0,0,12,601.8,594.6)" />
<use xlink:href="#f1_2" transform="matrix(12,0,0,12,613.7,594.6)" />
<use xlink:href="#f1_a" transform="matrix(12,0,0,12,631.6,594.6)" />
<use xlink:href="#f1_4" transform="matrix(12,0,0,12,643.6,594.6)" />
<use xlink:href="#f1_l" transform="matrix(12,0,0,12,648.7,594.6)" />
<use xlink:href="#f1_9" transform="matrix(12,0,0,12,652.8,594.6)" />
<use xlink:href="#f1_2" transform="matrix(12,0,0,12,664.7,594.6)" />
<use xlink:href="#f1_2" transform="matrix(12,0,0,12,676.6,594.6)" />
<use xlink:href="#f1_a" transform="matrix(12,0,0,12,694.3,594.6)" />
<use xlink:href="#f1_8" transform="matrix(12,0,0,12,706.3,594.6)" />
<use xlink:href="#f1_f" transform="matrix(12,0,0,12,724.4,594.6)" />
<use xlink:href="#f1_b" transform="matrix(12,0,0,12,736.6,594.6)" />
<use xlink:href="#f1_p" transform="matrix(12,0,0,12,747,594.6)" />
<use xlink:href="#f1_2" transform="matrix(12,0,0,12,760,594.6)" />
<use xlink:href="#f3_2" transform="matrix(13,0,0,13,653.3,617.5)" />
<use xlink:href="#f3_3" transform="matrix(13,0,0,13,668.4,617.5)" />
<use xlink:href="#f3_4" transform="matrix(13,0,0,13,675.6,617.5)" />
<use xlink:href="#f3_a" transform="matrix(13,0,0,13,688.2,617.5)" />
<use xlink:href="#f3_b" transform="matrix(13,0,0,13,698.6,617.5)" />
<use xlink:href="#f3_c" transform="matrix(13,0,0,13,710.7,617.5)" />
<use xlink:href="#f3_b" transform="matrix(13,0,0,13,718.2,617.5)" />
<use xlink:href="#f3_c" transform="matrix(13,0,0,13,730.3,617.5)" />
<use xlink:href="#f3_8" transform="matrix(13,0,0,13,737.7,617.5)" />
<use xlink:href="#f3_e" transform="matrix(13,0,0,13,758,617.5)" />
<use xlink:href="#f4_o" transform="matrix(12,0,0,12,645.7,617.5)" />
</g>
</g>
<path d="M129,622.6H653.4M129,642.8H653.4M129,665H772.4M129,685H772.4M129,705.1H772.4M129,725.2H772.4M129,745.3H772.4M129,765.3H772.4m-643,-143V765.7M303.9,622.3v20.9m0,21.4V765.7m0,-123.3v22.9m174.4,-43v20.9m0,21.4V765.7m.2,-123.3v22.9M653,622.3V765.7M772,664.6V765.7" class="g1_3" />
<g clip-path="url(#c0_3)">
<g fill="#000000" >
<use xlink:href="#f2_2" transform="matrix(11,0,0,11,554.1,638.8)" />
<use xlink:href="#f2_3" transform="matrix(11,0,0,11,566.2,638.8)" />
<use xlink:href="#f2_4" transform="matrix(11,0,0,11,380.4,638.8)" />
<use xlink:href="#f2_3" transform="matrix(11,0,0,11,390.7,638.8)" />
<use xlink:href="#f2_5" transform="matrix(11,0,0,11,208.2,638.8)" />
<use xlink:href="#f2_3" transform="matrix(11,0,0,11,213.9,638.8)" />
<use xlink:href="#f2_6" transform="matrix(10.5,0,0,10.5,574.4,658.2)" />
<use xlink:href="#f2_7" transform="matrix(10.5,0,0,10.5,581.5,658.2)" />
<use xlink:href="#f2_8" transform="matrix(10.5,0,0,10.5,589.6,658.2)" />
<use xlink:href="#f2_9" transform="matrix(10.5,0,0,10.5,601.9,658.2)" />
<use xlink:href="#f2_a" transform="matrix(10.5,0,0,10.5,610,658.2)" />
<use xlink:href="#f2_n" transform="matrix(10.5,0,0,10.5,615.4,658.2)" />
<use xlink:href="#f2_a" transform="matrix(10.5,0,0,10.5,622.5,658.2)" />
<use xlink:href="#f1_a" transform="matrix(12,0,0,12,509.7,660.2)" />
<use xlink:href="#f1_4" transform="matrix(12,0,0,12,521.7,660.2)" />
<use xlink:href="#f1_n" transform="matrix(12,0,0,12,526.7,660.2)" />
<use xlink:href="#f1_d" transform="matrix(12,0,0,12,534.1,660.2)" />
<use xlink:href="#f1_b" transform="matrix(12,0,0,12,547,660.2)" />
<use xlink:href="#f2_6" transform="matrix(10.5,0,0,10.5,400,658.2)" />
<use xlink:href="#f2_7" transform="matrix(10.5,0,0,10.5,407.1,658.2)" />
<use xlink:href="#f2_8" transform="matrix(10.5,0,0,10.5,415.1,658.2)" />
<use xlink:href="#f2_m" transform="matrix(10.5,0,0,10.5,427.6,658.2)" />
<use xlink:href="#f2_a" transform="matrix(10.5,0,0,10.5,434.8,658.2)" />
<use xlink:href="#f1_b" transform="matrix(12,0,0,12,335.3,660.2)" />
<use xlink:href="#f1_4" transform="matrix(12,0,0,12,345.7,660.2)" />
<use xlink:href="#f1_c" transform="matrix(12,0,0,12,350.8,660.2)" />
<use xlink:href="#f1_8" transform="matrix(12,0,0,12,360.4,660.2)" />
<use xlink:href="#f1_b" transform="matrix(12,0,0,12,372.6,660.2)" />
<use xlink:href="#f2_b" transform="matrix(10.5,0,0,10.5,225.5,658.2)" />
<use xlink:href="#f2_c" transform="matrix(10.5,0,0,10.5,231.7,658.2)" />
<use xlink:href="#f2_d" transform="matrix(10.5,0,0,10.5,239.7,658.2)" />
<use xlink:href="#f2_t" transform="matrix(10.5,0,0,10.5,247.8,658.2)" />
<use xlink:href="#f2_a" transform="matrix(10.5,0,0,10.5,252.2,658.2)" />
<use xlink:href="#f1_a" transform="matrix(12,0,0,12,159.2,660.2)" />
<use xlink:href="#f1_4" transform="matrix(12,0,0,12,171.2,660.2)" />
<use xlink:href="#f1_b" transform="matrix(12,0,0,12,176.3,660.2)" />
<use xlink:href="#f1_h" transform="matrix(12,0,0,12,186.7,660.2)" />
<use xlink:href="#f1_b" transform="matrix(12,0,0,12,198.1,660.2)" />
<use xlink:href="#f2_e" transform="matrix(11,0,0,11,661.7,680.9)" />
<use xlink:href="#f2_7" transform="matrix(11,0,0,11,670.1,680.9)" />
<use xlink:href="#f2_b" transform="matrix(11,0,0,11,138.1,680.9)" />
<use xlink:href="#f2_c" transform="matrix(11,0,0,11,144.7,680.9)" />
<use xlink:href="#f2_d" transform="matrix(11,0,0,11,153.1,680.9)" />
<use xlink:href="#f2_x" transform="matrix(11,0,0,11,161.5,680.9)" />
<use xlink:href="#f2_f" transform="matrix(11,0,0,11,661.7,701.1)" />
<use xlink:href="#f2_g" transform="matrix(11,0,0,11,666.4,701.1)" />
<use xlink:href="#f2_6" transform="matrix(11,0,0,11,312.6,701.1)" />
<use xlink:href="#f2_7" transform="matrix(11,0,0,11,320,701.1)" />
<use xlink:href="#f2_8" transform="matrix(11,0,0,11,328.4,701.1)" />
<use xlink:href="#f2_t" transform="matrix(11,0,0,11,341.4,701.1)" />
<use xlink:href="#f2_b" transform="matrix(11,0,0,11,346.2,701.1)" />
<use xlink:href="#f2_f" transform="matrix(11,0,0,11,352.7,701.1)" />
<use xlink:href="#f2_m" transform="matrix(11,0,0,11,357.4,701.1)" />
<use xlink:href="#f2_i" transform="matrix(11,0,0,11,661.7,721.1)" />
<use xlink:href="#f2_k" transform="matrix(11,0,0,11,669.1,721.1)" />
<use xlink:href="#f2_l" transform="matrix(11,0,0,11,673.7,721.1)" />
<use xlink:href="#f2_m" transform="matrix(11,0,0,11,678.5,721.1)" />
<use xlink:href="#f2_k" transform="matrix(11,0,0,11,685.9,721.1)" />
<use xlink:href="#f2_k" transform="matrix(11,0,0,11,690.5,721.1)" />
<use xlink:href="#f2_n" transform="matrix(11,0,0,11,695.2,721.1)" />
<use xlink:href="#f2_l" transform="matrix(11,0,0,11,702.7,721.1)" />
<use xlink:href="#f2_o" transform="matrix(11,0,0,11,707.4,721.1)" />
<use xlink:href="#f2_p" transform="matrix(11,0,0,11,719.5,721.1)" />
<use xlink:href="#f2_q" transform="matrix(11,0,0,11,727.9,721.1)" />
<use xlink:href="#f2_6" transform="matrix(11,0,0,11,312.6,721.1)" />
<use xlink:href="#f2_7" transform="matrix(11,0,0,11,320,721.1)" />
<use xlink:href="#f2_8" transform="matrix(11,0,0,11,328.4,721.1)" />
<use xlink:href="#f2_t" transform="matrix(11,0,0,11,341.4,721.1)" />
<use xlink:href="#f2_w" transform="matrix(11,0,0,11,346.2,721.1)" />
<use xlink:href="#f2_r" transform="matrix(11,0,0,11,661.7,741.3)" />
<use xlink:href="#f2_7" transform="matrix(11,0,0,11,670.1,741.3)" />
<use xlink:href="#f2_b" transform="matrix(11,0,0,11,678.5,741.3)" />
<use xlink:href="#f2_7" transform="matrix(11,0,0,11,685,741.3)" />
<use xlink:href="#f2_f" transform="matrix(11,0,0,11,693.4,741.3)" />
<use xlink:href="#f2_a" transform="matrix(11,0,0,11,698,741.3)" />
<use xlink:href="#f2_7" transform="matrix(11,0,0,11,703.7,741.3)" />
<use xlink:href="#f2_b" transform="matrix(11,0,0,11,712.1,741.3)" />
<use xlink:href="#f2_l" transform="matrix(11,0,0,11,718.6,741.3)" />
<use xlink:href="#f2_n" transform="matrix(11,0,0,11,723.3,741.3)" />
<use xlink:href="#f2_b" transform="matrix(11,0,0,11,730.7,741.3)" />
<use xlink:href="#f2_m" transform="matrix(11,0,0,11,661.7,761.3)" />
<use xlink:href="#f2_k" transform="matrix(11,0,0,11,669.1,761.3)" />
<use xlink:href="#f2_k" transform="matrix(11,0,0,11,673.7,761.3)" />
<use xlink:href="#f2_7" transform="matrix(11,0,0,11,678.5,761.3)" />
<use xlink:href="#f2_b" transform="matrix(11,0,0,11,686.9,761.3)" />
<use xlink:href="#f2_l" transform="matrix(11,0,0,11,693.4,761.3)" />
<use xlink:href="#f2_n" transform="matrix(11,0,0,11,698.1,761.3)" />
<use xlink:href="#f2_b" transform="matrix(11,0,0,11,705.5,761.3)" />
<use xlink:href="#f2_l" transform="matrix(11,0,0,11,712,761.3)" />
<use xlink:href="#f2_o" transform="matrix(11,0,0,11,716.7,761.3)" />
<use xlink:href="#f2_p" transform="matrix(11,0,0,11,728.8,761.3)" />
<use xlink:href="#f2_b" transform="matrix(11,0,0,11,737.2,761.3)" />
<use xlink:href="#f2_q" transform="matrix(11,0,0,11,743.8,761.3)" />
<use xlink:href="#f2_6" transform="matrix(11,0,0,11,487.2,761.3)" />
<use xlink:href="#f2_7" transform="matrix(11,0,0,11,494.7,761.3)" />
<use xlink:href="#f2_8" transform="matrix(11,0,0,11,502.9,761.3)" />
<use xlink:href="#f2_9" transform="matrix(11,0,0,11,516,761.3)" />
<use xlink:href="#f2_a" transform="matrix(11,0,0,11,524.4,761.3)" />
<use xlink:href="#f2_n" transform="matrix(11,0,0,11,530.1,761.3)" />
<use xlink:href="#f2_a" transform="matrix(11,0,0,11,537.4,761.3)" />
<use xlink:href="#f2_7" transform="matrix(11,0,0,11,543,761.3)" />
<use xlink:href="#f2_r" transform="matrix(11,0,0,11,551.4,761.3)" />
</g>
<g fill="#0000FF" >
<use xlink:href="#f2_3" transform="matrix(12,0,0,12,687,801.5)" />
<use xlink:href="#f2_m" transform="matrix(12,0,0,12,699.7,801.5)" />
<use xlink:href="#f2_b" transform="matrix(12,0,0,12,708.1,801.5)" />
<use xlink:href="#f2_9" transform="matrix(12,0,0,12,715.7,801.5)" />
<use xlink:href="#f2_c" transform="matrix(12,0,0,12,725.2,801.5)" />
<use xlink:href="#f2_m" transform="matrix(12,0,0,12,734.8,801.5)" />
<use xlink:href="#f2_b" transform="matrix(12,0,0,12,743.2,801.5)" />
<use xlink:href="#f2_f" transform="matrix(12,0,0,12,750.8,801.5)" />
<use xlink:href="#f2_n" transform="matrix(12,0,0,12,756.1,801.5)" />
<use xlink:href="#f2_b" transform="matrix(12,0,0,12,764.7,801.5)" />
</g>
</g>
<path d="M687,803.2h85.3" class="g3_3" />
<g clip-path="url(#c0_3)">
<g fill="#000000" >
<use xlink:href="#f3_2" transform="matrix(13,0,0,13,137.7,862.7)" />
<use xlink:href="#f3_3" transform="matrix(13,0,0,13,152.8,862.7)" />
<use xlink:href="#f3_4" transform="matrix(13,0,0,13,160,862.7)" />
<use xlink:href="#f3_a" transform="matrix(13,0,0,13,172.6,862.7)" />
<use xlink:href="#f3_b" transform="matrix(13,0,0,13,183,862.7)" />
<use xlink:href="#f3_c" transform="matrix(13,0,0,13,195.1,862.7)" />
<use xlink:href="#f3_b" transform="matrix(13,0,0,13,202.6,862.7)" />
<use xlink:href="#f3_c" transform="matrix(13,0,0,13,214.6,862.7)" />
<use xlink:href="#f3_8" transform="matrix(13,0,0,13,222.1,862.7)" />
<use xlink:href="#f3_f" transform="matrix(13,0,0,13,242.6,862.7)" />
<use xlink:href="#f3_g" transform="matrix(13,0,0,13,263.2,862.7)" />
<use xlink:href="#f1_b" transform="matrix(12,0,0,12,333.1,884.6)" />
<use xlink:href="#f1_h" transform="matrix(12,0,0,12,343.5,884.6)" />
<use xlink:href="#f1_4" transform="matrix(12,0,0,12,354.9,884.6)" />
<use xlink:href="#f1_e" transform="matrix(12,0,0,12,359.9,884.6)" />
<use xlink:href="#f1_2" transform="matrix(12,0,0,12,371.4,884.6)" />
<use xlink:href="#f1_a" transform="matrix(12,0,0,12,389.1,884.6)" />
<use xlink:href="#f1_4" transform="matrix(12,0,0,12,401.2,884.6)" />
<use xlink:href="#f1_h" transform="matrix(12,0,0,12,406.2,884.6)" />
<use xlink:href="#f1_5" transform="matrix(12,0,0,12,417.6,884.6)" />
<use xlink:href="#f1_j" transform="matrix(12,0,0,12,428.5,884.6)" />
<use xlink:href="#f1_8" transform="matrix(12,0,0,12,441,884.6)" />
<use xlink:href="#f1_6" transform="matrix(12,0,0,12,453.2,884.6)" />
<use xlink:href="#f1_3" transform="matrix(12,0,0,12,469.7,884.6)" />
<use xlink:href="#f1_6" transform="matrix(12,0,0,12,480.1,884.6)" />
<use xlink:href="#f1_h" transform="matrix(12,0,0,12,490.6,884.6)" />
<use xlink:href="#f1_2" transform="matrix(12,0,0,12,502.1,884.6)" />
<use xlink:href="#f1_i" transform="matrix(12,0,0,12,519.8,884.6)" />
<use xlink:href="#f1_j" transform="matrix(12,0,0,12,524.8,884.6)" />
<use xlink:href="#f1_k" transform="matrix(12,0,0,12,537.2,884.6)" />
<use xlink:href="#f1_6" transform="matrix(12,0,0,12,543.6,884.6)" />
<use xlink:href="#f1_f" transform="matrix(12,0,0,12,560.1,884.6)" />
<use xlink:href="#f1_l" transform="matrix(12,0,0,12,572.3,884.6)" />
<use xlink:href="#f1_8" transform="matrix(12,0,0,12,576.4,884.6)" />
<use xlink:href="#f1_6" transform="matrix(12,0,0,12,588.6,884.6)" />
<use xlink:href="#f1_2" transform="matrix(12,0,0,12,599.2,884.6)" />
<use xlink:href="#f1_f" transform="matrix(12,0,0,12,616.9,884.6)" />
<use xlink:href="#f1_l" transform="matrix(12,0,0,12,629.1,884.6)" />
<use xlink:href="#f1_9" transform="matrix(12,0,0,12,633.1,884.6)" />
<use xlink:href="#f1_e" transform="matrix(12,0,0,12,645,884.6)" />
<use xlink:href="#f1_p" transform="matrix(12,0,0,12,656.4,884.6)" />
<use xlink:href="#f1_j" transform="matrix(12,0,0,12,669.4,884.6)" />
<use xlink:href="#f1_2" transform="matrix(12,0,0,12,681.9,884.6)" />
<use xlink:href="#f1_a" transform="matrix(12,0,0,12,699.6,884.6)" />
<use xlink:href="#f1_8" transform="matrix(12,0,0,12,711.7,884.6)" />
<use xlink:href="#f1_f" transform="matrix(12,0,0,12,729.8,884.6)" />
<use xlink:href="#f1_o" transform="matrix(12,0,0,12,742.1,884.6)" />
<use xlink:href="#f1_3" transform="matrix(12,0,0,12,749.5,884.6)" />
<use xlink:href="#f1_a" transform="matrix(12,0,0,12,759.8,884.6)" />
<use xlink:href="#f2_m" transform="matrix(11,0,0,11,287.7,884.6)" />
<use xlink:href="#f2_r" transform="matrix(11,0,0,11,295.1,884.6)" />
<use xlink:href="#f2_f" transform="matrix(11,0,0,11,303.5,884.6)" />
<use xlink:href="#f2_a" transform="matrix(11,0,0,11,308.1,884.6)" />
<use xlink:href="#f2_n" transform="matrix(11,0,0,11,313.8,884.6)" />
<use xlink:href="#f2_a" transform="matrix(11,0,0,11,321.2,884.6)" />
<use xlink:href="#f1_x" transform="matrix(12,0,0,12,281.7,884.6)" />
</g>
</g>
<path d="M588,930H772M588,952.2H772M588,974.3H772M588,996.5H772m-184,22.1H772m-184,22.2H772M588,1063H772m-184,22.1H772m-184,22.2H772" class="g1_3" />
<g clip-path="url(#c0_3)">
<g fill="#000000" >
<use xlink:href="#f1_l" transform="matrix(12,0,0,12,497.8,925.2)" />
<use xlink:href="#f1_a" transform="matrix(12,0,0,12,501.9,925.2)" />
<use xlink:href="#f1_t" transform="matrix(12,0,0,12,513.9,925.2)" />
<use xlink:href="#f1_n" transform="matrix(12,0,0,12,525.8,925.2)" />
<use xlink:href="#f1_c" transform="matrix(12,0,0,12,533.1,925.2)" />
<use xlink:href="#f1_n" transform="matrix(12,0,0,12,542.8,925.2)" />
<use xlink:href="#f1_l" transform="matrix(12,0,0,12,556,925.2)" />
<use xlink:href="#f1_n" transform="matrix(12,0,0,12,560.1,925.2)" />
<use xlink:href="#f1_8" transform="matrix(12,0,0,12,567.5,925.2)" />
<use xlink:href="#f1_a" transform="matrix(12,0,0,12,489.3,947.4)" />
<use xlink:href="#f1_t" transform="matrix(12,0,0,12,501.4,947.4)" />
<use xlink:href="#f1_n" transform="matrix(12,0,0,12,513.3,947.4)" />
<use xlink:href="#f1_c" transform="matrix(12,0,0,12,520.6,947.4)" />
<use xlink:href="#f1_n" transform="matrix(12,0,0,12,530.2,947.4)" />
<use xlink:href="#f1_2" transform="matrix(12,0,0,12,543.5,947.4)" />
<use xlink:href="#f1_a" transform="matrix(12,0,0,12,555.4,947.4)" />
<use xlink:href="#f1_8" transform="matrix(12,0,0,12,567.5,947.4)" />
<use xlink:href="#f1_t" transform="matrix(12,0,0,12,508.4,969.5)" />
<use xlink:href="#f1_n" transform="matrix(12,0,0,12,520.3,969.5)" />
<use xlink:href="#f1_c" transform="matrix(12,0,0,12,527.7,969.5)" />
<use xlink:href="#f1_n" transform="matrix(12,0,0,12,537.3,969.5)" />
<use xlink:href="#f1_8" transform="matrix(12,0,0,12,550.6,969.5)" />
<use xlink:href="#f1_4" transform="matrix(12,0,0,12,562.8,969.5)" />
<use xlink:href="#f1_2" transform="matrix(12,0,0,12,567.8,969.5)" />
<use xlink:href="#f1_2" transform="matrix(12,0,0,12,497.4,991.7)" />
<use xlink:href="#f1_t" transform="matrix(12,0,0,12,509.4,991.7)" />
<use xlink:href="#f1_n" transform="matrix(12,0,0,12,521.3,991.7)" />
<use xlink:href="#f1_c" transform="matrix(12,0,0,12,528.6,991.7)" />
<use xlink:href="#f1_n" transform="matrix(12,0,0,12,538.2,991.7)" />
<use xlink:href="#f1_8" transform="matrix(12,0,0,12,551.5,991.7)" />
<use xlink:href="#f1_l" transform="matrix(12,0,0,12,563.7,991.7)" />
<use xlink:href="#f1_2" transform="matrix(12,0,0,12,567.8,991.7)" />
<use xlink:href="#f1_4" transform="matrix(12,0,0,12,481.4,1013.8)" />
<use xlink:href="#f1_n" transform="matrix(12,0,0,12,486.4,1013.8)" />
<use xlink:href="#f1_t" transform="matrix(12,0,0,12,493.8,1013.8)" />
<use xlink:href="#f1_n" transform="matrix(12,0,0,12,505.7,1013.8)" />
<use xlink:href="#f1_c" transform="matrix(12,0,0,12,513,1013.8)" />
<use xlink:href="#f1_n" transform="matrix(12,0,0,12,522.6,1013.8)" />
<use xlink:href="#f1_4" transform="matrix(12,0,0,12,535.9,1013.8)" />
<use xlink:href="#f1_n" transform="matrix(12,0,0,12,540.9,1013.8)" />
<use xlink:href="#f1_q" transform="matrix(12,0,0,12,548.2,1013.8)" />
<use xlink:href="#f1_n" transform="matrix(12,0,0,12,560.2,1013.8)" />
<use xlink:href="#f1_8" transform="matrix(12,0,0,12,567.5,1013.8)" />
<use xlink:href="#f1_t" transform="matrix(12,0,0,12,497.4,1036)" />
<use xlink:href="#f1_n" transform="matrix(12,0,0,12,509.3,1036)" />
<use xlink:href="#f1_c" transform="matrix(12,0,0,12,516.7,1036)" />
<use xlink:href="#f1_n" transform="matrix(12,0,0,12,526.3,1036)" />
<use xlink:href="#f1_4" transform="matrix(12,0,0,12,539.4,1036)" />
<use xlink:href="#f1_m" transform="matrix(12,0,0,12,544.5,1036)" />
<use xlink:href="#f1_4" transform="matrix(12,0,0,12,554.5,1036)" />
<use xlink:href="#f1_6" transform="matrix(12,0,0,12,559.6,1036)" />
<use xlink:href="#f1_c" transform="matrix(12,0,0,12,570.1,1036)" />
<use xlink:href="#f1_4" transform="matrix(12,0,0,12,508.4,1058.1)" />
<use xlink:href="#f1_t" transform="matrix(12,0,0,12,513.5,1058.1)" />
<use xlink:href="#f1_n" transform="matrix(12,0,0,12,525.4,1058.1)" />
<use xlink:href="#f1_c" transform="matrix(12,0,0,12,532.7,1058.1)" />
<use xlink:href="#f1_n" transform="matrix(12,0,0,12,542.3,1058.1)" />
<use xlink:href="#f1_f" transform="matrix(12,0,0,12,555.6,1058.1)" />
<use xlink:href="#f1_2" transform="matrix(12,0,0,12,567.8,1058.1)" />
<use xlink:href="#f1_f" transform="matrix(12,0,0,12,477,1080.3)" />
<use xlink:href="#f1_a" transform="matrix(12,0,0,12,489.2,1080.3)" />
<use xlink:href="#f1_t" transform="matrix(12,0,0,12,501.2,1080.3)" />
<use xlink:href="#f1_n" transform="matrix(12,0,0,12,513.1,1080.3)" />
<use xlink:href="#f1_c" transform="matrix(12,0,0,12,520.5,1080.3)" />
<use xlink:href="#f1_n" transform="matrix(12,0,0,12,530.1,1080.3)" />
<use xlink:href="#f1_f" transform="matrix(12,0,0,12,543.2,1080.3)" />
<use xlink:href="#f1_a" transform="matrix(12,0,0,12,555.4,1080.3)" />
<use xlink:href="#f1_8" transform="matrix(12,0,0,12,567.5,1080.3)" />
<use xlink:href="#f1_a" transform="matrix(12,0,0,12,501.3,1102.4)" />
<use xlink:href="#f1_t" transform="matrix(12,0,0,12,513.3,1102.4)" />
<use xlink:href="#f1_n" transform="matrix(12,0,0,12,525.2,1102.4)" />
<use xlink:href="#f1_c" transform="matrix(12,0,0,12,532.5,1102.4)" />
<use xlink:href="#f1_n" transform="matrix(12,0,0,12,542.2,1102.4)" />
<use xlink:href="#f1_a" transform="matrix(12,0,0,12,555.4,1102.4)" />
<use xlink:href="#f1_8" transform="matrix(12,0,0,12,567.5,1102.4)" />
</g>
<g fill="#0000FF" >
<use xlink:href="#f2_3" transform="matrix(12,0,0,12,687,1162.6)" />
<use xlink:href="#f2_m" transform="matrix(12,0,0,12,699.7,1162.6)" />
<use xlink:href="#f2_b" transform="matrix(12,0,0,12,708.1,1162.6)" />
<use xlink:href="#f2_9" transform="matrix(12,0,0,12,715.7,1162.6)" />
<use xlink:href="#f2_c" transform="matrix(12,0,0,12,725.2,1162.6)" />
<use xlink:href="#f2_m" transform="matrix(12,0,0,12,734.8,1162.6)" />
<use xlink:href="#f2_b" transform="matrix(12,0,0,12,743.2,1162.6)" />
<use xlink:href="#f2_f" transform="matrix(12,0,0,12,750.8,1162.6)" />
<use xlink:href="#f2_n" transform="matrix(12,0,0,12,756.1,1162.6)" />
<use xlink:href="#f2_b" transform="matrix(12,0,0,12,764.7,1162.6)" />
</g>
</g>
<path d="M687,1164.3h85.3" class="g3_3" />
<g clip-path="url(#c0_3)">
<g fill="#000000" >
<use xlink:href="#f1_11" transform="matrix(11,0,0,11,137.5,1208.9)" />
</g>
</g>
<defs>
<path d="M721,-14c0,0,-12,0,-12,9l4,28c0,0,17,82,17,338c0,0,0,105,-11,163c0,0,-11,58,-35,84c0,0,-25,26,-83,26H315c0,0,-43,-39,-67,-90c0,0,-25,-51,-25,-104c0,0,0,-59,17,-104c0,0,17,-45,35,-78c0,0,18,-34,18,-44c0,0,0,-26,-20,-95C273,119,252,50,231,0H26L87,214h69c0,0,23,0,23,14l-7,15c0,0,-15,27,-27,68c0,0,-11,41,-11,83c0,0,0,68,25,124c0,0,25,57,86,116H200c0,0,-45,0,-71,32c0,0,-27,33,-27,94c0,0,0,49,17,93c0,0,16,43,32,43c0,0,17,0,17,-10V869c0,0,0,-24,27,-24H637c0,0,73,0,103,-18c0,0,30,-17,46,-62c0,0,17,-46,24,-124c0,0,8,-78,8,-214V338c0,0,0,-279,-27,-311c0,0,-14,-16,-37,-28c0,0,-23,-13,-33,-13Z" 
id="f0_x"
transform="scale(0.001,-0.001)" />

<path d="M102,-3c0,0,-26,0,-26,31c0,0,0,176,35,320c0,0,34,145,102,247c0,0,3,4,3,25c0,0,0,24,-19,37c0,0,-19,13,-79,15c0,0,-40,0,-61,35c0,0,-22,35,-22,95c0,0,0,39,14,67c0,0,14,29,32,29c0,0,20,0,20,-25c0,0,0,-28,32,-28h33c0,0,54,0,85,-25c0,0,30,-25,30,-68l-3,-52c0,0,0,-22,3,-31c0,0,76,71,104,109c0,0,29,37,36,75c0,0,55,7,82,7c0,0,154,0,239,-126c0,0,85,-127,85,-352c0,0,0,-99,-15,-200C812,182,798,81,774,0H335l42,214H652c0,0,25,0,37,5c0,0,11,4,21,18c0,0,10,14,17,36c0,0,7,22,12,56c0,0,5,34,5,64c0,0,0,247,-241,247c0,0,-337,0,-337,-609c0,0,0,-20,-5,-27c0,0,-6,-7,-22,-7Z" 
id="f0_11"
transform="scale(0.001,-0.001)" />

<path d="M204,-8c0,0,-9,0,-11,5c0,0,-2,5,-2,22V549c0,0,0,40,-4,56c0,0,-4,16,-15,22c0,0,-10,7,-39,7H90c0,0,-33,0,-52,33c0,0,-19,33,-19,90c0,0,0,53,15,98c0,0,16,44,35,44c0,0,12,0,12,-13V872c0,0,0,-27,31,-27h42c0,0,79,0,103,-20c0,0,23,-19,23,-83V67c0,0,0,-16,-8,-26c0,0,-9,-10,-33,-30c0,0,-25,-19,-35,-19Z" 
id="f0_3"
transform="scale(0.001,-0.001)" />

<path d="M131,353c0,0,-3,0,-6,2c0,0,-3,2,-16,20c0,0,-13,17,-13,28c0,0,0,5,8,9c0,0,45,26,84,67c0,0,38,41,38,85c0,0,0,28,-7,43c0,0,-7,15,-24,21c0,0,-17,6,-61,6H124c0,0,-38,0,-62,34c0,0,-24,35,-24,107c0,0,0,52,16,87c0,0,17,34,38,34c0,0,16,0,16,-12V870c0,0,0,-25,26,-25h63c0,0,29,0,53,-4c0,0,23,-4,39,-23c0,0,17,-19,26,-59c0,0,9,-40,9,-113c0,0,0,-76,-15,-124c0,0,-15,-47,-51,-83c0,0,-35,-36,-74,-61c0,0,-39,-25,-53,-25Z" 
id="f0_v"
transform="scale(0.001,-0.001)" />

<path d="M436,206c0,0,131,0,201,62c0,0,70,63,70,175c0,0,0,47,-9,82c0,0,-9,34,-28,61c0,0,-19,27,-44,37c0,0,-26,11,-82,11H296c0,0,-51,-42,-79,-96c0,0,-29,-53,-29,-112c0,0,0,-110,63,-165c0,0,64,-55,185,-55ZM434,-13c0,0,-169,0,-256,94c0,0,-88,94,-88,274c0,0,0,92,29,159c0,0,28,66,76,120H150c0,0,-37,0,-57,32c0,0,-20,33,-20,108c0,0,0,33,8,60c0,0,8,27,21,45c0,0,14,17,25,17c0,0,20,0,20,-10V869c0,0,0,-24,31,-24H588c0,0,56,0,87,-20c0,0,31,-20,61,-81c0,0,30,-60,46,-129c0,0,15,-69,15,-151c0,0,0,-147,-43,-258C754,206,710,94,628,40c0,0,-81,-53,-194,-53Z" 
id="f0_12"
transform="scale(0.001,-0.001)" />

<path d="M235,-20c0,0,-31,0,-51,19c0,0,-21,18,-21,50c0,0,0,65,39,120c0,0,39,54,125,109c0,0,56,35,87,56c0,0,32,20,46,33c0,0,79,45,79,143c0,0,0,27,-7,65c0,0,-8,39,-27,49c0,0,-19,10,-85,10H110c0,0,-36,0,-53,21c0,0,-17,22,-25,71c0,0,-7,49,-7,134c0,0,0,62,27,122c0,0,8,15,8,34c0,0,0,23,-35,37c0,0,-21,7,-30,29c0,0,-9,22,-9,72c0,0,0,24,10,46c0,0,8,22,25,38c0,0,16,16,26,16c0,0,17,0,17,-14c0,0,0,-9,7,-17c0,0,7,-8,34,-14c0,0,65,-15,81,-26c0,0,15,-10,15,-31c0,0,0,-15,-15,-38c0,0,-15,-22,-33,-53c0,0,-19,-30,-34,-67c0,0,-15,-36,-15,-79c0,0,0,-43,14,-56c0,0,15,-14,54,-14H518c0,0,39,0,63,-17c0,0,23,-16,33,-53c0,0,10,-36,17,-89c0,0,6,-52,6,-93c0,0,0,-99,-9,-144c0,0,-9,-44,-40,-80c0,0,-31,-36,-110,-86c0,0,-112,-71,-138,-95c0,0,-26,-23,-36,-44c0,0,-9,-20,-9,-43c0,0,0,-11,5,-26c0,0,6,-15,6,-26c0,0,0,-32,-20,-50c0,0,-20,-19,-51,-19Z" 
id="f0_y"
transform="scale(0.001,-0.001)" />

<path d="M38,0L93,212H220c0,0,4,8,7,28c0,0,4,20,4,39c0,0,0,29,-13,61c0,0,-13,31,-29,65c0,0,-15,34,-28,72c0,0,-13,38,-13,81c0,0,0,29,10,54c0,0,9,25,30,60c0,0,-48,0,-68,11c0,0,-19,11,-30,36c0,0,-11,25,-11,71c0,0,0,30,9,54c0,0,8,25,22,40c0,0,14,15,24,15c0,0,17,0,17,-12V875c0,0,0,-30,41,-30h53c0,0,44,0,61,-10c0,0,17,-10,26,-34c0,0,9,-23,9,-67c0,0,0,-38,-6,-57c0,0,-6,-20,-13,-20c0,0,-6,0,-13,4c0,0,-3,4,-17,7c0,0,-14,2,-26,2c0,0,-34,0,-34,-45c0,0,0,-12,9,-34c0,0,8,-22,55,-116c0,0,46,-86,46,-143c0,0,0,-15,-8,-35c0,0,-9,-20,-50,-85H598c0,0,17,0,17,12c0,0,0,19,-6,53c0,0,-5,34,-5,74c0,0,0,80,58,228c0,0,18,46,18,56c0,0,0,15,-12,26c0,0,-12,11,-38,11H602c0,0,-43,0,-62,25c0,0,-19,25,-19,78c0,0,0,47,14,86c0,0,15,38,33,38c0,0,15,0,15,-15V867c0,0,0,-22,31,-22h55c0,0,51,0,78,-20c0,0,27,-20,27,-57c0,0,0,-46,-28,-147c0,0,-40,-145,-40,-253c0,0,0,-33,6,-63c0,0,6,-30,14,-54c0,0,8,-24,14,-42c0,0,7,-19,7,-30c0,0,0,-39,-14,-88C733,91,720,42,701,0Z" 
id="f0_a"
transform="scale(0.001,-0.001)" />

<path d="M46,0l55,212H483c0,0,68,0,105,25c0,0,38,25,57,78c0,0,18,52,18,131c0,0,0,97,-39,142c0,0,-40,46,-123,46H275c0,0,-25,-15,-40,-35c0,0,-15,-20,-15,-32c0,0,0,-25,37,-25l49,-1c0,0,42,0,67,-26c0,0,26,-26,26,-72c0,0,0,-68,-17,-118c0,0,-18,-50,-41,-50c0,0,-19,0,-19,18c0,0,0,34,-14,51c0,0,-13,16,-54,16c0,0,-38,0,-57,-11c0,0,-19,-11,-26,-43c0,0,-3,-22,-18,-22c0,0,-22,0,-34,37c0,0,-12,38,-12,102c0,0,0,128,78,211H163c0,0,-33,0,-52,34c0,0,-19,35,-19,91c0,0,0,50,15,94c0,0,16,45,32,45c0,0,17,0,17,-14V870c0,0,0,-25,33,-25H544c0,0,62,0,95,-17c0,0,32,-17,58,-66c0,0,26,-48,40,-125c0,0,13,-77,13,-158c0,0,0,-296,-116,-479Z" 
id="f0_5"
transform="scale(0.001,-0.001)" />

<path d="M150,-306c0,0,-6,0,-6,8l3,26c0,0,6,61,7,104c0,0,0,42,0,114V16l2,261v93c0,0,0,97,4,123c0,0,3,25,16,44c0,0,11,22,20,40c0,0,8,17,8,32c0,0,0,25,-42,25H130c0,0,-41,0,-66,39c0,0,-24,39,-24,101c0,0,0,43,16,83c0,0,16,41,33,41c0,0,15,0,15,-14l-2,-15c0,0,0,-24,29,-24H232c0,0,48,0,65,-17c0,0,16,-16,16,-54V713c0,0,0,-32,-17,-76L269,580c0,0,-21,-43,-21,-124l15,-667c0,0,0,-14,-9,-25c0,0,-9,-12,-43,-33l-35,-23c0,0,-19,-14,-26,-14Z" 
id="f0_13"
transform="scale(0.001,-0.001)" />

<path d="M20,0L75,212H492c0,0,19,51,25,97c0,0,5,46,5,105c0,0,0,63,-6,124c0,0,-6,61,-23,78c0,0,-16,18,-66,18H112c0,0,-36,0,-57,40c0,0,-21,40,-21,101c0,0,0,50,16,87c0,0,16,36,36,36c0,0,13,0,13,-14V870c0,0,0,-25,34,-25H457c0,0,63,0,92,-11c0,0,28,-10,41,-36c0,0,13,-26,18,-107c0,0,4,-80,4,-174c0,0,0,-174,-13,-224c0,0,-4,-15,-21,-41c0,0,-17,-25,-31,-40H688L640,0Z" 
id="f0_9"
transform="scale(0.001,-0.001)" />

<path d="M554,-8c0,0,-9,0,-11,6c0,0,-2,5,-2,24V548c0,0,0,38,-5,56c0,0,-4,18,-15,25c0,0,-12,7,-41,7H90c0,0,-33,0,-52,33c0,0,-19,33,-19,90c0,0,0,54,15,97c0,0,14,43,30,43c0,0,17,0,17,-13V872c0,0,0,-9,7,-18c0,0,7,-9,27,-9H512c0,0,54,0,77,-8c0,0,23,-9,33,-28c0,0,9,-20,9,-67V81c0,0,0,-31,-27,-53L583,9C583,9,563,-8,554,-8Z" 
id="f0_8"
transform="scale(0.001,-0.001)" />

<path d="M216,0c0,0,-59,212,-83,350c0,0,-25,139,-25,198c0,0,0,76,23,127c0,0,-42,13,-58,43c0,0,-15,30,-15,72c0,0,0,40,20,74c0,0,20,34,37,34c0,0,10,0,10,-13c0,0,0,-42,69,-42c0,0,57,0,80,-21c0,0,22,-21,22,-62c0,0,0,-38,-7,-72c0,0,-6,-34,-12,-34c0,0,-6,0,-16,10c0,0,-10,10,-25,10c0,0,-25,0,-35,-24c0,0,-10,-24,-10,-71c0,0,0,-164,72,-374c0,0,38,80,116,231c0,0,87,168,121,238c0,0,-36,6,-52,34c0,0,-17,28,-17,66c0,0,0,41,21,82c0,0,20,42,37,42c0,0,9,0,10,-7c0,0,5,-22,13,-32c0,0,9,-11,32,-12l44,-4c0,0,87,-4,87,-94c0,0,0,-33,-7,-67c0,0,-8,-34,-16,-34l-16,10c0,0,-15,10,-30,10c0,0,-22,0,-39,-29c0,0,-18,-32,-39,-72c0,0,-21,-41,-178,-355H691l38,91c0,0,58,139,124,224c0,0,38,50,60,80c0,0,22,29,22,45c0,0,0,12,-7,19c0,0,-6,7,-27,12c0,0,-42,18,-60,41c0,0,-17,24,-17,59c0,0,0,29,11,56c0,0,12,27,27,43c0,0,16,16,26,16c0,0,9,-1,10,-6l4,-14c0,0,4,-21,27,-25l70,-13c0,0,32,-6,51,-30c0,0,20,-24,20,-61c0,0,-2,-45,-23,-87c0,0,-21,-41,-91,-127c0,0,-46,-57,-77,-116c0,0,-31,-59,-71,-161L706,0Z" 
id="f0_4"
transform="scale(0.001,-0.001)" />

<path d="M134,-289c0,0,-15,0,-15,21V460c0,0,0,15,6,21c0,0,5,6,25,19c0,0,39,26,48,26c0,0,6,0,8,-2c0,0,2,-2,2,-9V-221c0,0,0,-17,-7,-25c0,0,-6,-9,-23,-22c0,0,-25,-21,-44,-21ZM351,-20c0,0,-32,0,-52,20c0,0,-19,19,-19,49c0,0,0,67,41,124c0,0,42,56,164,135c0,0,43,28,80,59c0,0,39,21,59,59c0,0,21,37,21,84c0,0,0,22,-6,54c0,0,-6,32,-14,46c0,0,-9,14,-29,19c0,0,-19,5,-70,5H178c0,0,-94,0,-94,125c0,0,0,50,16,94c0,0,16,45,31,45c0,0,17,0,17,-14V870c0,0,0,-25,34,-25H624c0,0,73,0,93,-58c0,0,25,-91,25,-194c0,0,0,-86,-6,-129c0,0,-7,-43,-29,-76c0,0,-21,-35,-85,-79c0,0,-49,-34,-111,-79c0,0,-63,-44,-81,-70c0,0,-19,-26,-19,-59c0,0,0,-11,5,-26c0,0,5,-15,5,-26c0,0,0,-33,-19,-51c0,0,-20,-18,-51,-18Z" 
id="f0_14"
transform="scale(0.001,-0.001)" />

<path d="M107,-18c0,0,-17,0,-17,18l3,9c0,0,23,48,23,124l-1,177c0,0,0,55,8,77c0,0,9,22,33,46c0,0,23,23,51,40c0,0,28,17,42,17c0,0,5,0,9,-3c0,0,5,-3,5,-8c0,0,0,-3,-11,-26c0,0,-14,-49,-14,-120l4,-223c0,0,0,-38,-9,-54c0,0,-8,-17,-32,-34C201,22,178,6,150,-5c0,0,-28,-13,-43,-13Zm547,0c0,0,-17,0,-17,18l2,10c0,0,10,38,10,109c0,0,0,79,-14,208c0,0,-15,128,-15,149c0,0,0,54,16,89c0,0,15,36,53,69H154c0,0,-35,0,-57,40c0,0,-21,40,-21,103c0,0,0,33,8,61c0,0,7,28,19,44c0,0,13,17,24,17c0,0,15,0,15,-13V869c0,0,0,-13,5,-19c0,0,5,-5,22,-5H718c0,0,50,0,50,-63V652c0,0,0,-21,-15,-30c0,0,-35,-24,-35,-77c0,0,0,-57,20,-169c0,0,27,-157,27,-272c0,0,0,-29,-6,-44c0,0,-6,-15,-17,-26c0,0,-12,-16,-47,-35L681,-9l-13,-6l-14,-3Z" 
id="f0_6"
transform="scale(0.001,-0.001)" />

<path d="M434,423c0,0,0,101,-7,142c0,0,-6,40,-22,60c0,0,-16,19,-45,19c0,0,-44,0,-66,-48c0,0,-22,-49,-22,-173ZM389,-14c0,0,-172,0,-254,89c0,0,-83,90,-83,279c0,0,0,184,79,274c0,0,79,91,238,91c0,0,142,0,206,-76c0,0,64,-76,64,-237V345H271V333c0,0,0,-111,18,-158c0,0,18,-47,58,-72c0,0,40,-25,110,-25c0,0,66,0,166,22V42C623,42,582,18,517,1c0,0,-66,-15,-128,-15Z" 
id="f0_d"
transform="scale(0.001,-0.001)" />

<path d="M41,0V49l91,18V634L41,652v49H336l8,-145c0,0,80,89,144,128c0,0,64,40,117,40h40V468H604l-45,94c0,0,-47,0,-106,-21c0,0,-60,-20,-105,-48V67L460,49V0Z" 
id="f0_c"
transform="scale(0.001,-0.001)" />

<path d="M34,0V49l76,18V634L38,652v49H325V67L402,49V0ZM217,831c0,0,-48,0,-81,33c0,0,-34,33,-34,82c0,0,0,48,34,81c0,0,34,33,81,33c0,0,48,0,81,-33c0,0,33,-33,33,-81c0,0,0,-47,-33,-81c0,0,-32,-34,-81,-34Z" 
id="f0_e"
transform="scale(0.001,-0.001)" />

<path d="M736,107V473c0,0,0,147,-48,202c0,0,-49,54,-187,54H278V107ZM139,0V836H499c0,0,105,0,177,-22c0,0,72,-21,116,-69c0,0,44,-49,64,-119c0,0,19,-71,19,-174V0Z" 
id="f1_f"
transform="scale(0.001,-0.001)" />

<path d="M102,312V836H241V369L102,312Z" 
id="f1_l"
transform="scale(0.001,-0.001)" />

<path d="M287,0L589,729H66v386H205V836l547,-1l-2,-82L433,0Z" 
id="f1_b"
transform="scale(0.001,-0.001)" />

<path d="M71,-141V-15L289,62L66,836H210L416,109c0,0,99,42,153,98c0,0,53,56,80,155c0,0,26,98,26,262V836H817V624c0,0,0,-88,-7,-154c0,0,-7,-67,-25,-132c0,0,-18,-66,-51,-116c0,0,-33,-51,-84,-98c0,0,-50,-48,-123,-87c0,0,-72,-39,-169,-74L71,-141Z" 
id="f1_h"
transform="scale(0.001,-0.001)" />

<path d="M139,0V106H400c0,0,176,0,253,71c0,0,78,72,78,250c0,0,0,163,-80,233c0,0,-81,69,-250,69H278L277,564c0,0,-1,-54,26,-80c0,0,27,-25,82,-25c0,0,30,0,80,9V355c0,0,-61,-12,-111,-12c0,0,-100,0,-157,55c0,0,-58,55,-58,186V836H456c0,0,193,0,303,-109c0,0,110,-109,110,-309c0,0,0,-200,-110,-309C759,109,648,0,456,0Z" 
id="f1_e"
transform="scale(0.001,-0.001)" />

<path d="M154,0V454l138,56V0ZM722,0V454c0,0,0,161,-49,218c0,0,-48,57,-186,57H139V836H485c0,0,207,0,291,-93c0,0,83,-94,83,-318V0Z" 
id="f1_2"
transform="scale(0.001,-0.001)" />

<path d="M139,-317V836H278V-317Z" 
id="f1_i"
transform="scale(0.001,-0.001)" />

<path d="M66,0V107H554V452c0,0,0,56,-4,93c0,0,-4,37,-18,75c0,0,-14,38,-40,60c0,0,-26,22,-71,36c0,0,-45,13,-110,13H66V836H312c0,0,91,0,157,-17c0,0,66,-17,109,-49c0,0,44,-32,69,-84c0,0,26,-52,36,-114c0,0,10,-62,10,-147V107H817V0Z" 
id="f1_6"
transform="scale(0.001,-0.001)" />

<path d="M585,0V426c0,0,0,54,-8,98c0,0,-8,44,-27,83c0,0,-19,40,-49,66c0,0,-30,26,-77,41c0,0,-47,15,-108,15H66V836H315c0,0,94,0,166,-20c0,0,71,-20,116,-54c0,0,46,-35,75,-88c0,0,28,-52,40,-112c0,0,12,-60,12,-137V0Z" 
id="f1_3"
transform="scale(0.001,-0.001)" />

<path d="M180,0L66,836H203L258,443c0,0,36,1,64,6c0,0,28,6,49,18c0,0,20,12,35,26c0,0,15,13,26,36c0,0,11,24,17,44c0,0,7,20,12,55c0,0,6,34,9,60c0,0,3,26,8,71c0,0,4,45,9,77H610c0,0,-13,-194,-31,-271c0,0,-31,-127,-111,-179c0,0,-71,-45,-196,-50L304,107c0,0,73,0,130,5c0,0,56,6,111,21c0,0,54,15,94,40c0,0,40,25,77,64c0,0,37,39,63,94c0,0,25,54,46,128c0,0,21,73,34,166c0,0,13,94,20,211h138c0,0,-14,-124,-29,-218c0,0,-16,-94,-39,-179c0,0,-22,-85,-50,-146c0,0,-28,-61,-68,-112c0,0,-39,-51,-87,-84C744,97,696,65,632,42C632,42,568,19,492,10C492,10,417,0,320,0Z" 
id="f1_p"
transform="scale(0.001,-0.001)" />

<path d="M156,-317V454l139,56V-317ZM505,0L806,729H139V835H967V753L650,0Z" 
id="f1_d"
transform="scale(0.001,-0.001)" />

<path d="M114,0l60,312c0,0,2,12,8,39c0,0,6,27,7,37c0,0,2,11,5,30c0,0,2,19,4,33c0,0,1,15,1,31c0,0,0,48,-35,146c0,0,-35,98,-98,208H228c0,0,3,-8,27,-67c0,0,25,-58,41,-117c0,0,21,53,50,90c0,0,29,37,57,57c0,0,29,21,65,32c0,0,37,11,65,14c0,0,28,3,67,3c0,0,300,0,300,-396V0H480V106H761V452c0,0,0,146,-46,215c0,0,-45,70,-118,70c0,0,-134,0,-198,-119c0,0,-36,-68,-67,-222c0,0,-2,-10,-6,-27L253,0Z" 
id="f1_j"
transform="scale(0.001,-0.001)" />

<path d="M152,0V473c0,0,0,94,28,161c0,0,29,66,71,95H66V836H463V729H404c0,0,-65,0,-89,-57c0,0,-25,-58,-25,-199V0Z" 
id="f1_k"
transform="scale(0.001,-0.001)" />

<path d="M138,-7c0,0,-34,0,-72,10V129c0,0,25,-8,52,-8c0,0,33,0,58,5c0,0,26,5,58,24c0,0,33,20,53,54c0,0,21,34,36,97c0,0,15,64,15,151c0,0,0,113,-19,173c0,0,-19,60,-56,82c0,0,-38,22,-107,22H89V836h72c0,0,165,0,240,-91c0,0,76,-91,76,-293c0,0,0,-107,26,-227c0,0,25,-119,83,-225H437c0,0,-43,101,-62,184c0,0,-24,-60,-51,-99c0,0,-26,-38,-56,-58C268,27,239,7,209,0c0,0,-30,-7,-71,-7Z" 
id="f1_o"
transform="scale(0.001,-0.001)" />

<path d="M495,413c0,0,0,133,-34,190c0,0,-34,57,-105,57c0,0,-78,0,-119,-63c0,0,-42,-62,-42,-184ZM374,-14c0,0,-163,0,-239,87c0,0,-75,88,-75,283c0,0,0,183,77,273c0,0,76,91,219,91c0,0,269,0,269,-306V353H194V340c0,0,0,-103,23,-160c0,0,22,-57,70,-87c0,0,47,-29,124,-29c0,0,40,0,96,6c0,0,55,7,91,15V43C598,43,562,20,500,3c0,0,-61,-17,-126,-17Z" 
id="f2_m"
transform="scale(0.001,-0.001)" />

<path d="M31,0V33l88,19V649L31,668v33H235l7,-87c0,0,44,37,121,71c0,0,76,35,121,35h11V530H463l-43,82c0,0,-37,0,-88,-10c0,0,-52,-10,-89,-26V52L363,33V0Z" 
id="f2_a"
transform="scale(0.001,-0.001)" />

<path d="M139,0V836H278V0Z" 
id="f1_4"
transform="scale(0.001,-0.001)" />

<path d="M32,0V33L151,52V649L52,668v33H275V52L395,33V0ZM201,850c0,0,-32,0,-56,24c0,0,-24,24,-24,56c0,0,0,34,24,58c0,0,24,24,56,24c0,0,34,0,58,-24c0,0,24,-24,24,-58c0,0,0,-32,-24,-56c0,0,-24,-24,-58,-24Z" 
id="f2_t"
transform="scale(0.001,-0.001)" />

<path d="M112,-5c0,0,-39,0,-97,11V113c0,0,48,-10,77,-10c0,0,53,0,70,42c0,0,17,43,17,164V729H50V836H501c0,0,107,0,179,-25c0,0,72,-25,112,-77c0,0,40,-51,57,-118c0,0,16,-67,16,-164V0H726V454c0,0,0,55,-3,92c0,0,-4,37,-17,75c0,0,-14,38,-38,59c0,0,-24,22,-65,36c0,0,-42,13,-102,13H318V309c0,0,0,-160,-46,-237C272,72,226,-5,112,-5Z" 
id="f1_a"
transform="scale(0.001,-0.001)" />

<path d="M284,67c0,0,51,0,88,12c0,0,37,12,74,30V358l-98,-3c0,0,-100,-4,-135,-39c0,0,-35,-35,-35,-117c0,0,0,-132,106,-132ZM233,-14c0,0,-179,0,-179,208c0,0,0,70,27,116c0,0,27,46,87,70c0,0,60,24,173,27l105,3V519c0,0,0,72,-26,107c0,0,-27,34,-82,34c0,0,-75,0,-137,-35L176,538H134V691c0,0,121,26,213,26c0,0,115,0,169,-47c0,0,54,-47,54,-144V52L657,33V0H465L451,70c0,0,-85,-84,-218,-84Z" 
id="f2_n"
transform="scale(0.001,-0.001)" />

<path d="M163,0V190H321V0Z" 
id="f1_g"
transform="scale(0.001,-0.001)" />

<path d="M66,0V107H332V555c0,0,0,92,-37,133c0,0,-37,41,-116,41H85V836h94c0,0,153,0,223,-66c0,0,69,-66,69,-231V0Z" 
id="f1_n"
transform="scale(0.001,-0.001)" />

<path d="M522,-20c0,0,-196,0,-290,99c0,0,-94,100,-94,324V836H276V397c0,0,0,-86,16,-147c0,0,17,-60,50,-94c0,0,34,-34,77,-49c0,0,43,-15,103,-15c0,0,59,0,102,15c0,0,44,15,77,49c0,0,33,34,50,94c0,0,17,61,17,147c0,0,0,84,-8,143c0,0,-7,58,-25,105c0,0,-17,47,-51,69c0,0,-33,23,-83,23c0,0,-50,0,-119,-22V821c0,0,85,23,150,23c0,0,76,0,130,-30c0,0,53,-31,85,-90c0,0,31,-59,45,-138c0,0,13,-78,13,-183c0,0,0,-224,-93,-324c0,0,-94,-99,-290,-99Z" 
id="f1_9"
transform="scale(0.001,-0.001)" />

<path d="M139,0V138c0,0,0,61,8,112c0,0,7,52,19,87c0,0,11,36,30,66c0,0,19,31,35,49c0,0,17,19,41,35c0,0,25,17,41,25c0,0,17,7,40,17L141,836H303L613,388c0,0,20,10,33,18c0,0,13,8,34,28c0,0,20,20,33,44c0,0,13,25,22,66c0,0,10,41,10,92V836H882V698c0,0,0,-61,-7,-112c0,0,-6,-52,-18,-88c0,0,-12,-36,-30,-66c0,0,-19,-30,-36,-49c0,0,-17,-18,-41,-34c0,0,-24,-17,-40,-25c0,0,-17,-8,-41,-17L882,0H720L409,448c0,0,-21,-11,-34,-19c0,0,-13,-8,-34,-27c0,0,-21,-20,-34,-44c0,0,-12,-25,-22,-66c0,0,-9,-41,-9,-92V0Z" 
id="f1_8"
transform="scale(0.001,-0.001)" />

<path d="M117,-176L179,62V190H336V62L213,-176Z" 
id="f1_r"
transform="scale(0.001,-0.001)" />

<path d="M66,0V106H564L66,836H228L516,413c0,0,3,2,9,6c0,0,17,13,27,21c0,0,10,8,26,27c0,0,17,20,26,40c0,0,9,21,16,54c0,0,7,34,7,75V836H764V698c0,0,0,-55,-7,-102c0,0,-7,-47,-16,-79c0,0,-10,-33,-27,-62c0,0,-18,-29,-32,-46c0,0,-14,-17,-37,-35c0,0,-22,-17,-36,-25c0,0,-13,-8,-36,-20L767,53V0Z" 
id="f1_5"
transform="scale(0.001,-0.001)" />

<path d="M495,0V729H66V836H781V729H634V0Z" 
id="f1_m"
transform="scale(0.001,-0.001)" />

<path d="M66,0V106H322c0,0,75,0,127,23c0,0,53,23,82,67c0,0,29,43,42,98c0,0,13,54,13,124c0,0,0,70,-13,124c0,0,-13,55,-42,98c0,0,-29,44,-82,67c0,0,-52,23,-127,23H66V836H322c0,0,87,0,157,-24c0,0,70,-24,115,-64c0,0,45,-40,74,-94c0,0,30,-55,43,-113c0,0,13,-59,13,-123c0,0,0,-64,-13,-123c0,0,-13,-58,-43,-113c0,0,-29,-54,-74,-94C594,88,549,48,479,24C479,24,409,0,322,0Z" 
id="f1_c"
transform="scale(0.001,-0.001)" />

<path d="M399,-14c0,0,-341,0,-341,370c0,0,0,175,87,269c0,0,87,95,249,95c0,0,101,0,220,-23V501H573L541,625c0,0,-62,35,-149,35c0,0,-200,0,-200,-304c0,0,0,-158,61,-225c0,0,61,-67,189,-67c0,0,109,0,189,24V43C631,43,595,16,530,1c0,0,-64,-15,-131,-15Z" 
id="f2_6"
transform="scale(0.001,-0.001)" />

<path d="M377,45c0,0,99,0,147,73c0,0,47,73,47,237c0,0,0,161,-47,233c0,0,-47,72,-147,72c0,0,-97,0,-141,-69c0,0,-44,-69,-44,-236c0,0,0,-169,45,-240c0,0,44,-70,140,-70Zm0,-59c0,0,-158,0,-238,94c0,0,-81,95,-81,274c0,0,0,178,81,272c0,0,80,94,244,94c0,0,160,0,241,-92c0,0,82,-92,82,-274c0,0,0,-368,-329,-368Z" 
id="f2_7"
transform="scale(0.001,-0.001)" />

<path d="M431,0V33L535,52V499c0,0,0,62,-32,96c0,0,-32,33,-95,33c0,0,-66,0,-163,-22V52L350,33V0H32V33l89,19V649L32,668v33H237l6,-57c0,0,56,32,119,54c0,0,62,22,110,22c0,0,52,0,95,-20c0,0,44,-19,66,-62c0,0,57,32,134,57c0,0,77,25,128,25c0,0,179,0,179,-207V52l90,-19V0H846V33L950,52V499c0,0,0,129,-119,129c0,0,-19,0,-45,-3c0,0,-26,-3,-52,-7c0,0,-25,-4,-49,-8c0,0,-23,-5,-39,-8c0,0,13,-41,13,-89V52L764,33V0Z" 
id="f2_8"
transform="scale(0.001,-0.001)" />

<path d="M360,-14L72,649L0,668v33H327V668L216,648L420,164L615,649L504,668v33H764V668L697,652L416,-14Z" 
id="f2_s"
transform="scale(0.001,-0.001)" />

<path d="M148,-329c0,0,-58,0,-114,13v151H69l24,-71c0,0,23,-17,64,-17c0,0,39,0,72,22c0,0,33,23,60,67c0,0,27,44,68,157L90,649L19,668v33H344V668L233,648L423,158L606,649L497,668v33H758V668L685,652L411,-43c0,0,-48,-124,-84,-177c0,0,-36,-54,-79,-82c0,0,-44,-27,-100,-27Z" 
id="f2_e"
transform="scale(0.001,-0.001)" />

<path d="M34,0V49l76,18V634L38,652v49H325V67L402,49V0Zm73,834v25l124,203H443v-28L171,834Z" 
id="f0_h"
transform="scale(0.001,-0.001)" />

<path d="M249,-14c0,0,-71,0,-107,42c0,0,-35,42,-35,119V639H15v33l93,29l76,159h47V701H391V639H231V161c0,0,0,-48,22,-73c0,0,22,-24,57,-24c0,0,44,0,106,12V26C416,26,389,8,340,-2c0,0,-49,-12,-91,-12Z" 
id="f2_f"
transform="scale(0.001,-0.001)" />

<path d="M289,-14c0,0,-179,0,-179,205V649L20,668v33H233V200c0,0,0,-128,120,-128c0,0,92,0,173,23V649L420,668v33H649V52L738,34V0H533l-6,57C527,57,474,28,405,6c0,0,-69,-20,-116,-20Zm24,849v24l147,203H618v-27L354,835Z" 
id="f2_g"
transform="scale(0.001,-0.001)" />

<path d="M278,-14c0,0,-52,0,-115,11c0,0,-63,10,-99,23V193H98L134,95c0,0,56,-50,146,-50c0,0,144,0,144,123c0,0,0,91,-114,130l-66,21c0,0,-75,25,-110,50c0,0,-34,26,-53,63c0,0,-18,36,-18,89c0,0,0,92,63,145c0,0,63,54,170,54c0,0,77,0,193,-23V544H454l-32,81c0,0,-39,35,-124,35c0,0,-61,0,-92,-30c0,0,-32,-30,-32,-80c0,0,0,-43,29,-72c0,0,28,-29,86,-48c0,0,110,-38,144,-55c0,0,33,-17,57,-42c0,0,23,-25,36,-57c0,0,13,-32,13,-79c0,0,0,-104,-66,-158c0,0,-66,-53,-195,-53Z" 
id="f2_b"
transform="scale(0.001,-0.001)" />

<path d="M495,413c0,0,0,133,-34,190c0,0,-34,57,-105,57c0,0,-78,0,-119,-62c0,0,-42,-63,-42,-185ZM374,-14c0,0,-163,0,-239,87c0,0,-75,88,-75,283c0,0,0,183,77,274c0,0,76,90,219,90c0,0,269,0,269,-306V353H194V339c0,0,0,-103,23,-160c0,0,22,-57,70,-86c0,0,47,-30,124,-30c0,0,40,0,96,6c0,0,55,7,91,15V43C598,43,562,19,500,2c0,0,-61,-16,-126,-16ZM285,835v24l146,203H590v-27L326,835Z" 
id="f2_i"
transform="scale(0.001,-0.001)" />

<path d="M31,0V33L150,52v956L31,1026v34H274V52L394,33V0Z" 
id="f2_k"
transform="scale(0.001,-0.001)" />

<path d="M0,-14L351,1007h73L75,-14Z" 
id="f2_l"
transform="scale(0.001,-0.001)" />

<path d="M557,-14c0,0,-199,0,-298,89c0,0,-99,90,-99,255V941L32,960v40H432V960L304,941V341c0,0,0,-273,264,-273c0,0,144,0,220,68c0,0,77,68,77,202V941L730,960v40h341V960L943,941V344c0,0,0,-180,-99,-269c0,0,-99,-89,-287,-89Z" 
id="f2_o"
transform="scale(0.001,-0.001)" />

<path d="M383,64c0,0,85,0,152,28V645c0,0,-67,13,-152,13c0,0,-194,0,-194,-314c0,0,0,-141,48,-211c0,0,48,-69,146,-69ZM342,-14c0,0,-287,0,-287,358c0,0,0,184,82,280c0,0,81,96,239,96c0,0,81,0,163,-18c0,0,-4,25,-4,124v182l-118,18v34H659V52L745,33V0H548l-9,52c0,0,-84,-66,-197,-66Z" 
id="f2_p"
transform="scale(0.001,-0.001)" />

<path d="M191,-20c0,0,-39,0,-65,25c0,0,-25,27,-25,64c0,0,0,38,26,64c0,0,26,26,64,26c0,0,38,0,64,-26c0,0,26,-26,26,-64c0,0,0,-37,-25,-64c0,0,-26,-25,-65,-25Z" 
id="f2_q"
transform="scale(0.001,-0.001)" />

<path d="M377,44c0,0,99,0,147,73c0,0,47,73,47,237c0,0,0,161,-47,234c0,0,-47,72,-147,72c0,0,-97,0,-141,-69c0,0,-44,-70,-44,-237c0,0,0,-169,45,-239c0,0,44,-71,140,-71Zm0,-58c0,0,-158,0,-238,94c0,0,-81,95,-81,274c0,0,0,178,81,272c0,0,80,94,244,94c0,0,160,0,241,-92c0,0,82,-92,82,-274c0,0,0,-368,-329,-368ZM301,835v24l147,203H606v-27L342,835Z" 
id="f2_w"
transform="scale(0.001,-0.001)" />

<path d="M439,0V33l93,19V500c0,0,0,62,-30,97c0,0,-31,36,-94,36c0,0,-67,0,-165,-22V52L338,33V0H35V33l84,19V649L35,668v33H235l7,-57c0,0,57,33,122,54c0,0,65,22,108,22c0,0,91,0,137,-53c0,0,47,-53,47,-154V52L741,33V0Z" 
id="f2_r"
transform="scale(0.001,-0.001)" />

<path d="M139,0V836H485c0,0,206,0,290,-90c0,0,84,-89,84,-294V0H721V473c0,0,0,147,-49,202c0,0,-48,54,-186,54H277V0Z" 
id="f1_q"
transform="scale(0.001,-0.001)" />

<path d="M543,-317V369c0,0,0,85,-8,143c0,0,-8,58,-27,101c0,0,-18,44,-51,69c0,0,-33,24,-80,36c0,0,-48,11,-117,11H66V836H257c0,0,125,0,205,-23c0,0,80,-23,130,-79c0,0,50,-56,70,-143c0,0,20,-86,20,-222V-317Z" 
id="f1_s"
transform="scale(0.001,-0.001)" />

<path d="M122,-200c0,0,99,170,148,338c0,0,49,169,49,342c0,0,0,172,-49,340c0,0,-49,168,-148,340H241c0,0,112,-176,168,-345c0,0,55,-169,55,-335c0,0,0,-167,-55,-337c0,0,-56,-168,-168,-343Z" 
id="f1_u"
transform="scale(0.001,-0.001)" />

<path d="M354,-200c0,0,-112,175,-167,343c0,0,-56,170,-56,337c0,0,0,166,55,335c0,0,55,169,168,345H473c0,0,-100,-172,-148,-340c0,0,-48,-168,-48,-340c0,0,0,-173,48,-342c0,0,49,-168,148,-338Z" 
id="f1_w"
transform="scale(0.001,-0.001)" />

<path d="M639,416L478,858L313,416ZM647,0V54L762,74L667,333H283L191,74L319,54V0H15V54L90,74l355,935H662L1016,74l76,-20V0Z" 
id="f0_15"
transform="scale(0.001,-0.001)" />

<path d="M438,65c0,0,131,0,131,293c0,0,0,279,-130,279c0,0,-69,0,-127,-29V80c0,0,60,-15,126,-15ZM20,-325v50l76,18V634L19,652v49H304l1,-36c0,0,80,55,194,55c0,0,146,0,218,-86c0,0,71,-86,71,-271c0,0,0,-183,-83,-280c0,0,-83,-97,-238,-97c0,0,-79,0,-160,19c0,0,5,-48,5,-109V-257l103,-18v-50Z" 
id="f0_r"
transform="scale(0.001,-0.001)" />

<path d="M345,75c0,0,50,0,110,26V351l-63,-2c0,0,-72,-3,-100,-38c0,0,-28,-35,-28,-113c0,0,0,-63,22,-93c0,0,23,-30,59,-30ZM266,-14c0,0,-217,0,-217,208c0,0,0,79,32,126c0,0,32,48,93,71c0,0,60,22,190,25l91,2V521c0,0,0,126,-104,126c0,0,-62,0,-140,-39L183,521H134V691c0,0,112,17,165,21c0,0,53,5,108,5c0,0,264,0,264,-194V67L741,49V0H483L466,54C466,54,408,14,361,0c0,0,-47,-14,-95,-14Z" 
id="f0_b"
transform="scale(0.001,-0.001)" />

<path d="M425,-14c0,0,-187,0,-280,90c0,0,-93,90,-93,276c0,0,0,115,42,198c0,0,43,82,121,126c0,0,78,44,182,44c0,0,104,0,227,-26V486H571L539,609c0,0,-25,19,-50,26c0,0,-24,7,-65,7c0,0,-44,0,-79,-35c0,0,-36,-35,-56,-98c0,0,-20,-64,-20,-153c0,0,0,-150,47,-214c0,0,47,-64,148,-64c0,0,103,0,176,21V42C640,42,606,15,547,0c0,0,-59,-14,-122,-14Z" 
id="f0_q"
transform="scale(0.001,-0.001)" />

<path d="M327,-14c0,0,-101,0,-156,45c0,0,-55,45,-55,131V624H25v48l108,29l87,159H332V701H480V624H332V176c0,0,0,-49,20,-73c0,0,20,-25,53,-25c0,0,40,0,97,12V26c0,0,-22,-15,-76,-27c0,0,-55,-13,-99,-13Z" 
id="f0_k"
transform="scale(0.001,-0.001)" />

<path d="M522,92c0,0,247,0,247,333c0,0,0,88,-17,146c0,0,-17,58,-53,91c0,0,-35,33,-82,46c0,0,-48,14,-116,14H276V419c0,0,0,-327,246,-327Zm0,-112c0,0,-193,0,-289,109c0,0,-95,110,-95,337V836H501c0,0,213,0,309,-93c0,0,96,-94,96,-317c0,0,0,-227,-95,-337C811,89,715,-20,522,-20Z" 
id="f1_t"
transform="scale(0.001,-0.001)" />

<path d="M71,0V90H214v934H71v90H1073V851H970v160H502V654H792V796H895V411H792V552H502V103H984V263h102V0Z" 
id="f3_2"
transform="scale(0.001,-0.001)" />

<path d="M87,-338c0,0,-45,0,-94,7c0,0,-51,8,-105,22v168l84,-1c0,0,1,-59,23,-86c0,0,21,-26,70,-26c0,0,55,0,77,35c0,0,21,35,21,127V703H51v90H427V-92c0,0,0,-122,-86,-184c0,0,-86,-62,-254,-62ZM277,876c0,0,-61,0,-102,41c0,0,-42,41,-42,101c0,0,0,60,41,101c0,0,42,42,103,42c0,0,58,0,100,-42c0,0,42,-42,42,-101c0,0,0,-59,-42,-101c0,0,-41,-41,-100,-41Z" 
id="f3_3"
transform="scale(0.001,-0.001)" />

<path d="M612,448c0,0,0,156,-29,219c0,0,-29,63,-99,63c0,0,-68,0,-98,-61c0,0,-29,-62,-29,-208V448ZM488,-20c0,0,-205,0,-315,107C173,87,63,195,63,397c0,0,0,197,112,307c0,0,113,110,313,110c0,0,197,0,303,-115c0,0,105,-116,111,-340H357v-6c0,0,0,-154,46,-222c0,0,46,-68,149,-68c0,0,86,0,139,45c0,0,53,46,68,133H883C883,241,851,105,755,42c0,0,-95,-62,-267,-62Z" 
id="f3_4"
transform="scale(0.001,-0.001)" />

<path d="M53,0V90H165V703H44v90H429V652c0,0,39,83,103,123c0,0,64,39,156,39c0,0,24,0,57,-3c0,0,33,-3,76,-9V565H737c0,0,-4,63,-34,94c0,0,-30,31,-87,31c0,0,-87,0,-137,-76c0,0,-50,-76,-50,-211V90H573V0Z" 
id="f3_a"
transform="scale(0.001,-0.001)" />

<path d="M507,-20c0,0,-212,0,-328,108C179,88,63,198,63,397c0,0,0,197,114,307c0,0,115,110,320,110c0,0,82,0,167,-15c0,0,84,-16,171,-47V532H752c0,0,-12,101,-59,150c0,0,-47,48,-132,48c0,0,-111,0,-157,-74c0,0,-47,-75,-47,-259c0,0,0,-180,45,-257c0,0,46,-77,149,-77c0,0,80,0,128,47c0,0,48,48,58,137H861C861,247,833,112,745,45c0,0,-87,-65,-238,-65Z" 
id="f3_b"
transform="scale(0.001,-0.001)" />

<path d="M53,0V90H165V703H53v90H429V90H543V0ZM285,876c0,0,-61,0,-102,41c0,0,-42,41,-42,101c0,0,0,60,42,101c0,0,41,42,102,42c0,0,59,0,100,-42c0,0,41,-41,41,-101c0,0,0,-59,-41,-101c0,0,-41,-41,-100,-41Z" 
id="f3_c"
transform="scale(0.001,-0.001)" />

<path d="M510,63c0,0,84,0,118,71c0,0,34,72,34,263c0,0,0,191,-34,262c0,0,-33,71,-118,71c0,0,-84,0,-119,-72c0,0,-34,-72,-34,-261c0,0,0,-190,34,-262c0,0,35,-72,119,-72Zm0,-83c0,0,-209,0,-328,110C182,90,63,201,63,397c0,0,0,196,119,307c0,0,119,110,328,110c0,0,211,0,330,-110c0,0,118,-111,118,-307c0,0,0,-196,-119,-307C839,90,720,-20,510,-20Z" 
id="f3_8"
transform="scale(0.001,-0.001)" />

<path d="M209,0V90H418V992L187,854V966l279,168H701V90H910V0Z" 
id="f3_e"
transform="scale(0.001,-0.001)" />

<path d="M83,331V549H551V331Z" 
id="f4_o"
transform="scale(0.001,-0.001)" />

<path d="M681,416L504,902L333,416ZM669,0V40L803,60L704,348H310L210,60L344,40V0H15V40L128,60l341,949H611L965,60L1092,40V0Z" 
id="f2_2"
transform="scale(0.001,-0.001)" />

<path d="M448,506c0,0,134,0,190,49c0,0,57,50,57,168c0,0,0,114,-56,162c0,0,-56,48,-195,48H316V506ZM777,0L496,438H316V60L468,40V0H54V40L172,60V941L44,960v40H476c0,0,188,0,277,-63c0,0,90,-64,90,-204c0,0,0,-100,-54,-173c0,0,-55,-73,-151,-101L909,60L1017,40V0Z" 
id="f2_3"
transform="scale(0.001,-0.001)" />

<path d="M44,0V40L172,60V941L44,960v40H794V760H745L721,922c0,0,-83,11,-241,11H316V543H586l23,119h48V354H609L586,475H316V67H513c0,0,193,0,252,12l43,185h49L843,0Z" 
id="f2_4"
transform="scale(0.001,-0.001)" />

<path d="M55,0V40L184,60V941L55,960v40H455V960L327,941V60L455,40V0Z" 
id="f2_5"
transform="scale(0.001,-0.001)" />

<path d="M382,45c0,0,188,0,188,314c0,0,0,143,-47,213c0,0,-46,69,-141,69c0,0,-87,0,-146,-24V58c0,0,67,-13,146,-13ZM25,-325v35l88,18V649L34,668v33H231l1,-41c0,0,31,27,84,43c0,0,53,17,107,17c0,0,134,0,208,-94c0,0,73,-93,73,-267c0,0,0,-178,-80,-276c0,0,-80,-97,-232,-97c0,0,-84,0,-160,16c0,0,4,-53,4,-84V-272l123,-18v-35Z" 
id="f2_9"
transform="scale(0.001,-0.001)" />

<path d="M289,-14c0,0,-179,0,-179,205V649L20,668v33H233V200c0,0,0,-128,120,-128c0,0,92,0,173,23V649L420,668v33H649V52L738,33V0H533l-6,57C527,57,474,28,405,7c0,0,-69,-21,-116,-21Z" 
id="f2_c"
transform="scale(0.001,-0.001)" />

<path d="M376,50c0,0,103,0,149,80c0,0,46,81,46,240c0,0,0,137,-47,204c0,0,-48,67,-148,67c0,0,-44,0,-87,-7c0,0,-44,-8,-63,-17V62c0,0,63,-12,150,-12Zm3,-64c0,0,-64,0,-141,14c0,0,-78,14,-136,37v971L0,1026v34H226V809c0,0,0,-40,-4,-148c0,0,74,59,188,59c0,0,143,0,219,-87c0,0,77,-87,77,-263c0,0,0,-189,-84,-287c0,0,-84,-97,-243,-97Z" 
id="f2_d"
transform="scale(0.001,-0.001)" />

<path d="M32,0V34L151,52V649L52,668v33H275V52L395,34V0Zm71,835v24l146,203H408v-27L144,835Z" 
id="f2_x"
transform="scale(0.001,-0.001)" />

<path d="M102,0V182L267,296c0,0,211,146,281,248c0,0,70,102,70,239c0,0,0,129,-53,197c0,0,-54,67,-156,67c0,0,-88,0,-141,-53c0,0,-52,-54,-67,-155H111v240c0,0,91,28,181,42c0,0,89,13,180,13c0,0,212,0,331,-87c0,0,119,-87,119,-242c0,0,0,-110,-66,-198c0,0,-65,-88,-250,-208L296,196H822V327H925V0Z" 
id="f3_f"
transform="scale(0.001,-0.001)" />

<path d="M83,309V510H551V309Z" 
id="f3_g"
transform="scale(0.001,-0.001)" />

<path d="M179,0V190H336V0Zm0,600V790H336V600Z" 
id="f1_x"
transform="scale(0.001,-0.001)" />

<path d="M414,-20c0,0,-70,0,-144,13c0,0,-75,13,-154,40V179c0,0,63,-36,138,-55c0,0,74,-18,156,-18c0,0,142,0,216,55c0,0,74,56,74,163c0,0,0,98,-69,153c0,0,-69,56,-192,56H309V657H445c0,0,111,0,170,44c0,0,59,45,59,128c0,0,0,86,-61,132c0,0,-61,46,-174,46c0,0,-62,0,-133,-13c0,0,-71,-14,-156,-42v134c0,0,85,24,160,36c0,0,75,12,142,12c0,0,171,0,271,-78c0,0,100,-78,100,-211c0,0,0,-92,-53,-156c0,0,-52,-64,-150,-89c0,0,108,-23,169,-96c0,0,61,-73,61,-180c0,0,0,-165,-114,-255c0,0,-113,-89,-322,-89Z" 
id="f1_11"
transform="scale(0.001,-0.001)" />


</defs>
</svg>