<?xml version="1.0" encoding="UTF-8" standalone="no"?>
<!DOCTYPE svg PUBLIC "-//W3C//DTD SVG 1.1//EN"
"http://www.w3.org/Graphics/SVG/1.1/DTD/svg11.dtd">
<svg viewBox="0 0 909 1286" version="1.1" xmlns="http://www.w3.org/2000/svg" xmlns:xlink="http://www.w3.org/1999/xlink">
<defs>
<clipPath id="c0_10"><path d="M0,1286.2V0H909.4V1286.2Z" /></clipPath>
<style type="text/css"><![CDATA[
.g0_10{
fill: #D8D8D8;
}
.g1_10{
fill: none;
stroke: #000000;
stroke-width: 1.1458334;
stroke-linecap: butt;
stroke-linejoin: round;
}
.g2_10{
fill: none;
stroke: #0000FF;
stroke-width: 1.0694444;
stroke-linecap: butt;
stroke-linejoin: miter;
}
]]></style>
</defs>
<path fill-rule="evenodd" d="M511.7,782H663.1V760.4H511.7V782Z" class="g0_10" />
<path fill-rule="evenodd" d="M314.7,782H511.6V760.4H314.7V782Z" class="g0_10" />
<path fill-rule="evenodd" d="M141.5,782H314.6V760.4H141.5V782Z" class="g0_10" />
<path fill-rule="evenodd" d="M511.7,782H663.1V760.4H511.7V782Z" class="g0_10" />
<path fill-rule="evenodd" d="M314.7,782H511.6V760.4H314.7V782Z" class="g0_10" />
<path fill-rule="evenodd" d="M141.5,782H314.6V760.4H141.5V782Z" class="g0_10" />
<g clip-path="url(#c0_10)">
<g fill="#000000" >
<use xlink:href="#f0_7" transform="matrix(16,0,0,16,700.8,695.1)" />
<use xlink:href="#f0_9" transform="matrix(16,0,0,16,715.6,695.1)" />
<use xlink:href="#f0_f" transform="matrix(16,0,0,16,721.8,695.1)" />
<use xlink:href="#f0_9" transform="matrix(16,0,0,16,733.6,695.1)" />
<use xlink:href="#f0_13" transform="matrix(16,0,0,16,739.8,695.1)" />
<use xlink:href="#f0_7" transform="matrix(16,0,0,16,757.1,695.1)" />
<use xlink:href="#f1_c" transform="matrix(12,0,0,12,723.8,736.7)" />
<use xlink:href="#f1_9" transform="matrix(12,0,0,12,735,736.7)" />
<use xlink:href="#f1_k" transform="matrix(12,0,0,12,740.3,736.7)" />
<use xlink:href="#f1_4" transform="matrix(12,0,0,12,748.6,736.7)" />
<use xlink:href="#f1_7" transform="matrix(12,0,0,12,759.6,736.7)" />
<use xlink:href="#f1_t" transform="matrix(12,0,0,12,704.6,736.7)" />
</g>
</g>
<path d="M140.9,761H663.8M140.9,782.7H663.8M140.9,805.1H663.8M140.9,827.8H663.8M140.9,850.2H663.8M140.9,872.8H663.8M140.9,894.4H663.8M140.9,916.1H663.8M140.9,937.6H663.8M140.9,959.3H663.8M140.9,980.8H663.8m-522.9,21.7H663.8m-522.9,21.6H663.8m-522.9,21.7H663.8m-522.9,21.5H663.8M140.9,1089H663.8M141.5,760.4v329.1M314.7,760.4v329.1m197,-329.1v329.1M663.2,760.4v329.1" class="g1_10" />
<g clip-path="url(#c0_10)">
<g fill="#000000" >
<use xlink:href="#f2_8" transform="matrix(11.5,0,0,11.5,568.6,777.9)" />
<use xlink:href="#f2_4" transform="matrix(11.5,0,0,11.5,580.3,777.9)" />
<use xlink:href="#f2_9" transform="matrix(11.5,0,0,11.5,584.2,777.9)" />
<use xlink:href="#f2_3" transform="matrix(11.5,0,0,11.5,594.3,777.9)" />
<use xlink:href="#f2_8" transform="matrix(11.5,0,0,11.5,609.9,777.9)" />
<use xlink:href="#f2_a" transform="matrix(11.5,0,0,11.5,621.5,777.9)" />
<use xlink:href="#f2_s" transform="matrix(11.5,0,0,11.5,626.2,777.9)" />
<use xlink:href="#f2_3" transform="matrix(11.5,0,0,11.5,633.4,777.9)" />
<use xlink:href="#f2_r" transform="matrix(11.5,0,0,11.5,643.3,777.9)" />
<use xlink:href="#f2_b" transform="matrix(11.5,0,0,11.5,474.4,777.9)" />
<use xlink:href="#f2_4" transform="matrix(11.5,0,0,11.5,484,777.9)" />
<use xlink:href="#f2_c" transform="matrix(11.5,0,0,11.5,487.9,777.9)" />
<use xlink:href="#f2_4" transform="matrix(11.5,0,0,11.5,499.4,777.9)" />
<use xlink:href="#f2_8" transform="matrix(11.5,0,0,11.5,271,777.9)" />
<use xlink:href="#f2_4" transform="matrix(11.5,0,0,11.5,282.6,777.9)" />
<use xlink:href="#f2_9" transform="matrix(11.5,0,0,11.5,286.6,777.9)" />
<use xlink:href="#f2_3" transform="matrix(11.5,0,0,11.5,296.7,777.9)" />
<use xlink:href="#f2_8" transform="matrix(12,0,0,12,564.8,800.3)" />
<use xlink:href="#f2_4" transform="matrix(12,0,0,12,576.9,800.3)" />
<use xlink:href="#f2_3" transform="matrix(12,0,0,12,581,800.3)" />
<use xlink:href="#f2_n" transform="matrix(12,0,0,12,591.4,800.3)" />
<use xlink:href="#f2_9" transform="matrix(12,0,0,12,604.3,800.3)" />
<use xlink:href="#f2_e" transform="matrix(12,0,0,12,620.8,800.3)" />
<use xlink:href="#f2_g" transform="matrix(12,0,0,12,632.7,800.3)" />
<use xlink:href="#f2_5" transform="matrix(12,0,0,12,645.2,800.3)" />
<use xlink:href="#f3_2" transform="matrix(10.5,0,0,10.5,323.7,798.1)" />
<use xlink:href="#f3_3" transform="matrix(10.5,0,0,10.5,331.7,798.1)" />
<use xlink:href="#f3_4" transform="matrix(10.5,0,0,10.5,339.8,798.1)" />
<use xlink:href="#f3_6" transform="matrix(10.5,0,0,10.5,351.8,798.1)" />
<use xlink:href="#f3_4" transform="matrix(10.5,0,0,10.5,358.8,798.1)" />
<use xlink:href="#f3_7" transform="matrix(10.5,0,0,10.5,366.9,798.1)" />
<use xlink:href="#f3_3" transform="matrix(10.5,0,0,10.5,373,798.1)" />
<use xlink:href="#f3_8" transform="matrix(10.5,0,0,10.5,381.1,798.1)" />
<use xlink:href="#f3_2" transform="matrix(10.5,0,0,10.5,150.3,798.1)" />
<use xlink:href="#f3_3" transform="matrix(10.5,0,0,10.5,158.4,798.1)" />
<use xlink:href="#f3_4" transform="matrix(10.5,0,0,10.5,166.4,798.1)" />
<use xlink:href="#f3_9" transform="matrix(10.5,0,0,10.5,174.4,798.1)" />
<use xlink:href="#f3_6" transform="matrix(10.5,0,0,10.5,184.7,798.1)" />
<use xlink:href="#f3_4" transform="matrix(10.5,0,0,10.5,191.7,798.1)" />
<use xlink:href="#f3_7" transform="matrix(10.5,0,0,10.5,199.8,798.1)" />
<use xlink:href="#f3_3" transform="matrix(10.5,0,0,10.5,205.9,798.1)" />
<use xlink:href="#f3_8" transform="matrix(10.5,0,0,10.5,214,798.1)" />
<use xlink:href="#f3_9" transform="matrix(10.5,0,0,10.5,221.1,798.1)" />
<use xlink:href="#f2_r" transform="matrix(12,0,0,12,603,822.7)" />
<use xlink:href="#f2_a" transform="matrix(12,0,0,12,615.1,822.7)" />
<use xlink:href="#f2_6" transform="matrix(12,0,0,12,620.1,822.7)" />
<use xlink:href="#f2_4" transform="matrix(12,0,0,12,627.4,822.7)" />
<use xlink:href="#f2_j" transform="matrix(12,0,0,12,631.5,822.7)" />
<use xlink:href="#f2_e" transform="matrix(12,0,0,12,643,822.7)" />
<use xlink:href="#f4_a" transform="matrix(10.5,0,0,10.5,323.7,820.7)" />
<use xlink:href="#f4_e" transform="matrix(10.5,0,0,10.5,330.9,820.7)" />
<use xlink:href="#f4_b" transform="matrix(10.5,0,0,10.5,339.3,820.7)" />
<use xlink:href="#f4_4" transform="matrix(10.5,0,0,10.5,344.7,820.7)" />
<use xlink:href="#f4_8" transform="matrix(10.5,0,0,10.5,348.9,820.7)" />
<use xlink:href="#f4_l" transform="matrix(10.5,0,0,10.5,357,820.7)" />
<use xlink:href="#f4_5" transform="matrix(10.5,0,0,10.5,364.2,820.7)" />
<use xlink:href="#f4_8" transform="matrix(10.5,0,0,10.5,372.1,820.7)" />
<use xlink:href="#f4_e" transform="matrix(10.5,0,0,10.5,150.3,820.7)" />
<use xlink:href="#f4_i" transform="matrix(10.5,0,0,10.5,154.8,820.7)" />
<use xlink:href="#f4_d" transform="matrix(10.5,0,0,10.5,162.8,820.7)" />
<use xlink:href="#f4_b" transform="matrix(10.5,0,0,10.5,173.1,820.7)" />
<use xlink:href="#f4_4" transform="matrix(10.5,0,0,10.5,178.4,820.7)" />
<use xlink:href="#f4_8" transform="matrix(10.5,0,0,10.5,182.8,820.7)" />
<use xlink:href="#f4_l" transform="matrix(10.5,0,0,10.5,190.8,820.7)" />
<use xlink:href="#f4_i" transform="matrix(10.5,0,0,10.5,197.9,820.7)" />
<use xlink:href="#f4_8" transform="matrix(10.5,0,0,10.5,205.9,820.7)" />
<use xlink:href="#f4_a" transform="matrix(10.5,0,0,10.5,214,820.7)" />
<use xlink:href="#f4_d" transform="matrix(10.5,0,0,10.5,221.1,820.7)" />
<use xlink:href="#f2_r" transform="matrix(12,0,0,12,570.3,845.3)" />
<use xlink:href="#f2_a" transform="matrix(12,0,0,12,582.4,845.3)" />
<use xlink:href="#f2_3" transform="matrix(12,0,0,12,587.4,845.3)" />
<use xlink:href="#f2_a" transform="matrix(12,0,0,12,597.6,845.3)" />
<use xlink:href="#f2_q" transform="matrix(12,0,0,12,602.6,845.3)" />
<use xlink:href="#f2_e" transform="matrix(12,0,0,12,620.8,845.3)" />
<use xlink:href="#f2_g" transform="matrix(12,0,0,12,632.7,845.3)" />
<use xlink:href="#f2_5" transform="matrix(12,0,0,12,645.2,845.3)" />
<use xlink:href="#f4_k" transform="matrix(10.5,0,0,10.5,323.7,843.2)" />
<use xlink:href="#f4_8" transform="matrix(10.5,0,0,10.5,331.7,843.2)" />
<use xlink:href="#f4_2" transform="matrix(10.5,0,0,10.5,339.8,843.2)" />
<use xlink:href="#f4_e" transform="matrix(10.5,0,0,10.5,350.9,843.2)" />
<use xlink:href="#f4_k" transform="matrix(10.5,0,0,10.5,355.2,843.2)" />
<use xlink:href="#f4_v" transform="matrix(10.5,0,0,10.5,363.3,843.2)" />
<use xlink:href="#f4_k" transform="matrix(10.5,0,0,10.5,150.3,843.2)" />
<use xlink:href="#f4_8" transform="matrix(10.5,0,0,10.5,158.4,843.2)" />
<use xlink:href="#f4_2" transform="matrix(10.5,0,0,10.5,166.4,843.2)" />
<use xlink:href="#f4_d" transform="matrix(10.5,0,0,10.5,173.5,843.2)" />
<use xlink:href="#f4_e" transform="matrix(10.5,0,0,10.5,183.7,843.2)" />
<use xlink:href="#f4_k" transform="matrix(10.5,0,0,10.5,188.2,843.2)" />
<use xlink:href="#f4_l" transform="matrix(10.5,0,0,10.5,196.1,843.2)" />
<use xlink:href="#f4_a" transform="matrix(10.5,0,0,10.5,203.3,843.2)" />
<use xlink:href="#f4_d" transform="matrix(10.5,0,0,10.5,210.5,843.2)" />
<use xlink:href="#f2_r" transform="matrix(12,0,0,12,595.4,867.8)" />
<use xlink:href="#f2_a" transform="matrix(12,0,0,12,607.4,867.8)" />
<use xlink:href="#f2_9" transform="matrix(12,0,0,12,612.4,867.8)" />
<use xlink:href="#f2_f" transform="matrix(12,0,0,12,623,867.8)" />
<use xlink:href="#f2_5" transform="matrix(12,0,0,12,633.4,867.8)" />
<use xlink:href="#f2_e" transform="matrix(12,0,0,12,643,867.8)" />
<use xlink:href="#f4_e" transform="matrix(10.5,0,0,10.5,323.7,865.8)" />
<use xlink:href="#f4_2" transform="matrix(10.5,0,0,10.5,328.2,865.8)" />
<use xlink:href="#f4_t" transform="matrix(10.5,0,0,10.5,339.3,865.8)" />
<use xlink:href="#f4_a" transform="matrix(10.5,0,0,10.5,347.3,865.8)" />
<use xlink:href="#f4_b" transform="matrix(10.5,0,0,10.5,354.4,865.8)" />
<use xlink:href="#f4_b" transform="matrix(10.5,0,0,10.5,359.8,865.8)" />
<use xlink:href="#f4_2" transform="matrix(10.5,0,0,10.5,365,865.8)" />
<use xlink:href="#f4_e" transform="matrix(10.5,0,0,10.5,150.3,865.8)" />
<use xlink:href="#f4_2" transform="matrix(10.5,0,0,10.5,154.8,865.8)" />
<use xlink:href="#f4_d" transform="matrix(10.5,0,0,10.5,161.9,865.8)" />
<use xlink:href="#f4_t" transform="matrix(10.5,0,0,10.5,172.2,865.8)" />
<use xlink:href="#f4_a" transform="matrix(10.5,0,0,10.5,180.2,865.8)" />
<use xlink:href="#f4_b" transform="matrix(10.5,0,0,10.5,187.3,865.8)" />
<use xlink:href="#f4_b" transform="matrix(10.5,0,0,10.5,192.6,865.8)" />
<use xlink:href="#f4_2" transform="matrix(10.5,0,0,10.5,197.9,865.8)" />
<use xlink:href="#f4_d" transform="matrix(10.5,0,0,10.5,205.1,865.8)" />
<use xlink:href="#f2_8" transform="matrix(11.5,0,0,11.5,600.7,889.6)" />
<use xlink:href="#f2_4" transform="matrix(11.5,0,0,11.5,612.3,889.6)" />
<use xlink:href="#f2_j" transform="matrix(11.5,0,0,11.5,616.3,889.6)" />
<use xlink:href="#f2_a" transform="matrix(11.5,0,0,11.5,627.3,889.6)" />
<use xlink:href="#f2_c" transform="matrix(11.5,0,0,11.5,632,889.6)" />
<use xlink:href="#f2_e" transform="matrix(11.5,0,0,11.5,643.5,889.6)" />
<use xlink:href="#f4_e" transform="matrix(10.5,0,0,10.5,323.7,888.3)" />
<use xlink:href="#f4_2" transform="matrix(10.5,0,0,10.5,328.2,888.3)" />
<use xlink:href="#f4_t" transform="matrix(10.5,0,0,10.5,339.3,888.3)" />
<use xlink:href="#f4_e" transform="matrix(10.5,0,0,10.5,347.3,888.3)" />
<use xlink:href="#f4_2" transform="matrix(10.5,0,0,10.5,351.7,888.3)" />
<use xlink:href="#f4_z" transform="matrix(10.5,0,0,10.5,358.9,888.3)" />
<use xlink:href="#f4_2" transform="matrix(10.5,0,0,10.5,366.8,888.3)" />
<use xlink:href="#f4_e" transform="matrix(10.5,0,0,10.5,150.3,888.3)" />
<use xlink:href="#f4_2" transform="matrix(10.5,0,0,10.5,154.8,888.3)" />
<use xlink:href="#f4_d" transform="matrix(10.5,0,0,10.5,161.9,888.3)" />
<use xlink:href="#f4_t" transform="matrix(10.5,0,0,10.5,172.2,888.3)" />
<use xlink:href="#f4_e" transform="matrix(10.5,0,0,10.5,180.2,888.3)" />
<use xlink:href="#f4_2" transform="matrix(10.5,0,0,10.5,184.5,888.3)" />
<use xlink:href="#f4_z" transform="matrix(10.5,0,0,10.5,191.7,888.3)" />
<use xlink:href="#f4_2" transform="matrix(10.5,0,0,10.5,199.6,888.3)" />
<use xlink:href="#f4_d" transform="matrix(10.5,0,0,10.5,206.8,888.3)" />
<use xlink:href="#f2_8" transform="matrix(11.5,0,0,11.5,594.6,911.3)" />
<use xlink:href="#f2_4" transform="matrix(11.5,0,0,11.5,606.2,911.3)" />
<use xlink:href="#f2_6" transform="matrix(11.5,0,0,11.5,610.2,911.3)" />
<use xlink:href="#f2_a" transform="matrix(11.5,0,0,11.5,617.2,911.3)" />
<use xlink:href="#f2_9" transform="matrix(11.5,0,0,11.5,621.9,911.3)" />
<use xlink:href="#f2_l" transform="matrix(11.5,0,0,11.5,632,911.3)" />
<use xlink:href="#f2_e" transform="matrix(11.5,0,0,11.5,643.5,911.3)" />
<use xlink:href="#f4_a" transform="matrix(10.5,0,0,10.5,323.7,909.9)" />
<use xlink:href="#f4_e" transform="matrix(10.5,0,0,10.5,330.9,909.9)" />
<use xlink:href="#f4_u" transform="matrix(10.5,0,0,10.5,339.3,909.9)" />
<use xlink:href="#f4_2" transform="matrix(10.5,0,0,10.5,343.7,909.9)" />
<use xlink:href="#f4_p" transform="matrix(10.5,0,0,10.5,350.8,909.9)" />
<use xlink:href="#f4_5" transform="matrix(10.5,0,0,10.5,358.9,909.9)" />
<use xlink:href="#f4_8" transform="matrix(10.5,0,0,10.5,366.8,909.9)" />
<use xlink:href="#f4_e" transform="matrix(10.5,0,0,10.5,150.3,909.9)" />
<use xlink:href="#f4_i" transform="matrix(10.5,0,0,10.5,154.8,909.9)" />
<use xlink:href="#f4_d" transform="matrix(10.5,0,0,10.5,162.8,909.9)" />
<use xlink:href="#f4_u" transform="matrix(10.5,0,0,10.5,173.1,909.9)" />
<use xlink:href="#f4_2" transform="matrix(10.5,0,0,10.5,177.5,909.9)" />
<use xlink:href="#f4_p" transform="matrix(10.5,0,0,10.5,184.5,909.9)" />
<use xlink:href="#f4_i" transform="matrix(10.5,0,0,10.5,192.6,909.9)" />
<use xlink:href="#f4_8" transform="matrix(10.5,0,0,10.5,200.5,909.9)" />
<use xlink:href="#f4_a" transform="matrix(10.5,0,0,10.5,208.6,909.9)" />
<use xlink:href="#f4_d" transform="matrix(10.5,0,0,10.5,215.8,909.9)" />
<use xlink:href="#f2_8" transform="matrix(11.5,0,0,11.5,597.2,932.9)" />
<use xlink:href="#f2_4" transform="matrix(11.5,0,0,11.5,608.8,932.9)" />
<use xlink:href="#f2_9" transform="matrix(11.5,0,0,11.5,612.8,932.9)" />
<use xlink:href="#f2_4" transform="matrix(11.5,0,0,11.5,622.9,932.9)" />
<use xlink:href="#f2_b" transform="matrix(11.5,0,0,11.5,626.8,932.9)" />
<use xlink:href="#f2_6" transform="matrix(11.5,0,0,11.5,636.4,932.9)" />
<use xlink:href="#f2_e" transform="matrix(11.5,0,0,11.5,643.5,932.9)" />
<use xlink:href="#f4_a" transform="matrix(10.5,0,0,10.5,323.7,931.5)" />
<use xlink:href="#f4_e" transform="matrix(10.5,0,0,10.5,330.9,931.5)" />
<use xlink:href="#f4_w" transform="matrix(10.5,0,0,10.5,339.3,931.5)" />
<use xlink:href="#f4_a" transform="matrix(10.5,0,0,10.5,347.3,931.5)" />
<use xlink:href="#f4_8" transform="matrix(10.5,0,0,10.5,354.4,931.5)" />
<use xlink:href="#f4_a" transform="matrix(10.5,0,0,10.5,362.4,931.5)" />
<use xlink:href="#f4_b" transform="matrix(10.5,0,0,10.5,369.5,931.5)" />
<use xlink:href="#f4_i" transform="matrix(10.5,0,0,10.5,374.7,931.5)" />
<use xlink:href="#f4_d" transform="matrix(10.5,0,0,10.5,382.8,931.5)" />
<use xlink:href="#f4_i" transform="matrix(10.5,0,0,10.5,389.1,931.5)" />
<use xlink:href="#f4_e" transform="matrix(10.5,0,0,10.5,150.3,931.5)" />
<use xlink:href="#f4_i" transform="matrix(10.5,0,0,10.5,154.8,931.5)" />
<use xlink:href="#f4_d" transform="matrix(10.5,0,0,10.5,162.8,931.5)" />
<use xlink:href="#f4_w" transform="matrix(10.5,0,0,10.5,173.1,931.5)" />
<use xlink:href="#f4_a" transform="matrix(10.5,0,0,10.5,181.1,931.5)" />
<use xlink:href="#f4_8" transform="matrix(10.5,0,0,10.5,188.2,931.5)" />
<use xlink:href="#f4_a" transform="matrix(10.5,0,0,10.5,196.3,931.5)" />
<use xlink:href="#f4_b" transform="matrix(10.5,0,0,10.5,203.3,931.5)" />
<use xlink:href="#f4_i" transform="matrix(10.5,0,0,10.5,208.6,931.5)" />
<use xlink:href="#f4_d" transform="matrix(10.5,0,0,10.5,216.7,931.5)" />
<use xlink:href="#f4_i" transform="matrix(10.5,0,0,10.5,222.8,931.5)" />
<use xlink:href="#f4_d" transform="matrix(10.5,0,0,10.5,230.9,931.5)" />
<use xlink:href="#f2_r" transform="matrix(11.5,0,0,11.5,596.4,954.6)" />
<use xlink:href="#f2_a" transform="matrix(11.5,0,0,11.5,608,954.6)" />
<use xlink:href="#f2_9" transform="matrix(11.5,0,0,11.5,612.8,954.6)" />
<use xlink:href="#f2_4" transform="matrix(11.5,0,0,11.5,622.9,954.6)" />
<use xlink:href="#f2_b" transform="matrix(11.5,0,0,11.5,626.8,954.6)" />
<use xlink:href="#f2_6" transform="matrix(11.5,0,0,11.5,636.4,954.6)" />
<use xlink:href="#f2_e" transform="matrix(11.5,0,0,11.5,643.5,954.6)" />
<use xlink:href="#f4_e" transform="matrix(10.5,0,0,10.5,323.7,953.2)" />
<use xlink:href="#f4_2" transform="matrix(10.5,0,0,10.5,328.2,953.2)" />
<use xlink:href="#f4_w" transform="matrix(10.5,0,0,10.5,339.3,953.2)" />
<use xlink:href="#f4_a" transform="matrix(10.5,0,0,10.5,347.3,953.2)" />
<use xlink:href="#f4_8" transform="matrix(10.5,0,0,10.5,354.4,953.2)" />
<use xlink:href="#f4_a" transform="matrix(10.5,0,0,10.5,362.4,953.2)" />
<use xlink:href="#f4_b" transform="matrix(10.5,0,0,10.5,369.5,953.2)" />
<use xlink:href="#f4_i" transform="matrix(10.5,0,0,10.5,374.7,953.2)" />
<use xlink:href="#f4_d" transform="matrix(10.5,0,0,10.5,382.8,953.2)" />
<use xlink:href="#f4_2" transform="matrix(10.5,0,0,10.5,389.1,953.2)" />
<use xlink:href="#f4_e" transform="matrix(10.5,0,0,10.5,150.3,953.2)" />
<use xlink:href="#f4_2" transform="matrix(10.5,0,0,10.5,154.8,953.2)" />
<use xlink:href="#f4_d" transform="matrix(10.5,0,0,10.5,161.9,953.2)" />
<use xlink:href="#f4_w" transform="matrix(10.5,0,0,10.5,172.2,953.2)" />
<use xlink:href="#f4_a" transform="matrix(10.5,0,0,10.5,180.2,953.2)" />
<use xlink:href="#f4_8" transform="matrix(10.5,0,0,10.5,187.3,953.2)" />
<use xlink:href="#f4_a" transform="matrix(10.5,0,0,10.5,195.3,953.2)" />
<use xlink:href="#f4_b" transform="matrix(10.5,0,0,10.5,202.4,953.2)" />
<use xlink:href="#f4_i" transform="matrix(10.5,0,0,10.5,207.7,953.2)" />
<use xlink:href="#f4_d" transform="matrix(10.5,0,0,10.5,215.8,953.2)" />
<use xlink:href="#f4_2" transform="matrix(10.5,0,0,10.5,221.9,953.2)" />
<use xlink:href="#f4_d" transform="matrix(10.5,0,0,10.5,229.1,953.2)" />
<use xlink:href="#f2_8" transform="matrix(11.5,0,0,11.5,589.9,976.1)" />
<use xlink:href="#f2_4" transform="matrix(11.5,0,0,11.5,601.5,976.1)" />
<use xlink:href="#f2_g" transform="matrix(11.5,0,0,11.5,605.4,976.1)" />
<use xlink:href="#f2_a" transform="matrix(11.5,0,0,11.5,617.4,976.1)" />
<use xlink:href="#f2_b" transform="matrix(11.5,0,0,11.5,622.1,976.1)" />
<use xlink:href="#f2_q" transform="matrix(11.5,0,0,11.5,631.7,976.1)" />
<use xlink:href="#f2_e" transform="matrix(11.5,0,0,11.5,643.5,976.1)" />
<use xlink:href="#f4_a" transform="matrix(10.5,0,0,10.5,323.7,974.7)" />
<use xlink:href="#f4_e" transform="matrix(10.5,0,0,10.5,330.9,974.7)" />
<use xlink:href="#f4_b" transform="matrix(10.5,0,0,10.5,339.3,974.7)" />
<use xlink:href="#f4_i" transform="matrix(10.5,0,0,10.5,344.5,974.7)" />
<use xlink:href="#f4_u" transform="matrix(10.5,0,0,10.5,352.6,974.7)" />
<use xlink:href="#f4_i" transform="matrix(10.5,0,0,10.5,357,974.7)" />
<use xlink:href="#f4_e" transform="matrix(10.5,0,0,10.5,150.3,974.7)" />
<use xlink:href="#f4_i" transform="matrix(10.5,0,0,10.5,154.8,974.7)" />
<use xlink:href="#f4_d" transform="matrix(10.5,0,0,10.5,162.8,974.7)" />
<use xlink:href="#f4_b" transform="matrix(10.5,0,0,10.5,173.1,974.7)" />
<use xlink:href="#f4_i" transform="matrix(10.5,0,0,10.5,178.4,974.7)" />
<use xlink:href="#f4_u" transform="matrix(10.5,0,0,10.5,186.5,974.7)" />
<use xlink:href="#f4_i" transform="matrix(10.5,0,0,10.5,190.8,974.7)" />
<use xlink:href="#f4_d" transform="matrix(10.5,0,0,10.5,198.9,974.7)" />
<use xlink:href="#f2_r" transform="matrix(11.5,0,0,11.5,577.2,997.8)" />
<use xlink:href="#f2_4" transform="matrix(11.5,0,0,11.5,588.8,997.8)" />
<use xlink:href="#f2_9" transform="matrix(11.5,0,0,11.5,592.7,997.8)" />
<use xlink:href="#f2_e" transform="matrix(11.5,0,0,11.5,602.8,997.8)" />
<use xlink:href="#f2_4" transform="matrix(11.5,0,0,11.5,619.9,997.8)" />
<use xlink:href="#f2_f" transform="matrix(11.5,0,0,11.5,623.9,997.8)" />
<use xlink:href="#f2_m" transform="matrix(11.5,0,0,11.5,633.8,997.8)" />
<use xlink:href="#f2_9" transform="matrix(11.5,0,0,11.5,644.8,997.8)" />
<use xlink:href="#f4_a" transform="matrix(10.5,0,0,10.5,323.7,996.4)" />
<use xlink:href="#f4_e" transform="matrix(10.5,0,0,10.5,330.9,996.4)" />
<use xlink:href="#f4_n" transform="matrix(10.5,0,0,10.5,339.3,996.4)" />
<use xlink:href="#f4_k" transform="matrix(10.5,0,0,10.5,347.3,996.4)" />
<use xlink:href="#f4_a" transform="matrix(10.5,0,0,10.5,355.3,996.4)" />
<use xlink:href="#f4_g" transform="matrix(10.5,0,0,10.5,362.4,996.4)" />
<use xlink:href="#f4_i" transform="matrix(10.5,0,0,10.5,370.4,996.4)" />
<use xlink:href="#f4_e" transform="matrix(10.5,0,0,10.5,150.3,996.4)" />
<use xlink:href="#f4_i" transform="matrix(10.5,0,0,10.5,154.8,996.4)" />
<use xlink:href="#f4_d" transform="matrix(10.5,0,0,10.5,162.8,996.4)" />
<use xlink:href="#f4_n" transform="matrix(10.5,0,0,10.5,173.1,996.4)" />
<use xlink:href="#f4_k" transform="matrix(10.5,0,0,10.5,181.1,996.4)" />
<use xlink:href="#f4_a" transform="matrix(10.5,0,0,10.5,189.1,996.4)" />
<use xlink:href="#f4_g" transform="matrix(10.5,0,0,10.5,196.3,996.4)" />
<use xlink:href="#f4_i" transform="matrix(10.5,0,0,10.5,204.2,996.4)" />
<use xlink:href="#f4_d" transform="matrix(10.5,0,0,10.5,212.3,996.4)" />
<use xlink:href="#f2_8" transform="matrix(11.5,0,0,11.5,567,1019.3)" />
<use xlink:href="#f2_4" transform="matrix(11.5,0,0,11.5,578.6,1019.3)" />
<use xlink:href="#f2_f" transform="matrix(11.5,0,0,11.5,582.5,1019.3)" />
<use xlink:href="#f2_3" transform="matrix(11.5,0,0,11.5,592.5,1019.3)" />
<use xlink:href="#f2_6" transform="matrix(11.5,0,0,11.5,602.4,1019.3)" />
<use xlink:href="#f2_s" transform="matrix(11.5,0,0,11.5,609.4,1019.3)" />
<use xlink:href="#f2_e" transform="matrix(11.5,0,0,11.5,622.2,1019.3)" />
<use xlink:href="#f2_g" transform="matrix(11.5,0,0,11.5,633.7,1019.3)" />
<use xlink:href="#f2_5" transform="matrix(11.5,0,0,11.5,645.6,1019.3)" />
<use xlink:href="#f4_k" transform="matrix(10.5,0,0,10.5,323.7,1018)" />
<use xlink:href="#f4_8" transform="matrix(10.5,0,0,10.5,331.7,1018)" />
<use xlink:href="#f4_w" transform="matrix(10.5,0,0,10.5,343.7,1018)" />
<use xlink:href="#f4_a" transform="matrix(10.5,0,0,10.5,351.8,1018)" />
<use xlink:href="#f4_8" transform="matrix(10.5,0,0,10.5,358.9,1018)" />
<use xlink:href="#f4_a" transform="matrix(10.5,0,0,10.5,366.9,1018)" />
<use xlink:href="#f4_b" transform="matrix(10.5,0,0,10.5,374,1018)" />
<use xlink:href="#f4_2" transform="matrix(10.5,0,0,10.5,379.3,1018)" />
<use xlink:href="#f4_e" transform="matrix(10.5,0,0,10.5,386.5,1018)" />
<use xlink:href="#f4_k" transform="matrix(10.5,0,0,10.5,150.3,1018)" />
<use xlink:href="#f4_8" transform="matrix(10.5,0,0,10.5,158.4,1018)" />
<use xlink:href="#f4_i" transform="matrix(10.5,0,0,10.5,166.4,1018)" />
<use xlink:href="#f4_d" transform="matrix(10.5,0,0,10.5,174.4,1018)" />
<use xlink:href="#f4_w" transform="matrix(10.5,0,0,10.5,184.7,1018)" />
<use xlink:href="#f4_a" transform="matrix(10.5,0,0,10.5,192.6,1018)" />
<use xlink:href="#f4_8" transform="matrix(10.5,0,0,10.5,199.8,1018)" />
<use xlink:href="#f4_a" transform="matrix(10.5,0,0,10.5,207.7,1018)" />
<use xlink:href="#f4_b" transform="matrix(10.5,0,0,10.5,214.9,1018)" />
<use xlink:href="#f4_2" transform="matrix(10.5,0,0,10.5,220.2,1018)" />
<use xlink:href="#f4_e" transform="matrix(10.5,0,0,10.5,227.4,1018)" />
<use xlink:href="#f4_a" transform="matrix(10.5,0,0,10.5,231.7,1018)" />
<use xlink:href="#f4_d" transform="matrix(10.5,0,0,10.5,238.9,1018)" />
<use xlink:href="#f2_8" transform="matrix(11.5,0,0,11.5,574.8,1041)" />
<use xlink:href="#f2_4" transform="matrix(11.5,0,0,11.5,586.4,1041)" />
<use xlink:href="#f2_3" transform="matrix(11.5,0,0,11.5,590.3,1041)" />
<use xlink:href="#f2_4" transform="matrix(11.5,0,0,11.5,600.2,1041)" />
<use xlink:href="#f2_n" transform="matrix(11.5,0,0,11.5,604.2,1041)" />
<use xlink:href="#f2_e" transform="matrix(11.5,0,0,11.5,622.2,1041)" />
<use xlink:href="#f2_g" transform="matrix(11.5,0,0,11.5,633.6,1041)" />
<use xlink:href="#f2_5" transform="matrix(11.5,0,0,11.5,645.6,1041)" />
<use xlink:href="#f4_k" transform="matrix(10.5,0,0,10.5,323.7,1039.7)" />
<use xlink:href="#f4_8" transform="matrix(10.5,0,0,10.5,331.7,1039.7)" />
<use xlink:href="#f4_2" transform="matrix(10.5,0,0,10.5,339.8,1039.7)" />
<use xlink:href="#f4_l" transform="matrix(10.5,0,0,10.5,350.9,1039.7)" />
<use xlink:href="#f4_2" transform="matrix(10.5,0,0,10.5,357.9,1039.7)" />
<use xlink:href="#f4_8" transform="matrix(10.5,0,0,10.5,365.1,1039.7)" />
<use xlink:href="#f4_l" transform="matrix(10.5,0,0,10.5,373,1039.7)" />
<use xlink:href="#f4_4" transform="matrix(10.5,0,0,10.5,380.2,1039.7)" />
<use xlink:href="#f4_5" transform="matrix(10.5,0,0,10.5,384.6,1039.7)" />
<use xlink:href="#f4_8" transform="matrix(10.5,0,0,10.5,392.6,1039.7)" />
<use xlink:href="#f4_k" transform="matrix(10.5,0,0,10.5,150.3,1039.7)" />
<use xlink:href="#f4_8" transform="matrix(10.5,0,0,10.5,158.4,1039.7)" />
<use xlink:href="#f4_2" transform="matrix(10.5,0,0,10.5,166.4,1039.7)" />
<use xlink:href="#f4_d" transform="matrix(10.5,0,0,10.5,173.5,1039.7)" />
<use xlink:href="#f4_l" transform="matrix(10.5,0,0,10.5,183.7,1039.7)" />
<use xlink:href="#f4_2" transform="matrix(10.5,0,0,10.5,190.8,1039.7)" />
<use xlink:href="#f4_8" transform="matrix(10.5,0,0,10.5,197.9,1039.7)" />
<use xlink:href="#f4_l" transform="matrix(10.5,0,0,10.5,205.9,1039.7)" />
<use xlink:href="#f4_4" transform="matrix(10.5,0,0,10.5,213.1,1039.7)" />
<use xlink:href="#f4_i" transform="matrix(10.5,0,0,10.5,217.5,1039.7)" />
<use xlink:href="#f4_8" transform="matrix(10.5,0,0,10.5,225.4,1039.7)" />
<use xlink:href="#f4_a" transform="matrix(10.5,0,0,10.5,233.5,1039.7)" />
<use xlink:href="#f4_d" transform="matrix(10.5,0,0,10.5,240.7,1039.7)" />
<use xlink:href="#f2_8" transform="matrix(11.5,0,0,11.5,567.1,1062.6)" />
<use xlink:href="#f2_4" transform="matrix(11.5,0,0,11.5,578.7,1062.6)" />
<use xlink:href="#f2_g" transform="matrix(11.5,0,0,11.5,582.7,1062.6)" />
<use xlink:href="#f2_m" transform="matrix(11.5,0,0,11.5,594.6,1062.6)" />
<use xlink:href="#f2_j" transform="matrix(11.5,0,0,11.5,605.6,1062.6)" />
<use xlink:href="#f2_e" transform="matrix(11.5,0,0,11.5,622.2,1062.6)" />
<use xlink:href="#f2_g" transform="matrix(11.5,0,0,11.5,633.6,1062.6)" />
<use xlink:href="#f2_5" transform="matrix(11.5,0,0,11.5,645.6,1062.6)" />
<use xlink:href="#f4_k" transform="matrix(10.5,0,0,10.5,323.7,1061.2)" />
<use xlink:href="#f4_8" transform="matrix(10.5,0,0,10.5,331.7,1061.2)" />
<use xlink:href="#f4_2" transform="matrix(10.5,0,0,10.5,339.8,1061.2)" />
<use xlink:href="#f4_3" transform="matrix(10.5,0,0,10.5,350.9,1061.2)" />
<use xlink:href="#f4_a" transform="matrix(10.5,0,0,10.5,358.8,1061.2)" />
<use xlink:href="#f4_v" transform="matrix(10.5,0,0,10.5,366,1061.2)" />
<use xlink:href="#f4_k" transform="matrix(10.5,0,0,10.5,150.3,1061.2)" />
<use xlink:href="#f4_8" transform="matrix(10.5,0,0,10.5,158.4,1061.2)" />
<use xlink:href="#f4_2" transform="matrix(10.5,0,0,10.5,166.4,1061.2)" />
<use xlink:href="#f4_d" transform="matrix(10.5,0,0,10.5,173.5,1061.2)" />
<use xlink:href="#f4_3" transform="matrix(10.5,0,0,10.5,183.7,1061.2)" />
<use xlink:href="#f4_a" transform="matrix(10.5,0,0,10.5,191.7,1061.2)" />
<use xlink:href="#f4_l" transform="matrix(10.5,0,0,10.5,198.9,1061.2)" />
<use xlink:href="#f4_a" transform="matrix(10.5,0,0,10.5,205.9,1061.2)" />
<use xlink:href="#f4_d" transform="matrix(10.5,0,0,10.5,213.1,1061.2)" />
<use xlink:href="#f2_r" transform="matrix(11.5,0,0,11.5,594.6,1084.3)" />
<use xlink:href="#f2_a" transform="matrix(11.5,0,0,11.5,606.2,1084.3)" />
<use xlink:href="#f2_3" transform="matrix(11.5,0,0,11.5,611,1084.3)" />
<use xlink:href="#f2_x" transform="matrix(11.5,0,0,11.5,620.9,1084.3)" />
<use xlink:href="#f2_4" transform="matrix(11.5,0,0,11.5,632.3,1084.3)" />
<use xlink:href="#f2_s" transform="matrix(11.5,0,0,11.5,636.3,1084.3)" />
<use xlink:href="#f2_e" transform="matrix(11.5,0,0,11.5,643.4,1084.3)" />
<use xlink:href="#f4_e" transform="matrix(10.5,0,0,10.5,323.7,1082.9)" />
<use xlink:href="#f4_2" transform="matrix(10.5,0,0,10.5,328.2,1082.9)" />
<use xlink:href="#f4_w" transform="matrix(10.5,0,0,10.5,339.3,1082.9)" />
<use xlink:href="#f4_k" transform="matrix(10.5,0,0,10.5,347.3,1082.9)" />
<use xlink:href="#f4_4" transform="matrix(10.5,0,0,10.5,355.3,1082.9)" />
<use xlink:href="#f4_9" transform="matrix(10.5,0,0,10.5,359.8,1082.9)" />
<use xlink:href="#f4_2" transform="matrix(10.5,0,0,10.5,364.2,1082.9)" />
<use xlink:href="#f4_b" transform="matrix(10.5,0,0,10.5,371.4,1082.9)" />
<use xlink:href="#f4_b" transform="matrix(10.5,0,0,10.5,376.7,1082.9)" />
<use xlink:href="#f4_2" transform="matrix(10.5,0,0,10.5,381.9,1082.9)" />
<use xlink:href="#f4_e" transform="matrix(10.5,0,0,10.5,150.3,1082.9)" />
<use xlink:href="#f4_2" transform="matrix(10.5,0,0,10.5,154.8,1082.9)" />
<use xlink:href="#f4_d" transform="matrix(10.5,0,0,10.5,161.9,1082.9)" />
<use xlink:href="#f4_w" transform="matrix(10.5,0,0,10.5,172.2,1082.9)" />
<use xlink:href="#f4_k" transform="matrix(10.5,0,0,10.5,180.2,1082.9)" />
<use xlink:href="#f4_4" transform="matrix(10.5,0,0,10.5,188.2,1082.9)" />
<use xlink:href="#f4_9" transform="matrix(10.5,0,0,10.5,192.6,1082.9)" />
<use xlink:href="#f4_2" transform="matrix(10.5,0,0,10.5,197,1082.9)" />
<use xlink:href="#f4_b" transform="matrix(10.5,0,0,10.5,204.2,1082.9)" />
<use xlink:href="#f4_b" transform="matrix(10.5,0,0,10.5,209.5,1082.9)" />
<use xlink:href="#f4_2" transform="matrix(10.5,0,0,10.5,214.9,1082.9)" />
<use xlink:href="#f4_d" transform="matrix(10.5,0,0,10.5,221.9,1082.9)" />
</g>
<g fill="#0000FF" >
<use xlink:href="#f2_i" transform="matrix(11.5,0,0,11.5,674.1,1124.3)" />
<use xlink:href="#f2_3" transform="matrix(11.5,0,0,11.5,686.6,1124.3)" />
<use xlink:href="#f2_j" transform="matrix(11.5,0,0,11.5,696.5,1124.3)" />
<use xlink:href="#f2_f" transform="matrix(11.5,0,0,11.5,707.5,1124.3)" />
<use xlink:href="#f2_e" transform="matrix(11.5,0,0,11.5,723,1124.3)" />
<use xlink:href="#f2_3" transform="matrix(11.5,0,0,11.5,734.5,1124.3)" />
<use xlink:href="#f2_h" transform="matrix(11.5,0,0,11.5,744.4,1124.3)" />
<use xlink:href="#f2_c" transform="matrix(11.5,0,0,11.5,750.5,1124.3)" />
<use xlink:href="#f2_9" transform="matrix(11.5,0,0,11.5,761.9,1124.3)" />
</g>
</g>
<path d="M674.1,1126h98" class="g2_10" />
<g clip-path="url(#c0_10)">
<g fill="#000000" >
<use xlink:href="#f2_18" transform="matrix(12,0,0,12,137.7,1208.5)" />
<use xlink:href="#f2_1t" transform="matrix(12,0,0,12,149.3,1208.5)" />
</g>
</g>
<defs>
<path d="M721,-14c0,0,-12,0,-12,9l4,28c0,0,17,82,17,338c0,0,0,105,-11,163c0,0,-11,58,-35,84c0,0,-25,26,-83,26H315c0,0,-43,-39,-67,-90c0,0,-25,-51,-25,-104c0,0,0,-59,17,-104c0,0,17,-45,35,-78c0,0,18,-34,18,-44c0,0,0,-26,-20,-95C273,119,252,50,231,0H26L87,214h69c0,0,23,0,23,14l-7,15c0,0,-15,27,-27,68c0,0,-11,41,-11,83c0,0,0,68,25,124c0,0,25,57,86,116H200c0,0,-45,0,-71,32c0,0,-27,33,-27,94c0,0,0,49,17,93c0,0,16,43,32,43c0,0,17,0,17,-10V869c0,0,0,-24,27,-24H637c0,0,73,0,103,-18c0,0,30,-17,46,-62c0,0,17,-46,24,-124c0,0,8,-78,8,-214V338c0,0,0,-279,-27,-311c0,0,-14,-16,-37,-28c0,0,-23,-13,-33,-13Z" 
id="f0_7"
transform="scale(0.001,-0.001)" />

<path d="M204,-8c0,0,-9,0,-11,5c0,0,-2,5,-2,22V549c0,0,0,40,-4,56c0,0,-4,16,-15,22c0,0,-10,7,-39,7H90c0,0,-33,0,-52,33c0,0,-19,33,-19,90c0,0,0,53,15,98c0,0,16,44,35,44c0,0,12,0,12,-13V872c0,0,0,-27,31,-27h42c0,0,79,0,103,-20c0,0,23,-19,23,-83V67c0,0,0,-16,-8,-26c0,0,-9,-10,-33,-30c0,0,-25,-19,-35,-19Z" 
id="f0_9"
transform="scale(0.001,-0.001)" />

<path d="M20,0L75,212H492c0,0,19,51,25,97c0,0,5,46,5,105c0,0,0,63,-6,124c0,0,-6,61,-23,78c0,0,-16,18,-66,18H112c0,0,-36,0,-57,40c0,0,-21,40,-21,101c0,0,0,50,16,87c0,0,16,36,36,36c0,0,13,0,13,-14V870c0,0,0,-25,34,-25H457c0,0,63,0,92,-11c0,0,28,-10,41,-36c0,0,13,-26,18,-107c0,0,4,-80,4,-174c0,0,0,-174,-13,-224c0,0,-4,-15,-21,-41c0,0,-17,-25,-31,-40H688L640,0Z" 
id="f0_f"
transform="scale(0.001,-0.001)" />

<path d="M216,0c0,0,-59,212,-83,350c0,0,-25,139,-25,198c0,0,0,76,23,127c0,0,-42,13,-58,43c0,0,-15,30,-15,72c0,0,0,40,20,74c0,0,20,34,37,34c0,0,10,0,10,-13c0,0,0,-42,69,-42c0,0,57,0,80,-21c0,0,22,-21,22,-62c0,0,0,-38,-7,-72c0,0,-6,-34,-12,-34c0,0,-6,0,-16,10c0,0,-10,10,-25,10c0,0,-25,0,-35,-24c0,0,-10,-24,-10,-71c0,0,0,-164,72,-374c0,0,38,80,116,231c0,0,87,168,121,238c0,0,-36,6,-52,34c0,0,-17,28,-17,66c0,0,0,41,21,82c0,0,20,42,37,42c0,0,9,0,10,-7c0,0,5,-22,13,-32c0,0,9,-11,32,-12l44,-4c0,0,87,-4,87,-94c0,0,0,-33,-7,-67c0,0,-8,-34,-16,-34l-16,10c0,0,-15,10,-30,10c0,0,-22,0,-39,-29c0,0,-18,-32,-39,-72c0,0,-21,-41,-178,-355H691l38,91c0,0,58,139,124,224c0,0,38,50,60,80c0,0,22,29,22,45c0,0,0,12,-7,19c0,0,-6,7,-27,12c0,0,-42,18,-60,41c0,0,-17,24,-17,59c0,0,0,29,11,56c0,0,12,27,27,43c0,0,16,16,26,16c0,0,9,-1,10,-6l4,-14c0,0,4,-21,27,-25l70,-13c0,0,32,-6,51,-30c0,0,20,-24,20,-61c0,0,-2,-45,-23,-87c0,0,-21,-41,-91,-127c0,0,-46,-57,-77,-116c0,0,-31,-59,-71,-161L706,0Z" 
id="f0_13"
transform="scale(0.001,-0.001)" />

<path d="M248,0L521,658H66v429H313V836l493,-1V716L504,0Z" 
id="f1_c"
transform="scale(0.001,-0.001)" />

<path d="M102,250V836H349V351L102,250Z" 
id="f1_9"
transform="scale(0.001,-0.001)" />

<path d="M154,-13c0,0,-38,0,-85,9V198c0,0,58,-15,103,-15c0,0,84,0,118,60c0,0,35,61,35,206c0,0,0,66,-7,105c0,0,-6,39,-24,63c0,0,-17,25,-44,33c0,0,-27,8,-73,8H66V836H225c0,0,198,0,275,-115c0,0,56,-84,65,-264c0,0,3,-55,3,-148c0,0,0,-177,71,-309L393,1c0,0,-53,130,-54,141c0,0,-28,-90,-65,-123c0,0,-38,-32,-120,-32Z" 
id="f1_k"
transform="scale(0.001,-0.001)" />

<path d="M534,0V425c0,0,0,109,-41,171c0,0,-41,62,-140,62H66V836H352c0,0,99,0,174,-20c0,0,75,-20,123,-55c0,0,48,-35,78,-87c0,0,30,-53,42,-113c0,0,12,-60,12,-136V0Z" 
id="f1_4"
transform="scale(0.001,-0.001)" />

<path d="M173,-6C173,-6,61,-6,15,9V177c0,0,73,-10,82,-10c0,0,37,0,52,30c0,0,14,29,14,116V658H18V836H516c0,0,262,0,341,-145c0,0,48,-89,48,-242V0H658V450c0,0,0,131,-37,171c0,0,-34,37,-105,37H411V313c0,0,0,-189,-67,-258C344,55,285,-6,173,-6Z" 
id="f1_7"
transform="scale(0.001,-0.001)" />

<path d="M180,0V198H433V918L173,864v196l258,54H705V198H958V0Z" 
id="f1_t"
transform="scale(0.001,-0.001)" />

<path d="M736,107V473c0,0,0,147,-48,202c0,0,-49,54,-187,54H278V107ZM139,0V836H499c0,0,105,0,177,-22c0,0,72,-21,116,-69c0,0,44,-49,64,-119c0,0,19,-71,19,-174V0Z" 
id="f2_8"
transform="scale(0.001,-0.001)" />

<path d="M102,312V836H241V369L102,312Z" 
id="f2_4"
transform="scale(0.001,-0.001)" />

<path d="M66,0V107H554V452c0,0,0,56,-4,93c0,0,-4,37,-18,75c0,0,-14,38,-40,60c0,0,-26,22,-71,36c0,0,-45,13,-110,13H66V836H312c0,0,91,0,157,-17c0,0,66,-17,109,-49c0,0,44,-32,69,-84c0,0,26,-52,36,-114c0,0,10,-62,10,-147V107H817V0Z" 
id="f2_9"
transform="scale(0.001,-0.001)" />

<path d="M585,0V426c0,0,0,54,-8,98c0,0,-8,44,-27,83c0,0,-19,40,-49,66c0,0,-30,26,-77,41c0,0,-47,15,-108,15H66V836H315c0,0,94,0,166,-20c0,0,71,-20,116,-54c0,0,46,-35,75,-88c0,0,28,-52,40,-112c0,0,12,-60,12,-137V0Z" 
id="f2_3"
transform="scale(0.001,-0.001)" />

<path d="M139,0V836H278V0Z" 
id="f2_a"
transform="scale(0.001,-0.001)" />

<path d="M138,-7c0,0,-34,0,-72,10V129c0,0,25,-8,52,-8c0,0,33,0,58,5c0,0,26,5,58,24c0,0,33,20,53,54c0,0,21,34,36,97c0,0,15,64,15,151c0,0,0,113,-19,173c0,0,-19,60,-56,82c0,0,-38,22,-107,22H89V836h72c0,0,165,0,240,-91c0,0,76,-91,76,-293c0,0,0,-107,26,-227c0,0,25,-119,83,-225H437c0,0,-43,101,-62,184c0,0,-24,-60,-51,-99c0,0,-26,-38,-56,-58C268,27,239,7,209,0c0,0,-30,-7,-71,-7Z" 
id="f2_s"
transform="scale(0.001,-0.001)" />

<path d="M112,-5c0,0,-39,0,-97,11V113c0,0,48,-10,77,-10c0,0,53,0,70,42c0,0,17,43,17,164V729H50V836H501c0,0,107,0,179,-25c0,0,72,-25,112,-77c0,0,40,-51,57,-118c0,0,16,-67,16,-164V0H726V454c0,0,0,55,-3,92c0,0,-4,37,-17,75c0,0,-14,38,-38,59c0,0,-24,22,-65,36c0,0,-42,13,-102,13H318V309c0,0,0,-160,-46,-237C272,72,226,-5,112,-5Z" 
id="f2_r"
transform="scale(0.001,-0.001)" />

<path d="M495,0V729H66V836H781V729H634V0Z" 
id="f2_b"
transform="scale(0.001,-0.001)" />

<path d="M139,0V836H485c0,0,206,0,290,-90c0,0,84,-89,84,-294V0H721V473c0,0,0,147,-49,202c0,0,-48,54,-186,54H277V0Z" 
id="f2_c"
transform="scale(0.001,-0.001)" />

<path d="M180,0L66,836H203L258,443c0,0,36,1,64,6c0,0,28,6,49,18c0,0,20,12,35,26c0,0,15,13,26,36c0,0,11,24,17,44c0,0,7,20,12,55c0,0,6,34,9,60c0,0,3,26,8,71c0,0,4,45,9,77H610c0,0,-13,-194,-31,-271c0,0,-31,-127,-111,-179c0,0,-71,-45,-196,-50L304,107c0,0,73,0,130,5c0,0,56,6,111,21c0,0,54,15,94,40c0,0,40,25,77,64c0,0,37,39,63,94c0,0,25,54,46,128c0,0,21,73,34,166c0,0,13,94,20,211h138c0,0,-14,-124,-29,-218c0,0,-16,-94,-39,-179c0,0,-22,-85,-50,-146c0,0,-28,-61,-68,-112c0,0,-39,-51,-87,-84C744,97,696,65,632,42C632,42,568,19,492,10C492,10,417,0,320,0Z" 
id="f2_n"
transform="scale(0.001,-0.001)" />

<path d="M154,0V454l138,56V0ZM722,0V454c0,0,0,161,-49,218c0,0,-48,57,-186,57H139V836H485c0,0,207,0,291,-93c0,0,83,-94,83,-318V0Z" 
id="f2_e"
transform="scale(0.001,-0.001)" />

<path d="M114,0l60,312c0,0,2,12,8,39c0,0,6,27,7,37c0,0,2,11,5,30c0,0,2,19,4,33c0,0,1,15,1,31c0,0,0,48,-35,146c0,0,-35,98,-98,208H228c0,0,3,-8,27,-67c0,0,25,-58,41,-117c0,0,21,53,50,90c0,0,29,37,57,57c0,0,29,21,65,32c0,0,37,11,65,14c0,0,28,3,67,3c0,0,300,0,300,-396V0H480V106H761V452c0,0,0,146,-46,215c0,0,-45,70,-118,70c0,0,-134,0,-198,-119c0,0,-36,-68,-67,-222c0,0,-2,-10,-6,-27L253,0Z" 
id="f2_g"
transform="scale(0.001,-0.001)" />

<path d="M66,0V106H322c0,0,75,0,127,23c0,0,53,23,82,67c0,0,29,43,42,98c0,0,13,54,13,124c0,0,0,70,-13,124c0,0,-13,55,-42,98c0,0,-29,44,-82,67c0,0,-52,23,-127,23H66V836H322c0,0,87,0,157,-24c0,0,70,-24,115,-64c0,0,45,-40,74,-94c0,0,30,-55,43,-113c0,0,13,-59,13,-123c0,0,0,-64,-13,-123c0,0,-13,-58,-43,-113c0,0,-29,-54,-74,-94C594,88,549,48,479,24C479,24,409,0,322,0Z" 
id="f2_5"
transform="scale(0.001,-0.001)" />

<path d="M228,-17c0,0,-76,0,-114,40c0,0,-38,41,-38,117c0,0,0,11,4,39c0,0,4,29,80,470L78,667l6,34H293L217,268c0,0,-17,-94,-17,-124c0,0,0,-34,18,-55c0,0,18,-21,57,-21c0,0,55,0,120,47c0,0,65,47,107,115l83,471H709L595,52L683,33L677,0H469l20,144C489,144,427,64,360,23c0,0,-67,-40,-132,-40Z" 
id="f3_2"
transform="scale(0.001,-0.001)" />

<path d="M54,0L169,649L81,668l6,33H294L274,558c0,0,62,81,130,121c0,0,67,41,132,41c0,0,75,0,113,-41c0,0,38,-41,38,-117c0,0,0,-10,-3,-32c0,0,-3,-21,-81,-478L700,34L695,0H470l76,434c0,0,17,94,17,123c0,0,0,34,-18,55c0,0,-18,21,-56,21c0,0,-56,0,-121,-47c0,0,-65,-47,-108,-117L178,0Z" 
id="f3_3"
transform="scale(0.001,-0.001)" />

<path d="M301,78c0,0,85,0,185,104l81,442c0,0,-29,20,-55,28c0,0,-25,8,-62,8c0,0,-75,0,-137,-56c0,0,-62,-56,-98,-152c0,0,-36,-95,-36,-199c0,0,0,-79,33,-127c0,0,33,-48,89,-48ZM245,-14c0,0,-90,0,-145,66c0,0,-54,66,-54,182c0,0,0,131,57,244c0,0,57,114,152,178c0,0,96,64,208,64c0,0,90,0,170,-33l33,26h40L589,52L673,33L667,0H454l22,117C476,117,350,-14,245,-14Z" 
id="f3_4"
transform="scale(0.001,-0.001)" />

<path d="M298,-14c0,0,-120,0,-185,69c0,0,-66,69,-66,191c0,0,0,130,52,237c0,0,52,107,149,172c0,0,97,65,203,65c0,0,53,0,112,-12c0,0,60,-11,99,-27L628,485H587L575,615c0,0,-47,47,-125,47c0,0,-72,0,-134,-53c0,0,-62,-53,-100,-147c0,0,-37,-95,-37,-208c0,0,0,-190,154,-190c0,0,106,0,222,74l22,-32c0,0,-60,-56,-135,-88c0,0,-76,-32,-144,-32Z" 
id="f3_6"
transform="scale(0.001,-0.001)" />

<path d="M62,0L176,649L88,668l6,33H301L278,543c0,0,55,84,124,130c0,0,69,47,138,47c0,0,37,0,59,-6L566,530H534l-28,95c0,0,-60,0,-124,-46c0,0,-63,-45,-116,-120L186,0Z" 
id="f3_7"
transform="scale(0.001,-0.001)" />

<path d="M188,355c0,0,148,11,236,69c0,0,89,58,89,143c0,0,0,41,-23,68c0,0,-22,27,-66,27c0,0,-52,0,-101,-43c0,0,-49,-42,-85,-114c0,0,-36,-71,-50,-150ZM298,-14c0,0,-120,0,-186,67c0,0,-65,67,-65,193c0,0,0,125,53,232c0,0,52,108,145,175c0,0,94,67,196,67c0,0,92,0,147,-42c0,0,56,-43,56,-111c0,0,0,-102,-126,-173c0,0,-125,-72,-336,-86l-3,-54c0,0,0,-95,40,-143c0,0,40,-47,118,-47c0,0,67,0,124,22c0,0,57,23,106,52l22,-32c0,0,-69,-58,-146,-89c0,0,-76,-31,-145,-31Z" 
id="f3_8"
transform="scale(0.001,-0.001)" />

<path d="M228,-14c0,0,-103,0,-209,46L49,200H83L95,99c0,0,20,-21,55,-38c0,0,36,-16,81,-16c0,0,163,0,163,133c0,0,0,44,-35,78c0,0,-34,34,-113,72c0,0,-75,37,-112,81c0,0,-36,45,-36,104c0,0,0,99,66,153c0,0,67,54,184,54c0,0,85,0,200,-26L521,538H486l-11,80c0,0,-47,42,-124,42c0,0,-61,0,-97,-28c0,0,-37,-28,-37,-87c0,0,0,-40,31,-71c0,0,32,-30,119,-75c0,0,78,-40,113,-86c0,0,36,-47,36,-107c0,0,0,-113,-71,-167c0,0,-72,-53,-217,-53Z" 
id="f3_9"
transform="scale(0.001,-0.001)" />

<path d="M66,0V107H332V555c0,0,0,92,-37,133c0,0,-37,41,-116,41H85V836h94c0,0,153,0,223,-66c0,0,69,-66,69,-231V0Z" 
id="f2_6"
transform="scale(0.001,-0.001)" />

<path d="M139,0V106H400c0,0,176,0,253,71c0,0,78,72,78,250c0,0,0,163,-80,233c0,0,-81,69,-250,69H278L277,564c0,0,-1,-54,26,-80c0,0,27,-25,82,-25c0,0,30,0,80,9V355c0,0,-61,-12,-111,-12c0,0,-100,0,-157,55c0,0,-58,55,-58,186V836H456c0,0,193,0,303,-109c0,0,110,-109,110,-309c0,0,0,-200,-110,-309C759,109,648,0,456,0Z" 
id="f2_j"
transform="scale(0.001,-0.001)" />

<path d="M495,413c0,0,0,133,-34,190c0,0,-34,57,-105,57c0,0,-78,0,-119,-63c0,0,-42,-62,-42,-184ZM374,-14c0,0,-163,0,-239,87c0,0,-75,88,-75,283c0,0,0,183,77,273c0,0,76,91,219,91c0,0,269,0,269,-306V353H194V340c0,0,0,-103,23,-160c0,0,22,-57,70,-87c0,0,47,-29,124,-29c0,0,40,0,96,6c0,0,55,7,91,15V43C598,43,562,20,500,3c0,0,-61,-17,-126,-17Z" 
id="f4_a"
transform="scale(0.001,-0.001)" />

<path d="M31,0V33L150,52v956L31,1026v34H274V52L394,33V0Z" 
id="f4_e"
transform="scale(0.001,-0.001)" />

<path d="M31,0V33l88,19V649L31,668v33H235l7,-87c0,0,44,37,121,71c0,0,76,35,121,35h11V530H463l-43,82c0,0,-37,0,-88,-10c0,0,-52,-10,-89,-26V52L363,33V0Z" 
id="f4_b"
transform="scale(0.001,-0.001)" />

<path d="M32,0V33L151,52V649L52,668v33H275V52L395,33V0ZM201,850c0,0,-32,0,-56,24c0,0,-24,24,-24,56c0,0,0,34,24,58c0,0,24,24,56,24c0,0,34,0,58,-24c0,0,24,-24,24,-58c0,0,0,-32,-24,-56c0,0,-24,-24,-58,-24Z" 
id="f4_4"
transform="scale(0.001,-0.001)" />

<path d="M439,0V33l93,19V500c0,0,0,62,-30,97c0,0,-31,36,-94,36c0,0,-67,0,-165,-22V52L338,33V0H35V33l84,19V649L35,668v33H235l7,-57c0,0,57,33,122,54c0,0,65,22,108,22c0,0,91,0,137,-53c0,0,47,-53,47,-154V52L741,33V0Z" 
id="f4_8"
transform="scale(0.001,-0.001)" />

<path d="M399,-14c0,0,-341,0,-341,370c0,0,0,175,87,269c0,0,87,95,249,95c0,0,101,0,220,-23V501H573L541,625c0,0,-62,35,-149,35c0,0,-200,0,-200,-304c0,0,0,-158,61,-225c0,0,61,-67,189,-67c0,0,109,0,189,24V43C631,43,595,16,530,1c0,0,-64,-15,-131,-15Z" 
id="f4_l"
transform="scale(0.001,-0.001)" />

<path d="M377,44c0,0,99,0,147,73c0,0,47,73,47,237c0,0,0,161,-47,234c0,0,-47,72,-147,72c0,0,-97,0,-141,-69c0,0,-44,-70,-44,-237c0,0,0,-169,45,-239c0,0,44,-71,140,-71Zm0,-58c0,0,-158,0,-238,94c0,0,-81,95,-81,274c0,0,0,178,81,272c0,0,80,94,244,94c0,0,160,0,241,-92c0,0,82,-92,82,-274c0,0,0,-368,-329,-368ZM301,835v24l147,203H606v-27L342,835Z" 
id="f4_5"
transform="scale(0.001,-0.001)" />

<path d="M377,45c0,0,99,0,147,73c0,0,47,73,47,237c0,0,0,161,-47,233c0,0,-47,72,-147,72c0,0,-97,0,-141,-69c0,0,-44,-69,-44,-236c0,0,0,-169,45,-240c0,0,44,-70,140,-70Zm0,-59c0,0,-158,0,-238,94c0,0,-81,95,-81,274c0,0,0,178,81,272c0,0,80,94,244,94c0,0,160,0,241,-92c0,0,82,-92,82,-274c0,0,0,-368,-329,-368Z" 
id="f4_i"
transform="scale(0.001,-0.001)" />

<path d="M278,-14c0,0,-52,0,-115,11c0,0,-63,10,-99,23V193H98L134,95c0,0,56,-50,146,-50c0,0,144,0,144,123c0,0,0,91,-114,130l-66,21c0,0,-75,25,-110,50c0,0,-34,26,-53,63c0,0,-18,36,-18,89c0,0,0,92,63,145c0,0,63,54,170,54c0,0,77,0,193,-23V544H454l-32,81c0,0,-39,35,-124,35c0,0,-61,0,-92,-30c0,0,-32,-30,-32,-80c0,0,0,-43,29,-72c0,0,28,-29,86,-48c0,0,110,-38,144,-55c0,0,33,-17,57,-42c0,0,23,-25,36,-57c0,0,13,-32,13,-79c0,0,0,-104,-66,-158c0,0,-66,-53,-195,-53Z" 
id="f4_d"
transform="scale(0.001,-0.001)" />

<path d="M139,0V138c0,0,0,61,8,112c0,0,7,52,19,87c0,0,11,36,30,66c0,0,19,31,35,49c0,0,17,19,41,35c0,0,25,17,41,25c0,0,17,7,40,17L141,836H303L613,388c0,0,20,10,33,18c0,0,13,8,34,28c0,0,20,20,33,44c0,0,13,25,22,66c0,0,10,41,10,92V836H882V698c0,0,0,-61,-7,-112c0,0,-6,-52,-18,-88c0,0,-12,-36,-30,-66c0,0,-19,-30,-36,-49c0,0,-17,-18,-41,-34c0,0,-24,-17,-40,-25c0,0,-17,-8,-41,-17L882,0H720L409,448c0,0,-21,-11,-34,-19c0,0,-13,-8,-34,-27c0,0,-21,-20,-34,-44c0,0,-12,-25,-22,-66c0,0,-9,-41,-9,-92V0Z" 
id="f2_q"
transform="scale(0.001,-0.001)" />

<path d="M289,-14c0,0,-179,0,-179,205V649L20,668v33H233V200c0,0,0,-128,120,-128c0,0,92,0,173,23V649L420,668v33H649V52L738,33V0H533l-6,57C527,57,474,28,405,7c0,0,-69,-21,-116,-21Z" 
id="f4_k"
transform="scale(0.001,-0.001)" />

<path d="M284,67c0,0,51,0,88,12c0,0,37,12,74,30V358l-98,-3c0,0,-100,-4,-135,-39c0,0,-35,-35,-35,-117c0,0,0,-132,106,-132ZM233,-14c0,0,-179,0,-179,208c0,0,0,70,27,116c0,0,27,46,87,70c0,0,60,24,173,27l105,3V519c0,0,0,72,-26,107c0,0,-27,34,-82,34c0,0,-75,0,-137,-35L176,538H134V691c0,0,121,26,213,26c0,0,115,0,169,-47c0,0,54,-47,54,-144V52L657,33V0H465L451,70c0,0,-85,-84,-218,-84Z" 
id="f4_2"
transform="scale(0.001,-0.001)" />

<path d="M41,0V34L426,641H261c0,0,-42,0,-80,-7c0,0,-39,-7,-54,-19L104,515H69V701H586V665L201,60H407c0,0,42,0,89,10c0,0,47,10,66,25l39,147h35L617,0Z" 
id="f4_v"
transform="scale(0.001,-0.001)" />

<path d="M287,0L589,729H66v386H205V836l547,-1l-2,-82L433,0Z" 
id="f2_f"
transform="scale(0.001,-0.001)" />

<path d="M382,45c0,0,188,0,188,314c0,0,0,143,-47,213c0,0,-46,69,-141,69c0,0,-87,0,-146,-24V58c0,0,67,-13,146,-13ZM25,-325v35l88,18V649L34,668v33H231l1,-41c0,0,31,27,84,43c0,0,53,17,107,17c0,0,134,0,208,-94c0,0,73,-93,73,-267c0,0,0,-178,-80,-276c0,0,-80,-97,-232,-97c0,0,-84,0,-160,16c0,0,4,-53,4,-84V-272l123,-18v-35Z" 
id="f4_t"
transform="scale(0.001,-0.001)" />

<path d="M148,-329c0,0,-58,0,-114,13v151H69l24,-71c0,0,23,-17,64,-17c0,0,39,0,72,22c0,0,33,23,60,67c0,0,27,44,68,157L90,649L19,668v33H344V668L233,648L423,158L606,649L497,668v33H758V668L685,652L411,-43c0,0,-48,-124,-84,-177c0,0,-36,-54,-79,-82c0,0,-44,-27,-100,-27Z" 
id="f4_z"
transform="scale(0.001,-0.001)" />

<path d="M522,92c0,0,247,0,247,333c0,0,0,88,-17,146c0,0,-17,58,-53,91c0,0,-35,33,-82,46c0,0,-48,14,-116,14H276V419c0,0,0,-327,246,-327Zm0,-112c0,0,-193,0,-289,109c0,0,-95,110,-95,337V836H501c0,0,213,0,309,-93c0,0,96,-94,96,-317c0,0,0,-227,-95,-337C811,89,715,-20,522,-20Z" 
id="f2_l"
transform="scale(0.001,-0.001)" />

<path d="M64,-325c0,0,-46,0,-107,14v148H-8l19,-81c0,0,25,-21,62,-21c0,0,44,0,67,47c0,0,22,47,22,152V649L57,668v33H286V-28c0,0,0,-146,-57,-221c0,0,-56,-76,-165,-76ZM213,850c0,0,-34,0,-58,24c0,0,-24,24,-24,56c0,0,0,34,24,58c0,0,24,24,58,24c0,0,32,0,56,-24c0,0,24,-24,24,-58c0,0,0,-32,-24,-56c0,0,-24,-24,-56,-24Z" 
id="f4_u"
transform="scale(0.001,-0.001)" />

<path d="M376,50c0,0,103,0,149,80c0,0,46,81,46,240c0,0,0,137,-47,204c0,0,-48,67,-148,67c0,0,-44,0,-87,-7c0,0,-44,-8,-63,-17V62c0,0,63,-12,150,-12Zm3,-64c0,0,-64,0,-141,14c0,0,-78,14,-136,37v971L0,1026v34H226V809c0,0,0,-40,-4,-148c0,0,74,59,188,59c0,0,143,0,219,-87c0,0,77,-87,77,-263c0,0,0,-189,-84,-287c0,0,-84,-97,-243,-97Z" 
id="f4_p"
transform="scale(0.001,-0.001)" />

<path d="M359,-270c0,0,124,0,192,46c0,0,67,47,67,129c0,0,0,43,-26,67c0,0,-26,24,-79,24H242c0,0,-32,-27,-51,-69c0,0,-20,-41,-20,-77c0,0,0,-64,46,-92c0,0,46,-28,142,-28Zm11,561c0,0,81,0,115,47c0,0,34,47,34,141c0,0,0,100,-35,142c0,0,-35,42,-113,42c0,0,-78,0,-114,-43c0,0,-37,-42,-37,-141c0,0,0,-98,36,-143c0,0,36,-45,114,-45ZM359,-329c0,0,-143,0,-218,44c0,0,-75,43,-75,125c0,0,0,39,27,78c0,0,26,38,98,89c0,0,-43,14,-72,48c0,0,-29,35,-29,74L208,262c0,0,-118,55,-118,217c0,0,0,115,73,178c0,0,73,63,211,63c0,0,28,0,71,-6c0,0,44,-6,67,-13l165,83l26,-32L599,644c0,0,50,-56,50,-165c0,0,0,-120,-72,-182c0,0,-73,-62,-208,-62c0,0,-62,0,-114,11L208,148c0,0,2,-13,29,-24c0,0,27,-12,67,-12H512c0,0,113,0,168,-49c0,0,55,-49,55,-134c0,0,0,-79,-44,-137c0,0,-43,-58,-128,-90c0,0,-84,-31,-204,-31Z" 
id="f4_w"
transform="scale(0.001,-0.001)" />

<path d="M71,-141V-15L289,62L66,836H210L416,109c0,0,99,42,153,98c0,0,53,56,80,155c0,0,26,98,26,262V836H817V624c0,0,0,-88,-7,-154c0,0,-7,-67,-25,-132c0,0,-18,-66,-51,-116c0,0,-33,-51,-84,-98c0,0,-50,-48,-123,-87c0,0,-72,-39,-169,-74L71,-141Z" 
id="f2_m"
transform="scale(0.001,-0.001)" />

<path d="M383,64c0,0,85,0,152,28V645c0,0,-67,13,-152,13c0,0,-194,0,-194,-314c0,0,0,-141,48,-211c0,0,48,-69,146,-69ZM342,-14c0,0,-287,0,-287,358c0,0,0,184,82,280c0,0,81,96,239,96c0,0,81,0,163,-18c0,0,-4,25,-4,124v182l-118,18v34H659V52L745,33V0H548l-9,52c0,0,-84,-66,-197,-66Z" 
id="f4_n"
transform="scale(0.001,-0.001)" />

<path d="M35,0V34l84,18V649L35,668v33H235l7,-56c0,0,57,32,122,54c0,0,65,21,108,21c0,0,91,0,137,-53c0,0,47,-53,47,-154V52L741,34V0H439V34l93,18V500c0,0,0,62,-30,97c0,0,-31,36,-94,36c0,0,-67,0,-165,-22V52L338,34V0ZM481,834c0,0,-36,0,-66,16c0,0,-30,16,-57,36c0,0,-27,20,-52,36c0,0,-25,16,-49,16c0,0,-24,0,-39,-9c0,0,-14,-9,-23,-26c0,0,-8,-17,-13,-54H143c0,0,11,180,146,180c0,0,36,0,66,-16c0,0,30,-16,57,-35c0,0,27,-20,52,-36c0,0,25,-16,49,-16c0,0,32,0,50,18c0,0,18,19,25,70h39c0,0,-12,-180,-146,-180Z" 
id="f4_g"
transform="scale(0.001,-0.001)" />

<path d="M360,-14L72,649L0,668v33H327V668L216,648L420,164L615,649L504,668v33H764V668L697,652L416,-14Z" 
id="f4_3"
transform="scale(0.001,-0.001)" />

<path d="M522,-20c0,0,-196,0,-290,99c0,0,-94,100,-94,324V836H276V397c0,0,0,-86,16,-147c0,0,17,-60,50,-94c0,0,34,-34,77,-49c0,0,43,-15,103,-15c0,0,59,0,102,15c0,0,44,15,77,49c0,0,33,34,50,94c0,0,17,61,17,147c0,0,0,84,-8,143c0,0,-7,58,-25,105c0,0,-17,47,-51,69c0,0,-33,23,-83,23c0,0,-50,0,-119,-22V821c0,0,85,23,150,23c0,0,76,0,130,-30c0,0,53,-31,85,-90c0,0,31,-59,45,-138c0,0,13,-78,13,-183c0,0,0,-224,-93,-324c0,0,-94,-99,-290,-99Z" 
id="f2_x"
transform="scale(0.001,-0.001)" />

<path d="M249,-14c0,0,-71,0,-107,42c0,0,-35,42,-35,119V639H15v33l93,29l76,159h47V701H391V639H231V161c0,0,0,-48,22,-73c0,0,22,-24,57,-24c0,0,44,0,106,12V26C416,26,389,8,340,-2c0,0,-49,-12,-91,-12Z" 
id="f4_9"
transform="scale(0.001,-0.001)" />

<path d="M156,-317V454l139,56V-317ZM505,0L806,729H139V835H967V753L650,0Z" 
id="f2_i"
transform="scale(0.001,-0.001)" />

<path d="M152,0V473c0,0,0,94,28,161c0,0,29,66,71,95H66V836H463V729H404c0,0,-65,0,-89,-57c0,0,-25,-58,-25,-199V0Z" 
id="f2_h"
transform="scale(0.001,-0.001)" />

<path d="M190,0V127H436V977L168,923v137l267,54H586V127H832V0Z" 
id="f2_18"
transform="scale(0.001,-0.001)" />

<path d="M486,98c0,0,117,0,175,114c0,0,59,115,59,344c0,0,0,230,-59,344c0,0,-58,115,-175,115c0,0,-117,0,-175,-115c0,0,-59,-114,-59,-344c0,0,0,-229,59,-344c0,0,58,-114,175,-114ZM485,-20c0,0,-187,0,-285,147c0,0,-99,148,-99,429c0,0,0,282,98,430c0,0,99,148,286,148c0,0,188,0,286,-148c0,0,99,-148,99,-430c0,0,0,-281,-99,-429c0,0,-98,-147,-286,-147Z" 
id="f2_1t"
transform="scale(0.001,-0.001)" />


</defs>
</svg>