<?xml version="1.0" encoding="UTF-8" standalone="no"?>
<!DOCTYPE svg PUBLIC "-//W3C//DTD SVG 1.1//EN"
"http://www.w3.org/Graphics/SVG/1.1/DTD/svg11.dtd">
<svg viewBox="0 0 909 1286" version="1.1" xmlns="http://www.w3.org/2000/svg" xmlns:xlink="http://www.w3.org/1999/xlink">
<defs>
<clipPath id="c0_12"><path d="M0,1286.2V0H909.4V1286.2Z" /></clipPath>
<style type="text/css"><![CDATA[
.g0_12{
fill: #D8D8D8;
}
.g1_12{
fill: none;
stroke: #0000FF;
stroke-width: 1.0694444;
stroke-linecap: butt;
stroke-linejoin: miter;
}
.g2_12{
fill: none;
stroke: #000000;
stroke-width: 0.7638889;
stroke-linecap: butt;
stroke-linejoin: round;
}
]]></style>
</defs>
<path fill-rule="evenodd" d="M436.3,438.4H663.7V418.5H436.3v19.9Z" class="g0_12" />
<path fill-rule="evenodd" d="M241.4,438.4H436.3V418.5H241.4v19.9Z" class="g0_12" />
<path fill-rule="evenodd" d="M64.3,438.4h177V418.5H64.3v19.9Z" class="g0_12" />
<path fill-rule="evenodd" d="M544.7,481.9h119V438.5h-119v43.4Z" class="g0_12" />
<path fill-rule="evenodd" d="M436.3,481.9H544.6V438.5H436.3v43.4Z" class="g0_12" />
<path fill-rule="evenodd" d="M338.9,481.9h97.4V438.5H338.9v43.4Z" class="g0_12" />
<path fill-rule="evenodd" d="M241.5,481.9h97.3V438.5H241.5v43.4Z" class="g0_12" />
<path fill-rule="evenodd" d="M154.8,481.9h86.7V438.5H154.8v43.4Z" class="g0_12" />
<path fill-rule="evenodd" d="M64.3,481.9h90.4V438.5H64.3v43.4Z" class="g0_12" />
<path fill-rule="evenodd" d="M663.8,502.1H771.9V482H663.8v20.1Z" class="g0_12" />
<path fill-rule="evenodd" d="M663.8,522.1H771.9V502.2H663.8v19.9Z" class="g0_12" />
<path fill-rule="evenodd" d="M663.8,542.3H771.9V522.2H663.8v20.1Z" class="g0_12" />
<path fill-rule="evenodd" d="M663.8,562.3H771.9V542.4H663.8v19.9Z" class="g0_12" />
<path fill-rule="evenodd" d="M663.8,582.5H771.9V562.4H663.8v20.1Z" class="g0_12" />
<path fill-rule="evenodd" d="M538.4,708H663.7V688.1H538.4V708Z" class="g0_12" />
<path fill-rule="evenodd" d="M403.9,708H538.3V688.1H403.9V708Z" class="g0_12" />
<path fill-rule="evenodd" d="M287.4,708H403.9V688.1H287.4V708Z" class="g0_12" />
<path fill-rule="evenodd" d="M161.9,708H287.3V688.1H161.9V708Z" class="g0_12" />
<path fill-rule="evenodd" d="M663.8,728.2H771.9V708.1H663.8v20.1Z" class="g0_12" />
<path fill-rule="evenodd" d="M663.8,748.2H771.9V728.3H663.8v19.9Z" class="g0_12" />
<path fill-rule="evenodd" d="M663.8,768.4H771.9V748.3H663.8v20.1Z" class="g0_12" />
<path fill-rule="evenodd" d="M663.8,788.4H771.9V768.5H663.8v19.9Z" class="g0_12" />
<path fill-rule="evenodd" d="M663.8,808.6H771.9V788.5H663.8v20.1Z" class="g0_12" />
<path fill-rule="evenodd" d="M118.4,1013.6H249.1V993.5H118.4v20.1Z" class="g0_12" />
<path fill-rule="evenodd" d="M249.2,1013.6H379.9V993.5H249.2v20.1Z" class="g0_12" />
<path fill-rule="evenodd" d="M380,1013.6H510.5V993.5H380v20.1Z" class="g0_12" />
<path fill-rule="evenodd" d="M510.6,1013.6H641.3V993.5H510.6v20.1Z" class="g0_12" />
<path fill-rule="evenodd" d="M641.4,1013.6H771.9V993.5H641.4v20.1Z" class="g0_12" />
<path fill-rule="evenodd" d="M249.2,1073.8H379.7v-19.9H249.2v19.9Z" class="g0_12" />
<path fill-rule="evenodd" d="M379.8,1073.8H510.5v-19.9H379.8v19.9Z" class="g0_12" />
<path fill-rule="evenodd" d="M510.6,1073.8H641.3v-19.9H510.6v19.9Z" class="g0_12" />
<path fill-rule="evenodd" d="M641.4,1073.8H771.9v-19.9H641.4v19.9Z" class="g0_12" />
<path fill-rule="evenodd" d="M436.3,438.4H663.7V418.5H436.3v19.9Z" class="g0_12" />
<path fill-rule="evenodd" d="M241.4,438.4H436.3V418.5H241.4v19.9Z" class="g0_12" />
<path fill-rule="evenodd" d="M64.3,438.4h177V418.5H64.3v19.9Z" class="g0_12" />
<path fill-rule="evenodd" d="M544.7,481.9h119V438.5h-119v43.4Z" class="g0_12" />
<path fill-rule="evenodd" d="M436.3,481.9H544.6V438.5H436.3v43.4Z" class="g0_12" />
<path fill-rule="evenodd" d="M338.9,481.9h97.4V438.5H338.9v43.4Z" class="g0_12" />
<path fill-rule="evenodd" d="M241.5,481.9h97.3V438.5H241.5v43.4Z" class="g0_12" />
<path fill-rule="evenodd" d="M154.8,481.9h86.7V438.5H154.8v43.4Z" class="g0_12" />
<path fill-rule="evenodd" d="M64.3,481.9h90.4V438.5H64.3v43.4Z" class="g0_12" />
<path fill-rule="evenodd" d="M663.8,502.1H771.9V482H663.8v20.1Z" class="g0_12" />
<path fill-rule="evenodd" d="M663.8,522.1H771.9V502.2H663.8v19.9Z" class="g0_12" />
<path fill-rule="evenodd" d="M663.8,542.3H771.9V522.2H663.8v20.1Z" class="g0_12" />
<path fill-rule="evenodd" d="M663.8,562.3H771.9V542.4H663.8v19.9Z" class="g0_12" />
<path fill-rule="evenodd" d="M663.8,582.5H771.9V562.4H663.8v20.1Z" class="g0_12" />
<path fill-rule="evenodd" d="M538.4,708H663.7V688.1H538.4V708Z" class="g0_12" />
<path fill-rule="evenodd" d="M403.9,708H538.3V688.1H403.9V708Z" class="g0_12" />
<path fill-rule="evenodd" d="M287.4,708H403.9V688.1H287.4V708Z" class="g0_12" />
<path fill-rule="evenodd" d="M161.9,708H287.3V688.1H161.9V708Z" class="g0_12" />
<path fill-rule="evenodd" d="M663.8,728.2H771.9V708.1H663.8v20.1Z" class="g0_12" />
<path fill-rule="evenodd" d="M663.8,748.2H771.9V728.3H663.8v19.9Z" class="g0_12" />
<path fill-rule="evenodd" d="M663.8,768.4H771.9V748.3H663.8v20.1Z" class="g0_12" />
<path fill-rule="evenodd" d="M663.8,788.4H771.9V768.5H663.8v19.9Z" class="g0_12" />
<path fill-rule="evenodd" d="M663.8,808.6H771.9V788.5H663.8v20.1Z" class="g0_12" />
<path fill-rule="evenodd" d="M118.4,1013.6H249.1V993.5H118.4v20.1Z" class="g0_12" />
<path fill-rule="evenodd" d="M249.2,1013.6H379.9V993.5H249.2v20.1Z" class="g0_12" />
<path fill-rule="evenodd" d="M380,1013.6H510.5V993.5H380v20.1Z" class="g0_12" />
<path fill-rule="evenodd" d="M510.6,1013.6H641.3V993.5H510.6v20.1Z" class="g0_12" />
<path fill-rule="evenodd" d="M641.4,1013.6H771.9V993.5H641.4v20.1Z" class="g0_12" />
<path fill-rule="evenodd" d="M249.2,1073.8H379.7v-19.9H249.2v19.9Z" class="g0_12" />
<path fill-rule="evenodd" d="M379.8,1073.8H510.5v-19.9H379.8v19.9Z" class="g0_12" />
<path fill-rule="evenodd" d="M510.6,1073.8H641.3v-19.9H510.6v19.9Z" class="g0_12" />
<path fill-rule="evenodd" d="M641.4,1073.8H771.9v-19.9H641.4v19.9Z" class="g0_12" />
<g clip-path="url(#c0_12)">
<g fill="#000000" >
<use xlink:href="#f0_1j" transform="matrix(11,0,0,11,376,145)" />
<use xlink:href="#f0_7" transform="matrix(11,0,0,11,388.1,145)" />
<use xlink:href="#f0_b" transform="matrix(11,0,0,11,400.7,145)" />
<use xlink:href="#f0_n" transform="matrix(11,0,0,11,407.1,145)" />
<use xlink:href="#f0_k" transform="matrix(11,0,0,11,414.6,145)" />
<use xlink:href="#f0_x" transform="matrix(11,0,0,11,419.3,145)" />
<use xlink:href="#f0_e" transform="matrix(11,0,0,11,428.2,145)" />
<use xlink:href="#f0_d" transform="matrix(11,0,0,11,440.8,145)" />
<use xlink:href="#f0_m" transform="matrix(11,0,0,11,449.1,145)" />
<use xlink:href="#f0_d" transform="matrix(11,0,0,11,456.6,145)" />
<use xlink:href="#f0_x" transform="matrix(11,0,0,11,465,145)" />
<use xlink:href="#f0_q" transform="matrix(11,0,0,11,469.5,145)" />
<use xlink:href="#f1_g" transform="matrix(12,0,0,12,629.1,146.4)" />
<use xlink:href="#f1_l" transform="matrix(12,0,0,12,635,146.4)" />
<use xlink:href="#f1_a" transform="matrix(12,0,0,12,639.1,146.4)" />
<use xlink:href="#f1_l" transform="matrix(12,0,0,12,651,146.4)" />
<use xlink:href="#f1_a" transform="matrix(12,0,0,12,655.1,146.4)" />
<use xlink:href="#f1_p" transform="matrix(12,0,0,12,667.1,146.4)" />
<use xlink:href="#f1_4" transform="matrix(12,0,0,12,680.1,146.4)" />
<use xlink:href="#f1_l" transform="matrix(12,0,0,12,690.9,146.4)" />
<use xlink:href="#f1_a" transform="matrix(12,0,0,12,695,146.4)" />
<use xlink:href="#f1_8" transform="matrix(12,0,0,12,707.1,146.4)" />
<use xlink:href="#f1_5" transform="matrix(12,0,0,12,719.3,146.4)" />
<use xlink:href="#f1_l" transform="matrix(12,0,0,12,730.2,146.4)" />
<use xlink:href="#f1_l" transform="matrix(12,0,0,12,740.1,146.4)" />
<use xlink:href="#f1_n" transform="matrix(12,0,0,12,744.2,146.4)" />
<use xlink:href="#f1_8" transform="matrix(12,0,0,12,751.5,146.4)" />
<use xlink:href="#f0_1l" transform="matrix(11,0,0,11,376,166.4)" />
<use xlink:href="#f0_g" transform="matrix(11,0,0,11,386.2,166.4)" />
<use xlink:href="#f0_b" transform="matrix(11,0,0,11,398.7,166.4)" />
<use xlink:href="#f0_n" transform="matrix(11,0,0,11,405.3,166.4)" />
<use xlink:href="#f0_k" transform="matrix(11,0,0,11,412.8,166.4)" />
<use xlink:href="#f0_t" transform="matrix(11,0,0,11,417.3,166.4)" />
<use xlink:href="#f0_b" transform="matrix(11,0,0,11,422.1,166.4)" />
<use xlink:href="#f0_f" transform="matrix(11,0,0,11,428.6,166.4)" />
<use xlink:href="#f0_m" transform="matrix(11,0,0,11,433.3,166.4)" />
<use xlink:href="#f0_e" transform="matrix(11,0,0,11,444.9,166.4)" />
<use xlink:href="#f0_d" transform="matrix(11,0,0,11,457.6,166.4)" />
<use xlink:href="#f0_m" transform="matrix(11,0,0,11,465.8,166.4)" />
<use xlink:href="#f0_d" transform="matrix(11,0,0,11,473.3,166.4)" />
<use xlink:href="#f0_t" transform="matrix(11,0,0,11,481.7,166.4)" />
<use xlink:href="#f0_b" transform="matrix(11,0,0,11,486.4,166.4)" />
<use xlink:href="#f0_f" transform="matrix(11,0,0,11,492.9,166.4)" />
<use xlink:href="#f0_m" transform="matrix(11,0,0,11,497.6,166.4)" />
<use xlink:href="#f0_q" transform="matrix(11,0,0,11,505,166.4)" />
<use xlink:href="#f1_g" transform="matrix(12,0,0,12,636.8,167.8)" />
<use xlink:href="#f1_a" transform="matrix(12,0,0,12,642.6,167.8)" />
<use xlink:href="#f1_l" transform="matrix(12,0,0,12,654.5,167.8)" />
<use xlink:href="#f1_a" transform="matrix(12,0,0,12,658.6,167.8)" />
<use xlink:href="#f1_p" transform="matrix(12,0,0,12,670.7,167.8)" />
<use xlink:href="#f1_4" transform="matrix(12,0,0,12,683.6,167.8)" />
<use xlink:href="#f1_a" transform="matrix(12,0,0,12,694.5,167.8)" />
<use xlink:href="#f1_8" transform="matrix(12,0,0,12,706.5,167.8)" />
<use xlink:href="#f1_5" transform="matrix(12,0,0,12,718.7,167.8)" />
<use xlink:href="#f1_l" transform="matrix(12,0,0,12,729.6,167.8)" />
<use xlink:href="#f1_a" transform="matrix(12,0,0,12,739.5,167.8)" />
<use xlink:href="#f1_8" transform="matrix(12,0,0,12,751.6,167.8)" />
<use xlink:href="#f0_23" transform="matrix(11,0,0,11,376,187.8)" />
<use xlink:href="#f0_k" transform="matrix(11,0,0,11,386.2,187.8)" />
<use xlink:href="#f0_b" transform="matrix(11,0,0,11,395.1,187.8)" />
<use xlink:href="#f0_n" transform="matrix(11,0,0,11,401.6,187.8)" />
<use xlink:href="#f0_k" transform="matrix(11,0,0,11,408.9,187.8)" />
<use xlink:href="#f0_t" transform="matrix(11,0,0,11,413.7,187.8)" />
<use xlink:href="#f0_w" transform="matrix(11,0,0,11,418.4,187.8)" />
<use xlink:href="#f0_e" transform="matrix(11,0,0,11,430.9,187.8)" />
<use xlink:href="#f0_d" transform="matrix(11,0,0,11,443.6,187.8)" />
<use xlink:href="#f0_m" transform="matrix(11,0,0,11,452,187.8)" />
<use xlink:href="#f0_d" transform="matrix(11,0,0,11,459.4,187.8)" />
<use xlink:href="#f0_t" transform="matrix(11,0,0,11,467.7,187.8)" />
<use xlink:href="#f0_w" transform="matrix(11,0,0,11,472.4,187.8)" />
<use xlink:href="#f0_q" transform="matrix(11,0,0,11,480.8,187.8)" />
<use xlink:href="#f1_g" transform="matrix(12,0,0,12,648.1,189.1)" />
<use xlink:href="#f1_2" transform="matrix(12,0,0,12,653.9,189.1)" />
<use xlink:href="#f1_a" transform="matrix(12,0,0,12,665.8,189.1)" />
<use xlink:href="#f1_p" transform="matrix(12,0,0,12,677.9,189.1)" />
<use xlink:href="#f1_4" transform="matrix(12,0,0,12,690.7,189.1)" />
<use xlink:href="#f1_8" transform="matrix(12,0,0,12,701.7,189.1)" />
<use xlink:href="#f1_5" transform="matrix(12,0,0,12,713.9,189.1)" />
<use xlink:href="#f1_l" transform="matrix(12,0,0,12,724.7,189.1)" />
<use xlink:href="#f1_8" transform="matrix(12,0,0,12,734.7,189.1)" />
<use xlink:href="#f1_4" transform="matrix(12,0,0,12,746.9,189.1)" />
<use xlink:href="#f1_2" transform="matrix(12,0,0,12,751.9,189.1)" />
<use xlink:href="#f0_4" transform="matrix(11,0,0,11,376,209.2)" />
<use xlink:href="#f0_k" transform="matrix(11,0,0,11,386.2,209.2)" />
<use xlink:href="#f0_k" transform="matrix(11,0,0,11,390.8,209.2)" />
<use xlink:href="#f0_n" transform="matrix(11,0,0,11,395.5,209.2)" />
<use xlink:href="#f0_b" transform="matrix(11,0,0,11,403,209.2)" />
<use xlink:href="#f0_b" transform="matrix(11,0,0,11,413.7,209.2)" />
<use xlink:href="#f0_n" transform="matrix(11,0,0,11,420.2,209.2)" />
<use xlink:href="#f0_k" transform="matrix(11,0,0,11,427.7,209.2)" />
<use xlink:href="#f0_t" transform="matrix(11,0,0,11,432.3,209.2)" />
<use xlink:href="#f0_m" transform="matrix(11,0,0,11,437,209.2)" />
<use xlink:href="#f0_a" transform="matrix(11,0,0,11,444.5,209.2)" />
<use xlink:href="#f0_7" transform="matrix(11,0,0,11,450.1,209.2)" />
<use xlink:href="#f0_r" transform="matrix(11,0,0,11,458.5,209.2)" />
<use xlink:href="#f0_e" transform="matrix(11,0,0,11,471,209.2)" />
<use xlink:href="#f0_d" transform="matrix(11,0,0,11,483.7,209.2)" />
<use xlink:href="#f0_m" transform="matrix(11,0,0,11,491.9,209.2)" />
<use xlink:href="#f0_d" transform="matrix(11,0,0,11,499.4,209.2)" />
<use xlink:href="#f0_t" transform="matrix(11,0,0,11,507.8,209.2)" />
<use xlink:href="#f0_m" transform="matrix(11,0,0,11,512.5,209.2)" />
<use xlink:href="#f0_a" transform="matrix(11,0,0,11,520,209.2)" />
<use xlink:href="#f0_7" transform="matrix(11,0,0,11,525.6,209.2)" />
<use xlink:href="#f0_r" transform="matrix(11,0,0,11,534,209.2)" />
<use xlink:href="#f0_q" transform="matrix(11,0,0,11,542.3,209.2)" />
<use xlink:href="#f1_g" transform="matrix(12,0,0,12,662.3,210.5)" />
<use xlink:href="#f1_4" transform="matrix(12,0,0,12,668.1,210.5)" />
<use xlink:href="#f1_a" transform="matrix(12,0,0,12,673,210.5)" />
<use xlink:href="#f1_p" transform="matrix(12,0,0,12,685,210.5)" />
<use xlink:href="#f1_4" transform="matrix(12,0,0,12,698,210.5)" />
<use xlink:href="#f1_4" transform="matrix(12,0,0,12,708.9,210.5)" />
<use xlink:href="#f1_8" transform="matrix(12,0,0,12,713.9,210.5)" />
<use xlink:href="#f1_5" transform="matrix(12,0,0,12,726.1,210.5)" />
<use xlink:href="#f1_l" transform="matrix(12,0,0,12,737,210.5)" />
<use xlink:href="#f1_i" transform="matrix(12,0,0,12,746.9,210.5)" />
<use xlink:href="#f1_2" transform="matrix(12,0,0,12,751.9,210.5)" />
<use xlink:href="#f0_1k" transform="matrix(11,0,0,11,376,230.5)" />
<use xlink:href="#f0_7" transform="matrix(11,0,0,11,388.1,230.5)" />
<use xlink:href="#f0_b" transform="matrix(11,0,0,11,396.5,230.5)" />
<use xlink:href="#f0_7" transform="matrix(11,0,0,11,403,230.5)" />
<use xlink:href="#f0_f" transform="matrix(11,0,0,11,411.4,230.5)" />
<use xlink:href="#f0_a" transform="matrix(11,0,0,11,416,230.5)" />
<use xlink:href="#f0_7" transform="matrix(11,0,0,11,421.6,230.5)" />
<use xlink:href="#f0_b" transform="matrix(11,0,0,11,430,230.5)" />
<use xlink:href="#f0_b" transform="matrix(11,0,0,11,440.9,230.5)" />
<use xlink:href="#f0_n" transform="matrix(11,0,0,11,447.3,230.5)" />
<use xlink:href="#f0_k" transform="matrix(11,0,0,11,454.7,230.5)" />
<use xlink:href="#f0_t" transform="matrix(11,0,0,11,459.3,230.5)" />
<use xlink:href="#f0_8" transform="matrix(11,0,0,11,464,230.5)" />
<use xlink:href="#f0_7" transform="matrix(11,0,0,11,477.2,230.5)" />
<use xlink:href="#f0_b" transform="matrix(11,0,0,11,485.6,230.5)" />
<use xlink:href="#f0_e" transform="matrix(11,0,0,11,496.2,230.5)" />
<use xlink:href="#f0_d" transform="matrix(11,0,0,11,508.9,230.5)" />
<use xlink:href="#f0_m" transform="matrix(11,0,0,11,517.3,230.5)" />
<use xlink:href="#f0_d" transform="matrix(11,0,0,11,524.8,230.5)" />
<use xlink:href="#f0_t" transform="matrix(11,0,0,11,533,230.5)" />
<use xlink:href="#f0_8" transform="matrix(11,0,0,11,537.8,230.5)" />
<use xlink:href="#f0_7" transform="matrix(11,0,0,11,550.9,230.5)" />
<use xlink:href="#f0_b" transform="matrix(11,0,0,11,559.3,230.5)" />
<use xlink:href="#f0_q" transform="matrix(11,0,0,11,565.7,230.5)" />
<use xlink:href="#f1_4" transform="matrix(12,0,0,12,624.9,231.9)" />
<use xlink:href="#f1_n" transform="matrix(12,0,0,12,629.9,231.9)" />
<use xlink:href="#f1_8" transform="matrix(12,0,0,12,637.2,231.9)" />
<use xlink:href="#f1_5" transform="matrix(12,0,0,12,649.4,231.9)" />
<use xlink:href="#f1_l" transform="matrix(12,0,0,12,660.3,231.9)" />
<use xlink:href="#f1_4" transform="matrix(12,0,0,12,720,231.9)" />
<use xlink:href="#f1_n" transform="matrix(12,0,0,12,725,231.9)" />
<use xlink:href="#f1_q" transform="matrix(12,0,0,12,732.3,231.9)" />
<use xlink:href="#f1_n" transform="matrix(12,0,0,12,744.3,231.9)" />
<use xlink:href="#f1_8" transform="matrix(12,0,0,12,751.6,231.9)" />
<use xlink:href="#f1_g" transform="matrix(12,0,0,12,711.6,253.3)" />
<use xlink:href="#f1_4" transform="matrix(12,0,0,12,717.5,253.3)" />
<use xlink:href="#f1_n" transform="matrix(12,0,0,12,722.5,253.3)" />
<use xlink:href="#f1_l" transform="matrix(12,0,0,12,729.8,253.3)" />
<use xlink:href="#f1_a" transform="matrix(12,0,0,12,733.9,253.3)" />
<use xlink:href="#f1_p" transform="matrix(12,0,0,12,746,253.3)" />
<use xlink:href="#f1_4" transform="matrix(12,0,0,12,758.8,253.3)" />
</g>
<g fill="#0000FF" >
<use xlink:href="#f1_d" transform="matrix(12,0,0,12,669.9,294.1)" />
<use xlink:href="#f1_3" transform="matrix(12,0,0,12,682.9,294.1)" />
<use xlink:href="#f1_e" transform="matrix(12,0,0,12,693.1,294.1)" />
<use xlink:href="#f1_b" transform="matrix(12,0,0,12,704.6,294.1)" />
<use xlink:href="#f1_2" transform="matrix(12,0,0,12,720.9,294.1)" />
<use xlink:href="#f1_3" transform="matrix(12,0,0,12,732.8,294.1)" />
<use xlink:href="#f1_k" transform="matrix(12,0,0,12,743.2,294.1)" />
<use xlink:href="#f1_q" transform="matrix(12,0,0,12,749.6,294.1)" />
<use xlink:href="#f1_6" transform="matrix(12,0,0,12,761.5,294.1)" />
</g>
</g>
<path d="M669.8,295.9H772.1" class="g1_12" />
<g clip-path="url(#c0_12)">
<g fill="#000000" >
<use xlink:href="#f2_2" transform="matrix(13,0,0,13,137.7,394.3)" />
<use xlink:href="#f2_3" transform="matrix(13,0,0,13,152.8,394.3)" />
<use xlink:href="#f2_4" transform="matrix(13,0,0,13,160,394.3)" />
<use xlink:href="#f2_a" transform="matrix(13,0,0,13,172.6,394.3)" />
<use xlink:href="#f2_b" transform="matrix(13,0,0,13,183,394.3)" />
<use xlink:href="#f2_c" transform="matrix(13,0,0,13,195.1,394.3)" />
<use xlink:href="#f2_b" transform="matrix(13,0,0,13,202.6,394.3)" />
<use xlink:href="#f2_c" transform="matrix(13,0,0,13,214.6,394.3)" />
<use xlink:href="#f2_8" transform="matrix(13,0,0,13,222.1,394.3)" />
<use xlink:href="#f2_i" transform="matrix(13,0,0,13,242.6,394.3)" />
<use xlink:href="#f2_g" transform="matrix(13,0,0,13,263.2,394.3)" />
</g>
</g>
<path d="M63.9,418.8H664.2M63.9,438.9H664.2M63.9,482.4H772.4M63.9,502.6H772.4m-708.5,20H772.4M63.9,542.7H772.4M63.9,562.8H772.4M63.9,582.9H772.4M64.3,418.5V583.3M241.4,418.5v20.7m0,42.8V583.3m.1,-144.8v44.3M436.3,418.5V583.3M663.8,418.5V583.3M772,482V583.3" class="g2_12" />
<g clip-path="url(#c0_12)">
<g fill="#000000" >
<use xlink:href="#f0_2" transform="matrix(11,0,0,11,538.5,434.8)" />
<use xlink:href="#f0_3" transform="matrix(11,0,0,11,550.6,434.8)" />
<use xlink:href="#f0_4" transform="matrix(11,0,0,11,328.3,434.8)" />
<use xlink:href="#f0_3" transform="matrix(11,0,0,11,338.6,434.8)" />
<use xlink:href="#f0_5" transform="matrix(11,0,0,11,144.5,434.8)" />
<use xlink:href="#f0_3" transform="matrix(11,0,0,11,150.2,434.8)" />
<use xlink:href="#f0_a" transform="matrix(11,0,0,11,553.4,455)" />
<use xlink:href="#f0_m" transform="matrix(11,0,0,11,559,455)" />
<use xlink:href="#f0_b" transform="matrix(11,0,0,11,566.5,455)" />
<use xlink:href="#f0_9" transform="matrix(11,0,0,11,573,455)" />
<use xlink:href="#f0_t" transform="matrix(11,0,0,11,581.3,455)" />
<use xlink:href="#f0_a" transform="matrix(11,0,0,11,586,455)" />
<use xlink:href="#f0_n" transform="matrix(11,0,0,11,591.6,455)" />
<use xlink:href="#f0_a" transform="matrix(11,0,0,11,598.9,455)" />
<use xlink:href="#f1_f" transform="matrix(12,0,0,12,488.4,456.3)" />
<use xlink:href="#f1_4" transform="matrix(12,0,0,12,500.6,456.3)" />
<use xlink:href="#f1_p" transform="matrix(12,0,0,12,505.7,456.3)" />
<use xlink:href="#f1_n" transform="matrix(12,0,0,12,518.6,456.3)" />
<use xlink:href="#f1_b" transform="matrix(12,0,0,12,526,456.3)" />
<use xlink:href="#f0_a" transform="matrix(11,0,0,11,347.7,455)" />
<use xlink:href="#f0_m" transform="matrix(11,0,0,11,353.2,455)" />
<use xlink:href="#f0_b" transform="matrix(11,0,0,11,360.7,455)" />
<use xlink:href="#f0_9" transform="matrix(11,0,0,11,367.2,455)" />
<use xlink:href="#f0_7" transform="matrix(11,0,0,11,375.6,455)" />
<use xlink:href="#f0_r" transform="matrix(11,0,0,11,384,455)" />
<use xlink:href="#f0_p" transform="matrix(11,0,0,11,392.4,455)" />
<use xlink:href="#f0_m" transform="matrix(11,0,0,11,400.8,455)" />
<use xlink:href="#f0_a" transform="matrix(11,0,0,11,408.3,455)" />
<use xlink:href="#f1_15" transform="matrix(12,0,0,12,280.2,456.3)" />
<use xlink:href="#f1_6" transform="matrix(12,0,0,12,286.3,456.3)" />
<use xlink:href="#f1_l" transform="matrix(12,0,0,12,296.8,456.3)" />
<use xlink:href="#f1_o" transform="matrix(12,0,0,12,300.9,456.3)" />
<use xlink:href="#f1_2" transform="matrix(12,0,0,12,308.4,456.3)" />
<use xlink:href="#f1_b" transform="matrix(12,0,0,12,320.3,456.3)" />
<use xlink:href="#f1_a" transform="matrix(12,0,0,12,284.5,477.7)" />
<use xlink:href="#f1_4" transform="matrix(12,0,0,12,296.5,477.7)" />
<use xlink:href="#f1_n" transform="matrix(12,0,0,12,301.5,477.7)" />
<use xlink:href="#f1_h" transform="matrix(12,0,0,12,308.9,477.7)" />
<use xlink:href="#f1_b" transform="matrix(12,0,0,12,320.3,477.7)" />
<use xlink:href="#f0_6" transform="matrix(11,0,0,11,163.6,455)" />
<use xlink:href="#f0_c" transform="matrix(11,0,0,11,171.1,455)" />
<use xlink:href="#f0_d" transform="matrix(11,0,0,11,179.5,455)" />
<use xlink:href="#f0_a" transform="matrix(11,0,0,11,187.7,455)" />
<use xlink:href="#f0_t" transform="matrix(11,0,0,11,193.4,455)" />
<use xlink:href="#f0_a" transform="matrix(11,0,0,11,198.1,455)" />
<use xlink:href="#f1_a" transform="matrix(12,0,0,12,97.6,456.3)" />
<use xlink:href="#f1_4" transform="matrix(12,0,0,12,109.7,456.3)" />
<use xlink:href="#f1_t" transform="matrix(12,0,0,12,114.7,456.3)" />
<use xlink:href="#f1_c" transform="matrix(12,0,0,12,126.6,456.3)" />
<use xlink:href="#f1_b" transform="matrix(12,0,0,12,136.2,456.3)" />
<use xlink:href="#f0_e" transform="matrix(11,0,0,11,672.5,498.5)" />
<use xlink:href="#f0_7" transform="matrix(11,0,0,11,680.9,498.5)" />
<use xlink:href="#f0_a" transform="matrix(11,0,0,11,445.2,498.5)" />
<use xlink:href="#f0_m" transform="matrix(11,0,0,11,450.7,498.5)" />
<use xlink:href="#f0_b" transform="matrix(11,0,0,11,458.2,498.5)" />
<use xlink:href="#f0_9" transform="matrix(11,0,0,11,464.7,498.5)" />
<use xlink:href="#f0_t" transform="matrix(11,0,0,11,473.1,498.5)" />
<use xlink:href="#f0_a" transform="matrix(11,0,0,11,477.7,498.5)" />
<use xlink:href="#f0_i" transform="matrix(11,0,0,11,483.3,498.5)" />
<use xlink:href="#f0_a" transform="matrix(11,0,0,11,250.3,498.5)" />
<use xlink:href="#f0_m" transform="matrix(11,0,0,11,255.7,498.5)" />
<use xlink:href="#f0_b" transform="matrix(11,0,0,11,263.2,498.5)" />
<use xlink:href="#f0_9" transform="matrix(11,0,0,11,269.8,498.5)" />
<use xlink:href="#f0_7" transform="matrix(11,0,0,11,278.2,498.5)" />
<use xlink:href="#f0_r" transform="matrix(11,0,0,11,286.6,498.5)" />
<use xlink:href="#f0_p" transform="matrix(11,0,0,11,295,498.5)" />
<use xlink:href="#f0_x" transform="matrix(11,0,0,11,303.4,498.5)" />
<use xlink:href="#f0_6" transform="matrix(11,0,0,11,73,498.5)" />
<use xlink:href="#f0_c" transform="matrix(11,0,0,11,80.5,498.5)" />
<use xlink:href="#f0_d" transform="matrix(11,0,0,11,88.9,498.5)" />
<use xlink:href="#f0_a" transform="matrix(11,0,0,11,97.3,498.5)" />
<use xlink:href="#f0_x" transform="matrix(11,0,0,11,102.8,498.5)" />
<use xlink:href="#f0_f" transform="matrix(11,0,0,11,672.5,518.5)" />
<use xlink:href="#f0_g" transform="matrix(11,0,0,11,677.3,518.5)" />
<use xlink:href="#f0_a" transform="matrix(11,0,0,11,445.2,518.5)" />
<use xlink:href="#f0_m" transform="matrix(11,0,0,11,450.7,518.5)" />
<use xlink:href="#f0_b" transform="matrix(11,0,0,11,458.2,518.5)" />
<use xlink:href="#f0_9" transform="matrix(11,0,0,11,464.7,518.5)" />
<use xlink:href="#f0_t" transform="matrix(11,0,0,11,473.1,518.5)" />
<use xlink:href="#f0_a" transform="matrix(11,0,0,11,477.7,518.5)" />
<use xlink:href="#f0_n" transform="matrix(11,0,0,11,483.3,518.5)" />
<use xlink:href="#f0_b" transform="matrix(11,0,0,11,490.8,518.5)" />
<use xlink:href="#f0_f" transform="matrix(11,0,0,11,497.3,518.5)" />
<use xlink:href="#f0_m" transform="matrix(11,0,0,11,501.9,518.5)" />
<use xlink:href="#f0_a" transform="matrix(11,0,0,11,250.3,518.5)" />
<use xlink:href="#f0_m" transform="matrix(11,0,0,11,255.7,518.5)" />
<use xlink:href="#f0_b" transform="matrix(11,0,0,11,263.2,518.5)" />
<use xlink:href="#f0_9" transform="matrix(11,0,0,11,269.8,518.5)" />
<use xlink:href="#f0_7" transform="matrix(11,0,0,11,278.2,518.5)" />
<use xlink:href="#f0_r" transform="matrix(11,0,0,11,286.6,518.5)" />
<use xlink:href="#f0_p" transform="matrix(11,0,0,11,295,518.5)" />
<use xlink:href="#f0_t" transform="matrix(11,0,0,11,303.4,518.5)" />
<use xlink:href="#f0_b" transform="matrix(11,0,0,11,308.1,518.5)" />
<use xlink:href="#f0_f" transform="matrix(11,0,0,11,314.5,518.5)" />
<use xlink:href="#f0_m" transform="matrix(11,0,0,11,319.2,518.5)" />
<use xlink:href="#f0_6" transform="matrix(11,0,0,11,73,518.5)" />
<use xlink:href="#f0_c" transform="matrix(11,0,0,11,80.5,518.5)" />
<use xlink:href="#f0_d" transform="matrix(11,0,0,11,88.9,518.5)" />
<use xlink:href="#f0_a" transform="matrix(11,0,0,11,97.3,518.5)" />
<use xlink:href="#f0_t" transform="matrix(11,0,0,11,102.8,518.5)" />
<use xlink:href="#f0_b" transform="matrix(11,0,0,11,107.5,518.5)" />
<use xlink:href="#f0_f" transform="matrix(11,0,0,11,114.1,518.5)" />
<use xlink:href="#f0_m" transform="matrix(11,0,0,11,118.8,518.5)" />
<use xlink:href="#f0_i" transform="matrix(11,0,0,11,672.5,538.7)" />
<use xlink:href="#f0_k" transform="matrix(11,0,0,11,680,538.7)" />
<use xlink:href="#f0_l" transform="matrix(11,0,0,11,684.6,538.7)" />
<use xlink:href="#f0_m" transform="matrix(11,0,0,11,689.3,538.7)" />
<use xlink:href="#f0_k" transform="matrix(11,0,0,11,696.8,538.7)" />
<use xlink:href="#f0_k" transform="matrix(11,0,0,11,701.3,538.7)" />
<use xlink:href="#f0_n" transform="matrix(11,0,0,11,706.1,538.7)" />
<use xlink:href="#f0_l" transform="matrix(11,0,0,11,713.5,538.7)" />
<use xlink:href="#f0_o" transform="matrix(11,0,0,11,718.3,538.7)" />
<use xlink:href="#f0_p" transform="matrix(11,0,0,11,730.3,538.7)" />
<use xlink:href="#f0_q" transform="matrix(11,0,0,11,738.7,538.7)" />
<use xlink:href="#f0_a" transform="matrix(11,0,0,11,445.2,538.7)" />
<use xlink:href="#f0_m" transform="matrix(11,0,0,11,450.7,538.7)" />
<use xlink:href="#f0_b" transform="matrix(11,0,0,11,458.2,538.7)" />
<use xlink:href="#f0_9" transform="matrix(11,0,0,11,464.7,538.7)" />
<use xlink:href="#f0_t" transform="matrix(11,0,0,11,473.1,538.7)" />
<use xlink:href="#f0_a" transform="matrix(11,0,0,11,477.7,538.7)" />
<use xlink:href="#f0_w" transform="matrix(11,0,0,11,483.3,538.7)" />
<use xlink:href="#f0_a" transform="matrix(11,0,0,11,250.3,538.7)" />
<use xlink:href="#f0_m" transform="matrix(11,0,0,11,255.7,538.7)" />
<use xlink:href="#f0_b" transform="matrix(11,0,0,11,263.2,538.7)" />
<use xlink:href="#f0_9" transform="matrix(11,0,0,11,269.8,538.7)" />
<use xlink:href="#f0_7" transform="matrix(11,0,0,11,278.2,538.7)" />
<use xlink:href="#f0_r" transform="matrix(11,0,0,11,286.6,538.7)" />
<use xlink:href="#f0_p" transform="matrix(11,0,0,11,295,538.7)" />
<use xlink:href="#f0_t" transform="matrix(11,0,0,11,303.4,538.7)" />
<use xlink:href="#f0_w" transform="matrix(11,0,0,11,308.1,538.7)" />
<use xlink:href="#f0_6" transform="matrix(11,0,0,11,73,538.7)" />
<use xlink:href="#f0_c" transform="matrix(11,0,0,11,80.5,538.7)" />
<use xlink:href="#f0_d" transform="matrix(11,0,0,11,88.9,538.7)" />
<use xlink:href="#f0_a" transform="matrix(11,0,0,11,97.3,538.7)" />
<use xlink:href="#f0_t" transform="matrix(11,0,0,11,102.8,538.7)" />
<use xlink:href="#f0_w" transform="matrix(11,0,0,11,107.5,538.7)" />
<use xlink:href="#f0_r" transform="matrix(11,0,0,11,672.5,558.7)" />
<use xlink:href="#f0_7" transform="matrix(11,0,0,11,680.9,558.7)" />
<use xlink:href="#f0_b" transform="matrix(11,0,0,11,689.3,558.7)" />
<use xlink:href="#f0_7" transform="matrix(11,0,0,11,695.9,558.7)" />
<use xlink:href="#f0_f" transform="matrix(11,0,0,11,704.3,558.7)" />
<use xlink:href="#f0_a" transform="matrix(11,0,0,11,708.9,558.7)" />
<use xlink:href="#f0_7" transform="matrix(11,0,0,11,714.5,558.7)" />
<use xlink:href="#f0_b" transform="matrix(11,0,0,11,722.9,558.7)" />
<use xlink:href="#f0_l" transform="matrix(11,0,0,11,729.5,558.7)" />
<use xlink:href="#f0_n" transform="matrix(11,0,0,11,734.2,558.7)" />
<use xlink:href="#f0_b" transform="matrix(11,0,0,11,741.5,558.7)" />
<use xlink:href="#f0_a" transform="matrix(11,0,0,11,445.2,558.7)" />
<use xlink:href="#f0_m" transform="matrix(11,0,0,11,450.7,558.7)" />
<use xlink:href="#f0_b" transform="matrix(11,0,0,11,458.2,558.7)" />
<use xlink:href="#f0_9" transform="matrix(11,0,0,11,464.7,558.7)" />
<use xlink:href="#f0_t" transform="matrix(11,0,0,11,473.1,558.7)" />
<use xlink:href="#f0_a" transform="matrix(11,0,0,11,477.7,558.7)" />
<use xlink:href="#f0_n" transform="matrix(11,0,0,11,483.3,558.7)" />
<use xlink:href="#f0_8" transform="matrix(11,0,0,11,490.8,558.7)" />
<use xlink:href="#f0_7" transform="matrix(11,0,0,11,503.9,558.7)" />
<use xlink:href="#f0_b" transform="matrix(11,0,0,11,512.3,558.7)" />
<use xlink:href="#f0_a" transform="matrix(11,0,0,11,250.3,558.7)" />
<use xlink:href="#f0_m" transform="matrix(11,0,0,11,255.7,558.7)" />
<use xlink:href="#f0_b" transform="matrix(11,0,0,11,263.2,558.7)" />
<use xlink:href="#f0_9" transform="matrix(11,0,0,11,269.8,558.7)" />
<use xlink:href="#f0_7" transform="matrix(11,0,0,11,278.2,558.7)" />
<use xlink:href="#f0_r" transform="matrix(11,0,0,11,286.6,558.7)" />
<use xlink:href="#f0_p" transform="matrix(11,0,0,11,295,558.7)" />
<use xlink:href="#f0_t" transform="matrix(11,0,0,11,303.4,558.7)" />
<use xlink:href="#f0_8" transform="matrix(11,0,0,11,308,558.7)" />
<use xlink:href="#f0_7" transform="matrix(11,0,0,11,321.1,558.7)" />
<use xlink:href="#f0_b" transform="matrix(11,0,0,11,329.5,558.7)" />
<use xlink:href="#f0_6" transform="matrix(11,0,0,11,73,558.7)" />
<use xlink:href="#f0_c" transform="matrix(11,0,0,11,80.5,558.7)" />
<use xlink:href="#f0_d" transform="matrix(11,0,0,11,88.9,558.7)" />
<use xlink:href="#f0_a" transform="matrix(11,0,0,11,97.3,558.7)" />
<use xlink:href="#f0_t" transform="matrix(11,0,0,11,102.8,558.7)" />
<use xlink:href="#f0_8" transform="matrix(11,0,0,11,107.5,558.7)" />
<use xlink:href="#f0_7" transform="matrix(11,0,0,11,120.6,558.7)" />
<use xlink:href="#f0_b" transform="matrix(11,0,0,11,129,558.7)" />
<use xlink:href="#f0_m" transform="matrix(11,0,0,11,672.5,578.9)" />
<use xlink:href="#f0_k" transform="matrix(11,0,0,11,680,578.9)" />
<use xlink:href="#f0_k" transform="matrix(11,0,0,11,684.6,578.9)" />
<use xlink:href="#f0_7" transform="matrix(11,0,0,11,689.3,578.9)" />
<use xlink:href="#f0_b" transform="matrix(11,0,0,11,697.7,578.9)" />
<use xlink:href="#f0_l" transform="matrix(11,0,0,11,704.3,578.9)" />
<use xlink:href="#f0_n" transform="matrix(11,0,0,11,709,578.9)" />
<use xlink:href="#f0_b" transform="matrix(11,0,0,11,716.3,578.9)" />
<use xlink:href="#f0_l" transform="matrix(11,0,0,11,722.9,578.9)" />
<use xlink:href="#f0_o" transform="matrix(11,0,0,11,727.6,578.9)" />
<use xlink:href="#f0_p" transform="matrix(11,0,0,11,739.6,578.9)" />
<use xlink:href="#f0_b" transform="matrix(11,0,0,11,748.1,578.9)" />
<use xlink:href="#f0_q" transform="matrix(11,0,0,11,754.6,578.9)" />
<use xlink:href="#f0_a" transform="matrix(11,0,0,11,445.2,578.9)" />
<use xlink:href="#f0_m" transform="matrix(11,0,0,11,450.7,578.9)" />
<use xlink:href="#f0_b" transform="matrix(11,0,0,11,458.2,578.9)" />
<use xlink:href="#f0_9" transform="matrix(11,0,0,11,464.7,578.9)" />
<use xlink:href="#f0_t" transform="matrix(11,0,0,11,473.1,578.9)" />
<use xlink:href="#f0_a" transform="matrix(11,0,0,11,477.7,578.9)" />
<use xlink:href="#f0_n" transform="matrix(11,0,0,11,483.3,578.9)" />
<use xlink:href="#f0_a" transform="matrix(11,0,0,11,490.8,578.9)" />
<use xlink:href="#f0_7" transform="matrix(11,0,0,11,496.4,578.9)" />
<use xlink:href="#f0_r" transform="matrix(11,0,0,11,504.8,578.9)" />
<use xlink:href="#f0_a" transform="matrix(11,0,0,11,250.3,578.9)" />
<use xlink:href="#f0_m" transform="matrix(11,0,0,11,255.7,578.9)" />
<use xlink:href="#f0_b" transform="matrix(11,0,0,11,263.2,578.9)" />
<use xlink:href="#f0_9" transform="matrix(11,0,0,11,269.8,578.9)" />
<use xlink:href="#f0_7" transform="matrix(11,0,0,11,278.2,578.9)" />
<use xlink:href="#f0_r" transform="matrix(11,0,0,11,286.6,578.9)" />
<use xlink:href="#f0_p" transform="matrix(11,0,0,11,295,578.9)" />
<use xlink:href="#f0_t" transform="matrix(11,0,0,11,303.4,578.9)" />
<use xlink:href="#f0_m" transform="matrix(11,0,0,11,308.1,578.9)" />
<use xlink:href="#f0_a" transform="matrix(11,0,0,11,315.4,578.9)" />
<use xlink:href="#f0_7" transform="matrix(11,0,0,11,321.1,578.9)" />
<use xlink:href="#f0_r" transform="matrix(11,0,0,11,329.5,578.9)" />
<use xlink:href="#f0_6" transform="matrix(11,0,0,11,73,578.9)" />
<use xlink:href="#f0_c" transform="matrix(11,0,0,11,80.5,578.9)" />
<use xlink:href="#f0_d" transform="matrix(11,0,0,11,88.9,578.9)" />
<use xlink:href="#f0_a" transform="matrix(11,0,0,11,97.3,578.9)" />
<use xlink:href="#f0_t" transform="matrix(11,0,0,11,102.8,578.9)" />
<use xlink:href="#f0_m" transform="matrix(11,0,0,11,107.5,578.9)" />
<use xlink:href="#f0_a" transform="matrix(11,0,0,11,115,578.9)" />
<use xlink:href="#f0_7" transform="matrix(11,0,0,11,120.6,578.9)" />
<use xlink:href="#f0_r" transform="matrix(11,0,0,11,129,578.9)" />
</g>
<g fill="#0000FF" >
<use xlink:href="#f1_d" transform="matrix(12,0,0,12,669.9,600.3)" />
<use xlink:href="#f1_3" transform="matrix(12,0,0,12,682.9,600.3)" />
<use xlink:href="#f1_e" transform="matrix(12,0,0,12,693.1,600.3)" />
<use xlink:href="#f1_b" transform="matrix(12,0,0,12,704.6,600.3)" />
<use xlink:href="#f1_2" transform="matrix(12,0,0,12,720.9,600.3)" />
<use xlink:href="#f1_3" transform="matrix(12,0,0,12,732.8,600.3)" />
<use xlink:href="#f1_k" transform="matrix(12,0,0,12,743.2,600.3)" />
<use xlink:href="#f1_q" transform="matrix(12,0,0,12,749.6,600.3)" />
<use xlink:href="#f1_6" transform="matrix(12,0,0,12,761.5,600.3)" />
</g>
</g>
<path d="M669.8,602.1H772.1" class="g1_12" />
<g clip-path="url(#c0_12)">
<g fill="#000000" >
<use xlink:href="#f2_2" transform="matrix(13,0,0,13,137.7,623.3)" />
<use xlink:href="#f2_3" transform="matrix(13,0,0,13,152.8,623.3)" />
<use xlink:href="#f2_4" transform="matrix(13,0,0,13,160,623.3)" />
<use xlink:href="#f2_a" transform="matrix(13,0,0,13,172.6,623.3)" />
<use xlink:href="#f2_b" transform="matrix(13,0,0,13,183,623.3)" />
<use xlink:href="#f2_c" transform="matrix(13,0,0,13,195.1,623.3)" />
<use xlink:href="#f2_b" transform="matrix(13,0,0,13,202.6,623.3)" />
<use xlink:href="#f2_c" transform="matrix(13,0,0,13,214.6,623.3)" />
<use xlink:href="#f2_8" transform="matrix(13,0,0,13,222.1,623.3)" />
<use xlink:href="#f2_j" transform="matrix(13,0,0,13,242.6,623.3)" />
<use xlink:href="#f2_g" transform="matrix(13,0,0,13,263.2,623.3)" />
<use xlink:href="#f3_8" transform="matrix(12,0,0,12,667.3,683.7)" />
<use xlink:href="#f3_5" transform="matrix(12,0,0,12,679.8,683.7)" />
<use xlink:href="#f3_c" transform="matrix(12,0,0,12,691.9,683.7)" />
<use xlink:href="#f3_9" transform="matrix(12,0,0,12,704.4,683.7)" />
<use xlink:href="#f3_e" transform="matrix(12,0,0,12,710.6,683.7)" />
<use xlink:href="#f3_b" transform="matrix(12,0,0,12,729.6,683.7)" />
<use xlink:href="#f3_v" transform="matrix(12,0,0,12,734.9,683.7)" />
<use xlink:href="#f3_b" transform="matrix(12,0,0,12,743.2,683.7)" />
<use xlink:href="#f3_4" transform="matrix(12,0,0,12,748.5,683.7)" />
<use xlink:href="#f3_r" transform="matrix(12,0,0,12,759.5,683.7)" />
<use xlink:href="#f4_18" transform="matrix(11,0,0,11,652.2,683.7)" />
</g>
</g>
<path d="M161.6,688.5H664.2m-502.6,20H772.4M161.6,728.7H772.4m-610.8,20H772.4M161.6,768.9H772.4m-610.8,20H772.4M161.6,809H772.4M161.9,688.1V809.4M287.4,688.1V809.4M403.9,688.1V809.4M538.4,688.1V809.4M663.8,688.1V809.4M772,708.1V809.4" class="g2_12" />
<g clip-path="url(#c0_12)">
<g fill="#000000" >
<use xlink:href="#f0_p" transform="matrix(11,0,0,11,547.1,704.5)" />
<use xlink:href="#f0_m" transform="matrix(11,0,0,11,555.5,704.5)" />
<use xlink:href="#f0_6" transform="matrix(11,0,0,11,563,704.5)" />
<use xlink:href="#f0_t" transform="matrix(11,0,0,11,570.4,704.5)" />
<use xlink:href="#f0_a" transform="matrix(11,0,0,11,575,704.5)" />
<use xlink:href="#f0_6" transform="matrix(11,0,0,11,412.8,704.5)" />
<use xlink:href="#f0_7" transform="matrix(11,0,0,11,420.3,704.5)" />
<use xlink:href="#f0_r" transform="matrix(11,0,0,11,428.7,704.5)" />
<use xlink:href="#f0_p" transform="matrix(11,0,0,11,437.1,704.5)" />
<use xlink:href="#f0_c" transform="matrix(11,0,0,11,445.5,704.5)" />
<use xlink:href="#f0_6" transform="matrix(11,0,0,11,453.7,704.5)" />
<use xlink:href="#f0_t" transform="matrix(11,0,0,11,461.2,704.5)" />
<use xlink:href="#f0_a" transform="matrix(11,0,0,11,465.9,704.5)" />
<use xlink:href="#f0_m" transform="matrix(11,0,0,11,296.2,704.5)" />
<use xlink:href="#f0_b" transform="matrix(11,0,0,11,303.6,704.5)" />
<use xlink:href="#f0_f" transform="matrix(11,0,0,11,310.1,704.5)" />
<use xlink:href="#f0_n" transform="matrix(11,0,0,11,314.8,704.5)" />
<use xlink:href="#f0_a" transform="matrix(11,0,0,11,322.3,704.5)" />
<use xlink:href="#f0_9" transform="matrix(11,0,0,11,170.7,704.5)" />
<use xlink:href="#f0_7" transform="matrix(11,0,0,11,179.1,704.5)" />
<use xlink:href="#f0_r" transform="matrix(11,0,0,11,187.5,704.5)" />
<use xlink:href="#f0_m" transform="matrix(11,0,0,11,195.9,704.5)" />
<use xlink:href="#f0_a" transform="matrix(11,0,0,11,203.3,704.5)" />
<use xlink:href="#f0_e" transform="matrix(11,0,0,11,672.7,724.6)" />
<use xlink:href="#f0_7" transform="matrix(11,0,0,11,681.1,724.6)" />
<use xlink:href="#f0_p" transform="matrix(11,0,0,11,547.1,724.6)" />
<use xlink:href="#f0_t" transform="matrix(11,0,0,11,555.5,724.6)" />
<use xlink:href="#f0_1a" transform="matrix(11,0,0,11,560.1,724.6)" />
<use xlink:href="#f0_m" transform="matrix(11,0,0,11,564.8,724.6)" />
<use xlink:href="#f0_6" transform="matrix(11,0,0,11,412.8,724.6)" />
<use xlink:href="#f0_7" transform="matrix(11,0,0,11,420.3,724.6)" />
<use xlink:href="#f0_r" transform="matrix(11,0,0,11,428.7,724.6)" />
<use xlink:href="#f0_p" transform="matrix(11,0,0,11,437.1,724.6)" />
<use xlink:href="#f0_c" transform="matrix(11,0,0,11,445.5,724.6)" />
<use xlink:href="#f0_1a" transform="matrix(11,0,0,11,453.7,724.6)" />
<use xlink:href="#f0_m" transform="matrix(11,0,0,11,458.4,724.6)" />
<use xlink:href="#f0_m" transform="matrix(11,0,0,11,296.2,724.6)" />
<use xlink:href="#f0_b" transform="matrix(11,0,0,11,303.6,724.6)" />
<use xlink:href="#f0_f" transform="matrix(11,0,0,11,310.1,724.6)" />
<use xlink:href="#f0_c" transform="matrix(11,0,0,11,314.8,724.6)" />
<use xlink:href="#f0_s" transform="matrix(11,0,0,11,323.2,724.6)" />
<use xlink:href="#f0_m" transform="matrix(11,0,0,11,331.6,724.6)" />
<use xlink:href="#f0_9" transform="matrix(11,0,0,11,170.7,724.6)" />
<use xlink:href="#f0_c" transform="matrix(11,0,0,11,179.1,724.6)" />
<use xlink:href="#f0_b" transform="matrix(11,0,0,11,187.5,724.6)" />
<use xlink:href="#f0_m" transform="matrix(11,0,0,11,194,724.6)" />
<use xlink:href="#f0_f" transform="matrix(11,0,0,11,672.7,744.6)" />
<use xlink:href="#f0_g" transform="matrix(11,0,0,11,677.3,744.6)" />
<use xlink:href="#f0_p" transform="matrix(11,0,0,11,547.1,744.6)" />
<use xlink:href="#f0_t" transform="matrix(11,0,0,11,555.5,744.6)" />
<use xlink:href="#f0_1a" transform="matrix(11,0,0,11,560.1,744.6)" />
<use xlink:href="#f0_t" transform="matrix(11,0,0,11,564.8,744.6)" />
<use xlink:href="#f0_b" transform="matrix(11,0,0,11,569.5,744.6)" />
<use xlink:href="#f0_f" transform="matrix(11,0,0,11,576,744.6)" />
<use xlink:href="#f0_m" transform="matrix(11,0,0,11,580.7,744.6)" />
<use xlink:href="#f0_6" transform="matrix(11,0,0,11,412.8,744.6)" />
<use xlink:href="#f0_7" transform="matrix(11,0,0,11,420.3,744.6)" />
<use xlink:href="#f0_r" transform="matrix(11,0,0,11,428.7,744.6)" />
<use xlink:href="#f0_p" transform="matrix(11,0,0,11,437.1,744.6)" />
<use xlink:href="#f0_c" transform="matrix(11,0,0,11,445.5,744.6)" />
<use xlink:href="#f0_1a" transform="matrix(11,0,0,11,453.7,744.6)" />
<use xlink:href="#f0_t" transform="matrix(11,0,0,11,458.4,744.6)" />
<use xlink:href="#f0_b" transform="matrix(11,0,0,11,463.2,744.6)" />
<use xlink:href="#f0_f" transform="matrix(11,0,0,11,469.6,744.6)" />
<use xlink:href="#f0_m" transform="matrix(11,0,0,11,474.3,744.6)" />
<use xlink:href="#f0_m" transform="matrix(11,0,0,11,296.2,744.6)" />
<use xlink:href="#f0_b" transform="matrix(11,0,0,11,303.6,744.6)" />
<use xlink:href="#f0_f" transform="matrix(11,0,0,11,310.1,744.6)" />
<use xlink:href="#f0_c" transform="matrix(11,0,0,11,314.8,744.6)" />
<use xlink:href="#f0_s" transform="matrix(11,0,0,11,323.2,744.6)" />
<use xlink:href="#f0_t" transform="matrix(11,0,0,11,331.6,744.6)" />
<use xlink:href="#f0_b" transform="matrix(11,0,0,11,336.2,744.6)" />
<use xlink:href="#f0_f" transform="matrix(11,0,0,11,342.8,744.6)" />
<use xlink:href="#f0_m" transform="matrix(11,0,0,11,347.5,744.6)" />
<use xlink:href="#f0_9" transform="matrix(11,0,0,11,170.7,744.6)" />
<use xlink:href="#f0_c" transform="matrix(11,0,0,11,179.1,744.6)" />
<use xlink:href="#f0_b" transform="matrix(11,0,0,11,187.5,744.6)" />
<use xlink:href="#f0_t" transform="matrix(11,0,0,11,194,744.6)" />
<use xlink:href="#f0_b" transform="matrix(11,0,0,11,198.7,744.6)" />
<use xlink:href="#f0_f" transform="matrix(11,0,0,11,205.2,744.6)" />
<use xlink:href="#f0_m" transform="matrix(11,0,0,11,209.9,744.6)" />
<use xlink:href="#f0_i" transform="matrix(11,0,0,11,672.7,764.8)" />
<use xlink:href="#f0_k" transform="matrix(11,0,0,11,680,764.8)" />
<use xlink:href="#f0_l" transform="matrix(11,0,0,11,684.7,764.8)" />
<use xlink:href="#f0_m" transform="matrix(11,0,0,11,689.5,764.8)" />
<use xlink:href="#f0_k" transform="matrix(11,0,0,11,696.8,764.8)" />
<use xlink:href="#f0_k" transform="matrix(11,0,0,11,701.5,764.8)" />
<use xlink:href="#f0_n" transform="matrix(11,0,0,11,706.2,764.8)" />
<use xlink:href="#f0_l" transform="matrix(11,0,0,11,713.6,764.8)" />
<use xlink:href="#f0_o" transform="matrix(11,0,0,11,718.3,764.8)" />
<use xlink:href="#f0_p" transform="matrix(11,0,0,11,730.3,764.8)" />
<use xlink:href="#f0_q" transform="matrix(11,0,0,11,738.7,764.8)" />
<use xlink:href="#f0_p" transform="matrix(11,0,0,11,547.1,764.8)" />
<use xlink:href="#f0_t" transform="matrix(11,0,0,11,555.5,764.8)" />
<use xlink:href="#f0_1a" transform="matrix(11,0,0,11,560.1,764.8)" />
<use xlink:href="#f0_7" transform="matrix(11,0,0,11,564.8,764.8)" />
<use xlink:href="#f0_6" transform="matrix(11,0,0,11,412.8,764.8)" />
<use xlink:href="#f0_7" transform="matrix(11,0,0,11,420.3,764.8)" />
<use xlink:href="#f0_r" transform="matrix(11,0,0,11,428.7,764.8)" />
<use xlink:href="#f0_p" transform="matrix(11,0,0,11,437.1,764.8)" />
<use xlink:href="#f0_c" transform="matrix(11,0,0,11,445.5,764.8)" />
<use xlink:href="#f0_1a" transform="matrix(11,0,0,11,453.7,764.8)" />
<use xlink:href="#f0_7" transform="matrix(11,0,0,11,458.4,764.8)" />
<use xlink:href="#f0_m" transform="matrix(11,0,0,11,296.2,764.8)" />
<use xlink:href="#f0_b" transform="matrix(11,0,0,11,303.6,764.8)" />
<use xlink:href="#f0_f" transform="matrix(11,0,0,11,310.1,764.8)" />
<use xlink:href="#f0_c" transform="matrix(11,0,0,11,314.8,764.8)" />
<use xlink:href="#f0_s" transform="matrix(11,0,0,11,323.2,764.8)" />
<use xlink:href="#f0_7" transform="matrix(11,0,0,11,331.6,764.8)" />
<use xlink:href="#f0_9" transform="matrix(11,0,0,11,170.7,764.8)" />
<use xlink:href="#f0_c" transform="matrix(11,0,0,11,179.1,764.8)" />
<use xlink:href="#f0_b" transform="matrix(11,0,0,11,187.5,764.8)" />
<use xlink:href="#f0_7" transform="matrix(11,0,0,11,194,764.8)" />
<use xlink:href="#f0_r" transform="matrix(11,0,0,11,672.7,784.8)" />
<use xlink:href="#f0_7" transform="matrix(11,0,0,11,681.1,784.8)" />
<use xlink:href="#f0_b" transform="matrix(11,0,0,11,689.5,784.8)" />
<use xlink:href="#f0_7" transform="matrix(11,0,0,11,696,784.8)" />
<use xlink:href="#f0_f" transform="matrix(11,0,0,11,704.3,784.8)" />
<use xlink:href="#f0_a" transform="matrix(11,0,0,11,709,784.8)" />
<use xlink:href="#f0_7" transform="matrix(11,0,0,11,714.6,784.8)" />
<use xlink:href="#f0_b" transform="matrix(11,0,0,11,723,784.8)" />
<use xlink:href="#f0_l" transform="matrix(11,0,0,11,729.5,784.8)" />
<use xlink:href="#f0_n" transform="matrix(11,0,0,11,734.2,784.8)" />
<use xlink:href="#f0_b" transform="matrix(11,0,0,11,741.7,784.8)" />
<use xlink:href="#f0_p" transform="matrix(11,0,0,11,547.1,784.8)" />
<use xlink:href="#f0_t" transform="matrix(11,0,0,11,555.5,784.8)" />
<use xlink:href="#f0_1a" transform="matrix(11,0,0,11,560.1,784.8)" />
<use xlink:href="#f0_t" transform="matrix(11,0,0,11,564.8,784.8)" />
<use xlink:href="#f0_8" transform="matrix(11,0,0,11,569.5,784.8)" />
<use xlink:href="#f0_7" transform="matrix(11,0,0,11,582.7,784.8)" />
<use xlink:href="#f0_b" transform="matrix(11,0,0,11,590.9,784.8)" />
<use xlink:href="#f0_6" transform="matrix(11,0,0,11,412.8,784.8)" />
<use xlink:href="#f0_7" transform="matrix(11,0,0,11,420.3,784.8)" />
<use xlink:href="#f0_r" transform="matrix(11,0,0,11,428.7,784.8)" />
<use xlink:href="#f0_p" transform="matrix(11,0,0,11,437.1,784.8)" />
<use xlink:href="#f0_c" transform="matrix(11,0,0,11,445.5,784.8)" />
<use xlink:href="#f0_1a" transform="matrix(11,0,0,11,453.7,784.8)" />
<use xlink:href="#f0_t" transform="matrix(11,0,0,11,458.4,784.8)" />
<use xlink:href="#f0_8" transform="matrix(11,0,0,11,463,784.8)" />
<use xlink:href="#f0_7" transform="matrix(11,0,0,11,476.2,784.8)" />
<use xlink:href="#f0_b" transform="matrix(11,0,0,11,484.6,784.8)" />
<use xlink:href="#f0_m" transform="matrix(11,0,0,11,296.2,784.8)" />
<use xlink:href="#f0_b" transform="matrix(11,0,0,11,303.6,784.8)" />
<use xlink:href="#f0_f" transform="matrix(11,0,0,11,310.1,784.8)" />
<use xlink:href="#f0_c" transform="matrix(11,0,0,11,314.8,784.8)" />
<use xlink:href="#f0_s" transform="matrix(11,0,0,11,323.2,784.8)" />
<use xlink:href="#f0_t" transform="matrix(11,0,0,11,331.6,784.8)" />
<use xlink:href="#f0_8" transform="matrix(11,0,0,11,336.2,784.8)" />
<use xlink:href="#f0_7" transform="matrix(11,0,0,11,349.4,784.8)" />
<use xlink:href="#f0_b" transform="matrix(11,0,0,11,357.8,784.8)" />
<use xlink:href="#f0_9" transform="matrix(11,0,0,11,170.7,784.8)" />
<use xlink:href="#f0_c" transform="matrix(11,0,0,11,179.1,784.8)" />
<use xlink:href="#f0_b" transform="matrix(11,0,0,11,187.5,784.8)" />
<use xlink:href="#f0_t" transform="matrix(11,0,0,11,194,784.8)" />
<use xlink:href="#f0_8" transform="matrix(11,0,0,11,198.6,784.8)" />
<use xlink:href="#f0_7" transform="matrix(11,0,0,11,211.7,784.8)" />
<use xlink:href="#f0_b" transform="matrix(11,0,0,11,220.1,784.8)" />
<use xlink:href="#f0_m" transform="matrix(11,0,0,11,672.7,805)" />
<use xlink:href="#f0_k" transform="matrix(11,0,0,11,680,805)" />
<use xlink:href="#f0_k" transform="matrix(11,0,0,11,684.7,805)" />
<use xlink:href="#f0_7" transform="matrix(11,0,0,11,689.5,805)" />
<use xlink:href="#f0_b" transform="matrix(11,0,0,11,697.9,805)" />
<use xlink:href="#f0_l" transform="matrix(11,0,0,11,704.3,805)" />
<use xlink:href="#f0_n" transform="matrix(11,0,0,11,709,805)" />
<use xlink:href="#f0_b" transform="matrix(11,0,0,11,716.5,805)" />
<use xlink:href="#f0_l" transform="matrix(11,0,0,11,722.9,805)" />
<use xlink:href="#f0_o" transform="matrix(11,0,0,11,727.6,805)" />
<use xlink:href="#f0_p" transform="matrix(11,0,0,11,739.7,805)" />
<use xlink:href="#f0_b" transform="matrix(11,0,0,11,748.1,805)" />
<use xlink:href="#f0_q" transform="matrix(11,0,0,11,754.6,805)" />
<use xlink:href="#f0_p" transform="matrix(11,0,0,11,547.1,805)" />
<use xlink:href="#f0_t" transform="matrix(11,0,0,11,555.5,805)" />
<use xlink:href="#f0_1a" transform="matrix(11,0,0,11,560.1,805)" />
<use xlink:href="#f0_m" transform="matrix(11,0,0,11,564.8,805)" />
<use xlink:href="#f0_a" transform="matrix(11,0,0,11,572.3,805)" />
<use xlink:href="#f0_7" transform="matrix(11,0,0,11,577.9,805)" />
<use xlink:href="#f0_r" transform="matrix(11,0,0,11,586.3,805)" />
<use xlink:href="#f0_6" transform="matrix(11,0,0,11,412.8,805)" />
<use xlink:href="#f0_7" transform="matrix(11,0,0,11,420.3,805)" />
<use xlink:href="#f0_r" transform="matrix(11,0,0,11,428.7,805)" />
<use xlink:href="#f0_p" transform="matrix(11,0,0,11,437.1,805)" />
<use xlink:href="#f0_c" transform="matrix(11,0,0,11,445.5,805)" />
<use xlink:href="#f0_1a" transform="matrix(11,0,0,11,453.7,805)" />
<use xlink:href="#f0_m" transform="matrix(11,0,0,11,458.4,805)" />
<use xlink:href="#f0_a" transform="matrix(11,0,0,11,465.9,805)" />
<use xlink:href="#f0_7" transform="matrix(11,0,0,11,471.5,805)" />
<use xlink:href="#f0_r" transform="matrix(11,0,0,11,479.9,805)" />
<use xlink:href="#f0_m" transform="matrix(11,0,0,11,296.2,805)" />
<use xlink:href="#f0_b" transform="matrix(11,0,0,11,303.6,805)" />
<use xlink:href="#f0_f" transform="matrix(11,0,0,11,310.1,805)" />
<use xlink:href="#f0_c" transform="matrix(11,0,0,11,314.8,805)" />
<use xlink:href="#f0_s" transform="matrix(11,0,0,11,323.2,805)" />
<use xlink:href="#f0_t" transform="matrix(11,0,0,11,331.6,805)" />
<use xlink:href="#f0_m" transform="matrix(11,0,0,11,336.2,805)" />
<use xlink:href="#f0_a" transform="matrix(11,0,0,11,343.7,805)" />
<use xlink:href="#f0_7" transform="matrix(11,0,0,11,349.3,805)" />
<use xlink:href="#f0_r" transform="matrix(11,0,0,11,357.7,805)" />
<use xlink:href="#f0_9" transform="matrix(11,0,0,11,170.7,805)" />
<use xlink:href="#f0_c" transform="matrix(11,0,0,11,179.1,805)" />
<use xlink:href="#f0_b" transform="matrix(11,0,0,11,187.5,805)" />
<use xlink:href="#f0_t" transform="matrix(11,0,0,11,194,805)" />
<use xlink:href="#f0_m" transform="matrix(11,0,0,11,198.7,805)" />
<use xlink:href="#f0_a" transform="matrix(11,0,0,11,206.1,805)" />
<use xlink:href="#f0_7" transform="matrix(11,0,0,11,211.7,805)" />
<use xlink:href="#f0_r" transform="matrix(11,0,0,11,220.1,805)" />
<use xlink:href="#f1_g" transform="matrix(12,0,0,12,307.4,826.4)" />
<use xlink:href="#f1_f" transform="matrix(12,0,0,12,313.2,826.4)" />
<use xlink:href="#f1_h" transform="matrix(12,0,0,12,325.4,826.4)" />
<use xlink:href="#f1_9" transform="matrix(12,0,0,12,336.9,826.4)" />
<use xlink:href="#f1_2" transform="matrix(12,0,0,12,348.8,826.4)" />
<use xlink:href="#f1_i" transform="matrix(12,0,0,12,366.5,826.4)" />
<use xlink:href="#f1_j" transform="matrix(12,0,0,12,371.5,826.4)" />
<use xlink:href="#f1_l" transform="matrix(12,0,0,12,383.9,826.4)" />
<use xlink:href="#f1_t" transform="matrix(12,0,0,12,388,826.4)" />
<use xlink:href="#f1_h" transform="matrix(12,0,0,12,405.7,826.4)" />
<use xlink:href="#f1_l" transform="matrix(12,0,0,12,417.2,826.4)" />
<use xlink:href="#f1_e" transform="matrix(12,0,0,12,421.3,826.4)" />
<use xlink:href="#f1_4" transform="matrix(12,0,0,12,432.6,826.4)" />
<use xlink:href="#f1_j" transform="matrix(12,0,0,12,437.6,826.4)" />
<use xlink:href="#f1_8" transform="matrix(12,0,0,12,456.1,826.4)" />
<use xlink:href="#f1_b" transform="matrix(12,0,0,12,468.3,826.4)" />
<use xlink:href="#f1_a" transform="matrix(12,0,0,12,484.5,826.4)" />
<use xlink:href="#f1_4" transform="matrix(12,0,0,12,496.5,826.4)" />
<use xlink:href="#f1_6" transform="matrix(12,0,0,12,501.4,826.4)" />
<use xlink:href="#f1_3" transform="matrix(12,0,0,12,512,826.4)" />
<use xlink:href="#f1_f" transform="matrix(12,0,0,12,528.3,826.4)" />
<use xlink:href="#f1_l" transform="matrix(12,0,0,12,540.4,826.4)" />
<use xlink:href="#f1_j" transform="matrix(12,0,0,12,544.5,826.4)" />
<use xlink:href="#f1_h" transform="matrix(12,0,0,12,557,826.4)" />
<use xlink:href="#f1_e" transform="matrix(12,0,0,12,568.4,826.4)" />
<use xlink:href="#f1_r" transform="matrix(12,0,0,12,585.8,826.4)" />
<use xlink:href="#f1_3" transform="matrix(12,0,0,12,591.6,826.4)" />
<use xlink:href="#f1_6" transform="matrix(12,0,0,12,602,826.4)" />
<use xlink:href="#f1_h" transform="matrix(12,0,0,12,612.5,826.4)" />
<use xlink:href="#f1_2" transform="matrix(12,0,0,12,624,826.4)" />
<use xlink:href="#f1_l" transform="matrix(12,0,0,12,641.7,826.4)" />
<use xlink:href="#f1_o" transform="matrix(12,0,0,12,645.8,826.4)" />
<use xlink:href="#f1_l" transform="matrix(12,0,0,12,653.3,826.4)" />
<use xlink:href="#f1_3" transform="matrix(12,0,0,12,657.4,826.4)" />
<use xlink:href="#f1_q" transform="matrix(12,0,0,12,667.8,826.4)" />
<use xlink:href="#f1_6" transform="matrix(12,0,0,12,679.7,826.4)" />
<use xlink:href="#f1_l" transform="matrix(12,0,0,12,696.2,826.4)" />
<use xlink:href="#f1_c" transform="matrix(12,0,0,12,700.3,826.4)" />
<use xlink:href="#f1_6" transform="matrix(12,0,0,12,715.9,826.4)" />
<use xlink:href="#f1_b" transform="matrix(12,0,0,12,726.4,826.4)" />
<use xlink:href="#f1_f" transform="matrix(12,0,0,12,742.6,826.4)" />
<use xlink:href="#f1_l" transform="matrix(12,0,0,12,754.7,826.4)" />
<use xlink:href="#f1_p" transform="matrix(12,0,0,12,758.8,826.4)" />
</g>
<g fill="#0000FF" >
<use xlink:href="#f1_d" transform="matrix(12,0,0,12,669.9,867.2)" />
<use xlink:href="#f1_3" transform="matrix(12,0,0,12,682.9,867.2)" />
<use xlink:href="#f1_e" transform="matrix(12,0,0,12,693.1,867.2)" />
<use xlink:href="#f1_b" transform="matrix(12,0,0,12,704.6,867.2)" />
<use xlink:href="#f1_2" transform="matrix(12,0,0,12,720.9,867.2)" />
<use xlink:href="#f1_3" transform="matrix(12,0,0,12,732.8,867.2)" />
<use xlink:href="#f1_k" transform="matrix(12,0,0,12,743.2,867.2)" />
<use xlink:href="#f1_q" transform="matrix(12,0,0,12,749.6,867.2)" />
<use xlink:href="#f1_6" transform="matrix(12,0,0,12,761.5,867.2)" />
</g>
</g>
<path d="M669.8,869H772.1" class="g1_12" />
<g clip-path="url(#c0_12)">
<g fill="#000000" >
<use xlink:href="#f3_l" transform="matrix(12,0,0,12,621.2,927.2)" />
<use xlink:href="#f3_b" transform="matrix(12,0,0,12,632.2,927.2)" />
<use xlink:href="#f3_l" transform="matrix(12,0,0,12,637.5,927.2)" />
<use xlink:href="#f3_t" transform="matrix(12,0,0,12,648.7,927.2)" />
<use xlink:href="#f3_8" transform="matrix(12,0,0,12,667.1,927.2)" />
<use xlink:href="#f3_4" transform="matrix(12,0,0,12,679.7,927.2)" />
<use xlink:href="#f3_b" transform="matrix(12,0,0,12,690.7,927.2)" />
<use xlink:href="#f3_m" transform="matrix(12,0,0,12,696,927.2)" />
<use xlink:href="#f3_g" transform="matrix(12,0,0,12,709.3,927.2)" />
<use xlink:href="#f3_b" transform="matrix(12,0,0,12,729.6,927.2)" />
<use xlink:href="#f3_v" transform="matrix(12,0,0,12,734.9,927.2)" />
<use xlink:href="#f3_b" transform="matrix(12,0,0,12,743.2,927.2)" />
<use xlink:href="#f3_4" transform="matrix(12,0,0,12,748.5,927.2)" />
<use xlink:href="#f3_r" transform="matrix(12,0,0,12,759.5,927.2)" />
<use xlink:href="#f2_2" transform="matrix(13,0,0,13,137.7,969.5)" />
<use xlink:href="#f2_3" transform="matrix(13,0,0,13,152.8,969.5)" />
<use xlink:href="#f2_4" transform="matrix(13,0,0,13,160,969.5)" />
<use xlink:href="#f2_a" transform="matrix(13,0,0,13,172.6,969.5)" />
<use xlink:href="#f2_b" transform="matrix(13,0,0,13,183,969.5)" />
<use xlink:href="#f2_c" transform="matrix(13,0,0,13,195.1,969.5)" />
<use xlink:href="#f2_b" transform="matrix(13,0,0,13,202.6,969.5)" />
<use xlink:href="#f2_c" transform="matrix(13,0,0,13,214.6,969.5)" />
<use xlink:href="#f2_8" transform="matrix(13,0,0,13,222.1,969.5)" />
<use xlink:href="#f2_k" transform="matrix(13,0,0,13,242.6,969.5)" />
<use xlink:href="#f2_g" transform="matrix(13,0,0,13,263.2,969.5)" />
</g>
</g>
<path d="M118,993.9H772.4M118,1014.1H772.4m-654.4,20H772.4m-654,-40.6v41m130.8,-41v41M380,993.5v41m130.6,-41v41m130.8,-41v41M772,993.5v41" class="g2_12" />
<g clip-path="url(#c0_12)">
<g fill="#000000" >
<use xlink:href="#f0_m" transform="matrix(11,0,0,11,127.3,1010)" />
<use xlink:href="#f0_8" transform="matrix(11,0,0,11,134.6,1010)" />
<use xlink:href="#f0_9" transform="matrix(11,0,0,11,147.7,1010)" />
<use xlink:href="#f0_m" transform="matrix(11,0,0,11,156.1,1010)" />
<use xlink:href="#f0_18" transform="matrix(11,0,0,11,163.6,1010)" />
<use xlink:href="#f0_n" transform="matrix(11,0,0,11,171,1010)" />
<use xlink:href="#f0_a" transform="matrix(11,0,0,11,178.4,1010)" />
<use xlink:href="#f0_f" transform="matrix(11,0,0,11,258,1010)" />
<use xlink:href="#f0_7" transform="matrix(11,0,0,11,262.6,1010)" />
<use xlink:href="#f0_6" transform="matrix(11,0,0,11,271,1010)" />
<use xlink:href="#f0_n" transform="matrix(11,0,0,11,278.5,1010)" />
<use xlink:href="#f0_a" transform="matrix(11,0,0,11,286,1010)" />
<use xlink:href="#f0_6" transform="matrix(11,0,0,11,388.7,1010)" />
<use xlink:href="#f0_7" transform="matrix(11,0,0,11,396.1,1010)" />
<use xlink:href="#f0_k" transform="matrix(11,0,0,11,404.5,1010)" />
<use xlink:href="#f0_13" transform="matrix(11,0,0,11,409.3,1010)" />
<use xlink:href="#f0_n" transform="matrix(11,0,0,11,417.7,1010)" />
<use xlink:href="#f0_a" transform="matrix(11,0,0,11,425,1010)" />
<use xlink:href="#f0_d" transform="matrix(11,0,0,11,519.4,1010)" />
<use xlink:href="#f0_c" transform="matrix(11,0,0,11,527.8,1010)" />
<use xlink:href="#f0_b" transform="matrix(11,0,0,11,536.3,1010)" />
<use xlink:href="#f0_6" transform="matrix(11,0,0,11,542.7,1010)" />
<use xlink:href="#f0_n" transform="matrix(11,0,0,11,550.1,1010)" />
<use xlink:href="#f0_a" transform="matrix(11,0,0,11,557.6,1010)" />
<use xlink:href="#f0_n" transform="matrix(11,0,0,11,650.1,1010)" />
<use xlink:href="#f0_k" transform="matrix(11,0,0,11,657.5,1010)" />
<use xlink:href="#f0_8" transform="matrix(11,0,0,11,662.1,1010)" />
<use xlink:href="#f0_7" transform="matrix(11,0,0,11,675.2,1010)" />
<use xlink:href="#f0_a" transform="matrix(11,0,0,11,683.6,1010)" />
<use xlink:href="#f0_18" transform="matrix(11,0,0,11,689.3,1010)" />
<use xlink:href="#f0_n" transform="matrix(11,0,0,11,696.7,1010)" />
<use xlink:href="#f0_a" transform="matrix(11,0,0,11,704.1,1010)" />
<use xlink:href="#f0_m" transform="matrix(11,0,0,11,127.3,1030)" />
<use xlink:href="#f0_8" transform="matrix(11,0,0,11,134.6,1030)" />
<use xlink:href="#f0_9" transform="matrix(11,0,0,11,147.7,1030)" />
<use xlink:href="#f0_m" transform="matrix(11,0,0,11,156.1,1030)" />
<use xlink:href="#f0_6" transform="matrix(11,0,0,11,163.6,1030)" />
<use xlink:href="#f0_i" transform="matrix(11,0,0,11,171,1030)" />
<use xlink:href="#f0_f" transform="matrix(11,0,0,11,258,1030)" />
<use xlink:href="#f0_7" transform="matrix(11,0,0,11,262.6,1030)" />
<use xlink:href="#f0_16" transform="matrix(11,0,0,11,271,1030)" />
<use xlink:href="#f0_c" transform="matrix(11,0,0,11,279.4,1030)" />
<use xlink:href="#f0_i" transform="matrix(11,0,0,11,287.8,1030)" />
<use xlink:href="#f0_6" transform="matrix(11,0,0,11,388.7,1030)" />
<use xlink:href="#f0_7" transform="matrix(11,0,0,11,396.1,1030)" />
<use xlink:href="#f0_k" transform="matrix(11,0,0,11,404.5,1030)" />
<use xlink:href="#f0_13" transform="matrix(11,0,0,11,409.3,1030)" />
<use xlink:href="#f0_c" transform="matrix(11,0,0,11,417.7,1030)" />
<use xlink:href="#f0_i" transform="matrix(11,0,0,11,426.1,1030)" />
<use xlink:href="#f0_d" transform="matrix(11,0,0,11,519.4,1030)" />
<use xlink:href="#f0_c" transform="matrix(11,0,0,11,527.8,1030)" />
<use xlink:href="#f0_b" transform="matrix(11,0,0,11,536.3,1030)" />
<use xlink:href="#f0_16" transform="matrix(11,0,0,11,542.8,1030)" />
<use xlink:href="#f0_c" transform="matrix(11,0,0,11,551.2,1030)" />
<use xlink:href="#f0_i" transform="matrix(11,0,0,11,559.5,1030)" />
<use xlink:href="#f0_n" transform="matrix(11,0,0,11,650.1,1030)" />
<use xlink:href="#f0_k" transform="matrix(11,0,0,11,657.5,1030)" />
<use xlink:href="#f0_8" transform="matrix(11,0,0,11,662.1,1030)" />
<use xlink:href="#f0_7" transform="matrix(11,0,0,11,675.2,1030)" />
<use xlink:href="#f0_a" transform="matrix(11,0,0,11,683.6,1030)" />
<use xlink:href="#f0_6" transform="matrix(11,0,0,11,689.3,1030)" />
<use xlink:href="#f0_i" transform="matrix(11,0,0,11,696.7,1030)" />
</g>
</g>
<path d="M248.8,1054.2H772.4m-523.6,20.1H772.4m-523.6,20.1H772.4M249.2,1053.9v40.9m130.6,-40.9v40.9m130.8,-40.9v40.9m130.8,-40.9v40.9M772,1053.9v40.9" class="g2_12" />
<g clip-path="url(#c0_12)">
<g fill="#000000" >
<use xlink:href="#f0_6" transform="matrix(11,0,0,11,257.9,1070.2)" />
<use xlink:href="#f0_7" transform="matrix(11,0,0,11,265.4,1070.2)" />
<use xlink:href="#f0_8" transform="matrix(11,0,0,11,273.8,1070.2)" />
<use xlink:href="#f0_m" transform="matrix(11,0,0,11,286.9,1070.2)" />
<use xlink:href="#f0_r" transform="matrix(11,0,0,11,294.3,1070.2)" />
<use xlink:href="#f0_18" transform="matrix(11,0,0,11,302.6,1070.2)" />
<use xlink:href="#f0_n" transform="matrix(11,0,0,11,310.1,1070.2)" />
<use xlink:href="#f0_a" transform="matrix(11,0,0,11,317.5,1070.2)" />
<use xlink:href="#f0_1a" transform="matrix(11,0,0,11,388.7,1070.2)" />
<use xlink:href="#f0_c" transform="matrix(11,0,0,11,393.3,1070.2)" />
<use xlink:href="#f0_13" transform="matrix(11,0,0,11,401.7,1070.2)" />
<use xlink:href="#f0_n" transform="matrix(11,0,0,11,410.1,1070.2)" />
<use xlink:href="#f0_a" transform="matrix(11,0,0,11,417.5,1070.2)" />
<use xlink:href="#f0_k" transform="matrix(11,0,0,11,519.4,1070.2)" />
<use xlink:href="#f0_k" transform="matrix(11,0,0,11,524,1070.2)" />
<use xlink:href="#f0_m" transform="matrix(11,0,0,11,528.8,1070.2)" />
<use xlink:href="#f0_13" transform="matrix(11,0,0,11,536.2,1070.2)" />
<use xlink:href="#f0_n" transform="matrix(11,0,0,11,544.6,1070.2)" />
<use xlink:href="#f0_a" transform="matrix(11,0,0,11,551.9,1070.2)" />
<use xlink:href="#f0_r" transform="matrix(11,0,0,11,650.1,1070.2)" />
<use xlink:href="#f0_m" transform="matrix(11,0,0,11,658.5,1070.2)" />
<use xlink:href="#f0_13" transform="matrix(11,0,0,11,665.9,1070.2)" />
<use xlink:href="#f0_n" transform="matrix(11,0,0,11,674.3,1070.2)" />
<use xlink:href="#f0_a" transform="matrix(11,0,0,11,681.8,1070.2)" />
<use xlink:href="#f0_6" transform="matrix(11,0,0,11,257.9,1090.4)" />
<use xlink:href="#f0_7" transform="matrix(11,0,0,11,265.4,1090.4)" />
<use xlink:href="#f0_8" transform="matrix(11,0,0,11,273.8,1090.4)" />
<use xlink:href="#f0_m" transform="matrix(11,0,0,11,286.9,1090.4)" />
<use xlink:href="#f0_r" transform="matrix(11,0,0,11,294.3,1090.4)" />
<use xlink:href="#f0_6" transform="matrix(11,0,0,11,302.6,1090.4)" />
<use xlink:href="#f0_i" transform="matrix(11,0,0,11,310.1,1090.4)" />
<use xlink:href="#f0_1a" transform="matrix(11,0,0,11,388.7,1090.4)" />
<use xlink:href="#f0_c" transform="matrix(11,0,0,11,393.3,1090.4)" />
<use xlink:href="#f0_13" transform="matrix(11,0,0,11,401.7,1090.4)" />
<use xlink:href="#f0_c" transform="matrix(11,0,0,11,410.1,1090.4)" />
<use xlink:href="#f0_i" transform="matrix(11,0,0,11,418.5,1090.4)" />
<use xlink:href="#f0_k" transform="matrix(11,0,0,11,519.4,1090.4)" />
<use xlink:href="#f0_k" transform="matrix(11,0,0,11,524,1090.4)" />
<use xlink:href="#f0_m" transform="matrix(11,0,0,11,528.8,1090.4)" />
<use xlink:href="#f0_13" transform="matrix(11,0,0,11,536.2,1090.4)" />
<use xlink:href="#f0_c" transform="matrix(11,0,0,11,544.6,1090.4)" />
<use xlink:href="#f0_i" transform="matrix(11,0,0,11,553,1090.4)" />
<use xlink:href="#f0_r" transform="matrix(11,0,0,11,650.1,1090.4)" />
<use xlink:href="#f0_m" transform="matrix(11,0,0,11,658.5,1090.4)" />
<use xlink:href="#f0_13" transform="matrix(11,0,0,11,665.9,1090.4)" />
<use xlink:href="#f0_c" transform="matrix(11,0,0,11,674.3,1090.4)" />
<use xlink:href="#f0_i" transform="matrix(11,0,0,11,682.7,1090.4)" />
</g>
<g fill="#0000FF" >
<use xlink:href="#f1_d" transform="matrix(12,0,0,12,669.9,1111.8)" />
<use xlink:href="#f1_3" transform="matrix(12,0,0,12,682.9,1111.8)" />
<use xlink:href="#f1_e" transform="matrix(12,0,0,12,693.1,1111.8)" />
<use xlink:href="#f1_b" transform="matrix(12,0,0,12,704.6,1111.8)" />
<use xlink:href="#f1_2" transform="matrix(12,0,0,12,720.9,1111.8)" />
<use xlink:href="#f1_3" transform="matrix(12,0,0,12,732.8,1111.8)" />
<use xlink:href="#f1_k" transform="matrix(12,0,0,12,743.2,1111.8)" />
<use xlink:href="#f1_q" transform="matrix(12,0,0,12,749.6,1111.8)" />
<use xlink:href="#f1_6" transform="matrix(12,0,0,12,761.5,1111.8)" />
</g>
</g>
<path d="M669.8,1113.6H772.1" class="g1_12" />
<g clip-path="url(#c0_12)">
<g fill="#000000" >
<use xlink:href="#f1_z" transform="matrix(11,0,0,11,137.5,1208.9)" />
<use xlink:href="#f1_10" transform="matrix(11,0,0,11,148.2,1208.9)" />
</g>
</g>
<defs>
<path d="M322,0V40L481,60V389L130,941L17,960v40H440V960L306,941L593,480L866,941L739,960v40h326V960L955,941L625,394V60L784,40V0Z" 
id="f0_1j"
transform="scale(0.001,-0.001)" />

<path d="M377,45c0,0,99,0,147,73c0,0,47,73,47,237c0,0,0,161,-47,233c0,0,-47,72,-147,72c0,0,-97,0,-141,-69c0,0,-44,-69,-44,-236c0,0,0,-169,45,-240c0,0,44,-70,140,-70Zm0,-59c0,0,-158,0,-238,94c0,0,-81,95,-81,274c0,0,0,178,81,272c0,0,80,94,244,94c0,0,160,0,241,-92c0,0,82,-92,82,-274c0,0,0,-368,-329,-368Z" 
id="f0_7"
transform="scale(0.001,-0.001)" />

<path d="M278,-14c0,0,-52,0,-115,11c0,0,-63,10,-99,23V193H98L134,95c0,0,56,-50,146,-50c0,0,144,0,144,123c0,0,0,91,-114,130l-66,21c0,0,-75,25,-110,50c0,0,-34,26,-53,63c0,0,-18,36,-18,89c0,0,0,92,63,145c0,0,63,54,170,54c0,0,77,0,193,-23V544H454l-32,81c0,0,-39,35,-124,35c0,0,-61,0,-92,-30c0,0,-32,-30,-32,-80c0,0,0,-43,29,-72c0,0,28,-29,86,-48c0,0,110,-38,144,-55c0,0,33,-17,57,-42c0,0,23,-25,36,-57c0,0,13,-32,13,-79c0,0,0,-104,-66,-158c0,0,-66,-53,-195,-53Z" 
id="f0_b"
transform="scale(0.001,-0.001)" />

<path d="M284,67c0,0,51,0,88,12c0,0,37,12,74,30V358l-98,-3c0,0,-100,-4,-135,-39c0,0,-35,-35,-35,-117c0,0,0,-132,106,-132ZM233,-14c0,0,-179,0,-179,208c0,0,0,70,27,116c0,0,27,46,87,70c0,0,60,24,173,27l105,3V519c0,0,0,72,-26,107c0,0,-27,34,-82,34c0,0,-75,0,-137,-35L176,538H134V691c0,0,121,26,213,26c0,0,115,0,169,-47c0,0,54,-47,54,-144V52L657,33V0H465L451,70c0,0,-85,-84,-218,-84Z" 
id="f0_n"
transform="scale(0.001,-0.001)" />

<path d="M31,0V33L150,52v956L31,1026v34H274V52L394,33V0Z" 
id="f0_k"
transform="scale(0.001,-0.001)" />

<path d="M32,0V34L151,52V649L52,668v33H275V52L395,34V0Zm71,835v24l146,203H408v-27L144,835Z" 
id="f0_x"
transform="scale(0.001,-0.001)" />

<path d="M148,-329c0,0,-58,0,-114,13v151H69l24,-71c0,0,23,-17,64,-17c0,0,39,0,72,22c0,0,33,23,60,67c0,0,27,44,68,157L90,649L19,668v33H344V668L233,648L423,158L606,649L497,668v33H758V668L685,652L411,-43c0,0,-48,-124,-84,-177c0,0,-36,-54,-79,-82c0,0,-44,-27,-100,-27Z" 
id="f0_e"
transform="scale(0.001,-0.001)" />

<path d="M376,50c0,0,103,0,149,80c0,0,46,81,46,240c0,0,0,137,-47,204c0,0,-48,67,-148,67c0,0,-44,0,-87,-7c0,0,-44,-8,-63,-17V62c0,0,63,-12,150,-12Zm3,-64c0,0,-64,0,-141,14c0,0,-78,14,-136,37v971L0,1026v34H226V809c0,0,0,-40,-4,-148c0,0,74,59,188,59c0,0,143,0,219,-87c0,0,77,-87,77,-263c0,0,0,-189,-84,-287c0,0,-84,-97,-243,-97Z" 
id="f0_d"
transform="scale(0.001,-0.001)" />

<path d="M495,413c0,0,0,133,-34,190c0,0,-34,57,-105,57c0,0,-78,0,-119,-63c0,0,-42,-62,-42,-184ZM374,-14c0,0,-163,0,-239,87c0,0,-75,88,-75,283c0,0,0,183,77,273c0,0,76,91,219,91c0,0,269,0,269,-306V353H194V340c0,0,0,-103,23,-160c0,0,22,-57,70,-87c0,0,47,-29,124,-29c0,0,40,0,96,6c0,0,55,7,91,15V43C598,43,562,20,500,3c0,0,-61,-17,-126,-17Z" 
id="f0_m"
transform="scale(0.001,-0.001)" />

<path d="M191,-20c0,0,-39,0,-65,25c0,0,-25,27,-25,64c0,0,0,38,26,64c0,0,26,26,64,26c0,0,38,0,64,-26c0,0,26,-26,26,-64c0,0,0,-37,-25,-64c0,0,-26,-25,-65,-25Z" 
id="f0_q"
transform="scale(0.001,-0.001)" />

<path d="M163,0V190H321V0Z" 
id="f1_g"
transform="scale(0.001,-0.001)" />

<path d="M102,312V836H241V369L102,312Z" 
id="f1_l"
transform="scale(0.001,-0.001)" />

<path d="M112,-5c0,0,-39,0,-97,11V113c0,0,48,-10,77,-10c0,0,53,0,70,42c0,0,17,43,17,164V729H50V836H501c0,0,107,0,179,-25c0,0,72,-25,112,-77c0,0,40,-51,57,-118c0,0,16,-67,16,-164V0H726V454c0,0,0,55,-3,92c0,0,-4,37,-17,75c0,0,-14,38,-38,59c0,0,-24,22,-65,36c0,0,-42,13,-102,13H318V309c0,0,0,-160,-46,-237C272,72,226,-5,112,-5Z" 
id="f1_a"
transform="scale(0.001,-0.001)" />

<path d="M180,0L66,836H203L258,443c0,0,36,1,64,6c0,0,28,6,49,18c0,0,20,12,35,26c0,0,15,13,26,36c0,0,11,24,17,44c0,0,7,20,12,55c0,0,6,34,9,60c0,0,3,26,8,71c0,0,4,45,9,77H610c0,0,-13,-194,-31,-271c0,0,-31,-127,-111,-179c0,0,-71,-45,-196,-50L304,107c0,0,73,0,130,5c0,0,56,6,111,21c0,0,54,15,94,40c0,0,40,25,77,64c0,0,37,39,63,94c0,0,25,54,46,128c0,0,21,73,34,166c0,0,13,94,20,211h138c0,0,-14,-124,-29,-218c0,0,-16,-94,-39,-179c0,0,-22,-85,-50,-146c0,0,-28,-61,-68,-112c0,0,-39,-51,-87,-84C744,97,696,65,632,42C632,42,568,19,492,10C492,10,417,0,320,0Z" 
id="f1_p"
transform="scale(0.001,-0.001)" />

<path d="M139,0V836H278V0Z" 
id="f1_4"
transform="scale(0.001,-0.001)" />

<path d="M139,0V138c0,0,0,61,8,112c0,0,7,52,19,87c0,0,11,36,30,66c0,0,19,31,35,49c0,0,17,19,41,35c0,0,25,17,41,25c0,0,17,7,40,17L141,836H303L613,388c0,0,20,10,33,18c0,0,13,8,34,28c0,0,20,20,33,44c0,0,13,25,22,66c0,0,10,41,10,92V836H882V698c0,0,0,-61,-7,-112c0,0,-6,-52,-18,-88c0,0,-12,-36,-30,-66c0,0,-19,-30,-36,-49c0,0,-17,-18,-41,-34c0,0,-24,-17,-40,-25c0,0,-17,-8,-41,-17L882,0H720L409,448c0,0,-21,-11,-34,-19c0,0,-13,-8,-34,-27c0,0,-21,-20,-34,-44c0,0,-12,-25,-22,-66c0,0,-9,-41,-9,-92V0Z" 
id="f1_8"
transform="scale(0.001,-0.001)" />

<path d="M66,0V106H564L66,836H228L516,413c0,0,3,2,9,6c0,0,17,13,27,21c0,0,10,8,26,27c0,0,17,20,26,40c0,0,9,21,16,54c0,0,7,34,7,75V836H764V698c0,0,0,-55,-7,-102c0,0,-7,-47,-16,-79c0,0,-10,-33,-27,-62c0,0,-18,-29,-32,-46c0,0,-14,-17,-37,-35c0,0,-22,-17,-36,-25c0,0,-13,-8,-36,-20L767,53V0Z" 
id="f1_5"
transform="scale(0.001,-0.001)" />

<path d="M66,0V107H332V555c0,0,0,92,-37,133c0,0,-37,41,-116,41H85V836h94c0,0,153,0,223,-66c0,0,69,-66,69,-231V0Z" 
id="f1_n"
transform="scale(0.001,-0.001)" />

<path d="M235,0V40L394,60V936H356c0,0,-189,0,-258,-15L78,766H28v234H908V766H857L837,921c0,0,-22,5,-98,9c0,0,-75,4,-165,4H538V60L697,40V0Z" 
id="f0_1l"
transform="scale(0.001,-0.001)" />

<path d="M289,-14c0,0,-179,0,-179,205V649L20,668v33H233V200c0,0,0,-128,120,-128c0,0,92,0,173,23V649L420,668v33H649V52L738,34V0H533l-6,57C527,57,474,28,405,6c0,0,-69,-20,-116,-20Zm24,849v24l147,203H618v-27L354,835Z" 
id="f0_g"
transform="scale(0.001,-0.001)" />

<path d="M32,0V33L151,52V649L52,668v33H275V52L395,33V0ZM201,850c0,0,-32,0,-56,24c0,0,-24,24,-24,56c0,0,0,34,24,58c0,0,24,24,56,24c0,0,34,0,58,-24c0,0,24,-24,24,-58c0,0,0,-32,-24,-56c0,0,-24,-24,-58,-24Z" 
id="f0_t"
transform="scale(0.001,-0.001)" />

<path d="M249,-14c0,0,-71,0,-107,42c0,0,-35,42,-35,119V639H15v33l93,29l76,159h47V701H391V639H231V161c0,0,0,-48,22,-73c0,0,22,-24,57,-24c0,0,44,0,106,12V26C416,26,389,8,340,-2c0,0,-49,-12,-91,-12Z" 
id="f0_f"
transform="scale(0.001,-0.001)" />

<path d="M44,0V40L172,60V941L44,961v39H794V761H745L721,923c0,0,-83,10,-241,10H316V542H586l23,120h48V354H609L586,475H316V67H513c0,0,193,0,252,12l43,185h49L843,0ZM351,1084v25l146,202H656v-27L392,1084Z" 
id="f0_23"
transform="scale(0.001,-0.001)" />

<path d="M377,44c0,0,99,0,147,73c0,0,47,73,47,237c0,0,0,161,-47,234c0,0,-47,72,-147,72c0,0,-97,0,-141,-69c0,0,-44,-70,-44,-237c0,0,0,-169,45,-239c0,0,44,-71,140,-71Zm0,-58c0,0,-158,0,-238,94c0,0,-81,95,-81,274c0,0,0,178,81,272c0,0,80,94,244,94c0,0,160,0,241,-92c0,0,82,-92,82,-274c0,0,0,-368,-329,-368ZM301,835v24l147,203H606v-27L342,835Z" 
id="f0_w"
transform="scale(0.001,-0.001)" />

<path d="M154,0V454l138,56V0ZM722,0V454c0,0,0,161,-49,218c0,0,-48,57,-186,57H139V836H485c0,0,207,0,291,-93c0,0,83,-94,83,-318V0Z" 
id="f1_2"
transform="scale(0.001,-0.001)" />

<path d="M44,0V40L172,60V941L44,960v40H794V760H745L721,922c0,0,-83,11,-241,11H316V543H586l23,119h48V354H609L586,475H316V67H513c0,0,193,0,252,12l43,185h49L843,0Z" 
id="f0_4"
transform="scale(0.001,-0.001)" />

<path d="M31,0V33l88,19V649L31,668v33H235l7,-87c0,0,44,37,121,71c0,0,76,35,121,35h11V530H463l-43,82c0,0,-37,0,-88,-10c0,0,-52,-10,-89,-26V52L363,33V0Z" 
id="f0_a"
transform="scale(0.001,-0.001)" />

<path d="M439,0V33l93,19V500c0,0,0,62,-30,97c0,0,-31,36,-94,36c0,0,-67,0,-165,-22V52L338,33V0H35V33l84,19V649L35,668v33H235l7,-57c0,0,57,33,122,54c0,0,65,22,108,22c0,0,91,0,137,-53c0,0,47,-53,47,-154V52L741,33V0Z" 
id="f0_r"
transform="scale(0.001,-0.001)" />

<path d="M139,-317V836H278V-317Z" 
id="f1_i"
transform="scale(0.001,-0.001)" />

<path d="M868,0L251,900V60L385,40V0H44V40L172,60V941L44,960v40H347L862,259V941L727,960v40h341V960L940,941V0Z" 
id="f0_1k"
transform="scale(0.001,-0.001)" />

<path d="M431,0V33L535,52V499c0,0,0,62,-32,96c0,0,-32,33,-95,33c0,0,-66,0,-163,-22V52L350,33V0H32V33l89,19V649L32,668v33H237l6,-57c0,0,56,32,119,54c0,0,62,22,110,22c0,0,52,0,95,-20c0,0,44,-19,66,-62c0,0,57,32,134,57c0,0,77,25,128,25c0,0,179,0,179,-207V52l90,-19V0H846V33L950,52V499c0,0,0,129,-119,129c0,0,-19,0,-45,-3c0,0,-26,-3,-52,-7c0,0,-25,-4,-49,-8c0,0,-23,-5,-39,-8c0,0,13,-41,13,-89V52L764,33V0Z" 
id="f0_8"
transform="scale(0.001,-0.001)" />

<path d="M139,0V836H485c0,0,206,0,290,-90c0,0,84,-89,84,-294V0H721V473c0,0,0,147,-49,202c0,0,-48,54,-186,54H277V0Z" 
id="f1_q"
transform="scale(0.001,-0.001)" />

<path d="M156,-317V454l139,56V-317ZM505,0L806,729H139V835H967V753L650,0Z" 
id="f1_d"
transform="scale(0.001,-0.001)" />

<path d="M585,0V426c0,0,0,54,-8,98c0,0,-8,44,-27,83c0,0,-19,40,-49,66c0,0,-30,26,-77,41c0,0,-47,15,-108,15H66V836H315c0,0,94,0,166,-20c0,0,71,-20,116,-54c0,0,46,-35,75,-88c0,0,28,-52,40,-112c0,0,12,-60,12,-137V0Z" 
id="f1_3"
transform="scale(0.001,-0.001)" />

<path d="M139,0V106H400c0,0,176,0,253,71c0,0,78,72,78,250c0,0,0,163,-80,233c0,0,-81,69,-250,69H278L277,564c0,0,-1,-54,26,-80c0,0,27,-25,82,-25c0,0,30,0,80,9V355c0,0,-61,-12,-111,-12c0,0,-100,0,-157,55c0,0,-58,55,-58,186V836H456c0,0,193,0,303,-109c0,0,110,-109,110,-309c0,0,0,-200,-110,-309C759,109,648,0,456,0Z" 
id="f1_e"
transform="scale(0.001,-0.001)" />

<path d="M287,0L589,729H66v386H205V836l547,-1l-2,-82L433,0Z" 
id="f1_b"
transform="scale(0.001,-0.001)" />

<path d="M152,0V473c0,0,0,94,28,161c0,0,29,66,71,95H66V836H463V729H404c0,0,-65,0,-89,-57c0,0,-25,-58,-25,-199V0Z" 
id="f1_k"
transform="scale(0.001,-0.001)" />

<path d="M66,0V107H554V452c0,0,0,56,-4,93c0,0,-4,37,-18,75c0,0,-14,38,-40,60c0,0,-26,22,-71,36c0,0,-45,13,-110,13H66V836H312c0,0,91,0,157,-17c0,0,66,-17,109,-49c0,0,44,-32,69,-84c0,0,26,-52,36,-114c0,0,10,-62,10,-147V107H817V0Z" 
id="f1_6"
transform="scale(0.001,-0.001)" />

<path d="M71,0V90H214v934H71v90H1073V851H970v160H502V654H792V796H895V411H792V552H502V103H984V263h102V0Z" 
id="f2_2"
transform="scale(0.001,-0.001)" />

<path d="M87,-338c0,0,-45,0,-94,7c0,0,-51,8,-105,22v168l84,-1c0,0,1,-59,23,-86c0,0,21,-26,70,-26c0,0,55,0,77,35c0,0,21,35,21,127V703H51v90H427V-92c0,0,0,-122,-86,-184c0,0,-86,-62,-254,-62ZM277,876c0,0,-61,0,-102,41c0,0,-42,41,-42,101c0,0,0,60,41,101c0,0,42,42,103,42c0,0,58,0,100,-42c0,0,42,-42,42,-101c0,0,0,-59,-42,-101c0,0,-41,-41,-100,-41Z" 
id="f2_3"
transform="scale(0.001,-0.001)" />

<path d="M612,448c0,0,0,156,-29,219c0,0,-29,63,-99,63c0,0,-68,0,-98,-61c0,0,-29,-62,-29,-208V448ZM488,-20c0,0,-205,0,-315,107C173,87,63,195,63,397c0,0,0,197,112,307c0,0,113,110,313,110c0,0,197,0,303,-115c0,0,105,-116,111,-340H357v-6c0,0,0,-154,46,-222c0,0,46,-68,149,-68c0,0,86,0,139,45c0,0,53,46,68,133H883C883,241,851,105,755,42c0,0,-95,-62,-267,-62Z" 
id="f2_4"
transform="scale(0.001,-0.001)" />

<path d="M53,0V90H165V703H44v90H429V652c0,0,39,83,103,123c0,0,64,39,156,39c0,0,24,0,57,-3c0,0,33,-3,76,-9V565H737c0,0,-4,63,-34,94c0,0,-30,31,-87,31c0,0,-87,0,-137,-76c0,0,-50,-76,-50,-211V90H573V0Z" 
id="f2_a"
transform="scale(0.001,-0.001)" />

<path d="M507,-20c0,0,-212,0,-328,108C179,88,63,198,63,397c0,0,0,197,114,307c0,0,115,110,320,110c0,0,82,0,167,-15c0,0,84,-16,171,-47V532H752c0,0,-12,101,-59,150c0,0,-47,48,-132,48c0,0,-111,0,-157,-74c0,0,-47,-75,-47,-259c0,0,0,-180,45,-257c0,0,46,-77,149,-77c0,0,80,0,128,47c0,0,48,48,58,137H861C861,247,833,112,745,45c0,0,-87,-65,-238,-65Z" 
id="f2_b"
transform="scale(0.001,-0.001)" />

<path d="M53,0V90H165V703H53v90H429V90H543V0ZM285,876c0,0,-61,0,-102,41c0,0,-42,41,-42,101c0,0,0,60,42,101c0,0,41,42,102,42c0,0,59,0,100,-42c0,0,41,-41,41,-101c0,0,0,-59,-41,-101c0,0,-41,-41,-100,-41Z" 
id="f2_c"
transform="scale(0.001,-0.001)" />

<path d="M510,63c0,0,84,0,118,71c0,0,34,72,34,263c0,0,0,191,-34,262c0,0,-33,71,-118,71c0,0,-84,0,-119,-72c0,0,-34,-72,-34,-261c0,0,0,-190,34,-262c0,0,35,-72,119,-72Zm0,-83c0,0,-209,0,-328,110C182,90,63,201,63,397c0,0,0,196,119,307c0,0,119,110,328,110c0,0,211,0,330,-110c0,0,118,-111,118,-307c0,0,0,-196,-119,-307C839,90,720,-20,510,-20Z" 
id="f2_8"
transform="scale(0.001,-0.001)" />

<path d="M528,389V930L196,389ZM363,0V90H528V293H63v86l466,755H810V389h190V293H810V90H975V0Z" 
id="f2_i"
transform="scale(0.001,-0.001)" />

<path d="M83,309V510H551V309Z" 
id="f2_g"
transform="scale(0.001,-0.001)" />

<path d="M681,416L504,902L333,416ZM669,0V40L803,60L704,348H310L210,60L344,40V0H15V40L128,60l341,949H611L965,60L1092,40V0Z" 
id="f0_2"
transform="scale(0.001,-0.001)" />

<path d="M448,506c0,0,134,0,190,49c0,0,57,50,57,168c0,0,0,114,-56,162c0,0,-56,48,-195,48H316V506ZM777,0L496,438H316V60L468,40V0H54V40L172,60V941L44,960v40H476c0,0,188,0,277,-63c0,0,90,-64,90,-204c0,0,0,-100,-54,-173c0,0,-55,-73,-151,-101L909,60L1017,40V0Z" 
id="f0_3"
transform="scale(0.001,-0.001)" />

<path d="M55,0V40L184,60V941L55,960v40H455V960L327,941V60L455,40V0Z" 
id="f0_5"
transform="scale(0.001,-0.001)" />

<path d="M382,45c0,0,188,0,188,314c0,0,0,143,-47,213c0,0,-46,69,-141,69c0,0,-87,0,-146,-24V58c0,0,67,-13,146,-13ZM25,-325v35l88,18V649L34,668v33H231l1,-41c0,0,31,27,84,43c0,0,53,17,107,17c0,0,134,0,208,-94c0,0,73,-93,73,-267c0,0,0,-178,-80,-276c0,0,-80,-97,-232,-97c0,0,-84,0,-160,16c0,0,4,-53,4,-84V-272l123,-18v-35Z" 
id="f0_9"
transform="scale(0.001,-0.001)" />

<path d="M736,107V473c0,0,0,147,-48,202c0,0,-49,54,-187,54H278V107ZM139,0V836H499c0,0,105,0,177,-22c0,0,72,-21,116,-69c0,0,44,-49,64,-119c0,0,19,-71,19,-174V0Z" 
id="f1_f"
transform="scale(0.001,-0.001)" />

<path d="M383,64c0,0,85,0,152,28V645c0,0,-67,13,-152,13c0,0,-194,0,-194,-314c0,0,0,-141,48,-211c0,0,48,-69,146,-69ZM342,-14c0,0,-287,0,-287,358c0,0,0,184,82,280c0,0,81,96,239,96c0,0,81,0,163,-18c0,0,-4,25,-4,124v182l-118,18v34H659V52L745,33V0H548l-9,52c0,0,-84,-66,-197,-66Z" 
id="f0_p"
transform="scale(0.001,-0.001)" />

<path d="M0,-141L388,1114H514L127,-141Z" 
id="f1_15"
transform="scale(0.001,-0.001)" />

<path d="M138,-7c0,0,-34,0,-72,10V129c0,0,25,-8,52,-8c0,0,33,0,58,5c0,0,26,5,58,24c0,0,33,20,53,54c0,0,21,34,36,97c0,0,15,64,15,151c0,0,0,113,-19,173c0,0,-19,60,-56,82c0,0,-38,22,-107,22H89V836h72c0,0,165,0,240,-91c0,0,76,-91,76,-293c0,0,0,-107,26,-227c0,0,25,-119,83,-225H437c0,0,-43,101,-62,184c0,0,-24,-60,-51,-99c0,0,-26,-38,-56,-58C268,27,239,7,209,0c0,0,-30,-7,-71,-7Z" 
id="f1_o"
transform="scale(0.001,-0.001)" />

<path d="M71,-141V-15L289,62L66,836H210L416,109c0,0,99,42,153,98c0,0,53,56,80,155c0,0,26,98,26,262V836H817V624c0,0,0,-88,-7,-154c0,0,-7,-67,-25,-132c0,0,-18,-66,-51,-116c0,0,-33,-51,-84,-98c0,0,-50,-48,-123,-87c0,0,-72,-39,-169,-74L71,-141Z" 
id="f1_h"
transform="scale(0.001,-0.001)" />

<path d="M399,-14c0,0,-341,0,-341,370c0,0,0,175,87,269c0,0,87,95,249,95c0,0,101,0,220,-23V501H573L541,625c0,0,-62,35,-149,35c0,0,-200,0,-200,-304c0,0,0,-158,61,-225c0,0,61,-67,189,-67c0,0,109,0,189,24V43C631,43,595,16,530,1c0,0,-64,-15,-131,-15Z" 
id="f0_6"
transform="scale(0.001,-0.001)" />

<path d="M289,-14c0,0,-179,0,-179,205V649L20,668v33H233V200c0,0,0,-128,120,-128c0,0,92,0,173,23V649L420,668v33H649V52L738,33V0H533l-6,57C527,57,474,28,405,7c0,0,-69,-21,-116,-21Z" 
id="f0_c"
transform="scale(0.001,-0.001)" />

<path d="M522,92c0,0,247,0,247,333c0,0,0,88,-17,146c0,0,-17,58,-53,91c0,0,-35,33,-82,46c0,0,-48,14,-116,14H276V419c0,0,0,-327,246,-327Zm0,-112c0,0,-193,0,-289,109c0,0,-95,110,-95,337V836H501c0,0,213,0,309,-93c0,0,96,-94,96,-317c0,0,0,-227,-95,-337C811,89,715,-20,522,-20Z" 
id="f1_t"
transform="scale(0.001,-0.001)" />

<path d="M66,0V106H322c0,0,75,0,127,23c0,0,53,23,82,67c0,0,29,43,42,98c0,0,13,54,13,124c0,0,0,70,-13,124c0,0,-13,55,-42,98c0,0,-29,44,-82,67c0,0,-52,23,-127,23H66V836H322c0,0,87,0,157,-24c0,0,70,-24,115,-64c0,0,45,-40,74,-94c0,0,30,-55,43,-113c0,0,13,-59,13,-123c0,0,0,-64,-13,-123c0,0,-13,-58,-43,-113c0,0,-29,-54,-74,-94C594,88,549,48,479,24C479,24,409,0,322,0Z" 
id="f1_c"
transform="scale(0.001,-0.001)" />

<path d="M495,413c0,0,0,133,-34,190c0,0,-34,57,-105,57c0,0,-78,0,-119,-62c0,0,-42,-63,-42,-185ZM374,-14c0,0,-163,0,-239,87c0,0,-75,88,-75,283c0,0,0,183,77,274c0,0,76,90,219,90c0,0,269,0,269,-306V353H194V339c0,0,0,-103,23,-160c0,0,22,-57,70,-86c0,0,47,-30,124,-30c0,0,40,0,96,6c0,0,55,7,91,15V43C598,43,562,19,500,2c0,0,-61,-16,-126,-16ZM285,835v24l146,203H590v-27L326,835Z" 
id="f0_i"
transform="scale(0.001,-0.001)" />

<path d="M0,-14L351,1007h73L75,-14Z" 
id="f0_l"
transform="scale(0.001,-0.001)" />

<path d="M557,-14c0,0,-199,0,-298,89c0,0,-99,90,-99,255V941L32,960v40H432V960L304,941V341c0,0,0,-273,264,-273c0,0,144,0,220,68c0,0,77,68,77,202V941L730,960v40h341V960L943,941V344c0,0,0,-180,-99,-269c0,0,-99,-89,-287,-89Z" 
id="f0_o"
transform="scale(0.001,-0.001)" />

<path d="M494,-20c0,0,-91,0,-181,15c0,0,-90,14,-188,45V283h90c0,0,5,-110,57,-164c0,0,53,-53,156,-53c0,0,109,0,162,73c0,0,53,73,53,224c0,0,0,148,-51,222c0,0,-52,73,-157,73c0,0,-57,0,-102,-23c0,0,-44,-24,-82,-73H176v552H861V918H266V673c0,0,49,38,110,58c0,0,60,19,127,19c0,0,206,0,325,-104c0,0,119,-104,119,-283c0,0,0,-182,-119,-283C828,80,709,-20,494,-20Z" 
id="f2_j"
transform="scale(0.001,-0.001)" />

<path d="M173,-6C173,-6,61,-6,15,9V177c0,0,73,-10,82,-10c0,0,37,0,52,30c0,0,14,29,14,116V658H18V836H516c0,0,262,0,341,-145c0,0,48,-89,48,-242V0H658V450c0,0,0,131,-37,171c0,0,-34,37,-105,37H411V313c0,0,0,-189,-67,-258C344,55,285,-6,173,-6Z" 
id="f3_8"
transform="scale(0.001,-0.001)" />

<path d="M139,0V177H436c0,0,127,0,184,56c0,0,56,55,56,186c0,0,0,132,-58,186c0,0,-58,53,-181,53H386L385,553c0,0,0,-40,12,-54c0,0,12,-15,31,-15c0,0,19,0,38,2V343c0,0,-46,-11,-94,-11c0,0,-48,0,-87,11c0,0,-38,10,-73,34c0,0,-73,53,-73,196V836H487c0,0,203,0,319,-109c0,0,116,-109,116,-309c0,0,0,-200,-117,-309C805,109,689,0,487,0Z" 
id="f3_5"
transform="scale(0.001,-0.001)" />

<path d="M545,163c0,0,162,0,162,262c0,0,0,66,-11,111c0,0,-11,45,-36,71c0,0,-24,25,-56,35c0,0,-31,10,-78,10H383V420c0,0,0,-257,162,-257Zm0,-182c0,0,-205,0,-306,109c0,0,-101,109,-101,335V836H527c0,0,223,0,325,-94c0,0,101,-93,101,-317c0,0,0,-226,-101,-335C852,90,750,-19,545,-19Z" 
id="f3_c"
transform="scale(0.001,-0.001)" />

<path d="M139,0V836H386V0Z" 
id="f3_9"
transform="scale(0.001,-0.001)" />

<path d="M153,0V437L399,539V0ZM664,0V450c0,0,0,122,-31,165c0,0,-31,43,-121,43H138V836H511c0,0,113,0,188,-22c0,0,75,-23,123,-73c0,0,47,-51,68,-127c0,0,20,-76,20,-189V0Z" 
id="f3_e"
transform="scale(0.001,-0.001)" />

<path d="M102,250V836H349V351L102,250Z" 
id="f3_b"
transform="scale(0.001,-0.001)" />

<path d="M154,-13c0,0,-38,0,-85,9V198c0,0,58,-15,103,-15c0,0,84,0,118,60c0,0,35,61,35,206c0,0,0,66,-7,105c0,0,-6,39,-24,63c0,0,-17,25,-44,33c0,0,-27,8,-73,8H66V836H225c0,0,198,0,275,-115c0,0,56,-84,65,-264c0,0,3,-55,3,-148c0,0,0,-177,71,-309L393,1c0,0,-53,130,-54,141c0,0,-28,-90,-65,-123c0,0,-38,-32,-120,-32Z" 
id="f3_v"
transform="scale(0.001,-0.001)" />

<path d="M534,0V425c0,0,0,109,-41,171c0,0,-41,62,-140,62H66V836H352c0,0,99,0,174,-20c0,0,75,-20,123,-55c0,0,48,-35,78,-87c0,0,30,-53,42,-113c0,0,12,-60,12,-136V0Z" 
id="f3_4"
transform="scale(0.001,-0.001)" />

<path d="M139,0V836H512c0,0,219,0,309,-90c0,0,90,-90,90,-297V0H665V467c0,0,0,110,-31,150c0,0,-32,41,-120,41H385V0Z" 
id="f3_r"
transform="scale(0.001,-0.001)" />

<path d="M360,-256c0,0,108,0,167,35c0,0,59,35,59,98c0,0,0,70,-95,70H254c0,0,-65,-47,-65,-108c0,0,0,-47,46,-71c0,0,45,-24,125,-24Zm9,561c0,0,55,0,79,43c0,0,25,43,25,129c0,0,0,87,-24,127c0,0,-25,41,-80,41c0,0,-52,0,-75,-41c0,0,-24,-40,-24,-127c0,0,0,-86,23,-129c0,0,23,-43,76,-43Zm-9,-641c0,0,-153,0,-236,43c0,0,-84,44,-84,120c0,0,0,33,28,65c0,0,27,31,105,76c0,0,-44,17,-75,59c0,0,-31,43,-31,90L192,258c0,0,-133,56,-133,219c0,0,0,116,81,180c0,0,82,63,233,63c0,0,32,0,82,-6c0,0,51,-6,74,-13l168,83l26,-32L638,631c0,0,46,-57,46,-154c0,0,0,-119,-80,-182c0,0,-80,-64,-234,-64c0,0,-59,0,-114,9L238,183c0,0,1,-22,28,-41c0,0,26,-19,64,-19H493c0,0,256,0,256,-196c0,0,0,-81,-44,-139c0,0,-45,-59,-131,-92c0,0,-86,-32,-214,-32Z" 
id="f4_18"
transform="scale(0.001,-0.001)" />

<path d="M64,-325c0,0,-46,0,-107,14v148H-8l19,-81c0,0,25,-21,62,-21c0,0,44,0,67,47c0,0,22,47,22,152V649L57,668v33H286V-28c0,0,0,-146,-57,-221c0,0,-56,-76,-165,-76ZM213,850c0,0,-34,0,-58,24c0,0,-24,24,-24,56c0,0,0,34,24,58c0,0,24,24,58,24c0,0,32,0,56,-24c0,0,24,-24,24,-58c0,0,0,-32,-24,-56c0,0,-24,-24,-56,-24Z" 
id="f0_1a"
transform="scale(0.001,-0.001)" />

<path d="M360,-14L72,649L0,668v33H327V668L216,648L420,164L615,649L504,668v33H764V668L697,652L416,-14Z" 
id="f0_s"
transform="scale(0.001,-0.001)" />

<path d="M522,-20c0,0,-196,0,-290,99c0,0,-94,100,-94,324V836H276V397c0,0,0,-86,16,-147c0,0,17,-60,50,-94c0,0,34,-34,77,-49c0,0,43,-15,103,-15c0,0,59,0,102,15c0,0,44,15,77,49c0,0,33,34,50,94c0,0,17,61,17,147c0,0,0,84,-8,143c0,0,-7,58,-25,105c0,0,-17,47,-51,69c0,0,-33,23,-83,23c0,0,-50,0,-119,-22V821c0,0,85,23,150,23c0,0,76,0,130,-30c0,0,53,-31,85,-90c0,0,31,-59,45,-138c0,0,13,-78,13,-183c0,0,0,-224,-93,-324c0,0,-94,-99,-290,-99Z" 
id="f1_9"
transform="scale(0.001,-0.001)" />

<path d="M114,0l60,312c0,0,2,12,8,39c0,0,6,27,7,37c0,0,2,11,5,30c0,0,2,19,4,33c0,0,1,15,1,31c0,0,0,48,-35,146c0,0,-35,98,-98,208H228c0,0,3,-8,27,-67c0,0,25,-58,41,-117c0,0,21,53,50,90c0,0,29,37,57,57c0,0,29,21,65,32c0,0,37,11,65,14c0,0,28,3,67,3c0,0,300,0,300,-396V0H480V106H761V452c0,0,0,146,-46,215c0,0,-45,70,-118,70c0,0,-134,0,-198,-119c0,0,-36,-68,-67,-222c0,0,-2,-10,-6,-27L253,0Z" 
id="f1_j"
transform="scale(0.001,-0.001)" />

<path d="M117,-176L179,62V190H336V62L213,-176Z" 
id="f1_r"
transform="scale(0.001,-0.001)" />

<path d="M248,0L521,658H66v429H313V836l493,-1V716L504,0Z" 
id="f3_l"
transform="scale(0.001,-0.001)" />

<path d="M82,0V177H500L50,836H328L560,491c0,0,56,19,56,124V836H861V671c0,0,0,-116,-45,-192c0,0,-40,-68,-85,-90c0,0,-50,-26,-71,-26c0,0,-1,0,-1,0L838,96V0Z" 
id="f3_t"
transform="scale(0.001,-0.001)" />

<path d="M129,0l69,362c0,0,10,56,12,100c0,0,0,84,-27,159c0,0,-27,76,-117,215H322c0,0,9,-6,31,-79c0,0,23,-72,23,-105c0,0,23,82,100,138c0,0,77,57,160,57c0,0,332,0,332,-397V0H538V177H721V449c0,0,0,124,-20,170c0,0,-20,47,-82,47c0,0,-23,0,-43,-9c0,0,-19,-10,-34,-23c0,0,-14,-14,-27,-39c0,0,-13,-25,-22,-46c0,0,-8,-22,-17,-57c0,0,-9,-36,-15,-61c0,0,-5,-24,-13,-65L375,0Z" 
id="f3_m"
transform="scale(0.001,-0.001)" />

<path d="M137,0L30,830H277L321,522c0,0,68,3,96,27c0,0,27,23,38,58c0,0,26,74,31,228H733c0,0,-31,-218,-70,-316c0,0,-23,-59,-88,-100c0,0,-54,-34,-116,-42c0,0,-62,-8,-117,-8L362,178c0,0,27,-1,61,-1c40,0,89,1,119,6c0,0,57,8,94,25c0,0,37,18,69,47c0,0,32,30,60,79c0,0,28,48,51,117c0,0,48,143,82,384h248c0,0,-53,-404,-172,-586C974,249,879,103,745,51C745,51,613,0,318,0Z" 
id="f3_g"
transform="scale(0.001,-0.001)" />

<path d="M542,66c0,0,77,0,110,65c0,0,32,65,32,226c0,0,0,162,-32,227c0,0,-33,65,-110,65c0,0,-77,0,-110,-65c0,0,-32,-65,-32,-227c0,0,0,-161,32,-226c0,0,33,-65,110,-65Zm17,-86c0,0,-228,0,-346,136C213,116,96,254,96,521c0,0,0,304,130,458c0,0,131,155,387,155c0,0,67,0,144,-11c0,0,77,-11,165,-34V893H832c0,0,-19,76,-70,115c0,0,-52,39,-134,39c0,0,-133,0,-192,-91c0,0,-60,-91,-61,-295c0,0,49,38,109,58c0,0,60,19,131,19c0,0,171,0,268,-100c0,0,98,-100,98,-274c0,0,0,-185,-110,-285c0,0,-110,-99,-312,-99Z" 
id="f2_k"
transform="scale(0.001,-0.001)" />

<path d="M41,0V34L426,641H261c0,0,-42,0,-80,-7c0,0,-39,-7,-54,-19L104,515H69V701H586V665L201,60H407c0,0,42,0,89,10c0,0,47,10,66,25l39,147h35L617,0Z" 
id="f0_18"
transform="scale(0.001,-0.001)" />

<path d="M359,-270c0,0,124,0,192,46c0,0,67,47,67,129c0,0,0,43,-26,67c0,0,-26,24,-79,24H242c0,0,-32,-27,-51,-69c0,0,-20,-41,-20,-77c0,0,0,-64,46,-92c0,0,46,-28,142,-28Zm11,561c0,0,81,0,115,47c0,0,34,47,34,141c0,0,0,100,-35,142c0,0,-35,42,-113,42c0,0,-78,0,-114,-43c0,0,-37,-42,-37,-141c0,0,0,-98,36,-143c0,0,36,-45,114,-45ZM359,-329c0,0,-143,0,-218,44c0,0,-75,43,-75,125c0,0,0,39,27,78c0,0,26,38,98,89c0,0,-43,14,-72,48c0,0,-29,35,-29,74L208,262c0,0,-118,55,-118,217c0,0,0,115,73,178c0,0,73,63,211,63c0,0,28,0,71,-6c0,0,44,-6,67,-13l165,83l26,-32L599,644c0,0,50,-56,50,-165c0,0,0,-120,-72,-182c0,0,-73,-62,-208,-62c0,0,-62,0,-114,11L208,148c0,0,2,-13,29,-24c0,0,27,-12,67,-12H512c0,0,113,0,168,-49c0,0,55,-49,55,-134c0,0,0,-79,-44,-137c0,0,-43,-58,-128,-90c0,0,-84,-31,-204,-31Z" 
id="f0_13"
transform="scale(0.001,-0.001)" />

<path d="M383,64c0,0,44,0,87,7c0,0,43,7,65,17V645c0,0,-67,13,-152,13c0,0,-194,0,-194,-309c0,0,0,-143,48,-214c0,0,47,-71,146,-71Zm56,-389v35l96,18V-77c0,0,0,73,7,124c0,0,-79,-61,-200,-61c0,0,-287,0,-287,362c0,0,0,180,81,276c0,0,81,96,237,96c0,0,84,0,166,-18l67,33h53V-272l77,-18v-35Z" 
id="f0_16"
transform="scale(0.001,-0.001)" />

<path d="M190,0V127H436V977L168,923v137l267,54H586V127H832V0Z" 
id="f1_z"
transform="scale(0.001,-0.001)" />

<path d="M111,0V127c0,0,86,89,234,238c0,0,148,150,186,193c0,0,73,81,101,138c0,0,29,56,29,110c0,0,0,89,-62,145c0,0,-62,56,-162,56c0,0,-71,0,-150,-25c0,0,-78,-24,-168,-75v153c0,0,91,37,170,55c0,0,79,19,145,19c0,0,173,0,276,-86c0,0,103,-87,103,-232c0,0,0,-68,-26,-130c0,0,-26,-61,-94,-145c0,0,-18,-22,-118,-125C575,416,475,313,293,127H818V0Z" 
id="f1_10"
transform="scale(0.001,-0.001)" />


</defs>
</svg>