<?xml version="1.0" encoding="UTF-8" standalone="no"?>
<!DOCTYPE svg PUBLIC "-//W3C//DTD SVG 1.1//EN"
"http://www.w3.org/Graphics/SVG/1.1/DTD/svg11.dtd">
<svg viewBox="0 0 909 1286" version="1.1" xmlns="http://www.w3.org/2000/svg" xmlns:xlink="http://www.w3.org/1999/xlink">
<defs>
<clipPath id="c0_2"><path d="M0,1286.2V0H909.4V1286.2Z" /></clipPath>
<style type="text/css"><![CDATA[
.g0_2{
fill: #D8D8D8;
}
.g1_2{
fill: none;
stroke: #000000;
stroke-width: 0.7638889;
stroke-linecap: butt;
stroke-linejoin: round;
}
]]></style>
</defs>
<path fill-rule="evenodd" d="M555.2,307.2H771.9V285.1H555.2v22.1Z" class="g0_2" />
<path fill-rule="evenodd" d="M338.2,307.2H555.1V285.1H338.2v22.1Z" class="g0_2" />
<path fill-rule="evenodd" d="M121.3,307.2H338.2V285.1H121.3v22.1Z" class="g0_2" />
<path fill-rule="evenodd" d="M510.3,822.5H642V797.2H510.3v25.3Z" class="g0_2" />
<path fill-rule="evenodd" d="M378.4,822.5H510.2V797.2H378.4v25.3Z" class="g0_2" />
<path fill-rule="evenodd" d="M642.1,842.6H771.9v-20H642.1v20Z" class="g0_2" />
<path fill-rule="evenodd" d="M642.1,862.7H771.9v-20H642.1v20Z" class="g0_2" />
<path fill-rule="evenodd" d="M642.1,882.8H771.9V862.7H642.1v20.1Z" class="g0_2" />
<path fill-rule="evenodd" d="M642.1,902.8H771.9V882.9H642.1v19.9Z" class="g0_2" />
<path fill-rule="evenodd" d="M642.1,923H771.9V902.9H642.1V923Z" class="g0_2" />
<path fill-rule="evenodd" d="M555.2,307.2H771.9V285.1H555.2v22.1Z" class="g0_2" />
<path fill-rule="evenodd" d="M338.2,307.2H555.1V285.1H338.2v22.1Z" class="g0_2" />
<path fill-rule="evenodd" d="M121.3,307.2H338.2V285.1H121.3v22.1Z" class="g0_2" />
<path fill-rule="evenodd" d="M510.3,822.5H642V797.2H510.3v25.3Z" class="g0_2" />
<path fill-rule="evenodd" d="M378.4,822.5H510.2V797.2H378.4v25.3Z" class="g0_2" />
<path fill-rule="evenodd" d="M642.1,842.6H771.9v-20H642.1v20Z" class="g0_2" />
<path fill-rule="evenodd" d="M642.1,862.7H771.9v-20H642.1v20Z" class="g0_2" />
<path fill-rule="evenodd" d="M642.1,882.8H771.9V862.7H642.1v20.1Z" class="g0_2" />
<path fill-rule="evenodd" d="M642.1,902.8H771.9V882.9H642.1v19.9Z" class="g0_2" />
<path fill-rule="evenodd" d="M642.1,923H771.9V902.9H642.1V923Z" class="g0_2" />
<g clip-path="url(#c0_2)">
<g fill="#000000" >
<use xlink:href="#f0_f" transform="matrix(12,0,0,12,439.4,173.9)" />
<use xlink:href="#f0_g" transform="matrix(12,0,0,12,452.2,173.9)" />
<use xlink:href="#f0_h" transform="matrix(12,0,0,12,457.6,173.9)" />
<use xlink:href="#f0_h" transform="matrix(12,0,0,12,468.6,173.9)" />
<use xlink:href="#f0_i" transform="matrix(12,0,0,12,479.7,173.9)" />
<use xlink:href="#f0_h" transform="matrix(12,0,0,12,489.9,173.9)" />
<use xlink:href="#f0_j" transform="matrix(12,0,0,12,507.6,173.9)" />
<use xlink:href="#f0_4" transform="matrix(12,0,0,12,520.1,173.9)" />
<use xlink:href="#f0_b" transform="matrix(12,0,0,12,531.1,173.9)" />
<use xlink:href="#f0_i" transform="matrix(12,0,0,12,537.4,173.9)" />
<use xlink:href="#f0_c" transform="matrix(12,0,0,12,547.8,173.9)" />
<use xlink:href="#f0_j" transform="matrix(12,0,0,12,555.1,173.9)" />
<use xlink:href="#f0_k" transform="matrix(12,0,0,12,573.9,173.9)" />
<use xlink:href="#f0_7" transform="matrix(12,0,0,12,588,173.9)" />
<use xlink:href="#f0_8" transform="matrix(12,0,0,12,600.6,173.9)" />
<use xlink:href="#f0_g" transform="matrix(12,0,0,12,612.8,173.9)" />
<use xlink:href="#f0_n" transform="matrix(12,0,0,12,618.1,173.9)" />
<use xlink:href="#f0_g" transform="matrix(12,0,0,12,629,173.9)" />
<use xlink:href="#f0_7" transform="matrix(12,0,0,12,634.3,173.9)" />
<use xlink:href="#f0_o" transform="matrix(12,0,0,12,653.2,173.9)" />
<use xlink:href="#f0_7" transform="matrix(12,0,0,12,658.9,173.9)" />
<use xlink:href="#f0_p" transform="matrix(12,0,0,12,677.8,173.9)" />
<use xlink:href="#f0_f" transform="matrix(12,0,0,12,684.8,173.9)" />
<use xlink:href="#f0_g" transform="matrix(12,0,0,12,697.6,173.9)" />
<use xlink:href="#f0_l" transform="matrix(12,0,0,12,702.9,173.9)" />
<use xlink:href="#f0_4" transform="matrix(12,0,0,12,714.1,173.9)" />
<use xlink:href="#f0_b" transform="matrix(12,0,0,12,725.1,173.9)" />
<use xlink:href="#f0_n" transform="matrix(12,0,0,12,737.8,173.9)" />
<use xlink:href="#f0_g" transform="matrix(12,0,0,12,748.6,173.9)" />
<use xlink:href="#f0_d" transform="matrix(12,0,0,12,754,173.9)" />
<use xlink:href="#f0_g" transform="matrix(12,0,0,12,766.5,173.9)" />
<use xlink:href="#f1_y" transform="matrix(12,0,0,12,504.6,195.3)" />
<use xlink:href="#f1_b" transform="matrix(12,0,0,12,517.6,195.3)" />
<use xlink:href="#f1_c" transform="matrix(12,0,0,12,529.6,195.3)" />
<use xlink:href="#f1_p" transform="matrix(12,0,0,12,534.7,195.3)" />
<use xlink:href="#f1_c" transform="matrix(12,0,0,12,546.1,195.3)" />
<use xlink:href="#f1_d" transform="matrix(12,0,0,12,551.2,195.3)" />
<use xlink:href="#f1_b" transform="matrix(12,0,0,12,558.5,195.3)" />
<use xlink:href="#f1_f" transform="matrix(12,0,0,12,570.5,195.3)" />
<use xlink:href="#f1_b" transform="matrix(12,0,0,12,586.9,195.3)" />
<use xlink:href="#f1_l" transform="matrix(12,0,0,12,598.9,195.3)" />
<use xlink:href="#f1_q" transform="matrix(12,0,0,12,611.3,195.3)" />
<use xlink:href="#f1_q" transform="matrix(12,0,0,12,615.4,195.3)" />
<use xlink:href="#f1_b" transform="matrix(12,0,0,12,619.5,195.3)" />
<use xlink:href="#f1_g" transform="matrix(12,0,0,12,631.6,195.3)" />
<use xlink:href="#f1_l" transform="matrix(12,0,0,12,643.5,195.3)" />
<use xlink:href="#f1_o" transform="matrix(12,0,0,12,655.8,195.3)" />
<use xlink:href="#f1_3" transform="matrix(12,0,0,12,674.8,195.3)" />
<use xlink:href="#f1_e" transform="matrix(12,0,0,12,686.7,195.3)" />
<use xlink:href="#f1_q" transform="matrix(12,0,0,12,697.1,195.3)" />
<use xlink:href="#f1_l" transform="matrix(12,0,0,12,701,195.3)" />
<use xlink:href="#f1_e" transform="matrix(12,0,0,12,719.5,195.3)" />
<use xlink:href="#f1_n" transform="matrix(12,0,0,12,729.9,195.3)" />
<use xlink:href="#f1_e" transform="matrix(12,0,0,12,739.5,195.3)" />
<use xlink:href="#f2_3" transform="matrix(11,0,0,11,464.3,195.3)" />
<use xlink:href="#f2_z" transform="matrix(11,0,0,11,471.8,195.3)" />
<use xlink:href="#f2_9" transform="matrix(11,0,0,11,480.1,195.3)" />
<use xlink:href="#f2_z" transform="matrix(11,0,0,11,488.5,195.3)" />
<use xlink:href="#f2_6" transform="matrix(11,0,0,11,496.9,195.3)" />
<use xlink:href="#f1_b" transform="matrix(12,0,0,12,322.1,195.3)" />
<use xlink:href="#f1_l" transform="matrix(12,0,0,12,334.1,195.3)" />
<use xlink:href="#f1_c" transform="matrix(12,0,0,12,346.6,195.3)" />
<use xlink:href="#f1_q" transform="matrix(12,0,0,12,351.5,195.3)" />
<use xlink:href="#f1_g" transform="matrix(12,0,0,12,355.6,195.3)" />
<use xlink:href="#f1_10" transform="matrix(12,0,0,12,373.3,195.3)" />
<use xlink:href="#f1_q" transform="matrix(12,0,0,12,385.1,195.3)" />
<use xlink:href="#f1_g" transform="matrix(12,0,0,12,389.2,195.3)" />
<use xlink:href="#f1_c" transform="matrix(12,0,0,12,401.1,195.3)" />
<use xlink:href="#f1_3" transform="matrix(12,0,0,12,406.1,195.3)" />
<use xlink:href="#f1_e" transform="matrix(12,0,0,12,418,195.3)" />
<use xlink:href="#f1_o" transform="matrix(12,0,0,12,434.2,195.3)" />
<use xlink:href="#f1_q" transform="matrix(12,0,0,12,447.2,195.3)" />
<use xlink:href="#f1_x" transform="matrix(12,0,0,12,457.1,195.3)" />
<use xlink:href="#f2_4" transform="matrix(11,0,0,11,309.7,195.3)" />
<use xlink:href="#f1_m" transform="matrix(12,0,0,12,304,195.3)" />
<use xlink:href="#f1_10" transform="matrix(12,0,0,12,391.6,216.6)" />
<use xlink:href="#f1_q" transform="matrix(12,0,0,12,403.2,216.6)" />
<use xlink:href="#f1_g" transform="matrix(12,0,0,12,407.3,216.6)" />
<use xlink:href="#f1_c" transform="matrix(12,0,0,12,419.2,216.6)" />
<use xlink:href="#f1_3" transform="matrix(12,0,0,12,424.2,216.6)" />
<use xlink:href="#f1_e" transform="matrix(12,0,0,12,436.1,216.6)" />
<use xlink:href="#f1_o" transform="matrix(12,0,0,12,452.3,216.6)" />
<use xlink:href="#f1_q" transform="matrix(12,0,0,12,465.3,216.6)" />
<use xlink:href="#f1_a" transform="matrix(12,0,0,12,475.4,216.6)" />
<use xlink:href="#f1_3" transform="matrix(12,0,0,12,481.2,216.6)" />
<use xlink:href="#f1_p" transform="matrix(12,0,0,12,493.1,216.6)" />
<use xlink:href="#f1_c" transform="matrix(12,0,0,12,504.5,216.6)" />
<use xlink:href="#f1_d" transform="matrix(12,0,0,12,509.6,216.6)" />
<use xlink:href="#f1_b" transform="matrix(12,0,0,12,516.9,216.6)" />
<use xlink:href="#f1_f" transform="matrix(12,0,0,12,528.9,216.6)" />
<use xlink:href="#f1_b" transform="matrix(12,0,0,12,545.3,216.6)" />
<use xlink:href="#f1_l" transform="matrix(12,0,0,12,557.3,216.6)" />
<use xlink:href="#f1_q" transform="matrix(12,0,0,12,569.8,216.6)" />
<use xlink:href="#f1_q" transform="matrix(12,0,0,12,573.8,216.6)" />
<use xlink:href="#f1_b" transform="matrix(12,0,0,12,577.9,216.6)" />
<use xlink:href="#f1_g" transform="matrix(12,0,0,12,590,216.6)" />
<use xlink:href="#f1_l" transform="matrix(12,0,0,12,601.7,216.6)" />
<use xlink:href="#f1_3" transform="matrix(12,0,0,12,620.2,216.6)" />
<use xlink:href="#f1_d" transform="matrix(12,0,0,12,632.1,216.6)" />
<use xlink:href="#f1_q" transform="matrix(12,0,0,12,639.5,216.6)" />
<use xlink:href="#f1_9" transform="matrix(12,0,0,12,643.6,216.6)" />
<use xlink:href="#f1_o" transform="matrix(12,0,0,12,655.8,216.6)" />
<use xlink:href="#f1_3" transform="matrix(12,0,0,12,674.7,216.6)" />
<use xlink:href="#f1_e" transform="matrix(12,0,0,12,686.7,216.6)" />
<use xlink:href="#f1_q" transform="matrix(12,0,0,12,697,216.6)" />
<use xlink:href="#f1_l" transform="matrix(12,0,0,12,701,216.6)" />
<use xlink:href="#f1_e" transform="matrix(12,0,0,12,719.5,216.6)" />
<use xlink:href="#f1_n" transform="matrix(12,0,0,12,729.9,216.6)" />
<use xlink:href="#f1_e" transform="matrix(12,0,0,12,739.5,216.6)" />
<use xlink:href="#f2_6" transform="matrix(11,0,0,11,371.4,216.6)" />
<use xlink:href="#f2_4" transform="matrix(11,0,0,11,378.9,216.6)" />
<use xlink:href="#f1_m" transform="matrix(12,0,0,12,365.8,216.6)" />
<use xlink:href="#f1_f" transform="matrix(12,0,0,12,571.5,238)" />
<use xlink:href="#f1_b" transform="matrix(12,0,0,12,588,238)" />
<use xlink:href="#f1_l" transform="matrix(12,0,0,12,599.9,238)" />
<use xlink:href="#f1_q" transform="matrix(12,0,0,12,612.4,238)" />
<use xlink:href="#f1_q" transform="matrix(12,0,0,12,616.6,238)" />
<use xlink:href="#f1_b" transform="matrix(12,0,0,12,620.7,238)" />
<use xlink:href="#f1_g" transform="matrix(12,0,0,12,632.6,238)" />
<use xlink:href="#f1_l" transform="matrix(12,0,0,12,644.5,238)" />
<use xlink:href="#f1_3" transform="matrix(12,0,0,12,657,238)" />
<use xlink:href="#f1_3" transform="matrix(12,0,0,12,674.8,238)" />
<use xlink:href="#f1_e" transform="matrix(12,0,0,12,686.8,238)" />
<use xlink:href="#f1_q" transform="matrix(12,0,0,12,697.1,238)" />
<use xlink:href="#f1_l" transform="matrix(12,0,0,12,701.1,238)" />
<use xlink:href="#f1_e" transform="matrix(12,0,0,12,719.6,238)" />
<use xlink:href="#f1_n" transform="matrix(12,0,0,12,730,238)" />
<use xlink:href="#f1_e" transform="matrix(12,0,0,12,739.6,238)" />
<use xlink:href="#f2_t" transform="matrix(11,0,0,11,557.9,238)" />
<use xlink:href="#f1_3" transform="matrix(12,0,0,12,432.8,238)" />
<use xlink:href="#f1_b" transform="matrix(12,0,0,12,450.5,238)" />
<use xlink:href="#f1_9" transform="matrix(12,0,0,12,462.6,238)" />
<use xlink:href="#f1_u" transform="matrix(12,0,0,12,480.7,238)" />
<use xlink:href="#f1_c" transform="matrix(12,0,0,12,490.5,238)" />
<use xlink:href="#f1_8" transform="matrix(12,0,0,12,495.5,238)" />
<use xlink:href="#f1_3" transform="matrix(12,0,0,12,507,238)" />
<use xlink:href="#f1_e" transform="matrix(12,0,0,12,518.9,238)" />
<use xlink:href="#f1_o" transform="matrix(12,0,0,12,535.1,238)" />
<use xlink:href="#f1_q" transform="matrix(12,0,0,12,548.1,238)" />
<use xlink:href="#f2_t" transform="matrix(11,0,0,11,419.2,238)" />
<use xlink:href="#f1_e" transform="matrix(12,0,0,12,403.2,238)" />
<use xlink:href="#f2_f" transform="matrix(11,0,0,11,389.7,238)" />
<use xlink:href="#f1_e" transform="matrix(12,0,0,12,276.2,238)" />
<use xlink:href="#f1_q" transform="matrix(12,0,0,12,286.6,238)" />
<use xlink:href="#f1_j" transform="matrix(12,0,0,12,290.7,238)" />
<use xlink:href="#f1_7" transform="matrix(12,0,0,12,298.2,238)" />
<use xlink:href="#f1_n" transform="matrix(12,0,0,12,308.6,238)" />
<use xlink:href="#f1_10" transform="matrix(12,0,0,12,324,238)" />
<use xlink:href="#f1_q" transform="matrix(12,0,0,12,335.6,238)" />
<use xlink:href="#f1_g" transform="matrix(12,0,0,12,339.7,238)" />
<use xlink:href="#f1_c" transform="matrix(12,0,0,12,351.6,238)" />
<use xlink:href="#f1_3" transform="matrix(12,0,0,12,356.6,238)" />
<use xlink:href="#f1_e" transform="matrix(12,0,0,12,368.5,238)" />
<use xlink:href="#f1_c" transform="matrix(12,0,0,12,378.9,238)" />
<use xlink:href="#f2_6" transform="matrix(11,0,0,11,256.1,238)" />
<use xlink:href="#f2_4" transform="matrix(11,0,0,11,263.4,238)" />
<use xlink:href="#f1_m" transform="matrix(12,0,0,12,250.4,238)" />
<use xlink:href="#f1_m" transform="matrix(12,0,0,12,487.2,280.3)" />
<use xlink:href="#f1_3" transform="matrix(12,0,0,12,493,280.3)" />
<use xlink:href="#f1_p" transform="matrix(12,0,0,12,504.9,280.3)" />
<use xlink:href="#f1_q" transform="matrix(12,0,0,12,516.4,280.3)" />
<use xlink:href="#f1_r" transform="matrix(12,0,0,12,520.5,280.3)" />
<use xlink:href="#f1_q" transform="matrix(12,0,0,12,530.6,280.3)" />
<use xlink:href="#f1_3" transform="matrix(12,0,0,12,534.7,280.3)" />
<use xlink:href="#f1_11" transform="matrix(12,0,0,12,552.4,280.3)" />
<use xlink:href="#f1_3" transform="matrix(12,0,0,12,557.4,280.3)" />
<use xlink:href="#f1_10" transform="matrix(12,0,0,12,575.1,280.3)" />
<use xlink:href="#f1_g" transform="matrix(12,0,0,12,586.9,280.3)" />
<use xlink:href="#f1_c" transform="matrix(12,0,0,12,598.8,280.3)" />
<use xlink:href="#f1_3" transform="matrix(12,0,0,12,603.8,280.3)" />
<use xlink:href="#f1_c" transform="matrix(12,0,0,12,615.7,280.3)" />
<use xlink:href="#f1_i" transform="matrix(12,0,0,12,626.6,280.3)" />
<use xlink:href="#f1_q" transform="matrix(12,0,0,12,638.8,280.3)" />
<use xlink:href="#f1_f" transform="matrix(12,0,0,12,642.9,280.3)" />
<use xlink:href="#f1_7" transform="matrix(12,0,0,12,653.4,280.3)" />
<use xlink:href="#f1_e" transform="matrix(12,0,0,12,663.8,280.3)" />
<use xlink:href="#f1_u" transform="matrix(12,0,0,12,680,280.3)" />
<use xlink:href="#f1_c" transform="matrix(12,0,0,12,689.8,280.3)" />
<use xlink:href="#f1_8" transform="matrix(12,0,0,12,694.8,280.3)" />
<use xlink:href="#f1_3" transform="matrix(12,0,0,12,706.2,280.3)" />
<use xlink:href="#f1_a" transform="matrix(12,0,0,12,724.1,280.3)" />
<use xlink:href="#f1_i" transform="matrix(12,0,0,12,729.9,280.3)" />
<use xlink:href="#f1_j" transform="matrix(12,0,0,12,742.1,280.3)" />
<use xlink:href="#f1_7" transform="matrix(12,0,0,12,749.6,280.3)" />
<use xlink:href="#f1_b" transform="matrix(12,0,0,12,759.8,280.3)" />
<use xlink:href="#f3_2" transform="matrix(13,0,0,13,356.4,280.3)" />
<use xlink:href="#f3_3" transform="matrix(13,0,0,13,371.6,280.3)" />
<use xlink:href="#f3_4" transform="matrix(13,0,0,13,378.7,280.3)" />
<use xlink:href="#f3_5" transform="matrix(13,0,0,13,391.4,280.3)" />
<use xlink:href="#f3_6" transform="matrix(13,0,0,13,401.8,280.3)" />
<use xlink:href="#f3_7" transform="matrix(13,0,0,13,413.8,280.3)" />
<use xlink:href="#f3_6" transform="matrix(13,0,0,13,421.3,280.3)" />
<use xlink:href="#f3_7" transform="matrix(13,0,0,13,433.4,280.3)" />
<use xlink:href="#f3_8" transform="matrix(13,0,0,13,440.9,280.3)" />
<use xlink:href="#f3_c" transform="matrix(13,0,0,13,461.4,280.3)" />
<use xlink:href="#f0_k" transform="matrix(12,0,0,12,342.5,280.3)" />
</g>
</g>
<path d="M120.9,285.5H772.4M120.9,307.6H772.4M120.9,329.8H772.4M120.9,351.9H772.4m-651.5,20H772.4M120.9,392.1H772.4m-651.5,20H772.4M120.9,432.3H772.4m-651.5,20H772.4M120.9,472.5H772.4m-651.5,20H772.4M120.9,512.6H772.4M120.9,532.7H772.4M121.3,285.1V533M338.2,285.1V533m217,-247.9V533M772,285.1V533" class="g1_2" />
<g clip-path="url(#c0_2)">
<g fill="#000000" >
<use xlink:href="#f1_i" transform="matrix(12,0,0,12,726.8,302.8)" />
<use xlink:href="#f1_q" transform="matrix(12,0,0,12,738.8,302.8)" />
<use xlink:href="#f1_f" transform="matrix(12,0,0,12,742.9,302.8)" />
<use xlink:href="#f1_7" transform="matrix(12,0,0,12,753.5,302.8)" />
<use xlink:href="#f1_r" transform="matrix(12,0,0,12,516.7,302.8)" />
<use xlink:href="#f1_q" transform="matrix(12,0,0,12,526.8,302.8)" />
<use xlink:href="#f1_h" transform="matrix(12,0,0,12,530.9,302.8)" />
<use xlink:href="#f1_q" transform="matrix(12,0,0,12,542.8,302.8)" />
<use xlink:href="#f2_a" transform="matrix(11,0,0,11,280.3,301.4)" />
<use xlink:href="#f2_6" transform="matrix(11,0,0,11,292.4,301.4)" />
<use xlink:href="#f2_b" transform="matrix(11,0,0,11,299.9,301.4)" />
<use xlink:href="#f2_c" transform="matrix(11,0,0,11,308.3,301.4)" />
<use xlink:href="#f2_6" transform="matrix(11,0,0,11,313.9,301.4)" />
<use xlink:href="#f2_9" transform="matrix(11,0,0,11,321.4,301.4)" />
<use xlink:href="#f4_b" transform="matrix(11,0,0,11,563.9,323.6)" />
<use xlink:href="#f4_5" transform="matrix(11,0,0,11,568.6,323.6)" />
<use xlink:href="#f4_2" transform="matrix(11,0,0,11,577,323.6)" />
<use xlink:href="#f4_g" transform="matrix(11,0,0,11,587.7,323.6)" />
<use xlink:href="#f4_5" transform="matrix(11,0,0,11,596.1,323.6)" />
<use xlink:href="#f4_b" transform="matrix(11,0,0,11,604.5,323.6)" />
<use xlink:href="#f4_2" transform="matrix(11,0,0,11,609.2,323.6)" />
<use xlink:href="#f4_a" transform="matrix(11,0,0,11,615.6,323.6)" />
<use xlink:href="#f4_b" transform="matrix(11,0,0,11,620.4,323.6)" />
<use xlink:href="#f4_b" transform="matrix(11,0,0,11,625,323.6)" />
<use xlink:href="#f4_5" transform="matrix(11,0,0,11,629.7,323.6)" />
<use xlink:href="#f4_2" transform="matrix(11,0,0,11,638.1,323.6)" />
<use xlink:href="#f4_e" transform="matrix(11,0,0,11,347,323.6)" />
<use xlink:href="#f4_b" transform="matrix(11,0,0,11,354.4,323.6)" />
<use xlink:href="#f4_g" transform="matrix(11,0,0,11,363.3,323.6)" />
<use xlink:href="#f4_5" transform="matrix(11,0,0,11,371.7,323.6)" />
<use xlink:href="#f4_b" transform="matrix(11,0,0,11,380.1,323.6)" />
<use xlink:href="#f4_2" transform="matrix(11,0,0,11,384.8,323.6)" />
<use xlink:href="#f4_a" transform="matrix(11,0,0,11,391.2,323.6)" />
<use xlink:href="#f4_b" transform="matrix(11,0,0,11,395.9,323.6)" />
<use xlink:href="#f4_b" transform="matrix(11,0,0,11,400.5,323.6)" />
<use xlink:href="#f4_5" transform="matrix(11,0,0,11,405.2,323.6)" />
<use xlink:href="#f5_8" transform="matrix(12,0,0,12,304.3,325)" />
<use xlink:href="#f5_3" transform="matrix(12,0,0,12,316.2,325)" />
<use xlink:href="#f5_9" transform="matrix(12,0,0,12,320.3,325)" />
<use xlink:href="#f4_b" transform="matrix(11,0,0,11,563.9,345.7)" />
<use xlink:href="#f4_3" transform="matrix(11,0,0,11,568.6,345.7)" />
<use xlink:href="#f4_2" transform="matrix(11,0,0,11,577,345.7)" />
<use xlink:href="#f4_h" transform="matrix(11,0,0,11,587.7,345.7)" />
<use xlink:href="#f4_i" transform="matrix(11,0,0,11,596.1,345.7)" />
<use xlink:href="#f4_e" transform="matrix(11,0,0,11,604.5,345.7)" />
<use xlink:href="#f4_f" transform="matrix(11,0,0,11,612,345.7)" />
<use xlink:href="#f4_d" transform="matrix(11,0,0,11,618.4,345.7)" />
<use xlink:href="#f4_3" transform="matrix(11,0,0,11,623.1,345.7)" />
<use xlink:href="#f4_2" transform="matrix(11,0,0,11,631.5,345.7)" />
<use xlink:href="#f4_b" transform="matrix(11,0,0,11,347,345.7)" />
<use xlink:href="#f4_3" transform="matrix(11,0,0,11,351.7,345.7)" />
<use xlink:href="#f4_h" transform="matrix(11,0,0,11,364.2,345.7)" />
<use xlink:href="#f4_i" transform="matrix(11,0,0,11,372.6,345.7)" />
<use xlink:href="#f4_e" transform="matrix(11,0,0,11,381,345.7)" />
<use xlink:href="#f4_f" transform="matrix(11,0,0,11,388.5,345.7)" />
<use xlink:href="#f4_d" transform="matrix(11,0,0,11,395,345.7)" />
<use xlink:href="#f4_3" transform="matrix(11,0,0,11,399.7,345.7)" />
<use xlink:href="#f5_a" transform="matrix(12,0,0,12,297.5,347.1)" />
<use xlink:href="#f5_b" transform="matrix(12,0,0,12,309.5,347.1)" />
<use xlink:href="#f5_c" transform="matrix(12,0,0,12,319.9,347.1)" />
<use xlink:href="#f2_7" transform="matrix(11,0,0,11,347,367.9)" />
<use xlink:href="#f2_3" transform="matrix(11,0,0,11,351.7,367.9)" />
<use xlink:href="#f2_k" transform="matrix(11,0,0,11,359.1,367.9)" />
<use xlink:href="#f2_9" transform="matrix(11,0,0,11,367.5,367.9)" />
<use xlink:href="#f2_k" transform="matrix(11,0,0,11,347,388.1)" />
<use xlink:href="#f2_6" transform="matrix(11,0,0,11,355.4,388.1)" />
<use xlink:href="#f2_4" transform="matrix(11,0,0,11,362.8,388.1)" />
<use xlink:href="#f2_e" transform="matrix(11,0,0,11,369.4,388.1)" />
<use xlink:href="#f2_6" transform="matrix(11,0,0,11,374,388.1)" />
<use xlink:href="#f2_c" transform="matrix(11,0,0,11,381.4,388.1)" />
<use xlink:href="#f2_5" transform="matrix(11,0,0,11,387.1,388.1)" />
<use xlink:href="#f2_9" transform="matrix(11,0,0,11,391.8,388.1)" />
<use xlink:href="#f2_5" transform="matrix(11,0,0,11,347,408.1)" />
<use xlink:href="#f2_3" transform="matrix(11,0,0,11,351.7,408.1)" />
<use xlink:href="#f2_b" transform="matrix(11,0,0,11,359.1,408.1)" />
<use xlink:href="#f2_7" transform="matrix(11,0,0,11,367.4,408.1)" />
<use xlink:href="#f2_3" transform="matrix(11,0,0,11,372.1,408.1)" />
<use xlink:href="#f2_5" transform="matrix(11,0,0,11,347,428.2)" />
<use xlink:href="#f2_c" transform="matrix(11,0,0,11,351.7,428.2)" />
<use xlink:href="#f2_3" transform="matrix(11,0,0,11,357.2,428.2)" />
<use xlink:href="#f2_k" transform="matrix(11,0,0,11,364.6,428.2)" />
<use xlink:href="#f2_m" transform="matrix(11,0,0,11,373,428.2)" />
<use xlink:href="#f2_f" transform="matrix(11,0,0,11,381.4,428.2)" />
<use xlink:href="#f2_f" transform="matrix(11,0,0,11,388.9,428.2)" />
<use xlink:href="#f2_e" transform="matrix(11,0,0,11,396.4,428.2)" />
<use xlink:href="#f2_g" transform="matrix(11,0,0,11,401.1,428.2)" />
<use xlink:href="#f2_8" transform="matrix(11,0,0,11,409.5,428.2)" />
<use xlink:href="#f2_5" transform="matrix(11,0,0,11,347,448.3)" />
<use xlink:href="#f2_6" transform="matrix(11,0,0,11,351.7,448.3)" />
<use xlink:href="#f2_3" transform="matrix(11,0,0,11,359.1,448.3)" />
<use xlink:href="#f2_5" transform="matrix(11,0,0,11,366.5,448.3)" />
<use xlink:href="#f2_c" transform="matrix(11,0,0,11,371.2,448.3)" />
<use xlink:href="#f2_9" transform="matrix(11,0,0,11,376.8,448.3)" />
<use xlink:href="#f2_k" transform="matrix(11,0,0,11,347,468.4)" />
<use xlink:href="#f2_3" transform="matrix(11,0,0,11,355.4,468.4)" />
<use xlink:href="#f2_8" transform="matrix(11,0,0,11,362.8,468.4)" />
<use xlink:href="#f2_t" transform="matrix(11,0,0,11,371.2,468.4)" />
<use xlink:href="#f2_3" transform="matrix(11,0,0,11,378.7,468.4)" />
<use xlink:href="#f2_c" transform="matrix(11,0,0,11,347,488.4)" />
<use xlink:href="#f2_3" transform="matrix(11,0,0,11,352.6,488.4)" />
<use xlink:href="#f2_k" transform="matrix(11,0,0,11,360,488.4)" />
<use xlink:href="#f2_e" transform="matrix(11,0,0,11,368.3,488.4)" />
<use xlink:href="#f2_9" transform="matrix(11,0,0,11,373,488.4)" />
<use xlink:href="#f2_r" transform="matrix(11,0,0,11,347,508.6)" />
<use xlink:href="#f2_6" transform="matrix(11,0,0,11,355.4,508.6)" />
<use xlink:href="#f2_t" transform="matrix(11,0,0,11,362.8,508.6)" />
<use xlink:href="#f2_e" transform="matrix(11,0,0,11,347,528.6)" />
<use xlink:href="#f2_k" transform="matrix(11,0,0,11,351.7,528.6)" />
<use xlink:href="#f2_e" transform="matrix(11,0,0,11,359.9,528.6)" />
<use xlink:href="#f2_9" transform="matrix(11,0,0,11,364.7,528.6)" />
<use xlink:href="#f2_i" transform="matrix(11,0,0,11,373.1,528.6)" />
<use xlink:href="#f2_3" transform="matrix(11,0,0,11,386.2,528.6)" />
</g>
<g fill="#0000FF" >
<use xlink:href="#f2_v" transform="matrix(12,0,0,12,687,568.8)" />
<use xlink:href="#f2_6" transform="matrix(12,0,0,12,699.7,568.8)" />
<use xlink:href="#f2_4" transform="matrix(12,0,0,12,708.1,568.8)" />
<use xlink:href="#f2_d" transform="matrix(12,0,0,12,715.7,568.8)" />
<use xlink:href="#f2_m" transform="matrix(12,0,0,12,725.2,568.8)" />
<use xlink:href="#f2_6" transform="matrix(12,0,0,12,734.8,568.8)" />
<use xlink:href="#f2_4" transform="matrix(12,0,0,12,743.2,568.8)" />
<use xlink:href="#f2_5" transform="matrix(12,0,0,12,750.8,568.8)" />
<use xlink:href="#f2_3" transform="matrix(12,0,0,12,756.1,568.8)" />
<use xlink:href="#f2_4" transform="matrix(12,0,0,12,764.7,568.8)" />
</g>
<g fill="#000000" >
<use xlink:href="#f0_f" transform="matrix(12,0,0,12,706,657.6)" />
<use xlink:href="#f0_g" transform="matrix(12,0,0,12,718.8,657.6)" />
<use xlink:href="#f0_h" transform="matrix(12,0,0,12,724.1,657.6)" />
<use xlink:href="#f0_8" transform="matrix(12,0,0,12,735.3,657.6)" />
<use xlink:href="#f0_5" transform="matrix(12,0,0,12,747.5,657.6)" />
<use xlink:href="#f0_7" transform="matrix(12,0,0,12,759.5,657.6)" />
<use xlink:href="#f3_d" transform="matrix(13,0,0,13,665.2,657.6)" />
<use xlink:href="#f3_4" transform="matrix(13,0,0,13,676.4,657.6)" />
<use xlink:href="#f3_5" transform="matrix(13,0,0,13,689,657.6)" />
<use xlink:href="#f0_b" transform="matrix(12,0,0,12,652.6,657.6)" />
<use xlink:href="#f3_4" transform="matrix(13,0,0,13,589.7,657.6)" />
<use xlink:href="#f3_d" transform="matrix(13,0,0,13,602.4,657.6)" />
<use xlink:href="#f3_e" transform="matrix(13,0,0,13,613.5,657.6)" />
<use xlink:href="#f3_f" transform="matrix(13,0,0,13,622.7,657.6)" />
<use xlink:href="#f3_5" transform="matrix(13,0,0,13,635.5,657.6)" />
<use xlink:href="#f0_f" transform="matrix(12,0,0,12,441.1,657.6)" />
<use xlink:href="#f0_g" transform="matrix(12,0,0,12,453.9,657.6)" />
<use xlink:href="#f0_h" transform="matrix(12,0,0,12,459.2,657.6)" />
<use xlink:href="#f0_h" transform="matrix(12,0,0,12,470.4,657.6)" />
<use xlink:href="#f0_i" transform="matrix(12,0,0,12,481.5,657.6)" />
<use xlink:href="#f0_h" transform="matrix(12,0,0,12,491.7,657.6)" />
<use xlink:href="#f0_j" transform="matrix(12,0,0,12,509.3,657.6)" />
<use xlink:href="#f0_4" transform="matrix(12,0,0,12,521.8,657.6)" />
<use xlink:href="#f0_b" transform="matrix(12,0,0,12,532.8,657.6)" />
<use xlink:href="#f0_i" transform="matrix(12,0,0,12,539,657.6)" />
<use xlink:href="#f0_c" transform="matrix(12,0,0,12,549.4,657.6)" />
<use xlink:href="#f0_j" transform="matrix(12,0,0,12,556.8,657.6)" />
<use xlink:href="#f0_k" transform="matrix(12,0,0,12,575.7,657.6)" />
<use xlink:href="#f0_l" transform="matrix(12,0,0,12,682,698.7)" />
<use xlink:href="#f0_f" transform="matrix(12,0,0,12,701.2,698.7)" />
<use xlink:href="#f0_g" transform="matrix(12,0,0,12,714,698.7)" />
<use xlink:href="#f0_q" transform="matrix(12,0,0,12,719.4,698.7)" />
<use xlink:href="#f0_b" transform="matrix(12,0,0,12,733.3,698.7)" />
<use xlink:href="#f0_9" transform="matrix(12,0,0,12,739.5,698.7)" />
<use xlink:href="#f0_g" transform="matrix(12,0,0,12,752.8,698.7)" />
<use xlink:href="#f0_q" transform="matrix(12,0,0,12,758.2,698.7)" />
<use xlink:href="#f6_e" transform="matrix(11,0,0,11,652.2,698.7)" />
<use xlink:href="#f6_g" transform="matrix(11,0,0,11,658.8,698.7)" />
<use xlink:href="#f6_5" transform="matrix(11,0,0,11,666.2,698.7)" />
<use xlink:href="#f0_e" transform="matrix(12,0,0,12,645,698.7)" />
<use xlink:href="#f1_3" transform="matrix(12,0,0,12,138,698.7)" />
<use xlink:href="#f1_o" transform="matrix(12,0,0,12,149.9,698.7)" />
<use xlink:href="#f1_j" transform="matrix(12,0,0,12,162.9,698.7)" />
<use xlink:href="#f1_r" transform="matrix(12,0,0,12,170.3,698.7)" />
<use xlink:href="#f1_3" transform="matrix(12,0,0,12,180.4,698.7)" />
<use xlink:href="#f1_e" transform="matrix(12,0,0,12,192.3,698.7)" />
<use xlink:href="#f1_a" transform="matrix(12,0,0,12,210.3,698.7)" />
<use xlink:href="#f1_b" transform="matrix(12,0,0,12,216.1,698.7)" />
<use xlink:href="#f1_c" transform="matrix(12,0,0,12,228,698.7)" />
<use xlink:href="#f1_p" transform="matrix(12,0,0,12,233.1,698.7)" />
<use xlink:href="#f1_c" transform="matrix(12,0,0,12,244.5,698.7)" />
<use xlink:href="#f1_s" transform="matrix(12,0,0,12,249.6,698.7)" />
<use xlink:href="#f1_6" transform="matrix(12,0,0,12,260.4,698.7)" />
<use xlink:href="#f1_l" transform="matrix(12,0,0,12,273.4,698.7)" />
<use xlink:href="#f1_a" transform="matrix(12,0,0,12,293.4,698.7)" />
<use xlink:href="#f1_b" transform="matrix(12,0,0,12,299.2,698.7)" />
<use xlink:href="#f1_r" transform="matrix(12,0,0,12,311.1,698.7)" />
<use xlink:href="#f1_a" transform="matrix(12,0,0,12,328.8,698.7)" />
<use xlink:href="#f1_b" transform="matrix(12,0,0,12,334.6,698.7)" />
<use xlink:href="#f1_c" transform="matrix(12,0,0,12,346.6,698.7)" />
<use xlink:href="#f1_h" transform="matrix(12,0,0,12,351.7,698.7)" />
<use xlink:href="#f1_7" transform="matrix(12,0,0,12,363.6,698.7)" />
<use xlink:href="#f1_4" transform="matrix(12,0,0,12,373.8,698.7)" />
<use xlink:href="#f1_9" transform="matrix(12,0,0,12,380.2,698.7)" />
<use xlink:href="#f1_a" transform="matrix(12,0,0,12,400.1,698.7)" />
<use xlink:href="#f1_b" transform="matrix(12,0,0,12,405.9,698.7)" />
<use xlink:href="#f1_c" transform="matrix(12,0,0,12,417.8,698.7)" />
<use xlink:href="#f1_q" transform="matrix(12,0,0,12,422.8,698.7)" />
<use xlink:href="#f1_g" transform="matrix(12,0,0,12,426.9,698.7)" />
<use xlink:href="#f1_q" transform="matrix(12,0,0,12,438.8,698.7)" />
<use xlink:href="#f1_8" transform="matrix(12,0,0,12,442.8,698.7)" />
<use xlink:href="#f1_b" transform="matrix(12,0,0,12,461.9,698.7)" />
<use xlink:href="#f1_c" transform="matrix(12,0,0,12,473.8,698.7)" />
<use xlink:href="#f1_d" transform="matrix(12,0,0,12,478.8,698.7)" />
<use xlink:href="#f1_c" transform="matrix(12,0,0,12,486.1,698.7)" />
<use xlink:href="#f1_n" transform="matrix(12,0,0,12,491.1,698.7)" />
<use xlink:href="#f1_b" transform="matrix(12,0,0,12,500.8,698.7)" />
<use xlink:href="#f1_c" transform="matrix(12,0,0,12,520.3,698.7)" />
<use xlink:href="#f1_9" transform="matrix(12,0,0,12,525.3,698.7)" />
<use xlink:href="#f1_q" transform="matrix(12,0,0,12,545,698.7)" />
<use xlink:href="#f1_8" transform="matrix(12,0,0,12,549.1,698.7)" />
<use xlink:href="#f1_c" transform="matrix(12,0,0,12,560.5,698.7)" />
<use xlink:href="#f1_9" transform="matrix(12,0,0,12,565.5,698.7)" />
<use xlink:href="#f1_b" transform="matrix(12,0,0,12,585.2,698.7)" />
<use xlink:href="#f1_c" transform="matrix(12,0,0,12,597.3,698.7)" />
<use xlink:href="#f1_d" transform="matrix(12,0,0,12,602.3,698.7)" />
<use xlink:href="#f1_c" transform="matrix(12,0,0,12,609.6,698.7)" />
<use xlink:href="#f1_n" transform="matrix(12,0,0,12,614.6,698.7)" />
<use xlink:href="#f1_b" transform="matrix(12,0,0,12,624.3,698.7)" />
<use xlink:href="#f1_m" transform="matrix(12,0,0,12,509.1,720)" />
<use xlink:href="#f1_b" transform="matrix(12,0,0,12,514.9,720)" />
<use xlink:href="#f1_q" transform="matrix(12,0,0,12,526.9,720)" />
<use xlink:href="#f1_7" transform="matrix(12,0,0,12,531,720)" />
<use xlink:href="#f1_f" transform="matrix(12,0,0,12,541.4,720)" />
<use xlink:href="#f1_p" transform="matrix(12,0,0,12,551.9,720)" />
<use xlink:href="#f1_f" transform="matrix(12,0,0,12,563.4,720)" />
<use xlink:href="#f1_12" transform="matrix(12,0,0,12,579.7,720)" />
<use xlink:href="#f1_3" transform="matrix(12,0,0,12,588.1,720)" />
<use xlink:href="#f1_4" transform="matrix(12,0,0,12,600.1,720)" />
<use xlink:href="#f1_12" transform="matrix(12,0,0,12,606.5,720)" />
<use xlink:href="#f1_3" transform="matrix(12,0,0,12,620.8,720)" />
<use xlink:href="#f1_e" transform="matrix(12,0,0,12,632.7,720)" />
<use xlink:href="#f1_q" transform="matrix(12,0,0,12,643.1,720)" />
<use xlink:href="#f1_l" transform="matrix(12,0,0,12,647.2,720)" />
<use xlink:href="#f1_3" transform="matrix(12,0,0,12,659.7,720)" />
<use xlink:href="#f1_c" transform="matrix(12,0,0,12,677.4,720)" />
<use xlink:href="#f1_l" transform="matrix(12,0,0,12,682.5,720)" />
<use xlink:href="#f1_n" transform="matrix(12,0,0,12,694.8,720)" />
<use xlink:href="#f1_13" transform="matrix(12,0,0,12,710.4,720)" />
<use xlink:href="#f1_b" transform="matrix(12,0,0,12,725.4,720)" />
<use xlink:href="#f1_q" transform="matrix(12,0,0,12,737.4,720)" />
<use xlink:href="#f1_e" transform="matrix(12,0,0,12,741.5,720)" />
<use xlink:href="#f1_e" transform="matrix(12,0,0,12,751.9,720)" />
<use xlink:href="#f1_n" transform="matrix(12,0,0,12,762.3,720)" />
<use xlink:href="#f0_l" transform="matrix(12,0,0,12,683.7,741.4)" />
<use xlink:href="#f0_f" transform="matrix(12,0,0,12,701.2,741.4)" />
<use xlink:href="#f0_g" transform="matrix(12,0,0,12,714,741.4)" />
<use xlink:href="#f0_q" transform="matrix(12,0,0,12,719.4,741.4)" />
<use xlink:href="#f0_b" transform="matrix(12,0,0,12,733.3,741.4)" />
<use xlink:href="#f0_9" transform="matrix(12,0,0,12,739.5,741.4)" />
<use xlink:href="#f0_g" transform="matrix(12,0,0,12,752.8,741.4)" />
<use xlink:href="#f0_q" transform="matrix(12,0,0,12,758.2,741.4)" />
<use xlink:href="#f6_g" transform="matrix(11,0,0,11,641.7,741.4)" />
<use xlink:href="#f6_e" transform="matrix(11,0,0,11,649,741.4)" />
<use xlink:href="#f6_h" transform="matrix(11,0,0,11,655.5,741.4)" />
<use xlink:href="#f6_7" transform="matrix(11,0,0,11,661.2,741.4)" />
<use xlink:href="#f6_5" transform="matrix(11,0,0,11,669.6,741.4)" />
<use xlink:href="#f0_e" transform="matrix(12,0,0,12,634.5,741.4)" />
<use xlink:href="#f1_m" transform="matrix(12,0,0,12,290,741.4)" />
<use xlink:href="#f1_i" transform="matrix(12,0,0,12,295.8,741.4)" />
<use xlink:href="#f1_q" transform="matrix(12,0,0,12,308,741.4)" />
<use xlink:href="#f1_q" transform="matrix(12,0,0,12,312.1,741.4)" />
<use xlink:href="#f1_h" transform="matrix(12,0,0,12,316.2,741.4)" />
<use xlink:href="#f1_3" transform="matrix(12,0,0,12,328.1,741.4)" />
<use xlink:href="#f1_u" transform="matrix(12,0,0,12,345.9,741.4)" />
<use xlink:href="#f1_7" transform="matrix(12,0,0,12,355.6,741.4)" />
<use xlink:href="#f1_c" transform="matrix(12,0,0,12,366,741.4)" />
<use xlink:href="#f1_9" transform="matrix(12,0,0,12,371,741.4)" />
<use xlink:href="#f1_e" transform="matrix(12,0,0,12,383.3,741.4)" />
<use xlink:href="#f1_i" transform="matrix(12,0,0,12,399.5,741.4)" />
<use xlink:href="#f1_q" transform="matrix(12,0,0,12,411.7,741.4)" />
<use xlink:href="#f1_q" transform="matrix(12,0,0,12,415.8,741.4)" />
<use xlink:href="#f1_d" transform="matrix(12,0,0,12,419.9,741.4)" />
<use xlink:href="#f1_l" transform="matrix(12,0,0,12,427.1,741.4)" />
<use xlink:href="#f1_4" transform="matrix(12,0,0,12,439.6,741.4)" />
<use xlink:href="#f1_i" transform="matrix(12,0,0,12,451.8,741.4)" />
<use xlink:href="#f1_q" transform="matrix(12,0,0,12,464,741.4)" />
<use xlink:href="#f1_f" transform="matrix(12,0,0,12,468.1,741.4)" />
<use xlink:href="#f1_s" transform="matrix(12,0,0,12,478.6,741.4)" />
<use xlink:href="#f1_l" transform="matrix(12,0,0,12,489.5,741.4)" />
<use xlink:href="#f1_a" transform="matrix(12,0,0,12,507.8,741.4)" />
<use xlink:href="#f1_q" transform="matrix(12,0,0,12,513.6,741.4)" />
<use xlink:href="#f1_8" transform="matrix(12,0,0,12,517.7,741.4)" />
<use xlink:href="#f1_7" transform="matrix(12,0,0,12,529.2,741.4)" />
<use xlink:href="#f1_j" transform="matrix(12,0,0,12,539.5,741.4)" />
<use xlink:href="#f1_c" transform="matrix(12,0,0,12,547,741.4)" />
<use xlink:href="#f1_9" transform="matrix(12,0,0,12,552,741.4)" />
<use xlink:href="#f1_q" transform="matrix(12,0,0,12,564.3,741.4)" />
<use xlink:href="#f1_j" transform="matrix(12,0,0,12,568.4,741.4)" />
<use xlink:href="#f1_i" transform="matrix(12,0,0,12,581.7,741.4)" />
<use xlink:href="#f1_c" transform="matrix(12,0,0,12,593.9,741.4)" />
<use xlink:href="#f1_6" transform="matrix(12,0,0,12,598.9,741.4)" />
<use xlink:href="#f1_q" transform="matrix(12,0,0,12,611.9,741.4)" />
<use xlink:href="#f1_l" transform="matrix(12,0,0,12,615.9,741.4)" />
<use xlink:href="#f1_v" transform="matrix(12,0,0,12,625.8,792.5)" />
<use xlink:href="#f1_3" transform="matrix(12,0,0,12,632,792.5)" />
<use xlink:href="#f1_e" transform="matrix(12,0,0,12,643.9,792.5)" />
<use xlink:href="#f1_f" transform="matrix(12,0,0,12,654.3,792.5)" />
<use xlink:href="#f1_k" transform="matrix(12,0,0,12,664.9,792.5)" />
<use xlink:href="#f1_3" transform="matrix(12,0,0,12,676.8,792.5)" />
<use xlink:href="#f1_b" transform="matrix(12,0,0,12,694.5,792.5)" />
<use xlink:href="#f1_9" transform="matrix(12,0,0,12,706.5,792.5)" />
<use xlink:href="#f1_i" transform="matrix(12,0,0,12,724.6,792.5)" />
<use xlink:href="#f1_e" transform="matrix(12,0,0,12,736.8,792.5)" />
<use xlink:href="#f1_o" transform="matrix(12,0,0,12,747.2,792.5)" />
<use xlink:href="#f1_3" transform="matrix(12,0,0,12,760.2,792.5)" />
<use xlink:href="#f3_2" transform="matrix(13,0,0,13,495,792.5)" />
<use xlink:href="#f3_3" transform="matrix(13,0,0,13,510.1,792.5)" />
<use xlink:href="#f3_4" transform="matrix(13,0,0,13,517.3,792.5)" />
<use xlink:href="#f3_5" transform="matrix(13,0,0,13,530,792.5)" />
<use xlink:href="#f3_6" transform="matrix(13,0,0,13,540.3,792.5)" />
<use xlink:href="#f3_7" transform="matrix(13,0,0,13,552.4,792.5)" />
<use xlink:href="#f3_6" transform="matrix(13,0,0,13,559.9,792.5)" />
<use xlink:href="#f3_7" transform="matrix(13,0,0,13,572,792.5)" />
<use xlink:href="#f3_8" transform="matrix(13,0,0,13,579.5,792.5)" />
<use xlink:href="#f3_g" transform="matrix(13,0,0,13,599.9,792.5)" />
<use xlink:href="#f0_k" transform="matrix(12,0,0,12,481.1,792.5)" />
</g>
</g>
<path d="M378,797.6H642.5M378,822.9H772.4M378,843.1H772.4M378,863.1H772.4M378,883.3H772.4M378,903.3H772.4M378,923.5H772.4M378.4,797.2V923.8M510.3,797.2V923.8M642.1,797.2V923.8M772,822.6V923.8" class="g1_2" />
<g clip-path="url(#c0_2)">
<g fill="#000000" >
<use xlink:href="#f6_e" transform="matrix(14,0,0,14,519.1,818)" />
<use xlink:href="#f6_g" transform="matrix(14,0,0,14,527.4,818)" />
<use xlink:href="#f6_5" transform="matrix(14,0,0,14,536.9,818)" />
<use xlink:href="#f6_g" transform="matrix(14,0,0,14,387.3,818)" />
<use xlink:href="#f6_e" transform="matrix(14,0,0,14,396.8,818)" />
<use xlink:href="#f6_h" transform="matrix(14,0,0,14,405,818)" />
<use xlink:href="#f6_7" transform="matrix(14,0,0,14,412.2,818)" />
<use xlink:href="#f6_5" transform="matrix(14,0,0,14,422.9,818)" />
<use xlink:href="#f2_10" transform="matrix(11,0,0,11,651,839.1)" />
<use xlink:href="#f2_9" transform="matrix(11,0,0,11,659.4,839.1)" />
<use xlink:href="#f2_5" transform="matrix(11,0,0,11,651,859.1)" />
<use xlink:href="#f2_x" transform="matrix(11,0,0,11,655.6,859.1)" />
<use xlink:href="#f2_j" transform="matrix(11,0,0,11,651,879.2)" />
<use xlink:href="#f2_7" transform="matrix(11,0,0,11,658.3,879.2)" />
<use xlink:href="#f2_11" transform="matrix(11,0,0,11,663,879.2)" />
<use xlink:href="#f2_6" transform="matrix(11,0,0,11,667.8,879.2)" />
<use xlink:href="#f2_7" transform="matrix(11,0,0,11,675.1,879.2)" />
<use xlink:href="#f2_7" transform="matrix(11,0,0,11,679.8,879.2)" />
<use xlink:href="#f2_3" transform="matrix(11,0,0,11,684.5,879.2)" />
<use xlink:href="#f2_11" transform="matrix(11,0,0,11,691.9,879.2)" />
<use xlink:href="#f2_12" transform="matrix(11,0,0,11,696.6,879.2)" />
<use xlink:href="#f2_k" transform="matrix(11,0,0,11,708.6,879.2)" />
<use xlink:href="#f2_13" transform="matrix(11,0,0,11,717,879.2)" />
<use xlink:href="#f2_8" transform="matrix(11,0,0,11,651,899.3)" />
<use xlink:href="#f2_9" transform="matrix(11,0,0,11,659.4,899.3)" />
<use xlink:href="#f2_4" transform="matrix(11,0,0,11,667.8,899.3)" />
<use xlink:href="#f2_9" transform="matrix(11,0,0,11,674.3,899.3)" />
<use xlink:href="#f2_5" transform="matrix(11,0,0,11,682.6,899.3)" />
<use xlink:href="#f2_c" transform="matrix(11,0,0,11,687.3,899.3)" />
<use xlink:href="#f2_9" transform="matrix(11,0,0,11,692.9,899.3)" />
<use xlink:href="#f2_4" transform="matrix(11,0,0,11,701.4,899.3)" />
<use xlink:href="#f2_11" transform="matrix(11,0,0,11,707.8,899.3)" />
<use xlink:href="#f2_3" transform="matrix(11,0,0,11,712.5,899.3)" />
<use xlink:href="#f2_4" transform="matrix(11,0,0,11,720,899.3)" />
<use xlink:href="#f2_6" transform="matrix(11,0,0,11,651,919.4)" />
<use xlink:href="#f2_7" transform="matrix(11,0,0,11,658.3,919.4)" />
<use xlink:href="#f2_7" transform="matrix(11,0,0,11,663,919.4)" />
<use xlink:href="#f2_9" transform="matrix(11,0,0,11,667.8,919.4)" />
<use xlink:href="#f2_4" transform="matrix(11,0,0,11,676.2,919.4)" />
<use xlink:href="#f2_11" transform="matrix(11,0,0,11,682.6,919.4)" />
<use xlink:href="#f2_6" transform="matrix(11,0,0,11,687.3,919.4)" />
<use xlink:href="#f2_7" transform="matrix(11,0,0,11,694.8,919.4)" />
<use xlink:href="#f2_7" transform="matrix(11,0,0,11,699.4,919.4)" />
<use xlink:href="#f2_3" transform="matrix(11,0,0,11,704.1,919.4)" />
<use xlink:href="#f2_4" transform="matrix(11,0,0,11,711.5,919.4)" />
<use xlink:href="#f2_11" transform="matrix(11,0,0,11,718,919.4)" />
<use xlink:href="#f2_12" transform="matrix(11,0,0,11,722.7,919.4)" />
<use xlink:href="#f2_k" transform="matrix(11,0,0,11,734.7,919.4)" />
<use xlink:href="#f2_4" transform="matrix(11,0,0,11,743.1,919.4)" />
<use xlink:href="#f2_13" transform="matrix(11,0,0,11,749.7,919.4)" />
</g>
<g fill="#0000FF" >
<use xlink:href="#f2_v" transform="matrix(12,0,0,12,687,978.8)" />
<use xlink:href="#f2_6" transform="matrix(12,0,0,12,699.7,978.8)" />
<use xlink:href="#f2_4" transform="matrix(12,0,0,12,708.1,978.8)" />
<use xlink:href="#f2_d" transform="matrix(12,0,0,12,715.7,978.8)" />
<use xlink:href="#f2_m" transform="matrix(12,0,0,12,725.2,978.8)" />
<use xlink:href="#f2_6" transform="matrix(12,0,0,12,734.8,978.8)" />
<use xlink:href="#f2_4" transform="matrix(12,0,0,12,743.2,978.8)" />
<use xlink:href="#f2_5" transform="matrix(12,0,0,12,750.8,978.8)" />
<use xlink:href="#f2_3" transform="matrix(12,0,0,12,756.1,978.8)" />
<use xlink:href="#f2_4" transform="matrix(12,0,0,12,764.7,978.8)" />
</g>
<g fill="#000000" >
<use xlink:href="#f1_v" transform="matrix(12,0,0,12,414.3,1098.2)" />
<use xlink:href="#f1_i" transform="matrix(12,0,0,12,420.4,1098.2)" />
<use xlink:href="#f1_q" transform="matrix(12,0,0,12,432.6,1098.2)" />
<use xlink:href="#f1_9" transform="matrix(12,0,0,12,436.7,1098.2)" />
<use xlink:href="#f1_f" transform="matrix(12,0,0,12,449,1098.2)" />
<use xlink:href="#f1_3" transform="matrix(12,0,0,12,459.5,1098.2)" />
<use xlink:href="#f1_i" transform="matrix(12,0,0,12,477.2,1098.2)" />
<use xlink:href="#f1_q" transform="matrix(12,0,0,12,489.5,1098.2)" />
<use xlink:href="#f1_k" transform="matrix(12,0,0,12,493.6,1098.2)" />
<use xlink:href="#f1_8" transform="matrix(12,0,0,12,505.3,1098.2)" />
<use xlink:href="#f1_o" transform="matrix(12,0,0,12,516.8,1098.2)" />
<use xlink:href="#f1_l" transform="matrix(12,0,0,12,529.8,1098.2)" />
<use xlink:href="#f1_f" transform="matrix(12,0,0,12,542.3,1098.2)" />
<use xlink:href="#f1_i" transform="matrix(12,0,0,12,558.6,1098.2)" />
<use xlink:href="#f1_q" transform="matrix(12,0,0,12,570.8,1098.2)" />
<use xlink:href="#f1_7" transform="matrix(12,0,0,12,574.9,1098.2)" />
<use xlink:href="#f1_g" transform="matrix(12,0,0,12,585.3,1098.2)" />
<use xlink:href="#f1_h" transform="matrix(12,0,0,12,597.2,1098.2)" />
<use xlink:href="#f1_3" transform="matrix(12,0,0,12,609.1,1098.2)" />
<use xlink:href="#f1_i" transform="matrix(12,0,0,12,627,1098.2)" />
<use xlink:href="#f1_q" transform="matrix(12,0,0,12,639.2,1098.2)" />
<use xlink:href="#f1_e" transform="matrix(12,0,0,12,643.3,1098.2)" />
<use xlink:href="#f1_p" transform="matrix(12,0,0,12,653.7,1098.2)" />
<use xlink:href="#f1_8" transform="matrix(12,0,0,12,665.1,1098.2)" />
<use xlink:href="#f1_3" transform="matrix(12,0,0,12,676.6,1098.2)" />
<use xlink:href="#f1_b" transform="matrix(12,0,0,12,694.3,1098.2)" />
<use xlink:href="#f1_9" transform="matrix(12,0,0,12,706.4,1098.2)" />
<use xlink:href="#f1_i" transform="matrix(12,0,0,12,724.4,1098.2)" />
<use xlink:href="#f1_e" transform="matrix(12,0,0,12,736.6,1098.2)" />
<use xlink:href="#f1_o" transform="matrix(12,0,0,12,747,1098.2)" />
<use xlink:href="#f1_3" transform="matrix(12,0,0,12,760,1098.2)" />
<use xlink:href="#f3_2" transform="matrix(13,0,0,13,277.8,1098.2)" />
<use xlink:href="#f3_3" transform="matrix(13,0,0,13,292.9,1098.2)" />
<use xlink:href="#f3_4" transform="matrix(13,0,0,13,300.1,1098.2)" />
<use xlink:href="#f3_5" transform="matrix(13,0,0,13,312.7,1098.2)" />
<use xlink:href="#f3_6" transform="matrix(13,0,0,13,323.1,1098.2)" />
<use xlink:href="#f3_7" transform="matrix(13,0,0,13,335.2,1098.2)" />
<use xlink:href="#f3_6" transform="matrix(13,0,0,13,342.7,1098.2)" />
<use xlink:href="#f3_7" transform="matrix(13,0,0,13,354.7,1098.2)" />
<use xlink:href="#f3_8" transform="matrix(13,0,0,13,362.2,1098.2)" />
<use xlink:href="#f3_h" transform="matrix(13,0,0,13,382.5,1098.2)" />
<use xlink:href="#f0_k" transform="matrix(12,0,0,12,263.8,1098.2)" />
<use xlink:href="#f2_14" transform="matrix(11,0,0,11,202.7,1137.9)" />
<use xlink:href="#f2_9" transform="matrix(11,0,0,11,214.8,1137.9)" />
<use xlink:href="#f2_4" transform="matrix(11,0,0,11,223.2,1137.9)" />
<use xlink:href="#f2_9" transform="matrix(11,0,0,11,229.8,1137.9)" />
<use xlink:href="#f2_5" transform="matrix(11,0,0,11,238.2,1137.9)" />
<use xlink:href="#f2_c" transform="matrix(11,0,0,11,242.8,1137.9)" />
<use xlink:href="#f2_3" transform="matrix(11,0,0,11,248.4,1137.9)" />
<use xlink:href="#f2_4" transform="matrix(11,0,0,11,255.8,1137.9)" />
<use xlink:href="#f2_15" transform="matrix(11,0,0,11,266.5,1137.9)" />
<use xlink:href="#f2_15" transform="matrix(11,0,0,11,274.9,1137.9)" />
<use xlink:href="#f2_15" transform="matrix(11,0,0,11,283.3,1137.9)" />
<use xlink:href="#f2_15" transform="matrix(11,0,0,11,291.7,1137.9)" />
<use xlink:href="#f2_15" transform="matrix(11,0,0,11,300.1,1137.9)" />
<use xlink:href="#f2_15" transform="matrix(11,0,0,11,308.5,1137.9)" />
<use xlink:href="#f2_15" transform="matrix(11,0,0,11,316.9,1137.9)" />
<use xlink:href="#f2_15" transform="matrix(11,0,0,11,325.3,1137.9)" />
<use xlink:href="#f2_15" transform="matrix(11,0,0,11,333.7,1137.9)" />
<use xlink:href="#f2_16" transform="matrix(11,0,0,11,346.4,1137.9)" />
<use xlink:href="#f2_3" transform="matrix(11,0,0,11,358.5,1137.9)" />
<use xlink:href="#f2_8" transform="matrix(11,0,0,11,365.9,1137.9)" />
<use xlink:href="#f2_3" transform="matrix(11,0,0,11,374.3,1137.9)" />
<use xlink:href="#f2_10" transform="matrix(11,0,0,11,386.1,1137.9)" />
<use xlink:href="#f2_16" transform="matrix(11,0,0,11,398.6,1137.9)" />
<use xlink:href="#f2_e" transform="matrix(11,0,0,11,410.7,1137.9)" />
<use xlink:href="#f2_8" transform="matrix(11,0,0,11,415.4,1137.9)" />
<use xlink:href="#f2_3" transform="matrix(11,0,0,11,423.8,1137.9)" />
<use xlink:href="#f2_13" transform="matrix(11,0,0,11,431.1,1137.9)" />
<use xlink:href="#f1_m" transform="matrix(12,0,0,12,634.8,1139.3)" />
<use xlink:href="#f1_3" transform="matrix(12,0,0,12,640.6,1139.3)" />
<use xlink:href="#f1_d" transform="matrix(12,0,0,12,652.5,1139.3)" />
<use xlink:href="#f1_q" transform="matrix(12,0,0,12,659.9,1139.3)" />
<use xlink:href="#f1_r" transform="matrix(12,0,0,12,664,1139.3)" />
<use xlink:href="#f1_c" transform="matrix(12,0,0,12,673.9,1139.3)" />
<use xlink:href="#f1_3" transform="matrix(12,0,0,12,684.9,1139.3)" />
<use xlink:href="#f1_d" transform="matrix(12,0,0,12,696.8,1139.3)" />
<use xlink:href="#f1_r" transform="matrix(12,0,0,12,704.1,1139.3)" />
<use xlink:href="#f1_c" transform="matrix(12,0,0,12,720,1139.3)" />
<use xlink:href="#f1_d" transform="matrix(12,0,0,12,725,1139.3)" />
<use xlink:href="#f1_h" transform="matrix(12,0,0,12,732.4,1139.3)" />
<use xlink:href="#f1_d" transform="matrix(12,0,0,12,744.3,1139.3)" />
<use xlink:href="#f1_9" transform="matrix(12,0,0,12,751.6,1139.3)" />
<use xlink:href="#f2_17" transform="matrix(11,0,0,11,202.7,1159.3)" />
<use xlink:href="#f2_7" transform="matrix(11,0,0,11,214.8,1159.3)" />
<use xlink:href="#f2_6" transform="matrix(11,0,0,11,219.5,1159.3)" />
<use xlink:href="#f2_u" transform="matrix(11,0,0,11,226.9,1159.3)" />
<use xlink:href="#f2_3" transform="matrix(11,0,0,11,231.6,1159.3)" />
<use xlink:href="#f2_8" transform="matrix(11,0,0,11,239,1159.3)" />
<use xlink:href="#f2_k" transform="matrix(11,0,0,11,247.4,1159.3)" />
<use xlink:href="#f2_c" transform="matrix(11,0,0,11,255.8,1159.3)" />
<use xlink:href="#f2_9" transform="matrix(11,0,0,11,261.5,1159.3)" />
<use xlink:href="#f2_15" transform="matrix(11,0,0,11,274,1159.3)" />
<use xlink:href="#f2_15" transform="matrix(11,0,0,11,282.4,1159.3)" />
<use xlink:href="#f2_15" transform="matrix(11,0,0,11,290.8,1159.3)" />
<use xlink:href="#f2_15" transform="matrix(11,0,0,11,299.2,1159.3)" />
<use xlink:href="#f2_15" transform="matrix(11,0,0,11,307.6,1159.3)" />
<use xlink:href="#f2_15" transform="matrix(11,0,0,11,316,1159.3)" />
<use xlink:href="#f2_15" transform="matrix(11,0,0,11,324.4,1159.3)" />
<use xlink:href="#f2_15" transform="matrix(11,0,0,11,332.8,1159.3)" />
<use xlink:href="#f2_15" transform="matrix(11,0,0,11,341.2,1159.3)" />
<use xlink:href="#f2_c" transform="matrix(11,0,0,11,353.9,1159.3)" />
<use xlink:href="#f2_m" transform="matrix(11,0,0,11,359.4,1159.3)" />
<use xlink:href="#f2_b" transform="matrix(11,0,0,11,367.8,1159.3)" />
<use xlink:href="#f2_e" transform="matrix(11,0,0,11,376.2,1159.3)" />
<use xlink:href="#f2_9" transform="matrix(11,0,0,11,380.9,1159.3)" />
<use xlink:href="#f2_13" transform="matrix(11,0,0,11,389.2,1159.3)" />
<use xlink:href="#f1_m" transform="matrix(12,0,0,12,626.1,1160.7)" />
<use xlink:href="#f1_q" transform="matrix(12,0,0,12,631.9,1160.7)" />
<use xlink:href="#f1_d" transform="matrix(12,0,0,12,636,1160.7)" />
<use xlink:href="#f1_q" transform="matrix(12,0,0,12,643.3,1160.7)" />
<use xlink:href="#f1_r" transform="matrix(12,0,0,12,647.3,1160.7)" />
<use xlink:href="#f1_d" transform="matrix(12,0,0,12,657.4,1160.7)" />
<use xlink:href="#f1_c" transform="matrix(12,0,0,12,664.7,1160.7)" />
<use xlink:href="#f1_e" transform="matrix(12,0,0,12,669.7,1160.7)" />
<use xlink:href="#f1_f" transform="matrix(12,0,0,12,680.1,1160.7)" />
<use xlink:href="#f1_c" transform="matrix(12,0,0,12,696.5,1160.7)" />
<use xlink:href="#f1_7" transform="matrix(12,0,0,12,701.5,1160.7)" />
<use xlink:href="#f1_r" transform="matrix(12,0,0,12,711.9,1160.7)" />
<use xlink:href="#f1_d" transform="matrix(12,0,0,12,721.9,1160.7)" />
<use xlink:href="#f1_h" transform="matrix(12,0,0,12,729.3,1160.7)" />
<use xlink:href="#f1_e" transform="matrix(12,0,0,12,741.2,1160.7)" />
<use xlink:href="#f1_9" transform="matrix(12,0,0,12,751.6,1160.7)" />
</g>
</g>
<defs>
<path d="M679,178V467c0,0,0,110,-32,150c0,0,-31,41,-120,41H385V178ZM139,0V836H525c0,0,220,0,311,-90c0,0,90,-90,90,-297V0Z" 
id="f0_f"
transform="scale(0.001,-0.001)" />

<path d="M102,250V836H349V351L102,250Z" 
id="f0_g"
transform="scale(0.001,-0.001)" />

<path d="M248,0L521,658H66v429H313V836l493,-1V716L504,0Z" 
id="f0_h"
transform="scale(0.001,-0.001)" />

<path d="M66,0V177H334c0,0,99,0,150,66c0,0,51,67,51,175c0,0,0,108,-51,175c0,0,-51,66,-150,66H66V836H334c0,0,92,0,168,-24c0,0,75,-24,127,-64c0,0,51,-40,86,-94c0,0,35,-54,51,-113c0,0,15,-60,15,-123c0,0,0,-63,-15,-123c0,0,-16,-59,-51,-113c0,0,-35,-54,-86,-94C629,88,577,48,502,24C502,24,426,0,334,0Z" 
id="f0_i"
transform="scale(0.001,-0.001)" />

<path d="M173,-6C173,-6,61,-6,15,9V177c0,0,73,-10,82,-10c0,0,37,0,52,30c0,0,14,29,14,116V658H18V836H516c0,0,262,0,341,-145c0,0,48,-89,48,-242V0H658V450c0,0,0,131,-37,171c0,0,-34,37,-105,37H411V313c0,0,0,-189,-67,-258C344,55,285,-6,173,-6Z" 
id="f0_j"
transform="scale(0.001,-0.001)" />

<path d="M534,0V425c0,0,0,109,-41,171c0,0,-41,62,-140,62H66V836H352c0,0,99,0,174,-20c0,0,75,-20,123,-55c0,0,48,-35,78,-87c0,0,30,-53,42,-113c0,0,12,-60,12,-136V0Z" 
id="f0_4"
transform="scale(0.001,-0.001)" />

<path d="M139,0V836H386V0Z" 
id="f0_b"
transform="scale(0.001,-0.001)" />

<path d="M143,0V355c0,0,0,103,26,191c0,0,26,88,79,112H66V836H546V658H484c0,0,-30,0,-50,-24c0,0,-20,-24,-29,-67c0,0,-9,-42,-12,-81c0,0,-3,-39,-3,-89V0Z" 
id="f0_c"
transform="scale(0.001,-0.001)" />

<path d="M83,331V549H551V331Z" 
id="f0_k"
transform="scale(0.001,-0.001)" />

<path d="M153,0V437L399,539V0ZM664,0V450c0,0,0,122,-31,165c0,0,-31,43,-121,43H138V836H511c0,0,113,0,188,-22c0,0,75,-23,123,-73c0,0,47,-51,68,-127c0,0,20,-76,20,-189V0Z" 
id="f0_7"
transform="scale(0.001,-0.001)" />

<path d="M84,-153V45l189,68L66,836H321L497,205c0,0,72,50,101,138c0,0,30,88,30,261V836H878V604c0,0,0,-84,-7,-147c0,0,-7,-63,-25,-126c0,0,-19,-62,-51,-111c0,0,-33,-48,-82,-94c0,0,-50,-45,-122,-84C591,42,519,3,423,-30L84,-153Z" 
id="f0_8"
transform="scale(0.001,-0.001)" />

<path d="M453,0V658H66V836H833V658H700V0Z" 
id="f0_n"
transform="scale(0.001,-0.001)" />

<path d="M146,700v414H323V700Z" 
id="f0_o"
transform="scale(0.001,-0.001)" />

<path d="M81,-216L155,61V288H424V61L241,-216Z" 
id="f0_p"
transform="scale(0.001,-0.001)" />

<path d="M66,0V178H507V449c0,0,0,43,-2,71c0,0,-3,28,-12,56c0,0,-9,28,-26,45c0,0,-17,16,-47,27c0,0,-29,10,-72,10H66V836H349c0,0,97,0,167,-17c0,0,71,-17,117,-49c0,0,46,-32,73,-84c0,0,27,-52,38,-114c0,0,11,-62,11,-147V178H866V0Z" 
id="f0_l"
transform="scale(0.001,-0.001)" />

<path d="M139,0V836H512c0,0,219,0,309,-90c0,0,90,-90,90,-297V0H665V467c0,0,0,110,-31,150c0,0,-32,41,-120,41H385V0Z" 
id="f0_d"
transform="scale(0.001,-0.001)" />

<path d="M122,-200c0,0,99,170,148,338c0,0,49,169,49,342c0,0,0,172,-49,340c0,0,-49,168,-148,340H241c0,0,112,-176,168,-345c0,0,55,-169,55,-335c0,0,0,-167,-55,-337c0,0,-56,-168,-168,-343Z" 
id="f1_y"
transform="scale(0.001,-0.001)" />

<path d="M112,-5c0,0,-39,0,-97,11V113c0,0,48,-10,77,-10c0,0,53,0,70,42c0,0,17,43,17,164V729H50V836H501c0,0,107,0,179,-25c0,0,72,-25,112,-77c0,0,40,-51,57,-118c0,0,16,-67,16,-164V0H726V454c0,0,0,55,-3,92c0,0,-4,37,-17,75c0,0,-14,38,-38,59c0,0,-24,22,-65,36c0,0,-42,13,-102,13H318V309c0,0,0,-160,-46,-237C272,72,226,-5,112,-5Z" 
id="f1_b"
transform="scale(0.001,-0.001)" />

<path d="M139,0V836H278V0Z" 
id="f1_c"
transform="scale(0.001,-0.001)" />

<path d="M71,-141V-15L289,62L66,836H210L416,109c0,0,99,42,153,98c0,0,53,56,80,155c0,0,26,98,26,262V836H817V624c0,0,0,-88,-7,-154c0,0,-7,-67,-25,-132c0,0,-18,-66,-51,-116c0,0,-33,-51,-84,-98c0,0,-50,-48,-123,-87c0,0,-72,-39,-169,-74L71,-141Z" 
id="f1_p"
transform="scale(0.001,-0.001)" />

<path d="M66,0V107H332V555c0,0,0,92,-37,133c0,0,-37,41,-116,41H85V836h94c0,0,153,0,223,-66c0,0,69,-66,69,-231V0Z" 
id="f1_d"
transform="scale(0.001,-0.001)" />

<path d="M66,0V107H554V452c0,0,0,56,-4,93c0,0,-4,37,-18,75c0,0,-14,38,-40,60c0,0,-26,22,-71,36c0,0,-45,13,-110,13H66V836H312c0,0,91,0,157,-17c0,0,66,-17,109,-49c0,0,44,-32,69,-84c0,0,26,-52,36,-114c0,0,10,-62,10,-147V107H817V0Z" 
id="f1_f"
transform="scale(0.001,-0.001)" />

<path d="M114,0l60,312c0,0,2,12,8,39c0,0,6,27,7,37c0,0,2,11,5,30c0,0,2,19,4,33c0,0,1,15,1,31c0,0,0,48,-35,146c0,0,-35,98,-98,208H228c0,0,3,-8,27,-67c0,0,25,-58,41,-117c0,0,21,53,50,90c0,0,29,37,57,57c0,0,29,21,65,32c0,0,37,11,65,14c0,0,28,3,67,3c0,0,300,0,300,-396V0H480V106H761V452c0,0,0,146,-46,215c0,0,-45,70,-118,70c0,0,-134,0,-198,-119c0,0,-36,-68,-67,-222c0,0,-2,-10,-6,-27L253,0Z" 
id="f1_l"
transform="scale(0.001,-0.001)" />

<path d="M102,312V836H241V369L102,312Z" 
id="f1_q"
transform="scale(0.001,-0.001)" />

<path d="M522,92c0,0,247,0,247,333c0,0,0,88,-17,146c0,0,-17,58,-53,91c0,0,-35,33,-82,46c0,0,-48,14,-116,14H276V419c0,0,0,-327,246,-327Zm0,-112c0,0,-193,0,-289,109c0,0,-95,110,-95,337V836H501c0,0,213,0,309,-93c0,0,96,-94,96,-317c0,0,0,-227,-95,-337C811,89,715,-20,522,-20Z" 
id="f1_g"
transform="scale(0.001,-0.001)" />

<path d="M180,0L66,836H203L258,443c0,0,36,1,64,6c0,0,28,6,49,18c0,0,20,12,35,26c0,0,15,13,26,36c0,0,11,24,17,44c0,0,7,20,12,55c0,0,6,34,9,60c0,0,3,26,8,71c0,0,4,45,9,77H610c0,0,-13,-194,-31,-271c0,0,-31,-127,-111,-179c0,0,-71,-45,-196,-50L304,107c0,0,73,0,130,5c0,0,56,6,111,21c0,0,54,15,94,40c0,0,40,25,77,64c0,0,37,39,63,94c0,0,25,54,46,128c0,0,21,73,34,166c0,0,13,94,20,211h138c0,0,-14,-124,-29,-218c0,0,-16,-94,-39,-179c0,0,-22,-85,-50,-146c0,0,-28,-61,-68,-112c0,0,-39,-51,-87,-84C744,97,696,65,632,42C632,42,568,19,492,10C492,10,417,0,320,0Z" 
id="f1_o"
transform="scale(0.001,-0.001)" />

<path d="M154,0V454l138,56V0ZM722,0V454c0,0,0,161,-49,218c0,0,-48,57,-186,57H139V836H485c0,0,207,0,291,-93c0,0,83,-94,83,-318V0Z" 
id="f1_3"
transform="scale(0.001,-0.001)" />

<path d="M287,0L589,729H66v386H205V836l547,-1l-2,-82L433,0Z" 
id="f1_e"
transform="scale(0.001,-0.001)" />

<path d="M66,0V106H322c0,0,75,0,127,23c0,0,53,23,82,67c0,0,29,43,42,98c0,0,13,54,13,124c0,0,0,70,-13,124c0,0,-13,55,-42,98c0,0,-29,44,-82,67c0,0,-52,23,-127,23H66V836H322c0,0,87,0,157,-24c0,0,70,-24,115,-64c0,0,45,-40,74,-94c0,0,30,-55,43,-113c0,0,13,-59,13,-123c0,0,0,-64,-13,-123c0,0,-13,-58,-43,-113c0,0,-29,-54,-74,-94C594,88,549,48,479,24C479,24,409,0,322,0Z" 
id="f1_n"
transform="scale(0.001,-0.001)" />

<path d="M284,67c0,0,51,0,88,12c0,0,37,12,74,30V358l-98,-3c0,0,-100,-4,-135,-39c0,0,-35,-35,-35,-117c0,0,0,-132,106,-132ZM233,-14c0,0,-179,0,-179,208c0,0,0,70,27,116c0,0,27,46,87,70c0,0,60,24,173,27l105,3V519c0,0,0,72,-26,107c0,0,-27,34,-82,34c0,0,-75,0,-137,-35L176,538H134V691c0,0,121,26,213,26c0,0,115,0,169,-47c0,0,54,-47,54,-144V52L657,33V0H465L451,70c0,0,-85,-84,-218,-84Z" 
id="f2_3"
transform="scale(0.001,-0.001)" />

<path d="M58,-234v58c0,0,131,42,131,125c0,0,0,15,-11,27c0,0,-11,12,-38,25C140,1,89,27,89,75c0,0,0,40,25,61c0,0,26,21,65,21c0,0,48,0,77,-34c0,0,30,-34,30,-86c0,0,0,-101,-60,-170c0,0,-59,-69,-168,-101Z" 
id="f2_z"
transform="scale(0.001,-0.001)" />

<path d="M377,45c0,0,99,0,147,73c0,0,47,73,47,237c0,0,0,161,-47,233c0,0,-47,72,-147,72c0,0,-97,0,-141,-69c0,0,-44,-69,-44,-236c0,0,0,-169,45,-240c0,0,44,-70,140,-70Zm0,-59c0,0,-158,0,-238,94c0,0,-81,95,-81,274c0,0,0,178,81,272c0,0,80,94,244,94c0,0,160,0,241,-92c0,0,82,-92,82,-274c0,0,0,-368,-329,-368Z" 
id="f2_9"
transform="scale(0.001,-0.001)" />

<path d="M495,413c0,0,0,133,-34,190c0,0,-34,57,-105,57c0,0,-78,0,-119,-63c0,0,-42,-62,-42,-184ZM374,-14c0,0,-163,0,-239,87c0,0,-75,88,-75,283c0,0,0,183,77,273c0,0,76,91,219,91c0,0,269,0,269,-306V353H194V340c0,0,0,-103,23,-160c0,0,22,-57,70,-87c0,0,47,-29,124,-29c0,0,40,0,96,6c0,0,55,7,91,15V43C598,43,562,20,500,3c0,0,-61,-17,-126,-17Z" 
id="f2_6"
transform="scale(0.001,-0.001)" />

<path d="M700,-317V454c0,0,0,155,-54,215c0,0,-54,60,-180,60H277V551c0,0,0,-55,26,-80c0,0,27,-26,82,-26c0,0,30,0,80,10V341c0,0,-61,-11,-111,-11c0,0,-100,0,-157,55c0,0,-58,55,-58,186V836H466c0,0,203,0,288,-91c0,0,85,-92,85,-293V-317Z" 
id="f1_10"
transform="scale(0.001,-0.001)" />

<path d="M354,-200c0,0,-112,175,-167,343c0,0,-56,170,-56,337c0,0,0,166,55,335c0,0,55,169,168,345H473c0,0,-100,-172,-148,-340c0,0,-48,-168,-48,-340c0,0,0,-173,48,-342c0,0,49,-168,148,-338Z" 
id="f1_x"
transform="scale(0.001,-0.001)" />

<path d="M278,-14c0,0,-52,0,-115,11c0,0,-63,10,-99,23V193H98L134,95c0,0,56,-50,146,-50c0,0,144,0,144,123c0,0,0,91,-114,130l-66,21c0,0,-75,25,-110,50c0,0,-34,26,-53,63c0,0,-18,36,-18,89c0,0,0,92,63,145c0,0,63,54,170,54c0,0,77,0,193,-23V544H454l-32,81c0,0,-39,35,-124,35c0,0,-61,0,-92,-30c0,0,-32,-30,-32,-80c0,0,0,-43,29,-72c0,0,28,-29,86,-48c0,0,110,-38,144,-55c0,0,33,-17,57,-42c0,0,23,-25,36,-57c0,0,13,-32,13,-79c0,0,0,-104,-66,-158c0,0,-66,-53,-195,-53Z" 
id="f2_4"
transform="scale(0.001,-0.001)" />

<path d="M163,0V190H321V0Z" 
id="f1_m"
transform="scale(0.001,-0.001)" />

<path d="M117,-176L179,62V190H336V62L213,-176Z" 
id="f1_a"
transform="scale(0.001,-0.001)" />

<path d="M139,0V138c0,0,0,61,8,112c0,0,7,52,19,87c0,0,11,36,30,66c0,0,19,31,35,49c0,0,17,19,41,35c0,0,25,17,41,25c0,0,17,7,40,17L141,836H303L613,388c0,0,20,10,33,18c0,0,13,8,34,28c0,0,20,20,33,44c0,0,13,25,22,66c0,0,10,41,10,92V836H882V698c0,0,0,-61,-7,-112c0,0,-6,-52,-18,-88c0,0,-12,-36,-30,-66c0,0,-19,-30,-36,-49c0,0,-17,-18,-41,-34c0,0,-24,-17,-40,-25c0,0,-17,-8,-41,-17L882,0H720L409,448c0,0,-21,-11,-34,-19c0,0,-13,-8,-34,-27c0,0,-21,-20,-34,-44c0,0,-12,-25,-22,-66c0,0,-9,-41,-9,-92V0Z" 
id="f1_9"
transform="scale(0.001,-0.001)" />

<path d="M41,0V34L426,641H261c0,0,-42,0,-80,-7c0,0,-39,-7,-54,-19L104,515H69V701H586V665L201,60H407c0,0,42,0,89,10c0,0,47,10,66,25l39,147h35L617,0Z" 
id="f2_t"
transform="scale(0.001,-0.001)" />

<path d="M543,-317V369c0,0,0,85,-8,143c0,0,-8,58,-27,101c0,0,-18,44,-51,69c0,0,-33,24,-80,36c0,0,-48,11,-117,11H66V836H257c0,0,125,0,205,-23c0,0,80,-23,130,-79c0,0,50,-56,70,-143c0,0,20,-86,20,-222V-317Z" 
id="f1_u"
transform="scale(0.001,-0.001)" />

<path d="M139,0V106H400c0,0,176,0,253,71c0,0,78,72,78,250c0,0,0,163,-80,233c0,0,-81,69,-250,69H278L277,564c0,0,-1,-54,26,-80c0,0,27,-25,82,-25c0,0,30,0,80,9V355c0,0,-61,-12,-111,-12c0,0,-100,0,-157,55c0,0,-58,55,-58,186V836H456c0,0,193,0,303,-109c0,0,110,-109,110,-309c0,0,0,-200,-110,-309C759,109,648,0,456,0Z" 
id="f1_8"
transform="scale(0.001,-0.001)" />

<path d="M399,-14c0,0,-341,0,-341,370c0,0,0,175,87,269c0,0,87,95,249,95c0,0,101,0,220,-23V501H573L541,625c0,0,-62,35,-149,35c0,0,-200,0,-200,-304c0,0,0,-158,61,-225c0,0,61,-67,189,-67c0,0,109,0,189,24V43C631,43,595,16,530,1c0,0,-64,-15,-131,-15Z" 
id="f2_f"
transform="scale(0.001,-0.001)" />

<path d="M138,-7c0,0,-34,0,-72,10V129c0,0,25,-8,52,-8c0,0,33,0,58,5c0,0,26,5,58,24c0,0,33,20,53,54c0,0,21,34,36,97c0,0,15,64,15,151c0,0,0,113,-19,173c0,0,-19,60,-56,82c0,0,-38,22,-107,22H89V836h72c0,0,165,0,240,-91c0,0,76,-91,76,-293c0,0,0,-107,26,-227c0,0,25,-119,83,-225H437c0,0,-43,101,-62,184c0,0,-24,-60,-51,-99c0,0,-26,-38,-56,-58C268,27,239,7,209,0c0,0,-30,-7,-71,-7Z" 
id="f1_j"
transform="scale(0.001,-0.001)" />

<path d="M585,0V426c0,0,0,54,-8,98c0,0,-8,44,-27,83c0,0,-19,40,-49,66c0,0,-30,26,-77,41c0,0,-47,15,-108,15H66V836H315c0,0,94,0,166,-20c0,0,71,-20,116,-54c0,0,46,-35,75,-88c0,0,28,-52,40,-112c0,0,12,-60,12,-137V0Z" 
id="f1_7"
transform="scale(0.001,-0.001)" />

<path d="M495,0V729H66V836H781V729H634V0Z" 
id="f1_r"
transform="scale(0.001,-0.001)" />

<path d="M147,700v414H274V700Z" 
id="f1_11"
transform="scale(0.001,-0.001)" />

<path d="M736,107V473c0,0,0,147,-48,202c0,0,-49,54,-187,54H278V107ZM139,0V836H499c0,0,105,0,177,-22c0,0,72,-21,116,-69c0,0,44,-49,64,-119c0,0,19,-71,19,-174V0Z" 
id="f1_i"
transform="scale(0.001,-0.001)" />

<path d="M71,0V90H214v934H71v90H1073V851H970v160H502V654H792V796H895V411H792V552H502V103H984V263h102V0Z" 
id="f3_2"
transform="scale(0.001,-0.001)" />

<path d="M87,-338c0,0,-45,0,-94,7c0,0,-51,8,-105,22v168l84,-1c0,0,1,-59,23,-86c0,0,21,-26,70,-26c0,0,55,0,77,35c0,0,21,35,21,127V703H51v90H427V-92c0,0,0,-122,-86,-184c0,0,-86,-62,-254,-62ZM277,876c0,0,-61,0,-102,41c0,0,-42,41,-42,101c0,0,0,60,41,101c0,0,42,42,103,42c0,0,58,0,100,-42c0,0,42,-42,42,-101c0,0,0,-59,-42,-101c0,0,-41,-41,-100,-41Z" 
id="f3_3"
transform="scale(0.001,-0.001)" />

<path d="M612,448c0,0,0,156,-29,219c0,0,-29,63,-99,63c0,0,-68,0,-98,-61c0,0,-29,-62,-29,-208V448ZM488,-20c0,0,-205,0,-315,107C173,87,63,195,63,397c0,0,0,197,112,307c0,0,113,110,313,110c0,0,197,0,303,-115c0,0,105,-116,111,-340H357v-6c0,0,0,-154,46,-222c0,0,46,-68,149,-68c0,0,86,0,139,45c0,0,53,46,68,133H883C883,241,851,105,755,42c0,0,-95,-62,-267,-62Z" 
id="f3_4"
transform="scale(0.001,-0.001)" />

<path d="M53,0V90H165V703H44v90H429V652c0,0,39,83,103,123c0,0,64,39,156,39c0,0,24,0,57,-3c0,0,33,-3,76,-9V565H737c0,0,-4,63,-34,94c0,0,-30,31,-87,31c0,0,-87,0,-137,-76c0,0,-50,-76,-50,-211V90H573V0Z" 
id="f3_5"
transform="scale(0.001,-0.001)" />

<path d="M507,-20c0,0,-212,0,-328,108C179,88,63,198,63,397c0,0,0,197,114,307c0,0,115,110,320,110c0,0,82,0,167,-15c0,0,84,-16,171,-47V532H752c0,0,-12,101,-59,150c0,0,-47,48,-132,48c0,0,-111,0,-157,-74c0,0,-47,-75,-47,-259c0,0,0,-180,45,-257c0,0,46,-77,149,-77c0,0,80,0,128,47c0,0,48,48,58,137H861C861,247,833,112,745,45c0,0,-87,-65,-238,-65Z" 
id="f3_6"
transform="scale(0.001,-0.001)" />

<path d="M53,0V90H165V703H53v90H429V90H543V0ZM285,876c0,0,-61,0,-102,41c0,0,-42,41,-42,101c0,0,0,60,42,101c0,0,41,42,102,42c0,0,59,0,100,-42c0,0,41,-41,41,-101c0,0,0,-59,-41,-101c0,0,-41,-41,-100,-41Z" 
id="f3_7"
transform="scale(0.001,-0.001)" />

<path d="M510,63c0,0,84,0,118,71c0,0,34,72,34,263c0,0,0,191,-34,262c0,0,-33,71,-118,71c0,0,-84,0,-119,-72c0,0,-34,-72,-34,-261c0,0,0,-190,34,-262c0,0,35,-72,119,-72Zm0,-83c0,0,-209,0,-328,110C182,90,63,201,63,397c0,0,0,196,119,307c0,0,119,110,328,110c0,0,211,0,330,-110c0,0,118,-111,118,-307c0,0,0,-196,-119,-307C839,90,720,-20,510,-20Z" 
id="f3_8"
transform="scale(0.001,-0.001)" />

<path d="M484,-20c0,0,-88,0,-182,14c0,0,-93,14,-195,44V283h90c0,0,8,-106,66,-162c0,0,58,-55,161,-55c0,0,113,0,175,63c0,0,62,63,62,178c0,0,0,121,-65,187c0,0,-64,65,-183,65H364v90h39c0,0,109,0,165,51c0,0,55,51,55,152c0,0,0,94,-52,145c0,0,-52,50,-149,50c0,0,-88,0,-139,-48c0,0,-52,-48,-62,-140H131v223c0,0,98,26,191,39c0,0,92,13,180,13c0,0,202,0,309,-72c0,0,108,-72,108,-206c0,0,0,-101,-62,-164c0,0,-62,-62,-181,-84c0,0,146,-23,217,-99c0,0,72,-76,72,-208c0,0,0,-156,-123,-239c0,0,-124,-82,-358,-82Z" 
id="f3_c"
transform="scale(0.001,-0.001)" />

<path d="M139,0V836H485c0,0,206,0,290,-90c0,0,84,-89,84,-294V0H721V473c0,0,0,147,-49,202c0,0,-48,54,-186,54H277V0Z" 
id="f1_h"
transform="scale(0.001,-0.001)" />

<path d="M44,0V40L172,60V941L44,960v40H445V960L316,941V549H787V941L659,960v40h400V960L930,941V60L1059,40V0H659V40L787,60V481H316V60L445,40V0Z" 
id="f2_a"
transform="scale(0.001,-0.001)" />

<path d="M376,50c0,0,103,0,149,80c0,0,46,81,46,240c0,0,0,137,-47,204c0,0,-48,67,-148,67c0,0,-44,0,-87,-7c0,0,-44,-8,-63,-17V62c0,0,63,-12,150,-12Zm3,-64c0,0,-64,0,-141,14c0,0,-78,14,-136,37v971L0,1026v34H226V809c0,0,0,-40,-4,-148c0,0,74,59,188,59c0,0,143,0,219,-87c0,0,77,-87,77,-263c0,0,0,-189,-84,-287c0,0,-84,-97,-243,-97Z" 
id="f2_b"
transform="scale(0.001,-0.001)" />

<path d="M31,0V33l88,19V649L31,668v33H235l7,-87c0,0,44,37,121,71c0,0,76,35,121,35h11V530H463l-43,82c0,0,-37,0,-88,-10c0,0,-52,-10,-89,-26V52L363,33V0Z" 
id="f2_c"
transform="scale(0.001,-0.001)" />

<path d="M81,0L258,1008l-96,18l6,34H391L214,52L331,33L325,0Z" 
id="f4_b"
transform="scale(0.001,-0.001)" />

<path d="M325,47c0,0,68,0,130,54c0,0,61,55,97,149c0,0,36,94,36,202c0,0,0,103,-39,156c0,0,-39,53,-113,53c0,0,-67,0,-128,-54c0,0,-61,-55,-96,-149c0,0,-35,-94,-35,-204c0,0,0,-101,39,-154c0,0,39,-53,109,-53Zm-6,-61c0,0,-124,0,-199,79c0,0,-74,79,-74,214c0,0,0,120,51,222c0,0,51,102,143,160c0,0,91,59,205,59c0,0,124,0,199,-80c0,0,74,-79,74,-214c0,0,0,-120,-51,-222C667,204,615,102,524,43c0,0,-91,-57,-205,-57Z" 
id="f4_5"
transform="scale(0.001,-0.001)" />

<path d="M228,-14c0,0,-103,0,-209,46L49,200H83L95,99c0,0,20,-21,55,-38c0,0,36,-16,81,-16c0,0,163,0,163,133c0,0,0,44,-35,78c0,0,-34,34,-113,72c0,0,-75,37,-112,81c0,0,-36,45,-36,104c0,0,0,99,66,153c0,0,67,54,184,54c0,0,85,0,200,-26L521,538H486l-11,80c0,0,-47,42,-124,42c0,0,-61,0,-97,-28c0,0,-37,-28,-37,-87c0,0,0,-40,31,-71c0,0,32,-30,119,-75c0,0,78,-40,113,-86c0,0,36,-47,36,-107c0,0,0,-113,-71,-167c0,0,-72,-53,-217,-53Z" 
id="f4_2"
transform="scale(0.001,-0.001)" />

<path d="M305,45c0,0,76,0,141,56c0,0,64,56,101,151c0,0,37,95,37,200c0,0,0,83,-35,129c0,0,-34,46,-92,46c0,0,-44,0,-96,-29c0,0,-51,-29,-97,-75L185,81c0,0,43,-36,120,-36ZM295,-14c0,0,-65,0,-128,16C167,2,104,19,57,48l171,960l-100,18l6,34H358L303,731c0,0,-13,-85,-29,-144c0,0,59,61,122,97c0,0,64,36,116,36c0,0,94,0,150,-67c0,0,56,-67,56,-182c0,0,0,-129,-56,-242C662,229,606,115,509,50c0,0,-98,-64,-214,-64Z" 
id="f4_g"
transform="scale(0.001,-0.001)" />

<path d="M85,0L199,649l-96,19l6,33H332L218,52L335,33L329,0ZM297,849c0,0,-33,0,-57,24c0,0,-24,24,-24,57c0,0,0,33,24,57c0,0,24,24,57,24c0,0,33,0,57,-24c0,0,24,-24,24,-57c0,0,0,-33,-24,-57c0,0,-24,-24,-57,-24Z" 
id="f4_a"
transform="scale(0.001,-0.001)" />

<path d="M188,355c0,0,148,11,236,69c0,0,89,58,89,143c0,0,0,41,-23,68c0,0,-22,27,-66,27c0,0,-52,0,-101,-43c0,0,-49,-42,-85,-114c0,0,-36,-71,-50,-150ZM298,-14c0,0,-120,0,-186,67c0,0,-65,67,-65,193c0,0,0,125,53,232c0,0,52,108,145,175c0,0,94,67,196,67c0,0,92,0,147,-42c0,0,56,-43,56,-111c0,0,0,-102,-126,-173c0,0,-125,-72,-336,-86l-3,-54c0,0,0,-95,40,-143c0,0,40,-47,118,-47c0,0,67,0,124,22c0,0,57,23,106,52l22,-32c0,0,-69,-58,-146,-89c0,0,-76,-31,-145,-31Z" 
id="f4_e"
transform="scale(0.001,-0.001)" />

<path d="M540,92c0,0,246,0,311,333c0,0,17,87,12,146c0,0,-6,58,-35,91c0,0,-29,33,-74,46c0,0,-45,13,-112,13H416L357,419C357,419,294,92,540,92ZM518,-21c0,0,-193,0,-267,109c0,0,-74,110,-30,337l80,411H664c0,0,213,0,290,-94c0,0,78,-93,35,-317C989,425,945,198,828,88C828,88,711,-21,518,-21Z" 
id="f5_8"
transform="scale(0.001,-0.001)" />

<path d="M162,312L264,836H403L312,369L162,312Z" 
id="f5_3"
transform="scale(0.001,-0.001)" />

<path d="M66,0L87,106H343c0,0,75,0,132,23c0,0,57,23,94,67c0,0,37,43,61,98c0,0,23,54,37,124c0,0,13,70,11,124c0,0,-2,54,-23,98c0,0,-20,43,-68,66c0,0,-48,24,-123,24H207l21,106H485c0,0,87,0,152,-24c0,0,65,-24,102,-64c0,0,37,-40,56,-95c0,0,20,-54,21,-113c0,0,2,-58,-11,-122c0,0,-13,-64,-37,-123c0,0,-24,-59,-64,-113c0,0,-41,-54,-93,-94C611,88,558,48,484,24C484,24,410,0,322,0Z" 
id="f5_9"
transform="scale(0.001,-0.001)" />

<path d="M301,78c0,0,85,0,185,104l81,442c0,0,-29,20,-55,28c0,0,-25,8,-62,8c0,0,-75,0,-137,-56c0,0,-62,-56,-98,-152c0,0,-36,-95,-36,-199c0,0,0,-79,33,-127c0,0,33,-48,89,-48ZM245,-14c0,0,-90,0,-145,66c0,0,-54,66,-54,182c0,0,0,131,57,244c0,0,57,114,152,178c0,0,96,64,208,64c0,0,90,0,170,-33l33,26h40L589,52L673,33L667,0H454l22,117C476,117,350,-14,245,-14Z" 
id="f4_3"
transform="scale(0.001,-0.001)" />

<path d="M317,45c0,0,74,0,134,54c0,0,60,55,97,153c0,0,36,98,36,200c0,0,0,82,-33,129c0,0,-33,46,-89,46c0,0,-40,0,-93,-29c0,0,-54,-29,-96,-75L192,81c0,0,46,-36,125,-36ZM-88,-325l5,35l90,17L170,649L93,668l6,33H297L283,588c0,0,130,132,235,132c0,0,90,0,145,-67c0,0,55,-66,55,-182c0,0,0,-132,-56,-244C662,227,606,114,510,49c0,0,-97,-63,-209,-63c0,0,-35,0,-72,5c0,0,-37,5,-55,11l-8,-67L130,-273l119,-17l-6,-35Z" 
id="f4_h"
transform="scale(0.001,-0.001)" />

<path d="M228,-17c0,0,-76,0,-114,40c0,0,-38,41,-38,117c0,0,0,11,4,39c0,0,4,29,80,470L78,667l6,34H293L217,268c0,0,-17,-94,-17,-124c0,0,0,-34,18,-55c0,0,18,-21,57,-21c0,0,55,0,120,47c0,0,65,47,107,115l83,471H709L595,52L683,33L677,0H469l20,144C489,144,427,64,360,23c0,0,-67,-40,-132,-40Z" 
id="f4_i"
transform="scale(0.001,-0.001)" />

<path d="M62,0L176,649L88,668l6,33H301L278,543c0,0,55,84,124,130c0,0,69,47,138,47c0,0,37,0,59,-6L566,530H534l-28,95c0,0,-60,0,-124,-46c0,0,-63,-45,-116,-120L186,0Z" 
id="f4_f"
transform="scale(0.001,-0.001)" />

<path d="M200,-14c0,0,-59,0,-93,35c0,0,-34,36,-34,100c0,0,0,22,4,51c0,0,4,30,82,467H67l6,33l99,29L275,860h47L295,701H455L443,639H283L210,230c0,0,-13,-69,-13,-99c0,0,0,-34,17,-51c0,0,17,-16,43,-16c0,0,54,0,113,21L386,50c0,0,-92,-64,-186,-64Z" 
id="f4_d"
transform="scale(0.001,-0.001)" />

<path d="M111,-5c0,0,-39,0,-95,11L37,113c0,0,47,-11,75,-11c0,0,53,0,78,43c0,0,26,42,49,164l82,420H192l21,107H664c0,0,107,0,174,-25c0,0,67,-25,97,-77c0,0,30,-51,34,-119c0,0,3,-67,-16,-163L865,0H727l88,454c0,0,11,55,14,92c0,0,4,37,-3,74c0,0,-6,38,-26,60c0,0,-19,21,-58,35c0,0,-39,14,-99,14H460L377,309c0,0,-30,-160,-91,-237C286,72,225,-5,111,-5Z" 
id="f5_a"
transform="scale(0.001,-0.001)" />

<path d="M287,0L730,729H207l75,385H421L368,836l547,-1L896,753L433,0Z" 
id="f5_b"
transform="scale(0.001,-0.001)" />

<path d="M495,0L636,729H207l21,107H944L923,729H775L633,0Z" 
id="f5_c"
transform="scale(0.001,-0.001)" />

<path d="M31,0V33L150,52v956L31,1026v34H274V52L394,33V0Z" 
id="f2_7"
transform="scale(0.001,-0.001)" />

<path d="M383,64c0,0,85,0,152,28V645c0,0,-67,13,-152,13c0,0,-194,0,-194,-314c0,0,0,-141,48,-211c0,0,48,-69,146,-69ZM342,-14c0,0,-287,0,-287,358c0,0,0,184,82,280c0,0,81,96,239,96c0,0,81,0,163,-18c0,0,-4,25,-4,124v182l-118,18v34H659V52L745,33V0H548l-9,52c0,0,-84,-66,-197,-66Z" 
id="f2_k"
transform="scale(0.001,-0.001)" />

<path d="M32,0V33L151,52V649L52,668v33H275V52L395,33V0ZM201,850c0,0,-32,0,-56,24c0,0,-24,24,-24,56c0,0,0,34,24,58c0,0,24,24,56,24c0,0,34,0,58,-24c0,0,24,-24,24,-58c0,0,0,-32,-24,-56c0,0,-24,-24,-58,-24Z" 
id="f2_e"
transform="scale(0.001,-0.001)" />

<path d="M249,-14c0,0,-71,0,-107,42c0,0,-35,42,-35,119V639H15v33l93,29l76,159h47V701H391V639H231V161c0,0,0,-48,22,-73c0,0,22,-24,57,-24c0,0,44,0,106,12V26C416,26,389,8,340,-2c0,0,-49,-12,-91,-12Z" 
id="f2_5"
transform="scale(0.001,-0.001)" />

<path d="M289,-14c0,0,-179,0,-179,205V649L20,668v33H233V200c0,0,0,-128,120,-128c0,0,92,0,173,23V649L420,668v33H649V52L738,33V0H533l-6,57C527,57,474,28,405,7c0,0,-69,-21,-116,-21Z" 
id="f2_m"
transform="scale(0.001,-0.001)" />

<path d="M377,44c0,0,99,0,147,73c0,0,47,73,47,237c0,0,0,161,-47,234c0,0,-47,72,-147,72c0,0,-97,0,-141,-69c0,0,-44,-70,-44,-237c0,0,0,-169,45,-239c0,0,44,-71,140,-71Zm0,-58c0,0,-158,0,-238,94c0,0,-81,95,-81,274c0,0,0,178,81,272c0,0,80,94,244,94c0,0,160,0,241,-92c0,0,82,-92,82,-274c0,0,0,-368,-329,-368ZM301,835v24l147,203H606v-27L342,835Z" 
id="f2_g"
transform="scale(0.001,-0.001)" />

<path d="M439,0V33l93,19V500c0,0,0,62,-30,97c0,0,-31,36,-94,36c0,0,-67,0,-165,-22V52L338,33V0H35V33l84,19V649L35,668v33H235l7,-57c0,0,57,33,122,54c0,0,65,22,108,22c0,0,91,0,137,-53c0,0,47,-53,47,-154V52L741,33V0Z" 
id="f2_8"
transform="scale(0.001,-0.001)" />

<path d="M360,-14L72,649L0,668v33H327V668L216,648L420,164L615,649L504,668v33H764V668L697,652L416,-14Z" 
id="f2_r"
transform="scale(0.001,-0.001)" />

<path d="M431,0V33L535,52V499c0,0,0,62,-32,96c0,0,-32,33,-95,33c0,0,-66,0,-163,-22V52L350,33V0H32V33l89,19V649L32,668v33H237l6,-57c0,0,56,32,119,54c0,0,62,22,110,22c0,0,52,0,95,-20c0,0,44,-19,66,-62c0,0,57,32,134,57c0,0,77,25,128,25c0,0,179,0,179,-207V52l90,-19V0H846V33L950,52V499c0,0,0,129,-119,129c0,0,-19,0,-45,-3c0,0,-26,-3,-52,-7c0,0,-25,-4,-49,-8c0,0,-23,-5,-39,-8c0,0,13,-41,13,-89V52L764,33V0Z" 
id="f2_i"
transform="scale(0.001,-0.001)" />

<path d="M448,506c0,0,134,0,190,49c0,0,57,50,57,168c0,0,0,114,-56,162c0,0,-56,48,-195,48H316V506ZM777,0L496,438H316V60L468,40V0H54V40L172,60V941L44,960v40H476c0,0,188,0,277,-63c0,0,90,-64,90,-204c0,0,0,-100,-54,-173c0,0,-55,-73,-151,-101L909,60L1017,40V0Z" 
id="f2_v"
transform="scale(0.001,-0.001)" />

<path d="M382,45c0,0,188,0,188,314c0,0,0,143,-47,213c0,0,-46,69,-141,69c0,0,-87,0,-146,-24V58c0,0,67,-13,146,-13ZM25,-325v35l88,18V649L34,668v33H231l1,-41c0,0,31,27,84,43c0,0,53,17,107,17c0,0,134,0,208,-94c0,0,73,-93,73,-267c0,0,0,-178,-80,-276c0,0,-80,-97,-232,-97c0,0,-84,0,-160,16c0,0,4,-53,4,-84V-272l123,-18v-35Z" 
id="f2_d"
transform="scale(0.001,-0.001)" />

<path d="M139,0V177H436c0,0,127,0,184,56c0,0,56,55,56,186c0,0,0,132,-58,186c0,0,-58,53,-181,53H386L385,553c0,0,0,-40,12,-54c0,0,12,-15,31,-15c0,0,19,0,38,2V343c0,0,-46,-11,-94,-11c0,0,-48,0,-87,11c0,0,-38,10,-73,34c0,0,-73,53,-73,196V836H487c0,0,203,0,319,-109c0,0,116,-109,116,-309c0,0,0,-200,-117,-309C805,109,689,0,487,0Z" 
id="f0_5"
transform="scale(0.001,-0.001)" />

<path d="M403,-20c0,0,-74,0,-156,11C247,-9,164,1,71,23V244h84c0,0,11,-88,67,-135c0,0,56,-46,152,-46c0,0,81,0,124,28c0,0,43,28,43,80c0,0,0,47,-28,74c0,0,-27,26,-105,45L299,318c0,0,-123,30,-178,87c0,0,-55,57,-55,154c0,0,0,129,89,192c0,0,89,63,276,63c0,0,70,0,149,-11c0,0,80,-12,176,-36V567H672c0,0,-7,81,-58,122c0,0,-51,41,-147,41c0,0,-80,0,-122,-25c0,0,-41,-26,-41,-75c0,0,0,-41,24,-64c0,0,24,-23,86,-38L522,500c0,0,156,-40,215,-98c0,0,60,-58,60,-162c0,0,0,-134,-96,-198c0,0,-96,-62,-298,-62Z" 
id="f3_d"
transform="scale(0.001,-0.001)" />

<path d="M431,-20c0,0,-163,0,-221,50c0,0,-58,50,-58,187V703H37v90H152v246H416V793H636V703H416V217c0,0,0,-104,16,-129c0,0,16,-25,59,-25c0,0,48,0,71,32c0,0,23,32,25,99H698c0,0,-7,-119,-65,-167c0,0,-59,-47,-202,-47Z" 
id="f3_e"
transform="scale(0.001,-0.001)" />

<path d="M442,103c0,0,61,0,99,40c0,0,37,40,37,106V408H479c0,0,-74,0,-114,-40c0,0,-39,-41,-39,-116c0,0,0,-75,28,-112c0,0,29,-37,88,-37ZM315,-20c0,0,-122,0,-187,64c0,0,-65,65,-65,187c0,0,0,133,93,199c0,0,94,67,283,67H578v47c0,0,0,96,-46,142c0,0,-45,45,-141,45c0,0,-79,0,-122,-32c0,0,-43,-33,-61,-106H124V764c0,0,71,25,147,38c0,0,76,12,161,12c0,0,212,0,311,-79c0,0,99,-79,99,-248V90H955V0H578V101C578,101,526,38,461,8c0,0,-64,-28,-146,-28Z" 
id="f3_f"
transform="scale(0.001,-0.001)" />

<path d="M137,0L30,830H277L321,522c0,0,68,3,96,27c0,0,27,23,38,58c0,0,26,74,31,228H733c0,0,-31,-218,-70,-316c0,0,-23,-59,-88,-100c0,0,-54,-34,-116,-42c0,0,-62,-8,-117,-8L362,178c0,0,27,-1,61,-1c40,0,89,1,119,6c0,0,57,8,94,25c0,0,37,18,69,47c0,0,32,30,60,79c0,0,28,48,51,117c0,0,48,143,82,384h248c0,0,-53,-404,-172,-586C974,249,879,103,745,51C745,51,613,0,318,0Z" 
id="f0_q"
transform="scale(0.001,-0.001)" />

<path d="M129,0l69,362c0,0,10,56,12,100c0,0,0,84,-27,159c0,0,-27,76,-117,215H322c0,0,9,-6,31,-79c0,0,23,-72,23,-105c0,0,23,82,100,138c0,0,77,57,160,57c0,0,332,0,332,-397V0H538V177H721V449c0,0,0,124,-20,170c0,0,-20,47,-82,47c0,0,-23,0,-43,-9c0,0,-19,-10,-34,-23c0,0,-14,-14,-27,-39c0,0,-13,-25,-22,-46c0,0,-8,-22,-17,-57c0,0,-9,-36,-15,-61c0,0,-5,-24,-13,-65L375,0Z" 
id="f0_9"
transform="scale(0.001,-0.001)" />

<path d="M276,-14c0,0,-57,0,-125,13C151,-1,83,10,48,23V214H97l28,-98c0,0,26,-26,69,-44c0,0,42,-17,86,-17c0,0,65,0,97,28c0,0,32,28,32,71c0,0,0,41,-31,65c0,0,-30,25,-133,57c0,0,-108,34,-154,92c0,0,-45,58,-45,143c0,0,0,95,71,152c0,0,71,57,183,57c0,0,77,0,207,-22V518H457l-24,82c0,0,-21,22,-60,35c0,0,-40,14,-75,14c0,0,-53,0,-79,-22c0,0,-26,-22,-26,-59c0,0,0,-40,32,-65c0,0,32,-26,132,-55c0,0,109,-34,155,-89c0,0,45,-55,45,-137c0,0,0,-117,-72,-177c0,0,-72,-59,-209,-59Z" 
id="f6_e"
transform="scale(0.001,-0.001)" />

<path d="M434,423c0,0,0,101,-7,142c0,0,-6,40,-22,60c0,0,-16,19,-45,19c0,0,-44,0,-66,-48c0,0,-22,-49,-22,-173ZM389,-14c0,0,-172,0,-254,89c0,0,-83,90,-83,279c0,0,0,184,79,274c0,0,79,91,238,91c0,0,142,0,206,-76c0,0,64,-76,64,-237V345H271V333c0,0,0,-111,18,-158c0,0,18,-47,58,-72c0,0,40,-25,110,-25c0,0,66,0,166,22V42C623,42,582,18,517,1c0,0,-66,-15,-128,-15Z" 
id="f6_g"
transform="scale(0.001,-0.001)" />

<path d="M41,0V49l91,18V634L41,652v49H336l8,-145c0,0,80,89,144,128c0,0,64,40,117,40h40V468H604l-45,94c0,0,-47,0,-106,-21c0,0,-60,-20,-105,-48V67L460,49V0Z" 
id="f6_5"
transform="scale(0.001,-0.001)" />

<path d="M171,0V288H440V0Zm0,548V836H440V548Z" 
id="f0_e"
transform="scale(0.001,-0.001)" />

<path d="M66,0V106H564L66,836H228L516,413c0,0,3,2,9,6c0,0,17,13,27,21c0,0,10,8,26,27c0,0,17,20,26,40c0,0,9,21,16,54c0,0,7,34,7,75V836H764V698c0,0,0,-55,-7,-102c0,0,-7,-47,-16,-79c0,0,-10,-33,-27,-62c0,0,-18,-29,-32,-46c0,0,-14,-17,-37,-35c0,0,-22,-17,-36,-25c0,0,-13,-8,-36,-20L767,53V0Z" 
id="f1_s"
transform="scale(0.001,-0.001)" />

<path d="M156,-317V454l139,56V-317ZM505,0L806,729H139V835H967V753L650,0Z" 
id="f1_6"
transform="scale(0.001,-0.001)" />

<path d="M152,0V473c0,0,0,94,28,161c0,0,29,66,71,95H66V836H463V729H404c0,0,-65,0,-89,-57c0,0,-25,-58,-25,-199V0Z" 
id="f1_4"
transform="scale(0.001,-0.001)" />

<path d="M147,700v414H274V700Zm282,0v414H556V700Z" 
id="f1_12"
transform="scale(0.001,-0.001)" />

<path d="M74,365V472H689V365Z" 
id="f1_13"
transform="scale(0.001,-0.001)" />

<path d="M327,-14c0,0,-101,0,-156,45c0,0,-55,45,-55,131V624H25v48l108,29l87,159H332V701H480V624H332V176c0,0,0,-49,20,-73c0,0,20,-25,53,-25c0,0,40,0,97,12V26c0,0,-22,-15,-76,-27c0,0,-55,-13,-99,-13Z" 
id="f6_h"
transform="scale(0.001,-0.001)" />

<path d="M345,75c0,0,50,0,110,26V351l-63,-2c0,0,-72,-3,-100,-38c0,0,-28,-35,-28,-113c0,0,0,-63,22,-93c0,0,23,-30,59,-30ZM266,-14c0,0,-217,0,-217,208c0,0,0,79,32,126c0,0,32,48,93,71c0,0,60,22,190,25l91,2V521c0,0,0,126,-104,126c0,0,-62,0,-140,-39L183,521H134V691c0,0,112,17,165,21c0,0,53,5,108,5c0,0,264,0,264,-194V67L741,49V0H483L466,54C466,54,408,14,361,0c0,0,-47,-14,-95,-14Z" 
id="f6_7"
transform="scale(0.001,-0.001)" />

<path d="M179,0V190H336V0Zm0,600V790H336V600Z" 
id="f1_v"
transform="scale(0.001,-0.001)" />

<path d="M522,-20c0,0,-196,0,-290,99c0,0,-94,100,-94,324V836H276V397c0,0,0,-86,16,-147c0,0,17,-60,50,-94c0,0,34,-34,77,-49c0,0,43,-15,103,-15c0,0,59,0,102,15c0,0,44,15,77,49c0,0,33,34,50,94c0,0,17,61,17,147c0,0,0,84,-8,143c0,0,-7,58,-25,105c0,0,-17,47,-51,69c0,0,-33,23,-83,23c0,0,-50,0,-119,-22V821c0,0,85,23,150,23c0,0,76,0,130,-30c0,0,53,-31,85,-90c0,0,31,-59,45,-138c0,0,13,-78,13,-183c0,0,0,-224,-93,-324c0,0,-94,-99,-290,-99Z" 
id="f1_k"
transform="scale(0.001,-0.001)" />

<path d="M528,389V930L196,389ZM363,0V90H528V293H63v86l466,755H810V389h190V293H810V90H975V0Z" 
id="f3_g"
transform="scale(0.001,-0.001)" />

<path d="M148,-329c0,0,-58,0,-114,13v151H69l24,-71c0,0,23,-17,64,-17c0,0,39,0,72,22c0,0,33,23,60,67c0,0,27,44,68,157L90,649L19,668v33H344V668L233,648L423,158L606,649L497,668v33H758V668L685,652L411,-43c0,0,-48,-124,-84,-177c0,0,-36,-54,-79,-82c0,0,-44,-27,-100,-27Z" 
id="f2_10"
transform="scale(0.001,-0.001)" />

<path d="M289,-14c0,0,-179,0,-179,205V649L20,668v33H233V200c0,0,0,-128,120,-128c0,0,92,0,173,23V649L420,668v33H649V52L738,34V0H533l-6,57C527,57,474,28,405,6c0,0,-69,-20,-116,-20Zm24,849v24l147,203H618v-27L354,835Z" 
id="f2_x"
transform="scale(0.001,-0.001)" />

<path d="M495,413c0,0,0,133,-34,190c0,0,-34,57,-105,57c0,0,-78,0,-119,-62c0,0,-42,-63,-42,-185ZM374,-14c0,0,-163,0,-239,87c0,0,-75,88,-75,283c0,0,0,183,77,274c0,0,76,90,219,90c0,0,269,0,269,-306V353H194V339c0,0,0,-103,23,-160c0,0,22,-57,70,-86c0,0,47,-30,124,-30c0,0,40,0,96,6c0,0,55,7,91,15V43C598,43,562,19,500,2c0,0,-61,-16,-126,-16ZM285,835v24l146,203H590v-27L326,835Z" 
id="f2_j"
transform="scale(0.001,-0.001)" />

<path d="M0,-14L351,1007h73L75,-14Z" 
id="f2_11"
transform="scale(0.001,-0.001)" />

<path d="M557,-14c0,0,-199,0,-298,89c0,0,-99,90,-99,255V941L32,960v40H432V960L304,941V341c0,0,0,-273,264,-273c0,0,144,0,220,68c0,0,77,68,77,202V941L730,960v40h341V960L943,941V344c0,0,0,-180,-99,-269c0,0,-99,-89,-287,-89Z" 
id="f2_12"
transform="scale(0.001,-0.001)" />

<path d="M191,-20c0,0,-39,0,-65,25c0,0,-25,27,-25,64c0,0,0,38,26,64c0,0,26,26,64,26c0,0,38,0,64,-26c0,0,26,-26,26,-64c0,0,0,-37,-25,-64c0,0,-26,-25,-65,-25Z" 
id="f2_13"
transform="scale(0.001,-0.001)" />

<path d="M494,-20c0,0,-91,0,-181,15c0,0,-90,14,-188,45V283h90c0,0,5,-110,57,-164c0,0,53,-53,156,-53c0,0,109,0,162,73c0,0,53,73,53,224c0,0,0,148,-51,222c0,0,-52,73,-157,73c0,0,-57,0,-102,-23c0,0,-44,-24,-82,-73H176v552H861V918H266V673c0,0,49,38,110,58c0,0,60,19,127,19c0,0,206,0,325,-104c0,0,119,-104,119,-283c0,0,0,-182,-119,-283C828,80,709,-20,494,-20Z" 
id="f3_h"
transform="scale(0.001,-0.001)" />

<path d="M868,0L251,900V60L385,40V0H44V40L172,60V941L44,960v40H347L862,259V941L727,960v40h341V960L940,941V0Z" 
id="f2_14"
transform="scale(0.001,-0.001)" />

<path d="M-11,-196v76H776v-76Z" 
id="f2_15"
transform="scale(0.001,-0.001)" />

<path d="M529,65c0,0,183,0,270,108c0,0,87,108,87,334c0,0,0,210,-113,318c0,0,-113,108,-322,108H316V71c0,0,90,-6,213,-6Zm0,-67L172,0H44V40L172,60V941L44,960v40H498c0,0,277,0,411,-123c0,0,133,-124,133,-371c0,0,0,-251,-129,-380C913,126,785,-2,529,-2Z" 
id="f2_16"
transform="scale(0.001,-0.001)" />

<path d="M681,416L504,902L333,416ZM669,0V40L803,60L704,348H310L210,60L344,40V0H15V40L128,60l341,949H611L965,60L1092,40V0Z" 
id="f2_17"
transform="scale(0.001,-0.001)" />

<path d="M64,-325c0,0,-46,0,-107,14v148H-8l19,-81c0,0,25,-21,62,-21c0,0,44,0,67,47c0,0,22,47,22,152V649L57,668v33H286V-28c0,0,0,-146,-57,-221c0,0,-56,-76,-165,-76ZM213,850c0,0,-34,0,-58,24c0,0,-24,24,-24,56c0,0,0,34,24,58c0,0,24,24,58,24c0,0,32,0,56,-24c0,0,24,-24,24,-58c0,0,0,-32,-24,-56c0,0,-24,-24,-56,-24Z" 
id="f2_u"
transform="scale(0.001,-0.001)" />


</defs>
</svg>