<?xml version="1.0" encoding="UTF-8" standalone="no"?>
<!DOCTYPE svg PUBLIC "-//W3C//DTD SVG 1.1//EN"
"http://www.w3.org/Graphics/SVG/1.1/DTD/svg11.dtd">
<svg viewBox="0 0 909 1286" version="1.1" xmlns="http://www.w3.org/2000/svg" xmlns:xlink="http://www.w3.org/1999/xlink">
<defs>
<clipPath id="c0_24"><path d="M0,1286.2V0H909.4V1286.2Z" /></clipPath>
<style type="text/css"><![CDATA[
.g0_24{
fill: none;
stroke: #000000;
stroke-width: 0.7638889;
stroke-linecap: butt;
stroke-linejoin: round;
}
.g1_24{
fill: none;
stroke: #0000FF;
stroke-width: 1.0694444;
stroke-linecap: butt;
stroke-linejoin: miter;
}
.g2_24{
fill: none;
stroke: #000000;
stroke-width: 0.9166667;
stroke-linecap: butt;
stroke-linejoin: miter;
}
]]></style>
</defs>
<path d="M128.6,110.4H577M128.6,131.6H577M128.6,152.9H577M128.6,174.1H577M128.6,195.3H577M128.6,216.6H577M128.9,110V216.9M334.6,110V216.9M464.6,110V216.9M576.6,110V216.9" class="g0_24" />
<g clip-path="url(#c0_24)">
<g fill="#000000" >
<use xlink:href="#f0_8" transform="matrix(10.5,0,0,10.5,473.3,125.7)" />
<use xlink:href="#f0_9" transform="matrix(10.5,0,0,10.5,480.5,125.7)" />
<use xlink:href="#f0_8" transform="matrix(10.5,0,0,10.5,488.4,125.7)" />
<use xlink:href="#f0_7" transform="matrix(10.5,0,0,10.5,495.6,125.7)" />
<use xlink:href="#f0_p" transform="matrix(10.5,0,0,10.5,500,125.7)" />
<use xlink:href="#f0_l" transform="matrix(10.5,0,0,10.5,508,125.7)" />
<use xlink:href="#f0_r" transform="matrix(10.5,0,0,10.5,515.1,125.7)" />
<use xlink:href="#f0_9" transform="matrix(10.5,0,0,10.5,520.5,125.7)" />
<use xlink:href="#f0_8" transform="matrix(10.5,0,0,10.5,343.4,125.7)" />
<use xlink:href="#f0_9" transform="matrix(10.5,0,0,10.5,350.5,125.7)" />
<use xlink:href="#f0_8" transform="matrix(10.5,0,0,10.5,358.6,125.7)" />
<use xlink:href="#f0_7" transform="matrix(10.5,0,0,10.5,365.7,125.7)" />
<use xlink:href="#f0_p" transform="matrix(10.5,0,0,10.5,370,125.7)" />
<use xlink:href="#f0_l" transform="matrix(10.5,0,0,10.5,378.1,125.7)" />
<use xlink:href="#f0_r" transform="matrix(10.5,0,0,10.5,385.3,125.7)" />
<use xlink:href="#f0_b" transform="matrix(10.5,0,0,10.5,390.5,125.7)" />
<use xlink:href="#f0_q" transform="matrix(10.5,0,0,10.5,397.6,125.7)" />
<use xlink:href="#f1_f" transform="matrix(11.5,0,0,11.5,293.5,127.1)" />
<use xlink:href="#f1_2" transform="matrix(11.5,0,0,11.5,304.9,127.1)" />
<use xlink:href="#f1_p" transform="matrix(11.5,0,0,11.5,315,127.1)" />
<use xlink:href="#f0_6" transform="matrix(10.5,0,0,10.5,473.3,147)" />
<use xlink:href="#f0_l" transform="matrix(10.5,0,0,10.5,481.4,147)" />
<use xlink:href="#f0_1k" transform="matrix(10.5,0,0,10.5,488.4,147)" />
<use xlink:href="#f0_l" transform="matrix(10.5,0,0,10.5,496.5,147)" />
<use xlink:href="#f0_d" transform="matrix(10.5,0,0,10.5,503.7,147)" />
<use xlink:href="#f0_b" transform="matrix(10.5,0,0,10.5,508,147)" />
<use xlink:href="#f0_r" transform="matrix(10.5,0,0,10.5,515.1,147)" />
<use xlink:href="#f0_7" transform="matrix(10.5,0,0,10.5,520.5,147)" />
<use xlink:href="#f0_b" transform="matrix(10.5,0,0,10.5,524.9,147)" />
<use xlink:href="#f0_p" transform="matrix(10.5,0,0,10.5,531.9,147)" />
<use xlink:href="#f0_b" transform="matrix(10.5,0,0,10.5,540,147)" />
<use xlink:href="#f0_6" transform="matrix(10.5,0,0,10.5,343.4,147)" />
<use xlink:href="#f0_l" transform="matrix(10.5,0,0,10.5,351.4,147)" />
<use xlink:href="#f0_1k" transform="matrix(10.5,0,0,10.5,358.6,147)" />
<use xlink:href="#f0_l" transform="matrix(10.5,0,0,10.5,366.5,147)" />
<use xlink:href="#f0_d" transform="matrix(10.5,0,0,10.5,373.7,147)" />
<use xlink:href="#f0_b" transform="matrix(10.5,0,0,10.5,378.1,147)" />
<use xlink:href="#f0_r" transform="matrix(10.5,0,0,10.5,385.3,147)" />
<use xlink:href="#f0_7" transform="matrix(10.5,0,0,10.5,390.6,147)" />
<use xlink:href="#f0_b" transform="matrix(10.5,0,0,10.5,394.9,147)" />
<use xlink:href="#f0_p" transform="matrix(10.5,0,0,10.5,402.1,147)" />
<use xlink:href="#f0_9" transform="matrix(10.5,0,0,10.5,410,147)" />
<use xlink:href="#f0_q" transform="matrix(10.5,0,0,10.5,418.1,147)" />
<use xlink:href="#f1_3" transform="matrix(11.5,0,0,11.5,277,148.3)" />
<use xlink:href="#f1_l" transform="matrix(11.5,0,0,11.5,280.9,148.3)" />
<use xlink:href="#f1_9" transform="matrix(11.5,0,0,11.5,288,148.3)" />
<use xlink:href="#f1_f" transform="matrix(11.5,0,0,11.5,292.7,148.3)" />
<use xlink:href="#f1_m" transform="matrix(11.5,0,0,11.5,304.2,148.3)" />
<use xlink:href="#f1_q" transform="matrix(11.5,0,0,11.5,316.1,148.3)" />
<use xlink:href="#f0_d" transform="matrix(10.5,0,0,10.5,473.3,168.2)" />
<use xlink:href="#f0_r" transform="matrix(10.5,0,0,10.5,477.7,168.2)" />
<use xlink:href="#f0_7" transform="matrix(10.5,0,0,10.5,483.1,168.2)" />
<use xlink:href="#f0_q" transform="matrix(10.5,0,0,10.5,487.5,168.2)" />
<use xlink:href="#f0_d" transform="matrix(10.5,0,0,10.5,493.7,168.2)" />
<use xlink:href="#f0_l" transform="matrix(10.5,0,0,10.5,498.2,168.2)" />
<use xlink:href="#f0_d" transform="matrix(10.5,0,0,10.5,343.4,168.2)" />
<use xlink:href="#f0_r" transform="matrix(10.5,0,0,10.5,347.9,168.2)" />
<use xlink:href="#f0_7" transform="matrix(10.5,0,0,10.5,353.2,168.2)" />
<use xlink:href="#f0_q" transform="matrix(10.5,0,0,10.5,357.6,168.2)" />
<use xlink:href="#f0_d" transform="matrix(10.5,0,0,10.5,363.9,168.2)" />
<use xlink:href="#f0_l" transform="matrix(10.5,0,0,10.5,368.3,168.2)" />
<use xlink:href="#f0_q" transform="matrix(10.5,0,0,10.5,375.5,168.2)" />
<use xlink:href="#f1_x" transform="matrix(11.5,0,0,11.5,149.4,169.6)" />
<use xlink:href="#f1_6" transform="matrix(11.5,0,0,11.5,156.3,169.6)" />
<use xlink:href="#f1_2" transform="matrix(11.5,0,0,11.5,167.7,169.6)" />
<use xlink:href="#f1_c" transform="matrix(11.5,0,0,11.5,177.8,169.6)" />
<use xlink:href="#f1_l" transform="matrix(11.5,0,0,11.5,190.3,169.6)" />
<use xlink:href="#f1_9" transform="matrix(11.5,0,0,11.5,197.3,169.6)" />
<use xlink:href="#f1_5" transform="matrix(11.5,0,0,11.5,207.7,169.6)" />
<use xlink:href="#f1_4" transform="matrix(11.5,0,0,11.5,217.6,169.6)" />
<use xlink:href="#f1_b" transform="matrix(11.5,0,0,11.5,226.9,169.6)" />
<use xlink:href="#f1_7" transform="matrix(11.5,0,0,11.5,233,169.6)" />
<use xlink:href="#f1_6" transform="matrix(11.5,0,0,11.5,248.6,169.6)" />
<use xlink:href="#f1_6" transform="matrix(11.5,0,0,11.5,260.1,169.6)" />
<use xlink:href="#f1_b" transform="matrix(11.5,0,0,11.5,271.5,169.6)" />
<use xlink:href="#f1_w" transform="matrix(11.5,0,0,11.5,277.6,169.6)" />
<use xlink:href="#f1_2" transform="matrix(11.5,0,0,11.5,290.1,169.6)" />
<use xlink:href="#f1_9" transform="matrix(11.5,0,0,11.5,300.2,169.6)" />
<use xlink:href="#f1_q" transform="matrix(11.5,0,0,11.5,304.9,169.6)" />
<use xlink:href="#f1_k" transform="matrix(11.5,0,0,11.5,315.3,169.6)" />
<use xlink:href="#f0_j" transform="matrix(10.5,0,0,10.5,473.3,189.4)" />
<use xlink:href="#f0_s" transform="matrix(10.5,0,0,10.5,477.7,189.4)" />
<use xlink:href="#f0_n" transform="matrix(10.5,0,0,10.5,482.2,189.4)" />
<use xlink:href="#f0_l" transform="matrix(10.5,0,0,10.5,490.2,189.4)" />
<use xlink:href="#f0_r" transform="matrix(10.5,0,0,10.5,497.4,189.4)" />
<use xlink:href="#f0_j" transform="matrix(10.5,0,0,10.5,343.4,189.4)" />
<use xlink:href="#f0_s" transform="matrix(10.5,0,0,10.5,347.9,189.4)" />
<use xlink:href="#f0_n" transform="matrix(10.5,0,0,10.5,352.3,189.4)" />
<use xlink:href="#f0_l" transform="matrix(10.5,0,0,10.5,360.2,189.4)" />
<use xlink:href="#f0_r" transform="matrix(10.5,0,0,10.5,367.4,189.4)" />
<use xlink:href="#f0_l" transform="matrix(10.5,0,0,10.5,372.8,189.4)" />
<use xlink:href="#f0_q" transform="matrix(10.5,0,0,10.5,379.9,189.4)" />
<use xlink:href="#f1_x" transform="matrix(11.5,0,0,11.5,144.2,190.8)" />
<use xlink:href="#f1_6" transform="matrix(11.5,0,0,11.5,151.1,190.8)" />
<use xlink:href="#f1_2" transform="matrix(11.5,0,0,11.5,162.5,190.8)" />
<use xlink:href="#f1_c" transform="matrix(11.5,0,0,11.5,172.6,190.8)" />
<use xlink:href="#f1_l" transform="matrix(11.5,0,0,11.5,185.1,190.8)" />
<use xlink:href="#f1_9" transform="matrix(11.5,0,0,11.5,192.2,190.8)" />
<use xlink:href="#f1_5" transform="matrix(11.5,0,0,11.5,202.5,190.8)" />
<use xlink:href="#f1_4" transform="matrix(11.5,0,0,11.5,212.4,190.8)" />
<use xlink:href="#f1_b" transform="matrix(11.5,0,0,11.5,221.7,190.8)" />
<use xlink:href="#f1_7" transform="matrix(11.5,0,0,11.5,227.8,190.8)" />
<use xlink:href="#f1_6" transform="matrix(11.5,0,0,11.5,243.3,190.8)" />
<use xlink:href="#f1_6" transform="matrix(11.5,0,0,11.5,254.7,190.8)" />
<use xlink:href="#f1_b" transform="matrix(11.5,0,0,11.5,266.2,190.8)" />
<use xlink:href="#f1_w" transform="matrix(11.5,0,0,11.5,272.3,190.8)" />
<use xlink:href="#f1_u" transform="matrix(11.5,0,0,11.5,284.8,190.8)" />
<use xlink:href="#f1_3" transform="matrix(11.5,0,0,11.5,291.9,190.8)" />
<use xlink:href="#f1_6" transform="matrix(11.5,0,0,11.5,295.9,190.8)" />
<use xlink:href="#f1_l" transform="matrix(11.5,0,0,11.5,307.4,190.8)" />
<use xlink:href="#f1_m" transform="matrix(11.5,0,0,11.5,314.4,190.8)" />
<use xlink:href="#f0_p" transform="matrix(10.5,0,0,10.5,473.3,210.7)" />
<use xlink:href="#f0_y" transform="matrix(10.5,0,0,10.5,481.4,210.7)" />
<use xlink:href="#f0_l" transform="matrix(10.5,0,0,10.5,489.3,210.7)" />
<use xlink:href="#f0_6" transform="matrix(10.5,0,0,10.5,496.5,210.7)" />
<use xlink:href="#f0_9" transform="matrix(10.5,0,0,10.5,504.4,210.7)" />
<use xlink:href="#f0_q" transform="matrix(10.5,0,0,10.5,512.5,210.7)" />
<use xlink:href="#f0_p" transform="matrix(10.5,0,0,10.5,343.4,210.7)" />
<use xlink:href="#f0_y" transform="matrix(10.5,0,0,10.5,351.4,210.7)" />
<use xlink:href="#f0_l" transform="matrix(10.5,0,0,10.5,359.5,210.7)" />
<use xlink:href="#f0_6" transform="matrix(10.5,0,0,10.5,366.5,210.7)" />
<use xlink:href="#f0_b" transform="matrix(10.5,0,0,10.5,374.6,210.7)" />
<use xlink:href="#f1_n" transform="matrix(11.5,0,0,11.5,293,212.1)" />
<use xlink:href="#f1_h" transform="matrix(11.5,0,0,11.5,305.4,212.1)" />
<use xlink:href="#f1_f" transform="matrix(11.5,0,0,11.5,315,212.1)" />
</g>
<g fill="#0000FF" >
<use xlink:href="#f1_c" transform="matrix(12,0,0,12,669.9,234.1)" />
<use xlink:href="#f1_5" transform="matrix(12,0,0,12,682.9,234.1)" />
<use xlink:href="#f1_d" transform="matrix(12,0,0,12,693.1,234.1)" />
<use xlink:href="#f1_7" transform="matrix(12,0,0,12,704.6,234.1)" />
<use xlink:href="#f1_6" transform="matrix(12,0,0,12,720.9,234.1)" />
<use xlink:href="#f1_5" transform="matrix(12,0,0,12,732.8,234.1)" />
<use xlink:href="#f1_b" transform="matrix(12,0,0,12,743.2,234.1)" />
<use xlink:href="#f1_f" transform="matrix(12,0,0,12,749.6,234.1)" />
<use xlink:href="#f1_2" transform="matrix(12,0,0,12,761.5,234.1)" />
</g>
</g>
<path d="M669.8,235.9H772.1" class="g1_24" />
<g clip-path="url(#c0_24)">
<g fill="#000000" >
<use xlink:href="#f2_b" transform="matrix(12,0,0,12,723.8,293.2)" />
<use xlink:href="#f2_h" transform="matrix(12,0,0,12,735,293.2)" />
<use xlink:href="#f2_f" transform="matrix(12,0,0,12,740.3,293.2)" />
<use xlink:href="#f2_4" transform="matrix(12,0,0,12,748.6,293.2)" />
<use xlink:href="#f2_7" transform="matrix(12,0,0,12,759.6,293.2)" />
<use xlink:href="#f2_m" transform="matrix(12,0,0,12,691.8,293.2)" />
<use xlink:href="#f2_z" transform="matrix(12,0,0,12,704.5,293.2)" />
<use xlink:href="#f2_9" transform="matrix(12,0,0,12,419.1,314.6)" />
<use xlink:href="#f2_b" transform="matrix(12,0,0,12,430.2,314.6)" />
<use xlink:href="#f2_u" transform="matrix(12,0,0,12,461.1,314.6)" />
<use xlink:href="#f2_h" transform="matrix(12,0,0,12,473.9,314.6)" />
<use xlink:href="#f2_a" transform="matrix(12,0,0,12,479.2,314.6)" />
<use xlink:href="#f1_e" transform="matrix(12,0,0,12,137.8,314.6)" />
<use xlink:href="#f1_3" transform="matrix(12,0,0,12,150,314.6)" />
<use xlink:href="#f1_6" transform="matrix(12,0,0,12,154.1,314.6)" />
<use xlink:href="#f1_o" transform="matrix(12,0,0,12,185.3,314.6)" />
<use xlink:href="#f1_r" transform="matrix(12,0,0,12,191.1,314.6)" />
<use xlink:href="#f1_9" transform="matrix(12,0,0,12,196.1,314.6)" />
<use xlink:href="#f1_5" transform="matrix(12,0,0,12,201.1,314.6)" />
<use xlink:href="#f1_f" transform="matrix(12,0,0,12,211.5,314.6)" />
<use xlink:href="#f1_e" transform="matrix(12,0,0,12,223.4,314.6)" />
<use xlink:href="#f1_6" transform="matrix(12,0,0,12,235.7,314.6)" />
<use xlink:href="#f1_p" transform="matrix(12,0,0,12,266.9,314.6)" />
<use xlink:href="#f1_d" transform="matrix(12,0,0,12,278.7,314.6)" />
<use xlink:href="#f1_n" transform="matrix(12,0,0,12,290.1,314.6)" />
<use xlink:href="#f1_m" transform="matrix(12,0,0,12,303.1,314.6)" />
<use xlink:href="#f1_6" transform="matrix(12,0,0,12,315.6,314.6)" />
<use xlink:href="#f1_a" transform="matrix(12,0,0,12,346.8,314.6)" />
<use xlink:href="#f1_5" transform="matrix(12,0,0,12,358.8,314.6)" />
<use xlink:href="#f1_p" transform="matrix(12,0,0,12,369.2,314.6)" />
<use xlink:href="#f1_m" transform="matrix(12,0,0,12,380.9,314.6)" />
<use xlink:href="#f1_o" transform="matrix(12,0,0,12,412.8,314.6)" />
<use xlink:href="#f1_j" transform="matrix(12,0,0,12,274.5,336)" />
<use xlink:href="#f1_3" transform="matrix(12,0,0,12,286.7,336)" />
<use xlink:href="#f1_u" transform="matrix(12,0,0,12,290.8,336)" />
<use xlink:href="#f1_9" transform="matrix(12,0,0,12,298.3,336)" />
<use xlink:href="#f1_6" transform="matrix(12,0,0,12,303.3,336)" />
<use xlink:href="#f1_o" transform="matrix(12,0,0,12,323.6,336)" />
<use xlink:href="#f1_6" transform="matrix(12,0,0,12,329.4,336)" />
<use xlink:href="#f1_2" transform="matrix(12,0,0,12,341.4,336)" />
<use xlink:href="#f1_c" transform="matrix(12,0,0,12,351.9,336)" />
<use xlink:href="#f1_l" transform="matrix(12,0,0,12,364.9,336)" />
<use xlink:href="#f1_j" transform="matrix(12,0,0,12,380.4,336)" />
<use xlink:href="#f1_u" transform="matrix(12,0,0,12,392.6,336)" />
<use xlink:href="#f1_3" transform="matrix(12,0,0,12,408.3,336)" />
<use xlink:href="#f1_4" transform="matrix(12,0,0,12,412.4,336)" />
<use xlink:href="#f1_s" transform="matrix(12,0,0,12,430.3,336)" />
<use xlink:href="#f1_5" transform="matrix(12,0,0,12,440,336)" />
<use xlink:href="#f1_3" transform="matrix(12,0,0,12,450.4,336)" />
<use xlink:href="#f1_4" transform="matrix(12,0,0,12,454.5,336)" />
<use xlink:href="#f1_b" transform="matrix(12,0,0,12,464.2,336)" />
<use xlink:href="#f1_6" transform="matrix(12,0,0,12,470.5,336)" />
<use xlink:href="#f1_7" transform="matrix(12,0,0,12,482.5,336)" />
<use xlink:href="#f0_j" transform="matrix(11,0,0,11,246.6,336)" />
<use xlink:href="#f0_l" transform="matrix(11,0,0,11,251.2,336)" />
<use xlink:href="#f0_l" transform="matrix(11,0,0,11,258.6,336)" />
<use xlink:href="#f1_e" transform="matrix(12,0,0,12,211,336)" />
<use xlink:href="#f1_7" transform="matrix(12,0,0,12,223.2,336)" />
<use xlink:href="#f1_9" transform="matrix(12,0,0,12,233.6,336)" />
<use xlink:href="#f0_j" transform="matrix(11,0,0,11,182.9,336)" />
<use xlink:href="#f0_l" transform="matrix(11,0,0,11,187.5,336)" />
<use xlink:href="#f0_b" transform="matrix(11,0,0,11,194.9,336)" />
</g>
</g>
<path d="M182.9,331.2h19.5" class="g2_24" />
<g clip-path="url(#c0_24)">
<g fill="#000000" >
<use xlink:href="#f1_5" transform="matrix(12,0,0,12,137.7,336)" />
<use xlink:href="#f1_9" transform="matrix(12,0,0,12,148,336)" />
<use xlink:href="#f1_4" transform="matrix(12,0,0,12,152.9,336)" />
<use xlink:href="#f1_b" transform="matrix(12,0,0,12,162.5,336)" />
<use xlink:href="#f1_g" transform="matrix(12,0,0,12,177.2,336)" />
<use xlink:href="#f1_g" transform="matrix(12,0,0,12,337,357.3)" />
<use xlink:href="#f1_a" transform="matrix(12,0,0,12,342.8,357.3)" />
<use xlink:href="#f1_u" transform="matrix(12,0,0,12,354.9,357.3)" />
<use xlink:href="#f1_q" transform="matrix(12,0,0,12,362.4,357.3)" />
<use xlink:href="#f1_3" transform="matrix(12,0,0,12,373.2,357.3)" />
<use xlink:href="#f1_3" transform="matrix(12,0,0,12,377.3,357.3)" />
<use xlink:href="#f1_m" transform="matrix(12,0,0,12,381.3,357.3)" />
<use xlink:href="#f1_e" transform="matrix(12,0,0,12,399.8,357.3)" />
<use xlink:href="#f1_m" transform="matrix(12,0,0,12,412,357.3)" />
<use xlink:href="#f1_u" transform="matrix(12,0,0,12,424.5,357.3)" />
<use xlink:href="#f1_9" transform="matrix(12,0,0,12,432,357.3)" />
<use xlink:href="#f1_h" transform="matrix(12,0,0,12,436.9,357.3)" />
<use xlink:href="#f1_4" transform="matrix(12,0,0,12,447,357.3)" />
<use xlink:href="#f1_a" transform="matrix(12,0,0,12,462.5,357.3)" />
<use xlink:href="#f1_e" transform="matrix(12,0,0,12,474.4,357.3)" />
<use xlink:href="#f1_b" transform="matrix(12,0,0,12,486.7,357.3)" />
<use xlink:href="#f1_18" transform="matrix(12,0,0,12,384.5,398.1)" />
<use xlink:href="#f1_7" transform="matrix(12,0,0,12,394.3,398.1)" />
<use xlink:href="#f1_4" transform="matrix(12,0,0,12,404.7,398.1)" />
<use xlink:href="#f1_9" transform="matrix(12,0,0,12,414.3,398.1)" />
<use xlink:href="#f1_e" transform="matrix(12,0,0,12,419.3,398.1)" />
<use xlink:href="#f1_3" transform="matrix(12,0,0,12,437.5,398.1)" />
<use xlink:href="#f1_l" transform="matrix(12,0,0,12,441.6,398.1)" />
<use xlink:href="#f1_e" transform="matrix(12,0,0,12,448.9,398.1)" />
<use xlink:href="#f1_s" transform="matrix(12,0,0,12,467,398.1)" />
<use xlink:href="#f1_3" transform="matrix(12,0,0,12,476.8,398.1)" />
<use xlink:href="#f1_e" transform="matrix(12,0,0,12,480.9,398.1)" />
<use xlink:href="#f0_1e" transform="matrix(11,0,0,11,137.7,396.8)" />
<use xlink:href="#f0_1d" transform="matrix(11,0,0,11,145.1,396.8)" />
<use xlink:href="#f0_1o" transform="matrix(11,0,0,11,156.3,396.8)" />
<use xlink:href="#f0_a" transform="matrix(11,0,0,11,164.7,396.8)" />
<use xlink:href="#f0_9" transform="matrix(11,0,0,11,177.8,396.8)" />
<use xlink:href="#f0_8" transform="matrix(11,0,0,11,190.5,396.8)" />
<use xlink:href="#f0_9" transform="matrix(11,0,0,11,197.8,396.8)" />
<use xlink:href="#f0_a" transform="matrix(11,0,0,11,206.2,396.8)" />
<use xlink:href="#f0_9" transform="matrix(11,0,0,11,219.3,396.8)" />
<use xlink:href="#f0_1f" transform="matrix(11,0,0,11,227.7,396.8)" />
<use xlink:href="#f1_g" transform="matrix(12,0,0,12,386.2,419.5)" />
<use xlink:href="#f1_6" transform="matrix(12,0,0,12,392,419.5)" />
<use xlink:href="#f1_a" transform="matrix(12,0,0,12,404,419.5)" />
<use xlink:href="#f1_9" transform="matrix(12,0,0,12,415.9,419.5)" />
<use xlink:href="#f1_n" transform="matrix(12,0,0,12,420.9,419.5)" />
<use xlink:href="#f1_c" transform="matrix(12,0,0,12,439.7,419.5)" />
<use xlink:href="#f1_9" transform="matrix(12,0,0,12,452.7,419.5)" />
<use xlink:href="#f1_l" transform="matrix(12,0,0,12,457.7,419.5)" />
<use xlink:href="#f1_3" transform="matrix(12,0,0,12,465,419.5)" />
<use xlink:href="#f1_a" transform="matrix(12,0,0,12,469.1,419.5)" />
<use xlink:href="#f1_6" transform="matrix(12,0,0,12,481.2,419.5)" />
<use xlink:href="#f0_4" transform="matrix(11,0,0,11,137.7,418.2)" />
<use xlink:href="#f0_j" transform="matrix(11,0,0,11,147.9,418.2)" />
<use xlink:href="#f0_10" transform="matrix(11,0,0,11,156.9,418.2)" />
<use xlink:href="#f0_l" transform="matrix(11,0,0,11,165.1,418.2)" />
<use xlink:href="#f0_10" transform="matrix(11,0,0,11,172.6,418.2)" />
<use xlink:href="#f0_h" transform="matrix(11,0,0,11,181,418.2)" />
<use xlink:href="#f0_10" transform="matrix(11,0,0,11,192.7,418.2)" />
<use xlink:href="#f0_l" transform="matrix(11,0,0,11,201.1,418.2)" />
<use xlink:href="#f0_10" transform="matrix(11,0,0,11,208.6,418.2)" />
<use xlink:href="#f0_l" transform="matrix(11,0,0,11,216.8,418.2)" />
<use xlink:href="#f0_o" transform="matrix(11,0,0,11,224.3,418.2)" />
<use xlink:href="#f1_g" transform="matrix(12,0,0,12,394.3,440.9)" />
<use xlink:href="#f1_a" transform="matrix(12,0,0,12,400.1,440.9)" />
<use xlink:href="#f1_e" transform="matrix(12,0,0,12,412.2,440.9)" />
<use xlink:href="#f1_5" transform="matrix(12,0,0,12,424.4,440.9)" />
<use xlink:href="#f1_9" transform="matrix(12,0,0,12,434.6,440.9)" />
<use xlink:href="#f1_c" transform="matrix(12,0,0,12,439.7,440.9)" />
<use xlink:href="#f1_6" transform="matrix(12,0,0,12,458.6,440.9)" />
<use xlink:href="#f1_e" transform="matrix(12,0,0,12,470.5,440.9)" />
<use xlink:href="#f1_7" transform="matrix(12,0,0,12,482.7,440.9)" />
<use xlink:href="#f0_1l" transform="matrix(11,0,0,11,137.7,439.5)" />
<use xlink:href="#f0_l" transform="matrix(11,0,0,11,147.9,439.5)" />
<use xlink:href="#f0_b" transform="matrix(11,0,0,11,155.3,439.5)" />
<use xlink:href="#f0_j" transform="matrix(11,0,0,11,167.1,439.5)" />
<use xlink:href="#f0_l" transform="matrix(11,0,0,11,171.7,439.5)" />
<use xlink:href="#f0_l" transform="matrix(11,0,0,11,179.1,439.5)" />
<use xlink:href="#f0_o" transform="matrix(11,0,0,11,186.5,439.5)" />
</g>
<g fill="#0000FF" >
<use xlink:href="#f1_c" transform="matrix(12,0,0,12,669.9,481.6)" />
<use xlink:href="#f1_5" transform="matrix(12,0,0,12,682.9,481.6)" />
<use xlink:href="#f1_d" transform="matrix(12,0,0,12,693.1,481.6)" />
<use xlink:href="#f1_7" transform="matrix(12,0,0,12,704.6,481.6)" />
<use xlink:href="#f1_6" transform="matrix(12,0,0,12,720.9,481.6)" />
<use xlink:href="#f1_5" transform="matrix(12,0,0,12,732.8,481.6)" />
<use xlink:href="#f1_b" transform="matrix(12,0,0,12,743.2,481.6)" />
<use xlink:href="#f1_f" transform="matrix(12,0,0,12,749.6,481.6)" />
<use xlink:href="#f1_2" transform="matrix(12,0,0,12,761.5,481.6)" />
</g>
</g>
<path d="M669.8,483.4H772.1" class="g1_24" />
<g clip-path="url(#c0_24)">
<g fill="#000000" >
<use xlink:href="#f1_10" transform="matrix(11,0,0,11,137.5,1208.9)" />
<use xlink:href="#f1_13" transform="matrix(11,0,0,11,148.2,1208.9)" />
</g>
</g>
<defs>
<path d="M399,-14c0,0,-341,0,-341,370c0,0,0,175,87,269c0,0,87,95,249,95c0,0,101,0,220,-23V501H573L541,625c0,0,-62,35,-149,35c0,0,-200,0,-200,-304c0,0,0,-158,61,-225c0,0,61,-67,189,-67c0,0,109,0,189,24V43C631,43,595,16,530,1c0,0,-64,-15,-131,-15Z" 
id="f0_8"
transform="scale(0.001,-0.001)" />

<path d="M377,45c0,0,99,0,147,73c0,0,47,73,47,237c0,0,0,161,-47,233c0,0,-47,72,-147,72c0,0,-97,0,-141,-69c0,0,-44,-69,-44,-236c0,0,0,-169,45,-240c0,0,44,-70,140,-70Zm0,-59c0,0,-158,0,-238,94c0,0,-81,95,-81,274c0,0,0,178,81,272c0,0,80,94,244,94c0,0,160,0,241,-92c0,0,82,-92,82,-274c0,0,0,-368,-329,-368Z" 
id="f0_9"
transform="scale(0.001,-0.001)" />

<path d="M32,0V33L151,52V649L52,668v33H275V52L395,33V0ZM201,850c0,0,-32,0,-56,24c0,0,-24,24,-24,56c0,0,0,34,24,58c0,0,24,24,56,24c0,0,34,0,58,-24c0,0,24,-24,24,-58c0,0,0,-32,-24,-56c0,0,-24,-24,-58,-24Z" 
id="f0_7"
transform="scale(0.001,-0.001)" />

<path d="M439,0V33l93,19V500c0,0,0,62,-30,97c0,0,-31,36,-94,36c0,0,-67,0,-165,-22V52L338,33V0H35V33l84,19V649L35,668v33H235l7,-57c0,0,57,33,122,54c0,0,65,22,108,22c0,0,91,0,137,-53c0,0,47,-53,47,-154V52L741,33V0Z" 
id="f0_p"
transform="scale(0.001,-0.001)" />

<path d="M495,413c0,0,0,133,-34,190c0,0,-34,57,-105,57c0,0,-78,0,-119,-63c0,0,-42,-62,-42,-184ZM374,-14c0,0,-163,0,-239,87c0,0,-75,88,-75,283c0,0,0,183,77,273c0,0,76,91,219,91c0,0,269,0,269,-306V353H194V340c0,0,0,-103,23,-160c0,0,22,-57,70,-87c0,0,47,-29,124,-29c0,0,40,0,96,6c0,0,55,7,91,15V43C598,43,562,20,500,3c0,0,-61,-17,-126,-17Z" 
id="f0_l"
transform="scale(0.001,-0.001)" />

<path d="M31,0V33l88,19V649L31,668v33H235l7,-87c0,0,44,37,121,71c0,0,76,35,121,35h11V530H463l-43,82c0,0,-37,0,-88,-10c0,0,-52,-10,-89,-26V52L363,33V0Z" 
id="f0_r"
transform="scale(0.001,-0.001)" />

<path d="M284,67c0,0,51,0,88,12c0,0,37,12,74,30V358l-98,-3c0,0,-100,-4,-135,-39c0,0,-35,-35,-35,-117c0,0,0,-132,106,-132ZM233,-14c0,0,-179,0,-179,208c0,0,0,70,27,116c0,0,27,46,87,70c0,0,60,24,173,27l105,3V519c0,0,0,72,-26,107c0,0,-27,34,-82,34c0,0,-75,0,-137,-35L176,538H134V691c0,0,121,26,213,26c0,0,115,0,169,-47c0,0,54,-47,54,-144V52L657,33V0H465L451,70c0,0,-85,-84,-218,-84Z" 
id="f0_b"
transform="scale(0.001,-0.001)" />

<path d="M278,-14c0,0,-52,0,-115,11c0,0,-63,10,-99,23V193H98L134,95c0,0,56,-50,146,-50c0,0,144,0,144,123c0,0,0,91,-114,130l-66,21c0,0,-75,25,-110,50c0,0,-34,26,-53,63c0,0,-18,36,-18,89c0,0,0,92,63,145c0,0,63,54,170,54c0,0,77,0,193,-23V544H454l-32,81c0,0,-39,35,-124,35c0,0,-61,0,-92,-30c0,0,-32,-30,-32,-80c0,0,0,-43,29,-72c0,0,28,-29,86,-48c0,0,110,-38,144,-55c0,0,33,-17,57,-42c0,0,23,-25,36,-57c0,0,13,-32,13,-79c0,0,0,-104,-66,-158c0,0,-66,-53,-195,-53Z" 
id="f0_q"
transform="scale(0.001,-0.001)" />

<path d="M139,0V836H485c0,0,206,0,290,-90c0,0,84,-89,84,-294V0H721V473c0,0,0,147,-49,202c0,0,-48,54,-186,54H277V0Z" 
id="f1_f"
transform="scale(0.001,-0.001)" />

<path d="M66,0V107H554V452c0,0,0,56,-4,93c0,0,-4,37,-18,75c0,0,-14,38,-40,60c0,0,-26,22,-71,36c0,0,-45,13,-110,13H66V836H312c0,0,91,0,157,-17c0,0,66,-17,109,-49c0,0,44,-32,69,-84c0,0,26,-52,36,-114c0,0,10,-62,10,-147V107H817V0Z" 
id="f1_2"
transform="scale(0.001,-0.001)" />

<path d="M522,-20c0,0,-196,0,-290,99c0,0,-94,100,-94,324V836H276V397c0,0,0,-86,16,-147c0,0,17,-60,50,-94c0,0,34,-34,77,-49c0,0,43,-15,103,-15c0,0,59,0,102,15c0,0,44,15,77,49c0,0,33,34,50,94c0,0,17,61,17,147c0,0,0,84,-8,143c0,0,-7,58,-25,105c0,0,-17,47,-51,69c0,0,-33,23,-83,23c0,0,-50,0,-119,-22V821c0,0,85,23,150,23c0,0,76,0,130,-30c0,0,53,-31,85,-90c0,0,31,-59,45,-138c0,0,13,-78,13,-183c0,0,0,-224,-93,-324c0,0,-94,-99,-290,-99Z" 
id="f1_p"
transform="scale(0.001,-0.001)" />

<path d="M360,-14L72,649L0,668v33H327V668L216,648L420,164L615,649L504,668v33H764V668L697,652L416,-14Z" 
id="f0_6"
transform="scale(0.001,-0.001)" />

<path d="M359,-270c0,0,124,0,192,46c0,0,67,47,67,129c0,0,0,43,-26,67c0,0,-26,24,-79,24H242c0,0,-32,-27,-51,-69c0,0,-20,-41,-20,-77c0,0,0,-64,46,-92c0,0,46,-28,142,-28Zm11,561c0,0,81,0,115,47c0,0,34,47,34,141c0,0,0,100,-35,142c0,0,-35,42,-113,42c0,0,-78,0,-114,-43c0,0,-37,-42,-37,-141c0,0,0,-98,36,-143c0,0,36,-45,114,-45ZM359,-329c0,0,-143,0,-218,44c0,0,-75,43,-75,125c0,0,0,39,27,78c0,0,26,38,98,89c0,0,-43,14,-72,48c0,0,-29,35,-29,74L208,262c0,0,-118,55,-118,217c0,0,0,115,73,178c0,0,73,63,211,63c0,0,28,0,71,-6c0,0,44,-6,67,-13l165,83l26,-32L599,644c0,0,50,-56,50,-165c0,0,0,-120,-72,-182c0,0,-73,-62,-208,-62c0,0,-62,0,-114,11L208,148c0,0,2,-13,29,-24c0,0,27,-12,67,-12H512c0,0,113,0,168,-49c0,0,55,-49,55,-134c0,0,0,-79,-44,-137c0,0,-43,-58,-128,-90c0,0,-84,-31,-204,-31Z" 
id="f0_1k"
transform="scale(0.001,-0.001)" />

<path d="M249,-14c0,0,-71,0,-107,42c0,0,-35,42,-35,119V639H15v33l93,29l76,159h47V701H391V639H231V161c0,0,0,-48,22,-73c0,0,22,-24,57,-24c0,0,44,0,106,12V26C416,26,389,8,340,-2c0,0,-49,-12,-91,-12Z" 
id="f0_d"
transform="scale(0.001,-0.001)" />

<path d="M102,312V836H241V369L102,312Z" 
id="f1_3"
transform="scale(0.001,-0.001)" />

<path d="M66,0V107H332V555c0,0,0,92,-37,133c0,0,-37,41,-116,41H85V836h94c0,0,153,0,223,-66c0,0,69,-66,69,-231V0Z" 
id="f1_l"
transform="scale(0.001,-0.001)" />

<path d="M139,0V836H278V0Z" 
id="f1_9"
transform="scale(0.001,-0.001)" />

<path d="M114,0l60,312c0,0,2,12,8,39c0,0,6,27,7,37c0,0,2,11,5,30c0,0,2,19,4,33c0,0,1,15,1,31c0,0,0,48,-35,146c0,0,-35,98,-98,208H228c0,0,3,-8,27,-67c0,0,25,-58,41,-117c0,0,21,53,50,90c0,0,29,37,57,57c0,0,29,21,65,32c0,0,37,11,65,14c0,0,28,3,67,3c0,0,300,0,300,-396V0H480V106H761V452c0,0,0,146,-46,215c0,0,-45,70,-118,70c0,0,-134,0,-198,-119c0,0,-36,-68,-67,-222c0,0,-2,-10,-6,-27L253,0Z" 
id="f1_m"
transform="scale(0.001,-0.001)" />

<path d="M66,0V106H564L66,836H228L516,413c0,0,3,2,9,6c0,0,17,13,27,21c0,0,10,8,26,27c0,0,17,20,26,40c0,0,9,21,16,54c0,0,7,34,7,75V836H764V698c0,0,0,-55,-7,-102c0,0,-7,-47,-16,-79c0,0,-10,-33,-27,-62c0,0,-18,-29,-32,-46c0,0,-14,-17,-37,-35c0,0,-22,-17,-36,-25c0,0,-13,-8,-36,-20L767,53V0Z" 
id="f1_q"
transform="scale(0.001,-0.001)" />

<path d="M354,-200c0,0,-112,175,-167,343c0,0,-56,170,-56,337c0,0,0,166,55,335c0,0,55,169,168,345H473c0,0,-100,-172,-148,-340c0,0,-48,-168,-48,-340c0,0,0,-173,48,-342c0,0,49,-168,148,-338Z" 
id="f1_x"
transform="scale(0.001,-0.001)" />

<path d="M154,0V454l138,56V0ZM722,0V454c0,0,0,161,-49,218c0,0,-48,57,-186,57H139V836H485c0,0,207,0,291,-93c0,0,83,-94,83,-318V0Z" 
id="f1_6"
transform="scale(0.001,-0.001)" />

<path d="M156,-317V454l139,56V-317ZM505,0L806,729H139V835H967V753L650,0Z" 
id="f1_c"
transform="scale(0.001,-0.001)" />

<path d="M585,0V426c0,0,0,54,-8,98c0,0,-8,44,-27,83c0,0,-19,40,-49,66c0,0,-30,26,-77,41c0,0,-47,15,-108,15H66V836H315c0,0,94,0,166,-20c0,0,71,-20,116,-54c0,0,46,-35,75,-88c0,0,28,-52,40,-112c0,0,12,-60,12,-137V0Z" 
id="f1_5"
transform="scale(0.001,-0.001)" />

<path d="M66,0V106H322c0,0,75,0,127,23c0,0,53,23,82,67c0,0,29,43,42,98c0,0,13,54,13,124c0,0,0,70,-13,124c0,0,-13,55,-42,98c0,0,-29,44,-82,67c0,0,-52,23,-127,23H66V836H322c0,0,87,0,157,-24c0,0,70,-24,115,-64c0,0,45,-40,74,-94c0,0,30,-55,43,-113c0,0,13,-59,13,-123c0,0,0,-64,-13,-123c0,0,-13,-58,-43,-113c0,0,-29,-54,-74,-94C594,88,549,48,479,24C479,24,409,0,322,0Z" 
id="f1_4"
transform="scale(0.001,-0.001)" />

<path d="M152,0V473c0,0,0,94,28,161c0,0,29,66,71,95H66V836H463V729H404c0,0,-65,0,-89,-57c0,0,-25,-58,-25,-199V0Z" 
id="f1_b"
transform="scale(0.001,-0.001)" />

<path d="M287,0L589,729H66v386H205V836l547,-1l-2,-82L433,0Z" 
id="f1_7"
transform="scale(0.001,-0.001)" />

<path d="M122,-200c0,0,99,170,148,338c0,0,49,169,49,342c0,0,0,172,-49,340c0,0,-49,168,-148,340H241c0,0,112,-176,168,-345c0,0,55,-169,55,-335c0,0,0,-167,-55,-337c0,0,-56,-168,-168,-343Z" 
id="f1_w"
transform="scale(0.001,-0.001)" />

<path d="M71,-141V-15L289,62L66,836H210L416,109c0,0,99,42,153,98c0,0,53,56,80,155c0,0,26,98,26,262V836H817V624c0,0,0,-88,-7,-154c0,0,-7,-67,-25,-132c0,0,-18,-66,-51,-116c0,0,-33,-51,-84,-98c0,0,-50,-48,-123,-87c0,0,-72,-39,-169,-74L71,-141Z" 
id="f1_k"
transform="scale(0.001,-0.001)" />

<path d="M31,0V33L150,52v956L31,1026v34H274V52L394,33V0Z" 
id="f0_j"
transform="scale(0.001,-0.001)" />

<path d="M32,0V34L151,52V649L52,668v33H275V52L395,34V0Zm71,835v24l146,203H408v-27L144,835Z" 
id="f0_s"
transform="scale(0.001,-0.001)" />

<path d="M383,64c0,0,85,0,152,28V645c0,0,-67,13,-152,13c0,0,-194,0,-194,-314c0,0,0,-141,48,-211c0,0,48,-69,146,-69ZM342,-14c0,0,-287,0,-287,358c0,0,0,184,82,280c0,0,81,96,239,96c0,0,81,0,163,-18c0,0,-4,25,-4,124v182l-118,18v34H659V52L745,33V0H548l-9,52c0,0,-84,-66,-197,-66Z" 
id="f0_n"
transform="scale(0.001,-0.001)" />

<path d="M138,-7c0,0,-34,0,-72,10V129c0,0,25,-8,52,-8c0,0,33,0,58,5c0,0,26,5,58,24c0,0,33,20,53,54c0,0,21,34,36,97c0,0,15,64,15,151c0,0,0,113,-19,173c0,0,-19,60,-56,82c0,0,-38,22,-107,22H89V836h72c0,0,165,0,240,-91c0,0,76,-91,76,-293c0,0,0,-107,26,-227c0,0,25,-119,83,-225H437c0,0,-43,101,-62,184c0,0,-24,-60,-51,-99c0,0,-26,-38,-56,-58C268,27,239,7,209,0c0,0,-30,-7,-71,-7Z" 
id="f1_u"
transform="scale(0.001,-0.001)" />

<path d="M289,-14c0,0,-179,0,-179,205V649L20,668v33H233V200c0,0,0,-128,120,-128c0,0,92,0,173,23V649L420,668v33H649V52L738,33V0H533l-6,57C527,57,474,28,405,7c0,0,-69,-21,-116,-21Z" 
id="f0_y"
transform="scale(0.001,-0.001)" />

<path d="M180,0L66,836H203L258,443c0,0,36,1,64,6c0,0,28,6,49,18c0,0,20,12,35,26c0,0,15,13,26,36c0,0,11,24,17,44c0,0,7,20,12,55c0,0,6,34,9,60c0,0,3,26,8,71c0,0,4,45,9,77H610c0,0,-13,-194,-31,-271c0,0,-31,-127,-111,-179c0,0,-71,-45,-196,-50L304,107c0,0,73,0,130,5c0,0,56,6,111,21c0,0,54,15,94,40c0,0,40,25,77,64c0,0,37,39,63,94c0,0,25,54,46,128c0,0,21,73,34,166c0,0,13,94,20,211h138c0,0,-14,-124,-29,-218c0,0,-16,-94,-39,-179c0,0,-22,-85,-50,-146c0,0,-28,-61,-68,-112c0,0,-39,-51,-87,-84C744,97,696,65,632,42C632,42,568,19,492,10C492,10,417,0,320,0Z" 
id="f1_n"
transform="scale(0.001,-0.001)" />

<path d="M495,0V729H66V836H781V729H634V0Z" 
id="f1_h"
transform="scale(0.001,-0.001)" />

<path d="M139,0V106H400c0,0,176,0,253,71c0,0,78,72,78,250c0,0,0,163,-80,233c0,0,-81,69,-250,69H278L277,564c0,0,-1,-54,26,-80c0,0,27,-25,82,-25c0,0,30,0,80,9V355c0,0,-61,-12,-111,-12c0,0,-100,0,-157,55c0,0,-58,55,-58,186V836H456c0,0,193,0,303,-109c0,0,110,-109,110,-309c0,0,0,-200,-110,-309C759,109,648,0,456,0Z" 
id="f1_d"
transform="scale(0.001,-0.001)" />

<path d="M248,0L521,658H66v429H313V836l493,-1V716L504,0Z" 
id="f2_b"
transform="scale(0.001,-0.001)" />

<path d="M102,250V836H349V351L102,250Z" 
id="f2_h"
transform="scale(0.001,-0.001)" />

<path d="M154,-13c0,0,-38,0,-85,9V198c0,0,58,-15,103,-15c0,0,84,0,118,60c0,0,35,61,35,206c0,0,0,66,-7,105c0,0,-6,39,-24,63c0,0,-17,25,-44,33c0,0,-27,8,-73,8H66V836H225c0,0,198,0,275,-115c0,0,56,-84,65,-264c0,0,3,-55,3,-148c0,0,0,-177,71,-309L393,1c0,0,-53,130,-54,141c0,0,-28,-90,-65,-123c0,0,-38,-32,-120,-32Z" 
id="f2_f"
transform="scale(0.001,-0.001)" />

<path d="M534,0V425c0,0,0,109,-41,171c0,0,-41,62,-140,62H66V836H352c0,0,99,0,174,-20c0,0,75,-20,123,-55c0,0,48,-35,78,-87c0,0,30,-53,42,-113c0,0,12,-60,12,-136V0Z" 
id="f2_4"
transform="scale(0.001,-0.001)" />

<path d="M173,-6C173,-6,61,-6,15,9V177c0,0,73,-10,82,-10c0,0,37,0,52,30c0,0,14,29,14,116V658H18V836H516c0,0,262,0,341,-145c0,0,48,-89,48,-242V0H658V450c0,0,0,131,-37,171c0,0,-34,37,-105,37H411V313c0,0,0,-189,-67,-258C344,55,285,-6,173,-6Z" 
id="f2_7"
transform="scale(0.001,-0.001)" />

<path d="M180,0V198H433V918L173,864v196l258,54H705V198H958V0Z" 
id="f2_m"
transform="scale(0.001,-0.001)" />

<path d="M532,159c0,0,79,0,122,44c0,0,42,44,42,126c0,0,0,82,-42,126c0,0,-43,44,-122,44c0,0,-81,0,-124,-44c0,0,-43,-44,-43,-126c0,0,0,-82,43,-126c0,0,43,-44,124,-44Zm0,520c0,0,67,0,104,35c0,0,37,36,37,102c0,0,0,67,-37,102c0,0,-37,35,-104,35c0,0,-69,0,-106,-35c0,0,-37,-36,-37,-102c0,0,0,-66,37,-102c0,0,37,-35,106,-35Zm0,-699c0,0,-218,0,-328,83C204,63,93,148,93,314c0,0,0,107,58,178c0,0,58,70,171,101c0,0,-102,31,-153,94c0,0,-52,64,-52,159c0,0,0,141,106,214c0,0,105,74,309,74c0,0,202,0,307,-73c0,0,106,-74,106,-215c0,0,0,-95,-52,-159c0,0,-52,-63,-154,-94c0,0,113,-31,171,-101c0,0,58,-71,58,-178c0,0,0,-166,-110,-251c0,0,-110,-83,-326,-83Z" 
id="f2_z"
transform="scale(0.001,-0.001)" />

<path d="M66,0V178H507V449c0,0,0,43,-2,71c0,0,-3,28,-12,56c0,0,-9,28,-26,45c0,0,-17,16,-47,27c0,0,-29,10,-72,10H66V836H349c0,0,97,0,167,-17c0,0,71,-17,117,-49c0,0,46,-32,73,-84c0,0,27,-52,38,-114c0,0,11,-62,11,-147V178H866V0Z" 
id="f2_9"
transform="scale(0.001,-0.001)" />

<path d="M679,178V467c0,0,0,110,-32,150c0,0,-31,41,-120,41H385V178ZM139,0V836H525c0,0,220,0,311,-90c0,0,90,-90,90,-297V0Z" 
id="f2_u"
transform="scale(0.001,-0.001)" />

<path d="M137,0L30,830H277L321,522c0,0,68,3,96,27c0,0,27,23,38,58c0,0,26,74,31,228H733c0,0,-31,-218,-70,-316c0,0,-23,-59,-88,-100c0,0,-54,-34,-116,-42c0,0,-62,-8,-117,-8L362,178c0,0,27,-1,61,-1c40,0,89,1,119,6c0,0,57,8,94,25c0,0,37,18,69,47c0,0,32,30,60,79c0,0,28,48,51,117c0,0,48,143,82,384h248c0,0,-53,-404,-172,-586C974,249,879,103,745,51C745,51,613,0,318,0Z" 
id="f2_a"
transform="scale(0.001,-0.001)" />

<path d="M139,0V138c0,0,0,61,8,112c0,0,7,52,19,87c0,0,11,36,30,66c0,0,19,31,35,49c0,0,17,19,41,35c0,0,25,17,41,25c0,0,17,7,40,17L141,836H303L613,388c0,0,20,10,33,18c0,0,13,8,34,28c0,0,20,20,33,44c0,0,13,25,22,66c0,0,10,41,10,92V836H882V698c0,0,0,-61,-7,-112c0,0,-6,-52,-18,-88c0,0,-12,-36,-30,-66c0,0,-19,-30,-36,-49c0,0,-17,-18,-41,-34c0,0,-24,-17,-40,-25c0,0,-17,-8,-41,-17L882,0H720L409,448c0,0,-21,-11,-34,-19c0,0,-13,-8,-34,-27c0,0,-21,-20,-34,-44c0,0,-12,-25,-22,-66c0,0,-9,-41,-9,-92V0Z" 
id="f1_e"
transform="scale(0.001,-0.001)" />

<path d="M117,-176L179,62V190H336V62L213,-176Z" 
id="f1_o"
transform="scale(0.001,-0.001)" />

<path d="M139,-317V836H278V-317Z" 
id="f1_r"
transform="scale(0.001,-0.001)" />

<path d="M112,-5c0,0,-39,0,-97,11V113c0,0,48,-10,77,-10c0,0,53,0,70,42c0,0,17,43,17,164V729H50V836H501c0,0,107,0,179,-25c0,0,72,-25,112,-77c0,0,40,-51,57,-118c0,0,16,-67,16,-164V0H726V454c0,0,0,55,-3,92c0,0,-4,37,-17,75c0,0,-14,38,-38,59c0,0,-24,22,-65,36c0,0,-42,13,-102,13H318V309c0,0,0,-160,-46,-237C272,72,226,-5,112,-5Z" 
id="f1_a"
transform="scale(0.001,-0.001)" />

<path d="M736,107V473c0,0,0,147,-48,202c0,0,-49,54,-187,54H278V107ZM139,0V836H499c0,0,105,0,177,-22c0,0,72,-21,116,-69c0,0,44,-49,64,-119c0,0,19,-71,19,-174V0Z" 
id="f1_j"
transform="scale(0.001,-0.001)" />

<path d="M543,-317V369c0,0,0,85,-8,143c0,0,-8,58,-27,101c0,0,-18,44,-51,69c0,0,-33,24,-80,36c0,0,-48,11,-117,11H66V836H257c0,0,125,0,205,-23c0,0,80,-23,130,-79c0,0,50,-56,70,-143c0,0,20,-86,20,-222V-317Z" 
id="f1_s"
transform="scale(0.001,-0.001)" />

<path d="M163,0V190H321V0Z" 
id="f1_g"
transform="scale(0.001,-0.001)" />

<path d="M291,0V190H443V0Zm5,299V414c0,0,0,75,21,124c0,0,21,48,88,113l67,66c0,0,42,40,61,75c0,0,19,35,19,71c0,0,0,67,-48,108c0,0,-49,41,-130,41c0,0,-59,0,-125,-26c0,0,-67,-26,-139,-77v140c0,0,70,43,142,64c0,0,72,21,148,21c0,0,138,0,221,-72c0,0,83,-73,83,-191c0,0,0,-57,-27,-108c0,0,-27,-51,-94,-115L517,583c0,0,-34,-35,-49,-54c0,0,-14,-20,-20,-39c0,0,-5,-16,-7,-38c0,0,-2,-22,-2,-61V299Z" 
id="f1_18"
transform="scale(0.001,-0.001)" />

<path d="M379,-315c0,0,-316,0,-316,253c0,0,0,119,60,194c0,0,60,74,175,98l43,10l9,193h60L429,185L322,163c0,0,-64,-12,-93,-65c0,0,-29,-52,-29,-151c0,0,0,-110,40,-155c0,0,40,-44,139,-44c0,0,84,0,145,36l26,123h49V-283c0,0,-110,-32,-220,-32Zm-6,851c0,0,-38,0,-64,26c0,0,-26,26,-26,64c0,0,0,37,25,64c0,0,26,27,65,27c0,0,37,0,64,-27c0,0,26,-26,26,-64c0,0,0,-39,-27,-64c0,0,-26,-26,-63,-26Z" 
id="f0_1e"
transform="scale(0.001,-0.001)" />

<path d="M577,-14c0,0,-243,0,-379,132C198,118,63,250,63,488c0,0,0,258,130,391c0,0,131,132,387,132c0,0,156,0,335,-38l5,-218H871L848,884c0,0,-52,32,-121,50c0,0,-69,17,-141,17c0,0,-191,0,-279,-112c0,0,-88,-113,-88,-349c0,0,0,-217,92,-332c0,0,92,-115,268,-115c0,0,85,0,160,20c0,0,76,21,120,55l27,149h49L930,32c0,0,-164,-46,-353,-46Z" 
id="f0_1d"
transform="scale(0.001,-0.001)" />

<path d="M377,44c0,0,99,0,147,73c0,0,47,73,47,237c0,0,0,161,-47,234c0,0,-47,72,-147,72c0,0,-97,0,-141,-69c0,0,-44,-70,-44,-237c0,0,0,-169,45,-239c0,0,44,-71,140,-71Zm0,-58c0,0,-158,0,-238,94c0,0,-81,95,-81,274c0,0,0,178,81,272c0,0,80,94,244,94c0,0,160,0,241,-92c0,0,82,-92,82,-274c0,0,0,-368,-329,-368ZM301,835v24l147,203H606v-27L342,835Z" 
id="f0_1o"
transform="scale(0.001,-0.001)" />

<path d="M431,0V33L535,52V499c0,0,0,62,-32,96c0,0,-32,33,-95,33c0,0,-66,0,-163,-22V52L350,33V0H32V33l89,19V649L32,668v33H237l6,-57c0,0,56,32,119,54c0,0,62,22,110,22c0,0,52,0,95,-20c0,0,44,-19,66,-62c0,0,57,32,134,57c0,0,77,25,128,25c0,0,179,0,179,-207V52l90,-19V0H846V33L950,52V499c0,0,0,129,-119,129c0,0,-19,0,-45,-3c0,0,-26,-3,-52,-7c0,0,-25,-4,-49,-8c0,0,-23,-5,-39,-8c0,0,13,-41,13,-89V52L764,33V0Z" 
id="f0_a"
transform="scale(0.001,-0.001)" />

<path d="M306,-20c0,0,-39,0,-65,25c0,0,-25,27,-25,64c0,0,0,38,26,64c0,0,26,26,64,26c0,0,37,0,63,-25c0,0,26,-26,26,-65c0,0,0,-37,-25,-64c0,0,-26,-25,-64,-25ZM269,261L249,510l107,22c0,0,64,13,93,65c0,0,29,52,29,152c0,0,0,109,-39,154c0,0,-40,45,-140,45c0,0,-83,0,-145,-36L128,789H79V979c0,0,118,32,220,32c0,0,316,0,316,-253c0,0,0,-121,-60,-195c0,0,-60,-74,-175,-98l-42,-9L328,261Z" 
id="f0_1f"
transform="scale(0.001,-0.001)" />

<path d="M44,0V40L172,60V941L44,960v40H794V760H745L721,922c0,0,-83,11,-241,11H316V543H586l23,119h48V354H609L586,475H316V67H513c0,0,193,0,252,12l43,185h49L843,0Z" 
id="f0_4"
transform="scale(0.001,-0.001)" />

<path d="M376,50c0,0,103,0,149,80c0,0,46,81,46,240c0,0,0,137,-47,204c0,0,-48,67,-148,67c0,0,-44,0,-87,-7c0,0,-44,-8,-63,-17V62c0,0,63,-12,150,-12Zm3,-64c0,0,-64,0,-141,14c0,0,-78,14,-136,37v971L0,1026v34H226V809c0,0,0,-40,-4,-148c0,0,74,59,188,59c0,0,143,0,219,-87c0,0,77,-87,77,-263c0,0,0,-189,-84,-287c0,0,-84,-97,-243,-97Z" 
id="f0_10"
transform="scale(0.001,-0.001)" />

<path d="M495,413c0,0,0,133,-34,190c0,0,-34,57,-105,57c0,0,-78,0,-119,-62c0,0,-42,-63,-42,-185ZM374,-14c0,0,-163,0,-239,87c0,0,-75,88,-75,283c0,0,0,183,77,274c0,0,76,90,219,90c0,0,269,0,269,-306V353H194V339c0,0,0,-103,23,-160c0,0,22,-57,70,-86c0,0,47,-30,124,-30c0,0,40,0,96,6c0,0,55,7,91,15V43C598,43,562,19,500,2c0,0,-61,-16,-126,-16ZM285,835v24l146,203H590v-27L326,835Z" 
id="f0_h"
transform="scale(0.001,-0.001)" />

<path d="M191,-20c0,0,-39,0,-65,25c0,0,-25,27,-25,64c0,0,0,38,26,64c0,0,26,26,64,26c0,0,38,0,64,-26c0,0,26,-26,26,-64c0,0,0,-37,-25,-64c0,0,-26,-25,-65,-25Z" 
id="f0_o"
transform="scale(0.001,-0.001)" />

<path d="M44,0V40L172,60V941L44,960v40H471V960L316,941V65H513c0,0,159,0,234,14l46,208h48L828,0Z" 
id="f0_1l"
transform="scale(0.001,-0.001)" />

<path d="M111,0V127c0,0,86,89,234,238c0,0,148,150,186,193c0,0,73,81,101,138c0,0,29,56,29,110c0,0,0,89,-62,145c0,0,-62,56,-162,56c0,0,-71,0,-150,-25c0,0,-78,-24,-168,-75v153c0,0,91,37,170,55c0,0,79,19,145,19c0,0,173,0,276,-86c0,0,103,-87,103,-232c0,0,0,-68,-26,-130c0,0,-26,-61,-94,-145c0,0,-18,-22,-118,-125C575,416,475,313,293,127H818V0Z" 
id="f1_10"
transform="scale(0.001,-0.001)" />

<path d="M578,388V982L197,388ZM578,0V263H74V408l464,706H727V388H887V263H727V0Z" 
id="f1_13"
transform="scale(0.001,-0.001)" />


</defs>
</svg>