<?xml version="1.0" encoding="UTF-8" standalone="no"?>
<!DOCTYPE svg PUBLIC "-//W3C//DTD SVG 1.1//EN"
"http://www.w3.org/Graphics/SVG/1.1/DTD/svg11.dtd">
<svg viewBox="0 0 909 1286" version="1.1" xmlns="http://www.w3.org/2000/svg" xmlns:xlink="http://www.w3.org/1999/xlink">
<defs>
<clipPath id="c0_16"><path d="M0,1286.2V0H909.4V1286.2Z" /></clipPath>
<clipPath id="c1_16"><path d="M642.4,541V519.7h.3V541Z" /></clipPath>
<clipPath id="c2_16"><path d="M642.4,806.4V785h.3v21.4Z" /></clipPath>
<clipPath id="c3_16"><path d="M642.4,1013.3V992h.3v21.3Z" /></clipPath>
<style type="text/css"><![CDATA[
.g0_16{
fill: none;
stroke: #000000;
stroke-width: 0.7638889;
stroke-linecap: butt;
stroke-linejoin: round;
}
.g1_16{
fill: none;
stroke: #0000FF;
stroke-width: 1.0694444;
stroke-linecap: butt;
stroke-linejoin: miter;
}
]]></style>
</defs>
<path d="M128.6,110.4H490.5M128.6,130.5H490.5M128.6,150.6H490.5M128.6,170.7H490.5m-361.9,20H490.5M128.6,239.8H490.5M128.6,260H490.5M128.6,280H490.5M128.6,300.1H490.5m-361.9,20H490.5M128.6,340.3H490.5m-361.9,20H490.5M128.6,380.5H490.5m-361.9,20H490.5M128.6,420.7H490.5m-361.9,20H490.5M128.6,460.9H490.5m-361.9,20H490.5M128.6,501H490.5M128.9,110V501.4M248,110V501.4M378,110V501.4M490.1,110V501.4" class="g0_16" />
<g clip-path="url(#c0_16)">
<g fill="#000000" >
<use xlink:href="#f0_l" transform="matrix(11,0,0,11,386.7,126.5)" />
<use xlink:href="#f0_q" transform="matrix(11,0,0,11,394.1,126.5)" />
<use xlink:href="#f0_8" transform="matrix(11,0,0,11,400.7,126.5)" />
<use xlink:href="#f0_y" transform="matrix(11,0,0,11,408.2,126.5)" />
<use xlink:href="#f0_l" transform="matrix(11,0,0,11,416.6,126.5)" />
<use xlink:href="#f0_j" transform="matrix(11,0,0,11,423.9,126.5)" />
<use xlink:href="#f0_b" transform="matrix(11,0,0,11,428.6,126.5)" />
<use xlink:href="#f0_6" transform="matrix(11,0,0,11,386.7,146.5)" />
<use xlink:href="#f0_l" transform="matrix(11,0,0,11,395.1,146.5)" />
<use xlink:href="#f0_8" transform="matrix(11,0,0,11,402.5,146.5)" />
<use xlink:href="#f0_l" transform="matrix(11,0,0,11,410,146.5)" />
<use xlink:href="#f0_q" transform="matrix(11,0,0,11,417.5,146.5)" />
<use xlink:href="#f0_j" transform="matrix(11,0,0,11,386.7,166.7)" />
<use xlink:href="#f0_y" transform="matrix(11,0,0,11,391.4,166.7)" />
<use xlink:href="#f0_1r" transform="matrix(11,0,0,11,399.8,166.7)" />
<use xlink:href="#f0_15" transform="matrix(11,0,0,11,386.7,186.7)" />
<use xlink:href="#f0_b" transform="matrix(11,0,0,11,395.1,186.7)" />
<use xlink:href="#f0_15" transform="matrix(11,0,0,11,402.5,186.7)" />
<use xlink:href="#f0_l" transform="matrix(11,0,0,11,410.9,186.7)" />
<use xlink:href="#f0_j" transform="matrix(11,0,0,11,418.4,186.7)" />
<use xlink:href="#f0_15" transform="matrix(11,0,0,11,386.7,206.9)" />
<use xlink:href="#f0_b" transform="matrix(11,0,0,11,395.1,206.9)" />
<use xlink:href="#f0_15" transform="matrix(11,0,0,11,402.5,206.9)" />
<use xlink:href="#f0_l" transform="matrix(11,0,0,11,410.9,206.9)" />
<use xlink:href="#f0_j" transform="matrix(11,0,0,11,418.4,206.9)" />
<use xlink:href="#f0_14" transform="matrix(11,0,0,11,386.7,235.7)" />
<use xlink:href="#f0_7" transform="matrix(11,0,0,11,395.1,235.7)" />
<use xlink:href="#f0_1k" transform="matrix(11,0,0,11,399.8,235.7)" />
<use xlink:href="#f0_7" transform="matrix(11,0,0,11,408.1,235.7)" />
<use xlink:href="#f0_h" transform="matrix(11,0,0,11,412.8,235.7)" />
<use xlink:href="#f0_p" transform="matrix(11,0,0,11,420.2,235.7)" />
<use xlink:href="#f0_7" transform="matrix(11,0,0,11,428.6,235.7)" />
<use xlink:href="#f0_8" transform="matrix(11,0,0,11,433.4,235.7)" />
<use xlink:href="#f0_9" transform="matrix(11,0,0,11,440.8,235.7)" />
<use xlink:href="#f0_15" transform="matrix(11,0,0,11,386.7,255.9)" />
<use xlink:href="#f0_u" transform="matrix(11,0,0,11,395.1,255.9)" />
<use xlink:href="#f0_19" transform="matrix(11,0,0,11,402.5,255.9)" />
<use xlink:href="#f0_b" transform="matrix(11,0,0,11,407.3,255.9)" />
<use xlink:href="#f0_r" transform="matrix(11,0,0,11,414.6,255.9)" />
<use xlink:href="#f0_9" transform="matrix(11,0,0,11,420.2,255.9)" />
<use xlink:href="#f0_u" transform="matrix(11,0,0,11,386.7,275.9)" />
<use xlink:href="#f0_r" transform="matrix(11,0,0,11,394.1,275.9)" />
<use xlink:href="#f0_10" transform="matrix(11,0,0,11,399.8,275.9)" />
<use xlink:href="#f0_9" transform="matrix(11,0,0,11,408.2,275.9)" />
<use xlink:href="#f0_j" transform="matrix(11,0,0,11,416.4,275.9)" />
<use xlink:href="#f0_13" transform="matrix(11,0,0,11,386.7,296.1)" />
<use xlink:href="#f0_j" transform="matrix(11,0,0,11,392.3,296.1)" />
<use xlink:href="#f0_9" transform="matrix(11,0,0,11,397,296.1)" />
<use xlink:href="#f0_r" transform="matrix(11,0,0,11,405.3,296.1)" />
<use xlink:href="#f0_8" transform="matrix(11,0,0,11,386.7,316.1)" />
<use xlink:href="#f0_9" transform="matrix(11,0,0,11,394.1,316.1)" />
<use xlink:href="#f0_8" transform="matrix(11,0,0,11,402.5,316.1)" />
<use xlink:href="#f0_7" transform="matrix(11,0,0,11,410,316.1)" />
<use xlink:href="#f0_p" transform="matrix(11,0,0,11,414.7,316.1)" />
<use xlink:href="#f0_b" transform="matrix(11,0,0,11,423,316.1)" />
<use xlink:href="#f0_14" transform="matrix(11,0,0,11,386.7,336.3)" />
<use xlink:href="#f0_l" transform="matrix(11,0,0,11,395.1,336.3)" />
<use xlink:href="#f0_j" transform="matrix(11,0,0,11,402.5,336.3)" />
<use xlink:href="#f0_b" transform="matrix(11,0,0,11,407.3,336.3)" />
<use xlink:href="#f0_n" transform="matrix(11,0,0,11,414.7,336.3)" />
<use xlink:href="#f0_l" transform="matrix(11,0,0,11,423,336.3)" />
<use xlink:href="#f0_r" transform="matrix(11,0,0,11,430.4,336.3)" />
<use xlink:href="#f0_s" transform="matrix(11,0,0,11,436.1,336.3)" />
<use xlink:href="#f0_b" transform="matrix(11,0,0,11,440.7,336.3)" />
<use xlink:href="#f0_n" transform="matrix(11,0,0,11,386.7,356.3)" />
<use xlink:href="#f0_7" transform="matrix(11,0,0,11,395.1,356.3)" />
<use xlink:href="#f0_l" transform="matrix(11,0,0,11,399.8,356.3)" />
<use xlink:href="#f0_p" transform="matrix(11,0,0,11,407.3,356.3)" />
<use xlink:href="#f0_d" transform="matrix(11,0,0,11,415.5,356.3)" />
<use xlink:href="#f0_l" transform="matrix(11,0,0,11,420.2,356.3)" />
<use xlink:href="#f0_q" transform="matrix(11,0,0,11,427.7,356.3)" />
<use xlink:href="#f0_a" transform="matrix(11,0,0,11,386.7,376.4)" />
<use xlink:href="#f0_b" transform="matrix(11,0,0,11,399.8,376.4)" />
<use xlink:href="#f0_r" transform="matrix(11,0,0,11,407.1,376.4)" />
<use xlink:href="#f0_7" transform="matrix(11,0,0,11,412.8,376.4)" />
<use xlink:href="#f0_p" transform="matrix(11,0,0,11,417.5,376.4)" />
<use xlink:href="#f0_l" transform="matrix(11,0,0,11,425.9,376.4)" />
<use xlink:href="#f0_r" transform="matrix(11,0,0,11,433.2,376.4)" />
<use xlink:href="#f0_9" transform="matrix(11,0,0,11,438.8,376.4)" />
<use xlink:href="#f0_q" transform="matrix(11,0,0,11,447.2,376.4)" />
<use xlink:href="#f0_8" transform="matrix(11,0,0,11,386.7,396.5)" />
<use xlink:href="#f0_b" transform="matrix(11,0,0,11,394.1,396.5)" />
<use xlink:href="#f0_r" transform="matrix(11,0,0,11,401.6,396.5)" />
<use xlink:href="#f0_p" transform="matrix(11,0,0,11,407.2,396.5)" />
<use xlink:href="#f0_l" transform="matrix(11,0,0,11,415.5,396.5)" />
<use xlink:href="#f0_r" transform="matrix(11,0,0,11,386.7,416.6)" />
<use xlink:href="#f0_7" transform="matrix(11,0,0,11,392.3,416.6)" />
<use xlink:href="#f0_p" transform="matrix(11,0,0,11,397,416.6)" />
<use xlink:href="#f0_8" transform="matrix(11,0,0,11,405.3,416.6)" />
<use xlink:href="#f0_1o" transform="matrix(11,0,0,11,412.7,416.6)" />
<use xlink:href="#f0_p" transform="matrix(11,0,0,11,421.1,416.6)" />
<use xlink:href="#f0_8" transform="matrix(11,0,0,11,386.7,436.6)" />
<use xlink:href="#f0_14" transform="matrix(11,0,0,11,394.1,436.6)" />
<use xlink:href="#f0_b" transform="matrix(11,0,0,11,402.5,436.6)" />
<use xlink:href="#f0_p" transform="matrix(11,0,0,11,410,436.6)" />
<use xlink:href="#f0_8" transform="matrix(11,0,0,11,418.4,436.6)" />
<use xlink:href="#f0_l" transform="matrix(11,0,0,11,425.9,436.6)" />
<use xlink:href="#f0_q" transform="matrix(11,0,0,11,433.2,436.6)" />
<use xlink:href="#f0_q" transform="matrix(11,0,0,11,386.7,456.8)" />
<use xlink:href="#f0_y" transform="matrix(11,0,0,11,393.2,456.8)" />
<use xlink:href="#f0_l" transform="matrix(11,0,0,11,401.6,456.8)" />
<use xlink:href="#f0_16" transform="matrix(11,0,0,11,409.1,456.8)" />
<use xlink:href="#f0_9" transform="matrix(11,0,0,11,417.5,456.8)" />
<use xlink:href="#f0_7" transform="matrix(11,0,0,11,386.7,476.8)" />
<use xlink:href="#f0_a" transform="matrix(11,0,0,11,391.4,476.8)" />
<use xlink:href="#f0_15" transform="matrix(11,0,0,11,404.4,476.8)" />
<use xlink:href="#f0_r" transform="matrix(11,0,0,11,412.8,476.8)" />
<use xlink:href="#f0_l" transform="matrix(11,0,0,11,418.4,476.8)" />
<use xlink:href="#f0_q" transform="matrix(11,0,0,11,425.9,476.8)" />
<use xlink:href="#f0_7" transform="matrix(11,0,0,11,432.3,476.8)" />
<use xlink:href="#f0_1o" transform="matrix(11,0,0,11,437,476.8)" />
<use xlink:href="#f0_p" transform="matrix(11,0,0,11,445.4,476.8)" />
<use xlink:href="#f0_r" transform="matrix(11,0,0,11,386.7,497)" />
<use xlink:href="#f0_b" transform="matrix(11,0,0,11,392.3,497)" />
<use xlink:href="#f0_1r" transform="matrix(11,0,0,11,399.8,497)" />
<use xlink:href="#f0_1o" transform="matrix(11,0,0,11,407.2,497)" />
<use xlink:href="#f0_p" transform="matrix(11,0,0,11,415.6,497)" />
</g>
<g fill="#0000FF" >
<use xlink:href="#f1_7" transform="matrix(12,0,0,12,649.3,536.7)" />
<use xlink:href="#f1_3" transform="matrix(12,0,0,12,660,536.7)" />
<use xlink:href="#f1_u" transform="matrix(12,0,0,12,664.5,536.7)" />
<use xlink:href="#f1_5" transform="matrix(12,0,0,12,672.3,536.7)" />
<use xlink:href="#f1_a" transform="matrix(12,0,0,12,683.1,536.7)" />
<use xlink:href="#f1_7" transform="matrix(12,0,0,12,695.5,536.7)" />
<use xlink:href="#f1_a" transform="matrix(12,0,0,12,712.4,536.7)" />
<use xlink:href="#f1_9" transform="matrix(12,0,0,12,724.9,536.7)" />
<use xlink:href="#f1_2" transform="matrix(12,0,0,12,730.3,536.7)" />
<use xlink:href="#f1_9" transform="matrix(12,0,0,12,741.2,536.7)" />
<use xlink:href="#f1_n" transform="matrix(12,0,0,12,746.6,536.7)" />
<use xlink:href="#f1_a" transform="matrix(12,0,0,12,759.8,536.7)" />
</g>
</g>
<path d="M642.9,538.5H772.1" class="g1_16" />
<g clip-path="url(#c1_16)">
<path d="M642.4,538.5h5.8" class="g1_16" />
</g>
<g clip-path="url(#c0_16)">
<g fill="#0000FF" >
<use xlink:href="#f1_z" transform="matrix(12,0,0,12,618.8,536.7)" />
<use xlink:href="#f1_1a" transform="matrix(12,0,0,12,630.6,536.7)" />
</g>
</g>
<path d="M618.8,538.5h23.6m-29.3,0h5.8" class="g1_16" />
<g clip-path="url(#c0_16)">
<g fill="#000000" >
<use xlink:href="#f2_b" transform="matrix(12,0,0,12,723.8,577.5)" />
<use xlink:href="#f2_h" transform="matrix(12,0,0,12,735,577.5)" />
<use xlink:href="#f2_f" transform="matrix(12,0,0,12,740.3,577.5)" />
<use xlink:href="#f2_4" transform="matrix(12,0,0,12,748.6,577.5)" />
<use xlink:href="#f2_7" transform="matrix(12,0,0,12,759.6,577.5)" />
<use xlink:href="#f2_m" transform="matrix(12,0,0,12,691.8,577.5)" />
<use xlink:href="#f2_v" transform="matrix(12,0,0,12,704.5,577.5)" />
<use xlink:href="#f1_6" transform="matrix(12,0,0,12,469.2,577.5)" />
<use xlink:href="#f1_2" transform="matrix(12,0,0,12,481.1,577.5)" />
<use xlink:href="#f1_c" transform="matrix(12,0,0,12,491.6,577.5)" />
<use xlink:href="#f1_l" transform="matrix(12,0,0,12,504.6,577.5)" />
<use xlink:href="#f1_12" transform="matrix(12,0,0,12,512,577.5)" />
<use xlink:href="#f1_5" transform="matrix(12,0,0,12,518.1,577.5)" />
<use xlink:href="#f1_4" transform="matrix(12,0,0,12,528.4,577.5)" />
<use xlink:href="#f1_b" transform="matrix(12,0,0,12,538.1,577.5)" />
<use xlink:href="#f1_9" transform="matrix(12,0,0,12,544.5,577.5)" />
<use xlink:href="#f1_j" transform="matrix(12,0,0,12,555.3,577.5)" />
<use xlink:href="#f1_3" transform="matrix(12,0,0,12,567.5,577.5)" />
<use xlink:href="#f1_2" transform="matrix(12,0,0,12,571.6,577.5)" />
<use xlink:href="#f1_5" transform="matrix(12,0,0,12,582.2,577.5)" />
<use xlink:href="#f1_12" transform="matrix(12,0,0,12,592.5,577.5)" />
<use xlink:href="#f1_h" transform="matrix(12,0,0,12,598.6,577.5)" />
<use xlink:href="#f1_3" transform="matrix(12,0,0,12,608.7,577.5)" />
<use xlink:href="#f1_f" transform="matrix(12,0,0,12,612.8,577.5)" />
<use xlink:href="#f1_3" transform="matrix(12,0,0,12,624.7,577.5)" />
<use xlink:href="#f1_s" transform="matrix(12,0,0,12,634.6,577.5)" />
<use xlink:href="#f1_9" transform="matrix(12,0,0,12,644.4,577.5)" />
<use xlink:href="#f1_d" transform="matrix(12,0,0,12,649.4,577.5)" />
<use xlink:href="#f1_6" transform="matrix(12,0,0,12,660.9,577.5)" />
<use xlink:href="#f1_16" transform="matrix(12,0,0,12,678.7,577.5)" />
<use xlink:href="#f1_v" transform="matrix(12,0,0,12,552.9,598.9)" />
<use xlink:href="#f1_h" transform="matrix(12,0,0,12,559,598.9)" />
<use xlink:href="#f1_3" transform="matrix(12,0,0,12,568.9,598.9)" />
<use xlink:href="#f1_f" transform="matrix(12,0,0,12,573.1,598.9)" />
<use xlink:href="#f1_3" transform="matrix(12,0,0,12,585,598.9)" />
<use xlink:href="#f1_o" transform="matrix(12,0,0,12,595,598.9)" />
<use xlink:href="#f1_5" transform="matrix(12,0,0,12,600.8,598.9)" />
<use xlink:href="#f1_4" transform="matrix(12,0,0,12,611.2,598.9)" />
<use xlink:href="#f1_b" transform="matrix(12,0,0,12,620.8,598.9)" />
<use xlink:href="#f1_6" transform="matrix(12,0,0,12,627.2,598.9)" />
<use xlink:href="#f1_a" transform="matrix(12,0,0,12,645,598.9)" />
<use xlink:href="#f1_5" transform="matrix(12,0,0,12,657,598.9)" />
<use xlink:href="#f1_9" transform="matrix(12,0,0,12,667.2,598.9)" />
<use xlink:href="#f1_q" transform="matrix(12,0,0,12,672.3,598.9)" />
<use xlink:href="#f1_a" transform="matrix(12,0,0,12,689,598.9)" />
<use xlink:href="#f1_e" transform="matrix(12,0,0,12,701.1,598.9)" />
<use xlink:href="#f1_j" transform="matrix(12,0,0,12,719.1,598.9)" />
<use xlink:href="#f1_u" transform="matrix(12,0,0,12,731.3,598.9)" />
<use xlink:href="#f1_5" transform="matrix(12,0,0,12,738.8,598.9)" />
<use xlink:href="#f1_a" transform="matrix(12,0,0,12,749.2,598.9)" />
<use xlink:href="#f1_9" transform="matrix(12,0,0,12,761.1,598.9)" />
</g>
</g>
<path d="M128.6,603.5H490.5M128.6,625.7H490.5M128.6,645.9H490.5m-361.9,20H490.5M128.6,686H490.5M128.6,706.1H490.5M128.6,726.2H490.5m-361.9,20H490.5M128.6,766.4H490.5M128.9,603.2V766.8M248,603.2V766.8M378,603.2V766.8M490.1,603.2V766.8" class="g0_16" />
<g clip-path="url(#c0_16)">
<g fill="#000000" >
<use xlink:href="#f3_5" transform="matrix(11,0,0,11,452.1,619.7)" />
<use xlink:href="#f3_c" transform="matrix(11,0,0,11,458.6,619.7)" />
<use xlink:href="#f3_4" transform="matrix(11,0,0,11,467,619.7)" />
<use xlink:href="#f3_6" transform="matrix(11,0,0,11,471.7,619.7)" />
<use xlink:href="#f3_5" transform="matrix(11,0,0,11,333.4,619.7)" />
<use xlink:href="#f3_c" transform="matrix(11,0,0,11,339.9,619.7)" />
<use xlink:href="#f3_4" transform="matrix(11,0,0,11,348.3,619.7)" />
<use xlink:href="#f3_c" transform="matrix(11,0,0,11,353,619.7)" />
<use xlink:href="#f3_7" transform="matrix(11,0,0,11,361.4,619.7)" />
<use xlink:href="#f4_g" transform="matrix(12,0,0,12,200.9,621)" />
<use xlink:href="#f4_9" transform="matrix(12,0,0,12,211.3,621)" />
<use xlink:href="#f4_i" transform="matrix(12,0,0,12,216.3,621)" />
<use xlink:href="#f4_j" transform="matrix(12,0,0,12,226.8,621)" />
<use xlink:href="#f0_q" transform="matrix(11,0,0,11,416.5,641.8)" />
<use xlink:href="#f0_l" transform="matrix(11,0,0,11,422.9,641.8)" />
<use xlink:href="#f0_8" transform="matrix(11,0,0,11,430.4,641.8)" />
<use xlink:href="#f0_r" transform="matrix(11,0,0,11,437.8,641.8)" />
<use xlink:href="#f0_l" transform="matrix(11,0,0,11,443.4,641.8)" />
<use xlink:href="#f0_d" transform="matrix(11,0,0,11,450.8,641.8)" />
<use xlink:href="#f0_b" transform="matrix(11,0,0,11,455.5,641.8)" />
<use xlink:href="#f0_r" transform="matrix(11,0,0,11,463,641.8)" />
<use xlink:href="#f0_7" transform="matrix(11,0,0,11,468.5,641.8)" />
<use xlink:href="#f0_9" transform="matrix(11,0,0,11,473.2,641.8)" />
<use xlink:href="#f0_a" transform="matrix(11,0,0,11,417.4,661.8)" />
<use xlink:href="#f0_l" transform="matrix(11,0,0,11,430.4,661.8)" />
<use xlink:href="#f0_8" transform="matrix(11,0,0,11,437.8,661.8)" />
<use xlink:href="#f0_u" transform="matrix(11,0,0,11,445.3,661.8)" />
<use xlink:href="#f0_p" transform="matrix(11,0,0,11,452.8,661.8)" />
<use xlink:href="#f0_7" transform="matrix(11,0,0,11,461,661.8)" />
<use xlink:href="#f0_8" transform="matrix(11,0,0,11,465.7,661.8)" />
<use xlink:href="#f0_9" transform="matrix(11,0,0,11,473.2,661.8)" />
<use xlink:href="#f0_8" transform="matrix(11,0,0,11,423.8,682)" />
<use xlink:href="#f0_9" transform="matrix(11,0,0,11,431.3,682)" />
<use xlink:href="#f0_8" transform="matrix(11,0,0,11,439.7,682)" />
<use xlink:href="#f0_7" transform="matrix(11,0,0,11,447.1,682)" />
<use xlink:href="#f0_p" transform="matrix(11,0,0,11,451.9,682)" />
<use xlink:href="#f0_l" transform="matrix(11,0,0,11,460.1,682)" />
<use xlink:href="#f0_r" transform="matrix(11,0,0,11,467.6,682)" />
<use xlink:href="#f0_9" transform="matrix(11,0,0,11,473.2,682)" />
<use xlink:href="#f0_6" transform="matrix(11,0,0,11,404.3,702)" />
<use xlink:href="#f0_l" transform="matrix(11,0,0,11,412.7,702)" />
<use xlink:href="#f0_1k" transform="matrix(11,0,0,11,420.1,702)" />
<use xlink:href="#f0_l" transform="matrix(11,0,0,11,428.5,702)" />
<use xlink:href="#f0_d" transform="matrix(11,0,0,11,436,702)" />
<use xlink:href="#f0_b" transform="matrix(11,0,0,11,440.6,702)" />
<use xlink:href="#f0_r" transform="matrix(11,0,0,11,448,702)" />
<use xlink:href="#f0_7" transform="matrix(11,0,0,11,453.7,702)" />
<use xlink:href="#f0_b" transform="matrix(11,0,0,11,458.2,702)" />
<use xlink:href="#f0_p" transform="matrix(11,0,0,11,465.7,702)" />
<use xlink:href="#f0_b" transform="matrix(11,0,0,11,474.1,702)" />
<use xlink:href="#f0_d" transform="matrix(11,0,0,11,448.1,722.2)" />
<use xlink:href="#f0_r" transform="matrix(11,0,0,11,452.8,722.2)" />
<use xlink:href="#f0_7" transform="matrix(11,0,0,11,458.3,722.2)" />
<use xlink:href="#f0_q" transform="matrix(11,0,0,11,463,722.2)" />
<use xlink:href="#f0_d" transform="matrix(11,0,0,11,469.6,722.2)" />
<use xlink:href="#f0_l" transform="matrix(11,0,0,11,474.2,722.2)" />
<use xlink:href="#f0_j" transform="matrix(11,0,0,11,451,742.2)" />
<use xlink:href="#f0_s" transform="matrix(11,0,0,11,455.6,742.2)" />
<use xlink:href="#f0_n" transform="matrix(11,0,0,11,460.3,742.2)" />
<use xlink:href="#f0_l" transform="matrix(11,0,0,11,468.7,742.2)" />
<use xlink:href="#f0_r" transform="matrix(11,0,0,11,476,742.2)" />
<use xlink:href="#f0_p" transform="matrix(11,0,0,11,434.2,762.4)" />
<use xlink:href="#f0_y" transform="matrix(11,0,0,11,442.6,762.4)" />
<use xlink:href="#f0_l" transform="matrix(11,0,0,11,451,762.4)" />
<use xlink:href="#f0_6" transform="matrix(11,0,0,11,458.5,762.4)" />
<use xlink:href="#f0_9" transform="matrix(11,0,0,11,466.9,762.4)" />
<use xlink:href="#f0_q" transform="matrix(11,0,0,11,475.1,762.4)" />
</g>
<g fill="#0000FF" >
<use xlink:href="#f1_7" transform="matrix(12,0,0,12,649.3,802.1)" />
<use xlink:href="#f1_3" transform="matrix(12,0,0,12,660,802.1)" />
<use xlink:href="#f1_u" transform="matrix(12,0,0,12,664.5,802.1)" />
<use xlink:href="#f1_5" transform="matrix(12,0,0,12,672.3,802.1)" />
<use xlink:href="#f1_a" transform="matrix(12,0,0,12,683.1,802.1)" />
<use xlink:href="#f1_7" transform="matrix(12,0,0,12,695.5,802.1)" />
<use xlink:href="#f1_a" transform="matrix(12,0,0,12,712.4,802.1)" />
<use xlink:href="#f1_9" transform="matrix(12,0,0,12,724.9,802.1)" />
<use xlink:href="#f1_2" transform="matrix(12,0,0,12,730.3,802.1)" />
<use xlink:href="#f1_9" transform="matrix(12,0,0,12,741.2,802.1)" />
<use xlink:href="#f1_n" transform="matrix(12,0,0,12,746.6,802.1)" />
<use xlink:href="#f1_a" transform="matrix(12,0,0,12,759.8,802.1)" />
</g>
</g>
<path d="M642.9,803.9H772.1" class="g1_16" />
<g clip-path="url(#c2_16)">
<path d="M642.4,803.9h5.8" class="g1_16" />
</g>
<g clip-path="url(#c0_16)">
<g fill="#0000FF" >
<use xlink:href="#f1_z" transform="matrix(12,0,0,12,618.8,802.1)" />
<use xlink:href="#f1_1d" transform="matrix(12,0,0,12,630.6,802.1)" />
</g>
</g>
<path d="M618.8,803.9h23.6" class="g1_16" />
<g clip-path="url(#c0_16)">
<g fill="#000000" >
<use xlink:href="#f2_b" transform="matrix(12,0,0,12,723.8,862.1)" />
<use xlink:href="#f2_h" transform="matrix(12,0,0,12,735,862.1)" />
<use xlink:href="#f2_f" transform="matrix(12,0,0,12,740.3,862.1)" />
<use xlink:href="#f2_4" transform="matrix(12,0,0,12,748.6,862.1)" />
<use xlink:href="#f2_7" transform="matrix(12,0,0,12,759.6,862.1)" />
<use xlink:href="#f2_m" transform="matrix(12,0,0,12,691.3,862.1)" />
<use xlink:href="#f2_z" transform="matrix(12,0,0,12,704,862.1)" />
<use xlink:href="#f1_j" transform="matrix(12,0,0,12,137.8,862.1)" />
<use xlink:href="#f1_3" transform="matrix(12,0,0,12,150,862.1)" />
<use xlink:href="#f1_p" transform="matrix(12,0,0,12,154.1,862.1)" />
<use xlink:href="#f1_d" transform="matrix(12,0,0,12,166,862.1)" />
<use xlink:href="#f1_n" transform="matrix(12,0,0,12,177.5,862.1)" />
<use xlink:href="#f1_m" transform="matrix(12,0,0,12,190.4,862.1)" />
<use xlink:href="#f1_6" transform="matrix(12,0,0,12,202.8,862.1)" />
<use xlink:href="#f1_a" transform="matrix(12,0,0,12,221.1,862.1)" />
<use xlink:href="#f1_e" transform="matrix(12,0,0,12,233.2,862.1)" />
<use xlink:href="#f1_r" transform="matrix(12,0,0,12,251.6,862.1)" />
<use xlink:href="#f1_9" transform="matrix(12,0,0,12,256.6,862.1)" />
<use xlink:href="#f1_4" transform="matrix(12,0,0,12,261.6,862.1)" />
<use xlink:href="#f1_l" transform="matrix(12,0,0,12,271.3,862.1)" />
<use xlink:href="#f1_a" transform="matrix(12,0,0,12,284.8,862.1)" />
<use xlink:href="#f1_9" transform="matrix(12,0,0,12,296.9,862.1)" />
<use xlink:href="#f1_u" transform="matrix(12,0,0,12,301.9,862.1)" />
<use xlink:href="#f1_6" transform="matrix(12,0,0,12,309.4,862.1)" />
<use xlink:href="#f1_7" transform="matrix(12,0,0,12,321.3,862.1)" />
<use xlink:href="#f1_6" transform="matrix(12,0,0,12,338,862.1)" />
<use xlink:href="#f1_i" transform="matrix(12,0,0,12,350,862.1)" />
<use xlink:href="#f1_l" transform="matrix(12,0,0,12,361.9,862.1)" />
<use xlink:href="#f1_g" transform="matrix(12,0,0,12,375.4,862.1)" />
<use xlink:href="#f1_a" transform="matrix(12,0,0,12,381.2,862.1)" />
<use xlink:href="#f1_3" transform="matrix(12,0,0,12,393.3,862.1)" />
<use xlink:href="#f1_h" transform="matrix(12,0,0,12,397.4,862.1)" />
<use xlink:href="#f1_5" transform="matrix(12,0,0,12,407.3,862.1)" />
<use xlink:href="#f1_d" transform="matrix(12,0,0,12,417.7,862.1)" />
<use xlink:href="#f1_i" transform="matrix(12,0,0,12,429.1,862.1)" />
<use xlink:href="#f1_7" transform="matrix(12,0,0,12,441,862.1)" />
<use xlink:href="#f1_j" transform="matrix(12,0,0,12,457.8,862.1)" />
<use xlink:href="#f1_3" transform="matrix(12,0,0,12,470,862.1)" />
<use xlink:href="#f1_e" transform="matrix(12,0,0,12,474.1,862.1)" />
<use xlink:href="#f1_2" transform="matrix(12,0,0,12,486.3,862.1)" />
<use xlink:href="#f1_6" transform="matrix(12,0,0,12,496.9,862.1)" />
<use xlink:href="#f1_j" transform="matrix(12,0,0,12,515,862.1)" />
<use xlink:href="#f1_3" transform="matrix(12,0,0,12,527.2,862.1)" />
<use xlink:href="#f1_p" transform="matrix(12,0,0,12,531.2,862.1)" />
<use xlink:href="#f1_d" transform="matrix(12,0,0,12,543.1,862.1)" />
<use xlink:href="#f1_n" transform="matrix(12,0,0,12,554.5,862.1)" />
<use xlink:href="#f1_m" transform="matrix(12,0,0,12,567.5,862.1)" />
<use xlink:href="#f1_6" transform="matrix(12,0,0,12,580,862.1)" />
<use xlink:href="#f1_a" transform="matrix(12,0,0,12,598.2,862.1)" />
<use xlink:href="#f1_e" transform="matrix(12,0,0,12,610.2,862.1)" />
<use xlink:href="#f1_j" transform="matrix(12,0,0,12,628.8,862.1)" />
<use xlink:href="#f1_u" transform="matrix(12,0,0,12,641,862.1)" />
<use xlink:href="#f1_5" transform="matrix(12,0,0,12,648.5,862.1)" />
<use xlink:href="#f1_a" transform="matrix(12,0,0,12,658.7,862.1)" />
<use xlink:href="#f1_16" transform="matrix(12,0,0,12,677.2,862.1)" />
<use xlink:href="#f1_g" transform="matrix(12,0,0,12,441.2,883.5)" />
<use xlink:href="#f1_j" transform="matrix(12,0,0,12,447,883.5)" />
<use xlink:href="#f1_k" transform="matrix(12,0,0,12,459.2,883.5)" />
<use xlink:href="#f1_p" transform="matrix(12,0,0,12,470.7,883.5)" />
<use xlink:href="#f1_6" transform="matrix(12,0,0,12,482.6,883.5)" />
<use xlink:href="#f1_a" transform="matrix(12,0,0,12,500.5,883.5)" />
<use xlink:href="#f1_e" transform="matrix(12,0,0,12,512.5,883.5)" />
<use xlink:href="#f1_r" transform="matrix(12,0,0,12,530.5,883.5)" />
<use xlink:href="#f1_m" transform="matrix(12,0,0,12,535.6,883.5)" />
<use xlink:href="#f1_i" transform="matrix(12,0,0,12,547.9,883.5)" />
<use xlink:href="#f1_7" transform="matrix(12,0,0,12,559.8,883.5)" />
<use xlink:href="#f1_r" transform="matrix(12,0,0,12,576.2,883.5)" />
<use xlink:href="#f1_4" transform="matrix(12,0,0,12,581.2,883.5)" />
<use xlink:href="#f1_3" transform="matrix(12,0,0,12,590.8,883.5)" />
<use xlink:href="#f1_6" transform="matrix(12,0,0,12,594.9,883.5)" />
<use xlink:href="#f1_r" transform="matrix(12,0,0,12,612.7,883.5)" />
<use xlink:href="#f1_9" transform="matrix(12,0,0,12,617.7,883.5)" />
<use xlink:href="#f1_4" transform="matrix(12,0,0,12,622.7,883.5)" />
<use xlink:href="#f1_l" transform="matrix(12,0,0,12,632.3,883.5)" />
<use xlink:href="#f1_5" transform="matrix(12,0,0,12,645.5,883.5)" />
<use xlink:href="#f1_4" transform="matrix(12,0,0,12,655.9,883.5)" />
<use xlink:href="#f1_9" transform="matrix(12,0,0,12,665.5,883.5)" />
<use xlink:href="#f1_b" transform="matrix(12,0,0,12,670.4,883.5)" />
<use xlink:href="#f1_s" transform="matrix(12,0,0,12,682.7,883.5)" />
<use xlink:href="#f1_l" transform="matrix(12,0,0,12,692.5,883.5)" />
<use xlink:href="#f1_3" transform="matrix(12,0,0,12,699.8,883.5)" />
<use xlink:href="#f1_e" transform="matrix(12,0,0,12,703.9,883.5)" />
<use xlink:href="#f1_j" transform="matrix(12,0,0,12,722,883.5)" />
<use xlink:href="#f1_e" transform="matrix(12,0,0,12,734.2,883.5)" />
<use xlink:href="#f1_j" transform="matrix(12,0,0,12,752.2,883.5)" />
<use xlink:href="#f1_u" transform="matrix(12,0,0,12,764.4,883.5)" />
</g>
</g>
<path d="M129.2,929H313.5M129.2,951.1H313.5M129.2,973.3H313.5" class="g0_16" />
<g clip-path="url(#c0_16)">
<g fill="#000000" >
<use xlink:href="#f1_18" transform="matrix(12,0,0,12,352,924.3)" />
<use xlink:href="#f1_7" transform="matrix(12,0,0,12,361.8,924.3)" />
<use xlink:href="#f1_4" transform="matrix(12,0,0,12,372.1,924.3)" />
<use xlink:href="#f1_9" transform="matrix(12,0,0,12,381.8,924.3)" />
<use xlink:href="#f1_e" transform="matrix(12,0,0,12,386.8,924.3)" />
<use xlink:href="#f1_3" transform="matrix(12,0,0,12,404.8,924.3)" />
<use xlink:href="#f1_l" transform="matrix(12,0,0,12,408.9,924.3)" />
<use xlink:href="#f1_e" transform="matrix(12,0,0,12,416.3,924.3)" />
<use xlink:href="#f1_s" transform="matrix(12,0,0,12,434.4,924.3)" />
<use xlink:href="#f1_3" transform="matrix(12,0,0,12,444.2,924.3)" />
<use xlink:href="#f1_e" transform="matrix(12,0,0,12,448.3,924.3)" />
<use xlink:href="#f1_g" transform="matrix(12,0,0,12,353.5,946.5)" />
<use xlink:href="#f1_6" transform="matrix(12,0,0,12,359.3,946.5)" />
<use xlink:href="#f1_a" transform="matrix(12,0,0,12,371.3,946.5)" />
<use xlink:href="#f1_9" transform="matrix(12,0,0,12,383.3,946.5)" />
<use xlink:href="#f1_n" transform="matrix(12,0,0,12,388.3,946.5)" />
<use xlink:href="#f1_c" transform="matrix(12,0,0,12,407.1,946.5)" />
<use xlink:href="#f1_9" transform="matrix(12,0,0,12,420.1,946.5)" />
<use xlink:href="#f1_l" transform="matrix(12,0,0,12,425.1,946.5)" />
<use xlink:href="#f1_3" transform="matrix(12,0,0,12,432.5,946.5)" />
<use xlink:href="#f1_a" transform="matrix(12,0,0,12,436.6,946.5)" />
<use xlink:href="#f1_6" transform="matrix(12,0,0,12,448.6,946.5)" />
<use xlink:href="#f1_g" transform="matrix(12,0,0,12,361.6,968.6)" />
<use xlink:href="#f1_a" transform="matrix(12,0,0,12,367.4,968.6)" />
<use xlink:href="#f1_e" transform="matrix(12,0,0,12,379.5,968.6)" />
<use xlink:href="#f1_5" transform="matrix(12,0,0,12,391.7,968.6)" />
<use xlink:href="#f1_9" transform="matrix(12,0,0,12,402.1,968.6)" />
<use xlink:href="#f1_c" transform="matrix(12,0,0,12,407.1,968.6)" />
<use xlink:href="#f1_6" transform="matrix(12,0,0,12,426,968.6)" />
<use xlink:href="#f1_e" transform="matrix(12,0,0,12,437.9,968.6)" />
<use xlink:href="#f1_7" transform="matrix(12,0,0,12,450.2,968.6)" />
</g>
<g fill="#0000FF" >
<use xlink:href="#f1_7" transform="matrix(12,0,0,12,649.3,1009.1)" />
<use xlink:href="#f1_3" transform="matrix(12,0,0,12,660,1009.1)" />
<use xlink:href="#f1_u" transform="matrix(12,0,0,12,664.5,1009.1)" />
<use xlink:href="#f1_5" transform="matrix(12,0,0,12,672.3,1009.1)" />
<use xlink:href="#f1_a" transform="matrix(12,0,0,12,683.1,1009.1)" />
<use xlink:href="#f1_7" transform="matrix(12,0,0,12,695.5,1009.1)" />
<use xlink:href="#f1_a" transform="matrix(12,0,0,12,712.4,1009.1)" />
<use xlink:href="#f1_9" transform="matrix(12,0,0,12,724.9,1009.1)" />
<use xlink:href="#f1_2" transform="matrix(12,0,0,12,730.3,1009.1)" />
<use xlink:href="#f1_9" transform="matrix(12,0,0,12,741.2,1009.1)" />
<use xlink:href="#f1_n" transform="matrix(12,0,0,12,746.6,1009.1)" />
<use xlink:href="#f1_a" transform="matrix(12,0,0,12,759.8,1009.1)" />
</g>
</g>
<path d="M642.9,1010.9H772.1" class="g1_16" />
<g clip-path="url(#c3_16)">
<path d="M642.4,1010.9h5.8" class="g1_16" />
</g>
<g clip-path="url(#c0_16)">
<g fill="#0000FF" >
<use xlink:href="#f1_z" transform="matrix(12,0,0,12,618.8,1009.1)" />
<use xlink:href="#f1_1e" transform="matrix(12,0,0,12,630.6,1009.1)" />
</g>
</g>
<path d="M618.8,1010.9h23.6" class="g1_16" />
<g clip-path="url(#c0_16)">
<g fill="#000000" >
<use xlink:href="#f5_j" transform="matrix(16,0,0,16,566.7,1073.9)" />
<use xlink:href="#f5_p" transform="matrix(16,0,0,16,581.9,1073.9)" />
<use xlink:href="#f5_14" transform="matrix(16,0,0,16,596.1,1073.9)" />
<use xlink:href="#f5_q" transform="matrix(16,0,0,16,614.8,1073.9)" />
<use xlink:href="#f5_z" transform="matrix(16,0,0,16,626.9,1073.9)" />
<use xlink:href="#f5_3" transform="matrix(16,0,0,16,641.8,1073.9)" />
<use xlink:href="#f5_p" transform="matrix(16,0,0,16,648.4,1073.9)" />
<use xlink:href="#f5_6" transform="matrix(16,0,0,16,669.1,1073.9)" />
<use xlink:href="#f5_j" transform="matrix(16,0,0,16,683.5,1073.9)" />
<use xlink:href="#f5_1b" transform="matrix(16,0,0,16,698.7,1073.9)" />
<use xlink:href="#f5_6" transform="matrix(16,0,0,16,721.3,1073.9)" />
<use xlink:href="#f5_5" transform="matrix(16,0,0,16,735.8,1073.9)" />
<use xlink:href="#f5_n" transform="matrix(16,0,0,16,749.4,1073.9)" />
<use xlink:href="#f5_1b" transform="matrix(16,0,0,16,756.1,1073.9)" />
<use xlink:href="#f1_o" transform="matrix(12,0,0,12,138.1,1096.2)" />
<use xlink:href="#f1_5" transform="matrix(12,0,0,12,143.9,1096.2)" />
<use xlink:href="#f1_3" transform="matrix(12,0,0,12,154.2,1096.2)" />
<use xlink:href="#f1_4" transform="matrix(12,0,0,12,158.3,1096.2)" />
<use xlink:href="#f1_m" transform="matrix(12,0,0,12,167.9,1096.2)" />
<use xlink:href="#f1_6" transform="matrix(12,0,0,12,187.1,1096.2)" />
<use xlink:href="#f1_a" transform="matrix(12,0,0,12,199,1096.2)" />
<use xlink:href="#f1_e" transform="matrix(12,0,0,12,211.1,1096.2)" />
<use xlink:href="#f1_n" transform="matrix(12,0,0,12,223.3,1096.2)" />
<use xlink:href="#f1_7" transform="matrix(12,0,0,12,242.8,1096.2)" />
<use xlink:href="#f1_k" transform="matrix(12,0,0,12,253.2,1096.2)" />
<use xlink:href="#f1_9" transform="matrix(12,0,0,12,264.7,1096.2)" />
<use xlink:href="#f1_d" transform="matrix(12,0,0,12,269.7,1096.2)" />
<use xlink:href="#f1_7" transform="matrix(12,0,0,12,287.7,1096.2)" />
<use xlink:href="#f1_4" transform="matrix(12,0,0,12,298.1,1096.2)" />
<use xlink:href="#f1_g" transform="matrix(12,0,0,12,314.4,1096.2)" />
<use xlink:href="#f1_s" transform="matrix(12,0,0,12,320.2,1096.2)" />
<use xlink:href="#f1_7" transform="matrix(12,0,0,12,330,1096.2)" />
<use xlink:href="#f1_n" transform="matrix(12,0,0,12,340.4,1096.2)" />
<use xlink:href="#f1_j" transform="matrix(12,0,0,12,360.1,1096.2)" />
<use xlink:href="#f1_3" transform="matrix(12,0,0,12,372.1,1096.2)" />
<use xlink:href="#f1_7" transform="matrix(12,0,0,12,376.2,1096.2)" />
<use xlink:href="#f1_3" transform="matrix(12,0,0,12,386.6,1096.2)" />
<use xlink:href="#f1_m" transform="matrix(12,0,0,12,390.7,1096.2)" />
<use xlink:href="#f1_6" transform="matrix(12,0,0,12,403.2,1096.2)" />
<use xlink:href="#f1_5" transform="matrix(12,0,0,12,421.7,1096.2)" />
<use xlink:href="#f1_q" transform="matrix(12,0,0,12,432,1096.2)" />
<use xlink:href="#f1_9" transform="matrix(12,0,0,12,442.9,1096.2)" />
<use xlink:href="#f1_e" transform="matrix(12,0,0,12,447.9,1096.2)" />
<use xlink:href="#f1_7" transform="matrix(12,0,0,12,460.2,1096.2)" />
<use xlink:href="#f1_a" transform="matrix(12,0,0,12,477.1,1096.2)" />
<use xlink:href="#f1_d" transform="matrix(12,0,0,12,489.1,1096.2)" />
<use xlink:href="#f1_i" transform="matrix(12,0,0,12,500.6,1096.2)" />
<use xlink:href="#f1_9" transform="matrix(12,0,0,12,512.5,1096.2)" />
<use xlink:href="#f1_9" transform="matrix(12,0,0,12,517.5,1096.2)" />
<use xlink:href="#f1_a" transform="matrix(12,0,0,12,522.4,1096.2)" />
<use xlink:href="#f1_m" transform="matrix(12,0,0,12,534.4,1096.2)" />
<use xlink:href="#f1_5" transform="matrix(12,0,0,12,553.5,1096.2)" />
<use xlink:href="#f1_3" transform="matrix(12,0,0,12,563.7,1096.2)" />
<use xlink:href="#f1_4" transform="matrix(12,0,0,12,567.8,1096.2)" />
<use xlink:href="#f1_m" transform="matrix(12,0,0,12,577.5,1096.2)" />
<use xlink:href="#f1_6" transform="matrix(12,0,0,12,596.7,1096.2)" />
<use xlink:href="#f1_a" transform="matrix(12,0,0,12,608.6,1096.2)" />
<use xlink:href="#f1_e" transform="matrix(12,0,0,12,620.6,1096.2)" />
<use xlink:href="#f1_n" transform="matrix(12,0,0,12,632.9,1096.2)" />
<use xlink:href="#f1_6" transform="matrix(12,0,0,12,652.4,1096.2)" />
<use xlink:href="#f1_n" transform="matrix(12,0,0,12,664.3,1096.2)" />
<use xlink:href="#f1_h" transform="matrix(12,0,0,12,677.3,1096.2)" />
<use xlink:href="#f1_f" transform="matrix(12,0,0,12,687.3,1096.2)" />
<use xlink:href="#f1_6" transform="matrix(12,0,0,12,705.9,1096.2)" />
<use xlink:href="#f1_7" transform="matrix(12,0,0,12,717.8,1096.2)" />
<use xlink:href="#f1_3" transform="matrix(12,0,0,12,728.2,1096.2)" />
<use xlink:href="#f1_m" transform="matrix(12,0,0,12,732.2,1096.2)" />
<use xlink:href="#f1_7" transform="matrix(12,0,0,12,751.4,1096.2)" />
<use xlink:href="#f1_4" transform="matrix(12,0,0,12,761.8,1096.2)" />
<use xlink:href="#f1_g" transform="matrix(12,0,0,12,171.9,1117.6)" />
<use xlink:href="#f1_x" transform="matrix(12,0,0,12,177.7,1117.6)" />
<use xlink:href="#f1_j" transform="matrix(12,0,0,12,184.9,1117.6)" />
<use xlink:href="#f1_3" transform="matrix(12,0,0,12,197.1,1117.6)" />
<use xlink:href="#f1_d" transform="matrix(12,0,0,12,201.2,1117.6)" />
<use xlink:href="#f1_9" transform="matrix(12,0,0,12,212.6,1117.6)" />
<use xlink:href="#f1_u" transform="matrix(12,0,0,12,217.6,1117.6)" />
<use xlink:href="#f1_6" transform="matrix(12,0,0,12,225.1,1117.6)" />
<use xlink:href="#f1_a" transform="matrix(12,0,0,12,242.8,1117.6)" />
<use xlink:href="#f1_n" transform="matrix(12,0,0,12,254.9,1117.6)" />
<use xlink:href="#f1_m" transform="matrix(12,0,0,12,267.9,1117.6)" />
<use xlink:href="#f1_f" transform="matrix(12,0,0,12,280.4,1117.6)" />
<use xlink:href="#f1_a" transform="matrix(12,0,0,12,298.1,1117.6)" />
<use xlink:href="#f1_3" transform="matrix(12,0,0,12,310.1,1117.6)" />
<use xlink:href="#f1_3" transform="matrix(12,0,0,12,314.3,1117.6)" />
<use xlink:href="#f1_p" transform="matrix(12,0,0,12,318.4,1117.6)" />
<use xlink:href="#f1_6" transform="matrix(12,0,0,12,330.3,1117.6)" />
<use xlink:href="#f1_2" transform="matrix(12,0,0,12,342.2,1117.6)" />
<use xlink:href="#f1_7" transform="matrix(12,0,0,12,358.5,1117.6)" />
<use xlink:href="#f1_k" transform="matrix(12,0,0,12,368.9,1117.6)" />
<use xlink:href="#f1_9" transform="matrix(12,0,0,12,380.4,1117.6)" />
<use xlink:href="#f1_d" transform="matrix(12,0,0,12,385.4,1117.6)" />
<use xlink:href="#f1_6" transform="matrix(12,0,0,12,396.8,1117.6)" />
<use xlink:href="#f1_w" transform="matrix(12,0,0,12,408.8,1117.6)" />
<use xlink:href="#f1_s" transform="matrix(12,0,0,12,421.9,1117.6)" />
<use xlink:href="#f1_7" transform="matrix(12,0,0,12,431.6,1117.6)" />
<use xlink:href="#f1_n" transform="matrix(12,0,0,12,442,1117.6)" />
<use xlink:href="#f1_j" transform="matrix(12,0,0,12,460.8,1117.6)" />
<use xlink:href="#f1_3" transform="matrix(12,0,0,12,473,1117.6)" />
<use xlink:href="#f1_7" transform="matrix(12,0,0,12,477.1,1117.6)" />
<use xlink:href="#f1_3" transform="matrix(12,0,0,12,487.5,1117.6)" />
<use xlink:href="#f1_m" transform="matrix(12,0,0,12,491.6,1117.6)" />
<use xlink:href="#f1_6" transform="matrix(12,0,0,12,504,1117.6)" />
<use xlink:href="#f1_5" transform="matrix(12,0,0,12,521.9,1117.6)" />
<use xlink:href="#f1_q" transform="matrix(12,0,0,12,532.3,1117.6)" />
<use xlink:href="#f1_9" transform="matrix(12,0,0,12,543.1,1117.6)" />
<use xlink:href="#f1_e" transform="matrix(12,0,0,12,548.1,1117.6)" />
<use xlink:href="#f1_7" transform="matrix(12,0,0,12,560.4,1117.6)" />
<use xlink:href="#f1_a" transform="matrix(12,0,0,12,576.6,1117.6)" />
<use xlink:href="#f1_9" transform="matrix(12,0,0,12,588.6,1117.6)" />
<use xlink:href="#f1_n" transform="matrix(12,0,0,12,593.5,1117.6)" />
<use xlink:href="#f1_h" transform="matrix(12,0,0,12,606.5,1117.6)" />
<use xlink:href="#f1_f" transform="matrix(12,0,0,12,616.5,1117.6)" />
<use xlink:href="#f1_j" transform="matrix(12,0,0,12,634.3,1117.6)" />
<use xlink:href="#f1_3" transform="matrix(12,0,0,12,646.5,1117.6)" />
<use xlink:href="#f1_7" transform="matrix(12,0,0,12,650.6,1117.6)" />
<use xlink:href="#f1_3" transform="matrix(12,0,0,12,661,1117.6)" />
<use xlink:href="#f1_m" transform="matrix(12,0,0,12,665,1117.6)" />
<use xlink:href="#f1_n" transform="matrix(12,0,0,12,683.4,1117.6)" />
<use xlink:href="#f1_m" transform="matrix(12,0,0,12,696.4,1117.6)" />
<use xlink:href="#f1_f" transform="matrix(12,0,0,12,708.8,1117.6)" />
<use xlink:href="#f1_t" transform="matrix(12,0,0,12,726.7,1117.6)" />
<use xlink:href="#f1_3" transform="matrix(12,0,0,12,738.3,1117.6)" />
<use xlink:href="#f1_i" transform="matrix(12,0,0,12,742.4,1117.6)" />
<use xlink:href="#f1_9" transform="matrix(12,0,0,12,754.3,1117.6)" />
<use xlink:href="#f1_m" transform="matrix(12,0,0,12,759.2,1117.6)" />
<use xlink:href="#f1_z" transform="matrix(11,0,0,11,137.5,1208.9)" />
<use xlink:href="#f1_1a" transform="matrix(11,0,0,11,148.2,1208.9)" />
</g>
</g>
<defs>
<path d="M495,413c0,0,0,133,-34,190c0,0,-34,57,-105,57c0,0,-78,0,-119,-63c0,0,-42,-62,-42,-184ZM374,-14c0,0,-163,0,-239,87c0,0,-75,88,-75,283c0,0,0,183,77,273c0,0,76,91,219,91c0,0,269,0,269,-306V353H194V340c0,0,0,-103,23,-160c0,0,22,-57,70,-87c0,0,47,-29,124,-29c0,0,40,0,96,6c0,0,55,7,91,15V43C598,43,562,20,500,3c0,0,-61,-17,-126,-17Z" 
id="f0_l"
transform="scale(0.001,-0.001)" />

<path d="M278,-14c0,0,-52,0,-115,11c0,0,-63,10,-99,23V193H98L134,95c0,0,56,-50,146,-50c0,0,144,0,144,123c0,0,0,91,-114,130l-66,21c0,0,-75,25,-110,50c0,0,-34,26,-53,63c0,0,-18,36,-18,89c0,0,0,92,63,145c0,0,63,54,170,54c0,0,77,0,193,-23V544H454l-32,81c0,0,-39,35,-124,35c0,0,-61,0,-92,-30c0,0,-32,-30,-32,-80c0,0,0,-43,29,-72c0,0,28,-29,86,-48c0,0,110,-38,144,-55c0,0,33,-17,57,-42c0,0,23,-25,36,-57c0,0,13,-32,13,-79c0,0,0,-104,-66,-158c0,0,-66,-53,-195,-53Z" 
id="f0_q"
transform="scale(0.001,-0.001)" />

<path d="M399,-14c0,0,-341,0,-341,370c0,0,0,175,87,269c0,0,87,95,249,95c0,0,101,0,220,-23V501H573L541,625c0,0,-62,35,-149,35c0,0,-200,0,-200,-304c0,0,0,-158,61,-225c0,0,61,-67,189,-67c0,0,109,0,189,24V43C631,43,595,16,530,1c0,0,-64,-15,-131,-15Z" 
id="f0_8"
transform="scale(0.001,-0.001)" />

<path d="M289,-14c0,0,-179,0,-179,205V649L20,668v33H233V200c0,0,0,-128,120,-128c0,0,92,0,173,23V649L420,668v33H649V52L738,33V0H533l-6,57C527,57,474,28,405,7c0,0,-69,-21,-116,-21Z" 
id="f0_y"
transform="scale(0.001,-0.001)" />

<path d="M31,0V33L150,52v956L31,1026v34H274V52L394,33V0Z" 
id="f0_j"
transform="scale(0.001,-0.001)" />

<path d="M284,67c0,0,51,0,88,12c0,0,37,12,74,30V358l-98,-3c0,0,-100,-4,-135,-39c0,0,-35,-35,-35,-117c0,0,0,-132,106,-132ZM233,-14c0,0,-179,0,-179,208c0,0,0,70,27,116c0,0,27,46,87,70c0,0,60,24,173,27l105,3V519c0,0,0,72,-26,107c0,0,-27,34,-82,34c0,0,-75,0,-137,-35L176,538H134V691c0,0,121,26,213,26c0,0,115,0,169,-47c0,0,54,-47,54,-144V52L657,33V0H465L451,70c0,0,-85,-84,-218,-84Z" 
id="f0_b"
transform="scale(0.001,-0.001)" />

<path d="M360,-14L72,649L0,668v33H327V668L216,648L420,164L615,649L504,668v33H764V668L697,652L416,-14Z" 
id="f0_6"
transform="scale(0.001,-0.001)" />

<path d="M41,0V34L426,641H261c0,0,-42,0,-80,-7c0,0,-39,-7,-54,-19L104,515H69V701H586V665L201,60H407c0,0,42,0,89,10c0,0,47,10,66,25l39,147h35L617,0Z" 
id="f0_1r"
transform="scale(0.001,-0.001)" />

<path d="M382,45c0,0,188,0,188,314c0,0,0,143,-47,213c0,0,-46,69,-141,69c0,0,-87,0,-146,-24V58c0,0,67,-13,146,-13ZM25,-325v35l88,18V649L34,668v33H231l1,-41c0,0,31,27,84,43c0,0,53,17,107,17c0,0,134,0,208,-94c0,0,73,-93,73,-267c0,0,0,-178,-80,-276c0,0,-80,-97,-232,-97c0,0,-84,0,-160,16c0,0,4,-53,4,-84V-272l123,-18v-35Z" 
id="f0_15"
transform="scale(0.001,-0.001)" />

<path d="M442,0V33l93,19V504c0,0,0,129,-124,129c0,0,-70,0,-168,-22V52L338,33V0H31V33l88,19v956L15,1026v34H243V756c0,0,0,-77,-5,-112c0,0,54,31,122,53c0,0,68,23,115,23c0,0,91,0,137,-53c0,0,47,-53,47,-154V52L744,33V0Z" 
id="f0_14"
transform="scale(0.001,-0.001)" />

<path d="M32,0V33L151,52V649L52,668v33H275V52L395,33V0ZM201,850c0,0,-32,0,-56,24c0,0,-24,24,-24,56c0,0,0,34,24,58c0,0,24,24,56,24c0,0,34,0,58,-24c0,0,24,-24,24,-58c0,0,0,-32,-24,-56c0,0,-24,-24,-58,-24Z" 
id="f0_7"
transform="scale(0.001,-0.001)" />

<path d="M359,-270c0,0,124,0,192,46c0,0,67,47,67,129c0,0,0,43,-26,67c0,0,-26,24,-79,24H242c0,0,-32,-27,-51,-69c0,0,-20,-41,-20,-77c0,0,0,-64,46,-92c0,0,46,-28,142,-28Zm11,561c0,0,81,0,115,47c0,0,34,47,34,141c0,0,0,100,-35,142c0,0,-35,42,-113,42c0,0,-78,0,-114,-43c0,0,-37,-42,-37,-141c0,0,0,-98,36,-143c0,0,36,-45,114,-45ZM359,-329c0,0,-143,0,-218,44c0,0,-75,43,-75,125c0,0,0,39,27,78c0,0,26,38,98,89c0,0,-43,14,-72,48c0,0,-29,35,-29,74L208,262c0,0,-118,55,-118,217c0,0,0,115,73,178c0,0,73,63,211,63c0,0,28,0,71,-6c0,0,44,-6,67,-13l165,83l26,-32L599,644c0,0,50,-56,50,-165c0,0,0,-120,-72,-182c0,0,-73,-62,-208,-62c0,0,-62,0,-114,11L208,148c0,0,2,-13,29,-24c0,0,27,-12,67,-12H512c0,0,113,0,168,-49c0,0,55,-49,55,-134c0,0,0,-79,-44,-137c0,0,-43,-58,-128,-90c0,0,-84,-31,-204,-31Z" 
id="f0_1k"
transform="scale(0.001,-0.001)" />

<path d="M495,413c0,0,0,133,-34,190c0,0,-34,57,-105,57c0,0,-78,0,-119,-62c0,0,-42,-63,-42,-185ZM374,-14c0,0,-163,0,-239,87c0,0,-75,88,-75,283c0,0,0,183,77,274c0,0,76,90,219,90c0,0,269,0,269,-306V353H194V339c0,0,0,-103,23,-160c0,0,22,-57,70,-86c0,0,47,-30,124,-30c0,0,40,0,96,6c0,0,55,7,91,15V43C598,43,562,19,500,2c0,0,-61,-16,-126,-16ZM285,835v24l146,203H590v-27L326,835Z" 
id="f0_h"
transform="scale(0.001,-0.001)" />

<path d="M439,0V33l93,19V500c0,0,0,62,-30,97c0,0,-31,36,-94,36c0,0,-67,0,-165,-22V52L338,33V0H35V33l84,19V649L35,668v33H235l7,-57c0,0,57,33,122,54c0,0,65,22,108,22c0,0,91,0,137,-53c0,0,47,-53,47,-154V52L741,33V0Z" 
id="f0_p"
transform="scale(0.001,-0.001)" />

<path d="M377,45c0,0,99,0,147,73c0,0,47,73,47,237c0,0,0,161,-47,233c0,0,-47,72,-147,72c0,0,-97,0,-141,-69c0,0,-44,-69,-44,-236c0,0,0,-169,45,-240c0,0,44,-70,140,-70Zm0,-59c0,0,-158,0,-238,94c0,0,-81,95,-81,274c0,0,0,178,81,272c0,0,80,94,244,94c0,0,160,0,241,-92c0,0,82,-92,82,-274c0,0,0,-368,-329,-368Z" 
id="f0_9"
transform="scale(0.001,-0.001)" />

<path d="M284,67c0,0,51,0,88,12c0,0,37,11,74,29V357l-98,-3c0,0,-100,-3,-135,-38c0,0,-35,-36,-35,-118c0,0,0,-131,106,-131ZM233,-14c0,0,-179,0,-179,208c0,0,0,70,27,116c0,0,27,46,87,70c0,0,60,24,173,27l105,3V519c0,0,0,73,-26,107c0,0,-27,34,-82,34c0,0,-75,0,-137,-35L176,538H134V691c0,0,121,26,213,26c0,0,115,0,169,-47c0,0,54,-47,54,-144V52L657,34V0H465L451,70c0,0,-85,-84,-218,-84Zm22,849v24l146,203H560v-27L296,835Z" 
id="f0_u"
transform="scale(0.001,-0.001)" />

<path d="M64,-325c0,0,-46,0,-107,14v148H-8l19,-81c0,0,25,-21,62,-21c0,0,44,0,67,47c0,0,22,47,22,152V649L57,668v33H286V-28c0,0,0,-146,-57,-221c0,0,-56,-76,-165,-76ZM213,850c0,0,-34,0,-58,24c0,0,-24,24,-24,56c0,0,0,34,24,58c0,0,24,24,58,24c0,0,32,0,56,-24c0,0,24,-24,24,-58c0,0,0,-32,-24,-56c0,0,-24,-24,-56,-24Z" 
id="f0_19"
transform="scale(0.001,-0.001)" />

<path d="M31,0V33l88,19V649L31,668v33H235l7,-87c0,0,44,37,121,71c0,0,76,35,121,35h11V530H463l-43,82c0,0,-37,0,-88,-10c0,0,-52,-10,-89,-26V52L363,33V0Z" 
id="f0_r"
transform="scale(0.001,-0.001)" />

<path d="M376,50c0,0,103,0,149,80c0,0,46,81,46,240c0,0,0,137,-47,204c0,0,-48,67,-148,67c0,0,-44,0,-87,-7c0,0,-44,-8,-63,-17V62c0,0,63,-12,150,-12Zm3,-64c0,0,-64,0,-141,14c0,0,-78,14,-136,37v971L0,1026v34H226V809c0,0,0,-40,-4,-148c0,0,74,59,188,59c0,0,143,0,219,-87c0,0,77,-87,77,-263c0,0,0,-189,-84,-287c0,0,-84,-97,-243,-97Z" 
id="f0_10"
transform="scale(0.001,-0.001)" />

<path d="M64,0V34L168,59V639H47v36l121,29v49c0,0,0,155,61,239c0,0,62,84,173,84c0,0,58,0,107,-15V908H472l-33,92c0,0,-26,16,-62,16c0,0,-47,0,-66,-42c0,0,-19,-42,-19,-157V701H478V639H292V59L443,34V0Z" 
id="f0_13"
transform="scale(0.001,-0.001)" />

<path d="M383,64c0,0,85,0,152,28V645c0,0,-67,13,-152,13c0,0,-194,0,-194,-314c0,0,0,-141,48,-211c0,0,48,-69,146,-69ZM342,-14c0,0,-287,0,-287,358c0,0,0,184,82,280c0,0,81,96,239,96c0,0,81,0,163,-18c0,0,-4,25,-4,124v182l-118,18v34H659V52L745,33V0H548l-9,52c0,0,-84,-66,-197,-66Z" 
id="f0_n"
transform="scale(0.001,-0.001)" />

<path d="M32,0V34L151,52V649L52,668v33H275V52L395,34V0Zm71,835v24l146,203H408v-27L144,835Z" 
id="f0_s"
transform="scale(0.001,-0.001)" />

<path d="M249,-14c0,0,-71,0,-107,42c0,0,-35,42,-35,119V639H15v33l93,29l76,159h47V701H391V639H231V161c0,0,0,-48,22,-73c0,0,22,-24,57,-24c0,0,44,0,106,12V26C416,26,389,8,340,-2c0,0,-49,-12,-91,-12Z" 
id="f0_d"
transform="scale(0.001,-0.001)" />

<path d="M431,0V33L535,52V499c0,0,0,62,-32,96c0,0,-32,33,-95,33c0,0,-66,0,-163,-22V52L350,33V0H32V33l89,19V649L32,668v33H237l6,-57c0,0,56,32,119,54c0,0,62,22,110,22c0,0,52,0,95,-20c0,0,44,-19,66,-62c0,0,57,32,134,57c0,0,77,25,128,25c0,0,179,0,179,-207V52l90,-19V0H846V33L950,52V499c0,0,0,129,-119,129c0,0,-19,0,-45,-3c0,0,-26,-3,-52,-7c0,0,-25,-4,-49,-8c0,0,-23,-5,-39,-8c0,0,13,-41,13,-89V52L764,33V0Z" 
id="f0_a"
transform="scale(0.001,-0.001)" />

<path d="M377,44c0,0,99,0,147,73c0,0,47,73,47,237c0,0,0,161,-47,234c0,0,-47,72,-147,72c0,0,-97,0,-141,-69c0,0,-44,-70,-44,-237c0,0,0,-169,45,-239c0,0,44,-71,140,-71Zm0,-58c0,0,-158,0,-238,94c0,0,-81,95,-81,274c0,0,0,178,81,272c0,0,80,94,244,94c0,0,160,0,241,-92c0,0,82,-92,82,-274c0,0,0,-368,-329,-368ZM301,835v24l147,203H606v-27L342,835Z" 
id="f0_1o"
transform="scale(0.001,-0.001)" />

<path d="M35,0V34l84,18V649L35,668v33H235l7,-56c0,0,57,32,122,54c0,0,65,21,108,21c0,0,91,0,137,-53c0,0,47,-53,47,-154V52L741,34V0H439V34l93,18V500c0,0,0,62,-30,97c0,0,-31,36,-94,36c0,0,-67,0,-165,-22V52L338,34V0ZM481,834c0,0,-36,0,-66,16c0,0,-30,16,-57,36c0,0,-27,20,-52,36c0,0,-25,16,-49,16c0,0,-24,0,-39,-9c0,0,-14,-9,-23,-26c0,0,-8,-17,-13,-54H143c0,0,11,180,146,180c0,0,36,0,66,-16c0,0,30,-16,57,-35c0,0,27,-20,52,-36c0,0,25,-16,49,-16c0,0,32,0,50,18c0,0,18,19,25,70h39c0,0,-12,-180,-146,-180Z" 
id="f0_16"
transform="scale(0.001,-0.001)" />

<path d="M287,0L589,729H66v386H205V836l547,-1l-2,-82L433,0Z" 
id="f1_7"
transform="scale(0.001,-0.001)" />

<path d="M102,312V836H241V369L102,312Z" 
id="f1_3"
transform="scale(0.001,-0.001)" />

<path d="M138,-7c0,0,-34,0,-72,10V129c0,0,25,-8,52,-8c0,0,33,0,58,5c0,0,26,5,58,24c0,0,33,20,53,54c0,0,21,34,36,97c0,0,15,64,15,151c0,0,0,113,-19,173c0,0,-19,60,-56,82c0,0,-38,22,-107,22H89V836h72c0,0,165,0,240,-91c0,0,76,-91,76,-293c0,0,0,-107,26,-227c0,0,25,-119,83,-225H437c0,0,-43,101,-62,184c0,0,-24,-60,-51,-99c0,0,-26,-38,-56,-58C268,27,239,7,209,0c0,0,-30,-7,-71,-7Z" 
id="f1_u"
transform="scale(0.001,-0.001)" />

<path d="M585,0V426c0,0,0,54,-8,98c0,0,-8,44,-27,83c0,0,-19,40,-49,66c0,0,-30,26,-77,41c0,0,-47,15,-108,15H66V836H315c0,0,94,0,166,-20c0,0,71,-20,116,-54c0,0,46,-35,75,-88c0,0,28,-52,40,-112c0,0,12,-60,12,-137V0Z" 
id="f1_5"
transform="scale(0.001,-0.001)" />

<path d="M112,-5c0,0,-39,0,-97,11V113c0,0,48,-10,77,-10c0,0,53,0,70,42c0,0,17,43,17,164V729H50V836H501c0,0,107,0,179,-25c0,0,72,-25,112,-77c0,0,40,-51,57,-118c0,0,16,-67,16,-164V0H726V454c0,0,0,55,-3,92c0,0,-4,37,-17,75c0,0,-14,38,-38,59c0,0,-24,22,-65,36c0,0,-42,13,-102,13H318V309c0,0,0,-160,-46,-237C272,72,226,-5,112,-5Z" 
id="f1_a"
transform="scale(0.001,-0.001)" />

<path d="M139,0V836H278V0Z" 
id="f1_9"
transform="scale(0.001,-0.001)" />

<path d="M66,0V107H554V452c0,0,0,56,-4,93c0,0,-4,37,-18,75c0,0,-14,38,-40,60c0,0,-26,22,-71,36c0,0,-45,13,-110,13H66V836H312c0,0,91,0,157,-17c0,0,66,-17,109,-49c0,0,44,-32,69,-84c0,0,26,-52,36,-114c0,0,10,-62,10,-147V107H817V0Z" 
id="f1_2"
transform="scale(0.001,-0.001)" />

<path d="M180,0L66,836H203L258,443c0,0,36,1,64,6c0,0,28,6,49,18c0,0,20,12,35,26c0,0,15,13,26,36c0,0,11,24,17,44c0,0,7,20,12,55c0,0,6,34,9,60c0,0,3,26,8,71c0,0,4,45,9,77H610c0,0,-13,-194,-31,-271c0,0,-31,-127,-111,-179c0,0,-71,-45,-196,-50L304,107c0,0,73,0,130,5c0,0,56,6,111,21c0,0,54,15,94,40c0,0,40,25,77,64c0,0,37,39,63,94c0,0,25,54,46,128c0,0,21,73,34,166c0,0,13,94,20,211h138c0,0,-14,-124,-29,-218c0,0,-16,-94,-39,-179c0,0,-22,-85,-50,-146c0,0,-28,-61,-68,-112c0,0,-39,-51,-87,-84C744,97,696,65,632,42C632,42,568,19,492,10C492,10,417,0,320,0Z" 
id="f1_n"
transform="scale(0.001,-0.001)" />

<path d="M190,0V127H436V977L168,923v137l267,54H586V127H832V0Z" 
id="f1_z"
transform="scale(0.001,-0.001)" />

<path d="M505,98c0,0,101,0,160,70c0,0,60,69,60,189c0,0,0,121,-60,191c0,0,-59,69,-160,69c0,0,-102,0,-161,-69c0,0,-59,-70,-59,-191c0,0,0,-120,59,-189c0,0,59,-70,161,-70ZM504,-20c0,0,-193,0,-295,147c0,0,-102,148,-102,429c0,0,0,264,125,421c0,0,125,157,337,157c0,0,56,0,114,-11c0,0,58,-11,121,-34V952c0,0,-57,27,-115,41c0,0,-58,14,-115,14c0,0,-149,0,-228,-101c0,0,-79,-100,-90,-304c0,0,44,65,111,100c0,0,66,34,146,34c0,0,168,0,266,-102c0,0,97,-101,97,-277c0,0,0,-171,-101,-275C775,82,673,-20,504,-20Z" 
id="f1_1a"
transform="scale(0.001,-0.001)" />

<path d="M248,0L521,658H66v429H313V836l493,-1V716L504,0Z" 
id="f2_b"
transform="scale(0.001,-0.001)" />

<path d="M102,250V836H349V351L102,250Z" 
id="f2_h"
transform="scale(0.001,-0.001)" />

<path d="M154,-13c0,0,-38,0,-85,9V198c0,0,58,-15,103,-15c0,0,84,0,118,60c0,0,35,61,35,206c0,0,0,66,-7,105c0,0,-6,39,-24,63c0,0,-17,25,-44,33c0,0,-27,8,-73,8H66V836H225c0,0,198,0,275,-115c0,0,56,-84,65,-264c0,0,3,-55,3,-148c0,0,0,-177,71,-309L393,1c0,0,-53,130,-54,141c0,0,-28,-90,-65,-123c0,0,-38,-32,-120,-32Z" 
id="f2_f"
transform="scale(0.001,-0.001)" />

<path d="M534,0V425c0,0,0,109,-41,171c0,0,-41,62,-140,62H66V836H352c0,0,99,0,174,-20c0,0,75,-20,123,-55c0,0,48,-35,78,-87c0,0,30,-53,42,-113c0,0,12,-60,12,-136V0Z" 
id="f2_4"
transform="scale(0.001,-0.001)" />

<path d="M173,-6C173,-6,61,-6,15,9V177c0,0,73,-10,82,-10c0,0,37,0,52,30c0,0,14,29,14,116V658H18V836H516c0,0,262,0,341,-145c0,0,48,-89,48,-242V0H658V450c0,0,0,131,-37,171c0,0,-34,37,-105,37H411V313c0,0,0,-189,-67,-258C344,55,285,-6,173,-6Z" 
id="f2_7"
transform="scale(0.001,-0.001)" />

<path d="M180,0V198H433V918L173,864v196l258,54H705V198H958V0Z" 
id="f2_m"
transform="scale(0.001,-0.001)" />

<path d="M228,0L639,903H103v211H942V952L508,0Z" 
id="f2_v"
transform="scale(0.001,-0.001)" />

<path d="M154,0V454l138,56V0ZM722,0V454c0,0,0,161,-49,218c0,0,-48,57,-186,57H139V836H485c0,0,207,0,291,-93c0,0,83,-94,83,-318V0Z" 
id="f1_6"
transform="scale(0.001,-0.001)" />

<path d="M156,-317V454l139,56V-317ZM505,0L806,729H139V835H967V753L650,0Z" 
id="f1_c"
transform="scale(0.001,-0.001)" />

<path d="M66,0V107H332V555c0,0,0,92,-37,133c0,0,-37,41,-116,41H85V836h94c0,0,153,0,223,-66c0,0,69,-66,69,-231V0Z" 
id="f1_l"
transform="scale(0.001,-0.001)" />

<path d="M0,-141L388,1114H514L127,-141Z" 
id="f1_12"
transform="scale(0.001,-0.001)" />

<path d="M66,0V106H322c0,0,75,0,127,23c0,0,53,23,82,67c0,0,29,43,42,98c0,0,13,54,13,124c0,0,0,70,-13,124c0,0,-13,55,-42,98c0,0,-29,44,-82,67c0,0,-52,23,-127,23H66V836H322c0,0,87,0,157,-24c0,0,70,-24,115,-64c0,0,45,-40,74,-94c0,0,30,-55,43,-113c0,0,13,-59,13,-123c0,0,0,-64,-13,-123c0,0,-13,-58,-43,-113c0,0,-29,-54,-74,-94C594,88,549,48,479,24C479,24,409,0,322,0Z" 
id="f1_4"
transform="scale(0.001,-0.001)" />

<path d="M152,0V473c0,0,0,94,28,161c0,0,29,66,71,95H66V836H463V729H404c0,0,-65,0,-89,-57c0,0,-25,-58,-25,-199V0Z" 
id="f1_b"
transform="scale(0.001,-0.001)" />

<path d="M736,107V473c0,0,0,147,-48,202c0,0,-49,54,-187,54H278V107ZM139,0V836H499c0,0,105,0,177,-22c0,0,72,-21,116,-69c0,0,44,-49,64,-119c0,0,19,-71,19,-174V0Z" 
id="f1_j"
transform="scale(0.001,-0.001)" />

<path d="M495,0V729H66V836H781V729H634V0Z" 
id="f1_h"
transform="scale(0.001,-0.001)" />

<path d="M139,0V836H485c0,0,206,0,290,-90c0,0,84,-89,84,-294V0H721V473c0,0,0,147,-49,202c0,0,-48,54,-186,54H277V0Z" 
id="f1_f"
transform="scale(0.001,-0.001)" />

<path d="M543,-317V369c0,0,0,85,-8,143c0,0,-8,58,-27,101c0,0,-18,44,-51,69c0,0,-33,24,-80,36c0,0,-48,11,-117,11H66V836H257c0,0,125,0,205,-23c0,0,80,-23,130,-79c0,0,50,-56,70,-143c0,0,20,-86,20,-222V-317Z" 
id="f1_s"
transform="scale(0.001,-0.001)" />

<path d="M139,0V106H400c0,0,176,0,253,71c0,0,78,72,78,250c0,0,0,163,-80,233c0,0,-81,69,-250,69H278L277,564c0,0,-1,-54,26,-80c0,0,27,-25,82,-25c0,0,30,0,80,9V355c0,0,-61,-12,-111,-12c0,0,-100,0,-157,55c0,0,-58,55,-58,186V836H456c0,0,193,0,303,-109c0,0,110,-109,110,-309c0,0,0,-200,-110,-309C759,109,648,0,456,0Z" 
id="f1_d"
transform="scale(0.001,-0.001)" />

<path d="M74,357V479H476V357Z" 
id="f1_16"
transform="scale(0.001,-0.001)" />

<path d="M179,0V190H336V0Zm0,600V790H336V600Z" 
id="f1_v"
transform="scale(0.001,-0.001)" />

<path d="M117,-176L179,62V190H336V62L213,-176Z" 
id="f1_o"
transform="scale(0.001,-0.001)" />

<path d="M66,0V106H564L66,836H228L516,413c0,0,3,2,9,6c0,0,17,13,27,21c0,0,10,8,26,27c0,0,17,20,26,40c0,0,9,21,16,54c0,0,7,34,7,75V836H764V698c0,0,0,-55,-7,-102c0,0,-7,-47,-16,-79c0,0,-10,-33,-27,-62c0,0,-18,-29,-32,-46c0,0,-14,-17,-37,-35c0,0,-22,-17,-36,-25c0,0,-13,-8,-36,-20L767,53V0Z" 
id="f1_q"
transform="scale(0.001,-0.001)" />

<path d="M139,0V138c0,0,0,61,8,112c0,0,7,52,19,87c0,0,11,36,30,66c0,0,19,31,35,49c0,0,17,19,41,35c0,0,25,17,41,25c0,0,17,7,40,17L141,836H303L613,388c0,0,20,10,33,18c0,0,13,8,34,28c0,0,20,20,33,44c0,0,13,25,22,66c0,0,10,41,10,92V836H882V698c0,0,0,-61,-7,-112c0,0,-6,-52,-18,-88c0,0,-12,-36,-30,-66c0,0,-19,-30,-36,-49c0,0,-17,-18,-41,-34c0,0,-24,-17,-40,-25c0,0,-17,-8,-41,-17L882,0H720L409,448c0,0,-21,-11,-34,-19c0,0,-13,-8,-34,-27c0,0,-21,-20,-34,-44c0,0,-12,-25,-22,-66c0,0,-9,-41,-9,-92V0Z" 
id="f1_e"
transform="scale(0.001,-0.001)" />

<path d="M62,0L176,649L88,668l6,33H301L278,543c0,0,55,84,124,130c0,0,69,47,138,47c0,0,37,0,59,-6L566,530H534l-28,95c0,0,-60,0,-124,-46c0,0,-63,-45,-116,-120L186,0Z" 
id="f3_5"
transform="scale(0.001,-0.001)" />

<path d="M325,47c0,0,68,0,130,54c0,0,61,55,97,149c0,0,36,94,36,202c0,0,0,103,-39,156c0,0,-39,53,-113,53c0,0,-67,0,-128,-54c0,0,-61,-55,-96,-149c0,0,-35,-94,-35,-204c0,0,0,-101,39,-154c0,0,39,-53,109,-53Zm-6,-61c0,0,-124,0,-199,79c0,0,-74,79,-74,214c0,0,0,120,51,222c0,0,51,102,143,160c0,0,91,59,205,59c0,0,124,0,199,-80c0,0,74,-79,74,-214c0,0,0,-120,-51,-222C667,204,615,102,524,43c0,0,-91,-57,-205,-57Z" 
id="f3_c"
transform="scale(0.001,-0.001)" />

<path d="M200,-14c0,0,-59,0,-93,35c0,0,-34,36,-34,100c0,0,0,22,4,51c0,0,4,30,82,467H67l6,33l99,29L275,860h47L295,701H455L443,639H283L210,230c0,0,-13,-69,-13,-99c0,0,0,-34,17,-51c0,0,17,-16,43,-16c0,0,54,0,113,21L386,50c0,0,-92,-64,-186,-64Z" 
id="f3_4"
transform="scale(0.001,-0.001)" />

<path d="M301,78c0,0,85,0,185,104l81,442c0,0,-29,20,-55,28c0,0,-25,8,-62,8c0,0,-75,0,-137,-56c0,0,-62,-56,-98,-152c0,0,-36,-95,-36,-199c0,0,0,-79,33,-127c0,0,33,-48,89,-48ZM245,-14c0,0,-90,0,-145,66c0,0,-54,66,-54,182c0,0,0,131,57,244c0,0,57,114,152,178c0,0,96,64,208,64c0,0,90,0,170,-33l33,26h40L589,52L673,33L667,0H454l22,117C476,117,350,-14,245,-14Z" 
id="f3_6"
transform="scale(0.001,-0.001)" />

<path d="M228,-14c0,0,-103,0,-209,46L49,200H83L95,99c0,0,20,-21,55,-38c0,0,36,-16,81,-16c0,0,163,0,163,133c0,0,0,44,-35,78c0,0,-34,34,-113,72c0,0,-75,37,-112,81c0,0,-36,45,-36,104c0,0,0,99,66,153c0,0,67,54,184,54c0,0,85,0,200,-26L521,538H486l-11,80c0,0,-47,42,-124,42c0,0,-61,0,-97,-28c0,0,-37,-28,-37,-87c0,0,0,-40,31,-71c0,0,32,-30,119,-75c0,0,78,-40,113,-86c0,0,36,-47,36,-107c0,0,0,-113,-71,-167c0,0,-72,-53,-217,-53Z" 
id="f3_7"
transform="scale(0.001,-0.001)" />

<path d="M585,0l83,425c0,0,10,55,11,99c0,0,1,44,-11,83c0,0,-12,39,-36,65c0,0,-25,26,-69,42c0,0,-44,15,-105,15H207l21,107H478c0,0,94,0,161,-20c0,0,67,-20,106,-55c0,0,39,-34,58,-87c0,0,18,-53,18,-113c0,0,0,-60,-15,-136L724,0Z" 
id="f4_g"
transform="scale(0.001,-0.001)" />

<path d="M139,0L301,836H440L278,0Z" 
id="f4_9"
transform="scale(0.001,-0.001)" />

<path d="M66,0L87,107H576l67,345c0,0,10,56,14,93c0,0,3,37,-4,75c0,0,-7,38,-28,60c0,0,-21,21,-64,35c0,0,-43,14,-107,14H207l21,107H474c0,0,92,0,155,-18c0,0,63,-17,99,-49c0,0,37,-31,53,-83c0,0,16,-52,14,-114c0,0,-2,-62,-18,-147L715,107H838L818,0Z" 
id="f4_i"
transform="scale(0.001,-0.001)" />

<path d="M181,0l47,836H366L344,442c0,0,36,1,65,7c0,0,29,5,52,18c0,0,24,12,41,25c0,0,18,13,33,37c0,0,16,24,26,44c0,0,10,19,22,54c0,0,12,35,21,60c0,0,8,26,21,71c0,0,14,45,25,78H773c0,0,-52,-194,-84,-271c0,0,-56,-128,-147,-179c0,0,-79,-46,-205,-50L325,107c0,0,73,0,131,5c0,0,57,6,114,21c0,0,57,15,102,40c0,0,46,25,90,64c0,0,44,39,81,93c0,0,36,55,71,128c0,0,36,74,66,167c0,0,31,93,61,211h138c0,0,-38,-124,-72,-218c0,0,-34,-94,-73,-179c0,0,-39,-85,-79,-146c0,0,-40,-61,-89,-112c0,0,-48,-51,-103,-84C763,97,709,65,640,42C640,42,572,19,495,10C495,10,417,0,321,0Z" 
id="f4_j"
transform="scale(0.001,-0.001)" />

<path d="M280,0L660,987H125v127H841v-64L437,0Z" 
id="f1_1d"
transform="scale(0.001,-0.001)" />

<path d="M532,159c0,0,79,0,122,44c0,0,42,44,42,126c0,0,0,82,-42,126c0,0,-43,44,-122,44c0,0,-81,0,-124,-44c0,0,-43,-44,-43,-126c0,0,0,-82,43,-126c0,0,43,-44,124,-44Zm0,520c0,0,67,0,104,35c0,0,37,36,37,102c0,0,0,67,-37,102c0,0,-37,35,-104,35c0,0,-69,0,-106,-35c0,0,-37,-36,-37,-102c0,0,0,-66,37,-102c0,0,37,-35,106,-35Zm0,-699c0,0,-218,0,-328,83C204,63,93,148,93,314c0,0,0,107,58,178c0,0,58,70,171,101c0,0,-102,31,-153,94c0,0,-52,64,-52,159c0,0,0,141,106,214c0,0,105,74,309,74c0,0,202,0,307,-73c0,0,106,-74,106,-215c0,0,0,-95,-52,-159c0,0,-52,-63,-154,-94c0,0,113,-31,171,-101c0,0,58,-71,58,-178c0,0,0,-166,-110,-251c0,0,-110,-83,-326,-83Z" 
id="f2_z"
transform="scale(0.001,-0.001)" />

<path d="M522,-20c0,0,-196,0,-290,99c0,0,-94,100,-94,324V836H276V397c0,0,0,-86,16,-147c0,0,17,-60,50,-94c0,0,34,-34,77,-49c0,0,43,-15,103,-15c0,0,59,0,102,15c0,0,44,15,77,49c0,0,33,34,50,94c0,0,17,61,17,147c0,0,0,84,-8,143c0,0,-7,58,-25,105c0,0,-17,47,-51,69c0,0,-33,23,-83,23c0,0,-50,0,-119,-22V821c0,0,85,23,150,23c0,0,76,0,130,-30c0,0,53,-31,85,-90c0,0,31,-59,45,-138c0,0,13,-78,13,-183c0,0,0,-224,-93,-324c0,0,-94,-99,-290,-99Z" 
id="f1_p"
transform="scale(0.001,-0.001)" />

<path d="M114,0l60,312c0,0,2,12,8,39c0,0,6,27,7,37c0,0,2,11,5,30c0,0,2,19,4,33c0,0,1,15,1,31c0,0,0,48,-35,146c0,0,-35,98,-98,208H228c0,0,3,-8,27,-67c0,0,25,-58,41,-117c0,0,21,53,50,90c0,0,29,37,57,57c0,0,29,21,65,32c0,0,37,11,65,14c0,0,28,3,67,3c0,0,300,0,300,-396V0H480V106H761V452c0,0,0,146,-46,215c0,0,-45,70,-118,70c0,0,-134,0,-198,-119c0,0,-36,-68,-67,-222c0,0,-2,-10,-6,-27L253,0Z" 
id="f1_m"
transform="scale(0.001,-0.001)" />

<path d="M139,-317V836H278V-317Z" 
id="f1_r"
transform="scale(0.001,-0.001)" />

<path d="M522,92c0,0,247,0,247,333c0,0,0,88,-17,146c0,0,-17,58,-53,91c0,0,-35,33,-82,46c0,0,-48,14,-116,14H276V419c0,0,0,-327,246,-327Zm0,-112c0,0,-193,0,-289,109c0,0,-95,110,-95,337V836H501c0,0,213,0,309,-93c0,0,96,-94,96,-317c0,0,0,-227,-95,-337C811,89,715,-20,522,-20Z" 
id="f1_i"
transform="scale(0.001,-0.001)" />

<path d="M163,0V190H321V0Z" 
id="f1_g"
transform="scale(0.001,-0.001)" />

<path d="M71,-141V-15L289,62L66,836H210L416,109c0,0,99,42,153,98c0,0,53,56,80,155c0,0,26,98,26,262V836H817V624c0,0,0,-88,-7,-154c0,0,-7,-67,-25,-132c0,0,-18,-66,-51,-116c0,0,-33,-51,-84,-98c0,0,-50,-48,-123,-87c0,0,-72,-39,-169,-74L71,-141Z" 
id="f1_k"
transform="scale(0.001,-0.001)" />

<path d="M291,0V190H443V0Zm5,299V414c0,0,0,75,21,124c0,0,21,48,88,113l67,66c0,0,42,40,61,75c0,0,19,35,19,71c0,0,0,67,-48,108c0,0,-49,41,-130,41c0,0,-59,0,-125,-26c0,0,-67,-26,-139,-77v140c0,0,70,43,142,64c0,0,72,21,148,21c0,0,138,0,221,-72c0,0,83,-73,83,-191c0,0,0,-57,-27,-108c0,0,-27,-51,-94,-115L517,583c0,0,-34,-35,-49,-54c0,0,-14,-20,-20,-39c0,0,-5,-16,-7,-38c0,0,-2,-22,-2,-61V299Z" 
id="f1_18"
transform="scale(0.001,-0.001)" />

<path d="M486,98c0,0,107,0,169,58c0,0,62,57,62,157c0,0,0,101,-62,159c0,0,-61,57,-169,57c0,0,-108,0,-169,-57c0,0,-62,-58,-62,-159c0,0,0,-100,62,-158c0,0,61,-57,169,-57Zm-1,549c0,0,97,0,152,49c0,0,54,48,54,135c0,0,0,87,-54,135c0,0,-55,49,-152,49c0,0,-97,0,-151,-49c0,0,-54,-48,-54,-135c0,0,0,-87,54,-135c0,0,54,-49,151,-49Zm0,-667c0,0,-184,0,-283,85c0,0,-98,86,-98,248c0,0,0,107,61,181c0,0,61,74,170,99c0,0,-97,24,-151,90c0,0,-54,67,-54,162c0,0,0,134,95,212c0,0,95,77,260,77c0,0,167,0,261,-77c0,0,95,-78,95,-212c0,0,0,-95,-54,-162c0,0,-54,-66,-151,-90c0,0,109,-25,170,-99c0,0,61,-74,61,-181c0,0,0,-162,-99,-248c0,0,-98,-85,-283,-85Z" 
id="f1_1e"
transform="scale(0.001,-0.001)" />

<path d="M721,-14c0,0,-12,0,-12,9l4,28c0,0,17,82,17,338c0,0,0,105,-11,163c0,0,-11,58,-35,84c0,0,-25,26,-83,26H315c0,0,-43,-39,-67,-90c0,0,-25,-51,-25,-104c0,0,0,-59,17,-104c0,0,17,-45,35,-78c0,0,18,-34,18,-44c0,0,0,-26,-20,-95C273,119,252,50,231,0H26L87,214h69c0,0,23,0,23,14l-7,15c0,0,-15,27,-27,68c0,0,-11,41,-11,83c0,0,0,68,25,124c0,0,25,57,86,116H200c0,0,-45,0,-71,32c0,0,-27,33,-27,94c0,0,0,49,17,93c0,0,16,43,32,43c0,0,17,0,17,-10V869c0,0,0,-24,27,-24H637c0,0,73,0,103,-18c0,0,30,-17,46,-62c0,0,17,-46,24,-124c0,0,8,-78,8,-214V338c0,0,0,-279,-27,-311c0,0,-14,-16,-37,-28c0,0,-23,-13,-33,-13Z" 
id="f5_j"
transform="scale(0.001,-0.001)" />

<path d="M38,0L93,212H220c0,0,4,8,7,28c0,0,4,20,4,39c0,0,0,29,-13,61c0,0,-13,31,-29,65c0,0,-15,34,-28,72c0,0,-13,38,-13,81c0,0,0,29,10,54c0,0,9,25,30,60c0,0,-48,0,-68,11c0,0,-19,11,-30,36c0,0,-11,25,-11,71c0,0,0,30,9,54c0,0,8,25,22,40c0,0,14,15,24,15c0,0,17,0,17,-12V875c0,0,0,-30,41,-30h53c0,0,44,0,61,-10c0,0,17,-10,26,-34c0,0,9,-23,9,-67c0,0,0,-38,-6,-57c0,0,-6,-20,-13,-20c0,0,-6,0,-13,4c0,0,-3,4,-17,7c0,0,-14,2,-26,2c0,0,-34,0,-34,-45c0,0,0,-12,9,-34c0,0,8,-22,55,-116c0,0,46,-86,46,-143c0,0,0,-15,-8,-35c0,0,-9,-20,-50,-85H598c0,0,17,0,17,12c0,0,0,19,-6,53c0,0,-5,34,-5,74c0,0,0,80,58,228c0,0,18,46,18,56c0,0,0,15,-12,26c0,0,-12,11,-38,11H602c0,0,-43,0,-62,25c0,0,-19,25,-19,78c0,0,0,47,14,86c0,0,15,38,33,38c0,0,15,0,15,-15V867c0,0,0,-22,31,-22h55c0,0,51,0,78,-20c0,0,27,-20,27,-57c0,0,0,-46,-28,-147c0,0,-40,-145,-40,-253c0,0,0,-33,6,-63c0,0,6,-30,14,-54c0,0,8,-24,14,-42c0,0,7,-19,7,-30c0,0,0,-39,-14,-88C733,91,720,42,701,0Z" 
id="f5_p"
transform="scale(0.001,-0.001)" />

<path d="M22,0L76,212H399c0,0,67,0,105,25c0,0,38,24,56,77c0,0,19,53,19,132c0,0,0,97,-40,142c0,0,-39,46,-122,46H131c0,0,-46,0,-69,32c0,0,-24,33,-24,93c0,0,0,33,7,66c0,0,8,33,20,53c0,0,11,20,21,20c0,0,16,0,16,-14V870c0,0,0,-25,34,-25H460c0,0,62,0,95,-17c0,0,32,-17,58,-66c0,0,26,-48,39,-125c0,0,14,-77,14,-158c0,0,0,-299,-116,-479Z" 
id="f5_14"
transform="scale(0.001,-0.001)" />

<path d="M469,-18c0,0,-14,0,-14,15l2,7c0,0,20,43,20,158l-3,156l-2,119c0,0,0,65,19,109c0,0,19,44,60,88H110c0,0,-47,0,-69,34c0,0,-22,35,-22,109c0,0,0,50,16,85c0,0,16,36,35,36c0,0,14,0,14,-12L83,869c0,0,0,-13,7,-19c0,0,6,-5,23,-5H608c0,0,25,0,40,-14c0,0,15,-15,15,-38V686c0,0,0,-26,-4,-35c0,0,-3,-9,-11,-11c0,0,-42,-9,-56,-40c0,0,-15,-30,-15,-93c0,0,0,-56,12,-184c0,0,10,-129,10,-224c0,0,0,-24,-6,-37c0,0,-7,-13,-17,-25c0,0,-7,-6,-18,-12c0,0,-11,-7,-23,-13C535,12,523,5,512,0c0,0,-10,-5,-15,-8c0,0,-22,-10,-28,-10Z" 
id="f5_q"
transform="scale(0.001,-0.001)" />

<path d="M102,-3c0,0,-26,0,-26,31c0,0,0,176,35,320c0,0,34,145,102,247c0,0,3,4,3,25c0,0,0,24,-19,37c0,0,-19,13,-79,15c0,0,-40,0,-61,35c0,0,-22,35,-22,95c0,0,0,39,14,67c0,0,14,29,32,29c0,0,20,0,20,-25c0,0,0,-28,32,-28h33c0,0,54,0,85,-25c0,0,30,-25,30,-68l-3,-52c0,0,0,-22,3,-31c0,0,76,71,104,109c0,0,29,37,36,75c0,0,55,7,82,7c0,0,154,0,239,-126c0,0,85,-127,85,-352c0,0,0,-99,-15,-200C812,182,798,81,774,0H335l42,214H652c0,0,25,0,37,5c0,0,11,4,21,18c0,0,10,14,17,36c0,0,7,22,12,56c0,0,5,34,5,64c0,0,0,247,-241,247c0,0,-337,0,-337,-609c0,0,0,-20,-5,-27c0,0,-6,-7,-22,-7Z" 
id="f5_z"
transform="scale(0.001,-0.001)" />

<path d="M204,-8c0,0,-9,0,-11,5c0,0,-2,5,-2,22V549c0,0,0,40,-4,56c0,0,-4,16,-15,22c0,0,-10,7,-39,7H90c0,0,-33,0,-52,33c0,0,-19,33,-19,90c0,0,0,53,15,98c0,0,16,44,35,44c0,0,12,0,12,-13V872c0,0,0,-27,31,-27h42c0,0,79,0,103,-20c0,0,23,-19,23,-83V67c0,0,0,-16,-8,-26c0,0,-9,-10,-33,-30c0,0,-25,-19,-35,-19Z" 
id="f5_3"
transform="scale(0.001,-0.001)" />

<path d="M107,-18c0,0,-17,0,-17,18l3,9c0,0,23,48,23,124l-1,177c0,0,0,55,8,77c0,0,9,22,33,46c0,0,23,23,51,40c0,0,28,17,42,17c0,0,5,0,9,-3c0,0,5,-3,5,-8c0,0,0,-3,-11,-26c0,0,-14,-49,-14,-120l4,-223c0,0,0,-38,-9,-54c0,0,-8,-17,-32,-34C201,22,178,6,150,-5c0,0,-28,-13,-43,-13Zm547,0c0,0,-17,0,-17,18l2,10c0,0,10,38,10,109c0,0,0,79,-14,208c0,0,-15,128,-15,149c0,0,0,54,16,89c0,0,15,36,53,69H154c0,0,-35,0,-57,40c0,0,-21,40,-21,103c0,0,0,33,8,61c0,0,7,28,19,44c0,0,13,17,24,17c0,0,15,0,15,-13V869c0,0,0,-13,5,-19c0,0,5,-5,22,-5H718c0,0,50,0,50,-63V652c0,0,0,-21,-15,-30c0,0,-35,-24,-35,-77c0,0,0,-57,20,-169c0,0,27,-157,27,-272c0,0,0,-29,-6,-44c0,0,-6,-15,-17,-26c0,0,-12,-16,-47,-35L681,-9l-13,-6l-14,-3Z" 
id="f5_6"
transform="scale(0.001,-0.001)" />

<path d="M787,-20c0,0,-16,0,-25,16c0,0,-7,18,-31,51c0,0,-23,32,-53,62L293,522c0,0,-42,-34,-60,-62c0,0,-17,-28,-17,-68c0,0,0,-38,20,-77c0,0,21,-38,68,-90c0,0,48,-52,68,-88c0,0,20,-36,20,-68c0,0,0,-38,-22,-69H70V63h80c0,0,31,0,31,35c0,0,0,18,-14,41c0,0,-14,24,-31,53c0,0,-17,30,-30,68c0,0,-14,38,-14,87c0,0,0,59,33,109c0,0,34,50,103,98l21,16l-96,96c0,0,-24,24,-36,42c0,0,-12,19,-12,41c0,0,0,26,21,61c0,0,22,36,53,65c0,0,31,29,46,29c0,0,13,0,24,-15c0,0,21,-34,56,-78c0,0,34,-44,65,-77L570,517c0,0,72,100,180,158c0,0,-38,0,-60,33c0,0,-21,33,-21,95c0,0,0,38,18,66c0,0,19,29,40,29c0,0,5,0,6,-4c0,0,0,-4,0,-17c0,0,0,-34,46,-34l69,2c0,0,40,0,63,-26c0,0,22,-25,22,-67c0,0,0,-27,-5,-60c0,0,-6,-34,-14,-45c0,0,-15,15,-24,20c0,0,-9,5,-19,5c0,0,-35,0,-118,-65c0,0,-82,-64,-122,-158L833,259c0,0,49,-47,63,-71c0,0,13,-24,13,-50c0,0,0,-21,-24,-62C885,76,860,35,832,7c0,0,-29,-27,-45,-27Z" 
id="f5_1b"
transform="scale(0.001,-0.001)" />

<path d="M46,0l55,212H483c0,0,68,0,105,25c0,0,38,25,57,78c0,0,18,52,18,131c0,0,0,97,-39,142c0,0,-40,46,-123,46H275c0,0,-25,-15,-40,-35c0,0,-15,-20,-15,-32c0,0,0,-25,37,-25l49,-1c0,0,42,0,67,-26c0,0,26,-26,26,-72c0,0,0,-68,-17,-118c0,0,-18,-50,-41,-50c0,0,-19,0,-19,18c0,0,0,34,-14,51c0,0,-13,16,-54,16c0,0,-38,0,-57,-11c0,0,-19,-11,-26,-43c0,0,-3,-22,-18,-22c0,0,-22,0,-34,37c0,0,-12,38,-12,102c0,0,0,128,78,211H163c0,0,-33,0,-52,34c0,0,-19,35,-19,91c0,0,0,50,15,94c0,0,16,45,32,45c0,0,17,0,17,-14V870c0,0,0,-25,33,-25H544c0,0,62,0,95,-17c0,0,32,-17,58,-66c0,0,26,-48,40,-125c0,0,13,-77,13,-158c0,0,0,-296,-116,-479Z" 
id="f5_5"
transform="scale(0.001,-0.001)" />

<path d="M131,353c0,0,-3,0,-6,2c0,0,-3,2,-16,20c0,0,-13,17,-13,28c0,0,0,5,8,9c0,0,45,26,84,67c0,0,38,41,38,85c0,0,0,28,-7,43c0,0,-7,15,-24,21c0,0,-17,6,-61,6H124c0,0,-38,0,-62,34c0,0,-24,35,-24,107c0,0,0,52,16,87c0,0,17,34,38,34c0,0,16,0,16,-12V870c0,0,0,-25,26,-25h63c0,0,29,0,53,-4c0,0,23,-4,39,-23c0,0,17,-19,26,-59c0,0,9,-40,9,-113c0,0,0,-76,-15,-124c0,0,-15,-47,-51,-83c0,0,-35,-36,-74,-61c0,0,-39,-25,-53,-25Z" 
id="f5_n"
transform="scale(0.001,-0.001)" />

<path d="M354,-200c0,0,-112,175,-167,343c0,0,-56,170,-56,337c0,0,0,166,55,335c0,0,55,169,168,345H473c0,0,-100,-172,-148,-340c0,0,-48,-168,-48,-340c0,0,0,-173,48,-342c0,0,49,-168,148,-338Z" 
id="f1_x"
transform="scale(0.001,-0.001)" />

<path d="M122,-200c0,0,99,170,148,338c0,0,49,169,49,342c0,0,0,172,-49,340c0,0,-49,168,-148,340H241c0,0,112,-176,168,-345c0,0,55,-169,55,-335c0,0,0,-167,-55,-337c0,0,-56,-168,-168,-343Z" 
id="f1_w"
transform="scale(0.001,-0.001)" />

<path d="M700,-317V454c0,0,0,155,-54,215c0,0,-54,60,-180,60H277V551c0,0,0,-55,26,-80c0,0,27,-26,82,-26c0,0,30,0,80,10V341c0,0,-61,-11,-111,-11c0,0,-100,0,-157,55c0,0,-58,55,-58,186V836H466c0,0,203,0,288,-91c0,0,85,-92,85,-293V-317Z" 
id="f1_t"
transform="scale(0.001,-0.001)" />


</defs>
</svg>