<?xml version="1.0" encoding="UTF-8" standalone="no"?>
<!DOCTYPE svg PUBLIC "-//W3C//DTD SVG 1.1//EN"
"http://www.w3.org/Graphics/SVG/1.1/DTD/svg11.dtd">
<svg viewBox="0 0 909 1286" version="1.1" xmlns="http://www.w3.org/2000/svg" xmlns:xlink="http://www.w3.org/1999/xlink">
<defs>
<clipPath id="c0_3"><path d="M0,1286.2V0H909.4V1286.2Z" /></clipPath>
<style type="text/css"><![CDATA[
.g0_3{
fill: none;
stroke: #000000;
stroke-width: 1.1458334;
stroke-linecap: butt;
stroke-linejoin: round;
}
]]></style>
</defs>
<path d="M140.9,110.6H728.8M140.9,133.2H728.8M140.9,155.7H728.8M140.9,178.3H728.8M140.9,200.8H728.8M141.5,110v91.3M282.3,110v91.3M390.7,110v91.3M542.2,110v91.3M728.1,110v91.3" class="g0_3" />
<g clip-path="url(#c0_3)">
<g fill="#000000" >
<use xlink:href="#f0_8" transform="matrix(12,0,0,12,629.6,128.2)" />
<use xlink:href="#f0_4" transform="matrix(12,0,0,12,641.7,128.2)" />
<use xlink:href="#f0_6" transform="matrix(12,0,0,12,645.8,128.2)" />
<use xlink:href="#f0_a" transform="matrix(12,0,0,12,653.1,128.2)" />
<use xlink:href="#f0_3" transform="matrix(12,0,0,12,658.1,128.2)" />
<use xlink:href="#f0_4" transform="matrix(12,0,0,12,668.5,128.2)" />
<use xlink:href="#f0_a" transform="matrix(12,0,0,12,672.5,128.2)" />
<use xlink:href="#f0_q" transform="matrix(12,0,0,12,677.5,128.2)" />
<use xlink:href="#f0_a" transform="matrix(12,0,0,12,695.5,128.2)" />
<use xlink:href="#f0_q" transform="matrix(12,0,0,12,700.6,128.2)" />
<use xlink:href="#f0_10" transform="matrix(12,0,0,12,712.8,128.2)" />
<use xlink:href="#f1_n" transform="matrix(12,0,0,12,568.8,128.2)" />
<use xlink:href="#f1_9" transform="matrix(12,0,0,12,581.6,128.2)" />
<use xlink:href="#f1_b" transform="matrix(12,0,0,12,587,128.2)" />
<use xlink:href="#f1_p" transform="matrix(12,0,0,12,597.8,128.2)" />
<use xlink:href="#f1_d" transform="matrix(12,0,0,12,610.3,128.2)" />
<use xlink:href="#f0_11" transform="matrix(12,0,0,12,561.5,128.2)" />
<use xlink:href="#f1_l" transform="matrix(12,0,0,12,683.8,150.8)" />
<use xlink:href="#f1_j" transform="matrix(12,0,0,12,696.4,150.8)" />
<use xlink:href="#f1_o" transform="matrix(12,0,0,12,709.6,150.8)" />
<use xlink:href="#f0_11" transform="matrix(12,0,0,12,568.3,150.8)" />
<use xlink:href="#f0_r" transform="matrix(12,0,0,12,575.5,150.8)" />
<use xlink:href="#f0_a" transform="matrix(12,0,0,12,587.4,150.8)" />
<use xlink:href="#f0_b" transform="matrix(12,0,0,12,592.4,150.8)" />
<use xlink:href="#f0_c" transform="matrix(12,0,0,12,602.5,150.8)" />
<use xlink:href="#f0_q" transform="matrix(12,0,0,12,614.4,150.8)" />
<use xlink:href="#f0_10" transform="matrix(12,0,0,12,626.7,150.8)" />
<use xlink:href="#f0_8" transform="matrix(12,0,0,12,639.6,150.8)" />
<use xlink:href="#f0_4" transform="matrix(12,0,0,12,651.8,150.8)" />
<use xlink:href="#f0_3" transform="matrix(12,0,0,12,655.9,150.8)" />
<use xlink:href="#f0_m" transform="matrix(12,0,0,12,666.3,150.8)" />
<use xlink:href="#f0_l" transform="matrix(12,0,0,12,438.8,150.8)" />
<use xlink:href="#f0_16" transform="matrix(12,0,0,12,451.4,150.8)" />
<use xlink:href="#f0_b" transform="matrix(12,0,0,12,450.5,150.8)" />
<use xlink:href="#f0_12" transform="matrix(12,0,0,12,461.5,150.8)" />
<use xlink:href="#f0_b" transform="matrix(12,0,0,12,460.6,150.8)" />
<use xlink:href="#f0_13" transform="matrix(12,0,0,12,465.1,148.7)" />
<use xlink:href="#f0_a" transform="matrix(12,0,0,12,470.6,150.8)" />
<use xlink:href="#f0_4" transform="matrix(12,0,0,12,475.6,150.8)" />
<use xlink:href="#f0_17" transform="matrix(12,0,0,12,480.9,150.8)" />
<use xlink:href="#f0_l" transform="matrix(12,0,0,12,479.7,150.8)" />
<use xlink:href="#f0_l" transform="matrix(12,0,0,12,497.4,150.8)" />
<use xlink:href="#f0_12" transform="matrix(12,0,0,12,507.3,150.8)" />
<use xlink:href="#f0_6" transform="matrix(12,0,0,12,509.3,150.8)" />
<use xlink:href="#f0_13" transform="matrix(12,0,0,12,511.2,148.7)" />
<use xlink:href="#f0_a" transform="matrix(12,0,0,12,516.7,150.8)" />
<use xlink:href="#f0_q" transform="matrix(12,0,0,12,521.7,150.8)" />
<use xlink:href="#f2_a" transform="matrix(11,0,0,11,291.2,149.4)" />
<use xlink:href="#f2_b" transform="matrix(11,0,0,11,300.5,149.4)" />
<use xlink:href="#f2_d" transform="matrix(11,0,0,11,309.8,149.4)" />
<use xlink:href="#f3_l" transform="matrix(11,0,0,11,322.5,149.4)" />
<use xlink:href="#f3_4" transform="matrix(11,0,0,11,330,149.4)" />
<use xlink:href="#f3_k" transform="matrix(11,0,0,11,334.7,149.4)" />
<use xlink:href="#f3_n" transform="matrix(11,0,0,11,343.1,149.4)" />
<use xlink:href="#f3_2" transform="matrix(11,0,0,11,351.5,149.4)" />
<use xlink:href="#f3_n" transform="matrix(11,0,0,11,359,149.4)" />
<use xlink:href="#f2_a" transform="matrix(11,0,0,11,150.3,149.4)" />
<use xlink:href="#f2_b" transform="matrix(11,0,0,11,159.7,149.4)" />
<use xlink:href="#f2_d" transform="matrix(11,0,0,11,169,149.4)" />
<use xlink:href="#f2_n" transform="matrix(11,0,0,11,177.4,149.4)" />
<use xlink:href="#f3_l" transform="matrix(11,0,0,11,188.2,149.4)" />
<use xlink:href="#f3_4" transform="matrix(11,0,0,11,195.5,149.4)" />
<use xlink:href="#f3_k" transform="matrix(11,0,0,11,200.3,149.4)" />
<use xlink:href="#f3_n" transform="matrix(11,0,0,11,208.7,149.4)" />
<use xlink:href="#f3_2" transform="matrix(11,0,0,11,217.1,149.4)" />
<use xlink:href="#f3_n" transform="matrix(11,0,0,11,224.5,149.4)" />
<use xlink:href="#f2_k" transform="matrix(11,0,0,11,233,149.4)" />
<use xlink:href="#f2_n" transform="matrix(11,0,0,11,240.4,149.4)" />
<use xlink:href="#f1_l" transform="matrix(12,0,0,12,707.5,173.3)" />
<use xlink:href="#f0_r" transform="matrix(12,0,0,12,661.2,173.3)" />
<use xlink:href="#f0_a" transform="matrix(12,0,0,12,673.3,173.3)" />
<use xlink:href="#f0_c" transform="matrix(12,0,0,12,678.3,173.3)" />
<use xlink:href="#f0_4" transform="matrix(12,0,0,12,690.2,173.3)" />
<use xlink:href="#f0_n" transform="matrix(12,0,0,12,694.3,173.3)" />
<use xlink:href="#f0_l" transform="matrix(12,0,0,12,467.3,173.3)" />
<use xlink:href="#f0_12" transform="matrix(12,0,0,12,480.2,173.3)" />
<use xlink:href="#f0_b" transform="matrix(12,0,0,12,479.2,173.3)" />
<use xlink:href="#f0_12" transform="matrix(12,0,0,12,490.2,173.3)" />
<use xlink:href="#f0_g" transform="matrix(12,0,0,12,489.2,173.3)" />
<use xlink:href="#f0_12" transform="matrix(12,0,0,12,497.9,173.3)" />
<use xlink:href="#f0_4" transform="matrix(12,0,0,12,501.7,173.3)" />
<use xlink:href="#f0_l" transform="matrix(12,0,0,12,511.6,173.3)" />
<use xlink:href="#f0_12" transform="matrix(12,0,0,12,522,173.3)" />
<use xlink:href="#f0_f" transform="matrix(12,0,0,12,523.5,173.3)" />
<use xlink:href="#f2_o" transform="matrix(11,0,0,11,291.2,171.9)" />
<use xlink:href="#f2_d" transform="matrix(11,0,0,11,295.9,171.9)" />
<use xlink:href="#f3_e" transform="matrix(11,0,0,11,308.5,171.9)" />
<use xlink:href="#f3_e" transform="matrix(11,0,0,11,313.2,171.9)" />
<use xlink:href="#f3_2" transform="matrix(11,0,0,11,317.8,171.9)" />
<use xlink:href="#f3_m" transform="matrix(11,0,0,11,325.2,171.9)" />
<use xlink:href="#f3_2" transform="matrix(11,0,0,11,338.3,171.9)" />
<use xlink:href="#f3_n" transform="matrix(11,0,0,11,345.8,171.9)" />
<use xlink:href="#f3_2" transform="matrix(11,0,0,11,354.2,171.9)" />
<use xlink:href="#f2_o" transform="matrix(11,0,0,11,150.3,171.9)" />
<use xlink:href="#f2_d" transform="matrix(11,0,0,11,155.1,171.9)" />
<use xlink:href="#f2_n" transform="matrix(11,0,0,11,163.5,171.9)" />
<use xlink:href="#f3_e" transform="matrix(11,0,0,11,174.2,171.9)" />
<use xlink:href="#f3_e" transform="matrix(11,0,0,11,178.9,171.9)" />
<use xlink:href="#f3_2" transform="matrix(11,0,0,11,183.5,171.9)" />
<use xlink:href="#f3_m" transform="matrix(11,0,0,11,190.9,171.9)" />
<use xlink:href="#f3_2" transform="matrix(11,0,0,11,204.1,171.9)" />
<use xlink:href="#f3_n" transform="matrix(11,0,0,11,211.5,171.9)" />
<use xlink:href="#f3_2" transform="matrix(11,0,0,11,219.9,171.9)" />
<use xlink:href="#f2_n" transform="matrix(11,0,0,11,227.5,171.9)" />
<use xlink:href="#f1_l" transform="matrix(12,0,0,12,707.5,195.9)" />
<use xlink:href="#f0_r" transform="matrix(12,0,0,12,650.4,195.9)" />
<use xlink:href="#f0_a" transform="matrix(12,0,0,12,662.4,195.9)" />
<use xlink:href="#f0_g" transform="matrix(12,0,0,12,667.4,195.9)" />
<use xlink:href="#f0_a" transform="matrix(12,0,0,12,679.9,195.9)" />
<use xlink:href="#f0_f" transform="matrix(12,0,0,12,685,195.9)" />
<use xlink:href="#f0_c" transform="matrix(12,0,0,12,695.4,195.9)" />
<use xlink:href="#f0_l" transform="matrix(12,0,0,12,443.4,195.9)" />
<use xlink:href="#f0_14" transform="matrix(12,0,0,12,455.3,195.9)" />
<use xlink:href="#f0_a" transform="matrix(12,0,0,12,455.3,195.9)" />
<use xlink:href="#f0_4" transform="matrix(12,0,0,12,460.2,195.9)" />
<use xlink:href="#f0_15" transform="matrix(12,0,0,12,462.3,195.9)" />
<use xlink:href="#f0_6" transform="matrix(12,0,0,12,464.3,195.9)" />
<use xlink:href="#f0_16" transform="matrix(12,0,0,12,472.3,195.9)" />
<use xlink:href="#f0_q" transform="matrix(12,0,0,12,471.6,195.9)" />
<use xlink:href="#f0_13" transform="matrix(12,0,0,12,478.3,193.7)" />
<use xlink:href="#f0_a" transform="matrix(12,0,0,12,483.8,195.9)" />
<use xlink:href="#f0_l" transform="matrix(12,0,0,12,488.9,195.9)" />
<use xlink:href="#f0_l" transform="matrix(12,0,0,12,506.6,195.9)" />
<use xlink:href="#f0_14" transform="matrix(12,0,0,12,518.5,195.9)" />
<use xlink:href="#f0_a" transform="matrix(12,0,0,12,518.5,195.9)" />
<use xlink:href="#f0_f" transform="matrix(12,0,0,12,523.5,195.9)" />
<use xlink:href="#f2_k" transform="matrix(11,0,0,11,291.2,194.5)" />
<use xlink:href="#f2_o" transform="matrix(11,0,0,11,298.7,194.5)" />
<use xlink:href="#f3_d" transform="matrix(11,0,0,11,307.5,194.5)" />
<use xlink:href="#f3_k" transform="matrix(11,0,0,11,314.1,194.5)" />
<use xlink:href="#f3_a" transform="matrix(11,0,0,11,322.5,194.5)" />
<use xlink:href="#f3_g" transform="matrix(11,0,0,11,330,194.5)" />
<use xlink:href="#f3_i" transform="matrix(11,0,0,11,338.4,194.5)" />
<use xlink:href="#f2_o" transform="matrix(11,0,0,11,150.3,194.5)" />
<use xlink:href="#f2_m" transform="matrix(11,0,0,11,155.1,194.5)" />
<use xlink:href="#f2_n" transform="matrix(11,0,0,11,163.5,194.5)" />
<use xlink:href="#f3_d" transform="matrix(11,0,0,11,174.2,194.5)" />
<use xlink:href="#f3_k" transform="matrix(11,0,0,11,180.7,194.5)" />
<use xlink:href="#f3_a" transform="matrix(11,0,0,11,189.1,194.5)" />
<use xlink:href="#f3_g" transform="matrix(11,0,0,11,196.6,194.5)" />
<use xlink:href="#f3_i" transform="matrix(11,0,0,11,205,194.5)" />
<use xlink:href="#f2_n" transform="matrix(11,0,0,11,213.4,194.5)" />
<use xlink:href="#f0_r" transform="matrix(12,0,0,12,535.3,237.7)" />
<use xlink:href="#f0_4" transform="matrix(12,0,0,12,547.4,237.7)" />
<use xlink:href="#f0_4" transform="matrix(12,0,0,12,551.5,237.7)" />
<use xlink:href="#f0_x" transform="matrix(12,0,0,12,555.6,237.7)" />
<use xlink:href="#f0_e" transform="matrix(12,0,0,12,567.5,237.7)" />
<use xlink:href="#f0_9" transform="matrix(12,0,0,12,579.4,237.7)" />
<use xlink:href="#f0_8" transform="matrix(12,0,0,12,595.8,237.7)" />
<use xlink:href="#f0_f" transform="matrix(12,0,0,12,608,237.7)" />
<use xlink:href="#f0_m" transform="matrix(12,0,0,12,618.4,237.7)" />
<use xlink:href="#f0_6" transform="matrix(12,0,0,12,629.8,237.7)" />
<use xlink:href="#f0_8" transform="matrix(12,0,0,12,643,237.7)" />
<use xlink:href="#f0_m" transform="matrix(12,0,0,12,655.2,237.7)" />
<use xlink:href="#f0_x" transform="matrix(12,0,0,12,666.6,237.7)" />
<use xlink:href="#f0_e" transform="matrix(12,0,0,12,678.5,237.7)" />
<use xlink:href="#f0_4" transform="matrix(12,0,0,12,696.4,237.7)" />
<use xlink:href="#f0_5" transform="matrix(12,0,0,12,700.5,237.7)" />
<use xlink:href="#f0_9" transform="matrix(12,0,0,12,716.1,237.7)" />
<use xlink:href="#f0_f" transform="matrix(12,0,0,12,726.6,237.7)" />
<use xlink:href="#f0_8" transform="matrix(12,0,0,12,742.8,237.7)" />
<use xlink:href="#f0_4" transform="matrix(12,0,0,12,754.9,237.7)" />
<use xlink:href="#f0_n" transform="matrix(12,0,0,12,759,237.7)" />
<use xlink:href="#f3_2" transform="matrix(11,0,0,11,491.9,237.7)" />
<use xlink:href="#f3_3" transform="matrix(11,0,0,11,499.4,237.7)" />
<use xlink:href="#f3_4" transform="matrix(11,0,0,11,507.7,237.7)" />
<use xlink:href="#f3_5" transform="matrix(11,0,0,11,512.4,237.7)" />
<use xlink:href="#f3_8" transform="matrix(11,0,0,11,520.8,237.7)" />
<use xlink:href="#f0_f" transform="matrix(12,0,0,12,475.9,237.7)" />
<use xlink:href="#f3_2" transform="matrix(11,0,0,11,418.5,237.7)" />
<use xlink:href="#f3_3" transform="matrix(11,0,0,11,425.9,237.7)" />
<use xlink:href="#f3_4" transform="matrix(11,0,0,11,434.3,237.7)" />
<use xlink:href="#f3_i" transform="matrix(11,0,0,11,439,237.7)" />
<use xlink:href="#f3_8" transform="matrix(11,0,0,11,447.4,237.7)" />
<use xlink:href="#f3_a" transform="matrix(11,0,0,11,455.9,237.7)" />
<use xlink:href="#f3_d" transform="matrix(11,0,0,11,463.2,237.7)" />
<use xlink:href="#f0_o" transform="matrix(12,0,0,12,160.6,237.7)" />
<use xlink:href="#f0_8" transform="matrix(12,0,0,12,166.4,237.7)" />
<use xlink:href="#f0_4" transform="matrix(12,0,0,12,178.6,237.7)" />
<use xlink:href="#f0_9" transform="matrix(12,0,0,12,182.7,237.7)" />
<use xlink:href="#f0_3" transform="matrix(12,0,0,12,193.2,237.7)" />
<use xlink:href="#f0_9" transform="matrix(12,0,0,12,203.6,237.7)" />
<use xlink:href="#f0_8" transform="matrix(12,0,0,12,220,237.7)" />
<use xlink:href="#f0_m" transform="matrix(12,0,0,12,232.2,237.7)" />
<use xlink:href="#f0_x" transform="matrix(12,0,0,12,243.6,237.7)" />
<use xlink:href="#f0_e" transform="matrix(12,0,0,12,255.5,237.7)" />
<use xlink:href="#f0_d" transform="matrix(12,0,0,12,273.3,237.7)" />
<use xlink:href="#f0_g" transform="matrix(12,0,0,12,278.3,237.7)" />
<use xlink:href="#f0_4" transform="matrix(12,0,0,12,290.7,237.7)" />
<use xlink:href="#f0_l" transform="matrix(12,0,0,12,294.8,237.7)" />
<use xlink:href="#f0_f" transform="matrix(12,0,0,12,312.5,237.7)" />
<use xlink:href="#f0_j" transform="matrix(12,0,0,12,322.9,237.7)" />
<use xlink:href="#f0_a" transform="matrix(12,0,0,12,334.3,237.7)" />
<use xlink:href="#f0_6" transform="matrix(12,0,0,12,339.3,237.7)" />
<use xlink:href="#f0_8" transform="matrix(12,0,0,12,352.5,237.7)" />
<use xlink:href="#f0_4" transform="matrix(12,0,0,12,364.7,237.7)" />
<use xlink:href="#f0_r" transform="matrix(12,0,0,12,368.7,237.7)" />
<use xlink:href="#f0_4" transform="matrix(12,0,0,12,380.7,237.7)" />
<use xlink:href="#f0_m" transform="matrix(12,0,0,12,384.8,237.7)" />
<use xlink:href="#f0_f" transform="matrix(12,0,0,12,396.3,237.7)" />
<use xlink:href="#f0_7" transform="matrix(12,0,0,12,412.6,237.7)" />
<use xlink:href="#f0_19" transform="matrix(12,0,0,12,137.7,1208.5)" />
</g>
</g>
<defs>
<path d="M736,107V473c0,0,0,147,-48,202c0,0,-49,54,-187,54H278V107ZM139,0V836H499c0,0,105,0,177,-22c0,0,72,-21,116,-69c0,0,44,-49,64,-119c0,0,19,-71,19,-174V0Z" 
id="f0_8"
transform="scale(0.001,-0.001)" />

<path d="M102,312V836H241V369L102,312Z" 
id="f0_4"
transform="scale(0.001,-0.001)" />

<path d="M66,0V107H332V555c0,0,0,92,-37,133c0,0,-37,41,-116,41H85V836h94c0,0,153,0,223,-66c0,0,69,-66,69,-231V0Z" 
id="f0_6"
transform="scale(0.001,-0.001)" />

<path d="M139,0V836H278V0Z" 
id="f0_a"
transform="scale(0.001,-0.001)" />

<path d="M585,0V426c0,0,0,54,-8,98c0,0,-8,44,-27,83c0,0,-19,40,-49,66c0,0,-30,26,-77,41c0,0,-47,15,-108,15H66V836H315c0,0,94,0,166,-20c0,0,71,-20,116,-54c0,0,46,-35,75,-88c0,0,28,-52,40,-112c0,0,12,-60,12,-137V0Z" 
id="f0_3"
transform="scale(0.001,-0.001)" />

<path d="M139,0V138c0,0,0,61,8,112c0,0,7,52,19,87c0,0,11,36,30,66c0,0,19,31,35,49c0,0,17,19,41,35c0,0,25,17,41,25c0,0,17,7,40,17L141,836H303L613,388c0,0,20,10,33,18c0,0,13,8,34,28c0,0,20,20,33,44c0,0,13,25,22,66c0,0,10,41,10,92V836H882V698c0,0,0,-61,-7,-112c0,0,-6,-52,-18,-88c0,0,-12,-36,-30,-66c0,0,-19,-30,-36,-49c0,0,-17,-18,-41,-34c0,0,-24,-17,-40,-25c0,0,-17,-8,-41,-17L882,0H720L409,448c0,0,-21,-11,-34,-19c0,0,-13,-8,-34,-27c0,0,-21,-20,-34,-44c0,0,-12,-25,-22,-66c0,0,-9,-41,-9,-92V0Z" 
id="f0_q"
transform="scale(0.001,-0.001)" />

<path d="M122,-200c0,0,99,170,148,338c0,0,49,169,49,342c0,0,0,172,-49,340c0,0,-49,168,-148,340H241c0,0,112,-176,168,-345c0,0,55,-169,55,-335c0,0,0,-167,-55,-337c0,0,-56,-168,-168,-343Z" 
id="f0_10"
transform="scale(0.001,-0.001)" />

<path d="M679,178V467c0,0,0,110,-32,150c0,0,-31,41,-120,41H385V178ZM139,0V836H525c0,0,220,0,311,-90c0,0,90,-90,90,-297V0Z" 
id="f1_n"
transform="scale(0.001,-0.001)" />

<path d="M102,250V836H349V351L102,250Z" 
id="f1_9"
transform="scale(0.001,-0.001)" />

<path d="M453,0V658H66V836H833V658H700V0Z" 
id="f1_b"
transform="scale(0.001,-0.001)" />

<path d="M139,0V836H512c0,0,219,0,309,-90c0,0,90,-90,90,-297V0H665V467c0,0,0,110,-31,150c0,0,-32,41,-120,41H385V0Z" 
id="f1_p"
transform="scale(0.001,-0.001)" />

<path d="M159,0V165c0,0,0,69,13,124c0,0,12,55,29,89c0,0,17,33,45,62c0,0,29,28,50,42c0,0,22,14,54,30L128,836H405L666,460c0,0,41,48,41,155V836H952V671c0,0,0,-50,-6,-93c0,0,-6,-42,-16,-73c0,0,-10,-30,-26,-57c0,0,-17,-27,-31,-44c0,0,-15,-17,-37,-33c0,0,-22,-16,-38,-25c0,0,-15,-9,-38,-21L984,0H706L445,376c0,0,-41,-48,-41,-155V0Z" 
id="f1_d"
transform="scale(0.001,-0.001)" />

<path d="M354,-200c0,0,-112,175,-167,343c0,0,-56,170,-56,337c0,0,0,166,55,335c0,0,55,169,168,345H473c0,0,-100,-172,-148,-340c0,0,-48,-168,-48,-340c0,0,0,-173,48,-342c0,0,49,-168,148,-338Z" 
id="f0_11"
transform="scale(0.001,-0.001)" />

<path d="M153,0V437L399,539V0ZM664,0V450c0,0,0,122,-31,165c0,0,-31,43,-121,43H138V836H511c0,0,113,0,188,-22c0,0,75,-23,123,-73c0,0,47,-51,68,-127c0,0,20,-76,20,-189V0Z" 
id="f1_l"
transform="scale(0.001,-0.001)" />

<path d="M129,0l69,362c0,0,10,56,12,100c0,0,0,84,-27,159c0,0,-27,76,-117,215H322c0,0,9,-6,31,-79c0,0,23,-72,23,-105c0,0,23,82,100,138c0,0,77,57,160,57c0,0,332,0,332,-397V0H538V177H721V449c0,0,0,124,-20,170c0,0,-20,47,-82,47c0,0,-23,0,-43,-9c0,0,-19,-10,-34,-23c0,0,-14,-14,-27,-39c0,0,-13,-25,-22,-46c0,0,-8,-22,-17,-57c0,0,-9,-36,-15,-61c0,0,-5,-24,-13,-65L375,0Z" 
id="f1_j"
transform="scale(0.001,-0.001)" />

<path d="M66,0V177H334c0,0,99,0,150,66c0,0,51,67,51,175c0,0,0,108,-51,175c0,0,-51,66,-150,66H66V836H334c0,0,92,0,168,-24c0,0,75,-24,127,-64c0,0,51,-40,86,-94c0,0,35,-54,51,-113c0,0,15,-60,15,-123c0,0,0,-63,-15,-123c0,0,-16,-59,-51,-113c0,0,-35,-54,-86,-94C629,88,577,48,502,24C502,24,426,0,334,0Z" 
id="f1_o"
transform="scale(0.001,-0.001)" />

<path d="M112,-5c0,0,-39,0,-97,11V113c0,0,48,-10,77,-10c0,0,53,0,70,42c0,0,17,43,17,164V729H50V836H501c0,0,107,0,179,-25c0,0,72,-25,112,-77c0,0,40,-51,57,-118c0,0,16,-67,16,-164V0H726V454c0,0,0,55,-3,92c0,0,-4,37,-17,75c0,0,-14,38,-38,59c0,0,-24,22,-65,36c0,0,-42,13,-102,13H318V309c0,0,0,-160,-46,-237C272,72,226,-5,112,-5Z" 
id="f0_r"
transform="scale(0.001,-0.001)" />

<path d="M495,0V729H66V836H781V729H634V0Z" 
id="f0_b"
transform="scale(0.001,-0.001)" />

<path d="M139,0V836H485c0,0,206,0,290,-90c0,0,84,-89,84,-294V0H721V473c0,0,0,147,-49,202c0,0,-48,54,-186,54H277V0Z" 
id="f0_c"
transform="scale(0.001,-0.001)" />

<path d="M71,-141V-15L289,62L66,836H210L416,109c0,0,99,42,153,98c0,0,53,56,80,155c0,0,26,98,26,262V836H817V624c0,0,0,-88,-7,-154c0,0,-7,-67,-25,-132c0,0,-18,-66,-51,-116c0,0,-33,-51,-84,-98c0,0,-50,-48,-123,-87c0,0,-72,-39,-169,-74L71,-141Z" 
id="f0_m"
transform="scale(0.001,-0.001)" />

<path d="M522,92c0,0,247,0,247,333c0,0,0,88,-17,146c0,0,-17,58,-53,91c0,0,-35,33,-82,46c0,0,-48,14,-116,14H276V419c0,0,0,-327,246,-327Zm0,-112c0,0,-193,0,-289,109c0,0,-95,110,-95,337V836H501c0,0,213,0,309,-93c0,0,96,-94,96,-317c0,0,0,-227,-95,-337C811,89,715,-20,522,-20Z" 
id="f0_l"
transform="scale(0.001,-0.001)" />

<path d="M433,-329v111H545V-329Zm-93,185V-32H452V-144Zm186,0V-32H638V-144Z" 
id="f0_16"
transform="scale(0.001,-0.001)" />

<path d="M433,-292v111H265V-69H713V-181H545V-292Z" 
id="f0_12"
transform="scale(0.001,-0.001)" />

<path d="M441,362V473H552V362Z" 
id="f0_13"
transform="scale(0.001,-0.001)" />

<path d="M433,-241v111H545V-241Z" 
id="f0_17"
transform="scale(0.001,-0.001)" />

<path d="M287,-18c0,0,-194,0,-194,206V634L23,652v49H309V217c0,0,0,-63,26,-98c0,0,27,-35,76,-35c0,0,57,0,113,25V634l-64,18v49H740V67L809,49V0H536L526,61L475,35c0,0,-104,-53,-188,-53Z" 
id="f2_a"
transform="scale(0.001,-0.001)" />

<path d="M41,0V49l69,18V634L41,652v49H313l11,-61l50,26c0,0,105,54,188,54c0,0,194,0,194,-207V67L827,49V0H478V49l63,18V484c0,0,0,63,-27,98c0,0,-26,35,-75,35c0,0,-57,0,-114,-25V67L389,49V0Z" 
id="f2_b"
transform="scale(0.001,-0.001)" />

<path d="M345,75c0,0,50,0,110,26V351l-63,-2c0,0,-72,-3,-100,-38c0,0,-28,-35,-28,-113c0,0,0,-63,22,-93c0,0,23,-30,59,-30ZM266,-14c0,0,-217,0,-217,208c0,0,0,79,32,126c0,0,32,48,93,71c0,0,60,22,190,25l91,2V521c0,0,0,126,-104,126c0,0,-62,0,-140,-39L183,521H134V691c0,0,112,17,165,21c0,0,53,5,108,5c0,0,264,0,264,-194V67L741,49V0H483L466,54C466,54,408,14,361,0c0,0,-47,-14,-95,-14Z" 
id="f2_d"
transform="scale(0.001,-0.001)" />

<path d="M399,-14c0,0,-341,0,-341,370c0,0,0,175,87,269c0,0,87,95,249,95c0,0,101,0,220,-23V501H573L541,625c0,0,-62,35,-149,35c0,0,-200,0,-200,-304c0,0,0,-158,61,-225c0,0,61,-67,189,-67c0,0,109,0,189,24V43C631,43,595,16,530,1c0,0,-64,-15,-131,-15Z" 
id="f3_l"
transform="scale(0.001,-0.001)" />

<path d="M32,0V33L151,52V649L52,668v33H275V52L395,33V0ZM201,850c0,0,-32,0,-56,24c0,0,-24,24,-24,56c0,0,0,34,24,58c0,0,24,24,56,24c0,0,34,0,58,-24c0,0,24,-24,24,-58c0,0,0,-32,-24,-56c0,0,-24,-24,-58,-24Z" 
id="f3_4"
transform="scale(0.001,-0.001)" />

<path d="M289,-14c0,0,-179,0,-179,205V649L20,668v33H233V200c0,0,0,-128,120,-128c0,0,92,0,173,23V649L420,668v33H649V52L738,33V0H533l-6,57C527,57,474,28,405,7c0,0,-69,-21,-116,-21Z" 
id="f3_k"
transform="scale(0.001,-0.001)" />

<path d="M383,64c0,0,85,0,152,28V645c0,0,-67,13,-152,13c0,0,-194,0,-194,-314c0,0,0,-141,48,-211c0,0,48,-69,146,-69ZM342,-14c0,0,-287,0,-287,358c0,0,0,184,82,280c0,0,81,96,239,96c0,0,81,0,163,-18c0,0,-4,25,-4,124v182l-118,18v34H659V52L745,33V0H548l-9,52c0,0,-84,-66,-197,-66Z" 
id="f3_n"
transform="scale(0.001,-0.001)" />

<path d="M284,67c0,0,51,0,88,12c0,0,37,12,74,30V358l-98,-3c0,0,-100,-4,-135,-39c0,0,-35,-35,-35,-117c0,0,0,-132,106,-132ZM233,-14c0,0,-179,0,-179,208c0,0,0,70,27,116c0,0,27,46,87,70c0,0,60,24,173,27l105,3V519c0,0,0,72,-26,107c0,0,-27,34,-82,34c0,0,-75,0,-137,-35L176,538H134V691c0,0,121,26,213,26c0,0,115,0,169,-47c0,0,54,-47,54,-144V52L657,33V0H465L451,70c0,0,-85,-84,-218,-84Z" 
id="f3_2"
transform="scale(0.001,-0.001)" />

<path d="M276,-14c0,0,-57,0,-125,13C151,-1,83,10,48,23V214H97l28,-98c0,0,26,-26,69,-44c0,0,42,-17,86,-17c0,0,65,0,97,28c0,0,32,28,32,71c0,0,0,41,-31,65c0,0,-30,25,-133,57c0,0,-108,34,-154,92c0,0,-45,58,-45,143c0,0,0,95,71,152c0,0,71,57,183,57c0,0,77,0,207,-22V518H457l-24,82c0,0,-21,22,-60,35c0,0,-40,14,-75,14c0,0,-53,0,-79,-22c0,0,-26,-22,-26,-59c0,0,0,-40,32,-65c0,0,32,-26,132,-55c0,0,109,-34,155,-89c0,0,45,-55,45,-137c0,0,0,-117,-72,-177c0,0,-72,-59,-209,-59Z" 
id="f2_n"
transform="scale(0.001,-0.001)" />

<path d="M434,423c0,0,0,101,-7,142c0,0,-6,40,-22,60c0,0,-16,19,-45,19c0,0,-44,0,-66,-48c0,0,-22,-49,-22,-173ZM389,-14c0,0,-172,0,-254,89c0,0,-83,90,-83,279c0,0,0,184,79,274c0,0,79,91,238,91c0,0,142,0,206,-76c0,0,64,-76,64,-237V345H271V333c0,0,0,-111,18,-158c0,0,18,-47,58,-72c0,0,40,-25,110,-25c0,0,66,0,166,22V42C623,42,582,18,517,1c0,0,-66,-15,-128,-15Z" 
id="f2_k"
transform="scale(0.001,-0.001)" />

<path d="M180,0L66,836H203L258,443c0,0,36,1,64,6c0,0,28,6,49,18c0,0,20,12,35,26c0,0,15,13,26,36c0,0,11,24,17,44c0,0,7,20,12,55c0,0,6,34,9,60c0,0,3,26,8,71c0,0,4,45,9,77H610c0,0,-13,-194,-31,-271c0,0,-31,-127,-111,-179c0,0,-71,-45,-196,-50L304,107c0,0,73,0,130,5c0,0,56,6,111,21c0,0,54,15,94,40c0,0,40,25,77,64c0,0,37,39,63,94c0,0,25,54,46,128c0,0,21,73,34,166c0,0,13,94,20,211h138c0,0,-14,-124,-29,-218c0,0,-16,-94,-39,-179c0,0,-22,-85,-50,-146c0,0,-28,-61,-68,-112c0,0,-39,-51,-87,-84C744,97,696,65,632,42C632,42,568,19,492,10C492,10,417,0,320,0Z" 
id="f0_n"
transform="scale(0.001,-0.001)" />

<path d="M114,0l60,312c0,0,2,12,8,39c0,0,6,27,7,37c0,0,2,11,5,30c0,0,2,19,4,33c0,0,1,15,1,31c0,0,0,48,-35,146c0,0,-35,98,-98,208H228c0,0,3,-8,27,-67c0,0,25,-58,41,-117c0,0,21,53,50,90c0,0,29,37,57,57c0,0,29,21,65,32c0,0,37,11,65,14c0,0,28,3,67,3c0,0,300,0,300,-396V0H480V106H761V452c0,0,0,146,-46,215c0,0,-45,70,-118,70c0,0,-134,0,-198,-119c0,0,-36,-68,-67,-222c0,0,-2,-10,-6,-27L253,0Z" 
id="f0_g"
transform="scale(0.001,-0.001)" />

<path d="M287,0L589,729H66v386H205V836l547,-1l-2,-82L433,0Z" 
id="f0_f"
transform="scale(0.001,-0.001)" />

<path d="M30,0V49l76,18V992l-72,18v50H322V67L398,49V0Z" 
id="f2_o"
transform="scale(0.001,-0.001)" />

<path d="M31,0V33L150,52v956L31,1026v34H274V52L394,33V0Z" 
id="f3_e"
transform="scale(0.001,-0.001)" />

<path d="M431,0V33L535,52V499c0,0,0,62,-32,96c0,0,-32,33,-95,33c0,0,-66,0,-163,-22V52L350,33V0H32V33l89,19V649L32,668v33H237l6,-57c0,0,56,32,119,54c0,0,62,22,110,22c0,0,52,0,95,-20c0,0,44,-19,66,-62c0,0,57,32,134,57c0,0,77,25,128,25c0,0,179,0,179,-207V52l90,-19V0H846V33L950,52V499c0,0,0,129,-119,129c0,0,-19,0,-45,-3c0,0,-26,-3,-52,-7c0,0,-25,-4,-49,-8c0,0,-23,-5,-39,-8c0,0,13,-41,13,-89V52L764,33V0Z" 
id="f3_m"
transform="scale(0.001,-0.001)" />

<path d="M0,955v112H111V955Z" 
id="f0_14"
transform="scale(0.001,-0.001)" />

<path d="M433,-329v111H545V-329Zm0,185V-32H545V-144Z" 
id="f0_15"
transform="scale(0.001,-0.001)" />

<path d="M278,-14c0,0,-52,0,-115,11c0,0,-63,10,-99,23V193H98L134,95c0,0,56,-50,146,-50c0,0,144,0,144,123c0,0,0,91,-114,130l-66,21c0,0,-75,25,-110,50c0,0,-34,26,-53,63c0,0,-18,36,-18,89c0,0,0,92,63,145c0,0,63,54,170,54c0,0,77,0,193,-23V544H454l-32,81c0,0,-39,35,-124,35c0,0,-61,0,-92,-30c0,0,-32,-30,-32,-80c0,0,0,-43,29,-72c0,0,28,-29,86,-48c0,0,110,-38,144,-55c0,0,33,-17,57,-42c0,0,23,-25,36,-57c0,0,13,-32,13,-79c0,0,0,-104,-66,-158c0,0,-66,-53,-195,-53Z" 
id="f3_d"
transform="scale(0.001,-0.001)" />

<path d="M495,413c0,0,0,133,-34,190c0,0,-34,57,-105,57c0,0,-78,0,-119,-63c0,0,-42,-62,-42,-184ZM374,-14c0,0,-163,0,-239,87c0,0,-75,88,-75,283c0,0,0,183,77,273c0,0,76,91,219,91c0,0,269,0,269,-306V353H194V340c0,0,0,-103,23,-160c0,0,22,-57,70,-87c0,0,47,-29,124,-29c0,0,40,0,96,6c0,0,55,7,91,15V43C598,43,562,20,500,3c0,0,-61,-17,-126,-17Z" 
id="f3_a"
transform="scale(0.001,-0.001)" />

<path d="M35,0V34l84,18V649L35,668v33H235l7,-56c0,0,57,32,122,54c0,0,65,21,108,21c0,0,91,0,137,-53c0,0,47,-53,47,-154V52L741,34V0H439V34l93,18V500c0,0,0,62,-30,97c0,0,-31,36,-94,36c0,0,-67,0,-165,-22V52L338,34V0ZM481,834c0,0,-36,0,-66,16c0,0,-30,16,-57,36c0,0,-27,20,-52,36c0,0,-25,16,-49,16c0,0,-24,0,-39,-9c0,0,-14,-9,-23,-26c0,0,-8,-17,-13,-54H143c0,0,11,180,146,180c0,0,36,0,66,-16c0,0,30,-16,57,-35c0,0,27,-20,52,-36c0,0,25,-16,49,-16c0,0,32,0,50,18c0,0,18,19,25,70h39c0,0,-12,-180,-146,-180Z" 
id="f3_g"
transform="scale(0.001,-0.001)" />

<path d="M377,45c0,0,99,0,147,73c0,0,47,73,47,237c0,0,0,161,-47,233c0,0,-47,72,-147,72c0,0,-97,0,-141,-69c0,0,-44,-69,-44,-236c0,0,0,-169,45,-240c0,0,44,-70,140,-70Zm0,-59c0,0,-158,0,-238,94c0,0,-81,95,-81,274c0,0,0,178,81,272c0,0,80,94,244,94c0,0,160,0,241,-92c0,0,82,-92,82,-274c0,0,0,-368,-329,-368Z" 
id="f3_i"
transform="scale(0.001,-0.001)" />

<path d="M379,60c0,0,59,0,84,64c0,0,24,65,24,231c0,0,0,164,-24,227c0,0,-24,63,-84,63c0,0,-57,0,-80,-60c0,0,-22,-61,-22,-230c0,0,0,-173,23,-234c0,0,22,-61,79,-61Zm-2,-74c0,0,-161,0,-240,91c0,0,-79,91,-79,277c0,0,0,186,80,276c0,0,81,90,245,90c0,0,167,0,245,-93c0,0,78,-93,78,-273c0,0,0,-188,-81,-278c0,0,-81,-90,-248,-90Z" 
id="f2_m"
transform="scale(0.001,-0.001)" />

<path d="M522,-20c0,0,-196,0,-290,99c0,0,-94,100,-94,324V836H276V397c0,0,0,-86,16,-147c0,0,17,-60,50,-94c0,0,34,-34,77,-49c0,0,43,-15,103,-15c0,0,59,0,102,15c0,0,44,15,77,49c0,0,33,34,50,94c0,0,17,61,17,147c0,0,0,84,-8,143c0,0,-7,58,-25,105c0,0,-17,47,-51,69c0,0,-33,23,-83,23c0,0,-50,0,-119,-22V821c0,0,85,23,150,23c0,0,76,0,130,-30c0,0,53,-31,85,-90c0,0,31,-59,45,-138c0,0,13,-78,13,-183c0,0,0,-224,-93,-324c0,0,-94,-99,-290,-99Z" 
id="f0_x"
transform="scale(0.001,-0.001)" />

<path d="M154,0V454l138,56V0ZM722,0V454c0,0,0,161,-49,218c0,0,-48,57,-186,57H139V836H485c0,0,207,0,291,-93c0,0,83,-94,83,-318V0Z" 
id="f0_e"
transform="scale(0.001,-0.001)" />

<path d="M66,0V107H554V452c0,0,0,56,-4,93c0,0,-4,37,-18,75c0,0,-14,38,-40,60c0,0,-26,22,-71,36c0,0,-45,13,-110,13H66V836H312c0,0,91,0,157,-17c0,0,66,-17,109,-49c0,0,44,-32,69,-84c0,0,26,-52,36,-114c0,0,10,-62,10,-147V107H817V0Z" 
id="f0_9"
transform="scale(0.001,-0.001)" />

<path d="M66,0V106H322c0,0,75,0,127,23c0,0,53,23,82,67c0,0,29,43,42,98c0,0,13,54,13,124c0,0,0,70,-13,124c0,0,-13,55,-42,98c0,0,-29,44,-82,67c0,0,-52,23,-127,23H66V836H322c0,0,87,0,157,-24c0,0,70,-24,115,-64c0,0,45,-40,74,-94c0,0,30,-55,43,-113c0,0,13,-59,13,-123c0,0,0,-64,-13,-123c0,0,-13,-58,-43,-113c0,0,-29,-54,-74,-94C594,88,549,48,479,24C479,24,409,0,322,0Z" 
id="f0_5"
transform="scale(0.001,-0.001)" />

<path d="M360,-14L72,649L0,668v33H327V668L216,648L420,164L615,649L504,668v33H764V668L697,652L416,-14Z" 
id="f3_3"
transform="scale(0.001,-0.001)" />

<path d="M377,44c0,0,99,0,147,73c0,0,47,73,47,237c0,0,0,161,-47,234c0,0,-47,72,-147,72c0,0,-97,0,-141,-69c0,0,-44,-70,-44,-237c0,0,0,-169,45,-239c0,0,44,-71,140,-71Zm0,-58c0,0,-158,0,-238,94c0,0,-81,95,-81,274c0,0,0,178,81,272c0,0,80,94,244,94c0,0,160,0,241,-92c0,0,82,-92,82,-274c0,0,0,-368,-329,-368ZM301,835v24l147,203H606v-27L342,835Z" 
id="f3_5"
transform="scale(0.001,-0.001)" />

<path d="M439,0V33l93,19V500c0,0,0,62,-30,97c0,0,-31,36,-94,36c0,0,-67,0,-165,-22V52L338,33V0H35V33l84,19V649L35,668v33H235l7,-57c0,0,57,33,122,54c0,0,65,22,108,22c0,0,91,0,137,-53c0,0,47,-53,47,-154V52L741,33V0Z" 
id="f3_8"
transform="scale(0.001,-0.001)" />

<path d="M163,0V190H321V0Z" 
id="f0_o"
transform="scale(0.001,-0.001)" />

<path d="M139,-317V836H278V-317Z" 
id="f0_d"
transform="scale(0.001,-0.001)" />

<path d="M139,0V106H400c0,0,176,0,253,71c0,0,78,72,78,250c0,0,0,163,-80,233c0,0,-81,69,-250,69H278L277,564c0,0,-1,-54,26,-80c0,0,27,-25,82,-25c0,0,30,0,80,9V355c0,0,-61,-12,-111,-12c0,0,-100,0,-157,55c0,0,-58,55,-58,186V836H456c0,0,193,0,303,-109c0,0,110,-109,110,-309c0,0,0,-200,-110,-309C759,109,648,0,456,0Z" 
id="f0_j"
transform="scale(0.001,-0.001)" />

<path d="M117,-176L179,62V190H336V62L213,-176Z" 
id="f0_7"
transform="scale(0.001,-0.001)" />

<path d="M414,-20c0,0,-70,0,-144,13c0,0,-75,13,-154,40V179c0,0,63,-36,138,-55c0,0,74,-18,156,-18c0,0,142,0,216,55c0,0,74,56,74,163c0,0,0,98,-69,153c0,0,-69,56,-192,56H309V657H445c0,0,111,0,170,44c0,0,59,45,59,128c0,0,0,86,-61,132c0,0,-61,46,-174,46c0,0,-62,0,-133,-13c0,0,-71,-14,-156,-42v134c0,0,85,24,160,36c0,0,75,12,142,12c0,0,171,0,271,-78c0,0,100,-78,100,-211c0,0,0,-92,-53,-156c0,0,-52,-64,-150,-89c0,0,108,-23,169,-96c0,0,61,-73,61,-180c0,0,0,-165,-114,-255c0,0,-113,-89,-322,-89Z" 
id="f0_19"
transform="scale(0.001,-0.001)" />


</defs>
</svg>