<?xml version="1.0" encoding="UTF-8" standalone="no"?>
<!DOCTYPE svg PUBLIC "-//W3C//DTD SVG 1.1//EN"
"http://www.w3.org/Graphics/SVG/1.1/DTD/svg11.dtd">
<svg viewBox="0 0 909 1286" version="1.1" xmlns="http://www.w3.org/2000/svg" xmlns:xlink="http://www.w3.org/1999/xlink">
<defs>
<clipPath id="c0_16"><path d="M0,1286.2V0H909.4V1286.2Z" /></clipPath>
<clipPath id="c1_16"><path d="M642.4,399.3V378h.3v21.3Z" /></clipPath>
<style type="text/css"><![CDATA[
.g0_16{
fill: none;
stroke: #000000;
stroke-width: 0.7638889;
stroke-linecap: butt;
stroke-linejoin: round;
}
.g1_16{
fill: none;
stroke: #0000FF;
stroke-width: 1.0694444;
stroke-linecap: butt;
stroke-linejoin: miter;
}
]]></style>
</defs>
<g clip-path="url(#c0_16)">
<g fill="#000000" >
<use xlink:href="#f0_18" transform="matrix(16,0,0,16,717.9,132.9)" />
<use xlink:href="#f0_17" transform="matrix(16,0,0,16,729.8,132.9)" />
<use xlink:href="#f0_19" transform="matrix(16,0,0,16,736.3,132.9)" />
<use xlink:href="#f0_1a" transform="matrix(16,0,0,16,744.7,132.9)" />
<use xlink:href="#f0_1b" transform="matrix(16,0,0,16,757.1,132.9)" />
<use xlink:href="#f0_3" transform="matrix(16,0,0,16,543.4,132.9)" />
<use xlink:href="#f0_b" transform="matrix(16,0,0,16,562.5,132.9)" />
<use xlink:href="#f0_u" transform="matrix(16,0,0,16,576.5,132.9)" />
<use xlink:href="#f0_3" transform="matrix(16,0,0,16,587.7,132.9)" />
<use xlink:href="#f0_5" transform="matrix(16,0,0,16,600.3,132.9)" />
<use xlink:href="#f0_s" transform="matrix(16,0,0,16,611.4,132.9)" />
<use xlink:href="#f0_7" transform="matrix(16,0,0,16,620,132.9)" />
<use xlink:href="#f0_5" transform="matrix(16,0,0,16,627,132.9)" />
<use xlink:href="#f0_3" transform="matrix(16,0,0,16,638.3,132.9)" />
<use xlink:href="#f0_u" transform="matrix(16,0,0,16,650.8,132.9)" />
<use xlink:href="#f1_d" transform="matrix(12,0,0,12,723.8,155.2)" />
<use xlink:href="#f1_i" transform="matrix(12,0,0,12,735,155.2)" />
<use xlink:href="#f1_q" transform="matrix(12,0,0,12,740.3,155.2)" />
<use xlink:href="#f1_4" transform="matrix(12,0,0,12,748.6,155.2)" />
<use xlink:href="#f1_7" transform="matrix(12,0,0,12,759.6,155.2)" />
<use xlink:href="#f1_1f" transform="matrix(12,0,0,12,704.6,155.2)" />
<use xlink:href="#f2_12" transform="matrix(12,0,0,12,462.3,155.2)" />
<use xlink:href="#f2_p" transform="matrix(12,0,0,12,468.4,155.2)" />
<use xlink:href="#f2_m" transform="matrix(12,0,0,12,473.4,155.2)" />
<use xlink:href="#f2_7" transform="matrix(12,0,0,12,484.7,155.2)" />
<use xlink:href="#f2_i" transform="matrix(12,0,0,12,489.8,155.2)" />
<use xlink:href="#f2_c" transform="matrix(12,0,0,12,499.8,155.2)" />
<use xlink:href="#f2_a" transform="matrix(12,0,0,12,517.6,155.2)" />
<use xlink:href="#f2_j" transform="matrix(12,0,0,12,529.6,155.2)" />
<use xlink:href="#f2_s" transform="matrix(12,0,0,12,541.8,155.2)" />
<use xlink:href="#f2_7" transform="matrix(12,0,0,12,552.7,155.2)" />
<use xlink:href="#f2_3" transform="matrix(12,0,0,12,557.7,155.2)" />
<use xlink:href="#f2_c" transform="matrix(12,0,0,12,567.8,155.2)" />
<use xlink:href="#f2_4" transform="matrix(12,0,0,12,579.7,155.2)" />
<use xlink:href="#f2_3" transform="matrix(12,0,0,12,590.1,155.2)" />
<use xlink:href="#f2_e" transform="matrix(12,0,0,12,594.2,155.2)" />
<use xlink:href="#f2_c" transform="matrix(12,0,0,12,606.6,155.2)" />
<use xlink:href="#f2_a" transform="matrix(12,0,0,12,624.4,155.2)" />
<use xlink:href="#f2_j" transform="matrix(12,0,0,12,636.5,155.2)" />
<use xlink:href="#f2_p" transform="matrix(12,0,0,12,654.5,155.2)" />
<use xlink:href="#f2_e" transform="matrix(12,0,0,12,659.4,155.2)" />
<use xlink:href="#f2_h" transform="matrix(12,0,0,12,671.9,155.2)" />
<use xlink:href="#f2_11" transform="matrix(12,0,0,12,689.6,155.2)" />
</g>
</g>
<path d="M128.6,179.3h572m-572,20h572m-572,20.2h572m-572,20h572m-572,20.1h572m-572,20.1h572m-572,20.1h572m-572,20h572M128.6,340h572M128.9,178.9V340.4M700.2,178.9V340.4" class="g0_16" />
<g clip-path="url(#c0_16)">
<g fill="#000000" >
<use xlink:href="#f3_y" transform="matrix(11,0,0,11,137.7,195.3)" />
<use xlink:href="#f3_9" transform="matrix(11,0,0,11,143.3,195.3)" />
<use xlink:href="#f3_b" transform="matrix(11,0,0,11,150.7,195.3)" />
<use xlink:href="#f3_t" transform="matrix(11,0,0,11,300.4,195.3)" />
<use xlink:href="#f3_9" transform="matrix(11,0,0,11,308.8,195.3)" />
<use xlink:href="#f3_f" transform="matrix(11,0,0,11,316.2,195.3)" />
<use xlink:href="#f3_c" transform="matrix(11,0,0,11,321.7,195.3)" />
<use xlink:href="#f3_b" transform="matrix(11,0,0,11,334.8,195.3)" />
<use xlink:href="#f3_h" transform="matrix(11,0,0,11,343.2,195.3)" />
<use xlink:href="#f3_b" transform="matrix(11,0,0,11,349.8,195.3)" />
<use xlink:href="#f3_k" transform="matrix(11,0,0,11,463.1,195.3)" />
<use xlink:href="#f3_n" transform="matrix(11,0,0,11,467.8,195.3)" />
<use xlink:href="#f3_o" transform="matrix(11,0,0,11,472.4,195.3)" />
<use xlink:href="#f3_8" transform="matrix(11,0,0,11,480.8,195.3)" />
<use xlink:href="#f3_b" transform="matrix(11,0,0,11,489.2,195.3)" />
<use xlink:href="#f3_j" transform="matrix(11,0,0,11,589.9,195.3)" />
<use xlink:href="#f3_b" transform="matrix(11,0,0,11,598.3,195.3)" />
<use xlink:href="#f3_o" transform="matrix(11,0,0,11,606.7,195.3)" />
<use xlink:href="#f3_n" transform="matrix(11,0,0,11,615.1,195.3)" />
<use xlink:href="#f3_a" transform="matrix(11,0,0,11,619.7,195.3)" />
<use xlink:href="#f3_b" transform="matrix(11,0,0,11,624.4,195.3)" />
<use xlink:href="#f3_e" transform="matrix(11,0,0,11,137.7,215.4)" />
<use xlink:href="#f3_b" transform="matrix(11,0,0,11,146.1,215.4)" />
<use xlink:href="#f3_k" transform="matrix(11,0,0,11,154.5,215.4)" />
<use xlink:href="#f3_e" transform="matrix(11,0,0,11,159.2,215.4)" />
<use xlink:href="#f3_9" transform="matrix(11,0,0,11,167.6,215.4)" />
<use xlink:href="#f3_f" transform="matrix(11,0,0,11,174.9,215.4)" />
<use xlink:href="#f3_f" transform="matrix(11,0,0,11,300.4,215.4)" />
<use xlink:href="#f3_9" transform="matrix(11,0,0,11,306,215.4)" />
<use xlink:href="#f3_u" transform="matrix(11,0,0,11,313.5,215.4)" />
<use xlink:href="#f3_f" transform="matrix(11,0,0,11,321.7,215.4)" />
<use xlink:href="#f3_9" transform="matrix(11,0,0,11,327.3,215.4)" />
<use xlink:href="#f3_h" transform="matrix(11,0,0,11,334.8,215.4)" />
<use xlink:href="#f3_d" transform="matrix(11,0,0,11,341.3,215.4)" />
<use xlink:href="#f3_f" transform="matrix(11,0,0,11,348.8,215.4)" />
<use xlink:href="#f3_f" transform="matrix(11,0,0,11,463.1,215.4)" />
<use xlink:href="#f3_9" transform="matrix(11,0,0,11,468.7,215.4)" />
<use xlink:href="#f3_a" transform="matrix(11,0,0,11,476,215.4)" />
<use xlink:href="#f3_b" transform="matrix(11,0,0,11,480.7,215.4)" />
<use xlink:href="#f3_f" transform="matrix(11,0,0,11,489.2,215.4)" />
<use xlink:href="#f3_o" transform="matrix(11,0,0,11,494.8,215.4)" />
<use xlink:href="#f3_d" transform="matrix(11,0,0,11,503.2,215.4)" />
<use xlink:href="#f3_f" transform="matrix(11,0,0,11,510.6,215.4)" />
<use xlink:href="#f3_f" transform="matrix(11,0,0,11,589.9,215.4)" />
<use xlink:href="#f3_9" transform="matrix(11,0,0,11,595.5,215.4)" />
<use xlink:href="#f3_e" transform="matrix(11,0,0,11,603,215.4)" />
<use xlink:href="#f3_b" transform="matrix(11,0,0,11,611.4,215.4)" />
<use xlink:href="#f3_k" transform="matrix(11,0,0,11,619.6,215.4)" />
<use xlink:href="#f3_e" transform="matrix(11,0,0,11,624.3,215.4)" />
<use xlink:href="#f3_9" transform="matrix(11,0,0,11,632.7,215.4)" />
<use xlink:href="#f3_f" transform="matrix(11,0,0,11,640.2,215.4)" />
<use xlink:href="#f3_i" transform="matrix(11,0,0,11,137.7,235.4)" />
<use xlink:href="#f3_b" transform="matrix(11,0,0,11,145.1,235.4)" />
<use xlink:href="#f3_o" transform="matrix(11,0,0,11,153.5,235.4)" />
<use xlink:href="#f3_a" transform="matrix(11,0,0,11,161.9,235.4)" />
<use xlink:href="#f3_n" transform="matrix(11,0,0,11,166.5,235.4)" />
<use xlink:href="#f3_o" transform="matrix(11,0,0,11,171.2,235.4)" />
<use xlink:href="#f3_g" transform="matrix(11,0,0,11,179.6,235.4)" />
<use xlink:href="#f3_d" transform="matrix(11,0,0,11,188,235.4)" />
<use xlink:href="#f3_i" transform="matrix(11,0,0,11,195.5,235.4)" />
<use xlink:href="#f3_n" transform="matrix(11,0,0,11,203,235.4)" />
<use xlink:href="#f3_15" transform="matrix(11,0,0,11,207.7,235.4)" />
<use xlink:href="#f3_o" transform="matrix(11,0,0,11,216.1,235.4)" />
<use xlink:href="#f3_a" transform="matrix(11,0,0,11,300.4,235.4)" />
<use xlink:href="#f3_9" transform="matrix(11,0,0,11,305.1,235.4)" />
<use xlink:href="#f3_f" transform="matrix(11,0,0,11,312.4,235.4)" />
<use xlink:href="#f3_f" transform="matrix(11,0,0,11,318,235.4)" />
<use xlink:href="#f3_n" transform="matrix(11,0,0,11,323.7,235.4)" />
<use xlink:href="#f3_j" transform="matrix(11,0,0,11,328.4,235.4)" />
<use xlink:href="#f3_k" transform="matrix(11,0,0,11,336.6,235.4)" />
<use xlink:href="#f3_9" transform="matrix(11,0,0,11,341.4,235.4)" />
<use xlink:href="#f3_8" transform="matrix(11,0,0,11,463.1,235.4)" />
<use xlink:href="#f3_g" transform="matrix(11,0,0,11,471.5,235.4)" />
<use xlink:href="#f3_f" transform="matrix(11,0,0,11,479.9,235.4)" />
<use xlink:href="#f3_d" transform="matrix(11,0,0,11,485.5,235.4)" />
<use xlink:href="#f3_o" transform="matrix(11,0,0,11,493,235.4)" />
<use xlink:href="#f3_a" transform="matrix(11,0,0,11,501.2,235.4)" />
<use xlink:href="#f3_9" transform="matrix(11,0,0,11,505.9,235.4)" />
<use xlink:href="#f3_i" transform="matrix(11,0,0,11,137.7,255.6)" />
<use xlink:href="#f3_b" transform="matrix(11,0,0,11,145.1,255.6)" />
<use xlink:href="#f3_o" transform="matrix(11,0,0,11,153.5,255.6)" />
<use xlink:href="#f3_8" transform="matrix(11,0,0,11,161.9,255.6)" />
<use xlink:href="#f3_g" transform="matrix(11,0,0,11,170.3,255.6)" />
<use xlink:href="#f3_i" transform="matrix(11,0,0,11,178.7,255.6)" />
<use xlink:href="#f3_n" transform="matrix(11,0,0,11,186.2,255.6)" />
<use xlink:href="#f3_f" transform="matrix(11,0,0,11,190.8,255.6)" />
<use xlink:href="#f3_c" transform="matrix(11,0,0,11,300.4,255.6)" />
<use xlink:href="#f3_d" transform="matrix(11,0,0,11,313.5,255.6)" />
<use xlink:href="#f3_o" transform="matrix(11,0,0,11,320.9,255.6)" />
<use xlink:href="#f3_9" transform="matrix(11,0,0,11,329.4,255.6)" />
<use xlink:href="#f3_1d" transform="matrix(11,0,0,11,336.7,255.6)" />
<use xlink:href="#f3_d" transform="matrix(11,0,0,11,341.4,255.6)" />
<use xlink:href="#f3_f" transform="matrix(11,0,0,11,348.9,255.6)" />
<use xlink:href="#f3_d" transform="matrix(11,0,0,11,463.1,255.6)" />
<use xlink:href="#f3_m" transform="matrix(11,0,0,11,470.5,255.6)" />
<use xlink:href="#f3_f" transform="matrix(11,0,0,11,478.9,255.6)" />
<use xlink:href="#f3_b" transform="matrix(11,0,0,11,484.6,255.6)" />
<use xlink:href="#f3_j" transform="matrix(11,0,0,11,493,255.6)" />
<use xlink:href="#f3_d" transform="matrix(11,0,0,11,501.4,255.6)" />
<use xlink:href="#f3_f" transform="matrix(11,0,0,11,508.7,255.6)" />
<use xlink:href="#f3_13" transform="matrix(11,0,0,11,137.7,275.6)" />
<use xlink:href="#f3_b" transform="matrix(11,0,0,11,145.1,275.6)" />
<use xlink:href="#f3_o" transform="matrix(11,0,0,11,153.5,275.6)" />
<use xlink:href="#f3_d" transform="matrix(11,0,0,11,161.9,275.6)" />
<use xlink:href="#f3_m" transform="matrix(11,0,0,11,300.4,275.6)" />
<use xlink:href="#f3_g" transform="matrix(11,0,0,11,308.8,275.6)" />
<use xlink:href="#f3_9" transform="matrix(11,0,0,11,317.2,275.6)" />
<use xlink:href="#f3_j" transform="matrix(11,0,0,11,324.6,275.6)" />
<use xlink:href="#f3_k" transform="matrix(11,0,0,11,333,275.6)" />
<use xlink:href="#f3_b" transform="matrix(11,0,0,11,337.8,275.6)" />
<use xlink:href="#f3_1g" transform="matrix(11,0,0,11,463.1,275.6)" />
<use xlink:href="#f3_f" transform="matrix(11,0,0,11,470.5,275.6)" />
<use xlink:href="#f3_9" transform="matrix(11,0,0,11,476.2,275.6)" />
<use xlink:href="#f3_d" transform="matrix(11,0,0,11,483.5,275.6)" />
<use xlink:href="#f3_8" transform="matrix(11,0,0,11,137.7,295.8)" />
<use xlink:href="#f3_n" transform="matrix(11,0,0,11,146.1,295.8)" />
<use xlink:href="#f3_e" transform="matrix(11,0,0,11,150.8,295.8)" />
<use xlink:href="#f3_9" transform="matrix(11,0,0,11,159.2,295.8)" />
<use xlink:href="#f3_f" transform="matrix(11,0,0,11,166.5,295.8)" />
<use xlink:href="#f3_a" transform="matrix(11,0,0,11,172.1,295.8)" />
<use xlink:href="#f3_n" transform="matrix(11,0,0,11,176.9,295.8)" />
<use xlink:href="#f3_f" transform="matrix(11,0,0,11,181.4,295.8)" />
<use xlink:href="#f3_8" transform="matrix(11,0,0,11,300.4,295.8)" />
<use xlink:href="#f3_9" transform="matrix(11,0,0,11,308.8,295.8)" />
<use xlink:href="#f3_h" transform="matrix(11,0,0,11,316.2,295.8)" />
<use xlink:href="#f3_o" transform="matrix(11,0,0,11,322.8,295.8)" />
<use xlink:href="#f3_g" transform="matrix(11,0,0,11,331.2,295.8)" />
<use xlink:href="#f3_8" transform="matrix(11,0,0,11,339.6,295.8)" />
<use xlink:href="#f3_d" transform="matrix(11,0,0,11,348,295.8)" />
<use xlink:href="#f3_f" transform="matrix(11,0,0,11,355.3,295.8)" />
<use xlink:href="#f3_8" transform="matrix(11,0,0,11,463.1,295.8)" />
<use xlink:href="#f3_9" transform="matrix(11,0,0,11,471.5,295.8)" />
<use xlink:href="#f3_h" transform="matrix(11,0,0,11,478.9,295.8)" />
<use xlink:href="#f3_e" transform="matrix(11,0,0,11,485.5,295.8)" />
<use xlink:href="#f3_9" transform="matrix(11,0,0,11,493.9,295.8)" />
<use xlink:href="#f3_h" transform="matrix(11,0,0,11,501.4,295.8)" />
<use xlink:href="#f3_a" transform="matrix(11,0,0,11,507.8,295.8)" />
<use xlink:href="#f3_n" transform="matrix(11,0,0,11,512.5,295.8)" />
<use xlink:href="#f3_f" transform="matrix(11,0,0,11,517.1,295.8)" />
<use xlink:href="#f3_e" transform="matrix(11,0,0,11,137.7,315.8)" />
<use xlink:href="#f3_9" transform="matrix(11,0,0,11,146.1,315.8)" />
<use xlink:href="#f3_f" transform="matrix(11,0,0,11,153.5,315.8)" />
<use xlink:href="#f3_8" transform="matrix(11,0,0,11,159.1,315.8)" />
<use xlink:href="#f3_d" transform="matrix(11,0,0,11,167.5,315.8)" />
<use xlink:href="#f3_8" transform="matrix(11,0,0,11,175,315.8)" />
<use xlink:href="#f3_i" transform="matrix(11,0,0,11,300.4,315.8)" />
<use xlink:href="#f3_n" transform="matrix(11,0,0,11,307.8,315.8)" />
<use xlink:href="#f3_9" transform="matrix(11,0,0,11,312.5,315.8)" />
<use xlink:href="#f3_f" transform="matrix(11,0,0,11,319.9,315.8)" />
<use xlink:href="#f3_a" transform="matrix(11,0,0,11,325.5,315.8)" />
<use xlink:href="#f3_b" transform="matrix(11,0,0,11,330.2,315.8)" />
<use xlink:href="#f3_c" transform="matrix(11,0,0,11,463.1,315.8)" />
<use xlink:href="#f3_9" transform="matrix(11,0,0,11,476.2,315.8)" />
<use xlink:href="#f3_o" transform="matrix(11,0,0,11,483.7,315.8)" />
<use xlink:href="#f3_a" transform="matrix(11,0,0,11,491.9,315.8)" />
<use xlink:href="#f3_n" transform="matrix(11,0,0,11,496.6,315.8)" />
<use xlink:href="#f3_f" transform="matrix(11,0,0,11,501.4,315.8)" />
<use xlink:href="#f3_d" transform="matrix(11,0,0,11,506.8,315.8)" />
<use xlink:href="#f3_t" transform="matrix(11,0,0,11,137.7,336)" />
<use xlink:href="#f3_g" transform="matrix(11,0,0,11,146.1,336)" />
<use xlink:href="#f3_n" transform="matrix(11,0,0,11,154.5,336)" />
<use xlink:href="#f3_f" transform="matrix(11,0,0,11,159.2,336)" />
<use xlink:href="#f3_9" transform="matrix(11,0,0,11,300.4,336)" />
<use xlink:href="#f3_h" transform="matrix(11,0,0,11,307.8,336)" />
<use xlink:href="#f3_i" transform="matrix(11,0,0,11,314.4,336)" />
<use xlink:href="#f3_d" transform="matrix(11,0,0,11,321.8,336)" />
<use xlink:href="#f3_m" transform="matrix(11,0,0,11,329.3,336)" />
<use xlink:href="#f3_d" transform="matrix(11,0,0,11,337.6,336)" />
<use xlink:href="#f3_f" transform="matrix(11,0,0,11,345,336)" />
<use xlink:href="#f3_m" transform="matrix(11,0,0,11,463.1,336)" />
<use xlink:href="#f3_9" transform="matrix(11,0,0,11,471.5,336)" />
<use xlink:href="#f3_f" transform="matrix(11,0,0,11,478.9,336)" />
<use xlink:href="#f3_h" transform="matrix(11,0,0,11,484.6,336)" />
<use xlink:href="#f3_9" transform="matrix(11,0,0,11,491,336)" />
<use xlink:href="#f3_u" transform="matrix(11,0,0,11,498.4,336)" />
<use xlink:href="#f3_g" transform="matrix(11,0,0,11,506.8,336)" />
<use xlink:href="#f3_n" transform="matrix(11,0,0,11,515.3,336)" />
<use xlink:href="#f3_f" transform="matrix(11,0,0,11,520,336)" />
</g>
<g fill="#0000FF" >
<use xlink:href="#f2_4" transform="matrix(12,0,0,12,649.3,395.1)" />
<use xlink:href="#f2_3" transform="matrix(12,0,0,12,660,395.1)" />
<use xlink:href="#f2_u" transform="matrix(12,0,0,12,664.5,395.1)" />
<use xlink:href="#f2_b" transform="matrix(12,0,0,12,672.3,395.1)" />
<use xlink:href="#f2_a" transform="matrix(12,0,0,12,683.1,395.1)" />
<use xlink:href="#f2_4" transform="matrix(12,0,0,12,695.5,395.1)" />
<use xlink:href="#f2_a" transform="matrix(12,0,0,12,712.4,395.1)" />
<use xlink:href="#f2_7" transform="matrix(12,0,0,12,724.9,395.1)" />
<use xlink:href="#f2_d" transform="matrix(12,0,0,12,730.3,395.1)" />
<use xlink:href="#f2_7" transform="matrix(12,0,0,12,741.2,395.1)" />
<use xlink:href="#f2_9" transform="matrix(12,0,0,12,746.6,395.1)" />
<use xlink:href="#f2_a" transform="matrix(12,0,0,12,759.8,395.1)" />
</g>
</g>
<path d="M642.9,396.9H772.1" class="g1_16" />
<g clip-path="url(#c1_16)">
<path d="M642.4,396.9h5.8" class="g1_16" />
</g>
<g clip-path="url(#c0_16)">
<g fill="#0000FF" >
<use xlink:href="#f2_1f" transform="matrix(12,0,0,12,630.7,395.1)" />
</g>
</g>
<path d="M630.7,396.9h11.6" class="g1_16" />
<g clip-path="url(#c0_16)">
<g fill="#000000" >
<use xlink:href="#f2_n" transform="matrix(12,0,0,12,218.9,493.8)" />
<use xlink:href="#f2_o" transform="matrix(12,0,0,12,224.7,493.8)" />
<use xlink:href="#f2_3" transform="matrix(12,0,0,12,237,493.8)" />
<use xlink:href="#f2_4" transform="matrix(12,0,0,12,241.1,493.8)" />
<use xlink:href="#f2_3" transform="matrix(12,0,0,12,251.5,493.8)" />
<use xlink:href="#f2_e" transform="matrix(12,0,0,12,255.4,493.8)" />
<use xlink:href="#f2_c" transform="matrix(12,0,0,12,267.9,493.8)" />
<use xlink:href="#f2_i" transform="matrix(12,0,0,12,285.8,493.8)" />
<use xlink:href="#f2_s" transform="matrix(12,0,0,12,295.9,493.8)" />
<use xlink:href="#f2_d" transform="matrix(12,0,0,12,306.7,493.8)" />
<use xlink:href="#f2_o" transform="matrix(12,0,0,12,323.1,493.8)" />
<use xlink:href="#f2_7" transform="matrix(12,0,0,12,335.1,493.8)" />
<use xlink:href="#f2_u" transform="matrix(12,0,0,12,340.2,493.8)" />
<use xlink:href="#f2_b" transform="matrix(12,0,0,12,347.6,493.8)" />
<use xlink:href="#f2_a" transform="matrix(12,0,0,12,358,493.8)" />
<use xlink:href="#f2_c" transform="matrix(12,0,0,12,370.1,493.8)" />
<use xlink:href="#f2_a" transform="matrix(12,0,0,12,387.9,493.8)" />
<use xlink:href="#f2_j" transform="matrix(12,0,0,12,400,493.8)" />
<use xlink:href="#f2_o" transform="matrix(12,0,0,12,418,493.8)" />
<use xlink:href="#f2_7" transform="matrix(12,0,0,12,430.2,493.8)" />
<use xlink:href="#f2_9" transform="matrix(12,0,0,12,435.1,493.8)" />
<use xlink:href="#f2_b" transform="matrix(12,0,0,12,448.1,493.8)" />
<use xlink:href="#f2_7" transform="matrix(12,0,0,12,458.5,493.8)" />
<use xlink:href="#f2_t" transform="matrix(12,0,0,12,469.3,493.8)" />
<use xlink:href="#f2_c" transform="matrix(12,0,0,12,475.1,493.8)" />
<use xlink:href="#f2_3" transform="matrix(12,0,0,12,487,493.8)" />
<use xlink:href="#f2_3" transform="matrix(12,0,0,12,491.1,493.8)" />
<use xlink:href="#f2_q" transform="matrix(12,0,0,12,495.2,493.8)" />
<use xlink:href="#f2_9" transform="matrix(12,0,0,12,502.6,493.8)" />
<use xlink:href="#f2_4" transform="matrix(12,0,0,12,515.5,493.8)" />
<use xlink:href="#f2_a" transform="matrix(12,0,0,12,531.9,493.8)" />
<use xlink:href="#f2_r" transform="matrix(12,0,0,12,543.9,493.8)" />
<use xlink:href="#f2_j" transform="matrix(12,0,0,12,555.8,493.8)" />
<use xlink:href="#f2_a" transform="matrix(12,0,0,12,573.9,493.8)" />
<use xlink:href="#f2_7" transform="matrix(12,0,0,12,585.9,493.8)" />
<use xlink:href="#f2_m" transform="matrix(12,0,0,12,591,493.8)" />
<use xlink:href="#f2_i" transform="matrix(12,0,0,12,602.4,493.8)" />
<use xlink:href="#f2_b" transform="matrix(12,0,0,12,612.3,493.8)" />
<use xlink:href="#f2_q" transform="matrix(12,0,0,12,622.7,493.8)" />
<use xlink:href="#f2_c" transform="matrix(12,0,0,12,630,493.8)" />
<use xlink:href="#f2_o" transform="matrix(12,0,0,12,647.8,493.8)" />
<use xlink:href="#f2_3" transform="matrix(12,0,0,12,660,493.8)" />
<use xlink:href="#f2_4" transform="matrix(12,0,0,12,664.1,493.8)" />
<use xlink:href="#f2_3" transform="matrix(12,0,0,12,674.5,493.8)" />
<use xlink:href="#f2_e" transform="matrix(12,0,0,12,678.6,493.8)" />
<use xlink:href="#f2_c" transform="matrix(12,0,0,12,691.1,493.8)" />
<use xlink:href="#f2_a" transform="matrix(12,0,0,12,708.8,493.8)" />
<use xlink:href="#f2_j" transform="matrix(12,0,0,12,720.9,493.8)" />
<use xlink:href="#f2_2" transform="matrix(12,0,0,12,739,493.8)" />
<use xlink:href="#f2_i" transform="matrix(12,0,0,12,748.8,493.8)" />
<use xlink:href="#f2_9" transform="matrix(12,0,0,12,758.7,493.8)" />
<use xlink:href="#f3_9" transform="matrix(11,0,0,11,571.8,513.8)" />
<use xlink:href="#f3_k" transform="matrix(11,0,0,11,579.3,513.8)" />
<use xlink:href="#f3_9" transform="matrix(11,0,0,11,584,513.8)" />
<use xlink:href="#f3_u" transform="matrix(11,0,0,11,591.5,513.8)" />
<use xlink:href="#f3_n" transform="matrix(11,0,0,11,599.7,513.8)" />
<use xlink:href="#f3_f" transform="matrix(11,0,0,11,604.5,513.8)" />
<use xlink:href="#f3_a" transform="matrix(11,0,0,11,137.7,513.8)" />
<use xlink:href="#f3_9" transform="matrix(11,0,0,11,142.4,513.8)" />
<use xlink:href="#f3_f" transform="matrix(11,0,0,11,149.7,513.8)" />
<use xlink:href="#f3_f" transform="matrix(11,0,0,11,155.3,513.8)" />
<use xlink:href="#f3_n" transform="matrix(11,0,0,11,161,513.8)" />
<use xlink:href="#f3_j" transform="matrix(11,0,0,11,165.7,513.8)" />
<use xlink:href="#f3_k" transform="matrix(11,0,0,11,173.9,513.8)" />
<use xlink:href="#f3_9" transform="matrix(11,0,0,11,178.7,513.8)" />
<use xlink:href="#f3_t" transform="matrix(11,0,0,11,571.8,533)" />
<use xlink:href="#f3_b" transform="matrix(11,0,0,11,580.3,533)" />
<use xlink:href="#f3_f" transform="matrix(11,0,0,11,588.7,533)" />
<use xlink:href="#f3_f" transform="matrix(11,0,0,11,594.3,533)" />
<use xlink:href="#f3_n" transform="matrix(11,0,0,11,599.8,533)" />
<use xlink:href="#f3_j" transform="matrix(11,0,0,11,604.5,533)" />
<use xlink:href="#f3_k" transform="matrix(11,0,0,11,612.9,533)" />
<use xlink:href="#f3_9" transform="matrix(11,0,0,11,617.6,533)" />
<use xlink:href="#f3_1g" transform="matrix(11,0,0,11,137.7,533)" />
<use xlink:href="#f3_f" transform="matrix(11,0,0,11,145.1,533)" />
<use xlink:href="#f3_9" transform="matrix(11,0,0,11,150.7,533)" />
<use xlink:href="#f3_d" transform="matrix(11,0,0,11,158.1,533)" />
<use xlink:href="#f3_t" transform="matrix(11,0,0,11,571.8,552.4)" />
<use xlink:href="#f3_g" transform="matrix(11,0,0,11,580.3,552.4)" />
<use xlink:href="#f3_n" transform="matrix(11,0,0,11,588.7,552.4)" />
<use xlink:href="#f3_f" transform="matrix(11,0,0,11,593.4,552.4)" />
<use xlink:href="#f3_h" transform="matrix(11,0,0,11,137.7,552.4)" />
<use xlink:href="#f3_d" transform="matrix(11,0,0,11,144.2,552.4)" />
<use xlink:href="#f3_j" transform="matrix(11,0,0,11,151.7,552.4)" />
<use xlink:href="#f3_n" transform="matrix(11,0,0,11,160.1,552.4)" />
<use xlink:href="#f3_b" transform="matrix(11,0,0,11,164.8,552.4)" />
<use xlink:href="#f3_n" transform="matrix(11,0,0,11,571.8,571.7)" />
<use xlink:href="#f3_o" transform="matrix(11,0,0,11,576.6,571.7)" />
<use xlink:href="#f3_a" transform="matrix(11,0,0,11,584.8,571.7)" />
<use xlink:href="#f3_9" transform="matrix(11,0,0,11,589.5,571.7)" />
<use xlink:href="#f3_k" transform="matrix(11,0,0,11,597,571.7)" />
<use xlink:href="#f3_n" transform="matrix(11,0,0,11,601.6,571.7)" />
<use xlink:href="#f3_u" transform="matrix(11,0,0,11,606.3,571.7)" />
<use xlink:href="#f3_9" transform="matrix(11,0,0,11,614.7,571.7)" />
<use xlink:href="#f3_o" transform="matrix(11,0,0,11,622.2,571.7)" />
<use xlink:href="#f3_a" transform="matrix(11,0,0,11,630.6,571.7)" />
<use xlink:href="#f3_9" transform="matrix(11,0,0,11,635.3,571.7)" />
<use xlink:href="#f3_i" transform="matrix(11,0,0,11,137.7,571.7)" />
<use xlink:href="#f3_n" transform="matrix(11,0,0,11,145.1,571.7)" />
<use xlink:href="#f3_9" transform="matrix(11,0,0,11,149.8,571.7)" />
<use xlink:href="#f3_f" transform="matrix(11,0,0,11,157.2,571.7)" />
<use xlink:href="#f3_a" transform="matrix(11,0,0,11,162.8,571.7)" />
<use xlink:href="#f3_b" transform="matrix(11,0,0,11,167.5,571.7)" />
<use xlink:href="#f3_1d" transform="matrix(11,0,0,11,571.8,591.1)" />
<use xlink:href="#f3_d" transform="matrix(11,0,0,11,576.6,591.1)" />
<use xlink:href="#f3_c" transform="matrix(11,0,0,11,583.9,591.1)" />
<use xlink:href="#f3_1g" transform="matrix(11,0,0,11,597,591.1)" />
<use xlink:href="#f3_h" transform="matrix(11,0,0,11,604.5,591.1)" />
<use xlink:href="#f3_o" transform="matrix(11,0,0,11,137.7,591.1)" />
<use xlink:href="#f3_g" transform="matrix(11,0,0,11,146.1,591.1)" />
<use xlink:href="#f3_o" transform="matrix(11,0,0,11,154.5,591.1)" />
<use xlink:href="#f3_i" transform="matrix(11,0,0,11,162.9,591.1)" />
<use xlink:href="#f3_d" transform="matrix(11,0,0,11,170.3,591.1)" />
<use xlink:href="#f3_c" transform="matrix(11,0,0,11,571.8,610.3)" />
<use xlink:href="#f3_g" transform="matrix(11,0,0,11,585,610.3)" />
<use xlink:href="#f3_i" transform="matrix(11,0,0,11,593.4,610.3)" />
<use xlink:href="#f3_t" transform="matrix(11,0,0,11,600.8,610.3)" />
<use xlink:href="#f3_d" transform="matrix(11,0,0,11,609.2,610.3)" />
<use xlink:href="#f3_i" transform="matrix(11,0,0,11,616.6,610.3)" />
<use xlink:href="#f3_t" transform="matrix(11,0,0,11,624,610.3)" />
<use xlink:href="#f3_b" transform="matrix(11,0,0,11,632.4,610.3)" />
<use xlink:href="#f3_i" transform="matrix(11,0,0,11,137.7,610.3)" />
<use xlink:href="#f3_t" transform="matrix(11,0,0,11,145.1,610.3)" />
<use xlink:href="#f3_n" transform="matrix(11,0,0,11,153.5,610.3)" />
<use xlink:href="#f3_i" transform="matrix(11,0,0,11,158.2,610.3)" />
<use xlink:href="#f3_b" transform="matrix(11,0,0,11,165.7,610.3)" />
<use xlink:href="#f3_o" transform="matrix(11,0,0,11,571.8,629.8)" />
<use xlink:href="#f3_n" transform="matrix(11,0,0,11,580.3,629.8)" />
<use xlink:href="#f3_1k" transform="matrix(11,0,0,11,585,629.8)" />
<use xlink:href="#f3_b" transform="matrix(11,0,0,11,593.4,629.8)" />
<use xlink:href="#f3_i" transform="matrix(11,0,0,11,137.7,629.8)" />
<use xlink:href="#f3_t" transform="matrix(11,0,0,11,145.1,629.8)" />
<use xlink:href="#f3_n" transform="matrix(11,0,0,11,153.5,629.8)" />
<use xlink:href="#f3_i" transform="matrix(11,0,0,11,158.2,629.8)" />
<use xlink:href="#f3_b" transform="matrix(11,0,0,11,165.7,629.8)" />
<use xlink:href="#f3_e" transform="matrix(11,0,0,11,571.8,649)" />
<use xlink:href="#f3_9" transform="matrix(11,0,0,11,580.3,649)" />
<use xlink:href="#f3_f" transform="matrix(11,0,0,11,587.7,649)" />
<use xlink:href="#f3_8" transform="matrix(11,0,0,11,593.3,649)" />
<use xlink:href="#f3_d" transform="matrix(11,0,0,11,601.7,649)" />
<use xlink:href="#f3_8" transform="matrix(11,0,0,11,609.2,649)" />
<use xlink:href="#f3_a" transform="matrix(11,0,0,11,137.7,649)" />
<use xlink:href="#f3_b" transform="matrix(11,0,0,11,142.4,649)" />
<use xlink:href="#f3_c" transform="matrix(11,0,0,11,150.6,649)" />
<use xlink:href="#f3_d" transform="matrix(11,0,0,11,163.8,649)" />
<use xlink:href="#f3_f" transform="matrix(11,0,0,11,171.2,649)" />
<use xlink:href="#f3_13" transform="matrix(11,0,0,11,571.8,668.4)" />
<use xlink:href="#f3_b" transform="matrix(11,0,0,11,579.3,668.4)" />
<use xlink:href="#f3_o" transform="matrix(11,0,0,11,587.7,668.4)" />
<use xlink:href="#f3_d" transform="matrix(11,0,0,11,596.1,668.4)" />
<use xlink:href="#f3_9" transform="matrix(11,0,0,11,137.7,668.4)" />
<use xlink:href="#f3_h" transform="matrix(11,0,0,11,145.1,668.4)" />
<use xlink:href="#f3_i" transform="matrix(11,0,0,11,151.7,668.4)" />
<use xlink:href="#f3_d" transform="matrix(11,0,0,11,159.1,668.4)" />
<use xlink:href="#f3_m" transform="matrix(11,0,0,11,166.6,668.4)" />
<use xlink:href="#f3_d" transform="matrix(11,0,0,11,174.8,668.4)" />
<use xlink:href="#f3_f" transform="matrix(11,0,0,11,182.3,668.4)" />
<use xlink:href="#f3_i" transform="matrix(11,0,0,11,571.8,687.7)" />
<use xlink:href="#f3_b" transform="matrix(11,0,0,11,579.3,687.7)" />
<use xlink:href="#f3_u" transform="matrix(11,0,0,11,587.7,687.7)" />
<use xlink:href="#f3_9" transform="matrix(11,0,0,11,596.1,687.7)" />
<use xlink:href="#f3_f" transform="matrix(11,0,0,11,603.6,687.7)" />
<use xlink:href="#f3_9" transform="matrix(11,0,0,11,137.7,687.7)" />
<use xlink:href="#f3_h" transform="matrix(11,0,0,11,145.1,687.7)" />
<use xlink:href="#f3_i" transform="matrix(11,0,0,11,151.7,687.7)" />
<use xlink:href="#f3_b" transform="matrix(11,0,0,11,159.1,687.7)" />
<use xlink:href="#f3_u" transform="matrix(11,0,0,11,167.5,687.7)" />
<use xlink:href="#f3_9" transform="matrix(11,0,0,11,175.9,687.7)" />
<use xlink:href="#f3_f" transform="matrix(11,0,0,11,183.3,687.7)" />
<use xlink:href="#f1_i" transform="matrix(12,0,0,12,701.1,731.8)" />
<use xlink:href="#f1_k" transform="matrix(12,0,0,12,706.5,731.8)" />
<use xlink:href="#f1_t" transform="matrix(12,0,0,12,714.7,731.8)" />
<use xlink:href="#f1_3" transform="matrix(12,0,0,12,735,731.8)" />
<use xlink:href="#f1_d" transform="matrix(12,0,0,12,748.4,731.8)" />
<use xlink:href="#f1_13" transform="matrix(12,0,0,12,759.6,731.8)" />
<use xlink:href="#f3_j" transform="matrix(11,0,0,11,571.8,751.8)" />
<use xlink:href="#f3_b" transform="matrix(11,0,0,11,580.3,751.8)" />
<use xlink:href="#f3_o" transform="matrix(11,0,0,11,588.7,751.8)" />
<use xlink:href="#f3_n" transform="matrix(11,0,0,11,597.1,751.8)" />
<use xlink:href="#f3_a" transform="matrix(11,0,0,11,601.6,751.8)" />
<use xlink:href="#f3_b" transform="matrix(11,0,0,11,606.4,751.8)" />
<use xlink:href="#f3_i" transform="matrix(11,0,0,11,137.7,751.8)" />
<use xlink:href="#f3_b" transform="matrix(11,0,0,11,145.1,751.8)" />
<use xlink:href="#f3_c" transform="matrix(11,0,0,11,153.5,751.8)" />
<use xlink:href="#f3_m" transform="matrix(11,0,0,11,166.6,751.8)" />
<use xlink:href="#f3_f" transform="matrix(11,0,0,11,174.9,751.8)" />
<use xlink:href="#f3_9" transform="matrix(11,0,0,11,180.5,751.8)" />
<use xlink:href="#f3_o" transform="matrix(11,0,0,11,188,751.8)" />
<use xlink:href="#f3_8" transform="matrix(11,0,0,11,196.4,751.8)" />
<use xlink:href="#f3_9" transform="matrix(11,0,0,11,204.8,751.8)" />
<use xlink:href="#f3_f" transform="matrix(11,0,0,11,212.3,751.8)" />
<use xlink:href="#f3_j" transform="matrix(11,0,0,11,571.8,771.1)" />
<use xlink:href="#f3_b" transform="matrix(11,0,0,11,580.3,771.1)" />
<use xlink:href="#f3_o" transform="matrix(11,0,0,11,588.7,771.1)" />
<use xlink:href="#f3_n" transform="matrix(11,0,0,11,597.1,771.1)" />
<use xlink:href="#f3_a" transform="matrix(11,0,0,11,601.6,771.1)" />
<use xlink:href="#f3_b" transform="matrix(11,0,0,11,606.4,771.1)" />
<use xlink:href="#f3_8" transform="matrix(11,0,0,11,137.7,771.1)" />
<use xlink:href="#f3_9" transform="matrix(11,0,0,11,146.1,771.1)" />
<use xlink:href="#f3_h" transform="matrix(11,0,0,11,153.5,771.1)" />
<use xlink:href="#f3_o" transform="matrix(11,0,0,11,160.1,771.1)" />
<use xlink:href="#f3_g" transform="matrix(11,0,0,11,168.5,771.1)" />
<use xlink:href="#f3_8" transform="matrix(11,0,0,11,176.9,771.1)" />
<use xlink:href="#f3_d" transform="matrix(11,0,0,11,185.3,771.1)" />
<use xlink:href="#f3_f" transform="matrix(11,0,0,11,192.6,771.1)" />
<use xlink:href="#f3_i" transform="matrix(11,0,0,11,571.8,790.5)" />
<use xlink:href="#f3_b" transform="matrix(11,0,0,11,579.3,790.5)" />
<use xlink:href="#f3_o" transform="matrix(11,0,0,11,587.7,790.5)" />
<use xlink:href="#f3_8" transform="matrix(11,0,0,11,596.1,790.5)" />
<use xlink:href="#f3_g" transform="matrix(11,0,0,11,604.5,790.5)" />
<use xlink:href="#f3_i" transform="matrix(11,0,0,11,612.9,790.5)" />
<use xlink:href="#f3_n" transform="matrix(11,0,0,11,620.4,790.5)" />
<use xlink:href="#f3_f" transform="matrix(11,0,0,11,625,790.5)" />
<use xlink:href="#f3_f" transform="matrix(11,0,0,11,137.7,790.5)" />
<use xlink:href="#f3_9" transform="matrix(11,0,0,11,143.3,790.5)" />
<use xlink:href="#f3_u" transform="matrix(11,0,0,11,150.7,790.5)" />
<use xlink:href="#f3_f" transform="matrix(11,0,0,11,159,790.5)" />
<use xlink:href="#f3_9" transform="matrix(11,0,0,11,164.6,790.5)" />
<use xlink:href="#f3_h" transform="matrix(11,0,0,11,172.1,790.5)" />
<use xlink:href="#f3_d" transform="matrix(11,0,0,11,178.6,790.5)" />
<use xlink:href="#f3_f" transform="matrix(11,0,0,11,186.1,790.5)" />
<use xlink:href="#f3_8" transform="matrix(11,0,0,11,571.8,809.7)" />
<use xlink:href="#f3_9" transform="matrix(11,0,0,11,580.3,809.7)" />
<use xlink:href="#f3_h" transform="matrix(11,0,0,11,587.7,809.7)" />
<use xlink:href="#f3_e" transform="matrix(11,0,0,11,594.3,809.7)" />
<use xlink:href="#f3_9" transform="matrix(11,0,0,11,602.7,809.7)" />
<use xlink:href="#f3_h" transform="matrix(11,0,0,11,610.1,809.7)" />
<use xlink:href="#f3_a" transform="matrix(11,0,0,11,616.6,809.7)" />
<use xlink:href="#f3_n" transform="matrix(11,0,0,11,621.3,809.7)" />
<use xlink:href="#f3_f" transform="matrix(11,0,0,11,625.9,809.7)" />
<use xlink:href="#f3_f" transform="matrix(11,0,0,11,137.7,809.7)" />
<use xlink:href="#f3_9" transform="matrix(11,0,0,11,143.3,809.7)" />
<use xlink:href="#f3_a" transform="matrix(11,0,0,11,150.6,809.7)" />
<use xlink:href="#f3_b" transform="matrix(11,0,0,11,155.3,809.7)" />
<use xlink:href="#f3_f" transform="matrix(11,0,0,11,163.7,809.7)" />
<use xlink:href="#f3_o" transform="matrix(11,0,0,11,169.4,809.7)" />
<use xlink:href="#f3_d" transform="matrix(11,0,0,11,177.8,809.7)" />
<use xlink:href="#f3_f" transform="matrix(11,0,0,11,185.2,809.7)" />
<use xlink:href="#f3_9" transform="matrix(11,0,0,11,571.8,829.1)" />
<use xlink:href="#f3_o" transform="matrix(11,0,0,11,579.3,829.1)" />
<use xlink:href="#f3_a" transform="matrix(11,0,0,11,587.7,829.1)" />
<use xlink:href="#f3_9" transform="matrix(11,0,0,11,592.4,829.1)" />
<use xlink:href="#f3_o" transform="matrix(11,0,0,11,599.9,829.1)" />
<use xlink:href="#f3_8" transform="matrix(11,0,0,11,608.3,829.1)" />
<use xlink:href="#f3_9" transform="matrix(11,0,0,11,616.6,829.1)" />
<use xlink:href="#f3_f" transform="matrix(11,0,0,11,624,829.1)" />
<use xlink:href="#f3_c" transform="matrix(11,0,0,11,137.7,829.1)" />
<use xlink:href="#f3_d" transform="matrix(11,0,0,11,150.8,829.1)" />
<use xlink:href="#f3_o" transform="matrix(11,0,0,11,158.2,829.1)" />
<use xlink:href="#f3_9" transform="matrix(11,0,0,11,166.6,829.1)" />
<use xlink:href="#f3_1d" transform="matrix(11,0,0,11,174,829.1)" />
<use xlink:href="#f3_d" transform="matrix(11,0,0,11,178.7,829.1)" />
<use xlink:href="#f3_f" transform="matrix(11,0,0,11,186.2,829.1)" />
<use xlink:href="#f3_k" transform="matrix(11,0,0,11,571.8,848.4)" />
<use xlink:href="#f3_9" transform="matrix(11,0,0,11,576.6,848.4)" />
<use xlink:href="#f3_o" transform="matrix(11,0,0,11,584,848.4)" />
<use xlink:href="#f3_a" transform="matrix(11,0,0,11,592.3,848.4)" />
<use xlink:href="#f3_9" transform="matrix(11,0,0,11,597,848.4)" />
<use xlink:href="#f3_h" transform="matrix(11,0,0,11,604.5,848.4)" />
<use xlink:href="#f3_d" transform="matrix(11,0,0,11,137.7,848.4)" />
<use xlink:href="#f3_o" transform="matrix(11,0,0,11,145.1,848.4)" />
<use xlink:href="#f3_a" transform="matrix(11,0,0,11,153.5,848.4)" />
<use xlink:href="#f3_9" transform="matrix(11,0,0,11,158.2,848.4)" />
<use xlink:href="#f3_b" transform="matrix(11,0,0,11,165.7,848.4)" />
<use xlink:href="#f3_1d" transform="matrix(11,0,0,11,174,848.4)" />
<use xlink:href="#f3_b" transform="matrix(11,0,0,11,178.7,848.4)" />
<use xlink:href="#f3_h" transform="matrix(11,0,0,11,187.1,848.4)" />
<use xlink:href="#f3_c" transform="matrix(11,0,0,11,571.8,867.8)" />
<use xlink:href="#f3_d" transform="matrix(11,0,0,11,585,867.8)" />
<use xlink:href="#f3_9" transform="matrix(11,0,0,11,592.4,867.8)" />
<use xlink:href="#f3_h" transform="matrix(11,0,0,11,599.8,867.8)" />
<use xlink:href="#f3_a" transform="matrix(11,0,0,11,606.3,867.8)" />
<use xlink:href="#f3_f" transform="matrix(11,0,0,11,611,867.8)" />
<use xlink:href="#f3_b" transform="matrix(11,0,0,11,616.7,867.8)" />
<use xlink:href="#f3_k" transform="matrix(11,0,0,11,137.7,867.8)" />
<use xlink:href="#f3_n" transform="matrix(11,0,0,11,142.4,867.8)" />
<use xlink:href="#f3_o" transform="matrix(11,0,0,11,147,867.8)" />
<use xlink:href="#f3_8" transform="matrix(11,0,0,11,155.4,867.8)" />
<use xlink:href="#f3_b" transform="matrix(11,0,0,11,163.8,867.8)" />
<use xlink:href="#f3_e" transform="matrix(11,0,0,11,571.8,887)" />
<use xlink:href="#f3_b" transform="matrix(11,0,0,11,580.3,887)" />
<use xlink:href="#f3_k" transform="matrix(11,0,0,11,588.7,887)" />
<use xlink:href="#f3_e" transform="matrix(11,0,0,11,593.4,887)" />
<use xlink:href="#f3_9" transform="matrix(11,0,0,11,601.8,887)" />
<use xlink:href="#f3_f" transform="matrix(11,0,0,11,609.1,887)" />
<use xlink:href="#f3_t" transform="matrix(11,0,0,11,137.7,887)" />
<use xlink:href="#f3_9" transform="matrix(11,0,0,11,146.1,887)" />
<use xlink:href="#f3_f" transform="matrix(11,0,0,11,153.5,887)" />
<use xlink:href="#f3_c" transform="matrix(11,0,0,11,159,887)" />
<use xlink:href="#f3_b" transform="matrix(11,0,0,11,172.1,887)" />
<use xlink:href="#f3_h" transform="matrix(11,0,0,11,180.5,887)" />
<use xlink:href="#f3_b" transform="matrix(11,0,0,11,187.1,887)" />
<use xlink:href="#f3_e" transform="matrix(11,0,0,11,571.8,906.4)" />
<use xlink:href="#f3_b" transform="matrix(11,0,0,11,580.3,906.4)" />
<use xlink:href="#f3_k" transform="matrix(11,0,0,11,588.7,906.4)" />
<use xlink:href="#f3_e" transform="matrix(11,0,0,11,593.4,906.4)" />
<use xlink:href="#f3_9" transform="matrix(11,0,0,11,601.8,906.4)" />
<use xlink:href="#f3_f" transform="matrix(11,0,0,11,609.1,906.4)" />
<use xlink:href="#f3_a" transform="matrix(11,0,0,11,137.7,906.4)" />
<use xlink:href="#f3_b" transform="matrix(11,0,0,11,142.4,906.4)" />
<use xlink:href="#f3_c" transform="matrix(11,0,0,11,150.6,906.4)" />
<use xlink:href="#f3_d" transform="matrix(11,0,0,11,163.8,906.4)" />
<use xlink:href="#f3_f" transform="matrix(11,0,0,11,171.2,906.4)" />
<use xlink:href="#f3_j" transform="matrix(11,0,0,11,571.8,925.7)" />
<use xlink:href="#f3_9" transform="matrix(11,0,0,11,580.3,925.7)" />
<use xlink:href="#f3_j" transform="matrix(11,0,0,11,587.7,925.7)" />
<use xlink:href="#f3_9" transform="matrix(11,0,0,11,596.1,925.7)" />
<use xlink:href="#f3_f" transform="matrix(11,0,0,11,603.6,925.7)" />
<use xlink:href="#f3_m" transform="matrix(11,0,0,11,137.7,925.7)" />
<use xlink:href="#f3_f" transform="matrix(11,0,0,11,146.1,925.7)" />
<use xlink:href="#f3_b" transform="matrix(11,0,0,11,151.7,925.7)" />
<use xlink:href="#f3_y" transform="matrix(11,0,0,11,160.1,925.7)" />
<use xlink:href="#f3_9" transform="matrix(11,0,0,11,165.6,925.7)" />
<use xlink:href="#f3_h" transform="matrix(11,0,0,11,173,925.7)" />
<use xlink:href="#f3_b" transform="matrix(11,0,0,11,179.6,925.7)" />
<use xlink:href="#f3_f" transform="matrix(11,0,0,11,188,925.7)" />
<use xlink:href="#f0_1s" transform="matrix(16,0,0,16,609,989.8)" />
<use xlink:href="#f0_17" transform="matrix(16,0,0,16,615.5,989.8)" />
<use xlink:href="#f0_18" transform="matrix(16,0,0,16,622.2,989.8)" />
<use xlink:href="#f0_1f" transform="matrix(16,0,0,16,634,989.8)" />
<use xlink:href="#f0_1r" transform="matrix(16,0,0,16,640.7,989.8)" />
<use xlink:href="#f0_1x" transform="matrix(16,0,0,16,655.6,989.8)" />
<use xlink:href="#f0_1y" transform="matrix(16,0,0,16,676.5,989.8)" />
<use xlink:href="#f0_1h" transform="matrix(16,0,0,16,692.1,989.8)" />
<use xlink:href="#f0_1x" transform="matrix(16,0,0,16,712.8,989.8)" />
<use xlink:href="#f0_1z" transform="matrix(16,0,0,16,727.2,989.8)" />
<use xlink:href="#f0_17" transform="matrix(16,0,0,16,739.4,989.8)" />
<use xlink:href="#f0_1e" transform="matrix(16,0,0,16,745.9,989.8)" />
<use xlink:href="#f0_1h" transform="matrix(16,0,0,16,758,989.8)" />
<use xlink:href="#f2_c" transform="matrix(12,0,0,12,138.3,1012.2)" />
<use xlink:href="#f2_q" transform="matrix(12,0,0,12,150.2,1012.2)" />
<use xlink:href="#f2_3" transform="matrix(12,0,0,12,157.5,1012.2)" />
<use xlink:href="#f2_c" transform="matrix(12,0,0,12,161.6,1012.2)" />
<use xlink:href="#f2_p" transform="matrix(12,0,0,12,181,1012.2)" />
<use xlink:href="#f2_7" transform="matrix(12,0,0,12,185.9,1012.2)" />
<use xlink:href="#f2_4" transform="matrix(12,0,0,12,190.9,1012.2)" />
<use xlink:href="#f2_3" transform="matrix(12,0,0,12,201.3,1012.2)" />
<use xlink:href="#f2_e" transform="matrix(12,0,0,12,205.4,1012.2)" />
<use xlink:href="#f2_c" transform="matrix(12,0,0,12,217.9,1012.2)" />
<use xlink:href="#f2_a" transform="matrix(12,0,0,12,237.3,1012.2)" />
<use xlink:href="#f2_b" transform="matrix(12,0,0,12,249.3,1012.2)" />
<use xlink:href="#f2_k" transform="matrix(12,0,0,12,259.7,1012.2)" />
<use xlink:href="#f2_e" transform="matrix(12,0,0,12,271.5,1012.2)" />
<use xlink:href="#f2_n" transform="matrix(12,0,0,12,291.4,1012.2)" />
<use xlink:href="#f2_c" transform="matrix(12,0,0,12,297.3,1012.2)" />
<use xlink:href="#f2_l" transform="matrix(12,0,0,12,309.2,1012.2)" />
<use xlink:href="#f2_b" transform="matrix(12,0,0,12,323.2,1012.2)" />
<use xlink:href="#f2_m" transform="matrix(12,0,0,12,333.6,1012.2)" />
<use xlink:href="#f2_h" transform="matrix(12,0,0,12,345,1012.2)" />
<use xlink:href="#f2_d" transform="matrix(12,0,0,12,356.9,1012.2)" />
<use xlink:href="#f2_a" transform="matrix(12,0,0,12,374.9,1012.2)" />
<use xlink:href="#f2_7" transform="matrix(12,0,0,12,387,1012.2)" />
<use xlink:href="#f2_5" transform="matrix(12,0,0,12,391.9,1012.2)" />
<use xlink:href="#f2_3" transform="matrix(12,0,0,12,403.3,1012.2)" />
<use xlink:href="#f2_m" transform="matrix(12,0,0,12,407.4,1012.2)" />
<use xlink:href="#f2_7" transform="matrix(12,0,0,12,418.9,1012.2)" />
<use xlink:href="#f2_e" transform="matrix(12,0,0,12,423.9,1012.2)" />
<use xlink:href="#f2_c" transform="matrix(12,0,0,12,436.4,1012.2)" />
<use xlink:href="#f2_o" transform="matrix(12,0,0,12,455.8,1012.2)" />
<use xlink:href="#f2_3" transform="matrix(12,0,0,12,467.8,1012.2)" />
<use xlink:href="#f2_4" transform="matrix(12,0,0,12,471.9,1012.2)" />
<use xlink:href="#f2_3" transform="matrix(12,0,0,12,482.3,1012.2)" />
<use xlink:href="#f2_e" transform="matrix(12,0,0,12,486.4,1012.2)" />
<use xlink:href="#f2_c" transform="matrix(12,0,0,12,498.9,1012.2)" />
<use xlink:href="#f2_4" transform="matrix(12,0,0,12,518.5,1012.2)" />
<use xlink:href="#f2_f" transform="matrix(12,0,0,12,528.9,1012.2)" />
<use xlink:href="#f2_4" transform="matrix(12,0,0,12,545.9,1012.2)" />
<use xlink:href="#f2_9" transform="matrix(12,0,0,12,556.3,1012.2)" />
<use xlink:href="#f2_p" transform="matrix(12,0,0,12,576.7,1012.2)" />
<use xlink:href="#f2_7" transform="matrix(12,0,0,12,581.8,1012.2)" />
<use xlink:href="#f2_4" transform="matrix(12,0,0,12,586.8,1012.2)" />
<use xlink:href="#f2_3" transform="matrix(12,0,0,12,597.2,1012.2)" />
<use xlink:href="#f2_e" transform="matrix(12,0,0,12,601.2,1012.2)" />
<use xlink:href="#f2_g" transform="matrix(12,0,0,12,621.1,1012.2)" />
<use xlink:href="#f2_b" transform="matrix(12,0,0,12,632.9,1012.2)" />
<use xlink:href="#f2_7" transform="matrix(12,0,0,12,643.3,1012.2)" />
<use xlink:href="#f2_s" transform="matrix(12,0,0,12,648.3,1012.2)" />
<use xlink:href="#f2_e" transform="matrix(12,0,0,12,659,1012.2)" />
<use xlink:href="#f2_b" transform="matrix(12,0,0,12,678.9,1012.2)" />
<use xlink:href="#f2_m" transform="matrix(12,0,0,12,689.3,1012.2)" />
<use xlink:href="#f2_h" transform="matrix(12,0,0,12,700.7,1012.2)" />
<use xlink:href="#f2_c" transform="matrix(12,0,0,12,712.6,1012.2)" />
<use xlink:href="#f2_g" transform="matrix(12,0,0,12,732.2,1012.2)" />
<use xlink:href="#f2_7" transform="matrix(12,0,0,12,743.8,1012.2)" />
<use xlink:href="#f2_h" transform="matrix(12,0,0,12,748.8,1012.2)" />
<use xlink:href="#f2_d" transform="matrix(12,0,0,12,760.7,1012.2)" />
<use xlink:href="#f2_n" transform="matrix(12,0,0,12,406.1,1033.5)" />
<use xlink:href="#f2_o" transform="matrix(12,0,0,12,411.9,1033.5)" />
<use xlink:href="#f2_3" transform="matrix(12,0,0,12,424.1,1033.5)" />
<use xlink:href="#f2_q" transform="matrix(12,0,0,12,428.2,1033.5)" />
<use xlink:href="#f2_7" transform="matrix(12,0,0,12,435.5,1033.5)" />
<use xlink:href="#f2_9" transform="matrix(12,0,0,12,440.6,1033.5)" />
<use xlink:href="#f2_c" transform="matrix(12,0,0,12,453.5,1033.5)" />
<use xlink:href="#f2_o" transform="matrix(12,0,0,12,471.3,1033.5)" />
<use xlink:href="#f2_3" transform="matrix(12,0,0,12,483.5,1033.5)" />
<use xlink:href="#f2_4" transform="matrix(12,0,0,12,487.6,1033.5)" />
<use xlink:href="#f2_3" transform="matrix(12,0,0,12,498,1033.5)" />
<use xlink:href="#f2_u" transform="matrix(12,0,0,12,502.1,1033.5)" />
<use xlink:href="#f2_b" transform="matrix(12,0,0,12,509.6,1033.5)" />
<use xlink:href="#f2_a" transform="matrix(12,0,0,12,520,1033.5)" />
<use xlink:href="#f2_d" transform="matrix(12,0,0,12,532,1033.5)" />
<use xlink:href="#f2_o" transform="matrix(12,0,0,12,548.3,1033.5)" />
<use xlink:href="#f2_3" transform="matrix(12,0,0,12,560.6,1033.5)" />
<use xlink:href="#f2_4" transform="matrix(12,0,0,12,564.7,1033.5)" />
<use xlink:href="#f2_3" transform="matrix(12,0,0,12,575.1,1033.5)" />
<use xlink:href="#f2_e" transform="matrix(12,0,0,12,579,1033.5)" />
<use xlink:href="#f2_9" transform="matrix(12,0,0,12,597.4,1033.5)" />
<use xlink:href="#f2_7" transform="matrix(12,0,0,12,610.3,1033.5)" />
<use xlink:href="#f2_m" transform="matrix(12,0,0,12,615.4,1033.5)" />
<use xlink:href="#f2_3" transform="matrix(12,0,0,12,626.8,1033.5)" />
<use xlink:href="#f2_r" transform="matrix(12,0,0,12,630.9,1033.5)" />
<use xlink:href="#f2_4" transform="matrix(12,0,0,12,642.8,1033.5)" />
<use xlink:href="#f2_b" transform="matrix(12,0,0,12,659,1033.5)" />
<use xlink:href="#f2_l" transform="matrix(12,0,0,12,669.4,1033.5)" />
<use xlink:href="#f2_5" transform="matrix(12,0,0,12,675.8,1033.5)" />
<use xlink:href="#f2_3" transform="matrix(12,0,0,12,693.1,1033.5)" />
<use xlink:href="#f2_4" transform="matrix(12,0,0,12,697.2,1033.5)" />
<use xlink:href="#f2_f" transform="matrix(12,0,0,12,707.6,1033.5)" />
<use xlink:href="#f2_9" transform="matrix(12,0,0,12,723.1,1033.5)" />
<use xlink:href="#f2_e" transform="matrix(12,0,0,12,736.1,1033.5)" />
<use xlink:href="#f2_9" transform="matrix(12,0,0,12,748.5,1033.5)" />
<use xlink:href="#f2_4" transform="matrix(12,0,0,12,761.5,1033.5)" />
<use xlink:href="#f2_v" transform="matrix(12,0,0,12,479.1,1054.9)" />
<use xlink:href="#f2_a" transform="matrix(12,0,0,12,495.3,1054.9)" />
<use xlink:href="#f2_3" transform="matrix(12,0,0,12,507.3,1054.9)" />
<use xlink:href="#f2_h" transform="matrix(12,0,0,12,511.4,1054.9)" />
<use xlink:href="#f2_3" transform="matrix(12,0,0,12,523.3,1054.9)" />
<use xlink:href="#f2_h" transform="matrix(12,0,0,12,527.4,1054.9)" />
<use xlink:href="#f2_d" transform="matrix(12,0,0,12,539.3,1054.9)" />
<use xlink:href="#f2_c" transform="matrix(12,0,0,12,549.9,1054.9)" />
<use xlink:href="#f2_o" transform="matrix(12,0,0,12,570.8,1054.9)" />
<use xlink:href="#f2_a" transform="matrix(12,0,0,12,582.8,1054.9)" />
<use xlink:href="#f2_b" transform="matrix(12,0,0,12,594.9,1054.9)" />
<use xlink:href="#f2_7" transform="matrix(12,0,0,12,605.2,1054.9)" />
<use xlink:href="#f2_s" transform="matrix(12,0,0,12,610.3,1054.9)" />
<use xlink:href="#f2_d" transform="matrix(12,0,0,12,621.1,1054.9)" />
<use xlink:href="#f2_o" transform="matrix(12,0,0,12,640.6,1054.9)" />
<use xlink:href="#f2_3" transform="matrix(12,0,0,12,652.9,1054.9)" />
<use xlink:href="#f2_5" transform="matrix(12,0,0,12,657,1054.9)" />
<use xlink:href="#f2_3" transform="matrix(12,0,0,12,668.4,1054.9)" />
<use xlink:href="#f2_m" transform="matrix(12,0,0,12,672.4,1054.9)" />
<use xlink:href="#f2_7" transform="matrix(12,0,0,12,683.8,1054.9)" />
<use xlink:href="#f2_e" transform="matrix(12,0,0,12,688.7,1054.9)" />
<use xlink:href="#f2_o" transform="matrix(12,0,0,12,710.2,1054.9)" />
<use xlink:href="#f2_3" transform="matrix(12,0,0,12,722.4,1054.9)" />
<use xlink:href="#f2_4" transform="matrix(12,0,0,12,726.6,1054.9)" />
<use xlink:href="#f2_5" transform="matrix(12,0,0,12,737,1054.9)" />
<use xlink:href="#f2_m" transform="matrix(12,0,0,12,748.4,1054.9)" />
<use xlink:href="#f2_c" transform="matrix(12,0,0,12,759.8,1054.9)" />
<use xlink:href="#f3_f" transform="matrix(11,0,0,11,424.7,1054.9)" />
<use xlink:href="#f3_9" transform="matrix(11,0,0,11,430.4,1054.9)" />
<use xlink:href="#f3_u" transform="matrix(11,0,0,11,437.8,1054.9)" />
<use xlink:href="#f3_f" transform="matrix(11,0,0,11,446.1,1054.9)" />
<use xlink:href="#f3_9" transform="matrix(11,0,0,11,451.7,1054.9)" />
<use xlink:href="#f3_h" transform="matrix(11,0,0,11,459.2,1054.9)" />
<use xlink:href="#f3_d" transform="matrix(11,0,0,11,465.7,1054.9)" />
<use xlink:href="#f3_f" transform="matrix(11,0,0,11,473.2,1054.9)" />
<use xlink:href="#f2_o" transform="matrix(12,0,0,12,137.7,1054.9)" />
<use xlink:href="#f2_3" transform="matrix(12,0,0,12,149.9,1054.9)" />
<use xlink:href="#f2_m" transform="matrix(12,0,0,12,154,1054.9)" />
<use xlink:href="#f2_7" transform="matrix(12,0,0,12,165.4,1054.9)" />
<use xlink:href="#f2_u" transform="matrix(12,0,0,12,170.4,1054.9)" />
<use xlink:href="#f2_c" transform="matrix(12,0,0,12,177.9,1054.9)" />
<use xlink:href="#f2_a" transform="matrix(12,0,0,12,198.8,1054.9)" />
<use xlink:href="#f2_7" transform="matrix(12,0,0,12,210.9,1054.9)" />
<use xlink:href="#f2_3" transform="matrix(12,0,0,12,215.9,1054.9)" />
<use xlink:href="#f2_k" transform="matrix(12,0,0,12,220,1054.9)" />
<use xlink:href="#f2_c" transform="matrix(12,0,0,12,231.9,1054.9)" />
<use xlink:href="#f2_a" transform="matrix(12,0,0,12,252.6,1054.9)" />
<use xlink:href="#f2_7" transform="matrix(12,0,0,12,264.7,1054.9)" />
<use xlink:href="#f2_5" transform="matrix(12,0,0,12,269.7,1054.9)" />
<use xlink:href="#f2_3" transform="matrix(12,0,0,12,281.1,1054.9)" />
<use xlink:href="#f2_m" transform="matrix(12,0,0,12,285.3,1054.9)" />
<use xlink:href="#f2_7" transform="matrix(12,0,0,12,296.6,1054.9)" />
<use xlink:href="#f2_e" transform="matrix(12,0,0,12,301.6,1054.9)" />
<use xlink:href="#f2_j" transform="matrix(12,0,0,12,323.1,1054.9)" />
<use xlink:href="#f2_4" transform="matrix(12,0,0,12,335.3,1054.9)" />
<use xlink:href="#f2_b" transform="matrix(12,0,0,12,354.7,1054.9)" />
<use xlink:href="#f2_e" transform="matrix(12,0,0,12,364.9,1054.9)" />
<use xlink:href="#f2_7" transform="matrix(12,0,0,12,377.4,1054.9)" />
<use xlink:href="#f2_4" transform="matrix(12,0,0,12,382.4,1054.9)" />
<use xlink:href="#f2_f" transform="matrix(12,0,0,12,392.8,1054.9)" />
<use xlink:href="#f2_t" transform="matrix(12,0,0,12,411.4,1054.9)" />
<use xlink:href="#f2_x" transform="matrix(12,0,0,12,417.3,1054.9)" />
<use xlink:href="#f2_v" transform="matrix(12,0,0,12,705.5,1076.3)" />
<use xlink:href="#f2_o" transform="matrix(12,0,0,12,718.7,1076.3)" />
<use xlink:href="#f2_3" transform="matrix(12,0,0,12,730.7,1076.3)" />
<use xlink:href="#f2_q" transform="matrix(12,0,0,12,734.8,1076.3)" />
<use xlink:href="#f2_7" transform="matrix(12,0,0,12,742.2,1076.3)" />
<use xlink:href="#f2_9" transform="matrix(12,0,0,12,747.2,1076.3)" />
<use xlink:href="#f2_c" transform="matrix(12,0,0,12,760.2,1076.3)" />
<use xlink:href="#f3_f" transform="matrix(11,0,0,11,592.5,1076.3)" />
<use xlink:href="#f3_9" transform="matrix(11,0,0,11,598,1076.3)" />
<use xlink:href="#f3_u" transform="matrix(11,0,0,11,605.4,1076.3)" />
<use xlink:href="#f3_f" transform="matrix(11,0,0,11,613.8,1076.3)" />
<use xlink:href="#f3_9" transform="matrix(11,0,0,11,619.5,1076.3)" />
<use xlink:href="#f3_h" transform="matrix(11,0,0,11,626.9,1076.3)" />
<use xlink:href="#f3_b" transform="matrix(11,0,0,11,633.5,1076.3)" />
<use xlink:href="#f3_z" transform="matrix(11,0,0,11,641.7,1076.3)" />
<use xlink:href="#f3_f" transform="matrix(11,0,0,11,650.3,1076.3)" />
<use xlink:href="#f3_9" transform="matrix(11,0,0,11,655.8,1076.3)" />
<use xlink:href="#f3_u" transform="matrix(11,0,0,11,663.2,1076.3)" />
<use xlink:href="#f3_f" transform="matrix(11,0,0,11,671.6,1076.3)" />
<use xlink:href="#f3_9" transform="matrix(11,0,0,11,677.3,1076.3)" />
<use xlink:href="#f3_h" transform="matrix(11,0,0,11,684.6,1076.3)" />
<use xlink:href="#f3_d" transform="matrix(11,0,0,11,691.1,1076.3)" />
<use xlink:href="#f3_h" transform="matrix(11,0,0,11,698.6,1076.3)" />
<use xlink:href="#f2_n" transform="matrix(12,0,0,12,561.3,1076.3)" />
<use xlink:href="#f2_x" transform="matrix(12,0,0,12,567.1,1076.3)" />
<use xlink:href="#f2_1b" transform="matrix(12,0,0,12,574.3,1076.3)" />
<use xlink:href="#f2_a" transform="matrix(12,0,0,12,137.7,1097.7)" />
<use xlink:href="#f2_j" transform="matrix(12,0,0,12,149.7,1097.7)" />
<use xlink:href="#f2_a" transform="matrix(12,0,0,12,168.6,1097.7)" />
<use xlink:href="#f2_7" transform="matrix(12,0,0,12,180.7,1097.7)" />
<use xlink:href="#f2_c" transform="matrix(12,0,0,12,185.7,1097.7)" />
<use xlink:href="#f2_l" transform="matrix(12,0,0,12,197.6,1097.7)" />
<use xlink:href="#f2_4" transform="matrix(12,0,0,12,204,1097.7)" />
<use xlink:href="#f2_c" transform="matrix(12,0,0,12,221.2,1097.7)" />
<use xlink:href="#f2_h" transform="matrix(12,0,0,12,233.2,1097.7)" />
<use xlink:href="#f2_q" transform="matrix(12,0,0,12,244.9,1097.7)" />
<use xlink:href="#f2_t" transform="matrix(12,0,0,12,259.1,1097.7)" />
<use xlink:href="#f2_4" transform="matrix(12,0,0,12,264.9,1097.7)" />
<use xlink:href="#f2_5" transform="matrix(12,0,0,12,275.3,1097.7)" />
<use xlink:href="#f2_7" transform="matrix(12,0,0,12,286.8,1097.7)" />
<use xlink:href="#f2_m" transform="matrix(12,0,0,12,291.8,1097.7)" />
<use xlink:href="#f2_j" transform="matrix(12,0,0,12,309.9,1097.7)" />
<use xlink:href="#f2_3" transform="matrix(12,0,0,12,322.2,1097.7)" />
<use xlink:href="#f2_c" transform="matrix(12,0,0,12,326.3,1097.7)" />
<use xlink:href="#f2_3" transform="matrix(12,0,0,12,345,1097.7)" />
<use xlink:href="#f2_f" transform="matrix(12,0,0,12,349.1,1097.7)" />
<use xlink:href="#f2_b" transform="matrix(12,0,0,12,365.4,1097.7)" />
<use xlink:href="#f2_9" transform="matrix(12,0,0,12,375.8,1097.7)" />
<use xlink:href="#f2_8" transform="matrix(12,0,0,12,388.8,1097.7)" />
<use xlink:href="#f2_c" transform="matrix(12,0,0,12,401.8,1097.7)" />
<use xlink:href="#f2_c" transform="matrix(12,0,0,12,413.7,1097.7)" />
<use xlink:href="#f2_e" transform="matrix(12,0,0,12,425.6,1097.7)" />
<use xlink:href="#f2_2" transform="matrix(12,0,0,12,445,1097.7)" />
<use xlink:href="#f2_4" transform="matrix(12,0,0,12,454.7,1097.7)" />
<use xlink:href="#f2_b" transform="matrix(12,0,0,12,471.8,1097.7)" />
<use xlink:href="#f2_7" transform="matrix(12,0,0,12,482.2,1097.7)" />
<use xlink:href="#f2_b" transform="matrix(12,0,0,12,487.2,1097.7)" />
<use xlink:href="#f2_d" transform="matrix(12,0,0,12,497.6,1097.7)" />
<use xlink:href="#f2_2" transform="matrix(12,0,0,12,514.8,1097.7)" />
<use xlink:href="#f2_j" transform="matrix(12,0,0,12,524.6,1097.7)" />
<use xlink:href="#f2_a" transform="matrix(12,0,0,12,543.7,1097.7)" />
<use xlink:href="#f2_b" transform="matrix(12,0,0,12,555.6,1097.7)" />
<use xlink:href="#f2_f" transform="matrix(12,0,0,12,566,1097.7)" />
<use xlink:href="#f2_7" transform="matrix(12,0,0,12,575.6,1097.7)" />
<use xlink:href="#f2_e" transform="matrix(12,0,0,12,580.6,1097.7)" />
<use xlink:href="#f2_j" transform="matrix(12,0,0,12,599.8,1097.7)" />
<use xlink:href="#f2_4" transform="matrix(12,0,0,12,612.1,1097.7)" />
<use xlink:href="#f2_c" transform="matrix(12,0,0,12,629.3,1097.7)" />
<use xlink:href="#f2_4" transform="matrix(12,0,0,12,641.2,1097.7)" />
<use xlink:href="#f2_3" transform="matrix(12,0,0,12,651.6,1097.7)" />
<use xlink:href="#f2_e" transform="matrix(12,0,0,12,655.7,1097.7)" />
<use xlink:href="#f2_d" transform="matrix(12,0,0,12,668.2,1097.7)" />
<use xlink:href="#f2_a" transform="matrix(12,0,0,12,685.5,1097.7)" />
<use xlink:href="#f2_4" transform="matrix(12,0,0,12,697.5,1097.7)" />
<use xlink:href="#f2_8" transform="matrix(12,0,0,12,707.9,1097.7)" />
<use xlink:href="#f2_a" transform="matrix(12,0,0,12,720.9,1097.7)" />
<use xlink:href="#f2_q" transform="matrix(12,0,0,12,732.9,1097.7)" />
<use xlink:href="#f2_o" transform="matrix(12,0,0,12,746.9,1097.7)" />
<use xlink:href="#f2_j" transform="matrix(12,0,0,12,759.2,1097.7)" />
<use xlink:href="#f2_n" transform="matrix(12,0,0,12,653.3,1119.1)" />
<use xlink:href="#f2_3" transform="matrix(12,0,0,12,659.1,1119.1)" />
<use xlink:href="#f2_b" transform="matrix(12,0,0,12,663.2,1119.1)" />
<use xlink:href="#f2_7" transform="matrix(12,0,0,12,673.6,1119.1)" />
<use xlink:href="#f2_8" transform="matrix(12,0,0,12,678.6,1119.1)" />
<use xlink:href="#f2_e" transform="matrix(12,0,0,12,691.6,1119.1)" />
<use xlink:href="#f2_c" transform="matrix(12,0,0,12,704.1,1119.1)" />
<use xlink:href="#f2_4" transform="matrix(12,0,0,12,721.8,1119.1)" />
<use xlink:href="#f2_5" transform="matrix(12,0,0,12,732.2,1119.1)" />
<use xlink:href="#f2_7" transform="matrix(12,0,0,12,743.7,1119.1)" />
<use xlink:href="#f2_m" transform="matrix(12,0,0,12,748.7,1119.1)" />
<use xlink:href="#f2_c" transform="matrix(12,0,0,12,760.1,1119.1)" />
<use xlink:href="#f2_13" transform="matrix(11,0,0,11,137.5,1208.9)" />
<use xlink:href="#f2_1c" transform="matrix(11,0,0,11,148.2,1208.9)" />
</g>
</g>
<defs>
<path d="M235,-20c0,0,-31,0,-51,19c0,0,-21,18,-21,50c0,0,0,65,39,120c0,0,39,54,125,109c0,0,56,35,87,56c0,0,32,20,46,33c0,0,79,45,79,143c0,0,0,27,-7,65c0,0,-8,39,-27,49c0,0,-19,10,-85,10H110c0,0,-36,0,-53,21c0,0,-17,22,-25,71c0,0,-7,49,-7,134c0,0,0,62,27,122c0,0,8,15,8,34c0,0,0,23,-35,37c0,0,-21,7,-30,29c0,0,-9,22,-9,72c0,0,0,24,10,46c0,0,8,22,25,38c0,0,16,16,26,16c0,0,17,0,17,-14c0,0,0,-9,7,-17c0,0,7,-8,34,-14c0,0,65,-15,81,-26c0,0,15,-10,15,-31c0,0,0,-15,-15,-38c0,0,-15,-22,-33,-53c0,0,-19,-30,-34,-67c0,0,-15,-36,-15,-79c0,0,0,-43,14,-56c0,0,15,-14,54,-14H518c0,0,39,0,63,-17c0,0,23,-16,33,-53c0,0,10,-36,17,-89c0,0,6,-52,6,-93c0,0,0,-99,-9,-144c0,0,-9,-44,-40,-80c0,0,-31,-36,-110,-86c0,0,-112,-71,-138,-95c0,0,-26,-23,-36,-44c0,0,-9,-20,-9,-43c0,0,0,-11,5,-26c0,0,6,-15,6,-26c0,0,0,-32,-20,-50c0,0,-20,-19,-51,-19Z" 
id="f0_18"
transform="scale(0.001,-0.001)" />

<path d="M204,-8c0,0,-9,0,-11,5c0,0,-2,5,-2,22V549c0,0,0,40,-4,56c0,0,-4,16,-15,22c0,0,-10,7,-39,7H90c0,0,-33,0,-52,33c0,0,-19,33,-19,90c0,0,0,53,15,98c0,0,16,44,35,44c0,0,12,0,12,-13V872c0,0,0,-27,31,-27h42c0,0,79,0,103,-20c0,0,23,-19,23,-83V67c0,0,0,-16,-8,-26c0,0,-9,-10,-33,-30c0,0,-25,-19,-35,-19Z" 
id="f0_17"
transform="scale(0.001,-0.001)" />

<path d="M423,-13c0,0,-9,0,-14,7c0,0,-5,6,-10,23c0,0,-13,51,-37,108c0,0,-25,58,-55,101c0,0,-21,-37,-51,-115C256,111,225,34,216,0H12L55,212h99c0,0,51,0,72,12c0,0,20,12,40,58c0,0,20,46,18,98V543c0,0,0,46,-7,61c0,0,-7,15,-23,22c0,0,-17,8,-50,8H189c0,0,-76,0,-76,115c0,0,0,56,16,103c0,0,16,47,33,47c0,0,14,0,14,-15c0,0,0,-17,9,-28c0,0,10,-11,40,-11h21c0,0,60,0,85,-8c0,0,25,-9,39,-26c0,0,13,-18,13,-49c0,0,0,-20,-4,-43c0,0,-5,-23,-10,-53c0,0,-6,-31,-10,-71c0,0,-5,-41,-5,-97c0,0,0,-150,62,-269c0,0,28,-58,38,-90l9,-65c0,0,0,-27,-13,-57c0,0,-13,-30,-27,-30Z" 
id="f0_19"
transform="scale(0.001,-0.001)" />

<path d="M554,-8c0,0,-9,0,-11,6c0,0,-2,5,-2,24V548c0,0,0,38,-5,56c0,0,-4,18,-15,25c0,0,-12,7,-41,7H90c0,0,-33,0,-52,33c0,0,-19,33,-19,90c0,0,0,54,15,97c0,0,14,43,30,43c0,0,17,0,17,-13V872c0,0,0,-9,7,-18c0,0,7,-9,27,-9H512c0,0,54,0,77,-8c0,0,23,-9,33,-28c0,0,9,-20,9,-67V81c0,0,0,-31,-27,-53L583,9C583,9,563,-8,554,-8Z" 
id="f0_1a"
transform="scale(0.001,-0.001)" />

<path d="M721,-14c0,0,-12,0,-12,9l4,28c0,0,17,82,17,338c0,0,0,105,-11,163c0,0,-11,58,-35,84c0,0,-25,26,-83,26H315c0,0,-43,-39,-67,-90c0,0,-25,-51,-25,-104c0,0,0,-59,17,-104c0,0,17,-45,35,-78c0,0,18,-34,18,-44c0,0,0,-26,-20,-95C273,119,252,50,231,0H26L87,214h69c0,0,23,0,23,14l-7,15c0,0,-15,27,-27,68c0,0,-11,41,-11,83c0,0,0,68,25,124c0,0,25,57,86,116H200c0,0,-45,0,-71,32c0,0,-27,33,-27,94c0,0,0,49,17,93c0,0,16,43,32,43c0,0,17,0,17,-10V869c0,0,0,-24,27,-24H637c0,0,73,0,103,-18c0,0,30,-17,46,-62c0,0,17,-46,24,-124c0,0,8,-78,8,-214V338c0,0,0,-279,-27,-311c0,0,-14,-16,-37,-28c0,0,-23,-13,-33,-13Z" 
id="f0_1b"
transform="scale(0.001,-0.001)" />

<path d="M345,75c0,0,50,0,110,26V351l-63,-2c0,0,-72,-3,-100,-38c0,0,-28,-35,-28,-113c0,0,0,-63,22,-93c0,0,23,-30,59,-30ZM266,-14c0,0,-217,0,-217,208c0,0,0,79,32,126c0,0,32,48,93,71c0,0,60,22,190,25l91,2V521c0,0,0,126,-104,126c0,0,-62,0,-140,-39L183,521H134V691c0,0,112,17,165,21c0,0,53,5,108,5c0,0,264,0,264,-194V67L741,49V0H483L466,54C466,54,408,14,361,0c0,0,-47,-14,-95,-14Z" 
id="f0_3"
transform="scale(0.001,-0.001)" />

<path d="M438,65c0,0,131,0,131,293c0,0,0,279,-130,279c0,0,-69,0,-127,-29V80c0,0,60,-15,126,-15ZM20,-325v50l76,18V634L19,652v49H304l1,-36c0,0,80,55,194,55c0,0,146,0,218,-86c0,0,71,-86,71,-271c0,0,0,-183,-83,-280c0,0,-83,-97,-238,-97c0,0,-79,0,-160,19c0,0,5,-48,5,-109V-257l103,-18v-50Z" 
id="f0_b"
transform="scale(0.001,-0.001)" />

<path d="M41,0V49l91,18V634L41,652v49H336l8,-145c0,0,80,89,144,128c0,0,64,40,117,40h40V468H604l-45,94c0,0,-47,0,-106,-21c0,0,-60,-20,-105,-48V67L460,49V0Z" 
id="f0_u"
transform="scale(0.001,-0.001)" />

<path d="M425,-14c0,0,-187,0,-280,90c0,0,-93,90,-93,276c0,0,0,115,42,198c0,0,43,82,121,126c0,0,78,44,182,44c0,0,104,0,227,-26V486H571L539,609c0,0,-25,19,-50,26c0,0,-24,7,-65,7c0,0,-44,0,-79,-35c0,0,-36,-35,-56,-98c0,0,-20,-64,-20,-153c0,0,0,-150,47,-214c0,0,47,-64,148,-64c0,0,103,0,176,21V42C640,42,606,15,547,0c0,0,-59,-14,-122,-14Z" 
id="f0_5"
transform="scale(0.001,-0.001)" />

<path d="M327,-14c0,0,-101,0,-156,45c0,0,-55,45,-55,131V624H25v48l108,29l87,159H332V701H480V624H332V176c0,0,0,-49,20,-73c0,0,20,-25,53,-25c0,0,40,0,97,12V26c0,0,-22,-15,-76,-27c0,0,-55,-13,-99,-13Z" 
id="f0_s"
transform="scale(0.001,-0.001)" />

<path d="M34,0V49l76,18V634L38,652v49H325V67L402,49V0ZM217,831c0,0,-48,0,-81,33c0,0,-34,33,-34,82c0,0,0,48,34,81c0,0,34,33,81,33c0,0,48,0,81,-33c0,0,33,-33,33,-81c0,0,0,-47,-33,-81c0,0,-32,-34,-81,-34Z" 
id="f0_7"
transform="scale(0.001,-0.001)" />

<path d="M248,0L521,658H66v429H313V836l493,-1V716L504,0Z" 
id="f1_d"
transform="scale(0.001,-0.001)" />

<path d="M102,250V836H349V351L102,250Z" 
id="f1_i"
transform="scale(0.001,-0.001)" />

<path d="M154,-13c0,0,-38,0,-85,9V198c0,0,58,-15,103,-15c0,0,84,0,118,60c0,0,35,61,35,206c0,0,0,66,-7,105c0,0,-6,39,-24,63c0,0,-17,25,-44,33c0,0,-27,8,-73,8H66V836H225c0,0,198,0,275,-115c0,0,56,-84,65,-264c0,0,3,-55,3,-148c0,0,0,-177,71,-309L393,1c0,0,-53,130,-54,141c0,0,-28,-90,-65,-123c0,0,-38,-32,-120,-32Z" 
id="f1_q"
transform="scale(0.001,-0.001)" />

<path d="M534,0V425c0,0,0,109,-41,171c0,0,-41,62,-140,62H66V836H352c0,0,99,0,174,-20c0,0,75,-20,123,-55c0,0,48,-35,78,-87c0,0,30,-53,42,-113c0,0,12,-60,12,-136V0Z" 
id="f1_4"
transform="scale(0.001,-0.001)" />

<path d="M173,-6C173,-6,61,-6,15,9V177c0,0,73,-10,82,-10c0,0,37,0,52,30c0,0,14,29,14,116V658H18V836H516c0,0,262,0,341,-145c0,0,48,-89,48,-242V0H658V450c0,0,0,131,-37,171c0,0,-34,37,-105,37H411V313c0,0,0,-189,-67,-258C344,55,285,-6,173,-6Z" 
id="f1_7"
transform="scale(0.001,-0.001)" />

<path d="M532,159c0,0,79,0,122,44c0,0,42,44,42,126c0,0,0,82,-42,126c0,0,-43,44,-122,44c0,0,-81,0,-124,-44c0,0,-43,-44,-43,-126c0,0,0,-82,43,-126c0,0,43,-44,124,-44Zm0,520c0,0,67,0,104,35c0,0,37,36,37,102c0,0,0,67,-37,102c0,0,-37,35,-104,35c0,0,-69,0,-106,-35c0,0,-37,-36,-37,-102c0,0,0,-66,37,-102c0,0,37,-35,106,-35Zm0,-699c0,0,-218,0,-328,83C204,63,93,148,93,314c0,0,0,107,58,178c0,0,58,70,171,101c0,0,-102,31,-153,94c0,0,-52,64,-52,159c0,0,0,141,106,214c0,0,105,74,309,74c0,0,202,0,307,-73c0,0,106,-74,106,-215c0,0,0,-95,-52,-159c0,0,-52,-63,-154,-94c0,0,113,-31,171,-101c0,0,58,-71,58,-178c0,0,0,-166,-110,-251c0,0,-110,-83,-326,-83Z" 
id="f1_1f"
transform="scale(0.001,-0.001)" />

<path d="M179,0V190H336V0Zm0,600V790H336V600Z" 
id="f2_12"
transform="scale(0.001,-0.001)" />

<path d="M139,-317V836H278V-317Z" 
id="f2_p"
transform="scale(0.001,-0.001)" />

<path d="M139,0V106H400c0,0,176,0,253,71c0,0,78,72,78,250c0,0,0,163,-80,233c0,0,-81,69,-250,69H278L277,564c0,0,-1,-54,26,-80c0,0,27,-25,82,-25c0,0,30,0,80,9V355c0,0,-61,-12,-111,-12c0,0,-100,0,-157,55c0,0,-58,55,-58,186V836H456c0,0,193,0,303,-109c0,0,110,-109,110,-309c0,0,0,-200,-110,-309C759,109,648,0,456,0Z" 
id="f2_m"
transform="scale(0.001,-0.001)" />

<path d="M139,0V836H278V0Z" 
id="f2_7"
transform="scale(0.001,-0.001)" />

<path d="M495,0V729H66V836H781V729H634V0Z" 
id="f2_i"
transform="scale(0.001,-0.001)" />

<path d="M154,0V454l138,56V0ZM722,0V454c0,0,0,161,-49,218c0,0,-48,57,-186,57H139V836H485c0,0,207,0,291,-93c0,0,83,-94,83,-318V0Z" 
id="f2_c"
transform="scale(0.001,-0.001)" />

<path d="M112,-5c0,0,-39,0,-97,11V113c0,0,48,-10,77,-10c0,0,53,0,70,42c0,0,17,43,17,164V729H50V836H501c0,0,107,0,179,-25c0,0,72,-25,112,-77c0,0,40,-51,57,-118c0,0,16,-67,16,-164V0H726V454c0,0,0,55,-3,92c0,0,-4,37,-17,75c0,0,-14,38,-38,59c0,0,-24,22,-65,36c0,0,-42,13,-102,13H318V309c0,0,0,-160,-46,-237C272,72,226,-5,112,-5Z" 
id="f2_a"
transform="scale(0.001,-0.001)" />

<path d="M139,0V138c0,0,0,61,8,112c0,0,7,52,19,87c0,0,11,36,30,66c0,0,19,31,35,49c0,0,17,19,41,35c0,0,25,17,41,25c0,0,17,7,40,17L141,836H303L613,388c0,0,20,10,33,18c0,0,13,8,34,28c0,0,20,20,33,44c0,0,13,25,22,66c0,0,10,41,10,92V836H882V698c0,0,0,-61,-7,-112c0,0,-6,-52,-18,-88c0,0,-12,-36,-30,-66c0,0,-19,-30,-36,-49c0,0,-17,-18,-41,-34c0,0,-24,-17,-40,-25c0,0,-17,-8,-41,-17L882,0H720L409,448c0,0,-21,-11,-34,-19c0,0,-13,-8,-34,-27c0,0,-21,-20,-34,-44c0,0,-12,-25,-22,-66c0,0,-9,-41,-9,-92V0Z" 
id="f2_j"
transform="scale(0.001,-0.001)" />

<path d="M66,0V106H564L66,836H228L516,413c0,0,3,2,9,6c0,0,17,13,27,21c0,0,10,8,26,27c0,0,17,20,26,40c0,0,9,21,16,54c0,0,7,34,7,75V836H764V698c0,0,0,-55,-7,-102c0,0,-7,-47,-16,-79c0,0,-10,-33,-27,-62c0,0,-18,-29,-32,-46c0,0,-14,-17,-37,-35c0,0,-22,-17,-36,-25c0,0,-13,-8,-36,-20L767,53V0Z" 
id="f2_s"
transform="scale(0.001,-0.001)" />

<path d="M102,312V836H241V369L102,312Z" 
id="f2_3"
transform="scale(0.001,-0.001)" />

<path d="M287,0L589,729H66v386H205V836l547,-1l-2,-82L433,0Z" 
id="f2_4"
transform="scale(0.001,-0.001)" />

<path d="M114,0l60,312c0,0,2,12,8,39c0,0,6,27,7,37c0,0,2,11,5,30c0,0,2,19,4,33c0,0,1,15,1,31c0,0,0,48,-35,146c0,0,-35,98,-98,208H228c0,0,3,-8,27,-67c0,0,25,-58,41,-117c0,0,21,53,50,90c0,0,29,37,57,57c0,0,29,21,65,32c0,0,37,11,65,14c0,0,28,3,67,3c0,0,300,0,300,-396V0H480V106H761V452c0,0,0,146,-46,215c0,0,-45,70,-118,70c0,0,-134,0,-198,-119c0,0,-36,-68,-67,-222c0,0,-2,-10,-6,-27L253,0Z" 
id="f2_e"
transform="scale(0.001,-0.001)" />

<path d="M522,92c0,0,247,0,247,333c0,0,0,88,-17,146c0,0,-17,58,-53,91c0,0,-35,33,-82,46c0,0,-48,14,-116,14H276V419c0,0,0,-327,246,-327Zm0,-112c0,0,-193,0,-289,109c0,0,-95,110,-95,337V836H501c0,0,213,0,309,-93c0,0,96,-94,96,-317c0,0,0,-227,-95,-337C811,89,715,-20,522,-20Z" 
id="f2_h"
transform="scale(0.001,-0.001)" />

<path d="M74,365V472H689V365Z" 
id="f2_11"
transform="scale(0.001,-0.001)" />

<path d="M64,0V34L168,59V639H47v36l121,29v49c0,0,0,155,61,239c0,0,62,84,173,84c0,0,58,0,107,-15V908H472l-33,92c0,0,-26,16,-62,16c0,0,-47,0,-66,-42c0,0,-19,-42,-19,-157V701H478V639H292V59L443,34V0Z" 
id="f3_y"
transform="scale(0.001,-0.001)" />

<path d="M495,413c0,0,0,133,-34,190c0,0,-34,57,-105,57c0,0,-78,0,-119,-63c0,0,-42,-62,-42,-184ZM374,-14c0,0,-163,0,-239,87c0,0,-75,88,-75,283c0,0,0,183,77,273c0,0,76,91,219,91c0,0,269,0,269,-306V353H194V340c0,0,0,-103,23,-160c0,0,22,-57,70,-87c0,0,47,-29,124,-29c0,0,40,0,96,6c0,0,55,7,91,15V43C598,43,562,20,500,3c0,0,-61,-17,-126,-17Z" 
id="f3_9"
transform="scale(0.001,-0.001)" />

<path d="M377,45c0,0,99,0,147,73c0,0,47,73,47,237c0,0,0,161,-47,233c0,0,-47,72,-147,72c0,0,-97,0,-141,-69c0,0,-44,-69,-44,-236c0,0,0,-169,45,-240c0,0,44,-70,140,-70Zm0,-59c0,0,-158,0,-238,94c0,0,-81,95,-81,274c0,0,0,178,81,272c0,0,80,94,244,94c0,0,160,0,241,-92c0,0,82,-92,82,-274c0,0,0,-368,-329,-368Z" 
id="f3_b"
transform="scale(0.001,-0.001)" />

<path d="M442,0V33l93,19V504c0,0,0,129,-124,129c0,0,-70,0,-168,-22V52L338,33V0H31V33l88,19v956L15,1026v34H243V756c0,0,0,-77,-5,-112c0,0,54,31,122,53c0,0,68,23,115,23c0,0,91,0,137,-53c0,0,47,-53,47,-154V52L744,33V0Z" 
id="f3_t"
transform="scale(0.001,-0.001)" />

<path d="M31,0V33l88,19V649L31,668v33H235l7,-87c0,0,44,37,121,71c0,0,76,35,121,35h11V530H463l-43,82c0,0,-37,0,-88,-10c0,0,-52,-10,-89,-26V52L363,33V0Z" 
id="f3_f"
transform="scale(0.001,-0.001)" />

<path d="M431,0V33L535,52V499c0,0,0,62,-32,96c0,0,-32,33,-95,33c0,0,-66,0,-163,-22V52L350,33V0H32V33l89,19V649L32,668v33H237l6,-57c0,0,56,32,119,54c0,0,62,22,110,22c0,0,52,0,95,-20c0,0,44,-19,66,-62c0,0,57,32,134,57c0,0,77,25,128,25c0,0,179,0,179,-207V52l90,-19V0H846V33L950,52V499c0,0,0,129,-119,129c0,0,-19,0,-45,-3c0,0,-26,-3,-52,-7c0,0,-25,-4,-49,-8c0,0,-23,-5,-39,-8c0,0,13,-41,13,-89V52L764,33V0Z" 
id="f3_c"
transform="scale(0.001,-0.001)" />

<path d="M278,-14c0,0,-52,0,-115,11c0,0,-63,10,-99,23V193H98L134,95c0,0,56,-50,146,-50c0,0,144,0,144,123c0,0,0,91,-114,130l-66,21c0,0,-75,25,-110,50c0,0,-34,26,-53,63c0,0,-18,36,-18,89c0,0,0,92,63,145c0,0,63,54,170,54c0,0,77,0,193,-23V544H454l-32,81c0,0,-39,35,-124,35c0,0,-61,0,-92,-30c0,0,-32,-30,-32,-80c0,0,0,-43,29,-72c0,0,28,-29,86,-48c0,0,110,-38,144,-55c0,0,33,-17,57,-42c0,0,23,-25,36,-57c0,0,13,-32,13,-79c0,0,0,-104,-66,-158c0,0,-66,-53,-195,-53Z" 
id="f3_h"
transform="scale(0.001,-0.001)" />

<path d="M31,0V33L150,52v956L31,1026v34H274V52L394,33V0Z" 
id="f3_k"
transform="scale(0.001,-0.001)" />

<path d="M32,0V33L151,52V649L52,668v33H275V52L395,33V0ZM201,850c0,0,-32,0,-56,24c0,0,-24,24,-24,56c0,0,0,34,24,58c0,0,24,24,56,24c0,0,34,0,58,-24c0,0,24,-24,24,-58c0,0,0,-32,-24,-56c0,0,-24,-24,-58,-24Z" 
id="f3_n"
transform="scale(0.001,-0.001)" />

<path d="M439,0V33l93,19V500c0,0,0,62,-30,97c0,0,-31,36,-94,36c0,0,-67,0,-165,-22V52L338,33V0H35V33l84,19V649L35,668v33H235l7,-57c0,0,57,33,122,54c0,0,65,22,108,22c0,0,91,0,137,-53c0,0,47,-53,47,-154V52L741,33V0Z" 
id="f3_o"
transform="scale(0.001,-0.001)" />

<path d="M383,64c0,0,85,0,152,28V645c0,0,-67,13,-152,13c0,0,-194,0,-194,-314c0,0,0,-141,48,-211c0,0,48,-69,146,-69ZM342,-14c0,0,-287,0,-287,358c0,0,0,184,82,280c0,0,81,96,239,96c0,0,81,0,163,-18c0,0,-4,25,-4,124v182l-118,18v34H659V52L745,33V0H548l-9,52c0,0,-84,-66,-197,-66Z" 
id="f3_8"
transform="scale(0.001,-0.001)" />

<path d="M376,50c0,0,103,0,149,80c0,0,46,81,46,240c0,0,0,137,-47,204c0,0,-48,67,-148,67c0,0,-44,0,-87,-7c0,0,-44,-8,-63,-17V62c0,0,63,-12,150,-12Zm3,-64c0,0,-64,0,-141,14c0,0,-78,14,-136,37v971L0,1026v34H226V809c0,0,0,-40,-4,-148c0,0,74,59,188,59c0,0,143,0,219,-87c0,0,77,-87,77,-263c0,0,0,-189,-84,-287c0,0,-84,-97,-243,-97Z" 
id="f3_j"
transform="scale(0.001,-0.001)" />

<path d="M249,-14c0,0,-71,0,-107,42c0,0,-35,42,-35,119V639H15v33l93,29l76,159h47V701H391V639H231V161c0,0,0,-48,22,-73c0,0,22,-24,57,-24c0,0,44,0,106,12V26C416,26,389,8,340,-2c0,0,-49,-12,-91,-12Z" 
id="f3_a"
transform="scale(0.001,-0.001)" />

<path d="M360,-14L72,649L0,668v33H327V668L216,648L420,164L615,649L504,668v33H764V668L697,652L416,-14Z" 
id="f3_e"
transform="scale(0.001,-0.001)" />

<path d="M359,-270c0,0,124,0,192,46c0,0,67,47,67,129c0,0,0,43,-26,67c0,0,-26,24,-79,24H242c0,0,-32,-27,-51,-69c0,0,-20,-41,-20,-77c0,0,0,-64,46,-92c0,0,46,-28,142,-28Zm11,561c0,0,81,0,115,47c0,0,34,47,34,141c0,0,0,100,-35,142c0,0,-35,42,-113,42c0,0,-78,0,-114,-43c0,0,-37,-42,-37,-141c0,0,0,-98,36,-143c0,0,36,-45,114,-45ZM359,-329c0,0,-143,0,-218,44c0,0,-75,43,-75,125c0,0,0,39,27,78c0,0,26,38,98,89c0,0,-43,14,-72,48c0,0,-29,35,-29,74L208,262c0,0,-118,55,-118,217c0,0,0,115,73,178c0,0,73,63,211,63c0,0,28,0,71,-6c0,0,44,-6,67,-13l165,83l26,-32L599,644c0,0,50,-56,50,-165c0,0,0,-120,-72,-182c0,0,-73,-62,-208,-62c0,0,-62,0,-114,11L208,148c0,0,2,-13,29,-24c0,0,27,-12,67,-12H512c0,0,113,0,168,-49c0,0,55,-49,55,-134c0,0,0,-79,-44,-137c0,0,-43,-58,-128,-90c0,0,-84,-31,-204,-31Z" 
id="f3_u"
transform="scale(0.001,-0.001)" />

<path d="M284,67c0,0,51,0,88,12c0,0,37,12,74,30V358l-98,-3c0,0,-100,-4,-135,-39c0,0,-35,-35,-35,-117c0,0,0,-132,106,-132ZM233,-14c0,0,-179,0,-179,208c0,0,0,70,27,116c0,0,27,46,87,70c0,0,60,24,173,27l105,3V519c0,0,0,72,-26,107c0,0,-27,34,-82,34c0,0,-75,0,-137,-35L176,538H134V691c0,0,121,26,213,26c0,0,115,0,169,-47c0,0,54,-47,54,-144V52L657,33V0H465L451,70c0,0,-85,-84,-218,-84Z" 
id="f3_d"
transform="scale(0.001,-0.001)" />

<path d="M399,-14c0,0,-341,0,-341,370c0,0,0,175,87,269c0,0,87,95,249,95c0,0,101,0,220,-23V501H573L541,625c0,0,-62,35,-149,35c0,0,-200,0,-200,-304c0,0,0,-158,61,-225c0,0,61,-67,189,-67c0,0,109,0,189,24V43C631,43,595,16,530,1c0,0,-64,-15,-131,-15Z" 
id="f3_i"
transform="scale(0.001,-0.001)" />

<path d="M289,-14c0,0,-179,0,-179,205V649L20,668v33H233V200c0,0,0,-128,120,-128c0,0,92,0,173,23V649L420,668v33H649V52L738,33V0H533l-6,57C527,57,474,28,405,7c0,0,-69,-21,-116,-21Z" 
id="f3_g"
transform="scale(0.001,-0.001)" />

<path d="M377,44c0,0,99,0,147,73c0,0,47,73,47,237c0,0,0,161,-47,234c0,0,-47,72,-147,72c0,0,-97,0,-141,-69c0,0,-44,-70,-44,-237c0,0,0,-169,45,-239c0,0,44,-71,140,-71Zm0,-58c0,0,-158,0,-238,94c0,0,-81,95,-81,274c0,0,0,178,81,272c0,0,80,94,244,94c0,0,160,0,241,-92c0,0,82,-92,82,-274c0,0,0,-368,-329,-368ZM301,835v24l147,203H606v-27L342,835Z" 
id="f3_15"
transform="scale(0.001,-0.001)" />

<path d="M64,-325c0,0,-46,0,-107,14v148H-8l19,-81c0,0,25,-21,62,-21c0,0,44,0,67,47c0,0,22,47,22,152V649L57,668v33H286V-28c0,0,0,-146,-57,-221c0,0,-56,-76,-165,-76ZM213,850c0,0,-34,0,-58,24c0,0,-24,24,-24,56c0,0,0,34,24,58c0,0,24,24,58,24c0,0,32,0,56,-24c0,0,24,-24,24,-58c0,0,0,-32,-24,-56c0,0,-24,-24,-56,-24Z" 
id="f3_1d"
transform="scale(0.001,-0.001)" />

<path d="M382,45c0,0,188,0,188,314c0,0,0,143,-47,213c0,0,-46,69,-141,69c0,0,-87,0,-146,-24V58c0,0,67,-13,146,-13ZM25,-325v35l88,18V649L34,668v33H231l1,-41c0,0,31,27,84,43c0,0,53,17,107,17c0,0,134,0,208,-94c0,0,73,-93,73,-267c0,0,0,-178,-80,-276c0,0,-80,-97,-232,-97c0,0,-84,0,-160,16c0,0,4,-53,4,-84V-272l123,-18v-35Z" 
id="f3_m"
transform="scale(0.001,-0.001)" />

<path d="M41,0V34L426,641H261c0,0,-42,0,-80,-7c0,0,-39,-7,-54,-19L104,515H69V701H586V665L201,60H407c0,0,42,0,89,10c0,0,47,10,66,25l39,147h35L617,0Z" 
id="f3_13"
transform="scale(0.001,-0.001)" />

<path d="M284,67c0,0,51,0,88,12c0,0,37,11,74,29V357l-98,-3c0,0,-100,-3,-135,-38c0,0,-35,-36,-35,-118c0,0,0,-131,106,-131ZM233,-14c0,0,-179,0,-179,208c0,0,0,70,27,116c0,0,27,46,87,70c0,0,60,24,173,27l105,3V519c0,0,0,73,-26,107c0,0,-27,34,-82,34c0,0,-75,0,-137,-35L176,538H134V691c0,0,121,26,213,26c0,0,115,0,169,-47c0,0,54,-47,54,-144V52L657,34V0H465L451,70c0,0,-85,-84,-218,-84Zm22,849v24l146,203H560v-27L296,835Z" 
id="f3_1g"
transform="scale(0.001,-0.001)" />

<path d="M138,-7c0,0,-34,0,-72,10V129c0,0,25,-8,52,-8c0,0,33,0,58,5c0,0,26,5,58,24c0,0,33,20,53,54c0,0,21,34,36,97c0,0,15,64,15,151c0,0,0,113,-19,173c0,0,-19,60,-56,82c0,0,-38,22,-107,22H89V836h72c0,0,165,0,240,-91c0,0,76,-91,76,-293c0,0,0,-107,26,-227c0,0,25,-119,83,-225H437c0,0,-43,101,-62,184c0,0,-24,-60,-51,-99c0,0,-26,-38,-56,-58C268,27,239,7,209,0c0,0,-30,-7,-71,-7Z" 
id="f2_u"
transform="scale(0.001,-0.001)" />

<path d="M585,0V426c0,0,0,54,-8,98c0,0,-8,44,-27,83c0,0,-19,40,-49,66c0,0,-30,26,-77,41c0,0,-47,15,-108,15H66V836H315c0,0,94,0,166,-20c0,0,71,-20,116,-54c0,0,46,-35,75,-88c0,0,28,-52,40,-112c0,0,12,-60,12,-137V0Z" 
id="f2_b"
transform="scale(0.001,-0.001)" />

<path d="M66,0V107H554V452c0,0,0,56,-4,93c0,0,-4,37,-18,75c0,0,-14,38,-40,60c0,0,-26,22,-71,36c0,0,-45,13,-110,13H66V836H312c0,0,91,0,157,-17c0,0,66,-17,109,-49c0,0,44,-32,69,-84c0,0,26,-52,36,-114c0,0,10,-62,10,-147V107H817V0Z" 
id="f2_d"
transform="scale(0.001,-0.001)" />

<path d="M180,0L66,836H203L258,443c0,0,36,1,64,6c0,0,28,6,49,18c0,0,20,12,35,26c0,0,15,13,26,36c0,0,11,24,17,44c0,0,7,20,12,55c0,0,6,34,9,60c0,0,3,26,8,71c0,0,4,45,9,77H610c0,0,-13,-194,-31,-271c0,0,-31,-127,-111,-179c0,0,-71,-45,-196,-50L304,107c0,0,73,0,130,5c0,0,56,6,111,21c0,0,54,15,94,40c0,0,40,25,77,64c0,0,37,39,63,94c0,0,25,54,46,128c0,0,21,73,34,166c0,0,13,94,20,211h138c0,0,-14,-124,-29,-218c0,0,-16,-94,-39,-179c0,0,-22,-85,-50,-146c0,0,-28,-61,-68,-112c0,0,-39,-51,-87,-84C744,97,696,65,632,42C632,42,568,19,492,10C492,10,417,0,320,0Z" 
id="f2_9"
transform="scale(0.001,-0.001)" />

<path d="M486,98c0,0,107,0,169,58c0,0,62,57,62,157c0,0,0,101,-62,159c0,0,-61,57,-169,57c0,0,-108,0,-169,-57c0,0,-62,-58,-62,-159c0,0,0,-100,62,-158c0,0,61,-57,169,-57Zm-1,549c0,0,97,0,152,49c0,0,54,48,54,135c0,0,0,87,-54,135c0,0,-55,49,-152,49c0,0,-97,0,-151,-49c0,0,-54,-48,-54,-135c0,0,0,-87,54,-135c0,0,54,-49,151,-49Zm0,-667c0,0,-184,0,-283,85c0,0,-98,86,-98,248c0,0,0,107,61,181c0,0,61,74,170,99c0,0,-97,24,-151,90c0,0,-54,67,-54,162c0,0,0,134,95,212c0,0,95,77,260,77c0,0,167,0,261,-77c0,0,95,-78,95,-212c0,0,0,-95,-54,-162c0,0,-54,-66,-151,-90c0,0,109,-25,170,-99c0,0,61,-74,61,-181c0,0,0,-162,-99,-248c0,0,-98,-85,-283,-85Z" 
id="f2_1f"
transform="scale(0.001,-0.001)" />

<path d="M163,0V190H321V0Z" 
id="f2_n"
transform="scale(0.001,-0.001)" />

<path d="M736,107V473c0,0,0,147,-48,202c0,0,-49,54,-187,54H278V107ZM139,0V836H499c0,0,105,0,177,-22c0,0,72,-21,116,-69c0,0,44,-49,64,-119c0,0,19,-71,19,-174V0Z" 
id="f2_o"
transform="scale(0.001,-0.001)" />

<path d="M117,-176L179,62V190H336V62L213,-176Z" 
id="f2_t"
transform="scale(0.001,-0.001)" />

<path d="M66,0V107H332V555c0,0,0,92,-37,133c0,0,-37,41,-116,41H85V836h94c0,0,153,0,223,-66c0,0,69,-66,69,-231V0Z" 
id="f2_q"
transform="scale(0.001,-0.001)" />

<path d="M139,0V836H485c0,0,206,0,290,-90c0,0,84,-89,84,-294V0H721V473c0,0,0,147,-49,202c0,0,-48,54,-186,54H277V0Z" 
id="f2_r"
transform="scale(0.001,-0.001)" />

<path d="M543,-317V369c0,0,0,85,-8,143c0,0,-8,58,-27,101c0,0,-18,44,-51,69c0,0,-33,24,-80,36c0,0,-48,11,-117,11H66V836H257c0,0,125,0,205,-23c0,0,80,-23,130,-79c0,0,50,-56,70,-143c0,0,20,-86,20,-222V-317Z" 
id="f2_2"
transform="scale(0.001,-0.001)" />

<path d="M35,0V34l84,18V649L35,668v33H235l7,-56c0,0,57,32,122,54c0,0,65,21,108,21c0,0,91,0,137,-53c0,0,47,-53,47,-154V52L741,34V0H439V34l93,18V500c0,0,0,62,-30,97c0,0,-31,36,-94,36c0,0,-67,0,-165,-22V52L338,34V0ZM481,834c0,0,-36,0,-66,16c0,0,-30,16,-57,36c0,0,-27,20,-52,36c0,0,-25,16,-49,16c0,0,-24,0,-39,-9c0,0,-14,-9,-23,-26c0,0,-8,-17,-13,-54H143c0,0,11,180,146,180c0,0,36,0,66,-16c0,0,30,-16,57,-35c0,0,27,-20,52,-36c0,0,25,-16,49,-16c0,0,32,0,50,18c0,0,18,19,25,70h39c0,0,-12,-180,-146,-180Z" 
id="f3_1k"
transform="scale(0.001,-0.001)" />

<path d="M66,0V178H307V510c0,0,0,100,-31,124c0,0,-30,24,-79,24H83V836H197c0,0,215,0,286,-85c0,0,71,-85,71,-224V0Z" 
id="f1_k"
transform="scale(0.001,-0.001)" />

<path d="M137,0L30,830H277L321,522c0,0,68,3,96,27c0,0,27,23,38,58c0,0,26,74,31,228H733c0,0,-31,-218,-70,-316c0,0,-23,-59,-88,-100c0,0,-54,-34,-116,-42c0,0,-62,-8,-117,-8L362,178c0,0,27,-1,61,-1c40,0,89,1,119,6c0,0,57,8,94,25c0,0,37,18,69,47c0,0,32,30,60,79c0,0,28,48,51,117c0,0,48,143,82,384h248c0,0,-53,-404,-172,-586C974,249,879,103,745,51C745,51,613,0,318,0Z" 
id="f1_t"
transform="scale(0.001,-0.001)" />

<path d="M150,-366V437L396,539V-366ZM499,0L727,658H139V835h870V716L754,0Z" 
id="f1_3"
transform="scale(0.001,-0.001)" />

<path d="M139,0V836H512c0,0,219,0,309,-90c0,0,90,-90,90,-297V0H665V467c0,0,0,110,-31,150c0,0,-32,41,-120,41H385V0Z" 
id="f1_13"
transform="scale(0.001,-0.001)" />

<path d="M150,-306c0,0,-6,0,-6,8l3,26c0,0,6,61,7,104c0,0,0,42,0,114V16l2,261v93c0,0,0,97,4,123c0,0,3,25,16,44c0,0,11,22,20,40c0,0,8,17,8,32c0,0,0,25,-42,25H130c0,0,-41,0,-66,39c0,0,-24,39,-24,101c0,0,0,43,16,83c0,0,16,41,33,41c0,0,15,0,15,-14l-2,-15c0,0,0,-24,29,-24H232c0,0,48,0,65,-17c0,0,16,-16,16,-54V713c0,0,0,-32,-17,-76L269,580c0,0,-21,-43,-21,-124l15,-667c0,0,0,-14,-9,-25c0,0,-9,-12,-43,-33l-35,-23c0,0,-19,-14,-26,-14Z" 
id="f0_1s"
transform="scale(0.001,-0.001)" />

<path d="M131,353c0,0,-3,0,-6,2c0,0,-3,2,-16,20c0,0,-13,17,-13,28c0,0,0,5,8,9c0,0,45,26,84,67c0,0,38,41,38,85c0,0,0,28,-7,43c0,0,-7,15,-24,21c0,0,-17,6,-61,6H124c0,0,-38,0,-62,34c0,0,-24,35,-24,107c0,0,0,52,16,87c0,0,17,34,38,34c0,0,16,0,16,-12V870c0,0,0,-25,26,-25h63c0,0,29,0,53,-4c0,0,23,-4,39,-23c0,0,17,-19,26,-59c0,0,9,-40,9,-113c0,0,0,-76,-15,-124c0,0,-15,-47,-51,-83c0,0,-35,-36,-74,-61c0,0,-39,-25,-53,-25Z" 
id="f0_1f"
transform="scale(0.001,-0.001)" />

<path d="M102,-3c0,0,-26,0,-26,31c0,0,0,176,35,320c0,0,34,145,102,247c0,0,3,4,3,25c0,0,0,24,-19,37c0,0,-19,13,-79,15c0,0,-40,0,-61,35c0,0,-22,35,-22,95c0,0,0,39,14,67c0,0,14,29,32,29c0,0,20,0,20,-25c0,0,0,-28,32,-28h33c0,0,54,0,85,-25c0,0,30,-25,30,-68l-3,-52c0,0,0,-22,3,-31c0,0,76,71,104,109c0,0,29,37,36,75c0,0,55,7,82,7c0,0,154,0,239,-126c0,0,85,-127,85,-352c0,0,0,-99,-15,-200C812,182,798,81,774,0H335l42,214H652c0,0,25,0,37,5c0,0,11,4,21,18c0,0,10,14,17,36c0,0,7,22,12,56c0,0,5,34,5,64c0,0,0,247,-241,247c0,0,-337,0,-337,-609c0,0,0,-20,-5,-27c0,0,-6,-7,-22,-7Z" 
id="f0_1r"
transform="scale(0.001,-0.001)" />

<path d="M107,-18c0,0,-17,0,-17,18l3,9c0,0,23,48,23,124l-1,177c0,0,0,55,8,77c0,0,9,22,33,46c0,0,23,23,51,40c0,0,28,17,42,17c0,0,5,0,9,-3c0,0,5,-3,5,-8c0,0,0,-3,-11,-26c0,0,-14,-49,-14,-120l4,-223c0,0,0,-38,-9,-54c0,0,-8,-17,-32,-34C201,22,178,6,150,-5c0,0,-28,-13,-43,-13Zm547,0c0,0,-17,0,-17,18l2,10c0,0,10,38,10,109c0,0,0,79,-14,208c0,0,-15,128,-15,149c0,0,0,54,16,89c0,0,15,36,53,69H154c0,0,-35,0,-57,40c0,0,-21,40,-21,103c0,0,0,33,8,61c0,0,7,28,19,44c0,0,13,17,24,17c0,0,15,0,15,-13V869c0,0,0,-13,5,-19c0,0,5,-5,22,-5H718c0,0,50,0,50,-63V652c0,0,0,-21,-15,-30c0,0,-35,-24,-35,-77c0,0,0,-57,20,-169c0,0,27,-157,27,-272c0,0,0,-29,-6,-44c0,0,-6,-15,-17,-26c0,0,-12,-16,-47,-35L681,-9l-13,-6l-14,-3Z" 
id="f0_1x"
transform="scale(0.001,-0.001)" />

<path d="M730,212c0,0,17,78,17,199c0,0,0,85,-13,133c0,0,-12,48,-36,69c0,0,-24,21,-87,21H312c0,0,-55,-53,-72,-91c0,0,-17,-38,-17,-96c0,0,0,-124,8,-235ZM134,0l-1,360c0,0,0,121,7,151c0,0,7,30,31,61c0,0,24,32,57,62H201c0,0,-37,0,-59,39c0,0,-23,40,-23,101c0,0,0,51,18,87c0,0,18,35,35,35c0,0,12,0,16,-2c0,0,4,-2,4,-8V869c0,0,0,-24,31,-24H645c0,0,73,0,104,-18c0,0,30,-18,49,-58c0,0,19,-39,27,-107c0,0,9,-67,9,-162c0,0,0,-166,-12,-500Z" 
id="f0_1y"
transform="scale(0.001,-0.001)" />

<path d="M38,0L93,212H220c0,0,4,8,7,28c0,0,4,20,4,39c0,0,0,29,-13,61c0,0,-13,31,-29,65c0,0,-15,34,-28,72c0,0,-13,38,-13,81c0,0,0,29,10,54c0,0,9,25,30,60c0,0,-48,0,-68,11c0,0,-19,11,-30,36c0,0,-11,25,-11,71c0,0,0,30,9,54c0,0,8,25,22,40c0,0,14,15,24,15c0,0,17,0,17,-12V875c0,0,0,-30,41,-30h53c0,0,44,0,61,-10c0,0,17,-10,26,-34c0,0,9,-23,9,-67c0,0,0,-38,-6,-57c0,0,-6,-20,-13,-20c0,0,-6,0,-13,4c0,0,-3,4,-17,7c0,0,-14,2,-26,2c0,0,-34,0,-34,-45c0,0,0,-12,9,-34c0,0,8,-22,55,-116c0,0,46,-86,46,-143c0,0,0,-15,-8,-35c0,0,-9,-20,-50,-85H598c0,0,17,0,17,12c0,0,0,19,-6,53c0,0,-5,34,-5,74c0,0,0,80,58,228c0,0,18,46,18,56c0,0,0,15,-12,26c0,0,-12,11,-38,11H602c0,0,-43,0,-62,25c0,0,-19,25,-19,78c0,0,0,47,14,86c0,0,15,38,33,38c0,0,15,0,15,-15V867c0,0,0,-22,31,-22h55c0,0,51,0,78,-20c0,0,27,-20,27,-57c0,0,0,-46,-28,-147c0,0,-40,-145,-40,-253c0,0,0,-33,6,-63c0,0,6,-30,14,-54c0,0,8,-24,14,-42c0,0,7,-19,7,-30c0,0,0,-39,-14,-88C733,91,720,42,701,0Z" 
id="f0_1h"
transform="scale(0.001,-0.001)" />

<path d="M469,-18c0,0,-14,0,-14,15l2,7c0,0,20,43,20,158l-3,156l-2,119c0,0,0,65,19,109c0,0,19,44,60,88H110c0,0,-47,0,-69,34c0,0,-22,35,-22,109c0,0,0,50,16,85c0,0,16,36,35,36c0,0,14,0,14,-12L83,869c0,0,0,-13,7,-19c0,0,6,-5,23,-5H608c0,0,25,0,40,-14c0,0,15,-15,15,-38V686c0,0,0,-26,-4,-35c0,0,-3,-9,-11,-11c0,0,-42,-9,-56,-40c0,0,-15,-30,-15,-93c0,0,0,-56,12,-184c0,0,10,-129,10,-224c0,0,0,-24,-6,-37c0,0,-7,-13,-17,-25c0,0,-7,-6,-18,-12c0,0,-11,-7,-23,-13C535,12,523,5,512,0c0,0,-10,-5,-15,-8c0,0,-22,-10,-28,-10Z" 
id="f0_1z"
transform="scale(0.001,-0.001)" />

<path d="M20,0L75,212H492c0,0,19,51,25,97c0,0,5,46,5,105c0,0,0,63,-6,124c0,0,-6,61,-23,78c0,0,-16,18,-66,18H112c0,0,-36,0,-57,40c0,0,-21,40,-21,101c0,0,0,50,16,87c0,0,16,36,36,36c0,0,13,0,13,-14V870c0,0,0,-25,34,-25H457c0,0,63,0,92,-11c0,0,28,-10,41,-36c0,0,13,-26,18,-107c0,0,4,-80,4,-174c0,0,0,-174,-13,-224c0,0,-4,-15,-21,-41c0,0,-17,-25,-31,-40H688L640,0Z" 
id="f0_1e"
transform="scale(0.001,-0.001)" />

<path d="M522,-20c0,0,-196,0,-290,99c0,0,-94,100,-94,324V836H276V397c0,0,0,-86,16,-147c0,0,17,-60,50,-94c0,0,34,-34,77,-49c0,0,43,-15,103,-15c0,0,59,0,102,15c0,0,44,15,77,49c0,0,33,34,50,94c0,0,17,61,17,147c0,0,0,84,-8,143c0,0,-7,58,-25,105c0,0,-17,47,-51,69c0,0,-33,23,-83,23c0,0,-50,0,-119,-22V821c0,0,85,23,150,23c0,0,76,0,130,-30c0,0,53,-31,85,-90c0,0,31,-59,45,-138c0,0,13,-78,13,-183c0,0,0,-224,-93,-324c0,0,-94,-99,-290,-99Z" 
id="f2_k"
transform="scale(0.001,-0.001)" />

<path d="M152,0V473c0,0,0,94,28,161c0,0,29,66,71,95H66V836H463V729H404c0,0,-65,0,-89,-57c0,0,-25,-58,-25,-199V0Z" 
id="f2_l"
transform="scale(0.001,-0.001)" />

<path d="M71,-141V-15L289,62L66,836H210L416,109c0,0,99,42,153,98c0,0,53,56,80,155c0,0,26,98,26,262V836H817V624c0,0,0,-88,-7,-154c0,0,-7,-67,-25,-132c0,0,-18,-66,-51,-116c0,0,-33,-51,-84,-98c0,0,-50,-48,-123,-87c0,0,-72,-39,-169,-74L71,-141Z" 
id="f2_5"
transform="scale(0.001,-0.001)" />

<path d="M66,0V106H322c0,0,75,0,127,23c0,0,53,23,82,67c0,0,29,43,42,98c0,0,13,54,13,124c0,0,0,70,-13,124c0,0,-13,55,-42,98c0,0,-29,44,-82,67c0,0,-52,23,-127,23H66V836H322c0,0,87,0,157,-24c0,0,70,-24,115,-64c0,0,45,-40,74,-94c0,0,30,-55,43,-113c0,0,13,-59,13,-123c0,0,0,-64,-13,-123c0,0,-13,-58,-43,-113c0,0,-29,-54,-74,-94C594,88,549,48,479,24C479,24,409,0,322,0Z" 
id="f2_f"
transform="scale(0.001,-0.001)" />

<path d="M700,-317V454c0,0,0,155,-54,215c0,0,-54,60,-180,60H277V551c0,0,0,-55,26,-80c0,0,27,-26,82,-26c0,0,30,0,80,10V341c0,0,-61,-11,-111,-11c0,0,-100,0,-157,55c0,0,-58,55,-58,186V836H466c0,0,203,0,288,-91c0,0,85,-92,85,-293V-317Z" 
id="f2_g"
transform="scale(0.001,-0.001)" />

<path d="M122,-200c0,0,99,170,148,338c0,0,49,169,49,342c0,0,0,172,-49,340c0,0,-49,168,-148,340H241c0,0,112,-176,168,-345c0,0,55,-169,55,-335c0,0,0,-167,-55,-337c0,0,-56,-168,-168,-343Z" 
id="f2_v"
transform="scale(0.001,-0.001)" />

<path d="M354,-200c0,0,-112,175,-167,343c0,0,-56,170,-56,337c0,0,0,166,55,335c0,0,55,169,168,345H473c0,0,-100,-172,-148,-340c0,0,-48,-168,-48,-340c0,0,0,-173,48,-342c0,0,49,-168,148,-338Z" 
id="f2_x"
transform="scale(0.001,-0.001)" />

<path d="M58,-234v58c0,0,131,42,131,125c0,0,0,15,-11,27c0,0,-11,12,-38,25C140,1,89,27,89,75c0,0,0,40,25,61c0,0,26,21,65,21c0,0,48,0,77,-34c0,0,30,-34,30,-86c0,0,0,-101,-60,-170c0,0,-59,-69,-168,-101Z" 
id="f3_z"
transform="scale(0.001,-0.001)" />

<path d="M176,0V190H335V0ZM685,0V190H844V0Zm508,0V190h159V0Z" 
id="f2_1b"
transform="scale(0.001,-0.001)" />

<path d="M156,-317V454l139,56V-317ZM505,0L806,729H139V835H967V753L650,0Z" 
id="f2_8"
transform="scale(0.001,-0.001)" />

<path d="M190,0V127H436V977L168,923v137l267,54H586V127H832V0Z" 
id="f2_13"
transform="scale(0.001,-0.001)" />

<path d="M505,98c0,0,101,0,160,70c0,0,60,69,60,189c0,0,0,121,-60,191c0,0,-59,69,-160,69c0,0,-102,0,-161,-69c0,0,-59,-70,-59,-191c0,0,0,-120,59,-189c0,0,59,-70,161,-70ZM504,-20c0,0,-193,0,-295,147c0,0,-102,148,-102,429c0,0,0,264,125,421c0,0,125,157,337,157c0,0,56,0,114,-11c0,0,58,-11,121,-34V952c0,0,-57,27,-115,41c0,0,-58,14,-115,14c0,0,-149,0,-228,-101c0,0,-79,-100,-90,-304c0,0,44,65,111,100c0,0,66,34,146,34c0,0,168,0,266,-102c0,0,97,-101,97,-277c0,0,0,-171,-101,-275C775,82,673,-20,504,-20Z" 
id="f2_1c"
transform="scale(0.001,-0.001)" />


</defs>
</svg>