<?xml version="1.0" encoding="UTF-8" standalone="no"?>
<!DOCTYPE svg PUBLIC "-//W3C//DTD SVG 1.1//EN"
"http://www.w3.org/Graphics/SVG/1.1/DTD/svg11.dtd">
<svg viewBox="0 0 909 1286" version="1.1" xmlns="http://www.w3.org/2000/svg" xmlns:xlink="http://www.w3.org/1999/xlink">
<defs>
<clipPath id="c0_17"><path d="M0,1286.2V0H909.4V1286.2Z" /></clipPath>
<style type="text/css"><![CDATA[
.g0_17{
fill: #D8D8D8;
}
.g1_17{
fill: none;
stroke: #000000;
stroke-width: 0.7638889;
stroke-linecap: butt;
stroke-linejoin: round;
}
]]></style>
</defs>
<path fill-rule="evenodd" d="M659.5,1093.5h177v-20.1h-177v20.1Z" class="g0_17" />
<path fill-rule="evenodd" d="M464.6,1093.5H659.5v-20.1H464.6v20.1Z" class="g0_17" />
<path fill-rule="evenodd" d="M237.3,1093.5H464.5v-20.1H237.3v20.1Z" class="g0_17" />
<path fill-rule="evenodd" d="M746.2,1115.7h90.3v-22.1H746.2v22.1Z" class="g0_17" />
<path fill-rule="evenodd" d="M659.5,1115.7h86.6v-22.1H659.5v22.1Z" class="g0_17" />
<path fill-rule="evenodd" d="M562.2,1115.7h97.3v-22.1H562.2v22.1Z" class="g0_17" />
<path fill-rule="evenodd" d="M464.8,1115.7h97.3v-22.1H464.8v22.1Z" class="g0_17" />
<path fill-rule="evenodd" d="M356.4,1115.7H464.7v-22.1H356.4v22.1Z" class="g0_17" />
<path fill-rule="evenodd" d="M237.3,1115.7H356.4v-22.1H237.3v22.1Z" class="g0_17" />
<path fill-rule="evenodd" d="M128.9,1135.7H237.2v-20H128.9v20Z" class="g0_17" />
<path fill-rule="evenodd" d="M128.9,1155.8H237.2v-20H128.9v20Z" class="g0_17" />
<path fill-rule="evenodd" d="M659.5,1093.5h177v-20.1h-177v20.1Z" class="g0_17" />
<path fill-rule="evenodd" d="M464.6,1093.5H659.5v-20.1H464.6v20.1Z" class="g0_17" />
<path fill-rule="evenodd" d="M237.3,1093.5H464.5v-20.1H237.3v20.1Z" class="g0_17" />
<path fill-rule="evenodd" d="M746.2,1115.7h90.3v-22.1H746.2v22.1Z" class="g0_17" />
<path fill-rule="evenodd" d="M659.5,1115.7h86.6v-22.1H659.5v22.1Z" class="g0_17" />
<path fill-rule="evenodd" d="M562.2,1115.7h97.3v-22.1H562.2v22.1Z" class="g0_17" />
<path fill-rule="evenodd" d="M464.8,1115.7h97.3v-22.1H464.8v22.1Z" class="g0_17" />
<path fill-rule="evenodd" d="M356.4,1115.7H464.7v-22.1H356.4v22.1Z" class="g0_17" />
<path fill-rule="evenodd" d="M237.3,1115.7H356.4v-22.1H237.3v22.1Z" class="g0_17" />
<path fill-rule="evenodd" d="M128.9,1135.7H237.2v-20H128.9v20Z" class="g0_17" />
<path fill-rule="evenodd" d="M128.9,1155.8H237.2v-20H128.9v20Z" class="g0_17" />
<g clip-path="url(#c0_17)">
<g fill="#000000" >
<use xlink:href="#f0_9" transform="matrix(12,0,0,12,137.8,127.1)" />
<use xlink:href="#f0_l" transform="matrix(12,0,0,12,142.8,127.1)" />
<use xlink:href="#f0_e" transform="matrix(12,0,0,12,150.2,127.1)" />
<use xlink:href="#f0_n" transform="matrix(12,0,0,12,162.4,127.1)" />
<use xlink:href="#f0_4" transform="matrix(12,0,0,12,175.4,127.1)" />
<use xlink:href="#f0_9" transform="matrix(12,0,0,12,185,127.1)" />
<use xlink:href="#f0_o" transform="matrix(12,0,0,12,197,127.1)" />
<use xlink:href="#f0_6" transform="matrix(12,0,0,12,202.8,127.1)" />
<use xlink:href="#f0_d" transform="matrix(12,0,0,12,214.8,127.1)" />
<use xlink:href="#f0_n" transform="matrix(12,0,0,12,226.2,127.1)" />
<use xlink:href="#f0_2" transform="matrix(12,0,0,12,239.2,127.1)" />
<use xlink:href="#f0_2" transform="matrix(12,0,0,12,256.6,127.1)" />
<use xlink:href="#f0_9" transform="matrix(12,0,0,12,267.1,127.1)" />
<use xlink:href="#f0_n" transform="matrix(12,0,0,12,272.1,127.1)" />
<use xlink:href="#f0_f" transform="matrix(12,0,0,12,285.1,127.1)" />
<use xlink:href="#f0_2" transform="matrix(12,0,0,12,303.9,127.1)" />
<use xlink:href="#f0_3" transform="matrix(12,0,0,12,314.4,127.1)" />
<use xlink:href="#f0_4" transform="matrix(12,0,0,12,318.5,127.1)" />
<use xlink:href="#f0_5" transform="matrix(12,0,0,12,328.1,127.1)" />
<use xlink:href="#f0_m" transform="matrix(12,0,0,12,338.5,127.1)" />
<use xlink:href="#f0_j" transform="matrix(12,0,0,12,357.7,127.1)" />
<use xlink:href="#f0_6" transform="matrix(12,0,0,12,369.9,127.1)" />
<use xlink:href="#f0_j" transform="matrix(12,0,0,12,388.7,127.1)" />
<use xlink:href="#f0_3" transform="matrix(12,0,0,12,400.9,127.1)" />
<use xlink:href="#f0_7" transform="matrix(12,0,0,12,405,127.1)" />
<use xlink:href="#f0_k" transform="matrix(12,0,0,12,415.4,127.1)" />
<use xlink:href="#f0_d" transform="matrix(12,0,0,12,426.8,127.1)" />
<use xlink:href="#f0_6" transform="matrix(12,0,0,12,438.3,127.1)" />
<use xlink:href="#f0_g" transform="matrix(12,0,0,12,457,127.1)" />
<use xlink:href="#f0_f" transform="matrix(12,0,0,12,462.9,127.1)" />
<use xlink:href="#f0_9" transform="matrix(12,0,0,12,474.8,127.1)" />
<use xlink:href="#f0_5" transform="matrix(12,0,0,12,479.8,127.1)" />
<use xlink:href="#f0_6" transform="matrix(12,0,0,12,490.2,127.1)" />
<use xlink:href="#f0_2" transform="matrix(12,0,0,12,508.9,127.1)" />
<use xlink:href="#f0_q" transform="matrix(12,0,0,12,519.5,127.1)" />
<use xlink:href="#f0_m" transform="matrix(12,0,0,12,530.3,127.1)" />
<use xlink:href="#f0_a" transform="matrix(12,0,0,12,549.7,127.1)" />
<use xlink:href="#f0_e" transform="matrix(12,0,0,12,561.7,127.1)" />
<use xlink:href="#f0_s" transform="matrix(12,0,0,12,580.8,127.1)" />
<use xlink:href="#f0_7" transform="matrix(12,0,0,12,590.6,127.1)" />
<use xlink:href="#f0_a" transform="matrix(12,0,0,12,607.8,127.1)" />
<use xlink:href="#f0_9" transform="matrix(12,0,0,12,619.9,127.1)" />
<use xlink:href="#f0_7" transform="matrix(12,0,0,12,624.9,127.1)" />
<use xlink:href="#f0_k" transform="matrix(12,0,0,12,635.3,127.1)" />
<use xlink:href="#f0_6" transform="matrix(12,0,0,12,646.7,127.1)" />
<use xlink:href="#f0_7" transform="matrix(12,0,0,12,658.7,127.1)" />
<use xlink:href="#f0_r" transform="matrix(12,0,0,12,675.9,127.1)" />
<use xlink:href="#f0_9" transform="matrix(12,0,0,12,680.8,127.1)" />
<use xlink:href="#f0_3" transform="matrix(12,0,0,12,685.8,127.1)" />
<use xlink:href="#f0_i" transform="matrix(12,0,0,12,689.9,127.1)" />
<use xlink:href="#f0_3" transform="matrix(12,0,0,12,701.8,127.1)" />
<use xlink:href="#f0_l" transform="matrix(12,0,0,12,705.8,127.1)" />
<use xlink:href="#f0_9" transform="matrix(12,0,0,12,720,127.1)" />
<use xlink:href="#f0_6" transform="matrix(12,0,0,12,725,127.1)" />
<use xlink:href="#f0_b" transform="matrix(12,0,0,12,736.9,127.1)" />
<use xlink:href="#f0_r" transform="matrix(12,0,0,12,750,127.1)" />
<use xlink:href="#f0_3" transform="matrix(12,0,0,12,755,127.1)" />
<use xlink:href="#f0_e" transform="matrix(12,0,0,12,759.1,127.1)" />
<use xlink:href="#f0_7" transform="matrix(12,0,0,12,138,148.5)" />
<use xlink:href="#f0_4" transform="matrix(12,0,0,12,148.4,148.5)" />
<use xlink:href="#f0_7" transform="matrix(12,0,0,12,163.9,148.5)" />
<use xlink:href="#f0_n" transform="matrix(12,0,0,12,174.3,148.5)" />
<use xlink:href="#f0_a" transform="matrix(12,0,0,12,193.3,148.5)" />
<use xlink:href="#f0_9" transform="matrix(12,0,0,12,205.3,148.5)" />
<use xlink:href="#f0_3" transform="matrix(12,0,0,12,210.3,148.5)" />
<use xlink:href="#f0_p" transform="matrix(12,0,0,12,214.4,148.5)" />
<use xlink:href="#f0_6" transform="matrix(12,0,0,12,226.3,148.5)" />
<use xlink:href="#f0_2" transform="matrix(12,0,0,12,238.2,148.5)" />
<use xlink:href="#f0_j" transform="matrix(12,0,0,12,254.6,148.5)" />
<use xlink:href="#f0_3" transform="matrix(12,0,0,12,266.8,148.5)" />
<use xlink:href="#f0_7" transform="matrix(12,0,0,12,270.9,148.5)" />
<use xlink:href="#f0_c" transform="matrix(12,0,0,12,281.3,148.5)" />
<use xlink:href="#f0_a" transform="matrix(12,0,0,12,294.3,148.5)" />
<use xlink:href="#f0_3" transform="matrix(12,0,0,12,306.3,148.5)" />
<use xlink:href="#f0_l" transform="matrix(12,0,0,12,310.4,148.5)" />
<use xlink:href="#f0_9" transform="matrix(12,0,0,12,323.7,148.5)" />
<use xlink:href="#f0_l" transform="matrix(12,0,0,12,328.7,148.5)" />
<use xlink:href="#f0_e" transform="matrix(12,0,0,12,336.1,148.5)" />
<use xlink:href="#f0_o" transform="matrix(12,0,0,12,354.2,148.5)" />
<use xlink:href="#f0_6" transform="matrix(12,0,0,12,360,148.5)" />
<use xlink:href="#f0_3" transform="matrix(12,0,0,12,372,148.5)" />
<use xlink:href="#f0_b" transform="matrix(12,0,0,12,376.1,148.5)" />
<use xlink:href="#f0_3" transform="matrix(12,0,0,12,382.3,148.5)" />
<use xlink:href="#f0_9" transform="matrix(12,0,0,12,386.4,148.5)" />
<use xlink:href="#f0_7" transform="matrix(12,0,0,12,391.5,148.5)" />
<use xlink:href="#f0_p" transform="matrix(12,0,0,12,401.9,148.5)" />
<use xlink:href="#f0_2" transform="matrix(12,0,0,12,413.8,148.5)" />
<use xlink:href="#f0_9" transform="matrix(12,0,0,12,430.2,148.5)" />
<use xlink:href="#f0_e" transform="matrix(12,0,0,12,435.3,148.5)" />
<use xlink:href="#f0_2" transform="matrix(12,0,0,12,453.4,148.5)" />
<use xlink:href="#f0_9" transform="matrix(12,0,0,12,464,148.5)" />
<use xlink:href="#f0_f" transform="matrix(12,0,0,12,469,148.5)" />
<use xlink:href="#f0_5" transform="matrix(12,0,0,12,480.9,148.5)" />
<use xlink:href="#f0_2" transform="matrix(12,0,0,12,491.3,148.5)" />
<use xlink:href="#f0_j" transform="matrix(12,0,0,12,507.8,148.5)" />
<use xlink:href="#f0_3" transform="matrix(12,0,0,12,519.8,148.5)" />
<use xlink:href="#f0_k" transform="matrix(12,0,0,12,523.9,148.5)" />
<use xlink:href="#f0_m" transform="matrix(12,0,0,12,535.4,148.5)" />
<use xlink:href="#f0_9" transform="matrix(12,0,0,12,547.9,148.5)" />
<use xlink:href="#f0_n" transform="matrix(12,0,0,12,552.8,148.5)" />
<use xlink:href="#f0_9" transform="matrix(12,0,0,12,571.7,148.5)" />
<use xlink:href="#f0_l" transform="matrix(12,0,0,12,576.8,148.5)" />
<use xlink:href="#f0_e" transform="matrix(12,0,0,12,584.1,148.5)" />
<use xlink:href="#f0_n" transform="matrix(12,0,0,12,596.3,148.5)" />
<use xlink:href="#f0_6" transform="matrix(12,0,0,12,615.3,148.5)" />
<use xlink:href="#f0_m" transform="matrix(12,0,0,12,627.2,148.5)" />
<use xlink:href="#f0_a" transform="matrix(12,0,0,12,645.5,148.5)" />
<use xlink:href="#f0_e" transform="matrix(12,0,0,12,657.5,148.5)" />
<use xlink:href="#f0_r" transform="matrix(12,0,0,12,675.8,148.5)" />
<use xlink:href="#f0_3" transform="matrix(12,0,0,12,680.9,148.5)" />
<use xlink:href="#f0_2" transform="matrix(12,0,0,12,685,148.5)" />
<use xlink:href="#f0_6" transform="matrix(12,0,0,12,695.5,148.5)" />
<use xlink:href="#f0_7" transform="matrix(12,0,0,12,707.4,148.5)" />
<use xlink:href="#f0_j" transform="matrix(12,0,0,12,723.6,148.5)" />
<use xlink:href="#f0_3" transform="matrix(12,0,0,12,735.8,148.5)" />
<use xlink:href="#f0_i" transform="matrix(12,0,0,12,740,148.5)" />
<use xlink:href="#f0_l" transform="matrix(12,0,0,12,751.8,148.5)" />
<use xlink:href="#f0_m" transform="matrix(12,0,0,12,759,148.5)" />
<use xlink:href="#f0_g" transform="matrix(12,0,0,12,372,169.9)" />
<use xlink:href="#f0_a" transform="matrix(12,0,0,12,377.8,169.9)" />
<use xlink:href="#f0_9" transform="matrix(12,0,0,12,389.9,169.9)" />
<use xlink:href="#f0_3" transform="matrix(12,0,0,12,394.9,169.9)" />
<use xlink:href="#f0_p" transform="matrix(12,0,0,12,399,169.9)" />
<use xlink:href="#f0_6" transform="matrix(12,0,0,12,410.9,169.9)" />
<use xlink:href="#f0_6" transform="matrix(12,0,0,12,422.8,169.9)" />
<use xlink:href="#f0_7" transform="matrix(12,0,0,12,440.7,169.9)" />
<use xlink:href="#f0_4" transform="matrix(12,0,0,12,451.1,169.9)" />
<use xlink:href="#f0_a" transform="matrix(12,0,0,12,466.5,169.9)" />
<use xlink:href="#f0_e" transform="matrix(12,0,0,12,478.5,169.9)" />
<use xlink:href="#f0_r" transform="matrix(12,0,0,12,496.7,169.9)" />
<use xlink:href="#f0_3" transform="matrix(12,0,0,12,501.7,169.9)" />
<use xlink:href="#f0_2" transform="matrix(12,0,0,12,505.8,169.9)" />
<use xlink:href="#f0_6" transform="matrix(12,0,0,12,516.4,169.9)" />
<use xlink:href="#f0_7" transform="matrix(12,0,0,12,528.3,169.9)" />
<use xlink:href="#f0_9" transform="matrix(12,0,0,12,538.5,169.9)" />
<use xlink:href="#f0_7" transform="matrix(12,0,0,12,549.5,169.9)" />
<use xlink:href="#f0_u" transform="matrix(12,0,0,12,559.9,169.9)" />
<use xlink:href="#f0_5" transform="matrix(12,0,0,12,567.4,169.9)" />
<use xlink:href="#f0_a" transform="matrix(12,0,0,12,577.8,169.9)" />
<use xlink:href="#f0_7" transform="matrix(12,0,0,12,589.8,169.9)" />
<use xlink:href="#f0_2" transform="matrix(12,0,0,12,606.1,169.9)" />
<use xlink:href="#f0_9" transform="matrix(12,0,0,12,616.7,169.9)" />
<use xlink:href="#f0_n" transform="matrix(12,0,0,12,621.7,169.9)" />
<use xlink:href="#f0_f" transform="matrix(12,0,0,12,634.7,169.9)" />
<use xlink:href="#f0_j" transform="matrix(12,0,0,12,652.4,169.9)" />
<use xlink:href="#f0_u" transform="matrix(12,0,0,12,664.6,169.9)" />
<use xlink:href="#f0_r" transform="matrix(12,0,0,12,677.9,169.9)" />
<use xlink:href="#f0_4" transform="matrix(12,0,0,12,682.9,169.9)" />
<use xlink:href="#f0_7" transform="matrix(12,0,0,12,692.6,169.9)" />
<use xlink:href="#f0_9" transform="matrix(12,0,0,12,703,169.9)" />
<use xlink:href="#f0_o" transform="matrix(12,0,0,12,713.8,169.9)" />
<use xlink:href="#f0_j" transform="matrix(12,0,0,12,719.6,169.9)" />
<use xlink:href="#f0_3" transform="matrix(12,0,0,12,731.8,169.9)" />
<use xlink:href="#f0_d" transform="matrix(12,0,0,12,735.9,169.9)" />
<use xlink:href="#f0_9" transform="matrix(12,0,0,12,747.4,169.9)" />
<use xlink:href="#f0_u" transform="matrix(12,0,0,12,752.4,169.9)" />
<use xlink:href="#f0_6" transform="matrix(12,0,0,12,759.9,169.9)" />
<use xlink:href="#f0_r" transform="matrix(12,0,0,12,138.1,210.5)" />
<use xlink:href="#f0_4" transform="matrix(12,0,0,12,143.1,210.5)" />
<use xlink:href="#f0_9" transform="matrix(12,0,0,12,161,210.5)" />
<use xlink:href="#f0_m" transform="matrix(12,0,0,12,165.9,210.5)" />
<use xlink:href="#f0_4" transform="matrix(12,0,0,12,178.4,210.5)" />
<use xlink:href="#f0_g" transform="matrix(12,0,0,12,196.2,210.5)" />
<use xlink:href="#f0_a" transform="matrix(12,0,0,12,202,210.5)" />
<use xlink:href="#f0_5" transform="matrix(12,0,0,12,214.1,210.5)" />
<use xlink:href="#f0_4" transform="matrix(12,0,0,12,224.4,210.5)" />
<use xlink:href="#f0_6" transform="matrix(12,0,0,12,234.1,210.5)" />
<use xlink:href="#f0_n" transform="matrix(12,0,0,12,246,210.5)" />
<use xlink:href="#f0_j" transform="matrix(12,0,0,12,267,210.5)" />
<use xlink:href="#f0_3" transform="matrix(12,0,0,12,279.2,210.5)" />
<use xlink:href="#f0_7" transform="matrix(12,0,0,12,283.3,210.5)" />
<use xlink:href="#f0_7" transform="matrix(12,0,0,12,293.7,210.5)" />
<use xlink:href="#f0_4" transform="matrix(12,0,0,12,304.1,210.5)" />
<use xlink:href="#f0_7" transform="matrix(12,0,0,12,313.8,210.5)" />
<use xlink:href="#f0_j" transform="matrix(12,0,0,12,332.4,210.5)" />
<use xlink:href="#f0_e" transform="matrix(12,0,0,12,344.6,210.5)" />
<use xlink:href="#f0_9" transform="matrix(12,0,0,12,356.8,210.5)" />
<use xlink:href="#f0_7" transform="matrix(12,0,0,12,361.7,210.5)" />
<use xlink:href="#f0_m" transform="matrix(12,0,0,12,372.1,210.5)" />
<use xlink:href="#f0_2" transform="matrix(12,0,0,12,384.6,210.5)" />
<use xlink:href="#f0_j" transform="matrix(12,0,0,12,403.2,210.5)" />
<use xlink:href="#f0_3" transform="matrix(12,0,0,12,415.4,210.5)" />
<use xlink:href="#f0_l" transform="matrix(12,0,0,12,419.5,210.5)" />
<use xlink:href="#f0_9" transform="matrix(12,0,0,12,426.8,210.5)" />
<use xlink:href="#f0_k" transform="matrix(12,0,0,12,431.9,210.5)" />
<use xlink:href="#f0_e" transform="matrix(12,0,0,12,451.4,210.5)" />
<use xlink:href="#f0_7" transform="matrix(12,0,0,12,463.6,210.5)" />
<use xlink:href="#f0_n" transform="matrix(12,0,0,12,474,210.5)" />
<use xlink:href="#f0_j" transform="matrix(12,0,0,12,495.2,210.5)" />
<use xlink:href="#f0_3" transform="matrix(12,0,0,12,507.3,210.5)" />
<use xlink:href="#f0_u" transform="matrix(12,0,0,12,511.4,210.5)" />
<use xlink:href="#f0_3" transform="matrix(12,0,0,12,518.8,210.5)" />
<use xlink:href="#f0_5" transform="matrix(12,0,0,12,522.9,210.5)" />
<use xlink:href="#f0_f" transform="matrix(12,0,0,12,533.3,210.5)" />
<use xlink:href="#f0_j" transform="matrix(12,0,0,12,553.5,210.5)" />
<use xlink:href="#f0_3" transform="matrix(12,0,0,12,565.5,210.5)" />
<use xlink:href="#f0_7" transform="matrix(12,0,0,12,569.6,210.5)" />
<use xlink:href="#f0_k" transform="matrix(12,0,0,12,580,210.5)" />
<use xlink:href="#f0_d" transform="matrix(12,0,0,12,591.5,210.5)" />
<use xlink:href="#f0_j" transform="matrix(12,0,0,12,611.1,210.5)" />
<use xlink:href="#f0_u" transform="matrix(12,0,0,12,623.4,210.5)" />
<use xlink:href="#f0_5" transform="matrix(12,0,0,12,638.9,210.5)" />
<use xlink:href="#f0_3" transform="matrix(12,0,0,12,649.3,210.5)" />
<use xlink:href="#f0_4" transform="matrix(12,0,0,12,653.4,210.5)" />
<use xlink:href="#f0_a" transform="matrix(12,0,0,12,663,210.5)" />
<use xlink:href="#f0_e" transform="matrix(12,0,0,12,683.3,210.5)" />
<use xlink:href="#f0_2" transform="matrix(12,0,0,12,695.5,210.5)" />
<use xlink:href="#f0_6" transform="matrix(12,0,0,12,706.1,210.5)" />
<use xlink:href="#f0_c" transform="matrix(12,0,0,12,726,210.5)" />
<use xlink:href="#f0_5" transform="matrix(12,0,0,12,739,210.5)" />
<use xlink:href="#f0_d" transform="matrix(12,0,0,12,749.4,210.5)" />
<use xlink:href="#f0_2" transform="matrix(12,0,0,12,760.8,210.5)" />
<use xlink:href="#f0_18" transform="matrix(12,0,0,12,298.4,231.9)" />
<use xlink:href="#f0_a" transform="matrix(12,0,0,12,308.1,231.9)" />
<use xlink:href="#f0_5" transform="matrix(12,0,0,12,320.2,231.9)" />
<use xlink:href="#f0_m" transform="matrix(12,0,0,12,330.6,231.9)" />
<use xlink:href="#f0_9" transform="matrix(12,0,0,12,342.9,231.9)" />
<use xlink:href="#f0_e" transform="matrix(12,0,0,12,348,231.9)" />
<use xlink:href="#f0_a" transform="matrix(12,0,0,12,366,231.9)" />
<use xlink:href="#f0_e" transform="matrix(12,0,0,12,378,231.9)" />
<use xlink:href="#f0_b" transform="matrix(12,0,0,12,390.3,231.9)" />
<use xlink:href="#f0_6" transform="matrix(12,0,0,12,402.5,231.9)" />
<use xlink:href="#f0_m" transform="matrix(12,0,0,12,414.4,231.9)" />
<use xlink:href="#f0_g" transform="matrix(12,0,0,12,432.8,231.9)" />
<use xlink:href="#f0_g" transform="matrix(12,0,0,12,438.6,231.9)" />
<use xlink:href="#f0_g" transform="matrix(12,0,0,12,444.5,231.9)" />
<use xlink:href="#f0_a" transform="matrix(12,0,0,12,450.3,231.9)" />
<use xlink:href="#f0_9" transform="matrix(12,0,0,12,462.3,231.9)" />
<use xlink:href="#f0_3" transform="matrix(12,0,0,12,467.3,231.9)" />
<use xlink:href="#f0_f" transform="matrix(12,0,0,12,471.4,231.9)" />
<use xlink:href="#f0_6" transform="matrix(12,0,0,12,483.4,231.9)" />
<use xlink:href="#f0_a" transform="matrix(12,0,0,12,501.1,231.9)" />
<use xlink:href="#f0_9" transform="matrix(12,0,0,12,513.1,231.9)" />
<use xlink:href="#f0_m" transform="matrix(12,0,0,12,518,231.9)" />
<use xlink:href="#f0_n" transform="matrix(12,0,0,12,530.5,231.9)" />
<use xlink:href="#f0_a" transform="matrix(12,0,0,12,549.3,231.9)" />
<use xlink:href="#f0_9" transform="matrix(12,0,0,12,561.4,231.9)" />
<use xlink:href="#f0_k" transform="matrix(12,0,0,12,566.4,231.9)" />
<use xlink:href="#f0_q" transform="matrix(12,0,0,12,577.9,231.9)" />
<use xlink:href="#f0_m" transform="matrix(12,0,0,12,588.7,231.9)" />
<use xlink:href="#f0_e" transform="matrix(12,0,0,12,601.2,231.9)" />
<use xlink:href="#f0_2" transform="matrix(12,0,0,12,613.4,231.9)" />
<use xlink:href="#f0_j" transform="matrix(12,0,0,12,629.9,231.9)" />
<use xlink:href="#f0_3" transform="matrix(12,0,0,12,642.1,231.9)" />
<use xlink:href="#f0_k" transform="matrix(12,0,0,12,646.2,231.9)" />
<use xlink:href="#f0_2" transform="matrix(12,0,0,12,657.7,231.9)" />
<use xlink:href="#f0_q" transform="matrix(12,0,0,12,668.2,231.9)" />
<use xlink:href="#f0_6" transform="matrix(12,0,0,12,679.1,231.9)" />
<use xlink:href="#f0_a" transform="matrix(12,0,0,12,696.8,231.9)" />
<use xlink:href="#f0_e" transform="matrix(12,0,0,12,708.9,231.9)" />
<use xlink:href="#f0_h" transform="matrix(12,0,0,12,726.9,231.9)" />
<use xlink:href="#f0_m" transform="matrix(12,0,0,12,737,231.9)" />
<use xlink:href="#f0_7" transform="matrix(12,0,0,12,749.3,231.9)" />
<use xlink:href="#f0_a" transform="matrix(12,0,0,12,759.7,231.9)" />
<use xlink:href="#f1_d" transform="matrix(11,0,0,11,231.6,231.9)" />
<use xlink:href="#f1_r" transform="matrix(11,0,0,11,236.3,231.9)" />
<use xlink:href="#f1_b" transform="matrix(11,0,0,11,241.8,231.9)" />
<use xlink:href="#f1_p" transform="matrix(11,0,0,11,249.3,231.9)" />
<use xlink:href="#f1_x" transform="matrix(11,0,0,11,257.7,231.9)" />
<use xlink:href="#f1_y" transform="matrix(11,0,0,11,266.1,231.9)" />
<use xlink:href="#f1_7" transform="matrix(11,0,0,11,274.5,231.9)" />
<use xlink:href="#f1_j" transform="matrix(11,0,0,11,279.2,231.9)" />
<use xlink:href="#f1_9" transform="matrix(11,0,0,11,283.9,231.9)" />
<use xlink:href="#f0_k" transform="matrix(12,0,0,12,154.2,231.9)" />
<use xlink:href="#f0_h" transform="matrix(12,0,0,12,165.6,231.9)" />
<use xlink:href="#f0_a" transform="matrix(12,0,0,12,175.5,231.9)" />
<use xlink:href="#f0_h" transform="matrix(12,0,0,12,193.4,231.9)" />
<use xlink:href="#f0_3" transform="matrix(12,0,0,12,203.5,231.9)" />
<use xlink:href="#f0_m" transform="matrix(12,0,0,12,207.4,231.9)" />
<use xlink:href="#f0_o" transform="matrix(12,0,0,12,225.9,231.9)" />
<use xlink:href="#f2_j" transform="matrix(16,0,0,16,698.8,1027.4)" />
<use xlink:href="#f2_3" transform="matrix(16,0,0,16,714,1027.4)" />
<use xlink:href="#f2_o" transform="matrix(16,0,0,16,720.7,1027.4)" />
<use xlink:href="#f2_3" transform="matrix(16,0,0,16,732.8,1027.4)" />
<use xlink:href="#f2_4" transform="matrix(16,0,0,16,739.5,1027.4)" />
<use xlink:href="#f2_j" transform="matrix(16,0,0,16,757,1027.4)" />
<use xlink:href="#f3_b" transform="matrix(12,0,0,12,723.8,1069.1)" />
<use xlink:href="#f3_h" transform="matrix(12,0,0,12,735,1069.1)" />
<use xlink:href="#f3_f" transform="matrix(12,0,0,12,740.3,1069.1)" />
<use xlink:href="#f3_4" transform="matrix(12,0,0,12,748.6,1069.1)" />
<use xlink:href="#f3_7" transform="matrix(12,0,0,12,759.6,1069.1)" />
<use xlink:href="#f3_m" transform="matrix(12,0,0,12,704.6,1069.1)" />
</g>
</g>
<path d="M236.9,1073.8H837M236.9,1094H837m-708.4,22.1H837m-708.4,20H837m-708.4,20.2H837M128.9,1115.7v41m108.4,-83.3v20.2m0,22.1v41m0,-63.1v22.9m227.3,-43.1v20.9m0,21.4v41m.2,-63.1v22.9m194.7,-43.1v83.3m177.1,-83.3v83.3" class="g1_17" />
<g clip-path="url(#c0_17)">
<g fill="#000000" >
<use xlink:href="#f1_2" transform="matrix(11,0,0,11,739.8,1089.9)" />
<use xlink:href="#f1_3" transform="matrix(11,0,0,11,745.4,1089.9)" />
<use xlink:href="#f1_4" transform="matrix(11,0,0,11,551.5,1089.9)" />
<use xlink:href="#f1_3" transform="matrix(11,0,0,11,561.8,1089.9)" />
<use xlink:href="#f1_5" transform="matrix(11,0,0,11,339.3,1089.9)" />
<use xlink:href="#f1_3" transform="matrix(11,0,0,11,351.4,1089.9)" />
<use xlink:href="#f0_a" transform="matrix(12,0,0,12,785,1111.3)" />
<use xlink:href="#f0_9" transform="matrix(12,0,0,12,797,1111.3)" />
<use xlink:href="#f0_3" transform="matrix(12,0,0,12,802,1111.3)" />
<use xlink:href="#f0_f" transform="matrix(12,0,0,12,806.1,1111.3)" />
<use xlink:href="#f0_7" transform="matrix(12,0,0,12,818.1,1111.3)" />
<use xlink:href="#f1_6" transform="matrix(11,0,0,11,668.4,1109.9)" />
<use xlink:href="#f1_7" transform="matrix(11,0,0,11,676.7,1109.9)" />
<use xlink:href="#f1_6" transform="matrix(11,0,0,11,681.4,1109.9)" />
<use xlink:href="#f2_8" transform="matrix(11,0,0,11,689.8,1109.9)" />
<use xlink:href="#f2_9" transform="matrix(11,0,0,11,694.5,1109.9)" />
<use xlink:href="#f0_7" transform="matrix(12,0,0,12,603.8,1111.3)" />
<use xlink:href="#f0_9" transform="matrix(12,0,0,12,614.2,1111.3)" />
<use xlink:href="#f0_4" transform="matrix(12,0,0,12,619.2,1111.3)" />
<use xlink:href="#f0_e" transform="matrix(12,0,0,12,628.8,1111.3)" />
<use xlink:href="#f0_7" transform="matrix(12,0,0,12,641,1111.3)" />
<use xlink:href="#f1_8" transform="matrix(11,0,0,11,473.5,1109.9)" />
<use xlink:href="#f1_9" transform="matrix(11,0,0,11,480.9,1109.9)" />
<use xlink:href="#f1_a" transform="matrix(11,0,0,11,489.3,1109.9)" />
<use xlink:href="#f2_a" transform="matrix(11,0,0,11,502.5,1109.9)" />
<use xlink:href="#f2_9" transform="matrix(11,0,0,11,509.8,1109.9)" />
<use xlink:href="#f0_2" transform="matrix(12,0,0,12,406.4,1111.3)" />
<use xlink:href="#f0_9" transform="matrix(12,0,0,12,416.9,1111.3)" />
<use xlink:href="#f0_6" transform="matrix(12,0,0,12,422,1111.3)" />
<use xlink:href="#f0_e" transform="matrix(12,0,0,12,433.9,1111.3)" />
<use xlink:href="#f0_7" transform="matrix(12,0,0,12,446.1,1111.3)" />
<use xlink:href="#f1_b" transform="matrix(11,0,0,11,246.1,1109.9)" />
<use xlink:href="#f1_a" transform="matrix(11,0,0,11,253.5,1109.9)" />
<use xlink:href="#f2_b" transform="matrix(11,0,0,11,266.6,1109.9)" />
<use xlink:href="#f2_9" transform="matrix(11,0,0,11,275,1109.9)" />
<use xlink:href="#f1_6" transform="matrix(11,0,0,11,668.4,1132.1)" />
<use xlink:href="#f1_7" transform="matrix(11,0,0,11,676.7,1132.1)" />
<use xlink:href="#f1_6" transform="matrix(11,0,0,11,681.4,1132.1)" />
<use xlink:href="#f1_9" transform="matrix(11,0,0,11,689.8,1132.1)" />
<use xlink:href="#f1_8" transform="matrix(11,0,0,11,473.5,1132.1)" />
<use xlink:href="#f1_9" transform="matrix(11,0,0,11,480.9,1132.1)" />
<use xlink:href="#f1_a" transform="matrix(11,0,0,11,489.2,1132.1)" />
<use xlink:href="#f1_9" transform="matrix(11,0,0,11,502.3,1132.1)" />
<use xlink:href="#f1_b" transform="matrix(11,0,0,11,246,1132.1)" />
<use xlink:href="#f1_a" transform="matrix(11,0,0,11,253.4,1132.1)" />
<use xlink:href="#f1_9" transform="matrix(11,0,0,11,266.6,1132.1)" />
<use xlink:href="#f1_c" transform="matrix(11,0,0,11,137.7,1132.1)" />
<use xlink:href="#f1_9" transform="matrix(11,0,0,11,146.1,1132.1)" />
<use xlink:href="#f1_6" transform="matrix(11,0,0,11,668.4,1152.3)" />
<use xlink:href="#f1_7" transform="matrix(11,0,0,11,676.7,1152.3)" />
<use xlink:href="#f1_6" transform="matrix(11,0,0,11,681.4,1152.3)" />
<use xlink:href="#f1_l" transform="matrix(11,0,0,11,689.8,1152.3)" />
<use xlink:href="#f1_q" transform="matrix(11,0,0,11,697.2,1152.3)" />
<use xlink:href="#f1_8" transform="matrix(11,0,0,11,473.5,1152.3)" />
<use xlink:href="#f1_9" transform="matrix(11,0,0,11,480.9,1152.3)" />
<use xlink:href="#f1_a" transform="matrix(11,0,0,11,489.2,1152.3)" />
<use xlink:href="#f1_l" transform="matrix(11,0,0,11,502.3,1152.3)" />
<use xlink:href="#f1_q" transform="matrix(11,0,0,11,509.8,1152.3)" />
<use xlink:href="#f1_b" transform="matrix(11,0,0,11,246,1152.3)" />
<use xlink:href="#f1_a" transform="matrix(11,0,0,11,253.4,1152.3)" />
<use xlink:href="#f1_b" transform="matrix(11,0,0,11,266.6,1152.3)" />
<use xlink:href="#f1_q" transform="matrix(11,0,0,11,273.9,1152.3)" />
<use xlink:href="#f1_d" transform="matrix(11,0,0,11,137.7,1152.3)" />
<use xlink:href="#f1_e" transform="matrix(11,0,0,11,142.4,1152.3)" />
<use xlink:href="#f0_z" transform="matrix(11,0,0,11,137.5,1208.9)" />
<use xlink:href="#f0_1d" transform="matrix(11,0,0,11,148.2,1208.9)" />
</g>
</g>
<image preserveAspectRatio="none" x="272" y="322" width="372" height="225" xlink:href="img/1.png" />
<defs>
<path d="M139,0V836H278V0Z" 
id="f0_9"
transform="scale(0.001,-0.001)" />

<path d="M66,0V107H332V555c0,0,0,92,-37,133c0,0,-37,41,-116,41H85V836h94c0,0,153,0,223,-66c0,0,69,-66,69,-231V0Z" 
id="f0_l"
transform="scale(0.001,-0.001)" />

<path d="M139,0V138c0,0,0,61,8,112c0,0,7,52,19,87c0,0,11,36,30,66c0,0,19,31,35,49c0,0,17,19,41,35c0,0,25,17,41,25c0,0,17,7,40,17L141,836H303L613,388c0,0,20,10,33,18c0,0,13,8,34,28c0,0,20,20,33,44c0,0,13,25,22,66c0,0,10,41,10,92V836H882V698c0,0,0,-61,-7,-112c0,0,-6,-52,-18,-88c0,0,-12,-36,-30,-66c0,0,-19,-30,-36,-49c0,0,-17,-18,-41,-34c0,0,-24,-17,-40,-25c0,0,-17,-8,-41,-17L882,0H720L409,448c0,0,-21,-11,-34,-19c0,0,-13,-8,-34,-27c0,0,-21,-20,-34,-44c0,0,-12,-25,-22,-66c0,0,-9,-41,-9,-92V0Z" 
id="f0_e"
transform="scale(0.001,-0.001)" />

<path d="M180,0L66,836H203L258,443c0,0,36,1,64,6c0,0,28,6,49,18c0,0,20,12,35,26c0,0,15,13,26,36c0,0,11,24,17,44c0,0,7,20,12,55c0,0,6,34,9,60c0,0,3,26,8,71c0,0,4,45,9,77H610c0,0,-13,-194,-31,-271c0,0,-31,-127,-111,-179c0,0,-71,-45,-196,-50L304,107c0,0,73,0,130,5c0,0,56,6,111,21c0,0,54,15,94,40c0,0,40,25,77,64c0,0,37,39,63,94c0,0,25,54,46,128c0,0,21,73,34,166c0,0,13,94,20,211h138c0,0,-14,-124,-29,-218c0,0,-16,-94,-39,-179c0,0,-22,-85,-50,-146c0,0,-28,-61,-68,-112c0,0,-39,-51,-87,-84C744,97,696,65,632,42C632,42,568,19,492,10C492,10,417,0,320,0Z" 
id="f0_n"
transform="scale(0.001,-0.001)" />

<path d="M66,0V106H322c0,0,75,0,127,23c0,0,53,23,82,67c0,0,29,43,42,98c0,0,13,54,13,124c0,0,0,70,-13,124c0,0,-13,55,-42,98c0,0,-29,44,-82,67c0,0,-52,23,-127,23H66V836H322c0,0,87,0,157,-24c0,0,70,-24,115,-64c0,0,45,-40,74,-94c0,0,30,-55,43,-113c0,0,13,-59,13,-123c0,0,0,-64,-13,-123c0,0,-13,-58,-43,-113c0,0,-29,-54,-74,-94C594,88,549,48,479,24C479,24,409,0,322,0Z" 
id="f0_4"
transform="scale(0.001,-0.001)" />

<path d="M117,-176L179,62V190H336V62L213,-176Z" 
id="f0_o"
transform="scale(0.001,-0.001)" />

<path d="M154,0V454l138,56V0ZM722,0V454c0,0,0,161,-49,218c0,0,-48,57,-186,57H139V836H485c0,0,207,0,291,-93c0,0,83,-94,83,-318V0Z" 
id="f0_6"
transform="scale(0.001,-0.001)" />

<path d="M139,0V106H400c0,0,176,0,253,71c0,0,78,72,78,250c0,0,0,163,-80,233c0,0,-81,69,-250,69H278L277,564c0,0,-1,-54,26,-80c0,0,27,-25,82,-25c0,0,30,0,80,9V355c0,0,-61,-12,-111,-12c0,0,-100,0,-157,55c0,0,-58,55,-58,186V836H456c0,0,193,0,303,-109c0,0,110,-109,110,-309c0,0,0,-200,-110,-309C759,109,648,0,456,0Z" 
id="f0_d"
transform="scale(0.001,-0.001)" />

<path d="M66,0V107H554V452c0,0,0,56,-4,93c0,0,-4,37,-18,75c0,0,-14,38,-40,60c0,0,-26,22,-71,36c0,0,-45,13,-110,13H66V836H312c0,0,91,0,157,-17c0,0,66,-17,109,-49c0,0,44,-32,69,-84c0,0,26,-52,36,-114c0,0,10,-62,10,-147V107H817V0Z" 
id="f0_2"
transform="scale(0.001,-0.001)" />

<path d="M139,0V836H485c0,0,206,0,290,-90c0,0,84,-89,84,-294V0H721V473c0,0,0,147,-49,202c0,0,-48,54,-186,54H277V0Z" 
id="f0_f"
transform="scale(0.001,-0.001)" />

<path d="M102,312V836H241V369L102,312Z" 
id="f0_3"
transform="scale(0.001,-0.001)" />

<path d="M585,0V426c0,0,0,54,-8,98c0,0,-8,44,-27,83c0,0,-19,40,-49,66c0,0,-30,26,-77,41c0,0,-47,15,-108,15H66V836H315c0,0,94,0,166,-20c0,0,71,-20,116,-54c0,0,46,-35,75,-88c0,0,28,-52,40,-112c0,0,12,-60,12,-137V0Z" 
id="f0_5"
transform="scale(0.001,-0.001)" />

<path d="M114,0l60,312c0,0,2,12,8,39c0,0,6,27,7,37c0,0,2,11,5,30c0,0,2,19,4,33c0,0,1,15,1,31c0,0,0,48,-35,146c0,0,-35,98,-98,208H228c0,0,3,-8,27,-67c0,0,25,-58,41,-117c0,0,21,53,50,90c0,0,29,37,57,57c0,0,29,21,65,32c0,0,37,11,65,14c0,0,28,3,67,3c0,0,300,0,300,-396V0H480V106H761V452c0,0,0,146,-46,215c0,0,-45,70,-118,70c0,0,-134,0,-198,-119c0,0,-36,-68,-67,-222c0,0,-2,-10,-6,-27L253,0Z" 
id="f0_m"
transform="scale(0.001,-0.001)" />

<path d="M736,107V473c0,0,0,147,-48,202c0,0,-49,54,-187,54H278V107ZM139,0V836H499c0,0,105,0,177,-22c0,0,72,-21,116,-69c0,0,44,-49,64,-119c0,0,19,-71,19,-174V0Z" 
id="f0_j"
transform="scale(0.001,-0.001)" />

<path d="M287,0L589,729H66v386H205V836l547,-1l-2,-82L433,0Z" 
id="f0_7"
transform="scale(0.001,-0.001)" />

<path d="M71,-141V-15L289,62L66,836H210L416,109c0,0,99,42,153,98c0,0,53,56,80,155c0,0,26,98,26,262V836H817V624c0,0,0,-88,-7,-154c0,0,-7,-67,-25,-132c0,0,-18,-66,-51,-116c0,0,-33,-51,-84,-98c0,0,-50,-48,-123,-87c0,0,-72,-39,-169,-74L71,-141Z" 
id="f0_k"
transform="scale(0.001,-0.001)" />

<path d="M163,0V190H321V0Z" 
id="f0_g"
transform="scale(0.001,-0.001)" />

<path d="M66,0V106H564L66,836H228L516,413c0,0,3,2,9,6c0,0,17,13,27,21c0,0,10,8,26,27c0,0,17,20,26,40c0,0,9,21,16,54c0,0,7,34,7,75V836H764V698c0,0,0,-55,-7,-102c0,0,-7,-47,-16,-79c0,0,-10,-33,-27,-62c0,0,-18,-29,-32,-46c0,0,-14,-17,-37,-35c0,0,-22,-17,-36,-25c0,0,-13,-8,-36,-20L767,53V0Z" 
id="f0_q"
transform="scale(0.001,-0.001)" />

<path d="M112,-5c0,0,-39,0,-97,11V113c0,0,48,-10,77,-10c0,0,53,0,70,42c0,0,17,43,17,164V729H50V836H501c0,0,107,0,179,-25c0,0,72,-25,112,-77c0,0,40,-51,57,-118c0,0,16,-67,16,-164V0H726V454c0,0,0,55,-3,92c0,0,-4,37,-17,75c0,0,-14,38,-38,59c0,0,-24,22,-65,36c0,0,-42,13,-102,13H318V309c0,0,0,-160,-46,-237C272,72,226,-5,112,-5Z" 
id="f0_a"
transform="scale(0.001,-0.001)" />

<path d="M543,-317V369c0,0,0,85,-8,143c0,0,-8,58,-27,101c0,0,-18,44,-51,69c0,0,-33,24,-80,36c0,0,-48,11,-117,11H66V836H257c0,0,125,0,205,-23c0,0,80,-23,130,-79c0,0,50,-56,70,-143c0,0,20,-86,20,-222V-317Z" 
id="f0_s"
transform="scale(0.001,-0.001)" />

<path d="M139,-317V836H278V-317Z" 
id="f0_r"
transform="scale(0.001,-0.001)" />

<path d="M522,92c0,0,247,0,247,333c0,0,0,88,-17,146c0,0,-17,58,-53,91c0,0,-35,33,-82,46c0,0,-48,14,-116,14H276V419c0,0,0,-327,246,-327Zm0,-112c0,0,-193,0,-289,109c0,0,-95,110,-95,337V836H501c0,0,213,0,309,-93c0,0,96,-94,96,-317c0,0,0,-227,-95,-337C811,89,715,-20,522,-20Z" 
id="f0_i"
transform="scale(0.001,-0.001)" />

<path d="M152,0V473c0,0,0,94,28,161c0,0,29,66,71,95H66V836H463V729H404c0,0,-65,0,-89,-57c0,0,-25,-58,-25,-199V0Z" 
id="f0_b"
transform="scale(0.001,-0.001)" />

<path d="M522,-20c0,0,-196,0,-290,99c0,0,-94,100,-94,324V836H276V397c0,0,0,-86,16,-147c0,0,17,-60,50,-94c0,0,34,-34,77,-49c0,0,43,-15,103,-15c0,0,59,0,102,15c0,0,44,15,77,49c0,0,33,34,50,94c0,0,17,61,17,147c0,0,0,84,-8,143c0,0,-7,58,-25,105c0,0,-17,47,-51,69c0,0,-33,23,-83,23c0,0,-50,0,-119,-22V821c0,0,85,23,150,23c0,0,76,0,130,-30c0,0,53,-31,85,-90c0,0,31,-59,45,-138c0,0,13,-78,13,-183c0,0,0,-224,-93,-324c0,0,-94,-99,-290,-99Z" 
id="f0_p"
transform="scale(0.001,-0.001)" />

<path d="M156,-317V454l139,56V-317ZM505,0L806,729H139V835H967V753L650,0Z" 
id="f0_c"
transform="scale(0.001,-0.001)" />

<path d="M138,-7c0,0,-34,0,-72,10V129c0,0,25,-8,52,-8c0,0,33,0,58,5c0,0,26,5,58,24c0,0,33,20,53,54c0,0,21,34,36,97c0,0,15,64,15,151c0,0,0,113,-19,173c0,0,-19,60,-56,82c0,0,-38,22,-107,22H89V836h72c0,0,165,0,240,-91c0,0,76,-91,76,-293c0,0,0,-107,26,-227c0,0,25,-119,83,-225H437c0,0,-43,101,-62,184c0,0,-24,-60,-51,-99c0,0,-26,-38,-56,-58C268,27,239,7,209,0c0,0,-30,-7,-71,-7Z" 
id="f0_u"
transform="scale(0.001,-0.001)" />

<path d="M291,0V190H443V0Zm5,299V414c0,0,0,75,21,124c0,0,21,48,88,113l67,66c0,0,42,40,61,75c0,0,19,35,19,71c0,0,0,67,-48,108c0,0,-49,41,-130,41c0,0,-59,0,-125,-26c0,0,-67,-26,-139,-77v140c0,0,70,43,142,64c0,0,72,21,148,21c0,0,138,0,221,-72c0,0,83,-73,83,-191c0,0,0,-57,-27,-108c0,0,-27,-51,-94,-115L517,583c0,0,-34,-35,-49,-54c0,0,-14,-20,-20,-39c0,0,-5,-16,-7,-38c0,0,-2,-22,-2,-61V299Z" 
id="f0_18"
transform="scale(0.001,-0.001)" />

<path d="M495,0V729H66V836H781V729H634V0Z" 
id="f0_h"
transform="scale(0.001,-0.001)" />

<path d="M249,-14c0,0,-71,0,-107,42c0,0,-35,42,-35,119V639H15v33l93,29l76,159h47V701H391V639H231V161c0,0,0,-48,22,-73c0,0,22,-24,57,-24c0,0,44,0,106,12V26C416,26,389,8,340,-2c0,0,-49,-12,-91,-12Z" 
id="f1_d"
transform="scale(0.001,-0.001)" />

<path d="M31,0V33l88,19V649L31,668v33H235l7,-87c0,0,44,37,121,71c0,0,76,35,121,35h11V530H463l-43,82c0,0,-37,0,-88,-10c0,0,-52,-10,-89,-26V52L363,33V0Z" 
id="f1_r"
transform="scale(0.001,-0.001)" />

<path d="M284,67c0,0,51,0,88,12c0,0,37,12,74,30V358l-98,-3c0,0,-100,-4,-135,-39c0,0,-35,-35,-35,-117c0,0,0,-132,106,-132ZM233,-14c0,0,-179,0,-179,208c0,0,0,70,27,116c0,0,27,46,87,70c0,0,60,24,173,27l105,3V519c0,0,0,72,-26,107c0,0,-27,34,-82,34c0,0,-75,0,-137,-35L176,538H134V691c0,0,121,26,213,26c0,0,115,0,169,-47c0,0,54,-47,54,-144V52L657,33V0H465L451,70c0,0,-85,-84,-218,-84Z" 
id="f1_b"
transform="scale(0.001,-0.001)" />

<path d="M439,0V33l93,19V500c0,0,0,62,-30,97c0,0,-31,36,-94,36c0,0,-67,0,-165,-22V52L338,33V0H35V33l84,19V649L35,668v33H235l7,-57c0,0,57,33,122,54c0,0,65,22,108,22c0,0,91,0,137,-53c0,0,47,-53,47,-154V52L741,33V0Z" 
id="f1_p"
transform="scale(0.001,-0.001)" />

<path d="M383,64c0,0,44,0,87,7c0,0,43,7,65,17V645c0,0,-67,13,-152,13c0,0,-194,0,-194,-309c0,0,0,-143,48,-214c0,0,47,-71,146,-71Zm56,-389v35l96,18V-77c0,0,0,73,7,124c0,0,-79,-61,-200,-61c0,0,-287,0,-287,362c0,0,0,180,81,276c0,0,81,96,237,96c0,0,84,0,166,-18l67,33h53V-272l77,-18v-35Z" 
id="f1_x"
transform="scale(0.001,-0.001)" />

<path d="M289,-14c0,0,-179,0,-179,205V649L20,668v33H233V200c0,0,0,-128,120,-128c0,0,92,0,173,23V649L420,668v33H649V52L738,33V0H533l-6,57C527,57,474,28,405,7c0,0,-69,-21,-116,-21Z" 
id="f1_y"
transform="scale(0.001,-0.001)" />

<path d="M32,0V33L151,52V649L52,668v33H275V52L395,33V0ZM201,850c0,0,-32,0,-56,24c0,0,-24,24,-24,56c0,0,0,34,24,58c0,0,24,24,56,24c0,0,34,0,58,-24c0,0,24,-24,24,-58c0,0,0,-32,-24,-56c0,0,-24,-24,-58,-24Z" 
id="f1_7"
transform="scale(0.001,-0.001)" />

<path d="M31,0V33L150,52v956L31,1026v34H274V52L394,33V0Z" 
id="f1_j"
transform="scale(0.001,-0.001)" />

<path d="M377,45c0,0,99,0,147,73c0,0,47,73,47,237c0,0,0,161,-47,233c0,0,-47,72,-147,72c0,0,-97,0,-141,-69c0,0,-44,-69,-44,-236c0,0,0,-169,45,-240c0,0,44,-70,140,-70Zm0,-59c0,0,-158,0,-238,94c0,0,-81,95,-81,274c0,0,0,178,81,272c0,0,80,94,244,94c0,0,160,0,241,-92c0,0,82,-92,82,-274c0,0,0,-368,-329,-368Z" 
id="f1_9"
transform="scale(0.001,-0.001)" />

<path d="M721,-14c0,0,-12,0,-12,9l4,28c0,0,17,82,17,338c0,0,0,105,-11,163c0,0,-11,58,-35,84c0,0,-25,26,-83,26H315c0,0,-43,-39,-67,-90c0,0,-25,-51,-25,-104c0,0,0,-59,17,-104c0,0,17,-45,35,-78c0,0,18,-34,18,-44c0,0,0,-26,-20,-95C273,119,252,50,231,0H26L87,214h69c0,0,23,0,23,14l-7,15c0,0,-15,27,-27,68c0,0,-11,41,-11,83c0,0,0,68,25,124c0,0,25,57,86,116H200c0,0,-45,0,-71,32c0,0,-27,33,-27,94c0,0,0,49,17,93c0,0,16,43,32,43c0,0,17,0,17,-10V869c0,0,0,-24,27,-24H637c0,0,73,0,103,-18c0,0,30,-17,46,-62c0,0,17,-46,24,-124c0,0,8,-78,8,-214V338c0,0,0,-279,-27,-311c0,0,-14,-16,-37,-28c0,0,-23,-13,-33,-13Z" 
id="f2_j"
transform="scale(0.001,-0.001)" />

<path d="M204,-8c0,0,-9,0,-11,5c0,0,-2,5,-2,22V549c0,0,0,40,-4,56c0,0,-4,16,-15,22c0,0,-10,7,-39,7H90c0,0,-33,0,-52,33c0,0,-19,33,-19,90c0,0,0,53,15,98c0,0,16,44,35,44c0,0,12,0,12,-13V872c0,0,0,-27,31,-27h42c0,0,79,0,103,-20c0,0,23,-19,23,-83V67c0,0,0,-16,-8,-26c0,0,-9,-10,-33,-30c0,0,-25,-19,-35,-19Z" 
id="f2_3"
transform="scale(0.001,-0.001)" />

<path d="M20,0L75,212H492c0,0,19,51,25,97c0,0,5,46,5,105c0,0,0,63,-6,124c0,0,-6,61,-23,78c0,0,-16,18,-66,18H112c0,0,-36,0,-57,40c0,0,-21,40,-21,101c0,0,0,50,16,87c0,0,16,36,36,36c0,0,13,0,13,-14V870c0,0,0,-25,34,-25H457c0,0,63,0,92,-11c0,0,28,-10,41,-36c0,0,13,-26,18,-107c0,0,4,-80,4,-174c0,0,0,-174,-13,-224c0,0,-4,-15,-21,-41c0,0,-17,-25,-31,-40H688L640,0Z" 
id="f2_o"
transform="scale(0.001,-0.001)" />

<path d="M216,0c0,0,-59,212,-83,350c0,0,-25,139,-25,198c0,0,0,76,23,127c0,0,-42,13,-58,43c0,0,-15,30,-15,72c0,0,0,40,20,74c0,0,20,34,37,34c0,0,10,0,10,-13c0,0,0,-42,69,-42c0,0,57,0,80,-21c0,0,22,-21,22,-62c0,0,0,-38,-7,-72c0,0,-6,-34,-12,-34c0,0,-6,0,-16,10c0,0,-10,10,-25,10c0,0,-25,0,-35,-24c0,0,-10,-24,-10,-71c0,0,0,-164,72,-374c0,0,38,80,116,231c0,0,87,168,121,238c0,0,-36,6,-52,34c0,0,-17,28,-17,66c0,0,0,41,21,82c0,0,20,42,37,42c0,0,9,0,10,-7c0,0,5,-22,13,-32c0,0,9,-11,32,-12l44,-4c0,0,87,-4,87,-94c0,0,0,-33,-7,-67c0,0,-8,-34,-16,-34l-16,10c0,0,-15,10,-30,10c0,0,-22,0,-39,-29c0,0,-18,-32,-39,-72c0,0,-21,-41,-178,-355H691l38,91c0,0,58,139,124,224c0,0,38,50,60,80c0,0,22,29,22,45c0,0,0,12,-7,19c0,0,-6,7,-27,12c0,0,-42,18,-60,41c0,0,-17,24,-17,59c0,0,0,29,11,56c0,0,12,27,27,43c0,0,16,16,26,16c0,0,9,-1,10,-6l4,-14c0,0,4,-21,27,-25l70,-13c0,0,32,-6,51,-30c0,0,20,-24,20,-61c0,0,-2,-45,-23,-87c0,0,-21,-41,-91,-127c0,0,-46,-57,-77,-116c0,0,-31,-59,-71,-161L706,0Z" 
id="f2_4"
transform="scale(0.001,-0.001)" />

<path d="M248,0L521,658H66v429H313V836l493,-1V716L504,0Z" 
id="f3_b"
transform="scale(0.001,-0.001)" />

<path d="M102,250V836H349V351L102,250Z" 
id="f3_h"
transform="scale(0.001,-0.001)" />

<path d="M154,-13c0,0,-38,0,-85,9V198c0,0,58,-15,103,-15c0,0,84,0,118,60c0,0,35,61,35,206c0,0,0,66,-7,105c0,0,-6,39,-24,63c0,0,-17,25,-44,33c0,0,-27,8,-73,8H66V836H225c0,0,198,0,275,-115c0,0,56,-84,65,-264c0,0,3,-55,3,-148c0,0,0,-177,71,-309L393,1c0,0,-53,130,-54,141c0,0,-28,-90,-65,-123c0,0,-38,-32,-120,-32Z" 
id="f3_f"
transform="scale(0.001,-0.001)" />

<path d="M534,0V425c0,0,0,109,-41,171c0,0,-41,62,-140,62H66V836H352c0,0,99,0,174,-20c0,0,75,-20,123,-55c0,0,48,-35,78,-87c0,0,30,-53,42,-113c0,0,12,-60,12,-136V0Z" 
id="f3_4"
transform="scale(0.001,-0.001)" />

<path d="M173,-6C173,-6,61,-6,15,9V177c0,0,73,-10,82,-10c0,0,37,0,52,30c0,0,14,29,14,116V658H18V836H516c0,0,262,0,341,-145c0,0,48,-89,48,-242V0H658V450c0,0,0,131,-37,171c0,0,-34,37,-105,37H411V313c0,0,0,-189,-67,-258C344,55,285,-6,173,-6Z" 
id="f3_7"
transform="scale(0.001,-0.001)" />

<path d="M180,0V198H433V918L173,864v196l258,54H705V198H958V0Z" 
id="f3_m"
transform="scale(0.001,-0.001)" />

<path d="M55,0V40L184,60V941L55,960v40H455V960L327,941V60L455,40V0Z" 
id="f1_2"
transform="scale(0.001,-0.001)" />

<path d="M448,506c0,0,134,0,190,49c0,0,57,50,57,168c0,0,0,114,-56,162c0,0,-56,48,-195,48H316V506ZM777,0L496,438H316V60L468,40V0H54V40L172,60V941L44,960v40H476c0,0,188,0,277,-63c0,0,90,-64,90,-204c0,0,0,-100,-54,-173c0,0,-55,-73,-151,-101L909,60L1017,40V0Z" 
id="f1_3"
transform="scale(0.001,-0.001)" />

<path d="M44,0V40L172,60V941L44,960v40H794V760H745L721,922c0,0,-83,11,-241,11H316V543H586l23,119h48V354H609L586,475H316V67H513c0,0,193,0,252,12l43,185h49L843,0Z" 
id="f1_4"
transform="scale(0.001,-0.001)" />

<path d="M681,416L504,902L333,416ZM669,0V40L803,60L704,348H310L210,60L344,40V0H15V40L128,60l341,949H611L965,60L1092,40V0Z" 
id="f1_5"
transform="scale(0.001,-0.001)" />

<path d="M360,-14L72,649L0,668v33H327V668L216,648L420,164L615,649L504,668v33H764V668L697,652L416,-14Z" 
id="f1_6"
transform="scale(0.001,-0.001)" />

<path d="M34,0V49l76,18V634L38,652v49H325V67L402,49V0ZM217,831c0,0,-48,0,-81,33c0,0,-34,33,-34,82c0,0,0,48,34,81c0,0,34,33,81,33c0,0,48,0,81,-33c0,0,33,-33,33,-81c0,0,0,-47,-33,-81c0,0,-32,-34,-81,-34Z" 
id="f2_8"
transform="scale(0.001,-0.001)" />

<path d="M41,0V49l91,18V634L41,652v49H336l8,-145c0,0,80,89,144,128c0,0,64,40,117,40h40V468H604l-45,94c0,0,-47,0,-106,-21c0,0,-60,-20,-105,-48V67L460,49V0Z" 
id="f2_9"
transform="scale(0.001,-0.001)" />

<path d="M399,-14c0,0,-341,0,-341,370c0,0,0,175,87,269c0,0,87,95,249,95c0,0,101,0,220,-23V501H573L541,625c0,0,-62,35,-149,35c0,0,-200,0,-200,-304c0,0,0,-158,61,-225c0,0,61,-67,189,-67c0,0,109,0,189,24V43C631,43,595,16,530,1c0,0,-64,-15,-131,-15Z" 
id="f1_8"
transform="scale(0.001,-0.001)" />

<path d="M431,0V33L535,52V499c0,0,0,62,-32,96c0,0,-32,33,-95,33c0,0,-66,0,-163,-22V52L350,33V0H32V33l89,19V649L32,668v33H237l6,-57c0,0,56,32,119,54c0,0,62,22,110,22c0,0,52,0,95,-20c0,0,44,-19,66,-62c0,0,57,32,134,57c0,0,77,25,128,25c0,0,179,0,179,-207V52l90,-19V0H846V33L950,52V499c0,0,0,129,-119,129c0,0,-19,0,-45,-3c0,0,-26,-3,-52,-7c0,0,-25,-4,-49,-8c0,0,-23,-5,-39,-8c0,0,13,-41,13,-89V52L764,33V0Z" 
id="f1_a"
transform="scale(0.001,-0.001)" />

<path d="M434,423c0,0,0,101,-7,142c0,0,-6,40,-22,60c0,0,-16,19,-45,19c0,0,-44,0,-66,-48c0,0,-22,-49,-22,-173ZM389,-14c0,0,-172,0,-254,89c0,0,-83,90,-83,279c0,0,0,184,79,274c0,0,79,91,238,91c0,0,142,0,206,-76c0,0,64,-76,64,-237V345H271V333c0,0,0,-111,18,-158c0,0,18,-47,58,-72c0,0,40,-25,110,-25c0,0,66,0,166,22V42C623,42,582,18,517,1c0,0,-66,-15,-128,-15Z" 
id="f2_a"
transform="scale(0.001,-0.001)" />

<path d="M345,75c0,0,50,0,110,26V351l-63,-2c0,0,-72,-3,-100,-38c0,0,-28,-35,-28,-113c0,0,0,-63,22,-93c0,0,23,-30,59,-30ZM266,-14c0,0,-217,0,-217,208c0,0,0,79,32,126c0,0,32,48,93,71c0,0,60,22,190,25l91,2V521c0,0,0,126,-104,126c0,0,-62,0,-140,-39L183,521H134V691c0,0,112,17,165,21c0,0,53,5,108,5c0,0,264,0,264,-194V67L741,49V0H483L466,54C466,54,408,14,361,0c0,0,-47,-14,-95,-14Z" 
id="f2_b"
transform="scale(0.001,-0.001)" />

<path d="M148,-329c0,0,-58,0,-114,13v151H69l24,-71c0,0,23,-17,64,-17c0,0,39,0,72,22c0,0,33,23,60,67c0,0,27,44,68,157L90,649L19,668v33H344V668L233,648L423,158L606,649L497,668v33H758V668L685,652L411,-43c0,0,-48,-124,-84,-177c0,0,-36,-54,-79,-82c0,0,-44,-27,-100,-27Z" 
id="f1_c"
transform="scale(0.001,-0.001)" />

<path d="M495,413c0,0,0,133,-34,190c0,0,-34,57,-105,57c0,0,-78,0,-119,-63c0,0,-42,-62,-42,-184ZM374,-14c0,0,-163,0,-239,87c0,0,-75,88,-75,283c0,0,0,183,77,273c0,0,76,91,219,91c0,0,269,0,269,-306V353H194V340c0,0,0,-103,23,-160c0,0,22,-57,70,-87c0,0,47,-29,124,-29c0,0,40,0,96,6c0,0,55,7,91,15V43C598,43,562,20,500,3c0,0,-61,-17,-126,-17Z" 
id="f1_l"
transform="scale(0.001,-0.001)" />

<path d="M278,-14c0,0,-52,0,-115,11c0,0,-63,10,-99,23V193H98L134,95c0,0,56,-50,146,-50c0,0,144,0,144,123c0,0,0,91,-114,130l-66,21c0,0,-75,25,-110,50c0,0,-34,26,-53,63c0,0,-18,36,-18,89c0,0,0,92,63,145c0,0,63,54,170,54c0,0,77,0,193,-23V544H454l-32,81c0,0,-39,35,-124,35c0,0,-61,0,-92,-30c0,0,-32,-30,-32,-80c0,0,0,-43,29,-72c0,0,28,-29,86,-48c0,0,110,-38,144,-55c0,0,33,-17,57,-42c0,0,23,-25,36,-57c0,0,13,-32,13,-79c0,0,0,-104,-66,-158c0,0,-66,-53,-195,-53Z" 
id="f1_q"
transform="scale(0.001,-0.001)" />

<path d="M289,-14c0,0,-179,0,-179,205V649L20,668v33H233V200c0,0,0,-128,120,-128c0,0,92,0,173,23V649L420,668v33H649V52L738,34V0H533l-6,57C527,57,474,28,405,6c0,0,-69,-20,-116,-20Zm24,849v24l147,203H618v-27L354,835Z" 
id="f1_e"
transform="scale(0.001,-0.001)" />

<path d="M190,0V127H436V977L168,923v137l267,54H586V127H832V0Z" 
id="f0_z"
transform="scale(0.001,-0.001)" />

<path d="M280,0L660,987H125v127H841v-64L437,0Z" 
id="f0_1d"
transform="scale(0.001,-0.001)" />


</defs>
</svg>