<?xml version="1.0" encoding="UTF-8" standalone="no"?>
<!DOCTYPE svg PUBLIC "-//W3C//DTD SVG 1.1//EN"
"http://www.w3.org/Graphics/SVG/1.1/DTD/svg11.dtd">
<svg viewBox="0 0 909 1286" version="1.1" xmlns="http://www.w3.org/2000/svg" xmlns:xlink="http://www.w3.org/1999/xlink">
<defs>
<clipPath id="c0_8"><path d="M0,1286.2V0H909.4V1286.2Z" /></clipPath>
<style type="text/css"><![CDATA[
.g0_8{
fill: #D8D8D8;
}
.g1_8{
fill: none;
stroke: #000000;
stroke-width: 0.7638889;
stroke-linecap: butt;
stroke-linejoin: round;
}
]]></style>
</defs>
<path fill-rule="evenodd" d="M226.7,280H421.6V257.9H226.7V280Z" class="g0_8" />
<path fill-rule="evenodd" d="M421.7,280H616.4V257.9H421.7V280Z" class="g0_8" />
<path fill-rule="evenodd" d="M616.5,280H771.9V257.9H616.5V280Z" class="g0_8" />
<path fill-rule="evenodd" d="M118.4,300.1H226.6V280H118.4v20.1Z" class="g0_8" />
<path fill-rule="evenodd" d="M118.4,320.1H226.6V300.2H118.4v19.9Z" class="g0_8" />
<path fill-rule="evenodd" d="M118.4,340.3H226.6V320.2H118.4v20.1Z" class="g0_8" />
<path fill-rule="evenodd" d="M118.4,360.3H226.6V340.4H118.4v19.9Z" class="g0_8" />
<path fill-rule="evenodd" d="M118.4,380.5H226.6V360.4H118.4v20.1Z" class="g0_8" />
<path fill-rule="evenodd" d="M229.6,522.4H338V502.3H229.6v20.1Z" class="g0_8" />
<path fill-rule="evenodd" d="M338.1,522.4H446.5V502.3H338.1v20.1Z" class="g0_8" />
<path fill-rule="evenodd" d="M446.6,522.4H555V502.3H446.6v20.1Z" class="g0_8" />
<path fill-rule="evenodd" d="M555,522.4H663.6V502.3H555v20.1Z" class="g0_8" />
<path fill-rule="evenodd" d="M663.7,522.4H771.9V502.3H663.7v20.1Z" class="g0_8" />
<path fill-rule="evenodd" d="M121.2,542.4H229.5V522.5H121.2v19.9Z" class="g0_8" />
<path fill-rule="evenodd" d="M121.2,562.6H229.5V542.5H121.2v20.1Z" class="g0_8" />
<path fill-rule="evenodd" d="M121.2,582.6H229.5V562.7H121.2v19.9Z" class="g0_8" />
<path fill-rule="evenodd" d="M121.2,602.8H229.5V582.7H121.2v20.1Z" class="g0_8" />
<path fill-rule="evenodd" d="M121.2,622.8H229.5V602.9H121.2v19.9Z" class="g0_8" />
<path fill-rule="evenodd" d="M226.7,280H421.6V257.9H226.7V280Z" class="g0_8" />
<path fill-rule="evenodd" d="M421.7,280H616.4V257.9H421.7V280Z" class="g0_8" />
<path fill-rule="evenodd" d="M616.5,280H771.9V257.9H616.5V280Z" class="g0_8" />
<path fill-rule="evenodd" d="M118.4,300.1H226.6V280H118.4v20.1Z" class="g0_8" />
<path fill-rule="evenodd" d="M118.4,320.1H226.6V300.2H118.4v19.9Z" class="g0_8" />
<path fill-rule="evenodd" d="M118.4,340.3H226.6V320.2H118.4v20.1Z" class="g0_8" />
<path fill-rule="evenodd" d="M118.4,360.3H226.6V340.4H118.4v19.9Z" class="g0_8" />
<path fill-rule="evenodd" d="M118.4,380.5H226.6V360.4H118.4v20.1Z" class="g0_8" />
<path fill-rule="evenodd" d="M229.6,522.4H338V502.3H229.6v20.1Z" class="g0_8" />
<path fill-rule="evenodd" d="M338.1,522.4H446.5V502.3H338.1v20.1Z" class="g0_8" />
<path fill-rule="evenodd" d="M446.6,522.4H555V502.3H446.6v20.1Z" class="g0_8" />
<path fill-rule="evenodd" d="M555,522.4H663.6V502.3H555v20.1Z" class="g0_8" />
<path fill-rule="evenodd" d="M663.7,522.4H771.9V502.3H663.7v20.1Z" class="g0_8" />
<path fill-rule="evenodd" d="M121.2,542.4H229.5V522.5H121.2v19.9Z" class="g0_8" />
<path fill-rule="evenodd" d="M121.2,562.6H229.5V542.5H121.2v20.1Z" class="g0_8" />
<path fill-rule="evenodd" d="M121.2,582.6H229.5V562.7H121.2v19.9Z" class="g0_8" />
<path fill-rule="evenodd" d="M121.2,602.8H229.5V582.7H121.2v20.1Z" class="g0_8" />
<path fill-rule="evenodd" d="M121.2,622.8H229.5V602.9H121.2v19.9Z" class="g0_8" />
<g clip-path="url(#c0_8)">
<g fill="#000000" >
<use xlink:href="#f0_4" transform="matrix(12,0,0,12,725.2,127.1)" />
<use xlink:href="#f0_l" transform="matrix(12,0,0,12,736.2,127.1)" />
<use xlink:href="#f0_8" transform="matrix(12,0,0,12,747.4,127.1)" />
<use xlink:href="#f0_7" transform="matrix(12,0,0,12,759.6,127.1)" />
<use xlink:href="#f1_b" transform="matrix(12,0,0,12,575.8,148.5)" />
<use xlink:href="#f1_8" transform="matrix(12,0,0,12,587.8,148.5)" />
<use xlink:href="#f1_g" transform="matrix(12,0,0,12,599.3,148.5)" />
<use xlink:href="#f1_c" transform="matrix(12,0,0,12,611.2,148.5)" />
<use xlink:href="#f1_3" transform="matrix(12,0,0,12,616.2,148.5)" />
<use xlink:href="#f1_q" transform="matrix(12,0,0,12,635.1,148.5)" />
<use xlink:href="#f1_j" transform="matrix(12,0,0,12,639.2,148.5)" />
<use xlink:href="#f1_q" transform="matrix(12,0,0,12,646.7,148.5)" />
<use xlink:href="#f1_7" transform="matrix(12,0,0,12,650.8,148.5)" />
<use xlink:href="#f1_h" transform="matrix(12,0,0,12,661.2,148.5)" />
<use xlink:href="#f1_v" transform="matrix(12,0,0,12,680.1,148.5)" />
<use xlink:href="#f1_i" transform="matrix(12,0,0,12,686.2,148.5)" />
<use xlink:href="#f1_q" transform="matrix(12,0,0,12,698.4,148.5)" />
<use xlink:href="#f1_j" transform="matrix(12,0,0,12,702.5,148.5)" />
<use xlink:href="#f1_q" transform="matrix(12,0,0,12,710,148.5)" />
<use xlink:href="#f1_7" transform="matrix(12,0,0,12,714.1,148.5)" />
<use xlink:href="#f1_h" transform="matrix(12,0,0,12,724.5,148.5)" />
<use xlink:href="#f1_q" transform="matrix(12,0,0,12,743.4,148.5)" />
<use xlink:href="#f1_j" transform="matrix(12,0,0,12,747.5,148.5)" />
<use xlink:href="#f1_c" transform="matrix(12,0,0,12,755,148.5)" />
<use xlink:href="#f1_g" transform="matrix(12,0,0,12,759.8,148.5)" />
<use xlink:href="#f2_n" transform="matrix(11,0,0,11,560.1,148.5)" />
<use xlink:href="#f1_y" transform="matrix(12,0,0,12,266.4,148.5)" />
<use xlink:href="#f1_v" transform="matrix(12,0,0,12,280.6,148.5)" />
<use xlink:href="#f1_i" transform="matrix(12,0,0,12,286.7,148.5)" />
<use xlink:href="#f1_q" transform="matrix(12,0,0,12,298.9,148.5)" />
<use xlink:href="#f1_7" transform="matrix(12,0,0,12,303,148.5)" />
<use xlink:href="#f1_h" transform="matrix(12,0,0,12,313.4,148.5)" />
<use xlink:href="#f1_9" transform="matrix(12,0,0,12,325.3,148.5)" />
<use xlink:href="#f1_i" transform="matrix(12,0,0,12,344.4,148.5)" />
<use xlink:href="#f1_q" transform="matrix(12,0,0,12,356.6,148.5)" />
<use xlink:href="#f1_j" transform="matrix(12,0,0,12,360.7,148.5)" />
<use xlink:href="#f1_q" transform="matrix(12,0,0,12,368.2,148.5)" />
<use xlink:href="#f1_7" transform="matrix(12,0,0,12,372.3,148.5)" />
<use xlink:href="#f1_h" transform="matrix(12,0,0,12,382.7,148.5)" />
<use xlink:href="#f1_a" transform="matrix(12,0,0,12,401.6,148.5)" />
<use xlink:href="#f1_e" transform="matrix(12,0,0,12,407.4,148.5)" />
<use xlink:href="#f1_q" transform="matrix(12,0,0,12,417.8,148.5)" />
<use xlink:href="#f1_e" transform="matrix(12,0,0,12,421.9,148.5)" />
<use xlink:href="#f1_s" transform="matrix(12,0,0,12,432.3,148.5)" />
<use xlink:href="#f1_b" transform="matrix(12,0,0,12,450.1,148.5)" />
<use xlink:href="#f1_7" transform="matrix(12,0,0,12,462.2,148.5)" />
<use xlink:href="#f1_q" transform="matrix(12,0,0,12,472.5,148.5)" />
<use xlink:href="#f1_l" transform="matrix(12,0,0,12,476.5,148.5)" />
<use xlink:href="#f1_o" transform="matrix(12,0,0,12,489,148.5)" />
<use xlink:href="#f1_q" transform="matrix(12,0,0,12,509,148.5)" />
<use xlink:href="#f1_j" transform="matrix(12,0,0,12,513.1,148.5)" />
<use xlink:href="#f1_q" transform="matrix(12,0,0,12,520.6,148.5)" />
<use xlink:href="#f1_7" transform="matrix(12,0,0,12,524.7,148.5)" />
<use xlink:href="#f1_h" transform="matrix(12,0,0,12,535.1,148.5)" />
<use xlink:href="#f1_a" transform="matrix(12,0,0,12,554,148.5)" />
<use xlink:href="#f2_e" transform="matrix(11,0,0,11,137.5,148.5)" />
<use xlink:href="#f2_c" transform="matrix(11,0,0,11,142.2,148.5)" />
<use xlink:href="#f2_1w" transform="matrix(11,0,0,11,153.2,148.5)" />
<use xlink:href="#f2_4" transform="matrix(11,0,0,11,164,148.5)" />
<use xlink:href="#f2_6" transform="matrix(11,0,0,11,170.6,148.5)" />
<use xlink:href="#f2_c" transform="matrix(11,0,0,11,178,148.5)" />
<use xlink:href="#f2_z" transform="matrix(11,0,0,11,183.5,148.5)" />
<use xlink:href="#f2_k" transform="matrix(11,0,0,11,193.1,148.5)" />
<use xlink:href="#f2_3" transform="matrix(11,0,0,11,201.5,148.5)" />
<use xlink:href="#f2_c" transform="matrix(11,0,0,11,209,148.5)" />
<use xlink:href="#f2_z" transform="matrix(11,0,0,11,214.5,148.5)" />
<use xlink:href="#f2_i" transform="matrix(11,0,0,11,224.1,148.5)" />
<use xlink:href="#f2_9" transform="matrix(11,0,0,11,237.2,148.5)" />
<use xlink:href="#f2_c" transform="matrix(11,0,0,11,245.5,148.5)" />
<use xlink:href="#f2_e" transform="matrix(11,0,0,11,251.1,148.5)" />
<use xlink:href="#f2_c" transform="matrix(11,0,0,11,255.8,148.5)" />
<use xlink:href="#f2_z" transform="matrix(11,0,0,11,261.3,148.5)" />
<use xlink:href="#f2_i" transform="matrix(11,0,0,11,630.1,169.9)" />
<use xlink:href="#f2_6" transform="matrix(11,0,0,11,643,169.9)" />
<use xlink:href="#f2_8" transform="matrix(11,0,0,11,650.5,169.9)" />
<use xlink:href="#f2_5" transform="matrix(11,0,0,11,658.9,169.9)" />
<use xlink:href="#f2_e" transform="matrix(11,0,0,11,663.5,169.9)" />
<use xlink:href="#f2_c" transform="matrix(11,0,0,11,668.2,169.9)" />
<use xlink:href="#f2_z" transform="matrix(11,0,0,11,673.9,169.9)" />
<use xlink:href="#f2_l" transform="matrix(11,0,0,11,682.2,169.9)" />
<use xlink:href="#f2_m" transform="matrix(11,0,0,11,690.6,169.9)" />
<use xlink:href="#f2_6" transform="matrix(11,0,0,11,699,169.9)" />
<use xlink:href="#f2_c" transform="matrix(11,0,0,11,706.5,169.9)" />
<use xlink:href="#f2_6" transform="matrix(11,0,0,11,712,169.9)" />
<use xlink:href="#f2_c" transform="matrix(11,0,0,11,719.5,169.9)" />
<use xlink:href="#f2_z" transform="matrix(11,0,0,11,725.1,169.9)" />
<use xlink:href="#f2_d" transform="matrix(11,0,0,11,733.5,169.9)" />
<use xlink:href="#f2_9" transform="matrix(11,0,0,11,741.9,169.9)" />
<use xlink:href="#f2_k" transform="matrix(11,0,0,11,750.3,169.9)" />
<use xlink:href="#f2_6" transform="matrix(11,0,0,11,758.7,169.9)" />
<use xlink:href="#f2_c" transform="matrix(11,0,0,11,766.1,169.9)" />
<use xlink:href="#f1_m" transform="matrix(12,0,0,12,617.2,169.9)" />
<use xlink:href="#f1_x" transform="matrix(12,0,0,12,623,169.9)" />
<use xlink:href="#f1_v" transform="matrix(12,0,0,12,460.4,210.5)" />
<use xlink:href="#f1_7" transform="matrix(12,0,0,12,466.5,210.5)" />
<use xlink:href="#f1_f" transform="matrix(12,0,0,12,476.9,210.5)" />
<use xlink:href="#f1_p" transform="matrix(12,0,0,12,487.5,210.5)" />
<use xlink:href="#f1_f" transform="matrix(12,0,0,12,498.9,210.5)" />
<use xlink:href="#f1_i" transform="matrix(12,0,0,12,515.4,210.5)" />
<use xlink:href="#f1_q" transform="matrix(12,0,0,12,527.6,210.5)" />
<use xlink:href="#f1_9" transform="matrix(12,0,0,12,531.7,210.5)" />
<use xlink:href="#f1_f" transform="matrix(12,0,0,12,543.9,210.5)" />
<use xlink:href="#f1_3" transform="matrix(12,0,0,12,554.5,210.5)" />
<use xlink:href="#f1_i" transform="matrix(12,0,0,12,572.2,210.5)" />
<use xlink:href="#f1_q" transform="matrix(12,0,0,12,584.4,210.5)" />
<use xlink:href="#f1_e" transform="matrix(12,0,0,12,588.5,210.5)" />
<use xlink:href="#f1_q" transform="matrix(12,0,0,12,598.9,210.5)" />
<use xlink:href="#f1_j" transform="matrix(12,0,0,12,603,210.5)" />
<use xlink:href="#f1_7" transform="matrix(12,0,0,12,610.5,210.5)" />
<use xlink:href="#f1_3" transform="matrix(12,0,0,12,620.9,210.5)" />
<use xlink:href="#f1_i" transform="matrix(12,0,0,12,638.6,210.5)" />
<use xlink:href="#f1_q" transform="matrix(12,0,0,12,650.8,210.5)" />
<use xlink:href="#f1_e" transform="matrix(12,0,0,12,654.9,210.5)" />
<use xlink:href="#f1_p" transform="matrix(12,0,0,12,665.3,210.5)" />
<use xlink:href="#f1_8" transform="matrix(12,0,0,12,676.8,210.5)" />
<use xlink:href="#f1_3" transform="matrix(12,0,0,12,688.2,210.5)" />
<use xlink:href="#f1_b" transform="matrix(12,0,0,12,706,210.5)" />
<use xlink:href="#f1_9" transform="matrix(12,0,0,12,718,210.5)" />
<use xlink:href="#f1_3" transform="matrix(12,0,0,12,736.2,210.5)" />
<use xlink:href="#f1_k" transform="matrix(12,0,0,12,748.1,210.5)" />
<use xlink:href="#f1_3" transform="matrix(12,0,0,12,760,210.5)" />
<use xlink:href="#f1_z" transform="matrix(12,0,0,12,224,210.5)" />
<use xlink:href="#f3_2" transform="matrix(13,0,0,13,639.4,233.6)" />
<use xlink:href="#f3_3" transform="matrix(13,0,0,13,654.5,233.6)" />
<use xlink:href="#f3_4" transform="matrix(13,0,0,13,661.7,233.6)" />
<use xlink:href="#f3_5" transform="matrix(13,0,0,13,674.3,233.6)" />
<use xlink:href="#f3_6" transform="matrix(13,0,0,13,684.7,233.6)" />
<use xlink:href="#f3_7" transform="matrix(13,0,0,13,696.8,233.6)" />
<use xlink:href="#f3_6" transform="matrix(13,0,0,13,704.3,233.6)" />
<use xlink:href="#f3_7" transform="matrix(13,0,0,13,716.4,233.6)" />
<use xlink:href="#f3_8" transform="matrix(13,0,0,13,723.8,233.6)" />
<use xlink:href="#f3_a" transform="matrix(13,0,0,13,744.3,233.6)" />
<use xlink:href="#f3_i" transform="matrix(13,0,0,13,758,233.6)" />
<use xlink:href="#f0_k" transform="matrix(12,0,0,12,625.5,233.6)" />
<use xlink:href="#f1_e" transform="matrix(11,0,0,11,678.2,253.9)" />
<use xlink:href="#f1_p" transform="matrix(11,0,0,11,687.8,253.9)" />
<use xlink:href="#f1_c" transform="matrix(11,0,0,11,698.2,253.9)" />
<use xlink:href="#f1_8" transform="matrix(11,0,0,11,702.7,253.9)" />
<use xlink:href="#f1_3" transform="matrix(11,0,0,11,713.3,253.9)" />
<use xlink:href="#f1_a" transform="matrix(11,0,0,11,729.6,253.9)" />
<use xlink:href="#f1_7" transform="matrix(11,0,0,11,734.9,253.9)" />
<use xlink:href="#f1_c" transform="matrix(11,0,0,11,744.4,253.9)" />
<use xlink:href="#f1_n" transform="matrix(11,0,0,11,748.9,253.9)" />
<use xlink:href="#f1_4" transform="matrix(11,0,0,11,757.8,253.9)" />
<use xlink:href="#f1_15" transform="matrix(11,0,0,11,763.6,253.9)" />
<use xlink:href="#f2_4" transform="matrix(11,0,0,11,635.3,253.9)" />
<use xlink:href="#f2_6" transform="matrix(11,0,0,11,641.8,253.9)" />
<use xlink:href="#f2_8" transform="matrix(11,0,0,11,649.3,253.9)" />
<use xlink:href="#f2_5" transform="matrix(11,0,0,11,657.7,253.9)" />
<use xlink:href="#f2_e" transform="matrix(11,0,0,11,662.3,253.9)" />
<use xlink:href="#f2_c" transform="matrix(11,0,0,11,667,253.9)" />
<use xlink:href="#f1_j" transform="matrix(11,0,0,11,485.7,253.9)" />
<use xlink:href="#f1_q" transform="matrix(11,0,0,11,492.5,253.9)" />
<use xlink:href="#f1_7" transform="matrix(11,0,0,11,496.3,253.9)" />
<use xlink:href="#f1_h" transform="matrix(11,0,0,11,505.8,253.9)" />
<use xlink:href="#f1_e" transform="matrix(11,0,0,11,516.7,253.9)" />
<use xlink:href="#f1_3" transform="matrix(11,0,0,11,531.6,253.9)" />
<use xlink:href="#f1_l" transform="matrix(11,0,0,11,542.6,253.9)" />
<use xlink:href="#f1_c" transform="matrix(11,0,0,11,554,253.9)" />
<use xlink:href="#f1_r" transform="matrix(11,0,0,11,558.6,253.9)" />
<use xlink:href="#f1_f" transform="matrix(11,0,0,11,567.6,253.9)" />
<use xlink:href="#f1_j" transform="matrix(11,0,0,11,582.8,253.9)" />
<use xlink:href="#f1_3" transform="matrix(11,0,0,11,589.7,253.9)" />
<use xlink:href="#f1_d" transform="matrix(11,0,0,11,600.7,253.9)" />
<use xlink:href="#f1_b" transform="matrix(11,0,0,11,607.4,253.9)" />
<use xlink:href="#f1_l" transform="matrix(11,0,0,11,618.4,253.9)" />
<use xlink:href="#f2_i" transform="matrix(11,0,0,11,436.3,253.9)" />
<use xlink:href="#f2_6" transform="matrix(11,0,0,11,449.3,253.9)" />
<use xlink:href="#f2_8" transform="matrix(11,0,0,11,456.8,253.9)" />
<use xlink:href="#f2_5" transform="matrix(11,0,0,11,465.2,253.9)" />
<use xlink:href="#f2_e" transform="matrix(11,0,0,11,469.8,253.9)" />
<use xlink:href="#f2_c" transform="matrix(11,0,0,11,474.5,253.9)" />
</g>
</g>
<path d="M226.3,258.3H772.4M118,280.4H772.4M118,300.6H772.4M118,320.6H772.4M118,340.8H772.4M118,360.8H772.4M118,381H772.4M118.4,280V381.3M226.7,257.9V381.3m195,-123.4V381.3M616.5,257.9V381.3M772,257.9V381.3" class="g1_8" />
<g clip-path="url(#c0_8)">
<g fill="#000000" >
<use xlink:href="#f1_t" transform="matrix(12,0,0,12,319.9,275.8)" />
<use xlink:href="#f1_b" transform="matrix(12,0,0,12,324.9,275.8)" />
<use xlink:href="#f1_h" transform="matrix(12,0,0,12,337,275.8)" />
<use xlink:href="#f1_b" transform="matrix(12,0,0,12,348.9,275.8)" />
<use xlink:href="#f1_3" transform="matrix(12,0,0,12,361,275.8)" />
<use xlink:href="#f1_e" transform="matrix(12,0,0,12,372.9,275.8)" />
<use xlink:href="#f2_f" transform="matrix(11,0,0,11,265.4,275.8)" />
<use xlink:href="#f2_3" transform="matrix(11,0,0,11,272.7,275.8)" />
<use xlink:href="#f2_4" transform="matrix(11,0,0,11,280.2,275.8)" />
<use xlink:href="#f2_3" transform="matrix(11,0,0,11,286.7,275.8)" />
<use xlink:href="#f2_c" transform="matrix(11,0,0,11,294.2,275.8)" />
<use xlink:href="#f2_4" transform="matrix(11,0,0,11,299.8,275.8)" />
<use xlink:href="#f2_6" transform="matrix(11,0,0,11,306.2,275.8)" />
<use xlink:href="#f1_u" transform="matrix(12,0,0,12,523.7,275.8)" />
<use xlink:href="#f1_c" transform="matrix(12,0,0,12,533.5,275.8)" />
<use xlink:href="#f1_o" transform="matrix(12,0,0,12,538.5,275.8)" />
<use xlink:href="#f1_d" transform="matrix(12,0,0,12,551.5,275.8)" />
<use xlink:href="#f1_e" transform="matrix(12,0,0,12,558.8,275.8)" />
<use xlink:href="#f2_i" transform="matrix(11,0,0,11,469.2,275.8)" />
<use xlink:href="#f2_9" transform="matrix(11,0,0,11,482.2,275.8)" />
<use xlink:href="#f2_c" transform="matrix(11,0,0,11,490.6,275.8)" />
<use xlink:href="#f2_k" transform="matrix(11,0,0,11,496.2,275.8)" />
<use xlink:href="#f2_6" transform="matrix(11,0,0,11,504.6,275.8)" />
<use xlink:href="#f2_c" transform="matrix(11,0,0,11,512.1,275.8)" />
<use xlink:href="#f1_o" transform="matrix(12,0,0,12,687.5,275.8)" />
<use xlink:href="#f1_q" transform="matrix(12,0,0,12,700.5,275.8)" />
<use xlink:href="#f1_j" transform="matrix(12,0,0,12,704.6,275.8)" />
<use xlink:href="#f1_7" transform="matrix(12,0,0,12,712,275.8)" />
<use xlink:href="#f1_3" transform="matrix(12,0,0,12,722.4,275.8)" />
<use xlink:href="#f1_e" transform="matrix(12,0,0,12,734.3,275.8)" />
<use xlink:href="#f2_4" transform="matrix(11,0,0,11,644.1,275.8)" />
<use xlink:href="#f2_6" transform="matrix(11,0,0,11,650.5,275.8)" />
<use xlink:href="#f2_8" transform="matrix(11,0,0,11,658,275.8)" />
<use xlink:href="#f2_5" transform="matrix(11,0,0,11,666.4,275.8)" />
<use xlink:href="#f2_e" transform="matrix(11,0,0,11,671.1,275.8)" />
<use xlink:href="#f2_c" transform="matrix(11,0,0,11,675.7,275.8)" />
<use xlink:href="#f2_10" transform="matrix(11,0,0,11,127.3,296.5)" />
<use xlink:href="#f2_9" transform="matrix(11,0,0,11,135.7,296.5)" />
<use xlink:href="#f2_5" transform="matrix(11,0,0,11,127.3,316.6)" />
<use xlink:href="#f2_x" transform="matrix(11,0,0,11,131.9,316.6)" />
<use xlink:href="#f2_j" transform="matrix(11,0,0,11,127.3,336.7)" />
<use xlink:href="#f2_7" transform="matrix(11,0,0,11,134.6,336.7)" />
<use xlink:href="#f2_11" transform="matrix(11,0,0,11,139.3,336.7)" />
<use xlink:href="#f2_6" transform="matrix(11,0,0,11,144,336.7)" />
<use xlink:href="#f2_7" transform="matrix(11,0,0,11,151.4,336.7)" />
<use xlink:href="#f2_7" transform="matrix(11,0,0,11,156.1,336.7)" />
<use xlink:href="#f2_3" transform="matrix(11,0,0,11,160.8,336.7)" />
<use xlink:href="#f2_11" transform="matrix(11,0,0,11,168.1,336.7)" />
<use xlink:href="#f2_12" transform="matrix(11,0,0,11,172.9,336.7)" />
<use xlink:href="#f2_k" transform="matrix(11,0,0,11,184.9,336.7)" />
<use xlink:href="#f2_13" transform="matrix(11,0,0,11,193.3,336.7)" />
<use xlink:href="#f4_2" transform="matrix(11,0,0,11,235.4,336.7)" />
<use xlink:href="#f4_e" transform="matrix(11,0,0,11,242,336.7)" />
<use xlink:href="#f4_j" transform="matrix(11,0,0,11,253.6,336.7)" />
<use xlink:href="#f4_3" transform="matrix(11,0,0,11,261,336.7)" />
<use xlink:href="#f4_2" transform="matrix(11,0,0,11,269.4,336.7)" />
<use xlink:href="#f4_k" transform="matrix(11,0,0,11,276,336.7)" />
<use xlink:href="#f2_8" transform="matrix(11,0,0,11,127.3,356.7)" />
<use xlink:href="#f2_9" transform="matrix(11,0,0,11,135.7,356.7)" />
<use xlink:href="#f2_4" transform="matrix(11,0,0,11,144.1,356.7)" />
<use xlink:href="#f2_9" transform="matrix(11,0,0,11,150.6,356.7)" />
<use xlink:href="#f2_5" transform="matrix(11,0,0,11,158.9,356.7)" />
<use xlink:href="#f2_c" transform="matrix(11,0,0,11,163.6,356.7)" />
<use xlink:href="#f2_9" transform="matrix(11,0,0,11,169.2,356.7)" />
<use xlink:href="#f2_4" transform="matrix(11,0,0,11,177.6,356.7)" />
<use xlink:href="#f2_11" transform="matrix(11,0,0,11,184,356.7)" />
<use xlink:href="#f2_3" transform="matrix(11,0,0,11,188.8,356.7)" />
<use xlink:href="#f2_4" transform="matrix(11,0,0,11,196.2,356.7)" />
<use xlink:href="#f2_6" transform="matrix(11,0,0,11,127.3,376.9)" />
<use xlink:href="#f2_7" transform="matrix(11,0,0,11,134.6,376.9)" />
<use xlink:href="#f2_7" transform="matrix(11,0,0,11,139.3,376.9)" />
<use xlink:href="#f2_9" transform="matrix(11,0,0,11,144,376.9)" />
<use xlink:href="#f2_4" transform="matrix(11,0,0,11,152.4,376.9)" />
<use xlink:href="#f2_11" transform="matrix(11,0,0,11,158.9,376.9)" />
<use xlink:href="#f2_3" transform="matrix(11,0,0,11,163.6,376.9)" />
<use xlink:href="#f2_4" transform="matrix(11,0,0,11,171,376.9)" />
<use xlink:href="#f2_11" transform="matrix(11,0,0,11,177.5,376.9)" />
<use xlink:href="#f2_12" transform="matrix(11,0,0,11,182.2,376.9)" />
<use xlink:href="#f2_k" transform="matrix(11,0,0,11,194.3,376.9)" />
<use xlink:href="#f2_4" transform="matrix(11,0,0,11,202.7,376.9)" />
<use xlink:href="#f2_13" transform="matrix(11,0,0,11,209.2,376.9)" />
</g>
<g fill="#0000FF" >
<use xlink:href="#f2_v" transform="matrix(12,0,0,12,687,417.1)" />
<use xlink:href="#f2_6" transform="matrix(12,0,0,12,699.7,417.1)" />
<use xlink:href="#f2_4" transform="matrix(12,0,0,12,708.1,417.1)" />
<use xlink:href="#f2_d" transform="matrix(12,0,0,12,715.7,417.1)" />
<use xlink:href="#f2_m" transform="matrix(12,0,0,12,725.2,417.1)" />
<use xlink:href="#f2_6" transform="matrix(12,0,0,12,734.8,417.1)" />
<use xlink:href="#f2_4" transform="matrix(12,0,0,12,743.2,417.1)" />
<use xlink:href="#f2_5" transform="matrix(12,0,0,12,750.8,417.1)" />
<use xlink:href="#f2_3" transform="matrix(12,0,0,12,756.1,417.1)" />
<use xlink:href="#f2_4" transform="matrix(12,0,0,12,764.7,417.1)" />
</g>
<g fill="#000000" >
<use xlink:href="#f1_v" transform="matrix(12,0,0,12,458.9,478.3)" />
<use xlink:href="#f1_7" transform="matrix(12,0,0,12,465,478.3)" />
<use xlink:href="#f1_f" transform="matrix(12,0,0,12,475.4,478.3)" />
<use xlink:href="#f1_p" transform="matrix(12,0,0,12,485.9,478.3)" />
<use xlink:href="#f1_f" transform="matrix(12,0,0,12,497.4,478.3)" />
<use xlink:href="#f1_i" transform="matrix(12,0,0,12,513.7,478.3)" />
<use xlink:href="#f1_q" transform="matrix(12,0,0,12,526,478.3)" />
<use xlink:href="#f1_9" transform="matrix(12,0,0,12,530.1,478.3)" />
<use xlink:href="#f1_f" transform="matrix(12,0,0,12,542.3,478.3)" />
<use xlink:href="#f1_3" transform="matrix(12,0,0,12,552.8,478.3)" />
<use xlink:href="#f1_i" transform="matrix(12,0,0,12,570.7,478.3)" />
<use xlink:href="#f1_q" transform="matrix(12,0,0,12,582.9,478.3)" />
<use xlink:href="#f1_j" transform="matrix(12,0,0,12,587,478.3)" />
<use xlink:href="#f1_q" transform="matrix(12,0,0,12,594.5,478.3)" />
<use xlink:href="#f1_7" transform="matrix(12,0,0,12,598.6,478.3)" />
<use xlink:href="#f1_h" transform="matrix(12,0,0,12,609,478.3)" />
<use xlink:href="#f1_3" transform="matrix(12,0,0,12,620.9,478.3)" />
<use xlink:href="#f1_i" transform="matrix(12,0,0,12,638.6,478.3)" />
<use xlink:href="#f1_q" transform="matrix(12,0,0,12,650.8,478.3)" />
<use xlink:href="#f1_e" transform="matrix(12,0,0,12,654.9,478.3)" />
<use xlink:href="#f1_p" transform="matrix(12,0,0,12,665.3,478.3)" />
<use xlink:href="#f1_8" transform="matrix(12,0,0,12,676.8,478.3)" />
<use xlink:href="#f1_3" transform="matrix(12,0,0,12,688.2,478.3)" />
<use xlink:href="#f1_b" transform="matrix(12,0,0,12,705.9,478.3)" />
<use xlink:href="#f1_9" transform="matrix(12,0,0,12,718,478.3)" />
<use xlink:href="#f1_3" transform="matrix(12,0,0,12,736.2,478.3)" />
<use xlink:href="#f1_k" transform="matrix(12,0,0,12,748.1,478.3)" />
<use xlink:href="#f1_3" transform="matrix(12,0,0,12,760,478.3)" />
<use xlink:href="#f3_2" transform="matrix(13,0,0,13,314.3,478.3)" />
<use xlink:href="#f3_3" transform="matrix(13,0,0,13,329.4,478.3)" />
<use xlink:href="#f3_4" transform="matrix(13,0,0,13,336.6,478.3)" />
<use xlink:href="#f3_5" transform="matrix(13,0,0,13,349.2,478.3)" />
<use xlink:href="#f3_6" transform="matrix(13,0,0,13,359.6,478.3)" />
<use xlink:href="#f3_7" transform="matrix(13,0,0,13,371.7,478.3)" />
<use xlink:href="#f3_6" transform="matrix(13,0,0,13,379.2,478.3)" />
<use xlink:href="#f3_7" transform="matrix(13,0,0,13,391.2,478.3)" />
<use xlink:href="#f3_8" transform="matrix(13,0,0,13,398.7,478.3)" />
<use xlink:href="#f3_a" transform="matrix(13,0,0,13,419.2,478.3)" />
<use xlink:href="#f3_j" transform="matrix(13,0,0,13,432.9,478.3)" />
<use xlink:href="#f0_k" transform="matrix(12,0,0,12,300.4,478.3)" />
</g>
</g>
<path d="M229.2,502.7H772.4M120.8,522.9H772.4m-651.6,20H772.4M120.8,563.1H772.4m-651.6,20H772.4M120.8,603.2H772.4M120.8,623.3H772.4M121.2,522.5V623.6M229.6,502.3V623.6M338.1,502.3V623.6M446.6,502.3V623.6M555,502.3V623.6M663.7,502.3V623.6M772,502.3V623.6" class="g1_8" />
<g clip-path="url(#c0_8)">
<g fill="#000000" >
<use xlink:href="#f2_e" transform="matrix(11,0,0,11,238.3,518.8)" />
<use xlink:href="#f2_c" transform="matrix(11,0,0,11,243.1,518.8)" />
<use xlink:href="#f2_1w" transform="matrix(11,0,0,11,252.8,518.8)" />
<use xlink:href="#f2_4" transform="matrix(11,0,0,11,262.6,518.8)" />
<use xlink:href="#f2_6" transform="matrix(11,0,0,11,269.1,518.8)" />
<use xlink:href="#f2_c" transform="matrix(11,0,0,11,276.6,518.8)" />
<use xlink:href="#f2_5" transform="matrix(11,0,0,11,346.8,518.8)" />
<use xlink:href="#f2_9" transform="matrix(11,0,0,11,351.5,518.8)" />
<use xlink:href="#f2_f" transform="matrix(11,0,0,11,359.9,518.8)" />
<use xlink:href="#f2_3" transform="matrix(11,0,0,11,367.4,518.8)" />
<use xlink:href="#f2_c" transform="matrix(11,0,0,11,374.7,518.8)" />
<use xlink:href="#f2_d" transform="matrix(11,0,0,11,455.4,518.8)" />
<use xlink:href="#f2_c" transform="matrix(11,0,0,11,463.7,518.8)" />
<use xlink:href="#f2_9" transform="matrix(11,0,0,11,469.3,518.8)" />
<use xlink:href="#f2_k" transform="matrix(11,0,0,11,477.7,518.8)" />
<use xlink:href="#f2_m" transform="matrix(11,0,0,11,486.1,518.8)" />
<use xlink:href="#f2_f" transform="matrix(11,0,0,11,494.5,518.8)" />
<use xlink:href="#f2_e" transform="matrix(11,0,0,11,502,518.8)" />
<use xlink:href="#f2_c" transform="matrix(11,0,0,11,506.7,518.8)" />
<use xlink:href="#f2_5" transform="matrix(11,0,0,11,563.9,518.8)" />
<use xlink:href="#f2_6" transform="matrix(11,0,0,11,568.5,518.8)" />
<use xlink:href="#f2_8" transform="matrix(11,0,0,11,576,518.8)" />
<use xlink:href="#f2_6" transform="matrix(11,0,0,11,584.4,518.8)" />
<use xlink:href="#f2_c" transform="matrix(11,0,0,11,591.8,518.8)" />
<use xlink:href="#f2_d" transform="matrix(11,0,0,11,672.4,518.8)" />
<use xlink:href="#f2_9" transform="matrix(11,0,0,11,680.8,518.8)" />
<use xlink:href="#f2_8" transform="matrix(11,0,0,11,689.2,518.8)" />
<use xlink:href="#f2_6" transform="matrix(11,0,0,11,697.6,518.8)" />
<use xlink:href="#f2_c" transform="matrix(11,0,0,11,705,518.8)" />
<use xlink:href="#f2_10" transform="matrix(10.5,0,0,10.5,129.9,538.2)" />
<use xlink:href="#f2_9" transform="matrix(10.5,0,0,10.5,137.9,538.2)" />
<use xlink:href="#f2_5" transform="matrix(10.5,0,0,10.5,129.9,558.3)" />
<use xlink:href="#f2_x" transform="matrix(10.5,0,0,10.5,134.3,558.3)" />
<use xlink:href="#f2_j" transform="matrix(10.5,0,0,10.5,129.9,578.4)" />
<use xlink:href="#f2_7" transform="matrix(10.5,0,0,10.5,137,578.4)" />
<use xlink:href="#f2_11" transform="matrix(10.5,0,0,10.5,141.5,578.4)" />
<use xlink:href="#f2_6" transform="matrix(10.5,0,0,10.5,145.9,578.4)" />
<use xlink:href="#f2_7" transform="matrix(10.5,0,0,10.5,153.1,578.4)" />
<use xlink:href="#f2_7" transform="matrix(10.5,0,0,10.5,157.5,578.4)" />
<use xlink:href="#f2_3" transform="matrix(10.5,0,0,10.5,161.9,578.4)" />
<use xlink:href="#f2_11" transform="matrix(10.5,0,0,10.5,169.1,578.4)" />
<use xlink:href="#f2_12" transform="matrix(10.5,0,0,10.5,173.5,578.4)" />
<use xlink:href="#f2_k" transform="matrix(10.5,0,0,10.5,185,578.4)" />
<use xlink:href="#f2_13" transform="matrix(10.5,0,0,10.5,193,578.4)" />
<use xlink:href="#f2_8" transform="matrix(10.5,0,0,10.5,129.9,598.4)" />
<use xlink:href="#f2_9" transform="matrix(10.5,0,0,10.5,137.9,598.4)" />
<use xlink:href="#f2_4" transform="matrix(10.5,0,0,10.5,145.9,598.4)" />
<use xlink:href="#f2_9" transform="matrix(10.5,0,0,10.5,152.1,598.4)" />
<use xlink:href="#f2_5" transform="matrix(10.5,0,0,10.5,160.2,598.4)" />
<use xlink:href="#f2_c" transform="matrix(10.5,0,0,10.5,164.6,598.4)" />
<use xlink:href="#f2_9" transform="matrix(10.5,0,0,10.5,169.8,598.4)" />
<use xlink:href="#f2_4" transform="matrix(10.5,0,0,10.5,177.9,598.4)" />
<use xlink:href="#f2_11" transform="matrix(10.5,0,0,10.5,184.2,598.4)" />
<use xlink:href="#f2_3" transform="matrix(10.5,0,0,10.5,188.6,598.4)" />
<use xlink:href="#f2_4" transform="matrix(10.5,0,0,10.5,195.8,598.4)" />
<use xlink:href="#f2_6" transform="matrix(10.5,0,0,10.5,129.9,618.6)" />
<use xlink:href="#f2_7" transform="matrix(10.5,0,0,10.5,137,618.6)" />
<use xlink:href="#f2_7" transform="matrix(10.5,0,0,10.5,141.5,618.6)" />
<use xlink:href="#f2_9" transform="matrix(10.5,0,0,10.5,145.9,618.6)" />
<use xlink:href="#f2_4" transform="matrix(10.5,0,0,10.5,154,618.6)" />
<use xlink:href="#f2_11" transform="matrix(10.5,0,0,10.5,160.2,618.6)" />
<use xlink:href="#f2_3" transform="matrix(10.5,0,0,10.5,164.5,618.6)" />
<use xlink:href="#f2_4" transform="matrix(10.5,0,0,10.5,171.7,618.6)" />
<use xlink:href="#f2_11" transform="matrix(10.5,0,0,10.5,177.9,618.6)" />
<use xlink:href="#f2_12" transform="matrix(10.5,0,0,10.5,182.3,618.6)" />
<use xlink:href="#f2_k" transform="matrix(10.5,0,0,10.5,193.9,618.6)" />
<use xlink:href="#f2_4" transform="matrix(10.5,0,0,10.5,201.9,618.6)" />
<use xlink:href="#f2_13" transform="matrix(10.5,0,0,10.5,208.1,618.6)" />
</g>
<g fill="#0000FF" >
<use xlink:href="#f2_v" transform="matrix(12,0,0,12,687,678.8)" />
<use xlink:href="#f2_6" transform="matrix(12,0,0,12,699.7,678.8)" />
<use xlink:href="#f2_4" transform="matrix(12,0,0,12,708.1,678.8)" />
<use xlink:href="#f2_d" transform="matrix(12,0,0,12,715.7,678.8)" />
<use xlink:href="#f2_m" transform="matrix(12,0,0,12,725.2,678.8)" />
<use xlink:href="#f2_6" transform="matrix(12,0,0,12,734.8,678.8)" />
<use xlink:href="#f2_4" transform="matrix(12,0,0,12,743.2,678.8)" />
<use xlink:href="#f2_5" transform="matrix(12,0,0,12,750.8,678.8)" />
<use xlink:href="#f2_3" transform="matrix(12,0,0,12,756.1,678.8)" />
<use xlink:href="#f2_4" transform="matrix(12,0,0,12,764.7,678.8)" />
</g>
</g>
<defs>
<path d="M534,0V425c0,0,0,109,-41,171c0,0,-41,62,-140,62H66V836H352c0,0,99,0,174,-20c0,0,75,-20,123,-55c0,0,48,-35,78,-87c0,0,30,-53,42,-113c0,0,12,-60,12,-136V0Z" 
id="f0_4"
transform="scale(0.001,-0.001)" />

<path d="M66,0V178H507V449c0,0,0,43,-2,71c0,0,-3,28,-12,56c0,0,-9,28,-26,45c0,0,-17,16,-47,27c0,0,-29,10,-72,10H66V836H349c0,0,97,0,167,-17c0,0,71,-17,117,-49c0,0,46,-32,73,-84c0,0,27,-52,38,-114c0,0,11,-62,11,-147V178H866V0Z" 
id="f0_l"
transform="scale(0.001,-0.001)" />

<path d="M84,-153V45l189,68L66,836H321L497,205c0,0,72,50,101,138c0,0,30,88,30,261V836H878V604c0,0,0,-84,-7,-147c0,0,-7,-63,-25,-126c0,0,-19,-62,-51,-111c0,0,-33,-48,-82,-94c0,0,-50,-45,-122,-84C591,42,519,3,423,-30L84,-153Z" 
id="f0_8"
transform="scale(0.001,-0.001)" />

<path d="M153,0V437L399,539V0ZM664,0V450c0,0,0,122,-31,165c0,0,-31,43,-121,43H138V836H511c0,0,113,0,188,-22c0,0,75,-23,123,-73c0,0,47,-51,68,-127c0,0,20,-76,20,-189V0Z" 
id="f0_7"
transform="scale(0.001,-0.001)" />

<path d="M112,-5c0,0,-39,0,-97,11V113c0,0,48,-10,77,-10c0,0,53,0,70,42c0,0,17,43,17,164V729H50V836H501c0,0,107,0,179,-25c0,0,72,-25,112,-77c0,0,40,-51,57,-118c0,0,16,-67,16,-164V0H726V454c0,0,0,55,-3,92c0,0,-4,37,-17,75c0,0,-14,38,-38,59c0,0,-24,22,-65,36c0,0,-42,13,-102,13H318V309c0,0,0,-160,-46,-237C272,72,226,-5,112,-5Z" 
id="f1_b"
transform="scale(0.001,-0.001)" />

<path d="M139,0V106H400c0,0,176,0,253,71c0,0,78,72,78,250c0,0,0,163,-80,233c0,0,-81,69,-250,69H278L277,564c0,0,-1,-54,26,-80c0,0,27,-25,82,-25c0,0,30,0,80,9V355c0,0,-61,-12,-111,-12c0,0,-100,0,-157,55c0,0,-58,55,-58,186V836H456c0,0,193,0,303,-109c0,0,110,-109,110,-309c0,0,0,-200,-110,-309C759,109,648,0,456,0Z" 
id="f1_8"
transform="scale(0.001,-0.001)" />

<path d="M522,92c0,0,247,0,247,333c0,0,0,88,-17,146c0,0,-17,58,-53,91c0,0,-35,33,-82,46c0,0,-48,14,-116,14H276V419c0,0,0,-327,246,-327Zm0,-112c0,0,-193,0,-289,109c0,0,-95,110,-95,337V836H501c0,0,213,0,309,-93c0,0,96,-94,96,-317c0,0,0,-227,-95,-337C811,89,715,-20,522,-20Z" 
id="f1_g"
transform="scale(0.001,-0.001)" />

<path d="M139,0V836H278V0Z" 
id="f1_c"
transform="scale(0.001,-0.001)" />

<path d="M154,0V454l138,56V0ZM722,0V454c0,0,0,161,-49,218c0,0,-48,57,-186,57H139V836H485c0,0,207,0,291,-93c0,0,83,-94,83,-318V0Z" 
id="f1_3"
transform="scale(0.001,-0.001)" />

<path d="M102,312V836H241V369L102,312Z" 
id="f1_q"
transform="scale(0.001,-0.001)" />

<path d="M138,-7c0,0,-34,0,-72,10V129c0,0,25,-8,52,-8c0,0,33,0,58,5c0,0,26,5,58,24c0,0,33,20,53,54c0,0,21,34,36,97c0,0,15,64,15,151c0,0,0,113,-19,173c0,0,-19,60,-56,82c0,0,-38,22,-107,22H89V836h72c0,0,165,0,240,-91c0,0,76,-91,76,-293c0,0,0,-107,26,-227c0,0,25,-119,83,-225H437c0,0,-43,101,-62,184c0,0,-24,-60,-51,-99c0,0,-26,-38,-56,-58C268,27,239,7,209,0c0,0,-30,-7,-71,-7Z" 
id="f1_j"
transform="scale(0.001,-0.001)" />

<path d="M585,0V426c0,0,0,54,-8,98c0,0,-8,44,-27,83c0,0,-19,40,-49,66c0,0,-30,26,-77,41c0,0,-47,15,-108,15H66V836H315c0,0,94,0,166,-20c0,0,71,-20,116,-54c0,0,46,-35,75,-88c0,0,28,-52,40,-112c0,0,12,-60,12,-137V0Z" 
id="f1_7"
transform="scale(0.001,-0.001)" />

<path d="M139,0V836H485c0,0,206,0,290,-90c0,0,84,-89,84,-294V0H721V473c0,0,0,147,-49,202c0,0,-48,54,-186,54H277V0Z" 
id="f1_h"
transform="scale(0.001,-0.001)" />

<path d="M179,0V190H336V0Zm0,600V790H336V600Z" 
id="f1_v"
transform="scale(0.001,-0.001)" />

<path d="M736,107V473c0,0,0,147,-48,202c0,0,-49,54,-187,54H278V107ZM139,0V836H499c0,0,105,0,177,-22c0,0,72,-21,116,-69c0,0,44,-49,64,-119c0,0,19,-71,19,-174V0Z" 
id="f1_i"
transform="scale(0.001,-0.001)" />

<path d="M359,-270c0,0,124,0,192,46c0,0,67,47,67,129c0,0,0,43,-26,67c0,0,-26,24,-79,24H242c0,0,-32,-27,-51,-69c0,0,-20,-41,-20,-77c0,0,0,-64,46,-92c0,0,46,-28,142,-28Zm11,561c0,0,81,0,115,47c0,0,34,47,34,141c0,0,0,100,-35,142c0,0,-35,42,-113,42c0,0,-78,0,-114,-43c0,0,-37,-42,-37,-141c0,0,0,-98,36,-143c0,0,36,-45,114,-45ZM359,-329c0,0,-143,0,-218,44c0,0,-75,43,-75,125c0,0,0,39,27,78c0,0,26,38,98,89c0,0,-43,14,-72,48c0,0,-29,35,-29,74L208,262c0,0,-118,55,-118,217c0,0,0,115,73,178c0,0,73,63,211,63c0,0,28,0,71,-6c0,0,44,-6,67,-13l165,83l26,-32L599,644c0,0,50,-56,50,-165c0,0,0,-120,-72,-182c0,0,-73,-62,-208,-62c0,0,-62,0,-114,11L208,148c0,0,2,-13,29,-24c0,0,27,-12,67,-12H512c0,0,113,0,168,-49c0,0,55,-49,55,-134c0,0,0,-79,-44,-137c0,0,-43,-58,-128,-90c0,0,-84,-31,-204,-31Z" 
id="f2_n"
transform="scale(0.001,-0.001)" />

<path d="M122,-200c0,0,99,170,148,338c0,0,49,169,49,342c0,0,0,172,-49,340c0,0,-49,168,-148,340H241c0,0,112,-176,168,-345c0,0,55,-169,55,-335c0,0,0,-167,-55,-337c0,0,-56,-168,-168,-343Z" 
id="f1_y"
transform="scale(0.001,-0.001)" />

<path d="M139,0V138c0,0,0,61,8,112c0,0,7,52,19,87c0,0,11,36,30,66c0,0,19,31,35,49c0,0,17,19,41,35c0,0,25,17,41,25c0,0,17,7,40,17L141,836H303L613,388c0,0,20,10,33,18c0,0,13,8,34,28c0,0,20,20,33,44c0,0,13,25,22,66c0,0,10,41,10,92V836H882V698c0,0,0,-61,-7,-112c0,0,-6,-52,-18,-88c0,0,-12,-36,-30,-66c0,0,-19,-30,-36,-49c0,0,-17,-18,-41,-34c0,0,-24,-17,-40,-25c0,0,-17,-8,-41,-17L882,0H720L409,448c0,0,-21,-11,-34,-19c0,0,-13,-8,-34,-27c0,0,-21,-20,-34,-44c0,0,-12,-25,-22,-66c0,0,-9,-41,-9,-92V0Z" 
id="f1_9"
transform="scale(0.001,-0.001)" />

<path d="M117,-176L179,62V190H336V62L213,-176Z" 
id="f1_a"
transform="scale(0.001,-0.001)" />

<path d="M287,0L589,729H66v386H205V836l547,-1l-2,-82L433,0Z" 
id="f1_e"
transform="scale(0.001,-0.001)" />

<path d="M66,0V106H564L66,836H228L516,413c0,0,3,2,9,6c0,0,17,13,27,21c0,0,10,8,26,27c0,0,17,20,26,40c0,0,9,21,16,54c0,0,7,34,7,75V836H764V698c0,0,0,-55,-7,-102c0,0,-7,-47,-16,-79c0,0,-10,-33,-27,-62c0,0,-18,-29,-32,-46c0,0,-14,-17,-37,-35c0,0,-22,-17,-36,-25c0,0,-13,-8,-36,-20L767,53V0Z" 
id="f1_s"
transform="scale(0.001,-0.001)" />

<path d="M114,0l60,312c0,0,2,12,8,39c0,0,6,27,7,37c0,0,2,11,5,30c0,0,2,19,4,33c0,0,1,15,1,31c0,0,0,48,-35,146c0,0,-35,98,-98,208H228c0,0,3,-8,27,-67c0,0,25,-58,41,-117c0,0,21,53,50,90c0,0,29,37,57,57c0,0,29,21,65,32c0,0,37,11,65,14c0,0,28,3,67,3c0,0,300,0,300,-396V0H480V106H761V452c0,0,0,146,-46,215c0,0,-45,70,-118,70c0,0,-134,0,-198,-119c0,0,-36,-68,-67,-222c0,0,-2,-10,-6,-27L253,0Z" 
id="f1_l"
transform="scale(0.001,-0.001)" />

<path d="M180,0L66,836H203L258,443c0,0,36,1,64,6c0,0,28,6,49,18c0,0,20,12,35,26c0,0,15,13,26,36c0,0,11,24,17,44c0,0,7,20,12,55c0,0,6,34,9,60c0,0,3,26,8,71c0,0,4,45,9,77H610c0,0,-13,-194,-31,-271c0,0,-31,-127,-111,-179c0,0,-71,-45,-196,-50L304,107c0,0,73,0,130,5c0,0,56,6,111,21c0,0,54,15,94,40c0,0,40,25,77,64c0,0,37,39,63,94c0,0,25,54,46,128c0,0,21,73,34,166c0,0,13,94,20,211h138c0,0,-14,-124,-29,-218c0,0,-16,-94,-39,-179c0,0,-22,-85,-50,-146c0,0,-28,-61,-68,-112c0,0,-39,-51,-87,-84C744,97,696,65,632,42C632,42,568,19,492,10C492,10,417,0,320,0Z" 
id="f1_o"
transform="scale(0.001,-0.001)" />

<path d="M32,0V33L151,52V649L52,668v33H275V52L395,33V0ZM201,850c0,0,-32,0,-56,24c0,0,-24,24,-24,56c0,0,0,34,24,58c0,0,24,24,56,24c0,0,34,0,58,-24c0,0,24,-24,24,-58c0,0,0,-32,-24,-56c0,0,-24,-24,-58,-24Z" 
id="f2_e"
transform="scale(0.001,-0.001)" />

<path d="M31,0V33l88,19V649L31,668v33H235l7,-87c0,0,44,37,121,71c0,0,76,35,121,35h11V530H463l-43,82c0,0,-37,0,-88,-10c0,0,-52,-10,-89,-26V52L363,33V0Z" 
id="f2_c"
transform="scale(0.001,-0.001)" />

<path d="M57,302V417H454V302Z" 
id="f2_1w"
transform="scale(0.001,-0.001)" />

<path d="M278,-14c0,0,-52,0,-115,11c0,0,-63,10,-99,23V193H98L134,95c0,0,56,-50,146,-50c0,0,144,0,144,123c0,0,0,91,-114,130l-66,21c0,0,-75,25,-110,50c0,0,-34,26,-53,63c0,0,-18,36,-18,89c0,0,0,92,63,145c0,0,63,54,170,54c0,0,77,0,193,-23V544H454l-32,81c0,0,-39,35,-124,35c0,0,-61,0,-92,-30c0,0,-32,-30,-32,-80c0,0,0,-43,29,-72c0,0,28,-29,86,-48c0,0,110,-38,144,-55c0,0,33,-17,57,-42c0,0,23,-25,36,-57c0,0,13,-32,13,-79c0,0,0,-104,-66,-158c0,0,-66,-53,-195,-53Z" 
id="f2_4"
transform="scale(0.001,-0.001)" />

<path d="M495,413c0,0,0,133,-34,190c0,0,-34,57,-105,57c0,0,-78,0,-119,-63c0,0,-42,-62,-42,-184ZM374,-14c0,0,-163,0,-239,87c0,0,-75,88,-75,283c0,0,0,183,77,273c0,0,76,91,219,91c0,0,269,0,269,-306V353H194V340c0,0,0,-103,23,-160c0,0,22,-57,70,-87c0,0,47,-29,124,-29c0,0,40,0,96,6c0,0,55,7,91,15V43C598,43,562,20,500,3c0,0,-61,-17,-126,-17Z" 
id="f2_6"
transform="scale(0.001,-0.001)" />

<path d="M58,-234v58c0,0,131,42,131,125c0,0,0,15,-11,27c0,0,-11,12,-38,25C140,1,89,27,89,75c0,0,0,40,25,61c0,0,26,21,65,21c0,0,48,0,77,-34c0,0,30,-34,30,-86c0,0,0,-101,-60,-170c0,0,-59,-69,-168,-101Z" 
id="f2_z"
transform="scale(0.001,-0.001)" />

<path d="M383,64c0,0,85,0,152,28V645c0,0,-67,13,-152,13c0,0,-194,0,-194,-314c0,0,0,-141,48,-211c0,0,48,-69,146,-69ZM342,-14c0,0,-287,0,-287,358c0,0,0,184,82,280c0,0,81,96,239,96c0,0,81,0,163,-18c0,0,-4,25,-4,124v182l-118,18v34H659V52L745,33V0H548l-9,52c0,0,-84,-66,-197,-66Z" 
id="f2_k"
transform="scale(0.001,-0.001)" />

<path d="M284,67c0,0,51,0,88,12c0,0,37,12,74,30V358l-98,-3c0,0,-100,-4,-135,-39c0,0,-35,-35,-35,-117c0,0,0,-132,106,-132ZM233,-14c0,0,-179,0,-179,208c0,0,0,70,27,116c0,0,27,46,87,70c0,0,60,24,173,27l105,3V519c0,0,0,72,-26,107c0,0,-27,34,-82,34c0,0,-75,0,-137,-35L176,538H134V691c0,0,121,26,213,26c0,0,115,0,169,-47c0,0,54,-47,54,-144V52L657,33V0H465L451,70c0,0,-85,-84,-218,-84Z" 
id="f2_3"
transform="scale(0.001,-0.001)" />

<path d="M431,0V33L535,52V499c0,0,0,62,-32,96c0,0,-32,33,-95,33c0,0,-66,0,-163,-22V52L350,33V0H32V33l89,19V649L32,668v33H237l6,-57c0,0,56,32,119,54c0,0,62,22,110,22c0,0,52,0,95,-20c0,0,44,-19,66,-62c0,0,57,32,134,57c0,0,77,25,128,25c0,0,179,0,179,-207V52l90,-19V0H846V33L950,52V499c0,0,0,129,-119,129c0,0,-19,0,-45,-3c0,0,-26,-3,-52,-7c0,0,-25,-4,-49,-8c0,0,-23,-5,-39,-8c0,0,13,-41,13,-89V52L764,33V0Z" 
id="f2_i"
transform="scale(0.001,-0.001)" />

<path d="M377,45c0,0,99,0,147,73c0,0,47,73,47,237c0,0,0,161,-47,233c0,0,-47,72,-147,72c0,0,-97,0,-141,-69c0,0,-44,-69,-44,-236c0,0,0,-169,45,-240c0,0,44,-70,140,-70Zm0,-59c0,0,-158,0,-238,94c0,0,-81,95,-81,274c0,0,0,178,81,272c0,0,80,94,244,94c0,0,160,0,241,-92c0,0,82,-92,82,-274c0,0,0,-368,-329,-368Z" 
id="f2_9"
transform="scale(0.001,-0.001)" />

<path d="M439,0V33l93,19V500c0,0,0,62,-30,97c0,0,-31,36,-94,36c0,0,-67,0,-165,-22V52L338,33V0H35V33l84,19V649L35,668v33H235l7,-57c0,0,57,33,122,54c0,0,65,22,108,22c0,0,91,0,137,-53c0,0,47,-53,47,-154V52L741,33V0Z" 
id="f2_8"
transform="scale(0.001,-0.001)" />

<path d="M249,-14c0,0,-71,0,-107,42c0,0,-35,42,-35,119V639H15v33l93,29l76,159h47V701H391V639H231V161c0,0,0,-48,22,-73c0,0,22,-24,57,-24c0,0,44,0,106,12V26C416,26,389,8,340,-2c0,0,-49,-12,-91,-12Z" 
id="f2_5"
transform="scale(0.001,-0.001)" />

<path d="M383,64c0,0,44,0,87,7c0,0,43,7,65,17V645c0,0,-67,13,-152,13c0,0,-194,0,-194,-309c0,0,0,-143,48,-214c0,0,47,-71,146,-71Zm56,-389v35l96,18V-77c0,0,0,73,7,124c0,0,-79,-61,-200,-61c0,0,-287,0,-287,362c0,0,0,180,81,276c0,0,81,96,237,96c0,0,84,0,166,-18l67,33h53V-272l77,-18v-35Z" 
id="f2_l"
transform="scale(0.001,-0.001)" />

<path d="M289,-14c0,0,-179,0,-179,205V649L20,668v33H233V200c0,0,0,-128,120,-128c0,0,92,0,173,23V649L420,668v33H649V52L738,33V0H533l-6,57C527,57,474,28,405,7c0,0,-69,-21,-116,-21Z" 
id="f2_m"
transform="scale(0.001,-0.001)" />

<path d="M382,45c0,0,188,0,188,314c0,0,0,143,-47,213c0,0,-46,69,-141,69c0,0,-87,0,-146,-24V58c0,0,67,-13,146,-13ZM25,-325v35l88,18V649L34,668v33H231l1,-41c0,0,31,27,84,43c0,0,53,17,107,17c0,0,134,0,208,-94c0,0,73,-93,73,-267c0,0,0,-178,-80,-276c0,0,-80,-97,-232,-97c0,0,-84,0,-160,16c0,0,4,-53,4,-84V-272l123,-18v-35Z" 
id="f2_d"
transform="scale(0.001,-0.001)" />

<path d="M163,0V190H321V0Z" 
id="f1_m"
transform="scale(0.001,-0.001)" />

<path d="M354,-200c0,0,-112,175,-167,343c0,0,-56,170,-56,337c0,0,0,166,55,335c0,0,55,169,168,345H473c0,0,-100,-172,-148,-340c0,0,-48,-168,-48,-340c0,0,0,-173,48,-342c0,0,49,-168,148,-338Z" 
id="f1_x"
transform="scale(0.001,-0.001)" />

<path d="M66,0V107H554V452c0,0,0,56,-4,93c0,0,-4,37,-18,75c0,0,-14,38,-40,60c0,0,-26,22,-71,36c0,0,-45,13,-110,13H66V836H312c0,0,91,0,157,-17c0,0,66,-17,109,-49c0,0,44,-32,69,-84c0,0,26,-52,36,-114c0,0,10,-62,10,-147V107H817V0Z" 
id="f1_f"
transform="scale(0.001,-0.001)" />

<path d="M71,-141V-15L289,62L66,836H210L416,109c0,0,99,42,153,98c0,0,53,56,80,155c0,0,26,98,26,262V836H817V624c0,0,0,-88,-7,-154c0,0,-7,-67,-25,-132c0,0,-18,-66,-51,-116c0,0,-33,-51,-84,-98c0,0,-50,-48,-123,-87c0,0,-72,-39,-169,-74L71,-141Z" 
id="f1_p"
transform="scale(0.001,-0.001)" />

<path d="M522,-20c0,0,-196,0,-290,99c0,0,-94,100,-94,324V836H276V397c0,0,0,-86,16,-147c0,0,17,-60,50,-94c0,0,34,-34,77,-49c0,0,43,-15,103,-15c0,0,59,0,102,15c0,0,44,15,77,49c0,0,33,34,50,94c0,0,17,61,17,147c0,0,0,84,-8,143c0,0,-7,58,-25,105c0,0,-17,47,-51,69c0,0,-33,23,-83,23c0,0,-50,0,-119,-22V821c0,0,85,23,150,23c0,0,76,0,130,-30c0,0,53,-31,85,-90c0,0,31,-59,45,-138c0,0,13,-78,13,-183c0,0,0,-224,-93,-324c0,0,-94,-99,-290,-99Z" 
id="f1_k"
transform="scale(0.001,-0.001)" />

<path d="M74,357V479H476V357Z" 
id="f1_z"
transform="scale(0.001,-0.001)" />

<path d="M71,0V90H214v934H71v90H1073V851H970v160H502V654H792V796H895V411H792V552H502V103H984V263h102V0Z" 
id="f3_2"
transform="scale(0.001,-0.001)" />

<path d="M87,-338c0,0,-45,0,-94,7c0,0,-51,8,-105,22v168l84,-1c0,0,1,-59,23,-86c0,0,21,-26,70,-26c0,0,55,0,77,35c0,0,21,35,21,127V703H51v90H427V-92c0,0,0,-122,-86,-184c0,0,-86,-62,-254,-62ZM277,876c0,0,-61,0,-102,41c0,0,-42,41,-42,101c0,0,0,60,41,101c0,0,42,42,103,42c0,0,58,0,100,-42c0,0,42,-42,42,-101c0,0,0,-59,-42,-101c0,0,-41,-41,-100,-41Z" 
id="f3_3"
transform="scale(0.001,-0.001)" />

<path d="M612,448c0,0,0,156,-29,219c0,0,-29,63,-99,63c0,0,-68,0,-98,-61c0,0,-29,-62,-29,-208V448ZM488,-20c0,0,-205,0,-315,107C173,87,63,195,63,397c0,0,0,197,112,307c0,0,113,110,313,110c0,0,197,0,303,-115c0,0,105,-116,111,-340H357v-6c0,0,0,-154,46,-222c0,0,46,-68,149,-68c0,0,86,0,139,45c0,0,53,46,68,133H883C883,241,851,105,755,42c0,0,-95,-62,-267,-62Z" 
id="f3_4"
transform="scale(0.001,-0.001)" />

<path d="M53,0V90H165V703H44v90H429V652c0,0,39,83,103,123c0,0,64,39,156,39c0,0,24,0,57,-3c0,0,33,-3,76,-9V565H737c0,0,-4,63,-34,94c0,0,-30,31,-87,31c0,0,-87,0,-137,-76c0,0,-50,-76,-50,-211V90H573V0Z" 
id="f3_5"
transform="scale(0.001,-0.001)" />

<path d="M507,-20c0,0,-212,0,-328,108C179,88,63,198,63,397c0,0,0,197,114,307c0,0,115,110,320,110c0,0,82,0,167,-15c0,0,84,-16,171,-47V532H752c0,0,-12,101,-59,150c0,0,-47,48,-132,48c0,0,-111,0,-157,-74c0,0,-47,-75,-47,-259c0,0,0,-180,45,-257c0,0,46,-77,149,-77c0,0,80,0,128,47c0,0,48,48,58,137H861C861,247,833,112,745,45c0,0,-87,-65,-238,-65Z" 
id="f3_6"
transform="scale(0.001,-0.001)" />

<path d="M53,0V90H165V703H53v90H429V90H543V0ZM285,876c0,0,-61,0,-102,41c0,0,-42,41,-42,101c0,0,0,60,42,101c0,0,41,42,102,42c0,0,59,0,100,-42c0,0,41,-41,41,-101c0,0,0,-59,-41,-101c0,0,-41,-41,-100,-41Z" 
id="f3_7"
transform="scale(0.001,-0.001)" />

<path d="M510,63c0,0,84,0,118,71c0,0,34,72,34,263c0,0,0,191,-34,262c0,0,-33,71,-118,71c0,0,-84,0,-119,-72c0,0,-34,-72,-34,-261c0,0,0,-190,34,-262c0,0,35,-72,119,-72Zm0,-83c0,0,-209,0,-328,110C182,90,63,201,63,397c0,0,0,196,119,307c0,0,119,110,328,110c0,0,211,0,330,-110c0,0,118,-111,118,-307c0,0,0,-196,-119,-307C839,90,720,-20,510,-20Z" 
id="f3_8"
transform="scale(0.001,-0.001)" />

<path d="M209,0V90H418V992L187,854V966l279,168H701V90H910V0Z" 
id="f3_a"
transform="scale(0.001,-0.001)" />

<path d="M542,66c0,0,77,0,110,65c0,0,32,65,32,226c0,0,0,162,-32,227c0,0,-33,65,-110,65c0,0,-77,0,-110,-65c0,0,-32,-65,-32,-227c0,0,0,-161,32,-226c0,0,33,-65,110,-65Zm17,-86c0,0,-228,0,-346,136C213,116,96,254,96,521c0,0,0,304,130,458c0,0,131,155,387,155c0,0,67,0,144,-11c0,0,77,-11,165,-34V893H832c0,0,-19,76,-70,115c0,0,-52,39,-134,39c0,0,-133,0,-192,-91c0,0,-60,-91,-61,-295c0,0,49,38,109,58c0,0,60,19,131,19c0,0,171,0,268,-100c0,0,98,-100,98,-274c0,0,0,-185,-110,-285c0,0,-110,-99,-312,-99Z" 
id="f3_i"
transform="scale(0.001,-0.001)" />

<path d="M83,331V549H551V331Z" 
id="f0_k"
transform="scale(0.001,-0.001)" />

<path d="M66,0V106H322c0,0,75,0,127,23c0,0,53,23,82,67c0,0,29,43,42,98c0,0,13,54,13,124c0,0,0,70,-13,124c0,0,-13,55,-42,98c0,0,-29,44,-82,67c0,0,-52,23,-127,23H66V836H322c0,0,87,0,157,-24c0,0,70,-24,115,-64c0,0,45,-40,74,-94c0,0,30,-55,43,-113c0,0,13,-59,13,-123c0,0,0,-64,-13,-123c0,0,-13,-58,-43,-113c0,0,-29,-54,-74,-94C594,88,549,48,479,24C479,24,409,0,322,0Z" 
id="f1_n"
transform="scale(0.001,-0.001)" />

<path d="M152,0V473c0,0,0,94,28,161c0,0,29,66,71,95H66V836H463V729H404c0,0,-65,0,-89,-57c0,0,-25,-58,-25,-199V0Z" 
id="f1_4"
transform="scale(0.001,-0.001)" />

<path d="M339,438V719L88,567L45,640L313,786L45,931l43,74L339,853v281h85V853l251,152l44,-74L450,786L719,640L675,567L424,719V438Z" 
id="f1_15"
transform="scale(0.001,-0.001)" />

<path d="M495,0V729H66V836H781V729H634V0Z" 
id="f1_r"
transform="scale(0.001,-0.001)" />

<path d="M66,0V107H332V555c0,0,0,92,-37,133c0,0,-37,41,-116,41H85V836h94c0,0,153,0,223,-66c0,0,69,-66,69,-231V0Z" 
id="f1_d"
transform="scale(0.001,-0.001)" />

<path d="M139,-317V836H278V-317Z" 
id="f1_t"
transform="scale(0.001,-0.001)" />

<path d="M399,-14c0,0,-341,0,-341,370c0,0,0,175,87,269c0,0,87,95,249,95c0,0,101,0,220,-23V501H573L541,625c0,0,-62,35,-149,35c0,0,-200,0,-200,-304c0,0,0,-158,61,-225c0,0,61,-67,189,-67c0,0,109,0,189,24V43C631,43,595,16,530,1c0,0,-64,-15,-131,-15Z" 
id="f2_f"
transform="scale(0.001,-0.001)" />

<path d="M543,-317V369c0,0,0,85,-8,143c0,0,-8,58,-27,101c0,0,-18,44,-51,69c0,0,-33,24,-80,36c0,0,-48,11,-117,11H66V836H257c0,0,125,0,205,-23c0,0,80,-23,130,-79c0,0,50,-56,70,-143c0,0,20,-86,20,-222V-317Z" 
id="f1_u"
transform="scale(0.001,-0.001)" />

<path d="M148,-329c0,0,-58,0,-114,13v151H69l24,-71c0,0,23,-17,64,-17c0,0,39,0,72,22c0,0,33,23,60,67c0,0,27,44,68,157L90,649L19,668v33H344V668L233,648L423,158L606,649L497,668v33H758V668L685,652L411,-43c0,0,-48,-124,-84,-177c0,0,-36,-54,-79,-82c0,0,-44,-27,-100,-27Z" 
id="f2_10"
transform="scale(0.001,-0.001)" />

<path d="M289,-14c0,0,-179,0,-179,205V649L20,668v33H233V200c0,0,0,-128,120,-128c0,0,92,0,173,23V649L420,668v33H649V52L738,34V0H533l-6,57C527,57,474,28,405,6c0,0,-69,-20,-116,-20Zm24,849v24l147,203H618v-27L354,835Z" 
id="f2_x"
transform="scale(0.001,-0.001)" />

<path d="M495,413c0,0,0,133,-34,190c0,0,-34,57,-105,57c0,0,-78,0,-119,-62c0,0,-42,-63,-42,-185ZM374,-14c0,0,-163,0,-239,87c0,0,-75,88,-75,283c0,0,0,183,77,274c0,0,76,90,219,90c0,0,269,0,269,-306V353H194V339c0,0,0,-103,23,-160c0,0,22,-57,70,-86c0,0,47,-30,124,-30c0,0,40,0,96,6c0,0,55,7,91,15V43C598,43,562,19,500,2c0,0,-61,-16,-126,-16ZM285,835v24l146,203H590v-27L326,835Z" 
id="f2_j"
transform="scale(0.001,-0.001)" />

<path d="M31,0V33L150,52v956L31,1026v34H274V52L394,33V0Z" 
id="f2_7"
transform="scale(0.001,-0.001)" />

<path d="M0,-14L351,1007h73L75,-14Z" 
id="f2_11"
transform="scale(0.001,-0.001)" />

<path d="M557,-14c0,0,-199,0,-298,89c0,0,-99,90,-99,255V941L32,960v40H432V960L304,941V341c0,0,0,-273,264,-273c0,0,144,0,220,68c0,0,77,68,77,202V941L730,960v40h341V960L943,941V344c0,0,0,-180,-99,-269c0,0,-99,-89,-287,-89Z" 
id="f2_12"
transform="scale(0.001,-0.001)" />

<path d="M191,-20c0,0,-39,0,-65,25c0,0,-25,27,-25,64c0,0,0,38,26,64c0,0,26,26,64,26c0,0,38,0,64,-26c0,0,26,-26,26,-64c0,0,0,-37,-25,-64c0,0,-26,-25,-65,-25Z" 
id="f2_13"
transform="scale(0.001,-0.001)" />

<path d="M228,-14c0,0,-103,0,-209,46L49,200H83L95,99c0,0,20,-21,55,-38c0,0,36,-16,81,-16c0,0,163,0,163,133c0,0,0,44,-35,78c0,0,-34,34,-113,72c0,0,-75,37,-112,81c0,0,-36,45,-36,104c0,0,0,99,66,153c0,0,67,54,184,54c0,0,85,0,200,-26L521,538H486l-11,80c0,0,-47,42,-124,42c0,0,-61,0,-97,-28c0,0,-37,-28,-37,-87c0,0,0,-40,31,-71c0,0,32,-30,119,-75c0,0,78,-40,113,-86c0,0,36,-47,36,-107c0,0,0,-113,-71,-167c0,0,-72,-53,-217,-53Z" 
id="f4_2"
transform="scale(0.001,-0.001)" />

<path d="M188,355c0,0,148,11,236,69c0,0,89,58,89,143c0,0,0,41,-23,68c0,0,-22,27,-66,27c0,0,-52,0,-101,-43c0,0,-49,-42,-85,-114c0,0,-36,-71,-50,-150ZM298,-14c0,0,-120,0,-186,67c0,0,-65,67,-65,193c0,0,0,125,53,232c0,0,52,108,145,175c0,0,94,67,196,67c0,0,92,0,147,-42c0,0,56,-43,56,-111c0,0,0,-102,-126,-173c0,0,-125,-72,-336,-86l-3,-54c0,0,0,-95,40,-143c0,0,40,-47,118,-47c0,0,67,0,124,22c0,0,57,23,106,52l22,-32c0,0,-69,-58,-146,-89c0,0,-76,-31,-145,-31Z" 
id="f4_e"
transform="scale(0.001,-0.001)" />

<path d="M298,-14c0,0,-120,0,-185,69c0,0,-66,69,-66,191c0,0,0,130,52,237c0,0,52,107,149,172c0,0,97,65,203,65c0,0,53,0,112,-12c0,0,60,-11,99,-27L628,485H587L575,615c0,0,-47,47,-125,47c0,0,-72,0,-134,-53c0,0,-62,-53,-100,-147c0,0,-37,-95,-37,-208c0,0,0,-190,154,-190c0,0,106,0,222,74l22,-32c0,0,-60,-56,-135,-88c0,0,-76,-32,-144,-32Z" 
id="f4_j"
transform="scale(0.001,-0.001)" />

<path d="M301,78c0,0,85,0,185,104l81,442c0,0,-29,20,-55,28c0,0,-25,8,-62,8c0,0,-75,0,-137,-56c0,0,-62,-56,-98,-152c0,0,-36,-95,-36,-199c0,0,0,-79,33,-127c0,0,33,-48,89,-48ZM245,-14c0,0,-90,0,-145,66c0,0,-54,66,-54,182c0,0,0,131,57,244c0,0,57,114,152,178c0,0,96,64,208,64c0,0,90,0,170,-33l33,26h40L589,52L673,33L667,0H454l22,117C476,117,350,-14,245,-14Z" 
id="f4_3"
transform="scale(0.001,-0.001)" />

<path d="M325,46c0,0,68,0,130,55c0,0,61,54,97,149c0,0,36,94,36,202c0,0,0,103,-39,156c0,0,-39,54,-113,54c0,0,-67,0,-128,-55c0,0,-61,-54,-96,-149c0,0,-35,-94,-35,-204c0,0,0,-101,39,-154c0,0,39,-54,109,-54Zm-6,-60c0,0,-124,0,-199,79c0,0,-74,79,-74,214c0,0,0,120,51,222c0,0,51,103,143,161c0,0,91,58,205,58c0,0,124,0,199,-80c0,0,74,-79,74,-214c0,0,0,-120,-51,-222C667,204,615,101,524,43c0,0,-91,-57,-205,-57Zm73,848l4,25l182,203H737l-4,-28L433,834Z" 
id="f4_k"
transform="scale(0.001,-0.001)" />

<path d="M448,506c0,0,134,0,190,49c0,0,57,50,57,168c0,0,0,114,-56,162c0,0,-56,48,-195,48H316V506ZM777,0L496,438H316V60L468,40V0H54V40L172,60V941L44,960v40H476c0,0,188,0,277,-63c0,0,90,-64,90,-204c0,0,0,-100,-54,-173c0,0,-55,-73,-151,-101L909,60L1017,40V0Z" 
id="f2_v"
transform="scale(0.001,-0.001)" />

<path d="M326,0L773,903H224V752H121v362H937V924L477,0Z" 
id="f3_j"
transform="scale(0.001,-0.001)" />


</defs>
</svg>