<?xml version="1.0" encoding="UTF-8" standalone="no"?>
<!DOCTYPE svg PUBLIC "-//W3C//DTD SVG 1.1//EN"
"http://www.w3.org/Graphics/SVG/1.1/DTD/svg11.dtd">
<svg viewBox="0 0 909 1286" version="1.1" xmlns="http://www.w3.org/2000/svg" xmlns:xlink="http://www.w3.org/1999/xlink">
<defs>
<clipPath id="c0_11"><path d="M0,1286.2V0H909.4V1286.2Z" /></clipPath>
</defs>
<g clip-path="url(#c0_11)">
<g fill="#000000" >
<use xlink:href="#f0_k" transform="matrix(12,0,0,12,726.5,127.1)" />
<use xlink:href="#f0_a" transform="matrix(12,0,0,12,746.8,127.1)" />
<use xlink:href="#f0_d" transform="matrix(12,0,0,12,759.3,127.1)" />
<use xlink:href="#f1_5" transform="matrix(12,0,0,12,700.8,127.1)" />
<use xlink:href="#f1_h" transform="matrix(12,0,0,12,704.9,127.1)" />
<use xlink:href="#f1_a" transform="matrix(12,0,0,12,714.5,127.1)" />
<use xlink:href="#f1_q" transform="matrix(12,0,0,12,488.6,127.1)" />
<use xlink:href="#f1_2" transform="matrix(12,0,0,12,494.4,127.1)" />
<use xlink:href="#f1_s" transform="matrix(12,0,0,12,504.8,127.1)" />
<use xlink:href="#f1_9" transform="matrix(12,0,0,12,512.3,127.1)" />
<use xlink:href="#f1_4" transform="matrix(12,0,0,12,522.6,127.1)" />
<use xlink:href="#f1_2" transform="matrix(12,0,0,12,534.6,127.1)" />
<use xlink:href="#f1_7" transform="matrix(12,0,0,12,545,127.1)" />
<use xlink:href="#f1_c" transform="matrix(12,0,0,12,555.9,127.1)" />
<use xlink:href="#f1_7" transform="matrix(12,0,0,12,568.1,127.1)" />
<use xlink:href="#f1_9" transform="matrix(12,0,0,12,573,127.1)" />
<use xlink:href="#f1_3" transform="matrix(12,0,0,12,583.4,127.1)" />
<use xlink:href="#f1_2" transform="matrix(12,0,0,12,596.4,127.1)" />
<use xlink:href="#f1_c" transform="matrix(12,0,0,12,612.7,127.1)" />
<use xlink:href="#f1_7" transform="matrix(12,0,0,12,625,127.1)" />
<use xlink:href="#f1_a" transform="matrix(12,0,0,12,630,127.1)" />
<use xlink:href="#f1_m" transform="matrix(12,0,0,12,647.8,127.1)" />
<use xlink:href="#f1_8" transform="matrix(12,0,0,12,653.7,127.1)" />
<use xlink:href="#f1_7" transform="matrix(12,0,0,12,664.2,127.1)" />
<use xlink:href="#f1_b" transform="matrix(12,0,0,12,669.2,127.1)" />
<use xlink:href="#f1_r" transform="matrix(12,0,0,12,682.2,127.1)" />
<use xlink:href="#f2_1q" transform="matrix(11,0,0,11,137.7,125.7)" />
<use xlink:href="#f2_r" transform="matrix(11,0,0,11,148.8,125.7)" />
<use xlink:href="#f3_k" transform="matrix(11,0,0,11,161.5,125.7)" />
<use xlink:href="#f3_w" transform="matrix(11,0,0,11,174.6,125.7)" />
<use xlink:href="#f3_9" transform="matrix(11,0,0,11,182.1,125.7)" />
<use xlink:href="#f3_j" transform="matrix(11,0,0,11,192.7,125.7)" />
<use xlink:href="#f3_k" transform="matrix(11,0,0,11,197.5,125.7)" />
<use xlink:href="#f3_g" transform="matrix(11,0,0,11,210.4,125.7)" />
<use xlink:href="#f3_f" transform="matrix(11,0,0,11,218.9,125.7)" />
<use xlink:href="#f3_h" transform="matrix(11,0,0,11,227.3,125.7)" />
<use xlink:href="#f3_2" transform="matrix(11,0,0,11,232.8,125.7)" />
<use xlink:href="#f3_b" transform="matrix(11,0,0,11,237.5,125.7)" />
<use xlink:href="#f3_e" transform="matrix(11,0,0,11,244.9,125.7)" />
<use xlink:href="#f3_2" transform="matrix(11,0,0,11,253.3,125.7)" />
<use xlink:href="#f3_c" transform="matrix(11,0,0,11,258.1,125.7)" />
<use xlink:href="#f3_c" transform="matrix(11,0,0,11,269.6,125.7)" />
<use xlink:href="#f3_9" transform="matrix(11,0,0,11,277.1,125.7)" />
<use xlink:href="#f3_d" transform="matrix(11,0,0,11,287.8,125.7)" />
<use xlink:href="#f3_c" transform="matrix(11,0,0,11,292.5,125.7)" />
<use xlink:href="#f3_c" transform="matrix(11,0,0,11,300,125.7)" />
<use xlink:href="#f3_h" transform="matrix(11,0,0,11,307.3,125.7)" />
<use xlink:href="#f3_11" transform="matrix(11,0,0,11,317.2,125.7)" />
<use xlink:href="#f3_g" transform="matrix(11,0,0,11,329.7,125.7)" />
<use xlink:href="#f3_h" transform="matrix(11,0,0,11,338.1,125.7)" />
<use xlink:href="#f3_b" transform="matrix(11,0,0,11,343.7,125.7)" />
<use xlink:href="#f3_i" transform="matrix(11,0,0,11,351.2,125.7)" />
<use xlink:href="#f3_2" transform="matrix(11,0,0,11,358.5,125.7)" />
<use xlink:href="#f3_j" transform="matrix(11,0,0,11,363.2,125.7)" />
<use xlink:href="#f3_i" transform="matrix(11,0,0,11,368,125.7)" />
<use xlink:href="#f3_b" transform="matrix(11,0,0,11,375.3,125.7)" />
<use xlink:href="#f3_h" transform="matrix(11,0,0,11,382.8,125.7)" />
<use xlink:href="#f3_13" transform="matrix(11,0,0,11,388.4,125.7)" />
<use xlink:href="#f1_a" transform="matrix(12,0,0,12,659.7,148.5)" />
<use xlink:href="#f1_i" transform="matrix(12,0,0,12,671.6,148.5)" />
<use xlink:href="#f1_b" transform="matrix(12,0,0,12,683.8,148.5)" />
<use xlink:href="#f1_l" transform="matrix(12,0,0,12,696.8,148.5)" />
<use xlink:href="#f1_r" transform="matrix(12,0,0,12,706.9,148.5)" />
<use xlink:href="#f1_8" transform="matrix(12,0,0,12,724.6,148.5)" />
<use xlink:href="#f1_b" transform="matrix(12,0,0,12,735.1,148.5)" />
<use xlink:href="#f1_r" transform="matrix(12,0,0,12,748.1,148.5)" />
<use xlink:href="#f1_f" transform="matrix(12,0,0,12,760,148.5)" />
<use xlink:href="#f0_k" transform="matrix(12,0,0,12,607.6,148.5)" />
<use xlink:href="#f0_a" transform="matrix(12,0,0,12,627.9,148.5)" />
<use xlink:href="#f0_d" transform="matrix(12,0,0,12,640.4,148.5)" />
<use xlink:href="#f1_q" transform="matrix(12,0,0,12,508.3,148.5)" />
<use xlink:href="#f1_e" transform="matrix(12,0,0,12,514.1,148.5)" />
<use xlink:href="#f1_5" transform="matrix(12,0,0,12,526.3,148.5)" />
<use xlink:href="#f1_h" transform="matrix(12,0,0,12,530.4,148.5)" />
<use xlink:href="#f1_5" transform="matrix(12,0,0,12,540,148.5)" />
<use xlink:href="#f1_9" transform="matrix(12,0,0,12,544,148.5)" />
<use xlink:href="#f1_g" transform="matrix(12,0,0,12,554.4,148.5)" />
<use xlink:href="#f1_e" transform="matrix(12,0,0,12,571.1,148.5)" />
<use xlink:href="#f1_4" transform="matrix(12,0,0,12,583.3,148.5)" />
<use xlink:href="#f1_c" transform="matrix(12,0,0,12,595.3,148.5)" />
<use xlink:href="#f3_a" transform="matrix(11,0,0,11,137.7,147.1)" />
<use xlink:href="#f3_f" transform="matrix(11,0,0,11,148.8,147.1)" />
<use xlink:href="#f3_k" transform="matrix(11,0,0,11,157.2,147.1)" />
<use xlink:href="#f3_g" transform="matrix(11,0,0,11,170.3,147.1)" />
<use xlink:href="#f3_o" transform="matrix(11,0,0,11,178.7,147.1)" />
<use xlink:href="#f3_2" transform="matrix(11,0,0,11,187.1,147.1)" />
<use xlink:href="#f3_b" transform="matrix(11,0,0,11,191.9,147.1)" />
<use xlink:href="#f3_8" transform="matrix(11,0,0,11,199.3,147.1)" />
<use xlink:href="#f3_f" transform="matrix(11,0,0,11,207.7,147.1)" />
<use xlink:href="#f3_h" transform="matrix(11,0,0,11,216,147.1)" />
<use xlink:href="#f3_b" transform="matrix(11,0,0,11,221.6,147.1)" />
<use xlink:href="#f3_e" transform="matrix(11,0,0,11,233.3,147.1)" />
<use xlink:href="#f3_o" transform="matrix(11,0,0,11,241.7,147.1)" />
<use xlink:href="#f3_c" transform="matrix(11,0,0,11,250,147.1)" />
<use xlink:href="#f3_z" transform="matrix(11,0,0,11,257.5,147.1)" />
<use xlink:href="#f3_b" transform="matrix(11,0,0,11,265.9,147.1)" />
<use xlink:href="#f3_c" transform="matrix(11,0,0,11,277.6,147.1)" />
<use xlink:href="#f3_9" transform="matrix(11,0,0,11,284.9,147.1)" />
<use xlink:href="#f2_c" transform="matrix(11,0,0,11,295.9,147.1)" />
<use xlink:href="#f2_r" transform="matrix(11,0,0,11,300.5,147.1)" />
<use xlink:href="#f2_1r" transform="matrix(11,0,0,11,313.2,147.1)" />
<use xlink:href="#f2_14" transform="matrix(11,0,0,11,322.5,147.1)" />
<use xlink:href="#f2_f" transform="matrix(11,0,0,11,331.8,147.1)" />
<use xlink:href="#f3_e" transform="matrix(11,0,0,11,343.6,147.1)" />
<use xlink:href="#f3_c" transform="matrix(11,0,0,11,352,147.1)" />
<use xlink:href="#f3_i" transform="matrix(11,0,0,11,359.3,147.1)" />
<use xlink:href="#f3_c" transform="matrix(11,0,0,11,366.8,147.1)" />
<use xlink:href="#f3_9" transform="matrix(11,0,0,11,374.2,147.1)" />
<use xlink:href="#f3_j" transform="matrix(11,0,0,11,380.8,147.1)" />
<use xlink:href="#f3_2" transform="matrix(11,0,0,11,385.4,147.1)" />
<use xlink:href="#f3_b" transform="matrix(11,0,0,11,390.1,147.1)" />
<use xlink:href="#f3_e" transform="matrix(11,0,0,11,397.6,147.1)" />
<use xlink:href="#f3_7" transform="matrix(11,0,0,11,410.2,147.1)" />
<use xlink:href="#f3_8" transform="matrix(11,0,0,11,422.3,147.1)" />
<use xlink:href="#f3_9" transform="matrix(11,0,0,11,430.7,147.1)" />
<use xlink:href="#f3_13" transform="matrix(11,0,0,11,437.1,147.1)" />
<use xlink:href="#f1_12" transform="matrix(11,0,0,11,137.5,1208.9)" />
<use xlink:href="#f1_12" transform="matrix(11,0,0,11,148.2,1208.9)" />
</g>
</g>
<defs>
<path d="M137,0L30,830H277L321,522c0,0,68,3,96,27c0,0,27,23,38,58c0,0,26,74,31,228H733c0,0,-31,-218,-70,-316c0,0,-23,-59,-88,-100c0,0,-54,-34,-116,-42c0,0,-62,-8,-117,-8L362,178c0,0,27,-1,61,-1c40,0,89,1,119,6c0,0,57,8,94,25c0,0,37,18,69,47c0,0,32,30,60,79c0,0,28,48,51,117c0,0,48,143,82,384h248c0,0,-53,-404,-172,-586C974,249,879,103,745,51C745,51,613,0,318,0Z" 
id="f0_k"
transform="scale(0.001,-0.001)" />

<path d="M153,0V437L399,539V0ZM664,0V450c0,0,0,122,-31,165c0,0,-31,43,-121,43H138V836H511c0,0,113,0,188,-22c0,0,75,-23,123,-73c0,0,47,-51,68,-127c0,0,20,-76,20,-189V0Z" 
id="f0_a"
transform="scale(0.001,-0.001)" />

<path d="M129,0l69,362c0,0,10,56,12,100c0,0,0,84,-27,159c0,0,-27,76,-117,215H322c0,0,9,-6,31,-79c0,0,23,-72,23,-105c0,0,23,82,100,138c0,0,77,57,160,57c0,0,332,0,332,-397V0H538V177H721V449c0,0,0,124,-20,170c0,0,-20,47,-82,47c0,0,-23,0,-43,-9c0,0,-19,-10,-34,-23c0,0,-14,-14,-27,-39c0,0,-13,-25,-22,-46c0,0,-8,-22,-17,-57c0,0,-9,-36,-15,-61c0,0,-5,-24,-13,-65L375,0Z" 
id="f0_d"
transform="scale(0.001,-0.001)" />

<path d="M102,312V836H241V369L102,312Z" 
id="f1_5"
transform="scale(0.001,-0.001)" />

<path d="M66,0V106H322c0,0,75,0,127,23c0,0,53,23,82,67c0,0,29,43,42,98c0,0,13,54,13,124c0,0,0,70,-13,124c0,0,-13,55,-42,98c0,0,-29,44,-82,67c0,0,-52,23,-127,23H66V836H322c0,0,87,0,157,-24c0,0,70,-24,115,-64c0,0,45,-40,74,-94c0,0,30,-55,43,-113c0,0,13,-59,13,-123c0,0,0,-64,-13,-123c0,0,-13,-58,-43,-113c0,0,-29,-54,-74,-94C594,88,549,48,479,24C479,24,409,0,322,0Z" 
id="f1_h"
transform="scale(0.001,-0.001)" />

<path d="M154,0V454l138,56V0ZM722,0V454c0,0,0,161,-49,218c0,0,-48,57,-186,57H139V836H485c0,0,207,0,291,-93c0,0,83,-94,83,-318V0Z" 
id="f1_a"
transform="scale(0.001,-0.001)" />

<path d="M163,0V190H321V0Z" 
id="f1_q"
transform="scale(0.001,-0.001)" />

<path d="M287,0L589,729H66v386H205V836l547,-1l-2,-82L433,0Z" 
id="f1_2"
transform="scale(0.001,-0.001)" />

<path d="M138,-7c0,0,-34,0,-72,10V129c0,0,25,-8,52,-8c0,0,33,0,58,5c0,0,26,5,58,24c0,0,33,20,53,54c0,0,21,34,36,97c0,0,15,64,15,151c0,0,0,113,-19,173c0,0,-19,60,-56,82c0,0,-38,22,-107,22H89V836h72c0,0,165,0,240,-91c0,0,76,-91,76,-293c0,0,0,-107,26,-227c0,0,25,-119,83,-225H437c0,0,-43,101,-62,184c0,0,-24,-60,-51,-99c0,0,-26,-38,-56,-58C268,27,239,7,209,0c0,0,-30,-7,-71,-7Z" 
id="f1_s"
transform="scale(0.001,-0.001)" />

<path d="M585,0V426c0,0,0,54,-8,98c0,0,-8,44,-27,83c0,0,-19,40,-49,66c0,0,-30,26,-77,41c0,0,-47,15,-108,15H66V836H315c0,0,94,0,166,-20c0,0,71,-20,116,-54c0,0,46,-35,75,-88c0,0,28,-52,40,-112c0,0,12,-60,12,-137V0Z" 
id="f1_9"
transform="scale(0.001,-0.001)" />

<path d="M112,-5c0,0,-39,0,-97,11V113c0,0,48,-10,77,-10c0,0,53,0,70,42c0,0,17,43,17,164V729H50V836H501c0,0,107,0,179,-25c0,0,72,-25,112,-77c0,0,40,-51,57,-118c0,0,16,-67,16,-164V0H726V454c0,0,0,55,-3,92c0,0,-4,37,-17,75c0,0,-14,38,-38,59c0,0,-24,22,-65,36c0,0,-42,13,-102,13H318V309c0,0,0,-160,-46,-237C272,72,226,-5,112,-5Z" 
id="f1_4"
transform="scale(0.001,-0.001)" />

<path d="M139,0V836H278V0Z" 
id="f1_7"
transform="scale(0.001,-0.001)" />

<path d="M139,0V138c0,0,0,61,8,112c0,0,7,52,19,87c0,0,11,36,30,66c0,0,19,31,35,49c0,0,17,19,41,35c0,0,25,17,41,25c0,0,17,7,40,17L141,836H303L613,388c0,0,20,10,33,18c0,0,13,8,34,28c0,0,20,20,33,44c0,0,13,25,22,66c0,0,10,41,10,92V836H882V698c0,0,0,-61,-7,-112c0,0,-6,-52,-18,-88c0,0,-12,-36,-30,-66c0,0,-19,-30,-36,-49c0,0,-17,-18,-41,-34c0,0,-24,-17,-40,-25c0,0,-17,-8,-41,-17L882,0H720L409,448c0,0,-21,-11,-34,-19c0,0,-13,-8,-34,-27c0,0,-21,-20,-34,-44c0,0,-12,-25,-22,-66c0,0,-9,-41,-9,-92V0Z" 
id="f1_c"
transform="scale(0.001,-0.001)" />

<path d="M156,-317V454l139,56V-317ZM505,0L806,729H139V835H967V753L650,0Z" 
id="f1_3"
transform="scale(0.001,-0.001)" />

<path d="M117,-176L179,62V190H336V62L213,-176Z" 
id="f1_m"
transform="scale(0.001,-0.001)" />

<path d="M66,0V107H554V452c0,0,0,56,-4,93c0,0,-4,37,-18,75c0,0,-14,38,-40,60c0,0,-26,22,-71,36c0,0,-45,13,-110,13H66V836H312c0,0,91,0,157,-17c0,0,66,-17,109,-49c0,0,44,-32,69,-84c0,0,26,-52,36,-114c0,0,10,-62,10,-147V107H817V0Z" 
id="f1_8"
transform="scale(0.001,-0.001)" />

<path d="M180,0L66,836H203L258,443c0,0,36,1,64,6c0,0,28,6,49,18c0,0,20,12,35,26c0,0,15,13,26,36c0,0,11,24,17,44c0,0,7,20,12,55c0,0,6,34,9,60c0,0,3,26,8,71c0,0,4,45,9,77H610c0,0,-13,-194,-31,-271c0,0,-31,-127,-111,-179c0,0,-71,-45,-196,-50L304,107c0,0,73,0,130,5c0,0,56,6,111,21c0,0,54,15,94,40c0,0,40,25,77,64c0,0,37,39,63,94c0,0,25,54,46,128c0,0,21,73,34,166c0,0,13,94,20,211h138c0,0,-14,-124,-29,-218c0,0,-16,-94,-39,-179c0,0,-22,-85,-50,-146c0,0,-28,-61,-68,-112c0,0,-39,-51,-87,-84C744,97,696,65,632,42C632,42,568,19,492,10C492,10,417,0,320,0Z" 
id="f1_b"
transform="scale(0.001,-0.001)" />

<path d="M139,0V836H485c0,0,206,0,290,-90c0,0,84,-89,84,-294V0H721V473c0,0,0,147,-49,202c0,0,-48,54,-186,54H277V0Z" 
id="f1_r"
transform="scale(0.001,-0.001)" />

<path d="M26,0V54L154,74V926L27,945v55H544V945L389,926V79H593c0,0,159,0,234,15l61,208h67L927,0Z" 
id="f2_1q"
transform="scale(0.001,-0.001)" />

<path d="M379,60c0,0,59,0,84,64c0,0,24,65,24,231c0,0,0,164,-24,227c0,0,-24,63,-84,63c0,0,-57,0,-80,-60c0,0,-22,-61,-22,-230c0,0,0,-173,23,-234c0,0,22,-61,79,-61Zm-2,-74c0,0,-161,0,-240,91c0,0,-79,91,-79,277c0,0,0,186,80,276c0,0,81,90,245,90c0,0,167,0,245,-93c0,0,78,-93,78,-273c0,0,0,-188,-81,-278c0,0,-81,-90,-248,-90Z" 
id="f2_r"
transform="scale(0.001,-0.001)" />

<path d="M431,0V33L535,52V499c0,0,0,62,-32,96c0,0,-32,33,-95,33c0,0,-66,0,-163,-22V52L350,33V0H32V33l89,19V649L32,668v33H237l6,-57c0,0,56,32,119,54c0,0,62,22,110,22c0,0,52,0,95,-20c0,0,44,-19,66,-62c0,0,57,32,134,57c0,0,77,25,128,25c0,0,179,0,179,-207V52l90,-19V0H846V33L950,52V499c0,0,0,129,-119,129c0,0,-19,0,-45,-3c0,0,-26,-3,-52,-7c0,0,-25,-4,-49,-8c0,0,-23,-5,-39,-8c0,0,13,-41,13,-89V52L764,33V0Z" 
id="f3_k"
transform="scale(0.001,-0.001)" />

<path d="M284,67c0,0,51,0,88,12c0,0,37,11,74,29V357l-98,-3c0,0,-100,-3,-135,-38c0,0,-35,-36,-35,-118c0,0,0,-131,106,-131ZM233,-14c0,0,-179,0,-179,208c0,0,0,70,27,116c0,0,27,46,87,70c0,0,60,24,173,27l105,3V519c0,0,0,73,-26,107c0,0,-27,34,-82,34c0,0,-75,0,-137,-35L176,538H134V691c0,0,121,26,213,26c0,0,115,0,169,-47c0,0,54,-47,54,-144V52L657,34V0H465L451,70c0,0,-85,-84,-218,-84Zm22,849v24l146,203H560v-27L296,835Z" 
id="f3_w"
transform="scale(0.001,-0.001)" />

<path d="M278,-14c0,0,-52,0,-115,11c0,0,-63,10,-99,23V193H98L134,95c0,0,56,-50,146,-50c0,0,144,0,144,123c0,0,0,91,-114,130l-66,21c0,0,-75,25,-110,50c0,0,-34,26,-53,63c0,0,-18,36,-18,89c0,0,0,92,63,145c0,0,63,54,170,54c0,0,77,0,193,-23V544H454l-32,81c0,0,-39,35,-124,35c0,0,-61,0,-92,-30c0,0,-32,-30,-32,-80c0,0,0,-43,29,-72c0,0,28,-29,86,-48c0,0,110,-38,144,-55c0,0,33,-17,57,-42c0,0,23,-25,36,-57c0,0,13,-32,13,-79c0,0,0,-104,-66,-158c0,0,-66,-53,-195,-53Z" 
id="f3_9"
transform="scale(0.001,-0.001)" />

<path d="M32,0V33L151,52V649L52,668v33H275V52L395,33V0ZM201,850c0,0,-32,0,-56,24c0,0,-24,24,-24,56c0,0,0,34,24,58c0,0,24,24,56,24c0,0,34,0,58,-24c0,0,24,-24,24,-58c0,0,0,-32,-24,-56c0,0,-24,-24,-58,-24Z" 
id="f3_j"
transform="scale(0.001,-0.001)" />

<path d="M382,45c0,0,188,0,188,314c0,0,0,143,-47,213c0,0,-46,69,-141,69c0,0,-87,0,-146,-24V58c0,0,67,-13,146,-13ZM25,-325v35l88,18V649L34,668v33H231l1,-41c0,0,31,27,84,43c0,0,53,17,107,17c0,0,134,0,208,-94c0,0,73,-93,73,-267c0,0,0,-178,-80,-276c0,0,-80,-97,-232,-97c0,0,-84,0,-160,16c0,0,4,-53,4,-84V-272l123,-18v-35Z" 
id="f3_g"
transform="scale(0.001,-0.001)" />

<path d="M377,45c0,0,99,0,147,73c0,0,47,73,47,237c0,0,0,161,-47,233c0,0,-47,72,-147,72c0,0,-97,0,-141,-69c0,0,-44,-69,-44,-236c0,0,0,-169,45,-240c0,0,44,-70,140,-70Zm0,-59c0,0,-158,0,-238,94c0,0,-81,95,-81,274c0,0,0,178,81,272c0,0,80,94,244,94c0,0,160,0,241,-92c0,0,82,-92,82,-274c0,0,0,-368,-329,-368Z" 
id="f3_f"
transform="scale(0.001,-0.001)" />

<path d="M31,0V33l88,19V649L31,668v33H235l7,-87c0,0,44,37,121,71c0,0,76,35,121,35h11V530H463l-43,82c0,0,-37,0,-88,-10c0,0,-52,-10,-89,-26V52L363,33V0Z" 
id="f3_h"
transform="scale(0.001,-0.001)" />

<path d="M249,-14c0,0,-71,0,-107,42c0,0,-35,42,-35,119V639H15v33l93,29l76,159h47V701H391V639H231V161c0,0,0,-48,22,-73c0,0,22,-24,57,-24c0,0,44,0,106,12V26C416,26,389,8,340,-2c0,0,-49,-12,-91,-12Z" 
id="f3_2"
transform="scale(0.001,-0.001)" />

<path d="M284,67c0,0,51,0,88,12c0,0,37,12,74,30V358l-98,-3c0,0,-100,-4,-135,-39c0,0,-35,-35,-35,-117c0,0,0,-132,106,-132ZM233,-14c0,0,-179,0,-179,208c0,0,0,70,27,116c0,0,27,46,87,70c0,0,60,24,173,27l105,3V519c0,0,0,72,-26,107c0,0,-27,34,-82,34c0,0,-75,0,-137,-35L176,538H134V691c0,0,121,26,213,26c0,0,115,0,169,-47c0,0,54,-47,54,-144V52L657,33V0H465L451,70c0,0,-85,-84,-218,-84Z" 
id="f3_b"
transform="scale(0.001,-0.001)" />

<path d="M439,0V33l93,19V500c0,0,0,62,-30,97c0,0,-31,36,-94,36c0,0,-67,0,-165,-22V52L338,33V0H35V33l84,19V649L35,668v33H235l7,-57c0,0,57,33,122,54c0,0,65,22,108,22c0,0,91,0,137,-53c0,0,47,-53,47,-154V52L741,33V0Z" 
id="f3_e"
transform="scale(0.001,-0.001)" />

<path d="M495,413c0,0,0,133,-34,190c0,0,-34,57,-105,57c0,0,-78,0,-119,-63c0,0,-42,-62,-42,-184ZM374,-14c0,0,-163,0,-239,87c0,0,-75,88,-75,283c0,0,0,183,77,273c0,0,76,91,219,91c0,0,269,0,269,-306V353H194V340c0,0,0,-103,23,-160c0,0,22,-57,70,-87c0,0,47,-29,124,-29c0,0,40,0,96,6c0,0,55,7,91,15V43C598,43,562,20,500,3c0,0,-61,-17,-126,-17Z" 
id="f3_c"
transform="scale(0.001,-0.001)" />

<path d="M31,0V33L150,52v956L31,1026v34H274V52L394,33V0Z" 
id="f3_d"
transform="scale(0.001,-0.001)" />

<path d="M148,-329c0,0,-58,0,-114,13v151H69l24,-71c0,0,23,-17,64,-17c0,0,39,0,72,22c0,0,33,23,60,67c0,0,27,44,68,157L90,649L19,668v33H344V668L233,648L423,158L606,649L497,668v33H758V668L685,652L411,-43c0,0,-48,-124,-84,-177c0,0,-36,-54,-79,-82c0,0,-44,-27,-100,-27Z" 
id="f3_11"
transform="scale(0.001,-0.001)" />

<path d="M399,-14c0,0,-341,0,-341,370c0,0,0,175,87,269c0,0,87,95,249,95c0,0,101,0,220,-23V501H573L541,625c0,0,-62,35,-149,35c0,0,-200,0,-200,-304c0,0,0,-158,61,-225c0,0,61,-67,189,-67c0,0,109,0,189,24V43C631,43,595,16,530,1c0,0,-64,-15,-131,-15Z" 
id="f3_i"
transform="scale(0.001,-0.001)" />

<path d="M191,-20c0,0,-39,0,-65,25c0,0,-25,27,-25,64c0,0,0,38,26,64c0,0,26,26,64,26c0,0,38,0,64,-26c0,0,26,-26,26,-64c0,0,0,-37,-25,-64c0,0,-26,-25,-65,-25Z" 
id="f3_13"
transform="scale(0.001,-0.001)" />

<path d="M152,0V473c0,0,0,94,28,161c0,0,29,66,71,95H66V836H463V729H404c0,0,-65,0,-89,-57c0,0,-25,-58,-25,-199V0Z" 
id="f1_i"
transform="scale(0.001,-0.001)" />

<path d="M495,0V729H66V836H781V729H634V0Z" 
id="f1_l"
transform="scale(0.001,-0.001)" />

<path d="M114,0l60,312c0,0,2,12,8,39c0,0,6,27,7,37c0,0,2,11,5,30c0,0,2,19,4,33c0,0,1,15,1,31c0,0,0,48,-35,146c0,0,-35,98,-98,208H228c0,0,3,-8,27,-67c0,0,25,-58,41,-117c0,0,21,53,50,90c0,0,29,37,57,57c0,0,29,21,65,32c0,0,37,11,65,14c0,0,28,3,67,3c0,0,300,0,300,-396V0H480V106H761V452c0,0,0,146,-46,215c0,0,-45,70,-118,70c0,0,-134,0,-198,-119c0,0,-36,-68,-67,-222c0,0,-2,-10,-6,-27L253,0Z" 
id="f1_f"
transform="scale(0.001,-0.001)" />

<path d="M736,107V473c0,0,0,147,-48,202c0,0,-49,54,-187,54H278V107ZM139,0V836H499c0,0,105,0,177,-22c0,0,72,-21,116,-69c0,0,44,-49,64,-119c0,0,19,-71,19,-174V0Z" 
id="f1_e"
transform="scale(0.001,-0.001)" />

<path d="M66,0V106H564L66,836H228L516,413c0,0,3,2,9,6c0,0,17,13,27,21c0,0,10,8,26,27c0,0,17,20,26,40c0,0,9,21,16,54c0,0,7,34,7,75V836H764V698c0,0,0,-55,-7,-102c0,0,-7,-47,-16,-79c0,0,-10,-33,-27,-62c0,0,-18,-29,-32,-46c0,0,-14,-17,-37,-35c0,0,-22,-17,-36,-25c0,0,-13,-8,-36,-20L767,53V0Z" 
id="f1_g"
transform="scale(0.001,-0.001)" />

<path d="M577,-14c0,0,-243,0,-379,132C198,118,63,250,63,488c0,0,0,258,130,391c0,0,131,132,387,132c0,0,156,0,335,-38l5,-218H871L848,884c0,0,-52,32,-121,50c0,0,-69,17,-141,17c0,0,-191,0,-279,-112c0,0,-88,-113,-88,-349c0,0,0,-217,92,-332c0,0,92,-115,268,-115c0,0,85,0,160,20c0,0,76,21,120,55l27,149h49L930,32c0,0,-164,-46,-353,-46Z" 
id="f3_a"
transform="scale(0.001,-0.001)" />

<path d="M289,-14c0,0,-179,0,-179,205V649L20,668v33H233V200c0,0,0,-128,120,-128c0,0,92,0,173,23V649L420,668v33H649V52L738,33V0H533l-6,57C527,57,474,28,405,7c0,0,-69,-21,-116,-21Z" 
id="f3_o"
transform="scale(0.001,-0.001)" />

<path d="M383,64c0,0,85,0,152,28V645c0,0,-67,13,-152,13c0,0,-194,0,-194,-314c0,0,0,-141,48,-211c0,0,48,-69,146,-69ZM342,-14c0,0,-287,0,-287,358c0,0,0,184,82,280c0,0,81,96,239,96c0,0,81,0,163,-18c0,0,-4,25,-4,124v182l-118,18v34H659V52L745,33V0H548l-9,52c0,0,-84,-66,-197,-66Z" 
id="f3_8"
transform="scale(0.001,-0.001)" />

<path d="M360,-14L72,649L0,668v33H327V668L216,648L420,164L615,649L504,668v33H764V668L697,652L416,-14Z" 
id="f3_z"
transform="scale(0.001,-0.001)" />

<path d="M30,0V49l76,18V992l-72,18v50H322V67L398,49V0Z" 
id="f2_c"
transform="scale(0.001,-0.001)" />

<path d="M430,68c0,0,29,0,60,8c0,0,32,8,54,21V630c0,0,-51,12,-114,12c0,0,-76,0,-112,-75c0,0,-37,-75,-37,-233c0,0,0,-134,35,-200c0,0,35,-66,114,-66Zm11,-393v50l103,18V-97c0,0,0,70,7,141c0,0,-73,-58,-182,-58c0,0,-156,0,-231,91c0,0,-75,92,-75,277c0,0,0,179,84,272c0,0,84,94,248,94c0,0,53,0,208,-18l89,33h67V-257l77,-18v-50Z" 
id="f2_1r"
transform="scale(0.001,-0.001)" />

<path d="M287,-18c0,0,-194,0,-194,206V634L23,652v49H309V217c0,0,0,-63,26,-98c0,0,27,-35,76,-35c0,0,57,0,113,25V634l-64,18v49H740V67L809,49V0H536L526,61L475,35c0,0,-104,-53,-188,-53Z" 
id="f2_14"
transform="scale(0.001,-0.001)" />

<path d="M434,423c0,0,0,101,-7,142c0,0,-6,40,-22,60c0,0,-16,19,-45,19c0,0,-44,0,-66,-48c0,0,-22,-49,-22,-173ZM389,-14c0,0,-172,0,-254,89c0,0,-83,90,-83,279c0,0,0,184,79,274c0,0,79,91,238,91c0,0,142,0,206,-76c0,0,64,-76,64,-237V345H271V333c0,0,0,-111,18,-158c0,0,18,-47,58,-72c0,0,40,-25,110,-25c0,0,66,0,166,22V42C623,42,582,18,517,1c0,0,-66,-15,-128,-15Z" 
id="f2_f"
transform="scale(0.001,-0.001)" />

<path d="M557,-14c0,0,-199,0,-298,89c0,0,-99,90,-99,255V941L32,960v40H432V960L304,941V341c0,0,0,-273,264,-273c0,0,144,0,220,68c0,0,77,68,77,202V941L730,960v40h341V960L943,941V344c0,0,0,-180,-99,-269c0,0,-99,-89,-287,-89Z" 
id="f3_7"
transform="scale(0.001,-0.001)" />

<path d="M190,0V127H436V977L168,923v137l267,54H586V127H832V0Z" 
id="f1_12"
transform="scale(0.001,-0.001)" />


</defs>
</svg>