<?xml version="1.0" encoding="UTF-8" standalone="no"?>
<!DOCTYPE svg PUBLIC "-//W3C//DTD SVG 1.1//EN"
"http://www.w3.org/Graphics/SVG/1.1/DTD/svg11.dtd">
<svg viewBox="0 0 909 1286" version="1.1" xmlns="http://www.w3.org/2000/svg" xmlns:xlink="http://www.w3.org/1999/xlink">
<defs>
<clipPath id="c0_7"><path d="M0,1286.2V0H909.4V1286.2Z" /></clipPath>
<style type="text/css"><![CDATA[
.g0_7{
fill: #D8D8D8;
}
.g1_7{
fill: none;
stroke: #000000;
stroke-width: 0.7638889;
stroke-linecap: butt;
stroke-linejoin: round;
}
]]></style>
</defs>
<path fill-rule="evenodd" d="M356.3,799.7H555V774.4H356.3v25.3Z" class="g0_7" />
<path fill-rule="evenodd" d="M259,799.7h97.2V774.4H259v25.3Z" class="g0_7" />
<path fill-rule="evenodd" d="M128.9,819.9h130V799.8h-130v20.1Z" class="g0_7" />
<path fill-rule="evenodd" d="M128.9,839.9h130V820h-130v19.9Z" class="g0_7" />
<path fill-rule="evenodd" d="M128.9,860.1h130V840h-130v20.1Z" class="g0_7" />
<path fill-rule="evenodd" d="M128.9,880.1h130v-20h-130v20Z" class="g0_7" />
<path fill-rule="evenodd" d="M128.9,900.2h130v-20h-130v20Z" class="g0_7" />
<path fill-rule="evenodd" d="M128.9,920.3h130v-20h-130v20Z" class="g0_7" />
<path fill-rule="evenodd" d="M356.3,799.7H555V774.4H356.3v25.3Z" class="g0_7" />
<path fill-rule="evenodd" d="M259,799.7h97.2V774.4H259v25.3Z" class="g0_7" />
<path fill-rule="evenodd" d="M128.9,819.9h130V799.8h-130v20.1Z" class="g0_7" />
<path fill-rule="evenodd" d="M128.9,839.9h130V820h-130v19.9Z" class="g0_7" />
<path fill-rule="evenodd" d="M128.9,860.1h130V840h-130v20.1Z" class="g0_7" />
<path fill-rule="evenodd" d="M128.9,880.1h130v-20h-130v20Z" class="g0_7" />
<path fill-rule="evenodd" d="M128.9,900.2h130v-20h-130v20Z" class="g0_7" />
<path fill-rule="evenodd" d="M128.9,920.3h130v-20h-130v20Z" class="g0_7" />
<image preserveAspectRatio="none" x="553" y="133" width="50" height="51" xlink:href="img/1.png" />
<g clip-path="url(#c0_7)">
<g fill="#000000" >
<use xlink:href="#f0_a" transform="matrix(12,0,0,12,302.5,184.3)" />
<use xlink:href="#f0_q" transform="matrix(12,0,0,12,320,184.3)" />
<use xlink:href="#f0_j" transform="matrix(12,0,0,12,333.9,184.3)" />
<use xlink:href="#f0_7" transform="matrix(12,0,0,12,347.2,184.3)" />
<use xlink:href="#f0_q" transform="matrix(12,0,0,12,359.7,184.3)" />
<use xlink:href="#f0_l" transform="matrix(12,0,0,12,373.6,184.3)" />
<use xlink:href="#f0_c" transform="matrix(12,0,0,12,386.2,184.3)" />
<use xlink:href="#f0_9" transform="matrix(12,0,0,12,403.7,184.3)" />
<use xlink:href="#f0_7" transform="matrix(12,0,0,12,409,184.3)" />
<use xlink:href="#f0_j" transform="matrix(12,0,0,12,421.6,184.3)" />
<use xlink:href="#f0_g" transform="matrix(12,0,0,12,441.2,184.3)" />
<use xlink:href="#f0_7" transform="matrix(12,0,0,12,448.6,184.3)" />
<use xlink:href="#f0_8" transform="matrix(12,0,0,12,461.1,184.3)" />
<use xlink:href="#f0_a" transform="matrix(12,0,0,12,467.4,184.3)" />
<use xlink:href="#f0_4" transform="matrix(12,0,0,12,478.5,184.3)" />
<use xlink:href="#f0_7" transform="matrix(12,0,0,12,489.5,184.3)" />
<use xlink:href="#f0_7" transform="matrix(12,0,0,12,508.4,184.3)" />
<use xlink:href="#f0_s" transform="matrix(12,0,0,12,520.9,184.3)" />
<use xlink:href="#f0_3" transform="matrix(12,0,0,12,532.9,184.3)" />
<use xlink:href="#f1_a" transform="matrix(13,0,0,13,240.9,184.3)" />
<use xlink:href="#f1_9" transform="matrix(13,0,0,13,255.4,184.3)" />
<use xlink:href="#f1_b" transform="matrix(13,0,0,13,266.6,184.3)" />
<use xlink:href="#f1_4" transform="matrix(13,0,0,13,275.7,184.3)" />
<use xlink:href="#f1_c" transform="matrix(13,0,0,13,288.4,184.3)" />
<use xlink:href="#f0_a" transform="matrix(12,0,0,12,179.7,184.3)" />
<use xlink:href="#f0_9" transform="matrix(12,0,0,12,197.2,184.3)" />
<use xlink:href="#f0_7" transform="matrix(12,0,0,12,202.6,184.3)" />
<use xlink:href="#f0_j" transform="matrix(12,0,0,12,215.1,184.3)" />
<use xlink:href="#f0_8" transform="matrix(12,0,0,12,228.4,184.3)" />
<use xlink:href="#f1_b" transform="matrix(13,0,0,13,579.5,207.6)" />
<use xlink:href="#f1_d" transform="matrix(13,0,0,13,588.6,207.6)" />
<use xlink:href="#f0_v" transform="matrix(12,0,0,12,562.5,207.6)" />
<use xlink:href="#f2_9" transform="matrix(12,0,0,12,421.2,229.3)" />
<use xlink:href="#f2_n" transform="matrix(12,0,0,12,443.3,229.3)" />
<use xlink:href="#f2_g" transform="matrix(12,0,0,12,456.3,229.3)" />
<use xlink:href="#f2_r" transform="matrix(12,0,0,12,468.7,229.3)" />
<use xlink:href="#f2_n" transform="matrix(12,0,0,12,480.7,229.3)" />
<use xlink:href="#f2_6" transform="matrix(12,0,0,12,493.7,229.3)" />
<use xlink:href="#f2_4" transform="matrix(12,0,0,12,512.8,229.3)" />
<use xlink:href="#f2_f" transform="matrix(12,0,0,12,516.9,229.3)" />
<use xlink:href="#f2_f" transform="matrix(12,0,0,12,527.3,229.3)" />
<use xlink:href="#f2_5" transform="matrix(12,0,0,12,537.6,229.3)" />
<use xlink:href="#f2_d" transform="matrix(12,0,0,12,558.8,229.3)" />
<use xlink:href="#f2_j" transform="matrix(12,0,0,12,563.9,229.3)" />
<use xlink:href="#f2_a" transform="matrix(12,0,0,12,575.3,229.3)" />
<use xlink:href="#f2_q" transform="matrix(12,0,0,12,580.3,229.3)" />
<use xlink:href="#f2_9" transform="matrix(12,0,0,12,592.6,229.3)" />
<use xlink:href="#f3_1h" transform="matrix(11,0,0,11,388.7,229.3)" />
<use xlink:href="#f3_n" transform="matrix(11,0,0,11,400.7,229.3)" />
<use xlink:href="#f2_a" transform="matrix(12,0,0,12,137.5,229.3)" />
<use xlink:href="#f2_q" transform="matrix(12,0,0,12,142.5,229.3)" />
<use xlink:href="#f2_4" transform="matrix(12,0,0,12,166.3,229.3)" />
<use xlink:href="#f2_r" transform="matrix(12,0,0,12,170.4,229.3)" />
<use xlink:href="#f2_a" transform="matrix(12,0,0,12,182.3,229.3)" />
<use xlink:href="#f2_5" transform="matrix(12,0,0,12,187.4,229.3)" />
<use xlink:href="#f2_g" transform="matrix(12,0,0,12,197,229.3)" />
<use xlink:href="#f2_l" transform="matrix(12,0,0,12,209.5,229.3)" />
<use xlink:href="#f2_8" transform="matrix(12,0,0,12,233,229.3)" />
<use xlink:href="#f2_b" transform="matrix(12,0,0,12,245.2,229.3)" />
<use xlink:href="#f2_q" transform="matrix(12,0,0,12,255.3,229.3)" />
<use xlink:href="#f2_f" transform="matrix(12,0,0,12,267.5,229.3)" />
<use xlink:href="#f2_r" transform="matrix(12,0,0,12,289.4,229.3)" />
<use xlink:href="#f2_a" transform="matrix(12,0,0,12,301.5,229.3)" />
<use xlink:href="#f2_6" transform="matrix(12,0,0,12,306.4,229.3)" />
<use xlink:href="#f2_j" transform="matrix(12,0,0,12,313.7,229.3)" />
<use xlink:href="#f2_f" transform="matrix(12,0,0,12,325.2,229.3)" />
<use xlink:href="#f2_4" transform="matrix(12,0,0,12,347.3,229.3)" />
<use xlink:href="#f2_b" transform="matrix(12,0,0,12,351.2,229.3)" />
<use xlink:href="#f2_5" transform="matrix(12,0,0,12,361.3,229.3)" />
<use xlink:href="#f2_o" transform="matrix(12,0,0,12,382.7,229.3)" />
<use xlink:href="#f2_9" transform="matrix(12,0,0,12,530.1,250.7)" />
<use xlink:href="#f2_a" transform="matrix(12,0,0,12,540.7,250.7)" />
<use xlink:href="#f2_7" transform="matrix(12,0,0,12,551.6,250.7)" />
<use xlink:href="#f2_3" transform="matrix(12,0,0,12,557.4,250.7)" />
<use xlink:href="#f2_s" transform="matrix(12,0,0,12,567.8,250.7)" />
<use xlink:href="#f2_a" transform="matrix(12,0,0,12,575.3,250.7)" />
<use xlink:href="#f2_9" transform="matrix(12,0,0,12,580.2,250.7)" />
<use xlink:href="#f2_g" transform="matrix(12,0,0,12,590.7,250.7)" />
<use xlink:href="#f3_9" transform="matrix(11,0,0,11,510.9,250.7)" />
<use xlink:href="#f3_1g" transform="matrix(11,0,0,11,515.5,250.7)" />
<use xlink:href="#f2_f" transform="matrix(12,0,0,12,138.1,250.7)" />
<use xlink:href="#f2_5" transform="matrix(12,0,0,12,148.5,250.7)" />
<use xlink:href="#f2_9" transform="matrix(12,0,0,12,158.1,250.7)" />
<use xlink:href="#f2_t" transform="matrix(12,0,0,12,174.6,250.7)" />
<use xlink:href="#f2_q" transform="matrix(12,0,0,12,184.4,250.7)" />
<use xlink:href="#f2_o" transform="matrix(12,0,0,12,202.6,250.7)" />
<use xlink:href="#f2_8" transform="matrix(12,0,0,12,208.4,250.7)" />
<use xlink:href="#f2_4" transform="matrix(12,0,0,12,220.6,250.7)" />
<use xlink:href="#f2_3" transform="matrix(12,0,0,12,224.6,250.7)" />
<use xlink:href="#f2_4" transform="matrix(12,0,0,12,234.9,250.7)" />
<use xlink:href="#f2_5" transform="matrix(12,0,0,12,239,250.7)" />
<use xlink:href="#f2_g" transform="matrix(12,0,0,12,248.7,250.7)" />
<use xlink:href="#f2_a" transform="matrix(12,0,0,12,267.1,250.7)" />
<use xlink:href="#f2_6" transform="matrix(12,0,0,12,272.2,250.7)" />
<use xlink:href="#f2_q" transform="matrix(12,0,0,12,279.5,250.7)" />
<use xlink:href="#f2_n" transform="matrix(12,0,0,12,291.7,250.7)" />
<use xlink:href="#f2_8" transform="matrix(12,0,0,12,310.5,250.7)" />
<use xlink:href="#f2_b" transform="matrix(12,0,0,12,322.7,250.7)" />
<use xlink:href="#f2_q" transform="matrix(12,0,0,12,332.8,250.7)" />
<use xlink:href="#f2_a" transform="matrix(12,0,0,12,350.8,250.7)" />
<use xlink:href="#f2_q" transform="matrix(12,0,0,12,355.9,250.7)" />
<use xlink:href="#f2_3" transform="matrix(12,0,0,12,374.2,250.7)" />
<use xlink:href="#f2_9" transform="matrix(12,0,0,12,384.5,250.7)" />
<use xlink:href="#f2_c" transform="matrix(12,0,0,12,395.1,250.7)" />
<use xlink:href="#f2_f" transform="matrix(12,0,0,12,407,250.7)" />
<use xlink:href="#f2_r" transform="matrix(12,0,0,12,423.2,250.7)" />
<use xlink:href="#f2_a" transform="matrix(12,0,0,12,435.2,250.7)" />
<use xlink:href="#f2_6" transform="matrix(12,0,0,12,440.3,250.7)" />
<use xlink:href="#f2_j" transform="matrix(12,0,0,12,447.6,250.7)" />
<use xlink:href="#f2_f" transform="matrix(12,0,0,12,459,250.7)" />
<use xlink:href="#f2_4" transform="matrix(12,0,0,12,475.4,250.7)" />
<use xlink:href="#f2_b" transform="matrix(12,0,0,12,479.3,250.7)" />
<use xlink:href="#f2_5" transform="matrix(12,0,0,12,489.4,250.7)" />
<use xlink:href="#f2_7" transform="matrix(12,0,0,12,505,250.7)" />
<use xlink:href="#f2_e" transform="matrix(12,0,0,12,137.8,272.1)" />
<use xlink:href="#f2_6" transform="matrix(12,0,0,12,149.7,272.1)" />
<use xlink:href="#f2_a" transform="matrix(12,0,0,12,157.1,272.1)" />
<use xlink:href="#f2_j" transform="matrix(12,0,0,12,162.1,272.1)" />
<use xlink:href="#f2_e" transform="matrix(12,0,0,12,173.5,272.1)" />
<use xlink:href="#f2_q" transform="matrix(12,0,0,12,196.7,272.1)" />
<use xlink:href="#f2_g" transform="matrix(12,0,0,12,208.9,272.1)" />
<use xlink:href="#f2_q" transform="matrix(12,0,0,12,221.3,272.1)" />
<use xlink:href="#f2_8" transform="matrix(12,0,0,12,244.8,272.1)" />
<use xlink:href="#f2_s" transform="matrix(12,0,0,12,257,272.1)" />
<use xlink:href="#f2_7" transform="matrix(12,0,0,12,275.6,272.1)" />
<use xlink:href="#f2_f" transform="matrix(12,0,0,12,281.4,272.1)" />
<use xlink:href="#f2_n" transform="matrix(12,0,0,12,291.8,272.1)" />
<use xlink:href="#f2_g" transform="matrix(12,0,0,12,304.8,272.1)" />
<use xlink:href="#f2_f" transform="matrix(12,0,0,12,317.3,272.1)" />
<use xlink:href="#f2_e" transform="matrix(12,0,0,12,339,272.1)" />
<use xlink:href="#f2_4" transform="matrix(12,0,0,12,350.9,272.1)" />
<use xlink:href="#f2_9" transform="matrix(12,0,0,12,355,272.1)" />
<use xlink:href="#f2_g" transform="matrix(12,0,0,12,365.6,272.1)" />
<use xlink:href="#f2_a" transform="matrix(12,0,0,12,377.9,272.1)" />
<use xlink:href="#f2_f" transform="matrix(12,0,0,12,383,272.1)" />
<use xlink:href="#f2_a" transform="matrix(12,0,0,12,393.4,272.1)" />
<use xlink:href="#f2_i" transform="matrix(12,0,0,12,398.4,272.1)" />
<use xlink:href="#f2_9" transform="matrix(12,0,0,12,411.4,272.1)" />
<use xlink:href="#f2_7" transform="matrix(12,0,0,12,433.2,272.1)" />
<use xlink:href="#f2_r" transform="matrix(12,0,0,12,439,272.1)" />
<use xlink:href="#f2_a" transform="matrix(12,0,0,12,450.9,272.1)" />
<use xlink:href="#f2_6" transform="matrix(12,0,0,12,455.9,272.1)" />
<use xlink:href="#f2_a" transform="matrix(12,0,0,12,463.3,272.1)" />
<use xlink:href="#f2_n" transform="matrix(12,0,0,12,468.3,272.1)" />
<use xlink:href="#f2_r" transform="matrix(12,0,0,12,492.4,272.1)" />
<use xlink:href="#f2_a" transform="matrix(12,0,0,12,504.4,272.1)" />
<use xlink:href="#f2_4" transform="matrix(12,0,0,12,509.4,272.1)" />
<use xlink:href="#f2_a" transform="matrix(12,0,0,12,513.4,272.1)" />
<use xlink:href="#f2_i" transform="matrix(12,0,0,12,518.4,272.1)" />
<use xlink:href="#f2_b" transform="matrix(12,0,0,12,531.4,272.1)" />
<use xlink:href="#f2_e" transform="matrix(12,0,0,12,541.5,272.1)" />
<use xlink:href="#f2_7" transform="matrix(12,0,0,12,564.5,272.1)" />
<use xlink:href="#f2_1v" transform="matrix(12,0,0,12,570.3,272.1)" />
<use xlink:href="#f2_3" transform="matrix(12,0,0,12,580.2,272.1)" />
<use xlink:href="#f2_q" transform="matrix(12,0,0,12,590.6,272.1)" />
<use xlink:href="#f2_9" transform="matrix(12,0,0,12,427.9,293.5)" />
<use xlink:href="#f2_n" transform="matrix(12,0,0,12,445.8,293.5)" />
<use xlink:href="#f2_g" transform="matrix(12,0,0,12,458.7,293.5)" />
<use xlink:href="#f2_r" transform="matrix(12,0,0,12,471.2,293.5)" />
<use xlink:href="#f2_n" transform="matrix(12,0,0,12,483.3,293.5)" />
<use xlink:href="#f2_r" transform="matrix(12,0,0,12,496.3,293.5)" />
<use xlink:href="#f2_a" transform="matrix(12,0,0,12,508.2,293.5)" />
<use xlink:href="#f2_d" transform="matrix(12,0,0,12,520.5,293.5)" />
<use xlink:href="#f2_5" transform="matrix(12,0,0,12,525.5,293.5)" />
<use xlink:href="#f2_r" transform="matrix(12,0,0,12,535.2,293.5)" />
<use xlink:href="#f2_4" transform="matrix(12,0,0,12,547.2,293.5)" />
<use xlink:href="#f2_4" transform="matrix(12,0,0,12,551.3,293.5)" />
<use xlink:href="#f2_e" transform="matrix(12,0,0,12,562.9,293.5)" />
<use xlink:href="#f2_6" transform="matrix(12,0,0,12,574.8,293.5)" />
<use xlink:href="#f2_9" transform="matrix(12,0,0,12,582.2,293.5)" />
<use xlink:href="#f2_f" transform="matrix(12,0,0,12,592.7,293.5)" />
<use xlink:href="#f3_1h" transform="matrix(11,0,0,11,399.8,293.5)" />
<use xlink:href="#f3_n" transform="matrix(11,0,0,11,411.9,293.5)" />
<use xlink:href="#f2_e" transform="matrix(12,0,0,12,137.7,293.5)" />
<use xlink:href="#f2_i" transform="matrix(12,0,0,12,149.6,293.5)" />
<use xlink:href="#f2_4" transform="matrix(12,0,0,12,162.5,293.5)" />
<use xlink:href="#f2_3" transform="matrix(12,0,0,12,166.7,293.5)" />
<use xlink:href="#f2_g" transform="matrix(12,0,0,12,177,293.5)" />
<use xlink:href="#f2_q" transform="matrix(12,0,0,12,189.5,293.5)" />
<use xlink:href="#f2_r" transform="matrix(12,0,0,12,209,293.5)" />
<use xlink:href="#f2_a" transform="matrix(12,0,0,12,221.1,293.5)" />
<use xlink:href="#f2_6" transform="matrix(12,0,0,12,226,293.5)" />
<use xlink:href="#f2_4" transform="matrix(12,0,0,12,233.3,293.5)" />
<use xlink:href="#f2_b" transform="matrix(12,0,0,12,237.4,293.5)" />
<use xlink:href="#f2_g" transform="matrix(12,0,0,12,247.4,293.5)" />
<use xlink:href="#f2_r" transform="matrix(12,0,0,12,267.3,293.5)" />
<use xlink:href="#f2_4" transform="matrix(12,0,0,12,279.4,293.5)" />
<use xlink:href="#f2_9" transform="matrix(12,0,0,12,283.5,293.5)" />
<use xlink:href="#f2_3" transform="matrix(12,0,0,12,294,293.5)" />
<use xlink:href="#f2_g" transform="matrix(12,0,0,12,304.3,293.5)" />
<use xlink:href="#f2_9" transform="matrix(12,0,0,12,316.8,293.5)" />
<use xlink:href="#f2_7" transform="matrix(12,0,0,12,334.9,293.5)" />
<use xlink:href="#f2_f" transform="matrix(12,0,0,12,340.7,293.5)" />
<use xlink:href="#f2_f" transform="matrix(12,0,0,12,351.1,293.5)" />
<use xlink:href="#f2_5" transform="matrix(12,0,0,12,361.5,293.5)" />
<use xlink:href="#f2_5" transform="matrix(12,0,0,12,371.1,293.5)" />
<use xlink:href="#f2_o" transform="matrix(12,0,0,12,388.1,293.5)" />
<use xlink:href="#f2_o" transform="matrix(12,0,0,12,393.9,293.5)" />
<use xlink:href="#f2_e" transform="matrix(12,0,0,12,366,314.9)" />
<use xlink:href="#f2_3" transform="matrix(12,0,0,12,378,314.9)" />
<use xlink:href="#f2_a" transform="matrix(12,0,0,12,388.3,314.9)" />
<use xlink:href="#f2_p" transform="matrix(12,0,0,12,393.4,314.9)" />
<use xlink:href="#f2_9" transform="matrix(12,0,0,12,404.2,314.9)" />
<use xlink:href="#f2_r" transform="matrix(12,0,0,12,424.3,314.9)" />
<use xlink:href="#f2_a" transform="matrix(12,0,0,12,436.4,314.9)" />
<use xlink:href="#f2_6" transform="matrix(12,0,0,12,441.4,314.9)" />
<use xlink:href="#f2_j" transform="matrix(12,0,0,12,448.7,314.9)" />
<use xlink:href="#f2_f" transform="matrix(12,0,0,12,460.2,314.9)" />
<use xlink:href="#f2_f" transform="matrix(12,0,0,12,480.3,314.9)" />
<use xlink:href="#f2_9" transform="matrix(12,0,0,12,490.7,314.9)" />
<use xlink:href="#f2_a" transform="matrix(12,0,0,12,501.2,314.9)" />
<use xlink:href="#f2_i" transform="matrix(12,0,0,12,506.1,314.9)" />
<use xlink:href="#f2_g" transform="matrix(12,0,0,12,519.1,314.9)" />
<use xlink:href="#f2_r" transform="matrix(12,0,0,12,541.2,314.9)" />
<use xlink:href="#f2_4" transform="matrix(12,0,0,12,553.3,314.9)" />
<use xlink:href="#f2_6" transform="matrix(12,0,0,12,557.4,314.9)" />
<use xlink:href="#f2_4" transform="matrix(12,0,0,12,564.7,314.9)" />
<use xlink:href="#f2_x" transform="matrix(12,0,0,12,568.8,314.9)" />
<use xlink:href="#f2_f" transform="matrix(12,0,0,12,580.7,314.9)" />
<use xlink:href="#f2_e" transform="matrix(12,0,0,12,591.1,314.9)" />
<use xlink:href="#f3_9" transform="matrix(11,0,0,11,343,314.9)" />
<use xlink:href="#f3_1g" transform="matrix(11,0,0,11,347.7,314.9)" />
<use xlink:href="#f2_7" transform="matrix(12,0,0,12,137.5,314.9)" />
<use xlink:href="#f2_8" transform="matrix(12,0,0,12,143.3,314.9)" />
<use xlink:href="#f2_4" transform="matrix(12,0,0,12,155.5,314.9)" />
<use xlink:href="#f2_3" transform="matrix(12,0,0,12,159.6,314.9)" />
<use xlink:href="#f2_s" transform="matrix(12,0,0,12,170,314.9)" />
<use xlink:href="#f2_a" transform="matrix(12,0,0,12,177.5,314.9)" />
<use xlink:href="#f2_9" transform="matrix(12,0,0,12,182.5,314.9)" />
<use xlink:href="#f2_g" transform="matrix(12,0,0,12,192.9,314.9)" />
<use xlink:href="#f2_8" transform="matrix(12,0,0,12,215.2,314.9)" />
<use xlink:href="#f2_4" transform="matrix(12,0,0,12,227.4,314.9)" />
<use xlink:href="#f2_n" transform="matrix(12,0,0,12,231.5,314.9)" />
<use xlink:href="#f2_6" transform="matrix(12,0,0,12,244.5,314.9)" />
<use xlink:href="#f2_q" transform="matrix(12,0,0,12,251.8,314.9)" />
<use xlink:href="#f2_f" transform="matrix(12,0,0,12,264,314.9)" />
<use xlink:href="#f2_b" transform="matrix(12,0,0,12,284,314.9)" />
<use xlink:href="#f2_9" transform="matrix(12,0,0,12,294.1,314.9)" />
<use xlink:href="#f2_f" transform="matrix(12,0,0,12,304.6,314.9)" />
<use xlink:href="#f2_g" transform="matrix(12,0,0,12,314.9,314.9)" />
<use xlink:href="#f2_7" transform="matrix(12,0,0,12,337.1,314.9)" />
<use xlink:href="#f2_o" transform="matrix(12,0,0,12,375.4,336.3)" />
<use xlink:href="#f2_r" transform="matrix(12,0,0,12,381.2,336.3)" />
<use xlink:href="#f2_a" transform="matrix(12,0,0,12,393.2,336.3)" />
<use xlink:href="#f2_3" transform="matrix(12,0,0,12,398.3,336.3)" />
<use xlink:href="#f2_c" transform="matrix(12,0,0,12,408.6,336.3)" />
<use xlink:href="#f2_q" transform="matrix(12,0,0,12,420.5,336.3)" />
<use xlink:href="#f2_r" transform="matrix(12,0,0,12,438.6,336.3)" />
<use xlink:href="#f2_a" transform="matrix(12,0,0,12,450.6,336.3)" />
<use xlink:href="#f2_4" transform="matrix(12,0,0,12,455.7,336.3)" />
<use xlink:href="#f2_r" transform="matrix(12,0,0,12,459.6,336.3)" />
<use xlink:href="#f2_a" transform="matrix(12,0,0,12,471.7,336.3)" />
<use xlink:href="#f2_5" transform="matrix(12,0,0,12,476.7,336.3)" />
<use xlink:href="#f2_g" transform="matrix(12,0,0,12,486.3,336.3)" />
<use xlink:href="#f2_l" transform="matrix(12,0,0,12,498.8,336.3)" />
<use xlink:href="#f2_r" transform="matrix(12,0,0,12,516.5,336.3)" />
<use xlink:href="#f2_a" transform="matrix(12,0,0,12,528.6,336.3)" />
<use xlink:href="#f2_4" transform="matrix(12,0,0,12,533.5,336.3)" />
<use xlink:href="#f2_a" transform="matrix(12,0,0,12,537.6,336.3)" />
<use xlink:href="#f2_g" transform="matrix(12,0,0,12,542.5,336.3)" />
<use xlink:href="#f2_b" transform="matrix(12,0,0,12,555,336.3)" />
<use xlink:href="#f2_a" transform="matrix(12,0,0,12,564.9,336.3)" />
<use xlink:href="#f2_e" transform="matrix(12,0,0,12,575.9,336.3)" />
<use xlink:href="#f2_3" transform="matrix(12,0,0,12,587.8,336.3)" />
<use xlink:href="#f2_x" transform="matrix(12,0,0,12,598.2,336.3)" />
<use xlink:href="#f2_n" transform="matrix(12,0,0,12,610.1,336.3)" />
<use xlink:href="#f2_g" transform="matrix(12,0,0,12,622.9,336.3)" />
<use xlink:href="#f2_4" transform="matrix(12,0,0,12,641.2,336.3)" />
<use xlink:href="#f2_n" transform="matrix(12,0,0,12,645.4,336.3)" />
<use xlink:href="#f2_6" transform="matrix(12,0,0,12,658.3,336.3)" />
<use xlink:href="#f2_q" transform="matrix(12,0,0,12,665.7,336.3)" />
<use xlink:href="#f2_7" transform="matrix(12,0,0,12,683.8,336.3)" />
<use xlink:href="#f2_8" transform="matrix(12,0,0,12,689.6,336.3)" />
<use xlink:href="#f2_4" transform="matrix(12,0,0,12,701.7,336.3)" />
<use xlink:href="#f2_3" transform="matrix(12,0,0,12,705.8,336.3)" />
<use xlink:href="#f2_5" transform="matrix(12,0,0,12,716.2,336.3)" />
<use xlink:href="#f2_a" transform="matrix(12,0,0,12,725.8,336.3)" />
<use xlink:href="#f2_g" transform="matrix(12,0,0,12,730.8,336.3)" />
<use xlink:href="#f2_q" transform="matrix(12,0,0,12,749.2,336.3)" />
<use xlink:href="#f2_f" transform="matrix(12,0,0,12,761.4,336.3)" />
<use xlink:href="#f4_2" transform="matrix(16,0,0,16,696,582.8)" />
<use xlink:href="#f4_8" transform="matrix(16,0,0,16,711.6,582.8)" />
<use xlink:href="#f4_r" transform="matrix(16,0,0,16,718.3,582.8)" />
<use xlink:href="#f4_3" transform="matrix(16,0,0,16,730.2,582.8)" />
<use xlink:href="#f4_y" transform="matrix(16,0,0,16,744.4,582.8)" />
<use xlink:href="#f4_5" transform="matrix(16,0,0,16,758,582.8)" />
<use xlink:href="#f4_n" transform="matrix(16,0,0,16,656.9,582.8)" />
<use xlink:href="#f4_k" transform="matrix(16,0,0,16,666.7,582.8)" />
<use xlink:href="#f4_u" transform="matrix(16,0,0,16,678,582.8)" />
<use xlink:href="#f4_9" transform="matrix(16,0,0,16,644.4,582.8)" />
<use xlink:href="#f4_k" transform="matrix(16,0,0,16,584.2,582.8)" />
<use xlink:href="#f4_n" transform="matrix(16,0,0,16,595.3,582.8)" />
<use xlink:href="#f4_w" transform="matrix(16,0,0,16,605.2,582.8)" />
<use xlink:href="#f4_d" transform="matrix(16,0,0,16,613.6,582.8)" />
<use xlink:href="#f4_u" transform="matrix(16,0,0,16,626.3,582.8)" />
<use xlink:href="#f2_o" transform="matrix(12,0,0,12,172.3,605.2)" />
<use xlink:href="#f2_r" transform="matrix(12,0,0,12,178.1,605.2)" />
<use xlink:href="#f2_4" transform="matrix(12,0,0,12,190.2,605.2)" />
<use xlink:href="#f2_b" transform="matrix(12,0,0,12,194.2,605.2)" />
<use xlink:href="#f2_3" transform="matrix(12,0,0,12,204.2,605.2)" />
<use xlink:href="#f2_j" transform="matrix(12,0,0,12,214.6,605.2)" />
<use xlink:href="#f2_l" transform="matrix(12,0,0,12,226.1,605.2)" />
<use xlink:href="#f2_9" transform="matrix(12,0,0,12,237.8,605.2)" />
<use xlink:href="#f2_a" transform="matrix(12,0,0,12,248.4,605.2)" />
<use xlink:href="#f2_r" transform="matrix(12,0,0,12,259.5,605.2)" />
<use xlink:href="#f2_4" transform="matrix(12,0,0,12,271.5,605.2)" />
<use xlink:href="#f2_f" transform="matrix(12,0,0,12,275.6,605.2)" />
<use xlink:href="#f2_s" transform="matrix(12,0,0,12,286,605.2)" />
<use xlink:href="#f2_6" transform="matrix(12,0,0,12,293.5,605.2)" />
<use xlink:href="#f2_q" transform="matrix(12,0,0,12,300.8,605.2)" />
<use xlink:href="#f2_9" transform="matrix(12,0,0,12,313.1,605.2)" />
<use xlink:href="#f2_8" transform="matrix(12,0,0,12,329.4,605.2)" />
<use xlink:href="#f2_4" transform="matrix(12,0,0,12,341.5,605.2)" />
<use xlink:href="#f2_g" transform="matrix(12,0,0,12,345.6,605.2)" />
<use xlink:href="#f2_4" transform="matrix(12,0,0,12,358.1,605.2)" />
<use xlink:href="#f2_4" transform="matrix(12,0,0,12,362.2,605.2)" />
<use xlink:href="#f2_i" transform="matrix(12,0,0,12,366.3,605.2)" />
<use xlink:href="#f2_t" transform="matrix(12,0,0,12,385.1,605.2)" />
<use xlink:href="#f2_q" transform="matrix(12,0,0,12,394.9,605.2)" />
<use xlink:href="#f2_7" transform="matrix(12,0,0,12,413,605.2)" />
<use xlink:href="#f2_r" transform="matrix(12,0,0,12,418.8,605.2)" />
<use xlink:href="#f2_4" transform="matrix(12,0,0,12,430.9,605.2)" />
<use xlink:href="#f2_3" transform="matrix(12,0,0,12,435,605.2)" />
<use xlink:href="#f2_9" transform="matrix(12,0,0,12,445.4,605.2)" />
<use xlink:href="#f2_m" transform="matrix(12,0,0,12,455.9,605.2)" />
<use xlink:href="#f2_e" transform="matrix(12,0,0,12,467.4,605.2)" />
<use xlink:href="#f2_e" transform="matrix(12,0,0,12,485.2,605.2)" />
<use xlink:href="#f2_j" transform="matrix(12,0,0,12,497.1,605.2)" />
<use xlink:href="#f2_n" transform="matrix(12,0,0,12,508.6,605.2)" />
<use xlink:href="#f2_9" transform="matrix(12,0,0,12,521.6,605.2)" />
<use xlink:href="#f2_8" transform="matrix(12,0,0,12,537.9,605.2)" />
<use xlink:href="#f2_4" transform="matrix(12,0,0,12,550.1,605.2)" />
<use xlink:href="#f2_g" transform="matrix(12,0,0,12,554.2,605.2)" />
<use xlink:href="#f2_4" transform="matrix(12,0,0,12,566.6,605.2)" />
<use xlink:href="#f2_4" transform="matrix(12,0,0,12,570.7,605.2)" />
<use xlink:href="#f2_i" transform="matrix(12,0,0,12,574.8,605.2)" />
<use xlink:href="#f2_q" transform="matrix(12,0,0,12,593.7,605.2)" />
<use xlink:href="#f2_f" transform="matrix(12,0,0,12,606,605.2)" />
<use xlink:href="#f2_v" transform="matrix(12,0,0,12,622.2,605.2)" />
<use xlink:href="#f2_r" transform="matrix(12,0,0,12,630.6,605.2)" />
<use xlink:href="#f2_a" transform="matrix(12,0,0,12,642.6,605.2)" />
<use xlink:href="#f2_4" transform="matrix(12,0,0,12,647.6,605.2)" />
<use xlink:href="#f2_e" transform="matrix(12,0,0,12,651.7,605.2)" />
<use xlink:href="#f2_f" transform="matrix(12,0,0,12,663.7,605.2)" />
<use xlink:href="#f2_v" transform="matrix(12,0,0,12,674.1,605.2)" />
<use xlink:href="#f2_3" transform="matrix(12,0,0,12,688.3,605.2)" />
<use xlink:href="#f2_h" transform="matrix(12,0,0,12,698.6,605.2)" />
<use xlink:href="#f2_m" transform="matrix(12,0,0,12,705,605.2)" />
<use xlink:href="#f2_e" transform="matrix(12,0,0,12,716.5,605.2)" />
<use xlink:href="#f2_4" transform="matrix(12,0,0,12,734.2,605.2)" />
<use xlink:href="#f2_f" transform="matrix(12,0,0,12,738.3,605.2)" />
<use xlink:href="#f2_m" transform="matrix(12,0,0,12,748.7,605.2)" />
<use xlink:href="#f2_j" transform="matrix(12,0,0,12,760.2,605.2)" />
<use xlink:href="#f2_10" transform="matrix(12,0,0,12,576.3,626.5)" />
<use xlink:href="#f2_4" transform="matrix(12,0,0,12,596.2,626.5)" />
<use xlink:href="#f2_6" transform="matrix(12,0,0,12,600.3,626.5)" />
<use xlink:href="#f2_q" transform="matrix(12,0,0,12,607.7,626.5)" />
<use xlink:href="#f2_v" transform="matrix(12,0,0,12,619.9,626.5)" />
<use xlink:href="#f2_x" transform="matrix(12,0,0,12,641,626.5)" />
<use xlink:href="#f2_j" transform="matrix(12,0,0,12,652.9,626.5)" />
<use xlink:href="#f2_n" transform="matrix(12,0,0,12,664.3,626.5)" />
<use xlink:href="#f2_g" transform="matrix(12,0,0,12,677.3,626.5)" />
<use xlink:href="#f2_f" transform="matrix(12,0,0,12,689.8,626.5)" />
<use xlink:href="#f2_8" transform="matrix(12,0,0,12,712.8,626.5)" />
<use xlink:href="#f2_a" transform="matrix(12,0,0,12,725,626.5)" />
<use xlink:href="#f2_s" transform="matrix(12,0,0,12,730,626.5)" />
<use xlink:href="#f2_3" transform="matrix(12,0,0,12,737.5,626.5)" />
<use xlink:href="#f2_r" transform="matrix(12,0,0,12,747.9,626.5)" />
<use xlink:href="#f2_e" transform="matrix(12,0,0,12,759.9,626.5)" />
<use xlink:href="#f0_9" transform="matrix(12,0,0,12,541.6,626.5)" />
<use xlink:href="#f0_i" transform="matrix(12,0,0,12,547,626.5)" />
<use xlink:href="#f0_i" transform="matrix(12,0,0,12,555.2,626.5)" />
<use xlink:href="#f0_l" transform="matrix(12,0,0,12,563.5,626.5)" />
<use xlink:href="#f2_r" transform="matrix(12,0,0,12,347.1,626.5)" />
<use xlink:href="#f2_4" transform="matrix(12,0,0,12,359.1,626.5)" />
<use xlink:href="#f2_f" transform="matrix(12,0,0,12,363.2,626.5)" />
<use xlink:href="#f2_s" transform="matrix(12,0,0,12,373.6,626.5)" />
<use xlink:href="#f2_6" transform="matrix(12,0,0,12,381.1,626.5)" />
<use xlink:href="#f2_q" transform="matrix(12,0,0,12,388.4,626.5)" />
<use xlink:href="#f2_9" transform="matrix(12,0,0,12,400.7,626.5)" />
<use xlink:href="#f2_e" transform="matrix(12,0,0,12,424,626.5)" />
<use xlink:href="#f2_4" transform="matrix(12,0,0,12,435.9,626.5)" />
<use xlink:href="#f2_e" transform="matrix(12,0,0,12,440,626.5)" />
<use xlink:href="#f2_4" transform="matrix(12,0,0,12,452,626.5)" />
<use xlink:href="#f2_v" transform="matrix(12,0,0,12,468.9,626.5)" />
<use xlink:href="#f2_f" transform="matrix(12,0,0,12,477.3,626.5)" />
<use xlink:href="#f2_q" transform="matrix(12,0,0,12,487.7,626.5)" />
<use xlink:href="#f2_4" transform="matrix(12,0,0,12,499.9,626.5)" />
<use xlink:href="#f2_6" transform="matrix(12,0,0,12,504,626.5)" />
<use xlink:href="#f2_b" transform="matrix(12,0,0,12,511.3,626.5)" />
<use xlink:href="#f2_11" transform="matrix(12,0,0,12,534.1,626.5)" />
<use xlink:href="#f3_s" transform="matrix(11,0,0,11,238.6,626.5)" />
<use xlink:href="#f4_d" transform="matrix(11,0,0,11,255.3,626.5)" />
<use xlink:href="#f4_14" transform="matrix(11,0,0,11,263.7,626.5)" />
<use xlink:href="#f3_1i" transform="matrix(11,0,0,11,288.9,626.5)" />
<use xlink:href="#f3_2" transform="matrix(11,0,0,11,301,626.5)" />
<use xlink:href="#f3_8" transform="matrix(11,0,0,11,308.4,626.5)" />
<use xlink:href="#f3_4" transform="matrix(11,0,0,11,316.8,626.5)" />
<use xlink:href="#f3_a" transform="matrix(11,0,0,11,321.4,626.5)" />
<use xlink:href="#f3_e" transform="matrix(11,0,0,11,328.9,626.5)" />
<use xlink:href="#f2_r" transform="matrix(12,0,0,12,150.6,626.5)" />
<use xlink:href="#f2_4" transform="matrix(12,0,0,12,162.7,626.5)" />
<use xlink:href="#f2_b" transform="matrix(12,0,0,12,166.6,626.5)" />
<use xlink:href="#f2_3" transform="matrix(12,0,0,12,176.7,626.5)" />
<use xlink:href="#f2_j" transform="matrix(12,0,0,12,187.1,626.5)" />
<use xlink:href="#f2_l" transform="matrix(12,0,0,12,198.5,626.5)" />
<use xlink:href="#f2_9" transform="matrix(12,0,0,12,210.4,626.5)" />
<use xlink:href="#f2_a" transform="matrix(12,0,0,12,221,626.5)" />
<use xlink:href="#f3_1j" transform="matrix(11,0,0,11,674.8,647.9)" />
<use xlink:href="#f3_i" transform="matrix(11,0,0,11,686.9,647.9)" />
<use xlink:href="#f4_n" transform="matrix(11,0,0,11,699.6,647.9)" />
<use xlink:href="#f4_m" transform="matrix(11,0,0,11,706.1,647.9)" />
<use xlink:href="#f4_j" transform="matrix(11,0,0,11,714.5,647.9)" />
<use xlink:href="#f3_1i" transform="matrix(11,0,0,11,727.1,647.9)" />
<use xlink:href="#f3_2" transform="matrix(11,0,0,11,739.1,647.9)" />
<use xlink:href="#f3_8" transform="matrix(11,0,0,11,746.6,647.9)" />
<use xlink:href="#f3_4" transform="matrix(11,0,0,11,755,647.9)" />
<use xlink:href="#f3_a" transform="matrix(11,0,0,11,759.7,647.9)" />
<use xlink:href="#f3_e" transform="matrix(11,0,0,11,767.2,647.9)" />
<use xlink:href="#f2_o" transform="matrix(12,0,0,12,669.2,647.9)" />
<use xlink:href="#f2_10" transform="matrix(12,0,0,12,389.3,688.7)" />
<use xlink:href="#f2_b" transform="matrix(12,0,0,12,404.5,688.7)" />
<use xlink:href="#f2_c" transform="matrix(12,0,0,12,414.6,688.7)" />
<use xlink:href="#f2_q" transform="matrix(12,0,0,12,426.5,688.7)" />
<use xlink:href="#f2_r" transform="matrix(12,0,0,12,446.9,688.7)" />
<use xlink:href="#f2_4" transform="matrix(12,0,0,12,459,688.7)" />
<use xlink:href="#f2_f" transform="matrix(12,0,0,12,463.1,688.7)" />
<use xlink:href="#f2_s" transform="matrix(12,0,0,12,473.5,688.7)" />
<use xlink:href="#f2_6" transform="matrix(12,0,0,12,480.9,688.7)" />
<use xlink:href="#f2_q" transform="matrix(12,0,0,12,488.3,688.7)" />
<use xlink:href="#f2_9" transform="matrix(12,0,0,12,500.5,688.7)" />
<use xlink:href="#f2_a" transform="matrix(12,0,0,12,511,688.7)" />
<use xlink:href="#f2_7" transform="matrix(12,0,0,12,524,688.7)" />
<use xlink:href="#f2_3" transform="matrix(12,0,0,12,529.8,688.7)" />
<use xlink:href="#f2_h" transform="matrix(12,0,0,12,540.2,688.7)" />
<use xlink:href="#f2_m" transform="matrix(12,0,0,12,546.6,688.7)" />
<use xlink:href="#f2_4" transform="matrix(12,0,0,12,565.9,688.7)" />
<use xlink:href="#f2_f" transform="matrix(12,0,0,12,570,688.7)" />
<use xlink:href="#f2_m" transform="matrix(12,0,0,12,580.4,688.7)" />
<use xlink:href="#f2_j" transform="matrix(12,0,0,12,591.9,688.7)" />
<use xlink:href="#f2_l" transform="matrix(12,0,0,12,611.4,688.7)" />
<use xlink:href="#f2_j" transform="matrix(12,0,0,12,623.3,688.7)" />
<use xlink:href="#f2_q" transform="matrix(12,0,0,12,634.8,688.7)" />
<use xlink:href="#f2_n" transform="matrix(12,0,0,12,655,688.7)" />
<use xlink:href="#f2_4" transform="matrix(12,0,0,12,668,688.7)" />
<use xlink:href="#f2_r" transform="matrix(12,0,0,12,680.2,688.7)" />
<use xlink:href="#f2_4" transform="matrix(12,0,0,12,692.2,688.7)" />
<use xlink:href="#f2_3" transform="matrix(12,0,0,12,696.3,688.7)" />
<use xlink:href="#f2_9" transform="matrix(12,0,0,12,706.7,688.7)" />
<use xlink:href="#f2_m" transform="matrix(12,0,0,12,717.3,688.7)" />
<use xlink:href="#f2_9" transform="matrix(12,0,0,12,728.7,688.7)" />
<use xlink:href="#f2_8" transform="matrix(12,0,0,12,747.2,688.7)" />
<use xlink:href="#f2_q" transform="matrix(12,0,0,12,759.4,688.7)" />
<use xlink:href="#f3_9" transform="matrix(11,0,0,11,353.7,688.7)" />
<use xlink:href="#f3_i" transform="matrix(11,0,0,11,358.3,688.7)" />
<use xlink:href="#f3_p" transform="matrix(11,0,0,11,373.1,688.7)" />
<use xlink:href="#f3_a" transform="matrix(11,0,0,11,381.5,688.7)" />
<use xlink:href="#f2_4" transform="matrix(12,0,0,12,137.8,688.7)" />
<use xlink:href="#f2_6" transform="matrix(12,0,0,12,141.9,688.7)" />
<use xlink:href="#f2_n" transform="matrix(12,0,0,12,149.2,688.7)" />
<use xlink:href="#f2_8" transform="matrix(12,0,0,12,170.3,688.7)" />
<use xlink:href="#f2_6" transform="matrix(12,0,0,12,182.4,688.7)" />
<use xlink:href="#f2_n" transform="matrix(12,0,0,12,189.7,688.7)" />
<use xlink:href="#f2_4" transform="matrix(12,0,0,12,202.7,688.7)" />
<use xlink:href="#f2_r" transform="matrix(12,0,0,12,214.9,688.7)" />
<use xlink:href="#f2_4" transform="matrix(12,0,0,12,226.9,688.7)" />
<use xlink:href="#f2_b" transform="matrix(12,0,0,12,230.9,688.7)" />
<use xlink:href="#f2_3" transform="matrix(12,0,0,12,240.9,688.7)" />
<use xlink:href="#f2_j" transform="matrix(12,0,0,12,251.3,688.7)" />
<use xlink:href="#f2_l" transform="matrix(12,0,0,12,262.8,688.7)" />
<use xlink:href="#f2_9" transform="matrix(12,0,0,12,274.7,688.7)" />
<use xlink:href="#f2_n" transform="matrix(12,0,0,12,285.2,688.7)" />
<use xlink:href="#f2_4" transform="matrix(12,0,0,12,306.3,688.7)" />
<use xlink:href="#f2_3" transform="matrix(12,0,0,12,310.4,688.7)" />
<use xlink:href="#f2_e" transform="matrix(12,0,0,12,320.7,688.7)" />
<use xlink:href="#f2_7" transform="matrix(12,0,0,12,340.6,688.7)" />
<use xlink:href="#f2_11" transform="matrix(12,0,0,12,346.4,688.7)" />
<use xlink:href="#f2_w" transform="matrix(12,0,0,12,694.7,710.1)" />
<use xlink:href="#f2_3" transform="matrix(12,0,0,12,700.8,710.1)" />
<use xlink:href="#f2_h" transform="matrix(12,0,0,12,711,710.1)" />
<use xlink:href="#f2_m" transform="matrix(12,0,0,12,717.4,710.1)" />
<use xlink:href="#f2_4" transform="matrix(12,0,0,12,734.7,710.1)" />
<use xlink:href="#f2_f" transform="matrix(12,0,0,12,738.8,710.1)" />
<use xlink:href="#f2_m" transform="matrix(12,0,0,12,749.2,710.1)" />
<use xlink:href="#f2_j" transform="matrix(12,0,0,12,760.6,710.1)" />
<use xlink:href="#f3_d" transform="matrix(11,0,0,11,663.1,710.1)" />
<use xlink:href="#f3_a" transform="matrix(11,0,0,11,669.5,710.1)" />
<use xlink:href="#f3_b" transform="matrix(11,0,0,11,676.9,710.1)" />
<use xlink:href="#f2_a" transform="matrix(12,0,0,12,652.4,710.1)" />
<use xlink:href="#f3_a" transform="matrix(11,0,0,11,614.6,710.1)" />
<use xlink:href="#f3_d" transform="matrix(11,0,0,11,622,710.1)" />
<use xlink:href="#f3_9" transform="matrix(11,0,0,11,628.5,710.1)" />
<use xlink:href="#f3_2" transform="matrix(11,0,0,11,633.2,710.1)" />
<use xlink:href="#f3_b" transform="matrix(11,0,0,11,640.7,710.1)" />
<use xlink:href="#f2_o" transform="matrix(12,0,0,12,609,710.1)" />
<use xlink:href="#f2_w" transform="matrix(12,0,0,12,648.5,750.8)" />
<use xlink:href="#f2_8" transform="matrix(12,0,0,12,654.6,750.8)" />
<use xlink:href="#f2_r" transform="matrix(12,0,0,12,666.7,750.8)" />
<use xlink:href="#f2_a" transform="matrix(12,0,0,12,678.8,750.8)" />
<use xlink:href="#f2_q" transform="matrix(12,0,0,12,683.8,750.8)" />
<use xlink:href="#f2_s" transform="matrix(12,0,0,12,701.9,750.8)" />
<use xlink:href="#f2_4" transform="matrix(12,0,0,12,709.4,750.8)" />
<use xlink:href="#f2_p" transform="matrix(12,0,0,12,713.5,750.8)" />
<use xlink:href="#f2_6" transform="matrix(12,0,0,12,724.4,750.8)" />
<use xlink:href="#f2_e" transform="matrix(12,0,0,12,737.7,750.8)" />
<use xlink:href="#f2_9" transform="matrix(12,0,0,12,749.6,750.8)" />
<use xlink:href="#f2_e" transform="matrix(12,0,0,12,760.1,750.8)" />
</g>
</g>
<path d="M258.6,774.8H555.4M128.6,800.2H555.4M128.6,820.3H555.4M128.6,840.4H555.4M128.6,860.5H555.4m-426.8,20H555.4M128.6,900.7H555.4m-426.8,20H555.4M128.9,799.8V921.1M259,774.4V921.1M356.3,774.4V921.1M555,774.4V921.1" class="g1_7" />
<g clip-path="url(#c0_7)">
<g fill="#000000" >
<use xlink:href="#f4_k" transform="matrix(14,0,0,14,365.1,795.2)" />
<use xlink:href="#f4_n" transform="matrix(14,0,0,14,374.6,795.2)" />
<use xlink:href="#f4_w" transform="matrix(14,0,0,14,382.9,795.2)" />
<use xlink:href="#f4_d" transform="matrix(14,0,0,14,390,795.2)" />
<use xlink:href="#f4_u" transform="matrix(14,0,0,14,400.7,795.2)" />
<use xlink:href="#f2_q" transform="matrix(12,0,0,12,415.9,795.2)" />
<use xlink:href="#f2_p" transform="matrix(12,0,0,12,428.1,795.2)" />
<use xlink:href="#f2_g" transform="matrix(12,0,0,12,438.9,795.2)" />
<use xlink:href="#f2_4" transform="matrix(12,0,0,12,451.4,795.2)" />
<use xlink:href="#f2_e" transform="matrix(12,0,0,12,455.6,795.2)" />
<use xlink:href="#f2_f" transform="matrix(12,0,0,12,467.5,795.2)" />
<use xlink:href="#f2_1a" transform="matrix(12,0,0,12,477.9,795.2)" />
<use xlink:href="#f2_r" transform="matrix(12,0,0,12,484,795.2)" />
<use xlink:href="#f2_a" transform="matrix(12,0,0,12,496,795.2)" />
<use xlink:href="#f2_4" transform="matrix(12,0,0,12,501,795.2)" />
<use xlink:href="#f2_e" transform="matrix(12,0,0,12,505.1,795.2)" />
<use xlink:href="#f2_f" transform="matrix(12,0,0,12,517.1,795.2)" />
<use xlink:href="#f4_n" transform="matrix(14,0,0,14,267.7,795.2)" />
<use xlink:href="#f4_k" transform="matrix(14,0,0,14,275.9,795.2)" />
<use xlink:href="#f4_u" transform="matrix(14,0,0,14,285.4,795.2)" />
<use xlink:href="#f2_r" transform="matrix(12,0,0,12,300.5,795.2)" />
<use xlink:href="#f2_a" transform="matrix(12,0,0,12,312.6,795.2)" />
<use xlink:href="#f2_4" transform="matrix(12,0,0,12,317.6,795.2)" />
<use xlink:href="#f2_e" transform="matrix(12,0,0,12,321.7,795.2)" />
<use xlink:href="#f2_f" transform="matrix(12,0,0,12,333.6,795.2)" />
<use xlink:href="#f3_a" transform="matrix(11,0,0,11,365.1,816.3)" />
<use xlink:href="#f3_d" transform="matrix(11,0,0,11,372.5,816.3)" />
<use xlink:href="#f3_9" transform="matrix(11,0,0,11,379,816.3)" />
<use xlink:href="#f3_i" transform="matrix(11,0,0,11,383.7,816.3)" />
<use xlink:href="#f3_z" transform="matrix(11,0,0,11,392.1,816.3)" />
<use xlink:href="#f3_d" transform="matrix(11,0,0,11,267.7,816.3)" />
<use xlink:href="#f3_i" transform="matrix(11,0,0,11,274.2,816.3)" />
<use xlink:href="#f3_z" transform="matrix(11,0,0,11,282.6,816.3)" />
<use xlink:href="#f3_z" transform="matrix(11,0,0,11,137.7,816.3)" />
<use xlink:href="#f3_i" transform="matrix(11,0,0,11,146.1,816.3)" />
<use xlink:href="#f3_a" transform="matrix(11,0,0,11,365.1,836.3)" />
<use xlink:href="#f3_d" transform="matrix(11,0,0,11,372.5,836.3)" />
<use xlink:href="#f3_9" transform="matrix(11,0,0,11,379,836.3)" />
<use xlink:href="#f3_x" transform="matrix(11,0,0,11,383.7,836.3)" />
<use xlink:href="#f3_d" transform="matrix(11,0,0,11,391.2,836.3)" />
<use xlink:href="#f3_a" transform="matrix(11,0,0,11,267.7,836.3)" />
<use xlink:href="#f3_b" transform="matrix(11,0,0,11,275.1,836.3)" />
<use xlink:href="#f3_a" transform="matrix(11,0,0,11,280.8,836.3)" />
<use xlink:href="#f3_d" transform="matrix(11,0,0,11,288.1,836.3)" />
<use xlink:href="#f3_9" transform="matrix(11,0,0,11,137.7,836.3)" />
<use xlink:href="#f3_1g" transform="matrix(11,0,0,11,142.4,836.3)" />
<use xlink:href="#f3_1b" transform="matrix(11,0,0,11,154.9,836.3)" />
<use xlink:href="#f3_3" transform="matrix(11,0,0,11,160.5,836.3)" />
<use xlink:href="#f3_i" transform="matrix(11,0,0,11,168.9,836.3)" />
<use xlink:href="#f3_d" transform="matrix(11,0,0,11,177.3,836.3)" />
<use xlink:href="#f3_1d" transform="matrix(11,0,0,11,183.9,836.3)" />
<use xlink:href="#f3_a" transform="matrix(11,0,0,11,365.1,856.5)" />
<use xlink:href="#f3_d" transform="matrix(11,0,0,11,372.5,856.5)" />
<use xlink:href="#f3_9" transform="matrix(11,0,0,11,379,856.5)" />
<use xlink:href="#f3_x" transform="matrix(11,0,0,11,383.7,856.5)" />
<use xlink:href="#f3_a" transform="matrix(11,0,0,11,267.7,856.5)" />
<use xlink:href="#f3_d" transform="matrix(11,0,0,11,275.1,856.5)" />
<use xlink:href="#f3_c" transform="matrix(11,0,0,11,137.7,856.5)" />
<use xlink:href="#f3_e" transform="matrix(11,0,0,11,145.1,856.5)" />
<use xlink:href="#f3_y" transform="matrix(11,0,0,11,149.7,856.5)" />
<use xlink:href="#f3_a" transform="matrix(11,0,0,11,154.4,856.5)" />
<use xlink:href="#f3_e" transform="matrix(11,0,0,11,161.9,856.5)" />
<use xlink:href="#f3_e" transform="matrix(11,0,0,11,166.5,856.5)" />
<use xlink:href="#f3_2" transform="matrix(11,0,0,11,171.2,856.5)" />
<use xlink:href="#f3_y" transform="matrix(11,0,0,11,178.7,856.5)" />
<use xlink:href="#f3_1h" transform="matrix(11,0,0,11,183.4,856.5)" />
<use xlink:href="#f3_n" transform="matrix(11,0,0,11,195.4,856.5)" />
<use xlink:href="#f3_1f" transform="matrix(11,0,0,11,203.8,856.5)" />
<use xlink:href="#f3_a" transform="matrix(11,0,0,11,365.1,876.5)" />
<use xlink:href="#f3_d" transform="matrix(11,0,0,11,372.5,876.5)" />
<use xlink:href="#f3_9" transform="matrix(11,0,0,11,379,876.5)" />
<use xlink:href="#f3_2" transform="matrix(11,0,0,11,383.7,876.5)" />
<use xlink:href="#f3_m" transform="matrix(11,0,0,11,391.1,876.5)" />
<use xlink:href="#f3_i" transform="matrix(11,0,0,11,404.2,876.5)" />
<use xlink:href="#f3_d" transform="matrix(11,0,0,11,412.6,876.5)" />
<use xlink:href="#f3_d" transform="matrix(11,0,0,11,267.7,876.5)" />
<use xlink:href="#f3_i" transform="matrix(11,0,0,11,274.2,876.5)" />
<use xlink:href="#f3_m" transform="matrix(11,0,0,11,282.6,876.5)" />
<use xlink:href="#f3_i" transform="matrix(11,0,0,11,295.7,876.5)" />
<use xlink:href="#f3_d" transform="matrix(11,0,0,11,304.2,876.5)" />
<use xlink:href="#f3_8" transform="matrix(11,0,0,11,137.7,876.5)" />
<use xlink:href="#f3_i" transform="matrix(11,0,0,11,146.1,876.5)" />
<use xlink:href="#f3_d" transform="matrix(11,0,0,11,154.5,876.5)" />
<use xlink:href="#f3_i" transform="matrix(11,0,0,11,161,876.5)" />
<use xlink:href="#f3_9" transform="matrix(11,0,0,11,169.4,876.5)" />
<use xlink:href="#f3_b" transform="matrix(11,0,0,11,174,876.5)" />
<use xlink:href="#f3_i" transform="matrix(11,0,0,11,179.6,876.5)" />
<use xlink:href="#f3_d" transform="matrix(11,0,0,11,188,876.5)" />
<use xlink:href="#f3_y" transform="matrix(11,0,0,11,194.6,876.5)" />
<use xlink:href="#f3_2" transform="matrix(11,0,0,11,199.3,876.5)" />
<use xlink:href="#f3_d" transform="matrix(11,0,0,11,206.6,876.5)" />
<use xlink:href="#f3_a" transform="matrix(11,0,0,11,365.1,896.7)" />
<use xlink:href="#f3_d" transform="matrix(11,0,0,11,372.5,896.7)" />
<use xlink:href="#f3_9" transform="matrix(11,0,0,11,379,896.7)" />
<use xlink:href="#f3_x" transform="matrix(11,0,0,11,383.7,896.7)" />
<use xlink:href="#f3_8" transform="matrix(11,0,0,11,391.2,896.7)" />
<use xlink:href="#f3_d" transform="matrix(11,0,0,11,267.7,896.7)" />
<use xlink:href="#f3_i" transform="matrix(11,0,0,11,274.2,896.7)" />
<use xlink:href="#f3_8" transform="matrix(11,0,0,11,282.6,896.7)" />
<use xlink:href="#f3_a" transform="matrix(11,0,0,11,137.7,896.7)" />
<use xlink:href="#f3_e" transform="matrix(11,0,0,11,145.1,896.7)" />
<use xlink:href="#f3_e" transform="matrix(11,0,0,11,149.7,896.7)" />
<use xlink:href="#f3_i" transform="matrix(11,0,0,11,154.4,896.7)" />
<use xlink:href="#f3_d" transform="matrix(11,0,0,11,162.8,896.7)" />
<use xlink:href="#f3_y" transform="matrix(11,0,0,11,169.4,896.7)" />
<use xlink:href="#f3_a" transform="matrix(11,0,0,11,174.1,896.7)" />
<use xlink:href="#f3_e" transform="matrix(11,0,0,11,181.4,896.7)" />
<use xlink:href="#f3_e" transform="matrix(11,0,0,11,186.2,896.7)" />
<use xlink:href="#f3_2" transform="matrix(11,0,0,11,190.9,896.7)" />
<use xlink:href="#f3_d" transform="matrix(11,0,0,11,198.2,896.7)" />
<use xlink:href="#f3_y" transform="matrix(11,0,0,11,204.8,896.7)" />
<use xlink:href="#f3_1h" transform="matrix(11,0,0,11,209.5,896.7)" />
<use xlink:href="#f3_n" transform="matrix(11,0,0,11,221.5,896.7)" />
<use xlink:href="#f3_d" transform="matrix(11,0,0,11,229.9,896.7)" />
<use xlink:href="#f3_1f" transform="matrix(11,0,0,11,236.5,896.7)" />
<use xlink:href="#f3_a" transform="matrix(11,0,0,11,365.1,916.7)" />
<use xlink:href="#f3_d" transform="matrix(11,0,0,11,372.5,916.7)" />
<use xlink:href="#f3_9" transform="matrix(11,0,0,11,379,916.7)" />
<use xlink:href="#f3_x" transform="matrix(11,0,0,11,383.7,916.7)" />
<use xlink:href="#f3_4" transform="matrix(11,0,0,11,391.1,916.7)" />
<use xlink:href="#f3_d" transform="matrix(11,0,0,11,395.8,916.7)" />
<use xlink:href="#f3_d" transform="matrix(11,0,0,11,267.7,916.7)" />
<use xlink:href="#f3_i" transform="matrix(11,0,0,11,274.2,916.7)" />
<use xlink:href="#f3_4" transform="matrix(11,0,0,11,282.6,916.7)" />
<use xlink:href="#f3_d" transform="matrix(11,0,0,11,287.3,916.7)" />
<use xlink:href="#f3_3" transform="matrix(11,0,0,11,137.7,916.7)" />
<use xlink:href="#f3_i" transform="matrix(11,0,0,11,146.1,916.7)" />
<use xlink:href="#f3_d" transform="matrix(11,0,0,11,154.5,916.7)" />
<use xlink:href="#f3_i" transform="matrix(11,0,0,11,161,916.7)" />
<use xlink:href="#f3_9" transform="matrix(11,0,0,11,169.4,916.7)" />
<use xlink:href="#f3_b" transform="matrix(11,0,0,11,174,916.7)" />
<use xlink:href="#f3_i" transform="matrix(11,0,0,11,179.6,916.7)" />
<use xlink:href="#f3_d" transform="matrix(11,0,0,11,188,916.7)" />
<use xlink:href="#f3_y" transform="matrix(11,0,0,11,194.6,916.7)" />
<use xlink:href="#f3_2" transform="matrix(11,0,0,11,199.3,916.7)" />
<use xlink:href="#f3_d" transform="matrix(11,0,0,11,206.6,916.7)" />
<use xlink:href="#f2_9" transform="matrix(12,0,0,12,573.2,957.5)" />
<use xlink:href="#f2_n" transform="matrix(12,0,0,12,589.7,957.5)" />
<use xlink:href="#f2_g" transform="matrix(12,0,0,12,602.7,957.5)" />
<use xlink:href="#f2_r" transform="matrix(12,0,0,12,615.1,957.5)" />
<use xlink:href="#f2_n" transform="matrix(12,0,0,12,627.1,957.5)" />
<use xlink:href="#f2_e" transform="matrix(12,0,0,12,640.1,957.5)" />
<use xlink:href="#f2_f" transform="matrix(12,0,0,12,652,957.5)" />
<use xlink:href="#f2_8" transform="matrix(12,0,0,12,668.3,957.5)" />
<use xlink:href="#f2_q" transform="matrix(12,0,0,12,680.6,957.5)" />
<use xlink:href="#f2_r" transform="matrix(12,0,0,12,698.6,957.5)" />
<use xlink:href="#f2_m" transform="matrix(12,0,0,12,710.6,957.5)" />
<use xlink:href="#f2_b" transform="matrix(12,0,0,12,722.1,957.5)" />
<use xlink:href="#f2_f" transform="matrix(12,0,0,12,732,957.5)" />
<use xlink:href="#f2_4" transform="matrix(12,0,0,12,748.2,957.5)" />
<use xlink:href="#f2_b" transform="matrix(12,0,0,12,752.3,957.5)" />
<use xlink:href="#f2_5" transform="matrix(12,0,0,12,762.4,957.5)" />
<use xlink:href="#f3_d" transform="matrix(11,0,0,11,547.6,957.5)" />
<use xlink:href="#f3_a" transform="matrix(11,0,0,11,554,957.5)" />
<use xlink:href="#f3_b" transform="matrix(11,0,0,11,561.4,957.5)" />
<use xlink:href="#f2_9" transform="matrix(12,0,0,12,508.3,957.5)" />
<use xlink:href="#f2_a" transform="matrix(12,0,0,12,524.7,957.5)" />
<use xlink:href="#f2_q" transform="matrix(12,0,0,12,529.7,957.5)" />
<use xlink:href="#f3_a" transform="matrix(11,0,0,11,470.4,957.5)" />
<use xlink:href="#f3_d" transform="matrix(11,0,0,11,477.7,957.5)" />
<use xlink:href="#f3_9" transform="matrix(11,0,0,11,484.3,957.5)" />
<use xlink:href="#f3_2" transform="matrix(11,0,0,11,489,957.5)" />
<use xlink:href="#f3_b" transform="matrix(11,0,0,11,496.5,957.5)" />
<use xlink:href="#f2_o" transform="matrix(12,0,0,12,143,957.5)" />
<use xlink:href="#f2_4" transform="matrix(12,0,0,12,148.8,957.5)" />
<use xlink:href="#f2_b" transform="matrix(12,0,0,12,152.9,957.5)" />
<use xlink:href="#f2_4" transform="matrix(12,0,0,12,162.9,957.5)" />
<use xlink:href="#f2_g" transform="matrix(12,0,0,12,167,957.5)" />
<use xlink:href="#f2_r" transform="matrix(12,0,0,12,179.3,957.5)" />
<use xlink:href="#f2_a" transform="matrix(12,0,0,12,197.4,957.5)" />
<use xlink:href="#f2_q" transform="matrix(12,0,0,12,202.3,957.5)" />
<use xlink:href="#f2_4" transform="matrix(12,0,0,12,220.4,957.5)" />
<use xlink:href="#f2_6" transform="matrix(12,0,0,12,224.4,957.5)" />
<use xlink:href="#f2_g" transform="matrix(12,0,0,12,231.7,957.5)" />
<use xlink:href="#f2_h" transform="matrix(12,0,0,12,244.2,957.5)" />
<use xlink:href="#f2_9" transform="matrix(12,0,0,12,256.4,957.5)" />
<use xlink:href="#f2_p" transform="matrix(12,0,0,12,267,957.5)" />
<use xlink:href="#f2_g" transform="matrix(12,0,0,12,277.8,957.5)" />
<use xlink:href="#f2_9" transform="matrix(12,0,0,12,290.3,957.5)" />
<use xlink:href="#f2_3" transform="matrix(12,0,0,12,306.7,957.5)" />
<use xlink:href="#f2_9" transform="matrix(12,0,0,12,317.1,957.5)" />
<use xlink:href="#f2_a" transform="matrix(12,0,0,12,327.6,957.5)" />
<use xlink:href="#f2_b" transform="matrix(12,0,0,12,332.6,957.5)" />
<use xlink:href="#f2_g" transform="matrix(12,0,0,12,342.6,957.5)" />
<use xlink:href="#f2_8" transform="matrix(12,0,0,12,360.9,957.5)" />
<use xlink:href="#f2_q" transform="matrix(12,0,0,12,373.1,957.5)" />
<use xlink:href="#f2_m" transform="matrix(12,0,0,12,391.3,957.5)" />
<use xlink:href="#f2_a" transform="matrix(12,0,0,12,402.7,957.5)" />
<use xlink:href="#f2_9" transform="matrix(12,0,0,12,407.8,957.5)" />
<use xlink:href="#f2_i" transform="matrix(12,0,0,12,418.3,957.5)" />
<use xlink:href="#f2_f" transform="matrix(12,0,0,12,431.3,957.5)" />
<use xlink:href="#f2_n" transform="matrix(12,0,0,12,447.5,957.5)" />
<use xlink:href="#f2_4" transform="matrix(12,0,0,12,460.5,957.5)" />
<use xlink:href="#f3_d" transform="matrix(11,0,0,11,752.3,978.8)" />
<use xlink:href="#f3_a" transform="matrix(11,0,0,11,758.8,978.8)" />
<use xlink:href="#f3_b" transform="matrix(11,0,0,11,766.3,978.8)" />
<use xlink:href="#f2_b" transform="matrix(12,0,0,12,483.5,978.8)" />
<use xlink:href="#f2_a" transform="matrix(12,0,0,12,493.6,978.8)" />
<use xlink:href="#f2_m" transform="matrix(12,0,0,12,498.6,978.8)" />
<use xlink:href="#f2_9" transform="matrix(12,0,0,12,510.1,978.8)" />
<use xlink:href="#f2_r" transform="matrix(12,0,0,12,526.4,978.8)" />
<use xlink:href="#f2_a" transform="matrix(12,0,0,12,538.5,978.8)" />
<use xlink:href="#f2_9" transform="matrix(12,0,0,12,543.5,978.8)" />
<use xlink:href="#f2_4" transform="matrix(12,0,0,12,554.1,978.8)" />
<use xlink:href="#f2_p" transform="matrix(12,0,0,12,558.2,978.8)" />
<use xlink:href="#f2_4" transform="matrix(12,0,0,12,569,978.8)" />
<use xlink:href="#f2_d" transform="matrix(12,0,0,12,578.9,978.8)" />
<use xlink:href="#f2_4" transform="matrix(12,0,0,12,584,978.8)" />
<use xlink:href="#f2_4" transform="matrix(12,0,0,12,587.9,978.8)" />
<use xlink:href="#f2_p" transform="matrix(12,0,0,12,592,978.8)" />
<use xlink:href="#f2_g" transform="matrix(12,0,0,12,602.9,978.8)" />
<use xlink:href="#f2_e" transform="matrix(12,0,0,12,615.4,978.8)" />
<use xlink:href="#f2_3" transform="matrix(12,0,0,12,633.1,978.8)" />
<use xlink:href="#f2_h" transform="matrix(12,0,0,12,643.5,978.8)" />
<use xlink:href="#f2_m" transform="matrix(12,0,0,12,649.9,978.8)" />
<use xlink:href="#f2_f" transform="matrix(12,0,0,12,667.2,978.8)" />
<use xlink:href="#f2_m" transform="matrix(12,0,0,12,677.6,978.8)" />
<use xlink:href="#f2_a" transform="matrix(12,0,0,12,689,978.8)" />
<use xlink:href="#f2_j" transform="matrix(12,0,0,12,694.1,978.8)" />
<use xlink:href="#f2_q" transform="matrix(12,0,0,12,711.3,978.8)" />
<use xlink:href="#f2_a" transform="matrix(12,0,0,12,723.5,978.8)" />
<use xlink:href="#f2_e" transform="matrix(12,0,0,12,728.6,978.8)" />
<use xlink:href="#f3_a" transform="matrix(11,0,0,11,445.8,978.8)" />
<use xlink:href="#f3_d" transform="matrix(11,0,0,11,453.3,978.8)" />
<use xlink:href="#f3_9" transform="matrix(11,0,0,11,459.8,978.8)" />
<use xlink:href="#f3_2" transform="matrix(11,0,0,11,464.4,978.8)" />
<use xlink:href="#f3_b" transform="matrix(11,0,0,11,471.9,978.8)" />
<use xlink:href="#f2_o" transform="matrix(12,0,0,12,287.1,978.8)" />
<use xlink:href="#f2_8" transform="matrix(12,0,0,12,292.9,978.8)" />
<use xlink:href="#f2_a" transform="matrix(12,0,0,12,305.1,978.8)" />
<use xlink:href="#f2_i" transform="matrix(12,0,0,12,310.1,978.8)" />
<use xlink:href="#f2_4" transform="matrix(12,0,0,12,323.1,978.8)" />
<use xlink:href="#f2_g" transform="matrix(12,0,0,12,327.1,978.8)" />
<use xlink:href="#f2_a" transform="matrix(12,0,0,12,339.6,978.8)" />
<use xlink:href="#f2_r" transform="matrix(12,0,0,12,350.4,978.8)" />
<use xlink:href="#f2_a" transform="matrix(12,0,0,12,362.5,978.8)" />
<use xlink:href="#f2_4" transform="matrix(12,0,0,12,367.4,978.8)" />
<use xlink:href="#f2_6" transform="matrix(12,0,0,12,371.5,978.8)" />
<use xlink:href="#f2_g" transform="matrix(12,0,0,12,378.8,978.8)" />
<use xlink:href="#f2_h" transform="matrix(12,0,0,12,391.2,978.8)" />
<use xlink:href="#f2_d" transform="matrix(12,0,0,12,403.5,978.8)" />
<use xlink:href="#f2_4" transform="matrix(12,0,0,12,408.4,978.8)" />
<use xlink:href="#f2_4" transform="matrix(12,0,0,12,412.5,978.8)" />
<use xlink:href="#f2_p" transform="matrix(12,0,0,12,416.6,978.8)" />
<use xlink:href="#f2_g" transform="matrix(12,0,0,12,427.5,978.8)" />
<use xlink:href="#f0_7" transform="matrix(12,0,0,12,701.6,1021.2)" />
<use xlink:href="#f0_8" transform="matrix(12,0,0,12,714.1,1021.2)" />
<use xlink:href="#f0_d" transform="matrix(12,0,0,12,720.3,1021.2)" />
<use xlink:href="#f0_j" transform="matrix(12,0,0,12,733.6,1021.2)" />
<use xlink:href="#f0_k" transform="matrix(12,0,0,12,746.9,1021.2)" />
<use xlink:href="#f0_8" transform="matrix(12,0,0,12,755,1021.2)" />
<use xlink:href="#f0_b" transform="matrix(12,0,0,12,761.3,1021.2)" />
<use xlink:href="#f1_2" transform="matrix(13,0,0,13,560.1,1021.2)" />
<use xlink:href="#f1_3" transform="matrix(13,0,0,13,575.2,1021.2)" />
<use xlink:href="#f1_4" transform="matrix(13,0,0,13,582.4,1021.2)" />
<use xlink:href="#f1_5" transform="matrix(13,0,0,13,595,1021.2)" />
<use xlink:href="#f1_6" transform="matrix(13,0,0,13,616.1,1021.2)" />
<use xlink:href="#f1_7" transform="matrix(13,0,0,13,630,1021.2)" />
<use xlink:href="#f1_8" transform="matrix(13,0,0,13,637.5,1021.2)" />
<use xlink:href="#f1_9" transform="matrix(13,0,0,13,650.7,1021.2)" />
<use xlink:href="#f2_11" transform="matrix(12,0,0,12,529.1,1062.3)" />
<use xlink:href="#f2_4" transform="matrix(12,0,0,12,536.1,1062.3)" />
<use xlink:href="#f2_b" transform="matrix(12,0,0,12,540.2,1062.3)" />
<use xlink:href="#f2_4" transform="matrix(12,0,0,12,550.3,1062.3)" />
<use xlink:href="#f2_g" transform="matrix(12,0,0,12,554.4,1062.3)" />
<use xlink:href="#f2_r" transform="matrix(12,0,0,12,566.7,1062.3)" />
<use xlink:href="#f2_10" transform="matrix(12,0,0,12,578.8,1062.3)" />
<use xlink:href="#f2_d" transform="matrix(12,0,0,12,591.8,1062.3)" />
<use xlink:href="#f2_q" transform="matrix(12,0,0,12,596.8,1062.3)" />
<use xlink:href="#f2_a" transform="matrix(12,0,0,12,609,1062.3)" />
<use xlink:href="#f2_c" transform="matrix(12,0,0,12,614,1062.3)" />
<use xlink:href="#f2_4" transform="matrix(12,0,0,12,631.8,1062.3)" />
<use xlink:href="#f2_6" transform="matrix(12,0,0,12,635.9,1062.3)" />
<use xlink:href="#f2_q" transform="matrix(12,0,0,12,643.2,1062.3)" />
<use xlink:href="#f3_s" transform="matrix(11,0,0,11,321.9,1060.9)" />
<use xlink:href="#f4_d" transform="matrix(11,0,0,11,331.7,1060.9)" />
<use xlink:href="#f4_14" transform="matrix(11,0,0,11,339.9,1060.9)" />
<use xlink:href="#f3_1k" transform="matrix(11,0,0,11,358.3,1060.9)" />
<use xlink:href="#f3_k" transform="matrix(11,0,0,11,364.8,1060.9)" />
<use xlink:href="#f3_2" transform="matrix(11,0,0,11,373.1,1060.9)" />
<use xlink:href="#f3_8" transform="matrix(11,0,0,11,380.5,1060.9)" />
<use xlink:href="#f3_z" transform="matrix(11,0,0,11,137.7,1060.9)" />
<use xlink:href="#f3_i" transform="matrix(11,0,0,11,146.1,1060.9)" />
<use xlink:href="#f4_n" transform="matrix(11,0,0,11,158.7,1060.9)" />
<use xlink:href="#f4_m" transform="matrix(11,0,0,11,165.3,1060.9)" />
<use xlink:href="#f4_j" transform="matrix(11,0,0,11,173.7,1060.9)" />
<use xlink:href="#f3_1k" transform="matrix(11,0,0,11,186.2,1060.9)" />
<use xlink:href="#f3_k" transform="matrix(11,0,0,11,192.8,1060.9)" />
<use xlink:href="#f3_2" transform="matrix(11,0,0,11,201.2,1060.9)" />
<use xlink:href="#f3_8" transform="matrix(11,0,0,11,208.6,1060.9)" />
<use xlink:href="#f2_11" transform="matrix(12,0,0,12,507.4,1083.7)" />
<use xlink:href="#f2_4" transform="matrix(12,0,0,12,514.5,1083.7)" />
<use xlink:href="#f2_b" transform="matrix(12,0,0,12,518.5,1083.7)" />
<use xlink:href="#f2_4" transform="matrix(12,0,0,12,528.6,1083.7)" />
<use xlink:href="#f2_g" transform="matrix(12,0,0,12,532.7,1083.7)" />
<use xlink:href="#f2_r" transform="matrix(12,0,0,12,545.1,1083.7)" />
<use xlink:href="#f2_10" transform="matrix(12,0,0,12,557.1,1083.7)" />
<use xlink:href="#f2_4" transform="matrix(12,0,0,12,570.1,1083.7)" />
<use xlink:href="#f2_x" transform="matrix(12,0,0,12,574.2,1083.7)" />
<use xlink:href="#f2_j" transform="matrix(12,0,0,12,586.1,1083.7)" />
<use xlink:href="#f2_g" transform="matrix(12,0,0,12,597.5,1083.7)" />
<use xlink:href="#f2_4" transform="matrix(12,0,0,12,609.9,1083.7)" />
<use xlink:href="#f2_l" transform="matrix(12,0,0,12,614,1083.7)" />
<use xlink:href="#f2_4" transform="matrix(12,0,0,12,631.7,1083.7)" />
<use xlink:href="#f2_6" transform="matrix(12,0,0,12,635.8,1083.7)" />
<use xlink:href="#f2_q" transform="matrix(12,0,0,12,643.2,1083.7)" />
<use xlink:href="#f3_s" transform="matrix(11,0,0,11,321.9,1082.3)" />
<use xlink:href="#f4_d" transform="matrix(11,0,0,11,331.7,1082.3)" />
<use xlink:href="#f4_14" transform="matrix(11,0,0,11,339.9,1082.3)" />
<use xlink:href="#f3_8" transform="matrix(11,0,0,11,358.3,1082.3)" />
<use xlink:href="#f3_4" transform="matrix(11,0,0,11,366.5,1082.3)" />
<use xlink:href="#f3_l" transform="matrix(11,0,0,11,371.2,1082.3)" />
<use xlink:href="#f3_a" transform="matrix(11,0,0,11,378.7,1082.3)" />
<use xlink:href="#f3_z" transform="matrix(11,0,0,11,137.7,1082.3)" />
<use xlink:href="#f3_i" transform="matrix(11,0,0,11,146.1,1082.3)" />
<use xlink:href="#f4_n" transform="matrix(11,0,0,11,158.7,1082.3)" />
<use xlink:href="#f4_m" transform="matrix(11,0,0,11,165.3,1082.3)" />
<use xlink:href="#f4_j" transform="matrix(11,0,0,11,173.7,1082.3)" />
<use xlink:href="#f3_d" transform="matrix(11,0,0,11,186.2,1082.3)" />
<use xlink:href="#f3_4" transform="matrix(11,0,0,11,192.8,1082.3)" />
<use xlink:href="#f3_m" transform="matrix(11,0,0,11,197.4,1082.3)" />
<use xlink:href="#f3_t" transform="matrix(11,0,0,11,210.5,1082.3)" />
<use xlink:href="#f3_x" transform="matrix(11,0,0,11,218.9,1082.3)" />
<use xlink:href="#f3_9" transform="matrix(11,0,0,11,226.4,1082.3)" />
<use xlink:href="#f3_4" transform="matrix(11,0,0,11,230.9,1082.3)" />
<use xlink:href="#f3_l" transform="matrix(11,0,0,11,235.7,1082.3)" />
<use xlink:href="#f3_i" transform="matrix(11,0,0,11,243.1,1082.3)" />
<use xlink:href="#f2_11" transform="matrix(12,0,0,12,537.8,1105)" />
<use xlink:href="#f2_4" transform="matrix(12,0,0,12,544.9,1105)" />
<use xlink:href="#f2_6" transform="matrix(12,0,0,12,548.9,1105)" />
<use xlink:href="#f2_g" transform="matrix(12,0,0,12,556.3,1105)" />
<use xlink:href="#f2_h" transform="matrix(12,0,0,12,568.8,1105)" />
<use xlink:href="#f2_10" transform="matrix(12,0,0,12,575,1105)" />
<use xlink:href="#f2_9" transform="matrix(12,0,0,12,588.2,1105)" />
<use xlink:href="#f2_a" transform="matrix(12,0,0,12,598.7,1105)" />
<use xlink:href="#f2_p" transform="matrix(12,0,0,12,603.7,1105)" />
<use xlink:href="#f2_m" transform="matrix(12,0,0,12,614.6,1105)" />
<use xlink:href="#f2_4" transform="matrix(12,0,0,12,631.8,1105)" />
<use xlink:href="#f2_6" transform="matrix(12,0,0,12,636,1105)" />
<use xlink:href="#f2_q" transform="matrix(12,0,0,12,643.3,1105)" />
<use xlink:href="#f3_s" transform="matrix(11,0,0,11,321.9,1103.7)" />
<use xlink:href="#f4_d" transform="matrix(11,0,0,11,331.7,1103.7)" />
<use xlink:href="#f4_14" transform="matrix(11,0,0,11,339.9,1103.7)" />
<use xlink:href="#f3_d" transform="matrix(11,0,0,11,358.3,1103.7)" />
<use xlink:href="#f3_2" transform="matrix(11,0,0,11,364.7,1103.7)" />
<use xlink:href="#f3_n" transform="matrix(11,0,0,11,372.1,1103.7)" />
<use xlink:href="#f3_z" transform="matrix(11,0,0,11,137.7,1103.7)" />
<use xlink:href="#f3_i" transform="matrix(11,0,0,11,146.1,1103.7)" />
<use xlink:href="#f4_k" transform="matrix(11,0,0,11,158.7,1103.7)" />
<use xlink:href="#f4_n" transform="matrix(11,0,0,11,166.1,1103.7)" />
<use xlink:href="#f4_w" transform="matrix(11,0,0,11,172.6,1103.7)" />
<use xlink:href="#f4_m" transform="matrix(11,0,0,11,178.2,1103.7)" />
<use xlink:href="#f4_j" transform="matrix(11,0,0,11,186.7,1103.7)" />
<use xlink:href="#f3_9" transform="matrix(11,0,0,11,199.4,1103.7)" />
<use xlink:href="#f3_b" transform="matrix(11,0,0,11,204,1103.7)" />
<use xlink:href="#f3_4" transform="matrix(11,0,0,11,209.6,1103.7)" />
<use xlink:href="#f3_d" transform="matrix(11,0,0,11,214.2,1103.7)" />
<use xlink:href="#f3_9" transform="matrix(11,0,0,11,220.7,1103.7)" />
<use xlink:href="#f3_a" transform="matrix(11,0,0,11,225.4,1103.7)" />
<use xlink:href="#f2_11" transform="matrix(12,0,0,12,521.9,1126.4)" />
<use xlink:href="#f2_8" transform="matrix(12,0,0,12,529.1,1126.4)" />
<use xlink:href="#f2_a" transform="matrix(12,0,0,12,541.1,1126.4)" />
<use xlink:href="#f2_i" transform="matrix(12,0,0,12,546.1,1126.4)" />
<use xlink:href="#f2_4" transform="matrix(12,0,0,12,559.1,1126.4)" />
<use xlink:href="#f2_g" transform="matrix(12,0,0,12,563.2,1126.4)" />
<use xlink:href="#f2_10" transform="matrix(12,0,0,12,575.6,1126.4)" />
<use xlink:href="#f2_r" transform="matrix(12,0,0,12,588.7,1126.4)" />
<use xlink:href="#f2_4" transform="matrix(12,0,0,12,600.8,1126.4)" />
<use xlink:href="#f2_9" transform="matrix(12,0,0,12,604.9,1126.4)" />
<use xlink:href="#f2_9" transform="matrix(12,0,0,12,615.4,1126.4)" />
<use xlink:href="#f2_4" transform="matrix(12,0,0,12,631.8,1126.4)" />
<use xlink:href="#f2_6" transform="matrix(12,0,0,12,635.9,1126.4)" />
<use xlink:href="#f2_q" transform="matrix(12,0,0,12,643.2,1126.4)" />
<use xlink:href="#f3_s" transform="matrix(11,0,0,11,321.9,1125.1)" />
<use xlink:href="#f4_d" transform="matrix(11,0,0,11,331.7,1125.1)" />
<use xlink:href="#f4_14" transform="matrix(11,0,0,11,339.9,1125.1)" />
<use xlink:href="#f3_2" transform="matrix(11,0,0,11,358.3,1125.1)" />
<use xlink:href="#f3_9" transform="matrix(11,0,0,11,365.6,1125.1)" />
<use xlink:href="#f3_o" transform="matrix(11,0,0,11,374.6,1125.1)" />
<use xlink:href="#f3_i" transform="matrix(11,0,0,11,383,1125.1)" />
<use xlink:href="#f3_m" transform="matrix(11,0,0,11,391.2,1125.1)" />
<use xlink:href="#f3_a" transform="matrix(11,0,0,11,404.4,1125.1)" />
<use xlink:href="#f3_z" transform="matrix(11,0,0,11,137.7,1125.1)" />
<use xlink:href="#f3_i" transform="matrix(11,0,0,11,146.1,1125.1)" />
<use xlink:href="#f4_k" transform="matrix(11,0,0,11,158.7,1125.1)" />
<use xlink:href="#f4_n" transform="matrix(11,0,0,11,166.1,1125.1)" />
<use xlink:href="#f4_w" transform="matrix(11,0,0,11,172.6,1125.1)" />
<use xlink:href="#f4_m" transform="matrix(11,0,0,11,178.2,1125.1)" />
<use xlink:href="#f4_j" transform="matrix(11,0,0,11,186.7,1125.1)" />
<use xlink:href="#f3_a" transform="matrix(11,0,0,11,199.4,1125.1)" />
<use xlink:href="#f3_8" transform="matrix(11,0,0,11,206.8,1125.1)" />
<use xlink:href="#f3_e" transform="matrix(11,0,0,11,219.3,1125.1)" />
<use xlink:href="#f3_2" transform="matrix(11,0,0,11,224.1,1125.1)" />
<use xlink:href="#f3_l" transform="matrix(11,0,0,11,235.6,1125.1)" />
<use xlink:href="#f3_2" transform="matrix(11,0,0,11,243.1,1125.1)" />
<use xlink:href="#f3_d" transform="matrix(11,0,0,11,250.6,1125.1)" />
<use xlink:href="#f3_2" transform="matrix(11,0,0,11,257,1125.1)" />
<use xlink:href="#f2_1n" transform="matrix(12,0,0,12,137.7,1208.5)" />
</g>
</g>
<image preserveAspectRatio="none" x="617" y="169" width="143" height="145" xlink:href="img/2.png" />
<defs>
<path d="M66,0V178H507V449c0,0,0,43,-2,71c0,0,-3,28,-12,56c0,0,-9,28,-26,45c0,0,-17,16,-47,27c0,0,-29,10,-72,10H66V836H349c0,0,97,0,167,-17c0,0,71,-17,117,-49c0,0,46,-32,73,-84c0,0,27,-52,38,-114c0,0,11,-62,11,-147V178H866V0Z" 
id="f0_a"
transform="scale(0.001,-0.001)" />

<path d="M137,0L30,830H277L321,522c0,0,68,3,96,27c0,0,27,23,38,58c0,0,26,74,31,228H733c0,0,-31,-218,-70,-316c0,0,-23,-59,-88,-100c0,0,-54,-34,-116,-42c0,0,-62,-8,-117,-8L362,178c0,0,27,-1,61,-1c40,0,89,1,119,6c0,0,57,8,94,25c0,0,37,18,69,47c0,0,32,30,60,79c0,0,28,48,51,117c0,0,48,143,82,384h248c0,0,-53,-404,-172,-586C974,249,879,103,745,51C745,51,613,0,318,0Z" 
id="f0_q"
transform="scale(0.001,-0.001)" />

<path d="M129,0l69,362c0,0,10,56,12,100c0,0,0,84,-27,159c0,0,-27,76,-117,215H322c0,0,9,-6,31,-79c0,0,23,-72,23,-105c0,0,23,82,100,138c0,0,77,57,160,57c0,0,332,0,332,-397V0H538V177H721V449c0,0,0,124,-20,170c0,0,-20,47,-82,47c0,0,-23,0,-43,-9c0,0,-19,-10,-34,-23c0,0,-14,-14,-27,-39c0,0,-13,-25,-22,-46c0,0,-8,-22,-17,-57c0,0,-9,-36,-15,-61c0,0,-5,-24,-13,-65L375,0Z" 
id="f0_j"
transform="scale(0.001,-0.001)" />

<path d="M173,-6C173,-6,61,-6,15,9V177c0,0,73,-10,82,-10c0,0,37,0,52,30c0,0,14,29,14,116V658H18V836H516c0,0,262,0,341,-145c0,0,48,-89,48,-242V0H658V450c0,0,0,131,-37,171c0,0,-34,37,-105,37H411V313c0,0,0,-189,-67,-258C344,55,285,-6,173,-6Z" 
id="f0_7"
transform="scale(0.001,-0.001)" />

<path d="M153,0V437L399,539V0ZM664,0V450c0,0,0,122,-31,165c0,0,-31,43,-121,43H138V836H511c0,0,113,0,188,-22c0,0,75,-23,123,-73c0,0,47,-51,68,-127c0,0,20,-76,20,-189V0Z" 
id="f0_l"
transform="scale(0.001,-0.001)" />

<path d="M248,0L521,658H66v429H313V836l493,-1V716L504,0Z" 
id="f0_c"
transform="scale(0.001,-0.001)" />

<path d="M102,250V836H349V351L102,250Z" 
id="f0_9"
transform="scale(0.001,-0.001)" />

<path d="M171,0V288H440V0Zm0,548V836H440V548Z" 
id="f0_g"
transform="scale(0.001,-0.001)" />

<path d="M139,0V836H386V0Z" 
id="f0_8"
transform="scale(0.001,-0.001)" />

<path d="M534,0V425c0,0,0,109,-41,171c0,0,-41,62,-140,62H66V836H352c0,0,99,0,174,-20c0,0,75,-20,123,-55c0,0,48,-35,78,-87c0,0,30,-53,42,-113c0,0,12,-60,12,-136V0Z" 
id="f0_4"
transform="scale(0.001,-0.001)" />

<path d="M82,0V177H500L50,836H328L560,491c0,0,56,19,56,124V836H861V671c0,0,0,-116,-45,-192c0,0,-40,-68,-85,-90c0,0,-50,-26,-71,-26c0,0,-1,0,-1,0L838,96V0Z" 
id="f0_s"
transform="scale(0.001,-0.001)" />

<path d="M150,-366V437L396,539V-366ZM499,0L727,658H139V835h870V716L754,0Z" 
id="f0_3"
transform="scale(0.001,-0.001)" />

<path d="M419,-20c0,0,-134,0,-202,77c0,0,-68,79,-68,232V703H35v90H413V330c0,0,0,-148,24,-187c0,0,25,-40,91,-40c0,0,80,0,117,59c0,0,37,59,37,187V703H586v90H946V90h113V0H682V112C682,112,635,41,573,10c0,0,-61,-30,-154,-30Z" 
id="f1_a"
transform="scale(0.001,-0.001)" />

<path d="M403,-20c0,0,-74,0,-156,11C247,-9,164,1,71,23V244h84c0,0,11,-88,67,-135c0,0,56,-46,152,-46c0,0,81,0,124,28c0,0,43,28,43,80c0,0,0,47,-28,74c0,0,-27,26,-105,45L299,318c0,0,-123,30,-178,87c0,0,-55,57,-55,154c0,0,0,129,89,192c0,0,89,63,276,63c0,0,70,0,149,-11c0,0,80,-12,176,-36V567H672c0,0,-7,81,-58,122c0,0,-51,41,-147,41c0,0,-80,0,-122,-25c0,0,-41,-26,-41,-75c0,0,0,-41,24,-64c0,0,24,-23,86,-38L522,500c0,0,156,-40,215,-98c0,0,60,-58,60,-162c0,0,0,-134,-96,-198c0,0,-96,-62,-298,-62Z" 
id="f1_9"
transform="scale(0.001,-0.001)" />

<path d="M431,-20c0,0,-163,0,-221,50c0,0,-58,50,-58,187V703H37v90H152v246H416V793H636V703H416V217c0,0,0,-104,16,-129c0,0,16,-25,59,-25c0,0,48,0,71,32c0,0,23,32,25,99H698c0,0,-7,-119,-65,-167c0,0,-59,-47,-202,-47Z" 
id="f1_b"
transform="scale(0.001,-0.001)" />

<path d="M612,448c0,0,0,156,-29,219c0,0,-29,63,-99,63c0,0,-68,0,-98,-61c0,0,-29,-62,-29,-208V448ZM488,-20c0,0,-205,0,-315,107C173,87,63,195,63,397c0,0,0,197,112,307c0,0,113,110,313,110c0,0,197,0,303,-115c0,0,105,-116,111,-340H357v-6c0,0,0,-154,46,-222c0,0,46,-68,149,-68c0,0,86,0,139,45c0,0,53,46,68,133H883C883,241,851,105,755,42c0,0,-95,-62,-267,-62Z" 
id="f1_4"
transform="scale(0.001,-0.001)" />

<path d="M506,95c0,0,78,0,114,62c0,0,36,62,36,200v79c0,0,0,138,-36,200c0,0,-36,62,-114,62c0,0,-83,0,-116,-65c0,0,-33,-65,-33,-236c0,0,0,-171,34,-237c0,0,33,-65,115,-65ZM425,-20c0,0,-169,0,-266,110c0,0,-96,112,-96,307c0,0,0,195,96,306c0,0,97,111,266,111c0,0,83,0,140,-30c0,0,58,-30,91,-92v379H543v90H920V90h113V0H656V101c0,0,-33,-62,-91,-92c0,0,-57,-29,-140,-29Z" 
id="f1_c"
transform="scale(0.001,-0.001)" />

<path d="M419,-21c0,0,-134,0,-202,78c0,0,-69,79,-69,232V703H35v90H413V330c0,0,0,-148,24,-188c0,0,25,-40,90,-40c0,0,80,0,117,59c0,0,37,59,37,187V703H585v90H946V90h113V0H681V112C681,112,634,41,573,10c0,0,-61,-31,-154,-31ZM404,941l192,281H804L526,941Z" 
id="f1_d"
transform="scale(0.001,-0.001)" />

<path d="M260,0V266H529V0Zm0,376v37c0,0,0,61,25,109c0,0,24,47,103,120l48,43c0,0,43,39,62,73c0,0,20,34,20,69c0,0,0,52,-36,81c0,0,-35,30,-100,30c0,0,-60,0,-130,-25c0,0,-70,-25,-146,-74v235c0,0,90,31,164,45c0,0,75,15,144,15c0,0,182,0,278,-74c0,0,95,-74,95,-217c0,0,0,-73,-29,-131c0,0,-29,-57,-99,-124L611,546c0,0,-51,-46,-66,-74c0,0,-16,-28,-16,-62V376Z" 
id="f0_v"
transform="scale(0.001,-0.001)" />

<path d="M66,0V107H554V452c0,0,0,56,-4,93c0,0,-4,37,-18,75c0,0,-14,38,-40,60c0,0,-26,22,-71,36c0,0,-45,13,-110,13H66V836H312c0,0,91,0,157,-17c0,0,66,-17,109,-49c0,0,44,-32,69,-84c0,0,26,-52,36,-114c0,0,10,-62,10,-147V107H817V0Z" 
id="f2_9"
transform="scale(0.001,-0.001)" />

<path d="M180,0L66,836H203L258,443c0,0,36,1,64,6c0,0,28,6,49,18c0,0,20,12,35,26c0,0,15,13,26,36c0,0,11,24,17,44c0,0,7,20,12,55c0,0,6,34,9,60c0,0,3,26,8,71c0,0,4,45,9,77H610c0,0,-13,-194,-31,-271c0,0,-31,-127,-111,-179c0,0,-71,-45,-196,-50L304,107c0,0,73,0,130,5c0,0,56,6,111,21c0,0,54,15,94,40c0,0,40,25,77,64c0,0,37,39,63,94c0,0,25,54,46,128c0,0,21,73,34,166c0,0,13,94,20,211h138c0,0,-14,-124,-29,-218c0,0,-16,-94,-39,-179c0,0,-22,-85,-50,-146c0,0,-28,-61,-68,-112c0,0,-39,-51,-87,-84C744,97,696,65,632,42C632,42,568,19,492,10C492,10,417,0,320,0Z" 
id="f2_n"
transform="scale(0.001,-0.001)" />

<path d="M114,0l60,312c0,0,2,12,8,39c0,0,6,27,7,37c0,0,2,11,5,30c0,0,2,19,4,33c0,0,1,15,1,31c0,0,0,48,-35,146c0,0,-35,98,-98,208H228c0,0,3,-8,27,-67c0,0,25,-58,41,-117c0,0,21,53,50,90c0,0,29,37,57,57c0,0,29,21,65,32c0,0,37,11,65,14c0,0,28,3,67,3c0,0,300,0,300,-396V0H480V106H761V452c0,0,0,146,-46,215c0,0,-45,70,-118,70c0,0,-134,0,-198,-119c0,0,-36,-68,-67,-222c0,0,-2,-10,-6,-27L253,0Z" 
id="f2_g"
transform="scale(0.001,-0.001)" />

<path d="M112,-5c0,0,-39,0,-97,11V113c0,0,48,-10,77,-10c0,0,53,0,70,42c0,0,17,43,17,164V729H50V836H501c0,0,107,0,179,-25c0,0,72,-25,112,-77c0,0,40,-51,57,-118c0,0,16,-67,16,-164V0H726V454c0,0,0,55,-3,92c0,0,-4,37,-17,75c0,0,-14,38,-38,59c0,0,-24,22,-65,36c0,0,-42,13,-102,13H318V309c0,0,0,-160,-46,-237C272,72,226,-5,112,-5Z" 
id="f2_r"
transform="scale(0.001,-0.001)" />

<path d="M66,0V107H332V555c0,0,0,92,-37,133c0,0,-37,41,-116,41H85V836h94c0,0,153,0,223,-66c0,0,69,-66,69,-231V0Z" 
id="f2_6"
transform="scale(0.001,-0.001)" />

<path d="M102,312V836H241V369L102,312Z" 
id="f2_4"
transform="scale(0.001,-0.001)" />

<path d="M287,0L589,729H66v386H205V836l547,-1l-2,-82L433,0Z" 
id="f2_f"
transform="scale(0.001,-0.001)" />

<path d="M66,0V106H322c0,0,75,0,127,23c0,0,53,23,82,67c0,0,29,43,42,98c0,0,13,54,13,124c0,0,0,70,-13,124c0,0,-13,55,-42,98c0,0,-29,44,-82,67c0,0,-52,23,-127,23H66V836H322c0,0,87,0,157,-24c0,0,70,-24,115,-64c0,0,45,-40,74,-94c0,0,30,-55,43,-113c0,0,13,-59,13,-123c0,0,0,-64,-13,-123c0,0,-13,-58,-43,-113c0,0,-29,-54,-74,-94C594,88,549,48,479,24C479,24,409,0,322,0Z" 
id="f2_5"
transform="scale(0.001,-0.001)" />

<path d="M139,-317V836H278V-317Z" 
id="f2_d"
transform="scale(0.001,-0.001)" />

<path d="M139,0V106H400c0,0,176,0,253,71c0,0,78,72,78,250c0,0,0,163,-80,233c0,0,-81,69,-250,69H278L277,564c0,0,-1,-54,26,-80c0,0,27,-25,82,-25c0,0,30,0,80,9V355c0,0,-61,-12,-111,-12c0,0,-100,0,-157,55c0,0,-58,55,-58,186V836H456c0,0,193,0,303,-109c0,0,110,-109,110,-309c0,0,0,-200,-110,-309C759,109,648,0,456,0Z" 
id="f2_j"
transform="scale(0.001,-0.001)" />

<path d="M139,0V836H278V0Z" 
id="f2_a"
transform="scale(0.001,-0.001)" />

<path d="M139,0V138c0,0,0,61,8,112c0,0,7,52,19,87c0,0,11,36,30,66c0,0,19,31,35,49c0,0,17,19,41,35c0,0,25,17,41,25c0,0,17,7,40,17L141,836H303L613,388c0,0,20,10,33,18c0,0,13,8,34,28c0,0,20,20,33,44c0,0,13,25,22,66c0,0,10,41,10,92V836H882V698c0,0,0,-61,-7,-112c0,0,-6,-52,-18,-88c0,0,-12,-36,-30,-66c0,0,-19,-30,-36,-49c0,0,-17,-18,-41,-34c0,0,-24,-17,-40,-25c0,0,-17,-8,-41,-17L882,0H720L409,448c0,0,-21,-11,-34,-19c0,0,-13,-8,-34,-27c0,0,-21,-20,-34,-44c0,0,-12,-25,-22,-66c0,0,-9,-41,-9,-92V0Z" 
id="f2_q"
transform="scale(0.001,-0.001)" />

<path d="M557,-14c0,0,-199,0,-298,89c0,0,-99,90,-99,255V941L32,960v40H432V960L304,941V341c0,0,0,-273,264,-273c0,0,144,0,220,68c0,0,77,68,77,202V941L730,960v40h341V960L943,941V344c0,0,0,-180,-99,-269c0,0,-99,-89,-287,-89Z" 
id="f3_1h"
transform="scale(0.001,-0.001)" />

<path d="M383,64c0,0,85,0,152,28V645c0,0,-67,13,-152,13c0,0,-194,0,-194,-314c0,0,0,-141,48,-211c0,0,48,-69,146,-69ZM342,-14c0,0,-287,0,-287,358c0,0,0,184,82,280c0,0,81,96,239,96c0,0,81,0,163,-18c0,0,-4,25,-4,124v182l-118,18v34H659V52L745,33V0H548l-9,52c0,0,-84,-66,-197,-66Z" 
id="f3_n"
transform="scale(0.001,-0.001)" />

<path d="M522,92c0,0,247,0,247,333c0,0,0,88,-17,146c0,0,-17,58,-53,91c0,0,-35,33,-82,46c0,0,-48,14,-116,14H276V419c0,0,0,-327,246,-327Zm0,-112c0,0,-193,0,-289,109c0,0,-95,110,-95,337V836H501c0,0,213,0,309,-93c0,0,96,-94,96,-317c0,0,0,-227,-95,-337C811,89,715,-20,522,-20Z" 
id="f2_l"
transform="scale(0.001,-0.001)" />

<path d="M736,107V473c0,0,0,147,-48,202c0,0,-49,54,-187,54H278V107ZM139,0V836H499c0,0,105,0,177,-22c0,0,72,-21,116,-69c0,0,44,-49,64,-119c0,0,19,-71,19,-174V0Z" 
id="f2_8"
transform="scale(0.001,-0.001)" />

<path d="M495,0V729H66V836H781V729H634V0Z" 
id="f2_b"
transform="scale(0.001,-0.001)" />

<path d="M163,0V190H321V0Z" 
id="f2_o"
transform="scale(0.001,-0.001)" />

<path d="M117,-176L179,62V190H336V62L213,-176Z" 
id="f2_7"
transform="scale(0.001,-0.001)" />

<path d="M585,0V426c0,0,0,54,-8,98c0,0,-8,44,-27,83c0,0,-19,40,-49,66c0,0,-30,26,-77,41c0,0,-47,15,-108,15H66V836H315c0,0,94,0,166,-20c0,0,71,-20,116,-54c0,0,46,-35,75,-88c0,0,28,-52,40,-112c0,0,12,-60,12,-137V0Z" 
id="f2_3"
transform="scale(0.001,-0.001)" />

<path d="M138,-7c0,0,-34,0,-72,10V129c0,0,25,-8,52,-8c0,0,33,0,58,5c0,0,26,5,58,24c0,0,33,20,53,54c0,0,21,34,36,97c0,0,15,64,15,151c0,0,0,113,-19,173c0,0,-19,60,-56,82c0,0,-38,22,-107,22H89V836h72c0,0,165,0,240,-91c0,0,76,-91,76,-293c0,0,0,-107,26,-227c0,0,25,-119,83,-225H437c0,0,-43,101,-62,184c0,0,-24,-60,-51,-99c0,0,-26,-38,-56,-58C268,27,239,7,209,0c0,0,-30,-7,-71,-7Z" 
id="f2_s"
transform="scale(0.001,-0.001)" />

<path d="M249,-14c0,0,-71,0,-107,42c0,0,-35,42,-35,119V639H15v33l93,29l76,159h47V701H391V639H231V161c0,0,0,-48,22,-73c0,0,22,-24,57,-24c0,0,44,0,106,12V26C416,26,389,8,340,-2c0,0,-49,-12,-91,-12Z" 
id="f3_9"
transform="scale(0.001,-0.001)" />

<path d="M289,-14c0,0,-179,0,-179,205V649L20,668v33H233V200c0,0,0,-128,120,-128c0,0,92,0,173,23V649L420,668v33H649V52L738,34V0H533l-6,57C527,57,474,28,405,6c0,0,-69,-20,-116,-20Zm24,849v24l147,203H618v-27L354,835Z" 
id="f3_1g"
transform="scale(0.001,-0.001)" />

<path d="M543,-317V369c0,0,0,85,-8,143c0,0,-8,58,-27,101c0,0,-18,44,-51,69c0,0,-33,24,-80,36c0,0,-48,11,-117,11H66V836H257c0,0,125,0,205,-23c0,0,80,-23,130,-79c0,0,50,-56,70,-143c0,0,20,-86,20,-222V-317Z" 
id="f2_t"
transform="scale(0.001,-0.001)" />

<path d="M139,0V836H485c0,0,206,0,290,-90c0,0,84,-89,84,-294V0H721V473c0,0,0,147,-49,202c0,0,-48,54,-186,54H277V0Z" 
id="f2_c"
transform="scale(0.001,-0.001)" />

<path d="M154,0V454l138,56V0ZM722,0V454c0,0,0,161,-49,218c0,0,-48,57,-186,57H139V836H485c0,0,207,0,291,-93c0,0,83,-94,83,-318V0Z" 
id="f2_e"
transform="scale(0.001,-0.001)" />

<path d="M156,-317V454l139,56V-317ZM505,0L806,729H139V835H967V753L650,0Z" 
id="f2_i"
transform="scale(0.001,-0.001)" />

<path d="M347,-317V284c0,0,0,59,-21,123c0,0,-21,64,-44,103c0,0,-23,40,-59,94L66,838H218L336,668c0,0,76,-109,120,-223c0,0,87,34,126,107c0,0,39,73,39,186v98H758V737c0,0,0,-82,-23,-152c0,0,-23,-69,-61,-116c0,0,-39,-47,-87,-78c0,0,-47,-31,-101,-45V-317Z" 
id="f2_1v"
transform="scale(0.001,-0.001)" />

<path d="M66,0V106H564L66,836H228L516,413c0,0,3,2,9,6c0,0,17,13,27,21c0,0,10,8,26,27c0,0,17,20,26,40c0,0,9,21,16,54c0,0,7,34,7,75V836H764V698c0,0,0,-55,-7,-102c0,0,-7,-47,-16,-79c0,0,-10,-33,-27,-62c0,0,-18,-29,-32,-46c0,0,-14,-17,-37,-35c0,0,-22,-17,-36,-25c0,0,-13,-8,-36,-20L767,53V0Z" 
id="f2_p"
transform="scale(0.001,-0.001)" />

<path d="M522,-20c0,0,-196,0,-290,99c0,0,-94,100,-94,324V836H276V397c0,0,0,-86,16,-147c0,0,17,-60,50,-94c0,0,34,-34,77,-49c0,0,43,-15,103,-15c0,0,59,0,102,15c0,0,44,15,77,49c0,0,33,34,50,94c0,0,17,61,17,147c0,0,0,84,-8,143c0,0,-7,58,-25,105c0,0,-17,47,-51,69c0,0,-33,23,-83,23c0,0,-50,0,-119,-22V821c0,0,85,23,150,23c0,0,76,0,130,-30c0,0,53,-31,85,-90c0,0,31,-59,45,-138c0,0,13,-78,13,-183c0,0,0,-224,-93,-324c0,0,-94,-99,-290,-99Z" 
id="f2_x"
transform="scale(0.001,-0.001)" />

<path d="M730,212c0,0,17,78,17,199c0,0,0,85,-13,133c0,0,-12,48,-36,69c0,0,-24,21,-87,21H312c0,0,-55,-53,-72,-91c0,0,-17,-38,-17,-96c0,0,0,-124,8,-235ZM134,0l-1,360c0,0,0,121,7,151c0,0,7,30,31,61c0,0,24,32,57,62H201c0,0,-37,0,-59,39c0,0,-23,40,-23,101c0,0,0,51,18,87c0,0,18,35,35,35c0,0,12,0,16,-2c0,0,4,-2,4,-8V869c0,0,0,-24,31,-24H645c0,0,73,0,104,-18c0,0,30,-18,49,-58c0,0,19,-39,27,-107c0,0,9,-67,9,-162c0,0,0,-166,-12,-500Z" 
id="f4_2"
transform="scale(0.001,-0.001)" />

<path d="M131,353c0,0,-3,0,-6,2c0,0,-3,2,-16,20c0,0,-13,17,-13,28c0,0,0,5,8,9c0,0,45,26,84,67c0,0,38,41,38,85c0,0,0,28,-7,43c0,0,-7,15,-24,21c0,0,-17,6,-61,6H124c0,0,-38,0,-62,34c0,0,-24,35,-24,107c0,0,0,52,16,87c0,0,17,34,38,34c0,0,16,0,16,-12V870c0,0,0,-25,26,-25h63c0,0,29,0,53,-4c0,0,23,-4,39,-23c0,0,17,-19,26,-59c0,0,9,-40,9,-113c0,0,0,-76,-15,-124c0,0,-15,-47,-51,-83c0,0,-35,-36,-74,-61c0,0,-39,-25,-53,-25Z" 
id="f4_8"
transform="scale(0.001,-0.001)" />

<path d="M235,-20c0,0,-31,0,-51,19c0,0,-21,18,-21,50c0,0,0,65,39,120c0,0,39,54,125,109c0,0,56,35,87,56c0,0,32,20,46,33c0,0,79,45,79,143c0,0,0,27,-7,65c0,0,-8,39,-27,49c0,0,-19,10,-85,10H110c0,0,-36,0,-53,21c0,0,-17,22,-25,71c0,0,-7,49,-7,134c0,0,0,62,27,122c0,0,8,15,8,34c0,0,0,23,-35,37c0,0,-21,7,-30,29c0,0,-9,22,-9,72c0,0,0,24,10,46c0,0,8,22,25,38c0,0,16,16,26,16c0,0,17,0,17,-14c0,0,0,-9,7,-17c0,0,7,-8,34,-14c0,0,65,-15,81,-26c0,0,15,-10,15,-31c0,0,0,-15,-15,-38c0,0,-15,-22,-33,-53c0,0,-19,-30,-34,-67c0,0,-15,-36,-15,-79c0,0,0,-43,14,-56c0,0,15,-14,54,-14H518c0,0,39,0,63,-17c0,0,23,-16,33,-53c0,0,10,-36,17,-89c0,0,6,-52,6,-93c0,0,0,-99,-9,-144c0,0,-9,-44,-40,-80c0,0,-31,-36,-110,-86c0,0,-112,-71,-138,-95c0,0,-26,-23,-36,-44c0,0,-9,-20,-9,-43c0,0,0,-11,5,-26c0,0,6,-15,6,-26c0,0,0,-32,-20,-50c0,0,-20,-19,-51,-19Z" 
id="f4_r"
transform="scale(0.001,-0.001)" />

<path d="M38,0L93,212H220c0,0,4,8,7,28c0,0,4,20,4,39c0,0,0,29,-13,61c0,0,-13,31,-29,65c0,0,-15,34,-28,72c0,0,-13,38,-13,81c0,0,0,29,10,54c0,0,9,25,30,60c0,0,-48,0,-68,11c0,0,-19,11,-30,36c0,0,-11,25,-11,71c0,0,0,30,9,54c0,0,8,25,22,40c0,0,14,15,24,15c0,0,17,0,17,-12V875c0,0,0,-30,41,-30h53c0,0,44,0,61,-10c0,0,17,-10,26,-34c0,0,9,-23,9,-67c0,0,0,-38,-6,-57c0,0,-6,-20,-13,-20c0,0,-6,0,-13,4c0,0,-3,4,-17,7c0,0,-14,2,-26,2c0,0,-34,0,-34,-45c0,0,0,-12,9,-34c0,0,8,-22,55,-116c0,0,46,-86,46,-143c0,0,0,-15,-8,-35c0,0,-9,-20,-50,-85H598c0,0,17,0,17,12c0,0,0,19,-6,53c0,0,-5,34,-5,74c0,0,0,80,58,228c0,0,18,46,18,56c0,0,0,15,-12,26c0,0,-12,11,-38,11H602c0,0,-43,0,-62,25c0,0,-19,25,-19,78c0,0,0,47,14,86c0,0,15,38,33,38c0,0,15,0,15,-15V867c0,0,0,-22,31,-22h55c0,0,51,0,78,-20c0,0,27,-20,27,-57c0,0,0,-46,-28,-147c0,0,-40,-145,-40,-253c0,0,0,-33,6,-63c0,0,6,-30,14,-54c0,0,8,-24,14,-42c0,0,7,-19,7,-30c0,0,0,-39,-14,-88C733,91,720,42,701,0Z" 
id="f4_3"
transform="scale(0.001,-0.001)" />

<path d="M46,0l55,212H483c0,0,68,0,105,25c0,0,38,25,57,78c0,0,18,52,18,131c0,0,0,97,-39,142c0,0,-40,46,-123,46H275c0,0,-25,-15,-40,-35c0,0,-15,-20,-15,-32c0,0,0,-25,37,-25l49,-1c0,0,42,0,67,-26c0,0,26,-26,26,-72c0,0,0,-68,-17,-118c0,0,-18,-50,-41,-50c0,0,-19,0,-19,18c0,0,0,34,-14,51c0,0,-13,16,-54,16c0,0,-38,0,-57,-11c0,0,-19,-11,-26,-43c0,0,-3,-22,-18,-22c0,0,-22,0,-34,37c0,0,-12,38,-12,102c0,0,0,128,78,211H163c0,0,-33,0,-52,34c0,0,-19,35,-19,91c0,0,0,50,15,94c0,0,16,45,32,45c0,0,17,0,17,-14V870c0,0,0,-25,33,-25H544c0,0,62,0,95,-17c0,0,32,-17,58,-66c0,0,26,-48,40,-125c0,0,13,-77,13,-158c0,0,0,-296,-116,-479Z" 
id="f4_y"
transform="scale(0.001,-0.001)" />

<path d="M107,-18c0,0,-17,0,-17,18l3,9c0,0,23,48,23,124l-1,177c0,0,0,55,8,77c0,0,9,22,33,46c0,0,23,23,51,40c0,0,28,17,42,17c0,0,5,0,9,-3c0,0,5,-3,5,-8c0,0,0,-3,-11,-26c0,0,-14,-49,-14,-120l4,-223c0,0,0,-38,-9,-54c0,0,-8,-17,-32,-34C201,22,178,6,150,-5c0,0,-28,-13,-43,-13Zm547,0c0,0,-17,0,-17,18l2,10c0,0,10,38,10,109c0,0,0,79,-14,208c0,0,-15,128,-15,149c0,0,0,54,16,89c0,0,15,36,53,69H154c0,0,-35,0,-57,40c0,0,-21,40,-21,103c0,0,0,33,8,61c0,0,7,28,19,44c0,0,13,17,24,17c0,0,15,0,15,-13V869c0,0,0,-13,5,-19c0,0,5,-5,22,-5H718c0,0,50,0,50,-63V652c0,0,0,-21,-15,-30c0,0,-35,-24,-35,-77c0,0,0,-57,20,-169c0,0,27,-157,27,-272c0,0,0,-29,-6,-44c0,0,-6,-15,-17,-26c0,0,-12,-16,-47,-35L681,-9l-13,-6l-14,-3Z" 
id="f4_5"
transform="scale(0.001,-0.001)" />

<path d="M276,-14c0,0,-57,0,-125,13C151,-1,83,10,48,23V214H97l28,-98c0,0,26,-26,69,-44c0,0,42,-17,86,-17c0,0,65,0,97,28c0,0,32,28,32,71c0,0,0,41,-31,65c0,0,-30,25,-133,57c0,0,-108,34,-154,92c0,0,-45,58,-45,143c0,0,0,95,71,152c0,0,71,57,183,57c0,0,77,0,207,-22V518H457l-24,82c0,0,-21,22,-60,35c0,0,-40,14,-75,14c0,0,-53,0,-79,-22c0,0,-26,-22,-26,-59c0,0,0,-40,32,-65c0,0,32,-26,132,-55c0,0,109,-34,155,-89c0,0,45,-55,45,-137c0,0,0,-117,-72,-177c0,0,-72,-59,-209,-59Z" 
id="f4_n"
transform="scale(0.001,-0.001)" />

<path d="M434,423c0,0,0,101,-7,142c0,0,-6,40,-22,60c0,0,-16,19,-45,19c0,0,-44,0,-66,-48c0,0,-22,-49,-22,-173ZM389,-14c0,0,-172,0,-254,89c0,0,-83,90,-83,279c0,0,0,184,79,274c0,0,79,91,238,91c0,0,142,0,206,-76c0,0,64,-76,64,-237V345H271V333c0,0,0,-111,18,-158c0,0,18,-47,58,-72c0,0,40,-25,110,-25c0,0,66,0,166,22V42C623,42,582,18,517,1c0,0,-66,-15,-128,-15Z" 
id="f4_k"
transform="scale(0.001,-0.001)" />

<path d="M41,0V49l91,18V634L41,652v49H336l8,-145c0,0,80,89,144,128c0,0,64,40,117,40h40V468H604l-45,94c0,0,-47,0,-106,-21c0,0,-60,-20,-105,-48V67L460,49V0Z" 
id="f4_u"
transform="scale(0.001,-0.001)" />

<path d="M204,-8c0,0,-9,0,-11,5c0,0,-2,5,-2,22V549c0,0,0,40,-4,56c0,0,-4,16,-15,22c0,0,-10,7,-39,7H90c0,0,-33,0,-52,33c0,0,-19,33,-19,90c0,0,0,53,15,98c0,0,16,44,35,44c0,0,12,0,12,-13V872c0,0,0,-27,31,-27h42c0,0,79,0,103,-20c0,0,23,-19,23,-83V67c0,0,0,-16,-8,-26c0,0,-9,-10,-33,-30c0,0,-25,-19,-35,-19Z" 
id="f4_9"
transform="scale(0.001,-0.001)" />

<path d="M327,-14c0,0,-101,0,-156,45c0,0,-55,45,-55,131V624H25v48l108,29l87,159H332V701H480V624H332V176c0,0,0,-49,20,-73c0,0,20,-25,53,-25c0,0,40,0,97,12V26c0,0,-22,-15,-76,-27c0,0,-55,-13,-99,-13Z" 
id="f4_w"
transform="scale(0.001,-0.001)" />

<path d="M345,75c0,0,50,0,110,26V351l-63,-2c0,0,-72,-3,-100,-38c0,0,-28,-35,-28,-113c0,0,0,-63,22,-93c0,0,23,-30,59,-30ZM266,-14c0,0,-217,0,-217,208c0,0,0,79,32,126c0,0,32,48,93,71c0,0,60,22,190,25l91,2V521c0,0,0,126,-104,126c0,0,-62,0,-140,-39L183,521H134V691c0,0,112,17,165,21c0,0,53,5,108,5c0,0,264,0,264,-194V67L741,49V0H483L466,54C466,54,408,14,361,0c0,0,-47,-14,-95,-14Z" 
id="f4_d"
transform="scale(0.001,-0.001)" />

<path d="M71,-141V-15L289,62L66,836H210L416,109c0,0,99,42,153,98c0,0,53,56,80,155c0,0,26,98,26,262V836H817V624c0,0,0,-88,-7,-154c0,0,-7,-67,-25,-132c0,0,-18,-66,-51,-116c0,0,-33,-51,-84,-98c0,0,-50,-48,-123,-87c0,0,-72,-39,-169,-74L71,-141Z" 
id="f2_m"
transform="scale(0.001,-0.001)" />

<path d="M147,700v414H274V700Zm282,0v414H556V700Z" 
id="f2_v"
transform="scale(0.001,-0.001)" />

<path d="M152,0V473c0,0,0,94,28,161c0,0,29,66,71,95H66V836H463V729H404c0,0,-65,0,-89,-57c0,0,-25,-58,-25,-199V0Z" 
id="f2_h"
transform="scale(0.001,-0.001)" />

<path d="M122,-200c0,0,99,170,148,338c0,0,49,169,49,342c0,0,0,172,-49,340c0,0,-49,168,-148,340H241c0,0,112,-176,168,-345c0,0,55,-169,55,-335c0,0,0,-167,-55,-337c0,0,-56,-168,-168,-343Z" 
id="f2_10"
transform="scale(0.001,-0.001)" />

<path d="M66,0V178H307V510c0,0,0,100,-31,124c0,0,-30,24,-79,24H83V836H197c0,0,215,0,286,-85c0,0,71,-85,71,-224V0Z" 
id="f0_i"
transform="scale(0.001,-0.001)" />

<path d="M354,-200c0,0,-112,175,-167,343c0,0,-56,170,-56,337c0,0,0,166,55,335c0,0,55,169,168,345H473c0,0,-100,-172,-148,-340c0,0,-48,-168,-48,-340c0,0,0,-173,48,-342c0,0,49,-168,148,-338Z" 
id="f2_11"
transform="scale(0.001,-0.001)" />

<path d="M55,0V40L184,60V941L55,960v40H455V960L327,941V60L455,40V0Z" 
id="f3_s"
transform="scale(0.001,-0.001)" />

<path d="M41,0V49l69,18V634L41,652v49H313l11,-61l50,26c0,0,105,54,188,54c0,0,125,0,167,-91c0,0,153,91,258,91c0,0,189,0,189,-207V67l71,-17V0H898V50l63,17V484c0,0,0,63,-24,98c0,0,-25,35,-74,35c0,0,-55,0,-119,-31c0,0,7,-32,7,-73V67L821,50V0H473V50l63,17V484c0,0,0,63,-25,98c0,0,-24,35,-73,35c0,0,-49,0,-113,-29V67L389,49V0Z" 
id="f4_14"
transform="scale(0.001,-0.001)" />

<path d="M529,65c0,0,183,0,270,108c0,0,87,108,87,334c0,0,0,210,-113,318c0,0,-113,108,-322,108H316V71c0,0,90,-6,213,-6Zm0,-67L172,0H44V40L172,60V941L44,960v40H498c0,0,277,0,411,-123c0,0,133,-124,133,-371c0,0,0,-251,-129,-380C913,126,785,-2,529,-2Z" 
id="f3_1i"
transform="scale(0.001,-0.001)" />

<path d="M284,67c0,0,51,0,88,12c0,0,37,12,74,30V358l-98,-3c0,0,-100,-4,-135,-39c0,0,-35,-35,-35,-117c0,0,0,-132,106,-132ZM233,-14c0,0,-179,0,-179,208c0,0,0,70,27,116c0,0,27,46,87,70c0,0,60,24,173,27l105,3V519c0,0,0,72,-26,107c0,0,-27,34,-82,34c0,0,-75,0,-137,-35L176,538H134V691c0,0,121,26,213,26c0,0,115,0,169,-47c0,0,54,-47,54,-144V52L657,33V0H465L451,70c0,0,-85,-84,-218,-84Z" 
id="f3_2"
transform="scale(0.001,-0.001)" />

<path d="M439,0V33l93,19V500c0,0,0,62,-30,97c0,0,-31,36,-94,36c0,0,-67,0,-165,-22V52L338,33V0H35V33l84,19V649L35,668v33H235l7,-57c0,0,57,33,122,54c0,0,65,22,108,22c0,0,91,0,137,-53c0,0,47,-53,47,-154V52L741,33V0Z" 
id="f3_8"
transform="scale(0.001,-0.001)" />

<path d="M32,0V33L151,52V649L52,668v33H275V52L395,33V0ZM201,850c0,0,-32,0,-56,24c0,0,-24,24,-24,56c0,0,0,34,24,58c0,0,24,24,56,24c0,0,34,0,58,-24c0,0,24,-24,24,-58c0,0,0,-32,-24,-56c0,0,-24,-24,-58,-24Z" 
id="f3_4"
transform="scale(0.001,-0.001)" />

<path d="M495,413c0,0,0,133,-34,190c0,0,-34,57,-105,57c0,0,-78,0,-119,-63c0,0,-42,-62,-42,-184ZM374,-14c0,0,-163,0,-239,87c0,0,-75,88,-75,283c0,0,0,183,77,273c0,0,76,91,219,91c0,0,269,0,269,-306V353H194V340c0,0,0,-103,23,-160c0,0,22,-57,70,-87c0,0,47,-29,124,-29c0,0,40,0,96,6c0,0,55,7,91,15V43C598,43,562,20,500,3c0,0,-61,-17,-126,-17Z" 
id="f3_a"
transform="scale(0.001,-0.001)" />

<path d="M31,0V33L150,52v956L31,1026v34H274V52L394,33V0Z" 
id="f3_e"
transform="scale(0.001,-0.001)" />

<path d="M322,0V40L481,60V389L130,941L17,960v40H440V960L306,941L593,480L866,941L739,960v40h326V960L955,941L625,394V60L784,40V0Z" 
id="f3_1j"
transform="scale(0.001,-0.001)" />

<path d="M377,45c0,0,99,0,147,73c0,0,47,73,47,237c0,0,0,161,-47,233c0,0,-47,72,-147,72c0,0,-97,0,-141,-69c0,0,-44,-69,-44,-236c0,0,0,-169,45,-240c0,0,44,-70,140,-70Zm0,-59c0,0,-158,0,-238,94c0,0,-81,95,-81,274c0,0,0,178,81,272c0,0,80,94,244,94c0,0,160,0,241,-92c0,0,82,-92,82,-274c0,0,0,-368,-329,-368Z" 
id="f3_i"
transform="scale(0.001,-0.001)" />

<path d="M379,60c0,0,59,0,84,64c0,0,24,65,24,231c0,0,0,164,-24,227c0,0,-24,63,-84,63c0,0,-57,0,-80,-60c0,0,-22,-61,-22,-230c0,0,0,-173,23,-234c0,0,22,-61,79,-61Zm-2,-74c0,0,-161,0,-240,91c0,0,-79,91,-79,277c0,0,0,186,80,276c0,0,81,90,245,90c0,0,167,0,245,-93c0,0,78,-93,78,-273c0,0,0,-188,-81,-278c0,0,-81,-90,-248,-90Z" 
id="f4_m"
transform="scale(0.001,-0.001)" />

<path d="M159,-329c0,0,-61,0,-123,14v180H81l32,-94c0,0,21,-17,55,-17c0,0,28,0,50,13c0,0,21,14,40,39c0,0,20,25,37,62c0,0,17,37,50,110L64,634L15,652v49H374V652L290,632L455,244L602,634l-82,18v49H749V652L698,637L421,-44c0,0,-47,-121,-83,-176c0,0,-36,-55,-80,-82c0,0,-43,-27,-99,-27Z" 
id="f4_j"
transform="scale(0.001,-0.001)" />

<path d="M376,50c0,0,103,0,149,80c0,0,46,81,46,240c0,0,0,137,-47,204c0,0,-48,67,-148,67c0,0,-44,0,-87,-7c0,0,-44,-8,-63,-17V62c0,0,63,-12,150,-12Zm3,-64c0,0,-64,0,-141,14c0,0,-78,14,-136,37v971L0,1026v34H226V809c0,0,0,-40,-4,-148c0,0,74,59,188,59c0,0,143,0,219,-87c0,0,77,-87,77,-263c0,0,0,-189,-84,-287c0,0,-84,-97,-243,-97Z" 
id="f3_p"
transform="scale(0.001,-0.001)" />

<path d="M179,0V190H336V0Zm0,600V790H336V600Z" 
id="f2_w"
transform="scale(0.001,-0.001)" />

<path d="M278,-14c0,0,-52,0,-115,11c0,0,-63,10,-99,23V193H98L134,95c0,0,56,-50,146,-50c0,0,144,0,144,123c0,0,0,91,-114,130l-66,21c0,0,-75,25,-110,50c0,0,-34,26,-53,63c0,0,-18,36,-18,89c0,0,0,92,63,145c0,0,63,54,170,54c0,0,77,0,193,-23V544H454l-32,81c0,0,-39,35,-124,35c0,0,-61,0,-92,-30c0,0,-32,-30,-32,-80c0,0,0,-43,29,-72c0,0,28,-29,86,-48c0,0,110,-38,144,-55c0,0,33,-17,57,-42c0,0,23,-25,36,-57c0,0,13,-32,13,-79c0,0,0,-104,-66,-158c0,0,-66,-53,-195,-53Z" 
id="f3_d"
transform="scale(0.001,-0.001)" />

<path d="M31,0V33l88,19V649L31,668v33H235l7,-87c0,0,44,37,121,71c0,0,76,35,121,35h11V530H463l-43,82c0,0,-37,0,-88,-10c0,0,-52,-10,-89,-26V52L363,33V0Z" 
id="f3_b"
transform="scale(0.001,-0.001)" />

<path d="M0,-141L388,1114H514L127,-141Z" 
id="f2_1a"
transform="scale(0.001,-0.001)" />

<path d="M148,-329c0,0,-58,0,-114,13v151H69l24,-71c0,0,23,-17,64,-17c0,0,39,0,72,22c0,0,33,23,60,67c0,0,27,44,68,157L90,649L19,668v33H344V668L233,648L423,158L606,649L497,668v33H758V668L685,652L411,-43c0,0,-48,-124,-84,-177c0,0,-36,-54,-79,-82c0,0,-44,-27,-100,-27Z" 
id="f3_z"
transform="scale(0.001,-0.001)" />

<path d="M284,67c0,0,51,0,88,12c0,0,37,11,74,29V357l-98,-3c0,0,-100,-3,-135,-38c0,0,-35,-36,-35,-118c0,0,0,-131,106,-131ZM233,-14c0,0,-179,0,-179,208c0,0,0,70,27,116c0,0,27,46,87,70c0,0,60,24,173,27l105,3V519c0,0,0,73,-26,107c0,0,-27,34,-82,34c0,0,-75,0,-137,-35L176,538H134V691c0,0,121,26,213,26c0,0,115,0,169,-47c0,0,54,-47,54,-144V52L657,34V0H465L451,70c0,0,-85,-84,-218,-84Zm22,849v24l146,203H560v-27L296,835Z" 
id="f3_x"
transform="scale(0.001,-0.001)" />

<path d="M460,-325c0,0,-148,79,-231,172c0,0,-84,93,-123,217c0,0,-39,126,-39,304c0,0,0,178,39,303c0,0,39,125,122,217c0,0,82,93,232,172V997c0,0,-91,-52,-145,-134c0,0,-54,-81,-79,-190c0,0,-25,-109,-25,-305c0,0,0,-194,26,-309c0,0,26,-114,82,-193c0,0,56,-79,141,-128v-63Z" 
id="f3_1b"
transform="scale(0.001,-0.001)" />

<path d="M360,-14L72,649L0,668v33H327V668L216,648L420,164L615,649L504,668v33H764V668L697,652L416,-14Z" 
id="f3_3"
transform="scale(0.001,-0.001)" />

<path d="M49,-325v63c0,0,85,49,140,128c0,0,56,79,83,194c0,0,26,115,26,308c0,0,0,196,-25,305c0,0,-25,109,-79,190c0,0,-54,82,-145,134v63c0,0,149,-80,232,-172c0,0,83,-92,122,-217c0,0,39,-125,39,-303c0,0,0,-177,-39,-303c0,0,-39,-125,-122,-217c0,0,-83,-93,-232,-173Z" 
id="f3_1d"
transform="scale(0.001,-0.001)" />

<path d="M495,413c0,0,0,133,-34,190c0,0,-34,57,-105,57c0,0,-78,0,-119,-62c0,0,-42,-63,-42,-185ZM374,-14c0,0,-163,0,-239,87c0,0,-75,88,-75,283c0,0,0,183,77,274c0,0,76,90,219,90c0,0,269,0,269,-306V353H194V339c0,0,0,-103,23,-160c0,0,22,-57,70,-86c0,0,47,-30,124,-30c0,0,40,0,96,6c0,0,55,7,91,15V43C598,43,562,19,500,2c0,0,-61,-16,-126,-16ZM285,835v24l146,203H590v-27L326,835Z" 
id="f3_c"
transform="scale(0.001,-0.001)" />

<path d="M0,-14L351,1007h73L75,-14Z" 
id="f3_y"
transform="scale(0.001,-0.001)" />

<path d="M191,-20c0,0,-39,0,-65,25c0,0,-25,27,-25,64c0,0,0,38,26,64c0,0,26,26,64,26c0,0,38,0,64,-26c0,0,26,-26,26,-64c0,0,0,-37,-25,-64c0,0,-26,-25,-65,-25Z" 
id="f3_1f"
transform="scale(0.001,-0.001)" />

<path d="M431,0V33L535,52V499c0,0,0,62,-32,96c0,0,-32,33,-95,33c0,0,-66,0,-163,-22V52L350,33V0H32V33l89,19V649L32,668v33H237l6,-57c0,0,56,32,119,54c0,0,62,22,110,22c0,0,52,0,95,-20c0,0,44,-19,66,-62c0,0,57,32,134,57c0,0,77,25,128,25c0,0,179,0,179,-207V52l90,-19V0H846V33L950,52V499c0,0,0,129,-119,129c0,0,-19,0,-45,-3c0,0,-26,-3,-52,-7c0,0,-25,-4,-49,-8c0,0,-23,-5,-39,-8c0,0,13,-41,13,-89V52L764,33V0Z" 
id="f3_m"
transform="scale(0.001,-0.001)" />

<path d="M159,0V165c0,0,0,69,13,124c0,0,12,55,29,89c0,0,17,33,45,62c0,0,29,28,50,42c0,0,22,14,54,30L128,836H405L666,460c0,0,41,48,41,155V836H952V671c0,0,0,-50,-6,-93c0,0,-6,-42,-16,-73c0,0,-10,-30,-26,-57c0,0,-17,-27,-31,-44c0,0,-15,-17,-37,-33c0,0,-22,-16,-38,-25c0,0,-15,-9,-38,-21L984,0H706L445,376c0,0,-41,-48,-41,-155V0Z" 
id="f0_d"
transform="scale(0.001,-0.001)" />

<path d="M154,-13c0,0,-38,0,-85,9V198c0,0,58,-15,103,-15c0,0,84,0,118,60c0,0,35,61,35,206c0,0,0,66,-7,105c0,0,-6,39,-24,63c0,0,-17,25,-44,33c0,0,-27,8,-73,8H66V836H225c0,0,198,0,275,-115c0,0,56,-84,65,-264c0,0,3,-55,3,-148c0,0,0,-177,71,-309L393,1c0,0,-53,130,-54,141c0,0,-28,-90,-65,-123c0,0,-38,-32,-120,-32Z" 
id="f0_k"
transform="scale(0.001,-0.001)" />

<path d="M453,0V658H66V836H833V658H700V0Z" 
id="f0_b"
transform="scale(0.001,-0.001)" />

<path d="M71,0V90H214v934H71v90H1073V851H970v160H502V654H792V796H895V411H792V552H502V103H984V263h102V0Z" 
id="f1_2"
transform="scale(0.001,-0.001)" />

<path d="M87,-338c0,0,-45,0,-94,7c0,0,-51,8,-105,22v168l84,-1c0,0,1,-59,23,-86c0,0,21,-26,70,-26c0,0,55,0,77,35c0,0,21,35,21,127V703H51v90H427V-92c0,0,0,-122,-86,-184c0,0,-86,-62,-254,-62ZM277,876c0,0,-61,0,-102,41c0,0,-42,41,-42,101c0,0,0,60,41,101c0,0,42,42,103,42c0,0,58,0,100,-42c0,0,42,-42,42,-101c0,0,0,-59,-42,-101c0,0,-41,-41,-100,-41Z" 
id="f1_3"
transform="scale(0.001,-0.001)" />

<path d="M53,0V90H165V703H53v90H429V681c0,0,47,69,106,101c0,0,60,32,142,32c0,0,97,0,158,-37c0,0,60,-37,93,-114c0,0,55,79,119,115c0,0,64,36,150,36c0,0,137,0,204,-77c0,0,68,-77,68,-233V90h113V0H1110V90h95V464c0,0,0,149,-23,188c0,0,-23,38,-85,38c0,0,-70,0,-109,-54c0,0,-39,-54,-39,-154V90h95V0H591V90h94V464c0,0,0,149,-23,188c0,0,-23,38,-84,38c0,0,-71,0,-110,-54c0,0,-39,-54,-39,-154V90h95V0Z" 
id="f1_5"
transform="scale(0.001,-0.001)" />

<path d="M562,95c0,0,82,0,115,65c0,0,33,66,33,237c0,0,0,171,-33,236c0,0,-33,65,-115,65c0,0,-79,0,-114,-62c0,0,-35,-62,-35,-200V357c0,0,0,-138,35,-200c0,0,35,-62,114,-62ZM35,-317v90H149V703H35v90H413V692c0,0,33,62,90,92c0,0,57,30,140,30c0,0,169,0,267,-111c0,0,97,-111,97,-306c0,0,0,-195,-97,-307C910,90,812,-20,643,-20c0,0,-83,0,-140,29c0,0,-57,30,-90,92V-227H535v-90Z" 
id="f1_6"
transform="scale(0.001,-0.001)" />

<path d="M53,0V90H165v981H53v90H429V90H543V0Z" 
id="f1_7"
transform="scale(0.001,-0.001)" />

<path d="M510,63c0,0,84,0,118,71c0,0,34,72,34,263c0,0,0,191,-34,262c0,0,-33,71,-118,71c0,0,-84,0,-119,-72c0,0,-34,-72,-34,-261c0,0,0,-190,34,-262c0,0,35,-72,119,-72Zm0,-83c0,0,-209,0,-328,110C182,90,63,201,63,397c0,0,0,196,119,307c0,0,119,110,328,110c0,0,211,0,330,-110c0,0,118,-111,118,-307c0,0,0,-196,-119,-307C839,90,720,-20,510,-20Z" 
id="f1_8"
transform="scale(0.001,-0.001)" />

<path d="M186,-14c0,0,-95,0,-154,22V190H81L104,86c0,0,14,-17,40,-26c0,0,26,-10,57,-10c0,0,105,0,105,141V941L178,960v40H562V960L449,941V322c0,0,0,-100,-30,-175c0,0,-31,-74,-93,-118c0,0,-63,-43,-140,-43Z" 
id="f3_1k"
transform="scale(0.001,-0.001)" />

<path d="M289,-14c0,0,-179,0,-179,205V649L20,668v33H233V200c0,0,0,-128,120,-128c0,0,92,0,173,23V649L420,668v33H649V52L738,33V0H533l-6,57C527,57,474,28,405,7c0,0,-69,-21,-116,-21Z" 
id="f3_k"
transform="scale(0.001,-0.001)" />

<path d="M399,-14c0,0,-341,0,-341,370c0,0,0,175,87,269c0,0,87,95,249,95c0,0,101,0,220,-23V501H573L541,625c0,0,-62,35,-149,35c0,0,-200,0,-200,-304c0,0,0,-158,61,-225c0,0,61,-67,189,-67c0,0,109,0,189,24V43C631,43,595,16,530,1c0,0,-64,-15,-131,-15Z" 
id="f3_l"
transform="scale(0.001,-0.001)" />

<path d="M382,45c0,0,188,0,188,314c0,0,0,143,-47,213c0,0,-46,69,-141,69c0,0,-87,0,-146,-24V58c0,0,67,-13,146,-13ZM25,-325v35l88,18V649L34,668v33H231l1,-41c0,0,31,27,84,43c0,0,53,17,107,17c0,0,134,0,208,-94c0,0,73,-93,73,-267c0,0,0,-178,-80,-276c0,0,-80,-97,-232,-97c0,0,-84,0,-160,16c0,0,4,-53,4,-84V-272l123,-18v-35Z" 
id="f3_t"
transform="scale(0.001,-0.001)" />

<path d="M442,0V33l93,19V504c0,0,0,129,-124,129c0,0,-70,0,-168,-22V52L338,33V0H31V33l88,19v956L15,1026v34H243V756c0,0,0,-77,-5,-112c0,0,54,31,122,53c0,0,68,23,115,23c0,0,91,0,137,-53c0,0,47,-53,47,-154V52L744,33V0Z" 
id="f3_o"
transform="scale(0.001,-0.001)" />

<path d="M280,0L660,987H125v127H841v-64L437,0Z" 
id="f2_1n"
transform="scale(0.001,-0.001)" />


</defs>
</svg>