<?xml version="1.0" encoding="UTF-8" standalone="no"?>
<!DOCTYPE svg PUBLIC "-//W3C//DTD SVG 1.1//EN"
"http://www.w3.org/Graphics/SVG/1.1/DTD/svg11.dtd">
<svg viewBox="0 0 909 1286" version="1.1" xmlns="http://www.w3.org/2000/svg" xmlns:xlink="http://www.w3.org/1999/xlink">
<defs>
<clipPath id="c0_3"><path d="M0,1286.2V0H909.4V1286.2Z" /></clipPath>
<style type="text/css"><![CDATA[
.g0_3{
fill: #D8D8D8;
}
.g1_3{
fill: none;
stroke: #000000;
stroke-width: 0.7638889;
stroke-linecap: butt;
stroke-linejoin: round;
}
]]></style>
</defs>
<path fill-rule="evenodd" d="M454.7,444.7H780.3V422.6H454.7v22.1Z" class="g0_3" />
<path fill-rule="evenodd" d="M128.9,444.7H454.6V422.6H128.9v22.1Z" class="g0_3" />
<path fill-rule="evenodd" d="M454.7,444.7H780.3V422.6H454.7v22.1Z" class="g0_3" />
<path fill-rule="evenodd" d="M128.9,444.7H454.6V422.6H128.9v22.1Z" class="g0_3" />
<g clip-path="url(#c0_3)">
<g fill="#000000" >
<use xlink:href="#f0_3" transform="matrix(12,0,0,12,587.1,127.1)" />
<use xlink:href="#f0_m" transform="matrix(12,0,0,12,591.2,127.1)" />
<use xlink:href="#f0_h" transform="matrix(12,0,0,12,601.6,127.1)" />
<use xlink:href="#f0_k" transform="matrix(12,0,0,12,613.1,127.1)" />
<use xlink:href="#f0_g" transform="matrix(12,0,0,12,630.5,127.1)" />
<use xlink:href="#f0_l" transform="matrix(12,0,0,12,642.5,127.1)" />
<use xlink:href="#f0_g" transform="matrix(12,0,0,12,660.7,127.1)" />
<use xlink:href="#f0_6" transform="matrix(12,0,0,12,672.7,127.1)" />
<use xlink:href="#f0_6" transform="matrix(12,0,0,12,677.6,127.1)" />
<use xlink:href="#f0_j" transform="matrix(12,0,0,12,682.7,127.1)" />
<use xlink:href="#f0_b" transform="matrix(12,0,0,12,695.6,127.1)" />
<use xlink:href="#f0_m" transform="matrix(12,0,0,12,707.6,127.1)" />
<use xlink:href="#f0_2" transform="matrix(12,0,0,12,723.9,127.1)" />
<use xlink:href="#f0_3" transform="matrix(12,0,0,12,736.1,127.1)" />
<use xlink:href="#f0_q" transform="matrix(12,0,0,12,740.2,127.1)" />
<use xlink:href="#f0_b" transform="matrix(12,0,0,12,747.7,127.1)" />
<use xlink:href="#f0_6" transform="matrix(12,0,0,12,759.6,127.1)" />
<use xlink:href="#f0_9" transform="matrix(12,0,0,12,764.6,127.1)" />
<use xlink:href="#f1_c" transform="matrix(11,0,0,11,566.8,127.1)" />
<use xlink:href="#f1_9" transform="matrix(11,0,0,11,573.4,127.1)" />
<use xlink:href="#f0_g" transform="matrix(12,0,0,12,138,127.1)" />
<use xlink:href="#f0_p" transform="matrix(12,0,0,12,150,127.1)" />
<use xlink:href="#f0_3" transform="matrix(12,0,0,12,163,127.1)" />
<use xlink:href="#f0_6" transform="matrix(12,0,0,12,167,127.1)" />
<use xlink:href="#f0_4" transform="matrix(12,0,0,12,172,127.1)" />
<use xlink:href="#f0_7" transform="matrix(12,0,0,12,181.9,127.1)" />
<use xlink:href="#f0_l" transform="matrix(12,0,0,12,200.4,127.1)" />
<use xlink:href="#f0_m" transform="matrix(12,0,0,12,212.6,127.1)" />
<use xlink:href="#f0_t" transform="matrix(12,0,0,12,229,127.1)" />
<use xlink:href="#f0_l" transform="matrix(12,0,0,12,238.7,127.1)" />
<use xlink:href="#f0_f" transform="matrix(12,0,0,12,257,127.1)" />
<use xlink:href="#f0_b" transform="matrix(12,0,0,12,262.8,127.1)" />
<use xlink:href="#f0_a" transform="matrix(12,0,0,12,274.8,127.1)" />
<use xlink:href="#f0_6" transform="matrix(12,0,0,12,285.3,127.1)" />
<use xlink:href="#f0_i" transform="matrix(12,0,0,12,290.3,127.1)" />
<use xlink:href="#f0_b" transform="matrix(12,0,0,12,308.2,127.1)" />
<use xlink:href="#f0_l" transform="matrix(12,0,0,12,320.1,127.1)" />
<use xlink:href="#f0_6" transform="matrix(12,0,0,12,332.3,127.1)" />
<use xlink:href="#f0_6" transform="matrix(12,0,0,12,337.3,127.1)" />
<use xlink:href="#f0_j" transform="matrix(12,0,0,12,342.4,127.1)" />
<use xlink:href="#f0_b" transform="matrix(12,0,0,12,355.3,127.1)" />
<use xlink:href="#f0_b" transform="matrix(12,0,0,12,367.3,127.1)" />
<use xlink:href="#f0_r" transform="matrix(12,0,0,12,385.1,127.1)" />
<use xlink:href="#f0_g" transform="matrix(12,0,0,12,390.9,127.1)" />
<use xlink:href="#f0_3" transform="matrix(12,0,0,12,403,127.1)" />
<use xlink:href="#f0_d" transform="matrix(12,0,0,12,407.1,127.1)" />
<use xlink:href="#f0_a" transform="matrix(12,0,0,12,417.4,127.1)" />
<use xlink:href="#f0_h" transform="matrix(12,0,0,12,428,127.1)" />
<use xlink:href="#f0_a" transform="matrix(12,0,0,12,439.4,127.1)" />
<use xlink:href="#f0_m" transform="matrix(12,0,0,12,455.9,127.1)" />
<use xlink:href="#f0_h" transform="matrix(12,0,0,12,466.3,127.1)" />
<use xlink:href="#f0_k" transform="matrix(12,0,0,12,477.8,127.1)" />
<use xlink:href="#f0_g" transform="matrix(12,0,0,12,489.2,127.1)" />
<use xlink:href="#f0_b" transform="matrix(12,0,0,12,501.3,127.1)" />
<use xlink:href="#f0_e" transform="matrix(12,0,0,12,519.1,127.1)" />
<use xlink:href="#f0_3" transform="matrix(12,0,0,12,524.1,127.1)" />
<use xlink:href="#f0_3" transform="matrix(12,0,0,12,528.3,127.1)" />
<use xlink:href="#f0_9" transform="matrix(12,0,0,12,532.4,127.1)" />
<use xlink:href="#f0_a" transform="matrix(12,0,0,12,539.7,127.1)" />
<use xlink:href="#f0_m" transform="matrix(12,0,0,12,550.2,127.1)" />
<use xlink:href="#f0_m" transform="matrix(12,0,0,12,589.1,148.5)" />
<use xlink:href="#f0_h" transform="matrix(12,0,0,12,599.5,148.5)" />
<use xlink:href="#f0_6" transform="matrix(12,0,0,12,610.9,148.5)" />
<use xlink:href="#f0_k" transform="matrix(12,0,0,12,616,148.5)" />
<use xlink:href="#f0_b" transform="matrix(12,0,0,12,627.4,148.5)" />
<use xlink:href="#f0_m" transform="matrix(12,0,0,12,646.9,148.5)" />
<use xlink:href="#f0_j" transform="matrix(12,0,0,12,657.3,148.5)" />
<use xlink:href="#f0_7" transform="matrix(12,0,0,12,670.3,148.5)" />
<use xlink:href="#f0_m" transform="matrix(12,0,0,12,682.7,148.5)" />
<use xlink:href="#f0_t" transform="matrix(12,0,0,12,700.7,148.5)" />
<use xlink:href="#f0_c" transform="matrix(12,0,0,12,710.5,148.5)" />
<use xlink:href="#f0_f" transform="matrix(12,0,0,12,727.7,148.5)" />
<use xlink:href="#f0_4" transform="matrix(12,0,0,12,733.5,148.5)" />
<use xlink:href="#f0_3" transform="matrix(12,0,0,12,743.4,148.5)" />
<use xlink:href="#f0_7" transform="matrix(12,0,0,12,747.5,148.5)" />
<use xlink:href="#f0_g" transform="matrix(12,0,0,12,759.9,148.5)" />
<use xlink:href="#f1_6" transform="matrix(11,0,0,11,519.4,148.5)" />
<use xlink:href="#f1_7" transform="matrix(11,0,0,11,526.9,148.5)" />
<use xlink:href="#f1_3" transform="matrix(11,0,0,11,534.4,148.5)" />
<use xlink:href="#f1_c" transform="matrix(11,0,0,11,542.8,148.5)" />
<use xlink:href="#f1_e" transform="matrix(11,0,0,11,549.2,148.5)" />
<use xlink:href="#f1_6" transform="matrix(11,0,0,11,553.9,148.5)" />
<use xlink:href="#f1_a" transform="matrix(11,0,0,11,561.4,148.5)" />
<use xlink:href="#f1_c" transform="matrix(11,0,0,11,567,148.5)" />
<use xlink:href="#f1_9" transform="matrix(11,0,0,11,573.6,148.5)" />
<use xlink:href="#f0_m" transform="matrix(12,0,0,12,138,148.5)" />
<use xlink:href="#f0_h" transform="matrix(12,0,0,12,148.4,148.5)" />
<use xlink:href="#f0_6" transform="matrix(12,0,0,12,159.8,148.5)" />
<use xlink:href="#f0_k" transform="matrix(12,0,0,12,164.7,148.5)" />
<use xlink:href="#f0_e" transform="matrix(12,0,0,12,183.8,148.5)" />
<use xlink:href="#f0_3" transform="matrix(12,0,0,12,188.7,148.5)" />
<use xlink:href="#f0_l" transform="matrix(12,0,0,12,192.8,148.5)" />
<use xlink:href="#f0_r" transform="matrix(12,0,0,12,212.6,148.5)" />
<use xlink:href="#f0_t" transform="matrix(12,0,0,12,218.4,148.5)" />
<use xlink:href="#f0_7" transform="matrix(12,0,0,12,228.2,148.5)" />
<use xlink:href="#f0_n" transform="matrix(12,0,0,12,240.7,148.5)" />
<use xlink:href="#f0_h" transform="matrix(12,0,0,12,251.6,148.5)" />
<use xlink:href="#f0_a" transform="matrix(12,0,0,12,270.6,148.5)" />
<use xlink:href="#f0_3" transform="matrix(12,0,0,12,281.2,148.5)" />
<use xlink:href="#f0_c" transform="matrix(12,0,0,12,285.3,148.5)" />
<use xlink:href="#f0_j" transform="matrix(12,0,0,12,294.9,148.5)" />
<use xlink:href="#f0_b" transform="matrix(12,0,0,12,307.9,148.5)" />
<use xlink:href="#f0_m" transform="matrix(12,0,0,12,319.8,148.5)" />
<use xlink:href="#f0_6" transform="matrix(12,0,0,12,337.6,148.5)" />
<use xlink:href="#f0_l" transform="matrix(12,0,0,12,342.7,148.5)" />
<use xlink:href="#f0_e" transform="matrix(12,0,0,12,362.5,148.5)" />
<use xlink:href="#f0_6" transform="matrix(12,0,0,12,367.4,148.5)" />
<use xlink:href="#f0_j" transform="matrix(12,0,0,12,372.4,148.5)" />
<use xlink:href="#f0_3" transform="matrix(12,0,0,12,385.4,148.5)" />
<use xlink:href="#f0_m" transform="matrix(12,0,0,12,389.5,148.5)" />
<use xlink:href="#f0_g" transform="matrix(12,0,0,12,407.5,148.5)" />
<use xlink:href="#f0_c" transform="matrix(12,0,0,12,419.5,148.5)" />
<use xlink:href="#f0_m" transform="matrix(12,0,0,12,429.2,148.5)" />
<use xlink:href="#f0_m" transform="matrix(12,0,0,12,439.6,148.5)" />
<use xlink:href="#f0_6" transform="matrix(12,0,0,12,457.4,148.5)" />
<use xlink:href="#f0_h" transform="matrix(12,0,0,12,462.4,148.5)" />
<use xlink:href="#f0_7" transform="matrix(12,0,0,12,473.9,148.5)" />
<use xlink:href="#f0_j" transform="matrix(12,0,0,12,486.3,148.5)" />
<use xlink:href="#f0_7" transform="matrix(12,0,0,12,499.2,148.5)" />
<use xlink:href="#f0_r" transform="matrix(12,0,0,12,600.7,169.9)" />
<use xlink:href="#f0_m" transform="matrix(12,0,0,12,606.5,169.9)" />
<use xlink:href="#f0_h" transform="matrix(12,0,0,12,616.9,169.9)" />
<use xlink:href="#f0_k" transform="matrix(12,0,0,12,628.4,169.9)" />
<use xlink:href="#f0_g" transform="matrix(12,0,0,12,639.8,169.9)" />
<use xlink:href="#f0_b" transform="matrix(12,0,0,12,651.9,169.9)" />
<use xlink:href="#f0_e" transform="matrix(12,0,0,12,669.7,169.9)" />
<use xlink:href="#f0_3" transform="matrix(12,0,0,12,674.6,169.9)" />
<use xlink:href="#f0_3" transform="matrix(12,0,0,12,678.7,169.9)" />
<use xlink:href="#f0_9" transform="matrix(12,0,0,12,682.8,169.9)" />
<use xlink:href="#f0_a" transform="matrix(12,0,0,12,690.2,169.9)" />
<use xlink:href="#f0_7" transform="matrix(12,0,0,12,700.7,169.9)" />
<use xlink:href="#f0_2" transform="matrix(12,0,0,12,719,169.9)" />
<use xlink:href="#f0_3" transform="matrix(12,0,0,12,731.2,169.9)" />
<use xlink:href="#f0_l" transform="matrix(12,0,0,12,735.3,169.9)" />
<use xlink:href="#f0_g" transform="matrix(12,0,0,12,747.6,169.9)" />
<use xlink:href="#f0_7" transform="matrix(12,0,0,12,759.5,169.9)" />
<use xlink:href="#f2_i" transform="matrix(12,0,0,12,443.8,210.5)" />
<use xlink:href="#f2_7" transform="matrix(12,0,0,12,462.9,210.5)" />
<use xlink:href="#f2_9" transform="matrix(12,0,0,12,475.4,210.5)" />
<use xlink:href="#f2_9" transform="matrix(12,0,0,12,480.7,210.5)" />
<use xlink:href="#f2_r" transform="matrix(12,0,0,12,486.1,210.5)" />
<use xlink:href="#f2_i" transform="matrix(12,0,0,12,498.6,210.5)" />
<use xlink:href="#f2_7" transform="matrix(12,0,0,12,517.5,210.5)" />
<use xlink:href="#f2_j" transform="matrix(12,0,0,12,530,210.5)" />
<use xlink:href="#f2_q" transform="matrix(12,0,0,12,549.7,210.5)" />
<use xlink:href="#f2_4" transform="matrix(12,0,0,12,562.1,210.5)" />
<use xlink:href="#f2_b" transform="matrix(12,0,0,12,573.1,210.5)" />
<use xlink:href="#f2_o" transform="matrix(12,0,0,12,585,210.5)" />
<use xlink:href="#f2_t" transform="matrix(12,0,0,12,599.7,210.5)" />
<use xlink:href="#f2_g" transform="matrix(12,0,0,12,606.7,210.5)" />
<use xlink:href="#f2_9" transform="matrix(12,0,0,12,619.5,210.5)" />
<use xlink:href="#f2_j" transform="matrix(12,0,0,12,624.8,210.5)" />
<use xlink:href="#f2_s" transform="matrix(12,0,0,12,638.1,210.5)" />
<use xlink:href="#f2_8" transform="matrix(12,0,0,12,652,210.5)" />
<use xlink:href="#f2_a" transform="matrix(12,0,0,12,658.3,210.5)" />
<use xlink:href="#f2_m" transform="matrix(12,0,0,12,671.6,210.5)" />
<use xlink:href="#f2_8" transform="matrix(12,0,0,12,689.1,210.5)" />
<use xlink:href="#f2_a" transform="matrix(12,0,0,12,695.4,210.5)" />
<use xlink:href="#f2_h" transform="matrix(12,0,0,12,708.6,210.5)" />
<use xlink:href="#f2_9" transform="matrix(12,0,0,12,725.6,210.5)" />
<use xlink:href="#f2_8" transform="matrix(12,0,0,12,730.9,210.5)" />
<use xlink:href="#f2_8" transform="matrix(12,0,0,12,737.2,210.5)" />
<use xlink:href="#f2_9" transform="matrix(12,0,0,12,743.5,210.5)" />
<use xlink:href="#f2_b" transform="matrix(12,0,0,12,748.8,210.5)" />
<use xlink:href="#f2_m" transform="matrix(12,0,0,12,760.7,210.5)" />
<use xlink:href="#f3_p" transform="matrix(11,0,0,11,423.2,210.5)" />
<use xlink:href="#f3_l" transform="matrix(11,0,0,11,429.7,210.5)" />
<use xlink:href="#f2_e" transform="matrix(12,0,0,12,242,210.5)" />
<use xlink:href="#f2_d" transform="matrix(12,0,0,12,249.3,210.5)" />
<use xlink:href="#f2_c" transform="matrix(12,0,0,12,260.3,210.5)" />
<use xlink:href="#f2_8" transform="matrix(12,0,0,12,272.5,210.5)" />
<use xlink:href="#f2_5" transform="matrix(12,0,0,12,278.8,210.5)" />
<use xlink:href="#f2_d" transform="matrix(12,0,0,12,290.8,210.5)" />
<use xlink:href="#f2_f" transform="matrix(12,0,0,12,308.4,210.5)" />
<use xlink:href="#f2_8" transform="matrix(12,0,0,12,319.2,210.5)" />
<use xlink:href="#f2_a" transform="matrix(12,0,0,12,325.5,210.5)" />
<use xlink:href="#f2_b" transform="matrix(12,0,0,12,338.7,210.5)" />
<use xlink:href="#f2_m" transform="matrix(12,0,0,12,350.7,210.5)" />
<use xlink:href="#f2_8" transform="matrix(12,0,0,12,361.8,210.5)" />
<use xlink:href="#f2_9" transform="matrix(12,0,0,12,374.6,210.5)" />
<use xlink:href="#f2_4" transform="matrix(12,0,0,12,380,210.5)" />
<use xlink:href="#f2_u" transform="matrix(12,0,0,12,391,210.5)" />
<use xlink:href="#f2_j" transform="matrix(12,0,0,12,403.5,210.5)" />
<use xlink:href="#f0_t" transform="matrix(12,0,0,12,235.1,231.9)" />
<use xlink:href="#f0_m" transform="matrix(12,0,0,12,244.9,231.9)" />
<use xlink:href="#f0_6" transform="matrix(12,0,0,12,255.3,231.9)" />
<use xlink:href="#f0_b" transform="matrix(12,0,0,12,260.2,231.9)" />
<use xlink:href="#f0_w" transform="matrix(12,0,0,12,272.1,231.9)" />
<use xlink:href="#f0_p" transform="matrix(12,0,0,12,329.2,231.9)" />
<use xlink:href="#f0_m" transform="matrix(12,0,0,12,342.2,231.9)" />
<use xlink:href="#f0_g" transform="matrix(12,0,0,12,352.6,231.9)" />
<use xlink:href="#f0_s" transform="matrix(12,0,0,12,364.6,231.9)" />
<use xlink:href="#f0_b" transform="matrix(12,0,0,12,376.5,231.9)" />
<use xlink:href="#f0_y" transform="matrix(12,0,0,12,388.4,231.9)" />
<use xlink:href="#f0_a" transform="matrix(12,0,0,12,394.6,231.9)" />
<use xlink:href="#f0_6" transform="matrix(12,0,0,12,405.1,231.9)" />
<use xlink:href="#f0_o" transform="matrix(12,0,0,12,410.1,231.9)" />
<use xlink:href="#f0_h" transform="matrix(12,0,0,12,416.5,231.9)" />
<use xlink:href="#f0_16" transform="matrix(12,0,0,12,369,253.3)" />
<use xlink:href="#f0_x" transform="matrix(12,0,0,12,376.3,253.3)" />
<use xlink:href="#f0_t" transform="matrix(12,0,0,12,383.5,253.3)" />
<use xlink:href="#f0_7" transform="matrix(12,0,0,12,393.2,253.3)" />
<use xlink:href="#f0_n" transform="matrix(12,0,0,12,405.7,253.3)" />
<use xlink:href="#f0_h" transform="matrix(12,0,0,12,416.6,253.3)" />
<use xlink:href="#f1_4" transform="matrix(11,0,0,11,137.7,230.5)" />
<use xlink:href="#f1_9" transform="matrix(11,0,0,11,146.1,230.5)" />
<use xlink:href="#f3_h" transform="matrix(11,0,0,11,153.5,230.5)" />
<use xlink:href="#f3_l" transform="matrix(11,0,0,11,159.2,230.5)" />
<use xlink:href="#f3_11" transform="matrix(11,0,0,11,166.5,230.5)" />
<use xlink:href="#f0_16" transform="matrix(12,0,0,12,358.6,274.7)" />
<use xlink:href="#f0_6" transform="matrix(12,0,0,12,365.9,274.7)" />
<use xlink:href="#f0_n" transform="matrix(12,0,0,12,370.9,274.7)" />
<use xlink:href="#f0_5" transform="matrix(12,0,0,12,381.8,274.7)" />
<use xlink:href="#f0_d" transform="matrix(12,0,0,12,393.7,274.7)" />
<use xlink:href="#f0_g" transform="matrix(12,0,0,12,404.1,274.7)" />
<use xlink:href="#f0_b" transform="matrix(12,0,0,12,416.1,274.7)" />
<use xlink:href="#f1_d" transform="matrix(11,0,0,11,137.7,273.3)" />
<use xlink:href="#f1_1b" transform="matrix(11,0,0,11,142.4,273.3)" />
<use xlink:href="#f1_4" transform="matrix(11,0,0,11,149.8,273.3)" />
<use xlink:href="#f1_9" transform="matrix(11,0,0,11,158.2,273.3)" />
<use xlink:href="#f1_n" transform="matrix(11,0,0,11,165.7,273.3)" />
<use xlink:href="#f3_p" transform="matrix(11,0,0,11,174.2,273.3)" />
<use xlink:href="#f3_l" transform="matrix(11,0,0,11,180.6,273.3)" />
<use xlink:href="#f3_11" transform="matrix(11,0,0,11,188,273.3)" />
<use xlink:href="#f2_9" transform="matrix(12,0,0,12,502.3,354.1)" />
<use xlink:href="#f2_d" transform="matrix(12,0,0,12,507.7,354.1)" />
<use xlink:href="#f2_c" transform="matrix(12,0,0,12,518.7,354.1)" />
<use xlink:href="#f2_5" transform="matrix(12,0,0,12,530.9,354.1)" />
<use xlink:href="#f2_8" transform="matrix(12,0,0,12,542.9,354.1)" />
<use xlink:href="#f2_g" transform="matrix(12,0,0,12,555.6,354.1)" />
<use xlink:href="#f2_9" transform="matrix(12,0,0,12,568.4,354.1)" />
<use xlink:href="#f2_d" transform="matrix(12,0,0,12,573.8,354.1)" />
<use xlink:href="#f2_9" transform="matrix(12,0,0,12,584.9,354.1)" />
<use xlink:href="#f2_v" transform="matrix(12,0,0,12,590.2,354.1)" />
<use xlink:href="#f2_4" transform="matrix(12,0,0,12,598.5,354.1)" />
<use xlink:href="#f2_g" transform="matrix(12,0,0,12,615.7,354.1)" />
<use xlink:href="#f2_9" transform="matrix(12,0,0,12,628.5,354.1)" />
<use xlink:href="#f2_d" transform="matrix(12,0,0,12,633.9,354.1)" />
<use xlink:href="#f2_c" transform="matrix(12,0,0,12,645,354.1)" />
<use xlink:href="#f2_5" transform="matrix(12,0,0,12,657.2,354.1)" />
<use xlink:href="#f2_7" transform="matrix(12,0,0,12,675.7,354.1)" />
<use xlink:href="#f2_a" transform="matrix(12,0,0,12,688.2,354.1)" />
<use xlink:href="#f2_9" transform="matrix(12,0,0,12,701.5,354.1)" />
<use xlink:href="#f2_s" transform="matrix(12,0,0,12,706.8,354.1)" />
<use xlink:href="#f2_4" transform="matrix(12,0,0,12,720.7,354.1)" />
<use xlink:href="#f2_v" transform="matrix(12,0,0,12,738.1,354.1)" />
<use xlink:href="#f2_9" transform="matrix(12,0,0,12,746.4,354.1)" />
<use xlink:href="#f2_b" transform="matrix(12,0,0,12,751.7,354.1)" />
<use xlink:href="#f2_o" transform="matrix(12,0,0,12,763.6,354.1)" />
<use xlink:href="#f3_p" transform="matrix(11,0,0,11,481.6,354.1)" />
<use xlink:href="#f3_l" transform="matrix(11,0,0,11,488.1,354.1)" />
<use xlink:href="#f2_g" transform="matrix(12,0,0,12,418,354.1)" />
<use xlink:href="#f2_9" transform="matrix(12,0,0,12,430.8,354.1)" />
<use xlink:href="#f2_5" transform="matrix(12,0,0,12,436.2,354.1)" />
<use xlink:href="#f2_n" transform="matrix(12,0,0,12,448.2,354.1)" />
<use xlink:href="#f2_8" transform="matrix(12,0,0,12,460.7,354.1)" />
<use xlink:href="#f2_o" transform="matrix(12,0,0,12,467,354.1)" />
<use xlink:href="#f0_v" transform="matrix(12,0,0,12,453.6,375.5)" />
<use xlink:href="#f0_11" transform="matrix(12,0,0,12,468.2,375.5)" />
<use xlink:href="#f0_s" transform="matrix(12,0,0,12,480,375.5)" />
<use xlink:href="#f0_6" transform="matrix(12,0,0,12,491.9,375.5)" />
<use xlink:href="#f0_b" transform="matrix(12,0,0,12,496.9,375.5)" />
<use xlink:href="#f0_f" transform="matrix(12,0,0,12,515,375.5)" />
<use xlink:href="#f0_m" transform="matrix(12,0,0,12,520.8,375.5)" />
<use xlink:href="#f0_l" transform="matrix(12,0,0,12,531.2,375.5)" />
<use xlink:href="#f0_7" transform="matrix(12,0,0,12,543.5,375.5)" />
<use xlink:href="#f0_j" transform="matrix(12,0,0,12,556,375.5)" />
<use xlink:href="#f0_4" transform="matrix(12,0,0,12,575.2,375.5)" />
<use xlink:href="#f0_n" transform="matrix(12,0,0,12,585.2,375.5)" />
<use xlink:href="#f0_a" transform="matrix(12,0,0,12,596.1,375.5)" />
<use xlink:href="#f0_j" transform="matrix(12,0,0,12,606.6,375.5)" />
<use xlink:href="#f0_b" transform="matrix(12,0,0,12,626,375.5)" />
<use xlink:href="#f0_4" transform="matrix(12,0,0,12,637.9,375.5)" />
<use xlink:href="#f0_6" transform="matrix(12,0,0,12,647.9,375.5)" />
<use xlink:href="#f0_7" transform="matrix(12,0,0,12,652.9,375.5)" />
<use xlink:href="#f0_h" transform="matrix(12,0,0,12,665.4,375.5)" />
<use xlink:href="#f0_b" transform="matrix(12,0,0,12,676.8,375.5)" />
<use xlink:href="#f0_g" transform="matrix(12,0,0,12,695,375.5)" />
<use xlink:href="#f0_l" transform="matrix(12,0,0,12,707,375.5)" />
<use xlink:href="#f0_d" transform="matrix(12,0,0,12,725.5,375.5)" />
<use xlink:href="#f0_g" transform="matrix(12,0,0,12,735.9,375.5)" />
<use xlink:href="#f0_s" transform="matrix(12,0,0,12,747.9,375.5)" />
<use xlink:href="#f0_b" transform="matrix(12,0,0,12,759.8,375.5)" />
<use xlink:href="#f2_k" transform="matrix(12,0,0,12,405.2,375.5)" />
<use xlink:href="#f2_a" transform="matrix(12,0,0,12,415.7,375.5)" />
<use xlink:href="#f2_b" transform="matrix(12,0,0,12,429,375.5)" />
<use xlink:href="#f2_c" transform="matrix(12,0,0,12,440.9,375.5)" />
<use xlink:href="#f0_j" transform="matrix(12,0,0,12,138,375.5)" />
<use xlink:href="#f0_5" transform="matrix(12,0,0,12,150.9,375.5)" />
<use xlink:href="#f0_9" transform="matrix(12,0,0,12,162.9,375.5)" />
<use xlink:href="#f0_m" transform="matrix(12,0,0,12,170.2,375.5)" />
<use xlink:href="#f0_b" transform="matrix(12,0,0,12,186.8,375.5)" />
<use xlink:href="#f0_s" transform="matrix(12,0,0,12,198.7,375.5)" />
<use xlink:href="#f0_9" transform="matrix(12,0,0,12,210.6,375.5)" />
<use xlink:href="#f0_6" transform="matrix(12,0,0,12,217.9,375.5)" />
<use xlink:href="#f0_e" transform="matrix(12,0,0,12,229.2,375.5)" />
<use xlink:href="#f0_3" transform="matrix(12,0,0,12,234.2,375.5)" />
<use xlink:href="#f0_7" transform="matrix(12,0,0,12,238.2,375.5)" />
<use xlink:href="#f0_3" transform="matrix(12,0,0,12,250.7,375.5)" />
<use xlink:href="#f0_7" transform="matrix(12,0,0,12,254.7,375.5)" />
<use xlink:href="#f0_b" transform="matrix(12,0,0,12,273.6,375.5)" />
<use xlink:href="#f0_4" transform="matrix(12,0,0,12,285.5,375.5)" />
<use xlink:href="#f0_6" transform="matrix(12,0,0,12,295.6,375.5)" />
<use xlink:href="#f0_7" transform="matrix(12,0,0,12,300.5,375.5)" />
<use xlink:href="#f0_h" transform="matrix(12,0,0,12,313,375.5)" />
<use xlink:href="#f0_a" transform="matrix(12,0,0,12,324.4,375.5)" />
<use xlink:href="#f0_m" transform="matrix(12,0,0,12,341.4,375.5)" />
<use xlink:href="#f0_h" transform="matrix(12,0,0,12,351.8,375.5)" />
<use xlink:href="#f0_6" transform="matrix(12,0,0,12,363.2,375.5)" />
<use xlink:href="#f0_k" transform="matrix(12,0,0,12,368.1,375.5)" />
<use xlink:href="#f0_m" transform="matrix(12,0,0,12,379.6,375.5)" />
<use xlink:href="#f0_v" transform="matrix(12,0,0,12,396.3,375.5)" />
<use xlink:href="#f0_13" transform="matrix(12,0,0,12,137.8,396.9)" />
<use xlink:href="#f0_t" transform="matrix(12,0,0,12,161.1,396.9)" />
<use xlink:href="#f0_7" transform="matrix(12,0,0,12,170.9,396.9)" />
<use xlink:href="#f0_n" transform="matrix(12,0,0,12,183.4,396.9)" />
<use xlink:href="#f0_h" transform="matrix(12,0,0,12,194.3,396.9)" />
<use xlink:href="#f0_a" transform="matrix(12,0,0,12,213.6,396.9)" />
<use xlink:href="#f0_3" transform="matrix(12,0,0,12,224.2,396.9)" />
<use xlink:href="#f0_j" transform="matrix(12,0,0,12,228.3,396.9)" />
<use xlink:href="#f0_6" transform="matrix(12,0,0,12,241.3,396.9)" />
<use xlink:href="#f0_b" transform="matrix(12,0,0,12,246.3,396.9)" />
<use xlink:href="#f0_m" transform="matrix(12,0,0,12,258.2,396.9)" />
<use xlink:href="#f0_13" transform="matrix(12,0,0,12,276.4,396.9)" />
<use xlink:href="#f0_t" transform="matrix(12,0,0,12,299.7,396.9)" />
<use xlink:href="#f0_7" transform="matrix(12,0,0,12,309.5,396.9)" />
<use xlink:href="#f0_n" transform="matrix(12,0,0,12,322,396.9)" />
<use xlink:href="#f0_h" transform="matrix(12,0,0,12,332.8,396.9)" />
<use xlink:href="#f0_u" transform="matrix(12,0,0,12,352,396.9)" />
<use xlink:href="#f0_a" transform="matrix(12,0,0,12,375.4,396.9)" />
<use xlink:href="#f0_3" transform="matrix(12,0,0,12,385.9,396.9)" />
<use xlink:href="#f0_j" transform="matrix(12,0,0,12,390,396.9)" />
<use xlink:href="#f0_6" transform="matrix(12,0,0,12,403,396.9)" />
<use xlink:href="#f0_b" transform="matrix(12,0,0,12,408,396.9)" />
<use xlink:href="#f0_m" transform="matrix(12,0,0,12,419.9,396.9)" />
<use xlink:href="#f0_10" transform="matrix(12,0,0,12,438.2,396.9)" />
<use xlink:href="#f0_m" transform="matrix(12,0,0,12,444.3,396.9)" />
<use xlink:href="#f0_j" transform="matrix(12,0,0,12,454.7,396.9)" />
<use xlink:href="#f0_7" transform="matrix(12,0,0,12,467.7,396.9)" />
<use xlink:href="#f0_m" transform="matrix(12,0,0,12,480.2,396.9)" />
<use xlink:href="#f0_w" transform="matrix(12,0,0,12,490.6,396.9)" />
<use xlink:href="#f0_d" transform="matrix(12,0,0,12,505.7,396.9)" />
<use xlink:href="#f0_n" transform="matrix(12,0,0,12,516.1,396.9)" />
<use xlink:href="#f0_6" transform="matrix(12,0,0,12,526.9,396.9)" />
<use xlink:href="#f0_9" transform="matrix(12,0,0,12,531.8,396.9)" />
<use xlink:href="#f0_j" transform="matrix(12,0,0,12,539.2,396.9)" />
<use xlink:href="#f0_j" transform="matrix(12,0,0,12,560.1,396.9)" />
<use xlink:href="#f0_4" transform="matrix(12,0,0,12,573,396.9)" />
<use xlink:href="#f0_5" transform="matrix(12,0,0,12,583.1,396.9)" />
<use xlink:href="#f0_b" transform="matrix(12,0,0,12,595,396.9)" />
<use xlink:href="#f0_m" transform="matrix(12,0,0,12,614.8,396.9)" />
<use xlink:href="#f0_h" transform="matrix(12,0,0,12,625.2,396.9)" />
<use xlink:href="#f0_6" transform="matrix(12,0,0,12,636.7,396.9)" />
<use xlink:href="#f0_k" transform="matrix(12,0,0,12,641.7,396.9)" />
<use xlink:href="#f0_b" transform="matrix(12,0,0,12,653.2,396.9)" />
<use xlink:href="#f0_g" transform="matrix(12,0,0,12,673,396.9)" />
<use xlink:href="#f0_6" transform="matrix(12,0,0,12,685,396.9)" />
<use xlink:href="#f0_h" transform="matrix(12,0,0,12,689.9,396.9)" />
<use xlink:href="#f0_7" transform="matrix(12,0,0,12,701.4,396.9)" />
<use xlink:href="#f0_j" transform="matrix(12,0,0,12,713.9,396.9)" />
<use xlink:href="#f0_7" transform="matrix(12,0,0,12,726.7,396.9)" />
<use xlink:href="#f0_g" transform="matrix(12,0,0,12,747.2,396.9)" />
<use xlink:href="#f0_l" transform="matrix(12,0,0,12,759.2,396.9)" />
<use xlink:href="#f0_r" transform="matrix(12,0,0,12,693,418.3)" />
<use xlink:href="#f0_x" transform="matrix(12,0,0,12,698.8,418.3)" />
<use xlink:href="#f0_a" transform="matrix(12,0,0,12,706,418.3)" />
<use xlink:href="#f0_j" transform="matrix(12,0,0,12,716.5,418.3)" />
<use xlink:href="#f0_3" transform="matrix(12,0,0,12,729.5,418.3)" />
<use xlink:href="#f0_3" transform="matrix(12,0,0,12,733.6,418.3)" />
<use xlink:href="#f0_g" transform="matrix(12,0,0,12,737.7,418.3)" />
<use xlink:href="#f0_b" transform="matrix(12,0,0,12,749.8,418.3)" />
<use xlink:href="#f0_m" transform="matrix(12,0,0,12,761.7,418.3)" />
</g>
</g>
<path d="M128.6,423H780.8M128.6,445.1H780.8M128.6,467.3H780.8M128.6,489.4H780.8M128.6,511.6H780.8M128.6,533.7H780.8M128.6,555.9H780.8M128.6,578H780.8M128.6,600.2H780.8M128.6,643.7H780.8M128.6,665.9H780.8M128.6,688H780.8M128.6,710.2H780.8M128.6,732.3H780.8M128.6,754.5H780.8M128.6,776.6H780.8M128.9,422.6V777M267.5,444.7V777M454.7,422.6V777M617.5,444.7V777M780.4,422.6V777" class="g1_3" />
<g clip-path="url(#c0_3)">
<g fill="#000000" >
<use xlink:href="#f0_2" transform="matrix(12,0,0,12,667.9,440.5)" />
<use xlink:href="#f0_3" transform="matrix(12,0,0,12,680.2,440.5)" />
<use xlink:href="#f0_m" transform="matrix(12,0,0,12,684.3,440.5)" />
<use xlink:href="#f0_3" transform="matrix(12,0,0,12,694.7,440.5)" />
<use xlink:href="#f0_q" transform="matrix(12,0,0,12,698.8,440.5)" />
<use xlink:href="#f0_d" transform="matrix(12,0,0,12,706.2,440.5)" />
<use xlink:href="#f0_2" transform="matrix(12,0,0,12,722.4,440.5)" />
<use xlink:href="#f0_3" transform="matrix(12,0,0,12,734.6,440.5)" />
<use xlink:href="#f0_m" transform="matrix(12,0,0,12,738.7,440.5)" />
<use xlink:href="#f0_h" transform="matrix(12,0,0,12,749.1,440.5)" />
<use xlink:href="#f0_k" transform="matrix(12,0,0,12,760.6,440.5)" />
<use xlink:href="#f0_3" transform="matrix(12,0,0,12,409,440.5)" />
<use xlink:href="#f0_m" transform="matrix(12,0,0,12,413.1,440.5)" />
<use xlink:href="#f0_h" transform="matrix(12,0,0,12,423.5,440.5)" />
<use xlink:href="#f0_k" transform="matrix(12,0,0,12,435,440.5)" />
<use xlink:href="#f1_c" transform="matrix(11,0,0,11,389.1,440.5)" />
<use xlink:href="#f1_9" transform="matrix(11,0,0,11,395.5,440.5)" />
<use xlink:href="#f0_a" transform="matrix(12,0,0,12,717.1,462.6)" />
<use xlink:href="#f0_3" transform="matrix(12,0,0,12,727.7,462.6)" />
<use xlink:href="#f0_j" transform="matrix(12,0,0,12,731.8,462.6)" />
<use xlink:href="#f0_6" transform="matrix(12,0,0,12,744.8,462.6)" />
<use xlink:href="#f0_b" transform="matrix(12,0,0,12,749.8,462.6)" />
<use xlink:href="#f0_m" transform="matrix(12,0,0,12,761.7,462.6)" />
<use xlink:href="#f1_c" transform="matrix(11,0,0,11,463.4,461.2)" />
<use xlink:href="#f1_9" transform="matrix(11,0,0,11,469.9,461.2)" />
<use xlink:href="#f1_n" transform="matrix(11,0,0,11,477.4,461.2)" />
<use xlink:href="#f1_e" transform="matrix(11,0,0,11,485.8,461.2)" />
<use xlink:href="#f1_6" transform="matrix(11,0,0,11,490.4,461.2)" />
<use xlink:href="#f1_a" transform="matrix(11,0,0,11,497.8,461.2)" />
<use xlink:href="#f0_a" transform="matrix(12,0,0,12,380.3,462.6)" />
<use xlink:href="#f0_j" transform="matrix(12,0,0,12,390.8,462.6)" />
<use xlink:href="#f0_3" transform="matrix(12,0,0,12,403.8,462.6)" />
<use xlink:href="#f0_3" transform="matrix(12,0,0,12,407.9,462.6)" />
<use xlink:href="#f0_g" transform="matrix(12,0,0,12,412,462.6)" />
<use xlink:href="#f0_b" transform="matrix(12,0,0,12,424,462.6)" />
<use xlink:href="#f0_m" transform="matrix(12,0,0,12,436,462.6)" />
<use xlink:href="#f1_c" transform="matrix(11,0,0,11,137.7,461.2)" />
<use xlink:href="#f1_9" transform="matrix(11,0,0,11,144.2,461.2)" />
<use xlink:href="#f1_n" transform="matrix(11,0,0,11,151.7,461.2)" />
<use xlink:href="#f1_e" transform="matrix(11,0,0,11,160.1,461.2)" />
<use xlink:href="#f1_6" transform="matrix(11,0,0,11,164.7,461.2)" />
<use xlink:href="#f1_a" transform="matrix(11,0,0,11,172.1,461.2)" />
<use xlink:href="#f3_p" transform="matrix(11,0,0,11,177.8,461.2)" />
<use xlink:href="#f3_l" transform="matrix(11,0,0,11,184.4,461.2)" />
<use xlink:href="#f0_e" transform="matrix(12,0,0,12,732.7,484.8)" />
<use xlink:href="#f0_g" transform="matrix(12,0,0,12,737.7,484.8)" />
<use xlink:href="#f0_5" transform="matrix(12,0,0,12,749.8,484.8)" />
<use xlink:href="#f0_m" transform="matrix(12,0,0,12,761.7,484.8)" />
<use xlink:href="#f1_7" transform="matrix(11,0,0,11,463.4,483.4)" />
<use xlink:href="#f1_6" transform="matrix(11,0,0,11,470.8,483.4)" />
<use xlink:href="#f1_c" transform="matrix(11,0,0,11,478.3,483.4)" />
<use xlink:href="#f1_6" transform="matrix(11,0,0,11,484.9,483.4)" />
<use xlink:href="#f1_a" transform="matrix(11,0,0,11,492.2,483.4)" />
<use xlink:href="#f0_e" transform="matrix(12,0,0,12,383,484.8)" />
<use xlink:href="#f0_g" transform="matrix(12,0,0,12,388,484.8)" />
<use xlink:href="#f0_5" transform="matrix(12,0,0,12,400.1,484.8)" />
<use xlink:href="#f0_g" transform="matrix(12,0,0,12,412,484.8)" />
<use xlink:href="#f0_b" transform="matrix(12,0,0,12,424,484.8)" />
<use xlink:href="#f0_m" transform="matrix(12,0,0,12,436,484.8)" />
<use xlink:href="#f1_7" transform="matrix(11,0,0,11,137.7,483.4)" />
<use xlink:href="#f1_6" transform="matrix(11,0,0,11,145.1,483.4)" />
<use xlink:href="#f1_c" transform="matrix(11,0,0,11,152.6,483.4)" />
<use xlink:href="#f1_6" transform="matrix(11,0,0,11,159.1,483.4)" />
<use xlink:href="#f1_a" transform="matrix(11,0,0,11,166.5,483.4)" />
<use xlink:href="#f3_p" transform="matrix(11,0,0,11,172.2,483.4)" />
<use xlink:href="#f3_l" transform="matrix(11,0,0,11,178.7,483.4)" />
<use xlink:href="#f0_i" transform="matrix(12,0,0,12,709.3,506.9)" />
<use xlink:href="#f0_3" transform="matrix(12,0,0,12,721.2,506.9)" />
<use xlink:href="#f0_j" transform="matrix(12,0,0,12,725.4,506.9)" />
<use xlink:href="#f0_k" transform="matrix(12,0,0,12,738.3,506.9)" />
<use xlink:href="#f0_b" transform="matrix(12,0,0,12,749.8,506.9)" />
<use xlink:href="#f0_m" transform="matrix(12,0,0,12,761.7,506.9)" />
<use xlink:href="#f1_i" transform="matrix(11,0,0,11,463.4,505.5)" />
<use xlink:href="#f1_9" transform="matrix(11,0,0,11,471.8,505.5)" />
<use xlink:href="#f1_c" transform="matrix(11,0,0,11,479.2,505.5)" />
<use xlink:href="#f1_4" transform="matrix(11,0,0,11,485.8,505.5)" />
<use xlink:href="#f1_9" transform="matrix(11,0,0,11,494.2,505.5)" />
<use xlink:href="#f1_c" transform="matrix(11,0,0,11,501.7,505.5)" />
<use xlink:href="#f1_e" transform="matrix(11,0,0,11,508.1,505.5)" />
<use xlink:href="#f1_b" transform="matrix(11,0,0,11,512.8,505.5)" />
<use xlink:href="#f1_a" transform="matrix(11,0,0,11,517.4,505.5)" />
<use xlink:href="#f0_i" transform="matrix(12,0,0,12,375.7,506.9)" />
<use xlink:href="#f0_j" transform="matrix(12,0,0,12,387.6,506.9)" />
<use xlink:href="#f0_k" transform="matrix(12,0,0,12,400.6,506.9)" />
<use xlink:href="#f0_g" transform="matrix(12,0,0,12,412,506.9)" />
<use xlink:href="#f0_b" transform="matrix(12,0,0,12,424,506.9)" />
<use xlink:href="#f0_m" transform="matrix(12,0,0,12,436,506.9)" />
<use xlink:href="#f1_i" transform="matrix(11,0,0,11,137.7,505.5)" />
<use xlink:href="#f1_9" transform="matrix(11,0,0,11,146.1,505.5)" />
<use xlink:href="#f1_c" transform="matrix(11,0,0,11,153.5,505.5)" />
<use xlink:href="#f1_4" transform="matrix(11,0,0,11,160.1,505.5)" />
<use xlink:href="#f1_9" transform="matrix(11,0,0,11,168.5,505.5)" />
<use xlink:href="#f1_c" transform="matrix(11,0,0,11,175.9,505.5)" />
<use xlink:href="#f1_e" transform="matrix(11,0,0,11,182.4,505.5)" />
<use xlink:href="#f1_b" transform="matrix(11,0,0,11,187.1,505.5)" />
<use xlink:href="#f1_a" transform="matrix(11,0,0,11,191.7,505.5)" />
<use xlink:href="#f3_p" transform="matrix(11,0,0,11,197.4,505.5)" />
<use xlink:href="#f3_l" transform="matrix(11,0,0,11,203.9,505.5)" />
<use xlink:href="#f0_l" transform="matrix(12,0,0,12,711,529.1)" />
<use xlink:href="#f0_3" transform="matrix(12,0,0,12,723.3,529.1)" />
<use xlink:href="#f0_a" transform="matrix(12,0,0,12,727.4,529.1)" />
<use xlink:href="#f0_5" transform="matrix(12,0,0,12,737.9,529.1)" />
<use xlink:href="#f0_b" transform="matrix(12,0,0,12,749.8,529.1)" />
<use xlink:href="#f0_m" transform="matrix(12,0,0,12,761.7,529.1)" />
<use xlink:href="#f1_9" transform="matrix(11,0,0,11,463.4,527.7)" />
<use xlink:href="#f1_c" transform="matrix(11,0,0,11,470.8,527.7)" />
<use xlink:href="#f1_7" transform="matrix(11,0,0,11,477.4,527.7)" />
<use xlink:href="#f1_3" transform="matrix(11,0,0,11,484.9,527.7)" />
<use xlink:href="#f1_n" transform="matrix(11,0,0,11,493.3,527.7)" />
<use xlink:href="#f1_i" transform="matrix(11,0,0,11,501.7,527.7)" />
<use xlink:href="#f1_9" transform="matrix(11,0,0,11,510.1,527.7)" />
<use xlink:href="#f1_a" transform="matrix(11,0,0,11,517.4,527.7)" />
<use xlink:href="#f0_l" transform="matrix(12,0,0,12,377.4,529.1)" />
<use xlink:href="#f0_a" transform="matrix(12,0,0,12,389.6,529.1)" />
<use xlink:href="#f0_5" transform="matrix(12,0,0,12,400.1,529.1)" />
<use xlink:href="#f0_g" transform="matrix(12,0,0,12,412,529.1)" />
<use xlink:href="#f0_b" transform="matrix(12,0,0,12,424.1,529.1)" />
<use xlink:href="#f0_m" transform="matrix(12,0,0,12,436,529.1)" />
<use xlink:href="#f1_9" transform="matrix(11,0,0,11,137.7,527.7)" />
<use xlink:href="#f1_c" transform="matrix(11,0,0,11,145.1,527.7)" />
<use xlink:href="#f1_7" transform="matrix(11,0,0,11,151.7,527.7)" />
<use xlink:href="#f1_3" transform="matrix(11,0,0,11,159.1,527.7)" />
<use xlink:href="#f1_n" transform="matrix(11,0,0,11,167.5,527.7)" />
<use xlink:href="#f1_i" transform="matrix(11,0,0,11,175.9,527.7)" />
<use xlink:href="#f1_9" transform="matrix(11,0,0,11,184.3,527.7)" />
<use xlink:href="#f1_a" transform="matrix(11,0,0,11,191.7,527.7)" />
<use xlink:href="#f3_p" transform="matrix(11,0,0,11,197.4,527.7)" />
<use xlink:href="#f3_l" transform="matrix(11,0,0,11,203.9,527.7)" />
<use xlink:href="#f0_e" transform="matrix(12,0,0,12,731,551.2)" />
<use xlink:href="#f0_3" transform="matrix(12,0,0,12,736.1,551.2)" />
<use xlink:href="#f0_c" transform="matrix(12,0,0,12,740.2,551.2)" />
<use xlink:href="#f0_b" transform="matrix(12,0,0,12,749.8,551.2)" />
<use xlink:href="#f0_m" transform="matrix(12,0,0,12,761.7,551.2)" />
<use xlink:href="#f1_u" transform="matrix(11,0,0,11,463.4,549.8)" />
<use xlink:href="#f1_a" transform="matrix(11,0,0,11,471.8,549.8)" />
<use xlink:href="#f1_9" transform="matrix(11,0,0,11,477.4,549.8)" />
<use xlink:href="#f1_u" transform="matrix(11,0,0,11,484.9,549.8)" />
<use xlink:href="#f1_6" transform="matrix(11,0,0,11,493.3,549.8)" />
<use xlink:href="#f1_a" transform="matrix(11,0,0,11,500.6,549.8)" />
<use xlink:href="#f1_6" transform="matrix(11,0,0,11,506.2,549.8)" />
<use xlink:href="#f1_a" transform="matrix(11,0,0,11,513.7,549.8)" />
<use xlink:href="#f0_e" transform="matrix(12,0,0,12,385,551.2)" />
<use xlink:href="#f0_9" transform="matrix(12,0,0,12,390,551.2)" />
<use xlink:href="#f0_6" transform="matrix(12,0,0,12,397.4,551.2)" />
<use xlink:href="#f0_c" transform="matrix(12,0,0,12,402.4,551.2)" />
<use xlink:href="#f0_g" transform="matrix(12,0,0,12,412,551.2)" />
<use xlink:href="#f0_b" transform="matrix(12,0,0,12,424,551.2)" />
<use xlink:href="#f0_m" transform="matrix(12,0,0,12,436,551.2)" />
<use xlink:href="#f1_u" transform="matrix(11,0,0,11,137.7,549.8)" />
<use xlink:href="#f1_a" transform="matrix(11,0,0,11,146.1,549.8)" />
<use xlink:href="#f1_9" transform="matrix(11,0,0,11,151.7,549.8)" />
<use xlink:href="#f1_u" transform="matrix(11,0,0,11,159.1,549.8)" />
<use xlink:href="#f1_6" transform="matrix(11,0,0,11,167.5,549.8)" />
<use xlink:href="#f1_a" transform="matrix(11,0,0,11,174.9,549.8)" />
<use xlink:href="#f1_6" transform="matrix(11,0,0,11,180.5,549.8)" />
<use xlink:href="#f1_a" transform="matrix(11,0,0,11,188,549.8)" />
<use xlink:href="#f3_p" transform="matrix(11,0,0,11,193.7,549.8)" />
<use xlink:href="#f3_l" transform="matrix(11,0,0,11,200.1,549.8)" />
<use xlink:href="#f0_11" transform="matrix(12,0,0,12,730.3,573.4)" />
<use xlink:href="#f0_3" transform="matrix(12,0,0,12,742,573.4)" />
<use xlink:href="#f0_3" transform="matrix(12,0,0,12,746.1,573.4)" />
<use xlink:href="#f0_h" transform="matrix(12,0,0,12,750.2,573.4)" />
<use xlink:href="#f0_m" transform="matrix(12,0,0,12,761.7,573.4)" />
<use xlink:href="#f1_7" transform="matrix(11,0,0,11,463.4,572)" />
<use xlink:href="#f1_6" transform="matrix(11,0,0,11,470.8,572)" />
<use xlink:href="#f1_n" transform="matrix(11,0,0,11,478.3,572)" />
<use xlink:href="#f1_c" transform="matrix(11,0,0,11,486.7,572)" />
<use xlink:href="#f1_6" transform="matrix(11,0,0,11,493.3,572)" />
<use xlink:href="#f1_a" transform="matrix(11,0,0,11,500.6,572)" />
<use xlink:href="#f0_11" transform="matrix(12,0,0,12,380.6,573.4)" />
<use xlink:href="#f0_3" transform="matrix(12,0,0,12,392.3,573.4)" />
<use xlink:href="#f0_3" transform="matrix(12,0,0,12,396.4,573.4)" />
<use xlink:href="#f0_h" transform="matrix(12,0,0,12,400.5,573.4)" />
<use xlink:href="#f0_g" transform="matrix(12,0,0,12,412,573.4)" />
<use xlink:href="#f0_b" transform="matrix(12,0,0,12,424,573.4)" />
<use xlink:href="#f0_m" transform="matrix(12,0,0,12,436,573.4)" />
<use xlink:href="#f1_7" transform="matrix(11,0,0,11,137.7,572)" />
<use xlink:href="#f1_6" transform="matrix(11,0,0,11,145.1,572)" />
<use xlink:href="#f1_n" transform="matrix(11,0,0,11,152.6,572)" />
<use xlink:href="#f1_c" transform="matrix(11,0,0,11,161,572)" />
<use xlink:href="#f1_6" transform="matrix(11,0,0,11,167.5,572)" />
<use xlink:href="#f1_a" transform="matrix(11,0,0,11,174.9,572)" />
<use xlink:href="#f3_p" transform="matrix(11,0,0,11,180.6,572)" />
<use xlink:href="#f3_l" transform="matrix(11,0,0,11,187.1,572)" />
<use xlink:href="#f0_j" transform="matrix(12,0,0,12,730,595.5)" />
<use xlink:href="#f0_a" transform="matrix(12,0,0,12,743,595.5)" />
<use xlink:href="#f0_3" transform="matrix(12,0,0,12,753.5,595.5)" />
<use xlink:href="#f0_3" transform="matrix(12,0,0,12,757.6,595.5)" />
<use xlink:href="#f0_m" transform="matrix(12,0,0,12,761.7,595.5)" />
<use xlink:href="#f1_c" transform="matrix(11,0,0,11,463.4,594.2)" />
<use xlink:href="#f1_9" transform="matrix(11,0,0,11,469.9,594.2)" />
<use xlink:href="#f1_7" transform="matrix(11,0,0,11,477.4,594.2)" />
<use xlink:href="#f1_6" transform="matrix(11,0,0,11,484.9,594.2)" />
<use xlink:href="#f1_a" transform="matrix(11,0,0,11,492.2,594.2)" />
<use xlink:href="#f0_j" transform="matrix(12,0,0,12,380.3,595.5)" />
<use xlink:href="#f0_a" transform="matrix(12,0,0,12,393.2,595.5)" />
<use xlink:href="#f0_3" transform="matrix(12,0,0,12,403.8,595.5)" />
<use xlink:href="#f0_3" transform="matrix(12,0,0,12,407.9,595.5)" />
<use xlink:href="#f0_g" transform="matrix(12,0,0,12,412,595.5)" />
<use xlink:href="#f0_b" transform="matrix(12,0,0,12,424,595.5)" />
<use xlink:href="#f0_m" transform="matrix(12,0,0,12,436,595.5)" />
<use xlink:href="#f1_c" transform="matrix(11,0,0,11,137.7,594.2)" />
<use xlink:href="#f1_9" transform="matrix(11,0,0,11,144.2,594.2)" />
<use xlink:href="#f1_7" transform="matrix(11,0,0,11,151.7,594.2)" />
<use xlink:href="#f1_6" transform="matrix(11,0,0,11,159.1,594.2)" />
<use xlink:href="#f1_a" transform="matrix(11,0,0,11,166.5,594.2)" />
<use xlink:href="#f3_p" transform="matrix(11,0,0,11,172.2,594.2)" />
<use xlink:href="#f3_l" transform="matrix(11,0,0,11,178.7,594.2)" />
<use xlink:href="#f0_2" transform="matrix(12,0,0,12,732.4,617.7)" />
<use xlink:href="#f0_3" transform="matrix(12,0,0,12,744.6,617.7)" />
<use xlink:href="#f0_j" transform="matrix(12,0,0,12,748.7,617.7)" />
<use xlink:href="#f0_m" transform="matrix(12,0,0,12,761.7,617.7)" />
<use xlink:href="#f1_u" transform="matrix(11,0,0,11,463.4,616.3)" />
<use xlink:href="#f1_3" transform="matrix(11,0,0,11,471.8,616.3)" />
<use xlink:href="#f1_n" transform="matrix(11,0,0,11,480.2,616.3)" />
<use xlink:href="#f1_9" transform="matrix(11,0,0,11,488.6,616.3)" />
<use xlink:href="#f1_a" transform="matrix(11,0,0,11,496,616.3)" />
<use xlink:href="#f0_t" transform="matrix(12,0,0,12,276.2,617.7)" />
<use xlink:href="#f0_7" transform="matrix(12,0,0,12,286,617.7)" />
<use xlink:href="#f0_n" transform="matrix(12,0,0,12,298.4,617.7)" />
<use xlink:href="#f0_h" transform="matrix(12,0,0,12,309.2,617.7)" />
<use xlink:href="#f0_m" transform="matrix(12,0,0,12,352.7,617.7)" />
<use xlink:href="#f0_h" transform="matrix(12,0,0,12,363.1,617.7)" />
<use xlink:href="#f0_2" transform="matrix(12,0,0,12,406.6,617.7)" />
<use xlink:href="#f0_3" transform="matrix(12,0,0,12,418.8,617.7)" />
<use xlink:href="#f0_j" transform="matrix(12,0,0,12,422.9,617.7)" />
<use xlink:href="#f0_m" transform="matrix(12,0,0,12,435.9,617.7)" />
<use xlink:href="#f0_x" transform="matrix(12,0,0,12,363.8,639.1)" />
<use xlink:href="#f0_j" transform="matrix(12,0,0,12,370.9,639.1)" />
<use xlink:href="#f0_a" transform="matrix(12,0,0,12,383.9,639.1)" />
<use xlink:href="#f0_m" transform="matrix(12,0,0,12,394.5,639.1)" />
<use xlink:href="#f0_g" transform="matrix(12,0,0,12,404.8,639.1)" />
<use xlink:href="#f0_b" transform="matrix(12,0,0,12,416.9,639.1)" />
<use xlink:href="#f0_m" transform="matrix(12,0,0,12,428.8,639.1)" />
<use xlink:href="#f0_w" transform="matrix(12,0,0,12,439.2,639.1)" />
<use xlink:href="#f1_u" transform="matrix(11,0,0,11,137.7,616.3)" />
<use xlink:href="#f1_3" transform="matrix(11,0,0,11,146.1,616.3)" />
<use xlink:href="#f1_n" transform="matrix(11,0,0,11,154.5,616.3)" />
<use xlink:href="#f1_9" transform="matrix(11,0,0,11,162.9,616.3)" />
<use xlink:href="#f1_a" transform="matrix(11,0,0,11,170.3,616.3)" />
<use xlink:href="#f3_p" transform="matrix(11,0,0,11,176,616.3)" />
<use xlink:href="#f3_l" transform="matrix(11,0,0,11,182.4,616.3)" />
<use xlink:href="#f0_2" transform="matrix(12,0,0,12,723.1,661.2)" />
<use xlink:href="#f0_3" transform="matrix(12,0,0,12,735.3,661.2)" />
<use xlink:href="#f0_d" transform="matrix(12,0,0,12,739.4,661.2)" />
<use xlink:href="#f0_b" transform="matrix(12,0,0,12,749.8,661.2)" />
<use xlink:href="#f0_m" transform="matrix(12,0,0,12,761.7,661.2)" />
<use xlink:href="#f1_d" transform="matrix(11,0,0,11,463.4,659.8)" />
<use xlink:href="#f1_9" transform="matrix(11,0,0,11,468.1,659.8)" />
<use xlink:href="#f1_4" transform="matrix(11,0,0,11,475.6,659.8)" />
<use xlink:href="#f1_6" transform="matrix(11,0,0,11,484,659.8)" />
<use xlink:href="#f1_n" transform="matrix(11,0,0,11,491.4,659.8)" />
<use xlink:href="#f1_e" transform="matrix(11,0,0,11,499.7,659.8)" />
<use xlink:href="#f1_6" transform="matrix(11,0,0,11,504.4,659.8)" />
<use xlink:href="#f1_a" transform="matrix(11,0,0,11,511.9,659.8)" />
<use xlink:href="#f0_2" transform="matrix(12,0,0,12,405.8,661.2)" />
<use xlink:href="#f0_6" transform="matrix(12,0,0,12,418,661.2)" />
<use xlink:href="#f0_p" transform="matrix(12,0,0,12,423,661.2)" />
<use xlink:href="#f0_m" transform="matrix(12,0,0,12,436,661.2)" />
<use xlink:href="#f1_d" transform="matrix(11,0,0,11,137.7,659.8)" />
<use xlink:href="#f1_9" transform="matrix(11,0,0,11,142.4,659.8)" />
<use xlink:href="#f1_4" transform="matrix(11,0,0,11,149.8,659.8)" />
<use xlink:href="#f1_6" transform="matrix(11,0,0,11,158.2,659.8)" />
<use xlink:href="#f1_n" transform="matrix(11,0,0,11,165.7,659.8)" />
<use xlink:href="#f1_e" transform="matrix(11,0,0,11,174,659.8)" />
<use xlink:href="#f1_6" transform="matrix(11,0,0,11,178.7,659.8)" />
<use xlink:href="#f1_a" transform="matrix(11,0,0,11,186.1,659.8)" />
<use xlink:href="#f3_p" transform="matrix(11,0,0,11,191.9,659.8)" />
<use xlink:href="#f3_l" transform="matrix(11,0,0,11,198.3,659.8)" />
<use xlink:href="#f0_2" transform="matrix(12,0,0,12,725.1,683.4)" />
<use xlink:href="#f0_7" transform="matrix(12,0,0,12,737.3,683.4)" />
<use xlink:href="#f0_5" transform="matrix(12,0,0,12,749.8,683.4)" />
<use xlink:href="#f0_m" transform="matrix(12,0,0,12,761.7,683.4)" />
<use xlink:href="#f1_7" transform="matrix(11,0,0,11,463.4,682)" />
<use xlink:href="#f1_6" transform="matrix(11,0,0,11,470.8,682)" />
<use xlink:href="#f1_d" transform="matrix(11,0,0,11,478.3,682)" />
<use xlink:href="#f1_9" transform="matrix(11,0,0,11,482.9,682)" />
<use xlink:href="#f1_n" transform="matrix(11,0,0,11,490.3,682)" />
<use xlink:href="#f1_e" transform="matrix(11,0,0,11,498.8,682)" />
<use xlink:href="#f1_6" transform="matrix(11,0,0,11,503.5,682)" />
<use xlink:href="#f1_a" transform="matrix(11,0,0,11,510.8,682)" />
<use xlink:href="#f0_2" transform="matrix(12,0,0,12,375.4,683.4)" />
<use xlink:href="#f0_7" transform="matrix(12,0,0,12,387.6,683.4)" />
<use xlink:href="#f0_5" transform="matrix(12,0,0,12,400.1,683.4)" />
<use xlink:href="#f0_g" transform="matrix(12,0,0,12,412,683.4)" />
<use xlink:href="#f0_b" transform="matrix(12,0,0,12,424.1,683.4)" />
<use xlink:href="#f0_m" transform="matrix(12,0,0,12,436,683.4)" />
<use xlink:href="#f1_7" transform="matrix(11,0,0,11,137.7,682)" />
<use xlink:href="#f1_6" transform="matrix(11,0,0,11,145.1,682)" />
<use xlink:href="#f1_d" transform="matrix(11,0,0,11,152.6,682)" />
<use xlink:href="#f1_9" transform="matrix(11,0,0,11,157.2,682)" />
<use xlink:href="#f1_n" transform="matrix(11,0,0,11,164.6,682)" />
<use xlink:href="#f1_e" transform="matrix(11,0,0,11,173,682)" />
<use xlink:href="#f1_6" transform="matrix(11,0,0,11,177.8,682)" />
<use xlink:href="#f1_a" transform="matrix(11,0,0,11,185.1,682)" />
<use xlink:href="#f3_p" transform="matrix(11,0,0,11,190.8,682)" />
<use xlink:href="#f3_l" transform="matrix(11,0,0,11,197.4,682)" />
<use xlink:href="#f0_q" transform="matrix(12,0,0,12,730,705.5)" />
<use xlink:href="#f0_6" transform="matrix(12,0,0,12,737.5,705.5)" />
<use xlink:href="#f0_b" transform="matrix(12,0,0,12,742.5,705.5)" />
<use xlink:href="#f0_9" transform="matrix(12,0,0,12,754.4,705.5)" />
<use xlink:href="#f0_m" transform="matrix(12,0,0,12,761.7,705.5)" />
<use xlink:href="#f1_7" transform="matrix(11,0,0,11,463.4,704.2)" />
<use xlink:href="#f1_3" transform="matrix(11,0,0,11,470.8,704.2)" />
<use xlink:href="#f1_n" transform="matrix(11,0,0,11,479.2,704.2)" />
<use xlink:href="#f1_i" transform="matrix(11,0,0,11,487.6,704.2)" />
<use xlink:href="#f1_p" transform="matrix(11,0,0,11,496,704.2)" />
<use xlink:href="#f1_7" transform="matrix(11,0,0,11,504.4,704.2)" />
<use xlink:href="#f1_b" transform="matrix(11,0,0,11,511.9,704.2)" />
<use xlink:href="#f1_a" transform="matrix(11,0,0,11,516.5,704.2)" />
<use xlink:href="#f0_q" transform="matrix(12,0,0,12,385.3,705.5)" />
<use xlink:href="#f0_b" transform="matrix(12,0,0,12,392.8,705.5)" />
<use xlink:href="#f0_9" transform="matrix(12,0,0,12,404.7,705.5)" />
<use xlink:href="#f0_g" transform="matrix(12,0,0,12,412,705.5)" />
<use xlink:href="#f0_b" transform="matrix(12,0,0,12,424.1,705.5)" />
<use xlink:href="#f0_m" transform="matrix(12,0,0,12,436,705.5)" />
<use xlink:href="#f1_7" transform="matrix(11,0,0,11,137.7,704.2)" />
<use xlink:href="#f1_3" transform="matrix(11,0,0,11,145.1,704.2)" />
<use xlink:href="#f1_n" transform="matrix(11,0,0,11,153.5,704.2)" />
<use xlink:href="#f1_i" transform="matrix(11,0,0,11,161.9,704.2)" />
<use xlink:href="#f1_p" transform="matrix(11,0,0,11,170.3,704.2)" />
<use xlink:href="#f1_7" transform="matrix(11,0,0,11,178.7,704.2)" />
<use xlink:href="#f1_b" transform="matrix(11,0,0,11,186.2,704.2)" />
<use xlink:href="#f1_a" transform="matrix(11,0,0,11,190.8,704.2)" />
<use xlink:href="#f1_c" transform="matrix(11,0,0,11,196.4,704.2)" />
<use xlink:href="#f1_9" transform="matrix(11,0,0,11,203,704.2)" />
<use xlink:href="#f0_l" transform="matrix(12,0,0,12,644.3,727.7)" />
<use xlink:href="#f0_6" transform="matrix(12,0,0,12,656.5,727.7)" />
<use xlink:href="#f0_d" transform="matrix(12,0,0,12,661.5,727.7)" />
<use xlink:href="#f0_p" transform="matrix(12,0,0,12,671.9,727.7)" />
<use xlink:href="#f0_m" transform="matrix(12,0,0,12,684.9,727.7)" />
<use xlink:href="#f0_y" transform="matrix(12,0,0,12,695.3,727.7)" />
<use xlink:href="#f0_d" transform="matrix(12,0,0,12,701.4,727.7)" />
<use xlink:href="#f0_j" transform="matrix(12,0,0,12,711.7,727.7)" />
<use xlink:href="#f0_p" transform="matrix(12,0,0,12,724.7,727.7)" />
<use xlink:href="#f0_g" transform="matrix(12,0,0,12,737.7,727.7)" />
<use xlink:href="#f0_b" transform="matrix(12,0,0,12,749.8,727.7)" />
<use xlink:href="#f0_m" transform="matrix(12,0,0,12,761.7,727.7)" />
<use xlink:href="#f1_d" transform="matrix(11,0,0,11,463.4,726.3)" />
<use xlink:href="#f1_d" transform="matrix(11,0,0,11,468.1,726.3)" />
<use xlink:href="#f1_6" transform="matrix(11,0,0,11,472.7,726.3)" />
<use xlink:href="#f1_8" transform="matrix(11,0,0,11,480.1,726.3)" />
<use xlink:href="#f1_6" transform="matrix(11,0,0,11,493.3,726.3)" />
<use xlink:href="#f1_a" transform="matrix(11,0,0,11,500.6,726.3)" />
<use xlink:href="#f0_x" transform="matrix(12,0,0,12,278.5,727.7)" />
<use xlink:href="#f0_2" transform="matrix(12,0,0,12,285.7,727.7)" />
<use xlink:href="#f0_j" transform="matrix(12,0,0,12,297.9,727.7)" />
<use xlink:href="#f0_a" transform="matrix(12,0,0,12,310.9,727.7)" />
<use xlink:href="#f0_w" transform="matrix(12,0,0,12,321.4,727.7)" />
<use xlink:href="#f0_t" transform="matrix(12,0,0,12,334.5,727.7)" />
<use xlink:href="#f0_7" transform="matrix(12,0,0,12,344.3,727.7)" />
<use xlink:href="#f0_n" transform="matrix(12,0,0,12,356.8,727.7)" />
<use xlink:href="#f0_h" transform="matrix(12,0,0,12,367.7,727.7)" />
<use xlink:href="#f0_m" transform="matrix(12,0,0,12,379.1,727.7)" />
<use xlink:href="#f0_l" transform="matrix(12,0,0,12,395.3,727.7)" />
<use xlink:href="#f0_6" transform="matrix(12,0,0,12,407.5,727.7)" />
<use xlink:href="#f0_d" transform="matrix(12,0,0,12,412.6,727.7)" />
<use xlink:href="#f0_p" transform="matrix(12,0,0,12,422.9,727.7)" />
<use xlink:href="#f0_m" transform="matrix(12,0,0,12,435.9,727.7)" />
<use xlink:href="#f1_d" transform="matrix(11,0,0,11,137.7,726.3)" />
<use xlink:href="#f1_d" transform="matrix(11,0,0,11,142.4,726.3)" />
<use xlink:href="#f1_6" transform="matrix(11,0,0,11,147,726.3)" />
<use xlink:href="#f1_8" transform="matrix(11,0,0,11,154.4,726.3)" />
<use xlink:href="#f1_6" transform="matrix(11,0,0,11,167.5,726.3)" />
<use xlink:href="#f1_a" transform="matrix(11,0,0,11,174.9,726.3)" />
<use xlink:href="#f1_c" transform="matrix(11,0,0,11,180.5,726.3)" />
<use xlink:href="#f1_9" transform="matrix(11,0,0,11,187.1,726.3)" />
</g>
<g fill="#0000FF" >
<use xlink:href="#f0_d" transform="matrix(12,0,0,12,723.9,749.8)" />
<use xlink:href="#f0_3" transform="matrix(12,0,0,12,734.2,749.8)" />
<use xlink:href="#f0_h" transform="matrix(12,0,0,12,738.3,749.8)" />
<use xlink:href="#f0_b" transform="matrix(12,0,0,12,749.8,749.8)" />
<use xlink:href="#f0_m" transform="matrix(12,0,0,12,761.7,749.8)" />
</g>
<g fill="#000000" >
<use xlink:href="#f1_i" transform="matrix(11,0,0,11,463.4,748.5)" />
<use xlink:href="#f1_9" transform="matrix(11,0,0,11,471.8,748.5)" />
<use xlink:href="#f1_c" transform="matrix(11,0,0,11,479.2,748.5)" />
<use xlink:href="#f1_u" transform="matrix(11,0,0,11,485.8,748.5)" />
<use xlink:href="#f1_9" transform="matrix(11,0,0,11,494.2,748.5)" />
<use xlink:href="#f1_a" transform="matrix(11,0,0,11,501.5,748.5)" />
<use xlink:href="#f1_e" transform="matrix(11,0,0,11,507.2,748.5)" />
<use xlink:href="#f1_6" transform="matrix(11,0,0,11,511.9,748.5)" />
<use xlink:href="#f1_a" transform="matrix(11,0,0,11,519.3,748.5)" />
<use xlink:href="#f0_d" transform="matrix(12,0,0,12,374.8,749.8)" />
<use xlink:href="#f0_d" transform="matrix(12,0,0,12,385.1,749.8)" />
<use xlink:href="#f0_6" transform="matrix(12,0,0,12,395.5,749.8)" />
<use xlink:href="#f0_h" transform="matrix(12,0,0,12,400.5,749.8)" />
<use xlink:href="#f0_g" transform="matrix(12,0,0,12,412,749.8)" />
<use xlink:href="#f0_b" transform="matrix(12,0,0,12,424,749.8)" />
<use xlink:href="#f0_m" transform="matrix(12,0,0,12,436,749.8)" />
<use xlink:href="#f1_i" transform="matrix(11,0,0,11,137.7,748.5)" />
<use xlink:href="#f1_9" transform="matrix(11,0,0,11,146.1,748.5)" />
<use xlink:href="#f1_c" transform="matrix(11,0,0,11,153.5,748.5)" />
<use xlink:href="#f1_u" transform="matrix(11,0,0,11,160.1,748.5)" />
<use xlink:href="#f1_9" transform="matrix(11,0,0,11,168.5,748.5)" />
<use xlink:href="#f1_a" transform="matrix(11,0,0,11,175.8,748.5)" />
<use xlink:href="#f1_e" transform="matrix(11,0,0,11,181.4,748.5)" />
<use xlink:href="#f1_6" transform="matrix(11,0,0,11,186.2,748.5)" />
<use xlink:href="#f1_a" transform="matrix(11,0,0,11,193.6,748.5)" />
<use xlink:href="#f1_c" transform="matrix(11,0,0,11,199.1,748.5)" />
<use xlink:href="#f1_9" transform="matrix(11,0,0,11,205.7,748.5)" />
<use xlink:href="#f0_d" transform="matrix(12,0,0,12,726,772)" />
<use xlink:href="#f0_6" transform="matrix(12,0,0,12,736.4,772)" />
<use xlink:href="#f0_j" transform="matrix(12,0,0,12,741.4,772)" />
<use xlink:href="#f0_9" transform="matrix(12,0,0,12,754.4,772)" />
<use xlink:href="#f0_m" transform="matrix(12,0,0,12,761.7,772)" />
<use xlink:href="#f1_7" transform="matrix(11,0,0,11,463.4,770.6)" />
<use xlink:href="#f1_6" transform="matrix(11,0,0,11,470.8,770.6)" />
<use xlink:href="#f1_9" transform="matrix(11,0,0,11,478.3,770.6)" />
<use xlink:href="#f1_a" transform="matrix(11,0,0,11,485.6,770.6)" />
<use xlink:href="#f0_x" transform="matrix(12,0,0,12,286,772)" />
<use xlink:href="#f0_m" transform="matrix(12,0,0,12,293.2,772)" />
<use xlink:href="#f0_6" transform="matrix(12,0,0,12,303.6,772)" />
<use xlink:href="#f0_k" transform="matrix(12,0,0,12,308.6,772)" />
<use xlink:href="#f0_3" transform="matrix(12,0,0,12,320,772)" />
<use xlink:href="#f0_m" transform="matrix(12,0,0,12,324.1,772)" />
<use xlink:href="#f0_w" transform="matrix(12,0,0,12,334.5,772)" />
<use xlink:href="#f0_t" transform="matrix(12,0,0,12,347.5,772)" />
<use xlink:href="#f0_7" transform="matrix(12,0,0,12,357.3,772)" />
<use xlink:href="#f0_n" transform="matrix(12,0,0,12,369.8,772)" />
<use xlink:href="#f0_h" transform="matrix(12,0,0,12,380.6,772)" />
<use xlink:href="#f0_m" transform="matrix(12,0,0,12,398,772)" />
<use xlink:href="#f0_3" transform="matrix(12,0,0,12,408.4,772)" />
<use xlink:href="#f0_k" transform="matrix(12,0,0,12,412.5,772)" />
<use xlink:href="#f0_b" transform="matrix(12,0,0,12,424,772)" />
<use xlink:href="#f0_m" transform="matrix(12,0,0,12,435.9,772)" />
<use xlink:href="#f1_7" transform="matrix(11,0,0,11,137.7,770.6)" />
<use xlink:href="#f1_6" transform="matrix(11,0,0,11,145.1,770.6)" />
<use xlink:href="#f1_9" transform="matrix(11,0,0,11,152.6,770.6)" />
<use xlink:href="#f1_a" transform="matrix(11,0,0,11,159.9,770.6)" />
<use xlink:href="#f1_c" transform="matrix(11,0,0,11,165.5,770.6)" />
<use xlink:href="#f1_9" transform="matrix(11,0,0,11,172.1,770.6)" />
<use xlink:href="#f2_g" transform="matrix(12,0,0,12,655,864.3)" />
<use xlink:href="#f2_9" transform="matrix(12,0,0,12,667.8,864.3)" />
<use xlink:href="#f2_5" transform="matrix(12,0,0,12,673.1,864.3)" />
<use xlink:href="#f2_n" transform="matrix(12,0,0,12,685.2,864.3)" />
<use xlink:href="#f2_8" transform="matrix(12,0,0,12,697.7,864.3)" />
<use xlink:href="#f2_o" transform="matrix(12,0,0,12,703.9,864.3)" />
<use xlink:href="#f2_g" transform="matrix(12,0,0,12,718.6,864.3)" />
<use xlink:href="#f2_9" transform="matrix(12,0,0,12,731.4,864.3)" />
<use xlink:href="#f2_d" transform="matrix(12,0,0,12,736.8,864.3)" />
<use xlink:href="#f2_c" transform="matrix(12,0,0,12,747.8,864.3)" />
<use xlink:href="#f2_5" transform="matrix(12,0,0,12,760,864.3)" />
</g>
</g>
<path d="M128.6,868.9H780.5M128.6,891.1H780.5M128.6,913.2H780.5M128.9,868.5v45.1M237.4,868.5v45.1M345.9,868.5v45.1M454.5,868.5v45.1M563,868.5v45.1M671.6,868.5v45.1M780.1,868.5v45.1" class="g1_3" />
<g clip-path="url(#c0_3)">
<g fill="#000000" >
<use xlink:href="#f0_e" transform="matrix(12,0,0,12,686,886.4)" />
<use xlink:href="#f0_6" transform="matrix(12,0,0,12,690.9,886.4)" />
<use xlink:href="#f0_j" transform="matrix(12,0,0,12,695.9,886.4)" />
<use xlink:href="#f0_3" transform="matrix(12,0,0,12,708.9,886.4)" />
<use xlink:href="#f0_m" transform="matrix(12,0,0,12,713,886.4)" />
<use xlink:href="#f0_g" transform="matrix(12,0,0,12,729.3,886.4)" />
<use xlink:href="#f0_c" transform="matrix(12,0,0,12,741.4,886.4)" />
<use xlink:href="#f0_m" transform="matrix(12,0,0,12,751,886.4)" />
<use xlink:href="#f0_m" transform="matrix(12,0,0,12,761.4,886.4)" />
<use xlink:href="#f1_6" transform="matrix(11,0,0,11,571.8,885)" />
<use xlink:href="#f1_7" transform="matrix(11,0,0,11,579.2,885)" />
<use xlink:href="#f1_3" transform="matrix(11,0,0,11,586.6,885)" />
<use xlink:href="#f1_c" transform="matrix(11,0,0,11,595,885)" />
<use xlink:href="#f1_e" transform="matrix(11,0,0,11,601.6,885)" />
<use xlink:href="#f1_6" transform="matrix(11,0,0,11,606.3,885)" />
<use xlink:href="#f1_a" transform="matrix(11,0,0,11,613.6,885)" />
<use xlink:href="#f1_c" transform="matrix(11,0,0,11,619.3,885)" />
<use xlink:href="#f1_9" transform="matrix(11,0,0,11,625.8,885)" />
<use xlink:href="#f0_d" transform="matrix(12,0,0,12,486.8,886.4)" />
<use xlink:href="#f0_d" transform="matrix(12,0,0,12,497.1,886.4)" />
<use xlink:href="#f0_p" transform="matrix(12,0,0,12,507.5,886.4)" />
<use xlink:href="#f0_g" transform="matrix(12,0,0,12,520.5,886.4)" />
<use xlink:href="#f0_b" transform="matrix(12,0,0,12,532.5,886.4)" />
<use xlink:href="#f0_m" transform="matrix(12,0,0,12,544.4,886.4)" />
<use xlink:href="#f1_a" transform="matrix(11,0,0,11,354.8,885)" />
<use xlink:href="#f1_9" transform="matrix(11,0,0,11,360.2,885)" />
<use xlink:href="#f1_c" transform="matrix(11,0,0,11,367.7,885)" />
<use xlink:href="#f1_s" transform="matrix(11,0,0,11,374.3,885)" />
<use xlink:href="#f1_a" transform="matrix(11,0,0,11,379.8,885)" />
<use xlink:href="#f1_b" transform="matrix(11,0,0,11,385.4,885)" />
<use xlink:href="#f1_6" transform="matrix(11,0,0,11,390.1,885)" />
<use xlink:href="#f1_a" transform="matrix(11,0,0,11,397.6,885)" />
<use xlink:href="#f1_c" transform="matrix(11,0,0,11,403.1,885)" />
<use xlink:href="#f1_9" transform="matrix(11,0,0,11,409.6,885)" />
<use xlink:href="#f0_d" transform="matrix(12,0,0,12,275.8,886.4)" />
<use xlink:href="#f0_l" transform="matrix(12,0,0,12,286.1,886.4)" />
<use xlink:href="#f0_j" transform="matrix(12,0,0,12,298.4,886.4)" />
<use xlink:href="#f0_3" transform="matrix(12,0,0,12,311.3,886.4)" />
<use xlink:href="#f0_b" transform="matrix(12,0,0,12,315.5,886.4)" />
<use xlink:href="#f0_m" transform="matrix(12,0,0,12,327.4,886.4)" />
<use xlink:href="#f1_1e" transform="matrix(11,0,0,11,137.7,885)" />
<use xlink:href="#f1_p" transform="matrix(11,0,0,11,146.1,885)" />
<use xlink:href="#f1_9" transform="matrix(11,0,0,11,154.5,885)" />
<use xlink:href="#f1_i" transform="matrix(11,0,0,11,161.9,885)" />
<use xlink:href="#f1_6" transform="matrix(11,0,0,11,170.3,885)" />
<use xlink:href="#f1_a" transform="matrix(11,0,0,11,177.8,885)" />
<use xlink:href="#f1_c" transform="matrix(11,0,0,11,183.3,885)" />
<use xlink:href="#f1_9" transform="matrix(11,0,0,11,189.8,885)" />
<use xlink:href="#f0_q" transform="matrix(12,0,0,12,726.6,908.6)" />
<use xlink:href="#f0_6" transform="matrix(12,0,0,12,734.1,908.6)" />
<use xlink:href="#f0_l" transform="matrix(12,0,0,12,739.1,908.6)" />
<use xlink:href="#f0_4" transform="matrix(12,0,0,12,751.3,908.6)" />
<use xlink:href="#f0_m" transform="matrix(12,0,0,12,761.4,908.6)" />
<use xlink:href="#f1_u" transform="matrix(11,0,0,11,571.8,907.2)" />
<use xlink:href="#f1_a" transform="matrix(11,0,0,11,580.1,907.2)" />
<use xlink:href="#f1_9" transform="matrix(11,0,0,11,585.7,907.2)" />
<use xlink:href="#f1_3" transform="matrix(11,0,0,11,593.2,907.2)" />
<use xlink:href="#f1_7" transform="matrix(11,0,0,11,601.6,907.2)" />
<use xlink:href="#f1_p" transform="matrix(11,0,0,11,609.1,907.2)" />
<use xlink:href="#f1_u" transform="matrix(11,0,0,11,617.5,907.2)" />
<use xlink:href="#f1_6" transform="matrix(11,0,0,11,625.9,907.2)" />
<use xlink:href="#f1_a" transform="matrix(11,0,0,11,633.3,907.2)" />
<use xlink:href="#f1_c" transform="matrix(11,0,0,11,638.8,907.2)" />
<use xlink:href="#f1_9" transform="matrix(11,0,0,11,645.4,907.2)" />
<use xlink:href="#f0_5" transform="matrix(12,0,0,12,485.2,908.6)" />
<use xlink:href="#f0_m" transform="matrix(12,0,0,12,497.1,908.6)" />
<use xlink:href="#f0_p" transform="matrix(12,0,0,12,507.5,908.6)" />
<use xlink:href="#f0_g" transform="matrix(12,0,0,12,520.5,908.6)" />
<use xlink:href="#f0_b" transform="matrix(12,0,0,12,532.6,908.6)" />
<use xlink:href="#f0_m" transform="matrix(12,0,0,12,544.5,908.6)" />
<use xlink:href="#f1_i" transform="matrix(11,0,0,11,354.8,907.2)" />
<use xlink:href="#f1_p" transform="matrix(11,0,0,11,363.2,907.2)" />
<use xlink:href="#f1_7" transform="matrix(11,0,0,11,371.6,907.2)" />
<use xlink:href="#f1_x" transform="matrix(11,0,0,11,379,907.2)" />
<use xlink:href="#f1_6" transform="matrix(11,0,0,11,387.3,907.2)" />
<use xlink:href="#f1_a" transform="matrix(11,0,0,11,394.7,907.2)" />
<use xlink:href="#f1_c" transform="matrix(11,0,0,11,400.4,907.2)" />
<use xlink:href="#f1_9" transform="matrix(11,0,0,11,406.9,907.2)" />
<use xlink:href="#f0_j" transform="matrix(12,0,0,12,272.6,908.6)" />
<use xlink:href="#f0_d" transform="matrix(12,0,0,12,285.5,908.6)" />
<use xlink:href="#f0_q" transform="matrix(12,0,0,12,295.9,908.6)" />
<use xlink:href="#f0_g" transform="matrix(12,0,0,12,303.4,908.6)" />
<use xlink:href="#f0_b" transform="matrix(12,0,0,12,315.4,908.6)" />
<use xlink:href="#f0_m" transform="matrix(12,0,0,12,327.4,908.6)" />
<use xlink:href="#f1_i" transform="matrix(11,0,0,11,137.7,907.2)" />
<use xlink:href="#f1_b" transform="matrix(11,0,0,11,146.1,907.2)" />
<use xlink:href="#f1_4" transform="matrix(11,0,0,11,150.8,907.2)" />
<use xlink:href="#f1_3" transform="matrix(11,0,0,11,159.2,907.2)" />
<use xlink:href="#f1_a" transform="matrix(11,0,0,11,167.6,907.2)" />
<use xlink:href="#f1_7" transform="matrix(11,0,0,11,173.1,907.2)" />
<use xlink:href="#f1_b" transform="matrix(11,0,0,11,180.5,907.2)" />
<use xlink:href="#f1_6" transform="matrix(11,0,0,11,185.3,907.2)" />
<use xlink:href="#f1_a" transform="matrix(11,0,0,11,192.6,907.2)" />
<use xlink:href="#f1_c" transform="matrix(11,0,0,11,198.2,907.2)" />
<use xlink:href="#f1_9" transform="matrix(11,0,0,11,204.8,907.2)" />
<use xlink:href="#f0_15" transform="matrix(11,0,0,11,137.5,1208.9)" />
</g>
</g>
<image preserveAspectRatio="none" x="109" y="1030" width="175" height="202" xlink:href="img/1.png" />
<image preserveAspectRatio="none" x="299" y="1030" width="144" height="192" xlink:href="img/2.png" />
<image preserveAspectRatio="none" x="455" y="980" width="121" height="200" xlink:href="img/3.png" />
<image preserveAspectRatio="none" x="608" y="993" width="191" height="215" xlink:href="img/4.png" />
<defs>
<path d="M102,312V836H241V369L102,312Z" 
id="f0_3"
transform="scale(0.001,-0.001)" />

<path d="M287,0L589,729H66v386H205V836l547,-1l-2,-82L433,0Z" 
id="f0_m"
transform="scale(0.001,-0.001)" />

<path d="M71,-141V-15L289,62L66,836H210L416,109c0,0,99,42,153,98c0,0,53,56,80,155c0,0,26,98,26,262V836H817V624c0,0,0,-88,-7,-154c0,0,-7,-67,-25,-132c0,0,-18,-66,-51,-116c0,0,-33,-51,-84,-98c0,0,-50,-48,-123,-87c0,0,-72,-39,-169,-74L71,-141Z" 
id="f0_h"
transform="scale(0.001,-0.001)" />

<path d="M139,0V106H400c0,0,176,0,253,71c0,0,78,72,78,250c0,0,0,163,-80,233c0,0,-81,69,-250,69H278L277,564c0,0,-1,-54,26,-80c0,0,27,-25,82,-25c0,0,30,0,80,9V355c0,0,-61,-12,-111,-12c0,0,-100,0,-157,55c0,0,-58,55,-58,186V836H456c0,0,193,0,303,-109c0,0,110,-109,110,-309c0,0,0,-200,-110,-309C759,109,648,0,456,0Z" 
id="f0_k"
transform="scale(0.001,-0.001)" />

<path d="M112,-5c0,0,-39,0,-97,11V113c0,0,48,-10,77,-10c0,0,53,0,70,42c0,0,17,43,17,164V729H50V836H501c0,0,107,0,179,-25c0,0,72,-25,112,-77c0,0,40,-51,57,-118c0,0,16,-67,16,-164V0H726V454c0,0,0,55,-3,92c0,0,-4,37,-17,75c0,0,-14,38,-38,59c0,0,-24,22,-65,36c0,0,-42,13,-102,13H318V309c0,0,0,-160,-46,-237C272,72,226,-5,112,-5Z" 
id="f0_g"
transform="scale(0.001,-0.001)" />

<path d="M139,0V138c0,0,0,61,8,112c0,0,7,52,19,87c0,0,11,36,30,66c0,0,19,31,35,49c0,0,17,19,41,35c0,0,25,17,41,25c0,0,17,7,40,17L141,836H303L613,388c0,0,20,10,33,18c0,0,13,8,34,28c0,0,20,20,33,44c0,0,13,25,22,66c0,0,10,41,10,92V836H882V698c0,0,0,-61,-7,-112c0,0,-6,-52,-18,-88c0,0,-12,-36,-30,-66c0,0,-19,-30,-36,-49c0,0,-17,-18,-41,-34c0,0,-24,-17,-40,-25c0,0,-17,-8,-41,-17L882,0H720L409,448c0,0,-21,-11,-34,-19c0,0,-13,-8,-34,-27c0,0,-21,-20,-34,-44c0,0,-12,-25,-22,-66c0,0,-9,-41,-9,-92V0Z" 
id="f0_l"
transform="scale(0.001,-0.001)" />

<path d="M139,0V836H278V0Z" 
id="f0_6"
transform="scale(0.001,-0.001)" />

<path d="M180,0L66,836H203L258,443c0,0,36,1,64,6c0,0,28,6,49,18c0,0,20,12,35,26c0,0,15,13,26,36c0,0,11,24,17,44c0,0,7,20,12,55c0,0,6,34,9,60c0,0,3,26,8,71c0,0,4,45,9,77H610c0,0,-13,-194,-31,-271c0,0,-31,-127,-111,-179c0,0,-71,-45,-196,-50L304,107c0,0,73,0,130,5c0,0,56,6,111,21c0,0,54,15,94,40c0,0,40,25,77,64c0,0,37,39,63,94c0,0,25,54,46,128c0,0,21,73,34,166c0,0,13,94,20,211h138c0,0,-14,-124,-29,-218c0,0,-16,-94,-39,-179c0,0,-22,-85,-50,-146c0,0,-28,-61,-68,-112c0,0,-39,-51,-87,-84C744,97,696,65,632,42C632,42,568,19,492,10C492,10,417,0,320,0Z" 
id="f0_j"
transform="scale(0.001,-0.001)" />

<path d="M154,0V454l138,56V0ZM722,0V454c0,0,0,161,-49,218c0,0,-48,57,-186,57H139V836H485c0,0,207,0,291,-93c0,0,83,-94,83,-318V0Z" 
id="f0_b"
transform="scale(0.001,-0.001)" />

<path d="M736,107V473c0,0,0,147,-48,202c0,0,-49,54,-187,54H278V107ZM139,0V836H499c0,0,105,0,177,-22c0,0,72,-21,116,-69c0,0,44,-49,64,-119c0,0,19,-71,19,-174V0Z" 
id="f0_2"
transform="scale(0.001,-0.001)" />

<path d="M138,-7c0,0,-34,0,-72,10V129c0,0,25,-8,52,-8c0,0,33,0,58,5c0,0,26,5,58,24c0,0,33,20,53,54c0,0,21,34,36,97c0,0,15,64,15,151c0,0,0,113,-19,173c0,0,-19,60,-56,82c0,0,-38,22,-107,22H89V836h72c0,0,165,0,240,-91c0,0,76,-91,76,-293c0,0,0,-107,26,-227c0,0,25,-119,83,-225H437c0,0,-43,101,-62,184c0,0,-24,-60,-51,-99c0,0,-26,-38,-56,-58C268,27,239,7,209,0c0,0,-30,-7,-71,-7Z" 
id="f0_q"
transform="scale(0.001,-0.001)" />

<path d="M66,0V107H332V555c0,0,0,92,-37,133c0,0,-37,41,-116,41H85V836h94c0,0,153,0,223,-66c0,0,69,-66,69,-231V0Z" 
id="f0_9"
transform="scale(0.001,-0.001)" />

<path d="M278,-14c0,0,-52,0,-115,11c0,0,-63,10,-99,23V193H98L134,95c0,0,56,-50,146,-50c0,0,144,0,144,123c0,0,0,91,-114,130l-66,21c0,0,-75,25,-110,50c0,0,-34,26,-53,63c0,0,-18,36,-18,89c0,0,0,92,63,145c0,0,63,54,170,54c0,0,77,0,193,-23V544H454l-32,81c0,0,-39,35,-124,35c0,0,-61,0,-92,-30c0,0,-32,-30,-32,-80c0,0,0,-43,29,-72c0,0,28,-29,86,-48c0,0,110,-38,144,-55c0,0,33,-17,57,-42c0,0,23,-25,36,-57c0,0,13,-32,13,-79c0,0,0,-104,-66,-158c0,0,-66,-53,-195,-53Z" 
id="f1_c"
transform="scale(0.001,-0.001)" />

<path d="M495,413c0,0,0,133,-34,190c0,0,-34,57,-105,57c0,0,-78,0,-119,-63c0,0,-42,-62,-42,-184ZM374,-14c0,0,-163,0,-239,87c0,0,-75,88,-75,283c0,0,0,183,77,273c0,0,76,91,219,91c0,0,269,0,269,-306V353H194V340c0,0,0,-103,23,-160c0,0,22,-57,70,-87c0,0,47,-29,124,-29c0,0,40,0,96,6c0,0,55,7,91,15V43C598,43,562,20,500,3c0,0,-61,-17,-126,-17Z" 
id="f1_9"
transform="scale(0.001,-0.001)" />

<path d="M156,-317V454l139,56V-317ZM505,0L806,729H139V835H967V753L650,0Z" 
id="f0_p"
transform="scale(0.001,-0.001)" />

<path d="M495,0V729H66V836H781V729H634V0Z" 
id="f0_4"
transform="scale(0.001,-0.001)" />

<path d="M114,0l60,312c0,0,2,12,8,39c0,0,6,27,7,37c0,0,2,11,5,30c0,0,2,19,4,33c0,0,1,15,1,31c0,0,0,48,-35,146c0,0,-35,98,-98,208H228c0,0,3,-8,27,-67c0,0,25,-58,41,-117c0,0,21,53,50,90c0,0,29,37,57,57c0,0,29,21,65,32c0,0,37,11,65,14c0,0,28,3,67,3c0,0,300,0,300,-396V0H480V106H761V452c0,0,0,146,-46,215c0,0,-45,70,-118,70c0,0,-134,0,-198,-119c0,0,-36,-68,-67,-222c0,0,-2,-10,-6,-27L253,0Z" 
id="f0_7"
transform="scale(0.001,-0.001)" />

<path d="M543,-317V369c0,0,0,85,-8,143c0,0,-8,58,-27,101c0,0,-18,44,-51,69c0,0,-33,24,-80,36c0,0,-48,11,-117,11H66V836H257c0,0,125,0,205,-23c0,0,80,-23,130,-79c0,0,50,-56,70,-143c0,0,20,-86,20,-222V-317Z" 
id="f0_t"
transform="scale(0.001,-0.001)" />

<path d="M117,-176L179,62V190H336V62L213,-176Z" 
id="f0_f"
transform="scale(0.001,-0.001)" />

<path d="M66,0V107H554V452c0,0,0,56,-4,93c0,0,-4,37,-18,75c0,0,-14,38,-40,60c0,0,-26,22,-71,36c0,0,-45,13,-110,13H66V836H312c0,0,91,0,157,-17c0,0,66,-17,109,-49c0,0,44,-32,69,-84c0,0,26,-52,36,-114c0,0,10,-62,10,-147V107H817V0Z" 
id="f0_a"
transform="scale(0.001,-0.001)" />

<path d="M522,-20c0,0,-196,0,-290,99c0,0,-94,100,-94,324V836H276V397c0,0,0,-86,16,-147c0,0,17,-60,50,-94c0,0,34,-34,77,-49c0,0,43,-15,103,-15c0,0,59,0,102,15c0,0,44,15,77,49c0,0,33,34,50,94c0,0,17,61,17,147c0,0,0,84,-8,143c0,0,-7,58,-25,105c0,0,-17,47,-51,69c0,0,-33,23,-83,23c0,0,-50,0,-119,-22V821c0,0,85,23,150,23c0,0,76,0,130,-30c0,0,53,-31,85,-90c0,0,31,-59,45,-138c0,0,13,-78,13,-183c0,0,0,-224,-93,-324c0,0,-94,-99,-290,-99Z" 
id="f0_i"
transform="scale(0.001,-0.001)" />

<path d="M163,0V190H321V0Z" 
id="f0_r"
transform="scale(0.001,-0.001)" />

<path d="M585,0V426c0,0,0,54,-8,98c0,0,-8,44,-27,83c0,0,-19,40,-49,66c0,0,-30,26,-77,41c0,0,-47,15,-108,15H66V836H315c0,0,94,0,166,-20c0,0,71,-20,116,-54c0,0,46,-35,75,-88c0,0,28,-52,40,-112c0,0,12,-60,12,-137V0Z" 
id="f0_d"
transform="scale(0.001,-0.001)" />

<path d="M139,-317V836H278V-317Z" 
id="f0_e"
transform="scale(0.001,-0.001)" />

<path d="M66,0V106H322c0,0,75,0,127,23c0,0,53,23,82,67c0,0,29,43,42,98c0,0,13,54,13,124c0,0,0,70,-13,124c0,0,-13,55,-42,98c0,0,-29,44,-82,67c0,0,-52,23,-127,23H66V836H322c0,0,87,0,157,-24c0,0,70,-24,115,-64c0,0,45,-40,74,-94c0,0,30,-55,43,-113c0,0,13,-59,13,-123c0,0,0,-64,-13,-123c0,0,-13,-58,-43,-113c0,0,-29,-54,-74,-94C594,88,549,48,479,24C479,24,409,0,322,0Z" 
id="f0_c"
transform="scale(0.001,-0.001)" />

<path d="M284,67c0,0,51,0,88,12c0,0,37,12,74,30V358l-98,-3c0,0,-100,-4,-135,-39c0,0,-35,-35,-35,-117c0,0,0,-132,106,-132ZM233,-14c0,0,-179,0,-179,208c0,0,0,70,27,116c0,0,27,46,87,70c0,0,60,24,173,27l105,3V519c0,0,0,72,-26,107c0,0,-27,34,-82,34c0,0,-75,0,-137,-35L176,538H134V691c0,0,121,26,213,26c0,0,115,0,169,-47c0,0,54,-47,54,-144V52L657,33V0H465L451,70c0,0,-85,-84,-218,-84Z" 
id="f1_6"
transform="scale(0.001,-0.001)" />

<path d="M399,-14c0,0,-341,0,-341,370c0,0,0,175,87,269c0,0,87,95,249,95c0,0,101,0,220,-23V501H573L541,625c0,0,-62,35,-149,35c0,0,-200,0,-200,-304c0,0,0,-158,61,-225c0,0,61,-67,189,-67c0,0,109,0,189,24V43C631,43,595,16,530,1c0,0,-64,-15,-131,-15Z" 
id="f1_7"
transform="scale(0.001,-0.001)" />

<path d="M377,45c0,0,99,0,147,73c0,0,47,73,47,237c0,0,0,161,-47,233c0,0,-47,72,-147,72c0,0,-97,0,-141,-69c0,0,-44,-69,-44,-236c0,0,0,-169,45,-240c0,0,44,-70,140,-70Zm0,-59c0,0,-158,0,-238,94c0,0,-81,95,-81,274c0,0,0,178,81,272c0,0,80,94,244,94c0,0,160,0,241,-92c0,0,82,-92,82,-274c0,0,0,-368,-329,-368Z" 
id="f1_3"
transform="scale(0.001,-0.001)" />

<path d="M249,-14c0,0,-71,0,-107,42c0,0,-35,42,-35,119V639H15v33l93,29l76,159h47V701H391V639H231V161c0,0,0,-48,22,-73c0,0,22,-24,57,-24c0,0,44,0,106,12V26C416,26,389,8,340,-2c0,0,-49,-12,-91,-12Z" 
id="f1_e"
transform="scale(0.001,-0.001)" />

<path d="M31,0V33l88,19V649L31,668v33H235l7,-87c0,0,44,37,121,71c0,0,76,35,121,35h11V530H463l-43,82c0,0,-37,0,-88,-10c0,0,-52,-10,-89,-26V52L363,33V0Z" 
id="f1_a"
transform="scale(0.001,-0.001)" />

<path d="M66,0V106H564L66,836H228L516,413c0,0,3,2,9,6c0,0,17,13,27,21c0,0,10,8,26,27c0,0,17,20,26,40c0,0,9,21,16,54c0,0,7,34,7,75V836H764V698c0,0,0,-55,-7,-102c0,0,-7,-47,-16,-79c0,0,-10,-33,-27,-62c0,0,-18,-29,-32,-46c0,0,-14,-17,-37,-35c0,0,-22,-17,-36,-25c0,0,-13,-8,-36,-20L767,53V0Z" 
id="f0_n"
transform="scale(0.001,-0.001)" />

<path d="M153,0V437L399,539V0ZM664,0V450c0,0,0,122,-31,165c0,0,-31,43,-121,43H138V836H511c0,0,113,0,188,-22c0,0,75,-23,123,-73c0,0,47,-51,68,-127c0,0,20,-76,20,-189V0Z" 
id="f2_i"
transform="scale(0.001,-0.001)" />

<path d="M173,-6C173,-6,61,-6,15,9V177c0,0,73,-10,82,-10c0,0,37,0,52,30c0,0,14,29,14,116V658H18V836H516c0,0,262,0,341,-145c0,0,48,-89,48,-242V0H658V450c0,0,0,131,-37,171c0,0,-34,37,-105,37H411V313c0,0,0,-189,-67,-258C344,55,285,-6,173,-6Z" 
id="f2_7"
transform="scale(0.001,-0.001)" />

<path d="M102,250V836H349V351L102,250Z" 
id="f2_9"
transform="scale(0.001,-0.001)" />

<path d="M545,-19c0,0,-208,0,-308,99c0,0,-99,101,-99,324V836H383V399c0,0,0,-130,41,-183c0,0,41,-53,121,-53c0,0,80,0,121,53c0,0,41,53,41,183c0,0,0,142,-27,203c0,0,-28,61,-90,61c0,0,-36,0,-92,-20V825c0,0,80,21,142,21c0,0,153,0,233,-113c0,0,80,-113,80,-328c0,0,0,-224,-100,-325c0,0,-100,-99,-308,-99Z" 
id="f2_r"
transform="scale(0.001,-0.001)" />

<path d="M159,0V165c0,0,0,69,13,124c0,0,12,55,29,89c0,0,17,33,45,62c0,0,29,28,50,42c0,0,22,14,54,30L128,836H405L666,460c0,0,41,48,41,155V836H952V671c0,0,0,-50,-6,-93c0,0,-6,-42,-16,-73c0,0,-10,-30,-26,-57c0,0,-17,-27,-31,-44c0,0,-15,-17,-37,-33c0,0,-22,-16,-38,-25c0,0,-15,-9,-38,-21L984,0H706L445,376c0,0,-41,-48,-41,-155V0Z" 
id="f2_j"
transform="scale(0.001,-0.001)" />

<path d="M646,-366V450c0,0,0,117,-35,163c0,0,-35,45,-116,45H385V513c0,0,0,-72,60,-72c0,0,9,0,20,2V299c0,0,-64,-9,-110,-9c0,0,-46,0,-84,12c0,0,-37,11,-68,37c0,0,-64,54,-64,192V836H495c0,0,218,0,308,-93c0,0,90,-94,90,-293V-366Z" 
id="f2_q"
transform="scale(0.001,-0.001)" />

<path d="M534,0V425c0,0,0,109,-41,171c0,0,-41,62,-140,62H66V836H352c0,0,99,0,174,-20c0,0,75,-20,123,-55c0,0,48,-35,78,-87c0,0,30,-53,42,-113c0,0,12,-60,12,-136V0Z" 
id="f2_4"
transform="scale(0.001,-0.001)" />

<path d="M82,0V177H500L50,836H328L560,491c0,0,56,19,56,124V836H861V671c0,0,0,-116,-45,-192c0,0,-40,-68,-85,-90c0,0,-50,-26,-71,-26c0,0,-1,0,-1,0L838,96V0Z" 
id="f2_b"
transform="scale(0.001,-0.001)" />

<path d="M66,0V178H307V510c0,0,0,100,-31,124c0,0,-30,24,-79,24H83V836H197c0,0,215,0,286,-85c0,0,71,-85,71,-224V0Z" 
id="f2_o"
transform="scale(0.001,-0.001)" />

<path d="M81,-216L155,61V288H424V61L241,-216Z" 
id="f2_t"
transform="scale(0.001,-0.001)" />

<path d="M679,178V467c0,0,0,110,-32,150c0,0,-31,41,-120,41H385V178ZM139,0V836H525c0,0,220,0,311,-90c0,0,90,-90,90,-297V0Z" 
id="f2_g"
transform="scale(0.001,-0.001)" />

<path d="M137,0L30,830H277L321,522c0,0,68,3,96,27c0,0,27,23,38,58c0,0,26,74,31,228H733c0,0,-31,-218,-70,-316c0,0,-23,-59,-88,-100c0,0,-54,-34,-116,-42c0,0,-62,-8,-117,-8L362,178c0,0,27,-1,61,-1c40,0,89,1,119,6c0,0,57,8,94,25c0,0,37,18,69,47c0,0,32,30,60,79c0,0,28,48,51,117c0,0,48,143,82,384h248c0,0,-53,-404,-172,-586C974,249,879,103,745,51C745,51,613,0,318,0Z" 
id="f2_s"
transform="scale(0.001,-0.001)" />

<path d="M139,0V836H386V0Z" 
id="f2_8"
transform="scale(0.001,-0.001)" />

<path d="M129,0l69,362c0,0,10,56,12,100c0,0,0,84,-27,159c0,0,-27,76,-117,215H322c0,0,9,-6,31,-79c0,0,23,-72,23,-105c0,0,23,82,100,138c0,0,77,57,160,57c0,0,332,0,332,-397V0H538V177H721V449c0,0,0,124,-20,170c0,0,-20,47,-82,47c0,0,-23,0,-43,-9c0,0,-19,-10,-34,-23c0,0,-14,-14,-27,-39c0,0,-13,-25,-22,-46c0,0,-8,-22,-17,-57c0,0,-9,-36,-15,-61c0,0,-5,-24,-13,-65L375,0Z" 
id="f2_a"
transform="scale(0.001,-0.001)" />

<path d="M66,0V178H507V449c0,0,0,43,-2,71c0,0,-3,28,-12,56c0,0,-9,28,-26,45c0,0,-17,16,-47,27c0,0,-29,10,-72,10H66V836H349c0,0,97,0,167,-17c0,0,71,-17,117,-49c0,0,46,-32,73,-84c0,0,27,-52,38,-114c0,0,11,-62,11,-147V178H866V0Z" 
id="f2_m"
transform="scale(0.001,-0.001)" />

<path d="M66,0V177H334c0,0,99,0,150,66c0,0,51,67,51,175c0,0,0,108,-51,175c0,0,-51,66,-150,66H66V836H334c0,0,92,0,168,-24c0,0,75,-24,127,-64c0,0,51,-40,86,-94c0,0,35,-54,51,-113c0,0,15,-60,15,-123c0,0,0,-63,-15,-123c0,0,-16,-59,-51,-113c0,0,-35,-54,-86,-94C629,88,577,48,502,24C502,24,426,0,334,0Z" 
id="f2_h"
transform="scale(0.001,-0.001)" />

<path d="M276,-14c0,0,-57,0,-125,13C151,-1,83,10,48,23V214H97l28,-98c0,0,26,-26,69,-44c0,0,42,-17,86,-17c0,0,65,0,97,28c0,0,32,28,32,71c0,0,0,41,-31,65c0,0,-30,25,-133,57c0,0,-108,34,-154,92c0,0,-45,58,-45,143c0,0,0,95,71,152c0,0,71,57,183,57c0,0,77,0,207,-22V518H457l-24,82c0,0,-21,22,-60,35c0,0,-40,14,-75,14c0,0,-53,0,-79,-22c0,0,-26,-22,-26,-59c0,0,0,-40,32,-65c0,0,32,-26,132,-55c0,0,109,-34,155,-89c0,0,45,-55,45,-137c0,0,0,-117,-72,-177c0,0,-72,-59,-209,-59Z" 
id="f3_p"
transform="scale(0.001,-0.001)" />

<path d="M434,423c0,0,0,101,-7,142c0,0,-6,40,-22,60c0,0,-16,19,-45,19c0,0,-44,0,-66,-48c0,0,-22,-49,-22,-173ZM389,-14c0,0,-172,0,-254,89c0,0,-83,90,-83,279c0,0,0,184,79,274c0,0,79,91,238,91c0,0,142,0,206,-76c0,0,64,-76,64,-237V345H271V333c0,0,0,-111,18,-158c0,0,18,-47,58,-72c0,0,40,-25,110,-25c0,0,66,0,166,22V42C623,42,582,18,517,1c0,0,-66,-15,-128,-15Z" 
id="f3_l"
transform="scale(0.001,-0.001)" />

<path d="M171,0V288H440V0Zm0,548V836H440V548Z" 
id="f2_e"
transform="scale(0.001,-0.001)" />

<path d="M248,0L521,658H66v429H313V836l493,-1V716L504,0Z" 
id="f2_d"
transform="scale(0.001,-0.001)" />

<path d="M84,-153V45l189,68L66,836H321L497,205c0,0,72,50,101,138c0,0,30,88,30,261V836H878V604c0,0,0,-84,-7,-147c0,0,-7,-63,-25,-126c0,0,-19,-62,-51,-111c0,0,-33,-48,-82,-94c0,0,-50,-45,-122,-84C591,42,519,3,423,-30L84,-153Z" 
id="f2_c"
transform="scale(0.001,-0.001)" />

<path d="M139,0V177H436c0,0,127,0,184,56c0,0,56,55,56,186c0,0,0,132,-58,186c0,0,-58,53,-181,53H386L385,553c0,0,0,-40,12,-54c0,0,12,-15,31,-15c0,0,19,0,38,2V343c0,0,-46,-11,-94,-11c0,0,-48,0,-87,11c0,0,-38,10,-73,34c0,0,-73,53,-73,196V836H487c0,0,203,0,319,-109c0,0,116,-109,116,-309c0,0,0,-200,-117,-309C805,109,689,0,487,0Z" 
id="f2_5"
transform="scale(0.001,-0.001)" />

<path d="M453,0V658H66V836H833V658H700V0Z" 
id="f2_f"
transform="scale(0.001,-0.001)" />

<path d="M139,0V836H512c0,0,219,0,309,-90c0,0,90,-90,90,-297V0H665V467c0,0,0,110,-31,150c0,0,-32,41,-120,41H385V0Z" 
id="f2_u"
transform="scale(0.001,-0.001)" />

<path d="M122,-200c0,0,99,170,148,338c0,0,49,169,49,342c0,0,0,172,-49,340c0,0,-49,168,-148,340H241c0,0,112,-176,168,-345c0,0,55,-169,55,-335c0,0,0,-167,-55,-337c0,0,-56,-168,-168,-343Z" 
id="f0_w"
transform="scale(0.001,-0.001)" />

<path d="M522,92c0,0,247,0,247,333c0,0,0,88,-17,146c0,0,-17,58,-53,91c0,0,-35,33,-82,46c0,0,-48,14,-116,14H276V419c0,0,0,-327,246,-327Zm0,-112c0,0,-193,0,-289,109c0,0,-95,110,-95,337V836H501c0,0,213,0,309,-93c0,0,96,-94,96,-317c0,0,0,-227,-95,-337C811,89,715,-20,522,-20Z" 
id="f0_s"
transform="scale(0.001,-0.001)" />

<path d="M0,-141L388,1114H514L127,-141Z" 
id="f0_y"
transform="scale(0.001,-0.001)" />

<path d="M152,0V473c0,0,0,94,28,161c0,0,29,66,71,95H66V836H463V729H404c0,0,-65,0,-89,-57c0,0,-25,-58,-25,-199V0Z" 
id="f0_o"
transform="scale(0.001,-0.001)" />

<path d="M231,0V190H382V0Zm15,359L231,625v489H382V625L367,359Z" 
id="f0_16"
transform="scale(0.001,-0.001)" />

<path d="M354,-200c0,0,-112,175,-167,343c0,0,-56,170,-56,337c0,0,0,166,55,335c0,0,55,169,168,345H473c0,0,-100,-172,-148,-340c0,0,-48,-168,-48,-340c0,0,0,-173,48,-342c0,0,49,-168,148,-338Z" 
id="f0_x"
transform="scale(0.001,-0.001)" />

<path d="M360,-14L72,649L0,668v33H327V668L216,648L420,164L615,649L504,668v33H764V668L697,652L416,-14Z" 
id="f1_4"
transform="scale(0.001,-0.001)" />

<path d="M327,-14c0,0,-101,0,-156,45c0,0,-55,45,-55,131V624H25v48l108,29l87,159H332V701H480V624H332V176c0,0,0,-49,20,-73c0,0,20,-25,53,-25c0,0,40,0,97,12V26c0,0,-22,-15,-76,-27c0,0,-55,-13,-99,-13Z" 
id="f3_h"
transform="scale(0.001,-0.001)" />

<path d="M254,-20c0,0,-52,0,-88,34c0,0,-36,36,-36,88c0,0,0,52,36,88c0,0,35,36,88,36c0,0,51,0,87,-36c0,0,36,-36,36,-88c0,0,0,-51,-35,-87c0,0,-36,-35,-88,-35ZM210,313l-68,687H365L296,313Z" 
id="f3_11"
transform="scale(0.001,-0.001)" />

<path d="M139,0V836H485c0,0,206,0,290,-90c0,0,84,-89,84,-294V0H721V473c0,0,0,147,-49,202c0,0,-48,54,-186,54H277V0Z" 
id="f0_5"
transform="scale(0.001,-0.001)" />

<path d="M31,0V33L150,52v956L31,1026v34H274V52L394,33V0Z" 
id="f1_d"
transform="scale(0.001,-0.001)" />

<path d="M284,67c0,0,51,0,88,12c0,0,37,11,74,29V357l-98,-3c0,0,-100,-3,-135,-38c0,0,-35,-36,-35,-118c0,0,0,-131,106,-131ZM233,-14c0,0,-179,0,-179,208c0,0,0,70,27,116c0,0,27,46,87,70c0,0,60,24,173,27l105,3V519c0,0,0,73,-26,107c0,0,-27,34,-82,34c0,0,-75,0,-137,-35L176,538H134V691c0,0,121,26,213,26c0,0,115,0,169,-47c0,0,54,-47,54,-144V52L657,34V0H465L451,70c0,0,-85,-84,-218,-84Zm22,849v24l146,203H560v-27L296,835Z" 
id="f1_1b"
transform="scale(0.001,-0.001)" />

<path d="M439,0V33l93,19V500c0,0,0,62,-30,97c0,0,-31,36,-94,36c0,0,-67,0,-165,-22V52L338,33V0H35V33l84,19V649L35,668v33H235l7,-57c0,0,57,33,122,54c0,0,65,22,108,22c0,0,91,0,137,-53c0,0,47,-53,47,-154V52L741,33V0Z" 
id="f1_n"
transform="scale(0.001,-0.001)" />

<path d="M154,-13c0,0,-38,0,-85,9V198c0,0,58,-15,103,-15c0,0,84,0,118,60c0,0,35,61,35,206c0,0,0,66,-7,105c0,0,-6,39,-24,63c0,0,-17,25,-44,33c0,0,-27,8,-73,8H66V836H225c0,0,198,0,275,-115c0,0,56,-84,65,-264c0,0,3,-55,3,-148c0,0,0,-177,71,-309L393,1c0,0,-53,130,-54,141c0,0,-28,-90,-65,-123c0,0,-38,-32,-120,-32Z" 
id="f2_v"
transform="scale(0.001,-0.001)" />

<path d="M545,163c0,0,162,0,162,262c0,0,0,66,-11,111c0,0,-11,45,-36,71c0,0,-24,25,-56,35c0,0,-31,10,-78,10H383V420c0,0,0,-257,162,-257Zm0,-182c0,0,-205,0,-306,109c0,0,-101,109,-101,335V836H527c0,0,223,0,325,-94c0,0,101,-93,101,-317c0,0,0,-226,-101,-335C852,90,750,-19,545,-19Z" 
id="f2_n"
transform="scale(0.001,-0.001)" />

<path d="M147,700v414H274V700Zm282,0v414H556V700Z" 
id="f0_v"
transform="scale(0.001,-0.001)" />

<path d="M700,-317V454c0,0,0,155,-54,215c0,0,-54,60,-180,60H277V551c0,0,0,-55,26,-80c0,0,27,-26,82,-26c0,0,30,0,80,10V341c0,0,-61,-11,-111,-11c0,0,-100,0,-157,55c0,0,-58,55,-58,186V836H466c0,0,203,0,288,-91c0,0,85,-92,85,-293V-317Z" 
id="f0_11"
transform="scale(0.001,-0.001)" />

<path d="M497,-366V373c0,0,0,165,-40,225c0,0,-39,60,-155,60H66V836H300c0,0,131,0,215,-23c0,0,84,-23,135,-78c0,0,52,-56,73,-141c0,0,21,-86,21,-221V-366Z" 
id="f2_k"
transform="scale(0.001,-0.001)" />

<path d="M162,262V389h957V262Zm0,306V693h957V568Z" 
id="f0_13"
transform="scale(0.001,-0.001)" />

<path d="M578,0V416H162V543H578V958H703V543h416V416H703V0Z" 
id="f0_u"
transform="scale(0.001,-0.001)" />

<path d="M179,0V190H336V0Zm0,600V790H336V600Z" 
id="f0_10"
transform="scale(0.001,-0.001)" />

<path d="M383,64c0,0,85,0,152,28V645c0,0,-67,13,-152,13c0,0,-194,0,-194,-314c0,0,0,-141,48,-211c0,0,48,-69,146,-69ZM342,-14c0,0,-287,0,-287,358c0,0,0,184,82,280c0,0,81,96,239,96c0,0,81,0,163,-18c0,0,-4,25,-4,124v182l-118,18v34H659V52L745,33V0H548l-9,52c0,0,-84,-66,-197,-66Z" 
id="f1_i"
transform="scale(0.001,-0.001)" />

<path d="M32,0V33L151,52V649L52,668v33H275V52L395,33V0ZM201,850c0,0,-32,0,-56,24c0,0,-24,24,-24,56c0,0,0,34,24,58c0,0,24,24,56,24c0,0,34,0,58,-24c0,0,24,-24,24,-58c0,0,0,-32,-24,-56c0,0,-24,-24,-58,-24Z" 
id="f1_b"
transform="scale(0.001,-0.001)" />

<path d="M382,45c0,0,188,0,188,314c0,0,0,143,-47,213c0,0,-46,69,-141,69c0,0,-87,0,-146,-24V58c0,0,67,-13,146,-13ZM25,-325v35l88,18V649L34,668v33H231l1,-41c0,0,31,27,84,43c0,0,53,17,107,17c0,0,134,0,208,-94c0,0,73,-93,73,-267c0,0,0,-178,-80,-276c0,0,-80,-97,-232,-97c0,0,-84,0,-160,16c0,0,4,-53,4,-84V-272l123,-18v-35Z" 
id="f1_u"
transform="scale(0.001,-0.001)" />

<path d="M289,-14c0,0,-179,0,-179,205V649L20,668v33H233V200c0,0,0,-128,120,-128c0,0,92,0,173,23V649L420,668v33H649V52L738,33V0H533l-6,57C527,57,474,28,405,7c0,0,-69,-21,-116,-21Z" 
id="f1_p"
transform="scale(0.001,-0.001)" />

<path d="M431,0V33L535,52V499c0,0,0,62,-32,96c0,0,-32,33,-95,33c0,0,-66,0,-163,-22V52L350,33V0H32V33l89,19V649L32,668v33H237l6,-57c0,0,56,32,119,54c0,0,62,22,110,22c0,0,52,0,95,-20c0,0,44,-19,66,-62c0,0,57,32,134,57c0,0,77,25,128,25c0,0,179,0,179,-207V52l90,-19V0H846V33L950,52V499c0,0,0,129,-119,129c0,0,-19,0,-45,-3c0,0,-26,-3,-52,-7c0,0,-25,-4,-49,-8c0,0,-23,-5,-39,-8c0,0,13,-41,13,-89V52L764,33V0Z" 
id="f1_8"
transform="scale(0.001,-0.001)" />

<path d="M64,0V34L168,59V639H47v36l121,29v49c0,0,0,155,61,239c0,0,62,84,173,84c0,0,58,0,107,-15V908H472l-33,92c0,0,-26,16,-62,16c0,0,-47,0,-66,-42c0,0,-19,-42,-19,-157V701H478V639H292V59L443,34V0Z" 
id="f1_s"
transform="scale(0.001,-0.001)" />

<path d="M383,64c0,0,44,0,87,7c0,0,43,7,65,17V645c0,0,-67,13,-152,13c0,0,-194,0,-194,-309c0,0,0,-143,48,-214c0,0,47,-71,146,-71Zm56,-389v35l96,18V-77c0,0,0,73,7,124c0,0,-79,-61,-200,-61c0,0,-287,0,-287,362c0,0,0,180,81,276c0,0,81,96,237,96c0,0,84,0,166,-18l67,33h53V-272l77,-18v-35Z" 
id="f1_1e"
transform="scale(0.001,-0.001)" />

<path d="M442,0V33l93,19V504c0,0,0,129,-124,129c0,0,-70,0,-168,-22V52L338,33V0H31V33l88,19v956L15,1026v34H243V756c0,0,0,-77,-5,-112c0,0,54,31,122,53c0,0,68,23,115,23c0,0,91,0,137,-53c0,0,47,-53,47,-154V52L744,33V0Z" 
id="f1_x"
transform="scale(0.001,-0.001)" />

<path d="M414,-20c0,0,-70,0,-144,13c0,0,-75,13,-154,40V179c0,0,63,-36,138,-55c0,0,74,-18,156,-18c0,0,142,0,216,55c0,0,74,56,74,163c0,0,0,98,-69,153c0,0,-69,56,-192,56H309V657H445c0,0,111,0,170,44c0,0,59,45,59,128c0,0,0,86,-61,132c0,0,-61,46,-174,46c0,0,-62,0,-133,-13c0,0,-71,-14,-156,-42v134c0,0,85,24,160,36c0,0,75,12,142,12c0,0,171,0,271,-78c0,0,100,-78,100,-211c0,0,0,-92,-53,-156c0,0,-52,-64,-150,-89c0,0,108,-23,169,-96c0,0,61,-73,61,-180c0,0,0,-165,-114,-255c0,0,-113,-89,-322,-89Z" 
id="f0_15"
transform="scale(0.001,-0.001)" />


</defs>
</svg>