<?xml version="1.0" encoding="UTF-8" standalone="no"?>
<!DOCTYPE svg PUBLIC "-//W3C//DTD SVG 1.1//EN"
"http://www.w3.org/Graphics/SVG/1.1/DTD/svg11.dtd">
<svg viewBox="0 0 909 1286" version="1.1" xmlns="http://www.w3.org/2000/svg" xmlns:xlink="http://www.w3.org/1999/xlink">
<defs>
<clipPath id="c0_2"><path d="M0,1286.2V0H909.4V1286.2Z" /></clipPath>
</defs>
<g clip-path="url(#c0_2)">
<g fill="#000000" >
<use xlink:href="#f0_a" transform="matrix(12,0,0,12,618.6,127.1)" />
<use xlink:href="#f0_5" transform="matrix(12,0,0,12,630.5,127.1)" />
<use xlink:href="#f0_9" transform="matrix(12,0,0,12,640.9,127.1)" />
<use xlink:href="#f0_q" transform="matrix(12,0,0,12,645.9,127.1)" />
<use xlink:href="#f0_7" transform="matrix(12,0,0,12,665.6,127.1)" />
<use xlink:href="#f0_k" transform="matrix(12,0,0,12,676,127.1)" />
<use xlink:href="#f0_2" transform="matrix(12,0,0,12,696.2,127.1)" />
<use xlink:href="#f0_3" transform="matrix(12,0,0,12,706.8,127.1)" />
<use xlink:href="#f0_f" transform="matrix(12,0,0,12,710.9,127.1)" />
<use xlink:href="#f0_5" transform="matrix(12,0,0,12,722.8,127.1)" />
<use xlink:href="#f0_l" transform="matrix(12,0,0,12,733.2,127.1)" />
<use xlink:href="#f0_e" transform="matrix(12,0,0,12,749.3,127.1)" />
<use xlink:href="#f0_7" transform="matrix(12,0,0,12,761.6,127.1)" />
<use xlink:href="#f1_6" transform="matrix(11,0,0,11,533.8,127.1)" />
<use xlink:href="#f1_9" transform="matrix(11,0,0,11,542.2,127.1)" />
<use xlink:href="#f1_q" transform="matrix(11,0,0,11,550.6,127.1)" />
<use xlink:href="#f1_9" transform="matrix(11,0,0,11,557.2,127.1)" />
<use xlink:href="#f1_d" transform="matrix(11,0,0,11,565.4,127.1)" />
<use xlink:href="#f1_r" transform="matrix(11,0,0,11,570.1,127.1)" />
<use xlink:href="#f1_9" transform="matrix(11,0,0,11,575.8,127.1)" />
<use xlink:href="#f1_q" transform="matrix(11,0,0,11,584.2,127.1)" />
<use xlink:href="#f1_k" transform="matrix(11,0,0,11,590.6,127.1)" />
<use xlink:href="#f1_b" transform="matrix(11,0,0,11,595.3,127.1)" />
<use xlink:href="#f1_q" transform="matrix(11,0,0,11,602.8,127.1)" />
<use xlink:href="#f0_c" transform="matrix(12,0,0,12,137.8,127.1)" />
<use xlink:href="#f0_5" transform="matrix(12,0,0,12,150.8,127.1)" />
<use xlink:href="#f0_k" transform="matrix(12,0,0,12,170,127.1)" />
<use xlink:href="#f0_3" transform="matrix(12,0,0,12,181.5,127.1)" />
<use xlink:href="#f0_d" transform="matrix(12,0,0,12,185.6,127.1)" />
<use xlink:href="#f0_9" transform="matrix(12,0,0,12,197,127.1)" />
<use xlink:href="#f0_a" transform="matrix(12,0,0,12,201.9,127.1)" />
<use xlink:href="#f0_6" transform="matrix(12,0,0,12,222.8,127.1)" />
<use xlink:href="#f0_a" transform="matrix(12,0,0,12,234.7,127.1)" />
<use xlink:href="#f0_k" transform="matrix(12,0,0,12,246.8,127.1)" />
<use xlink:href="#f0_m" transform="matrix(12,0,0,12,258.2,127.1)" />
<use xlink:href="#f0_9" transform="matrix(12,0,0,12,270.6,127.1)" />
<use xlink:href="#f0_o" transform="matrix(12,0,0,12,284.6,127.1)" />
<use xlink:href="#f0_h" transform="matrix(12,0,0,12,290.4,127.1)" />
<use xlink:href="#f0_2" transform="matrix(12,0,0,12,300.5,127.1)" />
<use xlink:href="#f0_7" transform="matrix(12,0,0,12,311,127.1)" />
<use xlink:href="#f0_2" transform="matrix(12,0,0,12,321.4,127.1)" />
<use xlink:href="#f0_h" transform="matrix(12,0,0,12,340.6,127.1)" />
<use xlink:href="#f0_5" transform="matrix(12,0,0,12,350.7,127.1)" />
<use xlink:href="#f0_d" transform="matrix(12,0,0,12,361.1,127.1)" />
<use xlink:href="#f0_i" transform="matrix(12,0,0,12,372.5,127.1)" />
<use xlink:href="#f0_2" transform="matrix(12,0,0,12,384.4,127.1)" />
<use xlink:href="#f0_r" transform="matrix(12,0,0,12,403.6,127.1)" />
<use xlink:href="#f0_12" transform="matrix(12,0,0,12,408.6,127.1)" />
<use xlink:href="#f0_j" transform="matrix(12,0,0,12,414.7,127.1)" />
<use xlink:href="#f0_a" transform="matrix(12,0,0,12,427,127.1)" />
<use xlink:href="#f0_e" transform="matrix(12,0,0,12,439,127.1)" />
<use xlink:href="#f0_6" transform="matrix(12,0,0,12,460.1,127.1)" />
<use xlink:href="#f0_n" transform="matrix(12,0,0,12,472,127.1)" />
<use xlink:href="#f0_9" transform="matrix(12,0,0,12,484.9,127.1)" />
<use xlink:href="#f0_5" transform="matrix(12,0,0,12,490,127.1)" />
<use xlink:href="#f0_d" transform="matrix(12,0,0,12,500.3,127.1)" />
<use xlink:href="#f0_n" transform="matrix(12,0,0,12,511.8,127.1)" />
<use xlink:href="#f0_g" transform="matrix(12,0,0,12,449.9,148.5)" />
<use xlink:href="#f0_j" transform="matrix(12,0,0,12,455.7,148.5)" />
<use xlink:href="#f0_3" transform="matrix(12,0,0,12,468,148.5)" />
<use xlink:href="#f0_7" transform="matrix(12,0,0,12,472.1,148.5)" />
<use xlink:href="#f0_9" transform="matrix(12,0,0,12,482.5,148.5)" />
<use xlink:href="#f0_u" transform="matrix(12,0,0,12,487.5,148.5)" />
<use xlink:href="#f0_5" transform="matrix(12,0,0,12,495,148.5)" />
<use xlink:href="#f0_a" transform="matrix(12,0,0,12,505.3,148.5)" />
<use xlink:href="#f0_2" transform="matrix(12,0,0,12,517.4,148.5)" />
<use xlink:href="#f0_e" transform="matrix(12,0,0,12,533.7,148.5)" />
<use xlink:href="#f0_7" transform="matrix(12,0,0,12,546,148.5)" />
<use xlink:href="#f0_s" transform="matrix(12,0,0,12,562.3,148.5)" />
<use xlink:href="#f0_e" transform="matrix(12,0,0,12,572.1,148.5)" />
<use xlink:href="#f0_o" transform="matrix(12,0,0,12,590.2,148.5)" />
<use xlink:href="#f0_6" transform="matrix(12,0,0,12,596.1,148.5)" />
<use xlink:href="#f0_a" transform="matrix(12,0,0,12,608,148.5)" />
<use xlink:href="#f0_5" transform="matrix(12,0,0,12,620,148.5)" />
<use xlink:href="#f0_4" transform="matrix(12,0,0,12,630.4,148.5)" />
<use xlink:href="#f0_6" transform="matrix(12,0,0,12,640,148.5)" />
<use xlink:href="#f0_j" transform="matrix(12,0,0,12,657.9,148.5)" />
<use xlink:href="#f0_n" transform="matrix(12,0,0,12,669.9,148.5)" />
<use xlink:href="#f0_7" transform="matrix(12,0,0,12,682.9,148.5)" />
<use xlink:href="#f0_a" transform="matrix(12,0,0,12,699.3,148.5)" />
<use xlink:href="#f0_9" transform="matrix(12,0,0,12,711.3,148.5)" />
<use xlink:href="#f0_e" transform="matrix(12,0,0,12,716.3,148.5)" />
<use xlink:href="#f0_7" transform="matrix(12,0,0,12,728.5,148.5)" />
<use xlink:href="#f0_2" transform="matrix(12,0,0,12,738.9,148.5)" />
<use xlink:href="#f0_p" transform="matrix(12,0,0,12,749.5,148.5)" />
<use xlink:href="#f0_2" transform="matrix(12,0,0,12,761.4,148.5)" />
<use xlink:href="#f0_a" transform="matrix(12,0,0,12,138,189.1)" />
<use xlink:href="#f0_m" transform="matrix(12,0,0,12,150,189.1)" />
<use xlink:href="#f0_9" transform="matrix(12,0,0,12,162.4,189.1)" />
<use xlink:href="#f0_3" transform="matrix(12,0,0,12,167.4,189.1)" />
<use xlink:href="#f0_i" transform="matrix(12,0,0,12,171.5,189.1)" />
<use xlink:href="#f0_6" transform="matrix(12,0,0,12,183.4,189.1)" />
<use xlink:href="#f0_3" transform="matrix(12,0,0,12,202.9,189.1)" />
<use xlink:href="#f0_d" transform="matrix(12,0,0,12,207,189.1)" />
<use xlink:href="#f0_7" transform="matrix(12,0,0,12,218.5,189.1)" />
<use xlink:href="#f0_7" transform="matrix(12,0,0,12,236.5,189.1)" />
<use xlink:href="#f0_k" transform="matrix(12,0,0,12,246.9,189.1)" />
<use xlink:href="#f0_9" transform="matrix(12,0,0,12,258.3,189.1)" />
<use xlink:href="#f0_d" transform="matrix(12,0,0,12,263.4,189.1)" />
<use xlink:href="#f0_6" transform="matrix(12,0,0,12,274.8,189.1)" />
<use xlink:href="#f0_a" transform="matrix(12,0,0,12,294.2,189.1)" />
<use xlink:href="#f0_e" transform="matrix(12,0,0,12,306.2,189.1)" />
<use xlink:href="#f0_a" transform="matrix(12,0,0,12,326,189.1)" />
<use xlink:href="#f0_9" transform="matrix(12,0,0,12,338.1,189.1)" />
<use xlink:href="#f0_p" transform="matrix(12,0,0,12,343.1,189.1)" />
<use xlink:href="#f0_6" transform="matrix(12,0,0,12,355,189.1)" />
<use xlink:href="#f0_7" transform="matrix(12,0,0,12,366.9,189.1)" />
<use xlink:href="#f0_9" transform="matrix(12,0,0,12,377.3,189.1)" />
<use xlink:href="#f0_6" transform="matrix(12,0,0,12,390.1,189.1)" />
<use xlink:href="#f0_7" transform="matrix(12,0,0,12,402,189.1)" />
<use xlink:href="#f0_2" transform="matrix(12,0,0,12,412.4,189.1)" />
<use xlink:href="#f0_p" transform="matrix(12,0,0,12,423,189.1)" />
<use xlink:href="#f0_2" transform="matrix(12,0,0,12,434.8,189.1)" />
<use xlink:href="#f0_p" transform="matrix(12,0,0,12,453,189.1)" />
<use xlink:href="#f0_3" transform="matrix(12,0,0,12,464.9,189.1)" />
<use xlink:href="#f0_2" transform="matrix(12,0,0,12,469,189.1)" />
<use xlink:href="#f0_6" transform="matrix(12,0,0,12,479.5,189.1)" />
<use xlink:href="#f0_7" transform="matrix(12,0,0,12,491.5,189.1)" />
<use xlink:href="#f0_n" transform="matrix(12,0,0,12,509.5,189.1)" />
<use xlink:href="#f0_3" transform="matrix(12,0,0,12,522.3,189.1)" />
<use xlink:href="#f0_g" transform="matrix(12,0,0,12,534,189.1)" />
<use xlink:href="#f0_p" transform="matrix(12,0,0,12,539.8,189.1)" />
<use xlink:href="#f0_9" transform="matrix(12,0,0,12,551.7,189.1)" />
<use xlink:href="#f0_n" transform="matrix(12,0,0,12,556.7,189.1)" />
<use xlink:href="#f0_d" transform="matrix(12,0,0,12,569.7,189.1)" />
<use xlink:href="#f0_5" transform="matrix(12,0,0,12,588.6,189.1)" />
<use xlink:href="#f0_2" transform="matrix(12,0,0,12,599,189.1)" />
<use xlink:href="#f0_h" transform="matrix(12,0,0,12,609.5,189.1)" />
<use xlink:href="#f0_6" transform="matrix(12,0,0,12,627.2,189.1)" />
<use xlink:href="#f0_l" transform="matrix(12,0,0,12,639.2,189.1)" />
<use xlink:href="#f0_3" transform="matrix(12,0,0,12,646.5,189.1)" />
<use xlink:href="#f0_6" transform="matrix(12,0,0,12,650.6,189.1)" />
<use xlink:href="#f0_j" transform="matrix(12,0,0,12,670.1,189.1)" />
<use xlink:href="#f0_3" transform="matrix(12,0,0,12,682.3,189.1)" />
<use xlink:href="#f0_7" transform="matrix(12,0,0,12,686.4,189.1)" />
<use xlink:href="#f0_k" transform="matrix(12,0,0,12,696.8,189.1)" />
<use xlink:href="#f0_d" transform="matrix(12,0,0,12,708.3,189.1)" />
<use xlink:href="#f0_a" transform="matrix(12,0,0,12,727.2,189.1)" />
<use xlink:href="#f0_3" transform="matrix(12,0,0,12,739.2,189.1)" />
<use xlink:href="#f0_3" transform="matrix(12,0,0,12,743.3,189.1)" />
<use xlink:href="#f0_p" transform="matrix(12,0,0,12,747.4,189.1)" />
<use xlink:href="#f0_6" transform="matrix(12,0,0,12,759.3,189.1)" />
<use xlink:href="#f0_g" transform="matrix(12,0,0,12,249.6,210.5)" />
<use xlink:href="#f0_7" transform="matrix(12,0,0,12,255.5,210.5)" />
<use xlink:href="#f0_k" transform="matrix(12,0,0,12,265.8,210.5)" />
<use xlink:href="#f0_9" transform="matrix(12,0,0,12,277.3,210.5)" />
<use xlink:href="#f0_d" transform="matrix(12,0,0,12,282.2,210.5)" />
<use xlink:href="#f0_a" transform="matrix(12,0,0,12,299.5,210.5)" />
<use xlink:href="#f0_9" transform="matrix(12,0,0,12,311.5,210.5)" />
<use xlink:href="#f0_p" transform="matrix(12,0,0,12,316.5,210.5)" />
<use xlink:href="#f0_6" transform="matrix(12,0,0,12,328.4,210.5)" />
<use xlink:href="#f0_7" transform="matrix(12,0,0,12,340.3,210.5)" />
<use xlink:href="#f0_3" transform="matrix(12,0,0,12,356.5,210.5)" />
<use xlink:href="#f0_h" transform="matrix(12,0,0,12,360.6,210.5)" />
<use xlink:href="#f0_4" transform="matrix(12,0,0,12,370.7,210.5)" />
<use xlink:href="#f0_6" transform="matrix(12,0,0,12,386.3,210.5)" />
<use xlink:href="#f0_7" transform="matrix(12,0,0,12,398.2,210.5)" />
<use xlink:href="#f0_2" transform="matrix(12,0,0,12,408.6,210.5)" />
<use xlink:href="#f0_p" transform="matrix(12,0,0,12,419.1,210.5)" />
<use xlink:href="#f0_7" transform="matrix(12,0,0,12,431,210.5)" />
<use xlink:href="#f0_5" transform="matrix(12,0,0,12,447.4,210.5)" />
<use xlink:href="#f0_9" transform="matrix(12,0,0,12,457.6,210.5)" />
<use xlink:href="#f0_b" transform="matrix(12,0,0,12,462.6,210.5)" />
<use xlink:href="#f0_f" transform="matrix(12,0,0,12,469,210.5)" />
<use xlink:href="#f0_7" transform="matrix(12,0,0,12,480.9,210.5)" />
<use xlink:href="#f0_s" transform="matrix(12,0,0,12,497.3,210.5)" />
<use xlink:href="#f0_5" transform="matrix(12,0,0,12,507,210.5)" />
<use xlink:href="#f0_p" transform="matrix(12,0,0,12,517.3,210.5)" />
<use xlink:href="#f0_q" transform="matrix(12,0,0,12,529.2,210.5)" />
<use xlink:href="#f0_a" transform="matrix(12,0,0,12,540,210.5)" />
<use xlink:href="#f0_e" transform="matrix(12,0,0,12,558,210.5)" />
<use xlink:href="#f0_7" transform="matrix(12,0,0,12,570.2,210.5)" />
<use xlink:href="#f0_5" transform="matrix(12,0,0,12,586.4,210.5)" />
<use xlink:href="#f0_q" transform="matrix(12,0,0,12,596.8,210.5)" />
<use xlink:href="#f0_c" transform="matrix(12,0,0,12,607.7,210.5)" />
<use xlink:href="#f0_r" transform="matrix(12,0,0,12,626.5,210.5)" />
<use xlink:href="#f0_m" transform="matrix(12,0,0,12,631.5,210.5)" />
<use xlink:href="#f0_b" transform="matrix(12,0,0,12,643.9,210.5)" />
<use xlink:href="#f0_s" transform="matrix(12,0,0,12,656.2,210.5)" />
<use xlink:href="#f0_9" transform="matrix(12,0,0,12,666,210.5)" />
<use xlink:href="#f0_a" transform="matrix(12,0,0,12,670.9,210.5)" />
<use xlink:href="#f0_g" transform="matrix(12,0,0,12,688.9,210.5)" />
<use xlink:href="#f0_6" transform="matrix(12,0,0,12,694.7,210.5)" />
<use xlink:href="#f0_m" transform="matrix(12,0,0,12,706.6,210.5)" />
<use xlink:href="#f0_3" transform="matrix(12,0,0,12,719,210.5)" />
<use xlink:href="#f0_e" transform="matrix(12,0,0,12,723.1,210.5)" />
<use xlink:href="#f0_a" transform="matrix(12,0,0,12,735.3,210.5)" />
<use xlink:href="#f0_m" transform="matrix(12,0,0,12,747.3,210.5)" />
<use xlink:href="#f0_6" transform="matrix(12,0,0,12,759.8,210.5)" />
<use xlink:href="#f1_q" transform="matrix(11,0,0,11,752.3,231.9)" />
<use xlink:href="#f1_l" transform="matrix(11,0,0,11,758.8,231.9)" />
<use xlink:href="#f1_r" transform="matrix(11,0,0,11,766.3,231.9)" />
<use xlink:href="#f0_9" transform="matrix(12,0,0,12,741.6,231.9)" />
<use xlink:href="#f1_l" transform="matrix(11,0,0,11,703.8,231.9)" />
<use xlink:href="#f1_q" transform="matrix(11,0,0,11,711.3,231.9)" />
<use xlink:href="#f1_d" transform="matrix(11,0,0,11,717.9,231.9)" />
<use xlink:href="#f1_b" transform="matrix(11,0,0,11,722.5,231.9)" />
<use xlink:href="#f1_r" transform="matrix(11,0,0,11,729.9,231.9)" />
<use xlink:href="#f0_g" transform="matrix(12,0,0,12,259.7,231.9)" />
<use xlink:href="#f0_6" transform="matrix(12,0,0,12,265.5,231.9)" />
<use xlink:href="#f0_u" transform="matrix(12,0,0,12,277.5,231.9)" />
<use xlink:href="#f0_3" transform="matrix(12,0,0,12,284.9,231.9)" />
<use xlink:href="#f0_5" transform="matrix(12,0,0,12,289,231.9)" />
<use xlink:href="#f0_f" transform="matrix(12,0,0,12,299.4,231.9)" />
<use xlink:href="#f0_j" transform="matrix(12,0,0,12,317.3,231.9)" />
<use xlink:href="#f0_a" transform="matrix(12,0,0,12,329.5,231.9)" />
<use xlink:href="#f0_9" transform="matrix(12,0,0,12,341.5,231.9)" />
<use xlink:href="#f0_u" transform="matrix(12,0,0,12,346.5,231.9)" />
<use xlink:href="#f0_6" transform="matrix(12,0,0,12,354,231.9)" />
<use xlink:href="#f0_l" transform="matrix(12,0,0,12,365.9,231.9)" />
<use xlink:href="#f0_a" transform="matrix(12,0,0,12,373.3,231.9)" />
<use xlink:href="#f0_6" transform="matrix(12,0,0,12,385.3,231.9)" />
<use xlink:href="#f0_9" transform="matrix(12,0,0,12,397.2,231.9)" />
<use xlink:href="#f0_j" transform="matrix(12,0,0,12,408.1,231.9)" />
<use xlink:href="#f0_3" transform="matrix(12,0,0,12,420.1,231.9)" />
<use xlink:href="#f0_h" transform="matrix(12,0,0,12,424.2,231.9)" />
<use xlink:href="#f0_f" transform="matrix(12,0,0,12,434.3,231.9)" />
<use xlink:href="#f0_9" transform="matrix(12,0,0,12,446.2,231.9)" />
<use xlink:href="#f0_3" transform="matrix(12,0,0,12,451.3,231.9)" />
<use xlink:href="#f0_m" transform="matrix(12,0,0,12,455.2,231.9)" />
<use xlink:href="#f0_j" transform="matrix(12,0,0,12,473.5,231.9)" />
<use xlink:href="#f0_3" transform="matrix(12,0,0,12,485.8,231.9)" />
<use xlink:href="#f0_7" transform="matrix(12,0,0,12,489.9,231.9)" />
<use xlink:href="#f0_k" transform="matrix(12,0,0,12,500.3,231.9)" />
<use xlink:href="#f0_d" transform="matrix(12,0,0,12,511.7,231.9)" />
<use xlink:href="#f0_j" transform="matrix(12,0,0,12,529,231.9)" />
<use xlink:href="#f0_6" transform="matrix(12,0,0,12,541.2,231.9)" />
<use xlink:href="#f0_s" transform="matrix(12,0,0,12,559,231.9)" />
<use xlink:href="#f0_e" transform="matrix(12,0,0,12,568.8,231.9)" />
<use xlink:href="#f0_g" transform="matrix(12,0,0,12,586.8,231.9)" />
<use xlink:href="#f0_j" transform="matrix(12,0,0,12,592.7,231.9)" />
<use xlink:href="#f0_3" transform="matrix(12,0,0,12,604.9,231.9)" />
<use xlink:href="#f0_7" transform="matrix(12,0,0,12,609,231.9)" />
<use xlink:href="#f0_k" transform="matrix(12,0,0,12,619.4,231.9)" />
<use xlink:href="#f0_d" transform="matrix(12,0,0,12,630.8,231.9)" />
<use xlink:href="#f0_j" transform="matrix(12,0,0,12,648.1,231.9)" />
<use xlink:href="#f0_6" transform="matrix(12,0,0,12,660.3,231.9)" />
<use xlink:href="#f0_j" transform="matrix(12,0,0,12,678.1,231.9)" />
<use xlink:href="#f0_u" transform="matrix(12,0,0,12,690.4,231.9)" />
<use xlink:href="#f0_10" transform="matrix(11,0,0,11,137.5,1208.9)" />
</g>
</g>
<defs>
<path d="M112,-5c0,0,-39,0,-97,11V113c0,0,48,-10,77,-10c0,0,53,0,70,42c0,0,17,43,17,164V729H50V836H501c0,0,107,0,179,-25c0,0,72,-25,112,-77c0,0,40,-51,57,-118c0,0,16,-67,16,-164V0H726V454c0,0,0,55,-3,92c0,0,-4,37,-17,75c0,0,-14,38,-38,59c0,0,-24,22,-65,36c0,0,-42,13,-102,13H318V309c0,0,0,-160,-46,-237C272,72,226,-5,112,-5Z" 
id="f0_a"
transform="scale(0.001,-0.001)" />

<path d="M585,0V426c0,0,0,54,-8,98c0,0,-8,44,-27,83c0,0,-19,40,-49,66c0,0,-30,26,-77,41c0,0,-47,15,-108,15H66V836H315c0,0,94,0,166,-20c0,0,71,-20,116,-54c0,0,46,-35,75,-88c0,0,28,-52,40,-112c0,0,12,-60,12,-137V0Z" 
id="f0_5"
transform="scale(0.001,-0.001)" />

<path d="M139,0V836H278V0Z" 
id="f0_9"
transform="scale(0.001,-0.001)" />

<path d="M66,0V106H564L66,836H228L516,413c0,0,3,2,9,6c0,0,17,13,27,21c0,0,10,8,26,27c0,0,17,20,26,40c0,0,9,21,16,54c0,0,7,34,7,75V836H764V698c0,0,0,-55,-7,-102c0,0,-7,-47,-16,-79c0,0,-10,-33,-27,-62c0,0,-18,-29,-32,-46c0,0,-14,-17,-37,-35c0,0,-22,-17,-36,-25c0,0,-13,-8,-36,-20L767,53V0Z" 
id="f0_q"
transform="scale(0.001,-0.001)" />

<path d="M287,0L589,729H66v386H205V836l547,-1l-2,-82L433,0Z" 
id="f0_7"
transform="scale(0.001,-0.001)" />

<path d="M71,-141V-15L289,62L66,836H210L416,109c0,0,99,42,153,98c0,0,53,56,80,155c0,0,26,98,26,262V836H817V624c0,0,0,-88,-7,-154c0,0,-7,-67,-25,-132c0,0,-18,-66,-51,-116c0,0,-33,-51,-84,-98c0,0,-50,-48,-123,-87c0,0,-72,-39,-169,-74L71,-141Z" 
id="f0_k"
transform="scale(0.001,-0.001)" />

<path d="M66,0V107H554V452c0,0,0,56,-4,93c0,0,-4,37,-18,75c0,0,-14,38,-40,60c0,0,-26,22,-71,36c0,0,-45,13,-110,13H66V836H312c0,0,91,0,157,-17c0,0,66,-17,109,-49c0,0,44,-32,69,-84c0,0,26,-52,36,-114c0,0,10,-62,10,-147V107H817V0Z" 
id="f0_2"
transform="scale(0.001,-0.001)" />

<path d="M102,312V836H241V369L102,312Z" 
id="f0_3"
transform="scale(0.001,-0.001)" />

<path d="M139,0V836H485c0,0,206,0,290,-90c0,0,84,-89,84,-294V0H721V473c0,0,0,147,-49,202c0,0,-48,54,-186,54H277V0Z" 
id="f0_f"
transform="scale(0.001,-0.001)" />

<path d="M66,0V107H332V555c0,0,0,92,-37,133c0,0,-37,41,-116,41H85V836h94c0,0,153,0,223,-66c0,0,69,-66,69,-231V0Z" 
id="f0_l"
transform="scale(0.001,-0.001)" />

<path d="M139,0V138c0,0,0,61,8,112c0,0,7,52,19,87c0,0,11,36,30,66c0,0,19,31,35,49c0,0,17,19,41,35c0,0,25,17,41,25c0,0,17,7,40,17L141,836H303L613,388c0,0,20,10,33,18c0,0,13,8,34,28c0,0,20,20,33,44c0,0,13,25,22,66c0,0,10,41,10,92V836H882V698c0,0,0,-61,-7,-112c0,0,-6,-52,-18,-88c0,0,-12,-36,-30,-66c0,0,-19,-30,-36,-49c0,0,-17,-18,-41,-34c0,0,-24,-17,-40,-25c0,0,-17,-8,-41,-17L882,0H720L409,448c0,0,-21,-11,-34,-19c0,0,-13,-8,-34,-27c0,0,-21,-20,-34,-44c0,0,-12,-25,-22,-66c0,0,-9,-41,-9,-92V0Z" 
id="f0_e"
transform="scale(0.001,-0.001)" />

<path d="M360,-14L72,649L0,668v33H327V668L216,648L420,164L615,649L504,668v33H764V668L697,652L416,-14Z" 
id="f1_6"
transform="scale(0.001,-0.001)" />

<path d="M377,45c0,0,99,0,147,73c0,0,47,73,47,237c0,0,0,161,-47,233c0,0,-47,72,-147,72c0,0,-97,0,-141,-69c0,0,-44,-69,-44,-236c0,0,0,-169,45,-240c0,0,44,-70,140,-70Zm0,-59c0,0,-158,0,-238,94c0,0,-81,95,-81,274c0,0,0,178,81,272c0,0,80,94,244,94c0,0,160,0,241,-92c0,0,82,-92,82,-274c0,0,0,-368,-329,-368Z" 
id="f1_9"
transform="scale(0.001,-0.001)" />

<path d="M278,-14c0,0,-52,0,-115,11c0,0,-63,10,-99,23V193H98L134,95c0,0,56,-50,146,-50c0,0,144,0,144,123c0,0,0,91,-114,130l-66,21c0,0,-75,25,-110,50c0,0,-34,26,-53,63c0,0,-18,36,-18,89c0,0,0,92,63,145c0,0,63,54,170,54c0,0,77,0,193,-23V544H454l-32,81c0,0,-39,35,-124,35c0,0,-61,0,-92,-30c0,0,-32,-30,-32,-80c0,0,0,-43,29,-72c0,0,28,-29,86,-48c0,0,110,-38,144,-55c0,0,33,-17,57,-42c0,0,23,-25,36,-57c0,0,13,-32,13,-79c0,0,0,-104,-66,-158c0,0,-66,-53,-195,-53Z" 
id="f1_q"
transform="scale(0.001,-0.001)" />

<path d="M249,-14c0,0,-71,0,-107,42c0,0,-35,42,-35,119V639H15v33l93,29l76,159h47V701H391V639H231V161c0,0,0,-48,22,-73c0,0,22,-24,57,-24c0,0,44,0,106,12V26C416,26,389,8,340,-2c0,0,-49,-12,-91,-12Z" 
id="f1_d"
transform="scale(0.001,-0.001)" />

<path d="M31,0V33l88,19V649L31,668v33H235l7,-87c0,0,44,37,121,71c0,0,76,35,121,35h11V530H463l-43,82c0,0,-37,0,-88,-10c0,0,-52,-10,-89,-26V52L363,33V0Z" 
id="f1_r"
transform="scale(0.001,-0.001)" />

<path d="M0,-14L351,1007h73L75,-14Z" 
id="f1_k"
transform="scale(0.001,-0.001)" />

<path d="M284,67c0,0,51,0,88,12c0,0,37,12,74,30V358l-98,-3c0,0,-100,-4,-135,-39c0,0,-35,-35,-35,-117c0,0,0,-132,106,-132ZM233,-14c0,0,-179,0,-179,208c0,0,0,70,27,116c0,0,27,46,87,70c0,0,60,24,173,27l105,3V519c0,0,0,72,-26,107c0,0,-27,34,-82,34c0,0,-75,0,-137,-35L176,538H134V691c0,0,121,26,213,26c0,0,115,0,169,-47c0,0,54,-47,54,-144V52L657,33V0H465L451,70c0,0,-85,-84,-218,-84Z" 
id="f1_b"
transform="scale(0.001,-0.001)" />

<path d="M156,-317V454l139,56V-317ZM505,0L806,729H139V835H967V753L650,0Z" 
id="f0_c"
transform="scale(0.001,-0.001)" />

<path d="M139,0V106H400c0,0,176,0,253,71c0,0,78,72,78,250c0,0,0,163,-80,233c0,0,-81,69,-250,69H278L277,564c0,0,-1,-54,26,-80c0,0,27,-25,82,-25c0,0,30,0,80,9V355c0,0,-61,-12,-111,-12c0,0,-100,0,-157,55c0,0,-58,55,-58,186V836H456c0,0,193,0,303,-109c0,0,110,-109,110,-309c0,0,0,-200,-110,-309C759,109,648,0,456,0Z" 
id="f0_d"
transform="scale(0.001,-0.001)" />

<path d="M154,0V454l138,56V0ZM722,0V454c0,0,0,161,-49,218c0,0,-48,57,-186,57H139V836H485c0,0,207,0,291,-93c0,0,83,-94,83,-318V0Z" 
id="f0_6"
transform="scale(0.001,-0.001)" />

<path d="M114,0l60,312c0,0,2,12,8,39c0,0,6,27,7,37c0,0,2,11,5,30c0,0,2,19,4,33c0,0,1,15,1,31c0,0,0,48,-35,146c0,0,-35,98,-98,208H228c0,0,3,-8,27,-67c0,0,25,-58,41,-117c0,0,21,53,50,90c0,0,29,37,57,57c0,0,29,21,65,32c0,0,37,11,65,14c0,0,28,3,67,3c0,0,300,0,300,-396V0H480V106H761V452c0,0,0,146,-46,215c0,0,-45,70,-118,70c0,0,-134,0,-198,-119c0,0,-36,-68,-67,-222c0,0,-2,-10,-6,-27L253,0Z" 
id="f0_m"
transform="scale(0.001,-0.001)" />

<path d="M117,-176L179,62V190H336V62L213,-176Z" 
id="f0_o"
transform="scale(0.001,-0.001)" />

<path d="M495,0V729H66V836H781V729H634V0Z" 
id="f0_h"
transform="scale(0.001,-0.001)" />

<path d="M522,92c0,0,247,0,247,333c0,0,0,88,-17,146c0,0,-17,58,-53,91c0,0,-35,33,-82,46c0,0,-48,14,-116,14H276V419c0,0,0,-327,246,-327Zm0,-112c0,0,-193,0,-289,109c0,0,-95,110,-95,337V836H501c0,0,213,0,309,-93c0,0,96,-94,96,-317c0,0,0,-227,-95,-337C811,89,715,-20,522,-20Z" 
id="f0_i"
transform="scale(0.001,-0.001)" />

<path d="M139,-317V836H278V-317Z" 
id="f0_r"
transform="scale(0.001,-0.001)" />

<path d="M0,-141L388,1114H514L127,-141Z" 
id="f0_12"
transform="scale(0.001,-0.001)" />

<path d="M736,107V473c0,0,0,147,-48,202c0,0,-49,54,-187,54H278V107ZM139,0V836H499c0,0,105,0,177,-22c0,0,72,-21,116,-69c0,0,44,-49,64,-119c0,0,19,-71,19,-174V0Z" 
id="f0_j"
transform="scale(0.001,-0.001)" />

<path d="M180,0L66,836H203L258,443c0,0,36,1,64,6c0,0,28,6,49,18c0,0,20,12,35,26c0,0,15,13,26,36c0,0,11,24,17,44c0,0,7,20,12,55c0,0,6,34,9,60c0,0,3,26,8,71c0,0,4,45,9,77H610c0,0,-13,-194,-31,-271c0,0,-31,-127,-111,-179c0,0,-71,-45,-196,-50L304,107c0,0,73,0,130,5c0,0,56,6,111,21c0,0,54,15,94,40c0,0,40,25,77,64c0,0,37,39,63,94c0,0,25,54,46,128c0,0,21,73,34,166c0,0,13,94,20,211h138c0,0,-14,-124,-29,-218c0,0,-16,-94,-39,-179c0,0,-22,-85,-50,-146c0,0,-28,-61,-68,-112c0,0,-39,-51,-87,-84C744,97,696,65,632,42C632,42,568,19,492,10C492,10,417,0,320,0Z" 
id="f0_n"
transform="scale(0.001,-0.001)" />

<path d="M163,0V190H321V0Z" 
id="f0_g"
transform="scale(0.001,-0.001)" />

<path d="M138,-7c0,0,-34,0,-72,10V129c0,0,25,-8,52,-8c0,0,33,0,58,5c0,0,26,5,58,24c0,0,33,20,53,54c0,0,21,34,36,97c0,0,15,64,15,151c0,0,0,113,-19,173c0,0,-19,60,-56,82c0,0,-38,22,-107,22H89V836h72c0,0,165,0,240,-91c0,0,76,-91,76,-293c0,0,0,-107,26,-227c0,0,25,-119,83,-225H437c0,0,-43,101,-62,184c0,0,-24,-60,-51,-99c0,0,-26,-38,-56,-58C268,27,239,7,209,0c0,0,-30,-7,-71,-7Z" 
id="f0_u"
transform="scale(0.001,-0.001)" />

<path d="M543,-317V369c0,0,0,85,-8,143c0,0,-8,58,-27,101c0,0,-18,44,-51,69c0,0,-33,24,-80,36c0,0,-48,11,-117,11H66V836H257c0,0,125,0,205,-23c0,0,80,-23,130,-79c0,0,50,-56,70,-143c0,0,20,-86,20,-222V-317Z" 
id="f0_s"
transform="scale(0.001,-0.001)" />

<path d="M66,0V106H322c0,0,75,0,127,23c0,0,53,23,82,67c0,0,29,43,42,98c0,0,13,54,13,124c0,0,0,70,-13,124c0,0,-13,55,-42,98c0,0,-29,44,-82,67c0,0,-52,23,-127,23H66V836H322c0,0,87,0,157,-24c0,0,70,-24,115,-64c0,0,45,-40,74,-94c0,0,30,-55,43,-113c0,0,13,-59,13,-123c0,0,0,-64,-13,-123c0,0,-13,-58,-43,-113c0,0,-29,-54,-74,-94C594,88,549,48,479,24C479,24,409,0,322,0Z" 
id="f0_4"
transform="scale(0.001,-0.001)" />

<path d="M522,-20c0,0,-196,0,-290,99c0,0,-94,100,-94,324V836H276V397c0,0,0,-86,16,-147c0,0,17,-60,50,-94c0,0,34,-34,77,-49c0,0,43,-15,103,-15c0,0,59,0,102,15c0,0,44,15,77,49c0,0,33,34,50,94c0,0,17,61,17,147c0,0,0,84,-8,143c0,0,-7,58,-25,105c0,0,-17,47,-51,69c0,0,-33,23,-83,23c0,0,-50,0,-119,-22V821c0,0,85,23,150,23c0,0,76,0,130,-30c0,0,53,-31,85,-90c0,0,31,-59,45,-138c0,0,13,-78,13,-183c0,0,0,-224,-93,-324c0,0,-94,-99,-290,-99Z" 
id="f0_p"
transform="scale(0.001,-0.001)" />

<path d="M152,0V473c0,0,0,94,28,161c0,0,29,66,71,95H66V836H463V729H404c0,0,-65,0,-89,-57c0,0,-25,-58,-25,-199V0Z" 
id="f0_b"
transform="scale(0.001,-0.001)" />

<path d="M495,413c0,0,0,133,-34,190c0,0,-34,57,-105,57c0,0,-78,0,-119,-63c0,0,-42,-62,-42,-184ZM374,-14c0,0,-163,0,-239,87c0,0,-75,88,-75,283c0,0,0,183,77,273c0,0,76,91,219,91c0,0,269,0,269,-306V353H194V340c0,0,0,-103,23,-160c0,0,22,-57,70,-87c0,0,47,-29,124,-29c0,0,40,0,96,6c0,0,55,7,91,15V43C598,43,562,20,500,3c0,0,-61,-17,-126,-17Z" 
id="f1_l"
transform="scale(0.001,-0.001)" />

<path d="M111,0V127c0,0,86,89,234,238c0,0,148,150,186,193c0,0,73,81,101,138c0,0,29,56,29,110c0,0,0,89,-62,145c0,0,-62,56,-162,56c0,0,-71,0,-150,-25c0,0,-78,-24,-168,-75v153c0,0,91,37,170,55c0,0,79,19,145,19c0,0,173,0,276,-86c0,0,103,-87,103,-232c0,0,0,-68,-26,-130c0,0,-26,-61,-94,-145c0,0,-18,-22,-118,-125C575,416,475,313,293,127H818V0Z" 
id="f0_10"
transform="scale(0.001,-0.001)" />


</defs>
</svg>