<?xml version="1.0" encoding="UTF-8" standalone="no"?>
<!DOCTYPE svg PUBLIC "-//W3C//DTD SVG 1.1//EN"
"http://www.w3.org/Graphics/SVG/1.1/DTD/svg11.dtd">
<svg viewBox="0 0 909 1286" version="1.1" xmlns="http://www.w3.org/2000/svg" xmlns:xlink="http://www.w3.org/1999/xlink">
<defs>
<style type="text/css"><![CDATA[
.g0_10{
fill: none;
stroke: #000000;
stroke-width: 0.7638889;
stroke-linecap: butt;
stroke-linejoin: round;
}
.g1_10{
fill: none;
stroke: #0000FF;
stroke-width: 1.0694444;
stroke-linecap: butt;
stroke-linejoin: miter;
}
]]></style>
</defs>
<path d="M120.6,495.8H772.4M120.6,518H772.4M120.6,540.1H772.4M120.6,562.3H772.4M120.6,584.5H772.4M120.6,606.6H772.4M120.6,628.8H772.4M120.6,650.9H772.4M120.6,673.1H772.4M120.6,695.2H772.4M121,495.5V695.6M446.6,495.5V695.6M772,495.5V695.6" class="g0_10" />
<path d="M669.8,733.8H772.1" class="g1_10" />
<path d="M120.6,818H772.4M120.6,840.2H772.4M120.6,862.4H772.4M120.6,905.9H772.4M120.6,928H772.4M120.6,993H772.4m-651.8,22.1H772.4m-651.8,22.2H772.4m-651.8,22.1H772.4m-651.8,22.2H772.4m-651.8,43.5H772.4M121,817.7v307.8M446.6,817.7v307.8M772,817.7v307.8" class="g0_10" />
<path d="M669.8,1163.7H772.1" class="g1_10" />
</svg>