<?xml version="1.0" encoding="UTF-8" standalone="no"?>
<!DOCTYPE svg PUBLIC "-//W3C//DTD SVG 1.1//EN"
"http://www.w3.org/Graphics/SVG/1.1/DTD/svg11.dtd">
<svg viewBox="0 0 909 1286" version="1.1" xmlns="http://www.w3.org/2000/svg" xmlns:xlink="http://www.w3.org/1999/xlink">
<defs>
<clipPath id="c0_14"><path d="M0,1286.2V0H909.4V1286.2Z" /></clipPath>
<style type="text/css"><![CDATA[
.g0_14{
fill: #D8D8D8;
}
.g1_14{
fill: none;
stroke: #0000FF;
stroke-width: 1.0694444;
stroke-linecap: butt;
stroke-linejoin: miter;
}
.g2_14{
fill: none;
stroke: #000000;
stroke-width: 0.7638889;
stroke-linecap: butt;
stroke-linejoin: round;
}
]]></style>
</defs>
<path fill-rule="evenodd" d="M468.9,991.8H663.7V971.5H468.9v20.3Z" class="g0_14" />
<path fill-rule="evenodd" d="M273.9,991.8H468.8V971.5H273.9v20.3Z" class="g0_14" />
<path fill-rule="evenodd" d="M118.4,991.8H273.9V971.5H118.4v20.3Z" class="g0_14" />
<path fill-rule="evenodd" d="M663.8,1011.9H771.9V991.8H663.8v20.1Z" class="g0_14" />
<path fill-rule="evenodd" d="M663.8,1031.9H771.9V1012H663.8v19.9Z" class="g0_14" />
<path fill-rule="evenodd" d="M663.8,1052.1H771.9V1032H663.8v20.1Z" class="g0_14" />
<path fill-rule="evenodd" d="M663.8,1072.1H771.9v-19.9H663.8v19.9Z" class="g0_14" />
<path fill-rule="evenodd" d="M663.8,1092.3H771.9v-20.1H663.8v20.1Z" class="g0_14" />
<path fill-rule="evenodd" d="M468.9,991.8H663.7V971.5H468.9v20.3Z" class="g0_14" />
<path fill-rule="evenodd" d="M273.9,991.8H468.8V971.5H273.9v20.3Z" class="g0_14" />
<path fill-rule="evenodd" d="M118.4,991.8H273.9V971.5H118.4v20.3Z" class="g0_14" />
<path fill-rule="evenodd" d="M663.8,1011.9H771.9V991.8H663.8v20.1Z" class="g0_14" />
<path fill-rule="evenodd" d="M663.8,1031.9H771.9V1012H663.8v19.9Z" class="g0_14" />
<path fill-rule="evenodd" d="M663.8,1052.1H771.9V1032H663.8v20.1Z" class="g0_14" />
<path fill-rule="evenodd" d="M663.8,1072.1H771.9v-19.9H663.8v19.9Z" class="g0_14" />
<path fill-rule="evenodd" d="M663.8,1092.3H771.9v-20.1H663.8v20.1Z" class="g0_14" />
<g clip-path="url(#c0_14)">
<g fill="#000000" >
<use xlink:href="#f0_1e" transform="matrix(11,0,0,11,128.9,125.7)" />
<use xlink:href="#f0_8" transform="matrix(11,0,0,11,139.2,125.7)" />
<use xlink:href="#f0_6" transform="matrix(11,0,0,11,151.9,125.7)" />
<use xlink:href="#f0_4" transform="matrix(11,0,0,11,159.3,125.7)" />
<use xlink:href="#f0_5" transform="matrix(11,0,0,11,165.7,125.7)" />
<use xlink:href="#f0_3" transform="matrix(11,0,0,11,170.5,125.7)" />
<use xlink:href="#f0_f" transform="matrix(11,0,0,11,182.2,125.7)" />
<use xlink:href="#f0_e" transform="matrix(11,0,0,11,189.5,125.7)" />
<use xlink:href="#f0_m" transform="matrix(11,0,0,11,194.2,125.7)" />
<use xlink:href="#f0_k" transform="matrix(11,0,0,11,202.6,125.7)" />
<use xlink:href="#f0_3" transform="matrix(11,0,0,11,211,125.7)" />
<use xlink:href="#f0_k" transform="matrix(11,0,0,11,218.5,125.7)" />
<use xlink:href="#f0_6" transform="matrix(11,0,0,11,231,125.7)" />
<use xlink:href="#f0_4" transform="matrix(11,0,0,11,238.5,125.7)" />
<use xlink:href="#f0_s" transform="matrix(11,0,0,11,249.2,125.7)" />
<use xlink:href="#f0_y" transform="matrix(11,0,0,11,254.8,125.7)" />
<use xlink:href="#f0_f" transform="matrix(11,0,0,11,262.2,125.7)" />
<use xlink:href="#f0_e" transform="matrix(11,0,0,11,269.6,125.7)" />
<use xlink:href="#f0_7" transform="matrix(11,0,0,11,274.3,125.7)" />
<use xlink:href="#f0_6" transform="matrix(11,0,0,11,283.1,125.7)" />
<use xlink:href="#f0_8" transform="matrix(11,0,0,11,290.6,125.7)" />
<use xlink:href="#f0_f" transform="matrix(11,0,0,11,299,125.7)" />
<use xlink:href="#f0_9" transform="matrix(11,0,0,11,306.5,125.7)" />
<use xlink:href="#f0_8" transform="matrix(11,0,0,11,314.9,125.7)" />
<use xlink:href="#f0_5" transform="matrix(11,0,0,11,323.3,125.7)" />
<use xlink:href="#f0_c" transform="matrix(11,0,0,11,327.9,125.7)" />
<use xlink:href="#f0_3" transform="matrix(11,0,0,11,333.5,125.7)" />
<use xlink:href="#f0_c" transform="matrix(11,0,0,11,340.9,125.7)" />
<use xlink:href="#f0_7" transform="matrix(11,0,0,11,346.4,125.7)" />
<use xlink:href="#f0_9" transform="matrix(11,0,0,11,351.2,125.7)" />
<use xlink:href="#f0_13" transform="matrix(11,0,0,11,359.6,125.7)" />
<use xlink:href="#f1_9" transform="matrix(12,0,0,12,506,127.1)" />
<use xlink:href="#f1_c" transform="matrix(12,0,0,12,518.2,127.1)" />
<use xlink:href="#f1_s" transform="matrix(12,0,0,12,523.3,127.1)" />
<use xlink:href="#f1_l" transform="matrix(12,0,0,12,534.1,127.1)" />
<use xlink:href="#f1_e" transform="matrix(12,0,0,12,546.6,127.1)" />
<use xlink:href="#f1_w" transform="matrix(12,0,0,12,557,127.1)" />
<use xlink:href="#f1_o" transform="matrix(12,0,0,12,563.1,127.1)" />
<use xlink:href="#f1_c" transform="matrix(12,0,0,12,576.1,127.1)" />
<use xlink:href="#f1_j" transform="matrix(12,0,0,12,581.1,127.1)" />
<use xlink:href="#f1_8" transform="matrix(12,0,0,12,588.6,127.1)" />
<use xlink:href="#f1_e" transform="matrix(12,0,0,12,600,127.1)" />
<use xlink:href="#f1_e" transform="matrix(12,0,0,12,618.6,127.1)" />
<use xlink:href="#f1_6" transform="matrix(12,0,0,12,629,127.1)" />
<use xlink:href="#f1_3" transform="matrix(12,0,0,12,650.1,127.1)" />
<use xlink:href="#f1_4" transform="matrix(12,0,0,12,662,127.1)" />
<use xlink:href="#f1_b" transform="matrix(12,0,0,12,676.4,127.1)" />
<use xlink:href="#f1_9" transform="matrix(12,0,0,12,688.5,127.1)" />
<use xlink:href="#f1_4" transform="matrix(12,0,0,12,700.7,127.1)" />
<use xlink:href="#f1_3" transform="matrix(12,0,0,12,707.1,127.1)" />
<use xlink:href="#f1_7" transform="matrix(12,0,0,12,727.1,127.1)" />
<use xlink:href="#f1_q" transform="matrix(12,0,0,12,737.5,127.1)" />
<use xlink:href="#f1_p" transform="matrix(12,0,0,12,741.6,127.1)" />
<use xlink:href="#f1_f" transform="matrix(12,0,0,12,753,127.1)" />
<use xlink:href="#f1_m" transform="matrix(12,0,0,12,723.9,148.5)" />
<use xlink:href="#f1_c" transform="matrix(12,0,0,12,729.7,148.5)" />
<use xlink:href="#f1_b" transform="matrix(12,0,0,12,734.6,148.5)" />
<use xlink:href="#f1_c" transform="matrix(12,0,0,12,746.6,148.5)" />
<use xlink:href="#f1_9" transform="matrix(12,0,0,12,751.6,148.5)" />
<use xlink:href="#f0_14" transform="matrix(11,0,0,11,128.9,168.5)" />
<use xlink:href="#f0_9" transform="matrix(11,0,0,11,141,168.5)" />
<use xlink:href="#f0_7" transform="matrix(11,0,0,11,153.7,168.5)" />
<use xlink:href="#f0_6" transform="matrix(11,0,0,11,158.4,168.5)" />
<use xlink:href="#f0_k" transform="matrix(11,0,0,11,170,168.5)" />
<use xlink:href="#f0_6" transform="matrix(11,0,0,11,178.4,168.5)" />
<use xlink:href="#f0_4" transform="matrix(11,0,0,11,185.8,168.5)" />
<use xlink:href="#f0_5" transform="matrix(11,0,0,11,196.5,168.5)" />
<use xlink:href="#f0_m" transform="matrix(11,0,0,11,201.2,168.5)" />
<use xlink:href="#f0_k" transform="matrix(11,0,0,11,213.7,168.5)" />
<use xlink:href="#f0_e" transform="matrix(11,0,0,11,222.1,168.5)" />
<use xlink:href="#f0_8" transform="matrix(11,0,0,11,226.9,168.5)" />
<use xlink:href="#f0_6" transform="matrix(11,0,0,11,235.3,168.5)" />
<use xlink:href="#f0_c" transform="matrix(11,0,0,11,242.6,168.5)" />
<use xlink:href="#f0_9" transform="matrix(11,0,0,11,248.2,168.5)" />
<use xlink:href="#f0_1v" transform="matrix(11,0,0,11,256.6,168.5)" />
<use xlink:href="#f1_m" transform="matrix(12,0,0,12,596.4,169.9)" />
<use xlink:href="#f1_u" transform="matrix(12,0,0,12,602.3,169.9)" />
<use xlink:href="#f1_8" transform="matrix(12,0,0,12,612,169.9)" />
<use xlink:href="#f1_g" transform="matrix(12,0,0,12,623.5,169.9)" />
<use xlink:href="#f1_n" transform="matrix(12,0,0,12,635.4,169.9)" />
<use xlink:href="#f1_b" transform="matrix(12,0,0,12,650.8,169.9)" />
<use xlink:href="#f1_9" transform="matrix(12,0,0,12,662.8,169.9)" />
<use xlink:href="#f1_c" transform="matrix(12,0,0,12,680.9,169.9)" />
<use xlink:href="#f1_e" transform="matrix(12,0,0,12,685.9,169.9)" />
<use xlink:href="#f1_t" transform="matrix(12,0,0,12,702.1,169.9)" />
<use xlink:href="#f1_b" transform="matrix(12,0,0,12,707.1,169.9)" />
<use xlink:href="#f1_q" transform="matrix(12,0,0,12,719.2,169.9)" />
<use xlink:href="#f1_b" transform="matrix(12,0,0,12,723.3,169.9)" />
<use xlink:href="#f1_e" transform="matrix(12,0,0,12,741.1,169.9)" />
<use xlink:href="#f1_9" transform="matrix(12,0,0,12,751.5,169.9)" />
<use xlink:href="#f0_14" transform="matrix(11,0,0,11,128.9,189.9)" />
<use xlink:href="#f0_9" transform="matrix(11,0,0,11,141,189.9)" />
<use xlink:href="#f0_7" transform="matrix(11,0,0,11,153.7,189.9)" />
<use xlink:href="#f0_9" transform="matrix(11,0,0,11,158.4,189.9)" />
<use xlink:href="#f0_k" transform="matrix(11,0,0,11,170.9,189.9)" />
<use xlink:href="#f0_6" transform="matrix(11,0,0,11,179.3,189.9)" />
<use xlink:href="#f0_4" transform="matrix(11,0,0,11,186.8,189.9)" />
<use xlink:href="#f0_1v" transform="matrix(11,0,0,11,193.3,189.9)" />
<use xlink:href="#f1_2" transform="matrix(12,0,0,12,654.8,191.3)" />
<use xlink:href="#f1_c" transform="matrix(12,0,0,12,662.1,191.3)" />
<use xlink:href="#f1_b" transform="matrix(12,0,0,12,667.2,191.3)" />
<use xlink:href="#f1_c" transform="matrix(12,0,0,12,679.1,191.3)" />
<use xlink:href="#f1_9" transform="matrix(12,0,0,12,684.1,191.3)" />
<use xlink:href="#f1_t" transform="matrix(12,0,0,12,702.1,191.3)" />
<use xlink:href="#f1_b" transform="matrix(12,0,0,12,707.2,191.3)" />
<use xlink:href="#f1_q" transform="matrix(12,0,0,12,719.2,191.3)" />
<use xlink:href="#f1_b" transform="matrix(12,0,0,12,723.3,191.3)" />
<use xlink:href="#f1_e" transform="matrix(12,0,0,12,741.2,191.3)" />
<use xlink:href="#f1_9" transform="matrix(12,0,0,12,751.6,191.3)" />
<use xlink:href="#f0_14" transform="matrix(11,0,0,11,128.9,211.3)" />
<use xlink:href="#f0_9" transform="matrix(11,0,0,11,141,211.3)" />
<use xlink:href="#f0_4" transform="matrix(11,0,0,11,153.7,211.3)" />
<use xlink:href="#f0_6" transform="matrix(11,0,0,11,160.2,211.3)" />
<use xlink:href="#f0_7" transform="matrix(11,0,0,11,171.8,211.3)" />
<use xlink:href="#f0_9" transform="matrix(11,0,0,11,176.5,211.3)" />
<use xlink:href="#f0_k" transform="matrix(11,0,0,11,189,211.3)" />
<use xlink:href="#f0_6" transform="matrix(11,0,0,11,197.4,211.3)" />
<use xlink:href="#f0_4" transform="matrix(11,0,0,11,204.9,211.3)" />
<use xlink:href="#f0_1v" transform="matrix(11,0,0,11,211.5,211.3)" />
<use xlink:href="#f1_2" transform="matrix(12,0,0,12,633.6,212.7)" />
<use xlink:href="#f1_c" transform="matrix(12,0,0,12,640.9,212.7)" />
<use xlink:href="#f1_b" transform="matrix(12,0,0,12,645.9,212.7)" />
<use xlink:href="#f1_c" transform="matrix(12,0,0,12,657.8,212.7)" />
<use xlink:href="#f1_9" transform="matrix(12,0,0,12,662.9,212.7)" />
<use xlink:href="#f1_c" transform="matrix(12,0,0,12,680.9,212.7)" />
<use xlink:href="#f1_e" transform="matrix(12,0,0,12,685.9,212.7)" />
<use xlink:href="#f1_t" transform="matrix(12,0,0,12,702.1,212.7)" />
<use xlink:href="#f1_b" transform="matrix(12,0,0,12,707.2,212.7)" />
<use xlink:href="#f1_q" transform="matrix(12,0,0,12,719.2,212.7)" />
<use xlink:href="#f1_b" transform="matrix(12,0,0,12,723.3,212.7)" />
<use xlink:href="#f1_e" transform="matrix(12,0,0,12,741.2,212.7)" />
<use xlink:href="#f1_9" transform="matrix(12,0,0,12,751.6,212.7)" />
</g>
<g fill="#0000FF" >
<use xlink:href="#f1_6" transform="matrix(11,0,0,11,678.5,288.8)" />
<use xlink:href="#f1_7" transform="matrix(11,0,0,11,690.4,288.8)" />
<use xlink:href="#f1_8" transform="matrix(11,0,0,11,699.7,288.8)" />
<use xlink:href="#f1_e" transform="matrix(11,0,0,11,710.2,288.8)" />
<use xlink:href="#f1_3" transform="matrix(11,0,0,11,725.2,288.8)" />
<use xlink:href="#f1_7" transform="matrix(11,0,0,11,736.2,288.8)" />
<use xlink:href="#f1_4" transform="matrix(11,0,0,11,745.7,288.8)" />
<use xlink:href="#f1_h" transform="matrix(11,0,0,11,751.5,288.8)" />
<use xlink:href="#f1_f" transform="matrix(11,0,0,11,762.3,288.8)" />
</g>
</g>
<path d="M678.3,290.4H772" class="g1_14" />
<g clip-path="url(#c0_14)">
<g fill="#000000" >
<use xlink:href="#f2_2" transform="matrix(13,0,0,13,137.7,564.4)" />
<use xlink:href="#f2_3" transform="matrix(13,0,0,13,152.8,564.4)" />
<use xlink:href="#f2_4" transform="matrix(13,0,0,13,160,564.4)" />
<use xlink:href="#f2_5" transform="matrix(13,0,0,13,172.6,564.4)" />
<use xlink:href="#f2_6" transform="matrix(13,0,0,13,183,564.4)" />
<use xlink:href="#f2_7" transform="matrix(13,0,0,13,195.1,564.4)" />
<use xlink:href="#f2_6" transform="matrix(13,0,0,13,202.6,564.4)" />
<use xlink:href="#f2_7" transform="matrix(13,0,0,13,214.6,564.4)" />
<use xlink:href="#f2_8" transform="matrix(13,0,0,13,222.1,564.4)" />
<use xlink:href="#f2_a" transform="matrix(13,0,0,13,242.6,564.4)" />
<use xlink:href="#f2_h" transform="matrix(13,0,0,13,256.3,564.4)" />
<use xlink:href="#f2_l" transform="matrix(13,0,0,13,277.1,564.4)" />
<use xlink:href="#f0_1m" transform="matrix(11,0,0,11,128.9,608.2)" />
<use xlink:href="#f0_3" transform="matrix(11,0,0,11,141,608.2)" />
<use xlink:href="#f0_4" transform="matrix(11,0,0,11,148.5,608.2)" />
<use xlink:href="#f0_3" transform="matrix(11,0,0,11,159.3,608.2)" />
<use xlink:href="#f0_6" transform="matrix(11,0,0,11,170.9,608.2)" />
<use xlink:href="#f0_8" transform="matrix(11,0,0,11,178.3,608.2)" />
<use xlink:href="#f0_4" transform="matrix(11,0,0,11,186.7,608.2)" />
<use xlink:href="#f0_6" transform="matrix(11,0,0,11,193.3,608.2)" />
<use xlink:href="#f0_1b" transform="matrix(11,0,0,11,200.8,608.2)" />
<use xlink:href="#f0_3" transform="matrix(11,0,0,11,209.2,608.2)" />
<use xlink:href="#f0_c" transform="matrix(11,0,0,11,216.5,608.2)" />
<use xlink:href="#f0_3" transform="matrix(11,0,0,11,226.4,608.2)" />
<use xlink:href="#f0_7" transform="matrix(11,0,0,11,238,608.2)" />
<use xlink:href="#f0_9" transform="matrix(11,0,0,11,242.7,608.2)" />
<use xlink:href="#f0_4" transform="matrix(11,0,0,11,250.9,608.2)" />
<use xlink:href="#f0_6" transform="matrix(11,0,0,11,261.8,608.2)" />
<use xlink:href="#f0_4" transform="matrix(11,0,0,11,269.2,608.2)" />
<use xlink:href="#f0_5" transform="matrix(11,0,0,11,275.6,608.2)" />
<use xlink:href="#f0_m" transform="matrix(11,0,0,11,280.4,608.2)" />
<use xlink:href="#f0_k" transform="matrix(11,0,0,11,288.8,608.2)" />
<use xlink:href="#f0_e" transform="matrix(11,0,0,11,297.2,608.2)" />
<use xlink:href="#f0_3" transform="matrix(11,0,0,11,301.9,608.2)" />
<use xlink:href="#f0_8" transform="matrix(11,0,0,11,309.4,608.2)" />
<use xlink:href="#f0_5" transform="matrix(11,0,0,11,317.6,608.2)" />
<use xlink:href="#f0_6" transform="matrix(11,0,0,11,322.3,608.2)" />
<use xlink:href="#f0_4" transform="matrix(11,0,0,11,329.8,608.2)" />
<use xlink:href="#f0_13" transform="matrix(11,0,0,11,336.2,608.2)" />
<use xlink:href="#f1_m" transform="matrix(12,0,0,12,516.4,609.6)" />
<use xlink:href="#f1_i" transform="matrix(12,0,0,12,522.2,609.6)" />
<use xlink:href="#f1_q" transform="matrix(12,0,0,12,534.4,609.6)" />
<use xlink:href="#f1_r" transform="matrix(12,0,0,12,538.5,609.6)" />
<use xlink:href="#f1_q" transform="matrix(12,0,0,12,548.5,609.6)" />
<use xlink:href="#f1_l" transform="matrix(12,0,0,12,552.6,609.6)" />
<use xlink:href="#f1_e" transform="matrix(12,0,0,12,565.1,609.6)" />
<use xlink:href="#f1_b" transform="matrix(12,0,0,12,575.5,609.6)" />
<use xlink:href="#f1_3" transform="matrix(12,0,0,12,587.5,609.6)" />
<use xlink:href="#f1_b" transform="matrix(12,0,0,12,605.2,609.6)" />
<use xlink:href="#f1_9" transform="matrix(12,0,0,12,617.3,609.6)" />
<use xlink:href="#f1_r" transform="matrix(12,0,0,12,635.3,609.6)" />
<use xlink:href="#f1_l" transform="matrix(12,0,0,12,645.4,609.6)" />
<use xlink:href="#f1_e" transform="matrix(12,0,0,12,657.9,609.6)" />
<use xlink:href="#f1_e" transform="matrix(12,0,0,12,668.3,609.6)" />
<use xlink:href="#f1_u" transform="matrix(12,0,0,12,684.6,609.6)" />
<use xlink:href="#f1_e" transform="matrix(12,0,0,12,694.4,609.6)" />
<use xlink:href="#f1_c" transform="matrix(12,0,0,12,704.8,609.6)" />
<use xlink:href="#f1_3" transform="matrix(12,0,0,12,709.8,609.6)" />
<use xlink:href="#f1_3" transform="matrix(12,0,0,12,727.5,609.6)" />
<use xlink:href="#f1_b" transform="matrix(12,0,0,12,739.5,609.6)" />
<use xlink:href="#f1_9" transform="matrix(12,0,0,12,751.5,609.6)" />
<use xlink:href="#f0_1m" transform="matrix(11,0,0,11,128.9,629.6)" />
<use xlink:href="#f0_3" transform="matrix(11,0,0,11,141,629.6)" />
<use xlink:href="#f0_i" transform="matrix(11,0,0,11,148.5,629.6)" />
<use xlink:href="#f0_9" transform="matrix(11,0,0,11,161.6,629.6)" />
<use xlink:href="#f0_4" transform="matrix(11,0,0,11,170,629.6)" />
<use xlink:href="#f0_3" transform="matrix(11,0,0,11,180.7,629.6)" />
<use xlink:href="#f0_k" transform="matrix(11,0,0,11,192.4,629.6)" />
<use xlink:href="#f0_6" transform="matrix(11,0,0,11,200.8,629.6)" />
<use xlink:href="#f0_4" transform="matrix(11,0,0,11,208.1,629.6)" />
<use xlink:href="#f0_3" transform="matrix(11,0,0,11,214.7,629.6)" />
<use xlink:href="#f0_10" transform="matrix(11,0,0,11,222.1,629.6)" />
<use xlink:href="#f0_m" transform="matrix(11,0,0,11,230.6,629.6)" />
<use xlink:href="#f0_8" transform="matrix(11,0,0,11,239,629.6)" />
<use xlink:href="#f0_3" transform="matrix(11,0,0,11,247.4,629.6)" />
<use xlink:href="#f0_c" transform="matrix(11,0,0,11,254.8,629.6)" />
<use xlink:href="#f0_i" transform="matrix(11,0,0,11,264.6,629.6)" />
<use xlink:href="#f0_3" transform="matrix(11,0,0,11,277.7,629.6)" />
<use xlink:href="#f0_1b" transform="matrix(11,0,0,11,285.2,629.6)" />
<use xlink:href="#f0_3" transform="matrix(11,0,0,11,293.6,629.6)" />
<use xlink:href="#f0_8" transform="matrix(11,0,0,11,301,629.6)" />
<use xlink:href="#f0_3" transform="matrix(11,0,0,11,309.3,629.6)" />
<use xlink:href="#f0_13" transform="matrix(11,0,0,11,316.7,629.6)" />
<use xlink:href="#f1_7" transform="matrix(12,0,0,12,494.8,631)" />
<use xlink:href="#f1_6" transform="matrix(12,0,0,12,505.2,631)" />
<use xlink:href="#f1_c" transform="matrix(12,0,0,12,518.2,631)" />
<use xlink:href="#f1_f" transform="matrix(12,0,0,12,523.2,631)" />
<use xlink:href="#f1_b" transform="matrix(12,0,0,12,542.1,631)" />
<use xlink:href="#f1_h" transform="matrix(12,0,0,12,554.2,631)" />
<use xlink:href="#f1_c" transform="matrix(12,0,0,12,566.1,631)" />
<use xlink:href="#f1_7" transform="matrix(12,0,0,12,571.1,631)" />
<use xlink:href="#f1_9" transform="matrix(12,0,0,12,581.5,631)" />
<use xlink:href="#f1_e" transform="matrix(12,0,0,12,602.1,631)" />
<use xlink:href="#f1_c" transform="matrix(12,0,0,12,612.5,631)" />
<use xlink:href="#f1_n" transform="matrix(12,0,0,12,617.5,631)" />
<use xlink:href="#f1_9" transform="matrix(12,0,0,12,627.1,631)" />
<use xlink:href="#f1_e" transform="matrix(12,0,0,12,639.4,631)" />
<use xlink:href="#f1_i" transform="matrix(12,0,0,12,658.1,631)" />
<use xlink:href="#f1_q" transform="matrix(12,0,0,12,670.3,631)" />
<use xlink:href="#f1_n" transform="matrix(12,0,0,12,674.4,631)" />
<use xlink:href="#f1_e" transform="matrix(12,0,0,12,684,631)" />
<use xlink:href="#f1_c" transform="matrix(12,0,0,12,694.4,631)" />
<use xlink:href="#f1_3" transform="matrix(12,0,0,12,699.5,631)" />
<use xlink:href="#f1_c" transform="matrix(12,0,0,12,719.7,631)" />
<use xlink:href="#f1_d" transform="matrix(12,0,0,12,724.8,631)" />
<use xlink:href="#f1_h" transform="matrix(12,0,0,12,732.1,631)" />
<use xlink:href="#f1_d" transform="matrix(12,0,0,12,744,631)" />
<use xlink:href="#f1_9" transform="matrix(12,0,0,12,751.3,631)" />
<use xlink:href="#f1_m" transform="matrix(12,0,0,12,723.4,652.4)" />
<use xlink:href="#f1_7" transform="matrix(12,0,0,12,729.2,652.4)" />
<use xlink:href="#f1_h" transform="matrix(12,0,0,12,739.4,652.4)" />
<use xlink:href="#f1_l" transform="matrix(12,0,0,12,751.4,652.4)" />
<use xlink:href="#f0_1x" transform="matrix(11,0,0,11,128.9,672.4)" />
<use xlink:href="#f0_7" transform="matrix(11,0,0,11,139.2,672.4)" />
<use xlink:href="#f0_r" transform="matrix(11,0,0,11,148.2,672.4)" />
<use xlink:href="#f0_3" transform="matrix(11,0,0,11,156.4,672.4)" />
<use xlink:href="#f0_3" transform="matrix(11,0,0,11,168.2,672.4)" />
<use xlink:href="#f0_r" transform="matrix(11,0,0,11,179.7,672.4)" />
<use xlink:href="#f0_e" transform="matrix(11,0,0,11,188.1,672.4)" />
<use xlink:href="#f0_3" transform="matrix(11,0,0,11,192.9,672.4)" />
<use xlink:href="#f0_u" transform="matrix(11,0,0,11,200.2,672.4)" />
<use xlink:href="#f0_3" transform="matrix(11,0,0,11,204.9,672.4)" />
<use xlink:href="#f0_c" transform="matrix(11,0,0,11,212.4,672.4)" />
<use xlink:href="#f0_3" transform="matrix(11,0,0,11,222.1,672.4)" />
<use xlink:href="#f0_2" transform="matrix(11,0,0,11,233.8,672.4)" />
<use xlink:href="#f0_o" transform="matrix(11,0,0,11,245,672.4)" />
<use xlink:href="#f0_e" transform="matrix(11,0,0,11,253.3,672.4)" />
<use xlink:href="#f0_7" transform="matrix(11,0,0,11,258,672.4)" />
<use xlink:href="#f0_6" transform="matrix(11,0,0,11,262.7,672.4)" />
<use xlink:href="#f0_13" transform="matrix(11,0,0,11,270,672.4)" />
<use xlink:href="#f1_m" transform="matrix(12,0,0,12,575.4,673.8)" />
<use xlink:href="#f1_3" transform="matrix(12,0,0,12,581.2,673.8)" />
<use xlink:href="#f1_e" transform="matrix(12,0,0,12,593.1,673.8)" />
<use xlink:href="#f1_q" transform="matrix(12,0,0,12,603.5,673.8)" />
<use xlink:href="#f1_11" transform="matrix(12,0,0,12,607.6,673.8)" />
<use xlink:href="#f1_s" transform="matrix(12,0,0,12,612.6,673.8)" />
<use xlink:href="#f1_e" transform="matrix(12,0,0,12,623.5,673.8)" />
<use xlink:href="#f1_p" transform="matrix(12,0,0,12,639.7,673.8)" />
<use xlink:href="#f1_c" transform="matrix(12,0,0,12,651.1,673.8)" />
<use xlink:href="#f1_g" transform="matrix(12,0,0,12,656.2,673.8)" />
<use xlink:href="#f1_d" transform="matrix(12,0,0,12,668.1,673.8)" />
<use xlink:href="#f1_e" transform="matrix(12,0,0,12,675.4,673.8)" />
<use xlink:href="#f1_u" transform="matrix(12,0,0,12,691.7,673.8)" />
<use xlink:href="#f1_e" transform="matrix(12,0,0,12,701.5,673.8)" />
<use xlink:href="#f1_c" transform="matrix(12,0,0,12,711.9,673.8)" />
<use xlink:href="#f1_3" transform="matrix(12,0,0,12,716.9,673.8)" />
<use xlink:href="#f1_9" transform="matrix(12,0,0,12,734.6,673.8)" />
<use xlink:href="#f1_c" transform="matrix(12,0,0,12,746.9,673.8)" />
<use xlink:href="#f1_3" transform="matrix(12,0,0,12,751.9,673.8)" />
<use xlink:href="#f0_1r" transform="matrix(11,0,0,11,128.9,693.8)" />
<use xlink:href="#f0_3" transform="matrix(11,0,0,11,143.9,693.8)" />
<use xlink:href="#f0_1b" transform="matrix(11,0,0,11,151.4,693.8)" />
<use xlink:href="#f0_3" transform="matrix(11,0,0,11,159.8,693.8)" />
<use xlink:href="#f0_8" transform="matrix(11,0,0,11,167.2,693.8)" />
<use xlink:href="#f0_3" transform="matrix(11,0,0,11,175.6,693.8)" />
<use xlink:href="#f0_7" transform="matrix(11,0,0,11,187.2,693.8)" />
<use xlink:href="#f0_6" transform="matrix(11,0,0,11,191.9,693.8)" />
<use xlink:href="#f0_r" transform="matrix(11,0,0,11,203.5,693.8)" />
<use xlink:href="#f0_3" transform="matrix(11,0,0,11,211.9,693.8)" />
<use xlink:href="#f0_i" transform="matrix(11,0,0,11,219.2,693.8)" />
<use xlink:href="#f0_9" transform="matrix(11,0,0,11,232.4,693.8)" />
<use xlink:href="#f0_4" transform="matrix(11,0,0,11,240.8,693.8)" />
<use xlink:href="#f0_3" transform="matrix(11,0,0,11,251.6,693.8)" />
<use xlink:href="#f0_k" transform="matrix(11,0,0,11,263.2,693.8)" />
<use xlink:href="#f0_6" transform="matrix(11,0,0,11,271.6,693.8)" />
<use xlink:href="#f0_f" transform="matrix(11,0,0,11,279,693.8)" />
<use xlink:href="#f0_e" transform="matrix(11,0,0,11,286.4,693.8)" />
<use xlink:href="#f0_c" transform="matrix(11,0,0,11,291.1,693.8)" />
<use xlink:href="#f0_5" transform="matrix(11,0,0,11,301,693.8)" />
<use xlink:href="#f0_9" transform="matrix(11,0,0,11,305.6,693.8)" />
<use xlink:href="#f0_k" transform="matrix(11,0,0,11,314,693.8)" />
<use xlink:href="#f0_9" transform="matrix(11,0,0,11,322.4,693.8)" />
<use xlink:href="#f0_13" transform="matrix(11,0,0,11,330.8,693.8)" />
<use xlink:href="#f1_m" transform="matrix(12,0,0,12,519.8,695.1)" />
<use xlink:href="#f1_e" transform="matrix(12,0,0,12,525.6,695.1)" />
<use xlink:href="#f1_c" transform="matrix(12,0,0,12,536,695.1)" />
<use xlink:href="#f1_n" transform="matrix(12,0,0,12,541,695.1)" />
<use xlink:href="#f1_3" transform="matrix(12,0,0,12,550.6,695.1)" />
<use xlink:href="#f1_c" transform="matrix(12,0,0,12,568.5,695.1)" />
<use xlink:href="#f1_e" transform="matrix(12,0,0,12,573.4,695.1)" />
<use xlink:href="#f1_r" transform="matrix(12,0,0,12,589.7,695.1)" />
<use xlink:href="#f1_q" transform="matrix(12,0,0,12,599.8,695.1)" />
<use xlink:href="#f1_j" transform="matrix(12,0,0,12,603.9,695.1)" />
<use xlink:href="#f1_3" transform="matrix(12,0,0,12,611.3,695.1)" />
<use xlink:href="#f1_e" transform="matrix(12,0,0,12,623.3,695.1)" />
<use xlink:href="#f1_i" transform="matrix(12,0,0,12,639.5,695.1)" />
<use xlink:href="#f1_q" transform="matrix(12,0,0,12,651.7,695.1)" />
<use xlink:href="#f1_n" transform="matrix(12,0,0,12,655.8,695.1)" />
<use xlink:href="#f1_e" transform="matrix(12,0,0,12,665.4,695.1)" />
<use xlink:href="#f1_c" transform="matrix(12,0,0,12,675.8,695.1)" />
<use xlink:href="#f1_3" transform="matrix(12,0,0,12,680.8,695.1)" />
<use xlink:href="#f1_c" transform="matrix(12,0,0,12,698.6,695.1)" />
<use xlink:href="#f1_d" transform="matrix(12,0,0,12,703.6,695.1)" />
<use xlink:href="#f1_9" transform="matrix(12,0,0,12,710.9,695.1)" />
<use xlink:href="#f1_7" transform="matrix(12,0,0,12,729.1,695.1)" />
<use xlink:href="#f1_h" transform="matrix(12,0,0,12,739.3,695.1)" />
<use xlink:href="#f1_l" transform="matrix(12,0,0,12,751.2,695.1)" />
<use xlink:href="#f0_1e" transform="matrix(11,0,0,11,128.9,715.2)" />
<use xlink:href="#f0_8" transform="matrix(11,0,0,11,139.2,715.2)" />
<use xlink:href="#f0_4" transform="matrix(11,0,0,11,147.6,715.2)" />
<use xlink:href="#f0_6" transform="matrix(11,0,0,11,154.1,715.2)" />
<use xlink:href="#f0_n" transform="matrix(11,0,0,11,161.6,715.2)" />
<use xlink:href="#f0_m" transform="matrix(11,0,0,11,170,715.2)" />
<use xlink:href="#f0_e" transform="matrix(11,0,0,11,178.4,715.2)" />
<use xlink:href="#f0_k" transform="matrix(11,0,0,11,183.1,715.2)" />
<use xlink:href="#f0_3" transform="matrix(11,0,0,11,191.5,715.2)" />
<use xlink:href="#f0_r" transform="matrix(11,0,0,11,203.1,715.2)" />
<use xlink:href="#f0_9" transform="matrix(11,0,0,11,211.5,715.2)" />
<use xlink:href="#f0_10" transform="matrix(11,0,0,11,219.9,715.2)" />
<use xlink:href="#f0_3" transform="matrix(11,0,0,11,232.6,715.2)" />
<use xlink:href="#f0_5" transform="matrix(11,0,0,11,244.2,715.2)" />
<use xlink:href="#f0_c" transform="matrix(11,0,0,11,248.8,715.2)" />
<use xlink:href="#f0_3" transform="matrix(11,0,0,11,254.4,715.2)" />
<use xlink:href="#f0_6" transform="matrix(11,0,0,11,261.9,715.2)" />
<use xlink:href="#f0_c" transform="matrix(11,0,0,11,269.2,715.2)" />
<use xlink:href="#f0_7" transform="matrix(11,0,0,11,279.1,715.2)" />
<use xlink:href="#f0_9" transform="matrix(11,0,0,11,283.8,715.2)" />
<use xlink:href="#f0_4" transform="matrix(11,0,0,11,292.1,715.2)" />
<use xlink:href="#f0_i" transform="matrix(11,0,0,11,302.9,715.2)" />
<use xlink:href="#f0_6" transform="matrix(11,0,0,11,315.9,715.2)" />
<use xlink:href="#f0_8" transform="matrix(11,0,0,11,323.3,715.2)" />
<use xlink:href="#f0_x" transform="matrix(11,0,0,11,331.7,715.2)" />
<use xlink:href="#f0_6" transform="matrix(11,0,0,11,340.1,715.2)" />
<use xlink:href="#f0_4" transform="matrix(11,0,0,11,347.6,715.2)" />
<use xlink:href="#f0_11" transform="matrix(11,0,0,11,354.2,715.2)" />
<use xlink:href="#f0_7" transform="matrix(11,0,0,11,358.7,715.2)" />
<use xlink:href="#f0_3" transform="matrix(11,0,0,11,363.5,715.2)" />
<use xlink:href="#f0_4" transform="matrix(11,0,0,11,370.9,715.2)" />
<use xlink:href="#f0_f" transform="matrix(11,0,0,11,381.6,715.2)" />
<use xlink:href="#f0_3" transform="matrix(11,0,0,11,389.1,715.2)" />
<use xlink:href="#f0_c" transform="matrix(11,0,0,11,396.5,715.2)" />
<use xlink:href="#f0_5" transform="matrix(11,0,0,11,402,715.2)" />
<use xlink:href="#f0_3" transform="matrix(11,0,0,11,406.7,715.2)" />
<use xlink:href="#f0_4" transform="matrix(11,0,0,11,414.2,715.2)" />
<use xlink:href="#f0_13" transform="matrix(11,0,0,11,420.6,715.2)" />
<use xlink:href="#f1_b" transform="matrix(12,0,0,12,495,716.5)" />
<use xlink:href="#f1_9" transform="matrix(12,0,0,12,507,716.5)" />
<use xlink:href="#f1_9" transform="matrix(12,0,0,12,545.4,716.5)" />
<use xlink:href="#f1_q" transform="matrix(12,0,0,12,557.6,716.5)" />
<use xlink:href="#f1_f" transform="matrix(12,0,0,12,561.7,716.5)" />
<use xlink:href="#f1_3" transform="matrix(12,0,0,12,572.2,716.5)" />
<use xlink:href="#f1_e" transform="matrix(12,0,0,12,584.2,716.5)" />
<use xlink:href="#f1_u" transform="matrix(12,0,0,12,620.5,716.5)" />
<use xlink:href="#f1_e" transform="matrix(12,0,0,12,630.3,716.5)" />
<use xlink:href="#f1_c" transform="matrix(12,0,0,12,640.7,716.5)" />
<use xlink:href="#f1_3" transform="matrix(12,0,0,12,645.7,716.5)" />
<use xlink:href="#f1_q" transform="matrix(12,0,0,12,683.5,716.5)" />
<use xlink:href="#f1_d" transform="matrix(12,0,0,12,687.6,716.5)" />
<use xlink:href="#f1_9" transform="matrix(12,0,0,12,695,716.5)" />
<use xlink:href="#f1_r" transform="matrix(12,0,0,12,733.1,716.5)" />
<use xlink:href="#f1_q" transform="matrix(12,0,0,12,743.1,716.5)" />
<use xlink:href="#f1_q" transform="matrix(12,0,0,12,747.2,716.5)" />
<use xlink:href="#f1_l" transform="matrix(12,0,0,12,751.2,716.5)" />
<use xlink:href="#f1_m" transform="matrix(12,0,0,12,680,737.9)" />
<use xlink:href="#f1_i" transform="matrix(12,0,0,12,685.8,737.9)" />
<use xlink:href="#f1_q" transform="matrix(12,0,0,12,698,737.9)" />
<use xlink:href="#f1_k" transform="matrix(12,0,0,12,702.1,737.9)" />
<use xlink:href="#f1_q" transform="matrix(12,0,0,12,713.9,737.9)" />
<use xlink:href="#f1_7" transform="matrix(12,0,0,12,718,737.9)" />
<use xlink:href="#f1_8" transform="matrix(12,0,0,12,728.4,737.9)" />
<use xlink:href="#f1_b" transform="matrix(12,0,0,12,739.8,737.9)" />
<use xlink:href="#f1_3" transform="matrix(12,0,0,12,751.9,737.9)" />
<use xlink:href="#f0_1a" transform="matrix(11,0,0,11,128.9,757.9)" />
<use xlink:href="#f0_3" transform="matrix(11,0,0,11,138.3,757.9)" />
<use xlink:href="#f0_7" transform="matrix(11,0,0,11,145.7,757.9)" />
<use xlink:href="#f0_n" transform="matrix(11,0,0,11,150.5,757.9)" />
<use xlink:href="#f0_3" transform="matrix(11,0,0,11,158.9,757.9)" />
<use xlink:href="#f0_8" transform="matrix(11,0,0,11,166.3,757.9)" />
<use xlink:href="#f0_k" transform="matrix(11,0,0,11,178.8,757.9)" />
<use xlink:href="#f0_6" transform="matrix(11,0,0,11,187.2,757.9)" />
<use xlink:href="#f0_3" transform="matrix(11,0,0,11,199,757.9)" />
<use xlink:href="#f0_l" transform="matrix(11,0,0,11,206.3,757.9)" />
<use xlink:href="#f0_m" transform="matrix(11,0,0,11,214.7,757.9)" />
<use xlink:href="#f0_p" transform="matrix(11,0,0,11,223.1,757.9)" />
<use xlink:href="#f0_10" transform="matrix(11,0,0,11,231.9,757.9)" />
<use xlink:href="#f0_r" transform="matrix(11,0,0,11,244.6,757.9)" />
<use xlink:href="#f0_3" transform="matrix(11,0,0,11,253,757.9)" />
<use xlink:href="#f0_8" transform="matrix(11,0,0,11,260.5,757.9)" />
<use xlink:href="#f0_3" transform="matrix(11,0,0,11,273,757.9)" />
<use xlink:href="#f0_4" transform="matrix(11,0,0,11,284.7,757.9)" />
<use xlink:href="#f0_6" transform="matrix(11,0,0,11,291.2,757.9)" />
<use xlink:href="#f0_8" transform="matrix(11,0,0,11,298.6,757.9)" />
<use xlink:href="#f0_5" transform="matrix(11,0,0,11,307,757.9)" />
<use xlink:href="#f0_e" transform="matrix(11,0,0,11,311.6,757.9)" />
<use xlink:href="#f0_c" transform="matrix(11,0,0,11,316.3,757.9)" />
<use xlink:href="#f0_l" transform="matrix(11,0,0,11,326.2,757.9)" />
<use xlink:href="#f0_m" transform="matrix(11,0,0,11,334.6,757.9)" />
<use xlink:href="#f0_6" transform="matrix(11,0,0,11,342.9,757.9)" />
<use xlink:href="#f0_8" transform="matrix(11,0,0,11,354.6,757.9)" />
<use xlink:href="#f0_9" transform="matrix(11,0,0,11,363,757.9)" />
<use xlink:href="#f0_i" transform="matrix(11,0,0,11,375.5,757.9)" />
<use xlink:href="#f0_6" transform="matrix(11,0,0,11,388.7,757.9)" />
<use xlink:href="#f0_e" transform="matrix(11,0,0,11,400.2,757.9)" />
<use xlink:href="#f0_i" transform="matrix(11,0,0,11,405,757.9)" />
<use xlink:href="#f0_d" transform="matrix(11,0,0,11,418.1,757.9)" />
<use xlink:href="#f0_9" transform="matrix(11,0,0,11,426.5,757.9)" />
<use xlink:href="#f0_c" transform="matrix(11,0,0,11,434.7,757.9)" />
<use xlink:href="#f0_5" transform="matrix(11,0,0,11,440.4,757.9)" />
<use xlink:href="#f0_3" transform="matrix(11,0,0,11,445.1,757.9)" />
<use xlink:href="#f0_1v" transform="matrix(11,0,0,11,452.4,757.9)" />
<use xlink:href="#f1_o" transform="matrix(12,0,0,12,495,759.3)" />
<use xlink:href="#f1_q" transform="matrix(12,0,0,12,508,759.3)" />
<use xlink:href="#f1_j" transform="matrix(12,0,0,12,512.1,759.3)" />
<use xlink:href="#f1_7" transform="matrix(12,0,0,12,519.6,759.3)" />
<use xlink:href="#f1_3" transform="matrix(12,0,0,12,529.9,759.3)" />
<use xlink:href="#f1_e" transform="matrix(12,0,0,12,541.9,759.3)" />
<use xlink:href="#f1_i" transform="matrix(12,0,0,12,564.6,759.3)" />
<use xlink:href="#f1_q" transform="matrix(12,0,0,12,576.8,759.3)" />
<use xlink:href="#f1_n" transform="matrix(12,0,0,12,580.9,759.3)" />
<use xlink:href="#f1_e" transform="matrix(12,0,0,12,590.5,759.3)" />
<use xlink:href="#f1_c" transform="matrix(12,0,0,12,600.9,759.3)" />
<use xlink:href="#f1_3" transform="matrix(12,0,0,12,606,759.3)" />
<use xlink:href="#f1_i" transform="matrix(12,0,0,12,630.2,759.3)" />
<use xlink:href="#f1_b" transform="matrix(12,0,0,12,642.3,759.3)" />
<use xlink:href="#f1_9" transform="matrix(12,0,0,12,654.3,759.3)" />
<use xlink:href="#f1_c" transform="matrix(12,0,0,12,666.5,759.3)" />
<use xlink:href="#f1_t" transform="matrix(12,0,0,12,683.9,759.3)" />
<use xlink:href="#f1_9" transform="matrix(12,0,0,12,688.9,759.3)" />
<use xlink:href="#f1_n" transform="matrix(12,0,0,12,701.2,759.3)" />
<use xlink:href="#f1_l" transform="matrix(12,0,0,12,710.7,759.3)" />
<use xlink:href="#f1_c" transform="matrix(12,0,0,12,735.5,759.3)" />
<use xlink:href="#f1_9" transform="matrix(12,0,0,12,740.6,759.3)" />
<use xlink:href="#f1_s" transform="matrix(12,0,0,12,752.8,759.3)" />
<use xlink:href="#f1_2" transform="matrix(12,0,0,12,645.2,780.7)" />
<use xlink:href="#f1_q" transform="matrix(12,0,0,12,652.5,780.7)" />
<use xlink:href="#f1_e" transform="matrix(12,0,0,12,656.6,780.7)" />
<use xlink:href="#f1_b" transform="matrix(12,0,0,12,673,780.7)" />
<use xlink:href="#f1_8" transform="matrix(12,0,0,12,685,780.7)" />
<use xlink:href="#f1_n" transform="matrix(12,0,0,12,696.4,780.7)" />
<use xlink:href="#f1_q" transform="matrix(12,0,0,12,706.1,780.7)" />
<use xlink:href="#f1_9" transform="matrix(12,0,0,12,710.2,780.7)" />
<use xlink:href="#f1_9" transform="matrix(12,0,0,12,728.2,780.7)" />
<use xlink:href="#f1_e" transform="matrix(12,0,0,12,740.4,780.7)" />
<use xlink:href="#f1_o" transform="matrix(12,0,0,12,750.8,780.7)" />
<use xlink:href="#f0_1m" transform="matrix(11,0,0,11,128.9,800.7)" />
<use xlink:href="#f0_3" transform="matrix(11,0,0,11,141,800.7)" />
<use xlink:href="#f0_i" transform="matrix(11,0,0,11,148.5,800.7)" />
<use xlink:href="#f0_9" transform="matrix(11,0,0,11,161.6,800.7)" />
<use xlink:href="#f0_4" transform="matrix(11,0,0,11,170,800.7)" />
<use xlink:href="#f0_3" transform="matrix(11,0,0,11,180.7,800.7)" />
<use xlink:href="#f0_k" transform="matrix(11,0,0,11,192.4,800.7)" />
<use xlink:href="#f0_6" transform="matrix(11,0,0,11,200.8,800.7)" />
<use xlink:href="#f0_i" transform="matrix(11,0,0,11,208.1,800.7)" />
<use xlink:href="#f0_9" transform="matrix(11,0,0,11,221.3,800.7)" />
<use xlink:href="#f0_4" transform="matrix(11,0,0,11,229.7,800.7)" />
<use xlink:href="#f0_5" transform="matrix(11,0,0,11,236.2,800.7)" />
<use xlink:href="#f0_c" transform="matrix(11,0,0,11,240.8,800.7)" />
<use xlink:href="#f0_3" transform="matrix(11,0,0,11,246.4,800.7)" />
<use xlink:href="#f0_c" transform="matrix(11,0,0,11,253.9,800.7)" />
<use xlink:href="#f0_f" transform="matrix(11,0,0,11,263.6,800.7)" />
<use xlink:href="#f0_g" transform="matrix(11,0,0,11,271.1,800.7)" />
<use xlink:href="#f0_i" transform="matrix(11,0,0,11,279.5,800.7)" />
<use xlink:href="#f0_9" transform="matrix(11,0,0,11,292.6,800.7)" />
<use xlink:href="#f0_4" transform="matrix(11,0,0,11,305.2,800.7)" />
<use xlink:href="#f0_6" transform="matrix(11,0,0,11,311.7,800.7)" />
<use xlink:href="#f0_d" transform="matrix(11,0,0,11,323.3,800.7)" />
<use xlink:href="#f0_c" transform="matrix(11,0,0,11,331.7,800.7)" />
<use xlink:href="#f0_6" transform="matrix(11,0,0,11,337.3,800.7)" />
<use xlink:href="#f0_d" transform="matrix(11,0,0,11,344.8,800.7)" />
<use xlink:href="#f0_3" transform="matrix(11,0,0,11,353.2,800.7)" />
<use xlink:href="#f0_c" transform="matrix(11,0,0,11,360.5,800.7)" />
<use xlink:href="#f0_3" transform="matrix(11,0,0,11,366.1,800.7)" />
<use xlink:href="#f0_m" transform="matrix(11,0,0,11,377.9,800.7)" />
<use xlink:href="#f0_8" transform="matrix(11,0,0,11,386.3,800.7)" />
<use xlink:href="#f0_3" transform="matrix(11,0,0,11,394.7,800.7)" />
<use xlink:href="#f0_4" transform="matrix(11,0,0,11,406.3,800.7)" />
<use xlink:href="#f0_9" transform="matrix(11,0,0,11,412.8,800.7)" />
<use xlink:href="#f0_d" transform="matrix(11,0,0,11,421.2,800.7)" />
<use xlink:href="#f0_3" transform="matrix(11,0,0,11,429.6,800.7)" />
<use xlink:href="#f0_13" transform="matrix(11,0,0,11,436.9,800.7)" />
<use xlink:href="#f1_i" transform="matrix(12,0,0,12,495,802.1)" />
<use xlink:href="#f1_q" transform="matrix(12,0,0,12,507.2,802.1)" />
<use xlink:href="#f1_d" transform="matrix(12,0,0,12,511.3,802.1)" />
<use xlink:href="#f1_q" transform="matrix(12,0,0,12,518.6,802.1)" />
<use xlink:href="#f1_n" transform="matrix(12,0,0,12,522.8,802.1)" />
<use xlink:href="#f1_l" transform="matrix(12,0,0,12,532.4,802.1)" />
<use xlink:href="#f1_u" transform="matrix(12,0,0,12,557.6,802.1)" />
<use xlink:href="#f1_q" transform="matrix(12,0,0,12,567.3,802.1)" />
<use xlink:href="#f1_9" transform="matrix(12,0,0,12,571.4,802.1)" />
<use xlink:href="#f1_12" transform="matrix(12,0,0,12,583.7,802.1)" />
<use xlink:href="#f1_i" transform="matrix(12,0,0,12,604.6,802.1)" />
<use xlink:href="#f1_q" transform="matrix(12,0,0,12,616.8,802.1)" />
<use xlink:href="#f1_j" transform="matrix(12,0,0,12,620.9,802.1)" />
<use xlink:href="#f1_r" transform="matrix(12,0,0,12,628.4,802.1)" />
<use xlink:href="#f1_3" transform="matrix(12,0,0,12,638.4,802.1)" />
<use xlink:href="#f1_e" transform="matrix(12,0,0,12,650.3,802.1)" />
<use xlink:href="#f1_i" transform="matrix(12,0,0,12,673.2,802.1)" />
<use xlink:href="#f1_q" transform="matrix(12,0,0,12,685.4,802.1)" />
<use xlink:href="#f1_n" transform="matrix(12,0,0,12,689.5,802.1)" />
<use xlink:href="#f1_e" transform="matrix(12,0,0,12,699.2,802.1)" />
<use xlink:href="#f1_c" transform="matrix(12,0,0,12,709.6,802.1)" />
<use xlink:href="#f1_3" transform="matrix(12,0,0,12,714.6,802.1)" />
<use xlink:href="#f1_c" transform="matrix(12,0,0,12,739,802.1)" />
<use xlink:href="#f1_d" transform="matrix(12,0,0,12,744,802.1)" />
<use xlink:href="#f1_9" transform="matrix(12,0,0,12,751.3,802.1)" />
<use xlink:href="#f1_m" transform="matrix(12,0,0,12,713.9,823.5)" />
<use xlink:href="#f1_12" transform="matrix(12,0,0,12,719.7,823.5)" />
<use xlink:href="#f1_6" transform="matrix(12,0,0,12,728.1,823.5)" />
<use xlink:href="#f1_7" transform="matrix(12,0,0,12,741.1,823.5)" />
<use xlink:href="#f1_l" transform="matrix(12,0,0,12,751.3,823.5)" />
<use xlink:href="#f0_1m" transform="matrix(11,0,0,11,128.9,843.5)" />
<use xlink:href="#f0_3" transform="matrix(11,0,0,11,141,843.5)" />
<use xlink:href="#f0_4" transform="matrix(11,0,0,11,148.5,843.5)" />
<use xlink:href="#f0_3" transform="matrix(11,0,0,11,159.3,843.5)" />
<use xlink:href="#f0_k" transform="matrix(11,0,0,11,170.9,843.5)" />
<use xlink:href="#f0_6" transform="matrix(11,0,0,11,179.3,843.5)" />
<use xlink:href="#f0_k" transform="matrix(11,0,0,11,186.7,843.5)" />
<use xlink:href="#f0_e" transform="matrix(11,0,0,11,195.1,843.5)" />
<use xlink:href="#f0_f" transform="matrix(11,0,0,11,199.7,843.5)" />
<use xlink:href="#f0_3" transform="matrix(11,0,0,11,207.2,843.5)" />
<use xlink:href="#f0_c" transform="matrix(11,0,0,11,214.7,843.5)" />
<use xlink:href="#f0_5" transform="matrix(11,0,0,11,220.3,843.5)" />
<use xlink:href="#f0_6" transform="matrix(11,0,0,11,224.9,843.5)" />
<use xlink:href="#f0_3" transform="matrix(11,0,0,11,236.6,843.5)" />
<use xlink:href="#f0_5" transform="matrix(11,0,0,11,248.2,843.5)" />
<use xlink:href="#f0_m" transform="matrix(11,0,0,11,252.9,843.5)" />
<use xlink:href="#f0_4" transform="matrix(11,0,0,11,261.3,843.5)" />
<use xlink:href="#f0_6" transform="matrix(11,0,0,11,272,843.5)" />
<use xlink:href="#f0_4" transform="matrix(11,0,0,11,279.4,843.5)" />
<use xlink:href="#f0_5" transform="matrix(11,0,0,11,285.9,843.5)" />
<use xlink:href="#f0_m" transform="matrix(11,0,0,11,290.6,843.5)" />
<use xlink:href="#f0_k" transform="matrix(11,0,0,11,299,843.5)" />
<use xlink:href="#f0_e" transform="matrix(11,0,0,11,307.4,843.5)" />
<use xlink:href="#f0_3" transform="matrix(11,0,0,11,312.1,843.5)" />
<use xlink:href="#f0_4" transform="matrix(11,0,0,11,319.6,843.5)" />
<use xlink:href="#f0_1f" transform="matrix(11,0,0,11,326,843.5)" />
<use xlink:href="#f1_u" transform="matrix(12,0,0,12,495,844.9)" />
<use xlink:href="#f1_l" transform="matrix(12,0,0,12,504.8,844.9)" />
<use xlink:href="#f1_s" transform="matrix(12,0,0,12,517.3,844.9)" />
<use xlink:href="#f1_p" transform="matrix(12,0,0,12,528.1,844.9)" />
<use xlink:href="#f1_o" transform="matrix(12,0,0,12,569,844.9)" />
<use xlink:href="#f1_q" transform="matrix(12,0,0,12,582,844.9)" />
<use xlink:href="#f1_r" transform="matrix(12,0,0,12,586.1,844.9)" />
<use xlink:href="#f1_6" transform="matrix(12,0,0,12,596.2,844.9)" />
<use xlink:href="#f1_3" transform="matrix(12,0,0,12,609.2,844.9)" />
<use xlink:href="#f1_e" transform="matrix(12,0,0,12,621.1,844.9)" />
<use xlink:href="#f1_u" transform="matrix(12,0,0,12,660.9,844.9)" />
<use xlink:href="#f1_e" transform="matrix(12,0,0,12,670.7,844.9)" />
<use xlink:href="#f1_c" transform="matrix(12,0,0,12,681.1,844.9)" />
<use xlink:href="#f1_3" transform="matrix(12,0,0,12,686.1,844.9)" />
<use xlink:href="#f1_3" transform="matrix(12,0,0,12,727.5,844.9)" />
<use xlink:href="#f1_b" transform="matrix(12,0,0,12,739.4,844.9)" />
<use xlink:href="#f1_9" transform="matrix(12,0,0,12,751.4,844.9)" />
<use xlink:href="#f1_14" transform="matrix(12,0,0,12,688,866.3)" />
<use xlink:href="#f1_u" transform="matrix(12,0,0,12,697.7,866.3)" />
<use xlink:href="#f1_q" transform="matrix(12,0,0,12,707.5,866.3)" />
<use xlink:href="#f1_r" transform="matrix(12,0,0,12,711.5,866.3)" />
<use xlink:href="#f1_c" transform="matrix(12,0,0,12,721.5,866.3)" />
<use xlink:href="#f1_l" transform="matrix(12,0,0,12,726.6,866.3)" />
<use xlink:href="#f1_q" transform="matrix(12,0,0,12,738.9,866.3)" />
<use xlink:href="#f1_e" transform="matrix(12,0,0,12,743,866.3)" />
<use xlink:href="#f1_e" transform="matrix(12,0,0,12,753.4,866.3)" />
</g>
<g fill="#0000FF" >
<use xlink:href="#f1_6" transform="matrix(11,0,0,11,678.5,905.5)" />
<use xlink:href="#f1_7" transform="matrix(11,0,0,11,690.4,905.5)" />
<use xlink:href="#f1_8" transform="matrix(11,0,0,11,699.7,905.5)" />
<use xlink:href="#f1_e" transform="matrix(11,0,0,11,710.2,905.5)" />
<use xlink:href="#f1_3" transform="matrix(11,0,0,11,725.2,905.5)" />
<use xlink:href="#f1_7" transform="matrix(11,0,0,11,736.2,905.5)" />
<use xlink:href="#f1_4" transform="matrix(11,0,0,11,745.7,905.5)" />
<use xlink:href="#f1_h" transform="matrix(11,0,0,11,751.5,905.5)" />
<use xlink:href="#f1_f" transform="matrix(11,0,0,11,762.3,905.5)" />
</g>
</g>
<path d="M678.3,907.2H772" class="g1_14" />
<g clip-path="url(#c0_14)">
<g fill="#000000" >
<use xlink:href="#f2_2" transform="matrix(13,0,0,13,137.7,947.4)" />
<use xlink:href="#f2_3" transform="matrix(13,0,0,13,152.8,947.4)" />
<use xlink:href="#f2_4" transform="matrix(13,0,0,13,160,947.4)" />
<use xlink:href="#f2_5" transform="matrix(13,0,0,13,172.6,947.4)" />
<use xlink:href="#f2_6" transform="matrix(13,0,0,13,183,947.4)" />
<use xlink:href="#f2_7" transform="matrix(13,0,0,13,195.1,947.4)" />
<use xlink:href="#f2_6" transform="matrix(13,0,0,13,202.6,947.4)" />
<use xlink:href="#f2_7" transform="matrix(13,0,0,13,214.6,947.4)" />
<use xlink:href="#f2_8" transform="matrix(13,0,0,13,222.1,947.4)" />
<use xlink:href="#f2_a" transform="matrix(13,0,0,13,242.6,947.4)" />
<use xlink:href="#f2_i" transform="matrix(13,0,0,13,256.3,947.4)" />
<use xlink:href="#f2_l" transform="matrix(13,0,0,13,277.1,947.4)" />
</g>
</g>
<path d="M118,971.9H664.2M118,992.2H772.4M118,1012.4H772.4m-654.4,20H772.4M118,1052.6H772.4m-654.4,20H772.4M118,1092.7H772.4M118.4,971.5v121.6M273.9,971.5v121.6m195,-121.6v121.6M663.8,971.5v121.6M772,991.8v101.3" class="g2_14" />
<g clip-path="url(#c0_14)">
<g fill="#000000" >
<use xlink:href="#f1_t" transform="matrix(11,0,0,11,564.3,987.9)" />
<use xlink:href="#f1_b" transform="matrix(11,0,0,11,568.9,987.9)" />
<use xlink:href="#f1_h" transform="matrix(11,0,0,11,579.9,987.9)" />
<use xlink:href="#f1_b" transform="matrix(11,0,0,11,590.9,987.9)" />
<use xlink:href="#f1_3" transform="matrix(11,0,0,11,601.9,987.9)" />
<use xlink:href="#f1_e" transform="matrix(11,0,0,11,612.9,987.9)" />
<use xlink:href="#f0_f" transform="matrix(11,0,0,11,510.4,987.9)" />
<use xlink:href="#f0_3" transform="matrix(11,0,0,11,517.8,987.9)" />
<use xlink:href="#f0_4" transform="matrix(11,0,0,11,525.2,987.9)" />
<use xlink:href="#f0_3" transform="matrix(11,0,0,11,531.8,987.9)" />
<use xlink:href="#f0_c" transform="matrix(11,0,0,11,539.2,987.9)" />
<use xlink:href="#f0_4" transform="matrix(11,0,0,11,544.9,987.9)" />
<use xlink:href="#f0_6" transform="matrix(11,0,0,11,551.3,987.9)" />
<use xlink:href="#f1_u" transform="matrix(11,0,0,11,377.8,987.9)" />
<use xlink:href="#f1_c" transform="matrix(11,0,0,11,386.8,987.9)" />
<use xlink:href="#f1_o" transform="matrix(11,0,0,11,391.4,987.9)" />
<use xlink:href="#f1_d" transform="matrix(11,0,0,11,403.3,987.9)" />
<use xlink:href="#f1_e" transform="matrix(11,0,0,11,409.8,987.9)" />
<use xlink:href="#f0_i" transform="matrix(11,0,0,11,323.6,987.9)" />
<use xlink:href="#f0_9" transform="matrix(11,0,0,11,336.7,987.9)" />
<use xlink:href="#f0_c" transform="matrix(11,0,0,11,345.1,987.9)" />
<use xlink:href="#f0_k" transform="matrix(11,0,0,11,350.7,987.9)" />
<use xlink:href="#f0_6" transform="matrix(11,0,0,11,359,987.9)" />
<use xlink:href="#f0_c" transform="matrix(11,0,0,11,366.5,987.9)" />
<use xlink:href="#f1_o" transform="matrix(11,0,0,11,191.6,987.9)" />
<use xlink:href="#f1_q" transform="matrix(11,0,0,11,203.5,987.9)" />
<use xlink:href="#f1_j" transform="matrix(11,0,0,11,207.3,987.9)" />
<use xlink:href="#f1_7" transform="matrix(11,0,0,11,214.1,987.9)" />
<use xlink:href="#f1_3" transform="matrix(11,0,0,11,223.6,987.9)" />
<use xlink:href="#f1_e" transform="matrix(11,0,0,11,234.5,987.9)" />
<use xlink:href="#f0_4" transform="matrix(11,0,0,11,148.7,987.9)" />
<use xlink:href="#f0_6" transform="matrix(11,0,0,11,155.1,987.9)" />
<use xlink:href="#f0_8" transform="matrix(11,0,0,11,162.5,987.9)" />
<use xlink:href="#f0_5" transform="matrix(11,0,0,11,170.9,987.9)" />
<use xlink:href="#f0_e" transform="matrix(11,0,0,11,175.7,987.9)" />
<use xlink:href="#f0_c" transform="matrix(11,0,0,11,180.2,987.9)" />
<use xlink:href="#f0_10" transform="matrix(11,0,0,11,672.5,1008.3)" />
<use xlink:href="#f0_9" transform="matrix(11,0,0,11,680.9,1008.3)" />
<use xlink:href="#f0_i" transform="matrix(11,0,0,11,477.6,1008.3)" />
<use xlink:href="#f0_6" transform="matrix(11,0,0,11,490.7,1008.3)" />
<use xlink:href="#f0_f" transform="matrix(11,0,0,11,502.3,1008.3)" />
<use xlink:href="#f0_3" transform="matrix(11,0,0,11,509.7,1008.3)" />
<use xlink:href="#f0_4" transform="matrix(11,0,0,11,517.2,1008.3)" />
<use xlink:href="#f0_j" transform="matrix(11,0,0,11,523.8,1008.3)" />
<use xlink:href="#f0_i" transform="matrix(11,0,0,11,282.8,1008.3)" />
<use xlink:href="#f0_9" transform="matrix(11,0,0,11,295.8,1008.3)" />
<use xlink:href="#f0_c" transform="matrix(11,0,0,11,304.2,1008.3)" />
<use xlink:href="#f0_k" transform="matrix(11,0,0,11,309.8,1008.3)" />
<use xlink:href="#f0_p" transform="matrix(11,0,0,11,318.2,1008.3)" />
<use xlink:href="#f0_4" transform="matrix(11,0,0,11,127.3,1008.3)" />
<use xlink:href="#f0_6" transform="matrix(11,0,0,11,133.7,1008.3)" />
<use xlink:href="#f0_8" transform="matrix(11,0,0,11,141.1,1008.3)" />
<use xlink:href="#f0_5" transform="matrix(11,0,0,11,149.5,1008.3)" />
<use xlink:href="#f0_p" transform="matrix(11,0,0,11,154.3,1008.3)" />
<use xlink:href="#f0_5" transform="matrix(11,0,0,11,672.5,1028.3)" />
<use xlink:href="#f0_x" transform="matrix(11,0,0,11,677.3,1028.3)" />
<use xlink:href="#f0_5" transform="matrix(11,0,0,11,477.6,1028.3)" />
<use xlink:href="#f0_6" transform="matrix(11,0,0,11,482.3,1028.3)" />
<use xlink:href="#f0_f" transform="matrix(11,0,0,11,493.9,1028.3)" />
<use xlink:href="#f0_3" transform="matrix(11,0,0,11,501.3,1028.3)" />
<use xlink:href="#f0_4" transform="matrix(11,0,0,11,508.8,1028.3)" />
<use xlink:href="#f0_3" transform="matrix(11,0,0,11,515.4,1028.3)" />
<use xlink:href="#f0_4" transform="matrix(11,0,0,11,522.7,1028.3)" />
<use xlink:href="#f0_5" transform="matrix(11,0,0,11,529.2,1028.3)" />
<use xlink:href="#f0_6" transform="matrix(11,0,0,11,534,1028.3)" />
<use xlink:href="#f0_i" transform="matrix(11,0,0,11,282.8,1028.3)" />
<use xlink:href="#f0_9" transform="matrix(11,0,0,11,295.8,1028.3)" />
<use xlink:href="#f0_c" transform="matrix(11,0,0,11,304.2,1028.3)" />
<use xlink:href="#f0_k" transform="matrix(11,0,0,11,309.8,1028.3)" />
<use xlink:href="#f0_e" transform="matrix(11,0,0,11,318.2,1028.3)" />
<use xlink:href="#f0_4" transform="matrix(11,0,0,11,322.8,1028.3)" />
<use xlink:href="#f0_5" transform="matrix(11,0,0,11,329.4,1028.3)" />
<use xlink:href="#f0_6" transform="matrix(11,0,0,11,334.1,1028.3)" />
<use xlink:href="#f0_4" transform="matrix(11,0,0,11,127.3,1028.3)" />
<use xlink:href="#f0_6" transform="matrix(11,0,0,11,133.7,1028.3)" />
<use xlink:href="#f0_8" transform="matrix(11,0,0,11,141.1,1028.3)" />
<use xlink:href="#f0_5" transform="matrix(11,0,0,11,149.5,1028.3)" />
<use xlink:href="#f0_e" transform="matrix(11,0,0,11,154.3,1028.3)" />
<use xlink:href="#f0_4" transform="matrix(11,0,0,11,158.9,1028.3)" />
<use xlink:href="#f0_5" transform="matrix(11,0,0,11,165.4,1028.3)" />
<use xlink:href="#f0_6" transform="matrix(11,0,0,11,170.1,1028.3)" />
<use xlink:href="#f0_j" transform="matrix(11,0,0,11,672.5,1048.5)" />
<use xlink:href="#f0_7" transform="matrix(11,0,0,11,680,1048.5)" />
<use xlink:href="#f0_11" transform="matrix(11,0,0,11,684.6,1048.5)" />
<use xlink:href="#f0_6" transform="matrix(11,0,0,11,689.3,1048.5)" />
<use xlink:href="#f0_7" transform="matrix(11,0,0,11,696.8,1048.5)" />
<use xlink:href="#f0_7" transform="matrix(11,0,0,11,701.3,1048.5)" />
<use xlink:href="#f0_3" transform="matrix(11,0,0,11,706.1,1048.5)" />
<use xlink:href="#f0_11" transform="matrix(11,0,0,11,713.5,1048.5)" />
<use xlink:href="#f0_12" transform="matrix(11,0,0,11,718.3,1048.5)" />
<use xlink:href="#f0_k" transform="matrix(11,0,0,11,730.3,1048.5)" />
<use xlink:href="#f0_13" transform="matrix(11,0,0,11,738.7,1048.5)" />
<use xlink:href="#f0_4" transform="matrix(11,0,0,11,477.6,1048.5)" />
<use xlink:href="#f0_6" transform="matrix(11,0,0,11,484.1,1048.5)" />
<use xlink:href="#f0_f" transform="matrix(11,0,0,11,495.7,1048.5)" />
<use xlink:href="#f0_3" transform="matrix(11,0,0,11,503.2,1048.5)" />
<use xlink:href="#f0_4" transform="matrix(11,0,0,11,510.6,1048.5)" />
<use xlink:href="#f0_g" transform="matrix(11,0,0,11,517.2,1048.5)" />
<use xlink:href="#f0_i" transform="matrix(11,0,0,11,282.8,1048.5)" />
<use xlink:href="#f0_9" transform="matrix(11,0,0,11,295.8,1048.5)" />
<use xlink:href="#f0_c" transform="matrix(11,0,0,11,304.2,1048.5)" />
<use xlink:href="#f0_k" transform="matrix(11,0,0,11,309.8,1048.5)" />
<use xlink:href="#f0_e" transform="matrix(11,0,0,11,318.2,1048.5)" />
<use xlink:href="#f0_g" transform="matrix(11,0,0,11,322.9,1048.5)" />
<use xlink:href="#f0_4" transform="matrix(11,0,0,11,127.3,1048.5)" />
<use xlink:href="#f0_e" transform="matrix(11,0,0,11,133.7,1048.5)" />
<use xlink:href="#f0_8" transform="matrix(11,0,0,11,138.4,1048.5)" />
<use xlink:href="#f0_5" transform="matrix(11,0,0,11,146.8,1048.5)" />
<use xlink:href="#f0_e" transform="matrix(11,0,0,11,151.4,1048.5)" />
<use xlink:href="#f0_g" transform="matrix(11,0,0,11,156.1,1048.5)" />
<use xlink:href="#f0_8" transform="matrix(11,0,0,11,672.5,1068.5)" />
<use xlink:href="#f0_9" transform="matrix(11,0,0,11,680.9,1068.5)" />
<use xlink:href="#f0_4" transform="matrix(11,0,0,11,689.3,1068.5)" />
<use xlink:href="#f0_9" transform="matrix(11,0,0,11,695.9,1068.5)" />
<use xlink:href="#f0_5" transform="matrix(11,0,0,11,704.3,1068.5)" />
<use xlink:href="#f0_c" transform="matrix(11,0,0,11,708.9,1068.5)" />
<use xlink:href="#f0_9" transform="matrix(11,0,0,11,714.5,1068.5)" />
<use xlink:href="#f0_4" transform="matrix(11,0,0,11,722.9,1068.5)" />
<use xlink:href="#f0_11" transform="matrix(11,0,0,11,729.5,1068.5)" />
<use xlink:href="#f0_3" transform="matrix(11,0,0,11,734.2,1068.5)" />
<use xlink:href="#f0_4" transform="matrix(11,0,0,11,741.5,1068.5)" />
<use xlink:href="#f0_8" transform="matrix(11,0,0,11,477.6,1068.5)" />
<use xlink:href="#f0_9" transform="matrix(11,0,0,11,486,1068.5)" />
<use xlink:href="#f0_4" transform="matrix(11,0,0,11,494.4,1068.5)" />
<use xlink:href="#f0_f" transform="matrix(11,0,0,11,505.2,1068.5)" />
<use xlink:href="#f0_3" transform="matrix(11,0,0,11,512.5,1068.5)" />
<use xlink:href="#f0_4" transform="matrix(11,0,0,11,520,1068.5)" />
<use xlink:href="#f0_3" transform="matrix(11,0,0,11,526.6,1068.5)" />
<use xlink:href="#f0_i" transform="matrix(11,0,0,11,534,1068.5)" />
<use xlink:href="#f0_9" transform="matrix(11,0,0,11,547.1,1068.5)" />
<use xlink:href="#f0_4" transform="matrix(11,0,0,11,555.4,1068.5)" />
<use xlink:href="#f0_i" transform="matrix(11,0,0,11,282.8,1068.5)" />
<use xlink:href="#f0_9" transform="matrix(11,0,0,11,295.8,1068.5)" />
<use xlink:href="#f0_c" transform="matrix(11,0,0,11,304.2,1068.5)" />
<use xlink:href="#f0_k" transform="matrix(11,0,0,11,309.8,1068.5)" />
<use xlink:href="#f0_e" transform="matrix(11,0,0,11,318.2,1068.5)" />
<use xlink:href="#f0_i" transform="matrix(11,0,0,11,322.8,1068.5)" />
<use xlink:href="#f0_9" transform="matrix(11,0,0,11,335.9,1068.5)" />
<use xlink:href="#f0_4" transform="matrix(11,0,0,11,344.3,1068.5)" />
<use xlink:href="#f0_4" transform="matrix(11,0,0,11,127.3,1068.5)" />
<use xlink:href="#f0_6" transform="matrix(11,0,0,11,133.7,1068.5)" />
<use xlink:href="#f0_8" transform="matrix(11,0,0,11,141.1,1068.5)" />
<use xlink:href="#f0_5" transform="matrix(11,0,0,11,149.5,1068.5)" />
<use xlink:href="#f0_e" transform="matrix(11,0,0,11,154.3,1068.5)" />
<use xlink:href="#f0_i" transform="matrix(11,0,0,11,158.9,1068.5)" />
<use xlink:href="#f0_9" transform="matrix(11,0,0,11,172,1068.5)" />
<use xlink:href="#f0_4" transform="matrix(11,0,0,11,180.4,1068.5)" />
<use xlink:href="#f0_6" transform="matrix(11,0,0,11,672.5,1088.7)" />
<use xlink:href="#f0_7" transform="matrix(11,0,0,11,680,1088.7)" />
<use xlink:href="#f0_7" transform="matrix(11,0,0,11,684.6,1088.7)" />
<use xlink:href="#f0_9" transform="matrix(11,0,0,11,689.3,1088.7)" />
<use xlink:href="#f0_4" transform="matrix(11,0,0,11,697.7,1088.7)" />
<use xlink:href="#f0_11" transform="matrix(11,0,0,11,704.3,1088.7)" />
<use xlink:href="#f0_3" transform="matrix(11,0,0,11,709,1088.7)" />
<use xlink:href="#f0_4" transform="matrix(11,0,0,11,716.3,1088.7)" />
<use xlink:href="#f0_11" transform="matrix(11,0,0,11,722.9,1088.7)" />
<use xlink:href="#f0_12" transform="matrix(11,0,0,11,727.6,1088.7)" />
<use xlink:href="#f0_k" transform="matrix(11,0,0,11,739.6,1088.7)" />
<use xlink:href="#f0_4" transform="matrix(11,0,0,11,748.1,1088.7)" />
<use xlink:href="#f0_13" transform="matrix(11,0,0,11,754.6,1088.7)" />
<use xlink:href="#f0_4" transform="matrix(11,0,0,11,477.6,1088.7)" />
<use xlink:href="#f0_6" transform="matrix(11,0,0,11,484.1,1088.7)" />
<use xlink:href="#f0_f" transform="matrix(11,0,0,11,495.7,1088.7)" />
<use xlink:href="#f0_3" transform="matrix(11,0,0,11,503.2,1088.7)" />
<use xlink:href="#f0_4" transform="matrix(11,0,0,11,510.6,1088.7)" />
<use xlink:href="#f0_3" transform="matrix(11,0,0,11,517.2,1088.7)" />
<use xlink:href="#f0_c" transform="matrix(11,0,0,11,524.5,1088.7)" />
<use xlink:href="#f0_9" transform="matrix(11,0,0,11,530.2,1088.7)" />
<use xlink:href="#f0_8" transform="matrix(11,0,0,11,538.6,1088.7)" />
<use xlink:href="#f0_i" transform="matrix(11,0,0,11,282.8,1088.7)" />
<use xlink:href="#f0_9" transform="matrix(11,0,0,11,295.8,1088.7)" />
<use xlink:href="#f0_c" transform="matrix(11,0,0,11,304.2,1088.7)" />
<use xlink:href="#f0_k" transform="matrix(11,0,0,11,309.8,1088.7)" />
<use xlink:href="#f0_e" transform="matrix(11,0,0,11,318.2,1088.7)" />
<use xlink:href="#f0_6" transform="matrix(11,0,0,11,322.8,1088.7)" />
<use xlink:href="#f0_c" transform="matrix(11,0,0,11,330.3,1088.7)" />
<use xlink:href="#f0_9" transform="matrix(11,0,0,11,335.9,1088.7)" />
<use xlink:href="#f0_8" transform="matrix(11,0,0,11,344.3,1088.7)" />
<use xlink:href="#f0_4" transform="matrix(11,0,0,11,127.3,1088.7)" />
<use xlink:href="#f0_e" transform="matrix(11,0,0,11,133.7,1088.7)" />
<use xlink:href="#f0_8" transform="matrix(11,0,0,11,138.4,1088.7)" />
<use xlink:href="#f0_5" transform="matrix(11,0,0,11,146.8,1088.7)" />
<use xlink:href="#f0_e" transform="matrix(11,0,0,11,151.4,1088.7)" />
<use xlink:href="#f0_6" transform="matrix(11,0,0,11,156.1,1088.7)" />
<use xlink:href="#f0_c" transform="matrix(11,0,0,11,163.6,1088.7)" />
<use xlink:href="#f0_9" transform="matrix(11,0,0,11,169.2,1088.7)" />
<use xlink:href="#f0_8" transform="matrix(11,0,0,11,177.6,1088.7)" />
</g>
<g fill="#0000FF" >
<use xlink:href="#f1_6" transform="matrix(11,0,0,11,678.5,1128)" />
<use xlink:href="#f1_7" transform="matrix(11,0,0,11,690.4,1128)" />
<use xlink:href="#f1_8" transform="matrix(11,0,0,11,699.7,1128)" />
<use xlink:href="#f1_e" transform="matrix(11,0,0,11,710.2,1128)" />
<use xlink:href="#f1_3" transform="matrix(11,0,0,11,725.2,1128)" />
<use xlink:href="#f1_7" transform="matrix(11,0,0,11,736.2,1128)" />
<use xlink:href="#f1_4" transform="matrix(11,0,0,11,745.7,1128)" />
<use xlink:href="#f1_h" transform="matrix(11,0,0,11,751.5,1128)" />
<use xlink:href="#f1_f" transform="matrix(11,0,0,11,762.3,1128)" />
</g>
</g>
<path d="M678.3,1129.6H772" class="g1_14" />
<g clip-path="url(#c0_14)">
<g fill="#000000" >
<use xlink:href="#f2_2" transform="matrix(13,0,0,13,137.7,1150.6)" />
<use xlink:href="#f2_3" transform="matrix(13,0,0,13,152.8,1150.6)" />
<use xlink:href="#f2_4" transform="matrix(13,0,0,13,160,1150.6)" />
<use xlink:href="#f2_5" transform="matrix(13,0,0,13,172.6,1150.6)" />
<use xlink:href="#f2_6" transform="matrix(13,0,0,13,183,1150.6)" />
<use xlink:href="#f2_7" transform="matrix(13,0,0,13,195.1,1150.6)" />
<use xlink:href="#f2_6" transform="matrix(13,0,0,13,202.6,1150.6)" />
<use xlink:href="#f2_7" transform="matrix(13,0,0,13,214.6,1150.6)" />
<use xlink:href="#f2_8" transform="matrix(13,0,0,13,222.1,1150.6)" />
<use xlink:href="#f2_a" transform="matrix(13,0,0,13,242.6,1150.6)" />
<use xlink:href="#f2_j" transform="matrix(13,0,0,13,256.3,1150.6)" />
<use xlink:href="#f2_l" transform="matrix(13,0,0,13,277.1,1150.6)" />
</g>
</g>
<defs>
<path d="M44,0V40L172,60V941L44,960v40H794V760H745L721,922c0,0,-83,11,-241,11H316V543H586l23,119h48V354H609L586,475H316V67H513c0,0,193,0,252,12l43,185h49L843,0Z" 
id="f0_1e"
transform="scale(0.001,-0.001)" />

<path d="M439,0V33l93,19V500c0,0,0,62,-30,97c0,0,-31,36,-94,36c0,0,-67,0,-165,-22V52L338,33V0H35V33l84,19V649L35,668v33H235l7,-57c0,0,57,33,122,54c0,0,65,22,108,22c0,0,91,0,137,-53c0,0,47,-53,47,-154V52L741,33V0Z" 
id="f0_8"
transform="scale(0.001,-0.001)" />

<path d="M495,413c0,0,0,133,-34,190c0,0,-34,57,-105,57c0,0,-78,0,-119,-63c0,0,-42,-62,-42,-184ZM374,-14c0,0,-163,0,-239,87c0,0,-75,88,-75,283c0,0,0,183,77,273c0,0,76,91,219,91c0,0,269,0,269,-306V353H194V340c0,0,0,-103,23,-160c0,0,22,-57,70,-87c0,0,47,-29,124,-29c0,0,40,0,96,6c0,0,55,7,91,15V43C598,43,562,20,500,3c0,0,-61,-17,-126,-17Z" 
id="f0_6"
transform="scale(0.001,-0.001)" />

<path d="M278,-14c0,0,-52,0,-115,11c0,0,-63,10,-99,23V193H98L134,95c0,0,56,-50,146,-50c0,0,144,0,144,123c0,0,0,91,-114,130l-66,21c0,0,-75,25,-110,50c0,0,-34,26,-53,63c0,0,-18,36,-18,89c0,0,0,92,63,145c0,0,63,54,170,54c0,0,77,0,193,-23V544H454l-32,81c0,0,-39,35,-124,35c0,0,-61,0,-92,-30c0,0,-32,-30,-32,-80c0,0,0,-43,29,-72c0,0,28,-29,86,-48c0,0,110,-38,144,-55c0,0,33,-17,57,-42c0,0,23,-25,36,-57c0,0,13,-32,13,-79c0,0,0,-104,-66,-158c0,0,-66,-53,-195,-53Z" 
id="f0_4"
transform="scale(0.001,-0.001)" />

<path d="M249,-14c0,0,-71,0,-107,42c0,0,-35,42,-35,119V639H15v33l93,29l76,159h47V701H391V639H231V161c0,0,0,-48,22,-73c0,0,22,-24,57,-24c0,0,44,0,106,12V26C416,26,389,8,340,-2c0,0,-49,-12,-91,-12Z" 
id="f0_5"
transform="scale(0.001,-0.001)" />

<path d="M284,67c0,0,51,0,88,12c0,0,37,12,74,30V358l-98,-3c0,0,-100,-4,-135,-39c0,0,-35,-35,-35,-117c0,0,0,-132,106,-132ZM233,-14c0,0,-179,0,-179,208c0,0,0,70,27,116c0,0,27,46,87,70c0,0,60,24,173,27l105,3V519c0,0,0,72,-26,107c0,0,-27,34,-82,34c0,0,-75,0,-137,-35L176,538H134V691c0,0,121,26,213,26c0,0,115,0,169,-47c0,0,54,-47,54,-144V52L657,33V0H465L451,70c0,0,-85,-84,-218,-84Z" 
id="f0_3"
transform="scale(0.001,-0.001)" />

<path d="M399,-14c0,0,-341,0,-341,370c0,0,0,175,87,269c0,0,87,95,249,95c0,0,101,0,220,-23V501H573L541,625c0,0,-62,35,-149,35c0,0,-200,0,-200,-304c0,0,0,-158,61,-225c0,0,61,-67,189,-67c0,0,109,0,189,24V43C631,43,595,16,530,1c0,0,-64,-15,-131,-15Z" 
id="f0_f"
transform="scale(0.001,-0.001)" />

<path d="M32,0V33L151,52V649L52,668v33H275V52L395,33V0ZM201,850c0,0,-32,0,-56,24c0,0,-24,24,-24,56c0,0,0,34,24,58c0,0,24,24,56,24c0,0,34,0,58,-24c0,0,24,-24,24,-58c0,0,0,-32,-24,-56c0,0,-24,-24,-58,-24Z" 
id="f0_e"
transform="scale(0.001,-0.001)" />

<path d="M289,-14c0,0,-179,0,-179,205V649L20,668v33H233V200c0,0,0,-128,120,-128c0,0,92,0,173,23V649L420,668v33H649V52L738,33V0H533l-6,57C527,57,474,28,405,7c0,0,-69,-21,-116,-21Z" 
id="f0_m"
transform="scale(0.001,-0.001)" />

<path d="M383,64c0,0,85,0,152,28V645c0,0,-67,13,-152,13c0,0,-194,0,-194,-314c0,0,0,-141,48,-211c0,0,48,-69,146,-69ZM342,-14c0,0,-287,0,-287,358c0,0,0,184,82,280c0,0,81,96,239,96c0,0,81,0,163,-18c0,0,-4,25,-4,124v182l-118,18v34H659V52L745,33V0H548l-9,52c0,0,-84,-66,-197,-66Z" 
id="f0_k"
transform="scale(0.001,-0.001)" />

<path d="M64,0V34L168,59V639H47v36l121,29v49c0,0,0,155,61,239c0,0,62,84,173,84c0,0,58,0,107,-15V908H472l-33,92c0,0,-26,16,-62,16c0,0,-47,0,-66,-42c0,0,-19,-42,-19,-157V701H478V639H292V59L443,34V0Z" 
id="f0_s"
transform="scale(0.001,-0.001)" />

<path d="M284,67c0,0,51,0,88,12c0,0,37,11,74,29V357l-98,-3c0,0,-100,-3,-135,-38c0,0,-35,-36,-35,-118c0,0,0,-131,106,-131ZM233,-14c0,0,-179,0,-179,208c0,0,0,70,27,116c0,0,27,46,87,70c0,0,60,24,173,27l105,3V519c0,0,0,73,-26,107c0,0,-27,34,-82,34c0,0,-75,0,-137,-35L176,538H134V691c0,0,121,26,213,26c0,0,115,0,169,-47c0,0,54,-47,54,-144V52L657,34V0H465L451,70c0,0,-85,-84,-218,-84Zm22,849v24l146,203H560v-27L296,835Z" 
id="f0_y"
transform="scale(0.001,-0.001)" />

<path d="M31,0V33L150,52v956L31,1026v34H274V52L394,33V0Z" 
id="f0_7"
transform="scale(0.001,-0.001)" />

<path d="M377,45c0,0,99,0,147,73c0,0,47,73,47,237c0,0,0,161,-47,233c0,0,-47,72,-147,72c0,0,-97,0,-141,-69c0,0,-44,-69,-44,-236c0,0,0,-169,45,-240c0,0,44,-70,140,-70Zm0,-59c0,0,-158,0,-238,94c0,0,-81,95,-81,274c0,0,0,178,81,272c0,0,80,94,244,94c0,0,160,0,241,-92c0,0,82,-92,82,-274c0,0,0,-368,-329,-368Z" 
id="f0_9"
transform="scale(0.001,-0.001)" />

<path d="M31,0V33l88,19V649L31,668v33H235l7,-87c0,0,44,37,121,71c0,0,76,35,121,35h11V530H463l-43,82c0,0,-37,0,-88,-10c0,0,-52,-10,-89,-26V52L363,33V0Z" 
id="f0_c"
transform="scale(0.001,-0.001)" />

<path d="M191,-20c0,0,-39,0,-65,25c0,0,-25,27,-25,64c0,0,0,38,26,64c0,0,26,26,64,26c0,0,38,0,64,-26c0,0,26,-26,26,-64c0,0,0,-37,-25,-64c0,0,-26,-25,-65,-25Z" 
id="f0_13"
transform="scale(0.001,-0.001)" />

<path d="M139,0V138c0,0,0,61,8,112c0,0,7,52,19,87c0,0,11,36,30,66c0,0,19,31,35,49c0,0,17,19,41,35c0,0,25,17,41,25c0,0,17,7,40,17L141,836H303L613,388c0,0,20,10,33,18c0,0,13,8,34,28c0,0,20,20,33,44c0,0,13,25,22,66c0,0,10,41,10,92V836H882V698c0,0,0,-61,-7,-112c0,0,-6,-52,-18,-88c0,0,-12,-36,-30,-66c0,0,-19,-30,-36,-49c0,0,-17,-18,-41,-34c0,0,-24,-17,-40,-25c0,0,-17,-8,-41,-17L882,0H720L409,448c0,0,-21,-11,-34,-19c0,0,-13,-8,-34,-27c0,0,-21,-20,-34,-44c0,0,-12,-25,-22,-66c0,0,-9,-41,-9,-92V0Z" 
id="f1_9"
transform="scale(0.001,-0.001)" />

<path d="M139,0V836H278V0Z" 
id="f1_c"
transform="scale(0.001,-0.001)" />

<path d="M66,0V106H564L66,836H228L516,413c0,0,3,2,9,6c0,0,17,13,27,21c0,0,10,8,26,27c0,0,17,20,26,40c0,0,9,21,16,54c0,0,7,34,7,75V836H764V698c0,0,0,-55,-7,-102c0,0,-7,-47,-16,-79c0,0,-10,-33,-27,-62c0,0,-18,-29,-32,-46c0,0,-14,-17,-37,-35c0,0,-22,-17,-36,-25c0,0,-13,-8,-36,-20L767,53V0Z" 
id="f1_s"
transform="scale(0.001,-0.001)" />

<path d="M114,0l60,312c0,0,2,12,8,39c0,0,6,27,7,37c0,0,2,11,5,30c0,0,2,19,4,33c0,0,1,15,1,31c0,0,0,48,-35,146c0,0,-35,98,-98,208H228c0,0,3,-8,27,-67c0,0,25,-58,41,-117c0,0,21,53,50,90c0,0,29,37,57,57c0,0,29,21,65,32c0,0,37,11,65,14c0,0,28,3,67,3c0,0,300,0,300,-396V0H480V106H761V452c0,0,0,146,-46,215c0,0,-45,70,-118,70c0,0,-134,0,-198,-119c0,0,-36,-68,-67,-222c0,0,-2,-10,-6,-27L253,0Z" 
id="f1_l"
transform="scale(0.001,-0.001)" />

<path d="M287,0L589,729H66v386H205V836l547,-1l-2,-82L433,0Z" 
id="f1_e"
transform="scale(0.001,-0.001)" />

<path d="M0,-141L388,1114H514L127,-141Z" 
id="f1_w"
transform="scale(0.001,-0.001)" />

<path d="M180,0L66,836H203L258,443c0,0,36,1,64,6c0,0,28,6,49,18c0,0,20,12,35,26c0,0,15,13,26,36c0,0,11,24,17,44c0,0,7,20,12,55c0,0,6,34,9,60c0,0,3,26,8,71c0,0,4,45,9,77H610c0,0,-13,-194,-31,-271c0,0,-31,-127,-111,-179c0,0,-71,-45,-196,-50L304,107c0,0,73,0,130,5c0,0,56,6,111,21c0,0,54,15,94,40c0,0,40,25,77,64c0,0,37,39,63,94c0,0,25,54,46,128c0,0,21,73,34,166c0,0,13,94,20,211h138c0,0,-14,-124,-29,-218c0,0,-16,-94,-39,-179c0,0,-22,-85,-50,-146c0,0,-28,-61,-68,-112c0,0,-39,-51,-87,-84C744,97,696,65,632,42C632,42,568,19,492,10C492,10,417,0,320,0Z" 
id="f1_o"
transform="scale(0.001,-0.001)" />

<path d="M138,-7c0,0,-34,0,-72,10V129c0,0,25,-8,52,-8c0,0,33,0,58,5c0,0,26,5,58,24c0,0,33,20,53,54c0,0,21,34,36,97c0,0,15,64,15,151c0,0,0,113,-19,173c0,0,-19,60,-56,82c0,0,-38,22,-107,22H89V836h72c0,0,165,0,240,-91c0,0,76,-91,76,-293c0,0,0,-107,26,-227c0,0,25,-119,83,-225H437c0,0,-43,101,-62,184c0,0,-24,-60,-51,-99c0,0,-26,-38,-56,-58C268,27,239,7,209,0c0,0,-30,-7,-71,-7Z" 
id="f1_j"
transform="scale(0.001,-0.001)" />

<path d="M139,0V106H400c0,0,176,0,253,71c0,0,78,72,78,250c0,0,0,163,-80,233c0,0,-81,69,-250,69H278L277,564c0,0,-1,-54,26,-80c0,0,27,-25,82,-25c0,0,30,0,80,9V355c0,0,-61,-12,-111,-12c0,0,-100,0,-157,55c0,0,-58,55,-58,186V836H456c0,0,193,0,303,-109c0,0,110,-109,110,-309c0,0,0,-200,-110,-309C759,109,648,0,456,0Z" 
id="f1_8"
transform="scale(0.001,-0.001)" />

<path d="M156,-317V454l139,56V-317ZM505,0L806,729H139V835H967V753L650,0Z" 
id="f1_6"
transform="scale(0.001,-0.001)" />

<path d="M154,0V454l138,56V0ZM722,0V454c0,0,0,161,-49,218c0,0,-48,57,-186,57H139V836H485c0,0,207,0,291,-93c0,0,83,-94,83,-318V0Z" 
id="f1_3"
transform="scale(0.001,-0.001)" />

<path d="M152,0V473c0,0,0,94,28,161c0,0,29,66,71,95H66V836H463V729H404c0,0,-65,0,-89,-57c0,0,-25,-58,-25,-199V0Z" 
id="f1_4"
transform="scale(0.001,-0.001)" />

<path d="M112,-5c0,0,-39,0,-97,11V113c0,0,48,-10,77,-10c0,0,53,0,70,42c0,0,17,43,17,164V729H50V836H501c0,0,107,0,179,-25c0,0,72,-25,112,-77c0,0,40,-51,57,-118c0,0,16,-67,16,-164V0H726V454c0,0,0,55,-3,92c0,0,-4,37,-17,75c0,0,-14,38,-38,59c0,0,-24,22,-65,36c0,0,-42,13,-102,13H318V309c0,0,0,-160,-46,-237C272,72,226,-5,112,-5Z" 
id="f1_b"
transform="scale(0.001,-0.001)" />

<path d="M585,0V426c0,0,0,54,-8,98c0,0,-8,44,-27,83c0,0,-19,40,-49,66c0,0,-30,26,-77,41c0,0,-47,15,-108,15H66V836H315c0,0,94,0,166,-20c0,0,71,-20,116,-54c0,0,46,-35,75,-88c0,0,28,-52,40,-112c0,0,12,-60,12,-137V0Z" 
id="f1_7"
transform="scale(0.001,-0.001)" />

<path d="M102,312V836H241V369L102,312Z" 
id="f1_q"
transform="scale(0.001,-0.001)" />

<path d="M71,-141V-15L289,62L66,836H210L416,109c0,0,99,42,153,98c0,0,53,56,80,155c0,0,26,98,26,262V836H817V624c0,0,0,-88,-7,-154c0,0,-7,-67,-25,-132c0,0,-18,-66,-51,-116c0,0,-33,-51,-84,-98c0,0,-50,-48,-123,-87c0,0,-72,-39,-169,-74L71,-141Z" 
id="f1_p"
transform="scale(0.001,-0.001)" />

<path d="M66,0V107H554V452c0,0,0,56,-4,93c0,0,-4,37,-18,75c0,0,-14,38,-40,60c0,0,-26,22,-71,36c0,0,-45,13,-110,13H66V836H312c0,0,91,0,157,-17c0,0,66,-17,109,-49c0,0,44,-32,69,-84c0,0,26,-52,36,-114c0,0,10,-62,10,-147V107H817V0Z" 
id="f1_f"
transform="scale(0.001,-0.001)" />

<path d="M163,0V190H321V0Z" 
id="f1_m"
transform="scale(0.001,-0.001)" />

<path d="M868,0L251,900V60L385,40V0H44V40L172,60V941L44,960v40H347L862,259V941L727,960v40h341V960L940,941V0Z" 
id="f0_14"
transform="scale(0.001,-0.001)" />

<path d="M254,-20c0,0,-39,0,-65,25c0,0,-26,27,-26,64c0,0,0,38,26,64c0,0,27,26,65,26c0,0,38,0,64,-26c0,0,26,-26,26,-64c0,0,0,-37,-26,-64c0,0,-26,-25,-64,-25ZM219,290l-47,710H335L289,290Z" 
id="f0_1v"
transform="scale(0.001,-0.001)" />

<path d="M543,-317V369c0,0,0,85,-8,143c0,0,-8,58,-27,101c0,0,-18,44,-51,69c0,0,-33,24,-80,36c0,0,-48,11,-117,11H66V836H257c0,0,125,0,205,-23c0,0,80,-23,130,-79c0,0,50,-56,70,-143c0,0,20,-86,20,-222V-317Z" 
id="f1_u"
transform="scale(0.001,-0.001)" />

<path d="M522,92c0,0,247,0,247,333c0,0,0,88,-17,146c0,0,-17,58,-53,91c0,0,-35,33,-82,46c0,0,-48,14,-116,14H276V419c0,0,0,-327,246,-327Zm0,-112c0,0,-193,0,-289,109c0,0,-95,110,-95,337V836H501c0,0,213,0,309,-93c0,0,96,-94,96,-317c0,0,0,-227,-95,-337C811,89,715,-20,522,-20Z" 
id="f1_g"
transform="scale(0.001,-0.001)" />

<path d="M66,0V106H322c0,0,75,0,127,23c0,0,53,23,82,67c0,0,29,43,42,98c0,0,13,54,13,124c0,0,0,70,-13,124c0,0,-13,55,-42,98c0,0,-29,44,-82,67c0,0,-52,23,-127,23H66V836H322c0,0,87,0,157,-24c0,0,70,-24,115,-64c0,0,45,-40,74,-94c0,0,30,-55,43,-113c0,0,13,-59,13,-123c0,0,0,-64,-13,-123c0,0,-13,-58,-43,-113c0,0,-29,-54,-74,-94C594,88,549,48,479,24C479,24,409,0,322,0Z" 
id="f1_n"
transform="scale(0.001,-0.001)" />

<path d="M139,-317V836H278V-317Z" 
id="f1_t"
transform="scale(0.001,-0.001)" />

<path d="M231,0V190H382V0Zm15,359L231,625v489H382V625L367,359Z" 
id="f1_2"
transform="scale(0.001,-0.001)" />

<path d="M139,0V836H485c0,0,206,0,290,-90c0,0,84,-89,84,-294V0H721V473c0,0,0,147,-49,202c0,0,-48,54,-186,54H277V0Z" 
id="f1_h"
transform="scale(0.001,-0.001)" />

<path d="M71,0V90H214v934H71v90H1073V851H970v160H502V654H792V796H895V411H792V552H502V103H984V263h102V0Z" 
id="f2_2"
transform="scale(0.001,-0.001)" />

<path d="M87,-338c0,0,-45,0,-94,7c0,0,-51,8,-105,22v168l84,-1c0,0,1,-59,23,-86c0,0,21,-26,70,-26c0,0,55,0,77,35c0,0,21,35,21,127V703H51v90H427V-92c0,0,0,-122,-86,-184c0,0,-86,-62,-254,-62ZM277,876c0,0,-61,0,-102,41c0,0,-42,41,-42,101c0,0,0,60,41,101c0,0,42,42,103,42c0,0,58,0,100,-42c0,0,42,-42,42,-101c0,0,0,-59,-42,-101c0,0,-41,-41,-100,-41Z" 
id="f2_3"
transform="scale(0.001,-0.001)" />

<path d="M612,448c0,0,0,156,-29,219c0,0,-29,63,-99,63c0,0,-68,0,-98,-61c0,0,-29,-62,-29,-208V448ZM488,-20c0,0,-205,0,-315,107C173,87,63,195,63,397c0,0,0,197,112,307c0,0,113,110,313,110c0,0,197,0,303,-115c0,0,105,-116,111,-340H357v-6c0,0,0,-154,46,-222c0,0,46,-68,149,-68c0,0,86,0,139,45c0,0,53,46,68,133H883C883,241,851,105,755,42c0,0,-95,-62,-267,-62Z" 
id="f2_4"
transform="scale(0.001,-0.001)" />

<path d="M53,0V90H165V703H44v90H429V652c0,0,39,83,103,123c0,0,64,39,156,39c0,0,24,0,57,-3c0,0,33,-3,76,-9V565H737c0,0,-4,63,-34,94c0,0,-30,31,-87,31c0,0,-87,0,-137,-76c0,0,-50,-76,-50,-211V90H573V0Z" 
id="f2_5"
transform="scale(0.001,-0.001)" />

<path d="M507,-20c0,0,-212,0,-328,108C179,88,63,198,63,397c0,0,0,197,114,307c0,0,115,110,320,110c0,0,82,0,167,-15c0,0,84,-16,171,-47V532H752c0,0,-12,101,-59,150c0,0,-47,48,-132,48c0,0,-111,0,-157,-74c0,0,-47,-75,-47,-259c0,0,0,-180,45,-257c0,0,46,-77,149,-77c0,0,80,0,128,47c0,0,48,48,58,137H861C861,247,833,112,745,45c0,0,-87,-65,-238,-65Z" 
id="f2_6"
transform="scale(0.001,-0.001)" />

<path d="M53,0V90H165V703H53v90H429V90H543V0ZM285,876c0,0,-61,0,-102,41c0,0,-42,41,-42,101c0,0,0,60,42,101c0,0,41,42,102,42c0,0,59,0,100,-42c0,0,41,-41,41,-101c0,0,0,-59,-41,-101c0,0,-41,-41,-100,-41Z" 
id="f2_7"
transform="scale(0.001,-0.001)" />

<path d="M510,63c0,0,84,0,118,71c0,0,34,72,34,263c0,0,0,191,-34,262c0,0,-33,71,-118,71c0,0,-84,0,-119,-72c0,0,-34,-72,-34,-261c0,0,0,-190,34,-262c0,0,35,-72,119,-72Zm0,-83c0,0,-209,0,-328,110C182,90,63,201,63,397c0,0,0,196,119,307c0,0,119,110,328,110c0,0,211,0,330,-110c0,0,118,-111,118,-307c0,0,0,-196,-119,-307C839,90,720,-20,510,-20Z" 
id="f2_8"
transform="scale(0.001,-0.001)" />

<path d="M209,0V90H418V992L187,854V966l279,168H701V90H910V0Z" 
id="f2_a"
transform="scale(0.001,-0.001)" />

<path d="M494,-20c0,0,-91,0,-181,15c0,0,-90,14,-188,45V283h90c0,0,5,-110,57,-164c0,0,53,-53,156,-53c0,0,109,0,162,73c0,0,53,73,53,224c0,0,0,148,-51,222c0,0,-52,73,-157,73c0,0,-57,0,-102,-23c0,0,-44,-24,-82,-73H176v552H861V918H266V673c0,0,49,38,110,58c0,0,60,19,127,19c0,0,206,0,325,-104c0,0,119,-104,119,-283c0,0,0,-182,-119,-283C828,80,709,-20,494,-20Z" 
id="f2_h"
transform="scale(0.001,-0.001)" />

<path d="M83,309V510H551V309Z" 
id="f2_l"
transform="scale(0.001,-0.001)" />

<path d="M536,-22L130,941L17,960v40H421V960L287,941L590,205L892,941L761,960v40h325V960L976,941L574,-22Z" 
id="f0_1m"
transform="scale(0.001,-0.001)" />

<path d="M35,0V34l84,18V649L35,668v33H235l7,-56c0,0,57,32,122,54c0,0,65,21,108,21c0,0,91,0,137,-53c0,0,47,-53,47,-154V52L741,34V0H439V34l93,18V500c0,0,0,62,-30,97c0,0,-31,36,-94,36c0,0,-67,0,-165,-22V52L338,34V0ZM481,834c0,0,-36,0,-66,16c0,0,-30,16,-57,36c0,0,-27,20,-52,36c0,0,-25,16,-49,16c0,0,-24,0,-39,-9c0,0,-14,-9,-23,-26c0,0,-8,-17,-13,-54H143c0,0,11,180,146,180c0,0,36,0,66,-16c0,0,30,-16,57,-35c0,0,27,-20,52,-36c0,0,25,-16,49,-16c0,0,32,0,50,18c0,0,18,19,25,70h39c0,0,-12,-180,-146,-180Z" 
id="f0_1b"
transform="scale(0.001,-0.001)" />

<path d="M736,107V473c0,0,0,147,-48,202c0,0,-49,54,-187,54H278V107ZM139,0V836H499c0,0,105,0,177,-22c0,0,72,-21,116,-69c0,0,44,-49,64,-119c0,0,19,-71,19,-174V0Z" 
id="f1_i"
transform="scale(0.001,-0.001)" />

<path d="M495,0V729H66V836H781V729H634V0Z" 
id="f1_r"
transform="scale(0.001,-0.001)" />

<path d="M431,0V33L535,52V499c0,0,0,62,-32,96c0,0,-32,33,-95,33c0,0,-66,0,-163,-22V52L350,33V0H32V33l89,19V649L32,668v33H237l6,-57c0,0,56,32,119,54c0,0,62,22,110,22c0,0,52,0,95,-20c0,0,44,-19,66,-62c0,0,57,32,134,57c0,0,77,25,128,25c0,0,179,0,179,-207V52l90,-19V0H846V33L950,52V499c0,0,0,129,-119,129c0,0,-19,0,-45,-3c0,0,-26,-3,-52,-7c0,0,-25,-4,-49,-8c0,0,-23,-5,-39,-8c0,0,13,-41,13,-89V52L764,33V0Z" 
id="f0_i"
transform="scale(0.001,-0.001)" />

<path d="M148,-329c0,0,-58,0,-114,13v151H69l24,-71c0,0,23,-17,64,-17c0,0,39,0,72,22c0,0,33,23,60,67c0,0,27,44,68,157L90,649L19,668v33H344V668L233,648L423,158L606,649L497,668v33H758V668L685,652L411,-43c0,0,-48,-124,-84,-177c0,0,-36,-54,-79,-82c0,0,-44,-27,-100,-27Z" 
id="f0_10"
transform="scale(0.001,-0.001)" />

<path d="M66,0V107H332V555c0,0,0,92,-37,133c0,0,-37,41,-116,41H85V836h94c0,0,153,0,223,-66c0,0,69,-66,69,-231V0Z" 
id="f1_d"
transform="scale(0.001,-0.001)" />

<path d="M44,0V40L172,60V941L44,961v39H794V761H745L721,923c0,0,-83,10,-241,10H316V542H586l23,120h48V354H609L586,475H316V67H513c0,0,193,0,252,12l43,185h49L843,0ZM351,1084v25l146,202H656v-27L392,1084Z" 
id="f0_1x"
transform="scale(0.001,-0.001)" />

<path d="M360,-14L72,649L0,668v33H327V668L216,648L420,164L615,649L504,668v33H764V668L697,652L416,-14Z" 
id="f0_r"
transform="scale(0.001,-0.001)" />

<path d="M64,-325c0,0,-46,0,-107,14v148H-8l19,-81c0,0,25,-21,62,-21c0,0,44,0,67,47c0,0,22,47,22,152V649L57,668v33H286V-28c0,0,0,-146,-57,-221c0,0,-56,-76,-165,-76ZM213,850c0,0,-34,0,-58,24c0,0,-24,24,-24,56c0,0,0,34,24,58c0,0,24,24,58,24c0,0,32,0,56,-24c0,0,24,-24,24,-58c0,0,0,-32,-24,-56c0,0,-24,-24,-56,-24Z" 
id="f0_u"
transform="scale(0.001,-0.001)" />

<path d="M577,-14c0,0,-243,0,-379,132C198,118,63,250,63,488c0,0,0,258,130,391c0,0,131,132,387,132c0,0,156,0,335,-38l5,-218H871L848,884c0,0,-52,32,-121,50c0,0,-69,17,-141,17c0,0,-191,0,-279,-112c0,0,-88,-113,-88,-349c0,0,0,-217,92,-332c0,0,92,-115,268,-115c0,0,85,0,160,20c0,0,76,21,120,55l27,149h49L930,32c0,0,-164,-46,-353,-46Z" 
id="f0_2"
transform="scale(0.001,-0.001)" />

<path d="M442,0V33l93,19V504c0,0,0,129,-124,129c0,0,-70,0,-168,-22V52L338,33V0H31V33l88,19v956L15,1026v34H243V756c0,0,0,-77,-5,-112c0,0,54,31,122,53c0,0,68,23,115,23c0,0,91,0,137,-53c0,0,47,-53,47,-154V52L744,33V0Z" 
id="f0_o"
transform="scale(0.001,-0.001)" />

<path d="M147,700v414H274V700Z" 
id="f1_11"
transform="scale(0.001,-0.001)" />

<path d="M617,0L251,860V60L385,40V0H44V40L172,60V941L44,960v40H347L672,239l355,761h287V960L1185,941V60L1314,40V0H908V40l134,20V859L643,0Z" 
id="f0_1r"
transform="scale(0.001,-0.001)" />

<path d="M359,-270c0,0,124,0,192,46c0,0,67,47,67,129c0,0,0,43,-26,67c0,0,-26,24,-79,24H242c0,0,-32,-27,-51,-69c0,0,-20,-41,-20,-77c0,0,0,-64,46,-92c0,0,46,-28,142,-28Zm11,561c0,0,81,0,115,47c0,0,34,47,34,141c0,0,0,100,-35,142c0,0,-35,42,-113,42c0,0,-78,0,-114,-43c0,0,-37,-42,-37,-141c0,0,0,-98,36,-143c0,0,36,-45,114,-45ZM359,-329c0,0,-143,0,-218,44c0,0,-75,43,-75,125c0,0,0,39,27,78c0,0,26,38,98,89c0,0,-43,14,-72,48c0,0,-29,35,-29,74L208,262c0,0,-118,55,-118,217c0,0,0,115,73,178c0,0,73,63,211,63c0,0,28,0,71,-6c0,0,44,-6,67,-13l165,83l26,-32L599,644c0,0,50,-56,50,-165c0,0,0,-120,-72,-182c0,0,-73,-62,-208,-62c0,0,-62,0,-114,11L208,148c0,0,2,-13,29,-24c0,0,27,-12,67,-12H512c0,0,113,0,168,-49c0,0,55,-49,55,-134c0,0,0,-79,-44,-137c0,0,-43,-58,-128,-90c0,0,-84,-31,-204,-31Z" 
id="f0_n"
transform="scale(0.001,-0.001)" />

<path d="M289,-14c0,0,-179,0,-179,205V649L20,668v33H233V200c0,0,0,-128,120,-128c0,0,92,0,173,23V649L420,668v33H649V52L738,34V0H533l-6,57C527,57,474,28,405,6c0,0,-69,-20,-116,-20Zm24,849v24l147,203H618v-27L354,835Z" 
id="f0_x"
transform="scale(0.001,-0.001)" />

<path d="M0,-14L351,1007h73L75,-14Z" 
id="f0_11"
transform="scale(0.001,-0.001)" />

<path d="M522,-20c0,0,-196,0,-290,99c0,0,-94,100,-94,324V836H276V397c0,0,0,-86,16,-147c0,0,17,-60,50,-94c0,0,34,-34,77,-49c0,0,43,-15,103,-15c0,0,59,0,102,15c0,0,44,15,77,49c0,0,33,34,50,94c0,0,17,61,17,147c0,0,0,84,-8,143c0,0,-7,58,-25,105c0,0,-17,47,-51,69c0,0,-33,23,-83,23c0,0,-50,0,-119,-22V821c0,0,85,23,150,23c0,0,76,0,130,-30c0,0,53,-31,85,-90c0,0,31,-59,45,-138c0,0,13,-78,13,-183c0,0,0,-224,-93,-324c0,0,-94,-99,-290,-99Z" 
id="f1_k"
transform="scale(0.001,-0.001)" />

<path d="M410,-14c0,0,-80,0,-162,14c0,0,-81,14,-144,38V270h48L178,134c0,0,28,-35,95,-62c0,0,68,-27,134,-27c0,0,104,0,163,53c0,0,58,54,58,148c0,0,0,54,-23,89c0,0,-22,35,-59,59c0,0,-37,24,-84,41c0,0,-47,17,-97,34c0,0,-49,17,-96,38c0,0,-47,21,-84,53c0,0,-37,32,-60,79c0,0,-23,48,-23,117c0,0,0,119,90,187c0,0,89,68,248,68c0,0,121,0,263,-32V771H654L628,893c0,0,-76,55,-188,55c0,0,-100,0,-156,-40c0,0,-56,-41,-56,-112c0,0,0,-49,22,-81c0,0,23,-32,60,-55c0,0,37,-22,84,-39c0,0,48,-16,97,-34c0,0,50,-17,97,-39c0,0,48,-22,85,-56c0,0,36,-34,59,-83c0,0,23,-49,23,-120c0,0,0,-145,-89,-224c0,0,-89,-79,-256,-79Z" 
id="f0_1a"
transform="scale(0.001,-0.001)" />

<path d="M383,64c0,0,44,0,87,7c0,0,43,7,65,17V645c0,0,-67,13,-152,13c0,0,-194,0,-194,-309c0,0,0,-143,48,-214c0,0,47,-71,146,-71Zm56,-389v35l96,18V-77c0,0,0,73,7,124c0,0,-79,-61,-200,-61c0,0,-287,0,-287,362c0,0,0,180,81,276c0,0,81,96,237,96c0,0,84,0,166,-18l67,33h53V-272l77,-18v-35Z" 
id="f0_l"
transform="scale(0.001,-0.001)" />

<path d="M32,0V34L151,52V649L52,668v33H275V52L395,34V0Zm71,835v24l146,203H408v-27L144,835Z" 
id="f0_p"
transform="scale(0.001,-0.001)" />

<path d="M382,45c0,0,188,0,188,314c0,0,0,143,-47,213c0,0,-46,69,-141,69c0,0,-87,0,-146,-24V58c0,0,67,-13,146,-13ZM25,-325v35l88,18V649L34,668v33H231l1,-41c0,0,31,27,84,43c0,0,53,17,107,17c0,0,134,0,208,-94c0,0,73,-93,73,-267c0,0,0,-178,-80,-276c0,0,-80,-97,-232,-97c0,0,-84,0,-160,16c0,0,4,-53,4,-84V-272l123,-18v-35Z" 
id="f0_d"
transform="scale(0.001,-0.001)" />

<path d="M377,44c0,0,99,0,147,73c0,0,47,73,47,237c0,0,0,161,-47,234c0,0,-47,72,-147,72c0,0,-97,0,-141,-69c0,0,-44,-70,-44,-237c0,0,0,-169,45,-239c0,0,44,-71,140,-71Zm0,-58c0,0,-158,0,-238,94c0,0,-81,95,-81,274c0,0,0,178,81,272c0,0,80,94,244,94c0,0,160,0,241,-92c0,0,82,-92,82,-274c0,0,0,-368,-329,-368ZM301,835v24l147,203H606v-27L342,835Z" 
id="f0_g"
transform="scale(0.001,-0.001)" />

<path d="M147,700v414H274V700Zm282,0v414H556V700Z" 
id="f1_12"
transform="scale(0.001,-0.001)" />

<path d="M306,-20c0,0,-39,0,-65,25c0,0,-25,27,-25,64c0,0,0,38,26,64c0,0,26,26,64,26c0,0,37,0,63,-25c0,0,26,-26,26,-65c0,0,0,-37,-25,-64c0,0,-26,-25,-64,-25ZM269,261L249,510l107,22c0,0,64,13,93,65c0,0,29,52,29,152c0,0,0,109,-39,154c0,0,-40,45,-140,45c0,0,-83,0,-145,-36L128,789H79V979c0,0,118,32,220,32c0,0,316,0,316,-253c0,0,0,-121,-60,-195c0,0,-60,-74,-175,-98l-42,-9L328,261Z" 
id="f0_1f"
transform="scale(0.001,-0.001)" />

<path d="M291,0V190H443V0Zm5,299V414c0,0,0,75,21,124c0,0,21,48,88,113l67,66c0,0,42,40,61,75c0,0,19,35,19,71c0,0,0,67,-48,108c0,0,-49,41,-130,41c0,0,-59,0,-125,-26c0,0,-67,-26,-139,-77v140c0,0,70,43,142,64c0,0,72,21,148,21c0,0,138,0,221,-72c0,0,83,-73,83,-191c0,0,0,-57,-27,-108c0,0,-27,-51,-94,-115L517,583c0,0,-34,-35,-49,-54c0,0,-14,-20,-20,-39c0,0,-5,-16,-7,-38c0,0,-2,-22,-2,-61V299Z" 
id="f1_14"
transform="scale(0.001,-0.001)" />

<path d="M542,66c0,0,77,0,110,65c0,0,32,65,32,226c0,0,0,162,-32,227c0,0,-33,65,-110,65c0,0,-77,0,-110,-65c0,0,-32,-65,-32,-227c0,0,0,-161,32,-226c0,0,33,-65,110,-65Zm17,-86c0,0,-228,0,-346,136C213,116,96,254,96,521c0,0,0,304,130,458c0,0,131,155,387,155c0,0,67,0,144,-11c0,0,77,-11,165,-34V893H832c0,0,-19,76,-70,115c0,0,-52,39,-134,39c0,0,-133,0,-192,-91c0,0,-60,-91,-61,-295c0,0,49,38,109,58c0,0,60,19,131,19c0,0,171,0,268,-100c0,0,98,-100,98,-274c0,0,0,-185,-110,-285c0,0,-110,-99,-312,-99Z" 
id="f2_i"
transform="scale(0.001,-0.001)" />

<path d="M495,413c0,0,0,133,-34,190c0,0,-34,57,-105,57c0,0,-78,0,-119,-62c0,0,-42,-63,-42,-185ZM374,-14c0,0,-163,0,-239,87c0,0,-75,88,-75,283c0,0,0,183,77,274c0,0,76,90,219,90c0,0,269,0,269,-306V353H194V339c0,0,0,-103,23,-160c0,0,22,-57,70,-86c0,0,47,-30,124,-30c0,0,40,0,96,6c0,0,55,7,91,15V43C598,43,562,19,500,2c0,0,-61,-16,-126,-16ZM285,835v24l146,203H590v-27L326,835Z" 
id="f0_j"
transform="scale(0.001,-0.001)" />

<path d="M557,-14c0,0,-199,0,-298,89c0,0,-99,90,-99,255V941L32,960v40H432V960L304,941V341c0,0,0,-273,264,-273c0,0,144,0,220,68c0,0,77,68,77,202V941L730,960v40h341V960L943,941V344c0,0,0,-180,-99,-269c0,0,-99,-89,-287,-89Z" 
id="f0_12"
transform="scale(0.001,-0.001)" />

<path d="M326,0L773,903H224V752H121v362H937V924L477,0Z" 
id="f2_j"
transform="scale(0.001,-0.001)" />


</defs>
</svg>