<?xml version="1.0" encoding="UTF-8" standalone="no"?>
<!DOCTYPE svg PUBLIC "-//W3C//DTD SVG 1.1//EN"
"http://www.w3.org/Graphics/SVG/1.1/DTD/svg11.dtd">
<svg viewBox="0 0 909 1286" version="1.1" xmlns="http://www.w3.org/2000/svg" xmlns:xlink="http://www.w3.org/1999/xlink">
<defs>
<clipPath id="c0_9"><path d="M0,1286.2V0H909.4V1286.2Z" /></clipPath>
<clipPath id="c1_9"><path d="M722.9,342.9V321.6h.3v21.3Z" /></clipPath>
<clipPath id="c2_9"><path d="M642.4,853.2V831.9h.3v21.3Z" /></clipPath>
<style type="text/css"><![CDATA[
.g0_9{
fill: none;
stroke: #0000FF;
stroke-width: 1.0694444;
stroke-linecap: butt;
stroke-linejoin: miter;
}
.g1_9{
fill: none;
stroke: #000000;
stroke-width: 0.7638889;
stroke-linecap: butt;
stroke-linejoin: round;
}
]]></style>
</defs>
<g clip-path="url(#c0_9)">
<g fill="#000000" >
<use xlink:href="#f0_18" transform="matrix(11,0,0,11,137.7,125.7)" />
<use xlink:href="#f0_c" transform="matrix(11,0,0,11,144.2,125.7)" />
<use xlink:href="#f0_e" transform="matrix(11,0,0,11,152.6,125.7)" />
<use xlink:href="#f0_i" transform="matrix(11,0,0,11,160.1,125.7)" />
<use xlink:href="#f0_19" transform="matrix(11,0,0,11,168.5,125.7)" />
<use xlink:href="#f0_1b" transform="matrix(11,0,0,11,211,125.7)" />
<use xlink:href="#f0_9" transform="matrix(11,0,0,11,223.1,125.7)" />
<use xlink:href="#f0_b" transform="matrix(11,0,0,11,231.5,125.7)" />
<use xlink:href="#f0_e" transform="matrix(11,0,0,11,236.2,125.7)" />
<use xlink:href="#f0_u" transform="matrix(11,0,0,11,247.8,125.7)" />
<use xlink:href="#f0_e" transform="matrix(11,0,0,11,259.8,125.7)" />
<use xlink:href="#f0_i" transform="matrix(11,0,0,11,267.3,125.7)" />
<use xlink:href="#f0_e" transform="matrix(11,0,0,11,275.7,125.7)" />
<use xlink:href="#f0_1e" transform="matrix(11,0,0,11,283.1,125.7)" />
<use xlink:href="#f0_1h" transform="matrix(11,0,0,11,291.5,125.7)" />
<use xlink:href="#f0_1n" transform="matrix(11,0,0,11,299,125.7)" />
<use xlink:href="#f0_y" transform="matrix(11,0,0,11,310.2,125.7)" />
<use xlink:href="#f0_d" transform="matrix(11,0,0,11,318.6,125.7)" />
<use xlink:href="#f0_9" transform="matrix(11,0,0,11,331.7,125.7)" />
<use xlink:href="#f0_7" transform="matrix(11,0,0,11,344.2,125.7)" />
<use xlink:href="#f0_4" transform="matrix(11,0,0,11,351.7,125.7)" />
<use xlink:href="#f0_8" transform="matrix(11,0,0,11,358.2,125.7)" />
<use xlink:href="#f0_f" transform="matrix(11,0,0,11,362.9,125.7)" />
<use xlink:href="#f0_4" transform="matrix(11,0,0,11,370.3,125.7)" />
<use xlink:href="#f0_1j" transform="matrix(11,0,0,11,376.8,125.7)" />
<use xlink:href="#f0_u" transform="matrix(11,0,0,11,137.7,145)" />
<use xlink:href="#f0_e" transform="matrix(11,0,0,11,149.7,145)" />
<use xlink:href="#f0_i" transform="matrix(11,0,0,11,157.2,145)" />
<use xlink:href="#f0_e" transform="matrix(11,0,0,11,165.6,145)" />
<use xlink:href="#f0_19" transform="matrix(11,0,0,11,173,145)" />
<use xlink:href="#f0_1l" transform="matrix(11,0,0,11,211,145)" />
<use xlink:href="#f0_9" transform="matrix(11,0,0,11,223.1,145)" />
<use xlink:href="#f0_7" transform="matrix(11,0,0,11,235.7,145)" />
<use xlink:href="#f0_4" transform="matrix(11,0,0,11,243.1,145)" />
<use xlink:href="#f0_8" transform="matrix(11,0,0,11,249.6,145)" />
<use xlink:href="#f0_9" transform="matrix(11,0,0,11,254.3,145)" />
<use xlink:href="#f0_1m" transform="matrix(11,0,0,11,262.7,145)" />
<use xlink:href="#f0_h" transform="matrix(11,0,0,11,275.3,145)" />
<use xlink:href="#f0_3" transform="matrix(11,0,0,11,283.7,145)" />
<use xlink:href="#f0_7" transform="matrix(11,0,0,11,288.4,145)" />
<use xlink:href="#f0_i" transform="matrix(11,0,0,11,295.8,145)" />
<use xlink:href="#f0_l" transform="matrix(11,0,0,11,308.4,145)" />
<use xlink:href="#f0_6" transform="matrix(11,0,0,11,316.8,145)" />
<use xlink:href="#f0_e" transform="matrix(11,0,0,11,322.4,145)" />
<use xlink:href="#f0_5" transform="matrix(11,0,0,11,329.9,145)" />
<use xlink:href="#f0_3" transform="matrix(11,0,0,11,337.2,145)" />
<use xlink:href="#f0_e" transform="matrix(11,0,0,11,341.9,145)" />
<use xlink:href="#f0_4" transform="matrix(11,0,0,11,349.4,145)" />
<use xlink:href="#f0_1e" transform="matrix(11,0,0,11,355.8,145)" />
<use xlink:href="#f0_1h" transform="matrix(11,0,0,11,364.3,145)" />
<use xlink:href="#f0_1l" transform="matrix(11,0,0,11,371.8,145)" />
<use xlink:href="#f0_8" transform="matrix(11,0,0,11,388.1,145)" />
<use xlink:href="#f0_z" transform="matrix(11,0,0,11,392.7,145)" />
<use xlink:href="#f0_5" transform="matrix(11,0,0,11,405.4,145)" />
<use xlink:href="#f0_y" transform="matrix(11,0,0,11,412.8,145)" />
<use xlink:href="#f0_d" transform="matrix(11,0,0,11,421.1,145)" />
<use xlink:href="#f0_9" transform="matrix(11,0,0,11,434.2,145)" />
<use xlink:href="#f0_7" transform="matrix(11,0,0,11,446.9,145)" />
<use xlink:href="#f0_4" transform="matrix(11,0,0,11,454.2,145)" />
<use xlink:href="#f0_8" transform="matrix(11,0,0,11,460.8,145)" />
<use xlink:href="#f0_f" transform="matrix(11,0,0,11,465.5,145)" />
<use xlink:href="#f0_4" transform="matrix(11,0,0,11,473,145)" />
<use xlink:href="#f0_1j" transform="matrix(11,0,0,11,479.4,145)" />
<use xlink:href="#f0_18" transform="matrix(11,0,0,11,137.7,164.4)" />
<use xlink:href="#f0_c" transform="matrix(11,0,0,11,144.2,164.4)" />
<use xlink:href="#f0_e" transform="matrix(11,0,0,11,152.6,164.4)" />
<use xlink:href="#f0_i" transform="matrix(11,0,0,11,160.1,164.4)" />
<use xlink:href="#f0_19" transform="matrix(11,0,0,11,168.5,164.4)" />
<use xlink:href="#f0_1l" transform="matrix(11,0,0,11,211,164.4)" />
<use xlink:href="#f0_9" transform="matrix(11,0,0,11,223.1,164.4)" />
<use xlink:href="#f0_7" transform="matrix(11,0,0,11,235.7,164.4)" />
<use xlink:href="#f0_4" transform="matrix(11,0,0,11,243.1,164.4)" />
<use xlink:href="#f0_8" transform="matrix(11,0,0,11,249.6,164.4)" />
<use xlink:href="#f0_9" transform="matrix(11,0,0,11,254.3,164.4)" />
<use xlink:href="#f0_1m" transform="matrix(11,0,0,11,262.7,164.4)" />
<use xlink:href="#f0_7" transform="matrix(11,0,0,11,275.3,164.4)" />
<use xlink:href="#f0_w" transform="matrix(11,0,0,11,282.7,164.4)" />
<use xlink:href="#f0_5" transform="matrix(11,0,0,11,291.1,164.4)" />
<use xlink:href="#f0_7" transform="matrix(11,0,0,11,298.6,164.4)" />
<use xlink:href="#f0_b" transform="matrix(11,0,0,11,306,164.4)" />
<use xlink:href="#f0_7" transform="matrix(11,0,0,11,310.6,164.4)" />
<use xlink:href="#f0_i" transform="matrix(11,0,0,11,318.1,164.4)" />
<use xlink:href="#f0_8" transform="matrix(11,0,0,11,326.5,164.4)" />
<use xlink:href="#f0_7" transform="matrix(11,0,0,11,331.2,164.4)" />
<use xlink:href="#f0_1g" transform="matrix(11,0,0,11,338.5,164.4)" />
<use xlink:href="#f0_l" transform="matrix(11,0,0,11,347.1,164.4)" />
<use xlink:href="#f0_6" transform="matrix(11,0,0,11,355.3,164.4)" />
<use xlink:href="#f0_e" transform="matrix(11,0,0,11,361,164.4)" />
<use xlink:href="#f0_5" transform="matrix(11,0,0,11,368.4,164.4)" />
<use xlink:href="#f0_3" transform="matrix(11,0,0,11,375.9,164.4)" />
<use xlink:href="#f0_e" transform="matrix(11,0,0,11,380.6,164.4)" />
<use xlink:href="#f0_4" transform="matrix(11,0,0,11,387.9,164.4)" />
<use xlink:href="#f0_1e" transform="matrix(11,0,0,11,394.5,164.4)" />
<use xlink:href="#f0_u" transform="matrix(11,0,0,11,137.7,183.6)" />
<use xlink:href="#f0_e" transform="matrix(11,0,0,11,149.7,183.6)" />
<use xlink:href="#f0_i" transform="matrix(11,0,0,11,157.2,183.6)" />
<use xlink:href="#f0_e" transform="matrix(11,0,0,11,165.6,183.6)" />
<use xlink:href="#f0_1h" transform="matrix(11,0,0,11,211,183.6)" />
<use xlink:href="#f0_p" transform="matrix(11,0,0,11,218.4,183.6)" />
<use xlink:href="#f0_b" transform="matrix(11,0,0,11,228.5,183.6)" />
<use xlink:href="#f0_6" transform="matrix(11,0,0,11,237.5,183.6)" />
<use xlink:href="#f0_7" transform="matrix(11,0,0,11,243,183.6)" />
<use xlink:href="#f0_4" transform="matrix(11,0,0,11,250.5,183.6)" />
<use xlink:href="#f0_8" transform="matrix(11,0,0,11,257,183.6)" />
<use xlink:href="#f0_e" transform="matrix(11,0,0,11,261.8,183.6)" />
<use xlink:href="#f0_c" transform="matrix(11,0,0,11,269.2,183.6)" />
<use xlink:href="#f0_6" transform="matrix(11,0,0,11,277.5,183.6)" />
<use xlink:href="#f0_e" transform="matrix(11,0,0,11,283.1,183.6)" />
<use xlink:href="#f0_i" transform="matrix(11,0,0,11,290.6,183.6)" />
<use xlink:href="#f0_8" transform="matrix(11,0,0,11,299,183.6)" />
<use xlink:href="#f0_7" transform="matrix(11,0,0,11,303.7,183.6)" />
<use xlink:href="#f0_7" transform="matrix(11,0,0,11,315.3,183.6)" />
<use xlink:href="#f0_4" transform="matrix(11,0,0,11,322.7,183.6)" />
<use xlink:href="#f0_h" transform="matrix(11,0,0,11,333.4,183.6)" />
<use xlink:href="#f0_c" transform="matrix(11,0,0,11,341.8,183.6)" />
<use xlink:href="#f0_7" transform="matrix(11,0,0,11,350.2,183.6)" />
<use xlink:href="#f0_i" transform="matrix(11,0,0,11,357.7,183.6)" />
<use xlink:href="#f0_9" transform="matrix(11,0,0,11,366.1,183.6)" />
<use xlink:href="#f0_1j" transform="matrix(11,0,0,11,374.5,183.6)" />
<use xlink:href="#f0_18" transform="matrix(11,0,0,11,137.7,203)" />
<use xlink:href="#f0_c" transform="matrix(11,0,0,11,144.2,203)" />
<use xlink:href="#f0_e" transform="matrix(11,0,0,11,152.6,203)" />
<use xlink:href="#f0_i" transform="matrix(11,0,0,11,160.1,203)" />
<use xlink:href="#f0_19" transform="matrix(11,0,0,11,168.5,203)" />
<use xlink:href="#f0_1k" transform="matrix(11,0,0,11,211,203)" />
<use xlink:href="#f0_j" transform="matrix(11,0,0,11,220.3,203)" />
<use xlink:href="#f0_1g" transform="matrix(11,0,0,11,224.9,203)" />
<use xlink:href="#f0_7" transform="matrix(11,0,0,11,233.4,203)" />
<use xlink:href="#f0_b" transform="matrix(11,0,0,11,240.8,203)" />
<use xlink:href="#f0_5" transform="matrix(11,0,0,11,249.6,203)" />
<use xlink:href="#f0_e" transform="matrix(11,0,0,11,257.1,203)" />
<use xlink:href="#f0_m" transform="matrix(11,0,0,11,264.5,203)" />
<use xlink:href="#f0_13" transform="matrix(11,0,0,11,270.2,203)" />
<use xlink:href="#f0_7" transform="matrix(11,0,0,11,281.7,203)" />
<use xlink:href="#f0_4" transform="matrix(11,0,0,11,289.2,203)" />
<use xlink:href="#f0_2" transform="matrix(11,0,0,11,299.9,203)" />
<use xlink:href="#f0_7" transform="matrix(11,0,0,11,308.3,203)" />
<use xlink:href="#f0_b" transform="matrix(11,0,0,11,315.7,203)" />
<use xlink:href="#f0_3" transform="matrix(11,0,0,11,320.3,203)" />
<use xlink:href="#f0_5" transform="matrix(11,0,0,11,325,203)" />
<use xlink:href="#f0_3" transform="matrix(11,0,0,11,332.5,203)" />
<use xlink:href="#f0_9" transform="matrix(11,0,0,11,337.2,203)" />
<use xlink:href="#f0_4" transform="matrix(11,0,0,11,345.6,203)" />
<use xlink:href="#f0_9" transform="matrix(11,0,0,11,352.2,203)" />
<use xlink:href="#f0_1e" transform="matrix(11,0,0,11,360.4,203)" />
<use xlink:href="#f0_1d" transform="matrix(11,0,0,11,137.7,241.7)" />
<use xlink:href="#f0_9" transform="matrix(11,0,0,11,152.6,241.7)" />
<use xlink:href="#f0_q" transform="matrix(11,0,0,11,161,241.7)" />
<use xlink:href="#f0_9" transform="matrix(11,0,0,11,168.5,241.7)" />
<use xlink:href="#f0_1o" transform="matrix(11,0,0,11,211,241.7)" />
<use xlink:href="#f0_c" transform="matrix(11,0,0,11,222.1,241.7)" />
<use xlink:href="#f0_7" transform="matrix(11,0,0,11,230.5,241.7)" />
<use xlink:href="#f0_i" transform="matrix(11,0,0,11,238,241.7)" />
<use xlink:href="#f0_9" transform="matrix(11,0,0,11,246.4,241.7)" />
<use xlink:href="#f0_4" transform="matrix(11,0,0,11,254.8,241.7)" />
<use xlink:href="#f0_2" transform="matrix(11,0,0,11,265.5,241.7)" />
<use xlink:href="#f0_j" transform="matrix(11,0,0,11,273.9,241.7)" />
<use xlink:href="#f0_e" transform="matrix(11,0,0,11,278.6,241.7)" />
<use xlink:href="#f0_4" transform="matrix(11,0,0,11,286.1,241.7)" />
<use xlink:href="#f0_1e" transform="matrix(11,0,0,11,292.5,241.7)" />
<use xlink:href="#f0_18" transform="matrix(11,0,0,11,137.7,260.9)" />
<use xlink:href="#f0_c" transform="matrix(11,0,0,11,144.2,260.9)" />
<use xlink:href="#f0_e" transform="matrix(11,0,0,11,152.6,260.9)" />
<use xlink:href="#f0_i" transform="matrix(11,0,0,11,160.1,260.9)" />
<use xlink:href="#f0_19" transform="matrix(11,0,0,11,168.5,260.9)" />
<use xlink:href="#f0_1o" transform="matrix(11,0,0,11,211,260.9)" />
<use xlink:href="#f0_c" transform="matrix(11,0,0,11,222.1,260.9)" />
<use xlink:href="#f0_7" transform="matrix(11,0,0,11,230.5,260.9)" />
<use xlink:href="#f0_i" transform="matrix(11,0,0,11,238,260.9)" />
<use xlink:href="#f0_9" transform="matrix(11,0,0,11,246.4,260.9)" />
<use xlink:href="#f0_4" transform="matrix(11,0,0,11,254.8,260.9)" />
<use xlink:href="#f0_2" transform="matrix(11,0,0,11,265.5,260.9)" />
<use xlink:href="#f0_j" transform="matrix(11,0,0,11,273.9,260.9)" />
<use xlink:href="#f0_e" transform="matrix(11,0,0,11,278.6,260.9)" />
<use xlink:href="#f0_4" transform="matrix(11,0,0,11,286.1,260.9)" />
<use xlink:href="#f0_4" transform="matrix(11,0,0,11,296.7,260.9)" />
<use xlink:href="#f0_7" transform="matrix(11,0,0,11,303.3,260.9)" />
<use xlink:href="#f0_s" transform="matrix(11,0,0,11,310.8,260.9)" />
<use xlink:href="#f0_9" transform="matrix(11,0,0,11,319.2,260.9)" />
<use xlink:href="#f0_6" transform="matrix(11,0,0,11,327.4,260.9)" />
<use xlink:href="#f0_1e" transform="matrix(11,0,0,11,333,260.9)" />
<use xlink:href="#f0_u" transform="matrix(11,0,0,11,137.7,280.3)" />
<use xlink:href="#f0_e" transform="matrix(11,0,0,11,149.7,280.3)" />
<use xlink:href="#f0_i" transform="matrix(11,0,0,11,157.2,280.3)" />
<use xlink:href="#f0_e" transform="matrix(11,0,0,11,165.6,280.3)" />
<use xlink:href="#f0_1p" transform="matrix(11,0,0,11,211,280.3)" />
<use xlink:href="#f0_i" transform="matrix(11,0,0,11,223.1,280.3)" />
<use xlink:href="#f0_5" transform="matrix(11,0,0,11,235.7,280.3)" />
<use xlink:href="#f0_e" transform="matrix(11,0,0,11,243.1,280.3)" />
<use xlink:href="#f0_m" transform="matrix(11,0,0,11,250.5,280.3)" />
<use xlink:href="#f0_13" transform="matrix(11,0,0,11,256.1,280.3)" />
<use xlink:href="#f0_a" transform="matrix(11,0,0,11,267.7,280.3)" />
<use xlink:href="#f0_9" transform="matrix(11,0,0,11,276.1,280.3)" />
<use xlink:href="#f0_6" transform="matrix(11,0,0,11,284.5,280.3)" />
<use xlink:href="#f0_m" transform="matrix(11,0,0,11,294.4,280.3)" />
<use xlink:href="#f0_e" transform="matrix(11,0,0,11,299.9,280.3)" />
<use xlink:href="#f0_v" transform="matrix(11,0,0,11,307.4,280.3)" />
<use xlink:href="#f0_9" transform="matrix(11,0,0,11,315.8,280.3)" />
<use xlink:href="#f0_6" transform="matrix(11,0,0,11,324.2,280.3)" />
<use xlink:href="#f0_1e" transform="matrix(11,0,0,11,329.7,280.3)" />
<use xlink:href="#f0_18" transform="matrix(11,0,0,11,137.7,299.6)" />
<use xlink:href="#f0_c" transform="matrix(11,0,0,11,144.2,299.6)" />
<use xlink:href="#f0_e" transform="matrix(11,0,0,11,152.6,299.6)" />
<use xlink:href="#f0_i" transform="matrix(11,0,0,11,160.1,299.6)" />
<use xlink:href="#f0_1l" transform="matrix(11,0,0,11,211,299.6)" />
<use xlink:href="#f0_c" transform="matrix(11,0,0,11,227.3,299.6)" />
<use xlink:href="#f0_i" transform="matrix(11,0,0,11,235.7,299.6)" />
<use xlink:href="#f0_5" transform="matrix(11,0,0,11,248.2,299.6)" />
<use xlink:href="#f0_e" transform="matrix(11,0,0,11,255.7,299.6)" />
<use xlink:href="#f0_m" transform="matrix(11,0,0,11,263.2,299.6)" />
<use xlink:href="#f0_13" transform="matrix(11,0,0,11,268.7,299.6)" />
<use xlink:href="#f0_l" transform="matrix(11,0,0,11,280.4,299.6)" />
<use xlink:href="#f0_6" transform="matrix(11,0,0,11,288.8,299.6)" />
<use xlink:href="#f0_e" transform="matrix(11,0,0,11,294.3,299.6)" />
<use xlink:href="#f0_i" transform="matrix(11,0,0,11,301.8,299.6)" />
<use xlink:href="#f0_2" transform="matrix(11,0,0,11,310.2,299.6)" />
<use xlink:href="#f0_7" transform="matrix(11,0,0,11,318.6,299.6)" />
<use xlink:href="#f0_a" transform="matrix(11,0,0,11,330.3,299.6)" />
<use xlink:href="#f0_9" transform="matrix(11,0,0,11,338.7,299.6)" />
<use xlink:href="#f0_6" transform="matrix(11,0,0,11,346.9,299.6)" />
<use xlink:href="#f0_m" transform="matrix(11,0,0,11,356.8,299.6)" />
<use xlink:href="#f0_e" transform="matrix(11,0,0,11,362.3,299.6)" />
<use xlink:href="#f0_v" transform="matrix(11,0,0,11,369.8,299.6)" />
<use xlink:href="#f0_9" transform="matrix(11,0,0,11,378.2,299.6)" />
<use xlink:href="#f0_6" transform="matrix(11,0,0,11,386.6,299.6)" />
<use xlink:href="#f0_1e" transform="matrix(11,0,0,11,392.2,299.6)" />
</g>
<g fill="#0000FF" >
<use xlink:href="#f1_2" transform="matrix(12,0,0,12,723.6,338.7)" />
<use xlink:href="#f1_6" transform="matrix(12,0,0,12,736.1,338.7)" />
<use xlink:href="#f1_s" transform="matrix(12,0,0,12,741.5,338.7)" />
<use xlink:href="#f1_4" transform="matrix(12,0,0,12,749.3,338.7)" />
<use xlink:href="#f1_i" transform="matrix(12,0,0,12,760,338.7)" />
</g>
</g>
<path d="M723.1,340.5h49.3" class="g0_9" />
<g clip-path="url(#c1_9)">
<path d="M722.9,340.5h5.9" class="g0_9" />
</g>
<g clip-path="url(#c0_9)">
<g fill="#000000" >
<use xlink:href="#f2_p" transform="matrix(16,0,0,16,617.2,430.7)" />
<use xlink:href="#f2_a" transform="matrix(16,0,0,16,629.6,430.7)" />
<use xlink:href="#f2_m" transform="matrix(16,0,0,16,636.4,430.7)" />
<use xlink:href="#f2_3" transform="matrix(16,0,0,16,644.8,430.7)" />
<use xlink:href="#f2_a" transform="matrix(16,0,0,16,662.5,430.7)" />
<use xlink:href="#f2_6" transform="matrix(16,0,0,16,669.2,430.7)" />
<use xlink:href="#f2_9" transform="matrix(16,0,0,16,690.1,430.7)" />
<use xlink:href="#f2_h" transform="matrix(16,0,0,16,705.3,430.7)" />
<use xlink:href="#f2_g" transform="matrix(16,0,0,16,727.9,430.7)" />
<use xlink:href="#f2_4" transform="matrix(16,0,0,16,741.4,430.7)" />
<use xlink:href="#f2_o" transform="matrix(16,0,0,16,748,430.7)" />
<use xlink:href="#f2_c" transform="matrix(16,0,0,16,760.1,430.7)" />
<use xlink:href="#f3_e" transform="matrix(12,0,0,12,723.8,472.2)" />
<use xlink:href="#f3_a" transform="matrix(12,0,0,12,735,472.2)" />
<use xlink:href="#f3_n" transform="matrix(12,0,0,12,740.3,472.2)" />
<use xlink:href="#f3_4" transform="matrix(12,0,0,12,748.6,472.2)" />
<use xlink:href="#f3_k" transform="matrix(12,0,0,12,759.6,472.2)" />
<use xlink:href="#f3_z" transform="matrix(12,0,0,12,704.6,472.2)" />
<use xlink:href="#f1_k" transform="matrix(12,0,0,12,468.1,472.2)" />
<use xlink:href="#f1_2" transform="matrix(12,0,0,12,473.9,472.2)" />
<use xlink:href="#f1_3" transform="matrix(12,0,0,12,486.1,472.2)" />
<use xlink:href="#f1_j" transform="matrix(12,0,0,12,490.2,472.2)" />
<use xlink:href="#f1_o" transform="matrix(12,0,0,12,502.5,472.2)" />
<use xlink:href="#f1_e" transform="matrix(12,0,0,12,513,472.2)" />
<use xlink:href="#f1_2" transform="matrix(12,0,0,12,530.7,472.2)" />
<use xlink:href="#f1_3" transform="matrix(12,0,0,12,542.9,472.2)" />
<use xlink:href="#f1_l" transform="matrix(12,0,0,12,547.1,472.2)" />
<use xlink:href="#f1_f" transform="matrix(12,0,0,12,559,472.2)" />
<use xlink:href="#f1_c" transform="matrix(12,0,0,12,570.4,472.2)" />
<use xlink:href="#f1_b" transform="matrix(12,0,0,12,583.4,472.2)" />
<use xlink:href="#f1_e" transform="matrix(12,0,0,12,595.9,472.2)" />
<use xlink:href="#f1_i" transform="matrix(12,0,0,12,613.6,472.2)" />
<use xlink:href="#f1_j" transform="matrix(12,0,0,12,625.6,472.2)" />
<use xlink:href="#f1_2" transform="matrix(12,0,0,12,643.7,472.2)" />
<use xlink:href="#f1_s" transform="matrix(12,0,0,12,655.9,472.2)" />
<use xlink:href="#f1_4" transform="matrix(12,0,0,12,663.4,472.2)" />
<use xlink:href="#f1_i" transform="matrix(12,0,0,12,673.8,472.2)" />
<use xlink:href="#f1_13" transform="matrix(12,0,0,12,691.6,472.2)" />
</g>
</g>
<path d="M128.6,496.3H780.3M128.6,518.5H780.3M128.6,540.6H780.3M128.6,562.8H780.3M128.6,649.1H780.3M128.6,671.2H780.3M128.6,693.4H780.3M128.6,713.5H780.3M128.6,733.6H780.3M128.6,753.7H780.3m-651.7,20H780.3M128.6,793.9H780.3M128.9,495.9V794.3M526.6,495.9V794.3M779.9,495.9V794.3" class="g1_9" />
<g clip-path="url(#c0_9)">
<g fill="#000000" >
<use xlink:href="#f1_k" transform="matrix(12,0,0,12,612,513.8)" />
<use xlink:href="#f1_a" transform="matrix(12,0,0,12,617.8,513.8)" />
<use xlink:href="#f1_j" transform="matrix(12,0,0,12,628.2,513.8)" />
<use xlink:href="#f1_4" transform="matrix(12,0,0,12,640.5,513.8)" />
<use xlink:href="#f1_c" transform="matrix(12,0,0,12,650.7,513.8)" />
<use xlink:href="#f1_3" transform="matrix(12,0,0,12,663.7,513.8)" />
<use xlink:href="#f1_b" transform="matrix(12,0,0,12,667.8,513.8)" />
<use xlink:href="#f1_3" transform="matrix(12,0,0,12,686.1,513.8)" />
<use xlink:href="#f1_n" transform="matrix(12,0,0,12,690.2,513.8)" />
<use xlink:href="#f1_j" transform="matrix(12,0,0,12,697.5,513.8)" />
<use xlink:href="#f1_6" transform="matrix(12,0,0,12,709.8,513.8)" />
<use xlink:href="#f1_3" transform="matrix(12,0,0,12,720.6,513.8)" />
<use xlink:href="#f1_n" transform="matrix(12,0,0,12,724.7,513.8)" />
<use xlink:href="#f1_g" transform="matrix(12,0,0,12,731.9,513.8)" />
<use xlink:href="#f1_3" transform="matrix(12,0,0,12,747.9,513.8)" />
<use xlink:href="#f1_n" transform="matrix(12,0,0,12,752,513.8)" />
<use xlink:href="#f1_j" transform="matrix(12,0,0,12,759.4,513.8)" />
<use xlink:href="#f1_k" transform="matrix(12,0,0,12,623.8,535.9)" />
<use xlink:href="#f1_i" transform="matrix(12,0,0,12,629.6,535.9)" />
<use xlink:href="#f1_3" transform="matrix(12,0,0,12,641.6,535.9)" />
<use xlink:href="#f1_a" transform="matrix(12,0,0,12,645.8,535.9)" />
<use xlink:href="#f1_s" transform="matrix(12,0,0,12,656.1,535.9)" />
<use xlink:href="#f1_n" transform="matrix(12,0,0,12,663.6,535.9)" />
<use xlink:href="#f1_j" transform="matrix(12,0,0,12,671,535.9)" />
<use xlink:href="#f1_j" transform="matrix(12,0,0,12,689.1,535.9)" />
<use xlink:href="#f1_3" transform="matrix(12,0,0,12,701.4,535.9)" />
<use xlink:href="#f1_e" transform="matrix(12,0,0,12,705.5,535.9)" />
<use xlink:href="#f1_e" transform="matrix(12,0,0,12,723.3,535.9)" />
<use xlink:href="#f1_f" transform="matrix(12,0,0,12,735.2,535.9)" />
<use xlink:href="#f1_c" transform="matrix(12,0,0,12,746.7,535.9)" />
<use xlink:href="#f1_e" transform="matrix(12,0,0,12,759.7,535.9)" />
<use xlink:href="#f1_k" transform="matrix(12,0,0,12,622,558.1)" />
<use xlink:href="#f1_2" transform="matrix(12,0,0,12,627.8,558.1)" />
<use xlink:href="#f1_3" transform="matrix(12,0,0,12,640,558.1)" />
<use xlink:href="#f1_m" transform="matrix(12,0,0,12,644.1,558.1)" />
<use xlink:href="#f1_s" transform="matrix(12,0,0,12,655.5,558.1)" />
<use xlink:href="#f1_6" transform="matrix(12,0,0,12,663,558.1)" />
<use xlink:href="#f1_c" transform="matrix(12,0,0,12,668,558.1)" />
<use xlink:href="#f1_b" transform="matrix(12,0,0,12,680.9,558.1)" />
<use xlink:href="#f1_2" transform="matrix(12,0,0,12,699.2,558.1)" />
<use xlink:href="#f1_3" transform="matrix(12,0,0,12,711.4,558.1)" />
<use xlink:href="#f1_4" transform="matrix(12,0,0,12,715.5,558.1)" />
<use xlink:href="#f1_h" transform="matrix(12,0,0,12,725.9,558.1)" />
<use xlink:href="#f1_a" transform="matrix(12,0,0,12,736.7,558.1)" />
<use xlink:href="#f1_b" transform="matrix(12,0,0,12,747.1,558.1)" />
<use xlink:href="#f1_e" transform="matrix(12,0,0,12,759.6,558.1)" />
<use xlink:href="#f1_e" transform="matrix(12,0,0,12,535.2,580.3)" />
<use xlink:href="#f1_g" transform="matrix(12,0,0,12,547.1,580.3)" />
<use xlink:href="#f1_n" transform="matrix(12,0,0,12,557.2,580.3)" />
<use xlink:href="#f1_f" transform="matrix(12,0,0,12,564.5,580.3)" />
<use xlink:href="#f1_b" transform="matrix(12,0,0,12,575.9,580.3)" />
<use xlink:href="#f1_j" transform="matrix(12,0,0,12,588.4,580.3)" />
<use xlink:href="#f1_9" transform="matrix(12,0,0,12,609.9,580.3)" />
<use xlink:href="#f1_j" transform="matrix(12,0,0,12,615.8,580.3)" />
<use xlink:href="#f1_o" transform="matrix(12,0,0,12,628,580.3)" />
<use xlink:href="#f1_j" transform="matrix(12,0,0,12,638.5,580.3)" />
<use xlink:href="#f1_9" transform="matrix(12,0,0,12,659.9,580.3)" />
<use xlink:href="#f1_j" transform="matrix(12,0,0,12,665.7,580.3)" />
<use xlink:href="#f1_b" transform="matrix(12,0,0,12,677.9,580.3)" />
<use xlink:href="#f1_j" transform="matrix(12,0,0,12,690.4,580.3)" />
<use xlink:href="#f1_w" transform="matrix(12,0,0,12,711.9,580.3)" />
<use xlink:href="#f1_r" transform="matrix(12,0,0,12,718,580.3)" />
<use xlink:href="#f1_6" transform="matrix(12,0,0,12,731,580.3)" />
<use xlink:href="#f1_n" transform="matrix(12,0,0,12,736,580.3)" />
<use xlink:href="#f1_3" transform="matrix(12,0,0,12,743.4,580.3)" />
<use xlink:href="#f1_i" transform="matrix(12,0,0,12,747.5,580.3)" />
<use xlink:href="#f1_e" transform="matrix(12,0,0,12,759.5,580.3)" />
<use xlink:href="#f1_2" transform="matrix(12,0,0,12,535.2,612.3)" />
<use xlink:href="#f1_6" transform="matrix(12,0,0,12,547.4,612.3)" />
<use xlink:href="#f1_4" transform="matrix(12,0,0,12,552.3,612.3)" />
<use xlink:href="#f1_g" transform="matrix(12,0,0,12,562.7,612.3)" />
<use xlink:href="#f1_a" transform="matrix(12,0,0,12,609.5,612.3)" />
<use xlink:href="#f1_5" transform="matrix(12,0,0,12,619.9,612.3)" />
<use xlink:href="#f1_j" transform="matrix(12,0,0,12,629.6,612.3)" />
<use xlink:href="#f1_b" transform="matrix(12,0,0,12,641.8,612.3)" />
<use xlink:href="#f1_a" transform="matrix(12,0,0,12,654.2,612.3)" />
<use xlink:href="#f1_i" transform="matrix(12,0,0,12,701.2,612.3)" />
<use xlink:href="#f1_b" transform="matrix(12,0,0,12,713.2,612.3)" />
<use xlink:href="#f1_6" transform="matrix(12,0,0,12,725.7,612.3)" />
<use xlink:href="#f1_t" transform="matrix(12,0,0,12,730.6,612.3)" />
<use xlink:href="#f1_4" transform="matrix(12,0,0,12,742.5,612.3)" />
<use xlink:href="#f1_f" transform="matrix(12,0,0,12,752.9,612.3)" />
<use xlink:href="#f1_11" transform="matrix(12,0,0,12,764.3,612.3)" />
<use xlink:href="#f1_k" transform="matrix(12,0,0,12,690.1,644.4)" />
<use xlink:href="#f1_12" transform="matrix(12,0,0,12,695.9,644.4)" />
<use xlink:href="#f1_3" transform="matrix(12,0,0,12,703.1,644.4)" />
<use xlink:href="#f1_j" transform="matrix(12,0,0,12,707.2,644.4)" />
<use xlink:href="#f1_r" transform="matrix(12,0,0,12,719.4,644.4)" />
<use xlink:href="#f1_3" transform="matrix(12,0,0,12,732.4,644.4)" />
<use xlink:href="#f1_4" transform="matrix(12,0,0,12,736.5,644.4)" />
<use xlink:href="#f1_b" transform="matrix(12,0,0,12,746.9,644.4)" />
<use xlink:href="#f1_j" transform="matrix(12,0,0,12,759.4,644.4)" />
<use xlink:href="#f1_k" transform="matrix(12,0,0,12,661.5,666.6)" />
<use xlink:href="#f1_2" transform="matrix(12,0,0,12,667.3,666.6)" />
<use xlink:href="#f1_3" transform="matrix(12,0,0,12,679.5,666.6)" />
<use xlink:href="#f1_m" transform="matrix(12,0,0,12,683.5,666.6)" />
<use xlink:href="#f1_l" transform="matrix(12,0,0,12,695,666.6)" />
<use xlink:href="#f1_3" transform="matrix(12,0,0,12,712.8,666.6)" />
<use xlink:href="#f1_l" transform="matrix(12,0,0,12,716.9,666.6)" />
<use xlink:href="#f1_s" transform="matrix(12,0,0,12,728.8,666.6)" />
<use xlink:href="#f1_f" transform="matrix(12,0,0,12,736.3,666.6)" />
<use xlink:href="#f1_t" transform="matrix(12,0,0,12,747.7,666.6)" />
<use xlink:href="#f1_e" transform="matrix(12,0,0,12,759.6,666.6)" />
<use xlink:href="#f1_k" transform="matrix(12,0,0,12,663.5,688.7)" />
<use xlink:href="#f1_2" transform="matrix(12,0,0,12,669.3,688.7)" />
<use xlink:href="#f1_3" transform="matrix(12,0,0,12,681.4,688.7)" />
<use xlink:href="#f1_c" transform="matrix(12,0,0,12,685.5,688.7)" />
<use xlink:href="#f1_f" transform="matrix(12,0,0,12,698.5,688.7)" />
<use xlink:href="#f1_l" transform="matrix(12,0,0,12,709.9,688.7)" />
<use xlink:href="#f1_6" transform="matrix(12,0,0,12,727.8,688.7)" />
<use xlink:href="#f1_n" transform="matrix(12,0,0,12,732.8,688.7)" />
<use xlink:href="#f1_u" transform="matrix(12,0,0,12,740.1,688.7)" />
<use xlink:href="#f1_n" transform="matrix(12,0,0,12,752,688.7)" />
<use xlink:href="#f1_j" transform="matrix(12,0,0,12,759.4,688.7)" />
<use xlink:href="#f0_r" transform="matrix(11,0,0,11,137.7,709.5)" />
<use xlink:href="#f0_e" transform="matrix(11,0,0,11,147.9,709.5)" />
<use xlink:href="#f0_4" transform="matrix(11,0,0,11,159.6,709.5)" />
<use xlink:href="#f0_3" transform="matrix(11,0,0,11,166,709.5)" />
<use xlink:href="#f0_7" transform="matrix(11,0,0,11,170.8,709.5)" />
<use xlink:href="#f0_4" transform="matrix(11,0,0,11,178.2,709.5)" />
<use xlink:href="#f0_8" transform="matrix(11,0,0,11,184.6,709.5)" />
<use xlink:href="#f0_e" transform="matrix(11,0,0,11,189.4,709.5)" />
<use xlink:href="#f0_7" transform="matrix(11,0,0,11,201.1,709.5)" />
<use xlink:href="#f0_4" transform="matrix(11,0,0,11,208.4,709.5)" />
<use xlink:href="#f0_3" transform="matrix(11,0,0,11,219.2,709.5)" />
<use xlink:href="#f0_d" transform="matrix(11,0,0,11,223.8,709.5)" />
<use xlink:href="#f0_a" transform="matrix(11,0,0,11,237,709.5)" />
<use xlink:href="#f0_9" transform="matrix(11,0,0,11,245.4,709.5)" />
<use xlink:href="#f0_6" transform="matrix(11,0,0,11,253.8,709.5)" />
<use xlink:href="#f0_8" transform="matrix(11,0,0,11,259.3,709.5)" />
<use xlink:href="#f0_e" transform="matrix(11,0,0,11,264,709.5)" />
<use xlink:href="#f0_i" transform="matrix(11,0,0,11,271.4,709.5)" />
<use xlink:href="#f0_8" transform="matrix(11,0,0,11,279.8,709.5)" />
<use xlink:href="#f0_7" transform="matrix(11,0,0,11,284.6,709.5)" />
<use xlink:href="#f0_1e" transform="matrix(11,0,0,11,291.9,709.5)" />
<use xlink:href="#f0_p" transform="matrix(11,0,0,11,137.7,729.5)" />
<use xlink:href="#f0_b" transform="matrix(11,0,0,11,147.9,729.5)" />
<use xlink:href="#f0_e" transform="matrix(11,0,0,11,156.9,729.5)" />
<use xlink:href="#f0_6" transform="matrix(11,0,0,11,164.2,729.5)" />
<use xlink:href="#f0_6" transform="matrix(11,0,0,11,169.8,729.5)" />
<use xlink:href="#f0_9" transform="matrix(11,0,0,11,175.5,729.5)" />
<use xlink:href="#f0_q" transform="matrix(11,0,0,11,183.9,729.5)" />
<use xlink:href="#f0_7" transform="matrix(11,0,0,11,195.4,729.5)" />
<use xlink:href="#f0_4" transform="matrix(11,0,0,11,202.9,729.5)" />
<use xlink:href="#f0_n" transform="matrix(11,0,0,11,213.6,729.5)" />
<use xlink:href="#f0_9" transform="matrix(11,0,0,11,222,729.5)" />
<use xlink:href="#f0_6" transform="matrix(11,0,0,11,230.4,729.5)" />
<use xlink:href="#f0_6" transform="matrix(11,0,0,11,236,729.5)" />
<use xlink:href="#f0_3" transform="matrix(11,0,0,11,241.5,729.5)" />
<use xlink:href="#f0_h" transform="matrix(11,0,0,11,246.2,729.5)" />
<use xlink:href="#f0_b" transform="matrix(11,0,0,11,254.6,729.5)" />
<use xlink:href="#f0_7" transform="matrix(11,0,0,11,259.4,729.5)" />
<use xlink:href="#f0_1e" transform="matrix(11,0,0,11,266.7,729.5)" />
<use xlink:href="#f0_r" transform="matrix(11,0,0,11,137.7,749.7)" />
<use xlink:href="#f0_e" transform="matrix(11,0,0,11,147.9,749.7)" />
<use xlink:href="#f0_3" transform="matrix(11,0,0,11,159.6,749.7)" />
<use xlink:href="#f0_i" transform="matrix(11,0,0,11,164.2,749.7)" />
<use xlink:href="#f0_m" transform="matrix(11,0,0,11,172.6,749.7)" />
<use xlink:href="#f0_9" transform="matrix(11,0,0,11,178.2,749.7)" />
<use xlink:href="#f0_6" transform="matrix(11,0,0,11,186.6,749.7)" />
<use xlink:href="#f0_d" transform="matrix(11,0,0,11,192.1,749.7)" />
<use xlink:href="#f0_e" transform="matrix(11,0,0,11,205.3,749.7)" />
<use xlink:href="#f0_5" transform="matrix(11,0,0,11,212.7,749.7)" />
<use xlink:href="#f0_3" transform="matrix(11,0,0,11,220.2,749.7)" />
<use xlink:href="#f0_y" transform="matrix(11,0,0,11,224.9,749.7)" />
<use xlink:href="#f0_i" transform="matrix(11,0,0,11,233.3,749.7)" />
<use xlink:href="#f0_7" transform="matrix(11,0,0,11,245.8,749.7)" />
<use xlink:href="#f0_4" transform="matrix(11,0,0,11,253.3,749.7)" />
<use xlink:href="#f0_3" transform="matrix(11,0,0,11,264,749.7)" />
<use xlink:href="#f0_d" transform="matrix(11,0,0,11,268.7,749.7)" />
<use xlink:href="#f0_a" transform="matrix(11,0,0,11,281.7,749.7)" />
<use xlink:href="#f0_9" transform="matrix(11,0,0,11,290.1,749.7)" />
<use xlink:href="#f0_6" transform="matrix(11,0,0,11,298.5,749.7)" />
<use xlink:href="#f0_8" transform="matrix(11,0,0,11,304.1,749.7)" />
<use xlink:href="#f0_e" transform="matrix(11,0,0,11,308.7,749.7)" />
<use xlink:href="#f0_i" transform="matrix(11,0,0,11,316.2,749.7)" />
<use xlink:href="#f0_8" transform="matrix(11,0,0,11,324.6,749.7)" />
<use xlink:href="#f0_7" transform="matrix(11,0,0,11,329.3,749.7)" />
<use xlink:href="#f0_1e" transform="matrix(11,0,0,11,336.6,749.7)" />
<use xlink:href="#f0_r" transform="matrix(11,0,0,11,137.7,769.7)" />
<use xlink:href="#f0_9" transform="matrix(11,0,0,11,147.9,769.7)" />
<use xlink:href="#f0_4" transform="matrix(11,0,0,11,156.3,769.7)" />
<use xlink:href="#f0_d" transform="matrix(11,0,0,11,167.1,769.7)" />
<use xlink:href="#f0_9" transform="matrix(11,0,0,11,180.1,769.7)" />
<use xlink:href="#f0_4" transform="matrix(11,0,0,11,188.5,769.7)" />
<use xlink:href="#f0_17" transform="matrix(11,0,0,11,195.1,769.7)" />
<use xlink:href="#f0_c" transform="matrix(11,0,0,11,203.5,769.7)" />
<use xlink:href="#f0_3" transform="matrix(11,0,0,11,211.9,769.7)" />
<use xlink:href="#f0_8" transform="matrix(11,0,0,11,216.5,769.7)" />
<use xlink:href="#f0_9" transform="matrix(11,0,0,11,221.2,769.7)" />
<use xlink:href="#f0_4" transform="matrix(11,0,0,11,229.6,769.7)" />
<use xlink:href="#f0_4" transform="matrix(11,0,0,11,240.4,769.7)" />
<use xlink:href="#f0_9" transform="matrix(11,0,0,11,247,769.7)" />
<use xlink:href="#f0_i" transform="matrix(11,0,0,11,255.4,769.7)" />
<use xlink:href="#f0_d" transform="matrix(11,0,0,11,267.9,769.7)" />
<use xlink:href="#f0_e" transform="matrix(11,0,0,11,281,769.7)" />
<use xlink:href="#f0_b" transform="matrix(11,0,0,11,288.3,769.7)" />
<use xlink:href="#f0_v" transform="matrix(11,0,0,11,293.1,769.7)" />
<use xlink:href="#f0_e" transform="matrix(11,0,0,11,301.5,769.7)" />
<use xlink:href="#f0_2" transform="matrix(11,0,0,11,308.9,769.7)" />
<use xlink:href="#f0_9" transform="matrix(11,0,0,11,317.3,769.7)" />
<use xlink:href="#f0_4" transform="matrix(11,0,0,11,325.7,769.7)" />
<use xlink:href="#f0_1e" transform="matrix(11,0,0,11,332.1,769.7)" />
<use xlink:href="#f0_d" transform="matrix(11,0,0,11,137.7,789.9)" />
<use xlink:href="#f0_3" transform="matrix(11,0,0,11,150.8,789.9)" />
<use xlink:href="#f0_4" transform="matrix(11,0,0,11,155.4,789.9)" />
<use xlink:href="#f0_3" transform="matrix(11,0,0,11,161.9,789.9)" />
<use xlink:href="#f0_y" transform="matrix(11,0,0,11,166.6,789.9)" />
<use xlink:href="#f0_i" transform="matrix(11,0,0,11,175,789.9)" />
<use xlink:href="#f0_3" transform="matrix(11,0,0,11,187.6,789.9)" />
<use xlink:href="#f0_d" transform="matrix(11,0,0,11,192.3,789.9)" />
<use xlink:href="#f0_a" transform="matrix(11,0,0,11,205.4,789.9)" />
<use xlink:href="#f0_9" transform="matrix(11,0,0,11,213.8,789.9)" />
<use xlink:href="#f0_4" transform="matrix(11,0,0,11,222.1,789.9)" />
<use xlink:href="#f0_3" transform="matrix(11,0,0,11,228.6,789.9)" />
<use xlink:href="#f0_h" transform="matrix(11,0,0,11,233.3,789.9)" />
<use xlink:href="#f0_b" transform="matrix(11,0,0,11,241.7,789.9)" />
<use xlink:href="#f0_7" transform="matrix(11,0,0,11,246.3,789.9)" />
<use xlink:href="#f0_1e" transform="matrix(11,0,0,11,253.8,789.9)" />
</g>
<g fill="#0000FF" >
<use xlink:href="#f1_a" transform="matrix(12,0,0,12,649.3,849)" />
<use xlink:href="#f1_3" transform="matrix(12,0,0,12,660,849)" />
<use xlink:href="#f1_s" transform="matrix(12,0,0,12,664.5,849)" />
<use xlink:href="#f1_4" transform="matrix(12,0,0,12,672.3,849)" />
<use xlink:href="#f1_i" transform="matrix(12,0,0,12,683.1,849)" />
<use xlink:href="#f1_a" transform="matrix(12,0,0,12,695.5,849)" />
<use xlink:href="#f1_i" transform="matrix(12,0,0,12,712.4,849)" />
<use xlink:href="#f1_6" transform="matrix(12,0,0,12,724.9,849)" />
<use xlink:href="#f1_o" transform="matrix(12,0,0,12,730.3,849)" />
<use xlink:href="#f1_6" transform="matrix(12,0,0,12,741.2,849)" />
<use xlink:href="#f1_c" transform="matrix(12,0,0,12,746.6,849)" />
<use xlink:href="#f1_i" transform="matrix(12,0,0,12,759.8,849)" />
</g>
</g>
<path d="M642.9,850.8H772.1" class="g0_9" />
<g clip-path="url(#c2_9)">
<path d="M642.4,850.8h5.8" class="g0_9" />
</g>
<g clip-path="url(#c0_9)">
<g fill="#0000FF" >
<use xlink:href="#f1_1e" transform="matrix(12,0,0,12,630.7,849)" />
</g>
</g>
<path d="M630.7,850.8h11.6" class="g0_9" />
<g clip-path="url(#c0_9)">
<g fill="#000000" >
<use xlink:href="#f1_l" transform="matrix(12,0,0,12,737,1121.5)" />
<use xlink:href="#f1_o" transform="matrix(12,0,0,12,749.4,1121.5)" />
<use xlink:href="#f1_e" transform="matrix(12,0,0,12,760.2,1121.5)" />
<use xlink:href="#f1_i" transform="matrix(12,0,0,12,138,1121.5)" />
<use xlink:href="#f1_j" transform="matrix(12,0,0,12,150,1121.5)" />
<use xlink:href="#f1_e" transform="matrix(12,0,0,12,169.8,1121.5)" />
<use xlink:href="#f1_6" transform="matrix(12,0,0,12,181.8,1121.5)" />
<use xlink:href="#f1_6" transform="matrix(12,0,0,12,186.7,1121.5)" />
<use xlink:href="#f1_c" transform="matrix(12,0,0,12,191.7,1121.5)" />
<use xlink:href="#f1_e" transform="matrix(12,0,0,12,204.7,1121.5)" />
<use xlink:href="#f1_k" transform="matrix(12,0,0,12,224.2,1121.5)" />
<use xlink:href="#f1_2" transform="matrix(12,0,0,12,230,1121.5)" />
<use xlink:href="#f1_e" transform="matrix(12,0,0,12,242.2,1121.5)" />
<use xlink:href="#f1_a" transform="matrix(12,0,0,12,254.1,1121.5)" />
<use xlink:href="#f1_2" transform="matrix(12,0,0,12,272.1,1121.5)" />
<use xlink:href="#f1_3" transform="matrix(12,0,0,12,284.3,1121.5)" />
<use xlink:href="#f1_j" transform="matrix(12,0,0,12,288.4,1121.5)" />
<use xlink:href="#f1_i" transform="matrix(12,0,0,12,300.6,1121.5)" />
<use xlink:href="#f1_b" transform="matrix(12,0,0,12,312.7,1121.5)" />
<use xlink:href="#f1_e" transform="matrix(12,0,0,12,325.2,1121.5)" />
<use xlink:href="#f1_3" transform="matrix(12,0,0,12,344.5,1121.5)" />
<use xlink:href="#f1_g" transform="matrix(12,0,0,12,348.6,1121.5)" />
<use xlink:href="#f1_4" transform="matrix(12,0,0,12,358.7,1121.5)" />
<use xlink:href="#f1_f" transform="matrix(12,0,0,12,369.1,1121.5)" />
<use xlink:href="#f1_t" transform="matrix(12,0,0,12,380.5,1121.5)" />
<use xlink:href="#f1_e" transform="matrix(12,0,0,12,392.4,1121.5)" />
<use xlink:href="#f1_2" transform="matrix(12,0,0,12,411.8,1121.5)" />
<use xlink:href="#f1_6" transform="matrix(12,0,0,12,424,1121.5)" />
<use xlink:href="#f1_s" transform="matrix(12,0,0,12,429,1121.5)" />
<use xlink:href="#f1_4" transform="matrix(12,0,0,12,436.5,1121.5)" />
<use xlink:href="#f1_i" transform="matrix(12,0,0,12,446.9,1121.5)" />
<use xlink:href="#f1_e" transform="matrix(12,0,0,12,458.9,1121.5)" />
<use xlink:href="#f1_i" transform="matrix(12,0,0,12,478.4,1121.5)" />
<use xlink:href="#f1_j" transform="matrix(12,0,0,12,490.5,1121.5)" />
<use xlink:href="#f1_2" transform="matrix(12,0,0,12,510.2,1121.5)" />
<use xlink:href="#f1_6" transform="matrix(12,0,0,12,522.4,1121.5)" />
<use xlink:href="#f1_c" transform="matrix(12,0,0,12,527.4,1121.5)" />
<use xlink:href="#f1_4" transform="matrix(12,0,0,12,540.4,1121.5)" />
<use xlink:href="#f1_a" transform="matrix(12,0,0,12,550.8,1121.5)" />
<use xlink:href="#f1_e" transform="matrix(12,0,0,12,568.8,1121.5)" />
<use xlink:href="#f1_t" transform="matrix(12,0,0,12,580.7,1121.5)" />
<use xlink:href="#f1_n" transform="matrix(12,0,0,12,592.6,1121.5)" />
<use xlink:href="#f1_6" transform="matrix(12,0,0,12,599.8,1121.5)" />
<use xlink:href="#f1_2" transform="matrix(12,0,0,12,612.6,1121.5)" />
<use xlink:href="#f1_3" transform="matrix(12,0,0,12,624.8,1121.5)" />
<use xlink:href="#f1_j" transform="matrix(12,0,0,12,628.9,1121.5)" />
<use xlink:href="#f1_o" transform="matrix(12,0,0,12,641.1,1121.5)" />
<use xlink:href="#f1_e" transform="matrix(12,0,0,12,651.6,1121.5)" />
<use xlink:href="#f1_2" transform="matrix(12,0,0,12,671,1121.5)" />
<use xlink:href="#f1_3" transform="matrix(12,0,0,12,683.2,1121.5)" />
<use xlink:href="#f1_4" transform="matrix(12,0,0,12,687.3,1121.5)" />
<use xlink:href="#f1_6" transform="matrix(12,0,0,12,697.7,1121.5)" />
<use xlink:href="#f1_3" transform="matrix(12,0,0,12,702.7,1121.5)" />
<use xlink:href="#f1_h" transform="matrix(12,0,0,12,706.8,1121.5)" />
<use xlink:href="#f1_o" transform="matrix(12,0,0,12,717.7,1121.5)" />
<use xlink:href="#f1_k" transform="matrix(12,0,0,12,420.9,1142.9)" />
<use xlink:href="#f1_2" transform="matrix(12,0,0,12,426.7,1142.9)" />
<use xlink:href="#f1_3" transform="matrix(12,0,0,12,438.8,1142.9)" />
<use xlink:href="#f1_b" transform="matrix(12,0,0,12,442.9,1142.9)" />
<use xlink:href="#f1_g" transform="matrix(12,0,0,12,455.4,1142.9)" />
<use xlink:href="#f1_6" transform="matrix(12,0,0,12,465.5,1142.9)" />
<use xlink:href="#f1_r" transform="matrix(12,0,0,12,470.5,1142.9)" />
<use xlink:href="#f1_e" transform="matrix(12,0,0,12,483.5,1142.9)" />
<use xlink:href="#f1_2" transform="matrix(12,0,0,12,501.2,1142.9)" />
<use xlink:href="#f1_3" transform="matrix(12,0,0,12,513.2,1142.9)" />
<use xlink:href="#f1_g" transform="matrix(12,0,0,12,517.4,1142.9)" />
<use xlink:href="#f1_6" transform="matrix(12,0,0,12,527.4,1142.9)" />
<use xlink:href="#f1_b" transform="matrix(12,0,0,12,532.3,1142.9)" />
<use xlink:href="#f1_m" transform="matrix(12,0,0,12,544.8,1142.9)" />
<use xlink:href="#f1_o" transform="matrix(12,0,0,12,556.3,1142.9)" />
<use xlink:href="#f1_2" transform="matrix(12,0,0,12,572.8,1142.9)" />
<use xlink:href="#f1_3" transform="matrix(12,0,0,12,584.8,1142.9)" />
<use xlink:href="#f1_4" transform="matrix(12,0,0,12,588.9,1142.9)" />
<use xlink:href="#f1_6" transform="matrix(12,0,0,12,599.3,1142.9)" />
<use xlink:href="#f1_3" transform="matrix(12,0,0,12,604.3,1142.9)" />
<use xlink:href="#f1_h" transform="matrix(12,0,0,12,608.4,1142.9)" />
<use xlink:href="#f1_a" transform="matrix(12,0,0,12,619.3,1142.9)" />
<use xlink:href="#f1_2" transform="matrix(12,0,0,12,635.5,1142.9)" />
<use xlink:href="#f1_j" transform="matrix(12,0,0,12,647.7,1142.9)" />
<use xlink:href="#f1_i" transform="matrix(12,0,0,12,659.9,1142.9)" />
<use xlink:href="#f1_e" transform="matrix(12,0,0,12,672,1142.9)" />
<use xlink:href="#f1_o" transform="matrix(12,0,0,12,683.9,1142.9)" />
<use xlink:href="#f1_p" transform="matrix(12,0,0,12,700.4,1142.9)" />
<use xlink:href="#f1_3" transform="matrix(12,0,0,12,710.1,1142.9)" />
<use xlink:href="#f1_i" transform="matrix(12,0,0,12,714.3,1142.9)" />
<use xlink:href="#f1_6" transform="matrix(12,0,0,12,726.3,1142.9)" />
<use xlink:href="#f1_o" transform="matrix(12,0,0,12,731.3,1142.9)" />
<use xlink:href="#f1_6" transform="matrix(12,0,0,12,741.9,1142.9)" />
<use xlink:href="#f1_c" transform="matrix(12,0,0,12,746.8,1142.9)" />
<use xlink:href="#f1_i" transform="matrix(12,0,0,12,759.7,1142.9)" />
<use xlink:href="#f1_1m" transform="matrix(12,0,0,12,137.7,1208.5)" />
</g>
</g>
<defs>
<path d="M186,-14c0,0,-95,0,-154,22V190H81L104,86c0,0,14,-17,40,-26c0,0,26,-10,57,-10c0,0,105,0,105,141V941L178,960v40H562V960L449,941V322c0,0,0,-100,-30,-175c0,0,-31,-74,-93,-118c0,0,-63,-43,-140,-43Z" 
id="f0_18"
transform="scale(0.001,-0.001)" />

<path d="M289,-14c0,0,-179,0,-179,205V649L20,668v33H233V200c0,0,0,-128,120,-128c0,0,92,0,173,23V649L420,668v33H649V52L738,33V0H533l-6,57C527,57,474,28,405,7c0,0,-69,-21,-116,-21Z" 
id="f0_c"
transform="scale(0.001,-0.001)" />

<path d="M284,67c0,0,51,0,88,12c0,0,37,12,74,30V358l-98,-3c0,0,-100,-4,-135,-39c0,0,-35,-35,-35,-117c0,0,0,-132,106,-132ZM233,-14c0,0,-179,0,-179,208c0,0,0,70,27,116c0,0,27,46,87,70c0,0,60,24,173,27l105,3V519c0,0,0,72,-26,107c0,0,-27,34,-82,34c0,0,-75,0,-137,-35L176,538H134V691c0,0,121,26,213,26c0,0,115,0,169,-47c0,0,54,-47,54,-144V52L657,33V0H465L451,70c0,0,-85,-84,-218,-84Z" 
id="f0_e"
transform="scale(0.001,-0.001)" />

<path d="M439,0V33l93,19V500c0,0,0,62,-30,97c0,0,-31,36,-94,36c0,0,-67,0,-165,-22V52L338,33V0H35V33l84,19V649L35,668v33H235l7,-57c0,0,57,33,122,54c0,0,65,22,108,22c0,0,91,0,137,-53c0,0,47,-53,47,-154V52L741,33V0Z" 
id="f0_i"
transform="scale(0.001,-0.001)" />

<path d="M211,-20c0,0,-39,0,-64,25c0,0,-26,27,-26,64c0,0,0,38,26,64c0,0,26,26,64,26c0,0,37,0,64,-25c0,0,26,-26,26,-65c0,0,0,-37,-26,-64c0,0,-26,-25,-64,-25Zm0,556c0,0,-38,0,-64,26c0,0,-26,26,-26,64c0,0,0,37,26,64c0,0,25,27,64,27c0,0,38,0,64,-27c0,0,26,-27,26,-64c0,0,0,-38,-26,-64c0,0,-27,-26,-64,-26Z" 
id="f0_19"
transform="scale(0.001,-0.001)" />

<path d="M44,0V40L172,60V941L44,960v40H445V960L316,941V549H787V941L659,960v40h400V960L930,941V60L1059,40V0H659V40L787,60V481H316V60L445,40V0Z" 
id="f0_1b"
transform="scale(0.001,-0.001)" />

<path d="M377,45c0,0,99,0,147,73c0,0,47,73,47,237c0,0,0,161,-47,233c0,0,-47,72,-147,72c0,0,-97,0,-141,-69c0,0,-44,-69,-44,-236c0,0,0,-169,45,-240c0,0,44,-70,140,-70Zm0,-59c0,0,-158,0,-238,94c0,0,-81,95,-81,274c0,0,0,178,81,272c0,0,80,94,244,94c0,0,160,0,241,-92c0,0,82,-92,82,-274c0,0,0,-368,-329,-368Z" 
id="f0_9"
transform="scale(0.001,-0.001)" />

<path d="M31,0V33L150,52v956L31,1026v34H274V52L394,33V0Z" 
id="f0_b"
transform="scale(0.001,-0.001)" />

<path d="M529,65c0,0,183,0,270,108c0,0,87,108,87,334c0,0,0,210,-113,318c0,0,-113,108,-322,108H316V71c0,0,90,-6,213,-6Zm0,-67L172,0H44V40L172,60V941L44,960v40H498c0,0,277,0,411,-123c0,0,133,-124,133,-371c0,0,0,-251,-129,-380C913,126,785,-2,529,-2Z" 
id="f0_u"
transform="scale(0.001,-0.001)" />

<path d="M191,-20c0,0,-39,0,-65,25c0,0,-25,27,-25,64c0,0,0,38,26,64c0,0,26,26,64,26c0,0,38,0,64,-26c0,0,26,-26,26,-64c0,0,0,-37,-25,-64c0,0,-26,-25,-65,-25Z" 
id="f0_1e"
transform="scale(0.001,-0.001)" />

<path d="M379,-315c0,0,-316,0,-316,253c0,0,0,119,60,194c0,0,60,74,175,98l43,10l9,193h60L429,185L322,163c0,0,-64,-12,-93,-65c0,0,-29,-52,-29,-151c0,0,0,-110,40,-155c0,0,40,-44,139,-44c0,0,84,0,145,36l26,123h49V-283c0,0,-110,-32,-220,-32Zm-6,851c0,0,-38,0,-64,26c0,0,-26,26,-26,64c0,0,0,37,25,64c0,0,26,27,65,27c0,0,37,0,64,-27c0,0,26,-26,26,-64c0,0,0,-39,-27,-64c0,0,-26,-26,-63,-26Z" 
id="f0_1h"
transform="scale(0.001,-0.001)" />

<path d="M577,-14c0,0,-243,0,-379,132C198,118,63,250,63,488c0,0,0,258,130,391c0,0,131,132,387,132c0,0,156,0,335,-38l5,-218H871L848,884c0,0,-52,32,-121,50c0,0,-69,17,-141,17c0,0,-191,0,-279,-112c0,0,-88,-113,-88,-349c0,0,0,-217,92,-332c0,0,92,-115,268,-115c0,0,85,0,160,20c0,0,76,21,120,55l27,149h49L930,32c0,0,-164,-46,-353,-46Z" 
id="f0_1n"
transform="scale(0.001,-0.001)" />

<path d="M377,44c0,0,99,0,147,73c0,0,47,73,47,237c0,0,0,161,-47,234c0,0,-47,72,-147,72c0,0,-97,0,-141,-69c0,0,-44,-70,-44,-237c0,0,0,-169,45,-239c0,0,44,-71,140,-71Zm0,-58c0,0,-158,0,-238,94c0,0,-81,95,-81,274c0,0,0,178,81,272c0,0,80,94,244,94c0,0,160,0,241,-92c0,0,82,-92,82,-274c0,0,0,-368,-329,-368ZM301,835v24l147,203H606v-27L342,835Z" 
id="f0_y"
transform="scale(0.001,-0.001)" />

<path d="M431,0V33L535,52V499c0,0,0,62,-32,96c0,0,-32,33,-95,33c0,0,-66,0,-163,-22V52L350,33V0H32V33l89,19V649L32,668v33H237l6,-57c0,0,56,32,119,54c0,0,62,22,110,22c0,0,52,0,95,-20c0,0,44,-19,66,-62c0,0,57,32,134,57c0,0,77,25,128,25c0,0,179,0,179,-207V52l90,-19V0H846V33L950,52V499c0,0,0,129,-119,129c0,0,-19,0,-45,-3c0,0,-26,-3,-52,-7c0,0,-25,-4,-49,-8c0,0,-23,-5,-39,-8c0,0,13,-41,13,-89V52L764,33V0Z" 
id="f0_d"
transform="scale(0.001,-0.001)" />

<path d="M495,413c0,0,0,133,-34,190c0,0,-34,57,-105,57c0,0,-78,0,-119,-63c0,0,-42,-62,-42,-184ZM374,-14c0,0,-163,0,-239,87c0,0,-75,88,-75,283c0,0,0,183,77,273c0,0,76,91,219,91c0,0,269,0,269,-306V353H194V340c0,0,0,-103,23,-160c0,0,22,-57,70,-87c0,0,47,-29,124,-29c0,0,40,0,96,6c0,0,55,7,91,15V43C598,43,562,20,500,3c0,0,-61,-17,-126,-17Z" 
id="f0_7"
transform="scale(0.001,-0.001)" />

<path d="M278,-14c0,0,-52,0,-115,11c0,0,-63,10,-99,23V193H98L134,95c0,0,56,-50,146,-50c0,0,144,0,144,123c0,0,0,91,-114,130l-66,21c0,0,-75,25,-110,50c0,0,-34,26,-53,63c0,0,-18,36,-18,89c0,0,0,92,63,145c0,0,63,54,170,54c0,0,77,0,193,-23V544H454l-32,81c0,0,-39,35,-124,35c0,0,-61,0,-92,-30c0,0,-32,-30,-32,-80c0,0,0,-43,29,-72c0,0,28,-29,86,-48c0,0,110,-38,144,-55c0,0,33,-17,57,-42c0,0,23,-25,36,-57c0,0,13,-32,13,-79c0,0,0,-104,-66,-158c0,0,-66,-53,-195,-53Z" 
id="f0_4"
transform="scale(0.001,-0.001)" />

<path d="M249,-14c0,0,-71,0,-107,42c0,0,-35,42,-35,119V639H15v33l93,29l76,159h47V701H391V639H231V161c0,0,0,-48,22,-73c0,0,22,-24,57,-24c0,0,44,0,106,12V26C416,26,389,8,340,-2c0,0,-49,-12,-91,-12Z" 
id="f0_8"
transform="scale(0.001,-0.001)" />

<path d="M284,67c0,0,51,0,88,12c0,0,37,11,74,29V357l-98,-3c0,0,-100,-3,-135,-38c0,0,-35,-36,-35,-118c0,0,0,-131,106,-131ZM233,-14c0,0,-179,0,-179,208c0,0,0,70,27,116c0,0,27,46,87,70c0,0,60,24,173,27l105,3V519c0,0,0,73,-26,107c0,0,-27,34,-82,34c0,0,-75,0,-137,-35L176,538H134V691c0,0,121,26,213,26c0,0,115,0,169,-47c0,0,54,-47,54,-144V52L657,34V0H465L451,70c0,0,-85,-84,-218,-84Zm22,849v24l146,203H560v-27L296,835Z" 
id="f0_f"
transform="scale(0.001,-0.001)" />

<path d="M306,-20c0,0,-39,0,-65,25c0,0,-25,27,-25,64c0,0,0,38,26,64c0,0,26,26,64,26c0,0,37,0,63,-25c0,0,26,-26,26,-65c0,0,0,-37,-25,-64c0,0,-26,-25,-64,-25ZM269,261L249,510l107,22c0,0,64,13,93,65c0,0,29,52,29,152c0,0,0,109,-39,154c0,0,-40,45,-140,45c0,0,-83,0,-145,-36L128,789H79V979c0,0,118,32,220,32c0,0,316,0,316,-253c0,0,0,-121,-60,-195c0,0,-60,-74,-175,-98l-42,-9L328,261Z" 
id="f0_1j"
transform="scale(0.001,-0.001)" />

<path d="M322,0V40L481,60V389L130,941L17,960v40H440V960L306,941L593,480L866,941L739,960v40h326V960L955,941L625,394V60L784,40V0Z" 
id="f0_1l"
transform="scale(0.001,-0.001)" />

<path d="M148,-329c0,0,-58,0,-114,13v151H69l24,-71c0,0,23,-17,64,-17c0,0,39,0,72,22c0,0,33,23,60,67c0,0,27,44,68,157L90,649L19,668v33H344V668L233,648L423,158L606,649L497,668v33H758V668L685,652L411,-43c0,0,-48,-124,-84,-177c0,0,-36,-54,-79,-82c0,0,-44,-27,-100,-27Z" 
id="f0_1m"
transform="scale(0.001,-0.001)" />

<path d="M376,50c0,0,103,0,149,80c0,0,46,81,46,240c0,0,0,137,-47,204c0,0,-48,67,-148,67c0,0,-44,0,-87,-7c0,0,-44,-8,-63,-17V62c0,0,63,-12,150,-12Zm3,-64c0,0,-64,0,-141,14c0,0,-78,14,-136,37v971L0,1026v34H226V809c0,0,0,-40,-4,-148c0,0,74,59,188,59c0,0,143,0,219,-87c0,0,77,-87,77,-263c0,0,0,-189,-84,-287c0,0,-84,-97,-243,-97Z" 
id="f0_h"
transform="scale(0.001,-0.001)" />

<path d="M32,0V33L151,52V649L52,668v33H275V52L395,33V0ZM201,850c0,0,-32,0,-56,24c0,0,-24,24,-24,56c0,0,0,34,24,58c0,0,24,24,56,24c0,0,34,0,58,-24c0,0,24,-24,24,-58c0,0,0,-32,-24,-56c0,0,-24,-24,-58,-24Z" 
id="f0_3"
transform="scale(0.001,-0.001)" />

<path d="M359,-270c0,0,124,0,192,46c0,0,67,47,67,129c0,0,0,43,-26,67c0,0,-26,24,-79,24H242c0,0,-32,-27,-51,-69c0,0,-20,-41,-20,-77c0,0,0,-64,46,-92c0,0,46,-28,142,-28Zm11,561c0,0,81,0,115,47c0,0,34,47,34,141c0,0,0,100,-35,142c0,0,-35,42,-113,42c0,0,-78,0,-114,-43c0,0,-37,-42,-37,-141c0,0,0,-98,36,-143c0,0,36,-45,114,-45ZM359,-329c0,0,-143,0,-218,44c0,0,-75,43,-75,125c0,0,0,39,27,78c0,0,26,38,98,89c0,0,-43,14,-72,48c0,0,-29,35,-29,74L208,262c0,0,-118,55,-118,217c0,0,0,115,73,178c0,0,73,63,211,63c0,0,28,0,71,-6c0,0,44,-6,67,-13l165,83l26,-32L599,644c0,0,50,-56,50,-165c0,0,0,-120,-72,-182c0,0,-73,-62,-208,-62c0,0,-62,0,-114,11L208,148c0,0,2,-13,29,-24c0,0,27,-12,67,-12H512c0,0,113,0,168,-49c0,0,55,-49,55,-134c0,0,0,-79,-44,-137c0,0,-43,-58,-128,-90c0,0,-84,-31,-204,-31Z" 
id="f0_l"
transform="scale(0.001,-0.001)" />

<path d="M31,0V33l88,19V649L31,668v33H235l7,-87c0,0,44,37,121,71c0,0,76,35,121,35h11V530H463l-43,82c0,0,-37,0,-88,-10c0,0,-52,-10,-89,-26V52L363,33V0Z" 
id="f0_6"
transform="scale(0.001,-0.001)" />

<path d="M399,-14c0,0,-341,0,-341,370c0,0,0,175,87,269c0,0,87,95,249,95c0,0,101,0,220,-23V501H573L541,625c0,0,-62,35,-149,35c0,0,-200,0,-200,-304c0,0,0,-158,61,-225c0,0,61,-67,189,-67c0,0,109,0,189,24V43C631,43,595,16,530,1c0,0,-64,-15,-131,-15Z" 
id="f0_5"
transform="scale(0.001,-0.001)" />

<path d="M289,-14c0,0,-179,0,-179,205V649L20,668v33H233V200c0,0,0,-128,120,-128c0,0,92,0,173,23V649L420,668v33H649V52L738,34V0H533l-6,57C527,57,474,28,405,6c0,0,-69,-20,-116,-20Zm24,849v24l147,203H618v-27L354,835Z" 
id="f0_z"
transform="scale(0.001,-0.001)" />

<path d="M13,0V34L95,46L325,350L122,649L40,668v33H357V668L264,648L399,446L554,649l-96,19v33H710V668L630,652L433,397L663,50L745,34V0H427V34l94,17L359,299L169,50L266,34V0Z" 
id="f0_w"
transform="scale(0.001,-0.001)" />

<path d="M58,-234v58c0,0,131,42,131,125c0,0,0,15,-11,27c0,0,-11,12,-38,25C140,1,89,27,89,75c0,0,0,40,25,61c0,0,26,21,65,21c0,0,48,0,77,-34c0,0,30,-34,30,-86c0,0,0,-101,-60,-170c0,0,-59,-69,-168,-101Z" 
id="f0_1g"
transform="scale(0.001,-0.001)" />

<path d="M44,0V40L172,60V941L44,960v40H794V760H745L721,922c0,0,-83,11,-241,11H316V543H586l23,119h48V354H609L586,475H316V67H513c0,0,193,0,252,12l43,185h49L843,0Z" 
id="f0_p"
transform="scale(0.001,-0.001)" />

<path d="M410,-14c0,0,-80,0,-162,14c0,0,-81,14,-144,38V270h48L178,134c0,0,28,-35,95,-62c0,0,68,-27,134,-27c0,0,104,0,163,53c0,0,58,54,58,148c0,0,0,54,-23,89c0,0,-22,35,-59,59c0,0,-37,24,-84,41c0,0,-47,17,-97,34c0,0,-49,17,-96,38c0,0,-47,21,-84,53c0,0,-37,32,-60,79c0,0,-23,48,-23,117c0,0,0,119,90,187c0,0,89,68,248,68c0,0,121,0,263,-32V771H654L628,893c0,0,-76,55,-188,55c0,0,-100,0,-156,-40c0,0,-56,-41,-56,-112c0,0,0,-49,22,-81c0,0,23,-32,60,-55c0,0,37,-22,84,-39c0,0,48,-16,97,-34c0,0,50,-17,97,-39c0,0,48,-22,85,-56c0,0,36,-34,59,-83c0,0,23,-49,23,-120c0,0,0,-145,-89,-224c0,0,-89,-79,-256,-79Z" 
id="f0_1k"
transform="scale(0.001,-0.001)" />

<path d="M32,0V34L151,52V649L52,668v33H275V52L395,34V0Zm71,835v24l146,203H408v-27L144,835Z" 
id="f0_j"
transform="scale(0.001,-0.001)" />

<path d="M64,0V34L168,59V639H47v36l121,29v49c0,0,0,155,61,239c0,0,62,84,173,84c0,0,58,0,107,-15V908H472l-33,92c0,0,-26,16,-62,16c0,0,-47,0,-66,-42c0,0,-19,-42,-19,-157V701H478V639H292V59L443,34V0Z" 
id="f0_m"
transform="scale(0.001,-0.001)" />

<path d="M495,413c0,0,0,133,-34,190c0,0,-34,57,-105,57c0,0,-78,0,-119,-62c0,0,-42,-63,-42,-185ZM374,-14c0,0,-163,0,-239,87c0,0,-75,88,-75,283c0,0,0,183,77,274c0,0,76,90,219,90c0,0,269,0,269,-306V353H194V339c0,0,0,-103,23,-160c0,0,22,-57,70,-86c0,0,47,-30,124,-30c0,0,40,0,96,6c0,0,55,7,91,15V43C598,43,562,19,500,2c0,0,-61,-16,-126,-16ZM285,835v24l146,203H590v-27L326,835Z" 
id="f0_13"
transform="scale(0.001,-0.001)" />

<path d="M383,64c0,0,85,0,152,28V645c0,0,-67,13,-152,13c0,0,-194,0,-194,-314c0,0,0,-141,48,-211c0,0,48,-69,146,-69ZM342,-14c0,0,-287,0,-287,358c0,0,0,184,82,280c0,0,81,96,239,96c0,0,81,0,163,-18c0,0,-4,25,-4,124v182l-118,18v34H659V52L745,33V0H548l-9,52c0,0,-84,-66,-197,-66Z" 
id="f0_2"
transform="scale(0.001,-0.001)" />

<path d="M617,0L251,860V60L385,40V0H44V40L172,60V941L44,960v40H347L672,239l355,761h287V960L1185,941V60L1314,40V0H908V40l134,20V859L643,0Z" 
id="f0_1d"
transform="scale(0.001,-0.001)" />

<path d="M41,0V34L426,641H261c0,0,-42,0,-80,-7c0,0,-39,-7,-54,-19L104,515H69V701H586V665L201,60H407c0,0,42,0,89,10c0,0,47,10,66,25l39,147h35L617,0Z" 
id="f0_q"
transform="scale(0.001,-0.001)" />

<path d="M536,63c0,0,127,0,191,54c0,0,63,54,63,168c0,0,0,105,-70,154c0,0,-70,49,-225,49H316V67c0,0,103,-4,220,-4ZM480,555c0,0,121,0,178,48c0,0,57,48,57,155c0,0,0,91,-58,133c0,0,-57,42,-186,42H316V555ZM554,-4L235,0H44V40L172,60V941L44,960v40H501c0,0,191,0,279,-56c0,0,88,-56,88,-179c0,0,0,-88,-55,-149c0,0,-54,-62,-151,-83c0,0,135,-14,209,-79c0,0,73,-65,73,-166c0,0,0,-144,-99,-219C845,69,745,-4,554,-4Z" 
id="f0_1o"
transform="scale(0.001,-0.001)" />

<path d="M35,0V34l84,18V649L35,668v33H235l7,-56c0,0,57,32,122,54c0,0,65,21,108,21c0,0,91,0,137,-53c0,0,47,-53,47,-154V52L741,34V0H439V34l93,18V500c0,0,0,62,-30,97c0,0,-31,36,-94,36c0,0,-67,0,-165,-22V52L338,34V0ZM481,834c0,0,-36,0,-66,16c0,0,-30,16,-57,36c0,0,-27,20,-52,36c0,0,-25,16,-49,16c0,0,-24,0,-39,-9c0,0,-14,-9,-23,-26c0,0,-8,-17,-13,-54H143c0,0,11,180,146,180c0,0,36,0,66,-16c0,0,30,-16,57,-35c0,0,27,-20,52,-36c0,0,25,-16,49,-16c0,0,32,0,50,18c0,0,18,19,25,70h39c0,0,-12,-180,-146,-180Z" 
id="f0_s"
transform="scale(0.001,-0.001)" />

<path d="M557,-14c0,0,-199,0,-298,89c0,0,-99,90,-99,255V941L32,960v40H432V960L304,941V341c0,0,0,-273,264,-273c0,0,144,0,220,68c0,0,77,68,77,202V941L730,960v40h341V960L943,941V344c0,0,0,-180,-99,-269c0,0,-99,-89,-287,-89Z" 
id="f0_1p"
transform="scale(0.001,-0.001)" />

<path d="M382,45c0,0,188,0,188,314c0,0,0,143,-47,213c0,0,-46,69,-141,69c0,0,-87,0,-146,-24V58c0,0,67,-13,146,-13ZM25,-325v35l88,18V649L34,668v33H231l1,-41c0,0,31,27,84,43c0,0,53,17,107,17c0,0,134,0,208,-94c0,0,73,-93,73,-267c0,0,0,-178,-80,-276c0,0,-80,-97,-232,-97c0,0,-84,0,-160,16c0,0,4,-53,4,-84V-272l123,-18v-35Z" 
id="f0_a"
transform="scale(0.001,-0.001)" />

<path d="M360,-14L72,649L0,668v33H327V668L216,648L420,164L615,649L504,668v33H764V668L697,652L416,-14Z" 
id="f0_v"
transform="scale(0.001,-0.001)" />

<path d="M736,107V473c0,0,0,147,-48,202c0,0,-49,54,-187,54H278V107ZM139,0V836H499c0,0,105,0,177,-22c0,0,72,-21,116,-69c0,0,44,-49,64,-119c0,0,19,-71,19,-174V0Z" 
id="f1_2"
transform="scale(0.001,-0.001)" />

<path d="M139,0V836H278V0Z" 
id="f1_6"
transform="scale(0.001,-0.001)" />

<path d="M138,-7c0,0,-34,0,-72,10V129c0,0,25,-8,52,-8c0,0,33,0,58,5c0,0,26,5,58,24c0,0,33,20,53,54c0,0,21,34,36,97c0,0,15,64,15,151c0,0,0,113,-19,173c0,0,-19,60,-56,82c0,0,-38,22,-107,22H89V836h72c0,0,165,0,240,-91c0,0,76,-91,76,-293c0,0,0,-107,26,-227c0,0,25,-119,83,-225H437c0,0,-43,101,-62,184c0,0,-24,-60,-51,-99c0,0,-26,-38,-56,-58C268,27,239,7,209,0c0,0,-30,-7,-71,-7Z" 
id="f1_s"
transform="scale(0.001,-0.001)" />

<path d="M585,0V426c0,0,0,54,-8,98c0,0,-8,44,-27,83c0,0,-19,40,-49,66c0,0,-30,26,-77,41c0,0,-47,15,-108,15H66V836H315c0,0,94,0,166,-20c0,0,71,-20,116,-54c0,0,46,-35,75,-88c0,0,28,-52,40,-112c0,0,12,-60,12,-137V0Z" 
id="f1_4"
transform="scale(0.001,-0.001)" />

<path d="M112,-5c0,0,-39,0,-97,11V113c0,0,48,-10,77,-10c0,0,53,0,70,42c0,0,17,43,17,164V729H50V836H501c0,0,107,0,179,-25c0,0,72,-25,112,-77c0,0,40,-51,57,-118c0,0,16,-67,16,-164V0H726V454c0,0,0,55,-3,92c0,0,-4,37,-17,75c0,0,-14,38,-38,59c0,0,-24,22,-65,36c0,0,-42,13,-102,13H318V309c0,0,0,-160,-46,-237C272,72,226,-5,112,-5Z" 
id="f1_i"
transform="scale(0.001,-0.001)" />

<path d="M554,-296c0,0,-9,0,-11,6c0,0,-2,6,-2,24V548c0,0,0,38,-5,56c0,0,-4,18,-15,25c0,0,-12,7,-41,7H90c0,0,-33,0,-52,33c0,0,-19,33,-19,90c0,0,0,54,15,97c0,0,14,43,30,43c0,0,17,0,17,-13V872c0,0,0,-9,7,-18c0,0,7,-9,27,-9H512c0,0,54,0,77,-8c0,0,23,-9,33,-28c0,0,9,-20,9,-67V-207c0,0,0,-12,-4,-25c0,0,-5,-13,-23,-28l-21,-18c0,0,-20,-18,-29,-18Z" 
id="f2_p"
transform="scale(0.001,-0.001)" />

<path d="M131,353c0,0,-3,0,-6,2c0,0,-3,2,-16,20c0,0,-13,17,-13,28c0,0,0,5,8,9c0,0,45,26,84,67c0,0,38,41,38,85c0,0,0,28,-7,43c0,0,-7,15,-24,21c0,0,-17,6,-61,6H124c0,0,-38,0,-62,34c0,0,-24,35,-24,107c0,0,0,52,16,87c0,0,17,34,38,34c0,0,16,0,16,-12V870c0,0,0,-25,26,-25h63c0,0,29,0,53,-4c0,0,23,-4,39,-23c0,0,17,-19,26,-59c0,0,9,-40,9,-113c0,0,0,-76,-15,-124c0,0,-15,-47,-51,-83c0,0,-35,-36,-74,-61c0,0,-39,-25,-53,-25Z" 
id="f2_a"
transform="scale(0.001,-0.001)" />

<path d="M423,-13c0,0,-9,0,-14,7c0,0,-5,6,-10,23c0,0,-13,51,-37,108c0,0,-25,58,-55,101c0,0,-21,-37,-51,-115C256,111,225,34,216,0H12L55,212h99c0,0,51,0,72,12c0,0,20,12,40,58c0,0,20,46,18,98V543c0,0,0,46,-7,61c0,0,-7,15,-23,22c0,0,-17,8,-50,8H189c0,0,-76,0,-76,115c0,0,0,56,16,103c0,0,16,47,33,47c0,0,14,0,14,-15c0,0,0,-17,9,-28c0,0,10,-11,40,-11h21c0,0,60,0,85,-8c0,0,25,-9,39,-26c0,0,13,-18,13,-49c0,0,0,-20,-4,-43c0,0,-5,-23,-10,-53c0,0,-6,-31,-10,-71c0,0,-5,-41,-5,-97c0,0,0,-150,62,-269c0,0,28,-58,38,-90l9,-65c0,0,0,-27,-13,-57c0,0,-13,-30,-27,-30Z" 
id="f2_m"
transform="scale(0.001,-0.001)" />

<path d="M216,0c0,0,-59,212,-83,350c0,0,-25,139,-25,198c0,0,0,76,23,127c0,0,-42,13,-58,43c0,0,-15,30,-15,72c0,0,0,40,20,74c0,0,20,34,37,34c0,0,10,0,10,-13c0,0,0,-42,69,-42c0,0,57,0,80,-21c0,0,22,-21,22,-62c0,0,0,-38,-7,-72c0,0,-6,-34,-12,-34c0,0,-6,0,-16,10c0,0,-10,10,-25,10c0,0,-25,0,-35,-24c0,0,-10,-24,-10,-71c0,0,0,-164,72,-374c0,0,38,80,116,231c0,0,87,168,121,238c0,0,-36,6,-52,34c0,0,-17,28,-17,66c0,0,0,41,21,82c0,0,20,42,37,42c0,0,9,0,10,-7c0,0,5,-22,13,-32c0,0,9,-11,32,-12l44,-4c0,0,87,-4,87,-94c0,0,0,-33,-7,-67c0,0,-8,-34,-16,-34l-16,10c0,0,-15,10,-30,10c0,0,-22,0,-39,-29c0,0,-18,-32,-39,-72c0,0,-21,-41,-178,-355H691l38,91c0,0,58,139,124,224c0,0,38,50,60,80c0,0,22,29,22,45c0,0,0,12,-7,19c0,0,-6,7,-27,12c0,0,-42,18,-60,41c0,0,-17,24,-17,59c0,0,0,29,11,56c0,0,12,27,27,43c0,0,16,16,26,16c0,0,9,-1,10,-6l4,-14c0,0,4,-21,27,-25l70,-13c0,0,32,-6,51,-30c0,0,20,-24,20,-61c0,0,-2,-45,-23,-87c0,0,-21,-41,-91,-127c0,0,-46,-57,-77,-116c0,0,-31,-59,-71,-161L706,0Z" 
id="f2_3"
transform="scale(0.001,-0.001)" />

<path d="M107,-18c0,0,-17,0,-17,18l3,9c0,0,23,48,23,124l-1,177c0,0,0,55,8,77c0,0,9,22,33,46c0,0,23,23,51,40c0,0,28,17,42,17c0,0,5,0,9,-3c0,0,5,-3,5,-8c0,0,0,-3,-11,-26c0,0,-14,-49,-14,-120l4,-223c0,0,0,-38,-9,-54c0,0,-8,-17,-32,-34C201,22,178,6,150,-5c0,0,-28,-13,-43,-13Zm547,0c0,0,-17,0,-17,18l2,10c0,0,10,38,10,109c0,0,0,79,-14,208c0,0,-15,128,-15,149c0,0,0,54,16,89c0,0,15,36,53,69H154c0,0,-35,0,-57,40c0,0,-21,40,-21,103c0,0,0,33,8,61c0,0,7,28,19,44c0,0,13,17,24,17c0,0,15,0,15,-13V869c0,0,0,-13,5,-19c0,0,5,-5,22,-5H718c0,0,50,0,50,-63V652c0,0,0,-21,-15,-30c0,0,-35,-24,-35,-77c0,0,0,-57,20,-169c0,0,27,-157,27,-272c0,0,0,-29,-6,-44c0,0,-6,-15,-17,-26c0,0,-12,-16,-47,-35L681,-9l-13,-6l-14,-3Z" 
id="f2_6"
transform="scale(0.001,-0.001)" />

<path d="M721,-14c0,0,-12,0,-12,9l4,28c0,0,17,82,17,338c0,0,0,105,-11,163c0,0,-11,58,-35,84c0,0,-25,26,-83,26H315c0,0,-43,-39,-67,-90c0,0,-25,-51,-25,-104c0,0,0,-59,17,-104c0,0,17,-45,35,-78c0,0,18,-34,18,-44c0,0,0,-26,-20,-95C273,119,252,50,231,0H26L87,214h69c0,0,23,0,23,14l-7,15c0,0,-15,27,-27,68c0,0,-11,41,-11,83c0,0,0,68,25,124c0,0,25,57,86,116H200c0,0,-45,0,-71,32c0,0,-27,33,-27,94c0,0,0,49,17,93c0,0,16,43,32,43c0,0,17,0,17,-10V869c0,0,0,-24,27,-24H637c0,0,73,0,103,-18c0,0,30,-17,46,-62c0,0,17,-46,24,-124c0,0,8,-78,8,-214V338c0,0,0,-279,-27,-311c0,0,-14,-16,-37,-28c0,0,-23,-13,-33,-13Z" 
id="f2_9"
transform="scale(0.001,-0.001)" />

<path d="M787,-20c0,0,-16,0,-25,16c0,0,-7,18,-31,51c0,0,-23,32,-53,62L293,522c0,0,-42,-34,-60,-62c0,0,-17,-28,-17,-68c0,0,0,-38,20,-77c0,0,21,-38,68,-90c0,0,48,-52,68,-88c0,0,20,-36,20,-68c0,0,0,-38,-22,-69H70V63h80c0,0,31,0,31,35c0,0,0,18,-14,41c0,0,-14,24,-31,53c0,0,-17,30,-30,68c0,0,-14,38,-14,87c0,0,0,59,33,109c0,0,34,50,103,98l21,16l-96,96c0,0,-24,24,-36,42c0,0,-12,19,-12,41c0,0,0,26,21,61c0,0,22,36,53,65c0,0,31,29,46,29c0,0,13,0,24,-15c0,0,21,-34,56,-78c0,0,34,-44,65,-77L570,517c0,0,72,100,180,158c0,0,-38,0,-60,33c0,0,-21,33,-21,95c0,0,0,38,18,66c0,0,19,29,40,29c0,0,5,0,6,-4c0,0,0,-4,0,-17c0,0,0,-34,46,-34l69,2c0,0,40,0,63,-26c0,0,22,-25,22,-67c0,0,0,-27,-5,-60c0,0,-6,-34,-14,-45c0,0,-15,15,-24,20c0,0,-9,5,-19,5c0,0,-35,0,-118,-65c0,0,-82,-64,-122,-158L833,259c0,0,49,-47,63,-71c0,0,13,-24,13,-50c0,0,0,-21,-24,-62C885,76,860,35,832,7c0,0,-29,-27,-45,-27Z" 
id="f2_h"
transform="scale(0.001,-0.001)" />

<path d="M134,-289c0,0,-15,0,-15,21V460c0,0,0,15,6,21c0,0,5,6,25,19c0,0,39,26,48,26c0,0,6,0,8,-2c0,0,2,-2,2,-9V-221c0,0,0,-17,-7,-25c0,0,-6,-9,-23,-22c0,0,-25,-21,-44,-21ZM351,-20c0,0,-32,0,-52,20c0,0,-19,19,-19,49c0,0,0,67,41,124c0,0,42,56,164,135c0,0,43,28,80,59c0,0,39,21,59,59c0,0,21,37,21,84c0,0,0,22,-6,54c0,0,-6,32,-14,46c0,0,-9,14,-29,19c0,0,-19,5,-70,5H178c0,0,-94,0,-94,125c0,0,0,50,16,94c0,0,16,45,31,45c0,0,17,0,17,-14V870c0,0,0,-25,34,-25H624c0,0,73,0,93,-58c0,0,25,-91,25,-194c0,0,0,-86,-6,-129c0,0,-7,-43,-29,-76c0,0,-21,-35,-85,-79c0,0,-49,-34,-111,-79c0,0,-63,-44,-81,-70c0,0,-19,-26,-19,-59c0,0,0,-11,5,-26c0,0,5,-15,5,-26c0,0,0,-33,-19,-51c0,0,-20,-18,-51,-18Z" 
id="f2_g"
transform="scale(0.001,-0.001)" />

<path d="M204,-8c0,0,-9,0,-11,5c0,0,-2,5,-2,22V549c0,0,0,40,-4,56c0,0,-4,16,-15,22c0,0,-10,7,-39,7H90c0,0,-33,0,-52,33c0,0,-19,33,-19,90c0,0,0,53,15,98c0,0,16,44,35,44c0,0,12,0,12,-13V872c0,0,0,-27,31,-27h42c0,0,79,0,103,-20c0,0,23,-19,23,-83V67c0,0,0,-16,-8,-26c0,0,-9,-10,-33,-30c0,0,-25,-19,-35,-19Z" 
id="f2_4"
transform="scale(0.001,-0.001)" />

<path d="M469,-18c0,0,-14,0,-14,15l2,7c0,0,20,43,20,158l-3,156l-2,119c0,0,0,65,19,109c0,0,19,44,60,88H110c0,0,-47,0,-69,34c0,0,-22,35,-22,109c0,0,0,50,16,85c0,0,16,36,35,36c0,0,14,0,14,-12L83,869c0,0,0,-13,7,-19c0,0,6,-5,23,-5H608c0,0,25,0,40,-14c0,0,15,-15,15,-38V686c0,0,0,-26,-4,-35c0,0,-3,-9,-11,-11c0,0,-42,-9,-56,-40c0,0,-15,-30,-15,-93c0,0,0,-56,12,-184c0,0,10,-129,10,-224c0,0,0,-24,-6,-37c0,0,-7,-13,-17,-25c0,0,-7,-6,-18,-12c0,0,-11,-7,-23,-13C535,12,523,5,512,0c0,0,-10,-5,-15,-8c0,0,-22,-10,-28,-10Z" 
id="f2_o"
transform="scale(0.001,-0.001)" />

<path d="M20,0L75,212H492c0,0,19,51,25,97c0,0,5,46,5,105c0,0,0,63,-6,124c0,0,-6,61,-23,78c0,0,-16,18,-66,18H112c0,0,-36,0,-57,40c0,0,-21,40,-21,101c0,0,0,50,16,87c0,0,16,36,36,36c0,0,13,0,13,-14V870c0,0,0,-25,34,-25H457c0,0,63,0,92,-11c0,0,28,-10,41,-36c0,0,13,-26,18,-107c0,0,4,-80,4,-174c0,0,0,-174,-13,-224c0,0,-4,-15,-21,-41c0,0,-17,-25,-31,-40H688L640,0Z" 
id="f2_c"
transform="scale(0.001,-0.001)" />

<path d="M248,0L521,658H66v429H313V836l493,-1V716L504,0Z" 
id="f3_e"
transform="scale(0.001,-0.001)" />

<path d="M102,250V836H349V351L102,250Z" 
id="f3_a"
transform="scale(0.001,-0.001)" />

<path d="M154,-13c0,0,-38,0,-85,9V198c0,0,58,-15,103,-15c0,0,84,0,118,60c0,0,35,61,35,206c0,0,0,66,-7,105c0,0,-6,39,-24,63c0,0,-17,25,-44,33c0,0,-27,8,-73,8H66V836H225c0,0,198,0,275,-115c0,0,56,-84,65,-264c0,0,3,-55,3,-148c0,0,0,-177,71,-309L393,1c0,0,-53,130,-54,141c0,0,-28,-90,-65,-123c0,0,-38,-32,-120,-32Z" 
id="f3_n"
transform="scale(0.001,-0.001)" />

<path d="M534,0V425c0,0,0,109,-41,171c0,0,-41,62,-140,62H66V836H352c0,0,99,0,174,-20c0,0,75,-20,123,-55c0,0,48,-35,78,-87c0,0,30,-53,42,-113c0,0,12,-60,12,-136V0Z" 
id="f3_4"
transform="scale(0.001,-0.001)" />

<path d="M173,-6C173,-6,61,-6,15,9V177c0,0,73,-10,82,-10c0,0,37,0,52,30c0,0,14,29,14,116V658H18V836H516c0,0,262,0,341,-145c0,0,48,-89,48,-242V0H658V450c0,0,0,131,-37,171c0,0,-34,37,-105,37H411V313c0,0,0,-189,-67,-258C344,55,285,-6,173,-6Z" 
id="f3_k"
transform="scale(0.001,-0.001)" />

<path d="M562,411V877L247,411ZM562,0V202H68V449l447,665H834V411H993V202H834V0Z" 
id="f3_z"
transform="scale(0.001,-0.001)" />

<path d="M163,0V190H321V0Z" 
id="f1_k"
transform="scale(0.001,-0.001)" />

<path d="M102,312V836H241V369L102,312Z" 
id="f1_3"
transform="scale(0.001,-0.001)" />

<path d="M139,0V138c0,0,0,61,8,112c0,0,7,52,19,87c0,0,11,36,30,66c0,0,19,31,35,49c0,0,17,19,41,35c0,0,25,17,41,25c0,0,17,7,40,17L141,836H303L613,388c0,0,20,10,33,18c0,0,13,8,34,28c0,0,20,20,33,44c0,0,13,25,22,66c0,0,10,41,10,92V836H882V698c0,0,0,-61,-7,-112c0,0,-6,-52,-18,-88c0,0,-12,-36,-30,-66c0,0,-19,-30,-36,-49c0,0,-17,-18,-41,-34c0,0,-24,-17,-40,-25c0,0,-17,-8,-41,-17L882,0H720L409,448c0,0,-21,-11,-34,-19c0,0,-13,-8,-34,-27c0,0,-21,-20,-34,-44c0,0,-12,-25,-22,-66c0,0,-9,-41,-9,-92V0Z" 
id="f1_j"
transform="scale(0.001,-0.001)" />

<path d="M66,0V107H554V452c0,0,0,56,-4,93c0,0,-4,37,-18,75c0,0,-14,38,-40,60c0,0,-26,22,-71,36c0,0,-45,13,-110,13H66V836H312c0,0,91,0,157,-17c0,0,66,-17,109,-49c0,0,44,-32,69,-84c0,0,26,-52,36,-114c0,0,10,-62,10,-147V107H817V0Z" 
id="f1_o"
transform="scale(0.001,-0.001)" />

<path d="M154,0V454l138,56V0ZM722,0V454c0,0,0,161,-49,218c0,0,-48,57,-186,57H139V836H485c0,0,207,0,291,-93c0,0,83,-94,83,-318V0Z" 
id="f1_e"
transform="scale(0.001,-0.001)" />

<path d="M522,-20c0,0,-196,0,-290,99c0,0,-94,100,-94,324V836H276V397c0,0,0,-86,16,-147c0,0,17,-60,50,-94c0,0,34,-34,77,-49c0,0,43,-15,103,-15c0,0,59,0,102,15c0,0,44,15,77,49c0,0,33,34,50,94c0,0,17,61,17,147c0,0,0,84,-8,143c0,0,-7,58,-25,105c0,0,-17,47,-51,69c0,0,-33,23,-83,23c0,0,-50,0,-119,-22V821c0,0,85,23,150,23c0,0,76,0,130,-30c0,0,53,-31,85,-90c0,0,31,-59,45,-138c0,0,13,-78,13,-183c0,0,0,-224,-93,-324c0,0,-94,-99,-290,-99Z" 
id="f1_l"
transform="scale(0.001,-0.001)" />

<path d="M139,0V106H400c0,0,176,0,253,71c0,0,78,72,78,250c0,0,0,163,-80,233c0,0,-81,69,-250,69H278L277,564c0,0,-1,-54,26,-80c0,0,27,-25,82,-25c0,0,30,0,80,9V355c0,0,-61,-12,-111,-12c0,0,-100,0,-157,55c0,0,-58,55,-58,186V836H456c0,0,193,0,303,-109c0,0,110,-109,110,-309c0,0,0,-200,-110,-309C759,109,648,0,456,0Z" 
id="f1_f"
transform="scale(0.001,-0.001)" />

<path d="M180,0L66,836H203L258,443c0,0,36,1,64,6c0,0,28,6,49,18c0,0,20,12,35,26c0,0,15,13,26,36c0,0,11,24,17,44c0,0,7,20,12,55c0,0,6,34,9,60c0,0,3,26,8,71c0,0,4,45,9,77H610c0,0,-13,-194,-31,-271c0,0,-31,-127,-111,-179c0,0,-71,-45,-196,-50L304,107c0,0,73,0,130,5c0,0,56,6,111,21c0,0,54,15,94,40c0,0,40,25,77,64c0,0,37,39,63,94c0,0,25,54,46,128c0,0,21,73,34,166c0,0,13,94,20,211h138c0,0,-14,-124,-29,-218c0,0,-16,-94,-39,-179c0,0,-22,-85,-50,-146c0,0,-28,-61,-68,-112c0,0,-39,-51,-87,-84C744,97,696,65,632,42C632,42,568,19,492,10C492,10,417,0,320,0Z" 
id="f1_c"
transform="scale(0.001,-0.001)" />

<path d="M114,0l60,312c0,0,2,12,8,39c0,0,6,27,7,37c0,0,2,11,5,30c0,0,2,19,4,33c0,0,1,15,1,31c0,0,0,48,-35,146c0,0,-35,98,-98,208H228c0,0,3,-8,27,-67c0,0,25,-58,41,-117c0,0,21,53,50,90c0,0,29,37,57,57c0,0,29,21,65,32c0,0,37,11,65,14c0,0,28,3,67,3c0,0,300,0,300,-396V0H480V106H761V452c0,0,0,146,-46,215c0,0,-45,70,-118,70c0,0,-134,0,-198,-119c0,0,-36,-68,-67,-222c0,0,-2,-10,-6,-27L253,0Z" 
id="f1_b"
transform="scale(0.001,-0.001)" />

<path d="M74,357V479H476V357Z" 
id="f1_13"
transform="scale(0.001,-0.001)" />

<path d="M287,0L589,729H66v386H205V836l547,-1l-2,-82L433,0Z" 
id="f1_a"
transform="scale(0.001,-0.001)" />

<path d="M66,0V107H332V555c0,0,0,92,-37,133c0,0,-37,41,-116,41H85V836h94c0,0,153,0,223,-66c0,0,69,-66,69,-231V0Z" 
id="f1_n"
transform="scale(0.001,-0.001)" />

<path d="M495,0V729H66V836H781V729H634V0Z" 
id="f1_g"
transform="scale(0.001,-0.001)" />

<path d="M71,-141V-15L289,62L66,836H210L416,109c0,0,99,42,153,98c0,0,53,56,80,155c0,0,26,98,26,262V836H817V624c0,0,0,-88,-7,-154c0,0,-7,-67,-25,-132c0,0,-18,-66,-51,-116c0,0,-33,-51,-84,-98c0,0,-50,-48,-123,-87c0,0,-72,-39,-169,-74L71,-141Z" 
id="f1_m"
transform="scale(0.001,-0.001)" />

<path d="M66,0V106H564L66,836H228L516,413c0,0,3,2,9,6c0,0,17,13,27,21c0,0,10,8,26,27c0,0,17,20,26,40c0,0,9,21,16,54c0,0,7,34,7,75V836H764V698c0,0,0,-55,-7,-102c0,0,-7,-47,-16,-79c0,0,-10,-33,-27,-62c0,0,-18,-29,-32,-46c0,0,-14,-17,-37,-35c0,0,-22,-17,-36,-25c0,0,-13,-8,-36,-20L767,53V0Z" 
id="f1_h"
transform="scale(0.001,-0.001)" />

<path d="M117,-176L179,62V190H336V62L213,-176Z" 
id="f1_9"
transform="scale(0.001,-0.001)" />

<path d="M179,0V190H336V0Zm0,600V790H336V600Z" 
id="f1_w"
transform="scale(0.001,-0.001)" />

<path d="M156,-317V454l139,56V-317ZM505,0L806,729H139V835H967V753L650,0Z" 
id="f1_r"
transform="scale(0.001,-0.001)" />

<path d="M66,0V106H322c0,0,75,0,127,23c0,0,53,23,82,67c0,0,29,43,42,98c0,0,13,54,13,124c0,0,0,70,-13,124c0,0,-13,55,-42,98c0,0,-29,44,-82,67c0,0,-52,23,-127,23H66V836H322c0,0,87,0,157,-24c0,0,70,-24,115,-64c0,0,45,-40,74,-94c0,0,30,-55,43,-113c0,0,13,-59,13,-123c0,0,0,-64,-13,-123c0,0,-13,-58,-43,-113c0,0,-29,-54,-74,-94C594,88,549,48,479,24C479,24,409,0,322,0Z" 
id="f1_5"
transform="scale(0.001,-0.001)" />

<path d="M522,92c0,0,247,0,247,333c0,0,0,88,-17,146c0,0,-17,58,-53,91c0,0,-35,33,-82,46c0,0,-48,14,-116,14H276V419c0,0,0,-327,246,-327Zm0,-112c0,0,-193,0,-289,109c0,0,-95,110,-95,337V836H501c0,0,213,0,309,-93c0,0,96,-94,96,-317c0,0,0,-227,-95,-337C811,89,715,-20,522,-20Z" 
id="f1_t"
transform="scale(0.001,-0.001)" />

<path d="M122,-200c0,0,99,170,148,338c0,0,49,169,49,342c0,0,0,172,-49,340c0,0,-49,168,-148,340H241c0,0,112,-176,168,-345c0,0,55,-169,55,-335c0,0,0,-167,-55,-337c0,0,-56,-168,-168,-343Z" 
id="f1_11"
transform="scale(0.001,-0.001)" />

<path d="M354,-200c0,0,-112,175,-167,343c0,0,-56,170,-56,337c0,0,0,166,55,335c0,0,55,169,168,345H473c0,0,-100,-172,-148,-340c0,0,-48,-168,-48,-340c0,0,0,-173,48,-342c0,0,49,-168,148,-338Z" 
id="f1_12"
transform="scale(0.001,-0.001)" />

<path d="M139,0V836H485c0,0,206,0,290,-90c0,0,84,-89,84,-294V0H721V473c0,0,0,147,-49,202c0,0,-48,54,-186,54H277V0Z" 
id="f1_u"
transform="scale(0.001,-0.001)" />

<path d="M44,0V40L172,60V941L44,960v40H471V960L316,941V65H513c0,0,159,0,234,14l46,208h48L828,0Z" 
id="f0_r"
transform="scale(0.001,-0.001)" />

<path d="M442,0V33l93,19V504c0,0,0,129,-124,129c0,0,-70,0,-168,-22V52L338,33V0H31V33l88,19v956L15,1026v34H243V756c0,0,0,-77,-5,-112c0,0,54,31,122,53c0,0,68,23,115,23c0,0,91,0,137,-53c0,0,47,-53,47,-154V52L744,33V0Z" 
id="f0_n"
transform="scale(0.001,-0.001)" />

<path d="M383,64c0,0,44,0,87,7c0,0,43,7,65,17V645c0,0,-67,13,-152,13c0,0,-194,0,-194,-309c0,0,0,-143,48,-214c0,0,47,-71,146,-71Zm56,-389v35l96,18V-77c0,0,0,73,7,124c0,0,-79,-61,-200,-61c0,0,-287,0,-287,362c0,0,0,180,81,276c0,0,81,96,237,96c0,0,84,0,166,-18l67,33h53V-272l77,-18v-35Z" 
id="f0_17"
transform="scale(0.001,-0.001)" />

<path d="M578,388V982L197,388ZM578,0V263H74V408l464,706H727V388H887V263H727V0Z" 
id="f1_1e"
transform="scale(0.001,-0.001)" />

<path d="M543,-317V369c0,0,0,85,-8,143c0,0,-8,58,-27,101c0,0,-18,44,-51,69c0,0,-33,24,-80,36c0,0,-48,11,-117,11H66V836H257c0,0,125,0,205,-23c0,0,80,-23,130,-79c0,0,50,-56,70,-143c0,0,20,-86,20,-222V-317Z" 
id="f1_p"
transform="scale(0.001,-0.001)" />

<path d="M467,496c0,0,102,0,161,69c0,0,59,70,59,190c0,0,0,120,-59,190c0,0,-59,70,-161,70c0,0,-101,0,-160,-70c0,0,-60,-70,-60,-190c0,0,0,-120,60,-190c0,0,59,-69,160,-69ZM403,-20c0,0,-57,0,-115,11c0,0,-58,10,-121,32V160c0,0,57,-26,115,-40c0,0,58,-14,115,-14c0,0,149,0,228,100c0,0,79,100,90,305c0,0,-44,-65,-110,-99c0,0,-66,-35,-147,-35c0,0,-167,0,-265,102c0,0,-97,101,-97,276c0,0,0,172,101,275c0,0,102,104,270,104c0,0,194,0,295,-148c0,0,102,-148,102,-430c0,0,0,-263,-125,-420C739,136,614,-20,403,-20Z" 
id="f1_1m"
transform="scale(0.001,-0.001)" />


</defs>
</svg>