<?xml version="1.0" encoding="UTF-8" standalone="no"?>
<!DOCTYPE svg PUBLIC "-//W3C//DTD SVG 1.1//EN"
"http://www.w3.org/Graphics/SVG/1.1/DTD/svg11.dtd">
<svg viewBox="0 0 909 1286" version="1.1" xmlns="http://www.w3.org/2000/svg" xmlns:xlink="http://www.w3.org/1999/xlink">
<defs>
<clipPath id="c0_9"><path d="M0,1286.2V0H909.4V1286.2Z" /></clipPath>
<clipPath id="c1_9"><path d="M642.4,482.7V461.4h.3v21.3Z" /></clipPath>
<style type="text/css"><![CDATA[
.g0_9{
fill: none;
stroke: #000000;
stroke-width: 0.7638889;
stroke-linecap: butt;
stroke-linejoin: round;
}
.g1_9{
fill: none;
stroke: #0000FF;
stroke-width: 1.0694444;
stroke-linecap: butt;
stroke-linejoin: miter;
}
]]></style>
</defs>
<path d="M128.6,110.4H670M128.6,132.5H670M128.6,154.7H670M128.6,176.8H670M128.6,199H670M128.6,221.1H670M128.6,243.3H670M128.6,265.5H670M128.6,287.6H670M128.6,309.8H670M128.6,331.9H670M128.6,354.1H670M128.6,376.2H670M128.6,398.4H670M128.6,420.5H670M128.6,442.7H670M128.9,110V443.1M399.2,110V443.1M669.6,110V443.1" class="g0_9" />
<g clip-path="url(#c0_9)">
<g fill="#000000" >
<use xlink:href="#f0_o" transform="matrix(12,0,0,12,540.7,127.9)" />
<use xlink:href="#f0_9" transform="matrix(12,0,0,12,546.5,127.9)" />
<use xlink:href="#f0_4" transform="matrix(12,0,0,12,557,127.9)" />
<use xlink:href="#f0_b" transform="matrix(12,0,0,12,561.1,127.9)" />
<use xlink:href="#f0_6" transform="matrix(12,0,0,12,571.1,127.9)" />
<use xlink:href="#f0_r" transform="matrix(12,0,0,12,584.4,127.9)" />
<use xlink:href="#f0_4" transform="matrix(12,0,0,12,596.4,127.9)" />
<use xlink:href="#f0_9" transform="matrix(12,0,0,12,600.5,127.9)" />
<use xlink:href="#f0_e" transform="matrix(12,0,0,12,611,127.9)" />
<use xlink:href="#f0_f" transform="matrix(12,0,0,12,628.9,127.9)" />
<use xlink:href="#f0_m" transform="matrix(12,0,0,12,639.3,127.9)" />
<use xlink:href="#f0_9" transform="matrix(12,0,0,12,650.8,127.9)" />
<use xlink:href="#f0_o" transform="matrix(12,0,0,12,549.8,150)" />
<use xlink:href="#f0_8" transform="matrix(12,0,0,12,555.7,150)" />
<use xlink:href="#f0_4" transform="matrix(12,0,0,12,567.7,150)" />
<use xlink:href="#f0_j" transform="matrix(12,0,0,12,571.8,150)" />
<use xlink:href="#f0_4" transform="matrix(12,0,0,12,583.3,150)" />
<use xlink:href="#f0_4" transform="matrix(12,0,0,12,587.4,150)" />
<use xlink:href="#f0_m" transform="matrix(12,0,0,12,591.5,150)" />
<use xlink:href="#f0_8" transform="matrix(12,0,0,12,608.9,150)" />
<use xlink:href="#f0_4" transform="matrix(12,0,0,12,621.1,150)" />
<use xlink:href="#f0_c" transform="matrix(12,0,0,12,625.2,150)" />
<use xlink:href="#f0_q" transform="matrix(12,0,0,12,637.1,150)" />
<use xlink:href="#f0_e" transform="matrix(12,0,0,12,649.3,150)" />
<use xlink:href="#f0_o" transform="matrix(12,0,0,12,525.6,172.2)" />
<use xlink:href="#f0_d" transform="matrix(12,0,0,12,531.4,172.2)" />
<use xlink:href="#f0_q" transform="matrix(12,0,0,12,536.4,172.2)" />
<use xlink:href="#f0_5" transform="matrix(12,0,0,12,548.6,172.2)" />
<use xlink:href="#f0_q" transform="matrix(12,0,0,12,564.2,172.2)" />
<use xlink:href="#f0_a" transform="matrix(12,0,0,12,576.4,172.2)" />
<use xlink:href="#f0_e" transform="matrix(12,0,0,12,581.4,172.2)" />
<use xlink:href="#f0_d" transform="matrix(12,0,0,12,599.2,172.2)" />
<use xlink:href="#f0_a" transform="matrix(12,0,0,12,604.2,172.2)" />
<use xlink:href="#f0_q" transform="matrix(12,0,0,12,609.2,172.2)" />
<use xlink:href="#f0_4" transform="matrix(12,0,0,12,621.4,172.2)" />
<use xlink:href="#f0_h" transform="matrix(12,0,0,12,625.5,172.2)" />
<use xlink:href="#f0_a" transform="matrix(12,0,0,12,631.8,172.2)" />
<use xlink:href="#f0_g" transform="matrix(12,0,0,12,636.8,172.2)" />
<use xlink:href="#f0_e" transform="matrix(12,0,0,12,649.3,172.2)" />
<use xlink:href="#f0_o" transform="matrix(12,0,0,12,534,194.3)" />
<use xlink:href="#f0_e" transform="matrix(12,0,0,12,539.8,194.3)" />
<use xlink:href="#f0_f" transform="matrix(12,0,0,12,551.7,194.3)" />
<use xlink:href="#f0_a" transform="matrix(12,0,0,12,562.1,194.3)" />
<use xlink:href="#f0_h" transform="matrix(12,0,0,12,567.1,194.3)" />
<use xlink:href="#f0_q" transform="matrix(12,0,0,12,579.3,194.3)" />
<use xlink:href="#f0_4" transform="matrix(12,0,0,12,591.5,194.3)" />
<use xlink:href="#f0_e" transform="matrix(12,0,0,12,595.6,194.3)" />
<use xlink:href="#f0_e" transform="matrix(12,0,0,12,613.5,194.3)" />
<use xlink:href="#f0_j" transform="matrix(12,0,0,12,625.4,194.3)" />
<use xlink:href="#f0_g" transform="matrix(12,0,0,12,636.9,194.3)" />
<use xlink:href="#f0_e" transform="matrix(12,0,0,12,649.4,194.3)" />
<use xlink:href="#f0_o" transform="matrix(12,0,0,12,425.9,216.5)" />
<use xlink:href="#f0_3" transform="matrix(12,0,0,12,431.8,216.5)" />
<use xlink:href="#f0_a" transform="matrix(12,0,0,12,442.1,216.5)" />
<use xlink:href="#f0_b" transform="matrix(12,0,0,12,447.2,216.5)" />
<use xlink:href="#f0_a" transform="matrix(12,0,0,12,457.1,216.5)" />
<use xlink:href="#f0_a" transform="matrix(12,0,0,12,462.1,216.5)" />
<use xlink:href="#f0_i" transform="matrix(12,0,0,12,467.1,216.5)" />
<use xlink:href="#f0_q" transform="matrix(12,0,0,12,480.1,216.5)" />
<use xlink:href="#f0_9" transform="matrix(12,0,0,12,492.3,216.5)" />
<use xlink:href="#f0_e" transform="matrix(12,0,0,12,508.8,216.5)" />
<use xlink:href="#f0_3" transform="matrix(12,0,0,12,520.7,216.5)" />
<use xlink:href="#f0_b" transform="matrix(12,0,0,12,531.1,216.5)" />
<use xlink:href="#f0_6" transform="matrix(12,0,0,12,541.2,216.5)" />
<use xlink:href="#f0_c" transform="matrix(12,0,0,12,548.5,216.5)" />
<use xlink:href="#f0_f" transform="matrix(12,0,0,12,560.4,216.5)" />
<use xlink:href="#f0_q" transform="matrix(12,0,0,12,570.8,216.5)" />
<use xlink:href="#f0_a" transform="matrix(12,0,0,12,583.1,216.5)" />
<use xlink:href="#f0_a" transform="matrix(12,0,0,12,593.9,216.5)" />
<use xlink:href="#f0_3" transform="matrix(12,0,0,12,598.9,216.5)" />
<use xlink:href="#f0_b" transform="matrix(12,0,0,12,609.3,216.5)" />
<use xlink:href="#f0_6" transform="matrix(12,0,0,12,619.4,216.5)" />
<use xlink:href="#f0_c" transform="matrix(12,0,0,12,626.7,216.5)" />
<use xlink:href="#f0_f" transform="matrix(12,0,0,12,638.6,216.5)" />
<use xlink:href="#f0_q" transform="matrix(12,0,0,12,649,216.5)" />
<use xlink:href="#f0_o" transform="matrix(12,0,0,12,569.1,238.6)" />
<use xlink:href="#f0_8" transform="matrix(12,0,0,12,574.9,238.6)" />
<use xlink:href="#f0_4" transform="matrix(12,0,0,12,587.1,238.6)" />
<use xlink:href="#f0_3" transform="matrix(12,0,0,12,591.2,238.6)" />
<use xlink:href="#f0_a" transform="matrix(12,0,0,12,601.5,238.6)" />
<use xlink:href="#f0_g" transform="matrix(12,0,0,12,606.5,238.6)" />
<use xlink:href="#f0_8" transform="matrix(12,0,0,12,624.8,238.6)" />
<use xlink:href="#f0_r" transform="matrix(12,0,0,12,637,238.6)" />
<use xlink:href="#f0_q" transform="matrix(12,0,0,12,649,238.6)" />
<use xlink:href="#f0_o" transform="matrix(12,0,0,12,590.9,260.8)" />
<use xlink:href="#f0_9" transform="matrix(12,0,0,12,596.8,260.8)" />
<use xlink:href="#f0_a" transform="matrix(12,0,0,12,607.3,260.8)" />
<use xlink:href="#f0_n" transform="matrix(12,0,0,12,612.3,260.8)" />
<use xlink:href="#f0_c" transform="matrix(12,0,0,12,625.3,260.8)" />
<use xlink:href="#f0_e" transform="matrix(12,0,0,12,643,260.8)" />
<use xlink:href="#f0_h" transform="matrix(12,0,0,12,654.9,260.8)" />
<use xlink:href="#f0_o" transform="matrix(12,0,0,12,550.3,282.9)" />
<use xlink:href="#f0_f" transform="matrix(12,0,0,12,556.1,282.9)" />
<use xlink:href="#f0_q" transform="matrix(12,0,0,12,566.5,282.9)" />
<use xlink:href="#f0_3" transform="matrix(12,0,0,12,578.7,282.9)" />
<use xlink:href="#f0_n" transform="matrix(12,0,0,12,589.1,282.9)" />
<use xlink:href="#f0_4" transform="matrix(12,0,0,12,602.1,282.9)" />
<use xlink:href="#f0_9" transform="matrix(12,0,0,12,606.2,282.9)" />
<use xlink:href="#f0_r" transform="matrix(12,0,0,12,622.7,282.9)" />
<use xlink:href="#f0_4" transform="matrix(12,0,0,12,634.7,282.9)" />
<use xlink:href="#f0_9" transform="matrix(12,0,0,12,638.8,282.9)" />
<use xlink:href="#f0_e" transform="matrix(12,0,0,12,649.4,282.9)" />
<use xlink:href="#f0_o" transform="matrix(12,0,0,12,483.8,305.1)" />
<use xlink:href="#f0_11" transform="matrix(12,0,0,12,489.7,305.1)" />
<use xlink:href="#f0_8" transform="matrix(12,0,0,12,496.7,305.1)" />
<use xlink:href="#f0_4" transform="matrix(12,0,0,12,508.9,305.1)" />
<use xlink:href="#f0_x" transform="matrix(12,0,0,12,513,305.1)" />
<use xlink:href="#f0_j" transform="matrix(12,0,0,12,524.9,305.1)" />
<use xlink:href="#f0_g" transform="matrix(12,0,0,12,536.3,305.1)" />
<use xlink:href="#f0_4" transform="matrix(12,0,0,12,548.7,305.1)" />
<use xlink:href="#f0_l" transform="matrix(12,0,0,12,552.8,305.1)" />
<use xlink:href="#f0_10" transform="matrix(12,0,0,12,564.7,305.1)" />
<use xlink:href="#f0_8" transform="matrix(12,0,0,12,577.7,305.1)" />
<use xlink:href="#f0_4" transform="matrix(12,0,0,12,589.9,305.1)" />
<use xlink:href="#f0_9" transform="matrix(12,0,0,12,594,305.1)" />
<use xlink:href="#f0_4" transform="matrix(12,0,0,12,604.6,305.1)" />
<use xlink:href="#f0_9" transform="matrix(12,0,0,12,608.7,305.1)" />
<use xlink:href="#f0_c" transform="matrix(12,0,0,12,619.2,305.1)" />
<use xlink:href="#f0_8" transform="matrix(12,0,0,12,637.1,305.1)" />
<use xlink:href="#f0_e" transform="matrix(12,0,0,12,649.3,305.1)" />
<use xlink:href="#f0_1x" transform="matrix(12,0,0,12,539.2,327.3)" />
<use xlink:href="#f0_d" transform="matrix(12,0,0,12,548.9,327.3)" />
<use xlink:href="#f0_q" transform="matrix(12,0,0,12,553.9,327.3)" />
<use xlink:href="#f0_5" transform="matrix(12,0,0,12,566.2,327.3)" />
<use xlink:href="#f0_11" transform="matrix(12,0,0,12,581.7,327.3)" />
<use xlink:href="#f0_q" transform="matrix(12,0,0,12,588.9,327.3)" />
<use xlink:href="#f0_p" transform="matrix(12,0,0,12,601.1,327.3)" />
<use xlink:href="#f0_g" transform="matrix(12,0,0,12,612,327.3)" />
<use xlink:href="#f0_6" transform="matrix(12,0,0,12,624.3,327.3)" />
<use xlink:href="#f0_10" transform="matrix(12,0,0,12,631.7,327.3)" />
<use xlink:href="#f0_4" transform="matrix(12,0,0,12,644.7,327.3)" />
<use xlink:href="#f0_g" transform="matrix(12,0,0,12,648.8,327.3)" />
<use xlink:href="#f0_o" transform="matrix(12,0,0,12,449.5,349.4)" />
<use xlink:href="#f0_r" transform="matrix(12,0,0,12,455.3,349.4)" />
<use xlink:href="#f0_a" transform="matrix(12,0,0,12,467.3,349.4)" />
<use xlink:href="#f0_6" transform="matrix(12,0,0,12,472.4,349.4)" />
<use xlink:href="#f0_g" transform="matrix(12,0,0,12,479.7,349.4)" />
<use xlink:href="#f0_n" transform="matrix(12,0,0,12,492.1,349.4)" />
<use xlink:href="#f0_n" transform="matrix(12,0,0,12,511,349.4)" />
<use xlink:href="#f0_a" transform="matrix(12,0,0,12,524,349.4)" />
<use xlink:href="#f0_f" transform="matrix(12,0,0,12,528.9,349.4)" />
<use xlink:href="#f0_n" transform="matrix(12,0,0,12,539.3,349.4)" />
<use xlink:href="#f0_r" transform="matrix(12,0,0,12,558.2,349.4)" />
<use xlink:href="#f0_a" transform="matrix(12,0,0,12,570.1,349.4)" />
<use xlink:href="#f0_q" transform="matrix(12,0,0,12,575.1,349.4)" />
<use xlink:href="#f0_p" transform="matrix(12,0,0,12,587.4,349.4)" />
<use xlink:href="#f0_g" transform="matrix(12,0,0,12,598.2,349.4)" />
<use xlink:href="#f0_6" transform="matrix(12,0,0,12,610.7,349.4)" />
<use xlink:href="#f0_r" transform="matrix(12,0,0,12,624,349.4)" />
<use xlink:href="#f0_4" transform="matrix(12,0,0,12,636.1,349.4)" />
<use xlink:href="#f0_9" transform="matrix(12,0,0,12,640.2,349.4)" />
<use xlink:href="#f0_9" transform="matrix(12,0,0,12,650.7,349.4)" />
<use xlink:href="#f0_o" transform="matrix(12,0,0,12,461.8,371.6)" />
<use xlink:href="#f0_8" transform="matrix(12,0,0,12,467.7,371.6)" />
<use xlink:href="#f0_4" transform="matrix(12,0,0,12,479.9,371.6)" />
<use xlink:href="#f0_b" transform="matrix(12,0,0,12,483.8,371.6)" />
<use xlink:href="#f0_f" transform="matrix(12,0,0,12,493.9,371.6)" />
<use xlink:href="#f0_4" transform="matrix(12,0,0,12,504.3,371.6)" />
<use xlink:href="#f0_e" transform="matrix(12,0,0,12,514.4,371.6)" />
<use xlink:href="#f0_m" transform="matrix(12,0,0,12,526.3,371.6)" />
<use xlink:href="#f0_n" transform="matrix(12,0,0,12,537.7,371.6)" />
<use xlink:href="#f0_r" transform="matrix(12,0,0,12,550.7,371.6)" />
<use xlink:href="#f0_a" transform="matrix(12,0,0,12,562.6,371.6)" />
<use xlink:href="#f0_8" transform="matrix(12,0,0,12,573.5,371.6)" />
<use xlink:href="#f0_4" transform="matrix(12,0,0,12,585.7,371.6)" />
<use xlink:href="#f0_n" transform="matrix(12,0,0,12,589.8,371.6)" />
<use xlink:href="#f0_4" transform="matrix(12,0,0,12,602.8,371.6)" />
<use xlink:href="#f0_g" transform="matrix(12,0,0,12,606.9,371.6)" />
<use xlink:href="#f0_c" transform="matrix(12,0,0,12,619.2,371.6)" />
<use xlink:href="#f0_8" transform="matrix(12,0,0,12,637.1,371.6)" />
<use xlink:href="#f0_e" transform="matrix(12,0,0,12,649.3,371.6)" />
<use xlink:href="#f0_o" transform="matrix(12,0,0,12,480.5,393.7)" />
<use xlink:href="#f0_r" transform="matrix(12,0,0,12,486.3,393.7)" />
<use xlink:href="#f0_4" transform="matrix(12,0,0,12,498.3,393.7)" />
<use xlink:href="#f0_9" transform="matrix(12,0,0,12,502.4,393.7)" />
<use xlink:href="#f0_e" transform="matrix(12,0,0,12,513,393.7)" />
<use xlink:href="#f0_f" transform="matrix(12,0,0,12,530.8,393.7)" />
<use xlink:href="#f0_m" transform="matrix(12,0,0,12,541.2,393.7)" />
<use xlink:href="#f0_9" transform="matrix(12,0,0,12,552.7,393.7)" />
<use xlink:href="#f0_e" transform="matrix(12,0,0,12,569.1,393.7)" />
<use xlink:href="#f0_r" transform="matrix(12,0,0,12,581,393.7)" />
<use xlink:href="#f0_q" transform="matrix(12,0,0,12,593,393.7)" />
<use xlink:href="#f0_8" transform="matrix(12,0,0,12,611.2,393.7)" />
<use xlink:href="#f0_a" transform="matrix(12,0,0,12,623.4,393.7)" />
<use xlink:href="#f0_f" transform="matrix(12,0,0,12,628.4,393.7)" />
<use xlink:href="#f0_c" transform="matrix(12,0,0,12,638.8,393.7)" />
<use xlink:href="#f0_9" transform="matrix(12,0,0,12,650.7,393.7)" />
<use xlink:href="#f0_o" transform="matrix(12,0,0,12,440,415.9)" />
<use xlink:href="#f0_q" transform="matrix(12,0,0,12,445.8,415.9)" />
<use xlink:href="#f0_f" transform="matrix(12,0,0,12,458,415.9)" />
<use xlink:href="#f0_8" transform="matrix(12,0,0,12,474.2,415.9)" />
<use xlink:href="#f0_m" transform="matrix(12,0,0,12,486.5,415.9)" />
<use xlink:href="#f0_j" transform="matrix(12,0,0,12,497.9,415.9)" />
<use xlink:href="#f0_z" transform="matrix(12,0,0,12,515.2,415.9)" />
<use xlink:href="#f0_q" transform="matrix(12,0,0,12,526.9,415.9)" />
<use xlink:href="#f0_1x" transform="matrix(12,0,0,12,545.1,415.9)" />
<use xlink:href="#f0_r" transform="matrix(12,0,0,12,554.8,415.9)" />
<use xlink:href="#f0_4" transform="matrix(12,0,0,12,566.9,415.9)" />
<use xlink:href="#f0_9" transform="matrix(12,0,0,12,571,415.9)" />
<use xlink:href="#f0_e" transform="matrix(12,0,0,12,581.5,415.9)" />
<use xlink:href="#f0_f" transform="matrix(12,0,0,12,599.3,415.9)" />
<use xlink:href="#f0_m" transform="matrix(12,0,0,12,609.7,415.9)" />
<use xlink:href="#f0_9" transform="matrix(12,0,0,12,621.1,415.9)" />
<use xlink:href="#f0_4" transform="matrix(12,0,0,12,637.6,415.9)" />
<use xlink:href="#f0_6" transform="matrix(12,0,0,12,641.7,415.9)" />
<use xlink:href="#f0_q" transform="matrix(12,0,0,12,649,415.9)" />
<use xlink:href="#f0_o" transform="matrix(12,0,0,12,524.5,438)" />
<use xlink:href="#f0_3" transform="matrix(12,0,0,12,530.3,438)" />
<use xlink:href="#f0_b" transform="matrix(12,0,0,12,540.7,438)" />
<use xlink:href="#f0_c" transform="matrix(12,0,0,12,550.7,438)" />
<use xlink:href="#f0_9" transform="matrix(12,0,0,12,562.7,438)" />
<use xlink:href="#f0_8" transform="matrix(12,0,0,12,579,438)" />
<use xlink:href="#f0_4" transform="matrix(12,0,0,12,591.2,438)" />
<use xlink:href="#f0_4" transform="matrix(12,0,0,12,595.3,438)" />
<use xlink:href="#f0_j" transform="matrix(12,0,0,12,599.4,438)" />
<use xlink:href="#f0_i" transform="matrix(12,0,0,12,610.9,438)" />
<use xlink:href="#f0_n" transform="matrix(12,0,0,12,623.9,438)" />
<use xlink:href="#f0_g" transform="matrix(12,0,0,12,636.8,438)" />
<use xlink:href="#f0_e" transform="matrix(12,0,0,12,649.3,438)" />
</g>
<g fill="#0000FF" >
<use xlink:href="#f0_f" transform="matrix(12,0,0,12,649.3,478.5)" />
<use xlink:href="#f0_4" transform="matrix(12,0,0,12,660,478.5)" />
<use xlink:href="#f0_s" transform="matrix(12,0,0,12,664.5,478.5)" />
<use xlink:href="#f0_3" transform="matrix(12,0,0,12,672.3,478.5)" />
<use xlink:href="#f0_r" transform="matrix(12,0,0,12,683.1,478.5)" />
<use xlink:href="#f0_f" transform="matrix(12,0,0,12,695.5,478.5)" />
<use xlink:href="#f0_r" transform="matrix(12,0,0,12,712.4,478.5)" />
<use xlink:href="#f0_a" transform="matrix(12,0,0,12,724.9,478.5)" />
<use xlink:href="#f0_9" transform="matrix(12,0,0,12,730.3,478.5)" />
<use xlink:href="#f0_a" transform="matrix(12,0,0,12,741.2,478.5)" />
<use xlink:href="#f0_n" transform="matrix(12,0,0,12,746.6,478.5)" />
<use xlink:href="#f0_r" transform="matrix(12,0,0,12,759.8,478.5)" />
</g>
</g>
<path d="M642.9,480.3H772.1" class="g1_9" />
<g clip-path="url(#c1_9)">
<path d="M642.4,480.3h5.8" class="g1_9" />
</g>
<g clip-path="url(#c0_9)">
<g fill="#0000FF" >
<use xlink:href="#f0_19" transform="matrix(12,0,0,12,630.7,478.5)" />
</g>
</g>
<path d="M630.7,480.3h11.6" class="g1_9" />
<g clip-path="url(#c0_9)">
<g fill="#000000" >
<use xlink:href="#f1_8" transform="matrix(16,0,0,16,606.1,578.9)" />
<use xlink:href="#f1_z" transform="matrix(16,0,0,16,612.5,578.9)" />
<use xlink:href="#f1_8" transform="matrix(16,0,0,16,626.4,578.9)" />
<use xlink:href="#f1_z" transform="matrix(16,0,0,16,632.8,578.9)" />
<use xlink:href="#f1_f" transform="matrix(16,0,0,16,646.6,578.9)" />
<use xlink:href="#f1_5" transform="matrix(16,0,0,16,658.4,578.9)" />
<use xlink:href="#f1_f" transform="matrix(16,0,0,16,678.6,578.9)" />
<use xlink:href="#f1_r" transform="matrix(16,0,0,16,690.3,578.9)" />
<use xlink:href="#f1_13" transform="matrix(16,0,0,16,701.8,578.9)" />
<use xlink:href="#f1_5" transform="matrix(16,0,0,16,719,578.9)" />
<use xlink:href="#f1_12" transform="matrix(16,0,0,16,739.2,578.9)" />
<use xlink:href="#f1_9" transform="matrix(16,0,0,16,751.9,578.9)" />
<use xlink:href="#f1_z" transform="matrix(16,0,0,16,758.1,578.9)" />
<use xlink:href="#f0_o" transform="matrix(12,0,0,12,175.1,639.8)" />
<use xlink:href="#f0_e" transform="matrix(12,0,0,12,180.9,639.8)" />
<use xlink:href="#f0_j" transform="matrix(12,0,0,12,192.8,639.8)" />
<use xlink:href="#f0_n" transform="matrix(12,0,0,12,204.3,639.8)" />
<use xlink:href="#f0_9" transform="matrix(12,0,0,12,217.2,639.8)" />
<use xlink:href="#f0_e" transform="matrix(12,0,0,12,233.7,639.8)" />
<use xlink:href="#f0_g" transform="matrix(12,0,0,12,245.6,639.8)" />
<use xlink:href="#f0_4" transform="matrix(12,0,0,12,258,639.8)" />
<use xlink:href="#f0_b" transform="matrix(12,0,0,12,262.1,639.8)" />
<use xlink:href="#f0_i" transform="matrix(12,0,0,12,272.2,639.8)" />
<use xlink:href="#f0_b" transform="matrix(12,0,0,12,291,639.8)" />
<use xlink:href="#f0_a" transform="matrix(12,0,0,12,300.9,639.8)" />
<use xlink:href="#f0_m" transform="matrix(12,0,0,12,305.9,639.8)" />
<use xlink:href="#f0_p" transform="matrix(12,0,0,12,317.4,639.8)" />
<use xlink:href="#f0_f" transform="matrix(12,0,0,12,328.2,639.8)" />
<use xlink:href="#f0_d" transform="matrix(12,0,0,12,344.4,639.8)" />
<use xlink:href="#f0_5" transform="matrix(12,0,0,12,349.5,639.8)" />
<use xlink:href="#f0_a" transform="matrix(12,0,0,12,359.1,639.8)" />
<use xlink:href="#f0_g" transform="matrix(12,0,0,12,364.1,639.8)" />
<use xlink:href="#f0_e" transform="matrix(12,0,0,12,382.4,639.8)" />
<use xlink:href="#f0_r" transform="matrix(12,0,0,12,394.4,639.8)" />
<use xlink:href="#f0_q" transform="matrix(12,0,0,12,406.4,639.8)" />
<use xlink:href="#f0_r" transform="matrix(12,0,0,12,424.6,639.8)" />
<use xlink:href="#f0_m" transform="matrix(12,0,0,12,436.6,639.8)" />
<use xlink:href="#f0_5" transform="matrix(12,0,0,12,448.1,639.8)" />
<use xlink:href="#f0_a" transform="matrix(12,0,0,12,457.7,639.8)" />
<use xlink:href="#f0_7" transform="matrix(12,0,0,12,468.5,639.8)" />
<use xlink:href="#f0_r" transform="matrix(12,0,0,12,474.3,639.8)" />
<use xlink:href="#f0_4" transform="matrix(12,0,0,12,486.4,639.8)" />
<use xlink:href="#f0_l" transform="matrix(12,0,0,12,490.5,639.8)" />
<use xlink:href="#f0_c" transform="matrix(12,0,0,12,502.4,639.8)" />
<use xlink:href="#f0_4" transform="matrix(12,0,0,12,514.3,639.8)" />
<use xlink:href="#f0_e" transform="matrix(12,0,0,12,524.2,639.8)" />
<use xlink:href="#f0_n" transform="matrix(12,0,0,12,536.1,639.8)" />
<use xlink:href="#f0_i" transform="matrix(12,0,0,12,549.1,639.8)" />
<use xlink:href="#f0_e" transform="matrix(12,0,0,12,562.1,639.8)" />
<use xlink:href="#f0_a" transform="matrix(12,0,0,12,574,639.8)" />
<use xlink:href="#f0_4" transform="matrix(12,0,0,12,585,639.8)" />
<use xlink:href="#f0_l" transform="matrix(12,0,0,12,589.1,639.8)" />
<use xlink:href="#f0_4" transform="matrix(12,0,0,12,601,639.8)" />
<use xlink:href="#f0_l" transform="matrix(12,0,0,12,605.1,639.8)" />
<use xlink:href="#f0_9" transform="matrix(12,0,0,12,617,639.8)" />
<use xlink:href="#f0_e" transform="matrix(12,0,0,12,627.5,639.8)" />
<use xlink:href="#f0_9" transform="matrix(12,0,0,12,645.4,639.8)" />
<use xlink:href="#f0_f" transform="matrix(12,0,0,12,655.9,639.8)" />
<use xlink:href="#f0_n" transform="matrix(12,0,0,12,666.3,639.8)" />
<use xlink:href="#f0_e" transform="matrix(12,0,0,12,679.3,639.8)" />
<use xlink:href="#f0_r" transform="matrix(12,0,0,12,697.1,639.8)" />
<use xlink:href="#f0_q" transform="matrix(12,0,0,12,709.1,639.8)" />
<use xlink:href="#f0_r" transform="matrix(12,0,0,12,727.1,639.8)" />
<use xlink:href="#f0_g" transform="matrix(12,0,0,12,739.2,639.8)" />
<use xlink:href="#f0_4" transform="matrix(12,0,0,12,751.7,639.8)" />
<use xlink:href="#f0_4" transform="matrix(12,0,0,12,755.8,639.8)" />
<use xlink:href="#f0_l" transform="matrix(12,0,0,12,759.8,639.8)" />
<use xlink:href="#f0_b" transform="matrix(12,0,0,12,137.8,661.2)" />
<use xlink:href="#f0_p" transform="matrix(12,0,0,12,147.9,661.2)" />
<use xlink:href="#f0_4" transform="matrix(12,0,0,12,158.7,661.2)" />
<use xlink:href="#f0_5" transform="matrix(12,0,0,12,162.8,661.2)" />
<use xlink:href="#f0_m" transform="matrix(12,0,0,12,179.4,661.2)" />
<use xlink:href="#f0_b" transform="matrix(12,0,0,12,190.9,661.2)" />
<use xlink:href="#f0_a" transform="matrix(12,0,0,12,201,661.2)" />
<use xlink:href="#f0_4" transform="matrix(12,0,0,12,205.9,661.2)" />
<use xlink:href="#f0_t" transform="matrix(12,0,0,12,217.1,661.2)" />
<use xlink:href="#f0_6" transform="matrix(12,0,0,12,226.9,661.2)" />
<use xlink:href="#f0_4" transform="matrix(12,0,0,12,234.2,661.2)" />
<use xlink:href="#f0_q" transform="matrix(12,0,0,12,238.3,661.2)" />
<use xlink:href="#f0_d" transform="matrix(12,0,0,12,257.5,661.2)" />
<use xlink:href="#f0_4" transform="matrix(12,0,0,12,262.6,661.2)" />
<use xlink:href="#f0_4" transform="matrix(12,0,0,12,266.5,661.2)" />
<use xlink:href="#f0_b" transform="matrix(12,0,0,12,270.6,661.2)" />
<use xlink:href="#f0_m" transform="matrix(12,0,0,12,280.7,661.2)" />
<use xlink:href="#f0_4" transform="matrix(12,0,0,12,299.2,661.2)" />
<use xlink:href="#f0_5" transform="matrix(12,0,0,12,303.3,661.2)" />
<use xlink:href="#f0_n" transform="matrix(12,0,0,12,319.9,661.2)" />
<use xlink:href="#f0_4" transform="matrix(12,0,0,12,332.9,661.2)" />
<use xlink:href="#f0_s" transform="matrix(12,0,0,12,337,661.2)" />
<use xlink:href="#f0_3" transform="matrix(12,0,0,12,344.4,661.2)" />
<use xlink:href="#f0_g" transform="matrix(12,0,0,12,354.8,661.2)" />
<use xlink:href="#f0_e" transform="matrix(12,0,0,12,374.5,661.2)" />
<use xlink:href="#f0_r" transform="matrix(12,0,0,12,386.4,661.2)" />
<use xlink:href="#f0_q" transform="matrix(12,0,0,12,398.5,661.2)" />
<use xlink:href="#f0_8" transform="matrix(12,0,0,12,417.7,661.2)" />
<use xlink:href="#f0_q" transform="matrix(12,0,0,12,429.9,661.2)" />
<use xlink:href="#f0_o" transform="matrix(12,0,0,12,449.1,661.2)" />
<use xlink:href="#f0_8" transform="matrix(12,0,0,12,454.9,661.2)" />
<use xlink:href="#f0_4" transform="matrix(12,0,0,12,467.1,661.2)" />
<use xlink:href="#f0_f" transform="matrix(12,0,0,12,471.2,661.2)" />
<use xlink:href="#f0_4" transform="matrix(12,0,0,12,481.6,661.2)" />
<use xlink:href="#f0_g" transform="matrix(12,0,0,12,485.7,661.2)" />
<use xlink:href="#f0_e" transform="matrix(12,0,0,12,498.1,661.2)" />
<use xlink:href="#f0_b" transform="matrix(12,0,0,12,517.2,661.2)" />
<use xlink:href="#f0_a" transform="matrix(12,0,0,12,527.1,661.2)" />
<use xlink:href="#f0_i" transform="matrix(12,0,0,12,532.1,661.2)" />
<use xlink:href="#f0_4" transform="matrix(12,0,0,12,545.1,661.2)" />
<use xlink:href="#f0_6" transform="matrix(12,0,0,12,549.2,661.2)" />
<use xlink:href="#f0_i" transform="matrix(12,0,0,12,563.5,661.2)" />
<use xlink:href="#f0_l" transform="matrix(12,0,0,12,576.5,661.2)" />
<use xlink:href="#f0_j" transform="matrix(12,0,0,12,588.4,661.2)" />
<use xlink:href="#f0_a" transform="matrix(12,0,0,12,599.8,661.2)" />
<use xlink:href="#f0_e" transform="matrix(12,0,0,12,604.9,661.2)" />
<use xlink:href="#f0_i" transform="matrix(12,0,0,12,623.8,661.2)" />
<use xlink:href="#f0_3" transform="matrix(12,0,0,12,636.7,661.2)" />
<use xlink:href="#f0_j" transform="matrix(12,0,0,12,647.1,661.2)" />
<use xlink:href="#f0_e" transform="matrix(12,0,0,12,658.6,661.2)" />
<use xlink:href="#f0_z" transform="matrix(12,0,0,12,677.6,661.2)" />
<use xlink:href="#f0_a" transform="matrix(12,0,0,12,689.2,661.2)" />
<use xlink:href="#f0_l" transform="matrix(12,0,0,12,694.3,661.2)" />
<use xlink:href="#f0_r" transform="matrix(12,0,0,12,713.2,661.2)" />
<use xlink:href="#f0_q" transform="matrix(12,0,0,12,725.2,661.2)" />
<use xlink:href="#f0_3" transform="matrix(12,0,0,12,737.4,661.2)" />
<use xlink:href="#f0_i" transform="matrix(12,0,0,12,747.8,661.2)" />
<use xlink:href="#f0_f" transform="matrix(12,0,0,12,760.8,661.2)" />
<use xlink:href="#f0_o" transform="matrix(12,0,0,12,293.6,682.6)" />
<use xlink:href="#f0_d" transform="matrix(12,0,0,12,299.5,682.6)" />
<use xlink:href="#f0_a" transform="matrix(12,0,0,12,304.5,682.6)" />
<use xlink:href="#f0_n" transform="matrix(12,0,0,12,309.5,682.6)" />
<use xlink:href="#f0_q" transform="matrix(12,0,0,12,322.5,682.6)" />
<use xlink:href="#f0_3" transform="matrix(12,0,0,12,334.7,682.6)" />
<use xlink:href="#f0_e" transform="matrix(12,0,0,12,345.1,682.6)" />
<use xlink:href="#f0_i" transform="matrix(12,0,0,12,362.8,682.6)" />
<use xlink:href="#f0_3" transform="matrix(12,0,0,12,375.8,682.6)" />
<use xlink:href="#f0_j" transform="matrix(12,0,0,12,386.2,682.6)" />
<use xlink:href="#f0_9" transform="matrix(12,0,0,12,397.6,682.6)" />
<use xlink:href="#f0_n" transform="matrix(12,0,0,12,408.1,682.6)" />
<use xlink:href="#f0_3" transform="matrix(12,0,0,12,427.1,682.6)" />
<use xlink:href="#f0_g" transform="matrix(12,0,0,12,437.3,682.6)" />
<use xlink:href="#f0_a" transform="matrix(12,0,0,12,449.8,682.6)" />
<use xlink:href="#f0_c" transform="matrix(12,0,0,12,454.8,682.6)" />
<use xlink:href="#f0_e" transform="matrix(12,0,0,12,466.8,682.6)" />
<use xlink:href="#f0_f" transform="matrix(12,0,0,12,484.6,682.6)" />
<use xlink:href="#f0_m" transform="matrix(12,0,0,12,495,682.6)" />
<use xlink:href="#f0_3" transform="matrix(12,0,0,12,512.3,682.6)" />
<use xlink:href="#f0_a" transform="matrix(12,0,0,12,522.7,682.6)" />
<use xlink:href="#f0_h" transform="matrix(12,0,0,12,527.6,682.6)" />
<use xlink:href="#f0_c" transform="matrix(12,0,0,12,534,682.6)" />
<use xlink:href="#f0_7" transform="matrix(12,0,0,12,551.8,682.6)" />
<use xlink:href="#f0_r" transform="matrix(12,0,0,12,557.6,682.6)" />
<use xlink:href="#f0_4" transform="matrix(12,0,0,12,569.5,682.6)" />
<use xlink:href="#f0_b" transform="matrix(12,0,0,12,573.6,682.6)" />
<use xlink:href="#f0_3" transform="matrix(12,0,0,12,583.7,682.6)" />
<use xlink:href="#f0_j" transform="matrix(12,0,0,12,594.1,682.6)" />
<use xlink:href="#f0_l" transform="matrix(12,0,0,12,605.5,682.6)" />
<use xlink:href="#f0_9" transform="matrix(12,0,0,12,617.4,682.6)" />
<use xlink:href="#f0_8" transform="matrix(12,0,0,12,633.8,682.6)" />
<use xlink:href="#f0_4" transform="matrix(12,0,0,12,646,682.6)" />
<use xlink:href="#f0_f" transform="matrix(12,0,0,12,650.1,682.6)" />
<use xlink:href="#f0_4" transform="matrix(12,0,0,12,660.5,682.6)" />
<use xlink:href="#f0_g" transform="matrix(12,0,0,12,664.5,682.6)" />
<use xlink:href="#f0_e" transform="matrix(12,0,0,12,677,682.6)" />
<use xlink:href="#f0_r" transform="matrix(12,0,0,12,694.8,682.6)" />
<use xlink:href="#f0_q" transform="matrix(12,0,0,12,706.9,682.6)" />
<use xlink:href="#f0_r" transform="matrix(12,0,0,12,724.9,682.6)" />
<use xlink:href="#f0_a" transform="matrix(12,0,0,12,737,682.6)" />
<use xlink:href="#f0_s" transform="matrix(12,0,0,12,742,682.6)" />
<use xlink:href="#f0_e" transform="matrix(12,0,0,12,749.5,682.6)" />
<use xlink:href="#f0_f" transform="matrix(12,0,0,12,761.4,682.6)" />
<use xlink:href="#f0_9" transform="matrix(12,0,0,12,138.4,723.4)" />
<use xlink:href="#f0_a" transform="matrix(12,0,0,12,149,723.4)" />
<use xlink:href="#f0_3" transform="matrix(12,0,0,12,154,723.4)" />
<use xlink:href="#f0_i" transform="matrix(12,0,0,12,164.4,723.4)" />
<use xlink:href="#f0_e" transform="matrix(12,0,0,12,177.3,723.4)" />
<use xlink:href="#f0_i" transform="matrix(12,0,0,12,199,723.4)" />
<use xlink:href="#f0_3" transform="matrix(12,0,0,12,212,723.4)" />
<use xlink:href="#f0_j" transform="matrix(12,0,0,12,222.3,723.4)" />
<use xlink:href="#f0_9" transform="matrix(12,0,0,12,233.8,723.4)" />
<use xlink:href="#f0_n" transform="matrix(12,0,0,12,254.2,723.4)" />
<use xlink:href="#f0_a" transform="matrix(12,0,0,12,267.2,723.4)" />
<use xlink:href="#f0_5" transform="matrix(12,0,0,12,272.2,723.4)" />
<use xlink:href="#f0_3" transform="matrix(12,0,0,12,281.8,723.4)" />
<use xlink:href="#f0_r" transform="matrix(12,0,0,12,292.1,723.4)" />
<use xlink:href="#f0_7" transform="matrix(12,0,0,12,314,723.4)" />
<use xlink:href="#f0_e" transform="matrix(12,0,0,12,319.8,723.4)" />
<use xlink:href="#f0_j" transform="matrix(12,0,0,12,331.8,723.4)" />
<use xlink:href="#f0_n" transform="matrix(12,0,0,12,343.2,723.4)" />
<use xlink:href="#f0_e" transform="matrix(12,0,0,12,356.2,723.4)" />
<use xlink:href="#f0_t" transform="matrix(12,0,0,12,378,723.4)" />
<use xlink:href="#f0_a" transform="matrix(12,0,0,12,387.8,723.4)" />
<use xlink:href="#f0_r" transform="matrix(12,0,0,12,392.6,723.4)" />
<use xlink:href="#f0_f" transform="matrix(12,0,0,12,404.7,723.4)" />
<use xlink:href="#f0_e" transform="matrix(12,0,0,12,425,723.4)" />
<use xlink:href="#f0_g" transform="matrix(12,0,0,12,436.9,723.4)" />
<use xlink:href="#f0_4" transform="matrix(12,0,0,12,449.4,723.4)" />
<use xlink:href="#f0_b" transform="matrix(12,0,0,12,453.4,723.4)" />
<use xlink:href="#f0_i" transform="matrix(12,0,0,12,463.4,723.4)" />
<use xlink:href="#f0_e" transform="matrix(12,0,0,12,486.3,723.4)" />
<use xlink:href="#f0_p" transform="matrix(12,0,0,12,498.2,723.4)" />
<use xlink:href="#f0_4" transform="matrix(12,0,0,12,509.1,723.4)" />
<use xlink:href="#f0_j" transform="matrix(12,0,0,12,513.2,723.4)" />
<use xlink:href="#f0_i" transform="matrix(12,0,0,12,524.6,723.4)" />
<use xlink:href="#f0_e" transform="matrix(12,0,0,12,537.6,723.4)" />
<use xlink:href="#f0_4" transform="matrix(12,0,0,12,559.3,723.4)" />
<use xlink:href="#f0_6" transform="matrix(12,0,0,12,563.4,723.4)" />
<use xlink:href="#f0_j" transform="matrix(12,0,0,12,570.7,723.4)" />
<use xlink:href="#f0_f" transform="matrix(12,0,0,12,582.1,723.4)" />
<use xlink:href="#f0_a" transform="matrix(12,0,0,12,592.5,723.4)" />
<use xlink:href="#f0_l" transform="matrix(12,0,0,12,607.3,723.4)" />
<use xlink:href="#f0_4" transform="matrix(12,0,0,12,619.2,723.4)" />
<use xlink:href="#f0_l" transform="matrix(12,0,0,12,623.3,723.4)" />
<use xlink:href="#f0_9" transform="matrix(12,0,0,12,635.2,723.4)" />
<use xlink:href="#f0_e" transform="matrix(12,0,0,12,645.8,723.4)" />
<use xlink:href="#f0_r" transform="matrix(12,0,0,12,667.6,723.4)" />
<use xlink:href="#f0_n" transform="matrix(12,0,0,12,679.5,723.4)" />
<use xlink:href="#f0_4" transform="matrix(12,0,0,12,692.5,723.4)" />
<use xlink:href="#f0_5" transform="matrix(12,0,0,12,696.6,723.4)" />
<use xlink:href="#f0_3" transform="matrix(12,0,0,12,706.2,723.4)" />
<use xlink:href="#f0_3" transform="matrix(12,0,0,12,726.5,723.4)" />
<use xlink:href="#f0_c" transform="matrix(12,0,0,12,736.9,723.4)" />
<use xlink:href="#f0_q" transform="matrix(12,0,0,12,748.8,723.4)" />
<use xlink:href="#f0_f" transform="matrix(12,0,0,12,761,723.4)" />
<use xlink:href="#f0_o" transform="matrix(12,0,0,12,351.5,744.8)" />
<use xlink:href="#f0_r" transform="matrix(12,0,0,12,357.4,744.8)" />
<use xlink:href="#f0_4" transform="matrix(12,0,0,12,369.4,744.8)" />
<use xlink:href="#f0_b" transform="matrix(12,0,0,12,373.5,744.8)" />
<use xlink:href="#f0_3" transform="matrix(12,0,0,12,383.4,744.8)" />
<use xlink:href="#f0_j" transform="matrix(12,0,0,12,393.8,744.8)" />
<use xlink:href="#f0_l" transform="matrix(12,0,0,12,405.3,744.8)" />
<use xlink:href="#f0_b" transform="matrix(12,0,0,12,423,744.8)" />
<use xlink:href="#f0_a" transform="matrix(12,0,0,12,432.9,744.8)" />
<use xlink:href="#f0_c" transform="matrix(12,0,0,12,437.9,744.8)" />
<use xlink:href="#f0_4" transform="matrix(12,0,0,12,449.8,744.8)" />
<use xlink:href="#f0_4" transform="matrix(12,0,0,12,454,744.8)" />
<use xlink:href="#f0_9" transform="matrix(12,0,0,12,458.1,744.8)" />
<use xlink:href="#f0_a" transform="matrix(12,0,0,12,468.6,744.8)" />
<use xlink:href="#f0_e" transform="matrix(12,0,0,12,479.6,744.8)" />
<use xlink:href="#f0_j" transform="matrix(12,0,0,12,491.5,744.8)" />
<use xlink:href="#f0_n" transform="matrix(12,0,0,12,502.9,744.8)" />
<use xlink:href="#f0_f" transform="matrix(12,0,0,12,521.7,744.8)" />
<use xlink:href="#f0_5" transform="matrix(12,0,0,12,532.1,744.8)" />
<use xlink:href="#f0_d" transform="matrix(12,0,0,12,547.7,744.8)" />
<use xlink:href="#f0_a" transform="matrix(12,0,0,12,552.6,744.8)" />
<use xlink:href="#f0_5" transform="matrix(12,0,0,12,557.6,744.8)" />
<use xlink:href="#f0_6" transform="matrix(12,0,0,12,567.2,744.8)" />
<use xlink:href="#f0_b" transform="matrix(12,0,0,12,580.5,744.8)" />
<use xlink:href="#f0_a" transform="matrix(12,0,0,12,590.4,744.8)" />
<use xlink:href="#f0_g" transform="matrix(12,0,0,12,595.4,744.8)" />
<use xlink:href="#f0_f" transform="matrix(12,0,0,12,608,744.8)" />
<use xlink:href="#f0_f" transform="matrix(12,0,0,12,618.3,744.8)" />
<use xlink:href="#f0_t" transform="matrix(12,0,0,12,634.6,744.8)" />
<use xlink:href="#f0_f" transform="matrix(12,0,0,12,644.3,744.8)" />
<use xlink:href="#f0_a" transform="matrix(12,0,0,12,660.7,744.8)" />
<use xlink:href="#f0_3" transform="matrix(12,0,0,12,665.6,744.8)" />
<use xlink:href="#f0_n" transform="matrix(12,0,0,12,675.9,744.8)" />
<use xlink:href="#f0_j" transform="matrix(12,0,0,12,688.9,744.8)" />
<use xlink:href="#f0_q" transform="matrix(12,0,0,12,700.4,744.8)" />
<use xlink:href="#f0_4" transform="matrix(12,0,0,12,712.6,744.8)" />
<use xlink:href="#f0_n" transform="matrix(12,0,0,12,716.7,744.8)" />
<use xlink:href="#f0_8" transform="matrix(12,0,0,12,735.5,744.8)" />
<use xlink:href="#f0_4" transform="matrix(12,0,0,12,747.7,744.8)" />
<use xlink:href="#f0_f" transform="matrix(12,0,0,12,751.8,744.8)" />
<use xlink:href="#f0_5" transform="matrix(12,0,0,12,762.2,744.8)" />
<use xlink:href="#f0_8" transform="matrix(12,0,0,12,137.8,766.2)" />
<use xlink:href="#f0_4" transform="matrix(12,0,0,12,150,766.2)" />
<use xlink:href="#f0_f" transform="matrix(12,0,0,12,154.1,766.2)" />
<use xlink:href="#f0_4" transform="matrix(12,0,0,12,164.5,766.2)" />
<use xlink:href="#f0_g" transform="matrix(12,0,0,12,168.5,766.2)" />
<use xlink:href="#f0_d" transform="matrix(12,0,0,12,187.7,766.2)" />
<use xlink:href="#f0_a" transform="matrix(12,0,0,12,192.7,766.2)" />
<use xlink:href="#f0_6" transform="matrix(12,0,0,12,197.6,766.2)" />
<use xlink:href="#f0_4" transform="matrix(12,0,0,12,205,766.2)" />
<use xlink:href="#f0_n" transform="matrix(12,0,0,12,209.1,766.2)" />
<use xlink:href="#f0_i" transform="matrix(12,0,0,12,228.7,766.2)" />
<use xlink:href="#f0_3" transform="matrix(12,0,0,12,241.7,766.2)" />
<use xlink:href="#f0_q" transform="matrix(12,0,0,12,258.8,766.2)" />
<use xlink:href="#f0_f" transform="matrix(12,0,0,12,271,766.2)" />
<use xlink:href="#f0_r" transform="matrix(12,0,0,12,288.1,766.2)" />
<use xlink:href="#f0_a" transform="matrix(12,0,0,12,300.2,766.2)" />
<use xlink:href="#f0_4" transform="matrix(12,0,0,12,305.2,766.2)" />
<use xlink:href="#f0_e" transform="matrix(12,0,0,12,309.3,766.2)" />
<use xlink:href="#f0_f" transform="matrix(12,0,0,12,321.2,766.2)" />
<use xlink:href="#f0_11" transform="matrix(12,0,0,12,338.1,766.2)" />
<use xlink:href="#f0_t" transform="matrix(12,0,0,12,345.3,766.2)" />
<use xlink:href="#f0_4" transform="matrix(12,0,0,12,355.1,766.2)" />
<use xlink:href="#f0_3" transform="matrix(12,0,0,12,359.2,766.2)" />
<use xlink:href="#f0_p" transform="matrix(12,0,0,12,369.6,766.2)" />
<use xlink:href="#f0_a" transform="matrix(12,0,0,12,380.4,766.2)" />
<use xlink:href="#f0_10" transform="matrix(12,0,0,12,385.4,766.2)" />
<use xlink:href="#f0_f" transform="matrix(12,0,0,12,399.3,766.2)" />
<use xlink:href="#f0_a" transform="matrix(12,0,0,12,409.7,766.2)" />
<use xlink:href="#f0_5" transform="matrix(12,0,0,12,414.6,766.2)" />
<use xlink:href="#f0_4" transform="matrix(12,0,0,12,424.2,766.2)" />
<use xlink:href="#f0_r" transform="matrix(12,0,0,12,435,766.2)" />
<use xlink:href="#f0_4" transform="matrix(12,0,0,12,447.1,766.2)" />
<use xlink:href="#f0_b" transform="matrix(12,0,0,12,451.2,766.2)" />
<use xlink:href="#f0_3" transform="matrix(12,0,0,12,461.1,766.2)" />
<use xlink:href="#f0_j" transform="matrix(12,0,0,12,471.5,766.2)" />
<use xlink:href="#f0_l" transform="matrix(12,0,0,12,482.9,766.2)" />
<use xlink:href="#f0_b" transform="matrix(12,0,0,12,501.4,766.2)" />
<use xlink:href="#f0_a" transform="matrix(12,0,0,12,511.4,766.2)" />
<use xlink:href="#f0_g" transform="matrix(12,0,0,12,516.5,766.2)" />
<use xlink:href="#f0_4" transform="matrix(12,0,0,12,528.8,766.2)" />
<use xlink:href="#f0_f" transform="matrix(12,0,0,12,532.9,766.2)" />
<use xlink:href="#f0_7" transform="matrix(12,0,0,12,550,766.2)" />
<use xlink:href="#f0_8" transform="matrix(12,0,0,12,555.8,766.2)" />
<use xlink:href="#f0_4" transform="matrix(12,0,0,12,568.1,766.2)" />
<use xlink:href="#f0_9" transform="matrix(12,0,0,12,572.2,766.2)" />
<use xlink:href="#f0_a" transform="matrix(12,0,0,12,582.7,766.2)" />
<use xlink:href="#f0_3" transform="matrix(12,0,0,12,587.7,766.2)" />
<use xlink:href="#f0_i" transform="matrix(12,0,0,12,598.1,766.2)" />
<use xlink:href="#f0_e" transform="matrix(12,0,0,12,611.1,766.2)" />
<use xlink:href="#f0_8" transform="matrix(12,0,0,12,629.7,766.2)" />
<use xlink:href="#f0_4" transform="matrix(12,0,0,12,641.8,766.2)" />
<use xlink:href="#f0_j" transform="matrix(12,0,0,12,645.9,766.2)" />
<use xlink:href="#f0_b" transform="matrix(12,0,0,12,657.3,766.2)" />
<use xlink:href="#f0_9" transform="matrix(12,0,0,12,667.4,766.2)" />
<use xlink:href="#f0_e" transform="matrix(12,0,0,12,684.7,766.2)" />
<use xlink:href="#f0_f" transform="matrix(12,0,0,12,696.7,766.2)" />
<use xlink:href="#f0_s" transform="matrix(12,0,0,12,707.1,766.2)" />
<use xlink:href="#f0_r" transform="matrix(12,0,0,12,714.5,766.2)" />
<use xlink:href="#f0_n" transform="matrix(12,0,0,12,726.5,766.2)" />
<use xlink:href="#f0_4" transform="matrix(12,0,0,12,746.1,766.2)" />
<use xlink:href="#f0_j" transform="matrix(12,0,0,12,750.2,766.2)" />
<use xlink:href="#f0_5" transform="matrix(12,0,0,12,761.7,766.2)" />
<use xlink:href="#f0_o" transform="matrix(12,0,0,12,552.9,787.6)" />
<use xlink:href="#f0_e" transform="matrix(12,0,0,12,558.7,787.6)" />
<use xlink:href="#f0_6" transform="matrix(12,0,0,12,570.6,787.6)" />
<use xlink:href="#f0_e" transform="matrix(12,0,0,12,578,787.6)" />
<use xlink:href="#f0_g" transform="matrix(12,0,0,12,589.9,787.6)" />
<use xlink:href="#f0_3" transform="matrix(12,0,0,12,608.2,787.6)" />
<use xlink:href="#f0_9" transform="matrix(12,0,0,12,618.4,787.6)" />
<use xlink:href="#f0_b" transform="matrix(12,0,0,12,629,787.6)" />
<use xlink:href="#f0_8" transform="matrix(12,0,0,12,645,787.6)" />
<use xlink:href="#f0_s" transform="matrix(12,0,0,12,657.2,787.6)" />
<use xlink:href="#f0_8" transform="matrix(12,0,0,12,670.5,787.6)" />
<use xlink:href="#f0_q" transform="matrix(12,0,0,12,682.7,787.6)" />
<use xlink:href="#f0_4" transform="matrix(12,0,0,12,700.7,787.6)" />
<use xlink:href="#f0_5" transform="matrix(12,0,0,12,704.8,787.6)" />
<use xlink:href="#f0_8" transform="matrix(12,0,0,12,720.3,787.6)" />
<use xlink:href="#f0_4" transform="matrix(12,0,0,12,732.5,787.6)" />
<use xlink:href="#f0_f" transform="matrix(12,0,0,12,736.6,787.6)" />
<use xlink:href="#f0_f" transform="matrix(12,0,0,12,747,787.6)" />
<use xlink:href="#f0_5" transform="matrix(12,0,0,12,757.4,787.6)" />
<use xlink:href="#f0_a" transform="matrix(12,0,0,12,767,787.6)" />
<use xlink:href="#f0_1q" transform="matrix(12,0,0,12,137.7,1208.5)" />
</g>
</g>
<defs>
<path d="M163,0V190H321V0Z" 
id="f0_o"
transform="scale(0.001,-0.001)" />

<path d="M66,0V107H554V452c0,0,0,56,-4,93c0,0,-4,37,-18,75c0,0,-14,38,-40,60c0,0,-26,22,-71,36c0,0,-45,13,-110,13H66V836H312c0,0,91,0,157,-17c0,0,66,-17,109,-49c0,0,44,-32,69,-84c0,0,26,-52,36,-114c0,0,10,-62,10,-147V107H817V0Z" 
id="f0_9"
transform="scale(0.001,-0.001)" />

<path d="M102,312V836H241V369L102,312Z" 
id="f0_4"
transform="scale(0.001,-0.001)" />

<path d="M495,0V729H66V836H781V729H634V0Z" 
id="f0_b"
transform="scale(0.001,-0.001)" />

<path d="M66,0V107H332V555c0,0,0,92,-37,133c0,0,-37,41,-116,41H85V836h94c0,0,153,0,223,-66c0,0,69,-66,69,-231V0Z" 
id="f0_6"
transform="scale(0.001,-0.001)" />

<path d="M112,-5c0,0,-39,0,-97,11V113c0,0,48,-10,77,-10c0,0,53,0,70,42c0,0,17,43,17,164V729H50V836H501c0,0,107,0,179,-25c0,0,72,-25,112,-77c0,0,40,-51,57,-118c0,0,16,-67,16,-164V0H726V454c0,0,0,55,-3,92c0,0,-4,37,-17,75c0,0,-14,38,-38,59c0,0,-24,22,-65,36c0,0,-42,13,-102,13H318V309c0,0,0,-160,-46,-237C272,72,226,-5,112,-5Z" 
id="f0_r"
transform="scale(0.001,-0.001)" />

<path d="M154,0V454l138,56V0ZM722,0V454c0,0,0,161,-49,218c0,0,-48,57,-186,57H139V836H485c0,0,207,0,291,-93c0,0,83,-94,83,-318V0Z" 
id="f0_e"
transform="scale(0.001,-0.001)" />

<path d="M287,0L589,729H66v386H205V836l547,-1l-2,-82L433,0Z" 
id="f0_f"
transform="scale(0.001,-0.001)" />

<path d="M71,-141V-15L289,62L66,836H210L416,109c0,0,99,42,153,98c0,0,53,56,80,155c0,0,26,98,26,262V836H817V624c0,0,0,-88,-7,-154c0,0,-7,-67,-25,-132c0,0,-18,-66,-51,-116c0,0,-33,-51,-84,-98c0,0,-50,-48,-123,-87c0,0,-72,-39,-169,-74L71,-141Z" 
id="f0_m"
transform="scale(0.001,-0.001)" />

<path d="M736,107V473c0,0,0,147,-48,202c0,0,-49,54,-187,54H278V107ZM139,0V836H499c0,0,105,0,177,-22c0,0,72,-21,116,-69c0,0,44,-49,64,-119c0,0,19,-71,19,-174V0Z" 
id="f0_8"
transform="scale(0.001,-0.001)" />

<path d="M139,0V106H400c0,0,176,0,253,71c0,0,78,72,78,250c0,0,0,163,-80,233c0,0,-81,69,-250,69H278L277,564c0,0,-1,-54,26,-80c0,0,27,-25,82,-25c0,0,30,0,80,9V355c0,0,-61,-12,-111,-12c0,0,-100,0,-157,55c0,0,-58,55,-58,186V836H456c0,0,193,0,303,-109c0,0,110,-109,110,-309c0,0,0,-200,-110,-309C759,109,648,0,456,0Z" 
id="f0_j"
transform="scale(0.001,-0.001)" />

<path d="M139,0V836H485c0,0,206,0,290,-90c0,0,84,-89,84,-294V0H721V473c0,0,0,147,-49,202c0,0,-48,54,-186,54H277V0Z" 
id="f0_c"
transform="scale(0.001,-0.001)" />

<path d="M139,0V138c0,0,0,61,8,112c0,0,7,52,19,87c0,0,11,36,30,66c0,0,19,31,35,49c0,0,17,19,41,35c0,0,25,17,41,25c0,0,17,7,40,17L141,836H303L613,388c0,0,20,10,33,18c0,0,13,8,34,28c0,0,20,20,33,44c0,0,13,25,22,66c0,0,10,41,10,92V836H882V698c0,0,0,-61,-7,-112c0,0,-6,-52,-18,-88c0,0,-12,-36,-30,-66c0,0,-19,-30,-36,-49c0,0,-17,-18,-41,-34c0,0,-24,-17,-40,-25c0,0,-17,-8,-41,-17L882,0H720L409,448c0,0,-21,-11,-34,-19c0,0,-13,-8,-34,-27c0,0,-21,-20,-34,-44c0,0,-12,-25,-22,-66c0,0,-9,-41,-9,-92V0Z" 
id="f0_q"
transform="scale(0.001,-0.001)" />

<path d="M139,-317V836H278V-317Z" 
id="f0_d"
transform="scale(0.001,-0.001)" />

<path d="M66,0V106H322c0,0,75,0,127,23c0,0,53,23,82,67c0,0,29,43,42,98c0,0,13,54,13,124c0,0,0,70,-13,124c0,0,-13,55,-42,98c0,0,-29,44,-82,67c0,0,-52,23,-127,23H66V836H322c0,0,87,0,157,-24c0,0,70,-24,115,-64c0,0,45,-40,74,-94c0,0,30,-55,43,-113c0,0,13,-59,13,-123c0,0,0,-64,-13,-123c0,0,-13,-58,-43,-113c0,0,-29,-54,-74,-94C594,88,549,48,479,24C479,24,409,0,322,0Z" 
id="f0_5"
transform="scale(0.001,-0.001)" />

<path d="M139,0V836H278V0Z" 
id="f0_a"
transform="scale(0.001,-0.001)" />

<path d="M152,0V473c0,0,0,94,28,161c0,0,29,66,71,95H66V836H463V729H404c0,0,-65,0,-89,-57c0,0,-25,-58,-25,-199V0Z" 
id="f0_h"
transform="scale(0.001,-0.001)" />

<path d="M114,0l60,312c0,0,2,12,8,39c0,0,6,27,7,37c0,0,2,11,5,30c0,0,2,19,4,33c0,0,1,15,1,31c0,0,0,48,-35,146c0,0,-35,98,-98,208H228c0,0,3,-8,27,-67c0,0,25,-58,41,-117c0,0,21,53,50,90c0,0,29,37,57,57c0,0,29,21,65,32c0,0,37,11,65,14c0,0,28,3,67,3c0,0,300,0,300,-396V0H480V106H761V452c0,0,0,146,-46,215c0,0,-45,70,-118,70c0,0,-134,0,-198,-119c0,0,-36,-68,-67,-222c0,0,-2,-10,-6,-27L253,0Z" 
id="f0_g"
transform="scale(0.001,-0.001)" />

<path d="M585,0V426c0,0,0,54,-8,98c0,0,-8,44,-27,83c0,0,-19,40,-49,66c0,0,-30,26,-77,41c0,0,-47,15,-108,15H66V836H315c0,0,94,0,166,-20c0,0,71,-20,116,-54c0,0,46,-35,75,-88c0,0,28,-52,40,-112c0,0,12,-60,12,-137V0Z" 
id="f0_3"
transform="scale(0.001,-0.001)" />

<path d="M156,-317V454l139,56V-317ZM505,0L806,729H139V835H967V753L650,0Z" 
id="f0_i"
transform="scale(0.001,-0.001)" />

<path d="M180,0L66,836H203L258,443c0,0,36,1,64,6c0,0,28,6,49,18c0,0,20,12,35,26c0,0,15,13,26,36c0,0,11,24,17,44c0,0,7,20,12,55c0,0,6,34,9,60c0,0,3,26,8,71c0,0,4,45,9,77H610c0,0,-13,-194,-31,-271c0,0,-31,-127,-111,-179c0,0,-71,-45,-196,-50L304,107c0,0,73,0,130,5c0,0,56,6,111,21c0,0,54,15,94,40c0,0,40,25,77,64c0,0,37,39,63,94c0,0,25,54,46,128c0,0,21,73,34,166c0,0,13,94,20,211h138c0,0,-14,-124,-29,-218c0,0,-16,-94,-39,-179c0,0,-22,-85,-50,-146c0,0,-28,-61,-68,-112c0,0,-39,-51,-87,-84C744,97,696,65,632,42C632,42,568,19,492,10C492,10,417,0,320,0Z" 
id="f0_n"
transform="scale(0.001,-0.001)" />

<path d="M354,-200c0,0,-112,175,-167,343c0,0,-56,170,-56,337c0,0,0,166,55,335c0,0,55,169,168,345H473c0,0,-100,-172,-148,-340c0,0,-48,-168,-48,-340c0,0,0,-173,48,-342c0,0,49,-168,148,-338Z" 
id="f0_11"
transform="scale(0.001,-0.001)" />

<path d="M522,-20c0,0,-196,0,-290,99c0,0,-94,100,-94,324V836H276V397c0,0,0,-86,16,-147c0,0,17,-60,50,-94c0,0,34,-34,77,-49c0,0,43,-15,103,-15c0,0,59,0,102,15c0,0,44,15,77,49c0,0,33,34,50,94c0,0,17,61,17,147c0,0,0,84,-8,143c0,0,-7,58,-25,105c0,0,-17,47,-51,69c0,0,-33,23,-83,23c0,0,-50,0,-119,-22V821c0,0,85,23,150,23c0,0,76,0,130,-30c0,0,53,-31,85,-90c0,0,31,-59,45,-138c0,0,13,-78,13,-183c0,0,0,-224,-93,-324c0,0,-94,-99,-290,-99Z" 
id="f0_x"
transform="scale(0.001,-0.001)" />

<path d="M522,92c0,0,247,0,247,333c0,0,0,88,-17,146c0,0,-17,58,-53,91c0,0,-35,33,-82,46c0,0,-48,14,-116,14H276V419c0,0,0,-327,246,-327Zm0,-112c0,0,-193,0,-289,109c0,0,-95,110,-95,337V836H501c0,0,213,0,309,-93c0,0,96,-94,96,-317c0,0,0,-227,-95,-337C811,89,715,-20,522,-20Z" 
id="f0_l"
transform="scale(0.001,-0.001)" />

<path d="M122,-200c0,0,99,170,148,338c0,0,49,169,49,342c0,0,0,172,-49,340c0,0,-49,168,-148,340H241c0,0,112,-176,168,-345c0,0,55,-169,55,-335c0,0,0,-167,-55,-337c0,0,-56,-168,-168,-343Z" 
id="f0_10"
transform="scale(0.001,-0.001)" />

<path d="M291,0V190H443V0Zm5,299V414c0,0,0,75,21,124c0,0,21,48,88,113l67,66c0,0,42,40,61,75c0,0,19,35,19,71c0,0,0,67,-48,108c0,0,-49,41,-130,41c0,0,-59,0,-125,-26c0,0,-67,-26,-139,-77v140c0,0,70,43,142,64c0,0,72,21,148,21c0,0,138,0,221,-72c0,0,83,-73,83,-191c0,0,0,-57,-27,-108c0,0,-27,-51,-94,-115L517,583c0,0,-34,-35,-49,-54c0,0,-14,-20,-20,-39c0,0,-5,-16,-7,-38c0,0,-2,-22,-2,-61V299Z" 
id="f0_1x"
transform="scale(0.001,-0.001)" />

<path d="M66,0V106H564L66,836H228L516,413c0,0,3,2,9,6c0,0,17,13,27,21c0,0,10,8,26,27c0,0,17,20,26,40c0,0,9,21,16,54c0,0,7,34,7,75V836H764V698c0,0,0,-55,-7,-102c0,0,-7,-47,-16,-79c0,0,-10,-33,-27,-62c0,0,-18,-29,-32,-46c0,0,-14,-17,-37,-35c0,0,-22,-17,-36,-25c0,0,-13,-8,-36,-20L767,53V0Z" 
id="f0_p"
transform="scale(0.001,-0.001)" />

<path d="M700,-317V454c0,0,0,155,-54,215c0,0,-54,60,-180,60H277V551c0,0,0,-55,26,-80c0,0,27,-26,82,-26c0,0,30,0,80,10V341c0,0,-61,-11,-111,-11c0,0,-100,0,-157,55c0,0,-58,55,-58,186V836H466c0,0,203,0,288,-91c0,0,85,-92,85,-293V-317Z" 
id="f0_z"
transform="scale(0.001,-0.001)" />

<path d="M138,-7c0,0,-34,0,-72,10V129c0,0,25,-8,52,-8c0,0,33,0,58,5c0,0,26,5,58,24c0,0,33,20,53,54c0,0,21,34,36,97c0,0,15,64,15,151c0,0,0,113,-19,173c0,0,-19,60,-56,82c0,0,-38,22,-107,22H89V836h72c0,0,165,0,240,-91c0,0,76,-91,76,-293c0,0,0,-107,26,-227c0,0,25,-119,83,-225H437c0,0,-43,101,-62,184c0,0,-24,-60,-51,-99c0,0,-26,-38,-56,-58C268,27,239,7,209,0c0,0,-30,-7,-71,-7Z" 
id="f0_s"
transform="scale(0.001,-0.001)" />

<path d="M414,-20c0,0,-70,0,-144,13c0,0,-75,13,-154,40V179c0,0,63,-36,138,-55c0,0,74,-18,156,-18c0,0,142,0,216,55c0,0,74,56,74,163c0,0,0,98,-69,153c0,0,-69,56,-192,56H309V657H445c0,0,111,0,170,44c0,0,59,45,59,128c0,0,0,86,-61,132c0,0,-61,46,-174,46c0,0,-62,0,-133,-13c0,0,-71,-14,-156,-42v134c0,0,85,24,160,36c0,0,75,12,142,12c0,0,171,0,271,-78c0,0,100,-78,100,-211c0,0,0,-92,-53,-156c0,0,-52,-64,-150,-89c0,0,108,-23,169,-96c0,0,61,-73,61,-180c0,0,0,-165,-114,-255c0,0,-113,-89,-322,-89Z" 
id="f0_19"
transform="scale(0.001,-0.001)" />

<path d="M131,353c0,0,-3,0,-6,2c0,0,-3,2,-16,20c0,0,-13,17,-13,28c0,0,0,5,8,9c0,0,45,26,84,67c0,0,38,41,38,85c0,0,0,28,-7,43c0,0,-7,15,-24,21c0,0,-17,6,-61,6H124c0,0,-38,0,-62,34c0,0,-24,35,-24,107c0,0,0,52,16,87c0,0,17,34,38,34c0,0,16,0,16,-12V870c0,0,0,-25,26,-25h63c0,0,29,0,53,-4c0,0,23,-4,39,-23c0,0,17,-19,26,-59c0,0,9,-40,9,-113c0,0,0,-76,-15,-124c0,0,-15,-47,-51,-83c0,0,-35,-36,-74,-61c0,0,-39,-25,-53,-25Z" 
id="f1_8"
transform="scale(0.001,-0.001)" />

<path d="M436,206c0,0,131,0,201,62c0,0,70,63,70,175c0,0,0,47,-9,82c0,0,-9,34,-28,61c0,0,-19,27,-44,37c0,0,-26,11,-82,11H296c0,0,-51,-42,-79,-96c0,0,-29,-53,-29,-112c0,0,0,-110,63,-165c0,0,64,-55,185,-55ZM434,-13c0,0,-169,0,-256,94c0,0,-88,94,-88,274c0,0,0,92,29,159c0,0,28,66,76,120H150c0,0,-37,0,-57,32c0,0,-20,33,-20,108c0,0,0,33,8,60c0,0,8,27,21,45c0,0,14,17,25,17c0,0,20,0,20,-10V869c0,0,0,-24,31,-24H588c0,0,56,0,87,-20c0,0,31,-20,61,-81c0,0,30,-60,46,-129c0,0,15,-69,15,-151c0,0,0,-147,-43,-258C754,206,710,94,628,40c0,0,-81,-53,-194,-53Z" 
id="f1_z"
transform="scale(0.001,-0.001)" />

<path d="M20,0L75,212H492c0,0,19,51,25,97c0,0,5,46,5,105c0,0,0,63,-6,124c0,0,-6,61,-23,78c0,0,-16,18,-66,18H112c0,0,-36,0,-57,40c0,0,-21,40,-21,101c0,0,0,50,16,87c0,0,16,36,36,36c0,0,13,0,13,-14V870c0,0,0,-25,34,-25H457c0,0,63,0,92,-11c0,0,28,-10,41,-36c0,0,13,-26,18,-107c0,0,4,-80,4,-174c0,0,0,-174,-13,-224c0,0,-4,-15,-21,-41c0,0,-17,-25,-31,-40H688L640,0Z" 
id="f1_f"
transform="scale(0.001,-0.001)" />

<path d="M107,-18c0,0,-17,0,-17,18l3,9c0,0,23,48,23,124l-1,177c0,0,0,55,8,77c0,0,9,22,33,46c0,0,23,23,51,40c0,0,28,17,42,17c0,0,5,0,9,-3c0,0,5,-3,5,-8c0,0,0,-3,-11,-26c0,0,-14,-49,-14,-120l4,-223c0,0,0,-38,-9,-54c0,0,-8,-17,-32,-34C201,22,178,6,150,-5c0,0,-28,-13,-43,-13Zm547,0c0,0,-17,0,-17,18l2,10c0,0,10,38,10,109c0,0,0,79,-14,208c0,0,-15,128,-15,149c0,0,0,54,16,89c0,0,15,36,53,69H154c0,0,-35,0,-57,40c0,0,-21,40,-21,103c0,0,0,33,8,61c0,0,7,28,19,44c0,0,13,17,24,17c0,0,15,0,15,-13V869c0,0,0,-13,5,-19c0,0,5,-5,22,-5H718c0,0,50,0,50,-63V652c0,0,0,-21,-15,-30c0,0,-35,-24,-35,-77c0,0,0,-57,20,-169c0,0,27,-157,27,-272c0,0,0,-29,-6,-44c0,0,-6,-15,-17,-26c0,0,-12,-16,-47,-35L681,-9l-13,-6l-14,-3Z" 
id="f1_5"
transform="scale(0.001,-0.001)" />

<path d="M235,-20c0,0,-31,0,-51,19c0,0,-21,18,-21,50c0,0,0,65,39,120c0,0,39,54,125,109c0,0,56,35,87,56c0,0,32,20,46,33c0,0,79,45,79,143c0,0,0,27,-7,65c0,0,-8,39,-27,49c0,0,-19,10,-85,10H110c0,0,-36,0,-53,21c0,0,-17,22,-25,71c0,0,-7,49,-7,134c0,0,0,62,27,122c0,0,8,15,8,34c0,0,0,23,-35,37c0,0,-21,7,-30,29c0,0,-9,22,-9,72c0,0,0,24,10,46c0,0,8,22,25,38c0,0,16,16,26,16c0,0,17,0,17,-14c0,0,0,-9,7,-17c0,0,7,-8,34,-14c0,0,65,-15,81,-26c0,0,15,-10,15,-31c0,0,0,-15,-15,-38c0,0,-15,-22,-33,-53c0,0,-19,-30,-34,-67c0,0,-15,-36,-15,-79c0,0,0,-43,14,-56c0,0,15,-14,54,-14H518c0,0,39,0,63,-17c0,0,23,-16,33,-53c0,0,10,-36,17,-89c0,0,6,-52,6,-93c0,0,0,-99,-9,-144c0,0,-9,-44,-40,-80c0,0,-31,-36,-110,-86c0,0,-112,-71,-138,-95c0,0,-26,-23,-36,-44c0,0,-9,-20,-9,-43c0,0,0,-11,5,-26c0,0,6,-15,6,-26c0,0,0,-32,-20,-50c0,0,-20,-19,-51,-19Z" 
id="f1_r"
transform="scale(0.001,-0.001)" />

<path d="M216,0c0,0,-59,212,-83,350c0,0,-25,139,-25,198c0,0,0,76,23,127c0,0,-42,13,-58,43c0,0,-15,30,-15,72c0,0,0,40,20,74c0,0,20,34,37,34c0,0,10,0,10,-13c0,0,0,-42,69,-42c0,0,57,0,80,-21c0,0,22,-21,22,-62c0,0,0,-38,-7,-72c0,0,-6,-34,-12,-34c0,0,-6,0,-16,10c0,0,-10,10,-25,10c0,0,-25,0,-35,-24c0,0,-10,-24,-10,-71c0,0,0,-164,72,-374c0,0,38,80,116,231c0,0,87,168,121,238c0,0,-36,6,-52,34c0,0,-17,28,-17,66c0,0,0,41,21,82c0,0,20,42,37,42c0,0,9,0,10,-7c0,0,5,-22,13,-32c0,0,9,-11,32,-12l44,-4c0,0,87,-4,87,-94c0,0,0,-33,-7,-67c0,0,-8,-34,-16,-34l-16,10c0,0,-15,10,-30,10c0,0,-22,0,-39,-29c0,0,-18,-32,-39,-72c0,0,-21,-41,-178,-355H691l38,91c0,0,58,139,124,224c0,0,38,50,60,80c0,0,22,29,22,45c0,0,0,12,-7,19c0,0,-6,7,-27,12c0,0,-42,18,-60,41c0,0,-17,24,-17,59c0,0,0,29,11,56c0,0,12,27,27,43c0,0,16,16,26,16c0,0,9,-1,10,-6l4,-14c0,0,4,-21,27,-25l70,-13c0,0,32,-6,51,-30c0,0,20,-24,20,-61c0,0,-2,-45,-23,-87c0,0,-21,-41,-91,-127c0,0,-46,-57,-77,-116c0,0,-31,-59,-71,-161L706,0Z" 
id="f1_13"
transform="scale(0.001,-0.001)" />

<path d="M596,-296c0,0,-10,0,-12,6c0,0,-2,6,-2,24V548c0,0,0,38,-5,56c0,0,-4,18,-15,25c0,0,-11,7,-41,7H255c0,0,-36,-21,-63,-55c0,0,-26,-34,-26,-59c0,0,0,-24,37,-24l49,-2c0,0,42,0,68,-26c0,0,25,-25,25,-71c0,0,0,-69,-17,-119c0,0,-17,-50,-41,-50c0,0,-18,0,-18,19c0,0,0,34,-14,50c0,0,-14,17,-55,17c0,0,-37,0,-58,-12c0,0,-20,-12,-24,-43c0,0,-4,-21,-19,-21c0,0,-21,0,-33,36c0,0,-12,36,-12,103c0,0,0,77,28,142c0,0,28,66,81,115H131c0,0,-33,0,-52,33c0,0,-19,33,-19,90c0,0,0,51,15,96c0,0,15,44,30,44c0,0,17,0,17,-13V872c0,0,0,-9,7,-18c0,0,8,-9,27,-9H527c0,0,88,0,116,-28c0,0,29,-28,29,-113V-207c0,0,0,-12,-4,-25c0,0,-5,-13,-23,-28l-21,-18c0,0,-20,-18,-28,-18Z" 
id="f1_12"
transform="scale(0.001,-0.001)" />

<path d="M204,-8c0,0,-9,0,-11,5c0,0,-2,5,-2,22V549c0,0,0,40,-4,56c0,0,-4,16,-15,22c0,0,-10,7,-39,7H90c0,0,-33,0,-52,33c0,0,-19,33,-19,90c0,0,0,53,15,98c0,0,16,44,35,44c0,0,12,0,12,-13V872c0,0,0,-27,31,-27h42c0,0,79,0,103,-20c0,0,23,-19,23,-83V67c0,0,0,-16,-8,-26c0,0,-9,-10,-33,-30c0,0,-25,-19,-35,-19Z" 
id="f1_9"
transform="scale(0.001,-0.001)" />

<path d="M117,-176L179,62V190H336V62L213,-176Z" 
id="f0_7"
transform="scale(0.001,-0.001)" />

<path d="M543,-317V369c0,0,0,85,-8,143c0,0,-8,58,-27,101c0,0,-18,44,-51,69c0,0,-33,24,-80,36c0,0,-48,11,-117,11H66V836H257c0,0,125,0,205,-23c0,0,80,-23,130,-79c0,0,50,-56,70,-143c0,0,20,-86,20,-222V-317Z" 
id="f0_t"
transform="scale(0.001,-0.001)" />

<path d="M467,496c0,0,102,0,161,69c0,0,59,70,59,190c0,0,0,120,-59,190c0,0,-59,70,-161,70c0,0,-101,0,-160,-70c0,0,-60,-70,-60,-190c0,0,0,-120,60,-190c0,0,59,-69,160,-69ZM403,-20c0,0,-57,0,-115,11c0,0,-58,10,-121,32V160c0,0,57,-26,115,-40c0,0,58,-14,115,-14c0,0,149,0,228,100c0,0,79,100,90,305c0,0,-44,-65,-110,-99c0,0,-66,-35,-147,-35c0,0,-167,0,-265,102c0,0,-97,101,-97,276c0,0,0,172,101,275c0,0,102,104,270,104c0,0,194,0,295,-148c0,0,102,-148,102,-430c0,0,0,-263,-125,-420C739,136,614,-20,403,-20Z" 
id="f0_1q"
transform="scale(0.001,-0.001)" />


</defs>
</svg>