<?xml version="1.0" encoding="UTF-8" standalone="no"?>
<!DOCTYPE svg PUBLIC "-//W3C//DTD SVG 1.1//EN"
"http://www.w3.org/Graphics/SVG/1.1/DTD/svg11.dtd">
<svg viewBox="0 0 909 1286" version="1.1" xmlns="http://www.w3.org/2000/svg" xmlns:xlink="http://www.w3.org/1999/xlink">
<defs>
<clipPath id="c0_14"><path d="M0,1286.2V0H909.4V1286.2Z" /></clipPath>
<style type="text/css"><![CDATA[
.g0_14{
fill: #D8D8D8;
}
.g1_14{
fill: none;
stroke: #0000FF;
stroke-width: 1.0694444;
stroke-linecap: butt;
stroke-linejoin: miter;
}
.g2_14{
fill: none;
stroke: #000000;
stroke-width: 0.7638889;
stroke-linecap: butt;
stroke-linejoin: round;
}
]]></style>
</defs>
<path fill-rule="evenodd" d="M659.5,425.9h177v-20h-177v20Z" class="g0_14" />
<path fill-rule="evenodd" d="M464.6,425.9H659.5v-20H464.6v20Z" class="g0_14" />
<path fill-rule="evenodd" d="M237.3,425.9H464.5v-20H237.3v20Z" class="g0_14" />
<path fill-rule="evenodd" d="M746.2,445.4h90.3V425.9H746.2v19.5Z" class="g0_14" />
<path fill-rule="evenodd" d="M659.5,445.4h86.6V425.9H659.5v19.5Z" class="g0_14" />
<path fill-rule="evenodd" d="M562.2,445.4h97.3V425.9H562.2v19.5Z" class="g0_14" />
<path fill-rule="evenodd" d="M464.8,445.4h97.3V425.9H464.8v19.5Z" class="g0_14" />
<path fill-rule="evenodd" d="M356.4,445.4H464.7V425.9H356.4v19.5Z" class="g0_14" />
<path fill-rule="evenodd" d="M237.3,445.4H356.4V425.9H237.3v19.5Z" class="g0_14" />
<path fill-rule="evenodd" d="M128.9,465.4H237.2V445.5H128.9v19.9Z" class="g0_14" />
<path fill-rule="evenodd" d="M128.9,485.6H237.2V465.5H128.9v20.1Z" class="g0_14" />
<path fill-rule="evenodd" d="M128.9,505.6H237.2V485.7H128.9v19.9Z" class="g0_14" />
<path fill-rule="evenodd" d="M128.9,525.8H237.2V505.7H128.9v20.1Z" class="g0_14" />
<path fill-rule="evenodd" d="M128.9,545.8H237.2V525.9H128.9v19.9Z" class="g0_14" />
<path fill-rule="evenodd" d="M659.5,686.8h177V666.7h-177v20.1Z" class="g0_14" />
<path fill-rule="evenodd" d="M464.6,686.8H659.5V666.7H464.6v20.1Z" class="g0_14" />
<path fill-rule="evenodd" d="M237.3,686.8H464.5V666.7H237.3v20.1Z" class="g0_14" />
<path fill-rule="evenodd" d="M746.2,709h90.3V686.9H746.2V709Z" class="g0_14" />
<path fill-rule="evenodd" d="M659.5,709h86.6V686.9H659.5V709Z" class="g0_14" />
<path fill-rule="evenodd" d="M562.2,709h97.3V686.9H562.2V709Z" class="g0_14" />
<path fill-rule="evenodd" d="M464.8,709h97.3V686.9H464.8V709Z" class="g0_14" />
<path fill-rule="evenodd" d="M356.4,709H464.7V686.9H356.4V709Z" class="g0_14" />
<path fill-rule="evenodd" d="M237.3,709H356.4V686.9H237.3V709Z" class="g0_14" />
<path fill-rule="evenodd" d="M128.9,729H237.2V709H128.9v20Z" class="g0_14" />
<path fill-rule="evenodd" d="M128.9,749.1H237.2v-20H128.9v20Z" class="g0_14" />
<path fill-rule="evenodd" d="M128.9,769.2H237.2v-20H128.9v20Z" class="g0_14" />
<path fill-rule="evenodd" d="M128.9,789.3H237.2V769.2H128.9v20.1Z" class="g0_14" />
<path fill-rule="evenodd" d="M128.9,809.3H237.2V789.4H128.9v19.9Z" class="g0_14" />
<path fill-rule="evenodd" d="M659.5,425.9h177v-20h-177v20Z" class="g0_14" />
<path fill-rule="evenodd" d="M464.6,425.9H659.5v-20H464.6v20Z" class="g0_14" />
<path fill-rule="evenodd" d="M237.3,425.9H464.5v-20H237.3v20Z" class="g0_14" />
<path fill-rule="evenodd" d="M746.2,445.4h90.3V425.9H746.2v19.5Z" class="g0_14" />
<path fill-rule="evenodd" d="M659.5,445.4h86.6V425.9H659.5v19.5Z" class="g0_14" />
<path fill-rule="evenodd" d="M562.2,445.4h97.3V425.9H562.2v19.5Z" class="g0_14" />
<path fill-rule="evenodd" d="M464.8,445.4h97.3V425.9H464.8v19.5Z" class="g0_14" />
<path fill-rule="evenodd" d="M356.4,445.4H464.7V425.9H356.4v19.5Z" class="g0_14" />
<path fill-rule="evenodd" d="M237.3,445.4H356.4V425.9H237.3v19.5Z" class="g0_14" />
<path fill-rule="evenodd" d="M128.9,465.4H237.2V445.5H128.9v19.9Z" class="g0_14" />
<path fill-rule="evenodd" d="M128.9,485.6H237.2V465.5H128.9v20.1Z" class="g0_14" />
<path fill-rule="evenodd" d="M128.9,505.6H237.2V485.7H128.9v19.9Z" class="g0_14" />
<path fill-rule="evenodd" d="M128.9,525.8H237.2V505.7H128.9v20.1Z" class="g0_14" />
<path fill-rule="evenodd" d="M128.9,545.8H237.2V525.9H128.9v19.9Z" class="g0_14" />
<path fill-rule="evenodd" d="M659.5,686.8h177V666.7h-177v20.1Z" class="g0_14" />
<path fill-rule="evenodd" d="M464.6,686.8H659.5V666.7H464.6v20.1Z" class="g0_14" />
<path fill-rule="evenodd" d="M237.3,686.8H464.5V666.7H237.3v20.1Z" class="g0_14" />
<path fill-rule="evenodd" d="M746.2,709h90.3V686.9H746.2V709Z" class="g0_14" />
<path fill-rule="evenodd" d="M659.5,709h86.6V686.9H659.5V709Z" class="g0_14" />
<path fill-rule="evenodd" d="M562.2,709h97.3V686.9H562.2V709Z" class="g0_14" />
<path fill-rule="evenodd" d="M464.8,709h97.3V686.9H464.8V709Z" class="g0_14" />
<path fill-rule="evenodd" d="M356.4,709H464.7V686.9H356.4V709Z" class="g0_14" />
<path fill-rule="evenodd" d="M237.3,709H356.4V686.9H237.3V709Z" class="g0_14" />
<path fill-rule="evenodd" d="M128.9,729H237.2V709H128.9v20Z" class="g0_14" />
<path fill-rule="evenodd" d="M128.9,749.1H237.2v-20H128.9v20Z" class="g0_14" />
<path fill-rule="evenodd" d="M128.9,769.2H237.2v-20H128.9v20Z" class="g0_14" />
<path fill-rule="evenodd" d="M128.9,789.3H237.2V769.2H128.9v20.1Z" class="g0_14" />
<path fill-rule="evenodd" d="M128.9,809.3H237.2V789.4H128.9v19.9Z" class="g0_14" />
<g clip-path="url(#c0_14)">
<g fill="#000000" >
<use xlink:href="#f0_e" transform="matrix(16,0,0,16,700.8,132.9)" />
<use xlink:href="#f0_5" transform="matrix(16,0,0,16,715.6,132.9)" />
<use xlink:href="#f0_15" transform="matrix(16,0,0,16,721.8,132.9)" />
<use xlink:href="#f0_5" transform="matrix(16,0,0,16,733.6,132.9)" />
<use xlink:href="#f0_6" transform="matrix(16,0,0,16,739.8,132.9)" />
<use xlink:href="#f0_e" transform="matrix(16,0,0,16,757.1,132.9)" />
<use xlink:href="#f1_a" transform="matrix(12,0,0,12,723.8,174.5)" />
<use xlink:href="#f1_8" transform="matrix(12,0,0,12,735,174.5)" />
<use xlink:href="#f1_k" transform="matrix(12,0,0,12,740.3,174.5)" />
<use xlink:href="#f1_4" transform="matrix(12,0,0,12,748.6,174.5)" />
<use xlink:href="#f1_h" transform="matrix(12,0,0,12,759.6,174.5)" />
<use xlink:href="#f1_m" transform="matrix(12,0,0,12,704.6,174.5)" />
<use xlink:href="#f2_8" transform="matrix(12,0,0,12,689.8,215.3)" />
<use xlink:href="#f2_c" transform="matrix(12,0,0,12,695.6,215.3)" />
<use xlink:href="#f2_i" transform="matrix(12,0,0,12,708.6,215.3)" />
<use xlink:href="#f2_n" transform="matrix(12,0,0,12,712.7,215.3)" />
<use xlink:href="#f2_q" transform="matrix(12,0,0,12,720.2,215.3)" />
<use xlink:href="#f2_7" transform="matrix(12,0,0,12,730.4,215.3)" />
<use xlink:href="#f2_i" transform="matrix(12,0,0,12,748.9,215.3)" />
<use xlink:href="#f2_9" transform="matrix(12,0,0,12,753,215.3)" />
<use xlink:href="#f2_s" transform="matrix(12,0,0,12,760.3,215.3)" />
<use xlink:href="#f3_1h" transform="matrix(11,0,0,11,463.5,213.9)" />
<use xlink:href="#f3_9" transform="matrix(11,0,0,11,475.6,213.9)" />
<use xlink:href="#f3_6" transform="matrix(11,0,0,11,488.3,213.9)" />
<use xlink:href="#f3_3" transform="matrix(11,0,0,11,494.7,213.9)" />
<use xlink:href="#f3_2" transform="matrix(11,0,0,11,499.4,213.9)" />
<use xlink:href="#f3_5" transform="matrix(11,0,0,11,506.9,213.9)" />
<use xlink:href="#f3_e" transform="matrix(11,0,0,11,515.3,213.9)" />
<use xlink:href="#f3_9" transform="matrix(11,0,0,11,520,213.9)" />
<use xlink:href="#f3_q" transform="matrix(11,0,0,11,528.2,213.9)" />
<use xlink:href="#f2_8" transform="matrix(12,0,0,12,351.5,215.3)" />
<use xlink:href="#f2_g" transform="matrix(12,0,0,12,357.4,215.3)" />
<use xlink:href="#f2_c" transform="matrix(12,0,0,12,369.3,215.3)" />
<use xlink:href="#f2_i" transform="matrix(12,0,0,12,382.3,215.3)" />
<use xlink:href="#f2_n" transform="matrix(12,0,0,12,386.4,215.3)" />
<use xlink:href="#f2_q" transform="matrix(12,0,0,12,393.8,215.3)" />
<use xlink:href="#f2_7" transform="matrix(12,0,0,12,404.1,215.3)" />
<use xlink:href="#f2_h" transform="matrix(12,0,0,12,422.5,215.3)" />
<use xlink:href="#f2_s" transform="matrix(12,0,0,12,434.6,215.3)" />
<use xlink:href="#f3_1s" transform="matrix(11,0,0,11,137.7,213.9)" />
<use xlink:href="#f3_j" transform="matrix(11,0,0,11,147.9,213.9)" />
<use xlink:href="#f3_6" transform="matrix(11,0,0,11,160.6,213.9)" />
<use xlink:href="#f3_3" transform="matrix(11,0,0,11,167,213.9)" />
<use xlink:href="#f3_2" transform="matrix(11,0,0,11,171.7,213.9)" />
<use xlink:href="#f3_5" transform="matrix(11,0,0,11,179.2,213.9)" />
<use xlink:href="#f3_e" transform="matrix(11,0,0,11,187.6,213.9)" />
<use xlink:href="#f3_2" transform="matrix(11,0,0,11,192.3,213.9)" />
<use xlink:href="#f3_6" transform="matrix(11,0,0,11,199.6,213.9)" />
<use xlink:href="#f3_q" transform="matrix(11,0,0,11,206.2,213.9)" />
<use xlink:href="#f2_8" transform="matrix(12,0,0,12,688.4,236.7)" />
<use xlink:href="#f2_h" transform="matrix(12,0,0,12,694.2,236.7)" />
<use xlink:href="#f2_6" transform="matrix(12,0,0,12,706.3,236.7)" />
<use xlink:href="#f2_r" transform="matrix(12,0,0,12,711.2,236.7)" />
<use xlink:href="#f2_6" transform="matrix(12,0,0,12,722,236.7)" />
<use xlink:href="#f2_q" transform="matrix(12,0,0,12,727,236.7)" />
<use xlink:href="#f2_3" transform="matrix(12,0,0,12,743.2,236.7)" />
<use xlink:href="#f2_h" transform="matrix(12,0,0,12,748.3,236.7)" />
<use xlink:href="#f2_s" transform="matrix(12,0,0,12,760.3,236.7)" />
<use xlink:href="#f3_o" transform="matrix(11,0,0,11,463.5,235.3)" />
<use xlink:href="#f3_p" transform="matrix(11,0,0,11,475.6,235.3)" />
<use xlink:href="#f3_6" transform="matrix(11,0,0,11,484,235.3)" />
<use xlink:href="#f3_q" transform="matrix(11,0,0,11,490.6,235.3)" />
<use xlink:href="#f3_f" transform="matrix(11,0,0,11,498.9,235.3)" />
<use xlink:href="#f3_g" transform="matrix(11,0,0,11,507.3,235.3)" />
<use xlink:href="#f3_3" transform="matrix(11,0,0,11,515.7,235.3)" />
<use xlink:href="#f3_2" transform="matrix(11,0,0,11,520.3,235.3)" />
<use xlink:href="#f3_8" transform="matrix(11,0,0,11,527.8,235.3)" />
<use xlink:href="#f3_2" transform="matrix(11,0,0,11,533.4,235.3)" />
<use xlink:href="#f3_5" transform="matrix(11,0,0,11,540.9,235.3)" />
<use xlink:href="#f3_q" transform="matrix(11,0,0,11,549.1,235.3)" />
<use xlink:href="#f2_8" transform="matrix(12,0,0,12,330.9,236.7)" />
<use xlink:href="#f2_l" transform="matrix(12,0,0,12,336.7,236.7)" />
<use xlink:href="#f2_i" transform="matrix(12,0,0,12,348.9,236.7)" />
<use xlink:href="#f2_f" transform="matrix(12,0,0,12,353,236.7)" />
<use xlink:href="#f2_c" transform="matrix(12,0,0,12,363.6,236.7)" />
<use xlink:href="#f2_6" transform="matrix(12,0,0,12,376.6,236.7)" />
<use xlink:href="#f2_k" transform="matrix(12,0,0,12,381.6,236.7)" />
<use xlink:href="#f2_l" transform="matrix(12,0,0,12,399.3,236.7)" />
<use xlink:href="#f2_a" transform="matrix(12,0,0,12,411.5,236.7)" />
<use xlink:href="#f2_6" transform="matrix(12,0,0,12,421.6,236.7)" />
<use xlink:href="#f2_f" transform="matrix(12,0,0,12,426.6,236.7)" />
<use xlink:href="#f2_4" transform="matrix(12,0,0,12,437.2,236.7)" />
<use xlink:href="#f3_o" transform="matrix(11,0,0,11,137.7,235.3)" />
<use xlink:href="#f3_p" transform="matrix(11,0,0,11,149.7,235.3)" />
<use xlink:href="#f3_6" transform="matrix(11,0,0,11,158.1,235.3)" />
<use xlink:href="#f3_q" transform="matrix(11,0,0,11,164.7,235.3)" />
<use xlink:href="#f3_4" transform="matrix(11,0,0,11,173.2,235.3)" />
<use xlink:href="#f3_3" transform="matrix(11,0,0,11,181.5,235.3)" />
<use xlink:href="#f3_2" transform="matrix(11,0,0,11,186.2,235.3)" />
<use xlink:href="#f3_5" transform="matrix(11,0,0,11,193.6,235.3)" />
<use xlink:href="#f3_6" transform="matrix(11,0,0,11,202.1,235.3)" />
<use xlink:href="#f3_7" transform="matrix(11,0,0,11,208.6,235.3)" />
<use xlink:href="#f3_5" transform="matrix(11,0,0,11,216.1,235.3)" />
<use xlink:href="#f3_q" transform="matrix(11,0,0,11,224.3,235.3)" />
<use xlink:href="#f2_8" transform="matrix(12,0,0,12,660.2,258)" />
<use xlink:href="#f2_l" transform="matrix(12,0,0,12,666,258)" />
<use xlink:href="#f2_i" transform="matrix(12,0,0,12,678.2,258)" />
<use xlink:href="#f2_f" transform="matrix(12,0,0,12,682.3,258)" />
<use xlink:href="#f2_c" transform="matrix(12,0,0,12,692.8,258)" />
<use xlink:href="#f2_6" transform="matrix(12,0,0,12,705.8,258)" />
<use xlink:href="#f2_k" transform="matrix(12,0,0,12,710.8,258)" />
<use xlink:href="#f2_6" transform="matrix(12,0,0,12,728.7,258)" />
<use xlink:href="#f2_9" transform="matrix(12,0,0,12,733.7,258)" />
<use xlink:href="#f2_k" transform="matrix(12,0,0,12,741,258)" />
<use xlink:href="#f2_9" transform="matrix(12,0,0,12,753,258)" />
<use xlink:href="#f2_s" transform="matrix(12,0,0,12,760.3,258)" />
<use xlink:href="#f3_1u" transform="matrix(11,0,0,11,463.5,256.7)" />
<use xlink:href="#f3_9" transform="matrix(11,0,0,11,475.6,256.7)" />
<use xlink:href="#f3_6" transform="matrix(11,0,0,11,484,256.7)" />
<use xlink:href="#f3_9" transform="matrix(11,0,0,11,490.6,256.7)" />
<use xlink:href="#f3_e" transform="matrix(11,0,0,11,499,256.7)" />
<use xlink:href="#f3_8" transform="matrix(11,0,0,11,503.5,256.7)" />
<use xlink:href="#f3_9" transform="matrix(11,0,0,11,509.2,256.7)" />
<use xlink:href="#f3_6" transform="matrix(11,0,0,11,517.6,256.7)" />
<use xlink:href="#f3_4" transform="matrix(11,0,0,11,528.4,256.7)" />
<use xlink:href="#f3_2" transform="matrix(11,0,0,11,536.6,256.7)" />
<use xlink:href="#f3_5" transform="matrix(11,0,0,11,544.1,256.7)" />
<use xlink:href="#f3_6" transform="matrix(11,0,0,11,552.5,256.7)" />
<use xlink:href="#f3_7" transform="matrix(11,0,0,11,559.1,256.7)" />
<use xlink:href="#f3_r" transform="matrix(11,0,0,11,566.5,256.7)" />
<use xlink:href="#f3_9" transform="matrix(11,0,0,11,579.7,256.7)" />
<use xlink:href="#f3_6" transform="matrix(11,0,0,11,588.1,256.7)" />
<use xlink:href="#f3_q" transform="matrix(11,0,0,11,594.5,256.7)" />
<use xlink:href="#f2_8" transform="matrix(12,0,0,12,367.9,258)" />
<use xlink:href="#f2_g" transform="matrix(12,0,0,12,373.7,258)" />
<use xlink:href="#f2_r" transform="matrix(12,0,0,12,385.6,258)" />
<use xlink:href="#f2_6" transform="matrix(12,0,0,12,396.5,258)" />
<use xlink:href="#f2_q" transform="matrix(12,0,0,12,401.4,258)" />
<use xlink:href="#f2_s" transform="matrix(12,0,0,12,417.7,258)" />
<use xlink:href="#f2_6" transform="matrix(12,0,0,12,429.9,258)" />
<use xlink:href="#f2_g" transform="matrix(12,0,0,12,434.9,258)" />
<use xlink:href="#f3_18" transform="matrix(11,0,0,11,137.7,256.7)" />
<use xlink:href="#f3_m" transform="matrix(11,0,0,11,147.9,256.7)" />
<use xlink:href="#f3_f" transform="matrix(11,0,0,11,156.9,256.7)" />
<use xlink:href="#f3_g" transform="matrix(11,0,0,11,165.3,256.7)" />
<use xlink:href="#f3_3" transform="matrix(11,0,0,11,173.5,256.7)" />
<use xlink:href="#f3_2" transform="matrix(11,0,0,11,178.3,256.7)" />
<use xlink:href="#f3_8" transform="matrix(11,0,0,11,185.7,256.7)" />
<use xlink:href="#f3_2" transform="matrix(11,0,0,11,191.2,256.7)" />
<use xlink:href="#f3_q" transform="matrix(11,0,0,11,198.7,256.7)" />
<use xlink:href="#f2_8" transform="matrix(12,0,0,12,673.8,279.4)" />
<use xlink:href="#f2_h" transform="matrix(12,0,0,12,679.6,279.4)" />
<use xlink:href="#f2_6" transform="matrix(12,0,0,12,691.6,279.4)" />
<use xlink:href="#f2_r" transform="matrix(12,0,0,12,696.6,279.4)" />
<use xlink:href="#f2_6" transform="matrix(12,0,0,12,707.5,279.4)" />
<use xlink:href="#f2_q" transform="matrix(12,0,0,12,712.4,279.4)" />
<use xlink:href="#f2_6" transform="matrix(12,0,0,12,728.7,279.4)" />
<use xlink:href="#f2_9" transform="matrix(12,0,0,12,733.7,279.4)" />
<use xlink:href="#f2_k" transform="matrix(12,0,0,12,741.1,279.4)" />
<use xlink:href="#f2_9" transform="matrix(12,0,0,12,753,279.4)" />
<use xlink:href="#f2_s" transform="matrix(12,0,0,12,760.3,279.4)" />
<use xlink:href="#f3_1u" transform="matrix(11,0,0,11,463.5,278.1)" />
<use xlink:href="#f3_9" transform="matrix(11,0,0,11,475.6,278.1)" />
<use xlink:href="#f3_6" transform="matrix(11,0,0,11,484,278.1)" />
<use xlink:href="#f3_9" transform="matrix(11,0,0,11,490.6,278.1)" />
<use xlink:href="#f3_e" transform="matrix(11,0,0,11,499,278.1)" />
<use xlink:href="#f3_8" transform="matrix(11,0,0,11,503.5,278.1)" />
<use xlink:href="#f3_7" transform="matrix(11,0,0,11,509.2,278.1)" />
<use xlink:href="#f3_6" transform="matrix(11,0,0,11,516.6,278.1)" />
<use xlink:href="#f3_f" transform="matrix(11,0,0,11,527.3,278.1)" />
<use xlink:href="#f3_g" transform="matrix(11,0,0,11,535.7,278.1)" />
<use xlink:href="#f3_2" transform="matrix(11,0,0,11,544.1,278.1)" />
<use xlink:href="#f3_8" transform="matrix(11,0,0,11,551.6,278.1)" />
<use xlink:href="#f3_2" transform="matrix(11,0,0,11,557.2,278.1)" />
<use xlink:href="#f3_r" transform="matrix(11,0,0,11,564.5,278.1)" />
<use xlink:href="#f3_9" transform="matrix(11,0,0,11,577.7,278.1)" />
<use xlink:href="#f3_6" transform="matrix(11,0,0,11,586.1,278.1)" />
<use xlink:href="#f3_q" transform="matrix(11,0,0,11,592.6,278.1)" />
<use xlink:href="#f2_8" transform="matrix(12,0,0,12,360.6,279.4)" />
<use xlink:href="#f2_h" transform="matrix(12,0,0,12,366.4,279.4)" />
<use xlink:href="#f2_6" transform="matrix(12,0,0,12,378.4,279.4)" />
<use xlink:href="#f2_f" transform="matrix(12,0,0,12,383.4,279.4)" />
<use xlink:href="#f2_c" transform="matrix(12,0,0,12,394,279.4)" />
<use xlink:href="#f2_6" transform="matrix(12,0,0,12,407,279.4)" />
<use xlink:href="#f2_k" transform="matrix(12,0,0,12,412,279.4)" />
<use xlink:href="#f2_3" transform="matrix(12,0,0,12,429.8,279.4)" />
<use xlink:href="#f2_g" transform="matrix(12,0,0,12,434.9,279.4)" />
<use xlink:href="#f3_c" transform="matrix(11,0,0,11,137.7,278.1)" />
<use xlink:href="#f3_m" transform="matrix(11,0,0,11,147.9,278.1)" />
<use xlink:href="#f3_m" transform="matrix(11,0,0,11,152.6,278.1)" />
<use xlink:href="#f3_7" transform="matrix(11,0,0,11,157.2,278.1)" />
<use xlink:href="#f3_6" transform="matrix(11,0,0,11,164.7,278.1)" />
<use xlink:href="#f3_4" transform="matrix(11,0,0,11,175.5,278.1)" />
<use xlink:href="#f3_3" transform="matrix(11,0,0,11,183.7,278.1)" />
<use xlink:href="#f3_2" transform="matrix(11,0,0,11,188.5,278.1)" />
<use xlink:href="#f3_5" transform="matrix(11,0,0,11,195.9,278.1)" />
<use xlink:href="#f3_6" transform="matrix(11,0,0,11,204.3,278.1)" />
<use xlink:href="#f3_7" transform="matrix(11,0,0,11,210.9,278.1)" />
<use xlink:href="#f3_5" transform="matrix(11,0,0,11,218.3,278.1)" />
<use xlink:href="#f3_q" transform="matrix(11,0,0,11,226.6,278.1)" />
<use xlink:href="#f2_8" transform="matrix(12,0,0,12,673,300.8)" />
<use xlink:href="#f2_l" transform="matrix(12,0,0,12,678.8,300.8)" />
<use xlink:href="#f2_i" transform="matrix(12,0,0,12,691,300.8)" />
<use xlink:href="#f2_c" transform="matrix(12,0,0,12,695.1,300.8)" />
<use xlink:href="#f2_i" transform="matrix(12,0,0,12,708.1,300.8)" />
<use xlink:href="#f2_n" transform="matrix(12,0,0,12,712.2,300.8)" />
<use xlink:href="#f2_q" transform="matrix(12,0,0,12,719.7,300.8)" />
<use xlink:href="#f2_7" transform="matrix(12,0,0,12,729.9,300.8)" />
<use xlink:href="#f2_l" transform="matrix(12,0,0,12,748.4,300.8)" />
<use xlink:href="#f2_g" transform="matrix(12,0,0,12,760.6,300.8)" />
<use xlink:href="#f3_c" transform="matrix(11,0,0,11,463.5,299.4)" />
<use xlink:href="#f3_m" transform="matrix(11,0,0,11,473.8,299.4)" />
<use xlink:href="#f3_m" transform="matrix(11,0,0,11,478.4,299.4)" />
<use xlink:href="#f3_9" transform="matrix(11,0,0,11,483.1,299.4)" />
<use xlink:href="#f3_6" transform="matrix(11,0,0,11,491.5,299.4)" />
<use xlink:href="#f3_6" transform="matrix(11,0,0,11,502.1,299.4)" />
<use xlink:href="#f3_3" transform="matrix(11,0,0,11,508.7,299.4)" />
<use xlink:href="#f3_2" transform="matrix(11,0,0,11,513.4,299.4)" />
<use xlink:href="#f3_5" transform="matrix(11,0,0,11,520.9,299.4)" />
<use xlink:href="#f3_e" transform="matrix(11,0,0,11,529.1,299.4)" />
<use xlink:href="#f3_2" transform="matrix(11,0,0,11,533.9,299.4)" />
<use xlink:href="#f3_5" transform="matrix(11,0,0,11,541.3,299.4)" />
<use xlink:href="#f3_q" transform="matrix(11,0,0,11,549.7,299.4)" />
<use xlink:href="#f2_8" transform="matrix(12,0,0,12,347.4,300.8)" />
<use xlink:href="#f2_c" transform="matrix(12,0,0,12,353.2,300.8)" />
<use xlink:href="#f2_i" transform="matrix(12,0,0,12,366.2,300.8)" />
<use xlink:href="#f2_n" transform="matrix(12,0,0,12,370.3,300.8)" />
<use xlink:href="#f2_q" transform="matrix(12,0,0,12,377.8,300.8)" />
<use xlink:href="#f2_7" transform="matrix(12,0,0,12,388.2,300.8)" />
<use xlink:href="#f2_6" transform="matrix(12,0,0,12,406.5,300.8)" />
<use xlink:href="#f2_a" transform="matrix(12,0,0,12,411.5,300.8)" />
<use xlink:href="#f2_6" transform="matrix(12,0,0,12,421.6,300.8)" />
<use xlink:href="#f2_f" transform="matrix(12,0,0,12,426.6,300.8)" />
<use xlink:href="#f2_4" transform="matrix(12,0,0,12,437.1,300.8)" />
<use xlink:href="#f3_o" transform="matrix(11,0,0,11,137.7,299.4)" />
<use xlink:href="#f3_p" transform="matrix(11,0,0,11,149.7,299.4)" />
<use xlink:href="#f3_q" transform="matrix(11,0,0,11,158.1,299.4)" />
<use xlink:href="#f3_6" transform="matrix(11,0,0,11,166.7,299.4)" />
<use xlink:href="#f3_3" transform="matrix(11,0,0,11,173.1,299.4)" />
<use xlink:href="#f3_2" transform="matrix(11,0,0,11,177.8,299.4)" />
<use xlink:href="#f3_5" transform="matrix(11,0,0,11,185.3,299.4)" />
<use xlink:href="#f3_e" transform="matrix(11,0,0,11,193.7,299.4)" />
<use xlink:href="#f3_2" transform="matrix(11,0,0,11,198.3,299.4)" />
<use xlink:href="#f3_q" transform="matrix(11,0,0,11,205.7,299.4)" />
</g>
<g fill="#0000FF" >
<use xlink:href="#f2_j" transform="matrix(12,0,0,12,670.2,341.5)" />
<use xlink:href="#f2_q" transform="matrix(12,0,0,12,683.2,341.5)" />
<use xlink:href="#f2_m" transform="matrix(12,0,0,12,693.6,341.5)" />
<use xlink:href="#f2_b" transform="matrix(12,0,0,12,705,341.5)" />
<use xlink:href="#f2_g" transform="matrix(12,0,0,12,721.4,341.5)" />
<use xlink:href="#f2_q" transform="matrix(12,0,0,12,733.3,341.5)" />
<use xlink:href="#f2_p" transform="matrix(12,0,0,12,743.7,341.5)" />
<use xlink:href="#f2_k" transform="matrix(12,0,0,12,750.1,341.5)" />
<use xlink:href="#f2_f" transform="matrix(12,0,0,12,762,341.5)" />
</g>
</g>
<path d="M670.2,343.3H772.6" class="g1_14" />
<g clip-path="url(#c0_14)">
<g fill="#000000" >
<use xlink:href="#f1_a" transform="matrix(12,0,0,12,723.8,401.5)" />
<use xlink:href="#f1_8" transform="matrix(12,0,0,12,735,401.5)" />
<use xlink:href="#f1_k" transform="matrix(12,0,0,12,740.3,401.5)" />
<use xlink:href="#f1_4" transform="matrix(12,0,0,12,748.6,401.5)" />
<use xlink:href="#f1_h" transform="matrix(12,0,0,12,759.6,401.5)" />
<use xlink:href="#f1_n" transform="matrix(12,0,0,12,704.6,401.5)" />
</g>
</g>
<path d="M236.9,406.3H837m-600.1,20H837M128.6,445.9H837m-708.4,20H837M128.6,486.1H837m-708.4,20H837M128.6,526.2H837M128.6,546.3H837M128.9,445.5V546.6M237.3,405.9v20m0,19.6V546.6m0,-120.7v20.4M464.6,405.9v20.8m0,18.8V546.6m.2,-120.7v20.4M659.5,405.9V546.6M836.6,405.9V546.6" class="g2_14" />
<g clip-path="url(#c0_14)">
<g fill="#000000" >
<use xlink:href="#f3_a" transform="matrix(11,0,0,11,668.4,422.3)" />
<use xlink:href="#f3_b" transform="matrix(11,0,0,11,674,422.3)" />
<use xlink:href="#f3_c" transform="matrix(11,0,0,11,473.5,422.3)" />
<use xlink:href="#f3_b" transform="matrix(11,0,0,11,483.7,422.3)" />
<use xlink:href="#f3_d" transform="matrix(11,0,0,11,246,422.3)" />
<use xlink:href="#f3_b" transform="matrix(11,0,0,11,258,422.3)" />
<use xlink:href="#f2_12" transform="matrix(10.5,0,0,10.5,776.4,441.7)" />
<use xlink:href="#f2_i" transform="matrix(10.5,0,0,10.5,786.7,441.7)" />
<use xlink:href="#f2_a" transform="matrix(10.5,0,0,10.5,790.2,441.7)" />
<use xlink:href="#f2_e" transform="matrix(10.5,0,0,10.5,798.9,441.7)" />
<use xlink:href="#f2_g" transform="matrix(10.5,0,0,10.5,808.9,441.7)" />
<use xlink:href="#f2_b" transform="matrix(10.5,0,0,10.5,819.3,441.7)" />
<use xlink:href="#f3_4" transform="matrix(10.5,0,0,10.5,668.4,441.7)" />
<use xlink:href="#f3_8" transform="matrix(10.5,0,0,10.5,676.3,441.7)" />
<use xlink:href="#f3_2" transform="matrix(10.5,0,0,10.5,681.7,441.7)" />
<use xlink:href="#f3_x" transform="matrix(10.5,0,0,10.5,688.9,441.7)" />
<use xlink:href="#f3_2" transform="matrix(10.5,0,0,10.5,694.1,441.7)" />
<use xlink:href="#f3_8" transform="matrix(10.5,0,0,10.5,701.2,441.7)" />
<use xlink:href="#f3_3" transform="matrix(10.5,0,0,10.5,706.6,441.7)" />
<use xlink:href="#f3_8" transform="matrix(10.5,0,0,10.5,711,441.7)" />
<use xlink:href="#f2_a" transform="matrix(10.5,0,0,10.5,613.7,441.7)" />
<use xlink:href="#f2_f" transform="matrix(10.5,0,0,10.5,622.4,441.7)" />
<use xlink:href="#f2_s" transform="matrix(10.5,0,0,10.5,631.6,441.7)" />
<use xlink:href="#f2_b" transform="matrix(10.5,0,0,10.5,642.3,441.7)" />
<use xlink:href="#f3_4" transform="matrix(10.5,0,0,10.5,473.5,441.7)" />
<use xlink:href="#f3_2" transform="matrix(10.5,0,0,10.5,481.5,441.7)" />
<use xlink:href="#f3_8" transform="matrix(10.5,0,0,10.5,488.6,441.7)" />
<use xlink:href="#f3_p" transform="matrix(10.5,0,0,10.5,493.9,441.7)" />
<use xlink:href="#f3_2" transform="matrix(10.5,0,0,10.5,501.9,441.7)" />
<use xlink:href="#f3_8" transform="matrix(10.5,0,0,10.5,509,441.7)" />
<use xlink:href="#f2_q" transform="matrix(10.5,0,0,10.5,416.9,441.7)" />
<use xlink:href="#f2_6" transform="matrix(10.5,0,0,10.5,425.9,441.7)" />
<use xlink:href="#f2_n" transform="matrix(10.5,0,0,10.5,430.4,441.7)" />
<use xlink:href="#f2_o" transform="matrix(10.5,0,0,10.5,436.9,441.7)" />
<use xlink:href="#f2_b" transform="matrix(10.5,0,0,10.5,447.3,441.7)" />
<use xlink:href="#f3_y" transform="matrix(10.5,0,0,10.5,246.1,441.7)" />
<use xlink:href="#f3_2" transform="matrix(10.5,0,0,10.5,253.2,441.7)" />
<use xlink:href="#f3_8" transform="matrix(10.5,0,0,10.5,260.3,441.7)" />
<use xlink:href="#f3_8" transform="matrix(10.5,0,0,10.5,265.7,441.7)" />
<use xlink:href="#f3_7" transform="matrix(10.5,0,0,10.5,271,441.7)" />
<use xlink:href="#f3_8" transform="matrix(10.5,0,0,10.5,278.2,441.7)" />
<use xlink:href="#f3_4" transform="matrix(10.5,0,0,10.5,668.4,461.2)" />
<use xlink:href="#f3_8" transform="matrix(10.5,0,0,10.5,676.3,461.2)" />
<use xlink:href="#f3_2" transform="matrix(10.5,0,0,10.5,681.7,461.2)" />
<use xlink:href="#f3_x" transform="matrix(10.5,0,0,10.5,688.9,461.2)" />
<use xlink:href="#f3_3" transform="matrix(10.5,0,0,10.5,694.2,461.2)" />
<use xlink:href="#f3_2" transform="matrix(10.5,0,0,10.5,698.6,461.2)" />
<use xlink:href="#f3_8" transform="matrix(10.5,0,0,10.5,705.8,461.2)" />
<use xlink:href="#f3_9" transform="matrix(10.5,0,0,10.5,711,461.2)" />
<use xlink:href="#f3_4" transform="matrix(10.5,0,0,10.5,473.5,461.2)" />
<use xlink:href="#f3_3" transform="matrix(10.5,0,0,10.5,481.4,461.2)" />
<use xlink:href="#f3_2" transform="matrix(10.5,0,0,10.5,485.8,461.2)" />
<use xlink:href="#f3_8" transform="matrix(10.5,0,0,10.5,493,461.2)" />
<use xlink:href="#f3_p" transform="matrix(10.5,0,0,10.5,498.3,461.2)" />
<use xlink:href="#f3_9" transform="matrix(10.5,0,0,10.5,506.3,461.2)" />
<use xlink:href="#f3_y" transform="matrix(10.5,0,0,10.5,246,461.2)" />
<use xlink:href="#f3_3" transform="matrix(10.5,0,0,10.5,253.1,461.2)" />
<use xlink:href="#f3_2" transform="matrix(10.5,0,0,10.5,257.6,461.2)" />
<use xlink:href="#f3_8" transform="matrix(10.5,0,0,10.5,264.7,461.2)" />
<use xlink:href="#f3_8" transform="matrix(10.5,0,0,10.5,270.1,461.2)" />
<use xlink:href="#f3_9" transform="matrix(10.5,0,0,10.5,275.3,461.2)" />
<use xlink:href="#f3_i" transform="matrix(11,0,0,11,137.7,461.8)" />
<use xlink:href="#f3_9" transform="matrix(11,0,0,11,146.1,461.8)" />
<use xlink:href="#f3_4" transform="matrix(10.5,0,0,10.5,668.4,481.3)" />
<use xlink:href="#f3_8" transform="matrix(10.5,0,0,10.5,676.3,481.3)" />
<use xlink:href="#f3_2" transform="matrix(10.5,0,0,10.5,681.7,481.3)" />
<use xlink:href="#f3_x" transform="matrix(10.5,0,0,10.5,688.9,481.3)" />
<use xlink:href="#f3_3" transform="matrix(10.5,0,0,10.5,694.2,481.3)" />
<use xlink:href="#f3_2" transform="matrix(10.5,0,0,10.5,698.6,481.3)" />
<use xlink:href="#f3_8" transform="matrix(10.5,0,0,10.5,705.8,481.3)" />
<use xlink:href="#f3_2" transform="matrix(10.5,0,0,10.5,711,481.3)" />
<use xlink:href="#f3_6" transform="matrix(10.5,0,0,10.5,718.2,481.3)" />
<use xlink:href="#f3_4" transform="matrix(10.5,0,0,10.5,473.5,481.3)" />
<use xlink:href="#f3_3" transform="matrix(10.5,0,0,10.5,481.4,481.3)" />
<use xlink:href="#f3_2" transform="matrix(10.5,0,0,10.5,485.8,481.3)" />
<use xlink:href="#f3_8" transform="matrix(10.5,0,0,10.5,493,481.3)" />
<use xlink:href="#f3_p" transform="matrix(10.5,0,0,10.5,498.3,481.3)" />
<use xlink:href="#f3_2" transform="matrix(10.5,0,0,10.5,506.3,481.3)" />
<use xlink:href="#f3_6" transform="matrix(10.5,0,0,10.5,513.5,481.3)" />
<use xlink:href="#f3_y" transform="matrix(10.5,0,0,10.5,246,481.3)" />
<use xlink:href="#f3_3" transform="matrix(10.5,0,0,10.5,253.1,481.3)" />
<use xlink:href="#f3_2" transform="matrix(10.5,0,0,10.5,257.6,481.3)" />
<use xlink:href="#f3_8" transform="matrix(10.5,0,0,10.5,264.7,481.3)" />
<use xlink:href="#f3_8" transform="matrix(10.5,0,0,10.5,270.1,481.3)" />
<use xlink:href="#f3_7" transform="matrix(10.5,0,0,10.5,275.3,481.3)" />
<use xlink:href="#f3_6" transform="matrix(10.5,0,0,10.5,282.5,481.3)" />
<use xlink:href="#f3_e" transform="matrix(11,0,0,11,137.7,482)" />
<use xlink:href="#f3_j" transform="matrix(11,0,0,11,142.4,482)" />
<use xlink:href="#f3_4" transform="matrix(10.5,0,0,10.5,668.4,501.4)" />
<use xlink:href="#f3_8" transform="matrix(10.5,0,0,10.5,676.3,501.4)" />
<use xlink:href="#f3_2" transform="matrix(10.5,0,0,10.5,681.7,501.4)" />
<use xlink:href="#f3_x" transform="matrix(10.5,0,0,10.5,688.9,501.4)" />
<use xlink:href="#f3_3" transform="matrix(10.5,0,0,10.5,694.2,501.4)" />
<use xlink:href="#f3_2" transform="matrix(10.5,0,0,10.5,698.6,501.4)" />
<use xlink:href="#f3_8" transform="matrix(10.5,0,0,10.5,705.8,501.4)" />
<use xlink:href="#f3_2" transform="matrix(10.5,0,0,10.5,711,501.4)" />
<use xlink:href="#f3_4" transform="matrix(10.5,0,0,10.5,473.5,501.4)" />
<use xlink:href="#f3_3" transform="matrix(10.5,0,0,10.5,481.4,501.4)" />
<use xlink:href="#f3_2" transform="matrix(10.5,0,0,10.5,485.8,501.4)" />
<use xlink:href="#f3_8" transform="matrix(10.5,0,0,10.5,493,501.4)" />
<use xlink:href="#f3_p" transform="matrix(10.5,0,0,10.5,498.3,501.4)" />
<use xlink:href="#f3_2" transform="matrix(10.5,0,0,10.5,506.3,501.4)" />
<use xlink:href="#f3_y" transform="matrix(10.5,0,0,10.5,246,501.4)" />
<use xlink:href="#f3_3" transform="matrix(10.5,0,0,10.5,253.1,501.4)" />
<use xlink:href="#f3_2" transform="matrix(10.5,0,0,10.5,257.6,501.4)" />
<use xlink:href="#f3_8" transform="matrix(10.5,0,0,10.5,264.7,501.4)" />
<use xlink:href="#f3_8" transform="matrix(10.5,0,0,10.5,270.1,501.4)" />
<use xlink:href="#f3_7" transform="matrix(10.5,0,0,10.5,275.3,501.4)" />
<use xlink:href="#f3_l" transform="matrix(11,0,0,11,137.7,502)" />
<use xlink:href="#f3_m" transform="matrix(11,0,0,11,145.1,502)" />
<use xlink:href="#f3_n" transform="matrix(11,0,0,11,149.7,502)" />
<use xlink:href="#f3_2" transform="matrix(11,0,0,11,154.4,502)" />
<use xlink:href="#f3_m" transform="matrix(11,0,0,11,161.9,502)" />
<use xlink:href="#f3_m" transform="matrix(11,0,0,11,166.5,502)" />
<use xlink:href="#f3_7" transform="matrix(11,0,0,11,171.2,502)" />
<use xlink:href="#f3_n" transform="matrix(11,0,0,11,178.7,502)" />
<use xlink:href="#f3_o" transform="matrix(11,0,0,11,183.4,502)" />
<use xlink:href="#f3_p" transform="matrix(11,0,0,11,195.4,502)" />
<use xlink:href="#f3_q" transform="matrix(11,0,0,11,203.8,502)" />
<use xlink:href="#f3_4" transform="matrix(11,0,0,11,668.4,522.2)" />
<use xlink:href="#f3_8" transform="matrix(11,0,0,11,676.7,522.2)" />
<use xlink:href="#f3_2" transform="matrix(11,0,0,11,682.3,522.2)" />
<use xlink:href="#f3_x" transform="matrix(11,0,0,11,689.7,522.2)" />
<use xlink:href="#f3_2" transform="matrix(11,0,0,11,695.4,522.2)" />
<use xlink:href="#f3_8" transform="matrix(11,0,0,11,702.7,522.2)" />
<use xlink:href="#f3_3" transform="matrix(11,0,0,11,708.3,522.2)" />
<use xlink:href="#f3_r" transform="matrix(11,0,0,11,713.1,522.2)" />
<use xlink:href="#f3_9" transform="matrix(11,0,0,11,726.2,522.2)" />
<use xlink:href="#f3_6" transform="matrix(11,0,0,11,734.4,522.2)" />
<use xlink:href="#f3_4" transform="matrix(11,0,0,11,473.5,522.2)" />
<use xlink:href="#f3_2" transform="matrix(11,0,0,11,481.9,522.2)" />
<use xlink:href="#f3_8" transform="matrix(11,0,0,11,489.2,522.2)" />
<use xlink:href="#f3_p" transform="matrix(11,0,0,11,494.8,522.2)" />
<use xlink:href="#f3_2" transform="matrix(11,0,0,11,503.2,522.2)" />
<use xlink:href="#f3_r" transform="matrix(11,0,0,11,510.7,522.2)" />
<use xlink:href="#f3_9" transform="matrix(11,0,0,11,523.8,522.2)" />
<use xlink:href="#f3_6" transform="matrix(11,0,0,11,532.2,522.2)" />
<use xlink:href="#f3_y" transform="matrix(10.5,0,0,10.5,246,521.4)" />
<use xlink:href="#f3_2" transform="matrix(10.5,0,0,10.5,253.1,521.4)" />
<use xlink:href="#f3_8" transform="matrix(10.5,0,0,10.5,260.2,521.4)" />
<use xlink:href="#f3_8" transform="matrix(10.5,0,0,10.5,265.5,521.4)" />
<use xlink:href="#f3_7" transform="matrix(10.5,0,0,10.5,270.9,521.4)" />
<use xlink:href="#f3_r" transform="matrix(10.5,0,0,10.5,278,521.4)" />
<use xlink:href="#f3_9" transform="matrix(10.5,0,0,10.5,290.4,521.4)" />
<use xlink:href="#f3_6" transform="matrix(10.5,0,0,10.5,298.5,521.4)" />
<use xlink:href="#f3_5" transform="matrix(11,0,0,11,137.7,522.2)" />
<use xlink:href="#f3_9" transform="matrix(11,0,0,11,146.1,522.2)" />
<use xlink:href="#f3_6" transform="matrix(11,0,0,11,154.5,522.2)" />
<use xlink:href="#f3_9" transform="matrix(11,0,0,11,161,522.2)" />
<use xlink:href="#f3_e" transform="matrix(11,0,0,11,169.4,522.2)" />
<use xlink:href="#f3_8" transform="matrix(11,0,0,11,174,522.2)" />
<use xlink:href="#f3_9" transform="matrix(11,0,0,11,179.6,522.2)" />
<use xlink:href="#f3_6" transform="matrix(11,0,0,11,188,522.2)" />
<use xlink:href="#f3_n" transform="matrix(11,0,0,11,194.6,522.2)" />
<use xlink:href="#f3_7" transform="matrix(11,0,0,11,199.3,522.2)" />
<use xlink:href="#f3_6" transform="matrix(11,0,0,11,206.6,522.2)" />
<use xlink:href="#f3_4" transform="matrix(10.5,0,0,10.5,668.4,541.6)" />
<use xlink:href="#f3_8" transform="matrix(10.5,0,0,10.5,676.3,541.6)" />
<use xlink:href="#f3_2" transform="matrix(10.5,0,0,10.5,681.7,541.6)" />
<use xlink:href="#f3_x" transform="matrix(10.5,0,0,10.5,688.9,541.6)" />
<use xlink:href="#f3_3" transform="matrix(10.5,0,0,10.5,694.2,541.6)" />
<use xlink:href="#f3_2" transform="matrix(10.5,0,0,10.5,698.6,541.6)" />
<use xlink:href="#f3_8" transform="matrix(10.5,0,0,10.5,705.8,541.6)" />
<use xlink:href="#f3_2" transform="matrix(10.5,0,0,10.5,711,541.6)" />
<use xlink:href="#f3_5" transform="matrix(10.5,0,0,10.5,718.2,541.6)" />
<use xlink:href="#f3_4" transform="matrix(10.5,0,0,10.5,473.5,541.6)" />
<use xlink:href="#f3_3" transform="matrix(10.5,0,0,10.5,481.4,541.6)" />
<use xlink:href="#f3_2" transform="matrix(10.5,0,0,10.5,485.8,541.6)" />
<use xlink:href="#f3_8" transform="matrix(10.5,0,0,10.5,493,541.6)" />
<use xlink:href="#f3_p" transform="matrix(10.5,0,0,10.5,498.3,541.6)" />
<use xlink:href="#f3_2" transform="matrix(10.5,0,0,10.5,506.3,541.6)" />
<use xlink:href="#f3_5" transform="matrix(10.5,0,0,10.5,513.5,541.6)" />
<use xlink:href="#f3_y" transform="matrix(10.5,0,0,10.5,246,541.6)" />
<use xlink:href="#f3_3" transform="matrix(10.5,0,0,10.5,253.1,541.6)" />
<use xlink:href="#f3_2" transform="matrix(10.5,0,0,10.5,257.6,541.6)" />
<use xlink:href="#f3_8" transform="matrix(10.5,0,0,10.5,264.7,541.6)" />
<use xlink:href="#f3_8" transform="matrix(10.5,0,0,10.5,270.1,541.6)" />
<use xlink:href="#f3_7" transform="matrix(10.5,0,0,10.5,275.3,541.6)" />
<use xlink:href="#f3_5" transform="matrix(10.5,0,0,10.5,282.5,541.6)" />
<use xlink:href="#f3_2" transform="matrix(11,0,0,11,137.7,542.2)" />
<use xlink:href="#f3_m" transform="matrix(11,0,0,11,145.1,542.2)" />
<use xlink:href="#f3_m" transform="matrix(11,0,0,11,149.7,542.2)" />
<use xlink:href="#f3_9" transform="matrix(11,0,0,11,154.4,542.2)" />
<use xlink:href="#f3_6" transform="matrix(11,0,0,11,162.8,542.2)" />
<use xlink:href="#f3_n" transform="matrix(11,0,0,11,169.4,542.2)" />
<use xlink:href="#f3_7" transform="matrix(11,0,0,11,174.1,542.2)" />
<use xlink:href="#f3_6" transform="matrix(11,0,0,11,181.4,542.2)" />
<use xlink:href="#f3_n" transform="matrix(11,0,0,11,188,542.2)" />
<use xlink:href="#f3_o" transform="matrix(11,0,0,11,192.7,542.2)" />
<use xlink:href="#f3_p" transform="matrix(11,0,0,11,204.8,542.2)" />
<use xlink:href="#f3_6" transform="matrix(11,0,0,11,213.2,542.2)" />
<use xlink:href="#f3_q" transform="matrix(11,0,0,11,219.7,542.2)" />
</g>
<g fill="#0000FF" >
<use xlink:href="#f2_j" transform="matrix(12,0,0,12,669.9,583)" />
<use xlink:href="#f2_q" transform="matrix(12,0,0,12,682.9,583)" />
<use xlink:href="#f2_m" transform="matrix(12,0,0,12,693.1,583)" />
<use xlink:href="#f2_b" transform="matrix(12,0,0,12,704.6,583)" />
<use xlink:href="#f2_g" transform="matrix(12,0,0,12,720.9,583)" />
<use xlink:href="#f2_q" transform="matrix(12,0,0,12,732.8,583)" />
<use xlink:href="#f2_p" transform="matrix(12,0,0,12,743.2,583)" />
<use xlink:href="#f2_k" transform="matrix(12,0,0,12,749.6,583)" />
<use xlink:href="#f2_f" transform="matrix(12,0,0,12,761.5,583)" />
</g>
</g>
<path d="M669.8,584.8H772.1" class="g1_14" />
<g clip-path="url(#c0_14)">
<g fill="#000000" >
<use xlink:href="#f1_a" transform="matrix(12,0,0,12,723.8,662.4)" />
<use xlink:href="#f1_8" transform="matrix(12,0,0,12,735,662.4)" />
<use xlink:href="#f1_k" transform="matrix(12,0,0,12,740.3,662.4)" />
<use xlink:href="#f1_4" transform="matrix(12,0,0,12,748.6,662.4)" />
<use xlink:href="#f1_h" transform="matrix(12,0,0,12,759.6,662.4)" />
<use xlink:href="#f1_o" transform="matrix(12,0,0,12,704.6,662.4)" />
</g>
</g>
<path d="M236.9,667.1H837M236.9,687.3H837M128.6,709.4H837m-708.4,20H837M128.6,749.6H837m-708.4,20H837M128.6,789.8H837m-708.4,20H837M128.9,709V810.2M237.3,666.7v20.2m0,22.1V810.2m0,-123.3v22.9M464.6,666.7v21m0,21.3V810.2m.2,-123.3v22.9M659.5,666.7V810.2M836.6,666.7V810.2" class="g2_14" />
<g clip-path="url(#c0_14)">
<g fill="#000000" >
<use xlink:href="#f3_a" transform="matrix(11,0,0,11,668.4,683.2)" />
<use xlink:href="#f3_b" transform="matrix(11,0,0,11,674,683.2)" />
<use xlink:href="#f3_c" transform="matrix(11,0,0,11,473.5,683.2)" />
<use xlink:href="#f3_b" transform="matrix(11,0,0,11,483.7,683.2)" />
<use xlink:href="#f3_d" transform="matrix(11,0,0,11,246,683.2)" />
<use xlink:href="#f3_b" transform="matrix(11,0,0,11,258,683.2)" />
<use xlink:href="#f2_e" transform="matrix(12,0,0,12,779.8,704.6)" />
<use xlink:href="#f2_i" transform="matrix(12,0,0,12,791.2,704.6)" />
<use xlink:href="#f2_r" transform="matrix(12,0,0,12,795.3,704.6)" />
<use xlink:href="#f2_g" transform="matrix(12,0,0,12,806.2,704.6)" />
<use xlink:href="#f2_b" transform="matrix(12,0,0,12,818.1,704.6)" />
<use xlink:href="#f3_6" transform="matrix(11,0,0,11,668.4,703.2)" />
<use xlink:href="#f3_g" transform="matrix(11,0,0,11,675,703.2)" />
<use xlink:href="#f3_z" transform="matrix(11,0,0,11,683.4,703.2)" />
<use xlink:href="#f3_2" transform="matrix(11,0,0,11,691.6,703.2)" />
<use xlink:href="#f3_8" transform="matrix(11,0,0,11,699.1,703.2)" />
<use xlink:href="#f3_3" transform="matrix(11,0,0,11,704.7,703.2)" />
<use xlink:href="#f3_8" transform="matrix(11,0,0,11,709.3,703.2)" />
<use xlink:href="#f2_3" transform="matrix(12,0,0,12,609.4,704.6)" />
<use xlink:href="#f2_i" transform="matrix(12,0,0,12,614.5,704.6)" />
<use xlink:href="#f2_f" transform="matrix(12,0,0,12,618.6,704.6)" />
<use xlink:href="#f2_g" transform="matrix(12,0,0,12,629.1,704.6)" />
<use xlink:href="#f2_b" transform="matrix(12,0,0,12,641,704.6)" />
<use xlink:href="#f3_2" transform="matrix(11,0,0,11,473.5,703.2)" />
<use xlink:href="#f3_5" transform="matrix(11,0,0,11,480.9,703.2)" />
<use xlink:href="#f3_e" transform="matrix(11,0,0,11,489.3,703.2)" />
<use xlink:href="#f3_2" transform="matrix(11,0,0,11,494,703.2)" />
<use xlink:href="#f3_5" transform="matrix(11,0,0,11,501.5,703.2)" />
<use xlink:href="#f3_p" transform="matrix(11,0,0,11,509.9,703.2)" />
<use xlink:href="#f3_2" transform="matrix(11,0,0,11,518.2,703.2)" />
<use xlink:href="#f3_8" transform="matrix(11,0,0,11,525.6,703.2)" />
<use xlink:href="#f2_f" transform="matrix(12,0,0,12,401.5,704.6)" />
<use xlink:href="#f2_i" transform="matrix(12,0,0,12,412,704.6)" />
<use xlink:href="#f2_c" transform="matrix(12,0,0,12,416.1,704.6)" />
<use xlink:href="#f2_6" transform="matrix(12,0,0,12,429.1,704.6)" />
<use xlink:href="#f2_g" transform="matrix(12,0,0,12,434.2,704.6)" />
<use xlink:href="#f2_b" transform="matrix(12,0,0,12,446.1,704.6)" />
<use xlink:href="#f3_6" transform="matrix(11,0,0,11,246.1,703.2)" />
<use xlink:href="#f3_2" transform="matrix(11,0,0,11,252.5,703.2)" />
<use xlink:href="#f3_5" transform="matrix(11,0,0,11,260,703.2)" />
<use xlink:href="#f3_e" transform="matrix(11,0,0,11,268.4,703.2)" />
<use xlink:href="#f3_7" transform="matrix(11,0,0,11,273.1,703.2)" />
<use xlink:href="#f3_8" transform="matrix(11,0,0,11,280.6,703.2)" />
<use xlink:href="#f3_6" transform="matrix(11,0,0,11,668.4,725.4)" />
<use xlink:href="#f3_g" transform="matrix(11,0,0,11,675,725.4)" />
<use xlink:href="#f3_z" transform="matrix(11,0,0,11,683.4,725.4)" />
<use xlink:href="#f3_3" transform="matrix(11,0,0,11,691.6,725.4)" />
<use xlink:href="#f3_2" transform="matrix(11,0,0,11,696.3,725.4)" />
<use xlink:href="#f3_8" transform="matrix(11,0,0,11,703.8,725.4)" />
<use xlink:href="#f3_9" transform="matrix(11,0,0,11,709.4,725.4)" />
<use xlink:href="#f3_2" transform="matrix(11,0,0,11,473.5,725.4)" />
<use xlink:href="#f3_5" transform="matrix(11,0,0,11,480.9,725.4)" />
<use xlink:href="#f3_e" transform="matrix(11,0,0,11,489.2,725.4)" />
<use xlink:href="#f3_3" transform="matrix(11,0,0,11,493.9,725.4)" />
<use xlink:href="#f3_2" transform="matrix(11,0,0,11,498.6,725.4)" />
<use xlink:href="#f3_5" transform="matrix(11,0,0,11,506.1,725.4)" />
<use xlink:href="#f3_p" transform="matrix(11,0,0,11,514.5,725.4)" />
<use xlink:href="#f3_9" transform="matrix(11,0,0,11,522.9,725.4)" />
<use xlink:href="#f3_6" transform="matrix(11,0,0,11,246,725.4)" />
<use xlink:href="#f3_3" transform="matrix(11,0,0,11,252.5,725.4)" />
<use xlink:href="#f3_2" transform="matrix(11,0,0,11,257.2,725.4)" />
<use xlink:href="#f3_5" transform="matrix(11,0,0,11,264.7,725.4)" />
<use xlink:href="#f3_e" transform="matrix(11,0,0,11,273,725.4)" />
<use xlink:href="#f3_9" transform="matrix(11,0,0,11,277.7,725.4)" />
<use xlink:href="#f3_i" transform="matrix(11,0,0,11,137.7,725.4)" />
<use xlink:href="#f3_9" transform="matrix(11,0,0,11,146.1,725.4)" />
<use xlink:href="#f3_6" transform="matrix(11,0,0,11,668.4,745.6)" />
<use xlink:href="#f3_g" transform="matrix(11,0,0,11,675,745.6)" />
<use xlink:href="#f3_z" transform="matrix(11,0,0,11,683.4,745.6)" />
<use xlink:href="#f3_3" transform="matrix(11,0,0,11,691.6,745.6)" />
<use xlink:href="#f3_2" transform="matrix(11,0,0,11,696.3,745.6)" />
<use xlink:href="#f3_8" transform="matrix(11,0,0,11,703.8,745.6)" />
<use xlink:href="#f3_2" transform="matrix(11,0,0,11,709.4,745.6)" />
<use xlink:href="#f3_6" transform="matrix(11,0,0,11,716.8,745.6)" />
<use xlink:href="#f3_2" transform="matrix(11,0,0,11,473.5,745.6)" />
<use xlink:href="#f3_5" transform="matrix(11,0,0,11,480.9,745.6)" />
<use xlink:href="#f3_e" transform="matrix(11,0,0,11,489.2,745.6)" />
<use xlink:href="#f3_3" transform="matrix(11,0,0,11,493.9,745.6)" />
<use xlink:href="#f3_2" transform="matrix(11,0,0,11,498.6,745.6)" />
<use xlink:href="#f3_5" transform="matrix(11,0,0,11,506.1,745.6)" />
<use xlink:href="#f3_p" transform="matrix(11,0,0,11,514.5,745.6)" />
<use xlink:href="#f3_2" transform="matrix(11,0,0,11,522.7,745.6)" />
<use xlink:href="#f3_6" transform="matrix(11,0,0,11,530.2,745.6)" />
<use xlink:href="#f3_6" transform="matrix(11,0,0,11,246,745.6)" />
<use xlink:href="#f3_3" transform="matrix(11,0,0,11,252.5,745.6)" />
<use xlink:href="#f3_2" transform="matrix(11,0,0,11,257.2,745.6)" />
<use xlink:href="#f3_5" transform="matrix(11,0,0,11,264.7,745.6)" />
<use xlink:href="#f3_e" transform="matrix(11,0,0,11,273,745.6)" />
<use xlink:href="#f3_7" transform="matrix(11,0,0,11,277.7,745.6)" />
<use xlink:href="#f3_6" transform="matrix(11,0,0,11,285.1,745.6)" />
<use xlink:href="#f3_e" transform="matrix(11,0,0,11,137.7,745.6)" />
<use xlink:href="#f3_j" transform="matrix(11,0,0,11,142.4,745.6)" />
<use xlink:href="#f3_6" transform="matrix(11,0,0,11,668.4,765.6)" />
<use xlink:href="#f3_g" transform="matrix(11,0,0,11,675,765.6)" />
<use xlink:href="#f3_z" transform="matrix(11,0,0,11,683.4,765.6)" />
<use xlink:href="#f3_3" transform="matrix(11,0,0,11,691.6,765.6)" />
<use xlink:href="#f3_2" transform="matrix(11,0,0,11,696.3,765.6)" />
<use xlink:href="#f3_8" transform="matrix(11,0,0,11,703.8,765.6)" />
<use xlink:href="#f3_2" transform="matrix(11,0,0,11,709.4,765.6)" />
<use xlink:href="#f3_2" transform="matrix(11,0,0,11,473.5,765.6)" />
<use xlink:href="#f3_5" transform="matrix(11,0,0,11,480.9,765.6)" />
<use xlink:href="#f3_e" transform="matrix(11,0,0,11,489.2,765.6)" />
<use xlink:href="#f3_3" transform="matrix(11,0,0,11,493.9,765.6)" />
<use xlink:href="#f3_2" transform="matrix(11,0,0,11,498.6,765.6)" />
<use xlink:href="#f3_5" transform="matrix(11,0,0,11,506.1,765.6)" />
<use xlink:href="#f3_p" transform="matrix(11,0,0,11,514.5,765.6)" />
<use xlink:href="#f3_2" transform="matrix(11,0,0,11,522.7,765.6)" />
<use xlink:href="#f3_6" transform="matrix(11,0,0,11,246,765.6)" />
<use xlink:href="#f3_3" transform="matrix(11,0,0,11,252.5,765.6)" />
<use xlink:href="#f3_2" transform="matrix(11,0,0,11,257.2,765.6)" />
<use xlink:href="#f3_5" transform="matrix(11,0,0,11,264.7,765.6)" />
<use xlink:href="#f3_e" transform="matrix(11,0,0,11,273,765.6)" />
<use xlink:href="#f3_7" transform="matrix(11,0,0,11,277.7,765.6)" />
<use xlink:href="#f3_l" transform="matrix(11,0,0,11,137.7,765.6)" />
<use xlink:href="#f3_m" transform="matrix(11,0,0,11,145.1,765.6)" />
<use xlink:href="#f3_n" transform="matrix(11,0,0,11,149.7,765.6)" />
<use xlink:href="#f3_2" transform="matrix(11,0,0,11,154.4,765.6)" />
<use xlink:href="#f3_m" transform="matrix(11,0,0,11,161.9,765.6)" />
<use xlink:href="#f3_m" transform="matrix(11,0,0,11,166.5,765.6)" />
<use xlink:href="#f3_7" transform="matrix(11,0,0,11,171.2,765.6)" />
<use xlink:href="#f3_n" transform="matrix(11,0,0,11,178.7,765.6)" />
<use xlink:href="#f3_o" transform="matrix(11,0,0,11,183.4,765.6)" />
<use xlink:href="#f3_p" transform="matrix(11,0,0,11,195.4,765.6)" />
<use xlink:href="#f3_q" transform="matrix(11,0,0,11,203.8,765.6)" />
<use xlink:href="#f3_6" transform="matrix(11,0,0,11,668.4,785.7)" />
<use xlink:href="#f3_g" transform="matrix(11,0,0,11,675,785.7)" />
<use xlink:href="#f3_z" transform="matrix(11,0,0,11,683.4,785.7)" />
<use xlink:href="#f3_2" transform="matrix(11,0,0,11,691.6,785.7)" />
<use xlink:href="#f3_8" transform="matrix(11,0,0,11,699.1,785.7)" />
<use xlink:href="#f3_3" transform="matrix(11,0,0,11,704.7,785.7)" />
<use xlink:href="#f3_r" transform="matrix(11,0,0,11,709.3,785.7)" />
<use xlink:href="#f3_9" transform="matrix(11,0,0,11,722.4,785.7)" />
<use xlink:href="#f3_6" transform="matrix(11,0,0,11,730.8,785.7)" />
<use xlink:href="#f3_2" transform="matrix(11,0,0,11,473.5,785.7)" />
<use xlink:href="#f3_5" transform="matrix(11,0,0,11,480.9,785.7)" />
<use xlink:href="#f3_e" transform="matrix(11,0,0,11,489.2,785.7)" />
<use xlink:href="#f3_2" transform="matrix(11,0,0,11,493.9,785.7)" />
<use xlink:href="#f3_5" transform="matrix(11,0,0,11,501.4,785.7)" />
<use xlink:href="#f3_p" transform="matrix(11,0,0,11,509.8,785.7)" />
<use xlink:href="#f3_2" transform="matrix(11,0,0,11,518.2,785.7)" />
<use xlink:href="#f3_r" transform="matrix(11,0,0,11,525.5,785.7)" />
<use xlink:href="#f3_9" transform="matrix(11,0,0,11,538.6,785.7)" />
<use xlink:href="#f3_6" transform="matrix(11,0,0,11,547,785.7)" />
<use xlink:href="#f3_6" transform="matrix(11,0,0,11,246,785.7)" />
<use xlink:href="#f3_2" transform="matrix(11,0,0,11,252.5,785.7)" />
<use xlink:href="#f3_5" transform="matrix(11,0,0,11,260,785.7)" />
<use xlink:href="#f3_e" transform="matrix(11,0,0,11,268.4,785.7)" />
<use xlink:href="#f3_7" transform="matrix(11,0,0,11,273,785.7)" />
<use xlink:href="#f3_r" transform="matrix(11,0,0,11,280.4,785.7)" />
<use xlink:href="#f3_9" transform="matrix(11,0,0,11,293.6,785.7)" />
<use xlink:href="#f3_6" transform="matrix(11,0,0,11,302,785.7)" />
<use xlink:href="#f3_5" transform="matrix(11,0,0,11,137.7,785.7)" />
<use xlink:href="#f3_9" transform="matrix(11,0,0,11,146.1,785.7)" />
<use xlink:href="#f3_6" transform="matrix(11,0,0,11,154.5,785.7)" />
<use xlink:href="#f3_9" transform="matrix(11,0,0,11,161,785.7)" />
<use xlink:href="#f3_e" transform="matrix(11,0,0,11,169.4,785.7)" />
<use xlink:href="#f3_8" transform="matrix(11,0,0,11,174,785.7)" />
<use xlink:href="#f3_9" transform="matrix(11,0,0,11,179.6,785.7)" />
<use xlink:href="#f3_6" transform="matrix(11,0,0,11,188,785.7)" />
<use xlink:href="#f3_n" transform="matrix(11,0,0,11,194.6,785.7)" />
<use xlink:href="#f3_7" transform="matrix(11,0,0,11,199.3,785.7)" />
<use xlink:href="#f3_6" transform="matrix(11,0,0,11,206.6,785.7)" />
<use xlink:href="#f3_6" transform="matrix(11,0,0,11,668.4,805.8)" />
<use xlink:href="#f3_g" transform="matrix(11,0,0,11,675,805.8)" />
<use xlink:href="#f3_z" transform="matrix(11,0,0,11,683.4,805.8)" />
<use xlink:href="#f3_3" transform="matrix(11,0,0,11,691.6,805.8)" />
<use xlink:href="#f3_2" transform="matrix(11,0,0,11,696.3,805.8)" />
<use xlink:href="#f3_8" transform="matrix(11,0,0,11,703.8,805.8)" />
<use xlink:href="#f3_2" transform="matrix(11,0,0,11,709.4,805.8)" />
<use xlink:href="#f3_5" transform="matrix(11,0,0,11,716.9,805.8)" />
<use xlink:href="#f3_2" transform="matrix(11,0,0,11,473.5,805.8)" />
<use xlink:href="#f3_5" transform="matrix(11,0,0,11,480.9,805.8)" />
<use xlink:href="#f3_e" transform="matrix(11,0,0,11,489.2,805.8)" />
<use xlink:href="#f3_3" transform="matrix(11,0,0,11,493.9,805.8)" />
<use xlink:href="#f3_2" transform="matrix(11,0,0,11,498.6,805.8)" />
<use xlink:href="#f3_5" transform="matrix(11,0,0,11,506.1,805.8)" />
<use xlink:href="#f3_p" transform="matrix(11,0,0,11,514.5,805.8)" />
<use xlink:href="#f3_2" transform="matrix(11,0,0,11,522.7,805.8)" />
<use xlink:href="#f3_5" transform="matrix(11,0,0,11,530.2,805.8)" />
<use xlink:href="#f3_6" transform="matrix(11,0,0,11,246,805.8)" />
<use xlink:href="#f3_3" transform="matrix(11,0,0,11,252.5,805.8)" />
<use xlink:href="#f3_2" transform="matrix(11,0,0,11,257.2,805.8)" />
<use xlink:href="#f3_5" transform="matrix(11,0,0,11,264.7,805.8)" />
<use xlink:href="#f3_e" transform="matrix(11,0,0,11,273,805.8)" />
<use xlink:href="#f3_7" transform="matrix(11,0,0,11,277.7,805.8)" />
<use xlink:href="#f3_5" transform="matrix(11,0,0,11,285.1,805.8)" />
<use xlink:href="#f3_2" transform="matrix(11,0,0,11,137.7,805.8)" />
<use xlink:href="#f3_m" transform="matrix(11,0,0,11,145.1,805.8)" />
<use xlink:href="#f3_m" transform="matrix(11,0,0,11,149.7,805.8)" />
<use xlink:href="#f3_9" transform="matrix(11,0,0,11,154.4,805.8)" />
<use xlink:href="#f3_6" transform="matrix(11,0,0,11,162.8,805.8)" />
<use xlink:href="#f3_n" transform="matrix(11,0,0,11,169.4,805.8)" />
<use xlink:href="#f3_7" transform="matrix(11,0,0,11,174.1,805.8)" />
<use xlink:href="#f3_6" transform="matrix(11,0,0,11,181.4,805.8)" />
<use xlink:href="#f3_n" transform="matrix(11,0,0,11,188,805.8)" />
<use xlink:href="#f3_o" transform="matrix(11,0,0,11,192.7,805.8)" />
<use xlink:href="#f3_p" transform="matrix(11,0,0,11,204.8,805.8)" />
<use xlink:href="#f3_6" transform="matrix(11,0,0,11,213.2,805.8)" />
<use xlink:href="#f3_q" transform="matrix(11,0,0,11,219.7,805.8)" />
</g>
<g fill="#0000FF" >
<use xlink:href="#f2_j" transform="matrix(12,0,0,12,669.9,846.5)" />
<use xlink:href="#f2_q" transform="matrix(12,0,0,12,682.9,846.5)" />
<use xlink:href="#f2_m" transform="matrix(12,0,0,12,693.1,846.5)" />
<use xlink:href="#f2_b" transform="matrix(12,0,0,12,704.6,846.5)" />
<use xlink:href="#f2_g" transform="matrix(12,0,0,12,720.9,846.5)" />
<use xlink:href="#f2_q" transform="matrix(12,0,0,12,732.8,846.5)" />
<use xlink:href="#f2_p" transform="matrix(12,0,0,12,743.2,846.5)" />
<use xlink:href="#f2_k" transform="matrix(12,0,0,12,749.6,846.5)" />
<use xlink:href="#f2_f" transform="matrix(12,0,0,12,761.5,846.5)" />
</g>
</g>
<path d="M669.8,848.4H772.1" class="g1_14" />
<g clip-path="url(#c0_14)">
<g fill="#000000" >
<use xlink:href="#f1_a" transform="matrix(12,0,0,12,724.3,906.6)" />
<use xlink:href="#f1_8" transform="matrix(12,0,0,12,735.4,906.6)" />
<use xlink:href="#f1_k" transform="matrix(12,0,0,12,740.8,906.6)" />
<use xlink:href="#f1_4" transform="matrix(12,0,0,12,749,906.6)" />
<use xlink:href="#f1_h" transform="matrix(12,0,0,12,760,906.6)" />
<use xlink:href="#f1_q" transform="matrix(12,0,0,12,705.1,906.6)" />
<use xlink:href="#f2_8" transform="matrix(12,0,0,12,626.8,928)" />
<use xlink:href="#f2_a" transform="matrix(12,0,0,12,632.7,928)" />
<use xlink:href="#f2_s" transform="matrix(12,0,0,12,642.6,928)" />
<use xlink:href="#f2_7" transform="matrix(12,0,0,12,654.8,928)" />
<use xlink:href="#f2_i" transform="matrix(12,0,0,12,673.1,928)" />
<use xlink:href="#f2_d" transform="matrix(12,0,0,12,677.2,928)" />
<use xlink:href="#f2_m" transform="matrix(12,0,0,12,689.1,928)" />
<use xlink:href="#f2_7" transform="matrix(12,0,0,12,700.6,928)" />
<use xlink:href="#f2_i" transform="matrix(12,0,0,12,713,928)" />
<use xlink:href="#f2_o" transform="matrix(12,0,0,12,717.1,928)" />
<use xlink:href="#f2_n" transform="matrix(12,0,0,12,734.9,928)" />
<use xlink:href="#f2_i" transform="matrix(12,0,0,12,742.4,928)" />
<use xlink:href="#f2_i" transform="matrix(12,0,0,12,746.4,928)" />
<use xlink:href="#f2_a" transform="matrix(12,0,0,12,750.5,928)" />
<use xlink:href="#f2_g" transform="matrix(12,0,0,12,760.5,928)" />
<use xlink:href="#f3_c" transform="matrix(11,0,0,11,137.7,924.6)" />
<use xlink:href="#f3_m" transform="matrix(11,0,0,11,147.9,924.6)" />
<use xlink:href="#f3_4" transform="matrix(11,0,0,11,156.9,924.6)" />
<use xlink:href="#f3_2" transform="matrix(11,0,0,11,165.1,924.6)" />
<use xlink:href="#f3_6" transform="matrix(11,0,0,11,172.6,924.6)" />
<use xlink:href="#f3_y" transform="matrix(11,0,0,11,179.1,924.6)" />
<use xlink:href="#f3_7" transform="matrix(11,0,0,11,186.6,924.6)" />
<use xlink:href="#f3_p" transform="matrix(11,0,0,11,194.1,924.6)" />
<use xlink:href="#f3_9" transform="matrix(11,0,0,11,202.5,924.6)" />
<use xlink:href="#f3_8" transform="matrix(11,0,0,11,210.9,924.6)" />
<use xlink:href="#f3_2" transform="matrix(11,0,0,11,220.6,924.6)" />
<use xlink:href="#f3_6" transform="matrix(11,0,0,11,228.1,924.6)" />
<use xlink:href="#f3_r" transform="matrix(11,0,0,11,238.8,924.6)" />
<use xlink:href="#f3_g" transform="matrix(11,0,0,11,251.9,924.6)" />
<use xlink:href="#f3_i" transform="matrix(11,0,0,11,260.3,924.6)" />
<use xlink:href="#f3_6" transform="matrix(11,0,0,11,272.8,924.6)" />
<use xlink:href="#f3_3" transform="matrix(11,0,0,11,279.4,924.6)" />
<use xlink:href="#f3_r" transform="matrix(11,0,0,11,283.9,924.6)" />
<use xlink:href="#f3_4" transform="matrix(11,0,0,11,297.1,924.6)" />
<use xlink:href="#f3_u" transform="matrix(11,0,0,11,305.5,924.6)" />
<use xlink:href="#f3_e" transform="matrix(11,0,0,11,312.9,924.6)" />
<use xlink:href="#f3_3" transform="matrix(11,0,0,11,317.5,924.6)" />
<use xlink:href="#f3_y" transform="matrix(11,0,0,11,322.2,924.6)" />
<use xlink:href="#f3_9" transform="matrix(11,0,0,11,329.7,924.6)" />
<use xlink:href="#f3_q" transform="matrix(11,0,0,11,338.1,924.6)" />
<use xlink:href="#f2_8" transform="matrix(12,0,0,12,608.7,949.4)" />
<use xlink:href="#f2_a" transform="matrix(12,0,0,12,614.5,949.4)" />
<use xlink:href="#f2_s" transform="matrix(12,0,0,12,624.5,949.4)" />
<use xlink:href="#f2_7" transform="matrix(12,0,0,12,636.6,949.4)" />
<use xlink:href="#f2_q" transform="matrix(12,0,0,12,654.9,949.4)" />
<use xlink:href="#f2_e" transform="matrix(12,0,0,12,665.3,949.4)" />
<use xlink:href="#f2_6" transform="matrix(12,0,0,12,676.8,949.4)" />
<use xlink:href="#f2_4" transform="matrix(12,0,0,12,681.8,949.4)" />
<use xlink:href="#f2_7" transform="matrix(12,0,0,12,691.4,949.4)" />
<use xlink:href="#f2_i" transform="matrix(12,0,0,12,709.7,949.4)" />
<use xlink:href="#f2_s" transform="matrix(12,0,0,12,713.8,949.4)" />
<use xlink:href="#f2_9" transform="matrix(12,0,0,12,726.1,949.4)" />
<use xlink:href="#f2_6" transform="matrix(12,0,0,12,733.4,949.4)" />
<use xlink:href="#f2_4" transform="matrix(12,0,0,12,738.4,949.4)" />
<use xlink:href="#f2_7" transform="matrix(12,0,0,12,748,949.4)" />
<use xlink:href="#f2_g" transform="matrix(12,0,0,12,760.5,949.4)" />
<use xlink:href="#f3_c" transform="matrix(11,0,0,11,137.7,948)" />
<use xlink:href="#f3_m" transform="matrix(11,0,0,11,147.9,948)" />
<use xlink:href="#f3_r" transform="matrix(11,0,0,11,156.9,948)" />
<use xlink:href="#f3_2" transform="matrix(11,0,0,11,169.9,948)" />
<use xlink:href="#f3_y" transform="matrix(11,0,0,11,177.3,948)" />
<use xlink:href="#f3_u" transform="matrix(11,0,0,11,184.8,948)" />
<use xlink:href="#f3_5" transform="matrix(11,0,0,11,192.3,948)" />
<use xlink:href="#f3_3" transform="matrix(11,0,0,11,200.5,948)" />
<use xlink:href="#f3_y" transform="matrix(11,0,0,11,205.2,948)" />
<use xlink:href="#f3_9" transform="matrix(11,0,0,11,212.7,948)" />
<use xlink:href="#f3_2" transform="matrix(11,0,0,11,225.4,948)" />
<use xlink:href="#f3_6" transform="matrix(11,0,0,11,232.7,948)" />
<use xlink:href="#f3_r" transform="matrix(11,0,0,11,243.5,948)" />
<use xlink:href="#f3_g" transform="matrix(11,0,0,11,256.5,948)" />
<use xlink:href="#f3_i" transform="matrix(11,0,0,11,264.9,948)" />
<use xlink:href="#f3_x" transform="matrix(11,0,0,11,277.6,948)" />
<use xlink:href="#f3_2" transform="matrix(11,0,0,11,283.1,948)" />
<use xlink:href="#f3_9" transform="matrix(11,0,0,11,290.5,948)" />
<use xlink:href="#f3_q" transform="matrix(11,0,0,11,298.9,948)" />
<use xlink:href="#f2_l" transform="matrix(12,0,0,12,481.7,970.8)" />
<use xlink:href="#f2_g" transform="matrix(12,0,0,12,493.9,970.8)" />
<use xlink:href="#f2_l" transform="matrix(12,0,0,12,520.2,970.8)" />
<use xlink:href="#f2_i" transform="matrix(12,0,0,12,532.2,970.8)" />
<use xlink:href="#f2_k" transform="matrix(12,0,0,12,536.3,970.8)" />
<use xlink:href="#f2_q" transform="matrix(12,0,0,12,548.2,970.8)" />
<use xlink:href="#f2_m" transform="matrix(12,0,0,12,558.6,970.8)" />
<use xlink:href="#f2_g" transform="matrix(12,0,0,12,584.4,970.8)" />
<use xlink:href="#f2_f" transform="matrix(12,0,0,12,596.3,970.8)" />
<use xlink:href="#f2_q" transform="matrix(12,0,0,12,606.9,970.8)" />
<use xlink:href="#f2_g" transform="matrix(12,0,0,12,617.2,970.8)" />
<use xlink:href="#f2_2" transform="matrix(12,0,0,12,643.5,970.8)" />
<use xlink:href="#f2_l" transform="matrix(12,0,0,12,649.3,970.8)" />
<use xlink:href="#f2_i" transform="matrix(12,0,0,12,661.5,970.8)" />
<use xlink:href="#f2_k" transform="matrix(12,0,0,12,665.6,970.8)" />
<use xlink:href="#f2_q" transform="matrix(12,0,0,12,677.5,970.8)" />
<use xlink:href="#f2_m" transform="matrix(12,0,0,12,687.9,970.8)" />
<use xlink:href="#f2_g" transform="matrix(12,0,0,12,699.3,970.8)" />
<use xlink:href="#f2_h" transform="matrix(12,0,0,12,725.4,970.8)" />
<use xlink:href="#f2_6" transform="matrix(12,0,0,12,737.5,970.8)" />
<use xlink:href="#f2_9" transform="matrix(12,0,0,12,742.5,970.8)" />
<use xlink:href="#f2_k" transform="matrix(12,0,0,12,749.8,970.8)" />
<use xlink:href="#f2_f" transform="matrix(12,0,0,12,761.7,970.8)" />
<use xlink:href="#f2_8" transform="matrix(12,0,0,12,723.1,1002.8)" />
<use xlink:href="#f2_l" transform="matrix(12,0,0,12,728.9,1002.8)" />
<use xlink:href="#f2_i" transform="matrix(12,0,0,12,741.1,1002.8)" />
<use xlink:href="#f2_q" transform="matrix(12,0,0,12,745.1,1002.8)" />
<use xlink:href="#f2_j" transform="matrix(12,0,0,12,755.5,1002.8)" />
<use xlink:href="#f2_i" transform="matrix(12,0,0,12,768.5,1002.8)" />
<use xlink:href="#f3_c" transform="matrix(11,0,0,11,137.7,969.4)" />
<use xlink:href="#f3_5" transform="matrix(11,0,0,11,147.9,969.4)" />
<use xlink:href="#f3_m" transform="matrix(11,0,0,11,160.6,969.4)" />
<use xlink:href="#f3_7" transform="matrix(11,0,0,11,165.1,969.4)" />
<use xlink:href="#f3_x" transform="matrix(11,0,0,11,176.9,969.4)" />
<use xlink:href="#f3_m" transform="matrix(11,0,0,11,182.4,969.4)" />
<use xlink:href="#f3_9" transform="matrix(11,0,0,11,187.1,969.4)" />
<use xlink:href="#f3_8" transform="matrix(11,0,0,11,195.5,969.4)" />
<use xlink:href="#f3_2" transform="matrix(11,0,0,11,201.1,969.4)" />
<use xlink:href="#f3_8" transform="matrix(11,0,0,11,208.5,969.4)" />
<use xlink:href="#f3_s" transform="matrix(11,0,0,11,214.1,969.4)" />
<use xlink:href="#f3_7" transform="matrix(11,0,0,11,218.8,969.4)" />
<use xlink:href="#f3_1j" transform="matrix(11,0,0,11,226.1,969.4)" />
<use xlink:href="#f3_r" transform="matrix(11,0,0,11,234.7,969.4)" />
<use xlink:href="#f3_g" transform="matrix(11,0,0,11,247.7,969.4)" />
<use xlink:href="#f3_y" transform="matrix(11,0,0,11,256.1,969.4)" />
<use xlink:href="#f3_11" transform="matrix(11,0,0,11,263.5,969.4)" />
<use xlink:href="#f3_7" transform="matrix(11,0,0,11,271.9,969.4)" />
<use xlink:href="#f3_6" transform="matrix(11,0,0,11,279.4,969.4)" />
<use xlink:href="#f3_x" transform="matrix(11,0,0,11,290.1,969.4)" />
<use xlink:href="#f3_m" transform="matrix(11,0,0,11,295.7,969.4)" />
<use xlink:href="#f3_9" transform="matrix(11,0,0,11,300.4,969.4)" />
<use xlink:href="#f3_8" transform="matrix(11,0,0,11,308.7,969.4)" />
<use xlink:href="#f3_2" transform="matrix(11,0,0,11,314.3,969.4)" />
<use xlink:href="#f3_6" transform="matrix(11,0,0,11,321.8,969.4)" />
<use xlink:href="#f3_6" transform="matrix(11,0,0,11,332.4,969.4)" />
<use xlink:href="#f3_9" transform="matrix(11,0,0,11,339,969.4)" />
<use xlink:href="#f3_5" transform="matrix(11,0,0,11,347.4,969.4)" />
<use xlink:href="#f3_y" transform="matrix(11,0,0,11,360.1,969.4)" />
<use xlink:href="#f3_7" transform="matrix(11,0,0,11,367.4,969.4)" />
<use xlink:href="#f3_8" transform="matrix(11,0,0,11,374.8,969.4)" />
<use xlink:href="#f3_7" transform="matrix(11,0,0,11,380.5,969.4)" />
<use xlink:href="#f3_6" transform="matrix(11,0,0,11,387.9,969.4)" />
<use xlink:href="#f3_q" transform="matrix(11,0,0,11,394.4,969.4)" />
<use xlink:href="#f2_8" transform="matrix(12,0,0,12,584.5,1024.2)" />
<use xlink:href="#f2_l" transform="matrix(12,0,0,12,590.3,1024.2)" />
<use xlink:href="#f2_i" transform="matrix(12,0,0,12,602.5,1024.2)" />
<use xlink:href="#f2_f" transform="matrix(12,0,0,12,606.7,1024.2)" />
<use xlink:href="#f2_l" transform="matrix(12,0,0,12,623,1024.2)" />
<use xlink:href="#f2_i" transform="matrix(12,0,0,12,635.2,1024.2)" />
<use xlink:href="#f2_s" transform="matrix(12,0,0,12,639.3,1024.2)" />
<use xlink:href="#f2_r" transform="matrix(12,0,0,12,651.6,1024.2)" />
<use xlink:href="#f2_7" transform="matrix(12,0,0,12,662.4,1024.2)" />
<use xlink:href="#f2_9" transform="matrix(12,0,0,12,674.8,1024.2)" />
<use xlink:href="#f2_l" transform="matrix(12,0,0,12,688.1,1024.2)" />
<use xlink:href="#f2_i" transform="matrix(12,0,0,12,700.1,1024.2)" />
<use xlink:href="#f2_n" transform="matrix(12,0,0,12,704.2,1024.2)" />
<use xlink:href="#f2_a" transform="matrix(12,0,0,12,711.7,1024.2)" />
<use xlink:href="#f2_g" transform="matrix(12,0,0,12,727.7,1024.2)" />
<use xlink:href="#f2_f" transform="matrix(12,0,0,12,739.6,1024.2)" />
<use xlink:href="#f2_q" transform="matrix(12,0,0,12,750.2,1024.2)" />
<use xlink:href="#f2_g" transform="matrix(12,0,0,12,760.5,1024.2)" />
<use xlink:href="#f3_1p" transform="matrix(11,0,0,11,137.7,1022.8)" />
<use xlink:href="#f3_g" transform="matrix(11,0,0,11,152.6,1022.8)" />
<use xlink:href="#f3_y" transform="matrix(11,0,0,11,161,1022.8)" />
<use xlink:href="#f3_11" transform="matrix(11,0,0,11,168.5,1022.8)" />
<use xlink:href="#f3_9" transform="matrix(11,0,0,11,176.9,1022.8)" />
<use xlink:href="#f3_6" transform="matrix(11,0,0,11,185.3,1022.8)" />
<use xlink:href="#f3_4" transform="matrix(11,0,0,11,196,1022.8)" />
<use xlink:href="#f3_2" transform="matrix(11,0,0,11,204.4,1022.8)" />
<use xlink:href="#f3_y" transform="matrix(11,0,0,11,211.8,1022.8)" />
<use xlink:href="#f3_2" transform="matrix(11,0,0,11,219.3,1022.8)" />
<use xlink:href="#f3_6" transform="matrix(11,0,0,11,226.7,1022.8)" />
<use xlink:href="#f3_2" transform="matrix(11,0,0,11,237.4,1022.8)" />
<use xlink:href="#f3_6" transform="matrix(11,0,0,11,244.9,1022.8)" />
<use xlink:href="#f3_e" transform="matrix(11,0,0,11,251.3,1022.8)" />
<use xlink:href="#f3_u" transform="matrix(11,0,0,11,256,1022.8)" />
<use xlink:href="#f3_5" transform="matrix(11,0,0,11,263.5,1022.8)" />
<use xlink:href="#f3_2" transform="matrix(11,0,0,11,276.1,1022.8)" />
<use xlink:href="#f3_5" transform="matrix(11,0,0,11,283.6,1022.8)" />
<use xlink:href="#f3_2" transform="matrix(11,0,0,11,296.1,1022.8)" />
<use xlink:href="#f3_m" transform="matrix(11,0,0,11,303.6,1022.8)" />
<use xlink:href="#f3_r" transform="matrix(11,0,0,11,312.4,1022.8)" />
<use xlink:href="#f3_7" transform="matrix(11,0,0,11,325.4,1022.8)" />
<use xlink:href="#f3_8" transform="matrix(11,0,0,11,332.9,1022.8)" />
<use xlink:href="#f3_q" transform="matrix(11,0,0,11,338.5,1022.8)" />
<use xlink:href="#f2_8" transform="matrix(12,0,0,12,537,1045.6)" />
<use xlink:href="#f2_l" transform="matrix(12,0,0,12,542.8,1045.6)" />
<use xlink:href="#f2_i" transform="matrix(12,0,0,12,554.9,1045.6)" />
<use xlink:href="#f2_c" transform="matrix(12,0,0,12,559,1045.6)" />
<use xlink:href="#f2_9" transform="matrix(12,0,0,12,572,1045.6)" />
<use xlink:href="#f2_s" transform="matrix(12,0,0,12,579.3,1045.6)" />
<use xlink:href="#f2_g" transform="matrix(12,0,0,12,597.6,1045.6)" />
<use xlink:href="#f2_f" transform="matrix(12,0,0,12,609.5,1045.6)" />
<use xlink:href="#f2_q" transform="matrix(12,0,0,12,620.1,1045.6)" />
<use xlink:href="#f2_g" transform="matrix(12,0,0,12,630.4,1045.6)" />
<use xlink:href="#f2_b" transform="matrix(12,0,0,12,642.4,1045.6)" />
<use xlink:href="#f2_12" transform="matrix(12,0,0,12,658.6,1045.6)" />
<use xlink:href="#f2_o" transform="matrix(12,0,0,12,670.3,1045.6)" />
<use xlink:href="#f2_4" transform="matrix(12,0,0,12,682.2,1045.6)" />
<use xlink:href="#f2_f" transform="matrix(12,0,0,12,697.8,1045.6)" />
<use xlink:href="#f2_i" transform="matrix(12,0,0,12,708.3,1045.6)" />
<use xlink:href="#f2_i" transform="matrix(12,0,0,12,712.4,1045.6)" />
<use xlink:href="#f2_k" transform="matrix(12,0,0,12,716.5,1045.6)" />
<use xlink:href="#f2_q" transform="matrix(12,0,0,12,734.3,1045.6)" />
<use xlink:href="#f2_m" transform="matrix(12,0,0,12,744.6,1045.6)" />
<use xlink:href="#f2_6" transform="matrix(12,0,0,12,756,1045.6)" />
<use xlink:href="#f2_e" transform="matrix(12,0,0,12,761,1045.6)" />
<use xlink:href="#f3_1v" transform="matrix(11,0,0,11,137.7,1044.2)" />
<use xlink:href="#f3_x" transform="matrix(11,0,0,11,149.7,1044.2)" />
<use xlink:href="#f3_2" transform="matrix(11,0,0,11,155.3,1044.2)" />
<use xlink:href="#f3_8" transform="matrix(11,0,0,11,162.8,1044.2)" />
<use xlink:href="#f3_p" transform="matrix(11,0,0,11,183.9,1044.2)" />
<use xlink:href="#f3_2" transform="matrix(11,0,0,11,192.3,1044.2)" />
<use xlink:href="#f3_w" transform="matrix(11,0,0,11,199.7,1044.2)" />
<use xlink:href="#f3_2" transform="matrix(11,0,0,11,208.1,1044.2)" />
<use xlink:href="#f3_p" transform="matrix(11,0,0,11,231,1044.2)" />
<use xlink:href="#f3_3" transform="matrix(11,0,0,11,239.3,1044.2)" />
<use xlink:href="#f3_5" transform="matrix(11,0,0,11,244,1044.2)" />
<use xlink:href="#f3_2" transform="matrix(11,0,0,11,252.4,1044.2)" />
<use xlink:href="#f3_8" transform="matrix(11,0,0,11,259.9,1044.2)" />
<use xlink:href="#f3_9" transform="matrix(11,0,0,11,265.5,1044.2)" />
<use xlink:href="#f3_7" transform="matrix(11,0,0,11,289.3,1044.2)" />
<use xlink:href="#f3_r" transform="matrix(11,0,0,11,312,1044.2)" />
<use xlink:href="#f3_g" transform="matrix(11,0,0,11,325.2,1044.2)" />
<use xlink:href="#f3_y" transform="matrix(11,0,0,11,333.6,1044.2)" />
<use xlink:href="#f3_11" transform="matrix(11,0,0,11,341,1044.2)" />
<use xlink:href="#f3_7" transform="matrix(11,0,0,11,349.4,1044.2)" />
<use xlink:href="#f3_z" transform="matrix(11,0,0,11,372.3,1044.2)" />
<use xlink:href="#f3_2" transform="matrix(11,0,0,11,380.7,1044.2)" />
<use xlink:href="#f3_5" transform="matrix(11,0,0,11,388.2,1044.2)" />
<use xlink:href="#f3_e" transform="matrix(11,0,0,11,396.4,1044.2)" />
<use xlink:href="#f3_2" transform="matrix(11,0,0,11,401.1,1044.2)" />
<use xlink:href="#f3_n" transform="matrix(11,0,0,11,408.6,1044.2)" />
<use xlink:href="#f3_r" transform="matrix(11,0,0,11,413.2,1044.2)" />
<use xlink:href="#f3_g" transform="matrix(11,0,0,11,426.3,1044.2)" />
<use xlink:href="#f3_y" transform="matrix(11,0,0,11,434.7,1044.2)" />
<use xlink:href="#f3_11" transform="matrix(11,0,0,11,442.2,1044.2)" />
<use xlink:href="#f3_7" transform="matrix(11,0,0,11,450.6,1044.2)" />
<use xlink:href="#f3_6" transform="matrix(11,0,0,11,458.1,1044.2)" />
<use xlink:href="#f3_4" transform="matrix(11,0,0,11,137.7,1063.6)" />
<use xlink:href="#f3_2" transform="matrix(11,0,0,11,146.1,1063.6)" />
<use xlink:href="#f3_8" transform="matrix(11,0,0,11,153.5,1063.6)" />
<use xlink:href="#f3_6" transform="matrix(11,0,0,11,159.1,1063.6)" />
<use xlink:href="#f3_9" transform="matrix(11,0,0,11,165.7,1063.6)" />
<use xlink:href="#f3_5" transform="matrix(11,0,0,11,174.1,1063.6)" />
<use xlink:href="#f3_7" transform="matrix(11,0,0,11,182.4,1063.6)" />
<use xlink:href="#f3_6" transform="matrix(11,0,0,11,189.8,1063.6)" />
<use xlink:href="#f3_q" transform="matrix(11,0,0,11,196.4,1063.6)" />
<use xlink:href="#f2_8" transform="matrix(12,0,0,12,698.8,1084.3)" />
<use xlink:href="#f2_a" transform="matrix(12,0,0,12,704.6,1084.3)" />
<use xlink:href="#f2_s" transform="matrix(12,0,0,12,714.6,1084.3)" />
<use xlink:href="#f2_7" transform="matrix(12,0,0,12,726.8,1084.3)" />
<use xlink:href="#f2_f" transform="matrix(12,0,0,12,745.2,1084.3)" />
<use xlink:href="#f2_6" transform="matrix(12,0,0,12,755.8,1084.3)" />
<use xlink:href="#f2_d" transform="matrix(12,0,0,12,760.7,1084.3)" />
<use xlink:href="#f3_1p" transform="matrix(11,0,0,11,137.7,1082.9)" />
<use xlink:href="#f3_g" transform="matrix(11,0,0,11,152.6,1082.9)" />
<use xlink:href="#f3_i" transform="matrix(11,0,0,11,161,1082.9)" />
<use xlink:href="#f3_w" transform="matrix(11,0,0,11,173.7,1082.9)" />
<use xlink:href="#f3_3" transform="matrix(11,0,0,11,181.9,1082.9)" />
<use xlink:href="#f3_2" transform="matrix(11,0,0,11,186.7,1082.9)" />
<use xlink:href="#f3_5" transform="matrix(11,0,0,11,194.1,1082.9)" />
<use xlink:href="#f3_q" transform="matrix(11,0,0,11,202.5,1082.9)" />
</g>
<g fill="#0000FF" >
<use xlink:href="#f2_j" transform="matrix(12,0,0,12,669.9,1125.1)" />
<use xlink:href="#f2_q" transform="matrix(12,0,0,12,682.9,1125.1)" />
<use xlink:href="#f2_m" transform="matrix(12,0,0,12,693.1,1125.1)" />
<use xlink:href="#f2_b" transform="matrix(12,0,0,12,704.6,1125.1)" />
<use xlink:href="#f2_g" transform="matrix(12,0,0,12,720.9,1125.1)" />
<use xlink:href="#f2_q" transform="matrix(12,0,0,12,732.8,1125.1)" />
<use xlink:href="#f2_p" transform="matrix(12,0,0,12,743.2,1125.1)" />
<use xlink:href="#f2_k" transform="matrix(12,0,0,12,749.6,1125.1)" />
<use xlink:href="#f2_f" transform="matrix(12,0,0,12,761.5,1125.1)" />
</g>
</g>
<path d="M664,1126.9H772.1" class="g1_14" />
<g clip-path="url(#c0_14)">
<g fill="#000000" >
<use xlink:href="#f2_14" transform="matrix(11,0,0,11,137.5,1208.9)" />
<use xlink:href="#f2_1a" transform="matrix(11,0,0,11,148.2,1208.9)" />
</g>
</g>
<defs>
<path d="M721,-14c0,0,-12,0,-12,9l4,28c0,0,17,82,17,338c0,0,0,105,-11,163c0,0,-11,58,-35,84c0,0,-25,26,-83,26H315c0,0,-43,-39,-67,-90c0,0,-25,-51,-25,-104c0,0,0,-59,17,-104c0,0,17,-45,35,-78c0,0,18,-34,18,-44c0,0,0,-26,-20,-95C273,119,252,50,231,0H26L87,214h69c0,0,23,0,23,14l-7,15c0,0,-15,27,-27,68c0,0,-11,41,-11,83c0,0,0,68,25,124c0,0,25,57,86,116H200c0,0,-45,0,-71,32c0,0,-27,33,-27,94c0,0,0,49,17,93c0,0,16,43,32,43c0,0,17,0,17,-10V869c0,0,0,-24,27,-24H637c0,0,73,0,103,-18c0,0,30,-17,46,-62c0,0,17,-46,24,-124c0,0,8,-78,8,-214V338c0,0,0,-279,-27,-311c0,0,-14,-16,-37,-28c0,0,-23,-13,-33,-13Z" 
id="f0_e"
transform="scale(0.001,-0.001)" />

<path d="M204,-8c0,0,-9,0,-11,5c0,0,-2,5,-2,22V549c0,0,0,40,-4,56c0,0,-4,16,-15,22c0,0,-10,7,-39,7H90c0,0,-33,0,-52,33c0,0,-19,33,-19,90c0,0,0,53,15,98c0,0,16,44,35,44c0,0,12,0,12,-13V872c0,0,0,-27,31,-27h42c0,0,79,0,103,-20c0,0,23,-19,23,-83V67c0,0,0,-16,-8,-26c0,0,-9,-10,-33,-30c0,0,-25,-19,-35,-19Z" 
id="f0_5"
transform="scale(0.001,-0.001)" />

<path d="M20,0L75,212H492c0,0,19,51,25,97c0,0,5,46,5,105c0,0,0,63,-6,124c0,0,-6,61,-23,78c0,0,-16,18,-66,18H112c0,0,-36,0,-57,40c0,0,-21,40,-21,101c0,0,0,50,16,87c0,0,16,36,36,36c0,0,13,0,13,-14V870c0,0,0,-25,34,-25H457c0,0,63,0,92,-11c0,0,28,-10,41,-36c0,0,13,-26,18,-107c0,0,4,-80,4,-174c0,0,0,-174,-13,-224c0,0,-4,-15,-21,-41c0,0,-17,-25,-31,-40H688L640,0Z" 
id="f0_15"
transform="scale(0.001,-0.001)" />

<path d="M216,0c0,0,-59,212,-83,350c0,0,-25,139,-25,198c0,0,0,76,23,127c0,0,-42,13,-58,43c0,0,-15,30,-15,72c0,0,0,40,20,74c0,0,20,34,37,34c0,0,10,0,10,-13c0,0,0,-42,69,-42c0,0,57,0,80,-21c0,0,22,-21,22,-62c0,0,0,-38,-7,-72c0,0,-6,-34,-12,-34c0,0,-6,0,-16,10c0,0,-10,10,-25,10c0,0,-25,0,-35,-24c0,0,-10,-24,-10,-71c0,0,0,-164,72,-374c0,0,38,80,116,231c0,0,87,168,121,238c0,0,-36,6,-52,34c0,0,-17,28,-17,66c0,0,0,41,21,82c0,0,20,42,37,42c0,0,9,0,10,-7c0,0,5,-22,13,-32c0,0,9,-11,32,-12l44,-4c0,0,87,-4,87,-94c0,0,0,-33,-7,-67c0,0,-8,-34,-16,-34l-16,10c0,0,-15,10,-30,10c0,0,-22,0,-39,-29c0,0,-18,-32,-39,-72c0,0,-21,-41,-178,-355H691l38,91c0,0,58,139,124,224c0,0,38,50,60,80c0,0,22,29,22,45c0,0,0,12,-7,19c0,0,-6,7,-27,12c0,0,-42,18,-60,41c0,0,-17,24,-17,59c0,0,0,29,11,56c0,0,12,27,27,43c0,0,16,16,26,16c0,0,9,-1,10,-6l4,-14c0,0,4,-21,27,-25l70,-13c0,0,32,-6,51,-30c0,0,20,-24,20,-61c0,0,-2,-45,-23,-87c0,0,-21,-41,-91,-127c0,0,-46,-57,-77,-116c0,0,-31,-59,-71,-161L706,0Z" 
id="f0_6"
transform="scale(0.001,-0.001)" />

<path d="M248,0L521,658H66v429H313V836l493,-1V716L504,0Z" 
id="f1_a"
transform="scale(0.001,-0.001)" />

<path d="M102,250V836H349V351L102,250Z" 
id="f1_8"
transform="scale(0.001,-0.001)" />

<path d="M154,-13c0,0,-38,0,-85,9V198c0,0,58,-15,103,-15c0,0,84,0,118,60c0,0,35,61,35,206c0,0,0,66,-7,105c0,0,-6,39,-24,63c0,0,-17,25,-44,33c0,0,-27,8,-73,8H66V836H225c0,0,198,0,275,-115c0,0,56,-84,65,-264c0,0,3,-55,3,-148c0,0,0,-177,71,-309L393,1c0,0,-53,130,-54,141c0,0,-28,-90,-65,-123c0,0,-38,-32,-120,-32Z" 
id="f1_k"
transform="scale(0.001,-0.001)" />

<path d="M534,0V425c0,0,0,109,-41,171c0,0,-41,62,-140,62H66V836H352c0,0,99,0,174,-20c0,0,75,-20,123,-55c0,0,48,-35,78,-87c0,0,30,-53,42,-113c0,0,12,-60,12,-136V0Z" 
id="f1_4"
transform="scale(0.001,-0.001)" />

<path d="M173,-6C173,-6,61,-6,15,9V177c0,0,73,-10,82,-10c0,0,37,0,52,30c0,0,14,29,14,116V658H18V836H516c0,0,262,0,341,-145c0,0,48,-89,48,-242V0H658V450c0,0,0,131,-37,171c0,0,-34,37,-105,37H411V313c0,0,0,-189,-67,-258C344,55,285,-6,173,-6Z" 
id="f1_h"
transform="scale(0.001,-0.001)" />

<path d="M180,0V198H433V918L173,864v196l258,54H705V198H958V0Z" 
id="f1_m"
transform="scale(0.001,-0.001)" />

<path d="M163,0V190H321V0Z" 
id="f2_8"
transform="scale(0.001,-0.001)" />

<path d="M180,0L66,836H203L258,443c0,0,36,1,64,6c0,0,28,6,49,18c0,0,20,12,35,26c0,0,15,13,26,36c0,0,11,24,17,44c0,0,7,20,12,55c0,0,6,34,9,60c0,0,3,26,8,71c0,0,4,45,9,77H610c0,0,-13,-194,-31,-271c0,0,-31,-127,-111,-179c0,0,-71,-45,-196,-50L304,107c0,0,73,0,130,5c0,0,56,6,111,21c0,0,54,15,94,40c0,0,40,25,77,64c0,0,37,39,63,94c0,0,25,54,46,128c0,0,21,73,34,166c0,0,13,94,20,211h138c0,0,-14,-124,-29,-218c0,0,-16,-94,-39,-179c0,0,-22,-85,-50,-146c0,0,-28,-61,-68,-112c0,0,-39,-51,-87,-84C744,97,696,65,632,42C632,42,568,19,492,10C492,10,417,0,320,0Z" 
id="f2_c"
transform="scale(0.001,-0.001)" />

<path d="M102,312V836H241V369L102,312Z" 
id="f2_i"
transform="scale(0.001,-0.001)" />

<path d="M138,-7c0,0,-34,0,-72,10V129c0,0,25,-8,52,-8c0,0,33,0,58,5c0,0,26,5,58,24c0,0,33,20,53,54c0,0,21,34,36,97c0,0,15,64,15,151c0,0,0,113,-19,173c0,0,-19,60,-56,82c0,0,-38,22,-107,22H89V836h72c0,0,165,0,240,-91c0,0,76,-91,76,-293c0,0,0,-107,26,-227c0,0,25,-119,83,-225H437c0,0,-43,101,-62,184c0,0,-24,-60,-51,-99c0,0,-26,-38,-56,-58C268,27,239,7,209,0c0,0,-30,-7,-71,-7Z" 
id="f2_n"
transform="scale(0.001,-0.001)" />

<path d="M585,0V426c0,0,0,54,-8,98c0,0,-8,44,-27,83c0,0,-19,40,-49,66c0,0,-30,26,-77,41c0,0,-47,15,-108,15H66V836H315c0,0,94,0,166,-20c0,0,71,-20,116,-54c0,0,46,-35,75,-88c0,0,28,-52,40,-112c0,0,12,-60,12,-137V0Z" 
id="f2_q"
transform="scale(0.001,-0.001)" />

<path d="M114,0l60,312c0,0,2,12,8,39c0,0,6,27,7,37c0,0,2,11,5,30c0,0,2,19,4,33c0,0,1,15,1,31c0,0,0,48,-35,146c0,0,-35,98,-98,208H228c0,0,3,-8,27,-67c0,0,25,-58,41,-117c0,0,21,53,50,90c0,0,29,37,57,57c0,0,29,21,65,32c0,0,37,11,65,14c0,0,28,3,67,3c0,0,300,0,300,-396V0H480V106H761V452c0,0,0,146,-46,215c0,0,-45,70,-118,70c0,0,-134,0,-198,-119c0,0,-36,-68,-67,-222c0,0,-2,-10,-6,-27L253,0Z" 
id="f2_7"
transform="scale(0.001,-0.001)" />

<path d="M66,0V107H332V555c0,0,0,92,-37,133c0,0,-37,41,-116,41H85V836h94c0,0,153,0,223,-66c0,0,69,-66,69,-231V0Z" 
id="f2_9"
transform="scale(0.001,-0.001)" />

<path d="M139,0V138c0,0,0,61,8,112c0,0,7,52,19,87c0,0,11,36,30,66c0,0,19,31,35,49c0,0,17,19,41,35c0,0,25,17,41,25c0,0,17,7,40,17L141,836H303L613,388c0,0,20,10,33,18c0,0,13,8,34,28c0,0,20,20,33,44c0,0,13,25,22,66c0,0,10,41,10,92V836H882V698c0,0,0,-61,-7,-112c0,0,-6,-52,-18,-88c0,0,-12,-36,-30,-66c0,0,-19,-30,-36,-49c0,0,-17,-18,-41,-34c0,0,-24,-17,-40,-25c0,0,-17,-8,-41,-17L882,0H720L409,448c0,0,-21,-11,-34,-19c0,0,-13,-8,-34,-27c0,0,-21,-20,-34,-44c0,0,-12,-25,-22,-66c0,0,-9,-41,-9,-92V0Z" 
id="f2_s"
transform="scale(0.001,-0.001)" />

<path d="M322,0V40L481,60V389L130,941L17,960v40H440V960L306,941L593,480L866,941L739,960v40h326V960L955,941L625,394V60L784,40V0Z" 
id="f3_1h"
transform="scale(0.001,-0.001)" />

<path d="M377,45c0,0,99,0,147,73c0,0,47,73,47,237c0,0,0,161,-47,233c0,0,-47,72,-147,72c0,0,-97,0,-141,-69c0,0,-44,-69,-44,-236c0,0,0,-169,45,-240c0,0,44,-70,140,-70Zm0,-59c0,0,-158,0,-238,94c0,0,-81,95,-81,274c0,0,0,178,81,272c0,0,80,94,244,94c0,0,160,0,241,-92c0,0,82,-92,82,-274c0,0,0,-368,-329,-368Z" 
id="f3_9"
transform="scale(0.001,-0.001)" />

<path d="M278,-14c0,0,-52,0,-115,11c0,0,-63,10,-99,23V193H98L134,95c0,0,56,-50,146,-50c0,0,144,0,144,123c0,0,0,91,-114,130l-66,21c0,0,-75,25,-110,50c0,0,-34,26,-53,63c0,0,-18,36,-18,89c0,0,0,92,63,145c0,0,63,54,170,54c0,0,77,0,193,-23V544H454l-32,81c0,0,-39,35,-124,35c0,0,-61,0,-92,-30c0,0,-32,-30,-32,-80c0,0,0,-43,29,-72c0,0,28,-29,86,-48c0,0,110,-38,144,-55c0,0,33,-17,57,-42c0,0,23,-25,36,-57c0,0,13,-32,13,-79c0,0,0,-104,-66,-158c0,0,-66,-53,-195,-53Z" 
id="f3_6"
transform="scale(0.001,-0.001)" />

<path d="M32,0V33L151,52V649L52,668v33H275V52L395,33V0ZM201,850c0,0,-32,0,-56,24c0,0,-24,24,-24,56c0,0,0,34,24,58c0,0,24,24,56,24c0,0,34,0,58,-24c0,0,24,-24,24,-58c0,0,0,-32,-24,-56c0,0,-24,-24,-58,-24Z" 
id="f3_3"
transform="scale(0.001,-0.001)" />

<path d="M495,413c0,0,0,133,-34,190c0,0,-34,57,-105,57c0,0,-78,0,-119,-63c0,0,-42,-62,-42,-184ZM374,-14c0,0,-163,0,-239,87c0,0,-75,88,-75,283c0,0,0,183,77,273c0,0,76,91,219,91c0,0,269,0,269,-306V353H194V340c0,0,0,-103,23,-160c0,0,22,-57,70,-87c0,0,47,-29,124,-29c0,0,40,0,96,6c0,0,55,7,91,15V43C598,43,562,20,500,3c0,0,-61,-17,-126,-17Z" 
id="f3_2"
transform="scale(0.001,-0.001)" />

<path d="M439,0V33l93,19V500c0,0,0,62,-30,97c0,0,-31,36,-94,36c0,0,-67,0,-165,-22V52L338,33V0H35V33l84,19V649L35,668v33H235l7,-57c0,0,57,33,122,54c0,0,65,22,108,22c0,0,91,0,137,-53c0,0,47,-53,47,-154V52L741,33V0Z" 
id="f3_5"
transform="scale(0.001,-0.001)" />

<path d="M249,-14c0,0,-71,0,-107,42c0,0,-35,42,-35,119V639H15v33l93,29l76,159h47V701H391V639H231V161c0,0,0,-48,22,-73c0,0,22,-24,57,-24c0,0,44,0,106,12V26C416,26,389,8,340,-2c0,0,-49,-12,-91,-12Z" 
id="f3_e"
transform="scale(0.001,-0.001)" />

<path d="M191,-20c0,0,-39,0,-65,25c0,0,-25,27,-25,64c0,0,0,38,26,64c0,0,26,26,64,26c0,0,38,0,64,-26c0,0,26,-26,26,-64c0,0,0,-37,-25,-64c0,0,-26,-25,-65,-25Z" 
id="f3_q"
transform="scale(0.001,-0.001)" />

<path d="M154,0V454l138,56V0ZM722,0V454c0,0,0,161,-49,218c0,0,-48,57,-186,57H139V836H485c0,0,207,0,291,-93c0,0,83,-94,83,-318V0Z" 
id="f2_g"
transform="scale(0.001,-0.001)" />

<path d="M112,-5c0,0,-39,0,-97,11V113c0,0,48,-10,77,-10c0,0,53,0,70,42c0,0,17,43,17,164V729H50V836H501c0,0,107,0,179,-25c0,0,72,-25,112,-77c0,0,40,-51,57,-118c0,0,16,-67,16,-164V0H726V454c0,0,0,55,-3,92c0,0,-4,37,-17,75c0,0,-14,38,-38,59c0,0,-24,22,-65,36c0,0,-42,13,-102,13H318V309c0,0,0,-160,-46,-237C272,72,226,-5,112,-5Z" 
id="f2_h"
transform="scale(0.001,-0.001)" />

<path d="M235,0V40L394,60V936H356c0,0,-189,0,-258,-15L78,766H28v234H908V766H857L837,921c0,0,-22,5,-98,9c0,0,-75,4,-165,4H538V60L697,40V0Z" 
id="f3_1s"
transform="scale(0.001,-0.001)" />

<path d="M289,-14c0,0,-179,0,-179,205V649L20,668v33H233V200c0,0,0,-128,120,-128c0,0,92,0,173,23V649L420,668v33H649V52L738,34V0H533l-6,57C527,57,474,28,405,6c0,0,-69,-20,-116,-20Zm24,849v24l147,203H618v-27L354,835Z" 
id="f3_j"
transform="scale(0.001,-0.001)" />

<path d="M139,0V836H278V0Z" 
id="f2_6"
transform="scale(0.001,-0.001)" />

<path d="M66,0V106H564L66,836H228L516,413c0,0,3,2,9,6c0,0,17,13,27,21c0,0,10,8,26,27c0,0,17,20,26,40c0,0,9,21,16,54c0,0,7,34,7,75V836H764V698c0,0,0,-55,-7,-102c0,0,-7,-47,-16,-79c0,0,-10,-33,-27,-62c0,0,-18,-29,-32,-46c0,0,-14,-17,-37,-35c0,0,-22,-17,-36,-25c0,0,-13,-8,-36,-20L767,53V0Z" 
id="f2_r"
transform="scale(0.001,-0.001)" />

<path d="M139,-317V836H278V-317Z" 
id="f2_3"
transform="scale(0.001,-0.001)" />

<path d="M557,-14c0,0,-199,0,-298,89c0,0,-99,90,-99,255V941L32,960v40H432V960L304,941V341c0,0,0,-273,264,-273c0,0,144,0,220,68c0,0,77,68,77,202V941L730,960v40h341V960L943,941V344c0,0,0,-180,-99,-269c0,0,-99,-89,-287,-89Z" 
id="f3_o"
transform="scale(0.001,-0.001)" />

<path d="M383,64c0,0,85,0,152,28V645c0,0,-67,13,-152,13c0,0,-194,0,-194,-314c0,0,0,-141,48,-211c0,0,48,-69,146,-69ZM342,-14c0,0,-287,0,-287,358c0,0,0,184,82,280c0,0,81,96,239,96c0,0,81,0,163,-18c0,0,-4,25,-4,124v182l-118,18v34H659V52L745,33V0H548l-9,52c0,0,-84,-66,-197,-66Z" 
id="f3_p"
transform="scale(0.001,-0.001)" />

<path d="M383,64c0,0,44,0,87,7c0,0,43,7,65,17V645c0,0,-67,13,-152,13c0,0,-194,0,-194,-309c0,0,0,-143,48,-214c0,0,47,-71,146,-71Zm56,-389v35l96,18V-77c0,0,0,73,7,124c0,0,-79,-61,-200,-61c0,0,-287,0,-287,362c0,0,0,180,81,276c0,0,81,96,237,96c0,0,84,0,166,-18l67,33h53V-272l77,-18v-35Z" 
id="f3_f"
transform="scale(0.001,-0.001)" />

<path d="M289,-14c0,0,-179,0,-179,205V649L20,668v33H233V200c0,0,0,-128,120,-128c0,0,92,0,173,23V649L420,668v33H649V52L738,33V0H533l-6,57C527,57,474,28,405,7c0,0,-69,-21,-116,-21Z" 
id="f3_g"
transform="scale(0.001,-0.001)" />

<path d="M31,0V33l88,19V649L31,668v33H235l7,-87c0,0,44,37,121,71c0,0,76,35,121,35h11V530H463l-43,82c0,0,-37,0,-88,-10c0,0,-52,-10,-89,-26V52L363,33V0Z" 
id="f3_8"
transform="scale(0.001,-0.001)" />

<path d="M736,107V473c0,0,0,147,-48,202c0,0,-49,54,-187,54H278V107ZM139,0V836H499c0,0,105,0,177,-22c0,0,72,-21,116,-69c0,0,44,-49,64,-119c0,0,19,-71,19,-174V0Z" 
id="f2_l"
transform="scale(0.001,-0.001)" />

<path d="M66,0V107H554V452c0,0,0,56,-4,93c0,0,-4,37,-18,75c0,0,-14,38,-40,60c0,0,-26,22,-71,36c0,0,-45,13,-110,13H66V836H312c0,0,91,0,157,-17c0,0,66,-17,109,-49c0,0,44,-32,69,-84c0,0,26,-52,36,-114c0,0,10,-62,10,-147V107H817V0Z" 
id="f2_f"
transform="scale(0.001,-0.001)" />

<path d="M139,0V836H485c0,0,206,0,290,-90c0,0,84,-89,84,-294V0H721V473c0,0,0,147,-49,202c0,0,-48,54,-186,54H277V0Z" 
id="f2_k"
transform="scale(0.001,-0.001)" />

<path d="M495,0V729H66V836H781V729H634V0Z" 
id="f2_a"
transform="scale(0.001,-0.001)" />

<path d="M66,0V106H322c0,0,75,0,127,23c0,0,53,23,82,67c0,0,29,43,42,98c0,0,13,54,13,124c0,0,0,70,-13,124c0,0,-13,55,-42,98c0,0,-29,44,-82,67c0,0,-52,23,-127,23H66V836H322c0,0,87,0,157,-24c0,0,70,-24,115,-64c0,0,45,-40,74,-94c0,0,30,-55,43,-113c0,0,13,-59,13,-123c0,0,0,-64,-13,-123c0,0,-13,-58,-43,-113c0,0,-29,-54,-74,-94C594,88,549,48,479,24C479,24,409,0,322,0Z" 
id="f2_4"
transform="scale(0.001,-0.001)" />

<path d="M382,45c0,0,188,0,188,314c0,0,0,143,-47,213c0,0,-46,69,-141,69c0,0,-87,0,-146,-24V58c0,0,67,-13,146,-13ZM25,-325v35l88,18V649L34,668v33H231l1,-41c0,0,31,27,84,43c0,0,53,17,107,17c0,0,134,0,208,-94c0,0,73,-93,73,-267c0,0,0,-178,-80,-276c0,0,-80,-97,-232,-97c0,0,-84,0,-160,16c0,0,4,-53,4,-84V-272l123,-18v-35Z" 
id="f3_4"
transform="scale(0.001,-0.001)" />

<path d="M284,67c0,0,51,0,88,12c0,0,37,12,74,30V358l-98,-3c0,0,-100,-4,-135,-39c0,0,-35,-35,-35,-117c0,0,0,-132,106,-132ZM233,-14c0,0,-179,0,-179,208c0,0,0,70,27,116c0,0,27,46,87,70c0,0,60,24,173,27l105,3V519c0,0,0,72,-26,107c0,0,-27,34,-82,34c0,0,-75,0,-137,-35L176,538H134V691c0,0,121,26,213,26c0,0,115,0,169,-47c0,0,54,-47,54,-144V52L657,33V0H465L451,70c0,0,-85,-84,-218,-84Z" 
id="f3_7"
transform="scale(0.001,-0.001)" />

<path d="M868,0L251,900V60L385,40V0H44V40L172,60V941L44,960v40H347L862,259V941L727,960v40h341V960L940,941V0Z" 
id="f3_1u"
transform="scale(0.001,-0.001)" />

<path d="M431,0V33L535,52V499c0,0,0,62,-32,96c0,0,-32,33,-95,33c0,0,-66,0,-163,-22V52L350,33V0H32V33l89,19V649L32,668v33H237l6,-57c0,0,56,32,119,54c0,0,62,22,110,22c0,0,52,0,95,-20c0,0,44,-19,66,-62c0,0,57,32,134,57c0,0,77,25,128,25c0,0,179,0,179,-207V52l90,-19V0H846V33L950,52V499c0,0,0,129,-119,129c0,0,-19,0,-45,-3c0,0,-26,-3,-52,-7c0,0,-25,-4,-49,-8c0,0,-23,-5,-39,-8c0,0,13,-41,13,-89V52L764,33V0Z" 
id="f3_r"
transform="scale(0.001,-0.001)" />

<path d="M44,0V40L172,60V941L44,961v39H794V761H745L721,923c0,0,-83,10,-241,10H316V542H586l23,120h48V354H609L586,475H316V67H513c0,0,193,0,252,12l43,185h49L843,0ZM351,1084v25l146,202H656v-27L392,1084Z" 
id="f3_18"
transform="scale(0.001,-0.001)" />

<path d="M31,0V33L150,52v956L31,1026v34H274V52L394,33V0Z" 
id="f3_m"
transform="scale(0.001,-0.001)" />

<path d="M44,0V40L172,60V941L44,960v40H794V760H745L721,922c0,0,-83,11,-241,11H316V543H586l23,119h48V354H609L586,475H316V67H513c0,0,193,0,252,12l43,185h49L843,0Z" 
id="f3_c"
transform="scale(0.001,-0.001)" />

<path d="M156,-317V454l139,56V-317ZM505,0L806,729H139V835H967V753L650,0Z" 
id="f2_j"
transform="scale(0.001,-0.001)" />

<path d="M139,0V106H400c0,0,176,0,253,71c0,0,78,72,78,250c0,0,0,163,-80,233c0,0,-81,69,-250,69H278L277,564c0,0,-1,-54,26,-80c0,0,27,-25,82,-25c0,0,30,0,80,9V355c0,0,-61,-12,-111,-12c0,0,-100,0,-157,55c0,0,-58,55,-58,186V836H456c0,0,193,0,303,-109c0,0,110,-109,110,-309c0,0,0,-200,-110,-309C759,109,648,0,456,0Z" 
id="f2_m"
transform="scale(0.001,-0.001)" />

<path d="M287,0L589,729H66v386H205V836l547,-1l-2,-82L433,0Z" 
id="f2_b"
transform="scale(0.001,-0.001)" />

<path d="M152,0V473c0,0,0,94,28,161c0,0,29,66,71,95H66V836H463V729H404c0,0,-65,0,-89,-57c0,0,-25,-58,-25,-199V0Z" 
id="f2_p"
transform="scale(0.001,-0.001)" />

<path d="M121,0V211L528,570c0,0,54,50,80,96c0,0,27,47,27,98c0,0,0,78,-53,126c0,0,-53,48,-140,48c0,0,-67,0,-147,-29c0,0,-80,-28,-171,-85v245c0,0,97,32,192,48c0,0,95,17,186,17c0,0,199,0,310,-88c0,0,111,-88,111,-245c0,0,0,-91,-47,-170c0,0,-47,-79,-197,-211L441,211H931V0Z" 
id="f1_n"
transform="scale(0.001,-0.001)" />

<path d="M55,0V40L184,60V941L55,960v40H455V960L327,941V60L455,40V0Z" 
id="f3_a"
transform="scale(0.001,-0.001)" />

<path d="M448,506c0,0,134,0,190,49c0,0,57,50,57,168c0,0,0,114,-56,162c0,0,-56,48,-195,48H316V506ZM777,0L496,438H316V60L468,40V0H54V40L172,60V941L44,960v40H476c0,0,188,0,277,-63c0,0,90,-64,90,-204c0,0,0,-100,-54,-173c0,0,-55,-73,-151,-101L909,60L1017,40V0Z" 
id="f3_b"
transform="scale(0.001,-0.001)" />

<path d="M681,416L504,902L333,416ZM669,0V40L803,60L704,348H310L210,60L344,40V0H15V40L128,60l341,949H611L965,60L1092,40V0Z" 
id="f3_d"
transform="scale(0.001,-0.001)" />

<path d="M700,-317V454c0,0,0,155,-54,215c0,0,-54,60,-180,60H277V551c0,0,0,-55,26,-80c0,0,27,-26,82,-26c0,0,30,0,80,10V341c0,0,-61,-11,-111,-11c0,0,-100,0,-157,55c0,0,-58,55,-58,186V836H466c0,0,203,0,288,-91c0,0,85,-92,85,-293V-317Z" 
id="f2_12"
transform="scale(0.001,-0.001)" />

<path d="M71,-141V-15L289,62L66,836H210L416,109c0,0,99,42,153,98c0,0,53,56,80,155c0,0,26,98,26,262V836H817V624c0,0,0,-88,-7,-154c0,0,-7,-67,-25,-132c0,0,-18,-66,-51,-116c0,0,-33,-51,-84,-98c0,0,-50,-48,-123,-87c0,0,-72,-39,-169,-74L71,-141Z" 
id="f2_e"
transform="scale(0.001,-0.001)" />

<path d="M64,0V34L168,59V639H47v36l121,29v49c0,0,0,155,61,239c0,0,62,84,173,84c0,0,58,0,107,-15V908H472l-33,92c0,0,-26,16,-62,16c0,0,-47,0,-66,-42c0,0,-19,-42,-19,-157V701H478V639H292V59L443,34V0Z" 
id="f3_x"
transform="scale(0.001,-0.001)" />

<path d="M522,92c0,0,247,0,247,333c0,0,0,88,-17,146c0,0,-17,58,-53,91c0,0,-35,33,-82,46c0,0,-48,14,-116,14H276V419c0,0,0,-327,246,-327Zm0,-112c0,0,-193,0,-289,109c0,0,-95,110,-95,337V836H501c0,0,213,0,309,-93c0,0,96,-94,96,-317c0,0,0,-227,-95,-337C811,89,715,-20,522,-20Z" 
id="f2_o"
transform="scale(0.001,-0.001)" />

<path d="M399,-14c0,0,-341,0,-341,370c0,0,0,175,87,269c0,0,87,95,249,95c0,0,101,0,220,-23V501H573L541,625c0,0,-62,35,-149,35c0,0,-200,0,-200,-304c0,0,0,-158,61,-225c0,0,61,-67,189,-67c0,0,109,0,189,24V43C631,43,595,16,530,1c0,0,-64,-15,-131,-15Z" 
id="f3_y"
transform="scale(0.001,-0.001)" />

<path d="M148,-329c0,0,-58,0,-114,13v151H69l24,-71c0,0,23,-17,64,-17c0,0,39,0,72,22c0,0,33,23,60,67c0,0,27,44,68,157L90,649L19,668v33H344V668L233,648L423,158L606,649L497,668v33H758V668L685,652L411,-43c0,0,-48,-124,-84,-177c0,0,-36,-54,-79,-82c0,0,-44,-27,-100,-27Z" 
id="f3_i"
transform="scale(0.001,-0.001)" />

<path d="M495,413c0,0,0,133,-34,190c0,0,-34,57,-105,57c0,0,-78,0,-119,-62c0,0,-42,-63,-42,-185ZM374,-14c0,0,-163,0,-239,87c0,0,-75,88,-75,283c0,0,0,183,77,274c0,0,76,90,219,90c0,0,269,0,269,-306V353H194V339c0,0,0,-103,23,-160c0,0,22,-57,70,-86c0,0,47,-30,124,-30c0,0,40,0,96,6c0,0,55,7,91,15V43C598,43,562,19,500,2c0,0,-61,-16,-126,-16ZM285,835v24l146,203H590v-27L326,835Z" 
id="f3_l"
transform="scale(0.001,-0.001)" />

<path d="M0,-14L351,1007h73L75,-14Z" 
id="f3_n"
transform="scale(0.001,-0.001)" />

<path d="M445,-20c0,0,-86,0,-172,13c0,0,-86,13,-170,40V255c0,0,80,-40,160,-60c0,0,79,-21,156,-21c0,0,114,0,174,40c0,0,61,39,61,113c0,0,0,76,-62,115c0,0,-62,39,-184,39H293V666H414c0,0,108,0,161,34c0,0,53,34,53,103c0,0,0,65,-52,100c0,0,-51,35,-145,35c0,0,-69,0,-140,-16c0,0,-70,-15,-140,-46v210c0,0,85,24,168,36c0,0,83,12,164,12c0,0,217,0,325,-71c0,0,107,-71,107,-215c0,0,0,-98,-51,-160c0,0,-52,-62,-152,-88c0,0,112,-29,171,-101c0,0,59,-72,59,-183c0,0,0,-165,-127,-251c0,0,-127,-85,-370,-85Z" 
id="f1_o"
transform="scale(0.001,-0.001)" />

<path d="M359,-270c0,0,124,0,192,46c0,0,67,47,67,129c0,0,0,43,-26,67c0,0,-26,24,-79,24H242c0,0,-32,-27,-51,-69c0,0,-20,-41,-20,-77c0,0,0,-64,46,-92c0,0,46,-28,142,-28Zm11,561c0,0,81,0,115,47c0,0,34,47,34,141c0,0,0,100,-35,142c0,0,-35,42,-113,42c0,0,-78,0,-114,-43c0,0,-37,-42,-37,-141c0,0,0,-98,36,-143c0,0,36,-45,114,-45ZM359,-329c0,0,-143,0,-218,44c0,0,-75,43,-75,125c0,0,0,39,27,78c0,0,26,38,98,89c0,0,-43,14,-72,48c0,0,-29,35,-29,74L208,262c0,0,-118,55,-118,217c0,0,0,115,73,178c0,0,73,63,211,63c0,0,28,0,71,-6c0,0,44,-6,67,-13l165,83l26,-32L599,644c0,0,50,-56,50,-165c0,0,0,-120,-72,-182c0,0,-73,-62,-208,-62c0,0,-62,0,-114,11L208,148c0,0,2,-13,29,-24c0,0,27,-12,67,-12H512c0,0,113,0,168,-49c0,0,55,-49,55,-134c0,0,0,-79,-44,-137c0,0,-43,-58,-128,-90c0,0,-84,-31,-204,-31Z" 
id="f3_z"
transform="scale(0.001,-0.001)" />

<path d="M562,411V877L247,411ZM562,0V202H68V449l447,665H834V411H993V202H834V0Z" 
id="f1_q"
transform="scale(0.001,-0.001)" />

<path d="M522,-20c0,0,-196,0,-290,99c0,0,-94,100,-94,324V836H276V397c0,0,0,-86,16,-147c0,0,17,-60,50,-94c0,0,34,-34,77,-49c0,0,43,-15,103,-15c0,0,59,0,102,15c0,0,44,15,77,49c0,0,33,34,50,94c0,0,17,61,17,147c0,0,0,84,-8,143c0,0,-7,58,-25,105c0,0,-17,47,-51,69c0,0,-33,23,-83,23c0,0,-50,0,-119,-22V821c0,0,85,23,150,23c0,0,76,0,130,-30c0,0,53,-31,85,-90c0,0,31,-59,45,-138c0,0,13,-78,13,-183c0,0,0,-224,-93,-324c0,0,-94,-99,-290,-99Z" 
id="f2_d"
transform="scale(0.001,-0.001)" />

<path d="M284,67c0,0,51,0,88,12c0,0,37,11,74,29V357l-98,-3c0,0,-100,-3,-135,-38c0,0,-35,-36,-35,-118c0,0,0,-131,106,-131ZM233,-14c0,0,-179,0,-179,208c0,0,0,70,27,116c0,0,27,46,87,70c0,0,60,24,173,27l105,3V519c0,0,0,73,-26,107c0,0,-27,34,-82,34c0,0,-75,0,-137,-35L176,538H134V691c0,0,121,26,213,26c0,0,115,0,169,-47c0,0,54,-47,54,-144V52L657,34V0H465L451,70c0,0,-85,-84,-218,-84Zm22,849v24l146,203H560v-27L296,835Z" 
id="f3_u"
transform="scale(0.001,-0.001)" />

<path d="M117,-176L179,62V190H336V62L213,-176Z" 
id="f2_2"
transform="scale(0.001,-0.001)" />

<path d="M32,0V34L151,52V649L52,668v33H275V52L395,34V0Zm71,835v24l146,203H408v-27L144,835Z" 
id="f3_s"
transform="scale(0.001,-0.001)" />

<path d="M58,-234v58c0,0,131,42,131,125c0,0,0,15,-11,27c0,0,-11,12,-38,25C140,1,89,27,89,75c0,0,0,40,25,61c0,0,26,21,65,21c0,0,48,0,77,-34c0,0,30,-34,30,-86c0,0,0,-101,-60,-170c0,0,-59,-69,-168,-101Z" 
id="f3_1j"
transform="scale(0.001,-0.001)" />

<path d="M442,0V33l93,19V504c0,0,0,129,-124,129c0,0,-70,0,-168,-22V52L338,33V0H31V33l88,19v956L15,1026v34H243V756c0,0,0,-77,-5,-112c0,0,54,31,122,53c0,0,68,23,115,23c0,0,91,0,137,-53c0,0,47,-53,47,-154V52L744,33V0Z" 
id="f3_11"
transform="scale(0.001,-0.001)" />

<path d="M617,0L251,860V60L385,40V0H44V40L172,60V941L44,960v40H347L672,239l355,761h287V960L1185,941V60L1314,40V0H908V40l134,20V859L643,0Z" 
id="f3_1p"
transform="scale(0.001,-0.001)" />

<path d="M551,45c0,0,171,0,252,108c0,0,82,108,82,349c0,0,0,239,-81,344c0,0,-81,105,-253,105c0,0,-172,0,-252,-105c0,0,-80,-105,-80,-344c0,0,0,-241,80,-349c0,0,81,-108,252,-108Zm0,-59c0,0,-238,0,-363,129C188,115,63,245,63,501c0,0,0,510,488,510c0,0,242,0,366,-129c0,0,124,-130,124,-381c0,0,0,-255,-126,-385C915,116,790,-14,551,-14Z" 
id="f3_1v"
transform="scale(0.001,-0.001)" />

<path d="M376,50c0,0,103,0,149,80c0,0,46,81,46,240c0,0,0,137,-47,204c0,0,-48,67,-148,67c0,0,-44,0,-87,-7c0,0,-44,-8,-63,-17V62c0,0,63,-12,150,-12Zm3,-64c0,0,-64,0,-141,14c0,0,-78,14,-136,37v971L0,1026v34H226V809c0,0,0,-40,-4,-148c0,0,74,59,188,59c0,0,143,0,219,-87c0,0,77,-87,77,-263c0,0,0,-189,-84,-287c0,0,-84,-97,-243,-97Z" 
id="f3_w"
transform="scale(0.001,-0.001)" />

<path d="M190,0V127H436V977L168,923v137l267,54H586V127H832V0Z" 
id="f2_14"
transform="scale(0.001,-0.001)" />

<path d="M578,388V982L197,388ZM578,0V263H74V408l464,706H727V388H887V263H727V0Z" 
id="f2_1a"
transform="scale(0.001,-0.001)" />


</defs>
</svg>