<?xml version="1.0" encoding="UTF-8" standalone="no"?>
<!DOCTYPE svg PUBLIC "-//W3C//DTD SVG 1.1//EN"
"http://www.w3.org/Graphics/SVG/1.1/DTD/svg11.dtd">
<svg viewBox="0 0 909 1286" version="1.1" xmlns="http://www.w3.org/2000/svg" xmlns:xlink="http://www.w3.org/1999/xlink">
<defs>
<clipPath id="c0_5"><path d="M0,1286.2V0H909.4V1286.2Z" /></clipPath>
</defs>
<g clip-path="url(#c0_5)">
<g fill="#000000" >
<use xlink:href="#f0_a" transform="matrix(12,0,0,12,138.7,127.1)" />
<use xlink:href="#f0_2" transform="matrix(12,0,0,12,150.6,127.1)" />
<use xlink:href="#f0_5" transform="matrix(12,0,0,12,161,127.1)" />
<use xlink:href="#f0_r" transform="matrix(12,0,0,12,165.1,127.1)" />
<use xlink:href="#f0_4" transform="matrix(12,0,0,12,177.1,127.1)" />
<use xlink:href="#f0_8" transform="matrix(12,0,0,12,189.1,127.1)" />
<use xlink:href="#f0_b" transform="matrix(12,0,0,12,199.6,127.1)" />
<use xlink:href="#f0_5" transform="matrix(12,0,0,12,219.3,127.1)" />
<use xlink:href="#f0_7" transform="matrix(12,0,0,12,223.4,127.1)" />
<use xlink:href="#f0_j" transform="matrix(12,0,0,12,228.4,127.1)" />
<use xlink:href="#f0_g" transform="matrix(12,0,0,12,239.9,127.1)" />
<use xlink:href="#f0_p" transform="matrix(12,0,0,12,257.6,127.1)" />
<use xlink:href="#f0_h" transform="matrix(12,0,0,12,262.6,127.1)" />
<use xlink:href="#f0_c" transform="matrix(12,0,0,12,272.2,127.1)" />
<use xlink:href="#f0_q" transform="matrix(12,0,0,12,291.4,127.1)" />
<use xlink:href="#f0_2" transform="matrix(12,0,0,12,297.3,127.1)" />
<use xlink:href="#f0_8" transform="matrix(12,0,0,12,307.6,127.1)" />
<use xlink:href="#f0_2" transform="matrix(12,0,0,12,318.2,127.1)" />
<use xlink:href="#f0_8" transform="matrix(12,0,0,12,328.6,127.1)" />
<use xlink:href="#f0_f" transform="matrix(12,0,0,12,339.1,127.1)" />
<use xlink:href="#f0_5" transform="matrix(12,0,0,12,358.3,127.1)" />
<use xlink:href="#f0_7" transform="matrix(12,0,0,12,362.4,127.1)" />
<use xlink:href="#f0_7" transform="matrix(12,0,0,12,367.5,127.1)" />
<use xlink:href="#f0_5" transform="matrix(12,0,0,12,372.5,127.1)" />
<use xlink:href="#f0_g" transform="matrix(12,0,0,12,376.6,127.1)" />
<use xlink:href="#f0_a" transform="matrix(12,0,0,12,387.5,127.1)" />
<use xlink:href="#f0_p" transform="matrix(12,0,0,12,406.1,127.1)" />
<use xlink:href="#f0_f" transform="matrix(12,0,0,12,411.1,127.1)" />
<use xlink:href="#f0_i" transform="matrix(12,0,0,12,423.6,127.1)" />
<use xlink:href="#f0_b" transform="matrix(12,0,0,12,429.9,127.1)" />
<use xlink:href="#f0_7" transform="matrix(12,0,0,12,442.8,127.1)" />
<use xlink:href="#f0_e" transform="matrix(12,0,0,12,454.7,127.1)" />
<use xlink:href="#f0_5" transform="matrix(12,0,0,12,466.8,127.1)" />
<use xlink:href="#f0_s" transform="matrix(12,0,0,12,470.9,127.1)" />
<use xlink:href="#f0_5" transform="matrix(12,0,0,12,478.4,127.1)" />
<use xlink:href="#f0_9" transform="matrix(12,0,0,12,482.5,127.1)" />
<use xlink:href="#f0_r" transform="matrix(12,0,0,12,492.8,127.1)" />
<use xlink:href="#f0_a" transform="matrix(12,0,0,12,511.8,127.1)" />
<use xlink:href="#f0_8" transform="matrix(12,0,0,12,523.7,127.1)" />
<use xlink:href="#f0_9" transform="matrix(12,0,0,12,534.2,127.1)" />
<use xlink:href="#f0_a" transform="matrix(12,0,0,12,544.6,127.1)" />
<use xlink:href="#f0_b" transform="matrix(12,0,0,12,563.3,127.1)" />
<use xlink:href="#f0_5" transform="matrix(12,0,0,12,576.3,127.1)" />
<use xlink:href="#f0_5" transform="matrix(12,0,0,12,587.3,127.1)" />
<use xlink:href="#f0_h" transform="matrix(12,0,0,12,591.4,127.1)" />
<use xlink:href="#f0_k" transform="matrix(12,0,0,12,607.9,127.1)" />
<use xlink:href="#f0_2" transform="matrix(12,0,0,12,617.6,127.1)" />
<use xlink:href="#f0_a" transform="matrix(12,0,0,12,634.9,127.1)" />
<use xlink:href="#f0_c" transform="matrix(12,0,0,12,646.8,127.1)" />
<use xlink:href="#f0_9" transform="matrix(12,0,0,12,659,127.1)" />
<use xlink:href="#f0_d" transform="matrix(12,0,0,12,669.4,127.1)" />
<use xlink:href="#f0_4" transform="matrix(12,0,0,12,683.6,127.1)" />
<use xlink:href="#f0_n" transform="matrix(12,0,0,12,695.6,127.1)" />
<use xlink:href="#f0_h" transform="matrix(12,0,0,12,707.1,127.1)" />
<use xlink:href="#f0_b" transform="matrix(12,0,0,12,716.7,127.1)" />
<use xlink:href="#f0_p" transform="matrix(12,0,0,12,736.5,127.1)" />
<use xlink:href="#f0_h" transform="matrix(12,0,0,12,741.5,127.1)" />
<use xlink:href="#f0_4" transform="matrix(12,0,0,12,751.2,127.1)" />
<use xlink:href="#f0_5" transform="matrix(12,0,0,12,763.2,127.1)" />
<use xlink:href="#f0_5" transform="matrix(12,0,0,12,767.2,127.1)" />
<use xlink:href="#f0_4" transform="matrix(12,0,0,12,609.7,148.5)" />
<use xlink:href="#f0_7" transform="matrix(12,0,0,12,621.6,148.5)" />
<use xlink:href="#f0_5" transform="matrix(12,0,0,12,626.7,148.5)" />
<use xlink:href="#f0_4" transform="matrix(12,0,0,12,630.8,148.5)" />
<use xlink:href="#f0_7" transform="matrix(12,0,0,12,642.8,148.5)" />
<use xlink:href="#f0_c" transform="matrix(12,0,0,12,647.8,148.5)" />
<use xlink:href="#f0_a" transform="matrix(12,0,0,12,660.1,148.5)" />
<use xlink:href="#f0_p" transform="matrix(12,0,0,12,679.1,148.5)" />
<use xlink:href="#f0_5" transform="matrix(12,0,0,12,684.2,148.5)" />
<use xlink:href="#f0_8" transform="matrix(12,0,0,12,688.3,148.5)" />
<use xlink:href="#f0_2" transform="matrix(12,0,0,12,706.1,148.5)" />
<use xlink:href="#f0_8" transform="matrix(12,0,0,12,716.5,148.5)" />
<use xlink:href="#f0_2" transform="matrix(12,0,0,12,727,148.5)" />
<use xlink:href="#f0_8" transform="matrix(12,0,0,12,737.4,148.5)" />
<use xlink:href="#f0_4" transform="matrix(12,0,0,12,748,148.5)" />
<use xlink:href="#f0_4" transform="matrix(12,0,0,12,759.9,148.5)" />
<use xlink:href="#f1_b" transform="matrix(11,0,0,11,594.8,148.5)" />
<use xlink:href="#f0_7" transform="matrix(12,0,0,12,582.7,148.5)" />
<use xlink:href="#f1_c" transform="matrix(11,0,0,11,568,148.5)" />
<use xlink:href="#f0_4" transform="matrix(12,0,0,12,282.3,148.5)" />
<use xlink:href="#f0_7" transform="matrix(12,0,0,12,294.4,148.5)" />
<use xlink:href="#f0_c" transform="matrix(12,0,0,12,299.4,148.5)" />
<use xlink:href="#f0_a" transform="matrix(12,0,0,12,311.6,148.5)" />
<use xlink:href="#f0_4" transform="matrix(12,0,0,12,330.7,148.5)" />
<use xlink:href="#f0_c" transform="matrix(12,0,0,12,342.7,148.5)" />
<use xlink:href="#f0_9" transform="matrix(12,0,0,12,361.9,148.5)" />
<use xlink:href="#f0_5" transform="matrix(12,0,0,12,372.3,148.5)" />
<use xlink:href="#f0_o" transform="matrix(12,0,0,12,376.4,148.5)" />
<use xlink:href="#f0_r" transform="matrix(12,0,0,12,388.3,148.5)" />
<use xlink:href="#f0_4" transform="matrix(12,0,0,12,400.2,148.5)" />
<use xlink:href="#f0_7" transform="matrix(12,0,0,12,419.5,148.5)" />
<use xlink:href="#f0_c" transform="matrix(12,0,0,12,424.5,148.5)" />
<use xlink:href="#f0_10" transform="matrix(12,0,0,12,443.7,148.5)" />
<use xlink:href="#f0_5" transform="matrix(12,0,0,12,455.4,148.5)" />
<use xlink:href="#f0_o" transform="matrix(12,0,0,12,459.5,148.5)" />
<use xlink:href="#f0_7" transform="matrix(12,0,0,12,471.4,148.5)" />
<use xlink:href="#f0_4" transform="matrix(12,0,0,12,476.3,148.5)" />
<use xlink:href="#f0_e" transform="matrix(12,0,0,12,495.6,148.5)" />
<use xlink:href="#f0_5" transform="matrix(12,0,0,12,507.6,148.5)" />
<use xlink:href="#f0_4" transform="matrix(12,0,0,12,511.7,148.5)" />
<use xlink:href="#f0_5" transform="matrix(12,0,0,12,523.8,148.5)" />
<use xlink:href="#f0_n" transform="matrix(12,0,0,12,527.9,148.5)" />
<use xlink:href="#f0_2" transform="matrix(12,0,0,12,539.3,148.5)" />
<use xlink:href="#f0_7" transform="matrix(12,0,0,12,549.7,148.5)" />
<use xlink:href="#f0_m" transform="matrix(12,0,0,12,561.9,148.5)" />
<use xlink:href="#f1_9" transform="matrix(11,0,0,11,268.4,148.5)" />
<use xlink:href="#f0_a" transform="matrix(12,0,0,12,138,148.5)" />
<use xlink:href="#f0_2" transform="matrix(12,0,0,12,149.9,148.5)" />
<use xlink:href="#f0_c" transform="matrix(12,0,0,12,160.3,148.5)" />
<use xlink:href="#f0_e" transform="matrix(12,0,0,12,179.6,148.5)" />
<use xlink:href="#f0_5" transform="matrix(12,0,0,12,191.8,148.5)" />
<use xlink:href="#f0_2" transform="matrix(12,0,0,12,195.9,148.5)" />
<use xlink:href="#f0_2" transform="matrix(12,0,0,12,206.3,148.5)" />
<use xlink:href="#f0_h" transform="matrix(12,0,0,12,216.7,148.5)" />
<use xlink:href="#f0_k" transform="matrix(12,0,0,12,233.5,148.5)" />
<use xlink:href="#f0_c" transform="matrix(12,0,0,12,243.3,148.5)" />
<use xlink:href="#f0_q" transform="matrix(12,0,0,12,262.6,148.5)" />
<use xlink:href="#f0_q" transform="matrix(12,0,0,12,374.6,169.9)" />
<use xlink:href="#f0_9" transform="matrix(12,0,0,12,380.4,169.9)" />
<use xlink:href="#f0_4" transform="matrix(12,0,0,12,390.7,169.9)" />
<use xlink:href="#f0_7" transform="matrix(12,0,0,12,402.7,169.9)" />
<use xlink:href="#f0_5" transform="matrix(12,0,0,12,407.7,169.9)" />
<use xlink:href="#f0_e" transform="matrix(12,0,0,12,417.6,169.9)" />
<use xlink:href="#f0_a" transform="matrix(12,0,0,12,429.8,169.9)" />
<use xlink:href="#f0_8" transform="matrix(12,0,0,12,441.8,169.9)" />
<use xlink:href="#f0_t" transform="matrix(12,0,0,12,458.2,169.9)" />
<use xlink:href="#f0_7" transform="matrix(12,0,0,12,470,169.9)" />
<use xlink:href="#f0_2" transform="matrix(12,0,0,12,475,169.9)" />
<use xlink:href="#f0_b" transform="matrix(12,0,0,12,485.4,169.9)" />
<use xlink:href="#f0_4" transform="matrix(12,0,0,12,498.4,169.9)" />
<use xlink:href="#f0_5" transform="matrix(12,0,0,12,516.3,169.9)" />
<use xlink:href="#f0_c" transform="matrix(12,0,0,12,520.4,169.9)" />
<use xlink:href="#f0_l" transform="matrix(12,0,0,12,532.6,169.9)" />
<use xlink:href="#f0_7" transform="matrix(12,0,0,12,542.7,169.9)" />
<use xlink:href="#f0_7" transform="matrix(12,0,0,12,547.7,169.9)" />
<use xlink:href="#f0_8" transform="matrix(12,0,0,12,552.7,169.9)" />
<use xlink:href="#f0_2" transform="matrix(12,0,0,12,569.1,169.9)" />
<use xlink:href="#f0_7" transform="matrix(12,0,0,12,579.5,169.9)" />
<use xlink:href="#f0_s" transform="matrix(12,0,0,12,584.5,169.9)" />
<use xlink:href="#f0_9" transform="matrix(12,0,0,12,592,169.9)" />
<use xlink:href="#f0_4" transform="matrix(12,0,0,12,602.3,169.9)" />
<use xlink:href="#f0_a" transform="matrix(12,0,0,12,614.4,169.9)" />
<use xlink:href="#f0_9" transform="matrix(12,0,0,12,632.2,169.9)" />
<use xlink:href="#f0_r" transform="matrix(12,0,0,12,642.6,169.9)" />
<use xlink:href="#f0_c" transform="matrix(12,0,0,12,654.5,169.9)" />
<use xlink:href="#f0_2" transform="matrix(12,0,0,12,666.8,169.9)" />
<use xlink:href="#f0_7" transform="matrix(12,0,0,12,677,169.9)" />
<use xlink:href="#f0_e" transform="matrix(12,0,0,12,688,169.9)" />
<use xlink:href="#f0_5" transform="matrix(12,0,0,12,700,169.9)" />
<use xlink:href="#f0_b" transform="matrix(12,0,0,12,704.2,169.9)" />
<use xlink:href="#f0_3" transform="matrix(12,0,0,12,717.1,169.9)" />
<use xlink:href="#f0_e" transform="matrix(12,0,0,12,735.9,169.9)" />
<use xlink:href="#f0_d" transform="matrix(12,0,0,12,748.1,169.9)" />
<use xlink:href="#f0_5" transform="matrix(12,0,0,12,755.5,169.9)" />
<use xlink:href="#f0_c" transform="matrix(12,0,0,12,759.6,169.9)" />
<use xlink:href="#f0_a" transform="matrix(12,0,0,12,137.8,191.3)" />
<use xlink:href="#f0_d" transform="matrix(12,0,0,12,149.7,191.3)" />
<use xlink:href="#f0_b" transform="matrix(12,0,0,12,157.1,191.3)" />
<use xlink:href="#f0_9" transform="matrix(12,0,0,12,178.9,191.3)" />
<use xlink:href="#f0_7" transform="matrix(12,0,0,12,189.2,191.3)" />
<use xlink:href="#f0_s" transform="matrix(12,0,0,12,194.3,191.3)" />
<use xlink:href="#f0_2" transform="matrix(12,0,0,12,201.8,191.3)" />
<use xlink:href="#f0_9" transform="matrix(12,0,0,12,221,191.3)" />
<use xlink:href="#f0_7" transform="matrix(12,0,0,12,231.3,191.3)" />
<use xlink:href="#f0_8" transform="matrix(12,0,0,12,236.4,191.3)" />
<use xlink:href="#f0_n" transform="matrix(12,0,0,12,246.9,191.3)" />
<use xlink:href="#f0_4" transform="matrix(12,0,0,12,258.4,191.3)" />
<use xlink:href="#f0_e" transform="matrix(12,0,0,12,279.3,191.3)" />
<use xlink:href="#f0_c" transform="matrix(12,0,0,12,291.5,191.3)" />
<use xlink:href="#f0_e" transform="matrix(12,0,0,12,312.5,191.3)" />
<use xlink:href="#f0_s" transform="matrix(12,0,0,12,324.7,191.3)" />
<use xlink:href="#f0_y" transform="matrix(12,0,0,12,332.2,191.3)" />
<use xlink:href="#f0_5" transform="matrix(12,0,0,12,348.2,191.3)" />
<use xlink:href="#f0_7" transform="matrix(12,0,0,12,352.3,191.3)" />
<use xlink:href="#f0_h" transform="matrix(12,0,0,12,357.3,191.3)" />
<use xlink:href="#f0_5" transform="matrix(12,0,0,12,367,191.3)" />
<use xlink:href="#f0_o" transform="matrix(12,0,0,12,371.1,191.3)" />
<use xlink:href="#f0_t" transform="matrix(12,0,0,12,391.8,191.3)" />
<use xlink:href="#f0_n" transform="matrix(12,0,0,12,403.7,191.3)" />
<use xlink:href="#f0_f" transform="matrix(12,0,0,12,415.2,191.3)" />
<use xlink:href="#f0_h" transform="matrix(12,0,0,12,427.7,191.3)" />
<use xlink:href="#f0_p" transform="matrix(12,0,0,12,446.1,191.3)" />
<use xlink:href="#f0_5" transform="matrix(12,0,0,12,451,191.3)" />
<use xlink:href="#f0_c" transform="matrix(12,0,0,12,455.1,191.3)" />
<use xlink:href="#f0_q" transform="matrix(12,0,0,12,476.3,191.3)" />
<use xlink:href="#f0_9" transform="matrix(12,0,0,12,482.1,191.3)" />
<use xlink:href="#f0_5" transform="matrix(12,0,0,12,492.5,191.3)" />
<use xlink:href="#f0_h" transform="matrix(12,0,0,12,496.5,191.3)" />
<use xlink:href="#f0_f" transform="matrix(12,0,0,12,506.1,191.3)" />
<use xlink:href="#f0_a" transform="matrix(12,0,0,12,527.6,191.3)" />
<use xlink:href="#f0_4" transform="matrix(12,0,0,12,539.5,191.3)" />
<use xlink:href="#f0_c" transform="matrix(12,0,0,12,551.6,191.3)" />
<use xlink:href="#f0_b" transform="matrix(12,0,0,12,563.8,191.3)" />
<use xlink:href="#f0_e" transform="matrix(12,0,0,12,585.6,191.3)" />
<use xlink:href="#f0_5" transform="matrix(12,0,0,12,597.8,191.3)" />
<use xlink:href="#f0_s" transform="matrix(12,0,0,12,601.9,191.3)" />
<use xlink:href="#f0_5" transform="matrix(12,0,0,12,609.4,191.3)" />
<use xlink:href="#f0_9" transform="matrix(12,0,0,12,613.5,191.3)" />
<use xlink:href="#f0_r" transform="matrix(12,0,0,12,623.9,191.3)" />
<use xlink:href="#f0_a" transform="matrix(12,0,0,12,635.8,191.3)" />
<use xlink:href="#f0_2" transform="matrix(12,0,0,12,656.7,191.3)" />
<use xlink:href="#f0_h" transform="matrix(12,0,0,12,667.1,191.3)" />
<use xlink:href="#f0_4" transform="matrix(12,0,0,12,685.6,191.3)" />
<use xlink:href="#f0_c" transform="matrix(12,0,0,12,697.6,191.3)" />
<use xlink:href="#f0_7" transform="matrix(12,0,0,12,718.8,191.3)" />
<use xlink:href="#f0_d" transform="matrix(12,0,0,12,723.7,191.3)" />
<use xlink:href="#f0_j" transform="matrix(12,0,0,12,731,191.3)" />
<use xlink:href="#f0_o" transform="matrix(12,0,0,12,742.5,191.3)" />
<use xlink:href="#f0_7" transform="matrix(12,0,0,12,754.4,191.3)" />
<use xlink:href="#f0_a" transform="matrix(12,0,0,12,759.4,191.3)" />
<use xlink:href="#f0_a" transform="matrix(12,0,0,12,268.7,212.7)" />
<use xlink:href="#f0_7" transform="matrix(12,0,0,12,280.6,212.7)" />
<use xlink:href="#f0_7" transform="matrix(12,0,0,12,285.7,212.7)" />
<use xlink:href="#f0_b" transform="matrix(12,0,0,12,290.6,212.7)" />
<use xlink:href="#f0_4" transform="matrix(12,0,0,12,310.7,212.7)" />
<use xlink:href="#f0_7" transform="matrix(12,0,0,12,322.7,212.7)" />
<use xlink:href="#f0_5" transform="matrix(12,0,0,12,327.8,212.7)" />
<use xlink:href="#f0_a" transform="matrix(12,0,0,12,331.9,212.7)" />
<use xlink:href="#f0_2" transform="matrix(12,0,0,12,343.8,212.7)" />
<use xlink:href="#f0_7" transform="matrix(12,0,0,12,361.5,212.7)" />
<use xlink:href="#f0_2" transform="matrix(12,0,0,12,366.3,212.7)" />
<use xlink:href="#f0_b" transform="matrix(12,0,0,12,376.7,212.7)" />
<use xlink:href="#f0_a" transform="matrix(12,0,0,12,397.2,212.7)" />
<use xlink:href="#f0_5" transform="matrix(12,0,0,12,409.1,212.7)" />
<use xlink:href="#f0_d" transform="matrix(12,0,0,12,413.2,212.7)" />
<use xlink:href="#f0_8" transform="matrix(12,0,0,12,420.5,212.7)" />
<use xlink:href="#f0_s" transform="matrix(12,0,0,12,431.1,212.7)" />
<use xlink:href="#f0_n" transform="matrix(12,0,0,12,438.6,212.7)" />
<use xlink:href="#f0_a" transform="matrix(12,0,0,12,450,212.7)" />
<use xlink:href="#f0_2" transform="matrix(12,0,0,12,469.2,212.7)" />
<use xlink:href="#f0_n" transform="matrix(12,0,0,12,479.6,212.7)" />
<use xlink:href="#f0_a" transform="matrix(12,0,0,12,498.2,212.7)" />
<use xlink:href="#f0_7" transform="matrix(12,0,0,12,510.1,212.7)" />
<use xlink:href="#f0_7" transform="matrix(12,0,0,12,515.2,212.7)" />
<use xlink:href="#f0_g" transform="matrix(12,0,0,12,520.2,212.7)" />
<use xlink:href="#f0_f" transform="matrix(12,0,0,12,530.9,212.7)" />
<use xlink:href="#f0_9" transform="matrix(12,0,0,12,550.5,212.7)" />
<use xlink:href="#f0_h" transform="matrix(12,0,0,12,560.9,212.7)" />
<use xlink:href="#f0_7" transform="matrix(12,0,0,12,570.5,212.7)" />
<use xlink:href="#f0_f" transform="matrix(12,0,0,12,575.6,212.7)" />
<use xlink:href="#f0_n" transform="matrix(12,0,0,12,595.2,212.7)" />
<use xlink:href="#f0_f" transform="matrix(12,0,0,12,606.7,212.7)" />
<use xlink:href="#f0_b" transform="matrix(12,0,0,12,619.1,212.7)" />
<use xlink:href="#f0_4" transform="matrix(12,0,0,12,632.1,212.7)" />
<use xlink:href="#f0_b" transform="matrix(12,0,0,12,644.1,212.7)" />
<use xlink:href="#f0_x" transform="matrix(12,0,0,12,664.2,212.7)" />
<use xlink:href="#f0_4" transform="matrix(12,0,0,12,671.4,212.7)" />
<use xlink:href="#f0_5" transform="matrix(12,0,0,12,683.4,212.7)" />
<use xlink:href="#f0_d" transform="matrix(12,0,0,12,687.5,212.7)" />
<use xlink:href="#f0_5" transform="matrix(12,0,0,12,694.9,212.7)" />
<use xlink:href="#f0_t" transform="matrix(12,0,0,12,699,212.7)" />
<use xlink:href="#f0_2" transform="matrix(12,0,0,12,710.9,212.7)" />
<use xlink:href="#f0_19" transform="matrix(12,0,0,12,728.4,212.7)" />
<use xlink:href="#f0_9" transform="matrix(12,0,0,12,738.3,212.7)" />
<use xlink:href="#f0_c" transform="matrix(12,0,0,12,748.7,212.7)" />
<use xlink:href="#f0_8" transform="matrix(12,0,0,12,760.9,212.7)" />
<use xlink:href="#f0_1a" transform="matrix(12,0,0,12,249.3,212.7)" />
<use xlink:href="#f0_7" transform="matrix(12,0,0,12,214,212.7)" />
<use xlink:href="#f0_o" transform="matrix(12,0,0,12,218.9,212.7)" />
<use xlink:href="#f0_j" transform="matrix(12,0,0,12,230.8,212.7)" />
<use xlink:href="#f1_z" transform="matrix(11,0,0,11,137.5,212.7)" />
<use xlink:href="#f1_b" transform="matrix(11,0,0,11,145.9,212.7)" />
<use xlink:href="#f1_d" transform="matrix(11,0,0,11,153.2,212.7)" />
<use xlink:href="#f1_c" transform="matrix(11,0,0,11,158,212.7)" />
<use xlink:href="#f1_6" transform="matrix(11,0,0,11,165.4,212.7)" />
<use xlink:href="#f1_z" transform="matrix(11,0,0,11,170.1,212.7)" />
<use xlink:href="#f1_b" transform="matrix(11,0,0,11,178.4,212.7)" />
<use xlink:href="#f1_d" transform="matrix(11,0,0,11,185.8,212.7)" />
<use xlink:href="#f1_l" transform="matrix(11,0,0,11,190.6,212.7)" />
<use xlink:href="#f1_b" transform="matrix(11,0,0,11,199,212.7)" />
<use xlink:href="#f1_i" transform="matrix(11,0,0,11,699.4,234.1)" />
<use xlink:href="#f1_j" transform="matrix(11,0,0,11,706.9,234.1)" />
<use xlink:href="#f1_e" transform="matrix(11,0,0,11,711.6,234.1)" />
<use xlink:href="#f1_i" transform="matrix(11,0,0,11,720,234.1)" />
<use xlink:href="#f1_f" transform="matrix(11,0,0,11,727.5,234.1)" />
<use xlink:href="#f1_g" transform="matrix(11,0,0,11,741,234.1)" />
<use xlink:href="#f1_c" transform="matrix(11,0,0,11,749.4,234.1)" />
<use xlink:href="#f1_9" transform="matrix(11,0,0,11,756.9,234.1)" />
<use xlink:href="#f1_f" transform="matrix(11,0,0,11,763.4,234.1)" />
<use xlink:href="#f0_a" transform="matrix(12,0,0,12,267,234.1)" />
<use xlink:href="#f0_5" transform="matrix(12,0,0,12,278.9,234.1)" />
<use xlink:href="#f0_d" transform="matrix(12,0,0,12,283.1,234.1)" />
<use xlink:href="#f0_8" transform="matrix(12,0,0,12,290.4,234.1)" />
<use xlink:href="#f0_s" transform="matrix(12,0,0,12,300.9,234.1)" />
<use xlink:href="#f0_n" transform="matrix(12,0,0,12,308.4,234.1)" />
<use xlink:href="#f0_2" transform="matrix(12,0,0,12,319.9,234.1)" />
<use xlink:href="#f0_p" transform="matrix(12,0,0,12,337.1,234.1)" />
<use xlink:href="#f0_4" transform="matrix(12,0,0,12,342.1,234.1)" />
<use xlink:href="#f0_7" transform="matrix(12,0,0,12,354.2,234.1)" />
<use xlink:href="#f0_d" transform="matrix(12,0,0,12,359.2,234.1)" />
<use xlink:href="#f0_9" transform="matrix(12,0,0,12,373.4,234.1)" />
<use xlink:href="#f0_h" transform="matrix(12,0,0,12,383.7,234.1)" />
<use xlink:href="#f0_7" transform="matrix(12,0,0,12,393.4,234.1)" />
<use xlink:href="#f0_f" transform="matrix(12,0,0,12,398.4,234.1)" />
<use xlink:href="#f0_a" transform="matrix(12,0,0,12,410.8,234.1)" />
<use xlink:href="#f0_b" transform="matrix(12,0,0,12,422.7,234.1)" />
<use xlink:href="#f0_l" transform="matrix(12,0,0,12,442.7,234.1)" />
<use xlink:href="#f0_7" transform="matrix(12,0,0,12,452.7,234.1)" />
<use xlink:href="#f0_8" transform="matrix(12,0,0,12,457.8,234.1)" />
<use xlink:href="#f0_h" transform="matrix(12,0,0,12,468.3,234.1)" />
<use xlink:href="#f0_2" transform="matrix(12,0,0,12,477.9,234.1)" />
<use xlink:href="#f0_e" transform="matrix(12,0,0,12,495.3,234.1)" />
<use xlink:href="#f0_c" transform="matrix(12,0,0,12,507.5,234.1)" />
<use xlink:href="#f0_4" transform="matrix(12,0,0,12,519.7,234.1)" />
<use xlink:href="#f0_a" transform="matrix(12,0,0,12,531.8,234.1)" />
<use xlink:href="#f0_8" transform="matrix(12,0,0,12,543.7,234.1)" />
<use xlink:href="#f0_m" transform="matrix(12,0,0,12,561.1,234.1)" />
<use xlink:href="#f0_4" transform="matrix(12,0,0,12,566.9,234.1)" />
<use xlink:href="#f0_7" transform="matrix(12,0,0,12,578.9,234.1)" />
<use xlink:href="#f0_d" transform="matrix(12,0,0,12,584,234.1)" />
<use xlink:href="#f0_7" transform="matrix(12,0,0,12,591.3,234.1)" />
<use xlink:href="#f0_b" transform="matrix(12,0,0,12,596.3,234.1)" />
<use xlink:href="#f0_a" transform="matrix(12,0,0,12,609.3,234.1)" />
<use xlink:href="#f0_4" transform="matrix(12,0,0,12,628.1,234.1)" />
<use xlink:href="#f0_7" transform="matrix(12,0,0,12,640.1,234.1)" />
<use xlink:href="#f0_5" transform="matrix(12,0,0,12,645.1,234.1)" />
<use xlink:href="#f0_t" transform="matrix(12,0,0,12,649.2,234.1)" />
<use xlink:href="#f0_a" transform="matrix(12,0,0,12,661.1,234.1)" />
<use xlink:href="#f0_a" transform="matrix(12,0,0,12,673,234.1)" />
<use xlink:href="#f0_y" transform="matrix(12,0,0,12,685,234.1)" />
<use xlink:href="#f1_2" transform="matrix(11,0,0,11,221.7,234.1)" />
<use xlink:href="#f1_3" transform="matrix(11,0,0,11,226.3,234.1)" />
<use xlink:href="#f1_6" transform="matrix(11,0,0,11,234.7,234.1)" />
<use xlink:href="#f1_7" transform="matrix(11,0,0,11,239.4,234.1)" />
<use xlink:href="#f1_8" transform="matrix(11,0,0,11,251.5,234.1)" />
<use xlink:href="#f0_9" transform="matrix(12,0,0,12,137.7,234.1)" />
<use xlink:href="#f0_5" transform="matrix(12,0,0,12,148,234.1)" />
<use xlink:href="#f0_l" transform="matrix(12,0,0,12,152.1,234.1)" />
<use xlink:href="#f0_d" transform="matrix(12,0,0,12,162.2,234.1)" />
<use xlink:href="#f0_e" transform="matrix(12,0,0,12,176.4,234.1)" />
<use xlink:href="#f0_s" transform="matrix(12,0,0,12,188.6,234.1)" />
<use xlink:href="#f0_q" transform="matrix(12,0,0,12,202.9,234.1)" />
<use xlink:href="#f0_x" transform="matrix(12,0,0,12,208.7,234.1)" />
<use xlink:href="#f0_q" transform="matrix(12,0,0,12,215.9,234.1)" />
<use xlink:href="#f0_m" transform="matrix(12,0,0,12,138,255.4)" />
<use xlink:href="#f0_7" transform="matrix(12,0,0,12,143.8,255.4)" />
<use xlink:href="#f0_2" transform="matrix(12,0,0,12,148.8,255.4)" />
<use xlink:href="#f0_2" transform="matrix(12,0,0,12,159.2,255.4)" />
<use xlink:href="#f0_a" transform="matrix(12,0,0,12,169.6,255.4)" />
<use xlink:href="#f0_e" transform="matrix(12,0,0,12,189,255.4)" />
<use xlink:href="#f0_5" transform="matrix(12,0,0,12,201.2,255.4)" />
<use xlink:href="#f0_2" transform="matrix(12,0,0,12,205.3,255.4)" />
<use xlink:href="#f0_n" transform="matrix(12,0,0,12,215.7,255.4)" />
<use xlink:href="#f0_j" transform="matrix(12,0,0,12,227.1,255.4)" />
<use xlink:href="#f0_a" transform="matrix(12,0,0,12,238.6,255.4)" />
<use xlink:href="#f0_2" transform="matrix(12,0,0,12,257.8,255.4)" />
<use xlink:href="#f0_h" transform="matrix(12,0,0,12,268.2,255.4)" />
<use xlink:href="#f0_4" transform="matrix(12,0,0,12,285.3,255.4)" />
<use xlink:href="#f0_c" transform="matrix(12,0,0,12,297.3,255.4)" />
<use xlink:href="#f0_7" transform="matrix(12,0,0,12,317,255.4)" />
<use xlink:href="#f0_d" transform="matrix(12,0,0,12,322,255.4)" />
<use xlink:href="#f0_c" transform="matrix(12,0,0,12,329.3,255.4)" />
<use xlink:href="#f0_8" transform="matrix(12,0,0,12,341.6,255.4)" />
<use xlink:href="#f0_a" transform="matrix(12,0,0,12,352.1,255.4)" />
<use xlink:href="#f0_q" transform="matrix(12,0,0,12,371.3,255.4)" />
<use xlink:href="#f0_7" transform="matrix(12,0,0,12,377.1,255.4)" />
<use xlink:href="#f0_a" transform="matrix(12,0,0,12,382.2,255.4)" />
<use xlink:href="#f0_b" transform="matrix(12,0,0,12,394.1,255.4)" />
<use xlink:href="#f0_f" transform="matrix(12,0,0,12,406.9,255.4)" />
<use xlink:href="#f0_4" transform="matrix(12,0,0,12,426.9,255.4)" />
<use xlink:href="#f0_7" transform="matrix(12,0,0,12,438.9,255.4)" />
<use xlink:href="#f0_5" transform="matrix(12,0,0,12,443.9,255.4)" />
<use xlink:href="#f0_a" transform="matrix(12,0,0,12,448,255.4)" />
<use xlink:href="#f0_2" transform="matrix(12,0,0,12,460,255.4)" />
<use xlink:href="#f0_7" transform="matrix(12,0,0,12,477.6,255.4)" />
<use xlink:href="#f0_c" transform="matrix(12,0,0,12,482.7,255.4)" />
<use xlink:href="#f0_7" transform="matrix(12,0,0,12,502.2,255.4)" />
<use xlink:href="#f0_a" transform="matrix(12,0,0,12,507.2,255.4)" />
<use xlink:href="#f0_b" transform="matrix(12,0,0,12,519.1,255.4)" />
<use xlink:href="#f0_f" transform="matrix(12,0,0,12,531.9,255.4)" />
<use xlink:href="#f0_4" transform="matrix(12,0,0,12,551.9,255.4)" />
<use xlink:href="#f0_n" transform="matrix(12,0,0,12,563.8,255.4)" />
<use xlink:href="#f0_l" transform="matrix(12,0,0,12,575.3,255.4)" />
<use xlink:href="#f0_2" transform="matrix(12,0,0,12,585.3,255.4)" />
<use xlink:href="#f0_7" transform="matrix(12,0,0,12,603,255.4)" />
<use xlink:href="#f0_a" transform="matrix(12,0,0,12,608,255.4)" />
<use xlink:href="#f0_b" transform="matrix(12,0,0,12,620,255.4)" />
<use xlink:href="#f0_5" transform="matrix(12,0,0,12,632.9,255.4)" />
<use xlink:href="#f0_f" transform="matrix(12,0,0,12,637,255.4)" />
<use xlink:href="#f0_2" transform="matrix(12,0,0,12,656.9,255.4)" />
<use xlink:href="#f0_n" transform="matrix(12,0,0,12,667.3,255.4)" />
<use xlink:href="#f0_4" transform="matrix(12,0,0,12,686,255.4)" />
<use xlink:href="#f0_7" transform="matrix(12,0,0,12,698.1,255.4)" />
<use xlink:href="#f0_7" transform="matrix(12,0,0,12,703.1,255.4)" />
<use xlink:href="#f0_g" transform="matrix(12,0,0,12,708.1,255.4)" />
<use xlink:href="#f0_2" transform="matrix(12,0,0,12,719,255.4)" />
<use xlink:href="#f0_l" transform="matrix(12,0,0,12,736.6,255.4)" />
<use xlink:href="#f0_c" transform="matrix(12,0,0,12,746.6,255.4)" />
<use xlink:href="#f0_f" transform="matrix(12,0,0,12,758.8,255.4)" />
<use xlink:href="#f0_b" transform="matrix(12,0,0,12,138.6,276.8)" />
<use xlink:href="#f0_7" transform="matrix(12,0,0,12,151.5,276.8)" />
<use xlink:href="#f0_f" transform="matrix(12,0,0,12,156.4,276.8)" />
<use xlink:href="#f0_5" transform="matrix(12,0,0,12,168.9,276.8)" />
<use xlink:href="#f0_b" transform="matrix(12,0,0,12,173.1,276.8)" />
<use xlink:href="#f0_e" transform="matrix(12,0,0,12,192.9,276.8)" />
<use xlink:href="#f0_a" transform="matrix(12,0,0,12,205.1,276.8)" />
<use xlink:href="#f0_2" transform="matrix(12,0,0,12,217,276.8)" />
<use xlink:href="#f0_p" transform="matrix(12,0,0,12,234.4,276.8)" />
<use xlink:href="#f0_5" transform="matrix(12,0,0,12,239.4,276.8)" />
<use xlink:href="#f0_c" transform="matrix(12,0,0,12,243.5,276.8)" />
<use xlink:href="#f0_e" transform="matrix(12,0,0,12,262.7,276.8)" />
<use xlink:href="#f0_c" transform="matrix(12,0,0,12,274.8,276.8)" />
<use xlink:href="#f0_e" transform="matrix(12,0,0,12,294,276.8)" />
<use xlink:href="#f0_s" transform="matrix(12,0,0,12,306.2,276.8)" />
<use xlink:href="#f0_m" transform="matrix(12,0,0,12,320.7,276.8)" />
<use xlink:href="#f0_9" transform="matrix(12,0,0,12,326.5,276.8)" />
<use xlink:href="#f0_5" transform="matrix(12,0,0,12,336.9,276.8)" />
<use xlink:href="#f0_h" transform="matrix(12,0,0,12,341,276.8)" />
<use xlink:href="#f0_f" transform="matrix(12,0,0,12,350.6,276.8)" />
<use xlink:href="#f0_a" transform="matrix(12,0,0,12,370.2,276.8)" />
<use xlink:href="#f0_4" transform="matrix(12,0,0,12,382.1,276.8)" />
<use xlink:href="#f0_c" transform="matrix(12,0,0,12,394.1,276.8)" />
<use xlink:href="#f0_b" transform="matrix(12,0,0,12,406.3,276.8)" />
<use xlink:href="#f0_e" transform="matrix(12,0,0,12,426.2,276.8)" />
<use xlink:href="#f0_5" transform="matrix(12,0,0,12,438.4,276.8)" />
<use xlink:href="#f0_2" transform="matrix(12,0,0,12,442.5,276.8)" />
<use xlink:href="#f0_n" transform="matrix(12,0,0,12,452.9,276.8)" />
<use xlink:href="#f0_j" transform="matrix(12,0,0,12,464.4,276.8)" />
<use xlink:href="#f0_a" transform="matrix(12,0,0,12,475.8,276.8)" />
<use xlink:href="#f0_2" transform="matrix(12,0,0,12,494.9,276.8)" />
<use xlink:href="#f0_h" transform="matrix(12,0,0,12,505.3,276.8)" />
<use xlink:href="#f0_2" transform="matrix(12,0,0,12,514.9,276.8)" />
<use xlink:href="#f0_4" transform="matrix(12,0,0,12,532.3,276.8)" />
<use xlink:href="#f0_7" transform="matrix(12,0,0,12,544.2,276.8)" />
<use xlink:href="#f0_f" transform="matrix(12,0,0,12,549.2,276.8)" />
<use xlink:href="#f0_2" transform="matrix(12,0,0,12,561.7,276.8)" />
<use xlink:href="#f0_b" transform="matrix(12,0,0,12,572.1,276.8)" />
<use xlink:href="#f0_4" transform="matrix(12,0,0,12,592.1,276.8)" />
<use xlink:href="#f0_7" transform="matrix(12,0,0,12,604.1,276.8)" />
<use xlink:href="#f0_c" transform="matrix(12,0,0,12,609.1,276.8)" />
<use xlink:href="#f0_2" transform="matrix(12,0,0,12,621.4,276.8)" />
<use xlink:href="#f0_8" transform="matrix(12,0,0,12,631.8,276.8)" />
<use xlink:href="#f0_t" transform="matrix(12,0,0,12,642.3,276.8)" />
<use xlink:href="#f0_k" transform="matrix(12,0,0,12,661.2,276.8)" />
<use xlink:href="#f0_l" transform="matrix(12,0,0,12,671,276.8)" />
<use xlink:href="#f0_5" transform="matrix(12,0,0,12,680.9,276.8)" />
<use xlink:href="#f0_8" transform="matrix(12,0,0,12,685,276.8)" />
<use xlink:href="#f0_7" transform="matrix(12,0,0,12,702.6,276.8)" />
<use xlink:href="#f0_5" transform="matrix(12,0,0,12,707.6,276.8)" />
<use xlink:href="#f0_a" transform="matrix(12,0,0,12,711.7,276.8)" />
<use xlink:href="#f0_5" transform="matrix(12,0,0,12,723.6,276.8)" />
<use xlink:href="#f0_b" transform="matrix(12,0,0,12,727.7,276.8)" />
<use xlink:href="#f0_5" transform="matrix(12,0,0,12,747.6,276.8)" />
<use xlink:href="#f0_l" transform="matrix(12,0,0,12,751.7,276.8)" />
<use xlink:href="#f0_h" transform="matrix(12,0,0,12,761.7,276.8)" />
<use xlink:href="#f0_q" transform="matrix(12,0,0,12,732.7,298.2)" />
<use xlink:href="#f0_19" transform="matrix(12,0,0,12,738.5,298.2)" />
<use xlink:href="#f0_7" transform="matrix(12,0,0,12,748.5,298.2)" />
<use xlink:href="#f0_j" transform="matrix(12,0,0,12,753.3,298.2)" />
<use xlink:href="#f0_d" transform="matrix(12,0,0,12,764.8,298.2)" />
<use xlink:href="#f0_1a" transform="matrix(11,0,0,11,137.5,1208.9)" />
</g>
</g>
<defs>
<path d="M154,0V454l138,56V0ZM722,0V454c0,0,0,161,-49,218c0,0,-48,57,-186,57H139V836H485c0,0,207,0,291,-93c0,0,83,-94,83,-318V0Z" 
id="f0_a"
transform="scale(0.001,-0.001)" />

<path d="M287,0L589,729H66v386H205V836l547,-1l-2,-82L433,0Z" 
id="f0_2"
transform="scale(0.001,-0.001)" />

<path d="M102,312V836H241V369L102,312Z" 
id="f0_5"
transform="scale(0.001,-0.001)" />

<path d="M139,0V836H485c0,0,206,0,290,-90c0,0,84,-89,84,-294V0H721V473c0,0,0,147,-49,202c0,0,-48,54,-186,54H277V0Z" 
id="f0_r"
transform="scale(0.001,-0.001)" />

<path d="M112,-5c0,0,-39,0,-97,11V113c0,0,48,-10,77,-10c0,0,53,0,70,42c0,0,17,43,17,164V729H50V836H501c0,0,107,0,179,-25c0,0,72,-25,112,-77c0,0,40,-51,57,-118c0,0,16,-67,16,-164V0H726V454c0,0,0,55,-3,92c0,0,-4,37,-17,75c0,0,-14,38,-38,59c0,0,-24,22,-65,36c0,0,-42,13,-102,13H318V309c0,0,0,-160,-46,-237C272,72,226,-5,112,-5Z" 
id="f0_4"
transform="scale(0.001,-0.001)" />

<path d="M66,0V107H554V452c0,0,0,56,-4,93c0,0,-4,37,-18,75c0,0,-14,38,-40,60c0,0,-26,22,-71,36c0,0,-45,13,-110,13H66V836H312c0,0,91,0,157,-17c0,0,66,-17,109,-49c0,0,44,-32,69,-84c0,0,26,-52,36,-114c0,0,10,-62,10,-147V107H817V0Z" 
id="f0_8"
transform="scale(0.001,-0.001)" />

<path d="M180,0L66,836H203L258,443c0,0,36,1,64,6c0,0,28,6,49,18c0,0,20,12,35,26c0,0,15,13,26,36c0,0,11,24,17,44c0,0,7,20,12,55c0,0,6,34,9,60c0,0,3,26,8,71c0,0,4,45,9,77H610c0,0,-13,-194,-31,-271c0,0,-31,-127,-111,-179c0,0,-71,-45,-196,-50L304,107c0,0,73,0,130,5c0,0,56,6,111,21c0,0,54,15,94,40c0,0,40,25,77,64c0,0,37,39,63,94c0,0,25,54,46,128c0,0,21,73,34,166c0,0,13,94,20,211h138c0,0,-14,-124,-29,-218c0,0,-16,-94,-39,-179c0,0,-22,-85,-50,-146c0,0,-28,-61,-68,-112c0,0,-39,-51,-87,-84C744,97,696,65,632,42C632,42,568,19,492,10C492,10,417,0,320,0Z" 
id="f0_b"
transform="scale(0.001,-0.001)" />

<path d="M139,0V836H278V0Z" 
id="f0_7"
transform="scale(0.001,-0.001)" />

<path d="M139,0V106H400c0,0,176,0,253,71c0,0,78,72,78,250c0,0,0,163,-80,233c0,0,-81,69,-250,69H278L277,564c0,0,-1,-54,26,-80c0,0,27,-25,82,-25c0,0,30,0,80,9V355c0,0,-61,-12,-111,-12c0,0,-100,0,-157,55c0,0,-58,55,-58,186V836H456c0,0,193,0,303,-109c0,0,110,-109,110,-309c0,0,0,-200,-110,-309C759,109,648,0,456,0Z" 
id="f0_j"
transform="scale(0.001,-0.001)" />

<path d="M66,0V106H564L66,836H228L516,413c0,0,3,2,9,6c0,0,17,13,27,21c0,0,10,8,26,27c0,0,17,20,26,40c0,0,9,21,16,54c0,0,7,34,7,75V836H764V698c0,0,0,-55,-7,-102c0,0,-7,-47,-16,-79c0,0,-10,-33,-27,-62c0,0,-18,-29,-32,-46c0,0,-14,-17,-37,-35c0,0,-22,-17,-36,-25c0,0,-13,-8,-36,-20L767,53V0Z" 
id="f0_g"
transform="scale(0.001,-0.001)" />

<path d="M139,-317V836H278V-317Z" 
id="f0_p"
transform="scale(0.001,-0.001)" />

<path d="M66,0V106H322c0,0,75,0,127,23c0,0,53,23,82,67c0,0,29,43,42,98c0,0,13,54,13,124c0,0,0,70,-13,124c0,0,-13,55,-42,98c0,0,-29,44,-82,67c0,0,-52,23,-127,23H66V836H322c0,0,87,0,157,-24c0,0,70,-24,115,-64c0,0,45,-40,74,-94c0,0,30,-55,43,-113c0,0,13,-59,13,-123c0,0,0,-64,-13,-123c0,0,-13,-58,-43,-113c0,0,-29,-54,-74,-94C594,88,549,48,479,24C479,24,409,0,322,0Z" 
id="f0_h"
transform="scale(0.001,-0.001)" />

<path d="M139,0V138c0,0,0,61,8,112c0,0,7,52,19,87c0,0,11,36,30,66c0,0,19,31,35,49c0,0,17,19,41,35c0,0,25,17,41,25c0,0,17,7,40,17L141,836H303L613,388c0,0,20,10,33,18c0,0,13,8,34,28c0,0,20,20,33,44c0,0,13,25,22,66c0,0,10,41,10,92V836H882V698c0,0,0,-61,-7,-112c0,0,-6,-52,-18,-88c0,0,-12,-36,-30,-66c0,0,-19,-30,-36,-49c0,0,-17,-18,-41,-34c0,0,-24,-17,-40,-25c0,0,-17,-8,-41,-17L882,0H720L409,448c0,0,-21,-11,-34,-19c0,0,-13,-8,-34,-27c0,0,-21,-20,-34,-44c0,0,-12,-25,-22,-66c0,0,-9,-41,-9,-92V0Z" 
id="f0_c"
transform="scale(0.001,-0.001)" />

<path d="M163,0V190H321V0Z" 
id="f0_q"
transform="scale(0.001,-0.001)" />

<path d="M114,0l60,312c0,0,2,12,8,39c0,0,6,27,7,37c0,0,2,11,5,30c0,0,2,19,4,33c0,0,1,15,1,31c0,0,0,48,-35,146c0,0,-35,98,-98,208H228c0,0,3,-8,27,-67c0,0,25,-58,41,-117c0,0,21,53,50,90c0,0,29,37,57,57c0,0,29,21,65,32c0,0,37,11,65,14c0,0,28,3,67,3c0,0,300,0,300,-396V0H480V106H761V452c0,0,0,146,-46,215c0,0,-45,70,-118,70c0,0,-134,0,-198,-119c0,0,-36,-68,-67,-222c0,0,-2,-10,-6,-27L253,0Z" 
id="f0_f"
transform="scale(0.001,-0.001)" />

<path d="M152,0V473c0,0,0,94,28,161c0,0,29,66,71,95H66V836H463V729H404c0,0,-65,0,-89,-57c0,0,-25,-58,-25,-199V0Z" 
id="f0_i"
transform="scale(0.001,-0.001)" />

<path d="M736,107V473c0,0,0,147,-48,202c0,0,-49,54,-187,54H278V107ZM139,0V836H499c0,0,105,0,177,-22c0,0,72,-21,116,-69c0,0,44,-49,64,-119c0,0,19,-71,19,-174V0Z" 
id="f0_e"
transform="scale(0.001,-0.001)" />

<path d="M138,-7c0,0,-34,0,-72,10V129c0,0,25,-8,52,-8c0,0,33,0,58,5c0,0,26,5,58,24c0,0,33,20,53,54c0,0,21,34,36,97c0,0,15,64,15,151c0,0,0,113,-19,173c0,0,-19,60,-56,82c0,0,-38,22,-107,22H89V836h72c0,0,165,0,240,-91c0,0,76,-91,76,-293c0,0,0,-107,26,-227c0,0,25,-119,83,-225H437c0,0,-43,101,-62,184c0,0,-24,-60,-51,-99c0,0,-26,-38,-56,-58C268,27,239,7,209,0c0,0,-30,-7,-71,-7Z" 
id="f0_s"
transform="scale(0.001,-0.001)" />

<path d="M585,0V426c0,0,0,54,-8,98c0,0,-8,44,-27,83c0,0,-19,40,-49,66c0,0,-30,26,-77,41c0,0,-47,15,-108,15H66V836H315c0,0,94,0,166,-20c0,0,71,-20,116,-54c0,0,46,-35,75,-88c0,0,28,-52,40,-112c0,0,12,-60,12,-137V0Z" 
id="f0_9"
transform="scale(0.001,-0.001)" />

<path d="M543,-317V369c0,0,0,85,-8,143c0,0,-8,58,-27,101c0,0,-18,44,-51,69c0,0,-33,24,-80,36c0,0,-48,11,-117,11H66V836H257c0,0,125,0,205,-23c0,0,80,-23,130,-79c0,0,50,-56,70,-143c0,0,20,-86,20,-222V-317Z" 
id="f0_k"
transform="scale(0.001,-0.001)" />

<path d="M66,0V107H332V555c0,0,0,92,-37,133c0,0,-37,41,-116,41H85V836h94c0,0,153,0,223,-66c0,0,69,-66,69,-231V0Z" 
id="f0_d"
transform="scale(0.001,-0.001)" />

<path d="M71,-141V-15L289,62L66,836H210L416,109c0,0,99,42,153,98c0,0,53,56,80,155c0,0,26,98,26,262V836H817V624c0,0,0,-88,-7,-154c0,0,-7,-67,-25,-132c0,0,-18,-66,-51,-116c0,0,-33,-51,-84,-98c0,0,-50,-48,-123,-87c0,0,-72,-39,-169,-74L71,-141Z" 
id="f0_n"
transform="scale(0.001,-0.001)" />

<path d="M284,67c0,0,51,0,88,12c0,0,37,12,74,30V358l-98,-3c0,0,-100,-4,-135,-39c0,0,-35,-35,-35,-117c0,0,0,-132,106,-132ZM233,-14c0,0,-179,0,-179,208c0,0,0,70,27,116c0,0,27,46,87,70c0,0,60,24,173,27l105,3V519c0,0,0,72,-26,107c0,0,-27,34,-82,34c0,0,-75,0,-137,-35L176,538H134V691c0,0,121,26,213,26c0,0,115,0,169,-47c0,0,54,-47,54,-144V52L657,33V0H465L451,70c0,0,-85,-84,-218,-84Z" 
id="f1_b"
transform="scale(0.001,-0.001)" />

<path d="M495,413c0,0,0,133,-34,190c0,0,-34,57,-105,57c0,0,-78,0,-119,-63c0,0,-42,-62,-42,-184ZM374,-14c0,0,-163,0,-239,87c0,0,-75,88,-75,283c0,0,0,183,77,273c0,0,76,91,219,91c0,0,269,0,269,-306V353H194V340c0,0,0,-103,23,-160c0,0,22,-57,70,-87c0,0,47,-29,124,-29c0,0,40,0,96,6c0,0,55,7,91,15V43C598,43,562,20,500,3c0,0,-61,-17,-126,-17Z" 
id="f1_c"
transform="scale(0.001,-0.001)" />

<path d="M522,92c0,0,247,0,247,333c0,0,0,88,-17,146c0,0,-17,58,-53,91c0,0,-35,33,-82,46c0,0,-48,14,-116,14H276V419c0,0,0,-327,246,-327Zm0,-112c0,0,-193,0,-289,109c0,0,-95,110,-95,337V836H501c0,0,213,0,309,-93c0,0,96,-94,96,-317c0,0,0,-227,-95,-337C811,89,715,-20,522,-20Z" 
id="f0_o"
transform="scale(0.001,-0.001)" />

<path d="M700,-317V454c0,0,0,155,-54,215c0,0,-54,60,-180,60H277V551c0,0,0,-55,26,-80c0,0,27,-26,82,-26c0,0,30,0,80,10V341c0,0,-61,-11,-111,-11c0,0,-100,0,-157,55c0,0,-58,55,-58,186V836H466c0,0,203,0,288,-91c0,0,85,-92,85,-293V-317Z" 
id="f0_10"
transform="scale(0.001,-0.001)" />

<path d="M117,-176L179,62V190H336V62L213,-176Z" 
id="f0_m"
transform="scale(0.001,-0.001)" />

<path d="M278,-14c0,0,-52,0,-115,11c0,0,-63,10,-99,23V193H98L134,95c0,0,56,-50,146,-50c0,0,144,0,144,123c0,0,0,91,-114,130l-66,21c0,0,-75,25,-110,50c0,0,-34,26,-53,63c0,0,-18,36,-18,89c0,0,0,92,63,145c0,0,63,54,170,54c0,0,77,0,193,-23V544H454l-32,81c0,0,-39,35,-124,35c0,0,-61,0,-92,-30c0,0,-32,-30,-32,-80c0,0,0,-43,29,-72c0,0,28,-29,86,-48c0,0,110,-38,144,-55c0,0,33,-17,57,-42c0,0,23,-25,36,-57c0,0,13,-32,13,-79c0,0,0,-104,-66,-158c0,0,-66,-53,-195,-53Z" 
id="f1_9"
transform="scale(0.001,-0.001)" />

<path d="M522,-20c0,0,-196,0,-290,99c0,0,-94,100,-94,324V836H276V397c0,0,0,-86,16,-147c0,0,17,-60,50,-94c0,0,34,-34,77,-49c0,0,43,-15,103,-15c0,0,59,0,102,15c0,0,44,15,77,49c0,0,33,34,50,94c0,0,17,61,17,147c0,0,0,84,-8,143c0,0,-7,58,-25,105c0,0,-17,47,-51,69c0,0,-33,23,-83,23c0,0,-50,0,-119,-22V821c0,0,85,23,150,23c0,0,76,0,130,-30c0,0,53,-31,85,-90c0,0,31,-59,45,-138c0,0,13,-78,13,-183c0,0,0,-224,-93,-324c0,0,-94,-99,-290,-99Z" 
id="f0_t"
transform="scale(0.001,-0.001)" />

<path d="M495,0V729H66V836H781V729H634V0Z" 
id="f0_l"
transform="scale(0.001,-0.001)" />

<path d="M156,-317V454l139,56V-317ZM505,0L806,729H139V835H967V753L650,0Z" 
id="f0_3"
transform="scale(0.001,-0.001)" />

<path d="M122,-200c0,0,99,170,148,338c0,0,49,169,49,342c0,0,0,172,-49,340c0,0,-49,168,-148,340H241c0,0,112,-176,168,-345c0,0,55,-169,55,-335c0,0,0,-167,-55,-337c0,0,-56,-168,-168,-343Z" 
id="f0_y"
transform="scale(0.001,-0.001)" />

<path d="M354,-200c0,0,-112,175,-167,343c0,0,-56,170,-56,337c0,0,0,166,55,335c0,0,55,169,168,345H473c0,0,-100,-172,-148,-340c0,0,-48,-168,-48,-340c0,0,0,-173,48,-342c0,0,49,-168,148,-338Z" 
id="f0_x"
transform="scale(0.001,-0.001)" />

<path d="M347,-317V284c0,0,0,59,-21,123c0,0,-21,64,-44,103c0,0,-23,40,-59,94L66,838H218L336,668c0,0,76,-109,120,-223c0,0,87,34,126,107c0,0,39,73,39,186v98H758V737c0,0,0,-82,-23,-152c0,0,-23,-69,-61,-116c0,0,-39,-47,-87,-78c0,0,-47,-31,-101,-45V-317Z" 
id="f0_19"
transform="scale(0.001,-0.001)" />

<path d="M411,-20c0,0,-70,0,-142,11c0,0,-73,11,-151,35V178c0,0,67,-37,139,-54c0,0,72,-18,152,-18c0,0,129,0,204,67c0,0,75,68,75,184c0,0,0,117,-75,184c0,0,-75,68,-204,68c0,0,-61,0,-121,-13c0,0,-60,-13,-123,-42v560H757V987H303V714c0,0,33,11,66,17c0,0,33,5,65,5c0,0,187,0,296,-102c0,0,109,-102,109,-277c0,0,0,-179,-112,-279c0,0,-112,-98,-316,-98Z" 
id="f0_1a"
transform="scale(0.001,-0.001)" />

<path d="M360,-14L72,649L0,668v33H327V668L216,648L420,164L615,649L504,668v33H764V668L697,652L416,-14Z" 
id="f1_z"
transform="scale(0.001,-0.001)" />

<path d="M31,0V33L150,52v956L31,1026v34H274V52L394,33V0Z" 
id="f1_d"
transform="scale(0.001,-0.001)" />

<path d="M0,-14L351,1007h73L75,-14Z" 
id="f1_6"
transform="scale(0.001,-0.001)" />

<path d="M359,-270c0,0,124,0,192,46c0,0,67,47,67,129c0,0,0,43,-26,67c0,0,-26,24,-79,24H242c0,0,-32,-27,-51,-69c0,0,-20,-41,-20,-77c0,0,0,-64,46,-92c0,0,46,-28,142,-28Zm11,561c0,0,81,0,115,47c0,0,34,47,34,141c0,0,0,100,-35,142c0,0,-35,42,-113,42c0,0,-78,0,-114,-43c0,0,-37,-42,-37,-141c0,0,0,-98,36,-143c0,0,36,-45,114,-45ZM359,-329c0,0,-143,0,-218,44c0,0,-75,43,-75,125c0,0,0,39,27,78c0,0,26,38,98,89c0,0,-43,14,-72,48c0,0,-29,35,-29,74L208,262c0,0,-118,55,-118,217c0,0,0,115,73,178c0,0,73,63,211,63c0,0,28,0,71,-6c0,0,44,-6,67,-13l165,83l26,-32L599,644c0,0,50,-56,50,-165c0,0,0,-120,-72,-182c0,0,-73,-62,-208,-62c0,0,-62,0,-114,11L208,148c0,0,2,-13,29,-24c0,0,27,-12,67,-12H512c0,0,113,0,168,-49c0,0,55,-49,55,-134c0,0,0,-79,-44,-137c0,0,-43,-58,-128,-90c0,0,-84,-31,-204,-31Z" 
id="f1_l"
transform="scale(0.001,-0.001)" />

<path d="M399,-14c0,0,-341,0,-341,370c0,0,0,175,87,269c0,0,87,95,249,95c0,0,101,0,220,-23V501H573L541,625c0,0,-62,35,-149,35c0,0,-200,0,-200,-304c0,0,0,-158,61,-225c0,0,61,-67,189,-67c0,0,109,0,189,24V43C631,43,595,16,530,1c0,0,-64,-15,-131,-15Z" 
id="f1_i"
transform="scale(0.001,-0.001)" />

<path d="M32,0V33L151,52V649L52,668v33H275V52L395,33V0ZM201,850c0,0,-32,0,-56,24c0,0,-24,24,-24,56c0,0,0,34,24,58c0,0,24,24,56,24c0,0,34,0,58,-24c0,0,24,-24,24,-58c0,0,0,-32,-24,-56c0,0,-24,-24,-58,-24Z" 
id="f1_j"
transform="scale(0.001,-0.001)" />

<path d="M439,0V33l93,19V500c0,0,0,62,-30,97c0,0,-31,36,-94,36c0,0,-67,0,-165,-22V52L338,33V0H35V33l84,19V649L35,668v33H235l7,-57c0,0,57,33,122,54c0,0,65,22,108,22c0,0,91,0,137,-53c0,0,47,-53,47,-154V52L741,33V0Z" 
id="f1_e"
transform="scale(0.001,-0.001)" />

<path d="M377,45c0,0,99,0,147,73c0,0,47,73,47,237c0,0,0,161,-47,233c0,0,-47,72,-147,72c0,0,-97,0,-141,-69c0,0,-44,-69,-44,-236c0,0,0,-169,45,-240c0,0,44,-70,140,-70Zm0,-59c0,0,-158,0,-238,94c0,0,-81,95,-81,274c0,0,0,178,81,272c0,0,80,94,244,94c0,0,160,0,241,-92c0,0,82,-92,82,-274c0,0,0,-368,-329,-368Z" 
id="f1_f"
transform="scale(0.001,-0.001)" />

<path d="M382,45c0,0,188,0,188,314c0,0,0,143,-47,213c0,0,-46,69,-141,69c0,0,-87,0,-146,-24V58c0,0,67,-13,146,-13ZM25,-325v35l88,18V649L34,668v33H231l1,-41c0,0,31,27,84,43c0,0,53,17,107,17c0,0,134,0,208,-94c0,0,73,-93,73,-267c0,0,0,-178,-80,-276c0,0,-80,-97,-232,-97c0,0,-84,0,-160,16c0,0,4,-53,4,-84V-272l123,-18v-35Z" 
id="f1_g"
transform="scale(0.001,-0.001)" />

<path d="M249,-14c0,0,-71,0,-107,42c0,0,-35,42,-35,119V639H15v33l93,29l76,159h47V701H391V639H231V161c0,0,0,-48,22,-73c0,0,22,-24,57,-24c0,0,44,0,106,12V26C416,26,389,8,340,-2c0,0,-49,-12,-91,-12Z" 
id="f1_2"
transform="scale(0.001,-0.001)" />

<path d="M289,-14c0,0,-179,0,-179,205V649L20,668v33H233V200c0,0,0,-128,120,-128c0,0,92,0,173,23V649L420,668v33H649V52L738,34V0H533l-6,57C527,57,474,28,405,6c0,0,-69,-20,-116,-20Zm24,849v24l147,203H618v-27L354,835Z" 
id="f1_3"
transform="scale(0.001,-0.001)" />

<path d="M557,-14c0,0,-199,0,-298,89c0,0,-99,90,-99,255V941L32,960v40H432V960L304,941V341c0,0,0,-273,264,-273c0,0,144,0,220,68c0,0,77,68,77,202V941L730,960v40h341V960L943,941V344c0,0,0,-180,-99,-269c0,0,-99,-89,-287,-89Z" 
id="f1_7"
transform="scale(0.001,-0.001)" />

<path d="M383,64c0,0,85,0,152,28V645c0,0,-67,13,-152,13c0,0,-194,0,-194,-314c0,0,0,-141,48,-211c0,0,48,-69,146,-69ZM342,-14c0,0,-287,0,-287,358c0,0,0,184,82,280c0,0,81,96,239,96c0,0,81,0,163,-18c0,0,-4,25,-4,124v182l-118,18v34H659V52L745,33V0H548l-9,52c0,0,-84,-66,-197,-66Z" 
id="f1_8"
transform="scale(0.001,-0.001)" />


</defs>
</svg>