<?xml version="1.0" encoding="UTF-8" standalone="no"?>
<!DOCTYPE svg PUBLIC "-//W3C//DTD SVG 1.1//EN"
"http://www.w3.org/Graphics/SVG/1.1/DTD/svg11.dtd">
<svg viewBox="0 0 909 1286" version="1.1" xmlns="http://www.w3.org/2000/svg" xmlns:xlink="http://www.w3.org/1999/xlink">
<defs>
<clipPath id="c0_20"><path d="M0,1286.2V0H909.4V1286.2Z" /></clipPath>
<style type="text/css"><![CDATA[
.g0_20{
fill: none;
stroke: #000000;
stroke-width: 0.7638889;
stroke-linecap: butt;
stroke-linejoin: round;
}
]]></style>
</defs>
<path d="M129.2,110.4h652m-652,22.1h652m-652,22.2h652m-652,22.1h652M129.2,199h652m-652,22.1h652m-652,22.2h652m-652,22.2h652m-652,22.1h652m-652,22.2h652m-652,22.1h652m-652,22.2h652m-652,22.1h652m-652,22.2h652m-652,20.1h652m-652,20h652m-652,20.2h652m-652,20h652m-652,20.2h652M129.6,110V499.3M292.3,110V499.3M455.1,110V499.3M618,110V499.3M780.8,110V499.3" class="g0_20" />
<g clip-path="url(#c0_20)">
<g fill="#000000" >
<use xlink:href="#f0_n" transform="matrix(12,0,0,12,737,127.9)" />
<use xlink:href="#f0_9" transform="matrix(12,0,0,12,742,127.9)" />
<use xlink:href="#f0_k" transform="matrix(12,0,0,12,747,127.9)" />
<use xlink:href="#f0_4" transform="matrix(12,0,0,12,756.7,127.9)" />
<use xlink:href="#f0_7" transform="matrix(12,0,0,12,760.6,127.9)" />
<use xlink:href="#f1_6" transform="matrix(11,0,0,11,560.2,126.5)" />
<use xlink:href="#f1_b" transform="matrix(11,0,0,11,567.7,126.5)" />
<use xlink:href="#f1_8" transform="matrix(11,0,0,11,575.9,126.5)" />
<use xlink:href="#f1_d" transform="matrix(11,0,0,11,580.7,126.5)" />
<use xlink:href="#f1_t" transform="matrix(11,0,0,11,588.1,126.5)" />
<use xlink:href="#f1_9" transform="matrix(11,0,0,11,596.5,126.5)" />
<use xlink:href="#f1_b" transform="matrix(11,0,0,11,601.3,126.5)" />
<use xlink:href="#f0_2" transform="matrix(12,0,0,12,407.3,127.9)" />
<use xlink:href="#f0_v" transform="matrix(12,0,0,12,419.2,127.9)" />
<use xlink:href="#f0_4" transform="matrix(12,0,0,12,431.1,127.9)" />
<use xlink:href="#f0_z" transform="matrix(12,0,0,12,435.1,127.9)" />
<use xlink:href="#f1_r" transform="matrix(11,0,0,11,246.6,126.5)" />
<use xlink:href="#f1_7" transform="matrix(11,0,0,11,255,126.5)" />
<use xlink:href="#f1_d" transform="matrix(11,0,0,11,263.4,126.5)" />
<use xlink:href="#f1_8" transform="matrix(11,0,0,11,270.9,126.5)" />
<use xlink:href="#f1_b" transform="matrix(11,0,0,11,275.6,126.5)" />
<use xlink:href="#f0_x" transform="matrix(12,0,0,12,731.3,150)" />
<use xlink:href="#f0_9" transform="matrix(12,0,0,12,744.3,150)" />
<use xlink:href="#f0_m" transform="matrix(12,0,0,12,749.4,150)" />
<use xlink:href="#f0_4" transform="matrix(12,0,0,12,756.7,150)" />
<use xlink:href="#f0_7" transform="matrix(12,0,0,12,760.7,150)" />
<use xlink:href="#f1_h" transform="matrix(11,0,0,11,549.5,148.7)" />
<use xlink:href="#f1_d" transform="matrix(11,0,0,11,557.9,148.7)" />
<use xlink:href="#f1_h" transform="matrix(11,0,0,11,565.4,148.7)" />
<use xlink:href="#f1_14" transform="matrix(11,0,0,11,573.7,148.7)" />
<use xlink:href="#f1_w" transform="matrix(11,0,0,11,585.4,148.7)" />
<use xlink:href="#f1_3" transform="matrix(11,0,0,11,590.9,148.7)" />
<use xlink:href="#f1_x" transform="matrix(11,0,0,11,604,148.7)" />
<use xlink:href="#f0_i" transform="matrix(12,0,0,12,416.5,150)" />
<use xlink:href="#f0_a" transform="matrix(12,0,0,12,426.8,150)" />
<use xlink:href="#f0_k" transform="matrix(12,0,0,12,437.4,150)" />
<use xlink:href="#f1_16" transform="matrix(11,0,0,11,268.1,148.7)" />
<use xlink:href="#f1_4" transform="matrix(11,0,0,11,276.5,148.7)" />
<use xlink:href="#f0_7" transform="matrix(12,0,0,12,728.6,172.2)" />
<use xlink:href="#f0_3" transform="matrix(12,0,0,12,740.6,172.2)" />
<use xlink:href="#f0_k" transform="matrix(12,0,0,12,751,172.2)" />
<use xlink:href="#f0_7" transform="matrix(12,0,0,12,760.7,172.2)" />
<use xlink:href="#f1_6" transform="matrix(11,0,0,11,563.9,170.8)" />
<use xlink:href="#f1_d" transform="matrix(11,0,0,11,571.4,170.8)" />
<use xlink:href="#f1_8" transform="matrix(11,0,0,11,578.8,170.8)" />
<use xlink:href="#f1_d" transform="matrix(11,0,0,11,583.4,170.8)" />
<use xlink:href="#f1_5" transform="matrix(11,0,0,11,590.9,170.8)" />
<use xlink:href="#f1_e" transform="matrix(11,0,0,11,597.4,170.8)" />
<use xlink:href="#f1_d" transform="matrix(11,0,0,11,602.2,170.8)" />
<use xlink:href="#f0_4" transform="matrix(12,0,0,12,423.3,172.2)" />
<use xlink:href="#f0_m" transform="matrix(12,0,0,12,427.5,172.2)" />
<use xlink:href="#f0_8" transform="matrix(12,0,0,12,434.8,172.2)" />
<use xlink:href="#f1_16" transform="matrix(11,0,0,11,267.2,170.8)" />
<use xlink:href="#f1_b" transform="matrix(11,0,0,11,275.6,170.8)" />
<use xlink:href="#f0_2" transform="matrix(12,0,0,12,705.7,194.3)" />
<use xlink:href="#f0_10" transform="matrix(12,0,0,12,717.6,194.3)" />
<use xlink:href="#f0_f" transform="matrix(12,0,0,12,723.7,194.3)" />
<use xlink:href="#f0_4" transform="matrix(12,0,0,12,733.8,194.3)" />
<use xlink:href="#f0_5" transform="matrix(12,0,0,12,737.9,194.3)" />
<use xlink:href="#f0_3" transform="matrix(12,0,0,12,750.2,194.3)" />
<use xlink:href="#f0_7" transform="matrix(12,0,0,12,760.6,194.3)" />
<use xlink:href="#f1_d" transform="matrix(11,0,0,11,517.8,193)" />
<use xlink:href="#f1_5" transform="matrix(11,0,0,11,525.1,193)" />
<use xlink:href="#f1_e" transform="matrix(11,0,0,11,531.6,193)" />
<use xlink:href="#f1_7" transform="matrix(11,0,0,11,536.4,193)" />
<use xlink:href="#f1_m" transform="matrix(11,0,0,11,544.8,193)" />
<use xlink:href="#f1_9" transform="matrix(11,0,0,11,553.2,193)" />
<use xlink:href="#f1_4" transform="matrix(11,0,0,11,557.8,193)" />
<use xlink:href="#f1_a" transform="matrix(11,0,0,11,565.2,193)" />
<use xlink:href="#f1_e" transform="matrix(11,0,0,11,573.6,193)" />
<use xlink:href="#f1_d" transform="matrix(11,0,0,11,578.3,193)" />
<use xlink:href="#f1_w" transform="matrix(11,0,0,11,589.9,193)" />
<use xlink:href="#f1_a" transform="matrix(11,0,0,11,595.6,193)" />
<use xlink:href="#f1_x" transform="matrix(11,0,0,11,604,193)" />
<use xlink:href="#f0_i" transform="matrix(12,0,0,12,409,194.3)" />
<use xlink:href="#f0_9" transform="matrix(12,0,0,12,419.4,194.3)" />
<use xlink:href="#f0_r" transform="matrix(12,0,0,12,424.4,194.3)" />
<use xlink:href="#f0_4" transform="matrix(12,0,0,12,430.7,194.3)" />
<use xlink:href="#f0_8" transform="matrix(12,0,0,12,434.8,194.3)" />
<use xlink:href="#f1_10" transform="matrix(11,0,0,11,252.2,193)" />
<use xlink:href="#f1_b" transform="matrix(11,0,0,11,259.7,193)" />
<use xlink:href="#f1_a" transform="matrix(11,0,0,11,268.1,193)" />
<use xlink:href="#f1_4" transform="matrix(11,0,0,11,276.5,193)" />
<use xlink:href="#f0_f" transform="matrix(12,0,0,12,734.3,216.5)" />
<use xlink:href="#f0_4" transform="matrix(12,0,0,12,744.2,216.5)" />
<use xlink:href="#f0_5" transform="matrix(12,0,0,12,748.3,216.5)" />
<use xlink:href="#f0_7" transform="matrix(12,0,0,12,760.7,216.5)" />
<use xlink:href="#f1_5" transform="matrix(11,0,0,11,556.4,215.1)" />
<use xlink:href="#f1_9" transform="matrix(11,0,0,11,563,215.1)" />
<use xlink:href="#f1_d" transform="matrix(11,0,0,11,567.7,215.1)" />
<use xlink:href="#f1_3" transform="matrix(11,0,0,11,575,215.1)" />
<use xlink:href="#f1_j" transform="matrix(11,0,0,11,588.1,215.1)" />
<use xlink:href="#f1_f" transform="matrix(11,0,0,11,596.5,215.1)" />
<use xlink:href="#f1_d" transform="matrix(11,0,0,11,602.2,215.1)" />
<use xlink:href="#f0_i" transform="matrix(12,0,0,12,738.1,238.6)" />
<use xlink:href="#f0_9" transform="matrix(12,0,0,12,748.4,238.6)" />
<use xlink:href="#f0_m" transform="matrix(12,0,0,12,753.3,238.6)" />
<use xlink:href="#f0_7" transform="matrix(12,0,0,12,760.7,238.6)" />
<use xlink:href="#f1_11" transform="matrix(11,0,0,11,570.5,237.3)" />
<use xlink:href="#f1_b" transform="matrix(11,0,0,11,578.9,237.3)" />
<use xlink:href="#f1_f" transform="matrix(11,0,0,11,587.3,237.3)" />
<use xlink:href="#f1_a" transform="matrix(11,0,0,11,592.9,237.3)" />
<use xlink:href="#f1_b" transform="matrix(11,0,0,11,601.3,237.3)" />
<use xlink:href="#f0_r" transform="matrix(12,0,0,12,737.9,260.8)" />
<use xlink:href="#f0_9" transform="matrix(12,0,0,12,744.3,260.8)" />
<use xlink:href="#f0_c" transform="matrix(12,0,0,12,749.2,260.8)" />
<use xlink:href="#f0_7" transform="matrix(12,0,0,12,760.7,260.8)" />
<use xlink:href="#f1_a" transform="matrix(11,0,0,11,560.2,259.4)" />
<use xlink:href="#f1_4" transform="matrix(11,0,0,11,568.6,259.4)" />
<use xlink:href="#f1_f" transform="matrix(11,0,0,11,576,259.4)" />
<use xlink:href="#f1_4" transform="matrix(11,0,0,11,581.6,259.4)" />
<use xlink:href="#f1_a" transform="matrix(11,0,0,11,589.1,259.4)" />
<use xlink:href="#f1_u" transform="matrix(11,0,0,11,597.5,259.4)" />
<use xlink:href="#f1_4" transform="matrix(11,0,0,11,602.2,259.4)" />
<use xlink:href="#f0_z" transform="matrix(12,0,0,12,722.9,282.9)" />
<use xlink:href="#f0_4" transform="matrix(12,0,0,12,734.8,282.9)" />
<use xlink:href="#f0_i" transform="matrix(12,0,0,12,738.9,282.9)" />
<use xlink:href="#f0_c" transform="matrix(12,0,0,12,749.2,282.9)" />
<use xlink:href="#f0_7" transform="matrix(12,0,0,12,760.6,282.9)" />
<use xlink:href="#f1_3" transform="matrix(11,0,0,11,481.4,281.6)" />
<use xlink:href="#f1_d" transform="matrix(11,0,0,11,494.4,281.6)" />
<use xlink:href="#f1_a" transform="matrix(11,0,0,11,501.9,281.6)" />
<use xlink:href="#f1_y" transform="matrix(11,0,0,11,510.3,281.6)" />
<use xlink:href="#f1_w" transform="matrix(11,0,0,11,522.9,281.6)" />
<use xlink:href="#f1_3" transform="matrix(11,0,0,11,528.4,281.6)" />
<use xlink:href="#f1_x" transform="matrix(11,0,0,11,541.5,281.6)" />
<use xlink:href="#f1_n" transform="matrix(11,0,0,11,547,281.6)" />
<use xlink:href="#f1_6" transform="matrix(11,0,0,11,556,281.6)" />
<use xlink:href="#f1_4" transform="matrix(11,0,0,11,563.4,281.6)" />
<use xlink:href="#f1_f" transform="matrix(11,0,0,11,570.8,281.6)" />
<use xlink:href="#f1_e" transform="matrix(11,0,0,11,576.5,281.6)" />
<use xlink:href="#f1_4" transform="matrix(11,0,0,11,581,281.6)" />
<use xlink:href="#f1_w" transform="matrix(11,0,0,11,592.8,281.6)" />
<use xlink:href="#f1_c" transform="matrix(11,0,0,11,598.3,281.6)" />
<use xlink:href="#f1_x" transform="matrix(11,0,0,11,603.9,281.6)" />
<use xlink:href="#f0_7" transform="matrix(12,0,0,12,722.8,305.1)" />
<use xlink:href="#f0_9" transform="matrix(12,0,0,12,734.8,305.1)" />
<use xlink:href="#f0_a" transform="matrix(12,0,0,12,739.9,305.1)" />
<use xlink:href="#f0_i" transform="matrix(12,0,0,12,750.4,305.1)" />
<use xlink:href="#f0_7" transform="matrix(12,0,0,12,760.6,305.1)" />
<use xlink:href="#f1_6" transform="matrix(11,0,0,11,563,303.7)" />
<use xlink:href="#f1_7" transform="matrix(11,0,0,11,570.4,303.7)" />
<use xlink:href="#f1_8" transform="matrix(11,0,0,11,578.9,303.7)" />
<use xlink:href="#f1_e" transform="matrix(11,0,0,11,583.4,303.7)" />
<use xlink:href="#f1_7" transform="matrix(11,0,0,11,588.2,303.7)" />
<use xlink:href="#f1_f" transform="matrix(11,0,0,11,596.6,303.7)" />
<use xlink:href="#f1_4" transform="matrix(11,0,0,11,602.2,303.7)" />
<use xlink:href="#f0_h" transform="matrix(12,0,0,12,725.7,327.3)" />
<use xlink:href="#f0_9" transform="matrix(12,0,0,12,737.9,327.3)" />
<use xlink:href="#f0_11" transform="matrix(12,0,0,12,742.9,327.3)" />
<use xlink:href="#f0_i" transform="matrix(12,0,0,12,750.4,327.3)" />
<use xlink:href="#f0_7" transform="matrix(12,0,0,12,760.6,327.3)" />
<use xlink:href="#f1_e" transform="matrix(11,0,0,11,538.7,325.9)" />
<use xlink:href="#f1_f" transform="matrix(11,0,0,11,543.4,325.9)" />
<use xlink:href="#f1_4" transform="matrix(11,0,0,11,548.9,325.9)" />
<use xlink:href="#f1_m" transform="matrix(11,0,0,11,556.4,325.9)" />
<use xlink:href="#f1_7" transform="matrix(11,0,0,11,564.8,325.9)" />
<use xlink:href="#f1_6" transform="matrix(11,0,0,11,573.2,325.9)" />
<use xlink:href="#f1_6" transform="matrix(11,0,0,11,580.6,325.9)" />
<use xlink:href="#f1_9" transform="matrix(11,0,0,11,588.1,325.9)" />
<use xlink:href="#f1_z" transform="matrix(11,0,0,11,592.8,325.9)" />
<use xlink:href="#f1_a" transform="matrix(11,0,0,11,601.2,325.9)" />
<use xlink:href="#f0_3" transform="matrix(12,0,0,12,728.4,349.4)" />
<use xlink:href="#f0_4" transform="matrix(12,0,0,12,738.8,349.4)" />
<use xlink:href="#f0_11" transform="matrix(12,0,0,12,742.9,349.4)" />
<use xlink:href="#f0_i" transform="matrix(12,0,0,12,750.4,349.4)" />
<use xlink:href="#f0_7" transform="matrix(12,0,0,12,760.7,349.4)" />
<use xlink:href="#f1_d" transform="matrix(11,0,0,11,551.8,348)" />
<use xlink:href="#f1_u" transform="matrix(11,0,0,11,559.2,348)" />
<use xlink:href="#f1_d" transform="matrix(11,0,0,11,563.9,348)" />
<use xlink:href="#f1_f" transform="matrix(11,0,0,11,571.3,348)" />
<use xlink:href="#f1_6" transform="matrix(11,0,0,11,577,348)" />
<use xlink:href="#f1_9" transform="matrix(11,0,0,11,584.3,348)" />
<use xlink:href="#f1_6" transform="matrix(11,0,0,11,589,348)" />
<use xlink:href="#f1_9" transform="matrix(11,0,0,11,596.5,348)" />
<use xlink:href="#f1_b" transform="matrix(11,0,0,11,601.2,348)" />
<use xlink:href="#f0_2" transform="matrix(12,0,0,12,720.3,371.6)" />
<use xlink:href="#f0_a" transform="matrix(12,0,0,12,732.3,371.6)" />
<use xlink:href="#f0_9" transform="matrix(12,0,0,12,742.8,371.6)" />
<use xlink:href="#f0_b" transform="matrix(12,0,0,12,747.7,371.6)" />
<use xlink:href="#f0_7" transform="matrix(12,0,0,12,760.7,371.6)" />
<use xlink:href="#f1_f" transform="matrix(11,0,0,11,547.1,370.2)" />
<use xlink:href="#f1_d" transform="matrix(11,0,0,11,552.7,370.2)" />
<use xlink:href="#f1_5" transform="matrix(11,0,0,11,560.2,370.2)" />
<use xlink:href="#f1_j" transform="matrix(11,0,0,11,566.7,370.2)" />
<use xlink:href="#f1_7" transform="matrix(11,0,0,11,575.1,370.2)" />
<use xlink:href="#f1_d" transform="matrix(11,0,0,11,583.4,370.2)" />
<use xlink:href="#f1_5" transform="matrix(11,0,0,11,590.9,370.2)" />
<use xlink:href="#f1_e" transform="matrix(11,0,0,11,597.4,370.2)" />
<use xlink:href="#f1_4" transform="matrix(11,0,0,11,602.1,370.2)" />
<use xlink:href="#f0_4" transform="matrix(12,0,0,12,728.1,393.7)" />
<use xlink:href="#f0_g" transform="matrix(12,0,0,12,732.2,393.7)" />
<use xlink:href="#f0_4" transform="matrix(12,0,0,12,743.7,393.7)" />
<use xlink:href="#f0_b" transform="matrix(12,0,0,12,747.7,393.7)" />
<use xlink:href="#f0_7" transform="matrix(12,0,0,12,760.7,393.7)" />
<use xlink:href="#f1_a" transform="matrix(11,0,0,11,560.2,392.3)" />
<use xlink:href="#f1_b" transform="matrix(11,0,0,11,568.6,392.3)" />
<use xlink:href="#f1_r" transform="matrix(11,0,0,11,577,392.3)" />
<use xlink:href="#f1_d" transform="matrix(11,0,0,11,585.4,392.3)" />
<use xlink:href="#f1_a" transform="matrix(11,0,0,11,592.9,392.3)" />
<use xlink:href="#f1_b" transform="matrix(11,0,0,11,601.3,392.3)" />
</g>
</g>
<g fill="#000000" >
<use xlink:href="#f0_16" transform="matrix(11,0,0,11,750.8,1227.6)" />
<use xlink:href="#f0_t" transform="matrix(11,0,0,11,761.4,1227.6)" />
</g>
<defs>
<path d="M139,-317V836H278V-317Z" 
id="f0_n"
transform="scale(0.001,-0.001)" />

<path d="M139,0V836H278V0Z" 
id="f0_9"
transform="scale(0.001,-0.001)" />

<path d="M66,0V106H322c0,0,75,0,127,23c0,0,53,23,82,67c0,0,29,43,42,98c0,0,13,54,13,124c0,0,0,70,-13,124c0,0,-13,55,-42,98c0,0,-29,44,-82,67c0,0,-52,23,-127,23H66V836H322c0,0,87,0,157,-24c0,0,70,-24,115,-64c0,0,45,-40,74,-94c0,0,30,-55,43,-113c0,0,13,-59,13,-123c0,0,0,-64,-13,-123c0,0,-13,-58,-43,-113c0,0,-29,-54,-74,-94C594,88,549,48,479,24C479,24,409,0,322,0Z" 
id="f0_k"
transform="scale(0.001,-0.001)" />

<path d="M102,312V836H241V369L102,312Z" 
id="f0_4"
transform="scale(0.001,-0.001)" />

<path d="M112,-5c0,0,-39,0,-97,11V113c0,0,48,-10,77,-10c0,0,53,0,70,42c0,0,17,43,17,164V729H50V836H501c0,0,107,0,179,-25c0,0,72,-25,112,-77c0,0,40,-51,57,-118c0,0,16,-67,16,-164V0H726V454c0,0,0,55,-3,92c0,0,-4,37,-17,75c0,0,-14,38,-38,59c0,0,-24,22,-65,36c0,0,-42,13,-102,13H318V309c0,0,0,-160,-46,-237C272,72,226,-5,112,-5Z" 
id="f0_7"
transform="scale(0.001,-0.001)" />

<path d="M399,-14c0,0,-341,0,-341,370c0,0,0,175,87,269c0,0,87,95,249,95c0,0,101,0,220,-23V501H573L541,625c0,0,-62,35,-149,35c0,0,-200,0,-200,-304c0,0,0,-158,61,-225c0,0,61,-67,189,-67c0,0,109,0,189,24V43C631,43,595,16,530,1c0,0,-64,-15,-131,-15Z" 
id="f1_6"
transform="scale(0.001,-0.001)" />

<path d="M377,45c0,0,99,0,147,73c0,0,47,73,47,237c0,0,0,161,-47,233c0,0,-47,72,-147,72c0,0,-97,0,-141,-69c0,0,-44,-69,-44,-236c0,0,0,-169,45,-240c0,0,44,-70,140,-70Zm0,-59c0,0,-158,0,-238,94c0,0,-81,95,-81,274c0,0,0,178,81,272c0,0,80,94,244,94c0,0,160,0,241,-92c0,0,82,-92,82,-274c0,0,0,-368,-329,-368Z" 
id="f1_b"
transform="scale(0.001,-0.001)" />

<path d="M31,0V33L150,52v956L31,1026v34H274V52L394,33V0Z" 
id="f1_8"
transform="scale(0.001,-0.001)" />

<path d="M495,413c0,0,0,133,-34,190c0,0,-34,57,-105,57c0,0,-78,0,-119,-63c0,0,-42,-62,-42,-184ZM374,-14c0,0,-163,0,-239,87c0,0,-75,88,-75,283c0,0,0,183,77,273c0,0,76,91,219,91c0,0,269,0,269,-306V353H194V340c0,0,0,-103,23,-160c0,0,22,-57,70,-87c0,0,47,-29,124,-29c0,0,40,0,96,6c0,0,55,7,91,15V43C598,43,562,20,500,3c0,0,-61,-17,-126,-17Z" 
id="f1_d"
transform="scale(0.001,-0.001)" />

<path d="M359,-270c0,0,124,0,192,46c0,0,67,47,67,129c0,0,0,43,-26,67c0,0,-26,24,-79,24H242c0,0,-32,-27,-51,-69c0,0,-20,-41,-20,-77c0,0,0,-64,46,-92c0,0,46,-28,142,-28Zm11,561c0,0,81,0,115,47c0,0,34,47,34,141c0,0,0,100,-35,142c0,0,-35,42,-113,42c0,0,-78,0,-114,-43c0,0,-37,-42,-37,-141c0,0,0,-98,36,-143c0,0,36,-45,114,-45ZM359,-329c0,0,-143,0,-218,44c0,0,-75,43,-75,125c0,0,0,39,27,78c0,0,26,38,98,89c0,0,-43,14,-72,48c0,0,-29,35,-29,74L208,262c0,0,-118,55,-118,217c0,0,0,115,73,178c0,0,73,63,211,63c0,0,28,0,71,-6c0,0,44,-6,67,-13l165,83l26,-32L599,644c0,0,50,-56,50,-165c0,0,0,-120,-72,-182c0,0,-73,-62,-208,-62c0,0,-62,0,-114,11L208,148c0,0,2,-13,29,-24c0,0,27,-12,67,-12H512c0,0,113,0,168,-49c0,0,55,-49,55,-134c0,0,0,-79,-44,-137c0,0,-43,-58,-128,-90c0,0,-84,-31,-204,-31Z" 
id="f1_t"
transform="scale(0.001,-0.001)" />

<path d="M32,0V33L151,52V649L52,668v33H275V52L395,33V0ZM201,850c0,0,-32,0,-56,24c0,0,-24,24,-24,56c0,0,0,34,24,58c0,0,24,24,56,24c0,0,34,0,58,-24c0,0,24,-24,24,-58c0,0,0,-32,-24,-56c0,0,-24,-24,-58,-24Z" 
id="f1_9"
transform="scale(0.001,-0.001)" />

<path d="M154,0V454l138,56V0ZM722,0V454c0,0,0,161,-49,218c0,0,-48,57,-186,57H139V836H485c0,0,207,0,291,-93c0,0,83,-94,83,-318V0Z" 
id="f0_2"
transform="scale(0.001,-0.001)" />

<path d="M522,92c0,0,247,0,247,333c0,0,0,88,-17,146c0,0,-17,58,-53,91c0,0,-35,33,-82,46c0,0,-48,14,-116,14H276V419c0,0,0,-327,246,-327Zm0,-112c0,0,-193,0,-289,109c0,0,-95,110,-95,337V836H501c0,0,213,0,309,-93c0,0,96,-94,96,-317c0,0,0,-227,-95,-337C811,89,715,-20,522,-20Z" 
id="f0_v"
transform="scale(0.001,-0.001)" />

<path d="M522,-20c0,0,-196,0,-290,99c0,0,-94,100,-94,324V836H276V397c0,0,0,-86,16,-147c0,0,17,-60,50,-94c0,0,34,-34,77,-49c0,0,43,-15,103,-15c0,0,59,0,102,15c0,0,44,15,77,49c0,0,33,34,50,94c0,0,17,61,17,147c0,0,0,84,-8,143c0,0,-7,58,-25,105c0,0,-17,47,-51,69c0,0,-33,23,-83,23c0,0,-50,0,-119,-22V821c0,0,85,23,150,23c0,0,76,0,130,-30c0,0,53,-31,85,-90c0,0,31,-59,45,-138c0,0,13,-78,13,-183c0,0,0,-224,-93,-324c0,0,-94,-99,-290,-99Z" 
id="f0_z"
transform="scale(0.001,-0.001)" />

<path d="M360,-14L72,649L0,668v33H327V668L216,648L420,164L615,649L504,668v33H764V668L697,652L416,-14Z" 
id="f1_r"
transform="scale(0.001,-0.001)" />

<path d="M289,-14c0,0,-179,0,-179,205V649L20,668v33H233V200c0,0,0,-128,120,-128c0,0,92,0,173,23V649L420,668v33H649V52L738,33V0H533l-6,57C527,57,474,28,405,7c0,0,-69,-21,-116,-21Z" 
id="f1_7"
transform="scale(0.001,-0.001)" />

<path d="M156,-317V454l139,56V-317ZM505,0L806,729H139V835H967V753L650,0Z" 
id="f0_x"
transform="scale(0.001,-0.001)" />

<path d="M66,0V107H332V555c0,0,0,92,-37,133c0,0,-37,41,-116,41H85V836h94c0,0,153,0,223,-66c0,0,69,-66,69,-231V0Z" 
id="f0_m"
transform="scale(0.001,-0.001)" />

<path d="M376,50c0,0,103,0,149,80c0,0,46,81,46,240c0,0,0,137,-47,204c0,0,-48,67,-148,67c0,0,-44,0,-87,-7c0,0,-44,-8,-63,-17V62c0,0,63,-12,150,-12Zm3,-64c0,0,-64,0,-141,14c0,0,-78,14,-136,37v971L0,1026v34H226V809c0,0,0,-40,-4,-148c0,0,74,59,188,59c0,0,143,0,219,-87c0,0,77,-87,77,-263c0,0,0,-189,-84,-287c0,0,-84,-97,-243,-97Z" 
id="f1_h"
transform="scale(0.001,-0.001)" />

<path d="M495,413c0,0,0,133,-34,190c0,0,-34,57,-105,57c0,0,-78,0,-119,-62c0,0,-42,-63,-42,-185ZM374,-14c0,0,-163,0,-239,87c0,0,-75,88,-75,283c0,0,0,183,77,274c0,0,76,90,219,90c0,0,269,0,269,-306V353H194V339c0,0,0,-103,23,-160c0,0,22,-57,70,-86c0,0,47,-30,124,-30c0,0,40,0,96,6c0,0,55,7,91,15V43C598,43,562,19,500,2c0,0,-61,-16,-126,-16ZM285,835v24l146,203H590v-27L326,835Z" 
id="f1_14"
transform="scale(0.001,-0.001)" />

<path d="M460,-325c0,0,-148,79,-231,172c0,0,-84,93,-123,217c0,0,-39,126,-39,304c0,0,0,178,39,303c0,0,39,125,122,217c0,0,82,93,232,172V997c0,0,-91,-52,-145,-134c0,0,-54,-81,-79,-190c0,0,-25,-109,-25,-305c0,0,0,-194,26,-309c0,0,26,-114,82,-193c0,0,56,-79,141,-128v-63Z" 
id="f1_w"
transform="scale(0.001,-0.001)" />

<path d="M431,0V33L535,52V499c0,0,0,62,-32,96c0,0,-32,33,-95,33c0,0,-66,0,-163,-22V52L350,33V0H32V33l89,19V649L32,668v33H237l6,-57c0,0,56,32,119,54c0,0,62,22,110,22c0,0,52,0,95,-20c0,0,44,-19,66,-62c0,0,57,32,134,57c0,0,77,25,128,25c0,0,179,0,179,-207V52l90,-19V0H846V33L950,52V499c0,0,0,129,-119,129c0,0,-19,0,-45,-3c0,0,-26,-3,-52,-7c0,0,-25,-4,-49,-8c0,0,-23,-5,-39,-8c0,0,13,-41,13,-89V52L764,33V0Z" 
id="f1_3"
transform="scale(0.001,-0.001)" />

<path d="M49,-325v63c0,0,85,49,140,128c0,0,56,79,83,194c0,0,26,115,26,308c0,0,0,196,-25,305c0,0,-25,109,-79,190c0,0,-54,82,-145,134v63c0,0,149,-80,232,-172c0,0,83,-92,122,-217c0,0,39,-125,39,-303c0,0,0,-177,-39,-303c0,0,-39,-125,-122,-217c0,0,-83,-93,-232,-173Z" 
id="f1_x"
transform="scale(0.001,-0.001)" />

<path d="M585,0V426c0,0,0,54,-8,98c0,0,-8,44,-27,83c0,0,-19,40,-49,66c0,0,-30,26,-77,41c0,0,-47,15,-108,15H66V836H315c0,0,94,0,166,-20c0,0,71,-20,116,-54c0,0,46,-35,75,-88c0,0,28,-52,40,-112c0,0,12,-60,12,-137V0Z" 
id="f0_i"
transform="scale(0.001,-0.001)" />

<path d="M66,0V107H554V452c0,0,0,56,-4,93c0,0,-4,37,-18,75c0,0,-14,38,-40,60c0,0,-26,22,-71,36c0,0,-45,13,-110,13H66V836H312c0,0,91,0,157,-17c0,0,66,-17,109,-49c0,0,44,-32,69,-84c0,0,26,-52,36,-114c0,0,10,-62,10,-147V107H817V0Z" 
id="f0_a"
transform="scale(0.001,-0.001)" />

<path d="M148,-329c0,0,-58,0,-114,13v151H69l24,-71c0,0,23,-17,64,-17c0,0,39,0,72,22c0,0,33,23,60,67c0,0,27,44,68,157L90,649L19,668v33H344V668L233,648L423,158L606,649L497,668v33H758V668L685,652L411,-43c0,0,-48,-124,-84,-177c0,0,-36,-54,-79,-82c0,0,-44,-27,-100,-27Z" 
id="f1_16"
transform="scale(0.001,-0.001)" />

<path d="M284,67c0,0,51,0,88,12c0,0,37,12,74,30V358l-98,-3c0,0,-100,-4,-135,-39c0,0,-35,-35,-35,-117c0,0,0,-132,106,-132ZM233,-14c0,0,-179,0,-179,208c0,0,0,70,27,116c0,0,27,46,87,70c0,0,60,24,173,27l105,3V519c0,0,0,72,-26,107c0,0,-27,34,-82,34c0,0,-75,0,-137,-35L176,538H134V691c0,0,121,26,213,26c0,0,115,0,169,-47c0,0,54,-47,54,-144V52L657,33V0H465L451,70c0,0,-85,-84,-218,-84Z" 
id="f1_4"
transform="scale(0.001,-0.001)" />

<path d="M287,0L589,729H66v386H205V836l547,-1l-2,-82L433,0Z" 
id="f0_3"
transform="scale(0.001,-0.001)" />

<path d="M278,-14c0,0,-52,0,-115,11c0,0,-63,10,-99,23V193H98L134,95c0,0,56,-50,146,-50c0,0,144,0,144,123c0,0,0,91,-114,130l-66,21c0,0,-75,25,-110,50c0,0,-34,26,-53,63c0,0,-18,36,-18,89c0,0,0,92,63,145c0,0,63,54,170,54c0,0,77,0,193,-23V544H454l-32,81c0,0,-39,35,-124,35c0,0,-61,0,-92,-30c0,0,-32,-30,-32,-80c0,0,0,-43,29,-72c0,0,28,-29,86,-48c0,0,110,-38,144,-55c0,0,33,-17,57,-42c0,0,23,-25,36,-57c0,0,13,-32,13,-79c0,0,0,-104,-66,-158c0,0,-66,-53,-195,-53Z" 
id="f1_5"
transform="scale(0.001,-0.001)" />

<path d="M249,-14c0,0,-71,0,-107,42c0,0,-35,42,-35,119V639H15v33l93,29l76,159h47V701H391V639H231V161c0,0,0,-48,22,-73c0,0,22,-24,57,-24c0,0,44,0,106,12V26C416,26,389,8,340,-2c0,0,-49,-12,-91,-12Z" 
id="f1_e"
transform="scale(0.001,-0.001)" />

<path d="M139,0V138c0,0,0,61,8,112c0,0,7,52,19,87c0,0,11,36,30,66c0,0,19,31,35,49c0,0,17,19,41,35c0,0,25,17,41,25c0,0,17,7,40,17L141,836H303L613,388c0,0,20,10,33,18c0,0,13,8,34,28c0,0,20,20,33,44c0,0,13,25,22,66c0,0,10,41,10,92V836H882V698c0,0,0,-61,-7,-112c0,0,-6,-52,-18,-88c0,0,-12,-36,-30,-66c0,0,-19,-30,-36,-49c0,0,-17,-18,-41,-34c0,0,-24,-17,-40,-25c0,0,-17,-8,-41,-17L882,0H720L409,448c0,0,-21,-11,-34,-19c0,0,-13,-8,-34,-27c0,0,-21,-20,-34,-44c0,0,-12,-25,-22,-66c0,0,-9,-41,-9,-92V0Z" 
id="f0_8"
transform="scale(0.001,-0.001)" />

<path d="M0,-141L388,1114H514L127,-141Z" 
id="f0_10"
transform="scale(0.001,-0.001)" />

<path d="M495,0V729H66V836H781V729H634V0Z" 
id="f0_f"
transform="scale(0.001,-0.001)" />

<path d="M114,0l60,312c0,0,2,12,8,39c0,0,6,27,7,37c0,0,2,11,5,30c0,0,2,19,4,33c0,0,1,15,1,31c0,0,0,48,-35,146c0,0,-35,98,-98,208H228c0,0,3,-8,27,-67c0,0,25,-58,41,-117c0,0,21,53,50,90c0,0,29,37,57,57c0,0,29,21,65,32c0,0,37,11,65,14c0,0,28,3,67,3c0,0,300,0,300,-396V0H480V106H761V452c0,0,0,146,-46,215c0,0,-45,70,-118,70c0,0,-134,0,-198,-119c0,0,-36,-68,-67,-222c0,0,-2,-10,-6,-27L253,0Z" 
id="f0_5"
transform="scale(0.001,-0.001)" />

<path d="M383,64c0,0,85,0,152,28V645c0,0,-67,13,-152,13c0,0,-194,0,-194,-314c0,0,0,-141,48,-211c0,0,48,-69,146,-69ZM342,-14c0,0,-287,0,-287,358c0,0,0,184,82,280c0,0,81,96,239,96c0,0,81,0,163,-18c0,0,-4,25,-4,124v182l-118,18v34H659V52L745,33V0H548l-9,52c0,0,-84,-66,-197,-66Z" 
id="f1_m"
transform="scale(0.001,-0.001)" />

<path d="M439,0V33l93,19V500c0,0,0,62,-30,97c0,0,-31,36,-94,36c0,0,-67,0,-165,-22V52L338,33V0H35V33l84,19V649L35,668v33H235l7,-57c0,0,57,33,122,54c0,0,65,22,108,22c0,0,91,0,137,-53c0,0,47,-53,47,-154V52L741,33V0Z" 
id="f1_a"
transform="scale(0.001,-0.001)" />

<path d="M152,0V473c0,0,0,94,28,161c0,0,29,66,71,95H66V836H463V729H404c0,0,-65,0,-89,-57c0,0,-25,-58,-25,-199V0Z" 
id="f0_r"
transform="scale(0.001,-0.001)" />

<path d="M41,0V34L426,641H261c0,0,-42,0,-80,-7c0,0,-39,-7,-54,-19L104,515H69V701H586V665L201,60H407c0,0,42,0,89,10c0,0,47,10,66,25l39,147h35L617,0Z" 
id="f1_10"
transform="scale(0.001,-0.001)" />

<path d="M382,45c0,0,188,0,188,314c0,0,0,143,-47,213c0,0,-46,69,-141,69c0,0,-87,0,-146,-24V58c0,0,67,-13,146,-13ZM25,-325v35l88,18V649L34,668v33H231l1,-41c0,0,31,27,84,43c0,0,53,17,107,17c0,0,134,0,208,-94c0,0,73,-93,73,-267c0,0,0,-178,-80,-276c0,0,-80,-97,-232,-97c0,0,-84,0,-160,16c0,0,4,-53,4,-84V-272l123,-18v-35Z" 
id="f1_j"
transform="scale(0.001,-0.001)" />

<path d="M31,0V33l88,19V649L31,668v33H235l7,-87c0,0,44,37,121,71c0,0,76,35,121,35h11V530H463l-43,82c0,0,-37,0,-88,-10c0,0,-52,-10,-89,-26V52L363,33V0Z" 
id="f1_f"
transform="scale(0.001,-0.001)" />

<path d="M442,0V33l93,19V504c0,0,0,129,-124,129c0,0,-70,0,-168,-22V52L338,33V0H31V33l88,19v956L15,1026v34H243V756c0,0,0,-77,-5,-112c0,0,54,31,122,53c0,0,68,23,115,23c0,0,91,0,137,-53c0,0,47,-53,47,-154V52L744,33V0Z" 
id="f1_11"
transform="scale(0.001,-0.001)" />

<path d="M139,0V106H400c0,0,176,0,253,71c0,0,78,72,78,250c0,0,0,163,-80,233c0,0,-81,69,-250,69H278L277,564c0,0,-1,-54,26,-80c0,0,27,-25,82,-25c0,0,30,0,80,9V355c0,0,-61,-12,-111,-12c0,0,-100,0,-157,55c0,0,-58,55,-58,186V836H456c0,0,193,0,303,-109c0,0,110,-109,110,-309c0,0,0,-200,-110,-309C759,109,648,0,456,0Z" 
id="f0_c"
transform="scale(0.001,-0.001)" />

<path d="M64,-325c0,0,-46,0,-107,14v148H-8l19,-81c0,0,25,-21,62,-21c0,0,44,0,67,47c0,0,22,47,22,152V649L57,668v33H286V-28c0,0,0,-146,-57,-221c0,0,-56,-76,-165,-76ZM213,850c0,0,-34,0,-58,24c0,0,-24,24,-24,56c0,0,0,34,24,58c0,0,24,24,58,24c0,0,32,0,56,-24c0,0,24,-24,24,-58c0,0,0,-32,-24,-56c0,0,-24,-24,-56,-24Z" 
id="f1_u"
transform="scale(0.001,-0.001)" />

<path d="M289,-14c0,0,-179,0,-179,205V649L20,668v33H233V200c0,0,0,-128,120,-128c0,0,92,0,173,23V649L420,668v33H649V52L738,34V0H533l-6,57C527,57,474,28,405,6c0,0,-69,-20,-116,-20Zm24,849v24l147,203H618v-27L354,835Z" 
id="f1_y"
transform="scale(0.001,-0.001)" />

<path d="M0,-14L351,1007h73L75,-14Z" 
id="f1_n"
transform="scale(0.001,-0.001)" />

<path d="M64,0V34L168,59V639H47v36l121,29v49c0,0,0,155,61,239c0,0,62,84,173,84c0,0,58,0,107,-15V908H472l-33,92c0,0,-26,16,-62,16c0,0,-47,0,-66,-42c0,0,-19,-42,-19,-157V701H478V639H292V59L443,34V0Z" 
id="f1_c"
transform="scale(0.001,-0.001)" />

<path d="M736,107V473c0,0,0,147,-48,202c0,0,-49,54,-187,54H278V107ZM139,0V836H499c0,0,105,0,177,-22c0,0,72,-21,116,-69c0,0,44,-49,64,-119c0,0,19,-71,19,-174V0Z" 
id="f0_h"
transform="scale(0.001,-0.001)" />

<path d="M138,-7c0,0,-34,0,-72,10V129c0,0,25,-8,52,-8c0,0,33,0,58,5c0,0,26,5,58,24c0,0,33,20,53,54c0,0,21,34,36,97c0,0,15,64,15,151c0,0,0,113,-19,173c0,0,-19,60,-56,82c0,0,-38,22,-107,22H89V836h72c0,0,165,0,240,-91c0,0,76,-91,76,-293c0,0,0,-107,26,-227c0,0,25,-119,83,-225H437c0,0,-43,101,-62,184c0,0,-24,-60,-51,-99c0,0,-26,-38,-56,-58C268,27,239,7,209,0c0,0,-30,-7,-71,-7Z" 
id="f0_11"
transform="scale(0.001,-0.001)" />

<path d="M377,44c0,0,99,0,147,73c0,0,47,73,47,237c0,0,0,161,-47,234c0,0,-47,72,-147,72c0,0,-97,0,-141,-69c0,0,-44,-70,-44,-237c0,0,0,-169,45,-239c0,0,44,-71,140,-71Zm0,-58c0,0,-158,0,-238,94c0,0,-81,95,-81,274c0,0,0,178,81,272c0,0,80,94,244,94c0,0,160,0,241,-92c0,0,82,-92,82,-274c0,0,0,-368,-329,-368ZM301,835v24l147,203H606v-27L342,835Z" 
id="f1_z"
transform="scale(0.001,-0.001)" />

<path d="M180,0L66,836H203L258,443c0,0,36,1,64,6c0,0,28,6,49,18c0,0,20,12,35,26c0,0,15,13,26,36c0,0,11,24,17,44c0,0,7,20,12,55c0,0,6,34,9,60c0,0,3,26,8,71c0,0,4,45,9,77H610c0,0,-13,-194,-31,-271c0,0,-31,-127,-111,-179c0,0,-71,-45,-196,-50L304,107c0,0,73,0,130,5c0,0,56,6,111,21c0,0,54,15,94,40c0,0,40,25,77,64c0,0,37,39,63,94c0,0,25,54,46,128c0,0,21,73,34,166c0,0,13,94,20,211h138c0,0,-14,-124,-29,-218c0,0,-16,-94,-39,-179c0,0,-22,-85,-50,-146c0,0,-28,-61,-68,-112c0,0,-39,-51,-87,-84C744,97,696,65,632,42C632,42,568,19,492,10C492,10,417,0,320,0Z" 
id="f0_b"
transform="scale(0.001,-0.001)" />

<path d="M71,-141V-15L289,62L66,836H210L416,109c0,0,99,42,153,98c0,0,53,56,80,155c0,0,26,98,26,262V836H817V624c0,0,0,-88,-7,-154c0,0,-7,-67,-25,-132c0,0,-18,-66,-51,-116c0,0,-33,-51,-84,-98c0,0,-50,-48,-123,-87c0,0,-72,-39,-169,-74L71,-141Z" 
id="f0_g"
transform="scale(0.001,-0.001)" />

<path d="M111,0V127c0,0,86,89,234,238c0,0,148,150,186,193c0,0,73,81,101,138c0,0,29,56,29,110c0,0,0,89,-62,145c0,0,-62,56,-162,56c0,0,-71,0,-150,-25c0,0,-78,-24,-168,-75v153c0,0,91,37,170,55c0,0,79,19,145,19c0,0,173,0,276,-86c0,0,103,-87,103,-232c0,0,0,-68,-26,-130c0,0,-26,-61,-94,-145c0,0,-18,-22,-118,-125C575,416,475,313,293,127H818V0Z" 
id="f0_16"
transform="scale(0.001,-0.001)" />

<path d="M486,98c0,0,117,0,175,114c0,0,59,115,59,344c0,0,0,230,-59,344c0,0,-58,115,-175,115c0,0,-117,0,-175,-115c0,0,-59,-114,-59,-344c0,0,0,-229,59,-344c0,0,58,-114,175,-114ZM485,-20c0,0,-187,0,-285,147c0,0,-99,148,-99,429c0,0,0,282,98,430c0,0,99,148,286,148c0,0,188,0,286,-148c0,0,99,-148,99,-430c0,0,0,-281,-99,-429c0,0,-98,-147,-286,-147Z" 
id="f0_t"
transform="scale(0.001,-0.001)" />


</defs>
</svg>