<?xml version="1.0" encoding="UTF-8" standalone="no"?>
<!DOCTYPE svg PUBLIC "-//W3C//DTD SVG 1.1//EN"
"http://www.w3.org/Graphics/SVG/1.1/DTD/svg11.dtd">
<svg viewBox="0 0 909 1286" version="1.1" xmlns="http://www.w3.org/2000/svg" xmlns:xlink="http://www.w3.org/1999/xlink">
<defs>
<clipPath id="c0_2"><path d="M0,1286.2V0H909.4V1286.2Z" /></clipPath>
<style type="text/css"><![CDATA[
.g0_2{
fill: #D8D8D8;
}
.g1_2{
fill: none;
stroke: #000000;
stroke-width: 0.7638889;
stroke-linecap: butt;
stroke-linejoin: round;
}
]]></style>
</defs>
<path fill-rule="evenodd" d="M594,215.6H780v-22H594v22Z" class="g0_2" />
<path fill-rule="evenodd" d="M408.1,215.6H593.9v-22H408.1v22Z" class="g0_2" />
<path fill-rule="evenodd" d="M222,215.6H408v-22H222v22Z" class="g0_2" />
<path fill-rule="evenodd" d="M128.9,215.6h93v-22h-93v22Z" class="g0_2" />
<path fill-rule="evenodd" d="M128.9,235.7h92.9v-20H128.9v20Z" class="g0_2" />
<path fill-rule="evenodd" d="M128.9,255.8h92.9V235.7H128.9v20.1Z" class="g0_2" />
<path fill-rule="evenodd" d="M128.9,275.8h92.9V255.9H128.9v19.9Z" class="g0_2" />
<path fill-rule="evenodd" d="M128.9,296h92.9V275.9H128.9V296Z" class="g0_2" />
<path fill-rule="evenodd" d="M594,215.6H780v-22H594v22Z" class="g0_2" />
<path fill-rule="evenodd" d="M408.1,215.6H593.9v-22H408.1v22Z" class="g0_2" />
<path fill-rule="evenodd" d="M222,215.6H408v-22H222v22Z" class="g0_2" />
<path fill-rule="evenodd" d="M128.9,215.6h93v-22h-93v22Z" class="g0_2" />
<path fill-rule="evenodd" d="M128.9,235.7h92.9v-20H128.9v20Z" class="g0_2" />
<path fill-rule="evenodd" d="M128.9,255.8h92.9V235.7H128.9v20.1Z" class="g0_2" />
<path fill-rule="evenodd" d="M128.9,275.8h92.9V255.9H128.9v19.9Z" class="g0_2" />
<path fill-rule="evenodd" d="M128.9,296h92.9V275.9H128.9V296Z" class="g0_2" />
<g clip-path="url(#c0_2)">
<g fill="#000000" >
<use xlink:href="#f0_e" transform="matrix(12,0,0,12,137.8,127.1)" />
<use xlink:href="#f0_5" transform="matrix(12,0,0,12,150,127.1)" />
<use xlink:href="#f0_2" transform="matrix(12,0,0,12,154.1,127.1)" />
<use xlink:href="#f0_2" transform="matrix(12,0,0,12,164.5,127.1)" />
<use xlink:href="#f0_h" transform="matrix(12,0,0,12,174.9,127.1)" />
<use xlink:href="#f0_a" transform="matrix(12,0,0,12,184.5,127.1)" />
<use xlink:href="#f0_5" transform="matrix(12,0,0,12,203,127.1)" />
<use xlink:href="#f0_j" transform="matrix(12,0,0,12,207.1,127.1)" />
<use xlink:href="#f0_2" transform="matrix(12,0,0,12,218.5,127.1)" />
<use xlink:href="#f0_l" transform="matrix(12,0,0,12,235.4,127.1)" />
<use xlink:href="#f0_7" transform="matrix(12,0,0,12,245.5,127.1)" />
<use xlink:href="#f0_8" transform="matrix(12,0,0,12,250.5,127.1)" />
<use xlink:href="#f0_n" transform="matrix(12,0,0,12,261.1,127.1)" />
<use xlink:href="#f0_2" transform="matrix(12,0,0,12,272.5,127.1)" />
<use xlink:href="#f0_m" transform="matrix(12,0,0,12,289.3,127.1)" />
<use xlink:href="#f0_4" transform="matrix(12,0,0,12,295.1,127.1)" />
<use xlink:href="#f0_c" transform="matrix(12,0,0,12,307.2,127.1)" />
<use xlink:href="#f0_i" transform="matrix(12,0,0,12,319.4,127.1)" />
<use xlink:href="#f0_e" transform="matrix(12,0,0,12,332.3,127.1)" />
<use xlink:href="#f0_n" transform="matrix(12,0,0,12,344.4,127.1)" />
<use xlink:href="#f0_10" transform="matrix(12,0,0,12,362.4,127.1)" />
<use xlink:href="#f0_5" transform="matrix(12,0,0,12,374.1,127.1)" />
<use xlink:href="#f0_l" transform="matrix(12,0,0,12,378.2,127.1)" />
<use xlink:href="#f0_n" transform="matrix(12,0,0,12,388.2,127.1)" />
<use xlink:href="#f0_q" transform="matrix(12,0,0,12,406.2,127.1)" />
<use xlink:href="#f0_5" transform="matrix(12,0,0,12,412,127.1)" />
<use xlink:href="#f0_7" transform="matrix(12,0,0,12,416.1,127.1)" />
<use xlink:href="#f0_7" transform="matrix(12,0,0,12,421.1,127.1)" />
<use xlink:href="#f0_5" transform="matrix(12,0,0,12,426.1,127.1)" />
<use xlink:href="#f0_g" transform="matrix(12,0,0,12,430.2,127.1)" />
<use xlink:href="#f0_a" transform="matrix(12,0,0,12,441.1,127.1)" />
<use xlink:href="#f0_p" transform="matrix(12,0,0,12,459.4,127.1)" />
<use xlink:href="#f0_f" transform="matrix(12,0,0,12,464.4,127.1)" />
<use xlink:href="#f0_i" transform="matrix(12,0,0,12,476.8,127.1)" />
<use xlink:href="#f0_2" transform="matrix(12,0,0,12,489.7,127.1)" />
<use xlink:href="#f0_b" transform="matrix(12,0,0,12,500.1,127.1)" />
<use xlink:href="#f0_4" transform="matrix(12,0,0,12,519.6,127.1)" />
<use xlink:href="#f0_f" transform="matrix(12,0,0,12,531.5,127.1)" />
<use xlink:href="#f0_h" transform="matrix(12,0,0,12,544,127.1)" />
<use xlink:href="#f0_o" transform="matrix(12,0,0,12,553.7,127.1)" />
<use xlink:href="#f0_f" transform="matrix(12,0,0,12,565.6,127.1)" />
<use xlink:href="#f0_a" transform="matrix(12,0,0,12,584.6,127.1)" />
<use xlink:href="#f0_2" transform="matrix(12,0,0,12,596.5,127.1)" />
<use xlink:href="#f0_8" transform="matrix(12,0,0,12,606.9,127.1)" />
<use xlink:href="#f0_t" transform="matrix(12,0,0,12,617.5,127.1)" />
<use xlink:href="#f0_s" transform="matrix(12,0,0,12,635.9,127.1)" />
<use xlink:href="#f0_5" transform="matrix(12,0,0,12,643.4,127.1)" />
<use xlink:href="#f0_g" transform="matrix(12,0,0,12,647.5,127.1)" />
<use xlink:href="#f0_d" transform="matrix(12,0,0,12,658.4,127.1)" />
<use xlink:href="#f0_4" transform="matrix(12,0,0,12,672.2,127.1)" />
<use xlink:href="#f0_7" transform="matrix(12,0,0,12,684.3,127.1)" />
<use xlink:href="#f0_r" transform="matrix(12,0,0,12,689.3,127.1)" />
<use xlink:href="#f0_7" transform="matrix(12,0,0,12,701.2,127.1)" />
<use xlink:href="#f0_d" transform="matrix(12,0,0,12,706.2,127.1)" />
<use xlink:href="#f0_a" transform="matrix(12,0,0,12,713.6,127.1)" />
<use xlink:href="#f0_p" transform="matrix(12,0,0,12,732,127.1)" />
<use xlink:href="#f0_n" transform="matrix(12,0,0,12,737,127.1)" />
<use xlink:href="#f0_f" transform="matrix(12,0,0,12,748.5,127.1)" />
<use xlink:href="#f0_2" transform="matrix(12,0,0,12,760.9,127.1)" />
<use xlink:href="#f0_4" transform="matrix(12,0,0,12,137.7,148.5)" />
<use xlink:href="#f0_9" transform="matrix(12,0,0,12,149.6,148.5)" />
<use xlink:href="#f0_7" transform="matrix(12,0,0,12,159.9,148.5)" />
<use xlink:href="#f0_g" transform="matrix(12,0,0,12,165,148.5)" />
<use xlink:href="#f0_e" transform="matrix(12,0,0,12,184.5,148.5)" />
<use xlink:href="#f0_n" transform="matrix(12,0,0,12,196.6,148.5)" />
<use xlink:href="#f0_a" transform="matrix(12,0,0,12,216.8,148.5)" />
<use xlink:href="#f0_c" transform="matrix(12,0,0,12,228.8,148.5)" />
<use xlink:href="#f0_7" transform="matrix(12,0,0,12,241,148.5)" />
<use xlink:href="#f0_7" transform="matrix(12,0,0,12,246,148.5)" />
<use xlink:href="#f0_b" transform="matrix(12,0,0,12,251,148.5)" />
<use xlink:href="#f0_a" transform="matrix(12,0,0,12,264,148.5)" />
<use xlink:href="#f0_a" transform="matrix(12,0,0,12,275.9,148.5)" />
<use xlink:href="#f0_k" transform="matrix(12,0,0,12,296.5,148.5)" />
<use xlink:href="#f0_5" transform="matrix(12,0,0,12,306.3,148.5)" />
<use xlink:href="#f0_2" transform="matrix(12,0,0,12,310.4,148.5)" />
<use xlink:href="#f0_n" transform="matrix(12,0,0,12,320.8,148.5)" />
<use xlink:href="#f0_2" transform="matrix(12,0,0,12,340.9,148.5)" />
<use xlink:href="#f0_3" transform="matrix(12,0,0,12,351.3,148.5)" />
<use xlink:href="#f0_4" transform="matrix(12,0,0,12,364.3,148.5)" />
<use xlink:href="#f0_p" transform="matrix(12,0,0,12,385,148.5)" />
<use xlink:href="#f0_h" transform="matrix(12,0,0,12,390.1,148.5)" />
<use xlink:href="#f0_b" transform="matrix(12,0,0,12,399.7,148.5)" />
<use xlink:href="#f0_m" transform="matrix(12,0,0,12,421.5,148.5)" />
<use xlink:href="#f0_a" transform="matrix(12,0,0,12,427.3,148.5)" />
<use xlink:href="#f0_2" transform="matrix(12,0,0,12,439.2,148.5)" />
<use xlink:href="#f0_8" transform="matrix(12,0,0,12,449.6,148.5)" />
<use xlink:href="#f0_t" transform="matrix(12,0,0,12,460.2,148.5)" />
<use xlink:href="#f0_a" transform="matrix(12,0,0,12,472.1,148.5)" />
<use xlink:href="#f0_e" transform="matrix(12,0,0,12,492.5,148.5)" />
<use xlink:href="#f0_n" transform="matrix(12,0,0,12,504.7,148.5)" />
<use xlink:href="#f0_a" transform="matrix(12,0,0,12,524.8,148.5)" />
<use xlink:href="#f0_l" transform="matrix(12,0,0,12,536.8,148.5)" />
<use xlink:href="#f0_7" transform="matrix(12,0,0,12,546.8,148.5)" />
<use xlink:href="#f0_8" transform="matrix(12,0,0,12,551.8,148.5)" />
<use xlink:href="#f0_n" transform="matrix(12,0,0,12,562.4,148.5)" />
<use xlink:href="#f0_4" transform="matrix(12,0,0,12,582.5,148.5)" />
<use xlink:href="#f0_7" transform="matrix(12,0,0,12,594.4,148.5)" />
<use xlink:href="#f0_n" transform="matrix(12,0,0,12,599.5,148.5)" />
<use xlink:href="#f0_g" transform="matrix(12,0,0,12,610.9,148.5)" />
<use xlink:href="#f0_f" transform="matrix(12,0,0,12,621.8,148.5)" />
<use xlink:href="#f0_c" transform="matrix(12,0,0,12,634.3,148.5)" />
<use xlink:href="#f0_8" transform="matrix(12,0,0,12,646.5,148.5)" />
<use xlink:href="#f0_c" transform="matrix(12,0,0,12,665.7,148.5)" />
<use xlink:href="#f0_2" transform="matrix(12,0,0,12,677.9,148.5)" />
<use xlink:href="#f0_7" transform="matrix(12,0,0,12,688.3,148.5)" />
<use xlink:href="#f0_e" transform="matrix(12,0,0,12,702,148.5)" />
<use xlink:href="#f0_5" transform="matrix(12,0,0,12,714.3,148.5)" />
<use xlink:href="#f0_t" transform="matrix(12,0,0,12,718.2,148.5)" />
<use xlink:href="#f0_7" transform="matrix(12,0,0,12,730.1,148.5)" />
<use xlink:href="#f0_b" transform="matrix(12,0,0,12,735.2,148.5)" />
<use xlink:href="#f0_j" transform="matrix(12,0,0,12,748.1,148.5)" />
<use xlink:href="#f0_a" transform="matrix(12,0,0,12,759.6,148.5)" />
<use xlink:href="#f0_q" transform="matrix(12,0,0,12,641.4,169.9)" />
<use xlink:href="#f0_4" transform="matrix(12,0,0,12,647.2,169.9)" />
<use xlink:href="#f0_5" transform="matrix(12,0,0,12,659.1,169.9)" />
<use xlink:href="#f0_9" transform="matrix(12,0,0,12,663.2,169.9)" />
<use xlink:href="#f0_7" transform="matrix(12,0,0,12,673.6,169.9)" />
<use xlink:href="#f0_3" transform="matrix(12,0,0,12,678.6,169.9)" />
<use xlink:href="#f0_f" transform="matrix(12,0,0,12,691.6,169.9)" />
<use xlink:href="#f0_a" transform="matrix(12,0,0,12,704.1,169.9)" />
<use xlink:href="#f0_2" transform="matrix(12,0,0,12,721.8,169.9)" />
<use xlink:href="#f0_n" transform="matrix(12,0,0,12,732.2,169.9)" />
<use xlink:href="#f0_7" transform="matrix(12,0,0,12,743.7,169.9)" />
<use xlink:href="#f0_j" transform="matrix(12,0,0,12,748.7,169.9)" />
<use xlink:href="#f0_a" transform="matrix(12,0,0,12,760.1,169.9)" />
</g>
</g>
<path d="M128.6,194H780.5M128.6,216.1H780.5m-651.9,20H780.5M128.6,256.3H780.5m-651.9,20H780.5M128.6,296.5H780.5M128.9,193.6V296.8m92.9,-81.1v81.1M222,193.6v22.9m92.9,-.8v81.1m93,-81.1v81.1m.2,-103.2v22.9m92.9,-.8v81.1m93,-81.1v81.1m0,-103.2v22.9m93,-.8v81.1M780.1,193.6V296.8" class="g1_2" />
<g clip-path="url(#c0_2)">
<g fill="#000000" >
<use xlink:href="#f0_13" transform="matrix(12,0,0,12,674.5,211.3)" />
<use xlink:href="#f0_r" transform="matrix(12,0,0,12,687,211.3)" />
<use xlink:href="#f0_7" transform="matrix(12,0,0,12,698.9,211.3)" />
<use xlink:href="#f0_4" transform="matrix(12,0,0,12,703.8,211.3)" />
<use xlink:href="#f0_j" transform="matrix(12,0,0,12,715.9,211.3)" />
<use xlink:href="#f0_2" transform="matrix(12,0,0,12,727.3,211.3)" />
<use xlink:href="#f1_b" transform="matrix(11,0,0,11,636.6,211.3)" />
<use xlink:href="#f1_v" transform="matrix(11,0,0,11,644.1,211.3)" />
<use xlink:href="#f1_h" transform="matrix(11,0,0,11,652.5,211.3)" />
<use xlink:href="#f1_j" transform="matrix(11,0,0,11,658,211.3)" />
<use xlink:href="#f1_h" transform="matrix(11,0,0,11,662.7,211.3)" />
<use xlink:href="#f0_13" transform="matrix(12,0,0,12,486.8,211.3)" />
<use xlink:href="#f0_p" transform="matrix(12,0,0,12,499.1,211.3)" />
<use xlink:href="#f0_5" transform="matrix(12,0,0,12,504.2,211.3)" />
<use xlink:href="#f0_f" transform="matrix(12,0,0,12,508.3,211.3)" />
<use xlink:href="#f0_c" transform="matrix(12,0,0,12,520.8,211.3)" />
<use xlink:href="#f0_a" transform="matrix(12,0,0,12,533,211.3)" />
<use xlink:href="#f0_2" transform="matrix(12,0,0,12,544.9,211.3)" />
<use xlink:href="#f1_i" transform="matrix(11,0,0,11,447,211.3)" />
<use xlink:href="#f1_h" transform="matrix(11,0,0,11,454.5,211.3)" />
<use xlink:href="#f1_c" transform="matrix(11,0,0,11,460.1,211.3)" />
<use xlink:href="#f1_c" transform="matrix(11,0,0,11,467.4,211.3)" />
<use xlink:href="#f1_h" transform="matrix(11,0,0,11,474.9,211.3)" />
<use xlink:href="#f0_13" transform="matrix(12,0,0,12,305.6,211.3)" />
<use xlink:href="#f0_4" transform="matrix(12,0,0,12,317.9,211.3)" />
<use xlink:href="#f0_4" transform="matrix(12,0,0,12,330,211.3)" />
<use xlink:href="#f0_2" transform="matrix(12,0,0,12,342,211.3)" />
<use xlink:href="#f1_8" transform="matrix(11,0,0,11,278.1,211.3)" />
<use xlink:href="#f1_b" transform="matrix(11,0,0,11,286.5,211.3)" />
<use xlink:href="#f1_h" transform="matrix(11,0,0,11,293.8,211.3)" />
<use xlink:href="#f1_e" transform="matrix(11,0,0,11,695.8,232.1)" />
<use xlink:href="#f1_f" transform="matrix(11,0,0,11,704.2,232.1)" />
<use xlink:href="#f1_b" transform="matrix(11,0,0,11,716.8,232.1)" />
<use xlink:href="#f1_v" transform="matrix(11,0,0,11,724.3,232.1)" />
<use xlink:href="#f1_h" transform="matrix(11,0,0,11,732.5,232.1)" />
<use xlink:href="#f2_e" transform="matrix(11,0,0,11,738.2,232.1)" />
<use xlink:href="#f2_d" transform="matrix(11,0,0,11,746.6,232.1)" />
<use xlink:href="#f2_l" transform="matrix(11,0,0,11,753.2,232.1)" />
<use xlink:href="#f1_b" transform="matrix(11,0,0,11,602.7,232.1)" />
<use xlink:href="#f1_v" transform="matrix(11,0,0,11,610.2,232.1)" />
<use xlink:href="#f1_h" transform="matrix(11,0,0,11,618.6,232.1)" />
<use xlink:href="#f2_f" transform="matrix(11,0,0,11,624.3,232.1)" />
<use xlink:href="#f2_l" transform="matrix(11,0,0,11,631.6,232.1)" />
<use xlink:href="#f1_e" transform="matrix(11,0,0,11,509.7,232.1)" />
<use xlink:href="#f1_f" transform="matrix(11,0,0,11,518.1,232.1)" />
<use xlink:href="#f1_i" transform="matrix(11,0,0,11,530.7,232.1)" />
<use xlink:href="#f1_h" transform="matrix(11,0,0,11,538.1,232.1)" />
<use xlink:href="#f1_c" transform="matrix(11,0,0,11,543.7,232.1)" />
<use xlink:href="#f2_e" transform="matrix(11,0,0,11,551.2,232.1)" />
<use xlink:href="#f2_d" transform="matrix(11,0,0,11,559.6,232.1)" />
<use xlink:href="#f2_l" transform="matrix(11,0,0,11,566.2,232.1)" />
<use xlink:href="#f1_i" transform="matrix(11,0,0,11,416.6,232.1)" />
<use xlink:href="#f1_h" transform="matrix(11,0,0,11,424.1,232.1)" />
<use xlink:href="#f1_c" transform="matrix(11,0,0,11,429.7,232.1)" />
<use xlink:href="#f2_f" transform="matrix(11,0,0,11,437.3,232.1)" />
<use xlink:href="#f2_l" transform="matrix(11,0,0,11,444.6,232.1)" />
<use xlink:href="#f1_e" transform="matrix(11,0,0,11,323.6,232.1)" />
<use xlink:href="#f1_f" transform="matrix(11,0,0,11,332,232.1)" />
<use xlink:href="#f1_8" transform="matrix(11,0,0,11,344.7,232.1)" />
<use xlink:href="#f2_f" transform="matrix(11,0,0,11,353.1,232.1)" />
<use xlink:href="#f2_d" transform="matrix(11,0,0,11,360.4,232.1)" />
<use xlink:href="#f2_l" transform="matrix(11,0,0,11,367,232.1)" />
<use xlink:href="#f1_8" transform="matrix(11,0,0,11,230.5,232.1)" />
<use xlink:href="#f2_e" transform="matrix(11,0,0,11,238.9,232.1)" />
<use xlink:href="#f2_l" transform="matrix(11,0,0,11,247.3,232.1)" />
<use xlink:href="#f1_2" transform="matrix(11,0,0,11,137.7,232.1)" />
<use xlink:href="#f1_3" transform="matrix(11,0,0,11,142.4,232.1)" />
<use xlink:href="#f1_e" transform="matrix(11,0,0,11,695.8,252.2)" />
<use xlink:href="#f1_f" transform="matrix(11,0,0,11,704.2,252.2)" />
<use xlink:href="#f1_b" transform="matrix(11,0,0,11,716.8,252.2)" />
<use xlink:href="#f1_v" transform="matrix(11,0,0,11,724.3,252.2)" />
<use xlink:href="#f1_h" transform="matrix(11,0,0,11,732.5,252.2)" />
<use xlink:href="#f2_e" transform="matrix(11,0,0,11,738.2,252.2)" />
<use xlink:href="#f2_l" transform="matrix(11,0,0,11,746.6,252.2)" />
<use xlink:href="#f1_b" transform="matrix(11,0,0,11,602.7,252.2)" />
<use xlink:href="#f1_v" transform="matrix(11,0,0,11,610.2,252.2)" />
<use xlink:href="#f1_h" transform="matrix(11,0,0,11,618.6,252.2)" />
<use xlink:href="#f2_e" transform="matrix(11,0,0,11,624.3,252.2)" />
<use xlink:href="#f2_l" transform="matrix(11,0,0,11,632.5,252.2)" />
<use xlink:href="#f1_e" transform="matrix(11,0,0,11,509.7,252.2)" />
<use xlink:href="#f1_f" transform="matrix(11,0,0,11,518.1,252.2)" />
<use xlink:href="#f1_i" transform="matrix(11,0,0,11,530.7,252.2)" />
<use xlink:href="#f1_h" transform="matrix(11,0,0,11,538.1,252.2)" />
<use xlink:href="#f1_c" transform="matrix(11,0,0,11,543.7,252.2)" />
<use xlink:href="#f2_e" transform="matrix(11,0,0,11,551.2,252.2)" />
<use xlink:href="#f2_l" transform="matrix(11,0,0,11,559.6,252.2)" />
<use xlink:href="#f1_i" transform="matrix(11,0,0,11,416.6,252.2)" />
<use xlink:href="#f1_h" transform="matrix(11,0,0,11,424.1,252.2)" />
<use xlink:href="#f1_c" transform="matrix(11,0,0,11,429.7,252.2)" />
<use xlink:href="#f2_e" transform="matrix(11,0,0,11,437.3,252.2)" />
<use xlink:href="#f2_l" transform="matrix(11,0,0,11,445.5,252.2)" />
<use xlink:href="#f1_e" transform="matrix(11,0,0,11,323.6,252.2)" />
<use xlink:href="#f1_f" transform="matrix(11,0,0,11,332,252.2)" />
<use xlink:href="#f1_8" transform="matrix(11,0,0,11,344.7,252.2)" />
<use xlink:href="#f2_a" transform="matrix(11,0,0,11,353.1,252.2)" />
<use xlink:href="#f2_l" transform="matrix(11,0,0,11,360.4,252.2)" />
<use xlink:href="#f1_8" transform="matrix(11,0,0,11,230.5,252.2)" />
<use xlink:href="#f2_a" transform="matrix(11,0,0,11,238.9,252.2)" />
<use xlink:href="#f2_l" transform="matrix(11,0,0,11,246.4,252.2)" />
<use xlink:href="#f1_o" transform="matrix(11,0,0,11,137.7,252.2)" />
<use xlink:href="#f1_9" transform="matrix(11,0,0,11,146.1,252.2)" />
<use xlink:href="#f1_2" transform="matrix(11,0,0,11,152.6,252.2)" />
<use xlink:href="#f1_c" transform="matrix(11,0,0,11,157.3,252.2)" />
<use xlink:href="#f1_8" transform="matrix(11,0,0,11,164.8,252.2)" />
<use xlink:href="#f1_e" transform="matrix(11,0,0,11,695.8,272.3)" />
<use xlink:href="#f1_f" transform="matrix(11,0,0,11,704.2,272.3)" />
<use xlink:href="#f1_b" transform="matrix(11,0,0,11,716.8,272.3)" />
<use xlink:href="#f1_v" transform="matrix(11,0,0,11,724.3,272.3)" />
<use xlink:href="#f1_h" transform="matrix(11,0,0,11,732.5,272.3)" />
<use xlink:href="#f2_e" transform="matrix(11,0,0,11,738.2,272.3)" />
<use xlink:href="#f2_o" transform="matrix(11,0,0,11,746.6,272.3)" />
<use xlink:href="#f2_l" transform="matrix(11,0,0,11,756,272.3)" />
<use xlink:href="#f1_b" transform="matrix(11,0,0,11,602.7,272.3)" />
<use xlink:href="#f1_v" transform="matrix(11,0,0,11,610.2,272.3)" />
<use xlink:href="#f1_h" transform="matrix(11,0,0,11,618.6,272.3)" />
<use xlink:href="#f2_e" transform="matrix(11,0,0,11,624.3,272.3)" />
<use xlink:href="#f2_o" transform="matrix(11,0,0,11,632.7,272.3)" />
<use xlink:href="#f2_l" transform="matrix(11,0,0,11,642,272.3)" />
<use xlink:href="#f1_e" transform="matrix(11,0,0,11,509.7,272.3)" />
<use xlink:href="#f1_f" transform="matrix(11,0,0,11,518.1,272.3)" />
<use xlink:href="#f1_i" transform="matrix(11,0,0,11,530.7,272.3)" />
<use xlink:href="#f1_h" transform="matrix(11,0,0,11,538.1,272.3)" />
<use xlink:href="#f1_c" transform="matrix(11,0,0,11,543.7,272.3)" />
<use xlink:href="#f2_e" transform="matrix(11,0,0,11,551.2,272.3)" />
<use xlink:href="#f2_o" transform="matrix(11,0,0,11,559.6,272.3)" />
<use xlink:href="#f2_l" transform="matrix(11,0,0,11,569,272.3)" />
<use xlink:href="#f1_i" transform="matrix(11,0,0,11,416.6,272.3)" />
<use xlink:href="#f1_h" transform="matrix(11,0,0,11,424.1,272.3)" />
<use xlink:href="#f1_c" transform="matrix(11,0,0,11,429.7,272.3)" />
<use xlink:href="#f2_e" transform="matrix(11,0,0,11,437.3,272.3)" />
<use xlink:href="#f2_o" transform="matrix(11,0,0,11,445.7,272.3)" />
<use xlink:href="#f2_l" transform="matrix(11,0,0,11,455,272.3)" />
<use xlink:href="#f1_e" transform="matrix(11,0,0,11,323.6,272.3)" />
<use xlink:href="#f1_f" transform="matrix(11,0,0,11,332,272.3)" />
<use xlink:href="#f1_8" transform="matrix(11,0,0,11,344.7,272.3)" />
<use xlink:href="#f2_f" transform="matrix(11,0,0,11,353.1,272.3)" />
<use xlink:href="#f2_o" transform="matrix(11,0,0,11,360.5,272.3)" />
<use xlink:href="#f2_l" transform="matrix(11,0,0,11,369.7,272.3)" />
<use xlink:href="#f1_8" transform="matrix(11,0,0,11,230.5,272.3)" />
<use xlink:href="#f2_f" transform="matrix(11,0,0,11,238.9,272.3)" />
<use xlink:href="#f2_o" transform="matrix(11,0,0,11,246.4,272.3)" />
<use xlink:href="#f2_l" transform="matrix(11,0,0,11,255.7,272.3)" />
<use xlink:href="#f1_o" transform="matrix(11,0,0,11,137.7,272.3)" />
<use xlink:href="#f1_9" transform="matrix(11,0,0,11,146.1,272.3)" />
<use xlink:href="#f1_2" transform="matrix(11,0,0,11,152.6,272.3)" />
<use xlink:href="#f1_c" transform="matrix(11,0,0,11,157.3,272.3)" />
<use xlink:href="#f1_8" transform="matrix(11,0,0,11,164.8,272.3)" />
<use xlink:href="#f1_c" transform="matrix(11,0,0,11,173,272.3)" />
<use xlink:href="#f1_9" transform="matrix(11,0,0,11,180.5,272.3)" />
<use xlink:href="#f1_e" transform="matrix(11,0,0,11,695.8,292.4)" />
<use xlink:href="#f1_f" transform="matrix(11,0,0,11,704.2,292.4)" />
<use xlink:href="#f1_b" transform="matrix(11,0,0,11,716.8,292.4)" />
<use xlink:href="#f1_v" transform="matrix(11,0,0,11,724.3,292.4)" />
<use xlink:href="#f1_h" transform="matrix(11,0,0,11,732.5,292.4)" />
<use xlink:href="#f1_w" transform="matrix(11,0,0,11,738.2,292.4)" />
<use xlink:href="#f1_j" transform="matrix(11,0,0,11,745.6,292.4)" />
<use xlink:href="#f1_9" transform="matrix(11,0,0,11,750.4,292.4)" />
<use xlink:href="#f1_x" transform="matrix(11,0,0,11,756.8,292.4)" />
<use xlink:href="#f1_b" transform="matrix(11,0,0,11,602.7,292.4)" />
<use xlink:href="#f1_v" transform="matrix(11,0,0,11,610.2,292.4)" />
<use xlink:href="#f1_h" transform="matrix(11,0,0,11,618.6,292.4)" />
<use xlink:href="#f1_j" transform="matrix(11,0,0,11,624.1,292.4)" />
<use xlink:href="#f1_8" transform="matrix(11,0,0,11,628.8,292.4)" />
<use xlink:href="#f1_x" transform="matrix(11,0,0,11,637.2,292.4)" />
<use xlink:href="#f1_e" transform="matrix(11,0,0,11,509.7,292.4)" />
<use xlink:href="#f1_f" transform="matrix(11,0,0,11,518.1,292.4)" />
<use xlink:href="#f1_i" transform="matrix(11,0,0,11,530.7,292.4)" />
<use xlink:href="#f1_h" transform="matrix(11,0,0,11,538.1,292.4)" />
<use xlink:href="#f1_c" transform="matrix(11,0,0,11,543.7,292.4)" />
<use xlink:href="#f1_w" transform="matrix(11,0,0,11,551.2,292.4)" />
<use xlink:href="#f1_j" transform="matrix(11,0,0,11,558.6,292.4)" />
<use xlink:href="#f1_9" transform="matrix(11,0,0,11,563.2,292.4)" />
<use xlink:href="#f1_x" transform="matrix(11,0,0,11,569.8,292.4)" />
<use xlink:href="#f1_i" transform="matrix(11,0,0,11,416.6,292.4)" />
<use xlink:href="#f1_h" transform="matrix(11,0,0,11,424.1,292.4)" />
<use xlink:href="#f1_c" transform="matrix(11,0,0,11,429.7,292.4)" />
<use xlink:href="#f1_c" transform="matrix(11,0,0,11,437,292.4)" />
<use xlink:href="#f1_8" transform="matrix(11,0,0,11,444.5,292.4)" />
<use xlink:href="#f1_x" transform="matrix(11,0,0,11,452.9,292.4)" />
<use xlink:href="#f1_e" transform="matrix(11,0,0,11,323.6,292.4)" />
<use xlink:href="#f1_f" transform="matrix(11,0,0,11,332,292.4)" />
<use xlink:href="#f1_8" transform="matrix(11,0,0,11,344.7,292.4)" />
<use xlink:href="#f1_y" transform="matrix(11,0,0,11,353.1,292.4)" />
<use xlink:href="#f1_j" transform="matrix(11,0,0,11,360.4,292.4)" />
<use xlink:href="#f1_9" transform="matrix(11,0,0,11,365.1,292.4)" />
<use xlink:href="#f1_x" transform="matrix(11,0,0,11,371.7,292.4)" />
<use xlink:href="#f1_8" transform="matrix(11,0,0,11,230.5,292.4)" />
<use xlink:href="#f1_b" transform="matrix(11,0,0,11,238.9,292.4)" />
<use xlink:href="#f1_8" transform="matrix(11,0,0,11,246.4,292.4)" />
<use xlink:href="#f1_x" transform="matrix(11,0,0,11,254.8,292.4)" />
<use xlink:href="#f1_z" transform="matrix(11,0,0,11,137.7,292.4)" />
<use xlink:href="#f1_f" transform="matrix(11,0,0,11,146.1,292.4)" />
<use xlink:href="#f1_9" transform="matrix(11,0,0,11,154.5,292.4)" />
<use xlink:href="#f1_f" transform="matrix(11,0,0,11,161,292.4)" />
<use xlink:href="#f1_2" transform="matrix(11,0,0,11,169.4,292.4)" />
<use xlink:href="#f1_h" transform="matrix(11,0,0,11,174,292.4)" />
<use xlink:href="#f1_f" transform="matrix(11,0,0,11,179.6,292.4)" />
<use xlink:href="#f1_9" transform="matrix(11,0,0,11,188,292.4)" />
<use xlink:href="#f0_14" transform="matrix(11,0,0,11,137.5,1208.9)" />
</g>
</g>
<defs>
<path d="M736,107V473c0,0,0,147,-48,202c0,0,-49,54,-187,54H278V107ZM139,0V836H499c0,0,105,0,177,-22c0,0,72,-21,116,-69c0,0,44,-49,64,-119c0,0,19,-71,19,-174V0Z" 
id="f0_e"
transform="scale(0.001,-0.001)" />

<path d="M102,312V836H241V369L102,312Z" 
id="f0_5"
transform="scale(0.001,-0.001)" />

<path d="M287,0L589,729H66v386H205V836l547,-1l-2,-82L433,0Z" 
id="f0_2"
transform="scale(0.001,-0.001)" />

<path d="M66,0V106H322c0,0,75,0,127,23c0,0,53,23,82,67c0,0,29,43,42,98c0,0,13,54,13,124c0,0,0,70,-13,124c0,0,-13,55,-42,98c0,0,-29,44,-82,67c0,0,-52,23,-127,23H66V836H322c0,0,87,0,157,-24c0,0,70,-24,115,-64c0,0,45,-40,74,-94c0,0,30,-55,43,-113c0,0,13,-59,13,-123c0,0,0,-64,-13,-123c0,0,-13,-58,-43,-113c0,0,-29,-54,-74,-94C594,88,549,48,479,24C479,24,409,0,322,0Z" 
id="f0_h"
transform="scale(0.001,-0.001)" />

<path d="M154,0V454l138,56V0ZM722,0V454c0,0,0,161,-49,218c0,0,-48,57,-186,57H139V836H485c0,0,207,0,291,-93c0,0,83,-94,83,-318V0Z" 
id="f0_a"
transform="scale(0.001,-0.001)" />

<path d="M139,0V106H400c0,0,176,0,253,71c0,0,78,72,78,250c0,0,0,163,-80,233c0,0,-81,69,-250,69H278L277,564c0,0,-1,-54,26,-80c0,0,27,-25,82,-25c0,0,30,0,80,9V355c0,0,-61,-12,-111,-12c0,0,-100,0,-157,55c0,0,-58,55,-58,186V836H456c0,0,193,0,303,-109c0,0,110,-109,110,-309c0,0,0,-200,-110,-309C759,109,648,0,456,0Z" 
id="f0_j"
transform="scale(0.001,-0.001)" />

<path d="M495,0V729H66V836H781V729H634V0Z" 
id="f0_l"
transform="scale(0.001,-0.001)" />

<path d="M139,0V836H278V0Z" 
id="f0_7"
transform="scale(0.001,-0.001)" />

<path d="M66,0V107H554V452c0,0,0,56,-4,93c0,0,-4,37,-18,75c0,0,-14,38,-40,60c0,0,-26,22,-71,36c0,0,-45,13,-110,13H66V836H312c0,0,91,0,157,-17c0,0,66,-17,109,-49c0,0,44,-32,69,-84c0,0,26,-52,36,-114c0,0,10,-62,10,-147V107H817V0Z" 
id="f0_8"
transform="scale(0.001,-0.001)" />

<path d="M71,-141V-15L289,62L66,836H210L416,109c0,0,99,42,153,98c0,0,53,56,80,155c0,0,26,98,26,262V836H817V624c0,0,0,-88,-7,-154c0,0,-7,-67,-25,-132c0,0,-18,-66,-51,-116c0,0,-33,-51,-84,-98c0,0,-50,-48,-123,-87c0,0,-72,-39,-169,-74L71,-141Z" 
id="f0_n"
transform="scale(0.001,-0.001)" />

<path d="M117,-176L179,62V190H336V62L213,-176Z" 
id="f0_m"
transform="scale(0.001,-0.001)" />

<path d="M112,-5c0,0,-39,0,-97,11V113c0,0,48,-10,77,-10c0,0,53,0,70,42c0,0,17,43,17,164V729H50V836H501c0,0,107,0,179,-25c0,0,72,-25,112,-77c0,0,40,-51,57,-118c0,0,16,-67,16,-164V0H726V454c0,0,0,55,-3,92c0,0,-4,37,-17,75c0,0,-14,38,-38,59c0,0,-24,22,-65,36c0,0,-42,13,-102,13H318V309c0,0,0,-160,-46,-237C272,72,226,-5,112,-5Z" 
id="f0_4"
transform="scale(0.001,-0.001)" />

<path d="M139,0V138c0,0,0,61,8,112c0,0,7,52,19,87c0,0,11,36,30,66c0,0,19,31,35,49c0,0,17,19,41,35c0,0,25,17,41,25c0,0,17,7,40,17L141,836H303L613,388c0,0,20,10,33,18c0,0,13,8,34,28c0,0,20,20,33,44c0,0,13,25,22,66c0,0,10,41,10,92V836H882V698c0,0,0,-61,-7,-112c0,0,-6,-52,-18,-88c0,0,-12,-36,-30,-66c0,0,-19,-30,-36,-49c0,0,-17,-18,-41,-34c0,0,-24,-17,-40,-25c0,0,-17,-8,-41,-17L882,0H720L409,448c0,0,-21,-11,-34,-19c0,0,-13,-8,-34,-27c0,0,-21,-20,-34,-44c0,0,-12,-25,-22,-66c0,0,-9,-41,-9,-92V0Z" 
id="f0_c"
transform="scale(0.001,-0.001)" />

<path d="M152,0V473c0,0,0,94,28,161c0,0,29,66,71,95H66V836H463V729H404c0,0,-65,0,-89,-57c0,0,-25,-58,-25,-199V0Z" 
id="f0_i"
transform="scale(0.001,-0.001)" />

<path d="M700,-317V454c0,0,0,155,-54,215c0,0,-54,60,-180,60H277V551c0,0,0,-55,26,-80c0,0,27,-26,82,-26c0,0,30,0,80,10V341c0,0,-61,-11,-111,-11c0,0,-100,0,-157,55c0,0,-58,55,-58,186V836H466c0,0,203,0,288,-91c0,0,85,-92,85,-293V-317Z" 
id="f0_10"
transform="scale(0.001,-0.001)" />

<path d="M163,0V190H321V0Z" 
id="f0_q"
transform="scale(0.001,-0.001)" />

<path d="M66,0V106H564L66,836H228L516,413c0,0,3,2,9,6c0,0,17,13,27,21c0,0,10,8,26,27c0,0,17,20,26,40c0,0,9,21,16,54c0,0,7,34,7,75V836H764V698c0,0,0,-55,-7,-102c0,0,-7,-47,-16,-79c0,0,-10,-33,-27,-62c0,0,-18,-29,-32,-46c0,0,-14,-17,-37,-35c0,0,-22,-17,-36,-25c0,0,-13,-8,-36,-20L767,53V0Z" 
id="f0_g"
transform="scale(0.001,-0.001)" />

<path d="M139,-317V836H278V-317Z" 
id="f0_p"
transform="scale(0.001,-0.001)" />

<path d="M114,0l60,312c0,0,2,12,8,39c0,0,6,27,7,37c0,0,2,11,5,30c0,0,2,19,4,33c0,0,1,15,1,31c0,0,0,48,-35,146c0,0,-35,98,-98,208H228c0,0,3,-8,27,-67c0,0,25,-58,41,-117c0,0,21,53,50,90c0,0,29,37,57,57c0,0,29,21,65,32c0,0,37,11,65,14c0,0,28,3,67,3c0,0,300,0,300,-396V0H480V106H761V452c0,0,0,146,-46,215c0,0,-45,70,-118,70c0,0,-134,0,-198,-119c0,0,-36,-68,-67,-222c0,0,-2,-10,-6,-27L253,0Z" 
id="f0_f"
transform="scale(0.001,-0.001)" />

<path d="M180,0L66,836H203L258,443c0,0,36,1,64,6c0,0,28,6,49,18c0,0,20,12,35,26c0,0,15,13,26,36c0,0,11,24,17,44c0,0,7,20,12,55c0,0,6,34,9,60c0,0,3,26,8,71c0,0,4,45,9,77H610c0,0,-13,-194,-31,-271c0,0,-31,-127,-111,-179c0,0,-71,-45,-196,-50L304,107c0,0,73,0,130,5c0,0,56,6,111,21c0,0,54,15,94,40c0,0,40,25,77,64c0,0,37,39,63,94c0,0,25,54,46,128c0,0,21,73,34,166c0,0,13,94,20,211h138c0,0,-14,-124,-29,-218c0,0,-16,-94,-39,-179c0,0,-22,-85,-50,-146c0,0,-28,-61,-68,-112c0,0,-39,-51,-87,-84C744,97,696,65,632,42C632,42,568,19,492,10C492,10,417,0,320,0Z" 
id="f0_b"
transform="scale(0.001,-0.001)" />

<path d="M522,92c0,0,247,0,247,333c0,0,0,88,-17,146c0,0,-17,58,-53,91c0,0,-35,33,-82,46c0,0,-48,14,-116,14H276V419c0,0,0,-327,246,-327Zm0,-112c0,0,-193,0,-289,109c0,0,-95,110,-95,337V836H501c0,0,213,0,309,-93c0,0,96,-94,96,-317c0,0,0,-227,-95,-337C811,89,715,-20,522,-20Z" 
id="f0_o"
transform="scale(0.001,-0.001)" />

<path d="M522,-20c0,0,-196,0,-290,99c0,0,-94,100,-94,324V836H276V397c0,0,0,-86,16,-147c0,0,17,-60,50,-94c0,0,34,-34,77,-49c0,0,43,-15,103,-15c0,0,59,0,102,15c0,0,44,15,77,49c0,0,33,34,50,94c0,0,17,61,17,147c0,0,0,84,-8,143c0,0,-7,58,-25,105c0,0,-17,47,-51,69c0,0,-33,23,-83,23c0,0,-50,0,-119,-22V821c0,0,85,23,150,23c0,0,76,0,130,-30c0,0,53,-31,85,-90c0,0,31,-59,45,-138c0,0,13,-78,13,-183c0,0,0,-224,-93,-324c0,0,-94,-99,-290,-99Z" 
id="f0_t"
transform="scale(0.001,-0.001)" />

<path d="M138,-7c0,0,-34,0,-72,10V129c0,0,25,-8,52,-8c0,0,33,0,58,5c0,0,26,5,58,24c0,0,33,20,53,54c0,0,21,34,36,97c0,0,15,64,15,151c0,0,0,113,-19,173c0,0,-19,60,-56,82c0,0,-38,22,-107,22H89V836h72c0,0,165,0,240,-91c0,0,76,-91,76,-293c0,0,0,-107,26,-227c0,0,25,-119,83,-225H437c0,0,-43,101,-62,184c0,0,-24,-60,-51,-99c0,0,-26,-38,-56,-58C268,27,239,7,209,0c0,0,-30,-7,-71,-7Z" 
id="f0_s"
transform="scale(0.001,-0.001)" />

<path d="M66,0V107H332V555c0,0,0,92,-37,133c0,0,-37,41,-116,41H85V836h94c0,0,153,0,223,-66c0,0,69,-66,69,-231V0Z" 
id="f0_d"
transform="scale(0.001,-0.001)" />

<path d="M139,0V836H485c0,0,206,0,290,-90c0,0,84,-89,84,-294V0H721V473c0,0,0,147,-49,202c0,0,-48,54,-186,54H277V0Z" 
id="f0_r"
transform="scale(0.001,-0.001)" />

<path d="M585,0V426c0,0,0,54,-8,98c0,0,-8,44,-27,83c0,0,-19,40,-49,66c0,0,-30,26,-77,41c0,0,-47,15,-108,15H66V836H315c0,0,94,0,166,-20c0,0,71,-20,116,-54c0,0,46,-35,75,-88c0,0,28,-52,40,-112c0,0,12,-60,12,-137V0Z" 
id="f0_9"
transform="scale(0.001,-0.001)" />

<path d="M543,-317V369c0,0,0,85,-8,143c0,0,-8,58,-27,101c0,0,-18,44,-51,69c0,0,-33,24,-80,36c0,0,-48,11,-117,11H66V836H257c0,0,125,0,205,-23c0,0,80,-23,130,-79c0,0,50,-56,70,-143c0,0,20,-86,20,-222V-317Z" 
id="f0_k"
transform="scale(0.001,-0.001)" />

<path d="M156,-317V454l139,56V-317ZM505,0L806,729H139V835H967V753L650,0Z" 
id="f0_3"
transform="scale(0.001,-0.001)" />

<path d="M74,357V479H476V357Z" 
id="f0_13"
transform="scale(0.001,-0.001)" />

<path d="M284,67c0,0,51,0,88,12c0,0,37,12,74,30V358l-98,-3c0,0,-100,-4,-135,-39c0,0,-35,-35,-35,-117c0,0,0,-132,106,-132ZM233,-14c0,0,-179,0,-179,208c0,0,0,70,27,116c0,0,27,46,87,70c0,0,60,24,173,27l105,3V519c0,0,0,72,-26,107c0,0,-27,34,-82,34c0,0,-75,0,-137,-35L176,538H134V691c0,0,121,26,213,26c0,0,115,0,169,-47c0,0,54,-47,54,-144V52L657,33V0H465L451,70c0,0,-85,-84,-218,-84Z" 
id="f1_b"
transform="scale(0.001,-0.001)" />

<path d="M376,50c0,0,103,0,149,80c0,0,46,81,46,240c0,0,0,137,-47,204c0,0,-48,67,-148,67c0,0,-44,0,-87,-7c0,0,-44,-8,-63,-17V62c0,0,63,-12,150,-12Zm3,-64c0,0,-64,0,-141,14c0,0,-78,14,-136,37v971L0,1026v34H226V809c0,0,0,-40,-4,-148c0,0,74,59,188,59c0,0,143,0,219,-87c0,0,77,-87,77,-263c0,0,0,-189,-84,-287c0,0,-84,-97,-243,-97Z" 
id="f1_v"
transform="scale(0.001,-0.001)" />

<path d="M31,0V33l88,19V649L31,668v33H235l7,-87c0,0,44,37,121,71c0,0,76,35,121,35h11V530H463l-43,82c0,0,-37,0,-88,-10c0,0,-52,-10,-89,-26V52L363,33V0Z" 
id="f1_h"
transform="scale(0.001,-0.001)" />

<path d="M32,0V33L151,52V649L52,668v33H275V52L395,33V0ZM201,850c0,0,-32,0,-56,24c0,0,-24,24,-24,56c0,0,0,34,24,58c0,0,24,24,56,24c0,0,34,0,58,-24c0,0,24,-24,24,-58c0,0,0,-32,-24,-56c0,0,-24,-24,-58,-24Z" 
id="f1_j"
transform="scale(0.001,-0.001)" />

<path d="M399,-14c0,0,-341,0,-341,370c0,0,0,175,87,269c0,0,87,95,249,95c0,0,101,0,220,-23V501H573L541,625c0,0,-62,35,-149,35c0,0,-200,0,-200,-304c0,0,0,-158,61,-225c0,0,61,-67,189,-67c0,0,109,0,189,24V43C631,43,595,16,530,1c0,0,-64,-15,-131,-15Z" 
id="f1_i"
transform="scale(0.001,-0.001)" />

<path d="M495,413c0,0,0,133,-34,190c0,0,-34,57,-105,57c0,0,-78,0,-119,-63c0,0,-42,-62,-42,-184ZM374,-14c0,0,-163,0,-239,87c0,0,-75,88,-75,283c0,0,0,183,77,273c0,0,76,91,219,91c0,0,269,0,269,-306V353H194V340c0,0,0,-103,23,-160c0,0,22,-57,70,-87c0,0,47,-29,124,-29c0,0,40,0,96,6c0,0,55,7,91,15V43C598,43,562,20,500,3c0,0,-61,-17,-126,-17Z" 
id="f1_c"
transform="scale(0.001,-0.001)" />

<path d="M383,64c0,0,85,0,152,28V645c0,0,-67,13,-152,13c0,0,-194,0,-194,-314c0,0,0,-141,48,-211c0,0,48,-69,146,-69ZM342,-14c0,0,-287,0,-287,358c0,0,0,184,82,280c0,0,81,96,239,96c0,0,81,0,163,-18c0,0,-4,25,-4,124v182l-118,18v34H659V52L745,33V0H548l-9,52c0,0,-84,-66,-197,-66Z" 
id="f1_8"
transform="scale(0.001,-0.001)" />

<path d="M439,0V33l93,19V500c0,0,0,62,-30,97c0,0,-31,36,-94,36c0,0,-67,0,-165,-22V52L338,33V0H35V33l84,19V649L35,668v33H235l7,-57c0,0,57,33,122,54c0,0,65,22,108,22c0,0,91,0,137,-53c0,0,47,-53,47,-154V52L741,33V0Z" 
id="f1_e"
transform="scale(0.001,-0.001)" />

<path d="M377,45c0,0,99,0,147,73c0,0,47,73,47,237c0,0,0,161,-47,233c0,0,-47,72,-147,72c0,0,-97,0,-141,-69c0,0,-44,-69,-44,-236c0,0,0,-169,45,-240c0,0,44,-70,140,-70Zm0,-59c0,0,-158,0,-238,94c0,0,-81,95,-81,274c0,0,0,178,81,272c0,0,80,94,244,94c0,0,160,0,241,-92c0,0,82,-92,82,-274c0,0,0,-368,-329,-368Z" 
id="f1_f"
transform="scale(0.001,-0.001)" />

<path d="M345,75c0,0,50,0,110,26V351l-63,-2c0,0,-72,-3,-100,-38c0,0,-28,-35,-28,-113c0,0,0,-63,22,-93c0,0,23,-30,59,-30ZM266,-14c0,0,-217,0,-217,208c0,0,0,79,32,126c0,0,32,48,93,71c0,0,60,22,190,25l91,2V521c0,0,0,126,-104,126c0,0,-62,0,-140,-39L183,521H134V691c0,0,112,17,165,21c0,0,53,5,108,5c0,0,264,0,264,-194V67L741,49V0H483L466,54C466,54,408,14,361,0c0,0,-47,-14,-95,-14Z" 
id="f2_e"
transform="scale(0.001,-0.001)" />

<path d="M276,-14c0,0,-57,0,-125,13C151,-1,83,10,48,23V214H97l28,-98c0,0,26,-26,69,-44c0,0,42,-17,86,-17c0,0,65,0,97,28c0,0,32,28,32,71c0,0,0,41,-31,65c0,0,-30,25,-133,57c0,0,-108,34,-154,92c0,0,-45,58,-45,143c0,0,0,95,71,152c0,0,71,57,183,57c0,0,77,0,207,-22V518H457l-24,82c0,0,-21,22,-60,35c0,0,-40,14,-75,14c0,0,-53,0,-79,-22c0,0,-26,-22,-26,-59c0,0,0,-40,32,-65c0,0,32,-26,132,-55c0,0,109,-34,155,-89c0,0,45,-55,45,-137c0,0,0,-117,-72,-177c0,0,-72,-59,-209,-59Z" 
id="f2_d"
transform="scale(0.001,-0.001)" />

<path d="M254,-20c0,0,-52,0,-88,34c0,0,-36,36,-36,88c0,0,0,52,36,88c0,0,35,36,88,36c0,0,51,0,87,-36c0,0,36,-36,36,-88c0,0,0,-51,-35,-87c0,0,-36,-35,-88,-35ZM210,313l-68,687H365L296,313Z" 
id="f2_l"
transform="scale(0.001,-0.001)" />

<path d="M434,423c0,0,0,101,-7,142c0,0,-6,40,-22,60c0,0,-16,19,-45,19c0,0,-44,0,-66,-48c0,0,-22,-49,-22,-173ZM389,-14c0,0,-172,0,-254,89c0,0,-83,90,-83,279c0,0,0,184,79,274c0,0,79,91,238,91c0,0,142,0,206,-76c0,0,64,-76,64,-237V345H271V333c0,0,0,-111,18,-158c0,0,18,-47,58,-72c0,0,40,-25,110,-25c0,0,66,0,166,22V42C623,42,582,18,517,1c0,0,-66,-15,-128,-15Z" 
id="f2_f"
transform="scale(0.001,-0.001)" />

<path d="M249,-14c0,0,-71,0,-107,42c0,0,-35,42,-35,119V639H15v33l93,29l76,159h47V701H391V639H231V161c0,0,0,-48,22,-73c0,0,22,-24,57,-24c0,0,44,0,106,12V26C416,26,389,8,340,-2c0,0,-49,-12,-91,-12Z" 
id="f1_2"
transform="scale(0.001,-0.001)" />

<path d="M289,-14c0,0,-179,0,-179,205V649L20,668v33H233V200c0,0,0,-128,120,-128c0,0,92,0,173,23V649L420,668v33H649V52L738,34V0H533l-6,57C527,57,474,28,405,6c0,0,-69,-20,-116,-20Zm24,849v24l147,203H618v-27L354,835Z" 
id="f1_3"
transform="scale(0.001,-0.001)" />

<path d="M434,423c0,0,0,100,-7,141c0,0,-6,40,-22,60c0,0,-16,19,-45,19c0,0,-44,0,-66,-48c0,0,-22,-49,-22,-172ZM389,-13c0,0,-172,0,-254,89c0,0,-83,90,-83,278c0,0,0,184,79,274c0,0,79,90,238,90c0,0,142,0,206,-76c0,0,64,-76,64,-236V345H271V333c0,0,0,-111,18,-158c0,0,18,-47,58,-72c0,0,40,-25,110,-25c0,0,66,0,166,22V43C623,43,582,18,517,2c0,0,-66,-15,-128,-15ZM267,834v25l124,203H604v-28L331,834Z" 
id="f2_a"
transform="scale(0.001,-0.001)" />

<path d="M289,-14c0,0,-179,0,-179,205V649L20,668v33H233V200c0,0,0,-128,120,-128c0,0,92,0,173,23V649L420,668v33H649V52L738,33V0H533l-6,57C527,57,474,28,405,7c0,0,-69,-21,-116,-21Z" 
id="f1_o"
transform="scale(0.001,-0.001)" />

<path d="M278,-14c0,0,-52,0,-115,11c0,0,-63,10,-99,23V193H98L134,95c0,0,56,-50,146,-50c0,0,144,0,144,123c0,0,0,91,-114,130l-66,21c0,0,-75,25,-110,50c0,0,-34,26,-53,63c0,0,-18,36,-18,89c0,0,0,92,63,145c0,0,63,54,170,54c0,0,77,0,193,-23V544H454l-32,81c0,0,-39,35,-124,35c0,0,-61,0,-92,-30c0,0,-32,-30,-32,-80c0,0,0,-43,29,-72c0,0,28,-29,86,-48c0,0,110,-38,144,-55c0,0,33,-17,57,-42c0,0,23,-25,36,-57c0,0,13,-32,13,-79c0,0,0,-104,-66,-158c0,0,-66,-53,-195,-53Z" 
id="f1_9"
transform="scale(0.001,-0.001)" />

<path d="M41,0V49l69,18V634L41,652v49H313l11,-61l50,26c0,0,105,54,188,54c0,0,194,0,194,-207V67L827,49V0H478V49l63,18V484c0,0,0,63,-27,98c0,0,-26,35,-75,35c0,0,-57,0,-114,-25V67L389,49V0Z" 
id="f2_o"
transform="scale(0.001,-0.001)" />

<path d="M284,67c0,0,51,0,88,12c0,0,37,11,74,29V357l-98,-3c0,0,-100,-3,-135,-38c0,0,-35,-36,-35,-118c0,0,0,-131,106,-131ZM233,-14c0,0,-179,0,-179,208c0,0,0,70,27,116c0,0,27,46,87,70c0,0,60,24,173,27l105,3V519c0,0,0,73,-26,107c0,0,-27,34,-82,34c0,0,-75,0,-137,-35L176,538H134V691c0,0,121,26,213,26c0,0,115,0,169,-47c0,0,54,-47,54,-144V52L657,34V0H465L451,70c0,0,-85,-84,-218,-84Zm22,849v24l146,203H560v-27L296,835Z" 
id="f1_w"
transform="scale(0.001,-0.001)" />

<path d="M254,-20c0,0,-39,0,-65,25c0,0,-26,27,-26,64c0,0,0,38,26,64c0,0,27,26,65,26c0,0,38,0,64,-26c0,0,26,-26,26,-64c0,0,0,-37,-26,-64c0,0,-26,-25,-64,-25ZM219,290l-47,710H335L289,290Z" 
id="f1_x"
transform="scale(0.001,-0.001)" />

<path d="M495,413c0,0,0,133,-34,190c0,0,-34,57,-105,57c0,0,-78,0,-119,-62c0,0,-42,-63,-42,-185ZM374,-14c0,0,-163,0,-239,87c0,0,-75,88,-75,283c0,0,0,183,77,274c0,0,76,90,219,90c0,0,269,0,269,-306V353H194V339c0,0,0,-103,23,-160c0,0,22,-57,70,-86c0,0,47,-30,124,-30c0,0,40,0,96,6c0,0,55,7,91,15V43C598,43,562,19,500,2c0,0,-61,-16,-126,-16ZM285,835v24l146,203H590v-27L326,835Z" 
id="f1_y"
transform="scale(0.001,-0.001)" />

<path d="M360,-14L72,649L0,668v33H327V668L216,648L420,164L615,649L504,668v33H764V668L697,652L416,-14Z" 
id="f1_z"
transform="scale(0.001,-0.001)" />

<path d="M111,0V127c0,0,86,89,234,238c0,0,148,150,186,193c0,0,73,81,101,138c0,0,29,56,29,110c0,0,0,89,-62,145c0,0,-62,56,-162,56c0,0,-71,0,-150,-25c0,0,-78,-24,-168,-75v153c0,0,91,37,170,55c0,0,79,19,145,19c0,0,173,0,276,-86c0,0,103,-87,103,-232c0,0,0,-68,-26,-130c0,0,-26,-61,-94,-145c0,0,-18,-22,-118,-125C575,416,475,313,293,127H818V0Z" 
id="f0_14"
transform="scale(0.001,-0.001)" />


</defs>
</svg>